<?xml version="1.0" encoding="utf-8" standalone="no"?>
<!DOCTYPE svg PUBLIC "-//W3C//DTD SVG 1.1//EN"
  "http://www.w3.org/Graphics/SVG/1.1/DTD/svg11.dtd">
<!-- Created with matplotlib (http://matplotlib.org/) -->
<svg height="288pt" version="1.1" viewBox="0 0 432 288" width="432pt" xmlns="http://www.w3.org/2000/svg" xmlns:xlink="http://www.w3.org/1999/xlink">
 <defs>
  <style type="text/css">
*{stroke-linecap:butt;stroke-linejoin:round;stroke-miterlimit:100000;}
  </style>
 </defs>
 <g id="figure_1">
  <g id="patch_1">
   <path d="M 0 288 
L 432 288 
L 432 0 
L 0 0 
z
" style="fill:#ffffff;"/>
  </g>
  <g id="axes_1">
   <g id="patch_2">
    <path d="M 54 230.4 
L 388.8 230.4 
L 388.8 28.8 
L 54 28.8 
z
" style="fill:#eaeaf2;"/>
   </g>
   <g id="matplotlib.axis_1">
    <g id="xtick_1">
     <g id="line2d_1">
      <path clip-path="url(#p6ee021f4ff)" d="M 66.194702 230.4 
L 66.194702 28.8 
" style="fill:none;stroke:#ffffff;stroke-linecap:round;"/>
     </g>
     <g id="line2d_2"/>
     <g id="line2d_3"/>
     <g id="text_1">
      <!-- 1月 2016 -->
      <defs>
       <path d="M 7.625 0 
L 7.625 7.46875 
L 25.140625 7.46875 
L 25.140625 60.40625 
L 9.625 49.3125 
L 9.625 57.625 
L 25.875 68.796875 
L 33.984375 68.796875 
L 33.984375 7.46875 
L 50.734375 7.46875 
L 50.734375 0 
z
" id="LiberationSans-31"/>
       <path d="M 5.03125 0 
L 5.03125 6.203125 
Q 7.515625 11.921875 11.109375 16.28125 
Q 14.703125 20.65625 18.65625 24.1875 
Q 22.609375 27.734375 26.484375 30.765625 
Q 30.375 33.796875 33.5 36.8125 
Q 36.625 39.84375 38.546875 43.15625 
Q 40.484375 46.484375 40.484375 50.6875 
Q 40.484375 53.609375 39.59375 55.828125 
Q 38.71875 58.0625 37.0625 59.5625 
Q 35.40625 61.078125 33.078125 61.828125 
Q 30.765625 62.59375 27.9375 62.59375 
Q 25.296875 62.59375 22.96875 61.859375 
Q 20.65625 61.140625 18.84375 59.671875 
Q 17.046875 58.203125 15.890625 56.03125 
Q 14.75 53.859375 14.40625 50.984375 
L 5.421875 51.8125 
Q 5.859375 55.515625 7.46875 58.78125 
Q 9.078125 62.0625 11.90625 64.53125 
Q 14.75 67 18.71875 68.40625 
Q 22.703125 69.828125 27.9375 69.828125 
Q 33.0625 69.828125 37.0625 68.609375 
Q 41.0625 67.390625 43.8125 64.984375 
Q 46.578125 62.59375 48.046875 59.078125 
Q 49.515625 55.5625 49.515625 50.984375 
Q 49.515625 47.515625 48.265625 44.390625 
Q 47.015625 41.265625 44.9375 38.421875 
Q 42.875 35.59375 40.140625 32.953125 
Q 37.40625 30.328125 34.421875 27.8125 
Q 31.453125 25.296875 28.421875 22.828125 
Q 25.390625 20.359375 22.71875 17.859375 
Q 20.0625 15.375 17.96875 12.8125 
Q 15.875 10.25 14.703125 7.46875 
L 50.59375 7.46875 
L 50.59375 0 
z
" id="LiberationSans-32"/>
       <path d="M 51.21875 22.515625 
Q 51.21875 17.328125 49.78125 13 
Q 48.34375 8.6875 45.53125 5.578125 
Q 42.71875 2.484375 38.5625 0.75 
Q 34.421875 -0.984375 29 -0.984375 
Q 23 -0.984375 18.5 1.3125 
Q 14.015625 3.609375 11.03125 7.921875 
Q 8.0625 12.25 6.5625 18.53125 
Q 5.078125 24.8125 5.078125 32.8125 
Q 5.078125 42 6.765625 48.921875 
Q 8.453125 55.859375 11.625 60.5 
Q 14.796875 65.140625 19.359375 67.484375 
Q 23.921875 69.828125 29.6875 69.828125 
Q 33.203125 69.828125 36.28125 69.09375 
Q 39.359375 68.359375 41.875 66.71875 
Q 44.390625 65.09375 46.28125 62.40625 
Q 48.1875 59.71875 49.3125 55.8125 
L 40.921875 54.296875 
Q 39.546875 58.734375 36.546875 60.71875 
Q 33.546875 62.703125 29.59375 62.703125 
Q 25.984375 62.703125 23.046875 60.984375 
Q 20.125 59.28125 18.0625 55.875 
Q 16.015625 52.484375 14.90625 47.359375 
Q 13.8125 42.234375 13.8125 35.40625 
Q 16.21875 39.84375 20.5625 42.15625 
Q 24.90625 44.484375 30.515625 44.484375 
Q 35.203125 44.484375 39.015625 42.96875 
Q 42.828125 41.453125 45.53125 38.59375 
Q 48.25 35.75 49.734375 31.671875 
Q 51.21875 27.59375 51.21875 22.515625 
M 42.28125 22.125 
Q 42.28125 25.6875 41.40625 28.5625 
Q 40.53125 31.453125 38.765625 33.46875 
Q 37.015625 35.5 34.421875 36.59375 
Q 31.84375 37.703125 28.421875 37.703125 
Q 26.03125 37.703125 23.578125 36.984375 
Q 21.140625 36.28125 19.15625 34.6875 
Q 17.1875 33.109375 15.9375 30.515625 
Q 14.703125 27.9375 14.703125 24.21875 
Q 14.703125 20.40625 15.671875 17.109375 
Q 16.65625 13.8125 18.484375 11.375 
Q 20.3125 8.9375 22.890625 7.515625 
Q 25.484375 6.109375 28.71875 6.109375 
Q 31.890625 6.109375 34.40625 7.203125 
Q 36.921875 8.296875 38.671875 10.375 
Q 40.4375 12.453125 41.359375 15.421875 
Q 42.28125 18.40625 42.28125 22.125 
" id="LiberationSans-36"/>
       <path id="LiberationSans-20"/>
       <path d="M 51.703125 34.421875 
Q 51.703125 24.515625 49.828125 17.75 
Q 47.953125 10.984375 44.703125 6.8125 
Q 41.453125 2.640625 37.0625 0.828125 
Q 32.671875 -0.984375 27.6875 -0.984375 
Q 22.65625 -0.984375 18.3125 0.828125 
Q 13.96875 2.640625 10.765625 6.78125 
Q 7.5625 10.9375 5.734375 17.703125 
Q 3.90625 24.46875 3.90625 34.421875 
Q 3.90625 44.828125 5.734375 51.640625 
Q 7.5625 58.453125 10.78125 62.5 
Q 14.015625 66.546875 18.40625 68.1875 
Q 22.796875 69.828125 27.984375 69.828125 
Q 32.90625 69.828125 37.21875 68.1875 
Q 41.546875 66.546875 44.765625 62.5 
Q 48 58.453125 49.84375 51.640625 
Q 51.703125 44.828125 51.703125 34.421875 
M 42.78125 34.421875 
Q 42.78125 42.625 41.796875 48.0625 
Q 40.828125 53.515625 38.921875 56.765625 
Q 37.015625 60.015625 34.25 61.359375 
Q 31.5 62.703125 27.984375 62.703125 
Q 24.265625 62.703125 21.4375 61.328125 
Q 18.609375 59.96875 16.671875 56.71875 
Q 14.75 53.46875 13.765625 48.015625 
Q 12.796875 42.578125 12.796875 34.421875 
Q 12.796875 26.515625 13.796875 21.09375 
Q 14.796875 15.671875 16.71875 12.375 
Q 18.65625 9.078125 21.4375 7.640625 
Q 24.21875 6.203125 27.78125 6.203125 
Q 31.25 6.203125 34.03125 7.640625 
Q 36.8125 9.078125 38.734375 12.375 
Q 40.671875 15.671875 41.71875 21.09375 
Q 42.78125 26.515625 42.78125 34.421875 
" id="LiberationSans-30"/>
       <path d="M 51.90625 50.390625 
Q 51.90625 46.921875 51 44.28125 
Q 50.09375 41.65625 48.578125 39.578125 
Q 47.078125 37.5 45.140625 35.859375 
Q 43.21875 34.234375 41.203125 32.765625 
Q 39.203125 31.296875 37.28125 29.875 
Q 35.359375 28.46875 33.8125 26.796875 
Q 32.28125 25.140625 31.328125 23.109375 
Q 30.375 21.09375 30.328125 18.40625 
L 21.78125 18.40625 
Q 21.875 21.78125 22.828125 24.3125 
Q 23.78125 26.859375 25.296875 28.8125 
Q 26.8125 30.765625 28.703125 32.296875 
Q 30.609375 33.84375 32.5625 35.234375 
Q 34.515625 36.625 36.390625 38.015625 
Q 38.28125 39.40625 39.75 41.109375 
Q 41.21875 42.828125 42.109375 44.96875 
Q 43.015625 47.125 43.015625 50 
Q 43.015625 52.875 41.984375 55.125 
Q 40.96875 57.375 39.078125 58.90625 
Q 37.203125 60.453125 34.546875 61.234375 
Q 31.890625 62.015625 28.609375 62.015625 
Q 21.78125 62.015625 17.765625 58.59375 
Q 13.765625 55.171875 13.09375 49.21875 
L 4.109375 49.8125 
Q 4.640625 53.90625 6.265625 57.546875 
Q 7.90625 61.1875 10.859375 63.921875 
Q 13.8125 66.65625 18.1875 68.234375 
Q 22.5625 69.828125 28.515625 69.828125 
Q 34.078125 69.828125 38.421875 68.453125 
Q 42.78125 67.09375 45.78125 64.578125 
Q 48.78125 62.0625 50.34375 58.4375 
Q 51.90625 54.828125 51.90625 50.390625 
M 21.390625 0 
L 21.390625 9.8125 
L 30.90625 9.8125 
L 30.90625 0 
z
" id="LiberationSans-3f"/>
      </defs>
      <g style="fill:#262626;" transform="translate(35.5080103892 260.793946598)rotate(-30.0)scale(0.1 -0.1)">
       <use xlink:href="#LiberationSans-31"/>
       <use x="55.615234375" xlink:href="#LiberationSans-3f"/>
       <use x="111.23046875" xlink:href="#LiberationSans-20"/>
       <use x="139.013671875" xlink:href="#LiberationSans-32"/>
       <use x="194.62890625" xlink:href="#LiberationSans-30"/>
       <use x="250.244140625" xlink:href="#LiberationSans-31"/>
       <use x="305.859375" xlink:href="#LiberationSans-36"/>
      </g>
     </g>
    </g>
    <g id="xtick_2">
     <g id="line2d_4">
      <path clip-path="url(#p6ee021f4ff)" d="M 100.561589 230.4 
L 100.561589 28.8 
" style="fill:none;stroke:#ffffff;stroke-linecap:round;"/>
     </g>
     <g id="line2d_5"/>
     <g id="line2d_6"/>
     <g id="text_2">
      <!-- 2月 2016 -->
      <g style="fill:#262626;" transform="translate(69.8748978065 260.793946598)rotate(-30.0)scale(0.1 -0.1)">
       <use xlink:href="#LiberationSans-32"/>
       <use x="55.615234375" xlink:href="#LiberationSans-3f"/>
       <use x="111.23046875" xlink:href="#LiberationSans-20"/>
       <use x="139.013671875" xlink:href="#LiberationSans-32"/>
       <use x="194.62890625" xlink:href="#LiberationSans-30"/>
       <use x="250.244140625" xlink:href="#LiberationSans-31"/>
       <use x="305.859375" xlink:href="#LiberationSans-36"/>
      </g>
     </g>
    </g>
    <g id="xtick_3">
     <g id="line2d_7">
      <path clip-path="url(#p6ee021f4ff)" d="M 132.711258 230.4 
L 132.711258 28.8 
" style="fill:none;stroke:#ffffff;stroke-linecap:round;"/>
     </g>
     <g id="line2d_8"/>
     <g id="line2d_9"/>
     <g id="text_3">
      <!-- 3月 2016 -->
      <defs>
       <path d="M 51.21875 19 
Q 51.21875 14.265625 49.671875 10.546875 
Q 48.140625 6.84375 45.1875 4.265625 
Q 42.234375 1.703125 37.859375 0.359375 
Q 33.5 -0.984375 27.875 -0.984375 
Q 21.484375 -0.984375 17.109375 0.609375 
Q 12.75 2.203125 9.90625 4.8125 
Q 7.078125 7.421875 5.65625 10.765625 
Q 4.25 14.109375 3.8125 17.671875 
L 12.890625 18.5 
Q 13.28125 15.765625 14.328125 13.515625 
Q 15.375 11.28125 17.1875 9.671875 
Q 19 8.0625 21.625 7.171875 
Q 24.265625 6.296875 27.875 6.296875 
Q 34.515625 6.296875 38.296875 9.5625 
Q 42.09375 12.84375 42.09375 19.28125 
Q 42.09375 23.09375 40.40625 25.40625 
Q 38.71875 27.734375 36.203125 29.03125 
Q 33.6875 30.328125 30.734375 30.765625 
Q 27.78125 31.203125 25.296875 31.203125 
L 20.3125 31.203125 
L 20.3125 38.8125 
L 25.09375 38.8125 
Q 27.59375 38.8125 30.265625 39.328125 
Q 32.953125 39.84375 35.171875 41.1875 
Q 37.40625 42.53125 38.84375 44.828125 
Q 40.28125 47.125 40.28125 50.6875 
Q 40.28125 56.203125 37.03125 59.390625 
Q 33.796875 62.59375 27.390625 62.59375 
Q 21.578125 62.59375 17.984375 59.609375 
Q 14.40625 56.640625 13.8125 51.21875 
L 4.984375 51.90625 
Q 5.515625 56.453125 7.46875 59.8125 
Q 9.421875 63.1875 12.421875 65.40625 
Q 15.4375 67.625 19.28125 68.71875 
Q 23.140625 69.828125 27.484375 69.828125 
Q 33.25 69.828125 37.390625 68.375 
Q 41.546875 66.9375 44.1875 64.46875 
Q 46.828125 62.015625 48.0625 58.6875 
Q 49.3125 55.375 49.3125 51.609375 
Q 49.3125 48.578125 48.484375 45.9375 
Q 47.65625 43.3125 45.890625 41.203125 
Q 44.140625 39.109375 41.421875 37.59375 
Q 38.71875 36.078125 34.90625 35.296875 
L 34.90625 35.109375 
Q 39.0625 34.671875 42.140625 33.21875 
Q 45.21875 31.78125 47.21875 29.625 
Q 49.21875 27.484375 50.21875 24.75 
Q 51.21875 22.015625 51.21875 19 
" id="LiberationSans-33"/>
      </defs>
      <g style="fill:#262626;" transform="translate(102.024566681 260.793946598)rotate(-30.0)scale(0.1 -0.1)">
       <use xlink:href="#LiberationSans-33"/>
       <use x="55.615234375" xlink:href="#LiberationSans-3f"/>
       <use x="111.23046875" xlink:href="#LiberationSans-20"/>
       <use x="139.013671875" xlink:href="#LiberationSans-32"/>
       <use x="194.62890625" xlink:href="#LiberationSans-30"/>
       <use x="250.244140625" xlink:href="#LiberationSans-31"/>
       <use x="305.859375" xlink:href="#LiberationSans-36"/>
      </g>
     </g>
    </g>
    <g id="xtick_4">
     <g id="line2d_10">
      <path clip-path="url(#p6ee021f4ff)" d="M 167.078146 230.4 
L 167.078146 28.8 
" style="fill:none;stroke:#ffffff;stroke-linecap:round;"/>
     </g>
     <g id="line2d_11"/>
     <g id="line2d_12"/>
     <g id="text_4">
      <!-- 4月 2016 -->
      <defs>
       <path d="M 43.015625 15.578125 
L 43.015625 0 
L 34.71875 0 
L 34.71875 15.578125 
L 2.296875 15.578125 
L 2.296875 22.40625 
L 33.796875 68.796875 
L 43.015625 68.796875 
L 43.015625 22.515625 
L 52.6875 22.515625 
L 52.6875 15.578125 
z
M 34.71875 58.890625 
Q 34.625 58.640625 34.234375 57.9375 
Q 33.84375 57.234375 33.34375 56.34375 
Q 32.859375 55.46875 32.34375 54.5625 
Q 31.84375 53.65625 31.453125 53.078125 
L 13.8125 27.09375 
Q 13.578125 26.703125 13.109375 26.0625 
Q 12.640625 25.4375 12.15625 24.78125 
Q 11.671875 24.125 11.171875 23.484375 
Q 10.6875 22.859375 10.40625 22.515625 
L 34.71875 22.515625 
z
" id="LiberationSans-34"/>
      </defs>
      <g style="fill:#262626;" transform="translate(136.391454098 260.793946598)rotate(-30.0)scale(0.1 -0.1)">
       <use xlink:href="#LiberationSans-34"/>
       <use x="55.615234375" xlink:href="#LiberationSans-3f"/>
       <use x="111.23046875" xlink:href="#LiberationSans-20"/>
       <use x="139.013671875" xlink:href="#LiberationSans-32"/>
       <use x="194.62890625" xlink:href="#LiberationSans-30"/>
       <use x="250.244140625" xlink:href="#LiberationSans-31"/>
       <use x="305.859375" xlink:href="#LiberationSans-36"/>
      </g>
     </g>
    </g>
    <g id="xtick_5">
     <g id="line2d_13">
      <path clip-path="url(#p6ee021f4ff)" d="M 200.336424 230.4 
L 200.336424 28.8 
" style="fill:none;stroke:#ffffff;stroke-linecap:round;"/>
     </g>
     <g id="line2d_14"/>
     <g id="line2d_15"/>
     <g id="text_5">
      <!-- 5月 2016 -->
      <defs>
       <path d="M 51.421875 22.40625 
Q 51.421875 17.234375 49.859375 12.9375 
Q 48.296875 8.640625 45.21875 5.53125 
Q 42.140625 2.4375 37.578125 0.71875 
Q 33.015625 -0.984375 27 -0.984375 
Q 21.578125 -0.984375 17.546875 0.28125 
Q 13.53125 1.5625 10.734375 3.78125 
Q 7.953125 6 6.3125 8.984375 
Q 4.6875 11.96875 4 15.375 
L 12.890625 16.40625 
Q 13.421875 14.453125 14.390625 12.625 
Q 15.375 10.796875 17.0625 9.34375 
Q 18.75 7.90625 21.21875 7.046875 
Q 23.6875 6.203125 27.203125 6.203125 
Q 30.609375 6.203125 33.390625 7.25 
Q 36.1875 8.296875 38.15625 10.34375 
Q 40.140625 12.40625 41.203125 15.375 
Q 42.28125 18.359375 42.28125 22.21875 
Q 42.28125 25.390625 41.25 28.046875 
Q 40.234375 30.71875 38.328125 32.640625 
Q 36.421875 34.578125 33.65625 35.640625 
Q 30.90625 36.71875 27.390625 36.71875 
Q 25.203125 36.71875 23.34375 36.328125 
Q 21.484375 35.9375 19.890625 35.25 
Q 18.3125 34.578125 17.015625 33.671875 
Q 15.71875 32.765625 14.59375 31.78125 
L 6 31.78125 
L 8.296875 68.796875 
L 47.40625 68.796875 
L 47.40625 61.328125 
L 16.3125 61.328125 
L 14.984375 39.5 
Q 17.328125 41.3125 20.84375 42.59375 
Q 24.359375 43.890625 29.203125 43.890625 
Q 34.328125 43.890625 38.421875 42.328125 
Q 42.53125 40.765625 45.40625 37.90625 
Q 48.296875 35.0625 49.859375 31.109375 
Q 51.421875 27.15625 51.421875 22.40625 
" id="LiberationSans-35"/>
      </defs>
      <g style="fill:#262626;" transform="translate(169.649732244 260.793946598)rotate(-30.0)scale(0.1 -0.1)">
       <use xlink:href="#LiberationSans-35"/>
       <use x="55.615234375" xlink:href="#LiberationSans-3f"/>
       <use x="111.23046875" xlink:href="#LiberationSans-20"/>
       <use x="139.013671875" xlink:href="#LiberationSans-32"/>
       <use x="194.62890625" xlink:href="#LiberationSans-30"/>
       <use x="250.244140625" xlink:href="#LiberationSans-31"/>
       <use x="305.859375" xlink:href="#LiberationSans-36"/>
      </g>
     </g>
    </g>
    <g id="xtick_6">
     <g id="line2d_16">
      <path clip-path="url(#p6ee021f4ff)" d="M 234.703311 230.4 
L 234.703311 28.8 
" style="fill:none;stroke:#ffffff;stroke-linecap:round;"/>
     </g>
     <g id="line2d_17"/>
     <g id="line2d_18"/>
     <g id="text_6">
      <!-- 6月 2016 -->
      <g style="fill:#262626;" transform="translate(204.016619661 260.793946598)rotate(-30.0)scale(0.1 -0.1)">
       <use xlink:href="#LiberationSans-36"/>
       <use x="55.615234375" xlink:href="#LiberationSans-3f"/>
       <use x="111.23046875" xlink:href="#LiberationSans-20"/>
       <use x="139.013671875" xlink:href="#LiberationSans-32"/>
       <use x="194.62890625" xlink:href="#LiberationSans-30"/>
       <use x="250.244140625" xlink:href="#LiberationSans-31"/>
       <use x="305.859375" xlink:href="#LiberationSans-36"/>
      </g>
     </g>
    </g>
    <g id="xtick_7">
     <g id="line2d_19">
      <path clip-path="url(#p6ee021f4ff)" d="M 267.961589 230.4 
L 267.961589 28.8 
" style="fill:none;stroke:#ffffff;stroke-linecap:round;"/>
     </g>
     <g id="line2d_20"/>
     <g id="line2d_21"/>
     <g id="text_7">
      <!-- 7月 2016 -->
      <defs>
       <path d="M 50.59375 61.671875 
Q 45.40625 53.765625 41.0625 46.453125 
Q 36.71875 39.15625 33.59375 31.75 
Q 30.46875 24.359375 28.734375 16.578125 
Q 27 8.796875 27 0 
L 17.828125 0 
Q 17.828125 8.25 19.78125 16.1875 
Q 21.734375 24.125 25.046875 31.765625 
Q 28.375 39.40625 32.765625 46.78125 
Q 37.15625 54.15625 42.09375 61.328125 
L 5.125 61.328125 
L 5.125 68.796875 
L 50.59375 68.796875 
z
" id="LiberationSans-37"/>
      </defs>
      <g style="fill:#262626;" transform="translate(237.274897807 260.793946598)rotate(-30.0)scale(0.1 -0.1)">
       <use xlink:href="#LiberationSans-37"/>
       <use x="55.615234375" xlink:href="#LiberationSans-3f"/>
       <use x="111.23046875" xlink:href="#LiberationSans-20"/>
       <use x="139.013671875" xlink:href="#LiberationSans-32"/>
       <use x="194.62890625" xlink:href="#LiberationSans-30"/>
       <use x="250.244140625" xlink:href="#LiberationSans-31"/>
       <use x="305.859375" xlink:href="#LiberationSans-36"/>
      </g>
     </g>
    </g>
    <g id="xtick_8">
     <g id="line2d_22">
      <path clip-path="url(#p6ee021f4ff)" d="M 302.328477 230.4 
L 302.328477 28.8 
" style="fill:none;stroke:#ffffff;stroke-linecap:round;"/>
     </g>
     <g id="line2d_23"/>
     <g id="line2d_24"/>
     <g id="text_8">
      <!-- 8月 2016 -->
      <defs>
       <path d="M 51.265625 19.1875 
Q 51.265625 14.796875 49.875 11.109375 
Q 48.484375 7.421875 45.625 4.734375 
Q 42.78125 2.046875 38.328125 0.53125 
Q 33.890625 -0.984375 27.828125 -0.984375 
Q 21.78125 -0.984375 17.359375 0.53125 
Q 12.9375 2.046875 10.03125 4.703125 
Q 7.125 7.375 5.734375 11.0625 
Q 4.34375 14.75 4.34375 19.09375 
Q 4.34375 22.859375 5.484375 25.78125 
Q 6.640625 28.71875 8.5625 30.828125 
Q 10.5 32.953125 12.96875 34.25 
Q 15.4375 35.546875 18.0625 35.984375 
L 18.0625 36.1875 
Q 15.1875 36.859375 12.90625 38.375 
Q 10.640625 39.890625 9.09375 42.015625 
Q 7.5625 44.140625 6.75 46.71875 
Q 5.953125 49.3125 5.953125 52.203125 
Q 5.953125 55.8125 7.34375 59 
Q 8.734375 62.203125 11.46875 64.625 
Q 14.203125 67.046875 18.25 68.4375 
Q 22.3125 69.828125 27.640625 69.828125 
Q 33.25 69.828125 37.375 68.40625 
Q 41.5 67 44.203125 64.578125 
Q 46.921875 62.15625 48.234375 58.9375 
Q 49.5625 55.71875 49.5625 52.09375 
Q 49.5625 49.265625 48.75 46.671875 
Q 47.953125 44.09375 46.40625 41.96875 
Q 44.875 39.84375 42.59375 38.34375 
Q 40.328125 36.859375 37.359375 36.28125 
L 37.359375 36.078125 
Q 40.328125 35.59375 42.859375 34.296875 
Q 45.40625 33.015625 47.265625 30.890625 
Q 49.125 28.765625 50.1875 25.828125 
Q 51.265625 22.90625 51.265625 19.1875 
M 40.4375 51.609375 
Q 40.4375 54.203125 39.765625 56.34375 
Q 39.109375 58.5 37.59375 60.03125 
Q 36.078125 61.578125 33.640625 62.421875 
Q 31.203125 63.28125 27.640625 63.28125 
Q 24.171875 63.28125 21.78125 62.421875 
Q 19.390625 61.578125 17.84375 60.03125 
Q 16.3125 58.5 15.625 56.34375 
Q 14.9375 54.203125 14.9375 51.609375 
Q 14.9375 49.5625 15.46875 47.40625 
Q 16.015625 45.265625 17.421875 43.5 
Q 18.84375 41.75 21.328125 40.625 
Q 23.828125 39.5 27.734375 39.5 
Q 31.890625 39.5 34.40625 40.625 
Q 36.921875 41.75 38.25 43.5 
Q 39.59375 45.265625 40.015625 47.40625 
Q 40.4375 49.5625 40.4375 51.609375 
M 42.140625 20.015625 
Q 42.140625 22.515625 41.453125 24.828125 
Q 40.765625 27.15625 39.109375 28.9375 
Q 37.453125 30.71875 34.640625 31.8125 
Q 31.84375 32.90625 27.640625 32.90625 
Q 23.78125 32.90625 21.0625 31.8125 
Q 18.359375 30.71875 16.671875 28.90625 
Q 14.984375 27.09375 14.203125 24.71875 
Q 13.421875 22.359375 13.421875 19.828125 
Q 13.421875 16.65625 14.203125 14.03125 
Q 14.984375 11.421875 16.6875 9.546875 
Q 18.40625 7.671875 21.1875 6.640625 
Q 23.96875 5.609375 27.9375 5.609375 
Q 31.9375 5.609375 34.671875 6.640625 
Q 37.40625 7.671875 39.0625 9.546875 
Q 40.71875 11.421875 41.421875 14.078125 
Q 42.140625 16.75 42.140625 20.015625 
" id="LiberationSans-38"/>
      </defs>
      <g style="fill:#262626;" transform="translate(271.641785224 260.793946598)rotate(-30.0)scale(0.1 -0.1)">
       <use xlink:href="#LiberationSans-38"/>
       <use x="55.615234375" xlink:href="#LiberationSans-3f"/>
       <use x="111.23046875" xlink:href="#LiberationSans-20"/>
       <use x="139.013671875" xlink:href="#LiberationSans-32"/>
       <use x="194.62890625" xlink:href="#LiberationSans-30"/>
       <use x="250.244140625" xlink:href="#LiberationSans-31"/>
       <use x="305.859375" xlink:href="#LiberationSans-36"/>
      </g>
     </g>
    </g>
    <g id="xtick_9">
     <g id="line2d_25">
      <path clip-path="url(#p6ee021f4ff)" d="M 336.695364 230.4 
L 336.695364 28.8 
" style="fill:none;stroke:#ffffff;stroke-linecap:round;"/>
     </g>
     <g id="line2d_26"/>
     <g id="line2d_27"/>
     <g id="text_9">
      <!-- 9月 2016 -->
      <defs>
       <path d="M 50.875 35.796875 
Q 50.875 26.609375 49.140625 19.703125 
Q 47.40625 12.796875 44.1875 8.203125 
Q 40.96875 3.609375 36.34375 1.3125 
Q 31.734375 -0.984375 25.984375 -0.984375 
Q 22.015625 -0.984375 18.84375 -0.171875 
Q 15.671875 0.640625 13.171875 2.34375 
Q 10.6875 4.046875 8.921875 6.78125 
Q 7.171875 9.515625 6.109375 13.375 
L 14.5 14.703125 
Q 15.875 10.25 18.78125 8.171875 
Q 21.6875 6.109375 26.125 6.109375 
Q 29.6875 6.109375 32.640625 7.78125 
Q 35.59375 9.46875 37.671875 12.84375 
Q 39.75 16.21875 40.921875 21.296875 
Q 42.09375 26.375 42.1875 33.203125 
Q 41.15625 30.90625 39.375 29.09375 
Q 37.59375 27.296875 35.328125 26.046875 
Q 33.0625 24.8125 30.421875 24.140625 
Q 27.78125 23.484375 25.09375 23.484375 
Q 20.40625 23.484375 16.625 25.171875 
Q 12.84375 26.859375 10.203125 29.875 
Q 7.5625 32.90625 6.125 37.171875 
Q 4.6875 41.453125 4.6875 46.6875 
Q 4.6875 52 6.21875 56.296875 
Q 7.765625 60.59375 10.6875 63.59375 
Q 13.625 66.609375 17.890625 68.21875 
Q 22.171875 69.828125 27.59375 69.828125 
Q 39.0625 69.828125 44.96875 61.328125 
Q 50.875 52.828125 50.875 35.796875 
M 41.3125 44.28125 
Q 41.3125 48.09375 40.40625 51.453125 
Q 39.5 54.828125 37.71875 57.3125 
Q 35.9375 59.8125 33.328125 61.25 
Q 30.71875 62.703125 27.296875 62.703125 
Q 24.125 62.703125 21.578125 61.578125 
Q 19.046875 60.453125 17.28125 58.375 
Q 15.53125 56.296875 14.578125 53.3125 
Q 13.625 50.34375 13.625 46.6875 
Q 13.625 43.21875 14.46875 40.234375 
Q 15.328125 37.25 17.03125 35.078125 
Q 18.75 32.90625 21.28125 31.65625 
Q 23.828125 30.421875 27.203125 30.421875 
Q 29.640625 30.421875 32.15625 31.25 
Q 34.671875 32.078125 36.6875 33.78125 
Q 38.71875 35.5 40.015625 38.109375 
Q 41.3125 40.71875 41.3125 44.28125 
" id="LiberationSans-39"/>
      </defs>
      <g style="fill:#262626;" transform="translate(306.008672641 260.793946598)rotate(-30.0)scale(0.1 -0.1)">
       <use xlink:href="#LiberationSans-39"/>
       <use x="55.615234375" xlink:href="#LiberationSans-3f"/>
       <use x="111.23046875" xlink:href="#LiberationSans-20"/>
       <use x="139.013671875" xlink:href="#LiberationSans-32"/>
       <use x="194.62890625" xlink:href="#LiberationSans-30"/>
       <use x="250.244140625" xlink:href="#LiberationSans-31"/>
       <use x="305.859375" xlink:href="#LiberationSans-36"/>
      </g>
     </g>
    </g>
    <g id="xtick_10">
     <g id="line2d_28">
      <path clip-path="url(#p6ee021f4ff)" d="M 369.953642 230.4 
L 369.953642 28.8 
" style="fill:none;stroke:#ffffff;stroke-linecap:round;"/>
     </g>
     <g id="line2d_29"/>
     <g id="line2d_30"/>
     <g id="text_10">
      <!-- 10月 2016 -->
      <g style="fill:#262626;" transform="translate(334.451037643 263.574415348)rotate(-30.0)scale(0.1 -0.1)">
       <use xlink:href="#LiberationSans-31"/>
       <use x="55.615234375" xlink:href="#LiberationSans-30"/>
       <use x="111.23046875" xlink:href="#LiberationSans-3f"/>
       <use x="166.845703125" xlink:href="#LiberationSans-20"/>
       <use x="194.62890625" xlink:href="#LiberationSans-32"/>
       <use x="250.244140625" xlink:href="#LiberationSans-30"/>
       <use x="305.859375" xlink:href="#LiberationSans-31"/>
       <use x="361.474609375" xlink:href="#LiberationSans-36"/>
      </g>
     </g>
    </g>
    <g id="text_11">
     <!-- time -->
     <defs>
      <path d="M 6.6875 64.0625 
L 6.6875 72.46875 
L 15.484375 72.46875 
L 15.484375 64.0625 
z
M 6.6875 0 
L 6.6875 52.828125 
L 15.484375 52.828125 
L 15.484375 0 
z
" id="LiberationSans-69"/>
      <path d="M 27.046875 0.390625 
Q 25.046875 -0.140625 22.96875 -0.453125 
Q 20.90625 -0.78125 18.171875 -0.78125 
Q 7.625 -0.78125 7.625 11.1875 
L 7.625 46.4375 
L 1.515625 46.4375 
L 1.515625 52.828125 
L 7.953125 52.828125 
L 10.546875 64.65625 
L 16.40625 64.65625 
L 16.40625 52.828125 
L 26.171875 52.828125 
L 26.171875 46.4375 
L 16.40625 46.4375 
L 16.40625 13.09375 
Q 16.40625 9.28125 17.640625 7.734375 
Q 18.890625 6.203125 21.96875 6.203125 
Q 23.25 6.203125 24.4375 6.390625 
Q 25.640625 6.59375 27.046875 6.890625 
z
" id="LiberationSans-74"/>
      <path d="M 13.484375 24.5625 
Q 13.484375 20.40625 14.328125 16.90625 
Q 15.1875 13.421875 16.96875 10.90625 
Q 18.75 8.40625 21.53125 7 
Q 24.3125 5.609375 28.21875 5.609375 
Q 33.9375 5.609375 37.375 7.90625 
Q 40.828125 10.203125 42.046875 13.71875 
L 49.75 11.53125 
Q 48.921875 9.328125 47.4375 7.109375 
Q 45.953125 4.890625 43.453125 3.09375 
Q 40.96875 1.3125 37.234375 0.15625 
Q 33.5 -0.984375 28.21875 -0.984375 
Q 16.5 -0.984375 10.375 6 
Q 4.25 12.984375 4.25 26.765625 
Q 4.25 34.1875 6.09375 39.328125 
Q 7.953125 44.484375 11.171875 47.703125 
Q 14.40625 50.921875 18.703125 52.359375 
Q 23 53.8125 27.875 53.8125 
Q 34.515625 53.8125 38.984375 51.65625 
Q 43.453125 49.515625 46.15625 45.71875 
Q 48.875 41.9375 50.015625 36.8125 
Q 51.171875 31.6875 51.171875 25.734375 
L 51.171875 24.5625 
z
M 42.09375 31.296875 
Q 41.359375 39.65625 37.84375 43.484375 
Q 34.328125 47.3125 27.734375 47.3125 
Q 25.53125 47.3125 23.109375 46.609375 
Q 20.703125 45.90625 18.65625 44.09375 
Q 16.609375 42.28125 15.1875 39.171875 
Q 13.765625 36.078125 13.578125 31.296875 
z
" id="LiberationSans-65"/>
      <path d="M 37.5 0 
L 37.5 33.5 
Q 37.5 37.359375 37.015625 39.9375 
Q 36.53125 42.53125 35.375 44.109375 
Q 34.234375 45.703125 32.375 46.359375 
Q 30.515625 47.015625 27.828125 47.015625 
Q 25.046875 47.015625 22.796875 45.921875 
Q 20.5625 44.828125 18.96875 42.75 
Q 17.390625 40.671875 16.53125 37.625 
Q 15.671875 34.578125 15.671875 30.609375 
L 15.671875 0 
L 6.9375 0 
L 6.9375 41.546875 
Q 6.9375 43.21875 6.90625 45.046875 
Q 6.890625 46.875 6.828125 48.5 
Q 6.78125 50.140625 6.734375 51.3125 
Q 6.6875 52.484375 6.640625 52.828125 
L 14.9375 52.828125 
Q 14.984375 52.59375 15.03125 51.515625 
Q 15.09375 50.4375 15.15625 49.046875 
Q 15.234375 47.65625 15.28125 46.21875 
Q 15.328125 44.78125 15.328125 43.796875 
L 15.484375 43.796875 
Q 16.65625 46.09375 18.015625 47.953125 
Q 19.390625 49.8125 21.21875 51.09375 
Q 23.046875 52.390625 25.40625 53.09375 
Q 27.78125 53.8125 30.90625 53.8125 
Q 36.921875 53.8125 40.40625 51.421875 
Q 43.890625 49.03125 45.265625 43.796875 
L 45.40625 43.796875 
Q 46.578125 46.09375 48.046875 47.953125 
Q 49.515625 49.8125 51.46875 51.09375 
Q 53.421875 52.390625 55.859375 53.09375 
Q 58.296875 53.8125 61.421875 53.8125 
Q 65.4375 53.8125 68.328125 52.734375 
Q 71.234375 51.65625 73.09375 49.40625 
Q 74.953125 47.171875 75.828125 43.625 
Q 76.703125 40.09375 76.703125 35.203125 
L 76.703125 0 
L 68.015625 0 
L 68.015625 33.5 
Q 68.015625 37.359375 67.53125 39.9375 
Q 67.046875 42.53125 65.890625 44.109375 
Q 64.75 45.703125 62.890625 46.359375 
Q 61.03125 47.015625 58.34375 47.015625 
Q 55.5625 47.015625 53.3125 45.96875 
Q 51.078125 44.921875 49.484375 42.875 
Q 47.90625 40.828125 47.046875 37.75 
Q 46.1875 34.671875 46.1875 30.609375 
L 46.1875 0 
z
" id="LiberationSans-6d"/>
     </defs>
     <g style="fill:#262626;" transform="translate(211.01015625 278.342980561)scale(0.11 -0.11)">
      <use xlink:href="#LiberationSans-74"/>
      <use x="27.783203125" xlink:href="#LiberationSans-69"/>
      <use x="50.0" xlink:href="#LiberationSans-6d"/>
      <use x="133.30078125" xlink:href="#LiberationSans-65"/>
     </g>
    </g>
   </g>
   <g id="matplotlib.axis_2">
    <g id="ytick_1">
     <g id="line2d_31">
      <path clip-path="url(#p6ee021f4ff)" d="M 54 230.4 
L 388.8 230.4 
" style="fill:none;stroke:#ffffff;stroke-linecap:round;"/>
     </g>
     <g id="line2d_32"/>
     <g id="line2d_33"/>
     <g id="text_12">
      <!-- −67000 -->
      <defs>
       <path d="M 4.9375 29.6875 
L 4.9375 36.8125 
L 53.515625 36.8125 
L 53.515625 29.6875 
z
" id="LiberationSans-2212"/>
      </defs>
      <g style="fill:#262626;" transform="translate(13.3546875 232.9859375)scale(0.1 -0.1)">
       <use xlink:href="#LiberationSans-2212"/>
       <use x="58.3984375" xlink:href="#LiberationSans-36"/>
       <use x="114.013671875" xlink:href="#LiberationSans-37"/>
       <use x="169.62890625" xlink:href="#LiberationSans-30"/>
       <use x="225.244140625" xlink:href="#LiberationSans-30"/>
       <use x="280.859375" xlink:href="#LiberationSans-30"/>
      </g>
     </g>
    </g>
    <g id="ytick_2">
     <g id="line2d_34">
      <path clip-path="url(#p6ee021f4ff)" d="M 54 196.8 
L 388.8 196.8 
" style="fill:none;stroke:#ffffff;stroke-linecap:round;"/>
     </g>
     <g id="line2d_35"/>
     <g id="line2d_36"/>
     <g id="text_13">
      <!-- −66500 -->
      <g style="fill:#262626;" transform="translate(13.3546875 199.3859375)scale(0.1 -0.1)">
       <use xlink:href="#LiberationSans-2212"/>
       <use x="58.3984375" xlink:href="#LiberationSans-36"/>
       <use x="114.013671875" xlink:href="#LiberationSans-36"/>
       <use x="169.62890625" xlink:href="#LiberationSans-35"/>
       <use x="225.244140625" xlink:href="#LiberationSans-30"/>
       <use x="280.859375" xlink:href="#LiberationSans-30"/>
      </g>
     </g>
    </g>
    <g id="ytick_3">
     <g id="line2d_37">
      <path clip-path="url(#p6ee021f4ff)" d="M 54 163.2 
L 388.8 163.2 
" style="fill:none;stroke:#ffffff;stroke-linecap:round;"/>
     </g>
     <g id="line2d_38"/>
     <g id="line2d_39"/>
     <g id="text_14">
      <!-- −66000 -->
      <g style="fill:#262626;" transform="translate(13.3546875 165.7859375)scale(0.1 -0.1)">
       <use xlink:href="#LiberationSans-2212"/>
       <use x="58.3984375" xlink:href="#LiberationSans-36"/>
       <use x="114.013671875" xlink:href="#LiberationSans-36"/>
       <use x="169.62890625" xlink:href="#LiberationSans-30"/>
       <use x="225.244140625" xlink:href="#LiberationSans-30"/>
       <use x="280.859375" xlink:href="#LiberationSans-30"/>
      </g>
     </g>
    </g>
    <g id="ytick_4">
     <g id="line2d_40">
      <path clip-path="url(#p6ee021f4ff)" d="M 54 129.6 
L 388.8 129.6 
" style="fill:none;stroke:#ffffff;stroke-linecap:round;"/>
     </g>
     <g id="line2d_41"/>
     <g id="line2d_42"/>
     <g id="text_15">
      <!-- −65500 -->
      <g style="fill:#262626;" transform="translate(13.3546875 132.1859375)scale(0.1 -0.1)">
       <use xlink:href="#LiberationSans-2212"/>
       <use x="58.3984375" xlink:href="#LiberationSans-36"/>
       <use x="114.013671875" xlink:href="#LiberationSans-35"/>
       <use x="169.62890625" xlink:href="#LiberationSans-35"/>
       <use x="225.244140625" xlink:href="#LiberationSans-30"/>
       <use x="280.859375" xlink:href="#LiberationSans-30"/>
      </g>
     </g>
    </g>
    <g id="ytick_5">
     <g id="line2d_43">
      <path clip-path="url(#p6ee021f4ff)" d="M 54 96 
L 388.8 96 
" style="fill:none;stroke:#ffffff;stroke-linecap:round;"/>
     </g>
     <g id="line2d_44"/>
     <g id="line2d_45"/>
     <g id="text_16">
      <!-- −65000 -->
      <g style="fill:#262626;" transform="translate(13.3546875 98.5859375)scale(0.1 -0.1)">
       <use xlink:href="#LiberationSans-2212"/>
       <use x="58.3984375" xlink:href="#LiberationSans-36"/>
       <use x="114.013671875" xlink:href="#LiberationSans-35"/>
       <use x="169.62890625" xlink:href="#LiberationSans-30"/>
       <use x="225.244140625" xlink:href="#LiberationSans-30"/>
       <use x="280.859375" xlink:href="#LiberationSans-30"/>
      </g>
     </g>
    </g>
    <g id="ytick_6">
     <g id="line2d_46">
      <path clip-path="url(#p6ee021f4ff)" d="M 54 62.4 
L 388.8 62.4 
" style="fill:none;stroke:#ffffff;stroke-linecap:round;"/>
     </g>
     <g id="line2d_47"/>
     <g id="line2d_48"/>
     <g id="text_17">
      <!-- −64500 -->
      <g style="fill:#262626;" transform="translate(13.3546875 64.9859375)scale(0.1 -0.1)">
       <use xlink:href="#LiberationSans-2212"/>
       <use x="58.3984375" xlink:href="#LiberationSans-36"/>
       <use x="114.013671875" xlink:href="#LiberationSans-34"/>
       <use x="169.62890625" xlink:href="#LiberationSans-35"/>
       <use x="225.244140625" xlink:href="#LiberationSans-30"/>
       <use x="280.859375" xlink:href="#LiberationSans-30"/>
      </g>
     </g>
    </g>
    <g id="ytick_7">
     <g id="line2d_49">
      <path clip-path="url(#p6ee021f4ff)" d="M 54 28.8 
L 388.8 28.8 
" style="fill:none;stroke:#ffffff;stroke-linecap:round;"/>
     </g>
     <g id="line2d_50"/>
     <g id="line2d_51"/>
     <g id="text_18">
      <!-- −64000 -->
      <g style="fill:#262626;" transform="translate(13.3546875 31.3859375)scale(0.1 -0.1)">
       <use xlink:href="#LiberationSans-2212"/>
       <use x="58.3984375" xlink:href="#LiberationSans-36"/>
       <use x="114.013671875" xlink:href="#LiberationSans-34"/>
       <use x="169.62890625" xlink:href="#LiberationSans-30"/>
       <use x="225.244140625" xlink:href="#LiberationSans-30"/>
       <use x="280.859375" xlink:href="#LiberationSans-30"/>
      </g>
     </g>
    </g>
   </g>
   <g id="line2d_52">
    <path clip-path="url(#p6ee021f4ff)" d="M 54 207.090387 
L 55.108609 197.949171 
L 56.217219 195.821853 
L 57.325828 205.008735 
L 58.434437 196.309812 
L 61.760265 209.041554 
L 62.868874 194.697451 
L 63.977483 182.991123 
L 65.086093 174.292872 
L 69.52053 170.824505 
L 70.629139 155.725629 
L 71.737748 177.422434 
L 72.846358 181.505419 
L 73.954967 190.348325 
L 77.280795 195.993505 
L 78.389404 203.590523 
L 79.498013 217.347006 
L 80.606623 207.013896 
L 81.715232 211.385519 
L 85.04106 182.769977 
L 86.149669 156.914368 
L 87.258278 167.152989 
L 88.366887 170.133396 
L 89.475497 169.131152 
L 92.801325 151.982121 
L 93.909934 142.619759 
L 95.018543 128.885774 
L 96.127152 138.293803 
L 97.235762 149.458177 
L 100.561589 150.338935 
L 101.670199 131.989011 
L 102.778808 134.210818 
L 103.887417 122.134861 
L 104.996026 126.068019 
L 116.082119 145.028061 
L 117.190728 134.572793 
L 118.299338 141.098731 
L 119.407947 140.705932 
L 120.516556 114.922315 
L 123.842384 117.929719 
L 124.950993 114.949312 
L 126.059603 109.963072 
L 127.168212 102.461214 
L 128.276821 114.849651 
L 131.602649 112.966649 
L 132.711258 108.491538 
L 133.819868 96.983859 
L 134.928477 88.971545 
L 136.037086 85.277531 
L 139.362914 82.937394 
L 140.471523 89.093031 
L 141.580132 82.441107 
L 142.688742 117.925892 
L 143.797351 125.522238 
L 147.123179 137.133405 
L 148.231788 130.485981 
L 149.340397 107.728438 
L 150.449007 79.600855 
L 151.557616 68.626131 
L 154.883444 61.883546 
L 155.992053 92.065783 
L 157.100662 91.113033 
L 158.209272 95.53415 
L 159.317881 83.958746 
L 162.643709 94.548472 
L 163.752318 121.258398 
L 164.860927 121.432095 
L 165.969536 109.237516 
L 167.078146 93.446947 
L 171.512583 101.353495 
L 172.621192 117.321851 
L 173.729801 125.754253 
L 174.838411 128.615892 
L 178.164238 131.392392 
L 179.272848 126.640446 
L 180.381457 124.864642 
L 181.490066 98.874049 
L 182.598675 111.954821 
L 185.924503 116.076664 
L 187.033113 125.583974 
L 188.141722 117.255148 
L 189.250331 81.734718 
L 190.35894 96.171762 
L 193.684768 63.086601 
L 194.793377 69.710418 
L 195.901987 75.185114 
L 197.010596 89.344212 
L 198.119205 83.25785 
L 202.553642 120.287066 
L 203.662252 126.740603 
L 204.770861 134.991127 
L 205.87947 139.747163 
L 209.205298 163.135626 
L 210.313907 157.301264 
L 211.422517 154.254328 
L 212.531126 160.162903 
L 213.639735 159.810746 
L 216.965563 175.786611 
L 218.074172 169.955667 
L 219.182781 165.033442 
L 220.291391 168.977498 
L 221.4 170.942017 
L 224.725828 180.182309 
L 225.834437 179.096474 
L 226.943046 173.714426 
L 228.051656 169.325564 
L 229.160265 181.528325 
L 232.486093 161.797791 
L 233.594702 162.145858 
L 234.703311 167.887572 
L 235.811921 170.315333 
L 236.92053 156.7679 
L 240.246358 157.75016 
L 241.354967 155.87078 
L 242.463576 149.417243 
L 248.006623 142.14147 
L 249.115232 156.752883 
L 250.223841 144.642771 
L 251.33245 147.678779 
L 252.44106 129.920273 
L 255.766887 118.259057 
L 256.875497 124.263699 
L 257.984106 115.293843 
L 259.092715 117.087411 
L 260.201325 122.636319 
L 263.527152 112.846974 
L 264.635762 90.525909 
L 265.744371 118.333269 
L 266.85298 124.960504 
L 267.961589 120.463977 
L 271.287417 79.39122 
L 272.396026 70.065116 
L 273.504636 83.69427 
L 274.613245 92.204302 
L 275.721854 129.337766 
L 279.047682 114.188899 
L 280.156291 89.080408 
L 281.264901 104.870304 
L 282.37351 98.680366 
L 283.482119 112.124223 
L 286.807947 121.813411 
L 287.916556 139.301481 
L 289.025166 145.746837 
L 290.133775 135.427547 
L 291.242384 135.965001 
L 294.568212 144.582027 
L 295.676821 165.877298 
L 296.78543 162.799451 
L 297.89404 134.527855 
L 299.002649 136.4063 
L 302.328477 104.417289 
L 303.437086 126.56749 
L 304.545695 120.366361 
L 305.654305 128.399829 
L 306.762914 118.221834 
L 310.088742 120.151 
L 311.197351 125.768569 
L 312.30596 139.222681 
L 313.41457 144.914024 
L 314.523179 149.897985 
L 317.849007 150.390006 
L 318.957616 150.045533 
L 320.066225 154.928051 
L 321.174834 145.259169 
L 322.283444 130.775583 
L 325.609272 144.206642 
L 326.717881 115.290862 
L 327.82649 118.39109 
L 328.935099 114.385883 
L 330.043709 121.814083 
L 333.369536 146.204294 
L 334.478146 139.704125 
L 335.586755 138.679939 
L 336.695364 146.397275 
L 337.803974 145.786047 
L 341.129801 151.132917 
L 342.238411 132.818667 
L 343.34702 128.422882 
L 344.455629 122.420022 
L 345.564238 127.426364 
L 349.998675 149.23142 
L 351.107285 150.380102 
L 356.650331 152.235494 
L 357.75894 154.702113 
L 358.86755 156.167599 
L 361.084768 171.064145 
L 364.410596 172.75028 
L 365.519205 169.111926 
L 366.627815 167.330308 
L 367.736424 159.980498 
L 368.845033 154.87733 
L 379.931126 130.220364 
L 381.039735 117.937315 
L 382.148344 110.537455 
L 383.256954 120.330833 
L 384.365563 120.08713 
L 387.691391 127.02331 
L 388.8 127.02331 
L 388.8 127.02331 
" style="fill:none;stroke:#4c72b0;stroke-linecap:round;stroke-width:1.75;"/>
   </g>
   <g id="patch_3">
    <path d="M 54 28.8 
L 388.8 28.8 
" style="fill:none;"/>
   </g>
   <g id="patch_4">
    <path d="M 54 230.4 
L 388.8 230.4 
" style="fill:none;"/>
   </g>
   <g id="patch_5">
    <path d="M 54 230.4 
L 54 28.8 
" style="fill:none;"/>
   </g>
   <g id="patch_6">
    <path d="M 388.8 230.4 
L 388.8 28.8 
" style="fill:none;"/>
   </g>
   <g id="text_19">
    <!-- l - 799.7826029711928 * TF -->
    <defs>
     <path d="M 6.734375 0 
L 6.734375 72.46875 
L 15.53125 72.46875 
L 15.53125 0 
z
" id="LiberationSans-6c"/>
     <path d="M 35.15625 61.1875 
L 35.15625 0 
L 25.875 0 
L 25.875 61.1875 
L 2.25 61.1875 
L 2.25 68.796875 
L 58.796875 68.796875 
L 58.796875 61.1875 
z
" id="LiberationSans-54"/>
     <path d="M 22.265625 54.390625 
L 35.15625 59.421875 
L 37.359375 52.984375 
L 23.578125 49.421875 
L 32.625 37.203125 
L 26.8125 33.6875 
L 19.484375 46.296875 
L 11.859375 33.796875 
L 6.0625 37.3125 
L 15.28125 49.421875 
L 1.609375 52.984375 
L 3.8125 59.515625 
L 16.84375 54.296875 
L 16.265625 68.796875 
L 22.90625 68.796875 
z
" id="LiberationSans-2a"/>
     <path d="M 9.125 0 
L 9.125 10.6875 
L 18.65625 10.6875 
L 18.65625 0 
z
" id="LiberationSans-2e"/>
     <path d="M 4.4375 22.65625 
L 4.4375 30.46875 
L 28.859375 30.46875 
L 28.859375 22.65625 
z
" id="LiberationSans-2d"/>
     <path d="M 17.53125 61.1875 
L 17.53125 35.59375 
L 55.90625 35.59375 
L 55.90625 27.875 
L 17.53125 27.875 
L 17.53125 0 
L 8.203125 0 
L 8.203125 68.796875 
L 57.078125 68.796875 
L 57.078125 61.1875 
z
" id="LiberationSans-46"/>
    </defs>
    <g style="fill:#262626;" transform="translate(146.6859375 23.8)scale(0.12 -0.12)">
     <use xlink:href="#LiberationSans-6c"/>
     <use x="22.216796875" xlink:href="#LiberationSans-20"/>
     <use x="50.0" xlink:href="#LiberationSans-2d"/>
     <use x="83.30078125" xlink:href="#LiberationSans-20"/>
     <use x="111.083984375" xlink:href="#LiberationSans-37"/>
     <use x="166.69921875" xlink:href="#LiberationSans-39"/>
     <use x="222.314453125" xlink:href="#LiberationSans-39"/>
     <use x="277.9296875" xlink:href="#LiberationSans-2e"/>
     <use x="305.712890625" xlink:href="#LiberationSans-37"/>
     <use x="361.328125" xlink:href="#LiberationSans-38"/>
     <use x="416.943359375" xlink:href="#LiberationSans-32"/>
     <use x="472.55859375" xlink:href="#LiberationSans-36"/>
     <use x="528.173828125" xlink:href="#LiberationSans-30"/>
     <use x="583.7890625" xlink:href="#LiberationSans-32"/>
     <use x="639.404296875" xlink:href="#LiberationSans-39"/>
     <use x="695.01953125" xlink:href="#LiberationSans-37"/>
     <use x="750.634765625" xlink:href="#LiberationSans-31"/>
     <use x="806.25" xlink:href="#LiberationSans-31"/>
     <use x="861.865234375" xlink:href="#LiberationSans-39"/>
     <use x="917.48046875" xlink:href="#LiberationSans-32"/>
     <use x="973.095703125" xlink:href="#LiberationSans-38"/>
     <use x="1028.7109375" xlink:href="#LiberationSans-20"/>
     <use x="1056.494140625" xlink:href="#LiberationSans-2a"/>
     <use x="1095.41015625" xlink:href="#LiberationSans-20"/>
     <use x="1123.177734375" xlink:href="#LiberationSans-54"/>
     <use x="1184.26171875" xlink:href="#LiberationSans-46"/>
    </g>
   </g>
  </g>
 </g>
 <defs>
  <clipPath id="p6ee021f4ff">
   <rect height="201.6" width="334.8" x="54.0" y="28.8"/>
  </clipPath>
 </defs>
</svg>
