<?xml version="1.0" encoding="utf-8" standalone="no"?>
<!DOCTYPE svg PUBLIC "-//W3C//DTD SVG 1.1//EN"
  "http://www.w3.org/Graphics/SVG/1.1/DTD/svg11.dtd">
<!-- Created with matplotlib (http://matplotlib.org/) -->
<svg height="396pt" version="1.1" viewBox="0 0 576 396" width="576pt" xmlns="http://www.w3.org/2000/svg" xmlns:xlink="http://www.w3.org/1999/xlink">
 <defs>
  <style type="text/css">
*{stroke-linecap:butt;stroke-linejoin:round;stroke-miterlimit:100000;}
  </style>
 </defs>
 <g id="figure_1">
  <g id="patch_1">
   <path d="M 0 396 
L 576 396 
L 576 0 
L 0 0 
z
" style="fill:#ffffff;"/>
  </g>
  <g id="axes_1">
   <g id="patch_2">
    <path d="M 72 356.4 
L 518.4 356.4 
L 518.4 39.6 
L 72 39.6 
z
" style="fill:#eaeaf2;"/>
   </g>
   <g id="matplotlib.axis_1">
    <g id="xtick_1">
     <g id="line2d_1">
      <path clip-path="url(#pe5e2a6dcf0)" d="M 72 356.4 
L 72 39.6 
" style="fill:none;stroke:#ffffff;stroke-linecap:round;"/>
     </g>
     <g id="line2d_2"/>
     <g id="line2d_3"/>
     <g id="text_1">
      <!-- 2015-11-16 10:12:00 -->
      <defs>
       <path d="M 5.03125 0 
L 5.03125 6.203125 
Q 7.515625 11.921875 11.109375 16.28125 
Q 14.703125 20.65625 18.65625 24.1875 
Q 22.609375 27.734375 26.484375 30.765625 
Q 30.375 33.796875 33.5 36.8125 
Q 36.625 39.84375 38.546875 43.15625 
Q 40.484375 46.484375 40.484375 50.6875 
Q 40.484375 53.609375 39.59375 55.828125 
Q 38.71875 58.0625 37.0625 59.5625 
Q 35.40625 61.078125 33.078125 61.828125 
Q 30.765625 62.59375 27.9375 62.59375 
Q 25.296875 62.59375 22.96875 61.859375 
Q 20.65625 61.140625 18.84375 59.671875 
Q 17.046875 58.203125 15.890625 56.03125 
Q 14.75 53.859375 14.40625 50.984375 
L 5.421875 51.8125 
Q 5.859375 55.515625 7.46875 58.78125 
Q 9.078125 62.0625 11.90625 64.53125 
Q 14.75 67 18.71875 68.40625 
Q 22.703125 69.828125 27.9375 69.828125 
Q 33.0625 69.828125 37.0625 68.609375 
Q 41.0625 67.390625 43.8125 64.984375 
Q 46.578125 62.59375 48.046875 59.078125 
Q 49.515625 55.5625 49.515625 50.984375 
Q 49.515625 47.515625 48.265625 44.390625 
Q 47.015625 41.265625 44.9375 38.421875 
Q 42.875 35.59375 40.140625 32.953125 
Q 37.40625 30.328125 34.421875 27.8125 
Q 31.453125 25.296875 28.421875 22.828125 
Q 25.390625 20.359375 22.71875 17.859375 
Q 20.0625 15.375 17.96875 12.8125 
Q 15.875 10.25 14.703125 7.46875 
L 50.59375 7.46875 
L 50.59375 0 
z
" id="LiberationSans-32"/>
       <path d="M 7.625 0 
L 7.625 7.46875 
L 25.140625 7.46875 
L 25.140625 60.40625 
L 9.625 49.3125 
L 9.625 57.625 
L 25.875 68.796875 
L 33.984375 68.796875 
L 33.984375 7.46875 
L 50.734375 7.46875 
L 50.734375 0 
z
" id="LiberationSans-31"/>
       <path d="M 51.703125 34.421875 
Q 51.703125 24.515625 49.828125 17.75 
Q 47.953125 10.984375 44.703125 6.8125 
Q 41.453125 2.640625 37.0625 0.828125 
Q 32.671875 -0.984375 27.6875 -0.984375 
Q 22.65625 -0.984375 18.3125 0.828125 
Q 13.96875 2.640625 10.765625 6.78125 
Q 7.5625 10.9375 5.734375 17.703125 
Q 3.90625 24.46875 3.90625 34.421875 
Q 3.90625 44.828125 5.734375 51.640625 
Q 7.5625 58.453125 10.78125 62.5 
Q 14.015625 66.546875 18.40625 68.1875 
Q 22.796875 69.828125 27.984375 69.828125 
Q 32.90625 69.828125 37.21875 68.1875 
Q 41.546875 66.546875 44.765625 62.5 
Q 48 58.453125 49.84375 51.640625 
Q 51.703125 44.828125 51.703125 34.421875 
M 42.78125 34.421875 
Q 42.78125 42.625 41.796875 48.0625 
Q 40.828125 53.515625 38.921875 56.765625 
Q 37.015625 60.015625 34.25 61.359375 
Q 31.5 62.703125 27.984375 62.703125 
Q 24.265625 62.703125 21.4375 61.328125 
Q 18.609375 59.96875 16.671875 56.71875 
Q 14.75 53.46875 13.765625 48.015625 
Q 12.796875 42.578125 12.796875 34.421875 
Q 12.796875 26.515625 13.796875 21.09375 
Q 14.796875 15.671875 16.71875 12.375 
Q 18.65625 9.078125 21.4375 7.640625 
Q 24.21875 6.203125 27.78125 6.203125 
Q 31.25 6.203125 34.03125 7.640625 
Q 36.8125 9.078125 38.734375 12.375 
Q 40.671875 15.671875 41.71875 21.09375 
Q 42.78125 26.515625 42.78125 34.421875 
" id="LiberationSans-30"/>
       <path d="M 9.125 42.71875 
L 9.125 52.828125 
L 18.65625 52.828125 
L 18.65625 42.71875 
z
M 9.125 0 
L 9.125 10.109375 
L 18.65625 10.109375 
L 18.65625 0 
z
" id="LiberationSans-3a"/>
       <path d="M 51.421875 22.40625 
Q 51.421875 17.234375 49.859375 12.9375 
Q 48.296875 8.640625 45.21875 5.53125 
Q 42.140625 2.4375 37.578125 0.71875 
Q 33.015625 -0.984375 27 -0.984375 
Q 21.578125 -0.984375 17.546875 0.28125 
Q 13.53125 1.5625 10.734375 3.78125 
Q 7.953125 6 6.3125 8.984375 
Q 4.6875 11.96875 4 15.375 
L 12.890625 16.40625 
Q 13.421875 14.453125 14.390625 12.625 
Q 15.375 10.796875 17.0625 9.34375 
Q 18.75 7.90625 21.21875 7.046875 
Q 23.6875 6.203125 27.203125 6.203125 
Q 30.609375 6.203125 33.390625 7.25 
Q 36.1875 8.296875 38.15625 10.34375 
Q 40.140625 12.40625 41.203125 15.375 
Q 42.28125 18.359375 42.28125 22.21875 
Q 42.28125 25.390625 41.25 28.046875 
Q 40.234375 30.71875 38.328125 32.640625 
Q 36.421875 34.578125 33.65625 35.640625 
Q 30.90625 36.71875 27.390625 36.71875 
Q 25.203125 36.71875 23.34375 36.328125 
Q 21.484375 35.9375 19.890625 35.25 
Q 18.3125 34.578125 17.015625 33.671875 
Q 15.71875 32.765625 14.59375 31.78125 
L 6 31.78125 
L 8.296875 68.796875 
L 47.40625 68.796875 
L 47.40625 61.328125 
L 16.3125 61.328125 
L 14.984375 39.5 
Q 17.328125 41.3125 20.84375 42.59375 
Q 24.359375 43.890625 29.203125 43.890625 
Q 34.328125 43.890625 38.421875 42.328125 
Q 42.53125 40.765625 45.40625 37.90625 
Q 48.296875 35.0625 49.859375 31.109375 
Q 51.421875 27.15625 51.421875 22.40625 
" id="LiberationSans-35"/>
       <path id="LiberationSans-20"/>
       <path d="M 4.4375 22.65625 
L 4.4375 30.46875 
L 28.859375 30.46875 
L 28.859375 22.65625 
z
" id="LiberationSans-2d"/>
       <path d="M 51.21875 22.515625 
Q 51.21875 17.328125 49.78125 13 
Q 48.34375 8.6875 45.53125 5.578125 
Q 42.71875 2.484375 38.5625 0.75 
Q 34.421875 -0.984375 29 -0.984375 
Q 23 -0.984375 18.5 1.3125 
Q 14.015625 3.609375 11.03125 7.921875 
Q 8.0625 12.25 6.5625 18.53125 
Q 5.078125 24.8125 5.078125 32.8125 
Q 5.078125 42 6.765625 48.921875 
Q 8.453125 55.859375 11.625 60.5 
Q 14.796875 65.140625 19.359375 67.484375 
Q 23.921875 69.828125 29.6875 69.828125 
Q 33.203125 69.828125 36.28125 69.09375 
Q 39.359375 68.359375 41.875 66.71875 
Q 44.390625 65.09375 46.28125 62.40625 
Q 48.1875 59.71875 49.3125 55.8125 
L 40.921875 54.296875 
Q 39.546875 58.734375 36.546875 60.71875 
Q 33.546875 62.703125 29.59375 62.703125 
Q 25.984375 62.703125 23.046875 60.984375 
Q 20.125 59.28125 18.0625 55.875 
Q 16.015625 52.484375 14.90625 47.359375 
Q 13.8125 42.234375 13.8125 35.40625 
Q 16.21875 39.84375 20.5625 42.15625 
Q 24.90625 44.484375 30.515625 44.484375 
Q 35.203125 44.484375 39.015625 42.96875 
Q 42.828125 41.453125 45.53125 38.59375 
Q 48.25 35.75 49.734375 31.671875 
Q 51.21875 27.59375 51.21875 22.515625 
M 42.28125 22.125 
Q 42.28125 25.6875 41.40625 28.5625 
Q 40.53125 31.453125 38.765625 33.46875 
Q 37.015625 35.5 34.421875 36.59375 
Q 31.84375 37.703125 28.421875 37.703125 
Q 26.03125 37.703125 23.578125 36.984375 
Q 21.140625 36.28125 19.15625 34.6875 
Q 17.1875 33.109375 15.9375 30.515625 
Q 14.703125 27.9375 14.703125 24.21875 
Q 14.703125 20.40625 15.671875 17.109375 
Q 16.65625 13.8125 18.484375 11.375 
Q 20.3125 8.9375 22.890625 7.515625 
Q 25.484375 6.109375 28.71875 6.109375 
Q 31.890625 6.109375 34.40625 7.203125 
Q 36.921875 8.296875 38.671875 10.375 
Q 40.4375 12.453125 41.359375 15.421875 
Q 42.28125 18.40625 42.28125 22.125 
" id="LiberationSans-36"/>
      </defs>
      <g style="fill:#262626;" transform="translate(25.5765625 370.646875)scale(0.1 -0.1)">
       <use xlink:href="#LiberationSans-32"/>
       <use x="55.615234375" xlink:href="#LiberationSans-30"/>
       <use x="111.23046875" xlink:href="#LiberationSans-31"/>
       <use x="166.845703125" xlink:href="#LiberationSans-35"/>
       <use x="222.4609375" xlink:href="#LiberationSans-2d"/>
       <use x="255.76171875" xlink:href="#LiberationSans-31"/>
       <use x="311.376953125" xlink:href="#LiberationSans-31"/>
       <use x="366.9921875" xlink:href="#LiberationSans-2d"/>
       <use x="400.29296875" xlink:href="#LiberationSans-31"/>
       <use x="455.908203125" xlink:href="#LiberationSans-36"/>
       <use x="511.5234375" xlink:href="#LiberationSans-20"/>
       <use x="539.306640625" xlink:href="#LiberationSans-31"/>
       <use x="594.921875" xlink:href="#LiberationSans-30"/>
       <use x="650.537109375" xlink:href="#LiberationSans-3a"/>
       <use x="678.3203125" xlink:href="#LiberationSans-31"/>
       <use x="733.935546875" xlink:href="#LiberationSans-32"/>
       <use x="789.55078125" xlink:href="#LiberationSans-3a"/>
       <use x="817.333984375" xlink:href="#LiberationSans-30"/>
       <use x="872.94921875" xlink:href="#LiberationSans-30"/>
      </g>
     </g>
    </g>
    <g id="xtick_2">
     <g id="line2d_4">
      <path clip-path="url(#pe5e2a6dcf0)" d="M 183.655828 356.4 
L 183.655828 39.6 
" style="fill:none;stroke:#ffffff;stroke-linecap:round;"/>
     </g>
     <g id="line2d_5"/>
     <g id="line2d_6"/>
     <g id="text_2">
      <!-- 2015-11-18 13:51:00 -->
      <defs>
       <path d="M 51.265625 19.1875 
Q 51.265625 14.796875 49.875 11.109375 
Q 48.484375 7.421875 45.625 4.734375 
Q 42.78125 2.046875 38.328125 0.53125 
Q 33.890625 -0.984375 27.828125 -0.984375 
Q 21.78125 -0.984375 17.359375 0.53125 
Q 12.9375 2.046875 10.03125 4.703125 
Q 7.125 7.375 5.734375 11.0625 
Q 4.34375 14.75 4.34375 19.09375 
Q 4.34375 22.859375 5.484375 25.78125 
Q 6.640625 28.71875 8.5625 30.828125 
Q 10.5 32.953125 12.96875 34.25 
Q 15.4375 35.546875 18.0625 35.984375 
L 18.0625 36.1875 
Q 15.1875 36.859375 12.90625 38.375 
Q 10.640625 39.890625 9.09375 42.015625 
Q 7.5625 44.140625 6.75 46.71875 
Q 5.953125 49.3125 5.953125 52.203125 
Q 5.953125 55.8125 7.34375 59 
Q 8.734375 62.203125 11.46875 64.625 
Q 14.203125 67.046875 18.25 68.4375 
Q 22.3125 69.828125 27.640625 69.828125 
Q 33.25 69.828125 37.375 68.40625 
Q 41.5 67 44.203125 64.578125 
Q 46.921875 62.15625 48.234375 58.9375 
Q 49.5625 55.71875 49.5625 52.09375 
Q 49.5625 49.265625 48.75 46.671875 
Q 47.953125 44.09375 46.40625 41.96875 
Q 44.875 39.84375 42.59375 38.34375 
Q 40.328125 36.859375 37.359375 36.28125 
L 37.359375 36.078125 
Q 40.328125 35.59375 42.859375 34.296875 
Q 45.40625 33.015625 47.265625 30.890625 
Q 49.125 28.765625 50.1875 25.828125 
Q 51.265625 22.90625 51.265625 19.1875 
M 40.4375 51.609375 
Q 40.4375 54.203125 39.765625 56.34375 
Q 39.109375 58.5 37.59375 60.03125 
Q 36.078125 61.578125 33.640625 62.421875 
Q 31.203125 63.28125 27.640625 63.28125 
Q 24.171875 63.28125 21.78125 62.421875 
Q 19.390625 61.578125 17.84375 60.03125 
Q 16.3125 58.5 15.625 56.34375 
Q 14.9375 54.203125 14.9375 51.609375 
Q 14.9375 49.5625 15.46875 47.40625 
Q 16.015625 45.265625 17.421875 43.5 
Q 18.84375 41.75 21.328125 40.625 
Q 23.828125 39.5 27.734375 39.5 
Q 31.890625 39.5 34.40625 40.625 
Q 36.921875 41.75 38.25 43.5 
Q 39.59375 45.265625 40.015625 47.40625 
Q 40.4375 49.5625 40.4375 51.609375 
M 42.140625 20.015625 
Q 42.140625 22.515625 41.453125 24.828125 
Q 40.765625 27.15625 39.109375 28.9375 
Q 37.453125 30.71875 34.640625 31.8125 
Q 31.84375 32.90625 27.640625 32.90625 
Q 23.78125 32.90625 21.0625 31.8125 
Q 18.359375 30.71875 16.671875 28.90625 
Q 14.984375 27.09375 14.203125 24.71875 
Q 13.421875 22.359375 13.421875 19.828125 
Q 13.421875 16.65625 14.203125 14.03125 
Q 14.984375 11.421875 16.6875 9.546875 
Q 18.40625 7.671875 21.1875 6.640625 
Q 23.96875 5.609375 27.9375 5.609375 
Q 31.9375 5.609375 34.671875 6.640625 
Q 37.40625 7.671875 39.0625 9.546875 
Q 40.71875 11.421875 41.421875 14.078125 
Q 42.140625 16.75 42.140625 20.015625 
" id="LiberationSans-38"/>
       <path d="M 51.21875 19 
Q 51.21875 14.265625 49.671875 10.546875 
Q 48.140625 6.84375 45.1875 4.265625 
Q 42.234375 1.703125 37.859375 0.359375 
Q 33.5 -0.984375 27.875 -0.984375 
Q 21.484375 -0.984375 17.109375 0.609375 
Q 12.75 2.203125 9.90625 4.8125 
Q 7.078125 7.421875 5.65625 10.765625 
Q 4.25 14.109375 3.8125 17.671875 
L 12.890625 18.5 
Q 13.28125 15.765625 14.328125 13.515625 
Q 15.375 11.28125 17.1875 9.671875 
Q 19 8.0625 21.625 7.171875 
Q 24.265625 6.296875 27.875 6.296875 
Q 34.515625 6.296875 38.296875 9.5625 
Q 42.09375 12.84375 42.09375 19.28125 
Q 42.09375 23.09375 40.40625 25.40625 
Q 38.71875 27.734375 36.203125 29.03125 
Q 33.6875 30.328125 30.734375 30.765625 
Q 27.78125 31.203125 25.296875 31.203125 
L 20.3125 31.203125 
L 20.3125 38.8125 
L 25.09375 38.8125 
Q 27.59375 38.8125 30.265625 39.328125 
Q 32.953125 39.84375 35.171875 41.1875 
Q 37.40625 42.53125 38.84375 44.828125 
Q 40.28125 47.125 40.28125 50.6875 
Q 40.28125 56.203125 37.03125 59.390625 
Q 33.796875 62.59375 27.390625 62.59375 
Q 21.578125 62.59375 17.984375 59.609375 
Q 14.40625 56.640625 13.8125 51.21875 
L 4.984375 51.90625 
Q 5.515625 56.453125 7.46875 59.8125 
Q 9.421875 63.1875 12.421875 65.40625 
Q 15.4375 67.625 19.28125 68.71875 
Q 23.140625 69.828125 27.484375 69.828125 
Q 33.25 69.828125 37.390625 68.375 
Q 41.546875 66.9375 44.1875 64.46875 
Q 46.828125 62.015625 48.0625 58.6875 
Q 49.3125 55.375 49.3125 51.609375 
Q 49.3125 48.578125 48.484375 45.9375 
Q 47.65625 43.3125 45.890625 41.203125 
Q 44.140625 39.109375 41.421875 37.59375 
Q 38.71875 36.078125 34.90625 35.296875 
L 34.90625 35.109375 
Q 39.0625 34.671875 42.140625 33.21875 
Q 45.21875 31.78125 47.21875 29.625 
Q 49.21875 27.484375 50.21875 24.75 
Q 51.21875 22.015625 51.21875 19 
" id="LiberationSans-33"/>
      </defs>
      <g style="fill:#262626;" transform="translate(137.232390414 370.646875)scale(0.1 -0.1)">
       <use xlink:href="#LiberationSans-32"/>
       <use x="55.615234375" xlink:href="#LiberationSans-30"/>
       <use x="111.23046875" xlink:href="#LiberationSans-31"/>
       <use x="166.845703125" xlink:href="#LiberationSans-35"/>
       <use x="222.4609375" xlink:href="#LiberationSans-2d"/>
       <use x="255.76171875" xlink:href="#LiberationSans-31"/>
       <use x="311.376953125" xlink:href="#LiberationSans-31"/>
       <use x="366.9921875" xlink:href="#LiberationSans-2d"/>
       <use x="400.29296875" xlink:href="#LiberationSans-31"/>
       <use x="455.908203125" xlink:href="#LiberationSans-38"/>
       <use x="511.5234375" xlink:href="#LiberationSans-20"/>
       <use x="539.306640625" xlink:href="#LiberationSans-31"/>
       <use x="594.921875" xlink:href="#LiberationSans-33"/>
       <use x="650.537109375" xlink:href="#LiberationSans-3a"/>
       <use x="678.3203125" xlink:href="#LiberationSans-35"/>
       <use x="733.935546875" xlink:href="#LiberationSans-31"/>
       <use x="789.55078125" xlink:href="#LiberationSans-3a"/>
       <use x="817.333984375" xlink:href="#LiberationSans-30"/>
       <use x="872.94921875" xlink:href="#LiberationSans-30"/>
      </g>
     </g>
    </g>
    <g id="xtick_3">
     <g id="line2d_7">
      <path clip-path="url(#pe5e2a6dcf0)" d="M 295.311656 356.4 
L 295.311656 39.6 
" style="fill:none;stroke:#ffffff;stroke-linecap:round;"/>
     </g>
     <g id="line2d_8"/>
     <g id="line2d_9"/>
     <g id="text_3">
      <!-- 2015-11-23 09:24:00 -->
      <defs>
       <path d="M 50.875 35.796875 
Q 50.875 26.609375 49.140625 19.703125 
Q 47.40625 12.796875 44.1875 8.203125 
Q 40.96875 3.609375 36.34375 1.3125 
Q 31.734375 -0.984375 25.984375 -0.984375 
Q 22.015625 -0.984375 18.84375 -0.171875 
Q 15.671875 0.640625 13.171875 2.34375 
Q 10.6875 4.046875 8.921875 6.78125 
Q 7.171875 9.515625 6.109375 13.375 
L 14.5 14.703125 
Q 15.875 10.25 18.78125 8.171875 
Q 21.6875 6.109375 26.125 6.109375 
Q 29.6875 6.109375 32.640625 7.78125 
Q 35.59375 9.46875 37.671875 12.84375 
Q 39.75 16.21875 40.921875 21.296875 
Q 42.09375 26.375 42.1875 33.203125 
Q 41.15625 30.90625 39.375 29.09375 
Q 37.59375 27.296875 35.328125 26.046875 
Q 33.0625 24.8125 30.421875 24.140625 
Q 27.78125 23.484375 25.09375 23.484375 
Q 20.40625 23.484375 16.625 25.171875 
Q 12.84375 26.859375 10.203125 29.875 
Q 7.5625 32.90625 6.125 37.171875 
Q 4.6875 41.453125 4.6875 46.6875 
Q 4.6875 52 6.21875 56.296875 
Q 7.765625 60.59375 10.6875 63.59375 
Q 13.625 66.609375 17.890625 68.21875 
Q 22.171875 69.828125 27.59375 69.828125 
Q 39.0625 69.828125 44.96875 61.328125 
Q 50.875 52.828125 50.875 35.796875 
M 41.3125 44.28125 
Q 41.3125 48.09375 40.40625 51.453125 
Q 39.5 54.828125 37.71875 57.3125 
Q 35.9375 59.8125 33.328125 61.25 
Q 30.71875 62.703125 27.296875 62.703125 
Q 24.125 62.703125 21.578125 61.578125 
Q 19.046875 60.453125 17.28125 58.375 
Q 15.53125 56.296875 14.578125 53.3125 
Q 13.625 50.34375 13.625 46.6875 
Q 13.625 43.21875 14.46875 40.234375 
Q 15.328125 37.25 17.03125 35.078125 
Q 18.75 32.90625 21.28125 31.65625 
Q 23.828125 30.421875 27.203125 30.421875 
Q 29.640625 30.421875 32.15625 31.25 
Q 34.671875 32.078125 36.6875 33.78125 
Q 38.71875 35.5 40.015625 38.109375 
Q 41.3125 40.71875 41.3125 44.28125 
" id="LiberationSans-39"/>
       <path d="M 43.015625 15.578125 
L 43.015625 0 
L 34.71875 0 
L 34.71875 15.578125 
L 2.296875 15.578125 
L 2.296875 22.40625 
L 33.796875 68.796875 
L 43.015625 68.796875 
L 43.015625 22.515625 
L 52.6875 22.515625 
L 52.6875 15.578125 
z
M 34.71875 58.890625 
Q 34.625 58.640625 34.234375 57.9375 
Q 33.84375 57.234375 33.34375 56.34375 
Q 32.859375 55.46875 32.34375 54.5625 
Q 31.84375 53.65625 31.453125 53.078125 
L 13.8125 27.09375 
Q 13.578125 26.703125 13.109375 26.0625 
Q 12.640625 25.4375 12.15625 24.78125 
Q 11.671875 24.125 11.171875 23.484375 
Q 10.6875 22.859375 10.40625 22.515625 
L 34.71875 22.515625 
z
" id="LiberationSans-34"/>
      </defs>
      <g style="fill:#262626;" transform="translate(248.888218328 370.646875)scale(0.1 -0.1)">
       <use xlink:href="#LiberationSans-32"/>
       <use x="55.615234375" xlink:href="#LiberationSans-30"/>
       <use x="111.23046875" xlink:href="#LiberationSans-31"/>
       <use x="166.845703125" xlink:href="#LiberationSans-35"/>
       <use x="222.4609375" xlink:href="#LiberationSans-2d"/>
       <use x="255.76171875" xlink:href="#LiberationSans-31"/>
       <use x="311.376953125" xlink:href="#LiberationSans-31"/>
       <use x="366.9921875" xlink:href="#LiberationSans-2d"/>
       <use x="400.29296875" xlink:href="#LiberationSans-32"/>
       <use x="455.908203125" xlink:href="#LiberationSans-33"/>
       <use x="511.5234375" xlink:href="#LiberationSans-20"/>
       <use x="539.306640625" xlink:href="#LiberationSans-30"/>
       <use x="594.921875" xlink:href="#LiberationSans-39"/>
       <use x="650.537109375" xlink:href="#LiberationSans-3a"/>
       <use x="678.3203125" xlink:href="#LiberationSans-32"/>
       <use x="733.935546875" xlink:href="#LiberationSans-34"/>
       <use x="789.55078125" xlink:href="#LiberationSans-3a"/>
       <use x="817.333984375" xlink:href="#LiberationSans-30"/>
       <use x="872.94921875" xlink:href="#LiberationSans-30"/>
      </g>
     </g>
    </g>
    <g id="xtick_4">
     <g id="line2d_10">
      <path clip-path="url(#pe5e2a6dcf0)" d="M 406.967484 356.4 
L 406.967484 39.6 
" style="fill:none;stroke:#ffffff;stroke-linecap:round;"/>
     </g>
     <g id="line2d_11"/>
     <g id="line2d_12"/>
     <g id="text_4">
      <!-- 2015-11-25 10:59:00 -->
      <g style="fill:#262626;" transform="translate(360.544046242 370.646875)scale(0.1 -0.1)">
       <use xlink:href="#LiberationSans-32"/>
       <use x="55.615234375" xlink:href="#LiberationSans-30"/>
       <use x="111.23046875" xlink:href="#LiberationSans-31"/>
       <use x="166.845703125" xlink:href="#LiberationSans-35"/>
       <use x="222.4609375" xlink:href="#LiberationSans-2d"/>
       <use x="255.76171875" xlink:href="#LiberationSans-31"/>
       <use x="311.376953125" xlink:href="#LiberationSans-31"/>
       <use x="366.9921875" xlink:href="#LiberationSans-2d"/>
       <use x="400.29296875" xlink:href="#LiberationSans-32"/>
       <use x="455.908203125" xlink:href="#LiberationSans-35"/>
       <use x="511.5234375" xlink:href="#LiberationSans-20"/>
       <use x="539.306640625" xlink:href="#LiberationSans-31"/>
       <use x="594.921875" xlink:href="#LiberationSans-30"/>
       <use x="650.537109375" xlink:href="#LiberationSans-3a"/>
       <use x="678.3203125" xlink:href="#LiberationSans-35"/>
       <use x="733.935546875" xlink:href="#LiberationSans-39"/>
       <use x="789.55078125" xlink:href="#LiberationSans-3a"/>
       <use x="817.333984375" xlink:href="#LiberationSans-30"/>
       <use x="872.94921875" xlink:href="#LiberationSans-30"/>
      </g>
     </g>
    </g>
    <g id="text_5">
     <!-- time -->
     <defs>
      <path d="M 13.484375 24.5625 
Q 13.484375 20.40625 14.328125 16.90625 
Q 15.1875 13.421875 16.96875 10.90625 
Q 18.75 8.40625 21.53125 7 
Q 24.3125 5.609375 28.21875 5.609375 
Q 33.9375 5.609375 37.375 7.90625 
Q 40.828125 10.203125 42.046875 13.71875 
L 49.75 11.53125 
Q 48.921875 9.328125 47.4375 7.109375 
Q 45.953125 4.890625 43.453125 3.09375 
Q 40.96875 1.3125 37.234375 0.15625 
Q 33.5 -0.984375 28.21875 -0.984375 
Q 16.5 -0.984375 10.375 6 
Q 4.25 12.984375 4.25 26.765625 
Q 4.25 34.1875 6.09375 39.328125 
Q 7.953125 44.484375 11.171875 47.703125 
Q 14.40625 50.921875 18.703125 52.359375 
Q 23 53.8125 27.875 53.8125 
Q 34.515625 53.8125 38.984375 51.65625 
Q 43.453125 49.515625 46.15625 45.71875 
Q 48.875 41.9375 50.015625 36.8125 
Q 51.171875 31.6875 51.171875 25.734375 
L 51.171875 24.5625 
z
M 42.09375 31.296875 
Q 41.359375 39.65625 37.84375 43.484375 
Q 34.328125 47.3125 27.734375 47.3125 
Q 25.53125 47.3125 23.109375 46.609375 
Q 20.703125 45.90625 18.65625 44.09375 
Q 16.609375 42.28125 15.1875 39.171875 
Q 13.765625 36.078125 13.578125 31.296875 
z
" id="LiberationSans-65"/>
      <path d="M 6.6875 64.0625 
L 6.6875 72.46875 
L 15.484375 72.46875 
L 15.484375 64.0625 
z
M 6.6875 0 
L 6.6875 52.828125 
L 15.484375 52.828125 
L 15.484375 0 
z
" id="LiberationSans-69"/>
      <path d="M 27.046875 0.390625 
Q 25.046875 -0.140625 22.96875 -0.453125 
Q 20.90625 -0.78125 18.171875 -0.78125 
Q 7.625 -0.78125 7.625 11.1875 
L 7.625 46.4375 
L 1.515625 46.4375 
L 1.515625 52.828125 
L 7.953125 52.828125 
L 10.546875 64.65625 
L 16.40625 64.65625 
L 16.40625 52.828125 
L 26.171875 52.828125 
L 26.171875 46.4375 
L 16.40625 46.4375 
L 16.40625 13.09375 
Q 16.40625 9.28125 17.640625 7.734375 
Q 18.890625 6.203125 21.96875 6.203125 
Q 23.25 6.203125 24.4375 6.390625 
Q 25.640625 6.59375 27.046875 6.890625 
z
" id="LiberationSans-74"/>
      <path d="M 37.5 0 
L 37.5 33.5 
Q 37.5 37.359375 37.015625 39.9375 
Q 36.53125 42.53125 35.375 44.109375 
Q 34.234375 45.703125 32.375 46.359375 
Q 30.515625 47.015625 27.828125 47.015625 
Q 25.046875 47.015625 22.796875 45.921875 
Q 20.5625 44.828125 18.96875 42.75 
Q 17.390625 40.671875 16.53125 37.625 
Q 15.671875 34.578125 15.671875 30.609375 
L 15.671875 0 
L 6.9375 0 
L 6.9375 41.546875 
Q 6.9375 43.21875 6.90625 45.046875 
Q 6.890625 46.875 6.828125 48.5 
Q 6.78125 50.140625 6.734375 51.3125 
Q 6.6875 52.484375 6.640625 52.828125 
L 14.9375 52.828125 
Q 14.984375 52.59375 15.03125 51.515625 
Q 15.09375 50.4375 15.15625 49.046875 
Q 15.234375 47.65625 15.28125 46.21875 
Q 15.328125 44.78125 15.328125 43.796875 
L 15.484375 43.796875 
Q 16.65625 46.09375 18.015625 47.953125 
Q 19.390625 49.8125 21.21875 51.09375 
Q 23.046875 52.390625 25.40625 53.09375 
Q 27.78125 53.8125 30.90625 53.8125 
Q 36.921875 53.8125 40.40625 51.421875 
Q 43.890625 49.03125 45.265625 43.796875 
L 45.40625 43.796875 
Q 46.578125 46.09375 48.046875 47.953125 
Q 49.515625 49.8125 51.46875 51.09375 
Q 53.421875 52.390625 55.859375 53.09375 
Q 58.296875 53.8125 61.421875 53.8125 
Q 65.4375 53.8125 68.328125 52.734375 
Q 71.234375 51.65625 73.09375 49.40625 
Q 74.953125 47.171875 75.828125 43.625 
Q 76.703125 40.09375 76.703125 35.203125 
L 76.703125 0 
L 68.015625 0 
L 68.015625 33.5 
Q 68.015625 37.359375 67.53125 39.9375 
Q 67.046875 42.53125 65.890625 44.109375 
Q 64.75 45.703125 62.890625 46.359375 
Q 61.03125 47.015625 58.34375 47.015625 
Q 55.5625 47.015625 53.3125 45.96875 
Q 51.078125 44.921875 49.484375 42.875 
Q 47.90625 40.828125 47.046875 37.75 
Q 46.1875 34.671875 46.1875 30.609375 
L 46.1875 0 
z
" id="LiberationSans-6d"/>
     </defs>
     <g style="fill:#262626;" transform="translate(284.81015625 385.6934375)scale(0.11 -0.11)">
      <use xlink:href="#LiberationSans-74"/>
      <use x="27.783203125" xlink:href="#LiberationSans-69"/>
      <use x="50.0" xlink:href="#LiberationSans-6d"/>
      <use x="133.30078125" xlink:href="#LiberationSans-65"/>
     </g>
    </g>
   </g>
   <g id="matplotlib.axis_2">
    <g id="ytick_1">
     <g id="line2d_13">
      <path clip-path="url(#pe5e2a6dcf0)" d="M 72 356.4 
L 518.4 356.4 
" style="fill:none;stroke:#ffffff;stroke-linecap:round;"/>
     </g>
     <g id="line2d_14"/>
     <g id="line2d_15"/>
     <g id="text_6">
      <!-- 83.6 -->
      <defs>
       <path d="M 9.125 0 
L 9.125 10.6875 
L 18.65625 10.6875 
L 18.65625 0 
z
" id="LiberationSans-2e"/>
      </defs>
      <g style="fill:#262626;" transform="translate(45.5390625 358.9859375)scale(0.1 -0.1)">
       <use xlink:href="#LiberationSans-38"/>
       <use x="55.615234375" xlink:href="#LiberationSans-33"/>
       <use x="111.23046875" xlink:href="#LiberationSans-2e"/>
       <use x="139.013671875" xlink:href="#LiberationSans-36"/>
      </g>
     </g>
    </g>
    <g id="ytick_2">
     <g id="line2d_16">
      <path clip-path="url(#pe5e2a6dcf0)" d="M 72 311.142857 
L 518.4 311.142857 
" style="fill:none;stroke:#ffffff;stroke-linecap:round;"/>
     </g>
     <g id="line2d_17"/>
     <g id="line2d_18"/>
     <g id="text_7">
      <!-- 83.8 -->
      <g style="fill:#262626;" transform="translate(45.5390625 313.728794643)scale(0.1 -0.1)">
       <use xlink:href="#LiberationSans-38"/>
       <use x="55.615234375" xlink:href="#LiberationSans-33"/>
       <use x="111.23046875" xlink:href="#LiberationSans-2e"/>
       <use x="139.013671875" xlink:href="#LiberationSans-38"/>
      </g>
     </g>
    </g>
    <g id="ytick_3">
     <g id="line2d_19">
      <path clip-path="url(#pe5e2a6dcf0)" d="M 72 265.885714 
L 518.4 265.885714 
" style="fill:none;stroke:#ffffff;stroke-linecap:round;"/>
     </g>
     <g id="line2d_20"/>
     <g id="line2d_21"/>
     <g id="text_8">
      <!-- 84.0 -->
      <g style="fill:#262626;" transform="translate(45.5390625 268.471651786)scale(0.1 -0.1)">
       <use xlink:href="#LiberationSans-38"/>
       <use x="55.615234375" xlink:href="#LiberationSans-34"/>
       <use x="111.23046875" xlink:href="#LiberationSans-2e"/>
       <use x="139.013671875" xlink:href="#LiberationSans-30"/>
      </g>
     </g>
    </g>
    <g id="ytick_4">
     <g id="line2d_22">
      <path clip-path="url(#pe5e2a6dcf0)" d="M 72 220.628571 
L 518.4 220.628571 
" style="fill:none;stroke:#ffffff;stroke-linecap:round;"/>
     </g>
     <g id="line2d_23"/>
     <g id="line2d_24"/>
     <g id="text_9">
      <!-- 84.2 -->
      <g style="fill:#262626;" transform="translate(45.5390625 223.214508929)scale(0.1 -0.1)">
       <use xlink:href="#LiberationSans-38"/>
       <use x="55.615234375" xlink:href="#LiberationSans-34"/>
       <use x="111.23046875" xlink:href="#LiberationSans-2e"/>
       <use x="139.013671875" xlink:href="#LiberationSans-32"/>
      </g>
     </g>
    </g>
    <g id="ytick_5">
     <g id="line2d_25">
      <path clip-path="url(#pe5e2a6dcf0)" d="M 72 175.371429 
L 518.4 175.371429 
" style="fill:none;stroke:#ffffff;stroke-linecap:round;"/>
     </g>
     <g id="line2d_26"/>
     <g id="line2d_27"/>
     <g id="text_10">
      <!-- 84.4 -->
      <g style="fill:#262626;" transform="translate(45.5390625 177.957366071)scale(0.1 -0.1)">
       <use xlink:href="#LiberationSans-38"/>
       <use x="55.615234375" xlink:href="#LiberationSans-34"/>
       <use x="111.23046875" xlink:href="#LiberationSans-2e"/>
       <use x="139.013671875" xlink:href="#LiberationSans-34"/>
      </g>
     </g>
    </g>
    <g id="ytick_6">
     <g id="line2d_28">
      <path clip-path="url(#pe5e2a6dcf0)" d="M 72 130.114286 
L 518.4 130.114286 
" style="fill:none;stroke:#ffffff;stroke-linecap:round;"/>
     </g>
     <g id="line2d_29"/>
     <g id="line2d_30"/>
     <g id="text_11">
      <!-- 84.6 -->
      <g style="fill:#262626;" transform="translate(45.5390625 132.700223214)scale(0.1 -0.1)">
       <use xlink:href="#LiberationSans-38"/>
       <use x="55.615234375" xlink:href="#LiberationSans-34"/>
       <use x="111.23046875" xlink:href="#LiberationSans-2e"/>
       <use x="139.013671875" xlink:href="#LiberationSans-36"/>
      </g>
     </g>
    </g>
    <g id="ytick_7">
     <g id="line2d_31">
      <path clip-path="url(#pe5e2a6dcf0)" d="M 72 84.857143 
L 518.4 84.857143 
" style="fill:none;stroke:#ffffff;stroke-linecap:round;"/>
     </g>
     <g id="line2d_32"/>
     <g id="line2d_33"/>
     <g id="text_12">
      <!-- 84.8 -->
      <g style="fill:#262626;" transform="translate(45.5390625 87.4430803571)scale(0.1 -0.1)">
       <use xlink:href="#LiberationSans-38"/>
       <use x="55.615234375" xlink:href="#LiberationSans-34"/>
       <use x="111.23046875" xlink:href="#LiberationSans-2e"/>
       <use x="139.013671875" xlink:href="#LiberationSans-38"/>
      </g>
     </g>
    </g>
    <g id="ytick_8">
     <g id="line2d_34">
      <path clip-path="url(#pe5e2a6dcf0)" d="M 72 39.6 
L 518.4 39.6 
" style="fill:none;stroke:#ffffff;stroke-linecap:round;"/>
     </g>
     <g id="line2d_35"/>
     <g id="line2d_36"/>
     <g id="text_13">
      <!-- 85.0 -->
      <g style="fill:#262626;" transform="translate(45.5390625 42.1859375)scale(0.1 -0.1)">
       <use xlink:href="#LiberationSans-38"/>
       <use x="55.615234375" xlink:href="#LiberationSans-35"/>
       <use x="111.23046875" xlink:href="#LiberationSans-2e"/>
       <use x="139.013671875" xlink:href="#LiberationSans-30"/>
      </g>
     </g>
    </g>
   </g>
   <g id="line2d_37">
    <path clip-path="url(#pe5e2a6dcf0)" d="M 72 308.730788 
L 72.223312 325.199959 
L 72.446623 318.096802 
L 72.669935 318.411387 
L 72.893247 315.833945 
L 73.116558 318.411387 
L 73.33987 313.571088 
L 73.563182 313.571088 
L 73.786493 315.833945 
L 74.009805 307.097102 
L 74.233117 307.097102 
L 74.456428 306.782516 
L 74.67974 306.782516 
L 74.903052 311.937401 
L 75.126363 311.937401 
L 75.349675 314.514844 
L 75.572986 319.040558 
L 75.796298 321.303415 
L 76.01961 319.040558 
L 76.242921 311.937401 
L 76.466233 314.200258 
L 76.689545 313.885673 
L 76.912856 316.14853 
L 77.136168 315.833945 
L 77.35948 316.14853 
L 77.582791 313.885673 
L 77.806103 313.571088 
L 78.029415 309.045374 
L 78.252726 308.101618 
L 78.476038 310.67906 
L 78.69935 308.101618 
L 78.922661 310.364475 
L 79.369285 310.364475 
L 79.815908 306.153346 
L 80.03922 306.153346 
L 80.262531 299.050189 
L 80.485843 303.890489 
L 80.709155 303.890489 
L 80.932466 304.205074 
L 81.155778 301.627632 
L 81.37909 306.153346 
L 81.602401 303.890489 
L 81.825713 306.153346 
L 82.049025 306.153346 
L 82.272336 301.313047 
L 82.718959 308.416203 
L 83.165583 303.575904 
L 83.388894 299.050189 
L 83.612206 296.787332 
L 83.835518 297.101917 
L 84.058829 294.83906 
L 84.282141 294.524475 
L 84.505453 292.261618 
L 84.728764 285.158461 
L 84.952076 285.158461 
L 85.175388 280.295942 
L 85.398699 284.821657 
L 85.622011 287.084514 
L 85.845323 287.421318 
L 86.068634 285.473047 
L 86.291946 287.735904 
L 86.515258 287.735904 
L 86.738569 285.473047 
L 86.961881 285.158461 
L 87.185193 280.632747 
L 87.408504 280.295942 
L 87.631816 287.421318 
L 87.855128 282.5588 
L 88.301751 268.981657 
L 88.525063 266.404214 
L 88.748374 268.667072 
L 88.971686 266.404214 
L 89.194997 266.7188 
L 89.418309 268.981657 
L 90.758179 268.981657 
L 90.981491 271.581318 
L 91.204802 271.581318 
L 91.651426 267.055604 
L 92.098049 271.581318 
L 92.321361 269.318461 
L 92.544672 271.581318 
L 92.767984 276.421618 
L 92.991296 276.107033 
L 93.214607 278.684475 
L 93.437919 283.210189 
L 93.661231 283.210189 
L 93.884542 278.36989 
L 94.107854 282.895604 
L 94.331166 278.36989 
L 94.554477 280.947332 
L 94.777789 280.947332 
L 95.001101 280.632747 
L 95.224412 278.36989 
L 95.447724 280.947332 
L 95.671036 278.36989 
L 95.894347 285.473047 
L 96.117659 280.632747 
L 96.34097 285.473047 
L 96.564282 278.36989 
L 97.010905 278.36989 
L 97.457529 273.507371 
L 97.68084 276.107033 
L 98.350775 276.107033 
L 98.574087 274.158761 
L 99.02071 278.684475 
L 99.244022 278.36989 
L 99.467334 282.895604 
L 99.690645 278.36989 
L 99.913957 285.473047 
L 100.137269 275.770228 
L 100.36058 275.770228 
L 100.583892 278.36989 
L 100.807204 273.507371 
L 101.253827 273.507371 
L 101.477139 276.107033 
L 101.70045 273.507371 
L 101.923762 266.089629 
L 102.147074 266.089629 
L 102.370385 268.667072 
L 102.593697 273.507371 
L 102.817009 271.244514 
L 103.04032 273.192786 
L 103.263632 279.981357 
L 103.486943 282.5588 
L 103.710255 277.7185 
L 103.933567 280.295942 
L 104.38019 275.141058 
L 104.603502 277.7185 
L 104.826813 275.141058 
L 105.050125 275.455643 
L 105.273437 272.878201 
L 105.72006 277.403915 
L 105.943372 272.563615 
L 106.166683 229.922456 
L 106.389995 227.659599 
L 106.613307 237.025613 
L 106.836618 239.603055 
L 107.05993 230.237041 
L 107.283242 234.762756 
L 107.506553 230.237041 
L 108.176488 230.237041 
L 108.3998 232.814484 
L 108.623112 239.603055 
L 108.846423 239.603055 
L 109.069735 234.762756 
L 109.293047 239.603055 
L 109.516358 237.025613 
L 109.73967 232.499898 
L 110.186293 237.340198 
L 110.409605 237.340198 
L 110.856228 232.185313 
L 111.07954 232.185313 
L 111.302851 227.345014 
L 111.526163 225.082157 
L 111.749475 229.922456 
L 111.972786 231.870728 
L 112.196098 236.711028 
L 112.41941 234.133585 
L 112.642721 226.715843 
L 112.866033 233.504415 
L 113.089345 230.926972 
L 113.312656 235.767272 
L 113.535968 228.34953 
L 113.75928 230.926972 
L 114.205903 225.749868 
L 114.652526 225.749868 
L 115.322461 232.223854 
L 115.545773 229.960997 
L 115.769085 230.275583 
L 115.992396 232.875244 
L 116.215708 232.875244 
L 116.43902 230.275583 
L 116.662331 232.875244 
L 116.885643 232.875244 
L 117.108954 230.275583 
L 117.332266 235.452687 
L 118.002201 235.452687 
L 118.225513 232.875244 
L 118.448824 232.875244 
L 118.672136 232.53844 
L 118.895448 232.53844 
L 119.118759 235.138101 
L 119.342071 230.275583 
L 119.565383 218.961297 
L 120.012006 218.961297 
L 120.458629 214.120997 
L 120.681941 209.280698 
L 120.905253 207.017841 
L 121.128564 209.595283 
L 122.021811 199.285514 
L 122.245123 199.285514 
L 122.468434 201.862956 
L 122.691746 201.862956 
L 122.915058 199.285514 
L 123.138369 201.862956 
L 123.361681 199.285514 
L 123.584992 201.862956 
L 123.808304 206.703255 
L 124.031616 208.966113 
L 124.254927 208.966113 
L 124.478239 206.38867 
L 124.701551 208.966113 
L 124.924862 206.38867 
L 125.148174 208.966113 
L 125.371486 206.703255 
L 125.818109 211.543555 
L 126.041421 211.543555 
L 126.264732 208.966113 
L 126.488044 211.543555 
L 126.711356 211.85814 
L 126.934667 207.017841 
L 127.157979 207.017841 
L 127.381291 209.595283 
L 127.827914 209.595283 
L 128.051226 204.440398 
L 128.274537 204.440398 
L 128.721161 211.543555 
L 128.944472 213.806412 
L 129.167784 211.22897 
L 129.391096 218.332126 
L 129.614407 218.332126 
L 129.837719 213.806412 
L 130.954277 213.806412 
L 131.624212 207.017841 
L 131.847524 209.595283 
L 132.070835 205.069569 
L 132.294147 191.492426 
L 132.517459 205.384154 
L 132.964082 200.543854 
L 133.187394 203.121297 
L 133.410705 200.543854 
L 133.634017 200.543854 
L 133.857329 198.280997 
L 134.08064 198.280997 
L 134.303952 205.720959 
L 134.527264 200.85844 
L 134.750575 202.806712 
L 134.973887 202.806712 
L 135.197199 203.121297 
L 135.42051 200.85844 
L 135.867134 200.85844 
L 136.090445 208.298401 
L 136.313757 198.932387 
L 136.537069 201.195244 
L 136.76038 198.932387 
L 136.983692 201.509829 
L 137.207004 201.195244 
L 137.430315 203.772687 
L 137.653627 198.932387 
L 137.876938 201.509829 
L 138.10025 201.509829 
L 138.323562 201.195244 
L 138.546873 198.595583 
L 138.993497 203.458101 
L 139.216808 200.85844 
L 139.44012 205.720959 
L 139.663432 203.458101 
L 139.886743 208.298401 
L 140.110055 206.035544 
L 140.333367 208.612986 
L 140.556678 206.035544 
L 140.77999 208.612986 
L 141.226613 208.612986 
L 141.449925 206.350129 
L 141.673237 206.035544 
L 141.896548 211.190429 
L 142.343172 211.190429 
L 142.566483 206.664714 
L 142.789795 211.190429 
L 143.013107 211.190429 
L 143.236418 213.767871 
L 143.683042 209.242157 
L 143.906353 211.190429 
L 144.129665 208.927571 
L 144.576288 213.767871 
L 144.7996 211.190429 
L 145.246223 219.927272 
L 146.13947 219.927272 
L 146.362781 217.349829 
L 146.586093 217.349829 
L 147.032716 224.452986 
L 147.47934 219.298101 
L 147.925963 224.138401 
L 148.149275 224.138401 
L 148.372586 219.298101 
L 148.81921 224.138401 
L 149.042521 219.612687 
L 149.265833 221.875544 
L 149.489145 219.927272 
L 149.712456 222.504714 
L 149.935768 217.349829 
L 150.15908 219.927272 
L 150.382391 219.927272 
L 150.605703 220.241857 
L 150.829015 222.504714 
L 151.498949 222.504714 
L 151.722261 225.082157 
L 151.945573 225.082157 
L 152.168884 225.711327 
L 152.392196 221.500198 
L 152.615508 201.509829 
L 152.838819 215.401558 
L 153.062131 206.035544 
L 153.285443 210.875843 
L 153.508754 212.824115 
L 153.955378 221.875544 
L 154.178689 221.875544 
L 154.402001 219.612687 
L 154.625313 219.612687 
L 154.848624 217.349829 
L 155.295248 229.293286 
L 155.518559 231.870728 
L 155.965183 240.607571 
L 156.411806 231.241558 
L 156.635118 231.241558 
L 156.858429 233.819 
L 157.528364 226.086673 
L 157.751676 218.961297 
L 157.974987 223.487011 
L 158.198299 223.487011 
L 158.644922 228.664115 
L 158.868234 224.138401 
L 159.314857 240.607571 
L 159.538169 240.607571 
L 159.761481 235.767272 
L 159.984792 233.504415 
L 160.431416 226.086673 
L 160.654727 226.086673 
L 160.878039 228.664115 
L 161.324662 223.487011 
L 161.547974 223.487011 
L 161.771286 226.401258 
L 161.994597 226.086673 
L 162.217909 224.138401 
L 162.441221 224.138401 
L 162.664532 221.560959 
L 162.887844 224.138401 
L 163.111156 223.823816 
L 163.334467 221.560959 
L 163.781091 221.560959 
L 164.004402 226.086673 
L 164.227714 221.224154 
L 164.451026 221.224154 
L 164.674337 219.298101 
L 165.12096 212.172725 
L 165.344272 214.772387 
L 165.567584 219.612687 
L 165.790895 228.664115 
L 166.46083 236.396442 
L 166.684142 233.819 
L 166.907454 233.819 
L 167.130765 231.241558 
L 167.354077 233.819 
L 167.577389 233.504415 
L 167.8007 231.241558 
L 168.024012 233.819 
L 168.470635 233.819 
L 168.693947 236.396442 
L 168.917259 231.556143 
L 169.14057 233.819 
L 169.363882 231.241558 
L 169.810505 231.241558 
L 170.033817 233.504415 
L 170.257129 228.664115 
L 170.48044 228.664115 
L 170.703752 231.241558 
L 170.927064 231.241558 
L 171.150375 230.926972 
L 171.373687 228.664115 
L 172.266933 228.664115 
L 172.490245 230.926972 
L 172.713557 230.926972 
L 172.936868 231.241558 
L 173.16018 233.819 
L 174.723362 233.819 
L 174.946673 236.081857 
L 175.393297 248.025313 
L 175.616608 255.12847 
L 175.83992 252.551028 
L 176.063232 252.551028 
L 176.509855 247.710728 
L 176.956478 252.865613 
L 177.17979 250.28817 
L 177.403102 250.28817 
L 177.626413 254.813885 
L 177.849725 250.28817 
L 178.073037 252.865613 
L 178.51966 252.865613 
L 178.742971 250.28817 
L 178.966283 256.762157 
L 179.189595 259.339599 
L 179.636218 254.499299 
L 179.85953 256.762157 
L 180.082841 254.184714 
L 181.1994 254.184714 
L 181.422711 251.921857 
L 181.646023 254.184714 
L 181.869335 251.607272 
L 182.092646 256.132986 
L 182.315958 256.132986 
L 182.53927 258.710429 
L 183.209205 258.710429 
L 183.432516 259.025014 
L 183.655828 261.287871 
L 183.87914 259.025014 
L 184.325763 259.025014 
L 184.549075 261.287871 
L 184.772386 261.287871 
L 184.995698 259.339599 
L 185.21901 259.025014 
L 185.665633 263.865313 
L 185.888944 263.865313 
L 186.112256 266.442756 
L 186.335568 261.287871 
L 186.558879 261.287871 
L 186.782191 263.865313 
L 187.452126 256.762157 
L 187.675438 261.602456 
L 187.898749 254.184714 
L 188.122061 254.184714 
L 188.345373 251.921857 
L 188.791996 257.076742 
L 189.238619 257.076742 
L 189.461931 259.339599 
L 189.685243 259.025014 
L 190.131866 263.865313 
L 190.355178 259.025014 
L 190.578489 261.287871 
L 192.141671 261.287871 
L 192.364982 265.813585 
L 192.811606 265.813585 
L 193.258229 256.132986 
L 193.928164 256.132986 
L 194.151476 263.236143 
L 194.598099 263.236143 
L 194.821411 265.813585 
L 195.044722 263.236143 
L 195.268034 262.921558 
L 195.491346 260.344115 
L 195.714657 260.6587 
L 196.161281 253.555544 
L 196.607904 258.710429 
L 196.831216 258.710429 
L 197.054527 258.395843 
L 197.501151 263.236143 
L 197.724462 260.6587 
L 197.947774 263.236143 
L 198.171086 263.236143 
L 198.394397 260.6587 
L 198.617709 260.6587 
L 198.841021 260.973286 
L 199.064332 258.710429 
L 199.287644 249.068371 
L 199.510955 253.90867 
L 199.734267 254.223255 
L 199.957579 261.640997 
L 200.18089 251.960398 
L 200.627514 243.223555 
L 200.850825 242.90897 
L 201.074137 243.223555 
L 201.297449 240.646113 
L 201.52076 240.646113 
L 201.744072 238.06867 
L 201.967384 238.06867 
L 202.190695 240.646113 
L 202.637319 240.646113 
L 202.86063 243.223555 
L 203.307254 238.06867 
L 203.530565 233.542956 
L 203.753877 239.012426 
L 203.977189 229.646412 
L 204.2005 231.909269 
L 205.093747 231.909269 
L 205.317059 229.331827 
L 205.763682 229.331827 
L 205.986993 231.594684 
L 206.210305 226.754385 
L 206.433617 229.331827 
L 206.88024 236.120398 
L 207.103552 233.542956 
L 207.550175 224.176942 
L 207.773487 223.525552 
L 207.996798 225.78841 
L 208.22011 220.94811 
L 208.443422 213.530368 
L 208.666733 223.525552 
L 208.890045 221.262695 
L 209.113357 220.94811 
L 209.55998 220.94811 
L 209.783292 225.78841 
L 210.006603 225.78841 
L 210.229915 223.210967 
L 210.453227 223.525552 
L 210.676538 223.525552 
L 210.89985 216.422396 
L 211.123162 220.94811 
L 211.346473 218.370668 
L 211.569785 220.633525 
L 211.793097 218.685253 
L 212.016408 223.525552 
L 212.23972 213.844953 
L 212.463032 213.844953 
L 212.686343 190.587211 
L 212.909655 183.79864 
L 213.132966 181.221198 
L 213.356278 186.376082 
L 213.57959 186.376082 
L 213.802901 188.953525 
L 214.026213 188.63894 
L 214.249525 193.793824 
L 214.472836 196.371267 
L 214.696148 191.530967 
L 214.91946 193.793824 
L 215.142771 191.216382 
L 215.366083 196.056681 
L 215.589395 193.793824 
L 215.812706 193.793824 
L 216.036018 191.530967 
L 216.25933 191.530967 
L 216.482641 193.793824 
L 216.705953 198.319539 
L 216.929265 198.319539 
L 217.152576 193.479239 
L 217.375888 193.479239 
L 217.822511 194.10841 
L 218.269135 201.548371 
L 218.492446 196.708071 
L 218.715758 196.708071 
L 218.93907 201.862956 
L 219.385693 196.708071 
L 219.832316 196.708071 
L 220.055628 201.233785 
L 220.278939 196.708071 
L 220.725563 196.708071 
L 220.948874 206.074085 
L 221.172186 206.074085 
L 221.395498 203.496643 
L 221.618809 208.022357 
L 221.842121 201.233785 
L 222.065433 200.896981 
L 222.512056 200.896981 
L 222.735368 203.496643 
L 222.958679 200.896981 
L 223.181991 200.896981 
L 223.628614 208.022357 
L 223.851926 203.159838 
L 224.075238 195.742096 
L 224.298549 198.004953 
L 224.521861 198.319539 
L 224.745173 195.742096 
L 224.968484 198.319539 
L 225.415108 198.319539 
L 225.861731 194.10841 
L 226.085043 188.953525 
L 226.308354 186.376082 
L 226.531666 191.216382 
L 226.754977 193.479239 
L 226.978289 190.587211 
L 227.201601 190.587211 
L 227.648224 185.432327 
L 227.871536 188.009769 
L 228.094847 188.009769 
L 228.318159 193.164654 
L 228.541471 195.742096 
L 228.764782 193.164654 
L 228.988094 198.319539 
L 229.434717 198.319539 
L 229.658029 198.634124 
L 229.881341 198.634124 
L 230.327964 191.530967 
L 230.551276 191.530967 
L 230.774587 194.10841 
L 230.997899 198.634124 
L 231.221211 198.970928 
L 231.444522 198.634124 
L 231.667834 193.793824 
L 232.114457 198.319539 
L 232.337769 198.319539 
L 232.561081 198.634124 
L 232.784392 198.319539 
L 233.007704 196.056681 
L 233.231016 195.742096 
L 233.454327 193.164654 
L 233.677639 207.056382 
L 233.90095 207.056382 
L 234.124262 209.633824 
L 234.347574 209.633824 
L 234.570885 207.056382 
L 234.794197 207.056382 
L 235.017509 209.319239 
L 235.24082 213.844953 
L 235.464132 214.159539 
L 235.910755 209.319239 
L 236.134067 209.319239 
L 236.357379 209.633824 
L 237.027314 217.073785 
L 237.250625 221.914085 
L 237.473937 214.810928 
L 237.697249 212.211267 
L 237.92056 205.10811 
L 238.143872 207.056382 
L 239.037119 207.056382 
L 239.26043 209.633824 
L 239.483742 207.056382 
L 239.707054 207.056382 
L 239.930365 214.474124 
L 240.153677 217.073785 
L 240.6003 209.633824 
L 240.823612 207.056382 
L 241.046923 209.633824 
L 241.270235 209.319239 
L 241.493547 209.633824 
L 241.716858 209.633824 
L 241.94017 200.26781 
L 242.163482 200.26781 
L 242.386793 205.10811 
L 242.610105 205.10811 
L 243.28004 212.862656 
L 243.503352 200.896981 
L 243.726663 203.496643 
L 244.173287 198.634124 
L 244.396598 198.634124 
L 244.61991 203.496643 
L 244.843222 200.896981 
L 245.066533 207.685552 
L 245.289845 200.26781 
L 245.736468 200.26781 
L 245.95978 210.914385 
L 246.183092 197.337242 
L 246.406403 201.862956 
L 246.629715 201.862956 
L 246.853027 199.600099 
L 247.076338 195.38897 
L 247.29965 187.971228 
L 247.522961 185.393785 
L 247.746273 187.971228 
L 247.969585 185.708371 
L 248.192896 176.656942 
L 248.416208 181.182656 
L 248.63952 183.445514 
L 249.086143 183.445514 
L 249.309455 188.285813 
L 249.756078 183.445514 
L 249.97939 178.26841 
L 250.202701 178.26841 
L 250.426013 181.182656 
L 250.649325 178.605214 
L 250.872636 180.868071 
L 251.095948 178.605214 
L 251.31926 181.182656 
L 251.542571 178.605214 
L 251.765883 180.868071 
L 251.989195 176.342357 
L 252.212506 181.182656 
L 252.435818 178.605214 
L 253.775688 178.605214 
L 253.998999 183.445514 
L 254.222311 183.445514 
L 254.445623 186.022956 
L 254.668934 183.445514 
L 254.892246 183.445514 
L 255.115558 186.022956 
L 255.338869 185.708371 
L 255.562181 190.54867 
L 255.785493 187.971228 
L 256.008804 190.54867 
L 256.232116 190.863255 
L 256.455428 190.54867 
L 256.678739 185.393785 
L 256.902051 185.708371 
L 257.125363 185.708371 
L 257.348674 187.971228 
L 257.571986 185.393785 
L 257.795298 185.393785 
L 258.018609 187.971228 
L 258.241921 180.868071 
L 258.465233 183.445514 
L 259.135168 183.445514 
L 259.581791 178.919799 
L 259.805103 178.605214 
L 260.251726 173.42811 
L 260.475038 173.742695 
L 260.698349 176.005552 
L 261.591596 176.005552 
L 261.814907 176.342357 
L 262.038219 176.005552 
L 262.261531 176.005552 
L 262.484842 178.605214 
L 262.708154 176.005552 
L 262.931466 176.005552 
L 263.154777 174.0795 
L 263.601401 179.234385 
L 263.824712 179.234385 
L 264.271336 174.394085 
L 264.494647 169.216981 
L 264.717959 168.902396 
L 264.941271 166.639539 
L 265.164582 156.329769 
L 265.387894 156.95894 
L 265.834517 156.95894 
L 266.281141 152.11864 
L 266.504452 156.95894 
L 266.727764 157.273525 
L 266.951076 154.381497 
L 267.174387 147.278341 
L 267.397699 149.855783 
L 267.621011 154.381497 
L 268.067634 154.381497 
L 268.290945 151.804055 
L 268.514257 154.066912 
L 268.737569 151.48947 
L 268.96088 147.278341 
L 269.184192 151.804055 
L 269.630815 137.260937 
L 269.854127 144.700898 
L 270.077439 147.592926 
L 270.30075 147.278341 
L 270.524062 154.381497 
L 270.747374 149.855783 
L 270.970685 154.381497 
L 271.193997 152.11864 
L 271.417309 152.11864 
L 271.64062 154.381497 
L 272.310555 154.381497 
L 272.533867 149.855783 
L 272.757179 152.433225 
L 272.98049 159.536382 
L 273.203802 159.536382 
L 273.650425 164.691267 
L 273.873737 162.113824 
L 274.097049 157.273525 
L 274.32036 164.691267 
L 274.543672 157.58811 
L 274.766983 157.58811 
L 274.990295 160.165552 
L 275.66023 152.74781 
L 275.883542 155.325253 
L 276.106853 155.325253 
L 276.330165 157.902695 
L 276.553477 155.325253 
L 276.776788 164.691267 
L 277.0001 165.028071 
L 277.223412 164.691267 
L 277.446723 162.42841 
L 277.670035 169.868371 
L 277.893347 167.290928 
L 278.33997 171.816643 
L 278.563282 169.216981 
L 278.786593 169.553785 
L 279.009905 166.954124 
L 279.233217 166.954124 
L 279.67984 174.0795 
L 279.903152 174.0795 
L 280.126463 174.394085 
L 280.349775 167.290928 
L 280.573087 169.868371 
L 281.01971 169.868371 
L 281.243022 176.656942 
L 281.466333 174.394085 
L 281.689645 176.656942 
L 281.912956 177.286113 
L 282.136268 187.281297 
L 282.35958 182.126412 
L 282.582891 182.440997 
L 282.806203 170.497541 
L 283.252826 180.492725 
L 283.476138 182.755583 
L 283.69945 180.17814 
L 283.922761 175.023255 
L 284.369385 169.868371 
L 284.592696 172.445813 
L 284.816008 172.445813 
L 285.262631 167.920099 
L 285.932566 167.920099 
L 286.155878 170.182956 
L 286.37919 170.182956 
L 286.602501 170.497541 
L 286.825813 170.182956 
L 287.049125 165.657242 
L 287.272436 165.657242 
L 287.495748 167.920099 
L 287.71906 165.342656 
L 287.942371 160.502357 
L 288.165683 162.765214 
L 288.388994 162.765214 
L 288.612306 170.182956 
L 288.835618 167.920099 
L 289.058929 167.605514 
L 289.282241 163.079799 
L 289.505553 165.342656 
L 289.728864 165.342656 
L 289.952176 162.765214 
L 290.175488 162.765214 
L 290.398799 165.657242 
L 290.845423 160.816942 
L 291.738669 160.816942 
L 291.961981 165.657242 
L 292.185293 160.816942 
L 292.408604 160.502357 
L 292.631916 163.079799 
L 292.855228 158.2395 
L 293.078539 178.881258 
L 293.301851 162.726673 
L 293.525163 165.304115 
L 293.748474 163.041258 
L 293.971786 165.304115 
L 294.195098 169.829829 
L 294.418409 160.127011 
L 294.641721 164.652725 
L 294.865033 164.652725 
L 295.088344 173.704154 
L 295.311656 173.389569 
L 295.534967 198.280997 
L 295.758279 205.069569 
L 295.981591 205.069569 
L 296.204902 209.595283 
L 296.428214 207.647011 
L 296.651526 207.332426 
L 296.874837 214.435583 
L 297.098149 212.172725 
L 297.321461 205.069569 
L 297.544772 207.017841 
L 297.768084 202.492126 
L 297.991396 200.543854 
L 298.214707 205.384154 
L 298.438019 200.543854 
L 298.661331 203.121297 
L 298.884642 207.647011 
L 299.107954 207.647011 
L 299.331266 209.909868 
L 299.554577 214.772387 
L 299.777889 212.172725 
L 300.001201 221.560959 
L 300.447824 212.172725 
L 300.671136 212.172725 
L 301.117759 216.69844 
L 301.564382 209.595283 
L 301.787694 198.280997 
L 302.011006 193.755283 
L 302.234317 186.966712 
L 302.68094 191.807011 
L 302.904252 191.807011 
L 303.127564 186.966712 
L 303.350875 184.703854 
L 303.574187 186.966712 
L 303.797499 186.966712 
L 304.02081 189.544154 
L 304.244122 194.069868 
L 304.467434 191.807011 
L 304.690745 196.66953 
L 304.914057 194.069868 
L 305.137369 206.035544 
L 305.36068 208.298401 
L 305.583992 201.195244 
L 305.807304 199.246972 
L 306.030615 204.401857 
L 306.253927 206.979299 
L 306.70055 219.574145 
L 306.923862 209.556742 
L 307.147174 209.556742 
L 307.370485 212.134184 
L 307.593797 209.556742 
L 307.817109 205.031028 
L 308.263732 209.871327 
L 308.710355 202.453585 
L 308.933667 199.876143 
L 309.156978 199.876143 
L 309.38029 202.453585 
L 309.603602 202.139 
L 309.826913 202.453585 
L 310.050225 209.556742 
L 310.273537 206.979299 
L 310.496848 206.979299 
L 310.72016 199.876143 
L 310.943472 202.139 
L 311.166783 202.453585 
L 311.390095 207.293885 
L 311.613407 209.556742 
L 311.836718 209.556742 
L 312.06003 202.139 
L 312.283342 204.401857 
L 312.506653 204.401857 
L 312.953277 199.876143 
L 313.176588 204.716442 
L 313.3999 204.401857 
L 313.623212 199.876143 
L 313.846523 199.876143 
L 314.069835 197.613286 
L 314.516458 202.139 
L 314.73977 209.556742 
L 315.409705 209.556742 
L 315.633017 209.242157 
L 315.856328 209.556742 
L 316.07964 206.979299 
L 316.526263 211.819599 
L 317.196198 211.819599 
L 317.41951 209.556742 
L 318.312756 209.556742 
L 318.536068 209.242157 
L 318.75938 209.556742 
L 318.982691 212.134184 
L 319.429315 206.979299 
L 319.652626 206.979299 
L 319.875938 204.716442 
L 320.09925 187.932687 
L 320.545873 192.143816 
L 320.769185 192.143816 
L 321.215808 187.281297 
L 321.43912 192.458401 
L 321.662431 192.143816 
L 322.332366 192.143816 
L 322.778989 186.966712 
L 323.225613 186.966712 
L 323.448924 189.229569 
L 323.672236 189.544154 
L 323.895548 186.966712 
L 324.565483 186.966712 
L 324.788794 192.143816 
L 325.012106 182.755583 
L 325.235418 180.17814 
L 325.682041 189.880959 
L 326.351976 182.755583 
L 326.575288 184.703854 
L 327.021911 179.863555 
L 327.245223 180.17814 
L 327.691846 189.880959 
L 327.915158 189.544154 
L 328.138469 187.281297 
L 328.361781 187.281297 
L 328.585093 189.880959 
L 329.031716 189.880959 
L 329.255028 187.281297 
L 329.478339 189.880959 
L 329.701651 187.281297 
L 329.924962 189.544154 
L 330.148274 189.229569 
L 330.371586 194.406673 
L 330.818209 194.406673 
L 331.041521 191.807011 
L 331.264832 191.807011 
L 331.488144 186.966712 
L 331.711456 191.807011 
L 331.934767 192.143816 
L 332.158079 192.143816 
L 332.381391 189.544154 
L 332.604702 192.143816 
L 332.828014 192.143816 
L 333.051326 197.2987 
L 333.274637 197.2987 
L 333.497949 194.721258 
L 333.944572 194.721258 
L 334.167884 192.143816 
L 334.391196 192.143816 
L 334.614507 194.721258 
L 334.837819 189.544154 
L 335.061131 192.143816 
L 335.284442 189.544154 
L 335.507754 194.069868 
L 335.731066 189.544154 
L 335.954377 189.544154 
L 336.177689 186.966712 
L 336.401001 181.811827 
L 336.624312 184.389269 
L 336.847624 184.389269 
L 337.070935 186.966712 
L 337.294247 184.703854 
L 337.517559 190.195544 
L 337.74087 185.355244 
L 337.964182 187.932687 
L 338.187494 187.932687 
L 338.410805 187.618101 
L 338.634117 187.932687 
L 338.857429 185.669829 
L 339.08074 187.932687 
L 339.304052 187.932687 
L 339.527364 185.355244 
L 339.750675 185.355244 
L 339.973987 183.092387 
L 340.197299 168.196143 
L 340.42061 179.510429 
L 340.643922 179.195843 
L 340.867234 170.144415 
L 341.090545 181.773286 
L 341.313857 183.721558 
L 341.537169 188.876442 
L 341.76048 188.876442 
L 341.983792 191.453885 
L 342.207104 198.557041 
L 342.430415 198.242456 
L 342.653727 195.665014 
L 342.877039 188.876442 
L 343.10035 193.716742 
L 343.323662 195.665014 
L 343.546973 195.665014 
L 343.993597 182.402456 
L 344.44022 182.402456 
L 344.663532 194.031327 
L 344.886843 189.191028 
L 345.110155 191.453885 
L 346.003402 191.453885 
L 346.226713 191.76847 
L 346.450025 191.453885 
L 346.673337 194.031327 
L 346.896648 189.191028 
L 347.343272 194.345912 
L 347.566583 194.345912 
L 347.789895 194.031327 
L 348.236518 194.031327 
L 348.45983 191.76847 
L 348.906453 191.76847 
L 349.129765 189.191028 
L 349.353077 188.876442 
L 349.576388 188.876442 
L 349.7997 191.453885 
L 350.023012 186.613585 
L 350.469635 186.613585 
L 350.692946 188.876442 
L 351.13957 184.036143 
L 352.032816 184.036143 
L 352.256128 186.613585 
L 352.47944 181.773286 
L 352.702751 184.350728 
L 352.926063 179.510429 
L 353.149375 181.773286 
L 353.372686 181.773286 
L 353.595998 184.350728 
L 353.81931 163.670429 
L 354.042621 163.670429 
L 354.265933 161.092986 
L 354.489245 161.407571 
L 354.712556 154.619 
L 354.935868 156.881857 
L 355.15918 156.881857 
L 355.382491 150.093286 
L 355.605803 152.670728 
L 355.829115 148.145014 
L 356.722361 148.145014 
L 356.945673 145.567571 
L 357.168984 145.567571 
L 357.392296 148.145014 
L 357.615608 145.882157 
L 358.062231 150.407871 
L 358.732166 142.990129 
L 359.402101 150.093286 
L 359.625413 145.567571 
L 359.848724 145.567571 
L 360.072036 150.093286 
L 360.295348 147.515843 
L 360.518659 142.675544 
L 360.741971 142.990129 
L 360.965283 145.567571 
L 361.188594 142.990129 
L 361.635218 142.990129 
L 362.305153 150.093286 
L 362.528464 147.830429 
L 362.751776 147.830429 
L 362.975088 145.567571 
L 363.198399 147.830429 
L 363.421711 145.567571 
L 363.868334 150.093286 
L 364.091646 145.567571 
L 364.314957 148.145014 
L 364.538269 145.567571 
L 364.761581 145.567571 
L 364.984892 147.830429 
L 365.431516 147.830429 
L 365.654827 148.145014 
L 365.878139 150.407871 
L 366.101451 150.407871 
L 366.324762 145.567571 
L 366.548074 148.145014 
L 366.771386 143.933885 
L 366.994697 148.774184 
L 367.218009 146.511327 
L 367.441321 146.511327 
L 367.664632 148.774184 
L 367.887944 155.24817 
L 368.111256 157.511028 
L 368.334567 157.825613 
L 368.557879 160.08847 
L 368.781191 164.614184 
L 369.004502 162.351327 
L 369.227814 164.928769 
L 369.897749 157.825613 
L 370.344372 162.351327 
L 370.790995 155.24817 
L 371.014307 162.665912 
L 371.237619 160.403055 
L 371.46093 162.665912 
L 371.684242 162.665912 
L 372.130865 157.511028 
L 372.354177 157.511028 
L 372.577489 160.08847 
L 372.8008 152.670728 
L 373.024112 154.933585 
L 373.247424 152.670728 
L 373.470735 152.670728 
L 373.694047 155.24817 
L 373.917359 152.670728 
L 374.14067 155.24817 
L 374.363982 152.670728 
L 375.48054 152.670728 
L 375.703852 155.24817 
L 375.927164 155.24817 
L 376.150475 152.670728 
L 376.373787 157.825613 
L 376.597099 157.825613 
L 376.82041 160.08847 
L 377.043722 152.985313 
L 377.267034 157.825613 
L 377.490345 155.24817 
L 377.713657 157.825613 
L 378.16028 150.722456 
L 378.383592 153.299898 
L 378.606903 150.722456 
L 378.830215 153.299898 
L 379.276838 141.356442 
L 379.50015 148.774184 
L 379.723462 151.037041 
L 379.946773 151.037041 
L 380.170085 151.351627 
L 380.393397 153.951288 
L 380.84002 153.951288 
L 381.063332 161.683615 
L 381.509955 166.8385 
L 381.733267 166.8385 
L 381.956578 160.049929 
L 382.17989 157.472486 
L 382.403202 160.364514 
L 382.626513 158.101657 
L 382.849825 153.261357 
L 383.073137 161.015904 
L 383.296448 158.438461 
L 383.51976 149.050228 
L 383.743072 149.387033 
L 383.966383 154.541917 
L 384.189695 156.804775 
L 384.413007 157.11936 
L 384.85963 169.377401 
L 385.082941 162.274245 
L 385.306253 167.429129 
L 385.529565 169.691986 
L 385.752876 169.691986 
L 385.976188 162.58883 
L 386.1995 167.114544 
L 386.422811 167.429129 
L 386.646123 172.920819 
L 386.869435 189.351448 
L 387.092746 196.454604 
L 387.316058 183.192047 
L 387.53937 183.192047 
L 387.762681 182.877462 
L 387.985993 178.037162 
L 388.209305 180.300019 
L 388.655928 187.403176 
L 388.87924 187.088591 
L 389.102551 196.454604 
L 389.325863 200.665734 
L 389.549175 200.665734 
L 389.772486 193.562577 
L 389.995798 195.825434 
L 390.21911 191.29972 
L 390.442421 190.985135 
L 390.665733 200.665734 
L 390.889045 198.402876 
L 391.335668 191.92889 
L 391.558979 178.037162 
L 392.005603 189.351448 
L 392.228914 189.351448 
L 392.452226 184.196563 
L 392.675538 191.29972 
L 392.898849 191.29972 
L 393.122161 184.196563 
L 393.345473 189.036863 
L 393.568784 179.985434 
L 393.792096 182.562876 
L 394.015408 178.037162 
L 394.238719 178.037162 
L 394.462031 177.722577 
L 394.685343 175.45972 
L 394.908654 178.037162 
L 395.131966 177.722577 
L 395.355278 175.774305 
L 395.578589 178.037162 
L 395.801901 182.877462 
L 396.025213 180.614604 
L 396.471836 173.511448 
L 396.695148 175.45972 
L 396.918459 175.45972 
L 397.141771 184.825734 
L 397.365083 180.300019 
L 397.588394 180.300019 
L 397.811706 175.45972 
L 398.035018 173.511448 
L 398.481641 173.511448 
L 398.704952 170.934005 
L 398.928264 170.934005 
L 399.151576 166.408291 
L 399.374887 173.511448 
L 399.821511 168.671148 
L 400.268134 182.562876 
L 400.491446 178.037162 
L 400.714757 178.037162 
L 400.938069 180.614604 
L 401.608004 172.882277 
L 401.831316 178.037162 
L 402.054627 175.774305 
L 402.277939 178.037162 
L 402.501251 175.774305 
L 402.724562 178.037162 
L 402.947874 178.037162 
L 403.171186 170.934005 
L 403.617809 175.774305 
L 403.841121 180.614604 
L 404.064432 180.300019 
L 404.287744 187.403176 
L 404.511056 187.403176 
L 404.734367 191.92889 
L 404.957679 194.191747 
L 405.18099 193.877162 
L 405.404302 196.76919 
L 405.627614 194.506333 
L 406.074237 194.506333 
L 406.297549 199.032047 
L 406.967484 199.032047 
L 407.190795 196.454604 
L 407.414107 196.140019 
L 407.637419 196.140019 
L 407.86073 198.717462 
L 408.084042 191.29972 
L 408.307354 193.877162 
L 408.530665 188.722277 
L 408.753977 193.562577 
L 408.977289 186.45942 
L 409.2006 186.45942 
L 409.647224 190.985135 
L 409.870535 200.351148 
L 410.093847 196.140019 
L 410.317159 197.773706 
L 410.54047 200.351148 
L 410.763782 193.562577 
L 411.210405 198.088291 
L 411.657029 198.088291 
L 411.88034 190.985135 
L 412.103652 202.29942 
L 412.326963 202.614005 
L 412.550275 204.876863 
L 412.773587 204.876863 
L 412.996898 200.351148 
L 413.22021 207.454305 
L 413.443522 208.083475 
L 413.666833 210.346333 
L 413.890145 208.083475 
L 414.113457 210.683137 
L 414.336768 215.838022 
L 414.56008 213.260579 
L 414.783392 215.838022 
L 415.006703 215.838022 
L 415.230015 218.415464 
L 415.453327 215.838022 
L 415.676638 220.992907 
L 415.89995 223.255764 
L 416.123262 218.415464 
L 416.569885 218.415464 
L 416.793197 220.363736 
L 417.016508 227.152308 
L 417.23982 227.466893 
L 417.686443 222.941179 
L 417.909755 222.941179 
L 418.133067 220.363736 
L 418.57969 220.363736 
L 418.803002 215.838022 
L 419.026313 222.941179 
L 419.472936 222.941179 
L 419.696248 215.838022 
L 419.91956 218.100879 
L 420.142871 218.100879 
L 420.366183 220.363736 
L 420.589495 220.363736 
L 421.036118 225.204036 
L 421.25943 218.415464 
L 421.706053 225.518621 
L 421.929365 225.518621 
L 422.152676 227.781478 
L 422.375988 227.781478 
L 422.5993 225.204036 
L 422.822611 227.781478 
L 423.045923 225.518621 
L 423.269235 227.781478 
L 423.93917 227.781478 
L 424.162481 236.832907 
L 424.385793 232.307192 
L 424.832416 236.832907 
L 425.055728 234.570049 
L 425.27904 234.570049 
L 425.502351 232.307192 
L 425.948974 232.307192 
L 426.172286 236.832907 
L 426.395598 236.832907 
L 426.618909 232.307192 
L 426.842221 234.570049 
L 427.065533 232.307192 
L 427.735468 232.307192 
L 427.958779 225.518621 
L 428.182091 225.518621 
L 428.405403 227.781478 
L 428.628714 227.781478 
L 428.852026 225.518621 
L 429.075338 227.781478 
L 429.298649 225.518621 
L 429.521961 225.518621 
L 429.745273 227.781478 
L 429.968584 227.781478 
L 430.191896 232.307192 
L 430.415208 232.307192 
L 430.638519 230.044335 
L 430.861831 230.044335 
L 431.085143 232.307192 
L 431.531766 220.992907 
L 431.755078 223.255764 
L 431.978389 223.255764 
L 432.201701 227.781478 
L 432.425013 227.781478 
L 432.648324 220.992907 
L 433.094947 225.518621 
L 433.764882 225.518621 
L 433.988194 215.247393 
L 434.211506 198.756003 
L 434.658129 198.756003 
L 434.881441 199.070588 
L 435.104752 201.333445 
L 435.328064 201.333445 
L 435.551376 208.458821 
L 435.997999 202.967132 
L 436.221311 205.85916 
L 436.444622 205.85916 
L 436.667934 210.721678 
L 437.114557 210.721678 
L 437.337869 217.824835 
L 437.561181 215.247393 
L 437.784492 215.247393 
L 438.007804 222.97972 
L 438.231116 222.97972 
L 438.454427 220.402277 
L 438.677739 220.402277 
L 438.901051 218.454005 
L 439.124362 220.716863 
L 439.347674 220.716863 
L 439.570985 220.402277 
L 439.794297 222.97972 
L 440.017609 217.824835 
L 440.24092 215.247393 
L 440.464232 215.876563 
L 440.687544 220.402277 
L 440.910855 220.716863 
L 441.134167 215.876563 
L 441.357479 220.716863 
L 441.58079 221.346033 
L 442.027414 226.523137 
L 442.250725 221.997423 
L 442.474037 221.660618 
L 442.92066 216.820319 
L 443.143972 216.820319 
L 443.367284 221.997423 
L 443.590595 219.397761 
L 443.813907 234.884635 
L 444.037219 232.621778 
L 444.26053 247.164895 
L 444.483842 250.056923 
L 444.707154 254.582637 
L 444.930465 252.005195 
L 445.153777 240.690909 
L 445.377089 238.113467 
L 445.6004 228.096063 
L 445.823712 230.35892 
L 446.047024 228.096063 
L 446.493647 215.838022 
L 446.716958 215.523437 
L 446.94027 220.363736 
L 447.163582 213.575165 
L 447.386893 213.260579 
L 447.610205 201.946294 
L 448.056828 209.04945 
L 448.28014 209.364036 
L 448.503452 204.523736 
L 448.726763 211.626893 
L 448.950075 209.364036 
L 449.173387 209.364036 
L 449.396698 209.04945 
L 449.62001 206.786593 
L 449.843322 202.575464 
L 450.066633 207.415764 
L 450.289945 207.415764 
L 450.736568 202.260879 
L 451.183192 202.260879 
L 451.629815 206.786593 
L 451.853127 204.523736 
L 452.076438 204.838321 
L 452.29975 199.683437 
L 452.746373 194.506333 
L 452.969685 186.774005 
L 453.192996 189.666033 
L 453.416308 189.351448 
L 453.63962 199.032047 
L 454.086243 193.877162 
L 454.309555 196.140019 
L 454.532866 196.454604 
L 455.202801 203.243176 
L 455.426113 200.980319 
L 455.649425 196.140019 
L 456.31936 210.683137 
L 456.542671 210.997722 
L 456.765983 210.997722 
L 456.989295 213.260579 
L 457.212606 210.683137 
L 457.435918 213.260579 
L 457.65923 203.557761 
L 457.882541 201.294904 
L 458.329165 201.294904 
L 458.552476 206.157423 
L 458.775788 203.894566 
L 458.9991 210.997722 
L 459.222411 210.997722 
L 459.669035 206.472008 
L 459.892346 222.941179 
L 460.115658 203.894566 
L 460.338969 198.717462 
L 460.785593 211.626893 
L 461.008904 216.152607 
L 461.232216 226.462377 
L 461.455528 231.639481 
L 461.678839 226.462377 
L 461.902151 216.152607 
L 462.125463 215.838022 
L 462.348774 207.76889 
L 462.572086 209.717162 
L 462.795398 216.505734 
L 463.018709 206.510549 
L 463.242021 206.825135 
L 463.465333 201.984835 
L 463.688644 204.562277 
L 463.911956 209.717162 
L 464.135268 209.717162 
L 464.358579 207.13972 
L 464.581891 212.294604 
L 464.805203 207.13972 
L 465.028514 209.087992 
L 465.251826 206.825135 
L 465.475138 206.825135 
L 465.698449 199.070588 
L 465.921761 201.67025 
L 466.145073 206.825135 
L 466.368384 194.230289 
L 466.591696 193.915703 
L 466.815008 196.17856 
L 467.038319 191.338261 
L 467.261631 191.023676 
L 467.484942 193.601118 
L 467.708254 186.497961 
L 467.931566 191.023676 
L 468.154877 188.446233 
L 468.378189 191.023676 
L 468.601501 185.868791 
L 468.824812 186.183376 
L 469.048124 188.446233 
L 469.271436 183.269129 
L 469.494747 180.691687 
L 469.718059 181.343077 
L 470.164682 191.023676 
L 470.387994 191.023676 
L 470.611306 181.343077 
L 470.834617 186.183376 
L 471.057929 186.183376 
L 471.281241 186.497961 
L 471.504552 184.235104 
L 471.727864 171.954844 
L 471.951176 181.343077 
L 472.174487 179.08022 
L 472.621111 183.605934 
L 472.844422 191.023676 
L 473.067734 186.497961 
L 473.291046 186.497961 
L 473.737669 181.343077 
L 473.96098 186.497961 
L 474.184292 186.497961 
L 474.407604 181.657662 
L 474.630915 184.235104 
L 474.854227 184.235104 
L 475.077539 186.812547 
L 475.30085 179.70939 
L 475.524162 177.446533 
L 475.747474 170.343376 
L 475.970785 172.291648 
L 476.194097 177.131948 
L 476.417409 177.131948 
L 476.64072 172.291648 
L 476.864032 171.954844 
L 477.310655 164.537102 
L 477.533967 164.537102 
L 477.757279 164.851687 
L 477.98059 162.58883 
L 478.203902 153.537401 
L 478.427214 155.761717 
L 478.650525 155.447132 
L 478.873837 150.921418 
L 479.32046 150.292247 
L 479.543772 152.240519 
L 479.990395 161.606533 
L 480.437019 150.606832 
L 480.66033 148.02939 
L 480.883642 152.86969 
L 481.330265 152.86969 
L 481.553577 157.395404 
L 482.223512 157.395404 
L 482.446823 157.080819 
L 482.670135 157.080819 
L 482.893447 150.292247 
L 483.116758 150.606832 
L 483.34007 157.709989 
L 483.563382 150.606832 
L 483.786693 152.86969 
L 484.010005 153.184275 
L 484.233317 155.447132 
L 484.456628 138.977961 
L 484.67994 137.02969 
L 485.349875 107.297961 
L 485.573187 107.297961 
L 485.796498 104.720519 
L 486.01981 109.246233 
L 486.243122 104.720519 
L 486.466433 107.297961 
L 486.689745 104.720519 
L 487.136368 95.983676 
L 487.582991 95.354505 
L 488.029615 101.491687 
L 488.252926 104.069129 
L 488.476238 108.594844 
L 488.69955 103.754544 
L 488.922861 104.069129 
L 489.369485 108.931648 
L 489.816108 104.069129 
L 490.262731 113.120558 
L 490.486043 113.457362 
L 490.709355 120.560519 
L 490.932666 122.823376 
L 491.155978 120.245934 
L 491.37929 122.823376 
L 491.602601 118.297662 
L 491.825913 131.874805 
L 492.049225 131.56022 
L 492.272536 146.395703 
L 492.495848 146.081118 
L 492.71916 150.921418 
L 492.942471 146.081118 
L 493.165783 146.081118 
L 493.389095 150.921418 
L 493.612406 146.395703 
L 493.835718 146.395703 
L 494.05903 153.49886 
L 494.282341 155.447132 
L 494.505653 146.081118 
L 494.728964 146.081118 
L 494.952276 153.184275 
L 495.175588 148.65856 
L 495.398899 146.710289 
L 495.622211 141.555404 
L 495.845523 141.869989 
L 496.068834 143.503676 
L 496.292146 136.715104 
L 496.738769 136.715104 
L 496.962081 134.452247 
L 497.185393 127.349091 
L 497.408704 134.452247 
L 497.632016 131.874805 
L 497.855328 136.715104 
L 498.078639 122.508791 
L 498.301951 124.771648 
L 498.525263 122.823376 
L 498.748574 127.349091 
L 498.971886 122.508791 
L 499.195198 122.508791 
L 499.418509 125.086233 
L 499.641821 125.086233 
L 499.865133 127.663676 
L 500.311756 122.823376 
L 500.758379 122.823376 
L 501.205003 130.241118 
L 501.428314 130.241118 
L 501.874937 123.767132 
L 502.098249 126.029989 
L 502.321561 130.241118 
L 502.768184 130.241118 
L 502.991496 132.81856 
L 503.214807 132.81856 
L 503.438119 130.555703 
L 503.661431 132.81856 
L 503.884742 132.81856 
L 504.108054 134.766832 
L 504.331366 132.81856 
L 504.777989 137.344275 
L 505.001301 132.503975 
L 505.224612 135.081418 
L 505.447924 132.18939 
L 505.671236 134.766832 
L 505.894547 134.766832 
L 506.341171 130.241118 
L 506.564482 139.921717 
L 506.787794 132.81856 
L 507.011106 135.081418 
L 507.234417 139.607132 
L 507.457729 147.024874 
L 507.681041 139.607132 
L 507.904352 139.607132 
L 508.127664 148.65856 
L 508.350975 144.132846 
L 508.574287 142.184574 
L 508.797599 153.813445 
L 509.02091 144.447431 
L 509.244222 144.447431 
L 509.467534 148.973146 
L 509.690845 150.921418 
L 509.914157 164.813146 
L 510.137469 159.972846 
L 510.36078 144.447431 
L 510.584092 141.869989 
L 510.807404 149.624535 
L 511.030715 152.201978 
L 511.254027 151.887393 
L 511.477339 149.287731 
L 511.70065 149.624535 
L 511.923962 138.31025 
L 512.147274 154.77942 
L 512.370585 139.292547 
L 512.593897 114.086533 
L 512.817209 116.34939 
L 513.04052 157.395404 
L 513.487144 157.395404 
L 513.710455 139.607132 
L 513.933767 142.184574 
L 514.157079 125.400819 
L 514.38039 132.81856 
L 514.603702 130.555703 
L 514.827014 123.452547 
L 515.050325 126.029989 
L 515.273637 116.663975 
L 515.72026 111.509091 
L 515.943572 111.509091 
L 516.166883 106.331986 
L 516.390195 97.617362 
L 516.613507 95.017701 
L 516.836818 54.623077 
L 517.06013 65.937362 
L 517.283442 165.503077 
L 517.506753 70.777662 
L 517.730065 75.932547 
L 517.953377 120.774551 
L 518.176688 106.638411 
L 518.4 140.638633 
L 518.4 140.638633 
" style="fill:none;stroke:#4c72b0;stroke-linecap:round;stroke-width:1.75;"/>
   </g>
   <g id="patch_3">
    <path d="M 72 356.4 
L 518.4 356.4 
" style="fill:none;"/>
   </g>
   <g id="patch_4">
    <path d="M 72 39.6 
L 518.4 39.6 
" style="fill:none;"/>
   </g>
   <g id="patch_5">
    <path d="M 72 356.4 
L 72 39.6 
" style="fill:none;"/>
   </g>
   <g id="patch_6">
    <path d="M 518.4 356.4 
L 518.4 39.6 
" style="fill:none;"/>
   </g>
   <g id="text_14">
    <!-- TF - 0.009819148696560519 * FG -->
    <defs>
     <path d="M 5.03125 34.71875 
Q 5.03125 42.78125 7.203125 49.265625 
Q 9.375 55.765625 13.6875 60.328125 
Q 18.015625 64.890625 24.40625 67.359375 
Q 30.8125 69.828125 39.265625 69.828125 
Q 45.609375 69.828125 50.390625 68.703125 
Q 55.171875 67.578125 58.6875 65.46875 
Q 62.203125 63.375 64.640625 60.375 
Q 67.09375 57.375 68.796875 53.609375 
L 59.90625 50.984375 
Q 58.640625 53.515625 56.859375 55.59375 
Q 55.078125 57.671875 52.53125 59.125 
Q 50 60.59375 46.65625 61.390625 
Q 43.3125 62.203125 39.015625 62.203125 
Q 32.765625 62.203125 28.140625 60.25 
Q 23.53125 58.296875 20.5 54.6875 
Q 17.484375 51.078125 15.984375 46 
Q 14.5 40.921875 14.5 34.71875 
Q 14.5 28.515625 16.109375 23.359375 
Q 17.71875 18.21875 20.890625 14.484375 
Q 24.078125 10.75 28.78125 8.671875 
Q 33.5 6.59375 39.703125 6.59375 
Q 43.75 6.59375 47.171875 7.265625 
Q 50.59375 7.953125 53.34375 9.046875 
Q 56.109375 10.15625 58.203125 11.5 
Q 60.296875 12.84375 61.71875 14.203125 
L 61.71875 26.609375 
L 41.15625 26.609375 
L 41.15625 34.421875 
L 70.3125 34.421875 
L 70.3125 10.6875 
Q 68.015625 8.34375 64.90625 6.21875 
Q 61.8125 4.109375 57.953125 2.484375 
Q 54.109375 0.875 49.515625 -0.046875 
Q 44.921875 -0.984375 39.703125 -0.984375 
Q 31 -0.984375 24.5 1.671875 
Q 18.015625 4.34375 13.6875 9.109375 
Q 9.375 13.875 7.203125 20.40625 
Q 5.03125 26.953125 5.03125 34.71875 
" id="LiberationSans-47"/>
     <path d="M 17.53125 61.1875 
L 17.53125 35.59375 
L 55.90625 35.59375 
L 55.90625 27.875 
L 17.53125 27.875 
L 17.53125 0 
L 8.203125 0 
L 8.203125 68.796875 
L 57.078125 68.796875 
L 57.078125 61.1875 
z
" id="LiberationSans-46"/>
     <path d="M 35.15625 61.1875 
L 35.15625 0 
L 25.875 0 
L 25.875 61.1875 
L 2.25 61.1875 
L 2.25 68.796875 
L 58.796875 68.796875 
L 58.796875 61.1875 
z
" id="LiberationSans-54"/>
     <path d="M 22.265625 54.390625 
L 35.15625 59.421875 
L 37.359375 52.984375 
L 23.578125 49.421875 
L 32.625 37.203125 
L 26.8125 33.6875 
L 19.484375 46.296875 
L 11.859375 33.796875 
L 6.0625 37.3125 
L 15.28125 49.421875 
L 1.609375 52.984375 
L 3.8125 59.515625 
L 16.84375 54.296875 
L 16.265625 68.796875 
L 22.90625 68.796875 
z
" id="LiberationSans-2a"/>
    </defs>
    <g style="fill:#262626;" transform="translate(203.476875 34.6)scale(0.12 -0.12)">
     <use xlink:href="#LiberationSans-54"/>
     <use x="61.083984375" xlink:href="#LiberationSans-46"/>
     <use x="122.16796875" xlink:href="#LiberationSans-20"/>
     <use x="149.951171875" xlink:href="#LiberationSans-2d"/>
     <use x="183.251953125" xlink:href="#LiberationSans-20"/>
     <use x="211.03515625" xlink:href="#LiberationSans-30"/>
     <use x="266.650390625" xlink:href="#LiberationSans-2e"/>
     <use x="294.43359375" xlink:href="#LiberationSans-30"/>
     <use x="350.048828125" xlink:href="#LiberationSans-30"/>
     <use x="405.6640625" xlink:href="#LiberationSans-39"/>
     <use x="461.279296875" xlink:href="#LiberationSans-38"/>
     <use x="516.89453125" xlink:href="#LiberationSans-31"/>
     <use x="572.509765625" xlink:href="#LiberationSans-39"/>
     <use x="628.125" xlink:href="#LiberationSans-31"/>
     <use x="683.740234375" xlink:href="#LiberationSans-34"/>
     <use x="739.35546875" xlink:href="#LiberationSans-38"/>
     <use x="794.970703125" xlink:href="#LiberationSans-36"/>
     <use x="850.5859375" xlink:href="#LiberationSans-39"/>
     <use x="906.201171875" xlink:href="#LiberationSans-36"/>
     <use x="961.81640625" xlink:href="#LiberationSans-35"/>
     <use x="1017.431640625" xlink:href="#LiberationSans-36"/>
     <use x="1073.046875" xlink:href="#LiberationSans-30"/>
     <use x="1128.662109375" xlink:href="#LiberationSans-35"/>
     <use x="1184.27734375" xlink:href="#LiberationSans-31"/>
     <use x="1239.892578125" xlink:href="#LiberationSans-39"/>
     <use x="1295.5078125" xlink:href="#LiberationSans-20"/>
     <use x="1323.291015625" xlink:href="#LiberationSans-2a"/>
     <use x="1362.20703125" xlink:href="#LiberationSans-20"/>
     <use x="1389.990234375" xlink:href="#LiberationSans-46"/>
     <use x="1451.07421875" xlink:href="#LiberationSans-47"/>
    </g>
   </g>
  </g>
 </g>
 <defs>
  <clipPath id="pe5e2a6dcf0">
   <rect height="316.8" width="446.4" x="72.0" y="39.6"/>
  </clipPath>
 </defs>
</svg>
