<?xml version="1.0" encoding="utf-8" standalone="no"?>
<!DOCTYPE svg PUBLIC "-//W3C//DTD SVG 1.1//EN"
  "http://www.w3.org/Graphics/SVG/1.1/DTD/svg11.dtd">
<!-- Created with matplotlib (http://matplotlib.org/) -->
<svg height="396pt" version="1.1" viewBox="0 0 576 396" width="576pt" xmlns="http://www.w3.org/2000/svg" xmlns:xlink="http://www.w3.org/1999/xlink">
 <defs>
  <style type="text/css">
*{stroke-linecap:butt;stroke-linejoin:round;stroke-miterlimit:100000;}
  </style>
 </defs>
 <g id="figure_1">
  <g id="patch_1">
   <path d="M 0 396 
L 576 396 
L 576 0 
L 0 0 
z
" style="fill:#ffffff;"/>
  </g>
  <g id="axes_1">
   <g id="patch_2">
    <path d="M 72 356.4 
L 518.4 356.4 
L 518.4 39.6 
L 72 39.6 
z
" style="fill:#eaeaf2;"/>
   </g>
   <g id="matplotlib.axis_1">
    <g id="xtick_1">
     <g id="line2d_1">
      <path clip-path="url(#p4ee63edd96)" d="M 72 356.4 
L 72 39.6 
" style="fill:none;stroke:#ffffff;stroke-linecap:round;"/>
     </g>
     <g id="line2d_2"/>
     <g id="line2d_3"/>
     <g id="text_1">
      <!-- 2015-12-02 10:35:00 -->
      <defs>
       <path d="M 5.03125 0 
L 5.03125 6.203125 
Q 7.515625 11.921875 11.109375 16.28125 
Q 14.703125 20.65625 18.65625 24.1875 
Q 22.609375 27.734375 26.484375 30.765625 
Q 30.375 33.796875 33.5 36.8125 
Q 36.625 39.84375 38.546875 43.15625 
Q 40.484375 46.484375 40.484375 50.6875 
Q 40.484375 53.609375 39.59375 55.828125 
Q 38.71875 58.0625 37.0625 59.5625 
Q 35.40625 61.078125 33.078125 61.828125 
Q 30.765625 62.59375 27.9375 62.59375 
Q 25.296875 62.59375 22.96875 61.859375 
Q 20.65625 61.140625 18.84375 59.671875 
Q 17.046875 58.203125 15.890625 56.03125 
Q 14.75 53.859375 14.40625 50.984375 
L 5.421875 51.8125 
Q 5.859375 55.515625 7.46875 58.78125 
Q 9.078125 62.0625 11.90625 64.53125 
Q 14.75 67 18.71875 68.40625 
Q 22.703125 69.828125 27.9375 69.828125 
Q 33.0625 69.828125 37.0625 68.609375 
Q 41.0625 67.390625 43.8125 64.984375 
Q 46.578125 62.59375 48.046875 59.078125 
Q 49.515625 55.5625 49.515625 50.984375 
Q 49.515625 47.515625 48.265625 44.390625 
Q 47.015625 41.265625 44.9375 38.421875 
Q 42.875 35.59375 40.140625 32.953125 
Q 37.40625 30.328125 34.421875 27.8125 
Q 31.453125 25.296875 28.421875 22.828125 
Q 25.390625 20.359375 22.71875 17.859375 
Q 20.0625 15.375 17.96875 12.8125 
Q 15.875 10.25 14.703125 7.46875 
L 50.59375 7.46875 
L 50.59375 0 
z
" id="LiberationSans-32"/>
       <path d="M 7.625 0 
L 7.625 7.46875 
L 25.140625 7.46875 
L 25.140625 60.40625 
L 9.625 49.3125 
L 9.625 57.625 
L 25.875 68.796875 
L 33.984375 68.796875 
L 33.984375 7.46875 
L 50.734375 7.46875 
L 50.734375 0 
z
" id="LiberationSans-31"/>
       <path d="M 51.703125 34.421875 
Q 51.703125 24.515625 49.828125 17.75 
Q 47.953125 10.984375 44.703125 6.8125 
Q 41.453125 2.640625 37.0625 0.828125 
Q 32.671875 -0.984375 27.6875 -0.984375 
Q 22.65625 -0.984375 18.3125 0.828125 
Q 13.96875 2.640625 10.765625 6.78125 
Q 7.5625 10.9375 5.734375 17.703125 
Q 3.90625 24.46875 3.90625 34.421875 
Q 3.90625 44.828125 5.734375 51.640625 
Q 7.5625 58.453125 10.78125 62.5 
Q 14.015625 66.546875 18.40625 68.1875 
Q 22.796875 69.828125 27.984375 69.828125 
Q 32.90625 69.828125 37.21875 68.1875 
Q 41.546875 66.546875 44.765625 62.5 
Q 48 58.453125 49.84375 51.640625 
Q 51.703125 44.828125 51.703125 34.421875 
M 42.78125 34.421875 
Q 42.78125 42.625 41.796875 48.0625 
Q 40.828125 53.515625 38.921875 56.765625 
Q 37.015625 60.015625 34.25 61.359375 
Q 31.5 62.703125 27.984375 62.703125 
Q 24.265625 62.703125 21.4375 61.328125 
Q 18.609375 59.96875 16.671875 56.71875 
Q 14.75 53.46875 13.765625 48.015625 
Q 12.796875 42.578125 12.796875 34.421875 
Q 12.796875 26.515625 13.796875 21.09375 
Q 14.796875 15.671875 16.71875 12.375 
Q 18.65625 9.078125 21.4375 7.640625 
Q 24.21875 6.203125 27.78125 6.203125 
Q 31.25 6.203125 34.03125 7.640625 
Q 36.8125 9.078125 38.734375 12.375 
Q 40.671875 15.671875 41.71875 21.09375 
Q 42.78125 26.515625 42.78125 34.421875 
" id="LiberationSans-30"/>
       <path d="M 9.125 42.71875 
L 9.125 52.828125 
L 18.65625 52.828125 
L 18.65625 42.71875 
z
M 9.125 0 
L 9.125 10.109375 
L 18.65625 10.109375 
L 18.65625 0 
z
" id="LiberationSans-3a"/>
       <path d="M 51.21875 19 
Q 51.21875 14.265625 49.671875 10.546875 
Q 48.140625 6.84375 45.1875 4.265625 
Q 42.234375 1.703125 37.859375 0.359375 
Q 33.5 -0.984375 27.875 -0.984375 
Q 21.484375 -0.984375 17.109375 0.609375 
Q 12.75 2.203125 9.90625 4.8125 
Q 7.078125 7.421875 5.65625 10.765625 
Q 4.25 14.109375 3.8125 17.671875 
L 12.890625 18.5 
Q 13.28125 15.765625 14.328125 13.515625 
Q 15.375 11.28125 17.1875 9.671875 
Q 19 8.0625 21.625 7.171875 
Q 24.265625 6.296875 27.875 6.296875 
Q 34.515625 6.296875 38.296875 9.5625 
Q 42.09375 12.84375 42.09375 19.28125 
Q 42.09375 23.09375 40.40625 25.40625 
Q 38.71875 27.734375 36.203125 29.03125 
Q 33.6875 30.328125 30.734375 30.765625 
Q 27.78125 31.203125 25.296875 31.203125 
L 20.3125 31.203125 
L 20.3125 38.8125 
L 25.09375 38.8125 
Q 27.59375 38.8125 30.265625 39.328125 
Q 32.953125 39.84375 35.171875 41.1875 
Q 37.40625 42.53125 38.84375 44.828125 
Q 40.28125 47.125 40.28125 50.6875 
Q 40.28125 56.203125 37.03125 59.390625 
Q 33.796875 62.59375 27.390625 62.59375 
Q 21.578125 62.59375 17.984375 59.609375 
Q 14.40625 56.640625 13.8125 51.21875 
L 4.984375 51.90625 
Q 5.515625 56.453125 7.46875 59.8125 
Q 9.421875 63.1875 12.421875 65.40625 
Q 15.4375 67.625 19.28125 68.71875 
Q 23.140625 69.828125 27.484375 69.828125 
Q 33.25 69.828125 37.390625 68.375 
Q 41.546875 66.9375 44.1875 64.46875 
Q 46.828125 62.015625 48.0625 58.6875 
Q 49.3125 55.375 49.3125 51.609375 
Q 49.3125 48.578125 48.484375 45.9375 
Q 47.65625 43.3125 45.890625 41.203125 
Q 44.140625 39.109375 41.421875 37.59375 
Q 38.71875 36.078125 34.90625 35.296875 
L 34.90625 35.109375 
Q 39.0625 34.671875 42.140625 33.21875 
Q 45.21875 31.78125 47.21875 29.625 
Q 49.21875 27.484375 50.21875 24.75 
Q 51.21875 22.015625 51.21875 19 
" id="LiberationSans-33"/>
       <path d="M 51.421875 22.40625 
Q 51.421875 17.234375 49.859375 12.9375 
Q 48.296875 8.640625 45.21875 5.53125 
Q 42.140625 2.4375 37.578125 0.71875 
Q 33.015625 -0.984375 27 -0.984375 
Q 21.578125 -0.984375 17.546875 0.28125 
Q 13.53125 1.5625 10.734375 3.78125 
Q 7.953125 6 6.3125 8.984375 
Q 4.6875 11.96875 4 15.375 
L 12.890625 16.40625 
Q 13.421875 14.453125 14.390625 12.625 
Q 15.375 10.796875 17.0625 9.34375 
Q 18.75 7.90625 21.21875 7.046875 
Q 23.6875 6.203125 27.203125 6.203125 
Q 30.609375 6.203125 33.390625 7.25 
Q 36.1875 8.296875 38.15625 10.34375 
Q 40.140625 12.40625 41.203125 15.375 
Q 42.28125 18.359375 42.28125 22.21875 
Q 42.28125 25.390625 41.25 28.046875 
Q 40.234375 30.71875 38.328125 32.640625 
Q 36.421875 34.578125 33.65625 35.640625 
Q 30.90625 36.71875 27.390625 36.71875 
Q 25.203125 36.71875 23.34375 36.328125 
Q 21.484375 35.9375 19.890625 35.25 
Q 18.3125 34.578125 17.015625 33.671875 
Q 15.71875 32.765625 14.59375 31.78125 
L 6 31.78125 
L 8.296875 68.796875 
L 47.40625 68.796875 
L 47.40625 61.328125 
L 16.3125 61.328125 
L 14.984375 39.5 
Q 17.328125 41.3125 20.84375 42.59375 
Q 24.359375 43.890625 29.203125 43.890625 
Q 34.328125 43.890625 38.421875 42.328125 
Q 42.53125 40.765625 45.40625 37.90625 
Q 48.296875 35.0625 49.859375 31.109375 
Q 51.421875 27.15625 51.421875 22.40625 
" id="LiberationSans-35"/>
       <path id="LiberationSans-20"/>
       <path d="M 4.4375 22.65625 
L 4.4375 30.46875 
L 28.859375 30.46875 
L 28.859375 22.65625 
z
" id="LiberationSans-2d"/>
      </defs>
      <g style="fill:#262626;" transform="translate(25.5765625 370.646875)scale(0.1 -0.1)">
       <use xlink:href="#LiberationSans-32"/>
       <use x="55.615234375" xlink:href="#LiberationSans-30"/>
       <use x="111.23046875" xlink:href="#LiberationSans-31"/>
       <use x="166.845703125" xlink:href="#LiberationSans-35"/>
       <use x="222.4609375" xlink:href="#LiberationSans-2d"/>
       <use x="255.76171875" xlink:href="#LiberationSans-31"/>
       <use x="311.376953125" xlink:href="#LiberationSans-32"/>
       <use x="366.9921875" xlink:href="#LiberationSans-2d"/>
       <use x="400.29296875" xlink:href="#LiberationSans-30"/>
       <use x="455.908203125" xlink:href="#LiberationSans-32"/>
       <use x="511.5234375" xlink:href="#LiberationSans-20"/>
       <use x="539.306640625" xlink:href="#LiberationSans-31"/>
       <use x="594.921875" xlink:href="#LiberationSans-30"/>
       <use x="650.537109375" xlink:href="#LiberationSans-3a"/>
       <use x="678.3203125" xlink:href="#LiberationSans-33"/>
       <use x="733.935546875" xlink:href="#LiberationSans-35"/>
       <use x="789.55078125" xlink:href="#LiberationSans-3a"/>
       <use x="817.333984375" xlink:href="#LiberationSans-30"/>
       <use x="872.94921875" xlink:href="#LiberationSans-30"/>
      </g>
     </g>
    </g>
    <g id="xtick_2">
     <g id="line2d_4">
      <path clip-path="url(#p4ee63edd96)" d="M 183.655828 356.4 
L 183.655828 39.6 
" style="fill:none;stroke:#ffffff;stroke-linecap:round;"/>
     </g>
     <g id="line2d_5"/>
     <g id="line2d_6"/>
     <g id="text_2">
      <!-- 2015-12-04 09:55:00 -->
      <defs>
       <path d="M 50.875 35.796875 
Q 50.875 26.609375 49.140625 19.703125 
Q 47.40625 12.796875 44.1875 8.203125 
Q 40.96875 3.609375 36.34375 1.3125 
Q 31.734375 -0.984375 25.984375 -0.984375 
Q 22.015625 -0.984375 18.84375 -0.171875 
Q 15.671875 0.640625 13.171875 2.34375 
Q 10.6875 4.046875 8.921875 6.78125 
Q 7.171875 9.515625 6.109375 13.375 
L 14.5 14.703125 
Q 15.875 10.25 18.78125 8.171875 
Q 21.6875 6.109375 26.125 6.109375 
Q 29.6875 6.109375 32.640625 7.78125 
Q 35.59375 9.46875 37.671875 12.84375 
Q 39.75 16.21875 40.921875 21.296875 
Q 42.09375 26.375 42.1875 33.203125 
Q 41.15625 30.90625 39.375 29.09375 
Q 37.59375 27.296875 35.328125 26.046875 
Q 33.0625 24.8125 30.421875 24.140625 
Q 27.78125 23.484375 25.09375 23.484375 
Q 20.40625 23.484375 16.625 25.171875 
Q 12.84375 26.859375 10.203125 29.875 
Q 7.5625 32.90625 6.125 37.171875 
Q 4.6875 41.453125 4.6875 46.6875 
Q 4.6875 52 6.21875 56.296875 
Q 7.765625 60.59375 10.6875 63.59375 
Q 13.625 66.609375 17.890625 68.21875 
Q 22.171875 69.828125 27.59375 69.828125 
Q 39.0625 69.828125 44.96875 61.328125 
Q 50.875 52.828125 50.875 35.796875 
M 41.3125 44.28125 
Q 41.3125 48.09375 40.40625 51.453125 
Q 39.5 54.828125 37.71875 57.3125 
Q 35.9375 59.8125 33.328125 61.25 
Q 30.71875 62.703125 27.296875 62.703125 
Q 24.125 62.703125 21.578125 61.578125 
Q 19.046875 60.453125 17.28125 58.375 
Q 15.53125 56.296875 14.578125 53.3125 
Q 13.625 50.34375 13.625 46.6875 
Q 13.625 43.21875 14.46875 40.234375 
Q 15.328125 37.25 17.03125 35.078125 
Q 18.75 32.90625 21.28125 31.65625 
Q 23.828125 30.421875 27.203125 30.421875 
Q 29.640625 30.421875 32.15625 31.25 
Q 34.671875 32.078125 36.6875 33.78125 
Q 38.71875 35.5 40.015625 38.109375 
Q 41.3125 40.71875 41.3125 44.28125 
" id="LiberationSans-39"/>
       <path d="M 43.015625 15.578125 
L 43.015625 0 
L 34.71875 0 
L 34.71875 15.578125 
L 2.296875 15.578125 
L 2.296875 22.40625 
L 33.796875 68.796875 
L 43.015625 68.796875 
L 43.015625 22.515625 
L 52.6875 22.515625 
L 52.6875 15.578125 
z
M 34.71875 58.890625 
Q 34.625 58.640625 34.234375 57.9375 
Q 33.84375 57.234375 33.34375 56.34375 
Q 32.859375 55.46875 32.34375 54.5625 
Q 31.84375 53.65625 31.453125 53.078125 
L 13.8125 27.09375 
Q 13.578125 26.703125 13.109375 26.0625 
Q 12.640625 25.4375 12.15625 24.78125 
Q 11.671875 24.125 11.171875 23.484375 
Q 10.6875 22.859375 10.40625 22.515625 
L 34.71875 22.515625 
z
" id="LiberationSans-34"/>
      </defs>
      <g style="fill:#262626;" transform="translate(137.232390414 370.646875)scale(0.1 -0.1)">
       <use xlink:href="#LiberationSans-32"/>
       <use x="55.615234375" xlink:href="#LiberationSans-30"/>
       <use x="111.23046875" xlink:href="#LiberationSans-31"/>
       <use x="166.845703125" xlink:href="#LiberationSans-35"/>
       <use x="222.4609375" xlink:href="#LiberationSans-2d"/>
       <use x="255.76171875" xlink:href="#LiberationSans-31"/>
       <use x="311.376953125" xlink:href="#LiberationSans-32"/>
       <use x="366.9921875" xlink:href="#LiberationSans-2d"/>
       <use x="400.29296875" xlink:href="#LiberationSans-30"/>
       <use x="455.908203125" xlink:href="#LiberationSans-34"/>
       <use x="511.5234375" xlink:href="#LiberationSans-20"/>
       <use x="539.306640625" xlink:href="#LiberationSans-30"/>
       <use x="594.921875" xlink:href="#LiberationSans-39"/>
       <use x="650.537109375" xlink:href="#LiberationSans-3a"/>
       <use x="678.3203125" xlink:href="#LiberationSans-35"/>
       <use x="733.935546875" xlink:href="#LiberationSans-35"/>
       <use x="789.55078125" xlink:href="#LiberationSans-3a"/>
       <use x="817.333984375" xlink:href="#LiberationSans-30"/>
       <use x="872.94921875" xlink:href="#LiberationSans-30"/>
      </g>
     </g>
    </g>
    <g id="xtick_3">
     <g id="line2d_7">
      <path clip-path="url(#p4ee63edd96)" d="M 295.311656 356.4 
L 295.311656 39.6 
" style="fill:none;stroke:#ffffff;stroke-linecap:round;"/>
     </g>
     <g id="line2d_8"/>
     <g id="line2d_9"/>
     <g id="text_3">
      <!-- 2015-12-08 10:10:00 -->
      <defs>
       <path d="M 51.265625 19.1875 
Q 51.265625 14.796875 49.875 11.109375 
Q 48.484375 7.421875 45.625 4.734375 
Q 42.78125 2.046875 38.328125 0.53125 
Q 33.890625 -0.984375 27.828125 -0.984375 
Q 21.78125 -0.984375 17.359375 0.53125 
Q 12.9375 2.046875 10.03125 4.703125 
Q 7.125 7.375 5.734375 11.0625 
Q 4.34375 14.75 4.34375 19.09375 
Q 4.34375 22.859375 5.484375 25.78125 
Q 6.640625 28.71875 8.5625 30.828125 
Q 10.5 32.953125 12.96875 34.25 
Q 15.4375 35.546875 18.0625 35.984375 
L 18.0625 36.1875 
Q 15.1875 36.859375 12.90625 38.375 
Q 10.640625 39.890625 9.09375 42.015625 
Q 7.5625 44.140625 6.75 46.71875 
Q 5.953125 49.3125 5.953125 52.203125 
Q 5.953125 55.8125 7.34375 59 
Q 8.734375 62.203125 11.46875 64.625 
Q 14.203125 67.046875 18.25 68.4375 
Q 22.3125 69.828125 27.640625 69.828125 
Q 33.25 69.828125 37.375 68.40625 
Q 41.5 67 44.203125 64.578125 
Q 46.921875 62.15625 48.234375 58.9375 
Q 49.5625 55.71875 49.5625 52.09375 
Q 49.5625 49.265625 48.75 46.671875 
Q 47.953125 44.09375 46.40625 41.96875 
Q 44.875 39.84375 42.59375 38.34375 
Q 40.328125 36.859375 37.359375 36.28125 
L 37.359375 36.078125 
Q 40.328125 35.59375 42.859375 34.296875 
Q 45.40625 33.015625 47.265625 30.890625 
Q 49.125 28.765625 50.1875 25.828125 
Q 51.265625 22.90625 51.265625 19.1875 
M 40.4375 51.609375 
Q 40.4375 54.203125 39.765625 56.34375 
Q 39.109375 58.5 37.59375 60.03125 
Q 36.078125 61.578125 33.640625 62.421875 
Q 31.203125 63.28125 27.640625 63.28125 
Q 24.171875 63.28125 21.78125 62.421875 
Q 19.390625 61.578125 17.84375 60.03125 
Q 16.3125 58.5 15.625 56.34375 
Q 14.9375 54.203125 14.9375 51.609375 
Q 14.9375 49.5625 15.46875 47.40625 
Q 16.015625 45.265625 17.421875 43.5 
Q 18.84375 41.75 21.328125 40.625 
Q 23.828125 39.5 27.734375 39.5 
Q 31.890625 39.5 34.40625 40.625 
Q 36.921875 41.75 38.25 43.5 
Q 39.59375 45.265625 40.015625 47.40625 
Q 40.4375 49.5625 40.4375 51.609375 
M 42.140625 20.015625 
Q 42.140625 22.515625 41.453125 24.828125 
Q 40.765625 27.15625 39.109375 28.9375 
Q 37.453125 30.71875 34.640625 31.8125 
Q 31.84375 32.90625 27.640625 32.90625 
Q 23.78125 32.90625 21.0625 31.8125 
Q 18.359375 30.71875 16.671875 28.90625 
Q 14.984375 27.09375 14.203125 24.71875 
Q 13.421875 22.359375 13.421875 19.828125 
Q 13.421875 16.65625 14.203125 14.03125 
Q 14.984375 11.421875 16.6875 9.546875 
Q 18.40625 7.671875 21.1875 6.640625 
Q 23.96875 5.609375 27.9375 5.609375 
Q 31.9375 5.609375 34.671875 6.640625 
Q 37.40625 7.671875 39.0625 9.546875 
Q 40.71875 11.421875 41.421875 14.078125 
Q 42.140625 16.75 42.140625 20.015625 
" id="LiberationSans-38"/>
      </defs>
      <g style="fill:#262626;" transform="translate(248.888218328 370.646875)scale(0.1 -0.1)">
       <use xlink:href="#LiberationSans-32"/>
       <use x="55.615234375" xlink:href="#LiberationSans-30"/>
       <use x="111.23046875" xlink:href="#LiberationSans-31"/>
       <use x="166.845703125" xlink:href="#LiberationSans-35"/>
       <use x="222.4609375" xlink:href="#LiberationSans-2d"/>
       <use x="255.76171875" xlink:href="#LiberationSans-31"/>
       <use x="311.376953125" xlink:href="#LiberationSans-32"/>
       <use x="366.9921875" xlink:href="#LiberationSans-2d"/>
       <use x="400.29296875" xlink:href="#LiberationSans-30"/>
       <use x="455.908203125" xlink:href="#LiberationSans-38"/>
       <use x="511.5234375" xlink:href="#LiberationSans-20"/>
       <use x="539.306640625" xlink:href="#LiberationSans-31"/>
       <use x="594.921875" xlink:href="#LiberationSans-30"/>
       <use x="650.537109375" xlink:href="#LiberationSans-3a"/>
       <use x="678.3203125" xlink:href="#LiberationSans-31"/>
       <use x="733.935546875" xlink:href="#LiberationSans-30"/>
       <use x="789.55078125" xlink:href="#LiberationSans-3a"/>
       <use x="817.333984375" xlink:href="#LiberationSans-30"/>
       <use x="872.94921875" xlink:href="#LiberationSans-30"/>
      </g>
     </g>
    </g>
    <g id="xtick_4">
     <g id="line2d_10">
      <path clip-path="url(#p4ee63edd96)" d="M 406.967484 356.4 
L 406.967484 39.6 
" style="fill:none;stroke:#ffffff;stroke-linecap:round;"/>
     </g>
     <g id="line2d_11"/>
     <g id="line2d_12"/>
     <g id="text_4">
      <!-- 2015-12-10 11:19:00 -->
      <g style="fill:#262626;" transform="translate(360.544046242 370.646875)scale(0.1 -0.1)">
       <use xlink:href="#LiberationSans-32"/>
       <use x="55.615234375" xlink:href="#LiberationSans-30"/>
       <use x="111.23046875" xlink:href="#LiberationSans-31"/>
       <use x="166.845703125" xlink:href="#LiberationSans-35"/>
       <use x="222.4609375" xlink:href="#LiberationSans-2d"/>
       <use x="255.76171875" xlink:href="#LiberationSans-31"/>
       <use x="311.376953125" xlink:href="#LiberationSans-32"/>
       <use x="366.9921875" xlink:href="#LiberationSans-2d"/>
       <use x="400.29296875" xlink:href="#LiberationSans-31"/>
       <use x="455.908203125" xlink:href="#LiberationSans-30"/>
       <use x="511.5234375" xlink:href="#LiberationSans-20"/>
       <use x="539.306640625" xlink:href="#LiberationSans-31"/>
       <use x="594.921875" xlink:href="#LiberationSans-31"/>
       <use x="650.537109375" xlink:href="#LiberationSans-3a"/>
       <use x="678.3203125" xlink:href="#LiberationSans-31"/>
       <use x="733.935546875" xlink:href="#LiberationSans-39"/>
       <use x="789.55078125" xlink:href="#LiberationSans-3a"/>
       <use x="817.333984375" xlink:href="#LiberationSans-30"/>
       <use x="872.94921875" xlink:href="#LiberationSans-30"/>
      </g>
     </g>
    </g>
    <g id="text_5">
     <!-- time -->
     <defs>
      <path d="M 13.484375 24.5625 
Q 13.484375 20.40625 14.328125 16.90625 
Q 15.1875 13.421875 16.96875 10.90625 
Q 18.75 8.40625 21.53125 7 
Q 24.3125 5.609375 28.21875 5.609375 
Q 33.9375 5.609375 37.375 7.90625 
Q 40.828125 10.203125 42.046875 13.71875 
L 49.75 11.53125 
Q 48.921875 9.328125 47.4375 7.109375 
Q 45.953125 4.890625 43.453125 3.09375 
Q 40.96875 1.3125 37.234375 0.15625 
Q 33.5 -0.984375 28.21875 -0.984375 
Q 16.5 -0.984375 10.375 6 
Q 4.25 12.984375 4.25 26.765625 
Q 4.25 34.1875 6.09375 39.328125 
Q 7.953125 44.484375 11.171875 47.703125 
Q 14.40625 50.921875 18.703125 52.359375 
Q 23 53.8125 27.875 53.8125 
Q 34.515625 53.8125 38.984375 51.65625 
Q 43.453125 49.515625 46.15625 45.71875 
Q 48.875 41.9375 50.015625 36.8125 
Q 51.171875 31.6875 51.171875 25.734375 
L 51.171875 24.5625 
z
M 42.09375 31.296875 
Q 41.359375 39.65625 37.84375 43.484375 
Q 34.328125 47.3125 27.734375 47.3125 
Q 25.53125 47.3125 23.109375 46.609375 
Q 20.703125 45.90625 18.65625 44.09375 
Q 16.609375 42.28125 15.1875 39.171875 
Q 13.765625 36.078125 13.578125 31.296875 
z
" id="LiberationSans-65"/>
      <path d="M 6.6875 64.0625 
L 6.6875 72.46875 
L 15.484375 72.46875 
L 15.484375 64.0625 
z
M 6.6875 0 
L 6.6875 52.828125 
L 15.484375 52.828125 
L 15.484375 0 
z
" id="LiberationSans-69"/>
      <path d="M 27.046875 0.390625 
Q 25.046875 -0.140625 22.96875 -0.453125 
Q 20.90625 -0.78125 18.171875 -0.78125 
Q 7.625 -0.78125 7.625 11.1875 
L 7.625 46.4375 
L 1.515625 46.4375 
L 1.515625 52.828125 
L 7.953125 52.828125 
L 10.546875 64.65625 
L 16.40625 64.65625 
L 16.40625 52.828125 
L 26.171875 52.828125 
L 26.171875 46.4375 
L 16.40625 46.4375 
L 16.40625 13.09375 
Q 16.40625 9.28125 17.640625 7.734375 
Q 18.890625 6.203125 21.96875 6.203125 
Q 23.25 6.203125 24.4375 6.390625 
Q 25.640625 6.59375 27.046875 6.890625 
z
" id="LiberationSans-74"/>
      <path d="M 37.5 0 
L 37.5 33.5 
Q 37.5 37.359375 37.015625 39.9375 
Q 36.53125 42.53125 35.375 44.109375 
Q 34.234375 45.703125 32.375 46.359375 
Q 30.515625 47.015625 27.828125 47.015625 
Q 25.046875 47.015625 22.796875 45.921875 
Q 20.5625 44.828125 18.96875 42.75 
Q 17.390625 40.671875 16.53125 37.625 
Q 15.671875 34.578125 15.671875 30.609375 
L 15.671875 0 
L 6.9375 0 
L 6.9375 41.546875 
Q 6.9375 43.21875 6.90625 45.046875 
Q 6.890625 46.875 6.828125 48.5 
Q 6.78125 50.140625 6.734375 51.3125 
Q 6.6875 52.484375 6.640625 52.828125 
L 14.9375 52.828125 
Q 14.984375 52.59375 15.03125 51.515625 
Q 15.09375 50.4375 15.15625 49.046875 
Q 15.234375 47.65625 15.28125 46.21875 
Q 15.328125 44.78125 15.328125 43.796875 
L 15.484375 43.796875 
Q 16.65625 46.09375 18.015625 47.953125 
Q 19.390625 49.8125 21.21875 51.09375 
Q 23.046875 52.390625 25.40625 53.09375 
Q 27.78125 53.8125 30.90625 53.8125 
Q 36.921875 53.8125 40.40625 51.421875 
Q 43.890625 49.03125 45.265625 43.796875 
L 45.40625 43.796875 
Q 46.578125 46.09375 48.046875 47.953125 
Q 49.515625 49.8125 51.46875 51.09375 
Q 53.421875 52.390625 55.859375 53.09375 
Q 58.296875 53.8125 61.421875 53.8125 
Q 65.4375 53.8125 68.328125 52.734375 
Q 71.234375 51.65625 73.09375 49.40625 
Q 74.953125 47.171875 75.828125 43.625 
Q 76.703125 40.09375 76.703125 35.203125 
L 76.703125 0 
L 68.015625 0 
L 68.015625 33.5 
Q 68.015625 37.359375 67.53125 39.9375 
Q 67.046875 42.53125 65.890625 44.109375 
Q 64.75 45.703125 62.890625 46.359375 
Q 61.03125 47.015625 58.34375 47.015625 
Q 55.5625 47.015625 53.3125 45.96875 
Q 51.078125 44.921875 49.484375 42.875 
Q 47.90625 40.828125 47.046875 37.75 
Q 46.1875 34.671875 46.1875 30.609375 
L 46.1875 0 
z
" id="LiberationSans-6d"/>
     </defs>
     <g style="fill:#262626;" transform="translate(284.81015625 385.6934375)scale(0.11 -0.11)">
      <use xlink:href="#LiberationSans-74"/>
      <use x="27.783203125" xlink:href="#LiberationSans-69"/>
      <use x="50.0" xlink:href="#LiberationSans-6d"/>
      <use x="133.30078125" xlink:href="#LiberationSans-65"/>
     </g>
    </g>
   </g>
   <g id="matplotlib.axis_2">
    <g id="ytick_1">
     <g id="line2d_13">
      <path clip-path="url(#p4ee63edd96)" d="M 72 356.4 
L 518.4 356.4 
" style="fill:none;stroke:#ffffff;stroke-linecap:round;"/>
     </g>
     <g id="line2d_14"/>
     <g id="line2d_15"/>
     <g id="text_6">
      <!-- 1035 -->
      <g style="fill:#262626;" transform="translate(42.75625 358.9859375)scale(0.1 -0.1)">
       <use xlink:href="#LiberationSans-31"/>
       <use x="55.615234375" xlink:href="#LiberationSans-30"/>
       <use x="111.23046875" xlink:href="#LiberationSans-33"/>
       <use x="166.845703125" xlink:href="#LiberationSans-35"/>
      </g>
     </g>
    </g>
    <g id="ytick_2">
     <g id="line2d_16">
      <path clip-path="url(#p4ee63edd96)" d="M 72 316.8 
L 518.4 316.8 
" style="fill:none;stroke:#ffffff;stroke-linecap:round;"/>
     </g>
     <g id="line2d_17"/>
     <g id="line2d_18"/>
     <g id="text_7">
      <!-- 1040 -->
      <g style="fill:#262626;" transform="translate(42.75625 319.3859375)scale(0.1 -0.1)">
       <use xlink:href="#LiberationSans-31"/>
       <use x="55.615234375" xlink:href="#LiberationSans-30"/>
       <use x="111.23046875" xlink:href="#LiberationSans-34"/>
       <use x="166.845703125" xlink:href="#LiberationSans-30"/>
      </g>
     </g>
    </g>
    <g id="ytick_3">
     <g id="line2d_19">
      <path clip-path="url(#p4ee63edd96)" d="M 72 277.2 
L 518.4 277.2 
" style="fill:none;stroke:#ffffff;stroke-linecap:round;"/>
     </g>
     <g id="line2d_20"/>
     <g id="line2d_21"/>
     <g id="text_8">
      <!-- 1045 -->
      <g style="fill:#262626;" transform="translate(42.75625 279.7859375)scale(0.1 -0.1)">
       <use xlink:href="#LiberationSans-31"/>
       <use x="55.615234375" xlink:href="#LiberationSans-30"/>
       <use x="111.23046875" xlink:href="#LiberationSans-34"/>
       <use x="166.845703125" xlink:href="#LiberationSans-35"/>
      </g>
     </g>
    </g>
    <g id="ytick_4">
     <g id="line2d_22">
      <path clip-path="url(#p4ee63edd96)" d="M 72 237.6 
L 518.4 237.6 
" style="fill:none;stroke:#ffffff;stroke-linecap:round;"/>
     </g>
     <g id="line2d_23"/>
     <g id="line2d_24"/>
     <g id="text_9">
      <!-- 1050 -->
      <g style="fill:#262626;" transform="translate(42.75625 240.1859375)scale(0.1 -0.1)">
       <use xlink:href="#LiberationSans-31"/>
       <use x="55.615234375" xlink:href="#LiberationSans-30"/>
       <use x="111.23046875" xlink:href="#LiberationSans-35"/>
       <use x="166.845703125" xlink:href="#LiberationSans-30"/>
      </g>
     </g>
    </g>
    <g id="ytick_5">
     <g id="line2d_25">
      <path clip-path="url(#p4ee63edd96)" d="M 72 198 
L 518.4 198 
" style="fill:none;stroke:#ffffff;stroke-linecap:round;"/>
     </g>
     <g id="line2d_26"/>
     <g id="line2d_27"/>
     <g id="text_10">
      <!-- 1055 -->
      <g style="fill:#262626;" transform="translate(42.75625 200.5859375)scale(0.1 -0.1)">
       <use xlink:href="#LiberationSans-31"/>
       <use x="55.615234375" xlink:href="#LiberationSans-30"/>
       <use x="111.23046875" xlink:href="#LiberationSans-35"/>
       <use x="166.845703125" xlink:href="#LiberationSans-35"/>
      </g>
     </g>
    </g>
    <g id="ytick_6">
     <g id="line2d_28">
      <path clip-path="url(#p4ee63edd96)" d="M 72 158.4 
L 518.4 158.4 
" style="fill:none;stroke:#ffffff;stroke-linecap:round;"/>
     </g>
     <g id="line2d_29"/>
     <g id="line2d_30"/>
     <g id="text_11">
      <!-- 1060 -->
      <defs>
       <path d="M 51.21875 22.515625 
Q 51.21875 17.328125 49.78125 13 
Q 48.34375 8.6875 45.53125 5.578125 
Q 42.71875 2.484375 38.5625 0.75 
Q 34.421875 -0.984375 29 -0.984375 
Q 23 -0.984375 18.5 1.3125 
Q 14.015625 3.609375 11.03125 7.921875 
Q 8.0625 12.25 6.5625 18.53125 
Q 5.078125 24.8125 5.078125 32.8125 
Q 5.078125 42 6.765625 48.921875 
Q 8.453125 55.859375 11.625 60.5 
Q 14.796875 65.140625 19.359375 67.484375 
Q 23.921875 69.828125 29.6875 69.828125 
Q 33.203125 69.828125 36.28125 69.09375 
Q 39.359375 68.359375 41.875 66.71875 
Q 44.390625 65.09375 46.28125 62.40625 
Q 48.1875 59.71875 49.3125 55.8125 
L 40.921875 54.296875 
Q 39.546875 58.734375 36.546875 60.71875 
Q 33.546875 62.703125 29.59375 62.703125 
Q 25.984375 62.703125 23.046875 60.984375 
Q 20.125 59.28125 18.0625 55.875 
Q 16.015625 52.484375 14.90625 47.359375 
Q 13.8125 42.234375 13.8125 35.40625 
Q 16.21875 39.84375 20.5625 42.15625 
Q 24.90625 44.484375 30.515625 44.484375 
Q 35.203125 44.484375 39.015625 42.96875 
Q 42.828125 41.453125 45.53125 38.59375 
Q 48.25 35.75 49.734375 31.671875 
Q 51.21875 27.59375 51.21875 22.515625 
M 42.28125 22.125 
Q 42.28125 25.6875 41.40625 28.5625 
Q 40.53125 31.453125 38.765625 33.46875 
Q 37.015625 35.5 34.421875 36.59375 
Q 31.84375 37.703125 28.421875 37.703125 
Q 26.03125 37.703125 23.578125 36.984375 
Q 21.140625 36.28125 19.15625 34.6875 
Q 17.1875 33.109375 15.9375 30.515625 
Q 14.703125 27.9375 14.703125 24.21875 
Q 14.703125 20.40625 15.671875 17.109375 
Q 16.65625 13.8125 18.484375 11.375 
Q 20.3125 8.9375 22.890625 7.515625 
Q 25.484375 6.109375 28.71875 6.109375 
Q 31.890625 6.109375 34.40625 7.203125 
Q 36.921875 8.296875 38.671875 10.375 
Q 40.4375 12.453125 41.359375 15.421875 
Q 42.28125 18.40625 42.28125 22.125 
" id="LiberationSans-36"/>
      </defs>
      <g style="fill:#262626;" transform="translate(42.75625 160.9859375)scale(0.1 -0.1)">
       <use xlink:href="#LiberationSans-31"/>
       <use x="55.615234375" xlink:href="#LiberationSans-30"/>
       <use x="111.23046875" xlink:href="#LiberationSans-36"/>
       <use x="166.845703125" xlink:href="#LiberationSans-30"/>
      </g>
     </g>
    </g>
    <g id="ytick_7">
     <g id="line2d_31">
      <path clip-path="url(#p4ee63edd96)" d="M 72 118.8 
L 518.4 118.8 
" style="fill:none;stroke:#ffffff;stroke-linecap:round;"/>
     </g>
     <g id="line2d_32"/>
     <g id="line2d_33"/>
     <g id="text_12">
      <!-- 1065 -->
      <g style="fill:#262626;" transform="translate(42.75625 121.3859375)scale(0.1 -0.1)">
       <use xlink:href="#LiberationSans-31"/>
       <use x="55.615234375" xlink:href="#LiberationSans-30"/>
       <use x="111.23046875" xlink:href="#LiberationSans-36"/>
       <use x="166.845703125" xlink:href="#LiberationSans-35"/>
      </g>
     </g>
    </g>
    <g id="ytick_8">
     <g id="line2d_34">
      <path clip-path="url(#p4ee63edd96)" d="M 72 79.2 
L 518.4 79.2 
" style="fill:none;stroke:#ffffff;stroke-linecap:round;"/>
     </g>
     <g id="line2d_35"/>
     <g id="line2d_36"/>
     <g id="text_13">
      <!-- 1070 -->
      <defs>
       <path d="M 50.59375 61.671875 
Q 45.40625 53.765625 41.0625 46.453125 
Q 36.71875 39.15625 33.59375 31.75 
Q 30.46875 24.359375 28.734375 16.578125 
Q 27 8.796875 27 0 
L 17.828125 0 
Q 17.828125 8.25 19.78125 16.1875 
Q 21.734375 24.125 25.046875 31.765625 
Q 28.375 39.40625 32.765625 46.78125 
Q 37.15625 54.15625 42.09375 61.328125 
L 5.125 61.328125 
L 5.125 68.796875 
L 50.59375 68.796875 
z
" id="LiberationSans-37"/>
      </defs>
      <g style="fill:#262626;" transform="translate(42.75625 81.7859375)scale(0.1 -0.1)">
       <use xlink:href="#LiberationSans-31"/>
       <use x="55.615234375" xlink:href="#LiberationSans-30"/>
       <use x="111.23046875" xlink:href="#LiberationSans-37"/>
       <use x="166.845703125" xlink:href="#LiberationSans-30"/>
      </g>
     </g>
    </g>
    <g id="ytick_9">
     <g id="line2d_37">
      <path clip-path="url(#p4ee63edd96)" d="M 72 39.6 
L 518.4 39.6 
" style="fill:none;stroke:#ffffff;stroke-linecap:round;"/>
     </g>
     <g id="line2d_38"/>
     <g id="line2d_39"/>
     <g id="text_14">
      <!-- 1075 -->
      <g style="fill:#262626;" transform="translate(42.75625 42.1859375)scale(0.1 -0.1)">
       <use xlink:href="#LiberationSans-31"/>
       <use x="55.615234375" xlink:href="#LiberationSans-30"/>
       <use x="111.23046875" xlink:href="#LiberationSans-37"/>
       <use x="166.845703125" xlink:href="#LiberationSans-35"/>
      </g>
     </g>
    </g>
   </g>
   <g id="line2d_40">
    <path clip-path="url(#p4ee63edd96)" d="M 72 117.868143 
L 72.223312 111.847559 
L 72.446623 111.847559 
L 72.669935 91.966186 
L 72.893247 98.856586 
L 73.33987 117.868143 
L 73.786493 117.868143 
L 74.009805 137.749516 
L 74.233117 141.161442 
L 75.126363 141.161442 
L 75.349675 154.073214 
L 75.796298 164.45474 
L 76.242921 147.98687 
L 76.912856 173.019011 
L 77.136168 172.163423 
L 77.35948 173.836506 
L 77.582791 159.976506 
L 77.806103 157.433607 
L 78.029415 152.28205 
L 78.252726 165.193823 
L 78.476038 158.303423 
L 78.69935 156.56458 
L 78.922661 164.324007 
L 79.145973 151.413023 
L 79.369285 160.042266 
L 79.592596 152.28205 
L 79.815908 153.151866 
L 80.03922 173.03245 
L 80.262531 166.06285 
L 80.709155 179.92285 
L 80.932466 174.706321 
L 81.155778 185.944223 
L 81.37909 185.074407 
L 81.602401 176.445164 
L 81.825713 156.56458 
L 82.049025 164.324007 
L 82.272336 162.585164 
L 82.495648 163.45498 
L 82.718959 166.06285 
L 82.942271 170.42458 
L 83.388894 190.225964 
L 83.612206 185.074407 
L 83.835518 185.944223 
L 84.058829 185.074407 
L 84.282141 190.225964 
L 84.728764 177.31498 
L 84.952076 173.836506 
L 85.175388 178.988063 
L 85.398699 173.836506 
L 85.622011 161.715349 
L 86.068634 159.976506 
L 86.291946 160.846321 
L 86.515258 155.694764 
L 86.738569 155.694764 
L 86.961881 154.824949 
L 87.185193 155.694764 
L 87.408504 147.934549 
L 87.631816 150.543207 
L 87.855128 149.67418 
L 88.078439 141.913964 
L 88.301751 142.78378 
L 88.748374 162.585164 
L 88.971686 156.56458 
L 89.194997 157.433607 
L 89.418309 161.715349 
L 89.641621 160.846321 
L 89.864932 155.694764 
L 90.088244 153.955921 
L 90.534867 175.575349 
L 90.981491 172.097663 
L 91.204802 168.684949 
L 91.428114 157.433607 
L 91.651426 156.56458 
L 91.874737 134.944364 
L 92.098049 148.804364 
L 92.991296 122.03338 
L 93.437919 133.205521 
L 93.884542 133.205521 
L 94.107854 140.175121 
L 94.331166 141.044149 
L 94.777789 123.772223 
L 95.001101 124.64125 
L 95.224412 130.662623 
L 95.447724 125.511066 
L 95.671036 128.119725 
L 95.894347 132.401466 
L 96.117659 139.291866 
L 96.34097 132.401466 
L 96.564282 148.000309 
L 96.787594 136.683207 
L 97.010905 142.78378 
L 97.457529 132.401466 
L 97.68084 109.042407 
L 97.904152 119.424721 
L 98.350775 116.816063 
L 99.02071 127.184149 
L 99.244022 123.772223 
L 99.913957 138.42205 
L 100.36058 128.053964 
L 100.583892 134.074549 
L 100.807204 134.074549 
L 101.030515 133.205521 
L 101.253827 137.566463 
L 101.477139 134.957804 
L 101.70045 139.978628 
L 101.923762 164.206714 
L 102.147074 152.164757 
L 102.370385 133.1532 
L 102.593697 127.132616 
L 102.817009 108.121059 
L 103.04032 115.011459 
L 103.263632 109.859902 
L 103.486943 124.510518 
L 103.710255 121.097804 
L 104.156878 124.576278 
L 104.603502 146.999761 
L 105.273437 128.053964 
L 105.496748 128.92378 
L 105.72006 132.401466 
L 105.943372 109.108168 
L 106.613307 133.336254 
L 106.836618 137.617995 
L 107.05993 136.748968 
L 107.283242 166.998427 
L 107.506553 175.62767 
L 107.729865 212.780968 
L 107.953177 204.151725 
L 108.176488 201.543066 
L 108.623112 216.258654 
L 108.846423 205.890568 
L 109.293047 196.443042 
L 109.516358 196.443042 
L 109.73967 198.116913 
L 109.962981 210.23807 
L 110.186293 210.23807 
L 110.632916 224.01887 
L 110.856228 216.258654 
L 111.07954 213.649995 
L 111.302851 212.780968 
L 111.526163 224.836364 
L 111.972786 234.269663 
L 112.41941 203.216149 
L 112.642721 210.106549 
L 112.866033 210.924832 
L 113.312656 197.933859 
L 113.535968 210.055016 
L 113.75928 211.793859 
L 113.982591 221.292918 
L 114.205903 200.542518 
L 114.429215 198.803675 
L 114.875838 200.542518 
L 115.322461 185.891902 
L 115.545773 185.022875 
L 116.215708 204.824259 
L 116.43902 198.803675 
L 116.662331 204.824259 
L 117.108954 191.043459 
L 117.332266 193.586357 
L 117.555578 185.82693 
L 117.778889 182.348455 
L 118.002201 183.218271 
L 118.225513 178.870769 
L 118.448824 187.500012 
L 118.672136 187.500012 
L 118.895448 190.108671 
L 119.118759 196.129255 
L 119.342071 195.260228 
L 119.565383 193.521385 
L 119.788694 196.129255 
L 120.235318 181.479428 
L 120.681941 194.390412 
L 121.128564 194.390412 
L 121.351876 201.360012 
L 121.798499 189.238855 
L 122.021811 187.500012 
L 122.245123 193.521385 
L 122.468434 193.521385 
L 122.691746 199.621169 
L 122.915058 194.390412 
L 123.138369 202.229828 
L 123.361681 188.369828 
L 123.584992 194.390412 
L 123.808304 189.238855 
L 124.031616 188.369828 
L 124.254927 195.260228 
L 124.478239 188.369828 
L 124.924862 200.490985 
L 125.148174 206.511569 
L 125.371486 205.642542 
L 125.594797 205.642542 
L 125.818109 200.490985 
L 126.041421 201.360012 
L 126.264732 216.010628 
L 126.488044 209.989255 
L 126.711356 209.989255 
L 126.934667 208.250412 
L 127.381291 193.521385 
L 127.604602 200.490985 
L 127.827914 199.621169 
L 128.051226 207.381385 
L 128.274537 207.381385 
L 128.497849 200.490985 
L 128.721161 201.360012 
L 128.944472 200.490985 
L 129.167784 201.360012 
L 129.391096 194.390412 
L 129.614407 205.642542 
L 129.837719 206.511569 
L 130.061031 205.642542 
L 130.284342 213.401969 
L 130.507654 207.381385 
L 130.730965 206.511569 
L 130.954277 214.271785 
L 131.177589 205.642542 
L 131.4009 217.762911 
L 131.624212 210.793311 
L 131.847524 216.024068 
L 132.070835 230.674683 
L 132.294147 218.632726 
L 132.517459 216.010628 
L 132.74077 219.502542 
L 132.964082 215.140812 
L 133.187394 208.250412 
L 133.410705 209.120228 
L 133.857329 222.110412 
L 134.08064 216.010628 
L 134.527264 228.131785 
L 134.750575 227.261969 
L 134.973887 220.371569 
L 135.197199 220.371569 
L 135.42051 219.502542 
L 135.643822 220.371569 
L 135.867134 219.502542 
L 136.090445 213.350437 
L 136.313757 203.851378 
L 136.76038 207.329064 
L 136.983692 199.490437 
L 137.207004 207.329064 
L 137.430315 206.460037 
L 137.876938 220.240837 
L 138.10025 220.240837 
L 138.323562 240.991237 
L 138.770185 229.739896 
L 139.216808 245.338739 
L 139.44012 238.448339 
L 139.886743 266.958166 
L 140.110055 253.967982 
L 140.333367 263.46704 
L 140.556678 255.706825 
L 140.77999 261.727409 
L 141.003302 252.229139 
L 141.226613 253.967982 
L 141.449925 253.967982 
L 141.673237 260.858382 
L 142.11986 260.858382 
L 142.566483 247.946609 
L 143.013107 258.315483 
L 143.236418 266.944726 
L 143.45973 267.814542 
L 143.683042 258.380455 
L 143.906353 258.380455 
L 144.129665 273.031071 
L 144.352976 257.511428 
L 144.576288 258.380455 
L 144.7996 269.553385 
L 145.022911 269.553385 
L 145.246223 255.772585 
L 145.692846 268.683569 
L 146.13947 248.882185 
L 146.362781 251.490055 
L 146.586093 264.401828 
L 146.809405 260.054326 
L 147.032716 273.044511 
L 147.256028 277.32704 
L 147.47934 258.315483 
L 147.702651 265.205883 
L 147.925963 277.32704 
L 148.149275 268.697009 
L 148.595898 266.089139 
L 148.81921 259.988566 
L 149.042521 257.380696 
L 149.489145 261.727409 
L 149.712456 254.837009 
L 149.935768 259.988566 
L 150.382391 272.979539 
L 150.829015 255.641064 
L 151.052326 257.380696 
L 151.498949 264.350296 
L 151.722261 259.988566 
L 151.945573 253.098166 
L 152.168884 252.229139 
L 152.392196 266.089139 
L 153.062131 259.119539 
L 153.285443 263.48048 
L 153.508754 262.610664 
L 153.732066 260.871821 
L 154.178689 275.522437 
L 154.402001 276.391464 
L 154.848624 264.350296 
L 155.071936 283.281864 
L 155.295248 271.174935 
L 155.518559 271.174935 
L 155.741871 266.893194 
L 156.188494 281.543021 
L 156.411806 274.652621 
L 156.635118 288.512621 
L 156.858429 283.296092 
L 157.081741 282.426276 
L 157.305053 267.697249 
L 157.528364 266.827433 
L 157.751676 277.32704 
L 157.974987 269.566825 
L 158.198299 277.32704 
L 158.421611 295.455342 
L 158.644922 283.347625 
L 158.868234 254.033742 
L 159.091546 264.401828 
L 159.314857 251.490055 
L 159.538169 256.641612 
L 159.761481 273.044511 
L 159.984792 273.044511 
L 160.208104 266.944726 
L 160.431416 271.305668 
L 160.654727 268.697009 
L 160.878039 267.827982 
L 161.101351 269.501064 
L 161.324662 250.490296 
L 161.771286 252.359871 
L 161.994597 257.511428 
L 162.217909 250.621028 
L 162.441221 251.490055 
L 162.664532 248.882185 
L 162.887844 251.490055 
L 163.111156 241.977557 
L 163.334467 239.434659 
L 163.557779 242.913134 
L 163.781091 237.761577 
L 164.004402 245.521004 
L 164.227714 242.913134 
L 164.451026 224.719071 
L 164.674337 234.152369 
L 164.897649 234.152369 
L 165.12096 244.534683 
L 165.344272 271.305668 
L 165.567584 269.566825 
L 165.790895 276.457225 
L 166.014207 267.827982 
L 166.237519 316.139982 
L 166.46083 303.228209 
L 166.684142 304.098025 
L 166.907454 303.163237 
L 167.354077 285.903962 
L 167.577389 278.934362 
L 167.8007 278.131096 
L 168.024012 286.760339 
L 168.247324 278.131096 
L 168.470635 290.251464 
L 168.693947 283.281864 
L 168.917259 285.021496 
L 169.14057 277.26128 
L 169.363882 277.26128 
L 169.587194 271.240696 
L 169.810505 270.37088 
L 170.033817 277.26128 
L 170.257129 277.26128 
L 170.48044 278.131096 
L 170.703752 283.281864 
L 170.927064 272.979539 
L 171.150375 272.979539 
L 171.373687 272.109723 
L 171.596998 270.37088 
L 171.82031 271.240696 
L 172.043622 280.738966 
L 172.266933 275.522437 
L 172.490245 275.522437 
L 172.713557 281.543021 
L 172.936868 280.673994 
L 173.16018 281.543021 
L 173.606803 273.848566 
L 173.830115 265.219323 
L 174.053427 264.284535 
L 174.276738 279.130855 
L 174.723362 254.902769 
L 174.946673 259.184511 
L 175.169985 271.305668 
L 175.393297 277.32704 
L 175.83992 273.848566 
L 176.063232 266.089139 
L 176.286543 266.958166 
L 176.509855 284.15168 
L 176.733167 272.109723 
L 176.956478 279.869939 
L 177.17979 272.109723 
L 177.403102 278.131096 
L 177.626413 278.131096 
L 177.849725 283.281864 
L 178.073037 291.925335 
L 178.296348 291.925335 
L 178.51966 289.316676 
L 178.742971 291.925335 
L 179.189595 285.034935 
L 179.636218 289.382437 
L 179.85953 281.543021 
L 180.082841 287.643594 
L 180.306153 279.804178 
L 180.752776 281.543021 
L 181.422711 255.641064 
L 181.646023 256.51088 
L 181.869335 253.098166 
L 182.092646 246.207766 
L 182.315958 256.51088 
L 182.762581 251.293562 
L 182.985893 260.002794 
L 183.209205 247.011821 
L 183.655828 265.153562 
L 183.87914 254.772037 
L 184.102451 254.772037 
L 184.325763 242.73008 
L 184.549075 246.207766 
L 184.772386 232.347766 
L 184.995698 237.578523 
L 185.21901 247.077582 
L 185.888944 242.73008 
L 186.112256 244.468923 
L 186.335568 233.217582 
L 186.558879 240.187182 
L 187.005503 222.914468 
L 187.228814 234.956425 
L 187.452126 232.347766 
L 187.675438 231.478739 
L 187.898749 226.327182 
L 188.122061 218.566966 
L 188.345373 218.566966 
L 188.568684 205.576782 
L 188.791996 219.436782 
L 189.015308 218.566966 
L 189.238619 229.739896 
L 189.461931 222.849496 
L 189.685243 222.849496 
L 190.131866 211.676566 
L 190.355178 209.937723 
L 190.801801 211.676566 
L 191.248424 224.588339 
L 191.695048 224.588339 
L 191.918359 231.478739 
L 192.141671 230.608923 
L 192.364982 216.828123 
L 192.588294 215.08928 
L 192.811606 195.208696 
L 193.034917 205.576782 
L 193.258229 204.706966 
L 193.481541 199.555409 
L 193.704852 199.555409 
L 194.151476 206.445809 
L 194.374787 183.956566 
L 194.821411 206.445809 
L 195.044722 204.706966 
L 195.268034 211.676566 
L 195.491346 212.546382 
L 195.714657 205.576782 
L 195.937969 219.436782 
L 196.161281 192.665009 
L 196.607904 173.65424 
L 196.831216 180.54464 
L 197.054527 165.894025 
L 197.277839 169.371711 
L 197.501151 176.197139 
L 197.724462 174.458296 
L 197.947774 182.217723 
L 198.394397 156.315766 
L 198.617709 155.446739 
L 198.841021 156.315766 
L 199.064332 151.164209 
L 199.287644 138.253225 
L 199.734267 153.772868 
L 199.957579 159.79424 
L 200.18089 160.663268 
L 200.404202 160.663268 
L 200.627514 159.79424 
L 200.850825 150.360942 
L 201.074137 171.111342 
L 201.52076 157.251342 
L 201.744072 156.381526 
L 201.967384 164.141742 
L 202.190695 164.141742 
L 202.414007 170.241526 
L 202.637319 169.371711 
L 202.86063 155.511711 
L 203.083942 150.360942 
L 203.307254 157.251342 
L 203.530565 147.817255 
L 203.977189 158.120369 
L 204.2005 158.120369 
L 204.423812 151.229969 
L 204.647124 158.120369 
L 204.870435 152.099785 
L 205.093747 150.360942 
L 205.317059 163.271926 
L 205.54037 160.663268 
L 205.763682 160.663268 
L 206.210305 172.784425 
L 206.433617 180.54464 
L 206.656928 171.045582 
L 206.88024 177.066166 
L 207.103552 164.155182 
L 207.326863 164.155182 
L 207.550175 165.024209 
L 207.773487 178.805009 
L 207.996798 165.024209 
L 208.22011 165.024209 
L 208.443422 164.155182 
L 208.666733 173.65424 
L 208.890045 166.76384 
L 209.113357 174.523268 
L 209.336668 165.894025 
L 209.55998 164.155182 
L 209.783292 183.956566 
L 210.006603 183.956566 
L 210.229915 185.695409 
L 210.453227 183.956566 
L 210.676538 177.935982 
L 210.89985 177.935982 
L 211.123162 158.054609 
L 211.346473 165.024209 
L 211.569785 152.90384 
L 211.793097 167.632868 
L 212.016408 167.632868 
L 212.463032 202.164068 
L 212.686343 188.304068 
L 212.909655 201.29504 
L 213.132966 202.164068 
L 213.356278 195.273668 
L 213.57959 196.143483 
L 213.802901 198.752142 
L 214.026213 197.882326 
L 214.249525 205.642542 
L 214.472836 191.782542 
L 214.696148 198.752142 
L 214.91946 197.868887 
L 215.142771 177.197687 
L 215.366083 181.661693 
L 215.589395 219.605607 
L 215.812706 207.498678 
L 216.036018 208.367706 
L 216.25933 203.216149 
L 216.482641 210.976364 
L 216.705953 195.442493 
L 216.929265 198.934407 
L 217.152576 194.573466 
L 217.375888 202.412093 
L 217.5992 200.67325 
L 217.822511 197.195564 
L 218.045823 206.628863 
L 218.269135 227.379263 
L 218.492446 220.488863 
L 218.715758 234.269663 
L 218.93907 235.139478 
L 219.162381 234.283102 
L 219.385693 229.066573 
L 219.609005 215.206573 
L 219.832316 222.096973 
L 220.055628 223.849255 
L 220.278939 214.336757 
L 220.502251 216.945416 
L 220.725563 217.815232 
L 220.948874 211.793859 
L 221.172186 210.041577 
L 221.395498 214.402518 
L 221.618809 223.031761 
L 221.842121 217.011177 
L 222.065433 221.358678 
L 222.735368 204.085964 
L 222.958679 208.367706 
L 223.181991 208.367706 
L 223.405303 204.89002 
L 223.628614 212.649447 
L 223.851926 210.976364 
L 224.075238 205.824807 
L 224.298549 224.770604 
L 224.521861 222.214266 
L 224.745173 222.214266 
L 224.968484 203.216149 
L 225.191796 198.06538 
L 225.415108 210.106549 
L 226.085043 196.312309 
L 226.308354 171.980369 
L 226.531666 219.605607 
L 226.754977 207.498678 
L 226.978289 227.445023 
L 227.424912 209.354814 
L 227.648224 213.767288 
L 227.871536 212.8325 
L 228.094847 165.376088 
L 228.318159 162.768218 
L 228.541471 148.183363 
L 228.764782 147.247786 
L 228.988094 148.987418 
L 229.211406 120.476802 
L 229.434717 112.716586 
L 229.658029 128.237018 
L 229.881341 128.237018 
L 230.104652 110.094488 
L 230.327964 129.106045 
L 230.774587 101.465245 
L 230.997899 112.716586 
L 231.221211 110.977743 
L 231.444522 129.041073 
L 231.667834 137.749516 
L 231.891146 137.749516 
L 232.114457 118.737959 
L 232.561081 129.041073 
L 232.784392 110.042956 
L 233.007704 131.663171 
L 233.454327 116.933356 
L 233.677639 117.803171 
L 233.90095 117.803171 
L 234.124262 124.693571 
L 234.347574 137.683756 
L 234.570885 126.432414 
L 234.794197 141.161442 
L 235.017509 141.161442 
L 235.24082 134.271042 
L 235.464132 136.010673 
L 235.687444 136.010673 
L 235.910755 140.292414 
L 236.134067 140.292414 
L 236.357379 131.663171 
L 236.58069 130.793356 
L 236.804002 124.693571 
L 237.027314 131.663171 
L 237.250625 120.411042 
L 237.473937 121.280857 
L 237.697249 116.1293 
L 237.92056 121.280857 
L 238.143872 120.411042 
L 238.367184 104.891399 
L 238.590495 120.411042 
L 238.813807 113.520642 
L 239.037119 126.432414 
L 239.26043 120.411042 
L 239.483742 122.150673 
L 239.707054 136.010673 
L 239.930365 129.041073 
L 240.153677 148.921657 
L 240.376988 146.312999 
L 240.6003 146.312999 
L 240.823612 139.422599 
L 241.046923 147.182814 
L 241.270235 141.161442 
L 241.493547 141.161442 
L 241.716858 134.271042 
L 241.94017 133.402014 
L 242.163482 146.312999 
L 242.386793 146.312999 
L 243.056728 127.301442 
L 243.28004 127.301442 
L 243.503352 133.402014 
L 243.949975 133.402014 
L 244.173287 125.562599 
L 244.843222 125.562599 
L 245.066533 139.422599 
L 245.289845 132.532199 
L 245.513157 133.402014 
L 245.736468 112.651614 
L 246.183092 112.651614 
L 246.406403 132.532199 
L 246.629715 131.663171 
L 246.853027 131.663171 
L 247.076338 124.693571 
L 247.29965 126.432414 
L 247.522961 118.672199 
L 248.416208 118.672199 
L 248.63952 124.693571 
L 248.862831 126.432414 
L 249.086143 122.150673 
L 249.309455 122.150673 
L 249.532766 120.411042 
L 249.756078 113.520642 
L 249.97939 121.280857 
L 250.202701 114.390457 
L 250.426013 100.530457 
L 250.872636 117.803171 
L 251.31926 117.803171 
L 251.542571 113.520642 
L 251.765883 92.770242 
L 251.989195 99.660642 
L 252.212506 85.879842 
L 252.435818 85.010814 
L 252.65913 98.791614 
L 252.882441 71.150814 
L 253.105753 78.041214 
L 253.775688 58.239042 
L 253.998999 66.869073 
L 254.222311 86.749657 
L 254.445623 79.780057 
L 254.668934 86.749657 
L 254.892246 107.500057 
L 255.115558 107.500057 
L 255.338869 120.411042 
L 255.785493 106.630242 
L 256.232116 106.630242 
L 256.455428 99.660642 
L 256.902051 99.660642 
L 257.125363 106.630242 
L 257.348674 99.660642 
L 257.571986 99.660642 
L 257.795298 106.630242 
L 258.018609 93.640057 
L 258.465233 93.640057 
L 258.688544 101.400273 
L 259.135168 89.358316 
L 259.358479 94.509873 
L 259.581791 96.248716 
L 259.805103 104.008143 
L 260.251726 84.127559 
L 260.475038 96.248716 
L 260.698349 90.227343 
L 260.921661 89.358316 
L 261.144972 96.248716 
L 261.368284 95.3789 
L 261.814907 82.388716 
L 262.038219 82.388716 
L 262.261531 80.649873 
L 262.484842 72.889657 
L 262.708154 72.889657 
L 262.931466 65.999257 
L 263.154777 65.129442 
L 263.378089 65.999257 
L 263.601401 65.999257 
L 263.824712 73.759473 
L 264.048024 59.978673 
L 264.494647 75.498316 
L 264.941271 88.4885 
L 265.164582 106.499509 
L 265.387894 99.609109 
L 265.834517 111.651066 
L 266.057829 104.760666 
L 266.281141 118.620666 
L 266.727764 118.620666 
L 266.951076 115.998568 
L 267.174387 128.119725 
L 267.397699 128.053964 
L 267.621011 133.205521 
L 267.844322 119.424721 
L 268.067634 127.249909 
L 268.290945 125.576827 
L 268.514257 125.576827 
L 268.737569 122.084913 
L 268.96088 127.31567 
L 269.184192 126.445854 
L 269.407504 126.445854 
L 269.854127 135.944913 
L 270.077439 131.597411 
L 270.30075 131.597411 
L 270.524062 138.487811 
L 270.747374 137.617995 
L 271.193997 122.968168 
L 271.417309 129.858568 
L 271.64062 128.988752 
L 271.863932 128.988752 
L 272.087244 130.727595 
L 272.310555 122.968168 
L 272.533867 129.858568 
L 272.757179 133.270493 
L 272.98049 153.151866 
L 273.203802 143.652807 
L 273.427114 153.151866 
L 273.650425 154.020893 
L 273.873737 161.781109 
L 274.097049 156.629552 
L 274.32036 156.629552 
L 274.543672 169.541325 
L 274.766983 169.541325 
L 274.990295 181.661693 
L 275.436918 179.92285 
L 275.66023 180.792666 
L 275.883542 190.291725 
L 276.330165 186.81325 
L 276.553477 192.834623 
L 277.0001 179.92285 
L 277.223412 193.70365 
L 277.446723 192.848063 
L 277.670035 183.269804 
L 277.893347 190.239404 
L 278.116658 183.269804 
L 278.33997 197.129804 
L 278.563282 190.239404 
L 278.786593 190.239404 
L 279.009905 197.129804 
L 279.233217 195.390961 
L 279.456528 197.129804 
L 279.67984 190.239404 
L 280.126463 192.848063 
L 280.349775 190.239404 
L 280.573087 209.171761 
L 280.796398 195.390961 
L 281.01971 208.302734 
L 281.243022 203.151177 
L 281.466333 217.011177 
L 281.912956 225.574659 
L 282.582891 199.60773 
L 282.806203 200.476757 
L 283.029515 188.4348 
L 283.252826 193.586357 
L 283.476138 193.586357 
L 283.69945 195.3252 
L 283.922761 194.456173 
L 284.146073 194.456173 
L 284.369385 187.565773 
L 284.592696 194.456173 
L 284.816008 193.586357 
L 285.03932 194.456173 
L 285.709255 174.5748 
L 285.932566 174.5748 
L 286.155878 167.6844 
L 286.37919 173.705773 
L 286.602501 165.945557 
L 287.049125 179.805557 
L 287.272436 179.805557 
L 287.495748 184.957114 
L 287.71906 182.348455 
L 287.942371 196.129255 
L 288.165683 189.238855 
L 288.388994 188.369828 
L 288.612306 189.238855 
L 288.835618 195.260228 
L 289.058929 193.521385 
L 289.282241 194.390412 
L 289.505553 194.390412 
L 289.728864 173.719212 
L 289.952176 182.348455 
L 290.175488 181.479428 
L 290.622111 183.218271 
L 290.845423 195.260228 
L 291.068734 195.260228 
L 291.292046 201.360012 
L 291.515358 194.390412 
L 291.738669 201.360012 
L 291.961981 195.260228 
L 292.185293 194.390412 
L 292.408604 194.390412 
L 292.631916 187.500012 
L 292.855228 202.229828 
L 293.078539 202.229828 
L 293.301851 214.271785 
L 293.525163 214.271785 
L 293.748474 200.490985 
L 293.971786 200.490985 
L 294.195098 205.642542 
L 294.418409 199.621169 
L 294.641721 208.250412 
L 294.865033 206.511569 
L 295.311656 192.651569 
L 295.534967 192.651569 
L 295.758279 185.761169 
L 295.981591 185.761169 
L 296.428214 199.621169 
L 296.651526 198.752142 
L 296.874837 199.621169 
L 297.321461 185.761169 
L 297.544772 193.521385 
L 297.768084 194.390412 
L 297.991396 187.500012 
L 298.214707 187.500012 
L 298.438019 188.369828 
L 298.661331 190.108671 
L 298.884642 176.327871 
L 299.107954 181.479428 
L 299.554577 169.358271 
L 299.777889 171.96693 
L 300.001201 164.206714 
L 300.224512 178.93653 
L 300.447824 184.957114 
L 300.671136 171.96693 
L 300.894447 171.96693 
L 301.117759 184.088087 
L 301.341071 177.197687 
L 301.564382 178.066714 
L 301.787694 184.957114 
L 302.234317 158.18613 
L 302.457629 171.96693 
L 302.68094 158.18613 
L 302.904252 158.18613 
L 303.127564 165.07653 
L 303.574187 165.07653 
L 303.797499 164.206714 
L 304.244122 150.425914 
L 304.467434 156.447287 
L 304.690745 156.447287 
L 304.914057 142.587287 
L 305.137369 137.43573 
L 305.36068 150.425914 
L 305.807304 163.337687 
L 306.030615 156.447287 
L 306.253927 144.32613 
L 306.477239 144.32613 
L 306.70055 158.18613 
L 306.923862 163.337687 
L 307.147174 156.447287 
L 307.370485 157.316314 
L 307.593797 152.164757 
L 307.817109 152.164757 
L 308.04042 144.32613 
L 308.263732 140.847655 
L 308.487044 154.707655 
L 308.710355 153.838628 
L 308.933667 154.707655 
L 309.156978 154.707655 
L 309.38029 147.817255 
L 309.603602 127.936671 
L 309.826913 128.806487 
L 310.050225 140.847655 
L 310.273537 135.696887 
L 310.496848 135.696887 
L 310.943472 146.078412 
L 311.166783 139.978628 
L 311.390095 140.847655 
L 311.613407 140.847655 
L 311.836718 148.687071 
L 312.06003 140.847655 
L 312.283342 141.717471 
L 312.506653 147.817255 
L 312.729965 149.556887 
L 312.953277 155.577471 
L 313.3999 153.838628 
L 313.623212 160.729028 
L 314.069835 160.729028 
L 314.293147 159.859212 
L 314.516458 167.619428 
L 314.73977 165.880585 
L 314.963082 167.619428 
L 315.186393 172.850185 
L 315.409705 172.850185 
L 315.633017 165.880585 
L 315.856328 173.719212 
L 316.07964 166.749612 
L 316.302951 168.488455 
L 316.526263 174.589028 
L 316.749575 173.719212 
L 316.972886 180.609612 
L 317.196198 174.589028 
L 317.41951 175.458055 
L 317.642821 189.238855 
L 318.089445 176.327871 
L 318.312756 182.348455 
L 318.536068 176.327871 
L 318.75938 183.218271 
L 318.982691 183.218271 
L 319.206003 190.108671 
L 319.429315 184.088087 
L 319.652626 184.957114 
L 319.875938 179.805557 
L 320.09925 178.066714 
L 320.322561 184.957114 
L 320.545873 196.999071 
L 320.769185 196.999071 
L 320.992496 181.479428 
L 321.662431 160.729028 
L 321.885743 177.197687 
L 322.109055 158.18613 
L 322.332366 159.055157 
L 322.555678 169.358271 
L 322.778989 143.470542 
L 323.002301 150.360942 
L 323.225613 150.360942 
L 323.448924 164.141742 
L 323.672236 149.491126 
L 323.895548 158.924425 
L 324.118859 157.185582 
L 324.565483 103.708585 
L 324.788794 120.176455 
L 325.012106 113.206855 
L 325.235418 110.598985 
L 325.682041 123.589169 
L 326.128664 133.892283 
L 326.351976 135.631126 
L 326.798599 116.698769 
L 327.021911 120.176455 
L 327.245223 108.925114 
L 327.468534 122.785114 
L 327.691846 117.554357 
L 327.915158 125.393773 
L 328.361781 117.620118 
L 328.585093 138.304757 
L 328.808404 124.523957 
L 329.031716 124.510518 
L 329.255028 130.596863 
L 329.478339 133.205521 
L 329.701651 133.205521 
L 329.924962 142.71802 
L 330.148274 141.848204 
L 330.594897 134.957804 
L 330.818209 141.913964 
L 331.264832 127.988204 
L 331.488144 129.727047 
L 331.934767 112.468561 
L 332.158079 106.447977 
L 332.381391 112.468561 
L 332.604702 105.578161 
L 332.828014 107.317004 
L 333.051326 98.608561 
L 333.274637 102.086247 
L 333.497949 116.816063 
L 333.721261 115.946247 
L 333.944572 116.816063 
L 334.167884 122.836647 
L 334.391196 110.795478 
L 334.614507 114.273164 
L 334.837819 114.273164 
L 335.061131 112.520093 
L 335.284442 109.108168 
L 335.507754 121.229325 
L 335.731066 114.259725 
L 335.954377 120.359509 
L 336.177689 118.620666 
L 336.401001 118.620666 
L 336.624312 116.881823 
L 336.847624 123.772223 
L 337.070935 117.75085 
L 337.294247 118.620666 
L 337.517559 121.229325 
L 337.74087 129.858568 
L 337.964182 128.988752 
L 338.187494 123.837195 
L 338.410805 138.487811 
L 338.634117 136.748968 
L 338.857429 143.639368 
L 339.08074 136.748968 
L 339.304052 138.487811 
L 339.527364 130.727595 
L 339.973987 142.769552 
L 340.197299 135.879152 
L 340.42061 136.748968 
L 340.867234 148.000309 
L 341.090545 141.030709 
L 341.313857 148.000309 
L 341.983792 148.000309 
L 342.207104 141.030709 
L 342.430415 148.000309 
L 342.653727 141.030709 
L 342.877039 152.28205 
L 343.10035 148.000309 
L 343.323662 148.000309 
L 343.546973 141.030709 
L 343.770285 140.160893 
L 343.993597 140.160893 
L 344.216908 147.130493 
L 344.663532 166.932666 
L 344.886843 160.042266 
L 345.110155 166.06285 
L 345.333467 166.06285 
L 345.78009 179.92285 
L 346.003402 179.053823 
L 346.226713 179.053823 
L 346.450025 172.163423 
L 346.896648 172.163423 
L 347.11996 166.932666 
L 347.343272 173.902266 
L 347.566583 174.771293 
L 347.789895 168.671509 
L 348.013207 167.801693 
L 348.236518 167.801693 
L 348.683142 154.020893 
L 348.906453 168.671509 
L 349.129765 167.801693 
L 349.353077 168.671509 
L 349.576388 154.020893 
L 349.7997 163.519952 
L 350.246323 161.781109 
L 350.469635 168.671509 
L 350.692946 169.541325 
L 350.916258 162.650925 
L 351.362881 181.661693 
L 351.586193 176.510925 
L 351.809505 168.671509 
L 352.032816 174.771293 
L 352.256128 168.671509 
L 352.47944 175.641109 
L 352.702751 174.771293 
L 352.926063 161.781109 
L 353.149375 168.671509 
L 353.372686 167.801693 
L 353.595998 174.771293 
L 353.81931 167.801693 
L 354.042621 167.801693 
L 354.265933 175.641109 
L 354.489245 169.541325 
L 355.15918 169.541325 
L 355.382491 173.03245 
L 355.605803 168.671509 
L 355.829115 161.781109 
L 356.052426 160.042266 
L 356.275738 160.911293 
L 356.49905 160.042266 
L 356.722361 160.042266 
L 356.945673 160.911293 
L 357.168984 175.641109 
L 357.392296 161.781109 
L 357.615608 162.650925 
L 357.838919 161.781109 
L 358.062231 168.671509 
L 358.285543 161.781109 
L 358.508854 168.671509 
L 358.732166 167.801693 
L 358.955478 167.801693 
L 359.402101 180.792666 
L 359.625413 177.31498 
L 359.848724 176.445164 
L 360.072036 169.554764 
L 360.295348 170.42458 
L 360.518659 177.31498 
L 360.741971 177.31498 
L 360.965283 170.42458 
L 361.188594 176.445164 
L 361.411906 169.554764 
L 361.635218 175.575349 
L 361.858529 175.575349 
L 362.305153 160.846321 
L 362.528464 161.715349 
L 362.751776 160.846321 
L 362.975088 162.585164 
L 363.198399 154.824949 
L 363.421711 167.815921 
L 363.645023 160.846321 
L 363.868334 159.107478 
L 364.091646 159.976506 
L 364.314957 166.946106 
L 364.761581 166.946106 
L 364.984892 165.207263 
L 365.208204 165.207263 
L 365.431516 156.49882 
L 365.878139 170.35882 
L 366.101451 165.207263 
L 366.324762 172.097663 
L 366.548074 172.967478 
L 366.994697 187.617306 
L 367.218009 187.617306 
L 367.664632 174.706321 
L 367.887944 175.575349 
L 368.111256 175.575349 
L 368.334567 189.356149 
L 368.557879 195.456721 
L 368.781191 196.325749 
L 369.004502 183.335564 
L 369.451126 197.195564 
L 369.674437 198.06538 
L 369.897749 189.356149 
L 370.121061 198.06538 
L 370.344372 183.335564 
L 370.790995 187.683066 
L 371.014307 188.552093 
L 371.237619 174.771293 
L 371.46093 180.792666 
L 371.684242 180.792666 
L 371.907554 189.421909 
L 372.130865 189.421909 
L 372.354177 181.661693 
L 372.577489 184.270352 
L 372.8008 182.59727 
L 373.024112 170.476113 
L 373.247424 178.23554 
L 374.363982 142.835313 
L 374.587294 149.725713 
L 374.810605 152.334371 
L 375.033917 156.695313 
L 375.257229 142.835313 
L 375.48054 154.073214 
L 375.703852 152.334371 
L 375.927164 154.073214 
L 376.150475 148.921657 
L 376.373787 155.812057 
L 376.597099 157.5509 
L 376.82041 164.5205 
L 377.043722 163.651473 
L 377.267034 165.390316 
L 377.713657 163.651473 
L 377.936968 170.541873 
L 378.16028 162.781657 
L 378.383592 179.975171 
L 378.606903 173.084771 
L 378.830215 183.452857 
L 379.053527 183.452857 
L 379.276838 164.5205 
L 379.50015 166.259343 
L 379.723462 166.259343 
L 379.946773 163.651473 
L 380.393397 174.019559 
L 380.616708 174.019559 
L 380.84002 190.422457 
L 381.286643 190.422457 
L 381.509955 197.312857 
L 381.733267 195.574014 
L 381.956578 197.312857 
L 382.17989 194.769959 
L 382.403202 211.093657 
L 382.626513 211.093657 
L 382.849825 203.333442 
L 383.073137 207.615971 
L 383.296448 206.746156 
L 383.51976 219.73634 
L 383.966383 198.920968 
L 384.413007 195.442493 
L 384.85963 186.81325 
L 385.082941 192.834623 
L 385.752876 230.052893 
L 385.976188 236.943293 
L 386.1995 236.074266 
L 386.422811 224.822925 
L 386.869435 236.140027 
L 387.092746 229.170427 
L 387.316058 243.030427 
L 387.53937 249.051011 
L 387.762681 249.920827 
L 387.985993 237.009054 
L 388.209305 241.290795 
L 388.655928 233.531368 
L 389.102551 233.531368 
L 389.325863 240.421768 
L 389.549175 243.030427 
L 389.772486 241.290795 
L 389.995798 234.400395 
L 390.442421 232.661552 
L 390.665733 239.551952 
L 390.889045 240.421768 
L 391.112356 246.442352 
L 391.335668 245.573325 
L 391.782291 230.922709 
L 392.005603 230.052893 
L 392.228914 232.661552 
L 392.452226 225.691952 
L 392.675538 225.691952 
L 392.898849 211.042125 
L 393.122161 205.020752 
L 393.345473 191.160752 
L 393.792096 204.151725 
L 394.015408 203.281909 
L 394.238719 203.281909 
L 394.462031 211.042125 
L 394.685343 198.051152 
L 394.908654 197.182125 
L 395.131966 198.051152 
L 395.355278 191.160752 
L 395.578589 198.051152 
L 396.248524 198.051152 
L 396.471836 198.920968 
L 396.695148 205.020752 
L 396.918459 197.182125 
L 397.141771 197.182125 
L 397.365083 203.281909 
L 397.588394 196.312309 
L 397.811706 196.312309 
L 398.035018 197.182125 
L 398.258329 205.020752 
L 398.481641 198.051152 
L 398.704952 205.020752 
L 398.928264 204.151725 
L 399.151576 205.020752 
L 399.374887 198.051152 
L 399.598199 205.020752 
L 399.821511 198.920968 
L 400.044822 204.151725 
L 400.938069 204.151725 
L 401.161381 198.051152 
L 401.608004 198.051152 
L 401.831316 197.182125 
L 402.054627 197.182125 
L 402.277939 198.051152 
L 402.501251 205.020752 
L 402.724562 205.020752 
L 402.947874 205.890568 
L 403.171186 205.890568 
L 403.394497 206.759595 
L 403.617809 205.890568 
L 403.841121 205.890568 
L 404.064432 197.182125 
L 404.287744 206.759595 
L 404.511056 205.020752 
L 404.734367 211.042125 
L 404.957679 209.302493 
L 405.18099 211.042125 
L 405.404302 217.062709 
L 405.627614 216.192893 
L 405.850925 217.062709 
L 406.074237 217.062709 
L 406.297549 217.932525 
L 406.52086 223.953109 
L 406.744172 216.192893 
L 406.967484 223.083293 
L 407.190795 223.083293 
L 407.414107 209.302493 
L 407.637419 209.302493 
L 407.86073 210.172309 
L 408.307354 210.172309 
L 408.530665 208.433466 
L 408.753977 208.433466 
L 408.977289 216.192893 
L 409.2006 215.323866 
L 409.423912 225.70618 
L 409.647224 225.70618 
L 409.870535 232.59658 
L 410.093847 225.70618 
L 410.317159 226.575207 
L 410.54047 219.605607 
L 410.763782 227.445023 
L 410.987094 228.31405 
L 411.210405 221.34445 
L 411.433717 221.34445 
L 411.657029 220.475423 
L 412.103652 206.694623 
L 412.326963 213.585023 
L 412.550275 213.585023 
L 412.773587 220.475423 
L 412.996898 220.475423 
L 413.22021 234.335423 
L 413.666833 222.214266 
L 413.890145 227.445023 
L 414.113457 249.06445 
L 414.336768 248.195423 
L 414.56008 255.95485 
L 414.783392 242.09485 
L 415.006703 235.20445 
L 415.453327 236.943293 
L 415.676638 229.183866 
L 415.89995 227.445023 
L 416.123262 235.20445 
L 416.346573 235.20445 
L 416.569885 236.074266 
L 416.793197 234.335423 
L 417.016508 236.074266 
L 417.23982 223.083293 
L 417.686443 226.561768 
L 417.909755 212.780968 
L 418.356378 226.561768 
L 418.57969 226.561768 
L 419.026313 224.822925 
L 419.249625 223.083293 
L 419.472936 223.953109 
L 419.696248 231.792525 
L 419.91956 231.792525 
L 420.142871 244.703509 
L 420.366183 232.661552 
L 420.589495 234.400395 
L 420.812806 239.551952 
L 421.036118 238.682925 
L 421.25943 240.421768 
L 421.706053 223.953109 
L 422.152676 222.214266 
L 422.5993 233.465607 
L 422.822611 225.70618 
L 423.045923 233.465607 
L 423.269235 232.59658 
L 423.492546 233.465607 
L 423.715858 228.31405 
L 423.93917 220.475423 
L 424.162481 229.183866 
L 424.385793 222.214266 
L 424.609105 228.31405 
L 424.832416 238.617164 
L 425.055728 224.836364 
L 425.27904 226.575207 
L 425.502351 225.70618 
L 425.725663 267.12778 
L 425.948974 267.12778 
L 426.172286 252.542925 
L 426.395598 245.573325 
L 426.618909 219.605607 
L 426.842221 211.042125 
L 427.065533 208.499227 
L 427.288844 230.039454 
L 427.512156 221.410211 
L 427.735468 228.300611 
L 427.958779 220.540395 
L 428.182091 227.430795 
L 428.405403 226.561768 
L 428.628714 227.430795 
L 428.852026 225.691952 
L 429.298649 238.682925 
L 429.745273 238.682925 
L 430.191896 223.083293 
L 430.415208 230.052893 
L 430.638519 231.792525 
L 430.861831 223.953109 
L 431.085143 223.953109 
L 431.308454 230.922709 
L 431.531766 223.953109 
L 431.755078 224.822925 
L 432.201701 224.822925 
L 432.425013 225.691952 
L 432.648324 219.671368 
L 432.871636 219.671368 
L 433.094947 218.801552 
L 433.318259 231.792525 
L 433.764882 219.671368 
L 433.988194 226.561768 
L 434.211506 219.671368 
L 434.434817 226.561768 
L 434.881441 213.649995 
L 435.328064 226.561768 
L 435.551376 227.430795 
L 435.774687 227.430795 
L 435.997999 228.300611 
L 436.221311 221.410211 
L 436.444622 228.300611 
L 436.667934 221.410211 
L 436.891246 221.410211 
L 437.114557 214.519811 
L 437.337869 214.519811 
L 437.561181 221.410211 
L 437.784492 221.410211 
L 438.007804 228.300611 
L 438.231116 228.300611 
L 438.454427 229.170427 
L 438.677739 221.410211 
L 438.901051 221.410211 
L 439.124362 215.389627 
L 439.347674 214.519811 
L 439.794297 228.300611 
L 440.017609 227.430795 
L 440.464232 206.759595 
L 440.687544 214.519811 
L 440.910855 200.659811 
L 441.357479 200.659811 
L 441.58079 193.769411 
L 441.804102 201.529627 
L 442.027414 200.659811 
L 442.697349 179.988611 
L 442.92066 190.356697 
L 443.143972 186.944771 
L 443.367284 186.930543 
L 443.590595 191.278045 
L 443.813907 203.399202 
L 444.037219 200.790543 
L 444.26053 200.790543 
L 444.483842 197.36439 
L 444.930465 221.723997 
L 445.153777 222.593024 
L 445.377089 229.483424 
L 445.6004 228.614397 
L 445.823712 228.680158 
L 446.270335 228.614397 
L 446.493647 227.744581 
L 446.716958 229.483424 
L 446.94027 228.680158 
L 447.163582 222.579585 
L 447.386893 223.449401 
L 447.610205 222.645346 
L 447.833517 229.535746 
L 448.056828 243.395746 
L 448.503452 255.437703 
L 448.726763 255.437703 
L 448.950075 244.199801 
L 449.173387 253.698071 
L 449.62001 237.309401 
L 449.843322 237.309401 
L 450.289945 247.677487 
L 450.736568 235.63553 
L 450.95988 243.395746 
L 451.183192 245.134589 
L 451.629815 232.144404 
L 451.853127 239.114004 
L 452.29975 239.114004 
L 452.523062 246.004404 
L 452.746373 237.374373 
L 452.969685 244.264773 
L 453.192996 236.505346 
L 453.416308 236.505346 
L 453.63962 237.374373 
L 453.862931 232.144404 
L 454.086243 232.144404 
L 454.309555 239.114004 
L 454.532866 232.144404 
L 454.756178 232.144404 
L 454.97949 246.004404 
L 455.202801 234.752275 
L 455.426113 235.62209 
L 455.872736 220.971475 
L 456.096048 220.971475 
L 456.31936 215.819918 
L 456.542671 223.580133 
L 456.765983 227.057819 
L 456.989295 221.892823 
L 457.435918 221.892823 
L 457.65923 242.643223 
L 457.882541 235.752823 
L 458.105853 237.557426 
L 458.329165 233.209925 
L 458.552476 240.100325 
L 458.775788 260.719992 
L 458.9991 268.479419 
L 459.222411 265.871549 
L 460.338969 233.948219 
L 460.562281 238.295721 
L 460.785593 238.295721 
L 461.008904 246.924964 
L 461.232216 240.034564 
L 461.455528 245.186121 
L 461.678839 283.274996 
L 461.902151 297.924823 
L 462.125463 292.773266 
L 462.572086 320.479826 
L 462.795398 313.510226 
L 463.018709 317.00214 
L 463.242021 303.14214 
L 463.465333 304.880983 
L 463.688644 309.162725 
L 463.911956 296.25174 
L 464.135268 304.011168 
L 464.358579 292.839026 
L 464.581891 297.186528 
L 464.805203 304.076928 
L 465.028514 288.478085 
L 465.251826 289.347112 
L 465.475138 295.447685 
L 465.698449 287.608269 
L 465.921761 275.566312 
L 466.145073 287.608269 
L 466.368384 278.979026 
L 466.815008 291.100183 
L 467.038319 284.130583 
L 467.261631 272.958442 
L 467.484942 281.587685 
L 467.708254 279.848842 
L 467.931566 281.587685 
L 468.154877 281.587685 
L 468.378189 292.839026 
L 468.601501 292.839026 
L 468.824812 289.347112 
L 469.494747 307.489642 
L 469.718059 305.750011 
L 469.941371 306.619826 
L 470.164682 299.729426 
L 470.387994 306.619826 
L 470.611306 304.076928 
L 470.834617 308.358669 
L 471.057929 315.249069 
L 471.281241 315.249069 
L 471.504552 307.489642 
L 471.727864 314.380042 
L 471.951176 314.380042 
L 472.174487 307.489642 
L 472.397799 308.358669 
L 472.844422 298.056344 
L 473.067734 303.207112 
L 473.291046 304.076928 
L 473.514357 299.795187 
L 473.737669 301.53403 
L 474.184292 301.53403 
L 474.407604 299.795187 
L 474.630915 301.53403 
L 474.854227 294.56443 
L 475.077539 301.53403 
L 475.30085 294.56443 
L 475.524162 301.53403 
L 475.747474 302.403057 
L 475.970785 302.403057 
L 476.194097 303.272873 
L 476.417409 288.543057 
L 476.64072 254.881673 
L 476.864032 261.772073 
L 477.087344 264.380732 
L 477.310655 256.620516 
L 477.533967 257.490332 
L 477.757279 249.730116 
L 477.98059 256.620516 
L 478.650525 190.957391 
L 478.873837 197.926991 
L 479.097149 216.858559 
L 479.32046 217.728375 
L 479.543772 216.858559 
L 479.767084 216.858559 
L 479.990395 215.119716 
L 480.213707 222.959132 
L 480.437019 222.959132 
L 480.66033 215.989532 
L 480.883642 216.858559 
L 481.106953 224.697975 
L 481.776888 224.697975 
L 482.223512 222.959132 
L 482.446823 222.959132 
L 482.670135 202.208732 
L 482.893447 195.318332 
L 483.116758 206.490473 
L 483.563382 206.490473 
L 483.786693 213.380873 
L 484.010005 205.620657 
L 484.233317 204.75163 
L 484.456628 211.64203 
L 484.67994 209.903187 
L 484.903252 205.555685 
L 485.126563 206.424712 
L 485.349875 213.394312 
L 485.573187 212.525285 
L 485.796498 216.807026 
L 486.01981 202.947026 
L 486.243122 202.947026 
L 486.466433 190.905069 
L 486.913057 205.555685 
L 487.136368 198.665285 
L 487.35968 205.555685 
L 487.806303 203.816842 
L 488.029615 200.404128 
L 488.252926 207.294528 
L 488.476238 206.424712 
L 488.69955 211.655469 
L 488.922861 211.655469 
L 489.146173 210.786442 
L 489.369485 209.033371 
L 489.592796 208.164344 
L 489.816108 202.142971 
L 490.03942 207.294528 
L 490.262731 206.424712 
L 490.486043 209.033371 
L 490.709355 209.033371 
L 491.155978 203.881814 
L 491.37929 210.772214 
L 491.602601 203.881814 
L 491.825913 204.75163 
L 492.049225 203.881814 
L 492.272536 203.881814 
L 492.495848 200.404128 
L 492.71916 209.903187 
L 492.942471 202.142971 
L 493.389095 196.122387 
L 493.612406 188.362171 
L 493.835718 202.208732 
L 494.05903 209.099132 
L 494.282341 195.318332 
L 494.505653 191.826418 
L 494.728964 270.963128 
L 495.175588 221.271821 
L 495.398899 220.402006 
L 495.622211 213.511606 
L 495.845523 221.271821 
L 496.068834 218.598191 
L 496.292146 218.598191 
L 496.515458 206.490473 
L 496.738769 209.916626 
L 496.962081 202.947026 
L 497.185393 168.415826 
L 497.408704 175.306226 
L 497.632016 175.306226 
L 497.855328 177.928325 
L 498.078639 142.57963 
L 498.301951 147.665426 
L 498.525263 145.926583 
L 498.748574 125.176183 
L 498.971886 125.176183 
L 499.418509 121.894991 
L 499.641821 101.07883 
L 499.865133 105.426332 
L 500.088444 73.43803 
L 500.311756 80.32843 
L 500.535068 76.046689 
L 500.758379 101.07883 
L 500.981691 102.817673 
L 501.205003 89.906689 
L 501.651626 94.254191 
L 501.874937 89.023434 
L 502.098249 99.47072 
L 502.321561 100.340535 
L 502.544872 108.034991 
L 502.768184 98.535932 
L 502.991496 100.274775 
L 503.438119 108.904018 
L 503.661431 132.197316 
L 503.884742 131.328289 
L 504.108054 124.437889 
L 504.554677 141.696375 
L 504.777989 135.675791 
L 505.001301 134.805975 
L 505.224612 141.696375 
L 505.894547 137.348873 
L 506.117859 136.479057 
L 506.341171 136.479057 
L 506.564482 135.61003 
L 506.787794 121.82923 
L 507.011106 122.698257 
L 507.234417 122.698257 
L 507.457729 117.547489 
L 507.681041 126.110971 
L 508.127664 115.742885 
L 508.350975 126.110971 
L 508.574287 117.481728 
L 508.797599 117.481728 
L 509.02091 103.621728 
L 509.244222 97.601144 
L 509.467534 97.601144 
L 509.690845 96.731328 
L 510.137469 120.894442 
L 510.36078 122.567525 
L 510.584092 114.742337 
L 511.030715 220.15398 
L 511.477339 198.612964 
L 511.70065 205.503364 
L 511.923962 206.37318 
L 512.147274 227.057819 
L 512.370585 220.167419 
L 512.593897 222.776078 
L 512.817209 214.937451 
L 513.04052 220.167419 
L 513.263832 211.458976 
L 513.487144 218.428576 
L 513.710455 204.503604 
L 513.933767 211.473204 
L 514.157079 197.560883 
L 514.38039 197.613204 
L 514.603702 202.778201 
L 514.827014 210.603389 
L 515.050325 205.386071 
L 515.273637 197.560883 
L 515.496948 194.083197 
L 515.72026 194.083197 
L 515.943572 186.243781 
L 516.166883 191.461099 
L 516.390195 200.103781 
L 516.613507 181.96204 
L 516.836818 188.85244 
L 517.06013 185.439726 
L 517.283442 187.179358 
L 517.730065 201.039358 
L 517.953377 203.633789 
L 518.176688 196.626095 
L 518.4 196.626095 
L 518.4 196.626095 
" style="fill:none;stroke:#4c72b0;stroke-linecap:round;stroke-width:1.75;"/>
   </g>
   <g id="patch_3">
    <path d="M 72 356.4 
L 518.4 356.4 
" style="fill:none;"/>
   </g>
   <g id="patch_4">
    <path d="M 72 39.6 
L 518.4 39.6 
" style="fill:none;"/>
   </g>
   <g id="patch_5">
    <path d="M 72 356.4 
L 72 39.6 
" style="fill:none;"/>
   </g>
   <g id="patch_6">
    <path d="M 518.4 356.4 
L 518.4 39.6 
" style="fill:none;"/>
   </g>
   <g id="text_15">
    <!-- rb - 0.009956956160312919 * cu -->
    <defs>
     <path d="M 9.125 0 
L 9.125 10.6875 
L 18.65625 10.6875 
L 18.65625 0 
z
" id="LiberationSans-2e"/>
     <path d="M 13.421875 26.65625 
Q 13.421875 22.125 14.078125 18.3125 
Q 14.75 14.5 16.3125 11.734375 
Q 17.875 8.984375 20.4375 7.46875 
Q 23 5.953125 26.765625 5.953125 
Q 31.453125 5.953125 34.59375 8.484375 
Q 37.75 11.03125 38.484375 16.3125 
L 47.359375 15.71875 
Q 46.921875 12.453125 45.453125 9.421875 
Q 44 6.390625 41.484375 4.09375 
Q 38.96875 1.8125 35.34375 0.40625 
Q 31.734375 -0.984375 27 -0.984375 
Q 20.796875 -0.984375 16.453125 1.109375 
Q 12.109375 3.21875 9.390625 6.90625 
Q 6.6875 10.59375 5.46875 15.59375 
Q 4.25 20.609375 4.25 26.46875 
Q 4.25 31.78125 5.125 35.859375 
Q 6 39.9375 7.59375 42.984375 
Q 9.1875 46.046875 11.328125 48.125 
Q 13.484375 50.203125 15.984375 51.4375 
Q 18.5 52.6875 21.28125 53.25 
Q 24.078125 53.8125 26.90625 53.8125 
Q 31.34375 53.8125 34.8125 52.59375 
Q 38.28125 51.375 40.796875 49.25 
Q 43.3125 47.125 44.875 44.234375 
Q 46.4375 41.359375 47.078125 38.03125 
L 38.03125 37.359375 
Q 37.359375 41.75 34.5625 44.328125 
Q 31.78125 46.921875 26.65625 46.921875 
Q 22.90625 46.921875 20.390625 45.671875 
Q 17.875 44.4375 16.3125 41.921875 
Q 14.75 39.40625 14.078125 35.59375 
Q 13.421875 31.78125 13.421875 26.65625 
" id="LiberationSans-63"/>
     <path d="M 51.421875 26.65625 
Q 51.421875 -0.984375 31.984375 -0.984375 
Q 25.984375 -0.984375 22 1.1875 
Q 18.015625 3.375 15.53125 8.203125 
L 15.4375 8.203125 
Q 15.4375 6.9375 15.359375 5.5625 
Q 15.28125 4.203125 15.203125 3.03125 
Q 15.140625 1.859375 15.0625 1.03125 
Q 14.984375 0.203125 14.9375 0 
L 6.453125 0 
Q 6.5 0.4375 6.546875 1.484375 
Q 6.59375 2.546875 6.640625 4 
Q 6.6875 5.46875 6.703125 7.21875 
Q 6.734375 8.984375 6.734375 10.890625 
L 6.734375 72.46875 
L 15.53125 72.46875 
L 15.53125 51.8125 
Q 15.53125 50.34375 15.5 49 
Q 15.484375 47.65625 15.4375 46.625 
Q 15.375 45.40625 15.328125 44.34375 
L 15.53125 44.34375 
Q 17.96875 49.421875 22 51.609375 
Q 26.03125 53.8125 31.984375 53.8125 
Q 42 53.8125 46.703125 47.0625 
Q 51.421875 40.328125 51.421875 26.65625 
M 42.1875 26.375 
Q 42.1875 31.84375 41.5 35.75 
Q 40.828125 39.65625 39.3125 42.15625 
Q 37.796875 44.671875 35.453125 45.84375 
Q 33.109375 47.015625 29.734375 47.015625 
Q 26.265625 47.015625 23.609375 45.890625 
Q 20.953125 44.78125 19.171875 42.28125 
Q 17.390625 39.796875 16.453125 35.734375 
Q 15.53125 31.6875 15.53125 25.828125 
Q 15.53125 20.171875 16.453125 16.3125 
Q 17.390625 12.453125 19.171875 10.03125 
Q 20.953125 7.625 23.578125 6.5625 
Q 26.21875 5.515625 29.640625 5.515625 
Q 32.859375 5.515625 35.203125 6.640625 
Q 37.546875 7.765625 39.109375 10.25 
Q 40.671875 12.75 41.421875 16.71875 
Q 42.1875 20.703125 42.1875 26.375 
" id="LiberationSans-62"/>
     <path d="M 22.265625 54.390625 
L 35.15625 59.421875 
L 37.359375 52.984375 
L 23.578125 49.421875 
L 32.625 37.203125 
L 26.8125 33.6875 
L 19.484375 46.296875 
L 11.859375 33.796875 
L 6.0625 37.3125 
L 15.28125 49.421875 
L 1.609375 52.984375 
L 3.8125 59.515625 
L 16.84375 54.296875 
L 16.265625 68.796875 
L 22.90625 68.796875 
z
" id="LiberationSans-2a"/>
     <path d="M 15.328125 52.828125 
L 15.328125 19.34375 
Q 15.328125 15.484375 15.890625 12.890625 
Q 16.453125 10.296875 17.71875 8.703125 
Q 19 7.125 21.0625 6.46875 
Q 23.140625 5.8125 26.21875 5.8125 
Q 29.34375 5.8125 31.859375 6.90625 
Q 34.375 8.015625 36.15625 10.078125 
Q 37.9375 12.15625 38.90625 15.203125 
Q 39.890625 18.265625 39.890625 22.21875 
L 39.890625 52.828125 
L 48.6875 52.828125 
L 48.6875 11.28125 
Q 48.6875 9.625 48.703125 7.78125 
Q 48.734375 5.953125 48.78125 4.3125 
Q 48.828125 2.6875 48.875 1.515625 
Q 48.921875 0.34375 48.96875 0 
L 40.671875 0 
Q 40.625 0.25 40.578125 1.3125 
Q 40.53125 2.390625 40.453125 3.78125 
Q 40.375 5.171875 40.328125 6.609375 
Q 40.28125 8.0625 40.28125 9.03125 
L 40.140625 9.03125 
Q 38.875 6.734375 37.359375 4.875 
Q 35.84375 3.03125 33.84375 1.734375 
Q 31.84375 0.4375 29.25 -0.265625 
Q 26.65625 -0.984375 23.25 -0.984375 
Q 18.84375 -0.984375 15.671875 0.09375 
Q 12.5 1.171875 10.453125 3.421875 
Q 8.40625 5.671875 7.453125 9.1875 
Q 6.5 12.703125 6.5 17.625 
L 6.5 52.828125 
z
" id="LiberationSans-75"/>
     <path d="M 6.9375 0 
L 6.9375 40.53125 
Q 6.9375 42.1875 6.90625 43.921875 
Q 6.890625 45.65625 6.828125 47.265625 
Q 6.78125 48.875 6.734375 50.28125 
Q 6.6875 51.703125 6.640625 52.828125 
L 14.9375 52.828125 
Q 14.984375 51.703125 15.0625 50.265625 
Q 15.140625 48.828125 15.203125 47.3125 
Q 15.28125 45.796875 15.296875 44.40625 
Q 15.328125 43.015625 15.328125 42.046875 
L 15.53125 42.046875 
Q 16.453125 45.0625 17.5 47.28125 
Q 18.5625 49.515625 19.96875 50.953125 
Q 21.390625 52.390625 23.34375 53.09375 
Q 25.296875 53.8125 28.078125 53.8125 
Q 29.15625 53.8125 30.125 53.640625 
Q 31.109375 53.46875 31.640625 53.328125 
L 31.640625 45.265625 
Q 30.765625 45.515625 29.59375 45.625 
Q 28.421875 45.75 26.953125 45.75 
Q 23.921875 45.75 21.796875 44.375 
Q 19.671875 43.015625 18.328125 40.59375 
Q 17 38.1875 16.359375 34.84375 
Q 15.71875 31.5 15.71875 27.546875 
L 15.71875 0 
z
" id="LiberationSans-72"/>
    </defs>
    <g style="fill:#262626;" transform="translate(207.466875 34.6)scale(0.12 -0.12)">
     <use xlink:href="#LiberationSans-72"/>
     <use x="33.30078125" xlink:href="#LiberationSans-62"/>
     <use x="88.916015625" xlink:href="#LiberationSans-20"/>
     <use x="116.69921875" xlink:href="#LiberationSans-2d"/>
     <use x="150.0" xlink:href="#LiberationSans-20"/>
     <use x="177.783203125" xlink:href="#LiberationSans-30"/>
     <use x="233.3984375" xlink:href="#LiberationSans-2e"/>
     <use x="261.181640625" xlink:href="#LiberationSans-30"/>
     <use x="316.796875" xlink:href="#LiberationSans-30"/>
     <use x="372.412109375" xlink:href="#LiberationSans-39"/>
     <use x="428.02734375" xlink:href="#LiberationSans-39"/>
     <use x="483.642578125" xlink:href="#LiberationSans-35"/>
     <use x="539.2578125" xlink:href="#LiberationSans-36"/>
     <use x="594.873046875" xlink:href="#LiberationSans-39"/>
     <use x="650.48828125" xlink:href="#LiberationSans-35"/>
     <use x="706.103515625" xlink:href="#LiberationSans-36"/>
     <use x="761.71875" xlink:href="#LiberationSans-31"/>
     <use x="817.333984375" xlink:href="#LiberationSans-36"/>
     <use x="872.94921875" xlink:href="#LiberationSans-30"/>
     <use x="928.564453125" xlink:href="#LiberationSans-33"/>
     <use x="984.1796875" xlink:href="#LiberationSans-31"/>
     <use x="1039.794921875" xlink:href="#LiberationSans-32"/>
     <use x="1095.41015625" xlink:href="#LiberationSans-39"/>
     <use x="1151.025390625" xlink:href="#LiberationSans-31"/>
     <use x="1206.640625" xlink:href="#LiberationSans-39"/>
     <use x="1262.255859375" xlink:href="#LiberationSans-20"/>
     <use x="1290.0390625" xlink:href="#LiberationSans-2a"/>
     <use x="1328.955078125" xlink:href="#LiberationSans-20"/>
     <use x="1356.73828125" xlink:href="#LiberationSans-63"/>
     <use x="1406.73828125" xlink:href="#LiberationSans-75"/>
    </g>
   </g>
  </g>
 </g>
 <defs>
  <clipPath id="p4ee63edd96">
   <rect height="316.8" width="446.4" x="72.0" y="39.6"/>
  </clipPath>
 </defs>
</svg>
