<?xml version="1.0" encoding="utf-8" standalone="no"?>
<!DOCTYPE svg PUBLIC "-//W3C//DTD SVG 1.1//EN"
  "http://www.w3.org/Graphics/SVG/1.1/DTD/svg11.dtd">
<!-- Created with matplotlib (http://matplotlib.org/) -->
<svg height="396pt" version="1.1" viewBox="0 0 576 396" width="576pt" xmlns="http://www.w3.org/2000/svg" xmlns:xlink="http://www.w3.org/1999/xlink">
 <defs>
  <style type="text/css">
*{stroke-linecap:butt;stroke-linejoin:round;stroke-miterlimit:100000;}
  </style>
 </defs>
 <g id="figure_1">
  <g id="patch_1">
   <path d="M 0 396 
L 576 396 
L 576 0 
L 0 0 
z
" style="fill:#ffffff;"/>
  </g>
  <g id="axes_1">
   <g id="patch_2">
    <path d="M 72 356.4 
L 518.4 356.4 
L 518.4 39.6 
L 72 39.6 
z
" style="fill:#eaeaf2;"/>
   </g>
   <g id="matplotlib.axis_1">
    <g id="xtick_1">
     <g id="line2d_1">
      <path clip-path="url(#p78876bab3e)" d="M 72 356.4 
L 72 39.6 
" style="fill:none;stroke:#ffffff;stroke-linecap:round;"/>
     </g>
     <g id="line2d_2"/>
     <g id="line2d_3"/>
     <g id="text_1">
      <!-- 2015-11-09 09:29:00 -->
      <defs>
       <path d="M 5.03125 0 
L 5.03125 6.203125 
Q 7.515625 11.921875 11.109375 16.28125 
Q 14.703125 20.65625 18.65625 24.1875 
Q 22.609375 27.734375 26.484375 30.765625 
Q 30.375 33.796875 33.5 36.8125 
Q 36.625 39.84375 38.546875 43.15625 
Q 40.484375 46.484375 40.484375 50.6875 
Q 40.484375 53.609375 39.59375 55.828125 
Q 38.71875 58.0625 37.0625 59.5625 
Q 35.40625 61.078125 33.078125 61.828125 
Q 30.765625 62.59375 27.9375 62.59375 
Q 25.296875 62.59375 22.96875 61.859375 
Q 20.65625 61.140625 18.84375 59.671875 
Q 17.046875 58.203125 15.890625 56.03125 
Q 14.75 53.859375 14.40625 50.984375 
L 5.421875 51.8125 
Q 5.859375 55.515625 7.46875 58.78125 
Q 9.078125 62.0625 11.90625 64.53125 
Q 14.75 67 18.71875 68.40625 
Q 22.703125 69.828125 27.9375 69.828125 
Q 33.0625 69.828125 37.0625 68.609375 
Q 41.0625 67.390625 43.8125 64.984375 
Q 46.578125 62.59375 48.046875 59.078125 
Q 49.515625 55.5625 49.515625 50.984375 
Q 49.515625 47.515625 48.265625 44.390625 
Q 47.015625 41.265625 44.9375 38.421875 
Q 42.875 35.59375 40.140625 32.953125 
Q 37.40625 30.328125 34.421875 27.8125 
Q 31.453125 25.296875 28.421875 22.828125 
Q 25.390625 20.359375 22.71875 17.859375 
Q 20.0625 15.375 17.96875 12.8125 
Q 15.875 10.25 14.703125 7.46875 
L 50.59375 7.46875 
L 50.59375 0 
z
" id="LiberationSans-32"/>
       <path d="M 7.625 0 
L 7.625 7.46875 
L 25.140625 7.46875 
L 25.140625 60.40625 
L 9.625 49.3125 
L 9.625 57.625 
L 25.875 68.796875 
L 33.984375 68.796875 
L 33.984375 7.46875 
L 50.734375 7.46875 
L 50.734375 0 
z
" id="LiberationSans-31"/>
       <path d="M 51.703125 34.421875 
Q 51.703125 24.515625 49.828125 17.75 
Q 47.953125 10.984375 44.703125 6.8125 
Q 41.453125 2.640625 37.0625 0.828125 
Q 32.671875 -0.984375 27.6875 -0.984375 
Q 22.65625 -0.984375 18.3125 0.828125 
Q 13.96875 2.640625 10.765625 6.78125 
Q 7.5625 10.9375 5.734375 17.703125 
Q 3.90625 24.46875 3.90625 34.421875 
Q 3.90625 44.828125 5.734375 51.640625 
Q 7.5625 58.453125 10.78125 62.5 
Q 14.015625 66.546875 18.40625 68.1875 
Q 22.796875 69.828125 27.984375 69.828125 
Q 32.90625 69.828125 37.21875 68.1875 
Q 41.546875 66.546875 44.765625 62.5 
Q 48 58.453125 49.84375 51.640625 
Q 51.703125 44.828125 51.703125 34.421875 
M 42.78125 34.421875 
Q 42.78125 42.625 41.796875 48.0625 
Q 40.828125 53.515625 38.921875 56.765625 
Q 37.015625 60.015625 34.25 61.359375 
Q 31.5 62.703125 27.984375 62.703125 
Q 24.265625 62.703125 21.4375 61.328125 
Q 18.609375 59.96875 16.671875 56.71875 
Q 14.75 53.46875 13.765625 48.015625 
Q 12.796875 42.578125 12.796875 34.421875 
Q 12.796875 26.515625 13.796875 21.09375 
Q 14.796875 15.671875 16.71875 12.375 
Q 18.65625 9.078125 21.4375 7.640625 
Q 24.21875 6.203125 27.78125 6.203125 
Q 31.25 6.203125 34.03125 7.640625 
Q 36.8125 9.078125 38.734375 12.375 
Q 40.671875 15.671875 41.71875 21.09375 
Q 42.78125 26.515625 42.78125 34.421875 
" id="LiberationSans-30"/>
       <path d="M 50.875 35.796875 
Q 50.875 26.609375 49.140625 19.703125 
Q 47.40625 12.796875 44.1875 8.203125 
Q 40.96875 3.609375 36.34375 1.3125 
Q 31.734375 -0.984375 25.984375 -0.984375 
Q 22.015625 -0.984375 18.84375 -0.171875 
Q 15.671875 0.640625 13.171875 2.34375 
Q 10.6875 4.046875 8.921875 6.78125 
Q 7.171875 9.515625 6.109375 13.375 
L 14.5 14.703125 
Q 15.875 10.25 18.78125 8.171875 
Q 21.6875 6.109375 26.125 6.109375 
Q 29.6875 6.109375 32.640625 7.78125 
Q 35.59375 9.46875 37.671875 12.84375 
Q 39.75 16.21875 40.921875 21.296875 
Q 42.09375 26.375 42.1875 33.203125 
Q 41.15625 30.90625 39.375 29.09375 
Q 37.59375 27.296875 35.328125 26.046875 
Q 33.0625 24.8125 30.421875 24.140625 
Q 27.78125 23.484375 25.09375 23.484375 
Q 20.40625 23.484375 16.625 25.171875 
Q 12.84375 26.859375 10.203125 29.875 
Q 7.5625 32.90625 6.125 37.171875 
Q 4.6875 41.453125 4.6875 46.6875 
Q 4.6875 52 6.21875 56.296875 
Q 7.765625 60.59375 10.6875 63.59375 
Q 13.625 66.609375 17.890625 68.21875 
Q 22.171875 69.828125 27.59375 69.828125 
Q 39.0625 69.828125 44.96875 61.328125 
Q 50.875 52.828125 50.875 35.796875 
M 41.3125 44.28125 
Q 41.3125 48.09375 40.40625 51.453125 
Q 39.5 54.828125 37.71875 57.3125 
Q 35.9375 59.8125 33.328125 61.25 
Q 30.71875 62.703125 27.296875 62.703125 
Q 24.125 62.703125 21.578125 61.578125 
Q 19.046875 60.453125 17.28125 58.375 
Q 15.53125 56.296875 14.578125 53.3125 
Q 13.625 50.34375 13.625 46.6875 
Q 13.625 43.21875 14.46875 40.234375 
Q 15.328125 37.25 17.03125 35.078125 
Q 18.75 32.90625 21.28125 31.65625 
Q 23.828125 30.421875 27.203125 30.421875 
Q 29.640625 30.421875 32.15625 31.25 
Q 34.671875 32.078125 36.6875 33.78125 
Q 38.71875 35.5 40.015625 38.109375 
Q 41.3125 40.71875 41.3125 44.28125 
" id="LiberationSans-39"/>
       <path d="M 9.125 42.71875 
L 9.125 52.828125 
L 18.65625 52.828125 
L 18.65625 42.71875 
z
M 9.125 0 
L 9.125 10.109375 
L 18.65625 10.109375 
L 18.65625 0 
z
" id="LiberationSans-3a"/>
       <path d="M 51.421875 22.40625 
Q 51.421875 17.234375 49.859375 12.9375 
Q 48.296875 8.640625 45.21875 5.53125 
Q 42.140625 2.4375 37.578125 0.71875 
Q 33.015625 -0.984375 27 -0.984375 
Q 21.578125 -0.984375 17.546875 0.28125 
Q 13.53125 1.5625 10.734375 3.78125 
Q 7.953125 6 6.3125 8.984375 
Q 4.6875 11.96875 4 15.375 
L 12.890625 16.40625 
Q 13.421875 14.453125 14.390625 12.625 
Q 15.375 10.796875 17.0625 9.34375 
Q 18.75 7.90625 21.21875 7.046875 
Q 23.6875 6.203125 27.203125 6.203125 
Q 30.609375 6.203125 33.390625 7.25 
Q 36.1875 8.296875 38.15625 10.34375 
Q 40.140625 12.40625 41.203125 15.375 
Q 42.28125 18.359375 42.28125 22.21875 
Q 42.28125 25.390625 41.25 28.046875 
Q 40.234375 30.71875 38.328125 32.640625 
Q 36.421875 34.578125 33.65625 35.640625 
Q 30.90625 36.71875 27.390625 36.71875 
Q 25.203125 36.71875 23.34375 36.328125 
Q 21.484375 35.9375 19.890625 35.25 
Q 18.3125 34.578125 17.015625 33.671875 
Q 15.71875 32.765625 14.59375 31.78125 
L 6 31.78125 
L 8.296875 68.796875 
L 47.40625 68.796875 
L 47.40625 61.328125 
L 16.3125 61.328125 
L 14.984375 39.5 
Q 17.328125 41.3125 20.84375 42.59375 
Q 24.359375 43.890625 29.203125 43.890625 
Q 34.328125 43.890625 38.421875 42.328125 
Q 42.53125 40.765625 45.40625 37.90625 
Q 48.296875 35.0625 49.859375 31.109375 
Q 51.421875 27.15625 51.421875 22.40625 
" id="LiberationSans-35"/>
       <path id="LiberationSans-20"/>
       <path d="M 4.4375 22.65625 
L 4.4375 30.46875 
L 28.859375 30.46875 
L 28.859375 22.65625 
z
" id="LiberationSans-2d"/>
      </defs>
      <g style="fill:#262626;" transform="translate(25.5765625 370.646875)scale(0.1 -0.1)">
       <use xlink:href="#LiberationSans-32"/>
       <use x="55.615234375" xlink:href="#LiberationSans-30"/>
       <use x="111.23046875" xlink:href="#LiberationSans-31"/>
       <use x="166.845703125" xlink:href="#LiberationSans-35"/>
       <use x="222.4609375" xlink:href="#LiberationSans-2d"/>
       <use x="255.76171875" xlink:href="#LiberationSans-31"/>
       <use x="311.376953125" xlink:href="#LiberationSans-31"/>
       <use x="366.9921875" xlink:href="#LiberationSans-2d"/>
       <use x="400.29296875" xlink:href="#LiberationSans-30"/>
       <use x="455.908203125" xlink:href="#LiberationSans-39"/>
       <use x="511.5234375" xlink:href="#LiberationSans-20"/>
       <use x="539.306640625" xlink:href="#LiberationSans-30"/>
       <use x="594.921875" xlink:href="#LiberationSans-39"/>
       <use x="650.537109375" xlink:href="#LiberationSans-3a"/>
       <use x="678.3203125" xlink:href="#LiberationSans-32"/>
       <use x="733.935546875" xlink:href="#LiberationSans-39"/>
       <use x="789.55078125" xlink:href="#LiberationSans-3a"/>
       <use x="817.333984375" xlink:href="#LiberationSans-30"/>
       <use x="872.94921875" xlink:href="#LiberationSans-30"/>
      </g>
     </g>
    </g>
    <g id="xtick_2">
     <g id="line2d_4">
      <path clip-path="url(#p78876bab3e)" d="M 183.655828 356.4 
L 183.655828 39.6 
" style="fill:none;stroke:#ffffff;stroke-linecap:round;"/>
     </g>
     <g id="line2d_5"/>
     <g id="line2d_6"/>
     <g id="text_2">
      <!-- 2015-11-11 09:48:00 -->
      <defs>
       <path d="M 51.265625 19.1875 
Q 51.265625 14.796875 49.875 11.109375 
Q 48.484375 7.421875 45.625 4.734375 
Q 42.78125 2.046875 38.328125 0.53125 
Q 33.890625 -0.984375 27.828125 -0.984375 
Q 21.78125 -0.984375 17.359375 0.53125 
Q 12.9375 2.046875 10.03125 4.703125 
Q 7.125 7.375 5.734375 11.0625 
Q 4.34375 14.75 4.34375 19.09375 
Q 4.34375 22.859375 5.484375 25.78125 
Q 6.640625 28.71875 8.5625 30.828125 
Q 10.5 32.953125 12.96875 34.25 
Q 15.4375 35.546875 18.0625 35.984375 
L 18.0625 36.1875 
Q 15.1875 36.859375 12.90625 38.375 
Q 10.640625 39.890625 9.09375 42.015625 
Q 7.5625 44.140625 6.75 46.71875 
Q 5.953125 49.3125 5.953125 52.203125 
Q 5.953125 55.8125 7.34375 59 
Q 8.734375 62.203125 11.46875 64.625 
Q 14.203125 67.046875 18.25 68.4375 
Q 22.3125 69.828125 27.640625 69.828125 
Q 33.25 69.828125 37.375 68.40625 
Q 41.5 67 44.203125 64.578125 
Q 46.921875 62.15625 48.234375 58.9375 
Q 49.5625 55.71875 49.5625 52.09375 
Q 49.5625 49.265625 48.75 46.671875 
Q 47.953125 44.09375 46.40625 41.96875 
Q 44.875 39.84375 42.59375 38.34375 
Q 40.328125 36.859375 37.359375 36.28125 
L 37.359375 36.078125 
Q 40.328125 35.59375 42.859375 34.296875 
Q 45.40625 33.015625 47.265625 30.890625 
Q 49.125 28.765625 50.1875 25.828125 
Q 51.265625 22.90625 51.265625 19.1875 
M 40.4375 51.609375 
Q 40.4375 54.203125 39.765625 56.34375 
Q 39.109375 58.5 37.59375 60.03125 
Q 36.078125 61.578125 33.640625 62.421875 
Q 31.203125 63.28125 27.640625 63.28125 
Q 24.171875 63.28125 21.78125 62.421875 
Q 19.390625 61.578125 17.84375 60.03125 
Q 16.3125 58.5 15.625 56.34375 
Q 14.9375 54.203125 14.9375 51.609375 
Q 14.9375 49.5625 15.46875 47.40625 
Q 16.015625 45.265625 17.421875 43.5 
Q 18.84375 41.75 21.328125 40.625 
Q 23.828125 39.5 27.734375 39.5 
Q 31.890625 39.5 34.40625 40.625 
Q 36.921875 41.75 38.25 43.5 
Q 39.59375 45.265625 40.015625 47.40625 
Q 40.4375 49.5625 40.4375 51.609375 
M 42.140625 20.015625 
Q 42.140625 22.515625 41.453125 24.828125 
Q 40.765625 27.15625 39.109375 28.9375 
Q 37.453125 30.71875 34.640625 31.8125 
Q 31.84375 32.90625 27.640625 32.90625 
Q 23.78125 32.90625 21.0625 31.8125 
Q 18.359375 30.71875 16.671875 28.90625 
Q 14.984375 27.09375 14.203125 24.71875 
Q 13.421875 22.359375 13.421875 19.828125 
Q 13.421875 16.65625 14.203125 14.03125 
Q 14.984375 11.421875 16.6875 9.546875 
Q 18.40625 7.671875 21.1875 6.640625 
Q 23.96875 5.609375 27.9375 5.609375 
Q 31.9375 5.609375 34.671875 6.640625 
Q 37.40625 7.671875 39.0625 9.546875 
Q 40.71875 11.421875 41.421875 14.078125 
Q 42.140625 16.75 42.140625 20.015625 
" id="LiberationSans-38"/>
       <path d="M 43.015625 15.578125 
L 43.015625 0 
L 34.71875 0 
L 34.71875 15.578125 
L 2.296875 15.578125 
L 2.296875 22.40625 
L 33.796875 68.796875 
L 43.015625 68.796875 
L 43.015625 22.515625 
L 52.6875 22.515625 
L 52.6875 15.578125 
z
M 34.71875 58.890625 
Q 34.625 58.640625 34.234375 57.9375 
Q 33.84375 57.234375 33.34375 56.34375 
Q 32.859375 55.46875 32.34375 54.5625 
Q 31.84375 53.65625 31.453125 53.078125 
L 13.8125 27.09375 
Q 13.578125 26.703125 13.109375 26.0625 
Q 12.640625 25.4375 12.15625 24.78125 
Q 11.671875 24.125 11.171875 23.484375 
Q 10.6875 22.859375 10.40625 22.515625 
L 34.71875 22.515625 
z
" id="LiberationSans-34"/>
      </defs>
      <g style="fill:#262626;" transform="translate(137.232390414 370.646875)scale(0.1 -0.1)">
       <use xlink:href="#LiberationSans-32"/>
       <use x="55.615234375" xlink:href="#LiberationSans-30"/>
       <use x="111.23046875" xlink:href="#LiberationSans-31"/>
       <use x="166.845703125" xlink:href="#LiberationSans-35"/>
       <use x="222.4609375" xlink:href="#LiberationSans-2d"/>
       <use x="255.76171875" xlink:href="#LiberationSans-31"/>
       <use x="311.376953125" xlink:href="#LiberationSans-31"/>
       <use x="366.9921875" xlink:href="#LiberationSans-2d"/>
       <use x="400.29296875" xlink:href="#LiberationSans-31"/>
       <use x="455.908203125" xlink:href="#LiberationSans-31"/>
       <use x="511.5234375" xlink:href="#LiberationSans-20"/>
       <use x="539.306640625" xlink:href="#LiberationSans-30"/>
       <use x="594.921875" xlink:href="#LiberationSans-39"/>
       <use x="650.537109375" xlink:href="#LiberationSans-3a"/>
       <use x="678.3203125" xlink:href="#LiberationSans-34"/>
       <use x="733.935546875" xlink:href="#LiberationSans-38"/>
       <use x="789.55078125" xlink:href="#LiberationSans-3a"/>
       <use x="817.333984375" xlink:href="#LiberationSans-30"/>
       <use x="872.94921875" xlink:href="#LiberationSans-30"/>
      </g>
     </g>
    </g>
    <g id="xtick_3">
     <g id="line2d_7">
      <path clip-path="url(#p78876bab3e)" d="M 295.311656 356.4 
L 295.311656 39.6 
" style="fill:none;stroke:#ffffff;stroke-linecap:round;"/>
     </g>
     <g id="line2d_8"/>
     <g id="line2d_9"/>
     <g id="text_3">
      <!-- 2015-11-16 13:56:00 -->
      <defs>
       <path d="M 51.21875 19 
Q 51.21875 14.265625 49.671875 10.546875 
Q 48.140625 6.84375 45.1875 4.265625 
Q 42.234375 1.703125 37.859375 0.359375 
Q 33.5 -0.984375 27.875 -0.984375 
Q 21.484375 -0.984375 17.109375 0.609375 
Q 12.75 2.203125 9.90625 4.8125 
Q 7.078125 7.421875 5.65625 10.765625 
Q 4.25 14.109375 3.8125 17.671875 
L 12.890625 18.5 
Q 13.28125 15.765625 14.328125 13.515625 
Q 15.375 11.28125 17.1875 9.671875 
Q 19 8.0625 21.625 7.171875 
Q 24.265625 6.296875 27.875 6.296875 
Q 34.515625 6.296875 38.296875 9.5625 
Q 42.09375 12.84375 42.09375 19.28125 
Q 42.09375 23.09375 40.40625 25.40625 
Q 38.71875 27.734375 36.203125 29.03125 
Q 33.6875 30.328125 30.734375 30.765625 
Q 27.78125 31.203125 25.296875 31.203125 
L 20.3125 31.203125 
L 20.3125 38.8125 
L 25.09375 38.8125 
Q 27.59375 38.8125 30.265625 39.328125 
Q 32.953125 39.84375 35.171875 41.1875 
Q 37.40625 42.53125 38.84375 44.828125 
Q 40.28125 47.125 40.28125 50.6875 
Q 40.28125 56.203125 37.03125 59.390625 
Q 33.796875 62.59375 27.390625 62.59375 
Q 21.578125 62.59375 17.984375 59.609375 
Q 14.40625 56.640625 13.8125 51.21875 
L 4.984375 51.90625 
Q 5.515625 56.453125 7.46875 59.8125 
Q 9.421875 63.1875 12.421875 65.40625 
Q 15.4375 67.625 19.28125 68.71875 
Q 23.140625 69.828125 27.484375 69.828125 
Q 33.25 69.828125 37.390625 68.375 
Q 41.546875 66.9375 44.1875 64.46875 
Q 46.828125 62.015625 48.0625 58.6875 
Q 49.3125 55.375 49.3125 51.609375 
Q 49.3125 48.578125 48.484375 45.9375 
Q 47.65625 43.3125 45.890625 41.203125 
Q 44.140625 39.109375 41.421875 37.59375 
Q 38.71875 36.078125 34.90625 35.296875 
L 34.90625 35.109375 
Q 39.0625 34.671875 42.140625 33.21875 
Q 45.21875 31.78125 47.21875 29.625 
Q 49.21875 27.484375 50.21875 24.75 
Q 51.21875 22.015625 51.21875 19 
" id="LiberationSans-33"/>
       <path d="M 51.21875 22.515625 
Q 51.21875 17.328125 49.78125 13 
Q 48.34375 8.6875 45.53125 5.578125 
Q 42.71875 2.484375 38.5625 0.75 
Q 34.421875 -0.984375 29 -0.984375 
Q 23 -0.984375 18.5 1.3125 
Q 14.015625 3.609375 11.03125 7.921875 
Q 8.0625 12.25 6.5625 18.53125 
Q 5.078125 24.8125 5.078125 32.8125 
Q 5.078125 42 6.765625 48.921875 
Q 8.453125 55.859375 11.625 60.5 
Q 14.796875 65.140625 19.359375 67.484375 
Q 23.921875 69.828125 29.6875 69.828125 
Q 33.203125 69.828125 36.28125 69.09375 
Q 39.359375 68.359375 41.875 66.71875 
Q 44.390625 65.09375 46.28125 62.40625 
Q 48.1875 59.71875 49.3125 55.8125 
L 40.921875 54.296875 
Q 39.546875 58.734375 36.546875 60.71875 
Q 33.546875 62.703125 29.59375 62.703125 
Q 25.984375 62.703125 23.046875 60.984375 
Q 20.125 59.28125 18.0625 55.875 
Q 16.015625 52.484375 14.90625 47.359375 
Q 13.8125 42.234375 13.8125 35.40625 
Q 16.21875 39.84375 20.5625 42.15625 
Q 24.90625 44.484375 30.515625 44.484375 
Q 35.203125 44.484375 39.015625 42.96875 
Q 42.828125 41.453125 45.53125 38.59375 
Q 48.25 35.75 49.734375 31.671875 
Q 51.21875 27.59375 51.21875 22.515625 
M 42.28125 22.125 
Q 42.28125 25.6875 41.40625 28.5625 
Q 40.53125 31.453125 38.765625 33.46875 
Q 37.015625 35.5 34.421875 36.59375 
Q 31.84375 37.703125 28.421875 37.703125 
Q 26.03125 37.703125 23.578125 36.984375 
Q 21.140625 36.28125 19.15625 34.6875 
Q 17.1875 33.109375 15.9375 30.515625 
Q 14.703125 27.9375 14.703125 24.21875 
Q 14.703125 20.40625 15.671875 17.109375 
Q 16.65625 13.8125 18.484375 11.375 
Q 20.3125 8.9375 22.890625 7.515625 
Q 25.484375 6.109375 28.71875 6.109375 
Q 31.890625 6.109375 34.40625 7.203125 
Q 36.921875 8.296875 38.671875 10.375 
Q 40.4375 12.453125 41.359375 15.421875 
Q 42.28125 18.40625 42.28125 22.125 
" id="LiberationSans-36"/>
      </defs>
      <g style="fill:#262626;" transform="translate(248.888218328 370.646875)scale(0.1 -0.1)">
       <use xlink:href="#LiberationSans-32"/>
       <use x="55.615234375" xlink:href="#LiberationSans-30"/>
       <use x="111.23046875" xlink:href="#LiberationSans-31"/>
       <use x="166.845703125" xlink:href="#LiberationSans-35"/>
       <use x="222.4609375" xlink:href="#LiberationSans-2d"/>
       <use x="255.76171875" xlink:href="#LiberationSans-31"/>
       <use x="311.376953125" xlink:href="#LiberationSans-31"/>
       <use x="366.9921875" xlink:href="#LiberationSans-2d"/>
       <use x="400.29296875" xlink:href="#LiberationSans-31"/>
       <use x="455.908203125" xlink:href="#LiberationSans-36"/>
       <use x="511.5234375" xlink:href="#LiberationSans-20"/>
       <use x="539.306640625" xlink:href="#LiberationSans-31"/>
       <use x="594.921875" xlink:href="#LiberationSans-33"/>
       <use x="650.537109375" xlink:href="#LiberationSans-3a"/>
       <use x="678.3203125" xlink:href="#LiberationSans-35"/>
       <use x="733.935546875" xlink:href="#LiberationSans-36"/>
       <use x="789.55078125" xlink:href="#LiberationSans-3a"/>
       <use x="817.333984375" xlink:href="#LiberationSans-30"/>
       <use x="872.94921875" xlink:href="#LiberationSans-30"/>
      </g>
     </g>
    </g>
    <g id="xtick_4">
     <g id="line2d_10">
      <path clip-path="url(#p78876bab3e)" d="M 406.967484 356.4 
L 406.967484 39.6 
" style="fill:none;stroke:#ffffff;stroke-linecap:round;"/>
     </g>
     <g id="line2d_11"/>
     <g id="line2d_12"/>
     <g id="text_4">
      <!-- 2015-11-20 14:21:00 -->
      <g style="fill:#262626;" transform="translate(360.544046242 370.646875)scale(0.1 -0.1)">
       <use xlink:href="#LiberationSans-32"/>
       <use x="55.615234375" xlink:href="#LiberationSans-30"/>
       <use x="111.23046875" xlink:href="#LiberationSans-31"/>
       <use x="166.845703125" xlink:href="#LiberationSans-35"/>
       <use x="222.4609375" xlink:href="#LiberationSans-2d"/>
       <use x="255.76171875" xlink:href="#LiberationSans-31"/>
       <use x="311.376953125" xlink:href="#LiberationSans-31"/>
       <use x="366.9921875" xlink:href="#LiberationSans-2d"/>
       <use x="400.29296875" xlink:href="#LiberationSans-32"/>
       <use x="455.908203125" xlink:href="#LiberationSans-30"/>
       <use x="511.5234375" xlink:href="#LiberationSans-20"/>
       <use x="539.306640625" xlink:href="#LiberationSans-31"/>
       <use x="594.921875" xlink:href="#LiberationSans-34"/>
       <use x="650.537109375" xlink:href="#LiberationSans-3a"/>
       <use x="678.3203125" xlink:href="#LiberationSans-32"/>
       <use x="733.935546875" xlink:href="#LiberationSans-31"/>
       <use x="789.55078125" xlink:href="#LiberationSans-3a"/>
       <use x="817.333984375" xlink:href="#LiberationSans-30"/>
       <use x="872.94921875" xlink:href="#LiberationSans-30"/>
      </g>
     </g>
    </g>
    <g id="text_5">
     <!-- time -->
     <defs>
      <path d="M 13.484375 24.5625 
Q 13.484375 20.40625 14.328125 16.90625 
Q 15.1875 13.421875 16.96875 10.90625 
Q 18.75 8.40625 21.53125 7 
Q 24.3125 5.609375 28.21875 5.609375 
Q 33.9375 5.609375 37.375 7.90625 
Q 40.828125 10.203125 42.046875 13.71875 
L 49.75 11.53125 
Q 48.921875 9.328125 47.4375 7.109375 
Q 45.953125 4.890625 43.453125 3.09375 
Q 40.96875 1.3125 37.234375 0.15625 
Q 33.5 -0.984375 28.21875 -0.984375 
Q 16.5 -0.984375 10.375 6 
Q 4.25 12.984375 4.25 26.765625 
Q 4.25 34.1875 6.09375 39.328125 
Q 7.953125 44.484375 11.171875 47.703125 
Q 14.40625 50.921875 18.703125 52.359375 
Q 23 53.8125 27.875 53.8125 
Q 34.515625 53.8125 38.984375 51.65625 
Q 43.453125 49.515625 46.15625 45.71875 
Q 48.875 41.9375 50.015625 36.8125 
Q 51.171875 31.6875 51.171875 25.734375 
L 51.171875 24.5625 
z
M 42.09375 31.296875 
Q 41.359375 39.65625 37.84375 43.484375 
Q 34.328125 47.3125 27.734375 47.3125 
Q 25.53125 47.3125 23.109375 46.609375 
Q 20.703125 45.90625 18.65625 44.09375 
Q 16.609375 42.28125 15.1875 39.171875 
Q 13.765625 36.078125 13.578125 31.296875 
z
" id="LiberationSans-65"/>
      <path d="M 6.6875 64.0625 
L 6.6875 72.46875 
L 15.484375 72.46875 
L 15.484375 64.0625 
z
M 6.6875 0 
L 6.6875 52.828125 
L 15.484375 52.828125 
L 15.484375 0 
z
" id="LiberationSans-69"/>
      <path d="M 27.046875 0.390625 
Q 25.046875 -0.140625 22.96875 -0.453125 
Q 20.90625 -0.78125 18.171875 -0.78125 
Q 7.625 -0.78125 7.625 11.1875 
L 7.625 46.4375 
L 1.515625 46.4375 
L 1.515625 52.828125 
L 7.953125 52.828125 
L 10.546875 64.65625 
L 16.40625 64.65625 
L 16.40625 52.828125 
L 26.171875 52.828125 
L 26.171875 46.4375 
L 16.40625 46.4375 
L 16.40625 13.09375 
Q 16.40625 9.28125 17.640625 7.734375 
Q 18.890625 6.203125 21.96875 6.203125 
Q 23.25 6.203125 24.4375 6.390625 
Q 25.640625 6.59375 27.046875 6.890625 
z
" id="LiberationSans-74"/>
      <path d="M 37.5 0 
L 37.5 33.5 
Q 37.5 37.359375 37.015625 39.9375 
Q 36.53125 42.53125 35.375 44.109375 
Q 34.234375 45.703125 32.375 46.359375 
Q 30.515625 47.015625 27.828125 47.015625 
Q 25.046875 47.015625 22.796875 45.921875 
Q 20.5625 44.828125 18.96875 42.75 
Q 17.390625 40.671875 16.53125 37.625 
Q 15.671875 34.578125 15.671875 30.609375 
L 15.671875 0 
L 6.9375 0 
L 6.9375 41.546875 
Q 6.9375 43.21875 6.90625 45.046875 
Q 6.890625 46.875 6.828125 48.5 
Q 6.78125 50.140625 6.734375 51.3125 
Q 6.6875 52.484375 6.640625 52.828125 
L 14.9375 52.828125 
Q 14.984375 52.59375 15.03125 51.515625 
Q 15.09375 50.4375 15.15625 49.046875 
Q 15.234375 47.65625 15.28125 46.21875 
Q 15.328125 44.78125 15.328125 43.796875 
L 15.484375 43.796875 
Q 16.65625 46.09375 18.015625 47.953125 
Q 19.390625 49.8125 21.21875 51.09375 
Q 23.046875 52.390625 25.40625 53.09375 
Q 27.78125 53.8125 30.90625 53.8125 
Q 36.921875 53.8125 40.40625 51.421875 
Q 43.890625 49.03125 45.265625 43.796875 
L 45.40625 43.796875 
Q 46.578125 46.09375 48.046875 47.953125 
Q 49.515625 49.8125 51.46875 51.09375 
Q 53.421875 52.390625 55.859375 53.09375 
Q 58.296875 53.8125 61.421875 53.8125 
Q 65.4375 53.8125 68.328125 52.734375 
Q 71.234375 51.65625 73.09375 49.40625 
Q 74.953125 47.171875 75.828125 43.625 
Q 76.703125 40.09375 76.703125 35.203125 
L 76.703125 0 
L 68.015625 0 
L 68.015625 33.5 
Q 68.015625 37.359375 67.53125 39.9375 
Q 67.046875 42.53125 65.890625 44.109375 
Q 64.75 45.703125 62.890625 46.359375 
Q 61.03125 47.015625 58.34375 47.015625 
Q 55.5625 47.015625 53.3125 45.96875 
Q 51.078125 44.921875 49.484375 42.875 
Q 47.90625 40.828125 47.046875 37.75 
Q 46.1875 34.671875 46.1875 30.609375 
L 46.1875 0 
z
" id="LiberationSans-6d"/>
     </defs>
     <g style="fill:#262626;" transform="translate(284.81015625 385.6934375)scale(0.11 -0.11)">
      <use xlink:href="#LiberationSans-74"/>
      <use x="27.783203125" xlink:href="#LiberationSans-69"/>
      <use x="50.0" xlink:href="#LiberationSans-6d"/>
      <use x="133.30078125" xlink:href="#LiberationSans-65"/>
     </g>
    </g>
   </g>
   <g id="matplotlib.axis_2">
    <g id="ytick_1">
     <g id="line2d_13">
      <path clip-path="url(#p78876bab3e)" d="M 72 324.72 
L 518.4 324.72 
" style="fill:none;stroke:#ffffff;stroke-linecap:round;"/>
     </g>
     <g id="line2d_14"/>
     <g id="line2d_15"/>
     <g id="text_6">
      <!-- 2600 -->
      <g style="fill:#262626;" transform="translate(42.75625 327.3059375)scale(0.1 -0.1)">
       <use xlink:href="#LiberationSans-32"/>
       <use x="55.615234375" xlink:href="#LiberationSans-36"/>
       <use x="111.23046875" xlink:href="#LiberationSans-30"/>
       <use x="166.845703125" xlink:href="#LiberationSans-30"/>
      </g>
     </g>
    </g>
    <g id="ytick_2">
     <g id="line2d_16">
      <path clip-path="url(#p78876bab3e)" d="M 72 261.36 
L 518.4 261.36 
" style="fill:none;stroke:#ffffff;stroke-linecap:round;"/>
     </g>
     <g id="line2d_17"/>
     <g id="line2d_18"/>
     <g id="text_7">
      <!-- 2800 -->
      <g style="fill:#262626;" transform="translate(42.75625 263.9459375)scale(0.1 -0.1)">
       <use xlink:href="#LiberationSans-32"/>
       <use x="55.615234375" xlink:href="#LiberationSans-38"/>
       <use x="111.23046875" xlink:href="#LiberationSans-30"/>
       <use x="166.845703125" xlink:href="#LiberationSans-30"/>
      </g>
     </g>
    </g>
    <g id="ytick_3">
     <g id="line2d_19">
      <path clip-path="url(#p78876bab3e)" d="M 72 198 
L 518.4 198 
" style="fill:none;stroke:#ffffff;stroke-linecap:round;"/>
     </g>
     <g id="line2d_20"/>
     <g id="line2d_21"/>
     <g id="text_8">
      <!-- 3000 -->
      <g style="fill:#262626;" transform="translate(42.75625 200.5859375)scale(0.1 -0.1)">
       <use xlink:href="#LiberationSans-33"/>
       <use x="55.615234375" xlink:href="#LiberationSans-30"/>
       <use x="111.23046875" xlink:href="#LiberationSans-30"/>
       <use x="166.845703125" xlink:href="#LiberationSans-30"/>
      </g>
     </g>
    </g>
    <g id="ytick_4">
     <g id="line2d_22">
      <path clip-path="url(#p78876bab3e)" d="M 72 134.64 
L 518.4 134.64 
" style="fill:none;stroke:#ffffff;stroke-linecap:round;"/>
     </g>
     <g id="line2d_23"/>
     <g id="line2d_24"/>
     <g id="text_9">
      <!-- 3200 -->
      <g style="fill:#262626;" transform="translate(42.75625 137.2259375)scale(0.1 -0.1)">
       <use xlink:href="#LiberationSans-33"/>
       <use x="55.615234375" xlink:href="#LiberationSans-32"/>
       <use x="111.23046875" xlink:href="#LiberationSans-30"/>
       <use x="166.845703125" xlink:href="#LiberationSans-30"/>
      </g>
     </g>
    </g>
    <g id="ytick_5">
     <g id="line2d_25">
      <path clip-path="url(#p78876bab3e)" d="M 72 71.28 
L 518.4 71.28 
" style="fill:none;stroke:#ffffff;stroke-linecap:round;"/>
     </g>
     <g id="line2d_26"/>
     <g id="line2d_27"/>
     <g id="text_10">
      <!-- 3400 -->
      <g style="fill:#262626;" transform="translate(42.75625 73.8659375)scale(0.1 -0.1)">
       <use xlink:href="#LiberationSans-33"/>
       <use x="55.615234375" xlink:href="#LiberationSans-34"/>
       <use x="111.23046875" xlink:href="#LiberationSans-30"/>
       <use x="166.845703125" xlink:href="#LiberationSans-30"/>
      </g>
     </g>
    </g>
   </g>
   <g id="line2d_28">
    <path clip-path="url(#p78876bab3e)" d="M 72 199.151804 
L 72.223312 200.198151 
L 72.446623 202.479111 
L 72.669935 196.874012 
L 72.893247 197.920359 
L 73.116558 176.188787 
L 73.33987 176.188787 
L 73.563182 177.235134 
L 73.786493 174.957342 
L 74.233117 196.503818 
L 74.456428 197.550165 
L 74.67974 196.688915 
L 74.903052 200.013054 
L 75.126363 191.086983 
L 75.572986 193.179678 
L 75.796298 191.948234 
L 76.242921 198.596513 
L 76.466233 203.152097 
L 76.689545 201.920652 
L 76.912856 197.550165 
L 77.136168 199.827957 
L 77.582791 191.948234 
L 77.806103 187.39265 
L 78.029415 194.040929 
L 78.252726 194.040929 
L 78.476038 191.763137 
L 78.69935 196.318721 
L 78.922661 194.226026 
L 79.145973 197.550165 
L 79.369285 197.550165 
L 79.592596 192.994581 
L 80.03922 197.365068 
L 80.262531 198.596513 
L 80.485843 194.040929 
L 81.155778 213.497877 
L 81.37909 213.497877 
L 81.602401 216.822017 
L 81.825713 208.942293 
L 82.049025 210.173738 
L 82.272336 205.803251 
L 82.495648 204.571806 
L 82.718959 204.383541 
L 82.942271 211.220085 
L 83.165583 213.497877 
L 83.388894 209.12739 
L 83.612206 210.173738 
L 83.835518 209.988641 
L 84.058829 204.571806 
L 84.505453 209.988641 
L 84.728764 207.710849 
L 84.952076 209.12739 
L 85.175388 215.775669 
L 85.398699 215.775669 
L 85.622011 218.053461 
L 85.845323 218.053461 
L 86.068634 215.775669 
L 86.291946 214.729322 
L 86.515258 214.544225 
L 86.738569 214.729322 
L 86.961881 216.822017 
L 87.185193 214.544225 
L 87.408504 218.729615 
L 87.631816 219.773827 
L 87.855128 214.174031 
L 88.078439 218.729615 
L 88.301751 216.451823 
L 88.525063 218.914712 
L 88.748374 218.914712 
L 88.971686 220.331253 
L 89.418309 214.729322 
L 89.641621 213.497877 
L 89.864932 215.775669 
L 90.088244 209.312487 
L 90.758179 216.33096 
L 90.981491 206.358542 
L 91.204802 201.802958 
L 91.428114 202.849305 
L 91.651426 205.988348 
L 91.874737 205.988348 
L 92.098049 205.127097 
L 92.321361 205.127097 
L 92.544672 208.26614 
L 92.767984 209.312487 
L 92.991296 203.710556 
L 93.214607 203.525459 
L 93.437919 201.432764 
L 93.884542 201.432764 
L 94.331166 207.034695 
L 94.554477 209.312487 
L 94.777789 213.868071 
L 95.224412 209.497584 
L 95.447724 210.543932 
L 95.671036 203.895653 
L 95.894347 201.617861 
L 96.117659 200.571513 
L 96.34097 225.866815 
L 96.564282 208.081043 
L 97.010905 205.988348 
L 97.234217 205.988348 
L 97.457529 207.034695 
L 97.68084 205.988348 
L 98.127464 209.12739 
L 98.797399 205.988348 
L 99.02071 207.034695 
L 99.244022 204.942 
L 99.467334 204.942 
L 99.690645 203.895653 
L 99.913957 205.988348 
L 100.36058 201.802958 
L 100.583892 204.942 
L 100.807204 204.942 
L 101.253827 201.802958 
L 101.70045 201.802958 
L 101.923762 200.75661 
L 102.147074 204.942 
L 102.370385 202.849305 
L 102.593697 203.895653 
L 102.817009 203.895653 
L 103.04032 202.849305 
L 103.263632 203.895653 
L 103.710255 203.895653 
L 103.933567 201.802958 
L 104.156878 201.802958 
L 104.38019 200.75661 
L 104.603502 201.802958 
L 105.050125 205.988348 
L 105.496748 200.75661 
L 105.72006 199.710263 
L 106.166683 202.849305 
L 106.389995 200.75661 
L 106.613307 200.75661 
L 106.836618 204.942 
L 107.05993 205.988348 
L 107.506553 200.75661 
L 107.729865 202.849305 
L 107.953177 199.710263 
L 108.176488 202.849305 
L 108.3998 200.75661 
L 108.623112 200.75661 
L 108.846423 203.895653 
L 109.069735 200.75661 
L 109.516358 200.75661 
L 109.73967 199.710263 
L 110.409605 204.942 
L 110.632916 204.942 
L 110.856228 203.895653 
L 111.749475 203.895653 
L 111.972786 204.942 
L 112.196098 203.895653 
L 112.41941 203.895653 
L 112.642721 208.081043 
L 112.866033 204.942 
L 113.982591 204.942 
L 114.205903 203.895653 
L 114.429215 203.895653 
L 114.652526 204.942 
L 114.875838 204.942 
L 115.09915 203.895653 
L 116.215708 203.895653 
L 116.43902 214.608459 
L 116.662331 217.932599 
L 116.885643 215.46971 
L 117.332266 225.812322 
L 117.555578 220.210391 
L 117.778889 222.488183 
L 118.002201 220.210391 
L 118.225513 224.765975 
L 118.448824 224.951072 
L 118.672136 230.553003 
L 118.895448 226.182516 
L 119.118759 228.460308 
L 119.342071 237.386379 
L 119.565383 238.617824 
L 119.788694 243.173408 
L 120.012006 238.617824 
L 120.235318 237.571476 
L 120.458629 239.849268 
L 120.905253 234.247337 
L 121.128564 236.525129 
L 121.351876 235.478781 
L 121.575188 237.571476 
L 121.798499 235.293684 
L 122.021811 235.478781 
L 122.245123 234.432433 
L 122.468434 232.154641 
L 122.691746 228.645405 
L 122.915058 230.923197 
L 123.138369 225.321265 
L 123.361681 226.737807 
L 123.584992 226.737807 
L 123.808304 227.969251 
L 124.031616 226.922904 
L 124.254927 229.200696 
L 124.478239 235.848975 
L 124.701551 230.43214 
L 124.924862 232.524835 
L 125.148174 231.293391 
L 125.371486 225.691459 
L 125.594797 229.200696 
L 125.818109 230.247043 
L 126.041421 234.61753 
L 126.264732 232.339738 
L 126.488044 224.645112 
L 126.711356 222.182223 
L 126.934667 225.691459 
L 127.157979 224.460015 
L 127.381291 222.36732 
L 127.604602 223.413667 
L 127.827914 220.089528 
L 128.051226 222.552417 
L 128.274537 219.228277 
L 128.497849 221.506069 
L 128.721161 217.135582 
L 129.167784 217.135582 
L 129.614407 211.533651 
L 129.837719 214.85779 
L 130.284342 208.885665 
L 130.507654 210.117109 
L 130.730965 212.394901 
L 130.954277 210.117109 
L 131.177589 212.394901 
L 131.4009 210.117109 
L 131.624212 212.209804 
L 131.847524 212.394901 
L 132.070835 211.348554 
L 132.294147 209.440956 
L 132.517459 203.839024 
L 132.74077 202.792677 
L 132.964082 199.468537 
L 133.187394 198.42219 
L 133.410705 200.699982 
L 133.634017 199.653634 
L 134.08064 195.09805 
L 134.303952 198.607287 
L 134.527264 195.283147 
L 134.973887 198.792384 
L 135.197199 198.977481 
L 135.42051 195.838438 
L 135.643822 199.347675 
L 135.867134 194.301034 
L 136.090445 200.579119 
L 136.313757 195.347382 
L 136.537069 193.06959 
L 136.76038 194.115937 
L 136.983692 196.393729 
L 137.207004 188.699103 
L 137.430315 192.023242 
L 137.653627 192.023242 
L 137.876938 190.791798 
L 138.10025 191.838145 
L 138.323562 187.097464 
L 138.770185 196.699689 
L 138.993497 195.653341 
L 139.216808 193.375549 
L 139.886743 200.023828 
L 140.110055 204.579412 
L 140.556678 206.857204 
L 140.77999 209.134996 
L 141.003302 209.134996 
L 141.226613 205.62576 
L 141.449925 206.857204 
L 141.673237 209.134996 
L 141.896548 204.579412 
L 142.11986 206.857204 
L 142.566483 204.764509 
L 143.013107 204.764509 
L 143.236418 205.995954 
L 143.45973 202.671814 
L 143.683042 204.764509 
L 143.906353 203.718162 
L 144.129665 203.903259 
L 144.352976 199.532772 
L 144.576288 210.366441 
L 144.7996 207.042301 
L 145.022911 201.625467 
L 145.246223 200.764216 
L 145.469535 198.671521 
L 145.692846 198.671521 
L 145.916158 199.041715 
L 146.13947 190.976895 
L 146.362781 194.115937 
L 146.586093 185.004769 
L 146.809405 187.097464 
L 147.032716 184.819672 
L 147.256028 184.634575 
L 147.47934 182.356783 
L 147.702651 187.588521 
L 147.925963 182.171686 
L 148.81921 192.329202 
L 149.042521 190.236507 
L 149.265833 191.097757 
L 149.489145 196.514592 
L 149.712456 197.190745 
L 149.935768 197.005648 
L 150.15908 199.28344 
L 150.605703 194.051703 
L 150.829015 187.03323 
L 151.052326 185.616688 
L 151.275638 189.987175 
L 151.498949 187.89448 
L 151.945573 195.218913 
L 152.168884 185.616688 
L 152.392196 162.597043 
L 152.615508 175.153213 
L 152.838819 180.384951 
L 153.062131 177.245908 
L 153.285443 180.384951 
L 153.732066 175.153213 
L 153.955378 173.060518 
L 154.178689 173.060518 
L 154.402001 174.106866 
L 154.625313 174.106866 
L 154.848624 172.014171 
L 155.071936 172.014171 
L 155.295248 170.967823 
L 155.518559 167.828781 
L 156.188494 164.689738 
L 156.411806 167.828781 
L 156.858429 161.550696 
L 157.081741 160.504348 
L 157.305053 160.504348 
L 157.528364 162.597043 
L 157.751676 160.504348 
L 157.974987 164.689738 
L 158.198299 161.550696 
L 158.421611 161.550696 
L 158.644922 164.689738 
L 159.314857 164.689738 
L 159.538169 161.550696 
L 159.761481 161.550696 
L 159.984792 164.689738 
L 160.208104 161.550696 
L 160.431416 162.597043 
L 160.654727 157.365306 
L 160.878039 156.318958 
L 161.101351 156.318958 
L 161.324662 155.272611 
L 161.994597 160.504348 
L 162.217909 157.365306 
L 162.441221 157.365306 
L 163.111156 154.226263 
L 163.334467 154.226263 
L 163.557779 153.179916 
L 163.781091 153.179916 
L 164.004402 146.901831 
L 164.227714 145.855483 
L 164.897649 161.550696 
L 165.12096 160.504348 
L 165.344272 161.550696 
L 165.567584 159.458001 
L 165.790895 159.458001 
L 166.014207 158.411653 
L 166.46083 158.411653 
L 167.130765 153.179916 
L 167.8007 160.504348 
L 168.024012 153.179916 
L 168.470635 161.550696 
L 168.693947 153.179916 
L 168.917259 160.504348 
L 169.14057 162.597043 
L 169.363882 162.597043 
L 169.587194 172.014171 
L 169.810505 162.597043 
L 170.257129 169.921476 
L 170.703752 160.504348 
L 170.927064 159.458001 
L 171.150375 152.133568 
L 171.373687 155.272611 
L 171.596998 155.272611 
L 171.82031 157.365306 
L 172.043622 155.272611 
L 172.490245 155.272611 
L 172.713557 160.504348 
L 173.16018 154.226263 
L 173.383492 163.643391 
L 173.606803 156.318958 
L 173.830115 154.226263 
L 174.053427 167.828781 
L 174.276738 164.689738 
L 174.50005 185.616688 
L 174.723362 165.736086 
L 174.946673 180.384951 
L 175.169985 174.106866 
L 175.616608 172.014171 
L 175.83992 177.245908 
L 176.063232 172.014171 
L 176.286543 190.91266 
L 176.509855 189.866313 
L 176.733167 190.236507 
L 176.956478 187.958715 
L 177.17979 183.097171 
L 177.403102 181.004476 
L 177.626413 182.235921 
L 177.849725 179.958129 
L 178.073037 174.356197 
L 178.296348 179.773032 
L 178.51966 181.865727 
L 178.742971 172.384365 
L 178.966283 171.15292 
L 179.189595 167.458587 
L 179.85953 176.384658 
L 180.082841 175.708504 
L 180.306153 179.708797 
L 180.529465 173.245615 
L 180.752776 179.893894 
L 180.976088 178.847547 
L 181.422711 182.356783 
L 181.646023 175.708504 
L 181.869335 182.54188 
L 182.092646 182.356783 
L 182.315958 183.403131 
L 182.53927 185.680923 
L 182.762581 183.403131 
L 182.985893 176.569755 
L 183.209205 178.847547 
L 183.432516 174.662157 
L 183.87914 179.402838 
L 184.102451 175.217448 
L 184.549075 173.124753 
L 184.772386 176.263795 
L 184.995698 177.310143 
L 185.442321 177.310143 
L 186.112256 168.198975 
L 186.335568 169.430419 
L 186.558879 168.198975 
L 186.782191 171.523114 
L 187.005503 165.921183 
L 187.228814 168.198975 
L 187.452126 172.384365 
L 187.675438 171.338017 
L 187.898749 168.198975 
L 188.122061 173.615809 
L 188.345373 170.29167 
L 188.568684 169.060225 
L 189.015308 172.569462 
L 189.238619 170.29167 
L 189.461931 178.847547 
L 189.685243 173.430712 
L 189.908554 175.523407 
L 190.131866 173.430712 
L 190.355178 173.430712 
L 190.578489 169.736379 
L 190.801801 161.856655 
L 191.025113 170.227435 
L 191.248424 164.995698 
L 191.471736 168.319837 
L 191.695048 167.458587 
L 192.141671 171.829074 
L 192.364982 168.319837 
L 192.588294 170.597629 
L 192.811606 170.412532 
L 193.034917 156.927709 
L 193.481541 171.643977 
L 193.704852 170.597629 
L 193.928164 170.597629 
L 194.151476 169.551282 
L 194.374787 164.995698 
L 194.598099 169.366185 
L 194.821411 169.366185 
L 195.044722 170.782726 
L 195.268034 175.153213 
L 195.491346 171.15292 
L 195.714657 169.921476 
L 195.937969 169.736379 
L 196.161281 166.782433 
L 196.384592 170.106573 
L 196.607904 166.96753 
L 196.831216 166.96753 
L 197.054527 163.458294 
L 197.277839 167.828781 
L 197.501151 164.689738 
L 197.724462 165.736086 
L 197.947774 158.226556 
L 198.171086 155.948764 
L 198.394397 152.439528 
L 198.617709 156.810015 
L 198.841021 155.948764 
L 199.064332 155.948764 
L 199.287644 155.763667 
L 199.510955 152.439528 
L 199.734267 155.948764 
L 199.957579 155.763667 
L 200.18089 162.226849 
L 200.627514 159.76396 
L 200.850825 160.995405 
L 201.074137 160.810308 
L 201.297449 159.578863 
L 201.52076 163.764253 
L 201.744072 164.810601 
L 201.967384 163.94935 
L 202.190695 161.856655 
L 202.86063 168.504934 
L 203.083942 166.412239 
L 203.307254 170.782726 
L 203.530565 164.810601 
L 203.753877 169.366185 
L 203.977189 167.27349 
L 204.2005 171.643977 
L 204.423812 167.458587 
L 204.647124 168.690031 
L 204.870435 167.458587 
L 205.093747 167.458587 
L 205.317059 165.550989 
L 205.54037 168.690031 
L 205.763682 166.412239 
L 205.986993 167.458587 
L 206.210305 167.458587 
L 206.433617 165.365892 
L 206.656928 168.504934 
L 206.88024 167.27349 
L 207.103552 167.27349 
L 207.326863 170.412532 
L 207.550175 168.13474 
L 207.773487 167.27349 
L 207.996798 164.134447 
L 208.22011 165.180795 
L 208.666733 168.690031 
L 208.890045 165.365892 
L 209.113357 167.458587 
L 209.336668 157.486168 
L 209.55998 155.57857 
L 209.783292 191.403717 
L 210.453227 168.807726 
L 210.676538 170.042338 
L 210.89985 166.344837 
L 211.123162 170.042338 
L 211.346473 168.13474 
L 211.569785 162.717906 
L 211.793097 166.227142 
L 212.23972 156.066459 
L 212.686343 160.436946 
L 212.909655 165.856948 
L 213.356278 156.742612 
L 213.57959 167.761378 
L 213.802901 163.020697 
L 214.026213 162.159447 
L 214.249525 166.529934 
L 214.472836 165.298489 
L 214.696148 163.205794 
L 214.91946 164.437239 
L 215.142771 164.622336 
L 215.366083 157.974057 
L 215.812706 155.696265 
L 216.25933 165.113392 
L 216.482641 163.020697 
L 216.705953 166.15974 
L 216.929265 165.298489 
L 217.152576 159.881655 
L 217.375888 160.928002 
L 217.5992 155.696265 
L 217.822511 155.511168 
L 218.045823 156.742612 
L 218.269135 161.113099 
L 218.492446 155.696265 
L 218.715758 146.770194 
L 218.93907 145.723846 
L 219.385693 150.27943 
L 219.609005 145.908943 
L 219.832316 146.955291 
L 220.278939 153.60357 
L 220.502251 155.881362 
L 220.725563 153.60357 
L 220.948874 153.60357 
L 221.172186 150.27943 
L 221.395498 150.27943 
L 221.618809 153.60357 
L 221.842121 151.510875 
L 222.065433 148.186735 
L 222.288744 152.557222 
L 222.512056 148.186735 
L 222.735368 148.186735 
L 222.958679 146.09404 
L 223.181991 150.464527 
L 223.405303 147.140388 
L 223.628614 150.464527 
L 223.851926 149.41818 
L 224.075238 146.279137 
L 224.521861 137.72326 
L 224.745173 139.815955 
L 225.191796 136.491816 
L 225.638419 142.093747 
L 225.861731 139.815955 
L 226.085043 144.186442 
L 226.308354 146.279137 
L 226.531666 146.279137 
L 226.754977 142.954998 
L 226.978289 144.001345 
L 227.201601 144.001345 
L 227.424912 142.954998 
L 227.648224 145.23279 
L 227.871536 145.908943 
L 228.094847 146.09404 
L 228.318159 152.557222 
L 228.541471 147.140388 
L 228.764782 150.649624 
L 228.988094 148.371832 
L 229.211406 147.510582 
L 229.434717 149.603277 
L 229.658029 149.603277 
L 229.881341 148.371832 
L 230.104652 146.279137 
L 230.327964 142.954998 
L 230.551276 149.788374 
L 230.774587 147.510582 
L 231.221211 155.57857 
L 231.444522 157.856362 
L 231.667834 157.856362 
L 231.891146 151.208083 
L 232.114457 153.485875 
L 232.337769 151.019818 
L 232.561081 152.254431 
L 232.784392 154.532223 
L 233.007704 160.134154 
L 233.231016 161.365599 
L 233.454327 160.319251 
L 233.677639 161.365599 
L 233.90095 158.041459 
L 234.124262 160.134154 
L 234.347574 159.087807 
L 234.570885 161.180502 
L 234.794197 157.856362 
L 235.017509 159.087807 
L 235.24082 159.087807 
L 235.687444 156.810015 
L 235.910755 158.041459 
L 236.134067 153.485875 
L 236.58069 155.763667 
L 236.804002 153.485875 
L 237.027314 158.90271 
L 237.250625 159.949057 
L 237.473937 159.949057 
L 237.697249 160.995405 
L 237.92056 163.273197 
L 238.143872 162.041752 
L 238.367184 163.273197 
L 238.590495 157.671265 
L 238.813807 158.90271 
L 239.037119 152.439528 
L 239.26043 152.439528 
L 239.483742 153.300778 
L 239.707054 153.300778 
L 239.930365 155.393473 
L 240.153677 155.205208 
L 240.376988 150.649624 
L 240.6003 151.881069 
L 240.823612 155.205208 
L 241.046923 160.436946 
L 241.270235 162.717906 
L 241.493547 162.903003 
L 241.716858 153.300778 
L 241.94017 153.485875 
L 242.163482 153.485875 
L 242.386793 155.763667 
L 242.610105 160.995405 
L 242.833417 169.181088 
L 243.056728 170.227435 
L 243.28004 167.088393 
L 243.726663 169.366185 
L 243.949975 167.088393 
L 244.173287 168.319837 
L 244.396598 172.690324 
L 244.61991 172.690324 
L 244.843222 173.921769 
L 245.066533 172.875421 
L 245.513157 160.995405 
L 245.736468 166.597336 
L 245.95978 135.021814 
L 246.406403 132.929119 
L 246.629715 132.929119 
L 246.853027 133.975467 
L 247.076338 131.882772 
L 247.29965 138.160857 
L 247.969585 131.882772 
L 248.192896 133.975467 
L 248.416208 131.882772 
L 248.862831 137.114509 
L 249.086143 136.068162 
L 249.309455 136.068162 
L 249.756078 145.485289 
L 249.97939 144.438942 
L 250.649325 139.207204 
L 250.872636 141.299899 
L 251.095948 140.253552 
L 251.31926 144.438942 
L 251.542571 139.207204 
L 251.765883 139.207204 
L 251.989195 142.346247 
L 252.435818 139.207204 
L 252.65913 142.346247 
L 252.882441 142.346247 
L 253.105753 149.670679 
L 253.329065 150.717027 
L 253.552376 150.717027 
L 253.775688 149.670679 
L 253.998999 150.717027 
L 254.222311 153.856069 
L 254.668934 148.624332 
L 254.892246 150.717027 
L 255.115558 148.624332 
L 255.562181 148.624332 
L 255.785493 144.438942 
L 256.008804 149.670679 
L 256.232116 146.531637 
L 256.455428 146.531637 
L 256.678739 145.485289 
L 256.902051 145.485289 
L 257.125363 149.670679 
L 257.348674 146.531637 
L 257.571986 150.717027 
L 257.795298 176.875714 
L 258.018609 166.412239 
L 258.241921 177.922062 
L 258.465233 174.783019 
L 258.911856 178.968409 
L 259.135168 178.968409 
L 259.581791 164.319544 
L 259.805103 164.319544 
L 260.028414 163.273197 
L 260.251726 164.319544 
L 260.475038 162.226849 
L 260.698349 162.226849 
L 260.921661 185.125632 
L 261.144972 172.014171 
L 261.368284 176.569755 
L 261.591596 178.66245 
L 261.814907 193.375549 
L 262.038219 188.819965 
L 262.261531 194.2368 
L 262.484842 205.440663 
L 262.708154 201.070176 
L 263.154777 181.801492 
L 263.378089 184.264381 
L 263.601401 190.91266 
L 263.824712 189.866313 
L 264.048024 190.91266 
L 264.271336 194.421897 
L 264.494647 195.653341 
L 264.717959 194.792091 
L 264.941271 188.819965 
L 265.164582 191.097757 
L 265.611206 187.958715 
L 265.834517 194.792091 
L 266.057829 192.699396 
L 266.504452 194.792091 
L 266.727764 194.792091 
L 266.951076 196.884786 
L 267.174387 194.606994 
L 267.397699 197.931133 
L 267.621011 197.746036 
L 267.844322 200.023828 
L 268.067634 198.792384 
L 268.290945 195.468244 
L 268.514257 195.468244 
L 268.737569 198.792384 
L 268.96088 196.514592 
L 269.184192 196.514592 
L 269.407504 199.653634 
L 269.630815 195.283147 
L 269.854127 206.672107 
L 270.077439 198.607287 
L 270.30075 197.746036 
L 270.524062 195.653341 
L 270.747374 202.30162 
L 270.970685 200.023828 
L 271.193997 202.30162 
L 271.417309 202.486717 
L 271.64062 202.30162 
L 271.863932 203.347968 
L 272.087244 209.320093 
L 272.310555 205.995954 
L 272.533867 229.51743 
L 272.757179 235.304458 
L 272.98049 252.850641 
L 273.203802 254.082085 
L 273.650425 240.60043 
L 274.097049 248.10996 
L 274.32036 244.78582 
L 274.543672 239.183889 
L 274.766983 241.276584 
L 274.990295 241.276584 
L 275.66023 225.702234 
L 275.883542 224.470789 
L 276.106853 226.748581 
L 276.330165 231.119068 
L 276.553477 226.748581 
L 276.776788 225.887331 
L 277.223412 230.257818 
L 277.446723 237.952444 
L 277.670035 237.952444 
L 277.893347 233.39686 
L 278.116658 231.304165 
L 278.33997 232.350513 
L 278.563282 235.674652 
L 278.786593 231.489262 
L 279.009905 231.674359 
L 279.233217 231.674359 
L 279.456528 237.276291 
L 279.903152 231.674359 
L 280.126463 231.674359 
L 280.349775 230.442915 
L 280.573087 240.785527 
L 280.796398 240.785527 
L 281.01971 243.063319 
L 281.243022 235.183596 
L 281.466333 235.183596 
L 281.689645 232.905804 
L 281.912956 228.35022 
L 282.136268 231.489262 
L 282.35958 238.322638 
L 282.582891 238.322638 
L 282.806203 243.92457 
L 283.029515 241.646778 
L 283.252826 230.257818 
L 283.476138 234.813402 
L 283.69945 234.628305 
L 283.922761 234.813402 
L 284.146073 231.489262 
L 284.369385 231.489262 
L 284.592696 237.276291 
L 284.816008 237.461388 
L 285.03932 229.396567 
L 285.485943 229.396567 
L 285.709255 225.887331 
L 285.932566 230.442915 
L 286.155878 242.813988 
L 286.602501 234.378973 
L 286.825813 238.564363 
L 287.049125 235.610418 
L 287.272436 238.74946 
L 287.495748 236.656765 
L 287.71906 236.841862 
L 287.942371 242.443794 
L 288.165683 233.332626 
L 288.612306 223.171942 
L 288.835618 233.332626 
L 289.058929 231.912916 
L 289.282241 236.656765 
L 289.505553 235.610418 
L 289.728864 233.517723 
L 289.952176 230.005318 
L 290.175488 230.866569 
L 290.398799 229.635124 
L 290.622111 232.959264 
L 290.845423 229.820221 
L 291.515358 236.841862 
L 291.738669 244.906683 
L 292.185293 237.026959 
L 292.408604 244.045432 
L 292.855228 239.860042 
L 293.078539 238.628598 
L 293.525163 244.78582 
L 293.971786 232.350513 
L 294.195098 231.304165 
L 294.418409 232.53561 
L 294.641721 237.091194 
L 294.865033 237.091194 
L 295.088344 234.813402 
L 295.534967 234.813402 
L 295.981591 246.202362 
L 296.204902 243.92457 
L 296.428214 243.92457 
L 296.651526 238.507735 
L 296.874837 245.156014 
L 297.098149 245.156014 
L 297.544772 241.155721 
L 297.768084 243.803707 
L 297.991396 241.155721 
L 298.214707 242.387166 
L 298.438019 241.155721 
L 298.661331 238.877929 
L 298.884642 238.877929 
L 299.107954 239.063026 
L 299.331266 241.155721 
L 299.554577 236.600137 
L 299.777889 236.600137 
L 300.224512 246.757653 
L 300.894447 226.442622 
L 301.117759 225.766468 
L 301.341071 225.766468 
L 301.787694 228.04426 
L 302.011006 226.997913 
L 302.234317 219.303286 
L 302.457629 215.979147 
L 302.904252 219.488383 
L 303.127564 217.210591 
L 303.574187 206.564155 
L 303.797499 208.841947 
L 304.02081 184.896816 
L 304.244122 184.711719 
L 304.467434 193.822887 
L 304.690745 194.007984 
L 304.914057 194.869235 
L 305.137369 178.248537 
L 305.36068 177.387287 
L 305.583992 175.294592 
L 306.030615 156.02274 
L 306.253927 166.180256 
L 306.477239 165.50727 
L 306.70055 159.229185 
L 306.923862 161.692074 
L 307.147174 160.46063 
L 307.370485 163.969866 
L 307.593797 155.413989 
L 307.817109 153.321294 
L 308.04042 155.599086 
L 308.487044 157.691781 
L 308.710355 157.691781 
L 308.933667 150.367349 
L 309.156978 149.321001 
L 309.38029 140.580027 
L 309.603602 140.580027 
L 309.826913 142.857819 
L 310.050225 140.580027 
L 310.496848 156.339474 
L 310.72016 165.635739 
L 310.943472 163.17285 
L 311.166783 181.395186 
L 311.390095 186.135867 
L 311.613407 178.811435 
L 311.836718 175.302198 
L 312.06003 174.255851 
L 312.283342 180.042879 
L 312.506653 180.042879 
L 312.729965 178.996532 
L 312.953277 181.274324 
L 313.3999 177.765087 
L 313.623212 173.024406 
L 313.846523 172.469115 
L 314.069835 168.589685 
L 314.293147 167.543337 
L 314.516458 152.274947 
L 314.73977 163.663907 
L 314.963082 165.756602 
L 315.186393 151.968987 
L 315.409705 153.691488 
L 315.633017 151.968987 
L 316.07964 152.524278 
L 316.302951 150.246486 
L 316.749575 153.755723 
L 316.972886 151.477931 
L 317.196198 151.477931 
L 317.41951 151.663028 
L 317.642821 151.663028 
L 317.866133 149.385236 
L 318.089445 156.894765 
L 318.312756 156.894765 
L 318.536068 155.172264 
L 318.982691 147.662735 
L 319.206003 150.61668 
L 319.429315 145.875999 
L 319.652626 145.875999 
L 319.875938 146.552153 
L 320.09925 146.367056 
L 320.322561 156.154377 
L 320.545873 149.321001 
L 320.769185 150.92264 
L 320.992496 149.691195 
L 321.215808 149.321001 
L 321.43912 140.580027 
L 321.662431 140.39493 
L 321.885743 139.348583 
L 322.332366 149.321001 
L 323.002301 142.857819 
L 323.225613 145.320708 
L 323.448924 142.857819 
L 323.672236 138.117138 
L 323.895548 142.487625 
L 324.118859 149.812058 
L 324.342171 149.626961 
L 324.565483 149.626961 
L 324.788794 147.534266 
L 325.012106 148.76571 
L 325.458729 155.413989 
L 325.682041 149.812058 
L 325.905353 152.08985 
L 326.128664 153.136197 
L 326.351976 150.673308 
L 326.575288 152.08985 
L 326.798599 150.673308 
L 327.021911 148.207251 
L 327.245223 146.975807 
L 327.468534 146.975807 
L 327.691846 148.207251 
L 327.915158 147.160904 
L 328.361781 154.670433 
L 328.585093 154.485336 
L 328.808404 152.207544 
L 329.031716 143.096376 
L 329.255028 144.327821 
L 329.478339 144.327821 
L 329.701651 138.234833 
L 329.924962 135.771944 
L 330.148274 145.929459 
L 330.371586 150.673308 
L 330.594897 151.719656 
L 330.818209 148.392348 
L 331.041521 142.790417 
L 331.264832 153.997448 
L 331.488144 154.858698 
L 331.711456 153.812351 
L 331.934767 150.114849 
L 332.158079 154.670433 
L 332.381391 154.670433 
L 332.604702 159.229185 
L 332.828014 167.414868 
L 333.051326 155.905046 
L 333.274637 167.414868 
L 333.497949 157.997741 
L 333.721261 161.136783 
L 333.944572 162.183131 
L 334.167884 175.785648 
L 334.391196 169.507563 
L 334.614507 175.785648 
L 334.837819 170.553911 
L 335.284442 175.785648 
L 335.731066 161.136783 
L 335.954377 164.275826 
L 336.177689 162.183131 
L 336.401001 166.368521 
L 336.624312 166.368521 
L 336.847624 153.812351 
L 337.070935 156.951393 
L 337.294247 156.951393 
L 337.517559 155.905046 
L 337.74087 153.136197 
L 337.964182 147.90446 
L 338.187494 158.061975 
L 338.410805 159.663614 
L 338.634117 153.570626 
L 339.304052 145.690902 
L 339.527364 144.644555 
L 339.750675 141.135318 
L 339.973987 141.505512 
L 340.197299 146.246193 
L 340.42061 144.153498 
L 340.643922 143.968401 
L 340.867234 146.061096 
L 341.090545 137.875413 
L 341.313857 154.496111 
L 341.76048 162.560931 
L 341.983792 181.274324 
L 342.207104 185.829908 
L 342.430415 174.626045 
L 342.877039 174.626045 
L 343.10035 178.320378 
L 343.323662 177.088934 
L 343.993597 161.208624 
L 344.216908 161.208624 
L 344.44022 162.440069 
L 344.663532 164.717861 
L 344.886843 161.578818 
L 345.110155 161.578818 
L 345.333467 162.625166 
L 345.556778 161.578818 
L 345.78009 159.301026 
L 346.003402 159.301026 
L 346.226713 158.441911 
L 346.450025 160.719703 
L 346.673337 157.395564 
L 347.11996 132.339852 
L 347.343272 145.449177 
L 347.566583 150.004761 
L 348.013207 141.45102 
L 348.236518 140.034478 
L 348.45983 145.449177 
L 348.683142 143.356482 
L 348.906453 143.171385 
L 349.129765 141.07869 
L 349.353077 151.727262 
L 349.576388 149.819664 
L 350.023012 155.979022 
L 350.246323 155.117772 
L 350.469635 157.395564 
L 350.692946 153.025076 
L 350.916258 155.302868 
L 351.13957 149.886034 
L 351.362881 147.608242 
L 351.586193 148.284396 
L 351.809505 154.932675 
L 352.032816 152.654883 
L 352.256128 156.164119 
L 352.47944 157.395564 
L 352.702751 150.562188 
L 352.926063 154.745442 
L 353.149375 162.931125 
L 353.372686 150.680915 
L 353.595998 158.190444 
L 353.81931 157.329194 
L 354.042621 154.190151 
L 354.489245 159.792083 
L 354.712556 153.328901 
L 354.935868 151.051109 
L 355.15918 162.375834 
L 355.605803 157.514291 
L 355.829115 158.069582 
L 356.052426 161.393721 
L 356.275738 159.301026 
L 356.49905 161.393721 
L 356.722361 150.562188 
L 357.168984 158.930832 
L 357.392296 160.162277 
L 357.615608 162.254972 
L 357.838919 159.97718 
L 358.062231 164.347667 
L 358.285543 162.069875 
L 358.508854 165.208917 
L 358.732166 171.672099 
L 358.955478 172.903544 
L 359.178789 169.764501 
L 359.402101 151.978729 
L 359.625413 153.025076 
L 360.295348 158.256814 
L 360.518659 157.210467 
L 360.741971 153.025076 
L 360.965283 154.071424 
L 361.188594 154.071424 
L 361.411906 151.978729 
L 361.635218 145.700644 
L 361.858529 145.700644 
L 362.081841 154.071424 
L 362.305153 154.071424 
L 362.528464 156.164119 
L 362.751776 154.071424 
L 362.975088 162.440069 
L 363.198399 159.301026 
L 363.421711 163.486416 
L 363.645023 157.210467 
L 363.868334 165.579111 
L 364.091646 161.393721 
L 364.314957 161.393721 
L 364.538269 159.301026 
L 364.761581 159.301026 
L 364.984892 158.256814 
L 365.208204 156.164119 
L 365.878139 156.164119 
L 366.548074 153.025076 
L 366.771386 147.793339 
L 366.994697 151.608535 
L 367.218009 167.553079 
L 367.441321 158.879507 
L 367.664632 156.601715 
L 367.887944 171.25058 
L 368.111256 171.065484 
L 368.557879 154.375248 
L 368.781191 152.097456 
L 369.004502 141.07869 
L 369.227814 145.821507 
L 369.451126 141.07869 
L 369.674437 147.912066 
L 369.897749 146.495525 
L 370.121061 158.745735 
L 370.344372 163.671513 
L 370.567684 158.441911 
L 370.790995 156.164119 
L 371.237619 164.22894 
L 371.46093 164.22894 
L 371.684242 159.673356 
L 371.907554 174.204526 
L 372.130865 163.671513 
L 372.354177 165.949305 
L 372.577489 165.949305 
L 372.8008 164.043843 
L 373.024112 168.042 
L 373.247424 166.995653 
L 373.470735 173.829029 
L 373.694047 158.997202 
L 373.917359 155.673062 
L 374.363982 160.413743 
L 374.587294 164.787398 
L 375.033917 164.787398 
L 375.257229 164.972495 
L 375.48054 164.111245 
L 375.703852 154.323923 
L 375.927164 157.83316 
L 376.597099 141.394391 
L 377.043722 157.462966 
L 377.267034 155.182006 
L 377.490345 159.740758 
L 377.713657 153.277576 
L 377.936968 152.042963 
L 378.16028 149.092186 
L 378.383592 157.648063 
L 378.606903 154.50902 
L 378.830215 154.879214 
L 379.053527 154.879214 
L 379.276838 167.435384 
L 379.723462 147.369685 
L 379.946773 146.693531 
L 380.170085 150.878921 
L 380.616708 153.089311 
L 380.84002 157.274701 
L 381.063332 153.580367 
L 381.509955 157.274701 
L 381.733267 159.182299 
L 381.956578 155.858159 
L 382.17989 158.135951 
L 382.626513 168.111538 
L 382.849825 166.018843 
L 383.073137 168.972788 
L 383.296448 167.926441 
L 383.51976 171.25058 
L 383.743072 166.880093 
L 383.966383 167.738176 
L 384.189695 167.926441 
L 384.413007 169.342982 
L 384.636318 169.342982 
L 384.85963 173.343276 
L 385.082941 171.065484 
L 385.306253 175.621068 
L 385.752876 164.787398 
L 385.976188 164.787398 
L 386.1995 167.435384 
L 386.422811 176.546552 
L 386.646123 171.990968 
L 386.869435 156.043256 
L 387.092746 150.811519 
L 387.316058 150.996616 
L 387.762681 173.40751 
L 387.985993 170.08337 
L 388.209305 161.342396 
L 388.432616 161.527493 
L 388.655928 163.805285 
L 388.87924 163.620188 
L 389.102551 159.619895 
L 389.325863 173.037316 
L 389.549175 160.666243 
L 389.995798 154.388158 
L 390.21911 156.480853 
L 390.442421 150.202768 
L 390.665733 147.063725 
L 390.889045 148.110073 
L 391.112356 148.110073 
L 391.335668 151.249115 
L 391.558979 159.619895 
L 391.782291 154.388158 
L 392.005603 156.480853 
L 392.228914 156.480853 
L 392.675538 149.15642 
L 392.898849 149.15642 
L 393.122161 150.202768 
L 393.568784 166.944328 
L 393.792096 173.222413 
L 394.015408 156.480853 
L 394.238719 153.34181 
L 394.462031 154.388158 
L 394.685343 153.34181 
L 394.908654 157.5272 
L 395.131966 159.619895 
L 395.355278 167.990675 
L 395.578589 189.961838 
L 395.801901 193.10088 
L 396.025213 177.407803 
L 396.248524 172.176065 
L 396.471836 175.315108 
L 396.695148 174.26876 
L 397.141771 188.91549 
L 397.365083 196.239923 
L 397.588394 210.888788 
L 397.811706 170.134695 
L 398.035018 179.551823 
L 398.258329 179.060766 
L 398.481641 198.638577 
L 398.704952 190.0827 
L 398.928264 192.360492 
L 399.151576 180.85067 
L 399.598199 205.047267 
L 399.821511 206.767632 
L 400.044822 233.730942 
L 400.268134 231.45315 
L 400.491446 260.69742 
L 400.938069 273.993978 
L 401.161381 275.531382 
L 401.384692 265.067907 
L 401.608004 260.882517 
L 401.831316 273.011865 
L 402.054627 272.456574 
L 402.277939 270.363879 
L 402.501251 272.641671 
L 402.947874 268.456281 
L 403.171186 280.706492 
L 403.394497 285.012744 
L 403.617809 273.623784 
L 403.841121 297.568914 
L 404.287744 315.356822 
L 404.511056 307.847292 
L 404.957679 309.939987 
L 405.18099 300.828819 
L 405.404302 302.736417 
L 405.627614 320.033268 
L 405.850925 305.014209 
L 406.074237 309.75489 
L 406.297549 301.38411 
L 406.52086 301.38411 
L 406.744172 289.621788 
L 406.967484 297.992568 
L 407.190795 292.945928 
L 407.414107 296.273235 
L 407.637419 292.087845 
L 407.86073 310.310181 
L 408.307354 301.69007 
L 408.530665 307.292001 
L 408.753977 309.569793 
L 408.977289 309.199599 
L 409.2006 315.662781 
L 409.423912 297.874874 
L 409.647224 310.431044 
L 409.870535 313.570086 
L 410.093847 305.199306 
L 410.54047 301.013916 
L 410.763782 310.431044 
L 410.987094 304.152959 
L 411.210405 315.662781 
L 411.433717 315.662781 
L 411.657029 317.755476 
L 411.88034 315.662781 
L 412.103652 321.940866 
L 412.326963 321.940866 
L 412.550275 317.755476 
L 412.996898 317.755476 
L 413.22021 328.218951 
L 413.443522 331.357994 
L 413.666833 322.987214 
L 413.890145 322.987214 
L 414.113457 309.384696 
L 414.336768 304.152959 
L 414.56008 302.060264 
L 414.783392 303.106611 
L 415.006703 302.060264 
L 415.230015 304.152959 
L 415.453327 298.921221 
L 415.676638 296.828526 
L 415.89995 296.828526 
L 416.123262 299.967569 
L 416.346573 296.828526 
L 416.569885 295.782179 
L 417.23982 295.782179 
L 417.463132 296.828526 
L 417.686443 296.828526 
L 417.909755 293.689484 
L 418.133067 297.874874 
L 418.356378 292.643136 
L 418.57969 293.689484 
L 418.803002 293.198427 
L 419.026313 273.623784 
L 419.249625 296.216607 
L 419.472936 305.327775 
L 419.696248 295.846413 
L 419.91956 309.698262 
L 420.142871 298.494399 
L 420.366183 315.976347 
L 420.589495 311.235666 
L 420.812806 263.76906 
L 421.25943 256.259531 
L 421.482741 257.676072 
L 421.706053 245.304999 
L 421.929365 243.212304 
L 422.152676 239.147777 
L 422.375988 224.804871 
L 422.5993 218.526786 
L 422.822611 202.157555 
L 423.045923 195.324179 
L 423.269235 197.601971 
L 423.492546 192.676193 
L 423.715858 204.065153 
L 423.93917 188.120609 
L 424.162481 181.657427 
L 424.385793 181.657427 
L 424.832416 186.213011 
L 425.055728 179.379635 
L 425.27904 177.101843 
L 425.502351 188.796763 
L 425.725663 193.046387 
L 425.948974 193.046387 
L 426.395598 224.750378 
L 426.618909 211.083626 
L 426.842221 214.407766 
L 427.065533 202.157555 
L 427.288844 209.111794 
L 427.512156 204.55621 
L 427.735468 202.278418 
L 427.958779 205.602557 
L 428.182091 203.509862 
L 428.405403 204.741307 
L 428.628714 202.463515 
L 428.852026 204.065153 
L 429.075338 199.509569 
L 429.298649 213.112087 
L 429.521961 183.379928 
L 429.745273 183.379928 
L 429.968584 179.194538 
L 430.191896 195.936099 
L 430.415208 191.750708 
L 430.638519 189.658013 
L 430.861831 189.658013 
L 431.531766 195.936099 
L 431.755078 195.936099 
L 431.978389 206.397438 
L 432.201701 205.351091 
L 432.425013 205.351091 
L 432.648324 221.046303 
L 432.871636 221.046303 
L 433.094947 231.509778 
L 433.318259 204.916662 
L 433.541571 248.066241 
L 433.764882 221.288028 
L 433.988194 213.034943 
L 434.211506 210.757151 
L 434.881441 252.796148 
L 435.104752 221.647448 
L 435.328064 207.738971 
L 435.551376 214.08129 
L 435.997999 209.710803 
L 436.221311 209.710803 
L 436.444622 207.433011 
L 436.667934 195.182801 
L 436.891246 202.69233 
L 437.114557 195.858954 
L 437.337869 197.766552 
L 437.561181 198.136746 
L 437.784492 193.396065 
L 438.007804 192.840774 
L 438.454427 203.304249 
L 438.677739 185.26701 
L 438.901051 194.378178 
L 439.124362 197.332124 
L 439.570985 179.109788 
L 440.017609 165.439868 
L 440.24092 164.39352 
L 440.464232 156.02274 
L 440.687544 162.300825 
L 440.910855 173.810648 
L 441.134167 176.949691 
L 441.357479 175.903343 
L 441.804102 177.996038 
L 442.027414 172.764301 
L 442.250725 172.764301 
L 442.474037 176.949691 
L 442.697349 183.22564 
L 442.92066 174.856996 
L 443.143972 155.521942 
L 443.367284 159.031179 
L 443.590595 131.697675 
L 443.813907 143.086635 
L 444.037219 143.086635 
L 444.26053 138.531051 
L 444.483842 149.43109 
L 444.707154 140.875213 
L 444.930465 144.690409 
L 445.153777 144.503176 
L 445.377089 142.225384 
L 445.6004 142.040287 
L 445.823712 145.364427 
L 446.047024 158.846082 
L 446.270335 160.077526 
L 446.716958 164.63311 
L 447.163582 161.123874 
L 447.386893 153.24415 
L 447.833517 159.828195 
L 448.056828 154.596457 
L 448.28014 176.423977 
L 448.503452 172.862238 
L 448.726763 140.78896 
L 448.950075 168.877801 
L 449.173387 174.310492 
L 449.396698 173.465098 
L 449.62001 197.492679 
L 450.066633 127.50519 
L 450.289945 136.499621 
L 450.513257 126.86075 
L 450.736568 108.629355 
L 451.183192 150.924607 
L 451.406503 159.339102 
L 451.853127 164.993537 
L 452.076438 164.993537 
L 452.29975 154.086575 
L 452.523062 156.601967 
L 452.746373 170.647971 
L 452.969685 161.230844 
L 453.192996 161.230844 
L 453.416308 155.798153 
L 453.63962 160.828937 
L 453.862931 137.788501 
L 454.086243 144.891191 
L 454.309555 131.04614 
L 454.532866 126.015356 
L 454.756178 78.199982 
L 454.97949 90.555199 
L 455.202801 121.363553 
L 455.426113 105.046826 
L 455.649425 110.07761 
L 455.872736 112.593002 
L 456.096048 103.376828 
L 456.31936 102.974921 
L 456.542671 113.237442 
L 456.765983 100.660482 
L 457.212606 120.159968 
L 457.65923 104.222222 
L 457.882541 81.583694 
L 458.329165 105.712056 
L 458.552476 111.789187 
L 458.775788 100.681272 
L 458.9991 101.325712 
L 459.222411 89.594146 
L 459.445723 84.563362 
L 459.669035 89.594146 
L 459.892346 103.439197 
L 460.115658 91.950165 
L 460.338969 96.980949 
L 460.562281 96.980949 
L 461.008904 110.160769 
L 461.232216 112.676161 
L 461.455528 117.706945 
L 461.678839 138.654685 
L 461.902151 141.170077 
L 462.125463 131.953903 
L 462.348774 134.469295 
L 462.572086 134.469295 
L 462.795398 138.231988 
L 463.018709 135.716596 
L 463.242021 130.283905 
L 463.465333 127.768513 
L 463.688644 130.283905 
L 463.911956 130.283905 
L 464.135268 123.38217 
L 464.358579 132.577554 
L 464.581891 120.222337 
L 464.805203 120.222337 
L 465.028514 115.191553 
L 465.251826 124.185984 
L 465.475138 116.861551 
L 465.698449 94.888254 
L 466.145073 89.656516 
L 466.368384 95.934601 
L 467.038319 95.934601 
L 467.261631 110.583466 
L 467.484942 103.259034 
L 467.708254 105.351729 
L 467.931566 109.537119 
L 468.154877 103.259034 
L 468.378189 108.511561 
L 468.601501 119.418523 
L 469.048124 148.754665 
L 469.271436 146.239273 
L 469.494747 141.208489 
L 469.941371 190.005705 
L 470.164682 192.72205 
L 470.387994 156.501795 
L 470.611306 163.625274 
L 470.834617 162.578926 
L 471.057929 132.175647 
L 471.281241 139.500079 
L 471.504552 133.000251 
L 471.727864 130.484859 
L 471.951176 131.108509 
L 472.174487 129.840418 
L 472.397799 135.91755 
L 472.621111 124.809634 
L 472.844422 124.809634 
L 473.067734 137.386594 
L 473.291046 136.340247 
L 473.514357 143.664679 
L 473.737669 123.96424 
L 473.96098 115.149973 
L 474.184292 115.149973 
L 474.407604 113.279022 
L 474.630915 102.171106 
L 474.854227 122.696149 
L 475.077539 125.211541 
L 475.30085 120.180757 
L 475.524162 129.396931 
L 475.970785 86.815431 
L 476.194097 98.969694 
L 476.417409 97.50065 
L 476.64072 111.546654 
L 476.864032 112.593002 
L 477.087344 109.654913 
L 477.310655 97.722393 
L 477.533967 101.70683 
L 477.757279 96.676046 
L 478.203902 96.676046 
L 478.427214 104.222222 
L 478.650525 121.608222 
L 478.873837 121.608222 
L 479.097149 125.592659 
L 479.32046 116.799182 
L 479.543772 118.46918 
L 479.990395 106.737614 
L 480.213707 104.222222 
L 480.437019 110.299353 
L 480.66033 99.191438 
L 480.883642 98.14509 
L 481.106953 95.629698 
L 481.330265 81.805437 
L 481.553577 84.320829 
L 481.776888 84.320829 
L 482.0002 93.537003 
L 482.223512 92.913353 
L 482.670135 70.496568 
L 482.893447 71.764659 
L 483.116758 93.31526 
L 483.34007 63.130556 
L 483.563382 75.707516 
L 483.786693 69.408641 
L 484.010005 78.624815 
L 484.456628 59.76977 
L 484.67994 55.58438 
L 484.903252 56.007077 
L 485.126563 69.408641 
L 485.349875 66.470552 
L 485.573187 72.122851 
L 485.796498 80.715374 
L 486.01981 83.230766 
L 486.243122 91.201775 
L 486.466433 93.093516 
L 486.689745 105.670476 
L 486.913057 106.938567 
L 487.136368 106.938567 
L 487.35968 118.46918 
L 487.582991 123.922661 
L 487.806303 105.913009 
L 488.029615 108.005705 
L 488.252926 117.845529 
L 488.476238 111.567444 
L 488.69955 165.437024 
L 488.922861 170.890505 
L 489.146173 196.041257 
L 489.592796 186.405553 
L 489.816108 173.204943 
L 490.03942 167.973205 
L 490.262731 186.405553 
L 490.486043 185.359206 
L 490.709355 180.328422 
L 490.932666 133.582321 
L 491.155978 113.459185 
L 491.37929 116.598228 
L 491.602601 109.052052 
L 491.825913 133.159625 
L 492.049225 128.128841 
L 492.272536 112.593002 
L 492.495848 140.463267 
L 492.71916 132.293441 
L 492.942471 140.463267 
L 493.165783 142.978659 
L 493.389095 118.446254 
L 493.612406 115.732044 
L 493.835718 110.500307 
L 494.05903 112.392048 
L 494.728964 121.407269 
L 494.952276 123.922661 
L 495.175588 133.984229 
L 495.398899 131.468837 
L 495.622211 87.099544 
L 495.845523 128.953445 
L 496.068834 132.515184 
L 496.292146 147.80849 
L 496.515458 195.600938 
L 496.738769 178.794872 
L 496.962081 173.341391 
L 497.185393 180.042173 
L 497.408704 179.619476 
L 497.855328 145.249382 
L 498.078639 168.712514 
L 498.525263 155.29016 
L 498.748574 163.259033 
L 499.195198 154.66651 
L 499.641821 142.311293 
L 499.865133 142.311293 
L 500.088444 210.226877 
L 500.311756 227.834621 
L 500.535068 235.377629 
L 500.758379 273.953903 
L 500.981691 284.015471 
L 501.205003 303.71591 
L 501.428314 295.32434 
L 501.651626 297.839732 
L 501.874937 296.571641 
L 502.098249 321.101911 
L 502.321561 317.540171 
L 502.544872 309.993995 
L 502.768184 325.931741 
L 502.991496 318.385565 
L 503.214807 259.062505 
L 503.438119 256.768856 
L 503.661431 257.59346 
L 503.884742 259.263458 
L 504.108054 263.448848 
L 504.777989 248.377286 
L 505.001301 245.439197 
L 505.224612 245.0165 
L 505.447924 261.959014 
L 505.671236 265.96424 
L 505.894547 205.598 
L 506.117859 203.928002 
L 506.341171 204.350699 
L 506.564482 206.242441 
L 506.787794 154.731015 
L 507.011106 153.684668 
L 507.234417 145.736585 
L 507.457729 125.211541 
L 507.681041 115.149973 
L 507.904352 146.138492 
L 508.127664 198.072614 
L 508.350975 198.072614 
L 508.797599 177.547571 
L 509.02091 173.362181 
L 509.467534 173.362181 
L 509.690845 164.148143 
L 509.914157 167.063306 
L 510.137469 167.063306 
L 510.584092 167.9087 
L 510.807404 163.300613 
L 511.030715 162.254266 
L 511.254027 158.692526 
L 511.477339 161.831569 
L 511.70065 146.115566 
L 511.923962 151.14635 
L 512.147274 142.311293 
L 512.370585 169.178927 
L 512.593897 179.86201 
L 512.817209 174.831226 
L 513.04052 181.331054 
L 513.263832 146.739217 
L 513.487144 157.424435 
L 513.710455 144.424778 
L 513.933767 149.455562 
L 514.38039 134.36321 
L 514.603702 138.971297 
L 514.827014 136.455905 
L 515.050325 152.594605 
L 515.273637 155.532694 
L 515.72026 149.455562 
L 515.943572 146.94017 
L 516.166883 165.150775 
L 516.390195 145.270172 
L 516.613507 171.227906 
L 516.836818 162.011732 
L 517.06013 157.604599 
L 517.283442 134.36321 
L 517.506753 126.817034 
L 517.730065 109.20929 
L 517.953377 109.20929 
L 518.176688 111.703892 
L 518.4 117.358327 
L 518.4 117.358327 
" style="fill:none;stroke:#4c72b0;stroke-linecap:round;stroke-width:1.75;"/>
   </g>
   <g id="patch_3">
    <path d="M 72 356.4 
L 518.4 356.4 
" style="fill:none;"/>
   </g>
   <g id="patch_4">
    <path d="M 72 39.6 
L 518.4 39.6 
" style="fill:none;"/>
   </g>
   <g id="patch_5">
    <path d="M 72 356.4 
L 72 39.6 
" style="fill:none;"/>
   </g>
   <g id="patch_6">
    <path d="M 518.4 356.4 
L 518.4 39.6 
" style="fill:none;"/>
   </g>
   <g id="text_11">
    <!-- l - 0.6740539999815811 * pb -->
    <defs>
     <path d="M 9.125 0 
L 9.125 10.6875 
L 18.65625 10.6875 
L 18.65625 0 
z
" id="LiberationSans-2e"/>
     <path d="M 50.59375 61.671875 
Q 45.40625 53.765625 41.0625 46.453125 
Q 36.71875 39.15625 33.59375 31.75 
Q 30.46875 24.359375 28.734375 16.578125 
Q 27 8.796875 27 0 
L 17.828125 0 
Q 17.828125 8.25 19.78125 16.1875 
Q 21.734375 24.125 25.046875 31.765625 
Q 28.375 39.40625 32.765625 46.78125 
Q 37.15625 54.15625 42.09375 61.328125 
L 5.125 61.328125 
L 5.125 68.796875 
L 50.59375 68.796875 
z
" id="LiberationSans-37"/>
     <path d="M 51.421875 26.65625 
Q 51.421875 20.65625 50.4375 15.578125 
Q 49.46875 10.5 47.1875 6.828125 
Q 44.921875 3.171875 41.1875 1.09375 
Q 37.453125 -0.984375 31.984375 -0.984375 
Q 26.3125 -0.984375 22.0625 1.171875 
Q 17.828125 3.328125 15.578125 8.203125 
L 15.328125 8.203125 
Q 15.375 8.109375 15.40625 7.328125 
Q 15.4375 6.546875 15.453125 5.375 
Q 15.484375 4.203125 15.5 2.75 
Q 15.53125 1.3125 15.53125 -0.09375 
L 15.53125 -20.75 
L 6.734375 -20.75 
L 6.734375 42.046875 
Q 6.734375 43.953125 6.703125 45.703125 
Q 6.6875 47.46875 6.640625 48.90625 
Q 6.59375 50.34375 6.546875 51.359375 
Q 6.5 52.390625 6.453125 52.828125 
L 14.9375 52.828125 
Q 14.984375 52.6875 15.0625 51.796875 
Q 15.140625 50.921875 15.203125 49.671875 
Q 15.28125 48.4375 15.359375 47.015625 
Q 15.4375 45.609375 15.4375 44.34375 
L 15.625 44.34375 
Q 16.84375 46.875 18.40625 48.65625 
Q 19.96875 50.4375 21.96875 51.578125 
Q 23.96875 52.734375 26.4375 53.25 
Q 28.90625 53.765625 31.984375 53.765625 
Q 37.453125 53.765625 41.1875 51.8125 
Q 44.921875 49.859375 47.1875 46.3125 
Q 49.46875 42.78125 50.4375 37.765625 
Q 51.421875 32.765625 51.421875 26.65625 
M 42.1875 26.46875 
Q 42.1875 31.34375 41.59375 35.15625 
Q 41.015625 38.96875 39.578125 41.59375 
Q 38.140625 44.234375 35.734375 45.59375 
Q 33.34375 46.96875 29.734375 46.96875 
Q 26.8125 46.96875 24.21875 46.140625 
Q 21.625 45.3125 19.703125 42.96875 
Q 17.78125 40.625 16.65625 36.5 
Q 15.53125 32.375 15.53125 25.78125 
Q 15.53125 20.171875 16.453125 16.28125 
Q 17.390625 12.40625 19.171875 10.015625 
Q 20.953125 7.625 23.578125 6.5625 
Q 26.21875 5.515625 29.640625 5.515625 
Q 33.296875 5.515625 35.71875 6.921875 
Q 38.140625 8.34375 39.578125 11.03125 
Q 41.015625 13.71875 41.59375 17.59375 
Q 42.1875 21.484375 42.1875 26.46875 
" id="LiberationSans-70"/>
     <path d="M 22.265625 54.390625 
L 35.15625 59.421875 
L 37.359375 52.984375 
L 23.578125 49.421875 
L 32.625 37.203125 
L 26.8125 33.6875 
L 19.484375 46.296875 
L 11.859375 33.796875 
L 6.0625 37.3125 
L 15.28125 49.421875 
L 1.609375 52.984375 
L 3.8125 59.515625 
L 16.84375 54.296875 
L 16.265625 68.796875 
L 22.90625 68.796875 
z
" id="LiberationSans-2a"/>
     <path d="M 51.421875 26.65625 
Q 51.421875 -0.984375 31.984375 -0.984375 
Q 25.984375 -0.984375 22 1.1875 
Q 18.015625 3.375 15.53125 8.203125 
L 15.4375 8.203125 
Q 15.4375 6.9375 15.359375 5.5625 
Q 15.28125 4.203125 15.203125 3.03125 
Q 15.140625 1.859375 15.0625 1.03125 
Q 14.984375 0.203125 14.9375 0 
L 6.453125 0 
Q 6.5 0.4375 6.546875 1.484375 
Q 6.59375 2.546875 6.640625 4 
Q 6.6875 5.46875 6.703125 7.21875 
Q 6.734375 8.984375 6.734375 10.890625 
L 6.734375 72.46875 
L 15.53125 72.46875 
L 15.53125 51.8125 
Q 15.53125 50.34375 15.5 49 
Q 15.484375 47.65625 15.4375 46.625 
Q 15.375 45.40625 15.328125 44.34375 
L 15.53125 44.34375 
Q 17.96875 49.421875 22 51.609375 
Q 26.03125 53.8125 31.984375 53.8125 
Q 42 53.8125 46.703125 47.0625 
Q 51.421875 40.328125 51.421875 26.65625 
M 42.1875 26.375 
Q 42.1875 31.84375 41.5 35.75 
Q 40.828125 39.65625 39.3125 42.15625 
Q 37.796875 44.671875 35.453125 45.84375 
Q 33.109375 47.015625 29.734375 47.015625 
Q 26.265625 47.015625 23.609375 45.890625 
Q 20.953125 44.78125 19.171875 42.28125 
Q 17.390625 39.796875 16.453125 35.734375 
Q 15.53125 31.6875 15.53125 25.828125 
Q 15.53125 20.171875 16.453125 16.3125 
Q 17.390625 12.453125 19.171875 10.03125 
Q 20.953125 7.625 23.578125 6.5625 
Q 26.21875 5.515625 29.640625 5.515625 
Q 32.859375 5.515625 35.203125 6.640625 
Q 37.546875 7.765625 39.109375 10.25 
Q 40.671875 12.75 41.421875 16.71875 
Q 42.1875 20.703125 42.1875 26.375 
" id="LiberationSans-62"/>
     <path d="M 6.734375 0 
L 6.734375 72.46875 
L 15.53125 72.46875 
L 15.53125 0 
z
" id="LiberationSans-6c"/>
    </defs>
    <g style="fill:#262626;" transform="translate(217.8046875 34.6)scale(0.12 -0.12)">
     <use xlink:href="#LiberationSans-6c"/>
     <use x="22.216796875" xlink:href="#LiberationSans-20"/>
     <use x="50.0" xlink:href="#LiberationSans-2d"/>
     <use x="83.30078125" xlink:href="#LiberationSans-20"/>
     <use x="111.083984375" xlink:href="#LiberationSans-30"/>
     <use x="166.69921875" xlink:href="#LiberationSans-2e"/>
     <use x="194.482421875" xlink:href="#LiberationSans-36"/>
     <use x="250.09765625" xlink:href="#LiberationSans-37"/>
     <use x="305.712890625" xlink:href="#LiberationSans-34"/>
     <use x="361.328125" xlink:href="#LiberationSans-30"/>
     <use x="416.943359375" xlink:href="#LiberationSans-35"/>
     <use x="472.55859375" xlink:href="#LiberationSans-33"/>
     <use x="528.173828125" xlink:href="#LiberationSans-39"/>
     <use x="583.7890625" xlink:href="#LiberationSans-39"/>
     <use x="639.404296875" xlink:href="#LiberationSans-39"/>
     <use x="695.01953125" xlink:href="#LiberationSans-39"/>
     <use x="750.634765625" xlink:href="#LiberationSans-38"/>
     <use x="806.25" xlink:href="#LiberationSans-31"/>
     <use x="861.865234375" xlink:href="#LiberationSans-35"/>
     <use x="917.48046875" xlink:href="#LiberationSans-38"/>
     <use x="973.095703125" xlink:href="#LiberationSans-31"/>
     <use x="1028.7109375" xlink:href="#LiberationSans-31"/>
     <use x="1084.326171875" xlink:href="#LiberationSans-20"/>
     <use x="1112.109375" xlink:href="#LiberationSans-2a"/>
     <use x="1151.025390625" xlink:href="#LiberationSans-20"/>
     <use x="1178.80859375" xlink:href="#LiberationSans-70"/>
     <use x="1234.423828125" xlink:href="#LiberationSans-62"/>
    </g>
   </g>
  </g>
 </g>
 <defs>
  <clipPath id="p78876bab3e">
   <rect height="316.8" width="446.4" x="72.0" y="39.6"/>
  </clipPath>
 </defs>
</svg>
