<?xml version="1.0" encoding="utf-8" standalone="no"?>
<!DOCTYPE svg PUBLIC "-//W3C//DTD SVG 1.1//EN"
  "http://www.w3.org/Graphics/SVG/1.1/DTD/svg11.dtd">
<!-- Created with matplotlib (http://matplotlib.org/) -->
<svg height="396pt" version="1.1" viewBox="0 0 576 396" width="576pt" xmlns="http://www.w3.org/2000/svg" xmlns:xlink="http://www.w3.org/1999/xlink">
 <defs>
  <style type="text/css">
*{stroke-linecap:butt;stroke-linejoin:round;stroke-miterlimit:100000;}
  </style>
 </defs>
 <g id="figure_1">
  <g id="patch_1">
   <path d="M 0 396 
L 576 396 
L 576 0 
L 0 0 
z
" style="fill:#ffffff;"/>
  </g>
  <g id="axes_1">
   <g id="patch_2">
    <path d="M 72 356.4 
L 518.4 356.4 
L 518.4 39.6 
L 72 39.6 
z
" style="fill:#eaeaf2;"/>
   </g>
   <g id="matplotlib.axis_1">
    <g id="xtick_1">
     <g id="line2d_1">
      <path clip-path="url(#p01408eaa28)" d="M 72 356.4 
L 72 39.6 
" style="fill:none;stroke:#ffffff;stroke-linecap:round;"/>
     </g>
     <g id="line2d_2"/>
     <g id="line2d_3"/>
     <g id="text_1">
      <!-- 2014-11-26 09:56:00 -->
      <defs>
       <path d="M 5.03125 0 
L 5.03125 6.203125 
Q 7.515625 11.921875 11.109375 16.28125 
Q 14.703125 20.65625 18.65625 24.1875 
Q 22.609375 27.734375 26.484375 30.765625 
Q 30.375 33.796875 33.5 36.8125 
Q 36.625 39.84375 38.546875 43.15625 
Q 40.484375 46.484375 40.484375 50.6875 
Q 40.484375 53.609375 39.59375 55.828125 
Q 38.71875 58.0625 37.0625 59.5625 
Q 35.40625 61.078125 33.078125 61.828125 
Q 30.765625 62.59375 27.9375 62.59375 
Q 25.296875 62.59375 22.96875 61.859375 
Q 20.65625 61.140625 18.84375 59.671875 
Q 17.046875 58.203125 15.890625 56.03125 
Q 14.75 53.859375 14.40625 50.984375 
L 5.421875 51.8125 
Q 5.859375 55.515625 7.46875 58.78125 
Q 9.078125 62.0625 11.90625 64.53125 
Q 14.75 67 18.71875 68.40625 
Q 22.703125 69.828125 27.9375 69.828125 
Q 33.0625 69.828125 37.0625 68.609375 
Q 41.0625 67.390625 43.8125 64.984375 
Q 46.578125 62.59375 48.046875 59.078125 
Q 49.515625 55.5625 49.515625 50.984375 
Q 49.515625 47.515625 48.265625 44.390625 
Q 47.015625 41.265625 44.9375 38.421875 
Q 42.875 35.59375 40.140625 32.953125 
Q 37.40625 30.328125 34.421875 27.8125 
Q 31.453125 25.296875 28.421875 22.828125 
Q 25.390625 20.359375 22.71875 17.859375 
Q 20.0625 15.375 17.96875 12.8125 
Q 15.875 10.25 14.703125 7.46875 
L 50.59375 7.46875 
L 50.59375 0 
z
" id="LiberationSans-32"/>
       <path d="M 7.625 0 
L 7.625 7.46875 
L 25.140625 7.46875 
L 25.140625 60.40625 
L 9.625 49.3125 
L 9.625 57.625 
L 25.875 68.796875 
L 33.984375 68.796875 
L 33.984375 7.46875 
L 50.734375 7.46875 
L 50.734375 0 
z
" id="LiberationSans-31"/>
       <path d="M 51.421875 22.40625 
Q 51.421875 17.234375 49.859375 12.9375 
Q 48.296875 8.640625 45.21875 5.53125 
Q 42.140625 2.4375 37.578125 0.71875 
Q 33.015625 -0.984375 27 -0.984375 
Q 21.578125 -0.984375 17.546875 0.28125 
Q 13.53125 1.5625 10.734375 3.78125 
Q 7.953125 6 6.3125 8.984375 
Q 4.6875 11.96875 4 15.375 
L 12.890625 16.40625 
Q 13.421875 14.453125 14.390625 12.625 
Q 15.375 10.796875 17.0625 9.34375 
Q 18.75 7.90625 21.21875 7.046875 
Q 23.6875 6.203125 27.203125 6.203125 
Q 30.609375 6.203125 33.390625 7.25 
Q 36.1875 8.296875 38.15625 10.34375 
Q 40.140625 12.40625 41.203125 15.375 
Q 42.28125 18.359375 42.28125 22.21875 
Q 42.28125 25.390625 41.25 28.046875 
Q 40.234375 30.71875 38.328125 32.640625 
Q 36.421875 34.578125 33.65625 35.640625 
Q 30.90625 36.71875 27.390625 36.71875 
Q 25.203125 36.71875 23.34375 36.328125 
Q 21.484375 35.9375 19.890625 35.25 
Q 18.3125 34.578125 17.015625 33.671875 
Q 15.71875 32.765625 14.59375 31.78125 
L 6 31.78125 
L 8.296875 68.796875 
L 47.40625 68.796875 
L 47.40625 61.328125 
L 16.3125 61.328125 
L 14.984375 39.5 
Q 17.328125 41.3125 20.84375 42.59375 
Q 24.359375 43.890625 29.203125 43.890625 
Q 34.328125 43.890625 38.421875 42.328125 
Q 42.53125 40.765625 45.40625 37.90625 
Q 48.296875 35.0625 49.859375 31.109375 
Q 51.421875 27.15625 51.421875 22.40625 
" id="LiberationSans-35"/>
       <path d="M 51.703125 34.421875 
Q 51.703125 24.515625 49.828125 17.75 
Q 47.953125 10.984375 44.703125 6.8125 
Q 41.453125 2.640625 37.0625 0.828125 
Q 32.671875 -0.984375 27.6875 -0.984375 
Q 22.65625 -0.984375 18.3125 0.828125 
Q 13.96875 2.640625 10.765625 6.78125 
Q 7.5625 10.9375 5.734375 17.703125 
Q 3.90625 24.46875 3.90625 34.421875 
Q 3.90625 44.828125 5.734375 51.640625 
Q 7.5625 58.453125 10.78125 62.5 
Q 14.015625 66.546875 18.40625 68.1875 
Q 22.796875 69.828125 27.984375 69.828125 
Q 32.90625 69.828125 37.21875 68.1875 
Q 41.546875 66.546875 44.765625 62.5 
Q 48 58.453125 49.84375 51.640625 
Q 51.703125 44.828125 51.703125 34.421875 
M 42.78125 34.421875 
Q 42.78125 42.625 41.796875 48.0625 
Q 40.828125 53.515625 38.921875 56.765625 
Q 37.015625 60.015625 34.25 61.359375 
Q 31.5 62.703125 27.984375 62.703125 
Q 24.265625 62.703125 21.4375 61.328125 
Q 18.609375 59.96875 16.671875 56.71875 
Q 14.75 53.46875 13.765625 48.015625 
Q 12.796875 42.578125 12.796875 34.421875 
Q 12.796875 26.515625 13.796875 21.09375 
Q 14.796875 15.671875 16.71875 12.375 
Q 18.65625 9.078125 21.4375 7.640625 
Q 24.21875 6.203125 27.78125 6.203125 
Q 31.25 6.203125 34.03125 7.640625 
Q 36.8125 9.078125 38.734375 12.375 
Q 40.671875 15.671875 41.71875 21.09375 
Q 42.78125 26.515625 42.78125 34.421875 
" id="LiberationSans-30"/>
       <path d="M 50.875 35.796875 
Q 50.875 26.609375 49.140625 19.703125 
Q 47.40625 12.796875 44.1875 8.203125 
Q 40.96875 3.609375 36.34375 1.3125 
Q 31.734375 -0.984375 25.984375 -0.984375 
Q 22.015625 -0.984375 18.84375 -0.171875 
Q 15.671875 0.640625 13.171875 2.34375 
Q 10.6875 4.046875 8.921875 6.78125 
Q 7.171875 9.515625 6.109375 13.375 
L 14.5 14.703125 
Q 15.875 10.25 18.78125 8.171875 
Q 21.6875 6.109375 26.125 6.109375 
Q 29.6875 6.109375 32.640625 7.78125 
Q 35.59375 9.46875 37.671875 12.84375 
Q 39.75 16.21875 40.921875 21.296875 
Q 42.09375 26.375 42.1875 33.203125 
Q 41.15625 30.90625 39.375 29.09375 
Q 37.59375 27.296875 35.328125 26.046875 
Q 33.0625 24.8125 30.421875 24.140625 
Q 27.78125 23.484375 25.09375 23.484375 
Q 20.40625 23.484375 16.625 25.171875 
Q 12.84375 26.859375 10.203125 29.875 
Q 7.5625 32.90625 6.125 37.171875 
Q 4.6875 41.453125 4.6875 46.6875 
Q 4.6875 52 6.21875 56.296875 
Q 7.765625 60.59375 10.6875 63.59375 
Q 13.625 66.609375 17.890625 68.21875 
Q 22.171875 69.828125 27.59375 69.828125 
Q 39.0625 69.828125 44.96875 61.328125 
Q 50.875 52.828125 50.875 35.796875 
M 41.3125 44.28125 
Q 41.3125 48.09375 40.40625 51.453125 
Q 39.5 54.828125 37.71875 57.3125 
Q 35.9375 59.8125 33.328125 61.25 
Q 30.71875 62.703125 27.296875 62.703125 
Q 24.125 62.703125 21.578125 61.578125 
Q 19.046875 60.453125 17.28125 58.375 
Q 15.53125 56.296875 14.578125 53.3125 
Q 13.625 50.34375 13.625 46.6875 
Q 13.625 43.21875 14.46875 40.234375 
Q 15.328125 37.25 17.03125 35.078125 
Q 18.75 32.90625 21.28125 31.65625 
Q 23.828125 30.421875 27.203125 30.421875 
Q 29.640625 30.421875 32.15625 31.25 
Q 34.671875 32.078125 36.6875 33.78125 
Q 38.71875 35.5 40.015625 38.109375 
Q 41.3125 40.71875 41.3125 44.28125 
" id="LiberationSans-39"/>
       <path d="M 9.125 42.71875 
L 9.125 52.828125 
L 18.65625 52.828125 
L 18.65625 42.71875 
z
M 9.125 0 
L 9.125 10.109375 
L 18.65625 10.109375 
L 18.65625 0 
z
" id="LiberationSans-3a"/>
       <path d="M 51.21875 22.515625 
Q 51.21875 17.328125 49.78125 13 
Q 48.34375 8.6875 45.53125 5.578125 
Q 42.71875 2.484375 38.5625 0.75 
Q 34.421875 -0.984375 29 -0.984375 
Q 23 -0.984375 18.5 1.3125 
Q 14.015625 3.609375 11.03125 7.921875 
Q 8.0625 12.25 6.5625 18.53125 
Q 5.078125 24.8125 5.078125 32.8125 
Q 5.078125 42 6.765625 48.921875 
Q 8.453125 55.859375 11.625 60.5 
Q 14.796875 65.140625 19.359375 67.484375 
Q 23.921875 69.828125 29.6875 69.828125 
Q 33.203125 69.828125 36.28125 69.09375 
Q 39.359375 68.359375 41.875 66.71875 
Q 44.390625 65.09375 46.28125 62.40625 
Q 48.1875 59.71875 49.3125 55.8125 
L 40.921875 54.296875 
Q 39.546875 58.734375 36.546875 60.71875 
Q 33.546875 62.703125 29.59375 62.703125 
Q 25.984375 62.703125 23.046875 60.984375 
Q 20.125 59.28125 18.0625 55.875 
Q 16.015625 52.484375 14.90625 47.359375 
Q 13.8125 42.234375 13.8125 35.40625 
Q 16.21875 39.84375 20.5625 42.15625 
Q 24.90625 44.484375 30.515625 44.484375 
Q 35.203125 44.484375 39.015625 42.96875 
Q 42.828125 41.453125 45.53125 38.59375 
Q 48.25 35.75 49.734375 31.671875 
Q 51.21875 27.59375 51.21875 22.515625 
M 42.28125 22.125 
Q 42.28125 25.6875 41.40625 28.5625 
Q 40.53125 31.453125 38.765625 33.46875 
Q 37.015625 35.5 34.421875 36.59375 
Q 31.84375 37.703125 28.421875 37.703125 
Q 26.03125 37.703125 23.578125 36.984375 
Q 21.140625 36.28125 19.15625 34.6875 
Q 17.1875 33.109375 15.9375 30.515625 
Q 14.703125 27.9375 14.703125 24.21875 
Q 14.703125 20.40625 15.671875 17.109375 
Q 16.65625 13.8125 18.484375 11.375 
Q 20.3125 8.9375 22.890625 7.515625 
Q 25.484375 6.109375 28.71875 6.109375 
Q 31.890625 6.109375 34.40625 7.203125 
Q 36.921875 8.296875 38.671875 10.375 
Q 40.4375 12.453125 41.359375 15.421875 
Q 42.28125 18.40625 42.28125 22.125 
" id="LiberationSans-36"/>
       <path id="LiberationSans-20"/>
       <path d="M 4.4375 22.65625 
L 4.4375 30.46875 
L 28.859375 30.46875 
L 28.859375 22.65625 
z
" id="LiberationSans-2d"/>
       <path d="M 43.015625 15.578125 
L 43.015625 0 
L 34.71875 0 
L 34.71875 15.578125 
L 2.296875 15.578125 
L 2.296875 22.40625 
L 33.796875 68.796875 
L 43.015625 68.796875 
L 43.015625 22.515625 
L 52.6875 22.515625 
L 52.6875 15.578125 
z
M 34.71875 58.890625 
Q 34.625 58.640625 34.234375 57.9375 
Q 33.84375 57.234375 33.34375 56.34375 
Q 32.859375 55.46875 32.34375 54.5625 
Q 31.84375 53.65625 31.453125 53.078125 
L 13.8125 27.09375 
Q 13.578125 26.703125 13.109375 26.0625 
Q 12.640625 25.4375 12.15625 24.78125 
Q 11.671875 24.125 11.171875 23.484375 
Q 10.6875 22.859375 10.40625 22.515625 
L 34.71875 22.515625 
z
" id="LiberationSans-34"/>
      </defs>
      <g style="fill:#262626;" transform="translate(25.5765625 370.646875)scale(0.1 -0.1)">
       <use xlink:href="#LiberationSans-32"/>
       <use x="55.615234375" xlink:href="#LiberationSans-30"/>
       <use x="111.23046875" xlink:href="#LiberationSans-31"/>
       <use x="166.845703125" xlink:href="#LiberationSans-34"/>
       <use x="222.4609375" xlink:href="#LiberationSans-2d"/>
       <use x="255.76171875" xlink:href="#LiberationSans-31"/>
       <use x="311.376953125" xlink:href="#LiberationSans-31"/>
       <use x="366.9921875" xlink:href="#LiberationSans-2d"/>
       <use x="400.29296875" xlink:href="#LiberationSans-32"/>
       <use x="455.908203125" xlink:href="#LiberationSans-36"/>
       <use x="511.5234375" xlink:href="#LiberationSans-20"/>
       <use x="539.306640625" xlink:href="#LiberationSans-30"/>
       <use x="594.921875" xlink:href="#LiberationSans-39"/>
       <use x="650.537109375" xlink:href="#LiberationSans-3a"/>
       <use x="678.3203125" xlink:href="#LiberationSans-35"/>
       <use x="733.935546875" xlink:href="#LiberationSans-36"/>
       <use x="789.55078125" xlink:href="#LiberationSans-3a"/>
       <use x="817.333984375" xlink:href="#LiberationSans-30"/>
       <use x="872.94921875" xlink:href="#LiberationSans-30"/>
      </g>
     </g>
    </g>
    <g id="xtick_2">
     <g id="line2d_4">
      <path clip-path="url(#p01408eaa28)" d="M 183.655828 356.4 
L 183.655828 39.6 
" style="fill:none;stroke:#ffffff;stroke-linecap:round;"/>
     </g>
     <g id="line2d_5"/>
     <g id="line2d_6"/>
     <g id="text_2">
      <!-- 2014-12-12 10:10:00 -->
      <g style="fill:#262626;" transform="translate(137.232390414 370.646875)scale(0.1 -0.1)">
       <use xlink:href="#LiberationSans-32"/>
       <use x="55.615234375" xlink:href="#LiberationSans-30"/>
       <use x="111.23046875" xlink:href="#LiberationSans-31"/>
       <use x="166.845703125" xlink:href="#LiberationSans-34"/>
       <use x="222.4609375" xlink:href="#LiberationSans-2d"/>
       <use x="255.76171875" xlink:href="#LiberationSans-31"/>
       <use x="311.376953125" xlink:href="#LiberationSans-32"/>
       <use x="366.9921875" xlink:href="#LiberationSans-2d"/>
       <use x="400.29296875" xlink:href="#LiberationSans-31"/>
       <use x="455.908203125" xlink:href="#LiberationSans-32"/>
       <use x="511.5234375" xlink:href="#LiberationSans-20"/>
       <use x="539.306640625" xlink:href="#LiberationSans-31"/>
       <use x="594.921875" xlink:href="#LiberationSans-30"/>
       <use x="650.537109375" xlink:href="#LiberationSans-3a"/>
       <use x="678.3203125" xlink:href="#LiberationSans-31"/>
       <use x="733.935546875" xlink:href="#LiberationSans-30"/>
       <use x="789.55078125" xlink:href="#LiberationSans-3a"/>
       <use x="817.333984375" xlink:href="#LiberationSans-30"/>
       <use x="872.94921875" xlink:href="#LiberationSans-30"/>
      </g>
     </g>
    </g>
    <g id="xtick_3">
     <g id="line2d_7">
      <path clip-path="url(#p01408eaa28)" d="M 295.311656 356.4 
L 295.311656 39.6 
" style="fill:none;stroke:#ffffff;stroke-linecap:round;"/>
     </g>
     <g id="line2d_8"/>
     <g id="line2d_9"/>
     <g id="text_3">
      <!-- 2014-12-31 11:04:00 -->
      <defs>
       <path d="M 51.21875 19 
Q 51.21875 14.265625 49.671875 10.546875 
Q 48.140625 6.84375 45.1875 4.265625 
Q 42.234375 1.703125 37.859375 0.359375 
Q 33.5 -0.984375 27.875 -0.984375 
Q 21.484375 -0.984375 17.109375 0.609375 
Q 12.75 2.203125 9.90625 4.8125 
Q 7.078125 7.421875 5.65625 10.765625 
Q 4.25 14.109375 3.8125 17.671875 
L 12.890625 18.5 
Q 13.28125 15.765625 14.328125 13.515625 
Q 15.375 11.28125 17.1875 9.671875 
Q 19 8.0625 21.625 7.171875 
Q 24.265625 6.296875 27.875 6.296875 
Q 34.515625 6.296875 38.296875 9.5625 
Q 42.09375 12.84375 42.09375 19.28125 
Q 42.09375 23.09375 40.40625 25.40625 
Q 38.71875 27.734375 36.203125 29.03125 
Q 33.6875 30.328125 30.734375 30.765625 
Q 27.78125 31.203125 25.296875 31.203125 
L 20.3125 31.203125 
L 20.3125 38.8125 
L 25.09375 38.8125 
Q 27.59375 38.8125 30.265625 39.328125 
Q 32.953125 39.84375 35.171875 41.1875 
Q 37.40625 42.53125 38.84375 44.828125 
Q 40.28125 47.125 40.28125 50.6875 
Q 40.28125 56.203125 37.03125 59.390625 
Q 33.796875 62.59375 27.390625 62.59375 
Q 21.578125 62.59375 17.984375 59.609375 
Q 14.40625 56.640625 13.8125 51.21875 
L 4.984375 51.90625 
Q 5.515625 56.453125 7.46875 59.8125 
Q 9.421875 63.1875 12.421875 65.40625 
Q 15.4375 67.625 19.28125 68.71875 
Q 23.140625 69.828125 27.484375 69.828125 
Q 33.25 69.828125 37.390625 68.375 
Q 41.546875 66.9375 44.1875 64.46875 
Q 46.828125 62.015625 48.0625 58.6875 
Q 49.3125 55.375 49.3125 51.609375 
Q 49.3125 48.578125 48.484375 45.9375 
Q 47.65625 43.3125 45.890625 41.203125 
Q 44.140625 39.109375 41.421875 37.59375 
Q 38.71875 36.078125 34.90625 35.296875 
L 34.90625 35.109375 
Q 39.0625 34.671875 42.140625 33.21875 
Q 45.21875 31.78125 47.21875 29.625 
Q 49.21875 27.484375 50.21875 24.75 
Q 51.21875 22.015625 51.21875 19 
" id="LiberationSans-33"/>
      </defs>
      <g style="fill:#262626;" transform="translate(248.888218328 370.646875)scale(0.1 -0.1)">
       <use xlink:href="#LiberationSans-32"/>
       <use x="55.615234375" xlink:href="#LiberationSans-30"/>
       <use x="111.23046875" xlink:href="#LiberationSans-31"/>
       <use x="166.845703125" xlink:href="#LiberationSans-34"/>
       <use x="222.4609375" xlink:href="#LiberationSans-2d"/>
       <use x="255.76171875" xlink:href="#LiberationSans-31"/>
       <use x="311.376953125" xlink:href="#LiberationSans-32"/>
       <use x="366.9921875" xlink:href="#LiberationSans-2d"/>
       <use x="400.29296875" xlink:href="#LiberationSans-33"/>
       <use x="455.908203125" xlink:href="#LiberationSans-31"/>
       <use x="511.5234375" xlink:href="#LiberationSans-20"/>
       <use x="539.306640625" xlink:href="#LiberationSans-31"/>
       <use x="594.921875" xlink:href="#LiberationSans-31"/>
       <use x="650.537109375" xlink:href="#LiberationSans-3a"/>
       <use x="678.3203125" xlink:href="#LiberationSans-30"/>
       <use x="733.935546875" xlink:href="#LiberationSans-34"/>
       <use x="789.55078125" xlink:href="#LiberationSans-3a"/>
       <use x="817.333984375" xlink:href="#LiberationSans-30"/>
       <use x="872.94921875" xlink:href="#LiberationSans-30"/>
      </g>
     </g>
    </g>
    <g id="xtick_4">
     <g id="line2d_10">
      <path clip-path="url(#p01408eaa28)" d="M 406.967484 356.4 
L 406.967484 39.6 
" style="fill:none;stroke:#ffffff;stroke-linecap:round;"/>
     </g>
     <g id="line2d_11"/>
     <g id="line2d_12"/>
     <g id="text_4">
      <!-- 2015-01-26 09:29:00 -->
      <g style="fill:#262626;" transform="translate(360.544046242 370.646875)scale(0.1 -0.1)">
       <use xlink:href="#LiberationSans-32"/>
       <use x="55.615234375" xlink:href="#LiberationSans-30"/>
       <use x="111.23046875" xlink:href="#LiberationSans-31"/>
       <use x="166.845703125" xlink:href="#LiberationSans-35"/>
       <use x="222.4609375" xlink:href="#LiberationSans-2d"/>
       <use x="255.76171875" xlink:href="#LiberationSans-30"/>
       <use x="311.376953125" xlink:href="#LiberationSans-31"/>
       <use x="366.9921875" xlink:href="#LiberationSans-2d"/>
       <use x="400.29296875" xlink:href="#LiberationSans-32"/>
       <use x="455.908203125" xlink:href="#LiberationSans-36"/>
       <use x="511.5234375" xlink:href="#LiberationSans-20"/>
       <use x="539.306640625" xlink:href="#LiberationSans-30"/>
       <use x="594.921875" xlink:href="#LiberationSans-39"/>
       <use x="650.537109375" xlink:href="#LiberationSans-3a"/>
       <use x="678.3203125" xlink:href="#LiberationSans-32"/>
       <use x="733.935546875" xlink:href="#LiberationSans-39"/>
       <use x="789.55078125" xlink:href="#LiberationSans-3a"/>
       <use x="817.333984375" xlink:href="#LiberationSans-30"/>
       <use x="872.94921875" xlink:href="#LiberationSans-30"/>
      </g>
     </g>
    </g>
    <g id="text_5">
     <!-- time -->
     <defs>
      <path d="M 13.484375 24.5625 
Q 13.484375 20.40625 14.328125 16.90625 
Q 15.1875 13.421875 16.96875 10.90625 
Q 18.75 8.40625 21.53125 7 
Q 24.3125 5.609375 28.21875 5.609375 
Q 33.9375 5.609375 37.375 7.90625 
Q 40.828125 10.203125 42.046875 13.71875 
L 49.75 11.53125 
Q 48.921875 9.328125 47.4375 7.109375 
Q 45.953125 4.890625 43.453125 3.09375 
Q 40.96875 1.3125 37.234375 0.15625 
Q 33.5 -0.984375 28.21875 -0.984375 
Q 16.5 -0.984375 10.375 6 
Q 4.25 12.984375 4.25 26.765625 
Q 4.25 34.1875 6.09375 39.328125 
Q 7.953125 44.484375 11.171875 47.703125 
Q 14.40625 50.921875 18.703125 52.359375 
Q 23 53.8125 27.875 53.8125 
Q 34.515625 53.8125 38.984375 51.65625 
Q 43.453125 49.515625 46.15625 45.71875 
Q 48.875 41.9375 50.015625 36.8125 
Q 51.171875 31.6875 51.171875 25.734375 
L 51.171875 24.5625 
z
M 42.09375 31.296875 
Q 41.359375 39.65625 37.84375 43.484375 
Q 34.328125 47.3125 27.734375 47.3125 
Q 25.53125 47.3125 23.109375 46.609375 
Q 20.703125 45.90625 18.65625 44.09375 
Q 16.609375 42.28125 15.1875 39.171875 
Q 13.765625 36.078125 13.578125 31.296875 
z
" id="LiberationSans-65"/>
      <path d="M 6.6875 64.0625 
L 6.6875 72.46875 
L 15.484375 72.46875 
L 15.484375 64.0625 
z
M 6.6875 0 
L 6.6875 52.828125 
L 15.484375 52.828125 
L 15.484375 0 
z
" id="LiberationSans-69"/>
      <path d="M 27.046875 0.390625 
Q 25.046875 -0.140625 22.96875 -0.453125 
Q 20.90625 -0.78125 18.171875 -0.78125 
Q 7.625 -0.78125 7.625 11.1875 
L 7.625 46.4375 
L 1.515625 46.4375 
L 1.515625 52.828125 
L 7.953125 52.828125 
L 10.546875 64.65625 
L 16.40625 64.65625 
L 16.40625 52.828125 
L 26.171875 52.828125 
L 26.171875 46.4375 
L 16.40625 46.4375 
L 16.40625 13.09375 
Q 16.40625 9.28125 17.640625 7.734375 
Q 18.890625 6.203125 21.96875 6.203125 
Q 23.25 6.203125 24.4375 6.390625 
Q 25.640625 6.59375 27.046875 6.890625 
z
" id="LiberationSans-74"/>
      <path d="M 37.5 0 
L 37.5 33.5 
Q 37.5 37.359375 37.015625 39.9375 
Q 36.53125 42.53125 35.375 44.109375 
Q 34.234375 45.703125 32.375 46.359375 
Q 30.515625 47.015625 27.828125 47.015625 
Q 25.046875 47.015625 22.796875 45.921875 
Q 20.5625 44.828125 18.96875 42.75 
Q 17.390625 40.671875 16.53125 37.625 
Q 15.671875 34.578125 15.671875 30.609375 
L 15.671875 0 
L 6.9375 0 
L 6.9375 41.546875 
Q 6.9375 43.21875 6.90625 45.046875 
Q 6.890625 46.875 6.828125 48.5 
Q 6.78125 50.140625 6.734375 51.3125 
Q 6.6875 52.484375 6.640625 52.828125 
L 14.9375 52.828125 
Q 14.984375 52.59375 15.03125 51.515625 
Q 15.09375 50.4375 15.15625 49.046875 
Q 15.234375 47.65625 15.28125 46.21875 
Q 15.328125 44.78125 15.328125 43.796875 
L 15.484375 43.796875 
Q 16.65625 46.09375 18.015625 47.953125 
Q 19.390625 49.8125 21.21875 51.09375 
Q 23.046875 52.390625 25.40625 53.09375 
Q 27.78125 53.8125 30.90625 53.8125 
Q 36.921875 53.8125 40.40625 51.421875 
Q 43.890625 49.03125 45.265625 43.796875 
L 45.40625 43.796875 
Q 46.578125 46.09375 48.046875 47.953125 
Q 49.515625 49.8125 51.46875 51.09375 
Q 53.421875 52.390625 55.859375 53.09375 
Q 58.296875 53.8125 61.421875 53.8125 
Q 65.4375 53.8125 68.328125 52.734375 
Q 71.234375 51.65625 73.09375 49.40625 
Q 74.953125 47.171875 75.828125 43.625 
Q 76.703125 40.09375 76.703125 35.203125 
L 76.703125 0 
L 68.015625 0 
L 68.015625 33.5 
Q 68.015625 37.359375 67.53125 39.9375 
Q 67.046875 42.53125 65.890625 44.109375 
Q 64.75 45.703125 62.890625 46.359375 
Q 61.03125 47.015625 58.34375 47.015625 
Q 55.5625 47.015625 53.3125 45.96875 
Q 51.078125 44.921875 49.484375 42.875 
Q 47.90625 40.828125 47.046875 37.75 
Q 46.1875 34.671875 46.1875 30.609375 
L 46.1875 0 
z
" id="LiberationSans-6d"/>
     </defs>
     <g style="fill:#262626;" transform="translate(284.81015625 385.6934375)scale(0.11 -0.11)">
      <use xlink:href="#LiberationSans-74"/>
      <use x="27.783203125" xlink:href="#LiberationSans-69"/>
      <use x="50.0" xlink:href="#LiberationSans-6d"/>
      <use x="133.30078125" xlink:href="#LiberationSans-65"/>
     </g>
    </g>
   </g>
   <g id="matplotlib.axis_2">
    <g id="ytick_1">
     <g id="line2d_13">
      <path clip-path="url(#p01408eaa28)" d="M 72 356.4 
L 518.4 356.4 
" style="fill:none;stroke:#ffffff;stroke-linecap:round;"/>
     </g>
     <g id="line2d_14"/>
     <g id="line2d_15"/>
     <g id="text_6">
      <!-- 790 -->
      <defs>
       <path d="M 50.59375 61.671875 
Q 45.40625 53.765625 41.0625 46.453125 
Q 36.71875 39.15625 33.59375 31.75 
Q 30.46875 24.359375 28.734375 16.578125 
Q 27 8.796875 27 0 
L 17.828125 0 
Q 17.828125 8.25 19.78125 16.1875 
Q 21.734375 24.125 25.046875 31.765625 
Q 28.375 39.40625 32.765625 46.78125 
Q 37.15625 54.15625 42.09375 61.328125 
L 5.125 61.328125 
L 5.125 68.796875 
L 50.59375 68.796875 
z
" id="LiberationSans-37"/>
      </defs>
      <g style="fill:#262626;" transform="translate(48.3171875 358.9859375)scale(0.1 -0.1)">
       <use xlink:href="#LiberationSans-37"/>
       <use x="55.615234375" xlink:href="#LiberationSans-39"/>
       <use x="111.23046875" xlink:href="#LiberationSans-30"/>
      </g>
     </g>
    </g>
    <g id="ytick_2">
     <g id="line2d_16">
      <path clip-path="url(#p01408eaa28)" d="M 72 293.04 
L 518.4 293.04 
" style="fill:none;stroke:#ffffff;stroke-linecap:round;"/>
     </g>
     <g id="line2d_17"/>
     <g id="line2d_18"/>
     <g id="text_7">
      <!-- 800 -->
      <defs>
       <path d="M 51.265625 19.1875 
Q 51.265625 14.796875 49.875 11.109375 
Q 48.484375 7.421875 45.625 4.734375 
Q 42.78125 2.046875 38.328125 0.53125 
Q 33.890625 -0.984375 27.828125 -0.984375 
Q 21.78125 -0.984375 17.359375 0.53125 
Q 12.9375 2.046875 10.03125 4.703125 
Q 7.125 7.375 5.734375 11.0625 
Q 4.34375 14.75 4.34375 19.09375 
Q 4.34375 22.859375 5.484375 25.78125 
Q 6.640625 28.71875 8.5625 30.828125 
Q 10.5 32.953125 12.96875 34.25 
Q 15.4375 35.546875 18.0625 35.984375 
L 18.0625 36.1875 
Q 15.1875 36.859375 12.90625 38.375 
Q 10.640625 39.890625 9.09375 42.015625 
Q 7.5625 44.140625 6.75 46.71875 
Q 5.953125 49.3125 5.953125 52.203125 
Q 5.953125 55.8125 7.34375 59 
Q 8.734375 62.203125 11.46875 64.625 
Q 14.203125 67.046875 18.25 68.4375 
Q 22.3125 69.828125 27.640625 69.828125 
Q 33.25 69.828125 37.375 68.40625 
Q 41.5 67 44.203125 64.578125 
Q 46.921875 62.15625 48.234375 58.9375 
Q 49.5625 55.71875 49.5625 52.09375 
Q 49.5625 49.265625 48.75 46.671875 
Q 47.953125 44.09375 46.40625 41.96875 
Q 44.875 39.84375 42.59375 38.34375 
Q 40.328125 36.859375 37.359375 36.28125 
L 37.359375 36.078125 
Q 40.328125 35.59375 42.859375 34.296875 
Q 45.40625 33.015625 47.265625 30.890625 
Q 49.125 28.765625 50.1875 25.828125 
Q 51.265625 22.90625 51.265625 19.1875 
M 40.4375 51.609375 
Q 40.4375 54.203125 39.765625 56.34375 
Q 39.109375 58.5 37.59375 60.03125 
Q 36.078125 61.578125 33.640625 62.421875 
Q 31.203125 63.28125 27.640625 63.28125 
Q 24.171875 63.28125 21.78125 62.421875 
Q 19.390625 61.578125 17.84375 60.03125 
Q 16.3125 58.5 15.625 56.34375 
Q 14.9375 54.203125 14.9375 51.609375 
Q 14.9375 49.5625 15.46875 47.40625 
Q 16.015625 45.265625 17.421875 43.5 
Q 18.84375 41.75 21.328125 40.625 
Q 23.828125 39.5 27.734375 39.5 
Q 31.890625 39.5 34.40625 40.625 
Q 36.921875 41.75 38.25 43.5 
Q 39.59375 45.265625 40.015625 47.40625 
Q 40.4375 49.5625 40.4375 51.609375 
M 42.140625 20.015625 
Q 42.140625 22.515625 41.453125 24.828125 
Q 40.765625 27.15625 39.109375 28.9375 
Q 37.453125 30.71875 34.640625 31.8125 
Q 31.84375 32.90625 27.640625 32.90625 
Q 23.78125 32.90625 21.0625 31.8125 
Q 18.359375 30.71875 16.671875 28.90625 
Q 14.984375 27.09375 14.203125 24.71875 
Q 13.421875 22.359375 13.421875 19.828125 
Q 13.421875 16.65625 14.203125 14.03125 
Q 14.984375 11.421875 16.6875 9.546875 
Q 18.40625 7.671875 21.1875 6.640625 
Q 23.96875 5.609375 27.9375 5.609375 
Q 31.9375 5.609375 34.671875 6.640625 
Q 37.40625 7.671875 39.0625 9.546875 
Q 40.71875 11.421875 41.421875 14.078125 
Q 42.140625 16.75 42.140625 20.015625 
" id="LiberationSans-38"/>
      </defs>
      <g style="fill:#262626;" transform="translate(48.3171875 295.6259375)scale(0.1 -0.1)">
       <use xlink:href="#LiberationSans-38"/>
       <use x="55.615234375" xlink:href="#LiberationSans-30"/>
       <use x="111.23046875" xlink:href="#LiberationSans-30"/>
      </g>
     </g>
    </g>
    <g id="ytick_3">
     <g id="line2d_19">
      <path clip-path="url(#p01408eaa28)" d="M 72 229.68 
L 518.4 229.68 
" style="fill:none;stroke:#ffffff;stroke-linecap:round;"/>
     </g>
     <g id="line2d_20"/>
     <g id="line2d_21"/>
     <g id="text_8">
      <!-- 810 -->
      <g style="fill:#262626;" transform="translate(48.3171875 232.2659375)scale(0.1 -0.1)">
       <use xlink:href="#LiberationSans-38"/>
       <use x="55.615234375" xlink:href="#LiberationSans-31"/>
       <use x="111.23046875" xlink:href="#LiberationSans-30"/>
      </g>
     </g>
    </g>
    <g id="ytick_4">
     <g id="line2d_22">
      <path clip-path="url(#p01408eaa28)" d="M 72 166.32 
L 518.4 166.32 
" style="fill:none;stroke:#ffffff;stroke-linecap:round;"/>
     </g>
     <g id="line2d_23"/>
     <g id="line2d_24"/>
     <g id="text_9">
      <!-- 820 -->
      <g style="fill:#262626;" transform="translate(48.3171875 168.9059375)scale(0.1 -0.1)">
       <use xlink:href="#LiberationSans-38"/>
       <use x="55.615234375" xlink:href="#LiberationSans-32"/>
       <use x="111.23046875" xlink:href="#LiberationSans-30"/>
      </g>
     </g>
    </g>
    <g id="ytick_5">
     <g id="line2d_25">
      <path clip-path="url(#p01408eaa28)" d="M 72 102.96 
L 518.4 102.96 
" style="fill:none;stroke:#ffffff;stroke-linecap:round;"/>
     </g>
     <g id="line2d_26"/>
     <g id="line2d_27"/>
     <g id="text_10">
      <!-- 830 -->
      <g style="fill:#262626;" transform="translate(48.3171875 105.5459375)scale(0.1 -0.1)">
       <use xlink:href="#LiberationSans-38"/>
       <use x="55.615234375" xlink:href="#LiberationSans-33"/>
       <use x="111.23046875" xlink:href="#LiberationSans-30"/>
      </g>
     </g>
    </g>
    <g id="ytick_6">
     <g id="line2d_28">
      <path clip-path="url(#p01408eaa28)" d="M 72 39.6 
L 518.4 39.6 
" style="fill:none;stroke:#ffffff;stroke-linecap:round;"/>
     </g>
     <g id="line2d_29"/>
     <g id="line2d_30"/>
     <g id="text_11">
      <!-- 840 -->
      <g style="fill:#262626;" transform="translate(48.3171875 42.1859375)scale(0.1 -0.1)">
       <use xlink:href="#LiberationSans-38"/>
       <use x="55.615234375" xlink:href="#LiberationSans-34"/>
       <use x="111.23046875" xlink:href="#LiberationSans-30"/>
      </g>
     </g>
    </g>
   </g>
   <g id="line2d_31">
    <path clip-path="url(#p01408eaa28)" d="M 72 178.016749 
L 72.446623 188.267196 
L 72.669935 183.148909 
L 72.893247 193.427101 
L 73.116558 193.482592 
L 73.33987 188.294941 
L 73.786493 188.350432 
L 74.009805 193.427101 
L 74.233117 193.427101 
L 74.456428 188.294941 
L 74.903052 188.294941 
L 75.126363 193.357738 
L 75.349675 193.329992 
L 75.572986 193.538083 
L 75.796298 198.559261 
L 76.242921 188.128469 
L 76.466233 198.365044 
L 76.689545 188.114596 
L 76.912856 188.156214 
L 77.136168 198.420534 
L 77.582791 198.351171 
L 78.029415 213.741648 
L 78.252726 208.587746 
L 78.476038 208.587746 
L 78.69935 203.42784 
L 79.369285 203.413968 
L 79.592596 208.546128 
L 79.815908 203.497204 
L 80.03922 203.511076 
L 80.262531 198.365044 
L 80.485843 198.378916 
L 80.709155 203.511076 
L 81.602401 203.511076 
L 81.825713 213.852629 
L 82.049025 213.838756 
L 82.272336 208.657109 
L 82.495648 213.852629 
L 82.718959 213.838756 
L 82.942271 208.629364 
L 83.165583 208.657109 
L 83.388894 203.622058 
L 83.835518 203.511076 
L 84.058829 203.691421 
L 84.282141 198.559261 
L 84.505453 198.559261 
L 84.728764 198.420534 
L 84.952076 203.635931 
L 85.175388 198.434407 
L 85.398699 177.891894 
L 85.622011 183.037927 
L 85.845323 183.024054 
L 86.068634 177.91964 
L 86.291946 177.91964 
L 86.515258 183.065672 
L 86.738569 177.961258 
L 87.185193 188.225578 
L 87.631816 178.044494 
L 87.855128 183.176654 
L 88.078439 178.169348 
L 88.301751 178.030621 
L 88.748374 178.113857 
L 89.194997 188.39205 
L 89.418309 183.162781 
L 89.641621 188.294941 
L 90.534867 188.39205 
L 90.981491 198.434407 
L 91.204802 198.684115 
L 91.428114 203.802403 
L 91.651426 193.538083 
L 91.874737 198.628625 
L 92.098049 198.65637 
L 92.544672 188.308814 
L 92.767984 193.440974 
L 93.437919 193.496465 
L 93.661231 193.288374 
L 93.884542 188.364305 
L 94.107854 188.308814 
L 94.331166 193.288374 
L 94.554477 193.246756 
L 94.777789 188.114596 
L 95.447724 188.045233 
L 96.117659 172.710247 
L 96.34097 172.72412 
L 96.787594 121.450141 
L 97.010905 116.304109 
L 97.457529 90.538331 
L 97.68084 90.524458 
L 97.904152 131.922551 
L 98.127464 142.186871 
L 98.350775 141.978781 
L 98.574087 147.174301 
L 98.797399 147.243665 
L 99.244022 157.466367 
L 99.467334 157.466367 
L 99.690645 152.348079 
L 99.913957 157.480239 
L 100.36058 147.243665 
L 100.583892 147.243665 
L 101.030515 157.521857 
L 101.253827 157.521857 
L 101.70045 147.229792 
L 101.923762 147.313028 
L 102.147074 152.40357 
L 102.370385 152.40357 
L 102.593697 142.07589 
L 103.04032 152.445188 
L 103.710255 152.472933 
L 103.933567 147.382391 
L 104.156878 147.382391 
L 104.38019 152.514551 
L 104.826813 152.514551 
L 105.273437 126.859755 
L 105.496748 127.026227 
L 105.72006 132.158387 
L 105.943372 126.956864 
L 106.613307 142.353344 
L 107.05993 142.422707 
L 107.283242 152.681024 
L 107.506553 147.521118 
L 108.176488 147.451755 
L 108.3998 219.317733 
L 108.623112 224.449893 
L 109.069735 208.976181 
L 109.293047 214.157828 
L 109.516358 203.857893 
L 109.73967 203.844021 
L 109.962981 214.185573 
L 110.186293 209.017799 
L 110.632916 209.07329 
L 110.856228 214.296555 
L 111.07954 214.365918 
L 111.302851 219.428715 
L 111.749475 219.498078 
L 112.196098 209.239762 
L 112.642721 209.212016 
L 112.866033 204.065984 
L 113.089345 204.065984 
L 113.312656 209.170398 
L 113.982591 193.815536 
L 114.429215 204.121474 
L 114.652526 204.107602 
L 114.875838 188.738867 
L 115.09915 193.912645 
L 115.322461 183.648325 
L 115.545773 199.030932 
L 115.769085 199.030932 
L 115.992396 193.898772 
L 116.215708 204.176965 
L 116.43902 193.94039 
L 117.555578 193.912645 
L 117.778889 188.738867 
L 118.002201 173.237409 
L 118.448824 183.537344 
L 118.672136 178.405184 
L 118.895448 183.537344 
L 119.118759 178.391311 
L 119.342071 183.481853 
L 119.565383 173.154173 
L 119.788694 183.454108 
L 120.905253 183.440235 
L 121.128564 188.572395 
L 121.575188 188.54465 
L 121.798499 193.704555 
L 122.468434 178.308075 
L 122.915058 188.558522 
L 123.138369 178.28033 
L 123.361681 157.646711 
L 123.808304 157.632839 
L 124.031616 167.911031 
L 124.254927 173.070937 
L 124.701551 173.057064 
L 125.148174 183.356999 
L 125.594797 173.029319 
L 125.818109 178.238711 
L 126.041421 178.238711 
L 126.264732 172.349557 
L 127.157979 172.335685 
L 127.381291 177.55895 
L 127.604602 167.245143 
L 128.051226 167.245143 
L 128.274537 162.112983 
L 128.497849 162.126855 
L 128.721161 151.890281 
L 128.944472 157.008568 
L 129.167784 121.033961 
L 129.614407 121.020088 
L 129.837719 167.272888 
L 130.061031 162.140728 
L 130.284342 167.286761 
L 130.507654 162.182346 
L 130.730965 167.286761 
L 130.954277 167.286761 
L 131.177589 172.446666 
L 131.4009 167.314506 
L 131.624212 167.272888 
L 131.847524 162.126855 
L 132.517459 162.057492 
L 132.74077 151.779299 
L 133.187394 162.002001 
L 133.410705 156.855969 
L 133.634017 156.814351 
L 133.857329 151.737681 
L 134.08064 156.897587 
L 134.303952 167.009307 
L 134.527264 161.863274 
L 134.973887 161.821656 
L 135.197199 151.571209 
L 135.42051 156.689496 
L 136.537069 156.703369 
L 136.76038 151.585082 
L 136.983692 151.598954 
L 137.207004 156.717242 
L 137.430315 156.703369 
L 137.653627 151.557336 
L 137.876938 156.689496 
L 138.323562 156.675624 
L 138.546873 161.807784 
L 138.993497 161.821656 
L 139.216808 166.953816 
L 139.44012 161.863274 
L 139.663432 161.904893 
L 139.886743 167.02318 
L 140.556678 167.037053 
L 140.77999 156.744987 
L 141.003302 161.918765 
L 141.449925 151.612827 
L 141.673237 151.612827 
L 141.896548 156.731114 
L 142.343172 156.772733 
L 142.566483 151.654445 
L 142.789795 156.800478 
L 143.013107 151.654445 
L 143.236418 161.932638 
L 143.45973 151.820917 
L 143.906353 162.09911 
L 144.129665 162.112983 
L 144.352976 156.980823 
L 144.576288 156.980823 
L 144.7996 151.848663 
L 145.022911 157.022441 
L 145.469535 156.994695 
L 145.692846 151.904153 
L 145.916158 157.064059 
L 146.586093 157.064059 
L 146.809405 162.25171 
L 147.032716 157.091804 
L 147.47934 167.342252 
L 147.702651 162.210092 
L 148.149275 162.196219 
L 148.372586 167.300633 
L 148.595898 167.286761 
L 148.81921 172.432793 
L 149.265833 193.024793 
L 149.489145 182.760473 
L 149.712456 187.892633 
L 149.935768 182.760473 
L 150.15908 172.432793 
L 150.382391 177.55895 
L 150.605703 172.335685 
L 150.829015 172.280194 
L 151.052326 177.475714 
L 151.275638 172.36343 
L 151.498949 172.266321 
L 151.722261 177.461841 
L 151.945573 172.266321 
L 152.392196 172.266321 
L 152.838819 182.580129 
L 153.062131 182.594001 
L 153.285443 187.726161 
L 153.508754 187.684543 
L 153.732066 192.802831 
L 153.955378 203.067151 
L 154.178689 197.934991 
L 154.848624 212.56247 
L 155.071936 207.353077 
L 155.741871 222.812917 
L 155.965183 212.56247 
L 156.411806 222.757426 
L 156.635118 222.757426 
L 156.858429 227.889586 
L 157.528364 227.875714 
L 157.974987 238.126161 
L 158.198299 253.641492 
L 158.644922 233.021746 
L 159.091546 243.41879 
L 159.314857 233.09111 
L 159.538169 227.931204 
L 159.761481 243.41879 
L 159.984792 238.181652 
L 160.431416 238.112288 
L 160.654727 233.104982 
L 160.878039 238.195524 
L 161.101351 238.153906 
L 161.994597 202.262535 
L 162.664532 202.248662 
L 162.887844 212.576342 
L 163.334467 202.276408 
L 163.557779 207.436313 
L 163.781091 207.436313 
L 164.004402 212.701196 
L 164.227714 201.985081 
L 164.451026 196.880667 
L 164.674337 196.866794 
L 164.897649 201.971209 
L 165.567584 201.957336 
L 165.790895 207.075623 
L 166.014207 217.417176 
L 166.237519 196.839049 
L 166.46083 196.866794 
L 166.684142 201.998954 
L 167.130765 191.81787 
L 167.354077 196.908412 
L 168.024012 196.866794 
L 168.247324 191.734634 
L 168.470635 202.012827 
L 168.917259 202.040572 
L 169.14057 196.908412 
L 169.363882 202.026699 
L 169.587194 202.012827 
L 169.810505 181.484187 
L 170.033817 186.630219 
L 170.48044 186.68571 
L 170.703752 191.81787 
L 171.373687 191.776252 
L 171.596998 196.908412 
L 171.82031 196.922285 
L 172.043622 202.068317 
L 172.266933 196.963903 
L 172.490245 197.005521 
L 172.713557 191.831743 
L 172.936868 191.859488 
L 173.16018 196.991648 
L 173.383492 196.977776 
L 173.606803 191.831743 
L 173.830115 191.887234 
L 174.053427 196.963903 
L 174.276738 196.95003 
L 174.50005 191.831743 
L 174.723362 191.845616 
L 174.946673 196.95003 
L 175.393297 197.005521 
L 175.83992 186.699583 
L 176.286543 186.727328 
L 176.509855 166.149201 
L 176.733167 186.713456 
L 176.956478 176.449136 
L 177.403102 176.254918 
L 177.626413 181.456441 
L 178.073037 181.373205 
L 178.296348 191.679143 
L 178.51966 196.769685 
L 178.742971 191.60978 
L 179.189595 191.582035 
L 179.412906 165.913365 
L 179.636218 165.913365 
L 179.85953 114.583896 
L 180.082841 119.716056 
L 180.529465 119.688311 
L 180.752776 124.834343 
L 180.976088 109.437863 
L 181.422711 119.729929 
L 181.869335 119.785419 
L 182.092646 114.583896 
L 182.315958 114.597769 
L 182.53927 109.451736 
L 182.985893 129.994249 
L 183.432516 130.008121 
L 183.655828 135.168027 
L 183.87914 130.035867 
L 184.549075 130.035867 
L 184.772386 124.903707 
L 184.995698 124.917579 
L 185.21901 119.785419 
L 185.442321 125.014688 
L 185.665633 135.306754 
L 186.112256 135.279008 
L 186.335568 140.438914 
L 186.558879 140.57764 
L 186.782191 135.38999 
L 187.005503 140.591513 
L 187.228814 135.459353 
L 187.452126 135.459353 
L 187.675438 140.52215 
L 187.898749 140.52215 
L 188.122061 130.327193 
L 188.345373 130.327193 
L 188.568684 120.062873 
L 188.791996 139.911752 
L 189.238619 139.925624 
L 189.685243 129.675177 
L 190.131866 139.925624 
L 190.355178 139.925624 
L 190.578489 134.807337 
L 191.471736 134.835082 
L 191.695048 139.981115 
L 191.918359 134.862828 
L 192.141671 139.939497 
L 192.364982 155.440955 
L 192.588294 145.135017 
L 193.034917 145.107272 
L 193.258229 145.190508 
L 193.481541 139.994988 
L 193.704852 145.190508 
L 193.928164 139.994988 
L 194.821411 139.981115 
L 195.044722 145.176635 
L 195.268034 134.848955 
L 195.491346 140.036606 
L 196.384592 140.092097 
L 196.607904 145.232126 
L 196.831216 140.036606 
L 197.054527 140.064351 
L 197.277839 129.800031 
L 197.501151 145.287617 
L 197.724462 140.092097 
L 197.947774 145.287617 
L 198.171086 140.092097 
L 198.394397 170.892926 
L 198.617709 170.906798 
L 198.841021 165.760766 
L 199.064332 170.920671 
L 199.287644 170.962289 
L 199.510955 186.422129 
L 199.734267 176.157809 
L 199.957579 181.317715 
L 200.18089 191.623653 
L 200.404202 181.359333 
L 200.627514 186.463747 
L 200.850825 186.449875 
L 201.074137 191.637525 
L 201.297449 181.400951 
L 201.52076 186.560856 
L 201.744072 181.400951 
L 202.637319 181.400951 
L 202.86063 186.519238 
L 203.083942 181.387078 
L 203.753877 181.400951 
L 203.977189 186.560856 
L 204.647124 186.602474 
L 204.870435 181.470314 
L 205.093747 181.456441 
L 205.317059 186.588601 
L 205.54037 181.470314 
L 205.763682 191.720761 
L 205.986993 186.588601 
L 206.210305 186.588601 
L 206.433617 191.734634 
L 206.656928 186.588601 
L 206.88024 186.560856 
L 207.326863 176.338154 
L 207.773487 176.352027 
L 207.996798 181.484187 
L 208.22011 176.365899 
L 208.666733 186.630219 
L 208.890045 176.365899 
L 209.113357 181.498059 
L 209.336668 181.567423 
L 209.55998 176.393645 
L 209.783292 181.498059 
L 210.006603 181.359333 
L 210.229915 186.491493 
L 210.89985 186.533111 
L 211.123162 191.679143 
L 211.346473 186.533111 
L 211.569785 191.651398 
L 212.23972 191.679143 
L 212.463032 201.971209 
L 212.909655 201.943463 
L 213.356278 191.706889 
L 213.802901 201.971209 
L 214.026213 201.971209 
L 214.249525 196.811303 
L 214.472836 186.574729 
L 215.142771 186.533111 
L 215.366083 196.783558 
L 216.482641 196.769685 
L 216.705953 191.651398 
L 216.929265 191.651398 
L 217.152576 186.519238 
L 217.375888 186.546983 
L 217.822511 196.769685 
L 218.045823 196.811303 
L 218.269135 191.720761 
L 218.492446 196.852921 
L 218.715758 191.720761 
L 219.162381 191.762379 
L 219.385693 196.839049 
L 219.609005 181.220606 
L 220.055628 191.498798 
L 220.278939 191.512671 
L 220.502251 186.338893 
L 220.725563 186.32502 
L 220.948874 196.644831 
L 221.172186 196.630958 
L 221.395498 191.512671 
L 221.618809 196.700322 
L 221.842121 191.540417 
L 222.065433 196.672577 
L 222.735368 181.303842 
L 222.958679 196.700322 
L 223.405303 196.672577 
L 223.628614 191.568162 
L 223.851926 191.595907 
L 224.075238 196.755813 
L 224.521861 186.491493 
L 224.968484 186.463747 
L 225.191796 191.623653 
L 225.638419 181.400951 
L 225.861731 186.533111 
L 226.085043 186.533111 
L 226.308354 181.400951 
L 226.531666 186.533111 
L 226.754977 181.428696 
L 226.978289 186.560856 
L 227.201601 160.836696 
L 227.424912 181.650659 
L 227.648224 186.768946 
L 227.871536 181.636786 
L 228.318159 181.636786 
L 228.541471 186.741201 
L 228.764782 181.609041 
L 229.211406 191.859488 
L 229.434717 191.873361 
L 229.658029 186.727328 
L 229.881341 191.859488 
L 231.667834 191.831743 
L 232.114457 217.514285 
L 232.337769 212.382125 
L 232.784392 212.368252 
L 233.007704 222.632572 
L 233.454327 222.604827 
L 233.90095 212.368252 
L 234.124262 217.514285 
L 234.347574 217.555903 
L 234.570885 222.688063 
L 234.794197 217.555903 
L 235.017509 217.555903 
L 235.687444 232.952383 
L 235.910755 232.980128 
L 236.134067 227.861841 
L 236.357379 232.952383 
L 236.58069 232.952383 
L 236.804002 248.453841 
L 237.027314 248.412223 
L 237.250625 279.268543 
L 237.473937 279.282416 
L 237.697249 274.164128 
L 238.590495 274.219619 
L 238.813807 279.337906 
L 239.037119 279.324034 
L 239.26043 284.470066 
L 239.483742 279.365652 
L 239.930365 289.643844 
L 240.153677 279.393397 
L 240.376988 274.247364 
L 240.6003 279.379524 
L 240.823612 279.379524 
L 241.046923 274.247364 
L 241.716858 289.657717 
L 241.94017 284.53943 
L 242.163482 284.53943 
L 242.386793 346.25207 
L 242.610105 335.938262 
L 243.056728 335.92439 
L 243.28004 330.806102 
L 243.503352 330.833848 
L 243.726663 341.161528 
L 243.949975 335.938262 
L 244.173287 341.147655 
L 244.396598 335.938262 
L 244.61991 335.92439 
L 244.843222 341.161528 
L 245.066533 321.651597 
L 245.289845 325.729433 
L 245.95978 325.784924 
L 246.183092 320.666636 
L 246.406403 325.826542 
L 246.629715 325.826542 
L 247.076338 315.562222 
L 247.29965 320.736 
L 247.969585 320.736 
L 248.192896 325.882033 
L 248.416208 320.736 
L 249.756078 320.805363 
L 249.97939 325.909778 
L 250.202701 320.749873 
L 250.426013 325.882033 
L 250.649325 325.979141 
L 250.872636 331.111301 
L 251.095948 325.993014 
L 251.31926 331.125174 
L 251.542571 320.874727 
L 251.765883 320.888599 
L 251.989195 315.770312 
L 252.212506 320.902472 
L 252.435818 320.888599 
L 252.65913 326.006887 
L 253.329065 326.034632 
L 253.552376 331.152919 
L 253.998999 331.180665 
L 254.222311 341.494472 
L 254.445623 341.494472 
L 254.668934 351.744919 
L 254.892246 336.285079 
L 255.115558 336.285079 
L 255.338869 315.742567 
L 255.562181 315.728694 
L 255.785493 310.596534 
L 256.008804 315.700949 
L 256.232116 315.700949 
L 256.455428 320.833109 
L 256.678739 315.687076 
L 256.902051 320.763745 
L 257.125363 310.47168 
L 257.348674 310.485553 
L 257.571986 315.687076 
L 257.795298 310.554916 
L 258.018609 310.568789 
L 258.241921 284.858501 
L 258.465233 290.004534 
L 258.688544 305.401014 
L 259.135168 305.414887 
L 259.581791 315.770312 
L 259.805103 310.638152 
L 260.028414 315.81193 
L 260.251726 310.596534 
L 260.475038 310.582661 
L 260.698349 305.373269 
L 260.921661 305.345523 
L 261.144972 310.568789 
L 261.368284 300.254981 
L 261.591596 305.387141 
L 261.814907 295.122821 
L 262.038219 290.004534 
L 262.261531 290.004534 
L 262.484842 279.754087 
L 262.708154 300.310472 
L 262.931466 295.206057 
L 263.154777 300.35209 
L 263.378089 295.21993 
L 263.601401 300.338217 
L 263.824712 290.046152 
L 264.048024 290.073897 
L 264.271336 295.21993 
L 264.494647 295.21993 
L 264.941271 305.470377 
L 265.164582 331.194537 
L 265.387894 326.034632 
L 265.611206 295.289294 
L 266.057829 305.525868 
L 266.727764 305.567486 
L 266.951076 310.776879 
L 267.174387 305.581359 
L 267.397699 305.553614 
L 267.621011 300.407581 
L 268.067634 310.693643 
L 268.290945 305.581359 
L 268.514257 315.922912 
L 268.737569 310.804624 
L 268.96088 315.936784 
L 269.184192 310.804624 
L 269.407504 310.776879 
L 269.630815 305.567486 
L 270.30075 305.581359 
L 270.524062 310.776879 
L 270.970685 310.749134 
L 271.193997 315.895166 
L 271.417309 310.790752 
L 272.310555 310.846242 
L 272.533867 316.02002 
L 273.427114 316.089384 
L 273.873737 295.649983 
L 274.32036 295.649983 
L 274.543672 290.545569 
L 274.766983 290.545569 
L 274.990295 295.691601 
L 275.213607 295.649983 
L 275.436918 290.517823 
L 276.106853 316.228111 
L 276.330165 316.228111 
L 276.553477 321.374143 
L 276.776788 316.269729 
L 277.0001 321.401889 
L 277.223412 311.137569 
L 277.446723 311.137569 
L 277.670035 187.740034 
L 277.893347 156.869841 
L 278.116658 156.869841 
L 278.33997 172.252449 
L 278.786593 162.002001 
L 279.009905 151.709936 
L 279.233217 131.090191 
L 279.456528 136.250096 
L 279.67984 115.693711 
L 279.903152 120.825871 
L 280.126463 131.062445 
L 280.349775 125.930285 
L 280.573087 125.958031 
L 280.796398 131.117936 
L 281.01971 125.985776 
L 281.243022 125.985776 
L 281.466333 120.853616 
L 281.912956 105.393776 
L 283.252826 105.393776 
L 283.922761 105.255049 
L 284.146073 105.366031 
L 284.592696 105.268922 
L 285.262631 105.393776 
L 285.485943 110.589296 
L 285.709255 105.393776 
L 287.495748 105.435394 
L 287.71906 110.630914 
L 287.942371 105.366031 
L 289.282241 105.477012 
L 289.505553 105.366031 
L 289.728864 136.180733 
L 289.952176 136.152987 
L 290.175488 141.271274 
L 290.398799 151.585082 
L 290.845423 161.877147 
L 291.068734 182.496893 
L 291.292046 172.127594 
L 291.515358 172.141467 
L 291.738669 166.995434 
L 291.961981 172.127594 
L 292.185293 172.127594 
L 292.408604 166.995434 
L 293.301851 166.981562 
L 293.525163 172.113722 
L 293.971786 161.849402 
L 294.195098 167.037053 
L 294.418409 161.863274 
L 294.641721 167.050925 
L 294.865033 167.050925 
L 295.088344 172.127594 
L 295.534967 192.802831 
L 295.758279 187.684543 
L 295.981591 192.802831 
L 296.204902 192.775085 
L 296.428214 187.684543 
L 297.098149 187.712289 
L 297.321461 192.872194 
L 297.544772 203.136514 
L 297.768084 203.108769 
L 297.991396 197.990481 
L 298.214707 198.018227 
L 298.438019 203.205877 
L 298.661331 198.045972 
L 298.884642 182.621747 
L 299.107954 187.809397 
L 299.331266 120.548417 
L 299.777889 110.284097 
L 300.001201 120.534544 
L 300.224512 125.666704 
L 300.447824 125.680577 
L 300.671136 151.390864 
L 301.117759 141.063184 
L 301.564382 110.214734 
L 301.787694 110.256352 
L 302.011006 115.388512 
L 302.234317 115.374639 
L 302.457629 110.214734 
L 302.68094 110.242479 
L 302.904252 94.810384 
L 303.127564 89.678224 
L 303.350875 63.954064 
L 303.574187 63.967937 
L 303.797499 58.835777 
L 304.02081 43.375937 
L 304.244122 74.218384 
L 304.467434 74.218384 
L 304.690745 63.940192 
L 304.914057 63.926319 
L 305.137369 53.634254 
L 305.36068 58.766414 
L 305.807304 79.400032 
L 306.030615 79.372286 
L 306.253927 84.532192 
L 306.477239 84.532192 
L 306.70055 99.956417 
L 307.147174 89.692097 
L 307.370485 89.664352 
L 307.593797 99.928672 
L 308.04042 89.719842 
L 308.263732 105.130195 
L 308.487044 100.02578 
L 308.710355 105.15794 
L 308.933667 99.984162 
L 309.156978 105.116322 
L 309.38029 105.116322 
L 309.603602 94.852002 
L 309.826913 94.865875 
L 310.050225 99.97029 
L 310.943472 99.998035 
L 311.166783 94.89362 
L 311.390095 100.02578 
L 311.613407 89.733715 
L 312.06003 58.90514 
L 312.283342 58.90514 
L 312.506653 69.127842 
L 312.729965 74.260002 
L 313.176588 74.232257 
L 313.3999 79.427777 
L 313.623212 63.954064 
L 313.846523 69.072352 
L 314.069835 110.284097 
L 314.516458 110.284097 
L 314.73977 120.548417 
L 314.963082 110.311842 
L 315.186393 115.444002 
L 315.856328 115.457875 
L 316.07964 120.61778 
L 316.302951 115.48562 
L 316.972886 115.444002 
L 317.196198 120.576162 
L 317.642821 110.270224 
L 317.866133 110.270224 
L 318.089445 115.402384 
L 318.75938 115.457875 
L 318.982691 120.61778 
L 319.206003 120.61778 
L 319.429315 115.471748 
L 319.652626 115.457875 
L 319.875938 110.325715 
L 320.09925 115.471748 
L 320.992496 115.48562 
L 321.215808 120.659398 
L 321.662431 120.659398 
L 322.555678 141.188038 
L 322.778989 156.647878 
L 323.002301 156.647878 
L 323.225613 146.383558 
L 323.448924 146.369686 
L 323.895548 136.042006 
L 324.118859 146.369686 
L 324.342171 146.383558 
L 324.565483 136.083624 
L 324.788794 141.174166 
L 325.235418 141.160293 
L 325.458729 136.083624 
L 325.682041 141.215784 
L 325.905353 141.215784 
L 326.128664 136.083624 
L 326.351976 136.055878 
L 326.798599 146.411304 
L 327.021911 146.439049 
L 327.245223 161.73842 
L 327.468534 166.898326 
L 327.691846 166.898326 
L 327.915158 161.780038 
L 328.138469 166.884453 
L 328.361781 166.87058 
L 328.585093 161.766166 
L 328.808404 161.766166 
L 329.031716 166.912198 
L 329.478339 156.634006 
L 329.701651 166.912198 
L 329.924962 161.807784 
L 330.594897 161.821656 
L 330.818209 156.689496 
L 331.041521 161.821656 
L 332.158079 161.877147 
L 332.381391 166.967689 
L 332.604702 161.849402 
L 332.828014 161.863274 
L 333.051326 166.981562 
L 333.274637 177.295369 
L 333.497949 172.099849 
L 333.721261 172.099849 
L 333.944572 166.967689 
L 334.167884 166.953816 
L 334.391196 172.099849 
L 334.614507 166.967689 
L 335.284442 166.953816 
L 335.507754 161.835529 
L 335.731066 166.981562 
L 335.954377 161.89102 
L 336.847624 161.877147 
L 337.294247 172.127594 
L 337.517559 166.981562 
L 337.74087 166.981562 
L 337.964182 172.15534 
L 338.410805 161.863274 
L 338.634117 161.89102 
L 338.857429 156.786605 
L 339.08074 161.89102 
L 339.527364 161.946511 
L 339.750675 156.717242 
L 340.197299 156.786605 
L 340.42061 161.918765 
L 340.643922 156.786605 
L 341.313857 156.800478 
L 341.537169 161.932638 
L 342.207104 161.974256 
L 342.877039 162.043619 
L 343.10035 167.106416 
L 343.546973 156.883714 
L 343.770285 162.015874 
L 343.993597 161.974256 
L 344.216908 141.451619 
L 344.44022 136.291714 
L 344.663532 146.619394 
L 344.886843 146.619394 
L 345.110155 141.382256 
L 345.333467 141.423874 
L 345.556778 136.333332 
L 345.78009 146.688757 
L 346.003402 151.83479 
L 346.226713 177.55895 
L 347.11996 177.586695 
L 347.343272 182.704983 
L 347.566583 192.969303 
L 347.789895 198.115335 
L 348.013207 198.115335 
L 348.45983 182.663365 
L 349.353077 182.677237 
L 349.576388 167.217397 
L 350.246323 167.189652 
L 350.469635 177.503459 
L 350.692946 172.321812 
L 350.916258 182.677237 
L 351.13957 182.69111 
L 351.362881 177.545077 
L 351.809505 177.614441 
L 352.256128 187.878761 
L 352.47944 187.851015 
L 352.926063 177.614441 
L 353.149375 177.614441 
L 353.372686 182.718855 
L 354.042621 182.704983 
L 354.265933 177.572823 
L 354.489245 177.55895 
L 354.712556 182.718855 
L 354.935868 182.718855 
L 355.15918 187.837143 
L 355.605803 177.55895 
L 355.829115 162.09911 
L 356.275738 151.820917 
L 356.49905 116.096018 
L 356.945673 116.123764 
L 357.168984 121.200433 
L 357.615608 121.214306 
L 358.062231 110.936113 
L 358.955478 110.963858 
L 359.402101 121.255924 
L 359.625413 116.137636 
L 359.848724 121.283669 
L 360.295348 121.269796 
L 360.518659 116.137636 
L 361.411906 116.123764 
L 361.635218 121.255924 
L 361.858529 121.255924 
L 362.081841 126.415829 
L 362.305153 121.311414 
L 363.198399 121.283669 
L 363.421711 116.151509 
L 363.868334 116.165382 
L 364.091646 121.283669 
L 364.761581 121.33916 
L 365.208204 111.088712 
L 365.654827 111.185821 
L 365.878139 116.290236 
L 366.101451 105.920938 
L 366.548074 116.290236 
L 366.994697 105.962556 
L 367.218009 105.920938 
L 367.441321 111.158076 
L 367.664632 111.158076 
L 367.887944 121.422396 
L 368.111256 116.290236 
L 368.334567 116.248618 
L 368.557879 121.422396 
L 368.781191 204.024366 
L 369.004502 188.641758 
L 369.227814 188.641758 
L 369.451126 178.377438 
L 369.897749 178.419056 
L 370.121061 183.578962 
L 370.344372 183.551216 
L 370.567684 178.460674 
L 370.790995 178.460674 
L 371.014307 183.592834 
L 371.237619 178.474547 
L 371.46093 183.592834 
L 371.684242 178.446802 
L 371.907554 183.565089 
L 372.130865 178.432929 
L 372.354177 178.432929 
L 372.577489 183.592834 
L 372.8008 183.578962 
L 373.024112 178.446802 
L 373.247424 178.419056 
L 373.470735 173.168046 
L 373.694047 183.46798 
L 373.917359 178.377438 
L 374.14067 178.474547 
L 374.363982 183.592834 
L 374.587294 178.460674 
L 375.033917 178.460674 
L 375.257229 183.592834 
L 375.703852 183.606707 
L 376.373787 168.202358 
L 376.597099 147.673718 
L 376.82041 142.478198 
L 377.043722 142.464325 
L 377.267034 147.645972 
L 377.936968 147.645972 
L 378.16028 147.659845 
L 378.383592 142.519816 
L 378.606903 142.533689 
L 378.830215 147.68759 
L 379.276838 147.701463 
L 379.50015 137.401529 
L 379.723462 142.533689 
L 380.393397 142.561434 
L 380.616708 147.756954 
L 380.84002 147.798572 
L 381.063332 142.603052 
L 381.509955 142.603052 
L 382.403202 142.603052 
L 382.626513 142.603052 
L 382.849825 137.470892 
L 383.073137 137.401529 
L 383.296448 132.310987 
L 383.51976 147.770827 
L 383.743072 142.575307 
L 383.966383 147.798572 
L 384.189695 147.770827 
L 384.413007 137.470892 
L 384.636318 142.616925 
L 384.85963 142.616925 
L 385.082941 147.867935 
L 385.306253 137.554128 
L 385.529565 142.714033 
L 385.752876 142.672415 
L 385.976188 137.51251 
L 386.1995 142.672415 
L 386.422811 142.672415 
L 386.646123 147.881808 
L 386.869435 158.173873 
L 387.092746 147.909553 
L 387.316058 158.160001 
L 387.53937 158.160001 
L 387.762681 163.278288 
L 387.985993 163.292161 
L 388.209305 158.146128 
L 388.87924 158.076765 
L 389.102551 158.10451 
L 389.325863 168.285594 
L 389.549175 163.292161 
L 390.665733 163.347651 
L 390.889045 173.639717 
L 391.335668 163.347651 
L 391.782291 163.333779 
L 392.005603 168.452066 
L 392.228914 168.465939 
L 392.452226 173.556481 
L 392.675538 163.292161 
L 393.345473 163.361524 
L 393.568784 168.493684 
L 394.015408 168.452066 
L 394.238719 168.493684 
L 394.462031 163.319906 
L 394.685343 168.535302 
L 395.355278 168.521429 
L 395.578589 173.653589 
L 395.801901 168.521429 
L 396.025213 158.270982 
L 396.248524 168.549175 
L 396.695148 168.535302 
L 396.918459 173.653589 
L 397.141771 168.493684 
L 397.365083 168.521429 
L 397.588394 178.862982 
L 398.258329 178.960091 
L 398.481641 178.960091 
L 398.928264 189.224411 
L 399.151576 184.092251 
L 399.374887 189.182793 
L 399.598199 178.918473 
L 399.821511 184.022888 
L 400.044822 194.273335 
L 400.268134 199.419368 
L 400.491446 189.182793 
L 400.714757 189.155048 
L 400.938069 184.009015 
L 401.161381 183.995142 
L 401.384692 178.876855 
L 401.608004 199.405495 
L 401.831316 199.391622 
L 402.277939 189.127302 
L 402.501251 189.085684 
L 402.724562 178.876855 
L 403.394497 178.849109 
L 403.841121 189.141175 
L 404.064432 184.03676 
L 404.287744 189.196666 
L 405.404302 189.141175 
L 405.627614 178.9046 
L 405.850925 250.909306 
L 406.074237 261.173626 
L 406.297549 261.173626 
L 406.744172 271.465691 
L 407.190795 271.479564 
L 407.414107 261.242989 
L 407.86073 251.020287 
L 408.307354 250.978669 
L 408.530665 256.138574 
L 408.753977 256.152447 
L 408.977289 266.444512 
L 409.423912 256.207938 
L 409.870535 266.444512 
L 410.093847 261.35397 
L 410.317159 266.444512 
L 410.54047 266.444512 
L 410.763782 271.61829 
L 410.987094 271.61829 
L 411.433717 261.312352 
L 411.657029 266.48613 
L 411.88034 266.444512 
L 412.103652 271.5628 
L 412.326963 261.312352 
L 412.550275 266.513876 
L 412.996898 266.513876 
L 413.22021 210.002759 
L 413.666833 220.38593 
L 413.890145 220.399803 
L 414.336768 210.072123 
L 414.56008 215.281515 
L 414.783392 215.281515 
L 415.006703 210.113741 
L 415.230015 215.309261 
L 415.453327 210.113741 
L 415.676638 215.226025 
L 416.793197 215.198279 
L 417.23982 215.226025 
L 417.463132 210.044377 
L 417.686443 215.239897 
L 417.909755 215.239897 
L 418.133067 210.044377 
L 418.356378 210.016632 
L 418.57969 204.912217 
L 418.803002 210.05825 
L 419.026313 225.434854 
L 419.249625 230.567014 
L 419.472936 225.476472 
L 419.696248 230.65025 
L 420.142871 230.553141 
L 420.589495 230.553141 
L 420.812806 220.191712 
L 421.25943 220.163967 
L 421.482741 230.428287 
L 421.706053 230.428287 
L 421.929365 235.518829 
L 422.152676 230.428287 
L 422.375988 235.588192 
L 422.5993 235.588192 
L 422.822611 240.692607 
L 423.045923 230.428287 
L 423.269235 235.588192 
L 423.715858 235.57432 
L 424.162481 225.351618 
L 424.385793 230.456032 
L 425.055728 230.483778 
L 425.27904 220.191712 
L 425.725663 220.191712 
L 425.948974 225.351618 
L 426.172286 220.219458 
L 427.735468 220.219458 
L 427.958779 215.128916 
L 428.182091 215.087298 
L 428.405403 220.219458 
L 429.075338 220.261076 
L 429.298649 219.955877 
L 429.521961 225.115782 
L 430.415208 225.060291 
L 430.638519 219.914259 
L 430.861831 204.468291 
L 431.085143 214.795971 
L 431.308454 219.886513 
L 431.755078 194.162353 
L 431.978389 199.294513 
L 432.201701 199.363877 
L 432.425013 204.385055 
L 432.871636 204.385055 
L 433.094947 219.81715 
L 433.318259 214.68499 
L 433.541571 214.712735 
L 433.764882 219.81715 
L 434.434817 219.789405 
L 434.658129 224.727347 
L 435.551376 224.768965 
L 435.774687 229.942743 
L 435.997999 224.810583 
L 436.221311 229.970489 
L 436.667934 229.970489 
L 436.891246 230.109215 
L 437.337869 229.998234 
L 437.561181 230.025979 
L 437.784492 235.130394 
L 438.007804 224.893819 
L 438.231116 219.761659 
L 438.677739 229.998234 
L 439.347674 229.956616 
L 439.570985 224.866074 
L 439.794297 224.824456 
L 440.017609 229.956616 
L 440.24092 229.956616 
L 440.464232 224.824456 
L 440.687544 224.866074 
L 440.910855 219.66455 
L 441.134167 224.824456 
L 441.357479 224.79671 
L 441.58079 229.956616 
L 441.804102 229.984361 
L 442.027414 224.866074 
L 442.697349 224.907692 
L 442.92066 214.629499 
L 444.037219 214.643372 
L 444.26053 209.447852 
L 444.483842 209.475597 
L 444.707154 214.68499 
L 445.377089 214.671117 
L 445.6004 209.447852 
L 445.823712 214.629499 
L 446.047024 209.406234 
L 446.270335 209.433979 
L 446.493647 214.643372 
L 446.716958 209.447852 
L 446.94027 214.643372 
L 447.610205 214.671117 
L 447.833517 209.48947 
L 448.056828 209.517215 
L 448.28014 214.712735 
L 448.726763 204.440546 
L 448.950075 209.572706 
L 449.396698 209.544961 
L 449.62001 178.752001 
L 449.843322 188.988575 
L 450.066633 183.856415 
L 450.95988 204.412801 
L 451.183192 199.280641 
L 451.406503 204.440546 
L 451.629815 204.440546 
L 451.853127 209.544961 
L 452.076438 209.544961 
L 452.29975 204.440546 
L 452.746373 204.412801 
L 452.969685 209.572706 
L 453.192996 209.572706 
L 453.416308 204.454419 
L 453.63962 209.642069 
L 453.862931 209.628197 
L 454.309555 199.350004 
L 454.756178 199.350004 
L 454.97949 194.231717 
L 455.202801 199.377749 
L 455.426113 199.391622 
L 455.649425 173.681335 
L 455.872736 168.549175 
L 456.096048 178.876855 
L 456.31936 178.862982 
L 456.765983 189.113429 
L 457.435918 173.736826 
L 457.65923 178.946218 
L 457.882541 178.946218 
L 458.105853 173.736826 
L 458.329165 173.750698 
L 458.552476 178.932346 
L 458.775788 173.736826 
L 459.222411 184.078378 
L 459.445723 204.593146 
L 459.669035 209.725306 
L 459.892346 204.593146 
L 460.115658 209.725306 
L 460.338969 199.599712 
L 460.562281 199.613585 
L 460.785593 194.50917 
L 461.008904 194.481425 
L 461.232216 199.613585 
L 461.678839 199.64133 
L 461.902151 194.467552 
L 462.795398 194.481425 
L 463.018709 189.335392 
L 463.242021 194.467552 
L 463.465333 189.32152 
L 463.911956 189.293774 
L 464.135268 194.425934 
L 464.358579 194.398189 
L 464.581891 199.530349 
L 464.805203 199.558094 
L 465.251826 189.32152 
L 465.698449 199.558094 
L 465.921761 173.792316 
L 466.145073 173.806189 
L 466.368384 158.437454 
L 466.591696 158.437454 
L 466.815008 168.701774 
L 467.038319 163.611232 
L 467.261631 168.72952 
L 467.484942 168.743392 
L 468.154877 153.38853 
L 468.378189 158.492945 
L 468.601501 153.346912 
L 468.824812 153.346912 
L 469.048124 158.4652 
L 469.271436 158.437454 
L 469.718059 168.743392 
L 470.164682 168.757265 
L 470.611306 158.492945 
L 470.834617 158.52069 
L 471.057929 163.65285 
L 471.281241 158.548436 
L 471.504552 163.666723 
L 471.727864 153.360785 
L 471.951176 179.168181 
L 472.174487 184.300341 
L 472.397799 184.328087 
L 472.621111 179.209799 
L 472.844422 184.341959 
L 473.291046 184.369705 
L 473.514357 179.209799 
L 473.96098 189.474119 
L 474.184292 184.341959 
L 475.077539 184.383577 
L 475.30085 189.501865 
L 475.747474 189.474119 
L 475.970785 194.634025 
L 476.194097 184.341959 
L 476.864032 184.328087 
L 477.087344 179.168181 
L 477.310655 179.168181 
L 477.533967 174.014279 
L 477.757279 174.014279 
L 477.98059 179.209799 
L 478.427214 168.715647 
L 478.873837 168.715647 
L 479.097149 173.889425 
L 479.32046 168.78501 
L 479.543772 173.944916 
L 479.767084 168.743392 
L 479.990395 168.757265 
L 480.213707 173.875552 
L 480.437019 168.715647 
L 480.66033 173.889425 
L 481.553577 173.91717 
L 481.776888 168.812756 
L 482.893447 168.868247 
L 483.116758 174.000407 
L 483.34007 168.840501 
L 483.563382 189.210538 
L 483.786693 184.106124 
L 484.010005 189.210538 
L 484.233317 184.106124 
L 485.126563 184.133869 
L 485.349875 189.307647 
L 485.573187 184.175487 
L 485.796498 189.335392 
L 486.243122 189.335392 
L 486.689745 179.098818 
L 486.913057 189.363138 
L 487.136368 189.335392 
L 487.35968 184.272596 
L 487.806303 184.230978 
L 488.029615 179.11269 
L 488.252926 179.098818 
L 488.476238 173.931043 
L 488.69955 173.91717 
L 488.922861 189.404756 
L 489.369485 189.446374 
L 489.592796 184.341959 
L 490.709355 184.341959 
L 490.932666 189.432501 
L 491.155978 189.404756 
L 491.37929 184.272596 
L 491.602601 189.404756 
L 492.049225 189.432501 
L 492.272536 184.314214 
L 492.495848 184.341959 
L 492.71916 189.501865 
L 492.942471 184.39745 
L 493.165783 189.501865 
L 493.612406 189.543483 
L 493.835718 184.39745 
L 494.282341 184.425195 
L 494.505653 189.52961 
L 494.728964 189.501865 
L 494.952276 184.39745 
L 495.175588 158.798144 
L 495.398899 158.825889 
L 495.622211 163.958049 
L 495.845523 163.999667 
L 496.068834 158.88138 
L 496.292146 164.027413 
L 496.515458 164.01354 
L 496.738769 169.159573 
L 496.962081 164.041286 
L 497.185393 169.187318 
L 497.408704 164.096776 
L 497.632016 133.268202 
L 498.078639 143.463158 
L 498.301951 143.504776 
L 498.525263 148.700296 
L 498.971886 148.658678 
L 499.195198 143.463158 
L 499.418509 148.700296 
L 499.641821 148.700296 
L 499.865133 143.532522 
L 500.088444 148.700296 
L 500.311756 143.477031 
L 500.535068 148.672551 
L 500.758379 148.672551 
L 501.205003 148.880641 
L 501.428314 148.880641 
L 501.651626 143.685121 
L 501.874937 148.908386 
L 502.098249 148.880641 
L 502.321561 143.62963 
L 502.768184 153.915692 
L 502.991496 148.82515 
L 503.438119 148.783532 
L 503.661431 153.90182 
L 504.108054 153.915692 
L 504.331366 159.047852 
L 504.554677 159.03398 
L 504.777989 153.95731 
L 505.001301 153.943438 
L 505.224612 159.103343 
L 505.447924 159.103343 
L 505.671236 164.180012 
L 505.894547 159.131088 
L 506.117859 159.144961 
L 506.341171 164.277121 
L 506.564482 164.277121 
L 507.011106 153.971183 
L 507.234417 241.358496 
L 507.681041 241.386241 
L 507.904352 246.609506 
L 508.127664 246.609506 
L 508.350975 251.686176 
L 508.574287 251.672303 
L 508.797599 256.804463 
L 509.02091 251.672303 
L 509.244222 256.818336 
L 509.914157 256.804463 
L 510.137469 251.65843 
L 510.36078 251.672303 
L 510.584092 246.554016 
L 510.807404 251.686176 
L 511.030715 251.672303 
L 511.254027 246.540143 
L 511.477339 246.554016 
L 511.70065 251.741666 
L 511.923962 246.581761 
L 512.147274 251.686176 
L 513.04052 251.700048 
L 513.263832 246.609506 
L 513.487144 231.149666 
L 513.710455 236.281826 
L 513.933767 231.121921 
L 514.157079 231.121921 
L 514.38039 236.212463 
L 514.827014 236.267954 
L 515.273637 236.212463 
L 515.496948 241.344623 
L 515.72026 231.080303 
L 515.943572 241.400114 
L 516.390195 231.191285 
L 516.836818 231.191285 
L 517.06013 236.281826 
L 517.283442 231.177412 
L 517.506753 231.21903 
L 517.730065 241.441732 
L 518.176688 241.622077 
L 518.4 251.727794 
L 518.4 251.727794 
" style="fill:none;stroke:#4c72b0;stroke-linecap:round;stroke-width:1.75;"/>
   </g>
   <g id="patch_3">
    <path d="M 72 356.4 
L 518.4 356.4 
" style="fill:none;"/>
   </g>
   <g id="patch_4">
    <path d="M 72 39.6 
L 518.4 39.6 
" style="fill:none;"/>
   </g>
   <g id="patch_5">
    <path d="M 72 356.4 
L 72 39.6 
" style="fill:none;"/>
   </g>
   <g id="patch_6">
    <path d="M 518.4 356.4 
L 518.4 39.6 
" style="fill:none;"/>
   </g>
   <g id="text_12">
    <!-- j - 0.2189501536670253 * T -->
    <defs>
     <path d="M 9.125 0 
L 9.125 10.6875 
L 18.65625 10.6875 
L 18.65625 0 
z
" id="LiberationSans-2e"/>
     <path d="M 6.6875 64.0625 
L 6.6875 72.46875 
L 15.484375 72.46875 
L 15.484375 64.0625 
z
M 15.484375 -6.546875 
Q 15.484375 -9.578125 14.96875 -12.15625 
Q 14.453125 -14.75 13.125 -16.65625 
Q 11.8125 -18.5625 9.546875 -19.65625 
Q 7.28125 -20.75 3.765625 -20.75 
Q 2.09375 -20.75 0.5 -20.65625 
Q -1.078125 -20.5625 -2.4375 -20.3125 
L -2.4375 -13.53125 
Q -1.8125 -13.625 -0.921875 -13.71875 
Q -0.046875 -13.8125 0.59375 -13.8125 
Q 2.4375 -13.8125 3.625 -13.328125 
Q 4.828125 -12.84375 5.515625 -11.796875 
Q 6.203125 -10.75 6.4375 -9.109375 
Q 6.6875 -7.46875 6.6875 -5.21875 
L 6.6875 52.828125 
L 15.484375 52.828125 
z
" id="LiberationSans-6a"/>
     <path d="M 22.265625 54.390625 
L 35.15625 59.421875 
L 37.359375 52.984375 
L 23.578125 49.421875 
L 32.625 37.203125 
L 26.8125 33.6875 
L 19.484375 46.296875 
L 11.859375 33.796875 
L 6.0625 37.3125 
L 15.28125 49.421875 
L 1.609375 52.984375 
L 3.8125 59.515625 
L 16.84375 54.296875 
L 16.265625 68.796875 
L 22.90625 68.796875 
z
" id="LiberationSans-2a"/>
     <path d="M 35.15625 61.1875 
L 35.15625 0 
L 25.875 0 
L 25.875 61.1875 
L 2.25 61.1875 
L 2.25 68.796875 
L 58.796875 68.796875 
L 58.796875 61.1875 
z
" id="LiberationSans-54"/>
    </defs>
    <g style="fill:#262626;" transform="translate(220.8140625 34.6)scale(0.12 -0.12)">
     <use xlink:href="#LiberationSans-6a"/>
     <use x="22.216796875" xlink:href="#LiberationSans-20"/>
     <use x="50.0" xlink:href="#LiberationSans-2d"/>
     <use x="83.30078125" xlink:href="#LiberationSans-20"/>
     <use x="111.083984375" xlink:href="#LiberationSans-30"/>
     <use x="166.69921875" xlink:href="#LiberationSans-2e"/>
     <use x="194.482421875" xlink:href="#LiberationSans-32"/>
     <use x="250.09765625" xlink:href="#LiberationSans-31"/>
     <use x="305.712890625" xlink:href="#LiberationSans-38"/>
     <use x="361.328125" xlink:href="#LiberationSans-39"/>
     <use x="416.943359375" xlink:href="#LiberationSans-35"/>
     <use x="472.55859375" xlink:href="#LiberationSans-30"/>
     <use x="528.173828125" xlink:href="#LiberationSans-31"/>
     <use x="583.7890625" xlink:href="#LiberationSans-35"/>
     <use x="639.404296875" xlink:href="#LiberationSans-33"/>
     <use x="695.01953125" xlink:href="#LiberationSans-36"/>
     <use x="750.634765625" xlink:href="#LiberationSans-36"/>
     <use x="806.25" xlink:href="#LiberationSans-37"/>
     <use x="861.865234375" xlink:href="#LiberationSans-30"/>
     <use x="917.48046875" xlink:href="#LiberationSans-32"/>
     <use x="973.095703125" xlink:href="#LiberationSans-35"/>
     <use x="1028.7109375" xlink:href="#LiberationSans-33"/>
     <use x="1084.326171875" xlink:href="#LiberationSans-20"/>
     <use x="1112.109375" xlink:href="#LiberationSans-2a"/>
     <use x="1151.025390625" xlink:href="#LiberationSans-20"/>
     <use x="1178.79296875" xlink:href="#LiberationSans-54"/>
    </g>
   </g>
  </g>
 </g>
 <defs>
  <clipPath id="p01408eaa28">
   <rect height="316.8" width="446.4" x="72.0" y="39.6"/>
  </clipPath>
 </defs>
</svg>
