<?xml version="1.0" encoding="utf-8" standalone="no"?>
<!DOCTYPE svg PUBLIC "-//W3C//DTD SVG 1.1//EN"
  "http://www.w3.org/Graphics/SVG/1.1/DTD/svg11.dtd">
<!-- Created with matplotlib (http://matplotlib.org/) -->
<svg height="396pt" version="1.1" viewBox="0 0 576 396" width="576pt" xmlns="http://www.w3.org/2000/svg" xmlns:xlink="http://www.w3.org/1999/xlink">
 <defs>
  <style type="text/css">
*{stroke-linecap:butt;stroke-linejoin:round;stroke-miterlimit:100000;}
  </style>
 </defs>
 <g id="figure_1">
  <g id="patch_1">
   <path d="M 0 396 
L 576 396 
L 576 0 
L 0 0 
z
" style="fill:#ffffff;"/>
  </g>
  <g id="axes_1">
   <g id="patch_2">
    <path d="M 72 356.4 
L 518.4 356.4 
L 518.4 39.6 
L 72 39.6 
z
" style="fill:#eaeaf2;"/>
   </g>
   <g id="matplotlib.axis_1">
    <g id="xtick_1">
     <g id="line2d_1">
      <path clip-path="url(#pdb988e4a00)" d="M 72 356.4 
L 72 39.6 
" style="fill:none;stroke:#ffffff;stroke-linecap:round;"/>
     </g>
     <g id="line2d_2"/>
     <g id="line2d_3"/>
     <g id="text_1">
      <!-- 2015-11-27 10:44:00 -->
      <defs>
       <path d="M 5.03125 0 
L 5.03125 6.203125 
Q 7.515625 11.921875 11.109375 16.28125 
Q 14.703125 20.65625 18.65625 24.1875 
Q 22.609375 27.734375 26.484375 30.765625 
Q 30.375 33.796875 33.5 36.8125 
Q 36.625 39.84375 38.546875 43.15625 
Q 40.484375 46.484375 40.484375 50.6875 
Q 40.484375 53.609375 39.59375 55.828125 
Q 38.71875 58.0625 37.0625 59.5625 
Q 35.40625 61.078125 33.078125 61.828125 
Q 30.765625 62.59375 27.9375 62.59375 
Q 25.296875 62.59375 22.96875 61.859375 
Q 20.65625 61.140625 18.84375 59.671875 
Q 17.046875 58.203125 15.890625 56.03125 
Q 14.75 53.859375 14.40625 50.984375 
L 5.421875 51.8125 
Q 5.859375 55.515625 7.46875 58.78125 
Q 9.078125 62.0625 11.90625 64.53125 
Q 14.75 67 18.71875 68.40625 
Q 22.703125 69.828125 27.9375 69.828125 
Q 33.0625 69.828125 37.0625 68.609375 
Q 41.0625 67.390625 43.8125 64.984375 
Q 46.578125 62.59375 48.046875 59.078125 
Q 49.515625 55.5625 49.515625 50.984375 
Q 49.515625 47.515625 48.265625 44.390625 
Q 47.015625 41.265625 44.9375 38.421875 
Q 42.875 35.59375 40.140625 32.953125 
Q 37.40625 30.328125 34.421875 27.8125 
Q 31.453125 25.296875 28.421875 22.828125 
Q 25.390625 20.359375 22.71875 17.859375 
Q 20.0625 15.375 17.96875 12.8125 
Q 15.875 10.25 14.703125 7.46875 
L 50.59375 7.46875 
L 50.59375 0 
z
" id="LiberationSans-32"/>
       <path d="M 7.625 0 
L 7.625 7.46875 
L 25.140625 7.46875 
L 25.140625 60.40625 
L 9.625 49.3125 
L 9.625 57.625 
L 25.875 68.796875 
L 33.984375 68.796875 
L 33.984375 7.46875 
L 50.734375 7.46875 
L 50.734375 0 
z
" id="LiberationSans-31"/>
       <path d="M 50.59375 61.671875 
Q 45.40625 53.765625 41.0625 46.453125 
Q 36.71875 39.15625 33.59375 31.75 
Q 30.46875 24.359375 28.734375 16.578125 
Q 27 8.796875 27 0 
L 17.828125 0 
Q 17.828125 8.25 19.78125 16.1875 
Q 21.734375 24.125 25.046875 31.765625 
Q 28.375 39.40625 32.765625 46.78125 
Q 37.15625 54.15625 42.09375 61.328125 
L 5.125 61.328125 
L 5.125 68.796875 
L 50.59375 68.796875 
z
" id="LiberationSans-37"/>
       <path d="M 51.703125 34.421875 
Q 51.703125 24.515625 49.828125 17.75 
Q 47.953125 10.984375 44.703125 6.8125 
Q 41.453125 2.640625 37.0625 0.828125 
Q 32.671875 -0.984375 27.6875 -0.984375 
Q 22.65625 -0.984375 18.3125 0.828125 
Q 13.96875 2.640625 10.765625 6.78125 
Q 7.5625 10.9375 5.734375 17.703125 
Q 3.90625 24.46875 3.90625 34.421875 
Q 3.90625 44.828125 5.734375 51.640625 
Q 7.5625 58.453125 10.78125 62.5 
Q 14.015625 66.546875 18.40625 68.1875 
Q 22.796875 69.828125 27.984375 69.828125 
Q 32.90625 69.828125 37.21875 68.1875 
Q 41.546875 66.546875 44.765625 62.5 
Q 48 58.453125 49.84375 51.640625 
Q 51.703125 44.828125 51.703125 34.421875 
M 42.78125 34.421875 
Q 42.78125 42.625 41.796875 48.0625 
Q 40.828125 53.515625 38.921875 56.765625 
Q 37.015625 60.015625 34.25 61.359375 
Q 31.5 62.703125 27.984375 62.703125 
Q 24.265625 62.703125 21.4375 61.328125 
Q 18.609375 59.96875 16.671875 56.71875 
Q 14.75 53.46875 13.765625 48.015625 
Q 12.796875 42.578125 12.796875 34.421875 
Q 12.796875 26.515625 13.796875 21.09375 
Q 14.796875 15.671875 16.71875 12.375 
Q 18.65625 9.078125 21.4375 7.640625 
Q 24.21875 6.203125 27.78125 6.203125 
Q 31.25 6.203125 34.03125 7.640625 
Q 36.8125 9.078125 38.734375 12.375 
Q 40.671875 15.671875 41.71875 21.09375 
Q 42.78125 26.515625 42.78125 34.421875 
" id="LiberationSans-30"/>
       <path d="M 9.125 42.71875 
L 9.125 52.828125 
L 18.65625 52.828125 
L 18.65625 42.71875 
z
M 9.125 0 
L 9.125 10.109375 
L 18.65625 10.109375 
L 18.65625 0 
z
" id="LiberationSans-3a"/>
       <path d="M 51.421875 22.40625 
Q 51.421875 17.234375 49.859375 12.9375 
Q 48.296875 8.640625 45.21875 5.53125 
Q 42.140625 2.4375 37.578125 0.71875 
Q 33.015625 -0.984375 27 -0.984375 
Q 21.578125 -0.984375 17.546875 0.28125 
Q 13.53125 1.5625 10.734375 3.78125 
Q 7.953125 6 6.3125 8.984375 
Q 4.6875 11.96875 4 15.375 
L 12.890625 16.40625 
Q 13.421875 14.453125 14.390625 12.625 
Q 15.375 10.796875 17.0625 9.34375 
Q 18.75 7.90625 21.21875 7.046875 
Q 23.6875 6.203125 27.203125 6.203125 
Q 30.609375 6.203125 33.390625 7.25 
Q 36.1875 8.296875 38.15625 10.34375 
Q 40.140625 12.40625 41.203125 15.375 
Q 42.28125 18.359375 42.28125 22.21875 
Q 42.28125 25.390625 41.25 28.046875 
Q 40.234375 30.71875 38.328125 32.640625 
Q 36.421875 34.578125 33.65625 35.640625 
Q 30.90625 36.71875 27.390625 36.71875 
Q 25.203125 36.71875 23.34375 36.328125 
Q 21.484375 35.9375 19.890625 35.25 
Q 18.3125 34.578125 17.015625 33.671875 
Q 15.71875 32.765625 14.59375 31.78125 
L 6 31.78125 
L 8.296875 68.796875 
L 47.40625 68.796875 
L 47.40625 61.328125 
L 16.3125 61.328125 
L 14.984375 39.5 
Q 17.328125 41.3125 20.84375 42.59375 
Q 24.359375 43.890625 29.203125 43.890625 
Q 34.328125 43.890625 38.421875 42.328125 
Q 42.53125 40.765625 45.40625 37.90625 
Q 48.296875 35.0625 49.859375 31.109375 
Q 51.421875 27.15625 51.421875 22.40625 
" id="LiberationSans-35"/>
       <path id="LiberationSans-20"/>
       <path d="M 4.4375 22.65625 
L 4.4375 30.46875 
L 28.859375 30.46875 
L 28.859375 22.65625 
z
" id="LiberationSans-2d"/>
       <path d="M 43.015625 15.578125 
L 43.015625 0 
L 34.71875 0 
L 34.71875 15.578125 
L 2.296875 15.578125 
L 2.296875 22.40625 
L 33.796875 68.796875 
L 43.015625 68.796875 
L 43.015625 22.515625 
L 52.6875 22.515625 
L 52.6875 15.578125 
z
M 34.71875 58.890625 
Q 34.625 58.640625 34.234375 57.9375 
Q 33.84375 57.234375 33.34375 56.34375 
Q 32.859375 55.46875 32.34375 54.5625 
Q 31.84375 53.65625 31.453125 53.078125 
L 13.8125 27.09375 
Q 13.578125 26.703125 13.109375 26.0625 
Q 12.640625 25.4375 12.15625 24.78125 
Q 11.671875 24.125 11.171875 23.484375 
Q 10.6875 22.859375 10.40625 22.515625 
L 34.71875 22.515625 
z
" id="LiberationSans-34"/>
      </defs>
      <g style="fill:#262626;" transform="translate(25.5765625 370.646875)scale(0.1 -0.1)">
       <use xlink:href="#LiberationSans-32"/>
       <use x="55.615234375" xlink:href="#LiberationSans-30"/>
       <use x="111.23046875" xlink:href="#LiberationSans-31"/>
       <use x="166.845703125" xlink:href="#LiberationSans-35"/>
       <use x="222.4609375" xlink:href="#LiberationSans-2d"/>
       <use x="255.76171875" xlink:href="#LiberationSans-31"/>
       <use x="311.376953125" xlink:href="#LiberationSans-31"/>
       <use x="366.9921875" xlink:href="#LiberationSans-2d"/>
       <use x="400.29296875" xlink:href="#LiberationSans-32"/>
       <use x="455.908203125" xlink:href="#LiberationSans-37"/>
       <use x="511.5234375" xlink:href="#LiberationSans-20"/>
       <use x="539.306640625" xlink:href="#LiberationSans-31"/>
       <use x="594.921875" xlink:href="#LiberationSans-30"/>
       <use x="650.537109375" xlink:href="#LiberationSans-3a"/>
       <use x="678.3203125" xlink:href="#LiberationSans-34"/>
       <use x="733.935546875" xlink:href="#LiberationSans-34"/>
       <use x="789.55078125" xlink:href="#LiberationSans-3a"/>
       <use x="817.333984375" xlink:href="#LiberationSans-30"/>
       <use x="872.94921875" xlink:href="#LiberationSans-30"/>
      </g>
     </g>
    </g>
    <g id="xtick_2">
     <g id="line2d_4">
      <path clip-path="url(#pdb988e4a00)" d="M 183.655828 356.4 
L 183.655828 39.6 
" style="fill:none;stroke:#ffffff;stroke-linecap:round;"/>
     </g>
     <g id="line2d_5"/>
     <g id="line2d_6"/>
     <g id="text_2">
      <!-- 2015-11-30 22:28:00 -->
      <defs>
       <path d="M 51.265625 19.1875 
Q 51.265625 14.796875 49.875 11.109375 
Q 48.484375 7.421875 45.625 4.734375 
Q 42.78125 2.046875 38.328125 0.53125 
Q 33.890625 -0.984375 27.828125 -0.984375 
Q 21.78125 -0.984375 17.359375 0.53125 
Q 12.9375 2.046875 10.03125 4.703125 
Q 7.125 7.375 5.734375 11.0625 
Q 4.34375 14.75 4.34375 19.09375 
Q 4.34375 22.859375 5.484375 25.78125 
Q 6.640625 28.71875 8.5625 30.828125 
Q 10.5 32.953125 12.96875 34.25 
Q 15.4375 35.546875 18.0625 35.984375 
L 18.0625 36.1875 
Q 15.1875 36.859375 12.90625 38.375 
Q 10.640625 39.890625 9.09375 42.015625 
Q 7.5625 44.140625 6.75 46.71875 
Q 5.953125 49.3125 5.953125 52.203125 
Q 5.953125 55.8125 7.34375 59 
Q 8.734375 62.203125 11.46875 64.625 
Q 14.203125 67.046875 18.25 68.4375 
Q 22.3125 69.828125 27.640625 69.828125 
Q 33.25 69.828125 37.375 68.40625 
Q 41.5 67 44.203125 64.578125 
Q 46.921875 62.15625 48.234375 58.9375 
Q 49.5625 55.71875 49.5625 52.09375 
Q 49.5625 49.265625 48.75 46.671875 
Q 47.953125 44.09375 46.40625 41.96875 
Q 44.875 39.84375 42.59375 38.34375 
Q 40.328125 36.859375 37.359375 36.28125 
L 37.359375 36.078125 
Q 40.328125 35.59375 42.859375 34.296875 
Q 45.40625 33.015625 47.265625 30.890625 
Q 49.125 28.765625 50.1875 25.828125 
Q 51.265625 22.90625 51.265625 19.1875 
M 40.4375 51.609375 
Q 40.4375 54.203125 39.765625 56.34375 
Q 39.109375 58.5 37.59375 60.03125 
Q 36.078125 61.578125 33.640625 62.421875 
Q 31.203125 63.28125 27.640625 63.28125 
Q 24.171875 63.28125 21.78125 62.421875 
Q 19.390625 61.578125 17.84375 60.03125 
Q 16.3125 58.5 15.625 56.34375 
Q 14.9375 54.203125 14.9375 51.609375 
Q 14.9375 49.5625 15.46875 47.40625 
Q 16.015625 45.265625 17.421875 43.5 
Q 18.84375 41.75 21.328125 40.625 
Q 23.828125 39.5 27.734375 39.5 
Q 31.890625 39.5 34.40625 40.625 
Q 36.921875 41.75 38.25 43.5 
Q 39.59375 45.265625 40.015625 47.40625 
Q 40.4375 49.5625 40.4375 51.609375 
M 42.140625 20.015625 
Q 42.140625 22.515625 41.453125 24.828125 
Q 40.765625 27.15625 39.109375 28.9375 
Q 37.453125 30.71875 34.640625 31.8125 
Q 31.84375 32.90625 27.640625 32.90625 
Q 23.78125 32.90625 21.0625 31.8125 
Q 18.359375 30.71875 16.671875 28.90625 
Q 14.984375 27.09375 14.203125 24.71875 
Q 13.421875 22.359375 13.421875 19.828125 
Q 13.421875 16.65625 14.203125 14.03125 
Q 14.984375 11.421875 16.6875 9.546875 
Q 18.40625 7.671875 21.1875 6.640625 
Q 23.96875 5.609375 27.9375 5.609375 
Q 31.9375 5.609375 34.671875 6.640625 
Q 37.40625 7.671875 39.0625 9.546875 
Q 40.71875 11.421875 41.421875 14.078125 
Q 42.140625 16.75 42.140625 20.015625 
" id="LiberationSans-38"/>
       <path d="M 51.21875 19 
Q 51.21875 14.265625 49.671875 10.546875 
Q 48.140625 6.84375 45.1875 4.265625 
Q 42.234375 1.703125 37.859375 0.359375 
Q 33.5 -0.984375 27.875 -0.984375 
Q 21.484375 -0.984375 17.109375 0.609375 
Q 12.75 2.203125 9.90625 4.8125 
Q 7.078125 7.421875 5.65625 10.765625 
Q 4.25 14.109375 3.8125 17.671875 
L 12.890625 18.5 
Q 13.28125 15.765625 14.328125 13.515625 
Q 15.375 11.28125 17.1875 9.671875 
Q 19 8.0625 21.625 7.171875 
Q 24.265625 6.296875 27.875 6.296875 
Q 34.515625 6.296875 38.296875 9.5625 
Q 42.09375 12.84375 42.09375 19.28125 
Q 42.09375 23.09375 40.40625 25.40625 
Q 38.71875 27.734375 36.203125 29.03125 
Q 33.6875 30.328125 30.734375 30.765625 
Q 27.78125 31.203125 25.296875 31.203125 
L 20.3125 31.203125 
L 20.3125 38.8125 
L 25.09375 38.8125 
Q 27.59375 38.8125 30.265625 39.328125 
Q 32.953125 39.84375 35.171875 41.1875 
Q 37.40625 42.53125 38.84375 44.828125 
Q 40.28125 47.125 40.28125 50.6875 
Q 40.28125 56.203125 37.03125 59.390625 
Q 33.796875 62.59375 27.390625 62.59375 
Q 21.578125 62.59375 17.984375 59.609375 
Q 14.40625 56.640625 13.8125 51.21875 
L 4.984375 51.90625 
Q 5.515625 56.453125 7.46875 59.8125 
Q 9.421875 63.1875 12.421875 65.40625 
Q 15.4375 67.625 19.28125 68.71875 
Q 23.140625 69.828125 27.484375 69.828125 
Q 33.25 69.828125 37.390625 68.375 
Q 41.546875 66.9375 44.1875 64.46875 
Q 46.828125 62.015625 48.0625 58.6875 
Q 49.3125 55.375 49.3125 51.609375 
Q 49.3125 48.578125 48.484375 45.9375 
Q 47.65625 43.3125 45.890625 41.203125 
Q 44.140625 39.109375 41.421875 37.59375 
Q 38.71875 36.078125 34.90625 35.296875 
L 34.90625 35.109375 
Q 39.0625 34.671875 42.140625 33.21875 
Q 45.21875 31.78125 47.21875 29.625 
Q 49.21875 27.484375 50.21875 24.75 
Q 51.21875 22.015625 51.21875 19 
" id="LiberationSans-33"/>
      </defs>
      <g style="fill:#262626;" transform="translate(137.232390414 370.646875)scale(0.1 -0.1)">
       <use xlink:href="#LiberationSans-32"/>
       <use x="55.615234375" xlink:href="#LiberationSans-30"/>
       <use x="111.23046875" xlink:href="#LiberationSans-31"/>
       <use x="166.845703125" xlink:href="#LiberationSans-35"/>
       <use x="222.4609375" xlink:href="#LiberationSans-2d"/>
       <use x="255.76171875" xlink:href="#LiberationSans-31"/>
       <use x="311.376953125" xlink:href="#LiberationSans-31"/>
       <use x="366.9921875" xlink:href="#LiberationSans-2d"/>
       <use x="400.29296875" xlink:href="#LiberationSans-33"/>
       <use x="455.908203125" xlink:href="#LiberationSans-30"/>
       <use x="511.5234375" xlink:href="#LiberationSans-20"/>
       <use x="539.306640625" xlink:href="#LiberationSans-32"/>
       <use x="594.921875" xlink:href="#LiberationSans-32"/>
       <use x="650.537109375" xlink:href="#LiberationSans-3a"/>
       <use x="678.3203125" xlink:href="#LiberationSans-32"/>
       <use x="733.935546875" xlink:href="#LiberationSans-38"/>
       <use x="789.55078125" xlink:href="#LiberationSans-3a"/>
       <use x="817.333984375" xlink:href="#LiberationSans-30"/>
       <use x="872.94921875" xlink:href="#LiberationSans-30"/>
      </g>
     </g>
    </g>
    <g id="xtick_3">
     <g id="line2d_7">
      <path clip-path="url(#pdb988e4a00)" d="M 295.311656 356.4 
L 295.311656 39.6 
" style="fill:none;stroke:#ffffff;stroke-linecap:round;"/>
     </g>
     <g id="line2d_8"/>
     <g id="line2d_9"/>
     <g id="text_3">
      <!-- 2015-12-03 13:42:00 -->
      <g style="fill:#262626;" transform="translate(248.888218328 370.646875)scale(0.1 -0.1)">
       <use xlink:href="#LiberationSans-32"/>
       <use x="55.615234375" xlink:href="#LiberationSans-30"/>
       <use x="111.23046875" xlink:href="#LiberationSans-31"/>
       <use x="166.845703125" xlink:href="#LiberationSans-35"/>
       <use x="222.4609375" xlink:href="#LiberationSans-2d"/>
       <use x="255.76171875" xlink:href="#LiberationSans-31"/>
       <use x="311.376953125" xlink:href="#LiberationSans-32"/>
       <use x="366.9921875" xlink:href="#LiberationSans-2d"/>
       <use x="400.29296875" xlink:href="#LiberationSans-30"/>
       <use x="455.908203125" xlink:href="#LiberationSans-33"/>
       <use x="511.5234375" xlink:href="#LiberationSans-20"/>
       <use x="539.306640625" xlink:href="#LiberationSans-31"/>
       <use x="594.921875" xlink:href="#LiberationSans-33"/>
       <use x="650.537109375" xlink:href="#LiberationSans-3a"/>
       <use x="678.3203125" xlink:href="#LiberationSans-34"/>
       <use x="733.935546875" xlink:href="#LiberationSans-32"/>
       <use x="789.55078125" xlink:href="#LiberationSans-3a"/>
       <use x="817.333984375" xlink:href="#LiberationSans-30"/>
       <use x="872.94921875" xlink:href="#LiberationSans-30"/>
      </g>
     </g>
    </g>
    <g id="xtick_4">
     <g id="line2d_10">
      <path clip-path="url(#pdb988e4a00)" d="M 406.967484 356.4 
L 406.967484 39.6 
" style="fill:none;stroke:#ffffff;stroke-linecap:round;"/>
     </g>
     <g id="line2d_11"/>
     <g id="line2d_12"/>
     <g id="text_4">
      <!-- 2015-12-09 09:29:00 -->
      <defs>
       <path d="M 50.875 35.796875 
Q 50.875 26.609375 49.140625 19.703125 
Q 47.40625 12.796875 44.1875 8.203125 
Q 40.96875 3.609375 36.34375 1.3125 
Q 31.734375 -0.984375 25.984375 -0.984375 
Q 22.015625 -0.984375 18.84375 -0.171875 
Q 15.671875 0.640625 13.171875 2.34375 
Q 10.6875 4.046875 8.921875 6.78125 
Q 7.171875 9.515625 6.109375 13.375 
L 14.5 14.703125 
Q 15.875 10.25 18.78125 8.171875 
Q 21.6875 6.109375 26.125 6.109375 
Q 29.6875 6.109375 32.640625 7.78125 
Q 35.59375 9.46875 37.671875 12.84375 
Q 39.75 16.21875 40.921875 21.296875 
Q 42.09375 26.375 42.1875 33.203125 
Q 41.15625 30.90625 39.375 29.09375 
Q 37.59375 27.296875 35.328125 26.046875 
Q 33.0625 24.8125 30.421875 24.140625 
Q 27.78125 23.484375 25.09375 23.484375 
Q 20.40625 23.484375 16.625 25.171875 
Q 12.84375 26.859375 10.203125 29.875 
Q 7.5625 32.90625 6.125 37.171875 
Q 4.6875 41.453125 4.6875 46.6875 
Q 4.6875 52 6.21875 56.296875 
Q 7.765625 60.59375 10.6875 63.59375 
Q 13.625 66.609375 17.890625 68.21875 
Q 22.171875 69.828125 27.59375 69.828125 
Q 39.0625 69.828125 44.96875 61.328125 
Q 50.875 52.828125 50.875 35.796875 
M 41.3125 44.28125 
Q 41.3125 48.09375 40.40625 51.453125 
Q 39.5 54.828125 37.71875 57.3125 
Q 35.9375 59.8125 33.328125 61.25 
Q 30.71875 62.703125 27.296875 62.703125 
Q 24.125 62.703125 21.578125 61.578125 
Q 19.046875 60.453125 17.28125 58.375 
Q 15.53125 56.296875 14.578125 53.3125 
Q 13.625 50.34375 13.625 46.6875 
Q 13.625 43.21875 14.46875 40.234375 
Q 15.328125 37.25 17.03125 35.078125 
Q 18.75 32.90625 21.28125 31.65625 
Q 23.828125 30.421875 27.203125 30.421875 
Q 29.640625 30.421875 32.15625 31.25 
Q 34.671875 32.078125 36.6875 33.78125 
Q 38.71875 35.5 40.015625 38.109375 
Q 41.3125 40.71875 41.3125 44.28125 
" id="LiberationSans-39"/>
      </defs>
      <g style="fill:#262626;" transform="translate(360.544046242 370.646875)scale(0.1 -0.1)">
       <use xlink:href="#LiberationSans-32"/>
       <use x="55.615234375" xlink:href="#LiberationSans-30"/>
       <use x="111.23046875" xlink:href="#LiberationSans-31"/>
       <use x="166.845703125" xlink:href="#LiberationSans-35"/>
       <use x="222.4609375" xlink:href="#LiberationSans-2d"/>
       <use x="255.76171875" xlink:href="#LiberationSans-31"/>
       <use x="311.376953125" xlink:href="#LiberationSans-32"/>
       <use x="366.9921875" xlink:href="#LiberationSans-2d"/>
       <use x="400.29296875" xlink:href="#LiberationSans-30"/>
       <use x="455.908203125" xlink:href="#LiberationSans-39"/>
       <use x="511.5234375" xlink:href="#LiberationSans-20"/>
       <use x="539.306640625" xlink:href="#LiberationSans-30"/>
       <use x="594.921875" xlink:href="#LiberationSans-39"/>
       <use x="650.537109375" xlink:href="#LiberationSans-3a"/>
       <use x="678.3203125" xlink:href="#LiberationSans-32"/>
       <use x="733.935546875" xlink:href="#LiberationSans-39"/>
       <use x="789.55078125" xlink:href="#LiberationSans-3a"/>
       <use x="817.333984375" xlink:href="#LiberationSans-30"/>
       <use x="872.94921875" xlink:href="#LiberationSans-30"/>
      </g>
     </g>
    </g>
    <g id="text_5">
     <!-- time -->
     <defs>
      <path d="M 13.484375 24.5625 
Q 13.484375 20.40625 14.328125 16.90625 
Q 15.1875 13.421875 16.96875 10.90625 
Q 18.75 8.40625 21.53125 7 
Q 24.3125 5.609375 28.21875 5.609375 
Q 33.9375 5.609375 37.375 7.90625 
Q 40.828125 10.203125 42.046875 13.71875 
L 49.75 11.53125 
Q 48.921875 9.328125 47.4375 7.109375 
Q 45.953125 4.890625 43.453125 3.09375 
Q 40.96875 1.3125 37.234375 0.15625 
Q 33.5 -0.984375 28.21875 -0.984375 
Q 16.5 -0.984375 10.375 6 
Q 4.25 12.984375 4.25 26.765625 
Q 4.25 34.1875 6.09375 39.328125 
Q 7.953125 44.484375 11.171875 47.703125 
Q 14.40625 50.921875 18.703125 52.359375 
Q 23 53.8125 27.875 53.8125 
Q 34.515625 53.8125 38.984375 51.65625 
Q 43.453125 49.515625 46.15625 45.71875 
Q 48.875 41.9375 50.015625 36.8125 
Q 51.171875 31.6875 51.171875 25.734375 
L 51.171875 24.5625 
z
M 42.09375 31.296875 
Q 41.359375 39.65625 37.84375 43.484375 
Q 34.328125 47.3125 27.734375 47.3125 
Q 25.53125 47.3125 23.109375 46.609375 
Q 20.703125 45.90625 18.65625 44.09375 
Q 16.609375 42.28125 15.1875 39.171875 
Q 13.765625 36.078125 13.578125 31.296875 
z
" id="LiberationSans-65"/>
      <path d="M 6.6875 64.0625 
L 6.6875 72.46875 
L 15.484375 72.46875 
L 15.484375 64.0625 
z
M 6.6875 0 
L 6.6875 52.828125 
L 15.484375 52.828125 
L 15.484375 0 
z
" id="LiberationSans-69"/>
      <path d="M 27.046875 0.390625 
Q 25.046875 -0.140625 22.96875 -0.453125 
Q 20.90625 -0.78125 18.171875 -0.78125 
Q 7.625 -0.78125 7.625 11.1875 
L 7.625 46.4375 
L 1.515625 46.4375 
L 1.515625 52.828125 
L 7.953125 52.828125 
L 10.546875 64.65625 
L 16.40625 64.65625 
L 16.40625 52.828125 
L 26.171875 52.828125 
L 26.171875 46.4375 
L 16.40625 46.4375 
L 16.40625 13.09375 
Q 16.40625 9.28125 17.640625 7.734375 
Q 18.890625 6.203125 21.96875 6.203125 
Q 23.25 6.203125 24.4375 6.390625 
Q 25.640625 6.59375 27.046875 6.890625 
z
" id="LiberationSans-74"/>
      <path d="M 37.5 0 
L 37.5 33.5 
Q 37.5 37.359375 37.015625 39.9375 
Q 36.53125 42.53125 35.375 44.109375 
Q 34.234375 45.703125 32.375 46.359375 
Q 30.515625 47.015625 27.828125 47.015625 
Q 25.046875 47.015625 22.796875 45.921875 
Q 20.5625 44.828125 18.96875 42.75 
Q 17.390625 40.671875 16.53125 37.625 
Q 15.671875 34.578125 15.671875 30.609375 
L 15.671875 0 
L 6.9375 0 
L 6.9375 41.546875 
Q 6.9375 43.21875 6.90625 45.046875 
Q 6.890625 46.875 6.828125 48.5 
Q 6.78125 50.140625 6.734375 51.3125 
Q 6.6875 52.484375 6.640625 52.828125 
L 14.9375 52.828125 
Q 14.984375 52.59375 15.03125 51.515625 
Q 15.09375 50.4375 15.15625 49.046875 
Q 15.234375 47.65625 15.28125 46.21875 
Q 15.328125 44.78125 15.328125 43.796875 
L 15.484375 43.796875 
Q 16.65625 46.09375 18.015625 47.953125 
Q 19.390625 49.8125 21.21875 51.09375 
Q 23.046875 52.390625 25.40625 53.09375 
Q 27.78125 53.8125 30.90625 53.8125 
Q 36.921875 53.8125 40.40625 51.421875 
Q 43.890625 49.03125 45.265625 43.796875 
L 45.40625 43.796875 
Q 46.578125 46.09375 48.046875 47.953125 
Q 49.515625 49.8125 51.46875 51.09375 
Q 53.421875 52.390625 55.859375 53.09375 
Q 58.296875 53.8125 61.421875 53.8125 
Q 65.4375 53.8125 68.328125 52.734375 
Q 71.234375 51.65625 73.09375 49.40625 
Q 74.953125 47.171875 75.828125 43.625 
Q 76.703125 40.09375 76.703125 35.203125 
L 76.703125 0 
L 68.015625 0 
L 68.015625 33.5 
Q 68.015625 37.359375 67.53125 39.9375 
Q 67.046875 42.53125 65.890625 44.109375 
Q 64.75 45.703125 62.890625 46.359375 
Q 61.03125 47.015625 58.34375 47.015625 
Q 55.5625 47.015625 53.3125 45.96875 
Q 51.078125 44.921875 49.484375 42.875 
Q 47.90625 40.828125 47.046875 37.75 
Q 46.1875 34.671875 46.1875 30.609375 
L 46.1875 0 
z
" id="LiberationSans-6d"/>
     </defs>
     <g style="fill:#262626;" transform="translate(284.81015625 385.6934375)scale(0.11 -0.11)">
      <use xlink:href="#LiberationSans-74"/>
      <use x="27.783203125" xlink:href="#LiberationSans-69"/>
      <use x="50.0" xlink:href="#LiberationSans-6d"/>
      <use x="133.30078125" xlink:href="#LiberationSans-65"/>
     </g>
    </g>
   </g>
   <g id="matplotlib.axis_2">
    <g id="ytick_1">
     <g id="line2d_13">
      <path clip-path="url(#pdb988e4a00)" d="M 72 356.4 
L 518.4 356.4 
" style="fill:none;stroke:#ffffff;stroke-linecap:round;"/>
     </g>
     <g id="line2d_14"/>
     <g id="line2d_15"/>
     <g id="text_6">
      <!-- −3000 -->
      <defs>
       <path d="M 4.9375 29.6875 
L 4.9375 36.8125 
L 53.515625 36.8125 
L 53.515625 29.6875 
z
" id="LiberationSans-2212"/>
      </defs>
      <g style="fill:#262626;" transform="translate(36.915625 358.9859375)scale(0.1 -0.1)">
       <use xlink:href="#LiberationSans-2212"/>
       <use x="58.3984375" xlink:href="#LiberationSans-33"/>
       <use x="114.013671875" xlink:href="#LiberationSans-30"/>
       <use x="169.62890625" xlink:href="#LiberationSans-30"/>
       <use x="225.244140625" xlink:href="#LiberationSans-30"/>
      </g>
     </g>
    </g>
    <g id="ytick_2">
     <g id="line2d_16">
      <path clip-path="url(#pdb988e4a00)" d="M 72 321.2 
L 518.4 321.2 
" style="fill:none;stroke:#ffffff;stroke-linecap:round;"/>
     </g>
     <g id="line2d_17"/>
     <g id="line2d_18"/>
     <g id="text_7">
      <!-- −2500 -->
      <g style="fill:#262626;" transform="translate(36.915625 323.7859375)scale(0.1 -0.1)">
       <use xlink:href="#LiberationSans-2212"/>
       <use x="58.3984375" xlink:href="#LiberationSans-32"/>
       <use x="114.013671875" xlink:href="#LiberationSans-35"/>
       <use x="169.62890625" xlink:href="#LiberationSans-30"/>
       <use x="225.244140625" xlink:href="#LiberationSans-30"/>
      </g>
     </g>
    </g>
    <g id="ytick_3">
     <g id="line2d_19">
      <path clip-path="url(#pdb988e4a00)" d="M 72 286 
L 518.4 286 
" style="fill:none;stroke:#ffffff;stroke-linecap:round;"/>
     </g>
     <g id="line2d_20"/>
     <g id="line2d_21"/>
     <g id="text_8">
      <!-- −2000 -->
      <g style="fill:#262626;" transform="translate(36.915625 288.5859375)scale(0.1 -0.1)">
       <use xlink:href="#LiberationSans-2212"/>
       <use x="58.3984375" xlink:href="#LiberationSans-32"/>
       <use x="114.013671875" xlink:href="#LiberationSans-30"/>
       <use x="169.62890625" xlink:href="#LiberationSans-30"/>
       <use x="225.244140625" xlink:href="#LiberationSans-30"/>
      </g>
     </g>
    </g>
    <g id="ytick_4">
     <g id="line2d_22">
      <path clip-path="url(#pdb988e4a00)" d="M 72 250.8 
L 518.4 250.8 
" style="fill:none;stroke:#ffffff;stroke-linecap:round;"/>
     </g>
     <g id="line2d_23"/>
     <g id="line2d_24"/>
     <g id="text_9">
      <!-- −1500 -->
      <g style="fill:#262626;" transform="translate(36.915625 253.3859375)scale(0.1 -0.1)">
       <use xlink:href="#LiberationSans-2212"/>
       <use x="58.3984375" xlink:href="#LiberationSans-31"/>
       <use x="114.013671875" xlink:href="#LiberationSans-35"/>
       <use x="169.62890625" xlink:href="#LiberationSans-30"/>
       <use x="225.244140625" xlink:href="#LiberationSans-30"/>
      </g>
     </g>
    </g>
    <g id="ytick_5">
     <g id="line2d_25">
      <path clip-path="url(#pdb988e4a00)" d="M 72 215.6 
L 518.4 215.6 
" style="fill:none;stroke:#ffffff;stroke-linecap:round;"/>
     </g>
     <g id="line2d_26"/>
     <g id="line2d_27"/>
     <g id="text_10">
      <!-- −1000 -->
      <g style="fill:#262626;" transform="translate(36.915625 218.1859375)scale(0.1 -0.1)">
       <use xlink:href="#LiberationSans-2212"/>
       <use x="58.3984375" xlink:href="#LiberationSans-31"/>
       <use x="114.013671875" xlink:href="#LiberationSans-30"/>
       <use x="169.62890625" xlink:href="#LiberationSans-30"/>
       <use x="225.244140625" xlink:href="#LiberationSans-30"/>
      </g>
     </g>
    </g>
    <g id="ytick_6">
     <g id="line2d_28">
      <path clip-path="url(#pdb988e4a00)" d="M 72 180.4 
L 518.4 180.4 
" style="fill:none;stroke:#ffffff;stroke-linecap:round;"/>
     </g>
     <g id="line2d_29"/>
     <g id="line2d_30"/>
     <g id="text_11">
      <!-- −500 -->
      <g style="fill:#262626;" transform="translate(42.4765625 182.9859375)scale(0.1 -0.1)">
       <use xlink:href="#LiberationSans-2212"/>
       <use x="58.3984375" xlink:href="#LiberationSans-35"/>
       <use x="114.013671875" xlink:href="#LiberationSans-30"/>
       <use x="169.62890625" xlink:href="#LiberationSans-30"/>
      </g>
     </g>
    </g>
    <g id="ytick_7">
     <g id="line2d_31">
      <path clip-path="url(#pdb988e4a00)" d="M 72 145.2 
L 518.4 145.2 
" style="fill:none;stroke:#ffffff;stroke-linecap:round;"/>
     </g>
     <g id="line2d_32"/>
     <g id="line2d_33"/>
     <g id="text_12">
      <!-- 0 -->
      <g style="fill:#262626;" transform="translate(59.4390625 147.7859375)scale(0.1 -0.1)">
       <use xlink:href="#LiberationSans-30"/>
      </g>
     </g>
    </g>
    <g id="ytick_8">
     <g id="line2d_34">
      <path clip-path="url(#pdb988e4a00)" d="M 72 110 
L 518.4 110 
" style="fill:none;stroke:#ffffff;stroke-linecap:round;"/>
     </g>
     <g id="line2d_35"/>
     <g id="line2d_36"/>
     <g id="text_13">
      <!-- 500 -->
      <g style="fill:#262626;" transform="translate(48.3171875 112.5859375)scale(0.1 -0.1)">
       <use xlink:href="#LiberationSans-35"/>
       <use x="55.615234375" xlink:href="#LiberationSans-30"/>
       <use x="111.23046875" xlink:href="#LiberationSans-30"/>
      </g>
     </g>
    </g>
    <g id="ytick_9">
     <g id="line2d_37">
      <path clip-path="url(#pdb988e4a00)" d="M 72 74.8 
L 518.4 74.8 
" style="fill:none;stroke:#ffffff;stroke-linecap:round;"/>
     </g>
     <g id="line2d_38"/>
     <g id="line2d_39"/>
     <g id="text_14">
      <!-- 1000 -->
      <g style="fill:#262626;" transform="translate(42.75625 77.3859375)scale(0.1 -0.1)">
       <use xlink:href="#LiberationSans-31"/>
       <use x="55.615234375" xlink:href="#LiberationSans-30"/>
       <use x="111.23046875" xlink:href="#LiberationSans-30"/>
       <use x="166.845703125" xlink:href="#LiberationSans-30"/>
      </g>
     </g>
    </g>
    <g id="ytick_10">
     <g id="line2d_40">
      <path clip-path="url(#pdb988e4a00)" d="M 72 39.6 
L 518.4 39.6 
" style="fill:none;stroke:#ffffff;stroke-linecap:round;"/>
     </g>
     <g id="line2d_41"/>
     <g id="line2d_42"/>
     <g id="text_15">
      <!-- 1500 -->
      <g style="fill:#262626;" transform="translate(42.75625 42.1859375)scale(0.1 -0.1)">
       <use xlink:href="#LiberationSans-31"/>
       <use x="55.615234375" xlink:href="#LiberationSans-35"/>
       <use x="111.23046875" xlink:href="#LiberationSans-30"/>
       <use x="166.845703125" xlink:href="#LiberationSans-30"/>
      </g>
     </g>
    </g>
   </g>
   <g id="line2d_43">
    <path clip-path="url(#pdb988e4a00)" d="M 72 208.859153 
L 72.223312 214.990993 
L 72.446623 199.633901 
L 72.893247 223.380018 
L 73.116558 217.66553 
L 73.33987 225.789732 
L 73.563182 214.888292 
L 73.786493 215.569764 
L 74.009805 214.836942 
L 74.233117 221.028318 
L 74.456428 214.528954 
L 74.67974 216.624721 
L 74.903052 216.259422 
L 75.126363 212.221123 
L 75.349675 214.632359 
L 75.572986 218.720487 
L 75.796298 212.953945 
L 76.01961 224.435678 
L 76.242921 227.68758 
L 76.466233 224.332274 
L 76.689545 215.474546 
L 77.136168 210.80835 
L 77.35948 228.472456 
L 77.582791 231.511588 
L 77.806103 227.47481 
L 78.029415 229.834696 
L 78.252726 225.11715 
L 78.476038 235.337118 
L 78.69935 232.50853 
L 78.922661 227.109512 
L 79.145973 226.896743 
L 79.369285 223.438737 
L 79.592596 227.578215 
L 79.815908 226.896743 
L 80.03922 228.941159 
L 80.262531 229.255107 
L 80.485843 232.611934 
L 80.709155 219.445123 
L 81.155778 214.361575 
L 81.37909 218.815001 
L 81.602401 211.004747 
L 82.049025 238.838993 
L 82.495648 242.091598 
L 82.718959 238.420119 
L 83.165583 255.778462 
L 83.388894 248.700327 
L 83.612206 256.45923 
L 83.835518 257.455354 
L 84.058829 257.822174 
L 84.282141 250.32739 
L 84.505453 257.822174 
L 84.728764 248.384857 
L 85.175388 258.817594 
L 85.398699 262.224954 
L 85.622011 262.540424 
L 85.845323 265.214258 
L 86.068634 259.185118 
L 86.291946 261.910302 
L 86.515258 258.452296 
L 86.738569 257.770824 
L 86.961881 261.807602 
L 87.185193 269.097803 
L 87.631816 245.931275 
L 87.855128 248.809692 
L 88.078439 248.861746 
L 88.301751 244.143496 
L 88.525063 243.828026 
L 88.971686 269.251036 
L 89.194997 262.905722 
L 89.418309 237.01401 
L 90.088244 246.391791 
L 90.311556 240.414706 
L 90.758179 254.355982 
L 90.981491 255.879641 
L 91.204802 260.649241 
L 91.428114 269.873789 
L 91.651426 257.711288 
L 91.874737 275.324861 
L 92.098049 283.867119 
L 92.321361 281.457405 
L 92.767984 271.918205 
L 92.991296 280.724583 
L 93.437919 286.33637 
L 93.661231 273.339164 
L 94.107854 293.567034 
L 94.554477 282.351646 
L 94.777789 284.973426 
L 95.001101 296.608392 
L 95.224412 293.883208 
L 95.447724 297.238514 
L 95.671036 293.150386 
L 95.894347 291.10597 
L 96.117659 297.971336 
L 96.34097 285.859481 
L 96.564282 284.812711 
L 96.787594 277.683225 
L 97.010905 284.548591 
L 97.457529 291.259203 
L 97.68084 297.391043 
L 97.904152 297.391043 
L 98.127464 289.530961 
L 98.350775 300.909289 
L 98.574087 301.69194 
L 98.797399 305.048768 
L 99.244022 301.590761 
L 99.467334 302.272233 
L 99.913957 310.080965 
L 100.137269 301.904709 
L 100.36058 268.928902 
L 100.583892 271.654086 
L 100.807204 280.357059 
L 101.030515 284.182589 
L 101.253827 295.136083 
L 101.477139 299.854333 
L 101.70045 294.351911 
L 101.923762 301.377992 
L 102.147074 292.571614 
L 102.370385 292.571614 
L 102.593697 294.776745 
L 102.817009 288.696256 
L 103.04032 274.489338 
L 103.263632 283.347066 
L 103.486943 278.628817 
L 103.710255 278.628817 
L 103.933567 273.229095 
L 104.156878 274.327919 
L 104.603502 280.877112 
L 105.050125 272.019384 
L 105.273437 278.102099 
L 105.72006 270.607315 
L 105.943372 270.394546 
L 106.166683 269.397604 
L 106.613307 270.751658 
L 106.836618 269.023416 
L 107.05993 259.220096 
L 107.283242 262.839522 
L 107.729865 264.832587 
L 107.953177 259.748335 
L 108.176488 269.917657 
L 108.3998 266.194827 
L 108.623112 266.613702 
L 108.846423 267.712526 
L 109.069735 266.034112 
L 109.516358 252.245365 
L 109.73967 252.509485 
L 109.962981 255.499492 
L 110.186293 260.94986 
L 110.632916 257.857152 
L 110.856228 261.477282 
L 111.07954 257.12433 
L 111.302851 262.15805 
L 111.526163 260.481158 
L 111.749475 248.898246 
L 111.972786 258.069922 
L 112.196098 256.971801 
L 112.41941 258.018571 
L 112.642721 267.557771 
L 112.866033 266.826471 
L 113.089345 259.168746 
L 113.312656 259.168746 
L 113.535968 260.217038 
L 113.75928 252.092132 
L 113.982591 254.76667 
L 114.205903 263.836463 
L 114.652526 259.118918 
L 114.875838 258.121976 
L 115.322461 260.53169 
L 115.769085 254.033144 
L 115.992396 253.036202 
L 116.215708 260.79581 
L 116.662331 256.707682 
L 116.885643 251.673962 
L 117.108954 256.810382 
L 117.332266 258.487274 
L 117.555578 256.443562 
L 118.002201 259.696985 
L 118.225513 231.760857 
L 118.448824 241.351407 
L 118.895448 243.709771 
L 119.118759 235.168217 
L 119.342071 243.659943 
L 119.565383 234.120743 
L 119.788694 240.934759 
L 120.012006 230.763915 
L 120.235318 236.582511 
L 120.458629 237.944751 
L 120.681941 236.214987 
L 120.905253 238.890343 
L 121.128564 244.18666 
L 121.351876 244.13531 
L 121.575188 243.505188 
L 121.798499 245.865074 
L 122.021811 246.282426 
L 122.245123 249.637732 
L 122.468434 250.319204 
L 122.691746 249.322263 
L 122.915058 244.238714 
L 123.138369 248.640791 
L 123.361681 249.322263 
L 123.584992 249.322263 
L 124.031616 241.826775 
L 124.254927 238.736292 
L 124.478239 239.101591 
L 124.924862 239.051762 
L 125.148174 226.523258 
L 125.371486 268.503363 
L 125.594797 242.084934 
L 125.818109 241.403462 
L 126.041421 238.310754 
L 126.264732 232.911032 
L 126.488044 235.901039 
L 126.711356 234.955448 
L 126.934667 236.99916 
L 127.157979 224.053304 
L 127.381291 228.141432 
L 127.604602 227.980717 
L 127.827914 221.482875 
L 128.051226 219.804461 
L 128.274537 251.62343 
L 128.721161 275.954983 
L 129.391096 255.146819 
L 129.614407 262.480888 
L 129.837719 235.95239 
L 130.284342 226.566423 
L 130.507654 229.659131 
L 130.730965 227.19584 
L 130.954277 228.558784 
L 131.177589 201.818221 
L 131.4009 208.580183 
L 131.624212 206.901769 
L 132.070835 214.295374 
L 132.517459 205.906349 
L 132.74077 203.546463 
L 132.964082 211.254016 
L 133.187394 208.212659 
L 133.410705 212.250958 
L 133.634017 210.308425 
L 133.857329 215.870383 
L 134.08064 215.290794 
L 134.303952 223.943939 
L 134.750575 211.832084 
L 134.973887 209.788372 
L 135.197199 214.557972 
L 135.42051 213.562552 
L 135.643822 207.531187 
L 135.867134 209.839722 
L 136.090445 206.067064 
L 136.313757 206.331183 
L 136.537069 211.782255 
L 136.76038 210.785314 
L 136.983692 218.544217 
L 137.207004 219.225689 
L 137.430315 216.917858 
L 138.323562 193.011843 
L 138.546873 197.048621 
L 138.770185 198.989632 
L 138.993497 196.996567 
L 139.216808 193.274441 
L 140.110055 167.427415 
L 140.333367 176.233793 
L 140.556678 177.596033 
L 140.77999 172.878487 
L 141.003302 176.021023 
L 141.449925 170.203131 
L 141.673237 173.243785 
L 141.896548 170.935953 
L 142.11986 180.057801 
L 142.343172 181.420041 
L 142.566483 180.109151 
L 142.789795 181.786043 
L 143.013107 193.055007 
L 143.236418 193.421009 
L 143.45973 197.091785 
L 143.906353 187.237115 
L 144.129665 185.824343 
L 144.352976 188.864179 
L 144.576288 187.187287 
L 144.7996 183.148987 
L 145.022911 189.962299 
L 145.246223 189.912471 
L 145.469535 189.597001 
L 145.692846 203.539799 
L 145.916158 204.169217 
L 146.362781 196.045015 
L 146.586093 194.366601 
L 146.809405 194.366601 
L 147.032716 199.714269 
L 147.47934 196.988381 
L 147.925963 185.508873 
L 148.149275 188.599355 
L 148.372586 177.485146 
L 148.595898 172.870301 
L 149.042521 186.131626 
L 149.265833 178.95079 
L 149.489145 178.95079 
L 149.712456 172.870301 
L 149.935768 171.507357 
L 150.15908 172.870301 
L 150.605703 182.357446 
L 150.829015 174.862662 
L 151.052326 173.603123 
L 151.275638 181.992148 
L 151.498949 183.66904 
L 151.722261 191.112474 
L 151.945573 189.171462 
L 152.392196 194.205182 
L 152.615508 203.957151 
L 152.838819 204.271099 
L 153.062131 199.656254 
L 153.285443 204.739802 
L 153.508754 204.739802 
L 153.732066 211.503285 
L 153.955378 224.397791 
L 154.178689 213.180177 
L 154.402001 219.840961 
L 154.625313 209.722171 
L 154.848624 217.796545 
L 155.071936 215.437363 
L 155.295248 215.488713 
L 155.518559 223.826388 
L 155.741871 216.2282 
L 155.965183 227.393759 
L 156.188494 215.546728 
L 156.411806 214.183784 
L 156.635118 211.82542 
L 156.858429 213.554366 
L 157.081741 210.411125 
L 157.751676 219.585027 
L 157.974987 218.903555 
L 158.198299 216.859139 
L 158.421611 217.906613 
L 158.644922 222.727564 
L 158.868234 215.598078 
L 159.091546 221.36462 
L 159.314857 215.333958 
L 159.538169 219.634856 
L 159.761481 229.906878 
L 159.984792 224.455806 
L 160.431416 223.092862 
L 160.654727 223.092862 
L 160.878039 224.719925 
L 161.101351 227.761283 
L 161.324662 233.108951 
L 161.547974 224.984045 
L 161.994597 231.430537 
L 162.217909 232.479533 
L 162.441221 231.430537 
L 162.664532 224.668575 
L 162.887844 225.401397 
L 163.111156 226.977111 
L 163.334467 230.697715 
L 163.557779 229.702295 
L 163.781091 237.094378 
L 164.004402 233.635668 
L 164.451026 223.621805 
L 164.674337 226.977111 
L 164.897649 226.977111 
L 165.12096 232.112009 
L 165.344272 233.0576 
L 165.567584 233.32172 
L 165.790895 233.32172 
L 166.014207 242.392217 
L 166.237519 243.022339 
L 166.46083 239.667033 
L 166.684142 246.794293 
L 166.907454 237.936565 
L 167.130765 239.929631 
L 167.577389 228.23665 
L 167.8007 224.251223 
L 168.024012 225.928115 
L 168.247324 234.003192 
L 168.470635 228.50077 
L 168.693947 253.717674 
L 168.917259 257.755974 
L 169.14057 253.667846 
L 169.363882 254.136548 
L 169.587194 249.680896 
L 169.810505 254.085198 
L 170.033817 254.450496 
L 170.257129 253.088256 
L 170.48044 246.061471 
L 170.703752 252.406784 
L 170.927064 244.699231 
L 171.150375 196.996567 
L 171.373687 206.535767 
L 171.596998 204.923554 
L 171.82031 215.928398 
L 172.043622 204.396836 
L 172.490245 206.125079 
L 172.713557 190.660143 
L 173.16018 184.951616 
L 173.383492 191.977698 
L 173.606803 193.340642 
L 173.830115 195.597123 
L 174.053427 194.234883 
L 174.276738 189.465283 
L 174.50005 201.048195 
L 174.946673 193.289291 
L 175.169985 205.979214 
L 175.393297 205.561862 
L 175.616608 206.924806 
L 175.83992 200.996845 
L 176.286543 210.536045 
L 176.509855 212.317159 
L 176.733167 203.825433 
L 176.956478 208.177681 
L 177.17979 201.729667 
L 177.403102 199.737305 
L 177.849725 184.116911 
L 178.073037 191.66375 
L 178.296348 184.534264 
L 178.51966 186.212678 
L 178.742971 185.948558 
L 178.966283 195.487758 
L 179.189595 189.978671 
L 179.412906 197.684703 
L 179.636218 196.476514 
L 179.85953 201.194764 
L 180.082841 190.660143 
L 180.306153 187.253487 
L 180.529465 191.238211 
L 180.752776 192.233631 
L 180.976088 186.572015 
L 181.422711 196.689283 
L 181.646023 194.329397 
L 181.869335 188.93038 
L 182.092646 189.978671 
L 182.315958 189.663202 
L 182.53927 192.388386 
L 182.762581 184.996302 
L 183.209205 194.015449 
L 183.432516 185.157721 
L 183.655828 190.241269 
L 183.87914 188.777147 
L 184.102451 196.534528 
L 184.325763 197.897472 
L 184.549075 189.823917 
L 184.995698 199.941888 
L 185.21901 198.264996 
L 185.442321 203.297194 
L 185.665633 204.711488 
L 185.888944 209.847908 
L 186.112256 205.811131 
L 186.335568 221.958242 
L 186.558879 215.723815 
L 186.782191 203.715364 
L 187.005503 207.33479 
L 187.228814 227.782798 
L 187.452126 201.9856 
L 187.675438 198.578944 
L 188.122061 210.946733 
L 188.345373 201.876236 
L 188.568684 201.561583 
L 188.791996 200.981994 
L 189.238619 178.804926 
L 189.461931 179.120396 
L 189.685243 184.102765 
L 189.908554 184.835587 
L 190.355178 194.585331 
L 190.578489 191.230025 
L 191.025113 197.473455 
L 191.471736 189.03308 
L 191.695048 191.391444 
L 191.918359 183.94801 
L 192.141671 185.2589 
L 193.034917 201.9856 
L 193.258229 195.590459 
L 193.481541 199.993239 
L 193.704852 198.264996 
L 193.928164 213.364633 
L 194.151476 218.030829 
L 194.374787 213.364633 
L 194.598099 215.408345 
L 194.821411 216.089817 
L 195.044722 212.001689 
L 195.491346 208.960331 
L 195.714657 218.346298 
L 195.937969 217.035409 
L 196.161281 219.393773 
L 196.384592 210.690095 
L 196.607904 213.415983 
L 196.831216 220.126595 
L 197.054527 216.141167 
L 197.277839 227.101326 
L 197.501151 218.660951 
L 197.724462 219.657892 
L 198.171086 235.805821 
L 198.394397 232.083695 
L 198.617709 237.798887 
L 198.841021 250.488105 
L 199.064332 250.436755 
L 199.287644 251.118227 
L 199.510955 254.576937 
L 199.734267 263.748613 
L 199.957579 262.753193 
L 200.18089 253.996644 
L 200.404202 253.682696 
L 200.627514 255.726408 
L 200.850825 258.817594 
L 201.074137 252.371102 
L 201.297449 252.371102 
L 201.52076 245.658969 
L 201.967384 255.778462 
L 202.190695 253.783875 
L 202.414007 249.381799 
L 202.637319 260.180538 
L 202.86063 256.825233 
L 203.307254 265.94708 
L 203.530565 260.548062 
L 203.753877 264.372071 
L 203.977189 259.967769 
L 204.2005 264.423421 
L 204.423812 257.661459 
L 204.870435 272.964975 
L 205.317059 267.462553 
L 205.54037 273.229095 
L 205.763682 270.555261 
L 205.986993 271.236733 
L 206.210305 266.467133 
L 206.433617 271.918205 
L 206.656928 270.607315 
L 206.88024 267.830077 
L 207.103552 270.657144 
L 207.326863 278.570802 
L 207.550175 267.668658 
L 207.773487 262.899058 
L 207.996798 267.565958 
L 208.22011 265.521542 
L 208.443422 273.910567 
L 208.666733 272.548327 
L 208.890045 269.822439 
L 209.113357 268.511549 
L 209.55998 276.167752 
L 209.783292 276.116402 
L 210.229915 248.122259 
L 210.453227 247.806086 
L 210.676538 254.935571 
L 211.123162 247.541966 
L 211.346473 247.541966 
L 211.569785 245.498254 
L 211.793097 250.165971 
L 212.016408 250.531974 
L 212.23972 252.524335 
L 212.463032 251.842863 
L 212.686343 247.021913 
L 212.909655 250.428569 
L 213.132966 252.106983 
L 213.356278 248.751677 
L 213.57959 253.783875 
L 213.802901 250.011921 
L 214.026213 243.301309 
L 214.472836 257.822174 
L 214.696148 244.348079 
L 214.91946 250.428569 
L 215.366083 244.348079 
L 215.589395 246.026493 
L 215.812706 252.472985 
L 216.036018 252.524335 
L 216.25933 252.106983 
L 216.482641 239.578479 
L 216.705953 236.589176 
L 216.929265 242.355718 
L 217.152576 253.887279 
L 217.375888 248.803731 
L 217.5992 247.176668 
L 217.822511 250.2158 
L 218.045823 245.865074 
L 218.269135 248.274788 
L 218.492446 257.661459 
L 218.715758 254.254099 
L 219.162381 242.508247 
L 219.385693 250.583324 
L 219.609005 245.183602 
L 219.832316 246.860494 
L 220.055628 243.821362 
L 220.278939 237.688818 
L 220.725563 241.776946 
L 221.172186 254.202749 
L 221.395498 254.202749 
L 221.618809 249.16903 
L 221.842121 260.913361 
L 222.065433 258.188177 
L 222.288744 249.066329 
L 222.512056 246.707965 
L 222.735368 223.173913 
L 222.958679 230.098816 
L 223.181991 245.403036 
L 223.405303 241.630377 
L 223.851926 229.783346 
L 224.075238 233.454121 
L 224.298549 240.897555 
L 224.521861 242.941971 
L 224.968484 232.824704 
L 225.191796 236.180009 
L 225.415108 232.19306 
L 225.638419 232.874532 
L 225.861731 231.827762 
L 226.085043 238.223721 
L 226.531666 226.845393 
L 226.754977 225.482449 
L 226.978289 230.88217 
L 227.201601 231.562938 
L 227.424912 227.210691 
L 227.648224 225.951151 
L 227.871536 234.757529 
L 228.094847 228.676335 
L 228.318159 228.046918 
L 228.541471 228.046918 
L 228.764782 230.354749 
L 228.988094 226.318675 
L 229.211406 226.632623 
L 229.434717 228.889105 
L 229.658029 228.207633 
L 229.881341 229.570577 
L 230.104652 236.96266 
L 230.327964 236.96266 
L 230.551276 238.428305 
L 230.774587 241.73226 
L 230.997899 240.369316 
L 231.221211 252.745291 
L 231.444522 247.081449 
L 231.667834 249.338635 
L 231.891146 255.001772 
L 232.114457 254.686302 
L 232.337769 257.046188 
L 232.784392 236.655377 
L 233.231016 245.777224 
L 233.454327 187.156747 
L 233.677639 255.26437 
L 233.90095 249.5507 
L 234.124262 237.388199 
L 234.347574 237.490899 
L 234.794197 244.831633 
L 235.017509 244.51698 
L 235.24082 241.843147 
L 235.464132 245.198452 
L 235.687444 251.857714 
L 235.910755 241.323094 
L 236.134067 239.96015 
L 236.58069 229.11006 
L 236.804002 230.10548 
L 237.027314 228.113118 
L 237.250625 231.885777 
L 237.697249 221.034983 
L 237.92056 231.885777 
L 238.143872 231.885777 
L 238.367184 238.64926 
L 238.590495 228.113118 
L 238.813807 224.442343 
L 239.037119 230.15683 
L 239.26043 232.516716 
L 239.483742 224.34046 
L 239.930365 231.835244 
L 240.153677 232.831368 
L 240.376988 234.561132 
L 240.6003 237.967788 
L 240.823612 233.146838 
L 241.046923 233.512136 
L 241.270235 240.538921 
L 241.493547 240.90422 
L 241.716858 236.186674 
L 242.163482 240.956274 
L 242.386793 242.634688 
L 242.610105 241.953216 
L 242.833417 243.630108 
L 243.056728 242.948636 
L 243.28004 238.911858 
L 243.503352 244.36293 
L 243.726663 245.044402 
L 243.949975 231.204305 
L 244.173287 236.655377 
L 244.396598 239.066612 
L 244.61991 240.164733 
L 244.843222 245.300335 
L 245.066533 231.094236 
L 245.289845 238.905193 
L 245.513157 236.127955 
L 245.736468 241.945029 
L 245.95978 239.322546 
L 246.183092 223.541437 
L 246.406403 236.640526 
L 246.629715 227.782798 
L 246.853027 243.615257 
L 247.076338 237.168765 
L 247.29965 237.168765 
L 247.522961 233.445935 
L 247.969585 242.567783 
L 248.192896 236.801241 
L 248.416208 241.205543 
L 248.63952 240.208601 
L 248.862831 242.933785 
L 249.086143 238.845657 
L 249.309455 239.893949 
L 249.532766 238.215535 
L 250.202701 227.365446 
L 250.426013 233.394585 
L 250.649325 230.09063 
L 250.872636 230.720751 
L 251.095948 229.357807 
L 251.31926 231.453574 
L 251.542571 230.507982 
L 251.765883 226.471204 
L 251.989195 229.145038 
L 252.212506 229.77516 
L 252.435818 225.738382 
L 252.65913 226.683974 
L 252.882441 229.409862 
L 253.105753 223.642616 
L 253.329065 229.357807 
L 253.552376 224.274259 
L 253.775688 221.914374 
L 253.998999 217.826246 
L 254.445623 218.456367 
L 254.668934 213.422648 
L 255.115558 218.507718 
L 255.562181 216.515356 
L 255.785493 211.481636 
L 256.008804 216.411951 
L 256.232116 214.053587 
L 256.455428 219.18919 
L 256.678739 219.18919 
L 256.902051 219.870662 
L 257.125363 218.192248 
L 257.348674 220.186131 
L 258.018609 209.019868 
L 258.241921 210.382812 
L 258.465233 208.3391 
L 258.688544 209.33452 
L 258.911856 211.378232 
L 259.135168 216.728125 
L 259.358479 218.405017 
L 259.581791 223.754206 
L 259.805103 220.083431 
L 260.028414 223.490087 
L 260.251726 222.808615 
L 260.475038 220.500079 
L 260.698349 219.504659 
L 260.921661 221.181551 
L 261.144972 219.818607 
L 261.591596 207.393508 
L 261.814907 228.624985 
L 262.038219 219.24054 
L 262.484842 213.107996 
L 262.708154 213.525348 
L 262.931466 197.590189 
L 263.378089 202.036951 
L 263.601401 208.118144 
L 263.824712 203.977962 
L 264.048024 207.01932 
L 264.271336 202.19837 
L 264.494647 208.960331 
L 264.717959 205.869145 
L 264.941271 215.987117 
L 265.164582 214.572823 
L 265.387894 219.29189 
L 265.611206 211.898285 
L 266.057829 211.950339 
L 266.281141 192.616006 
L 266.504452 210.646931 
L 266.727764 216.156018 
L 266.951076 227.68758 
L 267.174387 231.879112 
L 267.397699 238.905193 
L 267.621011 233.710055 
L 267.844322 243.359324 
L 268.067634 236.392779 
L 268.290945 239.380561 
L 268.514257 232.091881 
L 268.737569 234.135593 
L 268.96088 234.604296 
L 269.184192 206.924806 
L 269.407504 211.481636 
L 269.630815 225.738382 
L 269.854127 230.456632 
L 270.077439 230.456632 
L 270.30075 217.555462 
L 270.524062 214.097455 
L 270.747374 212.419042 
L 270.970685 207.01932 
L 271.193997 215.408345 
L 271.417309 218.815001 
L 271.64062 212.053039 
L 271.863932 213.729931 
L 272.087244 213.364633 
L 272.310555 213.729931 
L 272.533867 213.729931 
L 272.757179 210.690095 
L 272.98049 220.595298 
L 273.203802 222.273711 
L 273.427114 213.781282 
L 273.650425 220.910767 
L 273.873737 212.419042 
L 274.097049 197.684703 
L 274.32036 202.089005 
L 274.543672 197.106636 
L 274.766983 202.505653 
L 274.990295 212.726325 
L 275.213607 212.990445 
L 275.436918 217.444575 
L 275.66023 229.395011 
L 275.883542 225.358233 
L 276.106853 230.390431 
L 276.330165 225.987651 
L 276.553477 217.811395 
L 277.0001 226.353653 
L 277.223412 227.716597 
L 277.670035 235.841503 
L 277.893347 232.486197 
L 278.116658 232.853017 
L 278.33997 231.490073 
L 278.563282 229.130892 
L 278.786593 234.845379 
L 279.009905 226.353653 
L 279.233217 229.027487 
L 279.67984 223.262467 
L 279.903152 223.995289 
L 280.126463 228.083417 
L 280.349775 227.767948 
L 280.796398 217.914799 
L 281.01971 226.720473 
L 281.243022 230.441781 
L 281.466333 231.752671 
L 281.689645 235.160031 
L 281.912956 226.353653 
L 282.136268 237.936565 
L 282.35958 237.622617 
L 282.582891 253.293657 
L 282.806203 246.164876 
L 283.029515 246.480345 
L 283.252826 247.161817 
L 283.476138 246.480345 
L 283.69945 246.794293 
L 283.922761 243.125039 
L 284.146073 244.801932 
L 284.369385 241.762095 
L 284.816008 245.798873 
L 285.262631 239.768212 
L 285.485943 237.723796 
L 285.709255 237.77585 
L 286.37919 250.517123 
L 286.602501 245.169455 
L 286.825813 250.201653 
L 287.049125 249.835651 
L 287.272436 243.022339 
L 287.495748 282.225205 
L 287.71906 288.673219 
L 287.942371 287.310979 
L 288.165683 291.450457 
L 288.388994 287.727628 
L 288.612306 279.551372 
L 288.835618 256.384844 
L 289.058929 270.379695 
L 289.282241 272.056588 
L 289.952176 238.815956 
L 290.175488 251.02899 
L 290.398799 252.340584 
L 290.622111 245.21262 
L 290.845423 244.845096 
L 291.068734 241.805964 
L 291.292046 243.116853 
L 291.515358 239.761548 
L 291.738669 239.080076 
L 291.961981 236.354892 
L 292.185293 239.080076 
L 292.631916 250.875757 
L 292.855228 248.150573 
L 293.078539 229.753645 
L 293.301851 238.244553 
L 293.525163 240.868558 
L 293.748474 239.870912 
L 294.195098 234.523245 
L 294.418409 237.878551 
L 294.641721 238.560023 
L 294.865033 237.878551 
L 295.088344 241.966679 
L 295.311656 237.197079 
L 295.534967 237.197079 
L 295.758279 235.467315 
L 295.981591 245.534754 
L 296.204902 244.853282 
L 296.428214 251.301295 
L 296.651526 264.458399 
L 296.874837 261.051743 
L 297.098149 253.872429 
L 297.321461 256.648963 
L 297.544772 256.019545 
L 297.768084 256.019545 
L 297.991396 259.426201 
L 298.214707 269.909471 
L 298.438019 272.320707 
L 298.884642 258.846612 
L 299.107954 256.539598 
L 299.331266 261.257848 
L 299.554577 260.576376 
L 299.777889 255.176654 
L 300.001201 253.864243 
L 300.224512 248.464521 
L 300.671136 245.476739 
L 301.117759 254.545715 
L 301.341071 250.508937 
L 301.564382 254.231063 
L 301.787694 264.503085 
L 302.011006 261.198312 
L 302.234317 261.198312 
L 302.457629 262.510723 
L 302.68094 248.619276 
L 303.127564 258.003721 
L 303.350875 253.915593 
L 303.574187 254.283117 
L 303.797499 258.584014 
L 304.244122 253.601645 
L 304.467434 247.570984 
L 304.690745 248.985278 
L 305.36068 261.198312 
L 305.583992 260.832309 
L 305.807304 263.873667 
L 306.253927 247.044266 
L 306.477239 247.044266 
L 306.70055 244.582498 
L 306.923862 251.34446 
L 307.147174 249.666046 
L 307.593797 249.666046 
L 307.817109 240.281601 
L 308.04042 242.010547 
L 308.487044 229.797513 
L 308.710355 275.617998 
L 308.933667 280.071424 
L 309.603602 262.355968 
L 310.050225 277.771779 
L 310.273537 265.139871 
L 310.496848 262.466037 
L 310.72016 261.571796 
L 310.943472 261.359027 
L 311.166783 291.024919 
L 311.390095 265.28644 
L 311.613407 261.147779 
L 311.836718 254.648415 
L 312.06003 279.082669 
L 312.283342 264.825923 
L 312.729965 270.590943 
L 313.176588 269.909471 
L 313.3999 266.71488 
L 313.623212 281.917922 
L 313.846523 288.630055 
L 314.293147 282.079341 
L 314.516458 286.585639 
L 314.73977 267.499757 
L 314.963082 268.649932 
L 315.186393 262.620088 
L 315.409705 244.640512 
L 315.633017 275.983296 
L 315.856328 267.858391 
L 316.07964 272.627991 
L 316.302951 266.444096 
L 316.749575 245.99527 
L 316.972886 251.557229 
L 317.196198 252.971523 
L 317.41951 246.523509 
L 317.642821 249.614696 
L 317.866133 257.374303 
L 318.089445 239.548778 
L 318.312756 280.445613 
L 318.536068 273.154708 
L 318.75938 279.024654 
L 318.982691 262.459373 
L 319.206003 264.136265 
L 319.429315 262.876725 
L 319.652626 271.001631 
L 319.875938 265.184557 
L 320.09925 267.280323 
L 320.322561 267.330152 
L 320.545873 264.07825 
L 320.769185 262.715306 
L 320.992496 275.19246 
L 321.215808 274.195518 
L 321.662431 270.10739 
L 321.885743 277.500995 
L 322.332366 271.41828 
L 322.555678 272.415221 
L 322.778989 269.587337 
L 323.225613 258.259654 
L 323.448924 255.484642 
L 323.672236 255.53447 
L 323.895548 264.971788 
L 324.118859 263.609548 
L 324.565483 277.397591 
L 324.788794 275.037705 
L 325.012106 276.716119 
L 325.235418 264.555139 
L 325.682041 277.712243 
L 326.128664 286.255319 
L 326.575288 278.760535 
L 326.798599 280.387598 
L 327.021911 273.939584 
L 327.245223 292.91458 
L 327.691846 272.312521 
L 327.915158 275.667827 
L 328.138469 275.250474 
L 328.361781 294.226991 
L 328.585093 290.820335 
L 328.808404 289.823394 
L 329.031716 291.501807 
L 329.255028 289.458095 
L 329.478339 288.46045 
L 329.701651 283.37538 
L 329.924962 288.095151 
L 330.148274 279.237423 
L 330.371586 282.592729 
L 330.818209 294.541644 
L 331.041521 287.727628 
L 331.264832 293.494169 
L 332.381391 284.159552 
L 332.604702 283.478784 
L 332.828014 280.804247 
L 333.051326 280.804247 
L 333.274637 285.888499 
L 333.497949 281.800371 
L 333.721261 280.437427 
L 333.944572 276.716119 
L 334.167884 279.024654 
L 334.391196 283.42673 
L 334.837819 276.400649 
L 335.061131 279.755955 
L 335.284442 276.400649 
L 335.507754 283.794254 
L 335.731066 286.152618 
L 335.954377 281.383018 
L 336.401001 280.701546 
L 336.624312 286.83409 
L 336.847624 282.37996 
L 337.294247 305.290555 
L 337.517559 262.364155 
L 337.74087 319.194627 
L 338.187494 301.73733 
L 338.410805 304.09499 
L 338.634117 302.99687 
L 338.857429 311.699843 
L 339.08074 307.033647 
L 339.304052 305.253351 
L 339.527364 306.930243 
L 339.750675 296.761625 
L 339.973987 300.058916 
L 340.197299 308.550642 
L 340.42061 287.471694 
L 340.643922 284.430336 
L 340.867234 289.464056 
L 341.090545 283.280866 
L 341.313857 291.985361 
L 341.537169 286.951641 
L 341.76048 301.73733 
L 341.983792 297.597148 
L 342.207104 290.468366 
L 342.430415 291.149134 
L 342.653727 298.22727 
L 342.877039 249.571532 
L 343.10035 313.846959 
L 343.323662 308.712061 
L 343.546973 340.061509 
L 343.770285 325.599476 
L 343.993597 348.772669 
L 344.216908 348.772669 
L 344.44022 341.696055 
L 344.663532 352.758914 
L 344.886843 344.471772 
L 345.110155 343.740471 
L 345.333467 347.513129 
L 345.556778 342.427356 
L 345.78009 343.740471 
L 346.003402 347.147127 
L 346.226713 346.728253 
L 346.673337 338.603347 
L 346.896648 338.603347 
L 347.11996 334.2511 
L 347.343272 333.621682 
L 347.566583 328.589484 
L 347.789895 342.164758 
L 348.236518 329.058187 
L 348.45983 334.090385 
L 348.683142 329.951724 
L 349.353077 339.856926 
L 349.576388 339.124104 
L 349.7997 335.768798 
L 350.023012 327.276369 
L 350.246323 323.239591 
L 350.469635 326.594897 
L 350.692946 306.154257 
L 350.916258 318.368812 
L 351.13957 319.151463 
L 351.362881 311.656679 
L 351.586193 319.466932 
L 351.809505 313.649041 
L 352.256128 310.609204 
L 352.702751 315.744807 
L 352.926063 317.055697 
L 353.149375 316.374929 
L 353.372686 317.42322 
L 353.595998 321.877351 
L 354.042621 323.239591 
L 354.265933 327.327719 
L 354.712556 323.555764 
L 354.935868 328.32466 
L 355.15918 319.151463 
L 355.382491 320.200459 
L 355.605803 320.200459 
L 355.829115 319.151463 
L 356.052426 321.877351 
L 356.275738 321.877351 
L 356.49905 325.548126 
L 356.722361 324.602535 
L 356.945673 322.925643 
L 357.168984 322.506769 
L 357.392296 325.232657 
L 357.615608 321.143825 
L 357.838919 320.412524 
L 358.285543 300.337886 
L 358.508854 301.018654 
L 358.732166 307.83267 
L 358.955478 310.242385 
L 359.178789 304.109841 
L 359.402101 306.835729 
L 359.625413 304.791313 
L 359.848724 301.384657 
L 360.072036 301.018654 
L 360.295348 301.700126 
L 360.518659 302.0163 
L 360.965283 291.062806 
L 361.188594 286.344556 
L 361.411906 278.798422 
L 361.858529 279.42784 
L 362.081841 272.665878 
L 362.528464 269.259222 
L 362.751776 278.798422 
L 362.975088 273.3987 
L 363.198399 276.489886 
L 363.421711 275.808414 
L 363.645023 271.720286 
L 363.868334 271.038814 
L 364.091646 273.3987 
L 364.538269 258.357078 
L 364.761581 258.67173 
L 364.984892 251.227592 
L 365.431516 260.913361 
L 365.878139 268.460199 
L 366.101451 264.372071 
L 366.548074 273.229095 
L 366.771386 260.071174 
L 366.994697 261.484764 
L 367.441321 286.65184 
L 367.664632 289.955795 
L 367.887944 282.878364 
L 368.111256 286.28502 
L 368.334567 287.017842 
L 368.557879 291.787442 
L 368.781191 281.61812 
L 369.227814 293.567034 
L 369.674437 289.947609 
L 369.897749 292.299309 
L 370.121061 310.747587 
L 370.344372 311.115111 
L 370.567684 323.328145 
L 370.790995 313.942178 
L 371.014307 317.451534 
L 371.237619 310.322752 
L 371.46093 314.7777 
L 371.907554 308.959808 
L 372.130865 303.508736 
L 372.354177 301.780494 
L 372.577489 308.593806 
L 372.8008 302.461966 
L 373.024112 307.913038 
L 373.247424 307.545514 
L 373.470735 307.545514 
L 373.694047 306.864042 
L 373.917359 307.913038 
L 374.14067 302.827264 
L 374.363982 301.465024 
L 374.587294 291.977175 
L 374.810605 288.987871 
L 375.033917 288.987871 
L 375.257229 286.261983 
L 375.48054 279.815491 
L 375.927164 287.676277 
L 376.150475 288.987871 
L 376.373787 287.991747 
L 376.597099 288.987871 
L 376.82041 287.310979 
L 377.043722 287.310979 
L 377.267034 282.906677 
L 377.490345 288.357749 
L 377.936968 280.862965 
L 378.16028 288.673219 
L 378.383592 288.673219 
L 378.606903 293.494169 
L 378.830215 285.999385 
L 379.053527 292.813401 
L 379.276838 292.813401 
L 379.50015 284.007023 
L 379.723462 287.046156 
L 379.946773 298.578421 
L 380.170085 298.629772 
L 380.393397 305.443084 
L 380.616708 306.124556 
L 380.84002 299.992716 
L 381.063332 297.9483 
L 381.286643 297.9483 
L 381.733267 303.766191 
L 381.956578 302.036428 
L 382.403202 296.220057 
L 382.626513 297.215477 
L 382.849825 293.442819 
L 383.073137 293.391469 
L 383.296448 292.028525 
L 383.51976 288.673219 
L 383.743072 288.204516 
L 383.966383 288.885988 
L 384.189695 283.119447 
L 384.413007 284.79786 
L 384.636318 271.852004 
L 384.85963 270.540411 
L 385.082941 270.540411 
L 385.306253 276.621604 
L 385.529565 274.577188 
L 385.752876 266.400932 
L 385.976188 272.533476 
L 386.1995 270.48906 
L 386.422811 279.346788 
L 386.646123 271.536535 
L 386.869435 279.031319 
L 387.092746 277.354427 
L 387.316058 278.035899 
L 387.53937 282.437975 
L 387.762681 278.035899 
L 387.985993 282.072676 
L 388.209305 281.391204 
L 388.432616 280.079611 
L 388.655928 277.617024 
L 388.87924 259.007327 
L 389.102551 275.360543 
L 389.325863 273.683651 
L 389.772486 289.668639 
L 390.442421 278.717371 
L 390.665733 280.810911 
L 391.335668 272.005237 
L 391.558979 277.090307 
L 391.782291 278.085727 
L 392.005603 277.404255 
L 392.228914 277.090307 
L 392.675538 278.453251 
L 392.898849 278.453251 
L 393.345473 284.636441 
L 393.792096 277.771779 
L 394.015408 276.093365 
L 394.238719 277.404255 
L 394.908654 266.766935 
L 395.131966 270.803712 
L 395.355278 266.766935 
L 395.801901 275.676013 
L 396.025213 258.377909 
L 396.248524 257.696437 
L 396.471836 253.242307 
L 396.695148 286.212155 
L 396.918459 288.204516 
L 397.141771 287.156224 
L 397.588394 288.776623 
L 397.811706 297.634351 
L 398.035018 298.315823 
L 398.258329 295.955938 
L 398.704952 287.618263 
L 398.928264 289.823394 
L 399.374887 282.173855 
L 399.598199 288.987871 
L 399.821511 285.999385 
L 400.044822 280.600367 
L 400.268134 283.6395 
L 400.491446 280.600367 
L 400.714757 283.742904 
L 400.938069 278.240482 
L 401.161381 280.232844 
L 401.384692 284.899039 
L 401.608004 283.749568 
L 401.831316 284.065038 
L 402.054627 281.23645 
L 402.501251 266.034112 
L 402.724562 274.89184 
L 402.947874 288.314585 
L 403.171186 285.068644 
L 403.617809 296.915676 
L 403.841121 285.485997 
L 404.064432 307.289581 
L 404.287744 308.600471 
L 404.511056 278.724035 
L 404.957679 303.201453 
L 405.18099 290.306947 
L 405.627614 321.137864 
L 406.074237 304.15523 
L 406.297549 310.653073 
L 406.52086 307.979239 
L 406.744172 308.712061 
L 407.190795 313.114137 
L 407.414107 314.792551 
L 407.637419 319.82627 
L 407.86073 317.730504 
L 408.084042 326.536882 
L 408.307354 323.495524 
L 408.530665 325.53994 
L 408.753977 321.189214 
L 408.977289 320.873041 
L 409.2006 318.829329 
L 409.423912 325.642641 
L 409.870535 328.368529 
L 410.093847 327.005585 
L 410.317159 327.005585 
L 410.54047 320.557571 
L 410.763782 318.199207 
L 410.987094 320.608921 
L 411.210405 318.932029 
L 411.433717 318.513859 
L 411.657029 317.150915 
L 411.88034 320.557571 
L 412.103652 317.150915 
L 412.326963 320.557571 
L 412.550275 317.150915 
L 412.773587 319.510801 
L 413.666833 335.547843 
L 413.890145 338.90467 
L 414.113457 332.090654 
L 414.336768 334.816542 
L 414.56008 328.785881 
L 415.006703 336.544785 
L 415.230015 337.591555 
L 415.676638 330.728414 
L 416.123262 312.696785 
L 416.346573 321.239043 
L 416.569885 309.656131 
L 416.793197 310.336899 
L 417.016508 314.792551 
L 417.463132 306.403526 
L 417.686443 315.576723 
L 417.909755 318.302611 
L 418.133067 318.302611 
L 418.356378 312.53607 
L 418.57969 316.308024 
L 419.026313 297.597148 
L 419.249625 300.270982 
L 419.472936 294.50444 
L 419.696248 294.871964 
L 419.91956 288.057948 
L 420.142871 289.472242 
L 420.366183 289.105422 
L 420.589495 293.875022 
L 420.812806 289.786894 
L 421.036118 291.201188 
L 421.25943 297.333028 
L 421.482741 291.93401 
L 421.706053 294.607844 
L 421.929365 285.068644 
L 422.152676 286.747058 
L 422.375988 295.237262 
L 422.5993 283.96982 
L 422.822611 290.102364 
L 423.045923 288.3726 
L 423.269235 287.691128 
L 423.93917 308.081939 
L 424.385793 304.571879 
L 424.609105 304.205059 
L 424.832416 311.018371 
L 425.055728 297.758567 
L 425.27904 296.395623 
L 425.502351 299.750929 
L 425.948974 313.326906 
L 426.172286 302.272233 
L 426.395598 304.946067 
L 426.618909 303.897071 
L 426.842221 298.813523 
L 427.065533 303.165771 
L 427.288844 302.485003 
L 427.512156 299.128175 
L 427.735468 298.132051 
L 428.182091 277.274059 
L 428.628714 291.531508 
L 428.852026 289.539147 
L 429.075338 292.894452 
L 429.298649 290.798686 
L 429.521961 292.842398 
L 429.745273 289.384392 
L 429.968584 302.697068 
L 430.191896 298.55759 
L 430.415208 303.693192 
L 430.638519 302.0163 
L 430.861831 314.749387 
L 431.085143 313.386443 
L 431.308454 319.415582 
L 431.531766 319.312882 
L 431.755078 309.195614 
L 431.978389 306.469726 
L 432.648324 329.636254 
L 432.871636 331.679966 
L 433.094947 306.880414 
L 433.541571 295.97827 
L 433.764882 298.235456 
L 433.988194 292.784384 
L 434.211506 295.245448 
L 434.658129 310.23572 
L 434.881441 310.917192 
L 435.104752 312.594084 
L 435.551376 309.238778 
L 435.774687 310.601722 
L 435.997999 306.880414 
L 436.221311 296.659742 
L 436.444622 293.253086 
L 436.667934 293.567034 
L 436.891246 294.929978 
L 437.114557 300.067102 
L 437.337869 299.069457 
L 437.784492 293.934558 
L 438.007804 294.929978 
L 438.454427 300.067102 
L 438.901051 312.960904 
L 439.124362 311.23114 
L 439.347674 295.61145 
L 439.570985 306.880414 
L 440.017609 299.38563 
L 440.24092 303.157585 
L 440.464232 301.113873 
L 440.687544 301.113873 
L 440.910855 301.479171 
L 441.134167 313.744259 
L 441.357479 299.750929 
L 441.58079 301.113873 
L 442.027414 310.022951 
L 442.474037 299.802279 
L 442.697349 296.499027 
L 442.92066 297.861267 
L 443.367284 304.989231 
L 443.590595 305.670703 
L 443.813907 308.712061 
L 444.26053 302.893465 
L 444.483842 302.212697 
L 444.707154 300.535805 
L 445.153777 288.270717 
L 445.377089 278.731517 
L 445.6004 278.731517 
L 445.823712 284.182589 
L 446.047024 278.731517 
L 446.270335 280.094461 
L 446.716958 290.944551 
L 446.94027 290.996605 
L 447.163582 292.673497 
L 447.386893 291.992025 
L 447.610205 287.903897 
L 447.833517 277.683225 
L 448.056828 279.361639 
L 448.28014 285.808131 
L 448.726763 281.771353 
L 448.950075 277.998695 
L 449.173387 279.361639 
L 449.396698 270.137091 
L 449.62001 274.856158 
L 449.843322 276.167752 
L 450.066633 278.211464 
L 450.289945 275.118756 
L 450.513257 279.574408 
L 450.95988 275.17081 
L 451.183192 277.582046 
L 451.406503 275.587459 
L 451.629815 278.262814 
L 451.853127 282.716945 
L 452.076438 284.028538 
L 452.29975 289.427556 
L 452.523062 287.802014 
L 452.746373 284.445187 
L 452.969685 279.412989 
L 453.192996 292.724847 
L 453.416308 285.910831 
L 453.63962 285.910831 
L 453.862931 277.683225 
L 454.086243 276.687805 
L 454.309555 283.449767 
L 454.532866 276.423686 
L 455.202801 292.417564 
L 455.426113 295.245448 
L 455.649425 290.84185 
L 455.872736 296.659742 
L 456.096048 284.761361 
L 456.31936 290.211729 
L 456.542671 291.209374 
L 456.989295 291.15732 
L 457.212606 292.520264 
L 457.435918 288.064612 
L 457.65923 294.878628 
L 458.105853 296.557042 
L 458.329165 302.688882 
L 458.552476 301.326642 
L 459.222411 318.162707 
L 459.445723 306.74051 
L 459.669035 322.837089 
L 459.892346 330.076643 
L 460.338969 331.753535 
L 460.562281 345.5431 
L 460.785593 329.395171 
L 461.008904 337.571427 
L 461.232216 333.167126 
L 461.455528 296.322623 
L 461.678839 328.509116 
L 461.902151 306.338008 
L 462.125463 305.291238 
L 462.348774 308.859313 
L 462.572086 296.594929 
L 462.795398 297.957169 
L 463.242021 294.601863 
L 463.465333 273.479751 
L 463.688644 286.212838 
L 463.911956 286.475436 
L 464.135268 288.257254 
L 464.358579 278.036582 
L 464.581891 288.470023 
L 464.805203 286.110138 
L 465.028514 288.470023 
L 465.475138 295.231985 
L 465.698449 296.542875 
L 465.921761 284.278491 
L 466.145073 290.045033 
L 466.368384 283.231721 
L 466.591696 281.187305 
L 466.815008 288.682089 
L 467.038319 291.407977 
L 467.261631 288.051149 
L 467.484942 288.051149 
L 467.708254 294.550513 
L 467.931566 284.644493 
L 468.154877 291.407977 
L 468.378189 289.363561 
L 468.601501 291.407977 
L 468.824812 288.682089 
L 469.048124 293.451689 
L 469.271436 293.033518 
L 469.718059 297.069592 
L 469.941371 295.07723 
L 470.164682 296.440174 
L 470.387994 299.79548 
L 470.611306 295.34135 
L 470.834617 302.051961 
L 471.057929 318.830012 
L 471.281241 319.511484 
L 471.504552 314.060412 
L 471.727864 320.874428 
L 471.951176 339.014719 
L 472.174487 331.988637 
L 472.397799 301.056541 
L 472.621111 314.997817 
L 472.844422 305.877492 
L 473.067734 311.328564 
L 473.291046 308.184505 
L 473.514357 308.184505 
L 473.737669 308.397275 
L 474.184292 300.168965 
L 474.407604 306.352859 
L 474.630915 269.457824 
L 475.077539 293.363839 
L 475.30085 292.104299 
L 475.524162 295.510955 
L 475.747474 290.690005 
L 475.970785 291.788125 
L 476.194097 288.696939 
L 476.64072 293.363839 
L 476.864032 299.708448 
L 477.087344 296.983264 
L 477.310655 298.030034 
L 477.533967 292.265014 
L 477.757279 281.0474 
L 477.98059 291.898194 
L 478.203902 295.3562 
L 478.650525 284.82158 
L 478.873837 285.552881 
L 479.32046 293.993256 
L 479.543772 281.728872 
L 479.767084 279.68516 
L 479.990395 275.963852 
L 480.213707 275.28238 
L 480.437019 268.783016 
L 480.66033 276.54192 
L 480.883642 279.583278 
L 481.106953 272.453792 
L 481.330265 276.806743 
L 481.553577 278.117633 
L 481.776888 276.754689 
L 482.0002 267.215489 
L 482.223512 273.399383 
L 482.670135 275.392449 
L 482.893447 270.936797 
L 483.116758 270.255325 
L 483.34007 269.208555 
L 483.786693 253.536811 
L 484.010005 253.80093 
L 484.233317 243.946261 
L 484.456628 244.262434 
L 484.67994 234.407061 
L 484.903252 236.085474 
L 485.126563 229.586111 
L 485.349875 236.350298 
L 485.573187 239.075482 
L 485.796498 243.894911 
L 486.01981 241.485196 
L 486.466433 228.59069 
L 487.136368 240.122252 
L 487.35968 240.122252 
L 487.582991 242.166668 
L 488.029615 231.316578 
L 488.252926 231.316578 
L 488.476238 227.227746 
L 488.69955 216.062187 
L 488.922861 219.468843 
L 489.146173 218.787371 
L 489.369485 215.380715 
L 489.592796 218.471901 
L 489.816108 217.476481 
L 490.262731 207.988631 
L 490.486043 194.830006 
L 490.709355 197.869842 
L 490.932666 204.002386 
L 491.155978 198.236662 
L 491.37929 198.654015 
L 491.602601 202.060671 
L 491.825913 195.247359 
L 492.272536 200.96255 
L 492.495848 200.281078 
L 492.942471 196.558248 
L 493.165783 192.837644 
L 493.389095 204.999328 
L 493.612406 209.087456 
L 493.835718 194.514536 
L 494.05903 193.833064 
L 494.282341 190.11246 
L 494.505653 196.771018 
L 494.728964 199.182254 
L 494.952276 189.276234 
L 495.175588 185.239456 
L 495.398899 189.012114 
L 495.622211 185.869578 
L 495.845523 188.594762 
L 496.068834 178.791442 
L 496.292146 187.861939 
L 496.515458 190.587123 
L 496.738769 189.224883 
L 496.962081 188.858881 
L 497.185393 186.498995 
L 497.408704 191.268595 
L 497.632016 192.053472 
L 497.855328 198.449431 
L 498.078639 188.594762 
L 498.301951 195.305373 
L 498.525263 187.547991 
L 498.748574 183.825162 
L 498.971886 196.566434 
L 499.195198 180.213922 
L 499.418509 182.939106 
L 499.641821 203.277046 
L 499.865133 349.346143 
L 500.311756 214.604729 
L 500.758379 234.048427 
L 500.981691 241.858681 
L 501.205003 210.457882 
L 501.428314 216.590426 
L 501.874937 197.291775 
L 502.098249 196.610303 
L 502.544872 186.389631 
L 502.768184 136.649919 
L 502.991496 155.515549 
L 503.214807 164.586047 
L 503.438119 167.363285 
L 503.661431 191.380186 
L 503.884742 182.939106 
L 504.108054 181.364097 
L 504.331366 181.364097 
L 504.554677 182.045569 
L 504.777989 179.949803 
L 505.001301 174.133433 
L 505.224612 171.670143 
L 505.671236 181.108164 
L 505.894547 189.181015 
L 506.117859 192.903845 
L 506.341171 189.33577 
L 506.564482 224.187093 
L 506.787794 209.564345 
L 507.011106 210.245817 
L 507.234417 208.779468 
L 507.457729 209.777114 
L 507.681041 206.735756 
L 507.904352 206.735756 
L 508.127664 197.980729 
L 508.350975 194.623901 
L 508.574287 194.991425 
L 508.797599 199.761025 
L 509.02091 177.589917 
L 509.244222 176.226973 
L 509.467534 187.760761 
L 509.914157 171.560778 
L 510.137469 177.01185 
L 510.36078 175.018784 
L 510.584092 174.653486 
L 510.807404 168.938294 
L 511.030715 166.945932 
L 511.477339 146.548456 
L 511.70065 177.839186 
L 512.147274 157.083077 
L 512.370585 161.852677 
L 512.593897 146.496402 
L 512.817209 143.294329 
L 513.04052 141.931385 
L 513.263832 150.739285 
L 513.487144 165.097913 
L 513.710455 146.75304 
L 513.933767 149.478224 
L 514.38039 118.069239 
L 514.603702 141.508073 
L 514.827014 130.861862 
L 515.050325 139.829659 
L 515.273637 135.89406 
L 515.72026 101.137955 
L 515.943572 95.006115 
L 516.166883 92.64623 
L 516.390195 102.713669 
L 516.613507 95.371414 
L 516.836818 101.086605 
L 517.06013 94.954061 
L 517.283442 98.258017 
L 517.506753 95.483004 
L 517.730065 108.42886 
L 517.953377 111.212059 
L 518.176688 71.626818 
L 518.4 86.61709 
L 518.4 86.61709 
" style="fill:none;stroke:#4c72b0;stroke-linecap:round;stroke-width:1.75;"/>
   </g>
   <g id="patch_3">
    <path d="M 72 356.4 
L 518.4 356.4 
" style="fill:none;"/>
   </g>
   <g id="patch_4">
    <path d="M 72 39.6 
L 518.4 39.6 
" style="fill:none;"/>
   </g>
   <g id="patch_5">
    <path d="M 72 356.4 
L 72 39.6 
" style="fill:none;"/>
   </g>
   <g id="patch_6">
    <path d="M 518.4 356.4 
L 518.4 39.6 
" style="fill:none;"/>
   </g>
   <g id="text_16">
    <!-- sn - 2.161478162212926 * cu -->
    <defs>
     <path d="M 9.125 0 
L 9.125 10.6875 
L 18.65625 10.6875 
L 18.65625 0 
z
" id="LiberationSans-2e"/>
     <path d="M 46.390625 14.59375 
Q 46.390625 10.890625 44.9375 7.984375 
Q 43.5 5.078125 40.765625 3.09375 
Q 38.03125 1.125 34.046875 0.0625 
Q 30.078125 -0.984375 24.953125 -0.984375 
Q 20.359375 -0.984375 16.671875 -0.265625 
Q 12.984375 0.4375 10.203125 2 
Q 7.421875 3.5625 5.53125 6.125 
Q 3.65625 8.6875 2.78125 12.40625 
L 10.546875 13.921875 
Q 11.671875 9.671875 15.1875 7.6875 
Q 18.703125 5.71875 24.953125 5.71875 
Q 27.78125 5.71875 30.140625 6.109375 
Q 32.515625 6.5 34.21875 7.453125 
Q 35.9375 8.40625 36.890625 9.984375 
Q 37.84375 11.578125 37.84375 13.921875 
Q 37.84375 16.3125 36.71875 17.84375 
Q 35.59375 19.390625 33.59375 20.40625 
Q 31.59375 21.4375 28.734375 22.1875 
Q 25.875 22.953125 22.46875 23.875 
Q 19.28125 24.703125 16.15625 25.734375 
Q 13.03125 26.765625 10.515625 28.4375 
Q 8.015625 30.125 6.453125 32.609375 
Q 4.890625 35.109375 4.890625 38.875 
Q 4.890625 46.09375 10.03125 49.875 
Q 15.1875 53.65625 25.046875 53.65625 
Q 33.796875 53.65625 38.9375 50.578125 
Q 44.09375 47.515625 45.453125 40.71875 
L 37.546875 39.75 
Q 37.109375 41.796875 35.9375 43.1875 
Q 34.765625 44.578125 33.109375 45.4375 
Q 31.453125 46.296875 29.375 46.65625 
Q 27.296875 47.015625 25.046875 47.015625 
Q 19.09375 47.015625 16.25 45.203125 
Q 13.421875 43.40625 13.421875 39.75 
Q 13.421875 37.59375 14.46875 36.203125 
Q 15.53125 34.8125 17.40625 33.859375 
Q 19.28125 32.90625 21.921875 32.203125 
Q 24.5625 31.5 27.734375 30.71875 
Q 29.828125 30.171875 32.03125 29.5625 
Q 34.234375 28.953125 36.296875 28.09375 
Q 38.375 27.25 40.203125 26.09375 
Q 42.046875 24.953125 43.40625 23.34375 
Q 44.78125 21.734375 45.578125 19.578125 
Q 46.390625 17.4375 46.390625 14.59375 
" id="LiberationSans-73"/>
     <path d="M 13.421875 26.65625 
Q 13.421875 22.125 14.078125 18.3125 
Q 14.75 14.5 16.3125 11.734375 
Q 17.875 8.984375 20.4375 7.46875 
Q 23 5.953125 26.765625 5.953125 
Q 31.453125 5.953125 34.59375 8.484375 
Q 37.75 11.03125 38.484375 16.3125 
L 47.359375 15.71875 
Q 46.921875 12.453125 45.453125 9.421875 
Q 44 6.390625 41.484375 4.09375 
Q 38.96875 1.8125 35.34375 0.40625 
Q 31.734375 -0.984375 27 -0.984375 
Q 20.796875 -0.984375 16.453125 1.109375 
Q 12.109375 3.21875 9.390625 6.90625 
Q 6.6875 10.59375 5.46875 15.59375 
Q 4.25 20.609375 4.25 26.46875 
Q 4.25 31.78125 5.125 35.859375 
Q 6 39.9375 7.59375 42.984375 
Q 9.1875 46.046875 11.328125 48.125 
Q 13.484375 50.203125 15.984375 51.4375 
Q 18.5 52.6875 21.28125 53.25 
Q 24.078125 53.8125 26.90625 53.8125 
Q 31.34375 53.8125 34.8125 52.59375 
Q 38.28125 51.375 40.796875 49.25 
Q 43.3125 47.125 44.875 44.234375 
Q 46.4375 41.359375 47.078125 38.03125 
L 38.03125 37.359375 
Q 37.359375 41.75 34.5625 44.328125 
Q 31.78125 46.921875 26.65625 46.921875 
Q 22.90625 46.921875 20.390625 45.671875 
Q 17.875 44.4375 16.3125 41.921875 
Q 14.75 39.40625 14.078125 35.59375 
Q 13.421875 31.78125 13.421875 26.65625 
" id="LiberationSans-63"/>
     <path d="M 51.21875 22.515625 
Q 51.21875 17.328125 49.78125 13 
Q 48.34375 8.6875 45.53125 5.578125 
Q 42.71875 2.484375 38.5625 0.75 
Q 34.421875 -0.984375 29 -0.984375 
Q 23 -0.984375 18.5 1.3125 
Q 14.015625 3.609375 11.03125 7.921875 
Q 8.0625 12.25 6.5625 18.53125 
Q 5.078125 24.8125 5.078125 32.8125 
Q 5.078125 42 6.765625 48.921875 
Q 8.453125 55.859375 11.625 60.5 
Q 14.796875 65.140625 19.359375 67.484375 
Q 23.921875 69.828125 29.6875 69.828125 
Q 33.203125 69.828125 36.28125 69.09375 
Q 39.359375 68.359375 41.875 66.71875 
Q 44.390625 65.09375 46.28125 62.40625 
Q 48.1875 59.71875 49.3125 55.8125 
L 40.921875 54.296875 
Q 39.546875 58.734375 36.546875 60.71875 
Q 33.546875 62.703125 29.59375 62.703125 
Q 25.984375 62.703125 23.046875 60.984375 
Q 20.125 59.28125 18.0625 55.875 
Q 16.015625 52.484375 14.90625 47.359375 
Q 13.8125 42.234375 13.8125 35.40625 
Q 16.21875 39.84375 20.5625 42.15625 
Q 24.90625 44.484375 30.515625 44.484375 
Q 35.203125 44.484375 39.015625 42.96875 
Q 42.828125 41.453125 45.53125 38.59375 
Q 48.25 35.75 49.734375 31.671875 
Q 51.21875 27.59375 51.21875 22.515625 
M 42.28125 22.125 
Q 42.28125 25.6875 41.40625 28.5625 
Q 40.53125 31.453125 38.765625 33.46875 
Q 37.015625 35.5 34.421875 36.59375 
Q 31.84375 37.703125 28.421875 37.703125 
Q 26.03125 37.703125 23.578125 36.984375 
Q 21.140625 36.28125 19.15625 34.6875 
Q 17.1875 33.109375 15.9375 30.515625 
Q 14.703125 27.9375 14.703125 24.21875 
Q 14.703125 20.40625 15.671875 17.109375 
Q 16.65625 13.8125 18.484375 11.375 
Q 20.3125 8.9375 22.890625 7.515625 
Q 25.484375 6.109375 28.71875 6.109375 
Q 31.890625 6.109375 34.40625 7.203125 
Q 36.921875 8.296875 38.671875 10.375 
Q 40.4375 12.453125 41.359375 15.421875 
Q 42.28125 18.40625 42.28125 22.125 
" id="LiberationSans-36"/>
     <path d="M 22.265625 54.390625 
L 35.15625 59.421875 
L 37.359375 52.984375 
L 23.578125 49.421875 
L 32.625 37.203125 
L 26.8125 33.6875 
L 19.484375 46.296875 
L 11.859375 33.796875 
L 6.0625 37.3125 
L 15.28125 49.421875 
L 1.609375 52.984375 
L 3.8125 59.515625 
L 16.84375 54.296875 
L 16.265625 68.796875 
L 22.90625 68.796875 
z
" id="LiberationSans-2a"/>
     <path d="M 15.328125 52.828125 
L 15.328125 19.34375 
Q 15.328125 15.484375 15.890625 12.890625 
Q 16.453125 10.296875 17.71875 8.703125 
Q 19 7.125 21.0625 6.46875 
Q 23.140625 5.8125 26.21875 5.8125 
Q 29.34375 5.8125 31.859375 6.90625 
Q 34.375 8.015625 36.15625 10.078125 
Q 37.9375 12.15625 38.90625 15.203125 
Q 39.890625 18.265625 39.890625 22.21875 
L 39.890625 52.828125 
L 48.6875 52.828125 
L 48.6875 11.28125 
Q 48.6875 9.625 48.703125 7.78125 
Q 48.734375 5.953125 48.78125 4.3125 
Q 48.828125 2.6875 48.875 1.515625 
Q 48.921875 0.34375 48.96875 0 
L 40.671875 0 
Q 40.625 0.25 40.578125 1.3125 
Q 40.53125 2.390625 40.453125 3.78125 
Q 40.375 5.171875 40.328125 6.609375 
Q 40.28125 8.0625 40.28125 9.03125 
L 40.140625 9.03125 
Q 38.875 6.734375 37.359375 4.875 
Q 35.84375 3.03125 33.84375 1.734375 
Q 31.84375 0.4375 29.25 -0.265625 
Q 26.65625 -0.984375 23.25 -0.984375 
Q 18.84375 -0.984375 15.671875 0.09375 
Q 12.5 1.171875 10.453125 3.421875 
Q 8.40625 5.671875 7.453125 9.1875 
Q 6.5 12.703125 6.5 17.625 
L 6.5 52.828125 
z
" id="LiberationSans-75"/>
     <path d="M 40.28125 0 
L 40.28125 33.5 
Q 40.28125 37.359375 39.71875 39.9375 
Q 39.15625 42.53125 37.890625 44.109375 
Q 36.625 45.703125 34.546875 46.359375 
Q 32.46875 47.015625 29.390625 47.015625 
Q 26.265625 47.015625 23.75 45.921875 
Q 21.234375 44.828125 19.453125 42.75 
Q 17.671875 40.671875 16.6875 37.625 
Q 15.71875 34.578125 15.71875 30.609375 
L 15.71875 0 
L 6.9375 0 
L 6.9375 41.546875 
Q 6.9375 43.21875 6.90625 45.046875 
Q 6.890625 46.875 6.828125 48.5 
Q 6.78125 50.140625 6.734375 51.3125 
Q 6.6875 52.484375 6.640625 52.828125 
L 14.9375 52.828125 
Q 14.984375 52.59375 15.03125 51.515625 
Q 15.09375 50.4375 15.15625 49.046875 
Q 15.234375 47.65625 15.28125 46.21875 
Q 15.328125 44.78125 15.328125 43.796875 
L 15.484375 43.796875 
Q 16.75 46.09375 18.265625 47.953125 
Q 19.78125 49.8125 21.78125 51.09375 
Q 23.78125 52.390625 26.359375 53.09375 
Q 28.953125 53.8125 32.375 53.8125 
Q 36.765625 53.8125 39.9375 52.734375 
Q 43.109375 51.65625 45.15625 49.40625 
Q 47.21875 47.171875 48.171875 43.625 
Q 49.125 40.09375 49.125 35.203125 
L 49.125 0 
z
" id="LiberationSans-6e"/>
    </defs>
    <g style="fill:#262626;" transform="translate(216.474375 34.6)scale(0.12 -0.12)">
     <use xlink:href="#LiberationSans-73"/>
     <use x="50.0" xlink:href="#LiberationSans-6e"/>
     <use x="105.615234375" xlink:href="#LiberationSans-20"/>
     <use x="133.3984375" xlink:href="#LiberationSans-2d"/>
     <use x="166.69921875" xlink:href="#LiberationSans-20"/>
     <use x="194.482421875" xlink:href="#LiberationSans-32"/>
     <use x="250.09765625" xlink:href="#LiberationSans-2e"/>
     <use x="277.880859375" xlink:href="#LiberationSans-31"/>
     <use x="333.49609375" xlink:href="#LiberationSans-36"/>
     <use x="389.111328125" xlink:href="#LiberationSans-31"/>
     <use x="444.7265625" xlink:href="#LiberationSans-34"/>
     <use x="500.341796875" xlink:href="#LiberationSans-37"/>
     <use x="555.95703125" xlink:href="#LiberationSans-38"/>
     <use x="611.572265625" xlink:href="#LiberationSans-31"/>
     <use x="667.1875" xlink:href="#LiberationSans-36"/>
     <use x="722.802734375" xlink:href="#LiberationSans-32"/>
     <use x="778.41796875" xlink:href="#LiberationSans-32"/>
     <use x="834.033203125" xlink:href="#LiberationSans-31"/>
     <use x="889.6484375" xlink:href="#LiberationSans-32"/>
     <use x="945.263671875" xlink:href="#LiberationSans-39"/>
     <use x="1000.87890625" xlink:href="#LiberationSans-32"/>
     <use x="1056.494140625" xlink:href="#LiberationSans-36"/>
     <use x="1112.109375" xlink:href="#LiberationSans-20"/>
     <use x="1139.892578125" xlink:href="#LiberationSans-2a"/>
     <use x="1178.80859375" xlink:href="#LiberationSans-20"/>
     <use x="1206.591796875" xlink:href="#LiberationSans-63"/>
     <use x="1256.591796875" xlink:href="#LiberationSans-75"/>
    </g>
   </g>
  </g>
 </g>
 <defs>
  <clipPath id="pdb988e4a00">
   <rect height="316.8" width="446.4" x="72.0" y="39.6"/>
  </clipPath>
 </defs>
</svg>
