<?xml version="1.0" encoding="utf-8" standalone="no"?>
<!DOCTYPE svg PUBLIC "-//W3C//DTD SVG 1.1//EN"
  "http://www.w3.org/Graphics/SVG/1.1/DTD/svg11.dtd">
<!-- Created with matplotlib (http://matplotlib.org/) -->
<svg height="396pt" version="1.1" viewBox="0 0 576 396" width="576pt" xmlns="http://www.w3.org/2000/svg" xmlns:xlink="http://www.w3.org/1999/xlink">
 <defs>
  <style type="text/css">
*{stroke-linecap:butt;stroke-linejoin:round;stroke-miterlimit:100000;}
  </style>
 </defs>
 <g id="figure_1">
  <g id="patch_1">
   <path d="M 0 396 
L 576 396 
L 576 0 
L 0 0 
z
" style="fill:#ffffff;"/>
  </g>
  <g id="axes_1">
   <g id="patch_2">
    <path d="M 72 356.4 
L 518.4 356.4 
L 518.4 39.6 
L 72 39.6 
z
" style="fill:#eaeaf2;"/>
   </g>
   <g id="matplotlib.axis_1">
    <g id="xtick_1">
     <g id="line2d_1">
      <path clip-path="url(#pb3c1c63dc8)" d="M 72 356.4 
L 72 39.6 
" style="fill:none;stroke:#ffffff;stroke-linecap:round;"/>
     </g>
     <g id="line2d_2"/>
     <g id="line2d_3"/>
     <g id="text_1">
      <!-- 2016-09-27 09:32:00 -->
      <defs>
       <path d="M 5.03125 0 
L 5.03125 6.203125 
Q 7.515625 11.921875 11.109375 16.28125 
Q 14.703125 20.65625 18.65625 24.1875 
Q 22.609375 27.734375 26.484375 30.765625 
Q 30.375 33.796875 33.5 36.8125 
Q 36.625 39.84375 38.546875 43.15625 
Q 40.484375 46.484375 40.484375 50.6875 
Q 40.484375 53.609375 39.59375 55.828125 
Q 38.71875 58.0625 37.0625 59.5625 
Q 35.40625 61.078125 33.078125 61.828125 
Q 30.765625 62.59375 27.9375 62.59375 
Q 25.296875 62.59375 22.96875 61.859375 
Q 20.65625 61.140625 18.84375 59.671875 
Q 17.046875 58.203125 15.890625 56.03125 
Q 14.75 53.859375 14.40625 50.984375 
L 5.421875 51.8125 
Q 5.859375 55.515625 7.46875 58.78125 
Q 9.078125 62.0625 11.90625 64.53125 
Q 14.75 67 18.71875 68.40625 
Q 22.703125 69.828125 27.9375 69.828125 
Q 33.0625 69.828125 37.0625 68.609375 
Q 41.0625 67.390625 43.8125 64.984375 
Q 46.578125 62.59375 48.046875 59.078125 
Q 49.515625 55.5625 49.515625 50.984375 
Q 49.515625 47.515625 48.265625 44.390625 
Q 47.015625 41.265625 44.9375 38.421875 
Q 42.875 35.59375 40.140625 32.953125 
Q 37.40625 30.328125 34.421875 27.8125 
Q 31.453125 25.296875 28.421875 22.828125 
Q 25.390625 20.359375 22.71875 17.859375 
Q 20.0625 15.375 17.96875 12.8125 
Q 15.875 10.25 14.703125 7.46875 
L 50.59375 7.46875 
L 50.59375 0 
z
" id="LiberationSans-32"/>
       <path d="M 7.625 0 
L 7.625 7.46875 
L 25.140625 7.46875 
L 25.140625 60.40625 
L 9.625 49.3125 
L 9.625 57.625 
L 25.875 68.796875 
L 33.984375 68.796875 
L 33.984375 7.46875 
L 50.734375 7.46875 
L 50.734375 0 
z
" id="LiberationSans-31"/>
       <path d="M 51.703125 34.421875 
Q 51.703125 24.515625 49.828125 17.75 
Q 47.953125 10.984375 44.703125 6.8125 
Q 41.453125 2.640625 37.0625 0.828125 
Q 32.671875 -0.984375 27.6875 -0.984375 
Q 22.65625 -0.984375 18.3125 0.828125 
Q 13.96875 2.640625 10.765625 6.78125 
Q 7.5625 10.9375 5.734375 17.703125 
Q 3.90625 24.46875 3.90625 34.421875 
Q 3.90625 44.828125 5.734375 51.640625 
Q 7.5625 58.453125 10.78125 62.5 
Q 14.015625 66.546875 18.40625 68.1875 
Q 22.796875 69.828125 27.984375 69.828125 
Q 32.90625 69.828125 37.21875 68.1875 
Q 41.546875 66.546875 44.765625 62.5 
Q 48 58.453125 49.84375 51.640625 
Q 51.703125 44.828125 51.703125 34.421875 
M 42.78125 34.421875 
Q 42.78125 42.625 41.796875 48.0625 
Q 40.828125 53.515625 38.921875 56.765625 
Q 37.015625 60.015625 34.25 61.359375 
Q 31.5 62.703125 27.984375 62.703125 
Q 24.265625 62.703125 21.4375 61.328125 
Q 18.609375 59.96875 16.671875 56.71875 
Q 14.75 53.46875 13.765625 48.015625 
Q 12.796875 42.578125 12.796875 34.421875 
Q 12.796875 26.515625 13.796875 21.09375 
Q 14.796875 15.671875 16.71875 12.375 
Q 18.65625 9.078125 21.4375 7.640625 
Q 24.21875 6.203125 27.78125 6.203125 
Q 31.25 6.203125 34.03125 7.640625 
Q 36.8125 9.078125 38.734375 12.375 
Q 40.671875 15.671875 41.71875 21.09375 
Q 42.78125 26.515625 42.78125 34.421875 
" id="LiberationSans-30"/>
       <path d="M 50.875 35.796875 
Q 50.875 26.609375 49.140625 19.703125 
Q 47.40625 12.796875 44.1875 8.203125 
Q 40.96875 3.609375 36.34375 1.3125 
Q 31.734375 -0.984375 25.984375 -0.984375 
Q 22.015625 -0.984375 18.84375 -0.171875 
Q 15.671875 0.640625 13.171875 2.34375 
Q 10.6875 4.046875 8.921875 6.78125 
Q 7.171875 9.515625 6.109375 13.375 
L 14.5 14.703125 
Q 15.875 10.25 18.78125 8.171875 
Q 21.6875 6.109375 26.125 6.109375 
Q 29.6875 6.109375 32.640625 7.78125 
Q 35.59375 9.46875 37.671875 12.84375 
Q 39.75 16.21875 40.921875 21.296875 
Q 42.09375 26.375 42.1875 33.203125 
Q 41.15625 30.90625 39.375 29.09375 
Q 37.59375 27.296875 35.328125 26.046875 
Q 33.0625 24.8125 30.421875 24.140625 
Q 27.78125 23.484375 25.09375 23.484375 
Q 20.40625 23.484375 16.625 25.171875 
Q 12.84375 26.859375 10.203125 29.875 
Q 7.5625 32.90625 6.125 37.171875 
Q 4.6875 41.453125 4.6875 46.6875 
Q 4.6875 52 6.21875 56.296875 
Q 7.765625 60.59375 10.6875 63.59375 
Q 13.625 66.609375 17.890625 68.21875 
Q 22.171875 69.828125 27.59375 69.828125 
Q 39.0625 69.828125 44.96875 61.328125 
Q 50.875 52.828125 50.875 35.796875 
M 41.3125 44.28125 
Q 41.3125 48.09375 40.40625 51.453125 
Q 39.5 54.828125 37.71875 57.3125 
Q 35.9375 59.8125 33.328125 61.25 
Q 30.71875 62.703125 27.296875 62.703125 
Q 24.125 62.703125 21.578125 61.578125 
Q 19.046875 60.453125 17.28125 58.375 
Q 15.53125 56.296875 14.578125 53.3125 
Q 13.625 50.34375 13.625 46.6875 
Q 13.625 43.21875 14.46875 40.234375 
Q 15.328125 37.25 17.03125 35.078125 
Q 18.75 32.90625 21.28125 31.65625 
Q 23.828125 30.421875 27.203125 30.421875 
Q 29.640625 30.421875 32.15625 31.25 
Q 34.671875 32.078125 36.6875 33.78125 
Q 38.71875 35.5 40.015625 38.109375 
Q 41.3125 40.71875 41.3125 44.28125 
" id="LiberationSans-39"/>
       <path d="M 9.125 42.71875 
L 9.125 52.828125 
L 18.65625 52.828125 
L 18.65625 42.71875 
z
M 9.125 0 
L 9.125 10.109375 
L 18.65625 10.109375 
L 18.65625 0 
z
" id="LiberationSans-3a"/>
       <path d="M 51.21875 19 
Q 51.21875 14.265625 49.671875 10.546875 
Q 48.140625 6.84375 45.1875 4.265625 
Q 42.234375 1.703125 37.859375 0.359375 
Q 33.5 -0.984375 27.875 -0.984375 
Q 21.484375 -0.984375 17.109375 0.609375 
Q 12.75 2.203125 9.90625 4.8125 
Q 7.078125 7.421875 5.65625 10.765625 
Q 4.25 14.109375 3.8125 17.671875 
L 12.890625 18.5 
Q 13.28125 15.765625 14.328125 13.515625 
Q 15.375 11.28125 17.1875 9.671875 
Q 19 8.0625 21.625 7.171875 
Q 24.265625 6.296875 27.875 6.296875 
Q 34.515625 6.296875 38.296875 9.5625 
Q 42.09375 12.84375 42.09375 19.28125 
Q 42.09375 23.09375 40.40625 25.40625 
Q 38.71875 27.734375 36.203125 29.03125 
Q 33.6875 30.328125 30.734375 30.765625 
Q 27.78125 31.203125 25.296875 31.203125 
L 20.3125 31.203125 
L 20.3125 38.8125 
L 25.09375 38.8125 
Q 27.59375 38.8125 30.265625 39.328125 
Q 32.953125 39.84375 35.171875 41.1875 
Q 37.40625 42.53125 38.84375 44.828125 
Q 40.28125 47.125 40.28125 50.6875 
Q 40.28125 56.203125 37.03125 59.390625 
Q 33.796875 62.59375 27.390625 62.59375 
Q 21.578125 62.59375 17.984375 59.609375 
Q 14.40625 56.640625 13.8125 51.21875 
L 4.984375 51.90625 
Q 5.515625 56.453125 7.46875 59.8125 
Q 9.421875 63.1875 12.421875 65.40625 
Q 15.4375 67.625 19.28125 68.71875 
Q 23.140625 69.828125 27.484375 69.828125 
Q 33.25 69.828125 37.390625 68.375 
Q 41.546875 66.9375 44.1875 64.46875 
Q 46.828125 62.015625 48.0625 58.6875 
Q 49.3125 55.375 49.3125 51.609375 
Q 49.3125 48.578125 48.484375 45.9375 
Q 47.65625 43.3125 45.890625 41.203125 
Q 44.140625 39.109375 41.421875 37.59375 
Q 38.71875 36.078125 34.90625 35.296875 
L 34.90625 35.109375 
Q 39.0625 34.671875 42.140625 33.21875 
Q 45.21875 31.78125 47.21875 29.625 
Q 49.21875 27.484375 50.21875 24.75 
Q 51.21875 22.015625 51.21875 19 
" id="LiberationSans-33"/>
       <path d="M 50.59375 61.671875 
Q 45.40625 53.765625 41.0625 46.453125 
Q 36.71875 39.15625 33.59375 31.75 
Q 30.46875 24.359375 28.734375 16.578125 
Q 27 8.796875 27 0 
L 17.828125 0 
Q 17.828125 8.25 19.78125 16.1875 
Q 21.734375 24.125 25.046875 31.765625 
Q 28.375 39.40625 32.765625 46.78125 
Q 37.15625 54.15625 42.09375 61.328125 
L 5.125 61.328125 
L 5.125 68.796875 
L 50.59375 68.796875 
z
" id="LiberationSans-37"/>
       <path id="LiberationSans-20"/>
       <path d="M 4.4375 22.65625 
L 4.4375 30.46875 
L 28.859375 30.46875 
L 28.859375 22.65625 
z
" id="LiberationSans-2d"/>
       <path d="M 51.21875 22.515625 
Q 51.21875 17.328125 49.78125 13 
Q 48.34375 8.6875 45.53125 5.578125 
Q 42.71875 2.484375 38.5625 0.75 
Q 34.421875 -0.984375 29 -0.984375 
Q 23 -0.984375 18.5 1.3125 
Q 14.015625 3.609375 11.03125 7.921875 
Q 8.0625 12.25 6.5625 18.53125 
Q 5.078125 24.8125 5.078125 32.8125 
Q 5.078125 42 6.765625 48.921875 
Q 8.453125 55.859375 11.625 60.5 
Q 14.796875 65.140625 19.359375 67.484375 
Q 23.921875 69.828125 29.6875 69.828125 
Q 33.203125 69.828125 36.28125 69.09375 
Q 39.359375 68.359375 41.875 66.71875 
Q 44.390625 65.09375 46.28125 62.40625 
Q 48.1875 59.71875 49.3125 55.8125 
L 40.921875 54.296875 
Q 39.546875 58.734375 36.546875 60.71875 
Q 33.546875 62.703125 29.59375 62.703125 
Q 25.984375 62.703125 23.046875 60.984375 
Q 20.125 59.28125 18.0625 55.875 
Q 16.015625 52.484375 14.90625 47.359375 
Q 13.8125 42.234375 13.8125 35.40625 
Q 16.21875 39.84375 20.5625 42.15625 
Q 24.90625 44.484375 30.515625 44.484375 
Q 35.203125 44.484375 39.015625 42.96875 
Q 42.828125 41.453125 45.53125 38.59375 
Q 48.25 35.75 49.734375 31.671875 
Q 51.21875 27.59375 51.21875 22.515625 
M 42.28125 22.125 
Q 42.28125 25.6875 41.40625 28.5625 
Q 40.53125 31.453125 38.765625 33.46875 
Q 37.015625 35.5 34.421875 36.59375 
Q 31.84375 37.703125 28.421875 37.703125 
Q 26.03125 37.703125 23.578125 36.984375 
Q 21.140625 36.28125 19.15625 34.6875 
Q 17.1875 33.109375 15.9375 30.515625 
Q 14.703125 27.9375 14.703125 24.21875 
Q 14.703125 20.40625 15.671875 17.109375 
Q 16.65625 13.8125 18.484375 11.375 
Q 20.3125 8.9375 22.890625 7.515625 
Q 25.484375 6.109375 28.71875 6.109375 
Q 31.890625 6.109375 34.40625 7.203125 
Q 36.921875 8.296875 38.671875 10.375 
Q 40.4375 12.453125 41.359375 15.421875 
Q 42.28125 18.40625 42.28125 22.125 
" id="LiberationSans-36"/>
      </defs>
      <g style="fill:#262626;" transform="translate(25.5765625 370.646875)scale(0.1 -0.1)">
       <use xlink:href="#LiberationSans-32"/>
       <use x="55.615234375" xlink:href="#LiberationSans-30"/>
       <use x="111.23046875" xlink:href="#LiberationSans-31"/>
       <use x="166.845703125" xlink:href="#LiberationSans-36"/>
       <use x="222.4609375" xlink:href="#LiberationSans-2d"/>
       <use x="255.76171875" xlink:href="#LiberationSans-30"/>
       <use x="311.376953125" xlink:href="#LiberationSans-39"/>
       <use x="366.9921875" xlink:href="#LiberationSans-2d"/>
       <use x="400.29296875" xlink:href="#LiberationSans-32"/>
       <use x="455.908203125" xlink:href="#LiberationSans-37"/>
       <use x="511.5234375" xlink:href="#LiberationSans-20"/>
       <use x="539.306640625" xlink:href="#LiberationSans-30"/>
       <use x="594.921875" xlink:href="#LiberationSans-39"/>
       <use x="650.537109375" xlink:href="#LiberationSans-3a"/>
       <use x="678.3203125" xlink:href="#LiberationSans-33"/>
       <use x="733.935546875" xlink:href="#LiberationSans-32"/>
       <use x="789.55078125" xlink:href="#LiberationSans-3a"/>
       <use x="817.333984375" xlink:href="#LiberationSans-30"/>
       <use x="872.94921875" xlink:href="#LiberationSans-30"/>
      </g>
     </g>
    </g>
    <g id="xtick_2">
     <g id="line2d_4">
      <path clip-path="url(#pb3c1c63dc8)" d="M 183.655828 356.4 
L 183.655828 39.6 
" style="fill:none;stroke:#ffffff;stroke-linecap:round;"/>
     </g>
     <g id="line2d_5"/>
     <g id="line2d_6"/>
     <g id="text_2">
      <!-- 2016-09-29 10:35:00 -->
      <defs>
       <path d="M 51.421875 22.40625 
Q 51.421875 17.234375 49.859375 12.9375 
Q 48.296875 8.640625 45.21875 5.53125 
Q 42.140625 2.4375 37.578125 0.71875 
Q 33.015625 -0.984375 27 -0.984375 
Q 21.578125 -0.984375 17.546875 0.28125 
Q 13.53125 1.5625 10.734375 3.78125 
Q 7.953125 6 6.3125 8.984375 
Q 4.6875 11.96875 4 15.375 
L 12.890625 16.40625 
Q 13.421875 14.453125 14.390625 12.625 
Q 15.375 10.796875 17.0625 9.34375 
Q 18.75 7.90625 21.21875 7.046875 
Q 23.6875 6.203125 27.203125 6.203125 
Q 30.609375 6.203125 33.390625 7.25 
Q 36.1875 8.296875 38.15625 10.34375 
Q 40.140625 12.40625 41.203125 15.375 
Q 42.28125 18.359375 42.28125 22.21875 
Q 42.28125 25.390625 41.25 28.046875 
Q 40.234375 30.71875 38.328125 32.640625 
Q 36.421875 34.578125 33.65625 35.640625 
Q 30.90625 36.71875 27.390625 36.71875 
Q 25.203125 36.71875 23.34375 36.328125 
Q 21.484375 35.9375 19.890625 35.25 
Q 18.3125 34.578125 17.015625 33.671875 
Q 15.71875 32.765625 14.59375 31.78125 
L 6 31.78125 
L 8.296875 68.796875 
L 47.40625 68.796875 
L 47.40625 61.328125 
L 16.3125 61.328125 
L 14.984375 39.5 
Q 17.328125 41.3125 20.84375 42.59375 
Q 24.359375 43.890625 29.203125 43.890625 
Q 34.328125 43.890625 38.421875 42.328125 
Q 42.53125 40.765625 45.40625 37.90625 
Q 48.296875 35.0625 49.859375 31.109375 
Q 51.421875 27.15625 51.421875 22.40625 
" id="LiberationSans-35"/>
      </defs>
      <g style="fill:#262626;" transform="translate(137.232390414 370.646875)scale(0.1 -0.1)">
       <use xlink:href="#LiberationSans-32"/>
       <use x="55.615234375" xlink:href="#LiberationSans-30"/>
       <use x="111.23046875" xlink:href="#LiberationSans-31"/>
       <use x="166.845703125" xlink:href="#LiberationSans-36"/>
       <use x="222.4609375" xlink:href="#LiberationSans-2d"/>
       <use x="255.76171875" xlink:href="#LiberationSans-30"/>
       <use x="311.376953125" xlink:href="#LiberationSans-39"/>
       <use x="366.9921875" xlink:href="#LiberationSans-2d"/>
       <use x="400.29296875" xlink:href="#LiberationSans-32"/>
       <use x="455.908203125" xlink:href="#LiberationSans-39"/>
       <use x="511.5234375" xlink:href="#LiberationSans-20"/>
       <use x="539.306640625" xlink:href="#LiberationSans-31"/>
       <use x="594.921875" xlink:href="#LiberationSans-30"/>
       <use x="650.537109375" xlink:href="#LiberationSans-3a"/>
       <use x="678.3203125" xlink:href="#LiberationSans-33"/>
       <use x="733.935546875" xlink:href="#LiberationSans-35"/>
       <use x="789.55078125" xlink:href="#LiberationSans-3a"/>
       <use x="817.333984375" xlink:href="#LiberationSans-30"/>
       <use x="872.94921875" xlink:href="#LiberationSans-30"/>
      </g>
     </g>
    </g>
    <g id="xtick_3">
     <g id="line2d_7">
      <path clip-path="url(#pb3c1c63dc8)" d="M 295.311656 356.4 
L 295.311656 39.6 
" style="fill:none;stroke:#ffffff;stroke-linecap:round;"/>
     </g>
     <g id="line2d_8"/>
     <g id="line2d_9"/>
     <g id="text_3">
      <!-- 2016-10-10 11:22:00 -->
      <g style="fill:#262626;" transform="translate(248.888218328 370.646875)scale(0.1 -0.1)">
       <use xlink:href="#LiberationSans-32"/>
       <use x="55.615234375" xlink:href="#LiberationSans-30"/>
       <use x="111.23046875" xlink:href="#LiberationSans-31"/>
       <use x="166.845703125" xlink:href="#LiberationSans-36"/>
       <use x="222.4609375" xlink:href="#LiberationSans-2d"/>
       <use x="255.76171875" xlink:href="#LiberationSans-31"/>
       <use x="311.376953125" xlink:href="#LiberationSans-30"/>
       <use x="366.9921875" xlink:href="#LiberationSans-2d"/>
       <use x="400.29296875" xlink:href="#LiberationSans-31"/>
       <use x="455.908203125" xlink:href="#LiberationSans-30"/>
       <use x="511.5234375" xlink:href="#LiberationSans-20"/>
       <use x="539.306640625" xlink:href="#LiberationSans-31"/>
       <use x="594.921875" xlink:href="#LiberationSans-31"/>
       <use x="650.537109375" xlink:href="#LiberationSans-3a"/>
       <use x="678.3203125" xlink:href="#LiberationSans-32"/>
       <use x="733.935546875" xlink:href="#LiberationSans-32"/>
       <use x="789.55078125" xlink:href="#LiberationSans-3a"/>
       <use x="817.333984375" xlink:href="#LiberationSans-30"/>
       <use x="872.94921875" xlink:href="#LiberationSans-30"/>
      </g>
     </g>
    </g>
    <g id="xtick_4">
     <g id="line2d_10">
      <path clip-path="url(#pb3c1c63dc8)" d="M 406.967484 356.4 
L 406.967484 39.6 
" style="fill:none;stroke:#ffffff;stroke-linecap:round;"/>
     </g>
     <g id="line2d_11"/>
     <g id="line2d_12"/>
     <g id="text_4">
      <!-- 2016-10-12 14:11:00 -->
      <defs>
       <path d="M 43.015625 15.578125 
L 43.015625 0 
L 34.71875 0 
L 34.71875 15.578125 
L 2.296875 15.578125 
L 2.296875 22.40625 
L 33.796875 68.796875 
L 43.015625 68.796875 
L 43.015625 22.515625 
L 52.6875 22.515625 
L 52.6875 15.578125 
z
M 34.71875 58.890625 
Q 34.625 58.640625 34.234375 57.9375 
Q 33.84375 57.234375 33.34375 56.34375 
Q 32.859375 55.46875 32.34375 54.5625 
Q 31.84375 53.65625 31.453125 53.078125 
L 13.8125 27.09375 
Q 13.578125 26.703125 13.109375 26.0625 
Q 12.640625 25.4375 12.15625 24.78125 
Q 11.671875 24.125 11.171875 23.484375 
Q 10.6875 22.859375 10.40625 22.515625 
L 34.71875 22.515625 
z
" id="LiberationSans-34"/>
      </defs>
      <g style="fill:#262626;" transform="translate(360.544046242 370.646875)scale(0.1 -0.1)">
       <use xlink:href="#LiberationSans-32"/>
       <use x="55.615234375" xlink:href="#LiberationSans-30"/>
       <use x="111.23046875" xlink:href="#LiberationSans-31"/>
       <use x="166.845703125" xlink:href="#LiberationSans-36"/>
       <use x="222.4609375" xlink:href="#LiberationSans-2d"/>
       <use x="255.76171875" xlink:href="#LiberationSans-31"/>
       <use x="311.376953125" xlink:href="#LiberationSans-30"/>
       <use x="366.9921875" xlink:href="#LiberationSans-2d"/>
       <use x="400.29296875" xlink:href="#LiberationSans-31"/>
       <use x="455.908203125" xlink:href="#LiberationSans-32"/>
       <use x="511.5234375" xlink:href="#LiberationSans-20"/>
       <use x="539.306640625" xlink:href="#LiberationSans-31"/>
       <use x="594.921875" xlink:href="#LiberationSans-34"/>
       <use x="650.537109375" xlink:href="#LiberationSans-3a"/>
       <use x="678.3203125" xlink:href="#LiberationSans-31"/>
       <use x="733.935546875" xlink:href="#LiberationSans-31"/>
       <use x="789.55078125" xlink:href="#LiberationSans-3a"/>
       <use x="817.333984375" xlink:href="#LiberationSans-30"/>
       <use x="872.94921875" xlink:href="#LiberationSans-30"/>
      </g>
     </g>
    </g>
    <g id="text_5">
     <!-- time -->
     <defs>
      <path d="M 13.484375 24.5625 
Q 13.484375 20.40625 14.328125 16.90625 
Q 15.1875 13.421875 16.96875 10.90625 
Q 18.75 8.40625 21.53125 7 
Q 24.3125 5.609375 28.21875 5.609375 
Q 33.9375 5.609375 37.375 7.90625 
Q 40.828125 10.203125 42.046875 13.71875 
L 49.75 11.53125 
Q 48.921875 9.328125 47.4375 7.109375 
Q 45.953125 4.890625 43.453125 3.09375 
Q 40.96875 1.3125 37.234375 0.15625 
Q 33.5 -0.984375 28.21875 -0.984375 
Q 16.5 -0.984375 10.375 6 
Q 4.25 12.984375 4.25 26.765625 
Q 4.25 34.1875 6.09375 39.328125 
Q 7.953125 44.484375 11.171875 47.703125 
Q 14.40625 50.921875 18.703125 52.359375 
Q 23 53.8125 27.875 53.8125 
Q 34.515625 53.8125 38.984375 51.65625 
Q 43.453125 49.515625 46.15625 45.71875 
Q 48.875 41.9375 50.015625 36.8125 
Q 51.171875 31.6875 51.171875 25.734375 
L 51.171875 24.5625 
z
M 42.09375 31.296875 
Q 41.359375 39.65625 37.84375 43.484375 
Q 34.328125 47.3125 27.734375 47.3125 
Q 25.53125 47.3125 23.109375 46.609375 
Q 20.703125 45.90625 18.65625 44.09375 
Q 16.609375 42.28125 15.1875 39.171875 
Q 13.765625 36.078125 13.578125 31.296875 
z
" id="LiberationSans-65"/>
      <path d="M 6.6875 64.0625 
L 6.6875 72.46875 
L 15.484375 72.46875 
L 15.484375 64.0625 
z
M 6.6875 0 
L 6.6875 52.828125 
L 15.484375 52.828125 
L 15.484375 0 
z
" id="LiberationSans-69"/>
      <path d="M 27.046875 0.390625 
Q 25.046875 -0.140625 22.96875 -0.453125 
Q 20.90625 -0.78125 18.171875 -0.78125 
Q 7.625 -0.78125 7.625 11.1875 
L 7.625 46.4375 
L 1.515625 46.4375 
L 1.515625 52.828125 
L 7.953125 52.828125 
L 10.546875 64.65625 
L 16.40625 64.65625 
L 16.40625 52.828125 
L 26.171875 52.828125 
L 26.171875 46.4375 
L 16.40625 46.4375 
L 16.40625 13.09375 
Q 16.40625 9.28125 17.640625 7.734375 
Q 18.890625 6.203125 21.96875 6.203125 
Q 23.25 6.203125 24.4375 6.390625 
Q 25.640625 6.59375 27.046875 6.890625 
z
" id="LiberationSans-74"/>
      <path d="M 37.5 0 
L 37.5 33.5 
Q 37.5 37.359375 37.015625 39.9375 
Q 36.53125 42.53125 35.375 44.109375 
Q 34.234375 45.703125 32.375 46.359375 
Q 30.515625 47.015625 27.828125 47.015625 
Q 25.046875 47.015625 22.796875 45.921875 
Q 20.5625 44.828125 18.96875 42.75 
Q 17.390625 40.671875 16.53125 37.625 
Q 15.671875 34.578125 15.671875 30.609375 
L 15.671875 0 
L 6.9375 0 
L 6.9375 41.546875 
Q 6.9375 43.21875 6.90625 45.046875 
Q 6.890625 46.875 6.828125 48.5 
Q 6.78125 50.140625 6.734375 51.3125 
Q 6.6875 52.484375 6.640625 52.828125 
L 14.9375 52.828125 
Q 14.984375 52.59375 15.03125 51.515625 
Q 15.09375 50.4375 15.15625 49.046875 
Q 15.234375 47.65625 15.28125 46.21875 
Q 15.328125 44.78125 15.328125 43.796875 
L 15.484375 43.796875 
Q 16.65625 46.09375 18.015625 47.953125 
Q 19.390625 49.8125 21.21875 51.09375 
Q 23.046875 52.390625 25.40625 53.09375 
Q 27.78125 53.8125 30.90625 53.8125 
Q 36.921875 53.8125 40.40625 51.421875 
Q 43.890625 49.03125 45.265625 43.796875 
L 45.40625 43.796875 
Q 46.578125 46.09375 48.046875 47.953125 
Q 49.515625 49.8125 51.46875 51.09375 
Q 53.421875 52.390625 55.859375 53.09375 
Q 58.296875 53.8125 61.421875 53.8125 
Q 65.4375 53.8125 68.328125 52.734375 
Q 71.234375 51.65625 73.09375 49.40625 
Q 74.953125 47.171875 75.828125 43.625 
Q 76.703125 40.09375 76.703125 35.203125 
L 76.703125 0 
L 68.015625 0 
L 68.015625 33.5 
Q 68.015625 37.359375 67.53125 39.9375 
Q 67.046875 42.53125 65.890625 44.109375 
Q 64.75 45.703125 62.890625 46.359375 
Q 61.03125 47.015625 58.34375 47.015625 
Q 55.5625 47.015625 53.3125 45.96875 
Q 51.078125 44.921875 49.484375 42.875 
Q 47.90625 40.828125 47.046875 37.75 
Q 46.1875 34.671875 46.1875 30.609375 
L 46.1875 0 
z
" id="LiberationSans-6d"/>
     </defs>
     <g style="fill:#262626;" transform="translate(284.81015625 385.6934375)scale(0.11 -0.11)">
      <use xlink:href="#LiberationSans-74"/>
      <use x="27.783203125" xlink:href="#LiberationSans-69"/>
      <use x="50.0" xlink:href="#LiberationSans-6d"/>
      <use x="133.30078125" xlink:href="#LiberationSans-65"/>
     </g>
    </g>
   </g>
   <g id="matplotlib.axis_2">
    <g id="ytick_1">
     <g id="line2d_13">
      <path clip-path="url(#pb3c1c63dc8)" d="M 72 356.4 
L 518.4 356.4 
" style="fill:none;stroke:#ffffff;stroke-linecap:round;"/>
     </g>
     <g id="line2d_14"/>
     <g id="line2d_15"/>
     <g id="text_6">
      <!-- 8350 -->
      <defs>
       <path d="M 51.265625 19.1875 
Q 51.265625 14.796875 49.875 11.109375 
Q 48.484375 7.421875 45.625 4.734375 
Q 42.78125 2.046875 38.328125 0.53125 
Q 33.890625 -0.984375 27.828125 -0.984375 
Q 21.78125 -0.984375 17.359375 0.53125 
Q 12.9375 2.046875 10.03125 4.703125 
Q 7.125 7.375 5.734375 11.0625 
Q 4.34375 14.75 4.34375 19.09375 
Q 4.34375 22.859375 5.484375 25.78125 
Q 6.640625 28.71875 8.5625 30.828125 
Q 10.5 32.953125 12.96875 34.25 
Q 15.4375 35.546875 18.0625 35.984375 
L 18.0625 36.1875 
Q 15.1875 36.859375 12.90625 38.375 
Q 10.640625 39.890625 9.09375 42.015625 
Q 7.5625 44.140625 6.75 46.71875 
Q 5.953125 49.3125 5.953125 52.203125 
Q 5.953125 55.8125 7.34375 59 
Q 8.734375 62.203125 11.46875 64.625 
Q 14.203125 67.046875 18.25 68.4375 
Q 22.3125 69.828125 27.640625 69.828125 
Q 33.25 69.828125 37.375 68.40625 
Q 41.5 67 44.203125 64.578125 
Q 46.921875 62.15625 48.234375 58.9375 
Q 49.5625 55.71875 49.5625 52.09375 
Q 49.5625 49.265625 48.75 46.671875 
Q 47.953125 44.09375 46.40625 41.96875 
Q 44.875 39.84375 42.59375 38.34375 
Q 40.328125 36.859375 37.359375 36.28125 
L 37.359375 36.078125 
Q 40.328125 35.59375 42.859375 34.296875 
Q 45.40625 33.015625 47.265625 30.890625 
Q 49.125 28.765625 50.1875 25.828125 
Q 51.265625 22.90625 51.265625 19.1875 
M 40.4375 51.609375 
Q 40.4375 54.203125 39.765625 56.34375 
Q 39.109375 58.5 37.59375 60.03125 
Q 36.078125 61.578125 33.640625 62.421875 
Q 31.203125 63.28125 27.640625 63.28125 
Q 24.171875 63.28125 21.78125 62.421875 
Q 19.390625 61.578125 17.84375 60.03125 
Q 16.3125 58.5 15.625 56.34375 
Q 14.9375 54.203125 14.9375 51.609375 
Q 14.9375 49.5625 15.46875 47.40625 
Q 16.015625 45.265625 17.421875 43.5 
Q 18.84375 41.75 21.328125 40.625 
Q 23.828125 39.5 27.734375 39.5 
Q 31.890625 39.5 34.40625 40.625 
Q 36.921875 41.75 38.25 43.5 
Q 39.59375 45.265625 40.015625 47.40625 
Q 40.4375 49.5625 40.4375 51.609375 
M 42.140625 20.015625 
Q 42.140625 22.515625 41.453125 24.828125 
Q 40.765625 27.15625 39.109375 28.9375 
Q 37.453125 30.71875 34.640625 31.8125 
Q 31.84375 32.90625 27.640625 32.90625 
Q 23.78125 32.90625 21.0625 31.8125 
Q 18.359375 30.71875 16.671875 28.90625 
Q 14.984375 27.09375 14.203125 24.71875 
Q 13.421875 22.359375 13.421875 19.828125 
Q 13.421875 16.65625 14.203125 14.03125 
Q 14.984375 11.421875 16.6875 9.546875 
Q 18.40625 7.671875 21.1875 6.640625 
Q 23.96875 5.609375 27.9375 5.609375 
Q 31.9375 5.609375 34.671875 6.640625 
Q 37.40625 7.671875 39.0625 9.546875 
Q 40.71875 11.421875 41.421875 14.078125 
Q 42.140625 16.75 42.140625 20.015625 
" id="LiberationSans-38"/>
      </defs>
      <g style="fill:#262626;" transform="translate(42.75625 358.9859375)scale(0.1 -0.1)">
       <use xlink:href="#LiberationSans-38"/>
       <use x="55.615234375" xlink:href="#LiberationSans-33"/>
       <use x="111.23046875" xlink:href="#LiberationSans-35"/>
       <use x="166.845703125" xlink:href="#LiberationSans-30"/>
      </g>
     </g>
    </g>
    <g id="ytick_2">
     <g id="line2d_16">
      <path clip-path="url(#pb3c1c63dc8)" d="M 72 303.6 
L 518.4 303.6 
" style="fill:none;stroke:#ffffff;stroke-linecap:round;"/>
     </g>
     <g id="line2d_17"/>
     <g id="line2d_18"/>
     <g id="text_7">
      <!-- 8400 -->
      <g style="fill:#262626;" transform="translate(42.75625 306.1859375)scale(0.1 -0.1)">
       <use xlink:href="#LiberationSans-38"/>
       <use x="55.615234375" xlink:href="#LiberationSans-34"/>
       <use x="111.23046875" xlink:href="#LiberationSans-30"/>
       <use x="166.845703125" xlink:href="#LiberationSans-30"/>
      </g>
     </g>
    </g>
    <g id="ytick_3">
     <g id="line2d_19">
      <path clip-path="url(#pb3c1c63dc8)" d="M 72 250.8 
L 518.4 250.8 
" style="fill:none;stroke:#ffffff;stroke-linecap:round;"/>
     </g>
     <g id="line2d_20"/>
     <g id="line2d_21"/>
     <g id="text_8">
      <!-- 8450 -->
      <g style="fill:#262626;" transform="translate(42.75625 253.3859375)scale(0.1 -0.1)">
       <use xlink:href="#LiberationSans-38"/>
       <use x="55.615234375" xlink:href="#LiberationSans-34"/>
       <use x="111.23046875" xlink:href="#LiberationSans-35"/>
       <use x="166.845703125" xlink:href="#LiberationSans-30"/>
      </g>
     </g>
    </g>
    <g id="ytick_4">
     <g id="line2d_22">
      <path clip-path="url(#pb3c1c63dc8)" d="M 72 198 
L 518.4 198 
" style="fill:none;stroke:#ffffff;stroke-linecap:round;"/>
     </g>
     <g id="line2d_23"/>
     <g id="line2d_24"/>
     <g id="text_9">
      <!-- 8500 -->
      <g style="fill:#262626;" transform="translate(42.75625 200.5859375)scale(0.1 -0.1)">
       <use xlink:href="#LiberationSans-38"/>
       <use x="55.615234375" xlink:href="#LiberationSans-35"/>
       <use x="111.23046875" xlink:href="#LiberationSans-30"/>
       <use x="166.845703125" xlink:href="#LiberationSans-30"/>
      </g>
     </g>
    </g>
    <g id="ytick_5">
     <g id="line2d_25">
      <path clip-path="url(#pb3c1c63dc8)" d="M 72 145.2 
L 518.4 145.2 
" style="fill:none;stroke:#ffffff;stroke-linecap:round;"/>
     </g>
     <g id="line2d_26"/>
     <g id="line2d_27"/>
     <g id="text_10">
      <!-- 8550 -->
      <g style="fill:#262626;" transform="translate(42.75625 147.7859375)scale(0.1 -0.1)">
       <use xlink:href="#LiberationSans-38"/>
       <use x="55.615234375" xlink:href="#LiberationSans-35"/>
       <use x="111.23046875" xlink:href="#LiberationSans-35"/>
       <use x="166.845703125" xlink:href="#LiberationSans-30"/>
      </g>
     </g>
    </g>
    <g id="ytick_6">
     <g id="line2d_28">
      <path clip-path="url(#pb3c1c63dc8)" d="M 72 92.4 
L 518.4 92.4 
" style="fill:none;stroke:#ffffff;stroke-linecap:round;"/>
     </g>
     <g id="line2d_29"/>
     <g id="line2d_30"/>
     <g id="text_11">
      <!-- 8600 -->
      <g style="fill:#262626;" transform="translate(42.75625 94.9859375)scale(0.1 -0.1)">
       <use xlink:href="#LiberationSans-38"/>
       <use x="55.615234375" xlink:href="#LiberationSans-36"/>
       <use x="111.23046875" xlink:href="#LiberationSans-30"/>
       <use x="166.845703125" xlink:href="#LiberationSans-30"/>
      </g>
     </g>
    </g>
    <g id="ytick_7">
     <g id="line2d_31">
      <path clip-path="url(#pb3c1c63dc8)" d="M 72 39.6 
L 518.4 39.6 
" style="fill:none;stroke:#ffffff;stroke-linecap:round;"/>
     </g>
     <g id="line2d_32"/>
     <g id="line2d_33"/>
     <g id="text_12">
      <!-- 8650 -->
      <g style="fill:#262626;" transform="translate(42.75625 42.1859375)scale(0.1 -0.1)">
       <use xlink:href="#LiberationSans-38"/>
       <use x="55.615234375" xlink:href="#LiberationSans-36"/>
       <use x="111.23046875" xlink:href="#LiberationSans-35"/>
       <use x="166.845703125" xlink:href="#LiberationSans-30"/>
      </g>
     </g>
    </g>
   </g>
   <g id="line2d_34">
    <path clip-path="url(#pb3c1c63dc8)" d="M 72 169.701204 
L 72.223312 172.399707 
L 72.669935 168.698004 
L 72.893247 162.28417 
L 73.33987 164.982674 
L 73.563182 165.996434 
L 73.786493 165.996434 
L 74.009805 168.013394 
L 74.233117 165.996434 
L 74.456428 165.996434 
L 74.67974 169.701204 
L 74.903052 170.382747 
L 75.126363 169.701204 
L 75.572986 171.396507 
L 75.796298 172.399707 
L 76.01961 178.128931 
L 76.242921 168.013394 
L 76.466233 173.735124 
L 76.689545 171.033554 
L 76.912856 177.436827 
L 77.35948 172.036754 
L 77.582791 176.070674 
L 77.806103 175.752084 
L 78.029415 179.453787 
L 78.252726 177.769044 
L 78.476038 181.802964 
L 78.69935 190.552347 
L 78.922661 194.575707 
L 79.145973 184.823124 
L 79.369285 185.836884 
L 79.592596 183.819924 
L 79.815908 189.538587 
L 80.03922 192.237091 
L 80.262531 192.558747 
L 80.485843 185.836884 
L 80.709155 187.853844 
L 80.932466 187.853844 
L 81.155778 188.857044 
L 81.37909 190.874004 
L 81.602401 185.152274 
L 81.825713 187.853844 
L 82.049025 186.840084 
L 82.495648 181.44001 
L 82.718959 167.944425 
L 82.942271 163.558111 
L 83.165583 167.259815 
L 83.388894 167.259815 
L 83.612206 162.544351 
L 83.835518 163.558111 
L 84.058829 162.544351 
L 84.282141 166.256615 
L 84.505453 166.256615 
L 84.728764 160.859608 
L 84.952076 158.161104 
L 85.175388 159.845848 
L 85.398699 155.130384 
L 85.622011 153.113424 
L 85.845323 153.113424 
L 86.291946 154.808728 
L 86.515258 153.794968 
L 86.961881 155.811928 
L 87.185193 152.110224 
L 87.408504 151.425614 
L 87.631816 151.425614 
L 87.855128 154.127184 
L 88.078439 150.411854 
L 88.301751 142.645493 
L 88.525063 144.333303 
L 88.748374 142.645493 
L 89.418309 135.231525 
L 89.641621 136.234725 
L 89.864932 133.536222 
L 90.088244 145.347063 
L 90.311556 139.946989 
L 90.534867 140.628533 
L 90.758179 140.628533 
L 90.981491 144.011646 
L 91.204802 149.408654 
L 91.428114 147.71335 
L 91.651426 147.71335 
L 91.874737 146.028606 
L 92.098049 143.330103 
L 92.321361 146.028606 
L 92.544672 147.031806 
L 92.991296 150.411854 
L 93.214607 148.72711 
L 93.437919 152.428814 
L 93.661231 151.425614 
L 93.884542 148.72711 
L 94.107854 154.127184 
L 94.331166 150.411854 
L 94.554477 150.411854 
L 94.777789 152.428814 
L 95.001101 140.299383 
L 95.447724 146.028606 
L 95.671036 146.028606 
L 96.117659 139.614773 
L 96.34097 140.299383 
L 96.564282 144.011646 
L 96.787594 145.69639 
L 97.010905 141.994686 
L 97.234217 145.69639 
L 97.457529 144.69319 
L 97.68084 141.994686 
L 97.904152 142.997886 
L 98.127464 139.296183 
L 98.574087 145.69639 
L 98.797399 144.69319 
L 99.02071 138.64231 
L 99.244022 140.65927 
L 99.467334 137.960766 
L 99.690645 136.947006 
L 99.913957 137.960766 
L 100.137269 136.265463 
L 100.36058 136.947006 
L 100.807204 141.66247 
L 101.030515 147.062544 
L 101.253827 141.66247 
L 101.477139 144.360974 
L 101.70045 142.67623 
L 101.923762 139.977726 
L 102.147074 143.67943 
L 102.370385 144.69319 
L 102.593697 148.394894 
L 103.04032 146.377934 
L 103.263632 151.778008 
L 103.486943 150.093264 
L 103.933567 150.093264 
L 104.156878 143.67943 
L 104.38019 143.67943 
L 104.603502 144.69319 
L 104.826813 139.977726 
L 105.050125 143.67943 
L 105.273437 139.977726 
L 105.496748 139.977726 
L 106.166683 136.947006 
L 106.389995 137.960766 
L 106.613307 142.344014 
L 106.836618 144.360974 
L 107.05993 139.64551 
L 107.506553 139.64551 
L 107.729865 141.340814 
L 107.953177 140.337614 
L 108.176488 140.337614 
L 108.3998 135.62215 
L 108.623112 137.63911 
L 108.846423 133.926846 
L 109.069735 138.64231 
L 109.516358 135.943806 
L 109.962981 140.337614 
L 110.186293 141.340814 
L 110.409605 139.323854 
L 110.632916 142.025424 
L 110.856228 138.320654 
L 111.526163 141.340814 
L 111.749475 141.340814 
L 111.972786 142.344014 
L 112.41941 138.64231 
L 112.642721 141.340814 
L 112.866033 140.337614 
L 113.089345 137.63911 
L 113.312656 139.323854 
L 113.535968 148.103975 
L 113.75928 141.703768 
L 113.982591 143.720728 
L 114.205903 142.706968 
L 114.429215 144.402271 
L 114.652526 144.723928 
L 114.875838 143.720728 
L 115.09915 142.025424 
L 115.322461 200.496144 
L 115.545773 213.639335 
L 115.769085 207.910111 
L 115.992396 213.639335 
L 116.215708 215.977951 
L 116.43902 215.296408 
L 116.662331 215.296408 
L 117.108954 207.879374 
L 117.332266 204.16711 
L 117.555578 203.16391 
L 117.778889 205.862414 
L 118.002201 205.18087 
L 118.672136 197.403949 
L 119.118759 195.386989 
L 119.342071 197.082293 
L 119.565383 197.082293 
L 119.788694 202.482366 
L 120.012006 203.485566 
L 120.235318 201.468606 
L 120.458629 205.18087 
L 120.681941 203.485566 
L 120.905253 200.102453 
L 121.128564 200.102453 
L 121.351876 200.787063 
L 121.575188 202.482366 
L 121.798499 202.482366 
L 122.021811 200.787063 
L 122.245123 196.068533 
L 122.468434 199.783863 
L 122.691746 199.783863 
L 122.915058 198.085493 
L 123.138369 200.787063 
L 123.361681 200.787063 
L 123.584992 198.085493 
L 124.031616 200.102453 
L 124.254927 197.403949 
L 124.478239 202.804023 
L 124.701551 205.502526 
L 124.924862 198.085493 
L 125.148174 200.787063 
L 125.371486 207.19783 
L 125.594797 206.18407 
L 126.041421 210.580944 
L 126.264732 209.896334 
L 126.488044 215.296408 
L 126.711356 214.614864 
L 126.934667 214.614864 
L 127.381291 223.364248 
L 127.604602 215.947214 
L 127.827914 216.631824 
L 128.274537 209.21479 
L 128.497849 205.502526 
L 128.721161 209.21479 
L 128.944472 204.499326 
L 129.167784 211.913294 
L 129.391096 209.896334 
L 129.614407 209.896334 
L 129.837719 214.614864 
L 130.061031 213.601104 
L 130.507654 215.618064 
L 130.730965 218.316568 
L 131.177589 212.916494 
L 131.4009 214.933454 
L 131.847524 214.933454 
L 132.070835 221.987534 
L 132.294147 222.672144 
L 132.517459 219.970574 
L 132.74077 218.967374 
L 132.964082 219.970574 
L 133.187394 211.553406 
L 133.857329 215.947214 
L 134.08064 216.950414 
L 134.527264 216.950414 
L 134.750575 215.947214 
L 134.973887 218.648784 
L 135.197199 218.648784 
L 135.42051 215.947214 
L 135.643822 215.947214 
L 135.867134 214.25191 
L 136.090445 214.25191 
L 136.313757 215.947214 
L 136.537069 214.933454 
L 136.76038 216.950414 
L 137.207004 214.933454 
L 137.430315 217.635024 
L 137.653627 218.648784 
L 137.876938 217.964174 
L 138.10025 215.947214 
L 138.323562 215.947214 
L 138.770185 212.567166 
L 138.993497 209.536446 
L 139.216808 213.24871 
L 139.44012 214.25191 
L 140.110055 205.834743 
L 140.333367 209.21479 
L 140.556678 209.21479 
L 140.77999 204.499326 
L 141.226613 209.21479 
L 141.673237 206.516286 
L 142.11986 206.516286 
L 142.343172 207.519486 
L 142.566483 206.516286 
L 143.236418 209.21479 
L 143.683042 204.499326 
L 144.129665 211.913294 
L 144.352976 211.913294 
L 144.576288 218.998111 
L 144.7996 220.011871 
L 145.022911 214.614864 
L 145.469535 216.299608 
L 145.692846 212.597904 
L 145.916158 215.296408 
L 146.362781 209.567184 
L 146.586093 214.282648 
L 146.809405 215.977951 
L 147.032716 210.580944 
L 147.47934 210.580944 
L 147.702651 211.584144 
L 147.925963 210.580944 
L 148.149275 210.580944 
L 148.372586 213.279448 
L 148.595898 214.282648 
L 148.81921 218.998111 
L 149.042521 212.597904 
L 149.265833 212.597904 
L 149.935768 203.485566 
L 150.15908 199.783863 
L 150.382391 203.485566 
L 150.605703 200.787063 
L 151.052326 206.18407 
L 151.275638 202.482366 
L 151.498949 205.18087 
L 151.722261 200.465406 
L 151.945573 201.14695 
L 152.168884 196.431486 
L 152.392196 194.746743 
L 152.838819 198.448446 
L 153.062131 198.448446 
L 153.285443 197.445246 
L 153.508754 191.353069 
L 153.732066 195.065333 
L 153.955378 196.068533 
L 154.178689 198.770103 
L 154.402001 198.770103 
L 154.625313 200.465406 
L 154.848624 199.783863 
L 155.071936 202.482366 
L 155.518559 196.068533 
L 155.965183 201.468606 
L 156.188494 197.766903 
L 156.411806 196.068533 
L 156.635118 196.068533 
L 156.858429 199.783863 
L 157.081741 196.068533 
L 157.528364 200.787063 
L 157.751676 200.102453 
L 158.421611 206.153333 
L 158.644922 202.119413 
L 158.868234 201.437869 
L 159.091546 201.437869 
L 159.314857 198.417709 
L 159.538169 201.116213 
L 159.761481 198.739365 
L 159.984792 203.133173 
L 160.208104 196.722405 
L 160.431416 199.420909 
L 160.654727 199.420909 
L 160.878039 203.133173 
L 161.547974 197.736165 
L 161.771286 203.454829 
L 161.994597 203.454829 
L 162.217909 199.753125 
L 162.441221 201.770085 
L 162.664532 200.074782 
L 162.887844 201.770085 
L 163.111156 200.756325 
L 163.334467 201.770085 
L 163.557779 201.770085 
L 163.781091 209.868663 
L 164.004402 209.173493 
L 164.227714 211.190453 
L 164.451026 207.488749 
L 164.674337 209.505709 
L 164.897649 212.888823 
L 165.12096 206.153333 
L 165.344272 208.854903 
L 165.567584 206.153333 
L 165.790895 105.117423 
L 166.014207 116.554751 
L 166.237519 138.833523 
L 166.46083 134.768866 
L 166.684142 124.985544 
L 166.907454 127.351832 
L 167.130765 126.348632 
L 167.354077 124.653328 
L 167.577389 124.653328 
L 167.8007 129.701008 
L 168.024012 129.701008 
L 168.247324 132.399512 
L 168.470635 130.382552 
L 168.693947 123.971784 
L 168.917259 123.971784 
L 169.14057 121.273281 
L 169.810505 133.734928 
L 170.033817 126.320961 
L 170.257129 128.337921 
L 170.927064 113.50692 
L 171.150375 109.791589 
L 171.373687 108.106846 
L 171.82031 114.51012 
L 172.043622 112.49316 
L 172.490245 94.611261 
L 172.713557 94.611261 
L 172.936868 97.309765 
L 173.16018 87.875771 
L 173.383492 93.275845 
L 173.606803 90.577341 
L 173.830115 114.870007 
L 174.053427 112.853047 
L 174.276738 112.171503 
L 174.50005 124.653328 
L 174.723362 120.270081 
L 174.946673 122.968584 
L 175.169985 120.951624 
L 175.393297 116.236161 
L 175.616608 120.951624 
L 175.83992 118.253121 
L 176.063232 119.256321 
L 176.286543 121.954824 
L 176.509855 117.239361 
L 176.733167 120.951624 
L 176.956478 119.937864 
L 177.17979 123.650128 
L 177.403102 121.954824 
L 177.626413 127.351832 
L 178.073037 133.765666 
L 178.966283 122.287041 
L 179.189595 126.670288 
L 179.636218 122.287041 
L 179.85953 115.873207 
L 180.082841 119.256321 
L 180.306153 118.253121 
L 180.752776 122.968584 
L 181.1994 117.568511 
L 181.422711 123.290241 
L 181.646023 122.287041 
L 181.869335 124.985544 
L 182.092646 125.988744 
L 182.315958 127.684048 
L 182.53927 124.985544 
L 182.762581 129.368792 
L 182.985893 131.385752 
L 183.209205 124.985544 
L 183.655828 131.385752 
L 183.87914 125.988744 
L 184.102451 129.701008 
L 184.325763 123.290241 
L 184.549075 122.287041 
L 184.772386 123.290241 
L 184.995698 121.273281 
L 185.21901 122.287041 
L 185.442321 122.287041 
L 185.665633 121.273281 
L 186.112256 115.873207 
L 186.335568 120.270081 
L 186.558879 117.568511 
L 186.782191 116.554751 
L 187.005503 114.870007 
L 187.228814 109.140783 
L 187.452126 107.45604 
L 187.675438 107.45604 
L 187.898749 110.154543 
L 188.122061 108.45924 
L 188.345373 105.757669 
L 188.568684 105.757669 
L 189.015308 112.171503 
L 189.238619 104.754469 
L 189.461931 104.754469 
L 189.685243 114.870007 
L 189.908554 114.870007 
L 190.131866 115.873207 
L 190.355178 113.174703 
L 190.578489 115.873207 
L 191.025113 110.4762 
L 191.248424 109.473 
L 191.471736 112.171503 
L 191.695048 108.45924 
L 191.918359 111.157743 
L 192.364982 111.157743 
L 192.588294 107.45604 
L 192.811606 109.473 
L 193.034917 109.473 
L 193.258229 110.4762 
L 193.481541 109.473 
L 193.704852 114.870007 
L 193.928164 112.171503 
L 194.151476 112.171503 
L 194.374787 111.157743 
L 194.598099 112.171503 
L 194.821411 108.45924 
L 195.044722 106.771429 
L 195.268034 110.4762 
L 195.714657 103.059166 
L 196.161281 113.50692 
L 196.384592 116.205423 
L 196.607904 112.822309 
L 196.831216 112.822309 
L 197.054527 114.839269 
L 197.277839 113.825509 
L 197.501151 114.839269 
L 197.724462 113.825509 
L 197.947774 114.839269 
L 198.171086 113.825509 
L 198.394397 112.140766 
L 198.617709 113.143966 
L 198.841021 113.465622 
L 199.064332 115.160926 
L 199.287644 111.448662 
L 199.510955 112.140766 
L 200.18089 123.259503 
L 200.404202 118.54404 
L 200.850825 123.259503 
L 201.074137 122.57796 
L 201.297449 125.59812 
L 201.52076 121.5642 
L 201.744072 127.974967 
L 202.190695 127.974967 
L 202.414007 125.276463 
L 202.637319 124.262703 
L 202.86063 125.958007 
L 203.083942 131.358081 
L 203.307254 128.656511 
L 203.530565 132.361281 
L 203.753877 132.361281 
L 203.977189 133.693631 
L 204.2005 129.991927 
L 204.423812 133.693631 
L 204.647124 134.707391 
L 204.870435 130.995127 
L 205.093747 134.707391 
L 205.54037 132.690431 
L 205.763682 132.690431 
L 205.986993 134.707391 
L 206.210305 135.710591 
L 206.433617 137.727551 
L 206.656928 136.724351 
L 206.88024 142.124424 
L 207.326863 138.412161 
L 207.996798 126.279663 
L 208.22011 127.293423 
L 208.443422 125.59812 
L 208.666733 122.896549 
L 208.890045 125.59812 
L 209.113357 116.496342 
L 209.336668 117.499542 
L 209.55998 121.893349 
L 209.783292 119.194846 
L 210.006603 118.181086 
L 210.453227 118.181086 
L 210.676538 124.59492 
L 210.89985 126.61188 
L 211.123162 123.910309 
L 211.346473 126.61188 
L 211.793097 122.896549 
L 212.016408 125.59812 
L 212.23972 125.59812 
L 212.463032 128.296623 
L 212.686343 123.910309 
L 213.132966 134.347503 
L 213.57959 128.947429 
L 213.802901 134.66916 
L 214.026213 127.584342 
L 214.249525 129.269086 
L 214.472836 148.164744 
L 214.696148 146.480001 
L 214.91946 142.764671 
L 215.142771 146.480001 
L 215.366083 147.483201 
L 215.589395 150.513921 
L 215.812706 146.480001 
L 216.036018 149.178504 
L 216.25933 142.805968 
L 216.482641 141.110664 
L 216.929265 133.344303 
L 217.152576 132.330543 
L 217.375888 132.330543 
L 217.822511 140.107464 
L 218.045823 148.206042 
L 218.269135 140.107464 
L 218.492446 125.59812 
L 218.715758 133.012087 
L 219.162381 139.744511 
L 219.385693 150.863248 
L 219.832316 145.144584 
L 220.055628 145.144584 
L 220.278939 144.463041 
L 220.502251 129.961189 
L 220.725563 144.463041 
L 220.948874 139.062967 
L 221.172186 147.483201 
L 221.618809 147.483201 
L 221.842121 150.181704 
L 222.065433 142.764671 
L 222.288744 144.463041 
L 222.512056 144.463041 
L 222.735368 149.178504 
L 222.958679 149.178504 
L 223.405303 146.480001 
L 223.628614 150.181704 
L 223.851926 148.164744 
L 224.075238 148.164744 
L 224.298549 146.480001 
L 224.521861 146.158344 
L 224.745173 145.466241 
L 224.968484 148.164744 
L 225.191796 146.480001 
L 225.415108 148.164744 
L 225.638419 143.459841 
L 225.861731 147.161544 
L 226.085043 143.459841 
L 226.308354 143.459841 
L 226.531666 136.042807 
L 226.754977 135.361263 
L 226.978289 137.046007 
L 227.201601 131.649 
L 227.424912 136.042807 
L 227.648224 131.327343 
L 227.871536 130.313583 
L 228.094847 131.327343 
L 228.318159 130.313583 
L 228.541471 130.313583 
L 228.764782 131.327343 
L 228.988094 136.724351 
L 229.211406 132.330543 
L 229.434717 131.327343 
L 229.658029 132.008887 
L 230.104652 134.707391 
L 230.327964 130.313583 
L 230.551276 132.008887 
L 230.774587 137.727551 
L 230.997899 135.029047 
L 231.221211 137.727551 
L 231.444522 136.724351 
L 232.114457 136.724351 
L 232.337769 135.710591 
L 232.561081 134.025847 
L 233.231016 144.463041 
L 233.677639 137.046007 
L 233.90095 140.758271 
L 234.124262 138.059767 
L 234.347574 139.062967 
L 234.570885 140.758271 
L 234.794197 138.059767 
L 235.017509 140.758271 
L 235.24082 140.758271 
L 235.464132 137.046007 
L 235.687444 137.046007 
L 235.910755 139.744511 
L 236.134067 138.059767 
L 236.357379 134.347503 
L 236.58069 136.042807 
L 236.804002 132.330543 
L 237.027314 133.344303 
L 237.250625 133.344303 
L 237.473937 132.330543 
L 238.143872 134.347503 
L 238.367184 134.347503 
L 238.590495 133.344303 
L 238.813807 136.042807 
L 239.037119 134.347503 
L 239.26043 137.046007 
L 239.483742 137.046007 
L 239.707054 134.347503 
L 239.930365 133.344303 
L 240.153677 134.347503 
L 240.376988 137.367663 
L 240.6003 134.998309 
L 240.823612 136.68612 
L 241.046923 140.398383 
L 241.270235 136.68612 
L 241.493547 138.381423 
L 241.716858 138.381423 
L 242.163482 132.66276 
L 242.386793 134.66916 
L 242.610105 134.66916 
L 242.833417 132.981349 
L 243.056728 136.68612 
L 243.28004 134.66916 
L 243.503352 138.381423 
L 243.726663 134.66916 
L 243.949975 136.364463 
L 244.173287 136.364463 
L 244.396598 135.68292 
L 244.843222 135.68292 
L 245.066533 138.381423 
L 245.289845 137.367663 
L 245.513157 138.381423 
L 245.95978 135.68292 
L 246.183092 135.68292 
L 246.406403 134.347503 
L 246.629715 131.649 
L 246.853027 135.361263 
L 247.076338 132.66276 
L 247.29965 131.649 
L 247.522961 127.944229 
L 247.746273 131.649 
L 247.969585 132.66276 
L 248.416208 140.066167 
L 248.63952 135.68292 
L 249.086143 137.367663 
L 249.309455 139.384623 
L 249.756078 134.998309 
L 249.97939 133.984549 
L 250.202701 133.984549 
L 250.426013 133.303006 
L 250.649325 133.303006 
L 250.872636 134.316766 
L 251.095948 136.333726 
L 251.31926 140.367646 
L 251.542571 133.635222 
L 251.765883 132.621462 
L 251.989195 133.635222 
L 252.212506 132.621462 
L 252.435818 129.919892 
L 252.65913 123.519685 
L 252.882441 126.218188 
L 253.105753 124.522885 
L 253.329065 121.824381 
L 253.775688 119.807421 
L 254.222311 125.204428 
L 254.668934 125.204428 
L 254.892246 126.218188 
L 255.115558 122.505925 
L 255.785493 122.505925 
L 256.455428 129.919892 
L 256.678739 126.218188 
L 256.902051 131.618262 
L 257.125363 124.201228 
L 257.348674 122.865812 
L 257.571986 123.869012 
L 257.795298 123.869012 
L 258.241921 120.167308 
L 258.465233 122.184268 
L 258.688544 116.465605 
L 258.911856 113.767101 
L 259.358479 120.167308 
L 259.581791 121.170508 
L 260.028414 121.170508 
L 260.251726 123.869012 
L 260.475038 122.865812 
L 260.698349 128.265886 
L 260.921661 126.570582 
L 261.368284 131.967589 
L 261.591596 130.282846 
L 261.814907 126.570582 
L 262.038219 129.269086 
L 262.261531 126.570582 
L 262.484842 132.981349 
L 262.708154 132.981349 
L 262.931466 131.286046 
L 263.154777 126.570582 
L 263.378089 126.570582 
L 263.601401 124.882772 
L 263.824712 126.570582 
L 264.048024 130.282846 
L 264.271336 126.570582 
L 264.717959 133.984549 
L 264.941271 136.68612 
L 265.164582 128.587542 
L 265.387894 132.981349 
L 265.834517 129.269086 
L 266.057829 125.885972 
L 266.504452 122.505925 
L 266.727764 341.886248 
L 266.951076 317.724025 
L 267.174387 319.710248 
L 267.397699 309.988402 
L 267.621011 294.835744 
L 267.844322 301.920562 
L 268.067634 298.537448 
L 268.290945 306.957682 
L 268.514257 301.557608 
L 268.737569 300.235818 
L 268.96088 300.235818 
L 269.184192 305.272938 
L 269.630815 291.445137 
L 269.854127 279.963445 
L 270.077439 287.380479 
L 270.30075 288.715896 
L 270.747374 281.980405 
L 271.193997 300.526737 
L 271.417309 298.146823 
L 271.64062 299.512977 
L 271.863932 295.126663 
L 272.087244 298.146823 
L 272.310555 296.462079 
L 272.533867 297.465279 
L 272.98049 293.763576 
L 273.203802 289.366702 
L 273.427114 267.090996 
L 273.650425 275.508163 
L 273.873737 269.107956 
L 274.097049 267.090996 
L 274.32036 274.826619 
L 274.543672 276.843579 
L 274.766983 277.525123 
L 274.990295 278.860539 
L 275.213607 275.158836 
L 275.436918 275.158836 
L 275.66023 273.141876 
L 275.883542 269.426546 
L 276.106853 271.124916 
L 276.776788 281.891259 
L 277.0001 283.545266 
L 277.223412 286.246836 
L 277.446723 287.250036 
L 277.670035 294.664003 
L 277.893347 289.266996 
L 278.116658 293.660803 
L 278.33997 292.647043 
L 278.563282 287.931579 
L 278.786593 292.647043 
L 279.009905 284.229876 
L 279.233217 281.528306 
L 279.456528 282.531506 
L 280.126463 274.114338 
L 280.349775 274.435995 
L 280.796398 274.435995 
L 281.466333 267.351177 
L 281.689645 268.032721 
L 281.912956 263.998801 
L 282.136268 267.700505 
L 282.35958 267.700505 
L 282.582891 263.998801 
L 282.806203 272.097378 
L 283.029515 275.117538 
L 283.252826 271.415835 
L 283.476138 271.094178 
L 283.69945 267.060258 
L 283.922761 268.395675 
L 284.146073 266.697305 
L 284.369385 268.395675 
L 284.592696 268.395675 
L 284.816008 272.097378 
L 285.03932 267.381915 
L 285.262631 268.395675 
L 285.485943 264.680345 
L 285.709255 265.694105 
L 285.932566 262.995601 
L 286.155878 262.995601 
L 286.37919 260.297097 
L 286.602501 267.700505 
L 286.825813 263.998801 
L 287.049125 262.995601 
L 287.272436 267.700505 
L 287.495748 262.995601 
L 287.71906 263.998801 
L 287.942371 260.978641 
L 288.165683 259.964881 
L 288.388994 259.964881 
L 288.612306 258.280137 
L 288.835618 252.880063 
L 289.282241 252.880063 
L 289.505553 248.1646 
L 289.728864 253.564674 
L 289.952176 256.263177 
L 290.175488 252.880063 
L 290.398799 253.883263 
L 290.622111 245.787752 
L 291.068734 255.581634 
L 291.292046 254.567874 
L 291.515358 258.280137 
L 292.185293 262.663385 
L 292.631916 259.283337 
L 292.855228 263.677145 
L 293.078539 262.663385 
L 293.301851 259.964881 
L 293.525163 260.978641 
L 293.748474 255.581634 
L 293.971786 258.280137 
L 294.195098 259.283337 
L 294.418409 256.584834 
L 294.641721 256.584834 
L 294.865033 255.581634 
L 295.088344 251.866303 
L 295.311656 250.18156 
L 295.534967 250.863103 
L 295.758279 242.435376 
L 295.981591 242.11372 
L 296.204902 245.815423 
L 296.874837 224.262559 
L 297.098149 234.015142 
L 297.321461 234.699752 
L 297.544772 233.001382 
L 297.768084 237.719912 
L 297.991396 231.998182 
L 298.214707 230.984422 
L 298.438019 229.299679 
L 298.661331 229.299679 
L 298.884642 233.333599 
L 299.331266 228.618135 
L 299.554577 223.218061 
L 299.777889 224.905871 
L 300.001201 217.488837 
L 300.224512 223.902671 
L 300.447824 216.485637 
L 300.671136 216.485637 
L 301.117759 218.180941 
L 301.341071 215.482437 
L 301.564382 215.482437 
L 301.787694 214.790334 
L 302.011006 212.088764 
L 302.234317 212.088764 
L 302.457629 216.807294 
L 302.68094 216.807294 
L 302.904252 209.39026 
L 303.350875 204.685356 
L 303.574187 196.254562 
L 303.797499 207.051644 
L 304.02081 210.082364 
L 304.244122 207.38386 
L 304.690745 212.783934 
L 304.914057 209.068604 
L 305.137369 211.770174 
L 305.36068 220.882511 
L 305.583992 219.868751 
L 305.807304 218.180941 
L 306.030615 222.204301 
L 306.253927 219.505797 
L 306.477239 218.502597 
L 306.70055 215.482437 
L 306.923862 217.488837 
L 307.147174 215.482437 
L 307.593797 217.488837 
L 307.817109 216.485637 
L 308.04042 222.888911 
L 308.487044 216.485637 
L 308.710355 217.488837 
L 309.156978 212.451717 
L 309.38029 212.451717 
L 309.603602 207.051644 
L 309.826913 206.048444 
L 310.050225 207.051644 
L 310.273537 207.051644 
L 310.496848 204.35314 
L 310.72016 208.065404 
L 311.166783 204.35314 
L 311.613407 206.3701 
L 311.836718 212.783934 
L 312.06003 213.787134 
L 312.283342 216.485637 
L 312.506653 214.790334 
L 312.953277 208.38706 
L 313.176588 211.085564 
L 313.3999 207.38386 
L 313.623212 210.082364 
L 313.846523 204.685356 
L 314.069835 207.38386 
L 314.293147 208.38706 
L 314.516458 204.685356 
L 314.963082 204.685356 
L 315.186393 203.671596 
L 315.409705 212.783934 
L 315.633017 211.085564 
L 315.856328 208.38706 
L 316.07964 209.39026 
L 316.526263 209.39026 
L 316.749575 208.38706 
L 316.972886 211.085564 
L 317.196198 210.082364 
L 317.41951 176.999016 
L 317.642821 176.999016 
L 317.866133 170.598809 
L 318.089445 170.235855 
L 318.312756 167.215695 
L 318.536068 168.218895 
L 318.75938 170.598809 
L 319.206003 156.096958 
L 319.429315 171.602009 
L 319.652626 171.602009 
L 319.875938 166.201935 
L 320.09925 171.602009 
L 320.322561 165.198735 
L 320.545873 171.931159 
L 320.992496 173.618969 
L 321.215808 188.809858 
L 321.43912 182.39909 
L 321.662431 185.097594 
L 321.885743 181.71448 
L 322.109055 182.72824 
L 322.332366 180.029736 
L 322.555678 180.029736 
L 322.778989 176.317473 
L 323.002301 180.029736 
L 323.225613 177.331233 
L 323.448924 178.012776 
L 323.672236 181.71448 
L 323.895548 181.39589 
L 324.118859 182.39909 
L 324.342171 176.999016 
L 324.565483 177.69112 
L 324.788794 179.69752 
L 325.012106 179.69752 
L 325.235418 179.37893 
L 325.905353 170.598809 
L 326.128664 174.300513 
L 326.351976 172.615769 
L 327.021911 164.195535 
L 327.245223 162.500232 
L 327.468534 166.201935 
L 327.691846 163.503432 
L 327.915158 162.500232 
L 328.138469 165.198735 
L 328.361781 166.201935 
L 328.585093 159.480072 
L 328.808404 165.880279 
L 329.031716 162.178575 
L 329.255028 165.561689 
L 329.478339 162.178575 
L 329.701651 167.578649 
L 329.924962 163.863319 
L 330.148274 163.863319 
L 330.594897 159.147855 
L 330.818209 157.130895 
L 331.041521 146.693702 
L 331.488144 152.415432 
L 331.934767 148.029118 
L 332.158079 150.727622 
L 332.381391 156.127695 
L 332.604702 151.412232 
L 333.051326 156.127695 
L 333.274637 153.429192 
L 333.497949 154.432392 
L 333.721261 149.032318 
L 333.944572 150.046078 
L 334.391196 156.449352 
L 334.837819 154.761542 
L 335.284442 147.347574 
L 335.507754 140.252197 
L 335.731066 128.451916 
L 335.954377 138.567453 
L 336.177689 138.567453 
L 336.401001 133.167379 
L 336.624312 136.872149 
L 336.847624 134.855189 
L 337.070935 135.868949 
L 337.294247 135.868949 
L 337.517559 132.153619 
L 337.74087 139.570653 
L 338.187494 136.872149 
L 338.410805 133.167379 
L 338.634117 134.170579 
L 338.857429 127.770372 
L 339.08074 128.773572 
L 339.304052 129.105788 
L 339.527364 131.804292 
L 339.750675 127.088828 
L 339.973987 129.787332 
L 340.197299 129.105788 
L 340.42061 123.705714 
L 340.643922 126.404218 
L 340.867234 123.705714 
L 341.090545 124.387258 
L 341.313857 126.404218 
L 341.537169 122.691954 
L 341.76048 121.007211 
L 341.983792 123.705714 
L 342.207104 124.708914 
L 342.430415 122.691954 
L 342.653727 122.691954 
L 342.877039 121.688754 
L 343.10035 121.688754 
L 343.323662 120.674994 
L 343.546973 121.688754 
L 343.993597 115.277987 
L 344.44022 119.993451 
L 344.886843 119.993451 
L 345.110155 122.010411 
L 345.333467 121.007211 
L 345.556778 121.007211 
L 346.003402 118.990251 
L 346.226713 122.691954 
L 346.450025 122.691954 
L 346.673337 124.387258 
L 346.896648 118.990251 
L 347.11996 118.990251 
L 347.343272 117.294947 
L 347.566583 123.373498 
L 347.789895 122.691954 
L 348.013207 123.373498 
L 348.236518 120.674994 
L 348.45983 121.688754 
L 348.683142 129.787332 
L 348.906453 129.787332 
L 349.129765 128.773572 
L 349.353077 128.773572 
L 349.576388 126.075068 
L 350.023012 124.058108 
L 350.469635 124.058108 
L 350.692946 119.671794 
L 350.916258 127.770372 
L 351.13957 125.071868 
L 351.362881 127.770372 
L 351.586193 123.054908 
L 351.809505 124.739652 
L 352.032816 124.739652 
L 352.47944 119.020988 
L 352.702751 118.336378 
L 352.926063 122.041148 
L 353.149375 122.722692 
L 353.372686 122.041148 
L 353.81931 122.041148 
L 354.042621 123.054908 
L 354.265933 118.658034 
L 354.489245 118.658034 
L 355.15918 124.058108 
L 355.605803 133.851989 
L 355.829115 125.753412 
L 356.052426 124.739652 
L 356.275738 124.739652 
L 356.49905 122.722692 
L 356.722361 126.434956 
L 356.945673 128.119699 
L 357.392296 135.536733 
L 357.615608 136.550493 
L 357.838919 139.248997 
L 358.062231 139.248997 
L 358.285543 140.615151 
L 358.508854 143.313654 
L 358.732166 135.89662 
L 358.955478 133.561071 
L 359.178789 122.462511 
L 359.402101 130.208694 
L 359.625413 124.479471 
L 359.848724 129.527151 
L 360.295348 125.493231 
L 360.518659 127.510191 
L 360.741971 127.510191 
L 360.965283 121.459311 
L 361.188594 122.140854 
L 361.411906 119.442351 
L 361.635218 121.459311 
L 361.858529 121.137654 
L 362.081841 119.120694 
L 362.305153 119.442351 
L 362.528464 117.75454 
L 362.751776 121.459311 
L 362.975088 114.72382 
L 363.198399 117.425391 
L 363.645023 108.354351 
L 363.868334 111.374511 
L 364.091646 110.371311 
L 364.314957 117.785278 
L 364.761581 110.371311 
L 365.208204 119.120694 
L 365.431516 114.405231 
L 365.654827 115.408431 
L 365.878139 118.106934 
L 366.101451 115.408431 
L 366.324762 115.408431 
L 366.548074 118.439151 
L 366.771386 117.425391 
L 366.994697 118.439151 
L 367.218009 116.422191 
L 367.441321 116.422191 
L 367.664632 167.578649 
L 367.887944 159.798662 
L 368.111256 160.483272 
L 368.334567 162.500232 
L 368.557879 175.995816 
L 368.781191 175.995816 
L 369.227814 182.39909 
L 369.451126 176.999016 
L 369.674437 176.999016 
L 370.344372 173.978856 
L 370.567684 169.595609 
L 370.790995 160.483272 
L 371.014307 163.181775 
L 371.46093 152.744582 
L 371.907554 154.761542 
L 372.130865 148.350774 
L 372.577489 143.96446 
L 372.8008 143.96446 
L 373.024112 154.079998 
L 373.247424 154.761542 
L 373.470735 145.652271 
L 373.694047 151.049278 
L 373.917359 150.046078 
L 374.14067 150.046078 
L 374.363982 153.747782 
L 374.810605 157.130895 
L 375.033917 155.113935 
L 375.257229 157.130895 
L 375.48054 165.229473 
L 375.703852 161.527769 
L 375.927164 160.843159 
L 376.150475 161.846359 
L 376.373787 161.846359 
L 376.597099 164.547929 
L 376.82041 159.147855 
L 377.043722 161.846359 
L 377.267034 168.260193 
L 377.936968 158.144655 
L 378.16028 160.843159 
L 378.383592 157.130895 
L 378.606903 157.463112 
L 378.830215 159.147855 
L 379.053527 155.446152 
L 379.276838 155.446152 
L 379.50015 160.843159 
L 379.723462 161.846359 
L 379.946773 161.846359 
L 380.170085 159.147855 
L 380.393397 161.846359 
L 380.84002 161.846359 
L 381.063332 159.829399 
L 381.286643 153.429192 
L 381.733267 161.527769 
L 381.956578 157.812439 
L 382.17989 158.826199 
L 382.403202 161.527769 
L 382.626513 158.826199 
L 382.849825 157.812439 
L 383.073137 158.826199 
L 383.296448 162.530969 
L 383.51976 158.144655 
L 383.743072 158.144655 
L 383.966383 159.147855 
L 384.189695 157.463112 
L 384.413007 159.147855 
L 384.636318 164.547929 
L 384.85963 160.161615 
L 385.082941 162.860119 
L 385.306253 155.446152 
L 385.529565 152.744582 
L 385.752876 153.747782 
L 385.976188 151.730822 
L 386.1995 152.744582 
L 386.422811 152.744582 
L 386.646123 155.446152 
L 386.869435 151.049278 
L 387.092746 152.744582 
L 387.316058 155.446152 
L 387.53937 153.747782 
L 387.762681 154.761542 
L 387.985993 154.761542 
L 388.432616 159.147855 
L 388.87924 159.147855 
L 389.102551 156.449352 
L 389.325863 155.764742 
L 389.549175 160.483272 
L 389.772486 160.483272 
L 389.995798 159.480072 
L 390.21911 159.480072 
L 390.442421 156.778502 
L 390.665733 158.466312 
L 390.889045 158.466312 
L 391.112356 155.764742 
L 391.335668 155.764742 
L 391.558979 157.463112 
L 391.782291 160.161615 
L 392.452226 160.161615 
L 392.675538 157.463112 
L 392.898849 159.147855 
L 393.122161 152.744582 
L 393.568784 159.147855 
L 393.792096 158.144655 
L 394.015408 159.147855 
L 394.238719 155.446152 
L 394.462031 155.446152 
L 394.685343 159.147855 
L 394.908654 159.147855 
L 395.131966 161.846359 
L 395.355278 159.147855 
L 395.801901 159.147855 
L 396.025213 156.449352 
L 396.248524 159.147855 
L 396.471836 156.449352 
L 396.695148 162.860119 
L 396.918459 162.860119 
L 397.141771 160.161615 
L 397.365083 160.161615 
L 397.588394 159.147855 
L 397.811706 152.744582 
L 398.258329 150.727622 
L 398.481641 152.744582 
L 398.704952 152.744582 
L 398.928264 157.130895 
L 399.151576 154.432392 
L 399.821511 154.432392 
L 400.044822 152.744582 
L 400.268134 156.449352 
L 400.491446 157.463112 
L 400.714757 149.364534 
L 400.938069 151.049278 
L 401.608004 163.863319 
L 401.831316 165.880279 
L 402.054627 164.877079 
L 402.277939 170.598809 
L 402.501251 164.195535 
L 402.724562 168.581849 
L 402.947874 163.181775 
L 403.171186 160.483272 
L 403.394497 160.483272 
L 403.841121 157.781702 
L 404.064432 156.778502 
L 404.287744 156.778502 
L 404.511056 152.384694 
L 404.734367 143.282917 
L 404.957679 143.282917 
L 405.18099 137.885909 
L 405.404302 145.98142 
L 405.627614 141.265957 
L 405.850925 139.570653 
L 406.52086 127.770372 
L 406.744172 130.468876 
L 406.967484 127.770372 
L 407.190795 128.773572 
L 407.414107 134.170579 
L 407.637419 128.773572 
L 408.084042 135.184339 
L 408.307354 131.472076 
L 408.530665 131.472076 
L 408.753977 136.872149 
L 408.977289 136.872149 
L 409.2006 134.170579 
L 409.423912 135.868949 
L 409.647224 133.167379 
L 409.870535 132.153619 
L 410.093847 134.855189 
L 410.317159 133.167379 
L 410.54047 135.868949 
L 410.763782 134.170579 
L 410.987094 129.455116 
L 411.210405 127.770372 
L 411.433717 130.468876 
L 411.657029 125.071868 
L 411.88034 124.739652 
L 412.103652 119.339578 
L 412.326963 116.641074 
L 412.773587 125.753412 
L 412.996898 127.770372 
L 413.443522 135.184339 
L 413.666833 133.167379 
L 413.890145 134.855189 
L 414.113457 130.468876 
L 414.336768 130.468876 
L 414.56008 127.770372 
L 414.783392 135.868949 
L 415.006703 130.468876 
L 415.230015 130.468876 
L 415.453327 134.170579 
L 415.676638 130.468876 
L 415.89995 130.468876 
L 416.123262 126.756612 
L 416.346573 131.472076 
L 416.569885 125.071868 
L 416.793197 125.071868 
L 417.016508 118.658034 
L 417.23982 122.370298 
L 417.463132 114.956331 
L 417.686443 118.658034 
L 417.909755 117.654834 
L 418.133067 145.98142 
L 418.356378 145.98142 
L 418.57969 137.885909 
L 418.803002 147.669231 
L 419.249625 156.096958 
L 419.472936 147.306277 
L 419.696248 151.703151 
L 419.91956 147.99838 
L 420.142871 149.686191 
L 420.366183 155.083198 
L 420.589495 154.079998 
L 421.25943 145.98142 
L 421.482741 144.96766 
L 421.706053 147.669231 
L 421.929365 143.282917 
L 422.152676 141.265957 
L 422.375988 134.855189 
L 422.5993 134.855189 
L 422.822611 135.868949 
L 423.045923 131.150419 
L 423.269235 139.248997 
L 423.492546 142.9507 
L 423.715858 137.553693 
L 423.93917 145.652271 
L 424.162481 141.265957 
L 424.609105 146.666031 
L 424.832416 152.063038 
L 425.055728 146.666031 
L 425.27904 146.666031 
L 425.502351 143.96446 
L 425.725663 143.96446 
L 426.172286 150.367734 
L 426.618909 144.96766 
L 426.842221 150.367734 
L 427.065533 147.669231 
L 427.288844 147.669231 
L 427.512156 143.96446 
L 427.735468 147.669231 
L 427.958779 146.666031 
L 428.182091 149.364534 
L 428.405403 150.046078 
L 428.628714 158.144655 
L 428.852026 157.130895 
L 429.075338 159.147855 
L 429.298649 167.246433 
L 429.745273 160.843159 
L 429.968584 160.843159 
L 430.191896 163.544729 
L 430.415208 158.826199 
L 430.638519 157.812439 
L 430.861831 161.527769 
L 431.085143 158.826199 
L 431.308454 159.829399 
L 431.531766 153.429192 
L 431.755078 153.429192 
L 431.978389 150.727622 
L 432.648324 159.829399 
L 432.871636 171.64024 
L 433.094947 175.34501 
L 433.318259 172.64344 
L 433.541571 174.34181 
L 433.764882 180.742018 
L 433.988194 177.040314 
L 434.211506 180.742018 
L 434.434817 180.420361 
L 434.658129 179.406601 
L 434.881441 190.203682 
L 435.104752 189.522139 
L 435.328064 189.522139 
L 435.551376 186.823635 
L 435.774687 185.820435 
L 435.997999 190.203682 
L 436.221311 183.803475 
L 436.444622 183.803475 
L 436.667934 179.088011 
L 437.114557 187.505179 
L 437.337869 187.505179 
L 437.561181 193.586796 
L 437.784492 192.905253 
L 438.007804 195.2821 
L 438.231116 193.946684 
L 438.677739 190.24498 
L 438.901051 192.26194 
L 439.124362 192.26194 
L 439.347674 186.864933 
L 439.570985 187.868133 
L 440.017609 179.769555 
L 440.24092 178.074251 
L 440.464232 180.772755 
L 440.687544 173.687938 
L 440.910855 172.674178 
L 441.134167 180.772755 
L 441.357479 176.067851 
L 441.58079 175.054091 
L 441.804102 179.769555 
L 442.250725 173.366281 
L 442.474037 174.050891 
L 442.697349 176.067851 
L 442.92066 173.366281 
L 443.143972 180.772755 
L 443.367284 180.772755 
L 443.590595 177.071051 
L 443.813907 182.468059 
L 444.037219 180.772755 
L 444.26053 183.471259 
L 444.707154 170.335561 
L 444.930465 171.020171 
L 445.153777 162.267721 
L 445.377089 164.284681 
L 445.6004 170.016971 
L 445.823712 166.301641 
L 446.047024 166.986251 
L 446.270335 165.298441 
L 446.493647 166.301641 
L 446.94027 170.335561 
L 447.163582 176.749395 
L 447.386893 179.115682 
L 447.610205 178.434139 
L 448.056828 182.146402 
L 448.28014 176.417179 
L 448.503452 176.417179 
L 448.726763 167.315401 
L 448.950075 172.033931 
L 449.173387 171.020171 
L 449.396698 173.037131 
L 449.62001 178.074251 
L 449.843322 177.752595 
L 450.066633 180.451099 
L 450.736568 173.037131 
L 450.95988 178.766355 
L 451.183192 179.769555 
L 451.406503 175.054091 
L 451.853127 161.55544 
L 452.076438 164.25701 
L 452.29975 154.141473 
L 452.523062 151.121313 
L 452.969685 151.121313 
L 453.192996 150.107553 
L 453.63962 154.823016 
L 453.862931 153.138273 
L 454.086243 155.836776 
L 454.309555 155.836776 
L 454.532866 153.138273 
L 454.756178 156.839976 
L 454.97949 155.836776 
L 455.202801 156.158433 
L 455.426113 156.158433 
L 455.649425 159.870696 
L 455.872736 159.870696 
L 456.31936 156.158433 
L 456.542671 157.172193 
L 456.765983 153.459929 
L 456.989295 152.456729 
L 457.212606 152.456729 
L 457.435918 149.755159 
L 457.65923 152.456729 
L 457.882541 149.755159 
L 458.105853 149.755159 
L 458.329165 151.442969 
L 458.552476 149.755159 
L 458.775788 150.758359 
L 459.222411 150.758359 
L 459.445723 149.755159 
L 459.669035 156.158433 
L 460.338969 156.158433 
L 460.562281 164.25701 
L 460.785593 163.5724 
L 461.008904 159.870696 
L 461.232216 163.5724 
L 461.678839 160.192353 
L 461.902151 153.778519 
L 462.125463 156.480089 
L 462.348774 153.778519 
L 462.572086 157.493849 
L 462.795398 153.778519 
L 463.018709 153.778519 
L 463.242021 150.076815 
L 463.465333 151.080015 
L 463.688644 151.080015 
L 464.135268 155.795479 
L 464.358579 159.829399 
L 464.581891 157.812439 
L 464.805203 158.826199 
L 465.028514 156.127695 
L 465.251826 157.812439 
L 465.475138 152.415432 
L 465.698449 151.412232 
L 465.921761 152.415432 
L 466.145073 149.713862 
L 466.368384 149.713862 
L 466.591696 147.696902 
L 466.815008 152.415432 
L 467.261631 146.012158 
L 467.708254 146.012158 
L 467.931566 148.710662 
L 468.154877 147.696902 
L 468.601501 137.885909 
L 468.824812 143.282917 
L 469.271436 125.071868 
L 469.494747 126.075068 
L 469.718059 141.265957 
L 469.941371 138.567453 
L 470.387994 149.364534 
L 470.611306 147.669231 
L 470.834617 147.669231 
L 471.057929 142.269157 
L 471.281241 143.96446 
L 471.504552 143.96446 
L 471.727864 148.350774 
L 471.951176 145.652271 
L 472.174487 152.744582 
L 472.397799 177.040314 
L 472.621111 173.32805 
L 472.844422 165.229473 
L 473.291046 171.64024 
L 473.514357 166.243233 
L 473.737669 170.958696 
L 473.96098 170.958696 
L 474.184292 169.944936 
L 474.630915 162.530969 
L 474.854227 163.544729 
L 475.077539 161.846359 
L 475.30085 159.147855 
L 475.524162 159.147855 
L 475.747474 164.547929 
L 476.194097 159.147855 
L 476.64072 172.64344 
L 476.864032 173.6572 
L 477.087344 170.958696 
L 477.310655 171.961896 
L 477.533967 171.961896 
L 477.757279 165.561689 
L 477.98059 165.561689 
L 478.203902 168.260193 
L 478.650525 166.243233 
L 478.873837 164.547929 
L 479.097149 161.846359 
L 479.32046 165.561689 
L 479.543772 165.561689 
L 479.990395 167.578649 
L 480.213707 171.280353 
L 480.437019 171.602009 
L 480.66033 170.598809 
L 480.883642 172.294113 
L 481.106953 168.581849 
L 481.330265 166.894039 
L 481.553577 169.595609 
L 481.776888 168.581849 
L 482.223512 168.581849 
L 482.670135 172.294113 
L 482.893447 169.595609 
L 483.116758 168.581849 
L 483.34007 168.900439 
L 483.563382 168.581849 
L 483.786693 169.595609 
L 484.010005 164.195535 
L 484.233317 161.497032 
L 484.456628 152.384694 
L 484.903252 154.401654 
L 485.126563 158.795462 
L 485.349875 158.795462 
L 485.796498 155.083198 
L 486.01981 165.880279 
L 486.243122 166.894039 
L 486.466433 166.894039 
L 486.689745 169.595609 
L 487.35968 187.474441 
L 487.806303 182.077434 
L 488.029615 182.077434 
L 488.476238 179.37893 
L 488.69955 174.992616 
L 488.922861 177.69112 
L 489.146173 178.69432 
L 489.369485 177.69112 
L 489.592796 181.39589 
L 489.816108 177.69112 
L 490.03942 186.792898 
L 490.262731 181.39589 
L 490.486043 181.39589 
L 490.709355 185.097594 
L 491.155978 176.317473 
L 491.37929 179.015976 
L 492.049225 179.015976 
L 492.272536 185.7484 
L 492.495848 186.43301 
L 492.71916 188.128314 
L 492.942471 182.72824 
L 493.389095 188.128314 
L 493.612406 196.226891 
L 493.835718 189.813058 
L 494.05903 192.843778 
L 494.505653 190.826818 
L 494.728964 189.131514 
L 494.952276 193.846978 
L 495.175588 189.131514 
L 495.398899 194.528521 
L 495.845523 209.040933 
L 496.292146 202.627099 
L 496.515458 193.525321 
L 496.738769 196.226891 
L 496.962081 195.213131 
L 497.408704 184.41605 
L 497.632016 185.42981 
L 497.855328 181.71448 
L 498.078639 182.72824 
L 498.301951 182.72824 
L 498.748574 192.843778 
L 498.971886 188.128314 
L 499.195198 186.43301 
L 499.418509 182.72824 
L 499.641821 182.72824 
L 499.865133 179.015976 
L 500.088444 182.72824 
L 500.535068 180.71128 
L 500.758379 182.39909 
L 501.205003 175.995816 
L 501.428314 178.69432 
L 501.651626 172.615769 
L 501.874937 174.300513 
L 502.098249 176.999016 
L 502.321561 175.314273 
L 502.544872 176.999016 
L 502.768184 171.602009 
L 502.991496 170.598809 
L 503.214807 162.500232 
L 503.438119 162.500232 
L 503.661431 160.801862 
L 503.884742 163.503432 
L 504.108054 157.100158 
L 504.331366 160.801862 
L 504.554677 157.100158 
L 504.777989 156.096958 
L 505.001301 153.398454 
L 505.224612 156.096958 
L 505.447924 154.401654 
L 505.671236 158.103358 
L 505.894547 158.103358 
L 506.117859 161.815622 
L 506.341171 159.117118 
L 506.564482 159.117118 
L 506.787794 163.503432 
L 507.011106 164.517192 
L 507.234417 164.517192 
L 507.457729 162.818822 
L 507.681041 162.818822 
L 507.904352 163.503432 
L 508.127664 158.103358 
L 508.350975 158.103358 
L 508.574287 162.818822 
L 508.797599 159.117118 
L 509.02091 164.517192 
L 509.244222 159.798662 
L 509.467534 161.497032 
L 509.914157 158.795462 
L 510.137469 154.401654 
L 510.36078 157.100158 
L 510.584092 154.401654 
L 510.807404 158.103358 
L 511.254027 154.401654 
L 511.477339 154.401654 
L 511.923962 143.604573 
L 512.147274 144.607773 
L 512.370585 151.703151 
L 512.593897 147.99838 
L 512.817209 147.99838 
L 513.04052 144.286117 
L 513.263832 145.299877 
L 513.487144 143.96446 
L 513.710455 145.98142 
L 513.933767 153.398454 
L 514.157079 148.682991 
L 514.38039 151.381494 
L 514.603702 152.384694 
L 514.827014 148.682991 
L 515.273637 145.652271 
L 515.72026 132.153619 
L 515.943572 134.855189 
L 516.613507 134.855189 
L 516.836818 129.455116 
L 517.06013 128.451916 
L 517.506753 137.553693 
L 517.953377 155.764742 
L 518.176688 160.483272 
L 518.4 147.99838 
L 518.4 147.99838 
" style="fill:none;stroke:#4c72b0;stroke-linecap:round;stroke-width:1.75;"/>
   </g>
   <g id="patch_3">
    <path d="M 72 356.4 
L 518.4 356.4 
" style="fill:none;"/>
   </g>
   <g id="patch_4">
    <path d="M 72 39.6 
L 518.4 39.6 
" style="fill:none;"/>
   </g>
   <g id="patch_5">
    <path d="M 72 356.4 
L 72 39.6 
" style="fill:none;"/>
   </g>
   <g id="patch_6">
    <path d="M 518.4 356.4 
L 518.4 39.6 
" style="fill:none;"/>
   </g>
   <g id="text_13">
    <!-- ag - -0.29038650001306565 * l -->
    <defs>
     <path d="M 9.125 0 
L 9.125 10.6875 
L 18.65625 10.6875 
L 18.65625 0 
z
" id="LiberationSans-2e"/>
     <path d="M 26.765625 -20.75 
Q 22.21875 -20.75 18.703125 -19.8125 
Q 15.1875 -18.890625 12.6875 -17.15625 
Q 10.203125 -15.4375 8.640625 -13.03125 
Q 7.078125 -10.640625 6.390625 -7.71875 
L 15.234375 -6.453125 
Q 16.109375 -10.109375 19.109375 -12.078125 
Q 22.125 -14.0625 27 -14.0625 
Q 29.984375 -14.0625 32.421875 -13.234375 
Q 34.859375 -12.40625 36.5625 -10.5625 
Q 38.28125 -8.734375 39.203125 -5.796875 
Q 40.140625 -2.875 40.140625 1.3125 
L 40.140625 9.8125 
L 40.046875 9.8125 
Q 39.0625 7.8125 37.625 5.984375 
Q 36.1875 4.15625 34.109375 2.734375 
Q 32.03125 1.3125 29.296875 0.453125 
Q 26.5625 -0.390625 23.046875 -0.390625 
Q 18.015625 -0.390625 14.421875 1.296875 
Q 10.84375 2.984375 8.5625 6.34375 
Q 6.296875 9.71875 5.25 14.71875 
Q 4.203125 19.734375 4.203125 26.3125 
Q 4.203125 32.671875 5.25 37.75 
Q 6.296875 42.828125 8.65625 46.359375 
Q 11.03125 49.90625 14.8125 51.78125 
Q 18.609375 53.65625 24.03125 53.65625 
Q 29.640625 53.65625 33.765625 51.09375 
Q 37.890625 48.53125 40.140625 43.796875 
L 40.234375 43.796875 
Q 40.234375 45.015625 40.296875 46.53125 
Q 40.375 48.046875 40.453125 49.390625 
Q 40.53125 50.734375 40.625 51.703125 
Q 40.71875 52.6875 40.828125 52.828125 
L 49.171875 52.828125 
Q 49.125 52.390625 49.078125 51.34375 
Q 49.03125 50.296875 48.96875 48.828125 
Q 48.921875 47.359375 48.890625 45.578125 
Q 48.875 43.796875 48.875 41.890625 
L 48.875 1.515625 
Q 48.875 -9.578125 43.421875 -15.15625 
Q 37.984375 -20.75 26.765625 -20.75 
M 40.140625 26.421875 
Q 40.140625 31.9375 38.9375 35.859375 
Q 37.75 39.796875 35.796875 42.28125 
Q 33.84375 44.78125 31.328125 45.953125 
Q 28.8125 47.125 26.171875 47.125 
Q 22.796875 47.125 20.375 45.953125 
Q 17.96875 44.78125 16.375 42.265625 
Q 14.796875 39.75 14.03125 35.8125 
Q 13.28125 31.890625 13.28125 26.421875 
Q 13.28125 20.703125 14.03125 16.8125 
Q 14.796875 12.9375 16.359375 10.546875 
Q 17.921875 8.15625 20.3125 7.125 
Q 22.703125 6.109375 26.03125 6.109375 
Q 28.65625 6.109375 31.171875 7.21875 
Q 33.6875 8.34375 35.6875 10.78125 
Q 37.703125 13.234375 38.921875 17.09375 
Q 40.140625 20.953125 40.140625 26.421875 
" id="LiberationSans-67"/>
     <path d="M 22.265625 54.390625 
L 35.15625 59.421875 
L 37.359375 52.984375 
L 23.578125 49.421875 
L 32.625 37.203125 
L 26.8125 33.6875 
L 19.484375 46.296875 
L 11.859375 33.796875 
L 6.0625 37.3125 
L 15.28125 49.421875 
L 1.609375 52.984375 
L 3.8125 59.515625 
L 16.84375 54.296875 
L 16.265625 68.796875 
L 22.90625 68.796875 
z
" id="LiberationSans-2a"/>
     <path d="M 20.21875 -0.984375 
Q 12.25 -0.984375 8.25 3.21875 
Q 4.25 7.421875 4.25 14.75 
Q 4.25 19.96875 6.21875 23.3125 
Q 8.203125 26.65625 11.390625 28.5625 
Q 14.59375 30.46875 18.6875 31.203125 
Q 22.796875 31.9375 27.046875 32.03125 
L 38.921875 32.234375 
L 38.921875 35.109375 
Q 38.921875 38.375 38.234375 40.671875 
Q 37.546875 42.96875 36.125 44.375 
Q 34.71875 45.796875 32.59375 46.453125 
Q 30.46875 47.125 27.59375 47.125 
Q 25.046875 47.125 23 46.75 
Q 20.953125 46.390625 19.4375 45.4375 
Q 17.921875 44.484375 16.984375 42.84375 
Q 16.0625 41.21875 15.765625 38.71875 
L 6.59375 39.546875 
Q 7.078125 42.671875 8.4375 45.28125 
Q 9.8125 47.90625 12.328125 49.796875 
Q 14.84375 51.703125 18.625 52.75 
Q 22.40625 53.8125 27.78125 53.8125 
Q 37.75 53.8125 42.765625 49.234375 
Q 47.796875 44.671875 47.796875 36.03125 
L 47.796875 13.28125 
Q 47.796875 9.375 48.828125 7.390625 
Q 49.859375 5.421875 52.734375 5.421875 
Q 53.46875 5.421875 54.203125 5.515625 
Q 54.9375 5.609375 55.609375 5.765625 
L 55.609375 0.296875 
Q 53.953125 -0.09375 52.3125 -0.28125 
Q 50.6875 -0.484375 48.828125 -0.484375 
Q 46.34375 -0.484375 44.5625 0.171875 
Q 42.78125 0.828125 41.65625 2.171875 
Q 40.53125 3.515625 39.9375 5.484375 
Q 39.359375 7.46875 39.203125 10.109375 
L 38.921875 10.109375 
Q 37.5 7.5625 35.8125 5.515625 
Q 34.125 3.46875 31.875 2.03125 
Q 29.640625 0.59375 26.78125 -0.1875 
Q 23.921875 -0.984375 20.21875 -0.984375 
M 22.21875 5.609375 
Q 26.421875 5.609375 29.5625 7.140625 
Q 32.71875 8.6875 34.78125 11.078125 
Q 36.859375 13.484375 37.890625 16.3125 
Q 38.921875 19.140625 38.921875 21.734375 
L 38.921875 26.078125 
L 29.296875 25.875 
Q 26.078125 25.828125 23.171875 25.40625 
Q 20.265625 25 18.0625 23.78125 
Q 15.875 22.5625 14.578125 20.359375 
Q 13.28125 18.171875 13.28125 14.59375 
Q 13.28125 10.296875 15.59375 7.953125 
Q 17.921875 5.609375 22.21875 5.609375 
" id="LiberationSans-61"/>
     <path d="M 6.734375 0 
L 6.734375 72.46875 
L 15.53125 72.46875 
L 15.53125 0 
z
" id="LiberationSans-6c"/>
    </defs>
    <g style="fill:#262626;" transform="translate(212.4703125 34.6)scale(0.12 -0.12)">
     <use xlink:href="#LiberationSans-61"/>
     <use x="55.615234375" xlink:href="#LiberationSans-67"/>
     <use x="111.23046875" xlink:href="#LiberationSans-20"/>
     <use x="139.013671875" xlink:href="#LiberationSans-2d"/>
     <use x="172.314453125" xlink:href="#LiberationSans-20"/>
     <use x="200.09765625" xlink:href="#LiberationSans-2d"/>
     <use x="233.3984375" xlink:href="#LiberationSans-30"/>
     <use x="289.013671875" xlink:href="#LiberationSans-2e"/>
     <use x="316.796875" xlink:href="#LiberationSans-32"/>
     <use x="372.412109375" xlink:href="#LiberationSans-39"/>
     <use x="428.02734375" xlink:href="#LiberationSans-30"/>
     <use x="483.642578125" xlink:href="#LiberationSans-33"/>
     <use x="539.2578125" xlink:href="#LiberationSans-38"/>
     <use x="594.873046875" xlink:href="#LiberationSans-36"/>
     <use x="650.48828125" xlink:href="#LiberationSans-35"/>
     <use x="706.103515625" xlink:href="#LiberationSans-30"/>
     <use x="761.71875" xlink:href="#LiberationSans-30"/>
     <use x="817.333984375" xlink:href="#LiberationSans-30"/>
     <use x="872.94921875" xlink:href="#LiberationSans-31"/>
     <use x="928.564453125" xlink:href="#LiberationSans-33"/>
     <use x="984.1796875" xlink:href="#LiberationSans-30"/>
     <use x="1039.794921875" xlink:href="#LiberationSans-36"/>
     <use x="1095.41015625" xlink:href="#LiberationSans-35"/>
     <use x="1151.025390625" xlink:href="#LiberationSans-36"/>
     <use x="1206.640625" xlink:href="#LiberationSans-35"/>
     <use x="1262.255859375" xlink:href="#LiberationSans-20"/>
     <use x="1290.0390625" xlink:href="#LiberationSans-2a"/>
     <use x="1328.955078125" xlink:href="#LiberationSans-20"/>
     <use x="1356.73828125" xlink:href="#LiberationSans-6c"/>
    </g>
   </g>
  </g>
 </g>
 <defs>
  <clipPath id="pb3c1c63dc8">
   <rect height="316.8" width="446.4" x="72.0" y="39.6"/>
  </clipPath>
 </defs>
</svg>
