<?xml version="1.0" encoding="utf-8" standalone="no"?>
<!DOCTYPE svg PUBLIC "-//W3C//DTD SVG 1.1//EN"
  "http://www.w3.org/Graphics/SVG/1.1/DTD/svg11.dtd">
<!-- Created with matplotlib (http://matplotlib.org/) -->
<svg height="396pt" version="1.1" viewBox="0 0 576 396" width="576pt" xmlns="http://www.w3.org/2000/svg" xmlns:xlink="http://www.w3.org/1999/xlink">
 <defs>
  <style type="text/css">
*{stroke-linecap:butt;stroke-linejoin:round;stroke-miterlimit:100000;}
  </style>
 </defs>
 <g id="figure_1">
  <g id="patch_1">
   <path d="M 0 396 
L 576 396 
L 576 0 
L 0 0 
z
" style="fill:#ffffff;"/>
  </g>
  <g id="axes_1">
   <g id="patch_2">
    <path d="M 72 356.4 
L 518.4 356.4 
L 518.4 39.6 
L 72 39.6 
z
" style="fill:#eaeaf2;"/>
   </g>
   <g id="matplotlib.axis_1">
    <g id="xtick_1">
     <g id="line2d_1">
      <path clip-path="url(#pcdf9b338a0)" d="M 72 356.4 
L 72 39.6 
" style="fill:none;stroke:#ffffff;stroke-linecap:round;"/>
     </g>
     <g id="line2d_2"/>
     <g id="line2d_3"/>
     <g id="text_1">
      <!-- 2016-09-27 09:32:00 -->
      <defs>
       <path d="M 5.03125 0 
L 5.03125 6.203125 
Q 7.515625 11.921875 11.109375 16.28125 
Q 14.703125 20.65625 18.65625 24.1875 
Q 22.609375 27.734375 26.484375 30.765625 
Q 30.375 33.796875 33.5 36.8125 
Q 36.625 39.84375 38.546875 43.15625 
Q 40.484375 46.484375 40.484375 50.6875 
Q 40.484375 53.609375 39.59375 55.828125 
Q 38.71875 58.0625 37.0625 59.5625 
Q 35.40625 61.078125 33.078125 61.828125 
Q 30.765625 62.59375 27.9375 62.59375 
Q 25.296875 62.59375 22.96875 61.859375 
Q 20.65625 61.140625 18.84375 59.671875 
Q 17.046875 58.203125 15.890625 56.03125 
Q 14.75 53.859375 14.40625 50.984375 
L 5.421875 51.8125 
Q 5.859375 55.515625 7.46875 58.78125 
Q 9.078125 62.0625 11.90625 64.53125 
Q 14.75 67 18.71875 68.40625 
Q 22.703125 69.828125 27.9375 69.828125 
Q 33.0625 69.828125 37.0625 68.609375 
Q 41.0625 67.390625 43.8125 64.984375 
Q 46.578125 62.59375 48.046875 59.078125 
Q 49.515625 55.5625 49.515625 50.984375 
Q 49.515625 47.515625 48.265625 44.390625 
Q 47.015625 41.265625 44.9375 38.421875 
Q 42.875 35.59375 40.140625 32.953125 
Q 37.40625 30.328125 34.421875 27.8125 
Q 31.453125 25.296875 28.421875 22.828125 
Q 25.390625 20.359375 22.71875 17.859375 
Q 20.0625 15.375 17.96875 12.8125 
Q 15.875 10.25 14.703125 7.46875 
L 50.59375 7.46875 
L 50.59375 0 
z
" id="LiberationSans-32"/>
       <path d="M 7.625 0 
L 7.625 7.46875 
L 25.140625 7.46875 
L 25.140625 60.40625 
L 9.625 49.3125 
L 9.625 57.625 
L 25.875 68.796875 
L 33.984375 68.796875 
L 33.984375 7.46875 
L 50.734375 7.46875 
L 50.734375 0 
z
" id="LiberationSans-31"/>
       <path d="M 51.703125 34.421875 
Q 51.703125 24.515625 49.828125 17.75 
Q 47.953125 10.984375 44.703125 6.8125 
Q 41.453125 2.640625 37.0625 0.828125 
Q 32.671875 -0.984375 27.6875 -0.984375 
Q 22.65625 -0.984375 18.3125 0.828125 
Q 13.96875 2.640625 10.765625 6.78125 
Q 7.5625 10.9375 5.734375 17.703125 
Q 3.90625 24.46875 3.90625 34.421875 
Q 3.90625 44.828125 5.734375 51.640625 
Q 7.5625 58.453125 10.78125 62.5 
Q 14.015625 66.546875 18.40625 68.1875 
Q 22.796875 69.828125 27.984375 69.828125 
Q 32.90625 69.828125 37.21875 68.1875 
Q 41.546875 66.546875 44.765625 62.5 
Q 48 58.453125 49.84375 51.640625 
Q 51.703125 44.828125 51.703125 34.421875 
M 42.78125 34.421875 
Q 42.78125 42.625 41.796875 48.0625 
Q 40.828125 53.515625 38.921875 56.765625 
Q 37.015625 60.015625 34.25 61.359375 
Q 31.5 62.703125 27.984375 62.703125 
Q 24.265625 62.703125 21.4375 61.328125 
Q 18.609375 59.96875 16.671875 56.71875 
Q 14.75 53.46875 13.765625 48.015625 
Q 12.796875 42.578125 12.796875 34.421875 
Q 12.796875 26.515625 13.796875 21.09375 
Q 14.796875 15.671875 16.71875 12.375 
Q 18.65625 9.078125 21.4375 7.640625 
Q 24.21875 6.203125 27.78125 6.203125 
Q 31.25 6.203125 34.03125 7.640625 
Q 36.8125 9.078125 38.734375 12.375 
Q 40.671875 15.671875 41.71875 21.09375 
Q 42.78125 26.515625 42.78125 34.421875 
" id="LiberationSans-30"/>
       <path d="M 50.875 35.796875 
Q 50.875 26.609375 49.140625 19.703125 
Q 47.40625 12.796875 44.1875 8.203125 
Q 40.96875 3.609375 36.34375 1.3125 
Q 31.734375 -0.984375 25.984375 -0.984375 
Q 22.015625 -0.984375 18.84375 -0.171875 
Q 15.671875 0.640625 13.171875 2.34375 
Q 10.6875 4.046875 8.921875 6.78125 
Q 7.171875 9.515625 6.109375 13.375 
L 14.5 14.703125 
Q 15.875 10.25 18.78125 8.171875 
Q 21.6875 6.109375 26.125 6.109375 
Q 29.6875 6.109375 32.640625 7.78125 
Q 35.59375 9.46875 37.671875 12.84375 
Q 39.75 16.21875 40.921875 21.296875 
Q 42.09375 26.375 42.1875 33.203125 
Q 41.15625 30.90625 39.375 29.09375 
Q 37.59375 27.296875 35.328125 26.046875 
Q 33.0625 24.8125 30.421875 24.140625 
Q 27.78125 23.484375 25.09375 23.484375 
Q 20.40625 23.484375 16.625 25.171875 
Q 12.84375 26.859375 10.203125 29.875 
Q 7.5625 32.90625 6.125 37.171875 
Q 4.6875 41.453125 4.6875 46.6875 
Q 4.6875 52 6.21875 56.296875 
Q 7.765625 60.59375 10.6875 63.59375 
Q 13.625 66.609375 17.890625 68.21875 
Q 22.171875 69.828125 27.59375 69.828125 
Q 39.0625 69.828125 44.96875 61.328125 
Q 50.875 52.828125 50.875 35.796875 
M 41.3125 44.28125 
Q 41.3125 48.09375 40.40625 51.453125 
Q 39.5 54.828125 37.71875 57.3125 
Q 35.9375 59.8125 33.328125 61.25 
Q 30.71875 62.703125 27.296875 62.703125 
Q 24.125 62.703125 21.578125 61.578125 
Q 19.046875 60.453125 17.28125 58.375 
Q 15.53125 56.296875 14.578125 53.3125 
Q 13.625 50.34375 13.625 46.6875 
Q 13.625 43.21875 14.46875 40.234375 
Q 15.328125 37.25 17.03125 35.078125 
Q 18.75 32.90625 21.28125 31.65625 
Q 23.828125 30.421875 27.203125 30.421875 
Q 29.640625 30.421875 32.15625 31.25 
Q 34.671875 32.078125 36.6875 33.78125 
Q 38.71875 35.5 40.015625 38.109375 
Q 41.3125 40.71875 41.3125 44.28125 
" id="LiberationSans-39"/>
       <path d="M 9.125 42.71875 
L 9.125 52.828125 
L 18.65625 52.828125 
L 18.65625 42.71875 
z
M 9.125 0 
L 9.125 10.109375 
L 18.65625 10.109375 
L 18.65625 0 
z
" id="LiberationSans-3a"/>
       <path d="M 51.21875 19 
Q 51.21875 14.265625 49.671875 10.546875 
Q 48.140625 6.84375 45.1875 4.265625 
Q 42.234375 1.703125 37.859375 0.359375 
Q 33.5 -0.984375 27.875 -0.984375 
Q 21.484375 -0.984375 17.109375 0.609375 
Q 12.75 2.203125 9.90625 4.8125 
Q 7.078125 7.421875 5.65625 10.765625 
Q 4.25 14.109375 3.8125 17.671875 
L 12.890625 18.5 
Q 13.28125 15.765625 14.328125 13.515625 
Q 15.375 11.28125 17.1875 9.671875 
Q 19 8.0625 21.625 7.171875 
Q 24.265625 6.296875 27.875 6.296875 
Q 34.515625 6.296875 38.296875 9.5625 
Q 42.09375 12.84375 42.09375 19.28125 
Q 42.09375 23.09375 40.40625 25.40625 
Q 38.71875 27.734375 36.203125 29.03125 
Q 33.6875 30.328125 30.734375 30.765625 
Q 27.78125 31.203125 25.296875 31.203125 
L 20.3125 31.203125 
L 20.3125 38.8125 
L 25.09375 38.8125 
Q 27.59375 38.8125 30.265625 39.328125 
Q 32.953125 39.84375 35.171875 41.1875 
Q 37.40625 42.53125 38.84375 44.828125 
Q 40.28125 47.125 40.28125 50.6875 
Q 40.28125 56.203125 37.03125 59.390625 
Q 33.796875 62.59375 27.390625 62.59375 
Q 21.578125 62.59375 17.984375 59.609375 
Q 14.40625 56.640625 13.8125 51.21875 
L 4.984375 51.90625 
Q 5.515625 56.453125 7.46875 59.8125 
Q 9.421875 63.1875 12.421875 65.40625 
Q 15.4375 67.625 19.28125 68.71875 
Q 23.140625 69.828125 27.484375 69.828125 
Q 33.25 69.828125 37.390625 68.375 
Q 41.546875 66.9375 44.1875 64.46875 
Q 46.828125 62.015625 48.0625 58.6875 
Q 49.3125 55.375 49.3125 51.609375 
Q 49.3125 48.578125 48.484375 45.9375 
Q 47.65625 43.3125 45.890625 41.203125 
Q 44.140625 39.109375 41.421875 37.59375 
Q 38.71875 36.078125 34.90625 35.296875 
L 34.90625 35.109375 
Q 39.0625 34.671875 42.140625 33.21875 
Q 45.21875 31.78125 47.21875 29.625 
Q 49.21875 27.484375 50.21875 24.75 
Q 51.21875 22.015625 51.21875 19 
" id="LiberationSans-33"/>
       <path d="M 50.59375 61.671875 
Q 45.40625 53.765625 41.0625 46.453125 
Q 36.71875 39.15625 33.59375 31.75 
Q 30.46875 24.359375 28.734375 16.578125 
Q 27 8.796875 27 0 
L 17.828125 0 
Q 17.828125 8.25 19.78125 16.1875 
Q 21.734375 24.125 25.046875 31.765625 
Q 28.375 39.40625 32.765625 46.78125 
Q 37.15625 54.15625 42.09375 61.328125 
L 5.125 61.328125 
L 5.125 68.796875 
L 50.59375 68.796875 
z
" id="LiberationSans-37"/>
       <path id="LiberationSans-20"/>
       <path d="M 4.4375 22.65625 
L 4.4375 30.46875 
L 28.859375 30.46875 
L 28.859375 22.65625 
z
" id="LiberationSans-2d"/>
       <path d="M 51.21875 22.515625 
Q 51.21875 17.328125 49.78125 13 
Q 48.34375 8.6875 45.53125 5.578125 
Q 42.71875 2.484375 38.5625 0.75 
Q 34.421875 -0.984375 29 -0.984375 
Q 23 -0.984375 18.5 1.3125 
Q 14.015625 3.609375 11.03125 7.921875 
Q 8.0625 12.25 6.5625 18.53125 
Q 5.078125 24.8125 5.078125 32.8125 
Q 5.078125 42 6.765625 48.921875 
Q 8.453125 55.859375 11.625 60.5 
Q 14.796875 65.140625 19.359375 67.484375 
Q 23.921875 69.828125 29.6875 69.828125 
Q 33.203125 69.828125 36.28125 69.09375 
Q 39.359375 68.359375 41.875 66.71875 
Q 44.390625 65.09375 46.28125 62.40625 
Q 48.1875 59.71875 49.3125 55.8125 
L 40.921875 54.296875 
Q 39.546875 58.734375 36.546875 60.71875 
Q 33.546875 62.703125 29.59375 62.703125 
Q 25.984375 62.703125 23.046875 60.984375 
Q 20.125 59.28125 18.0625 55.875 
Q 16.015625 52.484375 14.90625 47.359375 
Q 13.8125 42.234375 13.8125 35.40625 
Q 16.21875 39.84375 20.5625 42.15625 
Q 24.90625 44.484375 30.515625 44.484375 
Q 35.203125 44.484375 39.015625 42.96875 
Q 42.828125 41.453125 45.53125 38.59375 
Q 48.25 35.75 49.734375 31.671875 
Q 51.21875 27.59375 51.21875 22.515625 
M 42.28125 22.125 
Q 42.28125 25.6875 41.40625 28.5625 
Q 40.53125 31.453125 38.765625 33.46875 
Q 37.015625 35.5 34.421875 36.59375 
Q 31.84375 37.703125 28.421875 37.703125 
Q 26.03125 37.703125 23.578125 36.984375 
Q 21.140625 36.28125 19.15625 34.6875 
Q 17.1875 33.109375 15.9375 30.515625 
Q 14.703125 27.9375 14.703125 24.21875 
Q 14.703125 20.40625 15.671875 17.109375 
Q 16.65625 13.8125 18.484375 11.375 
Q 20.3125 8.9375 22.890625 7.515625 
Q 25.484375 6.109375 28.71875 6.109375 
Q 31.890625 6.109375 34.40625 7.203125 
Q 36.921875 8.296875 38.671875 10.375 
Q 40.4375 12.453125 41.359375 15.421875 
Q 42.28125 18.40625 42.28125 22.125 
" id="LiberationSans-36"/>
      </defs>
      <g style="fill:#262626;" transform="translate(25.5765625 370.646875)scale(0.1 -0.1)">
       <use xlink:href="#LiberationSans-32"/>
       <use x="55.615234375" xlink:href="#LiberationSans-30"/>
       <use x="111.23046875" xlink:href="#LiberationSans-31"/>
       <use x="166.845703125" xlink:href="#LiberationSans-36"/>
       <use x="222.4609375" xlink:href="#LiberationSans-2d"/>
       <use x="255.76171875" xlink:href="#LiberationSans-30"/>
       <use x="311.376953125" xlink:href="#LiberationSans-39"/>
       <use x="366.9921875" xlink:href="#LiberationSans-2d"/>
       <use x="400.29296875" xlink:href="#LiberationSans-32"/>
       <use x="455.908203125" xlink:href="#LiberationSans-37"/>
       <use x="511.5234375" xlink:href="#LiberationSans-20"/>
       <use x="539.306640625" xlink:href="#LiberationSans-30"/>
       <use x="594.921875" xlink:href="#LiberationSans-39"/>
       <use x="650.537109375" xlink:href="#LiberationSans-3a"/>
       <use x="678.3203125" xlink:href="#LiberationSans-33"/>
       <use x="733.935546875" xlink:href="#LiberationSans-32"/>
       <use x="789.55078125" xlink:href="#LiberationSans-3a"/>
       <use x="817.333984375" xlink:href="#LiberationSans-30"/>
       <use x="872.94921875" xlink:href="#LiberationSans-30"/>
      </g>
     </g>
    </g>
    <g id="xtick_2">
     <g id="line2d_4">
      <path clip-path="url(#pcdf9b338a0)" d="M 183.655828 356.4 
L 183.655828 39.6 
" style="fill:none;stroke:#ffffff;stroke-linecap:round;"/>
     </g>
     <g id="line2d_5"/>
     <g id="line2d_6"/>
     <g id="text_2">
      <!-- 2016-09-29 10:36:00 -->
      <g style="fill:#262626;" transform="translate(137.232390414 370.646875)scale(0.1 -0.1)">
       <use xlink:href="#LiberationSans-32"/>
       <use x="55.615234375" xlink:href="#LiberationSans-30"/>
       <use x="111.23046875" xlink:href="#LiberationSans-31"/>
       <use x="166.845703125" xlink:href="#LiberationSans-36"/>
       <use x="222.4609375" xlink:href="#LiberationSans-2d"/>
       <use x="255.76171875" xlink:href="#LiberationSans-30"/>
       <use x="311.376953125" xlink:href="#LiberationSans-39"/>
       <use x="366.9921875" xlink:href="#LiberationSans-2d"/>
       <use x="400.29296875" xlink:href="#LiberationSans-32"/>
       <use x="455.908203125" xlink:href="#LiberationSans-39"/>
       <use x="511.5234375" xlink:href="#LiberationSans-20"/>
       <use x="539.306640625" xlink:href="#LiberationSans-31"/>
       <use x="594.921875" xlink:href="#LiberationSans-30"/>
       <use x="650.537109375" xlink:href="#LiberationSans-3a"/>
       <use x="678.3203125" xlink:href="#LiberationSans-33"/>
       <use x="733.935546875" xlink:href="#LiberationSans-36"/>
       <use x="789.55078125" xlink:href="#LiberationSans-3a"/>
       <use x="817.333984375" xlink:href="#LiberationSans-30"/>
       <use x="872.94921875" xlink:href="#LiberationSans-30"/>
      </g>
     </g>
    </g>
    <g id="xtick_3">
     <g id="line2d_7">
      <path clip-path="url(#pcdf9b338a0)" d="M 295.311656 356.4 
L 295.311656 39.6 
" style="fill:none;stroke:#ffffff;stroke-linecap:round;"/>
     </g>
     <g id="line2d_8"/>
     <g id="line2d_9"/>
     <g id="text_3">
      <!-- 2016-10-10 11:23:00 -->
      <g style="fill:#262626;" transform="translate(248.888218328 370.646875)scale(0.1 -0.1)">
       <use xlink:href="#LiberationSans-32"/>
       <use x="55.615234375" xlink:href="#LiberationSans-30"/>
       <use x="111.23046875" xlink:href="#LiberationSans-31"/>
       <use x="166.845703125" xlink:href="#LiberationSans-36"/>
       <use x="222.4609375" xlink:href="#LiberationSans-2d"/>
       <use x="255.76171875" xlink:href="#LiberationSans-31"/>
       <use x="311.376953125" xlink:href="#LiberationSans-30"/>
       <use x="366.9921875" xlink:href="#LiberationSans-2d"/>
       <use x="400.29296875" xlink:href="#LiberationSans-31"/>
       <use x="455.908203125" xlink:href="#LiberationSans-30"/>
       <use x="511.5234375" xlink:href="#LiberationSans-20"/>
       <use x="539.306640625" xlink:href="#LiberationSans-31"/>
       <use x="594.921875" xlink:href="#LiberationSans-31"/>
       <use x="650.537109375" xlink:href="#LiberationSans-3a"/>
       <use x="678.3203125" xlink:href="#LiberationSans-32"/>
       <use x="733.935546875" xlink:href="#LiberationSans-33"/>
       <use x="789.55078125" xlink:href="#LiberationSans-3a"/>
       <use x="817.333984375" xlink:href="#LiberationSans-30"/>
       <use x="872.94921875" xlink:href="#LiberationSans-30"/>
      </g>
     </g>
    </g>
    <g id="xtick_4">
     <g id="line2d_10">
      <path clip-path="url(#pcdf9b338a0)" d="M 406.967484 356.4 
L 406.967484 39.6 
" style="fill:none;stroke:#ffffff;stroke-linecap:round;"/>
     </g>
     <g id="line2d_11"/>
     <g id="line2d_12"/>
     <g id="text_4">
      <!-- 2016-10-12 14:12:00 -->
      <defs>
       <path d="M 43.015625 15.578125 
L 43.015625 0 
L 34.71875 0 
L 34.71875 15.578125 
L 2.296875 15.578125 
L 2.296875 22.40625 
L 33.796875 68.796875 
L 43.015625 68.796875 
L 43.015625 22.515625 
L 52.6875 22.515625 
L 52.6875 15.578125 
z
M 34.71875 58.890625 
Q 34.625 58.640625 34.234375 57.9375 
Q 33.84375 57.234375 33.34375 56.34375 
Q 32.859375 55.46875 32.34375 54.5625 
Q 31.84375 53.65625 31.453125 53.078125 
L 13.8125 27.09375 
Q 13.578125 26.703125 13.109375 26.0625 
Q 12.640625 25.4375 12.15625 24.78125 
Q 11.671875 24.125 11.171875 23.484375 
Q 10.6875 22.859375 10.40625 22.515625 
L 34.71875 22.515625 
z
" id="LiberationSans-34"/>
      </defs>
      <g style="fill:#262626;" transform="translate(360.544046242 370.646875)scale(0.1 -0.1)">
       <use xlink:href="#LiberationSans-32"/>
       <use x="55.615234375" xlink:href="#LiberationSans-30"/>
       <use x="111.23046875" xlink:href="#LiberationSans-31"/>
       <use x="166.845703125" xlink:href="#LiberationSans-36"/>
       <use x="222.4609375" xlink:href="#LiberationSans-2d"/>
       <use x="255.76171875" xlink:href="#LiberationSans-31"/>
       <use x="311.376953125" xlink:href="#LiberationSans-30"/>
       <use x="366.9921875" xlink:href="#LiberationSans-2d"/>
       <use x="400.29296875" xlink:href="#LiberationSans-31"/>
       <use x="455.908203125" xlink:href="#LiberationSans-32"/>
       <use x="511.5234375" xlink:href="#LiberationSans-20"/>
       <use x="539.306640625" xlink:href="#LiberationSans-31"/>
       <use x="594.921875" xlink:href="#LiberationSans-34"/>
       <use x="650.537109375" xlink:href="#LiberationSans-3a"/>
       <use x="678.3203125" xlink:href="#LiberationSans-31"/>
       <use x="733.935546875" xlink:href="#LiberationSans-32"/>
       <use x="789.55078125" xlink:href="#LiberationSans-3a"/>
       <use x="817.333984375" xlink:href="#LiberationSans-30"/>
       <use x="872.94921875" xlink:href="#LiberationSans-30"/>
      </g>
     </g>
    </g>
    <g id="text_5">
     <!-- time -->
     <defs>
      <path d="M 13.484375 24.5625 
Q 13.484375 20.40625 14.328125 16.90625 
Q 15.1875 13.421875 16.96875 10.90625 
Q 18.75 8.40625 21.53125 7 
Q 24.3125 5.609375 28.21875 5.609375 
Q 33.9375 5.609375 37.375 7.90625 
Q 40.828125 10.203125 42.046875 13.71875 
L 49.75 11.53125 
Q 48.921875 9.328125 47.4375 7.109375 
Q 45.953125 4.890625 43.453125 3.09375 
Q 40.96875 1.3125 37.234375 0.15625 
Q 33.5 -0.984375 28.21875 -0.984375 
Q 16.5 -0.984375 10.375 6 
Q 4.25 12.984375 4.25 26.765625 
Q 4.25 34.1875 6.09375 39.328125 
Q 7.953125 44.484375 11.171875 47.703125 
Q 14.40625 50.921875 18.703125 52.359375 
Q 23 53.8125 27.875 53.8125 
Q 34.515625 53.8125 38.984375 51.65625 
Q 43.453125 49.515625 46.15625 45.71875 
Q 48.875 41.9375 50.015625 36.8125 
Q 51.171875 31.6875 51.171875 25.734375 
L 51.171875 24.5625 
z
M 42.09375 31.296875 
Q 41.359375 39.65625 37.84375 43.484375 
Q 34.328125 47.3125 27.734375 47.3125 
Q 25.53125 47.3125 23.109375 46.609375 
Q 20.703125 45.90625 18.65625 44.09375 
Q 16.609375 42.28125 15.1875 39.171875 
Q 13.765625 36.078125 13.578125 31.296875 
z
" id="LiberationSans-65"/>
      <path d="M 6.6875 64.0625 
L 6.6875 72.46875 
L 15.484375 72.46875 
L 15.484375 64.0625 
z
M 6.6875 0 
L 6.6875 52.828125 
L 15.484375 52.828125 
L 15.484375 0 
z
" id="LiberationSans-69"/>
      <path d="M 27.046875 0.390625 
Q 25.046875 -0.140625 22.96875 -0.453125 
Q 20.90625 -0.78125 18.171875 -0.78125 
Q 7.625 -0.78125 7.625 11.1875 
L 7.625 46.4375 
L 1.515625 46.4375 
L 1.515625 52.828125 
L 7.953125 52.828125 
L 10.546875 64.65625 
L 16.40625 64.65625 
L 16.40625 52.828125 
L 26.171875 52.828125 
L 26.171875 46.4375 
L 16.40625 46.4375 
L 16.40625 13.09375 
Q 16.40625 9.28125 17.640625 7.734375 
Q 18.890625 6.203125 21.96875 6.203125 
Q 23.25 6.203125 24.4375 6.390625 
Q 25.640625 6.59375 27.046875 6.890625 
z
" id="LiberationSans-74"/>
      <path d="M 37.5 0 
L 37.5 33.5 
Q 37.5 37.359375 37.015625 39.9375 
Q 36.53125 42.53125 35.375 44.109375 
Q 34.234375 45.703125 32.375 46.359375 
Q 30.515625 47.015625 27.828125 47.015625 
Q 25.046875 47.015625 22.796875 45.921875 
Q 20.5625 44.828125 18.96875 42.75 
Q 17.390625 40.671875 16.53125 37.625 
Q 15.671875 34.578125 15.671875 30.609375 
L 15.671875 0 
L 6.9375 0 
L 6.9375 41.546875 
Q 6.9375 43.21875 6.90625 45.046875 
Q 6.890625 46.875 6.828125 48.5 
Q 6.78125 50.140625 6.734375 51.3125 
Q 6.6875 52.484375 6.640625 52.828125 
L 14.9375 52.828125 
Q 14.984375 52.59375 15.03125 51.515625 
Q 15.09375 50.4375 15.15625 49.046875 
Q 15.234375 47.65625 15.28125 46.21875 
Q 15.328125 44.78125 15.328125 43.796875 
L 15.484375 43.796875 
Q 16.65625 46.09375 18.015625 47.953125 
Q 19.390625 49.8125 21.21875 51.09375 
Q 23.046875 52.390625 25.40625 53.09375 
Q 27.78125 53.8125 30.90625 53.8125 
Q 36.921875 53.8125 40.40625 51.421875 
Q 43.890625 49.03125 45.265625 43.796875 
L 45.40625 43.796875 
Q 46.578125 46.09375 48.046875 47.953125 
Q 49.515625 49.8125 51.46875 51.09375 
Q 53.421875 52.390625 55.859375 53.09375 
Q 58.296875 53.8125 61.421875 53.8125 
Q 65.4375 53.8125 68.328125 52.734375 
Q 71.234375 51.65625 73.09375 49.40625 
Q 74.953125 47.171875 75.828125 43.625 
Q 76.703125 40.09375 76.703125 35.203125 
L 76.703125 0 
L 68.015625 0 
L 68.015625 33.5 
Q 68.015625 37.359375 67.53125 39.9375 
Q 67.046875 42.53125 65.890625 44.109375 
Q 64.75 45.703125 62.890625 46.359375 
Q 61.03125 47.015625 58.34375 47.015625 
Q 55.5625 47.015625 53.3125 45.96875 
Q 51.078125 44.921875 49.484375 42.875 
Q 47.90625 40.828125 47.046875 37.75 
Q 46.1875 34.671875 46.1875 30.609375 
L 46.1875 0 
z
" id="LiberationSans-6d"/>
     </defs>
     <g style="fill:#262626;" transform="translate(284.81015625 385.6934375)scale(0.11 -0.11)">
      <use xlink:href="#LiberationSans-74"/>
      <use x="27.783203125" xlink:href="#LiberationSans-69"/>
      <use x="50.0" xlink:href="#LiberationSans-6d"/>
      <use x="133.30078125" xlink:href="#LiberationSans-65"/>
     </g>
    </g>
   </g>
   <g id="matplotlib.axis_2">
    <g id="ytick_1">
     <g id="line2d_13">
      <path clip-path="url(#pcdf9b338a0)" d="M 72 356.4 
L 518.4 356.4 
" style="fill:none;stroke:#ffffff;stroke-linecap:round;"/>
     </g>
     <g id="line2d_14"/>
     <g id="line2d_15"/>
     <g id="text_6">
      <!-- −18600 -->
      <defs>
       <path d="M 51.265625 19.1875 
Q 51.265625 14.796875 49.875 11.109375 
Q 48.484375 7.421875 45.625 4.734375 
Q 42.78125 2.046875 38.328125 0.53125 
Q 33.890625 -0.984375 27.828125 -0.984375 
Q 21.78125 -0.984375 17.359375 0.53125 
Q 12.9375 2.046875 10.03125 4.703125 
Q 7.125 7.375 5.734375 11.0625 
Q 4.34375 14.75 4.34375 19.09375 
Q 4.34375 22.859375 5.484375 25.78125 
Q 6.640625 28.71875 8.5625 30.828125 
Q 10.5 32.953125 12.96875 34.25 
Q 15.4375 35.546875 18.0625 35.984375 
L 18.0625 36.1875 
Q 15.1875 36.859375 12.90625 38.375 
Q 10.640625 39.890625 9.09375 42.015625 
Q 7.5625 44.140625 6.75 46.71875 
Q 5.953125 49.3125 5.953125 52.203125 
Q 5.953125 55.8125 7.34375 59 
Q 8.734375 62.203125 11.46875 64.625 
Q 14.203125 67.046875 18.25 68.4375 
Q 22.3125 69.828125 27.640625 69.828125 
Q 33.25 69.828125 37.375 68.40625 
Q 41.5 67 44.203125 64.578125 
Q 46.921875 62.15625 48.234375 58.9375 
Q 49.5625 55.71875 49.5625 52.09375 
Q 49.5625 49.265625 48.75 46.671875 
Q 47.953125 44.09375 46.40625 41.96875 
Q 44.875 39.84375 42.59375 38.34375 
Q 40.328125 36.859375 37.359375 36.28125 
L 37.359375 36.078125 
Q 40.328125 35.59375 42.859375 34.296875 
Q 45.40625 33.015625 47.265625 30.890625 
Q 49.125 28.765625 50.1875 25.828125 
Q 51.265625 22.90625 51.265625 19.1875 
M 40.4375 51.609375 
Q 40.4375 54.203125 39.765625 56.34375 
Q 39.109375 58.5 37.59375 60.03125 
Q 36.078125 61.578125 33.640625 62.421875 
Q 31.203125 63.28125 27.640625 63.28125 
Q 24.171875 63.28125 21.78125 62.421875 
Q 19.390625 61.578125 17.84375 60.03125 
Q 16.3125 58.5 15.625 56.34375 
Q 14.9375 54.203125 14.9375 51.609375 
Q 14.9375 49.5625 15.46875 47.40625 
Q 16.015625 45.265625 17.421875 43.5 
Q 18.84375 41.75 21.328125 40.625 
Q 23.828125 39.5 27.734375 39.5 
Q 31.890625 39.5 34.40625 40.625 
Q 36.921875 41.75 38.25 43.5 
Q 39.59375 45.265625 40.015625 47.40625 
Q 40.4375 49.5625 40.4375 51.609375 
M 42.140625 20.015625 
Q 42.140625 22.515625 41.453125 24.828125 
Q 40.765625 27.15625 39.109375 28.9375 
Q 37.453125 30.71875 34.640625 31.8125 
Q 31.84375 32.90625 27.640625 32.90625 
Q 23.78125 32.90625 21.0625 31.8125 
Q 18.359375 30.71875 16.671875 28.90625 
Q 14.984375 27.09375 14.203125 24.71875 
Q 13.421875 22.359375 13.421875 19.828125 
Q 13.421875 16.65625 14.203125 14.03125 
Q 14.984375 11.421875 16.6875 9.546875 
Q 18.40625 7.671875 21.1875 6.640625 
Q 23.96875 5.609375 27.9375 5.609375 
Q 31.9375 5.609375 34.671875 6.640625 
Q 37.40625 7.671875 39.0625 9.546875 
Q 40.71875 11.421875 41.421875 14.078125 
Q 42.140625 16.75 42.140625 20.015625 
" id="LiberationSans-38"/>
       <path d="M 4.9375 29.6875 
L 4.9375 36.8125 
L 53.515625 36.8125 
L 53.515625 29.6875 
z
" id="LiberationSans-2212"/>
      </defs>
      <g style="fill:#262626;" transform="translate(31.3546875 358.9859375)scale(0.1 -0.1)">
       <use xlink:href="#LiberationSans-2212"/>
       <use x="58.3984375" xlink:href="#LiberationSans-31"/>
       <use x="114.013671875" xlink:href="#LiberationSans-38"/>
       <use x="169.62890625" xlink:href="#LiberationSans-36"/>
       <use x="225.244140625" xlink:href="#LiberationSans-30"/>
       <use x="280.859375" xlink:href="#LiberationSans-30"/>
      </g>
     </g>
    </g>
    <g id="ytick_2">
     <g id="line2d_16">
      <path clip-path="url(#pcdf9b338a0)" d="M 72 311.142857 
L 518.4 311.142857 
" style="fill:none;stroke:#ffffff;stroke-linecap:round;"/>
     </g>
     <g id="line2d_17"/>
     <g id="line2d_18"/>
     <g id="text_7">
      <!-- −18400 -->
      <g style="fill:#262626;" transform="translate(31.3546875 313.728794643)scale(0.1 -0.1)">
       <use xlink:href="#LiberationSans-2212"/>
       <use x="58.3984375" xlink:href="#LiberationSans-31"/>
       <use x="114.013671875" xlink:href="#LiberationSans-38"/>
       <use x="169.62890625" xlink:href="#LiberationSans-34"/>
       <use x="225.244140625" xlink:href="#LiberationSans-30"/>
       <use x="280.859375" xlink:href="#LiberationSans-30"/>
      </g>
     </g>
    </g>
    <g id="ytick_3">
     <g id="line2d_19">
      <path clip-path="url(#pcdf9b338a0)" d="M 72 265.885714 
L 518.4 265.885714 
" style="fill:none;stroke:#ffffff;stroke-linecap:round;"/>
     </g>
     <g id="line2d_20"/>
     <g id="line2d_21"/>
     <g id="text_8">
      <!-- −18200 -->
      <g style="fill:#262626;" transform="translate(31.3546875 268.471651786)scale(0.1 -0.1)">
       <use xlink:href="#LiberationSans-2212"/>
       <use x="58.3984375" xlink:href="#LiberationSans-31"/>
       <use x="114.013671875" xlink:href="#LiberationSans-38"/>
       <use x="169.62890625" xlink:href="#LiberationSans-32"/>
       <use x="225.244140625" xlink:href="#LiberationSans-30"/>
       <use x="280.859375" xlink:href="#LiberationSans-30"/>
      </g>
     </g>
    </g>
    <g id="ytick_4">
     <g id="line2d_22">
      <path clip-path="url(#pcdf9b338a0)" d="M 72 220.628571 
L 518.4 220.628571 
" style="fill:none;stroke:#ffffff;stroke-linecap:round;"/>
     </g>
     <g id="line2d_23"/>
     <g id="line2d_24"/>
     <g id="text_9">
      <!-- −18000 -->
      <g style="fill:#262626;" transform="translate(31.3546875 223.214508929)scale(0.1 -0.1)">
       <use xlink:href="#LiberationSans-2212"/>
       <use x="58.3984375" xlink:href="#LiberationSans-31"/>
       <use x="114.013671875" xlink:href="#LiberationSans-38"/>
       <use x="169.62890625" xlink:href="#LiberationSans-30"/>
       <use x="225.244140625" xlink:href="#LiberationSans-30"/>
       <use x="280.859375" xlink:href="#LiberationSans-30"/>
      </g>
     </g>
    </g>
    <g id="ytick_5">
     <g id="line2d_25">
      <path clip-path="url(#pcdf9b338a0)" d="M 72 175.371429 
L 518.4 175.371429 
" style="fill:none;stroke:#ffffff;stroke-linecap:round;"/>
     </g>
     <g id="line2d_26"/>
     <g id="line2d_27"/>
     <g id="text_10">
      <!-- −17800 -->
      <g style="fill:#262626;" transform="translate(31.3546875 177.957366071)scale(0.1 -0.1)">
       <use xlink:href="#LiberationSans-2212"/>
       <use x="58.3984375" xlink:href="#LiberationSans-31"/>
       <use x="114.013671875" xlink:href="#LiberationSans-37"/>
       <use x="169.62890625" xlink:href="#LiberationSans-38"/>
       <use x="225.244140625" xlink:href="#LiberationSans-30"/>
       <use x="280.859375" xlink:href="#LiberationSans-30"/>
      </g>
     </g>
    </g>
    <g id="ytick_6">
     <g id="line2d_28">
      <path clip-path="url(#pcdf9b338a0)" d="M 72 130.114286 
L 518.4 130.114286 
" style="fill:none;stroke:#ffffff;stroke-linecap:round;"/>
     </g>
     <g id="line2d_29"/>
     <g id="line2d_30"/>
     <g id="text_11">
      <!-- −17600 -->
      <g style="fill:#262626;" transform="translate(31.3546875 132.700223214)scale(0.1 -0.1)">
       <use xlink:href="#LiberationSans-2212"/>
       <use x="58.3984375" xlink:href="#LiberationSans-31"/>
       <use x="114.013671875" xlink:href="#LiberationSans-37"/>
       <use x="169.62890625" xlink:href="#LiberationSans-36"/>
       <use x="225.244140625" xlink:href="#LiberationSans-30"/>
       <use x="280.859375" xlink:href="#LiberationSans-30"/>
      </g>
     </g>
    </g>
    <g id="ytick_7">
     <g id="line2d_31">
      <path clip-path="url(#pcdf9b338a0)" d="M 72 84.857143 
L 518.4 84.857143 
" style="fill:none;stroke:#ffffff;stroke-linecap:round;"/>
     </g>
     <g id="line2d_32"/>
     <g id="line2d_33"/>
     <g id="text_12">
      <!-- −17400 -->
      <g style="fill:#262626;" transform="translate(31.3546875 87.4430803571)scale(0.1 -0.1)">
       <use xlink:href="#LiberationSans-2212"/>
       <use x="58.3984375" xlink:href="#LiberationSans-31"/>
       <use x="114.013671875" xlink:href="#LiberationSans-37"/>
       <use x="169.62890625" xlink:href="#LiberationSans-34"/>
       <use x="225.244140625" xlink:href="#LiberationSans-30"/>
       <use x="280.859375" xlink:href="#LiberationSans-30"/>
      </g>
     </g>
    </g>
    <g id="ytick_8">
     <g id="line2d_34">
      <path clip-path="url(#pcdf9b338a0)" d="M 72 39.6 
L 518.4 39.6 
" style="fill:none;stroke:#ffffff;stroke-linecap:round;"/>
     </g>
     <g id="line2d_35"/>
     <g id="line2d_36"/>
     <g id="text_13">
      <!-- −17200 -->
      <g style="fill:#262626;" transform="translate(31.3546875 42.1859375)scale(0.1 -0.1)">
       <use xlink:href="#LiberationSans-2212"/>
       <use x="58.3984375" xlink:href="#LiberationSans-31"/>
       <use x="114.013671875" xlink:href="#LiberationSans-37"/>
       <use x="169.62890625" xlink:href="#LiberationSans-32"/>
       <use x="225.244140625" xlink:href="#LiberationSans-30"/>
       <use x="280.859375" xlink:href="#LiberationSans-30"/>
      </g>
     </g>
    </g>
   </g>
   <g id="line2d_37">
    <path clip-path="url(#pcdf9b338a0)" d="M 72 327.786292 
L 72.223312 324.433176 
L 72.446623 324.433176 
L 72.669935 322.441862 
L 72.893247 318.45697 
L 73.116558 320.448285 
L 73.563182 320.448285 
L 74.009805 331.173013 
L 74.233117 320.448285 
L 74.456428 331.173013 
L 74.67974 327.786292 
L 74.903052 335.157905 
L 75.126363 327.786292 
L 75.349675 329.777606 
L 75.572986 324.433176 
L 75.796298 329.777606 
L 76.01961 331.76892 
L 76.242921 325.792715 
L 76.466233 327.786292 
L 76.689545 325.792715 
L 77.136168 315.067986 
L 77.35948 315.067986 
L 77.582791 320.448285 
L 77.806103 322.441862 
L 78.029415 329.777606 
L 78.252726 322.441862 
L 78.476038 322.441862 
L 78.69935 324.433176 
L 78.922661 324.433176 
L 79.145973 327.786292 
L 79.592596 327.786292 
L 79.815908 324.433176 
L 80.03922 326.42449 
L 80.262531 319.052878 
L 80.485843 317.061563 
L 80.932466 317.061563 
L 81.155778 322.441862 
L 81.37909 317.061563 
L 81.602401 320.448285 
L 81.825713 317.061563 
L 82.049025 317.061563 
L 82.495648 313.076672 
L 82.942271 288.408217 
L 83.388894 301.12426 
L 83.612206 293.788516 
L 83.835518 299.132946 
L 84.058829 293.788516 
L 84.282141 295.77983 
L 84.505453 301.12426 
L 84.728764 297.141632 
L 84.952076 289.805888 
L 85.175388 291.797202 
L 85.398699 284.425589 
L 85.622011 295.150318 
L 85.845323 289.805888 
L 86.068634 295.150318 
L 86.291946 286.416903 
L 86.515258 286.416903 
L 86.738569 291.797202 
L 86.961881 286.416903 
L 87.408504 282.432012 
L 87.855128 273.70086 
L 88.078439 277.087582 
L 88.301751 263.739763 
L 88.748374 258.395333 
L 88.971686 277.853476 
L 89.194997 270.481863 
L 89.418309 270.481863 
L 89.641621 275.862162 
L 89.864932 263.146119 
L 90.088244 271.113639 
L 90.311556 267.128747 
L 90.534867 253.015034 
L 90.981491 262.380225 
L 91.428114 258.99124 
L 91.651426 258.99124 
L 91.874737 246.275197 
L 92.321361 251.655496 
L 92.544672 246.275197 
L 92.767984 248.266512 
L 92.991296 255.638124 
L 93.214607 253.64681 
L 93.661231 271.707283 
L 93.884542 269.715969 
L 94.107854 273.70086 
L 94.554477 260.982554 
L 94.777789 266.362853 
L 95.001101 255.008612 
L 95.224412 262.380225 
L 95.671036 262.380225 
L 95.894347 260.38891 
L 96.117659 253.015034 
L 96.564282 256.999926 
L 96.787594 253.64681 
L 97.234217 258.99124 
L 97.457529 258.99124 
L 97.68084 246.275197 
L 98.127464 255.008612 
L 98.574087 248.266512 
L 98.797399 253.64681 
L 99.02071 253.64681 
L 99.244022 258.99124 
L 99.690645 240.930767 
L 99.913957 246.275197 
L 100.137269 244.283883 
L 100.36058 240.930767 
L 100.583892 242.922082 
L 101.030515 252.251403 
L 101.253827 248.266512 
L 101.477139 250.257826 
L 101.70045 253.64681 
L 101.923762 246.275197 
L 102.147074 248.266512 
L 102.370385 248.266512 
L 102.593697 239.533097 
L 102.817009 239.533097 
L 103.263632 248.898287 
L 103.486943 241.526674 
L 103.710255 252.251403 
L 103.933567 241.526674 
L 104.156878 237.541783 
L 104.38019 237.541783 
L 104.603502 232.197353 
L 104.826813 235.550469 
L 105.050125 232.197353 
L 105.273437 235.550469 
L 105.496748 240.930767 
L 105.72006 240.930767 
L 105.943372 246.275197 
L 106.166683 240.930767 
L 106.613307 250.257826 
L 106.836618 244.913396 
L 107.05993 242.922082 
L 107.283242 248.266512 
L 107.506553 232.197353 
L 107.729865 239.533097 
L 108.176488 239.533097 
L 108.3998 237.541783 
L 108.623112 237.541783 
L 108.846423 240.930767 
L 109.293047 235.550469 
L 109.516358 240.930767 
L 109.73967 242.922082 
L 109.962981 250.257826 
L 110.409605 250.257826 
L 110.632916 236.182244 
L 110.856228 239.533097 
L 111.07954 239.533097 
L 111.302851 234.188667 
L 111.749475 234.188667 
L 111.972786 228.808369 
L 112.196098 234.188667 
L 112.41941 232.197353 
L 112.642721 234.188667 
L 112.866033 234.188667 
L 113.089345 242.922082 
L 113.312656 234.188667 
L 113.535968 236.775889 
L 113.75928 232.79326 
L 113.982591 232.79326 
L 114.205903 238.173559 
L 114.429215 240.164873 
L 114.652526 243.517989 
L 114.875838 238.173559 
L 115.09915 246.906973 
L 115.322461 247.500617 
L 115.545773 245.509303 
L 115.769085 252.880916 
L 115.992396 245.509303 
L 116.215708 248.898287 
L 116.43902 248.898287 
L 116.662331 246.906973 
L 117.108954 253.64681 
L 117.332266 248.266512 
L 117.555578 250.257826 
L 117.778889 226.817054 
L 118.002201 236.945876 
L 118.225513 229.574263 
L 118.448824 240.298992 
L 118.672136 245.67929 
L 118.895448 240.298992 
L 119.118759 253.015034 
L 119.342071 242.290306 
L 119.565383 246.275197 
L 119.788694 240.930767 
L 120.012006 240.930767 
L 120.235318 248.266512 
L 120.458629 240.930767 
L 120.681941 242.290306 
L 120.905253 236.945876 
L 121.128564 244.283883 
L 121.351876 240.930767 
L 121.575188 246.275197 
L 121.798499 238.939453 
L 122.021811 236.945876 
L 122.245123 238.939453 
L 122.468434 233.559154 
L 122.691746 236.945876 
L 122.915058 233.559154 
L 123.138369 238.939453 
L 123.361681 236.945876 
L 123.584992 242.290306 
L 123.808304 242.290306 
L 124.031616 234.954562 
L 124.254927 238.939453 
L 124.478239 240.930767 
L 124.924862 233.559154 
L 125.148174 237.541783 
L 125.371486 232.197353 
L 125.818109 236.182244 
L 126.264732 216.724101 
L 126.488044 220.077217 
L 126.711356 225.457516 
L 126.934667 227.44883 
L 127.381291 218.08364 
L 127.604602 220.077217 
L 127.827914 223.463939 
L 128.051226 210.747896 
L 128.274537 214.101011 
L 128.497849 226.817054 
L 128.721161 224.82574 
L 128.944472 218.08364 
L 129.391096 218.08364 
L 129.614407 225.457516 
L 129.837719 220.077217 
L 130.061031 220.077217 
L 130.284342 214.732787 
L 130.507654 216.724101 
L 130.730965 209.352488 
L 130.954277 212.73921 
L 131.177589 218.08364 
L 131.4009 212.73921 
L 131.624212 212.73921 
L 131.847524 218.08364 
L 132.070835 220.077217 
L 132.294147 218.08364 
L 132.74077 218.08364 
L 132.964082 214.101011 
L 133.187394 221.472624 
L 133.410705 223.463939 
L 133.634017 212.73921 
L 134.08064 212.73921 
L 134.303952 218.08364 
L 134.527264 218.08364 
L 134.750575 214.732787 
L 134.973887 220.077217 
L 135.197199 212.73921 
L 135.42051 212.73921 
L 135.643822 210.747896 
L 136.090445 223.463939 
L 136.537069 223.463939 
L 136.983692 212.73921 
L 137.207004 214.732787 
L 137.430315 214.732787 
L 137.653627 218.08364 
L 137.876938 212.73921 
L 138.10025 218.08364 
L 138.323562 210.747896 
L 138.546873 214.101011 
L 138.770185 214.101011 
L 138.993497 210.747896 
L 139.216808 216.092326 
L 139.663432 203.376283 
L 140.110055 210.747896 
L 140.333367 221.472624 
L 140.556678 214.101011 
L 140.77999 214.101011 
L 141.003302 216.092326 
L 141.226613 214.101011 
L 141.449925 203.376283 
L 142.11986 203.376283 
L 142.343172 208.756581 
L 142.566483 203.376283 
L 142.789795 205.367597 
L 143.013107 205.367597 
L 143.236418 210.747896 
L 143.45973 208.756581 
L 143.906353 212.73921 
L 144.129665 212.73921 
L 144.352976 213.335117 
L 144.576288 213.335117 
L 144.7996 214.732787 
L 145.022911 209.352488 
L 145.246223 200.619074 
L 145.469535 198.62776 
L 145.692846 205.999373 
L 145.916158 204.008058 
L 146.13947 193.28333 
L 146.362781 195.274644 
L 146.586093 207.990687 
L 147.032716 193.28333 
L 147.256028 198.62776 
L 147.47934 193.28333 
L 147.702651 193.28333 
L 148.149275 184.549915 
L 148.372586 184.549915 
L 148.595898 186.54123 
L 148.81921 182.558601 
L 149.042521 187.903031 
L 149.265833 180.565024 
L 149.489145 167.848981 
L 149.712456 165.857667 
L 150.15908 171.202097 
L 150.382391 169.210782 
L 150.829015 173.193411 
L 151.052326 171.202097 
L 151.275638 173.193411 
L 151.498949 165.857667 
L 151.722261 173.193411 
L 152.168884 158.486054 
L 152.392196 160.477368 
L 152.615508 155.132938 
L 152.838819 160.477368 
L 153.062131 160.477368 
L 153.285443 159.881461 
L 153.508754 151.148047 
L 153.732066 156.492477 
L 153.955378 158.486054 
L 154.178689 158.486054 
L 154.625313 153.141624 
L 154.848624 165.857667 
L 155.071936 169.210782 
L 155.295248 161.872775 
L 155.518559 163.866352 
L 155.741871 160.477368 
L 155.965183 153.141624 
L 156.188494 156.492477 
L 156.411806 151.148047 
L 156.635118 158.486054 
L 156.858429 151.148047 
L 157.081741 156.492477 
L 157.305053 158.486054 
L 157.528364 156.492477 
L 157.751676 151.148047 
L 157.974987 161.872775 
L 158.421611 151.148047 
L 158.644922 154.501162 
L 158.868234 149.156732 
L 159.091546 154.501162 
L 159.538169 147.165418 
L 159.761481 156.492477 
L 159.984792 152.509848 
L 160.208104 154.501162 
L 160.431416 154.501162 
L 160.654727 156.492477 
L 160.878039 154.501162 
L 161.101351 149.156732 
L 161.324662 147.165418 
L 161.547974 149.156732 
L 161.771286 154.501162 
L 161.994597 152.509848 
L 162.217909 147.165418 
L 162.441221 150.518534 
L 162.664532 147.165418 
L 162.887844 152.509848 
L 163.111156 147.165418 
L 163.334467 147.165418 
L 163.781091 156.492477 
L 164.004402 161.872775 
L 164.227714 159.881461 
L 164.451026 165.225891 
L 164.674337 163.866352 
L 165.344272 172.597504 
L 165.567584 146.837748 
L 166.014207 168.748994 
L 166.237519 157.428358 
L 166.46083 138.73611 
L 166.684142 158.787897 
L 166.907454 153.443467 
L 167.130765 151.452153 
L 167.354077 151.452153 
L 167.577389 172.90161 
L 167.8007 172.90161 
L 168.024012 174.892924 
L 168.247324 164.168196 
L 168.470635 160.185567 
L 168.693947 160.185567 
L 168.917259 152.813954 
L 169.363882 165.529997 
L 169.587194 167.521311 
L 170.257129 143.484633 
L 170.703752 139.502004 
L 170.927064 142.852857 
L 171.150375 140.861543 
L 171.596998 155.571163 
L 172.266933 141.627437 
L 172.490245 141.627437 
L 172.713557 143.618751 
L 172.936868 134.28943 
L 173.16018 143.618751 
L 173.383492 141.627437 
L 173.606803 154.209361 
L 173.830115 159.553791 
L 174.053427 152.218047 
L 174.276738 156.796583 
L 174.50005 152.813954 
L 174.723362 154.805268 
L 174.946673 165.529997 
L 175.169985 158.194253 
L 175.393297 165.529997 
L 175.616608 163.538683 
L 175.83992 163.538683 
L 176.063232 165.529997 
L 176.286543 163.538683 
L 176.509855 165.529997 
L 176.733167 165.529997 
L 176.956478 167.521311 
L 177.17979 165.529997 
L 177.403102 169.512626 
L 177.626413 182.230931 
L 177.849725 178.877816 
L 178.073037 182.230931 
L 178.51966 178.24604 
L 178.742971 174.263411 
L 178.966283 172.90161 
L 179.189595 176.254726 
L 179.412906 174.263411 
L 179.636218 175.658819 
L 179.85953 179.64371 
L 180.082841 174.263411 
L 180.306153 174.263411 
L 180.752776 168.918981 
L 180.976088 166.925404 
L 181.1994 163.538683 
L 181.422711 168.918981 
L 181.646023 165.529997 
L 181.869335 165.529997 
L 182.092646 167.521311 
L 182.315958 170.910296 
L 182.53927 169.512626 
L 182.762581 174.892924 
L 182.985893 170.910296 
L 183.209205 172.90161 
L 183.432516 169.512626 
L 183.655828 160.185567 
L 183.87914 167.521311 
L 184.102451 163.538683 
L 184.325763 163.538683 
L 184.549075 168.918981 
L 184.995698 158.194253 
L 185.442321 158.194253 
L 185.665633 150.820377 
L 185.888944 148.829063 
L 186.112256 152.813954 
L 186.335568 145.475947 
L 186.558879 150.820377 
L 187.228814 144.846434 
L 187.452126 144.846434 
L 187.675438 146.837748 
L 187.898749 144.846434 
L 188.122061 137.508427 
L 188.345373 137.508427 
L 188.568684 128.777275 
L 188.791996 125.388291 
L 189.015308 132.128128 
L 189.238619 132.128128 
L 189.461931 132.759904 
L 189.908554 132.759904 
L 190.131866 130.76859 
L 190.355178 138.104334 
L 190.578489 130.76859 
L 190.801801 128.777275 
L 191.025113 128.777275 
L 191.248424 136.11302 
L 191.918359 146.837748 
L 192.141671 141.493318 
L 192.364982 139.502004 
L 192.811606 139.502004 
L 193.034917 144.846434 
L 193.258229 139.502004 
L 193.481541 148.829063 
L 193.704852 141.493318 
L 193.928164 146.837748 
L 194.151476 146.837748 
L 194.374787 141.493318 
L 194.821411 137.508427 
L 195.044722 144.846434 
L 195.268034 137.508427 
L 195.491346 135.517113 
L 195.714657 137.508427 
L 195.937969 144.846434 
L 196.384592 137.508427 
L 196.831216 137.508427 
L 197.054527 126.783698 
L 197.277839 137.508427 
L 197.724462 126.783698 
L 197.947774 126.783698 
L 198.171086 124.792384 
L 198.394397 124.792384 
L 198.617709 122.80107 
L 198.841021 124.792384 
L 199.064332 122.80107 
L 199.287644 119.412085 
L 199.734267 123.396977 
L 200.18089 107.327818 
L 200.404202 109.319132 
L 200.627514 109.319132 
L 200.850825 107.327818 
L 201.074137 101.947519 
L 201.297449 101.947519 
L 201.52076 95.205419 
L 201.967384 95.205419 
L 202.190695 87.869675 
L 202.414007 87.869675 
L 202.637319 89.860989 
L 202.86063 93.845881 
L 203.083942 91.852304 
L 203.307254 93.845881 
L 203.530565 93.845881 
L 203.977189 89.860989 
L 204.2005 97.196734 
L 204.423812 91.852304 
L 204.647124 95.205419 
L 204.870435 91.852304 
L 205.093747 97.196734 
L 205.317059 91.852304 
L 205.54037 91.852304 
L 205.763682 86.472005 
L 205.986993 86.472005 
L 206.210305 81.127575 
L 206.433617 86.472005 
L 206.88024 101.181625 
L 207.103552 93.845881 
L 207.326863 91.852304 
L 207.550175 84.480691 
L 207.773487 87.869675 
L 207.996798 87.869675 
L 208.443422 83.884784 
L 208.666733 80.498062 
L 208.890045 69.177426 
L 209.113357 69.177426 
L 209.336668 78.504485 
L 209.55998 71.168741 
L 209.783292 71.168741 
L 210.006603 65.788442 
L 210.229915 71.168741 
L 210.453227 80.498062 
L 210.676538 75.153632 
L 210.89985 78.504485 
L 211.346473 73.160055 
L 212.016408 91.222791 
L 212.23972 87.869675 
L 212.463032 78.504485 
L 212.686343 85.878361 
L 213.132966 89.229214 
L 213.356278 110.678671 
L 213.57959 107.327818 
L 213.802901 95.971314 
L 214.026213 103.342927 
L 214.696148 113.301761 
L 214.91946 109.915039 
L 215.366083 109.915039 
L 215.589395 120.639768 
L 216.036018 113.897668 
L 216.25933 101.181625 
L 216.705953 93.214105 
L 216.929265 93.214105 
L 217.152576 82.489376 
L 217.375888 91.852304 
L 217.5992 85.112466 
L 217.822511 101.813401 
L 218.045823 95.837195 
L 218.269135 80.498062 
L 218.492446 79.136261 
L 218.715758 79.136261 
L 218.93907 81.127575 
L 219.162381 81.723482 
L 219.385693 74.387738 
L 219.609005 74.387738 
L 219.832316 79.732168 
L 220.055628 77.740854 
L 220.278939 62.435326 
L 220.502251 77.740854 
L 220.725563 73.755962 
L 220.948874 77.740854 
L 221.172186 77.740854 
L 221.395498 83.121152 
L 221.618809 85.112466 
L 222.065433 99.190311 
L 222.288744 93.845881 
L 222.512056 95.837195 
L 222.735368 95.837195 
L 222.958679 99.190311 
L 223.181991 104.570609 
L 223.405303 128.011381 
L 223.628614 128.011381 
L 223.851926 117.286652 
L 224.298549 122.631082 
L 224.521861 120.639768 
L 224.745173 133.355811 
L 224.968484 126.020067 
L 225.191796 122.631082 
L 225.415108 115.295338 
L 225.638419 122.631082 
L 225.861731 115.295338 
L 226.085043 136.744795 
L 226.308354 138.104334 
L 226.531666 141.493318 
L 226.754977 127.379605 
L 226.978289 123.396977 
L 227.201601 132.759904 
L 227.424912 125.388291 
L 227.648224 130.76859 
L 227.871536 120.043861 
L 228.094847 130.76859 
L 228.541471 130.76859 
L 228.764782 134.751218 
L 228.988094 136.11302 
L 229.211406 146.837748 
L 229.434717 143.484633 
L 229.658029 150.820377 
L 229.881341 145.475947 
L 230.104652 146.837748 
L 230.774587 138.104334 
L 230.997899 140.095648 
L 231.444522 140.095648 
L 231.891146 129.37092 
L 232.337769 138.104334 
L 232.561081 140.095648 
L 232.784392 147.469524 
L 233.231016 134.751218 
L 233.454327 127.379605 
L 233.677639 129.37092 
L 233.90095 127.379605 
L 234.124262 127.379605 
L 234.347574 129.37092 
L 234.570885 127.379605 
L 234.794197 134.751218 
L 235.24082 122.035175 
L 235.464132 122.035175 
L 235.687444 124.02649 
L 235.910755 122.035175 
L 236.134067 125.388291 
L 236.357379 138.104334 
L 236.58069 136.11302 
L 237.027314 136.11302 
L 237.250625 141.493318 
L 237.473937 143.484633 
L 237.697249 141.493318 
L 237.92056 136.11302 
L 238.143872 136.11302 
L 238.367184 130.76859 
L 238.590495 143.484633 
L 238.813807 141.493318 
L 239.037119 138.104334 
L 239.26043 143.484633 
L 239.483742 136.11302 
L 239.930365 136.11302 
L 240.153677 141.493318 
L 240.376988 132.128128 
L 240.823612 136.11302 
L 241.046923 128.777275 
L 241.270235 136.11302 
L 241.493547 130.76859 
L 241.716858 141.493318 
L 241.94017 139.502004 
L 242.163482 139.502004 
L 242.386793 144.846434 
L 242.610105 142.852857 
L 242.833417 144.846434 
L 243.056728 139.502004 
L 243.28004 152.218047 
L 243.503352 144.846434 
L 243.726663 146.837748 
L 243.949975 146.837748 
L 244.173287 155.571163 
L 244.61991 155.571163 
L 244.843222 152.218047 
L 245.066533 141.493318 
L 245.289845 157.562477 
L 245.513157 155.571163 
L 245.736468 150.226733 
L 245.95978 150.226733 
L 246.183092 141.493318 
L 246.406403 139.502004 
L 246.629715 141.493318 
L 246.853027 139.502004 
L 247.076338 144.846434 
L 247.29965 142.852857 
L 247.522961 139.502004 
L 247.746273 139.502004 
L 247.969585 141.493318 
L 248.192896 148.829063 
L 248.416208 139.502004 
L 248.63952 139.502004 
L 248.862831 141.493318 
L 249.086143 141.493318 
L 249.309455 134.121705 
L 249.532766 132.128128 
L 249.97939 132.128128 
L 250.202701 130.136814 
L 250.649325 140.861543 
L 251.095948 140.861543 
L 251.31926 133.525798 
L 251.765883 133.525798 
L 251.989195 128.1455 
L 252.212506 126.151923 
L 252.435818 122.169294 
L 252.65913 129.540907 
L 252.882441 127.549593 
L 253.105753 130.902708 
L 253.329065 130.902708 
L 253.552376 125.558278 
L 253.998999 140.265636 
L 254.445623 140.265636 
L 254.668934 145.610066 
L 254.892246 138.274321 
L 255.562181 138.274321 
L 255.785493 134.885337 
L 256.008804 136.876651 
L 256.232116 131.532221 
L 256.455428 129.540907 
L 256.678739 133.525798 
L 256.902051 129.540907 
L 257.125363 131.532221 
L 257.348674 131.532221 
L 257.571986 136.876651 
L 257.795298 129.540907 
L 258.018609 129.540907 
L 258.241921 124.160608 
L 258.688544 120.17798 
L 258.911856 127.549593 
L 259.135168 124.160608 
L 259.358479 124.160608 
L 259.581791 129.540907 
L 259.805103 129.540907 
L 260.028414 131.532221 
L 260.251726 126.151923 
L 260.698349 122.80107 
L 260.921661 130.136814 
L 261.144972 126.783698 
L 261.368284 130.136814 
L 261.591596 128.1455 
L 261.814907 130.136814 
L 262.038219 133.525798 
L 262.261531 132.128128 
L 262.484842 132.128128 
L 262.708154 135.517113 
L 262.931466 128.1455 
L 263.154777 133.525798 
L 263.378089 131.532221 
L 263.824712 135.517113 
L 264.271336 142.852857 
L 264.494647 142.852857 
L 264.717959 144.846434 
L 265.164582 132.128128 
L 265.387894 130.136814 
L 265.611206 130.136814 
L 265.834517 126.151923 
L 266.057829 113.43588 
L 266.281141 116.824864 
L 266.504452 77.289107 
L 266.727764 120.783929 
L 266.951076 120.188022 
L 267.174387 118.792614 
L 267.621011 97.343157 
L 267.844322 98.738564 
L 268.067634 102.723456 
L 268.290945 104.082994 
L 268.514257 111.45687 
L 269.184192 96.74725 
L 269.407504 108.83378 
L 269.630815 93.528253 
L 269.854127 97.513144 
L 270.077439 111.590989 
L 270.30075 116.971287 
L 270.524062 114.97771 
L 270.747374 115.573617 
L 270.970685 124.938807 
L 271.193997 115.573617 
L 271.417309 119.558509 
L 271.64062 110.229187 
L 271.863932 115.573617 
L 272.087244 113.582303 
L 272.310555 113.582303 
L 272.533867 108.237873 
L 272.757179 106.246559 
L 272.98049 102.261667 
L 273.203802 78.955014 
L 273.427114 93.662372 
L 273.650425 84.335313 
L 273.873737 89.679743 
L 274.097049 91.671057 
L 274.32036 91.671057 
L 274.543672 88.317942 
L 274.766983 91.671057 
L 274.990295 89.679743 
L 275.436918 89.679743 
L 275.66023 87.686166 
L 276.106853 91.671057 
L 276.330165 91.671057 
L 276.553477 86.326627 
L 276.776788 87.686166 
L 277.0001 95.060042 
L 277.223412 95.060042 
L 277.446723 104.3871 
L 277.670035 105.78477 
L 278.116658 115.111829 
L 278.33997 113.120515 
L 278.563282 120.492128 
L 278.786593 116.509499 
L 279.009905 119.860352 
L 279.233217 130.58508 
L 279.456528 123.249336 
L 279.67984 126.602452 
L 279.903152 126.602452 
L 280.126463 119.266708 
L 280.349775 124.611138 
L 280.573087 119.266708 
L 280.796398 117.27313 
L 281.01971 120.626246 
L 281.243022 118.634932 
L 281.466333 120.626246 
L 281.689645 120.626246 
L 281.912956 122.61756 
L 282.136268 122.61756 
L 282.35958 115.281816 
L 282.582891 131.982751 
L 282.806203 131.982751 
L 283.029515 129.991436 
L 283.252826 137.327181 
L 283.476138 137.327181 
L 283.69945 129.991436 
L 283.922761 127.997859 
L 284.146073 124.611138 
L 284.369385 135.335866 
L 284.592696 137.327181 
L 284.816008 135.335866 
L 285.03932 135.335866 
L 285.262631 133.342289 
L 285.485943 127.997859 
L 285.709255 131.350975 
L 285.932566 131.350975 
L 286.155878 129.359661 
L 286.37919 138.722588 
L 286.602501 136.731273 
L 287.049125 149.447316 
L 287.495748 168.905459 
L 287.71906 163.525161 
L 288.165683 174.249889 
L 288.388994 172.258575 
L 288.835618 162.929254 
L 289.058929 157.548955 
L 289.282241 166.282369 
L 289.505553 159.542532 
L 289.728864 166.914145 
L 289.952176 157.548955 
L 290.175488 173.653982 
L 290.398799 162.299741 
L 290.845423 159.542532 
L 291.068734 170.267261 
L 291.292046 161.533846 
L 291.515358 163.525161 
L 291.738669 163.525161 
L 291.961981 160.172045 
L 292.185293 168.905459 
L 292.408604 166.914145 
L 292.855228 176.241204 
L 293.078539 168.905459 
L 293.301851 168.905459 
L 293.525163 170.267261 
L 293.748474 177.638874 
L 293.971786 177.638874 
L 294.195098 175.647559 
L 294.418409 164.922831 
L 294.641721 164.922831 
L 294.865033 152.204525 
L 295.088344 155.557641 
L 295.311656 162.929254 
L 295.534967 153.566326 
L 295.758279 155.557641 
L 295.981591 152.204525 
L 296.204902 153.566326 
L 296.428214 146.230582 
L 296.874837 149.581435 
L 297.098149 151.575012 
L 297.321461 149.581435 
L 297.544772 162.299741 
L 297.768084 160.306164 
L 297.991396 154.961734 
L 298.214707 152.970419 
L 298.438019 152.970419 
L 298.661331 147.590121 
L 298.884642 150.979105 
L 299.107954 150.979105 
L 299.331266 157.718942 
L 299.554577 154.332221 
L 299.777889 155.727628 
L 300.001201 159.712519 
L 300.224512 150.347329 
L 300.671136 150.347329 
L 300.894447 152.338644 
L 301.117759 128.897872 
L 301.341071 134.278171 
L 301.564382 132.286856 
L 301.787694 141.018008 
L 302.011006 141.018008 
L 302.234317 137.631286 
L 302.457629 143.011585 
L 303.127564 131.655081 
L 303.350875 133.050488 
L 303.574187 135.637709 
L 303.797499 141.018008 
L 304.02081 139.026694 
L 304.244122 141.018008 
L 304.467434 148.356015 
L 304.690745 146.362438 
L 304.914057 148.356015 
L 305.137369 154.332221 
L 305.36068 148.987791 
L 305.583992 146.994214 
L 305.807304 146.994214 
L 306.030615 182.521515 
L 306.253927 161.072058 
L 306.477239 171.796787 
L 306.70055 166.452357 
L 306.923862 166.452357 
L 307.147174 161.072058 
L 307.370485 166.452357 
L 307.593797 155.727628 
L 307.817109 165.056949 
L 308.04042 163.063372 
L 308.263732 155.727628 
L 308.487044 155.727628 
L 308.710355 157.718942 
L 308.933667 155.727628 
L 309.156978 150.347329 
L 309.38029 151.742737 
L 309.603602 157.087167 
L 309.826913 151.742737 
L 310.050225 151.742737 
L 310.273537 149.751422 
L 310.496848 162.467465 
L 310.72016 155.095852 
L 311.166783 155.095852 
L 311.390095 149.751422 
L 311.613407 153.736314 
L 311.836718 153.736314 
L 312.06003 155.727628 
L 312.506653 162.467465 
L 312.729965 155.095852 
L 312.953277 162.467465 
L 313.176588 155.095852 
L 313.3999 157.087167 
L 313.846523 149.751422 
L 314.069835 149.751422 
L 314.293147 153.104538 
L 314.516458 153.104538 
L 315.186393 169.805472 
L 315.409705 162.467465 
L 315.633017 160.476151 
L 315.856328 165.820581 
L 316.07964 160.476151 
L 316.302951 165.820581 
L 316.526263 165.820581 
L 316.749575 173.192194 
L 316.972886 173.192194 
L 317.196198 168.747777 
L 317.41951 152.64275 
L 317.642821 154.04042 
L 317.866133 139.3308 
L 318.089445 144.67523 
L 318.312756 139.3308 
L 318.536068 143.315691 
L 318.75938 139.3308 
L 318.982691 122.629865 
L 319.206003 132.590962 
L 319.429315 132.590962 
L 319.652626 117.881342 
L 319.875938 132.590962 
L 320.09925 128.606071 
L 320.322561 130.597385 
L 320.545873 137.935392 
L 320.769185 132.590962 
L 320.992496 133.816382 
L 321.215808 124.453455 
L 321.43912 126.444769 
L 321.662431 117.115448 
L 321.885743 117.115448 
L 322.109055 109.743835 
L 322.332366 115.124134 
L 322.555678 107.752521 
L 322.778989 120.468564 
L 323.002301 113.132819 
L 323.225613 120.468564 
L 323.672236 124.453455 
L 323.895548 124.453455 
L 324.342171 117.115448 
L 324.565483 117.115448 
L 324.788794 122.459878 
L 325.012106 124.453455 
L 325.235418 109.743835 
L 325.458729 113.132819 
L 325.682041 105.761206 
L 325.905353 113.132819 
L 326.128664 111.141505 
L 326.351976 111.141505 
L 326.575288 103.767629 
L 326.798599 107.156614 
L 327.021911 105.165299 
L 327.245223 112.501044 
L 327.468534 110.509729 
L 327.691846 110.509729 
L 327.915158 112.501044 
L 328.138469 107.156614 
L 328.361781 105.165299 
L 328.585093 114.492358 
L 328.808404 107.156614 
L 329.031716 111.141505 
L 329.255028 112.501044 
L 329.478339 116.485935 
L 329.701651 109.147928 
L 329.924962 109.147928 
L 330.148274 107.156614 
L 330.371586 112.501044 
L 330.594897 112.501044 
L 331.041521 115.890028 
L 331.264832 115.890028 
L 331.711456 111.905137 
L 332.158079 123.225772 
L 332.381391 121.234458 
L 332.604702 117.881342 
L 332.828014 112.501044 
L 333.051326 110.509729 
L 333.274637 115.890028 
L 333.497949 106.524838 
L 333.721261 111.905137 
L 333.944572 103.171722 
L 334.167884 110.509729 
L 334.391196 103.171722 
L 334.837819 111.905137 
L 335.061131 109.913822 
L 335.284442 109.282047 
L 335.507754 101.314527 
L 335.731066 101.946302 
L 335.954377 101.946302 
L 336.177689 92.581112 
L 336.401001 99.954988 
L 336.624312 99.954988 
L 336.847624 110.679717 
L 337.070935 105.299418 
L 337.517559 112.671031 
L 337.74087 110.679717 
L 337.964182 105.299418 
L 338.187494 108.68614 
L 338.410805 108.68614 
L 338.634117 99.323212 
L 338.857429 99.323212 
L 339.08074 97.331898 
L 339.304052 104.703511 
L 339.527364 97.331898 
L 339.750675 104.703511 
L 339.973987 102.712197 
L 340.42061 106.06305 
L 340.643922 98.727305 
L 340.867234 100.71862 
L 341.090545 106.06305 
L 341.313857 104.071735 
L 341.537169 96.735991 
L 341.76048 104.071735 
L 341.983792 98.727305 
L 342.207104 98.727305 
L 342.430415 93.347007 
L 343.323662 93.347007 
L 343.546973 86.011262 
L 343.770285 84.019948 
L 343.993597 73.295219 
L 344.44022 86.011262 
L 344.886843 86.011262 
L 345.110155 80.630964 
L 345.78009 80.630964 
L 346.003402 82.622278 
L 346.226713 82.622278 
L 346.450025 89.993891 
L 346.673337 80.630964 
L 346.896648 80.630964 
L 347.11996 73.295219 
L 347.343272 79.269162 
L 347.566583 66.553119 
L 347.789895 79.269162 
L 348.013207 77.277848 
L 348.236518 71.897549 
L 348.45983 72.529325 
L 348.683142 83.254054 
L 349.129765 83.254054 
L 349.353077 86.607169 
L 349.576388 81.262739 
L 349.7997 81.262739 
L 350.023012 91.987468 
L 350.246323 91.987468 
L 350.469635 88.002577 
L 350.692946 99.323212 
L 350.916258 91.987468 
L 351.13957 93.978782 
L 351.362881 97.331898 
L 351.586193 93.978782 
L 351.809505 99.323212 
L 352.032816 97.331898 
L 352.47944 84.613592 
L 352.926063 88.598484 
L 353.149375 81.262739 
L 353.595998 81.262739 
L 353.81931 86.607169 
L 354.042621 77.277848 
L 354.265933 77.277848 
L 354.489245 84.613592 
L 354.712556 73.888864 
L 355.382491 94.574689 
L 355.829115 83.254054 
L 356.052426 83.254054 
L 356.275738 99.323212 
L 356.49905 95.970097 
L 356.722361 97.961411 
L 356.945673 94.574689 
L 357.168984 96.566004 
L 357.392296 96.566004 
L 357.615608 103.937617 
L 357.838919 98.557318 
L 358.062231 97.197779 
L 358.285543 109.913822 
L 358.508854 100.548632 
L 358.732166 102.542209 
L 358.955478 97.197779 
L 359.178789 99.189094 
L 359.402101 97.197779 
L 359.625413 97.197779 
L 359.848724 107.922508 
L 360.072036 102.542209 
L 360.518659 102.542209 
L 360.741971 107.922508 
L 361.188594 102.542209 
L 361.411906 107.922508 
L 361.635218 104.533524 
L 361.858529 109.913822 
L 362.081841 102.542209 
L 362.305153 105.928931 
L 362.751776 100.548632 
L 362.975088 107.922508 
L 363.421711 107.922508 
L 363.645023 113.266938 
L 363.868334 107.922508 
L 364.314957 115.258252 
L 364.538269 113.266938 
L 364.761581 109.913822 
L 364.984892 115.258252 
L 365.208204 107.922508 
L 365.431516 107.922508 
L 365.654827 115.258252 
L 365.878139 113.266938 
L 366.101451 113.266938 
L 366.324762 118.647237 
L 366.771386 107.922508 
L 366.994697 107.922508 
L 367.218009 102.542209 
L 367.441321 116.485935 
L 367.664632 108.516152 
L 368.111256 148.064214 
L 368.334567 147.29832 
L 368.781191 160.014363 
L 369.004502 172.732668 
L 369.227814 174.092207 
L 369.451126 158.023048 
L 369.674437 163.367478 
L 370.121061 152.64275 
L 370.344372 132.590962 
L 370.567684 126.614757 
L 370.790995 133.950501 
L 371.014307 131.959187 
L 371.237619 113.896451 
L 371.46093 124.62118 
L 371.684242 124.62118 
L 371.907554 125.982981 
L 372.354177 95.204202 
L 372.577489 100.548632 
L 373.024112 76.341966 
L 373.247424 75.748322 
L 373.694047 90.455679 
L 373.917359 79.730951 
L 374.14067 81.722265 
L 374.363982 67.610815 
L 374.587294 80.326858 
L 374.810605 85.707156 
L 375.033917 85.707156 
L 375.257229 86.303063 
L 375.48054 84.311749 
L 375.703852 87.698471 
L 375.927164 87.698471 
L 376.150475 93.042901 
L 376.373787 95.036478 
L 376.597099 85.707156 
L 376.82041 93.042901 
L 377.267034 89.692048 
L 377.713657 85.707156 
L 377.936968 87.698471 
L 378.16028 96.431885 
L 378.383592 89.060272 
L 378.606903 91.051586 
L 378.830215 89.060272 
L 379.053527 89.060272 
L 379.276838 93.042901 
L 379.50015 87.698471 
L 379.723462 87.698471 
L 379.946773 85.707156 
L 380.170085 93.042901 
L 380.393397 93.042901 
L 380.616708 87.698471 
L 380.84002 87.698471 
L 381.063332 83.715842 
L 381.509955 100.416776 
L 381.733267 93.042901 
L 381.956578 93.042901 
L 382.17989 95.036478 
L 382.403202 93.042901 
L 382.849825 93.042901 
L 383.073137 89.692048 
L 383.296448 91.051586 
L 383.51976 91.051586 
L 383.743072 96.431885 
L 383.966383 89.060272 
L 384.413007 100.416776 
L 384.85963 93.042901 
L 385.082941 94.440571 
L 385.306253 92.446994 
L 385.529565 97.791424 
L 385.976188 97.791424 
L 386.422811 89.060272 
L 386.646123 90.455679 
L 386.869435 87.066695 
L 387.092746 94.440571 
L 387.316058 97.791424 
L 387.53937 92.446994 
L 387.762681 97.791424 
L 387.985993 94.440571 
L 388.209305 101.776315 
L 388.432616 96.431885 
L 388.655928 96.431885 
L 388.87924 99.785001 
L 389.102551 97.791424 
L 389.325863 99.785001 
L 389.772486 99.785001 
L 389.995798 89.060272 
L 390.21911 87.066695 
L 390.442421 94.440571 
L 390.665733 89.060272 
L 390.889045 92.446994 
L 391.112356 92.446994 
L 391.335668 94.440571 
L 391.558979 101.776315 
L 391.782291 101.776315 
L 392.005603 96.431885 
L 392.228914 96.431885 
L 392.675538 101.776315 
L 392.898849 97.791424 
L 393.345473 112.501044 
L 393.792096 112.501044 
L 394.015408 110.509729 
L 394.238719 110.509729 
L 394.462031 112.501044 
L 394.685343 107.156614 
L 394.908654 114.492358 
L 395.131966 117.881342 
L 395.355278 117.881342 
L 395.801901 126.614757 
L 396.025213 123.225772 
L 396.248524 126.614757 
L 396.471836 125.217087 
L 396.695148 125.217087 
L 396.918459 123.225772 
L 397.141771 128.606071 
L 397.588394 119.240881 
L 397.811706 124.62118 
L 398.035018 124.62118 
L 398.258329 119.240881 
L 398.481641 108.516152 
L 398.704952 117.881342 
L 398.928264 110.509729 
L 399.151576 110.509729 
L 399.374887 105.165299 
L 399.598199 115.890028 
L 399.821511 113.896451 
L 400.044822 115.890028 
L 400.268134 110.509729 
L 400.491446 109.913822 
L 400.714757 117.249567 
L 400.938069 119.240881 
L 401.161381 112.501044 
L 401.384692 114.492358 
L 401.608004 109.147928 
L 401.831316 109.147928 
L 402.054627 111.141505 
L 402.277939 107.156614 
L 402.501251 116.485935 
L 402.724562 107.156614 
L 402.947874 110.509729 
L 403.171186 105.165299 
L 403.394497 103.171722 
L 403.617809 108.516152 
L 403.841121 97.791424 
L 404.064432 97.791424 
L 404.287744 104.533524 
L 404.734367 93.212888 
L 404.957679 94.574689 
L 405.404302 103.937617 
L 405.627614 101.946302 
L 406.074237 108.68614 
L 406.297549 99.323212 
L 406.52086 101.314527 
L 406.744172 104.703511 
L 406.967484 99.323212 
L 407.190795 103.305841 
L 407.414107 99.323212 
L 407.637419 106.694825 
L 408.084042 90.589798 
L 408.307354 90.589798 
L 408.530665 99.954988 
L 408.753977 99.954988 
L 408.977289 97.961411 
L 409.2006 99.954988 
L 409.423912 103.305841 
L 409.647224 103.305841 
L 410.317159 94.574689 
L 410.987094 88.598484 
L 411.433717 81.262739 
L 411.657029 88.598484 
L 411.88034 89.993891 
L 412.103652 88.002577 
L 412.326963 91.987468 
L 412.550275 93.978782 
L 412.773587 93.978782 
L 412.996898 85.245368 
L 413.22021 92.581112 
L 413.443522 92.581112 
L 413.666833 94.574689 
L 413.890145 101.314527 
L 414.113457 101.314527 
L 414.336768 99.323212 
L 414.56008 99.954988 
L 414.783392 90.589798 
L 415.006703 90.589798 
L 415.230015 92.581112 
L 415.453327 90.589798 
L 415.676638 90.589798 
L 415.89995 88.598484 
L 416.123262 95.970097 
L 416.346573 108.056627 
L 416.569885 102.712197 
L 417.016508 106.06305 
L 417.463132 98.727305 
L 417.686443 98.727305 
L 417.909755 100.548632 
L 418.133067 111.273361 
L 418.356378 116.024147 
L 418.57969 134.716395 
L 418.803002 120.638551 
L 419.472936 145.441124 
L 419.91956 129.371965 
L 420.142871 144.079323 
L 420.366183 149.423753 
L 420.589495 147.432438 
L 420.812806 134.716395 
L 421.036118 138.103117 
L 421.25943 138.103117 
L 421.482741 140.096694 
L 421.706053 136.111803 
L 422.152676 116.024147 
L 422.375988 121.404445 
L 422.5993 121.404445 
L 422.822611 119.410868 
L 423.045923 130.731504 
L 423.269235 132.722818 
L 423.492546 128.74019 
L 423.715858 134.716395 
L 423.93917 130.731504 
L 424.162481 132.722818 
L 424.385793 129.371965 
L 424.832416 107.922508 
L 425.055728 107.922508 
L 425.27904 111.273361 
L 425.502351 105.928931 
L 425.725663 113.266938 
L 425.948974 115.258252 
L 426.172286 118.647237 
L 426.618909 115.258252 
L 426.842221 118.647237 
L 427.065533 113.266938 
L 427.288844 111.273361 
L 427.512156 118.647237 
L 427.735468 118.647237 
L 427.958779 120.638551 
L 428.182091 127.974295 
L 428.405403 128.606071 
L 428.628714 133.950501 
L 428.852026 123.225772 
L 429.075338 134.582277 
L 429.298649 127.210664 
L 429.521961 125.217087 
L 429.745273 125.217087 
L 429.968584 127.210664 
L 430.191896 109.147928 
L 430.415208 109.147928 
L 430.638519 127.210664 
L 430.861831 119.872657 
L 431.085143 125.217087 
L 431.308454 115.890028 
L 431.531766 115.890028 
L 431.978389 121.234458 
L 432.425013 114.492358 
L 432.648324 122.459878 
L 432.871636 124.453455 
L 433.094947 122.459878 
L 433.318259 124.453455 
L 433.541571 128.436084 
L 433.764882 126.444769 
L 433.988194 133.816382 
L 434.211506 130.427398 
L 434.434817 130.427398 
L 434.658129 138.394918 
L 434.881441 136.403604 
L 435.104752 136.403604 
L 435.328064 139.792588 
L 435.551376 134.412289 
L 435.774687 143.775217 
L 435.997999 145.137018 
L 436.221311 145.137018 
L 436.444622 143.145704 
L 436.667934 147.128332 
L 436.891246 141.783902 
L 437.114557 147.128332 
L 437.337869 163.829267 
L 437.561181 161.837952 
L 437.784492 165.820581 
L 438.007804 167.811895 
L 438.231116 167.811895 
L 438.454427 165.820581 
L 438.677739 165.820581 
L 439.124362 156.493522 
L 439.347674 161.837952 
L 439.570985 152.508631 
L 440.017609 159.250731 
L 440.24092 155.861747 
L 440.464232 149.885541 
L 440.687544 149.885541 
L 440.910855 161.242045 
L 441.357479 148.526002 
L 441.58079 150.517317 
L 442.027414 157.257154 
L 442.250725 153.870432 
L 442.474037 159.250731 
L 442.697349 157.257154 
L 442.92066 161.242045 
L 443.143972 161.242045 
L 443.367284 159.250731 
L 443.590595 168.57779 
L 443.813907 166.586475 
L 444.037219 168.57779 
L 444.26053 159.250731 
L 444.483842 157.257154 
L 444.707154 153.870432 
L 444.930465 157.257154 
L 445.153777 151.876855 
L 445.377089 153.870432 
L 445.6004 151.876855 
L 445.823712 153.870432 
L 446.047024 151.876855 
L 446.493647 151.876855 
L 446.716958 146.532425 
L 446.94027 161.242045 
L 447.163582 159.844375 
L 447.386893 163.23336 
L 447.610205 163.23336 
L 447.833517 159.844375 
L 448.056828 163.23336 
L 448.28014 157.853061 
L 448.503452 157.257154 
L 448.726763 164.595161 
L 448.950075 159.250731 
L 449.173387 164.595161 
L 449.62001 155.861747 
L 449.843322 163.23336 
L 450.066633 161.242045 
L 450.289945 164.595161 
L 450.736568 155.861747 
L 450.95988 161.242045 
L 451.183192 159.250731 
L 451.406503 153.274525 
L 451.629815 143.909335 
L 451.853127 151.283211 
L 452.076438 139.926707 
L 452.29975 145.307005 
L 452.523062 139.926707 
L 452.746373 145.307005 
L 452.969685 145.307005 
L 453.192996 134.582277 
L 453.416308 141.918021 
L 453.63962 134.582277 
L 453.862931 131.193292 
L 454.086243 131.193292 
L 454.309555 129.201978 
L 454.532866 131.193292 
L 454.756178 131.193292 
L 455.202801 118.477249 
L 455.426113 125.848862 
L 455.649425 125.848862 
L 455.872736 129.201978 
L 456.31936 129.201978 
L 456.542671 132.590962 
L 456.765983 127.210664 
L 456.989295 127.210664 
L 457.212606 125.217087 
L 457.435918 127.210664 
L 457.65923 130.597385 
L 457.882541 130.597385 
L 458.105853 143.315691 
L 458.329165 141.322114 
L 458.552476 141.322114 
L 458.775788 135.941815 
L 459.222411 135.941815 
L 459.445723 139.926707 
L 459.669035 134.582277 
L 460.115658 134.582277 
L 460.338969 135.178184 
L 460.562281 133.184607 
L 460.785593 125.848862 
L 461.008904 127.840177 
L 461.232216 131.193292 
L 461.455528 129.201978 
L 461.678839 125.217087 
L 461.902151 132.590962 
L 462.125463 130.597385 
L 462.348774 137.935392 
L 462.572086 141.322114 
L 462.795398 135.941815 
L 463.018709 133.950501 
L 463.242021 139.3308 
L 463.465333 139.3308 
L 463.688644 128.606071 
L 463.911956 135.941815 
L 464.581891 135.941815 
L 464.805203 133.950501 
L 465.028514 141.322114 
L 465.251826 126.614757 
L 465.475138 121.234458 
L 465.698449 126.614757 
L 465.921761 113.896451 
L 466.145073 124.62118 
L 466.368384 124.62118 
L 466.591696 126.614757 
L 467.038319 122.629865 
L 467.261631 122.629865 
L 467.484942 127.974295 
L 467.708254 129.96561 
L 467.931566 151.415067 
L 468.154877 151.415067 
L 468.378189 193.088561 
L 468.601501 175.028089 
L 468.824812 189.735446 
L 469.048124 191.097247 
L 469.494747 177.785297 
L 469.718059 184.355147 
L 469.941371 182.363833 
L 470.164682 191.72676 
L 470.387994 195.711651 
L 470.611306 182.995609 
L 470.834617 188.340039 
L 471.057929 179.010717 
L 471.281241 181.002031 
L 471.504552 170.277303 
L 471.727864 179.606624 
L 471.951176 172.27088 
L 472.174487 178.244823 
L 472.397799 196.17344 
L 472.621111 194.182126 
L 473.067734 184.816936 
L 473.291046 181.46382 
L 473.514357 188.20592 
L 473.737669 184.816936 
L 473.96098 179.472506 
L 474.184292 179.472506 
L 474.407604 172.100893 
L 474.630915 170.109578 
L 474.854227 175.489877 
L 475.077539 173.4963 
L 475.30085 176.849416 
L 475.524162 176.849416 
L 475.747474 180.834307 
L 475.970785 178.84073 
L 476.194097 166.124687 
L 476.417409 170.109578 
L 476.64072 181.46382 
L 476.864032 186.80825 
L 477.087344 184.816936 
L 477.310655 184.816936 
L 477.533967 179.472506 
L 477.757279 180.834307 
L 477.98059 180.834307 
L 478.203902 177.481191 
L 478.427214 182.825621 
L 478.650525 182.825621 
L 478.873837 186.214606 
L 479.32046 170.109578 
L 479.543772 180.834307 
L 479.767084 180.834307 
L 479.990395 175.489877 
L 480.213707 182.825621 
L 480.437019 170.109578 
L 480.66033 164.765148 
L 480.883642 172.100893 
L 481.330265 168.116001 
L 481.553577 175.489877 
L 482.446823 175.489877 
L 482.670135 177.481191 
L 482.893447 170.109578 
L 483.116758 170.109578 
L 483.34007 168.116001 
L 483.563382 164.765148 
L 483.786693 175.489877 
L 484.010005 171.504986 
L 484.233317 164.133373 
L 484.456628 163.537466 
L 484.903252 163.537466 
L 485.126563 156.795365 
L 485.349875 162.139795 
L 485.573187 160.148481 
L 486.01981 173.4963 
L 486.466433 173.4963 
L 486.689745 175.489877 
L 486.913057 174.092207 
L 487.35968 194.77577 
L 487.582991 187.440026 
L 487.806303 185.448711 
L 488.029615 190.793141 
L 488.252926 183.457397 
L 488.476238 188.801827 
L 488.69955 184.816936 
L 488.922861 186.80825 
L 489.146173 186.80825 
L 489.369485 192.188548 
L 489.592796 194.182126 
L 489.816108 192.188548 
L 490.03942 203.509184 
L 490.262731 199.526556 
L 490.486043 199.526556 
L 491.155978 188.20592 
L 491.37929 190.197234 
L 491.602601 195.541664 
L 492.049225 195.541664 
L 492.272536 202.913277 
L 492.495848 194.182126 
L 492.71916 196.17344 
L 492.942471 192.188548 
L 493.389095 196.17344 
L 493.612406 202.149646 
L 493.835718 198.164754 
L 494.505653 198.164754 
L 494.728964 190.793141 
L 494.952276 192.784456 
L 495.175588 190.793141 
L 495.398899 194.77577 
L 495.622211 206.132274 
L 496.068834 202.74329 
L 496.292146 195.407546 
L 496.515458 194.77577 
L 496.738769 186.044618 
L 496.962081 191.424917 
L 497.185393 187.440026 
L 497.408704 188.801827 
L 497.632016 194.182126 
L 497.855328 192.188548 
L 498.078639 192.188548 
L 498.301951 186.80825 
L 498.525263 190.793141 
L 498.748574 198.164754 
L 499.418509 192.188548 
L 499.641821 186.80825 
L 500.088444 192.188548 
L 500.311756 192.188548 
L 500.535068 186.80825 
L 500.758379 194.182126 
L 501.205003 190.197234 
L 501.428314 192.188548 
L 501.651626 191.559036 
L 501.874937 193.55035 
L 502.098249 190.197234 
L 502.321561 182.825621 
L 502.544872 190.197234 
L 502.768184 191.559036 
L 502.991496 196.939334 
L 503.214807 185.58283 
L 503.438119 180.2384 
L 503.661431 183.589253 
L 503.884742 180.2384 
L 504.108054 181.597938 
L 504.331366 188.969551 
L 504.554677 186.978237 
L 504.777989 186.978237 
L 505.001301 195.711651 
L 505.224612 192.322667 
L 505.447924 201.056081 
L 505.671236 203.047396 
L 505.894547 208.427694 
L 506.117859 199.69428 
L 506.341171 203.047396 
L 506.564482 208.427694 
L 506.787794 217.757016 
L 507.011106 217.757016 
L 507.234417 212.412586 
L 507.457729 221.143737 
L 507.681041 215.763439 
L 507.904352 223.137314 
L 508.127664 219.152423 
L 508.350975 208.427694 
L 508.574287 210.419009 
L 508.797599 203.047396 
L 509.02091 207.032287 
L 509.244222 205.03871 
L 509.467534 207.032287 
L 509.690845 215.763439 
L 510.137469 206.43638 
L 510.36078 213.772124 
L 510.584092 206.43638 
L 510.807404 213.772124 
L 511.030715 211.78081 
L 511.254027 211.78081 
L 511.477339 206.43638 
L 511.70065 213.176217 
L 511.923962 214.538019 
L 512.147274 214.538019 
L 512.370585 220.514224 
L 512.593897 213.176217 
L 512.817209 213.176217 
L 513.04052 205.804604 
L 513.263832 211.184903 
L 513.487144 213.176217 
L 513.710455 213.176217 
L 513.933767 217.161109 
L 514.157079 204.445066 
L 514.38039 206.43638 
L 514.603702 211.78081 
L 514.827014 204.445066 
L 515.050325 206.43638 
L 515.273637 204.445066 
L 515.496948 193.088561 
L 515.72026 199.828399 
L 515.943572 196.477546 
L 516.390195 185.752817 
L 516.613507 196.477546 
L 516.836818 187.112356 
L 517.06013 187.112356 
L 517.283442 196.477546 
L 517.506753 187.744131 
L 517.730065 195.711651 
L 517.953377 199.69428 
L 518.176688 207.032287 
L 518.4 191.72676 
L 518.4 191.72676 
" style="fill:none;stroke:#4c72b0;stroke-linecap:round;stroke-width:1.75;"/>
   </g>
   <g id="patch_3">
    <path d="M 72 356.4 
L 518.4 356.4 
" style="fill:none;"/>
   </g>
   <g id="patch_4">
    <path d="M 72 39.6 
L 518.4 39.6 
" style="fill:none;"/>
   </g>
   <g id="patch_5">
    <path d="M 72 356.4 
L 72 39.6 
" style="fill:none;"/>
   </g>
   <g id="patch_6">
    <path d="M 518.4 356.4 
L 518.4 39.6 
" style="fill:none;"/>
   </g>
   <g id="text_14">
    <!-- l - 15.851048212034259 * c -->
    <defs>
     <path d="M 9.125 0 
L 9.125 10.6875 
L 18.65625 10.6875 
L 18.65625 0 
z
" id="LiberationSans-2e"/>
     <path d="M 51.421875 22.40625 
Q 51.421875 17.234375 49.859375 12.9375 
Q 48.296875 8.640625 45.21875 5.53125 
Q 42.140625 2.4375 37.578125 0.71875 
Q 33.015625 -0.984375 27 -0.984375 
Q 21.578125 -0.984375 17.546875 0.28125 
Q 13.53125 1.5625 10.734375 3.78125 
Q 7.953125 6 6.3125 8.984375 
Q 4.6875 11.96875 4 15.375 
L 12.890625 16.40625 
Q 13.421875 14.453125 14.390625 12.625 
Q 15.375 10.796875 17.0625 9.34375 
Q 18.75 7.90625 21.21875 7.046875 
Q 23.6875 6.203125 27.203125 6.203125 
Q 30.609375 6.203125 33.390625 7.25 
Q 36.1875 8.296875 38.15625 10.34375 
Q 40.140625 12.40625 41.203125 15.375 
Q 42.28125 18.359375 42.28125 22.21875 
Q 42.28125 25.390625 41.25 28.046875 
Q 40.234375 30.71875 38.328125 32.640625 
Q 36.421875 34.578125 33.65625 35.640625 
Q 30.90625 36.71875 27.390625 36.71875 
Q 25.203125 36.71875 23.34375 36.328125 
Q 21.484375 35.9375 19.890625 35.25 
Q 18.3125 34.578125 17.015625 33.671875 
Q 15.71875 32.765625 14.59375 31.78125 
L 6 31.78125 
L 8.296875 68.796875 
L 47.40625 68.796875 
L 47.40625 61.328125 
L 16.3125 61.328125 
L 14.984375 39.5 
Q 17.328125 41.3125 20.84375 42.59375 
Q 24.359375 43.890625 29.203125 43.890625 
Q 34.328125 43.890625 38.421875 42.328125 
Q 42.53125 40.765625 45.40625 37.90625 
Q 48.296875 35.0625 49.859375 31.109375 
Q 51.421875 27.15625 51.421875 22.40625 
" id="LiberationSans-35"/>
     <path d="M 22.265625 54.390625 
L 35.15625 59.421875 
L 37.359375 52.984375 
L 23.578125 49.421875 
L 32.625 37.203125 
L 26.8125 33.6875 
L 19.484375 46.296875 
L 11.859375 33.796875 
L 6.0625 37.3125 
L 15.28125 49.421875 
L 1.609375 52.984375 
L 3.8125 59.515625 
L 16.84375 54.296875 
L 16.265625 68.796875 
L 22.90625 68.796875 
z
" id="LiberationSans-2a"/>
     <path d="M 13.421875 26.65625 
Q 13.421875 22.125 14.078125 18.3125 
Q 14.75 14.5 16.3125 11.734375 
Q 17.875 8.984375 20.4375 7.46875 
Q 23 5.953125 26.765625 5.953125 
Q 31.453125 5.953125 34.59375 8.484375 
Q 37.75 11.03125 38.484375 16.3125 
L 47.359375 15.71875 
Q 46.921875 12.453125 45.453125 9.421875 
Q 44 6.390625 41.484375 4.09375 
Q 38.96875 1.8125 35.34375 0.40625 
Q 31.734375 -0.984375 27 -0.984375 
Q 20.796875 -0.984375 16.453125 1.109375 
Q 12.109375 3.21875 9.390625 6.90625 
Q 6.6875 10.59375 5.46875 15.59375 
Q 4.25 20.609375 4.25 26.46875 
Q 4.25 31.78125 5.125 35.859375 
Q 6 39.9375 7.59375 42.984375 
Q 9.1875 46.046875 11.328125 48.125 
Q 13.484375 50.203125 15.984375 51.4375 
Q 18.5 52.6875 21.28125 53.25 
Q 24.078125 53.8125 26.90625 53.8125 
Q 31.34375 53.8125 34.8125 52.59375 
Q 38.28125 51.375 40.796875 49.25 
Q 43.3125 47.125 44.875 44.234375 
Q 46.4375 41.359375 47.078125 38.03125 
L 38.03125 37.359375 
Q 37.359375 41.75 34.5625 44.328125 
Q 31.78125 46.921875 26.65625 46.921875 
Q 22.90625 46.921875 20.390625 45.671875 
Q 17.875 44.4375 16.3125 41.921875 
Q 14.75 39.40625 14.078125 35.59375 
Q 13.421875 31.78125 13.421875 26.65625 
" id="LiberationSans-63"/>
     <path d="M 6.734375 0 
L 6.734375 72.46875 
L 15.53125 72.46875 
L 15.53125 0 
z
" id="LiberationSans-6c"/>
    </defs>
    <g style="fill:#262626;" transform="translate(221.4778125 34.6)scale(0.12 -0.12)">
     <use xlink:href="#LiberationSans-6c"/>
     <use x="22.216796875" xlink:href="#LiberationSans-20"/>
     <use x="50.0" xlink:href="#LiberationSans-2d"/>
     <use x="83.30078125" xlink:href="#LiberationSans-20"/>
     <use x="111.083984375" xlink:href="#LiberationSans-31"/>
     <use x="166.69921875" xlink:href="#LiberationSans-35"/>
     <use x="222.314453125" xlink:href="#LiberationSans-2e"/>
     <use x="250.09765625" xlink:href="#LiberationSans-38"/>
     <use x="305.712890625" xlink:href="#LiberationSans-35"/>
     <use x="361.328125" xlink:href="#LiberationSans-31"/>
     <use x="416.943359375" xlink:href="#LiberationSans-30"/>
     <use x="472.55859375" xlink:href="#LiberationSans-34"/>
     <use x="528.173828125" xlink:href="#LiberationSans-38"/>
     <use x="583.7890625" xlink:href="#LiberationSans-32"/>
     <use x="639.404296875" xlink:href="#LiberationSans-31"/>
     <use x="695.01953125" xlink:href="#LiberationSans-32"/>
     <use x="750.634765625" xlink:href="#LiberationSans-30"/>
     <use x="806.25" xlink:href="#LiberationSans-33"/>
     <use x="861.865234375" xlink:href="#LiberationSans-34"/>
     <use x="917.48046875" xlink:href="#LiberationSans-32"/>
     <use x="973.095703125" xlink:href="#LiberationSans-35"/>
     <use x="1028.7109375" xlink:href="#LiberationSans-39"/>
     <use x="1084.326171875" xlink:href="#LiberationSans-20"/>
     <use x="1112.109375" xlink:href="#LiberationSans-2a"/>
     <use x="1151.025390625" xlink:href="#LiberationSans-20"/>
     <use x="1178.80859375" xlink:href="#LiberationSans-63"/>
    </g>
   </g>
  </g>
 </g>
 <defs>
  <clipPath id="pcdf9b338a0">
   <rect height="316.8" width="446.4" x="72.0" y="39.6"/>
  </clipPath>
 </defs>
</svg>
