<?xml version="1.0" encoding="utf-8" standalone="no"?>
<!DOCTYPE svg PUBLIC "-//W3C//DTD SVG 1.1//EN"
  "http://www.w3.org/Graphics/SVG/1.1/DTD/svg11.dtd">
<!-- Created with matplotlib (http://matplotlib.org/) -->
<svg height="396pt" version="1.1" viewBox="0 0 576 396" width="576pt" xmlns="http://www.w3.org/2000/svg" xmlns:xlink="http://www.w3.org/1999/xlink">
 <defs>
  <style type="text/css">
*{stroke-linecap:butt;stroke-linejoin:round;stroke-miterlimit:100000;}
  </style>
 </defs>
 <g id="figure_1">
  <g id="patch_1">
   <path d="M 0 396 
L 576 396 
L 576 0 
L 0 0 
z
" style="fill:#ffffff;"/>
  </g>
  <g id="axes_1">
   <g id="patch_2">
    <path d="M 72 356.4 
L 518.4 356.4 
L 518.4 39.6 
L 72 39.6 
z
" style="fill:#eaeaf2;"/>
   </g>
   <g id="matplotlib.axis_1">
    <g id="xtick_1">
     <g id="line2d_1">
      <path clip-path="url(#p9db25863c4)" d="M 72 356.4 
L 72 39.6 
" style="fill:none;stroke:#ffffff;stroke-linecap:round;"/>
     </g>
     <g id="line2d_2"/>
     <g id="line2d_3"/>
     <g id="text_1">
      <!-- 2015-11-16 10:11:00 -->
      <defs>
       <path d="M 5.03125 0 
L 5.03125 6.203125 
Q 7.515625 11.921875 11.109375 16.28125 
Q 14.703125 20.65625 18.65625 24.1875 
Q 22.609375 27.734375 26.484375 30.765625 
Q 30.375 33.796875 33.5 36.8125 
Q 36.625 39.84375 38.546875 43.15625 
Q 40.484375 46.484375 40.484375 50.6875 
Q 40.484375 53.609375 39.59375 55.828125 
Q 38.71875 58.0625 37.0625 59.5625 
Q 35.40625 61.078125 33.078125 61.828125 
Q 30.765625 62.59375 27.9375 62.59375 
Q 25.296875 62.59375 22.96875 61.859375 
Q 20.65625 61.140625 18.84375 59.671875 
Q 17.046875 58.203125 15.890625 56.03125 
Q 14.75 53.859375 14.40625 50.984375 
L 5.421875 51.8125 
Q 5.859375 55.515625 7.46875 58.78125 
Q 9.078125 62.0625 11.90625 64.53125 
Q 14.75 67 18.71875 68.40625 
Q 22.703125 69.828125 27.9375 69.828125 
Q 33.0625 69.828125 37.0625 68.609375 
Q 41.0625 67.390625 43.8125 64.984375 
Q 46.578125 62.59375 48.046875 59.078125 
Q 49.515625 55.5625 49.515625 50.984375 
Q 49.515625 47.515625 48.265625 44.390625 
Q 47.015625 41.265625 44.9375 38.421875 
Q 42.875 35.59375 40.140625 32.953125 
Q 37.40625 30.328125 34.421875 27.8125 
Q 31.453125 25.296875 28.421875 22.828125 
Q 25.390625 20.359375 22.71875 17.859375 
Q 20.0625 15.375 17.96875 12.8125 
Q 15.875 10.25 14.703125 7.46875 
L 50.59375 7.46875 
L 50.59375 0 
z
" id="LiberationSans-32"/>
       <path d="M 7.625 0 
L 7.625 7.46875 
L 25.140625 7.46875 
L 25.140625 60.40625 
L 9.625 49.3125 
L 9.625 57.625 
L 25.875 68.796875 
L 33.984375 68.796875 
L 33.984375 7.46875 
L 50.734375 7.46875 
L 50.734375 0 
z
" id="LiberationSans-31"/>
       <path d="M 51.703125 34.421875 
Q 51.703125 24.515625 49.828125 17.75 
Q 47.953125 10.984375 44.703125 6.8125 
Q 41.453125 2.640625 37.0625 0.828125 
Q 32.671875 -0.984375 27.6875 -0.984375 
Q 22.65625 -0.984375 18.3125 0.828125 
Q 13.96875 2.640625 10.765625 6.78125 
Q 7.5625 10.9375 5.734375 17.703125 
Q 3.90625 24.46875 3.90625 34.421875 
Q 3.90625 44.828125 5.734375 51.640625 
Q 7.5625 58.453125 10.78125 62.5 
Q 14.015625 66.546875 18.40625 68.1875 
Q 22.796875 69.828125 27.984375 69.828125 
Q 32.90625 69.828125 37.21875 68.1875 
Q 41.546875 66.546875 44.765625 62.5 
Q 48 58.453125 49.84375 51.640625 
Q 51.703125 44.828125 51.703125 34.421875 
M 42.78125 34.421875 
Q 42.78125 42.625 41.796875 48.0625 
Q 40.828125 53.515625 38.921875 56.765625 
Q 37.015625 60.015625 34.25 61.359375 
Q 31.5 62.703125 27.984375 62.703125 
Q 24.265625 62.703125 21.4375 61.328125 
Q 18.609375 59.96875 16.671875 56.71875 
Q 14.75 53.46875 13.765625 48.015625 
Q 12.796875 42.578125 12.796875 34.421875 
Q 12.796875 26.515625 13.796875 21.09375 
Q 14.796875 15.671875 16.71875 12.375 
Q 18.65625 9.078125 21.4375 7.640625 
Q 24.21875 6.203125 27.78125 6.203125 
Q 31.25 6.203125 34.03125 7.640625 
Q 36.8125 9.078125 38.734375 12.375 
Q 40.671875 15.671875 41.71875 21.09375 
Q 42.78125 26.515625 42.78125 34.421875 
" id="LiberationSans-30"/>
       <path d="M 9.125 42.71875 
L 9.125 52.828125 
L 18.65625 52.828125 
L 18.65625 42.71875 
z
M 9.125 0 
L 9.125 10.109375 
L 18.65625 10.109375 
L 18.65625 0 
z
" id="LiberationSans-3a"/>
       <path d="M 51.421875 22.40625 
Q 51.421875 17.234375 49.859375 12.9375 
Q 48.296875 8.640625 45.21875 5.53125 
Q 42.140625 2.4375 37.578125 0.71875 
Q 33.015625 -0.984375 27 -0.984375 
Q 21.578125 -0.984375 17.546875 0.28125 
Q 13.53125 1.5625 10.734375 3.78125 
Q 7.953125 6 6.3125 8.984375 
Q 4.6875 11.96875 4 15.375 
L 12.890625 16.40625 
Q 13.421875 14.453125 14.390625 12.625 
Q 15.375 10.796875 17.0625 9.34375 
Q 18.75 7.90625 21.21875 7.046875 
Q 23.6875 6.203125 27.203125 6.203125 
Q 30.609375 6.203125 33.390625 7.25 
Q 36.1875 8.296875 38.15625 10.34375 
Q 40.140625 12.40625 41.203125 15.375 
Q 42.28125 18.359375 42.28125 22.21875 
Q 42.28125 25.390625 41.25 28.046875 
Q 40.234375 30.71875 38.328125 32.640625 
Q 36.421875 34.578125 33.65625 35.640625 
Q 30.90625 36.71875 27.390625 36.71875 
Q 25.203125 36.71875 23.34375 36.328125 
Q 21.484375 35.9375 19.890625 35.25 
Q 18.3125 34.578125 17.015625 33.671875 
Q 15.71875 32.765625 14.59375 31.78125 
L 6 31.78125 
L 8.296875 68.796875 
L 47.40625 68.796875 
L 47.40625 61.328125 
L 16.3125 61.328125 
L 14.984375 39.5 
Q 17.328125 41.3125 20.84375 42.59375 
Q 24.359375 43.890625 29.203125 43.890625 
Q 34.328125 43.890625 38.421875 42.328125 
Q 42.53125 40.765625 45.40625 37.90625 
Q 48.296875 35.0625 49.859375 31.109375 
Q 51.421875 27.15625 51.421875 22.40625 
" id="LiberationSans-35"/>
       <path id="LiberationSans-20"/>
       <path d="M 4.4375 22.65625 
L 4.4375 30.46875 
L 28.859375 30.46875 
L 28.859375 22.65625 
z
" id="LiberationSans-2d"/>
       <path d="M 51.21875 22.515625 
Q 51.21875 17.328125 49.78125 13 
Q 48.34375 8.6875 45.53125 5.578125 
Q 42.71875 2.484375 38.5625 0.75 
Q 34.421875 -0.984375 29 -0.984375 
Q 23 -0.984375 18.5 1.3125 
Q 14.015625 3.609375 11.03125 7.921875 
Q 8.0625 12.25 6.5625 18.53125 
Q 5.078125 24.8125 5.078125 32.8125 
Q 5.078125 42 6.765625 48.921875 
Q 8.453125 55.859375 11.625 60.5 
Q 14.796875 65.140625 19.359375 67.484375 
Q 23.921875 69.828125 29.6875 69.828125 
Q 33.203125 69.828125 36.28125 69.09375 
Q 39.359375 68.359375 41.875 66.71875 
Q 44.390625 65.09375 46.28125 62.40625 
Q 48.1875 59.71875 49.3125 55.8125 
L 40.921875 54.296875 
Q 39.546875 58.734375 36.546875 60.71875 
Q 33.546875 62.703125 29.59375 62.703125 
Q 25.984375 62.703125 23.046875 60.984375 
Q 20.125 59.28125 18.0625 55.875 
Q 16.015625 52.484375 14.90625 47.359375 
Q 13.8125 42.234375 13.8125 35.40625 
Q 16.21875 39.84375 20.5625 42.15625 
Q 24.90625 44.484375 30.515625 44.484375 
Q 35.203125 44.484375 39.015625 42.96875 
Q 42.828125 41.453125 45.53125 38.59375 
Q 48.25 35.75 49.734375 31.671875 
Q 51.21875 27.59375 51.21875 22.515625 
M 42.28125 22.125 
Q 42.28125 25.6875 41.40625 28.5625 
Q 40.53125 31.453125 38.765625 33.46875 
Q 37.015625 35.5 34.421875 36.59375 
Q 31.84375 37.703125 28.421875 37.703125 
Q 26.03125 37.703125 23.578125 36.984375 
Q 21.140625 36.28125 19.15625 34.6875 
Q 17.1875 33.109375 15.9375 30.515625 
Q 14.703125 27.9375 14.703125 24.21875 
Q 14.703125 20.40625 15.671875 17.109375 
Q 16.65625 13.8125 18.484375 11.375 
Q 20.3125 8.9375 22.890625 7.515625 
Q 25.484375 6.109375 28.71875 6.109375 
Q 31.890625 6.109375 34.40625 7.203125 
Q 36.921875 8.296875 38.671875 10.375 
Q 40.4375 12.453125 41.359375 15.421875 
Q 42.28125 18.40625 42.28125 22.125 
" id="LiberationSans-36"/>
      </defs>
      <g style="fill:#262626;" transform="translate(25.5765625 370.646875)scale(0.1 -0.1)">
       <use xlink:href="#LiberationSans-32"/>
       <use x="55.615234375" xlink:href="#LiberationSans-30"/>
       <use x="111.23046875" xlink:href="#LiberationSans-31"/>
       <use x="166.845703125" xlink:href="#LiberationSans-35"/>
       <use x="222.4609375" xlink:href="#LiberationSans-2d"/>
       <use x="255.76171875" xlink:href="#LiberationSans-31"/>
       <use x="311.376953125" xlink:href="#LiberationSans-31"/>
       <use x="366.9921875" xlink:href="#LiberationSans-2d"/>
       <use x="400.29296875" xlink:href="#LiberationSans-31"/>
       <use x="455.908203125" xlink:href="#LiberationSans-36"/>
       <use x="511.5234375" xlink:href="#LiberationSans-20"/>
       <use x="539.306640625" xlink:href="#LiberationSans-31"/>
       <use x="594.921875" xlink:href="#LiberationSans-30"/>
       <use x="650.537109375" xlink:href="#LiberationSans-3a"/>
       <use x="678.3203125" xlink:href="#LiberationSans-31"/>
       <use x="733.935546875" xlink:href="#LiberationSans-31"/>
       <use x="789.55078125" xlink:href="#LiberationSans-3a"/>
       <use x="817.333984375" xlink:href="#LiberationSans-30"/>
       <use x="872.94921875" xlink:href="#LiberationSans-30"/>
      </g>
     </g>
    </g>
    <g id="xtick_2">
     <g id="line2d_4">
      <path clip-path="url(#p9db25863c4)" d="M 183.655828 356.4 
L 183.655828 39.6 
" style="fill:none;stroke:#ffffff;stroke-linecap:round;"/>
     </g>
     <g id="line2d_5"/>
     <g id="line2d_6"/>
     <g id="text_2">
      <!-- 2015-11-18 13:50:00 -->
      <defs>
       <path d="M 51.265625 19.1875 
Q 51.265625 14.796875 49.875 11.109375 
Q 48.484375 7.421875 45.625 4.734375 
Q 42.78125 2.046875 38.328125 0.53125 
Q 33.890625 -0.984375 27.828125 -0.984375 
Q 21.78125 -0.984375 17.359375 0.53125 
Q 12.9375 2.046875 10.03125 4.703125 
Q 7.125 7.375 5.734375 11.0625 
Q 4.34375 14.75 4.34375 19.09375 
Q 4.34375 22.859375 5.484375 25.78125 
Q 6.640625 28.71875 8.5625 30.828125 
Q 10.5 32.953125 12.96875 34.25 
Q 15.4375 35.546875 18.0625 35.984375 
L 18.0625 36.1875 
Q 15.1875 36.859375 12.90625 38.375 
Q 10.640625 39.890625 9.09375 42.015625 
Q 7.5625 44.140625 6.75 46.71875 
Q 5.953125 49.3125 5.953125 52.203125 
Q 5.953125 55.8125 7.34375 59 
Q 8.734375 62.203125 11.46875 64.625 
Q 14.203125 67.046875 18.25 68.4375 
Q 22.3125 69.828125 27.640625 69.828125 
Q 33.25 69.828125 37.375 68.40625 
Q 41.5 67 44.203125 64.578125 
Q 46.921875 62.15625 48.234375 58.9375 
Q 49.5625 55.71875 49.5625 52.09375 
Q 49.5625 49.265625 48.75 46.671875 
Q 47.953125 44.09375 46.40625 41.96875 
Q 44.875 39.84375 42.59375 38.34375 
Q 40.328125 36.859375 37.359375 36.28125 
L 37.359375 36.078125 
Q 40.328125 35.59375 42.859375 34.296875 
Q 45.40625 33.015625 47.265625 30.890625 
Q 49.125 28.765625 50.1875 25.828125 
Q 51.265625 22.90625 51.265625 19.1875 
M 40.4375 51.609375 
Q 40.4375 54.203125 39.765625 56.34375 
Q 39.109375 58.5 37.59375 60.03125 
Q 36.078125 61.578125 33.640625 62.421875 
Q 31.203125 63.28125 27.640625 63.28125 
Q 24.171875 63.28125 21.78125 62.421875 
Q 19.390625 61.578125 17.84375 60.03125 
Q 16.3125 58.5 15.625 56.34375 
Q 14.9375 54.203125 14.9375 51.609375 
Q 14.9375 49.5625 15.46875 47.40625 
Q 16.015625 45.265625 17.421875 43.5 
Q 18.84375 41.75 21.328125 40.625 
Q 23.828125 39.5 27.734375 39.5 
Q 31.890625 39.5 34.40625 40.625 
Q 36.921875 41.75 38.25 43.5 
Q 39.59375 45.265625 40.015625 47.40625 
Q 40.4375 49.5625 40.4375 51.609375 
M 42.140625 20.015625 
Q 42.140625 22.515625 41.453125 24.828125 
Q 40.765625 27.15625 39.109375 28.9375 
Q 37.453125 30.71875 34.640625 31.8125 
Q 31.84375 32.90625 27.640625 32.90625 
Q 23.78125 32.90625 21.0625 31.8125 
Q 18.359375 30.71875 16.671875 28.90625 
Q 14.984375 27.09375 14.203125 24.71875 
Q 13.421875 22.359375 13.421875 19.828125 
Q 13.421875 16.65625 14.203125 14.03125 
Q 14.984375 11.421875 16.6875 9.546875 
Q 18.40625 7.671875 21.1875 6.640625 
Q 23.96875 5.609375 27.9375 5.609375 
Q 31.9375 5.609375 34.671875 6.640625 
Q 37.40625 7.671875 39.0625 9.546875 
Q 40.71875 11.421875 41.421875 14.078125 
Q 42.140625 16.75 42.140625 20.015625 
" id="LiberationSans-38"/>
       <path d="M 51.21875 19 
Q 51.21875 14.265625 49.671875 10.546875 
Q 48.140625 6.84375 45.1875 4.265625 
Q 42.234375 1.703125 37.859375 0.359375 
Q 33.5 -0.984375 27.875 -0.984375 
Q 21.484375 -0.984375 17.109375 0.609375 
Q 12.75 2.203125 9.90625 4.8125 
Q 7.078125 7.421875 5.65625 10.765625 
Q 4.25 14.109375 3.8125 17.671875 
L 12.890625 18.5 
Q 13.28125 15.765625 14.328125 13.515625 
Q 15.375 11.28125 17.1875 9.671875 
Q 19 8.0625 21.625 7.171875 
Q 24.265625 6.296875 27.875 6.296875 
Q 34.515625 6.296875 38.296875 9.5625 
Q 42.09375 12.84375 42.09375 19.28125 
Q 42.09375 23.09375 40.40625 25.40625 
Q 38.71875 27.734375 36.203125 29.03125 
Q 33.6875 30.328125 30.734375 30.765625 
Q 27.78125 31.203125 25.296875 31.203125 
L 20.3125 31.203125 
L 20.3125 38.8125 
L 25.09375 38.8125 
Q 27.59375 38.8125 30.265625 39.328125 
Q 32.953125 39.84375 35.171875 41.1875 
Q 37.40625 42.53125 38.84375 44.828125 
Q 40.28125 47.125 40.28125 50.6875 
Q 40.28125 56.203125 37.03125 59.390625 
Q 33.796875 62.59375 27.390625 62.59375 
Q 21.578125 62.59375 17.984375 59.609375 
Q 14.40625 56.640625 13.8125 51.21875 
L 4.984375 51.90625 
Q 5.515625 56.453125 7.46875 59.8125 
Q 9.421875 63.1875 12.421875 65.40625 
Q 15.4375 67.625 19.28125 68.71875 
Q 23.140625 69.828125 27.484375 69.828125 
Q 33.25 69.828125 37.390625 68.375 
Q 41.546875 66.9375 44.1875 64.46875 
Q 46.828125 62.015625 48.0625 58.6875 
Q 49.3125 55.375 49.3125 51.609375 
Q 49.3125 48.578125 48.484375 45.9375 
Q 47.65625 43.3125 45.890625 41.203125 
Q 44.140625 39.109375 41.421875 37.59375 
Q 38.71875 36.078125 34.90625 35.296875 
L 34.90625 35.109375 
Q 39.0625 34.671875 42.140625 33.21875 
Q 45.21875 31.78125 47.21875 29.625 
Q 49.21875 27.484375 50.21875 24.75 
Q 51.21875 22.015625 51.21875 19 
" id="LiberationSans-33"/>
      </defs>
      <g style="fill:#262626;" transform="translate(137.232390414 370.646875)scale(0.1 -0.1)">
       <use xlink:href="#LiberationSans-32"/>
       <use x="55.615234375" xlink:href="#LiberationSans-30"/>
       <use x="111.23046875" xlink:href="#LiberationSans-31"/>
       <use x="166.845703125" xlink:href="#LiberationSans-35"/>
       <use x="222.4609375" xlink:href="#LiberationSans-2d"/>
       <use x="255.76171875" xlink:href="#LiberationSans-31"/>
       <use x="311.376953125" xlink:href="#LiberationSans-31"/>
       <use x="366.9921875" xlink:href="#LiberationSans-2d"/>
       <use x="400.29296875" xlink:href="#LiberationSans-31"/>
       <use x="455.908203125" xlink:href="#LiberationSans-38"/>
       <use x="511.5234375" xlink:href="#LiberationSans-20"/>
       <use x="539.306640625" xlink:href="#LiberationSans-31"/>
       <use x="594.921875" xlink:href="#LiberationSans-33"/>
       <use x="650.537109375" xlink:href="#LiberationSans-3a"/>
       <use x="678.3203125" xlink:href="#LiberationSans-35"/>
       <use x="733.935546875" xlink:href="#LiberationSans-30"/>
       <use x="789.55078125" xlink:href="#LiberationSans-3a"/>
       <use x="817.333984375" xlink:href="#LiberationSans-30"/>
       <use x="872.94921875" xlink:href="#LiberationSans-30"/>
      </g>
     </g>
    </g>
    <g id="xtick_3">
     <g id="line2d_7">
      <path clip-path="url(#p9db25863c4)" d="M 295.311656 356.4 
L 295.311656 39.6 
" style="fill:none;stroke:#ffffff;stroke-linecap:round;"/>
     </g>
     <g id="line2d_8"/>
     <g id="line2d_9"/>
     <g id="text_3">
      <!-- 2015-11-23 09:24:00 -->
      <defs>
       <path d="M 50.875 35.796875 
Q 50.875 26.609375 49.140625 19.703125 
Q 47.40625 12.796875 44.1875 8.203125 
Q 40.96875 3.609375 36.34375 1.3125 
Q 31.734375 -0.984375 25.984375 -0.984375 
Q 22.015625 -0.984375 18.84375 -0.171875 
Q 15.671875 0.640625 13.171875 2.34375 
Q 10.6875 4.046875 8.921875 6.78125 
Q 7.171875 9.515625 6.109375 13.375 
L 14.5 14.703125 
Q 15.875 10.25 18.78125 8.171875 
Q 21.6875 6.109375 26.125 6.109375 
Q 29.6875 6.109375 32.640625 7.78125 
Q 35.59375 9.46875 37.671875 12.84375 
Q 39.75 16.21875 40.921875 21.296875 
Q 42.09375 26.375 42.1875 33.203125 
Q 41.15625 30.90625 39.375 29.09375 
Q 37.59375 27.296875 35.328125 26.046875 
Q 33.0625 24.8125 30.421875 24.140625 
Q 27.78125 23.484375 25.09375 23.484375 
Q 20.40625 23.484375 16.625 25.171875 
Q 12.84375 26.859375 10.203125 29.875 
Q 7.5625 32.90625 6.125 37.171875 
Q 4.6875 41.453125 4.6875 46.6875 
Q 4.6875 52 6.21875 56.296875 
Q 7.765625 60.59375 10.6875 63.59375 
Q 13.625 66.609375 17.890625 68.21875 
Q 22.171875 69.828125 27.59375 69.828125 
Q 39.0625 69.828125 44.96875 61.328125 
Q 50.875 52.828125 50.875 35.796875 
M 41.3125 44.28125 
Q 41.3125 48.09375 40.40625 51.453125 
Q 39.5 54.828125 37.71875 57.3125 
Q 35.9375 59.8125 33.328125 61.25 
Q 30.71875 62.703125 27.296875 62.703125 
Q 24.125 62.703125 21.578125 61.578125 
Q 19.046875 60.453125 17.28125 58.375 
Q 15.53125 56.296875 14.578125 53.3125 
Q 13.625 50.34375 13.625 46.6875 
Q 13.625 43.21875 14.46875 40.234375 
Q 15.328125 37.25 17.03125 35.078125 
Q 18.75 32.90625 21.28125 31.65625 
Q 23.828125 30.421875 27.203125 30.421875 
Q 29.640625 30.421875 32.15625 31.25 
Q 34.671875 32.078125 36.6875 33.78125 
Q 38.71875 35.5 40.015625 38.109375 
Q 41.3125 40.71875 41.3125 44.28125 
" id="LiberationSans-39"/>
       <path d="M 43.015625 15.578125 
L 43.015625 0 
L 34.71875 0 
L 34.71875 15.578125 
L 2.296875 15.578125 
L 2.296875 22.40625 
L 33.796875 68.796875 
L 43.015625 68.796875 
L 43.015625 22.515625 
L 52.6875 22.515625 
L 52.6875 15.578125 
z
M 34.71875 58.890625 
Q 34.625 58.640625 34.234375 57.9375 
Q 33.84375 57.234375 33.34375 56.34375 
Q 32.859375 55.46875 32.34375 54.5625 
Q 31.84375 53.65625 31.453125 53.078125 
L 13.8125 27.09375 
Q 13.578125 26.703125 13.109375 26.0625 
Q 12.640625 25.4375 12.15625 24.78125 
Q 11.671875 24.125 11.171875 23.484375 
Q 10.6875 22.859375 10.40625 22.515625 
L 34.71875 22.515625 
z
" id="LiberationSans-34"/>
      </defs>
      <g style="fill:#262626;" transform="translate(248.888218328 370.646875)scale(0.1 -0.1)">
       <use xlink:href="#LiberationSans-32"/>
       <use x="55.615234375" xlink:href="#LiberationSans-30"/>
       <use x="111.23046875" xlink:href="#LiberationSans-31"/>
       <use x="166.845703125" xlink:href="#LiberationSans-35"/>
       <use x="222.4609375" xlink:href="#LiberationSans-2d"/>
       <use x="255.76171875" xlink:href="#LiberationSans-31"/>
       <use x="311.376953125" xlink:href="#LiberationSans-31"/>
       <use x="366.9921875" xlink:href="#LiberationSans-2d"/>
       <use x="400.29296875" xlink:href="#LiberationSans-32"/>
       <use x="455.908203125" xlink:href="#LiberationSans-33"/>
       <use x="511.5234375" xlink:href="#LiberationSans-20"/>
       <use x="539.306640625" xlink:href="#LiberationSans-30"/>
       <use x="594.921875" xlink:href="#LiberationSans-39"/>
       <use x="650.537109375" xlink:href="#LiberationSans-3a"/>
       <use x="678.3203125" xlink:href="#LiberationSans-32"/>
       <use x="733.935546875" xlink:href="#LiberationSans-34"/>
       <use x="789.55078125" xlink:href="#LiberationSans-3a"/>
       <use x="817.333984375" xlink:href="#LiberationSans-30"/>
       <use x="872.94921875" xlink:href="#LiberationSans-30"/>
      </g>
     </g>
    </g>
    <g id="xtick_4">
     <g id="line2d_10">
      <path clip-path="url(#p9db25863c4)" d="M 406.967484 356.4 
L 406.967484 39.6 
" style="fill:none;stroke:#ffffff;stroke-linecap:round;"/>
     </g>
     <g id="line2d_11"/>
     <g id="line2d_12"/>
     <g id="text_4">
      <!-- 2015-11-25 10:59:00 -->
      <g style="fill:#262626;" transform="translate(360.544046242 370.646875)scale(0.1 -0.1)">
       <use xlink:href="#LiberationSans-32"/>
       <use x="55.615234375" xlink:href="#LiberationSans-30"/>
       <use x="111.23046875" xlink:href="#LiberationSans-31"/>
       <use x="166.845703125" xlink:href="#LiberationSans-35"/>
       <use x="222.4609375" xlink:href="#LiberationSans-2d"/>
       <use x="255.76171875" xlink:href="#LiberationSans-31"/>
       <use x="311.376953125" xlink:href="#LiberationSans-31"/>
       <use x="366.9921875" xlink:href="#LiberationSans-2d"/>
       <use x="400.29296875" xlink:href="#LiberationSans-32"/>
       <use x="455.908203125" xlink:href="#LiberationSans-35"/>
       <use x="511.5234375" xlink:href="#LiberationSans-20"/>
       <use x="539.306640625" xlink:href="#LiberationSans-31"/>
       <use x="594.921875" xlink:href="#LiberationSans-30"/>
       <use x="650.537109375" xlink:href="#LiberationSans-3a"/>
       <use x="678.3203125" xlink:href="#LiberationSans-35"/>
       <use x="733.935546875" xlink:href="#LiberationSans-39"/>
       <use x="789.55078125" xlink:href="#LiberationSans-3a"/>
       <use x="817.333984375" xlink:href="#LiberationSans-30"/>
       <use x="872.94921875" xlink:href="#LiberationSans-30"/>
      </g>
     </g>
    </g>
    <g id="text_5">
     <!-- time -->
     <defs>
      <path d="M 13.484375 24.5625 
Q 13.484375 20.40625 14.328125 16.90625 
Q 15.1875 13.421875 16.96875 10.90625 
Q 18.75 8.40625 21.53125 7 
Q 24.3125 5.609375 28.21875 5.609375 
Q 33.9375 5.609375 37.375 7.90625 
Q 40.828125 10.203125 42.046875 13.71875 
L 49.75 11.53125 
Q 48.921875 9.328125 47.4375 7.109375 
Q 45.953125 4.890625 43.453125 3.09375 
Q 40.96875 1.3125 37.234375 0.15625 
Q 33.5 -0.984375 28.21875 -0.984375 
Q 16.5 -0.984375 10.375 6 
Q 4.25 12.984375 4.25 26.765625 
Q 4.25 34.1875 6.09375 39.328125 
Q 7.953125 44.484375 11.171875 47.703125 
Q 14.40625 50.921875 18.703125 52.359375 
Q 23 53.8125 27.875 53.8125 
Q 34.515625 53.8125 38.984375 51.65625 
Q 43.453125 49.515625 46.15625 45.71875 
Q 48.875 41.9375 50.015625 36.8125 
Q 51.171875 31.6875 51.171875 25.734375 
L 51.171875 24.5625 
z
M 42.09375 31.296875 
Q 41.359375 39.65625 37.84375 43.484375 
Q 34.328125 47.3125 27.734375 47.3125 
Q 25.53125 47.3125 23.109375 46.609375 
Q 20.703125 45.90625 18.65625 44.09375 
Q 16.609375 42.28125 15.1875 39.171875 
Q 13.765625 36.078125 13.578125 31.296875 
z
" id="LiberationSans-65"/>
      <path d="M 6.6875 64.0625 
L 6.6875 72.46875 
L 15.484375 72.46875 
L 15.484375 64.0625 
z
M 6.6875 0 
L 6.6875 52.828125 
L 15.484375 52.828125 
L 15.484375 0 
z
" id="LiberationSans-69"/>
      <path d="M 27.046875 0.390625 
Q 25.046875 -0.140625 22.96875 -0.453125 
Q 20.90625 -0.78125 18.171875 -0.78125 
Q 7.625 -0.78125 7.625 11.1875 
L 7.625 46.4375 
L 1.515625 46.4375 
L 1.515625 52.828125 
L 7.953125 52.828125 
L 10.546875 64.65625 
L 16.40625 64.65625 
L 16.40625 52.828125 
L 26.171875 52.828125 
L 26.171875 46.4375 
L 16.40625 46.4375 
L 16.40625 13.09375 
Q 16.40625 9.28125 17.640625 7.734375 
Q 18.890625 6.203125 21.96875 6.203125 
Q 23.25 6.203125 24.4375 6.390625 
Q 25.640625 6.59375 27.046875 6.890625 
z
" id="LiberationSans-74"/>
      <path d="M 37.5 0 
L 37.5 33.5 
Q 37.5 37.359375 37.015625 39.9375 
Q 36.53125 42.53125 35.375 44.109375 
Q 34.234375 45.703125 32.375 46.359375 
Q 30.515625 47.015625 27.828125 47.015625 
Q 25.046875 47.015625 22.796875 45.921875 
Q 20.5625 44.828125 18.96875 42.75 
Q 17.390625 40.671875 16.53125 37.625 
Q 15.671875 34.578125 15.671875 30.609375 
L 15.671875 0 
L 6.9375 0 
L 6.9375 41.546875 
Q 6.9375 43.21875 6.90625 45.046875 
Q 6.890625 46.875 6.828125 48.5 
Q 6.78125 50.140625 6.734375 51.3125 
Q 6.6875 52.484375 6.640625 52.828125 
L 14.9375 52.828125 
Q 14.984375 52.59375 15.03125 51.515625 
Q 15.09375 50.4375 15.15625 49.046875 
Q 15.234375 47.65625 15.28125 46.21875 
Q 15.328125 44.78125 15.328125 43.796875 
L 15.484375 43.796875 
Q 16.65625 46.09375 18.015625 47.953125 
Q 19.390625 49.8125 21.21875 51.09375 
Q 23.046875 52.390625 25.40625 53.09375 
Q 27.78125 53.8125 30.90625 53.8125 
Q 36.921875 53.8125 40.40625 51.421875 
Q 43.890625 49.03125 45.265625 43.796875 
L 45.40625 43.796875 
Q 46.578125 46.09375 48.046875 47.953125 
Q 49.515625 49.8125 51.46875 51.09375 
Q 53.421875 52.390625 55.859375 53.09375 
Q 58.296875 53.8125 61.421875 53.8125 
Q 65.4375 53.8125 68.328125 52.734375 
Q 71.234375 51.65625 73.09375 49.40625 
Q 74.953125 47.171875 75.828125 43.625 
Q 76.703125 40.09375 76.703125 35.203125 
L 76.703125 0 
L 68.015625 0 
L 68.015625 33.5 
Q 68.015625 37.359375 67.53125 39.9375 
Q 67.046875 42.53125 65.890625 44.109375 
Q 64.75 45.703125 62.890625 46.359375 
Q 61.03125 47.015625 58.34375 47.015625 
Q 55.5625 47.015625 53.3125 45.96875 
Q 51.078125 44.921875 49.484375 42.875 
Q 47.90625 40.828125 47.046875 37.75 
Q 46.1875 34.671875 46.1875 30.609375 
L 46.1875 0 
z
" id="LiberationSans-6d"/>
     </defs>
     <g style="fill:#262626;" transform="translate(284.81015625 385.6934375)scale(0.11 -0.11)">
      <use xlink:href="#LiberationSans-74"/>
      <use x="27.783203125" xlink:href="#LiberationSans-69"/>
      <use x="50.0" xlink:href="#LiberationSans-6d"/>
      <use x="133.30078125" xlink:href="#LiberationSans-65"/>
     </g>
    </g>
   </g>
   <g id="matplotlib.axis_2">
    <g id="ytick_1">
     <g id="line2d_13">
      <path clip-path="url(#p9db25863c4)" d="M 72 356.4 
L 518.4 356.4 
" style="fill:none;stroke:#ffffff;stroke-linecap:round;"/>
     </g>
     <g id="line2d_14"/>
     <g id="line2d_15"/>
     <g id="text_6">
      <!-- −10000 -->
      <defs>
       <path d="M 4.9375 29.6875 
L 4.9375 36.8125 
L 53.515625 36.8125 
L 53.515625 29.6875 
z
" id="LiberationSans-2212"/>
      </defs>
      <g style="fill:#262626;" transform="translate(31.3546875 358.9859375)scale(0.1 -0.1)">
       <use xlink:href="#LiberationSans-2212"/>
       <use x="58.3984375" xlink:href="#LiberationSans-31"/>
       <use x="114.013671875" xlink:href="#LiberationSans-30"/>
       <use x="169.62890625" xlink:href="#LiberationSans-30"/>
       <use x="225.244140625" xlink:href="#LiberationSans-30"/>
       <use x="280.859375" xlink:href="#LiberationSans-30"/>
      </g>
     </g>
    </g>
    <g id="ytick_2">
     <g id="line2d_16">
      <path clip-path="url(#p9db25863c4)" d="M 72 293.04 
L 518.4 293.04 
" style="fill:none;stroke:#ffffff;stroke-linecap:round;"/>
     </g>
     <g id="line2d_17"/>
     <g id="line2d_18"/>
     <g id="text_7">
      <!-- −9950 -->
      <g style="fill:#262626;" transform="translate(36.915625 295.6259375)scale(0.1 -0.1)">
       <use xlink:href="#LiberationSans-2212"/>
       <use x="58.3984375" xlink:href="#LiberationSans-39"/>
       <use x="114.013671875" xlink:href="#LiberationSans-39"/>
       <use x="169.62890625" xlink:href="#LiberationSans-35"/>
       <use x="225.244140625" xlink:href="#LiberationSans-30"/>
      </g>
     </g>
    </g>
    <g id="ytick_3">
     <g id="line2d_19">
      <path clip-path="url(#p9db25863c4)" d="M 72 229.68 
L 518.4 229.68 
" style="fill:none;stroke:#ffffff;stroke-linecap:round;"/>
     </g>
     <g id="line2d_20"/>
     <g id="line2d_21"/>
     <g id="text_8">
      <!-- −9900 -->
      <g style="fill:#262626;" transform="translate(36.915625 232.2659375)scale(0.1 -0.1)">
       <use xlink:href="#LiberationSans-2212"/>
       <use x="58.3984375" xlink:href="#LiberationSans-39"/>
       <use x="114.013671875" xlink:href="#LiberationSans-39"/>
       <use x="169.62890625" xlink:href="#LiberationSans-30"/>
       <use x="225.244140625" xlink:href="#LiberationSans-30"/>
      </g>
     </g>
    </g>
    <g id="ytick_4">
     <g id="line2d_22">
      <path clip-path="url(#p9db25863c4)" d="M 72 166.32 
L 518.4 166.32 
" style="fill:none;stroke:#ffffff;stroke-linecap:round;"/>
     </g>
     <g id="line2d_23"/>
     <g id="line2d_24"/>
     <g id="text_9">
      <!-- −9850 -->
      <g style="fill:#262626;" transform="translate(36.915625 168.9059375)scale(0.1 -0.1)">
       <use xlink:href="#LiberationSans-2212"/>
       <use x="58.3984375" xlink:href="#LiberationSans-39"/>
       <use x="114.013671875" xlink:href="#LiberationSans-38"/>
       <use x="169.62890625" xlink:href="#LiberationSans-35"/>
       <use x="225.244140625" xlink:href="#LiberationSans-30"/>
      </g>
     </g>
    </g>
    <g id="ytick_5">
     <g id="line2d_25">
      <path clip-path="url(#p9db25863c4)" d="M 72 102.96 
L 518.4 102.96 
" style="fill:none;stroke:#ffffff;stroke-linecap:round;"/>
     </g>
     <g id="line2d_26"/>
     <g id="line2d_27"/>
     <g id="text_10">
      <!-- −9800 -->
      <g style="fill:#262626;" transform="translate(36.915625 105.5459375)scale(0.1 -0.1)">
       <use xlink:href="#LiberationSans-2212"/>
       <use x="58.3984375" xlink:href="#LiberationSans-39"/>
       <use x="114.013671875" xlink:href="#LiberationSans-38"/>
       <use x="169.62890625" xlink:href="#LiberationSans-30"/>
       <use x="225.244140625" xlink:href="#LiberationSans-30"/>
      </g>
     </g>
    </g>
    <g id="ytick_6">
     <g id="line2d_28">
      <path clip-path="url(#p9db25863c4)" d="M 72 39.6 
L 518.4 39.6 
" style="fill:none;stroke:#ffffff;stroke-linecap:round;"/>
     </g>
     <g id="line2d_29"/>
     <g id="line2d_30"/>
     <g id="text_11">
      <!-- −9750 -->
      <defs>
       <path d="M 50.59375 61.671875 
Q 45.40625 53.765625 41.0625 46.453125 
Q 36.71875 39.15625 33.59375 31.75 
Q 30.46875 24.359375 28.734375 16.578125 
Q 27 8.796875 27 0 
L 17.828125 0 
Q 17.828125 8.25 19.78125 16.1875 
Q 21.734375 24.125 25.046875 31.765625 
Q 28.375 39.40625 32.765625 46.78125 
Q 37.15625 54.15625 42.09375 61.328125 
L 5.125 61.328125 
L 5.125 68.796875 
L 50.59375 68.796875 
z
" id="LiberationSans-37"/>
      </defs>
      <g style="fill:#262626;" transform="translate(36.915625 42.1859375)scale(0.1 -0.1)">
       <use xlink:href="#LiberationSans-2212"/>
       <use x="58.3984375" xlink:href="#LiberationSans-39"/>
       <use x="114.013671875" xlink:href="#LiberationSans-37"/>
       <use x="169.62890625" xlink:href="#LiberationSans-35"/>
       <use x="225.244140625" xlink:href="#LiberationSans-30"/>
      </g>
     </g>
    </g>
   </g>
   <g id="line2d_31">
    <path clip-path="url(#p9db25863c4)" d="M 72 148.504151 
L 72.223312 147.287639 
L 72.446623 134.616694 
L 72.893247 144.88545 
L 73.116558 146.08929 
L 73.33987 144.88545 
L 73.563182 146.694801 
L 74.009805 142.465098 
L 74.233117 151.511851 
L 74.456428 152.715691 
L 74.903052 148.485989 
L 75.349675 143.645285 
L 75.572986 144.861797 
L 75.796298 144.867287 
L 76.01961 141.854097 
L 76.242921 141.243095 
L 76.466233 147.282149 
L 76.689545 144.256286 
L 76.912856 144.867287 
L 77.136168 143.057937 
L 77.35948 138.828234 
L 77.806103 142.446935 
L 78.029415 140.637585 
L 78.252726 145.472798 
L 78.476038 140.044746 
L 78.69935 138.828234 
L 78.922661 138.828234 
L 79.145973 138.235396 
L 79.592596 144.27994 
L 79.815908 147.29313 
L 80.03922 154.548695 
L 80.262531 153.332183 
L 80.485843 155.747045 
L 80.709155 151.517342 
L 80.932466 153.937694 
L 81.155778 154.530533 
L 81.37909 152.122853 
L 81.602401 146.083799 
L 82.049025 147.287639 
L 82.495648 151.517342 
L 82.942271 149.102481 
L 83.165583 144.867287 
L 83.388894 146.083799 
L 83.612206 148.485989 
L 83.835518 147.874987 
L 84.058829 153.321202 
L 84.282141 153.91404 
L 84.505453 153.321202 
L 85.175388 158.749254 
L 85.398699 161.762444 
L 85.622011 155.723391 
L 85.845323 152.7102 
L 86.291946 161.762444 
L 86.515258 162.373446 
L 86.738569 162.373446 
L 86.961881 162.978956 
L 87.185193 162.373446 
L 87.408504 164.788307 
L 87.855128 155.723391 
L 88.078439 157.532742 
L 88.301751 165.375655 
L 88.525063 168.388845 
L 88.971686 166.579495 
L 89.194997 168.388845 
L 89.418309 167.777844 
L 89.641621 161.140461 
L 89.864932 162.344301 
L 90.088244 164.764653 
L 90.311556 159.923949 
L 90.534867 163.548141 
L 90.758179 162.344301 
L 90.981491 163.548141 
L 91.428114 167.185005 
L 91.651426 167.185005 
L 91.874737 170.803706 
L 92.098049 167.185005 
L 92.544672 170.198196 
L 92.767984 165.968493 
L 92.991296 166.579495 
L 93.214607 162.349792 
L 93.437919 163.566304 
L 93.884542 153.903059 
L 94.107854 158.120089 
L 94.331166 153.297548 
L 94.554477 156.916249 
L 95.001101 154.495897 
L 95.671036 160.540441 
L 95.894347 159.336601 
L 96.117659 153.297548 
L 96.564282 156.92174 
L 96.787594 161.756953 
L 97.010905 160.540441 
L 97.234217 161.756953 
L 97.457529 161.756953 
L 97.68084 163.566304 
L 98.127464 163.566304 
L 98.350775 161.145952 
L 98.574087 161.145952 
L 98.797399 164.764653 
L 99.02071 161.145952 
L 99.244022 164.770144 
L 99.467334 170.221849 
L 99.690645 171.443852 
L 99.913957 176.266393 
L 100.137269 167.806988 
L 100.36058 171.425689 
L 100.583892 171.425689 
L 100.807204 173.846041 
L 101.030515 174.451552 
L 101.253827 175.655392 
L 101.477139 174.451552 
L 101.923762 174.451552 
L 102.147074 178.681255 
L 102.370385 178.681255 
L 102.593697 181.088935 
L 102.817009 179.279584 
L 103.04032 187.146151 
L 103.486943 180.51975 
L 103.710255 174.462534 
L 103.933567 183.53294 
L 104.156878 177.488396 
L 104.38019 175.068044 
L 104.603502 179.908748 
L 104.826813 182.3291 
L 105.050125 181.112588 
L 105.273437 169.616339 
L 105.496748 169.616339 
L 105.72006 177.488396 
L 105.943372 178.099398 
L 106.166683 185.953292 
L 106.389995 204.041307 
L 106.613307 204.634146 
L 107.05993 196.785742 
L 107.283242 199.793442 
L 107.506553 196.174741 
L 107.729865 203.430306 
L 107.953177 201.009954 
L 108.176488 203.430306 
L 108.623112 203.430306 
L 108.846423 198.002254 
L 109.069735 199.206094 
L 109.293047 198.595093 
L 109.516358 193.16155 
L 109.73967 193.16155 
L 109.962981 197.984091 
L 110.409605 199.811605 
L 110.632916 197.391253 
L 110.856228 202.824795 
L 111.07954 203.435797 
L 111.302851 210.696853 
L 111.526163 212.506203 
L 111.749475 209.47485 
L 111.972786 211.289691 
L 112.196098 207.67099 
L 112.41941 226.428296 
L 112.642721 231.269 
L 112.866033 253.632334 
L 113.312656 240.943226 
L 113.535968 242.77074 
L 113.75928 245.78393 
L 113.982591 245.78393 
L 114.205903 240.943226 
L 114.652526 243.363578 
L 114.875838 231.27449 
L 115.09915 234.305844 
L 115.322461 233.700333 
L 115.545773 227.66128 
L 115.992396 237.324525 
L 116.215708 250.630125 
L 116.43902 277.241325 
L 116.662331 268.776429 
L 116.885643 269.980269 
L 117.108954 257.891181 
L 117.332266 257.891181 
L 117.555578 255.470829 
L 117.778889 255.470829 
L 118.002201 245.789421 
L 118.225513 244.585581 
L 118.448824 233.700333 
L 118.672136 238.541037 
L 118.895448 230.687143 
L 119.118759 242.776231 
L 119.342071 239.152039 
L 119.565383 239.744877 
L 120.012006 254.836174 
L 120.235318 250.008142 
L 120.458629 252.428494 
L 120.681941 256.645525 
L 121.128564 257.856546 
L 121.575188 257.856546 
L 121.798499 261.480738 
L 122.021811 272.365986 
L 122.245123 272.365986 
L 122.468434 274.786338 
L 122.915058 265.10493 
L 123.361681 271.149474 
L 123.584992 278.41053 
L 124.478239 268.747285 
L 124.701551 267.530773 
L 124.924862 269.951125 
L 125.148174 268.747285 
L 125.371486 266.326933 
L 125.818109 271.760475 
L 126.041421 268.747285 
L 126.264732 279.632533 
L 126.488044 274.791829 
L 126.711356 267.530773 
L 126.934667 265.715931 
L 127.157979 266.321442 
L 127.381291 254.219682 
L 127.604602 263.90109 
L 127.827914 265.10493 
L 128.051226 265.10493 
L 128.274537 263.90109 
L 128.497849 263.90109 
L 128.721161 260.282389 
L 129.167784 262.09723 
L 129.391096 262.09723 
L 129.614407 260.898881 
L 129.837719 257.274689 
L 130.507654 266.937934 
L 130.954277 262.09723 
L 131.177589 265.721422 
L 131.4009 266.326933 
L 131.624212 267.525282 
L 131.847524 267.525282 
L 132.070835 268.741794 
L 132.294147 272.360495 
L 132.517459 283.216599 
L 132.964082 274.762684 
L 133.187394 278.386876 
L 133.410705 274.762684 
L 133.634017 275.979196 
L 133.857329 274.762684 
L 134.08064 277.788547 
L 134.303952 277.788547 
L 134.750575 276.572035 
L 134.973887 275.373686 
L 135.197199 276.577526 
L 135.643822 283.833091 
L 136.090445 277.788547 
L 136.313757 267.501628 
L 136.537069 275.350032 
L 136.983692 270.522 
L 137.207004 271.72584 
L 137.430315 271.120329 
L 137.653627 272.336841 
L 137.876938 272.92968 
L 138.10025 271.72584 
L 138.323562 272.92968 
L 138.546873 274.757193 
L 139.216808 285.036931 
L 139.663432 278.386876 
L 139.886743 281.412739 
L 140.110055 277.183036 
L 140.333367 281.412739 
L 140.556678 282.616579 
L 140.77999 278.992387 
L 141.003302 280.196227 
L 141.449925 277.788547 
L 141.673237 280.801737 
L 142.11986 276.572035 
L 142.343172 276.572035 
L 142.566483 275.368195 
L 142.789795 280.190736 
L 143.013107 271.731331 
L 143.906353 282.611088 
L 144.129665 278.992387 
L 144.352976 278.381385 
L 144.576288 278.992387 
L 144.7996 278.992387 
L 145.022911 280.196227 
L 145.246223 269.940143 
L 145.469535 267.525282 
L 145.692846 262.684578 
L 145.916158 262.684578 
L 146.13947 266.321442 
L 146.362781 262.684578 
L 146.809405 262.684578 
L 147.032716 259.065877 
L 147.47934 259.065877 
L 147.702651 257.862037 
L 147.925963 254.836174 
L 148.149275 245.167438 
L 148.372586 248.79163 
L 148.595898 246.976789 
L 149.042521 240.326734 
L 149.265833 240.321243 
L 149.489145 234.887701 
L 149.712456 245.754786 
L 149.935768 250.59549 
L 150.382391 253.015842 
L 150.605703 253.015842 
L 150.829015 260.869736 
L 151.275638 256.640034 
L 151.498949 257.856546 
L 151.722261 254.219682 
L 151.945573 255.436194 
L 152.168884 251.79933 
L 152.615508 259.642243 
L 152.838819 259.636752 
L 153.062131 256.634543 
L 153.285443 259.642243 
L 153.508754 254.2087 
L 153.732066 251.793839 
L 153.955378 246.971298 
L 154.178689 246.976789 
L 154.402001 245.760277 
L 154.625313 245.161947 
L 154.848624 242.741595 
L 155.071936 242.130594 
L 155.295248 234.887701 
L 155.518559 236.702542 
L 155.741871 240.326734 
L 155.965183 234.898682 
L 156.188494 226.439277 
L 156.411806 233.694842 
L 156.858429 236.708033 
L 157.081741 236.708033 
L 157.305053 233.083841 
L 157.528364 234.287681 
L 157.751676 236.708033 
L 157.974987 241.543246 
L 158.198299 237.924545 
L 158.421611 241.548737 
L 158.868234 243.969089 
L 159.091546 252.428494 
L 159.314857 244.58009 
L 159.538169 243.381741 
L 159.984792 239.133876 
L 160.208104 240.943226 
L 160.431416 245.172929 
L 160.654727 246.389441 
L 160.878039 246.389441 
L 161.324662 243.969089 
L 161.547974 247.593281 
L 161.771286 246.389441 
L 161.994597 246.98228 
L 162.217909 243.969089 
L 162.441221 251.211982 
L 162.664532 248.79163 
L 162.887844 251.211982 
L 163.111156 251.211982 
L 163.334467 250.619144 
L 163.557779 254.836174 
L 163.781091 251.211982 
L 164.004402 252.428494 
L 164.227714 246.389441 
L 164.451026 248.198792 
L 164.897649 255.441685 
L 165.12096 262.684578 
L 165.344272 262.684578 
L 165.567584 265.10493 
L 165.790895 260.875227 
L 166.014207 252.433985 
L 166.237519 251.217473 
L 166.46083 248.204282 
L 166.684142 251.217473 
L 167.130765 248.809793 
L 167.354077 252.433985 
L 167.577389 252.433985 
L 167.8007 248.204282 
L 168.024012 250.013633 
L 168.247324 253.637825 
L 168.470635 254.854337 
L 168.693947 258.478529 
L 168.917259 257.274689 
L 169.14057 260.28788 
L 169.363882 254.854337 
L 169.587194 253.637825 
L 169.810505 254.854337 
L 170.033817 254.854337 
L 170.257129 251.828474 
L 170.48044 257.274689 
L 170.703752 258.478529 
L 170.927064 253.637825 
L 171.150375 254.854337 
L 171.373687 251.828474 
L 171.596998 252.433985 
L 171.82031 248.809793 
L 172.266933 253.637825 
L 172.490245 253.637825 
L 172.713557 251.828474 
L 172.936868 253.044986 
L 173.16018 253.637825 
L 173.383492 253.637825 
L 173.606803 248.809793 
L 173.830115 248.809793 
L 174.053427 250.013633 
L 174.50005 250.013633 
L 174.723362 252.433985 
L 174.946673 251.217473 
L 175.169985 250.624634 
L 175.393297 250.624634 
L 175.616608 243.980071 
L 175.83992 241.577881 
L 176.063232 246.418585 
L 176.286543 243.998233 
L 176.509855 247.011424 
L 176.733167 247.011424 
L 176.956478 245.807584 
L 177.17979 247.011424 
L 177.626413 244.591072 
L 177.849725 240.972371 
L 178.073037 244.591072 
L 178.296348 244.591072 
L 178.51966 245.807584 
L 178.742971 245.807584 
L 178.966283 250.648288 
L 179.189595 248.238918 
L 179.412906 248.238918 
L 179.636218 244.614726 
L 179.85953 250.048268 
L 180.082841 249.45543 
L 180.306153 256.703814 
L 180.529465 260.340678 
L 180.752776 260.340678 
L 180.976088 266.385222 
L 181.1994 263.96487 
L 181.422711 263.96487 
L 181.646023 266.97806 
L 181.869335 267.589062 
L 182.315958 257.925816 
L 182.53927 257.925816 
L 182.762581 256.721976 
L 182.985893 259.142328 
L 183.209205 256.721976 
L 183.432516 249.46092 
L 183.655828 251.270271 
L 183.87914 250.677432 
L 184.102451 253.690623 
L 184.549075 253.690623 
L 184.772386 250.677432 
L 184.995698 249.46092 
L 185.21901 251.875782 
L 185.442321 251.270271 
L 185.665633 251.881272 
L 185.888944 249.46092 
L 186.335568 249.46092 
L 186.558879 243.416376 
L 186.782191 244.620216 
L 187.005503 231.314616 
L 187.228814 231.314616 
L 187.452126 237.35367 
L 187.675438 238.570182 
L 187.898749 241.601535 
L 188.122061 240.990534 
L 188.345373 239.774022 
L 188.568684 241.583372 
L 188.791996 239.774022 
L 189.015308 240.379532 
L 189.238619 241.583372 
L 189.685243 236.14983 
L 189.908554 235.544319 
L 190.131866 230.110776 
L 190.578489 233.123967 
L 190.801801 232.531128 
L 191.248424 234.95148 
L 191.471736 233.734968 
L 192.141671 233.734968 
L 192.364982 232.531128 
L 192.588294 227.695915 
L 193.034917 227.695915 
L 193.481541 232.531128 
L 193.704852 232.531128 
L 193.928164 231.314616 
L 194.151476 233.734968 
L 194.374787 228.912427 
L 194.598099 231.332779 
L 195.044722 227.695915 
L 195.714657 224.682725 
L 195.937969 226.492075 
L 196.161281 230.110776 
L 196.384592 231.314616 
L 196.607904 231.314616 
L 197.054527 236.15532 
L 197.277839 233.14213 
L 197.501151 232.536619 
L 197.724462 230.116267 
L 197.947774 228.912427 
L 198.171086 226.492075 
L 198.394397 227.695915 
L 198.617709 226.492075 
L 198.841021 224.071723 
L 199.064332 228.301426 
L 199.287644 191.439633 
L 199.510955 190.834122 
L 199.734267 189.019281 
L 199.957579 184.789578 
L 200.404202 191.415979 
L 200.627514 193.83084 
L 200.850825 193.22533 
L 201.297449 202.295736 
L 201.52076 201.079224 
L 201.744072 202.295736 
L 201.967384 202.295736 
L 202.190695 203.499576 
L 202.414007 199.875384 
L 202.637319 198.671544 
L 203.083942 201.079224 
L 203.307254 199.875384 
L 203.530565 204.697926 
L 203.753877 206.507276 
L 203.977189 204.686944 
L 204.2005 206.501785 
L 204.423812 202.877593 
L 204.647124 205.297945 
L 205.093747 205.297945 
L 205.317059 206.501785 
L 205.54037 210.125977 
L 205.986993 208.316627 
L 206.433617 217.387033 
L 206.656928 214.379334 
L 206.88024 215.583174 
L 207.103552 224.04807 
L 207.326863 225.259091 
L 207.550175 221.011225 
L 207.773487 221.029388 
L 207.996798 218.003526 
L 208.22011 217.392524 
L 208.443422 221.622227 
L 208.666733 217.392524 
L 208.890045 219.201875 
L 209.113357 217.392524 
L 209.336668 221.029388 
L 209.55998 222.233228 
L 210.006603 219.220038 
L 210.229915 218.003526 
L 210.453227 221.029388 
L 210.676538 218.609036 
L 210.89985 222.227737 
L 211.123162 218.609036 
L 211.346473 218.609036 
L 211.569785 215.583174 
L 211.793097 221.622227 
L 212.016408 221.029388 
L 212.463032 225.851929 
L 212.686343 241.543246 
L 212.909655 243.334434 
L 213.132966 240.914082 
L 213.356278 236.08605 
L 213.57959 234.869538 
L 213.802901 239.710242 
L 214.026213 236.697051 
L 214.249525 235.480539 
L 214.472836 233.060187 
L 214.696148 236.08605 
L 214.91946 234.276699 
L 215.366083 236.091541 
L 215.589395 239.104731 
L 216.036018 242.130594 
L 216.482641 239.104731 
L 216.705953 235.48603 
L 216.929265 234.28219 
L 217.152576 238.511893 
L 217.375888 238.511893 
L 217.822511 245.754786 
L 218.045823 243.352597 
L 218.269135 243.945435 
L 218.715758 246.971298 
L 219.385693 250.59549 
L 219.609005 248.175138 
L 219.832316 242.130594 
L 220.055628 243.352597 
L 220.278939 246.971298 
L 220.948874 239.122894 
L 221.172186 240.326734 
L 221.395498 239.122894 
L 221.618809 235.504193 
L 221.842121 239.715733 
L 222.065433 237.906382 
L 222.512056 237.906382 
L 222.735368 239.122894 
L 222.958679 239.122894 
L 223.181991 240.326734 
L 223.628614 236.708033 
L 224.075238 245.167438 
L 224.298549 243.358088 
L 224.521861 243.950926 
L 224.745173 245.167438 
L 224.968484 247.58779 
L 225.191796 247.58779 
L 225.415108 246.371278 
L 225.638419 246.976789 
L 225.861731 249.378978 
L 226.308354 260.264226 
L 226.531666 258.454875 
L 226.978289 247.58779 
L 227.201601 251.211982 
L 227.424912 251.211982 
L 227.648224 250.008142 
L 227.871536 247.58779 
L 228.318159 237.906382 
L 228.764782 241.543246 
L 228.988094 241.543246 
L 229.211406 239.122894 
L 229.434717 230.657998 
L 229.658029 234.887701 
L 229.881341 232.467349 
L 230.104652 238.506402 
L 230.774587 244.550946 
L 230.997899 239.715733 
L 231.221211 241.525083 
L 231.444522 242.136085 
L 231.891146 240.932245 
L 232.114457 239.122894 
L 232.561081 242.136085 
L 233.007704 237.295381 
L 233.231016 236.702542 
L 233.454327 237.906382 
L 233.677639 230.076141 
L 234.347574 230.076141 
L 234.570885 231.279981 
L 234.794197 231.279981 
L 235.017509 234.311335 
L 235.24082 227.068441 
L 235.687444 230.687143 
L 236.134067 230.687143 
L 236.357379 233.700333 
L 236.58069 234.904173 
L 237.027314 231.890983 
L 237.250625 227.66128 
L 237.473937 227.655789 
L 237.92056 232.47833 
L 238.143872 230.076141 
L 238.367184 231.279981 
L 238.590495 231.279981 
L 238.813807 228.859629 
L 239.037119 228.859629 
L 239.26043 226.439277 
L 239.707054 226.439277 
L 239.930365 225.846439 
L 240.153677 225.846439 
L 240.376988 228.859629 
L 240.6003 227.655789 
L 241.046923 230.076141 
L 241.270235 228.266791 
L 241.493547 230.076141 
L 241.716858 236.120685 
L 241.94017 239.128385 
L 242.163482 237.924545 
L 242.386793 233.694842 
L 242.610105 234.898682 
L 243.056728 234.898682 
L 243.28004 233.694842 
L 243.503352 234.28219 
L 243.726663 237.906382 
L 243.949975 236.702542 
L 244.396598 243.352597 
L 244.61991 240.326734 
L 244.843222 235.48603 
L 245.066533 233.694842 
L 245.289845 239.128385 
L 245.736468 239.128385 
L 245.95978 216.746888 
L 246.183092 230.023343 
L 246.406403 228.824994 
L 246.629715 226.404642 
L 247.076338 234.858556 
L 247.29965 233.031043 
L 247.522961 233.031043 
L 247.746273 230.610691 
L 247.969585 233.636553 
L 248.192896 238.453604 
L 248.416208 233.618391 
L 248.63952 235.445904 
L 248.862831 235.445904 
L 249.086143 237.866256 
L 249.532766 229.999689 
L 249.756078 231.80904 
L 249.97939 236.649744 
L 250.202701 234.229392 
L 250.426013 234.834903 
L 250.649325 231.210711 
L 250.872636 229.40136 
L 251.095948 229.994199 
L 251.542571 232.414551 
L 251.765883 224.560656 
L 251.989195 229.383197 
L 252.212506 225.153495 
L 252.435818 227.573847 
L 252.65913 226.370007 
L 253.329065 233.618391 
L 253.552376 233.618391 
L 253.775688 236.038743 
L 254.222311 233.025552 
L 254.445623 231.80904 
L 254.668934 226.981008 
L 254.892246 231.80904 
L 255.338869 234.840393 
L 255.562181 230.610691 
L 255.785493 229.406851 
L 256.008804 229.406851 
L 256.232116 231.216201 
L 256.455428 229.406851 
L 256.678739 229.406851 
L 256.902051 232.420041 
L 257.125363 231.216201 
L 257.571986 234.247555 
L 257.795298 231.827203 
L 258.018609 231.827203 
L 258.241921 236.649744 
L 258.465233 234.229392 
L 258.688544 234.229392 
L 258.911856 233.025552 
L 259.358479 236.038743 
L 259.581791 240.268445 
L 259.805103 240.879447 
L 260.028414 238.459095 
L 260.251726 246.923991 
L 260.475038 247.529501 
L 260.921661 251.764695 
L 261.144972 250.560855 
L 261.368284 248.140503 
L 261.591596 249.344343 
L 261.814907 247.529501 
L 262.038219 248.140503 
L 262.261531 248.140503 
L 262.484842 243.299799 
L 262.708154 243.299799 
L 262.931466 245.720151 
L 263.154777 250.542692 
L 263.378089 246.312989 
L 263.601401 246.9185 
L 263.824712 246.9185 
L 264.271336 248.72785 
L 264.494647 243.887146 
L 264.717959 244.498148 
L 264.941271 246.307498 
L 265.164582 246.307498 
L 265.387894 248.72236 
L 265.611206 252.346552 
L 266.057829 249.9262 
L 266.281141 255.359742 
L 266.504452 252.346552 
L 266.727764 256.576254 
L 266.951076 257.187256 
L 267.174387 259.589445 
L 268.067634 248.72236 
L 268.290945 251.142712 
L 268.514257 248.116849 
L 268.737569 248.116849 
L 268.96088 254.761413 
L 269.184192 251.142712 
L 269.407504 252.341061 
L 269.630815 257.774603 
L 269.854127 254.761413 
L 270.077439 258.978443 
L 270.524062 252.346552 
L 270.747374 254.761413 
L 270.970685 251.142712 
L 271.193997 252.952062 
L 271.417309 251.73555 
L 271.64062 247.505848 
L 271.863932 247.505848 
L 272.087244 242.665144 
L 272.310555 241.461304 
L 272.533867 247.500357 
L 272.98049 236.6206 
L 273.203802 240.257464 
L 273.873737 236.6206 
L 274.097049 239.646462 
L 274.32036 240.257464 
L 274.543672 245.080005 
L 274.766983 243.876165 
L 275.213607 246.889355 
L 275.66023 244.469003 
L 275.883542 245.685515 
L 276.106853 245.685515 
L 276.330165 240.844811 
L 276.776788 235.41676 
L 277.223412 234.200248 
L 277.446723 203.353854 
L 277.670035 206.385208 
L 277.893347 202.761016 
L 278.33997 206.40337 
L 278.563282 171.327274 
L 278.786593 182.805361 
L 279.233217 170.716273 
L 279.456528 146.530916 
L 279.67984 163.460708 
L 279.903152 159.836516 
L 280.126463 165.270058 
L 280.349775 165.264568 
L 280.573087 156.799672 
L 281.01971 166.48108 
L 281.689645 150.16778 
L 281.912956 159.831025 
L 282.35958 148.340266 
L 282.806203 167.679429 
L 283.029515 161.634885 
L 283.252826 163.449726 
L 283.476138 160.423864 
L 283.69945 160.423864 
L 283.922761 164.060728 
L 284.146073 162.844216 
L 284.592696 167.68492 
L 285.03932 170.69811 
L 285.262631 167.679429 
L 285.485943 172.507461 
L 285.709255 172.507461 
L 285.932566 171.303621 
L 286.155878 167.073918 
L 286.37919 146.519934 
L 286.602501 161.634885 
L 286.825813 162.233214 
L 287.049125 163.444235 
L 287.272436 167.068427 
L 287.495748 166.462917 
L 287.71906 164.042565 
L 287.942371 165.851915 
L 288.165683 164.042565 
L 288.388994 160.418373 
L 288.612306 159.825534 
L 288.835618 157.998021 
L 289.058929 159.825534 
L 289.282241 163.444235 
L 289.505553 162.838725 
L 289.728864 164.042565 
L 290.175488 164.042565 
L 290.622111 160.412882 
L 290.845423 162.833234 
L 291.068734 164.037074 
L 291.292046 162.833234 
L 291.515358 160.412882 
L 291.961981 148.922123 
L 292.185293 155.572178 
L 292.408604 150.138635 
L 292.855228 151.947986 
L 293.078539 125.336786 
L 293.301851 134.976378 
L 293.525163 134.976378 
L 293.748474 150.091328 
L 294.195098 139.835244 
L 294.418409 151.918842 
L 294.641721 173.694828 
L 294.865033 170.070636 
L 295.088344 174.922322 
L 295.311656 174.316811 
L 295.534967 145.949059 
L 295.758279 140.521007 
L 296.204902 149.004066 
L 296.428214 157.463471 
L 296.651526 152.017256 
L 296.874837 139.933659 
L 297.098149 142.959522 
L 297.321461 147.782063 
L 297.544772 142.959522 
L 297.768084 146.578223 
L 297.991396 156.241468 
L 298.214707 154.432118 
L 298.438019 157.445308 
L 298.884642 141.737519 
L 299.107954 147.782063 
L 299.331266 145.972712 
L 299.554577 150.207906 
L 299.777889 150.207906 
L 300.001201 144.779854 
L 300.224512 145.385365 
L 300.447824 149.004066 
L 300.671136 156.25245 
L 301.117759 146.589205 
L 301.341071 155.04861 
L 301.564382 152.628258 
L 302.011006 165.293712 
L 302.234317 170.721764 
L 302.457629 168.301412 
L 302.68094 167.708573 
L 303.350875 176.155306 
L 303.574187 175.562468 
L 303.797499 181.607012 
L 304.02081 174.345956 
L 304.244122 174.364119 
L 304.467434 174.956957 
L 304.690745 168.319575 
L 304.914057 165.899223 
L 305.137369 159.254659 
L 305.36068 156.241468 
L 305.583992 158.643657 
L 305.807304 159.842007 
L 306.030615 159.842007 
L 306.253927 164.682711 
L 306.477239 167.103063 
L 306.70055 165.293712 
L 306.923862 164.682711 
L 307.370485 169.523415 
L 307.593797 163.478871 
L 307.817109 168.301412 
L 308.04042 168.301412 
L 308.263732 165.288221 
L 308.487044 168.301412 
L 308.933667 168.301412 
L 309.156978 171.938276 
L 309.603602 165.288221 
L 309.826913 168.301412 
L 310.050225 164.682711 
L 310.496848 162.262359 
L 310.72016 162.256868 
L 310.943472 160.447517 
L 311.166783 159.836516 
L 311.390095 161.651357 
L 311.613407 159.842007 
L 311.836718 162.262359 
L 312.06003 162.867869 
L 312.283342 161.058519 
L 312.506653 157.434327 
L 312.953277 163.460708 
L 313.176588 164.071709 
L 313.3999 159.842007 
L 313.623212 165.88106 
L 313.846523 161.053028 
L 314.069835 161.645866 
L 314.73977 156.217815 
L 314.963082 156.217815 
L 315.186393 153.797463 
L 315.633017 137.478672 
L 315.856328 145.332567 
L 316.07964 140.491863 
L 316.302951 142.912215 
L 316.749575 139.899024 
L 317.196198 142.319376 
L 317.866133 155.013975 
L 318.089445 152.593623 
L 318.312756 152.593623 
L 318.536068 148.36392 
L 318.75938 150.173271 
L 319.206003 147.752919 
L 319.429315 151.377111 
L 319.652626 157.434327 
L 319.875938 156.823325 
L 320.09925 168.88876 
L 320.322561 168.906922 
L 320.545873 165.88106 
L 320.769185 165.88106 
L 320.992496 170.110762 
L 321.43912 170.110762 
L 322.332366 162.256868 
L 322.555678 162.256868 
L 323.225613 165.88106 
L 323.448924 164.071709 
L 323.672236 165.88106 
L 323.895548 163.460708 
L 324.118859 163.460708 
L 324.565483 161.053028 
L 324.788794 158.632676 
L 325.012106 167.68492 
L 325.235418 165.264568 
L 325.458729 164.060728 
L 325.682041 156.805162 
L 325.905353 153.786481 
L 326.128664 158.016184 
L 326.351976 159.220024 
L 326.575288 154.397482 
L 326.798599 156.799672 
L 327.021911 156.206833 
L 327.245223 158.016184 
L 327.468534 157.410673 
L 327.915158 152.588132 
L 328.361781 168.906922 
L 328.585093 168.906922 
L 328.808404 171.327274 
L 329.031716 171.327274 
L 329.255028 168.906922 
L 329.478339 165.270058 
L 329.701651 165.270058 
L 330.148274 161.651357 
L 330.371586 161.651357 
L 330.594897 165.288221 
L 330.818209 166.492061 
L 331.041521 165.288221 
L 331.264832 182.218013 
L 331.488144 188.868068 
L 331.711456 219.714461 
L 331.934767 219.10346 
L 332.158079 210.638564 
L 332.381391 221.523812 
L 332.604702 203.377508 
L 332.828014 198.536804 
L 333.051326 198.536804 
L 333.274637 192.49226 
L 333.497949 198.536804 
L 333.721261 191.28842 
L 333.944572 191.28842 
L 334.167884 188.868068 
L 334.391196 193.708772 
L 334.614507 194.912612 
L 334.837819 191.28842 
L 335.061131 193.708772 
L 335.507754 193.714263 
L 335.731066 202.173668 
L 335.954377 200.957156 
L 336.401001 192.49226 
L 336.624312 194.912612 
L 336.847624 191.28842 
L 337.070935 191.28842 
L 337.294247 191.881258 
L 337.517559 196.110961 
L 337.74087 196.716472 
L 337.964182 188.251576 
L 338.187494 190.659256 
L 338.410805 190.066417 
L 338.634117 191.875768 
L 338.857429 196.10547 
L 339.304052 183.410872 
L 339.527364 185.831224 
L 339.750675 187.035064 
L 339.973987 193.685118 
L 340.197299 179.12288 
L 340.643922 168.266777 
L 340.867234 173.083827 
L 341.090545 165.846425 
L 341.537169 162.227723 
L 341.76048 164.648075 
L 341.983792 171.909131 
L 342.207104 170.69811 
L 342.430415 164.060728 
L 342.653727 161.640376 
L 342.877039 165.851915 
L 343.10035 165.259077 
L 343.323662 164.060728 
L 343.546973 160.423864 
L 343.993597 165.840934 
L 344.216908 159.79639 
L 344.44022 167.044774 
L 344.663532 159.807371 
L 344.886843 159.19637 
L 345.110155 159.807371 
L 345.333467 159.807371 
L 345.556778 165.851915 
L 345.78009 163.444235 
L 346.003402 167.068427 
L 346.226713 167.661266 
L 346.450025 165.851915 
L 346.673337 167.068427 
L 346.896648 167.661266 
L 347.11996 160.412882 
L 347.343272 162.833234 
L 347.566583 162.833234 
L 347.789895 159.807371 
L 348.236518 162.227723 
L 348.45983 160.412882 
L 348.906453 167.661266 
L 349.129765 166.457426 
L 349.353077 163.444235 
L 349.7997 168.272267 
L 350.023012 160.412882 
L 350.246323 161.616722 
L 350.469635 164.037074 
L 350.692946 163.444235 
L 350.916258 167.661266 
L 351.13957 166.457426 
L 351.362881 166.457426 
L 351.586193 167.661266 
L 351.809505 166.457426 
L 352.256128 161.616722 
L 352.47944 164.642585 
L 352.702751 164.642585 
L 352.926063 167.655775 
L 353.149375 168.266777 
L 353.372686 167.062937 
L 353.595998 168.266777 
L 353.81931 185.161933 
L 354.042621 182.741581 
L 354.265933 182.741581 
L 354.489245 186.971284 
L 354.712556 197.24004 
L 354.935868 194.214177 
L 355.15918 194.214177 
L 355.382491 199.642229 
L 355.605803 197.221877 
L 356.275738 212.942338 
L 356.49905 216.56653 
L 356.722361 211.725826 
L 356.945673 215.36269 
L 357.392296 217.77037 
L 357.615608 222.000073 
L 357.838919 223.827586 
L 358.285543 220.190722 
L 358.508854 220.190722 
L 359.402101 209.323637 
L 359.625413 216.56653 
L 360.072036 216.572021 
L 360.295348 218.992373 
L 360.518659 218.381372 
L 360.741971 220.190722 
L 360.965283 217.77037 
L 361.188594 218.986882 
L 361.411906 216.56653 
L 361.635218 216.56653 
L 361.858529 217.77037 
L 362.081841 214.75718 
L 362.305153 214.151669 
L 362.528464 212.336828 
L 362.751776 212.336828 
L 362.975088 215.36269 
L 363.198399 214.75718 
L 363.421711 215.36269 
L 363.645023 211.132988 
L 363.868334 211.743989 
L 364.091646 211.725826 
L 364.314957 210.521986 
L 364.538269 210.521986 
L 364.761581 214.146178 
L 364.984892 213.55334 
L 365.208204 212.336828 
L 365.431516 212.336828 
L 365.654827 212.942338 
L 365.878139 208.712636 
L 366.324762 210.521986 
L 366.548074 203.26093 
L 366.771386 205.06479 
L 366.994697 202.038927 
L 367.218009 205.06479 
L 367.441321 201.440598 
L 367.887944 187.553141 
L 368.111256 185.74379 
L 368.334567 188.756981 
L 368.781191 179.704737 
L 369.227814 186.354792 
L 369.451126 186.354792 
L 369.674437 191.788334 
L 369.897749 191.177333 
L 370.344372 183.93444 
L 370.567684 187.553141 
L 370.790995 186.336629 
L 371.014307 186.94763 
L 371.237619 191.177333 
L 371.46093 191.788334 
L 371.907554 191.788334 
L 372.130865 195.412526 
L 372.354177 207.514286 
L 372.577489 200.25323 
L 372.8008 199.642229 
L 373.024112 196.629038 
L 373.247424 198.438389 
L 373.470735 193.597685 
L 374.14067 193.597685 
L 374.363982 194.801525 
L 374.587294 197.221877 
L 374.810605 196.018037 
L 375.033917 193.597685 
L 375.257229 192.393845 
L 375.48054 193.597685 
L 375.703852 197.221877 
L 375.927164 198.438389 
L 376.150475 204.482933 
L 376.373787 199.642229 
L 376.82041 197.832878 
L 377.490345 206.903285 
L 377.713657 200.858741 
L 377.936968 204.477442 
L 378.383592 204.477442 
L 378.606903 205.681282 
L 378.830215 205.681282 
L 379.053527 212.924175 
L 379.276838 211.109334 
L 379.723462 205.070281 
L 379.946773 203.866441 
L 380.170085 205.675791 
L 380.393397 210.503823 
L 380.616708 209.299983 
L 380.84002 209.299983 
L 381.063332 208.096143 
L 381.286643 212.924175 
L 381.509955 208.096143 
L 381.733267 209.299983 
L 381.956578 213.524195 
L 382.17989 212.307683 
L 382.403202 215.333546 
L 382.626513 215.926384 
L 382.849825 218.952247 
L 383.073137 220.156087 
L 383.296448 216.531895 
L 383.51976 224.380299 
L 383.743072 224.973137 
L 383.966383 229.813841 
L 384.189695 225.584139 
L 384.413007 224.973137 
L 384.636318 225.584139 
L 384.85963 222.570948 
L 385.082941 224.973137 
L 385.306253 222.552785 
L 385.529565 215.915403 
L 385.976188 221.941784 
L 386.1995 219.539595 
L 386.422811 223.769297 
L 386.646123 223.158296 
L 386.869435 253.981036 
L 387.092746 250.362334 
L 387.316058 264.244301 
L 387.762681 258.151814 
L 387.985993 264.244301 
L 388.209305 262.43495 
L 388.432616 254.533113 
L 388.655928 254.533113 
L 388.87924 254.143026 
L 389.325863 244.718859 
L 389.549175 244.718859 
L 389.772486 246.905624 
L 389.995798 246.528209 
L 390.21911 251.578846 
L 390.442421 248.33756 
L 390.665733 247.570059 
L 391.112356 253.388197 
L 391.335668 255.197548 
L 391.558979 264.244301 
L 392.005603 256.616812 
L 392.452226 259.480684 
L 392.675538 258.713182 
L 393.122161 263.751148 
L 393.345473 254.807461 
L 393.792096 272.043071 
L 394.015408 271.378637 
L 394.238719 269.946701 
L 394.462031 270.98855 
L 394.685343 274.229837 
L 394.908654 274.229837 
L 395.131966 269.569286 
L 395.355278 276.039187 
L 395.578589 269.946701 
L 395.801901 268.13735 
L 396.025213 269.946701 
L 396.248524 279.280474 
L 396.471836 279.280474 
L 396.695148 278.512973 
L 396.918459 298.496717 
L 397.141771 281.651193 
L 397.365083 292.40423 
L 397.588394 292.40423 
L 397.811706 301.360589 
L 398.035018 304.97929 
L 398.258329 297.832282 
L 398.481641 297.832282 
L 398.704952 299.264218 
L 398.928264 296.413018 
L 399.151576 300.031719 
L 399.374887 293.549146 
L 399.598199 293.939232 
L 400.044822 288.121094 
L 400.268134 287.743679 
L 400.491446 292.794317 
L 400.714757 288.511181 
L 400.938069 274.229837 
L 401.161381 278.890387 
L 401.384692 274.607251 
L 401.608004 275.661773 
L 401.831316 275.661773 
L 402.054627 280.322323 
L 402.277939 279.944909 
L 402.501251 278.890387 
L 402.724562 277.081037 
L 403.171186 266.431066 
L 403.394497 253.581658 
L 403.617809 250.340371 
L 403.841121 238.545485 
L 404.064432 248.153606 
L 404.287744 245.966841 
L 404.511056 245.966841 
L 404.734367 242.34814 
L 404.957679 240.538789 
L 405.18099 240.148702 
L 405.404302 244.821925 
L 405.627614 246.631276 
L 405.850925 243.767404 
L 406.074237 242.34814 
L 406.52086 231.58243 
L 406.744172 230.163166 
L 406.967484 235.865566 
L 407.190795 237.297502 
L 407.414107 234.056216 
L 407.86073 234.056216 
L 408.084042 235.865566 
L 408.530665 241.580638 
L 408.753977 241.203224 
L 409.2006 249.105061 
L 409.647224 248.33756 
L 409.870535 244.341444 
L 410.093847 254.052632 
L 410.317159 244.341444 
L 410.54047 244.341444 
L 410.763782 249.769496 
L 410.987094 243.677009 
L 411.210405 243.286923 
L 411.433717 240.435723 
L 411.657029 247.570059 
L 411.88034 248.33756 
L 412.103652 239.290807 
L 412.326963 243.951357 
L 412.550275 243.573943 
L 412.773587 242.142007 
L 412.996898 244.341444 
L 413.22021 240.722743 
L 413.666833 246.815229 
L 413.890145 247.192644 
L 414.113457 245.760708 
L 414.336768 245.760708 
L 414.56008 248.62458 
L 414.783392 242.909508 
L 415.006703 234.343236 
L 415.230015 235.775172 
L 415.89995 228.250749 
L 416.123262 230.0601 
L 416.569885 230.0601 
L 417.016508 223.864547 
L 417.463132 224.632048 
L 417.686443 223.590199 
L 417.909755 225.009463 
L 418.133067 222.158263 
L 418.356378 225.009463 
L 418.57969 223.590199 
L 418.803002 227.2089 
L 419.026313 226.441399 
L 419.249625 227.873335 
L 419.696248 232.9113 
L 419.91956 231.101949 
L 420.142871 232.533885 
L 420.366183 230.724535 
L 420.589495 230.724535 
L 420.812806 223.590199 
L 421.036118 221.780848 
L 421.25943 228.628164 
L 421.482741 227.873335 
L 421.706053 227.873335 
L 421.929365 225.009463 
L 422.152676 224.632048 
L 422.375988 227.483248 
L 422.5993 221.780848 
L 422.822611 221.780848 
L 423.045923 226.441399 
L 423.269235 218.916976 
L 423.492546 220.348912 
L 423.715858 217.497712 
L 423.93917 218.916976 
L 424.162481 211.679574 
L 424.385793 211.015139 
L 424.609105 203.503388 
L 424.832416 203.113302 
L 425.055728 203.503388 
L 425.27904 203.503388 
L 425.502351 205.312739 
L 425.725663 201.029603 
L 425.948974 203.880803 
L 426.395598 184.561494 
L 427.065533 199.597667 
L 427.288844 196.746467 
L 427.512156 205.312739 
L 427.735468 202.461539 
L 427.958779 209.308855 
L 428.182091 203.606455 
L 428.405403 201.797104 
L 428.628714 206.08024 
L 428.852026 203.606455 
L 429.075338 197.513968 
L 429.298649 199.323319 
L 429.521961 199.323319 
L 429.745273 197.891383 
L 429.968584 198.933232 
L 430.191896 201.797104 
L 430.415208 196.746467 
L 430.638519 196.746467 
L 430.861831 192.840746 
L 431.085143 194.272682 
L 431.308454 193.895267 
L 431.531766 195.040183 
L 431.978389 202.551933 
L 432.201701 199.700733 
L 432.425013 198.933232 
L 432.648324 196.082032 
L 432.871636 204.361284 
L 433.094947 202.551933 
L 433.318259 199.323319 
L 433.541571 199.323319 
L 433.764882 192.176311 
L 433.988194 192.176311 
L 434.211506 159.149698 
L 434.434817 152.495843 
L 434.881441 162.481379 
L 435.104752 162.871466 
L 435.328064 156.778979 
L 435.551376 153.915107 
L 435.774687 157.443414 
L 435.997999 155.634063 
L 436.221311 157.053327 
L 436.444622 160.294614 
L 436.667934 160.294614 
L 437.114557 162.768399 
L 437.337869 167.051535 
L 437.561181 164.852098 
L 437.784492 164.852098 
L 438.007804 166.284034 
L 438.231116 164.852098 
L 438.454427 157.717762 
L 438.677739 157.717762 
L 438.901051 159.149698 
L 439.124362 161.336463 
L 439.570985 158.107849 
L 439.794297 154.866562 
L 440.017609 153.434626 
L 440.24092 154.866562 
L 440.464232 154.866562 
L 440.910855 164.852098 
L 441.357479 168.470799 
L 441.58079 163.810249 
L 441.804102 168.860886 
L 442.027414 168.860886 
L 442.474037 182.465123 
L 442.697349 186.370844 
L 442.92066 186.748259 
L 443.143972 183.897059 
L 443.367284 183.897059 
L 443.590595 171.047651 
L 443.813907 173.898851 
L 444.037219 172.479587 
L 444.26053 174.288938 
L 444.483842 164.57775 
L 444.707154 169.2383 
L 444.930465 167.051535 
L 445.377089 173.247088 
L 445.6004 173.247088 
L 445.823712 177.907639 
L 446.047024 171.815152 
L 446.716958 187.22874 
L 446.94027 184.000125 
L 447.163582 183.610039 
L 447.386893 187.618827 
L 447.610205 185.809476 
L 447.833517 193.424293 
L 448.056828 185.522456 
L 448.28014 185.522456 
L 448.503452 180.19747 
L 448.726763 182.006821 
L 448.950075 181.23932 
L 449.396698 184.480606 
L 449.62001 182.671256 
L 449.843322 190.183006 
L 450.066633 189.908658 
L 450.289945 188.099308 
L 450.513257 185.248108 
L 450.736568 185.248108 
L 450.95988 186.667372 
L 451.183192 186.667372 
L 451.406503 189.531244 
L 451.853127 184.480606 
L 452.076438 184.858021 
L 452.29975 188.099308 
L 452.746373 183.816172 
L 452.969685 185.248108 
L 453.192996 179.533036 
L 453.63962 188.099308 
L 453.862931 181.629406 
L 454.086243 184.480606 
L 454.309555 188.763742 
L 454.532866 185.522456 
L 454.756178 190.183006 
L 454.97949 186.954392 
L 455.202801 179.429969 
L 455.426113 180.484491 
L 455.649425 178.010705 
L 455.872736 178.38812 
L 456.096048 178.38812 
L 456.31936 174.769419 
L 456.542671 174.392004 
L 456.765983 177.620619 
L 456.989295 179.052555 
L 457.212606 177.243204 
L 457.435918 174.392004 
L 457.65923 170.108868 
L 457.882541 172.295633 
L 458.105853 172.673048 
L 458.329165 171.253784 
L 458.552476 168.389912 
L 458.775788 169.444433 
L 458.9991 175.53692 
L 459.445723 163.351947 
L 459.669035 163.729361 
L 459.892346 162.687512 
L 460.115658 145.074487 
L 460.338969 138.420632 
L 460.562281 145.554968 
L 460.785593 132.70556 
L 461.008904 85.591064 
L 461.232216 70.554891 
L 461.455528 86.255499 
L 461.678839 86.255499 
L 461.902151 83.404299 
L 462.125463 107.671179 
L 462.348774 107.293764 
L 462.795398 121.849456 
L 463.018709 109.287068 
L 463.242021 111.096419 
L 463.465333 110.041898 
L 463.688644 117.56632 
L 464.135268 106.148848 
L 464.358579 113.283184 
L 464.805203 100.433776 
L 465.028514 107.568112 
L 465.475138 115.75697 
L 465.698449 142.87505 
L 465.921761 132.889514 
L 466.145073 128.606378 
L 466.368384 127.174442 
L 466.591696 131.847664 
L 466.815008 121.472042 
L 467.484942 128.228963 
L 467.708254 125.365091 
L 467.931566 133.266928 
L 468.154877 129.648227 
L 468.601501 136.795235 
L 469.048124 142.87505 
L 469.494747 139.646435 
L 469.718059 139.646435 
L 469.941371 133.266928 
L 470.164682 132.512099 
L 470.387994 136.795235 
L 470.611306 133.931363 
L 470.834617 133.266928 
L 471.057929 134.32145 
L 471.281241 137.17265 
L 471.727864 145.074487 
L 471.951176 155.827524 
L 472.174487 150.399472 
L 472.397799 157.923895 
L 472.844422 157.156394 
L 473.291046 161.816944 
L 473.514357 156.114544 
L 473.737669 156.114544 
L 473.96098 157.533808 
L 474.184292 161.816944 
L 474.407604 154.682608 
L 474.854227 160.775095 
L 475.077539 162.207031 
L 475.30085 160.775095 
L 475.524162 165.825732 
L 475.747474 167.635083 
L 475.970785 171.253784 
L 476.194097 169.054347 
L 476.417409 164.393796 
L 476.64072 164.393796 
L 476.864032 166.203147 
L 477.087344 165.825732 
L 477.310655 169.444433 
L 477.533967 170.486283 
L 477.98059 186.564305 
L 478.203902 182.671256 
L 478.427214 184.009632 
L 478.650525 183.632218 
L 478.873837 187.250919 
L 479.32046 182.200282 
L 479.543772 182.864717 
L 479.767084 198.18791 
L 479.990395 184.583673 
L 480.437019 199.722912 
L 480.66033 198.290976 
L 480.883642 195.04969 
L 481.106953 193.630426 
L 481.330265 189.34729 
L 481.553577 191.430989 
L 482.0002 209.995469 
L 482.223512 208.563533 
L 482.446823 216.75239 
L 482.670135 205.322246 
L 482.893447 215.033434 
L 483.116758 215.42352 
L 483.34007 208.940947 
L 483.563382 212.559648 
L 483.786693 213.61417 
L 484.010005 218.27472 
L 484.233317 213.61417 
L 484.456628 222.660923 
L 484.67994 223.415752 
L 485.126563 245.792394 
L 485.573187 250.843031 
L 485.796498 253.694231 
L 486.01981 248.656266 
L 486.243122 253.694231 
L 486.466433 247.991831 
L 486.913057 244.463524 
L 487.136368 247.040376 
L 487.35968 242.379825 
L 487.582991 243.421675 
L 487.806303 239.035472 
L 488.029615 237.226122 
L 488.476238 230.756221 
L 488.69955 232.565571 
L 488.922861 227.240586 
L 489.146173 227.240586 
L 489.592796 223.999299 
L 489.816108 225.80865 
L 490.03942 219.338749 
L 490.262731 221.43512 
L 490.486043 220.380598 
L 490.709355 216.761897 
L 490.932666 216.384482 
L 491.155978 214.952546 
L 491.37929 219.235682 
L 491.602601 227.13752 
L 491.825913 213.430216 
L 492.049225 211.620865 
L 492.272536 208.002164 
L 492.495848 210.47595 
L 492.71916 205.815399 
L 492.942471 207.62475 
L 493.165783 206.192814 
L 493.389095 218.652135 
L 493.612406 222.270836 
L 493.835718 215.1365 
L 494.05903 214.368999 
L 494.282341 209.331034 
L 494.505653 213.32715 
L 494.728964 211.895214 
L 494.952276 209.708448 
L 495.398899 215.513915 
L 495.622211 216.945851 
L 495.845523 217.323265 
L 496.292146 214.472065 
L 496.515458 211.620865 
L 496.738769 211.620865 
L 497.185393 221.332053 
L 497.408704 219.132616 
L 497.632016 226.279624 
L 497.855328 214.472065 
L 498.078639 237.410076 
L 498.301951 231.317589 
L 498.525263 237.800162 
L 498.748574 231.317589 
L 498.971886 234.558876 
L 499.195198 231.707676 
L 499.418509 235.990812 
L 499.865133 255.974556 
L 500.088444 247.408284 
L 500.311756 244.934498 
L 500.535068 247.785698 
L 500.758379 256.35197 
L 500.981691 251.69142 
L 501.205003 254.54262 
L 501.428314 245.976348 
L 501.651626 254.645686 
L 502.098249 251.4044 
L 502.321561 244.557084 
L 502.544872 244.557084 
L 502.768184 243.125148 
L 502.991496 244.557084 
L 503.438119 233.517026 
L 503.661431 234.558876 
L 504.108054 232.372111 
L 504.331366 238.842012 
L 504.554677 238.464597 
L 504.777989 236.655247 
L 505.001301 238.464597 
L 505.224612 238.464597 
L 505.447924 238.074511 
L 505.671236 238.074511 
L 505.894547 233.791375 
L 506.117859 237.410076 
L 506.341171 238.842012 
L 506.564482 235.223311 
L 506.787794 237.410076 
L 507.011106 235.600725 
L 507.681041 226.279624 
L 507.904352 227.698888 
L 508.127664 219.042222 
L 508.574287 237.697096 
L 508.797599 230.459694 
L 509.244222 235.887745 
L 509.690845 221.516007 
L 509.914157 209.605382 
L 510.137469 214.278605 
L 510.36078 231.604609 
L 510.584092 230.172673 
L 510.807404 233.036545 
L 511.030715 228.753409 
L 511.477339 231.227195 
L 511.70065 235.887745 
L 511.923962 244.934498 
L 512.147274 233.036545 
L 512.593897 269.681859 
L 512.817209 262.170109 
L 513.04052 232.830413 
L 513.263832 238.545485 
L 513.487144 237.113549 
L 513.710455 251.965768 
L 513.933767 247.695304 
L 514.157079 220.667618 
L 514.603702 190.685666 
L 514.827014 190.021232 
L 515.050325 192.885104 
L 515.273637 209.730627 
L 515.72026 212.581827 
L 515.943572 209.730627 
L 516.166883 211.149891 
L 516.390195 223.060516 
L 516.613507 207.359908 
L 516.836818 243.156834 
L 517.06013 241.244417 
L 517.283442 134.51491 
L 517.506753 215.168186 
L 517.730065 209.465786 
L 517.953377 174.033603 
L 518.176688 191.646628 
L 518.4 158.332995 
L 518.4 158.332995 
" style="fill:none;stroke:#4c72b0;stroke-linecap:round;stroke-width:1.75;"/>
   </g>
   <g id="patch_3">
    <path d="M 72 356.4 
L 518.4 356.4 
" style="fill:none;"/>
   </g>
   <g id="patch_4">
    <path d="M 72 39.6 
L 518.4 39.6 
" style="fill:none;"/>
   </g>
   <g id="patch_5">
    <path d="M 72 356.4 
L 72 39.6 
" style="fill:none;"/>
   </g>
   <g id="patch_6">
    <path d="M 518.4 356.4 
L 518.4 39.6 
" style="fill:none;"/>
   </g>
   <g id="text_12">
    <!-- jd - 142.78334870090998 * TF -->
    <defs>
     <path d="M 9.125 0 
L 9.125 10.6875 
L 18.65625 10.6875 
L 18.65625 0 
z
" id="LiberationSans-2e"/>
     <path d="M 6.6875 64.0625 
L 6.6875 72.46875 
L 15.484375 72.46875 
L 15.484375 64.0625 
z
M 15.484375 -6.546875 
Q 15.484375 -9.578125 14.96875 -12.15625 
Q 14.453125 -14.75 13.125 -16.65625 
Q 11.8125 -18.5625 9.546875 -19.65625 
Q 7.28125 -20.75 3.765625 -20.75 
Q 2.09375 -20.75 0.5 -20.65625 
Q -1.078125 -20.5625 -2.4375 -20.3125 
L -2.4375 -13.53125 
Q -1.8125 -13.625 -0.921875 -13.71875 
Q -0.046875 -13.8125 0.59375 -13.8125 
Q 2.4375 -13.8125 3.625 -13.328125 
Q 4.828125 -12.84375 5.515625 -11.796875 
Q 6.203125 -10.75 6.4375 -9.109375 
Q 6.6875 -7.46875 6.6875 -5.21875 
L 6.6875 52.828125 
L 15.484375 52.828125 
z
" id="LiberationSans-6a"/>
     <path d="M 40.09375 8.5 
Q 37.640625 3.421875 33.609375 1.21875 
Q 29.59375 -0.984375 23.640625 -0.984375 
Q 13.625 -0.984375 8.90625 5.75 
Q 4.203125 12.5 4.203125 26.171875 
Q 4.203125 53.8125 23.640625 53.8125 
Q 29.640625 53.8125 33.640625 51.609375 
Q 37.640625 49.421875 40.09375 44.625 
L 40.1875 44.625 
Q 40.1875 45.125 40.15625 46.171875 
Q 40.140625 47.21875 40.109375 48.359375 
Q 40.09375 49.515625 40.09375 50.53125 
Q 40.09375 51.5625 40.09375 52 
L 40.09375 72.46875 
L 48.875 72.46875 
L 48.875 10.890625 
Q 48.875 8.984375 48.890625 7.21875 
Q 48.921875 5.46875 48.96875 4 
Q 49.03125 2.546875 49.078125 1.484375 
Q 49.125 0.4375 49.171875 0 
L 40.765625 0 
Q 40.671875 0.484375 40.59375 1.390625 
Q 40.53125 2.296875 40.453125 3.46875 
Q 40.375 4.640625 40.328125 5.9375 
Q 40.28125 7.234375 40.28125 8.5 
z
M 13.421875 26.46875 
Q 13.421875 21 14.109375 17.09375 
Q 14.796875 13.1875 16.3125 10.671875 
Q 17.828125 8.15625 20.171875 6.984375 
Q 22.515625 5.8125 25.875 5.8125 
Q 29.34375 5.8125 32 6.9375 
Q 34.671875 8.0625 36.453125 10.578125 
Q 38.234375 13.09375 39.15625 17.140625 
Q 40.09375 21.1875 40.09375 27.046875 
Q 40.09375 32.671875 39.15625 36.546875 
Q 38.234375 40.4375 36.421875 42.828125 
Q 34.625 45.21875 32 46.265625 
Q 29.390625 47.3125 25.984375 47.3125 
Q 22.75 47.3125 20.40625 46.1875 
Q 18.0625 45.0625 16.5 42.578125 
Q 14.9375 40.09375 14.171875 36.109375 
Q 13.421875 32.125 13.421875 26.46875 
" id="LiberationSans-64"/>
     <path d="M 17.53125 61.1875 
L 17.53125 35.59375 
L 55.90625 35.59375 
L 55.90625 27.875 
L 17.53125 27.875 
L 17.53125 0 
L 8.203125 0 
L 8.203125 68.796875 
L 57.078125 68.796875 
L 57.078125 61.1875 
z
" id="LiberationSans-46"/>
     <path d="M 22.265625 54.390625 
L 35.15625 59.421875 
L 37.359375 52.984375 
L 23.578125 49.421875 
L 32.625 37.203125 
L 26.8125 33.6875 
L 19.484375 46.296875 
L 11.859375 33.796875 
L 6.0625 37.3125 
L 15.28125 49.421875 
L 1.609375 52.984375 
L 3.8125 59.515625 
L 16.84375 54.296875 
L 16.265625 68.796875 
L 22.90625 68.796875 
z
" id="LiberationSans-2a"/>
     <path d="M 35.15625 61.1875 
L 35.15625 0 
L 25.875 0 
L 25.875 61.1875 
L 2.25 61.1875 
L 2.25 68.796875 
L 58.796875 68.796875 
L 58.796875 61.1875 
z
" id="LiberationSans-54"/>
    </defs>
    <g style="fill:#262626;" transform="translate(213.8128125 34.6)scale(0.12 -0.12)">
     <use xlink:href="#LiberationSans-6a"/>
     <use x="22.216796875" xlink:href="#LiberationSans-64"/>
     <use x="77.83203125" xlink:href="#LiberationSans-20"/>
     <use x="105.615234375" xlink:href="#LiberationSans-2d"/>
     <use x="138.916015625" xlink:href="#LiberationSans-20"/>
     <use x="166.69921875" xlink:href="#LiberationSans-31"/>
     <use x="222.314453125" xlink:href="#LiberationSans-34"/>
     <use x="277.9296875" xlink:href="#LiberationSans-32"/>
     <use x="333.544921875" xlink:href="#LiberationSans-2e"/>
     <use x="361.328125" xlink:href="#LiberationSans-37"/>
     <use x="416.943359375" xlink:href="#LiberationSans-38"/>
     <use x="472.55859375" xlink:href="#LiberationSans-33"/>
     <use x="528.173828125" xlink:href="#LiberationSans-33"/>
     <use x="583.7890625" xlink:href="#LiberationSans-34"/>
     <use x="639.404296875" xlink:href="#LiberationSans-38"/>
     <use x="695.01953125" xlink:href="#LiberationSans-37"/>
     <use x="750.634765625" xlink:href="#LiberationSans-30"/>
     <use x="806.25" xlink:href="#LiberationSans-30"/>
     <use x="861.865234375" xlink:href="#LiberationSans-39"/>
     <use x="917.48046875" xlink:href="#LiberationSans-30"/>
     <use x="973.095703125" xlink:href="#LiberationSans-39"/>
     <use x="1028.7109375" xlink:href="#LiberationSans-39"/>
     <use x="1084.326171875" xlink:href="#LiberationSans-38"/>
     <use x="1139.94140625" xlink:href="#LiberationSans-20"/>
     <use x="1167.724609375" xlink:href="#LiberationSans-2a"/>
     <use x="1206.640625" xlink:href="#LiberationSans-20"/>
     <use x="1234.408203125" xlink:href="#LiberationSans-54"/>
     <use x="1295.4921875" xlink:href="#LiberationSans-46"/>
    </g>
   </g>
  </g>
 </g>
 <defs>
  <clipPath id="p9db25863c4">
   <rect height="316.8" width="446.4" x="72.0" y="39.6"/>
  </clipPath>
 </defs>
</svg>
