<?xml version="1.0" encoding="utf-8" standalone="no"?>
<!DOCTYPE svg PUBLIC "-//W3C//DTD SVG 1.1//EN"
  "http://www.w3.org/Graphics/SVG/1.1/DTD/svg11.dtd">
<!-- Created with matplotlib (http://matplotlib.org/) -->
<svg height="396pt" version="1.1" viewBox="0 0 576 396" width="576pt" xmlns="http://www.w3.org/2000/svg" xmlns:xlink="http://www.w3.org/1999/xlink">
 <defs>
  <style type="text/css">
*{stroke-linecap:butt;stroke-linejoin:round;stroke-miterlimit:100000;}
  </style>
 </defs>
 <g id="figure_1">
  <g id="patch_1">
   <path d="M 0 396 
L 576 396 
L 576 0 
L 0 0 
z
" style="fill:#ffffff;"/>
  </g>
  <g id="axes_1">
   <g id="patch_2">
    <path d="M 72 356.4 
L 518.4 356.4 
L 518.4 39.6 
L 72 39.6 
z
" style="fill:#eaeaf2;"/>
   </g>
   <g id="matplotlib.axis_1">
    <g id="xtick_1">
     <g id="line2d_1">
      <path clip-path="url(#p44b059ea20)" d="M 72 356.4 
L 72 39.6 
" style="fill:none;stroke:#ffffff;stroke-linecap:round;"/>
     </g>
     <g id="line2d_2"/>
     <g id="line2d_3"/>
     <g id="text_1">
      <!-- 2015-12-07 11:08:00 -->
      <defs>
       <path d="M 5.03125 0 
L 5.03125 6.203125 
Q 7.515625 11.921875 11.109375 16.28125 
Q 14.703125 20.65625 18.65625 24.1875 
Q 22.609375 27.734375 26.484375 30.765625 
Q 30.375 33.796875 33.5 36.8125 
Q 36.625 39.84375 38.546875 43.15625 
Q 40.484375 46.484375 40.484375 50.6875 
Q 40.484375 53.609375 39.59375 55.828125 
Q 38.71875 58.0625 37.0625 59.5625 
Q 35.40625 61.078125 33.078125 61.828125 
Q 30.765625 62.59375 27.9375 62.59375 
Q 25.296875 62.59375 22.96875 61.859375 
Q 20.65625 61.140625 18.84375 59.671875 
Q 17.046875 58.203125 15.890625 56.03125 
Q 14.75 53.859375 14.40625 50.984375 
L 5.421875 51.8125 
Q 5.859375 55.515625 7.46875 58.78125 
Q 9.078125 62.0625 11.90625 64.53125 
Q 14.75 67 18.71875 68.40625 
Q 22.703125 69.828125 27.9375 69.828125 
Q 33.0625 69.828125 37.0625 68.609375 
Q 41.0625 67.390625 43.8125 64.984375 
Q 46.578125 62.59375 48.046875 59.078125 
Q 49.515625 55.5625 49.515625 50.984375 
Q 49.515625 47.515625 48.265625 44.390625 
Q 47.015625 41.265625 44.9375 38.421875 
Q 42.875 35.59375 40.140625 32.953125 
Q 37.40625 30.328125 34.421875 27.8125 
Q 31.453125 25.296875 28.421875 22.828125 
Q 25.390625 20.359375 22.71875 17.859375 
Q 20.0625 15.375 17.96875 12.8125 
Q 15.875 10.25 14.703125 7.46875 
L 50.59375 7.46875 
L 50.59375 0 
z
" id="LiberationSans-32"/>
       <path d="M 7.625 0 
L 7.625 7.46875 
L 25.140625 7.46875 
L 25.140625 60.40625 
L 9.625 49.3125 
L 9.625 57.625 
L 25.875 68.796875 
L 33.984375 68.796875 
L 33.984375 7.46875 
L 50.734375 7.46875 
L 50.734375 0 
z
" id="LiberationSans-31"/>
       <path d="M 50.59375 61.671875 
Q 45.40625 53.765625 41.0625 46.453125 
Q 36.71875 39.15625 33.59375 31.75 
Q 30.46875 24.359375 28.734375 16.578125 
Q 27 8.796875 27 0 
L 17.828125 0 
Q 17.828125 8.25 19.78125 16.1875 
Q 21.734375 24.125 25.046875 31.765625 
Q 28.375 39.40625 32.765625 46.78125 
Q 37.15625 54.15625 42.09375 61.328125 
L 5.125 61.328125 
L 5.125 68.796875 
L 50.59375 68.796875 
z
" id="LiberationSans-37"/>
       <path d="M 51.703125 34.421875 
Q 51.703125 24.515625 49.828125 17.75 
Q 47.953125 10.984375 44.703125 6.8125 
Q 41.453125 2.640625 37.0625 0.828125 
Q 32.671875 -0.984375 27.6875 -0.984375 
Q 22.65625 -0.984375 18.3125 0.828125 
Q 13.96875 2.640625 10.765625 6.78125 
Q 7.5625 10.9375 5.734375 17.703125 
Q 3.90625 24.46875 3.90625 34.421875 
Q 3.90625 44.828125 5.734375 51.640625 
Q 7.5625 58.453125 10.78125 62.5 
Q 14.015625 66.546875 18.40625 68.1875 
Q 22.796875 69.828125 27.984375 69.828125 
Q 32.90625 69.828125 37.21875 68.1875 
Q 41.546875 66.546875 44.765625 62.5 
Q 48 58.453125 49.84375 51.640625 
Q 51.703125 44.828125 51.703125 34.421875 
M 42.78125 34.421875 
Q 42.78125 42.625 41.796875 48.0625 
Q 40.828125 53.515625 38.921875 56.765625 
Q 37.015625 60.015625 34.25 61.359375 
Q 31.5 62.703125 27.984375 62.703125 
Q 24.265625 62.703125 21.4375 61.328125 
Q 18.609375 59.96875 16.671875 56.71875 
Q 14.75 53.46875 13.765625 48.015625 
Q 12.796875 42.578125 12.796875 34.421875 
Q 12.796875 26.515625 13.796875 21.09375 
Q 14.796875 15.671875 16.71875 12.375 
Q 18.65625 9.078125 21.4375 7.640625 
Q 24.21875 6.203125 27.78125 6.203125 
Q 31.25 6.203125 34.03125 7.640625 
Q 36.8125 9.078125 38.734375 12.375 
Q 40.671875 15.671875 41.71875 21.09375 
Q 42.78125 26.515625 42.78125 34.421875 
" id="LiberationSans-30"/>
       <path d="M 9.125 42.71875 
L 9.125 52.828125 
L 18.65625 52.828125 
L 18.65625 42.71875 
z
M 9.125 0 
L 9.125 10.109375 
L 18.65625 10.109375 
L 18.65625 0 
z
" id="LiberationSans-3a"/>
       <path d="M 51.265625 19.1875 
Q 51.265625 14.796875 49.875 11.109375 
Q 48.484375 7.421875 45.625 4.734375 
Q 42.78125 2.046875 38.328125 0.53125 
Q 33.890625 -0.984375 27.828125 -0.984375 
Q 21.78125 -0.984375 17.359375 0.53125 
Q 12.9375 2.046875 10.03125 4.703125 
Q 7.125 7.375 5.734375 11.0625 
Q 4.34375 14.75 4.34375 19.09375 
Q 4.34375 22.859375 5.484375 25.78125 
Q 6.640625 28.71875 8.5625 30.828125 
Q 10.5 32.953125 12.96875 34.25 
Q 15.4375 35.546875 18.0625 35.984375 
L 18.0625 36.1875 
Q 15.1875 36.859375 12.90625 38.375 
Q 10.640625 39.890625 9.09375 42.015625 
Q 7.5625 44.140625 6.75 46.71875 
Q 5.953125 49.3125 5.953125 52.203125 
Q 5.953125 55.8125 7.34375 59 
Q 8.734375 62.203125 11.46875 64.625 
Q 14.203125 67.046875 18.25 68.4375 
Q 22.3125 69.828125 27.640625 69.828125 
Q 33.25 69.828125 37.375 68.40625 
Q 41.5 67 44.203125 64.578125 
Q 46.921875 62.15625 48.234375 58.9375 
Q 49.5625 55.71875 49.5625 52.09375 
Q 49.5625 49.265625 48.75 46.671875 
Q 47.953125 44.09375 46.40625 41.96875 
Q 44.875 39.84375 42.59375 38.34375 
Q 40.328125 36.859375 37.359375 36.28125 
L 37.359375 36.078125 
Q 40.328125 35.59375 42.859375 34.296875 
Q 45.40625 33.015625 47.265625 30.890625 
Q 49.125 28.765625 50.1875 25.828125 
Q 51.265625 22.90625 51.265625 19.1875 
M 40.4375 51.609375 
Q 40.4375 54.203125 39.765625 56.34375 
Q 39.109375 58.5 37.59375 60.03125 
Q 36.078125 61.578125 33.640625 62.421875 
Q 31.203125 63.28125 27.640625 63.28125 
Q 24.171875 63.28125 21.78125 62.421875 
Q 19.390625 61.578125 17.84375 60.03125 
Q 16.3125 58.5 15.625 56.34375 
Q 14.9375 54.203125 14.9375 51.609375 
Q 14.9375 49.5625 15.46875 47.40625 
Q 16.015625 45.265625 17.421875 43.5 
Q 18.84375 41.75 21.328125 40.625 
Q 23.828125 39.5 27.734375 39.5 
Q 31.890625 39.5 34.40625 40.625 
Q 36.921875 41.75 38.25 43.5 
Q 39.59375 45.265625 40.015625 47.40625 
Q 40.4375 49.5625 40.4375 51.609375 
M 42.140625 20.015625 
Q 42.140625 22.515625 41.453125 24.828125 
Q 40.765625 27.15625 39.109375 28.9375 
Q 37.453125 30.71875 34.640625 31.8125 
Q 31.84375 32.90625 27.640625 32.90625 
Q 23.78125 32.90625 21.0625 31.8125 
Q 18.359375 30.71875 16.671875 28.90625 
Q 14.984375 27.09375 14.203125 24.71875 
Q 13.421875 22.359375 13.421875 19.828125 
Q 13.421875 16.65625 14.203125 14.03125 
Q 14.984375 11.421875 16.6875 9.546875 
Q 18.40625 7.671875 21.1875 6.640625 
Q 23.96875 5.609375 27.9375 5.609375 
Q 31.9375 5.609375 34.671875 6.640625 
Q 37.40625 7.671875 39.0625 9.546875 
Q 40.71875 11.421875 41.421875 14.078125 
Q 42.140625 16.75 42.140625 20.015625 
" id="LiberationSans-38"/>
       <path d="M 51.421875 22.40625 
Q 51.421875 17.234375 49.859375 12.9375 
Q 48.296875 8.640625 45.21875 5.53125 
Q 42.140625 2.4375 37.578125 0.71875 
Q 33.015625 -0.984375 27 -0.984375 
Q 21.578125 -0.984375 17.546875 0.28125 
Q 13.53125 1.5625 10.734375 3.78125 
Q 7.953125 6 6.3125 8.984375 
Q 4.6875 11.96875 4 15.375 
L 12.890625 16.40625 
Q 13.421875 14.453125 14.390625 12.625 
Q 15.375 10.796875 17.0625 9.34375 
Q 18.75 7.90625 21.21875 7.046875 
Q 23.6875 6.203125 27.203125 6.203125 
Q 30.609375 6.203125 33.390625 7.25 
Q 36.1875 8.296875 38.15625 10.34375 
Q 40.140625 12.40625 41.203125 15.375 
Q 42.28125 18.359375 42.28125 22.21875 
Q 42.28125 25.390625 41.25 28.046875 
Q 40.234375 30.71875 38.328125 32.640625 
Q 36.421875 34.578125 33.65625 35.640625 
Q 30.90625 36.71875 27.390625 36.71875 
Q 25.203125 36.71875 23.34375 36.328125 
Q 21.484375 35.9375 19.890625 35.25 
Q 18.3125 34.578125 17.015625 33.671875 
Q 15.71875 32.765625 14.59375 31.78125 
L 6 31.78125 
L 8.296875 68.796875 
L 47.40625 68.796875 
L 47.40625 61.328125 
L 16.3125 61.328125 
L 14.984375 39.5 
Q 17.328125 41.3125 20.84375 42.59375 
Q 24.359375 43.890625 29.203125 43.890625 
Q 34.328125 43.890625 38.421875 42.328125 
Q 42.53125 40.765625 45.40625 37.90625 
Q 48.296875 35.0625 49.859375 31.109375 
Q 51.421875 27.15625 51.421875 22.40625 
" id="LiberationSans-35"/>
       <path id="LiberationSans-20"/>
       <path d="M 4.4375 22.65625 
L 4.4375 30.46875 
L 28.859375 30.46875 
L 28.859375 22.65625 
z
" id="LiberationSans-2d"/>
      </defs>
      <g style="fill:#262626;" transform="translate(25.5765625 370.646875)scale(0.1 -0.1)">
       <use xlink:href="#LiberationSans-32"/>
       <use x="55.615234375" xlink:href="#LiberationSans-30"/>
       <use x="111.23046875" xlink:href="#LiberationSans-31"/>
       <use x="166.845703125" xlink:href="#LiberationSans-35"/>
       <use x="222.4609375" xlink:href="#LiberationSans-2d"/>
       <use x="255.76171875" xlink:href="#LiberationSans-31"/>
       <use x="311.376953125" xlink:href="#LiberationSans-32"/>
       <use x="366.9921875" xlink:href="#LiberationSans-2d"/>
       <use x="400.29296875" xlink:href="#LiberationSans-30"/>
       <use x="455.908203125" xlink:href="#LiberationSans-37"/>
       <use x="511.5234375" xlink:href="#LiberationSans-20"/>
       <use x="539.306640625" xlink:href="#LiberationSans-31"/>
       <use x="594.921875" xlink:href="#LiberationSans-31"/>
       <use x="650.537109375" xlink:href="#LiberationSans-3a"/>
       <use x="678.3203125" xlink:href="#LiberationSans-30"/>
       <use x="733.935546875" xlink:href="#LiberationSans-38"/>
       <use x="789.55078125" xlink:href="#LiberationSans-3a"/>
       <use x="817.333984375" xlink:href="#LiberationSans-30"/>
       <use x="872.94921875" xlink:href="#LiberationSans-30"/>
      </g>
     </g>
    </g>
    <g id="xtick_2">
     <g id="line2d_4">
      <path clip-path="url(#p44b059ea20)" d="M 183.655828 356.4 
L 183.655828 39.6 
" style="fill:none;stroke:#ffffff;stroke-linecap:round;"/>
     </g>
     <g id="line2d_5"/>
     <g id="line2d_6"/>
     <g id="text_2">
      <!-- 2015-12-09 14:29:00 -->
      <defs>
       <path d="M 50.875 35.796875 
Q 50.875 26.609375 49.140625 19.703125 
Q 47.40625 12.796875 44.1875 8.203125 
Q 40.96875 3.609375 36.34375 1.3125 
Q 31.734375 -0.984375 25.984375 -0.984375 
Q 22.015625 -0.984375 18.84375 -0.171875 
Q 15.671875 0.640625 13.171875 2.34375 
Q 10.6875 4.046875 8.921875 6.78125 
Q 7.171875 9.515625 6.109375 13.375 
L 14.5 14.703125 
Q 15.875 10.25 18.78125 8.171875 
Q 21.6875 6.109375 26.125 6.109375 
Q 29.6875 6.109375 32.640625 7.78125 
Q 35.59375 9.46875 37.671875 12.84375 
Q 39.75 16.21875 40.921875 21.296875 
Q 42.09375 26.375 42.1875 33.203125 
Q 41.15625 30.90625 39.375 29.09375 
Q 37.59375 27.296875 35.328125 26.046875 
Q 33.0625 24.8125 30.421875 24.140625 
Q 27.78125 23.484375 25.09375 23.484375 
Q 20.40625 23.484375 16.625 25.171875 
Q 12.84375 26.859375 10.203125 29.875 
Q 7.5625 32.90625 6.125 37.171875 
Q 4.6875 41.453125 4.6875 46.6875 
Q 4.6875 52 6.21875 56.296875 
Q 7.765625 60.59375 10.6875 63.59375 
Q 13.625 66.609375 17.890625 68.21875 
Q 22.171875 69.828125 27.59375 69.828125 
Q 39.0625 69.828125 44.96875 61.328125 
Q 50.875 52.828125 50.875 35.796875 
M 41.3125 44.28125 
Q 41.3125 48.09375 40.40625 51.453125 
Q 39.5 54.828125 37.71875 57.3125 
Q 35.9375 59.8125 33.328125 61.25 
Q 30.71875 62.703125 27.296875 62.703125 
Q 24.125 62.703125 21.578125 61.578125 
Q 19.046875 60.453125 17.28125 58.375 
Q 15.53125 56.296875 14.578125 53.3125 
Q 13.625 50.34375 13.625 46.6875 
Q 13.625 43.21875 14.46875 40.234375 
Q 15.328125 37.25 17.03125 35.078125 
Q 18.75 32.90625 21.28125 31.65625 
Q 23.828125 30.421875 27.203125 30.421875 
Q 29.640625 30.421875 32.15625 31.25 
Q 34.671875 32.078125 36.6875 33.78125 
Q 38.71875 35.5 40.015625 38.109375 
Q 41.3125 40.71875 41.3125 44.28125 
" id="LiberationSans-39"/>
       <path d="M 43.015625 15.578125 
L 43.015625 0 
L 34.71875 0 
L 34.71875 15.578125 
L 2.296875 15.578125 
L 2.296875 22.40625 
L 33.796875 68.796875 
L 43.015625 68.796875 
L 43.015625 22.515625 
L 52.6875 22.515625 
L 52.6875 15.578125 
z
M 34.71875 58.890625 
Q 34.625 58.640625 34.234375 57.9375 
Q 33.84375 57.234375 33.34375 56.34375 
Q 32.859375 55.46875 32.34375 54.5625 
Q 31.84375 53.65625 31.453125 53.078125 
L 13.8125 27.09375 
Q 13.578125 26.703125 13.109375 26.0625 
Q 12.640625 25.4375 12.15625 24.78125 
Q 11.671875 24.125 11.171875 23.484375 
Q 10.6875 22.859375 10.40625 22.515625 
L 34.71875 22.515625 
z
" id="LiberationSans-34"/>
      </defs>
      <g style="fill:#262626;" transform="translate(137.232390414 370.646875)scale(0.1 -0.1)">
       <use xlink:href="#LiberationSans-32"/>
       <use x="55.615234375" xlink:href="#LiberationSans-30"/>
       <use x="111.23046875" xlink:href="#LiberationSans-31"/>
       <use x="166.845703125" xlink:href="#LiberationSans-35"/>
       <use x="222.4609375" xlink:href="#LiberationSans-2d"/>
       <use x="255.76171875" xlink:href="#LiberationSans-31"/>
       <use x="311.376953125" xlink:href="#LiberationSans-32"/>
       <use x="366.9921875" xlink:href="#LiberationSans-2d"/>
       <use x="400.29296875" xlink:href="#LiberationSans-30"/>
       <use x="455.908203125" xlink:href="#LiberationSans-39"/>
       <use x="511.5234375" xlink:href="#LiberationSans-20"/>
       <use x="539.306640625" xlink:href="#LiberationSans-31"/>
       <use x="594.921875" xlink:href="#LiberationSans-34"/>
       <use x="650.537109375" xlink:href="#LiberationSans-3a"/>
       <use x="678.3203125" xlink:href="#LiberationSans-32"/>
       <use x="733.935546875" xlink:href="#LiberationSans-39"/>
       <use x="789.55078125" xlink:href="#LiberationSans-3a"/>
       <use x="817.333984375" xlink:href="#LiberationSans-30"/>
       <use x="872.94921875" xlink:href="#LiberationSans-30"/>
      </g>
     </g>
    </g>
    <g id="xtick_3">
     <g id="line2d_7">
      <path clip-path="url(#p44b059ea20)" d="M 295.311656 356.4 
L 295.311656 39.6 
" style="fill:none;stroke:#ffffff;stroke-linecap:round;"/>
     </g>
     <g id="line2d_8"/>
     <g id="line2d_9"/>
     <g id="text_3">
      <!-- 2015-12-14 10:07:00 -->
      <g style="fill:#262626;" transform="translate(248.888218328 370.646875)scale(0.1 -0.1)">
       <use xlink:href="#LiberationSans-32"/>
       <use x="55.615234375" xlink:href="#LiberationSans-30"/>
       <use x="111.23046875" xlink:href="#LiberationSans-31"/>
       <use x="166.845703125" xlink:href="#LiberationSans-35"/>
       <use x="222.4609375" xlink:href="#LiberationSans-2d"/>
       <use x="255.76171875" xlink:href="#LiberationSans-31"/>
       <use x="311.376953125" xlink:href="#LiberationSans-32"/>
       <use x="366.9921875" xlink:href="#LiberationSans-2d"/>
       <use x="400.29296875" xlink:href="#LiberationSans-31"/>
       <use x="455.908203125" xlink:href="#LiberationSans-34"/>
       <use x="511.5234375" xlink:href="#LiberationSans-20"/>
       <use x="539.306640625" xlink:href="#LiberationSans-31"/>
       <use x="594.921875" xlink:href="#LiberationSans-30"/>
       <use x="650.537109375" xlink:href="#LiberationSans-3a"/>
       <use x="678.3203125" xlink:href="#LiberationSans-30"/>
       <use x="733.935546875" xlink:href="#LiberationSans-37"/>
       <use x="789.55078125" xlink:href="#LiberationSans-3a"/>
       <use x="817.333984375" xlink:href="#LiberationSans-30"/>
       <use x="872.94921875" xlink:href="#LiberationSans-30"/>
      </g>
     </g>
    </g>
    <g id="xtick_4">
     <g id="line2d_10">
      <path clip-path="url(#p44b059ea20)" d="M 406.967484 356.4 
L 406.967484 39.6 
" style="fill:none;stroke:#ffffff;stroke-linecap:round;"/>
     </g>
     <g id="line2d_11"/>
     <g id="line2d_12"/>
     <g id="text_4">
      <!-- 2015-12-16 13:42:00 -->
      <defs>
       <path d="M 51.21875 19 
Q 51.21875 14.265625 49.671875 10.546875 
Q 48.140625 6.84375 45.1875 4.265625 
Q 42.234375 1.703125 37.859375 0.359375 
Q 33.5 -0.984375 27.875 -0.984375 
Q 21.484375 -0.984375 17.109375 0.609375 
Q 12.75 2.203125 9.90625 4.8125 
Q 7.078125 7.421875 5.65625 10.765625 
Q 4.25 14.109375 3.8125 17.671875 
L 12.890625 18.5 
Q 13.28125 15.765625 14.328125 13.515625 
Q 15.375 11.28125 17.1875 9.671875 
Q 19 8.0625 21.625 7.171875 
Q 24.265625 6.296875 27.875 6.296875 
Q 34.515625 6.296875 38.296875 9.5625 
Q 42.09375 12.84375 42.09375 19.28125 
Q 42.09375 23.09375 40.40625 25.40625 
Q 38.71875 27.734375 36.203125 29.03125 
Q 33.6875 30.328125 30.734375 30.765625 
Q 27.78125 31.203125 25.296875 31.203125 
L 20.3125 31.203125 
L 20.3125 38.8125 
L 25.09375 38.8125 
Q 27.59375 38.8125 30.265625 39.328125 
Q 32.953125 39.84375 35.171875 41.1875 
Q 37.40625 42.53125 38.84375 44.828125 
Q 40.28125 47.125 40.28125 50.6875 
Q 40.28125 56.203125 37.03125 59.390625 
Q 33.796875 62.59375 27.390625 62.59375 
Q 21.578125 62.59375 17.984375 59.609375 
Q 14.40625 56.640625 13.8125 51.21875 
L 4.984375 51.90625 
Q 5.515625 56.453125 7.46875 59.8125 
Q 9.421875 63.1875 12.421875 65.40625 
Q 15.4375 67.625 19.28125 68.71875 
Q 23.140625 69.828125 27.484375 69.828125 
Q 33.25 69.828125 37.390625 68.375 
Q 41.546875 66.9375 44.1875 64.46875 
Q 46.828125 62.015625 48.0625 58.6875 
Q 49.3125 55.375 49.3125 51.609375 
Q 49.3125 48.578125 48.484375 45.9375 
Q 47.65625 43.3125 45.890625 41.203125 
Q 44.140625 39.109375 41.421875 37.59375 
Q 38.71875 36.078125 34.90625 35.296875 
L 34.90625 35.109375 
Q 39.0625 34.671875 42.140625 33.21875 
Q 45.21875 31.78125 47.21875 29.625 
Q 49.21875 27.484375 50.21875 24.75 
Q 51.21875 22.015625 51.21875 19 
" id="LiberationSans-33"/>
       <path d="M 51.21875 22.515625 
Q 51.21875 17.328125 49.78125 13 
Q 48.34375 8.6875 45.53125 5.578125 
Q 42.71875 2.484375 38.5625 0.75 
Q 34.421875 -0.984375 29 -0.984375 
Q 23 -0.984375 18.5 1.3125 
Q 14.015625 3.609375 11.03125 7.921875 
Q 8.0625 12.25 6.5625 18.53125 
Q 5.078125 24.8125 5.078125 32.8125 
Q 5.078125 42 6.765625 48.921875 
Q 8.453125 55.859375 11.625 60.5 
Q 14.796875 65.140625 19.359375 67.484375 
Q 23.921875 69.828125 29.6875 69.828125 
Q 33.203125 69.828125 36.28125 69.09375 
Q 39.359375 68.359375 41.875 66.71875 
Q 44.390625 65.09375 46.28125 62.40625 
Q 48.1875 59.71875 49.3125 55.8125 
L 40.921875 54.296875 
Q 39.546875 58.734375 36.546875 60.71875 
Q 33.546875 62.703125 29.59375 62.703125 
Q 25.984375 62.703125 23.046875 60.984375 
Q 20.125 59.28125 18.0625 55.875 
Q 16.015625 52.484375 14.90625 47.359375 
Q 13.8125 42.234375 13.8125 35.40625 
Q 16.21875 39.84375 20.5625 42.15625 
Q 24.90625 44.484375 30.515625 44.484375 
Q 35.203125 44.484375 39.015625 42.96875 
Q 42.828125 41.453125 45.53125 38.59375 
Q 48.25 35.75 49.734375 31.671875 
Q 51.21875 27.59375 51.21875 22.515625 
M 42.28125 22.125 
Q 42.28125 25.6875 41.40625 28.5625 
Q 40.53125 31.453125 38.765625 33.46875 
Q 37.015625 35.5 34.421875 36.59375 
Q 31.84375 37.703125 28.421875 37.703125 
Q 26.03125 37.703125 23.578125 36.984375 
Q 21.140625 36.28125 19.15625 34.6875 
Q 17.1875 33.109375 15.9375 30.515625 
Q 14.703125 27.9375 14.703125 24.21875 
Q 14.703125 20.40625 15.671875 17.109375 
Q 16.65625 13.8125 18.484375 11.375 
Q 20.3125 8.9375 22.890625 7.515625 
Q 25.484375 6.109375 28.71875 6.109375 
Q 31.890625 6.109375 34.40625 7.203125 
Q 36.921875 8.296875 38.671875 10.375 
Q 40.4375 12.453125 41.359375 15.421875 
Q 42.28125 18.40625 42.28125 22.125 
" id="LiberationSans-36"/>
      </defs>
      <g style="fill:#262626;" transform="translate(360.544046242 370.646875)scale(0.1 -0.1)">
       <use xlink:href="#LiberationSans-32"/>
       <use x="55.615234375" xlink:href="#LiberationSans-30"/>
       <use x="111.23046875" xlink:href="#LiberationSans-31"/>
       <use x="166.845703125" xlink:href="#LiberationSans-35"/>
       <use x="222.4609375" xlink:href="#LiberationSans-2d"/>
       <use x="255.76171875" xlink:href="#LiberationSans-31"/>
       <use x="311.376953125" xlink:href="#LiberationSans-32"/>
       <use x="366.9921875" xlink:href="#LiberationSans-2d"/>
       <use x="400.29296875" xlink:href="#LiberationSans-31"/>
       <use x="455.908203125" xlink:href="#LiberationSans-36"/>
       <use x="511.5234375" xlink:href="#LiberationSans-20"/>
       <use x="539.306640625" xlink:href="#LiberationSans-31"/>
       <use x="594.921875" xlink:href="#LiberationSans-33"/>
       <use x="650.537109375" xlink:href="#LiberationSans-3a"/>
       <use x="678.3203125" xlink:href="#LiberationSans-34"/>
       <use x="733.935546875" xlink:href="#LiberationSans-32"/>
       <use x="789.55078125" xlink:href="#LiberationSans-3a"/>
       <use x="817.333984375" xlink:href="#LiberationSans-30"/>
       <use x="872.94921875" xlink:href="#LiberationSans-30"/>
      </g>
     </g>
    </g>
    <g id="text_5">
     <!-- time -->
     <defs>
      <path d="M 13.484375 24.5625 
Q 13.484375 20.40625 14.328125 16.90625 
Q 15.1875 13.421875 16.96875 10.90625 
Q 18.75 8.40625 21.53125 7 
Q 24.3125 5.609375 28.21875 5.609375 
Q 33.9375 5.609375 37.375 7.90625 
Q 40.828125 10.203125 42.046875 13.71875 
L 49.75 11.53125 
Q 48.921875 9.328125 47.4375 7.109375 
Q 45.953125 4.890625 43.453125 3.09375 
Q 40.96875 1.3125 37.234375 0.15625 
Q 33.5 -0.984375 28.21875 -0.984375 
Q 16.5 -0.984375 10.375 6 
Q 4.25 12.984375 4.25 26.765625 
Q 4.25 34.1875 6.09375 39.328125 
Q 7.953125 44.484375 11.171875 47.703125 
Q 14.40625 50.921875 18.703125 52.359375 
Q 23 53.8125 27.875 53.8125 
Q 34.515625 53.8125 38.984375 51.65625 
Q 43.453125 49.515625 46.15625 45.71875 
Q 48.875 41.9375 50.015625 36.8125 
Q 51.171875 31.6875 51.171875 25.734375 
L 51.171875 24.5625 
z
M 42.09375 31.296875 
Q 41.359375 39.65625 37.84375 43.484375 
Q 34.328125 47.3125 27.734375 47.3125 
Q 25.53125 47.3125 23.109375 46.609375 
Q 20.703125 45.90625 18.65625 44.09375 
Q 16.609375 42.28125 15.1875 39.171875 
Q 13.765625 36.078125 13.578125 31.296875 
z
" id="LiberationSans-65"/>
      <path d="M 6.6875 64.0625 
L 6.6875 72.46875 
L 15.484375 72.46875 
L 15.484375 64.0625 
z
M 6.6875 0 
L 6.6875 52.828125 
L 15.484375 52.828125 
L 15.484375 0 
z
" id="LiberationSans-69"/>
      <path d="M 27.046875 0.390625 
Q 25.046875 -0.140625 22.96875 -0.453125 
Q 20.90625 -0.78125 18.171875 -0.78125 
Q 7.625 -0.78125 7.625 11.1875 
L 7.625 46.4375 
L 1.515625 46.4375 
L 1.515625 52.828125 
L 7.953125 52.828125 
L 10.546875 64.65625 
L 16.40625 64.65625 
L 16.40625 52.828125 
L 26.171875 52.828125 
L 26.171875 46.4375 
L 16.40625 46.4375 
L 16.40625 13.09375 
Q 16.40625 9.28125 17.640625 7.734375 
Q 18.890625 6.203125 21.96875 6.203125 
Q 23.25 6.203125 24.4375 6.390625 
Q 25.640625 6.59375 27.046875 6.890625 
z
" id="LiberationSans-74"/>
      <path d="M 37.5 0 
L 37.5 33.5 
Q 37.5 37.359375 37.015625 39.9375 
Q 36.53125 42.53125 35.375 44.109375 
Q 34.234375 45.703125 32.375 46.359375 
Q 30.515625 47.015625 27.828125 47.015625 
Q 25.046875 47.015625 22.796875 45.921875 
Q 20.5625 44.828125 18.96875 42.75 
Q 17.390625 40.671875 16.53125 37.625 
Q 15.671875 34.578125 15.671875 30.609375 
L 15.671875 0 
L 6.9375 0 
L 6.9375 41.546875 
Q 6.9375 43.21875 6.90625 45.046875 
Q 6.890625 46.875 6.828125 48.5 
Q 6.78125 50.140625 6.734375 51.3125 
Q 6.6875 52.484375 6.640625 52.828125 
L 14.9375 52.828125 
Q 14.984375 52.59375 15.03125 51.515625 
Q 15.09375 50.4375 15.15625 49.046875 
Q 15.234375 47.65625 15.28125 46.21875 
Q 15.328125 44.78125 15.328125 43.796875 
L 15.484375 43.796875 
Q 16.65625 46.09375 18.015625 47.953125 
Q 19.390625 49.8125 21.21875 51.09375 
Q 23.046875 52.390625 25.40625 53.09375 
Q 27.78125 53.8125 30.90625 53.8125 
Q 36.921875 53.8125 40.40625 51.421875 
Q 43.890625 49.03125 45.265625 43.796875 
L 45.40625 43.796875 
Q 46.578125 46.09375 48.046875 47.953125 
Q 49.515625 49.8125 51.46875 51.09375 
Q 53.421875 52.390625 55.859375 53.09375 
Q 58.296875 53.8125 61.421875 53.8125 
Q 65.4375 53.8125 68.328125 52.734375 
Q 71.234375 51.65625 73.09375 49.40625 
Q 74.953125 47.171875 75.828125 43.625 
Q 76.703125 40.09375 76.703125 35.203125 
L 76.703125 0 
L 68.015625 0 
L 68.015625 33.5 
Q 68.015625 37.359375 67.53125 39.9375 
Q 67.046875 42.53125 65.890625 44.109375 
Q 64.75 45.703125 62.890625 46.359375 
Q 61.03125 47.015625 58.34375 47.015625 
Q 55.5625 47.015625 53.3125 45.96875 
Q 51.078125 44.921875 49.484375 42.875 
Q 47.90625 40.828125 47.046875 37.75 
Q 46.1875 34.671875 46.1875 30.609375 
L 46.1875 0 
z
" id="LiberationSans-6d"/>
     </defs>
     <g style="fill:#262626;" transform="translate(284.81015625 385.6934375)scale(0.11 -0.11)">
      <use xlink:href="#LiberationSans-74"/>
      <use x="27.783203125" xlink:href="#LiberationSans-69"/>
      <use x="50.0" xlink:href="#LiberationSans-6d"/>
      <use x="133.30078125" xlink:href="#LiberationSans-65"/>
     </g>
    </g>
   </g>
   <g id="matplotlib.axis_2">
    <g id="ytick_1">
     <g id="line2d_13">
      <path clip-path="url(#p44b059ea20)" d="M 72 356.4 
L 518.4 356.4 
" style="fill:none;stroke:#ffffff;stroke-linecap:round;"/>
     </g>
     <g id="line2d_14"/>
     <g id="line2d_15"/>
     <g id="text_6">
      <!-- −2900 -->
      <defs>
       <path d="M 4.9375 29.6875 
L 4.9375 36.8125 
L 53.515625 36.8125 
L 53.515625 29.6875 
z
" id="LiberationSans-2212"/>
      </defs>
      <g style="fill:#262626;" transform="translate(36.915625 358.9859375)scale(0.1 -0.1)">
       <use xlink:href="#LiberationSans-2212"/>
       <use x="58.3984375" xlink:href="#LiberationSans-32"/>
       <use x="114.013671875" xlink:href="#LiberationSans-39"/>
       <use x="169.62890625" xlink:href="#LiberationSans-30"/>
       <use x="225.244140625" xlink:href="#LiberationSans-30"/>
      </g>
     </g>
    </g>
    <g id="ytick_2">
     <g id="line2d_16">
      <path clip-path="url(#p44b059ea20)" d="M 72 293.04 
L 518.4 293.04 
" style="fill:none;stroke:#ffffff;stroke-linecap:round;"/>
     </g>
     <g id="line2d_17"/>
     <g id="line2d_18"/>
     <g id="text_7">
      <!-- −2850 -->
      <g style="fill:#262626;" transform="translate(36.915625 295.6259375)scale(0.1 -0.1)">
       <use xlink:href="#LiberationSans-2212"/>
       <use x="58.3984375" xlink:href="#LiberationSans-32"/>
       <use x="114.013671875" xlink:href="#LiberationSans-38"/>
       <use x="169.62890625" xlink:href="#LiberationSans-35"/>
       <use x="225.244140625" xlink:href="#LiberationSans-30"/>
      </g>
     </g>
    </g>
    <g id="ytick_3">
     <g id="line2d_19">
      <path clip-path="url(#p44b059ea20)" d="M 72 229.68 
L 518.4 229.68 
" style="fill:none;stroke:#ffffff;stroke-linecap:round;"/>
     </g>
     <g id="line2d_20"/>
     <g id="line2d_21"/>
     <g id="text_8">
      <!-- −2800 -->
      <g style="fill:#262626;" transform="translate(36.915625 232.2659375)scale(0.1 -0.1)">
       <use xlink:href="#LiberationSans-2212"/>
       <use x="58.3984375" xlink:href="#LiberationSans-32"/>
       <use x="114.013671875" xlink:href="#LiberationSans-38"/>
       <use x="169.62890625" xlink:href="#LiberationSans-30"/>
       <use x="225.244140625" xlink:href="#LiberationSans-30"/>
      </g>
     </g>
    </g>
    <g id="ytick_4">
     <g id="line2d_22">
      <path clip-path="url(#p44b059ea20)" d="M 72 166.32 
L 518.4 166.32 
" style="fill:none;stroke:#ffffff;stroke-linecap:round;"/>
     </g>
     <g id="line2d_23"/>
     <g id="line2d_24"/>
     <g id="text_9">
      <!-- −2750 -->
      <g style="fill:#262626;" transform="translate(36.915625 168.9059375)scale(0.1 -0.1)">
       <use xlink:href="#LiberationSans-2212"/>
       <use x="58.3984375" xlink:href="#LiberationSans-32"/>
       <use x="114.013671875" xlink:href="#LiberationSans-37"/>
       <use x="169.62890625" xlink:href="#LiberationSans-35"/>
       <use x="225.244140625" xlink:href="#LiberationSans-30"/>
      </g>
     </g>
    </g>
    <g id="ytick_5">
     <g id="line2d_25">
      <path clip-path="url(#p44b059ea20)" d="M 72 102.96 
L 518.4 102.96 
" style="fill:none;stroke:#ffffff;stroke-linecap:round;"/>
     </g>
     <g id="line2d_26"/>
     <g id="line2d_27"/>
     <g id="text_10">
      <!-- −2700 -->
      <g style="fill:#262626;" transform="translate(36.915625 105.5459375)scale(0.1 -0.1)">
       <use xlink:href="#LiberationSans-2212"/>
       <use x="58.3984375" xlink:href="#LiberationSans-32"/>
       <use x="114.013671875" xlink:href="#LiberationSans-37"/>
       <use x="169.62890625" xlink:href="#LiberationSans-30"/>
       <use x="225.244140625" xlink:href="#LiberationSans-30"/>
      </g>
     </g>
    </g>
    <g id="ytick_6">
     <g id="line2d_28">
      <path clip-path="url(#p44b059ea20)" d="M 72 39.6 
L 518.4 39.6 
" style="fill:none;stroke:#ffffff;stroke-linecap:round;"/>
     </g>
     <g id="line2d_29"/>
     <g id="line2d_30"/>
     <g id="text_11">
      <!-- −2650 -->
      <g style="fill:#262626;" transform="translate(36.915625 42.1859375)scale(0.1 -0.1)">
       <use xlink:href="#LiberationSans-2212"/>
       <use x="58.3984375" xlink:href="#LiberationSans-32"/>
       <use x="114.013671875" xlink:href="#LiberationSans-36"/>
       <use x="169.62890625" xlink:href="#LiberationSans-35"/>
       <use x="225.244140625" xlink:href="#LiberationSans-30"/>
      </g>
     </g>
    </g>
   </g>
   <g id="line2d_31">
    <path clip-path="url(#p44b059ea20)" d="M 72 138.490913 
L 72.223312 153.966316 
L 72.446623 159.922156 
L 72.669935 157.375084 
L 72.893247 160.272713 
L 73.786493 132.535073 
L 74.009805 138.367084 
L 74.456428 135.528556 
L 74.67974 136.94782 
L 74.903052 142.90366 
L 75.126363 141.205612 
L 75.349675 144.031468 
L 75.572986 142.054636 
L 76.01961 149.42974 
L 76.242921 145.742188 
L 76.466233 160.842953 
L 76.689545 146.591212 
L 77.136168 187.381012 
L 77.35948 177.582665 
L 77.582791 180.129737 
L 77.806103 181.270217 
L 78.252726 201.42448 
L 78.476038 195.313684 
L 78.922661 241.0738 
L 79.145973 254.002131 
L 79.592596 228.158141 
L 79.815908 234.113981 
L 80.03922 224.762045 
L 80.485843 257.178544 
L 80.709155 245.486547 
L 80.932466 253.782448 
L 81.155778 243.218259 
L 81.37909 245.207763 
L 81.602401 243.218259 
L 81.825713 239.239251 
L 82.272336 226.893832 
L 82.495648 235.551699 
L 82.718959 225.474568 
L 82.942271 234.423891 
L 83.165583 234.994131 
L 83.388894 223.77652 
L 83.612206 230.444883 
L 83.835518 224.055304 
L 84.058829 228.034312 
L 84.282141 219.084989 
L 84.505453 231.845693 
L 84.728764 228.728381 
L 84.952076 240.361277 
L 85.175388 239.375752 
L 85.398699 230.147645 
L 85.622011 235.6882 
L 85.845323 246.750856 
L 86.068634 239.375752 
L 86.291946 248.17012 
L 86.515258 244.203784 
L 86.961881 261.377235 
L 87.408504 236.103485 
L 87.631816 234.975677 
L 87.855128 233.264957 
L 88.301751 250.729864 
L 88.525063 230.996669 
L 88.748374 240.795016 
L 88.971686 234.268936 
L 89.194997 244.346067 
L 89.418309 223.342781 
L 89.864932 230.3026 
L 90.088244 229.73236 
L 90.311556 242.077779 
L 90.758179 206.032829 
L 90.981491 201.496253 
L 91.428114 216.6802 
L 91.651426 216.971656 
L 91.874737 218.948488 
L 92.098049 218.948488 
L 92.321361 220.088968 
L 92.544672 220.088968 
L 92.767984 231.306579 
L 92.991296 225.474568 
L 93.214607 241.507539 
L 93.437919 234.839176 
L 93.661231 236.82868 
L 93.884542 240.224776 
L 94.107854 240.516232 
L 94.331166 243.218259 
L 94.554477 256.620976 
L 94.777789 254.910256 
L 95.001101 242.926803 
L 95.224412 254.352688 
L 95.447724 248.384176 
L 95.671036 260.172028 
L 95.894347 248.384176 
L 96.117659 244.41784 
L 96.34097 236.413395 
L 96.564282 221.263049 
L 96.787594 230.919113 
L 97.010905 218.93566 
L 97.234217 218.644204 
L 97.457529 222.901996 
L 97.68084 222.623212 
L 97.904152 237.652204 
L 98.127464 233.394412 
L 98.574087 245.948105 
L 98.797399 237.445193 
L 99.02071 251.48866 
L 99.244022 243.958601 
L 99.467334 245.948105 
L 99.690645 238.294217 
L 99.913957 240.562505 
L 100.137269 226.019308 
L 100.36058 226.881004 
L 100.583892 222.901996 
L 100.807204 212.254625 
L 101.030515 217.931681 
L 101.253827 219.921185 
L 101.477139 229.273121 
L 101.70045 223.608737 
L 101.923762 241.909996 
L 102.147074 223.038497 
L 102.370385 231.41758 
L 102.593697 222.747041 
L 102.817009 229.998316 
L 103.04032 226.310764 
L 103.263632 225.740524 
L 103.486943 222.052972 
L 103.710255 211.126817 
L 103.933567 221.774188 
L 104.603502 199.617749 
L 104.826813 211.405601 
L 105.496748 225.585569 
L 105.72006 227.853857 
L 105.943372 210.680405 
L 106.166683 210.971861 
L 106.389995 195.300857 
L 106.613307 194.451833 
L 107.05993 216.078677 
L 107.283242 198.139385 
L 107.729865 210.621305 
L 107.953177 217.147385 
L 108.176488 210.900089 
L 108.3998 209.772281 
L 108.623112 224.873045 
L 108.846423 208.910585 
L 109.069735 224.873045 
L 109.293047 209.480825 
L 109.516358 216.078677 
L 109.73967 227.853857 
L 109.962981 215.787221 
L 110.186293 244.730069 
L 110.409605 246.149333 
L 110.632916 238.993913 
L 110.856228 240.121721 
L 111.07954 235.306361 
L 111.302851 243.310805 
L 111.526163 241.321301 
L 111.749475 243.032021 
L 111.972786 232.467833 
L 112.196098 243.310805 
L 112.41941 244.159829 
L 112.866033 253.109153 
L 113.089345 247.153313 
L 113.312656 245.163809 
L 113.535968 252.817697 
L 113.75928 249.700385 
L 113.982591 261.19678 
L 114.205903 261.76702 
L 114.429215 261.76702 
L 114.652526 262.9075 
L 114.875838 254.6707 
L 115.09915 259.777516 
L 115.545773 273.121132 
L 115.769085 268.429601 
L 115.992396 274.540396 
L 116.215708 265.746028 
L 116.43902 271.131628 
L 116.662331 281.974601 
L 116.885643 277.438025 
L 117.108954 258.370924 
L 117.332266 268.073417 
L 117.555578 259.849289 
L 117.778889 244.748524 
L 118.002201 249.006316 
L 118.448824 263.536841 
L 118.672136 253.044425 
L 119.118759 262.409033 
L 119.342071 263.258057 
L 119.565383 254.113132 
L 119.788694 253.821676 
L 120.012006 256.440521 
L 120.235318 240.211948 
L 120.458629 238.222444 
L 120.681941 228.715553 
L 120.905253 232.681889 
L 121.128564 245.318764 
L 121.351876 244.46974 
L 121.575188 249.927113 
L 121.798499 246.167788 
L 122.021811 260.698313 
L 122.245123 253.542892 
L 122.468434 260.989769 
L 122.691746 252.123628 
L 122.915058 259.000265 
L 123.138369 260.989769 
L 123.361681 264.107081 
L 123.808304 212.533409 
L 124.254927 224.600044 
L 124.701551 205.449761 
L 124.924862 207.302764 
L 125.148174 224.393033 
L 125.371486 218.36542 
L 125.594797 220.633708 
L 125.818109 219.784684 
L 126.041421 233.744969 
L 126.264732 233.744969 
L 126.711356 222.331756 
L 126.934667 224.600044 
L 127.157979 219.784684 
L 127.381291 222.901996 
L 127.604602 231.975148 
L 128.051226 271.779424 
L 128.274537 273.768928 
L 128.497849 276.88624 
L 128.721161 274.617952 
L 128.944472 278.875744 
L 129.167784 278.875744 
L 129.391096 278.16322 
L 129.614407 270.217876 
L 129.837719 277.177696 
L 130.284342 306.179645 
L 130.507654 286.529632 
L 130.730965 294.546749 
L 130.954277 295.966013 
L 131.177589 292.848701 
L 131.4009 279.445984 
L 131.624212 288.590909 
L 131.847524 289.718717 
L 132.294147 273.056404 
L 132.517459 278.305504 
L 132.74077 269.077396 
L 132.964082 289.9384 
L 133.187394 295.615456 
L 133.410705 293.917408 
L 133.634017 302.42032 
L 133.857329 297.03472 
L 134.527264 268.073417 
L 134.750575 270.911945 
L 134.973887 270.633161 
L 135.197199 269.492681 
L 135.643822 306.678112 
L 136.090445 290.923924 
L 136.313757 293.192212 
L 136.537069 288.93442 
L 136.76038 298.162528 
L 136.983692 291.927904 
L 137.207004 280.431508 
L 137.430315 285.817108 
L 137.653627 275.448521 
L 137.876938 270.633161 
L 138.10025 262.687817 
L 138.323562 272.764948 
L 138.546873 273.905428 
L 138.770185 260.140745 
L 138.993497 265.526345 
L 139.216808 275.88226 
L 139.44012 278.16322 
L 139.663432 274.184212 
L 139.886743 275.448521 
L 140.110055 270.911945 
L 140.333367 288.93442 
L 140.556678 284.813129 
L 140.77999 272.259436 
L 141.003302 268.014316 
L 141.226613 281.417033 
L 141.449925 283.115081 
L 141.673237 280.846793 
L 141.896548 263.465068 
L 142.11986 263.756524 
L 142.343172 266.303596 
L 142.566483 264.326764 
L 142.789795 260.068972 
L 143.013107 265.526345 
L 143.683042 236.090657 
L 143.906353 206.345058 
L 144.129665 213.583661 
L 144.352976 196.422882 
L 144.576288 213.875117 
L 144.7996 215.294381 
L 145.246223 222.254201 
L 145.692846 239.207969 
L 146.13947 237.788705 
L 146.362781 236.939681 
L 146.809405 249.2851 
L 147.032716 241.755041 
L 147.47934 244.023329 
L 147.702651 244.023329 
L 147.925963 236.939681 
L 148.149275 215.942177 
L 148.372586 219.921185 
L 148.595898 216.233633 
L 149.042521 221.048993 
L 149.265833 209.273813 
L 149.712456 211.820885 
L 149.935768 216.648917 
L 150.15908 214.938197 
L 150.382391 212.099669 
L 150.605703 239.920492 
L 150.829015 222.468257 
L 151.052326 223.038497 
L 151.275638 227.296289 
L 151.498949 219.474773 
L 151.945573 225.151829 
L 152.168884 224.024021 
L 152.615508 215.436665 
L 153.062131 214.017401 
L 153.508754 224.024021 
L 153.955378 219.195989 
L 154.178689 213.518933 
L 154.402001 215.229653 
L 154.625313 212.391125 
L 154.848624 214.380629 
L 155.071936 211.250645 
L 155.295248 223.317281 
L 155.741871 196.998905 
L 155.965183 198.709625 
L 156.188494 207.854549 
L 156.411806 206.992853 
L 156.635118 205.514489 
L 156.858429 214.938197 
L 157.081741 205.223033 
L 157.305053 213.518933 
L 157.528364 213.459833 
L 157.751676 208.061561 
L 157.974987 207.503993 
L 158.198299 203.246201 
L 158.421611 202.954745 
L 158.644922 205.865045 
L 158.868234 194.160377 
L 159.091546 195.372629 
L 159.314857 209.986337 
L 159.538169 208.845857 
L 159.761481 200.758229 
L 159.984792 213.103649 
L 160.208104 196.500437 
L 160.431416 212.254625 
L 160.654727 194.232149 
L 160.878039 191.685077 
L 161.101351 203.460257 
L 161.324662 194.232149 
L 161.547974 196.500437 
L 161.771286 191.393621 
L 162.441221 200.051489 
L 162.664532 191.685077 
L 162.887844 206.298785 
L 163.111156 194.510933 
L 163.334467 193.383125 
L 163.557779 188.555093 
L 163.781091 187.135829 
L 164.004402 203.460257 
L 164.227714 195.081173 
L 164.451026 195.930197 
L 164.674337 197.919701 
L 164.897649 193.383125 
L 165.12096 193.091669 
L 165.344272 193.091669 
L 165.567584 197.783201 
L 165.790895 193.661909 
L 166.014207 196.791893 
L 166.237519 202.890017 
L 166.46083 193.383125 
L 166.684142 189.125333 
L 166.907454 181.179989 
L 167.130765 186.720545 
L 167.354077 175.502933 
L 167.8007 180.901205 
L 168.024012 164.381177 
L 168.247324 164.659961 
L 168.693947 174.375125 
L 168.917259 171.536597 
L 169.14057 174.096341 
L 169.363882 162.171989 
L 169.810505 168.127829 
L 170.033817 170.117333 
L 170.257129 182.183969 
L 170.48044 208.982357 
L 170.703752 214.522913 
L 171.150375 207.284309 
L 171.373687 209.552597 
L 171.596998 195.022073 
L 171.82031 198.418169 
L 172.043622 182.385197 
L 172.266933 185.223725 
L 172.713557 200.544173 
L 172.936868 197.135405 
L 173.16018 195.994925 
L 173.383492 199.682477 
L 173.606803 200.252717 
L 173.830115 175.074821 
L 174.053427 185.63901 
L 174.276738 180.460421 
L 174.50005 180.460421 
L 174.723362 177.343109 
L 174.946673 182.158469 
L 175.169985 183.869189 
L 175.393297 187.835525 
L 175.83992 180.751877 
L 176.286543 169.813049 
L 176.509855 181.030661 
L 176.733167 172.081337 
L 176.956478 174.070841 
L 177.17979 149.741969 
L 177.403102 161.725422 
L 177.626413 148.031249 
L 177.849725 151.220334 
L 178.073037 162.716729 
L 178.51966 159.029177 
L 178.742971 157.609913 
L 179.189595 176.274402 
L 179.412906 164.290949 
L 179.636218 166.559237 
L 179.85953 184.219746 
L 180.082841 178.192133 
L 180.306153 190.745826 
L 180.529465 195.282402 
L 180.752776 176.202629 
L 181.1994 168.685241 
L 181.422711 174.349625 
L 181.646023 170.383289 
L 181.869335 177.479609 
L 182.092646 179.890181 
L 182.315958 165.555257 
L 182.53927 168.964025 
L 182.762581 158.471609 
L 182.985893 170.817029 
L 183.209205 157.901369 
L 183.655828 161.867705 
L 183.87914 156.482105 
L 184.102451 159.320633 
L 184.325763 165.710213 
L 184.549075 158.750393 
L 184.772386 156.203321 
L 184.995698 149.385785 
L 185.21901 147.966521 
L 185.888944 193.311353 
L 186.112256 183.804461 
L 186.335568 163.222242 
L 186.558879 170.318562 
L 186.782191 171.44637 
L 187.005503 181.814957 
L 187.228814 170.318562 
L 187.452126 170.597346 
L 187.675438 182.093741 
L 188.122061 194.451833 
L 188.345373 221.327777 
L 188.568684 219.629729 
L 188.791996 210.680405 
L 189.015308 243.679817 
L 189.238619 232.266604 
L 189.461931 261.287008 
L 189.685243 261.008224 
L 189.908554 244.528841 
L 190.131866 243.109577 
L 190.355178 249.790612 
L 190.578489 215.229653 
L 190.801801 236.090657 
L 191.025113 228.145313 
L 191.248424 229.564577 
L 191.471736 223.317281 
L 191.695048 221.619233 
L 191.918359 233.394412 
L 192.141671 230.568556 
L 192.364982 189.714028 
L 192.588294 196.518892 
L 192.811606 195.391084 
L 193.034917 188.294764 
L 193.258229 186.441761 
L 193.481541 195.806369 
L 193.704852 193.246625 
L 193.928164 176.073173 
L 194.151476 180.052181 
L 194.374787 196.085153 
L 194.598099 189.974357 
L 194.821411 208.288289 
L 195.044722 195.651413 
L 195.268034 190.823381 
L 195.491346 204.309281 
L 195.714657 210.69886 
L 195.937969 204.74302 
L 196.161281 202.195948 
L 196.384592 195.391084 
L 196.607904 204.244553 
L 196.831216 203.116745 
L 197.277839 205.527316 
L 197.501151 200.4205 
L 197.724462 192.054089 
L 197.947774 206.389012 
L 198.171086 200.711956 
L 198.394397 203.550484 
L 198.617709 188.645321 
L 198.841021 181.549001 
L 199.064332 185.391508 
L 199.287644 171.626825 
L 199.510955 170.6413 
L 199.734267 160.272713 
L 199.957579 166.228553 
L 200.18089 180.563476 
L 200.404202 174.328852 
L 200.627514 176.59714 
L 200.850825 169.50082 
L 201.074137 166.953748 
L 201.297449 176.59714 
L 201.52076 168.496841 
L 201.744072 170.207561 
L 201.967384 169.637321 
L 202.190695 177.582665 
L 202.414007 169.067081 
L 202.637319 173.046089 
L 202.86063 165.307756 
L 203.083942 168.43774 
L 203.307254 163.330924 
L 203.530565 168.43774 
L 203.753877 161.34142 
L 203.977189 164.179948 
L 204.2005 170.984812 
L 204.423812 167.588716 
L 204.647124 174.102124 
L 204.870435 165.735713 
L 205.093747 166.72702 
L 205.317059 163.330924 
L 205.54037 173.603657 
L 205.986993 167.018476 
L 206.210305 167.8675 
L 206.433617 164.595233 
L 206.656928 174.672364 
L 206.88024 178.930156 
L 207.103552 169.423265 
L 207.326863 178.651372 
L 207.550175 164.024993 
L 207.773487 168.004001 
L 208.22011 191.982316 
L 208.666733 185.73502 
L 208.890045 175.087649 
L 209.113357 173.668385 
L 209.336668 188.003308 
L 209.55998 180.764705 
L 209.783292 183.187948 
L 210.006603 189.714028 
L 210.229915 169.131809 
L 210.453227 170.842529 
L 210.89985 176.383084 
L 211.123162 176.940652 
L 211.346473 168.004001 
L 211.569785 188.003308 
L 211.793097 184.036972 
L 212.016408 147.920249 
L 212.23972 154.446329 
L 212.463032 135.419874 
L 212.686343 145.218221 
L 212.909655 146.203746 
L 213.132966 146.203746 
L 213.356278 135.639557 
L 213.57959 143.086434 
L 213.802901 133.941509 
L 214.026213 139.107426 
L 214.249525 139.107426 
L 214.472836 141.945954 
L 214.696148 150.046253 
L 214.91946 151.174061 
L 215.142771 141.09693 
L 215.366083 139.677666 
L 215.589395 143.935458 
L 215.812706 141.66717 
L 216.036018 147.777965 
L 216.25933 136.839138 
L 216.482641 136.839138 
L 216.705953 134.725805 
L 216.929265 116.70333 
L 217.152576 111.524741 
L 217.5992 125.497698 
L 218.045823 112.094981 
L 218.269135 111.803525 
L 218.492446 129.18525 
L 218.715758 120.040325 
L 219.162381 143.086434 
L 219.385693 150.603821 
L 219.609005 137.979618 
L 219.832316 139.677666 
L 220.055628 136.268898 
L 220.278939 147.777965 
L 220.502251 136.560354 
L 220.725563 142.949933 
L 220.948874 132.302562 
L 221.172186 139.541165 
L 221.395498 137.130594 
L 221.618809 132.581346 
L 222.288744 153.00861 
L 222.512056 146.702213 
L 222.735368 153.00861 
L 222.958679 152.159586 
L 223.181991 139.605893 
L 223.405303 144.155141 
L 223.628614 143.014661 
L 223.851926 139.172153 
L 224.075238 141.731897 
L 224.298549 140.591417 
L 224.745173 167.758818 
L 224.968484 157.764869 
L 225.415108 151.530245 
L 225.638419 155.217797 
L 225.861731 153.228293 
L 226.085043 154.647557 
L 226.308354 153.798533 
L 226.531666 155.496581 
L 226.754977 159.462917 
L 226.978289 153.507077 
L 227.201601 163.792482 
L 227.424912 185.657465 
L 227.648224 193.383125 
L 228.094847 172.171565 
L 228.318159 183.389177 
L 228.541471 185.936249 
L 228.764782 184.516985 
L 228.988094 191.043065 
L 229.211406 180.674477 
L 229.434717 188.495993 
L 229.658029 190.194041 
L 229.881341 166.06077 
L 230.104652 168.050274 
L 230.327964 166.339554 
L 230.551276 167.480034 
L 230.774587 180.965933 
L 230.997899 187.492013 
L 231.221211 197.984429 
L 231.444522 200.252717 
L 231.667834 191.316066 
L 231.891146 208.613346 
L 232.114457 214.290402 
L 232.337769 212.734637 
L 232.561081 205.496034 
L 232.784392 211.606829 
L 233.007704 195.561186 
L 233.231016 208.613346 
L 233.454327 208.904802 
L 233.677639 208.613346 
L 233.90095 190.952837 
L 234.124262 183.577733 
L 234.347574 203.940269 
L 234.570885 184.996997 
L 234.794197 192.16509 
L 235.017509 190.45437 
L 235.24082 194.141922 
L 235.464132 192.16509 
L 235.687444 183.869189 
L 235.910755 184.996997 
L 236.134067 176.060345 
L 236.58069 192.372101 
L 236.804002 186.416261 
L 237.027314 246.167788 
L 237.250625 255.591497 
L 237.473937 240.490732 
L 237.697249 233.685868 
L 237.92056 241.339756 
L 238.143872 226.726049 
L 238.367184 242.75902 
L 238.590495 232.960673 
L 238.813807 249.006316 
L 239.037119 247.865836 
L 239.26043 241.197473 
L 239.483742 252.972652 
L 239.707054 242.895521 
L 239.930365 248.281121 
L 240.153677 245.734049 
L 240.376988 248.002337 
L 240.6003 264.742049 
L 241.046923 255.656225 
L 241.493547 259.914017 
L 241.94017 273.815201 
L 242.163482 254.094677 
L 242.386793 262.752545 
L 242.610105 263.893025 
L 243.056728 252.675413 
L 243.28004 251.256149 
L 243.503352 263.031329 
L 243.726663 250.407125 
L 243.949975 253.679393 
L 244.173287 252.817697 
L 244.396598 262.058476 
L 244.61991 258.494753 
L 244.843222 276.867785 
L 245.066533 262.616044 
L 245.289845 257.509228 
L 245.513157 249.700385 
L 245.736468 266.024812 
L 245.95978 273.970156 
L 246.183092 274.24894 
L 246.406403 264.450593 
L 246.853027 273.536417 
L 247.076338 273.244961 
L 247.29965 268.999841 
L 247.522961 275.234465 
L 247.746273 269.848865 
L 247.969585 276.653729 
L 248.192896 278.351777 
L 248.63952 270.419105 
L 249.086143 268.999841 
L 249.309455 274.81918 
L 249.532766 268.138145 
L 249.756078 274.540396 
L 249.97939 270.852844 
L 250.202701 270.852844 
L 250.426013 272.829676 
L 250.872636 282.266057 
L 251.095948 267.444076 
L 251.31926 275.448521 
L 251.542571 273.180233 
L 251.765883 277.438025 
L 251.989195 277.159241 
L 252.212506 262.058476 
L 252.435818 281.850772 
L 252.65913 271.760969 
L 252.882441 278.008265 
L 253.105753 269.712364 
L 253.329065 282.266057 
L 253.552376 279.427529 
L 253.998999 269.142124 
L 254.445623 281.9155 
L 254.668934 278.506732 
L 254.892246 280.77502 
L 255.115558 275.38942 
L 255.562181 275.95966 
L 255.785493 280.20478 
L 256.008804 270.419105 
L 256.232116 274.540396 
L 256.678739 293.82718 
L 256.902051 294.105964 
L 257.125363 294.954988 
L 257.571986 284.183788 
L 257.795298 289.290604 
L 258.018609 298.714313 
L 258.241921 291.558892 
L 258.465233 295.318217 
L 258.688544 281.9155 
L 258.911856 281.624044 
L 259.135168 278.785516 
L 259.358479 287.579884 
L 259.581791 278.227948 
L 259.805103 286.232393 
L 260.028414 283.964105 
L 260.251726 292.343188 
L 260.475038 285.246868 
L 260.698349 293.347168 
L 260.921661 294.766432 
L 261.144972 289.659616 
L 261.368284 294.766432 
L 261.591596 285.246868 
L 261.814907 297.60496 
L 262.038219 292.206688 
L 262.261531 293.625952 
L 262.484842 297.883744 
L 262.708154 299.873248 
L 262.931466 312.984509 
L 263.154777 312.848008 
L 263.378089 295.687229 
L 263.824712 292.278461 
L 264.048024 283.133536 
L 264.494647 310.300936 
L 264.717959 295.687229 
L 264.941271 297.093821 
L 265.164582 284.831584 
L 265.387894 290.010173 
L 265.611206 283.484093 
L 266.057829 278.377277 
L 266.281141 290.722696 
L 266.504452 295.693011 
L 266.727764 292.575699 
L 266.951076 300.8716 
L 267.397699 289.53016 
L 267.621011 295.486 
L 267.844322 275.123464 
L 268.067634 274.84468 
L 268.290945 277.670536 
L 268.514257 265.603901 
L 268.737569 262.207805 
L 268.96088 279.381256 
L 269.184192 275.123464 
L 269.407504 279.381256 
L 269.630815 263.056829 
L 269.854127 263.769352 
L 270.077439 266.60788 
L 270.30075 266.899336 
L 270.524062 252.998152 
L 270.747374 259.524232 
L 270.970685 252.272957 
L 271.193997 253.121981 
L 271.863932 270.295432 
L 272.087244 257.950013 
L 272.310555 278.532232 
L 272.533867 279.0898 
L 272.757179 278.532232 
L 272.98049 261.916349 
L 273.203802 279.951496 
L 273.427114 273.7042 
L 273.650425 279.244755 
L 273.873737 270.865672 
L 274.097049 277.670536 
L 274.32036 288.039123 
L 274.543672 288.175624 
L 274.766983 288.175624 
L 274.990295 283.484093 
L 275.213607 292.14196 
L 275.436918 278.947517 
L 275.66023 291.57172 
L 275.883542 293.840008 
L 276.330165 279.505085 
L 276.553477 293.561224 
L 276.776788 293.28244 
L 277.0001 277.807037 
L 277.223412 287.884168 
L 277.670035 277.112968 
L 277.893347 287.190099 
L 278.116658 277.961992 
L 278.33997 291.447891 
L 278.563282 290.028627 
L 278.786593 293.716179 
L 279.009905 300.242259 
L 279.233217 303.080787 
L 279.456528 301.091283 
L 279.67984 304.208595 
L 279.903152 311.013459 
L 280.126463 327.118204 
L 280.349775 316.192048 
L 280.573087 315.621808 
L 280.796398 307.047123 
L 281.01971 313.35352 
L 281.243022 313.074736 
L 281.466333 307.047123 
L 281.689645 312.78328 
L 281.912956 293.28244 
L 282.136268 323.430652 
L 282.35958 311.655472 
L 282.582891 331.252167 
L 283.029515 329.262663 
L 283.252826 331.809735 
L 283.69945 282.97858 
L 283.922761 286.666132 
L 284.146073 296.46448 
L 284.369385 294.196192 
L 284.592696 308.169149 
L 284.816008 307.028669 
L 285.03932 334.849491 
L 285.485943 319.374088 
L 285.709255 320.514568 
L 285.932566 319.095304 
L 286.155878 310.437437 
L 286.37919 322.646355 
L 286.602501 321.227091 
L 286.825813 326.904147 
L 287.049125 312.569224 
L 287.272436 312.29044 
L 287.495748 315.686536 
L 287.71906 313.709704 
L 287.942371 316.827016 
L 288.165683 297.093821 
L 288.388994 302.647048 
L 288.612306 292.848701 
L 288.835618 298.946824 
L 289.058929 308.745171 
L 289.282241 310.734675 
L 289.505553 298.946824 
L 289.728864 303.204616 
L 289.952176 301.785352 
L 290.175488 298.946824 
L 290.398799 298.66804 
L 290.622111 316.690515 
L 290.845423 294.825533 
L 291.068734 309.451912 
L 291.292046 306.892168 
L 291.738669 270.217876 
L 291.961981 281.144032 
L 292.185293 278.875744 
L 292.408604 279.796541 
L 292.631916 273.840701 
L 292.855228 273.840701 
L 293.078539 269.582909 
L 293.301851 272.700221 
L 293.525163 273.840701 
L 293.748474 267.314621 
L 293.971786 264.40432 
L 294.195098 278.377277 
L 294.641721 265.823584 
L 294.865033 272.991677 
L 295.088344 270.153149 
L 295.311656 272.991677 
L 295.534967 271.002173 
L 295.758279 267.593405 
L 295.981591 253.983677 
L 296.204902 271.157128 
L 296.428214 258.799037 
L 296.651526 270.865672 
L 296.874837 262.778045 
L 297.098149 265.325117 
L 297.544772 287.035144 
L 297.768084 293.28244 
L 297.991396 289.594888 
L 298.214707 294.980488 
L 298.438019 290.722696 
L 298.661331 290.722696 
L 298.884642 280.924349 
L 299.107954 296.399752 
L 299.331266 294.131464 
L 299.554577 294.701704 
L 299.777889 276.108989 
L 300.001201 276.108989 
L 300.224512 280.80052 
L 300.447824 263.627069 
L 300.671136 286.619859 
L 300.894447 284.351571 
L 301.117759 296.905264 
L 301.341071 273.13396 
L 301.564382 279.814995 
L 301.787694 294.91576 
L 302.011006 322.808356 
L 302.457629 302.879559 
L 302.68094 313.722532 
L 302.904252 299.762247 
L 303.574187 308.045476 
L 303.797499 319.263087 
L 304.244122 293.514951 
L 304.690745 304.007367 
L 304.914057 300.890055 
L 305.137369 300.041031 
L 305.36068 307.196452 
L 305.807304 289.548615 
L 306.030615 286.418631 
L 306.253927 293.865508 
L 306.477239 286.988871 
L 306.70055 293.586724 
L 306.923862 294.144292 
L 307.147174 298.278255 
L 307.817109 269.970375 
L 308.04042 287.339428 
L 308.263732 287.060644 
L 308.487044 291.59722 
L 308.710355 280.754247 
L 308.933667 293.586724 
L 309.156978 295.563556 
L 309.38029 307.630191 
L 309.603602 297.831844 
L 310.050225 318.277563 
L 310.273537 305.083119 
L 310.496848 333.889467 
L 310.72016 306.917668 
L 310.943472 310.03498 
L 311.390095 329.910459 
L 311.836718 318.277563 
L 312.06003 316.858299 
L 312.506653 282.173511 
L 312.729965 275.355975 
L 312.953277 282.802852 
L 313.176588 276.204999 
L 313.3999 293.729007 
L 313.623212 271.959879 
L 313.846523 282.524068 
L 314.069835 284.222116 
L 314.293147 266.341924 
L 314.516458 270.891172 
L 314.73977 260.386084 
L 314.963082 264.073636 
L 315.186393 260.67754 
L 315.409705 264.935332 
L 315.633017 265.784356 
L 315.856328 269.056623 
L 316.07964 251.883172 
L 316.526263 258.409252 
L 316.972886 248.474404 
L 317.196198 243.866055 
L 317.41951 257.268772 
L 317.642821 235.641927 
L 317.866133 239.899719 
L 318.089445 231.79942 
L 318.312756 237.631431 
L 318.536068 239.608263 
L 318.75938 248.123847 
L 318.982691 248.402631 
L 319.429315 244.157511 
L 319.652626 247.845063 
L 319.875938 244.508068 
L 320.09925 236.562724 
L 320.322561 239.834991 
L 320.769185 233.879151 
L 320.992496 215.56522 
L 321.43912 221.52106 
L 321.662431 211.805895 
L 321.885743 211.527111 
L 322.109055 228.338596 
L 322.332366 209.829063 
L 322.555678 205.571271 
L 322.778989 205.351588 
L 323.002301 207.619876 
L 323.225613 211.307428 
L 323.448924 195.927879 
L 323.672236 196.206663 
L 323.895548 197.904711 
L 324.118859 198.474951 
L 324.342171 196.206663 
L 324.788794 169.668604 
L 325.012106 175.779399 
L 325.235418 177.490119 
L 325.682041 166.77802 
L 326.128664 181.807012 
L 326.575288 163.018695 
L 326.798599 166.706247 
L 327.021911 166.77802 
L 327.245223 173.291428 
L 327.468534 164.716743 
L 327.691846 168.125511 
L 327.915158 182.377252 
L 328.138469 179.817508 
L 328.361781 156.629116 
L 328.808404 183.796516 
L 329.255028 172.940871 
L 329.478339 181.236772 
L 329.701651 171.521607 
L 329.924962 167.276487 
L 330.148274 179.25994 
L 330.371586 163.588935 
L 330.594897 315.217033 
L 330.818209 316.915081 
L 331.041521 303.999422 
L 331.264832 308.393715 
L 331.488144 296.131478 
L 331.934767 306.404211 
L 332.158079 294.990998 
L 332.381391 303.008115 
L 332.604702 315.632318 
L 332.828014 313.655486 
L 333.051326 314.50451 
L 333.274637 312.236222 
L 333.944572 331.737062 
L 334.167884 310.525502 
L 334.391196 320.602633 
L 334.614507 313.085246 
L 335.061131 317.900606 
L 335.284442 309.521523 
L 335.507754 309.812979 
L 335.731066 309.521523 
L 335.954377 306.404211 
L 336.177689 301.297395 
L 336.401001 307.686974 
L 336.624312 289.664499 
L 336.847624 303.150398 
L 337.070935 274.408778 
L 337.294247 294.771315 
L 337.517559 300.169587 
L 337.74087 290.162966 
L 337.964182 293.29295 
L 338.187494 280.085834 
L 338.410805 293.850518 
L 338.634117 297.53807 
L 338.857429 284.343626 
L 339.08074 283.773386 
L 339.527364 278.387786 
L 339.750675 277.247306 
L 339.973987 266.599935 
L 340.197299 269.729919 
L 340.42061 284.064842 
L 340.867234 252.918434 
L 341.537169 274.836735 
L 341.76048 263.98109 
L 341.983792 261.279063 
L 342.207104 260.138583 
L 342.430415 257.591511 
L 342.653727 259.581015 
L 342.877039 271.07741 
L 343.10035 260.138583 
L 343.546973 272.775458 
L 343.770285 266.249378 
L 343.993597 255.031767 
L 344.216908 255.031767 
L 344.44022 264.272546 
L 344.663532 261.434018 
L 345.110155 268.019199 
L 345.333467 269.438463 
L 345.556778 258.02525 
L 345.78009 272.276991 
L 346.003402 260.014754 
L 346.226713 269.438463 
L 346.450025 270.008703 
L 346.673337 275.685759 
L 346.896648 263.132066 
L 347.11996 270.578943 
L 347.343272 264.901887 
L 347.566583 252.348194 
L 348.236518 269.159679 
L 348.45983 269.159679 
L 348.683142 266.891391 
L 348.906453 280.934858 
L 349.129765 258.59549 
L 349.7997 265.970594 
L 350.023012 253.625175 
L 350.246323 253.625175 
L 350.469635 253.903959 
L 350.692946 255.893463 
L 350.916258 260.138583 
L 351.13957 251.480715 
L 351.362881 250.352907 
L 351.586193 236.101166 
L 351.809505 239.497262 
L 352.256128 236.658734 
L 352.47944 244.105611 
L 352.702751 235.23947 
L 352.926063 245.803659 
L 353.149375 247.222923 
L 353.372686 223.172835 
L 353.595998 242.407563 
L 353.81931 234.960686 
L 354.042621 245.803659 
L 354.265933 229.698915 
L 354.712556 240.637742 
L 354.935868 224.592099 
L 355.15918 224.883555 
L 355.382491 227.151843 
L 355.605803 235.80971 
L 355.829115 235.23947 
L 356.052426 226.011363 
L 356.275738 232.122158 
L 356.49905 242.407563 
L 356.722361 228.434606 
L 356.945673 229.575086 
L 357.168984 233.262638 
L 357.392296 232.692398 
L 357.615608 240.637742 
L 358.062231 240.637742 
L 358.285543 231.118179 
L 358.508854 243.47627 
L 358.732166 245.589603 
L 358.955478 236.361496 
L 359.178789 234.942232 
L 359.625413 249.568611 
L 359.848724 253.256163 
L 360.295348 238.351 
L 360.965283 242.038552 
L 361.188594 240.327832 
L 361.411906 240.619288 
L 361.635218 243.7366 
L 361.858529 244.87708 
L 362.081841 242.317336 
L 362.305153 243.457816 
L 362.528464 240.049048 
L 362.751776 242.608792 
L 362.975088 237.21052 
L 363.198399 249.847395 
L 363.421711 250.417635 
L 363.645023 239.200024 
L 363.868334 243.7366 
L 364.091646 232.044603 
L 364.314957 250.83292 
L 364.538269 244.526523 
L 364.984892 256.78876 
L 365.208204 255.369496 
L 365.431516 266.587107 
L 365.654827 261.759075 
L 365.878139 241.966779 
L 366.101451 254.229016 
L 366.548074 249.413656 
L 366.771386 249.413656 
L 366.994697 247.994392 
L 367.218009 250.26268 
L 367.441321 247.994392 
L 367.664632 243.7366 
L 368.111256 242.317336 
L 368.334567 240.049048 
L 368.557879 240.898072 
L 368.781191 238.059544 
L 369.004502 241.747096 
L 369.227814 241.747096 
L 369.451126 227.567128 
L 369.674437 233.386467 
L 369.897749 222.460312 
L 370.121061 234.248163 
L 370.344372 234.526947 
L 370.567684 233.386467 
L 370.790995 236.516451 
L 371.014307 234.805731 
L 371.46093 214.164411 
L 371.684242 235.946211 
L 371.907554 244.170339 
L 372.130865 234.942232 
L 372.354177 250.975203 
L 372.577489 238.92124 
L 372.8008 237.21052 
L 373.024112 237.501976 
L 373.247424 239.200024 
L 373.470735 246.296344 
L 373.694047 244.015384 
L 373.917359 239.419707 
L 374.363982 253.101208 
L 374.587294 224.793327 
L 374.810605 235.732155 
L 375.033917 222.803823 
L 375.257229 234.312891 
L 375.48054 227.061615 
L 375.703852 213.575716 
L 375.927164 214.437412 
L 376.150475 229.051119 
L 376.373787 235.732155 
L 376.597099 235.440699 
L 376.82041 234.591675 
L 377.043722 223.944303 
L 377.267034 236.859963 
L 377.490345 225.084783 
L 377.713657 235.512472 
L 377.936968 228.065595 
L 378.16028 228.416152 
L 378.383592 228.137368 
L 378.606903 228.137368 
L 378.830215 237.365475 
L 379.053527 239.633763 
L 379.276838 218.20252 
L 379.50015 232.537443 
L 379.723462 232.537443 
L 380.170085 218.77276 
L 380.393397 215.934232 
L 380.616708 218.77276 
L 380.84002 219.621784 
L 381.286643 213.944728 
L 381.509955 230.269155 
L 381.733267 214.806424 
L 381.956578 213.944728 
L 382.17989 221.474787 
L 382.403202 222.894051 
L 382.626513 226.302819 
L 382.849825 225.162339 
L 383.073137 227.430627 
L 383.296448 228.000867 
L 383.51976 222.045027 
L 383.743072 234.111662 
L 383.966383 223.464291 
L 384.189695 236.95019 
L 384.413007 226.011363 
L 384.636318 231.967203 
L 384.85963 230.269155 
L 385.082941 233.956707 
L 385.306253 243.184814 
L 385.529565 230.560611 
L 385.976188 227.430627 
L 386.1995 212.24668 
L 386.646123 215.934232 
L 386.869435 223.172835 
L 387.092746 213.095704 
L 387.316058 220.470808 
L 387.53937 222.181528 
L 387.762681 226.147864 
L 387.985993 233.107683 
L 388.209305 229.265176 
L 388.655928 227.288344 
L 388.87924 223.309336 
L 389.102551 225.29884 
L 389.549175 223.030552 
L 389.772486 233.386467 
L 390.21911 237.935715 
L 390.442421 231.688419 
L 390.665733 217.353496 
L 390.889045 217.074712 
L 391.335668 226.426648 
L 391.558979 237.365475 
L 391.782291 232.103704 
L 392.005603 230.126872 
L 392.228914 232.103704 
L 392.452226 219.841467 
L 392.675538 229.556632 
L 392.898849 217.851963 
L 393.122161 218.992443 
L 393.568784 194.288932 
L 394.015408 190.322596 
L 394.238719 202.668015 
L 394.685343 205.506543 
L 394.908654 204.936303 
L 395.131966 212.174907 
L 395.355278 211.896123 
L 395.578589 210.755643 
L 395.801901 207.929787 
L 396.025213 212.24668 
L 396.471836 207.43132 
L 396.695148 200.554683 
L 396.918459 200.833467 
L 397.141771 197.716155 
L 397.365083 196.296891 
L 397.588394 189.200571 
L 397.811706 192.039099 
L 398.035018 204.022552 
L 398.258329 182.810991 
L 398.481641 191.190075 
L 398.704952 190.619835 
L 398.928264 197.424699 
L 399.151576 199.692987 
L 399.374887 197.145915 
L 399.598199 198.273723 
L 399.821511 192.317883 
L 400.044822 202.252731 
L 400.268134 203.950779 
L 400.491446 203.380539 
L 400.938069 191.884143 
L 401.161381 189.615855 
L 401.384692 197.994939 
L 401.608004 192.888123 
L 401.831316 184.800495 
L 402.054627 196.575675 
L 402.277939 187.347567 
L 402.501251 186.777327 
L 402.724562 197.716155 
L 402.947874 185.358063 
L 403.171186 182.810991 
L 403.394497 171.314596 
L 403.617809 171.314596 
L 403.841121 185.649519 
L 404.064432 175.851172 
L 404.511056 206.634351 
L 404.734367 194.288932 
L 405.18099 208.915311 
L 405.404302 200.536228 
L 405.627614 197.6977 
L 405.850925 199.395748 
L 406.074237 183.154503 
L 406.297549 192.869668 
L 406.52086 181.735239 
L 406.744172 184.003527 
L 406.967484 182.875719 
L 407.190795 184.294983 
L 407.414107 184.573767 
L 407.86073 189.110343 
L 408.084042 183.445959 
L 408.307354 181.456455 
L 408.530665 193.161124 
L 408.753977 182.596935 
L 408.977289 178.617927 
L 409.2006 187.762852 
L 409.423912 177.768903 
L 409.870535 177.198663 
L 410.093847 190.03114 
L 410.317159 190.60138 
L 410.987094 217.281723 
L 411.210405 209.194095 
L 411.433717 191.450404 
L 411.657029 194.567716 
L 411.88034 194.567716 
L 412.103652 196.278436 
L 412.326963 192.240327 
L 412.550275 204.502564 
L 412.773587 194.217159 
L 412.996898 199.615431 
L 413.22021 198.474951 
L 413.443522 208.760356 
L 413.666833 213.867172 
L 414.113457 205.850055 
L 414.336768 222.66154 
L 414.56008 216.984484 
L 414.783392 203.873223 
L 415.006703 217.554724 
L 415.230015 203.873223 
L 415.453327 210.17962 
L 415.676638 209.03914 
L 415.89995 206.492068 
L 416.123262 210.458404 
L 416.346573 217.139439 
L 416.569885 219.116271 
L 416.793197 218.837487 
L 417.016508 222.525039 
L 417.23982 222.803823 
L 417.463132 233.172411 
L 417.686443 225.933807 
L 417.909755 236.010939 
L 418.133067 234.021435 
L 418.356378 243.457816 
L 418.57969 244.015384 
L 418.803002 253.534947 
L 419.249625 243.891555 
L 419.472936 233.522968 
L 419.696248 234.093208 
L 419.91956 233.522968 
L 420.142871 244.461795 
L 420.366183 245.310819 
L 420.589495 235.791256 
L 420.812806 251.836899 
L 421.036118 240.327832 
L 421.25943 247.008867 
L 421.482741 250.126179 
L 421.706053 230.055099 
L 421.929365 241.189528 
L 422.152676 241.189528 
L 422.375988 231.753147 
L 422.5993 231.474363 
L 422.822611 246.296344 
L 423.045923 235.161915 
L 423.269235 243.7366 
L 423.492546 244.015384 
L 423.715858 243.7366 
L 423.93917 240.898072 
L 424.162481 240.619288 
L 424.385793 266.522379 
L 424.609105 268.375383 
L 424.832416 254.889483 
L 425.055728 254.598027 
L 425.27904 243.47627 
L 425.502351 252.899979 
L 425.948974 240.637742 
L 426.395598 251.201931 
L 426.618909 238.369454 
L 426.842221 250.061451 
L 427.065533 225.596078 
L 427.288844 235.590027 
L 427.512156 227.306798 
L 427.735468 227.015342 
L 427.958779 227.657355 
L 428.182091 243.411543 
L 428.405403 219.640238 
L 428.628714 232.472715 
L 428.852026 219.931694 
L 429.075338 220.210478 
L 429.521961 214.669923 
L 429.968584 218.078691 
L 430.638519 211.831395 
L 430.861831 224.747054 
L 431.085143 220.489262 
L 431.308454 204.041006 
L 431.531766 212.615691 
L 431.755078 203.74955 
L 431.978389 213.464715 
L 432.201701 214.605195 
L 432.648324 200.061998 
L 432.871636 210.068619 
L 433.318259 200.412555 
L 433.541571 200.982795 
L 433.764882 200.982795 
L 433.988194 206.938635 
L 434.211506 217.877463 
L 434.434817 215.887959 
L 434.658129 197.79371 
L 434.881441 206.659851 
L 435.104752 182.039523 
L 435.328064 188.441774 
L 435.551376 170.976867 
L 435.774687 171.410606 
L 435.997999 180.204974 
L 436.221311 178.228142 
L 436.444622 175.098158 
L 436.667934 166.440291 
L 436.891246 165.021027 
L 437.114557 176.517422 
L 437.337869 171.980846 
L 437.561181 157.924707 
L 437.784492 155.098851 
L 438.231116 142.895715 
L 438.454427 145.164003 
L 438.677739 151.968867 
L 439.124362 137.633944 
L 439.347674 144.885219 
L 439.570985 144.314979 
L 439.794297 157.509422 
L 440.017609 154.39211 
L 440.24092 138.067683 
L 440.464232 134.950371 
L 440.687544 128.994531 
L 440.910855 137.373614 
L 441.134167 129.564771 
L 441.357479 127.854051 
L 441.804102 136.369635 
L 442.027414 138.067683 
L 442.250725 140.906211 
L 442.697349 156.951854 
L 442.92066 140.057187 
L 443.143972 153.82187 
L 443.367284 158.358446 
L 443.590595 156.381614 
L 443.813907 158.079662 
L 444.037219 149.421795 
L 444.26053 154.96235 
L 444.483842 145.734243 
L 444.707154 152.694062 
L 444.930465 149.421795 
L 445.153777 155.811374 
L 445.377089 144.593763 
L 445.6004 154.528611 
L 445.823712 153.958371 
L 446.047024 154.807395 
L 446.270335 144.885219 
L 446.493647 149.130339 
L 446.716958 145.734243 
L 446.94027 146.013027 
L 447.163582 150.270819 
L 447.386893 139.902232 
L 447.610205 141.612952 
L 447.833517 134.166075 
L 448.056828 144.730264 
L 448.28014 149.83708 
L 448.503452 150.40732 
L 448.726763 142.111419 
L 448.950075 154.094872 
L 449.173387 115.13962 
L 449.396698 127.776495 
L 449.62001 123.518703 
L 449.843322 135.293883 
L 450.066633 115.13962 
L 450.289945 113.150116 
L 450.513257 128.904303 
L 450.736568 119.105956 
L 450.95988 117.978148 
L 451.183192 119.676196 
L 451.406503 100.389412 
L 451.629815 111.885807 
L 451.853127 116.422383 
L 452.076438 118.411887 
L 452.29975 103.79818 
L 452.523062 111.173284 
L 452.746373 108.61354 
L 452.969685 95.210823 
L 453.192996 99.189831 
L 453.416308 98.619591 
L 453.63962 100.609095 
L 453.862931 110.032804 
L 454.086243 109.75402 
L 454.309555 130.323567 
L 454.532866 117.978148 
L 454.756178 119.397412 
L 454.97949 131.464047 
L 455.202801 129.195759 
L 455.649425 121.820655 
L 455.872736 126.065775 
L 456.096048 121.820655 
L 456.31936 121.820655 
L 456.542671 123.239919 
L 456.765983 122.948463 
L 456.989295 122.099439 
L 457.212606 120.680175 
L 457.435918 117.841647 
L 457.65923 118.982127 
L 457.882541 108.334756 
L 458.105853 105.496228 
L 458.329165 116.143599 
L 458.552476 117.562863 
L 458.775788 116.992623 
L 458.9991 108.334756 
L 459.222411 110.032804 
L 459.445723 119.539695 
L 459.669035 120.958959 
L 459.892346 106.624036 
L 460.115658 115.003119 
L 460.338969 102.6577 
L 460.562281 105.496228 
L 460.785593 121.820655 
L 461.008904 111.730852 
L 461.232216 116.558884 
L 461.455528 129.474543 
L 461.678839 133.162095 
L 461.902151 134.860143 
L 462.125463 137.419887 
L 462.348774 125.353252 
L 462.572086 127.0513 
L 462.795398 137.556388 
L 463.018709 132.728356 
L 463.242021 138.405412 
L 463.465333 128.19178 
L 463.688644 112.229319 
L 463.911956 110.822727 
L 464.135268 104.141692 
L 464.358579 124.212772 
L 464.581891 126.130503 
L 464.805203 126.421959 
L 465.028514 135.845668 
L 465.475138 107.829244 
L 465.698449 106.131196 
L 465.921761 108.399484 
L 466.145073 111.950535 
L 466.368384 108.541767 
L 466.591696 101.303164 
L 466.815008 113.369799 
L 467.038319 110.531271 
L 467.484942 97.336828 
L 467.708254 108.833223 
L 467.931566 109.403463 
L 468.154877 112.520775 
L 468.378189 109.112007 
L 468.601501 111.101511 
L 468.824812 118.548388 
L 469.048124 108.833223 
L 469.271436 110.252487 
L 469.718059 105.715911 
L 469.941371 116.2801 
L 470.164682 106.564935 
L 470.387994 108.833223 
L 470.834617 102.028359 
L 471.057929 102.028359 
L 471.281241 102.877383 
L 471.504552 99.747399 
L 471.727864 146.647995 
L 471.951176 142.111419 
L 472.174487 129.753327 
L 472.397799 130.893807 
L 472.621111 129.474543 
L 472.844422 130.615023 
L 473.067734 139.843131 
L 473.291046 130.615023 
L 473.514357 142.111419 
L 473.737669 140.400699 
L 473.96098 139.551675 
L 474.184292 130.323567 
L 474.407604 128.904303 
L 474.630915 140.121915 
L 475.077539 135.864123 
L 475.30085 145.009048 
L 475.524162 144.730264 
L 475.747474 134.516632 
L 475.970785 134.516632 
L 476.194097 132.818584 
L 476.417409 122.254395 
L 476.64072 125.941947 
L 476.864032 112.164591 
L 477.087344 121.113915 
L 477.310655 124.231227 
L 477.533967 116.422383 
L 477.757279 127.918779 
L 477.98059 116.992623 
L 478.203902 130.478523 
L 478.427214 120.680175 
L 478.650525 118.690671 
L 478.873837 112.456047 
L 479.097149 127.639995 
L 479.32046 120.264891 
L 479.543772 121.113915 
L 479.767084 120.264891 
L 480.213707 103.661679 
L 480.437019 114.017595 
L 480.66033 116.856123 
L 480.883642 104.510703 
L 481.106953 107.349231 
L 481.330265 96.410404 
L 481.553577 97.2721 
L 481.776888 106.778991 
L 482.0002 95.852836 
L 482.223512 111.885807 
L 482.446823 112.164591 
L 482.670135 113.305071 
L 482.893447 110.466543 
L 483.116758 113.583855 
L 483.34007 112.164591 
L 483.563382 109.047279 
L 483.786693 103.940463 
L 484.010005 90.454564 
L 484.456628 86.196772 
L 484.903252 94.575855 
L 485.349875 68.192751 
L 485.573187 67.913967 
L 485.796498 74.148591 
L 486.01981 69.612015 
L 486.243122 79.255407 
L 486.689745 82.664175 
L 486.913057 75.995812 
L 487.136368 64.362916 
L 487.35968 86.351727 
L 487.582991 66.631204 
L 488.029615 86.351727 
L 488.252926 83.513199 
L 488.476238 70.0273 
L 488.69955 87.200751 
L 488.922861 86.643183 
L 489.146173 99.837627 
L 489.369485 102.676155 
L 489.816108 92.877807 
L 490.03942 93.156591 
L 490.262731 91.458543 
L 490.486043 91.749999 
L 490.932666 109.261336 
L 491.37929 117.20668 
L 491.602601 105.793467 
L 491.825913 108.982552 
L 492.049225 116.512611 
L 492.272536 115.663587 
L 492.495848 119.351139 
L 492.942471 110.401816 
L 493.165783 108.982552 
L 493.389095 110.401816 
L 493.612406 114.368152 
L 493.835718 94.730811 
L 494.05903 99.558843 
L 494.505653 118.9174 
L 494.728964 114.587835 
L 494.952276 118.845627 
L 495.175588 127.990552 
L 495.398899 121.392699 
L 495.622211 123.673659 
L 495.845523 116.856123 
L 496.068834 127.990552 
L 496.292146 130.25884 
L 496.515458 144.885219 
L 496.738769 134.380131 
L 496.962081 131.678104 
L 497.185393 126.001048 
L 497.408704 123.16252 
L 497.855328 134.101347 
L 498.078639 124.024216 
L 498.301951 138.067683 
L 498.525263 142.48043 
L 498.748574 154.742667 
L 498.971886 142.48043 
L 499.195198 153.614859 
L 499.418509 150.776331 
L 499.641821 155.021451 
L 499.865133 153.614859 
L 500.088444 156.440715 
L 500.311756 147.29579 
L 500.535068 147.29579 
L 500.758379 147.587246 
L 500.981691 157.859979 
L 501.205003 147.587246 
L 501.428314 146.446766 
L 501.651626 151.333899 
L 501.874937 151.055115 
L 502.098249 155.021451 
L 502.321561 161.423703 
L 502.544872 160.004439 
L 502.768184 160.004439 
L 502.991496 161.423703 
L 503.214807 146.518539 
L 503.438119 150.776331 
L 503.661431 151.625355 
L 503.884742 150.484875 
L 504.108054 147.088779 
L 504.331366 151.904139 
L 504.554677 161.423703 
L 504.777989 151.904139 
L 505.224612 146.227083 
L 505.447924 149.357067 
L 505.671236 147.088779 
L 505.894547 146.518539 
L 506.117859 156.316887 
L 506.341171 145.948299 
L 506.564482 142.830987 
L 506.787794 144.250251 
L 507.011106 135.662894 
L 507.234417 137.432715 
L 507.457729 133.115822 
L 507.681041 135.38411 
L 507.904352 134.81387 
L 508.127664 126.156003 
L 508.574287 147.088779 
L 508.797599 149.357067 
L 509.02091 138.501422 
L 509.244222 136.803374 
L 509.467534 137.082158 
L 509.690845 135.662894 
L 509.914157 144.820491 
L 510.137469 133.394606 
L 510.36078 133.686062 
L 510.584092 135.38411 
L 510.807404 144.250251 
L 511.030715 143.958795 
L 511.254027 142.539531 
L 511.477339 146.227083 
L 511.70065 146.227083 
L 512.147274 167.521826 
L 512.370585 167.521826 
L 512.593897 167.243042 
L 512.817209 177.807231 
L 513.04052 158.293719 
L 513.263832 156.595671 
L 513.487144 156.316887 
L 513.710455 155.176407 
L 514.157079 156.595671 
L 514.38039 165.544994 
L 514.603702 165.544994 
L 514.827014 165.253538 
L 515.050325 175.817727 
L 515.273637 164.974754 
L 515.496948 166.394018 
L 515.72026 176.679423 
L 515.943572 178.656255 
L 516.166883 168.94109 
L 516.390195 178.377471 
L 516.613507 166.394018 
L 516.836818 166.964258 
L 517.06013 165.823778 
L 517.283442 176.679423 
L 517.506753 176.679423 
L 517.730065 176.958207 
L 517.953377 187.605578 
L 518.176688 187.326794 
L 518.4 187.605578 
L 518.4 187.605578 
" style="fill:none;stroke:#4c72b0;stroke-linecap:round;stroke-width:1.75;"/>
   </g>
   <g id="patch_3">
    <path d="M 72 356.4 
L 518.4 356.4 
" style="fill:none;"/>
   </g>
   <g id="patch_4">
    <path d="M 72 39.6 
L 518.4 39.6 
" style="fill:none;"/>
   </g>
   <g id="patch_5">
    <path d="M 72 356.4 
L 72 39.6 
" style="fill:none;"/>
   </g>
   <g id="patch_6">
    <path d="M 518.4 356.4 
L 518.4 39.6 
" style="fill:none;"/>
   </g>
   <g id="text_12">
    <!-- IF - 6.564282604058704 * FG -->
    <defs>
     <path d="M 9.125 0 
L 9.125 10.6875 
L 18.65625 10.6875 
L 18.65625 0 
z
" id="LiberationSans-2e"/>
     <path d="M 5.03125 34.71875 
Q 5.03125 42.78125 7.203125 49.265625 
Q 9.375 55.765625 13.6875 60.328125 
Q 18.015625 64.890625 24.40625 67.359375 
Q 30.8125 69.828125 39.265625 69.828125 
Q 45.609375 69.828125 50.390625 68.703125 
Q 55.171875 67.578125 58.6875 65.46875 
Q 62.203125 63.375 64.640625 60.375 
Q 67.09375 57.375 68.796875 53.609375 
L 59.90625 50.984375 
Q 58.640625 53.515625 56.859375 55.59375 
Q 55.078125 57.671875 52.53125 59.125 
Q 50 60.59375 46.65625 61.390625 
Q 43.3125 62.203125 39.015625 62.203125 
Q 32.765625 62.203125 28.140625 60.25 
Q 23.53125 58.296875 20.5 54.6875 
Q 17.484375 51.078125 15.984375 46 
Q 14.5 40.921875 14.5 34.71875 
Q 14.5 28.515625 16.109375 23.359375 
Q 17.71875 18.21875 20.890625 14.484375 
Q 24.078125 10.75 28.78125 8.671875 
Q 33.5 6.59375 39.703125 6.59375 
Q 43.75 6.59375 47.171875 7.265625 
Q 50.59375 7.953125 53.34375 9.046875 
Q 56.109375 10.15625 58.203125 11.5 
Q 60.296875 12.84375 61.71875 14.203125 
L 61.71875 26.609375 
L 41.15625 26.609375 
L 41.15625 34.421875 
L 70.3125 34.421875 
L 70.3125 10.6875 
Q 68.015625 8.34375 64.90625 6.21875 
Q 61.8125 4.109375 57.953125 2.484375 
Q 54.109375 0.875 49.515625 -0.046875 
Q 44.921875 -0.984375 39.703125 -0.984375 
Q 31 -0.984375 24.5 1.671875 
Q 18.015625 4.34375 13.6875 9.109375 
Q 9.375 13.875 7.203125 20.40625 
Q 5.03125 26.953125 5.03125 34.71875 
" id="LiberationSans-47"/>
     <path d="M 9.234375 0 
L 9.234375 68.796875 
L 18.5625 68.796875 
L 18.5625 0 
z
" id="LiberationSans-49"/>
     <path d="M 17.53125 61.1875 
L 17.53125 35.59375 
L 55.90625 35.59375 
L 55.90625 27.875 
L 17.53125 27.875 
L 17.53125 0 
L 8.203125 0 
L 8.203125 68.796875 
L 57.078125 68.796875 
L 57.078125 61.1875 
z
" id="LiberationSans-46"/>
     <path d="M 22.265625 54.390625 
L 35.15625 59.421875 
L 37.359375 52.984375 
L 23.578125 49.421875 
L 32.625 37.203125 
L 26.8125 33.6875 
L 19.484375 46.296875 
L 11.859375 33.796875 
L 6.0625 37.3125 
L 15.28125 49.421875 
L 1.609375 52.984375 
L 3.8125 59.515625 
L 16.84375 54.296875 
L 16.265625 68.796875 
L 22.90625 68.796875 
z
" id="LiberationSans-2a"/>
    </defs>
    <g style="fill:#262626;" transform="translate(215.484375 34.6)scale(0.12 -0.12)">
     <use xlink:href="#LiberationSans-49"/>
     <use x="27.783203125" xlink:href="#LiberationSans-46"/>
     <use x="88.8671875" xlink:href="#LiberationSans-20"/>
     <use x="116.650390625" xlink:href="#LiberationSans-2d"/>
     <use x="149.951171875" xlink:href="#LiberationSans-20"/>
     <use x="177.734375" xlink:href="#LiberationSans-36"/>
     <use x="233.349609375" xlink:href="#LiberationSans-2e"/>
     <use x="261.1328125" xlink:href="#LiberationSans-35"/>
     <use x="316.748046875" xlink:href="#LiberationSans-36"/>
     <use x="372.36328125" xlink:href="#LiberationSans-34"/>
     <use x="427.978515625" xlink:href="#LiberationSans-32"/>
     <use x="483.59375" xlink:href="#LiberationSans-38"/>
     <use x="539.208984375" xlink:href="#LiberationSans-32"/>
     <use x="594.82421875" xlink:href="#LiberationSans-36"/>
     <use x="650.439453125" xlink:href="#LiberationSans-30"/>
     <use x="706.0546875" xlink:href="#LiberationSans-34"/>
     <use x="761.669921875" xlink:href="#LiberationSans-30"/>
     <use x="817.28515625" xlink:href="#LiberationSans-35"/>
     <use x="872.900390625" xlink:href="#LiberationSans-38"/>
     <use x="928.515625" xlink:href="#LiberationSans-37"/>
     <use x="984.130859375" xlink:href="#LiberationSans-30"/>
     <use x="1039.74609375" xlink:href="#LiberationSans-34"/>
     <use x="1095.361328125" xlink:href="#LiberationSans-20"/>
     <use x="1123.14453125" xlink:href="#LiberationSans-2a"/>
     <use x="1162.060546875" xlink:href="#LiberationSans-20"/>
     <use x="1189.84375" xlink:href="#LiberationSans-46"/>
     <use x="1250.927734375" xlink:href="#LiberationSans-47"/>
    </g>
   </g>
  </g>
 </g>
 <defs>
  <clipPath id="p44b059ea20">
   <rect height="316.8" width="446.4" x="72.0" y="39.6"/>
  </clipPath>
 </defs>
</svg>
