<?xml version="1.0" encoding="utf-8" standalone="no"?>
<!DOCTYPE svg PUBLIC "-//W3C//DTD SVG 1.1//EN"
  "http://www.w3.org/Graphics/SVG/1.1/DTD/svg11.dtd">
<!-- Created with matplotlib (http://matplotlib.org/) -->
<svg height="396pt" version="1.1" viewBox="0 0 576 396" width="576pt" xmlns="http://www.w3.org/2000/svg" xmlns:xlink="http://www.w3.org/1999/xlink">
 <defs>
  <style type="text/css">
*{stroke-linecap:butt;stroke-linejoin:round;stroke-miterlimit:100000;}
  </style>
 </defs>
 <g id="figure_1">
  <g id="patch_1">
   <path d="M 0 396 
L 576 396 
L 576 0 
L 0 0 
z
" style="fill:#ffffff;"/>
  </g>
  <g id="axes_1">
   <g id="patch_2">
    <path d="M 72 356.4 
L 518.4 356.4 
L 518.4 39.6 
L 72 39.6 
z
" style="fill:#eaeaf2;"/>
   </g>
   <g id="matplotlib.axis_1">
    <g id="xtick_1">
     <g id="line2d_1">
      <path clip-path="url(#pea44e757af)" d="M 72 356.4 
L 72 39.6 
" style="fill:none;stroke:#ffffff;stroke-linecap:round;"/>
     </g>
     <g id="line2d_2"/>
     <g id="line2d_3"/>
     <g id="text_1">
      <!-- 2015-11-16 10:13:00 -->
      <defs>
       <path d="M 5.03125 0 
L 5.03125 6.203125 
Q 7.515625 11.921875 11.109375 16.28125 
Q 14.703125 20.65625 18.65625 24.1875 
Q 22.609375 27.734375 26.484375 30.765625 
Q 30.375 33.796875 33.5 36.8125 
Q 36.625 39.84375 38.546875 43.15625 
Q 40.484375 46.484375 40.484375 50.6875 
Q 40.484375 53.609375 39.59375 55.828125 
Q 38.71875 58.0625 37.0625 59.5625 
Q 35.40625 61.078125 33.078125 61.828125 
Q 30.765625 62.59375 27.9375 62.59375 
Q 25.296875 62.59375 22.96875 61.859375 
Q 20.65625 61.140625 18.84375 59.671875 
Q 17.046875 58.203125 15.890625 56.03125 
Q 14.75 53.859375 14.40625 50.984375 
L 5.421875 51.8125 
Q 5.859375 55.515625 7.46875 58.78125 
Q 9.078125 62.0625 11.90625 64.53125 
Q 14.75 67 18.71875 68.40625 
Q 22.703125 69.828125 27.9375 69.828125 
Q 33.0625 69.828125 37.0625 68.609375 
Q 41.0625 67.390625 43.8125 64.984375 
Q 46.578125 62.59375 48.046875 59.078125 
Q 49.515625 55.5625 49.515625 50.984375 
Q 49.515625 47.515625 48.265625 44.390625 
Q 47.015625 41.265625 44.9375 38.421875 
Q 42.875 35.59375 40.140625 32.953125 
Q 37.40625 30.328125 34.421875 27.8125 
Q 31.453125 25.296875 28.421875 22.828125 
Q 25.390625 20.359375 22.71875 17.859375 
Q 20.0625 15.375 17.96875 12.8125 
Q 15.875 10.25 14.703125 7.46875 
L 50.59375 7.46875 
L 50.59375 0 
z
" id="LiberationSans-32"/>
       <path d="M 7.625 0 
L 7.625 7.46875 
L 25.140625 7.46875 
L 25.140625 60.40625 
L 9.625 49.3125 
L 9.625 57.625 
L 25.875 68.796875 
L 33.984375 68.796875 
L 33.984375 7.46875 
L 50.734375 7.46875 
L 50.734375 0 
z
" id="LiberationSans-31"/>
       <path d="M 51.703125 34.421875 
Q 51.703125 24.515625 49.828125 17.75 
Q 47.953125 10.984375 44.703125 6.8125 
Q 41.453125 2.640625 37.0625 0.828125 
Q 32.671875 -0.984375 27.6875 -0.984375 
Q 22.65625 -0.984375 18.3125 0.828125 
Q 13.96875 2.640625 10.765625 6.78125 
Q 7.5625 10.9375 5.734375 17.703125 
Q 3.90625 24.46875 3.90625 34.421875 
Q 3.90625 44.828125 5.734375 51.640625 
Q 7.5625 58.453125 10.78125 62.5 
Q 14.015625 66.546875 18.40625 68.1875 
Q 22.796875 69.828125 27.984375 69.828125 
Q 32.90625 69.828125 37.21875 68.1875 
Q 41.546875 66.546875 44.765625 62.5 
Q 48 58.453125 49.84375 51.640625 
Q 51.703125 44.828125 51.703125 34.421875 
M 42.78125 34.421875 
Q 42.78125 42.625 41.796875 48.0625 
Q 40.828125 53.515625 38.921875 56.765625 
Q 37.015625 60.015625 34.25 61.359375 
Q 31.5 62.703125 27.984375 62.703125 
Q 24.265625 62.703125 21.4375 61.328125 
Q 18.609375 59.96875 16.671875 56.71875 
Q 14.75 53.46875 13.765625 48.015625 
Q 12.796875 42.578125 12.796875 34.421875 
Q 12.796875 26.515625 13.796875 21.09375 
Q 14.796875 15.671875 16.71875 12.375 
Q 18.65625 9.078125 21.4375 7.640625 
Q 24.21875 6.203125 27.78125 6.203125 
Q 31.25 6.203125 34.03125 7.640625 
Q 36.8125 9.078125 38.734375 12.375 
Q 40.671875 15.671875 41.71875 21.09375 
Q 42.78125 26.515625 42.78125 34.421875 
" id="LiberationSans-30"/>
       <path d="M 9.125 42.71875 
L 9.125 52.828125 
L 18.65625 52.828125 
L 18.65625 42.71875 
z
M 9.125 0 
L 9.125 10.109375 
L 18.65625 10.109375 
L 18.65625 0 
z
" id="LiberationSans-3a"/>
       <path d="M 51.21875 19 
Q 51.21875 14.265625 49.671875 10.546875 
Q 48.140625 6.84375 45.1875 4.265625 
Q 42.234375 1.703125 37.859375 0.359375 
Q 33.5 -0.984375 27.875 -0.984375 
Q 21.484375 -0.984375 17.109375 0.609375 
Q 12.75 2.203125 9.90625 4.8125 
Q 7.078125 7.421875 5.65625 10.765625 
Q 4.25 14.109375 3.8125 17.671875 
L 12.890625 18.5 
Q 13.28125 15.765625 14.328125 13.515625 
Q 15.375 11.28125 17.1875 9.671875 
Q 19 8.0625 21.625 7.171875 
Q 24.265625 6.296875 27.875 6.296875 
Q 34.515625 6.296875 38.296875 9.5625 
Q 42.09375 12.84375 42.09375 19.28125 
Q 42.09375 23.09375 40.40625 25.40625 
Q 38.71875 27.734375 36.203125 29.03125 
Q 33.6875 30.328125 30.734375 30.765625 
Q 27.78125 31.203125 25.296875 31.203125 
L 20.3125 31.203125 
L 20.3125 38.8125 
L 25.09375 38.8125 
Q 27.59375 38.8125 30.265625 39.328125 
Q 32.953125 39.84375 35.171875 41.1875 
Q 37.40625 42.53125 38.84375 44.828125 
Q 40.28125 47.125 40.28125 50.6875 
Q 40.28125 56.203125 37.03125 59.390625 
Q 33.796875 62.59375 27.390625 62.59375 
Q 21.578125 62.59375 17.984375 59.609375 
Q 14.40625 56.640625 13.8125 51.21875 
L 4.984375 51.90625 
Q 5.515625 56.453125 7.46875 59.8125 
Q 9.421875 63.1875 12.421875 65.40625 
Q 15.4375 67.625 19.28125 68.71875 
Q 23.140625 69.828125 27.484375 69.828125 
Q 33.25 69.828125 37.390625 68.375 
Q 41.546875 66.9375 44.1875 64.46875 
Q 46.828125 62.015625 48.0625 58.6875 
Q 49.3125 55.375 49.3125 51.609375 
Q 49.3125 48.578125 48.484375 45.9375 
Q 47.65625 43.3125 45.890625 41.203125 
Q 44.140625 39.109375 41.421875 37.59375 
Q 38.71875 36.078125 34.90625 35.296875 
L 34.90625 35.109375 
Q 39.0625 34.671875 42.140625 33.21875 
Q 45.21875 31.78125 47.21875 29.625 
Q 49.21875 27.484375 50.21875 24.75 
Q 51.21875 22.015625 51.21875 19 
" id="LiberationSans-33"/>
       <path d="M 51.421875 22.40625 
Q 51.421875 17.234375 49.859375 12.9375 
Q 48.296875 8.640625 45.21875 5.53125 
Q 42.140625 2.4375 37.578125 0.71875 
Q 33.015625 -0.984375 27 -0.984375 
Q 21.578125 -0.984375 17.546875 0.28125 
Q 13.53125 1.5625 10.734375 3.78125 
Q 7.953125 6 6.3125 8.984375 
Q 4.6875 11.96875 4 15.375 
L 12.890625 16.40625 
Q 13.421875 14.453125 14.390625 12.625 
Q 15.375 10.796875 17.0625 9.34375 
Q 18.75 7.90625 21.21875 7.046875 
Q 23.6875 6.203125 27.203125 6.203125 
Q 30.609375 6.203125 33.390625 7.25 
Q 36.1875 8.296875 38.15625 10.34375 
Q 40.140625 12.40625 41.203125 15.375 
Q 42.28125 18.359375 42.28125 22.21875 
Q 42.28125 25.390625 41.25 28.046875 
Q 40.234375 30.71875 38.328125 32.640625 
Q 36.421875 34.578125 33.65625 35.640625 
Q 30.90625 36.71875 27.390625 36.71875 
Q 25.203125 36.71875 23.34375 36.328125 
Q 21.484375 35.9375 19.890625 35.25 
Q 18.3125 34.578125 17.015625 33.671875 
Q 15.71875 32.765625 14.59375 31.78125 
L 6 31.78125 
L 8.296875 68.796875 
L 47.40625 68.796875 
L 47.40625 61.328125 
L 16.3125 61.328125 
L 14.984375 39.5 
Q 17.328125 41.3125 20.84375 42.59375 
Q 24.359375 43.890625 29.203125 43.890625 
Q 34.328125 43.890625 38.421875 42.328125 
Q 42.53125 40.765625 45.40625 37.90625 
Q 48.296875 35.0625 49.859375 31.109375 
Q 51.421875 27.15625 51.421875 22.40625 
" id="LiberationSans-35"/>
       <path id="LiberationSans-20"/>
       <path d="M 4.4375 22.65625 
L 4.4375 30.46875 
L 28.859375 30.46875 
L 28.859375 22.65625 
z
" id="LiberationSans-2d"/>
       <path d="M 51.21875 22.515625 
Q 51.21875 17.328125 49.78125 13 
Q 48.34375 8.6875 45.53125 5.578125 
Q 42.71875 2.484375 38.5625 0.75 
Q 34.421875 -0.984375 29 -0.984375 
Q 23 -0.984375 18.5 1.3125 
Q 14.015625 3.609375 11.03125 7.921875 
Q 8.0625 12.25 6.5625 18.53125 
Q 5.078125 24.8125 5.078125 32.8125 
Q 5.078125 42 6.765625 48.921875 
Q 8.453125 55.859375 11.625 60.5 
Q 14.796875 65.140625 19.359375 67.484375 
Q 23.921875 69.828125 29.6875 69.828125 
Q 33.203125 69.828125 36.28125 69.09375 
Q 39.359375 68.359375 41.875 66.71875 
Q 44.390625 65.09375 46.28125 62.40625 
Q 48.1875 59.71875 49.3125 55.8125 
L 40.921875 54.296875 
Q 39.546875 58.734375 36.546875 60.71875 
Q 33.546875 62.703125 29.59375 62.703125 
Q 25.984375 62.703125 23.046875 60.984375 
Q 20.125 59.28125 18.0625 55.875 
Q 16.015625 52.484375 14.90625 47.359375 
Q 13.8125 42.234375 13.8125 35.40625 
Q 16.21875 39.84375 20.5625 42.15625 
Q 24.90625 44.484375 30.515625 44.484375 
Q 35.203125 44.484375 39.015625 42.96875 
Q 42.828125 41.453125 45.53125 38.59375 
Q 48.25 35.75 49.734375 31.671875 
Q 51.21875 27.59375 51.21875 22.515625 
M 42.28125 22.125 
Q 42.28125 25.6875 41.40625 28.5625 
Q 40.53125 31.453125 38.765625 33.46875 
Q 37.015625 35.5 34.421875 36.59375 
Q 31.84375 37.703125 28.421875 37.703125 
Q 26.03125 37.703125 23.578125 36.984375 
Q 21.140625 36.28125 19.15625 34.6875 
Q 17.1875 33.109375 15.9375 30.515625 
Q 14.703125 27.9375 14.703125 24.21875 
Q 14.703125 20.40625 15.671875 17.109375 
Q 16.65625 13.8125 18.484375 11.375 
Q 20.3125 8.9375 22.890625 7.515625 
Q 25.484375 6.109375 28.71875 6.109375 
Q 31.890625 6.109375 34.40625 7.203125 
Q 36.921875 8.296875 38.671875 10.375 
Q 40.4375 12.453125 41.359375 15.421875 
Q 42.28125 18.40625 42.28125 22.125 
" id="LiberationSans-36"/>
      </defs>
      <g style="fill:#262626;" transform="translate(25.5765625 370.646875)scale(0.1 -0.1)">
       <use xlink:href="#LiberationSans-32"/>
       <use x="55.615234375" xlink:href="#LiberationSans-30"/>
       <use x="111.23046875" xlink:href="#LiberationSans-31"/>
       <use x="166.845703125" xlink:href="#LiberationSans-35"/>
       <use x="222.4609375" xlink:href="#LiberationSans-2d"/>
       <use x="255.76171875" xlink:href="#LiberationSans-31"/>
       <use x="311.376953125" xlink:href="#LiberationSans-31"/>
       <use x="366.9921875" xlink:href="#LiberationSans-2d"/>
       <use x="400.29296875" xlink:href="#LiberationSans-31"/>
       <use x="455.908203125" xlink:href="#LiberationSans-36"/>
       <use x="511.5234375" xlink:href="#LiberationSans-20"/>
       <use x="539.306640625" xlink:href="#LiberationSans-31"/>
       <use x="594.921875" xlink:href="#LiberationSans-30"/>
       <use x="650.537109375" xlink:href="#LiberationSans-3a"/>
       <use x="678.3203125" xlink:href="#LiberationSans-31"/>
       <use x="733.935546875" xlink:href="#LiberationSans-33"/>
       <use x="789.55078125" xlink:href="#LiberationSans-3a"/>
       <use x="817.333984375" xlink:href="#LiberationSans-30"/>
       <use x="872.94921875" xlink:href="#LiberationSans-30"/>
      </g>
     </g>
    </g>
    <g id="xtick_2">
     <g id="line2d_4">
      <path clip-path="url(#pea44e757af)" d="M 183.655828 356.4 
L 183.655828 39.6 
" style="fill:none;stroke:#ffffff;stroke-linecap:round;"/>
     </g>
     <g id="line2d_5"/>
     <g id="line2d_6"/>
     <g id="text_2">
      <!-- 2015-11-18 13:52:00 -->
      <defs>
       <path d="M 51.265625 19.1875 
Q 51.265625 14.796875 49.875 11.109375 
Q 48.484375 7.421875 45.625 4.734375 
Q 42.78125 2.046875 38.328125 0.53125 
Q 33.890625 -0.984375 27.828125 -0.984375 
Q 21.78125 -0.984375 17.359375 0.53125 
Q 12.9375 2.046875 10.03125 4.703125 
Q 7.125 7.375 5.734375 11.0625 
Q 4.34375 14.75 4.34375 19.09375 
Q 4.34375 22.859375 5.484375 25.78125 
Q 6.640625 28.71875 8.5625 30.828125 
Q 10.5 32.953125 12.96875 34.25 
Q 15.4375 35.546875 18.0625 35.984375 
L 18.0625 36.1875 
Q 15.1875 36.859375 12.90625 38.375 
Q 10.640625 39.890625 9.09375 42.015625 
Q 7.5625 44.140625 6.75 46.71875 
Q 5.953125 49.3125 5.953125 52.203125 
Q 5.953125 55.8125 7.34375 59 
Q 8.734375 62.203125 11.46875 64.625 
Q 14.203125 67.046875 18.25 68.4375 
Q 22.3125 69.828125 27.640625 69.828125 
Q 33.25 69.828125 37.375 68.40625 
Q 41.5 67 44.203125 64.578125 
Q 46.921875 62.15625 48.234375 58.9375 
Q 49.5625 55.71875 49.5625 52.09375 
Q 49.5625 49.265625 48.75 46.671875 
Q 47.953125 44.09375 46.40625 41.96875 
Q 44.875 39.84375 42.59375 38.34375 
Q 40.328125 36.859375 37.359375 36.28125 
L 37.359375 36.078125 
Q 40.328125 35.59375 42.859375 34.296875 
Q 45.40625 33.015625 47.265625 30.890625 
Q 49.125 28.765625 50.1875 25.828125 
Q 51.265625 22.90625 51.265625 19.1875 
M 40.4375 51.609375 
Q 40.4375 54.203125 39.765625 56.34375 
Q 39.109375 58.5 37.59375 60.03125 
Q 36.078125 61.578125 33.640625 62.421875 
Q 31.203125 63.28125 27.640625 63.28125 
Q 24.171875 63.28125 21.78125 62.421875 
Q 19.390625 61.578125 17.84375 60.03125 
Q 16.3125 58.5 15.625 56.34375 
Q 14.9375 54.203125 14.9375 51.609375 
Q 14.9375 49.5625 15.46875 47.40625 
Q 16.015625 45.265625 17.421875 43.5 
Q 18.84375 41.75 21.328125 40.625 
Q 23.828125 39.5 27.734375 39.5 
Q 31.890625 39.5 34.40625 40.625 
Q 36.921875 41.75 38.25 43.5 
Q 39.59375 45.265625 40.015625 47.40625 
Q 40.4375 49.5625 40.4375 51.609375 
M 42.140625 20.015625 
Q 42.140625 22.515625 41.453125 24.828125 
Q 40.765625 27.15625 39.109375 28.9375 
Q 37.453125 30.71875 34.640625 31.8125 
Q 31.84375 32.90625 27.640625 32.90625 
Q 23.78125 32.90625 21.0625 31.8125 
Q 18.359375 30.71875 16.671875 28.90625 
Q 14.984375 27.09375 14.203125 24.71875 
Q 13.421875 22.359375 13.421875 19.828125 
Q 13.421875 16.65625 14.203125 14.03125 
Q 14.984375 11.421875 16.6875 9.546875 
Q 18.40625 7.671875 21.1875 6.640625 
Q 23.96875 5.609375 27.9375 5.609375 
Q 31.9375 5.609375 34.671875 6.640625 
Q 37.40625 7.671875 39.0625 9.546875 
Q 40.71875 11.421875 41.421875 14.078125 
Q 42.140625 16.75 42.140625 20.015625 
" id="LiberationSans-38"/>
      </defs>
      <g style="fill:#262626;" transform="translate(137.232390414 370.646875)scale(0.1 -0.1)">
       <use xlink:href="#LiberationSans-32"/>
       <use x="55.615234375" xlink:href="#LiberationSans-30"/>
       <use x="111.23046875" xlink:href="#LiberationSans-31"/>
       <use x="166.845703125" xlink:href="#LiberationSans-35"/>
       <use x="222.4609375" xlink:href="#LiberationSans-2d"/>
       <use x="255.76171875" xlink:href="#LiberationSans-31"/>
       <use x="311.376953125" xlink:href="#LiberationSans-31"/>
       <use x="366.9921875" xlink:href="#LiberationSans-2d"/>
       <use x="400.29296875" xlink:href="#LiberationSans-31"/>
       <use x="455.908203125" xlink:href="#LiberationSans-38"/>
       <use x="511.5234375" xlink:href="#LiberationSans-20"/>
       <use x="539.306640625" xlink:href="#LiberationSans-31"/>
       <use x="594.921875" xlink:href="#LiberationSans-33"/>
       <use x="650.537109375" xlink:href="#LiberationSans-3a"/>
       <use x="678.3203125" xlink:href="#LiberationSans-35"/>
       <use x="733.935546875" xlink:href="#LiberationSans-32"/>
       <use x="789.55078125" xlink:href="#LiberationSans-3a"/>
       <use x="817.333984375" xlink:href="#LiberationSans-30"/>
       <use x="872.94921875" xlink:href="#LiberationSans-30"/>
      </g>
     </g>
    </g>
    <g id="xtick_3">
     <g id="line2d_7">
      <path clip-path="url(#pea44e757af)" d="M 295.311656 356.4 
L 295.311656 39.6 
" style="fill:none;stroke:#ffffff;stroke-linecap:round;"/>
     </g>
     <g id="line2d_8"/>
     <g id="line2d_9"/>
     <g id="text_3">
      <!-- 2015-11-23 09:25:00 -->
      <defs>
       <path d="M 50.875 35.796875 
Q 50.875 26.609375 49.140625 19.703125 
Q 47.40625 12.796875 44.1875 8.203125 
Q 40.96875 3.609375 36.34375 1.3125 
Q 31.734375 -0.984375 25.984375 -0.984375 
Q 22.015625 -0.984375 18.84375 -0.171875 
Q 15.671875 0.640625 13.171875 2.34375 
Q 10.6875 4.046875 8.921875 6.78125 
Q 7.171875 9.515625 6.109375 13.375 
L 14.5 14.703125 
Q 15.875 10.25 18.78125 8.171875 
Q 21.6875 6.109375 26.125 6.109375 
Q 29.6875 6.109375 32.640625 7.78125 
Q 35.59375 9.46875 37.671875 12.84375 
Q 39.75 16.21875 40.921875 21.296875 
Q 42.09375 26.375 42.1875 33.203125 
Q 41.15625 30.90625 39.375 29.09375 
Q 37.59375 27.296875 35.328125 26.046875 
Q 33.0625 24.8125 30.421875 24.140625 
Q 27.78125 23.484375 25.09375 23.484375 
Q 20.40625 23.484375 16.625 25.171875 
Q 12.84375 26.859375 10.203125 29.875 
Q 7.5625 32.90625 6.125 37.171875 
Q 4.6875 41.453125 4.6875 46.6875 
Q 4.6875 52 6.21875 56.296875 
Q 7.765625 60.59375 10.6875 63.59375 
Q 13.625 66.609375 17.890625 68.21875 
Q 22.171875 69.828125 27.59375 69.828125 
Q 39.0625 69.828125 44.96875 61.328125 
Q 50.875 52.828125 50.875 35.796875 
M 41.3125 44.28125 
Q 41.3125 48.09375 40.40625 51.453125 
Q 39.5 54.828125 37.71875 57.3125 
Q 35.9375 59.8125 33.328125 61.25 
Q 30.71875 62.703125 27.296875 62.703125 
Q 24.125 62.703125 21.578125 61.578125 
Q 19.046875 60.453125 17.28125 58.375 
Q 15.53125 56.296875 14.578125 53.3125 
Q 13.625 50.34375 13.625 46.6875 
Q 13.625 43.21875 14.46875 40.234375 
Q 15.328125 37.25 17.03125 35.078125 
Q 18.75 32.90625 21.28125 31.65625 
Q 23.828125 30.421875 27.203125 30.421875 
Q 29.640625 30.421875 32.15625 31.25 
Q 34.671875 32.078125 36.6875 33.78125 
Q 38.71875 35.5 40.015625 38.109375 
Q 41.3125 40.71875 41.3125 44.28125 
" id="LiberationSans-39"/>
      </defs>
      <g style="fill:#262626;" transform="translate(248.888218328 370.646875)scale(0.1 -0.1)">
       <use xlink:href="#LiberationSans-32"/>
       <use x="55.615234375" xlink:href="#LiberationSans-30"/>
       <use x="111.23046875" xlink:href="#LiberationSans-31"/>
       <use x="166.845703125" xlink:href="#LiberationSans-35"/>
       <use x="222.4609375" xlink:href="#LiberationSans-2d"/>
       <use x="255.76171875" xlink:href="#LiberationSans-31"/>
       <use x="311.376953125" xlink:href="#LiberationSans-31"/>
       <use x="366.9921875" xlink:href="#LiberationSans-2d"/>
       <use x="400.29296875" xlink:href="#LiberationSans-32"/>
       <use x="455.908203125" xlink:href="#LiberationSans-33"/>
       <use x="511.5234375" xlink:href="#LiberationSans-20"/>
       <use x="539.306640625" xlink:href="#LiberationSans-30"/>
       <use x="594.921875" xlink:href="#LiberationSans-39"/>
       <use x="650.537109375" xlink:href="#LiberationSans-3a"/>
       <use x="678.3203125" xlink:href="#LiberationSans-32"/>
       <use x="733.935546875" xlink:href="#LiberationSans-35"/>
       <use x="789.55078125" xlink:href="#LiberationSans-3a"/>
       <use x="817.333984375" xlink:href="#LiberationSans-30"/>
       <use x="872.94921875" xlink:href="#LiberationSans-30"/>
      </g>
     </g>
    </g>
    <g id="xtick_4">
     <g id="line2d_10">
      <path clip-path="url(#pea44e757af)" d="M 406.967484 356.4 
L 406.967484 39.6 
" style="fill:none;stroke:#ffffff;stroke-linecap:round;"/>
     </g>
     <g id="line2d_11"/>
     <g id="line2d_12"/>
     <g id="text_4">
      <!-- 2015-11-25 11:00:00 -->
      <g style="fill:#262626;" transform="translate(360.544046242 370.646875)scale(0.1 -0.1)">
       <use xlink:href="#LiberationSans-32"/>
       <use x="55.615234375" xlink:href="#LiberationSans-30"/>
       <use x="111.23046875" xlink:href="#LiberationSans-31"/>
       <use x="166.845703125" xlink:href="#LiberationSans-35"/>
       <use x="222.4609375" xlink:href="#LiberationSans-2d"/>
       <use x="255.76171875" xlink:href="#LiberationSans-31"/>
       <use x="311.376953125" xlink:href="#LiberationSans-31"/>
       <use x="366.9921875" xlink:href="#LiberationSans-2d"/>
       <use x="400.29296875" xlink:href="#LiberationSans-32"/>
       <use x="455.908203125" xlink:href="#LiberationSans-35"/>
       <use x="511.5234375" xlink:href="#LiberationSans-20"/>
       <use x="539.306640625" xlink:href="#LiberationSans-31"/>
       <use x="594.921875" xlink:href="#LiberationSans-31"/>
       <use x="650.537109375" xlink:href="#LiberationSans-3a"/>
       <use x="678.3203125" xlink:href="#LiberationSans-30"/>
       <use x="733.935546875" xlink:href="#LiberationSans-30"/>
       <use x="789.55078125" xlink:href="#LiberationSans-3a"/>
       <use x="817.333984375" xlink:href="#LiberationSans-30"/>
       <use x="872.94921875" xlink:href="#LiberationSans-30"/>
      </g>
     </g>
    </g>
    <g id="text_5">
     <!-- time -->
     <defs>
      <path d="M 13.484375 24.5625 
Q 13.484375 20.40625 14.328125 16.90625 
Q 15.1875 13.421875 16.96875 10.90625 
Q 18.75 8.40625 21.53125 7 
Q 24.3125 5.609375 28.21875 5.609375 
Q 33.9375 5.609375 37.375 7.90625 
Q 40.828125 10.203125 42.046875 13.71875 
L 49.75 11.53125 
Q 48.921875 9.328125 47.4375 7.109375 
Q 45.953125 4.890625 43.453125 3.09375 
Q 40.96875 1.3125 37.234375 0.15625 
Q 33.5 -0.984375 28.21875 -0.984375 
Q 16.5 -0.984375 10.375 6 
Q 4.25 12.984375 4.25 26.765625 
Q 4.25 34.1875 6.09375 39.328125 
Q 7.953125 44.484375 11.171875 47.703125 
Q 14.40625 50.921875 18.703125 52.359375 
Q 23 53.8125 27.875 53.8125 
Q 34.515625 53.8125 38.984375 51.65625 
Q 43.453125 49.515625 46.15625 45.71875 
Q 48.875 41.9375 50.015625 36.8125 
Q 51.171875 31.6875 51.171875 25.734375 
L 51.171875 24.5625 
z
M 42.09375 31.296875 
Q 41.359375 39.65625 37.84375 43.484375 
Q 34.328125 47.3125 27.734375 47.3125 
Q 25.53125 47.3125 23.109375 46.609375 
Q 20.703125 45.90625 18.65625 44.09375 
Q 16.609375 42.28125 15.1875 39.171875 
Q 13.765625 36.078125 13.578125 31.296875 
z
" id="LiberationSans-65"/>
      <path d="M 6.6875 64.0625 
L 6.6875 72.46875 
L 15.484375 72.46875 
L 15.484375 64.0625 
z
M 6.6875 0 
L 6.6875 52.828125 
L 15.484375 52.828125 
L 15.484375 0 
z
" id="LiberationSans-69"/>
      <path d="M 27.046875 0.390625 
Q 25.046875 -0.140625 22.96875 -0.453125 
Q 20.90625 -0.78125 18.171875 -0.78125 
Q 7.625 -0.78125 7.625 11.1875 
L 7.625 46.4375 
L 1.515625 46.4375 
L 1.515625 52.828125 
L 7.953125 52.828125 
L 10.546875 64.65625 
L 16.40625 64.65625 
L 16.40625 52.828125 
L 26.171875 52.828125 
L 26.171875 46.4375 
L 16.40625 46.4375 
L 16.40625 13.09375 
Q 16.40625 9.28125 17.640625 7.734375 
Q 18.890625 6.203125 21.96875 6.203125 
Q 23.25 6.203125 24.4375 6.390625 
Q 25.640625 6.59375 27.046875 6.890625 
z
" id="LiberationSans-74"/>
      <path d="M 37.5 0 
L 37.5 33.5 
Q 37.5 37.359375 37.015625 39.9375 
Q 36.53125 42.53125 35.375 44.109375 
Q 34.234375 45.703125 32.375 46.359375 
Q 30.515625 47.015625 27.828125 47.015625 
Q 25.046875 47.015625 22.796875 45.921875 
Q 20.5625 44.828125 18.96875 42.75 
Q 17.390625 40.671875 16.53125 37.625 
Q 15.671875 34.578125 15.671875 30.609375 
L 15.671875 0 
L 6.9375 0 
L 6.9375 41.546875 
Q 6.9375 43.21875 6.90625 45.046875 
Q 6.890625 46.875 6.828125 48.5 
Q 6.78125 50.140625 6.734375 51.3125 
Q 6.6875 52.484375 6.640625 52.828125 
L 14.9375 52.828125 
Q 14.984375 52.59375 15.03125 51.515625 
Q 15.09375 50.4375 15.15625 49.046875 
Q 15.234375 47.65625 15.28125 46.21875 
Q 15.328125 44.78125 15.328125 43.796875 
L 15.484375 43.796875 
Q 16.65625 46.09375 18.015625 47.953125 
Q 19.390625 49.8125 21.21875 51.09375 
Q 23.046875 52.390625 25.40625 53.09375 
Q 27.78125 53.8125 30.90625 53.8125 
Q 36.921875 53.8125 40.40625 51.421875 
Q 43.890625 49.03125 45.265625 43.796875 
L 45.40625 43.796875 
Q 46.578125 46.09375 48.046875 47.953125 
Q 49.515625 49.8125 51.46875 51.09375 
Q 53.421875 52.390625 55.859375 53.09375 
Q 58.296875 53.8125 61.421875 53.8125 
Q 65.4375 53.8125 68.328125 52.734375 
Q 71.234375 51.65625 73.09375 49.40625 
Q 74.953125 47.171875 75.828125 43.625 
Q 76.703125 40.09375 76.703125 35.203125 
L 76.703125 0 
L 68.015625 0 
L 68.015625 33.5 
Q 68.015625 37.359375 67.53125 39.9375 
Q 67.046875 42.53125 65.890625 44.109375 
Q 64.75 45.703125 62.890625 46.359375 
Q 61.03125 47.015625 58.34375 47.015625 
Q 55.5625 47.015625 53.3125 45.96875 
Q 51.078125 44.921875 49.484375 42.875 
Q 47.90625 40.828125 47.046875 37.75 
Q 46.1875 34.671875 46.1875 30.609375 
L 46.1875 0 
z
" id="LiberationSans-6d"/>
     </defs>
     <g style="fill:#262626;" transform="translate(284.81015625 385.6934375)scale(0.11 -0.11)">
      <use xlink:href="#LiberationSans-74"/>
      <use x="27.783203125" xlink:href="#LiberationSans-69"/>
      <use x="50.0" xlink:href="#LiberationSans-6d"/>
      <use x="133.30078125" xlink:href="#LiberationSans-65"/>
     </g>
    </g>
   </g>
   <g id="matplotlib.axis_2">
    <g id="ytick_1">
     <g id="line2d_13">
      <path clip-path="url(#pea44e757af)" d="M 72 356.4 
L 518.4 356.4 
" style="fill:none;stroke:#ffffff;stroke-linecap:round;"/>
     </g>
     <g id="line2d_14"/>
     <g id="line2d_15"/>
     <g id="text_6">
      <!-- −26050 -->
      <defs>
       <path d="M 4.9375 29.6875 
L 4.9375 36.8125 
L 53.515625 36.8125 
L 53.515625 29.6875 
z
" id="LiberationSans-2212"/>
      </defs>
      <g style="fill:#262626;" transform="translate(31.3546875 358.9859375)scale(0.1 -0.1)">
       <use xlink:href="#LiberationSans-2212"/>
       <use x="58.3984375" xlink:href="#LiberationSans-32"/>
       <use x="114.013671875" xlink:href="#LiberationSans-36"/>
       <use x="169.62890625" xlink:href="#LiberationSans-30"/>
       <use x="225.244140625" xlink:href="#LiberationSans-35"/>
       <use x="280.859375" xlink:href="#LiberationSans-30"/>
      </g>
     </g>
    </g>
    <g id="ytick_2">
     <g id="line2d_16">
      <path clip-path="url(#pea44e757af)" d="M 72 316.8 
L 518.4 316.8 
" style="fill:none;stroke:#ffffff;stroke-linecap:round;"/>
     </g>
     <g id="line2d_17"/>
     <g id="line2d_18"/>
     <g id="text_7">
      <!-- −26000 -->
      <g style="fill:#262626;" transform="translate(31.3546875 319.3859375)scale(0.1 -0.1)">
       <use xlink:href="#LiberationSans-2212"/>
       <use x="58.3984375" xlink:href="#LiberationSans-32"/>
       <use x="114.013671875" xlink:href="#LiberationSans-36"/>
       <use x="169.62890625" xlink:href="#LiberationSans-30"/>
       <use x="225.244140625" xlink:href="#LiberationSans-30"/>
       <use x="280.859375" xlink:href="#LiberationSans-30"/>
      </g>
     </g>
    </g>
    <g id="ytick_3">
     <g id="line2d_19">
      <path clip-path="url(#pea44e757af)" d="M 72 277.2 
L 518.4 277.2 
" style="fill:none;stroke:#ffffff;stroke-linecap:round;"/>
     </g>
     <g id="line2d_20"/>
     <g id="line2d_21"/>
     <g id="text_8">
      <!-- −25950 -->
      <g style="fill:#262626;" transform="translate(31.3546875 279.7859375)scale(0.1 -0.1)">
       <use xlink:href="#LiberationSans-2212"/>
       <use x="58.3984375" xlink:href="#LiberationSans-32"/>
       <use x="114.013671875" xlink:href="#LiberationSans-35"/>
       <use x="169.62890625" xlink:href="#LiberationSans-39"/>
       <use x="225.244140625" xlink:href="#LiberationSans-35"/>
       <use x="280.859375" xlink:href="#LiberationSans-30"/>
      </g>
     </g>
    </g>
    <g id="ytick_4">
     <g id="line2d_22">
      <path clip-path="url(#pea44e757af)" d="M 72 237.6 
L 518.4 237.6 
" style="fill:none;stroke:#ffffff;stroke-linecap:round;"/>
     </g>
     <g id="line2d_23"/>
     <g id="line2d_24"/>
     <g id="text_9">
      <!-- −25900 -->
      <g style="fill:#262626;" transform="translate(31.3546875 240.1859375)scale(0.1 -0.1)">
       <use xlink:href="#LiberationSans-2212"/>
       <use x="58.3984375" xlink:href="#LiberationSans-32"/>
       <use x="114.013671875" xlink:href="#LiberationSans-35"/>
       <use x="169.62890625" xlink:href="#LiberationSans-39"/>
       <use x="225.244140625" xlink:href="#LiberationSans-30"/>
       <use x="280.859375" xlink:href="#LiberationSans-30"/>
      </g>
     </g>
    </g>
    <g id="ytick_5">
     <g id="line2d_25">
      <path clip-path="url(#pea44e757af)" d="M 72 198 
L 518.4 198 
" style="fill:none;stroke:#ffffff;stroke-linecap:round;"/>
     </g>
     <g id="line2d_26"/>
     <g id="line2d_27"/>
     <g id="text_10">
      <!-- −25850 -->
      <g style="fill:#262626;" transform="translate(31.3546875 200.5859375)scale(0.1 -0.1)">
       <use xlink:href="#LiberationSans-2212"/>
       <use x="58.3984375" xlink:href="#LiberationSans-32"/>
       <use x="114.013671875" xlink:href="#LiberationSans-35"/>
       <use x="169.62890625" xlink:href="#LiberationSans-38"/>
       <use x="225.244140625" xlink:href="#LiberationSans-35"/>
       <use x="280.859375" xlink:href="#LiberationSans-30"/>
      </g>
     </g>
    </g>
    <g id="ytick_6">
     <g id="line2d_28">
      <path clip-path="url(#pea44e757af)" d="M 72 158.4 
L 518.4 158.4 
" style="fill:none;stroke:#ffffff;stroke-linecap:round;"/>
     </g>
     <g id="line2d_29"/>
     <g id="line2d_30"/>
     <g id="text_11">
      <!-- −25800 -->
      <g style="fill:#262626;" transform="translate(31.3546875 160.9859375)scale(0.1 -0.1)">
       <use xlink:href="#LiberationSans-2212"/>
       <use x="58.3984375" xlink:href="#LiberationSans-32"/>
       <use x="114.013671875" xlink:href="#LiberationSans-35"/>
       <use x="169.62890625" xlink:href="#LiberationSans-38"/>
       <use x="225.244140625" xlink:href="#LiberationSans-30"/>
       <use x="280.859375" xlink:href="#LiberationSans-30"/>
      </g>
     </g>
    </g>
    <g id="ytick_7">
     <g id="line2d_31">
      <path clip-path="url(#pea44e757af)" d="M 72 118.8 
L 518.4 118.8 
" style="fill:none;stroke:#ffffff;stroke-linecap:round;"/>
     </g>
     <g id="line2d_32"/>
     <g id="line2d_33"/>
     <g id="text_12">
      <!-- −25750 -->
      <defs>
       <path d="M 50.59375 61.671875 
Q 45.40625 53.765625 41.0625 46.453125 
Q 36.71875 39.15625 33.59375 31.75 
Q 30.46875 24.359375 28.734375 16.578125 
Q 27 8.796875 27 0 
L 17.828125 0 
Q 17.828125 8.25 19.78125 16.1875 
Q 21.734375 24.125 25.046875 31.765625 
Q 28.375 39.40625 32.765625 46.78125 
Q 37.15625 54.15625 42.09375 61.328125 
L 5.125 61.328125 
L 5.125 68.796875 
L 50.59375 68.796875 
z
" id="LiberationSans-37"/>
      </defs>
      <g style="fill:#262626;" transform="translate(31.3546875 121.3859375)scale(0.1 -0.1)">
       <use xlink:href="#LiberationSans-2212"/>
       <use x="58.3984375" xlink:href="#LiberationSans-32"/>
       <use x="114.013671875" xlink:href="#LiberationSans-35"/>
       <use x="169.62890625" xlink:href="#LiberationSans-37"/>
       <use x="225.244140625" xlink:href="#LiberationSans-35"/>
       <use x="280.859375" xlink:href="#LiberationSans-30"/>
      </g>
     </g>
    </g>
    <g id="ytick_8">
     <g id="line2d_34">
      <path clip-path="url(#pea44e757af)" d="M 72 79.2 
L 518.4 79.2 
" style="fill:none;stroke:#ffffff;stroke-linecap:round;"/>
     </g>
     <g id="line2d_35"/>
     <g id="line2d_36"/>
     <g id="text_13">
      <!-- −25700 -->
      <g style="fill:#262626;" transform="translate(31.3546875 81.7859375)scale(0.1 -0.1)">
       <use xlink:href="#LiberationSans-2212"/>
       <use x="58.3984375" xlink:href="#LiberationSans-32"/>
       <use x="114.013671875" xlink:href="#LiberationSans-35"/>
       <use x="169.62890625" xlink:href="#LiberationSans-37"/>
       <use x="225.244140625" xlink:href="#LiberationSans-30"/>
       <use x="280.859375" xlink:href="#LiberationSans-30"/>
      </g>
     </g>
    </g>
    <g id="ytick_9">
     <g id="line2d_37">
      <path clip-path="url(#pea44e757af)" d="M 72 39.6 
L 518.4 39.6 
" style="fill:none;stroke:#ffffff;stroke-linecap:round;"/>
     </g>
     <g id="line2d_38"/>
     <g id="line2d_39"/>
     <g id="text_14">
      <!-- −25650 -->
      <g style="fill:#262626;" transform="translate(31.3546875 42.1859375)scale(0.1 -0.1)">
       <use xlink:href="#LiberationSans-2212"/>
       <use x="58.3984375" xlink:href="#LiberationSans-32"/>
       <use x="114.013671875" xlink:href="#LiberationSans-35"/>
       <use x="169.62890625" xlink:href="#LiberationSans-36"/>
       <use x="225.244140625" xlink:href="#LiberationSans-35"/>
       <use x="280.859375" xlink:href="#LiberationSans-30"/>
      </g>
     </g>
    </g>
   </g>
   <g id="line2d_40">
    <path clip-path="url(#pea44e757af)" d="M 72 54.949563 
L 72.893247 69.198544 
L 73.116558 68.507164 
L 73.33987 66.875644 
L 73.563182 62.664544 
L 73.786493 75.522846 
L 74.009805 77.162286 
L 74.233117 69.688145 
L 74.456428 66.417185 
L 74.67974 72.951185 
L 74.903052 71.319665 
L 75.126363 72.951185 
L 75.349675 67.807865 
L 75.572986 68.507164 
L 75.796298 71.078825 
L 76.01961 76.222145 
L 76.242921 75.282005 
L 76.466233 79.244345 
L 76.689545 78.304204 
L 77.136168 88.109164 
L 77.35948 89.049305 
L 77.582791 86.477644 
L 77.806103 93.252485 
L 78.029415 83.905984 
L 78.476038 87.169024 
L 78.69935 82.965844 
L 78.922661 89.499844 
L 79.145973 86.236804 
L 79.592596 95.583305 
L 79.815908 93.951785 
L 80.03922 99.095105 
L 80.262531 99.786485 
L 80.485843 99.786485 
L 80.709155 102.358145 
L 80.932466 99.095105 
L 81.37909 106.320485 
L 81.825713 102.117305 
L 82.049025 109.591445 
L 82.272336 102.808684 
L 82.495648 102.808684 
L 82.718959 103.748825 
L 82.942271 103.748825 
L 83.165583 113.794625 
L 83.388894 117.997806 
L 83.612206 118.937946 
L 83.835518 124.772646 
L 84.058829 118.937946 
L 84.282141 124.772646 
L 84.505453 134.818447 
L 84.728764 133.186927 
L 84.952076 140.661067 
L 85.175388 133.878306 
L 85.398699 132.946086 
L 85.622011 138.780786 
L 85.845323 135.758587 
L 86.068634 134.818447 
L 86.291946 134.818447 
L 86.515258 140.661067 
L 86.738569 133.186927 
L 86.961881 135.059287 
L 87.185193 134.127067 
L 87.408504 127.344306 
L 87.631816 129.915967 
L 88.078439 142.082888 
L 88.301751 142.082888 
L 88.525063 141.142748 
L 88.748374 138.811928 
L 88.971686 144.654549 
L 89.418309 140.451368 
L 89.641621 140.451368 
L 89.864932 145.345928 
L 90.088244 146.985368 
L 90.311556 150.248408 
L 90.534867 148.616888 
L 90.758179 150.248408 
L 90.981491 146.985368 
L 91.204802 148.616888 
L 91.428114 152.128689 
L 91.651426 148.616888 
L 91.874737 153.519368 
L 92.098049 152.820069 
L 92.321361 153.519368 
L 92.544672 150.947708 
L 92.767984 145.105088 
L 92.991296 143.473568 
L 93.214607 138.330247 
L 93.437919 136.698727 
L 93.661231 144.164947 
L 93.884542 137.390107 
L 94.107854 145.804387 
L 94.331166 147.435907 
L 94.554477 145.804387 
L 94.777789 139.961767 
L 95.001101 147.435907 
L 95.224412 149.067427 
L 95.671036 139.021627 
L 95.894347 139.961767 
L 96.117659 137.390107 
L 96.34097 140.901907 
L 96.564282 140.901907 
L 96.787594 137.630947 
L 97.010905 137.630947 
L 97.234217 143.473568 
L 97.68084 140.202608 
L 97.904152 132.037088 
L 98.127464 135.308048 
L 98.350775 143.714408 
L 98.574087 143.473568 
L 99.02071 140.901907 
L 99.244022 132.487627 
L 99.467334 135.999427 
L 99.690645 132.487627 
L 99.913957 134.367907 
L 100.36058 139.270387 
L 100.583892 140.202608 
L 101.030515 140.202608 
L 101.253827 141.842048 
L 101.477139 141.842048 
L 101.923762 147.676748 
L 102.147074 147.676748 
L 102.370385 150.007568 
L 102.593697 150.947708 
L 102.817009 147.435907 
L 103.04032 138.089407 
L 103.263632 138.089407 
L 103.486943 142.292587 
L 103.710255 140.661067 
L 103.933567 145.563547 
L 104.156878 145.563547 
L 104.38019 147.195067 
L 104.603502 147.195067 
L 104.826813 148.135207 
L 105.273437 142.292587 
L 105.496748 144.623407 
L 105.72006 148.826587 
L 105.943372 199.28851 
L 106.389995 185.97967 
L 106.613307 187.61119 
L 106.836618 195.32617 
L 107.05993 190.18285 
L 107.283242 196.95769 
L 107.506553 196.95769 
L 107.729865 198.59713 
L 107.953177 198.59713 
L 108.176488 196.95769 
L 108.3998 189.24271 
L 108.623112 190.88215 
L 108.846423 193.45381 
L 109.069735 184.34815 
L 109.293047 187.61119 
L 109.516358 194.38603 
L 109.962981 191.81437 
L 110.186293 191.81437 
L 110.409605 196.02547 
L 110.632916 191.81437 
L 110.856228 193.45381 
L 111.302851 203.49169 
L 111.526163 205.82251 
L 111.749475 195.77671 
L 111.972786 196.476009 
L 112.196098 198.107529 
L 112.41941 202.31071 
L 112.642721 191.332689 
L 112.866033 192.964209 
L 113.089345 190.392549 
L 113.312656 191.332689 
L 113.535968 191.332689 
L 113.75928 188.061729 
L 113.982591 186.430209 
L 114.205903 186.430209 
L 114.429215 188.061729 
L 114.652526 188.761029 
L 114.875838 191.091848 
L 115.09915 184.309088 
L 115.769085 202.528328 
L 116.215708 195.994328 
L 116.885643 176.384408 
L 117.108954 173.121368 
L 117.332266 173.121368 
L 117.555578 171.489848 
L 117.778889 174.752888 
L 118.002201 173.121368 
L 118.225513 174.752888 
L 118.448824 173.812748 
L 118.672136 177.083708 
L 118.895448 175.452188 
L 119.565383 190.88215 
L 119.788694 189.24271 
L 120.681941 206.76265 
L 120.905253 205.13113 
L 121.128564 201.86017 
L 121.351876 200.22865 
L 121.575188 203.49169 
L 121.798499 201.86017 
L 122.021811 206.76265 
L 122.245123 205.13113 
L 122.691746 208.39417 
L 123.138369 201.86017 
L 123.361681 205.13113 
L 123.584992 200.92003 
L 123.808304 203.25085 
L 124.254927 199.98781 
L 124.478239 199.98781 
L 124.701551 201.61933 
L 124.924862 201.61933 
L 125.371486 205.82251 
L 125.594797 203.25085 
L 125.818109 203.25085 
L 126.041421 199.98781 
L 126.264732 195.08533 
L 126.488044 199.28851 
L 126.711356 200.22865 
L 126.934667 195.32617 
L 127.381291 198.59713 
L 127.827914 195.32617 
L 128.051226 198.59713 
L 128.274537 193.45381 
L 128.497849 191.81437 
L 128.944472 187.61119 
L 129.167784 182.467869 
L 129.837719 187.61119 
L 130.061031 187.61119 
L 130.284342 189.24271 
L 130.507654 185.97967 
L 130.730965 187.61119 
L 130.954277 191.81437 
L 131.177589 198.59713 
L 131.4009 201.86017 
L 131.624212 200.22865 
L 131.847524 207.003491 
L 132.070835 224.064973 
L 132.294147 211.206671 
L 132.517459 215.417772 
L 132.74077 217.049292 
L 133.187394 217.049292 
L 133.410705 215.417772 
L 133.857329 219.620952 
L 134.303952 217.989432 
L 134.527264 211.206671 
L 134.750575 209.575151 
L 134.973887 212.146812 
L 135.197199 211.455432 
L 135.42051 211.455432 
L 135.867134 203.981292 
L 136.090445 211.696272 
L 136.313757 209.124612 
L 136.537069 210.064752 
L 136.76038 210.064752 
L 136.983692 210.756132 
L 137.207004 210.756132 
L 137.430315 213.327792 
L 137.653627 211.696272 
L 137.876938 214.959312 
L 138.10025 212.387652 
L 138.323562 214.027092 
L 138.546873 212.387652 
L 138.770185 209.815992 
L 138.993497 209.815992 
L 139.216808 207.244332 
L 139.44012 209.815992 
L 139.663432 207.244332 
L 139.886743 213.086952 
L 140.110055 211.455432 
L 140.556678 211.455432 
L 140.77999 201.650472 
L 141.226613 204.222132 
L 141.449925 203.281992 
L 141.673237 206.552952 
L 141.896548 204.921432 
L 142.11986 206.552952 
L 142.343172 211.696272 
L 142.566483 206.552952 
L 142.789795 206.552952 
L 143.013107 201.650472 
L 143.45973 211.696272 
L 143.683042 208.184472 
L 143.906353 212.387652 
L 144.129665 211.455432 
L 144.352976 209.815992 
L 144.576288 209.815992 
L 144.7996 205.371971 
L 145.022911 203.49169 
L 145.246223 203.49169 
L 145.469535 200.22865 
L 145.692846 203.49169 
L 145.916158 201.86017 
L 146.13947 201.86017 
L 146.362781 205.13113 
L 146.586093 196.71685 
L 146.809405 193.45381 
L 147.032716 193.45381 
L 147.256028 195.08533 
L 147.47934 194.14519 
L 147.702651 190.88215 
L 147.925963 195.77671 
L 148.149275 196.71685 
L 148.595898 194.14519 
L 148.81921 199.28851 
L 149.042521 196.71685 
L 149.265833 203.49169 
L 149.712456 203.49169 
L 149.935768 201.86017 
L 150.15908 201.86017 
L 150.382391 202.800311 
L 150.605703 201.86017 
L 150.829015 196.95769 
L 151.052326 198.59713 
L 151.275638 198.59713 
L 151.498949 196.95769 
L 151.722261 200.22865 
L 151.945573 205.371971 
L 152.168884 213.086952 
L 152.392196 224.764272 
L 152.615508 215.169011 
L 152.838819 229.425912 
L 153.062131 221.951772 
L 153.285443 220.071491 
L 153.508754 210.02569 
L 153.732066 208.15333 
L 153.955378 209.78485 
L 154.178689 213.99595 
L 155.071936 200.67919 
L 155.295248 200.67919 
L 155.518559 194.595729 
L 155.741871 192.723368 
L 155.965183 202.769169 
L 156.188494 205.340829 
L 156.411806 205.340829 
L 156.635118 206.972349 
L 156.858429 211.874829 
L 157.081741 206.972349 
L 157.305053 205.340829 
L 157.528364 213.74719 
L 157.751676 206.972349 
L 157.974987 208.603869 
L 158.198299 205.340829 
L 158.421611 205.340829 
L 158.644922 203.95015 
L 158.868234 194.595729 
L 159.091546 191.091848 
L 159.314857 194.354888 
L 159.761481 204.400689 
L 159.984792 208.603869 
L 160.208104 215.137869 
L 160.431416 208.603869 
L 160.654727 215.137869 
L 160.878039 211.874829 
L 161.101351 202.069869 
L 161.324662 205.340829 
L 161.771286 203.709309 
L 161.994597 207.21319 
L 162.217909 207.21319 
L 162.441221 205.58167 
L 162.664532 208.85263 
L 162.887844 206.280969 
L 163.111156 208.85263 
L 163.334467 207.21319 
L 163.557779 210.48415 
L 163.781091 203.709309 
L 164.004402 207.912489 
L 164.227714 207.912489 
L 164.451026 211.42429 
L 164.674337 221.46217 
L 164.897649 218.19913 
L 165.344272 215.62747 
L 165.567584 205.340829 
L 165.790895 206.972349 
L 166.014207 202.769169 
L 166.237519 205.340829 
L 166.46083 205.340829 
L 166.684142 208.603869 
L 166.907454 205.340829 
L 167.130765 206.972349 
L 167.354077 204.400689 
L 167.577389 205.340829 
L 167.8007 206.972349 
L 168.024012 205.340829 
L 168.247324 206.972349 
L 168.470635 210.243309 
L 168.693947 217.709529 
L 168.917259 211.874829 
L 169.14057 211.874829 
L 169.363882 210.243309 
L 169.587194 211.874829 
L 169.810505 209.303169 
L 170.033817 210.243309 
L 170.48044 198.806829 
L 170.703752 202.069869 
L 170.927064 199.498209 
L 171.150375 200.438349 
L 171.373687 200.438349 
L 171.82031 203.709309 
L 172.043622 203.709309 
L 172.490245 199.498209 
L 172.713557 200.438349 
L 172.936868 200.438349 
L 173.383492 192.272829 
L 173.606803 193.904349 
L 173.830115 197.167389 
L 174.053427 197.167389 
L 174.276738 195.535869 
L 174.50005 197.167389 
L 174.946673 192.964209 
L 175.169985 186.880748 
L 175.393297 175.203427 
L 175.83992 175.203427 
L 176.063232 177.775088 
L 176.286543 171.241088 
L 176.509855 176.143568 
L 176.956478 176.143568 
L 177.17979 177.775088 
L 177.403102 172.631767 
L 177.626413 177.775088 
L 177.849725 179.414528 
L 178.073037 179.414528 
L 178.296348 177.775088 
L 178.51966 179.414528 
L 178.742971 172.390927 
L 178.966283 170.759407 
L 179.189595 167.488447 
L 179.412906 173.331067 
L 179.636218 170.759407 
L 179.85953 174.022447 
L 180.082841 174.022447 
L 180.306153 172.390927 
L 180.752776 172.390927 
L 180.976088 169.127887 
L 181.1994 173.331067 
L 181.422711 172.390927 
L 181.646023 172.390927 
L 181.869335 163.984566 
L 182.092646 162.345126 
L 182.53927 165.616086 
L 182.762581 168.879126 
L 182.985893 168.879126 
L 183.209205 171.450786 
L 183.432516 168.879126 
L 183.655828 169.819266 
L 183.87914 169.819266 
L 184.549075 165.616086 
L 184.772386 167.488447 
L 184.995698 160.022226 
L 185.21901 162.345126 
L 185.442321 159.082086 
L 185.665633 157.450566 
L 186.112256 157.450566 
L 186.335568 154.179606 
L 186.558879 157.450566 
L 186.782191 159.082086 
L 187.005503 162.593887 
L 187.228814 164.225407 
L 187.452126 161.653746 
L 187.675438 165.856927 
L 187.898749 165.856927 
L 188.122061 168.428587 
L 188.345373 160.954447 
L 188.791996 165.165547 
L 189.015308 161.894587 
L 189.238619 164.225407 
L 189.461931 161.653746 
L 189.685243 162.345126 
L 189.908554 160.713606 
L 190.131866 164.916786 
L 190.355178 162.345126 
L 190.578489 162.345126 
L 190.801801 160.713606 
L 191.025113 162.345126 
L 191.471736 162.345126 
L 191.695048 163.984566 
L 191.918359 163.984566 
L 192.141671 160.472766 
L 192.364982 158.841246 
L 192.588294 158.841246 
L 192.811606 161.412906 
L 193.034917 165.616086 
L 193.258229 163.984566 
L 193.481541 163.984566 
L 193.704852 162.345126 
L 193.928164 152.307246 
L 194.151476 153.938766 
L 194.374787 153.938766 
L 194.598099 152.307246 
L 194.821411 155.570286 
L 195.044722 151.367105 
L 195.268034 151.367105 
L 195.491346 153.938766 
L 195.714657 154.179606 
L 195.937969 155.811126 
L 196.161281 154.179606 
L 196.384592 154.179606 
L 196.607904 155.811126 
L 197.054527 150.667806 
L 197.277839 152.307246 
L 197.501151 152.307246 
L 197.724462 149.036286 
L 197.947774 147.404766 
L 198.394397 147.404766 
L 198.617709 148.344906 
L 198.841021 150.916566 
L 199.287644 137.809504 
L 199.510955 140.381164 
L 199.734267 137.809504 
L 199.957579 146.223785 
L 200.404202 152.548086 
L 200.627514 151.607946 
L 200.850825 154.179606 
L 201.074137 152.548086 
L 201.297449 152.548086 
L 201.52076 150.916566 
L 201.744072 154.179606 
L 201.967384 154.179606 
L 202.190695 155.811126 
L 202.414007 154.179606 
L 202.637319 155.811126 
L 203.083942 152.548086 
L 203.307254 156.059887 
L 203.530565 156.992107 
L 203.753877 164.707088 
L 203.977189 162.135427 
L 204.2005 162.135427 
L 204.423812 163.774867 
L 204.647124 160.503907 
L 204.870435 158.872387 
L 205.093747 160.503907 
L 205.317059 163.774867 
L 205.54037 165.406387 
L 205.763682 162.834727 
L 205.986993 163.774867 
L 206.210305 162.135427 
L 206.433617 156.059887 
L 206.656928 156.059887 
L 207.103552 159.563767 
L 207.326863 165.406387 
L 207.550175 158.631547 
L 207.773487 156.059887 
L 207.996798 161.894587 
L 208.22011 164.466247 
L 208.443422 161.894587 
L 208.666733 166.097767 
L 208.890045 163.526107 
L 209.113357 166.797067 
L 209.336668 166.797067 
L 209.783292 162.593887 
L 210.006603 160.954447 
L 210.453227 165.165547 
L 210.676538 167.037907 
L 210.89985 161.894587 
L 211.123162 160.263067 
L 211.346473 156.059887 
L 211.569785 161.203207 
L 211.793097 156.992107 
L 212.016408 163.774867 
L 212.23972 165.406387 
L 212.686343 192.06313 
L 212.909655 190.42369 
L 213.132966 192.06313 
L 213.356278 192.06313 
L 213.57959 195.32617 
L 213.802901 189.49147 
L 214.026213 189.49147 
L 214.249525 187.85203 
L 214.472836 192.06313 
L 214.696148 191.12299 
L 214.91946 189.49147 
L 215.142771 186.91981 
L 215.366083 191.12299 
L 215.589395 191.12299 
L 215.812706 198.59713 
L 216.036018 196.95769 
L 216.25933 197.65699 
L 216.482641 192.51367 
L 216.705953 192.51367 
L 216.929265 195.08533 
L 217.152576 195.08533 
L 217.375888 197.65699 
L 217.5992 198.59713 
L 217.822511 193.45381 
L 218.269135 201.86017 
L 218.492446 200.22865 
L 218.715758 201.86017 
L 218.93907 205.13113 
L 219.162381 206.76265 
L 219.385693 214.92817 
L 219.609005 211.66513 
L 219.832316 204.88237 
L 220.055628 211.66513 
L 220.278939 208.39417 
L 220.502251 210.02569 
L 220.948874 197.41615 
L 221.172186 200.67919 
L 221.395498 197.167389 
L 221.618809 203.25085 
L 221.842121 203.95015 
L 222.065433 203.95015 
L 222.288744 202.31071 
L 222.735368 202.31071 
L 222.958679 199.04767 
L 223.181991 193.904349 
L 223.405303 195.535869 
L 223.628614 201.378489 
L 223.851926 202.31071 
L 224.075238 198.107529 
L 224.298549 200.67919 
L 224.521861 200.67919 
L 224.745173 202.31071 
L 224.968484 205.58167 
L 225.415108 208.15333 
L 225.638419 213.29665 
L 225.861731 214.92817 
L 226.085043 223.10161 
L 226.308354 215.62747 
L 226.531666 213.05581 
L 226.754977 213.74719 
L 226.978289 213.74719 
L 227.201601 215.38663 
L 227.424912 213.74719 
L 227.871536 213.74719 
L 228.094847 212.11567 
L 228.318159 212.11567 
L 228.541471 213.74719 
L 228.988094 205.58167 
L 229.211406 207.21319 
L 229.434717 193.45381 
L 229.658029 195.08533 
L 229.881341 203.49169 
L 230.104652 205.13113 
L 230.327964 201.86017 
L 230.551276 203.49169 
L 230.774587 199.98781 
L 230.997899 202.55947 
L 231.221211 199.98781 
L 231.444522 204.19099 
L 231.891146 195.77671 
L 232.114457 195.77671 
L 232.337769 196.71685 
L 232.561081 194.14519 
L 233.231016 197.41615 
L 233.454327 186.189368 
L 233.677639 186.189368 
L 233.90095 187.820888 
L 234.124262 184.557848 
L 234.347574 186.189368 
L 234.570885 186.189368 
L 234.794197 185.249228 
L 235.017509 181.737427 
L 235.464132 191.783228 
L 235.687444 190.151708 
L 235.910755 190.151708 
L 236.134067 191.091848 
L 236.357379 194.354888 
L 236.58069 191.091848 
L 236.804002 183.617708 
L 237.027314 181.046048 
L 237.697249 191.332689 
L 237.92056 187.820888 
L 238.143872 189.452408 
L 238.590495 189.452408 
L 238.813807 187.820888 
L 239.037119 187.820888 
L 239.483742 184.557848 
L 239.707054 181.986188 
L 239.930365 183.617708 
L 240.376988 189.452408 
L 240.823612 189.452408 
L 241.270235 191.091848 
L 241.493547 191.091848 
L 241.716858 198.806829 
L 241.94017 200.438349 
L 242.163482 196.235169 
L 242.610105 192.964209 
L 243.056728 192.964209 
L 243.503352 202.31071 
L 243.726663 203.95015 
L 243.949975 209.78485 
L 244.173287 209.78485 
L 244.396598 203.95015 
L 244.61991 203.95015 
L 244.843222 194.595729 
L 245.289845 198.806829 
L 245.513157 198.806829 
L 245.736468 194.844489 
L 245.95978 205.371971 
L 246.183092 206.76265 
L 246.406403 206.76265 
L 246.629715 209.334311 
L 246.853027 220.312332 
L 247.076338 222.883992 
L 247.29965 227.786472 
L 247.522961 227.786472 
L 247.746273 228.726612 
L 247.969585 239.013253 
L 248.63952 228.027312 
L 248.862831 229.666752 
L 249.086143 228.726612 
L 249.309455 231.997572 
L 249.532766 231.298272 
L 249.97939 231.298272 
L 250.202701 232.238413 
L 250.426013 230.598973 
L 250.649325 226.395792 
L 250.872636 232.238413 
L 251.095948 230.598973 
L 251.31926 232.238413 
L 251.542571 231.298272 
L 251.765883 236.441593 
L 251.989195 232.238413 
L 252.212506 232.238413 
L 252.435818 233.869933 
L 252.65913 232.238413 
L 252.882441 232.238413 
L 253.105753 230.598973 
L 253.329065 232.238413 
L 253.552376 232.238413 
L 253.775688 228.027312 
L 253.998999 228.027312 
L 254.222311 229.666752 
L 254.445623 228.027312 
L 254.668934 228.027312 
L 254.892246 226.395792 
L 255.115558 223.824132 
L 255.338869 219.620952 
L 255.785493 216.349992 
L 256.008804 222.192612 
L 256.232116 209.815992 
L 256.455428 209.815992 
L 256.678739 215.658612 
L 256.902051 214.027092 
L 257.125363 211.455432 
L 257.348674 204.921432 
L 258.018609 210.064752 
L 258.241921 210.064752 
L 258.465233 213.327792 
L 258.688544 218.230272 
L 258.911856 218.230272 
L 259.358479 233.170633 
L 259.581791 228.967453 
L 259.805103 235.501453 
L 260.028414 232.238413 
L 260.475038 222.433453 
L 260.698349 219.170413 
L 260.921661 222.433453 
L 261.144972 220.801933 
L 261.368284 217.530973 
L 261.591596 220.102633 
L 261.814907 220.801933 
L 262.038219 212.636413 
L 262.261531 212.636413 
L 262.484842 214.267933 
L 262.708154 212.636413 
L 262.931466 216.140293 
L 263.154777 187.432633 
L 263.378089 196.538293 
L 263.601401 198.169813 
L 263.824712 198.169813 
L 264.271336 208.914913 
L 264.494647 206.343253 
L 264.717959 210.546433 
L 264.941271 205.643953 
L 265.164582 210.787274 
L 265.387894 210.787274 
L 265.611206 209.155754 
L 265.834517 205.884794 
L 266.057829 208.456454 
L 266.281141 212.426714 
L 266.727764 214.058234 
L 266.951076 217.570035 
L 267.174387 217.570035 
L 267.397699 214.058234 
L 267.621011 214.058234 
L 267.844322 217.321274 
L 268.067634 215.689754 
L 268.290945 216.389054 
L 268.514257 216.389054 
L 268.737569 225.735555 
L 268.96088 215.689754 
L 269.184192 224.104035 
L 269.407504 228.307215 
L 269.630815 224.104035 
L 269.854127 225.036255 
L 270.077439 222.464595 
L 270.30075 215.689754 
L 270.524062 225.735555 
L 270.747374 220.592234 
L 270.970685 221.532374 
L 271.193997 224.795414 
L 271.64062 215.689754 
L 271.863932 218.960714 
L 272.087244 217.321274 
L 272.310555 219.201555 
L 272.757179 209.155754 
L 272.98049 210.787274 
L 273.203802 207.524234 
L 273.427114 209.155754 
L 273.650425 209.155754 
L 273.873737 213.358934 
L 274.097049 212.426714 
L 274.32036 217.570035 
L 274.543672 215.930595 
L 274.766983 217.570035 
L 274.990295 216.870735 
L 275.213607 216.870735 
L 275.436918 215.239215 
L 275.883542 218.502255 
L 276.553477 192.816794 
L 276.776788 195.388454 
L 277.0001 196.087754 
L 277.223412 193.756934 
L 277.446723 186.282794 
L 277.670035 191.185274 
L 278.116658 186.041953 
L 278.33997 184.410433 
L 278.563282 190.245134 
L 278.786593 188.613614 
L 279.009905 188.613614 
L 279.456528 172.033813 
L 279.67984 176.936293 
L 279.903152 176.244913 
L 280.126463 183.019754 
L 280.573087 186.282794 
L 280.796398 179.748794 
L 281.689645 167.380094 
L 281.912956 119.062513 
L 282.136268 138.672433 
L 282.35958 147.778094 
L 282.582891 147.319635 
L 283.029515 121.882934 
L 283.252826 129.108314 
L 283.69945 156.883754 
L 283.922761 161.778314 
L 284.146073 158.515274 
L 284.369385 153.612794 
L 284.592696 161.778314 
L 284.816008 161.086934 
L 285.03932 168.561075 
L 285.262631 162.027075 
L 285.485943 165.290115 
L 285.709255 163.658595 
L 285.932566 167.620934 
L 286.155878 165.989414 
L 286.37919 166.921635 
L 286.602501 172.523414 
L 286.825813 180.929775 
L 287.049125 182.569215 
L 287.272436 179.997555 
L 287.495748 173.455635 
L 287.71906 176.027295 
L 287.942371 175.095075 
L 288.165683 168.561075 
L 288.388994 170.883974 
L 288.612306 181.629075 
L 288.835618 179.057414 
L 289.058929 182.569215 
L 289.282241 181.629075 
L 289.505553 181.629075 
L 289.728864 184.892115 
L 289.952176 175.095075 
L 290.398799 180.238395 
L 290.622111 185.140875 
L 290.845423 183.501435 
L 291.068734 176.967435 
L 291.292046 178.598955 
L 291.738669 184.200735 
L 291.961981 186.772395 
L 292.185293 184.200735 
L 292.408604 184.200735 
L 292.631916 185.140875 
L 292.855228 188.403915 
L 293.078539 200.570837 
L 293.301851 198.931397 
L 293.525163 203.142497 
L 293.748474 202.202357 
L 293.971786 195.427516 
L 294.195098 203.833877 
L 294.418409 200.322076 
L 294.641721 198.690556 
L 295.088344 182.569215 
L 295.311656 154.280952 
L 295.534967 148.197491 
L 295.758279 148.197491 
L 295.981591 144.68569 
L 296.204902 151.460531 
L 296.428214 148.888871 
L 296.651526 150.27955 
L 297.098149 156.363011 
L 297.321461 154.49065 
L 297.768084 164.777292 
L 297.991396 160.566191 
L 298.214707 168.040332 
L 298.661331 156.363011 
L 298.884642 148.197491 
L 299.331266 146.31721 
L 299.554577 149.58817 
L 299.777889 140.24167 
L 300.001201 142.81333 
L 300.224512 141.42265 
L 300.447824 146.31721 
L 300.671136 148.64803 
L 300.894447 142.81333 
L 301.117759 149.58817 
L 301.341071 149.58817 
L 301.564382 167.348952 
L 302.011006 176.936293 
L 302.234317 178.567813 
L 302.68094 174.364633 
L 302.904252 178.567813 
L 303.127564 186.041953 
L 303.574187 181.838773 
L 303.797499 183.470293 
L 304.02081 183.229453 
L 304.244122 175.996153 
L 304.467434 175.063933 
L 304.914057 162.446472 
L 305.137369 161.506332 
L 305.36068 163.386612 
L 305.583992 168.529933 
L 305.807304 168.529933 
L 306.030615 170.161453 
L 306.253927 175.063933 
L 306.477239 172.492272 
L 306.70055 178.326973 
L 306.923862 176.695453 
L 307.147174 173.424493 
L 307.370485 173.424493 
L 307.593797 183.470293 
L 307.817109 185.101813 
L 308.04042 179.267113 
L 308.263732 186.741253 
L 308.487044 186.741253 
L 308.710355 193.275253 
L 308.933667 193.275253 
L 309.156978 196.538293 
L 309.38029 190.703593 
L 309.603602 191.635813 
L 309.826913 189.763453 
L 310.050225 197.928973 
L 310.273537 197.928973 
L 310.496848 207.974773 
L 310.72016 208.674073 
L 310.943472 204.711733 
L 311.166783 195.598153 
L 311.390095 194.665933 
L 311.613407 197.928973 
L 311.836718 203.771593 
L 312.06003 204.462973 
L 312.283342 214.267933 
L 312.506653 218.471113 
L 312.729965 217.779733 
L 312.953277 221.742073 
L 313.176588 215.899453 
L 313.3999 222.674293 
L 313.623212 224.313733 
L 313.846523 208.914913 
L 314.293147 216.839593 
L 314.516458 210.996973 
L 314.73977 210.996973 
L 315.186393 214.267933 
L 315.409705 208.425312 
L 315.633017 207.733933 
L 315.856328 212.636413 
L 316.07964 210.996973 
L 316.302951 206.793792 
L 316.526263 205.162272 
L 316.749575 206.793792 
L 316.972886 205.162272 
L 317.196198 214.267933 
L 317.642821 210.996973 
L 317.866133 202.831453 
L 318.089445 202.831453 
L 318.312756 201.891312 
L 318.536068 206.102413 
L 318.75938 207.733933 
L 318.982691 204.462973 
L 319.429315 204.462973 
L 319.652626 210.305593 
L 319.875938 228.757754 
L 320.09925 225.245953 
L 320.322561 217.779733 
L 320.545873 217.779733 
L 320.992496 221.982913 
L 321.215808 223.614433 
L 321.662431 236.059093 
L 321.885743 229.208293 
L 322.109055 227.497573 
L 322.332366 232.637653 
L 322.555678 227.497573 
L 322.778989 232.637653 
L 323.225613 226.636633 
L 323.448924 234.348373 
L 323.672236 232.637653 
L 323.895548 227.497573 
L 324.118859 217.233253 
L 324.342171 218.943973 
L 324.788794 228.369674 
L 325.235418 228.369674 
L 325.458729 219.804913 
L 325.682041 222.376574 
L 326.128664 235.212554 
L 326.351976 224.937073 
L 326.798599 217.244414 
L 327.021911 226.658954 
L 327.245223 224.087294 
L 327.468534 214.672753 
L 327.691846 210.390373 
L 327.915158 214.672753 
L 328.361781 218.094193 
L 328.585093 221.515633 
L 329.255028 221.515633 
L 329.478339 219.804913 
L 329.924962 207.818713 
L 330.148274 207.818713 
L 330.594897 211.240153 
L 331.041521 207.818713 
L 331.488144 194.132953 
L 331.711456 200.126053 
L 331.934767 198.415333 
L 332.381391 186.432373 
L 332.604702 194.993893 
L 332.828014 194.993893 
L 333.051326 193.283173 
L 333.274637 200.126053 
L 333.497949 191.572453 
L 333.944572 206.968933 
L 334.167884 208.679653 
L 334.614507 208.679653 
L 334.837819 210.390373 
L 335.061131 213.811813 
L 335.284442 208.668493 
L 335.507754 215.522533 
L 335.954377 203.547493 
L 336.177689 196.704613 
L 336.401001 194.993893 
L 336.624312 205.258213 
L 337.517559 223.237514 
L 337.74087 221.526794 
L 337.964182 223.237514 
L 338.187494 222.376574 
L 338.857429 240.352634 
L 339.08074 236.923274 
L 339.304052 228.369674 
L 339.527364 228.369674 
L 339.750675 220.677014 
L 339.973987 169.395377 
L 340.197299 147.983476 
L 340.42061 148.833255 
L 340.643922 160.830617 
L 340.867234 148.833255 
L 341.090545 150.532815 
L 341.313857 147.111375 
L 341.76048 143.689935 
L 342.207104 130.842794 
L 342.430415 134.264234 
L 342.653727 145.400655 
L 342.877039 144.539715 
L 343.323662 123.999914 
L 343.546973 123.172455 
L 343.770285 131.737216 
L 343.993597 131.737216 
L 344.216908 138.580096 
L 344.44022 136.847055 
L 344.663532 137.707995 
L 345.110155 119.739855 
L 345.333467 119.739855 
L 345.556778 114.607695 
L 346.003402 142.840155 
L 346.226713 138.557775 
L 346.673337 144.550875 
L 346.896648 141.129435 
L 347.11996 142.840155 
L 347.343272 142.840155 
L 347.566583 138.557775 
L 347.789895 138.557775 
L 348.236518 151.393755 
L 348.45983 149.683035 
L 348.683142 153.104475 
L 348.906453 154.815195 
L 349.129765 148.822095 
L 349.576388 148.822095 
L 349.7997 154.815195 
L 350.023012 149.683035 
L 350.246323 147.972315 
L 350.469635 145.400655 
L 350.692946 146.261595 
L 350.916258 141.129435 
L 351.362881 144.550875 
L 351.809505 144.550875 
L 352.032816 142.840155 
L 352.256128 147.122535 
L 352.47944 148.833255 
L 352.702751 154.826356 
L 352.926063 155.676135 
L 353.149375 157.386855 
L 353.372686 157.386855 
L 353.595998 179.670858 
L 353.81931 177.960138 
L 354.042621 177.960138 
L 354.265933 178.821078 
L 354.489245 186.536059 
L 354.712556 185.675118 
L 354.935868 189.096558 
L 355.15918 195.100819 
L 355.382491 193.390099 
L 355.605803 196.8227 
L 355.829115 195.11198 
L 356.052426 198.53342 
L 356.49905 198.53342 
L 356.722361 196.8227 
L 356.945673 200.24414 
L 357.168984 201.95486 
L 357.392296 207.95588 
L 357.615608 207.09494 
L 357.838919 209.65544 
L 358.062231 208.80566 
L 358.285543 208.80566 
L 358.955478 204.52328 
L 359.178789 203.662339 
L 359.402101 205.38422 
L 359.848724 195.100819 
L 360.072036 195.100819 
L 360.295348 199.3832 
L 360.518659 198.53342 
L 360.741971 198.53342 
L 360.965283 203.66558 
L 361.188594 201.95486 
L 361.858529 190.8296 
L 362.081841 191.679379 
L 362.305153 194.25104 
L 362.528464 194.25104 
L 362.975088 189.11888 
L 363.198399 189.97982 
L 363.421711 183.98672 
L 363.645023 184.836499 
L 363.868334 193.40126 
L 364.091646 196.8227 
L 364.314957 196.8227 
L 364.538269 200.24414 
L 364.761581 194.25104 
L 364.984892 195.96176 
L 365.208204 189.11888 
L 365.431516 189.97982 
L 365.878139 183.98672 
L 366.101451 184.84766 
L 366.324762 183.13694 
L 366.548074 187.430481 
L 366.771386 184.85882 
L 366.994697 194.273361 
L 367.218009 195.984081 
L 367.441321 191.7017 
L 367.887944 170.289799 
L 368.111256 167.729299 
L 368.334567 168.579079 
L 368.557879 160.014318 
L 368.781191 157.453819 
L 369.004502 160.875259 
L 369.227814 154.032379 
L 369.451126 158.314759 
L 369.674437 155.754259 
L 369.897749 165.157639 
L 370.121061 169.428859 
L 370.344372 166.018579 
L 370.567684 154.035619 
L 371.014307 152.324899 
L 371.46093 148.042519 
L 371.684242 161.736199 
L 371.907554 158.314759 
L 372.130865 161.736199 
L 372.354177 160.025479 
L 372.577489 164.307859 
L 372.8008 163.446919 
L 373.024112 166.018579 
L 373.247424 164.307859 
L 373.470735 171.150739 
L 373.694047 167.729299 
L 373.917359 167.729299 
L 374.14067 166.018579 
L 374.363982 169.440019 
L 374.587294 167.729299 
L 374.810605 167.729299 
L 375.033917 169.440019 
L 375.257229 169.440019 
L 375.703852 162.597139 
L 376.150475 162.597139 
L 376.373787 160.886419 
L 376.597099 161.736199 
L 376.82041 170.30096 
L 377.043722 164.307859 
L 377.267034 164.307859 
L 377.490345 157.464979 
L 377.936968 172.87262 
L 378.16028 176.29406 
L 378.383592 178.00478 
L 378.606903 178.00478 
L 378.830215 184.85882 
L 379.053527 182.298321 
L 379.50015 180.57644 
L 379.723462 172.02284 
L 380.170085 178.01594 
L 380.393397 167.75162 
L 380.84002 160.90082 
L 381.063332 166.0409 
L 381.286643 160.90082 
L 381.509955 160.90082 
L 381.733267 172.037241 
L 381.956578 170.326521 
L 382.17989 176.327541 
L 382.403202 175.469842 
L 382.626513 176.330782 
L 382.849825 176.330782 
L 383.073137 178.041502 
L 383.296448 177.202883 
L 383.743072 181.485263 
L 383.966383 173.781443 
L 384.189695 178.063823 
L 384.413007 173.781443 
L 384.636318 159.234743 
L 384.85963 160.956623 
L 385.082941 169.510223 
L 385.306253 166.938563 
L 385.529565 173.781443 
L 385.752876 185.767643 
L 385.976188 178.913603 
L 386.1995 198.600383 
L 386.422811 192.610523 
L 386.646123 162.689664 
L 386.869435 157.546344 
L 387.092746 177.258686 
L 387.316058 180.680126 
L 387.53937 178.108465 
L 387.762681 182.390846 
L 387.985993 181.529905 
L 388.209305 176.386585 
L 388.432616 179.808025 
L 388.655928 175.525645 
L 389.102551 156.674243 
L 389.325863 158.384963 
L 389.549175 161.817563 
L 389.772486 157.535183 
L 389.995798 162.678504 
L 390.21911 161.817563 
L 390.665733 164.378063 
L 390.889045 175.514484 
L 391.112356 172.953984 
L 391.335668 184.101566 
L 391.558979 172.965145 
L 391.782291 172.953984 
L 392.005603 174.664704 
L 392.228914 178.086144 
L 392.675538 174.653544 
L 392.898849 178.086144 
L 393.122161 172.093044 
L 393.345473 182.379685 
L 393.568784 185.801125 
L 393.792096 190.944446 
L 394.015408 192.655166 
L 394.238719 190.083505 
L 394.462031 194.365886 
L 394.685343 196.076606 
L 394.908654 196.926385 
L 395.131966 196.937546 
L 395.578589 184.951345 
L 395.801901 189.233726 
L 396.025213 197.798486 
L 396.248524 194.377046 
L 396.471836 189.233726 
L 396.695148 192.655166 
L 396.918459 181.518745 
L 397.141771 183.240625 
L 397.365083 183.240625 
L 397.588394 185.812286 
L 397.811706 190.955606 
L 398.481641 190.955606 
L 398.704952 192.666326 
L 398.928264 197.809647 
L 399.151576 192.666326 
L 399.374887 193.527266 
L 399.598199 193.527266 
L 399.821511 183.240625 
L 400.044822 180.668965 
L 400.268134 180.680126 
L 400.714757 177.258686 
L 400.938069 181.541066 
L 401.384692 178.969406 
L 401.608004 178.969406 
L 401.831316 183.251786 
L 402.054627 180.680126 
L 402.501251 178.969406 
L 402.724562 180.680126 
L 402.947874 185.823446 
L 403.171186 184.112726 
L 403.394497 181.541066 
L 403.617809 177.258686 
L 403.841121 178.108465 
L 404.064432 169.543705 
L 404.287744 166.122265 
L 404.511056 160.978944 
L 404.734367 161.828724 
L 404.957679 157.546344 
L 405.18099 156.696564 
L 405.404302 160.978944 
L 405.627614 162.689664 
L 405.850925 160.978944 
L 406.074237 157.546344 
L 406.297549 157.546344 
L 406.52086 160.967784 
L 406.744172 160.967784 
L 406.967484 155.835624 
L 407.190795 154.974683 
L 407.414107 151.553243 
L 407.637419 151.553243 
L 408.084042 157.546344 
L 408.307354 162.678504 
L 408.530665 161.817563 
L 408.753977 168.671604 
L 408.977289 170.382324 
L 409.2006 169.521384 
L 409.423912 165.239003 
L 409.647224 155.813303 
L 409.870535 163.528283 
L 410.093847 155.813303 
L 410.317159 157.524023 
L 410.54047 163.528283 
L 410.987094 156.674243 
L 411.210405 156.674243 
L 411.657029 166.949723 
L 411.88034 154.091422 
L 412.103652 158.373802 
L 412.326963 157.512862 
L 412.550275 154.091422 
L 412.773587 157.524023 
L 412.996898 150.669982 
L 413.22021 155.813303 
L 413.666833 145.548983 
L 413.890145 148.970423 
L 414.113457 145.548983 
L 414.336768 148.970423 
L 414.56008 143.838263 
L 414.783392 142.127543 
L 415.006703 145.548983 
L 415.453327 140.408903 
L 415.676638 137.837242 
L 415.89995 136.987463 
L 416.123262 135.276743 
L 416.346573 138.698183 
L 416.569885 133.554862 
L 416.793197 130.979961 
L 417.016508 126.700821 
L 417.23982 127.561762 
L 417.686443 131.844142 
L 417.909755 133.554862 
L 418.133067 131.844142 
L 418.356378 133.554862 
L 418.57969 138.698183 
L 419.249625 133.554862 
L 419.472936 140.408903 
L 419.91956 136.126522 
L 420.142871 130.133422 
L 420.589495 130.133422 
L 420.812806 125.851042 
L 421.036118 138.698183 
L 421.25943 133.554862 
L 421.482741 135.265582 
L 421.706053 135.265582 
L 421.929365 130.983202 
L 422.152676 134.412562 
L 422.375988 134.412562 
L 422.5993 141.255442 
L 422.822611 140.405662 
L 423.045923 136.123282 
L 423.269235 134.412562 
L 423.492546 134.412562 
L 423.715858 137.834002 
L 423.93917 127.547361 
L 424.162481 130.979961 
L 424.385793 128.408301 
L 424.609105 124.125921 
L 424.832416 128.408301 
L 425.055728 128.408301 
L 425.27904 129.269241 
L 425.502351 124.129161 
L 425.725663 124.129161 
L 425.948974 115.564401 
L 426.172286 115.564401 
L 426.395598 124.129161 
L 426.618909 121.557501 
L 426.842221 122.418441 
L 427.065533 124.129161 
L 427.288844 129.269241 
L 427.512156 130.979961 
L 427.735468 136.984222 
L 427.958779 133.554862 
L 428.182091 136.123282 
L 428.405403 134.412562 
L 428.628714 135.265582 
L 428.852026 130.983202 
L 429.075338 133.554862 
L 429.298649 133.554862 
L 429.521961 131.844142 
L 429.745273 132.693922 
L 429.968584 132.693922 
L 430.415208 125.839881 
L 430.638519 124.990101 
L 430.861831 131.840901 
L 431.085143 129.269241 
L 431.531766 136.987463 
L 431.755078 136.126522 
L 431.978389 134.415802 
L 432.201701 125.851042 
L 432.425013 129.272482 
L 432.648324 136.987463 
L 432.871636 134.415802 
L 433.094947 130.133422 
L 433.318259 131.844142 
L 433.541571 119.869102 
L 433.764882 119.869102 
L 433.988194 102.71726 
L 434.211506 100.179081 
L 434.434817 107.021961 
L 434.658129 110.443401 
L 434.881441 111.304341 
L 435.104752 113.864841 
L 435.328064 110.443401 
L 435.551376 98.457201 
L 435.774687 94.17482 
L 435.997999 95.88554 
L 436.221311 95.035761 
L 436.444622 95.035761 
L 436.891246 89.04266 
L 437.114557 85.62122 
L 437.337869 75.34574 
L 437.561181 80.4779 
L 438.231116 75.34574 
L 438.454427 78.76718 
L 438.677739 73.63502 
L 438.901051 71.92754 
L 439.570985 63.36278 
L 439.794297 56.5199 
L 440.017609 66.78422 
L 440.24092 65.0735 
L 440.464232 78.77834 
L 440.687544 70.20566 
L 440.910855 74.49596 
L 441.134167 75.34898 
L 441.357479 69.35588 
L 441.804102 79.639281 
L 442.027414 77.920641 
L 442.250725 84.782601 
L 442.474037 78.781581 
L 442.697349 81.353241 
L 442.92066 77.931801 
L 443.143972 83.063961 
L 443.813907 67.667481 
L 444.037219 66.817701 
L 444.26053 62.524161 
L 444.483842 61.674381 
L 444.707154 51.3989 
L 445.377089 83.075122 
L 445.6004 89.068222 
L 445.823712 86.496562 
L 446.047024 94.208302 
L 446.270335 94.208302 
L 446.493647 99.351623 
L 446.716958 96.779962 
L 446.94027 92.497582 
L 447.163582 100.212563 
L 447.386893 97.640903 
L 447.610205 107.069844 
L 447.833517 105.355883 
L 448.056828 108.777323 
L 448.503452 110.499204 
L 448.726763 108.777323 
L 448.950075 109.638264 
L 449.173387 109.638264 
L 449.396698 107.066603 
L 449.843322 119.063965 
L 450.066633 116.492304 
L 450.289945 118.203024 
L 450.95988 118.203024 
L 451.183192 121.624464 
L 451.629815 107.927544 
L 452.29975 119.913744 
L 452.523062 116.492304 
L 452.746373 114.781584 
L 453.192996 117.353245 
L 453.63962 113.059704 
L 454.086243 116.481144 
L 454.309555 113.909483 
L 454.532866 113.059704 
L 455.202801 101.923283 
L 455.649425 107.066603 
L 455.872736 107.066603 
L 456.096048 100.212563 
L 456.31936 99.351623 
L 456.542671 91.651043 
L 456.765983 91.651043 
L 456.989295 83.947223 
L 457.212606 82.236503 
L 457.435918 83.947223 
L 457.65923 89.090543 
L 457.882541 88.240763 
L 458.105853 88.240763 
L 458.329165 91.662203 
L 458.552476 90.801263 
L 458.9991 83.097443 
L 459.222411 74.543843 
L 459.445723 77.115503 
L 459.669035 84.819323 
L 459.892346 63.407422 
L 460.115658 79.687163 
L 460.338969 74.555003 
L 460.562281 72.844283 
L 460.785593 74.555003 
L 461.008904 62.568803 
L 461.232216 60.858083 
L 461.455528 62.568803 
L 461.678839 55.725923 
L 462.125463 75.393623 
L 462.348774 72.821962 
L 462.572086 74.521522 
L 462.795398 66.806541 
L 463.018709 69.378201 
L 463.242021 80.503461 
L 463.688644 86.496562 
L 463.911956 83.075122 
L 464.135268 83.075122 
L 464.358579 84.785842 
L 464.581891 79.653682 
L 464.805203 86.496562 
L 465.028514 84.782601 
L 465.251826 87.354261 
L 465.475138 101.040021 
L 465.698449 94.197141 
L 465.921761 92.486421 
L 466.145073 97.618581 
L 466.368384 95.058082 
L 466.591696 94.197141 
L 466.815008 91.625481 
L 467.038319 94.197141 
L 467.261631 86.493321 
L 467.484942 91.625481 
L 467.708254 100.190242 
L 467.931566 91.625481 
L 468.154877 93.336201 
L 468.601501 105.311241 
L 468.824812 102.750741 
L 469.048124 101.889801 
L 469.271436 100.179081 
L 469.494747 101.889801 
L 469.718059 105.322402 
L 470.164682 95.046921 
L 470.387994 98.468361 
L 470.611306 103.611682 
L 470.834617 99.329301 
L 471.057929 97.618581 
L 471.281241 103.611682 
L 471.504552 106.183342 
L 471.727864 111.326663 
L 471.951176 107.033122 
L 472.174487 114.736942 
L 472.621111 102.750741 
L 472.844422 105.311241 
L 473.067734 112.165282 
L 473.291046 113.876002 
L 473.737669 113.876002 
L 473.96098 110.454562 
L 474.184292 110.454562 
L 474.407604 107.894062 
L 474.630915 107.894062 
L 474.854227 111.315502 
L 475.077539 113.026222 
L 475.30085 118.169543 
L 475.524162 127.584083 
L 475.747474 129.305963 
L 476.194097 118.169543 
L 476.417409 118.169543 
L 476.64072 125.873363 
L 476.864032 119.880263 
L 477.087344 123.312863 
L 477.310655 120.741203 
L 477.533967 120.741203 
L 477.757279 125.023583 
L 478.427214 145.619186 
L 479.32046 163.576166 
L 479.543772 161.854286 
L 479.767084 166.125505 
L 479.990395 157.560745 
L 480.213707 178.969406 
L 480.437019 186.684386 
L 480.66033 178.130786 
L 480.883642 178.980566 
L 481.106953 175.559126 
L 481.330265 175.559126 
L 481.553577 168.697166 
L 481.776888 173.837246 
L 482.223512 170.415806 
L 482.446823 167.844145 
L 482.670135 169.554865 
L 482.893447 175.559126 
L 483.116758 176.412146 
L 483.34007 171.268826 
L 483.563382 178.130786 
L 483.786693 175.559126 
L 484.010005 181.552226 
L 484.233317 182.402006 
L 484.903252 210.690269 
L 485.126563 232.963111 
L 485.349875 234.684991 
L 485.796498 227.842111 
L 486.01981 222.698791 
L 486.243122 220.991311 
L 486.689745 224.420671 
L 486.913057 231.274712 
L 487.136368 244.121853 
L 487.35968 241.550192 
L 487.582991 240.689252 
L 488.029615 220.988071 
L 488.252926 222.698791 
L 488.476238 215.84475 
L 488.922861 224.409511 
L 489.146173 224.409511 
L 489.369485 218.416411 
L 489.592796 218.416411 
L 489.816108 222.698791 
L 490.262731 212.41215 
L 490.486043 216.69453 
L 490.709355 211.551209 
L 490.932666 208.979549 
L 491.37929 200.418029 
L 491.602601 214.12287 
L 491.825913 200.403628 
L 492.049225 201.253408 
L 492.495848 190.116987 
L 492.71916 187.545327 
L 492.942471 188.406267 
L 493.165783 190.116987 
L 493.389095 184.123887 
L 493.612406 189.267207 
L 493.835718 189.267207 
L 494.05903 182.413167 
L 494.282341 178.980566 
L 494.505653 188.406267 
L 494.952276 183.262946 
L 495.175588 190.116987 
L 495.398899 191.838868 
L 495.622211 188.417428 
L 495.845523 192.699808 
L 496.068834 190.116987 
L 496.292146 208.096288 
L 496.738769 208.096288 
L 497.185393 214.100549 
L 497.632016 210.667948 
L 497.855328 211.517728 
L 498.078639 228.647249 
L 498.301951 226.075589 
L 498.525263 232.929629 
L 498.748574 229.497029 
L 498.971886 230.357969 
L 499.418509 226.936529 
L 499.865133 230.357969 
L 500.088444 226.936529 
L 500.311756 229.508189 
L 500.535068 226.086749 
L 500.758379 227.797469 
L 500.981691 228.647249 
L 501.205003 228.647249 
L 501.428314 223.515089 
L 501.651626 233.80173 
L 501.874937 230.38029 
L 502.098249 229.51935 
L 502.321561 218.382929 
L 502.544872 223.515089 
L 502.768184 221.804369 
L 502.991496 223.515089 
L 503.438119 219.243869 
L 503.661431 220.093649 
L 503.884742 223.515089 
L 504.108054 221.793208 
L 504.331366 232.068689 
L 504.554677 231.207749 
L 504.777989 226.925368 
L 505.001301 231.207749 
L 505.224612 231.207749 
L 505.447924 233.768248 
L 505.671236 223.503928 
L 505.894547 223.503928 
L 506.117859 226.936529 
L 506.341171 226.936529 
L 506.564482 223.503928 
L 506.787794 232.068689 
L 507.011106 220.943429 
L 507.234417 215.800108 
L 507.457729 213.228448 
L 507.681041 217.510828 
L 507.904352 217.510828 
L 508.127664 207.224187 
L 508.350975 212.367508 
L 508.574287 212.378668 
L 508.797599 205.513467 
L 509.02091 223.492768 
L 509.244222 223.492768 
L 509.690845 211.495407 
L 509.914157 196.926385 
L 510.137469 197.787326 
L 510.36078 214.939168 
L 510.584092 216.649888 
L 510.807404 216.649888 
L 511.030715 218.360608 
L 511.254027 217.499668 
L 511.70065 223.492768 
L 511.923962 239.772509 
L 512.147274 225.203488 
L 512.370585 238.897168 
L 512.817209 274.01715 
L 513.04052 220.034606 
L 513.263832 218.323886 
L 513.487144 213.183806 
L 513.710455 238.047388 
L 513.933767 238.047388 
L 514.157079 244.904669 
L 514.38039 242.333009 
L 514.603702 246.615389 
L 514.827014 255.18807 
L 515.050325 255.18807 
L 515.273637 271.456651 
L 515.72026 274.878091 
L 515.943572 271.456651 
L 516.166883 273.167371 
L 516.613507 296.289992 
L 516.836818 343.440817 
L 517.06013 325.450356 
L 517.283442 210.586584 
L 517.506753 316.035816 
L 517.730065 314.325096 
L 517.953377 252.630811 
L 518.176688 262.067672 
L 518.4 300.538891 
L 518.4 300.538891 
" style="fill:none;stroke:#4c72b0;stroke-linecap:round;stroke-width:1.75;"/>
   </g>
   <g id="patch_3">
    <path d="M 72 356.4 
L 518.4 356.4 
" style="fill:none;"/>
   </g>
   <g id="patch_4">
    <path d="M 72 39.6 
L 518.4 39.6 
" style="fill:none;"/>
   </g>
   <g id="patch_5">
    <path d="M 72 356.4 
L 72 39.6 
" style="fill:none;"/>
   </g>
   <g id="patch_6">
    <path d="M 518.4 356.4 
L 518.4 39.6 
" style="fill:none;"/>
   </g>
   <g id="text_15">
    <!-- TA - 324.7045802168926 * TF -->
    <defs>
     <path d="M 9.125 0 
L 9.125 10.6875 
L 18.65625 10.6875 
L 18.65625 0 
z
" id="LiberationSans-2e"/>
     <path d="M 17.53125 61.1875 
L 17.53125 35.59375 
L 55.90625 35.59375 
L 55.90625 27.875 
L 17.53125 27.875 
L 17.53125 0 
L 8.203125 0 
L 8.203125 68.796875 
L 57.078125 68.796875 
L 57.078125 61.1875 
z
" id="LiberationSans-46"/>
     <path d="M 56.984375 0 
L 49.125 20.125 
L 17.78125 20.125 
L 9.859375 0 
L 0.203125 0 
L 28.265625 68.796875 
L 38.875 68.796875 
L 66.5 0 
z
M 37.5 50.09375 
Q 36.71875 52.046875 36 54.046875 
Q 35.296875 56.0625 34.765625 57.6875 
Q 34.234375 59.328125 33.859375 60.421875 
Q 33.5 61.53125 33.453125 61.765625 
Q 33.34375 61.53125 33 60.40625 
Q 32.671875 59.28125 32.109375 57.609375 
Q 31.546875 55.953125 30.828125 53.953125 
Q 30.125 51.953125 29.390625 50 
L 20.609375 27.390625 
L 46.34375 27.390625 
z
" id="LiberationSans-41"/>
     <path d="M 43.015625 15.578125 
L 43.015625 0 
L 34.71875 0 
L 34.71875 15.578125 
L 2.296875 15.578125 
L 2.296875 22.40625 
L 33.796875 68.796875 
L 43.015625 68.796875 
L 43.015625 22.515625 
L 52.6875 22.515625 
L 52.6875 15.578125 
z
M 34.71875 58.890625 
Q 34.625 58.640625 34.234375 57.9375 
Q 33.84375 57.234375 33.34375 56.34375 
Q 32.859375 55.46875 32.34375 54.5625 
Q 31.84375 53.65625 31.453125 53.078125 
L 13.8125 27.09375 
Q 13.578125 26.703125 13.109375 26.0625 
Q 12.640625 25.4375 12.15625 24.78125 
Q 11.671875 24.125 11.171875 23.484375 
Q 10.6875 22.859375 10.40625 22.515625 
L 34.71875 22.515625 
z
" id="LiberationSans-34"/>
     <path d="M 22.265625 54.390625 
L 35.15625 59.421875 
L 37.359375 52.984375 
L 23.578125 49.421875 
L 32.625 37.203125 
L 26.8125 33.6875 
L 19.484375 46.296875 
L 11.859375 33.796875 
L 6.0625 37.3125 
L 15.28125 49.421875 
L 1.609375 52.984375 
L 3.8125 59.515625 
L 16.84375 54.296875 
L 16.265625 68.796875 
L 22.90625 68.796875 
z
" id="LiberationSans-2a"/>
     <path d="M 35.15625 61.1875 
L 35.15625 0 
L 25.875 0 
L 25.875 61.1875 
L 2.25 61.1875 
L 2.25 68.796875 
L 58.796875 68.796875 
L 58.796875 61.1875 
z
" id="LiberationSans-54"/>
    </defs>
    <g style="fill:#262626;" transform="translate(214.1634375 34.6)scale(0.12 -0.12)">
     <use xlink:href="#LiberationSans-54"/>
     <use x="60.974609375" xlink:href="#LiberationSans-41"/>
     <use x="127.595703125" xlink:href="#LiberationSans-20"/>
     <use x="155.37890625" xlink:href="#LiberationSans-2d"/>
     <use x="188.6796875" xlink:href="#LiberationSans-20"/>
     <use x="216.462890625" xlink:href="#LiberationSans-33"/>
     <use x="272.078125" xlink:href="#LiberationSans-32"/>
     <use x="327.693359375" xlink:href="#LiberationSans-34"/>
     <use x="383.30859375" xlink:href="#LiberationSans-2e"/>
     <use x="411.091796875" xlink:href="#LiberationSans-37"/>
     <use x="466.70703125" xlink:href="#LiberationSans-30"/>
     <use x="522.322265625" xlink:href="#LiberationSans-34"/>
     <use x="577.9375" xlink:href="#LiberationSans-35"/>
     <use x="633.552734375" xlink:href="#LiberationSans-38"/>
     <use x="689.16796875" xlink:href="#LiberationSans-30"/>
     <use x="744.783203125" xlink:href="#LiberationSans-32"/>
     <use x="800.3984375" xlink:href="#LiberationSans-31"/>
     <use x="856.013671875" xlink:href="#LiberationSans-36"/>
     <use x="911.62890625" xlink:href="#LiberationSans-38"/>
     <use x="967.244140625" xlink:href="#LiberationSans-39"/>
     <use x="1022.859375" xlink:href="#LiberationSans-32"/>
     <use x="1078.474609375" xlink:href="#LiberationSans-36"/>
     <use x="1134.08984375" xlink:href="#LiberationSans-20"/>
     <use x="1161.873046875" xlink:href="#LiberationSans-2a"/>
     <use x="1200.7890625" xlink:href="#LiberationSans-20"/>
     <use x="1228.556640625" xlink:href="#LiberationSans-54"/>
     <use x="1289.640625" xlink:href="#LiberationSans-46"/>
    </g>
   </g>
  </g>
 </g>
 <defs>
  <clipPath id="pea44e757af">
   <rect height="316.8" width="446.4" x="72.0" y="39.6"/>
  </clipPath>
 </defs>
</svg>
