<?xml version="1.0" encoding="utf-8" standalone="no"?>
<!DOCTYPE svg PUBLIC "-//W3C//DTD SVG 1.1//EN"
  "http://www.w3.org/Graphics/SVG/1.1/DTD/svg11.dtd">
<!-- Created with matplotlib (http://matplotlib.org/) -->
<svg height="396pt" version="1.1" viewBox="0 0 576 396" width="576pt" xmlns="http://www.w3.org/2000/svg" xmlns:xlink="http://www.w3.org/1999/xlink">
 <defs>
  <style type="text/css">
*{stroke-linecap:butt;stroke-linejoin:round;stroke-miterlimit:100000;}
  </style>
 </defs>
 <g id="figure_1">
  <g id="patch_1">
   <path d="M 0 396 
L 576 396 
L 576 0 
L 0 0 
z
" style="fill:#ffffff;"/>
  </g>
  <g id="axes_1">
   <g id="patch_2">
    <path d="M 72 356.4 
L 518.4 356.4 
L 518.4 39.6 
L 72 39.6 
z
" style="fill:#eaeaf2;"/>
   </g>
   <g id="matplotlib.axis_1">
    <g id="xtick_1">
     <g id="line2d_1">
      <path clip-path="url(#p4e788c256b)" d="M 72 356.4 
L 72 39.6 
" style="fill:none;stroke:#ffffff;stroke-linecap:round;"/>
     </g>
     <g id="line2d_2"/>
     <g id="line2d_3"/>
     <g id="text_1">
      <!-- 2015-11-16 10:13:00 -->
      <defs>
       <path d="M 5.03125 0 
L 5.03125 6.203125 
Q 7.515625 11.921875 11.109375 16.28125 
Q 14.703125 20.65625 18.65625 24.1875 
Q 22.609375 27.734375 26.484375 30.765625 
Q 30.375 33.796875 33.5 36.8125 
Q 36.625 39.84375 38.546875 43.15625 
Q 40.484375 46.484375 40.484375 50.6875 
Q 40.484375 53.609375 39.59375 55.828125 
Q 38.71875 58.0625 37.0625 59.5625 
Q 35.40625 61.078125 33.078125 61.828125 
Q 30.765625 62.59375 27.9375 62.59375 
Q 25.296875 62.59375 22.96875 61.859375 
Q 20.65625 61.140625 18.84375 59.671875 
Q 17.046875 58.203125 15.890625 56.03125 
Q 14.75 53.859375 14.40625 50.984375 
L 5.421875 51.8125 
Q 5.859375 55.515625 7.46875 58.78125 
Q 9.078125 62.0625 11.90625 64.53125 
Q 14.75 67 18.71875 68.40625 
Q 22.703125 69.828125 27.9375 69.828125 
Q 33.0625 69.828125 37.0625 68.609375 
Q 41.0625 67.390625 43.8125 64.984375 
Q 46.578125 62.59375 48.046875 59.078125 
Q 49.515625 55.5625 49.515625 50.984375 
Q 49.515625 47.515625 48.265625 44.390625 
Q 47.015625 41.265625 44.9375 38.421875 
Q 42.875 35.59375 40.140625 32.953125 
Q 37.40625 30.328125 34.421875 27.8125 
Q 31.453125 25.296875 28.421875 22.828125 
Q 25.390625 20.359375 22.71875 17.859375 
Q 20.0625 15.375 17.96875 12.8125 
Q 15.875 10.25 14.703125 7.46875 
L 50.59375 7.46875 
L 50.59375 0 
z
" id="LiberationSans-32"/>
       <path d="M 7.625 0 
L 7.625 7.46875 
L 25.140625 7.46875 
L 25.140625 60.40625 
L 9.625 49.3125 
L 9.625 57.625 
L 25.875 68.796875 
L 33.984375 68.796875 
L 33.984375 7.46875 
L 50.734375 7.46875 
L 50.734375 0 
z
" id="LiberationSans-31"/>
       <path d="M 51.703125 34.421875 
Q 51.703125 24.515625 49.828125 17.75 
Q 47.953125 10.984375 44.703125 6.8125 
Q 41.453125 2.640625 37.0625 0.828125 
Q 32.671875 -0.984375 27.6875 -0.984375 
Q 22.65625 -0.984375 18.3125 0.828125 
Q 13.96875 2.640625 10.765625 6.78125 
Q 7.5625 10.9375 5.734375 17.703125 
Q 3.90625 24.46875 3.90625 34.421875 
Q 3.90625 44.828125 5.734375 51.640625 
Q 7.5625 58.453125 10.78125 62.5 
Q 14.015625 66.546875 18.40625 68.1875 
Q 22.796875 69.828125 27.984375 69.828125 
Q 32.90625 69.828125 37.21875 68.1875 
Q 41.546875 66.546875 44.765625 62.5 
Q 48 58.453125 49.84375 51.640625 
Q 51.703125 44.828125 51.703125 34.421875 
M 42.78125 34.421875 
Q 42.78125 42.625 41.796875 48.0625 
Q 40.828125 53.515625 38.921875 56.765625 
Q 37.015625 60.015625 34.25 61.359375 
Q 31.5 62.703125 27.984375 62.703125 
Q 24.265625 62.703125 21.4375 61.328125 
Q 18.609375 59.96875 16.671875 56.71875 
Q 14.75 53.46875 13.765625 48.015625 
Q 12.796875 42.578125 12.796875 34.421875 
Q 12.796875 26.515625 13.796875 21.09375 
Q 14.796875 15.671875 16.71875 12.375 
Q 18.65625 9.078125 21.4375 7.640625 
Q 24.21875 6.203125 27.78125 6.203125 
Q 31.25 6.203125 34.03125 7.640625 
Q 36.8125 9.078125 38.734375 12.375 
Q 40.671875 15.671875 41.71875 21.09375 
Q 42.78125 26.515625 42.78125 34.421875 
" id="LiberationSans-30"/>
       <path d="M 9.125 42.71875 
L 9.125 52.828125 
L 18.65625 52.828125 
L 18.65625 42.71875 
z
M 9.125 0 
L 9.125 10.109375 
L 18.65625 10.109375 
L 18.65625 0 
z
" id="LiberationSans-3a"/>
       <path d="M 51.21875 19 
Q 51.21875 14.265625 49.671875 10.546875 
Q 48.140625 6.84375 45.1875 4.265625 
Q 42.234375 1.703125 37.859375 0.359375 
Q 33.5 -0.984375 27.875 -0.984375 
Q 21.484375 -0.984375 17.109375 0.609375 
Q 12.75 2.203125 9.90625 4.8125 
Q 7.078125 7.421875 5.65625 10.765625 
Q 4.25 14.109375 3.8125 17.671875 
L 12.890625 18.5 
Q 13.28125 15.765625 14.328125 13.515625 
Q 15.375 11.28125 17.1875 9.671875 
Q 19 8.0625 21.625 7.171875 
Q 24.265625 6.296875 27.875 6.296875 
Q 34.515625 6.296875 38.296875 9.5625 
Q 42.09375 12.84375 42.09375 19.28125 
Q 42.09375 23.09375 40.40625 25.40625 
Q 38.71875 27.734375 36.203125 29.03125 
Q 33.6875 30.328125 30.734375 30.765625 
Q 27.78125 31.203125 25.296875 31.203125 
L 20.3125 31.203125 
L 20.3125 38.8125 
L 25.09375 38.8125 
Q 27.59375 38.8125 30.265625 39.328125 
Q 32.953125 39.84375 35.171875 41.1875 
Q 37.40625 42.53125 38.84375 44.828125 
Q 40.28125 47.125 40.28125 50.6875 
Q 40.28125 56.203125 37.03125 59.390625 
Q 33.796875 62.59375 27.390625 62.59375 
Q 21.578125 62.59375 17.984375 59.609375 
Q 14.40625 56.640625 13.8125 51.21875 
L 4.984375 51.90625 
Q 5.515625 56.453125 7.46875 59.8125 
Q 9.421875 63.1875 12.421875 65.40625 
Q 15.4375 67.625 19.28125 68.71875 
Q 23.140625 69.828125 27.484375 69.828125 
Q 33.25 69.828125 37.390625 68.375 
Q 41.546875 66.9375 44.1875 64.46875 
Q 46.828125 62.015625 48.0625 58.6875 
Q 49.3125 55.375 49.3125 51.609375 
Q 49.3125 48.578125 48.484375 45.9375 
Q 47.65625 43.3125 45.890625 41.203125 
Q 44.140625 39.109375 41.421875 37.59375 
Q 38.71875 36.078125 34.90625 35.296875 
L 34.90625 35.109375 
Q 39.0625 34.671875 42.140625 33.21875 
Q 45.21875 31.78125 47.21875 29.625 
Q 49.21875 27.484375 50.21875 24.75 
Q 51.21875 22.015625 51.21875 19 
" id="LiberationSans-33"/>
       <path d="M 51.421875 22.40625 
Q 51.421875 17.234375 49.859375 12.9375 
Q 48.296875 8.640625 45.21875 5.53125 
Q 42.140625 2.4375 37.578125 0.71875 
Q 33.015625 -0.984375 27 -0.984375 
Q 21.578125 -0.984375 17.546875 0.28125 
Q 13.53125 1.5625 10.734375 3.78125 
Q 7.953125 6 6.3125 8.984375 
Q 4.6875 11.96875 4 15.375 
L 12.890625 16.40625 
Q 13.421875 14.453125 14.390625 12.625 
Q 15.375 10.796875 17.0625 9.34375 
Q 18.75 7.90625 21.21875 7.046875 
Q 23.6875 6.203125 27.203125 6.203125 
Q 30.609375 6.203125 33.390625 7.25 
Q 36.1875 8.296875 38.15625 10.34375 
Q 40.140625 12.40625 41.203125 15.375 
Q 42.28125 18.359375 42.28125 22.21875 
Q 42.28125 25.390625 41.25 28.046875 
Q 40.234375 30.71875 38.328125 32.640625 
Q 36.421875 34.578125 33.65625 35.640625 
Q 30.90625 36.71875 27.390625 36.71875 
Q 25.203125 36.71875 23.34375 36.328125 
Q 21.484375 35.9375 19.890625 35.25 
Q 18.3125 34.578125 17.015625 33.671875 
Q 15.71875 32.765625 14.59375 31.78125 
L 6 31.78125 
L 8.296875 68.796875 
L 47.40625 68.796875 
L 47.40625 61.328125 
L 16.3125 61.328125 
L 14.984375 39.5 
Q 17.328125 41.3125 20.84375 42.59375 
Q 24.359375 43.890625 29.203125 43.890625 
Q 34.328125 43.890625 38.421875 42.328125 
Q 42.53125 40.765625 45.40625 37.90625 
Q 48.296875 35.0625 49.859375 31.109375 
Q 51.421875 27.15625 51.421875 22.40625 
" id="LiberationSans-35"/>
       <path id="LiberationSans-20"/>
       <path d="M 4.4375 22.65625 
L 4.4375 30.46875 
L 28.859375 30.46875 
L 28.859375 22.65625 
z
" id="LiberationSans-2d"/>
       <path d="M 51.21875 22.515625 
Q 51.21875 17.328125 49.78125 13 
Q 48.34375 8.6875 45.53125 5.578125 
Q 42.71875 2.484375 38.5625 0.75 
Q 34.421875 -0.984375 29 -0.984375 
Q 23 -0.984375 18.5 1.3125 
Q 14.015625 3.609375 11.03125 7.921875 
Q 8.0625 12.25 6.5625 18.53125 
Q 5.078125 24.8125 5.078125 32.8125 
Q 5.078125 42 6.765625 48.921875 
Q 8.453125 55.859375 11.625 60.5 
Q 14.796875 65.140625 19.359375 67.484375 
Q 23.921875 69.828125 29.6875 69.828125 
Q 33.203125 69.828125 36.28125 69.09375 
Q 39.359375 68.359375 41.875 66.71875 
Q 44.390625 65.09375 46.28125 62.40625 
Q 48.1875 59.71875 49.3125 55.8125 
L 40.921875 54.296875 
Q 39.546875 58.734375 36.546875 60.71875 
Q 33.546875 62.703125 29.59375 62.703125 
Q 25.984375 62.703125 23.046875 60.984375 
Q 20.125 59.28125 18.0625 55.875 
Q 16.015625 52.484375 14.90625 47.359375 
Q 13.8125 42.234375 13.8125 35.40625 
Q 16.21875 39.84375 20.5625 42.15625 
Q 24.90625 44.484375 30.515625 44.484375 
Q 35.203125 44.484375 39.015625 42.96875 
Q 42.828125 41.453125 45.53125 38.59375 
Q 48.25 35.75 49.734375 31.671875 
Q 51.21875 27.59375 51.21875 22.515625 
M 42.28125 22.125 
Q 42.28125 25.6875 41.40625 28.5625 
Q 40.53125 31.453125 38.765625 33.46875 
Q 37.015625 35.5 34.421875 36.59375 
Q 31.84375 37.703125 28.421875 37.703125 
Q 26.03125 37.703125 23.578125 36.984375 
Q 21.140625 36.28125 19.15625 34.6875 
Q 17.1875 33.109375 15.9375 30.515625 
Q 14.703125 27.9375 14.703125 24.21875 
Q 14.703125 20.40625 15.671875 17.109375 
Q 16.65625 13.8125 18.484375 11.375 
Q 20.3125 8.9375 22.890625 7.515625 
Q 25.484375 6.109375 28.71875 6.109375 
Q 31.890625 6.109375 34.40625 7.203125 
Q 36.921875 8.296875 38.671875 10.375 
Q 40.4375 12.453125 41.359375 15.421875 
Q 42.28125 18.40625 42.28125 22.125 
" id="LiberationSans-36"/>
      </defs>
      <g style="fill:#262626;" transform="translate(25.5765625 370.646875)scale(0.1 -0.1)">
       <use xlink:href="#LiberationSans-32"/>
       <use x="55.615234375" xlink:href="#LiberationSans-30"/>
       <use x="111.23046875" xlink:href="#LiberationSans-31"/>
       <use x="166.845703125" xlink:href="#LiberationSans-35"/>
       <use x="222.4609375" xlink:href="#LiberationSans-2d"/>
       <use x="255.76171875" xlink:href="#LiberationSans-31"/>
       <use x="311.376953125" xlink:href="#LiberationSans-31"/>
       <use x="366.9921875" xlink:href="#LiberationSans-2d"/>
       <use x="400.29296875" xlink:href="#LiberationSans-31"/>
       <use x="455.908203125" xlink:href="#LiberationSans-36"/>
       <use x="511.5234375" xlink:href="#LiberationSans-20"/>
       <use x="539.306640625" xlink:href="#LiberationSans-31"/>
       <use x="594.921875" xlink:href="#LiberationSans-30"/>
       <use x="650.537109375" xlink:href="#LiberationSans-3a"/>
       <use x="678.3203125" xlink:href="#LiberationSans-31"/>
       <use x="733.935546875" xlink:href="#LiberationSans-33"/>
       <use x="789.55078125" xlink:href="#LiberationSans-3a"/>
       <use x="817.333984375" xlink:href="#LiberationSans-30"/>
       <use x="872.94921875" xlink:href="#LiberationSans-30"/>
      </g>
     </g>
    </g>
    <g id="xtick_2">
     <g id="line2d_4">
      <path clip-path="url(#p4e788c256b)" d="M 183.655828 356.4 
L 183.655828 39.6 
" style="fill:none;stroke:#ffffff;stroke-linecap:round;"/>
     </g>
     <g id="line2d_5"/>
     <g id="line2d_6"/>
     <g id="text_2">
      <!-- 2015-11-18 13:52:00 -->
      <defs>
       <path d="M 51.265625 19.1875 
Q 51.265625 14.796875 49.875 11.109375 
Q 48.484375 7.421875 45.625 4.734375 
Q 42.78125 2.046875 38.328125 0.53125 
Q 33.890625 -0.984375 27.828125 -0.984375 
Q 21.78125 -0.984375 17.359375 0.53125 
Q 12.9375 2.046875 10.03125 4.703125 
Q 7.125 7.375 5.734375 11.0625 
Q 4.34375 14.75 4.34375 19.09375 
Q 4.34375 22.859375 5.484375 25.78125 
Q 6.640625 28.71875 8.5625 30.828125 
Q 10.5 32.953125 12.96875 34.25 
Q 15.4375 35.546875 18.0625 35.984375 
L 18.0625 36.1875 
Q 15.1875 36.859375 12.90625 38.375 
Q 10.640625 39.890625 9.09375 42.015625 
Q 7.5625 44.140625 6.75 46.71875 
Q 5.953125 49.3125 5.953125 52.203125 
Q 5.953125 55.8125 7.34375 59 
Q 8.734375 62.203125 11.46875 64.625 
Q 14.203125 67.046875 18.25 68.4375 
Q 22.3125 69.828125 27.640625 69.828125 
Q 33.25 69.828125 37.375 68.40625 
Q 41.5 67 44.203125 64.578125 
Q 46.921875 62.15625 48.234375 58.9375 
Q 49.5625 55.71875 49.5625 52.09375 
Q 49.5625 49.265625 48.75 46.671875 
Q 47.953125 44.09375 46.40625 41.96875 
Q 44.875 39.84375 42.59375 38.34375 
Q 40.328125 36.859375 37.359375 36.28125 
L 37.359375 36.078125 
Q 40.328125 35.59375 42.859375 34.296875 
Q 45.40625 33.015625 47.265625 30.890625 
Q 49.125 28.765625 50.1875 25.828125 
Q 51.265625 22.90625 51.265625 19.1875 
M 40.4375 51.609375 
Q 40.4375 54.203125 39.765625 56.34375 
Q 39.109375 58.5 37.59375 60.03125 
Q 36.078125 61.578125 33.640625 62.421875 
Q 31.203125 63.28125 27.640625 63.28125 
Q 24.171875 63.28125 21.78125 62.421875 
Q 19.390625 61.578125 17.84375 60.03125 
Q 16.3125 58.5 15.625 56.34375 
Q 14.9375 54.203125 14.9375 51.609375 
Q 14.9375 49.5625 15.46875 47.40625 
Q 16.015625 45.265625 17.421875 43.5 
Q 18.84375 41.75 21.328125 40.625 
Q 23.828125 39.5 27.734375 39.5 
Q 31.890625 39.5 34.40625 40.625 
Q 36.921875 41.75 38.25 43.5 
Q 39.59375 45.265625 40.015625 47.40625 
Q 40.4375 49.5625 40.4375 51.609375 
M 42.140625 20.015625 
Q 42.140625 22.515625 41.453125 24.828125 
Q 40.765625 27.15625 39.109375 28.9375 
Q 37.453125 30.71875 34.640625 31.8125 
Q 31.84375 32.90625 27.640625 32.90625 
Q 23.78125 32.90625 21.0625 31.8125 
Q 18.359375 30.71875 16.671875 28.90625 
Q 14.984375 27.09375 14.203125 24.71875 
Q 13.421875 22.359375 13.421875 19.828125 
Q 13.421875 16.65625 14.203125 14.03125 
Q 14.984375 11.421875 16.6875 9.546875 
Q 18.40625 7.671875 21.1875 6.640625 
Q 23.96875 5.609375 27.9375 5.609375 
Q 31.9375 5.609375 34.671875 6.640625 
Q 37.40625 7.671875 39.0625 9.546875 
Q 40.71875 11.421875 41.421875 14.078125 
Q 42.140625 16.75 42.140625 20.015625 
" id="LiberationSans-38"/>
      </defs>
      <g style="fill:#262626;" transform="translate(137.232390414 370.646875)scale(0.1 -0.1)">
       <use xlink:href="#LiberationSans-32"/>
       <use x="55.615234375" xlink:href="#LiberationSans-30"/>
       <use x="111.23046875" xlink:href="#LiberationSans-31"/>
       <use x="166.845703125" xlink:href="#LiberationSans-35"/>
       <use x="222.4609375" xlink:href="#LiberationSans-2d"/>
       <use x="255.76171875" xlink:href="#LiberationSans-31"/>
       <use x="311.376953125" xlink:href="#LiberationSans-31"/>
       <use x="366.9921875" xlink:href="#LiberationSans-2d"/>
       <use x="400.29296875" xlink:href="#LiberationSans-31"/>
       <use x="455.908203125" xlink:href="#LiberationSans-38"/>
       <use x="511.5234375" xlink:href="#LiberationSans-20"/>
       <use x="539.306640625" xlink:href="#LiberationSans-31"/>
       <use x="594.921875" xlink:href="#LiberationSans-33"/>
       <use x="650.537109375" xlink:href="#LiberationSans-3a"/>
       <use x="678.3203125" xlink:href="#LiberationSans-35"/>
       <use x="733.935546875" xlink:href="#LiberationSans-32"/>
       <use x="789.55078125" xlink:href="#LiberationSans-3a"/>
       <use x="817.333984375" xlink:href="#LiberationSans-30"/>
       <use x="872.94921875" xlink:href="#LiberationSans-30"/>
      </g>
     </g>
    </g>
    <g id="xtick_3">
     <g id="line2d_7">
      <path clip-path="url(#p4e788c256b)" d="M 295.311656 356.4 
L 295.311656 39.6 
" style="fill:none;stroke:#ffffff;stroke-linecap:round;"/>
     </g>
     <g id="line2d_8"/>
     <g id="line2d_9"/>
     <g id="text_3">
      <!-- 2015-11-23 09:25:00 -->
      <defs>
       <path d="M 50.875 35.796875 
Q 50.875 26.609375 49.140625 19.703125 
Q 47.40625 12.796875 44.1875 8.203125 
Q 40.96875 3.609375 36.34375 1.3125 
Q 31.734375 -0.984375 25.984375 -0.984375 
Q 22.015625 -0.984375 18.84375 -0.171875 
Q 15.671875 0.640625 13.171875 2.34375 
Q 10.6875 4.046875 8.921875 6.78125 
Q 7.171875 9.515625 6.109375 13.375 
L 14.5 14.703125 
Q 15.875 10.25 18.78125 8.171875 
Q 21.6875 6.109375 26.125 6.109375 
Q 29.6875 6.109375 32.640625 7.78125 
Q 35.59375 9.46875 37.671875 12.84375 
Q 39.75 16.21875 40.921875 21.296875 
Q 42.09375 26.375 42.1875 33.203125 
Q 41.15625 30.90625 39.375 29.09375 
Q 37.59375 27.296875 35.328125 26.046875 
Q 33.0625 24.8125 30.421875 24.140625 
Q 27.78125 23.484375 25.09375 23.484375 
Q 20.40625 23.484375 16.625 25.171875 
Q 12.84375 26.859375 10.203125 29.875 
Q 7.5625 32.90625 6.125 37.171875 
Q 4.6875 41.453125 4.6875 46.6875 
Q 4.6875 52 6.21875 56.296875 
Q 7.765625 60.59375 10.6875 63.59375 
Q 13.625 66.609375 17.890625 68.21875 
Q 22.171875 69.828125 27.59375 69.828125 
Q 39.0625 69.828125 44.96875 61.328125 
Q 50.875 52.828125 50.875 35.796875 
M 41.3125 44.28125 
Q 41.3125 48.09375 40.40625 51.453125 
Q 39.5 54.828125 37.71875 57.3125 
Q 35.9375 59.8125 33.328125 61.25 
Q 30.71875 62.703125 27.296875 62.703125 
Q 24.125 62.703125 21.578125 61.578125 
Q 19.046875 60.453125 17.28125 58.375 
Q 15.53125 56.296875 14.578125 53.3125 
Q 13.625 50.34375 13.625 46.6875 
Q 13.625 43.21875 14.46875 40.234375 
Q 15.328125 37.25 17.03125 35.078125 
Q 18.75 32.90625 21.28125 31.65625 
Q 23.828125 30.421875 27.203125 30.421875 
Q 29.640625 30.421875 32.15625 31.25 
Q 34.671875 32.078125 36.6875 33.78125 
Q 38.71875 35.5 40.015625 38.109375 
Q 41.3125 40.71875 41.3125 44.28125 
" id="LiberationSans-39"/>
      </defs>
      <g style="fill:#262626;" transform="translate(248.888218328 370.646875)scale(0.1 -0.1)">
       <use xlink:href="#LiberationSans-32"/>
       <use x="55.615234375" xlink:href="#LiberationSans-30"/>
       <use x="111.23046875" xlink:href="#LiberationSans-31"/>
       <use x="166.845703125" xlink:href="#LiberationSans-35"/>
       <use x="222.4609375" xlink:href="#LiberationSans-2d"/>
       <use x="255.76171875" xlink:href="#LiberationSans-31"/>
       <use x="311.376953125" xlink:href="#LiberationSans-31"/>
       <use x="366.9921875" xlink:href="#LiberationSans-2d"/>
       <use x="400.29296875" xlink:href="#LiberationSans-32"/>
       <use x="455.908203125" xlink:href="#LiberationSans-33"/>
       <use x="511.5234375" xlink:href="#LiberationSans-20"/>
       <use x="539.306640625" xlink:href="#LiberationSans-30"/>
       <use x="594.921875" xlink:href="#LiberationSans-39"/>
       <use x="650.537109375" xlink:href="#LiberationSans-3a"/>
       <use x="678.3203125" xlink:href="#LiberationSans-32"/>
       <use x="733.935546875" xlink:href="#LiberationSans-35"/>
       <use x="789.55078125" xlink:href="#LiberationSans-3a"/>
       <use x="817.333984375" xlink:href="#LiberationSans-30"/>
       <use x="872.94921875" xlink:href="#LiberationSans-30"/>
      </g>
     </g>
    </g>
    <g id="xtick_4">
     <g id="line2d_10">
      <path clip-path="url(#p4e788c256b)" d="M 406.967484 356.4 
L 406.967484 39.6 
" style="fill:none;stroke:#ffffff;stroke-linecap:round;"/>
     </g>
     <g id="line2d_11"/>
     <g id="line2d_12"/>
     <g id="text_4">
      <!-- 2015-11-25 11:00:00 -->
      <g style="fill:#262626;" transform="translate(360.544046242 370.646875)scale(0.1 -0.1)">
       <use xlink:href="#LiberationSans-32"/>
       <use x="55.615234375" xlink:href="#LiberationSans-30"/>
       <use x="111.23046875" xlink:href="#LiberationSans-31"/>
       <use x="166.845703125" xlink:href="#LiberationSans-35"/>
       <use x="222.4609375" xlink:href="#LiberationSans-2d"/>
       <use x="255.76171875" xlink:href="#LiberationSans-31"/>
       <use x="311.376953125" xlink:href="#LiberationSans-31"/>
       <use x="366.9921875" xlink:href="#LiberationSans-2d"/>
       <use x="400.29296875" xlink:href="#LiberationSans-32"/>
       <use x="455.908203125" xlink:href="#LiberationSans-35"/>
       <use x="511.5234375" xlink:href="#LiberationSans-20"/>
       <use x="539.306640625" xlink:href="#LiberationSans-31"/>
       <use x="594.921875" xlink:href="#LiberationSans-31"/>
       <use x="650.537109375" xlink:href="#LiberationSans-3a"/>
       <use x="678.3203125" xlink:href="#LiberationSans-30"/>
       <use x="733.935546875" xlink:href="#LiberationSans-30"/>
       <use x="789.55078125" xlink:href="#LiberationSans-3a"/>
       <use x="817.333984375" xlink:href="#LiberationSans-30"/>
       <use x="872.94921875" xlink:href="#LiberationSans-30"/>
      </g>
     </g>
    </g>
    <g id="text_5">
     <!-- time -->
     <defs>
      <path d="M 13.484375 24.5625 
Q 13.484375 20.40625 14.328125 16.90625 
Q 15.1875 13.421875 16.96875 10.90625 
Q 18.75 8.40625 21.53125 7 
Q 24.3125 5.609375 28.21875 5.609375 
Q 33.9375 5.609375 37.375 7.90625 
Q 40.828125 10.203125 42.046875 13.71875 
L 49.75 11.53125 
Q 48.921875 9.328125 47.4375 7.109375 
Q 45.953125 4.890625 43.453125 3.09375 
Q 40.96875 1.3125 37.234375 0.15625 
Q 33.5 -0.984375 28.21875 -0.984375 
Q 16.5 -0.984375 10.375 6 
Q 4.25 12.984375 4.25 26.765625 
Q 4.25 34.1875 6.09375 39.328125 
Q 7.953125 44.484375 11.171875 47.703125 
Q 14.40625 50.921875 18.703125 52.359375 
Q 23 53.8125 27.875 53.8125 
Q 34.515625 53.8125 38.984375 51.65625 
Q 43.453125 49.515625 46.15625 45.71875 
Q 48.875 41.9375 50.015625 36.8125 
Q 51.171875 31.6875 51.171875 25.734375 
L 51.171875 24.5625 
z
M 42.09375 31.296875 
Q 41.359375 39.65625 37.84375 43.484375 
Q 34.328125 47.3125 27.734375 47.3125 
Q 25.53125 47.3125 23.109375 46.609375 
Q 20.703125 45.90625 18.65625 44.09375 
Q 16.609375 42.28125 15.1875 39.171875 
Q 13.765625 36.078125 13.578125 31.296875 
z
" id="LiberationSans-65"/>
      <path d="M 6.6875 64.0625 
L 6.6875 72.46875 
L 15.484375 72.46875 
L 15.484375 64.0625 
z
M 6.6875 0 
L 6.6875 52.828125 
L 15.484375 52.828125 
L 15.484375 0 
z
" id="LiberationSans-69"/>
      <path d="M 27.046875 0.390625 
Q 25.046875 -0.140625 22.96875 -0.453125 
Q 20.90625 -0.78125 18.171875 -0.78125 
Q 7.625 -0.78125 7.625 11.1875 
L 7.625 46.4375 
L 1.515625 46.4375 
L 1.515625 52.828125 
L 7.953125 52.828125 
L 10.546875 64.65625 
L 16.40625 64.65625 
L 16.40625 52.828125 
L 26.171875 52.828125 
L 26.171875 46.4375 
L 16.40625 46.4375 
L 16.40625 13.09375 
Q 16.40625 9.28125 17.640625 7.734375 
Q 18.890625 6.203125 21.96875 6.203125 
Q 23.25 6.203125 24.4375 6.390625 
Q 25.640625 6.59375 27.046875 6.890625 
z
" id="LiberationSans-74"/>
      <path d="M 37.5 0 
L 37.5 33.5 
Q 37.5 37.359375 37.015625 39.9375 
Q 36.53125 42.53125 35.375 44.109375 
Q 34.234375 45.703125 32.375 46.359375 
Q 30.515625 47.015625 27.828125 47.015625 
Q 25.046875 47.015625 22.796875 45.921875 
Q 20.5625 44.828125 18.96875 42.75 
Q 17.390625 40.671875 16.53125 37.625 
Q 15.671875 34.578125 15.671875 30.609375 
L 15.671875 0 
L 6.9375 0 
L 6.9375 41.546875 
Q 6.9375 43.21875 6.90625 45.046875 
Q 6.890625 46.875 6.828125 48.5 
Q 6.78125 50.140625 6.734375 51.3125 
Q 6.6875 52.484375 6.640625 52.828125 
L 14.9375 52.828125 
Q 14.984375 52.59375 15.03125 51.515625 
Q 15.09375 50.4375 15.15625 49.046875 
Q 15.234375 47.65625 15.28125 46.21875 
Q 15.328125 44.78125 15.328125 43.796875 
L 15.484375 43.796875 
Q 16.65625 46.09375 18.015625 47.953125 
Q 19.390625 49.8125 21.21875 51.09375 
Q 23.046875 52.390625 25.40625 53.09375 
Q 27.78125 53.8125 30.90625 53.8125 
Q 36.921875 53.8125 40.40625 51.421875 
Q 43.890625 49.03125 45.265625 43.796875 
L 45.40625 43.796875 
Q 46.578125 46.09375 48.046875 47.953125 
Q 49.515625 49.8125 51.46875 51.09375 
Q 53.421875 52.390625 55.859375 53.09375 
Q 58.296875 53.8125 61.421875 53.8125 
Q 65.4375 53.8125 68.328125 52.734375 
Q 71.234375 51.65625 73.09375 49.40625 
Q 74.953125 47.171875 75.828125 43.625 
Q 76.703125 40.09375 76.703125 35.203125 
L 76.703125 0 
L 68.015625 0 
L 68.015625 33.5 
Q 68.015625 37.359375 67.53125 39.9375 
Q 67.046875 42.53125 65.890625 44.109375 
Q 64.75 45.703125 62.890625 46.359375 
Q 61.03125 47.015625 58.34375 47.015625 
Q 55.5625 47.015625 53.3125 45.96875 
Q 51.078125 44.921875 49.484375 42.875 
Q 47.90625 40.828125 47.046875 37.75 
Q 46.1875 34.671875 46.1875 30.609375 
L 46.1875 0 
z
" id="LiberationSans-6d"/>
     </defs>
     <g style="fill:#262626;" transform="translate(284.81015625 385.6934375)scale(0.11 -0.11)">
      <use xlink:href="#LiberationSans-74"/>
      <use x="27.783203125" xlink:href="#LiberationSans-69"/>
      <use x="50.0" xlink:href="#LiberationSans-6d"/>
      <use x="133.30078125" xlink:href="#LiberationSans-65"/>
     </g>
    </g>
   </g>
   <g id="matplotlib.axis_2">
    <g id="ytick_1">
     <g id="line2d_13">
      <path clip-path="url(#p4e788c256b)" d="M 72 356.4 
L 518.4 356.4 
" style="fill:none;stroke:#ffffff;stroke-linecap:round;"/>
     </g>
     <g id="line2d_14"/>
     <g id="line2d_15"/>
     <g id="text_6">
      <!-- 37100 -->
      <defs>
       <path d="M 50.59375 61.671875 
Q 45.40625 53.765625 41.0625 46.453125 
Q 36.71875 39.15625 33.59375 31.75 
Q 30.46875 24.359375 28.734375 16.578125 
Q 27 8.796875 27 0 
L 17.828125 0 
Q 17.828125 8.25 19.78125 16.1875 
Q 21.734375 24.125 25.046875 31.765625 
Q 28.375 39.40625 32.765625 46.78125 
Q 37.15625 54.15625 42.09375 61.328125 
L 5.125 61.328125 
L 5.125 68.796875 
L 50.59375 68.796875 
z
" id="LiberationSans-37"/>
      </defs>
      <g style="fill:#262626;" transform="translate(37.1953125 358.9859375)scale(0.1 -0.1)">
       <use xlink:href="#LiberationSans-33"/>
       <use x="55.615234375" xlink:href="#LiberationSans-37"/>
       <use x="111.23046875" xlink:href="#LiberationSans-31"/>
       <use x="166.845703125" xlink:href="#LiberationSans-30"/>
       <use x="222.4609375" xlink:href="#LiberationSans-30"/>
      </g>
     </g>
    </g>
    <g id="ytick_2">
     <g id="line2d_16">
      <path clip-path="url(#p4e788c256b)" d="M 72 321.2 
L 518.4 321.2 
" style="fill:none;stroke:#ffffff;stroke-linecap:round;"/>
     </g>
     <g id="line2d_17"/>
     <g id="line2d_18"/>
     <g id="text_7">
      <!-- 37150 -->
      <g style="fill:#262626;" transform="translate(37.1953125 323.7859375)scale(0.1 -0.1)">
       <use xlink:href="#LiberationSans-33"/>
       <use x="55.615234375" xlink:href="#LiberationSans-37"/>
       <use x="111.23046875" xlink:href="#LiberationSans-31"/>
       <use x="166.845703125" xlink:href="#LiberationSans-35"/>
       <use x="222.4609375" xlink:href="#LiberationSans-30"/>
      </g>
     </g>
    </g>
    <g id="ytick_3">
     <g id="line2d_19">
      <path clip-path="url(#p4e788c256b)" d="M 72 286 
L 518.4 286 
" style="fill:none;stroke:#ffffff;stroke-linecap:round;"/>
     </g>
     <g id="line2d_20"/>
     <g id="line2d_21"/>
     <g id="text_8">
      <!-- 37200 -->
      <g style="fill:#262626;" transform="translate(37.1953125 288.5859375)scale(0.1 -0.1)">
       <use xlink:href="#LiberationSans-33"/>
       <use x="55.615234375" xlink:href="#LiberationSans-37"/>
       <use x="111.23046875" xlink:href="#LiberationSans-32"/>
       <use x="166.845703125" xlink:href="#LiberationSans-30"/>
       <use x="222.4609375" xlink:href="#LiberationSans-30"/>
      </g>
     </g>
    </g>
    <g id="ytick_4">
     <g id="line2d_22">
      <path clip-path="url(#p4e788c256b)" d="M 72 250.8 
L 518.4 250.8 
" style="fill:none;stroke:#ffffff;stroke-linecap:round;"/>
     </g>
     <g id="line2d_23"/>
     <g id="line2d_24"/>
     <g id="text_9">
      <!-- 37250 -->
      <g style="fill:#262626;" transform="translate(37.1953125 253.3859375)scale(0.1 -0.1)">
       <use xlink:href="#LiberationSans-33"/>
       <use x="55.615234375" xlink:href="#LiberationSans-37"/>
       <use x="111.23046875" xlink:href="#LiberationSans-32"/>
       <use x="166.845703125" xlink:href="#LiberationSans-35"/>
       <use x="222.4609375" xlink:href="#LiberationSans-30"/>
      </g>
     </g>
    </g>
    <g id="ytick_5">
     <g id="line2d_25">
      <path clip-path="url(#p4e788c256b)" d="M 72 215.6 
L 518.4 215.6 
" style="fill:none;stroke:#ffffff;stroke-linecap:round;"/>
     </g>
     <g id="line2d_26"/>
     <g id="line2d_27"/>
     <g id="text_10">
      <!-- 37300 -->
      <g style="fill:#262626;" transform="translate(37.1953125 218.1859375)scale(0.1 -0.1)">
       <use xlink:href="#LiberationSans-33"/>
       <use x="55.615234375" xlink:href="#LiberationSans-37"/>
       <use x="111.23046875" xlink:href="#LiberationSans-33"/>
       <use x="166.845703125" xlink:href="#LiberationSans-30"/>
       <use x="222.4609375" xlink:href="#LiberationSans-30"/>
      </g>
     </g>
    </g>
    <g id="ytick_6">
     <g id="line2d_28">
      <path clip-path="url(#p4e788c256b)" d="M 72 180.4 
L 518.4 180.4 
" style="fill:none;stroke:#ffffff;stroke-linecap:round;"/>
     </g>
     <g id="line2d_29"/>
     <g id="line2d_30"/>
     <g id="text_11">
      <!-- 37350 -->
      <g style="fill:#262626;" transform="translate(37.1953125 182.9859375)scale(0.1 -0.1)">
       <use xlink:href="#LiberationSans-33"/>
       <use x="55.615234375" xlink:href="#LiberationSans-37"/>
       <use x="111.23046875" xlink:href="#LiberationSans-33"/>
       <use x="166.845703125" xlink:href="#LiberationSans-35"/>
       <use x="222.4609375" xlink:href="#LiberationSans-30"/>
      </g>
     </g>
    </g>
    <g id="ytick_7">
     <g id="line2d_31">
      <path clip-path="url(#p4e788c256b)" d="M 72 145.2 
L 518.4 145.2 
" style="fill:none;stroke:#ffffff;stroke-linecap:round;"/>
     </g>
     <g id="line2d_32"/>
     <g id="line2d_33"/>
     <g id="text_12">
      <!-- 37400 -->
      <defs>
       <path d="M 43.015625 15.578125 
L 43.015625 0 
L 34.71875 0 
L 34.71875 15.578125 
L 2.296875 15.578125 
L 2.296875 22.40625 
L 33.796875 68.796875 
L 43.015625 68.796875 
L 43.015625 22.515625 
L 52.6875 22.515625 
L 52.6875 15.578125 
z
M 34.71875 58.890625 
Q 34.625 58.640625 34.234375 57.9375 
Q 33.84375 57.234375 33.34375 56.34375 
Q 32.859375 55.46875 32.34375 54.5625 
Q 31.84375 53.65625 31.453125 53.078125 
L 13.8125 27.09375 
Q 13.578125 26.703125 13.109375 26.0625 
Q 12.640625 25.4375 12.15625 24.78125 
Q 11.671875 24.125 11.171875 23.484375 
Q 10.6875 22.859375 10.40625 22.515625 
L 34.71875 22.515625 
z
" id="LiberationSans-34"/>
      </defs>
      <g style="fill:#262626;" transform="translate(37.1953125 147.7859375)scale(0.1 -0.1)">
       <use xlink:href="#LiberationSans-33"/>
       <use x="55.615234375" xlink:href="#LiberationSans-37"/>
       <use x="111.23046875" xlink:href="#LiberationSans-34"/>
       <use x="166.845703125" xlink:href="#LiberationSans-30"/>
       <use x="222.4609375" xlink:href="#LiberationSans-30"/>
      </g>
     </g>
    </g>
    <g id="ytick_8">
     <g id="line2d_34">
      <path clip-path="url(#p4e788c256b)" d="M 72 110 
L 518.4 110 
" style="fill:none;stroke:#ffffff;stroke-linecap:round;"/>
     </g>
     <g id="line2d_35"/>
     <g id="line2d_36"/>
     <g id="text_13">
      <!-- 37450 -->
      <g style="fill:#262626;" transform="translate(37.1953125 112.5859375)scale(0.1 -0.1)">
       <use xlink:href="#LiberationSans-33"/>
       <use x="55.615234375" xlink:href="#LiberationSans-37"/>
       <use x="111.23046875" xlink:href="#LiberationSans-34"/>
       <use x="166.845703125" xlink:href="#LiberationSans-35"/>
       <use x="222.4609375" xlink:href="#LiberationSans-30"/>
      </g>
     </g>
    </g>
    <g id="ytick_9">
     <g id="line2d_37">
      <path clip-path="url(#p4e788c256b)" d="M 72 74.8 
L 518.4 74.8 
" style="fill:none;stroke:#ffffff;stroke-linecap:round;"/>
     </g>
     <g id="line2d_38"/>
     <g id="line2d_39"/>
     <g id="text_14">
      <!-- 37500 -->
      <g style="fill:#262626;" transform="translate(37.1953125 77.3859375)scale(0.1 -0.1)">
       <use xlink:href="#LiberationSans-33"/>
       <use x="55.615234375" xlink:href="#LiberationSans-37"/>
       <use x="111.23046875" xlink:href="#LiberationSans-35"/>
       <use x="166.845703125" xlink:href="#LiberationSans-30"/>
       <use x="222.4609375" xlink:href="#LiberationSans-30"/>
      </g>
     </g>
    </g>
    <g id="ytick_10">
     <g id="line2d_40">
      <path clip-path="url(#p4e788c256b)" d="M 72 39.6 
L 518.4 39.6 
" style="fill:none;stroke:#ffffff;stroke-linecap:round;"/>
     </g>
     <g id="line2d_41"/>
     <g id="line2d_42"/>
     <g id="text_15">
      <!-- 37550 -->
      <g style="fill:#262626;" transform="translate(37.1953125 42.1859375)scale(0.1 -0.1)">
       <use xlink:href="#LiberationSans-33"/>
       <use x="55.615234375" xlink:href="#LiberationSans-37"/>
       <use x="111.23046875" xlink:href="#LiberationSans-35"/>
       <use x="166.845703125" xlink:href="#LiberationSans-35"/>
       <use x="222.4609375" xlink:href="#LiberationSans-30"/>
      </g>
     </g>
    </g>
   </g>
   <g id="line2d_43">
    <path clip-path="url(#p4e788c256b)" d="M 72 202.142347 
L 72.223312 203.193778 
L 72.446623 201.512453 
L 72.669935 210.340613 
L 72.893247 210.340613 
L 73.33987 199.831129 
L 73.563182 201.512453 
L 73.786493 188.69175 
L 74.009805 188.69175 
L 74.233117 190.373074 
L 74.67974 190.373074 
L 75.126363 199.201234 
L 75.349675 198.149804 
L 75.572986 204.245209 
L 75.796298 202.563884 
L 76.01961 194.787154 
L 76.242921 196.468479 
L 76.466233 202.563884 
L 77.136168 195.417049 
L 77.582791 199.831129 
L 77.806103 196.468479 
L 78.029415 201.512453 
L 78.252726 201.512453 
L 78.476038 205.926533 
L 78.69935 207.607858 
L 78.922661 203.193778 
L 79.145973 203.193778 
L 79.369285 205.926533 
L 79.592596 198.149804 
L 79.815908 198.149804 
L 80.03922 194.787154 
L 80.262531 196.468479 
L 80.485843 196.468479 
L 80.709155 194.787154 
L 80.932466 199.201234 
L 81.155778 206.977964 
L 81.37909 200.882559 
L 81.825713 211.399084 
L 82.272336 230.743769 
L 82.495648 235.157849 
L 82.718959 233.476524 
L 83.165583 225.699794 
L 83.388894 232.84663 
L 83.612206 226.751225 
L 83.835518 233.89806 
L 84.058829 231.165305 
L 84.282141 225.0699 
L 84.505453 226.121331 
L 84.728764 217.293171 
L 85.175388 223.388576 
L 85.398699 220.65582 
L 85.622011 223.388576 
L 86.068634 217.293171 
L 86.291946 217.293171 
L 86.515258 215.611846 
L 86.738569 221.707251 
L 86.961881 213.930521 
L 87.185193 215.611846 
L 87.408504 218.974496 
L 87.631816 217.293171 
L 88.078439 202.784102 
L 88.301751 207.205222 
L 88.525063 208.886547 
L 88.971686 205.523898 
L 89.194997 207.205222 
L 89.864932 207.205222 
L 90.088244 216.033382 
L 90.534867 207.205222 
L 90.758179 207.205222 
L 91.204802 216.033382 
L 91.428114 212.670733 
L 91.651426 211.619302 
L 91.874737 207.205222 
L 92.098049 209.937978 
L 92.321361 216.033382 
L 92.544672 217.714707 
L 92.767984 214.981952 
L 93.437919 227.172761 
L 93.661231 221.077357 
L 93.884542 224.440006 
L 94.107854 221.077357 
L 94.554477 221.077357 
L 94.777789 222.758681 
L 95.001101 225.491437 
L 95.447724 225.491437 
L 95.671036 233.275206 
L 95.894347 227.172761 
L 96.117659 224.440006 
L 96.34097 225.491437 
L 96.564282 225.491437 
L 96.787594 229.912557 
L 97.010905 225.491437 
L 97.234217 223.810112 
L 97.457529 219.396032 
L 97.68084 228.231232 
L 97.904152 223.810112 
L 98.127464 223.810112 
L 98.350775 216.033382 
L 98.574087 219.396032 
L 98.797399 219.396032 
L 99.02071 216.663277 
L 99.244022 220.025926 
L 99.467334 216.663277 
L 99.690645 220.025926 
L 100.137269 212.249197 
L 100.36058 212.249197 
L 100.583892 206.146752 
L 100.807204 210.567872 
L 101.030515 206.146752 
L 101.477139 206.146752 
L 101.70045 204.465427 
L 102.147074 204.465427 
L 102.370385 206.146752 
L 102.817009 203.413997 
L 103.04032 208.457971 
L 103.486943 189.113286 
L 104.38019 206.776646 
L 104.603502 202.362566 
L 104.826813 200.681241 
L 105.050125 196.267161 
L 105.273437 202.362566 
L 105.496748 204.043891 
L 105.72006 215.611846 
L 105.943372 168.937389 
L 106.166683 171.670145 
L 106.389995 172.300039 
L 106.613307 172.300039 
L 106.836618 167.256065 
L 107.05993 166.204634 
L 107.283242 162.841985 
L 107.729865 162.841985 
L 108.3998 176.714119 
L 108.623112 176.714119 
L 109.069735 181.135239 
L 109.293047 181.135239 
L 109.516358 173.351469 
L 109.73967 173.351469 
L 109.962981 179.453914 
L 110.186293 175.032794 
L 110.409605 173.351469 
L 110.632916 170.618714 
L 110.856228 170.618714 
L 111.07954 168.937389 
L 111.302851 171.670145 
L 111.526163 168.937389 
L 111.972786 182.816564 
L 112.196098 182.816564 
L 112.41941 181.135239 
L 112.642721 190.593293 
L 112.866033 190.593293 
L 113.089345 196.688698 
L 113.312656 190.593293 
L 113.982591 190.593293 
L 114.205903 186.179213 
L 114.429215 186.179213 
L 114.875838 189.541862 
L 115.09915 188.483392 
L 115.322461 182.387987 
L 115.545773 189.541862 
L 115.769085 185.120742 
L 115.992396 189.541862 
L 116.215708 189.541862 
L 116.43902 185.120742 
L 116.662331 185.120742 
L 116.885643 176.292582 
L 117.108954 176.292582 
L 117.332266 171.878502 
L 117.555578 176.292582 
L 118.225513 176.292582 
L 118.448824 182.387987 
L 118.895448 182.387987 
L 119.118759 180.706662 
L 119.342071 172.300039 
L 120.012006 172.300039 
L 120.235318 175.032794 
L 120.458629 173.351469 
L 120.681941 176.091265 
L 120.905253 171.670145 
L 121.128564 176.091265 
L 121.351876 167.256065 
L 121.575188 171.670145 
L 121.798499 167.256065 
L 122.021811 171.670145 
L 122.245123 171.670145 
L 122.468434 167.256065 
L 122.691746 167.256065 
L 122.915058 171.670145 
L 123.138369 167.256065 
L 123.361681 171.670145 
L 123.584992 173.351469 
L 123.808304 183.867994 
L 124.031616 188.282074 
L 124.254927 188.282074 
L 124.478239 183.867994 
L 124.701551 175.032794 
L 124.924862 175.032794 
L 125.148174 177.772589 
L 125.371486 177.772589 
L 125.594797 179.453914 
L 125.818109 179.453914 
L 126.041421 183.867994 
L 126.264732 183.867994 
L 126.711356 167.256065 
L 126.934667 162.841985 
L 127.381291 162.841985 
L 127.604602 167.256065 
L 128.051226 167.256065 
L 128.274537 175.032794 
L 128.497849 175.032794 
L 128.721161 167.885959 
L 128.944472 167.885959 
L 129.167784 175.662688 
L 129.391096 175.662688 
L 129.614407 176.714119 
L 129.837719 185.549319 
L 130.061031 181.135239 
L 130.507654 181.135239 
L 130.730965 176.714119 
L 130.954277 179.453914 
L 131.177589 176.091265 
L 131.4009 176.091265 
L 131.624212 171.670145 
L 131.847524 172.728615 
L 132.070835 158.219547 
L 132.294147 166.626171 
L 132.517459 160.530766 
L 132.74077 164.944846 
L 132.964082 160.530766 
L 133.187394 160.530766 
L 133.410705 169.365966 
L 133.634017 158.849441 
L 133.857329 154.435361 
L 134.08064 160.530766 
L 134.303952 154.435361 
L 134.527264 157.798011 
L 134.750575 157.798011 
L 134.973887 156.116686 
L 135.197199 150.021281 
L 135.42051 154.435361 
L 135.643822 154.435361 
L 135.867134 156.116686 
L 136.090445 151.072712 
L 136.313757 152.754036 
L 136.537069 146.658632 
L 136.76038 146.658632 
L 136.983692 152.754036 
L 137.207004 152.754036 
L 137.430315 151.072712 
L 137.876938 151.072712 
L 138.10025 152.754036 
L 138.546873 152.754036 
L 138.770185 163.263521 
L 138.993497 163.263521 
L 139.216808 164.944846 
L 139.44012 163.263521 
L 139.663432 160.530766 
L 139.886743 154.435361 
L 140.110055 158.849441 
L 140.333367 154.435361 
L 140.556678 158.849441 
L 140.77999 150.021281 
L 141.226613 157.168116 
L 141.449925 154.435361 
L 142.11986 154.435361 
L 142.343172 146.658632 
L 142.566483 145.600161 
L 143.013107 145.600161 
L 143.45973 128.988232 
L 143.683042 141.186081 
L 143.906353 139.504756 
L 144.129665 136.772001 
L 144.352976 136.772001 
L 144.576288 127.936801 
L 144.7996 128.566695 
L 145.022911 131.929345 
L 145.246223 127.515265 
L 145.469535 136.343425 
L 145.692846 123.094145 
L 145.916158 118.680065 
L 146.13947 109.851905 
L 146.362781 109.851905 
L 146.586093 122.042714 
L 146.809405 122.042714 
L 147.032716 113.214554 
L 147.256028 117.628634 
L 147.702651 106.060679 
L 147.925963 101.646599 
L 148.149275 108.793434 
L 148.372586 108.793434 
L 148.81921 102.698029 
L 149.042521 113.214554 
L 149.265833 105.430785 
L 149.489145 105.430785 
L 149.712456 96.602625 
L 149.935768 96.602625 
L 150.15908 105.430785 
L 150.382391 99.33538 
L 150.605703 96.602625 
L 150.829015 101.016705 
L 151.275638 92.181505 
L 151.498949 92.181505 
L 151.722261 83.353345 
L 152.168884 52.869281 
L 152.392196 58.334792 
L 152.615508 71.155495 
L 152.838819 70.532641 
L 153.062131 72.213966 
L 153.285443 79.990695 
L 153.508754 78.939265 
L 153.732066 91.130074 
L 153.955378 82.301914 
L 154.178689 85.034669 
L 154.402001 80.620589 
L 154.625313 78.939265 
L 154.848624 82.301914 
L 155.071936 88.397319 
L 155.295248 88.397319 
L 155.741871 96.803942 
L 155.965183 89.027213 
L 156.188494 91.759968 
L 156.411806 87.345888 
L 156.635118 87.345888 
L 157.081741 105.009248 
L 157.305053 105.009248 
L 157.528364 97.225479 
L 157.974987 109.423328 
L 158.198299 100.588128 
L 158.421611 100.588128 
L 158.868234 102.269453 
L 159.091546 110.053222 
L 159.314857 105.632102 
L 159.538169 108.371898 
L 159.984792 105.009248 
L 160.208104 109.423328 
L 160.431416 118.258528 
L 160.654727 118.258528 
L 160.878039 113.837408 
L 161.101351 113.837408 
L 161.324662 109.423328 
L 161.547974 107.742004 
L 161.994597 101.646599 
L 162.217909 106.060679 
L 162.664532 97.225479 
L 162.887844 103.327924 
L 163.111156 106.060679 
L 163.334467 106.060679 
L 163.781091 113.837408 
L 164.004402 112.156084 
L 164.451026 104.379354 
L 164.674337 96.602625 
L 164.897649 101.016705 
L 165.12096 96.602625 
L 165.344272 98.283949 
L 165.567584 109.423328 
L 165.790895 109.423328 
L 166.014207 111.104653 
L 166.46083 122.672608 
L 166.684142 127.086688 
L 167.130765 127.086688 
L 167.354077 128.768013 
L 167.8007 118.258528 
L 168.470635 118.258528 
L 168.693947 116.577204 
L 168.917259 122.672608 
L 169.363882 122.672608 
L 169.587194 113.837408 
L 169.810505 119.939853 
L 170.033817 113.837408 
L 170.48044 113.837408 
L 170.703752 118.258528 
L 171.150375 113.837408 
L 171.82031 113.837408 
L 172.043622 118.258528 
L 172.266933 119.939853 
L 172.713557 109.423328 
L 172.936868 109.423328 
L 173.16018 105.009248 
L 173.606803 105.009248 
L 173.830115 100.588128 
L 174.053427 100.588128 
L 174.276738 105.009248 
L 174.50005 105.009248 
L 174.723362 106.690573 
L 174.946673 111.104653 
L 175.169985 111.734547 
L 175.393297 119.511277 
L 175.616608 115.097197 
L 175.83992 115.097197 
L 176.063232 113.415872 
L 176.286543 117.829952 
L 177.17979 117.829952 
L 177.403102 116.778521 
L 177.626413 117.829952 
L 178.073037 117.829952 
L 178.296348 122.244032 
L 178.51966 122.244032 
L 178.742971 124.555251 
L 178.966283 120.141171 
L 179.189595 120.141171 
L 179.412906 118.459846 
L 179.636218 115.720051 
L 179.85953 115.720051 
L 180.082841 120.141171 
L 180.306153 106.891891 
L 180.752776 115.720051 
L 180.976088 111.305971 
L 181.1994 109.624646 
L 181.422711 111.305971 
L 181.869335 119.0827 
L 182.092646 114.66862 
L 182.315958 105.84046 
L 182.53927 105.84046 
L 182.762581 101.41934 
L 182.985893 105.84046 
L 183.209205 99.738016 
L 183.432516 110.25454 
L 183.655828 108.573216 
L 183.87914 112.987296 
L 184.102451 112.987296 
L 184.325763 114.66862 
L 184.549075 114.66862 
L 184.772386 106.891891 
L 185.21901 110.25454 
L 185.442321 101.41934 
L 185.665633 105.84046 
L 185.888944 97.00526 
L 186.112256 97.00526 
L 186.335568 83.75598 
L 186.782191 92.59118 
L 187.005503 89.228531 
L 187.228814 89.228531 
L 187.452126 90.909856 
L 187.675438 93.642611 
L 187.898749 102.477811 
L 188.122061 105.210566 
L 188.345373 111.305971 
L 188.568684 100.796486 
L 188.791996 96.375366 
L 189.461931 108.573216 
L 189.685243 110.25454 
L 189.908554 114.66862 
L 190.131866 108.573216 
L 190.355178 110.25454 
L 190.578489 110.25454 
L 190.801801 105.84046 
L 191.025113 105.84046 
L 191.471736 114.66862 
L 191.918359 97.00526 
L 192.141671 104.78199 
L 192.588294 104.78199 
L 192.811606 111.935865 
L 193.034917 105.84046 
L 193.481541 105.84046 
L 193.704852 101.41934 
L 193.928164 104.78199 
L 194.151476 113.61719 
L 194.598099 104.78199 
L 194.821411 104.78199 
L 195.044722 110.884434 
L 195.268034 106.463314 
L 195.491346 104.78199 
L 195.714657 105.84046 
L 195.937969 105.84046 
L 196.161281 101.41934 
L 196.384592 101.41934 
L 196.607904 105.84046 
L 196.831216 107.521785 
L 197.054527 113.61719 
L 197.277839 109.20311 
L 197.501151 113.61719 
L 197.724462 109.20311 
L 197.947774 109.20311 
L 198.171086 104.78199 
L 198.617709 111.935865 
L 198.841021 110.25454 
L 199.064332 182.167769 
L 199.287644 179.427973 
L 199.510955 173.332569 
L 199.957579 167.237164 
L 200.18089 148.94391 
L 200.404202 141.16718 
L 200.627514 142.848505 
L 200.850825 141.16718 
L 201.074137 149.99534 
L 201.297449 141.16718 
L 201.52076 145.58126 
L 201.744072 136.7531 
L 202.190695 127.9179 
L 202.414007 136.7531 
L 202.637319 136.7531 
L 202.86063 141.16718 
L 203.083942 149.99534 
L 203.307254 128.969331 
L 203.530565 118.459846 
L 203.977189 132.760557 
L 204.647124 132.760557 
L 204.870435 128.346477 
L 205.317059 128.346477 
L 205.54037 123.925357 
L 205.763682 125.606681 
L 205.986993 128.346477 
L 206.656928 142.218611 
L 206.88024 142.218611 
L 207.103552 134.441881 
L 207.550175 140.537286 
L 207.773487 146.632691 
L 208.22011 134.441881 
L 208.443422 136.123206 
L 208.666733 134.441881 
L 208.890045 136.123206 
L 209.113357 136.123206 
L 209.336668 140.537286 
L 209.55998 142.218611 
L 209.783292 146.632691 
L 210.006603 146.632691 
L 210.229915 140.537286 
L 210.453227 140.537286 
L 210.676538 137.174637 
L 210.89985 144.951366 
L 211.123162 144.951366 
L 211.569785 147.691161 
L 211.793097 153.786566 
L 212.016408 146.009837 
L 212.23972 146.009837 
L 212.463032 132.559239 
L 212.686343 131.929345 
L 212.909655 131.929345 
L 213.132966 136.343425 
L 213.356278 136.343425 
L 213.57959 131.929345 
L 213.802901 133.610669 
L 214.026213 124.775469 
L 214.249525 129.196589 
L 214.472836 123.094145 
L 214.696148 120.361389 
L 214.91946 120.361389 
L 215.142771 117.628634 
L 215.366083 120.361389 
L 215.589395 129.196589 
L 215.812706 123.094145 
L 216.25933 133.610669 
L 216.482641 132.559239 
L 216.705953 132.559239 
L 216.929265 130.877914 
L 217.152576 135.291994 
L 217.375888 133.610669 
L 217.5992 140.757505 
L 217.822511 139.706074 
L 218.269135 145.178625 
L 218.492446 149.592705 
L 218.715758 149.592705 
L 219.162381 158.427905 
L 219.385693 158.427905 
L 219.609005 154.006785 
L 219.832316 157.369434 
L 220.278939 145.178625 
L 220.725563 159.050759 
L 221.172186 150.222599 
L 221.395498 157.999328 
L 221.618809 148.541274 
L 221.842121 154.636679 
L 222.958679 154.636679 
L 223.181991 157.999328 
L 223.405303 153.585248 
L 223.851926 150.222599 
L 224.075238 151.903924 
L 224.298549 150.222599 
L 224.968484 163.471879 
L 225.191796 163.471879 
L 225.638419 145.178625 
L 225.861731 145.178625 
L 226.531666 130.877914 
L 226.978289 141.387399 
L 227.201601 145.801479 
L 227.648224 145.801479 
L 228.094847 136.973319 
L 228.541471 145.801479 
L 228.764782 145.801479 
L 228.988094 141.387399 
L 229.211406 141.387399 
L 229.434717 135.291994 
L 229.658029 135.291994 
L 229.881341 114.265985 
L 230.104652 118.680065 
L 230.327964 114.265985 
L 230.551276 118.680065 
L 230.774587 126.456794 
L 230.997899 120.361389 
L 231.221211 130.877914 
L 231.444522 129.196589 
L 231.667834 126.456794 
L 231.891146 128.138119 
L 232.114457 128.138119 
L 232.561081 141.387399 
L 232.784392 139.706074 
L 233.007704 136.973319 
L 233.231016 141.387399 
L 233.454327 140.965862 
L 233.677639 136.544742 
L 233.90095 136.544742 
L 234.124262 132.130662 
L 234.347574 136.544742 
L 234.570885 136.544742 
L 234.794197 138.226067 
L 235.017509 141.588717 
L 235.464132 138.226067 
L 235.910755 138.226067 
L 236.134067 140.965862 
L 236.357379 140.965862 
L 236.58069 136.544742 
L 236.804002 142.647187 
L 237.027314 144.328512 
L 237.250625 136.544742 
L 237.473937 136.544742 
L 237.697249 128.768013 
L 238.143872 136.544742 
L 238.367184 136.544742 
L 238.813807 145.379942 
L 239.483742 145.379942 
L 239.707054 147.061267 
L 239.930365 142.647187 
L 240.153677 145.379942 
L 240.376988 140.965862 
L 240.6003 145.379942 
L 240.823612 140.965862 
L 241.046923 147.061267 
L 241.270235 149.794022 
L 241.493547 145.379942 
L 241.716858 144.750048 
L 242.833417 190.593293 
L 243.056728 172.929933 
L 243.503352 185.549319 
L 243.726663 185.549319 
L 243.949975 188.282074 
L 244.173287 188.282074 
L 244.396598 189.963399 
L 244.61991 181.135239 
L 244.843222 190.593293 
L 245.066533 193.326048 
L 245.289845 206.575328 
L 245.513157 202.161248 
L 245.736468 182.816564 
L 245.95978 177.142695 
L 246.183092 184.919425 
L 246.629715 169.98882 
L 246.853027 178.194126 
L 247.076338 172.098721 
L 247.29965 172.098721 
L 247.522961 176.512801 
L 247.746273 174.831476 
L 247.969585 168.106178 
L 248.192896 171.468827 
L 248.416208 164.321992 
L 248.862831 173.150152 
L 249.086143 170.417396 
L 249.309455 174.831476 
L 249.532766 173.150152 
L 249.756078 168.736072 
L 249.97939 173.150152 
L 250.202701 171.468827 
L 250.426013 171.468827 
L 250.649325 173.150152 
L 250.872636 167.054747 
L 251.31926 167.054747 
L 251.542571 173.150152 
L 251.765883 174.201582 
L 251.989195 175.882907 
L 252.435818 167.054747 
L 253.329065 167.054747 
L 253.552376 162.640667 
L 253.775688 168.736072 
L 253.998999 164.321992 
L 254.222311 164.321992 
L 254.445623 159.900872 
L 254.668934 159.900872 
L 254.892246 164.321992 
L 255.115558 166.003316 
L 255.338869 163.263521 
L 255.562181 158.849441 
L 256.008804 174.831476 
L 256.232116 172.098721 
L 256.455428 172.098721 
L 256.678739 174.831476 
L 256.902051 170.417396 
L 257.125363 172.098721 
L 257.348674 189.762081 
L 257.571986 189.762081 
L 257.795298 194.176161 
L 258.018609 186.399432 
L 258.241921 186.399432 
L 258.465233 199.648712 
L 258.688544 204.062792 
L 258.911856 212.897992 
L 259.135168 202.381467 
L 259.358479 200.700142 
L 259.581791 206.795547 
L 259.805103 206.795547 
L 260.028414 193.546267 
L 260.251726 196.286062 
L 260.475038 193.546267 
L 260.698349 193.546267 
L 260.921661 197.967387 
L 261.144972 193.546267 
L 261.368284 193.546267 
L 261.591596 191.864942 
L 261.814907 202.381467 
L 262.261531 202.381467 
L 262.484842 206.795547 
L 262.708154 206.795547 
L 262.931466 199.018818 
L 263.601401 190.183618 
L 263.824712 194.604738 
L 264.048024 192.923413 
L 264.271336 192.923413 
L 264.494647 194.604738 
L 264.717959 197.337493 
L 264.941271 197.337493 
L 265.387894 189.560763 
L 265.611206 193.974843 
L 265.834517 189.560763 
L 266.281141 193.974843 
L 266.504452 187.879439 
L 266.727764 189.560763 
L 266.951076 186.198114 
L 267.397699 193.974843 
L 267.844322 193.974843 
L 268.067634 189.560763 
L 268.290945 191.242088 
L 268.514257 191.242088 
L 268.737569 181.776994 
L 268.96088 185.139643 
L 269.184192 181.776994 
L 269.407504 180.095669 
L 269.630815 181.776994 
L 269.854127 180.095669 
L 270.077439 177.362914 
L 270.30075 185.139643 
L 270.524062 186.198114 
L 270.747374 185.139643 
L 270.970685 187.879439 
L 271.417309 198.388923 
L 271.64062 189.560763 
L 271.863932 189.560763 
L 272.310555 199.447394 
L 272.533867 190.612194 
L 272.757179 193.974843 
L 272.98049 189.560763 
L 273.203802 167.476283 
L 273.427114 158.648123 
L 273.873737 165.794959 
L 274.097049 154.234043 
L 274.32036 150.871394 
L 274.543672 150.871394 
L 274.766983 155.285474 
L 274.990295 153.604149 
L 275.213607 149.190069 
L 275.436918 153.604149 
L 276.106853 153.604149 
L 276.330165 144.768949 
L 276.553477 149.812923 
L 276.776788 148.131599 
L 277.223412 121.640079 
L 277.446723 105.658043 
L 277.670035 123.321403 
L 277.893347 118.900283 
L 278.116658 117.848853 
L 278.33997 113.434773 
L 278.563282 120.581608 
L 278.786593 120.581608 
L 279.009905 129.416808 
L 279.233217 128.365378 
L 279.456528 123.944258 
L 279.67984 123.944258 
L 279.903152 122.262933 
L 280.126463 127.735483 
L 280.573087 127.735483 
L 281.01971 119.530178 
L 281.243022 109.020693 
L 281.689645 102.918248 
L 281.912956 95.771413 
L 282.136268 82.522133 
L 282.35958 80.840808 
L 282.582891 75.796834 
L 282.806203 84.632034 
L 283.029515 86.313359 
L 283.252826 96.822843 
L 283.476138 87.994683 
L 283.69945 101.236923 
L 283.922761 105.658043 
L 284.146073 105.658043 
L 284.369385 101.236923 
L 284.592696 105.658043 
L 285.03932 102.295394 
L 285.262631 106.709474 
L 285.485943 106.709474 
L 285.709255 111.123554 
L 285.932566 108.390799 
L 286.155878 108.390799 
L 286.602501 112.804879 
L 286.825813 118.277429 
L 287.049125 118.277429 
L 287.272436 119.958754 
L 287.495748 119.958754 
L 287.71906 113.856309 
L 287.942371 115.537634 
L 288.165683 111.123554 
L 288.388994 117.218959 
L 288.612306 119.958754 
L 289.058929 105.028149 
L 289.282241 111.123554 
L 289.505553 102.295394 
L 289.728864 106.709474 
L 289.952176 106.709474 
L 290.175488 100.614069 
L 290.398799 85.683465 
L 290.622111 94.511625 
L 290.845423 98.932745 
L 291.292046 98.932745 
L 291.515358 94.511625 
L 291.738669 100.614069 
L 291.961981 98.932745 
L 292.185293 91.778869 
L 292.408604 100.614069 
L 292.631916 94.511625 
L 292.855228 116.596105 
L 293.301851 106.508156 
L 293.525163 95.991632 
L 293.748474 97.672956 
L 293.971786 105.449686 
L 294.195098 106.508156 
L 294.865033 129.845385 
L 295.088344 131.526709 
L 295.311656 150.021281 
L 295.534967 155.065255 
L 295.758279 155.065255 
L 295.981591 162.841985 
L 296.204902 163.893415 
L 296.428214 161.16066 
L 296.651526 168.937389 
L 297.098149 155.065255 
L 297.321461 154.006785 
L 297.544772 159.479335 
L 297.768084 151.702606 
L 297.991396 157.798011 
L 298.214707 156.116686 
L 298.661331 163.893415 
L 298.884642 159.479335 
L 299.107954 165.57474 
L 299.331266 162.841985 
L 299.554577 162.841985 
L 299.777889 167.885959 
L 300.001201 166.204634 
L 300.447824 154.006785 
L 300.671136 155.688109 
L 300.894447 152.955354 
L 301.117759 154.006785 
L 301.341071 149.592705 
L 301.564382 141.186081 
L 301.787694 151.072712 
L 302.011006 150.442818 
L 302.234317 141.614658 
L 302.457629 152.124142 
L 302.68094 152.124142 
L 302.904252 172.520258 
L 303.127564 162.010773 
L 303.350875 163.692098 
L 303.797499 163.692098 
L 304.02081 175.882907 
L 304.244122 165.373422 
L 304.467434 162.640667 
L 304.690745 158.219547 
L 304.914057 163.263521 
L 305.137369 160.530766 
L 305.36068 152.754036 
L 305.583992 153.805467 
L 305.807304 162.640667 
L 306.030615 162.640667 
L 306.253927 167.054747 
L 306.477239 168.736072 
L 306.70055 167.054747 
L 306.923862 171.468827 
L 307.370485 171.468827 
L 307.593797 168.106178 
L 307.817109 168.106178 
L 308.04042 174.201582 
L 308.487044 163.692098 
L 308.710355 159.278018 
L 308.933667 163.692098 
L 309.156978 159.278018 
L 309.38029 160.959342 
L 309.826913 167.054747 
L 310.050225 162.640667 
L 310.273537 153.805467 
L 310.496848 154.856898 
L 310.72016 160.959342 
L 310.943472 154.856898 
L 311.390095 167.054747 
L 311.613407 167.054747 
L 312.283342 175.882907 
L 312.506653 160.959342 
L 312.729965 176.941378 
L 312.953277 169.787502 
L 313.176588 175.882907 
L 313.623212 163.692098 
L 313.846523 157.596693 
L 314.069835 163.692098 
L 314.293147 165.373422 
L 314.516458 171.468827 
L 314.73977 167.054747 
L 314.963082 167.054747 
L 315.409705 159.900872 
L 315.633017 144.977307 
L 315.856328 153.805467 
L 316.07964 153.805467 
L 316.302951 146.658632 
L 316.526263 151.072712 
L 316.749575 151.072712 
L 317.196198 158.219547 
L 317.642821 158.219547 
L 317.866133 153.805467 
L 318.089445 158.219547 
L 318.312756 155.486792 
L 318.536068 158.219547 
L 318.75938 153.805467 
L 318.982691 158.219547 
L 319.206003 158.219547 
L 319.652626 165.373422 
L 319.875938 154.234043 
L 320.09925 162.010773 
L 320.322561 163.692098 
L 320.769185 170.838933 
L 320.992496 162.010773 
L 321.215808 166.424853 
L 321.43912 168.106178 
L 321.662431 168.106178 
L 321.885743 163.692098 
L 322.109055 168.106178 
L 322.332366 163.692098 
L 322.555678 163.692098 
L 322.778989 168.106178 
L 323.002301 168.106178 
L 323.448924 163.692098 
L 323.895548 163.692098 
L 324.118859 168.106178 
L 324.342171 159.278018 
L 324.565483 154.856898 
L 324.788794 154.234043 
L 325.012106 154.234043 
L 325.235418 158.648123 
L 325.458729 157.596693 
L 325.682041 160.329448 
L 325.905353 158.648123 
L 326.128664 154.234043 
L 326.351976 157.596693 
L 326.575288 158.648123 
L 326.798599 151.494248 
L 327.021911 149.812923 
L 327.245223 160.329448 
L 327.468534 157.596693 
L 327.691846 163.692098 
L 327.915158 166.424853 
L 328.138469 170.838933 
L 328.361781 166.424853 
L 328.808404 166.424853 
L 329.031716 157.596693 
L 329.255028 153.175573 
L 329.478339 153.175573 
L 329.701651 154.856898 
L 330.148274 169.787502 
L 330.371586 165.373422 
L 330.594897 169.787502 
L 330.818209 183.036782 
L 331.264832 190.183618 
L 331.488144 191.864942 
L 331.711456 203.432898 
L 332.158079 185.769538 
L 332.381391 172.520258 
L 332.828014 181.355458 
L 333.051326 190.183618 
L 333.274637 181.355458 
L 333.497949 190.183618 
L 333.944572 181.355458 
L 334.167884 181.355458 
L 334.614507 190.183618 
L 335.061131 190.183618 
L 335.284442 184.718107 
L 335.507754 190.183618 
L 335.954377 190.183618 
L 336.177689 194.604738 
L 336.847624 194.604738 
L 337.070935 184.088213 
L 337.517559 180.725563 
L 337.74087 176.311483 
L 337.964182 167.476283 
L 338.410805 163.062203 
L 338.634117 161.380879 
L 338.857429 167.476283 
L 339.304052 167.476283 
L 339.527364 171.897403 
L 339.750675 179.044239 
L 339.973987 148.981712 
L 340.197299 161.809455 
L 340.643922 147.930281 
L 340.867234 154.65558 
L 341.313857 162.432309 
L 341.76048 162.432309 
L 341.983792 165.794959 
L 342.207104 163.062203 
L 342.430415 163.062203 
L 342.653727 162.432309 
L 342.877039 159.699554 
L 343.10035 167.476283 
L 343.323662 167.476283 
L 343.546973 163.49078 
L 343.770285 151.29293 
L 343.993597 155.70701 
L 344.216908 155.70701 
L 344.44022 158.018229 
L 344.663532 165.172105 
L 344.886843 166.853429 
L 345.78009 166.853429 
L 346.003402 165.172105 
L 346.450025 175.681589 
L 346.673337 174.000265 
L 346.896648 169.586185 
L 347.11996 169.586185 
L 347.343272 178.414345 
L 347.566583 175.681589 
L 348.013207 184.516789 
L 348.236518 182.835465 
L 348.45983 187.249545 
L 348.683142 178.414345 
L 348.906453 182.835465 
L 349.129765 180.095669 
L 349.353077 184.516789 
L 349.576388 184.516789 
L 349.7997 182.835465 
L 350.023012 178.414345 
L 350.469635 188.930869 
L 350.692946 196.084745 
L 350.916258 187.249545 
L 351.13957 182.835465 
L 351.362881 182.835465 
L 351.586193 165.172105 
L 351.809505 174.000265 
L 352.032816 174.000265 
L 352.256128 167.90486 
L 352.47944 176.73302 
L 352.702751 170.637615 
L 352.926063 181.15414 
L 353.372686 172.31894 
L 353.595998 154.454262 
L 353.81931 154.454262 
L 354.042621 150.040182 
L 354.265933 148.358857 
L 354.489245 143.314883 
L 354.935868 153.824368 
L 355.15918 148.780394 
L 355.382491 148.780394 
L 355.605803 145.417744 
L 356.052426 145.417744 
L 356.275738 149.831824 
L 356.722361 149.831824 
L 356.945673 145.417744 
L 357.168984 145.417744 
L 357.392296 148.1505 
L 357.615608 154.252944 
L 357.838919 155.934269 
L 358.062231 154.252944 
L 358.285543 158.667024 
L 358.508854 154.252944 
L 358.732166 163.081104 
L 358.955478 164.762429 
L 359.178789 175.278954 
L 359.625413 163.081104 
L 359.848724 162.029674 
L 360.072036 162.029674 
L 360.518659 158.667024 
L 360.965283 158.667024 
L 361.188594 163.081104 
L 361.635218 163.081104 
L 362.081841 157.615594 
L 362.305153 147.099069 
L 362.528464 151.513149 
L 362.751776 145.417744 
L 362.975088 147.099069 
L 363.198399 145.417744 
L 363.645023 148.780394 
L 364.091646 141.003664 
L 364.314957 141.003664 
L 364.761581 151.513149 
L 364.984892 142.684989 
L 365.208204 147.099069 
L 365.431516 154.252944 
L 365.654827 155.934269 
L 366.101451 163.081104 
L 366.324762 149.831824 
L 366.548074 144.78785 
L 366.771386 150.890295 
L 366.994697 149.20897 
L 367.218009 140.37377 
L 367.441321 142.055095 
L 367.664632 153.194474 
L 367.887944 154.875799 
L 368.334567 159.296919 
L 368.557879 153.824368 
L 368.781191 152.143043 
L 369.004502 143.314883 
L 369.227814 147.728963 
L 369.451126 137.212439 
L 369.674437 135.531114 
L 370.121061 138.893763 
L 370.344372 117.867754 
L 370.790995 128.384279 
L 371.014307 126.702954 
L 371.237619 128.384279 
L 371.46093 137.212439 
L 371.684242 128.384279 
L 371.907554 137.212439 
L 372.130865 141.633559 
L 372.354177 141.633559 
L 372.577489 139.952234 
L 372.8008 154.875799 
L 373.024112 153.194474 
L 373.470735 153.194474 
L 373.694047 148.780394 
L 374.14067 148.780394 
L 374.363982 153.194474 
L 374.587294 148.780394 
L 375.703852 148.780394 
L 375.927164 144.366314 
L 376.373787 144.366314 
L 376.597099 146.047639 
L 376.82041 133.849789 
L 377.043722 139.952234 
L 377.267034 139.952234 
L 377.490345 126.702954 
L 377.713657 123.340304 
L 377.936968 127.754384 
L 378.16028 123.340304 
L 378.383592 123.340304 
L 378.606903 127.754384 
L 378.830215 115.563575 
L 379.053527 113.88225 
L 379.276838 115.563575 
L 379.50015 121.65898 
L 379.723462 121.65898 
L 379.946773 115.563575 
L 380.84002 115.563575 
L 381.063332 124.391735 
L 381.286643 128.805815 
L 381.509955 124.391735 
L 381.733267 114.933681 
L 381.956578 114.933681 
L 382.17989 117.666436 
L 382.403202 107.156951 
L 382.626513 105.475627 
L 383.296448 82.768293 
L 383.51976 85.501048 
L 383.966383 100.431653 
L 384.189695 94.329208 
L 384.636318 97.691857 
L 384.85963 89.915128 
L 385.082941 89.915128 
L 385.306253 87.182373 
L 385.529565 82.768293 
L 385.752876 83.819723 
L 386.1995 98.750328 
L 386.646123 78.775749 
L 386.869435 95.387678 
L 387.316058 70.369125 
L 387.53937 72.05045 
L 387.762681 65.955045 
L 387.985993 76.46453 
L 388.209305 75.4131 
L 388.432616 79.82718 
L 388.655928 77.094424 
L 388.87924 82.138398 
L 389.102551 91.596453 
L 389.325863 91.596453 
L 389.549175 92.647883 
L 390.21911 97.069003 
L 390.665733 103.164408 
L 390.889045 98.120434 
L 391.112356 96.439109 
L 391.335668 88.032485 
L 391.558979 88.66238 
L 391.782291 87.603909 
L 392.005603 87.603909 
L 392.452226 95.387678 
L 392.675538 95.387678 
L 392.898849 96.439109 
L 393.122161 98.120434 
L 393.345473 86.981055 
L 393.568784 95.809215 
L 393.792096 88.032485 
L 394.015408 92.446565 
L 394.238719 94.12789 
L 394.462031 92.446565 
L 394.685343 92.446565 
L 394.908654 94.12789 
L 395.131966 90.765241 
L 395.578589 94.12789 
L 395.801901 83.618405 
L 396.025213 84.669836 
L 396.248524 80.255756 
L 396.471836 83.618405 
L 396.695148 92.446565 
L 396.918459 93.07646 
L 397.365083 80.87861 
L 397.588394 79.197285 
L 397.811706 75.834636 
L 398.258329 75.834636 
L 398.481641 84.669836 
L 398.928264 76.893107 
L 399.151576 80.255756 
L 399.374887 74.153311 
L 399.598199 74.153311 
L 399.821511 85.29973 
L 400.044822 86.981055 
L 400.268134 83.618405 
L 400.714757 83.618405 
L 400.938069 77.515961 
L 401.161381 81.937081 
L 401.384692 79.197285 
L 401.608004 79.197285 
L 401.831316 77.515961 
L 402.054627 79.197285 
L 402.277939 73.101881 
L 402.501251 74.783205 
L 402.724562 74.783205 
L 403.171186 67.006476 
L 403.394497 59.852601 
L 403.841121 63.21525 
L 404.064432 66.5779 
L 404.287744 66.5779 
L 404.511056 69.940549 
L 404.734367 80.457074 
L 404.957679 82.138398 
L 405.18099 80.457074 
L 405.404302 74.361669 
L 406.074237 86.552478 
L 406.297549 82.138398 
L 406.52086 86.552478 
L 406.744172 82.138398 
L 406.967484 86.552478 
L 407.190795 88.233803 
L 407.414107 92.647883 
L 407.637419 88.233803 
L 407.86073 86.552478 
L 408.084042 86.552478 
L 408.530665 97.069003 
L 408.753977 93.706354 
L 409.2006 108.629918 
L 409.423912 105.897163 
L 409.647224 110.941137 
L 410.093847 137.439697 
L 410.317159 141.853777 
L 410.54047 123.560523 
L 410.763782 120.827768 
L 411.210405 131.337253 
L 411.433717 149.007653 
L 411.657029 141.223883 
L 411.88034 145.216427 
L 412.103652 139.121022 
L 412.326963 145.216427 
L 412.550275 140.802347 
L 412.773587 133.018577 
L 412.996898 131.967147 
L 413.22021 133.018577 
L 413.443522 143.535102 
L 413.666833 141.853777 
L 413.890145 137.439697 
L 414.113457 146.267857 
L 414.56008 137.439697 
L 415.006703 137.439697 
L 415.230015 133.018577 
L 415.453327 133.018577 
L 415.676638 134.699902 
L 416.123262 124.190417 
L 416.569885 145.216427 
L 416.793197 163.509681 
L 417.016508 170.656516 
L 417.23982 173.396311 
L 417.463132 167.293867 
L 417.686443 180.543147 
L 417.909755 180.543147 
L 418.57969 194.843857 
L 418.803002 189.378347 
L 419.249625 198.206507 
L 419.472936 199.264977 
L 419.696248 192.111102 
L 419.91956 196.525182 
L 420.142871 193.792427 
L 420.366183 193.792427 
L 420.589495 198.206507 
L 420.812806 195.473751 
L 421.036118 186.015697 
L 421.25943 184.957227 
L 421.482741 189.378347 
L 421.706053 184.957227 
L 421.929365 191.059671 
L 422.152676 186.638551 
L 422.375988 191.059671 
L 422.5993 191.059671 
L 423.045923 177.810391 
L 423.269235 168.975191 
L 423.492546 173.396311 
L 423.715858 173.396311 
L 423.93917 184.53569 
L 424.162481 185.587121 
L 424.385793 182.854366 
L 424.609105 184.53569 
L 424.832416 182.854366 
L 425.502351 167.923761 
L 425.725663 172.337841 
L 425.948974 171.28641 
L 426.172286 171.28641 
L 426.618909 156.355806 
L 426.842221 159.095601 
L 427.288844 167.923761 
L 427.512156 163.509681 
L 427.735468 162.879787 
L 427.958779 162.879787 
L 428.182091 173.396311 
L 428.405403 168.975191 
L 428.628714 176.129067 
L 428.852026 177.810391 
L 429.075338 167.293867 
L 429.521961 167.293867 
L 429.745273 173.396311 
L 429.968584 168.975191 
L 430.191896 167.923761 
L 430.415208 167.923761 
L 430.638519 161.828356 
L 430.861831 161.828356 
L 431.085143 163.509681 
L 431.308454 158.465707 
L 431.531766 159.517137 
L 431.755078 161.198462 
L 431.978389 161.198462 
L 432.201701 151.311831 
L 432.425013 155.732951 
L 433.094947 140.802347 
L 433.318259 140.802347 
L 433.541571 145.216427 
L 433.764882 145.216427 
L 434.211506 128.182961 
L 434.434817 128.182961 
L 434.658129 132.597041 
L 434.881441 126.501636 
L 435.104752 132.597041 
L 435.328064 132.597041 
L 435.551376 135.95969 
L 435.774687 137.641015 
L 435.997999 137.641015 
L 436.221311 135.95969 
L 436.444622 135.95969 
L 436.667934 133.226935 
L 436.891246 137.641015 
L 437.114557 137.641015 
L 437.337869 136.589584 
L 437.784492 136.589584 
L 438.007804 132.168464 
L 438.231116 132.168464 
L 438.454427 136.589584 
L 438.677739 136.589584 
L 438.901051 133.226935 
L 439.124362 139.32234 
L 439.570985 101.262864 
L 439.794297 114.505104 
L 440.017609 114.505104 
L 440.24092 123.340304 
L 440.464232 119.977655 
L 440.687544 136.589584 
L 440.910855 134.90826 
L 441.134167 137.641015 
L 441.357479 143.73642 
L 441.58079 135.95969 
L 441.804102 135.95969 
L 442.027414 127.12449 
L 442.250725 123.761841 
L 442.474037 129.864286 
L 442.697349 132.597041 
L 443.143972 123.761841 
L 443.367284 123.761841 
L 443.590595 114.933681 
L 443.813907 114.933681 
L 444.037219 117.666436 
L 444.26053 113.88225 
L 444.483842 116.615006 
L 444.707154 111.142455 
L 444.930465 124.391735 
L 445.153777 111.571031 
L 445.377089 111.571031 
L 445.6004 114.303787 
L 446.047024 109.889707 
L 446.270335 114.303787 
L 446.493647 106.527057 
L 446.94027 109.889707 
L 447.163582 109.259813 
L 447.386893 110.941137 
L 447.610205 98.120434 
L 447.833517 101.483083 
L 448.056828 101.483083 
L 448.503452 106.948594 
L 448.726763 105.897163 
L 448.950075 108.629918 
L 449.173387 108.629918 
L 449.396698 114.732363 
L 449.62001 117.465118 
L 449.843322 108.007064 
L 450.066633 114.102469 
L 450.289945 109.688389 
L 450.513257 114.102469 
L 451.183192 114.102469 
L 451.629815 117.465118 
L 452.076438 114.102469 
L 452.29975 114.102469 
L 452.523062 118.516549 
L 452.746373 114.102469 
L 452.969685 118.516549 
L 453.192996 112.421144 
L 453.416308 114.102469 
L 453.63962 121.879198 
L 453.862931 113.051038 
L 454.309555 123.560523 
L 454.532866 121.879198 
L 454.756178 119.146443 
L 455.202801 122.509093 
L 455.426113 116.413688 
L 455.649425 114.732363 
L 455.872736 114.732363 
L 456.096048 118.095013 
L 456.31936 119.776337 
L 456.542671 109.259813 
L 456.765983 113.673893 
L 456.989295 115.355217 
L 457.435918 115.355217 
L 457.65923 111.992568 
L 457.882541 114.732363 
L 458.105853 119.146443 
L 458.329165 114.732363 
L 458.552476 116.413688 
L 458.775788 119.146443 
L 458.9991 113.673893 
L 459.222411 113.673893 
L 459.669035 110.311243 
L 459.892346 105.475627 
L 460.115658 88.233803 
L 460.338969 88.233803 
L 460.562281 74.984523 
L 460.785593 83.819723 
L 461.008904 78.347173 
L 461.232216 69.519013 
L 461.678839 78.347173 
L 461.902151 78.347173 
L 462.125463 93.277777 
L 462.348774 94.959102 
L 462.572086 102.735831 
L 462.795398 103.365726 
L 463.018709 110.519601 
L 463.242021 104.417156 
L 463.465333 115.985111 
L 463.688644 107.156951 
L 463.911956 124.820311 
L 464.135268 115.985111 
L 464.358579 111.571031 
L 464.581891 115.985111 
L 464.805203 115.985111 
L 465.251826 130.915716 
L 465.475138 126.501636 
L 465.698449 126.501636 
L 465.921761 122.080516 
L 466.145073 122.080516 
L 466.368384 129.234391 
L 466.591696 126.501636 
L 466.815008 128.182961 
L 467.261631 132.597041 
L 467.484942 132.597041 
L 467.708254 138.062551 
L 467.931566 150.260401 
L 468.601501 150.260401 
L 468.824812 144.164996 
L 469.048124 145.846321 
L 469.494747 154.674481 
L 469.718059 146.897751 
L 469.941371 150.260401 
L 470.164682 145.846321 
L 470.387994 150.260401 
L 470.611306 146.897751 
L 470.834617 148.579076 
L 471.057929 148.579076 
L 471.281241 151.311831 
L 471.727864 141.853777 
L 471.951176 151.311831 
L 472.174487 149.630507 
L 472.397799 151.311831 
L 472.621111 157.414276 
L 472.844422 159.095601 
L 473.067734 155.732951 
L 473.291046 146.897751 
L 473.737669 146.897751 
L 473.96098 151.311831 
L 474.184292 146.897751 
L 474.407604 149.630507 
L 474.630915 145.216427 
L 474.854227 149.630507 
L 475.077539 149.630507 
L 475.30085 141.853777 
L 475.524162 140.172453 
L 475.970785 149.007653 
L 476.194097 150.688977 
L 476.417409 155.103057 
L 476.64072 153.421733 
L 476.864032 159.517137 
L 477.087344 160.568568 
L 477.310655 162.249893 
L 477.533967 157.835813 
L 477.757279 160.568568 
L 477.98059 158.887243 
L 478.203902 152.161944 
L 478.427214 197.803871 
L 478.650525 195.071116 
L 478.873837 196.122547 
L 479.097149 188.968671 
L 479.32046 190.649996 
L 479.543772 202.847845 
L 479.767084 200.11509 
L 479.990395 203.47774 
L 480.213707 198.433765 
L 480.66033 206.632031 
L 480.883642 203.899276 
L 481.106953 203.899276 
L 481.330265 208.313356 
L 481.553577 207.261925 
L 481.776888 216.097125 
L 482.0002 207.261925 
L 482.223512 202.847845 
L 482.446823 204.52917 
L 482.670135 195.69397 
L 482.893447 195.071116 
L 483.116758 193.389791 
L 483.34007 201.166521 
L 483.786693 195.071116 
L 484.010005 197.803871 
L 484.233317 195.071116 
L 484.456628 186.664492 
L 484.67994 187.715923 
L 485.126563 175.316756 
L 485.573187 167.540026 
L 485.796498 167.540026 
L 486.01981 175.316756 
L 486.243122 171.954106 
L 486.466433 171.954106 
L 486.689745 167.540026 
L 486.913057 168.591457 
L 487.136368 163.547483 
L 487.35968 165.228807 
L 487.582991 171.324212 
L 487.806303 173.635431 
L 488.029615 179.730836 
L 488.252926 179.730836 
L 488.69955 185.83328 
L 488.922861 179.730836 
L 489.369485 190.24736 
L 489.592796 185.83328 
L 490.262731 195.291335 
L 490.486043 193.61001 
L 490.709355 196.972659 
L 490.932666 194.239904 
L 491.155978 185.404704 
L 491.602601 177.627975 
L 491.825913 196.544083 
L 492.049225 198.225408 
L 492.272536 201.588057 
L 492.495848 198.855302 
L 492.71916 191.708467 
L 492.942471 194.441222 
L 493.165783 194.441222 
L 493.612406 188.345817 
L 493.835718 183.924697 
L 494.05903 182.873267 
L 494.282341 186.235916 
L 494.505653 185.606022 
L 494.728964 190.027142 
L 494.952276 197.803871 
L 495.175588 198.855302 
L 495.398899 195.492652 
L 495.622211 195.492652 
L 495.845523 189.397248 
L 496.068834 198.855302 
L 496.292146 202.646528 
L 496.515458 198.225408 
L 496.738769 198.225408 
L 496.962081 196.544083 
L 497.185393 197.602553 
L 497.632016 205.379283 
L 497.855328 202.646528 
L 498.078639 209.170509 
L 498.301951 210.851833 
L 498.525263 207.489184 
L 498.971886 226.833869 
L 499.195198 226.833869 
L 499.418509 217.998669 
L 499.641821 222.412749 
L 499.865133 213.584589 
L 500.311756 203.068064 
L 500.535068 203.068064 
L 501.205003 217.998669 
L 501.428314 217.998669 
L 501.651626 206.85929 
L 501.874937 202.44521 
L 502.098249 204.126535 
L 502.321561 217.998669 
L 502.768184 217.998669 
L 502.991496 213.584589 
L 503.214807 217.998669 
L 503.438119 216.317344 
L 503.661431 209.170509 
L 504.108054 216.947238 
L 504.331366 226.833869 
L 504.554677 224.094073 
L 504.777989 225.775398 
L 505.001301 232.929273 
L 505.224612 232.929273 
L 505.447924 225.775398 
L 505.671236 230.196518 
L 505.894547 225.775398 
L 506.117859 226.833869 
L 506.341171 226.833869 
L 506.564482 225.775398 
L 506.787794 222.412749 
L 507.011106 224.094073 
L 507.234417 240.706003 
L 507.457729 246.801408 
L 507.681041 249.541203 
L 507.904352 240.706003 
L 508.127664 247.431302 
L 508.350975 244.068652 
L 508.574287 196.544083 
L 508.797599 207.690502 
L 509.02091 207.060608 
L 509.244222 202.646528 
L 509.467534 210.423257 
L 509.690845 209.371827 
L 509.914157 222.19253 
L 510.137469 220.511205 
L 510.36078 211.474688 
L 510.584092 211.474688 
L 511.030715 202.646528 
L 511.254027 204.327852 
L 511.477339 199.906732 
L 511.70065 207.060608 
L 512.147274 251.222528 
L 512.370585 251.222528 
L 512.593897 234.40928 
L 512.817209 227.255405 
L 513.04052 260.252005 
L 513.263832 264.673125 
L 513.710455 249.541203 
L 513.933767 245.120083 
L 514.157079 229.566624 
L 514.38039 231.247949 
L 514.603702 229.566624 
L 514.827014 226.203975 
L 515.050325 226.203975 
L 515.273637 212.3248 
L 515.496948 221.16 
L 515.943572 221.16 
L 516.166883 229.98816 
L 516.390195 217.167457 
L 516.613507 221.581537 
L 516.836818 189.636367 
L 517.06013 193.628911 
L 517.283442 263.193118 
L 517.506753 177.646876 
L 517.730065 190.896156 
L 517.953377 327.14016 
L 518.176688 314.319457 
L 518.4 269.736 
L 518.4 269.736 
" style="fill:none;stroke:#4c72b0;stroke-linecap:round;stroke-width:1.75;"/>
   </g>
   <g id="patch_3">
    <path d="M 72 356.4 
L 518.4 356.4 
" style="fill:none;"/>
   </g>
   <g id="patch_4">
    <path d="M 72 39.6 
L 518.4 39.6 
" style="fill:none;"/>
   </g>
   <g id="patch_5">
    <path d="M 72 356.4 
L 72 39.6 
" style="fill:none;"/>
   </g>
   <g id="patch_6">
    <path d="M 518.4 356.4 
L 518.4 39.6 
" style="fill:none;"/>
   </g>
   <g id="text_16">
    <!-- CF - -238.82453355882998 * TF -->
    <defs>
     <path d="M 9.125 0 
L 9.125 10.6875 
L 18.65625 10.6875 
L 18.65625 0 
z
" id="LiberationSans-2e"/>
     <path d="M 38.671875 62.203125 
Q 32.8125 62.203125 28.296875 60.25 
Q 23.78125 58.296875 20.71875 54.6875 
Q 17.671875 51.078125 16.109375 46 
Q 14.546875 40.921875 14.546875 34.71875 
Q 14.546875 28.515625 16.234375 23.359375 
Q 17.921875 18.21875 21.0625 14.5 
Q 24.21875 10.796875 28.78125 8.734375 
Q 33.34375 6.6875 39.0625 6.6875 
Q 43.0625 6.6875 46.359375 7.734375 
Q 49.65625 8.796875 52.3125 10.6875 
Q 54.984375 12.59375 57.078125 15.203125 
Q 59.1875 17.828125 60.796875 21 
L 68.40625 17.1875 
Q 66.546875 13.328125 63.8125 10 
Q 61.078125 6.6875 57.390625 4.25 
Q 53.71875 1.8125 49.046875 0.40625 
Q 44.390625 -0.984375 38.625 -0.984375 
Q 30.28125 -0.984375 24 1.671875 
Q 17.71875 4.34375 13.5 9.109375 
Q 9.28125 13.875 7.171875 20.40625 
Q 5.078125 26.953125 5.078125 34.71875 
Q 5.078125 42.78125 7.296875 49.265625 
Q 9.515625 55.765625 13.78125 60.328125 
Q 18.0625 64.890625 24.3125 67.359375 
Q 30.5625 69.828125 38.578125 69.828125 
Q 49.5625 69.828125 56.9375 65.53125 
Q 64.3125 61.234375 67.78125 52.78125 
L 58.9375 49.859375 
Q 57.953125 52.296875 56.296875 54.515625 
Q 54.640625 56.734375 52.140625 58.4375 
Q 49.65625 60.15625 46.3125 61.171875 
Q 42.96875 62.203125 38.671875 62.203125 
" id="LiberationSans-43"/>
     <path d="M 17.53125 61.1875 
L 17.53125 35.59375 
L 55.90625 35.59375 
L 55.90625 27.875 
L 17.53125 27.875 
L 17.53125 0 
L 8.203125 0 
L 8.203125 68.796875 
L 57.078125 68.796875 
L 57.078125 61.1875 
z
" id="LiberationSans-46"/>
     <path d="M 22.265625 54.390625 
L 35.15625 59.421875 
L 37.359375 52.984375 
L 23.578125 49.421875 
L 32.625 37.203125 
L 26.8125 33.6875 
L 19.484375 46.296875 
L 11.859375 33.796875 
L 6.0625 37.3125 
L 15.28125 49.421875 
L 1.609375 52.984375 
L 3.8125 59.515625 
L 16.84375 54.296875 
L 16.265625 68.796875 
L 22.90625 68.796875 
z
" id="LiberationSans-2a"/>
     <path d="M 35.15625 61.1875 
L 35.15625 0 
L 25.875 0 
L 25.875 61.1875 
L 2.25 61.1875 
L 2.25 68.796875 
L 58.796875 68.796875 
L 58.796875 61.1875 
z
" id="LiberationSans-54"/>
    </defs>
    <g style="fill:#262626;" transform="translate(208.486875 34.6)scale(0.12 -0.12)">
     <use xlink:href="#LiberationSans-43"/>
     <use x="72.216796875" xlink:href="#LiberationSans-46"/>
     <use x="133.30078125" xlink:href="#LiberationSans-20"/>
     <use x="161.083984375" xlink:href="#LiberationSans-2d"/>
     <use x="194.384765625" xlink:href="#LiberationSans-20"/>
     <use x="222.16796875" xlink:href="#LiberationSans-2d"/>
     <use x="255.46875" xlink:href="#LiberationSans-32"/>
     <use x="311.083984375" xlink:href="#LiberationSans-33"/>
     <use x="366.69921875" xlink:href="#LiberationSans-38"/>
     <use x="422.314453125" xlink:href="#LiberationSans-2e"/>
     <use x="450.09765625" xlink:href="#LiberationSans-38"/>
     <use x="505.712890625" xlink:href="#LiberationSans-32"/>
     <use x="561.328125" xlink:href="#LiberationSans-34"/>
     <use x="616.943359375" xlink:href="#LiberationSans-35"/>
     <use x="672.55859375" xlink:href="#LiberationSans-33"/>
     <use x="728.173828125" xlink:href="#LiberationSans-33"/>
     <use x="783.7890625" xlink:href="#LiberationSans-35"/>
     <use x="839.404296875" xlink:href="#LiberationSans-35"/>
     <use x="895.01953125" xlink:href="#LiberationSans-38"/>
     <use x="950.634765625" xlink:href="#LiberationSans-38"/>
     <use x="1006.25" xlink:href="#LiberationSans-32"/>
     <use x="1061.865234375" xlink:href="#LiberationSans-39"/>
     <use x="1117.48046875" xlink:href="#LiberationSans-39"/>
     <use x="1173.095703125" xlink:href="#LiberationSans-38"/>
     <use x="1228.7109375" xlink:href="#LiberationSans-20"/>
     <use x="1256.494140625" xlink:href="#LiberationSans-2a"/>
     <use x="1295.41015625" xlink:href="#LiberationSans-20"/>
     <use x="1323.177734375" xlink:href="#LiberationSans-54"/>
     <use x="1384.26171875" xlink:href="#LiberationSans-46"/>
    </g>
   </g>
  </g>
 </g>
 <defs>
  <clipPath id="p4e788c256b">
   <rect height="316.8" width="446.4" x="72.0" y="39.6"/>
  </clipPath>
 </defs>
</svg>
