<?xml version="1.0" encoding="utf-8" standalone="no"?>
<!DOCTYPE svg PUBLIC "-//W3C//DTD SVG 1.1//EN"
  "http://www.w3.org/Graphics/SVG/1.1/DTD/svg11.dtd">
<!-- Created with matplotlib (http://matplotlib.org/) -->
<svg height="396pt" version="1.1" viewBox="0 0 576 396" width="576pt" xmlns="http://www.w3.org/2000/svg" xmlns:xlink="http://www.w3.org/1999/xlink">
 <defs>
  <style type="text/css">
*{stroke-linecap:butt;stroke-linejoin:round;stroke-miterlimit:100000;}
  </style>
 </defs>
 <g id="figure_1">
  <g id="patch_1">
   <path d="M 0 396 
L 576 396 
L 576 0 
L 0 0 
z
" style="fill:#ffffff;"/>
  </g>
  <g id="axes_1">
   <g id="patch_2">
    <path d="M 72 356.4 
L 518.4 356.4 
L 518.4 39.6 
L 72 39.6 
z
" style="fill:#eaeaf2;"/>
   </g>
   <g id="matplotlib.axis_1">
    <g id="xtick_1">
     <g id="line2d_1">
      <path clip-path="url(#p70ad9a9569)" d="M 72 356.4 
L 72 39.6 
" style="fill:none;stroke:#ffffff;stroke-linecap:round;"/>
     </g>
     <g id="line2d_2"/>
     <g id="line2d_3"/>
     <g id="text_1">
      <!-- 2016-09-29 22:50:00 -->
      <defs>
       <path d="M 5.03125 0 
L 5.03125 6.203125 
Q 7.515625 11.921875 11.109375 16.28125 
Q 14.703125 20.65625 18.65625 24.1875 
Q 22.609375 27.734375 26.484375 30.765625 
Q 30.375 33.796875 33.5 36.8125 
Q 36.625 39.84375 38.546875 43.15625 
Q 40.484375 46.484375 40.484375 50.6875 
Q 40.484375 53.609375 39.59375 55.828125 
Q 38.71875 58.0625 37.0625 59.5625 
Q 35.40625 61.078125 33.078125 61.828125 
Q 30.765625 62.59375 27.9375 62.59375 
Q 25.296875 62.59375 22.96875 61.859375 
Q 20.65625 61.140625 18.84375 59.671875 
Q 17.046875 58.203125 15.890625 56.03125 
Q 14.75 53.859375 14.40625 50.984375 
L 5.421875 51.8125 
Q 5.859375 55.515625 7.46875 58.78125 
Q 9.078125 62.0625 11.90625 64.53125 
Q 14.75 67 18.71875 68.40625 
Q 22.703125 69.828125 27.9375 69.828125 
Q 33.0625 69.828125 37.0625 68.609375 
Q 41.0625 67.390625 43.8125 64.984375 
Q 46.578125 62.59375 48.046875 59.078125 
Q 49.515625 55.5625 49.515625 50.984375 
Q 49.515625 47.515625 48.265625 44.390625 
Q 47.015625 41.265625 44.9375 38.421875 
Q 42.875 35.59375 40.140625 32.953125 
Q 37.40625 30.328125 34.421875 27.8125 
Q 31.453125 25.296875 28.421875 22.828125 
Q 25.390625 20.359375 22.71875 17.859375 
Q 20.0625 15.375 17.96875 12.8125 
Q 15.875 10.25 14.703125 7.46875 
L 50.59375 7.46875 
L 50.59375 0 
z
" id="LiberationSans-32"/>
       <path d="M 7.625 0 
L 7.625 7.46875 
L 25.140625 7.46875 
L 25.140625 60.40625 
L 9.625 49.3125 
L 9.625 57.625 
L 25.875 68.796875 
L 33.984375 68.796875 
L 33.984375 7.46875 
L 50.734375 7.46875 
L 50.734375 0 
z
" id="LiberationSans-31"/>
       <path d="M 51.703125 34.421875 
Q 51.703125 24.515625 49.828125 17.75 
Q 47.953125 10.984375 44.703125 6.8125 
Q 41.453125 2.640625 37.0625 0.828125 
Q 32.671875 -0.984375 27.6875 -0.984375 
Q 22.65625 -0.984375 18.3125 0.828125 
Q 13.96875 2.640625 10.765625 6.78125 
Q 7.5625 10.9375 5.734375 17.703125 
Q 3.90625 24.46875 3.90625 34.421875 
Q 3.90625 44.828125 5.734375 51.640625 
Q 7.5625 58.453125 10.78125 62.5 
Q 14.015625 66.546875 18.40625 68.1875 
Q 22.796875 69.828125 27.984375 69.828125 
Q 32.90625 69.828125 37.21875 68.1875 
Q 41.546875 66.546875 44.765625 62.5 
Q 48 58.453125 49.84375 51.640625 
Q 51.703125 44.828125 51.703125 34.421875 
M 42.78125 34.421875 
Q 42.78125 42.625 41.796875 48.0625 
Q 40.828125 53.515625 38.921875 56.765625 
Q 37.015625 60.015625 34.25 61.359375 
Q 31.5 62.703125 27.984375 62.703125 
Q 24.265625 62.703125 21.4375 61.328125 
Q 18.609375 59.96875 16.671875 56.71875 
Q 14.75 53.46875 13.765625 48.015625 
Q 12.796875 42.578125 12.796875 34.421875 
Q 12.796875 26.515625 13.796875 21.09375 
Q 14.796875 15.671875 16.71875 12.375 
Q 18.65625 9.078125 21.4375 7.640625 
Q 24.21875 6.203125 27.78125 6.203125 
Q 31.25 6.203125 34.03125 7.640625 
Q 36.8125 9.078125 38.734375 12.375 
Q 40.671875 15.671875 41.71875 21.09375 
Q 42.78125 26.515625 42.78125 34.421875 
" id="LiberationSans-30"/>
       <path d="M 50.875 35.796875 
Q 50.875 26.609375 49.140625 19.703125 
Q 47.40625 12.796875 44.1875 8.203125 
Q 40.96875 3.609375 36.34375 1.3125 
Q 31.734375 -0.984375 25.984375 -0.984375 
Q 22.015625 -0.984375 18.84375 -0.171875 
Q 15.671875 0.640625 13.171875 2.34375 
Q 10.6875 4.046875 8.921875 6.78125 
Q 7.171875 9.515625 6.109375 13.375 
L 14.5 14.703125 
Q 15.875 10.25 18.78125 8.171875 
Q 21.6875 6.109375 26.125 6.109375 
Q 29.6875 6.109375 32.640625 7.78125 
Q 35.59375 9.46875 37.671875 12.84375 
Q 39.75 16.21875 40.921875 21.296875 
Q 42.09375 26.375 42.1875 33.203125 
Q 41.15625 30.90625 39.375 29.09375 
Q 37.59375 27.296875 35.328125 26.046875 
Q 33.0625 24.8125 30.421875 24.140625 
Q 27.78125 23.484375 25.09375 23.484375 
Q 20.40625 23.484375 16.625 25.171875 
Q 12.84375 26.859375 10.203125 29.875 
Q 7.5625 32.90625 6.125 37.171875 
Q 4.6875 41.453125 4.6875 46.6875 
Q 4.6875 52 6.21875 56.296875 
Q 7.765625 60.59375 10.6875 63.59375 
Q 13.625 66.609375 17.890625 68.21875 
Q 22.171875 69.828125 27.59375 69.828125 
Q 39.0625 69.828125 44.96875 61.328125 
Q 50.875 52.828125 50.875 35.796875 
M 41.3125 44.28125 
Q 41.3125 48.09375 40.40625 51.453125 
Q 39.5 54.828125 37.71875 57.3125 
Q 35.9375 59.8125 33.328125 61.25 
Q 30.71875 62.703125 27.296875 62.703125 
Q 24.125 62.703125 21.578125 61.578125 
Q 19.046875 60.453125 17.28125 58.375 
Q 15.53125 56.296875 14.578125 53.3125 
Q 13.625 50.34375 13.625 46.6875 
Q 13.625 43.21875 14.46875 40.234375 
Q 15.328125 37.25 17.03125 35.078125 
Q 18.75 32.90625 21.28125 31.65625 
Q 23.828125 30.421875 27.203125 30.421875 
Q 29.640625 30.421875 32.15625 31.25 
Q 34.671875 32.078125 36.6875 33.78125 
Q 38.71875 35.5 40.015625 38.109375 
Q 41.3125 40.71875 41.3125 44.28125 
" id="LiberationSans-39"/>
       <path d="M 9.125 42.71875 
L 9.125 52.828125 
L 18.65625 52.828125 
L 18.65625 42.71875 
z
M 9.125 0 
L 9.125 10.109375 
L 18.65625 10.109375 
L 18.65625 0 
z
" id="LiberationSans-3a"/>
       <path d="M 51.421875 22.40625 
Q 51.421875 17.234375 49.859375 12.9375 
Q 48.296875 8.640625 45.21875 5.53125 
Q 42.140625 2.4375 37.578125 0.71875 
Q 33.015625 -0.984375 27 -0.984375 
Q 21.578125 -0.984375 17.546875 0.28125 
Q 13.53125 1.5625 10.734375 3.78125 
Q 7.953125 6 6.3125 8.984375 
Q 4.6875 11.96875 4 15.375 
L 12.890625 16.40625 
Q 13.421875 14.453125 14.390625 12.625 
Q 15.375 10.796875 17.0625 9.34375 
Q 18.75 7.90625 21.21875 7.046875 
Q 23.6875 6.203125 27.203125 6.203125 
Q 30.609375 6.203125 33.390625 7.25 
Q 36.1875 8.296875 38.15625 10.34375 
Q 40.140625 12.40625 41.203125 15.375 
Q 42.28125 18.359375 42.28125 22.21875 
Q 42.28125 25.390625 41.25 28.046875 
Q 40.234375 30.71875 38.328125 32.640625 
Q 36.421875 34.578125 33.65625 35.640625 
Q 30.90625 36.71875 27.390625 36.71875 
Q 25.203125 36.71875 23.34375 36.328125 
Q 21.484375 35.9375 19.890625 35.25 
Q 18.3125 34.578125 17.015625 33.671875 
Q 15.71875 32.765625 14.59375 31.78125 
L 6 31.78125 
L 8.296875 68.796875 
L 47.40625 68.796875 
L 47.40625 61.328125 
L 16.3125 61.328125 
L 14.984375 39.5 
Q 17.328125 41.3125 20.84375 42.59375 
Q 24.359375 43.890625 29.203125 43.890625 
Q 34.328125 43.890625 38.421875 42.328125 
Q 42.53125 40.765625 45.40625 37.90625 
Q 48.296875 35.0625 49.859375 31.109375 
Q 51.421875 27.15625 51.421875 22.40625 
" id="LiberationSans-35"/>
       <path id="LiberationSans-20"/>
       <path d="M 4.4375 22.65625 
L 4.4375 30.46875 
L 28.859375 30.46875 
L 28.859375 22.65625 
z
" id="LiberationSans-2d"/>
       <path d="M 51.21875 22.515625 
Q 51.21875 17.328125 49.78125 13 
Q 48.34375 8.6875 45.53125 5.578125 
Q 42.71875 2.484375 38.5625 0.75 
Q 34.421875 -0.984375 29 -0.984375 
Q 23 -0.984375 18.5 1.3125 
Q 14.015625 3.609375 11.03125 7.921875 
Q 8.0625 12.25 6.5625 18.53125 
Q 5.078125 24.8125 5.078125 32.8125 
Q 5.078125 42 6.765625 48.921875 
Q 8.453125 55.859375 11.625 60.5 
Q 14.796875 65.140625 19.359375 67.484375 
Q 23.921875 69.828125 29.6875 69.828125 
Q 33.203125 69.828125 36.28125 69.09375 
Q 39.359375 68.359375 41.875 66.71875 
Q 44.390625 65.09375 46.28125 62.40625 
Q 48.1875 59.71875 49.3125 55.8125 
L 40.921875 54.296875 
Q 39.546875 58.734375 36.546875 60.71875 
Q 33.546875 62.703125 29.59375 62.703125 
Q 25.984375 62.703125 23.046875 60.984375 
Q 20.125 59.28125 18.0625 55.875 
Q 16.015625 52.484375 14.90625 47.359375 
Q 13.8125 42.234375 13.8125 35.40625 
Q 16.21875 39.84375 20.5625 42.15625 
Q 24.90625 44.484375 30.515625 44.484375 
Q 35.203125 44.484375 39.015625 42.96875 
Q 42.828125 41.453125 45.53125 38.59375 
Q 48.25 35.75 49.734375 31.671875 
Q 51.21875 27.59375 51.21875 22.515625 
M 42.28125 22.125 
Q 42.28125 25.6875 41.40625 28.5625 
Q 40.53125 31.453125 38.765625 33.46875 
Q 37.015625 35.5 34.421875 36.59375 
Q 31.84375 37.703125 28.421875 37.703125 
Q 26.03125 37.703125 23.578125 36.984375 
Q 21.140625 36.28125 19.15625 34.6875 
Q 17.1875 33.109375 15.9375 30.515625 
Q 14.703125 27.9375 14.703125 24.21875 
Q 14.703125 20.40625 15.671875 17.109375 
Q 16.65625 13.8125 18.484375 11.375 
Q 20.3125 8.9375 22.890625 7.515625 
Q 25.484375 6.109375 28.71875 6.109375 
Q 31.890625 6.109375 34.40625 7.203125 
Q 36.921875 8.296875 38.671875 10.375 
Q 40.4375 12.453125 41.359375 15.421875 
Q 42.28125 18.40625 42.28125 22.125 
" id="LiberationSans-36"/>
      </defs>
      <g style="fill:#262626;" transform="translate(25.5765625 370.646875)scale(0.1 -0.1)">
       <use xlink:href="#LiberationSans-32"/>
       <use x="55.615234375" xlink:href="#LiberationSans-30"/>
       <use x="111.23046875" xlink:href="#LiberationSans-31"/>
       <use x="166.845703125" xlink:href="#LiberationSans-36"/>
       <use x="222.4609375" xlink:href="#LiberationSans-2d"/>
       <use x="255.76171875" xlink:href="#LiberationSans-30"/>
       <use x="311.376953125" xlink:href="#LiberationSans-39"/>
       <use x="366.9921875" xlink:href="#LiberationSans-2d"/>
       <use x="400.29296875" xlink:href="#LiberationSans-32"/>
       <use x="455.908203125" xlink:href="#LiberationSans-39"/>
       <use x="511.5234375" xlink:href="#LiberationSans-20"/>
       <use x="539.306640625" xlink:href="#LiberationSans-32"/>
       <use x="594.921875" xlink:href="#LiberationSans-32"/>
       <use x="650.537109375" xlink:href="#LiberationSans-3a"/>
       <use x="678.3203125" xlink:href="#LiberationSans-35"/>
       <use x="733.935546875" xlink:href="#LiberationSans-30"/>
       <use x="789.55078125" xlink:href="#LiberationSans-3a"/>
       <use x="817.333984375" xlink:href="#LiberationSans-30"/>
       <use x="872.94921875" xlink:href="#LiberationSans-30"/>
      </g>
     </g>
    </g>
    <g id="xtick_2">
     <g id="line2d_4">
      <path clip-path="url(#p70ad9a9569)" d="M 183.655828 356.4 
L 183.655828 39.6 
" style="fill:none;stroke:#ffffff;stroke-linecap:round;"/>
     </g>
     <g id="line2d_5"/>
     <g id="line2d_6"/>
     <g id="text_2">
      <!-- 2016-10-10 21:07:00 -->
      <defs>
       <path d="M 50.59375 61.671875 
Q 45.40625 53.765625 41.0625 46.453125 
Q 36.71875 39.15625 33.59375 31.75 
Q 30.46875 24.359375 28.734375 16.578125 
Q 27 8.796875 27 0 
L 17.828125 0 
Q 17.828125 8.25 19.78125 16.1875 
Q 21.734375 24.125 25.046875 31.765625 
Q 28.375 39.40625 32.765625 46.78125 
Q 37.15625 54.15625 42.09375 61.328125 
L 5.125 61.328125 
L 5.125 68.796875 
L 50.59375 68.796875 
z
" id="LiberationSans-37"/>
      </defs>
      <g style="fill:#262626;" transform="translate(137.232390414 370.646875)scale(0.1 -0.1)">
       <use xlink:href="#LiberationSans-32"/>
       <use x="55.615234375" xlink:href="#LiberationSans-30"/>
       <use x="111.23046875" xlink:href="#LiberationSans-31"/>
       <use x="166.845703125" xlink:href="#LiberationSans-36"/>
       <use x="222.4609375" xlink:href="#LiberationSans-2d"/>
       <use x="255.76171875" xlink:href="#LiberationSans-31"/>
       <use x="311.376953125" xlink:href="#LiberationSans-30"/>
       <use x="366.9921875" xlink:href="#LiberationSans-2d"/>
       <use x="400.29296875" xlink:href="#LiberationSans-31"/>
       <use x="455.908203125" xlink:href="#LiberationSans-30"/>
       <use x="511.5234375" xlink:href="#LiberationSans-20"/>
       <use x="539.306640625" xlink:href="#LiberationSans-32"/>
       <use x="594.921875" xlink:href="#LiberationSans-31"/>
       <use x="650.537109375" xlink:href="#LiberationSans-3a"/>
       <use x="678.3203125" xlink:href="#LiberationSans-30"/>
       <use x="733.935546875" xlink:href="#LiberationSans-37"/>
       <use x="789.55078125" xlink:href="#LiberationSans-3a"/>
       <use x="817.333984375" xlink:href="#LiberationSans-30"/>
       <use x="872.94921875" xlink:href="#LiberationSans-30"/>
      </g>
     </g>
    </g>
    <g id="xtick_3">
     <g id="line2d_7">
      <path clip-path="url(#p70ad9a9569)" d="M 295.311656 356.4 
L 295.311656 39.6 
" style="fill:none;stroke:#ffffff;stroke-linecap:round;"/>
     </g>
     <g id="line2d_8"/>
     <g id="line2d_9"/>
     <g id="text_3">
      <!-- 2016-10-11 23:11:00 -->
      <defs>
       <path d="M 51.21875 19 
Q 51.21875 14.265625 49.671875 10.546875 
Q 48.140625 6.84375 45.1875 4.265625 
Q 42.234375 1.703125 37.859375 0.359375 
Q 33.5 -0.984375 27.875 -0.984375 
Q 21.484375 -0.984375 17.109375 0.609375 
Q 12.75 2.203125 9.90625 4.8125 
Q 7.078125 7.421875 5.65625 10.765625 
Q 4.25 14.109375 3.8125 17.671875 
L 12.890625 18.5 
Q 13.28125 15.765625 14.328125 13.515625 
Q 15.375 11.28125 17.1875 9.671875 
Q 19 8.0625 21.625 7.171875 
Q 24.265625 6.296875 27.875 6.296875 
Q 34.515625 6.296875 38.296875 9.5625 
Q 42.09375 12.84375 42.09375 19.28125 
Q 42.09375 23.09375 40.40625 25.40625 
Q 38.71875 27.734375 36.203125 29.03125 
Q 33.6875 30.328125 30.734375 30.765625 
Q 27.78125 31.203125 25.296875 31.203125 
L 20.3125 31.203125 
L 20.3125 38.8125 
L 25.09375 38.8125 
Q 27.59375 38.8125 30.265625 39.328125 
Q 32.953125 39.84375 35.171875 41.1875 
Q 37.40625 42.53125 38.84375 44.828125 
Q 40.28125 47.125 40.28125 50.6875 
Q 40.28125 56.203125 37.03125 59.390625 
Q 33.796875 62.59375 27.390625 62.59375 
Q 21.578125 62.59375 17.984375 59.609375 
Q 14.40625 56.640625 13.8125 51.21875 
L 4.984375 51.90625 
Q 5.515625 56.453125 7.46875 59.8125 
Q 9.421875 63.1875 12.421875 65.40625 
Q 15.4375 67.625 19.28125 68.71875 
Q 23.140625 69.828125 27.484375 69.828125 
Q 33.25 69.828125 37.390625 68.375 
Q 41.546875 66.9375 44.1875 64.46875 
Q 46.828125 62.015625 48.0625 58.6875 
Q 49.3125 55.375 49.3125 51.609375 
Q 49.3125 48.578125 48.484375 45.9375 
Q 47.65625 43.3125 45.890625 41.203125 
Q 44.140625 39.109375 41.421875 37.59375 
Q 38.71875 36.078125 34.90625 35.296875 
L 34.90625 35.109375 
Q 39.0625 34.671875 42.140625 33.21875 
Q 45.21875 31.78125 47.21875 29.625 
Q 49.21875 27.484375 50.21875 24.75 
Q 51.21875 22.015625 51.21875 19 
" id="LiberationSans-33"/>
      </defs>
      <g style="fill:#262626;" transform="translate(248.888218328 370.646875)scale(0.1 -0.1)">
       <use xlink:href="#LiberationSans-32"/>
       <use x="55.615234375" xlink:href="#LiberationSans-30"/>
       <use x="111.23046875" xlink:href="#LiberationSans-31"/>
       <use x="166.845703125" xlink:href="#LiberationSans-36"/>
       <use x="222.4609375" xlink:href="#LiberationSans-2d"/>
       <use x="255.76171875" xlink:href="#LiberationSans-31"/>
       <use x="311.376953125" xlink:href="#LiberationSans-30"/>
       <use x="366.9921875" xlink:href="#LiberationSans-2d"/>
       <use x="400.29296875" xlink:href="#LiberationSans-31"/>
       <use x="455.908203125" xlink:href="#LiberationSans-31"/>
       <use x="511.5234375" xlink:href="#LiberationSans-20"/>
       <use x="539.306640625" xlink:href="#LiberationSans-32"/>
       <use x="594.921875" xlink:href="#LiberationSans-33"/>
       <use x="650.537109375" xlink:href="#LiberationSans-3a"/>
       <use x="678.3203125" xlink:href="#LiberationSans-31"/>
       <use x="733.935546875" xlink:href="#LiberationSans-31"/>
       <use x="789.55078125" xlink:href="#LiberationSans-3a"/>
       <use x="817.333984375" xlink:href="#LiberationSans-30"/>
       <use x="872.94921875" xlink:href="#LiberationSans-30"/>
      </g>
     </g>
    </g>
    <g id="xtick_4">
     <g id="line2d_10">
      <path clip-path="url(#p70ad9a9569)" d="M 406.967484 356.4 
L 406.967484 39.6 
" style="fill:none;stroke:#ffffff;stroke-linecap:round;"/>
     </g>
     <g id="line2d_11"/>
     <g id="line2d_12"/>
     <g id="text_4">
      <!-- 2016-10-13 10:59:00 -->
      <g style="fill:#262626;" transform="translate(360.544046242 370.646875)scale(0.1 -0.1)">
       <use xlink:href="#LiberationSans-32"/>
       <use x="55.615234375" xlink:href="#LiberationSans-30"/>
       <use x="111.23046875" xlink:href="#LiberationSans-31"/>
       <use x="166.845703125" xlink:href="#LiberationSans-36"/>
       <use x="222.4609375" xlink:href="#LiberationSans-2d"/>
       <use x="255.76171875" xlink:href="#LiberationSans-31"/>
       <use x="311.376953125" xlink:href="#LiberationSans-30"/>
       <use x="366.9921875" xlink:href="#LiberationSans-2d"/>
       <use x="400.29296875" xlink:href="#LiberationSans-31"/>
       <use x="455.908203125" xlink:href="#LiberationSans-33"/>
       <use x="511.5234375" xlink:href="#LiberationSans-20"/>
       <use x="539.306640625" xlink:href="#LiberationSans-31"/>
       <use x="594.921875" xlink:href="#LiberationSans-30"/>
       <use x="650.537109375" xlink:href="#LiberationSans-3a"/>
       <use x="678.3203125" xlink:href="#LiberationSans-35"/>
       <use x="733.935546875" xlink:href="#LiberationSans-39"/>
       <use x="789.55078125" xlink:href="#LiberationSans-3a"/>
       <use x="817.333984375" xlink:href="#LiberationSans-30"/>
       <use x="872.94921875" xlink:href="#LiberationSans-30"/>
      </g>
     </g>
    </g>
    <g id="text_5">
     <!-- time -->
     <defs>
      <path d="M 13.484375 24.5625 
Q 13.484375 20.40625 14.328125 16.90625 
Q 15.1875 13.421875 16.96875 10.90625 
Q 18.75 8.40625 21.53125 7 
Q 24.3125 5.609375 28.21875 5.609375 
Q 33.9375 5.609375 37.375 7.90625 
Q 40.828125 10.203125 42.046875 13.71875 
L 49.75 11.53125 
Q 48.921875 9.328125 47.4375 7.109375 
Q 45.953125 4.890625 43.453125 3.09375 
Q 40.96875 1.3125 37.234375 0.15625 
Q 33.5 -0.984375 28.21875 -0.984375 
Q 16.5 -0.984375 10.375 6 
Q 4.25 12.984375 4.25 26.765625 
Q 4.25 34.1875 6.09375 39.328125 
Q 7.953125 44.484375 11.171875 47.703125 
Q 14.40625 50.921875 18.703125 52.359375 
Q 23 53.8125 27.875 53.8125 
Q 34.515625 53.8125 38.984375 51.65625 
Q 43.453125 49.515625 46.15625 45.71875 
Q 48.875 41.9375 50.015625 36.8125 
Q 51.171875 31.6875 51.171875 25.734375 
L 51.171875 24.5625 
z
M 42.09375 31.296875 
Q 41.359375 39.65625 37.84375 43.484375 
Q 34.328125 47.3125 27.734375 47.3125 
Q 25.53125 47.3125 23.109375 46.609375 
Q 20.703125 45.90625 18.65625 44.09375 
Q 16.609375 42.28125 15.1875 39.171875 
Q 13.765625 36.078125 13.578125 31.296875 
z
" id="LiberationSans-65"/>
      <path d="M 6.6875 64.0625 
L 6.6875 72.46875 
L 15.484375 72.46875 
L 15.484375 64.0625 
z
M 6.6875 0 
L 6.6875 52.828125 
L 15.484375 52.828125 
L 15.484375 0 
z
" id="LiberationSans-69"/>
      <path d="M 27.046875 0.390625 
Q 25.046875 -0.140625 22.96875 -0.453125 
Q 20.90625 -0.78125 18.171875 -0.78125 
Q 7.625 -0.78125 7.625 11.1875 
L 7.625 46.4375 
L 1.515625 46.4375 
L 1.515625 52.828125 
L 7.953125 52.828125 
L 10.546875 64.65625 
L 16.40625 64.65625 
L 16.40625 52.828125 
L 26.171875 52.828125 
L 26.171875 46.4375 
L 16.40625 46.4375 
L 16.40625 13.09375 
Q 16.40625 9.28125 17.640625 7.734375 
Q 18.890625 6.203125 21.96875 6.203125 
Q 23.25 6.203125 24.4375 6.390625 
Q 25.640625 6.59375 27.046875 6.890625 
z
" id="LiberationSans-74"/>
      <path d="M 37.5 0 
L 37.5 33.5 
Q 37.5 37.359375 37.015625 39.9375 
Q 36.53125 42.53125 35.375 44.109375 
Q 34.234375 45.703125 32.375 46.359375 
Q 30.515625 47.015625 27.828125 47.015625 
Q 25.046875 47.015625 22.796875 45.921875 
Q 20.5625 44.828125 18.96875 42.75 
Q 17.390625 40.671875 16.53125 37.625 
Q 15.671875 34.578125 15.671875 30.609375 
L 15.671875 0 
L 6.9375 0 
L 6.9375 41.546875 
Q 6.9375 43.21875 6.90625 45.046875 
Q 6.890625 46.875 6.828125 48.5 
Q 6.78125 50.140625 6.734375 51.3125 
Q 6.6875 52.484375 6.640625 52.828125 
L 14.9375 52.828125 
Q 14.984375 52.59375 15.03125 51.515625 
Q 15.09375 50.4375 15.15625 49.046875 
Q 15.234375 47.65625 15.28125 46.21875 
Q 15.328125 44.78125 15.328125 43.796875 
L 15.484375 43.796875 
Q 16.65625 46.09375 18.015625 47.953125 
Q 19.390625 49.8125 21.21875 51.09375 
Q 23.046875 52.390625 25.40625 53.09375 
Q 27.78125 53.8125 30.90625 53.8125 
Q 36.921875 53.8125 40.40625 51.421875 
Q 43.890625 49.03125 45.265625 43.796875 
L 45.40625 43.796875 
Q 46.578125 46.09375 48.046875 47.953125 
Q 49.515625 49.8125 51.46875 51.09375 
Q 53.421875 52.390625 55.859375 53.09375 
Q 58.296875 53.8125 61.421875 53.8125 
Q 65.4375 53.8125 68.328125 52.734375 
Q 71.234375 51.65625 73.09375 49.40625 
Q 74.953125 47.171875 75.828125 43.625 
Q 76.703125 40.09375 76.703125 35.203125 
L 76.703125 0 
L 68.015625 0 
L 68.015625 33.5 
Q 68.015625 37.359375 67.53125 39.9375 
Q 67.046875 42.53125 65.890625 44.109375 
Q 64.75 45.703125 62.890625 46.359375 
Q 61.03125 47.015625 58.34375 47.015625 
Q 55.5625 47.015625 53.3125 45.96875 
Q 51.078125 44.921875 49.484375 42.875 
Q 47.90625 40.828125 47.046875 37.75 
Q 46.1875 34.671875 46.1875 30.609375 
L 46.1875 0 
z
" id="LiberationSans-6d"/>
     </defs>
     <g style="fill:#262626;" transform="translate(284.81015625 385.6934375)scale(0.11 -0.11)">
      <use xlink:href="#LiberationSans-74"/>
      <use x="27.783203125" xlink:href="#LiberationSans-69"/>
      <use x="50.0" xlink:href="#LiberationSans-6d"/>
      <use x="133.30078125" xlink:href="#LiberationSans-65"/>
     </g>
    </g>
   </g>
   <g id="matplotlib.axis_2">
    <g id="ytick_1">
     <g id="line2d_13">
      <path clip-path="url(#p70ad9a9569)" d="M 72 356.4 
L 518.4 356.4 
" style="fill:none;stroke:#ffffff;stroke-linecap:round;"/>
     </g>
     <g id="line2d_14"/>
     <g id="line2d_15"/>
     <g id="text_6">
      <!-- 2750 -->
      <g style="fill:#262626;" transform="translate(42.75625 358.9859375)scale(0.1 -0.1)">
       <use xlink:href="#LiberationSans-32"/>
       <use x="55.615234375" xlink:href="#LiberationSans-37"/>
       <use x="111.23046875" xlink:href="#LiberationSans-35"/>
       <use x="166.845703125" xlink:href="#LiberationSans-30"/>
      </g>
     </g>
    </g>
    <g id="ytick_2">
     <g id="line2d_16">
      <path clip-path="url(#p70ad9a9569)" d="M 72 293.04 
L 518.4 293.04 
" style="fill:none;stroke:#ffffff;stroke-linecap:round;"/>
     </g>
     <g id="line2d_17"/>
     <g id="line2d_18"/>
     <g id="text_7">
      <!-- 2800 -->
      <defs>
       <path d="M 51.265625 19.1875 
Q 51.265625 14.796875 49.875 11.109375 
Q 48.484375 7.421875 45.625 4.734375 
Q 42.78125 2.046875 38.328125 0.53125 
Q 33.890625 -0.984375 27.828125 -0.984375 
Q 21.78125 -0.984375 17.359375 0.53125 
Q 12.9375 2.046875 10.03125 4.703125 
Q 7.125 7.375 5.734375 11.0625 
Q 4.34375 14.75 4.34375 19.09375 
Q 4.34375 22.859375 5.484375 25.78125 
Q 6.640625 28.71875 8.5625 30.828125 
Q 10.5 32.953125 12.96875 34.25 
Q 15.4375 35.546875 18.0625 35.984375 
L 18.0625 36.1875 
Q 15.1875 36.859375 12.90625 38.375 
Q 10.640625 39.890625 9.09375 42.015625 
Q 7.5625 44.140625 6.75 46.71875 
Q 5.953125 49.3125 5.953125 52.203125 
Q 5.953125 55.8125 7.34375 59 
Q 8.734375 62.203125 11.46875 64.625 
Q 14.203125 67.046875 18.25 68.4375 
Q 22.3125 69.828125 27.640625 69.828125 
Q 33.25 69.828125 37.375 68.40625 
Q 41.5 67 44.203125 64.578125 
Q 46.921875 62.15625 48.234375 58.9375 
Q 49.5625 55.71875 49.5625 52.09375 
Q 49.5625 49.265625 48.75 46.671875 
Q 47.953125 44.09375 46.40625 41.96875 
Q 44.875 39.84375 42.59375 38.34375 
Q 40.328125 36.859375 37.359375 36.28125 
L 37.359375 36.078125 
Q 40.328125 35.59375 42.859375 34.296875 
Q 45.40625 33.015625 47.265625 30.890625 
Q 49.125 28.765625 50.1875 25.828125 
Q 51.265625 22.90625 51.265625 19.1875 
M 40.4375 51.609375 
Q 40.4375 54.203125 39.765625 56.34375 
Q 39.109375 58.5 37.59375 60.03125 
Q 36.078125 61.578125 33.640625 62.421875 
Q 31.203125 63.28125 27.640625 63.28125 
Q 24.171875 63.28125 21.78125 62.421875 
Q 19.390625 61.578125 17.84375 60.03125 
Q 16.3125 58.5 15.625 56.34375 
Q 14.9375 54.203125 14.9375 51.609375 
Q 14.9375 49.5625 15.46875 47.40625 
Q 16.015625 45.265625 17.421875 43.5 
Q 18.84375 41.75 21.328125 40.625 
Q 23.828125 39.5 27.734375 39.5 
Q 31.890625 39.5 34.40625 40.625 
Q 36.921875 41.75 38.25 43.5 
Q 39.59375 45.265625 40.015625 47.40625 
Q 40.4375 49.5625 40.4375 51.609375 
M 42.140625 20.015625 
Q 42.140625 22.515625 41.453125 24.828125 
Q 40.765625 27.15625 39.109375 28.9375 
Q 37.453125 30.71875 34.640625 31.8125 
Q 31.84375 32.90625 27.640625 32.90625 
Q 23.78125 32.90625 21.0625 31.8125 
Q 18.359375 30.71875 16.671875 28.90625 
Q 14.984375 27.09375 14.203125 24.71875 
Q 13.421875 22.359375 13.421875 19.828125 
Q 13.421875 16.65625 14.203125 14.03125 
Q 14.984375 11.421875 16.6875 9.546875 
Q 18.40625 7.671875 21.1875 6.640625 
Q 23.96875 5.609375 27.9375 5.609375 
Q 31.9375 5.609375 34.671875 6.640625 
Q 37.40625 7.671875 39.0625 9.546875 
Q 40.71875 11.421875 41.421875 14.078125 
Q 42.140625 16.75 42.140625 20.015625 
" id="LiberationSans-38"/>
      </defs>
      <g style="fill:#262626;" transform="translate(42.75625 295.6259375)scale(0.1 -0.1)">
       <use xlink:href="#LiberationSans-32"/>
       <use x="55.615234375" xlink:href="#LiberationSans-38"/>
       <use x="111.23046875" xlink:href="#LiberationSans-30"/>
       <use x="166.845703125" xlink:href="#LiberationSans-30"/>
      </g>
     </g>
    </g>
    <g id="ytick_3">
     <g id="line2d_19">
      <path clip-path="url(#p70ad9a9569)" d="M 72 229.68 
L 518.4 229.68 
" style="fill:none;stroke:#ffffff;stroke-linecap:round;"/>
     </g>
     <g id="line2d_20"/>
     <g id="line2d_21"/>
     <g id="text_8">
      <!-- 2850 -->
      <g style="fill:#262626;" transform="translate(42.75625 232.2659375)scale(0.1 -0.1)">
       <use xlink:href="#LiberationSans-32"/>
       <use x="55.615234375" xlink:href="#LiberationSans-38"/>
       <use x="111.23046875" xlink:href="#LiberationSans-35"/>
       <use x="166.845703125" xlink:href="#LiberationSans-30"/>
      </g>
     </g>
    </g>
    <g id="ytick_4">
     <g id="line2d_22">
      <path clip-path="url(#p70ad9a9569)" d="M 72 166.32 
L 518.4 166.32 
" style="fill:none;stroke:#ffffff;stroke-linecap:round;"/>
     </g>
     <g id="line2d_23"/>
     <g id="line2d_24"/>
     <g id="text_9">
      <!-- 2900 -->
      <g style="fill:#262626;" transform="translate(42.75625 168.9059375)scale(0.1 -0.1)">
       <use xlink:href="#LiberationSans-32"/>
       <use x="55.615234375" xlink:href="#LiberationSans-39"/>
       <use x="111.23046875" xlink:href="#LiberationSans-30"/>
       <use x="166.845703125" xlink:href="#LiberationSans-30"/>
      </g>
     </g>
    </g>
    <g id="ytick_5">
     <g id="line2d_25">
      <path clip-path="url(#p70ad9a9569)" d="M 72 102.96 
L 518.4 102.96 
" style="fill:none;stroke:#ffffff;stroke-linecap:round;"/>
     </g>
     <g id="line2d_26"/>
     <g id="line2d_27"/>
     <g id="text_10">
      <!-- 2950 -->
      <g style="fill:#262626;" transform="translate(42.75625 105.5459375)scale(0.1 -0.1)">
       <use xlink:href="#LiberationSans-32"/>
       <use x="55.615234375" xlink:href="#LiberationSans-39"/>
       <use x="111.23046875" xlink:href="#LiberationSans-35"/>
       <use x="166.845703125" xlink:href="#LiberationSans-30"/>
      </g>
     </g>
    </g>
    <g id="ytick_6">
     <g id="line2d_28">
      <path clip-path="url(#p70ad9a9569)" d="M 72 39.6 
L 518.4 39.6 
" style="fill:none;stroke:#ffffff;stroke-linecap:round;"/>
     </g>
     <g id="line2d_29"/>
     <g id="line2d_30"/>
     <g id="text_11">
      <!-- 3000 -->
      <g style="fill:#262626;" transform="translate(42.75625 42.1859375)scale(0.1 -0.1)">
       <use xlink:href="#LiberationSans-33"/>
       <use x="55.615234375" xlink:href="#LiberationSans-30"/>
       <use x="111.23046875" xlink:href="#LiberationSans-30"/>
       <use x="166.845703125" xlink:href="#LiberationSans-30"/>
      </g>
     </g>
    </g>
   </g>
   <g id="line2d_31">
    <path clip-path="url(#p70ad9a9569)" d="M 72 99.265917 
L 72.223312 97.850568 
L 72.446623 99.451341 
L 72.669935 97.567498 
L 72.893247 99.73441 
L 73.116558 95.966726 
L 73.563182 97.382075 
L 73.786493 100.115127 
L 74.009805 98.699778 
L 74.233117 95.30294 
L 74.456428 100.397909 
L 74.67974 101.247118 
L 74.903052 101.061695 
L 75.126363 101.247118 
L 75.349675 99.548987 
L 75.572986 96.815936 
L 75.796298 99.265917 
L 76.242921 96.249796 
L 76.466233 89.824453 
L 76.689545 91.522583 
L 76.912856 95.869079 
L 77.136168 94.356372 
L 77.35948 94.454019 
L 77.806103 98.035991 
L 78.029415 97.752922 
L 78.252726 95.30294 
L 78.476038 100.01748 
L 78.69935 97.469852 
L 78.922661 97.385165 
L 79.145973 105.58432 
L 79.369285 100.684357 
L 79.592596 105.301251 
L 79.815908 98.517445 
L 80.03922 98.800515 
L 80.262531 101.064785 
L 80.709155 96.152149 
L 80.932466 100.781715 
L 81.155778 100.01748 
L 81.37909 108.6978 
L 81.602401 125.404236 
L 81.825713 132.483784 
L 82.049025 130.785365 
L 82.272336 133.801486 
L 82.718959 128.137288 
L 83.165583 130.684916 
L 83.388894 129.552637 
L 83.612206 135.499905 
L 83.835518 135.698 
L 84.505453 158.723127 
L 84.728764 157.024708 
L 84.952076 163.255046 
L 85.175388 162.122767 
L 85.398699 159.858496 
L 85.622011 154.857796 
L 86.068634 160.707418 
L 86.291946 154.760149 
L 86.515258 158.059341 
L 86.738569 158.62548 
L 86.961881 162.971976 
L 87.185193 164.855818 
L 87.408504 165.324311 
L 87.855128 149.281662 
L 88.078439 153.062019 
L 88.301751 144.664768 
L 88.525063 143.334106 
L 88.748374 139.000282 
L 88.971686 137.952977 
L 89.194997 140.98177 
L 89.418309 146.079829 
L 89.641621 140.132561 
L 90.088244 149.564444 
L 90.311556 141.167194 
L 90.534867 139.088346 
L 90.758179 138.619853 
L 90.981491 134.940234 
L 91.428114 140.220626 
L 91.651426 133.521795 
L 91.874737 136.452941 
L 92.321361 130.886101 
L 92.767984 139.000282 
L 92.991296 139.000282 
L 93.214607 134.087934 
L 93.437919 136.254846 
L 93.661231 136.537628 
L 93.884542 134.653786 
L 94.107854 131.637952 
L 94.331166 137.585221 
L 94.554477 136.820698 
L 95.224412 142.299473 
L 95.447724 139.849491 
L 95.671036 143.714822 
L 95.894347 141.26484 
L 96.117659 140.98177 
L 96.564282 139.283351 
L 96.787594 141.167194 
L 97.010905 140.035203 
L 97.234217 142.016403 
L 97.457529 140.318272 
L 97.68084 139.752133 
L 97.904152 144.381699 
L 98.127464 145.796759 
L 98.350775 143.334106 
L 98.574087 142.768254 
L 98.797399 145.796759 
L 99.02071 145.23062 
L 99.244022 142.485184 
L 99.467334 142.485184 
L 99.690645 142.768254 
L 99.913957 143.334106 
L 100.137269 137.669907 
L 100.36058 137.669907 
L 100.583892 140.132561 
L 101.030515 124.938833 
L 101.253827 126.071112 
L 101.477139 132.86759 
L 101.70045 130.404936 
L 101.923762 130.404936 
L 102.147074 130.121866 
L 102.370385 133.902223 
L 102.593697 133.619153 
L 102.817009 136.069135 
L 103.04032 133.804864 
L 103.263632 137.868291 
L 103.486943 136.254846 
L 103.710255 139.000282 
L 103.933567 138.15136 
L 104.156878 135.971776 
L 104.603502 144.381699 
L 104.826813 139.752133 
L 105.050125 138.902923 
L 105.273437 135.688707 
L 105.496748 137.386837 
L 105.72006 134.370716 
L 105.943372 134.653786 
L 106.166683 135.502995 
L 106.389995 134.936855 
L 106.613307 135.502995 
L 106.836618 134.370716 
L 107.05993 134.370716 
L 107.283242 132.203804 
L 107.506553 133.804864 
L 107.729865 131.354883 
L 107.953177 132.955655 
L 108.176488 131.354883 
L 108.623112 134.370716 
L 108.846423 138.15136 
L 109.069735 134.087934 
L 109.293047 135.688707 
L 109.73967 140.786765 
L 109.962981 142.40021 
L 110.186293 139.371416 
L 110.409605 144.284052 
L 110.632916 143.717912 
L 110.856228 145.035615 
L 111.07954 150.51439 
L 111.749475 138.053714 
L 111.972786 138.619853 
L 112.196098 138.053714 
L 112.642721 144.752545 
L 112.866033 139.657576 
L 113.089345 138.626322 
L 113.312656 145.705581 
L 113.535968 139.758313 
L 113.75928 138.629412 
L 113.982591 136.361763 
L 114.205903 136.830256 
L 114.429215 143.72438 
L 114.652526 141.261727 
L 114.875838 140.695587 
L 115.09915 138.997168 
L 115.322461 140.412517 
L 115.545773 136.17634 
L 115.769085 135.89327 
L 115.992396 133.430616 
L 116.215708 132.678765 
L 116.662331 139.377884 
L 116.885643 131.546774 
L 117.108954 136.45941 
L 117.332266 134.094114 
L 117.555578 133.811044 
L 117.778889 137.874471 
L 118.002201 137.591401 
L 118.225513 137.025261 
L 118.448824 133.996756 
L 118.895448 135.411817 
L 119.118759 136.45941 
L 119.342071 144.092137 
L 119.565383 139.00675 
L 119.788694 139.28982 
L 120.458629 132.493342 
L 120.905253 142.677076 
L 121.128564 143.243215 
L 121.351876 139.192173 
L 121.575188 141.359085 
L 121.798499 137.025261 
L 122.021811 142.208295 
L 122.245123 140.041383 
L 122.468434 145.605133 
L 122.691746 145.888202 
L 123.138369 150.51439 
L 123.361681 148.913618 
L 123.808304 156.643991 
L 124.031616 158.156987 
L 124.254927 168.717771 
L 124.478239 172.683839 
L 124.701551 174.014213 
L 124.924862 172.598864 
L 125.148174 167.969298 
L 125.371486 158.34241 
L 125.594797 165.138888 
L 125.818109 160.424348 
L 126.264732 157.307778 
L 126.711356 151.178176 
L 126.934667 153.91094 
L 127.157979 152.778949 
L 127.381291 152.964372 
L 127.604602 154.945861 
L 127.827914 147.11475 
L 128.274537 154.477079 
L 128.497849 150.413653 
L 128.721161 151.262863 
L 128.944472 144.749455 
L 129.167784 142.865613 
L 129.391096 133.902223 
L 129.614407 131.735311 
L 129.837719 133.43373 
L 130.061031 142.198736 
L 130.284342 142.11405 
L 130.507654 142.680189 
L 130.730965 147.297083 
L 130.954277 155.140866 
L 131.177589 158.156987 
L 131.4009 232.804523 
L 131.624212 198.366313 
L 131.847524 189.871704 
L 132.070835 209.116186 
L 132.517459 212.893453 
L 132.74077 213.371528 
L 132.964082 222.520341 
L 133.187394 224.970322 
L 133.410705 245.545179 
L 133.634017 245.362846 
L 133.857329 237.90287 
L 134.08064 238.000228 
L 134.303952 240.931663 
L 134.527264 225.442194 
L 134.750575 226.39523 
L 134.973887 215.733421 
L 135.197199 212.333493 
L 135.643822 218.931876 
L 135.867134 221.863023 
L 136.090445 217.614173 
L 136.313757 216.393829 
L 136.537069 207.329703 
L 136.76038 193.736747 
L 136.983692 197.319008 
L 137.207004 190.154774 
L 137.430315 191.569835 
L 137.653627 191.101342 
L 137.876938 194.019817 
L 138.10025 191.186317 
L 138.323562 191.186317 
L 138.546873 198.168218 
L 138.770185 194.117463 
L 138.993497 193.551324 
L 139.216808 196.469799 
L 139.44012 191.101342 
L 139.663432 194.869026 
L 140.110055 187.887125 
L 140.333367 188.921758 
L 140.556678 192.419044 
L 140.77999 199.215522 
L 141.003302 196.469799 
L 141.226613 200.064732 
L 141.449925 198.366313 
L 141.673237 204.030799 
L 141.896548 193.453677 
L 142.11986 197.885148 
L 142.343172 193.736747 
L 142.789795 178.826089 
L 143.013107 186.374418 
L 143.236418 182.889515 
L 143.45973 184.773357 
L 143.683042 183.455655 
L 143.906353 185.622567 
L 144.129665 182.889515 
L 144.352976 189.487898 
L 144.7996 193.548234 
L 145.022911 193.548234 
L 145.246223 194.865936 
L 145.469535 193.548234 
L 145.916158 187.320986 
L 146.362781 191.950551 
L 146.586093 191.101342 
L 146.809405 192.135975 
L 147.032716 188.638688 
L 147.256028 187.135562 
L 147.702651 191.000605 
L 147.925963 190.620177 
L 148.149275 191.000605 
L 148.372586 189.116763 
L 148.81921 183.637988 
L 149.489145 201.847837 
L 150.15908 203.263186 
L 150.382391 198.363223 
L 150.605703 201.662414 
L 150.829015 198.929362 
L 151.052326 198.646293 
L 151.498949 197.230943 
L 151.945573 199.778572 
L 152.168884 198.646293 
L 152.392196 199.87593 
L 152.615508 196.378644 
L 152.838819 197.413276 
L 153.062131 190.333729 
L 153.508754 195.428698 
L 153.732066 195.910151 
L 153.955378 198.077063 
L 154.178689 197.608282 
L 154.402001 199.111695 
L 154.625313 196.378644 
L 154.848624 200.159 
L 155.071936 195.529434 
L 155.295248 197.696346 
L 155.518559 197.979416 
L 155.965183 199.87593 
L 156.188494 197.979416 
L 156.411806 202.423559 
L 156.858429 198.643203 
L 157.081741 199.209342 
L 157.305053 194.579776 
L 157.528364 199.023631 
L 157.751676 197.693256 
L 158.198299 193.544855 
L 158.421611 184.962182 
L 158.868234 186.465308 
L 159.091546 186.279885 
L 159.314857 194.774781 
L 159.538169 197.322122 
L 159.761481 192.692556 
L 159.984792 194.859468 
L 160.208104 200.523666 
L 160.431416 197.605192 
L 160.654727 203.2663 
L 160.878039 202.98323 
L 161.101351 204.398579 
L 161.324662 203.068205 
L 161.547974 199.866372 
L 161.771286 204.584003 
L 161.994597 211.94662 
L 162.217909 209.965131 
L 162.441221 205.618635 
L 162.664532 209.39928 
L 163.111156 205.335565 
L 163.334467 204.203574 
L 163.557779 204.684739 
L 163.781091 206.100088 
L 164.004402 209.11621 
L 164.227714 206.383158 
L 164.451026 211.283122 
L 164.674337 210.531271 
L 164.897649 211.283122 
L 165.12096 209.682061 
L 165.344272 211.000052 
L 165.567584 213.179636 
L 165.790895 214.028557 
L 166.237519 213.462706 
L 166.46083 215.912688 
L 166.684142 219.963442 
L 166.907454 216.664251 
L 167.130765 217.132744 
L 167.354077 216.283534 
L 167.577389 214.399692 
L 167.8007 213.833552 
L 168.024012 211.198147 
L 168.247324 211.764287 
L 168.470635 215.248901 
L 168.693947 215.815041 
L 168.917259 215.531971 
L 169.14057 213.365059 
L 169.363882 214.965832 
L 170.033817 229.974136 
L 170.257129 227.709578 
L 170.48044 223.363082 
L 170.703752 221.762309 
L 170.927064 214.682762 
L 171.150375 214.682762 
L 171.373687 215.248901 
L 171.82031 217.51346 
L 172.043622 218.645451 
L 172.266933 218.831163 
L 172.490245 219.397302 
L 172.713557 216.94732 
L 172.936868 221.010747 
L 173.606803 212.330427 
L 173.830115 216.381181 
L 174.053427 215.815041 
L 174.276738 213.931199 
L 174.50005 215.912688 
L 174.723362 220.246512 
L 174.946673 216.195469 
L 175.169985 221.661573 
L 175.393297 216.478539 
L 175.616608 216.761609 
L 175.83992 217.327749 
L 176.063232 220.0608 
L 176.286543 224.872699 
L 176.509855 224.407296 
L 176.733167 226.19378 
L 176.956478 225.91071 
L 177.17979 223.460728 
L 177.403102 223.275017 
L 177.626413 213.078899 
L 177.849725 215.726976 
L 178.073037 214.113532 
L 178.742971 221.759219 
L 178.966283 224.209201 
L 179.189595 219.875377 
L 179.636218 216.576186 
L 179.85953 216.293116 
L 180.306153 222.227712 
L 180.529465 220.0608 
L 180.752776 216.664251 
L 180.976088 215.063478 
L 181.1994 219.680372 
L 181.422711 213.745776 
L 181.646023 220.0608 
L 181.869335 234.506056 
L 182.092646 224.875789 
L 182.315958 220.812363 
L 182.53927 220.34387 
L 182.762581 209.298543 
L 182.985893 207.600124 
L 183.209205 204.964719 
L 183.432516 199.954437 
L 183.655828 201.086716 
L 183.87914 186.657223 
L 184.102451 184.009146 
L 184.549075 196.567469 
L 184.772386 198.831739 
L 184.995698 197.784435 
L 185.21901 202.228289 
L 185.442321 197.881793 
L 185.665633 202.313264 
L 185.888944 210.525091 
L 186.112256 210.339379 
L 186.335568 212.603938 
L 186.558879 219.202032 
L 186.782191 218.353111 
L 187.005503 219.016609 
L 187.228814 212.887008 
L 187.452126 220.812387 
L 187.675438 218.265046 
L 187.898749 224.863141 
L 188.122061 223.076945 
L 188.345373 222.696229 
L 188.568684 221.095457 
L 189.015308 214.48469 
L 189.238619 219.680107 
L 189.461931 218.645475 
L 189.685243 215.899751 
L 189.908554 217.3151 
L 190.131866 217.412747 
L 190.355178 217.3151 
L 190.801801 208.254064 
L 191.025113 211.282857 
L 191.248424 207.971282 
L 191.471736 210.433648 
L 191.695048 216.465891 
L 192.141671 209.952483 
L 192.588294 207.219431 
L 192.811606 215.997398 
L 193.034917 210.899339 
L 193.258229 210.333199 
L 193.704852 200.901028 
L 194.151476 196.740244 
L 194.374787 194.856401 
L 194.598099 198.070618 
L 194.821411 196.457174 
L 195.044722 201.838302 
L 195.268034 199.202897 
L 195.491346 192.786848 
L 195.714657 195.422541 
L 195.937969 192.40642 
L 196.161281 194.007192 
L 196.384592 193.441052 
L 196.607904 187.210714 
L 197.054527 195.324894 
L 197.277839 193.441052 
L 197.501151 193.538699 
L 197.724462 198.155305 
L 197.947774 195.139471 
L 198.171086 194.573332 
L 198.394397 204.584026 
L 198.841021 200.989093 
L 199.064332 199.573744 
L 199.287644 204.486379 
L 199.734267 196.655269 
L 199.957579 197.787548 
L 200.18089 196.089129 
L 200.404202 200.422953 
L 200.627514 202.036398 
L 200.850825 201.838302 
L 201.074137 199.67139 
L 201.297449 201.555233 
L 201.52076 200.23753 
L 201.744072 196.372199 
L 201.967384 200.80367 
L 202.190695 197.787548 
L 202.414007 198.919828 
L 202.637319 199.388321 
L 202.86063 200.139883 
L 203.083942 201.939039 
L 203.307254 201.187476 
L 203.530565 195.52299 
L 203.753877 199.290962 
L 203.977189 198.441753 
L 204.2005 198.639848 
L 204.423812 199.489057 
L 204.647124 199.290962 
L 204.870435 201.753328 
L 205.093747 199.007892 
L 205.317059 201.187476 
L 205.54037 201.470546 
L 205.763682 200.338267 
L 205.986993 202.973672 
L 206.210305 200.055197 
L 206.433617 201.939039 
L 206.656928 202.222109 
L 206.88024 200.338267 
L 207.103552 199.573744 
L 207.326863 195.425631 
L 207.550175 199.772127 
L 207.773487 201.08983 
L 207.996798 200.338267 
L 208.22011 201.655969 
L 208.443422 200.80676 
L 208.666733 208.735517 
L 208.890045 208.735517 
L 209.113357 209.301657 
L 209.336668 207.122073 
L 209.55998 206.839003 
L 209.783292 208.735517 
L 210.006603 209.018587 
L 210.453227 203.071318 
L 210.676538 203.354388 
L 210.89985 202.404442 
L 211.123162 203.734817 
L 211.346473 204.017886 
L 211.793097 201.555233 
L 212.016408 202.121372 
L 212.23972 202.121372 
L 212.463032 204.017886 
L 212.909655 204.867096 
L 213.132966 196.089129 
L 213.356278 196.938339 
L 213.57959 203.451747 
L 213.802901 203.451747 
L 214.026213 203.168677 
L 214.249525 202.602537 
L 214.472836 202.788249 
L 214.91946 199.007892 
L 215.142771 198.441753 
L 215.366083 192.494484 
L 215.589395 194.859491 
L 215.812706 194.107929 
L 216.036018 199.388321 
L 216.25933 200.989093 
L 216.705953 175.599247 
L 217.152576 162.770526 
L 217.375888 167.117022 
L 217.5992 167.019376 
L 217.822511 167.868585 
L 218.045823 169.186288 
L 218.269135 166.170454 
L 218.492446 165.321245 
L 218.715758 174.284635 
L 218.93907 176.451547 
L 219.162381 175.234293 
L 219.385693 178.719196 
L 219.609005 172.023454 
L 219.832316 173.822322 
L 220.278939 171.743475 
L 220.502251 172.123903 
L 220.725563 169.293493 
L 220.948874 172.592684 
L 221.172186 169.761986 
L 221.395498 171.743475 
L 221.618809 170.142702 
L 221.842121 170.142702 
L 222.065433 167.963118 
L 222.288744 170.991912 
L 222.512056 167.680048 
L 222.735368 166.079276 
L 222.958679 174.193456 
L 223.181991 178.058787 
L 223.405303 175.608806 
L 223.628614 171.558051 
L 223.851926 170.991912 
L 224.075238 170.991912 
L 224.298549 169.944319 
L 224.521861 170.325035 
L 224.745173 172.491947 
L 224.968484 177.687653 
L 225.191796 175.322358 
L 225.415108 175.605427 
L 225.638419 172.306236 
L 225.861731 173.624227 
L 226.085043 176.652732 
L 226.308354 174.190366 
L 226.531666 176.36995 
L 226.754977 176.171567 
L 226.978289 174.473148 
L 227.201601 174.756218 
L 227.424912 171.457315 
L 227.648224 171.457315 
L 227.871536 176.555374 
L 228.094847 175.520741 
L 228.318159 177.404583 
L 228.541471 174.954601 
L 229.211406 176.652732 
L 229.434717 171.740385 
L 229.658029 173.624227 
L 229.881341 168.626616 
L 230.104652 170.227389 
L 230.327964 168.909686 
L 230.551276 171.925808 
L 230.774587 171.925808 
L 230.997899 170.510459 
L 231.221211 173.256182 
L 231.444522 170.510459 
L 231.667834 174.388462 
L 231.891146 175.803811 
L 232.114457 176.36995 
L 232.337769 173.907297 
L 232.561081 169.475826 
L 232.784392 169.758896 
L 233.007704 174.190366 
L 233.231016 175.039288 
L 233.454327 169.092019 
L 233.677639 171.073508 
L 233.90095 176.171567 
L 234.124262 167.208177 
L 234.347574 175.703074 
L 234.570885 172.403883 
L 234.794197 174.004655 
L 235.017509 174.570795 
L 235.24082 174.287725 
L 235.464132 175.605427 
L 235.687444 178.068081 
L 235.910755 177.501942 
L 236.134067 182.401905 
L 236.58069 181.084203 
L 236.804002 181.835766 
L 237.027314 178.351151 
L 237.250625 178.068081 
L 237.473937 179.951923 
L 237.697249 177.785011 
L 237.92056 179.48343 
L 238.143872 179.200361 
L 238.813807 179.200361 
L 239.26043 182.499552 
L 239.483742 182.782622 
L 239.707054 186.364595 
L 239.930365 188.063014 
L 240.153677 185.329962 
L 240.376988 188.063014 
L 240.6003 187.311451 
L 241.046923 189.575721 
L 241.270235 189.195293 
L 241.493547 190.610642 
L 241.716858 204.20331 
L 242.163482 206.936361 
L 242.386793 206.936361 
L 242.610105 201.470546 
L 242.833417 200.055197 
L 243.056728 202.788249 
L 243.28004 200.055197 
L 243.503352 202.222109 
L 243.726663 200.904406 
L 243.949975 194.957138 
L 244.173287 199.105251 
L 244.396598 198.256041 
L 244.61991 194.475685 
L 244.843222 197.504478 
L 245.066533 193.441052 
L 245.289845 197.504478 
L 245.95978 186.276818 
L 246.183092 189.858791 
L 246.406403 189.292651 
L 246.629715 188.16066 
L 246.853027 187.779944 
L 247.076338 191.079135 
L 247.29965 191.928345 
L 247.522961 195.142561 
L 247.746273 192.777554 
L 247.969585 187.87759 
L 248.192896 185.993748 
L 248.416208 185.993748 
L 248.862831 174.381993 
L 249.086143 176.548905 
L 249.532766 184.663086 
L 249.97939 181.178471 
L 250.202701 183.911523 
L 250.426013 184.760732 
L 250.649325 190.041124 
L 250.872636 189.192203 
L 251.095948 191.654569 
L 251.31926 189.673368 
L 251.542571 190.708001 
L 251.765883 189.956438 
L 251.989195 187.210714 
L 252.212506 189.956438 
L 252.435818 188.342993 
L 252.65913 185.326872 
L 252.882441 188.909133 
L 253.105753 188.059924 
L 253.329065 188.059924 
L 253.552376 186.078435 
L 253.775688 186.078435 
L 253.998999 186.361505 
L 254.222311 183.345383 
L 254.445623 183.911523 
L 254.668934 186.927644 
L 254.892246 186.361505 
L 255.115558 184.663086 
L 255.338869 184.663086 
L 255.785493 188.44373 
L 256.008804 184.946155 
L 256.232116 190.141861 
L 256.455428 190.424931 
L 256.678739 185.795365 
L 256.902051 190.99107 
L 257.125363 191.84028 
L 257.348674 193.441052 
L 257.571986 189.575721 
L 257.795298 188.541089 
L 258.018609 180.895401 
L 258.241921 182.496174 
L 258.465233 181.178471 
L 258.688544 177.964254 
L 258.911856 178.813464 
L 259.135168 178.530394 
L 259.358479 184.009169 
L 259.581791 180.228813 
L 259.805103 188.622685 
L 260.028414 188.905755 
L 260.251726 189.471894 
L 260.475038 188.622685 
L 260.698349 185.42114 
L 260.921661 189.188825 
L 261.144972 190.519199 
L 261.368284 194.286883 
L 261.591596 187.688789 
L 261.814907 192.119971 
L 262.038219 192.969181 
L 262.261531 191.085339 
L 262.484842 196.551442 
L 262.708154 197.400652 
L 263.154777 193.632967 
L 263.378089 193.349898 
L 263.601401 189.471894 
L 263.824712 188.905755 
L 264.048024 190.519199 
L 264.271336 189.471894 
L 264.717959 190.802269 
L 264.941271 186.738843 
L 265.164582 186.738843 
L 265.387894 188.339615 
L 265.611206 182.109277 
L 265.834517 148.328361 
L 266.057829 153.045992 
L 266.281141 162.305123 
L 266.951076 146.730967 
L 267.174387 155.128217 
L 267.397699 154.659436 
L 267.621011 155.977139 
L 268.067634 182.59691 
L 268.514257 175.234293 
L 268.737569 175.234293 
L 268.96088 171.073508 
L 269.184192 170.422394 
L 269.407504 169.092019 
L 269.630815 168.906596 
L 269.854127 158.625504 
L 270.077439 162.110118 
L 270.30075 160.509346 
L 270.524062 154.845148 
L 270.747374 157.776294 
L 270.970685 158.059364 
L 271.193997 158.059364 
L 271.417309 158.908574 
L 271.64062 162.393188 
L 271.863932 158.625504 
L 272.087244 163.525468 
L 272.310555 159.943206 
L 272.533867 162.676258 
L 272.757179 157.860981 
L 272.98049 160.040565 
L 273.203802 159.474713 
L 273.427114 159.377067 
L 273.873737 160.792416 
L 274.097049 162.393188 
L 274.32036 159.943206 
L 274.766983 164.5601 
L 274.990295 162.490547 
L 275.213607 162.490547 
L 275.66023 164.5601 
L 275.883542 167.305824 
L 276.106853 168.623526 
L 276.330165 163.993961 
L 276.553477 162.578611 
L 276.776788 164.5601 
L 277.0001 154.562078 
L 277.223412 159.377067 
L 277.446723 159.943206 
L 277.670035 158.625504 
L 278.116658 158.059364 
L 278.33997 160.226276 
L 278.563282 155.313641 
L 279.009905 162.393188 
L 279.233217 160.509346 
L 279.456528 159.943206 
L 279.67984 164.5601 
L 279.903152 160.314341 
L 280.126463 162.578611 
L 280.349775 162.578611 
L 280.573087 167.208177 
L 280.796398 165.69238 
L 281.01971 170.507369 
L 281.243022 166.925107 
L 281.466333 169.007333 
L 281.689645 164.475126 
L 281.912956 167.676958 
L 282.136268 163.245488 
L 282.35958 165.044643 
L 282.806203 161.078576 
L 283.029515 158.049782 
L 283.252826 162.210855 
L 283.476138 161.078576 
L 283.69945 162.962418 
L 283.922761 162.679348 
L 284.146073 164.377767 
L 284.592696 160.512436 
L 284.816008 157.200573 
L 285.03932 159.182062 
L 285.262631 158.147429 
L 285.485943 165.978539 
L 285.709255 162.210855 
L 285.932566 162.493925 
L 286.155878 164.660837 
L 286.37919 160.694769 
L 286.602501 164.758195 
L 286.825813 162.295542 
L 287.049125 162.578611 
L 287.272436 165.975449 
L 287.495748 164.5601 
L 287.71906 166.173545 
L 287.942371 165.890475 
L 288.165683 164.5601 
L 288.388994 164.657459 
L 288.612306 166.824371 
L 289.058929 165.40931 
L 289.282241 167.305824 
L 289.505553 165.69238 
L 289.952176 165.12624 
L 290.175488 165.975449 
L 290.398799 165.40931 
L 290.622111 168.155033 
L 290.845423 169.287024 
L 291.068734 167.871964 
L 291.292046 167.305824 
L 291.961981 170.224299 
L 292.185293 172.403883 
L 292.408604 170.790438 
L 292.631916 167.774317 
L 292.855228 167.491247 
L 293.078539 167.491247 
L 293.301851 170.988534 
L 293.525163 167.208177 
L 293.748474 166.827749 
L 293.971786 167.676958 
L 294.418409 163.625916 
L 294.641721 167.676958 
L 294.865033 163.343134 
L 295.311656 161.260909 
L 295.758279 167.022754 
L 295.981591 167.022754 
L 296.428214 163.710891 
L 296.651526 164.5601 
L 296.874837 166.456614 
L 297.098149 162.393188 
L 297.321461 164.5601 
L 297.544772 165.607405 
L 297.991396 165.607405 
L 298.438019 164.943907 
L 298.661331 164.192056 
L 298.884642 170.139324 
L 299.107954 170.041966 
L 299.331266 172.775017 
L 299.554577 211.569305 
L 299.777889 214.116646 
L 300.001201 214.965855 
L 300.224512 206.65667 
L 300.447824 209.955573 
L 300.894447 202.690602 
L 301.117759 201.558323 
L 301.341071 205.904819 
L 301.564382 206.187888 
L 301.787694 207.505879 
L 302.011006 206.93974 
L 302.234317 202.593244 
L 302.457629 206.187888 
L 302.68094 205.621749 
L 302.904252 208.92094 
L 303.127564 205.904819 
L 303.350875 210.720096 
L 303.574187 209.106652 
L 303.797499 208.63787 
L 304.244122 215.248925 
L 304.467434 211.468569 
L 304.690745 215.333611 
L 304.914057 216.947056 
L 305.137369 208.735517 
L 305.36068 211.185499 
L 305.583992 211.653992 
L 305.807304 212.503201 
L 306.030615 216.849697 
L 306.253927 225.530017 
L 306.477239 226.28158 
L 306.70055 225.530017 
L 306.923862 222.315801 
L 307.147174 215.531995 
L 307.370485 215.248925 
L 307.593797 220.715028 
L 308.04042 218.831186 
L 308.263732 222.979299 
L 308.487044 222.413159 
L 308.710355 219.680107 
L 308.933667 219.963177 
L 309.38029 215.333611 
L 309.603602 219.494684 
L 309.826913 215.431258 
L 310.050225 216.748961 
L 310.273537 214.865118 
L 310.496848 214.962765 
L 310.72016 215.997398 
L 310.943472 215.714328 
L 311.166783 216.280468 
L 311.390095 215.714328 
L 311.613407 217.3151 
L 311.836718 216.748961 
L 312.283342 213.547416 
L 312.506653 210.801692 
L 312.729965 213.547416 
L 312.953277 214.198242 
L 313.3999 217.227036 
L 313.623212 214.295889 
L 313.846523 217.02894 
L 314.069835 217.31201 
L 314.293147 221.658506 
L 314.516458 218.642385 
L 314.73977 222.224646 
L 314.963082 221.472795 
L 315.186393 222.790497 
L 315.409705 222.322004 
L 315.856328 227.133903 
L 316.302951 227.983113 
L 316.526263 224.10511 
L 316.749575 224.38818 
L 316.972886 222.973119 
L 317.41951 216.755164 
L 317.642821 215.623173 
L 317.866133 216.755164 
L 318.089445 216.472383 
L 318.312756 215.623173 
L 318.536068 212.87745 
L 319.206003 217.507015 
L 319.429315 217.507015 
L 319.652626 218.639295 
L 319.875938 216.472383 
L 320.09925 216.755164 
L 320.322561 216.189313 
L 320.545873 218.073155 
L 320.769185 217.790085 
L 320.992496 215.906243 
L 321.215808 218.922076 
L 321.43912 218.356225 
L 321.662431 218.922076 
L 322.109055 222.973119 
L 322.555678 216.091666 
L 322.778989 218.444001 
L 323.002301 218.160931 
L 323.225613 210.329821 
L 323.448924 211.845907 
L 323.672236 211.182121 
L 323.895548 210.899339 
L 324.118859 205.150166 
L 324.342171 204.385931 
L 324.565483 204.668713 
L 324.788794 207.883217 
L 325.012106 206.565515 
L 325.235418 211.182121 
L 325.458729 211.46519 
L 325.682041 211.182121 
L 325.905353 213.066251 
L 326.128664 212.88054 
L 326.351976 216.745871 
L 326.575288 215.613591 
L 327.021911 217.793175 
L 327.245223 215.896661 
L 327.691846 222.693139 
L 327.915158 221.941576 
L 328.361781 213.544326 
L 328.585093 210.528204 
L 329.031716 214.676317 
L 329.255028 212.792475 
L 329.478339 209.480611 
L 330.148274 180.694216 
L 330.371586 178.995797 
L 330.594897 183.342293 
L 330.818209 178.146588 
L 331.041521 177.580448 
L 331.264832 175.413536 
L 331.488144 174.945043 
L 331.711456 169.749337 
L 332.158079 175.882317 
L 332.381391 174.564326 
L 332.604702 175.696606 
L 332.828014 174.847396 
L 333.051326 174.750038 
L 333.274637 174.381993 
L 333.497949 177.964254 
L 333.721261 178.530394 
L 333.944572 182.027681 
L 334.167884 182.213104 
L 334.391196 180.414236 
L 334.614507 180.895401 
L 335.061131 182.59382 
L 335.284442 179.848097 
L 335.507754 180.414236 
L 335.731066 185.043802 
L 335.954377 185.893012 
L 336.177689 179.379604 
L 336.624312 179.379604 
L 336.847624 179.096534 
L 337.070935 177.115045 
L 337.294247 180.697306 
L 337.517559 178.813464 
L 337.74087 175.797342 
L 337.964182 179.379604 
L 338.187494 174.564326 
L 338.410805 177.297378 
L 338.634117 174.847396 
L 338.857429 177.863518 
L 339.08074 176.448169 
L 339.304052 181.175381 
L 339.527364 175.696606 
L 339.750675 177.863518 
L 339.973987 177.580448 
L 340.197299 177.014308 
L 340.42061 173.051619 
L 340.643922 175.797342 
L 340.867234 176.451547 
L 341.090545 178.914201 
L 341.537169 174.381993 
L 341.76048 178.432747 
L 341.983792 174.381993 
L 342.207104 177.681185 
L 342.430415 177.681185 
L 342.653727 171.450846 
L 342.877039 172.016986 
L 343.546973 174.750038 
L 343.770285 177.115045 
L 343.993597 176.080412 
L 344.216908 176.929622 
L 344.44022 184.194593 
L 344.886843 186.462241 
L 345.110155 195.894124 
L 345.333467 195.809438 
L 345.556778 197.41021 
L 345.78009 196.941429 
L 346.226713 201.275253 
L 346.450025 198.639848 
L 346.673337 200.80676 
L 347.11996 202.407532 
L 347.343272 204.008304 
L 347.566583 211.370922 
L 347.789895 210.336289 
L 348.013207 221.466591 
L 348.236518 214.116646 
L 348.683142 211.937062 
L 348.906453 212.701296 
L 349.129765 207.788661 
L 349.353077 206.470958 
L 349.576388 201.841392 
L 349.7997 205.140584 
L 350.023012 182.024591 
L 350.246323 175.979676 
L 350.692946 150.690278 
L 350.916258 153.14026 
L 351.13957 136.9119 
L 351.362881 132.763787 
L 351.586193 137.761109 
L 351.809505 139.273817 
L 352.032816 135.21039 
L 352.47944 144.938015 
L 352.702751 141.157659 
L 353.149375 143.806024 
L 353.372686 149.271839 
L 353.595998 142.107605 
L 354.042621 155.687889 
L 354.265933 147.192992 
L 354.489245 147.192992 
L 354.712556 152.206364 
L 355.15918 147.674445 
L 355.382491 151.442129 
L 355.605803 146.542166 
L 356.052426 143.327949 
L 356.275738 143.893801 
L 356.49905 140.594897 
L 356.722361 140.877967 
L 356.945673 144.645652 
L 357.168984 146.259096 
L 357.392296 144.079512 
L 357.615608 156.540188 
L 357.838919 160.789038 
L 358.062231 161.921317 
L 358.285543 160.320545 
L 358.955478 163.720473 
L 359.178789 161.072107 
L 359.402101 166.267813 
L 359.625413 167.117022 
L 359.848724 179.281957 
L 360.072036 178.715817 
L 360.295348 184.760732 
L 360.518659 186.361505 
L 360.741971 181.546516 
L 360.965283 181.546516 
L 361.188594 178.813464 
L 361.858529 177.398115 
L 362.081841 175.033108 
L 362.305153 177.495761 
L 362.528464 176.646552 
L 362.751776 172.866196 
L 362.975088 175.316177 
L 363.198399 175.033108 
L 363.421711 175.316177 
L 363.645023 172.114345 
L 363.868334 175.599247 
L 364.091646 181.077734 
L 364.314957 176.448169 
L 364.761581 179.476962 
L 364.984892 178.146588 
L 365.208204 178.627753 
L 365.431516 178.627753 
L 365.654827 177.297378 
L 365.878139 179.193892 
L 366.324762 174.281257 
L 366.994697 180.228813 
L 367.218009 181.175381 
L 367.441321 176.262745 
L 367.664632 182.59073 
L 367.887944 184.855001 
L 368.111256 185.506115 
L 368.334567 185.320404 
L 368.557879 177.391935 
L 369.004502 180.42044 
L 369.227814 181.738431 
L 369.451126 177.391935 
L 369.674437 177.957786 
L 369.897749 179.8543 
L 370.121061 178.523926 
L 370.344372 179.8543 
L 370.567684 176.825795 
L 370.790995 175.976586 
L 371.014307 178.15617 
L 371.46093 174.844306 
L 371.684242 174.561236 
L 371.907554 175.976586 
L 372.577489 163.050506 
L 372.8008 166.349409 
L 373.024112 166.632479 
L 373.247424 163.616646 
L 373.470735 157.952159 
L 374.14067 169.563914 
L 374.363982 165.415513 
L 374.587294 166.450146 
L 374.810605 177.014308 
L 375.033917 179.760032 
L 375.48054 175.599247 
L 375.703852 178.429657 
L 375.927164 173.812764 
L 376.150475 177.580448 
L 376.373787 173.246624 
L 376.597099 173.061201 
L 376.82041 174.661973 
L 377.043722 171.362782 
L 377.267034 174.847396 
L 377.490345 174.466968 
L 377.713657 202.219019 
L 377.936968 193.821481 
L 378.16028 208.732427 
L 378.383592 201.652879 
L 378.830215 203.35101 
L 379.053527 207.131366 
L 379.276838 207.697506 
L 379.50015 207.697506 
L 379.946773 210.713628 
L 380.393397 206.565515 
L 380.616708 211.182121 
L 381.063332 212.3144 
L 381.286643 213.349033 
L 381.509955 209.581348 
L 381.733267 203.253652 
L 381.956578 208.732427 
L 382.626513 197.221409 
L 383.296448 205.716305 
L 383.51976 205.716305 
L 383.743072 204.584026 
L 383.966383 194.674068 
L 384.85963 175.800432 
L 385.082941 182.213104 
L 385.306253 185.229225 
L 385.529565 190.138771 
L 385.752876 190.890334 
L 386.1995 178.061901 
L 386.422811 177.863518 
L 386.646123 175.882317 
L 386.869435 178.344971 
L 387.092746 173.149265 
L 387.316058 179.379604 
L 387.53937 180.697306 
L 387.762681 182.87689 
L 387.985993 176.646552 
L 388.209305 177.212692 
L 388.432616 182.678795 
L 388.655928 180.794665 
L 388.87924 182.210014 
L 389.102551 187.591142 
L 389.325863 187.971859 
L 389.549175 186.27344 
L 389.772486 181.643874 
L 389.995798 184.943065 
L 390.21911 181.643874 
L 390.442421 189.390298 
L 390.665733 163.434025 
L 390.889045 158.521677 
L 391.112356 147.476062 
L 391.335668 149.372576 
L 391.558979 153.14026 
L 391.782291 154.187853 
L 392.005603 157.203686 
L 392.228914 151.725199 
L 392.452226 159.471335 
L 392.675538 154.090206 
L 392.898849 153.524067 
L 393.122161 152.206364 
L 393.568784 159.27324 
L 393.792096 154.939416 
L 394.015408 154.090206 
L 394.238719 158.99017 
L 394.462031 155.974049 
L 394.685343 155.87669 
L 394.908654 156.725611 
L 395.131966 155.407909 
L 395.355278 150.507945 
L 395.801901 157.008681 
L 396.025213 154.090206 
L 396.248524 153.240997 
L 396.471836 154.090206 
L 396.695148 162.204387 
L 396.918459 162.770526 
L 397.365083 153.426708 
L 397.588394 155.791715 
L 397.811706 154.461341 
L 398.035018 154.093296 
L 398.481641 163.343134 
L 398.704952 156.44901 
L 398.928264 153.247465 
L 399.151576 152.76939 
L 399.598199 162.113208 
L 399.821511 165.510046 
L 400.044822 165.69547 
L 400.268134 163.629294 
L 400.491446 169.566981 
L 400.714757 168.815418 
L 400.938069 158.90546 
L 401.161381 162.217035 
L 401.384692 161.4528 
L 401.608004 163.066245 
L 401.831316 166.833929 
L 402.054627 167.214646 
L 402.501251 159.568958 
L 402.724562 164.198524 
L 402.947874 162.86815 
L 403.171186 166.931576 
L 403.394497 167.780785 
L 403.617809 170.41619 
L 404.064432 164.764664 
L 404.287744 165.799296 
L 404.957679 150.407473 
L 405.18099 150.407473 
L 405.404302 149.275194 
L 405.627614 146.259072 
L 406.074237 152.489411 
L 406.297549 147.576775 
L 406.52086 154.090183 
L 406.744172 157.021618 
L 406.967484 155.225552 
L 407.190795 156.838997 
L 407.414107 150.042807 
L 407.637419 153.05864 
L 407.86073 152.873217 
L 408.084042 154.757059 
L 408.530665 146.161714 
L 408.753977 152.392052 
L 408.977289 150.79128 
L 409.2006 147.492088 
L 409.423912 152.108982 
L 409.647224 152.206341 
L 409.870535 154.090183 
L 410.093847 158.436679 
L 410.54047 155.420557 
L 410.763782 156.269767 
L 410.987094 152.77248 
L 411.210405 152.206341 
L 411.433717 153.240973 
L 411.657029 155.889339 
L 411.88034 154.288566 
L 412.326963 147.209019 
L 412.550275 148.058228 
L 412.996898 153.240973 
L 413.22021 149.94207 
L 413.443522 150.22514 
L 413.666833 149.659 
L 413.890145 160.320521 
L 414.113457 159.754381 
L 414.336768 157.402046 
L 414.56008 159.852028 
L 415.230015 180.241462 
L 415.676638 183.540653 
L 415.89995 181.373741 
L 416.123262 172.680749 
L 416.346573 177.310315 
L 416.569885 179.574585 
L 416.793197 179.760008 
L 417.016508 179.389162 
L 417.23982 180.140725 
L 417.463132 179.291515 
L 417.686443 186.937203 
L 417.909755 185.05336 
L 418.133067 185.804923 
L 418.356378 188.069482 
L 418.57969 194.58289 
L 418.803002 189.670254 
L 419.026313 206.747824 
L 419.696248 235.449533 
L 420.142871 227.706488 
L 420.366183 245.350198 
L 420.812806 235.635245 
L 421.036118 238.651078 
L 421.25943 239.969069 
L 421.482741 235.635245 
L 421.929365 239.969069 
L 422.152676 238.83679 
L 422.375988 236.952947 
L 422.5993 239.402929 
L 422.822611 246.765547 
L 423.045923 239.969069 
L 423.269235 240.252139 
L 423.492546 239.217218 
L 423.715858 243.280644 
L 424.385793 235.537598 
L 424.832416 248.183986 
L 425.27904 244.982153 
L 425.502351 246.114432 
L 425.725663 242.051006 
L 425.948974 241.953648 
L 426.172286 245.353288 
L 426.395598 242.434813 
L 426.618909 246.017074 
L 426.842221 254.316677 
L 427.512156 236.487544 
L 427.735468 240.821368 
L 427.958779 242.236429 
L 428.182091 238.185675 
L 428.852026 231.958715 
L 429.298649 220.252692 
L 429.521961 224.401093 
L 429.968584 225.816154 
L 430.191896 221.951111 
L 430.415208 229.313728 
L 430.638519 225.816154 
L 430.861831 232.811015 
L 431.085143 225.165327 
L 431.308454 223.268813 
L 431.531766 216.9535 
L 431.755078 222.334917 
L 432.201701 219.872264 
L 432.425013 222.136534 
L 432.871636 214.12 
L 433.318259 223.463818 
L 433.541571 222.712256 
L 433.764882 223.746888 
L 433.988194 226.47994 
L 434.211506 210.723162 
L 434.434817 233.845647 
L 434.658129 232.527945 
L 434.881441 239.978627 
L 435.328064 214.40925 
L 435.551376 214.69232 
L 435.774687 228.653032 
L 435.997999 227.618399 
L 436.221311 225.920269 
L 436.444622 231.48373 
L 436.667934 230.634521 
L 436.891246 226.76919 
L 437.114557 229.033749 
L 437.337869 227.999116 
L 437.561181 232.04987 
L 437.784492 241.959828 
L 438.231116 232.713368 
L 438.454427 237.896402 
L 438.677739 236.578699 
L 438.901051 241.009882 
L 439.347674 239.877891 
L 439.570985 238.84297 
L 439.794297 239.692179 
L 440.017609 235.358355 
L 440.24092 235.16026 
L 440.464232 237.905984 
L 440.687544 233.744911 
L 440.910855 235.16026 
L 441.134167 244.887885 
L 441.357479 244.038675 
L 441.58079 244.038675 
L 441.804102 250.353988 
L 442.027414 245.454024 
L 442.250725 245.454024 
L 442.474037 249.787848 
L 442.92066 251.967432 
L 443.143972 246.020164 
L 443.367284 251.486267 
L 443.590595 252.816642 
L 443.813907 259.04698 
L 444.037219 257.150466 
L 444.26053 262.814664 
L 444.483842 256.216282 
L 445.377089 269.513495 
L 445.6004 281.40832 
L 445.823712 278.392199 
L 446.047024 279.80726 
L 446.270335 274.426131 
L 446.493647 274.523778 
L 446.716958 268.478863 
L 446.94027 271.211914 
L 447.163582 278.759955 
L 447.386893 278.008392 
L 447.610205 276.593043 
L 447.833517 278.193815 
L 448.056828 273.859991 
L 448.28014 276.593043 
L 448.503452 277.159183 
L 448.726763 279.892234 
L 448.950075 277.159183 
L 449.173387 280.175304 
L 449.62001 293.114056 
L 449.843322 284.987203 
L 450.066633 284.421064 
L 450.289945 285.751438 
L 450.513257 286.034508 
L 450.736568 285.185298 
L 450.95988 287.63528 
L 451.183192 283.288784 
L 451.406503 288.76756 
L 451.629815 288.48449 
L 451.853127 288.76756 
L 452.076438 289.899839 
L 452.29975 291.783681 
L 452.523062 291.981776 
L 452.746373 294.431758 
L 452.969685 298.482512 
L 453.192996 283.288784 
L 453.416308 284.053307 
L 453.63962 283.770237 
L 453.862931 278.106039 
L 454.309555 281.873723 
L 454.532866 281.307584 
L 454.756178 279.706811 
L 455.202801 273.007692 
L 455.426113 271.973059 
L 455.649425 278.203397 
L 455.872736 274.891534 
L 456.096048 276.221909 
L 456.31936 276.221909 
L 456.542671 276.788048 
L 456.765983 274.608464 
L 456.989295 267.811986 
L 457.212606 270.743421 
L 457.435918 270.743421 
L 457.65923 268.859579 
L 457.882541 271.875413 
L 458.105853 272.441552 
L 458.329165 267.246135 
L 458.552476 271.592631 
L 458.775788 267.528917 
L 458.9991 265.645074 
L 459.222411 269.708501 
L 459.445723 270.27464 
L 459.669035 274.042325 
L 459.892346 270.27464 
L 460.338969 269.142649 
L 460.562281 269.99157 
L 460.785593 267.811986 
L 461.008904 270.27464 
L 461.232216 269.99157 
L 461.678839 276.788048 
L 461.902151 273.476473 
L 462.125463 273.193403 
L 462.348774 277.256829 
L 462.572086 277.539899 
L 462.795398 269.99157 
L 463.018709 270.84078 
L 463.242021 277.722232 
L 463.465333 275.272251 
L 463.688644 275.272251 
L 463.911956 276.873023 
L 464.358579 271.12385 
L 464.581891 272.539199 
L 464.805203 274.989181 
L 465.251826 268.661196 
L 465.698449 270.076545 
L 466.145073 258.565815 
L 466.368384 265.362005 
L 466.591696 265.645074 
L 466.815008 264.044302 
L 467.038319 264.044302 
L 467.484942 258.663173 
L 467.708254 260.547016 
L 467.931566 258.380104 
L 468.378189 252.058611 
L 468.601501 254.225523 
L 468.824812 249.224822 
L 469.048124 255.540135 
L 469.494747 260.452771 
L 469.718059 258.002789 
L 469.941371 258.087475 
L 470.834617 228.549229 
L 471.057929 231.480376 
L 471.281241 219.77155 
L 471.504552 226.284958 
L 471.727864 222.702697 
L 471.951176 226.199984 
L 472.174487 224.586539 
L 472.397799 229.782245 
L 472.621111 223.551907 
L 472.844422 228.083826 
L 473.067734 223.652643 
L 473.291046 228.269249 
L 473.737669 222.139648 
L 474.184292 217.324659 
L 474.407604 219.208501 
L 474.630915 218.740008 
L 474.854227 208.644339 
L 475.077539 212.128953 
L 475.30085 211.09432 
L 475.524162 215.157747 
L 475.970785 203.634056 
L 476.64072 216.660872 
L 476.864032 219.689666 
L 477.087344 214.025467 
L 477.310655 212.893188 
L 477.533967 212.978163 
L 477.757279 216.758519 
L 477.98059 217.324659 
L 478.203902 215.723886 
L 478.650525 209.493548 
L 478.873837 214.874677 
L 479.32046 210.528181 
L 479.543772 211.845883 
L 479.767084 214.308537 
L 479.990395 214.49396 
L 480.213707 212.51276 
L 480.437019 212.79583 
L 480.66033 208.449334 
L 480.883642 207.697771 
L 481.106953 205.901705 
L 481.330265 202.319732 
L 481.776888 199.391675 
L 482.0002 201.089806 
L 482.223512 201.372876 
L 482.670135 204.401669 
L 482.893447 204.967809 
L 483.116758 209.018563 
L 483.34007 208.169354 
L 483.563382 208.452424 
L 483.786693 206.851651 
L 484.010005 206.285512 
L 484.233317 204.684739 
L 484.456628 206.002442 
L 484.67994 204.1186 
L 484.903252 205.719372 
L 485.126563 205.436302 
L 485.349875 205.338944 
L 485.573187 201.376254 
L 486.01981 205.253969 
L 486.243122 204.970899 
L 486.466433 219.683462 
L 486.689745 215.915778 
L 486.913057 217.23348 
L 487.35968 209.021653 
L 487.582991 211.754705 
L 487.806303 216.384271 
L 488.029615 210.905495 
L 488.252926 215.535061 
L 488.476238 217.79962 
L 488.69955 213.170054 
L 488.922861 212.886984 
L 489.146173 212.886984 
L 489.369485 218.36576 
L 489.592796 217.51655 
L 489.816108 226.47994 
L 490.03942 230.826436 
L 490.262731 226.47994 
L 490.486043 229.212992 
L 490.709355 229.212992 
L 490.932666 224.879168 
L 491.155978 225.728377 
L 491.37929 227.992648 
L 491.602601 223.929221 
L 491.825913 222.796942 
L 492.049225 219.780821 
L 492.272536 222.230802 
L 492.495848 219.214969 
L 492.71916 219.780821 
L 493.165783 226.47685 
L 493.389095 224.495361 
L 493.612406 226.108805 
L 493.835718 226.108805 
L 494.05903 226.391875 
L 494.505653 213.833552 
L 494.728964 201.939016 
L 494.952276 207.886284 
L 495.175588 209.782798 
L 495.398899 207.603214 
L 495.622211 212.135421 
L 495.845523 210.534649 
L 496.068834 206.952388 
L 496.515458 195.708677 
L 496.738769 199.205964 
L 497.408704 201.001741 
L 497.632016 200.15282 
L 498.078639 204.300933 
L 498.301951 211.481217 
L 498.748574 205.817019 
L 498.971886 206.666228 
L 499.195198 208.364359 
L 499.641821 219.777731 
L 499.865133 215.726976 
L 500.088444 225.158859 
L 500.535068 219.875377 
L 500.758379 220.158447 
L 500.981691 225.822646 
L 501.205003 223.643062 
L 501.428314 223.17428 
L 501.651626 217.142326 
L 501.874937 219.777731 
L 502.321561 212.896566 
L 502.544872 210.716982 
L 502.768184 213.179636 
L 502.991496 214.311627 
L 503.214807 212.415113 
L 503.438119 215.063478 
L 503.661431 214.028557 
L 503.884742 214.311627 
L 504.108054 214.028557 
L 504.331366 214.028557 
L 504.554677 221.859956 
L 504.777989 220.529293 
L 505.001301 217.698883 
L 505.224612 212.79892 
L 505.671236 218.265023 
L 505.894547 219.878467 
L 506.117859 222.611519 
L 506.341171 215.629618 
L 506.564482 217.044679 
L 507.011106 214.594697 
L 507.457729 202.70016 
L 507.681041 203.54937 
L 507.904352 189.390275 
L 508.127664 195.903683 
L 508.350975 195.054473 
L 508.574287 195.806324 
L 508.797599 200.520576 
L 509.02091 195.620613 
L 509.244222 193.736771 
L 509.467534 189.956414 
L 509.914157 195.806324 
L 510.137469 192.604491 
L 510.584092 196.186752 
L 510.807404 194.01984 
L 511.030715 198.168241 
L 511.254027 198.734381 
L 511.477339 194.104815 
L 511.923962 179.194157 
L 512.147274 180.241462 
L 512.370585 176.461105 
L 512.593897 163.717359 
L 512.817209 166.931576 
L 513.04052 172.029635 
L 513.487144 167.116999 
L 513.710455 174.762686 
L 513.933767 175.611896 
L 514.157079 174.011123 
L 514.38039 174.011123 
L 514.603702 168.063855 
L 514.827014 167.780785 
L 515.273637 174.294193 
L 515.496948 171.831539 
L 515.72026 171.362758 
L 515.943572 171.362758 
L 516.390195 175.325736 
L 516.836818 172.875754 
L 517.283442 178.344947 
L 517.506753 177.976903 
L 517.730065 173.064267 
L 517.953377 172.312704 
L 518.176688 172.498416 
L 518.4 170.614285 
L 518.4 170.614285 
" style="fill:none;stroke:#4c72b0;stroke-linecap:round;stroke-width:1.75;"/>
   </g>
   <g id="patch_3">
    <path d="M 72 356.4 
L 518.4 356.4 
" style="fill:none;"/>
   </g>
   <g id="patch_4">
    <path d="M 72 39.6 
L 518.4 39.6 
" style="fill:none;"/>
   </g>
   <g id="patch_5">
    <path d="M 72 356.4 
L 72 39.6 
" style="fill:none;"/>
   </g>
   <g id="patch_6">
    <path d="M 518.4 356.4 
L 518.4 39.6 
" style="fill:none;"/>
   </g>
   <g id="text_12">
    <!-- p - 0.02274767112773905 * ni -->
    <defs>
     <path d="M 9.125 0 
L 9.125 10.6875 
L 18.65625 10.6875 
L 18.65625 0 
z
" id="LiberationSans-2e"/>
     <path d="M 40.28125 0 
L 40.28125 33.5 
Q 40.28125 37.359375 39.71875 39.9375 
Q 39.15625 42.53125 37.890625 44.109375 
Q 36.625 45.703125 34.546875 46.359375 
Q 32.46875 47.015625 29.390625 47.015625 
Q 26.265625 47.015625 23.75 45.921875 
Q 21.234375 44.828125 19.453125 42.75 
Q 17.671875 40.671875 16.6875 37.625 
Q 15.71875 34.578125 15.71875 30.609375 
L 15.71875 0 
L 6.9375 0 
L 6.9375 41.546875 
Q 6.9375 43.21875 6.90625 45.046875 
Q 6.890625 46.875 6.828125 48.5 
Q 6.78125 50.140625 6.734375 51.3125 
Q 6.6875 52.484375 6.640625 52.828125 
L 14.9375 52.828125 
Q 14.984375 52.59375 15.03125 51.515625 
Q 15.09375 50.4375 15.15625 49.046875 
Q 15.234375 47.65625 15.28125 46.21875 
Q 15.328125 44.78125 15.328125 43.796875 
L 15.484375 43.796875 
Q 16.75 46.09375 18.265625 47.953125 
Q 19.78125 49.8125 21.78125 51.09375 
Q 23.78125 52.390625 26.359375 53.09375 
Q 28.953125 53.8125 32.375 53.8125 
Q 36.765625 53.8125 39.9375 52.734375 
Q 43.109375 51.65625 45.15625 49.40625 
Q 47.21875 47.171875 48.171875 43.625 
Q 49.125 40.09375 49.125 35.203125 
L 49.125 0 
z
" id="LiberationSans-6e"/>
     <path d="M 51.421875 26.65625 
Q 51.421875 20.65625 50.4375 15.578125 
Q 49.46875 10.5 47.1875 6.828125 
Q 44.921875 3.171875 41.1875 1.09375 
Q 37.453125 -0.984375 31.984375 -0.984375 
Q 26.3125 -0.984375 22.0625 1.171875 
Q 17.828125 3.328125 15.578125 8.203125 
L 15.328125 8.203125 
Q 15.375 8.109375 15.40625 7.328125 
Q 15.4375 6.546875 15.453125 5.375 
Q 15.484375 4.203125 15.5 2.75 
Q 15.53125 1.3125 15.53125 -0.09375 
L 15.53125 -20.75 
L 6.734375 -20.75 
L 6.734375 42.046875 
Q 6.734375 43.953125 6.703125 45.703125 
Q 6.6875 47.46875 6.640625 48.90625 
Q 6.59375 50.34375 6.546875 51.359375 
Q 6.5 52.390625 6.453125 52.828125 
L 14.9375 52.828125 
Q 14.984375 52.6875 15.0625 51.796875 
Q 15.140625 50.921875 15.203125 49.671875 
Q 15.28125 48.4375 15.359375 47.015625 
Q 15.4375 45.609375 15.4375 44.34375 
L 15.625 44.34375 
Q 16.84375 46.875 18.40625 48.65625 
Q 19.96875 50.4375 21.96875 51.578125 
Q 23.96875 52.734375 26.4375 53.25 
Q 28.90625 53.765625 31.984375 53.765625 
Q 37.453125 53.765625 41.1875 51.8125 
Q 44.921875 49.859375 47.1875 46.3125 
Q 49.46875 42.78125 50.4375 37.765625 
Q 51.421875 32.765625 51.421875 26.65625 
M 42.1875 26.46875 
Q 42.1875 31.34375 41.59375 35.15625 
Q 41.015625 38.96875 39.578125 41.59375 
Q 38.140625 44.234375 35.734375 45.59375 
Q 33.34375 46.96875 29.734375 46.96875 
Q 26.8125 46.96875 24.21875 46.140625 
Q 21.625 45.3125 19.703125 42.96875 
Q 17.78125 40.625 16.65625 36.5 
Q 15.53125 32.375 15.53125 25.78125 
Q 15.53125 20.171875 16.453125 16.28125 
Q 17.390625 12.40625 19.171875 10.015625 
Q 20.953125 7.625 23.578125 6.5625 
Q 26.21875 5.515625 29.640625 5.515625 
Q 33.296875 5.515625 35.71875 6.921875 
Q 38.140625 8.34375 39.578125 11.03125 
Q 41.015625 13.71875 41.59375 17.59375 
Q 42.1875 21.484375 42.1875 26.46875 
" id="LiberationSans-70"/>
     <path d="M 22.265625 54.390625 
L 35.15625 59.421875 
L 37.359375 52.984375 
L 23.578125 49.421875 
L 32.625 37.203125 
L 26.8125 33.6875 
L 19.484375 46.296875 
L 11.859375 33.796875 
L 6.0625 37.3125 
L 15.28125 49.421875 
L 1.609375 52.984375 
L 3.8125 59.515625 
L 16.84375 54.296875 
L 16.265625 68.796875 
L 22.90625 68.796875 
z
" id="LiberationSans-2a"/>
     <path d="M 43.015625 15.578125 
L 43.015625 0 
L 34.71875 0 
L 34.71875 15.578125 
L 2.296875 15.578125 
L 2.296875 22.40625 
L 33.796875 68.796875 
L 43.015625 68.796875 
L 43.015625 22.515625 
L 52.6875 22.515625 
L 52.6875 15.578125 
z
M 34.71875 58.890625 
Q 34.625 58.640625 34.234375 57.9375 
Q 33.84375 57.234375 33.34375 56.34375 
Q 32.859375 55.46875 32.34375 54.5625 
Q 31.84375 53.65625 31.453125 53.078125 
L 13.8125 27.09375 
Q 13.578125 26.703125 13.109375 26.0625 
Q 12.640625 25.4375 12.15625 24.78125 
Q 11.671875 24.125 11.171875 23.484375 
Q 10.6875 22.859375 10.40625 22.515625 
L 34.71875 22.515625 
z
" id="LiberationSans-34"/>
    </defs>
    <g style="fill:#262626;" transform="translate(214.468125 34.6)scale(0.12 -0.12)">
     <use xlink:href="#LiberationSans-70"/>
     <use x="55.615234375" xlink:href="#LiberationSans-20"/>
     <use x="83.3984375" xlink:href="#LiberationSans-2d"/>
     <use x="116.69921875" xlink:href="#LiberationSans-20"/>
     <use x="144.482421875" xlink:href="#LiberationSans-30"/>
     <use x="200.09765625" xlink:href="#LiberationSans-2e"/>
     <use x="227.880859375" xlink:href="#LiberationSans-30"/>
     <use x="283.49609375" xlink:href="#LiberationSans-32"/>
     <use x="339.111328125" xlink:href="#LiberationSans-32"/>
     <use x="394.7265625" xlink:href="#LiberationSans-37"/>
     <use x="450.341796875" xlink:href="#LiberationSans-34"/>
     <use x="505.95703125" xlink:href="#LiberationSans-37"/>
     <use x="561.572265625" xlink:href="#LiberationSans-36"/>
     <use x="617.1875" xlink:href="#LiberationSans-37"/>
     <use x="672.802734375" xlink:href="#LiberationSans-31"/>
     <use x="728.41796875" xlink:href="#LiberationSans-31"/>
     <use x="784.033203125" xlink:href="#LiberationSans-32"/>
     <use x="839.6484375" xlink:href="#LiberationSans-37"/>
     <use x="895.263671875" xlink:href="#LiberationSans-37"/>
     <use x="950.87890625" xlink:href="#LiberationSans-33"/>
     <use x="1006.494140625" xlink:href="#LiberationSans-39"/>
     <use x="1062.109375" xlink:href="#LiberationSans-30"/>
     <use x="1117.724609375" xlink:href="#LiberationSans-35"/>
     <use x="1173.33984375" xlink:href="#LiberationSans-20"/>
     <use x="1201.123046875" xlink:href="#LiberationSans-2a"/>
     <use x="1240.0390625" xlink:href="#LiberationSans-20"/>
     <use x="1267.822265625" xlink:href="#LiberationSans-6e"/>
     <use x="1323.4375" xlink:href="#LiberationSans-69"/>
    </g>
   </g>
  </g>
 </g>
 <defs>
  <clipPath id="p70ad9a9569">
   <rect height="316.8" width="446.4" x="72.0" y="39.6"/>
  </clipPath>
 </defs>
</svg>
