<?xml version="1.0" encoding="utf-8" standalone="no"?>
<!DOCTYPE svg PUBLIC "-//W3C//DTD SVG 1.1//EN"
  "http://www.w3.org/Graphics/SVG/1.1/DTD/svg11.dtd">
<!-- Created with matplotlib (http://matplotlib.org/) -->
<svg height="396pt" version="1.1" viewBox="0 0 576 396" width="576pt" xmlns="http://www.w3.org/2000/svg" xmlns:xlink="http://www.w3.org/1999/xlink">
 <defs>
  <style type="text/css">
*{stroke-linecap:butt;stroke-linejoin:round;stroke-miterlimit:100000;}
  </style>
 </defs>
 <g id="figure_1">
  <g id="patch_1">
   <path d="M 0 396 
L 576 396 
L 576 0 
L 0 0 
z
" style="fill:#ffffff;"/>
  </g>
  <g id="axes_1">
   <g id="patch_2">
    <path d="M 72 356.4 
L 518.4 356.4 
L 518.4 39.6 
L 72 39.6 
z
" style="fill:#eaeaf2;"/>
   </g>
   <g id="matplotlib.axis_1">
    <g id="xtick_1">
     <g id="line2d_1">
      <path clip-path="url(#p3a9549114b)" d="M 72 356.4 
L 72 39.6 
" style="fill:none;stroke:#ffffff;stroke-linecap:round;"/>
     </g>
     <g id="line2d_2"/>
     <g id="line2d_3"/>
     <g id="text_1">
      <!-- 2015-11-16 10:13:00 -->
      <defs>
       <path d="M 5.03125 0 
L 5.03125 6.203125 
Q 7.515625 11.921875 11.109375 16.28125 
Q 14.703125 20.65625 18.65625 24.1875 
Q 22.609375 27.734375 26.484375 30.765625 
Q 30.375 33.796875 33.5 36.8125 
Q 36.625 39.84375 38.546875 43.15625 
Q 40.484375 46.484375 40.484375 50.6875 
Q 40.484375 53.609375 39.59375 55.828125 
Q 38.71875 58.0625 37.0625 59.5625 
Q 35.40625 61.078125 33.078125 61.828125 
Q 30.765625 62.59375 27.9375 62.59375 
Q 25.296875 62.59375 22.96875 61.859375 
Q 20.65625 61.140625 18.84375 59.671875 
Q 17.046875 58.203125 15.890625 56.03125 
Q 14.75 53.859375 14.40625 50.984375 
L 5.421875 51.8125 
Q 5.859375 55.515625 7.46875 58.78125 
Q 9.078125 62.0625 11.90625 64.53125 
Q 14.75 67 18.71875 68.40625 
Q 22.703125 69.828125 27.9375 69.828125 
Q 33.0625 69.828125 37.0625 68.609375 
Q 41.0625 67.390625 43.8125 64.984375 
Q 46.578125 62.59375 48.046875 59.078125 
Q 49.515625 55.5625 49.515625 50.984375 
Q 49.515625 47.515625 48.265625 44.390625 
Q 47.015625 41.265625 44.9375 38.421875 
Q 42.875 35.59375 40.140625 32.953125 
Q 37.40625 30.328125 34.421875 27.8125 
Q 31.453125 25.296875 28.421875 22.828125 
Q 25.390625 20.359375 22.71875 17.859375 
Q 20.0625 15.375 17.96875 12.8125 
Q 15.875 10.25 14.703125 7.46875 
L 50.59375 7.46875 
L 50.59375 0 
z
" id="LiberationSans-32"/>
       <path d="M 7.625 0 
L 7.625 7.46875 
L 25.140625 7.46875 
L 25.140625 60.40625 
L 9.625 49.3125 
L 9.625 57.625 
L 25.875 68.796875 
L 33.984375 68.796875 
L 33.984375 7.46875 
L 50.734375 7.46875 
L 50.734375 0 
z
" id="LiberationSans-31"/>
       <path d="M 51.703125 34.421875 
Q 51.703125 24.515625 49.828125 17.75 
Q 47.953125 10.984375 44.703125 6.8125 
Q 41.453125 2.640625 37.0625 0.828125 
Q 32.671875 -0.984375 27.6875 -0.984375 
Q 22.65625 -0.984375 18.3125 0.828125 
Q 13.96875 2.640625 10.765625 6.78125 
Q 7.5625 10.9375 5.734375 17.703125 
Q 3.90625 24.46875 3.90625 34.421875 
Q 3.90625 44.828125 5.734375 51.640625 
Q 7.5625 58.453125 10.78125 62.5 
Q 14.015625 66.546875 18.40625 68.1875 
Q 22.796875 69.828125 27.984375 69.828125 
Q 32.90625 69.828125 37.21875 68.1875 
Q 41.546875 66.546875 44.765625 62.5 
Q 48 58.453125 49.84375 51.640625 
Q 51.703125 44.828125 51.703125 34.421875 
M 42.78125 34.421875 
Q 42.78125 42.625 41.796875 48.0625 
Q 40.828125 53.515625 38.921875 56.765625 
Q 37.015625 60.015625 34.25 61.359375 
Q 31.5 62.703125 27.984375 62.703125 
Q 24.265625 62.703125 21.4375 61.328125 
Q 18.609375 59.96875 16.671875 56.71875 
Q 14.75 53.46875 13.765625 48.015625 
Q 12.796875 42.578125 12.796875 34.421875 
Q 12.796875 26.515625 13.796875 21.09375 
Q 14.796875 15.671875 16.71875 12.375 
Q 18.65625 9.078125 21.4375 7.640625 
Q 24.21875 6.203125 27.78125 6.203125 
Q 31.25 6.203125 34.03125 7.640625 
Q 36.8125 9.078125 38.734375 12.375 
Q 40.671875 15.671875 41.71875 21.09375 
Q 42.78125 26.515625 42.78125 34.421875 
" id="LiberationSans-30"/>
       <path d="M 9.125 42.71875 
L 9.125 52.828125 
L 18.65625 52.828125 
L 18.65625 42.71875 
z
M 9.125 0 
L 9.125 10.109375 
L 18.65625 10.109375 
L 18.65625 0 
z
" id="LiberationSans-3a"/>
       <path d="M 51.21875 19 
Q 51.21875 14.265625 49.671875 10.546875 
Q 48.140625 6.84375 45.1875 4.265625 
Q 42.234375 1.703125 37.859375 0.359375 
Q 33.5 -0.984375 27.875 -0.984375 
Q 21.484375 -0.984375 17.109375 0.609375 
Q 12.75 2.203125 9.90625 4.8125 
Q 7.078125 7.421875 5.65625 10.765625 
Q 4.25 14.109375 3.8125 17.671875 
L 12.890625 18.5 
Q 13.28125 15.765625 14.328125 13.515625 
Q 15.375 11.28125 17.1875 9.671875 
Q 19 8.0625 21.625 7.171875 
Q 24.265625 6.296875 27.875 6.296875 
Q 34.515625 6.296875 38.296875 9.5625 
Q 42.09375 12.84375 42.09375 19.28125 
Q 42.09375 23.09375 40.40625 25.40625 
Q 38.71875 27.734375 36.203125 29.03125 
Q 33.6875 30.328125 30.734375 30.765625 
Q 27.78125 31.203125 25.296875 31.203125 
L 20.3125 31.203125 
L 20.3125 38.8125 
L 25.09375 38.8125 
Q 27.59375 38.8125 30.265625 39.328125 
Q 32.953125 39.84375 35.171875 41.1875 
Q 37.40625 42.53125 38.84375 44.828125 
Q 40.28125 47.125 40.28125 50.6875 
Q 40.28125 56.203125 37.03125 59.390625 
Q 33.796875 62.59375 27.390625 62.59375 
Q 21.578125 62.59375 17.984375 59.609375 
Q 14.40625 56.640625 13.8125 51.21875 
L 4.984375 51.90625 
Q 5.515625 56.453125 7.46875 59.8125 
Q 9.421875 63.1875 12.421875 65.40625 
Q 15.4375 67.625 19.28125 68.71875 
Q 23.140625 69.828125 27.484375 69.828125 
Q 33.25 69.828125 37.390625 68.375 
Q 41.546875 66.9375 44.1875 64.46875 
Q 46.828125 62.015625 48.0625 58.6875 
Q 49.3125 55.375 49.3125 51.609375 
Q 49.3125 48.578125 48.484375 45.9375 
Q 47.65625 43.3125 45.890625 41.203125 
Q 44.140625 39.109375 41.421875 37.59375 
Q 38.71875 36.078125 34.90625 35.296875 
L 34.90625 35.109375 
Q 39.0625 34.671875 42.140625 33.21875 
Q 45.21875 31.78125 47.21875 29.625 
Q 49.21875 27.484375 50.21875 24.75 
Q 51.21875 22.015625 51.21875 19 
" id="LiberationSans-33"/>
       <path d="M 51.421875 22.40625 
Q 51.421875 17.234375 49.859375 12.9375 
Q 48.296875 8.640625 45.21875 5.53125 
Q 42.140625 2.4375 37.578125 0.71875 
Q 33.015625 -0.984375 27 -0.984375 
Q 21.578125 -0.984375 17.546875 0.28125 
Q 13.53125 1.5625 10.734375 3.78125 
Q 7.953125 6 6.3125 8.984375 
Q 4.6875 11.96875 4 15.375 
L 12.890625 16.40625 
Q 13.421875 14.453125 14.390625 12.625 
Q 15.375 10.796875 17.0625 9.34375 
Q 18.75 7.90625 21.21875 7.046875 
Q 23.6875 6.203125 27.203125 6.203125 
Q 30.609375 6.203125 33.390625 7.25 
Q 36.1875 8.296875 38.15625 10.34375 
Q 40.140625 12.40625 41.203125 15.375 
Q 42.28125 18.359375 42.28125 22.21875 
Q 42.28125 25.390625 41.25 28.046875 
Q 40.234375 30.71875 38.328125 32.640625 
Q 36.421875 34.578125 33.65625 35.640625 
Q 30.90625 36.71875 27.390625 36.71875 
Q 25.203125 36.71875 23.34375 36.328125 
Q 21.484375 35.9375 19.890625 35.25 
Q 18.3125 34.578125 17.015625 33.671875 
Q 15.71875 32.765625 14.59375 31.78125 
L 6 31.78125 
L 8.296875 68.796875 
L 47.40625 68.796875 
L 47.40625 61.328125 
L 16.3125 61.328125 
L 14.984375 39.5 
Q 17.328125 41.3125 20.84375 42.59375 
Q 24.359375 43.890625 29.203125 43.890625 
Q 34.328125 43.890625 38.421875 42.328125 
Q 42.53125 40.765625 45.40625 37.90625 
Q 48.296875 35.0625 49.859375 31.109375 
Q 51.421875 27.15625 51.421875 22.40625 
" id="LiberationSans-35"/>
       <path id="LiberationSans-20"/>
       <path d="M 4.4375 22.65625 
L 4.4375 30.46875 
L 28.859375 30.46875 
L 28.859375 22.65625 
z
" id="LiberationSans-2d"/>
       <path d="M 51.21875 22.515625 
Q 51.21875 17.328125 49.78125 13 
Q 48.34375 8.6875 45.53125 5.578125 
Q 42.71875 2.484375 38.5625 0.75 
Q 34.421875 -0.984375 29 -0.984375 
Q 23 -0.984375 18.5 1.3125 
Q 14.015625 3.609375 11.03125 7.921875 
Q 8.0625 12.25 6.5625 18.53125 
Q 5.078125 24.8125 5.078125 32.8125 
Q 5.078125 42 6.765625 48.921875 
Q 8.453125 55.859375 11.625 60.5 
Q 14.796875 65.140625 19.359375 67.484375 
Q 23.921875 69.828125 29.6875 69.828125 
Q 33.203125 69.828125 36.28125 69.09375 
Q 39.359375 68.359375 41.875 66.71875 
Q 44.390625 65.09375 46.28125 62.40625 
Q 48.1875 59.71875 49.3125 55.8125 
L 40.921875 54.296875 
Q 39.546875 58.734375 36.546875 60.71875 
Q 33.546875 62.703125 29.59375 62.703125 
Q 25.984375 62.703125 23.046875 60.984375 
Q 20.125 59.28125 18.0625 55.875 
Q 16.015625 52.484375 14.90625 47.359375 
Q 13.8125 42.234375 13.8125 35.40625 
Q 16.21875 39.84375 20.5625 42.15625 
Q 24.90625 44.484375 30.515625 44.484375 
Q 35.203125 44.484375 39.015625 42.96875 
Q 42.828125 41.453125 45.53125 38.59375 
Q 48.25 35.75 49.734375 31.671875 
Q 51.21875 27.59375 51.21875 22.515625 
M 42.28125 22.125 
Q 42.28125 25.6875 41.40625 28.5625 
Q 40.53125 31.453125 38.765625 33.46875 
Q 37.015625 35.5 34.421875 36.59375 
Q 31.84375 37.703125 28.421875 37.703125 
Q 26.03125 37.703125 23.578125 36.984375 
Q 21.140625 36.28125 19.15625 34.6875 
Q 17.1875 33.109375 15.9375 30.515625 
Q 14.703125 27.9375 14.703125 24.21875 
Q 14.703125 20.40625 15.671875 17.109375 
Q 16.65625 13.8125 18.484375 11.375 
Q 20.3125 8.9375 22.890625 7.515625 
Q 25.484375 6.109375 28.71875 6.109375 
Q 31.890625 6.109375 34.40625 7.203125 
Q 36.921875 8.296875 38.671875 10.375 
Q 40.4375 12.453125 41.359375 15.421875 
Q 42.28125 18.40625 42.28125 22.125 
" id="LiberationSans-36"/>
      </defs>
      <g style="fill:#262626;" transform="translate(25.5765625 370.646875)scale(0.1 -0.1)">
       <use xlink:href="#LiberationSans-32"/>
       <use x="55.615234375" xlink:href="#LiberationSans-30"/>
       <use x="111.23046875" xlink:href="#LiberationSans-31"/>
       <use x="166.845703125" xlink:href="#LiberationSans-35"/>
       <use x="222.4609375" xlink:href="#LiberationSans-2d"/>
       <use x="255.76171875" xlink:href="#LiberationSans-31"/>
       <use x="311.376953125" xlink:href="#LiberationSans-31"/>
       <use x="366.9921875" xlink:href="#LiberationSans-2d"/>
       <use x="400.29296875" xlink:href="#LiberationSans-31"/>
       <use x="455.908203125" xlink:href="#LiberationSans-36"/>
       <use x="511.5234375" xlink:href="#LiberationSans-20"/>
       <use x="539.306640625" xlink:href="#LiberationSans-31"/>
       <use x="594.921875" xlink:href="#LiberationSans-30"/>
       <use x="650.537109375" xlink:href="#LiberationSans-3a"/>
       <use x="678.3203125" xlink:href="#LiberationSans-31"/>
       <use x="733.935546875" xlink:href="#LiberationSans-33"/>
       <use x="789.55078125" xlink:href="#LiberationSans-3a"/>
       <use x="817.333984375" xlink:href="#LiberationSans-30"/>
       <use x="872.94921875" xlink:href="#LiberationSans-30"/>
      </g>
     </g>
    </g>
    <g id="xtick_2">
     <g id="line2d_4">
      <path clip-path="url(#p3a9549114b)" d="M 183.655828 356.4 
L 183.655828 39.6 
" style="fill:none;stroke:#ffffff;stroke-linecap:round;"/>
     </g>
     <g id="line2d_5"/>
     <g id="line2d_6"/>
     <g id="text_2">
      <!-- 2015-11-18 13:52:00 -->
      <defs>
       <path d="M 51.265625 19.1875 
Q 51.265625 14.796875 49.875 11.109375 
Q 48.484375 7.421875 45.625 4.734375 
Q 42.78125 2.046875 38.328125 0.53125 
Q 33.890625 -0.984375 27.828125 -0.984375 
Q 21.78125 -0.984375 17.359375 0.53125 
Q 12.9375 2.046875 10.03125 4.703125 
Q 7.125 7.375 5.734375 11.0625 
Q 4.34375 14.75 4.34375 19.09375 
Q 4.34375 22.859375 5.484375 25.78125 
Q 6.640625 28.71875 8.5625 30.828125 
Q 10.5 32.953125 12.96875 34.25 
Q 15.4375 35.546875 18.0625 35.984375 
L 18.0625 36.1875 
Q 15.1875 36.859375 12.90625 38.375 
Q 10.640625 39.890625 9.09375 42.015625 
Q 7.5625 44.140625 6.75 46.71875 
Q 5.953125 49.3125 5.953125 52.203125 
Q 5.953125 55.8125 7.34375 59 
Q 8.734375 62.203125 11.46875 64.625 
Q 14.203125 67.046875 18.25 68.4375 
Q 22.3125 69.828125 27.640625 69.828125 
Q 33.25 69.828125 37.375 68.40625 
Q 41.5 67 44.203125 64.578125 
Q 46.921875 62.15625 48.234375 58.9375 
Q 49.5625 55.71875 49.5625 52.09375 
Q 49.5625 49.265625 48.75 46.671875 
Q 47.953125 44.09375 46.40625 41.96875 
Q 44.875 39.84375 42.59375 38.34375 
Q 40.328125 36.859375 37.359375 36.28125 
L 37.359375 36.078125 
Q 40.328125 35.59375 42.859375 34.296875 
Q 45.40625 33.015625 47.265625 30.890625 
Q 49.125 28.765625 50.1875 25.828125 
Q 51.265625 22.90625 51.265625 19.1875 
M 40.4375 51.609375 
Q 40.4375 54.203125 39.765625 56.34375 
Q 39.109375 58.5 37.59375 60.03125 
Q 36.078125 61.578125 33.640625 62.421875 
Q 31.203125 63.28125 27.640625 63.28125 
Q 24.171875 63.28125 21.78125 62.421875 
Q 19.390625 61.578125 17.84375 60.03125 
Q 16.3125 58.5 15.625 56.34375 
Q 14.9375 54.203125 14.9375 51.609375 
Q 14.9375 49.5625 15.46875 47.40625 
Q 16.015625 45.265625 17.421875 43.5 
Q 18.84375 41.75 21.328125 40.625 
Q 23.828125 39.5 27.734375 39.5 
Q 31.890625 39.5 34.40625 40.625 
Q 36.921875 41.75 38.25 43.5 
Q 39.59375 45.265625 40.015625 47.40625 
Q 40.4375 49.5625 40.4375 51.609375 
M 42.140625 20.015625 
Q 42.140625 22.515625 41.453125 24.828125 
Q 40.765625 27.15625 39.109375 28.9375 
Q 37.453125 30.71875 34.640625 31.8125 
Q 31.84375 32.90625 27.640625 32.90625 
Q 23.78125 32.90625 21.0625 31.8125 
Q 18.359375 30.71875 16.671875 28.90625 
Q 14.984375 27.09375 14.203125 24.71875 
Q 13.421875 22.359375 13.421875 19.828125 
Q 13.421875 16.65625 14.203125 14.03125 
Q 14.984375 11.421875 16.6875 9.546875 
Q 18.40625 7.671875 21.1875 6.640625 
Q 23.96875 5.609375 27.9375 5.609375 
Q 31.9375 5.609375 34.671875 6.640625 
Q 37.40625 7.671875 39.0625 9.546875 
Q 40.71875 11.421875 41.421875 14.078125 
Q 42.140625 16.75 42.140625 20.015625 
" id="LiberationSans-38"/>
      </defs>
      <g style="fill:#262626;" transform="translate(137.232390414 370.646875)scale(0.1 -0.1)">
       <use xlink:href="#LiberationSans-32"/>
       <use x="55.615234375" xlink:href="#LiberationSans-30"/>
       <use x="111.23046875" xlink:href="#LiberationSans-31"/>
       <use x="166.845703125" xlink:href="#LiberationSans-35"/>
       <use x="222.4609375" xlink:href="#LiberationSans-2d"/>
       <use x="255.76171875" xlink:href="#LiberationSans-31"/>
       <use x="311.376953125" xlink:href="#LiberationSans-31"/>
       <use x="366.9921875" xlink:href="#LiberationSans-2d"/>
       <use x="400.29296875" xlink:href="#LiberationSans-31"/>
       <use x="455.908203125" xlink:href="#LiberationSans-38"/>
       <use x="511.5234375" xlink:href="#LiberationSans-20"/>
       <use x="539.306640625" xlink:href="#LiberationSans-31"/>
       <use x="594.921875" xlink:href="#LiberationSans-33"/>
       <use x="650.537109375" xlink:href="#LiberationSans-3a"/>
       <use x="678.3203125" xlink:href="#LiberationSans-35"/>
       <use x="733.935546875" xlink:href="#LiberationSans-32"/>
       <use x="789.55078125" xlink:href="#LiberationSans-3a"/>
       <use x="817.333984375" xlink:href="#LiberationSans-30"/>
       <use x="872.94921875" xlink:href="#LiberationSans-30"/>
      </g>
     </g>
    </g>
    <g id="xtick_3">
     <g id="line2d_7">
      <path clip-path="url(#p3a9549114b)" d="M 295.311656 356.4 
L 295.311656 39.6 
" style="fill:none;stroke:#ffffff;stroke-linecap:round;"/>
     </g>
     <g id="line2d_8"/>
     <g id="line2d_9"/>
     <g id="text_3">
      <!-- 2015-11-23 09:25:00 -->
      <defs>
       <path d="M 50.875 35.796875 
Q 50.875 26.609375 49.140625 19.703125 
Q 47.40625 12.796875 44.1875 8.203125 
Q 40.96875 3.609375 36.34375 1.3125 
Q 31.734375 -0.984375 25.984375 -0.984375 
Q 22.015625 -0.984375 18.84375 -0.171875 
Q 15.671875 0.640625 13.171875 2.34375 
Q 10.6875 4.046875 8.921875 6.78125 
Q 7.171875 9.515625 6.109375 13.375 
L 14.5 14.703125 
Q 15.875 10.25 18.78125 8.171875 
Q 21.6875 6.109375 26.125 6.109375 
Q 29.6875 6.109375 32.640625 7.78125 
Q 35.59375 9.46875 37.671875 12.84375 
Q 39.75 16.21875 40.921875 21.296875 
Q 42.09375 26.375 42.1875 33.203125 
Q 41.15625 30.90625 39.375 29.09375 
Q 37.59375 27.296875 35.328125 26.046875 
Q 33.0625 24.8125 30.421875 24.140625 
Q 27.78125 23.484375 25.09375 23.484375 
Q 20.40625 23.484375 16.625 25.171875 
Q 12.84375 26.859375 10.203125 29.875 
Q 7.5625 32.90625 6.125 37.171875 
Q 4.6875 41.453125 4.6875 46.6875 
Q 4.6875 52 6.21875 56.296875 
Q 7.765625 60.59375 10.6875 63.59375 
Q 13.625 66.609375 17.890625 68.21875 
Q 22.171875 69.828125 27.59375 69.828125 
Q 39.0625 69.828125 44.96875 61.328125 
Q 50.875 52.828125 50.875 35.796875 
M 41.3125 44.28125 
Q 41.3125 48.09375 40.40625 51.453125 
Q 39.5 54.828125 37.71875 57.3125 
Q 35.9375 59.8125 33.328125 61.25 
Q 30.71875 62.703125 27.296875 62.703125 
Q 24.125 62.703125 21.578125 61.578125 
Q 19.046875 60.453125 17.28125 58.375 
Q 15.53125 56.296875 14.578125 53.3125 
Q 13.625 50.34375 13.625 46.6875 
Q 13.625 43.21875 14.46875 40.234375 
Q 15.328125 37.25 17.03125 35.078125 
Q 18.75 32.90625 21.28125 31.65625 
Q 23.828125 30.421875 27.203125 30.421875 
Q 29.640625 30.421875 32.15625 31.25 
Q 34.671875 32.078125 36.6875 33.78125 
Q 38.71875 35.5 40.015625 38.109375 
Q 41.3125 40.71875 41.3125 44.28125 
" id="LiberationSans-39"/>
      </defs>
      <g style="fill:#262626;" transform="translate(248.888218328 370.646875)scale(0.1 -0.1)">
       <use xlink:href="#LiberationSans-32"/>
       <use x="55.615234375" xlink:href="#LiberationSans-30"/>
       <use x="111.23046875" xlink:href="#LiberationSans-31"/>
       <use x="166.845703125" xlink:href="#LiberationSans-35"/>
       <use x="222.4609375" xlink:href="#LiberationSans-2d"/>
       <use x="255.76171875" xlink:href="#LiberationSans-31"/>
       <use x="311.376953125" xlink:href="#LiberationSans-31"/>
       <use x="366.9921875" xlink:href="#LiberationSans-2d"/>
       <use x="400.29296875" xlink:href="#LiberationSans-32"/>
       <use x="455.908203125" xlink:href="#LiberationSans-33"/>
       <use x="511.5234375" xlink:href="#LiberationSans-20"/>
       <use x="539.306640625" xlink:href="#LiberationSans-30"/>
       <use x="594.921875" xlink:href="#LiberationSans-39"/>
       <use x="650.537109375" xlink:href="#LiberationSans-3a"/>
       <use x="678.3203125" xlink:href="#LiberationSans-32"/>
       <use x="733.935546875" xlink:href="#LiberationSans-35"/>
       <use x="789.55078125" xlink:href="#LiberationSans-3a"/>
       <use x="817.333984375" xlink:href="#LiberationSans-30"/>
       <use x="872.94921875" xlink:href="#LiberationSans-30"/>
      </g>
     </g>
    </g>
    <g id="xtick_4">
     <g id="line2d_10">
      <path clip-path="url(#p3a9549114b)" d="M 406.967484 356.4 
L 406.967484 39.6 
" style="fill:none;stroke:#ffffff;stroke-linecap:round;"/>
     </g>
     <g id="line2d_11"/>
     <g id="line2d_12"/>
     <g id="text_4">
      <!-- 2015-11-25 11:00:00 -->
      <g style="fill:#262626;" transform="translate(360.544046242 370.646875)scale(0.1 -0.1)">
       <use xlink:href="#LiberationSans-32"/>
       <use x="55.615234375" xlink:href="#LiberationSans-30"/>
       <use x="111.23046875" xlink:href="#LiberationSans-31"/>
       <use x="166.845703125" xlink:href="#LiberationSans-35"/>
       <use x="222.4609375" xlink:href="#LiberationSans-2d"/>
       <use x="255.76171875" xlink:href="#LiberationSans-31"/>
       <use x="311.376953125" xlink:href="#LiberationSans-31"/>
       <use x="366.9921875" xlink:href="#LiberationSans-2d"/>
       <use x="400.29296875" xlink:href="#LiberationSans-32"/>
       <use x="455.908203125" xlink:href="#LiberationSans-35"/>
       <use x="511.5234375" xlink:href="#LiberationSans-20"/>
       <use x="539.306640625" xlink:href="#LiberationSans-31"/>
       <use x="594.921875" xlink:href="#LiberationSans-31"/>
       <use x="650.537109375" xlink:href="#LiberationSans-3a"/>
       <use x="678.3203125" xlink:href="#LiberationSans-30"/>
       <use x="733.935546875" xlink:href="#LiberationSans-30"/>
       <use x="789.55078125" xlink:href="#LiberationSans-3a"/>
       <use x="817.333984375" xlink:href="#LiberationSans-30"/>
       <use x="872.94921875" xlink:href="#LiberationSans-30"/>
      </g>
     </g>
    </g>
    <g id="text_5">
     <!-- time -->
     <defs>
      <path d="M 13.484375 24.5625 
Q 13.484375 20.40625 14.328125 16.90625 
Q 15.1875 13.421875 16.96875 10.90625 
Q 18.75 8.40625 21.53125 7 
Q 24.3125 5.609375 28.21875 5.609375 
Q 33.9375 5.609375 37.375 7.90625 
Q 40.828125 10.203125 42.046875 13.71875 
L 49.75 11.53125 
Q 48.921875 9.328125 47.4375 7.109375 
Q 45.953125 4.890625 43.453125 3.09375 
Q 40.96875 1.3125 37.234375 0.15625 
Q 33.5 -0.984375 28.21875 -0.984375 
Q 16.5 -0.984375 10.375 6 
Q 4.25 12.984375 4.25 26.765625 
Q 4.25 34.1875 6.09375 39.328125 
Q 7.953125 44.484375 11.171875 47.703125 
Q 14.40625 50.921875 18.703125 52.359375 
Q 23 53.8125 27.875 53.8125 
Q 34.515625 53.8125 38.984375 51.65625 
Q 43.453125 49.515625 46.15625 45.71875 
Q 48.875 41.9375 50.015625 36.8125 
Q 51.171875 31.6875 51.171875 25.734375 
L 51.171875 24.5625 
z
M 42.09375 31.296875 
Q 41.359375 39.65625 37.84375 43.484375 
Q 34.328125 47.3125 27.734375 47.3125 
Q 25.53125 47.3125 23.109375 46.609375 
Q 20.703125 45.90625 18.65625 44.09375 
Q 16.609375 42.28125 15.1875 39.171875 
Q 13.765625 36.078125 13.578125 31.296875 
z
" id="LiberationSans-65"/>
      <path d="M 6.6875 64.0625 
L 6.6875 72.46875 
L 15.484375 72.46875 
L 15.484375 64.0625 
z
M 6.6875 0 
L 6.6875 52.828125 
L 15.484375 52.828125 
L 15.484375 0 
z
" id="LiberationSans-69"/>
      <path d="M 27.046875 0.390625 
Q 25.046875 -0.140625 22.96875 -0.453125 
Q 20.90625 -0.78125 18.171875 -0.78125 
Q 7.625 -0.78125 7.625 11.1875 
L 7.625 46.4375 
L 1.515625 46.4375 
L 1.515625 52.828125 
L 7.953125 52.828125 
L 10.546875 64.65625 
L 16.40625 64.65625 
L 16.40625 52.828125 
L 26.171875 52.828125 
L 26.171875 46.4375 
L 16.40625 46.4375 
L 16.40625 13.09375 
Q 16.40625 9.28125 17.640625 7.734375 
Q 18.890625 6.203125 21.96875 6.203125 
Q 23.25 6.203125 24.4375 6.390625 
Q 25.640625 6.59375 27.046875 6.890625 
z
" id="LiberationSans-74"/>
      <path d="M 37.5 0 
L 37.5 33.5 
Q 37.5 37.359375 37.015625 39.9375 
Q 36.53125 42.53125 35.375 44.109375 
Q 34.234375 45.703125 32.375 46.359375 
Q 30.515625 47.015625 27.828125 47.015625 
Q 25.046875 47.015625 22.796875 45.921875 
Q 20.5625 44.828125 18.96875 42.75 
Q 17.390625 40.671875 16.53125 37.625 
Q 15.671875 34.578125 15.671875 30.609375 
L 15.671875 0 
L 6.9375 0 
L 6.9375 41.546875 
Q 6.9375 43.21875 6.90625 45.046875 
Q 6.890625 46.875 6.828125 48.5 
Q 6.78125 50.140625 6.734375 51.3125 
Q 6.6875 52.484375 6.640625 52.828125 
L 14.9375 52.828125 
Q 14.984375 52.59375 15.03125 51.515625 
Q 15.09375 50.4375 15.15625 49.046875 
Q 15.234375 47.65625 15.28125 46.21875 
Q 15.328125 44.78125 15.328125 43.796875 
L 15.484375 43.796875 
Q 16.65625 46.09375 18.015625 47.953125 
Q 19.390625 49.8125 21.21875 51.09375 
Q 23.046875 52.390625 25.40625 53.09375 
Q 27.78125 53.8125 30.90625 53.8125 
Q 36.921875 53.8125 40.40625 51.421875 
Q 43.890625 49.03125 45.265625 43.796875 
L 45.40625 43.796875 
Q 46.578125 46.09375 48.046875 47.953125 
Q 49.515625 49.8125 51.46875 51.09375 
Q 53.421875 52.390625 55.859375 53.09375 
Q 58.296875 53.8125 61.421875 53.8125 
Q 65.4375 53.8125 68.328125 52.734375 
Q 71.234375 51.65625 73.09375 49.40625 
Q 74.953125 47.171875 75.828125 43.625 
Q 76.703125 40.09375 76.703125 35.203125 
L 76.703125 0 
L 68.015625 0 
L 68.015625 33.5 
Q 68.015625 37.359375 67.53125 39.9375 
Q 67.046875 42.53125 65.890625 44.109375 
Q 64.75 45.703125 62.890625 46.359375 
Q 61.03125 47.015625 58.34375 47.015625 
Q 55.5625 47.015625 53.3125 45.96875 
Q 51.078125 44.921875 49.484375 42.875 
Q 47.90625 40.828125 47.046875 37.75 
Q 46.1875 34.671875 46.1875 30.609375 
L 46.1875 0 
z
" id="LiberationSans-6d"/>
     </defs>
     <g style="fill:#262626;" transform="translate(284.81015625 385.6934375)scale(0.11 -0.11)">
      <use xlink:href="#LiberationSans-74"/>
      <use x="27.783203125" xlink:href="#LiberationSans-69"/>
      <use x="50.0" xlink:href="#LiberationSans-6d"/>
      <use x="133.30078125" xlink:href="#LiberationSans-65"/>
     </g>
    </g>
   </g>
   <g id="matplotlib.axis_2">
    <g id="ytick_1">
     <g id="line2d_13">
      <path clip-path="url(#p3a9549114b)" d="M 72 356.4 
L 518.4 356.4 
" style="fill:none;stroke:#ffffff;stroke-linecap:round;"/>
     </g>
     <g id="line2d_14"/>
     <g id="line2d_15"/>
     <g id="text_6">
      <!-- −22800 -->
      <defs>
       <path d="M 4.9375 29.6875 
L 4.9375 36.8125 
L 53.515625 36.8125 
L 53.515625 29.6875 
z
" id="LiberationSans-2212"/>
      </defs>
      <g style="fill:#262626;" transform="translate(31.3546875 358.9859375)scale(0.1 -0.1)">
       <use xlink:href="#LiberationSans-2212"/>
       <use x="58.3984375" xlink:href="#LiberationSans-32"/>
       <use x="114.013671875" xlink:href="#LiberationSans-32"/>
       <use x="169.62890625" xlink:href="#LiberationSans-38"/>
       <use x="225.244140625" xlink:href="#LiberationSans-30"/>
       <use x="280.859375" xlink:href="#LiberationSans-30"/>
      </g>
     </g>
    </g>
    <g id="ytick_2">
     <g id="line2d_16">
      <path clip-path="url(#p3a9549114b)" d="M 72 311.142857 
L 518.4 311.142857 
" style="fill:none;stroke:#ffffff;stroke-linecap:round;"/>
     </g>
     <g id="line2d_17"/>
     <g id="line2d_18"/>
     <g id="text_7">
      <!-- −22750 -->
      <defs>
       <path d="M 50.59375 61.671875 
Q 45.40625 53.765625 41.0625 46.453125 
Q 36.71875 39.15625 33.59375 31.75 
Q 30.46875 24.359375 28.734375 16.578125 
Q 27 8.796875 27 0 
L 17.828125 0 
Q 17.828125 8.25 19.78125 16.1875 
Q 21.734375 24.125 25.046875 31.765625 
Q 28.375 39.40625 32.765625 46.78125 
Q 37.15625 54.15625 42.09375 61.328125 
L 5.125 61.328125 
L 5.125 68.796875 
L 50.59375 68.796875 
z
" id="LiberationSans-37"/>
      </defs>
      <g style="fill:#262626;" transform="translate(31.3546875 313.728794643)scale(0.1 -0.1)">
       <use xlink:href="#LiberationSans-2212"/>
       <use x="58.3984375" xlink:href="#LiberationSans-32"/>
       <use x="114.013671875" xlink:href="#LiberationSans-32"/>
       <use x="169.62890625" xlink:href="#LiberationSans-37"/>
       <use x="225.244140625" xlink:href="#LiberationSans-35"/>
       <use x="280.859375" xlink:href="#LiberationSans-30"/>
      </g>
     </g>
    </g>
    <g id="ytick_3">
     <g id="line2d_19">
      <path clip-path="url(#p3a9549114b)" d="M 72 265.885714 
L 518.4 265.885714 
" style="fill:none;stroke:#ffffff;stroke-linecap:round;"/>
     </g>
     <g id="line2d_20"/>
     <g id="line2d_21"/>
     <g id="text_8">
      <!-- −22700 -->
      <g style="fill:#262626;" transform="translate(31.3546875 268.471651786)scale(0.1 -0.1)">
       <use xlink:href="#LiberationSans-2212"/>
       <use x="58.3984375" xlink:href="#LiberationSans-32"/>
       <use x="114.013671875" xlink:href="#LiberationSans-32"/>
       <use x="169.62890625" xlink:href="#LiberationSans-37"/>
       <use x="225.244140625" xlink:href="#LiberationSans-30"/>
       <use x="280.859375" xlink:href="#LiberationSans-30"/>
      </g>
     </g>
    </g>
    <g id="ytick_4">
     <g id="line2d_22">
      <path clip-path="url(#p3a9549114b)" d="M 72 220.628571 
L 518.4 220.628571 
" style="fill:none;stroke:#ffffff;stroke-linecap:round;"/>
     </g>
     <g id="line2d_23"/>
     <g id="line2d_24"/>
     <g id="text_9">
      <!-- −22650 -->
      <g style="fill:#262626;" transform="translate(31.3546875 223.214508929)scale(0.1 -0.1)">
       <use xlink:href="#LiberationSans-2212"/>
       <use x="58.3984375" xlink:href="#LiberationSans-32"/>
       <use x="114.013671875" xlink:href="#LiberationSans-32"/>
       <use x="169.62890625" xlink:href="#LiberationSans-36"/>
       <use x="225.244140625" xlink:href="#LiberationSans-35"/>
       <use x="280.859375" xlink:href="#LiberationSans-30"/>
      </g>
     </g>
    </g>
    <g id="ytick_5">
     <g id="line2d_25">
      <path clip-path="url(#p3a9549114b)" d="M 72 175.371429 
L 518.4 175.371429 
" style="fill:none;stroke:#ffffff;stroke-linecap:round;"/>
     </g>
     <g id="line2d_26"/>
     <g id="line2d_27"/>
     <g id="text_10">
      <!-- −22600 -->
      <g style="fill:#262626;" transform="translate(31.3546875 177.957366071)scale(0.1 -0.1)">
       <use xlink:href="#LiberationSans-2212"/>
       <use x="58.3984375" xlink:href="#LiberationSans-32"/>
       <use x="114.013671875" xlink:href="#LiberationSans-32"/>
       <use x="169.62890625" xlink:href="#LiberationSans-36"/>
       <use x="225.244140625" xlink:href="#LiberationSans-30"/>
       <use x="280.859375" xlink:href="#LiberationSans-30"/>
      </g>
     </g>
    </g>
    <g id="ytick_6">
     <g id="line2d_28">
      <path clip-path="url(#p3a9549114b)" d="M 72 130.114286 
L 518.4 130.114286 
" style="fill:none;stroke:#ffffff;stroke-linecap:round;"/>
     </g>
     <g id="line2d_29"/>
     <g id="line2d_30"/>
     <g id="text_11">
      <!-- −22550 -->
      <g style="fill:#262626;" transform="translate(31.3546875 132.700223214)scale(0.1 -0.1)">
       <use xlink:href="#LiberationSans-2212"/>
       <use x="58.3984375" xlink:href="#LiberationSans-32"/>
       <use x="114.013671875" xlink:href="#LiberationSans-32"/>
       <use x="169.62890625" xlink:href="#LiberationSans-35"/>
       <use x="225.244140625" xlink:href="#LiberationSans-35"/>
       <use x="280.859375" xlink:href="#LiberationSans-30"/>
      </g>
     </g>
    </g>
    <g id="ytick_7">
     <g id="line2d_31">
      <path clip-path="url(#p3a9549114b)" d="M 72 84.857143 
L 518.4 84.857143 
" style="fill:none;stroke:#ffffff;stroke-linecap:round;"/>
     </g>
     <g id="line2d_32"/>
     <g id="line2d_33"/>
     <g id="text_12">
      <!-- −22500 -->
      <g style="fill:#262626;" transform="translate(31.3546875 87.4430803571)scale(0.1 -0.1)">
       <use xlink:href="#LiberationSans-2212"/>
       <use x="58.3984375" xlink:href="#LiberationSans-32"/>
       <use x="114.013671875" xlink:href="#LiberationSans-32"/>
       <use x="169.62890625" xlink:href="#LiberationSans-35"/>
       <use x="225.244140625" xlink:href="#LiberationSans-30"/>
       <use x="280.859375" xlink:href="#LiberationSans-30"/>
      </g>
     </g>
    </g>
    <g id="ytick_8">
     <g id="line2d_34">
      <path clip-path="url(#p3a9549114b)" d="M 72 39.6 
L 518.4 39.6 
" style="fill:none;stroke:#ffffff;stroke-linecap:round;"/>
     </g>
     <g id="line2d_35"/>
     <g id="line2d_36"/>
     <g id="text_13">
      <!-- −22450 -->
      <defs>
       <path d="M 43.015625 15.578125 
L 43.015625 0 
L 34.71875 0 
L 34.71875 15.578125 
L 2.296875 15.578125 
L 2.296875 22.40625 
L 33.796875 68.796875 
L 43.015625 68.796875 
L 43.015625 22.515625 
L 52.6875 22.515625 
L 52.6875 15.578125 
z
M 34.71875 58.890625 
Q 34.625 58.640625 34.234375 57.9375 
Q 33.84375 57.234375 33.34375 56.34375 
Q 32.859375 55.46875 32.34375 54.5625 
Q 31.84375 53.65625 31.453125 53.078125 
L 13.8125 27.09375 
Q 13.578125 26.703125 13.109375 26.0625 
Q 12.640625 25.4375 12.15625 24.78125 
Q 11.671875 24.125 11.171875 23.484375 
Q 10.6875 22.859375 10.40625 22.515625 
L 34.71875 22.515625 
z
" id="LiberationSans-34"/>
      </defs>
      <g style="fill:#262626;" transform="translate(31.3546875 42.1859375)scale(0.1 -0.1)">
       <use xlink:href="#LiberationSans-2212"/>
       <use x="58.3984375" xlink:href="#LiberationSans-32"/>
       <use x="114.013671875" xlink:href="#LiberationSans-32"/>
       <use x="169.62890625" xlink:href="#LiberationSans-34"/>
       <use x="225.244140625" xlink:href="#LiberationSans-35"/>
       <use x="280.859375" xlink:href="#LiberationSans-30"/>
      </g>
     </g>
    </g>
   </g>
   <g id="line2d_37">
    <path clip-path="url(#p3a9549114b)" d="M 72 44.722178 
L 72.223312 52.412565 
L 72.446623 55.864021 
L 72.669935 56.669599 
L 72.893247 55.864021 
L 73.116558 59.306426 
L 73.33987 59.306426 
L 73.563182 55.049393 
L 73.786493 68.233532 
L 74.009805 70.659315 
L 74.233117 67.21691 
L 74.456428 66.411333 
L 74.67974 63.98555 
L 74.903052 63.98555 
L 75.126363 63.179973 
L 75.572986 56.075066 
L 75.796298 59.517471 
L 76.01961 64.791127 
L 76.689545 57.686221 
L 77.35948 68.405974 
L 77.582791 69.000506 
L 77.806103 75.885316 
L 78.029415 68.78041 
L 78.252726 69.585987 
L 78.476038 69.585987 
L 78.69935 67.763788 
L 78.922661 66.949159 
L 79.145973 67.763788 
L 79.369285 70.400616 
L 79.592596 75.674271 
L 79.815908 74.859643 
L 80.03922 80.133298 
L 80.485843 81.542459 
L 80.709155 85.790441 
L 80.932466 85.790441 
L 81.155778 82.12794 
L 81.37909 83.95919 
L 81.602401 82.12794 
L 81.825713 81.322363 
L 82.049025 83.95919 
L 82.272336 77.879958 
L 82.495648 78.685535 
L 82.718959 82.12794 
L 82.942271 82.942568 
L 83.388894 94.084412 
L 83.835518 98.543439 
L 84.058829 95.101034 
L 84.505453 103.011517 
L 84.728764 102.20594 
L 84.952076 104.842768 
L 85.175388 101.180266 
L 85.398699 99.358067 
L 85.845323 109.685282 
L 86.068634 107.048454 
L 86.515258 112.111065 
L 86.738569 106.242877 
L 86.961881 113.127687 
L 87.185193 110.490859 
L 87.408504 105.217204 
L 87.631816 110.279814 
L 87.855128 121.03817 
L 88.078439 122.869421 
L 88.301751 122.869421 
L 88.525063 120.232593 
L 88.971686 126.311826 
L 89.194997 125.295204 
L 89.418309 125.295204 
L 89.641621 127.720987 
L 89.864932 131.757924 
L 90.088244 131.757924 
L 90.534867 135.794861 
L 90.758179 136.600438 
L 90.981491 134.174655 
L 91.428114 139.448311 
L 91.651426 130.137718 
L 91.874737 133.369078 
L 92.098049 134.394751 
L 92.321361 133.369078 
L 92.544672 129.121096 
L 92.991296 127.289845 
L 93.214607 121.210613 
L 93.437919 121.210613 
L 93.661231 125.458595 
L 93.884542 120.184939 
L 94.107854 126.264172 
L 94.554477 129.495532 
L 94.777789 122.01619 
L 95.001101 126.264172 
L 95.224412 127.884378 
L 95.447724 127.884378 
L 95.671036 122.610722 
L 95.894347 123.627344 
L 96.117659 122.610722 
L 96.564282 134.338046 
L 97.010905 131.115738 
L 97.234217 136.169297 
L 97.457529 133.752565 
L 97.68084 134.558142 
L 98.127464 131.326782 
L 98.350775 139.026221 
L 98.574087 134.558142 
L 98.797399 132.937937 
L 99.02071 132.726892 
L 99.244022 125.842082 
L 99.467334 131.115738 
L 99.690645 125.027453 
L 100.137269 130.301109 
L 100.36058 129.495532 
L 101.030515 132.937937 
L 101.477139 130.521205 
L 101.70045 133.158033 
L 101.923762 133.96361 
L 102.370385 130.521205 
L 102.593697 133.158033 
L 102.817009 128.689955 
L 103.04032 120.779471 
L 103.263632 120.779471 
L 103.710255 122.610722 
L 104.156878 120.990516 
L 104.38019 123.416299 
L 104.603502 122.610722 
L 104.826813 122.812715 
L 105.050125 123.627344 
L 105.273437 120.990516 
L 105.496748 116.733483 
L 105.72006 121.796093 
L 105.943372 173.695124 
L 106.166683 173.906169 
L 106.389995 166.801263 
L 106.613307 169.236097 
L 106.836618 177.14658 
L 107.05993 172.678502 
L 107.283242 180.386992 
L 107.729865 178.766786 
L 107.953177 182.812774 
L 108.176488 180.386992 
L 108.3998 170.856303 
L 108.623112 170.856303 
L 108.846423 172.678502 
L 109.069735 162.746223 
L 109.293047 158.700234 
L 109.516358 159.91885 
L 109.73967 163.159261 
L 109.962981 158.902227 
L 110.186293 160.522433 
L 110.409605 163.97389 
L 110.856228 159.716856 
L 111.302851 164.990512 
L 111.526163 161.539055 
L 111.749475 155.459823 
L 112.196098 156.868983 
L 112.41941 159.505811 
L 112.642721 153.215534 
L 112.866033 154.030162 
L 113.089345 150.578706 
L 113.535968 156.464996 
L 113.75928 155.650368 
L 114.205903 155.650368 
L 114.429215 156.464996 
L 115.09915 147.537891 
L 115.545773 150.376712 
L 115.769085 151.191341 
L 116.215708 155.237329 
L 116.43902 154.431752 
L 116.885643 149.562084 
L 117.108954 145.516095 
L 117.332266 144.701467 
L 117.555578 146.321672 
L 117.778889 148.756507 
L 118.002201 144.701467 
L 118.225513 146.321672 
L 118.448824 142.064639 
L 118.672136 142.064639 
L 118.895448 142.879267 
L 119.118759 146.321672 
L 119.342071 160.32044 
L 119.565383 162.746223 
L 120.012006 159.505811 
L 120.681941 165.796089 
L 121.128564 171.471334 
L 121.351876 172.285963 
L 121.575188 170.656706 
L 121.798499 170.656706 
L 122.021811 172.285963 
L 122.245123 173.09154 
L 122.691746 176.331952 
L 122.915058 173.09154 
L 123.138369 173.09154 
L 123.361681 174.711746 
L 123.584992 171.269341 
L 123.808304 171.058296 
L 124.254927 167.817885 
L 124.478239 169.43809 
L 124.701551 169.43809 
L 124.924862 170.252719 
L 125.371486 176.129958 
L 125.594797 170.252719 
L 125.818109 171.872925 
L 126.041421 172.678502 
L 126.264732 169.43809 
L 126.488044 169.649135 
L 126.711356 173.906169 
L 126.934667 173.09154 
L 127.381291 170.656706 
L 127.604602 171.471334 
L 127.827914 171.471334 
L 128.051226 173.906169 
L 128.274537 169.43809 
L 128.497849 170.252719 
L 129.167784 158.287196 
L 129.391096 158.287196 
L 129.614407 163.560851 
L 129.837719 164.37548 
L 130.061031 164.37548 
L 130.284342 165.995685 
L 130.730965 163.560851 
L 131.4009 173.09154 
L 131.624212 173.906169 
L 131.847524 179.179824 
L 132.070835 195.000791 
L 132.294147 181.002023 
L 132.517459 186.073686 
L 132.74077 186.879263 
L 132.964082 190.119674 
L 133.410705 193.360086 
L 133.634017 196.811542 
L 133.857329 197.617119 
L 134.08064 195.79492 
L 134.303952 196.811542 
L 134.527264 189.917681 
L 135.197199 194.376708 
L 135.42051 190.330719 
L 135.643822 189.51609 
L 135.867134 187.693891 
L 136.090445 193.984169 
L 136.313757 190.532712 
L 136.537069 194.789746 
L 136.76038 195.604375 
L 136.983692 192.967547 
L 137.207004 193.773124 
L 137.430315 195.604375 
L 137.653627 195.604375 
L 137.876938 196.409952 
L 138.10025 194.587752 
L 138.323562 196.207958 
L 138.546873 194.587752 
L 138.770185 189.51609 
L 138.993497 191.136296 
L 139.216808 188.499468 
L 139.44012 188.710513 
L 139.663432 188.499468 
L 139.886743 191.950925 
L 140.110055 191.136296 
L 140.333367 191.136296 
L 140.556678 189.51609 
L 141.003302 189.51609 
L 141.226613 188.912507 
L 141.449925 185.470102 
L 141.673237 187.090308 
L 141.896548 187.895885 
L 142.11986 187.895885 
L 142.343172 193.16954 
L 142.566483 187.090308 
L 142.789795 187.090308 
L 143.013107 186.275679 
L 143.236418 189.727135 
L 143.45973 190.743757 
L 143.683042 185.470102 
L 143.906353 189.727135 
L 144.129665 186.275679 
L 144.352976 187.090308 
L 144.576288 185.470102 
L 145.022911 169.851129 
L 145.246223 169.0365 
L 145.916158 171.471334 
L 146.13947 169.851129 
L 146.362781 170.656706 
L 146.586093 165.38305 
L 147.032716 167.012307 
L 147.256028 167.012307 
L 147.47934 163.560851 
L 147.925963 163.560851 
L 148.149275 167.012307 
L 148.372586 167.012307 
L 148.595898 163.560851 
L 148.81921 168.834507 
L 149.042521 164.577473 
L 149.265833 171.471334 
L 149.489145 168.230923 
L 149.712456 167.416294 
L 149.935768 169.0365 
L 150.15908 169.0365 
L 150.382391 170.867751 
L 150.605703 168.230923 
L 150.829015 164.175883 
L 151.052326 164.175883 
L 151.275638 163.370306 
L 151.498949 164.175883 
L 151.722261 160.935472 
L 151.945573 164.588921 
L 152.168884 173.314033 
L 152.392196 231.2489 
L 152.615508 217.259184 
L 152.838819 223.549462 
L 153.062131 208.756566 
L 153.285443 206.723321 
L 153.508754 201.449666 
L 153.732066 192.130022 
L 153.955378 196.17601 
L 154.178689 198.007261 
L 154.402001 198.007261 
L 154.625313 201.449666 
L 155.071936 191.918977 
L 155.295248 191.918977 
L 155.518559 182.388288 
L 155.741871 179.549467 
L 155.965183 184.823122 
L 156.635118 191.505938 
L 156.858429 193.940773 
L 157.081741 193.126144 
L 157.305053 190.700361 
L 157.528364 195.159388 
L 157.751676 188.265527 
L 157.974987 185.839744 
L 158.198299 189.080156 
L 158.421611 189.080156 
L 158.644922 192.733605 
L 159.091546 179.549467 
L 159.314857 180.355044 
L 159.761481 186.443328 
L 159.984792 190.700361 
L 160.208104 192.320567 
L 160.431416 192.320567 
L 160.878039 189.885733 
L 161.101351 190.700361 
L 161.324662 189.885733 
L 161.547974 191.716983 
L 161.771286 192.320567 
L 161.994597 200.834634 
L 162.217909 203.260417 
L 162.441221 200.020005 
L 162.664532 200.020005 
L 162.887844 198.197806 
L 163.111156 197.594223 
L 163.334467 199.214428 
L 163.557779 198.3998 
L 163.781091 194.74635 
L 164.004402 195.762972 
L 164.227714 194.142766 
L 164.674337 207.124912 
L 164.897649 207.124912 
L 165.12096 206.310283 
L 165.344272 206.10829 
L 165.567584 195.560978 
L 165.790895 196.366556 
L 166.014207 194.544356 
L 166.237519 201.227173 
L 166.684142 199.606967 
L 166.907454 199.606967 
L 167.130765 198.80139 
L 167.354077 196.970139 
L 167.577389 198.80139 
L 167.8007 197.986761 
L 168.024012 196.366556 
L 168.693947 199.003383 
L 168.917259 196.366556 
L 169.363882 197.986761 
L 169.587194 197.986761 
L 169.810505 196.164562 
L 170.033817 199.606967 
L 170.257129 200.421596 
L 170.48044 196.366556 
L 170.703752 197.986761 
L 170.927064 193.729728 
L 171.373687 197.986761 
L 171.596998 197.986761 
L 171.82031 197.181184 
L 172.043622 197.986761 
L 172.266933 195.349934 
L 172.490245 194.544356 
L 172.713557 197.181184 
L 172.936868 195.560978 
L 173.16018 195.560978 
L 173.383492 192.320567 
L 173.606803 190.700361 
L 173.830115 192.320567 
L 174.053427 191.505938 
L 174.276738 192.320567 
L 174.50005 191.505938 
L 174.723362 188.869111 
L 174.946673 188.063534 
L 175.393297 178.119806 
L 175.616608 177.305178 
L 175.83992 177.305178 
L 176.063232 180.756634 
L 176.286543 179.136428 
L 176.509855 179.942005 
L 176.733167 179.942005 
L 176.956478 179.136428 
L 177.17979 180.756634 
L 177.403102 175.482978 
L 177.626413 182.37684 
L 177.849725 182.37684 
L 178.296348 180.756634 
L 178.51966 181.562211 
L 178.742971 175.06994 
L 179.189595 176.690146 
L 179.412906 185.002219 
L 179.85953 181.550763 
L 180.082841 182.365391 
L 180.529465 182.365391 
L 180.752776 181.550763 
L 180.976088 181.550763 
L 181.1994 187.428002 
L 181.422711 186.41138 
L 181.646023 187.226009 
L 181.869335 180.332147 
L 182.092646 183.572559 
L 182.53927 177.897313 
L 182.762581 178.711942 
L 182.985893 172.222067 
L 183.209205 177.293729 
L 183.432516 173.842273 
L 183.655828 176.479101 
L 184.102451 178.108358 
L 184.325763 173.036696 
L 184.549075 174.656902 
L 184.772386 179.930557 
L 184.995698 174.858895 
L 185.21901 173.036696 
L 185.442321 172.222067 
L 185.665633 172.222067 
L 185.888944 164.121039 
L 186.112256 164.121039 
L 186.558879 166.555873 
L 186.782191 165.741244 
L 187.228814 174.255311 
L 187.452126 172.433112 
L 187.675438 175.875517 
L 187.898749 176.690146 
L 188.122061 180.132551 
L 188.345373 176.690146 
L 188.568684 180.132551 
L 188.791996 180.132551 
L 189.015308 180.947179 
L 189.238619 180.745186 
L 189.685243 173.842273 
L 189.908554 172.222067 
L 190.131866 174.858895 
L 190.355178 173.842273 
L 190.578489 175.47153 
L 190.801801 180.332147 
L 191.025113 178.711942 
L 191.248424 184.378136 
L 191.471736 185.192764 
L 191.695048 183.572559 
L 191.918359 187.618547 
L 192.141671 179.10448 
L 192.364982 179.919109 
L 192.588294 176.678697 
L 193.258229 185.998342 
L 193.481541 181.952353 
L 193.704852 180.332147 
L 193.928164 176.678697 
L 194.151476 177.484275 
L 194.374787 177.484275 
L 194.598099 179.919109 
L 194.821411 183.965097 
L 195.044722 182.948475 
L 195.268034 182.948475 
L 195.491346 184.779726 
L 195.714657 192.479164 
L 196.161281 189.238753 
L 196.384592 184.378136 
L 196.607904 185.192764 
L 196.831216 187.416554 
L 197.054527 182.344892 
L 197.277839 181.539315 
L 197.501151 182.344892 
L 197.724462 182.344892 
L 197.947774 181.539315 
L 198.171086 183.15952 
L 198.394397 187.205509 
L 198.617709 195.517582 
L 198.841021 198.15441 
L 199.064332 196.109718 
L 199.287644 191.852684 
L 199.510955 195.295089 
L 199.734267 191.852684 
L 200.404202 212.736262 
L 200.850825 203.829656 
L 201.074137 205.449862 
L 201.297449 198.15441 
L 201.52076 194.913999 
L 201.744072 197.339782 
L 201.967384 193.293793 
L 202.190695 194.09937 
L 202.414007 193.293793 
L 202.637319 191.673587 
L 202.86063 182.75793 
L 203.307254 196.947243 
L 203.530565 198.769442 
L 203.753877 209.11476 
L 203.977189 204.857726 
L 204.423812 204.857726 
L 204.647124 203.23752 
L 204.870435 200.802686 
L 205.093747 204.043098 
L 205.54037 206.477932 
L 205.763682 203.026475 
L 205.986993 205.663303 
L 206.210305 204.857726 
L 206.433617 197.75282 
L 206.656928 197.75282 
L 206.88024 196.132614 
L 207.103552 201.40627 
L 207.326863 204.043098 
L 207.773487 196.132614 
L 207.996798 203.630059 
L 208.22011 202.220898 
L 208.443422 197.963865 
L 208.666733 202.220898 
L 208.890045 200.389648 
L 209.113357 200.389648 
L 209.336668 202.009853 
L 209.55998 198.567449 
L 209.783292 197.75282 
L 210.006603 190.46642 
L 210.229915 187.428002 
L 210.453227 192.288619 
L 210.676538 199.997109 
L 211.123162 193.103248 
L 211.346473 189.651791 
L 211.569785 194.925447 
L 211.793097 193.103248 
L 212.016408 198.376903 
L 212.23972 195.136492 
L 212.463032 217.85132 
L 212.686343 229.002214 
L 212.909655 228.187586 
L 213.132966 224.141597 
L 213.356278 223.326969 
L 213.57959 225.761803 
L 213.802901 223.124975 
L 214.026213 223.930552 
L 214.249525 220.690141 
L 214.472836 223.326969 
L 214.91946 221.50477 
L 215.142771 218.867942 
L 215.366083 222.310347 
L 215.589395 223.124975 
L 215.812706 226.56738 
L 216.036018 225.761803 
L 216.482641 217.036691 
L 216.929265 219.673519 
L 217.152576 217.247736 
L 217.5992 225.761803 
L 217.822511 222.91393 
L 218.045823 227.170964 
L 218.269135 227.382009 
L 218.492446 229.002214 
L 218.715758 228.187586 
L 218.93907 228.187586 
L 219.162381 226.56738 
L 219.385693 226.56738 
L 219.609005 225.761803 
L 219.832316 222.108353 
L 220.055628 227.382009 
L 220.278939 227.382009 
L 220.502251 229.002214 
L 220.725563 219.471525 
L 221.395498 211.763036 
L 221.618809 218.053313 
L 221.842121 211.370497 
L 222.288744 218.656897 
L 222.512056 222.711937 
L 222.735368 222.711937 
L 222.958679 221.091731 
L 223.181991 217.438281 
L 223.405303 216.623653 
L 223.628614 223.31552 
L 223.851926 225.952348 
L 224.075238 224.935726 
L 224.298549 227.572554 
L 224.521861 225.952348 
L 224.745173 229.998337 
L 224.968484 225.952348 
L 225.191796 228.378131 
L 225.415108 229.394753 
L 225.638419 232.242626 
L 225.861731 231.427997 
L 226.085043 236.288614 
L 226.308354 237.706827 
L 226.531666 235.884627 
L 226.754977 236.488211 
L 226.978289 236.488211 
L 227.424912 231.618543 
L 227.648224 231.618543 
L 227.871536 234.053377 
L 228.318159 232.433171 
L 228.541471 232.433171 
L 228.764782 231.618543 
L 228.988094 223.517514 
L 229.211406 219.471525 
L 229.434717 218.053313 
L 229.658029 219.673519 
L 230.104652 229.002214 
L 230.551276 226.56738 
L 230.774587 222.91393 
L 230.997899 226.365387 
L 231.221211 226.154342 
L 231.444522 225.550758 
L 231.667834 220.488147 
L 232.114457 218.656897 
L 232.337769 222.108353 
L 232.561081 220.277103 
L 232.784392 223.728559 
L 233.007704 219.471525 
L 233.231016 217.85132 
L 233.454327 203.046975 
L 233.677639 203.852552 
L 233.90095 203.046975 
L 234.124262 200.612141 
L 234.347574 200.612141 
L 234.570885 203.046975 
L 234.794197 202.83593 
L 235.017509 198.376903 
L 235.687444 203.650559 
L 235.910755 201.215725 
L 236.357379 205.472758 
L 236.804002 200.410147 
L 237.027314 196.153114 
L 237.250625 199.806564 
L 237.473937 200.612141 
L 237.697249 207.506002 
L 237.92056 200.612141 
L 238.143872 200.612141 
L 238.367184 199.806564 
L 238.813807 201.426769 
L 239.26043 194.131318 
L 239.483742 194.131318 
L 239.707054 194.734902 
L 239.930365 193.929325 
L 240.376988 199.806564 
L 240.6003 197.371729 
L 240.823612 198.991935 
L 241.046923 196.355107 
L 241.270235 197.371729 
L 241.493547 194.936895 
L 241.716858 205.282213 
L 242.163482 199.404974 
L 242.610105 201.025179 
L 242.833417 201.025179 
L 243.056728 202.645385 
L 243.28004 213.79628 
L 243.503352 215.416485 
L 243.726663 212.990703 
L 243.949975 218.867942 
L 244.396598 212.990703 
L 244.61991 213.79628 
L 244.843222 205.080219 
L 245.066533 206.096841 
L 245.289845 201.227173 
L 245.513157 206.096841 
L 245.736468 196.5776 
L 245.95978 213.204144 
L 246.183092 207.930489 
L 246.406403 207.124912 
L 246.629715 207.326905 
L 247.076338 217.068639 
L 247.29965 216.25401 
L 247.522961 217.068639 
L 247.746273 221.325672 
L 247.969585 233.493189 
L 248.416208 224.768077 
L 248.63952 224.768077 
L 248.862831 225.582706 
L 249.086143 220.511044 
L 249.309455 222.13125 
L 249.532766 224.768077 
L 249.756078 224.768077 
L 249.97939 225.582706 
L 250.202701 229.839739 
L 250.426013 229.839739 
L 250.649325 226.388283 
L 250.872636 231.459945 
L 251.095948 232.265522 
L 251.31926 229.839739 
L 251.542571 228.823117 
L 251.765883 234.096773 
L 251.989195 229.025111 
L 252.212506 230.645317 
L 252.435818 229.839739 
L 252.882441 231.459945 
L 253.329065 229.839739 
L 253.552376 230.645317 
L 253.775688 226.388283 
L 253.998999 225.582706 
L 254.222311 223.9625 
L 254.668934 225.582706 
L 255.338869 219.494422 
L 255.562181 220.30905 
L 255.785493 221.929256 
L 256.008804 227.806495 
L 256.232116 223.549462 
L 256.455428 224.355039 
L 256.678739 227.806495 
L 256.902051 226.991867 
L 257.348674 221.929256 
L 257.795298 221.929256 
L 258.018609 228.823117 
L 258.241921 227.202912 
L 258.465233 227.202912 
L 258.911856 228.823117 
L 259.358479 231.661939 
L 259.581791 228.219534 
L 260.028414 231.459945 
L 260.251726 234.096773 
L 260.475038 232.265522 
L 260.698349 232.265522 
L 260.921661 233.080151 
L 261.144972 235.505934 
L 261.368284 234.700357 
L 261.591596 234.90235 
L 261.814907 232.265522 
L 262.038219 233.080151 
L 262.261531 232.265522 
L 262.484842 233.885728 
L 262.708154 233.885728 
L 262.931466 236.733601 
L 263.378089 227.817944 
L 263.601401 227.012366 
L 263.824712 229.438149 
L 264.048024 233.695183 
L 264.271336 232.889606 
L 264.494647 232.678561 
L 264.717959 234.509811 
L 264.941271 235.315388 
L 265.164582 239.783467 
L 265.387894 239.783467 
L 265.611206 240.589044 
L 265.834517 238.968838 
L 266.281141 244.644084 
L 266.504452 252.141529 
L 266.727764 247.884495 
L 266.951076 253.963728 
L 267.174387 256.398562 
L 267.397699 251.124907 
L 267.621011 249.504701 
L 267.844322 251.939535 
L 268.067634 251.124907 
L 268.514257 246.867873 
L 268.737569 255.583934 
L 268.96088 247.884495 
L 269.407504 263.09043 
L 269.630815 256.398562 
L 269.854127 256.600556 
L 270.30075 248.690073 
L 270.524062 253.158151 
L 270.747374 247.884495 
L 271.193997 254.576363 
L 271.417309 249.504701 
L 271.64062 250.310278 
L 271.863932 247.884495 
L 272.087244 247.884495 
L 272.310555 252.343522 
L 272.757179 245.449661 
L 272.98049 243.829455 
L 273.203802 244.644084 
L 273.427114 239.783467 
L 273.650425 241.403673 
L 273.873737 244.0405 
L 274.097049 239.783467 
L 274.32036 245.8627 
L 274.543672 245.8627 
L 274.766983 246.677328 
L 274.990295 249.314156 
L 275.213607 250.119733 
L 275.436918 248.499527 
L 275.66023 248.499527 
L 275.883542 247.69395 
L 276.106853 245.259116 
L 276.330165 246.879322 
L 276.553477 238.968838 
L 276.776788 239.98546 
L 277.0001 238.163261 
L 277.223412 239.179883 
L 277.670035 234.92285 
L 277.893347 236.543055 
L 278.116658 228.834566 
L 278.33997 227.21436 
L 278.563282 231.471393 
L 278.786593 228.230982 
L 279.009905 233.091599 
L 279.233217 229.438149 
L 279.456528 228.632572 
L 279.67984 231.872984 
L 279.903152 232.889606 
L 280.126463 239.783467 
L 280.349775 238.163261 
L 280.573087 238.163261 
L 280.796398 238.968838 
L 281.01971 227.817944 
L 281.243022 229.649194 
L 281.466333 222.957326 
L 281.689645 226.610776 
L 281.912956 227.21436 
L 282.136268 225.594154 
L 282.35958 227.425405 
L 282.582891 234.52126 
L 282.806203 231.280848 
L 283.029515 231.884432 
L 283.252826 233.302644 
L 283.476138 233.302644 
L 283.69945 232.488015 
L 283.922761 237.348633 
L 284.146073 234.92285 
L 284.369385 234.92285 
L 284.592696 236.543055 
L 285.03932 244.242494 
L 285.262631 241.816711 
L 285.485943 241.002082 
L 285.709255 241.816711 
L 285.932566 240.800089 
L 286.155878 241.605666 
L 286.37919 245.8627 
L 286.602501 243.225872 
L 286.825813 250.934362 
L 287.049125 249.314156 
L 287.272436 245.8627 
L 288.165683 242.622288 
L 288.388994 240.800089 
L 288.612306 243.436917 
L 288.835618 240.800089 
L 289.058929 245.259116 
L 289.282241 244.242494 
L 289.505553 244.242494 
L 289.952176 238.5763 
L 290.622111 244.655532 
L 290.845423 243.035326 
L 291.292046 243.035326 
L 291.738669 239.592922 
L 291.961981 240.609544 
L 292.185293 237.972716 
L 292.408604 237.158087 
L 292.631916 238.989338 
L 292.855228 136.083646 
L 293.078539 151.089985 
L 293.301851 149.469779 
L 293.525163 152.106607 
L 293.971786 146.630958 
L 294.195098 154.330396 
L 294.418409 141.77034 
L 294.641721 144.196123 
L 295.088344 131.826613 
L 295.311656 104.441713 
L 295.534967 96.53123 
L 295.758279 96.53123 
L 295.981591 89.637369 
L 296.204902 93.290819 
L 296.651526 82.945501 
L 296.874837 82.341917 
L 297.098149 91.670613 
L 297.321461 88.017163 
L 297.768084 96.12964 
L 297.991396 90.252401 
L 298.214707 96.12964 
L 298.438019 97.749846 
L 298.661331 93.290819 
L 298.884642 93.290819 
L 299.554577 81.53634 
L 299.777889 69.570817 
L 300.001201 79.503096 
L 300.447824 83.962123 
L 300.671136 85.380335 
L 300.894447 80.308673 
L 301.117759 86.396957 
L 301.341071 86.396957 
L 301.564382 102.006879 
L 302.011006 113.570812 
L 302.234317 115.191018 
L 302.457629 110.128407 
L 302.68094 110.128407 
L 302.904252 111.145029 
L 303.127564 117.827846 
L 303.350875 114.385441 
L 303.574187 113.570812 
L 303.797499 116.005646 
L 304.02081 111.537568 
L 304.244122 112.55419 
L 304.467434 109.111785 
L 304.690745 107.491579 
L 304.914057 98.766468 
L 305.137369 98.564474 
L 305.36068 101.403295 
L 305.583992 107.491579 
L 305.807304 108.297157 
L 306.253927 110.731991 
L 306.477239 107.280535 
L 306.70055 113.972402 
L 306.923862 113.157774 
L 307.147174 111.537568 
L 307.370485 111.537568 
L 307.593797 120.051635 
L 308.04042 111.748613 
L 308.487044 116.005646 
L 308.710355 116.811224 
L 308.933667 116.811224 
L 309.156978 117.625852 
L 309.38029 112.55419 
L 309.603602 115.191018 
L 309.826913 105.056745 
L 310.050225 108.297157 
L 310.496848 118.431429 
L 310.72016 116.60923 
L 310.943472 117.625852 
L 311.166783 115.794601 
L 311.390095 110.731991 
L 311.613407 111.537568 
L 311.836718 113.368819 
L 312.06003 109.917362 
L 312.283342 109.917362 
L 312.506653 114.989024 
L 312.729965 116.005646 
L 312.953277 114.174396 
L 313.176588 109.917362 
L 313.3999 113.570812 
L 313.623212 113.570812 
L 313.846523 110.541446 
L 314.069835 109.524824 
L 314.293147 103.647584 
L 314.516458 106.676951 
L 314.963082 105.056745 
L 315.186393 106.676951 
L 315.409705 101.61434 
L 315.633017 105.056745 
L 315.856328 105.871374 
L 316.07964 108.297157 
L 316.302951 104.040123 
L 316.526263 103.234546 
L 316.749575 101.61434 
L 316.972886 103.234546 
L 317.196198 108.297157 
L 317.41951 105.871374 
L 317.642821 106.676951 
L 317.866133 101.010757 
L 318.089445 105.056745 
L 318.312756 102.419917 
L 318.536068 105.871374 
L 318.75938 105.056745 
L 318.982691 105.871374 
L 319.206003 105.871374 
L 319.429315 106.676951 
L 319.652626 110.128407 
L 319.875938 117.435307 
L 320.09925 111.347023 
L 320.322561 110.330401 
L 320.545873 110.330401 
L 320.992496 112.161651 
L 321.215808 111.347023 
L 321.43912 111.145029 
L 321.662431 120.866264 
L 322.109055 125.726881 
L 322.555678 122.486469 
L 322.778989 123.292046 
L 323.225613 114.989024 
L 323.448924 121.671841 
L 323.672236 123.292046 
L 324.118859 120.051635 
L 324.565483 120.051635 
L 324.788794 125.536335 
L 325.012106 126.341913 
L 325.235418 125.536335 
L 325.458729 121.882886 
L 325.682041 122.084879 
L 325.905353 127.962118 
L 326.128664 130.396953 
L 326.351976 137.279366 
L 326.575288 135.25757 
L 326.798599 130.185908 
L 327.021911 140.118187 
L 327.245223 139.101565 
L 327.691846 130.587498 
L 328.138469 137.279366 
L 328.361781 136.464737 
L 328.585093 136.464737 
L 328.808404 145.380394 
L 329.031716 144.565766 
L 329.255028 142.94556 
L 329.478339 143.760188 
L 329.701651 137.882949 
L 329.924962 136.866327 
L 330.148274 140.106739 
L 330.371586 137.671904 
L 330.594897 136.866327 
L 331.041521 129.570876 
L 331.264832 131.402126 
L 331.488144 130.385504 
L 331.711456 130.587498 
L 331.934767 129.781921 
L 332.158079 130.587498 
L 332.604702 124.106675 
L 332.828014 123.292046 
L 333.051326 124.912252 
L 333.497949 118.431429 
L 333.944572 124.912252 
L 334.391196 123.292046 
L 334.614507 120.051635 
L 334.837819 120.866264 
L 335.061131 120.866264 
L 335.284442 116.398185 
L 335.507754 124.912252 
L 335.731066 122.486469 
L 335.954377 126.532458 
L 336.177689 123.292046 
L 336.401001 122.486469 
L 336.624312 123.292046 
L 336.847624 121.671841 
L 337.070935 122.688463 
L 337.294247 124.519713 
L 337.517559 127.962118 
L 337.74087 127.156541 
L 337.964182 127.962118 
L 338.187494 124.519713 
L 338.410805 125.536335 
L 338.634117 131.413575 
L 338.857429 132.017158 
L 339.304052 129.582324 
L 339.527364 132.822735 
L 339.750675 128.173163 
L 340.197299 85.446628 
L 340.42061 82.8098 
L 340.643922 96.597522 
L 341.090545 83.21139 
L 341.313857 81.591184 
L 341.537169 83.21139 
L 341.76048 81.591184 
L 341.983792 75.5029 
L 342.207104 73.680701 
L 342.430415 75.300907 
L 342.653727 84.016967 
L 342.877039 83.814974 
L 343.10035 79.346895 
L 343.323662 81.78173 
L 343.546973 97.391651 
L 343.770285 100.239524 
L 343.993597 100.239524 
L 344.216908 101.045101 
L 344.44022 95.358407 
L 344.663532 106.910892 
L 345.110155 102.653859 
L 345.333467 102.653859 
L 345.556778 101.033653 
L 346.003402 107.725521 
L 346.226713 105.088693 
L 346.450025 107.514476 
L 346.673337 111.771509 
L 346.896648 108.531098 
L 347.11996 109.345726 
L 347.343272 109.345726 
L 347.566583 110.754887 
L 347.789895 115.615504 
L 348.013207 115.615504 
L 348.45983 113.391715 
L 348.683142 114.206344 
L 348.906453 113.391715 
L 349.129765 109.134682 
L 349.353077 113.189722 
L 349.576388 113.189722 
L 349.7997 115.826549 
L 350.023012 115.011921 
L 350.246323 110.965932 
L 350.469635 109.134682 
L 350.692946 114.206344 
L 350.916258 110.965932 
L 351.13957 111.771509 
L 351.586193 110.151304 
L 351.809505 110.965932 
L 352.032816 110.965932 
L 352.256128 111.982554 
L 352.47944 111.167926 
L 352.702751 114.619382 
L 352.926063 114.408337 
L 353.149375 118.463377 
L 353.372686 117.648749 
L 353.595998 139.557999 
L 353.81931 136.317588 
L 354.042621 135.502959 
L 354.265933 138.139787 
L 354.489245 146.05027 
L 354.935868 144.228071 
L 355.15918 152.138554 
L 355.382491 151.323926 
L 355.605803 157.41221 
L 355.829115 157.41221 
L 356.052426 158.217787 
L 356.275738 158.217787 
L 356.722361 154.171799 
L 356.945673 157.41221 
L 357.168984 158.217787 
L 357.392296 160.049038 
L 357.615608 155.792004 
L 357.838919 153.960754 
L 358.062231 157.41221 
L 358.285543 155.792004 
L 358.508854 155.792004 
L 358.732166 154.171799 
L 359.178789 142.41732 
L 359.625413 147.690976 
L 359.848724 139.982486 
L 360.072036 141.602692 
L 360.295348 145.859725 
L 360.518659 146.876347 
L 360.741971 148.496553 
L 360.965283 146.876347 
L 361.188594 146.07077 
L 361.411906 146.876347 
L 361.635218 145.256141 
L 361.858529 140.184479 
L 362.081841 139.167857 
L 362.305153 141.804685 
L 362.528464 141.804685 
L 362.751776 146.876347 
L 362.975088 143.433942 
L 363.198399 144.441513 
L 363.421711 139.378902 
L 363.645023 139.982486 
L 363.868334 146.07077 
L 364.091646 145.256141 
L 364.314957 146.876347 
L 364.538269 146.876347 
L 364.761581 144.239519 
L 364.984892 143.433942 
L 365.208204 141.804685 
L 365.431516 144.441513 
L 365.878139 158.015794 
L 366.101451 157.41221 
L 366.324762 155.792004 
L 366.548074 151.546419 
L 366.771386 137.568151 
L 366.994697 145.871173 
L 367.218009 138.584773 
L 367.441321 139.993934 
L 367.664632 128.641046 
L 367.887944 129.24463 
L 368.111256 131.066829 
L 368.334567 128.430001 
L 368.557879 122.350768 
L 369.004502 129.033585 
L 369.227814 126.607802 
L 369.451126 127.624424 
L 369.674437 130.261252 
L 369.897749 128.430001 
L 370.121061 124.172967 
L 370.344372 127.02084 
L 370.790995 124.384012 
L 371.014307 128.641046 
L 371.237619 125.18959 
L 371.46093 107.367327 
L 371.907554 126.809795 
L 372.130865 127.624424 
L 372.354177 121.949178 
L 372.577489 127.02084 
L 372.8008 126.809795 
L 373.024112 127.826417 
L 373.247424 127.02084 
L 373.470735 127.826417 
L 373.694047 127.826417 
L 373.917359 124.586006 
L 374.14067 127.02084 
L 374.363982 125.400634 
L 374.587294 126.206212 
L 374.810605 128.641046 
L 375.033917 132.687034 
L 375.257229 133.501663 
L 375.48054 130.261252 
L 375.703852 132.687034 
L 375.927164 137.547652 
L 376.150475 134.30724 
L 376.373787 134.30724 
L 376.597099 131.670412 
L 376.82041 138.564274 
L 377.043722 135.927446 
L 377.267034 135.121869 
L 377.490345 131.066829 
L 377.713657 136.340484 
L 377.936968 137.155113 
L 378.16028 133.100073 
L 378.606903 136.340484 
L 378.830215 142.428768 
L 379.053527 142.630762 
L 379.276838 137.568151 
L 379.50015 137.357106 
L 379.723462 136.551529 
L 379.946773 138.373728 
L 380.170085 139.188357 
L 380.393397 139.188357 
L 380.616708 138.373728 
L 380.84002 141.61414 
L 381.286643 136.753523 
L 381.509955 138.373728 
L 381.733267 147.09884 
L 381.956578 146.284212 
L 382.403202 151.557867 
L 382.626513 153.389118 
L 382.849825 152.574489 
L 383.073137 155.009324 
L 383.51976 163.936429 
L 383.743072 163.936429 
L 383.966383 156.438984 
L 384.189695 156.640978 
L 384.413007 156.438984 
L 384.636318 153.802156 
L 384.85963 163.1218 
L 385.306253 158.864767 
L 385.529565 161.299601 
L 385.752876 165.758628 
L 385.976188 159.679395 
L 386.1995 162.316223 
L 386.422811 161.71264 
L 386.646123 172.863534 
L 386.869435 169.210084 
L 387.092746 189.288085 
L 387.316058 186.85325 
L 387.53937 178.550228 
L 387.762681 182.807262 
L 387.985993 181.79064 
L 388.209305 175.702356 
L 388.655928 173.880156 
L 389.102551 155.624355 
L 389.325863 155.624355 
L 389.549175 157.6576 
L 389.772486 146.919743 
L 389.995798 153.813604 
L 390.21911 152.796982 
L 390.442421 149.143533 
L 390.889045 161.311049 
L 391.112356 163.133249 
L 391.335668 177.946645 
L 391.782291 161.513043 
L 392.228914 163.133249 
L 392.452226 162.729262 
L 392.675538 162.729262 
L 392.898849 168.808494 
L 393.122161 162.931255 
L 393.345473 172.672989 
L 393.568784 175.098772 
L 393.792096 179.56685 
L 394.015408 179.56685 
L 394.238719 180.976011 
L 394.462031 185.233045 
L 394.685343 185.233045 
L 394.908654 181.79064 
L 395.131966 187.869872 
L 395.355278 190.90829 
L 395.578589 191.511874 
L 395.801901 196.574485 
L 396.025213 210.763797 
L 396.248524 207.523386 
L 396.471836 200.629525 
L 396.695148 201.444153 
L 396.918459 190.284207 
L 397.588394 196.574485 
L 397.811706 200.227934 
L 398.035018 201.84814 
L 398.258329 201.042563 
L 398.704952 196.181946 
L 398.928264 203.075807 
L 399.151576 200.227934 
L 399.374887 203.679391 
L 399.598199 202.059185 
L 399.821511 190.697245 
L 400.044822 187.25484 
L 400.268134 194.148702 
L 400.714757 190.90829 
L 400.938069 195.970901 
L 401.161381 194.350695 
L 401.384692 189.288085 
L 401.608004 191.713867 
L 401.831316 195.970901 
L 402.054627 194.148702 
L 402.277939 196.785529 
L 402.501251 195.768907 
L 402.724562 192.528496 
L 402.947874 197.802152 
L 403.171186 196.987523 
L 403.394497 195.165324 
L 403.617809 186.85325 
L 403.841121 184.216423 
L 404.064432 177.322561 
L 404.287744 178.942767 
L 404.511056 175.289317 
L 404.734367 173.467118 
L 404.957679 169.210084 
L 405.18099 173.467118 
L 405.404302 175.289317 
L 405.850925 175.289317 
L 406.297549 170.015662 
L 406.52086 169.210084 
L 406.744172 169.210084 
L 406.967484 166.77525 
L 407.414107 164.953051 
L 407.637419 164.953051 
L 408.307354 174.070702 
L 408.530665 170.619245 
L 408.753977 177.513107 
L 409.2006 174.070702 
L 409.647224 165.949173 
L 409.870535 174.674285 
L 410.093847 163.523391 
L 410.317159 165.143596 
L 410.54047 171.433874 
L 410.987094 165.34559 
L 411.433717 168.586001 
L 411.657029 172.239451 
L 411.88034 159.055312 
L 412.103652 160.886563 
L 412.326963 158.249735 
L 412.550275 154.194695 
L 412.773587 161.088556 
L 412.996898 155.009324 
L 413.22021 158.662773 
L 413.443522 155.211317 
L 413.666833 157.848145 
L 413.890145 158.662773 
L 414.113457 157.042568 
L 414.56008 158.662773 
L 414.783392 152.987528 
L 415.230015 149.747116 
L 415.453327 150.561745 
L 415.676638 147.110288 
L 415.89995 146.506705 
L 416.123262 143.266293 
L 416.346573 144.886499 
L 416.569885 143.667884 
L 416.793197 131.70236 
L 417.016508 134.339188 
L 417.463132 142.038626 
L 417.686443 140.418421 
L 417.909755 139.612844 
L 418.133067 137.992638 
L 418.356378 139.612844 
L 418.57969 144.071871 
L 418.803002 139.612844 
L 419.026313 138.798215 
L 419.249625 140.418421 
L 419.472936 147.312282 
L 419.696248 143.055248 
L 419.91956 141.435043 
L 420.142871 141.233049 
L 420.366183 142.038626 
L 420.589495 141.233049 
L 420.812806 139.401799 
L 421.036118 148.126911 
L 421.25943 144.473461 
L 421.482741 146.093666 
L 421.706053 145.288089 
L 421.929365 142.651262 
L 422.152676 142.651262 
L 422.375988 146.69725 
L 422.5993 145.077044 
L 422.822611 146.908295 
L 423.045923 141.836633 
L 423.269235 141.836633 
L 423.492546 140.216427 
L 423.715858 141.031056 
L 423.93917 131.289322 
L 424.162481 132.507937 
L 424.609105 123.99387 
L 424.832416 122.58471 
L 425.055728 123.390287 
L 425.27904 125.221537 
L 425.502351 120.36092 
L 425.725663 123.601332 
L 426.172286 119.133253 
L 426.395598 125.221537 
L 426.618909 125.010493 
L 426.842221 126.027115 
L 427.065533 125.221537 
L 427.288844 127.64732 
L 427.512156 126.841743 
L 427.735468 133.132021 
L 427.958779 133.937598 
L 428.182091 138.596222 
L 428.405403 135.35581 
L 428.628714 137.178009 
L 428.852026 134.541182 
L 429.298649 136.372432 
L 429.521961 136.372432 
L 429.745273 132.920976 
L 429.968584 133.735604 
L 430.191896 128.461949 
L 430.415208 128.461949 
L 430.638519 127.858365 
L 430.861831 131.098777 
L 431.085143 126.841743 
L 431.531766 139.211253 
L 431.755078 136.574426 
L 431.978389 137.389054 
L 432.201701 132.920976 
L 432.425013 132.115399 
L 432.648324 139.211253 
L 433.094947 134.752226 
L 433.318259 133.937598 
L 433.541571 134.752226 
L 433.764882 134.752226 
L 433.988194 107.982359 
L 434.211506 116.30588 
L 434.434817 114.685675 
L 434.658129 114.685675 
L 434.881441 105.981062 
L 435.104752 106.584646 
L 435.328064 109.010429 
L 435.774687 98.674163 
L 435.997999 100.294368 
L 436.221311 104.551402 
L 436.444622 105.356979 
L 436.667934 104.349408 
L 436.891246 102.720151 
L 437.114557 101.914574 
L 437.337869 95.020713 
L 437.561181 97.446496 
L 437.784492 98.261124 
L 438.007804 97.446496 
L 438.231116 95.020713 
L 438.454427 94.206084 
L 438.677739 95.82629 
L 438.901051 98.674163 
L 439.570985 73.948987 
L 439.794297 88.53989 
L 440.017609 86.919684 
L 440.24092 89.345467 
L 440.464232 94.619123 
L 440.687544 88.53989 
L 440.910855 91.982295 
L 441.134167 92.998917 
L 441.357479 90.362089 
L 441.58079 97.25595 
L 441.804102 96.450373 
L 442.027414 94.830168 
L 442.250725 98.483617 
L 442.474037 93.411955 
L 442.92066 92.002795 
L 443.143972 95.243206 
L 443.367284 92.002795 
L 443.590595 90.382589 
L 443.813907 86.327549 
L 444.037219 85.723965 
L 444.26053 81.053893 
L 444.483842 78.830104 
L 444.707154 69.501408 
L 444.930465 68.695831 
L 445.377089 86.740587 
L 445.6004 90.182992 
L 445.823712 88.360793 
L 446.047024 94.238032 
L 446.270335 92.617826 
L 446.493647 97.076853 
L 446.716958 96.060231 
L 446.94027 95.858238 
L 447.163582 108.629338 
L 447.386893 108.427345 
L 447.610205 120.796855 
L 447.833517 115.5232 
L 448.056828 113.902994 
L 448.28014 117.35445 
L 448.503452 118.371072 
L 448.726763 112.282788 
L 448.950075 113.29941 
L 449.173387 118.160027 
L 449.396698 114.717622 
L 449.62001 118.974656 
L 449.843322 130.931128 
L 450.066633 128.2943 
L 450.289945 129.108929 
L 450.513257 128.2943 
L 450.95988 125.053889 
L 451.183192 128.2943 
L 451.406503 126.472101 
L 451.629815 122.215067 
L 451.853127 122.417061 
L 452.076438 123.433683 
L 452.29975 126.674094 
L 452.523062 126.674094 
L 452.746373 127.488723 
L 452.969685 127.488723 
L 453.192996 127.690716 
L 453.862931 121.400439 
L 454.086243 125.455479 
L 454.309555 122.818651 
L 454.532866 123.835273 
L 454.97949 115.321206 
L 455.202801 113.489955 
L 455.426113 116.941412 
L 455.649425 117.958034 
L 455.872736 117.958034 
L 456.31936 108.427345 
L 456.542671 107.009133 
L 456.765983 107.823761 
L 456.989295 105.186933 
L 457.212606 108.427345 
L 457.435918 105.186933 
L 457.882541 111.477211 
L 458.105853 109.857005 
L 458.329165 111.477211 
L 458.552476 115.321206 
L 458.775788 117.143405 
L 458.9991 111.064173 
L 459.222411 110.249544 
L 459.445723 112.080795 
L 459.669035 111.477211 
L 459.892346 95.858238 
L 460.115658 101.746925 
L 460.338969 100.12672 
L 460.785593 106.607542 
L 461.008904 100.52831 
L 461.455528 109.443967 
L 461.678839 107.823761 
L 461.902151 115.110161 
L 462.125463 116.528373 
L 462.348774 121.992574 
L 462.572086 117.533547 
L 462.795398 108.808435 
L 463.018709 109.010429 
L 463.242021 115.702297 
L 463.465333 116.718919 
L 463.688644 115.098713 
L 463.911956 116.718919 
L 464.135268 115.098713 
L 464.358579 111.043673 
L 464.805203 115.90429 
L 465.028514 110.630635 
L 465.251826 112.461885 
L 465.475138 113.267462 
L 465.921761 110.027051 
L 466.145073 110.841679 
L 466.368384 115.90429 
L 466.815008 109.825057 
L 467.038319 116.516925 
L 467.261631 109.010429 
L 467.484942 110.630635 
L 467.708254 116.718919 
L 467.931566 111.445263 
L 468.154877 110.630635 
L 468.378189 110.630635 
L 468.601501 108.204852 
L 468.824812 110.841679 
L 469.271436 109.010429 
L 469.494747 109.825057 
L 469.718059 115.90429 
L 469.941371 108.204852 
L 470.164682 109.010429 
L 470.387994 108.204852 
L 470.611306 114.284084 
L 470.834617 111.647257 
L 471.057929 110.841679 
L 471.281241 107.803262 
L 471.504552 110.440089 
L 471.727864 119.768785 
L 471.951176 112.663879 
L 472.174487 118.541118 
L 472.397799 118.339124 
L 472.621111 114.896719 
L 473.291046 121.579536 
L 473.514357 119.95933 
L 473.737669 119.95933 
L 473.96098 115.90429 
L 474.407604 119.355746 
L 474.630915 118.541118 
L 475.077539 120.170375 
L 475.524162 131.32127 
L 475.747474 133.354514 
L 476.194097 124.629402 
L 476.417409 125.444031 
L 476.64072 128.080858 
L 476.864032 125.444031 
L 477.087344 129.903058 
L 477.310655 128.080858 
L 477.533967 128.886435 
L 477.757279 130.717686 
L 477.98059 134.97472 
L 478.203902 145.522031 
L 478.427214 150.203551 
L 478.650525 148.3723 
L 478.873837 150.405544 
L 479.097149 150.203551 
L 479.32046 149.186929 
L 479.543772 148.77389 
L 479.990395 140.048778 
L 480.437019 158.304579 
L 480.66033 154.249539 
L 480.883642 152.42734 
L 481.106953 152.42734 
L 481.330265 151.612712 
L 481.553577 147.959262 
L 481.776888 149.579467 
L 482.0002 152.014302 
L 482.223512 150.394096 
L 482.446823 150.99768 
L 482.670135 148.562845 
L 483.116758 160.730362 
L 483.34007 153.836501 
L 483.563382 159.924785 
L 483.786693 157.287957 
L 484.010005 157.489951 
L 484.233317 156.473329 
L 484.456628 171.277673 
L 484.67994 177.365957 
L 485.349875 209.007891 
L 485.573187 208.193262 
L 485.796498 210.628096 
L 486.01981 204.548864 
L 486.243122 210.628096 
L 486.466433 205.767479 
L 486.689745 207.387685 
L 487.136368 218.136989 
L 487.35968 213.879956 
L 487.582991 217.733002 
L 487.806303 216.906926 
L 488.029615 211.029686 
L 488.252926 211.835264 
L 488.476238 207.376237 
L 488.69955 210.013064 
L 488.922861 214.270098 
L 489.146173 215.890304 
L 489.369485 210.818642 
L 489.592796 209.198436 
L 489.816108 212.649892 
L 490.03942 208.181814 
L 490.262731 200.482375 
L 490.486043 204.739409 
L 490.709355 198.651125 
L 491.155978 194.394091 
L 491.37929 194.394091 
L 491.602601 203.722787 
L 491.825913 189.522026 
L 492.049225 187.690775 
L 492.272536 179.176708 
L 492.71916 173.903053 
L 492.942471 174.114098 
L 493.165783 174.919675 
L 493.389095 168.236859 
L 493.612406 175.13072 
L 494.282341 161.342997 
L 494.505653 169.253481 
L 494.728964 170.059058 
L 494.952276 164.785402 
L 495.398899 175.332713 
L 495.622211 173.712508 
L 495.845523 182.024581 
L 496.068834 180.594921 
L 496.292146 187.690775 
L 496.515458 190.12561 
L 496.738769 190.12561 
L 497.185393 203.702287 
L 497.408704 198.428632 
L 497.632016 196.808426 
L 497.855328 193.366021 
L 498.078639 213.634566 
L 498.301951 207.757327 
L 498.525263 212.225406 
L 498.748574 207.757327 
L 498.971886 208.773949 
L 499.195198 206.339115 
L 499.418509 205.533538 
L 499.641821 207.153744 
L 499.865133 206.339115 
L 500.088444 202.293126 
L 500.311756 205.735531 
L 500.535068 205.735531 
L 500.758379 204.929954 
L 500.981691 204.718909 
L 501.205003 204.718909 
L 501.428314 203.098704 
L 501.651626 214.460643 
L 502.098249 211.823815 
L 502.321561 203.098704 
L 502.544872 205.533538 
L 502.991496 201.478498 
L 503.214807 195.812304 
L 503.438119 200.874914 
L 503.661431 203.098704 
L 503.884742 207.153744 
L 504.108054 204.314922 
L 504.331366 210.394155 
L 504.777989 201.880088 
L 505.224612 200.461876 
L 505.447924 201.065459 
L 505.894547 199.445254 
L 506.117859 203.913332 
L 506.341171 204.718909 
L 506.564482 197.825048 
L 506.787794 203.913332 
L 507.457729 194.171598 
L 507.681041 194.382643 
L 507.904352 190.327603 
L 508.127664 182.215126 
L 508.574287 194.382643 
L 508.797599 183.020703 
L 509.02091 197.41201 
L 509.244222 199.041267 
L 509.467534 196.193394 
L 509.690845 190.919739 
L 509.914157 176.115394 
L 510.137469 180.372427 
L 510.36078 208.762501 
L 510.584092 207.142295 
L 510.807404 207.142295 
L 511.030715 208.762501 
L 511.254027 204.505468 
L 511.477339 204.505468 
L 511.70065 210.382707 
L 511.923962 221.94664 
L 512.147274 205.52209 
L 512.370585 220.103941 
L 512.593897 248.907053 
L 512.817209 247.075802 
L 513.04052 201.444153 
L 513.263832 201.444153 
L 513.487144 209.545182 
L 513.710455 234.896837 
L 513.933767 233.276632 
L 514.157079 243.823943 
L 514.38039 241.992692 
L 514.603702 243.009314 
L 514.827014 248.28297 
L 515.050325 249.097598 
L 515.273637 261.05407 
L 515.496948 261.868699 
L 515.72026 261.868699 
L 516.166883 259.433864 
L 516.390195 271.812426 
L 516.613507 273.432632 
L 516.836818 322.717731 
L 517.06013 309.533592 
L 517.283442 200.808622 
L 517.506753 308.51697 
L 517.730065 305.276559 
L 517.953377 241.611602 
L 518.176688 258.841729 
L 518.4 250.527259 
L 518.4 250.527259 
" style="fill:none;stroke:#4c72b0;stroke-linecap:round;stroke-width:1.75;"/>
   </g>
   <g id="patch_3">
    <path d="M 72 356.4 
L 518.4 356.4 
" style="fill:none;"/>
   </g>
   <g id="patch_4">
    <path d="M 72 39.6 
L 518.4 39.6 
" style="fill:none;"/>
   </g>
   <g id="patch_5">
    <path d="M 72 356.4 
L 72 39.6 
" style="fill:none;"/>
   </g>
   <g id="patch_6">
    <path d="M 518.4 356.4 
L 518.4 39.6 
" style="fill:none;"/>
   </g>
   <g id="text_14">
    <!-- SR - 291.3161992121061 * TF -->
    <defs>
     <path d="M 9.125 0 
L 9.125 10.6875 
L 18.65625 10.6875 
L 18.65625 0 
z
" id="LiberationSans-2e"/>
     <path d="M 62.109375 19 
Q 62.109375 14.65625 60.421875 10.984375 
Q 58.734375 7.328125 55.21875 4.65625 
Q 51.703125 2 46.359375 0.5 
Q 41.015625 -0.984375 33.6875 -0.984375 
Q 20.84375 -0.984375 13.671875 3.515625 
Q 6.5 8.015625 4.546875 16.5 
L 13.578125 18.3125 
Q 14.265625 15.625 15.671875 13.421875 
Q 17.09375 11.234375 19.5 9.640625 
Q 21.921875 8.0625 25.484375 7.171875 
Q 29.046875 6.296875 34.03125 6.296875 
Q 38.1875 6.296875 41.65625 7 
Q 45.125 7.71875 47.609375 9.171875 
Q 50.09375 10.640625 51.484375 12.953125 
Q 52.875 15.28125 52.875 18.5 
Q 52.875 21.875 51.34375 23.96875 
Q 49.8125 26.078125 47.015625 27.4375 
Q 44.234375 28.8125 40.375 29.734375 
Q 36.53125 30.671875 31.84375 31.734375 
Q 28.953125 32.375 26.046875 33.125 
Q 23.140625 33.890625 20.484375 34.9375 
Q 17.828125 35.984375 15.484375 37.390625 
Q 13.140625 38.8125 11.421875 40.796875 
Q 9.71875 42.78125 8.734375 45.390625 
Q 7.765625 48 7.765625 51.421875 
Q 7.765625 56.296875 9.734375 59.78125 
Q 11.71875 63.28125 15.234375 65.53125 
Q 18.75 67.78125 23.53125 68.796875 
Q 28.328125 69.828125 33.890625 69.828125 
Q 40.28125 69.828125 44.8125 68.828125 
Q 49.359375 67.828125 52.484375 65.8125 
Q 55.609375 63.8125 57.484375 60.859375 
Q 59.375 57.90625 60.5 54 
L 51.3125 52.390625 
Q 50.640625 54.890625 49.34375 56.84375 
Q 48.046875 58.796875 45.9375 60.109375 
Q 43.84375 61.421875 40.84375 62.109375 
Q 37.84375 62.796875 33.796875 62.796875 
Q 29 62.796875 25.75 61.9375 
Q 22.515625 61.078125 20.53125 59.609375 
Q 18.5625 58.15625 17.703125 56.171875 
Q 16.84375 54.203125 16.84375 51.90625 
Q 16.84375 48.828125 18.375 46.84375 
Q 19.921875 44.875 22.5625 43.546875 
Q 25.203125 42.234375 28.65625 41.359375 
Q 32.125 40.484375 36.03125 39.59375 
Q 39.203125 38.875 42.359375 38.109375 
Q 45.515625 37.359375 48.390625 36.296875 
Q 51.265625 35.25 53.78125 33.828125 
Q 56.296875 32.421875 58.15625 30.375 
Q 60.015625 28.328125 61.0625 25.53125 
Q 62.109375 22.75 62.109375 19 
" id="LiberationSans-53"/>
     <path d="M 56.84375 0 
L 38.96875 28.5625 
L 17.53125 28.5625 
L 17.53125 0 
L 8.203125 0 
L 8.203125 68.796875 
L 40.578125 68.796875 
Q 46.4375 68.796875 50.953125 67.453125 
Q 55.46875 66.109375 58.546875 63.5625 
Q 61.625 61.03125 63.234375 57.375 
Q 64.84375 53.71875 64.84375 49.125 
Q 64.84375 45.84375 63.890625 42.671875 
Q 62.9375 39.5 60.890625 36.859375 
Q 58.84375 34.234375 55.65625 32.328125 
Q 52.484375 30.421875 48.046875 29.640625 
L 67.578125 0 
z
M 55.46875 49.03125 
Q 55.46875 52.15625 54.390625 54.4375 
Q 53.328125 56.734375 51.265625 58.265625 
Q 49.21875 59.8125 46.28125 60.5625 
Q 43.359375 61.328125 39.65625 61.328125 
L 17.53125 61.328125 
L 17.53125 35.9375 
L 40.046875 35.9375 
Q 44.046875 35.9375 46.96875 36.9375 
Q 49.90625 37.9375 51.78125 39.6875 
Q 53.65625 41.453125 54.5625 43.84375 
Q 55.46875 46.234375 55.46875 49.03125 
" id="LiberationSans-52"/>
     <path d="M 17.53125 61.1875 
L 17.53125 35.59375 
L 55.90625 35.59375 
L 55.90625 27.875 
L 17.53125 27.875 
L 17.53125 0 
L 8.203125 0 
L 8.203125 68.796875 
L 57.078125 68.796875 
L 57.078125 61.1875 
z
" id="LiberationSans-46"/>
     <path d="M 35.15625 61.1875 
L 35.15625 0 
L 25.875 0 
L 25.875 61.1875 
L 2.25 61.1875 
L 2.25 68.796875 
L 58.796875 68.796875 
L 58.796875 61.1875 
z
" id="LiberationSans-54"/>
     <path d="M 22.265625 54.390625 
L 35.15625 59.421875 
L 37.359375 52.984375 
L 23.578125 49.421875 
L 32.625 37.203125 
L 26.8125 33.6875 
L 19.484375 46.296875 
L 11.859375 33.796875 
L 6.0625 37.3125 
L 15.28125 49.421875 
L 1.609375 52.984375 
L 3.8125 59.515625 
L 16.84375 54.296875 
L 16.265625 68.796875 
L 22.90625 68.796875 
z
" id="LiberationSans-2a"/>
    </defs>
    <g style="fill:#262626;" transform="translate(213.48375 34.6)scale(0.12 -0.12)">
     <use xlink:href="#LiberationSans-53"/>
     <use x="66.69921875" xlink:href="#LiberationSans-52"/>
     <use x="138.916015625" xlink:href="#LiberationSans-20"/>
     <use x="166.69921875" xlink:href="#LiberationSans-2d"/>
     <use x="200.0" xlink:href="#LiberationSans-20"/>
     <use x="227.783203125" xlink:href="#LiberationSans-32"/>
     <use x="283.3984375" xlink:href="#LiberationSans-39"/>
     <use x="339.013671875" xlink:href="#LiberationSans-31"/>
     <use x="394.62890625" xlink:href="#LiberationSans-2e"/>
     <use x="422.412109375" xlink:href="#LiberationSans-33"/>
     <use x="478.02734375" xlink:href="#LiberationSans-31"/>
     <use x="533.642578125" xlink:href="#LiberationSans-36"/>
     <use x="589.2578125" xlink:href="#LiberationSans-31"/>
     <use x="644.873046875" xlink:href="#LiberationSans-39"/>
     <use x="700.48828125" xlink:href="#LiberationSans-39"/>
     <use x="756.103515625" xlink:href="#LiberationSans-32"/>
     <use x="811.71875" xlink:href="#LiberationSans-31"/>
     <use x="867.333984375" xlink:href="#LiberationSans-32"/>
     <use x="922.94921875" xlink:href="#LiberationSans-31"/>
     <use x="978.564453125" xlink:href="#LiberationSans-30"/>
     <use x="1034.1796875" xlink:href="#LiberationSans-36"/>
     <use x="1089.794921875" xlink:href="#LiberationSans-31"/>
     <use x="1145.41015625" xlink:href="#LiberationSans-20"/>
     <use x="1173.193359375" xlink:href="#LiberationSans-2a"/>
     <use x="1212.109375" xlink:href="#LiberationSans-20"/>
     <use x="1239.876953125" xlink:href="#LiberationSans-54"/>
     <use x="1300.9609375" xlink:href="#LiberationSans-46"/>
    </g>
   </g>
  </g>
 </g>
 <defs>
  <clipPath id="p3a9549114b">
   <rect height="316.8" width="446.4" x="72.0" y="39.6"/>
  </clipPath>
 </defs>
</svg>
