<?xml version="1.0" encoding="utf-8" standalone="no"?>
<!DOCTYPE svg PUBLIC "-//W3C//DTD SVG 1.1//EN"
  "http://www.w3.org/Graphics/SVG/1.1/DTD/svg11.dtd">
<!-- Created with matplotlib (http://matplotlib.org/) -->
<svg height="396pt" version="1.1" viewBox="0 0 576 396" width="576pt" xmlns="http://www.w3.org/2000/svg" xmlns:xlink="http://www.w3.org/1999/xlink">
 <defs>
  <style type="text/css">
*{stroke-linecap:butt;stroke-linejoin:round;stroke-miterlimit:100000;}
  </style>
 </defs>
 <g id="figure_1">
  <g id="patch_1">
   <path d="M 0 396 
L 576 396 
L 576 0 
L 0 0 
z
" style="fill:#ffffff;"/>
  </g>
  <g id="axes_1">
   <g id="patch_2">
    <path d="M 72 356.4 
L 518.4 356.4 
L 518.4 39.6 
L 72 39.6 
z
" style="fill:#eaeaf2;"/>
   </g>
   <g id="matplotlib.axis_1">
    <g id="xtick_1">
     <g id="line2d_1">
      <path clip-path="url(#p9f5e1a8a9b)" d="M 72 356.4 
L 72 39.6 
" style="fill:none;stroke:#ffffff;stroke-linecap:round;"/>
     </g>
     <g id="line2d_2"/>
     <g id="line2d_3"/>
     <g id="text_1">
      <!-- 2015-11-10 10:06:00 -->
      <defs>
       <path d="M 5.03125 0 
L 5.03125 6.203125 
Q 7.515625 11.921875 11.109375 16.28125 
Q 14.703125 20.65625 18.65625 24.1875 
Q 22.609375 27.734375 26.484375 30.765625 
Q 30.375 33.796875 33.5 36.8125 
Q 36.625 39.84375 38.546875 43.15625 
Q 40.484375 46.484375 40.484375 50.6875 
Q 40.484375 53.609375 39.59375 55.828125 
Q 38.71875 58.0625 37.0625 59.5625 
Q 35.40625 61.078125 33.078125 61.828125 
Q 30.765625 62.59375 27.9375 62.59375 
Q 25.296875 62.59375 22.96875 61.859375 
Q 20.65625 61.140625 18.84375 59.671875 
Q 17.046875 58.203125 15.890625 56.03125 
Q 14.75 53.859375 14.40625 50.984375 
L 5.421875 51.8125 
Q 5.859375 55.515625 7.46875 58.78125 
Q 9.078125 62.0625 11.90625 64.53125 
Q 14.75 67 18.71875 68.40625 
Q 22.703125 69.828125 27.9375 69.828125 
Q 33.0625 69.828125 37.0625 68.609375 
Q 41.0625 67.390625 43.8125 64.984375 
Q 46.578125 62.59375 48.046875 59.078125 
Q 49.515625 55.5625 49.515625 50.984375 
Q 49.515625 47.515625 48.265625 44.390625 
Q 47.015625 41.265625 44.9375 38.421875 
Q 42.875 35.59375 40.140625 32.953125 
Q 37.40625 30.328125 34.421875 27.8125 
Q 31.453125 25.296875 28.421875 22.828125 
Q 25.390625 20.359375 22.71875 17.859375 
Q 20.0625 15.375 17.96875 12.8125 
Q 15.875 10.25 14.703125 7.46875 
L 50.59375 7.46875 
L 50.59375 0 
z
" id="LiberationSans-32"/>
       <path d="M 7.625 0 
L 7.625 7.46875 
L 25.140625 7.46875 
L 25.140625 60.40625 
L 9.625 49.3125 
L 9.625 57.625 
L 25.875 68.796875 
L 33.984375 68.796875 
L 33.984375 7.46875 
L 50.734375 7.46875 
L 50.734375 0 
z
" id="LiberationSans-31"/>
       <path d="M 51.703125 34.421875 
Q 51.703125 24.515625 49.828125 17.75 
Q 47.953125 10.984375 44.703125 6.8125 
Q 41.453125 2.640625 37.0625 0.828125 
Q 32.671875 -0.984375 27.6875 -0.984375 
Q 22.65625 -0.984375 18.3125 0.828125 
Q 13.96875 2.640625 10.765625 6.78125 
Q 7.5625 10.9375 5.734375 17.703125 
Q 3.90625 24.46875 3.90625 34.421875 
Q 3.90625 44.828125 5.734375 51.640625 
Q 7.5625 58.453125 10.78125 62.5 
Q 14.015625 66.546875 18.40625 68.1875 
Q 22.796875 69.828125 27.984375 69.828125 
Q 32.90625 69.828125 37.21875 68.1875 
Q 41.546875 66.546875 44.765625 62.5 
Q 48 58.453125 49.84375 51.640625 
Q 51.703125 44.828125 51.703125 34.421875 
M 42.78125 34.421875 
Q 42.78125 42.625 41.796875 48.0625 
Q 40.828125 53.515625 38.921875 56.765625 
Q 37.015625 60.015625 34.25 61.359375 
Q 31.5 62.703125 27.984375 62.703125 
Q 24.265625 62.703125 21.4375 61.328125 
Q 18.609375 59.96875 16.671875 56.71875 
Q 14.75 53.46875 13.765625 48.015625 
Q 12.796875 42.578125 12.796875 34.421875 
Q 12.796875 26.515625 13.796875 21.09375 
Q 14.796875 15.671875 16.71875 12.375 
Q 18.65625 9.078125 21.4375 7.640625 
Q 24.21875 6.203125 27.78125 6.203125 
Q 31.25 6.203125 34.03125 7.640625 
Q 36.8125 9.078125 38.734375 12.375 
Q 40.671875 15.671875 41.71875 21.09375 
Q 42.78125 26.515625 42.78125 34.421875 
" id="LiberationSans-30"/>
       <path d="M 9.125 42.71875 
L 9.125 52.828125 
L 18.65625 52.828125 
L 18.65625 42.71875 
z
M 9.125 0 
L 9.125 10.109375 
L 18.65625 10.109375 
L 18.65625 0 
z
" id="LiberationSans-3a"/>
       <path d="M 51.421875 22.40625 
Q 51.421875 17.234375 49.859375 12.9375 
Q 48.296875 8.640625 45.21875 5.53125 
Q 42.140625 2.4375 37.578125 0.71875 
Q 33.015625 -0.984375 27 -0.984375 
Q 21.578125 -0.984375 17.546875 0.28125 
Q 13.53125 1.5625 10.734375 3.78125 
Q 7.953125 6 6.3125 8.984375 
Q 4.6875 11.96875 4 15.375 
L 12.890625 16.40625 
Q 13.421875 14.453125 14.390625 12.625 
Q 15.375 10.796875 17.0625 9.34375 
Q 18.75 7.90625 21.21875 7.046875 
Q 23.6875 6.203125 27.203125 6.203125 
Q 30.609375 6.203125 33.390625 7.25 
Q 36.1875 8.296875 38.15625 10.34375 
Q 40.140625 12.40625 41.203125 15.375 
Q 42.28125 18.359375 42.28125 22.21875 
Q 42.28125 25.390625 41.25 28.046875 
Q 40.234375 30.71875 38.328125 32.640625 
Q 36.421875 34.578125 33.65625 35.640625 
Q 30.90625 36.71875 27.390625 36.71875 
Q 25.203125 36.71875 23.34375 36.328125 
Q 21.484375 35.9375 19.890625 35.25 
Q 18.3125 34.578125 17.015625 33.671875 
Q 15.71875 32.765625 14.59375 31.78125 
L 6 31.78125 
L 8.296875 68.796875 
L 47.40625 68.796875 
L 47.40625 61.328125 
L 16.3125 61.328125 
L 14.984375 39.5 
Q 17.328125 41.3125 20.84375 42.59375 
Q 24.359375 43.890625 29.203125 43.890625 
Q 34.328125 43.890625 38.421875 42.328125 
Q 42.53125 40.765625 45.40625 37.90625 
Q 48.296875 35.0625 49.859375 31.109375 
Q 51.421875 27.15625 51.421875 22.40625 
" id="LiberationSans-35"/>
       <path id="LiberationSans-20"/>
       <path d="M 4.4375 22.65625 
L 4.4375 30.46875 
L 28.859375 30.46875 
L 28.859375 22.65625 
z
" id="LiberationSans-2d"/>
       <path d="M 51.21875 22.515625 
Q 51.21875 17.328125 49.78125 13 
Q 48.34375 8.6875 45.53125 5.578125 
Q 42.71875 2.484375 38.5625 0.75 
Q 34.421875 -0.984375 29 -0.984375 
Q 23 -0.984375 18.5 1.3125 
Q 14.015625 3.609375 11.03125 7.921875 
Q 8.0625 12.25 6.5625 18.53125 
Q 5.078125 24.8125 5.078125 32.8125 
Q 5.078125 42 6.765625 48.921875 
Q 8.453125 55.859375 11.625 60.5 
Q 14.796875 65.140625 19.359375 67.484375 
Q 23.921875 69.828125 29.6875 69.828125 
Q 33.203125 69.828125 36.28125 69.09375 
Q 39.359375 68.359375 41.875 66.71875 
Q 44.390625 65.09375 46.28125 62.40625 
Q 48.1875 59.71875 49.3125 55.8125 
L 40.921875 54.296875 
Q 39.546875 58.734375 36.546875 60.71875 
Q 33.546875 62.703125 29.59375 62.703125 
Q 25.984375 62.703125 23.046875 60.984375 
Q 20.125 59.28125 18.0625 55.875 
Q 16.015625 52.484375 14.90625 47.359375 
Q 13.8125 42.234375 13.8125 35.40625 
Q 16.21875 39.84375 20.5625 42.15625 
Q 24.90625 44.484375 30.515625 44.484375 
Q 35.203125 44.484375 39.015625 42.96875 
Q 42.828125 41.453125 45.53125 38.59375 
Q 48.25 35.75 49.734375 31.671875 
Q 51.21875 27.59375 51.21875 22.515625 
M 42.28125 22.125 
Q 42.28125 25.6875 41.40625 28.5625 
Q 40.53125 31.453125 38.765625 33.46875 
Q 37.015625 35.5 34.421875 36.59375 
Q 31.84375 37.703125 28.421875 37.703125 
Q 26.03125 37.703125 23.578125 36.984375 
Q 21.140625 36.28125 19.15625 34.6875 
Q 17.1875 33.109375 15.9375 30.515625 
Q 14.703125 27.9375 14.703125 24.21875 
Q 14.703125 20.40625 15.671875 17.109375 
Q 16.65625 13.8125 18.484375 11.375 
Q 20.3125 8.9375 22.890625 7.515625 
Q 25.484375 6.109375 28.71875 6.109375 
Q 31.890625 6.109375 34.40625 7.203125 
Q 36.921875 8.296875 38.671875 10.375 
Q 40.4375 12.453125 41.359375 15.421875 
Q 42.28125 18.40625 42.28125 22.125 
" id="LiberationSans-36"/>
      </defs>
      <g style="fill:#262626;" transform="translate(25.5765625 370.646875)scale(0.1 -0.1)">
       <use xlink:href="#LiberationSans-32"/>
       <use x="55.615234375" xlink:href="#LiberationSans-30"/>
       <use x="111.23046875" xlink:href="#LiberationSans-31"/>
       <use x="166.845703125" xlink:href="#LiberationSans-35"/>
       <use x="222.4609375" xlink:href="#LiberationSans-2d"/>
       <use x="255.76171875" xlink:href="#LiberationSans-31"/>
       <use x="311.376953125" xlink:href="#LiberationSans-31"/>
       <use x="366.9921875" xlink:href="#LiberationSans-2d"/>
       <use x="400.29296875" xlink:href="#LiberationSans-31"/>
       <use x="455.908203125" xlink:href="#LiberationSans-30"/>
       <use x="511.5234375" xlink:href="#LiberationSans-20"/>
       <use x="539.306640625" xlink:href="#LiberationSans-31"/>
       <use x="594.921875" xlink:href="#LiberationSans-30"/>
       <use x="650.537109375" xlink:href="#LiberationSans-3a"/>
       <use x="678.3203125" xlink:href="#LiberationSans-30"/>
       <use x="733.935546875" xlink:href="#LiberationSans-36"/>
       <use x="789.55078125" xlink:href="#LiberationSans-3a"/>
       <use x="817.333984375" xlink:href="#LiberationSans-30"/>
       <use x="872.94921875" xlink:href="#LiberationSans-30"/>
      </g>
     </g>
    </g>
    <g id="xtick_2">
     <g id="line2d_4">
      <path clip-path="url(#p9f5e1a8a9b)" d="M 183.655828 356.4 
L 183.655828 39.6 
" style="fill:none;stroke:#ffffff;stroke-linecap:round;"/>
     </g>
     <g id="line2d_5"/>
     <g id="line2d_6"/>
     <g id="text_2">
      <!-- 2015-11-12 09:23:00 -->
      <defs>
       <path d="M 51.21875 19 
Q 51.21875 14.265625 49.671875 10.546875 
Q 48.140625 6.84375 45.1875 4.265625 
Q 42.234375 1.703125 37.859375 0.359375 
Q 33.5 -0.984375 27.875 -0.984375 
Q 21.484375 -0.984375 17.109375 0.609375 
Q 12.75 2.203125 9.90625 4.8125 
Q 7.078125 7.421875 5.65625 10.765625 
Q 4.25 14.109375 3.8125 17.671875 
L 12.890625 18.5 
Q 13.28125 15.765625 14.328125 13.515625 
Q 15.375 11.28125 17.1875 9.671875 
Q 19 8.0625 21.625 7.171875 
Q 24.265625 6.296875 27.875 6.296875 
Q 34.515625 6.296875 38.296875 9.5625 
Q 42.09375 12.84375 42.09375 19.28125 
Q 42.09375 23.09375 40.40625 25.40625 
Q 38.71875 27.734375 36.203125 29.03125 
Q 33.6875 30.328125 30.734375 30.765625 
Q 27.78125 31.203125 25.296875 31.203125 
L 20.3125 31.203125 
L 20.3125 38.8125 
L 25.09375 38.8125 
Q 27.59375 38.8125 30.265625 39.328125 
Q 32.953125 39.84375 35.171875 41.1875 
Q 37.40625 42.53125 38.84375 44.828125 
Q 40.28125 47.125 40.28125 50.6875 
Q 40.28125 56.203125 37.03125 59.390625 
Q 33.796875 62.59375 27.390625 62.59375 
Q 21.578125 62.59375 17.984375 59.609375 
Q 14.40625 56.640625 13.8125 51.21875 
L 4.984375 51.90625 
Q 5.515625 56.453125 7.46875 59.8125 
Q 9.421875 63.1875 12.421875 65.40625 
Q 15.4375 67.625 19.28125 68.71875 
Q 23.140625 69.828125 27.484375 69.828125 
Q 33.25 69.828125 37.390625 68.375 
Q 41.546875 66.9375 44.1875 64.46875 
Q 46.828125 62.015625 48.0625 58.6875 
Q 49.3125 55.375 49.3125 51.609375 
Q 49.3125 48.578125 48.484375 45.9375 
Q 47.65625 43.3125 45.890625 41.203125 
Q 44.140625 39.109375 41.421875 37.59375 
Q 38.71875 36.078125 34.90625 35.296875 
L 34.90625 35.109375 
Q 39.0625 34.671875 42.140625 33.21875 
Q 45.21875 31.78125 47.21875 29.625 
Q 49.21875 27.484375 50.21875 24.75 
Q 51.21875 22.015625 51.21875 19 
" id="LiberationSans-33"/>
       <path d="M 50.875 35.796875 
Q 50.875 26.609375 49.140625 19.703125 
Q 47.40625 12.796875 44.1875 8.203125 
Q 40.96875 3.609375 36.34375 1.3125 
Q 31.734375 -0.984375 25.984375 -0.984375 
Q 22.015625 -0.984375 18.84375 -0.171875 
Q 15.671875 0.640625 13.171875 2.34375 
Q 10.6875 4.046875 8.921875 6.78125 
Q 7.171875 9.515625 6.109375 13.375 
L 14.5 14.703125 
Q 15.875 10.25 18.78125 8.171875 
Q 21.6875 6.109375 26.125 6.109375 
Q 29.6875 6.109375 32.640625 7.78125 
Q 35.59375 9.46875 37.671875 12.84375 
Q 39.75 16.21875 40.921875 21.296875 
Q 42.09375 26.375 42.1875 33.203125 
Q 41.15625 30.90625 39.375 29.09375 
Q 37.59375 27.296875 35.328125 26.046875 
Q 33.0625 24.8125 30.421875 24.140625 
Q 27.78125 23.484375 25.09375 23.484375 
Q 20.40625 23.484375 16.625 25.171875 
Q 12.84375 26.859375 10.203125 29.875 
Q 7.5625 32.90625 6.125 37.171875 
Q 4.6875 41.453125 4.6875 46.6875 
Q 4.6875 52 6.21875 56.296875 
Q 7.765625 60.59375 10.6875 63.59375 
Q 13.625 66.609375 17.890625 68.21875 
Q 22.171875 69.828125 27.59375 69.828125 
Q 39.0625 69.828125 44.96875 61.328125 
Q 50.875 52.828125 50.875 35.796875 
M 41.3125 44.28125 
Q 41.3125 48.09375 40.40625 51.453125 
Q 39.5 54.828125 37.71875 57.3125 
Q 35.9375 59.8125 33.328125 61.25 
Q 30.71875 62.703125 27.296875 62.703125 
Q 24.125 62.703125 21.578125 61.578125 
Q 19.046875 60.453125 17.28125 58.375 
Q 15.53125 56.296875 14.578125 53.3125 
Q 13.625 50.34375 13.625 46.6875 
Q 13.625 43.21875 14.46875 40.234375 
Q 15.328125 37.25 17.03125 35.078125 
Q 18.75 32.90625 21.28125 31.65625 
Q 23.828125 30.421875 27.203125 30.421875 
Q 29.640625 30.421875 32.15625 31.25 
Q 34.671875 32.078125 36.6875 33.78125 
Q 38.71875 35.5 40.015625 38.109375 
Q 41.3125 40.71875 41.3125 44.28125 
" id="LiberationSans-39"/>
      </defs>
      <g style="fill:#262626;" transform="translate(137.232390414 370.646875)scale(0.1 -0.1)">
       <use xlink:href="#LiberationSans-32"/>
       <use x="55.615234375" xlink:href="#LiberationSans-30"/>
       <use x="111.23046875" xlink:href="#LiberationSans-31"/>
       <use x="166.845703125" xlink:href="#LiberationSans-35"/>
       <use x="222.4609375" xlink:href="#LiberationSans-2d"/>
       <use x="255.76171875" xlink:href="#LiberationSans-31"/>
       <use x="311.376953125" xlink:href="#LiberationSans-31"/>
       <use x="366.9921875" xlink:href="#LiberationSans-2d"/>
       <use x="400.29296875" xlink:href="#LiberationSans-31"/>
       <use x="455.908203125" xlink:href="#LiberationSans-32"/>
       <use x="511.5234375" xlink:href="#LiberationSans-20"/>
       <use x="539.306640625" xlink:href="#LiberationSans-30"/>
       <use x="594.921875" xlink:href="#LiberationSans-39"/>
       <use x="650.537109375" xlink:href="#LiberationSans-3a"/>
       <use x="678.3203125" xlink:href="#LiberationSans-32"/>
       <use x="733.935546875" xlink:href="#LiberationSans-33"/>
       <use x="789.55078125" xlink:href="#LiberationSans-3a"/>
       <use x="817.333984375" xlink:href="#LiberationSans-30"/>
       <use x="872.94921875" xlink:href="#LiberationSans-30"/>
      </g>
     </g>
    </g>
    <g id="xtick_3">
     <g id="line2d_7">
      <path clip-path="url(#p9f5e1a8a9b)" d="M 295.311656 356.4 
L 295.311656 39.6 
" style="fill:none;stroke:#ffffff;stroke-linecap:round;"/>
     </g>
     <g id="line2d_8"/>
     <g id="line2d_9"/>
     <g id="text_3">
      <!-- 2015-11-17 00:54:00 -->
      <defs>
       <path d="M 50.59375 61.671875 
Q 45.40625 53.765625 41.0625 46.453125 
Q 36.71875 39.15625 33.59375 31.75 
Q 30.46875 24.359375 28.734375 16.578125 
Q 27 8.796875 27 0 
L 17.828125 0 
Q 17.828125 8.25 19.78125 16.1875 
Q 21.734375 24.125 25.046875 31.765625 
Q 28.375 39.40625 32.765625 46.78125 
Q 37.15625 54.15625 42.09375 61.328125 
L 5.125 61.328125 
L 5.125 68.796875 
L 50.59375 68.796875 
z
" id="LiberationSans-37"/>
       <path d="M 43.015625 15.578125 
L 43.015625 0 
L 34.71875 0 
L 34.71875 15.578125 
L 2.296875 15.578125 
L 2.296875 22.40625 
L 33.796875 68.796875 
L 43.015625 68.796875 
L 43.015625 22.515625 
L 52.6875 22.515625 
L 52.6875 15.578125 
z
M 34.71875 58.890625 
Q 34.625 58.640625 34.234375 57.9375 
Q 33.84375 57.234375 33.34375 56.34375 
Q 32.859375 55.46875 32.34375 54.5625 
Q 31.84375 53.65625 31.453125 53.078125 
L 13.8125 27.09375 
Q 13.578125 26.703125 13.109375 26.0625 
Q 12.640625 25.4375 12.15625 24.78125 
Q 11.671875 24.125 11.171875 23.484375 
Q 10.6875 22.859375 10.40625 22.515625 
L 34.71875 22.515625 
z
" id="LiberationSans-34"/>
      </defs>
      <g style="fill:#262626;" transform="translate(248.888218328 370.646875)scale(0.1 -0.1)">
       <use xlink:href="#LiberationSans-32"/>
       <use x="55.615234375" xlink:href="#LiberationSans-30"/>
       <use x="111.23046875" xlink:href="#LiberationSans-31"/>
       <use x="166.845703125" xlink:href="#LiberationSans-35"/>
       <use x="222.4609375" xlink:href="#LiberationSans-2d"/>
       <use x="255.76171875" xlink:href="#LiberationSans-31"/>
       <use x="311.376953125" xlink:href="#LiberationSans-31"/>
       <use x="366.9921875" xlink:href="#LiberationSans-2d"/>
       <use x="400.29296875" xlink:href="#LiberationSans-31"/>
       <use x="455.908203125" xlink:href="#LiberationSans-37"/>
       <use x="511.5234375" xlink:href="#LiberationSans-20"/>
       <use x="539.306640625" xlink:href="#LiberationSans-30"/>
       <use x="594.921875" xlink:href="#LiberationSans-30"/>
       <use x="650.537109375" xlink:href="#LiberationSans-3a"/>
       <use x="678.3203125" xlink:href="#LiberationSans-35"/>
       <use x="733.935546875" xlink:href="#LiberationSans-34"/>
       <use x="789.55078125" xlink:href="#LiberationSans-3a"/>
       <use x="817.333984375" xlink:href="#LiberationSans-30"/>
       <use x="872.94921875" xlink:href="#LiberationSans-30"/>
      </g>
     </g>
    </g>
    <g id="xtick_4">
     <g id="line2d_10">
      <path clip-path="url(#p9f5e1a8a9b)" d="M 406.967484 356.4 
L 406.967484 39.6 
" style="fill:none;stroke:#ffffff;stroke-linecap:round;"/>
     </g>
     <g id="line2d_11"/>
     <g id="line2d_12"/>
     <g id="text_4">
      <!-- 2015-11-20 23:57:00 -->
      <g style="fill:#262626;" transform="translate(360.544046242 370.646875)scale(0.1 -0.1)">
       <use xlink:href="#LiberationSans-32"/>
       <use x="55.615234375" xlink:href="#LiberationSans-30"/>
       <use x="111.23046875" xlink:href="#LiberationSans-31"/>
       <use x="166.845703125" xlink:href="#LiberationSans-35"/>
       <use x="222.4609375" xlink:href="#LiberationSans-2d"/>
       <use x="255.76171875" xlink:href="#LiberationSans-31"/>
       <use x="311.376953125" xlink:href="#LiberationSans-31"/>
       <use x="366.9921875" xlink:href="#LiberationSans-2d"/>
       <use x="400.29296875" xlink:href="#LiberationSans-32"/>
       <use x="455.908203125" xlink:href="#LiberationSans-30"/>
       <use x="511.5234375" xlink:href="#LiberationSans-20"/>
       <use x="539.306640625" xlink:href="#LiberationSans-32"/>
       <use x="594.921875" xlink:href="#LiberationSans-33"/>
       <use x="650.537109375" xlink:href="#LiberationSans-3a"/>
       <use x="678.3203125" xlink:href="#LiberationSans-35"/>
       <use x="733.935546875" xlink:href="#LiberationSans-37"/>
       <use x="789.55078125" xlink:href="#LiberationSans-3a"/>
       <use x="817.333984375" xlink:href="#LiberationSans-30"/>
       <use x="872.94921875" xlink:href="#LiberationSans-30"/>
      </g>
     </g>
    </g>
    <g id="text_5">
     <!-- time -->
     <defs>
      <path d="M 13.484375 24.5625 
Q 13.484375 20.40625 14.328125 16.90625 
Q 15.1875 13.421875 16.96875 10.90625 
Q 18.75 8.40625 21.53125 7 
Q 24.3125 5.609375 28.21875 5.609375 
Q 33.9375 5.609375 37.375 7.90625 
Q 40.828125 10.203125 42.046875 13.71875 
L 49.75 11.53125 
Q 48.921875 9.328125 47.4375 7.109375 
Q 45.953125 4.890625 43.453125 3.09375 
Q 40.96875 1.3125 37.234375 0.15625 
Q 33.5 -0.984375 28.21875 -0.984375 
Q 16.5 -0.984375 10.375 6 
Q 4.25 12.984375 4.25 26.765625 
Q 4.25 34.1875 6.09375 39.328125 
Q 7.953125 44.484375 11.171875 47.703125 
Q 14.40625 50.921875 18.703125 52.359375 
Q 23 53.8125 27.875 53.8125 
Q 34.515625 53.8125 38.984375 51.65625 
Q 43.453125 49.515625 46.15625 45.71875 
Q 48.875 41.9375 50.015625 36.8125 
Q 51.171875 31.6875 51.171875 25.734375 
L 51.171875 24.5625 
z
M 42.09375 31.296875 
Q 41.359375 39.65625 37.84375 43.484375 
Q 34.328125 47.3125 27.734375 47.3125 
Q 25.53125 47.3125 23.109375 46.609375 
Q 20.703125 45.90625 18.65625 44.09375 
Q 16.609375 42.28125 15.1875 39.171875 
Q 13.765625 36.078125 13.578125 31.296875 
z
" id="LiberationSans-65"/>
      <path d="M 6.6875 64.0625 
L 6.6875 72.46875 
L 15.484375 72.46875 
L 15.484375 64.0625 
z
M 6.6875 0 
L 6.6875 52.828125 
L 15.484375 52.828125 
L 15.484375 0 
z
" id="LiberationSans-69"/>
      <path d="M 27.046875 0.390625 
Q 25.046875 -0.140625 22.96875 -0.453125 
Q 20.90625 -0.78125 18.171875 -0.78125 
Q 7.625 -0.78125 7.625 11.1875 
L 7.625 46.4375 
L 1.515625 46.4375 
L 1.515625 52.828125 
L 7.953125 52.828125 
L 10.546875 64.65625 
L 16.40625 64.65625 
L 16.40625 52.828125 
L 26.171875 52.828125 
L 26.171875 46.4375 
L 16.40625 46.4375 
L 16.40625 13.09375 
Q 16.40625 9.28125 17.640625 7.734375 
Q 18.890625 6.203125 21.96875 6.203125 
Q 23.25 6.203125 24.4375 6.390625 
Q 25.640625 6.59375 27.046875 6.890625 
z
" id="LiberationSans-74"/>
      <path d="M 37.5 0 
L 37.5 33.5 
Q 37.5 37.359375 37.015625 39.9375 
Q 36.53125 42.53125 35.375 44.109375 
Q 34.234375 45.703125 32.375 46.359375 
Q 30.515625 47.015625 27.828125 47.015625 
Q 25.046875 47.015625 22.796875 45.921875 
Q 20.5625 44.828125 18.96875 42.75 
Q 17.390625 40.671875 16.53125 37.625 
Q 15.671875 34.578125 15.671875 30.609375 
L 15.671875 0 
L 6.9375 0 
L 6.9375 41.546875 
Q 6.9375 43.21875 6.90625 45.046875 
Q 6.890625 46.875 6.828125 48.5 
Q 6.78125 50.140625 6.734375 51.3125 
Q 6.6875 52.484375 6.640625 52.828125 
L 14.9375 52.828125 
Q 14.984375 52.59375 15.03125 51.515625 
Q 15.09375 50.4375 15.15625 49.046875 
Q 15.234375 47.65625 15.28125 46.21875 
Q 15.328125 44.78125 15.328125 43.796875 
L 15.484375 43.796875 
Q 16.65625 46.09375 18.015625 47.953125 
Q 19.390625 49.8125 21.21875 51.09375 
Q 23.046875 52.390625 25.40625 53.09375 
Q 27.78125 53.8125 30.90625 53.8125 
Q 36.921875 53.8125 40.40625 51.421875 
Q 43.890625 49.03125 45.265625 43.796875 
L 45.40625 43.796875 
Q 46.578125 46.09375 48.046875 47.953125 
Q 49.515625 49.8125 51.46875 51.09375 
Q 53.421875 52.390625 55.859375 53.09375 
Q 58.296875 53.8125 61.421875 53.8125 
Q 65.4375 53.8125 68.328125 52.734375 
Q 71.234375 51.65625 73.09375 49.40625 
Q 74.953125 47.171875 75.828125 43.625 
Q 76.703125 40.09375 76.703125 35.203125 
L 76.703125 0 
L 68.015625 0 
L 68.015625 33.5 
Q 68.015625 37.359375 67.53125 39.9375 
Q 67.046875 42.53125 65.890625 44.109375 
Q 64.75 45.703125 62.890625 46.359375 
Q 61.03125 47.015625 58.34375 47.015625 
Q 55.5625 47.015625 53.3125 45.96875 
Q 51.078125 44.921875 49.484375 42.875 
Q 47.90625 40.828125 47.046875 37.75 
Q 46.1875 34.671875 46.1875 30.609375 
L 46.1875 0 
z
" id="LiberationSans-6d"/>
     </defs>
     <g style="fill:#262626;" transform="translate(284.81015625 385.6934375)scale(0.11 -0.11)">
      <use xlink:href="#LiberationSans-74"/>
      <use x="27.783203125" xlink:href="#LiberationSans-69"/>
      <use x="50.0" xlink:href="#LiberationSans-6d"/>
      <use x="133.30078125" xlink:href="#LiberationSans-65"/>
     </g>
    </g>
   </g>
   <g id="matplotlib.axis_2">
    <g id="ytick_1">
     <g id="line2d_13">
      <path clip-path="url(#p9f5e1a8a9b)" d="M 72 356.4 
L 518.4 356.4 
" style="fill:none;stroke:#ffffff;stroke-linecap:round;"/>
     </g>
     <g id="line2d_14"/>
     <g id="line2d_15"/>
     <g id="text_6">
      <!-- 19000 -->
      <g style="fill:#262626;" transform="translate(37.1953125 358.9859375)scale(0.1 -0.1)">
       <use xlink:href="#LiberationSans-31"/>
       <use x="55.615234375" xlink:href="#LiberationSans-39"/>
       <use x="111.23046875" xlink:href="#LiberationSans-30"/>
       <use x="166.845703125" xlink:href="#LiberationSans-30"/>
       <use x="222.4609375" xlink:href="#LiberationSans-30"/>
      </g>
     </g>
    </g>
    <g id="ytick_2">
     <g id="line2d_16">
      <path clip-path="url(#p9f5e1a8a9b)" d="M 72 321.2 
L 518.4 321.2 
" style="fill:none;stroke:#ffffff;stroke-linecap:round;"/>
     </g>
     <g id="line2d_17"/>
     <g id="line2d_18"/>
     <g id="text_7">
      <!-- 19100 -->
      <g style="fill:#262626;" transform="translate(37.1953125 323.7859375)scale(0.1 -0.1)">
       <use xlink:href="#LiberationSans-31"/>
       <use x="55.615234375" xlink:href="#LiberationSans-39"/>
       <use x="111.23046875" xlink:href="#LiberationSans-31"/>
       <use x="166.845703125" xlink:href="#LiberationSans-30"/>
       <use x="222.4609375" xlink:href="#LiberationSans-30"/>
      </g>
     </g>
    </g>
    <g id="ytick_3">
     <g id="line2d_19">
      <path clip-path="url(#p9f5e1a8a9b)" d="M 72 286 
L 518.4 286 
" style="fill:none;stroke:#ffffff;stroke-linecap:round;"/>
     </g>
     <g id="line2d_20"/>
     <g id="line2d_21"/>
     <g id="text_8">
      <!-- 19200 -->
      <g style="fill:#262626;" transform="translate(37.1953125 288.5859375)scale(0.1 -0.1)">
       <use xlink:href="#LiberationSans-31"/>
       <use x="55.615234375" xlink:href="#LiberationSans-39"/>
       <use x="111.23046875" xlink:href="#LiberationSans-32"/>
       <use x="166.845703125" xlink:href="#LiberationSans-30"/>
       <use x="222.4609375" xlink:href="#LiberationSans-30"/>
      </g>
     </g>
    </g>
    <g id="ytick_4">
     <g id="line2d_22">
      <path clip-path="url(#p9f5e1a8a9b)" d="M 72 250.8 
L 518.4 250.8 
" style="fill:none;stroke:#ffffff;stroke-linecap:round;"/>
     </g>
     <g id="line2d_23"/>
     <g id="line2d_24"/>
     <g id="text_9">
      <!-- 19300 -->
      <g style="fill:#262626;" transform="translate(37.1953125 253.3859375)scale(0.1 -0.1)">
       <use xlink:href="#LiberationSans-31"/>
       <use x="55.615234375" xlink:href="#LiberationSans-39"/>
       <use x="111.23046875" xlink:href="#LiberationSans-33"/>
       <use x="166.845703125" xlink:href="#LiberationSans-30"/>
       <use x="222.4609375" xlink:href="#LiberationSans-30"/>
      </g>
     </g>
    </g>
    <g id="ytick_5">
     <g id="line2d_25">
      <path clip-path="url(#p9f5e1a8a9b)" d="M 72 215.6 
L 518.4 215.6 
" style="fill:none;stroke:#ffffff;stroke-linecap:round;"/>
     </g>
     <g id="line2d_26"/>
     <g id="line2d_27"/>
     <g id="text_10">
      <!-- 19400 -->
      <g style="fill:#262626;" transform="translate(37.1953125 218.1859375)scale(0.1 -0.1)">
       <use xlink:href="#LiberationSans-31"/>
       <use x="55.615234375" xlink:href="#LiberationSans-39"/>
       <use x="111.23046875" xlink:href="#LiberationSans-34"/>
       <use x="166.845703125" xlink:href="#LiberationSans-30"/>
       <use x="222.4609375" xlink:href="#LiberationSans-30"/>
      </g>
     </g>
    </g>
    <g id="ytick_6">
     <g id="line2d_28">
      <path clip-path="url(#p9f5e1a8a9b)" d="M 72 180.4 
L 518.4 180.4 
" style="fill:none;stroke:#ffffff;stroke-linecap:round;"/>
     </g>
     <g id="line2d_29"/>
     <g id="line2d_30"/>
     <g id="text_11">
      <!-- 19500 -->
      <g style="fill:#262626;" transform="translate(37.1953125 182.9859375)scale(0.1 -0.1)">
       <use xlink:href="#LiberationSans-31"/>
       <use x="55.615234375" xlink:href="#LiberationSans-39"/>
       <use x="111.23046875" xlink:href="#LiberationSans-35"/>
       <use x="166.845703125" xlink:href="#LiberationSans-30"/>
       <use x="222.4609375" xlink:href="#LiberationSans-30"/>
      </g>
     </g>
    </g>
    <g id="ytick_7">
     <g id="line2d_31">
      <path clip-path="url(#p9f5e1a8a9b)" d="M 72 145.2 
L 518.4 145.2 
" style="fill:none;stroke:#ffffff;stroke-linecap:round;"/>
     </g>
     <g id="line2d_32"/>
     <g id="line2d_33"/>
     <g id="text_12">
      <!-- 19600 -->
      <g style="fill:#262626;" transform="translate(37.1953125 147.7859375)scale(0.1 -0.1)">
       <use xlink:href="#LiberationSans-31"/>
       <use x="55.615234375" xlink:href="#LiberationSans-39"/>
       <use x="111.23046875" xlink:href="#LiberationSans-36"/>
       <use x="166.845703125" xlink:href="#LiberationSans-30"/>
       <use x="222.4609375" xlink:href="#LiberationSans-30"/>
      </g>
     </g>
    </g>
    <g id="ytick_8">
     <g id="line2d_34">
      <path clip-path="url(#p9f5e1a8a9b)" d="M 72 110 
L 518.4 110 
" style="fill:none;stroke:#ffffff;stroke-linecap:round;"/>
     </g>
     <g id="line2d_35"/>
     <g id="line2d_36"/>
     <g id="text_13">
      <!-- 19700 -->
      <g style="fill:#262626;" transform="translate(37.1953125 112.5859375)scale(0.1 -0.1)">
       <use xlink:href="#LiberationSans-31"/>
       <use x="55.615234375" xlink:href="#LiberationSans-39"/>
       <use x="111.23046875" xlink:href="#LiberationSans-37"/>
       <use x="166.845703125" xlink:href="#LiberationSans-30"/>
       <use x="222.4609375" xlink:href="#LiberationSans-30"/>
      </g>
     </g>
    </g>
    <g id="ytick_9">
     <g id="line2d_37">
      <path clip-path="url(#p9f5e1a8a9b)" d="M 72 74.8 
L 518.4 74.8 
" style="fill:none;stroke:#ffffff;stroke-linecap:round;"/>
     </g>
     <g id="line2d_38"/>
     <g id="line2d_39"/>
     <g id="text_14">
      <!-- 19800 -->
      <defs>
       <path d="M 51.265625 19.1875 
Q 51.265625 14.796875 49.875 11.109375 
Q 48.484375 7.421875 45.625 4.734375 
Q 42.78125 2.046875 38.328125 0.53125 
Q 33.890625 -0.984375 27.828125 -0.984375 
Q 21.78125 -0.984375 17.359375 0.53125 
Q 12.9375 2.046875 10.03125 4.703125 
Q 7.125 7.375 5.734375 11.0625 
Q 4.34375 14.75 4.34375 19.09375 
Q 4.34375 22.859375 5.484375 25.78125 
Q 6.640625 28.71875 8.5625 30.828125 
Q 10.5 32.953125 12.96875 34.25 
Q 15.4375 35.546875 18.0625 35.984375 
L 18.0625 36.1875 
Q 15.1875 36.859375 12.90625 38.375 
Q 10.640625 39.890625 9.09375 42.015625 
Q 7.5625 44.140625 6.75 46.71875 
Q 5.953125 49.3125 5.953125 52.203125 
Q 5.953125 55.8125 7.34375 59 
Q 8.734375 62.203125 11.46875 64.625 
Q 14.203125 67.046875 18.25 68.4375 
Q 22.3125 69.828125 27.640625 69.828125 
Q 33.25 69.828125 37.375 68.40625 
Q 41.5 67 44.203125 64.578125 
Q 46.921875 62.15625 48.234375 58.9375 
Q 49.5625 55.71875 49.5625 52.09375 
Q 49.5625 49.265625 48.75 46.671875 
Q 47.953125 44.09375 46.40625 41.96875 
Q 44.875 39.84375 42.59375 38.34375 
Q 40.328125 36.859375 37.359375 36.28125 
L 37.359375 36.078125 
Q 40.328125 35.59375 42.859375 34.296875 
Q 45.40625 33.015625 47.265625 30.890625 
Q 49.125 28.765625 50.1875 25.828125 
Q 51.265625 22.90625 51.265625 19.1875 
M 40.4375 51.609375 
Q 40.4375 54.203125 39.765625 56.34375 
Q 39.109375 58.5 37.59375 60.03125 
Q 36.078125 61.578125 33.640625 62.421875 
Q 31.203125 63.28125 27.640625 63.28125 
Q 24.171875 63.28125 21.78125 62.421875 
Q 19.390625 61.578125 17.84375 60.03125 
Q 16.3125 58.5 15.625 56.34375 
Q 14.9375 54.203125 14.9375 51.609375 
Q 14.9375 49.5625 15.46875 47.40625 
Q 16.015625 45.265625 17.421875 43.5 
Q 18.84375 41.75 21.328125 40.625 
Q 23.828125 39.5 27.734375 39.5 
Q 31.890625 39.5 34.40625 40.625 
Q 36.921875 41.75 38.25 43.5 
Q 39.59375 45.265625 40.015625 47.40625 
Q 40.4375 49.5625 40.4375 51.609375 
M 42.140625 20.015625 
Q 42.140625 22.515625 41.453125 24.828125 
Q 40.765625 27.15625 39.109375 28.9375 
Q 37.453125 30.71875 34.640625 31.8125 
Q 31.84375 32.90625 27.640625 32.90625 
Q 23.78125 32.90625 21.0625 31.8125 
Q 18.359375 30.71875 16.671875 28.90625 
Q 14.984375 27.09375 14.203125 24.71875 
Q 13.421875 22.359375 13.421875 19.828125 
Q 13.421875 16.65625 14.203125 14.03125 
Q 14.984375 11.421875 16.6875 9.546875 
Q 18.40625 7.671875 21.1875 6.640625 
Q 23.96875 5.609375 27.9375 5.609375 
Q 31.9375 5.609375 34.671875 6.640625 
Q 37.40625 7.671875 39.0625 9.546875 
Q 40.71875 11.421875 41.421875 14.078125 
Q 42.140625 16.75 42.140625 20.015625 
" id="LiberationSans-38"/>
      </defs>
      <g style="fill:#262626;" transform="translate(37.1953125 77.3859375)scale(0.1 -0.1)">
       <use xlink:href="#LiberationSans-31"/>
       <use x="55.615234375" xlink:href="#LiberationSans-39"/>
       <use x="111.23046875" xlink:href="#LiberationSans-38"/>
       <use x="166.845703125" xlink:href="#LiberationSans-30"/>
       <use x="222.4609375" xlink:href="#LiberationSans-30"/>
      </g>
     </g>
    </g>
    <g id="ytick_10">
     <g id="line2d_40">
      <path clip-path="url(#p9f5e1a8a9b)" d="M 72 39.6 
L 518.4 39.6 
" style="fill:none;stroke:#ffffff;stroke-linecap:round;"/>
     </g>
     <g id="line2d_41"/>
     <g id="line2d_42"/>
     <g id="text_15">
      <!-- 19900 -->
      <g style="fill:#262626;" transform="translate(37.1953125 42.1859375)scale(0.1 -0.1)">
       <use xlink:href="#LiberationSans-31"/>
       <use x="55.615234375" xlink:href="#LiberationSans-39"/>
       <use x="111.23046875" xlink:href="#LiberationSans-39"/>
       <use x="166.845703125" xlink:href="#LiberationSans-30"/>
       <use x="222.4609375" xlink:href="#LiberationSans-30"/>
      </g>
     </g>
    </g>
   </g>
   <g id="line2d_43">
    <path clip-path="url(#p9f5e1a8a9b)" d="M 72 158.65295 
L 72.223312 159.971041 
L 72.446623 159.311996 
L 72.669935 162.178081 
L 73.116558 164.155218 
L 73.563182 156.641629 
L 73.786493 156.641629 
L 74.009805 152.224029 
L 74.233117 152.224029 
L 74.456428 152.883075 
L 74.903052 155.323538 
L 75.126363 152.457452 
L 75.349675 153.116498 
L 75.796298 153.116498 
L 76.01961 155.323538 
L 76.242921 155.323538 
L 76.466233 154.005447 
L 76.689545 155.323538 
L 76.912856 151.564984 
L 77.136168 154.201166 
L 77.806103 156.178303 
L 78.029415 154.630308 
L 78.252726 154.630308 
L 78.476038 153.082314 
L 78.922661 153.082314 
L 79.145973 147.116719 
L 79.369285 156.607445 
L 79.592596 152.189845 
L 79.815908 155.059451 
L 80.03922 154.166982 
L 80.262531 158.354678 
L 80.709155 170.251683 
L 80.932466 166.29741 
L 81.155778 167.382078 
L 81.602401 171.140632 
L 81.825713 168.933592 
L 82.272336 172.458723 
L 82.495648 172.458723 
L 82.718959 169.592638 
L 82.942271 171.140632 
L 83.612206 160.791622 
L 83.835518 161.450667 
L 84.282141 161.450667 
L 84.505453 158.584582 
L 84.728764 160.132576 
L 84.952076 160.132576 
L 85.175388 160.791622 
L 85.398699 164.550176 
L 85.845323 164.550176 
L 86.068634 159.473531 
L 86.291946 162.343136 
L 86.738569 157.925536 
L 86.961881 157.925536 
L 87.185193 158.584582 
L 87.408504 161.450667 
L 87.631816 161.450667 
L 88.078439 166.527313 
L 88.525063 159.243627 
L 88.748374 157.695633 
L 88.971686 161.220764 
L 89.194997 160.331815 
L 89.418309 158.584582 
L 89.641621 154.826027 
L 89.864932 156.803164 
L 90.088244 160.990861 
L 90.311556 162.308952 
L 90.981491 168.700169 
L 91.204802 166.723032 
L 91.428114 166.723032 
L 91.651426 163.197901 
L 91.874737 163.197901 
L 92.098049 159.67277 
L 92.321361 153.04813 
L 92.544672 151.959942 
L 92.767984 156.144118 
L 92.991296 153.937078 
L 93.214607 153.937078 
L 93.437919 152.389084 
L 93.661231 153.278033 
L 93.884542 152.389084 
L 94.331166 148.434811 
L 94.554477 142.932543 
L 94.777789 141.614451 
L 95.001101 141.614451 
L 95.224412 140.721983 
L 95.447724 149.323759 
L 95.671036 145.798628 
L 95.894347 146.028531 
L 96.117659 138.0858 
L 96.34097 141.614451 
L 96.564282 137.426755 
L 96.787594 137.001132 
L 97.010905 141.614451 
L 97.234217 158.320494 
L 97.457529 152.618987 
L 97.68084 151.530799 
L 97.904152 153.507936 
L 98.127464 151.530799 
L 98.350775 153.507936 
L 98.797399 160.561718 
L 99.02071 158.354678 
L 99.244022 157.695633 
L 99.467334 159.902673 
L 99.690645 159.013724 
L 99.913957 159.013724 
L 100.36058 168.274546 
L 100.583892 168.933592 
L 100.807204 167.382078 
L 101.030515 161.416483 
L 101.253827 159.439346 
L 101.477139 163.627043 
L 101.70045 165.60418 
L 101.923762 164.052666 
L 102.147074 166.263226 
L 102.370385 164.945134 
L 102.817009 168.041123 
L 103.04032 167.81122 
L 103.263632 172.22882 
L 103.486943 181.290403 
L 103.710255 176.872803 
L 103.933567 174.665763 
L 104.38019 187.68162 
L 104.603502 189.89218 
L 104.826813 185.704483 
L 105.050125 185.47458 
L 105.273437 184.815534 
L 105.496748 188.110762 
L 105.943372 184.355728 
L 106.166683 187.221813 
L 106.613307 183.926586 
L 106.836618 181.719546 
L 107.05993 185.903722 
L 107.283242 183.696682 
L 107.506553 184.355728 
L 107.729865 187.221813 
L 107.953177 187.880859 
L 108.176488 185.673819 
L 108.3998 188.539905 
L 108.623112 188.539905 
L 108.846423 190.287138 
L 109.069735 193.153224 
L 109.73967 178.84994 
L 109.962981 179.508986 
L 110.186293 178.84994 
L 110.409605 180.168031 
L 110.632916 180.168031 
L 110.856228 180.827077 
L 111.07954 185.244677 
L 111.302851 180.827077 
L 111.526163 182.145168 
L 111.749475 186.332865 
L 111.972786 186.332865 
L 112.41941 184.355728 
L 112.642721 177.301946 
L 112.866033 181.915265 
L 113.312656 172.22882 
L 113.535968 175.290625 
L 113.75928 172.887866 
L 113.982591 175.983854 
L 114.205903 175.983854 
L 114.429215 165.638364 
L 114.652526 171.569774 
L 114.875838 171.799678 
L 115.09915 166.956455 
L 115.322461 168.041123 
L 115.545773 172.887866 
L 115.769085 173.546911 
L 115.992396 178.16023 
L 116.215708 176.183093 
L 116.43902 178.390133 
L 116.662331 177.072042 
L 116.885643 178.390133 
L 117.332266 178.390133 
L 117.555578 175.094906 
L 118.002201 179.049179 
L 118.225513 173.117769 
L 118.448824 177.731088 
L 118.672136 179.049179 
L 118.895448 170.481586 
L 119.118759 172.458723 
L 119.342071 159.277811 
L 119.565383 171.799678 
L 119.788694 162.573039 
L 120.012006 166.527313 
L 120.458629 167.845404 
L 120.681941 164.550176 
L 120.905253 167.845404 
L 121.128564 166.757216 
L 121.351876 167.416262 
L 121.575188 172.259484 
L 121.798499 172.259484 
L 122.021811 175.983854 
L 122.245123 175.094906 
L 122.468434 177.960991 
L 122.691746 177.960991 
L 122.915058 176.412997 
L 123.138369 176.6429 
L 123.361681 170.910729 
L 123.584992 168.274546 
L 123.808304 167.615501 
L 124.031616 161.220764 
L 124.254927 160.561718 
L 124.478239 154.826027 
L 124.701551 159.902673 
L 124.924862 158.780301 
L 125.148174 152.618987 
L 125.371486 155.25517 
L 125.594797 156.144118 
L 126.264732 164.08685 
L 126.488044 165.404941 
L 126.934667 161.87981 
L 127.157979 161.220764 
L 127.381291 159.013724 
L 127.604602 159.013724 
L 128.051226 163.427804 
L 128.274537 163.856946 
L 128.497849 165.175038 
L 128.944472 170.01826 
L 129.167784 170.677306 
L 129.391096 173.546911 
L 129.614407 171.569774 
L 129.837719 173.117769 
L 130.061031 173.117769 
L 130.507654 169.359214 
L 130.730965 170.677306 
L 131.177589 167.152174 
L 131.4009 166.493129 
L 131.624212 172.458723 
L 131.847524 173.117769 
L 132.294147 177.106226 
L 132.517459 173.347672 
L 132.74077 177.531849 
L 132.964082 173.347672 
L 133.187394 174.006718 
L 133.410705 168.933592 
L 133.634017 171.140632 
L 133.857329 171.799678 
L 134.08064 171.799678 
L 134.303952 167.845404 
L 134.527264 172.029581 
L 134.750575 166.29741 
L 134.973887 169.822541 
L 135.197199 169.822541 
L 135.42051 165.638364 
L 135.643822 164.08685 
L 135.867134 156.607445 
L 136.090445 162.109713 
L 136.313757 159.243627 
L 136.537069 161.220764 
L 136.76038 162.109713 
L 136.983692 162.109713 
L 137.207004 163.661227 
L 137.653627 161.450667 
L 137.876938 160.791622 
L 138.10025 161.450667 
L 138.323562 161.450667 
L 138.546873 164.320273 
L 138.770185 164.320273 
L 138.993497 160.791622 
L 139.44012 164.979318 
L 139.663432 163.661227 
L 139.886743 167.615501 
L 140.110055 169.163495 
L 140.333367 165.638364 
L 140.556678 171.140632 
L 140.77999 172.688626 
L 141.003302 176.872803 
L 141.226613 174.665763 
L 141.449925 174.006718 
L 141.673237 170.481586 
L 141.896548 174.665763 
L 142.11986 171.799678 
L 142.343172 172.887866 
L 142.566483 172.887866 
L 142.789795 174.43586 
L 143.013107 170.910729 
L 143.236418 172.887866 
L 143.45973 172.887866 
L 143.683042 169.359214 
L 143.906353 172.22882 
L 144.352976 173.776814 
L 144.7996 168.274546 
L 145.022911 167.615501 
L 145.246223 170.481586 
L 146.13947 165.209222 
L 146.362781 167.186358 
L 146.586093 170.71149 
L 146.809405 167.186358 
L 147.032716 167.186358 
L 147.256028 168.50445 
L 147.47934 173.810998 
L 147.925963 167.416262 
L 148.149275 168.734353 
L 148.372586 167.416262 
L 148.595898 172.259484 
L 148.81921 170.71149 
L 149.042521 170.052444 
L 149.265833 170.052444 
L 149.489145 172.688626 
L 149.712456 172.91853 
L 149.935768 172.91853 
L 150.15908 172.259484 
L 150.382391 167.845404 
L 150.605703 171.370535 
L 150.829015 169.393398 
L 151.052326 168.734353 
L 151.275638 170.941393 
L 151.498949 166.757216 
L 151.722261 166.757216 
L 151.945573 164.320273 
L 152.392196 167.845404 
L 152.615508 167.845404 
L 152.838819 170.71149 
L 153.062131 171.370535 
L 153.285443 167.845404 
L 153.732066 174.665763 
L 153.955378 164.350937 
L 154.178689 176.213758 
L 154.402001 176.018038 
L 154.848624 185.704483 
L 155.071936 182.179352 
L 155.295248 183.497443 
L 155.518559 182.838398 
L 155.741871 181.290403 
L 155.965183 185.47458 
L 156.188494 182.608494 
L 156.411806 187.451717 
L 156.635118 184.815534 
L 156.858429 185.045438 
L 157.081741 186.363529 
L 157.305053 186.133626 
L 157.751676 191.869317 
L 157.974987 200.041951 
L 158.198299 193.187408 
L 158.421611 194.505499 
L 158.644922 194.505499 
L 158.868234 194.272076 
L 159.761481 203.96204 
L 160.208104 200.436909 
L 160.431416 201.755 
L 160.654727 203.96204 
L 160.878039 208.37964 
L 161.101351 210.58668 
L 161.324662 214.341715 
L 161.547974 208.839447 
L 161.771286 215.00076 
L 161.994597 213.222863 
L 162.217909 213.65066 
L 162.441221 214.968751 
L 162.664532 218.493883 
L 162.887844 216.945888 
L 163.111156 210.551151 
L 163.334467 214.076283 
L 163.557779 210.123354 
L 163.781091 210.123354 
L 164.004402 209.464308 
L 164.227714 213.417237 
L 164.451026 207.257268 
L 164.674337 204.391183 
L 164.897649 196.448452 
L 165.12096 199.973583 
L 165.344272 198.655492 
L 165.567584 199.973583 
L 165.790895 197.3374 
L 166.014207 199.314537 
L 166.237519 196.218548 
L 166.46083 196.218548 
L 167.130765 200.40138 
L 167.354077 196.218548 
L 167.577389 195.789406 
L 167.8007 197.996446 
L 168.024012 193.812269 
L 168.247324 196.019309 
L 168.470635 194.471315 
L 168.917259 193.383127 
L 169.14057 191.835133 
L 169.363882 187.417533 
L 169.587194 191.605229 
L 169.810505 191.371806 
L 170.257129 191.371806 
L 170.48044 190.053715 
L 170.703752 191.605229 
L 171.150375 192.92332 
L 171.373687 189.394669 
L 171.596998 190.053715 
L 172.043622 192.689897 
L 172.266933 190.946184 
L 172.490245 196.678355 
L 172.713557 190.287138 
L 173.16018 185.210493 
L 173.383492 185.210493 
L 173.606803 184.551447 
L 173.830115 185.210493 
L 174.276738 185.210493 
L 174.50005 184.551447 
L 174.723362 184.551447 
L 174.946673 181.915265 
L 175.169985 183.233356 
L 175.393297 181.256219 
L 175.616608 182.57431 
L 175.83992 181.915265 
L 176.063232 181.915265 
L 176.286543 180.597173 
L 176.509855 181.256219 
L 176.733167 180.597173 
L 176.956478 180.597173 
L 177.17979 181.915265 
L 177.403102 179.279082 
L 177.626413 174.665763 
L 177.849725 177.960991 
L 178.073037 174.006718 
L 178.296348 174.006718 
L 178.51966 173.347672 
L 178.742971 168.734353 
L 178.966283 166.561497 
L 179.412906 165.009983 
L 179.85953 161.913994 
L 180.082841 155.519257 
L 180.529465 160.132576 
L 180.752776 166.527313 
L 180.976088 169.393398 
L 181.1994 162.768758 
L 181.422711 165.638364 
L 181.646023 165.638364 
L 182.092646 160.132576 
L 182.53927 160.132576 
L 182.762581 155.289354 
L 182.985893 156.178303 
L 183.209205 160.365999 
L 183.432516 156.837348 
L 183.87914 159.706954 
L 184.102451 160.365999 
L 184.325763 163.891131 
L 184.549075 163.002182 
L 184.772386 161.450667 
L 184.995698 160.791622 
L 185.21901 156.178303 
L 185.442321 157.070771 
L 185.888944 151.994126 
L 186.335568 160.365999 
L 186.558879 159.706954 
L 186.782191 163.002182 
L 187.005503 159.473531 
L 187.228814 162.343136 
L 187.452126 161.025045 
L 187.898749 164.320273 
L 188.122061 162.768758 
L 188.345373 167.186358 
L 188.568684 169.393398 
L 188.791996 172.91853 
L 189.015308 172.259484 
L 189.238619 170.941393 
L 189.461931 170.941393 
L 189.685243 168.734353 
L 189.908554 168.734353 
L 190.131866 167.186358 
L 190.355178 167.186358 
L 190.578489 170.941393 
L 190.801801 170.052444 
L 191.025113 170.71149 
L 191.248424 167.186358 
L 191.471736 170.71149 
L 191.695048 168.50445 
L 191.918359 167.615501 
L 192.141671 164.08685 
L 192.364982 164.745895 
L 192.588294 166.29741 
L 192.811606 164.745895 
L 193.034917 166.723032 
L 193.258229 166.493129 
L 193.481541 168.470266 
L 193.704852 164.945134 
L 194.151476 163.39362 
L 194.374787 160.527534 
L 194.598099 162.734574 
L 194.821411 162.734574 
L 195.268034 164.515992 
L 195.491346 160.098392 
L 195.714657 160.757438 
L 195.937969 160.098392 
L 196.161281 162.308952 
L 196.384592 162.967998 
L 196.607904 162.967998 
L 196.831216 159.67277 
L 197.054527 163.197901 
L 197.277839 162.768758 
L 197.501151 160.331815 
L 197.724462 160.990861 
L 197.947774 160.990861 
L 198.171086 162.967998 
L 198.394397 161.649906 
L 198.841021 164.515992 
L 199.064332 165.175038 
L 199.287644 160.757438 
L 199.510955 162.967998 
L 199.734267 162.967998 
L 199.957579 163.627043 
L 200.404202 163.627043 
L 200.627514 162.734574 
L 200.850825 162.734574 
L 201.074137 157.002403 
L 201.297449 155.454409 
L 201.52076 157.661449 
L 201.744072 154.795363 
L 201.967384 157.661449 
L 202.190695 158.320494 
L 202.414007 153.243849 
L 202.637319 156.113454 
L 202.86063 154.795363 
L 203.083942 157.661449 
L 203.307254 151.925758 
L 203.753877 157.661449 
L 203.977189 155.454409 
L 204.2005 159.209443 
L 204.423812 159.868489 
L 204.647124 158.320494 
L 204.870435 158.320494 
L 205.093747 156.7725 
L 205.317059 158.320494 
L 205.54037 158.320494 
L 205.763682 158.550398 
L 205.986993 157.891352 
L 206.210305 155.684312 
L 206.433617 157.232306 
L 206.656928 157.232306 
L 206.88024 156.573261 
L 207.103552 155.025266 
L 207.550175 156.343358 
L 207.773487 158.97954 
L 207.996798 158.97954 
L 208.22011 152.584803 
L 208.443422 152.584803 
L 208.666733 153.477272 
L 208.890045 149.948621 
L 209.113357 149.948621 
L 209.55998 154.366221 
L 210.006603 148.863953 
L 210.229915 150.182044 
L 210.453227 157.002403 
L 210.676538 158.320494 
L 211.123162 158.320494 
L 211.346473 150.607666 
L 211.569785 148.434811 
L 211.793097 149.982805 
L 212.016408 149.752902 
L 212.23972 150.411947 
L 212.463032 149.752902 
L 212.686343 149.752902 
L 212.909655 148.204907 
L 213.132966 149.093856 
L 213.356278 146.886816 
L 213.57959 147.545862 
L 213.802901 145.994347 
L 214.472836 163.197901 
L 214.696148 183.858217 
L 214.91946 186.727823 
L 215.142771 187.386868 
L 215.366083 185.176308 
L 215.812706 183.628314 
L 216.036018 179.67404 
L 216.25933 178.785092 
L 216.482641 187.386868 
L 216.705953 185.835354 
L 217.152576 188.045914 
L 217.375888 186.727823 
L 217.822511 178.785092 
L 218.045823 180.992132 
L 218.492446 175.060721 
L 218.93907 172.620258 
L 219.162381 173.279304 
L 219.385693 179.014995 
L 219.609005 175.489864 
L 219.832316 180.562989 
L 220.055628 175.719767 
L 220.278939 179.014995 
L 220.725563 174.830818 
L 220.948874 176.148909 
L 221.172186 174.597395 
L 221.395498 170.413218 
L 221.618809 170.413218 
L 221.842121 161.385819 
L 222.065433 118.775413 
L 222.288744 123.189493 
L 222.512056 132.680219 
L 222.735368 123.189493 
L 222.958679 119.005317 
L 223.181991 122.530448 
L 223.405303 133.339265 
L 223.628614 127.607093 
L 223.851926 126.714625 
L 224.298549 122.300545 
L 224.521861 124.936727 
L 224.745173 123.848539 
L 224.968484 128.032716 
L 225.191796 125.825676 
L 225.415108 126.484721 
L 226.085043 132.450316 
L 226.308354 129.814133 
L 226.531666 106.713354 
L 226.754977 115.51085 
L 226.978289 106.054308 
L 227.201601 108.031445 
L 227.648224 105.395263 
L 227.871536 107.602303 
L 228.318159 119.039501 
L 228.541471 121.246541 
L 228.764782 121.905586 
L 229.211406 124.771672 
L 229.658029 115.315131 
L 229.881341 117.062364 
L 230.104652 123.683484 
L 230.327964 124.575953 
L 230.551276 123.916907 
L 230.774587 121.706347 
L 230.997899 124.146811 
L 231.444522 121.939771 
L 231.891146 111.556576 
L 232.114457 117.292267 
L 232.337769 115.974176 
L 232.561081 118.840262 
L 232.784392 118.181216 
L 233.231016 119.499307 
L 233.454327 119.269404 
L 233.677639 119.499307 
L 233.90095 121.706347 
L 234.124262 125.234998 
L 234.347574 125.894044 
L 234.570885 125.894044 
L 234.794197 127.212135 
L 235.017509 126.55309 
L 235.24082 128.101084 
L 235.464132 128.101084 
L 235.687444 124.575953 
L 235.910755 124.575953 
L 236.134067 123.916907 
L 236.357379 122.598816 
L 236.58069 122.598816 
L 236.804002 121.939771 
L 237.027314 124.805856 
L 237.250625 124.805856 
L 237.473937 124.146811 
L 237.697249 121.939771 
L 237.92056 124.146811 
L 238.143872 124.376714 
L 238.367184 123.487765 
L 238.590495 125.694805 
L 238.813807 122.828719 
L 239.037119 124.805856 
L 239.26043 128.330987 
L 239.483742 127.012896 
L 239.707054 127.012896 
L 239.930365 124.805856 
L 240.153677 126.123947 
L 240.6003 124.146811 
L 240.823612 126.123947 
L 241.046923 126.782993 
L 241.270235 136.469438 
L 241.493547 139.339043 
L 241.716858 140.423711 
L 242.163482 137.327722 
L 242.386793 140.193808 
L 242.610105 135.350586 
L 242.833417 134.69154 
L 243.056728 135.350586 
L 243.503352 132.4845 
L 243.726663 134.69154 
L 243.949975 133.143546 
L 244.173287 133.143546 
L 244.396598 137.327722 
L 244.61991 134.461637 
L 244.843222 136.668677 
L 245.066533 133.143546 
L 245.513157 138.645813 
L 245.736468 135.120682 
L 245.95978 137.327722 
L 246.183092 137.557626 
L 246.406403 135.350586 
L 246.629715 135.350586 
L 246.853027 136.668677 
L 247.29965 135.350586 
L 247.522961 140.193808 
L 247.746273 139.304859 
L 247.969585 137.097819 
L 248.192896 136.438773 
L 248.63952 141.511899 
L 248.862831 141.511899 
L 249.086143 138.645813 
L 249.309455 139.304859 
L 249.97939 146.588545 
L 250.426013 142.170945 
L 250.649325 144.377985 
L 251.095948 137.986768 
L 251.31926 137.986768 
L 251.542571 137.327722 
L 251.765883 135.120682 
L 251.989195 135.120682 
L 252.212506 132.910122 
L 252.435818 129.384991 
L 252.65913 130.703082 
L 252.882441 133.569168 
L 253.105753 133.569168 
L 253.329065 134.228213 
L 253.552376 131.132225 
L 253.775688 134.887259 
L 253.998999 132.680219 
L 254.222311 132.680219 
L 254.668934 127.607093 
L 254.892246 141.941041 
L 255.115558 147.014167 
L 255.338869 140.62295 
L 255.562181 138.41591 
L 255.785493 125.396533 
L 256.008804 121.44226 
L 256.455428 127.836997 
L 256.678739 124.311866 
L 257.125363 122.101306 
L 257.348674 124.078442 
L 257.571986 121.871402 
L 257.795298 117.457322 
L 258.018609 102.460809 
L 258.241921 101.142718 
L 258.688544 113.269626 
L 258.911856 111.062586 
L 259.358479 126.948048 
L 259.581791 121.44226 
L 259.805103 119.465123 
L 260.028414 119.698546 
L 260.251726 118.380455 
L 260.698349 126.319666 
L 260.921661 118.380455 
L 261.368284 121.905586 
L 261.591596 119.92845 
L 261.814907 119.92845 
L 262.038219 120.817398 
L 262.261531 128.530226 
L 262.484842 124.34253 
L 262.708154 123.683484 
L 262.931466 124.34253 
L 263.154777 124.34253 
L 263.378089 123.024438 
L 263.601401 124.575953 
L 263.824712 121.706347 
L 264.048024 124.575953 
L 264.271336 123.916907 
L 264.494647 126.55309 
L 264.717959 120.158353 
L 264.941271 119.499307 
L 265.164582 116.633222 
L 265.387894 123.024438 
L 265.611206 123.916907 
L 265.834517 123.916907 
L 266.057829 124.575953 
L 266.281141 125.894044 
L 266.504452 129.189272 
L 266.727764 129.189272 
L 266.951076 127.212135 
L 267.174387 116.169895 
L 267.397699 116.169895 
L 267.621011 117.292267 
L 267.844322 110.238485 
L 268.067634 115.744273 
L 268.290945 111.556576 
L 268.514257 112.874667 
L 268.96088 111.326673 
L 269.184192 109.119633 
L 269.407504 111.326673 
L 269.630815 111.985718 
L 269.854127 111.326673 
L 270.077439 107.142496 
L 270.30075 108.460587 
L 270.747374 106.020124 
L 270.970685 109.778678 
L 271.193997 110.008582 
L 271.417309 107.142496 
L 271.64062 106.483451 
L 271.863932 108.460587 
L 272.087244 108.460587 
L 272.310555 110.667627 
L 272.533867 107.571638 
L 272.757179 110.437724 
L 272.98049 110.437724 
L 273.203802 111.09677 
L 273.427114 116.828941 
L 273.650425 130.078221 
L 273.873737 132.714403 
L 274.097049 129.848318 
L 274.766983 133.802591 
L 274.990295 133.802591 
L 275.213607 134.461637 
L 275.436918 137.327722 
L 275.66023 135.120682 
L 275.883542 139.534762 
L 276.106853 139.534762 
L 276.553477 135.120682 
L 277.0001 139.534762 
L 277.223412 137.327722 
L 277.670035 141.511899 
L 277.893347 142.400848 
L 278.116658 140.193808 
L 278.33997 141.511899 
L 278.563282 144.148081 
L 278.786593 148.991304 
L 279.009905 146.355121 
L 279.233217 149.224727 
L 279.67984 144.148081 
L 280.126463 147.673213 
L 280.349775 146.355121 
L 280.796398 146.355121 
L 281.01971 142.82999 
L 281.243022 141.281996 
L 281.466333 141.281996 
L 281.912956 142.600087 
L 282.136268 143.688275 
L 282.35958 141.477715 
L 282.582891 142.13676 
L 282.806203 141.477715 
L 283.029515 142.13676 
L 283.476138 133.734223 
L 283.69945 140.358863 
L 283.922761 143.224948 
L 284.146073 141.017908 
L 284.369385 140.78666 
L 284.592696 146.288928 
L 284.816008 146.288928 
L 285.03932 154.197475 
L 285.262631 134.821066 
L 285.709255 132.614026 
L 286.155878 141.212283 
L 286.37919 160.822115 
L 286.602501 154.657282 
L 286.825813 161.940967 
L 287.272436 161.940967 
L 287.495748 162.17087 
L 287.71906 164.148007 
L 288.165683 179.604327 
L 288.388994 158.875643 
L 288.612306 161.745248 
L 288.835618 158.216597 
L 289.282241 161.511825 
L 289.505553 157.327648 
L 289.728864 161.745248 
L 289.952176 159.534688 
L 290.175488 165.040476 
L 290.398799 164.38143 
L 290.622111 157.327648 
L 290.845423 163.722385 
L 291.068734 164.148007 
L 291.292046 169.420372 
L 291.515358 170.971886 
L 291.738669 154.197475 
L 291.961981 149.12083 
L 292.185293 150.672344 
L 292.408604 150.438921 
L 292.631916 148.461784 
L 292.855228 149.779875 
L 293.301851 148.461784 
L 293.525163 148.461784 
L 293.748474 147.143693 
L 293.971786 147.143693 
L 294.195098 149.779875 
L 294.418409 151.097966 
L 294.641721 149.779875 
L 294.865033 150.438921 
L 295.088344 150.438921 
L 295.311656 151.097966 
L 295.534967 145.365795 
L 295.758279 144.047704 
L 296.204902 147.572835 
L 296.428214 141.181618 
L 296.651526 140.059246 
L 296.874837 146.453983 
L 297.098149 145.561514 
L 297.544772 155.05224 
L 297.768084 152.186154 
L 298.214707 157.228616 
L 298.438019 158.546707 
L 298.661331 157.887661 
L 298.884642 158.546707 
L 299.331266 168.233152 
L 299.554577 168.233152 
L 299.777889 166.256015 
L 300.001201 169.12562 
L 300.224512 166.91506 
L 300.671136 174.397985 
L 300.894447 172.616567 
L 301.341071 172.616567 
L 301.564382 174.823607 
L 301.787694 171.298476 
L 302.011006 173.505516 
L 302.234317 177.034167 
L 302.457629 177.923116 
L 302.68094 180.130156 
L 302.904252 179.241207 
L 303.127564 183.854527 
L 303.350875 180.988441 
L 303.797499 182.306532 
L 304.02081 180.095972 
L 304.244122 182.965578 
L 304.467434 180.755018 
L 304.690745 182.965578 
L 304.914057 182.306532 
L 305.36068 174.823607 
L 305.583992 167.114299 
L 305.807304 167.773345 
L 306.030615 164.478117 
L 306.253927 164.478117 
L 306.477239 163.160026 
L 306.70055 172.616567 
L 306.923862 168.662294 
L 307.147174 172.616567 
L 307.370485 179.67035 
L 307.593797 178.777881 
L 307.817109 178.777881 
L 308.04042 176.570841 
L 308.263732 177.229887 
L 308.487044 179.436927 
L 308.710355 177.229887 
L 309.38029 187.379658 
L 309.826913 177.45979 
L 310.050225 183.624623 
L 310.496848 186.919851 
L 310.72016 183.624623 
L 310.943472 184.513572 
L 311.390095 172.386664 
L 311.836718 169.980385 
L 312.06003 169.980385 
L 312.283342 175.482653 
L 312.506653 170.409527 
L 312.729965 169.980385 
L 313.176588 177.923116 
L 313.623212 174.397985 
L 313.846523 174.397985 
L 314.069835 173.505516 
L 314.293147 171.298476 
L 314.516458 172.616567 
L 314.963082 170.409527 
L 315.409705 167.773345 
L 315.633017 163.160026 
L 315.856328 161.841935 
L 316.07964 161.841935 
L 316.526263 163.819072 
L 316.749575 164.478117 
L 316.972886 162.50098 
L 317.196198 167.574106 
L 317.41951 167.574106 
L 317.642821 166.91506 
L 317.866133 165.596969 
L 318.089445 165.367066 
L 318.312756 161.182889 
L 318.536068 162.071838 
L 318.75938 156.998712 
L 318.982691 159.205752 
L 319.429315 160.523844 
L 319.875938 152.811016 
L 320.09925 151.492925 
L 320.322561 151.492925 
L 320.545873 147.078845 
L 320.769185 145.52733 
L 321.215808 155.217295 
L 321.43912 151.692164 
L 321.662431 144.408478 
L 321.885743 145.726569 
L 322.109055 142.860484 
L 322.332366 147.933609 
L 322.555678 141.968015 
L 322.778989 127.404164 
L 323.002301 132.051667 
L 323.225613 130.500152 
L 323.895548 117.484296 
L 324.118859 106.445576 
L 324.342171 113.10088 
L 324.565483 113.725741 
L 324.788794 108.6868 
L 325.012106 110.20061 
L 325.235418 112.641073 
L 325.458729 111.982028 
L 325.682041 105.621475 
L 325.905353 107.368709 
L 326.128664 101.203875 
L 326.351976 102.292063 
L 326.798599 98.996835 
L 327.021911 102.06216 
L 327.245223 121.472753 
L 327.468534 115.078017 
L 327.691846 118.603148 
L 327.915158 107.135285 
L 328.138469 104.928245 
L 328.361781 110.629752 
L 328.585093 110.859656 
L 328.808404 113.066696 
L 329.031716 113.725741 
L 329.255028 120.54962 
L 329.701651 123.185803 
L 329.924962 126.481031 
L 330.148274 133.960435 
L 330.371586 126.906653 
L 330.594897 127.994841 
L 330.818209 127.994841 
L 331.041521 130.860927 
L 331.264832 130.201881 
L 331.488144 130.631023 
L 331.934767 137.684806 
L 332.158079 136.366714 
L 332.381391 137.255663 
L 332.604702 141.639079 
L 332.828014 140.550891 
L 333.051326 150.470759 
L 333.274637 145.624017 
L 333.721261 141.010698 
L 333.944572 146.746389 
L 334.167884 144.539349 
L 334.614507 148.723526 
L 334.837819 148.06448 
L 335.061131 157.984348 
L 335.507754 165.463753 
L 335.954377 161.708718 
L 336.177689 161.708718 
L 336.401001 165.892895 
L 336.624312 161.475295 
L 336.847624 163.026809 
L 337.070935 161.475295 
L 337.294247 161.475295 
L 337.517559 163.685855 
L 337.74087 163.451087 
L 337.964182 163.451087 
L 338.410805 161.014144 
L 338.634117 159.696052 
L 339.08074 153.532564 
L 339.527364 159.696052 
L 339.750675 159.925956 
L 339.973987 155.743124 
L 340.643922 159.268255 
L 341.313857 151.555427 
L 341.76048 159.696052 
L 341.983792 153.071412 
L 342.430415 158.803584 
L 342.653727 158.57368 
L 342.877039 158.57368 
L 343.10035 155.278452 
L 343.323662 149.546281 
L 343.546973 147.335721 
L 343.770285 152.412367 
L 343.993597 153.071412 
L 344.216908 155.278452 
L 344.663532 143.846119 
L 344.886843 143.616216 
L 345.110155 135.903388 
L 345.333467 135.673485 
L 345.556778 137.650621 
L 345.78009 137.650621 
L 346.226713 148.459438 
L 346.450025 150.666478 
L 346.673337 135.474246 
L 347.11996 145.823256 
L 347.343272 151.984569 
L 347.566583 149.118484 
L 347.789895 148.229535 
L 348.013207 149.118484 
L 348.236518 153.071412 
L 348.45983 146.018975 
L 348.683142 145.593353 
L 348.906453 144.041838 
L 349.129765 144.934307 
L 349.353077 144.934307 
L 349.576388 145.823256 
L 350.023012 141.639079 
L 350.246323 136.792337 
L 350.469635 135.244342 
L 350.692946 141.639079 
L 350.916258 152.841509 
L 351.13957 152.182464 
L 351.362881 150.864372 
L 351.586193 158.377961 
L 352.032816 165.002601 
L 352.47944 171.393818 
L 352.702751 171.393818 
L 352.926063 170.504869 
L 353.149375 174.459143 
L 353.372686 174.459143 
L 353.595998 171.393818 
L 353.81931 173.600858 
L 354.042621 170.075727 
L 354.265933 184.643098 
L 354.489245 188.203758 
L 354.712556 187.973855 
L 355.382491 172.977341 
L 355.605803 177.820564 
L 356.052426 181.349215 
L 356.275738 179.138655 
L 356.49905 179.796356 
L 356.722361 181.114447 
L 356.945673 181.114447 
L 357.168984 183.325007 
L 357.392296 178.907407 
L 358.062231 180.884544 
L 358.285543 184.179771 
L 358.732166 172.282767 
L 358.955478 190.111182 
L 359.178789 187.904142 
L 359.402101 189.716224 
L 359.625413 188.398132 
L 359.848724 171.429347 
L 360.072036 165.463753 
L 360.295348 163.256713 
L 360.518659 165.892895 
L 360.741971 171.623721 
L 360.965283 163.685855 
L 361.188594 165.892895 
L 361.411906 163.915758 
L 361.635218 164.145661 
L 361.858529 164.574804 
L 362.081841 167.868687 
L 362.305153 167.868687 
L 362.528464 168.527732 
L 362.975088 172.941812 
L 363.198399 172.941812 
L 363.421711 168.757636 
L 363.645023 168.988884 
L 363.868334 173.406484 
L 364.091646 175.613524 
L 364.314957 176.041321 
L 364.761581 163.915758 
L 364.984892 170.540398 
L 365.208204 180.65464 
L 365.431516 179.106646 
L 365.654827 179.106646 
L 365.878139 180.424737 
L 366.101451 185.727766 
L 366.548074 190.145366 
L 366.994697 197.858194 
L 367.218009 194.528782 
L 367.664632 202.897135 
L 367.887944 197.82401 
L 368.111256 202.008186 
L 368.334567 193.869736 
L 368.557879 194.758685 
L 369.004502 194.758685 
L 369.227814 197.394867 
L 369.451126 194.528782 
L 369.674437 197.82401 
L 369.897749 196.076776 
L 370.121061 202.471513 
L 370.344372 198.483055 
L 370.567684 198.483055 
L 370.790995 188.363948 
L 371.46093 200.655911 
L 371.684242 200.226769 
L 371.907554 192.318222 
L 372.130865 191.659176 
L 372.577489 182.631777 
L 372.8008 173.800097 
L 373.024112 177.984274 
L 373.247424 173.141051 
L 373.470735 176.007137 
L 373.694047 180.424737 
L 373.917359 176.23704 
L 374.14067 176.23704 
L 374.587294 178.677504 
L 374.810605 181.543589 
L 375.033917 178.677504 
L 375.257229 182.202635 
L 375.48054 173.600858 
L 376.150475 176.896086 
L 376.373787 172.941812 
L 376.597099 175.152372 
L 377.043722 175.152372 
L 377.267034 179.106646 
L 377.490345 176.896086 
L 377.713657 179.532268 
L 377.936968 177.325228 
L 378.16028 181.742828 
L 378.830215 188.563187 
L 379.053527 202.042371 
L 379.276838 203.590365 
L 379.50015 210.874051 
L 379.723462 204.678553 
L 379.946773 212.621284 
L 380.170085 214.828324 
L 380.393397 213.510233 
L 380.616708 219.671546 
L 380.84002 209.785863 
L 381.063332 216.805461 
L 381.286643 218.782598 
L 381.509955 225.173814 
L 381.733267 228.273323 
L 381.956578 236.641677 
L 382.17989 236.411773 
L 382.403202 240.170328 
L 382.849825 231.568551 
L 383.073137 232.920826 
L 383.296448 222.966774 
L 383.51976 226.066283 
L 383.743072 226.066283 
L 383.966383 230.909506 
L 384.189695 230.679602 
L 384.413007 230.679602 
L 384.636318 232.227597 
L 384.85963 221.219541 
L 385.306253 213.310994 
L 385.529565 223.855723 
L 385.752876 228.04342 
L 385.976188 227.384374 
L 386.1995 228.04342 
L 386.422811 216.575558 
L 386.646123 217.464506 
L 387.092746 185.104249 
L 387.316058 187.544713 
L 387.762681 209.555959 
L 387.985993 205.371783 
L 388.209305 206.030828 
L 388.655928 192.387935 
L 388.87924 187.774616 
L 389.102551 178.547978 
L 389.325863 192.851261 
L 389.549175 184.709291 
L 389.772486 191.53317 
L 389.995798 184.942714 
L 390.21911 188.896988 
L 390.442421 188.896988 
L 390.665733 200.560569 
L 390.889045 200.988367 
L 391.112356 200.329321 
L 391.335668 191.958793 
L 391.558979 193.74021 
L 391.782291 204.77893 
L 392.005603 206.560348 
L 392.228914 203.031697 
L 392.452226 203.924166 
L 392.675538 196.441241 
L 393.345473 215.357844 
L 393.568784 211.40357 
L 393.792096 210.514621 
L 394.015408 208.304061 
L 394.238719 208.304061 
L 394.462031 210.940244 
L 394.685343 211.173667 
L 394.908654 203.495023 
L 395.131966 201.287983 
L 395.355278 175.716076 
L 395.578589 172.650752 
L 395.801901 164.512301 
L 396.025213 170.014569 
L 396.471836 168.696478 
L 396.918459 161.642696 
L 397.141771 132.9748 
L 397.365083 146.186376 
L 397.588394 147.504467 
L 397.811706 157.194432 
L 398.035018 157.194432 
L 398.258329 141.308969 
L 398.481641 138.247165 
L 398.704952 145.067524 
L 398.928264 146.615518 
L 399.151576 153.6693 
L 399.374887 153.6693 
L 399.598199 144.178575 
L 400.044822 135.147656 
L 400.268134 139.565256 
L 400.714757 132.082331 
L 400.938069 149.910746 
L 401.161381 142.002199 
L 401.384692 140.025062 
L 401.608004 143.090387 
L 401.831316 157.657758 
L 402.054627 156.765289 
L 402.277939 150.833879 
L 402.501251 154.788152 
L 402.724562 143.124571 
L 402.947874 143.124571 
L 403.171186 137.38888 
L 403.394497 138.706971 
L 403.617809 130.338617 
L 403.841121 128.128057 
L 404.064432 130.76424 
L 404.287744 137.38888 
L 404.511056 135.18184 
L 404.734367 126.384344 
L 404.957679 122.196647 
L 405.18099 134.093652 
L 405.404302 131.886612 
L 405.850925 159.205752 
L 406.074237 160.523844 
L 406.297549 159.864798 
L 406.52086 160.523844 
L 406.744172 159.205752 
L 406.967484 162.50098 
L 407.190795 163.819072 
L 407.414107 163.819072 
L 407.637419 161.841935 
L 407.86073 163.819072 
L 408.084042 164.478117 
L 408.753977 164.478117 
L 408.977289 163.819072 
L 409.2006 163.819072 
L 409.423912 165.796208 
L 409.647224 163.160026 
L 409.870535 166.455254 
L 410.093847 165.796208 
L 410.317159 163.784887 
L 410.54047 168.168303 
L 410.763782 166.850212 
L 411.210405 177.45979 
L 411.433717 180.988441 
L 411.657029 177.888932 
L 411.88034 168.202487 
L 412.103652 166.884396 
L 412.326963 158.478339 
L 412.550275 157.819293 
L 412.773587 166.191167 
L 412.996898 170.375343 
L 413.22021 184.019581 
L 413.443522 185.337673 
L 413.666833 180.724354 
L 413.890145 179.601981 
L 414.336768 209.985102 
L 414.56008 207.774542 
L 414.783392 207.774542 
L 415.006703 209.555959 
L 415.230015 209.555959 
L 415.453327 211.762999 
L 415.676638 216.606222 
L 416.123262 212.192142 
L 416.346573 212.192142 
L 416.569885 205.567502 
L 416.793197 205.567502 
L 417.016508 204.053691 
L 417.23982 212.192142 
L 417.463132 212.192142 
L 417.686443 209.092633 
L 418.133067 213.081091 
L 418.356378 205.797405 
L 418.57969 225.437902 
L 418.803002 220.39896 
L 419.026313 211.56728 
L 419.249625 213.77432 
L 419.472936 217.529355 
L 419.696248 218.847446 
L 419.91956 215.092411 
L 420.142871 215.092411 
L 420.589495 222.801719 
L 420.812806 203.195407 
L 421.036118 219.276588 
L 421.25943 225.901228 
L 421.482741 226.330371 
L 421.706053 204.743401 
L 422.152676 221.946955 
L 422.375988 221.946955 
L 422.5993 242.709824 
L 422.822611 242.939727 
L 423.045923 233.449001 
L 423.269235 233.449001 
L 423.492546 222.44229 
L 423.93917 214.269656 
L 424.162481 191.138212 
L 424.385793 191.138212 
L 424.609105 184.547756 
L 424.832416 185.402521 
L 425.055728 166.060296 
L 425.502351 170.244472 
L 425.725663 172.451512 
L 425.948974 166.520102 
L 426.172286 145.859786 
L 426.395598 145.20074 
L 426.618909 154.890705 
L 426.842221 173.803788 
L 427.288844 184.152798 
L 427.512156 186.359838 
L 427.735468 186.359838 
L 428.182091 190.544015 
L 428.405403 185.041747 
L 428.628714 182.834707 
L 428.852026 177.987965 
L 429.075338 178.417107 
L 429.298649 174.891976 
L 429.521961 177.562342 
L 429.968584 173.178926 
L 430.191896 172.289977 
L 430.415208 170.079417 
L 430.638519 168.99475 
L 430.861831 172.289977 
L 431.308454 157.95251 
L 431.531766 157.95251 
L 431.755078 158.611555 
L 431.978389 172.7156 
L 432.201701 153.308526 
L 432.425013 146.059025 
L 432.648324 144.081888 
L 432.871636 151.362054 
L 433.318259 146.288928 
L 433.541571 147.836923 
L 433.764882 145.399979 
L 433.988194 144.50751 
L 434.658129 137.457248 
L 434.881441 131.29728 
L 435.104752 138.775339 
L 435.328064 141.871328 
L 435.551376 133.039648 
L 435.997999 163.488962 
L 436.221311 165.665337 
L 436.444622 144.081888 
L 436.667934 141.871328 
L 436.891246 127.343006 
L 437.114557 104.437946 
L 437.561181 130.868137 
L 437.784492 131.527183 
L 438.007804 138.151823 
L 438.231116 133.734223 
L 438.454427 140.358863 
L 438.677739 138.151823 
L 438.901051 142.763797 
L 439.124362 144.50751 
L 439.570985 137.9184 
L 439.794297 133.50432 
L 440.24092 131.527183 
L 440.464232 132.416132 
L 440.910855 137.492777 
L 441.134167 137.492777 
L 441.357479 141.906857 
L 441.58079 143.454852 
L 442.250725 165.140853 
L 442.474037 177.267761 
L 442.697349 164.022001 
L 442.92066 169.095127 
L 443.143972 158.28631 
L 443.367284 159.604401 
L 443.590595 159.638586 
L 443.813907 148.170723 
L 444.037219 177.003674 
L 444.26053 177.201568 
L 444.483842 147.511678 
L 444.707154 164.876766 
L 445.153777 163.098868 
L 445.377089 163.757914 
L 445.6004 151.431767 
L 445.823712 163.987817 
L 446.047024 168.401897 
L 446.270335 162.899629 
L 446.493647 163.558675 
L 446.716958 170.183315 
L 446.94027 152.584803 
L 447.163582 151.695854 
L 447.386893 152.124997 
L 447.610205 151.036809 
L 447.833517 147.082535 
L 448.056828 147.082535 
L 448.28014 152.818226 
L 448.503452 101.739261 
L 448.726763 119.303588 
L 448.950075 99.927179 
L 449.173387 99.298797 
L 449.396698 105.034489 
L 449.62001 104.804585 
L 449.843322 97.5209 
L 450.066633 81.046105 
L 450.289945 96.003569 
L 450.513257 99.762124 
L 450.736568 96.236993 
L 450.95988 98.444033 
L 451.183192 95.80785 
L 451.406503 95.80785 
L 451.629815 96.466896 
L 451.853127 102.398306 
L 452.523062 108.988762 
L 452.746373 117.786258 
L 452.969685 104.14554 
L 453.192996 102.398306 
L 453.416308 97.980706 
L 453.862931 67.796825 
L 454.086243 72.444328 
L 454.309555 88.723404 
L 454.756178 99.762124 
L 454.97949 102.398306 
L 455.202801 117.820442 
L 455.426113 112.318174 
L 455.649425 114.525214 
L 455.872736 107.934758 
L 456.096048 127.541071 
L 456.765983 149.192889 
L 456.989295 144.778809 
L 457.212606 159.971041 
L 457.435918 163.726076 
L 457.65923 164.385121 
L 457.882541 174.734131 
L 458.105853 166.328074 
L 458.329165 170.745674 
L 458.552476 168.538634 
L 458.775788 174.699947 
L 458.9991 189.857996 
L 459.445723 189.857996 
L 459.669035 192.294939 
L 459.892346 175.554712 
L 460.115658 173.347672 
L 460.338969 186.596952 
L 460.562281 192.363307 
L 460.785593 192.363307 
L 461.008904 192.79245 
L 461.232216 197.20653 
L 461.455528 206.03821 
L 461.902151 199.876896 
L 462.125463 206.467352 
L 462.348774 202.053272 
L 462.572086 188.803992 
L 462.795398 188.803992 
L 463.018709 192.528362 
L 463.242021 181.983633 
L 463.465333 184.386392 
L 463.688644 188.803992 
L 463.911956 202.053272 
L 464.135268 194.803771 
L 464.358579 197.20653 
L 464.581891 208.839447 
L 464.805203 210.816584 
L 465.028514 214.341715 
L 465.251826 210.387441 
L 465.475138 214.805041 
L 465.698449 212.598001 
L 465.921761 214.805041 
L 466.145073 196.746723 
L 466.368384 199.153002 
L 466.591696 197.834911 
L 466.815008 195.198729 
L 467.038319 201.360042 
L 467.261631 212.598001 
L 467.931566 221.429681 
L 468.154877 221.429681 
L 468.378189 217.012081 
L 468.601501 202.053272 
L 468.824812 196.121862 
L 469.048124 199.447754 
L 469.271436 213.716853 
L 469.494747 210.191722 
L 469.718059 215.264848 
L 470.164682 201.62413 
L 470.387994 200.965084 
L 470.611306 194.340444 
L 470.834617 192.363307 
L 471.057929 188.409034 
L 471.281241 189.957028 
L 471.504552 195.033674 
L 471.727864 195.033674 
L 471.951176 197.240714 
L 472.621111 185.772851 
L 472.844422 186.236178 
L 473.067734 184.025618 
L 473.291046 293.503765 
L 473.514357 278.277348 
L 473.737669 278.936394 
L 473.96098 269.445668 
L 474.184292 270.104714 
L 474.407604 267.931858 
L 474.630915 270.138898 
L 474.854227 267.931858 
L 475.077539 263.085116 
L 475.30085 239.720249 
L 475.747474 146.790129 
L 475.970785 163.794444 
L 476.194097 146.790129 
L 476.864032 133.077523 
L 477.310655 142.571769 
L 477.533967 144.778809 
L 477.757279 144.778809 
L 478.203902 140.165489 
L 478.427214 140.165489 
L 478.650525 143.031575 
L 478.873837 149.192889 
L 479.097149 144.349666 
L 479.543772 146.985849 
L 479.767084 146.985849 
L 479.990395 150.744403 
L 480.213707 140.361209 
L 480.66033 154.269534 
L 480.883642 175.887168 
L 481.106953 173.680128 
L 481.330265 173.680128 
L 481.553577 164.419305 
L 481.776888 181.852762 
L 482.0002 175.657264 
L 482.223512 179.841441 
L 482.446823 181.588675 
L 482.670135 162.013026 
L 482.893447 155.388386 
L 483.116758 155.388386 
L 483.34007 151.434113 
L 483.563382 153.21553 
L 483.786693 158.058753 
L 484.010005 159.376844 
L 484.233317 159.805986 
L 484.456628 163.331117 
L 484.67994 149.227073 
L 484.903252 143.494902 
L 485.126563 143.72615 
L 485.349875 143.067104 
L 485.573187 143.067104 
L 485.796498 146.59089 
L 486.01981 155.192667 
L 486.243122 157.399707 
L 486.466433 165.771581 
L 486.689745 163.564541 
L 486.913057 164.223586 
L 487.136368 169.955757 
L 487.35968 172.132133 
L 487.582991 166.396442 
L 487.806303 163.990163 
L 488.029615 170.154997 
L 488.252926 197.109843 
L 488.476238 198.198031 
L 488.69955 189.366351 
L 488.922861 195.098522 
L 489.369485 199.516122 
L 489.592796 198.627173 
L 489.816108 198.39375 
L 490.03942 201.688978 
L 490.262731 196.416613 
L 490.709355 212.531979 
L 490.932666 209.665893 
L 491.155978 236.160933 
L 491.37929 234.183797 
L 491.602601 236.394357 
L 491.825913 234.842842 
L 492.049225 234.842842 
L 492.272536 221.202124 
L 492.495848 215.699856 
L 492.71916 215.466433 
L 492.942471 213.489296 
L 493.165783 213.489296 
L 493.389095 209.306464 
L 493.612406 210.393307 
L 494.05903 222.290312 
L 494.728964 227.363437 
L 494.952276 227.363437 
L 495.175588 222.949357 
L 495.398899 227.363437 
L 495.622211 251.518221 
L 495.845523 222.949357 
L 496.068834 231.121992 
L 496.292146 216.784524 
L 496.515458 216.784524 
L 496.738769 181.527517 
L 496.962081 180.209426 
L 497.185393 179.780284 
L 497.408704 180.669232 
L 497.632016 175.596107 
L 497.855328 181.098375 
L 498.301951 168.772228 
L 498.525263 166.565188 
L 498.748574 172.300879 
L 498.971886 172.726501 
L 499.195198 170.749365 
L 499.418509 199.225061 
L 499.641821 201.861244 
L 499.865133 201.861244 
L 500.088444 215.107004 
L 500.311756 212.899964 
L 500.535068 215.107004 
L 500.758379 239.824146 
L 500.981691 237.617106 
L 501.205003 240.713095 
L 501.428314 233.662832 
L 501.651626 235.869872 
L 501.874937 227.497999 
L 502.098249 238.306816 
L 502.321561 236.758821 
L 502.544872 241.176421 
L 502.991496 259.268924 
L 503.214807 251.985238 
L 503.438119 249.973917 
L 503.884742 244.27241 
L 504.108054 243.843268 
L 504.331366 252.445045 
L 504.777989 253.962375 
L 505.001301 246.019644 
L 505.224612 242.494512 
L 505.447924 246.317915 
L 505.894547 261.510148 
L 506.117859 284.01673 
L 506.341171 285.334821 
L 506.787794 326.955901 
L 507.011106 332.029026 
L 507.234417 343.037082 
L 507.457729 347.416978 
L 507.681041 338.585298 
L 508.127664 302.538375 
L 508.350975 304.745415 
L 508.574287 295.913735 
L 508.797599 304.711231 
L 509.02091 307.347413 
L 509.244222 307.347413 
L 509.467534 309.554453 
L 509.914157 301.1861 
L 510.137469 301.1861 
L 511.030715 305.799419 
L 511.254027 308.665504 
L 511.477339 306.688367 
L 511.70065 288.795104 
L 511.923962 286.584544 
L 512.147274 285.763964 
L 512.370585 307.77521 
L 512.593897 310.213499 
L 512.817209 305.799419 
L 513.04052 308.665504 
L 513.263832 308.895407 
L 513.487144 311.335871 
L 513.710455 303.39314 
L 513.933767 307.81074 
L 514.157079 298.97906 
L 514.38039 296.7685 
L 514.603702 297.660968 
L 514.827014 286.618728 
L 515.050325 288.170243 
L 515.273637 291.695374 
L 515.72026 285.72978 
L 515.943572 283.52274 
L 516.166883 269.219456 
L 516.390195 281.741322 
L 516.613507 272.97801 
L 516.836818 271.196592 
L 517.06013 271.426496 
L 517.283442 283.52274 
L 517.506753 272.4805 
L 517.953377 272.4805 
L 518.176688 266.782512 
L 518.4 264.805376 
L 518.4 264.805376 
" style="fill:none;stroke:#4c72b0;stroke-linecap:round;stroke-width:1.75;"/>
   </g>
   <g id="patch_3">
    <path d="M 72 356.4 
L 518.4 356.4 
" style="fill:none;"/>
   </g>
   <g id="patch_4">
    <path d="M 72 39.6 
L 518.4 39.6 
" style="fill:none;"/>
   </g>
   <g id="patch_5">
    <path d="M 72 356.4 
L 72 39.6 
" style="fill:none;"/>
   </g>
   <g id="patch_6">
    <path d="M 518.4 356.4 
L 518.4 39.6 
" style="fill:none;"/>
   </g>
   <g id="text_16">
    <!-- CF - -0.38209971356772954 * pb -->
    <defs>
     <path d="M 9.125 0 
L 9.125 10.6875 
L 18.65625 10.6875 
L 18.65625 0 
z
" id="LiberationSans-2e"/>
     <path d="M 38.671875 62.203125 
Q 32.8125 62.203125 28.296875 60.25 
Q 23.78125 58.296875 20.71875 54.6875 
Q 17.671875 51.078125 16.109375 46 
Q 14.546875 40.921875 14.546875 34.71875 
Q 14.546875 28.515625 16.234375 23.359375 
Q 17.921875 18.21875 21.0625 14.5 
Q 24.21875 10.796875 28.78125 8.734375 
Q 33.34375 6.6875 39.0625 6.6875 
Q 43.0625 6.6875 46.359375 7.734375 
Q 49.65625 8.796875 52.3125 10.6875 
Q 54.984375 12.59375 57.078125 15.203125 
Q 59.1875 17.828125 60.796875 21 
L 68.40625 17.1875 
Q 66.546875 13.328125 63.8125 10 
Q 61.078125 6.6875 57.390625 4.25 
Q 53.71875 1.8125 49.046875 0.40625 
Q 44.390625 -0.984375 38.625 -0.984375 
Q 30.28125 -0.984375 24 1.671875 
Q 17.71875 4.34375 13.5 9.109375 
Q 9.28125 13.875 7.171875 20.40625 
Q 5.078125 26.953125 5.078125 34.71875 
Q 5.078125 42.78125 7.296875 49.265625 
Q 9.515625 55.765625 13.78125 60.328125 
Q 18.0625 64.890625 24.3125 67.359375 
Q 30.5625 69.828125 38.578125 69.828125 
Q 49.5625 69.828125 56.9375 65.53125 
Q 64.3125 61.234375 67.78125 52.78125 
L 58.9375 49.859375 
Q 57.953125 52.296875 56.296875 54.515625 
Q 54.640625 56.734375 52.140625 58.4375 
Q 49.65625 60.15625 46.3125 61.171875 
Q 42.96875 62.203125 38.671875 62.203125 
" id="LiberationSans-43"/>
     <path d="M 17.53125 61.1875 
L 17.53125 35.59375 
L 55.90625 35.59375 
L 55.90625 27.875 
L 17.53125 27.875 
L 17.53125 0 
L 8.203125 0 
L 8.203125 68.796875 
L 57.078125 68.796875 
L 57.078125 61.1875 
z
" id="LiberationSans-46"/>
     <path d="M 51.421875 26.65625 
Q 51.421875 20.65625 50.4375 15.578125 
Q 49.46875 10.5 47.1875 6.828125 
Q 44.921875 3.171875 41.1875 1.09375 
Q 37.453125 -0.984375 31.984375 -0.984375 
Q 26.3125 -0.984375 22.0625 1.171875 
Q 17.828125 3.328125 15.578125 8.203125 
L 15.328125 8.203125 
Q 15.375 8.109375 15.40625 7.328125 
Q 15.4375 6.546875 15.453125 5.375 
Q 15.484375 4.203125 15.5 2.75 
Q 15.53125 1.3125 15.53125 -0.09375 
L 15.53125 -20.75 
L 6.734375 -20.75 
L 6.734375 42.046875 
Q 6.734375 43.953125 6.703125 45.703125 
Q 6.6875 47.46875 6.640625 48.90625 
Q 6.59375 50.34375 6.546875 51.359375 
Q 6.5 52.390625 6.453125 52.828125 
L 14.9375 52.828125 
Q 14.984375 52.6875 15.0625 51.796875 
Q 15.140625 50.921875 15.203125 49.671875 
Q 15.28125 48.4375 15.359375 47.015625 
Q 15.4375 45.609375 15.4375 44.34375 
L 15.625 44.34375 
Q 16.84375 46.875 18.40625 48.65625 
Q 19.96875 50.4375 21.96875 51.578125 
Q 23.96875 52.734375 26.4375 53.25 
Q 28.90625 53.765625 31.984375 53.765625 
Q 37.453125 53.765625 41.1875 51.8125 
Q 44.921875 49.859375 47.1875 46.3125 
Q 49.46875 42.78125 50.4375 37.765625 
Q 51.421875 32.765625 51.421875 26.65625 
M 42.1875 26.46875 
Q 42.1875 31.34375 41.59375 35.15625 
Q 41.015625 38.96875 39.578125 41.59375 
Q 38.140625 44.234375 35.734375 45.59375 
Q 33.34375 46.96875 29.734375 46.96875 
Q 26.8125 46.96875 24.21875 46.140625 
Q 21.625 45.3125 19.703125 42.96875 
Q 17.78125 40.625 16.65625 36.5 
Q 15.53125 32.375 15.53125 25.78125 
Q 15.53125 20.171875 16.453125 16.28125 
Q 17.390625 12.40625 19.171875 10.015625 
Q 20.953125 7.625 23.578125 6.5625 
Q 26.21875 5.515625 29.640625 5.515625 
Q 33.296875 5.515625 35.71875 6.921875 
Q 38.140625 8.34375 39.578125 11.03125 
Q 41.015625 13.71875 41.59375 17.59375 
Q 42.1875 21.484375 42.1875 26.46875 
" id="LiberationSans-70"/>
     <path d="M 22.265625 54.390625 
L 35.15625 59.421875 
L 37.359375 52.984375 
L 23.578125 49.421875 
L 32.625 37.203125 
L 26.8125 33.6875 
L 19.484375 46.296875 
L 11.859375 33.796875 
L 6.0625 37.3125 
L 15.28125 49.421875 
L 1.609375 52.984375 
L 3.8125 59.515625 
L 16.84375 54.296875 
L 16.265625 68.796875 
L 22.90625 68.796875 
z
" id="LiberationSans-2a"/>
     <path d="M 51.421875 26.65625 
Q 51.421875 -0.984375 31.984375 -0.984375 
Q 25.984375 -0.984375 22 1.1875 
Q 18.015625 3.375 15.53125 8.203125 
L 15.4375 8.203125 
Q 15.4375 6.9375 15.359375 5.5625 
Q 15.28125 4.203125 15.203125 3.03125 
Q 15.140625 1.859375 15.0625 1.03125 
Q 14.984375 0.203125 14.9375 0 
L 6.453125 0 
Q 6.5 0.4375 6.546875 1.484375 
Q 6.59375 2.546875 6.640625 4 
Q 6.6875 5.46875 6.703125 7.21875 
Q 6.734375 8.984375 6.734375 10.890625 
L 6.734375 72.46875 
L 15.53125 72.46875 
L 15.53125 51.8125 
Q 15.53125 50.34375 15.5 49 
Q 15.484375 47.65625 15.4375 46.625 
Q 15.375 45.40625 15.328125 44.34375 
L 15.53125 44.34375 
Q 17.96875 49.421875 22 51.609375 
Q 26.03125 53.8125 31.984375 53.8125 
Q 42 53.8125 46.703125 47.0625 
Q 51.421875 40.328125 51.421875 26.65625 
M 42.1875 26.375 
Q 42.1875 31.84375 41.5 35.75 
Q 40.828125 39.65625 39.3125 42.15625 
Q 37.796875 44.671875 35.453125 45.84375 
Q 33.109375 47.015625 29.734375 47.015625 
Q 26.265625 47.015625 23.609375 45.890625 
Q 20.953125 44.78125 19.171875 42.28125 
Q 17.390625 39.796875 16.453125 35.734375 
Q 15.53125 31.6875 15.53125 25.828125 
Q 15.53125 20.171875 16.453125 16.3125 
Q 17.390625 12.453125 19.171875 10.03125 
Q 20.953125 7.625 23.578125 6.5625 
Q 26.21875 5.515625 29.640625 5.515625 
Q 32.859375 5.515625 35.203125 6.640625 
Q 37.546875 7.765625 39.109375 10.25 
Q 40.671875 12.75 41.421875 16.71875 
Q 42.1875 20.703125 42.1875 26.375 
" id="LiberationSans-62"/>
    </defs>
    <g style="fill:#262626;" transform="translate(205.805625 34.6)scale(0.12 -0.12)">
     <use xlink:href="#LiberationSans-43"/>
     <use x="72.216796875" xlink:href="#LiberationSans-46"/>
     <use x="133.30078125" xlink:href="#LiberationSans-20"/>
     <use x="161.083984375" xlink:href="#LiberationSans-2d"/>
     <use x="194.384765625" xlink:href="#LiberationSans-20"/>
     <use x="222.16796875" xlink:href="#LiberationSans-2d"/>
     <use x="255.46875" xlink:href="#LiberationSans-30"/>
     <use x="311.083984375" xlink:href="#LiberationSans-2e"/>
     <use x="338.8671875" xlink:href="#LiberationSans-33"/>
     <use x="394.482421875" xlink:href="#LiberationSans-38"/>
     <use x="450.09765625" xlink:href="#LiberationSans-32"/>
     <use x="505.712890625" xlink:href="#LiberationSans-30"/>
     <use x="561.328125" xlink:href="#LiberationSans-39"/>
     <use x="616.943359375" xlink:href="#LiberationSans-39"/>
     <use x="672.55859375" xlink:href="#LiberationSans-37"/>
     <use x="728.173828125" xlink:href="#LiberationSans-31"/>
     <use x="783.7890625" xlink:href="#LiberationSans-33"/>
     <use x="839.404296875" xlink:href="#LiberationSans-35"/>
     <use x="895.01953125" xlink:href="#LiberationSans-36"/>
     <use x="950.634765625" xlink:href="#LiberationSans-37"/>
     <use x="1006.25" xlink:href="#LiberationSans-37"/>
     <use x="1061.865234375" xlink:href="#LiberationSans-32"/>
     <use x="1117.48046875" xlink:href="#LiberationSans-39"/>
     <use x="1173.095703125" xlink:href="#LiberationSans-35"/>
     <use x="1228.7109375" xlink:href="#LiberationSans-34"/>
     <use x="1284.326171875" xlink:href="#LiberationSans-20"/>
     <use x="1312.109375" xlink:href="#LiberationSans-2a"/>
     <use x="1351.025390625" xlink:href="#LiberationSans-20"/>
     <use x="1378.80859375" xlink:href="#LiberationSans-70"/>
     <use x="1434.423828125" xlink:href="#LiberationSans-62"/>
    </g>
   </g>
  </g>
 </g>
 <defs>
  <clipPath id="p9f5e1a8a9b">
   <rect height="316.8" width="446.4" x="72.0" y="39.6"/>
  </clipPath>
 </defs>
</svg>
