<?xml version="1.0" encoding="utf-8" standalone="no"?>
<!DOCTYPE svg PUBLIC "-//W3C//DTD SVG 1.1//EN"
  "http://www.w3.org/Graphics/SVG/1.1/DTD/svg11.dtd">
<!-- Created with matplotlib (http://matplotlib.org/) -->
<svg height="396pt" version="1.1" viewBox="0 0 576 396" width="576pt" xmlns="http://www.w3.org/2000/svg" xmlns:xlink="http://www.w3.org/1999/xlink">
 <defs>
  <style type="text/css">
*{stroke-linecap:butt;stroke-linejoin:round;stroke-miterlimit:100000;}
  </style>
 </defs>
 <g id="figure_1">
  <g id="patch_1">
   <path d="M 0 396 
L 576 396 
L 576 0 
L 0 0 
z
" style="fill:#ffffff;"/>
  </g>
  <g id="axes_1">
   <g id="patch_2">
    <path d="M 72 356.4 
L 518.4 356.4 
L 518.4 39.6 
L 72 39.6 
z
" style="fill:#eaeaf2;"/>
   </g>
   <g id="matplotlib.axis_1">
    <g id="xtick_1">
     <g id="line2d_1">
      <path clip-path="url(#p33f469c52d)" d="M 72 356.4 
L 72 39.6 
" style="fill:none;stroke:#ffffff;stroke-linecap:round;"/>
     </g>
     <g id="line2d_2"/>
     <g id="line2d_3"/>
     <g id="text_1">
      <!-- 2015-11-24 21:01:00 -->
      <defs>
       <path d="M 5.03125 0 
L 5.03125 6.203125 
Q 7.515625 11.921875 11.109375 16.28125 
Q 14.703125 20.65625 18.65625 24.1875 
Q 22.609375 27.734375 26.484375 30.765625 
Q 30.375 33.796875 33.5 36.8125 
Q 36.625 39.84375 38.546875 43.15625 
Q 40.484375 46.484375 40.484375 50.6875 
Q 40.484375 53.609375 39.59375 55.828125 
Q 38.71875 58.0625 37.0625 59.5625 
Q 35.40625 61.078125 33.078125 61.828125 
Q 30.765625 62.59375 27.9375 62.59375 
Q 25.296875 62.59375 22.96875 61.859375 
Q 20.65625 61.140625 18.84375 59.671875 
Q 17.046875 58.203125 15.890625 56.03125 
Q 14.75 53.859375 14.40625 50.984375 
L 5.421875 51.8125 
Q 5.859375 55.515625 7.46875 58.78125 
Q 9.078125 62.0625 11.90625 64.53125 
Q 14.75 67 18.71875 68.40625 
Q 22.703125 69.828125 27.9375 69.828125 
Q 33.0625 69.828125 37.0625 68.609375 
Q 41.0625 67.390625 43.8125 64.984375 
Q 46.578125 62.59375 48.046875 59.078125 
Q 49.515625 55.5625 49.515625 50.984375 
Q 49.515625 47.515625 48.265625 44.390625 
Q 47.015625 41.265625 44.9375 38.421875 
Q 42.875 35.59375 40.140625 32.953125 
Q 37.40625 30.328125 34.421875 27.8125 
Q 31.453125 25.296875 28.421875 22.828125 
Q 25.390625 20.359375 22.71875 17.859375 
Q 20.0625 15.375 17.96875 12.8125 
Q 15.875 10.25 14.703125 7.46875 
L 50.59375 7.46875 
L 50.59375 0 
z
" id="LiberationSans-32"/>
       <path d="M 7.625 0 
L 7.625 7.46875 
L 25.140625 7.46875 
L 25.140625 60.40625 
L 9.625 49.3125 
L 9.625 57.625 
L 25.875 68.796875 
L 33.984375 68.796875 
L 33.984375 7.46875 
L 50.734375 7.46875 
L 50.734375 0 
z
" id="LiberationSans-31"/>
       <path d="M 51.703125 34.421875 
Q 51.703125 24.515625 49.828125 17.75 
Q 47.953125 10.984375 44.703125 6.8125 
Q 41.453125 2.640625 37.0625 0.828125 
Q 32.671875 -0.984375 27.6875 -0.984375 
Q 22.65625 -0.984375 18.3125 0.828125 
Q 13.96875 2.640625 10.765625 6.78125 
Q 7.5625 10.9375 5.734375 17.703125 
Q 3.90625 24.46875 3.90625 34.421875 
Q 3.90625 44.828125 5.734375 51.640625 
Q 7.5625 58.453125 10.78125 62.5 
Q 14.015625 66.546875 18.40625 68.1875 
Q 22.796875 69.828125 27.984375 69.828125 
Q 32.90625 69.828125 37.21875 68.1875 
Q 41.546875 66.546875 44.765625 62.5 
Q 48 58.453125 49.84375 51.640625 
Q 51.703125 44.828125 51.703125 34.421875 
M 42.78125 34.421875 
Q 42.78125 42.625 41.796875 48.0625 
Q 40.828125 53.515625 38.921875 56.765625 
Q 37.015625 60.015625 34.25 61.359375 
Q 31.5 62.703125 27.984375 62.703125 
Q 24.265625 62.703125 21.4375 61.328125 
Q 18.609375 59.96875 16.671875 56.71875 
Q 14.75 53.46875 13.765625 48.015625 
Q 12.796875 42.578125 12.796875 34.421875 
Q 12.796875 26.515625 13.796875 21.09375 
Q 14.796875 15.671875 16.71875 12.375 
Q 18.65625 9.078125 21.4375 7.640625 
Q 24.21875 6.203125 27.78125 6.203125 
Q 31.25 6.203125 34.03125 7.640625 
Q 36.8125 9.078125 38.734375 12.375 
Q 40.671875 15.671875 41.71875 21.09375 
Q 42.78125 26.515625 42.78125 34.421875 
" id="LiberationSans-30"/>
       <path d="M 9.125 42.71875 
L 9.125 52.828125 
L 18.65625 52.828125 
L 18.65625 42.71875 
z
M 9.125 0 
L 9.125 10.109375 
L 18.65625 10.109375 
L 18.65625 0 
z
" id="LiberationSans-3a"/>
       <path d="M 51.421875 22.40625 
Q 51.421875 17.234375 49.859375 12.9375 
Q 48.296875 8.640625 45.21875 5.53125 
Q 42.140625 2.4375 37.578125 0.71875 
Q 33.015625 -0.984375 27 -0.984375 
Q 21.578125 -0.984375 17.546875 0.28125 
Q 13.53125 1.5625 10.734375 3.78125 
Q 7.953125 6 6.3125 8.984375 
Q 4.6875 11.96875 4 15.375 
L 12.890625 16.40625 
Q 13.421875 14.453125 14.390625 12.625 
Q 15.375 10.796875 17.0625 9.34375 
Q 18.75 7.90625 21.21875 7.046875 
Q 23.6875 6.203125 27.203125 6.203125 
Q 30.609375 6.203125 33.390625 7.25 
Q 36.1875 8.296875 38.15625 10.34375 
Q 40.140625 12.40625 41.203125 15.375 
Q 42.28125 18.359375 42.28125 22.21875 
Q 42.28125 25.390625 41.25 28.046875 
Q 40.234375 30.71875 38.328125 32.640625 
Q 36.421875 34.578125 33.65625 35.640625 
Q 30.90625 36.71875 27.390625 36.71875 
Q 25.203125 36.71875 23.34375 36.328125 
Q 21.484375 35.9375 19.890625 35.25 
Q 18.3125 34.578125 17.015625 33.671875 
Q 15.71875 32.765625 14.59375 31.78125 
L 6 31.78125 
L 8.296875 68.796875 
L 47.40625 68.796875 
L 47.40625 61.328125 
L 16.3125 61.328125 
L 14.984375 39.5 
Q 17.328125 41.3125 20.84375 42.59375 
Q 24.359375 43.890625 29.203125 43.890625 
Q 34.328125 43.890625 38.421875 42.328125 
Q 42.53125 40.765625 45.40625 37.90625 
Q 48.296875 35.0625 49.859375 31.109375 
Q 51.421875 27.15625 51.421875 22.40625 
" id="LiberationSans-35"/>
       <path id="LiberationSans-20"/>
       <path d="M 4.4375 22.65625 
L 4.4375 30.46875 
L 28.859375 30.46875 
L 28.859375 22.65625 
z
" id="LiberationSans-2d"/>
       <path d="M 43.015625 15.578125 
L 43.015625 0 
L 34.71875 0 
L 34.71875 15.578125 
L 2.296875 15.578125 
L 2.296875 22.40625 
L 33.796875 68.796875 
L 43.015625 68.796875 
L 43.015625 22.515625 
L 52.6875 22.515625 
L 52.6875 15.578125 
z
M 34.71875 58.890625 
Q 34.625 58.640625 34.234375 57.9375 
Q 33.84375 57.234375 33.34375 56.34375 
Q 32.859375 55.46875 32.34375 54.5625 
Q 31.84375 53.65625 31.453125 53.078125 
L 13.8125 27.09375 
Q 13.578125 26.703125 13.109375 26.0625 
Q 12.640625 25.4375 12.15625 24.78125 
Q 11.671875 24.125 11.171875 23.484375 
Q 10.6875 22.859375 10.40625 22.515625 
L 34.71875 22.515625 
z
" id="LiberationSans-34"/>
      </defs>
      <g style="fill:#262626;" transform="translate(25.5765625 370.646875)scale(0.1 -0.1)">
       <use xlink:href="#LiberationSans-32"/>
       <use x="55.615234375" xlink:href="#LiberationSans-30"/>
       <use x="111.23046875" xlink:href="#LiberationSans-31"/>
       <use x="166.845703125" xlink:href="#LiberationSans-35"/>
       <use x="222.4609375" xlink:href="#LiberationSans-2d"/>
       <use x="255.76171875" xlink:href="#LiberationSans-31"/>
       <use x="311.376953125" xlink:href="#LiberationSans-31"/>
       <use x="366.9921875" xlink:href="#LiberationSans-2d"/>
       <use x="400.29296875" xlink:href="#LiberationSans-32"/>
       <use x="455.908203125" xlink:href="#LiberationSans-34"/>
       <use x="511.5234375" xlink:href="#LiberationSans-20"/>
       <use x="539.306640625" xlink:href="#LiberationSans-32"/>
       <use x="594.921875" xlink:href="#LiberationSans-31"/>
       <use x="650.537109375" xlink:href="#LiberationSans-3a"/>
       <use x="678.3203125" xlink:href="#LiberationSans-30"/>
       <use x="733.935546875" xlink:href="#LiberationSans-31"/>
       <use x="789.55078125" xlink:href="#LiberationSans-3a"/>
       <use x="817.333984375" xlink:href="#LiberationSans-30"/>
       <use x="872.94921875" xlink:href="#LiberationSans-30"/>
      </g>
     </g>
    </g>
    <g id="xtick_2">
     <g id="line2d_4">
      <path clip-path="url(#p33f469c52d)" d="M 183.655828 356.4 
L 183.655828 39.6 
" style="fill:none;stroke:#ffffff;stroke-linecap:round;"/>
     </g>
     <g id="line2d_5"/>
     <g id="line2d_6"/>
     <g id="text_2">
      <!-- 2015-11-26 10:14:00 -->
      <defs>
       <path d="M 51.21875 22.515625 
Q 51.21875 17.328125 49.78125 13 
Q 48.34375 8.6875 45.53125 5.578125 
Q 42.71875 2.484375 38.5625 0.75 
Q 34.421875 -0.984375 29 -0.984375 
Q 23 -0.984375 18.5 1.3125 
Q 14.015625 3.609375 11.03125 7.921875 
Q 8.0625 12.25 6.5625 18.53125 
Q 5.078125 24.8125 5.078125 32.8125 
Q 5.078125 42 6.765625 48.921875 
Q 8.453125 55.859375 11.625 60.5 
Q 14.796875 65.140625 19.359375 67.484375 
Q 23.921875 69.828125 29.6875 69.828125 
Q 33.203125 69.828125 36.28125 69.09375 
Q 39.359375 68.359375 41.875 66.71875 
Q 44.390625 65.09375 46.28125 62.40625 
Q 48.1875 59.71875 49.3125 55.8125 
L 40.921875 54.296875 
Q 39.546875 58.734375 36.546875 60.71875 
Q 33.546875 62.703125 29.59375 62.703125 
Q 25.984375 62.703125 23.046875 60.984375 
Q 20.125 59.28125 18.0625 55.875 
Q 16.015625 52.484375 14.90625 47.359375 
Q 13.8125 42.234375 13.8125 35.40625 
Q 16.21875 39.84375 20.5625 42.15625 
Q 24.90625 44.484375 30.515625 44.484375 
Q 35.203125 44.484375 39.015625 42.96875 
Q 42.828125 41.453125 45.53125 38.59375 
Q 48.25 35.75 49.734375 31.671875 
Q 51.21875 27.59375 51.21875 22.515625 
M 42.28125 22.125 
Q 42.28125 25.6875 41.40625 28.5625 
Q 40.53125 31.453125 38.765625 33.46875 
Q 37.015625 35.5 34.421875 36.59375 
Q 31.84375 37.703125 28.421875 37.703125 
Q 26.03125 37.703125 23.578125 36.984375 
Q 21.140625 36.28125 19.15625 34.6875 
Q 17.1875 33.109375 15.9375 30.515625 
Q 14.703125 27.9375 14.703125 24.21875 
Q 14.703125 20.40625 15.671875 17.109375 
Q 16.65625 13.8125 18.484375 11.375 
Q 20.3125 8.9375 22.890625 7.515625 
Q 25.484375 6.109375 28.71875 6.109375 
Q 31.890625 6.109375 34.40625 7.203125 
Q 36.921875 8.296875 38.671875 10.375 
Q 40.4375 12.453125 41.359375 15.421875 
Q 42.28125 18.40625 42.28125 22.125 
" id="LiberationSans-36"/>
      </defs>
      <g style="fill:#262626;" transform="translate(137.232390414 370.646875)scale(0.1 -0.1)">
       <use xlink:href="#LiberationSans-32"/>
       <use x="55.615234375" xlink:href="#LiberationSans-30"/>
       <use x="111.23046875" xlink:href="#LiberationSans-31"/>
       <use x="166.845703125" xlink:href="#LiberationSans-35"/>
       <use x="222.4609375" xlink:href="#LiberationSans-2d"/>
       <use x="255.76171875" xlink:href="#LiberationSans-31"/>
       <use x="311.376953125" xlink:href="#LiberationSans-31"/>
       <use x="366.9921875" xlink:href="#LiberationSans-2d"/>
       <use x="400.29296875" xlink:href="#LiberationSans-32"/>
       <use x="455.908203125" xlink:href="#LiberationSans-36"/>
       <use x="511.5234375" xlink:href="#LiberationSans-20"/>
       <use x="539.306640625" xlink:href="#LiberationSans-31"/>
       <use x="594.921875" xlink:href="#LiberationSans-30"/>
       <use x="650.537109375" xlink:href="#LiberationSans-3a"/>
       <use x="678.3203125" xlink:href="#LiberationSans-31"/>
       <use x="733.935546875" xlink:href="#LiberationSans-34"/>
       <use x="789.55078125" xlink:href="#LiberationSans-3a"/>
       <use x="817.333984375" xlink:href="#LiberationSans-30"/>
       <use x="872.94921875" xlink:href="#LiberationSans-30"/>
      </g>
     </g>
    </g>
    <g id="xtick_3">
     <g id="line2d_7">
      <path clip-path="url(#p33f469c52d)" d="M 295.311656 356.4 
L 295.311656 39.6 
" style="fill:none;stroke:#ffffff;stroke-linecap:round;"/>
     </g>
     <g id="line2d_8"/>
     <g id="line2d_9"/>
     <g id="text_3">
      <!-- 2015-11-27 22:02:00 -->
      <defs>
       <path d="M 50.59375 61.671875 
Q 45.40625 53.765625 41.0625 46.453125 
Q 36.71875 39.15625 33.59375 31.75 
Q 30.46875 24.359375 28.734375 16.578125 
Q 27 8.796875 27 0 
L 17.828125 0 
Q 17.828125 8.25 19.78125 16.1875 
Q 21.734375 24.125 25.046875 31.765625 
Q 28.375 39.40625 32.765625 46.78125 
Q 37.15625 54.15625 42.09375 61.328125 
L 5.125 61.328125 
L 5.125 68.796875 
L 50.59375 68.796875 
z
" id="LiberationSans-37"/>
      </defs>
      <g style="fill:#262626;" transform="translate(248.888218328 370.646875)scale(0.1 -0.1)">
       <use xlink:href="#LiberationSans-32"/>
       <use x="55.615234375" xlink:href="#LiberationSans-30"/>
       <use x="111.23046875" xlink:href="#LiberationSans-31"/>
       <use x="166.845703125" xlink:href="#LiberationSans-35"/>
       <use x="222.4609375" xlink:href="#LiberationSans-2d"/>
       <use x="255.76171875" xlink:href="#LiberationSans-31"/>
       <use x="311.376953125" xlink:href="#LiberationSans-31"/>
       <use x="366.9921875" xlink:href="#LiberationSans-2d"/>
       <use x="400.29296875" xlink:href="#LiberationSans-32"/>
       <use x="455.908203125" xlink:href="#LiberationSans-37"/>
       <use x="511.5234375" xlink:href="#LiberationSans-20"/>
       <use x="539.306640625" xlink:href="#LiberationSans-32"/>
       <use x="594.921875" xlink:href="#LiberationSans-32"/>
       <use x="650.537109375" xlink:href="#LiberationSans-3a"/>
       <use x="678.3203125" xlink:href="#LiberationSans-30"/>
       <use x="733.935546875" xlink:href="#LiberationSans-32"/>
       <use x="789.55078125" xlink:href="#LiberationSans-3a"/>
       <use x="817.333984375" xlink:href="#LiberationSans-30"/>
       <use x="872.94921875" xlink:href="#LiberationSans-30"/>
      </g>
     </g>
    </g>
    <g id="xtick_4">
     <g id="line2d_10">
      <path clip-path="url(#p33f469c52d)" d="M 406.967484 356.4 
L 406.967484 39.6 
" style="fill:none;stroke:#ffffff;stroke-linecap:round;"/>
     </g>
     <g id="line2d_11"/>
     <g id="line2d_12"/>
     <g id="text_4">
      <!-- 2015-12-03 21:05:00 -->
      <defs>
       <path d="M 51.21875 19 
Q 51.21875 14.265625 49.671875 10.546875 
Q 48.140625 6.84375 45.1875 4.265625 
Q 42.234375 1.703125 37.859375 0.359375 
Q 33.5 -0.984375 27.875 -0.984375 
Q 21.484375 -0.984375 17.109375 0.609375 
Q 12.75 2.203125 9.90625 4.8125 
Q 7.078125 7.421875 5.65625 10.765625 
Q 4.25 14.109375 3.8125 17.671875 
L 12.890625 18.5 
Q 13.28125 15.765625 14.328125 13.515625 
Q 15.375 11.28125 17.1875 9.671875 
Q 19 8.0625 21.625 7.171875 
Q 24.265625 6.296875 27.875 6.296875 
Q 34.515625 6.296875 38.296875 9.5625 
Q 42.09375 12.84375 42.09375 19.28125 
Q 42.09375 23.09375 40.40625 25.40625 
Q 38.71875 27.734375 36.203125 29.03125 
Q 33.6875 30.328125 30.734375 30.765625 
Q 27.78125 31.203125 25.296875 31.203125 
L 20.3125 31.203125 
L 20.3125 38.8125 
L 25.09375 38.8125 
Q 27.59375 38.8125 30.265625 39.328125 
Q 32.953125 39.84375 35.171875 41.1875 
Q 37.40625 42.53125 38.84375 44.828125 
Q 40.28125 47.125 40.28125 50.6875 
Q 40.28125 56.203125 37.03125 59.390625 
Q 33.796875 62.59375 27.390625 62.59375 
Q 21.578125 62.59375 17.984375 59.609375 
Q 14.40625 56.640625 13.8125 51.21875 
L 4.984375 51.90625 
Q 5.515625 56.453125 7.46875 59.8125 
Q 9.421875 63.1875 12.421875 65.40625 
Q 15.4375 67.625 19.28125 68.71875 
Q 23.140625 69.828125 27.484375 69.828125 
Q 33.25 69.828125 37.390625 68.375 
Q 41.546875 66.9375 44.1875 64.46875 
Q 46.828125 62.015625 48.0625 58.6875 
Q 49.3125 55.375 49.3125 51.609375 
Q 49.3125 48.578125 48.484375 45.9375 
Q 47.65625 43.3125 45.890625 41.203125 
Q 44.140625 39.109375 41.421875 37.59375 
Q 38.71875 36.078125 34.90625 35.296875 
L 34.90625 35.109375 
Q 39.0625 34.671875 42.140625 33.21875 
Q 45.21875 31.78125 47.21875 29.625 
Q 49.21875 27.484375 50.21875 24.75 
Q 51.21875 22.015625 51.21875 19 
" id="LiberationSans-33"/>
      </defs>
      <g style="fill:#262626;" transform="translate(360.544046242 370.646875)scale(0.1 -0.1)">
       <use xlink:href="#LiberationSans-32"/>
       <use x="55.615234375" xlink:href="#LiberationSans-30"/>
       <use x="111.23046875" xlink:href="#LiberationSans-31"/>
       <use x="166.845703125" xlink:href="#LiberationSans-35"/>
       <use x="222.4609375" xlink:href="#LiberationSans-2d"/>
       <use x="255.76171875" xlink:href="#LiberationSans-31"/>
       <use x="311.376953125" xlink:href="#LiberationSans-32"/>
       <use x="366.9921875" xlink:href="#LiberationSans-2d"/>
       <use x="400.29296875" xlink:href="#LiberationSans-30"/>
       <use x="455.908203125" xlink:href="#LiberationSans-33"/>
       <use x="511.5234375" xlink:href="#LiberationSans-20"/>
       <use x="539.306640625" xlink:href="#LiberationSans-32"/>
       <use x="594.921875" xlink:href="#LiberationSans-31"/>
       <use x="650.537109375" xlink:href="#LiberationSans-3a"/>
       <use x="678.3203125" xlink:href="#LiberationSans-30"/>
       <use x="733.935546875" xlink:href="#LiberationSans-35"/>
       <use x="789.55078125" xlink:href="#LiberationSans-3a"/>
       <use x="817.333984375" xlink:href="#LiberationSans-30"/>
       <use x="872.94921875" xlink:href="#LiberationSans-30"/>
      </g>
     </g>
    </g>
    <g id="text_5">
     <!-- time -->
     <defs>
      <path d="M 13.484375 24.5625 
Q 13.484375 20.40625 14.328125 16.90625 
Q 15.1875 13.421875 16.96875 10.90625 
Q 18.75 8.40625 21.53125 7 
Q 24.3125 5.609375 28.21875 5.609375 
Q 33.9375 5.609375 37.375 7.90625 
Q 40.828125 10.203125 42.046875 13.71875 
L 49.75 11.53125 
Q 48.921875 9.328125 47.4375 7.109375 
Q 45.953125 4.890625 43.453125 3.09375 
Q 40.96875 1.3125 37.234375 0.15625 
Q 33.5 -0.984375 28.21875 -0.984375 
Q 16.5 -0.984375 10.375 6 
Q 4.25 12.984375 4.25 26.765625 
Q 4.25 34.1875 6.09375 39.328125 
Q 7.953125 44.484375 11.171875 47.703125 
Q 14.40625 50.921875 18.703125 52.359375 
Q 23 53.8125 27.875 53.8125 
Q 34.515625 53.8125 38.984375 51.65625 
Q 43.453125 49.515625 46.15625 45.71875 
Q 48.875 41.9375 50.015625 36.8125 
Q 51.171875 31.6875 51.171875 25.734375 
L 51.171875 24.5625 
z
M 42.09375 31.296875 
Q 41.359375 39.65625 37.84375 43.484375 
Q 34.328125 47.3125 27.734375 47.3125 
Q 25.53125 47.3125 23.109375 46.609375 
Q 20.703125 45.90625 18.65625 44.09375 
Q 16.609375 42.28125 15.1875 39.171875 
Q 13.765625 36.078125 13.578125 31.296875 
z
" id="LiberationSans-65"/>
      <path d="M 6.6875 64.0625 
L 6.6875 72.46875 
L 15.484375 72.46875 
L 15.484375 64.0625 
z
M 6.6875 0 
L 6.6875 52.828125 
L 15.484375 52.828125 
L 15.484375 0 
z
" id="LiberationSans-69"/>
      <path d="M 27.046875 0.390625 
Q 25.046875 -0.140625 22.96875 -0.453125 
Q 20.90625 -0.78125 18.171875 -0.78125 
Q 7.625 -0.78125 7.625 11.1875 
L 7.625 46.4375 
L 1.515625 46.4375 
L 1.515625 52.828125 
L 7.953125 52.828125 
L 10.546875 64.65625 
L 16.40625 64.65625 
L 16.40625 52.828125 
L 26.171875 52.828125 
L 26.171875 46.4375 
L 16.40625 46.4375 
L 16.40625 13.09375 
Q 16.40625 9.28125 17.640625 7.734375 
Q 18.890625 6.203125 21.96875 6.203125 
Q 23.25 6.203125 24.4375 6.390625 
Q 25.640625 6.59375 27.046875 6.890625 
z
" id="LiberationSans-74"/>
      <path d="M 37.5 0 
L 37.5 33.5 
Q 37.5 37.359375 37.015625 39.9375 
Q 36.53125 42.53125 35.375 44.109375 
Q 34.234375 45.703125 32.375 46.359375 
Q 30.515625 47.015625 27.828125 47.015625 
Q 25.046875 47.015625 22.796875 45.921875 
Q 20.5625 44.828125 18.96875 42.75 
Q 17.390625 40.671875 16.53125 37.625 
Q 15.671875 34.578125 15.671875 30.609375 
L 15.671875 0 
L 6.9375 0 
L 6.9375 41.546875 
Q 6.9375 43.21875 6.90625 45.046875 
Q 6.890625 46.875 6.828125 48.5 
Q 6.78125 50.140625 6.734375 51.3125 
Q 6.6875 52.484375 6.640625 52.828125 
L 14.9375 52.828125 
Q 14.984375 52.59375 15.03125 51.515625 
Q 15.09375 50.4375 15.15625 49.046875 
Q 15.234375 47.65625 15.28125 46.21875 
Q 15.328125 44.78125 15.328125 43.796875 
L 15.484375 43.796875 
Q 16.65625 46.09375 18.015625 47.953125 
Q 19.390625 49.8125 21.21875 51.09375 
Q 23.046875 52.390625 25.40625 53.09375 
Q 27.78125 53.8125 30.90625 53.8125 
Q 36.921875 53.8125 40.40625 51.421875 
Q 43.890625 49.03125 45.265625 43.796875 
L 45.40625 43.796875 
Q 46.578125 46.09375 48.046875 47.953125 
Q 49.515625 49.8125 51.46875 51.09375 
Q 53.421875 52.390625 55.859375 53.09375 
Q 58.296875 53.8125 61.421875 53.8125 
Q 65.4375 53.8125 68.328125 52.734375 
Q 71.234375 51.65625 73.09375 49.40625 
Q 74.953125 47.171875 75.828125 43.625 
Q 76.703125 40.09375 76.703125 35.203125 
L 76.703125 0 
L 68.015625 0 
L 68.015625 33.5 
Q 68.015625 37.359375 67.53125 39.9375 
Q 67.046875 42.53125 65.890625 44.109375 
Q 64.75 45.703125 62.890625 46.359375 
Q 61.03125 47.015625 58.34375 47.015625 
Q 55.5625 47.015625 53.3125 45.96875 
Q 51.078125 44.921875 49.484375 42.875 
Q 47.90625 40.828125 47.046875 37.75 
Q 46.1875 34.671875 46.1875 30.609375 
L 46.1875 0 
z
" id="LiberationSans-6d"/>
     </defs>
     <g style="fill:#262626;" transform="translate(284.81015625 385.6934375)scale(0.11 -0.11)">
      <use xlink:href="#LiberationSans-74"/>
      <use x="27.783203125" xlink:href="#LiberationSans-69"/>
      <use x="50.0" xlink:href="#LiberationSans-6d"/>
      <use x="133.30078125" xlink:href="#LiberationSans-65"/>
     </g>
    </g>
   </g>
   <g id="matplotlib.axis_2">
    <g id="ytick_1">
     <g id="line2d_13">
      <path clip-path="url(#p33f469c52d)" d="M 72 356.4 
L 518.4 356.4 
" style="fill:none;stroke:#ffffff;stroke-linecap:round;"/>
     </g>
     <g id="line2d_14"/>
     <g id="line2d_15"/>
     <g id="text_6">
      <!-- 25000 -->
      <g style="fill:#262626;" transform="translate(37.1953125 358.9859375)scale(0.1 -0.1)">
       <use xlink:href="#LiberationSans-32"/>
       <use x="55.615234375" xlink:href="#LiberationSans-35"/>
       <use x="111.23046875" xlink:href="#LiberationSans-30"/>
       <use x="166.845703125" xlink:href="#LiberationSans-30"/>
       <use x="222.4609375" xlink:href="#LiberationSans-30"/>
      </g>
     </g>
    </g>
    <g id="ytick_2">
     <g id="line2d_16">
      <path clip-path="url(#p33f469c52d)" d="M 72 316.8 
L 518.4 316.8 
" style="fill:none;stroke:#ffffff;stroke-linecap:round;"/>
     </g>
     <g id="line2d_17"/>
     <g id="line2d_18"/>
     <g id="text_7">
      <!-- 25500 -->
      <g style="fill:#262626;" transform="translate(37.1953125 319.3859375)scale(0.1 -0.1)">
       <use xlink:href="#LiberationSans-32"/>
       <use x="55.615234375" xlink:href="#LiberationSans-35"/>
       <use x="111.23046875" xlink:href="#LiberationSans-35"/>
       <use x="166.845703125" xlink:href="#LiberationSans-30"/>
       <use x="222.4609375" xlink:href="#LiberationSans-30"/>
      </g>
     </g>
    </g>
    <g id="ytick_3">
     <g id="line2d_19">
      <path clip-path="url(#p33f469c52d)" d="M 72 277.2 
L 518.4 277.2 
" style="fill:none;stroke:#ffffff;stroke-linecap:round;"/>
     </g>
     <g id="line2d_20"/>
     <g id="line2d_21"/>
     <g id="text_8">
      <!-- 26000 -->
      <g style="fill:#262626;" transform="translate(37.1953125 279.7859375)scale(0.1 -0.1)">
       <use xlink:href="#LiberationSans-32"/>
       <use x="55.615234375" xlink:href="#LiberationSans-36"/>
       <use x="111.23046875" xlink:href="#LiberationSans-30"/>
       <use x="166.845703125" xlink:href="#LiberationSans-30"/>
       <use x="222.4609375" xlink:href="#LiberationSans-30"/>
      </g>
     </g>
    </g>
    <g id="ytick_4">
     <g id="line2d_22">
      <path clip-path="url(#p33f469c52d)" d="M 72 237.6 
L 518.4 237.6 
" style="fill:none;stroke:#ffffff;stroke-linecap:round;"/>
     </g>
     <g id="line2d_23"/>
     <g id="line2d_24"/>
     <g id="text_9">
      <!-- 26500 -->
      <g style="fill:#262626;" transform="translate(37.1953125 240.1859375)scale(0.1 -0.1)">
       <use xlink:href="#LiberationSans-32"/>
       <use x="55.615234375" xlink:href="#LiberationSans-36"/>
       <use x="111.23046875" xlink:href="#LiberationSans-35"/>
       <use x="166.845703125" xlink:href="#LiberationSans-30"/>
       <use x="222.4609375" xlink:href="#LiberationSans-30"/>
      </g>
     </g>
    </g>
    <g id="ytick_5">
     <g id="line2d_25">
      <path clip-path="url(#p33f469c52d)" d="M 72 198 
L 518.4 198 
" style="fill:none;stroke:#ffffff;stroke-linecap:round;"/>
     </g>
     <g id="line2d_26"/>
     <g id="line2d_27"/>
     <g id="text_10">
      <!-- 27000 -->
      <g style="fill:#262626;" transform="translate(37.1953125 200.5859375)scale(0.1 -0.1)">
       <use xlink:href="#LiberationSans-32"/>
       <use x="55.615234375" xlink:href="#LiberationSans-37"/>
       <use x="111.23046875" xlink:href="#LiberationSans-30"/>
       <use x="166.845703125" xlink:href="#LiberationSans-30"/>
       <use x="222.4609375" xlink:href="#LiberationSans-30"/>
      </g>
     </g>
    </g>
    <g id="ytick_6">
     <g id="line2d_28">
      <path clip-path="url(#p33f469c52d)" d="M 72 158.4 
L 518.4 158.4 
" style="fill:none;stroke:#ffffff;stroke-linecap:round;"/>
     </g>
     <g id="line2d_29"/>
     <g id="line2d_30"/>
     <g id="text_11">
      <!-- 27500 -->
      <g style="fill:#262626;" transform="translate(37.1953125 160.9859375)scale(0.1 -0.1)">
       <use xlink:href="#LiberationSans-32"/>
       <use x="55.615234375" xlink:href="#LiberationSans-37"/>
       <use x="111.23046875" xlink:href="#LiberationSans-35"/>
       <use x="166.845703125" xlink:href="#LiberationSans-30"/>
       <use x="222.4609375" xlink:href="#LiberationSans-30"/>
      </g>
     </g>
    </g>
    <g id="ytick_7">
     <g id="line2d_31">
      <path clip-path="url(#p33f469c52d)" d="M 72 118.8 
L 518.4 118.8 
" style="fill:none;stroke:#ffffff;stroke-linecap:round;"/>
     </g>
     <g id="line2d_32"/>
     <g id="line2d_33"/>
     <g id="text_12">
      <!-- 28000 -->
      <defs>
       <path d="M 51.265625 19.1875 
Q 51.265625 14.796875 49.875 11.109375 
Q 48.484375 7.421875 45.625 4.734375 
Q 42.78125 2.046875 38.328125 0.53125 
Q 33.890625 -0.984375 27.828125 -0.984375 
Q 21.78125 -0.984375 17.359375 0.53125 
Q 12.9375 2.046875 10.03125 4.703125 
Q 7.125 7.375 5.734375 11.0625 
Q 4.34375 14.75 4.34375 19.09375 
Q 4.34375 22.859375 5.484375 25.78125 
Q 6.640625 28.71875 8.5625 30.828125 
Q 10.5 32.953125 12.96875 34.25 
Q 15.4375 35.546875 18.0625 35.984375 
L 18.0625 36.1875 
Q 15.1875 36.859375 12.90625 38.375 
Q 10.640625 39.890625 9.09375 42.015625 
Q 7.5625 44.140625 6.75 46.71875 
Q 5.953125 49.3125 5.953125 52.203125 
Q 5.953125 55.8125 7.34375 59 
Q 8.734375 62.203125 11.46875 64.625 
Q 14.203125 67.046875 18.25 68.4375 
Q 22.3125 69.828125 27.640625 69.828125 
Q 33.25 69.828125 37.375 68.40625 
Q 41.5 67 44.203125 64.578125 
Q 46.921875 62.15625 48.234375 58.9375 
Q 49.5625 55.71875 49.5625 52.09375 
Q 49.5625 49.265625 48.75 46.671875 
Q 47.953125 44.09375 46.40625 41.96875 
Q 44.875 39.84375 42.59375 38.34375 
Q 40.328125 36.859375 37.359375 36.28125 
L 37.359375 36.078125 
Q 40.328125 35.59375 42.859375 34.296875 
Q 45.40625 33.015625 47.265625 30.890625 
Q 49.125 28.765625 50.1875 25.828125 
Q 51.265625 22.90625 51.265625 19.1875 
M 40.4375 51.609375 
Q 40.4375 54.203125 39.765625 56.34375 
Q 39.109375 58.5 37.59375 60.03125 
Q 36.078125 61.578125 33.640625 62.421875 
Q 31.203125 63.28125 27.640625 63.28125 
Q 24.171875 63.28125 21.78125 62.421875 
Q 19.390625 61.578125 17.84375 60.03125 
Q 16.3125 58.5 15.625 56.34375 
Q 14.9375 54.203125 14.9375 51.609375 
Q 14.9375 49.5625 15.46875 47.40625 
Q 16.015625 45.265625 17.421875 43.5 
Q 18.84375 41.75 21.328125 40.625 
Q 23.828125 39.5 27.734375 39.5 
Q 31.890625 39.5 34.40625 40.625 
Q 36.921875 41.75 38.25 43.5 
Q 39.59375 45.265625 40.015625 47.40625 
Q 40.4375 49.5625 40.4375 51.609375 
M 42.140625 20.015625 
Q 42.140625 22.515625 41.453125 24.828125 
Q 40.765625 27.15625 39.109375 28.9375 
Q 37.453125 30.71875 34.640625 31.8125 
Q 31.84375 32.90625 27.640625 32.90625 
Q 23.78125 32.90625 21.0625 31.8125 
Q 18.359375 30.71875 16.671875 28.90625 
Q 14.984375 27.09375 14.203125 24.71875 
Q 13.421875 22.359375 13.421875 19.828125 
Q 13.421875 16.65625 14.203125 14.03125 
Q 14.984375 11.421875 16.6875 9.546875 
Q 18.40625 7.671875 21.1875 6.640625 
Q 23.96875 5.609375 27.9375 5.609375 
Q 31.9375 5.609375 34.671875 6.640625 
Q 37.40625 7.671875 39.0625 9.546875 
Q 40.71875 11.421875 41.421875 14.078125 
Q 42.140625 16.75 42.140625 20.015625 
" id="LiberationSans-38"/>
      </defs>
      <g style="fill:#262626;" transform="translate(37.1953125 121.3859375)scale(0.1 -0.1)">
       <use xlink:href="#LiberationSans-32"/>
       <use x="55.615234375" xlink:href="#LiberationSans-38"/>
       <use x="111.23046875" xlink:href="#LiberationSans-30"/>
       <use x="166.845703125" xlink:href="#LiberationSans-30"/>
       <use x="222.4609375" xlink:href="#LiberationSans-30"/>
      </g>
     </g>
    </g>
    <g id="ytick_8">
     <g id="line2d_34">
      <path clip-path="url(#p33f469c52d)" d="M 72 79.2 
L 518.4 79.2 
" style="fill:none;stroke:#ffffff;stroke-linecap:round;"/>
     </g>
     <g id="line2d_35"/>
     <g id="line2d_36"/>
     <g id="text_13">
      <!-- 28500 -->
      <g style="fill:#262626;" transform="translate(37.1953125 81.7859375)scale(0.1 -0.1)">
       <use xlink:href="#LiberationSans-32"/>
       <use x="55.615234375" xlink:href="#LiberationSans-38"/>
       <use x="111.23046875" xlink:href="#LiberationSans-35"/>
       <use x="166.845703125" xlink:href="#LiberationSans-30"/>
       <use x="222.4609375" xlink:href="#LiberationSans-30"/>
      </g>
     </g>
    </g>
    <g id="ytick_9">
     <g id="line2d_37">
      <path clip-path="url(#p33f469c52d)" d="M 72 39.6 
L 518.4 39.6 
" style="fill:none;stroke:#ffffff;stroke-linecap:round;"/>
     </g>
     <g id="line2d_38"/>
     <g id="line2d_39"/>
     <g id="text_14">
      <!-- 29000 -->
      <defs>
       <path d="M 50.875 35.796875 
Q 50.875 26.609375 49.140625 19.703125 
Q 47.40625 12.796875 44.1875 8.203125 
Q 40.96875 3.609375 36.34375 1.3125 
Q 31.734375 -0.984375 25.984375 -0.984375 
Q 22.015625 -0.984375 18.84375 -0.171875 
Q 15.671875 0.640625 13.171875 2.34375 
Q 10.6875 4.046875 8.921875 6.78125 
Q 7.171875 9.515625 6.109375 13.375 
L 14.5 14.703125 
Q 15.875 10.25 18.78125 8.171875 
Q 21.6875 6.109375 26.125 6.109375 
Q 29.6875 6.109375 32.640625 7.78125 
Q 35.59375 9.46875 37.671875 12.84375 
Q 39.75 16.21875 40.921875 21.296875 
Q 42.09375 26.375 42.1875 33.203125 
Q 41.15625 30.90625 39.375 29.09375 
Q 37.59375 27.296875 35.328125 26.046875 
Q 33.0625 24.8125 30.421875 24.140625 
Q 27.78125 23.484375 25.09375 23.484375 
Q 20.40625 23.484375 16.625 25.171875 
Q 12.84375 26.859375 10.203125 29.875 
Q 7.5625 32.90625 6.125 37.171875 
Q 4.6875 41.453125 4.6875 46.6875 
Q 4.6875 52 6.21875 56.296875 
Q 7.765625 60.59375 10.6875 63.59375 
Q 13.625 66.609375 17.890625 68.21875 
Q 22.171875 69.828125 27.59375 69.828125 
Q 39.0625 69.828125 44.96875 61.328125 
Q 50.875 52.828125 50.875 35.796875 
M 41.3125 44.28125 
Q 41.3125 48.09375 40.40625 51.453125 
Q 39.5 54.828125 37.71875 57.3125 
Q 35.9375 59.8125 33.328125 61.25 
Q 30.71875 62.703125 27.296875 62.703125 
Q 24.125 62.703125 21.578125 61.578125 
Q 19.046875 60.453125 17.28125 58.375 
Q 15.53125 56.296875 14.578125 53.3125 
Q 13.625 50.34375 13.625 46.6875 
Q 13.625 43.21875 14.46875 40.234375 
Q 15.328125 37.25 17.03125 35.078125 
Q 18.75 32.90625 21.28125 31.65625 
Q 23.828125 30.421875 27.203125 30.421875 
Q 29.640625 30.421875 32.15625 31.25 
Q 34.671875 32.078125 36.6875 33.78125 
Q 38.71875 35.5 40.015625 38.109375 
Q 41.3125 40.71875 41.3125 44.28125 
" id="LiberationSans-39"/>
      </defs>
      <g style="fill:#262626;" transform="translate(37.1953125 42.1859375)scale(0.1 -0.1)">
       <use xlink:href="#LiberationSans-32"/>
       <use x="55.615234375" xlink:href="#LiberationSans-39"/>
       <use x="111.23046875" xlink:href="#LiberationSans-30"/>
       <use x="166.845703125" xlink:href="#LiberationSans-30"/>
       <use x="222.4609375" xlink:href="#LiberationSans-30"/>
      </g>
     </g>
    </g>
   </g>
   <g id="line2d_40">
    <path clip-path="url(#p33f469c52d)" d="M 72 328.043138 
L 72.223312 313.664247 
L 72.446623 286.068591 
L 72.669935 283.769415 
L 72.893247 277.636959 
L 73.116558 287.255374 
L 73.33987 288.603489 
L 73.563182 281.704377 
L 73.786493 281.311702 
L 74.009805 270.765299 
L 74.233117 265.769101 
L 74.456428 275.734045 
L 74.67974 271.134901 
L 74.903052 269.998643 
L 75.126363 265.769101 
L 75.349675 270.18384 
L 75.572986 277.664411 
L 75.796298 252.553128 
L 76.01961 254.667899 
L 76.242921 261.567011 
L 76.466233 255.619752 
L 76.689545 255.619752 
L 76.912856 255.434555 
L 77.136168 243.11553 
L 77.35948 250.2265 
L 77.582791 246.763613 
L 77.806103 253.874583 
L 78.029415 233.520188 
L 78.252726 233.096474 
L 78.476038 234.047535 
L 78.922661 245.730988 
L 79.145973 238.462274 
L 79.369285 243.828074 
L 79.592596 235.580847 
L 79.815908 233.280879 
L 80.03922 227.915871 
L 80.262531 218.901988 
L 80.485843 220.407848 
L 80.709155 224.821795 
L 80.932466 226.355107 
L 81.155778 220.804902 
L 81.602401 224.082591 
L 81.825713 224.479645 
L 82.049025 232.541675 
L 82.272336 231.563162 
L 82.495648 236.956414 
L 82.718959 236.004561 
L 83.165583 235.238697 
L 83.388894 222.576731 
L 83.612206 165.298892 
L 83.835518 201.723234 
L 84.058829 169.186285 
L 84.282141 188.16432 
L 84.505453 173.415827 
L 84.728764 178.754175 
L 84.952076 192.367202 
L 85.175388 191.812403 
L 85.398699 190.83389 
L 85.622011 182.402258 
L 85.845323 188.719119 
L 86.068634 191.045747 
L 86.291946 189.116173 
L 86.515258 192.948661 
L 86.738569 194.296776 
L 86.961881 192.948661 
L 87.185193 193.715317 
L 87.408504 185.495542 
L 87.631816 186.681533 
L 87.855128 185.148221 
L 88.078439 200.506418 
L 88.301751 193.422901 
L 88.525063 198.630956 
L 88.748374 232.042786 
L 88.971686 205.741925 
L 89.194997 226.465129 
L 89.418309 212.667697 
L 89.641621 220.914924 
L 89.864932 208.992954 
L 90.088244 206.692986 
L 90.311556 218.006045 
L 90.534867 220.887472 
L 90.758179 218.006045 
L 91.204802 205.317419 
L 91.428114 208.014441 
L 91.874737 194.162104 
L 92.098049 188.39925 
L 92.544672 197.994592 
L 92.991296 194.559159 
L 93.214607 198.20645 
L 93.437919 196.091679 
L 93.661231 205.89967 
L 93.884542 192.813989 
L 94.107854 198.20645 
L 94.331166 208.198846 
L 94.554477 209.86245 
L 94.777789 221.969618 
L 95.001101 221.572564 
L 95.224412 213.140932 
L 95.447724 217.554879 
L 95.671036 214.489047 
L 95.894347 219.854847 
L 96.117659 221.969618 
L 96.34097 222.736274 
L 96.564282 180.843291 
L 96.787594 168.578379 
L 97.010905 177.010011 
L 97.234217 198.445759 
L 97.457529 205.372323 
L 97.68084 183.642362 
L 97.904152 207.035928 
L 98.127464 206.269272 
L 98.350775 196.091679 
L 98.574087 180.761727 
L 98.797399 182.294247 
L 99.02071 161.413298 
L 99.244022 177.325501 
L 99.467334 177.325501 
L 99.690645 175.977386 
L 99.913957 184.224613 
L 100.137269 185.175674 
L 100.583892 207.801792 
L 100.807204 199.555357 
L 101.030515 185.757133 
L 101.253827 188.426703 
L 101.477139 196.67393 
L 101.70045 198.788701 
L 101.923762 197.070984 
L 102.370385 188.823757 
L 102.593697 191.30813 
L 102.817009 189.193359 
L 103.04032 189.932562 
L 103.263632 179.363086 
L 103.486943 181.103876 
L 103.710255 185.914877 
L 104.156878 180.522417 
L 104.38019 191.465874 
L 104.603502 186.100074 
L 104.826813 193.553193 
L 105.050125 188.187393 
L 105.496748 200.082703 
L 105.72006 202.012277 
L 105.943372 206.24182 
L 106.166683 203.360392 
L 106.389995 226.356904 
L 106.613307 229.422736 
L 106.836618 227.519823 
L 107.05993 215.440108 
L 107.283242 218.902994 
L 107.506553 212.586133 
L 107.729865 211.238018 
L 107.953177 204.708508 
L 108.176488 205.475164 
L 108.623112 205.475164 
L 108.846423 201.273074 
L 109.069735 201.087877 
L 109.293047 195.51022 
L 109.516358 215.070506 
L 109.73967 213.906796 
L 109.962981 219.66965 
L 110.186293 205.290759 
L 110.409605 205.290759 
L 110.632916 207.40553 
L 110.856228 206.638874 
L 111.302851 212.77133 
L 111.526163 214.673452 
L 111.749475 222.127362 
L 111.972786 218.294082 
L 112.196098 226.726506 
L 112.41941 241.686856 
L 112.642721 232.276711 
L 112.866033 239.572085 
L 113.089345 231.510055 
L 113.312656 231.510055 
L 113.535968 227.862764 
L 113.75928 229.977535 
L 113.982591 229.210879 
L 114.205903 221.942165 
L 114.429215 219.457792 
L 114.652526 234.60334 
L 114.875838 230.956048 
L 115.09915 205.290759 
L 115.322461 192.813989 
L 115.545773 193.395448 
L 115.769085 198.022045 
L 116.215708 157.977072 
L 116.43902 155.677896 
L 116.662331 149.361035 
L 116.885643 157.820119 
L 117.108954 158.004524 
L 117.332266 163.185127 
L 117.555578 162.022209 
L 117.778889 149.54544 
L 118.002201 147.827723 
L 118.225513 154.356441 
L 118.448824 152.057265 
L 118.672136 147.430669 
L 118.895448 147.430669 
L 119.118759 142.250066 
L 119.565383 145.131493 
L 119.788694 157.026011 
L 120.012006 156.444552 
L 120.235318 159.695581 
L 120.458629 159.11333 
L 120.681941 161.967304 
L 120.905253 158.134816 
L 121.128564 168.311618 
L 121.351876 166.409496 
L 121.575188 168.524267 
L 121.798499 167.757611 
L 122.021811 160.674094 
L 122.245123 162.206614 
L 122.468434 153.960179 
L 122.691746 158.374126 
L 122.915058 157.792667 
L 123.138369 170.056787 
L 123.361681 162.576216 
L 123.584992 169.105726 
L 123.808304 157.026011 
L 124.031616 163.370324 
L 124.478239 165.854697 
L 124.701551 156.656409 
L 124.924862 156.656409 
L 125.148174 155.308294 
L 125.371486 152.426867 
L 125.818109 165.485095 
L 126.041421 163.185127 
L 126.264732 162.815525 
L 126.488044 154.356441 
L 126.711356 158.955585 
L 126.934667 167.969468 
L 127.157979 163.370324 
L 127.381291 161.44075 
L 127.604602 158.374126 
L 127.827914 159.325979 
L 128.274537 165.088041 
L 128.721161 161.44075 
L 128.944472 162.022209 
L 129.614407 153.008326 
L 129.837719 152.057265 
L 130.061031 152.24167 
L 130.284342 153.774982 
L 130.507654 161.44075 
L 130.730965 153.008326 
L 130.954277 158.559323 
L 131.177589 153.960179 
L 131.624212 162.49903 
L 131.847524 158.085083 
L 132.070835 172.649171 
L 132.294147 163.820485 
L 133.187394 221.333254 
L 134.08064 209.257918 
L 134.303952 201.403366 
L 134.527264 209.834998 
L 134.750575 210.601654 
L 134.973887 212.901622 
L 135.197199 212.189079 
L 135.42051 203.360392 
L 135.643822 199.13085 
L 136.090445 216.049019 
L 136.313757 215.282363 
L 136.537069 235.212251 
L 136.983692 201.670128 
L 137.207004 206.638874 
L 137.430315 208.171394 
L 137.653627 221.784421 
L 137.876938 202.806386 
L 138.323562 208.753645 
L 138.546873 205.317419 
L 138.770185 208.568448 
L 138.993497 209.546961 
L 139.216808 225.274759 
L 139.44012 225.274759 
L 139.663432 234.130897 
L 139.886743 220.120816 
L 140.110055 226.650326 
L 140.556678 213.618758 
L 140.77999 212.45584 
L 141.003302 216.869787 
L 141.226613 208.438155 
L 141.449925 209.019614 
L 141.673237 186.023894 
L 141.896548 199.239867 
L 142.566483 181.582495 
L 142.789795 197.679895 
L 143.013107 197.679895 
L 143.236418 196.939899 
L 143.45973 192.525952 
L 143.683042 210.764783 
L 143.906353 210.183324 
L 144.129665 210.183324 
L 144.352976 209.416668 
L 144.576288 207.883356 
L 144.7996 204.633119 
L 145.022911 205.981234 
L 145.246223 225.753377 
L 145.469535 233.631002 
L 145.692846 235.560576 
L 145.916158 215.049229 
L 146.13947 226.362288 
L 146.362781 228.080005 
L 146.586093 225.753377 
L 146.809405 225.383775 
L 147.032716 218.66986 
L 147.47934 222.899402 
L 147.702651 223.850463 
L 147.925963 223.480861 
L 148.149275 214.282573 
L 148.372586 241.954623 
L 148.595898 228.526793 
L 148.81921 232.544478 
L 149.042521 232.941532 
L 149.265833 230.429707 
L 149.489145 236.562163 
L 149.712456 231.565965 
L 149.935768 217.001877 
L 150.15908 217.371479 
L 150.382391 222.15582 
L 150.605703 219.463176 
L 150.829015 210.841969 
L 151.052326 212.95674 
L 151.275638 212.587138 
L 151.722261 196.305333 
L 151.945573 198.974903 
L 152.168884 208.75465 
L 152.392196 199.925964 
L 152.838819 202.410337 
L 153.062131 205.688818 
L 153.285443 203.574047 
L 153.508754 202.807391 
L 153.732066 212.005679 
L 154.178689 205.106567 
L 154.402001 217.186282 
L 154.625313 205.291764 
L 154.848624 209.890908 
L 155.071936 211.820482 
L 155.295248 208.199851 
L 155.518559 199.371165 
L 155.741871 212.799787 
L 156.188494 205.900675 
L 156.411806 207.036933 
L 156.635118 207.036933 
L 156.858429 212.217536 
L 157.081741 197.838645 
L 157.305053 205.319216 
L 157.528364 200.904477 
L 157.751676 201.485936 
L 157.974987 204.367363 
L 158.198299 198.02305 
L 158.421611 203.970309 
L 158.644922 200.349678 
L 159.091546 210.896873 
L 159.314857 189.406221 
L 159.538169 196.51719 
L 159.761481 199.583814 
L 159.984792 200.746732 
L 160.208104 213.593103 
L 160.431416 216.686387 
L 160.654727 202.280044 
L 161.101351 218.986355 
L 161.324662 200.958589 
L 161.547974 198.077954 
L 161.771286 199.610474 
L 161.994597 206.351841 
L 162.217909 203.07336 
L 162.441221 205.373328 
L 162.887844 215.338272 
L 163.111156 216.104928 
L 163.334467 210.739128 
L 163.557779 224.166958 
L 163.781091 222.052187 
L 164.004402 223.215897 
L 164.451026 227.048385 
L 164.674337 231.647529 
L 165.12096 224.933614 
L 165.344272 213.80496 
L 165.567584 222.052187 
L 165.790895 222.079639 
L 166.014207 239.764464 
L 166.237519 219.198212 
L 166.684142 222.872955 
L 166.907454 224.406267 
L 167.130765 218.061954 
L 167.354077 231.886838 
L 167.577389 230.538723 
L 167.8007 230.141669 
L 168.024012 235.507469 
L 168.247324 250.838213 
L 168.917259 215.050235 
L 169.363882 256.020614 
L 169.587194 237.17208 
L 169.810505 239.286851 
L 170.033817 243.119339 
L 170.257129 240.053507 
L 170.48044 239.102446 
L 170.703752 230.670022 
L 171.150375 194.642734 
L 171.373687 200.960387 
L 171.596998 199.981873 
L 171.82031 183.487419 
L 172.043622 187.112429 
L 172.266933 183.649543 
L 172.490245 185.36726 
L 172.713557 189.781999 
L 172.936868 197.26257 
L 173.383492 195.941115 
L 173.606803 198.818163 
L 173.830115 197.284851 
L 174.053427 197.867102 
L 174.50005 189.250273 
L 174.723362 188.880672 
L 174.946673 197.709358 
L 175.169985 200.008534 
L 175.393297 200.008534 
L 175.616608 197.709358 
L 175.83992 198.660419 
L 176.063232 198.290817 
L 176.286543 200.405588 
L 176.509855 182.775668 
L 176.733167 187.559217 
L 176.956478 173.761785 
L 177.17979 180.660897 
L 177.403102 193.691673 
L 177.626413 196.757505 
L 177.849725 196.387903 
L 178.073037 193.507268 
L 178.296348 200.405588 
L 178.51966 201.753703 
L 178.742971 203.868474 
L 178.966283 195.622039 
L 179.189595 177.224671 
L 179.412906 171.093007 
L 179.85953 183.938586 
L 180.306153 177.040266 
L 180.752776 186.820013 
L 180.976088 182.220869 
L 181.1994 190.282899 
L 181.422711 191.234752 
L 181.646023 174.898043 
L 181.869335 180.660897 
L 182.092646 193.691673 
L 182.315958 183.514872 
L 182.53927 183.699277 
L 182.762581 192.158361 
L 183.209205 188.695475 
L 183.432516 184.651129 
L 183.87914 187.34736 
L 184.102451 178.149072 
L 184.325763 180.448248 
L 184.549075 180.633445 
L 184.772386 181.797155 
L 184.995698 186.026697 
L 185.21901 177.567613 
L 185.665633 184.862987 
L 185.888944 187.928819 
L 186.335568 205.004732 
L 186.558879 207.33136 
L 186.782191 196.203498 
L 187.005503 196.970154 
L 187.228814 200.802642 
L 187.452126 236.432876 
L 187.675438 236.432876 
L 188.122061 253.296932 
L 188.791996 232.99665 
L 189.015308 229.930818 
L 189.461931 233.763306 
L 189.685243 230.697474 
L 189.908554 215.36673 
L 190.131866 212.300898 
L 190.355178 218.248157 
L 190.578489 196.018301 
L 190.801801 196.018301 
L 191.025113 192.185813 
L 191.248424 203.101818 
L 191.471736 200.802642 
L 191.695048 206.168442 
L 192.141671 200.802642 
L 192.364982 185.074844 
L 192.811606 191.788759 
L 193.034917 182.590471 
L 193.258229 159.594751 
L 193.481541 161.128063 
L 193.704852 123.594915 
L 193.928164 130.30883 
L 194.151476 117.859513 
L 194.374787 120.158689 
L 194.598099 118.229115 
L 195.044722 123.409718 
L 195.491346 130.30883 
L 195.937969 145.454377 
L 196.161281 150.820177 
L 196.384592 183.014977 
L 196.607904 188.380777 
L 196.831216 175.349209 
L 197.277839 181.481665 
L 197.501151 182.248321 
L 197.724462 179.948353 
L 197.947774 181.481665 
L 198.171086 181.481665 
L 198.394397 170.353011 
L 198.617709 177.833582 
L 198.841021 191.816211 
L 199.064332 195.806444 
L 199.287644 189.462131 
L 199.510955 216.291131 
L 199.734267 201.9389 
L 199.957579 206.352847 
L 200.404202 210.186127 
L 200.627514 208.071356 
L 201.074137 196.387903 
L 201.297449 195.436842 
L 201.52076 210.00093 
L 201.744072 215.36673 
L 201.967384 213.251959 
L 202.190695 206.538044 
L 202.414007 206.168442 
L 202.637319 216.317791 
L 203.083942 208.83722 
L 203.530565 217.084447 
L 203.753877 207.701754 
L 203.977189 213.649013 
L 204.2005 225.913133 
L 204.647124 238.178045 
L 204.870435 224.93462 
L 205.093747 239.498708 
L 205.317059 238.732052 
L 205.763682 259.244191 
L 205.986993 263.076679 
L 206.433617 244.680103 
L 206.656928 250.045903 
L 206.88024 245.261562 
L 207.103552 236.063274 
L 207.326863 203.765633 
L 207.550175 191.104459 
L 207.773487 188.065287 
L 207.996798 196.496919 
L 208.22011 196.312514 
L 208.443422 198.796887 
L 208.666733 190.919262 
L 208.890045 193.588832 
L 209.113357 190.125946 
L 209.336668 191.658466 
L 209.783292 220.205183 
L 210.006603 207.755866 
L 210.229915 204.874439 
L 210.453227 217.693358 
L 210.676538 211.349045 
L 210.89985 200.987047 
L 211.123162 206.749901 
L 211.346473 209.049869 
L 211.793097 195.648699 
L 212.016408 199.878241 
L 212.23972 190.098494 
L 212.463032 189.913297 
L 212.909655 209.843185 
L 213.132966 195.279097 
L 213.356278 201.226356 
L 213.57959 200.43304 
L 213.802901 184.67779 
L 214.249525 193.691673 
L 214.472836 194.088727 
L 214.696148 198.133072 
L 214.91946 197.948667 
L 215.142771 199.508639 
L 215.366083 197.76347 
L 215.589395 207.967723 
L 215.812706 204.31964 
L 216.036018 209.315838 
L 216.25933 201.835267 
L 216.482641 214.70909 
L 216.705953 215.106144 
L 216.929265 221.820059 
L 217.152576 220.656349 
L 217.375888 221.977804 
L 217.5992 218.329721 
L 217.822511 226.234006 
L 218.045823 242.751534 
L 218.269135 246.21442 
L 218.492446 232.578319 
L 218.715758 229.696892 
L 218.93907 233.50272 
L 219.162381 234.269376 
L 219.385693 235.987093 
L 219.609005 236.568552 
L 220.055628 231.202752 
L 220.278939 231.969408 
L 220.502251 230.251691 
L 220.725563 233.317523 
L 220.948874 244.473629 
L 221.172186 242.358858 
L 221.395498 243.891378 
L 222.065433 254.064593 
L 222.288744 250.023834 
L 222.735368 251.371949 
L 223.181991 261.175562 
L 223.405303 250.997969 
L 223.851926 255.227511 
L 224.075238 259.272648 
L 224.298549 257.157877 
L 224.521861 256.391221 
L 224.968484 264.083649 
L 225.191796 257.739336 
L 225.415108 258.533444 
L 225.638419 253.721651 
L 225.861731 263.316993 
L 226.085043 260.860072 
L 226.308354 267.573987 
L 226.531666 266.992528 
L 226.978289 247.616647 
L 227.424912 271.987934 
L 227.648224 261.441531 
L 227.871536 261.811133 
L 228.094847 253.749103 
L 228.318159 255.863874 
L 228.541471 248.383303 
L 229.211406 214.840388 
L 229.434717 216.401152 
L 229.881341 209.871642 
L 230.104652 204.13624 
L 230.327964 201.837064 
L 230.551276 195.307554 
L 230.774587 197.23792 
L 230.997899 188.224037 
L 231.221211 192.426127 
L 231.444522 204.505842 
L 232.561081 151.800487 
L 232.784392 138.18746 
L 233.007704 136.866005 
L 233.231016 127.270663 
L 233.454327 123.438175 
L 233.677639 122.671519 
L 233.90095 105.041599 
L 234.347574 124.390028 
L 234.570885 129.173577 
L 234.794197 124.362576 
L 235.017509 137.975603 
L 235.24082 135.094176 
L 235.464132 116.327206 
L 235.687444 110.379947 
L 235.910755 112.679915 
L 236.357379 130.891294 
L 236.58069 123.226318 
L 236.804002 130.891294 
L 237.027314 123.411515 
L 237.250625 134.142323 
L 237.473937 124.944035 
L 237.697249 123.411515 
L 238.143872 134.566829 
L 238.367184 117.305719 
L 238.590495 113.473231 
L 238.813807 119.42049 
L 239.037119 119.42049 
L 239.26043 120.187146 
L 239.483742 115.006543 
L 239.707054 122.671519 
L 240.153677 126.319602 
L 240.376988 125.552946 
L 240.823612 113.288826 
L 241.046923 115.588002 
L 241.270235 116.354658 
L 241.493547 120.953802 
L 241.716858 114.636941 
L 241.94017 122.117512 
L 242.163482 115.403597 
L 242.386793 121.720458 
L 242.610105 121.720458 
L 242.833417 120.5842 
L 243.056728 122.117512 
L 243.28004 124.998939 
L 243.503352 123.28043 
L 243.726663 127.695169 
L 243.949975 168.321601 
L 244.173287 175.77472 
L 244.61991 157.378144 
L 244.843222 157.378144 
L 245.066533 178.868004 
L 245.513157 152.012344 
L 245.736468 147.994659 
L 245.95978 131.712854 
L 246.406403 139.774884 
L 246.629715 139.008228 
L 246.853027 140.356343 
L 247.076338 144.004427 
L 247.522961 132.109116 
L 247.746273 141.122999 
L 247.969585 158.568515 
L 248.192896 164.700971 
L 248.416208 159.123313 
L 248.862831 170.039318 
L 249.086143 170.039318 
L 249.309455 173.10515 
L 249.532766 168.321601 
L 249.756078 185.554467 
L 249.97939 184.603406 
L 250.202701 185.951521 
L 250.426013 184.603406 
L 250.649325 185.951521 
L 250.872636 175.986577 
L 251.31926 174.638462 
L 251.542571 188.066292 
L 251.765883 185.951521 
L 251.989195 176.356179 
L 252.212506 174.057003 
L 252.65913 189.757349 
L 252.882441 186.84847 
L 253.105753 188.196585 
L 253.552376 182.064921 
L 253.775688 179.183494 
L 254.445623 192.823181 
L 254.668934 192.056525 
L 254.892246 190.524005 
L 255.115558 194.356493 
L 255.338869 208.523527 
L 255.562181 193.562385 
L 255.785493 201.200701 
L 256.008804 220.391385 
L 256.678739 194.856388 
L 256.902051 209.81753 
L 257.125363 210.584186 
L 257.348674 209.81753 
L 257.571986 217.298101 
L 257.795298 218.064757 
L 258.018609 204.054676 
L 258.241921 198.874073 
L 258.688544 184.102506 
L 258.911856 186.956481 
L 259.358479 173.555311 
L 259.805103 171.41388 
L 260.028414 152.195744 
L 260.251726 163.905857 
L 260.475038 163.139201 
L 260.698349 169.456062 
L 260.921661 164.856918 
L 261.144972 166.787284 
L 261.368284 177.915146 
L 261.591596 154.522372 
L 261.814907 174.664117 
L 262.038219 182.144688 
L 262.261531 181.378824 
L 262.484842 182.51429 
L 262.708154 174.479712 
L 263.154777 179.106308 
L 263.378089 167.422855 
L 263.601401 162.454109 
L 263.824712 166.471794 
L 264.048024 159.943076 
L 264.271336 163.405962 
L 264.494647 163.775564 
L 264.717959 168.374708 
L 264.941271 163.775564 
L 265.164582 167.026593 
L 265.387894 161.475596 
L 265.611206 161.475596 
L 266.057829 147.466307 
L 266.281141 151.695849 
L 266.504452 173.555311 
L 266.727764 170.673884 
L 266.951076 175.670082 
L 267.174387 174.903426 
L 267.397699 181.058956 
L 267.844322 186.794358 
L 268.067634 182.569194 
L 268.290945 184.814258 
L 268.514257 176.567031 
L 268.737569 178.866999 
L 268.96088 189.994861 
L 269.184192 180.98177 
L 269.407504 199.7754 
L 269.630815 208.973688 
L 269.854127 210.903262 
L 270.077439 216.112109 
L 270.30075 217.644629 
L 270.524062 230.144472 
L 270.747374 227.660099 
L 270.970685 219.015818 
L 271.193997 226.311192 
L 271.417309 210.746309 
L 271.64062 213.068559 
L 272.310555 227.077848 
L 272.757179 237.8369 
L 272.98049 232.443648 
L 273.203802 218.434359 
L 273.427114 217.667703 
L 273.650425 226.893443 
L 273.873737 222.109102 
L 274.097049 201.016296 
L 274.32036 193.931987 
L 274.543672 208.496075 
L 274.766983 210.214584 
L 274.990295 208.681272 
L 275.213607 210.214584 
L 275.436918 223.033503 
L 275.66023 221.103137 
L 275.883542 189.86019 
L 276.106853 197.133282 
L 276.330165 200.199114 
L 276.553477 209.397402 
L 276.776788 205.538254 
L 277.0001 220.895658 
L 277.223412 219.335686 
L 277.446723 209.952201 
L 277.670035 213.20323 
L 277.893347 229.696892 
L 278.116658 221.450457 
L 278.563282 245.212833 
L 278.786593 238.498918 
L 279.009905 240.244087 
L 279.233217 229.882089 
L 279.456528 240.244087 
L 279.903152 248.143994 
L 280.126463 225.517876 
L 280.573087 242.912865 
L 280.796398 242.173661 
L 281.01971 240.641141 
L 281.243022 236.041205 
L 281.466333 246.560948 
L 281.689645 247.724658 
L 281.912956 251.949822 
L 282.136268 251.58022 
L 282.35958 253.509794 
L 282.582891 254.248998 
L 282.806203 249.072773 
L 283.029515 258.081486 
L 283.476138 254.99258 
L 283.69945 257.107351 
L 283.922761 250.41651 
L 284.146073 258.848142 
L 284.369385 260.962913 
L 284.816008 251.183166 
L 285.03932 254.064593 
L 285.262631 264.610996 
L 285.485943 263.077684 
L 285.709255 227.952515 
L 285.932566 233.133118 
L 286.155878 229.485035 
L 286.37919 280.338794 
L 287.049125 260.593311 
L 287.272436 266.937624 
L 287.495748 258.320795 
L 287.71906 261.599276 
L 287.942371 255.282415 
L 288.165683 280.050756 
L 288.388994 272.173131 
L 288.612306 272.173131 
L 288.835618 269.873163 
L 289.282241 275.793762 
L 289.505553 279.229196 
L 289.728864 268.655341 
L 290.175488 261.387419 
L 290.398799 265.405104 
L 290.622111 259.749469 
L 290.845423 262.261294 
L 291.068734 256.895494 
L 291.515358 259.222122 
L 291.738669 260.571029 
L 291.961981 256.737749 
L 292.185293 264.403517 
L 292.408604 259.988778 
L 292.855228 258.216949 
L 293.078539 262.446491 
L 293.301851 252.851149 
L 293.525163 249.572668 
L 293.748474 244.206868 
L 293.971786 256.711089 
L 294.195098 248.43641 
L 294.418409 252.111945 
L 294.641721 244.418725 
L 294.865033 246.533496 
L 295.311656 239.21067 
L 295.534967 227.500557 
L 295.758279 239.423319 
L 296.204902 240.771434 
L 296.428214 230.964235 
L 296.874837 244.206868 
L 297.098149 241.907692 
L 297.321461 241.141036 
L 297.544772 245.397238 
L 297.768084 259.804373 
L 297.991396 243.837266 
L 298.214707 247.882403 
L 298.438019 246.560948 
L 298.661331 250.79049 
L 298.884642 219.362346 
L 299.107954 231.230204 
L 299.331266 234.69309 
L 299.554577 223.195626 
L 299.777889 222.217113 
L 300.224512 239.157563 
L 300.447824 245.290019 
L 300.671136 247.40479 
L 300.894447 238.364247 
L 301.117759 238.761301 
L 301.341071 238.364247 
L 301.564382 224.75122 
L 301.787694 225.148274 
L 302.011006 225.148274 
L 302.234317 265.377652 
L 302.457629 241.984878 
L 302.68094 236.619078 
L 302.904252 222.243773 
L 303.350875 227.79477 
L 303.574187 241.984878 
L 303.797499 204.846987 
L 304.02081 217.111899 
L 304.244122 201.041951 
L 304.467434 212.806176 
L 304.914057 194.779202 
L 305.137369 201.439005 
L 305.36068 197.790922 
L 305.583992 183.938586 
L 305.807304 187.983723 
L 306.030615 184.890439 
L 306.253927 176.458015 
L 306.477239 180.106098 
L 306.70055 179.312782 
L 306.923862 174.686185 
L 307.147174 187.374812 
L 307.370485 190.652501 
L 307.593797 198.715323 
L 307.817109 194.670186 
L 308.04042 196.600552 
L 308.487044 190.837698 
L 308.710355 193.533928 
L 308.933667 192.185813 
L 309.156978 184.862987 
L 309.38029 186.820013 
L 309.603602 183.14527 
L 309.826913 188.353325 
L 310.273537 179.709044 
L 310.496848 177.409868 
L 310.72016 182.775668 
L 310.943472 181.427553 
L 311.390095 172.783272 
L 311.836718 169.7441 
L 312.06003 177.991327 
L 312.283342 174.528441 
L 312.506653 179.709044 
L 312.729965 178.360929 
L 312.953277 179.312782 
L 313.176588 177.594273 
L 313.3999 173.180326 
L 313.623212 173.180326 
L 313.846523 161.258355 
L 314.069835 162.236869 
L 314.293147 161.654617 
L 314.73977 163.584984 
L 314.963082 159.355441 
L 315.186393 159.539846 
L 315.409705 162.024219 
L 315.633017 160.491699 
L 315.856328 167.579595 
L 316.07964 155.102826 
L 316.302951 152.80365 
L 316.749575 155.288023 
L 316.972886 162.001938 
L 317.41951 151.031029 
L 317.642821 167.709888 
L 317.866133 160.810776 
L 318.089445 159.278256 
L 318.312756 153.330997 
L 318.536068 162.344088 
L 318.75938 158.5116 
L 318.982691 162.159683 
L 319.206003 184.416199 
L 319.429315 176.168972 
L 319.652626 175.984567 
L 319.875938 171.755025 
L 320.09925 171.755025 
L 320.322561 168.503996 
L 320.545873 169.085455 
L 320.769185 166.019623 
L 320.992496 167.155089 
L 321.215808 159.859715 
L 321.43912 172.336484 
L 321.885743 181.137718 
L 322.109055 164.828461 
L 322.332366 163.8774 
L 322.555678 160.229317 
L 322.778989 163.8774 
L 323.002301 163.295941 
L 323.448924 179.050399 
L 323.672236 179.050399 
L 323.895548 183.649543 
L 324.118859 180.953313 
L 324.342171 186.900572 
L 324.565483 184.785801 
L 325.012106 194.750745 
L 325.458729 202.97052 
L 325.682041 188.009378 
L 325.905353 188.406432 
L 326.128664 178.22963 
L 326.575288 181.111058 
L 326.798599 178.599232 
L 327.021911 174.766744 
L 327.245223 165.013658 
L 327.468534 176.14152 
L 327.691846 172.706086 
L 327.915158 166.943232 
L 328.138469 170.406118 
L 328.361781 170.009856 
L 328.585093 165.040318 
L 328.808404 164.644056 
L 329.031716 170.009856 
L 329.255028 167.128429 
L 329.701651 170.406118 
L 330.148274 180.556259 
L 330.371586 172.309032 
L 330.594897 176.908176 
L 330.818209 175.190459 
L 331.041521 188.406432 
L 331.488144 179.789603 
L 331.711456 180.740664 
L 331.934767 180.740664 
L 332.158079 174.793405 
L 332.381391 178.441488 
L 332.604702 176.908176 
L 332.828014 179.022947 
L 333.051326 179.022947 
L 333.274637 177.30523 
L 333.497949 177.674832 
L 333.721261 174.239398 
L 334.167884 181.534772 
L 334.391196 176.750431 
L 334.837819 186.928024 
L 335.061131 182.698482 
L 335.284442 192.478229 
L 335.507754 182.513285 
L 335.731066 185.394712 
L 335.954377 178.099338 
L 336.177689 165.410712 
L 336.401001 165.806974 
L 336.624312 162.159683 
L 336.847624 165.992171 
L 337.070935 162.71369 
L 337.294247 166.361773 
L 337.517559 156.396829 
L 337.74087 170.803172 
L 337.964182 156.396829 
L 338.187494 162.529285 
L 338.634117 154.836856 
L 338.857429 185.976171 
L 339.08074 151.955429 
L 339.304052 184.443651 
L 339.527364 121.478346 
L 339.750675 168.156675 
L 339.973987 97.558226 
L 340.197299 102.684716 
L 340.42061 98.085572 
L 340.643922 105.778 
L 340.867234 103.478824 
L 341.090545 97.216076 
L 341.313857 102.581876 
L 341.537169 88.784444 
L 341.76048 97.982732 
L 341.983792 118.38686 
L 342.207104 116.483946 
L 342.430415 120.871233 
L 342.653727 130.069521 
L 342.877039 122.908818 
L 343.10035 123.859879 
L 343.323662 123.093223 
L 343.546973 131.575381 
L 343.770285 130.808725 
L 343.993597 145.797319 
L 344.216908 147.91209 
L 344.44022 151.189779 
L 344.663532 151.956435 
L 345.110155 155.788923 
L 345.333467 149.629807 
L 345.556778 153.27789 
L 345.78009 153.27789 
L 346.003402 146.563183 
L 346.226713 156.528127 
L 346.450025 158.061439 
L 346.673337 149.44461 
L 346.896648 163.824293 
L 347.343272 170.353011 
L 347.566583 171.701918 
L 348.236518 115.612652 
L 348.45983 114.449734 
L 348.683142 118.494079 
L 348.906453 125.231067 
L 349.129765 143.789767 
L 349.576388 124.572422 
L 349.7997 129.383424 
L 350.023012 117.461453 
L 350.469635 123.223515 
L 350.692946 113.655626 
L 351.13957 107.52317 
L 351.362881 104.854392 
L 351.809505 116.74891 
L 352.256128 107.338765 
L 352.47944 107.735819 
L 352.926063 115.031193 
L 353.149375 108.317278 
L 353.372686 110.432049 
L 353.595998 108.898737 
L 353.81931 110.246852 
L 354.042621 116.74891 
L 354.265933 110.432049 
L 354.489245 110.246852 
L 354.712556 111.013508 
L 354.935868 117.940072 
L 355.382491 110.274304 
L 355.605803 130.596867 
L 355.829115 126.371704 
L 356.052426 126.556109 
L 356.275738 128.67088 
L 356.49905 128.67088 
L 356.722361 132.50416 
L 356.945673 134.03668 
L 357.168984 133.455221 
L 357.392296 135.569992 
L 358.062231 149.949675 
L 358.285543 146.883051 
L 358.508854 156.081339 
L 358.732166 152.248851 
L 358.955478 165.279627 
L 359.402101 153.199912 
L 359.625413 160.680483 
L 359.848724 159.332368 
L 360.072036 162.421273 
L 360.295348 170.853697 
L 360.518659 174.686185 
L 360.741971 166.253761 
L 360.965283 163.954585 
L 361.411906 164.748694 
L 361.635218 168.978236 
L 361.858529 158.246636 
L 362.081841 159.779156 
L 362.305153 163.796841 
L 362.528464 154.386696 
L 362.751776 157.082926 
L 362.975088 150.95047 
L 363.198399 151.717126 
L 363.645023 139.425553 
L 363.868334 136.151451 
L 364.314957 125.605048 
L 365.208204 149.949675 
L 365.654827 139.40248 
L 365.878139 141.120197 
L 366.101451 138.821021 
L 366.324762 140.169136 
L 366.548074 98.961245 
L 366.771386 99.727901 
L 366.994697 105.832905 
L 367.218009 104.141848 
L 367.441321 116.826096 
L 367.664632 116.641691 
L 367.887944 117.22315 
L 368.111256 121.822294 
L 368.334567 116.05944 
L 368.781191 134.880522 
L 369.004502 136.044232 
L 369.227814 127.6126 
L 369.451126 128.194059 
L 369.674437 139.904172 
L 369.897749 129.911776 
L 370.121061 155.500885 
L 370.344372 152.619458 
L 370.567684 131.684397 
L 370.790995 130.890289 
L 371.014307 146.460342 
L 371.237619 144.92703 
L 371.684242 182.98853 
L 371.907554 181.270813 
L 372.130865 169.191098 
L 372.354177 163.428244 
L 372.577489 147.308562 
L 372.8008 164.010495 
L 373.024112 164.010495 
L 373.247424 145.008594 
L 373.470735 149.211476 
L 373.694047 140.964249 
L 373.917359 150.374394 
L 374.14067 136.946564 
L 374.363982 134.831793 
L 374.587294 144.215278 
L 374.810605 139.033883 
L 375.033917 148.259623 
L 375.257229 145.74859 
L 375.48054 151.326247 
L 375.703852 149.581078 
L 375.927164 154.577276 
L 376.373787 137.659108 
L 377.043722 152.592798 
L 377.267034 151.059486 
L 377.490345 152.592798 
L 377.713657 152.9624 
L 377.936968 152.195744 
L 378.16028 178.258088 
L 378.383592 153.886801 
L 378.606903 161.182175 
L 378.830215 159.067404 
L 379.053527 161.36658 
L 379.276838 159.83406 
L 379.50015 160.600716 
L 379.723462 163.666548 
L 379.946773 157.903694 
L 380.170085 147.542488 
L 380.393397 145.24252 
L 380.616708 144.448412 
L 381.063332 126.024384 
L 381.286643 133.135353 
L 381.509955 129.302865 
L 381.733267 130.65098 
L 382.17989 126.633295 
L 382.403202 127.215546 
L 382.626513 128.351804 
L 382.849825 126.818492 
L 383.073137 126.237033 
L 383.296448 115.663177 
L 383.51976 121.452692 
L 383.743072 119.153516 
L 383.966383 119.153516 
L 384.413007 130.281378 
L 384.636318 130.862837 
L 384.85963 123.75266 
L 385.082941 143.339606 
L 385.306253 120.371338 
L 385.529565 121.719453 
L 385.976188 138.795366 
L 386.646123 145.139679 
L 386.869435 151.271343 
L 387.092746 139.958284 
L 387.316058 143.155201 
L 387.53937 161.763634 
L 387.762681 162.290981 
L 387.985993 152.511234 
L 388.209305 158.855547 
L 388.432616 150.211266 
L 388.87924 173.076693 
L 389.102551 162.899892 
L 389.325863 160.785121 
L 389.549175 157.137038 
L 389.772486 165.939064 
L 389.995798 165.939064 
L 390.442421 189.277726 
L 390.665733 190.04359 
L 390.889045 182.378614 
L 391.335668 181.242356 
L 391.558979 183.726729 
L 391.782291 194.088727 
L 392.005603 182.378614 
L 392.228914 188.907332 
L 392.452226 212.6705 
L 392.675538 211.137188 
L 392.898849 210.951991 
L 393.122161 211.718647 
L 393.345473 211.137188 
L 393.568784 209.603876 
L 393.792096 210.370532 
L 394.015408 209.022417 
L 394.238719 204.607678 
L 394.462031 212.6705 
L 394.685343 214.969676 
L 394.908654 219.384415 
L 395.131966 216.133386 
L 395.355278 215.551927 
L 395.801901 211.137188 
L 396.025213 203.472212 
L 396.248524 247.348881 
L 396.471836 251.182161 
L 396.695148 257.499022 
L 397.141771 237.569134 
L 397.365083 233.339592 
L 397.588394 231.80628 
L 397.811706 241.771224 
L 398.258329 226.043425 
L 398.481641 221.048019 
L 398.704952 218.748051 
L 398.928264 218.748051 
L 399.374887 217.030334 
L 399.821511 230.272968 
L 400.044822 229.321907 
L 400.268134 208.625363 
L 400.491446 216.291131 
L 400.714757 214.572622 
L 400.938069 213.991163 
L 401.161381 216.105934 
L 401.384692 216.87259 
L 401.608004 215.339278 
L 401.831316 215.339278 
L 402.054627 222.080645 
L 402.277939 220.73253 
L 402.501251 214.969676 
L 402.947874 229.930818 
L 403.171186 226.09833 
L 403.394497 226.09833 
L 403.617809 232.203334 
L 403.841121 225.673824 
L 404.287744 230.670022 
L 404.511056 253.666534 
L 404.734367 251.366566 
L 405.18099 234.106248 
L 405.404302 247.137024 
L 405.627614 251.366566 
L 405.850925 240.237912 
L 406.297549 240.237912 
L 406.52086 241.004568 
L 406.744172 244.837848 
L 406.967484 244.097852 
L 407.190795 247.56153 
L 407.414107 242.989046 
L 407.637419 243.358648 
L 407.86073 248.354846 
L 408.084042 249.09405 
L 408.307354 264.609991 
L 408.753977 232.230786 
L 408.977289 236.82993 
L 409.2006 236.063274 
L 409.423912 237.041787 
L 409.647224 235.296618 
L 409.870535 241.217217 
L 410.093847 219.491634 
L 410.317159 220.25829 
L 410.54047 211.799206 
L 410.763782 216.556094 
L 410.987094 207.357806 
L 411.88034 230.169122 
L 412.103652 242.460694 
L 412.326963 242.460694 
L 412.550275 240.742977 
L 412.773587 232.523202 
L 412.996898 231.174295 
L 413.22021 221.182691 
L 413.443522 230.195782 
L 413.666833 232.310553 
L 413.890145 226.178889 
L 414.113457 239.024468 
L 414.336768 235.958636 
L 414.56008 261.886309 
L 414.783392 266.300256 
L 415.006703 264.00108 
L 415.230015 253.639081 
L 415.453327 264.582539 
L 415.676638 258.847137 
L 415.89995 265.19145 
L 416.123262 285.545052 
L 416.569885 283.827335 
L 416.793197 288.823533 
L 417.016508 286.708762 
L 417.463132 272.91133 
L 417.686443 275.026101 
L 417.909755 288.242074 
L 418.133067 286.708762 
L 418.356378 283.245876 
L 418.57969 282.664417 
L 418.803002 284.012532 
L 419.026313 283.034019 
L 419.249625 280.364449 
L 419.472936 280.364449 
L 419.696248 284.012532 
L 419.91956 279.994847 
L 420.142871 289.351885 
L 420.366183 292.20586 
L 420.589495 236.911494 
L 420.812806 239.977326 
L 421.036118 245.343126 
L 421.25943 247.643094 
L 421.482741 246.876438 
L 421.706053 257.608038 
L 421.929365 259.140558 
L 422.152676 256.841382 
L 422.375988 266.436724 
L 422.5993 266.067122 
L 422.822611 267.599642 
L 423.045923 273.732098 
L 423.269235 275.846869 
L 423.492546 275.26541 
L 423.715858 283.115583 
L 423.93917 274.498754 
L 424.162481 272.965442 
L 424.385793 274.498754 
L 425.055728 262.576784 
L 425.27904 263.952351 
L 425.725663 216.448875 
L 425.948974 204.238076 
L 426.172286 211.903844 
L 426.395598 207.3047 
L 427.065533 219.938422 
L 427.288844 203.047705 
L 427.512156 204.978072 
L 427.735468 219.384415 
L 427.958779 184.123783 
L 428.405403 200.405588 
L 428.628714 192.555415 
L 428.852026 191.022103 
L 429.075338 203.472212 
L 429.298649 205.004732 
L 429.745273 201.357441 
L 429.968584 203.472212 
L 430.191896 199.24267 
L 430.415208 191.734646 
L 430.638519 194.642734 
L 430.861831 175.479502 
L 431.085143 180.4757 
L 431.308454 181.242356 
L 431.531766 174.343244 
L 431.755078 177.224671 
L 431.978389 133.717604 
L 432.201701 145.612122 
L 432.425013 145.612122 
L 432.648324 129.14512 
L 432.871636 202.444178 
L 433.094947 234.845451 
L 433.318259 245.577051 
L 433.541571 263.206971 
L 433.764882 257.074515 
L 433.988194 264.212937 
L 434.211506 249.06739 
L 434.434817 251.948025 
L 434.658129 252.133222 
L 434.881441 252.899878 
L 435.104752 254.432398 
L 435.328064 270.8994 
L 435.774687 258.477535 
L 435.997999 267.518078 
L 436.221311 264.452246 
L 436.444622 266.012218 
L 436.667934 262.549332 
L 436.891246 243.3861 
L 437.114557 252.002929 
L 437.337869 255.068761 
L 437.561181 254.1177 
L 437.784492 242.19573 
L 438.007804 243.331988 
L 438.454427 233.736646 
L 438.677739 235.084761 
L 438.901051 255.253958 
L 439.124362 257.183532 
L 439.347674 239.553612 
L 439.570985 259.695357 
L 440.017609 229.294454 
L 440.464232 259.401936 
L 440.687544 256.335312 
L 440.910855 258.63528 
L 441.134167 254.036136 
L 441.357479 264.767736 
L 441.58079 265.718797 
L 441.804102 248.696996 
L 442.027414 254.884356 
L 442.250725 225.385786 
L 442.474037 236.302583 
L 442.697349 235.35073 
L 443.143972 252.187334 
L 443.367284 226.125782 
L 443.590595 235.32407 
L 443.813907 249.730413 
L 444.037219 251.845184 
L 444.26053 248.012696 
L 444.707154 244.152756 
L 444.930465 254.699159 
L 445.153777 249.333359 
L 445.377089 257.608038 
L 445.6004 256.074726 
L 445.823712 258.189497 
L 446.047024 268.366298 
L 446.270335 264.53381 
L 446.493647 265.854473 
L 446.716958 291.574667 
L 446.94027 281.794128 
L 447.163582 292.922782 
L 447.610205 286.605921 
L 447.833517 277.222436 
L 448.056828 275.477267 
L 448.28014 268.790804 
L 448.503452 269.556668 
L 448.726763 273.943955 
L 448.950075 267.996696 
L 449.173387 279.494952 
L 449.396698 279.12535 
L 449.62001 280.261608 
L 449.843322 268.181893 
L 450.066633 264.53381 
L 450.289945 269.344811 
L 450.513257 266.093782 
L 450.736568 266.121234 
L 450.95988 267.257492 
L 451.183192 261.706495 
L 451.629815 273.389948 
L 451.853127 261.891692 
L 452.076438 271.08998 
L 452.523062 257.107351 
L 452.746373 262.288746 
L 452.969685 293.36957 
L 453.192996 281.871314 
L 453.416308 283.80168 
L 453.63962 287.237114 
L 453.862931 283.80168 
L 454.086243 278.43588 
L 454.309555 276.902568 
L 454.532866 276.902568 
L 454.756178 285.334992 
L 454.97949 270.216105 
L 455.202801 281.583276 
L 455.426113 281.583276 
L 455.872736 274.342015 
L 456.096048 265.143727 
L 456.542671 280.474471 
L 456.765983 276.244929 
L 456.989295 267.046641 
L 457.212606 270.879129 
L 457.65923 284.676561 
L 457.882541 271.645785 
L 458.105853 273.151644 
L 458.329165 293.081532 
L 458.552476 292.314876 
L 458.775788 278.517444 
L 459.222411 272.358328 
L 459.445723 259.669702 
L 459.669035 276.375221 
L 459.892346 278.489992 
L 460.115658 274.445647 
L 460.338969 292.288216 
L 460.562281 299.953192 
L 461.008904 301.486504 
L 461.232216 294.587392 
L 461.455528 300.719848 
L 461.678839 276.163364 
L 461.902151 283.829132 
L 462.125463 280.365454 
L 462.348774 285.389104 
L 462.572086 279.044791 
L 462.795398 291.494108 
L 463.018709 283.062476 
L 463.242021 284.780193 
L 463.465333 280.735056 
L 463.688644 285.334992 
L 463.911956 272.461169 
L 464.135268 277.641772 
L 464.358579 265.936037 
L 464.581891 267.654546 
L 464.805203 268.04643 
L 465.028514 279.360281 
L 465.251826 281.659457 
L 465.475138 281.659457 
L 465.698449 283.220221 
L 465.921761 291.705965 
L 466.145073 291.705965 
L 466.368384 294.587392 
L 466.815008 275.608565 
L 467.261631 290.754904 
L 467.931566 268.89465 
L 468.154877 276.772275 
L 468.378189 275.082011 
L 468.824812 278.544897 
L 469.048124 274.499759 
L 469.271436 277.593044 
L 469.494747 286.606927 
L 469.718059 286.025468 
L 470.164682 288.906103 
L 470.387994 291.575673 
L 470.611306 284.095102 
L 470.834617 288.509841 
L 471.281241 272.145679 
L 471.504552 281.343967 
L 471.727864 255.412708 
L 471.951176 258.533444 
L 472.397799 287.318678 
L 472.621111 281.952878 
L 472.844422 284.252846 
L 473.067734 289.646099 
L 473.291046 297.892534 
L 473.514357 288.667585 
L 473.96098 311.163411 
L 474.184292 309.0753 
L 474.407604 312.511526 
L 474.854227 314.626297 
L 475.077539 323.639388 
L 475.30085 321.524617 
L 475.524162 322.106868 
L 475.970785 310.053813 
L 476.194097 310.450867 
L 476.417409 304.688805 
L 476.64072 290.146999 
L 476.864032 293.609885 
L 477.087344 287.108619 
L 477.310655 293.637337 
L 477.533967 255.707927 
L 477.757279 270.668277 
L 477.98059 268.766155 
L 478.203902 261.497441 
L 478.427214 242.731263 
L 478.873837 252.722867 
L 479.097149 248.123723 
L 479.32046 257.137606 
L 479.543772 247.754121 
L 479.767084 250.054089 
L 479.990395 250.054089 
L 480.213707 253.70138 
L 480.437019 237.234378 
L 480.66033 250.847405 
L 480.883642 228.379032 
L 481.553577 254.468036 
L 481.776888 255.234692 
L 482.0002 243.154977 
L 482.223512 246.036404 
L 482.446823 242.96978 
L 482.670135 242.96978 
L 483.116758 245.084551 
L 483.34007 253.147373 
L 483.786693 245.481605 
L 484.010005 246.248261 
L 484.233317 246.248261 
L 484.456628 235.886263 
L 484.67994 235.119607 
L 485.126563 242.96978 
L 485.349875 261.259137 
L 485.573187 255.127473 
L 485.796498 240.540311 
L 486.01981 215.189719 
L 486.243122 207.182593 
L 486.466433 206.046335 
L 486.913057 240.247895 
L 487.35968 225.628903 
L 487.582991 222.166017 
L 487.806303 215.849156 
L 488.029615 221.029759 
L 488.252926 205.699015 
L 488.476238 219.681644 
L 488.69955 222.377874 
L 488.922861 214.527701 
L 489.146173 195.94672 
L 489.592796 192.11344 
L 489.816108 194.228211 
L 490.03942 191.929035 
L 490.262731 199.040004 
L 490.486043 194.652717 
L 490.932666 201.208888 
L 491.155978 192.0106 
L 491.37929 200.839286 
L 491.602601 178.767175 
L 491.825913 189.34103 
L 492.049225 192.803916 
L 492.272536 179.376086 
L 492.495848 182.073108 
L 492.942471 164.627593 
L 493.165783 166.34531 
L 493.389095 164.045342 
L 493.612406 145.436909 
L 493.835718 150.617512 
L 494.05903 144.670253 
L 494.282341 152.91748 
L 494.505653 143.903597 
L 494.728964 142.18588 
L 494.952276 149.084992 
L 495.175588 146.38797 
L 495.398899 154.847054 
L 495.845523 145.833963 
L 496.068834 151.199763 
L 496.292146 146.599827 
L 496.515458 144.300651 
L 496.962081 148.133139 
L 497.408704 144.115454 
L 497.632016 131.084678 
L 497.855328 131.084678 
L 498.078639 136.450478 
L 498.301951 132.64465 
L 498.525263 124.185566 
L 499.195198 142.213332 
L 499.418509 139.51631 
L 499.865133 124.979674 
L 500.088444 129.209216 
L 500.311756 114.248074 
L 500.535068 179.165234 
L 500.758379 151.465732 
L 500.981691 152.232388 
L 501.205003 159.501102 
L 501.428314 77.106596 
L 501.651626 122.653046 
L 502.098249 108.48522 
L 502.768184 150.911725 
L 502.991496 123.897528 
L 503.438119 219.373336 
L 503.661431 220.34747 
L 503.884742 238.401896 
L 504.108054 206.10325 
L 504.331366 242.603986 
L 504.554677 241.838122 
L 504.777989 273.450671 
L 505.001301 261.001354 
L 505.224612 261.76801 
L 505.671236 227.246582 
L 505.894547 245.273556 
L 506.117859 246.040212 
L 506.341171 241.044014 
L 506.564482 216.122307 
L 507.011106 213.398624 
L 507.234417 196.507908 
L 507.457729 195.741252 
L 507.681041 128.812162 
L 508.127664 127.27885 
L 508.350975 138.434956 
L 508.574287 143.0341 
L 508.797599 129.393621 
L 509.02091 129.393621 
L 509.467534 148.927247 
L 509.690845 148.899795 
L 509.914157 153.314534 
L 510.137469 145.279164 
L 510.584092 98.042449 
L 510.807404 119.586422 
L 511.030715 105.337823 
L 511.477339 114.905713 
L 511.70065 110.888028 
L 511.923962 115.487172 
L 512.147274 110.518426 
L 512.817209 149.296849 
L 513.04052 149.878308 
L 513.263832 156.77742 
L 513.487144 158.30994 
L 513.710455 145.860623 
L 513.933767 147.975394 
L 514.157079 166.449948 
L 514.38039 138.592701 
L 514.603702 144.53996 
L 514.827014 164.335177 
L 515.050325 146.654731 
L 515.496948 151.835334 
L 515.72026 151.835334 
L 516.166883 130.899481 
L 516.390195 124.398215 
L 516.613507 132.248388 
L 516.836818 126.882588 
L 517.283442 135.31422 
L 517.506753 132.61799 
L 517.953377 109.409621 
L 518.176688 114.775421 
L 518.4 95.688369 
L 518.4 95.688369 
" style="fill:none;stroke:#4c72b0;stroke-linecap:round;stroke-width:1.75;"/>
   </g>
   <g id="patch_3">
    <path d="M 72 356.4 
L 518.4 356.4 
" style="fill:none;"/>
   </g>
   <g id="patch_4">
    <path d="M 72 39.6 
L 518.4 39.6 
" style="fill:none;"/>
   </g>
   <g id="patch_5">
    <path d="M 72 356.4 
L 72 39.6 
" style="fill:none;"/>
   </g>
   <g id="patch_6">
    <path d="M 518.4 356.4 
L 518.4 39.6 
" style="fill:none;"/>
   </g>
   <g id="text_15">
    <!-- sn - 5.5282928317129585 * al -->
    <defs>
     <path d="M 9.125 0 
L 9.125 10.6875 
L 18.65625 10.6875 
L 18.65625 0 
z
" id="LiberationSans-2e"/>
     <path d="M 46.390625 14.59375 
Q 46.390625 10.890625 44.9375 7.984375 
Q 43.5 5.078125 40.765625 3.09375 
Q 38.03125 1.125 34.046875 0.0625 
Q 30.078125 -0.984375 24.953125 -0.984375 
Q 20.359375 -0.984375 16.671875 -0.265625 
Q 12.984375 0.4375 10.203125 2 
Q 7.421875 3.5625 5.53125 6.125 
Q 3.65625 8.6875 2.78125 12.40625 
L 10.546875 13.921875 
Q 11.671875 9.671875 15.1875 7.6875 
Q 18.703125 5.71875 24.953125 5.71875 
Q 27.78125 5.71875 30.140625 6.109375 
Q 32.515625 6.5 34.21875 7.453125 
Q 35.9375 8.40625 36.890625 9.984375 
Q 37.84375 11.578125 37.84375 13.921875 
Q 37.84375 16.3125 36.71875 17.84375 
Q 35.59375 19.390625 33.59375 20.40625 
Q 31.59375 21.4375 28.734375 22.1875 
Q 25.875 22.953125 22.46875 23.875 
Q 19.28125 24.703125 16.15625 25.734375 
Q 13.03125 26.765625 10.515625 28.4375 
Q 8.015625 30.125 6.453125 32.609375 
Q 4.890625 35.109375 4.890625 38.875 
Q 4.890625 46.09375 10.03125 49.875 
Q 15.1875 53.65625 25.046875 53.65625 
Q 33.796875 53.65625 38.9375 50.578125 
Q 44.09375 47.515625 45.453125 40.71875 
L 37.546875 39.75 
Q 37.109375 41.796875 35.9375 43.1875 
Q 34.765625 44.578125 33.109375 45.4375 
Q 31.453125 46.296875 29.375 46.65625 
Q 27.296875 47.015625 25.046875 47.015625 
Q 19.09375 47.015625 16.25 45.203125 
Q 13.421875 43.40625 13.421875 39.75 
Q 13.421875 37.59375 14.46875 36.203125 
Q 15.53125 34.8125 17.40625 33.859375 
Q 19.28125 32.90625 21.921875 32.203125 
Q 24.5625 31.5 27.734375 30.71875 
Q 29.828125 30.171875 32.03125 29.5625 
Q 34.234375 28.953125 36.296875 28.09375 
Q 38.375 27.25 40.203125 26.09375 
Q 42.046875 24.953125 43.40625 23.34375 
Q 44.78125 21.734375 45.578125 19.578125 
Q 46.390625 17.4375 46.390625 14.59375 
" id="LiberationSans-73"/>
     <path d="M 6.734375 0 
L 6.734375 72.46875 
L 15.53125 72.46875 
L 15.53125 0 
z
" id="LiberationSans-6c"/>
     <path d="M 40.28125 0 
L 40.28125 33.5 
Q 40.28125 37.359375 39.71875 39.9375 
Q 39.15625 42.53125 37.890625 44.109375 
Q 36.625 45.703125 34.546875 46.359375 
Q 32.46875 47.015625 29.390625 47.015625 
Q 26.265625 47.015625 23.75 45.921875 
Q 21.234375 44.828125 19.453125 42.75 
Q 17.671875 40.671875 16.6875 37.625 
Q 15.71875 34.578125 15.71875 30.609375 
L 15.71875 0 
L 6.9375 0 
L 6.9375 41.546875 
Q 6.9375 43.21875 6.90625 45.046875 
Q 6.890625 46.875 6.828125 48.5 
Q 6.78125 50.140625 6.734375 51.3125 
Q 6.6875 52.484375 6.640625 52.828125 
L 14.9375 52.828125 
Q 14.984375 52.59375 15.03125 51.515625 
Q 15.09375 50.4375 15.15625 49.046875 
Q 15.234375 47.65625 15.28125 46.21875 
Q 15.328125 44.78125 15.328125 43.796875 
L 15.484375 43.796875 
Q 16.75 46.09375 18.265625 47.953125 
Q 19.78125 49.8125 21.78125 51.09375 
Q 23.78125 52.390625 26.359375 53.09375 
Q 28.953125 53.8125 32.375 53.8125 
Q 36.765625 53.8125 39.9375 52.734375 
Q 43.109375 51.65625 45.15625 49.40625 
Q 47.21875 47.171875 48.171875 43.625 
Q 49.125 40.09375 49.125 35.203125 
L 49.125 0 
z
" id="LiberationSans-6e"/>
     <path d="M 20.21875 -0.984375 
Q 12.25 -0.984375 8.25 3.21875 
Q 4.25 7.421875 4.25 14.75 
Q 4.25 19.96875 6.21875 23.3125 
Q 8.203125 26.65625 11.390625 28.5625 
Q 14.59375 30.46875 18.6875 31.203125 
Q 22.796875 31.9375 27.046875 32.03125 
L 38.921875 32.234375 
L 38.921875 35.109375 
Q 38.921875 38.375 38.234375 40.671875 
Q 37.546875 42.96875 36.125 44.375 
Q 34.71875 45.796875 32.59375 46.453125 
Q 30.46875 47.125 27.59375 47.125 
Q 25.046875 47.125 23 46.75 
Q 20.953125 46.390625 19.4375 45.4375 
Q 17.921875 44.484375 16.984375 42.84375 
Q 16.0625 41.21875 15.765625 38.71875 
L 6.59375 39.546875 
Q 7.078125 42.671875 8.4375 45.28125 
Q 9.8125 47.90625 12.328125 49.796875 
Q 14.84375 51.703125 18.625 52.75 
Q 22.40625 53.8125 27.78125 53.8125 
Q 37.75 53.8125 42.765625 49.234375 
Q 47.796875 44.671875 47.796875 36.03125 
L 47.796875 13.28125 
Q 47.796875 9.375 48.828125 7.390625 
Q 49.859375 5.421875 52.734375 5.421875 
Q 53.46875 5.421875 54.203125 5.515625 
Q 54.9375 5.609375 55.609375 5.765625 
L 55.609375 0.296875 
Q 53.953125 -0.09375 52.3125 -0.28125 
Q 50.6875 -0.484375 48.828125 -0.484375 
Q 46.34375 -0.484375 44.5625 0.171875 
Q 42.78125 0.828125 41.65625 2.171875 
Q 40.53125 3.515625 39.9375 5.484375 
Q 39.359375 7.46875 39.203125 10.109375 
L 38.921875 10.109375 
Q 37.5 7.5625 35.8125 5.515625 
Q 34.125 3.46875 31.875 2.03125 
Q 29.640625 0.59375 26.78125 -0.1875 
Q 23.921875 -0.984375 20.21875 -0.984375 
M 22.21875 5.609375 
Q 26.421875 5.609375 29.5625 7.140625 
Q 32.71875 8.6875 34.78125 11.078125 
Q 36.859375 13.484375 37.890625 16.3125 
Q 38.921875 19.140625 38.921875 21.734375 
L 38.921875 26.078125 
L 29.296875 25.875 
Q 26.078125 25.828125 23.171875 25.40625 
Q 20.265625 25 18.0625 23.78125 
Q 15.875 22.5625 14.578125 20.359375 
Q 13.28125 18.171875 13.28125 14.59375 
Q 13.28125 10.296875 15.59375 7.953125 
Q 17.921875 5.609375 22.21875 5.609375 
" id="LiberationSans-61"/>
     <path d="M 22.265625 54.390625 
L 35.15625 59.421875 
L 37.359375 52.984375 
L 23.578125 49.421875 
L 32.625 37.203125 
L 26.8125 33.6875 
L 19.484375 46.296875 
L 11.859375 33.796875 
L 6.0625 37.3125 
L 15.28125 49.421875 
L 1.609375 52.984375 
L 3.8125 59.515625 
L 16.84375 54.296875 
L 16.265625 68.796875 
L 22.90625 68.796875 
z
" id="LiberationSans-2a"/>
    </defs>
    <g style="fill:#262626;" transform="translate(214.8046875 34.6)scale(0.12 -0.12)">
     <use xlink:href="#LiberationSans-73"/>
     <use x="50.0" xlink:href="#LiberationSans-6e"/>
     <use x="105.615234375" xlink:href="#LiberationSans-20"/>
     <use x="133.3984375" xlink:href="#LiberationSans-2d"/>
     <use x="166.69921875" xlink:href="#LiberationSans-20"/>
     <use x="194.482421875" xlink:href="#LiberationSans-35"/>
     <use x="250.09765625" xlink:href="#LiberationSans-2e"/>
     <use x="277.880859375" xlink:href="#LiberationSans-35"/>
     <use x="333.49609375" xlink:href="#LiberationSans-32"/>
     <use x="389.111328125" xlink:href="#LiberationSans-38"/>
     <use x="444.7265625" xlink:href="#LiberationSans-32"/>
     <use x="500.341796875" xlink:href="#LiberationSans-39"/>
     <use x="555.95703125" xlink:href="#LiberationSans-32"/>
     <use x="611.572265625" xlink:href="#LiberationSans-38"/>
     <use x="667.1875" xlink:href="#LiberationSans-33"/>
     <use x="722.802734375" xlink:href="#LiberationSans-31"/>
     <use x="778.41796875" xlink:href="#LiberationSans-37"/>
     <use x="834.033203125" xlink:href="#LiberationSans-31"/>
     <use x="889.6484375" xlink:href="#LiberationSans-32"/>
     <use x="945.263671875" xlink:href="#LiberationSans-39"/>
     <use x="1000.87890625" xlink:href="#LiberationSans-35"/>
     <use x="1056.494140625" xlink:href="#LiberationSans-38"/>
     <use x="1112.109375" xlink:href="#LiberationSans-35"/>
     <use x="1167.724609375" xlink:href="#LiberationSans-20"/>
     <use x="1195.5078125" xlink:href="#LiberationSans-2a"/>
     <use x="1234.423828125" xlink:href="#LiberationSans-20"/>
     <use x="1262.20703125" xlink:href="#LiberationSans-61"/>
     <use x="1317.822265625" xlink:href="#LiberationSans-6c"/>
    </g>
   </g>
  </g>
 </g>
 <defs>
  <clipPath id="p33f469c52d">
   <rect height="316.8" width="446.4" x="72.0" y="39.6"/>
  </clipPath>
 </defs>
</svg>
