<?xml version="1.0" encoding="utf-8" standalone="no"?>
<!DOCTYPE svg PUBLIC "-//W3C//DTD SVG 1.1//EN"
  "http://www.w3.org/Graphics/SVG/1.1/DTD/svg11.dtd">
<!-- Created with matplotlib (http://matplotlib.org/) -->
<svg height="396pt" version="1.1" viewBox="0 0 576 396" width="576pt" xmlns="http://www.w3.org/2000/svg" xmlns:xlink="http://www.w3.org/1999/xlink">
 <defs>
  <style type="text/css">
*{stroke-linecap:butt;stroke-linejoin:round;stroke-miterlimit:100000;}
  </style>
 </defs>
 <g id="figure_1">
  <g id="patch_1">
   <path d="M 0 396 
L 576 396 
L 576 0 
L 0 0 
z
" style="fill:#ffffff;"/>
  </g>
  <g id="axes_1">
   <g id="patch_2">
    <path d="M 72 356.4 
L 518.4 356.4 
L 518.4 39.6 
L 72 39.6 
z
" style="fill:#eaeaf2;"/>
   </g>
   <g id="matplotlib.axis_1">
    <g id="xtick_1">
     <g id="line2d_1">
      <path clip-path="url(#p378013e00b)" d="M 72 356.4 
L 72 39.6 
" style="fill:none;stroke:#ffffff;stroke-linecap:round;"/>
     </g>
     <g id="line2d_2"/>
     <g id="line2d_3"/>
     <g id="text_1">
      <!-- 2016-09-27 09:31:00 -->
      <defs>
       <path d="M 5.03125 0 
L 5.03125 6.203125 
Q 7.515625 11.921875 11.109375 16.28125 
Q 14.703125 20.65625 18.65625 24.1875 
Q 22.609375 27.734375 26.484375 30.765625 
Q 30.375 33.796875 33.5 36.8125 
Q 36.625 39.84375 38.546875 43.15625 
Q 40.484375 46.484375 40.484375 50.6875 
Q 40.484375 53.609375 39.59375 55.828125 
Q 38.71875 58.0625 37.0625 59.5625 
Q 35.40625 61.078125 33.078125 61.828125 
Q 30.765625 62.59375 27.9375 62.59375 
Q 25.296875 62.59375 22.96875 61.859375 
Q 20.65625 61.140625 18.84375 59.671875 
Q 17.046875 58.203125 15.890625 56.03125 
Q 14.75 53.859375 14.40625 50.984375 
L 5.421875 51.8125 
Q 5.859375 55.515625 7.46875 58.78125 
Q 9.078125 62.0625 11.90625 64.53125 
Q 14.75 67 18.71875 68.40625 
Q 22.703125 69.828125 27.9375 69.828125 
Q 33.0625 69.828125 37.0625 68.609375 
Q 41.0625 67.390625 43.8125 64.984375 
Q 46.578125 62.59375 48.046875 59.078125 
Q 49.515625 55.5625 49.515625 50.984375 
Q 49.515625 47.515625 48.265625 44.390625 
Q 47.015625 41.265625 44.9375 38.421875 
Q 42.875 35.59375 40.140625 32.953125 
Q 37.40625 30.328125 34.421875 27.8125 
Q 31.453125 25.296875 28.421875 22.828125 
Q 25.390625 20.359375 22.71875 17.859375 
Q 20.0625 15.375 17.96875 12.8125 
Q 15.875 10.25 14.703125 7.46875 
L 50.59375 7.46875 
L 50.59375 0 
z
" id="LiberationSans-32"/>
       <path d="M 7.625 0 
L 7.625 7.46875 
L 25.140625 7.46875 
L 25.140625 60.40625 
L 9.625 49.3125 
L 9.625 57.625 
L 25.875 68.796875 
L 33.984375 68.796875 
L 33.984375 7.46875 
L 50.734375 7.46875 
L 50.734375 0 
z
" id="LiberationSans-31"/>
       <path d="M 51.703125 34.421875 
Q 51.703125 24.515625 49.828125 17.75 
Q 47.953125 10.984375 44.703125 6.8125 
Q 41.453125 2.640625 37.0625 0.828125 
Q 32.671875 -0.984375 27.6875 -0.984375 
Q 22.65625 -0.984375 18.3125 0.828125 
Q 13.96875 2.640625 10.765625 6.78125 
Q 7.5625 10.9375 5.734375 17.703125 
Q 3.90625 24.46875 3.90625 34.421875 
Q 3.90625 44.828125 5.734375 51.640625 
Q 7.5625 58.453125 10.78125 62.5 
Q 14.015625 66.546875 18.40625 68.1875 
Q 22.796875 69.828125 27.984375 69.828125 
Q 32.90625 69.828125 37.21875 68.1875 
Q 41.546875 66.546875 44.765625 62.5 
Q 48 58.453125 49.84375 51.640625 
Q 51.703125 44.828125 51.703125 34.421875 
M 42.78125 34.421875 
Q 42.78125 42.625 41.796875 48.0625 
Q 40.828125 53.515625 38.921875 56.765625 
Q 37.015625 60.015625 34.25 61.359375 
Q 31.5 62.703125 27.984375 62.703125 
Q 24.265625 62.703125 21.4375 61.328125 
Q 18.609375 59.96875 16.671875 56.71875 
Q 14.75 53.46875 13.765625 48.015625 
Q 12.796875 42.578125 12.796875 34.421875 
Q 12.796875 26.515625 13.796875 21.09375 
Q 14.796875 15.671875 16.71875 12.375 
Q 18.65625 9.078125 21.4375 7.640625 
Q 24.21875 6.203125 27.78125 6.203125 
Q 31.25 6.203125 34.03125 7.640625 
Q 36.8125 9.078125 38.734375 12.375 
Q 40.671875 15.671875 41.71875 21.09375 
Q 42.78125 26.515625 42.78125 34.421875 
" id="LiberationSans-30"/>
       <path d="M 50.875 35.796875 
Q 50.875 26.609375 49.140625 19.703125 
Q 47.40625 12.796875 44.1875 8.203125 
Q 40.96875 3.609375 36.34375 1.3125 
Q 31.734375 -0.984375 25.984375 -0.984375 
Q 22.015625 -0.984375 18.84375 -0.171875 
Q 15.671875 0.640625 13.171875 2.34375 
Q 10.6875 4.046875 8.921875 6.78125 
Q 7.171875 9.515625 6.109375 13.375 
L 14.5 14.703125 
Q 15.875 10.25 18.78125 8.171875 
Q 21.6875 6.109375 26.125 6.109375 
Q 29.6875 6.109375 32.640625 7.78125 
Q 35.59375 9.46875 37.671875 12.84375 
Q 39.75 16.21875 40.921875 21.296875 
Q 42.09375 26.375 42.1875 33.203125 
Q 41.15625 30.90625 39.375 29.09375 
Q 37.59375 27.296875 35.328125 26.046875 
Q 33.0625 24.8125 30.421875 24.140625 
Q 27.78125 23.484375 25.09375 23.484375 
Q 20.40625 23.484375 16.625 25.171875 
Q 12.84375 26.859375 10.203125 29.875 
Q 7.5625 32.90625 6.125 37.171875 
Q 4.6875 41.453125 4.6875 46.6875 
Q 4.6875 52 6.21875 56.296875 
Q 7.765625 60.59375 10.6875 63.59375 
Q 13.625 66.609375 17.890625 68.21875 
Q 22.171875 69.828125 27.59375 69.828125 
Q 39.0625 69.828125 44.96875 61.328125 
Q 50.875 52.828125 50.875 35.796875 
M 41.3125 44.28125 
Q 41.3125 48.09375 40.40625 51.453125 
Q 39.5 54.828125 37.71875 57.3125 
Q 35.9375 59.8125 33.328125 61.25 
Q 30.71875 62.703125 27.296875 62.703125 
Q 24.125 62.703125 21.578125 61.578125 
Q 19.046875 60.453125 17.28125 58.375 
Q 15.53125 56.296875 14.578125 53.3125 
Q 13.625 50.34375 13.625 46.6875 
Q 13.625 43.21875 14.46875 40.234375 
Q 15.328125 37.25 17.03125 35.078125 
Q 18.75 32.90625 21.28125 31.65625 
Q 23.828125 30.421875 27.203125 30.421875 
Q 29.640625 30.421875 32.15625 31.25 
Q 34.671875 32.078125 36.6875 33.78125 
Q 38.71875 35.5 40.015625 38.109375 
Q 41.3125 40.71875 41.3125 44.28125 
" id="LiberationSans-39"/>
       <path d="M 9.125 42.71875 
L 9.125 52.828125 
L 18.65625 52.828125 
L 18.65625 42.71875 
z
M 9.125 0 
L 9.125 10.109375 
L 18.65625 10.109375 
L 18.65625 0 
z
" id="LiberationSans-3a"/>
       <path d="M 51.21875 19 
Q 51.21875 14.265625 49.671875 10.546875 
Q 48.140625 6.84375 45.1875 4.265625 
Q 42.234375 1.703125 37.859375 0.359375 
Q 33.5 -0.984375 27.875 -0.984375 
Q 21.484375 -0.984375 17.109375 0.609375 
Q 12.75 2.203125 9.90625 4.8125 
Q 7.078125 7.421875 5.65625 10.765625 
Q 4.25 14.109375 3.8125 17.671875 
L 12.890625 18.5 
Q 13.28125 15.765625 14.328125 13.515625 
Q 15.375 11.28125 17.1875 9.671875 
Q 19 8.0625 21.625 7.171875 
Q 24.265625 6.296875 27.875 6.296875 
Q 34.515625 6.296875 38.296875 9.5625 
Q 42.09375 12.84375 42.09375 19.28125 
Q 42.09375 23.09375 40.40625 25.40625 
Q 38.71875 27.734375 36.203125 29.03125 
Q 33.6875 30.328125 30.734375 30.765625 
Q 27.78125 31.203125 25.296875 31.203125 
L 20.3125 31.203125 
L 20.3125 38.8125 
L 25.09375 38.8125 
Q 27.59375 38.8125 30.265625 39.328125 
Q 32.953125 39.84375 35.171875 41.1875 
Q 37.40625 42.53125 38.84375 44.828125 
Q 40.28125 47.125 40.28125 50.6875 
Q 40.28125 56.203125 37.03125 59.390625 
Q 33.796875 62.59375 27.390625 62.59375 
Q 21.578125 62.59375 17.984375 59.609375 
Q 14.40625 56.640625 13.8125 51.21875 
L 4.984375 51.90625 
Q 5.515625 56.453125 7.46875 59.8125 
Q 9.421875 63.1875 12.421875 65.40625 
Q 15.4375 67.625 19.28125 68.71875 
Q 23.140625 69.828125 27.484375 69.828125 
Q 33.25 69.828125 37.390625 68.375 
Q 41.546875 66.9375 44.1875 64.46875 
Q 46.828125 62.015625 48.0625 58.6875 
Q 49.3125 55.375 49.3125 51.609375 
Q 49.3125 48.578125 48.484375 45.9375 
Q 47.65625 43.3125 45.890625 41.203125 
Q 44.140625 39.109375 41.421875 37.59375 
Q 38.71875 36.078125 34.90625 35.296875 
L 34.90625 35.109375 
Q 39.0625 34.671875 42.140625 33.21875 
Q 45.21875 31.78125 47.21875 29.625 
Q 49.21875 27.484375 50.21875 24.75 
Q 51.21875 22.015625 51.21875 19 
" id="LiberationSans-33"/>
       <path d="M 50.59375 61.671875 
Q 45.40625 53.765625 41.0625 46.453125 
Q 36.71875 39.15625 33.59375 31.75 
Q 30.46875 24.359375 28.734375 16.578125 
Q 27 8.796875 27 0 
L 17.828125 0 
Q 17.828125 8.25 19.78125 16.1875 
Q 21.734375 24.125 25.046875 31.765625 
Q 28.375 39.40625 32.765625 46.78125 
Q 37.15625 54.15625 42.09375 61.328125 
L 5.125 61.328125 
L 5.125 68.796875 
L 50.59375 68.796875 
z
" id="LiberationSans-37"/>
       <path id="LiberationSans-20"/>
       <path d="M 4.4375 22.65625 
L 4.4375 30.46875 
L 28.859375 30.46875 
L 28.859375 22.65625 
z
" id="LiberationSans-2d"/>
       <path d="M 51.21875 22.515625 
Q 51.21875 17.328125 49.78125 13 
Q 48.34375 8.6875 45.53125 5.578125 
Q 42.71875 2.484375 38.5625 0.75 
Q 34.421875 -0.984375 29 -0.984375 
Q 23 -0.984375 18.5 1.3125 
Q 14.015625 3.609375 11.03125 7.921875 
Q 8.0625 12.25 6.5625 18.53125 
Q 5.078125 24.8125 5.078125 32.8125 
Q 5.078125 42 6.765625 48.921875 
Q 8.453125 55.859375 11.625 60.5 
Q 14.796875 65.140625 19.359375 67.484375 
Q 23.921875 69.828125 29.6875 69.828125 
Q 33.203125 69.828125 36.28125 69.09375 
Q 39.359375 68.359375 41.875 66.71875 
Q 44.390625 65.09375 46.28125 62.40625 
Q 48.1875 59.71875 49.3125 55.8125 
L 40.921875 54.296875 
Q 39.546875 58.734375 36.546875 60.71875 
Q 33.546875 62.703125 29.59375 62.703125 
Q 25.984375 62.703125 23.046875 60.984375 
Q 20.125 59.28125 18.0625 55.875 
Q 16.015625 52.484375 14.90625 47.359375 
Q 13.8125 42.234375 13.8125 35.40625 
Q 16.21875 39.84375 20.5625 42.15625 
Q 24.90625 44.484375 30.515625 44.484375 
Q 35.203125 44.484375 39.015625 42.96875 
Q 42.828125 41.453125 45.53125 38.59375 
Q 48.25 35.75 49.734375 31.671875 
Q 51.21875 27.59375 51.21875 22.515625 
M 42.28125 22.125 
Q 42.28125 25.6875 41.40625 28.5625 
Q 40.53125 31.453125 38.765625 33.46875 
Q 37.015625 35.5 34.421875 36.59375 
Q 31.84375 37.703125 28.421875 37.703125 
Q 26.03125 37.703125 23.578125 36.984375 
Q 21.140625 36.28125 19.15625 34.6875 
Q 17.1875 33.109375 15.9375 30.515625 
Q 14.703125 27.9375 14.703125 24.21875 
Q 14.703125 20.40625 15.671875 17.109375 
Q 16.65625 13.8125 18.484375 11.375 
Q 20.3125 8.9375 22.890625 7.515625 
Q 25.484375 6.109375 28.71875 6.109375 
Q 31.890625 6.109375 34.40625 7.203125 
Q 36.921875 8.296875 38.671875 10.375 
Q 40.4375 12.453125 41.359375 15.421875 
Q 42.28125 18.40625 42.28125 22.125 
" id="LiberationSans-36"/>
      </defs>
      <g style="fill:#262626;" transform="translate(25.5765625 370.646875)scale(0.1 -0.1)">
       <use xlink:href="#LiberationSans-32"/>
       <use x="55.615234375" xlink:href="#LiberationSans-30"/>
       <use x="111.23046875" xlink:href="#LiberationSans-31"/>
       <use x="166.845703125" xlink:href="#LiberationSans-36"/>
       <use x="222.4609375" xlink:href="#LiberationSans-2d"/>
       <use x="255.76171875" xlink:href="#LiberationSans-30"/>
       <use x="311.376953125" xlink:href="#LiberationSans-39"/>
       <use x="366.9921875" xlink:href="#LiberationSans-2d"/>
       <use x="400.29296875" xlink:href="#LiberationSans-32"/>
       <use x="455.908203125" xlink:href="#LiberationSans-37"/>
       <use x="511.5234375" xlink:href="#LiberationSans-20"/>
       <use x="539.306640625" xlink:href="#LiberationSans-30"/>
       <use x="594.921875" xlink:href="#LiberationSans-39"/>
       <use x="650.537109375" xlink:href="#LiberationSans-3a"/>
       <use x="678.3203125" xlink:href="#LiberationSans-33"/>
       <use x="733.935546875" xlink:href="#LiberationSans-31"/>
       <use x="789.55078125" xlink:href="#LiberationSans-3a"/>
       <use x="817.333984375" xlink:href="#LiberationSans-30"/>
       <use x="872.94921875" xlink:href="#LiberationSans-30"/>
      </g>
     </g>
    </g>
    <g id="xtick_2">
     <g id="line2d_4">
      <path clip-path="url(#p378013e00b)" d="M 183.655828 356.4 
L 183.655828 39.6 
" style="fill:none;stroke:#ffffff;stroke-linecap:round;"/>
     </g>
     <g id="line2d_5"/>
     <g id="line2d_6"/>
     <g id="text_2">
      <!-- 2016-09-29 10:35:00 -->
      <defs>
       <path d="M 51.421875 22.40625 
Q 51.421875 17.234375 49.859375 12.9375 
Q 48.296875 8.640625 45.21875 5.53125 
Q 42.140625 2.4375 37.578125 0.71875 
Q 33.015625 -0.984375 27 -0.984375 
Q 21.578125 -0.984375 17.546875 0.28125 
Q 13.53125 1.5625 10.734375 3.78125 
Q 7.953125 6 6.3125 8.984375 
Q 4.6875 11.96875 4 15.375 
L 12.890625 16.40625 
Q 13.421875 14.453125 14.390625 12.625 
Q 15.375 10.796875 17.0625 9.34375 
Q 18.75 7.90625 21.21875 7.046875 
Q 23.6875 6.203125 27.203125 6.203125 
Q 30.609375 6.203125 33.390625 7.25 
Q 36.1875 8.296875 38.15625 10.34375 
Q 40.140625 12.40625 41.203125 15.375 
Q 42.28125 18.359375 42.28125 22.21875 
Q 42.28125 25.390625 41.25 28.046875 
Q 40.234375 30.71875 38.328125 32.640625 
Q 36.421875 34.578125 33.65625 35.640625 
Q 30.90625 36.71875 27.390625 36.71875 
Q 25.203125 36.71875 23.34375 36.328125 
Q 21.484375 35.9375 19.890625 35.25 
Q 18.3125 34.578125 17.015625 33.671875 
Q 15.71875 32.765625 14.59375 31.78125 
L 6 31.78125 
L 8.296875 68.796875 
L 47.40625 68.796875 
L 47.40625 61.328125 
L 16.3125 61.328125 
L 14.984375 39.5 
Q 17.328125 41.3125 20.84375 42.59375 
Q 24.359375 43.890625 29.203125 43.890625 
Q 34.328125 43.890625 38.421875 42.328125 
Q 42.53125 40.765625 45.40625 37.90625 
Q 48.296875 35.0625 49.859375 31.109375 
Q 51.421875 27.15625 51.421875 22.40625 
" id="LiberationSans-35"/>
      </defs>
      <g style="fill:#262626;" transform="translate(137.232390414 370.646875)scale(0.1 -0.1)">
       <use xlink:href="#LiberationSans-32"/>
       <use x="55.615234375" xlink:href="#LiberationSans-30"/>
       <use x="111.23046875" xlink:href="#LiberationSans-31"/>
       <use x="166.845703125" xlink:href="#LiberationSans-36"/>
       <use x="222.4609375" xlink:href="#LiberationSans-2d"/>
       <use x="255.76171875" xlink:href="#LiberationSans-30"/>
       <use x="311.376953125" xlink:href="#LiberationSans-39"/>
       <use x="366.9921875" xlink:href="#LiberationSans-2d"/>
       <use x="400.29296875" xlink:href="#LiberationSans-32"/>
       <use x="455.908203125" xlink:href="#LiberationSans-39"/>
       <use x="511.5234375" xlink:href="#LiberationSans-20"/>
       <use x="539.306640625" xlink:href="#LiberationSans-31"/>
       <use x="594.921875" xlink:href="#LiberationSans-30"/>
       <use x="650.537109375" xlink:href="#LiberationSans-3a"/>
       <use x="678.3203125" xlink:href="#LiberationSans-33"/>
       <use x="733.935546875" xlink:href="#LiberationSans-35"/>
       <use x="789.55078125" xlink:href="#LiberationSans-3a"/>
       <use x="817.333984375" xlink:href="#LiberationSans-30"/>
       <use x="872.94921875" xlink:href="#LiberationSans-30"/>
      </g>
     </g>
    </g>
    <g id="xtick_3">
     <g id="line2d_7">
      <path clip-path="url(#p378013e00b)" d="M 295.311656 356.4 
L 295.311656 39.6 
" style="fill:none;stroke:#ffffff;stroke-linecap:round;"/>
     </g>
     <g id="line2d_8"/>
     <g id="line2d_9"/>
     <g id="text_3">
      <!-- 2016-10-10 11:22:00 -->
      <g style="fill:#262626;" transform="translate(248.888218328 370.646875)scale(0.1 -0.1)">
       <use xlink:href="#LiberationSans-32"/>
       <use x="55.615234375" xlink:href="#LiberationSans-30"/>
       <use x="111.23046875" xlink:href="#LiberationSans-31"/>
       <use x="166.845703125" xlink:href="#LiberationSans-36"/>
       <use x="222.4609375" xlink:href="#LiberationSans-2d"/>
       <use x="255.76171875" xlink:href="#LiberationSans-31"/>
       <use x="311.376953125" xlink:href="#LiberationSans-30"/>
       <use x="366.9921875" xlink:href="#LiberationSans-2d"/>
       <use x="400.29296875" xlink:href="#LiberationSans-31"/>
       <use x="455.908203125" xlink:href="#LiberationSans-30"/>
       <use x="511.5234375" xlink:href="#LiberationSans-20"/>
       <use x="539.306640625" xlink:href="#LiberationSans-31"/>
       <use x="594.921875" xlink:href="#LiberationSans-31"/>
       <use x="650.537109375" xlink:href="#LiberationSans-3a"/>
       <use x="678.3203125" xlink:href="#LiberationSans-32"/>
       <use x="733.935546875" xlink:href="#LiberationSans-32"/>
       <use x="789.55078125" xlink:href="#LiberationSans-3a"/>
       <use x="817.333984375" xlink:href="#LiberationSans-30"/>
       <use x="872.94921875" xlink:href="#LiberationSans-30"/>
      </g>
     </g>
    </g>
    <g id="xtick_4">
     <g id="line2d_10">
      <path clip-path="url(#p378013e00b)" d="M 406.967484 356.4 
L 406.967484 39.6 
" style="fill:none;stroke:#ffffff;stroke-linecap:round;"/>
     </g>
     <g id="line2d_11"/>
     <g id="line2d_12"/>
     <g id="text_4">
      <!-- 2016-10-12 14:11:00 -->
      <defs>
       <path d="M 43.015625 15.578125 
L 43.015625 0 
L 34.71875 0 
L 34.71875 15.578125 
L 2.296875 15.578125 
L 2.296875 22.40625 
L 33.796875 68.796875 
L 43.015625 68.796875 
L 43.015625 22.515625 
L 52.6875 22.515625 
L 52.6875 15.578125 
z
M 34.71875 58.890625 
Q 34.625 58.640625 34.234375 57.9375 
Q 33.84375 57.234375 33.34375 56.34375 
Q 32.859375 55.46875 32.34375 54.5625 
Q 31.84375 53.65625 31.453125 53.078125 
L 13.8125 27.09375 
Q 13.578125 26.703125 13.109375 26.0625 
Q 12.640625 25.4375 12.15625 24.78125 
Q 11.671875 24.125 11.171875 23.484375 
Q 10.6875 22.859375 10.40625 22.515625 
L 34.71875 22.515625 
z
" id="LiberationSans-34"/>
      </defs>
      <g style="fill:#262626;" transform="translate(360.544046242 370.646875)scale(0.1 -0.1)">
       <use xlink:href="#LiberationSans-32"/>
       <use x="55.615234375" xlink:href="#LiberationSans-30"/>
       <use x="111.23046875" xlink:href="#LiberationSans-31"/>
       <use x="166.845703125" xlink:href="#LiberationSans-36"/>
       <use x="222.4609375" xlink:href="#LiberationSans-2d"/>
       <use x="255.76171875" xlink:href="#LiberationSans-31"/>
       <use x="311.376953125" xlink:href="#LiberationSans-30"/>
       <use x="366.9921875" xlink:href="#LiberationSans-2d"/>
       <use x="400.29296875" xlink:href="#LiberationSans-31"/>
       <use x="455.908203125" xlink:href="#LiberationSans-32"/>
       <use x="511.5234375" xlink:href="#LiberationSans-20"/>
       <use x="539.306640625" xlink:href="#LiberationSans-31"/>
       <use x="594.921875" xlink:href="#LiberationSans-34"/>
       <use x="650.537109375" xlink:href="#LiberationSans-3a"/>
       <use x="678.3203125" xlink:href="#LiberationSans-31"/>
       <use x="733.935546875" xlink:href="#LiberationSans-31"/>
       <use x="789.55078125" xlink:href="#LiberationSans-3a"/>
       <use x="817.333984375" xlink:href="#LiberationSans-30"/>
       <use x="872.94921875" xlink:href="#LiberationSans-30"/>
      </g>
     </g>
    </g>
    <g id="text_5">
     <!-- time -->
     <defs>
      <path d="M 13.484375 24.5625 
Q 13.484375 20.40625 14.328125 16.90625 
Q 15.1875 13.421875 16.96875 10.90625 
Q 18.75 8.40625 21.53125 7 
Q 24.3125 5.609375 28.21875 5.609375 
Q 33.9375 5.609375 37.375 7.90625 
Q 40.828125 10.203125 42.046875 13.71875 
L 49.75 11.53125 
Q 48.921875 9.328125 47.4375 7.109375 
Q 45.953125 4.890625 43.453125 3.09375 
Q 40.96875 1.3125 37.234375 0.15625 
Q 33.5 -0.984375 28.21875 -0.984375 
Q 16.5 -0.984375 10.375 6 
Q 4.25 12.984375 4.25 26.765625 
Q 4.25 34.1875 6.09375 39.328125 
Q 7.953125 44.484375 11.171875 47.703125 
Q 14.40625 50.921875 18.703125 52.359375 
Q 23 53.8125 27.875 53.8125 
Q 34.515625 53.8125 38.984375 51.65625 
Q 43.453125 49.515625 46.15625 45.71875 
Q 48.875 41.9375 50.015625 36.8125 
Q 51.171875 31.6875 51.171875 25.734375 
L 51.171875 24.5625 
z
M 42.09375 31.296875 
Q 41.359375 39.65625 37.84375 43.484375 
Q 34.328125 47.3125 27.734375 47.3125 
Q 25.53125 47.3125 23.109375 46.609375 
Q 20.703125 45.90625 18.65625 44.09375 
Q 16.609375 42.28125 15.1875 39.171875 
Q 13.765625 36.078125 13.578125 31.296875 
z
" id="LiberationSans-65"/>
      <path d="M 6.6875 64.0625 
L 6.6875 72.46875 
L 15.484375 72.46875 
L 15.484375 64.0625 
z
M 6.6875 0 
L 6.6875 52.828125 
L 15.484375 52.828125 
L 15.484375 0 
z
" id="LiberationSans-69"/>
      <path d="M 27.046875 0.390625 
Q 25.046875 -0.140625 22.96875 -0.453125 
Q 20.90625 -0.78125 18.171875 -0.78125 
Q 7.625 -0.78125 7.625 11.1875 
L 7.625 46.4375 
L 1.515625 46.4375 
L 1.515625 52.828125 
L 7.953125 52.828125 
L 10.546875 64.65625 
L 16.40625 64.65625 
L 16.40625 52.828125 
L 26.171875 52.828125 
L 26.171875 46.4375 
L 16.40625 46.4375 
L 16.40625 13.09375 
Q 16.40625 9.28125 17.640625 7.734375 
Q 18.890625 6.203125 21.96875 6.203125 
Q 23.25 6.203125 24.4375 6.390625 
Q 25.640625 6.59375 27.046875 6.890625 
z
" id="LiberationSans-74"/>
      <path d="M 37.5 0 
L 37.5 33.5 
Q 37.5 37.359375 37.015625 39.9375 
Q 36.53125 42.53125 35.375 44.109375 
Q 34.234375 45.703125 32.375 46.359375 
Q 30.515625 47.015625 27.828125 47.015625 
Q 25.046875 47.015625 22.796875 45.921875 
Q 20.5625 44.828125 18.96875 42.75 
Q 17.390625 40.671875 16.53125 37.625 
Q 15.671875 34.578125 15.671875 30.609375 
L 15.671875 0 
L 6.9375 0 
L 6.9375 41.546875 
Q 6.9375 43.21875 6.90625 45.046875 
Q 6.890625 46.875 6.828125 48.5 
Q 6.78125 50.140625 6.734375 51.3125 
Q 6.6875 52.484375 6.640625 52.828125 
L 14.9375 52.828125 
Q 14.984375 52.59375 15.03125 51.515625 
Q 15.09375 50.4375 15.15625 49.046875 
Q 15.234375 47.65625 15.28125 46.21875 
Q 15.328125 44.78125 15.328125 43.796875 
L 15.484375 43.796875 
Q 16.65625 46.09375 18.015625 47.953125 
Q 19.390625 49.8125 21.21875 51.09375 
Q 23.046875 52.390625 25.40625 53.09375 
Q 27.78125 53.8125 30.90625 53.8125 
Q 36.921875 53.8125 40.40625 51.421875 
Q 43.890625 49.03125 45.265625 43.796875 
L 45.40625 43.796875 
Q 46.578125 46.09375 48.046875 47.953125 
Q 49.515625 49.8125 51.46875 51.09375 
Q 53.421875 52.390625 55.859375 53.09375 
Q 58.296875 53.8125 61.421875 53.8125 
Q 65.4375 53.8125 68.328125 52.734375 
Q 71.234375 51.65625 73.09375 49.40625 
Q 74.953125 47.171875 75.828125 43.625 
Q 76.703125 40.09375 76.703125 35.203125 
L 76.703125 0 
L 68.015625 0 
L 68.015625 33.5 
Q 68.015625 37.359375 67.53125 39.9375 
Q 67.046875 42.53125 65.890625 44.109375 
Q 64.75 45.703125 62.890625 46.359375 
Q 61.03125 47.015625 58.34375 47.015625 
Q 55.5625 47.015625 53.3125 45.96875 
Q 51.078125 44.921875 49.484375 42.875 
Q 47.90625 40.828125 47.046875 37.75 
Q 46.1875 34.671875 46.1875 30.609375 
L 46.1875 0 
z
" id="LiberationSans-6d"/>
     </defs>
     <g style="fill:#262626;" transform="translate(284.81015625 385.6934375)scale(0.11 -0.11)">
      <use xlink:href="#LiberationSans-74"/>
      <use x="27.783203125" xlink:href="#LiberationSans-69"/>
      <use x="50.0" xlink:href="#LiberationSans-6d"/>
      <use x="133.30078125" xlink:href="#LiberationSans-65"/>
     </g>
    </g>
   </g>
   <g id="matplotlib.axis_2">
    <g id="ytick_1">
     <g id="line2d_13">
      <path clip-path="url(#p378013e00b)" d="M 72 356.4 
L 518.4 356.4 
" style="fill:none;stroke:#ffffff;stroke-linecap:round;"/>
     </g>
     <g id="line2d_14"/>
     <g id="line2d_15"/>
     <g id="text_6">
      <!-- 13700 -->
      <g style="fill:#262626;" transform="translate(37.1953125 358.9859375)scale(0.1 -0.1)">
       <use xlink:href="#LiberationSans-31"/>
       <use x="55.615234375" xlink:href="#LiberationSans-33"/>
       <use x="111.23046875" xlink:href="#LiberationSans-37"/>
       <use x="166.845703125" xlink:href="#LiberationSans-30"/>
       <use x="222.4609375" xlink:href="#LiberationSans-30"/>
      </g>
     </g>
    </g>
    <g id="ytick_2">
     <g id="line2d_16">
      <path clip-path="url(#p378013e00b)" d="M 72 303.6 
L 518.4 303.6 
" style="fill:none;stroke:#ffffff;stroke-linecap:round;"/>
     </g>
     <g id="line2d_17"/>
     <g id="line2d_18"/>
     <g id="text_7">
      <!-- 13800 -->
      <defs>
       <path d="M 51.265625 19.1875 
Q 51.265625 14.796875 49.875 11.109375 
Q 48.484375 7.421875 45.625 4.734375 
Q 42.78125 2.046875 38.328125 0.53125 
Q 33.890625 -0.984375 27.828125 -0.984375 
Q 21.78125 -0.984375 17.359375 0.53125 
Q 12.9375 2.046875 10.03125 4.703125 
Q 7.125 7.375 5.734375 11.0625 
Q 4.34375 14.75 4.34375 19.09375 
Q 4.34375 22.859375 5.484375 25.78125 
Q 6.640625 28.71875 8.5625 30.828125 
Q 10.5 32.953125 12.96875 34.25 
Q 15.4375 35.546875 18.0625 35.984375 
L 18.0625 36.1875 
Q 15.1875 36.859375 12.90625 38.375 
Q 10.640625 39.890625 9.09375 42.015625 
Q 7.5625 44.140625 6.75 46.71875 
Q 5.953125 49.3125 5.953125 52.203125 
Q 5.953125 55.8125 7.34375 59 
Q 8.734375 62.203125 11.46875 64.625 
Q 14.203125 67.046875 18.25 68.4375 
Q 22.3125 69.828125 27.640625 69.828125 
Q 33.25 69.828125 37.375 68.40625 
Q 41.5 67 44.203125 64.578125 
Q 46.921875 62.15625 48.234375 58.9375 
Q 49.5625 55.71875 49.5625 52.09375 
Q 49.5625 49.265625 48.75 46.671875 
Q 47.953125 44.09375 46.40625 41.96875 
Q 44.875 39.84375 42.59375 38.34375 
Q 40.328125 36.859375 37.359375 36.28125 
L 37.359375 36.078125 
Q 40.328125 35.59375 42.859375 34.296875 
Q 45.40625 33.015625 47.265625 30.890625 
Q 49.125 28.765625 50.1875 25.828125 
Q 51.265625 22.90625 51.265625 19.1875 
M 40.4375 51.609375 
Q 40.4375 54.203125 39.765625 56.34375 
Q 39.109375 58.5 37.59375 60.03125 
Q 36.078125 61.578125 33.640625 62.421875 
Q 31.203125 63.28125 27.640625 63.28125 
Q 24.171875 63.28125 21.78125 62.421875 
Q 19.390625 61.578125 17.84375 60.03125 
Q 16.3125 58.5 15.625 56.34375 
Q 14.9375 54.203125 14.9375 51.609375 
Q 14.9375 49.5625 15.46875 47.40625 
Q 16.015625 45.265625 17.421875 43.5 
Q 18.84375 41.75 21.328125 40.625 
Q 23.828125 39.5 27.734375 39.5 
Q 31.890625 39.5 34.40625 40.625 
Q 36.921875 41.75 38.25 43.5 
Q 39.59375 45.265625 40.015625 47.40625 
Q 40.4375 49.5625 40.4375 51.609375 
M 42.140625 20.015625 
Q 42.140625 22.515625 41.453125 24.828125 
Q 40.765625 27.15625 39.109375 28.9375 
Q 37.453125 30.71875 34.640625 31.8125 
Q 31.84375 32.90625 27.640625 32.90625 
Q 23.78125 32.90625 21.0625 31.8125 
Q 18.359375 30.71875 16.671875 28.90625 
Q 14.984375 27.09375 14.203125 24.71875 
Q 13.421875 22.359375 13.421875 19.828125 
Q 13.421875 16.65625 14.203125 14.03125 
Q 14.984375 11.421875 16.6875 9.546875 
Q 18.40625 7.671875 21.1875 6.640625 
Q 23.96875 5.609375 27.9375 5.609375 
Q 31.9375 5.609375 34.671875 6.640625 
Q 37.40625 7.671875 39.0625 9.546875 
Q 40.71875 11.421875 41.421875 14.078125 
Q 42.140625 16.75 42.140625 20.015625 
" id="LiberationSans-38"/>
      </defs>
      <g style="fill:#262626;" transform="translate(37.1953125 306.1859375)scale(0.1 -0.1)">
       <use xlink:href="#LiberationSans-31"/>
       <use x="55.615234375" xlink:href="#LiberationSans-33"/>
       <use x="111.23046875" xlink:href="#LiberationSans-38"/>
       <use x="166.845703125" xlink:href="#LiberationSans-30"/>
       <use x="222.4609375" xlink:href="#LiberationSans-30"/>
      </g>
     </g>
    </g>
    <g id="ytick_3">
     <g id="line2d_19">
      <path clip-path="url(#p378013e00b)" d="M 72 250.8 
L 518.4 250.8 
" style="fill:none;stroke:#ffffff;stroke-linecap:round;"/>
     </g>
     <g id="line2d_20"/>
     <g id="line2d_21"/>
     <g id="text_8">
      <!-- 13900 -->
      <g style="fill:#262626;" transform="translate(37.1953125 253.3859375)scale(0.1 -0.1)">
       <use xlink:href="#LiberationSans-31"/>
       <use x="55.615234375" xlink:href="#LiberationSans-33"/>
       <use x="111.23046875" xlink:href="#LiberationSans-39"/>
       <use x="166.845703125" xlink:href="#LiberationSans-30"/>
       <use x="222.4609375" xlink:href="#LiberationSans-30"/>
      </g>
     </g>
    </g>
    <g id="ytick_4">
     <g id="line2d_22">
      <path clip-path="url(#p378013e00b)" d="M 72 198 
L 518.4 198 
" style="fill:none;stroke:#ffffff;stroke-linecap:round;"/>
     </g>
     <g id="line2d_23"/>
     <g id="line2d_24"/>
     <g id="text_9">
      <!-- 14000 -->
      <g style="fill:#262626;" transform="translate(37.1953125 200.5859375)scale(0.1 -0.1)">
       <use xlink:href="#LiberationSans-31"/>
       <use x="55.615234375" xlink:href="#LiberationSans-34"/>
       <use x="111.23046875" xlink:href="#LiberationSans-30"/>
       <use x="166.845703125" xlink:href="#LiberationSans-30"/>
       <use x="222.4609375" xlink:href="#LiberationSans-30"/>
      </g>
     </g>
    </g>
    <g id="ytick_5">
     <g id="line2d_25">
      <path clip-path="url(#p378013e00b)" d="M 72 145.2 
L 518.4 145.2 
" style="fill:none;stroke:#ffffff;stroke-linecap:round;"/>
     </g>
     <g id="line2d_26"/>
     <g id="line2d_27"/>
     <g id="text_10">
      <!-- 14100 -->
      <g style="fill:#262626;" transform="translate(37.1953125 147.7859375)scale(0.1 -0.1)">
       <use xlink:href="#LiberationSans-31"/>
       <use x="55.615234375" xlink:href="#LiberationSans-34"/>
       <use x="111.23046875" xlink:href="#LiberationSans-31"/>
       <use x="166.845703125" xlink:href="#LiberationSans-30"/>
       <use x="222.4609375" xlink:href="#LiberationSans-30"/>
      </g>
     </g>
    </g>
    <g id="ytick_6">
     <g id="line2d_28">
      <path clip-path="url(#p378013e00b)" d="M 72 92.4 
L 518.4 92.4 
" style="fill:none;stroke:#ffffff;stroke-linecap:round;"/>
     </g>
     <g id="line2d_29"/>
     <g id="line2d_30"/>
     <g id="text_11">
      <!-- 14200 -->
      <g style="fill:#262626;" transform="translate(37.1953125 94.9859375)scale(0.1 -0.1)">
       <use xlink:href="#LiberationSans-31"/>
       <use x="55.615234375" xlink:href="#LiberationSans-34"/>
       <use x="111.23046875" xlink:href="#LiberationSans-32"/>
       <use x="166.845703125" xlink:href="#LiberationSans-30"/>
       <use x="222.4609375" xlink:href="#LiberationSans-30"/>
      </g>
     </g>
    </g>
    <g id="ytick_7">
     <g id="line2d_31">
      <path clip-path="url(#p378013e00b)" d="M 72 39.6 
L 518.4 39.6 
" style="fill:none;stroke:#ffffff;stroke-linecap:round;"/>
     </g>
     <g id="line2d_32"/>
     <g id="line2d_33"/>
     <g id="text_12">
      <!-- 14300 -->
      <g style="fill:#262626;" transform="translate(37.1953125 42.1859375)scale(0.1 -0.1)">
       <use xlink:href="#LiberationSans-31"/>
       <use x="55.615234375" xlink:href="#LiberationSans-34"/>
       <use x="111.23046875" xlink:href="#LiberationSans-33"/>
       <use x="166.845703125" xlink:href="#LiberationSans-30"/>
       <use x="222.4609375" xlink:href="#LiberationSans-30"/>
      </g>
     </g>
    </g>
   </g>
   <g id="line2d_34">
    <path clip-path="url(#p378013e00b)" d="M 72 74.212968 
L 72.223312 74.714568 
L 72.446623 78.46288 
L 72.669935 77.4544 
L 72.893247 77.96128 
L 73.33987 76.9528 
L 73.786493 77.96128 
L 74.233117 71.447979 
L 74.456428 77.96128 
L 74.67974 70.439499 
L 74.903052 74.714568 
L 75.126363 69.932619 
L 75.349675 74.714568 
L 75.572986 73.706088 
L 75.796298 77.96128 
L 76.01961 74.714568 
L 76.242921 76.229928 
L 76.466233 75.221448 
L 76.689545 76.731528 
L 76.912856 76.731528 
L 77.136168 84.754908 
L 77.35948 86.270268 
L 78.029415 81.48832 
L 78.252726 78.241608 
L 78.476038 82.4968 
L 79.145973 89.55088 
L 79.369285 82.275528 
L 79.592596 82.782408 
L 79.815908 81.773928 
L 80.03922 87.03232 
L 80.262531 87.03232 
L 80.485843 92.315868 
L 80.709155 90.304188 
L 80.932466 91.312668 
L 81.155778 91.312668 
L 81.37909 88.0408 
L 81.602401 92.822748 
L 81.825713 87.5392 
L 82.049025 91.312668 
L 82.272336 90.805788 
L 82.718959 90.805788 
L 83.165583 98.834448 
L 83.612206 91.814268 
L 83.835518 94.5541 
L 84.058829 91.312668 
L 84.282141 94.5541 
L 84.505453 95.06098 
L 84.728764 91.312668 
L 84.952076 91.312668 
L 85.175388 95.06098 
L 85.398699 94.5541 
L 85.622011 97.319088 
L 85.845323 88.788828 
L 86.068634 92.53714 
L 86.291946 89.295708 
L 86.515258 95.809008 
L 86.738569 95.302128 
L 86.961881 92.03554 
L 87.185193 96.310608 
L 87.408504 95.809008 
L 87.631816 96.817488 
L 88.078439 104.339269 
L 88.301751 100.05892 
L 88.748374 108.589181 
L 88.971686 109.096061 
L 89.194997 94.0525 
L 89.418309 97.319088 
L 89.641621 96.817488 
L 89.864932 93.54562 
L 90.088244 101.0674 
L 90.311556 101.57428 
L 90.534867 101.57428 
L 90.758179 111.861049 
L 90.981491 108.087581 
L 91.204802 107.079101 
L 91.428114 110.852569 
L 91.651426 111.354169 
L 91.874737 111.354169 
L 92.098049 119.38283 
L 92.321361 115.609361 
L 92.544672 115.609361 
L 92.767984 119.88443 
L 92.991296 119.38283 
L 93.214607 115.102481 
L 93.437919 115.609361 
L 93.661231 112.362649 
L 93.884542 104.339269 
L 94.331166 104.339269 
L 94.777789 111.354169 
L 95.001101 108.589181 
L 95.224412 110.345689 
L 95.447724 107.079101 
L 95.671036 108.087581 
L 95.894347 108.087581 
L 96.117659 107.580701 
L 96.34097 111.354169 
L 96.564282 110.345689 
L 96.787594 110.852569 
L 97.010905 114.094001 
L 97.234217 109.844089 
L 97.457529 110.345689 
L 97.68084 109.844089 
L 97.904152 117.36587 
L 98.350775 109.844089 
L 98.797399 117.86747 
L 99.244022 110.566961 
L 99.467334 107.827129 
L 99.690645 111.575441 
L 99.913957 118.590342 
L 100.137269 115.34891 
L 100.36058 115.85051 
L 100.583892 118.590342 
L 100.807204 118.590342 
L 101.030515 115.85051 
L 101.70045 115.85051 
L 101.923762 112.583921 
L 102.147074 116.35739 
L 102.593697 117.36587 
L 102.817009 125.38925 
L 103.04032 124.88765 
L 103.263632 120.607302 
L 103.486943 120.607302 
L 103.710255 124.88765 
L 103.933567 117.36587 
L 104.156878 124.88765 
L 104.38019 124.38077 
L 104.603502 124.38077 
L 104.826813 128.635962 
L 105.050125 123.87917 
L 105.273437 128.129082 
L 105.72006 120.105702 
L 105.943372 119.598822 
L 106.166683 115.34891 
L 106.389995 118.590342 
L 106.613307 115.34891 
L 106.836618 114.84203 
L 107.05993 119.598822 
L 107.283242 118.590342 
L 107.506553 114.84203 
L 107.729865 126.112122 
L 107.953177 121.86221 
L 108.176488 121.36061 
L 108.3998 121.36061 
L 108.623112 120.35213 
L 108.846423 121.36061 
L 109.069735 117.080262 
L 109.293047 121.86221 
L 109.516358 122.36381 
L 109.73967 118.088742 
L 109.962981 118.088742 
L 110.186293 113.83883 
L 110.409605 114.34043 
L 110.632916 113.33195 
L 110.856228 124.602042 
L 111.07954 120.35213 
L 111.302851 120.85373 
L 111.526163 125.108922 
L 111.749475 125.610522 
L 111.972786 125.610522 
L 112.196098 129.88559 
L 112.41941 125.108922 
L 112.642721 125.610522 
L 112.866033 125.610522 
L 113.089345 125.108922 
L 113.312656 117.587142 
L 113.535968 124.602042 
L 113.75928 127.36703 
L 113.982591 126.86543 
L 114.205903 127.87391 
L 114.429215 123.593562 
L 114.652526 123.091962 
L 114.875838 120.85373 
L 115.09915 124.100442 
L 115.322461 146.315622 
L 115.545773 152.61293 
L 115.992396 148.839462 
L 116.215708 155.13149 
L 116.43902 152.366502 
L 116.662331 152.366502 
L 116.885643 151.358022 
L 117.332266 143.329361 
L 117.555578 146.60123 
L 117.778889 146.60123 
L 118.002201 162.65327 
L 118.225513 153.876582 
L 118.448824 157.14845 
L 118.895448 144.844721 
L 119.118759 148.11131 
L 119.342071 140.087929 
L 119.565383 147.60971 
L 119.788694 147.60971 
L 120.012006 151.859622 
L 120.235318 150.851142 
L 120.458629 147.60971 
L 120.681941 151.859622 
L 120.905253 149.11979 
L 121.128564 152.868102 
L 121.351876 148.11131 
L 121.575188 151.358022 
L 121.798499 147.60971 
L 122.021811 151.859622 
L 122.245123 150.851142 
L 122.468434 151.358022 
L 122.691746 155.13149 
L 122.915058 151.859622 
L 123.138369 155.63309 
L 123.361681 151.859622 
L 123.584992 151.859622 
L 123.808304 148.61819 
L 124.031616 149.11979 
L 124.254927 152.868102 
L 124.701551 152.868102 
L 124.924862 151.859622 
L 125.148174 155.63309 
L 125.371486 156.13997 
L 125.594797 159.381402 
L 125.818109 159.381402 
L 126.041421 158.879802 
L 126.488044 174.931843 
L 126.934667 168.418542 
L 127.157979 168.920142 
L 127.381291 175.217451 
L 127.827914 173.200491 
L 128.051226 168.418542 
L 128.274537 175.940323 
L 128.497849 171.685131 
L 128.721161 164.67023 
L 128.944472 163.66175 
L 129.167784 172.192011 
L 129.391096 171.183531 
L 129.614407 171.183531 
L 129.837719 168.418542 
L 130.061031 171.685131 
L 130.284342 172.192011 
L 130.507654 176.441923 
L 130.730965 176.441923 
L 130.954277 180.215391 
L 131.4009 173.702091 
L 131.624212 177.450403 
L 131.847524 177.450403 
L 132.070835 177.229131 
L 132.294147 176.220651 
L 132.517459 176.220651 
L 132.74077 175.719051 
L 132.964082 176.220651 
L 133.187394 174.710571 
L 133.410705 170.435502 
L 133.634017 169.928622 
L 133.857329 177.957283 
L 134.08064 178.458883 
L 134.303952 178.458883 
L 134.527264 174.710571 
L 134.750575 174.208971 
L 134.973887 177.957283 
L 135.197199 174.208971 
L 135.42051 177.957283 
L 135.643822 177.957283 
L 135.867134 178.458883 
L 136.313757 170.435502 
L 136.537069 169.928622 
L 136.76038 170.937102 
L 137.207004 177.450403 
L 137.430315 177.450403 
L 137.653627 177.957283 
L 137.876938 175.217451 
L 138.10025 177.957283 
L 138.323562 174.208971 
L 138.546873 178.458883 
L 138.770185 175.217451 
L 138.993497 173.702091 
L 139.216808 177.957283 
L 139.44012 174.710571 
L 139.663432 176.948803 
L 139.886743 181.223871 
L 140.110055 176.948803 
L 140.333367 175.940323 
L 140.556678 168.418542 
L 140.77999 171.183531 
L 141.003302 172.192011 
L 141.226613 172.192011 
L 141.449925 172.693611 
L 141.673237 179.713791 
L 142.11986 179.713791 
L 142.343172 180.215391 
L 142.566483 175.940323 
L 142.789795 180.215391 
L 143.013107 179.206911 
L 143.236418 179.713791 
L 143.45973 174.931843 
L 143.683042 174.931843 
L 144.129665 175.940323 
L 144.352976 175.940323 
L 144.576288 179.206911 
L 144.7996 179.713791 
L 145.022911 175.940323 
L 145.246223 180.215391 
L 145.469535 186.728692 
L 145.692846 186.227092 
L 145.916158 182.453623 
L 146.13947 181.946743 
L 146.362781 188.460044 
L 146.586093 189.468524 
L 146.809405 181.445143 
L 147.256028 188.966924 
L 147.47934 185.218612 
L 147.702651 189.468524 
L 147.925963 188.966924 
L 148.372586 196.488704 
L 148.595898 196.990304 
L 148.81921 197.998784 
L 149.042521 197.497184 
L 149.265833 193.748872 
L 149.489145 197.497184 
L 149.712456 205.520564 
L 149.935768 204.512084 
L 150.15908 200.262172 
L 150.382391 200.763772 
L 151.052326 200.763772 
L 151.275638 200.262172 
L 151.498949 200.262172 
L 151.722261 203.002004 
L 151.945573 198.245212 
L 152.168884 200.985044 
L 152.392196 205.265393 
L 152.615508 204.758513 
L 152.838819 209.515305 
L 153.062131 205.766993 
L 153.285443 205.265393 
L 153.508754 202.495124 
L 153.732066 210.523785 
L 153.955378 207.277073 
L 154.402001 207.277073 
L 154.625313 210.523785 
L 154.848624 211.532265 
L 155.071936 204.010484 
L 155.295248 200.262172 
L 155.518559 203.503604 
L 155.741871 203.503604 
L 156.188494 210.523785 
L 156.411806 207.277073 
L 156.635118 211.025385 
L 156.858429 207.783953 
L 157.081741 211.025385 
L 157.305053 208.285553 
L 157.528364 208.285553 
L 157.751676 209.294033 
L 157.974987 214.050825 
L 158.198299 207.537524 
L 158.421611 212.319473 
L 158.644922 214.050825 
L 158.868234 211.310993 
L 159.091546 215.059305 
L 159.314857 209.800913 
L 159.538169 213.549225 
L 159.761481 215.059305 
L 159.984792 210.809393 
L 160.208104 210.302513 
L 160.654727 210.302513 
L 161.101351 211.310993 
L 161.324662 214.557705 
L 161.547974 214.557705 
L 161.771286 216.067785 
L 161.994597 212.319473 
L 162.217909 211.817873 
L 162.441221 216.574665 
L 162.664532 213.327953 
L 162.887844 216.574665 
L 163.111156 212.319473 
L 163.334467 216.574665 
L 163.781091 216.574665 
L 164.227714 211.064564 
L 164.451026 210.562964 
L 164.674337 207.823132 
L 164.897649 210.562964 
L 165.12096 204.797692 
L 165.344272 204.797692 
L 165.567584 201.024224 
L 165.790895 167.578132 
L 166.014207 166.824823 
L 166.237519 169.589812 
L 166.684142 183.383744 
L 166.907454 170.598292 
L 167.130765 173.845004 
L 167.354077 174.346604 
L 167.577389 174.346604 
L 167.8007 161.826883 
L 168.247324 161.826883 
L 168.470635 168.340183 
L 168.693947 167.833303 
L 168.917259 167.833303 
L 169.14057 171.606772 
L 169.587194 165.600351 
L 170.033817 170.357143 
L 170.257129 178.887404 
L 170.48044 178.887404 
L 170.703752 177.372044 
L 170.927064 176.870444 
L 171.150375 172.615252 
L 171.373687 173.122132 
L 171.82031 166.101951 
L 172.043622 168.841783 
L 172.266933 168.841783 
L 172.490245 165.600351 
L 172.936868 165.600351 
L 173.16018 167.331703 
L 173.383492 163.583391 
L 173.606803 163.583391 
L 173.830115 167.331703 
L 174.053427 162.574911 
L 174.50005 170.598292 
L 174.723362 171.105172 
L 174.946673 171.105172 
L 175.169985 162.574911 
L 175.393297 165.314743 
L 175.616608 162.574911 
L 175.83992 162.574911 
L 176.063232 163.076511 
L 176.286543 163.076511 
L 176.509855 162.068031 
L 176.733167 162.574911 
L 176.956478 162.068031 
L 177.403102 163.076511 
L 177.626413 163.076511 
L 177.849725 155.554731 
L 178.073037 159.809923 
L 178.296348 156.061611 
L 178.51966 156.061611 
L 178.966283 157.070091 
L 179.189595 160.311523 
L 179.412906 156.563211 
L 179.636218 157.070091 
L 179.85953 152.789742 
L 180.082841 151.781262 
L 180.306153 155.053131 
L 180.529465 156.061611 
L 180.752776 159.809923 
L 181.1994 159.809923 
L 181.422711 165.093471 
L 181.646023 160.818403 
L 181.869335 164.591871 
L 182.092646 165.093471 
L 182.315958 164.591871 
L 182.53927 160.818403 
L 182.762581 164.084991 
L 182.985893 161.320003 
L 183.209205 160.818403 
L 183.432516 160.818403 
L 183.87914 168.841783 
L 184.102451 165.600351 
L 184.549075 164.591871 
L 184.772386 161.320003 
L 184.995698 164.084991 
L 185.21901 168.340183 
L 185.442321 168.340183 
L 185.665633 167.833303 
L 185.888944 171.606772 
L 186.112256 171.606772 
L 186.335568 171.105172 
L 186.558879 174.853484 
L 186.782191 170.598292 
L 187.005503 171.105172 
L 187.228814 169.589812 
L 187.452126 170.096692 
L 187.898749 170.096692 
L 188.122061 170.598292 
L 188.345373 174.346604 
L 188.568684 174.346604 
L 188.791996 182.375264 
L 189.015308 186.148732 
L 189.238619 177.618472 
L 189.461931 177.618472 
L 189.685243 182.375264 
L 189.908554 182.375264 
L 190.131866 182.876864 
L 190.355178 182.876864 
L 190.578489 179.128552 
L 190.801801 182.876864 
L 191.025113 182.876864 
L 191.248424 182.375264 
L 191.695048 174.346604 
L 191.918359 174.346604 
L 192.141671 170.598292 
L 192.364982 174.346604 
L 192.588294 173.845004 
L 192.811606 174.853484 
L 193.034917 174.853484 
L 193.258229 171.606772 
L 193.481541 174.853484 
L 193.704852 171.105172 
L 193.928164 174.853484 
L 194.151476 171.105172 
L 194.374787 170.598292 
L 194.598099 174.853484 
L 194.821411 174.346604 
L 195.044722 174.853484 
L 195.268034 171.606772 
L 195.491346 174.853484 
L 195.714657 174.346604 
L 195.937969 176.363564 
L 196.161281 173.122132 
L 196.384592 176.870444 
L 196.607904 177.878924 
L 196.831216 177.878924 
L 197.054527 178.887404 
L 197.277839 185.902304 
L 197.501151 178.887404 
L 197.947774 186.409184 
L 198.171086 185.902304 
L 198.617709 186.910784 
L 198.841021 188.420864 
L 199.287644 187.412384 
L 199.510955 190.182652 
L 199.734267 190.684252 
L 199.957579 191.692732 
L 200.18089 199.214513 
L 200.404202 201.954345 
L 200.627514 201.954345 
L 201.074137 203.971305 
L 201.297449 209.254853 
L 201.52076 207.237893 
L 201.744072 215.266554 
L 202.190695 215.266554 
L 202.414007 219.014865 
L 202.86063 218.006385 
L 203.307254 218.006385 
L 203.530565 218.507985 
L 203.753877 218.507985 
L 203.977189 220.524945 
L 204.2005 220.023345 
L 204.423812 216.776634 
L 204.647124 221.031825 
L 204.870435 216.776634 
L 205.093747 221.031825 
L 205.317059 216.776634 
L 205.54037 220.023345 
L 205.763682 220.023345 
L 205.986993 224.805294 
L 206.210305 225.306894 
L 206.433617 230.063686 
L 207.103552 217.283514 
L 207.326863 221.533425 
L 207.550175 221.031825 
L 207.773487 223.796814 
L 207.996798 219.516465 
L 208.443422 220.524945 
L 208.666733 220.524945 
L 209.113357 227.545126 
L 209.336668 228.046726 
L 209.55998 223.796814 
L 209.783292 227.545126 
L 210.006603 227.038246 
L 210.229915 230.811714 
L 210.676538 223.796814 
L 210.89985 228.553606 
L 211.123162 224.805294 
L 211.346473 228.553606 
L 211.569785 229.055206 
L 212.23972 216.776634 
L 212.686343 224.805294 
L 212.909655 222.541905 
L 213.132966 223.550385 
L 213.356278 221.312154 
L 213.57959 204.758513 
L 214.026213 214.297253 
L 214.249525 210.016905 
L 214.472836 217.538685 
L 214.91946 210.016905 
L 215.142771 214.297253 
L 215.366083 214.798853 
L 215.589395 216.314213 
L 215.812706 206.775473 
L 216.036018 210.523785 
L 216.25933 209.761733 
L 216.482641 217.785114 
L 216.705953 218.291994 
L 216.929265 219.300474 
L 217.152576 218.793594 
L 217.375888 226.315374 
L 217.5992 221.533425 
L 217.822511 228.553606 
L 218.045823 221.031825 
L 218.269135 221.031825 
L 218.93907 230.570566 
L 219.162381 231.072166 
L 219.609005 239.602426 
L 219.832316 238.593946 
L 220.055628 234.845634 
L 220.278939 235.854114 
L 220.502251 239.100826 
L 220.725563 235.854114 
L 220.948874 235.854114 
L 221.172186 237.364194 
L 221.395498 237.364194 
L 221.618809 233.590726 
L 221.842121 233.590726 
L 222.065433 225.060465 
L 222.288744 220.810554 
L 222.512056 224.558865 
L 222.735368 225.567345 
L 222.958679 225.567345 
L 223.405303 218.045565 
L 223.628614 203.503604 
L 223.851926 202.495124 
L 224.075238 210.016905 
L 224.298549 206.775473 
L 224.521861 205.265393 
L 224.745173 206.268593 
L 224.968484 198.746812 
L 225.415108 206.268593 
L 225.638419 209.013705 
L 225.861731 205.766993 
L 226.085043 209.013705 
L 226.308354 193.970144 
L 226.754977 186.448364 
L 226.978289 197.236732 
L 227.201601 197.236732 
L 227.424912 192.961664 
L 227.648224 195.726652 
L 227.871536 191.446304 
L 228.094847 199.474964 
L 228.318159 191.446304 
L 228.541471 191.446304 
L 228.764782 191.953184 
L 228.988094 191.953184 
L 229.211406 188.706472 
L 229.434717 180.683092 
L 229.658029 183.422924 
L 229.881341 179.167732 
L 230.104652 183.422924 
L 230.327964 180.176212 
L 230.551276 183.422924 
L 230.774587 188.706472 
L 231.221211 188.706472 
L 231.444522 188.204872 
L 231.667834 188.204872 
L 232.114457 195.726652 
L 232.561081 188.204872 
L 232.784392 188.706472 
L 233.007704 185.439884 
L 233.454327 193.970144 
L 233.677639 197.236732 
L 233.90095 197.743612 
L 234.124262 197.743612 
L 234.347574 198.245212 
L 234.570885 197.743612 
L 234.794197 197.743612 
L 235.017509 193.970144 
L 235.464132 200.985044 
L 235.910755 200.985044 
L 236.134067 201.491924 
L 236.357379 197.236732 
L 236.58069 189.213352 
L 236.804002 188.706472 
L 237.027314 189.213352 
L 237.250625 189.213352 
L 237.473937 184.933004 
L 237.697249 183.924524 
L 237.92056 185.439884 
L 238.143872 189.714952 
L 238.367184 189.714952 
L 238.590495 192.961664 
L 238.813807 185.439884 
L 239.037119 185.941484 
L 239.26043 189.714952 
L 239.483742 185.941484 
L 239.707054 189.714952 
L 239.930365 189.213352 
L 240.153677 189.714952 
L 240.376988 187.451564 
L 240.6003 192.740392 
L 240.823612 192.233512 
L 241.046923 192.740392 
L 241.270235 195.981824 
L 241.493547 191.731912 
L 241.716858 195.480224 
L 241.94017 186.448364 
L 242.163482 186.448364 
L 242.386793 187.451564 
L 242.610105 183.703252 
L 243.056728 184.711732 
L 243.28004 187.451564 
L 243.503352 180.436663 
L 243.726663 183.703252 
L 243.949975 183.201652 
L 244.173287 183.201652 
L 244.396598 176.688351 
L 244.843222 176.688351 
L 245.066533 180.436663 
L 245.289845 187.451564 
L 245.513157 176.688351 
L 245.736468 177.189951 
L 245.95978 180.436663 
L 246.183092 180.436663 
L 246.406403 185.941484 
L 246.629715 185.941484 
L 246.853027 186.448364 
L 247.076338 186.448364 
L 247.29965 182.193172 
L 247.522961 181.691572 
L 247.746273 185.941484 
L 247.969585 186.448364 
L 248.192896 187.451564 
L 248.416208 183.703252 
L 248.63952 187.958444 
L 248.862831 188.460044 
L 249.086143 187.451564 
L 249.309455 188.460044 
L 249.532766 192.233512 
L 249.756078 192.740392 
L 249.97939 192.233512 
L 250.202701 192.233512 
L 250.426013 193.241992 
L 250.872636 186.227092 
L 251.095948 187.235572 
L 251.542571 190.983884 
L 251.765883 190.477004 
L 251.989195 190.983884 
L 252.212506 194.250472 
L 252.435818 194.250472 
L 252.65913 193.748872 
L 252.882441 189.975404 
L 253.105753 190.477004 
L 253.329065 186.728692 
L 253.552376 186.227092 
L 253.775688 189.468524 
L 254.222311 181.946743 
L 254.668934 181.946743 
L 254.892246 178.705311 
L 255.115558 181.946743 
L 255.785493 181.946743 
L 256.008804 185.720212 
L 256.232116 186.227092 
L 256.455428 190.477004 
L 256.678739 189.975404 
L 256.902051 189.975404 
L 257.125363 188.966924 
L 257.348674 186.949964 
L 257.571986 187.451564 
L 257.795298 183.703252 
L 258.018609 187.958444 
L 258.241921 186.949964 
L 258.465233 191.731912 
L 258.688544 190.221832 
L 258.911856 190.221832 
L 259.135168 186.949964 
L 259.358479 190.723432 
L 259.581791 191.225032 
L 259.805103 187.451564 
L 260.251726 187.451564 
L 260.698349 194.471744 
L 260.921661 194.973344 
L 261.144972 191.225032 
L 261.368284 194.973344 
L 261.591596 191.731912 
L 261.814907 191.225032 
L 262.038219 191.225032 
L 262.261531 187.451564 
L 262.484842 191.731912 
L 262.708154 191.731912 
L 262.931466 188.460044 
L 263.154777 191.225032 
L 263.378089 187.451564 
L 263.601401 187.958444 
L 263.824712 187.451564 
L 264.048024 187.958444 
L 264.271336 183.703252 
L 264.494647 183.201652 
L 264.717959 184.711732 
L 265.164582 184.711732 
L 265.387894 191.731912 
L 265.611206 192.233512 
L 265.834517 191.225032 
L 266.057829 192.233512 
L 266.281141 200.262172 
L 266.504452 196.990304 
L 266.727764 332.703523 
L 266.951076 290.25947 
L 267.174387 291.528401 
L 267.397699 287.74091 
L 267.621011 287.962182 
L 267.844322 298.75055 
L 268.067634 295.985562 
L 268.290945 297.495642 
L 268.514257 293.74733 
L 268.737569 287.962182 
L 268.96088 291.73565 
L 269.184192 298.002522 
L 269.407504 297.495642 
L 269.630815 285.21707 
L 269.854127 289.973862 
L 270.077439 290.982342 
L 270.524062 276.445661 
L 270.747374 275.938781 
L 270.970685 280.720729 
L 271.193997 278.462621 
L 271.417309 283.746169 
L 271.64062 281.729209 
L 271.863932 285.984401 
L 272.087244 283.746169 
L 272.533867 284.754649 
L 272.757179 287.494481 
L 273.203802 288.502961 
L 273.427114 293.28491 
L 273.650425 287.273209 
L 273.873737 290.519921 
L 274.097049 285.763129 
L 274.32036 288.281689 
L 274.543672 289.290169 
L 274.766983 292.030001 
L 274.990295 290.298649 
L 275.213607 289.797049 
L 275.436918 289.797049 
L 275.883542 288.281689 
L 276.106853 287.780089 
L 276.330165 288.281689 
L 276.553477 289.290169 
L 276.776788 295.562321 
L 277.0001 295.341049 
L 277.223412 291.567581 
L 277.446723 292.069181 
L 278.33997 280.799088 
L 278.563282 279.790608 
L 279.233217 271.767228 
L 279.456528 264.747048 
L 279.67984 268.49536 
L 280.126463 263.236968 
L 280.349775 268.49536 
L 280.573087 264.747048 
L 280.796398 268.49536 
L 281.01971 268.49536 
L 281.243022 264.747048 
L 281.466333 265.253928 
L 281.689645 264.245448 
L 281.912956 262.228488 
L 282.136268 262.730088 
L 282.35958 262.730088 
L 282.582891 265.9768 
L 282.806203 258.455019 
L 283.029515 259.965099 
L 283.252826 259.463499 
L 283.476138 254.205107 
L 283.69945 252.188147 
L 283.922761 257.953419 
L 284.146073 258.455019 
L 284.369385 261.726888 
L 284.592696 254.205107 
L 284.816008 254.706707 
L 285.03932 253.698227 
L 285.262631 254.205107 
L 285.485943 253.698227 
L 285.709255 257.953419 
L 285.932566 254.205107 
L 286.37919 254.205107 
L 286.602501 251.434839 
L 286.825813 250.933239 
L 287.272436 243.913058 
L 287.71906 228.367898 
L 287.942371 230.631286 
L 288.388994 222.602626 
L 288.612306 223.109506 
L 288.835618 223.109506 
L 289.282241 230.631286 
L 289.505553 222.101026 
L 289.728864 229.622806 
L 289.952176 225.849338 
L 290.175488 230.631286 
L 290.398799 219.837637 
L 291.068734 230.631286 
L 291.292046 222.602626 
L 291.515358 230.631286 
L 291.738669 230.124406 
L 291.961981 231.132886 
L 292.185293 233.872718 
L 292.408604 226.857818 
L 292.631916 227.359418 
L 292.855228 226.857818 
L 293.078539 222.602626 
L 293.301851 226.350938 
L 293.525163 226.857818 
L 293.971786 219.336037 
L 294.195098 219.837637 
L 294.418409 219.837637 
L 294.641721 227.359418 
L 294.865033 226.857818 
L 295.088344 233.872718 
L 295.534967 225.849338 
L 295.758279 228.107446 
L 295.981591 226.597366 
L 296.204902 230.847278 
L 296.428214 225.588886 
L 296.651526 228.328718 
L 296.874837 223.070326 
L 297.098149 226.597366 
L 297.321461 225.588886 
L 297.544772 226.090486 
L 297.768084 219.577186 
L 297.991396 218.067106 
L 298.214707 221.308538 
L 298.438019 221.815418 
L 298.661331 221.815418 
L 298.884642 227.605846 
L 299.107954 223.832378 
L 299.331266 222.823898 
L 299.554577 215.302117 
L 299.777889 218.568706 
L 300.001201 213.786757 
L 300.224512 214.293637 
L 300.447824 217.058626 
L 300.671136 217.058626 
L 300.894447 217.560226 
L 301.117759 216.557026 
L 301.341071 231.600586 
L 301.564382 227.827118 
L 301.787694 228.830318 
L 302.011006 221.308538 
L 302.234317 221.308538 
L 302.457629 226.090486 
L 302.68094 222.317018 
L 302.904252 221.308538 
L 303.127564 224.078806 
L 303.350875 224.078806 
L 303.574187 218.789978 
L 303.797499 222.563446 
L 304.02081 220.305338 
L 304.467434 220.305338 
L 304.690745 216.557026 
L 304.914057 216.050146 
L 305.137369 216.050146 
L 305.36068 216.557026 
L 305.583992 219.798458 
L 305.807304 220.305338 
L 306.030615 222.317018 
L 306.253927 196.003365 
L 306.477239 210.545325 
L 306.70055 201.513465 
L 306.923862 206.264977 
L 307.147174 205.261777 
L 307.370485 209.536845 
L 307.593797 206.264977 
L 307.817109 213.285157 
L 308.04042 210.038445 
L 308.263732 209.536845 
L 308.487044 213.285157 
L 308.710355 213.786757 
L 308.933667 211.268197 
L 309.156978 211.268197 
L 309.38029 215.041666 
L 309.826913 207.018285 
L 310.050225 211.268197 
L 310.496848 211.268197 
L 310.72016 204.253297 
L 310.943472 208.528365 
L 311.166783 207.519885 
L 311.390095 208.026765 
L 311.613407 212.276677 
L 312.06003 213.285157 
L 312.283342 213.285157 
L 312.729965 205.763377 
L 312.953277 209.536845 
L 313.176588 205.763377 
L 313.3999 209.035245 
L 313.846523 209.035245 
L 314.069835 212.783557 
L 314.293147 213.285157 
L 314.516458 209.035245 
L 314.73977 209.035245 
L 315.186393 201.006585 
L 315.409705 201.513465 
L 315.633017 205.763377 
L 315.856328 205.763377 
L 316.07964 202.516665 
L 316.302951 206.264977 
L 316.526263 202.516665 
L 316.749575 202.015065 
L 316.972886 198.241596 
L 317.196198 197.739996 
L 317.41951 183.699636 
L 317.642821 194.994885 
L 317.866133 190.719816 
L 318.089445 200.760156 
L 318.312756 195.501765 
L 318.536068 199.751676 
L 318.982691 196.731516 
L 319.206003 205.261777 
L 319.429315 206.264977 
L 319.652626 206.264977 
L 319.875938 213.786757 
L 320.09925 206.264977 
L 320.322561 205.763377 
L 320.545873 207.780337 
L 320.769185 203.023545 
L 320.992496 207.273457 
L 321.215808 214.293637 
L 321.43912 217.560226 
L 321.662431 217.560226 
L 321.885743 222.317018 
L 322.109055 222.823898 
L 322.332366 226.597366 
L 322.555678 222.823898 
L 322.778989 226.090486 
L 323.002301 219.075586 
L 323.225613 222.823898 
L 323.448924 218.067106 
L 323.672236 218.568706 
L 323.895548 217.058626 
L 324.118859 217.560226 
L 324.342171 217.560226 
L 324.565483 220.305338 
L 324.788794 221.308538 
L 325.012106 217.560226 
L 325.235418 216.050146 
L 325.458729 224.580406 
L 325.682041 220.806938 
L 325.905353 224.580406 
L 326.128664 221.308538 
L 326.351976 221.815418 
L 326.575288 220.305338 
L 326.798599 224.078806 
L 327.021911 220.305338 
L 327.245223 220.806938 
L 327.468534 217.560226 
L 327.691846 217.560226 
L 327.915158 217.058626 
L 328.138469 217.058626 
L 328.361781 221.308538 
L 328.585093 219.296858 
L 328.808404 216.050146 
L 329.031716 219.296858 
L 329.255028 218.288378 
L 329.478339 215.548546 
L 329.701651 215.548546 
L 329.924962 218.789978 
L 330.371586 218.789978 
L 330.594897 214.033186 
L 330.818209 213.024706 
L 331.041521 206.732677 
L 331.264832 206.732677 
L 331.488144 208.242757 
L 331.711456 208.242757 
L 331.934767 208.749637 
L 332.158079 205.001325 
L 332.381391 205.001325 
L 332.604702 203.992845 
L 333.051326 212.523106 
L 333.274637 212.523106 
L 333.497949 209.251237 
L 333.721261 213.024706 
L 333.944572 209.758117 
L 334.167884 217.781498 
L 334.391196 214.033186 
L 334.614507 218.789978 
L 335.061131 210.259717 
L 335.284442 209.758117 
L 335.507754 206.511405 
L 335.731066 206.009805 
L 335.954377 210.766597 
L 336.177689 210.766597 
L 336.401001 214.540066 
L 336.624312 211.268197 
L 336.847624 210.259717 
L 337.070935 203.244817 
L 337.294247 207.018285 
L 337.517559 202.737937 
L 337.964182 204.253297 
L 338.187494 207.519885 
L 338.410805 203.244817 
L 338.634117 203.746417 
L 338.857429 207.018285 
L 339.08074 207.519885 
L 339.304052 209.035245 
L 339.527364 205.261777 
L 339.750675 208.026765 
L 339.973987 204.253297 
L 340.197299 205.261777 
L 340.42061 201.513465 
L 340.643922 201.513465 
L 340.867234 205.261777 
L 341.090545 204.253297 
L 341.313857 201.513465 
L 341.537169 201.006585 
L 341.76048 205.261777 
L 341.983792 201.513465 
L 342.207104 205.763377 
L 342.430415 204.754897 
L 342.653727 208.528365 
L 342.877039 208.026765 
L 343.10035 208.026765 
L 343.323662 207.519885 
L 343.546973 208.026765 
L 343.770285 211.775077 
L 343.993597 211.268197 
L 344.216908 219.798458 
L 344.663532 212.276677 
L 344.886843 212.276677 
L 345.110155 213.285157 
L 345.333467 216.557026 
L 345.556778 216.557026 
L 346.003402 215.548546 
L 346.226713 216.050146 
L 346.450025 216.050146 
L 346.673337 211.775077 
L 346.896648 215.548546 
L 347.11996 215.548546 
L 347.343272 219.798458 
L 347.566583 218.789978 
L 347.789895 227.320238 
L 348.013207 218.789978 
L 348.236518 218.789978 
L 348.683142 226.818638 
L 348.906453 219.296858 
L 349.129765 218.789978 
L 349.353077 218.789978 
L 349.576388 215.041666 
L 349.7997 218.288378 
L 350.023012 217.781498 
L 350.246323 210.259717 
L 350.469635 210.259717 
L 350.692946 210.766597 
L 350.916258 207.018285 
L 351.13957 210.766597 
L 351.362881 210.766597 
L 351.586193 206.009805 
L 351.809505 209.251237 
L 352.032816 205.502925 
L 352.256128 205.001325 
L 352.47944 207.741157 
L 352.702751 212.523106 
L 352.926063 213.024706 
L 353.149375 212.016226 
L 353.372686 216.773018 
L 353.81931 216.773018 
L 354.042621 213.531586 
L 354.265933 217.781498 
L 354.489245 217.781498 
L 354.712556 213.531586 
L 354.935868 221.554966 
L 355.382491 214.033186 
L 355.605803 213.531586 
L 355.829115 213.531586 
L 356.052426 216.773018 
L 356.275738 216.773018 
L 356.49905 204.494445 
L 356.722361 208.749637 
L 356.945673 208.242757 
L 357.168984 212.523106 
L 357.615608 213.531586 
L 357.838919 209.758117 
L 358.062231 213.531586 
L 358.285543 215.262938 
L 358.508854 207.741157 
L 358.732166 210.506146 
L 359.178789 206.186618 
L 359.402101 208.710458 
L 359.625413 207.195098 
L 359.848724 209.718938 
L 360.072036 201.188677 
L 360.295348 203.953666 
L 360.518659 204.962146 
L 360.741971 204.962146 
L 360.965283 198.163237 
L 361.188594 200.928226 
L 361.411906 200.928226 
L 361.635218 198.163237 
L 361.858529 200.426626 
L 362.081841 195.644677 
L 362.305153 200.928226 
L 362.528464 197.661637 
L 362.751776 201.936706 
L 362.975088 199.919746 
L 363.421711 194.129317 
L 363.868334 189.372525 
L 364.091646 192.619237 
L 364.314957 193.627717 
L 364.538269 188.870925 
L 364.761581 188.870925 
L 364.984892 194.129317 
L 365.208204 191.896365 
L 365.431516 194.636197 
L 365.654827 195.137797 
L 365.878139 191.389485 
L 366.324762 191.389485 
L 366.548074 189.131377 
L 366.994697 196.653157 
L 367.218009 195.644677 
L 367.441321 199.418146 
L 367.664632 215.548546 
L 367.887944 217.058626 
L 368.334567 190.719816 
L 368.557879 198.241596 
L 369.004502 190.719816 
L 369.451126 179.951324 
L 369.674437 191.221416 
L 369.897749 186.971504 
L 370.344372 193.484805 
L 370.567684 205.261777 
L 370.790995 204.754897 
L 371.237619 198.989625 
L 371.46093 209.758117 
L 371.684242 202.737937 
L 371.907554 203.244817 
L 372.130865 198.989625 
L 372.354177 206.511405 
L 372.577489 218.288378 
L 372.8008 214.540066 
L 373.024112 230.592106 
L 373.247424 237.105407 
L 373.917359 224.801678 
L 374.14067 232.323458 
L 374.363982 232.825058 
L 374.587294 243.618707 
L 375.033917 230.808098 
L 375.257229 231.816578 
L 375.48054 235.590047 
L 375.703852 235.088447 
L 375.927164 232.323458 
L 376.150475 232.825058 
L 376.373787 229.076746 
L 376.597099 229.076746 
L 376.82041 232.825058 
L 377.043722 229.076746 
L 377.267034 233.331938 
L 377.490345 232.825058 
L 377.713657 232.825058 
L 377.936968 232.323458 
L 378.16028 232.323458 
L 378.383592 224.294798 
L 378.606903 229.583626 
L 379.053527 228.575146 
L 379.50015 228.575146 
L 379.723462 232.825058 
L 380.170085 232.825058 
L 380.393397 229.076746 
L 380.616708 229.076746 
L 380.84002 232.825058 
L 381.286643 231.314978 
L 381.733267 223.793198 
L 381.956578 227.059786 
L 382.17989 227.566666 
L 382.626513 227.566666 
L 382.849825 227.059786 
L 383.073137 227.566666 
L 383.296448 231.816578 
L 383.51976 228.575146 
L 383.743072 228.575146 
L 383.966383 225.303278 
L 384.189695 229.583626 
L 384.413007 225.303278 
L 384.636318 225.303278 
L 384.85963 225.810158 
L 385.082941 229.583626 
L 385.306253 224.801678 
L 385.529565 224.801678 
L 385.752876 221.554966 
L 385.976188 220.546486 
L 386.1995 221.053366 
L 386.646123 228.575146 
L 386.869435 225.303278 
L 387.092746 228.575146 
L 387.53937 221.554966 
L 387.762681 225.810158 
L 387.985993 222.061846 
L 388.209305 225.810158 
L 388.432616 221.554966 
L 388.655928 225.303278 
L 388.87924 225.303278 
L 389.102551 221.554966 
L 389.549175 223.571926 
L 389.772486 223.571926 
L 389.995798 223.070326 
L 390.21911 230.592106 
L 390.442421 230.592106 
L 390.665733 226.311758 
L 390.889045 230.085226 
L 391.112356 226.311758 
L 391.335668 226.311758 
L 391.558979 225.810158 
L 391.782291 222.061846 
L 392.005603 222.061846 
L 392.228914 225.810158 
L 392.452226 225.810158 
L 392.675538 222.061846 
L 393.122161 221.053366 
L 393.568784 214.033186 
L 393.792096 213.531586 
L 394.015408 214.033186 
L 394.238719 213.531586 
L 394.462031 213.531586 
L 394.685343 214.033186 
L 394.908654 217.781498 
L 395.355278 210.259717 
L 395.578589 210.259717 
L 396.025213 202.737937 
L 396.248524 206.511405 
L 396.471836 202.737937 
L 396.695148 207.018285 
L 397.141771 207.018285 
L 397.365083 203.244817 
L 397.588394 206.511405 
L 397.811706 206.009805 
L 398.035018 201.729457 
L 398.258329 201.227857 
L 398.481641 206.009805 
L 398.704952 213.531586 
L 398.928264 209.251237 
L 399.151576 213.024706 
L 399.374887 213.024706 
L 399.598199 216.773018 
L 399.821511 209.251237 
L 400.268134 210.259717 
L 400.491446 214.540066 
L 400.938069 206.511405 
L 401.161381 207.519885 
L 401.384692 215.041666 
L 401.608004 215.041666 
L 401.831316 219.798458 
L 402.054627 219.296858 
L 402.277939 220.806938 
L 402.501251 220.305338 
L 402.724562 216.050146 
L 402.947874 219.798458 
L 403.171186 216.050146 
L 403.394497 219.798458 
L 403.617809 220.305338 
L 403.841121 216.050146 
L 404.064432 223.070326 
L 404.287744 223.070326 
L 404.511056 216.050146 
L 404.734367 215.548546 
L 404.957679 219.296858 
L 405.18099 215.548546 
L 405.404302 215.548546 
L 405.627614 210.766597 
L 405.850925 211.268197 
L 406.297549 203.244817 
L 406.52086 207.018285 
L 406.744172 207.018285 
L 406.967484 203.244817 
L 407.190795 207.519885 
L 407.637419 207.519885 
L 407.86073 204.253297 
L 408.084042 211.775077 
L 408.307354 215.041666 
L 408.530665 215.041666 
L 408.753977 211.268197 
L 409.2006 211.268197 
L 409.423912 210.766597 
L 409.647224 207.018285 
L 409.870535 206.511405 
L 410.093847 210.259717 
L 410.317159 210.766597 
L 410.54047 214.540066 
L 410.763782 215.041666 
L 410.987094 214.033186 
L 411.210405 214.540066 
L 411.433717 218.288378 
L 411.657029 218.288378 
L 412.103652 209.251237 
L 412.550275 209.251237 
L 412.773587 209.758117 
L 412.996898 210.766597 
L 413.22021 219.296858 
L 413.443522 215.548546 
L 413.890145 214.033186 
L 414.113457 207.018285 
L 414.56008 207.018285 
L 415.006703 214.540066 
L 415.230015 214.540066 
L 415.453327 215.041666 
L 415.676638 214.540066 
L 415.89995 214.540066 
L 416.123262 214.033186 
L 416.346573 211.268197 
L 416.569885 199.496505 
L 416.793197 203.244817 
L 417.016508 198.989625 
L 417.23982 199.496505 
L 417.463132 198.488025 
L 417.686443 202.737937 
L 417.909755 202.236337 
L 418.133067 215.548546 
L 418.803002 192.476325 
L 419.026313 204.754897 
L 419.249625 201.513465 
L 419.472936 191.221416 
L 419.696248 186.971504 
L 419.91956 190.218216 
L 420.142871 197.233116 
L 420.589495 185.461424 
L 420.812806 185.461424 
L 421.036118 192.983205 
L 421.25943 189.209736 
L 421.482741 188.702856 
L 421.706053 188.702856 
L 421.929365 189.209736 
L 422.152676 195.723036 
L 422.375988 198.989625 
L 422.5993 195.216156 
L 422.822611 195.723036 
L 423.045923 194.714556 
L 423.269235 190.966245 
L 423.492546 191.467845 
L 423.93917 191.467845 
L 424.162481 191.974725 
L 424.385793 191.974725 
L 424.609105 195.723036 
L 424.832416 207.018285 
L 425.055728 210.766597 
L 425.27904 210.766597 
L 425.502351 207.018285 
L 425.725663 210.766597 
L 425.948974 207.519885 
L 426.172286 207.519885 
L 426.395598 203.746417 
L 426.618909 203.746417 
L 426.842221 207.519885 
L 427.065533 203.746417 
L 427.288844 207.519885 
L 427.512156 207.018285 
L 427.735468 203.746417 
L 427.958779 203.244817 
L 428.182091 203.244817 
L 428.405403 198.488025 
L 428.628714 202.236337 
L 428.852026 197.981145 
L 429.075338 206.511405 
L 429.298649 202.737937 
L 429.521961 206.511405 
L 429.745273 206.009805 
L 430.191896 206.009805 
L 430.415208 216.271418 
L 430.638519 215.764538 
L 430.861831 205.001325 
L 431.085143 208.749637 
L 431.308454 205.502925 
L 431.531766 208.749637 
L 431.755078 208.749637 
L 431.978389 205.001325 
L 432.201701 205.001325 
L 432.648324 213.024706 
L 433.094947 214.033186 
L 433.318259 214.033186 
L 433.541571 213.531586 
L 433.764882 214.033186 
L 433.988194 213.531586 
L 434.211506 210.259717 
L 434.434817 212.523106 
L 434.658129 212.016226 
L 434.881441 212.016226 
L 435.104752 213.024706 
L 435.328064 213.024706 
L 435.551376 209.251237 
L 435.774687 212.523106 
L 436.221311 203.992845 
L 436.444622 203.992845 
L 436.667934 202.984365 
L 436.891246 202.984365 
L 437.114557 208.242757 
L 437.337869 204.494445 
L 437.561181 195.964185 
L 437.784492 196.972665 
L 438.454427 192.437145 
L 438.677739 192.944025 
L 438.901051 193.952505 
L 439.124362 197.700817 
L 439.347674 197.700817 
L 439.570985 194.454105 
L 439.794297 198.704017 
L 440.24092 191.182236 
L 440.464232 194.955705 
L 440.687544 195.462585 
L 440.910855 194.955705 
L 441.134167 191.182236 
L 441.804102 198.202417 
L 442.250725 190.179036 
L 442.474037 192.944025 
L 442.697349 190.179036 
L 442.92066 190.179036 
L 443.143972 191.182236 
L 443.367284 191.182236 
L 443.590595 190.680636 
L 443.813907 186.932325 
L 444.037219 187.433925 
L 444.26053 187.433925 
L 444.483842 190.680636 
L 444.707154 188.663676 
L 444.930465 191.428665 
L 445.153777 184.629756 
L 445.377089 189.411705 
L 445.6004 190.927065 
L 445.823712 190.420185 
L 446.047024 189.411705 
L 446.493647 190.420185 
L 446.716958 191.428665 
L 446.94027 196.185457 
L 447.163582 189.170556 
L 447.386893 191.428665 
L 447.610205 188.663676 
L 447.833517 189.672156 
L 448.056828 192.944025 
L 448.28014 187.655196 
L 448.503452 191.428665 
L 448.950075 184.413765 
L 449.173387 187.655196 
L 449.396698 184.915365 
L 449.62001 191.182236 
L 449.843322 193.445625 
L 450.066633 189.672156 
L 450.289945 189.672156 
L 450.513257 185.422245 
L 450.736568 188.663676 
L 450.95988 193.952505 
L 451.183192 190.680636 
L 451.406503 189.672156 
L 451.629815 189.672156 
L 451.853127 193.445625 
L 452.076438 189.672156 
L 452.29975 192.437145 
L 452.523062 187.153596 
L 452.746373 190.927065 
L 452.969685 187.153596 
L 453.192996 186.646716 
L 453.416308 195.176977 
L 453.63962 191.428665 
L 454.086243 199.457325 
L 454.532866 199.457325 
L 454.756178 199.958925 
L 454.97949 199.457325 
L 455.426113 208.489186 
L 455.649425 205.222597 
L 455.872736 205.222597 
L 456.096048 201.975885 
L 456.31936 200.967405 
L 456.542671 201.474285 
L 456.765983 197.193937 
L 456.989295 200.465805 
L 457.65923 200.465805 
L 457.882541 196.692337 
L 458.105853 196.692337 
L 458.329165 188.663676 
L 458.775788 189.672156 
L 458.9991 193.445625 
L 459.222411 193.445625 
L 459.445723 192.944025 
L 459.669035 193.445625 
L 459.892346 197.193937 
L 460.338969 197.193937 
L 460.562281 200.967405 
L 460.785593 201.975885 
L 461.008904 205.222597 
L 461.232216 205.724197 
L 461.455528 202.477485 
L 461.678839 202.984365 
L 461.902151 202.477485 
L 462.125463 198.704017 
L 462.348774 198.704017 
L 462.795398 191.182236 
L 463.018709 194.955705 
L 463.242021 194.454105 
L 463.465333 191.182236 
L 463.688644 191.182236 
L 463.911956 199.712497 
L 464.135268 195.964185 
L 464.358579 197.981145 
L 464.581891 196.972665 
L 464.805203 197.479545 
L 465.028514 197.479545 
L 465.251826 193.199196 
L 465.475138 200.720977 
L 465.698449 203.992845 
L 465.921761 200.720977 
L 466.145073 208.242757 
L 466.368384 200.720977 
L 466.591696 199.712497 
L 466.815008 200.720977 
L 467.038319 200.720977 
L 467.261631 200.219377 
L 467.484942 200.219377 
L 467.708254 196.471065 
L 467.931566 196.471065 
L 468.154877 180.920624 
L 468.378189 148.354122 
L 468.601501 159.122615 
L 469.048124 146.844042 
L 469.271436 146.844042 
L 469.718059 154.365823 
L 469.941371 154.365823 
L 470.164682 150.592354 
L 470.387994 150.592354 
L 470.611306 158.615735 
L 470.834617 154.867423 
L 471.057929 158.615735 
L 471.281241 158.114135 
L 471.504552 165.635915 
L 471.727864 161.380723 
L 471.951176 165.129035 
L 472.174487 164.627435 
L 472.397799 164.627435 
L 472.621111 164.120555 
L 472.844422 164.120555 
L 473.291046 172.149215 
L 473.514357 164.627435 
L 473.96098 173.157695 
L 474.184292 172.650815 
L 474.407604 175.922684 
L 474.630915 175.415804 
L 474.854227 172.149215 
L 475.077539 172.650815 
L 475.30085 168.902503 
L 475.970785 168.902503 
L 476.194097 176.424284 
L 476.417409 176.931164 
L 476.864032 169.409383 
L 477.087344 169.409383 
L 477.310655 169.910983 
L 477.533967 173.659295 
L 477.757279 169.409383 
L 477.98059 169.409383 
L 478.203902 173.157695 
L 478.427214 168.902503 
L 478.650525 168.400903 
L 478.873837 165.129035 
L 479.097149 168.902503 
L 479.32046 176.931164 
L 479.543772 169.409383 
L 479.767084 169.910983 
L 479.990395 174.166175 
L 480.213707 170.919463 
L 480.437019 179.951324 
L 480.66033 183.198036 
L 480.883642 178.948124 
L 481.106953 178.441244 
L 481.330265 178.948124 
L 481.553577 175.174655 
L 481.776888 174.667775 
L 482.223512 174.667775 
L 482.446823 175.676255 
L 482.670135 175.174655 
L 482.893447 178.948124 
L 483.116758 178.441244 
L 483.563382 182.189556 
L 483.786693 175.174655 
L 484.010005 175.174655 
L 484.233317 178.948124 
L 484.456628 174.667775 
L 484.903252 175.676255 
L 485.126563 182.696436 
L 485.349875 178.948124 
L 485.573187 179.449724 
L 485.796498 174.667775 
L 486.01981 174.667775 
L 486.243122 175.174655 
L 486.689745 175.174655 
L 486.913057 178.948124 
L 487.35968 170.919463 
L 487.582991 174.667775 
L 487.806303 174.667775 
L 488.029615 170.919463 
L 488.252926 175.174655 
L 488.476238 170.919463 
L 488.69955 171.426343 
L 488.922861 171.426343 
L 489.146173 171.927943 
L 489.369485 167.652875 
L 489.592796 168.154475 
L 489.816108 167.652875 
L 490.03942 164.406163 
L 490.486043 164.406163 
L 490.709355 168.656075 
L 491.155978 169.664555 
L 491.37929 169.664555 
L 491.602601 165.916243 
L 492.049225 165.916243 
L 492.272536 164.159735 
L 492.495848 170.673035 
L 492.71916 170.171435 
L 493.612406 170.171435 
L 493.835718 169.664555 
L 494.05903 171.179915 
L 494.505653 170.171435 
L 494.728964 174.446503 
L 494.952276 175.454983 
L 495.175588 174.446503 
L 495.398899 174.446503 
L 495.622211 170.673035 
L 495.845523 174.953383 
L 496.068834 174.446503 
L 496.292146 178.194815 
L 496.515458 173.944903 
L 496.738769 181.466684 
L 496.962081 177.186335 
L 497.185393 176.684735 
L 497.632016 170.171435 
L 497.855328 169.664555 
L 498.078639 170.171435 
L 498.301951 173.944903 
L 498.525263 173.944903 
L 498.748574 171.179915 
L 498.971886 170.171435 
L 499.195198 170.673035 
L 499.418509 170.171435 
L 499.641821 173.944903 
L 499.865133 169.664555 
L 500.088444 170.171435 
L 500.311756 169.664555 
L 500.535068 172.936423 
L 500.758379 168.656075 
L 500.981691 168.656075 
L 501.205003 168.154475 
L 501.428314 168.154475 
L 501.651626 165.414643 
L 501.874937 164.907763 
L 502.321561 172.936423 
L 502.991496 160.632695 
L 503.438119 168.154475 
L 503.661431 164.907763 
L 503.884742 168.656075 
L 504.331366 161.134295 
L 504.777989 160.131095 
L 505.001301 152.609314 
L 505.224612 156.382783 
L 505.447924 149.362602 
L 505.671236 149.864202 
L 505.894547 146.090734 
L 506.117859 154.119394 
L 506.787794 142.342422 
L 507.011106 142.849302 
L 507.234417 146.597614 
L 507.457729 139.577433 
L 507.681041 143.350902 
L 507.904352 138.568953 
L 508.127664 138.568953 
L 508.350975 146.090734 
L 508.574287 147.099214 
L 508.797599 150.371082 
L 509.02091 150.371082 
L 509.467534 148.861002 
L 509.690845 141.840822 
L 509.914157 145.087534 
L 510.137469 145.589134 
L 510.36078 141.840822 
L 510.584092 145.589134 
L 510.807404 142.342422 
L 511.030715 142.849302 
L 511.254027 141.840822 
L 511.477339 145.589134 
L 511.70065 138.067353 
L 511.923962 134.319041 
L 512.147274 134.820641 
L 512.370585 134.319041 
L 512.593897 137.565753 
L 512.817209 137.565753 
L 513.04052 140.832342 
L 513.487144 135.548793 
L 513.933767 137.565753 
L 514.157079 144.079054 
L 514.38039 144.079054 
L 514.603702 140.832342 
L 514.827014 144.079054 
L 515.050325 142.062094 
L 515.273637 142.563694 
L 515.496948 146.337162 
L 515.72026 138.815382 
L 516.390195 150.085474 
L 516.613507 142.563694 
L 516.836818 146.337162 
L 517.06013 145.835562 
L 517.283442 142.062094 
L 517.506753 150.085474 
L 517.953377 151.093954 
L 518.176688 148.354122 
L 518.4 152.609314 
L 518.4 152.609314 
" style="fill:none;stroke:#4c72b0;stroke-linecap:round;stroke-width:1.75;"/>
   </g>
   <g id="patch_3">
    <path d="M 72 356.4 
L 518.4 356.4 
" style="fill:none;"/>
   </g>
   <g id="patch_4">
    <path d="M 72 39.6 
L 518.4 39.6 
" style="fill:none;"/>
   </g>
   <g id="patch_5">
    <path d="M 72 356.4 
L 72 39.6 
" style="fill:none;"/>
   </g>
   <g id="patch_6">
    <path d="M 518.4 356.4 
L 518.4 39.6 
" style="fill:none;"/>
   </g>
   <g id="text_13">
    <!-- ag - -4.764480332803366 * c -->
    <defs>
     <path d="M 9.125 0 
L 9.125 10.6875 
L 18.65625 10.6875 
L 18.65625 0 
z
" id="LiberationSans-2e"/>
     <path d="M 26.765625 -20.75 
Q 22.21875 -20.75 18.703125 -19.8125 
Q 15.1875 -18.890625 12.6875 -17.15625 
Q 10.203125 -15.4375 8.640625 -13.03125 
Q 7.078125 -10.640625 6.390625 -7.71875 
L 15.234375 -6.453125 
Q 16.109375 -10.109375 19.109375 -12.078125 
Q 22.125 -14.0625 27 -14.0625 
Q 29.984375 -14.0625 32.421875 -13.234375 
Q 34.859375 -12.40625 36.5625 -10.5625 
Q 38.28125 -8.734375 39.203125 -5.796875 
Q 40.140625 -2.875 40.140625 1.3125 
L 40.140625 9.8125 
L 40.046875 9.8125 
Q 39.0625 7.8125 37.625 5.984375 
Q 36.1875 4.15625 34.109375 2.734375 
Q 32.03125 1.3125 29.296875 0.453125 
Q 26.5625 -0.390625 23.046875 -0.390625 
Q 18.015625 -0.390625 14.421875 1.296875 
Q 10.84375 2.984375 8.5625 6.34375 
Q 6.296875 9.71875 5.25 14.71875 
Q 4.203125 19.734375 4.203125 26.3125 
Q 4.203125 32.671875 5.25 37.75 
Q 6.296875 42.828125 8.65625 46.359375 
Q 11.03125 49.90625 14.8125 51.78125 
Q 18.609375 53.65625 24.03125 53.65625 
Q 29.640625 53.65625 33.765625 51.09375 
Q 37.890625 48.53125 40.140625 43.796875 
L 40.234375 43.796875 
Q 40.234375 45.015625 40.296875 46.53125 
Q 40.375 48.046875 40.453125 49.390625 
Q 40.53125 50.734375 40.625 51.703125 
Q 40.71875 52.6875 40.828125 52.828125 
L 49.171875 52.828125 
Q 49.125 52.390625 49.078125 51.34375 
Q 49.03125 50.296875 48.96875 48.828125 
Q 48.921875 47.359375 48.890625 45.578125 
Q 48.875 43.796875 48.875 41.890625 
L 48.875 1.515625 
Q 48.875 -9.578125 43.421875 -15.15625 
Q 37.984375 -20.75 26.765625 -20.75 
M 40.140625 26.421875 
Q 40.140625 31.9375 38.9375 35.859375 
Q 37.75 39.796875 35.796875 42.28125 
Q 33.84375 44.78125 31.328125 45.953125 
Q 28.8125 47.125 26.171875 47.125 
Q 22.796875 47.125 20.375 45.953125 
Q 17.96875 44.78125 16.375 42.265625 
Q 14.796875 39.75 14.03125 35.8125 
Q 13.28125 31.890625 13.28125 26.421875 
Q 13.28125 20.703125 14.03125 16.8125 
Q 14.796875 12.9375 16.359375 10.546875 
Q 17.921875 8.15625 20.3125 7.125 
Q 22.703125 6.109375 26.03125 6.109375 
Q 28.65625 6.109375 31.171875 7.21875 
Q 33.6875 8.34375 35.6875 10.78125 
Q 37.703125 13.234375 38.921875 17.09375 
Q 40.140625 20.953125 40.140625 26.421875 
" id="LiberationSans-67"/>
     <path d="M 13.421875 26.65625 
Q 13.421875 22.125 14.078125 18.3125 
Q 14.75 14.5 16.3125 11.734375 
Q 17.875 8.984375 20.4375 7.46875 
Q 23 5.953125 26.765625 5.953125 
Q 31.453125 5.953125 34.59375 8.484375 
Q 37.75 11.03125 38.484375 16.3125 
L 47.359375 15.71875 
Q 46.921875 12.453125 45.453125 9.421875 
Q 44 6.390625 41.484375 4.09375 
Q 38.96875 1.8125 35.34375 0.40625 
Q 31.734375 -0.984375 27 -0.984375 
Q 20.796875 -0.984375 16.453125 1.109375 
Q 12.109375 3.21875 9.390625 6.90625 
Q 6.6875 10.59375 5.46875 15.59375 
Q 4.25 20.609375 4.25 26.46875 
Q 4.25 31.78125 5.125 35.859375 
Q 6 39.9375 7.59375 42.984375 
Q 9.1875 46.046875 11.328125 48.125 
Q 13.484375 50.203125 15.984375 51.4375 
Q 18.5 52.6875 21.28125 53.25 
Q 24.078125 53.8125 26.90625 53.8125 
Q 31.34375 53.8125 34.8125 52.59375 
Q 38.28125 51.375 40.796875 49.25 
Q 43.3125 47.125 44.875 44.234375 
Q 46.4375 41.359375 47.078125 38.03125 
L 38.03125 37.359375 
Q 37.359375 41.75 34.5625 44.328125 
Q 31.78125 46.921875 26.65625 46.921875 
Q 22.90625 46.921875 20.390625 45.671875 
Q 17.875 44.4375 16.3125 41.921875 
Q 14.75 39.40625 14.078125 35.59375 
Q 13.421875 31.78125 13.421875 26.65625 
" id="LiberationSans-63"/>
     <path d="M 22.265625 54.390625 
L 35.15625 59.421875 
L 37.359375 52.984375 
L 23.578125 49.421875 
L 32.625 37.203125 
L 26.8125 33.6875 
L 19.484375 46.296875 
L 11.859375 33.796875 
L 6.0625 37.3125 
L 15.28125 49.421875 
L 1.609375 52.984375 
L 3.8125 59.515625 
L 16.84375 54.296875 
L 16.265625 68.796875 
L 22.90625 68.796875 
z
" id="LiberationSans-2a"/>
     <path d="M 20.21875 -0.984375 
Q 12.25 -0.984375 8.25 3.21875 
Q 4.25 7.421875 4.25 14.75 
Q 4.25 19.96875 6.21875 23.3125 
Q 8.203125 26.65625 11.390625 28.5625 
Q 14.59375 30.46875 18.6875 31.203125 
Q 22.796875 31.9375 27.046875 32.03125 
L 38.921875 32.234375 
L 38.921875 35.109375 
Q 38.921875 38.375 38.234375 40.671875 
Q 37.546875 42.96875 36.125 44.375 
Q 34.71875 45.796875 32.59375 46.453125 
Q 30.46875 47.125 27.59375 47.125 
Q 25.046875 47.125 23 46.75 
Q 20.953125 46.390625 19.4375 45.4375 
Q 17.921875 44.484375 16.984375 42.84375 
Q 16.0625 41.21875 15.765625 38.71875 
L 6.59375 39.546875 
Q 7.078125 42.671875 8.4375 45.28125 
Q 9.8125 47.90625 12.328125 49.796875 
Q 14.84375 51.703125 18.625 52.75 
Q 22.40625 53.8125 27.78125 53.8125 
Q 37.75 53.8125 42.765625 49.234375 
Q 47.796875 44.671875 47.796875 36.03125 
L 47.796875 13.28125 
Q 47.796875 9.375 48.828125 7.390625 
Q 49.859375 5.421875 52.734375 5.421875 
Q 53.46875 5.421875 54.203125 5.515625 
Q 54.9375 5.609375 55.609375 5.765625 
L 55.609375 0.296875 
Q 53.953125 -0.09375 52.3125 -0.28125 
Q 50.6875 -0.484375 48.828125 -0.484375 
Q 46.34375 -0.484375 44.5625 0.171875 
Q 42.78125 0.828125 41.65625 2.171875 
Q 40.53125 3.515625 39.9375 5.484375 
Q 39.359375 7.46875 39.203125 10.109375 
L 38.921875 10.109375 
Q 37.5 7.5625 35.8125 5.515625 
Q 34.125 3.46875 31.875 2.03125 
Q 29.640625 0.59375 26.78125 -0.1875 
Q 23.921875 -0.984375 20.21875 -0.984375 
M 22.21875 5.609375 
Q 26.421875 5.609375 29.5625 7.140625 
Q 32.71875 8.6875 34.78125 11.078125 
Q 36.859375 13.484375 37.890625 16.3125 
Q 38.921875 19.140625 38.921875 21.734375 
L 38.921875 26.078125 
L 29.296875 25.875 
Q 26.078125 25.828125 23.171875 25.40625 
Q 20.265625 25 18.0625 23.78125 
Q 15.875 22.5625 14.578125 20.359375 
Q 13.28125 18.171875 13.28125 14.59375 
Q 13.28125 10.296875 15.59375 7.953125 
Q 17.921875 5.609375 22.21875 5.609375 
" id="LiberationSans-61"/>
    </defs>
    <g style="fill:#262626;" transform="translate(217.4765625 34.6)scale(0.12 -0.12)">
     <use xlink:href="#LiberationSans-61"/>
     <use x="55.615234375" xlink:href="#LiberationSans-67"/>
     <use x="111.23046875" xlink:href="#LiberationSans-20"/>
     <use x="139.013671875" xlink:href="#LiberationSans-2d"/>
     <use x="172.314453125" xlink:href="#LiberationSans-20"/>
     <use x="200.09765625" xlink:href="#LiberationSans-2d"/>
     <use x="233.3984375" xlink:href="#LiberationSans-34"/>
     <use x="289.013671875" xlink:href="#LiberationSans-2e"/>
     <use x="316.796875" xlink:href="#LiberationSans-37"/>
     <use x="372.412109375" xlink:href="#LiberationSans-36"/>
     <use x="428.02734375" xlink:href="#LiberationSans-34"/>
     <use x="483.642578125" xlink:href="#LiberationSans-34"/>
     <use x="539.2578125" xlink:href="#LiberationSans-38"/>
     <use x="594.873046875" xlink:href="#LiberationSans-30"/>
     <use x="650.48828125" xlink:href="#LiberationSans-33"/>
     <use x="706.103515625" xlink:href="#LiberationSans-33"/>
     <use x="761.71875" xlink:href="#LiberationSans-32"/>
     <use x="817.333984375" xlink:href="#LiberationSans-38"/>
     <use x="872.94921875" xlink:href="#LiberationSans-30"/>
     <use x="928.564453125" xlink:href="#LiberationSans-33"/>
     <use x="984.1796875" xlink:href="#LiberationSans-33"/>
     <use x="1039.794921875" xlink:href="#LiberationSans-36"/>
     <use x="1095.41015625" xlink:href="#LiberationSans-36"/>
     <use x="1151.025390625" xlink:href="#LiberationSans-20"/>
     <use x="1178.80859375" xlink:href="#LiberationSans-2a"/>
     <use x="1217.724609375" xlink:href="#LiberationSans-20"/>
     <use x="1245.5078125" xlink:href="#LiberationSans-63"/>
    </g>
   </g>
  </g>
 </g>
 <defs>
  <clipPath id="p378013e00b">
   <rect height="316.8" width="446.4" x="72.0" y="39.6"/>
  </clipPath>
 </defs>
</svg>
