<?xml version="1.0" encoding="utf-8" standalone="no"?>
<!DOCTYPE svg PUBLIC "-//W3C//DTD SVG 1.1//EN"
  "http://www.w3.org/Graphics/SVG/1.1/DTD/svg11.dtd">
<!-- Created with matplotlib (http://matplotlib.org/) -->
<svg height="396pt" version="1.1" viewBox="0 0 576 396" width="576pt" xmlns="http://www.w3.org/2000/svg" xmlns:xlink="http://www.w3.org/1999/xlink">
 <defs>
  <style type="text/css">
*{stroke-linecap:butt;stroke-linejoin:round;stroke-miterlimit:100000;}
  </style>
 </defs>
 <g id="figure_1">
  <g id="patch_1">
   <path d="M 0 396 
L 576 396 
L 576 0 
L 0 0 
z
" style="fill:#ffffff;"/>
  </g>
  <g id="axes_1">
   <g id="patch_2">
    <path d="M 72 356.4 
L 518.4 356.4 
L 518.4 39.6 
L 72 39.6 
z
" style="fill:#eaeaf2;"/>
   </g>
   <g id="matplotlib.axis_1">
    <g id="xtick_1">
     <g id="line2d_1">
      <path clip-path="url(#pf44eaaa5aa)" d="M 72 356.4 
L 72 39.6 
" style="fill:none;stroke:#ffffff;stroke-linecap:round;"/>
     </g>
     <g id="line2d_2"/>
     <g id="line2d_3"/>
     <g id="text_1">
      <!-- 2016-09-29 14:19:00 -->
      <defs>
       <path d="M 5.03125 0 
L 5.03125 6.203125 
Q 7.515625 11.921875 11.109375 16.28125 
Q 14.703125 20.65625 18.65625 24.1875 
Q 22.609375 27.734375 26.484375 30.765625 
Q 30.375 33.796875 33.5 36.8125 
Q 36.625 39.84375 38.546875 43.15625 
Q 40.484375 46.484375 40.484375 50.6875 
Q 40.484375 53.609375 39.59375 55.828125 
Q 38.71875 58.0625 37.0625 59.5625 
Q 35.40625 61.078125 33.078125 61.828125 
Q 30.765625 62.59375 27.9375 62.59375 
Q 25.296875 62.59375 22.96875 61.859375 
Q 20.65625 61.140625 18.84375 59.671875 
Q 17.046875 58.203125 15.890625 56.03125 
Q 14.75 53.859375 14.40625 50.984375 
L 5.421875 51.8125 
Q 5.859375 55.515625 7.46875 58.78125 
Q 9.078125 62.0625 11.90625 64.53125 
Q 14.75 67 18.71875 68.40625 
Q 22.703125 69.828125 27.9375 69.828125 
Q 33.0625 69.828125 37.0625 68.609375 
Q 41.0625 67.390625 43.8125 64.984375 
Q 46.578125 62.59375 48.046875 59.078125 
Q 49.515625 55.5625 49.515625 50.984375 
Q 49.515625 47.515625 48.265625 44.390625 
Q 47.015625 41.265625 44.9375 38.421875 
Q 42.875 35.59375 40.140625 32.953125 
Q 37.40625 30.328125 34.421875 27.8125 
Q 31.453125 25.296875 28.421875 22.828125 
Q 25.390625 20.359375 22.71875 17.859375 
Q 20.0625 15.375 17.96875 12.8125 
Q 15.875 10.25 14.703125 7.46875 
L 50.59375 7.46875 
L 50.59375 0 
z
" id="LiberationSans-32"/>
       <path d="M 7.625 0 
L 7.625 7.46875 
L 25.140625 7.46875 
L 25.140625 60.40625 
L 9.625 49.3125 
L 9.625 57.625 
L 25.875 68.796875 
L 33.984375 68.796875 
L 33.984375 7.46875 
L 50.734375 7.46875 
L 50.734375 0 
z
" id="LiberationSans-31"/>
       <path d="M 51.703125 34.421875 
Q 51.703125 24.515625 49.828125 17.75 
Q 47.953125 10.984375 44.703125 6.8125 
Q 41.453125 2.640625 37.0625 0.828125 
Q 32.671875 -0.984375 27.6875 -0.984375 
Q 22.65625 -0.984375 18.3125 0.828125 
Q 13.96875 2.640625 10.765625 6.78125 
Q 7.5625 10.9375 5.734375 17.703125 
Q 3.90625 24.46875 3.90625 34.421875 
Q 3.90625 44.828125 5.734375 51.640625 
Q 7.5625 58.453125 10.78125 62.5 
Q 14.015625 66.546875 18.40625 68.1875 
Q 22.796875 69.828125 27.984375 69.828125 
Q 32.90625 69.828125 37.21875 68.1875 
Q 41.546875 66.546875 44.765625 62.5 
Q 48 58.453125 49.84375 51.640625 
Q 51.703125 44.828125 51.703125 34.421875 
M 42.78125 34.421875 
Q 42.78125 42.625 41.796875 48.0625 
Q 40.828125 53.515625 38.921875 56.765625 
Q 37.015625 60.015625 34.25 61.359375 
Q 31.5 62.703125 27.984375 62.703125 
Q 24.265625 62.703125 21.4375 61.328125 
Q 18.609375 59.96875 16.671875 56.71875 
Q 14.75 53.46875 13.765625 48.015625 
Q 12.796875 42.578125 12.796875 34.421875 
Q 12.796875 26.515625 13.796875 21.09375 
Q 14.796875 15.671875 16.71875 12.375 
Q 18.65625 9.078125 21.4375 7.640625 
Q 24.21875 6.203125 27.78125 6.203125 
Q 31.25 6.203125 34.03125 7.640625 
Q 36.8125 9.078125 38.734375 12.375 
Q 40.671875 15.671875 41.71875 21.09375 
Q 42.78125 26.515625 42.78125 34.421875 
" id="LiberationSans-30"/>
       <path d="M 50.875 35.796875 
Q 50.875 26.609375 49.140625 19.703125 
Q 47.40625 12.796875 44.1875 8.203125 
Q 40.96875 3.609375 36.34375 1.3125 
Q 31.734375 -0.984375 25.984375 -0.984375 
Q 22.015625 -0.984375 18.84375 -0.171875 
Q 15.671875 0.640625 13.171875 2.34375 
Q 10.6875 4.046875 8.921875 6.78125 
Q 7.171875 9.515625 6.109375 13.375 
L 14.5 14.703125 
Q 15.875 10.25 18.78125 8.171875 
Q 21.6875 6.109375 26.125 6.109375 
Q 29.6875 6.109375 32.640625 7.78125 
Q 35.59375 9.46875 37.671875 12.84375 
Q 39.75 16.21875 40.921875 21.296875 
Q 42.09375 26.375 42.1875 33.203125 
Q 41.15625 30.90625 39.375 29.09375 
Q 37.59375 27.296875 35.328125 26.046875 
Q 33.0625 24.8125 30.421875 24.140625 
Q 27.78125 23.484375 25.09375 23.484375 
Q 20.40625 23.484375 16.625 25.171875 
Q 12.84375 26.859375 10.203125 29.875 
Q 7.5625 32.90625 6.125 37.171875 
Q 4.6875 41.453125 4.6875 46.6875 
Q 4.6875 52 6.21875 56.296875 
Q 7.765625 60.59375 10.6875 63.59375 
Q 13.625 66.609375 17.890625 68.21875 
Q 22.171875 69.828125 27.59375 69.828125 
Q 39.0625 69.828125 44.96875 61.328125 
Q 50.875 52.828125 50.875 35.796875 
M 41.3125 44.28125 
Q 41.3125 48.09375 40.40625 51.453125 
Q 39.5 54.828125 37.71875 57.3125 
Q 35.9375 59.8125 33.328125 61.25 
Q 30.71875 62.703125 27.296875 62.703125 
Q 24.125 62.703125 21.578125 61.578125 
Q 19.046875 60.453125 17.28125 58.375 
Q 15.53125 56.296875 14.578125 53.3125 
Q 13.625 50.34375 13.625 46.6875 
Q 13.625 43.21875 14.46875 40.234375 
Q 15.328125 37.25 17.03125 35.078125 
Q 18.75 32.90625 21.28125 31.65625 
Q 23.828125 30.421875 27.203125 30.421875 
Q 29.640625 30.421875 32.15625 31.25 
Q 34.671875 32.078125 36.6875 33.78125 
Q 38.71875 35.5 40.015625 38.109375 
Q 41.3125 40.71875 41.3125 44.28125 
" id="LiberationSans-39"/>
       <path d="M 9.125 42.71875 
L 9.125 52.828125 
L 18.65625 52.828125 
L 18.65625 42.71875 
z
M 9.125 0 
L 9.125 10.109375 
L 18.65625 10.109375 
L 18.65625 0 
z
" id="LiberationSans-3a"/>
       <path d="M 43.015625 15.578125 
L 43.015625 0 
L 34.71875 0 
L 34.71875 15.578125 
L 2.296875 15.578125 
L 2.296875 22.40625 
L 33.796875 68.796875 
L 43.015625 68.796875 
L 43.015625 22.515625 
L 52.6875 22.515625 
L 52.6875 15.578125 
z
M 34.71875 58.890625 
Q 34.625 58.640625 34.234375 57.9375 
Q 33.84375 57.234375 33.34375 56.34375 
Q 32.859375 55.46875 32.34375 54.5625 
Q 31.84375 53.65625 31.453125 53.078125 
L 13.8125 27.09375 
Q 13.578125 26.703125 13.109375 26.0625 
Q 12.640625 25.4375 12.15625 24.78125 
Q 11.671875 24.125 11.171875 23.484375 
Q 10.6875 22.859375 10.40625 22.515625 
L 34.71875 22.515625 
z
" id="LiberationSans-34"/>
       <path id="LiberationSans-20"/>
       <path d="M 4.4375 22.65625 
L 4.4375 30.46875 
L 28.859375 30.46875 
L 28.859375 22.65625 
z
" id="LiberationSans-2d"/>
       <path d="M 51.21875 22.515625 
Q 51.21875 17.328125 49.78125 13 
Q 48.34375 8.6875 45.53125 5.578125 
Q 42.71875 2.484375 38.5625 0.75 
Q 34.421875 -0.984375 29 -0.984375 
Q 23 -0.984375 18.5 1.3125 
Q 14.015625 3.609375 11.03125 7.921875 
Q 8.0625 12.25 6.5625 18.53125 
Q 5.078125 24.8125 5.078125 32.8125 
Q 5.078125 42 6.765625 48.921875 
Q 8.453125 55.859375 11.625 60.5 
Q 14.796875 65.140625 19.359375 67.484375 
Q 23.921875 69.828125 29.6875 69.828125 
Q 33.203125 69.828125 36.28125 69.09375 
Q 39.359375 68.359375 41.875 66.71875 
Q 44.390625 65.09375 46.28125 62.40625 
Q 48.1875 59.71875 49.3125 55.8125 
L 40.921875 54.296875 
Q 39.546875 58.734375 36.546875 60.71875 
Q 33.546875 62.703125 29.59375 62.703125 
Q 25.984375 62.703125 23.046875 60.984375 
Q 20.125 59.28125 18.0625 55.875 
Q 16.015625 52.484375 14.90625 47.359375 
Q 13.8125 42.234375 13.8125 35.40625 
Q 16.21875 39.84375 20.5625 42.15625 
Q 24.90625 44.484375 30.515625 44.484375 
Q 35.203125 44.484375 39.015625 42.96875 
Q 42.828125 41.453125 45.53125 38.59375 
Q 48.25 35.75 49.734375 31.671875 
Q 51.21875 27.59375 51.21875 22.515625 
M 42.28125 22.125 
Q 42.28125 25.6875 41.40625 28.5625 
Q 40.53125 31.453125 38.765625 33.46875 
Q 37.015625 35.5 34.421875 36.59375 
Q 31.84375 37.703125 28.421875 37.703125 
Q 26.03125 37.703125 23.578125 36.984375 
Q 21.140625 36.28125 19.15625 34.6875 
Q 17.1875 33.109375 15.9375 30.515625 
Q 14.703125 27.9375 14.703125 24.21875 
Q 14.703125 20.40625 15.671875 17.109375 
Q 16.65625 13.8125 18.484375 11.375 
Q 20.3125 8.9375 22.890625 7.515625 
Q 25.484375 6.109375 28.71875 6.109375 
Q 31.890625 6.109375 34.40625 7.203125 
Q 36.921875 8.296875 38.671875 10.375 
Q 40.4375 12.453125 41.359375 15.421875 
Q 42.28125 18.40625 42.28125 22.125 
" id="LiberationSans-36"/>
      </defs>
      <g style="fill:#262626;" transform="translate(25.5765625 370.646875)scale(0.1 -0.1)">
       <use xlink:href="#LiberationSans-32"/>
       <use x="55.615234375" xlink:href="#LiberationSans-30"/>
       <use x="111.23046875" xlink:href="#LiberationSans-31"/>
       <use x="166.845703125" xlink:href="#LiberationSans-36"/>
       <use x="222.4609375" xlink:href="#LiberationSans-2d"/>
       <use x="255.76171875" xlink:href="#LiberationSans-30"/>
       <use x="311.376953125" xlink:href="#LiberationSans-39"/>
       <use x="366.9921875" xlink:href="#LiberationSans-2d"/>
       <use x="400.29296875" xlink:href="#LiberationSans-32"/>
       <use x="455.908203125" xlink:href="#LiberationSans-39"/>
       <use x="511.5234375" xlink:href="#LiberationSans-20"/>
       <use x="539.306640625" xlink:href="#LiberationSans-31"/>
       <use x="594.921875" xlink:href="#LiberationSans-34"/>
       <use x="650.537109375" xlink:href="#LiberationSans-3a"/>
       <use x="678.3203125" xlink:href="#LiberationSans-31"/>
       <use x="733.935546875" xlink:href="#LiberationSans-39"/>
       <use x="789.55078125" xlink:href="#LiberationSans-3a"/>
       <use x="817.333984375" xlink:href="#LiberationSans-30"/>
       <use x="872.94921875" xlink:href="#LiberationSans-30"/>
      </g>
     </g>
    </g>
    <g id="xtick_2">
     <g id="line2d_4">
      <path clip-path="url(#pf44eaaa5aa)" d="M 183.655828 356.4 
L 183.655828 39.6 
" style="fill:none;stroke:#ffffff;stroke-linecap:round;"/>
     </g>
     <g id="line2d_5"/>
     <g id="line2d_6"/>
     <g id="text_2">
      <!-- 2016-10-10 11:07:00 -->
      <defs>
       <path d="M 50.59375 61.671875 
Q 45.40625 53.765625 41.0625 46.453125 
Q 36.71875 39.15625 33.59375 31.75 
Q 30.46875 24.359375 28.734375 16.578125 
Q 27 8.796875 27 0 
L 17.828125 0 
Q 17.828125 8.25 19.78125 16.1875 
Q 21.734375 24.125 25.046875 31.765625 
Q 28.375 39.40625 32.765625 46.78125 
Q 37.15625 54.15625 42.09375 61.328125 
L 5.125 61.328125 
L 5.125 68.796875 
L 50.59375 68.796875 
z
" id="LiberationSans-37"/>
      </defs>
      <g style="fill:#262626;" transform="translate(137.232390414 370.646875)scale(0.1 -0.1)">
       <use xlink:href="#LiberationSans-32"/>
       <use x="55.615234375" xlink:href="#LiberationSans-30"/>
       <use x="111.23046875" xlink:href="#LiberationSans-31"/>
       <use x="166.845703125" xlink:href="#LiberationSans-36"/>
       <use x="222.4609375" xlink:href="#LiberationSans-2d"/>
       <use x="255.76171875" xlink:href="#LiberationSans-31"/>
       <use x="311.376953125" xlink:href="#LiberationSans-30"/>
       <use x="366.9921875" xlink:href="#LiberationSans-2d"/>
       <use x="400.29296875" xlink:href="#LiberationSans-31"/>
       <use x="455.908203125" xlink:href="#LiberationSans-30"/>
       <use x="511.5234375" xlink:href="#LiberationSans-20"/>
       <use x="539.306640625" xlink:href="#LiberationSans-31"/>
       <use x="594.921875" xlink:href="#LiberationSans-31"/>
       <use x="650.537109375" xlink:href="#LiberationSans-3a"/>
       <use x="678.3203125" xlink:href="#LiberationSans-30"/>
       <use x="733.935546875" xlink:href="#LiberationSans-37"/>
       <use x="789.55078125" xlink:href="#LiberationSans-3a"/>
       <use x="817.333984375" xlink:href="#LiberationSans-30"/>
       <use x="872.94921875" xlink:href="#LiberationSans-30"/>
      </g>
     </g>
    </g>
    <g id="xtick_3">
     <g id="line2d_7">
      <path clip-path="url(#pf44eaaa5aa)" d="M 295.311656 356.4 
L 295.311656 39.6 
" style="fill:none;stroke:#ffffff;stroke-linecap:round;"/>
     </g>
     <g id="line2d_8"/>
     <g id="line2d_9"/>
     <g id="text_3">
      <!-- 2016-10-11 21:39:00 -->
      <defs>
       <path d="M 51.21875 19 
Q 51.21875 14.265625 49.671875 10.546875 
Q 48.140625 6.84375 45.1875 4.265625 
Q 42.234375 1.703125 37.859375 0.359375 
Q 33.5 -0.984375 27.875 -0.984375 
Q 21.484375 -0.984375 17.109375 0.609375 
Q 12.75 2.203125 9.90625 4.8125 
Q 7.078125 7.421875 5.65625 10.765625 
Q 4.25 14.109375 3.8125 17.671875 
L 12.890625 18.5 
Q 13.28125 15.765625 14.328125 13.515625 
Q 15.375 11.28125 17.1875 9.671875 
Q 19 8.0625 21.625 7.171875 
Q 24.265625 6.296875 27.875 6.296875 
Q 34.515625 6.296875 38.296875 9.5625 
Q 42.09375 12.84375 42.09375 19.28125 
Q 42.09375 23.09375 40.40625 25.40625 
Q 38.71875 27.734375 36.203125 29.03125 
Q 33.6875 30.328125 30.734375 30.765625 
Q 27.78125 31.203125 25.296875 31.203125 
L 20.3125 31.203125 
L 20.3125 38.8125 
L 25.09375 38.8125 
Q 27.59375 38.8125 30.265625 39.328125 
Q 32.953125 39.84375 35.171875 41.1875 
Q 37.40625 42.53125 38.84375 44.828125 
Q 40.28125 47.125 40.28125 50.6875 
Q 40.28125 56.203125 37.03125 59.390625 
Q 33.796875 62.59375 27.390625 62.59375 
Q 21.578125 62.59375 17.984375 59.609375 
Q 14.40625 56.640625 13.8125 51.21875 
L 4.984375 51.90625 
Q 5.515625 56.453125 7.46875 59.8125 
Q 9.421875 63.1875 12.421875 65.40625 
Q 15.4375 67.625 19.28125 68.71875 
Q 23.140625 69.828125 27.484375 69.828125 
Q 33.25 69.828125 37.390625 68.375 
Q 41.546875 66.9375 44.1875 64.46875 
Q 46.828125 62.015625 48.0625 58.6875 
Q 49.3125 55.375 49.3125 51.609375 
Q 49.3125 48.578125 48.484375 45.9375 
Q 47.65625 43.3125 45.890625 41.203125 
Q 44.140625 39.109375 41.421875 37.59375 
Q 38.71875 36.078125 34.90625 35.296875 
L 34.90625 35.109375 
Q 39.0625 34.671875 42.140625 33.21875 
Q 45.21875 31.78125 47.21875 29.625 
Q 49.21875 27.484375 50.21875 24.75 
Q 51.21875 22.015625 51.21875 19 
" id="LiberationSans-33"/>
      </defs>
      <g style="fill:#262626;" transform="translate(248.888218328 370.646875)scale(0.1 -0.1)">
       <use xlink:href="#LiberationSans-32"/>
       <use x="55.615234375" xlink:href="#LiberationSans-30"/>
       <use x="111.23046875" xlink:href="#LiberationSans-31"/>
       <use x="166.845703125" xlink:href="#LiberationSans-36"/>
       <use x="222.4609375" xlink:href="#LiberationSans-2d"/>
       <use x="255.76171875" xlink:href="#LiberationSans-31"/>
       <use x="311.376953125" xlink:href="#LiberationSans-30"/>
       <use x="366.9921875" xlink:href="#LiberationSans-2d"/>
       <use x="400.29296875" xlink:href="#LiberationSans-31"/>
       <use x="455.908203125" xlink:href="#LiberationSans-31"/>
       <use x="511.5234375" xlink:href="#LiberationSans-20"/>
       <use x="539.306640625" xlink:href="#LiberationSans-32"/>
       <use x="594.921875" xlink:href="#LiberationSans-31"/>
       <use x="650.537109375" xlink:href="#LiberationSans-3a"/>
       <use x="678.3203125" xlink:href="#LiberationSans-33"/>
       <use x="733.935546875" xlink:href="#LiberationSans-39"/>
       <use x="789.55078125" xlink:href="#LiberationSans-3a"/>
       <use x="817.333984375" xlink:href="#LiberationSans-30"/>
       <use x="872.94921875" xlink:href="#LiberationSans-30"/>
      </g>
     </g>
    </g>
    <g id="xtick_4">
     <g id="line2d_10">
      <path clip-path="url(#pf44eaaa5aa)" d="M 406.967484 356.4 
L 406.967484 39.6 
" style="fill:none;stroke:#ffffff;stroke-linecap:round;"/>
     </g>
     <g id="line2d_11"/>
     <g id="line2d_12"/>
     <g id="text_4">
      <!-- 2016-10-13 10:12:00 -->
      <g style="fill:#262626;" transform="translate(360.544046242 370.646875)scale(0.1 -0.1)">
       <use xlink:href="#LiberationSans-32"/>
       <use x="55.615234375" xlink:href="#LiberationSans-30"/>
       <use x="111.23046875" xlink:href="#LiberationSans-31"/>
       <use x="166.845703125" xlink:href="#LiberationSans-36"/>
       <use x="222.4609375" xlink:href="#LiberationSans-2d"/>
       <use x="255.76171875" xlink:href="#LiberationSans-31"/>
       <use x="311.376953125" xlink:href="#LiberationSans-30"/>
       <use x="366.9921875" xlink:href="#LiberationSans-2d"/>
       <use x="400.29296875" xlink:href="#LiberationSans-31"/>
       <use x="455.908203125" xlink:href="#LiberationSans-33"/>
       <use x="511.5234375" xlink:href="#LiberationSans-20"/>
       <use x="539.306640625" xlink:href="#LiberationSans-31"/>
       <use x="594.921875" xlink:href="#LiberationSans-30"/>
       <use x="650.537109375" xlink:href="#LiberationSans-3a"/>
       <use x="678.3203125" xlink:href="#LiberationSans-31"/>
       <use x="733.935546875" xlink:href="#LiberationSans-32"/>
       <use x="789.55078125" xlink:href="#LiberationSans-3a"/>
       <use x="817.333984375" xlink:href="#LiberationSans-30"/>
       <use x="872.94921875" xlink:href="#LiberationSans-30"/>
      </g>
     </g>
    </g>
    <g id="text_5">
     <!-- time -->
     <defs>
      <path d="M 13.484375 24.5625 
Q 13.484375 20.40625 14.328125 16.90625 
Q 15.1875 13.421875 16.96875 10.90625 
Q 18.75 8.40625 21.53125 7 
Q 24.3125 5.609375 28.21875 5.609375 
Q 33.9375 5.609375 37.375 7.90625 
Q 40.828125 10.203125 42.046875 13.71875 
L 49.75 11.53125 
Q 48.921875 9.328125 47.4375 7.109375 
Q 45.953125 4.890625 43.453125 3.09375 
Q 40.96875 1.3125 37.234375 0.15625 
Q 33.5 -0.984375 28.21875 -0.984375 
Q 16.5 -0.984375 10.375 6 
Q 4.25 12.984375 4.25 26.765625 
Q 4.25 34.1875 6.09375 39.328125 
Q 7.953125 44.484375 11.171875 47.703125 
Q 14.40625 50.921875 18.703125 52.359375 
Q 23 53.8125 27.875 53.8125 
Q 34.515625 53.8125 38.984375 51.65625 
Q 43.453125 49.515625 46.15625 45.71875 
Q 48.875 41.9375 50.015625 36.8125 
Q 51.171875 31.6875 51.171875 25.734375 
L 51.171875 24.5625 
z
M 42.09375 31.296875 
Q 41.359375 39.65625 37.84375 43.484375 
Q 34.328125 47.3125 27.734375 47.3125 
Q 25.53125 47.3125 23.109375 46.609375 
Q 20.703125 45.90625 18.65625 44.09375 
Q 16.609375 42.28125 15.1875 39.171875 
Q 13.765625 36.078125 13.578125 31.296875 
z
" id="LiberationSans-65"/>
      <path d="M 6.6875 64.0625 
L 6.6875 72.46875 
L 15.484375 72.46875 
L 15.484375 64.0625 
z
M 6.6875 0 
L 6.6875 52.828125 
L 15.484375 52.828125 
L 15.484375 0 
z
" id="LiberationSans-69"/>
      <path d="M 27.046875 0.390625 
Q 25.046875 -0.140625 22.96875 -0.453125 
Q 20.90625 -0.78125 18.171875 -0.78125 
Q 7.625 -0.78125 7.625 11.1875 
L 7.625 46.4375 
L 1.515625 46.4375 
L 1.515625 52.828125 
L 7.953125 52.828125 
L 10.546875 64.65625 
L 16.40625 64.65625 
L 16.40625 52.828125 
L 26.171875 52.828125 
L 26.171875 46.4375 
L 16.40625 46.4375 
L 16.40625 13.09375 
Q 16.40625 9.28125 17.640625 7.734375 
Q 18.890625 6.203125 21.96875 6.203125 
Q 23.25 6.203125 24.4375 6.390625 
Q 25.640625 6.59375 27.046875 6.890625 
z
" id="LiberationSans-74"/>
      <path d="M 37.5 0 
L 37.5 33.5 
Q 37.5 37.359375 37.015625 39.9375 
Q 36.53125 42.53125 35.375 44.109375 
Q 34.234375 45.703125 32.375 46.359375 
Q 30.515625 47.015625 27.828125 47.015625 
Q 25.046875 47.015625 22.796875 45.921875 
Q 20.5625 44.828125 18.96875 42.75 
Q 17.390625 40.671875 16.53125 37.625 
Q 15.671875 34.578125 15.671875 30.609375 
L 15.671875 0 
L 6.9375 0 
L 6.9375 41.546875 
Q 6.9375 43.21875 6.90625 45.046875 
Q 6.890625 46.875 6.828125 48.5 
Q 6.78125 50.140625 6.734375 51.3125 
Q 6.6875 52.484375 6.640625 52.828125 
L 14.9375 52.828125 
Q 14.984375 52.59375 15.03125 51.515625 
Q 15.09375 50.4375 15.15625 49.046875 
Q 15.234375 47.65625 15.28125 46.21875 
Q 15.328125 44.78125 15.328125 43.796875 
L 15.484375 43.796875 
Q 16.65625 46.09375 18.015625 47.953125 
Q 19.390625 49.8125 21.21875 51.09375 
Q 23.046875 52.390625 25.40625 53.09375 
Q 27.78125 53.8125 30.90625 53.8125 
Q 36.921875 53.8125 40.40625 51.421875 
Q 43.890625 49.03125 45.265625 43.796875 
L 45.40625 43.796875 
Q 46.578125 46.09375 48.046875 47.953125 
Q 49.515625 49.8125 51.46875 51.09375 
Q 53.421875 52.390625 55.859375 53.09375 
Q 58.296875 53.8125 61.421875 53.8125 
Q 65.4375 53.8125 68.328125 52.734375 
Q 71.234375 51.65625 73.09375 49.40625 
Q 74.953125 47.171875 75.828125 43.625 
Q 76.703125 40.09375 76.703125 35.203125 
L 76.703125 0 
L 68.015625 0 
L 68.015625 33.5 
Q 68.015625 37.359375 67.53125 39.9375 
Q 67.046875 42.53125 65.890625 44.109375 
Q 64.75 45.703125 62.890625 46.359375 
Q 61.03125 47.015625 58.34375 47.015625 
Q 55.5625 47.015625 53.3125 45.96875 
Q 51.078125 44.921875 49.484375 42.875 
Q 47.90625 40.828125 47.046875 37.75 
Q 46.1875 34.671875 46.1875 30.609375 
L 46.1875 0 
z
" id="LiberationSans-6d"/>
     </defs>
     <g style="fill:#262626;" transform="translate(284.81015625 385.6934375)scale(0.11 -0.11)">
      <use xlink:href="#LiberationSans-74"/>
      <use x="27.783203125" xlink:href="#LiberationSans-69"/>
      <use x="50.0" xlink:href="#LiberationSans-6d"/>
      <use x="133.30078125" xlink:href="#LiberationSans-65"/>
     </g>
    </g>
   </g>
   <g id="matplotlib.axis_2">
    <g id="ytick_1">
     <g id="line2d_13">
      <path clip-path="url(#pf44eaaa5aa)" d="M 72 356.4 
L 518.4 356.4 
" style="fill:none;stroke:#ffffff;stroke-linecap:round;"/>
     </g>
     <g id="line2d_14"/>
     <g id="line2d_15"/>
     <g id="text_6">
      <!-- 0 -->
      <g style="fill:#262626;" transform="translate(59.4390625 358.9859375)scale(0.1 -0.1)">
       <use xlink:href="#LiberationSans-30"/>
      </g>
     </g>
    </g>
    <g id="ytick_2">
     <g id="line2d_16">
      <path clip-path="url(#pf44eaaa5aa)" d="M 72 303.6 
L 518.4 303.6 
" style="fill:none;stroke:#ffffff;stroke-linecap:round;"/>
     </g>
     <g id="line2d_17"/>
     <g id="line2d_18"/>
     <g id="text_7">
      <!-- 100 -->
      <g style="fill:#262626;" transform="translate(48.3171875 306.1859375)scale(0.1 -0.1)">
       <use xlink:href="#LiberationSans-31"/>
       <use x="55.615234375" xlink:href="#LiberationSans-30"/>
       <use x="111.23046875" xlink:href="#LiberationSans-30"/>
      </g>
     </g>
    </g>
    <g id="ytick_3">
     <g id="line2d_19">
      <path clip-path="url(#pf44eaaa5aa)" d="M 72 250.8 
L 518.4 250.8 
" style="fill:none;stroke:#ffffff;stroke-linecap:round;"/>
     </g>
     <g id="line2d_20"/>
     <g id="line2d_21"/>
     <g id="text_8">
      <!-- 200 -->
      <g style="fill:#262626;" transform="translate(48.3171875 253.3859375)scale(0.1 -0.1)">
       <use xlink:href="#LiberationSans-32"/>
       <use x="55.615234375" xlink:href="#LiberationSans-30"/>
       <use x="111.23046875" xlink:href="#LiberationSans-30"/>
      </g>
     </g>
    </g>
    <g id="ytick_4">
     <g id="line2d_22">
      <path clip-path="url(#pf44eaaa5aa)" d="M 72 198 
L 518.4 198 
" style="fill:none;stroke:#ffffff;stroke-linecap:round;"/>
     </g>
     <g id="line2d_23"/>
     <g id="line2d_24"/>
     <g id="text_9">
      <!-- 300 -->
      <g style="fill:#262626;" transform="translate(48.3171875 200.5859375)scale(0.1 -0.1)">
       <use xlink:href="#LiberationSans-33"/>
       <use x="55.615234375" xlink:href="#LiberationSans-30"/>
       <use x="111.23046875" xlink:href="#LiberationSans-30"/>
      </g>
     </g>
    </g>
    <g id="ytick_5">
     <g id="line2d_25">
      <path clip-path="url(#pf44eaaa5aa)" d="M 72 145.2 
L 518.4 145.2 
" style="fill:none;stroke:#ffffff;stroke-linecap:round;"/>
     </g>
     <g id="line2d_26"/>
     <g id="line2d_27"/>
     <g id="text_10">
      <!-- 400 -->
      <g style="fill:#262626;" transform="translate(48.3171875 147.7859375)scale(0.1 -0.1)">
       <use xlink:href="#LiberationSans-34"/>
       <use x="55.615234375" xlink:href="#LiberationSans-30"/>
       <use x="111.23046875" xlink:href="#LiberationSans-30"/>
      </g>
     </g>
    </g>
    <g id="ytick_6">
     <g id="line2d_28">
      <path clip-path="url(#pf44eaaa5aa)" d="M 72 92.4 
L 518.4 92.4 
" style="fill:none;stroke:#ffffff;stroke-linecap:round;"/>
     </g>
     <g id="line2d_29"/>
     <g id="line2d_30"/>
     <g id="text_11">
      <!-- 500 -->
      <defs>
       <path d="M 51.421875 22.40625 
Q 51.421875 17.234375 49.859375 12.9375 
Q 48.296875 8.640625 45.21875 5.53125 
Q 42.140625 2.4375 37.578125 0.71875 
Q 33.015625 -0.984375 27 -0.984375 
Q 21.578125 -0.984375 17.546875 0.28125 
Q 13.53125 1.5625 10.734375 3.78125 
Q 7.953125 6 6.3125 8.984375 
Q 4.6875 11.96875 4 15.375 
L 12.890625 16.40625 
Q 13.421875 14.453125 14.390625 12.625 
Q 15.375 10.796875 17.0625 9.34375 
Q 18.75 7.90625 21.21875 7.046875 
Q 23.6875 6.203125 27.203125 6.203125 
Q 30.609375 6.203125 33.390625 7.25 
Q 36.1875 8.296875 38.15625 10.34375 
Q 40.140625 12.40625 41.203125 15.375 
Q 42.28125 18.359375 42.28125 22.21875 
Q 42.28125 25.390625 41.25 28.046875 
Q 40.234375 30.71875 38.328125 32.640625 
Q 36.421875 34.578125 33.65625 35.640625 
Q 30.90625 36.71875 27.390625 36.71875 
Q 25.203125 36.71875 23.34375 36.328125 
Q 21.484375 35.9375 19.890625 35.25 
Q 18.3125 34.578125 17.015625 33.671875 
Q 15.71875 32.765625 14.59375 31.78125 
L 6 31.78125 
L 8.296875 68.796875 
L 47.40625 68.796875 
L 47.40625 61.328125 
L 16.3125 61.328125 
L 14.984375 39.5 
Q 17.328125 41.3125 20.84375 42.59375 
Q 24.359375 43.890625 29.203125 43.890625 
Q 34.328125 43.890625 38.421875 42.328125 
Q 42.53125 40.765625 45.40625 37.90625 
Q 48.296875 35.0625 49.859375 31.109375 
Q 51.421875 27.15625 51.421875 22.40625 
" id="LiberationSans-35"/>
      </defs>
      <g style="fill:#262626;" transform="translate(48.3171875 94.9859375)scale(0.1 -0.1)">
       <use xlink:href="#LiberationSans-35"/>
       <use x="55.615234375" xlink:href="#LiberationSans-30"/>
       <use x="111.23046875" xlink:href="#LiberationSans-30"/>
      </g>
     </g>
    </g>
    <g id="ytick_7">
     <g id="line2d_31">
      <path clip-path="url(#pf44eaaa5aa)" d="M 72 39.6 
L 518.4 39.6 
" style="fill:none;stroke:#ffffff;stroke-linecap:round;"/>
     </g>
     <g id="line2d_32"/>
     <g id="line2d_33"/>
     <g id="text_12">
      <!-- 600 -->
      <g style="fill:#262626;" transform="translate(48.3171875 42.1859375)scale(0.1 -0.1)">
       <use xlink:href="#LiberationSans-36"/>
       <use x="55.615234375" xlink:href="#LiberationSans-30"/>
       <use x="111.23046875" xlink:href="#LiberationSans-30"/>
      </g>
     </g>
    </g>
   </g>
   <g id="line2d_34">
    <path clip-path="url(#pf44eaaa5aa)" d="M 72 138.294034 
L 72.223312 142.870282 
L 72.446623 134.973974 
L 72.669935 139.985891 
L 72.893247 141.242081 
L 73.116558 143.541589 
L 73.33987 143.111201 
L 73.563182 140.83446 
L 74.009805 149.55129 
L 74.233117 140.83446 
L 74.456428 148.702721 
L 74.903052 139.985891 
L 75.572986 154.907171 
L 76.01961 182.880611 
L 76.242921 181.016771 
L 76.466233 183.901162 
L 76.689545 190.754152 
L 76.912856 190.754152 
L 77.136168 182.272961 
L 77.35948 191.012558 
L 77.582791 192.876398 
L 77.806103 197.022258 
L 78.029415 196.609358 
L 78.252726 196.609358 
L 78.476038 208.038596 
L 78.69935 209.902436 
L 78.922661 208.038596 
L 79.145973 208.038596 
L 79.369285 215.086335 
L 79.592596 213.635396 
L 79.815908 222.546975 
L 80.03922 223.975147 
L 80.262531 216.106886 
L 80.485843 213.222495 
L 80.709155 207.625695 
L 80.932466 190.754152 
L 81.155778 188.477411 
L 81.37909 192.033109 
L 81.602401 189.3207 
L 81.825713 193.896949 
L 82.049025 213.807378 
L 82.495648 210.682069 
L 82.718959 207.36201 
L 82.942271 199.90665 
L 83.165583 199.321766 
L 83.388894 190.57689 
L 83.612206 190.57689 
L 83.835518 194.745518 
L 84.058829 192.44601 
L 84.282141 198.473198 
L 84.505453 192.44601 
L 84.728764 190.57689 
L 84.952076 196.609358 
L 85.175388 197.452646 
L 85.398699 208.038596 
L 85.845323 193.461281 
L 86.068634 191.597441 
L 86.515258 213.130792 
L 86.738569 208.554543 
L 86.961881 200.50902 
L 87.185193 198.209512 
L 87.408504 201.529571 
L 87.631816 200.50902 
L 87.855128 212.95881 
L 88.078439 208.382561 
L 88.301751 214.409749 
L 88.525063 206.954389 
L 88.748374 205.49817 
L 88.971686 205.085269 
L 89.418309 198.64518 
L 89.641621 203.63433 
L 89.864932 203.221429 
L 90.088244 200.921921 
L 90.311556 209.23113 
L 90.534867 210.510086 
L 90.758179 209.23113 
L 90.981491 215.671218 
L 91.204802 207.36201 
L 91.428114 212.373926 
L 91.651426 211.938258 
L 91.874737 210.510086 
L 92.098049 202.613778 
L 92.321361 205.933838 
L 92.544672 200.337038 
L 92.767984 202.206158 
L 92.991296 207.797678 
L 93.214607 204.654881 
L 93.437919 203.221429 
L 93.661231 207.36201 
L 93.884542 208.818229 
L 94.107854 211.530638 
L 94.331166 211.09497 
L 94.554477 213.394478 
L 94.777789 205.49817 
L 95.001101 201.77049 
L 95.224412 203.049446 
L 95.671036 196.001707 
L 95.894347 199.321766 
L 96.117659 197.452646 
L 96.34097 197.452646 
L 96.564282 200.749938 
L 96.787594 200.337038 
L 97.010905 198.03753 
L 97.234217 194.30985 
L 97.457529 209.661518 
L 97.68084 206.954389 
L 97.904152 208.382561 
L 98.350775 200.50902 
L 98.574087 208.818229 
L 98.797399 204.654881 
L 99.02071 203.221429 
L 99.244022 204.654881 
L 99.467334 197.366223 
L 99.690645 176.784487 
L 99.913957 177.197388 
L 100.137269 170.344398 
L 100.583892 170.344398 
L 100.807204 173.051527 
L 101.030515 170.752019 
L 101.253827 176.348819 
L 101.477139 177.197388 
L 101.70045 179.496896 
L 101.923762 175.328268 
L 102.147074 179.061228 
L 102.370385 177.197388 
L 102.593697 176.348819 
L 102.817009 176.348819 
L 103.04032 178.648327 
L 103.263632 185.501317 
L 103.486943 185.501317 
L 103.710255 187.800825 
L 103.933567 187.365157 
L 104.156878 189.228997 
L 104.38019 195.846348 
L 104.603502 196.689637 
L 105.050125 205.606496 
L 105.273437 198.989145 
L 105.496748 201.701554 
L 105.72006 206.449785 
L 106.166683 200.422597 
L 106.613307 204.585945 
L 106.836618 204.585945 
L 107.283242 200.858265 
L 107.506553 193.805245 
L 107.729865 197.538205 
L 107.953177 197.538205 
L 108.176488 193.805245 
L 108.3998 191.941405 
L 108.623112 196.517654 
L 108.846423 181.188754 
L 109.069735 187.193174 
L 109.293047 180.340185 
L 109.516358 180.340185 
L 109.73967 184.916434 
L 109.962981 184.480765 
L 110.186293 178.476345 
L 110.409605 180.340185 
L 110.632916 173.464428 
L 110.856228 176.612505 
L 111.07954 176.784487 
L 111.302851 181.269033 
L 111.526163 188.14479 
L 111.972786 180.425744 
L 112.196098 183.132873 
L 112.41941 200.766561 
L 112.642721 203.650953 
L 112.866033 197.46927 
L 113.089345 195.169761 
L 113.312656 199.917993 
L 113.535968 189.750224 
L 113.75928 186.865833 
L 113.982591 181.704701 
L 114.205903 187.709121 
L 114.429215 185.432381 
L 114.652526 186.452932 
L 114.875838 183.568541 
L 115.09915 190.00863 
L 115.322461 189.165341 
L 115.545773 191.442081 
L 115.769085 187.301501 
L 115.992396 187.301501 
L 116.215708 183.568541 
L 116.43902 186.28095 
L 116.662331 192.28537 
L 117.108954 182.117601 
L 117.332266 185.845281 
L 117.555578 193.74159 
L 117.778889 196.625981 
L 118.002201 197.46927 
L 118.225513 196.190313 
L 118.448824 190.593513 
L 118.672136 193.305921 
L 118.895448 187.709121 
L 119.118759 198.317838 
L 119.342071 196.453998 
L 119.565383 186.28095 
L 119.788694 186.28095 
L 120.012006 185.845281 
L 120.235318 185.845281 
L 120.458629 189.578241 
L 120.681941 190.00863 
L 120.905253 189.578241 
L 121.128564 183.981441 
L 121.575188 193.74159 
L 121.798499 186.28095 
L 122.021811 185.845281 
L 122.245123 181.09705 
L 122.468434 180.68415 
L 122.691746 171.77257 
L 122.915058 172.621139 
L 123.138369 169.90873 
L 123.361681 175.50025 
L 123.584992 173.63641 
L 123.808304 169.49583 
L 124.031616 167.63199 
L 124.254927 173.22351 
L 124.478239 175.09263 
L 124.701551 178.82031 
L 124.924862 179.23321 
L 125.148174 180.68415 
L 125.371486 177.36937 
L 125.594797 181.09705 
L 125.818109 187.129518 
L 126.264732 180.68415 
L 126.488044 179.23321 
L 126.711356 178.82031 
L 126.934667 184.83001 
L 127.381291 175.935918 
L 127.604602 176.348819 
L 127.827914 181.532718 
L 128.051226 181.532718 
L 128.274537 181.945619 
L 128.721161 175.935918 
L 128.944472 174.484979 
L 129.167784 179.668878 
L 129.391096 174.072078 
L 129.614407 176.348819 
L 129.837719 175.935918 
L 130.061031 173.63641 
L 130.284342 177.36937 
L 130.507654 173.63641 
L 130.730965 180.076499 
L 130.954277 182.376007 
L 131.177589 182.376007 
L 131.4009 181.945619 
L 131.624212 181.945619 
L 131.847524 183.809459 
L 132.294147 192.549056 
L 132.517459 188.821376 
L 132.964082 185.501317 
L 133.187394 187.365157 
L 133.410705 182.204025 
L 133.634017 181.360736 
L 134.08064 188.821376 
L 134.303952 186.952256 
L 134.527264 190.685216 
L 134.750575 186.952256 
L 135.197199 196.282016 
L 135.42051 195.846348 
L 135.643822 195.846348 
L 135.867134 193.982508 
L 136.313757 199.402045 
L 136.76038 194.412896 
L 136.983692 194.412896 
L 137.207004 201.437868 
L 137.430315 202.458419 
L 137.653627 196.453998 
L 137.876938 199.574028 
L 138.10025 197.710188 
L 138.323562 183.981441 
L 138.770185 188.55769 
L 139.216808 177.36937 
L 139.44012 177.36937 
L 139.663432 183.396558 
L 139.886743 181.09705 
L 140.333367 184.41711 
L 140.556678 193.74159 
L 140.77999 196.01833 
L 141.003302 201.60985 
L 141.226613 197.88217 
L 141.449925 203.47897 
L 141.673237 200.181678 
L 141.896548 194.15449 
L 142.11986 196.01833 
L 142.566483 206.186099 
L 142.789795 200.594579 
L 143.013107 200.594579 
L 143.236418 203.306988 
L 143.45973 203.737376 
L 143.683042 201.437868 
L 143.906353 205.170828 
L 144.129665 201.437868 
L 144.352976 201.437868 
L 144.576288 201.873536 
L 144.7996 206.014117 
L 145.246223 218.486674 
L 145.692846 218.486674 
L 146.13947 210.590365 
L 146.586093 218.899574 
L 146.809405 215.166614 
L 147.032716 214.151343 
L 147.256028 214.151343 
L 147.47934 215.602282 
L 147.702651 217.879023 
L 148.149275 216.622834 
L 148.372586 220.763414 
L 149.042521 208.313625 
L 149.489145 214.758994 
L 149.712456 210.590365 
L 149.935768 214.323325 
L 150.382391 205.434514 
L 150.829015 204.585945 
L 151.052326 200.422597 
L 151.275638 202.722105 
L 151.498949 199.402045 
L 151.945573 206.862685 
L 152.168884 205.606496 
L 152.392196 200.181678 
L 152.615508 199.74601 
L 152.838819 202.894087 
L 153.062131 202.458419 
L 153.285443 210.182745 
L 153.508754 206.014117 
L 153.732066 206.014117 
L 153.955378 212.046585 
L 154.178689 210.590365 
L 154.402001 210.182745 
L 154.625313 217.638105 
L 154.848624 219.507225 
L 155.071936 216.187165 
L 155.295248 218.486674 
L 155.518559 214.323325 
L 155.741871 214.758994 
L 155.965183 214.758994 
L 156.188494 215.774265 
L 156.411806 211.610917 
L 156.635118 215.774265 
L 156.858429 215.774265 
L 157.081741 196.282016 
L 157.305053 194.825797 
L 157.528364 196.689637 
L 157.751676 202.722105 
L 158.198299 194.412896 
L 158.421611 300.963778 
L 158.868234 212.822517 
L 159.091546 229.366719 
L 159.314857 228.759068 
L 159.761481 237.481178 
L 159.984792 238.083548 
L 160.208104 243.852331 
L 160.431416 242.596141 
L 160.654727 243.181024 
L 160.878039 238.019892 
L 161.324662 258.188728 
L 161.547974 255.717237 
L 161.771286 255.889219 
L 161.994597 243.680348 
L 162.217909 243.267448 
L 162.441221 239.104099 
L 162.664532 244.287999 
L 162.887844 243.852331 
L 163.111156 236.391691 
L 163.334467 245.136568 
L 163.557779 242.659797 
L 163.781091 250.533338 
L 164.004402 252.832846 
L 164.897649 277.990831 
L 165.12096 301.548661 
L 165.344272 341.450664 
L 165.567584 337.310083 
L 165.790895 342.299232 
L 166.014207 337.310083 
L 166.46083 311.303529 
L 166.684142 315.036489 
L 166.907454 311.303529 
L 167.130765 315.036489 
L 167.354077 316.900329 
L 167.577389 313.172649 
L 167.8007 315.036489 
L 168.024012 311.888412 
L 168.247324 312.736981 
L 168.470635 312.324081 
L 168.693947 316.464661 
L 168.917259 312.736981 
L 169.363882 316.900329 
L 169.587194 313.172649 
L 170.033817 310.460241 
L 170.257129 313.58027 
L 170.48044 311.71643 
L 170.703752 314.428839 
L 170.927064 312.152098 
L 171.150375 307.575849 
L 171.596998 273.569941 
L 171.82031 217.038178 
L 172.043622 230.095618 
L 172.266933 234.408181 
L 172.490245 228.811381 
L 172.936868 235.859121 
L 173.16018 220.679435 
L 173.383492 234.580164 
L 173.606803 227.119524 
L 173.830115 227.555192 
L 174.053427 233.151992 
L 174.50005 221.115103 
L 174.946673 224.407115 
L 175.169985 221.115103 
L 175.393297 221.528004 
L 175.616608 222.978943 
L 175.83992 221.528004 
L 176.063232 229.419032 
L 176.509855 225.255684 
L 176.956478 225.255684 
L 177.17979 227.555192 
L 177.403102 227.968092 
L 177.626413 232.131441 
L 177.849725 230.680501 
L 178.073037 226.104252 
L 178.296348 230.267601 
L 178.51966 228.403761 
L 178.742971 223.219861 
L 178.966283 211.618641 
L 179.189595 216.774492 
L 179.412906 219.074001 
L 179.85953 228.403761 
L 180.306153 217.210161 
L 180.529465 207.450012 
L 180.752776 209.749521 
L 180.976088 207.450012 
L 181.1994 190.257272 
L 181.422711 192.705995 
L 181.646023 203.653396 
L 181.869335 200.5106 
L 182.092646 199.077148 
L 182.315958 194.9138 
L 182.53927 200.946268 
L 182.762581 202.202457 
L 182.985893 207.386356 
L 183.432516 187.040259 
L 183.655828 188.473711 
L 184.102451 182.46401 
L 184.325763 174.572982 
L 184.549075 179.149231 
L 184.772386 178.12868 
L 184.995698 175.851939 
L 185.21901 187.888828 
L 185.442321 190.165568 
L 185.665633 189.752668 
L 185.888944 191.18612 
L 186.112256 185.176419 
L 186.335568 189.752668 
L 186.782191 179.99252 
L 187.005503 186.024988 
L 187.452126 180.841088 
L 187.898749 179.412916 
L 188.122061 179.820537 
L 188.345373 170.496057 
L 188.568684 178.805266 
L 189.015308 200.597023 
L 189.461931 203.894315 
L 189.685243 203.894315 
L 189.908554 204.329983 
L 190.131866 202.873764 
L 190.355178 202.873764 
L 190.578489 199.753734 
L 190.801801 192.705995 
L 191.025113 196.020774 
L 191.248424 193.721266 
L 191.471736 199.146084 
L 191.695048 199.994652 
L 191.918359 205.586172 
L 192.141671 204.570901 
L 192.364982 207.885681 
L 192.588294 199.581752 
L 192.811606 206.021841 
L 193.034917 203.722332 
L 193.258229 206.021841 
L 193.481541 210.162421 
L 193.928164 206.021841 
L 194.151476 209.319132 
L 194.374787 205.173272 
L 194.598099 204.158001 
L 194.821411 206.434741 
L 195.044722 192.964401 
L 195.268034 192.964401 
L 195.491346 200.425041 
L 195.714657 193.984952 
L 195.937969 193.984952 
L 196.161281 184.224804 
L 196.384592 180.932792 
L 196.607904 188.388152 
L 196.831216 182.796632 
L 197.277839 194.156934 
L 197.501151 195.005503 
L 197.724462 197.282244 
L 197.947774 195.848792 
L 198.171086 195.848792 
L 198.394397 195.418404 
L 198.617709 198.125532 
L 198.841021 196.261692 
L 199.064332 187.957764 
L 199.510955 199.581752 
L 199.734267 193.549284 
L 200.18089 197.717912 
L 200.404202 196.261692 
L 200.627514 193.984952 
L 200.850825 196.261692 
L 201.074137 195.848792 
L 201.297449 200.425041 
L 201.52076 196.697361 
L 201.744072 198.561201 
L 201.967384 193.984952 
L 202.190695 194.833521 
L 202.414007 194.397852 
L 202.637319 205.849858 
L 202.86063 205.41419 
L 203.307254 184.488489 
L 203.530565 196.261692 
L 203.753877 199.146084 
L 203.977189 197.717912 
L 204.2005 197.717912 
L 204.423812 206.870409 
L 204.647124 201.273609 
L 204.870435 203.137449 
L 205.093747 199.81739 
L 205.317059 203.986018 
L 205.54037 200.253058 
L 205.763682 208.562267 
L 205.986993 203.55035 
L 206.210305 201.68651 
L 206.433617 198.389218 
L 206.656928 200.253058 
L 206.88024 195.676809 
L 207.103552 193.812969 
L 207.326863 203.55035 
L 207.550175 205.001289 
L 207.773487 209.14715 
L 207.996798 205.001289 
L 208.22011 206.870409 
L 208.666733 217.451079 
L 208.890045 218.122385 
L 209.113357 225.823944 
L 209.336668 250.156127 
L 209.55998 222.354669 
L 209.783292 215.30693 
L 210.229915 210.730681 
L 210.453227 213.615072 
L 210.676538 220.490829 
L 210.89985 221.924281 
L 211.123162 215.30693 
L 211.346473 225.743665 
L 211.569785 221.575037 
L 211.793097 219.539214 
L 212.016408 237.431309 
L 212.23972 229.540281 
L 212.463032 238.864761 
L 212.686343 218.954331 
L 212.909655 222.515309 
L 213.356278 196.985312 
L 213.57959 202.582112 
L 213.802901 199.462082 
L 214.472836 208.61458 
L 214.696148 201.738823 
L 214.91946 199.462082 
L 215.142771 190.132322 
L 215.366083 191.152873 
L 215.589395 190.545223 
L 215.812706 193.865282 
L 216.25933 180.377454 
L 216.482641 181.220743 
L 216.929265 157.410651 
L 217.375888 175.887629 
L 217.5992 179.184921 
L 218.045823 175.887629 
L 218.269135 176.90818 
L 218.492446 179.792571 
L 218.93907 173.17522 
L 219.385693 184.196838 
L 219.832316 173.588121 
L 220.278939 186.060678 
L 220.502251 180.463878 
L 220.725563 185.453027 
L 220.948874 187.316867 
L 221.172186 183.176286 
L 221.395498 182.740618 
L 221.618809 185.453027 
L 221.842121 183.589187 
L 222.065433 191.049827 
L 222.288744 185.040126 
L 222.512056 187.316867 
L 222.958679 181.484429 
L 223.181991 186.060678 
L 223.405303 183.761169 
L 223.628614 187.488849 
L 223.851926 183.761169 
L 224.075238 196.233726 
L 224.298549 192.500766 
L 224.521861 190.636926 
L 224.745173 191.049827 
L 225.191796 200.202325 
L 225.638419 192.065098 
L 225.861731 198.510467 
L 226.085043 197.661898 
L 226.308354 198.097566 
L 226.531666 200.809975 
L 226.978289 192.913667 
L 227.201601 207.078082 
L 227.424912 206.642414 
L 227.648224 204.365673 
L 227.871536 205.621862 
L 228.094847 203.345122 
L 228.318159 202.909454 
L 228.541471 201.894182 
L 228.988094 195.454094 
L 229.434717 205.208962 
L 229.658029 198.768873 
L 229.881341 196.469365 
L 230.104652 200.202325 
L 230.327964 193.349335 
L 230.551276 190.029276 
L 230.774587 189.616375 
L 230.997899 187.316867 
L 231.221211 193.349335 
L 231.444522 186.903966 
L 231.891146 191.893116 
L 232.114457 188.773086 
L 232.337769 194.364606 
L 232.561081 194.364606 
L 232.784392 196.641347 
L 233.007704 190.201258 
L 233.231016 188.337418 
L 233.454327 192.065098 
L 233.677639 188.337418 
L 233.90095 186.903966 
L 234.124262 183.589187 
L 234.347574 183.589187 
L 234.570885 184.604458 
L 234.794197 187.316867 
L 235.017509 185.040126 
L 235.24082 194.364606 
L 235.464132 192.065098 
L 235.687444 186.903966 
L 235.910755 188.773086 
L 236.134067 181.140464 
L 236.357379 181.553365 
L 236.58069 176.392233 
L 236.804002 178.840956 
L 237.027314 184.868144 
L 237.250625 183.004304 
L 237.473937 189.616375 
L 237.697249 191.480215 
L 237.92056 179.856227 
L 238.143872 191.049827 
L 238.367184 193.934218 
L 238.590495 185.212109 
L 238.813807 190.808909 
L 239.037119 189.788358 
L 239.483742 199.525738 
L 239.707054 196.233726 
L 239.930365 204.950556 
L 240.153677 204.101987 
L 240.376988 216.746526 
L 240.6003 210.306438 
L 240.823612 208.850218 
L 241.046923 209.285886 
L 241.270235 211.149726 
L 241.493547 210.134455 
L 241.716858 208.265335 
L 242.163482 218.851285 
L 242.386793 217.417833 
L 242.610105 208.678236 
L 242.833417 217.417833 
L 243.056728 230.544209 
L 243.28004 228.675089 
L 243.503352 228.244701 
L 243.726663 232.408049 
L 243.949975 227.418899 
L 244.173287 227.8318 
L 244.396598 219.11497 
L 244.61991 221.822099 
L 244.843222 219.11497 
L 245.066533 210.198111 
L 245.289845 214.361459 
L 245.513157 213.931071 
L 245.736468 217.486769 
L 245.95978 217.89967 
L 246.183092 218.914941 
L 246.406403 221.214449 
L 246.853027 206.906099 
L 247.076338 211.459581 
L 247.29965 202.97839 
L 247.522961 209.010858 
L 247.746273 200.265981 
L 247.969585 206.71135 
L 248.192896 193.412991 
L 248.416208 202.737471 
L 248.63952 199.617442 
L 248.862831 206.470431 
L 249.086143 206.470431 
L 249.309455 207.485702 
L 249.532766 210.633779 
L 249.756078 211.04668 
L 250.202701 206.470431 
L 250.426013 208.334271 
L 250.649325 201.045614 
L 250.872636 200.030342 
L 251.095948 202.32985 
L 251.31926 201.894182 
L 251.542571 197.317934 
L 251.765883 201.894182 
L 252.212506 206.05753 
L 252.435818 206.05753 
L 252.65913 202.32985 
L 252.882441 208.769939 
L 253.105753 203.758022 
L 253.329065 207.92137 
L 254.222311 196.1254 
L 254.445623 200.265981 
L 254.668934 198.837809 
L 254.892246 199.445459 
L 255.115558 202.135101 
L 255.338869 210.026129 
L 255.562181 207.726621 
L 255.785493 203.58604 
L 256.008804 216.6382 
L 256.232116 219.350609 
L 256.455428 217.051101 
L 256.902051 224.947409 
L 257.125363 216.6382 
L 257.348674 220.37116 
L 257.795298 209.18284 
L 258.018609 211.889969 
L 258.241921 218.742958 
L 258.688544 212.130887 
L 259.135168 208.403207 
L 259.358479 211.717986 
L 259.581791 221.455367 
L 259.805103 220.027195 
L 260.028414 224.603444 
L 260.251726 222.739604 
L 260.475038 223.995794 
L 260.698349 223.582893 
L 260.921661 225.016345 
L 261.144972 225.016345 
L 261.368284 219.006644 
L 261.591596 222.131954 
L 261.814907 232.907373 
L 262.038219 231.456434 
L 262.261531 231.043533 
L 262.484842 228.744025 
L 262.708154 231.043533 
L 262.931466 221.283385 
L 263.154777 223.147225 
L 263.378089 223.147225 
L 263.824712 232.471705 
L 264.048024 225.618715 
L 264.271336 226.467284 
L 264.494647 236.875971 
L 264.717959 226.295302 
L 265.164582 233.583959 
L 265.387894 222.131954 
L 265.611206 217.383722 
L 265.834517 221.547071 
L 266.057829 221.547071 
L 266.281141 233.583959 
L 266.504452 231.284451 
L 266.951076 236.296368 
L 267.174387 230.2639 
L 267.621011 238.573109 
L 267.844322 234.840149 
L 268.067634 234.427248 
L 268.290945 234.840149 
L 268.514257 234.427248 
L 268.96088 257.480475 
L 269.407504 243.149358 
L 269.630815 245.448866 
L 269.854127 245.448866 
L 270.077439 242.736457 
L 270.30075 245.448866 
L 270.524062 245.448866 
L 270.747374 252.301855 
L 270.970685 248.155995 
L 271.193997 246.292155 
L 271.64062 221.111402 
L 271.863932 219.855213 
L 272.087244 229.592594 
L 272.310555 209.010858 
L 272.533867 209.418478 
L 272.757179 203.414058 
L 272.98049 203.826958 
L 273.203802 212.130887 
L 273.427114 214.430395 
L 273.873737 191.13625 
L 274.097049 199.85836 
L 274.32036 197.98924 
L 274.543672 202.565489 
L 274.766983 202.135101 
L 274.990295 203.58604 
L 275.213607 199.85836 
L 275.436918 205.862781 
L 275.66023 196.905033 
L 275.883542 207.485702 
L 276.106853 199.617442 
L 276.330165 207.92137 
L 276.553477 208.769939 
L 276.776788 196.73305 
L 277.0001 203.173139 
L 277.223412 205.036979 
L 277.446723 205.44988 
L 277.670035 203.173139 
L 277.893347 190.292962 
L 278.33997 197.753602 
L 278.563282 192.328784 
L 278.786593 197.317934 
L 279.009905 199.617442 
L 279.233217 186.301596 
L 279.67984 193.584974 
L 279.903152 190.292962 
L 280.126463 191.13625 
L 280.349775 187.821471 
L 280.573087 187.821471 
L 281.01971 193.848659 
L 281.689645 205.277898 
L 281.912956 199.445459 
L 282.35958 201.7222 
L 282.582891 199.445459 
L 282.806203 203.998941 
L 283.029515 199.445459 
L 283.252826 197.581619 
L 283.476138 180.532814 
L 283.69945 177.820405 
L 283.922761 171.380316 
L 284.146073 171.815984 
L 284.369385 170.967415 
L 284.592696 180.119913 
L 284.816008 178.256073 
L 285.03932 177.820405 
L 285.262631 175.543664 
L 285.485943 176.392233 
L 285.932566 168.931593 
L 286.155878 178.256073 
L 286.37919 221.994082 
L 286.602501 202.066165 
L 286.825813 204.778574 
L 287.049125 194.192624 
L 287.272436 192.913667 
L 287.495748 196.056464 
L 287.71906 191.049827 
L 287.942371 181.897329 
L 288.165683 183.176286 
L 288.388994 186.473578 
L 288.612306 186.473578 
L 289.058929 188.773086 
L 289.282241 183.176286 
L 289.505553 185.040126 
L 289.728864 184.604458 
L 289.952176 193.756956 
L 290.175488 182.155735 
L 290.398799 185.453027 
L 290.622111 191.893116 
L 290.845423 187.752535 
L 291.068734 189.616375 
L 291.292046 189.180707 
L 291.515358 187.316867 
L 291.738669 196.469365 
L 291.961981 192.328784 
L 292.185293 191.893116 
L 292.408604 189.616375 
L 292.631916 190.029276 
L 292.855228 198.768873 
L 293.078539 194.605525 
L 293.301851 197.317934 
L 293.525163 201.481282 
L 293.748474 198.768873 
L 293.971786 210.370094 
L 294.195098 208.093353 
L 294.418409 208.941922 
L 295.311656 199.353756 
L 295.534967 199.789424 
L 295.758279 195.626076 
L 295.981591 195.626076 
L 296.204902 205.793845 
L 296.428214 199.789424 
L 296.651526 199.353756 
L 296.874837 197.489916 
L 297.098149 199.353756 
L 297.321461 192.328784 
L 297.544772 196.905033 
L 297.768084 198.333205 
L 297.991396 200.632713 
L 298.438019 200.632713 
L 298.661331 202.501833 
L 298.884642 198.333205 
L 299.107954 198.333205 
L 299.331266 200.632713 
L 299.777889 200.632713 
L 300.001201 205.793845 
L 300.224512 203.930005 
L 300.671136 203.930005 
L 300.894447 204.365673 
L 301.117759 209.526805 
L 301.341071 205.793845 
L 301.564382 207.662965 
L 301.787694 216.987445 
L 302.011006 220.715125 
L 302.457629 208.265335 
L 302.68094 217.589815 
L 302.904252 218.002716 
L 303.127564 215.725975 
L 303.350875 210.977744 
L 303.574187 216.987445 
L 304.02081 212.841584 
L 304.244122 212.411196 
L 304.467434 212.841584 
L 304.690745 212.411196 
L 304.914057 214.710704 
L 305.137369 221.150793 
L 305.36068 218.851285 
L 305.583992 215.118325 
L 305.807304 215.553993 
L 306.030615 211.390645 
L 306.253927 210.977744 
L 306.477239 208.678236 
L 306.70055 212.841584 
L 306.923862 206.229513 
L 307.147174 210.370094 
L 307.370485 205.793845 
L 307.593797 208.506254 
L 307.817109 204.778574 
L 308.04042 210.805762 
L 308.263732 209.962473 
L 308.487044 214.103054 
L 308.710355 208.506254 
L 309.156978 204.365673 
L 309.38029 208.093353 
L 309.603602 209.962473 
L 309.826913 208.093353 
L 310.050225 207.662965 
L 310.273537 206.229513 
L 310.496848 206.229513 
L 310.72016 203.930005 
L 310.943472 208.093353 
L 311.166783 209.962473 
L 311.390095 206.229513 
L 311.613407 205.793845 
L 312.06003 209.113904 
L 312.506653 201.217596 
L 312.729965 203.517104 
L 312.953277 203.517104 
L 313.176588 207.250064 
L 313.3999 203.258698 
L 313.846523 188.509401 
L 314.069835 194.949489 
L 314.293147 194.106201 
L 314.516458 186.23266 
L 314.963082 196.813329 
L 315.186393 198.269549 
L 315.409705 192.672749 
L 315.633017 195.970041 
L 315.856328 196.813329 
L 316.07964 199.112838 
L 316.302951 205.558206 
L 316.749575 210.542076 
L 316.972886 207.834947 
L 317.196198 214.882686 
L 318.089445 193.349335 
L 318.312756 191.049827 
L 318.536068 183.589187 
L 318.75938 183.176286 
L 318.982691 186.473578 
L 319.206003 185.040126 
L 319.429315 182.740618 
L 319.652626 184.604458 
L 319.875938 183.761169 
L 320.09925 189.788358 
L 320.322561 191.221809 
L 320.545873 191.657478 
L 320.992496 188.337418 
L 321.43912 197.489916 
L 321.885743 191.049827 
L 322.109055 191.480215 
L 322.332366 193.756956 
L 322.555678 193.349335 
L 322.778989 191.049827 
L 323.002301 192.500766 
L 323.225613 194.777507 
L 323.672236 187.316867 
L 323.895548 191.480215 
L 324.118859 191.893116 
L 324.342171 182.568636 
L 324.565483 177.992387 
L 324.788794 179.856227 
L 325.012106 177.579486 
L 325.458729 169.275558 
L 325.905353 172.572849 
L 326.351976 164.263641 
L 326.575288 170.703729 
L 327.021911 153.682971 
L 327.245223 164.263641 
L 327.691846 152.226752 
L 327.915158 158.672121 
L 328.138469 159.687392 
L 328.808404 148.671054 
L 329.255028 161.9869 
L 329.701651 157.823552 
L 329.924962 160.12306 
L 330.148274 164.263641 
L 330.371586 160.12306 
L 330.594897 164.699309 
L 330.818209 160.12306 
L 331.041521 162.835469 
L 331.264832 160.971629 
L 331.488144 162.399801 
L 331.711456 165.112209 
L 331.934767 162.399801 
L 332.158079 164.699309 
L 332.381391 161.551232 
L 332.604702 161.551232 
L 332.828014 169.860441 
L 333.051326 165.71986 
L 333.274637 168.426989 
L 333.497949 174.436689 
L 333.721261 167.996601 
L 334.167884 167.996601 
L 334.391196 165.71986 
L 334.614507 167.148032 
L 334.837819 161.551232 
L 335.061131 160.971629 
L 335.507754 167.411718 
L 335.731066 169.275558 
L 335.954377 164.699309 
L 336.177689 162.835469 
L 336.401001 164.263641 
L 336.624312 164.699309 
L 336.847624 162.835469 
L 337.070935 157.238669 
L 337.294247 165.112209 
L 337.517559 164.699309 
L 337.74087 165.71986 
L 337.964182 166.127481 
L 338.187494 168.426989 
L 338.410805 168.839889 
L 338.634117 172.572849 
L 339.08074 166.563149 
L 339.304052 164.263641 
L 339.527364 165.71986 
L 339.750675 166.127481 
L 339.973987 166.127481 
L 340.197299 164.263641 
L 340.42061 156.974983 
L 340.643922 162.571783 
L 340.867234 163.420352 
L 341.090545 163.420352 
L 341.313857 163.007451 
L 341.537169 163.85074 
L 341.76048 161.551232 
L 341.983792 163.85074 
L 342.207104 170.703729 
L 342.430415 168.839889 
L 342.653727 158.087238 
L 342.877039 159.515409 
L 343.10035 152.054769 
L 343.323662 139.438278 
L 343.546973 150.018947 
L 343.770285 144.422147 
L 343.993597 145.878366 
L 344.216908 145.878366 
L 344.44022 148.155107 
L 344.663532 154.182295 
L 344.886843 151.039498 
L 345.110155 155.202846 
L 345.333467 151.039498 
L 345.556778 152.903338 
L 346.003402 173.851806 
L 346.226713 165.112209 
L 346.450025 163.678758 
L 346.673337 180.876778 
L 346.896648 174.023789 
L 347.343272 171.31138 
L 347.566583 171.724281 
L 348.013207 183.933152 
L 348.236518 183.348269 
L 348.45983 186.645561 
L 348.683142 187.488849 
L 349.129765 182.912601 
L 349.353077 183.348269 
L 349.576388 176.90818 
L 350.023012 181.484429 
L 350.246323 186.060678 
L 350.692946 186.060678 
L 350.916258 187.924518 
L 351.13957 184.196838 
L 351.362881 182.327718 
L 351.586193 184.604458 
L 352.032816 196.905033 
L 352.256128 195.041193 
L 352.47944 206.05753 
L 352.702751 205.44988 
L 352.926063 202.32985 
L 353.149375 204.19369 
L 353.372686 204.606591 
L 353.595998 206.05753 
L 353.81931 213.323421 
L 354.042621 215.622929 
L 354.265933 212.061951 
L 354.489245 213.931071 
L 354.712556 211.65433 
L 354.935868 207.485702 
L 355.15918 210.198111 
L 355.382491 208.334271 
L 355.605803 209.78521 
L 355.829115 209.78521 
L 356.052426 208.334271 
L 356.275738 202.32985 
L 356.49905 202.32985 
L 356.722361 205.44988 
L 356.945673 206.906099 
L 357.168984 211.459581 
L 357.392296 207.31372 
L 357.615608 209.18284 
L 357.838919 206.298449 
L 358.062231 210.43903 
L 358.285543 205.036979 
L 358.508854 204.606591 
L 358.732166 196.056464 
L 358.955478 206.229513 
L 359.178789 201.653264 
L 359.402101 203.517104 
L 359.625413 200.202325 
L 359.848724 202.501833 
L 360.072036 202.066165 
L 360.295348 202.909454 
L 360.518659 207.078082 
L 360.741971 207.485702 
L 361.188594 206.642414 
L 361.411906 213.931071 
L 361.635218 207.92137 
L 361.858529 211.04668 
L 362.081841 228.916007 
L 362.305153 223.754875 
L 362.528464 223.319207 
L 362.751776 230.194964 
L 362.975088 221.891035 
L 363.421711 229.764576 
L 363.645023 245.288226 
L 363.868334 235.120458 
L 364.091646 245.288226 
L 364.314957 242.988718 
L 364.761581 234.099906 
L 364.984892 245.964813 
L 365.431516 240.780914 
L 365.654827 239.932345 
L 365.878139 243.080422 
L 366.548074 229.351675 
L 366.771386 219.76351 
L 366.994697 217.486769 
L 367.218009 220.37116 
L 367.441321 219.958259 
L 367.664632 215.38201 
L 367.887944 217.24585 
L 368.111256 213.931071 
L 368.334567 216.815462 
L 368.557879 217.658751 
L 368.781191 211.65433 
L 369.004502 208.941922 
L 369.227814 217.24585 
L 369.674437 213.51817 
L 369.897749 220.37116 
L 370.121061 220.37116 
L 370.344372 219.958259 
L 370.567684 220.37116 
L 370.790995 215.794911 
L 371.014307 217.658751 
L 371.46093 212.239214 
L 371.907554 202.673815 
L 372.130865 216.138876 
L 372.354177 237.935913 
L 372.8008 226.071006 
L 373.024112 226.919575 
L 373.247424 226.919575 
L 373.470735 236.651676 
L 373.694047 232.075427 
L 373.917359 221.907658 
L 374.363982 219.023267 
L 374.587294 227.762864 
L 374.810605 225.899024 
L 375.033917 225.899024 
L 375.257229 225.463356 
L 375.703852 229.019054 
L 376.150475 237.76393 
L 376.597099 232.16713 
L 376.82041 235.89481 
L 377.043722 237.76393 
L 377.267034 236.307711 
L 377.490345 229.454722 
L 377.713657 228.003782 
L 377.936968 220.130242 
L 378.16028 221.391711 
L 378.383592 220.97881 
L 378.606903 219.11497 
L 378.830215 214.946342 
L 379.053527 206.229513 
L 379.276838 212.239214 
L 379.50015 211.826313 
L 379.723462 220.97881 
L 379.946773 224.70649 
L 380.170085 220.543142 
L 380.393397 222.84265 
L 380.616708 229.282739 
L 380.84002 219.522591 
L 381.063332 223.691219 
L 381.286643 220.97881 
L 381.509955 225.119391 
L 381.956578 219.522591 
L 382.17989 225.96796 
L 382.403202 219.522591 
L 382.849825 215.38201 
L 383.073137 229.08799 
L 383.296448 235.120458 
L 383.51976 237.827586 
L 383.743072 235.120458 
L 383.966383 239.696706 
L 384.189695 240.104327 
L 384.413007 233.664238 
L 384.636318 233.251338 
L 384.85963 233.664238 
L 385.306253 226.375581 
L 385.529565 232.408049 
L 385.752876 234.271889 
L 385.976188 232.408049 
L 386.422811 224.511741 
L 386.646123 228.244701 
L 386.869435 224.09884 
L 387.092746 222.235 
L 387.316058 230.95183 
L 387.53937 230.95183 
L 387.762681 227.418899 
L 387.985993 226.57033 
L 388.209305 220.130242 
L 388.432616 227.155214 
L 388.655928 229.867622 
L 388.87924 226.139942 
L 389.102551 230.475273 
L 389.325863 227.155214 
L 389.549175 231.731462 
L 389.772486 231.318562 
L 389.995798 222.84265 
L 390.442421 220.543142 
L 390.665733 213.690153 
L 390.889045 187.993454 
L 391.112356 180.704796 
L 391.335668 177.820405 
L 391.558979 186.301596 
L 391.782291 186.731984 
L 392.005603 190.877845 
L 392.228914 183.417205 
L 392.452226 181.140464 
L 392.675538 172.659273 
L 393.122161 185.716713 
L 393.568784 169.952144 
L 393.792096 177.820405 
L 394.015408 177.407504 
L 394.238719 175.956565 
L 394.462031 177.820405 
L 394.685343 175.956565 
L 394.908654 177.407504 
L 395.131966 172.831255 
L 395.578589 177.407504 
L 395.801901 176.977116 
L 396.025213 159.515409 
L 396.248524 167.824618 
L 396.471836 157.238669 
L 396.695148 159.102509 
L 396.918459 156.803001 
L 397.588394 144.943374 
L 397.811706 147.478521 
L 398.258329 136.725869 
L 398.481641 146.463249 
L 398.704952 138.589709 
L 398.928264 143.750841 
L 399.151576 144.186509 
L 399.374887 150.190929 
L 399.598199 162.399801 
L 399.821511 159.102509 
L 400.044822 165.112209 
L 400.268134 159.102509 
L 400.491446 163.248369 
L 400.714757 161.379249 
L 400.938069 170.531747 
L 401.384692 173.851806 
L 401.608004 171.552298 
L 401.831316 184.604458 
L 402.277939 178.164369 
L 402.724562 182.327718 
L 403.171186 174.436689 
L 403.617809 174.436689 
L 403.841121 178.164369 
L 404.064432 170.296109 
L 404.287744 168.839889 
L 404.511056 168.839889 
L 404.734367 172.572849 
L 404.957679 172.572849 
L 405.404302 175.451961 
L 406.297549 202.845798 
L 406.52086 196.813329 
L 406.744172 213.190829 
L 406.967484 203.430681 
L 407.190795 216.918509 
L 407.414107 242.592441 
L 407.637419 241.336251 
L 407.86073 210.994367 
L 408.084042 217.434456 
L 408.307354 207.674308 
L 408.530665 213.706776 
L 408.753977 208.522877 
L 408.977289 207.502325 
L 409.2006 211.235285 
L 409.423912 204.789917 
L 409.647224 213.099125 
L 409.870535 216.419185 
L 410.093847 216.419185 
L 410.317159 215.983517 
L 410.54047 214.962965 
L 410.763782 222.010705 
L 411.210405 212.250557 
L 411.433717 214.550065 
L 411.657029 218.695925 
L 411.88034 219.126313 
L 412.103652 230.727534 
L 412.326963 233.027042 
L 412.773587 223.272174 
L 412.996898 223.272174 
L 413.22021 223.702562 
L 413.443522 223.702562 
L 413.666833 222.859273 
L 413.890145 234.047593 
L 414.113457 224.723113 
L 414.783392 227.607505 
L 415.006703 231.335185 
L 415.230015 231.748085 
L 415.453327 237.775273 
L 415.676638 233.027042 
L 415.89995 233.027042 
L 416.123262 235.303783 
L 416.346573 233.875611 
L 416.569885 233.439943 
L 416.793197 241.164269 
L 417.016508 240.728601 
L 417.463132 233.703629 
L 417.686443 235.131801 
L 417.909755 234.72418 
L 418.133067 235.131801 
L 418.356378 237.000921 
L 418.57969 240.728601 
L 418.803002 236.152352 
L 419.026313 236.152352 
L 419.249625 237.000921 
L 419.472936 238.45186 
L 419.696248 236.58802 
L 419.91956 232.424672 
L 420.142871 236.58802 
L 420.366183 232.424672 
L 420.589495 232.011771 
L 420.812806 234.288512 
L 421.25943 228.863694 
L 421.482741 229.712263 
L 421.929365 228.863694 
L 422.152676 228.863694 
L 422.375988 228.450793 
L 422.5993 226.999854 
L 422.822611 226.586953 
L 423.045923 229.712263 
L 423.492546 221.838722 
L 423.715858 223.702562 
L 423.93917 224.115463 
L 424.162481 221.66674 
L 424.385793 220.818171 
L 424.609105 223.094912 
L 425.055728 215.226651 
L 425.27904 214.790983 
L 425.502351 217.090491 
L 425.725663 217.503392 
L 425.948974 219.367232 
L 426.172286 224.551131 
L 426.395598 221.838722 
L 426.618909 221.838722 
L 426.842221 229.299362 
L 427.065533 222.423605 
L 427.288844 224.723113 
L 427.512156 222.423605 
L 427.735468 222.859273 
L 427.958779 230.727534 
L 428.182091 225.571682 
L 428.405403 225.136014 
L 428.628714 221.838722 
L 428.852026 223.702562 
L 429.075338 219.539214 
L 429.298649 219.539214 
L 429.521961 223.702562 
L 429.745273 218.111042 
L 429.968584 219.974882 
L 430.191896 223.702562 
L 430.638519 224.551131 
L 430.861831 225.571682 
L 431.085143 221.403054 
L 431.531766 230.147931 
L 431.755078 225.571682 
L 432.201701 233.027042 
L 432.425013 226.586953 
L 432.871636 227.435522 
L 433.094947 229.299362 
L 433.318259 226.999854 
L 433.541571 219.539214 
L 433.764882 223.272174 
L 434.211506 215.811534 
L 434.658129 207.330343 
L 434.881441 206.917442 
L 435.104752 208.786562 
L 435.328064 212.927143 
L 435.551376 212.927143 
L 435.774687 211.063303 
L 435.997999 214.378082 
L 436.221311 221.838722 
L 436.444622 218.518663 
L 436.667934 222.251623 
L 436.891246 222.251623 
L 437.114557 230.555552 
L 437.337869 228.278811 
L 437.784492 219.974882 
L 438.007804 220.387783 
L 438.231116 216.241922 
L 438.454427 219.974882 
L 438.677739 220.387783 
L 439.124362 236.58802 
L 439.347674 237.431309 
L 439.570985 244.719966 
L 439.794297 228.955398 
L 440.24092 240.992286 
L 440.464232 239.971735 
L 440.687544 241.835575 
L 440.910855 242.684144 
L 441.134167 266.757922 
L 441.357479 254.285365 
L 441.58079 258.27673 
L 441.804102 259.704902 
L 442.027414 275.474751 
L 442.250725 280.051 
L 442.474037 280.65865 
L 442.697349 273.610911 
L 442.92066 271.33417 
L 443.143972 266.322254 
L 443.367284 265.73737 
L 443.813907 261.574022 
L 444.037219 275.302769 
L 444.26053 262.417311 
L 444.483842 274.4542 
L 444.930465 264.281151 
L 445.153777 272.59036 
L 445.377089 273.433649 
L 445.6004 282.155758 
L 445.823712 273.84655 
L 446.047024 287.162395 
L 446.270335 286.732007 
L 446.493647 280.722306 
L 446.716958 282.586146 
L 446.94027 278.422798 
L 447.386893 256.476546 
L 447.610205 244.00927 
L 447.833517 238.848138 
L 448.056828 246.721678 
L 448.726763 240.711978 
L 449.173387 232.236066 
L 449.396698 232.82095 
L 449.62001 233.836221 
L 449.843322 229.69564 
L 450.066633 236.135729 
L 450.289945 236.135729 
L 450.513257 232.408049 
L 450.736568 232.408049 
L 450.95988 228.675089 
L 451.183192 229.08799 
L 451.406503 224.511741 
L 451.629815 227.418899 
L 451.853127 227.418899 
L 452.29975 231.55948 
L 452.523062 229.282739 
L 452.746373 233.015699 
L 452.969685 233.836221 
L 453.192996 231.55948 
L 453.416308 232.82095 
L 453.63962 236.984298 
L 453.862931 238.848138 
L 454.309555 225.96796 
L 454.532866 224.947409 
L 454.756178 230.95183 
L 454.97949 231.972381 
L 455.202801 228.244701 
L 455.426113 230.108541 
L 455.649425 225.96796 
L 455.872736 230.108541 
L 456.096048 230.544209 
L 456.31936 227.659818 
L 456.542671 230.95183 
L 456.765983 231.387498 
L 456.989295 235.528078 
L 457.212606 233.251338 
L 457.435918 232.82095 
L 457.65923 238.41247 
L 457.882541 232.408049 
L 458.105853 234.68479 
L 458.329165 235.120458 
L 458.775788 239.261038 
L 458.9991 231.387498 
L 459.222411 229.936558 
L 459.445723 235.120458 
L 459.892346 235.120458 
L 460.115658 233.251338 
L 460.338969 232.82095 
L 460.562281 236.135729 
L 460.785593 236.984298 
L 461.008904 234.271889 
L 461.232216 236.54863 
L 461.455528 236.135729 
L 461.678839 234.68479 
L 462.125463 240.104327 
L 462.572086 220.37116 
L 462.795398 228.244701 
L 463.242021 232.408049 
L 463.688644 233.251338 
L 463.911956 234.68479 
L 464.135268 238.848138 
L 464.358579 238.848138 
L 464.581891 239.261038 
L 464.805203 240.104327 
L 465.028514 237.397198 
L 465.251826 236.984298 
L 465.475138 241.124878 
L 465.698449 233.664238 
L 465.921761 235.528078 
L 466.145073 235.528078 
L 466.591696 223.754875 
L 466.815008 226.880185 
L 467.038319 225.446733 
L 467.261631 226.880185 
L 467.484942 230.607865 
L 467.708254 230.607865 
L 467.931566 226.031616 
L 468.154877 228.331124 
L 468.378189 246.877038 
L 468.601501 230.940486 
L 468.824812 231.955758 
L 469.048124 230.940486 
L 469.271436 211.878626 
L 469.494747 217.039758 
L 469.718059 214.327349 
L 469.941371 200.013719 
L 470.164682 197.542229 
L 470.387994 180.516191 
L 470.611306 183.228599 
L 470.834617 188.825399 
L 471.057929 182.792931 
L 471.281241 195.265488 
L 471.504552 191.10214 
L 471.727864 194.82982 
L 471.951176 187.976831 
L 472.174487 185.677322 
L 472.397799 180.688173 
L 472.621111 185.264422 
L 472.844422 179.672902 
L 473.067734 192.289394 
L 473.291046 188.997382 
L 473.737669 196.458022 
L 473.96098 188.997382 
L 474.184292 189.840671 
L 474.407604 189.405002 
L 474.854227 182.380031 
L 475.077539 200.857008 
L 475.30085 185.677322 
L 475.524162 186.525891 
L 475.747474 186.525891 
L 475.970785 188.389731 
L 476.194097 173.227533 
L 476.64072 178.388665 
L 476.864032 181.101074 
L 477.087344 179.237234 
L 477.310655 183.400582 
L 477.533967 174.248084 
L 477.757279 171.776594 
L 477.98059 173.640434 
L 478.427214 166.179794 
L 478.650525 165.594911 
L 478.873837 165.594911 
L 479.097149 173.055551 
L 479.32046 167.464031 
L 479.543772 166.615462 
L 479.767084 168.479302 
L 479.990395 173.468451 
L 480.213707 162.887782 
L 480.437019 160.588274 
L 480.66033 165.164522 
L 480.883642 161.018662 
L 481.106953 162.715799 
L 481.330265 151.091811 
L 481.553577 147.530834 
L 481.776888 157.290982 
L 482.0002 156.442413 
L 482.223512 158.311533 
L 482.446823 154.991474 
L 482.670135 156.855314 
L 482.893447 156.855314 
L 483.116758 154.578573 
L 483.34007 156.855314 
L 483.563382 156.442413 
L 483.786693 156.442413 
L 484.010005 155.427142 
L 484.233317 157.290982 
L 484.456628 158.139551 
L 484.67994 159.567722 
L 485.349875 137.535047 
L 486.01981 146.010958 
L 486.243122 148.482449 
L 486.689745 138.722301 
L 486.913057 144.754769 
L 487.136368 146.182941 
L 487.35968 145.77004 
L 487.582991 143.9062 
L 487.806303 137.466111 
L 488.029615 142.455261 
L 488.252926 140.591421 
L 488.476238 132.71788 
L 488.69955 139.157969 
L 488.922861 139.157969 
L 489.146173 128.141631 
L 489.369485 136.44556 
L 489.592796 138.722301 
L 489.816108 128.98492 
L 490.262731 134.168819 
L 490.486043 134.58172 
L 490.709355 132.71788 
L 490.932666 132.71788 
L 491.155978 134.994621 
L 491.602601 128.98492 
L 492.049225 124.408671 
L 492.272536 124.00105 
L 492.495848 126.277791 
L 492.71916 120.26809 
L 492.942471 126.708179 
L 493.165783 128.577299 
L 493.389095 128.577299 
L 493.835718 136.858461 
L 494.05903 127.72873 
L 494.282341 128.141631 
L 494.505653 130.005471 
L 494.728964 126.277791 
L 495.175588 116.54041 
L 495.622211 125.429222 
L 495.845523 108.144778 
L 496.068834 108.988067 
L 496.292146 102.547978 
L 496.515458 103.826935 
L 496.738769 106.103676 
L 496.962081 106.103676 
L 497.185393 96.779196 
L 497.408704 109.251753 
L 497.632016 105.931694 
L 498.078639 109.664654 
L 498.301951 107.800814 
L 498.525263 115.256174 
L 498.748574 96.779196 
L 498.971886 109.07977 
L 499.195198 106.780262 
L 499.418509 95.179042 
L 499.641821 106.780262 
L 499.865133 110.507942 
L 500.088444 102.639682 
L 500.311756 104.067854 
L 500.535068 102.639682 
L 500.758379 106.780262 
L 500.981691 104.916422 
L 501.205003 105.35209 
L 501.428314 103.48297 
L 501.651626 97.455782 
L 501.874937 103.48297 
L 502.098249 102.639682 
L 502.321561 99.927273 
L 502.544872 104.916422 
L 502.768184 104.503522 
L 503.214807 109.07977 
L 503.438119 107.628831 
L 503.661431 113.656019 
L 504.108054 109.72831 
L 504.331366 109.320689 
L 504.554677 109.320689 
L 504.777989 103.895871 
L 505.224612 102.87532 
L 505.447924 99.319622 
L 505.671236 103.895871 
L 505.894547 100.168191 
L 506.117859 99.75529 
L 506.341171 97.89145 
L 506.564482 98.734739 
L 506.787794 93.143219 
L 507.011106 93.143219 
L 507.234417 96.870899 
L 507.457729 91.274099 
L 507.681041 92.099901 
L 507.904352 91.687 
L 508.127664 97.955106 
L 508.350975 96.504167 
L 508.574287 97.524718 
L 508.797599 99.388558 
L 509.244222 91.515018 
L 509.467534 84.639261 
L 509.914157 98.53999 
L 510.137469 98.975658 
L 510.36078 103.964807 
L 510.584092 114.568244 
L 510.807404 114.132576 
L 511.030715 127.861322 
L 511.254027 124.133642 
L 511.477339 116.260102 
L 511.70065 119.993062 
L 511.923962 113.117305 
L 512.147274 119.144493 
L 512.370585 116.844985 
L 512.593897 113.117305 
L 512.817209 113.960594 
L 513.04052 111.683853 
L 513.263832 117.280653 
L 513.487144 116.844985 
L 513.710455 126.605133 
L 514.38039 98.975658 
L 514.603702 100.839498 
L 515.050325 91.687 
L 515.273637 88.372221 
L 515.496948 99.388558 
L 515.72026 99.824226 
L 516.166883 91.515018 
L 516.390195 102.100967 
L 516.613507 103.964807 
L 516.836818 100.40383 
L 517.06013 100.839498 
L 517.283442 95.179042 
L 517.506753 85.590876 
L 517.730065 100.947824 
L 517.953377 99.078704 
L 518.176688 104.675504 
L 518.4 106.539344 
L 518.4 106.539344 
" style="fill:none;stroke:#4c72b0;stroke-linecap:round;stroke-width:1.75;"/>
   </g>
   <g id="patch_3">
    <path d="M 72 356.4 
L 518.4 356.4 
" style="fill:none;"/>
   </g>
   <g id="patch_4">
    <path d="M 72 39.6 
L 518.4 39.6 
" style="fill:none;"/>
   </g>
   <g id="patch_5">
    <path d="M 72 356.4 
L 72 39.6 
" style="fill:none;"/>
   </g>
   <g id="patch_6">
    <path d="M 518.4 356.4 
L 518.4 39.6 
" style="fill:none;"/>
   </g>
   <g id="text_13">
    <!-- ru - 4.312008910269073 * MA -->
    <defs>
     <path d="M 9.125 0 
L 9.125 10.6875 
L 18.65625 10.6875 
L 18.65625 0 
z
" id="LiberationSans-2e"/>
     <path d="M 51.265625 19.1875 
Q 51.265625 14.796875 49.875 11.109375 
Q 48.484375 7.421875 45.625 4.734375 
Q 42.78125 2.046875 38.328125 0.53125 
Q 33.890625 -0.984375 27.828125 -0.984375 
Q 21.78125 -0.984375 17.359375 0.53125 
Q 12.9375 2.046875 10.03125 4.703125 
Q 7.125 7.375 5.734375 11.0625 
Q 4.34375 14.75 4.34375 19.09375 
Q 4.34375 22.859375 5.484375 25.78125 
Q 6.640625 28.71875 8.5625 30.828125 
Q 10.5 32.953125 12.96875 34.25 
Q 15.4375 35.546875 18.0625 35.984375 
L 18.0625 36.1875 
Q 15.1875 36.859375 12.90625 38.375 
Q 10.640625 39.890625 9.09375 42.015625 
Q 7.5625 44.140625 6.75 46.71875 
Q 5.953125 49.3125 5.953125 52.203125 
Q 5.953125 55.8125 7.34375 59 
Q 8.734375 62.203125 11.46875 64.625 
Q 14.203125 67.046875 18.25 68.4375 
Q 22.3125 69.828125 27.640625 69.828125 
Q 33.25 69.828125 37.375 68.40625 
Q 41.5 67 44.203125 64.578125 
Q 46.921875 62.15625 48.234375 58.9375 
Q 49.5625 55.71875 49.5625 52.09375 
Q 49.5625 49.265625 48.75 46.671875 
Q 47.953125 44.09375 46.40625 41.96875 
Q 44.875 39.84375 42.59375 38.34375 
Q 40.328125 36.859375 37.359375 36.28125 
L 37.359375 36.078125 
Q 40.328125 35.59375 42.859375 34.296875 
Q 45.40625 33.015625 47.265625 30.890625 
Q 49.125 28.765625 50.1875 25.828125 
Q 51.265625 22.90625 51.265625 19.1875 
M 40.4375 51.609375 
Q 40.4375 54.203125 39.765625 56.34375 
Q 39.109375 58.5 37.59375 60.03125 
Q 36.078125 61.578125 33.640625 62.421875 
Q 31.203125 63.28125 27.640625 63.28125 
Q 24.171875 63.28125 21.78125 62.421875 
Q 19.390625 61.578125 17.84375 60.03125 
Q 16.3125 58.5 15.625 56.34375 
Q 14.9375 54.203125 14.9375 51.609375 
Q 14.9375 49.5625 15.46875 47.40625 
Q 16.015625 45.265625 17.421875 43.5 
Q 18.84375 41.75 21.328125 40.625 
Q 23.828125 39.5 27.734375 39.5 
Q 31.890625 39.5 34.40625 40.625 
Q 36.921875 41.75 38.25 43.5 
Q 39.59375 45.265625 40.015625 47.40625 
Q 40.4375 49.5625 40.4375 51.609375 
M 42.140625 20.015625 
Q 42.140625 22.515625 41.453125 24.828125 
Q 40.765625 27.15625 39.109375 28.9375 
Q 37.453125 30.71875 34.640625 31.8125 
Q 31.84375 32.90625 27.640625 32.90625 
Q 23.78125 32.90625 21.0625 31.8125 
Q 18.359375 30.71875 16.671875 28.90625 
Q 14.984375 27.09375 14.203125 24.71875 
Q 13.421875 22.359375 13.421875 19.828125 
Q 13.421875 16.65625 14.203125 14.03125 
Q 14.984375 11.421875 16.6875 9.546875 
Q 18.40625 7.671875 21.1875 6.640625 
Q 23.96875 5.609375 27.9375 5.609375 
Q 31.9375 5.609375 34.671875 6.640625 
Q 37.40625 7.671875 39.0625 9.546875 
Q 40.71875 11.421875 41.421875 14.078125 
Q 42.140625 16.75 42.140625 20.015625 
" id="LiberationSans-38"/>
     <path d="M 56.984375 0 
L 49.125 20.125 
L 17.78125 20.125 
L 9.859375 0 
L 0.203125 0 
L 28.265625 68.796875 
L 38.875 68.796875 
L 66.5 0 
z
M 37.5 50.09375 
Q 36.71875 52.046875 36 54.046875 
Q 35.296875 56.0625 34.765625 57.6875 
Q 34.234375 59.328125 33.859375 60.421875 
Q 33.5 61.53125 33.453125 61.765625 
Q 33.34375 61.53125 33 60.40625 
Q 32.671875 59.28125 32.109375 57.609375 
Q 31.546875 55.953125 30.828125 53.953125 
Q 30.125 51.953125 29.390625 50 
L 20.609375 27.390625 
L 46.34375 27.390625 
z
" id="LiberationSans-41"/>
     <path d="M 66.703125 0 
L 66.703125 45.90625 
Q 66.703125 48.390625 66.75 50.96875 
Q 66.796875 53.5625 66.890625 55.71875 
Q 67 58.203125 67.140625 60.546875 
Q 66.453125 58.0625 65.71875 55.609375 
Q 65.09375 53.515625 64.328125 51.140625 
Q 63.578125 48.78125 62.84375 46.875 
L 45.0625 0 
L 38.53125 0 
L 20.515625 46.875 
Q 20.21875 47.609375 19.890625 48.578125 
Q 19.578125 49.5625 19.203125 50.65625 
Q 18.84375 51.765625 18.46875 52.90625 
Q 18.109375 54.046875 17.78125 55.171875 
Q 16.9375 57.765625 16.15625 60.546875 
Q 16.21875 57.8125 16.3125 55.125 
Q 16.40625 52.828125 16.453125 50.3125 
Q 16.5 47.796875 16.5 45.90625 
L 16.5 0 
L 8.203125 0 
L 8.203125 68.796875 
L 20.453125 68.796875 
L 38.765625 21.09375 
Q 39.109375 20.125 39.59375 18.578125 
Q 40.09375 17.046875 40.53125 15.421875 
Q 40.96875 13.8125 41.328125 12.375 
Q 41.703125 10.9375 41.84375 10.15625 
Q 42 10.9375 42.390625 12.40625 
Q 42.78125 13.875 43.28125 15.484375 
Q 43.796875 17.09375 44.28125 18.609375 
Q 44.78125 20.125 45.171875 21.09375 
L 63.140625 68.796875 
L 75.09375 68.796875 
L 75.09375 0 
z
" id="LiberationSans-4d"/>
     <path d="M 22.265625 54.390625 
L 35.15625 59.421875 
L 37.359375 52.984375 
L 23.578125 49.421875 
L 32.625 37.203125 
L 26.8125 33.6875 
L 19.484375 46.296875 
L 11.859375 33.796875 
L 6.0625 37.3125 
L 15.28125 49.421875 
L 1.609375 52.984375 
L 3.8125 59.515625 
L 16.84375 54.296875 
L 16.265625 68.796875 
L 22.90625 68.796875 
z
" id="LiberationSans-2a"/>
     <path d="M 15.328125 52.828125 
L 15.328125 19.34375 
Q 15.328125 15.484375 15.890625 12.890625 
Q 16.453125 10.296875 17.71875 8.703125 
Q 19 7.125 21.0625 6.46875 
Q 23.140625 5.8125 26.21875 5.8125 
Q 29.34375 5.8125 31.859375 6.90625 
Q 34.375 8.015625 36.15625 10.078125 
Q 37.9375 12.15625 38.90625 15.203125 
Q 39.890625 18.265625 39.890625 22.21875 
L 39.890625 52.828125 
L 48.6875 52.828125 
L 48.6875 11.28125 
Q 48.6875 9.625 48.703125 7.78125 
Q 48.734375 5.953125 48.78125 4.3125 
Q 48.828125 2.6875 48.875 1.515625 
Q 48.921875 0.34375 48.96875 0 
L 40.671875 0 
Q 40.625 0.25 40.578125 1.3125 
Q 40.53125 2.390625 40.453125 3.78125 
Q 40.375 5.171875 40.328125 6.609375 
Q 40.28125 8.0625 40.28125 9.03125 
L 40.140625 9.03125 
Q 38.875 6.734375 37.359375 4.875 
Q 35.84375 3.03125 33.84375 1.734375 
Q 31.84375 0.4375 29.25 -0.265625 
Q 26.65625 -0.984375 23.25 -0.984375 
Q 18.84375 -0.984375 15.671875 0.09375 
Q 12.5 1.171875 10.453125 3.421875 
Q 8.40625 5.671875 7.453125 9.1875 
Q 6.5 12.703125 6.5 17.625 
L 6.5 52.828125 
z
" id="LiberationSans-75"/>
     <path d="M 6.9375 0 
L 6.9375 40.53125 
Q 6.9375 42.1875 6.90625 43.921875 
Q 6.890625 45.65625 6.828125 47.265625 
Q 6.78125 48.875 6.734375 50.28125 
Q 6.6875 51.703125 6.640625 52.828125 
L 14.9375 52.828125 
Q 14.984375 51.703125 15.0625 50.265625 
Q 15.140625 48.828125 15.203125 47.3125 
Q 15.28125 45.796875 15.296875 44.40625 
Q 15.328125 43.015625 15.328125 42.046875 
L 15.53125 42.046875 
Q 16.453125 45.0625 17.5 47.28125 
Q 18.5625 49.515625 19.96875 50.953125 
Q 21.390625 52.390625 23.34375 53.09375 
Q 25.296875 53.8125 28.078125 53.8125 
Q 29.15625 53.8125 30.125 53.640625 
Q 31.109375 53.46875 31.640625 53.328125 
L 31.640625 45.265625 
Q 30.765625 45.515625 29.59375 45.625 
Q 28.421875 45.75 26.953125 45.75 
Q 23.921875 45.75 21.796875 44.375 
Q 19.671875 43.015625 18.328125 40.59375 
Q 17 38.1875 16.359375 34.84375 
Q 15.71875 31.5 15.71875 27.546875 
L 15.71875 0 
z
" id="LiberationSans-72"/>
    </defs>
    <g style="fill:#262626;" transform="translate(214.813125 34.6)scale(0.12 -0.12)">
     <use xlink:href="#LiberationSans-72"/>
     <use x="33.30078125" xlink:href="#LiberationSans-75"/>
     <use x="88.916015625" xlink:href="#LiberationSans-20"/>
     <use x="116.69921875" xlink:href="#LiberationSans-2d"/>
     <use x="150.0" xlink:href="#LiberationSans-20"/>
     <use x="177.783203125" xlink:href="#LiberationSans-34"/>
     <use x="233.3984375" xlink:href="#LiberationSans-2e"/>
     <use x="261.181640625" xlink:href="#LiberationSans-33"/>
     <use x="316.796875" xlink:href="#LiberationSans-31"/>
     <use x="372.412109375" xlink:href="#LiberationSans-32"/>
     <use x="428.02734375" xlink:href="#LiberationSans-30"/>
     <use x="483.642578125" xlink:href="#LiberationSans-30"/>
     <use x="539.2578125" xlink:href="#LiberationSans-38"/>
     <use x="594.873046875" xlink:href="#LiberationSans-39"/>
     <use x="650.48828125" xlink:href="#LiberationSans-31"/>
     <use x="706.103515625" xlink:href="#LiberationSans-30"/>
     <use x="761.71875" xlink:href="#LiberationSans-32"/>
     <use x="817.333984375" xlink:href="#LiberationSans-36"/>
     <use x="872.94921875" xlink:href="#LiberationSans-39"/>
     <use x="928.564453125" xlink:href="#LiberationSans-30"/>
     <use x="984.1796875" xlink:href="#LiberationSans-37"/>
     <use x="1039.794921875" xlink:href="#LiberationSans-33"/>
     <use x="1095.41015625" xlink:href="#LiberationSans-20"/>
     <use x="1123.193359375" xlink:href="#LiberationSans-2a"/>
     <use x="1162.109375" xlink:href="#LiberationSans-20"/>
     <use x="1189.892578125" xlink:href="#LiberationSans-4d"/>
     <use x="1273.193359375" xlink:href="#LiberationSans-41"/>
    </g>
   </g>
  </g>
 </g>
 <defs>
  <clipPath id="pf44eaaa5aa">
   <rect height="316.8" width="446.4" x="72.0" y="39.6"/>
  </clipPath>
 </defs>
</svg>
