<?xml version="1.0" encoding="utf-8" standalone="no"?>
<!DOCTYPE svg PUBLIC "-//W3C//DTD SVG 1.1//EN"
  "http://www.w3.org/Graphics/SVG/1.1/DTD/svg11.dtd">
<!-- Created with matplotlib (http://matplotlib.org/) -->
<svg height="396pt" version="1.1" viewBox="0 0 576 396" width="576pt" xmlns="http://www.w3.org/2000/svg" xmlns:xlink="http://www.w3.org/1999/xlink">
 <defs>
  <style type="text/css">
*{stroke-linecap:butt;stroke-linejoin:round;stroke-miterlimit:100000;}
  </style>
 </defs>
 <g id="figure_1">
  <g id="patch_1">
   <path d="M 0 396 
L 576 396 
L 576 0 
L 0 0 
z
" style="fill:#ffffff;"/>
  </g>
  <g id="axes_1">
   <g id="patch_2">
    <path d="M 72 356.4 
L 518.4 356.4 
L 518.4 39.6 
L 72 39.6 
z
" style="fill:#eaeaf2;"/>
   </g>
   <g id="matplotlib.axis_1">
    <g id="xtick_1">
     <g id="line2d_1">
      <path clip-path="url(#pfd7535505a)" d="M 72 356.4 
L 72 39.6 
" style="fill:none;stroke:#ffffff;stroke-linecap:round;"/>
     </g>
     <g id="line2d_2"/>
     <g id="line2d_3"/>
     <g id="text_1">
      <!-- 2015-11-16 10:07:00 -->
      <defs>
       <path d="M 5.03125 0 
L 5.03125 6.203125 
Q 7.515625 11.921875 11.109375 16.28125 
Q 14.703125 20.65625 18.65625 24.1875 
Q 22.609375 27.734375 26.484375 30.765625 
Q 30.375 33.796875 33.5 36.8125 
Q 36.625 39.84375 38.546875 43.15625 
Q 40.484375 46.484375 40.484375 50.6875 
Q 40.484375 53.609375 39.59375 55.828125 
Q 38.71875 58.0625 37.0625 59.5625 
Q 35.40625 61.078125 33.078125 61.828125 
Q 30.765625 62.59375 27.9375 62.59375 
Q 25.296875 62.59375 22.96875 61.859375 
Q 20.65625 61.140625 18.84375 59.671875 
Q 17.046875 58.203125 15.890625 56.03125 
Q 14.75 53.859375 14.40625 50.984375 
L 5.421875 51.8125 
Q 5.859375 55.515625 7.46875 58.78125 
Q 9.078125 62.0625 11.90625 64.53125 
Q 14.75 67 18.71875 68.40625 
Q 22.703125 69.828125 27.9375 69.828125 
Q 33.0625 69.828125 37.0625 68.609375 
Q 41.0625 67.390625 43.8125 64.984375 
Q 46.578125 62.59375 48.046875 59.078125 
Q 49.515625 55.5625 49.515625 50.984375 
Q 49.515625 47.515625 48.265625 44.390625 
Q 47.015625 41.265625 44.9375 38.421875 
Q 42.875 35.59375 40.140625 32.953125 
Q 37.40625 30.328125 34.421875 27.8125 
Q 31.453125 25.296875 28.421875 22.828125 
Q 25.390625 20.359375 22.71875 17.859375 
Q 20.0625 15.375 17.96875 12.8125 
Q 15.875 10.25 14.703125 7.46875 
L 50.59375 7.46875 
L 50.59375 0 
z
" id="LiberationSans-32"/>
       <path d="M 7.625 0 
L 7.625 7.46875 
L 25.140625 7.46875 
L 25.140625 60.40625 
L 9.625 49.3125 
L 9.625 57.625 
L 25.875 68.796875 
L 33.984375 68.796875 
L 33.984375 7.46875 
L 50.734375 7.46875 
L 50.734375 0 
z
" id="LiberationSans-31"/>
       <path d="M 50.59375 61.671875 
Q 45.40625 53.765625 41.0625 46.453125 
Q 36.71875 39.15625 33.59375 31.75 
Q 30.46875 24.359375 28.734375 16.578125 
Q 27 8.796875 27 0 
L 17.828125 0 
Q 17.828125 8.25 19.78125 16.1875 
Q 21.734375 24.125 25.046875 31.765625 
Q 28.375 39.40625 32.765625 46.78125 
Q 37.15625 54.15625 42.09375 61.328125 
L 5.125 61.328125 
L 5.125 68.796875 
L 50.59375 68.796875 
z
" id="LiberationSans-37"/>
       <path d="M 51.703125 34.421875 
Q 51.703125 24.515625 49.828125 17.75 
Q 47.953125 10.984375 44.703125 6.8125 
Q 41.453125 2.640625 37.0625 0.828125 
Q 32.671875 -0.984375 27.6875 -0.984375 
Q 22.65625 -0.984375 18.3125 0.828125 
Q 13.96875 2.640625 10.765625 6.78125 
Q 7.5625 10.9375 5.734375 17.703125 
Q 3.90625 24.46875 3.90625 34.421875 
Q 3.90625 44.828125 5.734375 51.640625 
Q 7.5625 58.453125 10.78125 62.5 
Q 14.015625 66.546875 18.40625 68.1875 
Q 22.796875 69.828125 27.984375 69.828125 
Q 32.90625 69.828125 37.21875 68.1875 
Q 41.546875 66.546875 44.765625 62.5 
Q 48 58.453125 49.84375 51.640625 
Q 51.703125 44.828125 51.703125 34.421875 
M 42.78125 34.421875 
Q 42.78125 42.625 41.796875 48.0625 
Q 40.828125 53.515625 38.921875 56.765625 
Q 37.015625 60.015625 34.25 61.359375 
Q 31.5 62.703125 27.984375 62.703125 
Q 24.265625 62.703125 21.4375 61.328125 
Q 18.609375 59.96875 16.671875 56.71875 
Q 14.75 53.46875 13.765625 48.015625 
Q 12.796875 42.578125 12.796875 34.421875 
Q 12.796875 26.515625 13.796875 21.09375 
Q 14.796875 15.671875 16.71875 12.375 
Q 18.65625 9.078125 21.4375 7.640625 
Q 24.21875 6.203125 27.78125 6.203125 
Q 31.25 6.203125 34.03125 7.640625 
Q 36.8125 9.078125 38.734375 12.375 
Q 40.671875 15.671875 41.71875 21.09375 
Q 42.78125 26.515625 42.78125 34.421875 
" id="LiberationSans-30"/>
       <path d="M 9.125 42.71875 
L 9.125 52.828125 
L 18.65625 52.828125 
L 18.65625 42.71875 
z
M 9.125 0 
L 9.125 10.109375 
L 18.65625 10.109375 
L 18.65625 0 
z
" id="LiberationSans-3a"/>
       <path d="M 51.421875 22.40625 
Q 51.421875 17.234375 49.859375 12.9375 
Q 48.296875 8.640625 45.21875 5.53125 
Q 42.140625 2.4375 37.578125 0.71875 
Q 33.015625 -0.984375 27 -0.984375 
Q 21.578125 -0.984375 17.546875 0.28125 
Q 13.53125 1.5625 10.734375 3.78125 
Q 7.953125 6 6.3125 8.984375 
Q 4.6875 11.96875 4 15.375 
L 12.890625 16.40625 
Q 13.421875 14.453125 14.390625 12.625 
Q 15.375 10.796875 17.0625 9.34375 
Q 18.75 7.90625 21.21875 7.046875 
Q 23.6875 6.203125 27.203125 6.203125 
Q 30.609375 6.203125 33.390625 7.25 
Q 36.1875 8.296875 38.15625 10.34375 
Q 40.140625 12.40625 41.203125 15.375 
Q 42.28125 18.359375 42.28125 22.21875 
Q 42.28125 25.390625 41.25 28.046875 
Q 40.234375 30.71875 38.328125 32.640625 
Q 36.421875 34.578125 33.65625 35.640625 
Q 30.90625 36.71875 27.390625 36.71875 
Q 25.203125 36.71875 23.34375 36.328125 
Q 21.484375 35.9375 19.890625 35.25 
Q 18.3125 34.578125 17.015625 33.671875 
Q 15.71875 32.765625 14.59375 31.78125 
L 6 31.78125 
L 8.296875 68.796875 
L 47.40625 68.796875 
L 47.40625 61.328125 
L 16.3125 61.328125 
L 14.984375 39.5 
Q 17.328125 41.3125 20.84375 42.59375 
Q 24.359375 43.890625 29.203125 43.890625 
Q 34.328125 43.890625 38.421875 42.328125 
Q 42.53125 40.765625 45.40625 37.90625 
Q 48.296875 35.0625 49.859375 31.109375 
Q 51.421875 27.15625 51.421875 22.40625 
" id="LiberationSans-35"/>
       <path id="LiberationSans-20"/>
       <path d="M 4.4375 22.65625 
L 4.4375 30.46875 
L 28.859375 30.46875 
L 28.859375 22.65625 
z
" id="LiberationSans-2d"/>
       <path d="M 51.21875 22.515625 
Q 51.21875 17.328125 49.78125 13 
Q 48.34375 8.6875 45.53125 5.578125 
Q 42.71875 2.484375 38.5625 0.75 
Q 34.421875 -0.984375 29 -0.984375 
Q 23 -0.984375 18.5 1.3125 
Q 14.015625 3.609375 11.03125 7.921875 
Q 8.0625 12.25 6.5625 18.53125 
Q 5.078125 24.8125 5.078125 32.8125 
Q 5.078125 42 6.765625 48.921875 
Q 8.453125 55.859375 11.625 60.5 
Q 14.796875 65.140625 19.359375 67.484375 
Q 23.921875 69.828125 29.6875 69.828125 
Q 33.203125 69.828125 36.28125 69.09375 
Q 39.359375 68.359375 41.875 66.71875 
Q 44.390625 65.09375 46.28125 62.40625 
Q 48.1875 59.71875 49.3125 55.8125 
L 40.921875 54.296875 
Q 39.546875 58.734375 36.546875 60.71875 
Q 33.546875 62.703125 29.59375 62.703125 
Q 25.984375 62.703125 23.046875 60.984375 
Q 20.125 59.28125 18.0625 55.875 
Q 16.015625 52.484375 14.90625 47.359375 
Q 13.8125 42.234375 13.8125 35.40625 
Q 16.21875 39.84375 20.5625 42.15625 
Q 24.90625 44.484375 30.515625 44.484375 
Q 35.203125 44.484375 39.015625 42.96875 
Q 42.828125 41.453125 45.53125 38.59375 
Q 48.25 35.75 49.734375 31.671875 
Q 51.21875 27.59375 51.21875 22.515625 
M 42.28125 22.125 
Q 42.28125 25.6875 41.40625 28.5625 
Q 40.53125 31.453125 38.765625 33.46875 
Q 37.015625 35.5 34.421875 36.59375 
Q 31.84375 37.703125 28.421875 37.703125 
Q 26.03125 37.703125 23.578125 36.984375 
Q 21.140625 36.28125 19.15625 34.6875 
Q 17.1875 33.109375 15.9375 30.515625 
Q 14.703125 27.9375 14.703125 24.21875 
Q 14.703125 20.40625 15.671875 17.109375 
Q 16.65625 13.8125 18.484375 11.375 
Q 20.3125 8.9375 22.890625 7.515625 
Q 25.484375 6.109375 28.71875 6.109375 
Q 31.890625 6.109375 34.40625 7.203125 
Q 36.921875 8.296875 38.671875 10.375 
Q 40.4375 12.453125 41.359375 15.421875 
Q 42.28125 18.40625 42.28125 22.125 
" id="LiberationSans-36"/>
      </defs>
      <g style="fill:#262626;" transform="translate(25.5765625 370.646875)scale(0.1 -0.1)">
       <use xlink:href="#LiberationSans-32"/>
       <use x="55.615234375" xlink:href="#LiberationSans-30"/>
       <use x="111.23046875" xlink:href="#LiberationSans-31"/>
       <use x="166.845703125" xlink:href="#LiberationSans-35"/>
       <use x="222.4609375" xlink:href="#LiberationSans-2d"/>
       <use x="255.76171875" xlink:href="#LiberationSans-31"/>
       <use x="311.376953125" xlink:href="#LiberationSans-31"/>
       <use x="366.9921875" xlink:href="#LiberationSans-2d"/>
       <use x="400.29296875" xlink:href="#LiberationSans-31"/>
       <use x="455.908203125" xlink:href="#LiberationSans-36"/>
       <use x="511.5234375" xlink:href="#LiberationSans-20"/>
       <use x="539.306640625" xlink:href="#LiberationSans-31"/>
       <use x="594.921875" xlink:href="#LiberationSans-30"/>
       <use x="650.537109375" xlink:href="#LiberationSans-3a"/>
       <use x="678.3203125" xlink:href="#LiberationSans-30"/>
       <use x="733.935546875" xlink:href="#LiberationSans-37"/>
       <use x="789.55078125" xlink:href="#LiberationSans-3a"/>
       <use x="817.333984375" xlink:href="#LiberationSans-30"/>
       <use x="872.94921875" xlink:href="#LiberationSans-30"/>
      </g>
     </g>
    </g>
    <g id="xtick_2">
     <g id="line2d_4">
      <path clip-path="url(#pfd7535505a)" d="M 183.655828 356.4 
L 183.655828 39.6 
" style="fill:none;stroke:#ffffff;stroke-linecap:round;"/>
     </g>
     <g id="line2d_5"/>
     <g id="line2d_6"/>
     <g id="text_2">
      <!-- 2015-11-18 13:50:00 -->
      <defs>
       <path d="M 51.265625 19.1875 
Q 51.265625 14.796875 49.875 11.109375 
Q 48.484375 7.421875 45.625 4.734375 
Q 42.78125 2.046875 38.328125 0.53125 
Q 33.890625 -0.984375 27.828125 -0.984375 
Q 21.78125 -0.984375 17.359375 0.53125 
Q 12.9375 2.046875 10.03125 4.703125 
Q 7.125 7.375 5.734375 11.0625 
Q 4.34375 14.75 4.34375 19.09375 
Q 4.34375 22.859375 5.484375 25.78125 
Q 6.640625 28.71875 8.5625 30.828125 
Q 10.5 32.953125 12.96875 34.25 
Q 15.4375 35.546875 18.0625 35.984375 
L 18.0625 36.1875 
Q 15.1875 36.859375 12.90625 38.375 
Q 10.640625 39.890625 9.09375 42.015625 
Q 7.5625 44.140625 6.75 46.71875 
Q 5.953125 49.3125 5.953125 52.203125 
Q 5.953125 55.8125 7.34375 59 
Q 8.734375 62.203125 11.46875 64.625 
Q 14.203125 67.046875 18.25 68.4375 
Q 22.3125 69.828125 27.640625 69.828125 
Q 33.25 69.828125 37.375 68.40625 
Q 41.5 67 44.203125 64.578125 
Q 46.921875 62.15625 48.234375 58.9375 
Q 49.5625 55.71875 49.5625 52.09375 
Q 49.5625 49.265625 48.75 46.671875 
Q 47.953125 44.09375 46.40625 41.96875 
Q 44.875 39.84375 42.59375 38.34375 
Q 40.328125 36.859375 37.359375 36.28125 
L 37.359375 36.078125 
Q 40.328125 35.59375 42.859375 34.296875 
Q 45.40625 33.015625 47.265625 30.890625 
Q 49.125 28.765625 50.1875 25.828125 
Q 51.265625 22.90625 51.265625 19.1875 
M 40.4375 51.609375 
Q 40.4375 54.203125 39.765625 56.34375 
Q 39.109375 58.5 37.59375 60.03125 
Q 36.078125 61.578125 33.640625 62.421875 
Q 31.203125 63.28125 27.640625 63.28125 
Q 24.171875 63.28125 21.78125 62.421875 
Q 19.390625 61.578125 17.84375 60.03125 
Q 16.3125 58.5 15.625 56.34375 
Q 14.9375 54.203125 14.9375 51.609375 
Q 14.9375 49.5625 15.46875 47.40625 
Q 16.015625 45.265625 17.421875 43.5 
Q 18.84375 41.75 21.328125 40.625 
Q 23.828125 39.5 27.734375 39.5 
Q 31.890625 39.5 34.40625 40.625 
Q 36.921875 41.75 38.25 43.5 
Q 39.59375 45.265625 40.015625 47.40625 
Q 40.4375 49.5625 40.4375 51.609375 
M 42.140625 20.015625 
Q 42.140625 22.515625 41.453125 24.828125 
Q 40.765625 27.15625 39.109375 28.9375 
Q 37.453125 30.71875 34.640625 31.8125 
Q 31.84375 32.90625 27.640625 32.90625 
Q 23.78125 32.90625 21.0625 31.8125 
Q 18.359375 30.71875 16.671875 28.90625 
Q 14.984375 27.09375 14.203125 24.71875 
Q 13.421875 22.359375 13.421875 19.828125 
Q 13.421875 16.65625 14.203125 14.03125 
Q 14.984375 11.421875 16.6875 9.546875 
Q 18.40625 7.671875 21.1875 6.640625 
Q 23.96875 5.609375 27.9375 5.609375 
Q 31.9375 5.609375 34.671875 6.640625 
Q 37.40625 7.671875 39.0625 9.546875 
Q 40.71875 11.421875 41.421875 14.078125 
Q 42.140625 16.75 42.140625 20.015625 
" id="LiberationSans-38"/>
       <path d="M 51.21875 19 
Q 51.21875 14.265625 49.671875 10.546875 
Q 48.140625 6.84375 45.1875 4.265625 
Q 42.234375 1.703125 37.859375 0.359375 
Q 33.5 -0.984375 27.875 -0.984375 
Q 21.484375 -0.984375 17.109375 0.609375 
Q 12.75 2.203125 9.90625 4.8125 
Q 7.078125 7.421875 5.65625 10.765625 
Q 4.25 14.109375 3.8125 17.671875 
L 12.890625 18.5 
Q 13.28125 15.765625 14.328125 13.515625 
Q 15.375 11.28125 17.1875 9.671875 
Q 19 8.0625 21.625 7.171875 
Q 24.265625 6.296875 27.875 6.296875 
Q 34.515625 6.296875 38.296875 9.5625 
Q 42.09375 12.84375 42.09375 19.28125 
Q 42.09375 23.09375 40.40625 25.40625 
Q 38.71875 27.734375 36.203125 29.03125 
Q 33.6875 30.328125 30.734375 30.765625 
Q 27.78125 31.203125 25.296875 31.203125 
L 20.3125 31.203125 
L 20.3125 38.8125 
L 25.09375 38.8125 
Q 27.59375 38.8125 30.265625 39.328125 
Q 32.953125 39.84375 35.171875 41.1875 
Q 37.40625 42.53125 38.84375 44.828125 
Q 40.28125 47.125 40.28125 50.6875 
Q 40.28125 56.203125 37.03125 59.390625 
Q 33.796875 62.59375 27.390625 62.59375 
Q 21.578125 62.59375 17.984375 59.609375 
Q 14.40625 56.640625 13.8125 51.21875 
L 4.984375 51.90625 
Q 5.515625 56.453125 7.46875 59.8125 
Q 9.421875 63.1875 12.421875 65.40625 
Q 15.4375 67.625 19.28125 68.71875 
Q 23.140625 69.828125 27.484375 69.828125 
Q 33.25 69.828125 37.390625 68.375 
Q 41.546875 66.9375 44.1875 64.46875 
Q 46.828125 62.015625 48.0625 58.6875 
Q 49.3125 55.375 49.3125 51.609375 
Q 49.3125 48.578125 48.484375 45.9375 
Q 47.65625 43.3125 45.890625 41.203125 
Q 44.140625 39.109375 41.421875 37.59375 
Q 38.71875 36.078125 34.90625 35.296875 
L 34.90625 35.109375 
Q 39.0625 34.671875 42.140625 33.21875 
Q 45.21875 31.78125 47.21875 29.625 
Q 49.21875 27.484375 50.21875 24.75 
Q 51.21875 22.015625 51.21875 19 
" id="LiberationSans-33"/>
      </defs>
      <g style="fill:#262626;" transform="translate(137.232390414 370.646875)scale(0.1 -0.1)">
       <use xlink:href="#LiberationSans-32"/>
       <use x="55.615234375" xlink:href="#LiberationSans-30"/>
       <use x="111.23046875" xlink:href="#LiberationSans-31"/>
       <use x="166.845703125" xlink:href="#LiberationSans-35"/>
       <use x="222.4609375" xlink:href="#LiberationSans-2d"/>
       <use x="255.76171875" xlink:href="#LiberationSans-31"/>
       <use x="311.376953125" xlink:href="#LiberationSans-31"/>
       <use x="366.9921875" xlink:href="#LiberationSans-2d"/>
       <use x="400.29296875" xlink:href="#LiberationSans-31"/>
       <use x="455.908203125" xlink:href="#LiberationSans-38"/>
       <use x="511.5234375" xlink:href="#LiberationSans-20"/>
       <use x="539.306640625" xlink:href="#LiberationSans-31"/>
       <use x="594.921875" xlink:href="#LiberationSans-33"/>
       <use x="650.537109375" xlink:href="#LiberationSans-3a"/>
       <use x="678.3203125" xlink:href="#LiberationSans-35"/>
       <use x="733.935546875" xlink:href="#LiberationSans-30"/>
       <use x="789.55078125" xlink:href="#LiberationSans-3a"/>
       <use x="817.333984375" xlink:href="#LiberationSans-30"/>
       <use x="872.94921875" xlink:href="#LiberationSans-30"/>
      </g>
     </g>
    </g>
    <g id="xtick_3">
     <g id="line2d_7">
      <path clip-path="url(#pfd7535505a)" d="M 295.311656 356.4 
L 295.311656 39.6 
" style="fill:none;stroke:#ffffff;stroke-linecap:round;"/>
     </g>
     <g id="line2d_8"/>
     <g id="line2d_9"/>
     <g id="text_3">
      <!-- 2015-11-23 09:25:00 -->
      <defs>
       <path d="M 50.875 35.796875 
Q 50.875 26.609375 49.140625 19.703125 
Q 47.40625 12.796875 44.1875 8.203125 
Q 40.96875 3.609375 36.34375 1.3125 
Q 31.734375 -0.984375 25.984375 -0.984375 
Q 22.015625 -0.984375 18.84375 -0.171875 
Q 15.671875 0.640625 13.171875 2.34375 
Q 10.6875 4.046875 8.921875 6.78125 
Q 7.171875 9.515625 6.109375 13.375 
L 14.5 14.703125 
Q 15.875 10.25 18.78125 8.171875 
Q 21.6875 6.109375 26.125 6.109375 
Q 29.6875 6.109375 32.640625 7.78125 
Q 35.59375 9.46875 37.671875 12.84375 
Q 39.75 16.21875 40.921875 21.296875 
Q 42.09375 26.375 42.1875 33.203125 
Q 41.15625 30.90625 39.375 29.09375 
Q 37.59375 27.296875 35.328125 26.046875 
Q 33.0625 24.8125 30.421875 24.140625 
Q 27.78125 23.484375 25.09375 23.484375 
Q 20.40625 23.484375 16.625 25.171875 
Q 12.84375 26.859375 10.203125 29.875 
Q 7.5625 32.90625 6.125 37.171875 
Q 4.6875 41.453125 4.6875 46.6875 
Q 4.6875 52 6.21875 56.296875 
Q 7.765625 60.59375 10.6875 63.59375 
Q 13.625 66.609375 17.890625 68.21875 
Q 22.171875 69.828125 27.59375 69.828125 
Q 39.0625 69.828125 44.96875 61.328125 
Q 50.875 52.828125 50.875 35.796875 
M 41.3125 44.28125 
Q 41.3125 48.09375 40.40625 51.453125 
Q 39.5 54.828125 37.71875 57.3125 
Q 35.9375 59.8125 33.328125 61.25 
Q 30.71875 62.703125 27.296875 62.703125 
Q 24.125 62.703125 21.578125 61.578125 
Q 19.046875 60.453125 17.28125 58.375 
Q 15.53125 56.296875 14.578125 53.3125 
Q 13.625 50.34375 13.625 46.6875 
Q 13.625 43.21875 14.46875 40.234375 
Q 15.328125 37.25 17.03125 35.078125 
Q 18.75 32.90625 21.28125 31.65625 
Q 23.828125 30.421875 27.203125 30.421875 
Q 29.640625 30.421875 32.15625 31.25 
Q 34.671875 32.078125 36.6875 33.78125 
Q 38.71875 35.5 40.015625 38.109375 
Q 41.3125 40.71875 41.3125 44.28125 
" id="LiberationSans-39"/>
      </defs>
      <g style="fill:#262626;" transform="translate(248.888218328 370.646875)scale(0.1 -0.1)">
       <use xlink:href="#LiberationSans-32"/>
       <use x="55.615234375" xlink:href="#LiberationSans-30"/>
       <use x="111.23046875" xlink:href="#LiberationSans-31"/>
       <use x="166.845703125" xlink:href="#LiberationSans-35"/>
       <use x="222.4609375" xlink:href="#LiberationSans-2d"/>
       <use x="255.76171875" xlink:href="#LiberationSans-31"/>
       <use x="311.376953125" xlink:href="#LiberationSans-31"/>
       <use x="366.9921875" xlink:href="#LiberationSans-2d"/>
       <use x="400.29296875" xlink:href="#LiberationSans-32"/>
       <use x="455.908203125" xlink:href="#LiberationSans-33"/>
       <use x="511.5234375" xlink:href="#LiberationSans-20"/>
       <use x="539.306640625" xlink:href="#LiberationSans-30"/>
       <use x="594.921875" xlink:href="#LiberationSans-39"/>
       <use x="650.537109375" xlink:href="#LiberationSans-3a"/>
       <use x="678.3203125" xlink:href="#LiberationSans-32"/>
       <use x="733.935546875" xlink:href="#LiberationSans-35"/>
       <use x="789.55078125" xlink:href="#LiberationSans-3a"/>
       <use x="817.333984375" xlink:href="#LiberationSans-30"/>
       <use x="872.94921875" xlink:href="#LiberationSans-30"/>
      </g>
     </g>
    </g>
    <g id="xtick_4">
     <g id="line2d_10">
      <path clip-path="url(#pfd7535505a)" d="M 406.967484 356.4 
L 406.967484 39.6 
" style="fill:none;stroke:#ffffff;stroke-linecap:round;"/>
     </g>
     <g id="line2d_11"/>
     <g id="line2d_12"/>
     <g id="text_4">
      <!-- 2015-11-25 11:00:00 -->
      <g style="fill:#262626;" transform="translate(360.544046242 370.646875)scale(0.1 -0.1)">
       <use xlink:href="#LiberationSans-32"/>
       <use x="55.615234375" xlink:href="#LiberationSans-30"/>
       <use x="111.23046875" xlink:href="#LiberationSans-31"/>
       <use x="166.845703125" xlink:href="#LiberationSans-35"/>
       <use x="222.4609375" xlink:href="#LiberationSans-2d"/>
       <use x="255.76171875" xlink:href="#LiberationSans-31"/>
       <use x="311.376953125" xlink:href="#LiberationSans-31"/>
       <use x="366.9921875" xlink:href="#LiberationSans-2d"/>
       <use x="400.29296875" xlink:href="#LiberationSans-32"/>
       <use x="455.908203125" xlink:href="#LiberationSans-35"/>
       <use x="511.5234375" xlink:href="#LiberationSans-20"/>
       <use x="539.306640625" xlink:href="#LiberationSans-31"/>
       <use x="594.921875" xlink:href="#LiberationSans-31"/>
       <use x="650.537109375" xlink:href="#LiberationSans-3a"/>
       <use x="678.3203125" xlink:href="#LiberationSans-30"/>
       <use x="733.935546875" xlink:href="#LiberationSans-30"/>
       <use x="789.55078125" xlink:href="#LiberationSans-3a"/>
       <use x="817.333984375" xlink:href="#LiberationSans-30"/>
       <use x="872.94921875" xlink:href="#LiberationSans-30"/>
      </g>
     </g>
    </g>
    <g id="text_5">
     <!-- time -->
     <defs>
      <path d="M 13.484375 24.5625 
Q 13.484375 20.40625 14.328125 16.90625 
Q 15.1875 13.421875 16.96875 10.90625 
Q 18.75 8.40625 21.53125 7 
Q 24.3125 5.609375 28.21875 5.609375 
Q 33.9375 5.609375 37.375 7.90625 
Q 40.828125 10.203125 42.046875 13.71875 
L 49.75 11.53125 
Q 48.921875 9.328125 47.4375 7.109375 
Q 45.953125 4.890625 43.453125 3.09375 
Q 40.96875 1.3125 37.234375 0.15625 
Q 33.5 -0.984375 28.21875 -0.984375 
Q 16.5 -0.984375 10.375 6 
Q 4.25 12.984375 4.25 26.765625 
Q 4.25 34.1875 6.09375 39.328125 
Q 7.953125 44.484375 11.171875 47.703125 
Q 14.40625 50.921875 18.703125 52.359375 
Q 23 53.8125 27.875 53.8125 
Q 34.515625 53.8125 38.984375 51.65625 
Q 43.453125 49.515625 46.15625 45.71875 
Q 48.875 41.9375 50.015625 36.8125 
Q 51.171875 31.6875 51.171875 25.734375 
L 51.171875 24.5625 
z
M 42.09375 31.296875 
Q 41.359375 39.65625 37.84375 43.484375 
Q 34.328125 47.3125 27.734375 47.3125 
Q 25.53125 47.3125 23.109375 46.609375 
Q 20.703125 45.90625 18.65625 44.09375 
Q 16.609375 42.28125 15.1875 39.171875 
Q 13.765625 36.078125 13.578125 31.296875 
z
" id="LiberationSans-65"/>
      <path d="M 6.6875 64.0625 
L 6.6875 72.46875 
L 15.484375 72.46875 
L 15.484375 64.0625 
z
M 6.6875 0 
L 6.6875 52.828125 
L 15.484375 52.828125 
L 15.484375 0 
z
" id="LiberationSans-69"/>
      <path d="M 27.046875 0.390625 
Q 25.046875 -0.140625 22.96875 -0.453125 
Q 20.90625 -0.78125 18.171875 -0.78125 
Q 7.625 -0.78125 7.625 11.1875 
L 7.625 46.4375 
L 1.515625 46.4375 
L 1.515625 52.828125 
L 7.953125 52.828125 
L 10.546875 64.65625 
L 16.40625 64.65625 
L 16.40625 52.828125 
L 26.171875 52.828125 
L 26.171875 46.4375 
L 16.40625 46.4375 
L 16.40625 13.09375 
Q 16.40625 9.28125 17.640625 7.734375 
Q 18.890625 6.203125 21.96875 6.203125 
Q 23.25 6.203125 24.4375 6.390625 
Q 25.640625 6.59375 27.046875 6.890625 
z
" id="LiberationSans-74"/>
      <path d="M 37.5 0 
L 37.5 33.5 
Q 37.5 37.359375 37.015625 39.9375 
Q 36.53125 42.53125 35.375 44.109375 
Q 34.234375 45.703125 32.375 46.359375 
Q 30.515625 47.015625 27.828125 47.015625 
Q 25.046875 47.015625 22.796875 45.921875 
Q 20.5625 44.828125 18.96875 42.75 
Q 17.390625 40.671875 16.53125 37.625 
Q 15.671875 34.578125 15.671875 30.609375 
L 15.671875 0 
L 6.9375 0 
L 6.9375 41.546875 
Q 6.9375 43.21875 6.90625 45.046875 
Q 6.890625 46.875 6.828125 48.5 
Q 6.78125 50.140625 6.734375 51.3125 
Q 6.6875 52.484375 6.640625 52.828125 
L 14.9375 52.828125 
Q 14.984375 52.59375 15.03125 51.515625 
Q 15.09375 50.4375 15.15625 49.046875 
Q 15.234375 47.65625 15.28125 46.21875 
Q 15.328125 44.78125 15.328125 43.796875 
L 15.484375 43.796875 
Q 16.65625 46.09375 18.015625 47.953125 
Q 19.390625 49.8125 21.21875 51.09375 
Q 23.046875 52.390625 25.40625 53.09375 
Q 27.78125 53.8125 30.90625 53.8125 
Q 36.921875 53.8125 40.40625 51.421875 
Q 43.890625 49.03125 45.265625 43.796875 
L 45.40625 43.796875 
Q 46.578125 46.09375 48.046875 47.953125 
Q 49.515625 49.8125 51.46875 51.09375 
Q 53.421875 52.390625 55.859375 53.09375 
Q 58.296875 53.8125 61.421875 53.8125 
Q 65.4375 53.8125 68.328125 52.734375 
Q 71.234375 51.65625 73.09375 49.40625 
Q 74.953125 47.171875 75.828125 43.625 
Q 76.703125 40.09375 76.703125 35.203125 
L 76.703125 0 
L 68.015625 0 
L 68.015625 33.5 
Q 68.015625 37.359375 67.53125 39.9375 
Q 67.046875 42.53125 65.890625 44.109375 
Q 64.75 45.703125 62.890625 46.359375 
Q 61.03125 47.015625 58.34375 47.015625 
Q 55.5625 47.015625 53.3125 45.96875 
Q 51.078125 44.921875 49.484375 42.875 
Q 47.90625 40.828125 47.046875 37.75 
Q 46.1875 34.671875 46.1875 30.609375 
L 46.1875 0 
z
" id="LiberationSans-6d"/>
     </defs>
     <g style="fill:#262626;" transform="translate(284.81015625 385.6934375)scale(0.11 -0.11)">
      <use xlink:href="#LiberationSans-74"/>
      <use x="27.783203125" xlink:href="#LiberationSans-69"/>
      <use x="50.0" xlink:href="#LiberationSans-6d"/>
      <use x="133.30078125" xlink:href="#LiberationSans-65"/>
     </g>
    </g>
   </g>
   <g id="matplotlib.axis_2">
    <g id="ytick_1">
     <g id="line2d_13">
      <path clip-path="url(#pfd7535505a)" d="M 72 356.4 
L 518.4 356.4 
" style="fill:none;stroke:#ffffff;stroke-linecap:round;"/>
     </g>
     <g id="line2d_14"/>
     <g id="line2d_15"/>
     <g id="text_6">
      <!-- −36050 -->
      <defs>
       <path d="M 4.9375 29.6875 
L 4.9375 36.8125 
L 53.515625 36.8125 
L 53.515625 29.6875 
z
" id="LiberationSans-2212"/>
      </defs>
      <g style="fill:#262626;" transform="translate(31.3546875 358.9859375)scale(0.1 -0.1)">
       <use xlink:href="#LiberationSans-2212"/>
       <use x="58.3984375" xlink:href="#LiberationSans-33"/>
       <use x="114.013671875" xlink:href="#LiberationSans-36"/>
       <use x="169.62890625" xlink:href="#LiberationSans-30"/>
       <use x="225.244140625" xlink:href="#LiberationSans-35"/>
       <use x="280.859375" xlink:href="#LiberationSans-30"/>
      </g>
     </g>
    </g>
    <g id="ytick_2">
     <g id="line2d_16">
      <path clip-path="url(#pfd7535505a)" d="M 72 316.8 
L 518.4 316.8 
" style="fill:none;stroke:#ffffff;stroke-linecap:round;"/>
     </g>
     <g id="line2d_17"/>
     <g id="line2d_18"/>
     <g id="text_7">
      <!-- −36000 -->
      <g style="fill:#262626;" transform="translate(31.3546875 319.3859375)scale(0.1 -0.1)">
       <use xlink:href="#LiberationSans-2212"/>
       <use x="58.3984375" xlink:href="#LiberationSans-33"/>
       <use x="114.013671875" xlink:href="#LiberationSans-36"/>
       <use x="169.62890625" xlink:href="#LiberationSans-30"/>
       <use x="225.244140625" xlink:href="#LiberationSans-30"/>
       <use x="280.859375" xlink:href="#LiberationSans-30"/>
      </g>
     </g>
    </g>
    <g id="ytick_3">
     <g id="line2d_19">
      <path clip-path="url(#pfd7535505a)" d="M 72 277.2 
L 518.4 277.2 
" style="fill:none;stroke:#ffffff;stroke-linecap:round;"/>
     </g>
     <g id="line2d_20"/>
     <g id="line2d_21"/>
     <g id="text_8">
      <!-- −35950 -->
      <g style="fill:#262626;" transform="translate(31.3546875 279.7859375)scale(0.1 -0.1)">
       <use xlink:href="#LiberationSans-2212"/>
       <use x="58.3984375" xlink:href="#LiberationSans-33"/>
       <use x="114.013671875" xlink:href="#LiberationSans-35"/>
       <use x="169.62890625" xlink:href="#LiberationSans-39"/>
       <use x="225.244140625" xlink:href="#LiberationSans-35"/>
       <use x="280.859375" xlink:href="#LiberationSans-30"/>
      </g>
     </g>
    </g>
    <g id="ytick_4">
     <g id="line2d_22">
      <path clip-path="url(#pfd7535505a)" d="M 72 237.6 
L 518.4 237.6 
" style="fill:none;stroke:#ffffff;stroke-linecap:round;"/>
     </g>
     <g id="line2d_23"/>
     <g id="line2d_24"/>
     <g id="text_9">
      <!-- −35900 -->
      <g style="fill:#262626;" transform="translate(31.3546875 240.1859375)scale(0.1 -0.1)">
       <use xlink:href="#LiberationSans-2212"/>
       <use x="58.3984375" xlink:href="#LiberationSans-33"/>
       <use x="114.013671875" xlink:href="#LiberationSans-35"/>
       <use x="169.62890625" xlink:href="#LiberationSans-39"/>
       <use x="225.244140625" xlink:href="#LiberationSans-30"/>
       <use x="280.859375" xlink:href="#LiberationSans-30"/>
      </g>
     </g>
    </g>
    <g id="ytick_5">
     <g id="line2d_25">
      <path clip-path="url(#pfd7535505a)" d="M 72 198 
L 518.4 198 
" style="fill:none;stroke:#ffffff;stroke-linecap:round;"/>
     </g>
     <g id="line2d_26"/>
     <g id="line2d_27"/>
     <g id="text_10">
      <!-- −35850 -->
      <g style="fill:#262626;" transform="translate(31.3546875 200.5859375)scale(0.1 -0.1)">
       <use xlink:href="#LiberationSans-2212"/>
       <use x="58.3984375" xlink:href="#LiberationSans-33"/>
       <use x="114.013671875" xlink:href="#LiberationSans-35"/>
       <use x="169.62890625" xlink:href="#LiberationSans-38"/>
       <use x="225.244140625" xlink:href="#LiberationSans-35"/>
       <use x="280.859375" xlink:href="#LiberationSans-30"/>
      </g>
     </g>
    </g>
    <g id="ytick_6">
     <g id="line2d_28">
      <path clip-path="url(#pfd7535505a)" d="M 72 158.4 
L 518.4 158.4 
" style="fill:none;stroke:#ffffff;stroke-linecap:round;"/>
     </g>
     <g id="line2d_29"/>
     <g id="line2d_30"/>
     <g id="text_11">
      <!-- −35800 -->
      <g style="fill:#262626;" transform="translate(31.3546875 160.9859375)scale(0.1 -0.1)">
       <use xlink:href="#LiberationSans-2212"/>
       <use x="58.3984375" xlink:href="#LiberationSans-33"/>
       <use x="114.013671875" xlink:href="#LiberationSans-35"/>
       <use x="169.62890625" xlink:href="#LiberationSans-38"/>
       <use x="225.244140625" xlink:href="#LiberationSans-30"/>
       <use x="280.859375" xlink:href="#LiberationSans-30"/>
      </g>
     </g>
    </g>
    <g id="ytick_7">
     <g id="line2d_31">
      <path clip-path="url(#pfd7535505a)" d="M 72 118.8 
L 518.4 118.8 
" style="fill:none;stroke:#ffffff;stroke-linecap:round;"/>
     </g>
     <g id="line2d_32"/>
     <g id="line2d_33"/>
     <g id="text_12">
      <!-- −35750 -->
      <g style="fill:#262626;" transform="translate(31.3546875 121.3859375)scale(0.1 -0.1)">
       <use xlink:href="#LiberationSans-2212"/>
       <use x="58.3984375" xlink:href="#LiberationSans-33"/>
       <use x="114.013671875" xlink:href="#LiberationSans-35"/>
       <use x="169.62890625" xlink:href="#LiberationSans-37"/>
       <use x="225.244140625" xlink:href="#LiberationSans-35"/>
       <use x="280.859375" xlink:href="#LiberationSans-30"/>
      </g>
     </g>
    </g>
    <g id="ytick_8">
     <g id="line2d_34">
      <path clip-path="url(#pfd7535505a)" d="M 72 79.2 
L 518.4 79.2 
" style="fill:none;stroke:#ffffff;stroke-linecap:round;"/>
     </g>
     <g id="line2d_35"/>
     <g id="line2d_36"/>
     <g id="text_13">
      <!-- −35700 -->
      <g style="fill:#262626;" transform="translate(31.3546875 81.7859375)scale(0.1 -0.1)">
       <use xlink:href="#LiberationSans-2212"/>
       <use x="58.3984375" xlink:href="#LiberationSans-33"/>
       <use x="114.013671875" xlink:href="#LiberationSans-35"/>
       <use x="169.62890625" xlink:href="#LiberationSans-37"/>
       <use x="225.244140625" xlink:href="#LiberationSans-30"/>
       <use x="280.859375" xlink:href="#LiberationSans-30"/>
      </g>
     </g>
    </g>
    <g id="ytick_9">
     <g id="line2d_37">
      <path clip-path="url(#pfd7535505a)" d="M 72 39.6 
L 518.4 39.6 
" style="fill:none;stroke:#ffffff;stroke-linecap:round;"/>
     </g>
     <g id="line2d_38"/>
     <g id="line2d_39"/>
     <g id="text_14">
      <!-- −35650 -->
      <g style="fill:#262626;" transform="translate(31.3546875 42.1859375)scale(0.1 -0.1)">
       <use xlink:href="#LiberationSans-2212"/>
       <use x="58.3984375" xlink:href="#LiberationSans-33"/>
       <use x="114.013671875" xlink:href="#LiberationSans-35"/>
       <use x="169.62890625" xlink:href="#LiberationSans-36"/>
       <use x="225.244140625" xlink:href="#LiberationSans-35"/>
       <use x="280.859375" xlink:href="#LiberationSans-30"/>
      </g>
     </g>
    </g>
   </g>
   <g id="line2d_40">
    <path clip-path="url(#pfd7535505a)" d="M 72 145.4995 
L 72.223312 145.4995 
L 72.446623 150.914263 
L 72.669935 145.4995 
L 72.893247 134.815052 
L 73.116558 136.668332 
L 73.33987 117.007638 
L 73.563182 127.845084 
L 73.786493 131.406566 
L 74.009805 127.692086 
L 74.233117 127.692086 
L 74.456428 133.106849 
L 74.67974 134.968049 
L 74.903052 131.406566 
L 75.126363 149.21398 
L 75.349675 154.78966 
L 75.572986 140.076817 
L 75.796298 136.362337 
L 76.01961 134.501137 
L 76.242921 138.215617 
L 76.466233 138.215617 
L 76.689545 131.092652 
L 76.912856 129.392369 
L 77.136168 131.092652 
L 77.35948 138.215617 
L 77.806103 131.092652 
L 78.029415 125.677889 
L 78.252726 123.969686 
L 78.69935 134.815052 
L 78.922661 129.392369 
L 79.145973 136.515335 
L 79.369285 127.692086 
L 79.592596 127.692086 
L 79.815908 129.545366 
L 80.03922 125.983884 
L 80.262531 125.983884 
L 80.485843 127.845084 
L 80.932466 140.390732 
L 81.155778 140.390732 
L 81.37909 147.513697 
L 81.602401 143.952215 
L 81.825713 143.952215 
L 82.049025 143.791297 
L 82.272336 147.513697 
L 82.495648 140.390732 
L 82.718959 142.091015 
L 82.942271 138.529532 
L 83.165583 140.390732 
L 83.388894 143.952215 
L 83.612206 134.968049 
L 83.835518 134.968049 
L 84.058829 138.529532 
L 84.282141 136.668332 
L 84.505453 145.652497 
L 84.728764 145.4995 
L 84.952076 152.775463 
L 85.175388 154.475745 
L 85.398699 149.060983 
L 85.622011 150.761265 
L 85.845323 159.745431 
L 86.068634 163.459911 
L 86.291946 165.160193 
L 86.738569 156.336945 
L 86.961881 161.759628 
L 87.185193 170.743793 
L 87.408504 165.321111 
L 87.631816 165.321111 
L 87.855128 172.597073 
L 88.078439 170.896791 
L 88.301751 178.019756 
L 88.748374 167.335308 
L 88.971686 170.896791 
L 89.194997 186.843004 
L 89.418309 190.404487 
L 89.641621 188.551207 
L 89.864932 184.989724 
L 90.088244 190.404487 
L 90.311556 190.25149 
L 90.534867 188.551207 
L 90.758179 188.551207 
L 90.981491 184.828807 
L 91.874737 184.828807 
L 92.098049 181.114327 
L 92.321361 181.114327 
L 92.544672 188.551207 
L 92.767984 191.951772 
L 92.991296 182.967607 
L 93.214607 181.114327 
L 93.437919 186.52909 
L 93.661231 182.967607 
L 93.884542 181.267324 
L 94.107854 175.844641 
L 94.331166 173.991361 
L 94.554477 165.007196 
L 94.777789 170.582876 
L 95.001101 172.283159 
L 95.224412 165.160193 
L 95.447724 172.283159 
L 95.671036 170.429879 
L 95.894347 170.429879 
L 96.117659 166.868396 
L 96.564282 172.283159 
L 96.787594 170.429879 
L 97.010905 163.306913 
L 97.234217 165.007196 
L 97.68084 159.270599 
L 98.127464 162.992999 
L 98.350775 162.992999 
L 98.574087 162.832081 
L 98.797399 160.978801 
L 99.02071 162.832081 
L 99.467334 159.117601 
L 99.690645 168.101767 
L 99.913957 160.978801 
L 100.137269 162.832081 
L 100.583892 154.008833 
L 100.807204 161.131799 
L 101.030515 154.008833 
L 101.253827 161.131799 
L 101.477139 162.992999 
L 101.70045 162.992999 
L 101.923762 168.415681 
L 102.147074 170.268961 
L 102.370385 170.268961 
L 102.593697 166.554481 
L 102.817009 168.415681 
L 103.263632 173.830444 
L 103.486943 173.830444 
L 103.710255 168.415681 
L 103.933567 173.830444 
L 104.156878 166.707479 
L 104.38019 152.308551 
L 104.603502 152.308551 
L 105.050125 157.731233 
L 105.273437 157.731233 
L 105.496748 165.160193 
L 105.72006 163.306913 
L 105.943372 163.306913 
L 106.389995 168.721676 
L 106.613307 167.021393 
L 107.05993 170.743793 
L 107.283242 204.183506 
L 107.506553 207.744988 
L 107.729865 197.06054 
L 107.953177 200.77502 
L 108.176488 211.459468 
L 108.3998 206.197703 
L 108.623112 211.459468 
L 108.846423 213.320668 
L 109.069735 211.459468 
L 109.293047 211.459468 
L 109.516358 209.606188 
L 109.73967 200.77502 
L 109.962981 200.77502 
L 110.186293 202.483223 
L 110.409605 200.77502 
L 110.632916 200.77502 
L 110.856228 194.885426 
L 111.07954 193.032146 
L 111.302851 187.609463 
L 111.526163 189.470663 
L 111.749475 193.032146 
L 111.972786 187.609463 
L 112.196098 189.470663 
L 112.642721 196.593628 
L 112.866033 193.032146 
L 113.089345 185.90918 
L 113.535968 182.347698 
L 113.75928 185.90918 
L 113.982591 177.078012 
L 114.205903 182.661612 
L 114.429215 177.23893 
L 114.652526 177.078012 
L 114.875838 177.078012 
L 115.09915 175.224732 
L 115.545773 167.787852 
L 115.992396 173.51653 
L 116.215708 171.816247 
L 116.43902 164.693281 
L 116.885643 173.677447 
L 117.108954 173.677447 
L 117.332266 175.538647 
L 117.555578 173.677447 
L 117.778889 168.101767 
L 118.002201 169.955047 
L 118.225513 168.101767 
L 118.448824 164.379367 
L 118.672136 164.379367 
L 118.895448 166.240567 
L 119.565383 166.240567 
L 119.788694 162.679084 
L 120.012006 162.679084 
L 120.235318 164.540284 
L 120.458629 168.101767 
L 120.681941 182.18678 
L 120.905253 184.04798 
L 121.351876 184.04798 
L 121.575188 191.323943 
L 121.798499 193.032146 
L 122.021811 200.308108 
L 122.245123 200.308108 
L 122.468434 202.169308 
L 122.691746 200.308108 
L 122.915058 202.169308 
L 123.138369 202.169308 
L 123.361681 200.308108 
L 123.584992 200.308108 
L 123.808304 196.593628 
L 124.031616 198.446908 
L 124.254927 194.732428 
L 124.478239 196.593628 
L 124.701551 196.593628 
L 125.148174 189.470663 
L 125.371486 191.323943 
L 125.594797 189.470663 
L 125.818109 191.323943 
L 126.264732 191.323943 
L 126.488044 196.746626 
L 126.711356 198.607826 
L 127.381291 189.470663 
L 127.604602 189.470663 
L 128.051226 196.593628 
L 128.497849 196.593628 
L 128.721161 192.871228 
L 128.944472 194.732428 
L 129.167784 194.732428 
L 129.391096 192.871228 
L 129.837719 187.76246 
L 130.061031 185.90918 
L 130.507654 180.639495 
L 130.954277 185.90918 
L 131.177589 184.04798 
L 131.4009 185.90918 
L 131.624212 182.18678 
L 131.847524 182.18678 
L 132.294147 192.871228 
L 132.517459 194.732428 
L 132.74077 192.871228 
L 133.187394 210.21173 
L 133.410705 201.694477 
L 134.08064 207.117159 
L 134.527264 207.117159 
L 134.750575 212.539842 
L 135.197199 205.255959 
L 135.42051 210.678642 
L 135.643822 201.694477 
L 135.867134 205.416877 
L 136.090445 207.117159 
L 136.537069 214.401042 
L 136.76038 210.678642 
L 136.983692 208.978359 
L 137.207004 219.662807 
L 137.430315 210.525645 
L 137.653627 210.364727 
L 137.876938 210.364727 
L 138.10025 206.803245 
L 138.323562 208.664445 
L 138.546873 212.225927 
L 138.770185 212.225927 
L 138.993497 214.087127 
L 139.216808 210.525645 
L 139.44012 212.378925 
L 139.663432 210.525645 
L 139.886743 205.102962 
L 140.110055 206.964162 
L 140.333367 203.402679 
L 140.556678 208.817442 
L 140.77999 203.402679 
L 141.003302 206.964162 
L 141.673237 206.964162 
L 142.11986 203.241762 
L 142.343172 206.803245 
L 142.566483 203.241762 
L 142.789795 205.102962 
L 143.013107 205.102962 
L 143.236418 201.380562 
L 143.45973 208.503527 
L 143.683042 201.380562 
L 143.906353 203.241762 
L 144.129665 203.241762 
L 144.352976 204.942045 
L 144.576288 210.364727 
L 144.7996 203.241762 
L 145.022911 206.803245 
L 145.246223 203.241762 
L 145.469535 205.102962 
L 145.692846 210.678642 
L 145.916158 199.994194 
L 146.13947 194.732428 
L 146.362781 192.871228 
L 146.586093 194.732428 
L 146.809405 194.732428 
L 147.032716 192.871228 
L 147.47934 196.593628 
L 147.702651 187.609463 
L 148.372586 187.609463 
L 148.595898 187.76246 
L 148.81921 185.90918 
L 149.042521 185.90918 
L 149.489145 189.470663 
L 149.712456 187.76246 
L 149.935768 196.746626 
L 150.15908 191.323943 
L 150.382391 196.593628 
L 150.605703 196.593628 
L 150.829015 198.446908 
L 151.052326 198.446908 
L 151.275638 200.308108 
L 151.498949 203.869591 
L 151.945573 194.732428 
L 152.615508 194.732428 
L 152.838819 196.593628 
L 153.062131 199.994194 
L 153.285443 206.964162 
L 153.508754 221.524007 
L 153.732066 203.716594 
L 153.955378 214.401042 
L 154.178689 210.839559 
L 155.071936 178.311383 
L 155.295248 178.158386 
L 155.518559 178.158386 
L 155.741871 185.434348 
L 155.965183 176.450183 
L 156.188494 174.7499 
L 156.411806 174.7499 
L 156.635118 162.204252 
L 156.858429 156.942487 
L 157.305053 167.626935 
L 157.751676 167.626935 
L 158.198299 171.349335 
L 158.421611 171.349335 
L 158.644922 178.4723 
L 158.868234 171.349335 
L 159.091546 173.202615 
L 159.314857 173.202615 
L 159.538169 175.063815 
L 159.761481 182.18678 
L 160.208104 162.518167 
L 160.431416 162.518167 
L 160.654727 166.07965 
L 161.101351 180.639495 
L 161.324662 182.500695 
L 161.547974 182.500695 
L 161.771286 184.361895 
L 162.217909 180.639495 
L 162.441221 180.639495 
L 162.664532 186.062178 
L 162.887844 182.500695 
L 163.111156 191.48486 
L 163.781091 191.48486 
L 164.004402 191.637858 
L 164.227714 195.19934 
L 164.451026 195.19934 
L 164.674337 197.06054 
L 164.897649 189.937575 
L 165.12096 193.499058 
L 165.344272 191.637858 
L 165.790895 207.744988 
L 166.237519 207.744988 
L 166.46083 202.322306 
L 166.684142 189.937575 
L 166.907454 191.798775 
L 167.130765 188.237292 
L 167.354077 188.076375 
L 167.577389 189.937575 
L 168.024012 189.937575 
L 168.247324 191.798775 
L 168.470635 188.237292 
L 168.693947 191.798775 
L 168.917259 191.798775 
L 169.14057 193.652055 
L 169.363882 191.798775 
L 169.587194 193.652055 
L 169.810505 199.074738 
L 170.033817 195.513255 
L 170.257129 195.513255 
L 170.48044 193.652055 
L 170.703752 193.652055 
L 170.927064 191.951772 
L 171.150375 195.513255 
L 171.373687 189.937575 
L 171.596998 188.076375 
L 171.82031 188.076375 
L 172.043622 182.661612 
L 172.266933 188.076375 
L 172.490245 184.361895 
L 172.713557 182.500695 
L 172.936868 188.076375 
L 173.16018 188.076375 
L 173.383492 184.514892 
L 173.606803 184.514892 
L 173.830115 188.076375 
L 174.053427 186.223095 
L 174.276738 188.076375 
L 174.723362 184.361895 
L 174.946673 184.361895 
L 175.169985 180.639495 
L 175.393297 184.361895 
L 175.616608 184.514892 
L 175.83992 184.514892 
L 176.286543 166.707479 
L 176.509855 166.707479 
L 176.733167 170.268961 
L 176.956478 170.268961 
L 177.17979 168.415681 
L 177.403102 170.268961 
L 177.626413 168.415681 
L 177.849725 163.145996 
L 178.073037 168.415681 
L 178.51966 168.415681 
L 178.742971 166.554481 
L 178.966283 166.554481 
L 179.189595 154.169751 
L 179.412906 156.023031 
L 179.636218 156.023031 
L 179.85953 161.445713 
L 180.082841 157.884231 
L 180.306153 157.884231 
L 180.976088 163.459911 
L 181.422711 163.459911 
L 181.646023 167.021393 
L 181.869335 163.459911 
L 182.092646 165.321111 
L 182.315958 158.198145 
L 182.53927 158.198145 
L 182.762581 154.475745 
L 182.985893 156.336945 
L 183.432516 156.336945 
L 183.655828 161.759628 
L 183.87914 154.475745 
L 184.102451 158.037228 
L 184.325763 156.183948 
L 184.549075 156.183948 
L 184.772386 152.622465 
L 184.995698 152.622465 
L 185.21901 159.745431 
L 185.442321 156.183948 
L 185.665633 150.761265 
L 185.888944 152.622465 
L 186.335568 148.900065 
L 186.558879 145.185585 
L 186.782191 145.185585 
L 187.005503 143.324385 
L 187.228814 143.324385 
L 187.452126 152.308551 
L 187.675438 152.308551 
L 187.898749 148.747068 
L 188.122061 152.308551 
L 188.345373 150.447351 
L 188.568684 155.870033 
L 188.791996 144.871671 
L 189.015308 150.294353 
L 189.238619 146.571953 
L 189.685243 143.010471 
L 190.131866 132.173025 
L 190.355178 134.026305 
L 190.578489 141.310188 
L 190.801801 139.609905 
L 191.025113 139.609905 
L 191.248424 137.748705 
L 191.471736 141.463185 
L 191.695048 141.463185 
L 191.918359 147.046785 
L 192.141671 147.046785 
L 192.364982 148.900065 
L 192.588294 141.7771 
L 193.034917 141.7771 
L 193.258229 145.338583 
L 193.481541 152.622465 
L 193.928164 156.336945 
L 194.151476 152.622465 
L 194.374787 145.4995 
L 194.598099 145.4995 
L 194.821411 143.6383 
L 195.044722 145.4995 
L 195.268034 151.07518 
L 195.491346 143.791297 
L 195.937969 152.93638 
L 196.161281 158.198145 
L 196.384592 156.336945 
L 197.054527 156.336945 
L 197.724462 147.35278 
L 197.947774 145.4995 
L 198.171086 138.06262 
L 198.394397 139.92382 
L 198.617709 138.06262 
L 198.841021 138.06262 
L 199.287644 145.185585 
L 199.734267 118.394006 
L 199.957579 120.094289 
L 200.18089 112.818326 
L 200.404202 118.080092 
L 200.627514 128.76454 
L 200.850825 132.173025 
L 201.074137 126.750343 
L 201.297449 124.736145 
L 201.52076 128.450625 
L 201.744072 124.736145 
L 201.967384 126.589425 
L 202.190695 126.589425 
L 202.414007 121.013745 
L 202.86063 128.450625 
L 203.083942 126.589425 
L 203.530565 126.589425 
L 203.753877 133.712391 
L 203.977189 137.273873 
L 204.2005 147.958321 
L 204.423812 146.258039 
L 205.317059 146.258039 
L 205.54037 148.119239 
L 205.763682 151.833719 
L 205.986993 151.833719 
L 206.210305 148.272236 
L 206.433617 151.833719 
L 206.656928 149.980439 
L 206.88024 143.010471 
L 207.103552 146.732871 
L 207.326863 144.871671 
L 207.550175 151.994636 
L 207.773487 155.556119 
L 207.996798 148.433153 
L 208.22011 146.732871 
L 208.666733 153.855836 
L 208.890045 152.147633 
L 209.113357 153.855836 
L 209.336668 154.008833 
L 209.55998 154.008833 
L 209.783292 155.870033 
L 210.006603 154.169751 
L 210.229915 154.169751 
L 210.453227 152.308551 
L 211.123162 168.568679 
L 211.346473 159.584513 
L 211.569785 157.731233 
L 211.793097 154.169751 
L 212.016408 161.292716 
L 212.23972 155.870033 
L 212.463032 166.707479 
L 212.686343 166.707479 
L 213.132966 207.744988 
L 213.57959 207.744988 
L 213.802901 209.606188 
L 214.026213 209.606188 
L 214.472836 204.183506 
L 214.696148 202.322306 
L 214.91946 204.030508 
L 215.142771 200.469026 
L 215.366083 200.469026 
L 215.589395 198.760823 
L 215.812706 202.322306 
L 216.036018 200.469026 
L 216.482641 205.883788 
L 216.929265 197.06054 
L 217.152576 200.77502 
L 217.375888 208.058903 
L 217.5992 206.197703 
L 217.822511 209.759186 
L 218.045823 209.606188 
L 218.269135 202.483223 
L 218.715758 211.459468 
L 218.93907 211.459468 
L 219.162381 209.606188 
L 219.385693 215.181868 
L 220.055628 215.181868 
L 220.278939 208.058903 
L 220.502251 215.181868 
L 220.725563 217.043068 
L 220.948874 213.320668 
L 221.172186 206.35862 
L 221.618809 206.35862 
L 221.842121 199.235655 
L 222.065433 219.210263 
L 222.288744 213.7955 
L 222.512056 217.50998 
L 222.735368 215.64878 
L 222.958679 217.50998 
L 223.405303 217.50998 
L 223.628614 210.387015 
L 223.851926 210.387015 
L 224.075238 213.948498 
L 224.298549 219.37118 
L 224.521861 215.809698 
L 224.745173 217.50998 
L 225.638419 217.50998 
L 225.861731 221.071463 
L 226.085043 228.194428 
L 226.308354 228.194428 
L 226.531666 224.479948 
L 226.754977 222.771746 
L 226.978289 217.356983 
L 227.201601 215.64878 
L 227.424912 217.50998 
L 227.871536 217.50998 
L 228.094847 215.64878 
L 228.318159 215.64878 
L 228.541471 217.50998 
L 228.764782 215.64878 
L 228.988094 215.64878 
L 229.211406 213.7955 
L 229.658029 213.7955 
L 229.881341 215.495783 
L 230.104652 206.197703 
L 230.327964 217.043068 
L 230.551276 215.181868 
L 230.774587 215.181868 
L 230.997899 217.043068 
L 231.221211 211.773383 
L 231.444522 217.196066 
L 231.667834 211.773383 
L 231.891146 211.620386 
L 232.337769 208.2119 
L 232.561081 204.49742 
L 232.784392 208.058903 
L 233.007704 206.35862 
L 233.231016 213.634583 
L 233.454327 211.9343 
L 233.677639 206.35862 
L 233.90095 190.404487 
L 234.124262 190.404487 
L 234.347574 192.265687 
L 234.794197 192.265687 
L 235.017509 195.988087 
L 235.24082 194.279884 
L 235.464132 185.303639 
L 235.687444 188.865121 
L 235.910755 190.565404 
L 236.134067 190.565404 
L 236.357379 188.704204 
L 236.58069 190.404487 
L 236.804002 188.551207 
L 237.027314 188.551207 
L 237.473937 177.705841 
L 237.697249 179.253127 
L 237.92056 182.967607 
L 238.143872 190.090572 
L 238.590495 184.828807 
L 238.813807 182.967607 
L 239.037119 182.967607 
L 239.483742 186.690007 
L 239.707054 181.114327 
L 239.930365 184.828807 
L 240.153677 183.128524 
L 240.376988 179.406124 
L 240.823612 186.690007 
L 241.493547 181.267324 
L 241.716858 188.551207 
L 241.94017 186.690007 
L 242.163482 199.235655 
L 242.386793 197.374455 
L 242.610105 191.951772 
L 242.833417 191.951772 
L 243.056728 190.090572 
L 243.28004 191.951772 
L 243.503352 188.237292 
L 243.726663 202.63622 
L 243.949975 202.63622 
L 244.396598 206.197703 
L 244.61991 206.197703 
L 244.843222 206.35862 
L 245.066533 206.35862 
L 245.289845 193.812972 
L 245.513157 199.235655 
L 245.736468 201.088935 
L 245.95978 201.088935 
L 246.183092 187.923378 
L 246.406403 205.569874 
L 246.629715 198.446908 
L 246.853027 198.446908 
L 247.076338 202.008391 
L 247.522961 218.115522 
L 247.746273 216.254322 
L 248.192896 219.815805 
L 248.416208 235.922935 
L 248.63952 228.79997 
L 248.862831 225.238487 
L 249.086143 227.099687 
L 249.309455 227.099687 
L 249.532766 223.538205 
L 249.756078 223.538205 
L 249.97939 227.099687 
L 250.202701 227.099687 
L 250.426013 225.238487 
L 250.649325 230.66117 
L 251.095948 219.662807 
L 251.31926 223.22429 
L 251.542571 221.36309 
L 251.765883 221.36309 
L 251.989195 217.801607 
L 252.212506 224.924573 
L 252.435818 223.22429 
L 252.65913 223.22429 
L 252.882441 221.36309 
L 253.105753 225.08549 
L 253.329065 223.22429 
L 253.775688 223.22429 
L 253.998999 225.08549 
L 254.222311 219.662807 
L 254.668934 219.662807 
L 254.892246 223.377287 
L 255.115558 221.524007 
L 255.338869 217.962525 
L 255.562181 216.254322 
L 255.785493 218.115522 
L 256.008804 218.115522 
L 256.232116 219.815805 
L 256.455428 212.539842 
L 256.678739 212.539842 
L 256.902051 217.962525 
L 257.125363 216.101325 
L 257.348674 212.539842 
L 257.571986 212.539842 
L 257.795298 214.401042 
L 258.018609 212.539842 
L 258.241921 221.524007 
L 258.465233 221.524007 
L 258.688544 219.662807 
L 258.911856 219.662807 
L 259.358479 226.785773 
L 259.581791 225.08549 
L 260.251726 230.500253 
L 260.475038 223.22429 
L 260.698349 223.22429 
L 260.921661 217.64861 
L 261.144972 223.22429 
L 261.368284 223.22429 
L 261.591596 226.785773 
L 261.814907 221.36309 
L 262.708154 221.36309 
L 262.931466 230.347255 
L 263.154777 226.785773 
L 263.378089 228.486055 
L 263.601401 228.486055 
L 264.271336 233.908738 
L 264.494647 230.347255 
L 264.941271 233.908738 
L 265.164582 241.031703 
L 265.387894 239.170503 
L 265.611206 235.456023 
L 265.834517 237.309303 
L 266.057829 242.731986 
L 266.281141 237.309303 
L 266.504452 242.731986 
L 266.727764 237.309303 
L 266.951076 244.432269 
L 267.174387 244.432269 
L 267.397699 239.170503 
L 267.621011 237.309303 
L 267.844322 237.309303 
L 268.067634 239.170503 
L 268.290945 235.609021 
L 268.737569 248.154669 
L 268.96088 241.031703 
L 269.184192 250.015869 
L 269.407504 253.577352 
L 269.630815 250.015869 
L 269.854127 251.716152 
L 270.30075 239.170503 
L 270.524062 244.432269 
L 270.747374 237.309303 
L 270.970685 242.731986 
L 271.193997 242.731986 
L 271.417309 241.031703 
L 271.64062 237.309303 
L 272.087244 237.309303 
L 272.310555 244.432269 
L 272.533867 240.717789 
L 272.757179 231.733623 
L 272.98049 229.872423 
L 273.203802 224.296743 
L 273.650425 224.296743 
L 273.873737 225.997026 
L 274.097049 218.721063 
L 274.32036 231.419709 
L 274.543672 229.558509 
L 274.766983 229.558509 
L 275.213607 234.981192 
L 275.66023 231.266712 
L 275.883542 227.544312 
L 276.106853 220.107432 
L 276.330165 223.829832 
L 276.553477 218.721063 
L 276.776788 218.560146 
L 277.0001 214.998663 
L 277.223412 216.706866 
L 277.446723 214.998663 
L 277.893347 218.721063 
L 278.116658 206.022418 
L 278.33997 207.875698 
L 278.563282 211.437181 
L 279.009905 211.437181 
L 279.233217 202.460935 
L 279.456528 198.738535 
L 279.903152 207.875698 
L 280.349775 218.721063 
L 280.573087 213.145383 
L 280.796398 213.145383 
L 281.01971 198.738535 
L 281.243022 206.022418 
L 281.466333 200.599735 
L 281.689645 205.861501 
L 281.912956 196.724338 
L 282.136268 194.863138 
L 282.582891 203.533389 
L 282.806203 196.096509 
L 283.029515 201.833106 
L 283.252826 200.132823 
L 283.476138 203.847303 
L 283.69945 201.986103 
L 284.369385 201.986103 
L 284.592696 203.847303 
L 284.816008 207.408786 
L 285.03932 214.692669 
L 285.262631 214.692669 
L 285.485943 212.831469 
L 285.709255 216.545949 
L 285.932566 207.408786 
L 286.155878 207.408786 
L 286.37919 212.831469 
L 286.602501 214.845666 
L 286.825813 223.829832 
L 287.049125 223.829832 
L 287.272436 218.407149 
L 287.495748 218.407149 
L 287.71906 221.968632 
L 288.165683 210.970269 
L 288.388994 209.269986 
L 288.612306 214.692669 
L 288.835618 211.131186 
L 289.058929 220.107432 
L 289.282241 216.545949 
L 289.728864 216.545949 
L 289.952176 218.407149 
L 290.398799 227.391314 
L 290.845423 227.391314 
L 291.068734 219.954434 
L 291.515358 219.954434 
L 291.738669 214.531752 
L 291.961981 218.093234 
L 292.185293 212.670552 
L 292.408604 210.817272 
L 292.631916 210.656354 
L 292.855228 188.345714 
L 293.078539 211.57581 
L 293.301851 211.57581 
L 293.525163 211.414893 
L 293.971786 198.877165 
L 294.195098 207.85341 
L 294.641721 202.591645 
L 294.865033 190.206914 
L 295.088344 192.221112 
L 295.311656 156.767202 
L 295.534967 146.082754 
L 295.758279 147.936034 
L 295.981591 140.813068 
L 296.204902 151.658434 
L 296.428214 144.374551 
L 296.651526 140.973986 
L 296.874837 140.813068 
L 297.098149 149.797234 
L 297.321461 144.535468 
L 297.768084 156.920199 
L 297.991396 153.358717 
L 298.438019 158.781399 
L 298.661331 159.095314 
L 298.884642 159.095314 
L 299.107954 155.533831 
L 299.331266 150.111148 
L 299.554577 148.249948 
L 299.777889 135.71222 
L 300.447824 140.813068 
L 300.671136 139.112786 
L 300.894447 139.273703 
L 301.117759 144.535468 
L 301.341071 146.396668 
L 301.564382 166.057362 
L 301.787694 173.180327 
L 302.011006 185.725975 
L 302.457629 182.164493 
L 302.68094 182.164493 
L 303.127564 189.287458 
L 303.350875 183.864775 
L 303.574187 183.864775 
L 303.797499 180.150295 
L 304.02081 169.30493 
L 304.244122 172.866413 
L 304.914057 149.330322 
L 305.137369 143.907639 
L 305.36068 149.169405 
L 305.807304 152.57789 
L 306.030615 158.15357 
L 306.477239 149.016407 
L 306.70055 156.29237 
L 307.147174 160.01477 
L 307.370485 160.01477 
L 307.593797 168.991015 
L 307.817109 167.137735 
L 308.04042 163.576253 
L 308.263732 167.137735 
L 308.487044 167.137735 
L 309.156978 172.713415 
L 309.38029 167.290733 
L 309.603602 168.991015 
L 309.826913 160.01477 
L 310.050225 163.72925 
L 310.273537 161.86805 
L 310.496848 168.991015 
L 310.943472 163.415335 
L 311.166783 161.715053 
L 311.390095 156.29237 
L 311.613407 160.01477 
L 311.836718 161.715053 
L 312.06003 160.01477 
L 312.283342 160.01477 
L 312.729965 167.137735 
L 313.176588 154.43117 
L 313.3999 159.700855 
L 313.623212 161.554135 
L 313.846523 161.401138 
L 314.069835 159.700855 
L 314.516458 152.57789 
L 314.73977 152.57789 
L 315.409705 147.155207 
L 315.856328 150.71669 
L 316.07964 150.71669 
L 316.302951 147.155207 
L 316.526263 147.155207 
L 316.749575 149.016407 
L 316.972886 149.016407 
L 317.196198 154.43117 
L 317.41951 152.57789 
L 317.642821 154.43117 
L 317.866133 152.57789 
L 318.089445 152.57789 
L 318.312756 150.869687 
L 318.75938 154.43117 
L 319.206003 150.71669 
L 319.429315 150.71669 
L 319.652626 152.416973 
L 319.875938 175.960983 
L 320.322561 165.276535 
L 320.545873 167.137735 
L 320.769185 170.699218 
L 320.992496 168.838018 
L 321.215808 176.274898 
L 321.43912 174.574615 
L 321.662431 178.289095 
L 321.885743 178.289095 
L 322.109055 176.427895 
L 322.332366 178.289095 
L 322.555678 178.289095 
L 322.778989 180.150295 
L 323.002301 180.150295 
L 323.225613 176.588813 
L 323.895548 182.011495 
L 324.118859 182.011495 
L 324.342171 183.864775 
L 324.565483 182.011495 
L 324.788794 190.834743 
L 325.012106 192.695943 
L 325.458729 189.287458 
L 326.128664 207.569703 
L 326.351976 198.585538 
L 326.575288 201.986103 
L 326.798599 196.571341 
L 327.021911 200.132823 
L 327.245223 200.285821 
L 327.691846 189.448375 
L 327.915158 196.724338 
L 328.138469 196.724338 
L 328.585093 193.009858 
L 328.808404 194.863138 
L 329.031716 200.446738 
L 329.255028 202.300018 
L 329.478339 202.300018 
L 329.701651 196.885255 
L 329.924962 195.177053 
L 330.148274 191.462573 
L 330.371586 193.323773 
L 330.594897 191.462573 
L 330.818209 195.177053 
L 331.041521 193.323773 
L 331.264832 198.738535 
L 331.488144 200.752733 
L 331.711456 204.314215 
L 332.158079 200.599735 
L 332.381391 183.864775 
L 332.828014 191.301655 
L 333.051326 189.448375 
L 333.274637 189.448375 
L 333.497949 191.301655 
L 333.721261 191.301655 
L 333.944572 193.162855 
L 334.391196 189.448375 
L 335.061131 195.024055 
L 335.284442 193.47677 
L 335.507754 193.162855 
L 335.731066 189.448375 
L 336.401001 189.448375 
L 336.847624 185.725975 
L 337.070935 194.863138 
L 337.294247 194.710141 
L 337.517559 198.271623 
L 337.74087 198.271623 
L 337.964182 201.986103 
L 338.187494 194.710141 
L 338.410805 196.410423 
L 338.634117 205.547586 
L 338.857429 203.847303 
L 339.08074 207.569703 
L 339.527364 207.569703 
L 339.750675 212.984466 
L 340.197299 167.58236 
L 340.42061 164.020877 
L 340.643922 174.552328 
L 340.867234 158.445197 
L 341.090545 151.322232 
L 341.313857 153.183432 
L 341.76048 153.183432 
L 341.983792 136.762386 
L 342.207104 133.200903 
L 342.430415 136.915383 
L 342.653727 143.885352 
L 343.10035 135.062103 
L 343.323662 133.200903 
L 343.546973 149.147117 
L 343.770285 154.408882 
L 343.993597 154.408882 
L 344.216908 156.270082 
L 344.44022 149.461032 
L 344.663532 153.022514 
L 345.333467 147.599832 
L 345.556778 147.599832 
L 345.78009 151.322232 
L 346.003402 153.022514 
L 346.450025 143.885352 
L 346.673337 143.724434 
L 346.896648 141.871154 
L 347.11996 145.585634 
L 347.343272 147.446834 
L 347.566583 145.746552 
L 347.789895 142.024152 
L 348.45983 147.446834 
L 348.683142 151.161314 
L 348.906453 151.161314 
L 349.129765 147.599832 
L 349.576388 147.599832 
L 349.7997 151.161314 
L 350.023012 149.308034 
L 350.469635 140.162952 
L 350.692946 140.009954 
L 350.916258 141.871154 
L 351.362881 141.871154 
L 351.586193 138.148754 
L 351.809505 138.148754 
L 352.256128 145.432637 
L 352.702751 148.99412 
L 352.926063 147.285917 
L 353.372686 147.285917 
L 353.595998 177.638978 
L 354.042621 177.638978 
L 354.265933 181.200461 
L 354.489245 188.170429 
L 354.712556 184.608947 
L 354.935868 184.608947 
L 355.15918 193.432195 
L 355.382491 191.570995 
L 355.605803 196.84068 
L 355.829115 198.69396 
L 356.275738 198.69396 
L 356.49905 200.55516 
L 356.722361 198.69396 
L 357.168984 202.41636 
L 357.392296 205.977843 
L 357.615608 204.26964 
L 357.838919 198.854877 
L 358.062231 206.13084 
L 358.285543 204.26964 
L 358.508854 206.13084 
L 358.955478 202.569357 
L 359.178789 199.007875 
L 359.625413 207.99204 
L 359.848724 199.007875 
L 360.072036 199.007875 
L 360.295348 200.708157 
L 360.518659 200.55516 
L 360.741971 202.41636 
L 360.965283 198.69396 
L 361.188594 198.69396 
L 361.411906 200.55516 
L 361.635218 200.55516 
L 361.858529 196.993677 
L 362.081841 185.995315 
L 362.305153 189.556797 
L 362.528464 189.556797 
L 362.751776 193.11828 
L 362.975088 185.842317 
L 363.198399 185.6814 
L 363.421711 187.695597 
L 363.645023 182.280835 
L 363.868334 189.4038 
L 364.538269 189.4038 
L 365.431516 174.53004 
L 365.654827 174.683037 
L 365.878139 174.683037 
L 366.101451 180.10572 
L 366.324762 176.38332 
L 366.548074 185.214488 
L 367.218009 157.328168 
L 367.441321 153.766685 
L 367.664632 135.798355 
L 367.887944 137.812552 
L 368.111256 135.798355 
L 368.334567 126.661192 
L 368.557879 93.505187 
L 368.781191 102.650269 
L 369.004502 106.364749 
L 369.227814 98.927869 
L 369.451126 98.774872 
L 369.674437 107.912035 
L 369.897749 109.926232 
L 370.121061 98.927869 
L 370.567684 109.773235 
L 370.790995 113.648632 
L 371.014307 122.785795 
L 371.46093 117.363112 
L 371.684242 117.363112 
L 371.907554 121.085512 
L 372.130865 119.224312 
L 372.354177 119.224312 
L 372.577489 124.646995 
L 372.8008 117.363112 
L 373.024112 117.210115 
L 373.247424 119.063395 
L 373.470735 122.785795 
L 374.14067 122.785795 
L 374.363982 128.361475 
L 374.587294 128.361475 
L 374.810605 130.222675 
L 375.033917 128.361475 
L 375.257229 128.361475 
L 375.48054 122.785795 
L 375.703852 126.500275 
L 375.927164 122.785795 
L 376.150475 122.785795 
L 376.373787 120.924595 
L 376.597099 115.501912 
L 376.82041 126.347277 
L 377.043722 122.785795 
L 377.267034 122.785795 
L 377.490345 119.063395 
L 377.713657 124.33308 
L 377.936968 124.33308 
L 378.16028 128.04756 
L 378.383592 133.62324 
L 378.606903 128.04756 
L 379.053527 144.307688 
L 379.276838 137.031725 
L 379.50015 133.470243 
L 379.723462 127.894563 
L 379.946773 135.170525 
L 380.393397 127.733645 
L 380.616708 129.594845 
L 380.84002 140.746205 
L 381.063332 138.892925 
L 381.286643 133.309325 
L 381.509955 131.456045 
L 381.733267 142.140493 
L 381.956578 140.279293 
L 382.403202 154.839139 
L 382.626513 150.963742 
L 382.849825 154.678222 
L 383.073137 150.963742 
L 383.296448 159.78699 
L 383.51976 174.507752 
L 384.189695 180.083432 
L 384.413007 178.38315 
L 384.636318 171.099267 
L 384.85963 176.361032 
L 385.082941 174.507752 
L 385.306253 170.94627 
L 385.529565 170.94627 
L 385.752876 174.346835 
L 385.976188 165.36267 
L 386.1995 168.924152 
L 386.422811 166.909955 
L 386.646123 203.627443 
L 386.869435 194.643278 
L 387.092746 225.149337 
L 387.316058 227.010537 
L 387.53937 221.587854 
L 387.762681 223.288137 
L 387.985993 223.449054 
L 388.209305 214.464889 
L 388.432616 216.326089 
L 388.655928 210.903406 
L 389.102551 191.39571 
L 389.325863 191.39571 
L 389.549175 198.518675 
L 389.772486 193.095992 
L 389.995798 198.357758 
L 390.442421 191.39571 
L 390.665733 193.095992 
L 390.889045 201.91924 
L 391.112356 205.480723 
L 391.335668 221.434857 
L 391.782291 199.905043 
L 392.005603 201.766243 
L 392.228914 201.766243 
L 392.452226 196.504478 
L 392.675538 194.643278 
L 392.898849 203.627443 
L 393.122161 198.20476 
L 393.345473 212.450691 
L 393.568784 212.450691 
L 393.792096 223.288137 
L 394.015408 221.434857 
L 394.238719 221.587854 
L 394.462031 228.871737 
L 394.685343 228.871737 
L 394.908654 225.310254 
L 395.131966 230.572019 
L 395.578589 221.587854 
L 395.801901 225.149337 
L 396.248524 235.994702 
L 396.471836 230.725017 
L 396.695148 234.447417 
L 396.918459 221.901769 
L 397.141771 227.163534 
L 397.365083 227.163534 
L 397.588394 232.586217 
L 397.811706 234.133502 
L 398.035018 237.847982 
L 398.481641 234.133502 
L 398.704952 230.411102 
L 398.928264 237.534067 
L 399.151576 230.411102 
L 399.374887 235.833785 
L 399.598199 233.972585 
L 399.821511 219.726654 
L 400.044822 214.311891 
L 400.268134 219.573657 
L 400.714757 215.851257 
L 400.938069 221.273939 
L 401.161381 223.135139 
L 401.384692 215.851257 
L 401.608004 217.712457 
L 401.831316 223.135139 
L 402.054627 217.712457 
L 402.277939 221.273939 
L 402.501251 215.851257 
L 402.724562 215.851257 
L 402.947874 224.835422 
L 403.394497 215.698259 
L 404.064432 201.452329 
L 404.287744 201.452329 
L 404.511056 194.329363 
L 404.957679 190.920878 
L 405.18099 194.48236 
L 405.404302 199.905043 
L 405.850925 199.905043 
L 406.074237 192.782078 
L 406.297549 192.782078 
L 406.52086 190.920878 
L 406.744172 192.782078 
L 406.967484 190.920878 
L 407.414107 185.506115 
L 407.637419 183.644915 
L 407.86073 187.206398 
L 408.084042 187.206398 
L 408.307354 192.782078 
L 408.530665 189.220595 
L 408.753977 196.34356 
L 408.977289 196.34356 
L 409.423912 189.220595 
L 409.647224 180.397347 
L 409.870535 189.220595 
L 410.093847 178.536147 
L 410.317159 176.674947 
L 410.54047 189.220595 
L 410.987094 178.38315 
L 411.210405 178.38315 
L 411.433717 180.23643 
L 411.657029 187.359395 
L 411.88034 167.698702 
L 412.103652 167.537784 
L 412.326963 165.837502 
L 412.550275 165.837502 
L 412.773587 172.960467 
L 412.996898 163.976302 
L 413.22021 172.960467 
L 413.443522 173.113464 
L 413.890145 169.238067 
L 414.56008 169.238067 
L 414.783392 167.384787 
L 415.006703 169.238067 
L 415.230015 165.523587 
L 415.453327 159.947907 
L 415.676638 160.100904 
L 415.89995 161.801187 
L 416.123262 158.086707 
L 416.346573 159.947907 
L 416.569885 158.400622 
L 416.793197 149.577373 
L 417.016508 151.277656 
L 417.463132 160.261822 
L 417.686443 162.115102 
L 418.133067 158.400622 
L 418.356378 158.400622 
L 418.57969 167.384787 
L 418.803002 160.261822 
L 419.026313 158.400622 
L 419.249625 160.261822 
L 419.472936 169.238067 
L 419.696248 167.537784 
L 419.91956 167.537784 
L 420.142871 163.976302 
L 420.366183 163.976302 
L 420.589495 160.261822 
L 420.812806 151.116739 
L 421.036118 159.947907 
L 421.25943 156.539422 
L 421.706053 156.539422 
L 422.152676 160.414819 
L 422.375988 160.414819 
L 422.5993 158.553619 
L 422.822611 158.400622 
L 423.045923 152.977939 
L 423.269235 154.839139 
L 423.492546 152.977939 
L 423.715858 152.977939 
L 423.93917 138.732008 
L 424.162481 147.716173 
L 424.609105 138.732008 
L 424.832416 140.432291 
L 425.055728 140.432291 
L 425.27904 143.993773 
L 425.725663 140.279293 
L 425.948974 135.017528 
L 426.172286 125.719448 
L 426.395598 138.418093 
L 426.618909 134.856611 
L 426.842221 134.703613 
L 427.288844 134.703613 
L 427.735468 152.824942 
L 427.958779 150.963742 
L 428.182091 147.402259 
L 428.405403 147.402259 
L 428.852026 143.679859 
L 429.298649 149.102542 
L 429.521961 150.963742 
L 429.745273 147.402259 
L 429.968584 151.116739 
L 430.191896 145.854973 
L 430.415208 143.993773 
L 430.638519 147.555256 
L 430.861831 145.701976 
L 431.085143 142.140493 
L 431.308454 154.678222 
L 431.531766 158.086707 
L 431.755078 154.525224 
L 431.978389 156.386424 
L 432.201701 149.263459 
L 432.425013 147.402259 
L 432.648324 159.947907 
L 433.094947 150.963742 
L 433.318259 150.963742 
L 433.541571 152.824942 
L 433.764882 152.824942 
L 433.988194 90.86316 
L 434.211506 104.956093 
L 434.658129 101.233693 
L 434.881441 106.656376 
L 435.328064 101.233693 
L 435.774687 83.112365 
L 435.997999 86.834765 
L 436.444622 90.396248 
L 436.891246 84.973565 
L 437.114557 84.973565 
L 437.337869 77.8506 
L 437.561181 77.8506 
L 437.784492 79.7118 
L 438.007804 75.9894 
L 438.231116 66.69924 
L 438.454427 62.97684 
L 438.677739 61.12356 
L 439.347674 49.811283 
L 439.570985 55.53996 
L 439.794297 53.68668 
L 440.017609 61.12356 
L 440.24092 62.97684 
L 440.464232 70.099805 
L 440.687544 64.83804 
L 441.58079 88.535048 
L 441.804102 88.535048 
L 442.027414 84.820568 
L 442.250725 90.082333 
L 442.474037 82.798451 
L 442.697349 86.359933 
L 442.92066 80.784253 
L 443.143972 86.359933 
L 443.367284 78.930973 
L 443.590595 78.930973 
L 444.037219 88.068136 
L 444.26053 75.522488 
L 444.483842 80.945171 
L 444.707154 75.675485 
L 444.930465 75.675485 
L 445.153777 91.629619 
L 445.377089 95.344099 
L 445.6004 97.044382 
L 445.823712 91.629619 
L 446.047024 97.044382 
L 446.270335 97.044382 
L 446.493647 102.314067 
L 446.716958 102.467064 
L 446.94027 100.766782 
L 447.163582 111.45123 
L 447.386893 107.889747 
L 447.610205 121.97476 
L 447.833517 114.851795 
L 448.056828 118.574195 
L 448.28014 120.274478 
L 448.503452 123.83596 
L 448.726763 118.574195 
L 448.950075 120.274478 
L 449.173387 120.274478 
L 449.396698 118.574195 
L 449.62001 120.274478 
L 449.843322 129.097726 
L 450.066633 127.397443 
L 450.289945 127.397443 
L 450.513257 125.536243 
L 450.736568 125.536243 
L 450.95988 127.397443 
L 451.183192 131.119843 
L 451.629815 122.135678 
L 451.853127 123.83596 
L 452.076438 127.397443 
L 452.29975 132.973123 
L 452.523062 127.397443 
L 452.746373 132.973123 
L 452.969685 132.973123 
L 453.192996 140.257006 
L 453.63962 131.433758 
L 453.862931 127.711358 
L 454.086243 127.711358 
L 454.309555 126.011075 
L 454.532866 127.711358 
L 454.756178 120.435395 
L 455.202801 113.31243 
L 455.872736 118.574195 
L 456.096048 107.72883 
L 456.31936 106.028547 
L 456.542671 107.72883 
L 456.765983 107.72883 
L 456.989295 106.028547 
L 457.435918 106.028547 
L 457.65923 116.873912 
L 457.882541 118.574195 
L 458.329165 118.574195 
L 458.552476 116.873912 
L 458.775788 120.435395 
L 458.9991 111.45123 
L 459.222411 111.45123 
L 459.445723 113.151512 
L 459.669035 116.712995 
L 459.892346 97.044382 
L 460.115658 111.137315 
L 460.338969 109.276115 
L 460.562281 111.137315 
L 460.785593 109.276115 
L 461.008904 96.57747 
L 461.455528 92.86299 
L 461.678839 92.86299 
L 461.902151 94.71627 
L 462.125463 98.591667 
L 462.348774 96.891384 
L 462.795398 84.659651 
L 463.018709 84.506653 
L 463.465333 99.066499 
L 463.688644 100.919779 
L 463.911956 104.642179 
L 464.358579 100.919779 
L 464.581891 102.780979 
L 464.805203 112.079059 
L 465.028514 103.094893 
L 465.251826 104.795176 
L 465.475138 108.517576 
L 465.921761 108.517576 
L 466.145073 99.219496 
L 466.368384 108.356659 
L 466.815008 97.519213 
L 467.038319 106.656376 
L 467.261631 99.380413 
L 467.484942 97.519213 
L 467.708254 104.642179 
L 467.931566 97.519213 
L 468.154877 101.233693 
L 468.378189 101.233693 
L 468.601501 99.380413 
L 468.824812 102.941896 
L 469.048124 101.233693 
L 469.271436 101.233693 
L 469.494747 99.380413 
L 469.718059 106.503379 
L 469.941371 99.380413 
L 470.164682 99.380413 
L 470.387994 97.519213 
L 470.611306 104.642179 
L 470.834617 102.941896 
L 471.057929 104.795176 
L 471.281241 108.356659 
L 471.504552 113.779342 
L 471.727864 122.763507 
L 471.951176 115.793539 
L 472.174487 121.216222 
L 472.397799 117.654739 
L 472.621111 123.391336 
L 472.844422 119.829853 
L 473.067734 126.952819 
L 473.291046 128.814019 
L 473.514357 126.952819 
L 473.96098 130.667299 
L 474.407604 126.791902 
L 474.630915 126.791902 
L 474.854227 128.653102 
L 475.077539 126.791902 
L 475.30085 133.914867 
L 475.524162 137.47635 
L 475.747474 146.460515 
L 475.970785 137.47635 
L 476.194097 133.914867 
L 476.64072 143.05995 
L 476.864032 139.498467 
L 477.087344 148.474712 
L 477.310655 146.77443 
L 477.533967 154.21131 
L 477.757279 157.772792 
L 477.98059 159.473075 
L 478.203902 173.719006 
L 478.873837 181.761427 
L 479.32046 182.075342 
L 479.543772 174.952377 
L 479.767084 173.252094 
L 479.990395 167.990329 
L 480.437019 189.359225 
L 480.66033 189.359225 
L 480.883642 189.512222 
L 481.106953 189.512222 
L 481.330265 185.797742 
L 481.553577 178.674777 
L 481.776888 182.389257 
L 482.0002 182.389257 
L 482.223512 178.674777 
L 482.446823 176.966574 
L 482.670135 169.529694 
L 482.893447 180.214142 
L 483.116758 183.775625 
L 483.34007 174.799379 
L 483.563382 180.061145 
L 483.786693 178.360862 
L 484.010005 180.061145 
L 484.233317 176.499662 
L 484.456628 194.307075 
L 484.67994 199.568841 
L 484.903252 213.814772 
L 485.126563 237.044868 
L 485.349875 244.167833 
L 485.573187 244.167833 
L 485.796498 242.306633 
L 486.01981 233.322468 
L 486.243122 238.592153 
L 486.689745 242.306633 
L 486.913057 247.568399 
L 487.136368 260.114047 
L 487.35968 258.413764 
L 487.582991 262.289161 
L 487.806303 246.18203 
L 488.029615 242.620548 
L 488.252926 242.620548 
L 488.476238 233.636382 
L 488.922861 242.620548 
L 489.146173 240.759348 
L 489.369485 233.483385 
L 489.592796 231.622185 
L 489.816108 233.322468 
L 490.03942 226.199502 
L 490.262731 222.798937 
L 490.486043 224.49922 
L 490.932666 206.377892 
L 491.155978 206.377892 
L 491.37929 202.663412 
L 491.602601 211.639657 
L 491.825913 192.131961 
L 492.049225 190.431678 
L 492.272536 183.308713 
L 492.495848 179.74723 
L 492.942471 176.02483 
L 493.165783 176.02483 
L 493.389095 166.887667 
L 493.612406 174.010633 
L 493.835718 172.149433 
L 494.05903 166.887667 
L 494.282341 154.189022 
L 494.505653 168.58795 
L 494.728964 168.58795 
L 494.952276 159.611705 
L 495.398899 171.996435 
L 495.622211 166.420755 
L 495.845523 166.259838 
L 496.068834 151.86091 
L 496.292146 169.982238 
L 496.738769 169.982238 
L 496.962081 171.682521 
L 497.185393 180.666686 
L 497.408704 173.543721 
L 497.632016 173.543721 
L 497.855328 173.696718 
L 498.078639 195.379529 
L 498.301951 193.679246 
L 498.525263 200.802212 
L 498.748574 199.254926 
L 499.195198 204.677609 
L 499.418509 200.955209 
L 499.641821 202.816409 
L 499.865133 200.955209 
L 500.088444 195.379529 
L 500.311756 197.079812 
L 500.535068 193.365332 
L 500.758379 197.079812 
L 500.981691 195.379529 
L 501.205003 195.379529 
L 501.428314 191.665049 
L 501.651626 205.91098 
L 501.874937 205.91098 
L 502.098249 202.349497 
L 502.321561 193.518329 
L 502.768184 193.518329 
L 502.991496 189.803849 
L 503.214807 184.228169 
L 503.438119 191.504132 
L 503.661431 187.942649 
L 503.884742 191.665049 
L 504.108054 186.395364 
L 504.331366 193.518329 
L 504.554677 189.956846 
L 504.777989 184.542084 
L 505.224612 189.956846 
L 505.447924 184.542084 
L 505.894547 180.819684 
L 506.117859 187.942649 
L 506.341171 189.803849 
L 506.564482 180.819684 
L 506.787794 186.081449 
L 507.011106 184.381166 
L 507.457729 171.835518 
L 507.681041 173.543721 
L 507.904352 169.821321 
L 508.127664 155.57539 
L 508.350975 162.698355 
L 508.574287 160.531161 
L 508.797599 148.13851 
L 509.02091 168.121038 
L 509.244222 171.835518 
L 509.467534 166.573753 
L 509.690845 155.736307 
L 509.914157 136.067694 
L 510.137469 137.767977 
L 510.36078 166.259838 
L 510.584092 166.259838 
L 510.807404 168.121038 
L 511.030715 166.259838 
L 511.254027 160.845075 
L 511.477339 164.559555 
L 511.70065 166.259838 
L 511.923962 178.491572 
L 512.147274 162.545358 
L 512.593897 239.059065 
L 512.817209 233.636382 
L 513.04052 174.952377 
L 513.263832 171.237897 
L 513.487144 174.952377 
L 513.710455 218.157081 
L 513.933767 223.740681 
L 514.157079 232.403012 
L 514.38039 226.988249 
L 514.827014 239.525977 
L 515.050325 243.248377 
L 515.273637 259.508505 
L 515.496948 261.369705 
L 515.72026 265.084185 
L 515.943572 263.230905 
L 516.166883 265.084185 
L 516.390195 279.177119 
L 516.613507 281.038319 
L 516.836818 346.84529 
L 517.06013 321.600996 
L 517.283442 159.320078 
L 517.506753 305.026954 
L 517.730065 299.451274 
L 517.953377 159.114585 
L 518.176688 176.921999 
L 518.4 107.064345 
L 518.4 107.064345 
" style="fill:none;stroke:#4c72b0;stroke-linecap:round;stroke-width:1.75;"/>
   </g>
   <g id="patch_3">
    <path d="M 72 356.4 
L 518.4 356.4 
" style="fill:none;"/>
   </g>
   <g id="patch_4">
    <path d="M 72 39.6 
L 518.4 39.6 
" style="fill:none;"/>
   </g>
   <g id="patch_5">
    <path d="M 72 356.4 
L 72 39.6 
" style="fill:none;"/>
   </g>
   <g id="patch_6">
    <path d="M 518.4 356.4 
L 518.4 39.6 
" style="fill:none;"/>
   </g>
   <g id="text_15">
    <!-- OI - 449.68215834108105 * TF -->
    <defs>
     <path d="M 9.125 0 
L 9.125 10.6875 
L 18.65625 10.6875 
L 18.65625 0 
z
" id="LiberationSans-2e"/>
     <path d="M 9.234375 0 
L 9.234375 68.796875 
L 18.5625 68.796875 
L 18.5625 0 
z
" id="LiberationSans-49"/>
     <path d="M 73 34.71875 
Q 73 26.65625 70.671875 20.0625 
Q 68.359375 13.484375 63.96875 8.796875 
Q 59.578125 4.109375 53.21875 1.5625 
Q 46.875 -0.984375 38.8125 -0.984375 
Q 30.328125 -0.984375 23.921875 1.671875 
Q 17.53125 4.34375 13.28125 9.109375 
Q 9.03125 13.875 6.875 20.40625 
Q 4.734375 26.953125 4.734375 34.71875 
Q 4.734375 42.78125 6.984375 49.265625 
Q 9.234375 55.765625 13.578125 60.328125 
Q 17.921875 64.890625 24.296875 67.359375 
Q 30.671875 69.828125 38.921875 69.828125 
Q 47.125 69.828125 53.484375 67.328125 
Q 59.859375 64.84375 64.171875 60.25 
Q 68.5 55.671875 70.75 49.171875 
Q 73 42.671875 73 34.71875 
M 63.484375 34.71875 
Q 63.484375 40.921875 61.890625 46 
Q 60.296875 51.078125 57.203125 54.6875 
Q 54.109375 58.296875 49.515625 60.25 
Q 44.921875 62.203125 38.921875 62.203125 
Q 32.765625 62.203125 28.125 60.25 
Q 23.484375 58.296875 20.375 54.6875 
Q 17.28125 51.078125 15.734375 46 
Q 14.203125 40.921875 14.203125 34.71875 
Q 14.203125 28.515625 15.796875 23.359375 
Q 17.390625 18.21875 20.484375 14.484375 
Q 23.578125 10.75 28.1875 8.671875 
Q 32.8125 6.59375 38.8125 6.59375 
Q 45.265625 6.59375 49.921875 8.6875 
Q 54.59375 10.796875 57.59375 14.53125 
Q 60.59375 18.265625 62.03125 23.4375 
Q 63.484375 28.609375 63.484375 34.71875 
" id="LiberationSans-4f"/>
     <path d="M 35.15625 61.1875 
L 35.15625 0 
L 25.875 0 
L 25.875 61.1875 
L 2.25 61.1875 
L 2.25 68.796875 
L 58.796875 68.796875 
L 58.796875 61.1875 
z
" id="LiberationSans-54"/>
     <path d="M 17.53125 61.1875 
L 17.53125 35.59375 
L 55.90625 35.59375 
L 55.90625 27.875 
L 17.53125 27.875 
L 17.53125 0 
L 8.203125 0 
L 8.203125 68.796875 
L 57.078125 68.796875 
L 57.078125 61.1875 
z
" id="LiberationSans-46"/>
     <path d="M 22.265625 54.390625 
L 35.15625 59.421875 
L 37.359375 52.984375 
L 23.578125 49.421875 
L 32.625 37.203125 
L 26.8125 33.6875 
L 19.484375 46.296875 
L 11.859375 33.796875 
L 6.0625 37.3125 
L 15.28125 49.421875 
L 1.609375 52.984375 
L 3.8125 59.515625 
L 16.84375 54.296875 
L 16.265625 68.796875 
L 22.90625 68.796875 
z
" id="LiberationSans-2a"/>
     <path d="M 43.015625 15.578125 
L 43.015625 0 
L 34.71875 0 
L 34.71875 15.578125 
L 2.296875 15.578125 
L 2.296875 22.40625 
L 33.796875 68.796875 
L 43.015625 68.796875 
L 43.015625 22.515625 
L 52.6875 22.515625 
L 52.6875 15.578125 
z
M 34.71875 58.890625 
Q 34.625 58.640625 34.234375 57.9375 
Q 33.84375 57.234375 33.34375 56.34375 
Q 32.859375 55.46875 32.34375 54.5625 
Q 31.84375 53.65625 31.453125 53.078125 
L 13.8125 27.09375 
Q 13.578125 26.703125 13.109375 26.0625 
Q 12.640625 25.4375 12.15625 24.78125 
Q 11.671875 24.125 11.171875 23.484375 
Q 10.6875 22.859375 10.40625 22.515625 
L 34.71875 22.515625 
z
" id="LiberationSans-34"/>
    </defs>
    <g style="fill:#262626;" transform="translate(212.14875 34.6)scale(0.12 -0.12)">
     <use xlink:href="#LiberationSans-4f"/>
     <use x="77.783203125" xlink:href="#LiberationSans-49"/>
     <use x="105.56640625" xlink:href="#LiberationSans-20"/>
     <use x="133.349609375" xlink:href="#LiberationSans-2d"/>
     <use x="166.650390625" xlink:href="#LiberationSans-20"/>
     <use x="194.43359375" xlink:href="#LiberationSans-34"/>
     <use x="250.048828125" xlink:href="#LiberationSans-34"/>
     <use x="305.6640625" xlink:href="#LiberationSans-39"/>
     <use x="361.279296875" xlink:href="#LiberationSans-2e"/>
     <use x="389.0625" xlink:href="#LiberationSans-36"/>
     <use x="444.677734375" xlink:href="#LiberationSans-38"/>
     <use x="500.29296875" xlink:href="#LiberationSans-32"/>
     <use x="555.908203125" xlink:href="#LiberationSans-31"/>
     <use x="611.5234375" xlink:href="#LiberationSans-35"/>
     <use x="667.138671875" xlink:href="#LiberationSans-38"/>
     <use x="722.75390625" xlink:href="#LiberationSans-33"/>
     <use x="778.369140625" xlink:href="#LiberationSans-34"/>
     <use x="833.984375" xlink:href="#LiberationSans-31"/>
     <use x="889.599609375" xlink:href="#LiberationSans-30"/>
     <use x="945.21484375" xlink:href="#LiberationSans-38"/>
     <use x="1000.830078125" xlink:href="#LiberationSans-31"/>
     <use x="1056.4453125" xlink:href="#LiberationSans-30"/>
     <use x="1112.060546875" xlink:href="#LiberationSans-35"/>
     <use x="1167.67578125" xlink:href="#LiberationSans-20"/>
     <use x="1195.458984375" xlink:href="#LiberationSans-2a"/>
     <use x="1234.375" xlink:href="#LiberationSans-20"/>
     <use x="1262.142578125" xlink:href="#LiberationSans-54"/>
     <use x="1323.2265625" xlink:href="#LiberationSans-46"/>
    </g>
   </g>
  </g>
 </g>
 <defs>
  <clipPath id="pfd7535505a">
   <rect height="316.8" width="446.4" x="72.0" y="39.6"/>
  </clipPath>
 </defs>
</svg>
