<?xml version="1.0" encoding="utf-8" standalone="no"?>
<!DOCTYPE svg PUBLIC "-//W3C//DTD SVG 1.1//EN"
  "http://www.w3.org/Graphics/SVG/1.1/DTD/svg11.dtd">
<!-- Created with matplotlib (http://matplotlib.org/) -->
<svg height="396pt" version="1.1" viewBox="0 0 576 396" width="576pt" xmlns="http://www.w3.org/2000/svg" xmlns:xlink="http://www.w3.org/1999/xlink">
 <defs>
  <style type="text/css">
*{stroke-linecap:butt;stroke-linejoin:round;stroke-miterlimit:100000;}
  </style>
 </defs>
 <g id="figure_1">
  <g id="patch_1">
   <path d="M 0 396 
L 576 396 
L 576 0 
L 0 0 
z
" style="fill:#ffffff;"/>
  </g>
  <g id="axes_1">
   <g id="patch_2">
    <path d="M 72 356.4 
L 518.4 356.4 
L 518.4 39.6 
L 72 39.6 
z
" style="fill:#eaeaf2;"/>
   </g>
   <g id="matplotlib.axis_1">
    <g id="xtick_1">
     <g id="line2d_1">
      <path clip-path="url(#p1fbb8aae32)" d="M 72 356.4 
L 72 39.6 
" style="fill:none;stroke:#ffffff;stroke-linecap:round;"/>
     </g>
     <g id="line2d_2"/>
     <g id="line2d_3"/>
     <g id="text_1">
      <!-- 2016-09-29 22:50:00 -->
      <defs>
       <path d="M 5.03125 0 
L 5.03125 6.203125 
Q 7.515625 11.921875 11.109375 16.28125 
Q 14.703125 20.65625 18.65625 24.1875 
Q 22.609375 27.734375 26.484375 30.765625 
Q 30.375 33.796875 33.5 36.8125 
Q 36.625 39.84375 38.546875 43.15625 
Q 40.484375 46.484375 40.484375 50.6875 
Q 40.484375 53.609375 39.59375 55.828125 
Q 38.71875 58.0625 37.0625 59.5625 
Q 35.40625 61.078125 33.078125 61.828125 
Q 30.765625 62.59375 27.9375 62.59375 
Q 25.296875 62.59375 22.96875 61.859375 
Q 20.65625 61.140625 18.84375 59.671875 
Q 17.046875 58.203125 15.890625 56.03125 
Q 14.75 53.859375 14.40625 50.984375 
L 5.421875 51.8125 
Q 5.859375 55.515625 7.46875 58.78125 
Q 9.078125 62.0625 11.90625 64.53125 
Q 14.75 67 18.71875 68.40625 
Q 22.703125 69.828125 27.9375 69.828125 
Q 33.0625 69.828125 37.0625 68.609375 
Q 41.0625 67.390625 43.8125 64.984375 
Q 46.578125 62.59375 48.046875 59.078125 
Q 49.515625 55.5625 49.515625 50.984375 
Q 49.515625 47.515625 48.265625 44.390625 
Q 47.015625 41.265625 44.9375 38.421875 
Q 42.875 35.59375 40.140625 32.953125 
Q 37.40625 30.328125 34.421875 27.8125 
Q 31.453125 25.296875 28.421875 22.828125 
Q 25.390625 20.359375 22.71875 17.859375 
Q 20.0625 15.375 17.96875 12.8125 
Q 15.875 10.25 14.703125 7.46875 
L 50.59375 7.46875 
L 50.59375 0 
z
" id="LiberationSans-32"/>
       <path d="M 7.625 0 
L 7.625 7.46875 
L 25.140625 7.46875 
L 25.140625 60.40625 
L 9.625 49.3125 
L 9.625 57.625 
L 25.875 68.796875 
L 33.984375 68.796875 
L 33.984375 7.46875 
L 50.734375 7.46875 
L 50.734375 0 
z
" id="LiberationSans-31"/>
       <path d="M 51.703125 34.421875 
Q 51.703125 24.515625 49.828125 17.75 
Q 47.953125 10.984375 44.703125 6.8125 
Q 41.453125 2.640625 37.0625 0.828125 
Q 32.671875 -0.984375 27.6875 -0.984375 
Q 22.65625 -0.984375 18.3125 0.828125 
Q 13.96875 2.640625 10.765625 6.78125 
Q 7.5625 10.9375 5.734375 17.703125 
Q 3.90625 24.46875 3.90625 34.421875 
Q 3.90625 44.828125 5.734375 51.640625 
Q 7.5625 58.453125 10.78125 62.5 
Q 14.015625 66.546875 18.40625 68.1875 
Q 22.796875 69.828125 27.984375 69.828125 
Q 32.90625 69.828125 37.21875 68.1875 
Q 41.546875 66.546875 44.765625 62.5 
Q 48 58.453125 49.84375 51.640625 
Q 51.703125 44.828125 51.703125 34.421875 
M 42.78125 34.421875 
Q 42.78125 42.625 41.796875 48.0625 
Q 40.828125 53.515625 38.921875 56.765625 
Q 37.015625 60.015625 34.25 61.359375 
Q 31.5 62.703125 27.984375 62.703125 
Q 24.265625 62.703125 21.4375 61.328125 
Q 18.609375 59.96875 16.671875 56.71875 
Q 14.75 53.46875 13.765625 48.015625 
Q 12.796875 42.578125 12.796875 34.421875 
Q 12.796875 26.515625 13.796875 21.09375 
Q 14.796875 15.671875 16.71875 12.375 
Q 18.65625 9.078125 21.4375 7.640625 
Q 24.21875 6.203125 27.78125 6.203125 
Q 31.25 6.203125 34.03125 7.640625 
Q 36.8125 9.078125 38.734375 12.375 
Q 40.671875 15.671875 41.71875 21.09375 
Q 42.78125 26.515625 42.78125 34.421875 
" id="LiberationSans-30"/>
       <path d="M 50.875 35.796875 
Q 50.875 26.609375 49.140625 19.703125 
Q 47.40625 12.796875 44.1875 8.203125 
Q 40.96875 3.609375 36.34375 1.3125 
Q 31.734375 -0.984375 25.984375 -0.984375 
Q 22.015625 -0.984375 18.84375 -0.171875 
Q 15.671875 0.640625 13.171875 2.34375 
Q 10.6875 4.046875 8.921875 6.78125 
Q 7.171875 9.515625 6.109375 13.375 
L 14.5 14.703125 
Q 15.875 10.25 18.78125 8.171875 
Q 21.6875 6.109375 26.125 6.109375 
Q 29.6875 6.109375 32.640625 7.78125 
Q 35.59375 9.46875 37.671875 12.84375 
Q 39.75 16.21875 40.921875 21.296875 
Q 42.09375 26.375 42.1875 33.203125 
Q 41.15625 30.90625 39.375 29.09375 
Q 37.59375 27.296875 35.328125 26.046875 
Q 33.0625 24.8125 30.421875 24.140625 
Q 27.78125 23.484375 25.09375 23.484375 
Q 20.40625 23.484375 16.625 25.171875 
Q 12.84375 26.859375 10.203125 29.875 
Q 7.5625 32.90625 6.125 37.171875 
Q 4.6875 41.453125 4.6875 46.6875 
Q 4.6875 52 6.21875 56.296875 
Q 7.765625 60.59375 10.6875 63.59375 
Q 13.625 66.609375 17.890625 68.21875 
Q 22.171875 69.828125 27.59375 69.828125 
Q 39.0625 69.828125 44.96875 61.328125 
Q 50.875 52.828125 50.875 35.796875 
M 41.3125 44.28125 
Q 41.3125 48.09375 40.40625 51.453125 
Q 39.5 54.828125 37.71875 57.3125 
Q 35.9375 59.8125 33.328125 61.25 
Q 30.71875 62.703125 27.296875 62.703125 
Q 24.125 62.703125 21.578125 61.578125 
Q 19.046875 60.453125 17.28125 58.375 
Q 15.53125 56.296875 14.578125 53.3125 
Q 13.625 50.34375 13.625 46.6875 
Q 13.625 43.21875 14.46875 40.234375 
Q 15.328125 37.25 17.03125 35.078125 
Q 18.75 32.90625 21.28125 31.65625 
Q 23.828125 30.421875 27.203125 30.421875 
Q 29.640625 30.421875 32.15625 31.25 
Q 34.671875 32.078125 36.6875 33.78125 
Q 38.71875 35.5 40.015625 38.109375 
Q 41.3125 40.71875 41.3125 44.28125 
" id="LiberationSans-39"/>
       <path d="M 9.125 42.71875 
L 9.125 52.828125 
L 18.65625 52.828125 
L 18.65625 42.71875 
z
M 9.125 0 
L 9.125 10.109375 
L 18.65625 10.109375 
L 18.65625 0 
z
" id="LiberationSans-3a"/>
       <path d="M 51.421875 22.40625 
Q 51.421875 17.234375 49.859375 12.9375 
Q 48.296875 8.640625 45.21875 5.53125 
Q 42.140625 2.4375 37.578125 0.71875 
Q 33.015625 -0.984375 27 -0.984375 
Q 21.578125 -0.984375 17.546875 0.28125 
Q 13.53125 1.5625 10.734375 3.78125 
Q 7.953125 6 6.3125 8.984375 
Q 4.6875 11.96875 4 15.375 
L 12.890625 16.40625 
Q 13.421875 14.453125 14.390625 12.625 
Q 15.375 10.796875 17.0625 9.34375 
Q 18.75 7.90625 21.21875 7.046875 
Q 23.6875 6.203125 27.203125 6.203125 
Q 30.609375 6.203125 33.390625 7.25 
Q 36.1875 8.296875 38.15625 10.34375 
Q 40.140625 12.40625 41.203125 15.375 
Q 42.28125 18.359375 42.28125 22.21875 
Q 42.28125 25.390625 41.25 28.046875 
Q 40.234375 30.71875 38.328125 32.640625 
Q 36.421875 34.578125 33.65625 35.640625 
Q 30.90625 36.71875 27.390625 36.71875 
Q 25.203125 36.71875 23.34375 36.328125 
Q 21.484375 35.9375 19.890625 35.25 
Q 18.3125 34.578125 17.015625 33.671875 
Q 15.71875 32.765625 14.59375 31.78125 
L 6 31.78125 
L 8.296875 68.796875 
L 47.40625 68.796875 
L 47.40625 61.328125 
L 16.3125 61.328125 
L 14.984375 39.5 
Q 17.328125 41.3125 20.84375 42.59375 
Q 24.359375 43.890625 29.203125 43.890625 
Q 34.328125 43.890625 38.421875 42.328125 
Q 42.53125 40.765625 45.40625 37.90625 
Q 48.296875 35.0625 49.859375 31.109375 
Q 51.421875 27.15625 51.421875 22.40625 
" id="LiberationSans-35"/>
       <path id="LiberationSans-20"/>
       <path d="M 4.4375 22.65625 
L 4.4375 30.46875 
L 28.859375 30.46875 
L 28.859375 22.65625 
z
" id="LiberationSans-2d"/>
       <path d="M 51.21875 22.515625 
Q 51.21875 17.328125 49.78125 13 
Q 48.34375 8.6875 45.53125 5.578125 
Q 42.71875 2.484375 38.5625 0.75 
Q 34.421875 -0.984375 29 -0.984375 
Q 23 -0.984375 18.5 1.3125 
Q 14.015625 3.609375 11.03125 7.921875 
Q 8.0625 12.25 6.5625 18.53125 
Q 5.078125 24.8125 5.078125 32.8125 
Q 5.078125 42 6.765625 48.921875 
Q 8.453125 55.859375 11.625 60.5 
Q 14.796875 65.140625 19.359375 67.484375 
Q 23.921875 69.828125 29.6875 69.828125 
Q 33.203125 69.828125 36.28125 69.09375 
Q 39.359375 68.359375 41.875 66.71875 
Q 44.390625 65.09375 46.28125 62.40625 
Q 48.1875 59.71875 49.3125 55.8125 
L 40.921875 54.296875 
Q 39.546875 58.734375 36.546875 60.71875 
Q 33.546875 62.703125 29.59375 62.703125 
Q 25.984375 62.703125 23.046875 60.984375 
Q 20.125 59.28125 18.0625 55.875 
Q 16.015625 52.484375 14.90625 47.359375 
Q 13.8125 42.234375 13.8125 35.40625 
Q 16.21875 39.84375 20.5625 42.15625 
Q 24.90625 44.484375 30.515625 44.484375 
Q 35.203125 44.484375 39.015625 42.96875 
Q 42.828125 41.453125 45.53125 38.59375 
Q 48.25 35.75 49.734375 31.671875 
Q 51.21875 27.59375 51.21875 22.515625 
M 42.28125 22.125 
Q 42.28125 25.6875 41.40625 28.5625 
Q 40.53125 31.453125 38.765625 33.46875 
Q 37.015625 35.5 34.421875 36.59375 
Q 31.84375 37.703125 28.421875 37.703125 
Q 26.03125 37.703125 23.578125 36.984375 
Q 21.140625 36.28125 19.15625 34.6875 
Q 17.1875 33.109375 15.9375 30.515625 
Q 14.703125 27.9375 14.703125 24.21875 
Q 14.703125 20.40625 15.671875 17.109375 
Q 16.65625 13.8125 18.484375 11.375 
Q 20.3125 8.9375 22.890625 7.515625 
Q 25.484375 6.109375 28.71875 6.109375 
Q 31.890625 6.109375 34.40625 7.203125 
Q 36.921875 8.296875 38.671875 10.375 
Q 40.4375 12.453125 41.359375 15.421875 
Q 42.28125 18.40625 42.28125 22.125 
" id="LiberationSans-36"/>
      </defs>
      <g style="fill:#262626;" transform="translate(25.5765625 370.646875)scale(0.1 -0.1)">
       <use xlink:href="#LiberationSans-32"/>
       <use x="55.615234375" xlink:href="#LiberationSans-30"/>
       <use x="111.23046875" xlink:href="#LiberationSans-31"/>
       <use x="166.845703125" xlink:href="#LiberationSans-36"/>
       <use x="222.4609375" xlink:href="#LiberationSans-2d"/>
       <use x="255.76171875" xlink:href="#LiberationSans-30"/>
       <use x="311.376953125" xlink:href="#LiberationSans-39"/>
       <use x="366.9921875" xlink:href="#LiberationSans-2d"/>
       <use x="400.29296875" xlink:href="#LiberationSans-32"/>
       <use x="455.908203125" xlink:href="#LiberationSans-39"/>
       <use x="511.5234375" xlink:href="#LiberationSans-20"/>
       <use x="539.306640625" xlink:href="#LiberationSans-32"/>
       <use x="594.921875" xlink:href="#LiberationSans-32"/>
       <use x="650.537109375" xlink:href="#LiberationSans-3a"/>
       <use x="678.3203125" xlink:href="#LiberationSans-35"/>
       <use x="733.935546875" xlink:href="#LiberationSans-30"/>
       <use x="789.55078125" xlink:href="#LiberationSans-3a"/>
       <use x="817.333984375" xlink:href="#LiberationSans-30"/>
       <use x="872.94921875" xlink:href="#LiberationSans-30"/>
      </g>
     </g>
    </g>
    <g id="xtick_2">
     <g id="line2d_4">
      <path clip-path="url(#p1fbb8aae32)" d="M 183.655828 356.4 
L 183.655828 39.6 
" style="fill:none;stroke:#ffffff;stroke-linecap:round;"/>
     </g>
     <g id="line2d_5"/>
     <g id="line2d_6"/>
     <g id="text_2">
      <!-- 2016-10-10 21:06:00 -->
      <g style="fill:#262626;" transform="translate(137.232390414 370.646875)scale(0.1 -0.1)">
       <use xlink:href="#LiberationSans-32"/>
       <use x="55.615234375" xlink:href="#LiberationSans-30"/>
       <use x="111.23046875" xlink:href="#LiberationSans-31"/>
       <use x="166.845703125" xlink:href="#LiberationSans-36"/>
       <use x="222.4609375" xlink:href="#LiberationSans-2d"/>
       <use x="255.76171875" xlink:href="#LiberationSans-31"/>
       <use x="311.376953125" xlink:href="#LiberationSans-30"/>
       <use x="366.9921875" xlink:href="#LiberationSans-2d"/>
       <use x="400.29296875" xlink:href="#LiberationSans-31"/>
       <use x="455.908203125" xlink:href="#LiberationSans-30"/>
       <use x="511.5234375" xlink:href="#LiberationSans-20"/>
       <use x="539.306640625" xlink:href="#LiberationSans-32"/>
       <use x="594.921875" xlink:href="#LiberationSans-31"/>
       <use x="650.537109375" xlink:href="#LiberationSans-3a"/>
       <use x="678.3203125" xlink:href="#LiberationSans-30"/>
       <use x="733.935546875" xlink:href="#LiberationSans-36"/>
       <use x="789.55078125" xlink:href="#LiberationSans-3a"/>
       <use x="817.333984375" xlink:href="#LiberationSans-30"/>
       <use x="872.94921875" xlink:href="#LiberationSans-30"/>
      </g>
     </g>
    </g>
    <g id="xtick_3">
     <g id="line2d_7">
      <path clip-path="url(#p1fbb8aae32)" d="M 295.311656 356.4 
L 295.311656 39.6 
" style="fill:none;stroke:#ffffff;stroke-linecap:round;"/>
     </g>
     <g id="line2d_8"/>
     <g id="line2d_9"/>
     <g id="text_3">
      <!-- 2016-10-11 23:10:00 -->
      <defs>
       <path d="M 51.21875 19 
Q 51.21875 14.265625 49.671875 10.546875 
Q 48.140625 6.84375 45.1875 4.265625 
Q 42.234375 1.703125 37.859375 0.359375 
Q 33.5 -0.984375 27.875 -0.984375 
Q 21.484375 -0.984375 17.109375 0.609375 
Q 12.75 2.203125 9.90625 4.8125 
Q 7.078125 7.421875 5.65625 10.765625 
Q 4.25 14.109375 3.8125 17.671875 
L 12.890625 18.5 
Q 13.28125 15.765625 14.328125 13.515625 
Q 15.375 11.28125 17.1875 9.671875 
Q 19 8.0625 21.625 7.171875 
Q 24.265625 6.296875 27.875 6.296875 
Q 34.515625 6.296875 38.296875 9.5625 
Q 42.09375 12.84375 42.09375 19.28125 
Q 42.09375 23.09375 40.40625 25.40625 
Q 38.71875 27.734375 36.203125 29.03125 
Q 33.6875 30.328125 30.734375 30.765625 
Q 27.78125 31.203125 25.296875 31.203125 
L 20.3125 31.203125 
L 20.3125 38.8125 
L 25.09375 38.8125 
Q 27.59375 38.8125 30.265625 39.328125 
Q 32.953125 39.84375 35.171875 41.1875 
Q 37.40625 42.53125 38.84375 44.828125 
Q 40.28125 47.125 40.28125 50.6875 
Q 40.28125 56.203125 37.03125 59.390625 
Q 33.796875 62.59375 27.390625 62.59375 
Q 21.578125 62.59375 17.984375 59.609375 
Q 14.40625 56.640625 13.8125 51.21875 
L 4.984375 51.90625 
Q 5.515625 56.453125 7.46875 59.8125 
Q 9.421875 63.1875 12.421875 65.40625 
Q 15.4375 67.625 19.28125 68.71875 
Q 23.140625 69.828125 27.484375 69.828125 
Q 33.25 69.828125 37.390625 68.375 
Q 41.546875 66.9375 44.1875 64.46875 
Q 46.828125 62.015625 48.0625 58.6875 
Q 49.3125 55.375 49.3125 51.609375 
Q 49.3125 48.578125 48.484375 45.9375 
Q 47.65625 43.3125 45.890625 41.203125 
Q 44.140625 39.109375 41.421875 37.59375 
Q 38.71875 36.078125 34.90625 35.296875 
L 34.90625 35.109375 
Q 39.0625 34.671875 42.140625 33.21875 
Q 45.21875 31.78125 47.21875 29.625 
Q 49.21875 27.484375 50.21875 24.75 
Q 51.21875 22.015625 51.21875 19 
" id="LiberationSans-33"/>
      </defs>
      <g style="fill:#262626;" transform="translate(248.888218328 370.646875)scale(0.1 -0.1)">
       <use xlink:href="#LiberationSans-32"/>
       <use x="55.615234375" xlink:href="#LiberationSans-30"/>
       <use x="111.23046875" xlink:href="#LiberationSans-31"/>
       <use x="166.845703125" xlink:href="#LiberationSans-36"/>
       <use x="222.4609375" xlink:href="#LiberationSans-2d"/>
       <use x="255.76171875" xlink:href="#LiberationSans-31"/>
       <use x="311.376953125" xlink:href="#LiberationSans-30"/>
       <use x="366.9921875" xlink:href="#LiberationSans-2d"/>
       <use x="400.29296875" xlink:href="#LiberationSans-31"/>
       <use x="455.908203125" xlink:href="#LiberationSans-31"/>
       <use x="511.5234375" xlink:href="#LiberationSans-20"/>
       <use x="539.306640625" xlink:href="#LiberationSans-32"/>
       <use x="594.921875" xlink:href="#LiberationSans-33"/>
       <use x="650.537109375" xlink:href="#LiberationSans-3a"/>
       <use x="678.3203125" xlink:href="#LiberationSans-31"/>
       <use x="733.935546875" xlink:href="#LiberationSans-30"/>
       <use x="789.55078125" xlink:href="#LiberationSans-3a"/>
       <use x="817.333984375" xlink:href="#LiberationSans-30"/>
       <use x="872.94921875" xlink:href="#LiberationSans-30"/>
      </g>
     </g>
    </g>
    <g id="xtick_4">
     <g id="line2d_10">
      <path clip-path="url(#p1fbb8aae32)" d="M 406.967484 356.4 
L 406.967484 39.6 
" style="fill:none;stroke:#ffffff;stroke-linecap:round;"/>
     </g>
     <g id="line2d_11"/>
     <g id="line2d_12"/>
     <g id="text_4">
      <!-- 2016-10-13 10:59:00 -->
      <g style="fill:#262626;" transform="translate(360.544046242 370.646875)scale(0.1 -0.1)">
       <use xlink:href="#LiberationSans-32"/>
       <use x="55.615234375" xlink:href="#LiberationSans-30"/>
       <use x="111.23046875" xlink:href="#LiberationSans-31"/>
       <use x="166.845703125" xlink:href="#LiberationSans-36"/>
       <use x="222.4609375" xlink:href="#LiberationSans-2d"/>
       <use x="255.76171875" xlink:href="#LiberationSans-31"/>
       <use x="311.376953125" xlink:href="#LiberationSans-30"/>
       <use x="366.9921875" xlink:href="#LiberationSans-2d"/>
       <use x="400.29296875" xlink:href="#LiberationSans-31"/>
       <use x="455.908203125" xlink:href="#LiberationSans-33"/>
       <use x="511.5234375" xlink:href="#LiberationSans-20"/>
       <use x="539.306640625" xlink:href="#LiberationSans-31"/>
       <use x="594.921875" xlink:href="#LiberationSans-30"/>
       <use x="650.537109375" xlink:href="#LiberationSans-3a"/>
       <use x="678.3203125" xlink:href="#LiberationSans-35"/>
       <use x="733.935546875" xlink:href="#LiberationSans-39"/>
       <use x="789.55078125" xlink:href="#LiberationSans-3a"/>
       <use x="817.333984375" xlink:href="#LiberationSans-30"/>
       <use x="872.94921875" xlink:href="#LiberationSans-30"/>
      </g>
     </g>
    </g>
    <g id="text_5">
     <!-- time -->
     <defs>
      <path d="M 13.484375 24.5625 
Q 13.484375 20.40625 14.328125 16.90625 
Q 15.1875 13.421875 16.96875 10.90625 
Q 18.75 8.40625 21.53125 7 
Q 24.3125 5.609375 28.21875 5.609375 
Q 33.9375 5.609375 37.375 7.90625 
Q 40.828125 10.203125 42.046875 13.71875 
L 49.75 11.53125 
Q 48.921875 9.328125 47.4375 7.109375 
Q 45.953125 4.890625 43.453125 3.09375 
Q 40.96875 1.3125 37.234375 0.15625 
Q 33.5 -0.984375 28.21875 -0.984375 
Q 16.5 -0.984375 10.375 6 
Q 4.25 12.984375 4.25 26.765625 
Q 4.25 34.1875 6.09375 39.328125 
Q 7.953125 44.484375 11.171875 47.703125 
Q 14.40625 50.921875 18.703125 52.359375 
Q 23 53.8125 27.875 53.8125 
Q 34.515625 53.8125 38.984375 51.65625 
Q 43.453125 49.515625 46.15625 45.71875 
Q 48.875 41.9375 50.015625 36.8125 
Q 51.171875 31.6875 51.171875 25.734375 
L 51.171875 24.5625 
z
M 42.09375 31.296875 
Q 41.359375 39.65625 37.84375 43.484375 
Q 34.328125 47.3125 27.734375 47.3125 
Q 25.53125 47.3125 23.109375 46.609375 
Q 20.703125 45.90625 18.65625 44.09375 
Q 16.609375 42.28125 15.1875 39.171875 
Q 13.765625 36.078125 13.578125 31.296875 
z
" id="LiberationSans-65"/>
      <path d="M 6.6875 64.0625 
L 6.6875 72.46875 
L 15.484375 72.46875 
L 15.484375 64.0625 
z
M 6.6875 0 
L 6.6875 52.828125 
L 15.484375 52.828125 
L 15.484375 0 
z
" id="LiberationSans-69"/>
      <path d="M 27.046875 0.390625 
Q 25.046875 -0.140625 22.96875 -0.453125 
Q 20.90625 -0.78125 18.171875 -0.78125 
Q 7.625 -0.78125 7.625 11.1875 
L 7.625 46.4375 
L 1.515625 46.4375 
L 1.515625 52.828125 
L 7.953125 52.828125 
L 10.546875 64.65625 
L 16.40625 64.65625 
L 16.40625 52.828125 
L 26.171875 52.828125 
L 26.171875 46.4375 
L 16.40625 46.4375 
L 16.40625 13.09375 
Q 16.40625 9.28125 17.640625 7.734375 
Q 18.890625 6.203125 21.96875 6.203125 
Q 23.25 6.203125 24.4375 6.390625 
Q 25.640625 6.59375 27.046875 6.890625 
z
" id="LiberationSans-74"/>
      <path d="M 37.5 0 
L 37.5 33.5 
Q 37.5 37.359375 37.015625 39.9375 
Q 36.53125 42.53125 35.375 44.109375 
Q 34.234375 45.703125 32.375 46.359375 
Q 30.515625 47.015625 27.828125 47.015625 
Q 25.046875 47.015625 22.796875 45.921875 
Q 20.5625 44.828125 18.96875 42.75 
Q 17.390625 40.671875 16.53125 37.625 
Q 15.671875 34.578125 15.671875 30.609375 
L 15.671875 0 
L 6.9375 0 
L 6.9375 41.546875 
Q 6.9375 43.21875 6.90625 45.046875 
Q 6.890625 46.875 6.828125 48.5 
Q 6.78125 50.140625 6.734375 51.3125 
Q 6.6875 52.484375 6.640625 52.828125 
L 14.9375 52.828125 
Q 14.984375 52.59375 15.03125 51.515625 
Q 15.09375 50.4375 15.15625 49.046875 
Q 15.234375 47.65625 15.28125 46.21875 
Q 15.328125 44.78125 15.328125 43.796875 
L 15.484375 43.796875 
Q 16.65625 46.09375 18.015625 47.953125 
Q 19.390625 49.8125 21.21875 51.09375 
Q 23.046875 52.390625 25.40625 53.09375 
Q 27.78125 53.8125 30.90625 53.8125 
Q 36.921875 53.8125 40.40625 51.421875 
Q 43.890625 49.03125 45.265625 43.796875 
L 45.40625 43.796875 
Q 46.578125 46.09375 48.046875 47.953125 
Q 49.515625 49.8125 51.46875 51.09375 
Q 53.421875 52.390625 55.859375 53.09375 
Q 58.296875 53.8125 61.421875 53.8125 
Q 65.4375 53.8125 68.328125 52.734375 
Q 71.234375 51.65625 73.09375 49.40625 
Q 74.953125 47.171875 75.828125 43.625 
Q 76.703125 40.09375 76.703125 35.203125 
L 76.703125 0 
L 68.015625 0 
L 68.015625 33.5 
Q 68.015625 37.359375 67.53125 39.9375 
Q 67.046875 42.53125 65.890625 44.109375 
Q 64.75 45.703125 62.890625 46.359375 
Q 61.03125 47.015625 58.34375 47.015625 
Q 55.5625 47.015625 53.3125 45.96875 
Q 51.078125 44.921875 49.484375 42.875 
Q 47.90625 40.828125 47.046875 37.75 
Q 46.1875 34.671875 46.1875 30.609375 
L 46.1875 0 
z
" id="LiberationSans-6d"/>
     </defs>
     <g style="fill:#262626;" transform="translate(284.81015625 385.6934375)scale(0.11 -0.11)">
      <use xlink:href="#LiberationSans-74"/>
      <use x="27.783203125" xlink:href="#LiberationSans-69"/>
      <use x="50.0" xlink:href="#LiberationSans-6d"/>
      <use x="133.30078125" xlink:href="#LiberationSans-65"/>
     </g>
    </g>
   </g>
   <g id="matplotlib.axis_2">
    <g id="ytick_1">
     <g id="line2d_13">
      <path clip-path="url(#p1fbb8aae32)" d="M 72 356.4 
L 518.4 356.4 
" style="fill:none;stroke:#ffffff;stroke-linecap:round;"/>
     </g>
     <g id="line2d_14"/>
     <g id="line2d_15"/>
     <g id="text_6">
      <!-- 125 -->
      <g style="fill:#262626;" transform="translate(48.3171875 358.9859375)scale(0.1 -0.1)">
       <use xlink:href="#LiberationSans-31"/>
       <use x="55.615234375" xlink:href="#LiberationSans-32"/>
       <use x="111.23046875" xlink:href="#LiberationSans-35"/>
      </g>
     </g>
    </g>
    <g id="ytick_2">
     <g id="line2d_16">
      <path clip-path="url(#p1fbb8aae32)" d="M 72 311.142857 
L 518.4 311.142857 
" style="fill:none;stroke:#ffffff;stroke-linecap:round;"/>
     </g>
     <g id="line2d_17"/>
     <g id="line2d_18"/>
     <g id="text_7">
      <!-- 130 -->
      <g style="fill:#262626;" transform="translate(48.3171875 313.728794643)scale(0.1 -0.1)">
       <use xlink:href="#LiberationSans-31"/>
       <use x="55.615234375" xlink:href="#LiberationSans-33"/>
       <use x="111.23046875" xlink:href="#LiberationSans-30"/>
      </g>
     </g>
    </g>
    <g id="ytick_3">
     <g id="line2d_19">
      <path clip-path="url(#p1fbb8aae32)" d="M 72 265.885714 
L 518.4 265.885714 
" style="fill:none;stroke:#ffffff;stroke-linecap:round;"/>
     </g>
     <g id="line2d_20"/>
     <g id="line2d_21"/>
     <g id="text_8">
      <!-- 135 -->
      <g style="fill:#262626;" transform="translate(48.3171875 268.471651786)scale(0.1 -0.1)">
       <use xlink:href="#LiberationSans-31"/>
       <use x="55.615234375" xlink:href="#LiberationSans-33"/>
       <use x="111.23046875" xlink:href="#LiberationSans-35"/>
      </g>
     </g>
    </g>
    <g id="ytick_4">
     <g id="line2d_22">
      <path clip-path="url(#p1fbb8aae32)" d="M 72 220.628571 
L 518.4 220.628571 
" style="fill:none;stroke:#ffffff;stroke-linecap:round;"/>
     </g>
     <g id="line2d_23"/>
     <g id="line2d_24"/>
     <g id="text_9">
      <!-- 140 -->
      <defs>
       <path d="M 43.015625 15.578125 
L 43.015625 0 
L 34.71875 0 
L 34.71875 15.578125 
L 2.296875 15.578125 
L 2.296875 22.40625 
L 33.796875 68.796875 
L 43.015625 68.796875 
L 43.015625 22.515625 
L 52.6875 22.515625 
L 52.6875 15.578125 
z
M 34.71875 58.890625 
Q 34.625 58.640625 34.234375 57.9375 
Q 33.84375 57.234375 33.34375 56.34375 
Q 32.859375 55.46875 32.34375 54.5625 
Q 31.84375 53.65625 31.453125 53.078125 
L 13.8125 27.09375 
Q 13.578125 26.703125 13.109375 26.0625 
Q 12.640625 25.4375 12.15625 24.78125 
Q 11.671875 24.125 11.171875 23.484375 
Q 10.6875 22.859375 10.40625 22.515625 
L 34.71875 22.515625 
z
" id="LiberationSans-34"/>
      </defs>
      <g style="fill:#262626;" transform="translate(48.3171875 223.214508929)scale(0.1 -0.1)">
       <use xlink:href="#LiberationSans-31"/>
       <use x="55.615234375" xlink:href="#LiberationSans-34"/>
       <use x="111.23046875" xlink:href="#LiberationSans-30"/>
      </g>
     </g>
    </g>
    <g id="ytick_5">
     <g id="line2d_25">
      <path clip-path="url(#p1fbb8aae32)" d="M 72 175.371429 
L 518.4 175.371429 
" style="fill:none;stroke:#ffffff;stroke-linecap:round;"/>
     </g>
     <g id="line2d_26"/>
     <g id="line2d_27"/>
     <g id="text_10">
      <!-- 145 -->
      <g style="fill:#262626;" transform="translate(48.3171875 177.957366071)scale(0.1 -0.1)">
       <use xlink:href="#LiberationSans-31"/>
       <use x="55.615234375" xlink:href="#LiberationSans-34"/>
       <use x="111.23046875" xlink:href="#LiberationSans-35"/>
      </g>
     </g>
    </g>
    <g id="ytick_6">
     <g id="line2d_28">
      <path clip-path="url(#p1fbb8aae32)" d="M 72 130.114286 
L 518.4 130.114286 
" style="fill:none;stroke:#ffffff;stroke-linecap:round;"/>
     </g>
     <g id="line2d_29"/>
     <g id="line2d_30"/>
     <g id="text_11">
      <!-- 150 -->
      <g style="fill:#262626;" transform="translate(48.3171875 132.700223214)scale(0.1 -0.1)">
       <use xlink:href="#LiberationSans-31"/>
       <use x="55.615234375" xlink:href="#LiberationSans-35"/>
       <use x="111.23046875" xlink:href="#LiberationSans-30"/>
      </g>
     </g>
    </g>
    <g id="ytick_7">
     <g id="line2d_31">
      <path clip-path="url(#p1fbb8aae32)" d="M 72 84.857143 
L 518.4 84.857143 
" style="fill:none;stroke:#ffffff;stroke-linecap:round;"/>
     </g>
     <g id="line2d_32"/>
     <g id="line2d_33"/>
     <g id="text_12">
      <!-- 155 -->
      <g style="fill:#262626;" transform="translate(48.3171875 87.4430803571)scale(0.1 -0.1)">
       <use xlink:href="#LiberationSans-31"/>
       <use x="55.615234375" xlink:href="#LiberationSans-35"/>
       <use x="111.23046875" xlink:href="#LiberationSans-35"/>
      </g>
     </g>
    </g>
    <g id="ytick_8">
     <g id="line2d_34">
      <path clip-path="url(#p1fbb8aae32)" d="M 72 39.6 
L 518.4 39.6 
" style="fill:none;stroke:#ffffff;stroke-linecap:round;"/>
     </g>
     <g id="line2d_35"/>
     <g id="line2d_36"/>
     <g id="text_13">
      <!-- 160 -->
      <g style="fill:#262626;" transform="translate(48.3171875 42.1859375)scale(0.1 -0.1)">
       <use xlink:href="#LiberationSans-31"/>
       <use x="55.615234375" xlink:href="#LiberationSans-36"/>
       <use x="111.23046875" xlink:href="#LiberationSans-30"/>
      </g>
     </g>
    </g>
   </g>
   <g id="line2d_37">
    <path clip-path="url(#p1fbb8aae32)" d="M 72 92.264729 
L 72.223312 85.295129 
L 72.446623 89.65104 
L 72.669935 82.590925 
L 73.116558 94.060071 
L 73.33987 91.882116 
L 73.563182 86.999957 
L 74.009805 82.590925 
L 74.233117 89.177912 
L 74.67974 93.586944 
L 74.903052 86.999957 
L 75.126363 96.238027 
L 75.349675 96.62064 
L 75.572986 98.851716 
L 75.796298 85.295129 
L 76.01961 118.656722 
L 76.242921 116.478767 
L 76.466233 123.921494 
L 76.689545 107.713824 
L 76.912856 121.743539 
L 77.35948 124.304107 
L 77.582791 115.156551 
L 77.806103 119.512462 
L 78.029415 115.156551 
L 78.252726 117.334507 
L 78.69935 145.011323 
L 78.922661 150.276094 
L 79.145973 133.542177 
L 79.369285 133.542177 
L 79.592596 140.129164 
L 79.815908 139.656037 
L 80.262531 126.482062 
L 80.485843 127.00831 
L 80.932466 150.276094 
L 81.155778 138.424335 
L 81.37909 143.689107 
L 81.602401 154.158878 
L 81.825713 145.011323 
L 82.049025 151.980923 
L 82.272336 146.716151 
L 82.495648 157.71217 
L 82.718959 151.125183 
L 82.942271 162.121202 
L 83.165583 155.534214 
L 83.388894 158.185297 
L 83.835518 146.716151 
L 84.058829 147.189278 
L 84.282141 140.129164 
L 84.505453 140.129164 
L 84.728764 137.951208 
L 84.952076 142.833367 
L 85.175388 134.068424 
L 85.398699 136.628993 
L 85.622011 128.713139 
L 85.845323 137.951208 
L 86.291946 129.186266 
L 86.515258 136.24638 
L 86.738569 133.542177 
L 86.961881 140.602291 
L 87.185193 136.24638 
L 87.408504 118.663374 
L 87.631816 132.219961 
L 87.855128 118.663374 
L 88.078439 119.045987 
L 88.301751 119.045987 
L 88.525063 121.75019 
L 88.971686 113.834336 
L 89.418309 113.834336 
L 89.641621 118.190247 
L 89.864932 129.186266 
L 90.088244 125.250361 
L 90.311556 130.042006 
L 90.534867 130.042006 
L 90.981491 114.307463 
L 91.204802 123.455018 
L 91.428114 120.89445 
L 91.651426 111.60326 
L 91.874737 116.012291 
L 92.098049 125.250361 
L 92.321361 127.481437 
L 92.544672 127.481437 
L 92.767984 130.042006 
L 92.991296 136.628993 
L 93.214607 132.219961 
L 93.437919 120.89445 
L 93.661231 127.86405 
L 93.884542 130.042006 
L 94.107854 144.162234 
L 94.331166 137.10212 
L 94.554477 137.10212 
L 94.777789 134.451037 
L 95.001101 140.602291 
L 95.224412 131.364221 
L 95.447724 129.186266 
L 95.894347 129.186266 
L 96.117659 122.126151 
L 96.34097 134.068424 
L 96.564282 127.00831 
L 96.787594 129.659393 
L 97.234217 138.806948 
L 97.457529 134.451037 
L 97.68084 125.250361 
L 97.904152 136.628993 
L 98.127464 127.481437 
L 98.574087 136.628993 
L 98.797399 136.628993 
L 99.02071 134.451037 
L 99.244022 136.628993 
L 99.467334 131.837348 
L 99.913957 143.21598 
L 100.36058 134.068424 
L 100.583892 138.424335 
L 100.807204 136.24638 
L 101.030515 143.21598 
L 101.477139 133.542177 
L 101.70045 131.364221 
L 101.923762 140.602291 
L 102.147074 133.542177 
L 102.370385 134.068424 
L 102.593697 141.038024 
L 102.817009 136.628993 
L 103.04032 136.628993 
L 103.486943 145.867062 
L 103.710255 143.21598 
L 103.933567 138.806948 
L 104.156878 143.689107 
L 104.38019 152.927177 
L 104.603502 152.927177 
L 104.826813 143.21598 
L 105.050125 145.393935 
L 105.496748 156.863081 
L 105.72006 147.571891 
L 105.943372 147.571891 
L 106.166683 149.802967 
L 106.389995 161.218992 
L 106.613307 147.189278 
L 106.836618 147.571891 
L 107.05993 138.424335 
L 107.506553 154.632005 
L 107.729865 157.336208 
L 107.953177 155.158253 
L 108.176488 159.514164 
L 108.3998 171.365923 
L 108.623112 168.661719 
L 108.846423 168.661719 
L 109.069735 170.892796 
L 109.293047 168.661719 
L 109.516358 162.127853 
L 109.73967 162.127853 
L 109.962981 166.956891 
L 110.186293 164.778936 
L 110.409605 167.430018 
L 110.632916 160.369904 
L 110.856228 157.718821 
L 111.07954 163.45672 
L 111.302851 156.48712 
L 111.526163 156.013993 
L 111.749475 153.782917 
L 111.972786 165.252063 
L 112.196098 163.074107 
L 112.41941 142.840019 
L 112.642721 140.662063 
L 113.089345 161.751892 
L 113.312656 170.516834 
L 113.535968 158.665076 
L 113.75928 166.107803 
L 113.982591 182.315472 
L 114.205903 177.486434 
L 114.429215 181.842345 
L 114.652526 177.103822 
L 114.875838 177.103822 
L 115.322461 172.69479 
L 115.545773 177.486434 
L 115.769085 167.812631 
L 115.992396 170.043707 
L 116.215708 166.956891 
L 116.43902 166.956891 
L 116.885643 175.721834 
L 117.332266 159.514164 
L 117.555578 171.365923 
L 117.778889 169.187967 
L 118.002201 174.017005 
L 118.225513 176.248082 
L 118.448824 171.365923 
L 118.672136 171.365923 
L 118.895448 166.483764 
L 119.342071 178.426037 
L 119.565383 171.365923 
L 119.788694 174.017005 
L 120.012006 171.365923 
L 120.235318 173.543878 
L 120.458629 171.365923 
L 120.905253 188.04672 
L 121.128564 178.80865 
L 121.575188 183.217682 
L 121.798499 176.248082 
L 122.021811 185.395637 
L 122.245123 178.426037 
L 122.468434 178.426037 
L 122.691746 176.248082 
L 122.915058 176.248082 
L 123.138369 166.483764 
L 123.361681 175.248707 
L 123.584992 170.510183 
L 123.808304 170.510183 
L 124.031616 167.805979 
L 124.254927 184.06677 
L 124.478239 186.244725 
L 124.701551 175.248707 
L 124.924862 191.982624 
L 125.148174 187.573593 
L 125.371486 189.751548 
L 125.594797 187.19098 
L 125.818109 194.16058 
L 126.041421 189.368935 
L 126.264732 188.895808 
L 126.488044 198.186999 
L 126.711356 200.364954 
L 126.934667 197.713872 
L 127.157979 188.895808 
L 127.381291 193.777967 
L 127.604602 195.955922 
L 127.827914 191.126884 
L 128.051226 202.54291 
L 128.274537 200.364954 
L 128.497849 213.538928 
L 128.721161 206.005687 
L 128.944472 208.65677 
L 129.167784 203.774611 
L 129.391096 217.421712 
L 129.614407 219.652789 
L 130.061031 232.300515 
L 130.284342 235.004718 
L 130.507654 244.242788 
L 130.730965 233.29989 
L 130.954277 251.212388 
L 131.177589 242.064833 
L 131.4009 316.173399 
L 131.624212 250.349997 
L 131.847524 263.050844 
L 132.517459 245.467838 
L 132.74077 246.323578 
L 132.964082 225.330915 
L 133.187394 246.420744 
L 133.410705 298.274204 
L 133.634017 289.036134 
L 133.857329 290.365001 
L 134.08064 265.339268 
L 134.303952 294.247785 
L 134.527264 280.691198 
L 134.750575 288.133925 
L 134.973887 289.509261 
L 135.197199 295.570001 
L 135.42051 298.274204 
L 135.643822 305.716931 
L 135.867134 294.247785 
L 136.090445 310.125963 
L 136.537069 293.392045 
L 136.76038 293.865172 
L 136.983692 290.740963 
L 137.430315 307.42176 
L 137.653627 300.45216 
L 137.876938 298.274204 
L 138.10025 290.740963 
L 138.323562 296.096249 
L 138.546873 291.21409 
L 138.770185 296.096249 
L 138.993497 296.096249 
L 139.216808 287.278185 
L 139.44012 285.482842 
L 139.663432 281.073811 
L 139.886743 282.922274 
L 140.110055 281.073811 
L 140.333367 288.133925 
L 140.556678 263.543925 
L 140.77999 261.36597 
L 141.003302 252.547907 
L 141.226613 249.514211 
L 141.449925 256.574325 
L 141.896548 245.578307 
L 142.343172 271.077167 
L 142.566483 257.430065 
L 142.789795 259.608021 
L 143.013107 264.49018 
L 143.236418 264.017053 
L 143.45973 270.60404 
L 143.683042 258.752281 
L 143.906353 275.013072 
L 144.129665 267.952957 
L 144.352976 279.368982 
L 144.576288 263.543925 
L 144.7996 238.894154 
L 145.022911 246.480516 
L 145.246223 248.658471 
L 145.469535 248.658471 
L 145.916158 243.776312 
L 146.13947 246.480516 
L 146.362781 239.420402 
L 146.809405 244.24944 
L 147.032716 242.071484 
L 147.256028 244.24944 
L 147.47934 237.189325 
L 147.702651 236.716198 
L 147.925963 227.568643 
L 148.372586 236.333585 
L 148.595898 220.125916 
L 148.81921 217.421712 
L 149.042521 220.125916 
L 149.265833 229.273471 
L 149.489145 226.712903 
L 149.712456 221.830744 
L 149.935768 229.273471 
L 150.15908 227.095516 
L 150.382391 222.686484 
L 150.605703 231.924554 
L 150.829015 224.864439 
L 151.052326 227.568643 
L 151.275638 220.981656 
L 151.722261 225.390687 
L 151.945573 211.360973 
L 152.168884 209.129897 
L 152.392196 209.129897 
L 152.615508 223.159611 
L 152.838819 220.981656 
L 153.062131 223.159611 
L 153.285443 213.538928 
L 153.508754 229.746598 
L 153.955378 211.360973 
L 154.178689 216.099497 
L 154.402001 200.747567 
L 154.625313 203.398649 
L 154.848624 208.190294 
L 155.071936 199.042739 
L 155.295248 206.012339 
L 155.518559 194.16058 
L 155.741871 205.629726 
L 155.965183 197.247396 
L 156.188494 199.042739 
L 156.411806 196.338535 
L 156.635118 209.985637 
L 156.858429 200.747567 
L 157.081741 207.334554 
L 157.305053 205.156599 
L 157.528364 195.955922 
L 157.751676 197.240744 
L 158.198299 202.069782 
L 158.644922 197.240744 
L 158.868234 190.653757 
L 159.091546 190.653757 
L 159.314857 188.040068 
L 159.538169 195.009668 
L 159.761481 197.240744 
L 159.984792 192.4491 
L 160.208104 192.4491 
L 160.431416 199.4187 
L 160.654727 187.093814 
L 160.878039 198.56296 
L 161.101351 184.533246 
L 161.324662 197.70722 
L 161.547974 204.241086 
L 161.771286 200.267788 
L 161.994597 200.267788 
L 162.217909 200.740915 
L 162.441221 203.391998 
L 162.664532 202.918871 
L 162.887844 200.267788 
L 163.111156 202.445744 
L 163.334467 202.918871 
L 163.557779 200.740915 
L 164.004402 216.092845 
L 164.227714 213.91489 
L 164.451026 218.270801 
L 164.674337 212.112896 
L 164.897649 214.763978 
L 165.12096 205.143296 
L 165.344272 203.294832 
L 165.567584 194.147277 
L 165.790895 193.67415 
L 166.014207 182.295518 
L 166.237519 180.117562 
L 166.684142 187.087162 
L 166.907454 175.708531 
L 167.130765 185.382334 
L 167.354077 190.120858 
L 167.577389 183.151258 
L 168.024012 201.116877 
L 168.247324 196.707845 
L 168.470635 196.707845 
L 168.693947 205.999036 
L 169.14057 205.999036 
L 169.363882 203.294832 
L 169.587194 203.767959 
L 170.033817 194.52989 
L 170.257129 202.063131 
L 170.48044 202.063131 
L 170.703752 197.180972 
L 170.927064 199.412048 
L 171.596998 199.412048 
L 171.82031 196.707845 
L 172.043622 205.999036 
L 172.266933 201.590004 
L 172.490245 203.767959 
L 172.936868 189.738245 
L 173.16018 198.938921 
L 173.383492 180.500175 
L 173.830115 189.738245 
L 174.053427 187.56029 
L 174.276738 201.590004 
L 174.50005 196.707845 
L 174.723362 187.56029 
L 174.946673 187.56029 
L 175.169985 194.52989 
L 175.393297 189.738245 
L 175.616608 198.938921 
L 175.83992 196.707845 
L 176.509855 203.767959 
L 176.733167 204.241086 
L 176.956478 197.180972 
L 177.17979 199.412048 
L 177.403102 203.767959 
L 177.626413 214.290851 
L 177.849725 205.525908 
L 178.073037 211.677162 
L 178.296348 209.499207 
L 178.966283 188.882505 
L 179.189595 191.113581 
L 179.412906 167.319549 
L 179.636218 183.527219 
L 179.85953 184.902556 
L 180.082841 201.110225 
L 180.306153 198.93227 
L 180.529465 201.583352 
L 180.752776 187.553638 
L 180.976088 187.080511 
L 181.1994 184.429428 
L 181.422711 184.902556 
L 181.646023 180.020397 
L 181.869335 180.020397 
L 182.53927 136.609038 
L 182.985893 131.344267 
L 183.209205 135.753298 
L 183.432516 133.522222 
L 183.87914 143.578638 
L 184.102451 139.169607 
L 184.549075 154.994663 
L 184.772386 147.934549 
L 184.995698 152.343581 
L 185.21901 152.343581 
L 185.442321 151.960968 
L 185.665633 158.547955 
L 185.888944 151.487841 
L 186.112256 162.430739 
L 186.335568 160.252784 
L 186.558879 155.461139 
L 186.782191 160.252784 
L 187.005503 160.252784 
L 187.228814 157.692215 
L 187.452126 167.312898 
L 187.675438 151.105228 
L 187.898749 153.283184 
L 188.122061 158.074828 
L 188.345373 175.222101 
L 188.791996 159.397044 
L 189.015308 166.457158 
L 189.238619 152.336929 
L 189.461931 150.158974 
L 189.685243 168.635113 
L 189.908554 159.397044 
L 190.578489 171.248803 
L 190.801801 162.048126 
L 191.025113 159.870171 
L 191.248424 159.870171 
L 191.471736 169.017726 
L 191.695048 162.430739 
L 191.918359 159.870171 
L 192.141671 154.988012 
L 192.588294 150.632101 
L 192.811606 152.810057 
L 193.034917 147.927898 
L 193.258229 138.307215 
L 193.481541 138.307215 
L 193.704852 136.12926 
L 194.151476 147.072158 
L 194.374787 133.425056 
L 194.598099 136.12926 
L 194.821411 143.189374 
L 195.044722 138.307215 
L 195.268034 145.749942 
L 195.491346 138.307215 
L 195.714657 136.12926 
L 195.937969 143.189374 
L 196.161281 145.749942 
L 196.384592 127.311196 
L 196.607904 130.0154 
L 196.831216 130.0154 
L 197.054527 118.546254 
L 197.277839 127.784323 
L 197.501151 122.955285 
L 197.724462 125.606368 
L 197.947774 125.133241 
L 198.171086 120.251082 
L 198.394397 129.542273 
L 198.617709 126.455456 
L 198.841021 113.281482 
L 199.064332 122.482158 
L 199.287644 113.281482 
L 199.510955 120.251082 
L 199.734267 113.281482 
L 199.957579 122.482158 
L 200.18089 108.452444 
L 200.404202 117.690514 
L 201.074137 110.630399 
L 201.52076 122.099545 
L 201.744072 98.305513 
L 201.967384 114.566304 
L 202.190695 112.335228 
L 202.414007 101.009717 
L 202.637319 103.570285 
L 202.86063 101.865457 
L 203.083942 94.805342 
L 203.307254 95.751597 
L 203.530565 102.721197 
L 203.753877 93.956254 
L 203.977189 100.543241 
L 204.2005 93.573641 
L 204.423812 98.312165 
L 204.647124 93.573641 
L 204.870435 97.929552 
L 205.093747 97.929552 
L 205.317059 95.751597 
L 205.763682 107.603356 
L 205.986993 119.401994 
L 206.210305 115.51921 
L 206.656928 122.579324 
L 207.103552 115.046083 
L 207.326863 114.66347 
L 207.550175 117.224038 
L 207.773487 121.63307 
L 207.996798 117.224038 
L 208.22011 117.224038 
L 208.443422 124.284152 
L 208.666733 124.284152 
L 209.113357 112.432394 
L 209.336668 117.224038 
L 209.55998 112.815006 
L 209.783292 124.757279 
L 210.006603 129.166311 
L 210.229915 122.106197 
L 210.453227 128.693184 
L 210.676538 126.462108 
L 210.89985 135.753298 
L 211.123162 123.811025 
L 211.346473 121.63307 
L 211.569785 112.432394 
L 211.793097 112.432394 
L 212.016408 116.841425 
L 212.23972 132.193355 
L 212.686343 132.193355 
L 212.909655 130.0154 
L 213.132966 122.955285 
L 213.356278 127.784323 
L 213.57959 125.606368 
L 213.802901 127.784323 
L 214.026213 134.753923 
L 214.249525 132.193355 
L 214.472836 132.193355 
L 214.696148 138.780342 
L 214.91946 134.371311 
L 215.142771 134.371311 
L 215.366083 141.340911 
L 215.589395 141.340911 
L 215.812706 143.571987 
L 216.036018 162.048126 
L 216.482641 150.632101 
L 216.705953 159.870171 
L 216.929265 159.397044 
L 217.375888 139.162955 
L 217.5992 141.340911 
L 218.045823 125.133241 
L 218.492446 132.575968 
L 218.715758 128.220057 
L 218.93907 128.693184 
L 219.162381 135.753298 
L 219.385693 149.783013 
L 219.832316 131.344267 
L 220.055628 145.756594 
L 220.278939 151.960968 
L 220.502251 152.343581 
L 220.725563 154.521536 
L 221.172186 149.309886 
L 221.395498 151.960968 
L 221.618809 151.960968 
L 221.842121 147.078809 
L 222.065433 147.551936 
L 222.288744 154.138924 
L 222.512056 168.168638 
L 222.958679 153.665796 
L 223.181991 158.547955 
L 223.405303 158.074828 
L 223.628614 158.547955 
L 224.075238 162.903866 
L 224.298549 151.487841 
L 224.521861 146.696196 
L 224.745173 146.223069 
L 224.968484 153.283184 
L 225.191796 146.696196 
L 225.415108 155.461139 
L 225.638419 151.105228 
L 225.861731 141.814038 
L 226.085043 148.874152 
L 226.308354 148.874152 
L 226.531666 144.518241 
L 226.754977 146.696196 
L 226.978289 141.340911 
L 227.424912 136.985 
L 227.648224 139.162955 
L 227.871536 146.223069 
L 228.094847 141.814038 
L 228.318159 146.696196 
L 228.764782 134.753923 
L 228.988094 136.985 
L 229.434717 124.660114 
L 229.658029 131.720228 
L 229.881341 120.251082 
L 230.104652 120.251082 
L 230.327964 118.073127 
L 230.551276 111.103527 
L 230.774587 120.251082 
L 230.997899 111.486139 
L 231.221211 116.368298 
L 231.444522 116.368298 
L 231.667834 118.546254 
L 232.114457 114.190343 
L 232.337769 120.724209 
L 232.561081 115.895171 
L 232.784392 125.606368 
L 233.007704 123.428412 
L 233.231016 130.0154 
L 233.454327 127.784323 
L 233.677639 130.0154 
L 233.90095 126.838069 
L 234.124262 129.542273 
L 234.347574 127.311196 
L 234.570885 138.780342 
L 235.017509 119.019381 
L 235.24082 116.841425 
L 235.464132 99.258419 
L 235.687444 97.080464 
L 235.910755 101.872108 
L 236.134067 94.902508 
L 236.804002 118.170292 
L 237.250625 122.961937 
L 237.473937 120.348248 
L 237.697249 127.317848 
L 238.143872 103.194324 
L 238.367184 108.459095 
L 238.590495 103.667451 
L 238.813807 108.076483 
L 239.26043 101.016368 
L 239.483742 108.076483 
L 239.707054 110.254438 
L 239.930365 117.224038 
L 240.153677 112.432394 
L 240.376988 114.66347 
L 240.6003 108.076483 
L 240.823612 114.66347 
L 241.046923 105.372279 
L 241.270235 107.603356 
L 241.493547 103.194324 
L 241.716858 105.372279 
L 241.94017 98.312165 
L 242.163482 96.134209 
L 242.386793 107.130228 
L 242.610105 109.308184 
L 242.833417 97.929552 
L 243.28004 111.959266 
L 243.503352 103.194324 
L 243.726663 110.254438 
L 243.949975 110.254438 
L 244.173287 114.66347 
L 244.61991 110.254438 
L 244.843222 98.312165 
L 245.289845 114.190343 
L 245.513157 116.368298 
L 245.736468 119.868469 
L 245.95978 113.281482 
L 246.183092 117.217387 
L 246.406403 115.039431 
L 246.629715 115.039431 
L 246.853027 112.808355 
L 247.076338 126.455456 
L 247.29965 128.213406 
L 247.522961 152.330278 
L 247.746273 141.807386 
L 247.969585 148.394373 
L 248.192896 135.27352 
L 248.416208 128.686533 
L 248.63952 137.834088 
L 248.862831 137.834088 
L 249.086143 125.982329 
L 249.309455 125.509202 
L 249.532766 123.331247 
L 249.756078 116.361647 
L 249.97939 125.509202 
L 250.202701 121.153291 
L 250.426013 130.391361 
L 250.649325 129.918234 
L 250.872636 121.153291 
L 251.095948 130.391361 
L 251.31926 134.747272 
L 251.542571 123.804374 
L 251.989195 133.042444 
L 252.212506 133.042444 
L 252.435818 135.27352 
L 252.65913 121.153291 
L 252.882441 130.391361 
L 253.105753 127.687158 
L 253.329065 135.27352 
L 253.552376 125.982329 
L 253.775688 128.213406 
L 253.998999 132.569316 
L 254.222311 132.569316 
L 254.445623 123.804374 
L 254.668934 134.747272 
L 254.892246 132.569316 
L 255.115558 125.509202 
L 255.338869 137.451475 
L 255.562181 135.27352 
L 255.785493 137.451475 
L 256.232116 147.072158 
L 256.455428 144.421075 
L 256.902051 149.303234 
L 257.125363 148.776986 
L 257.348674 155.363973 
L 257.571986 153.186018 
L 257.795298 155.8371 
L 258.241921 144.038462 
L 258.465233 139.629431 
L 258.688544 146.216418 
L 258.911856 145.743291 
L 259.358479 150.62545 
L 259.581791 145.743291 
L 259.805103 147.921246 
L 260.028414 167.682208 
L 260.251726 158.917265 
L 260.475038 163.799424 
L 260.698349 158.917265 
L 260.921661 161.095221 
L 261.144972 161.095221 
L 261.368284 163.799424 
L 262.038219 180.007094 
L 262.261531 170.769024 
L 262.484842 168.537948 
L 262.708154 175.598062 
L 262.931466 168.537948 
L 263.154777 182.185049 
L 263.378089 168.155335 
L 263.601401 179.151354 
L 264.048024 168.155335 
L 264.717959 161.095221 
L 264.941271 154.508233 
L 265.164582 152.330278 
L 265.387894 144.887551 
L 265.834517 125.502551 
L 266.057829 121.093519 
L 266.281141 111.945963 
L 266.504452 118.532951 
L 266.727764 106.590678 
L 266.951076 115.881868 
L 267.174387 106.590678 
L 267.621011 111.472836 
L 267.844322 114.559653 
L 268.067634 107.972665 
L 268.290945 96.120907 
L 268.514257 112.801703 
L 268.737569 110.150621 
L 268.96088 114.559653 
L 269.407504 108.445792 
L 269.630815 96.594034 
L 269.854127 98.771989 
L 270.077439 98.771989 
L 270.524062 104.036761 
L 270.747374 115.505907 
L 270.970685 117.683862 
L 271.64062 110.623748 
L 271.863932 112.801703 
L 272.087244 112.801703 
L 272.310555 110.623748 
L 272.533867 103.563634 
L 272.98049 112.801703 
L 273.203802 112.801703 
L 273.427114 110.623748 
L 273.650425 115.505907 
L 273.873737 108.91892 
L 274.097049 108.445792 
L 274.32036 94.798691 
L 274.543672 104.036761 
L 274.766983 106.687843 
L 274.990295 101.858805 
L 275.213607 111.096875 
L 275.436918 104.036761 
L 275.883542 118.539602 
L 276.106853 123.331247 
L 276.330165 118.539602 
L 276.553477 120.717558 
L 276.776788 120.717558 
L 277.0001 108.91892 
L 277.223412 118.066475 
L 277.446723 113.657443 
L 277.670035 115.88852 
L 277.893347 122.475507 
L 278.116658 120.24443 
L 278.33997 112.801703 
L 278.563282 115.03278 
L 278.786593 119.861818 
L 279.009905 119.861818 
L 279.233217 117.210735 
L 279.456528 109.768008 
L 279.67984 107.972665 
L 279.903152 101.003065 
L 280.126463 110.150621 
L 280.349775 103.563634 
L 280.573087 103.563634 
L 280.796398 117.683862 
L 281.01971 119.861818 
L 281.243022 112.801703 
L 281.466333 112.801703 
L 281.689645 120.24443 
L 281.912956 122.475507 
L 282.136268 115.88852 
L 282.35958 118.066475 
L 282.582891 111.096875 
L 282.806203 115.505907 
L 283.252826 101.385678 
L 283.476138 108.445792 
L 283.69945 108.445792 
L 283.922761 113.27483 
L 284.146073 113.27483 
L 284.369385 108.445792 
L 284.592696 113.27483 
L 284.816008 106.214716 
L 285.262631 115.88852 
L 285.485943 110.623748 
L 285.709255 117.683862 
L 285.932566 113.27483 
L 286.155878 117.683862 
L 286.37919 115.03278 
L 286.602501 101.003065 
L 286.825813 110.150621 
L 287.049125 107.972665 
L 287.272436 101.003065 
L 287.495748 110.150621 
L 287.71906 101.003065 
L 287.942371 117.210735 
L 288.165683 117.210735 
L 288.388994 114.559653 
L 288.612306 113.650792 
L 288.835618 109.768008 
L 289.282241 114.123919 
L 289.505553 121.093519 
L 289.728864 121.093519 
L 289.952176 125.502551 
L 290.175488 109.294881 
L 290.398799 111.945963 
L 290.622111 116.354995 
L 290.845423 111.945963 
L 291.068734 116.354995 
L 291.292046 111.472836 
L 291.738669 128.153633 
L 291.961981 117.210735 
L 292.185293 115.03278 
L 292.408604 117.210735 
L 292.631916 112.801703 
L 293.078539 117.210735 
L 293.301851 117.210735 
L 293.525163 119.388691 
L 293.748474 110.150621 
L 293.971786 110.150621 
L 294.195098 119.388691 
L 294.418409 123.797722 
L 294.641721 112.328576 
L 294.865033 119.388691 
L 295.088344 114.559653 
L 295.311656 125.975678 
L 295.534967 128.153633 
L 295.758279 128.153633 
L 295.981591 121.093519 
L 296.204902 121.093519 
L 296.428214 118.915563 
L 296.651526 125.975678 
L 297.098149 114.559653 
L 297.321461 116.737608 
L 297.544772 125.975678 
L 297.991396 116.737608 
L 298.214707 116.737608 
L 298.661331 133.035792 
L 298.884642 128.679881 
L 299.107954 128.679881 
L 299.331266 119.388691 
L 299.554577 135.649481 
L 299.777889 136.122608 
L 300.001201 140.861132 
L 300.224512 140.478519 
L 300.447824 136.122608 
L 300.671136 141.334259 
L 300.894447 140.861132 
L 301.341071 131.713576 
L 301.564382 131.240449 
L 301.787694 138.683176 
L 302.011006 127.304545 
L 302.234317 140.861132 
L 302.457629 138.683176 
L 302.68094 131.713576 
L 302.904252 129.062494 
L 303.127564 124.653462 
L 303.350875 126.831418 
L 303.574187 124.653462 
L 303.797499 126.831418 
L 304.02081 133.418405 
L 304.244122 130.857837 
L 304.690745 130.857837 
L 304.914057 137.444824 
L 305.137369 137.827437 
L 305.36068 137.827437 
L 305.583992 135.649481 
L 305.807304 138.300564 
L 306.030615 138.300564 
L 306.70055 125.509202 
L 306.923862 122.948634 
L 307.147174 139.156304 
L 307.817109 125.509202 
L 308.04042 118.922215 
L 308.263732 132.569316 
L 308.487044 127.687158 
L 308.710355 136.978348 
L 308.933667 134.747272 
L 309.156978 137.451475 
L 309.38029 134.747272 
L 309.603602 141.807386 
L 309.826913 139.156304 
L 310.050225 129.918234 
L 310.273537 132.096189 
L 310.496848 129.535621 
L 310.72016 138.683176 
L 310.943472 129.535621 
L 311.166783 127.304545 
L 311.390095 127.304545 
L 311.613407 131.713576 
L 311.836718 129.535621 
L 312.06003 129.535621 
L 312.283342 136.505221 
L 312.506653 136.505221 
L 312.729965 129.535621 
L 312.953277 129.062494 
L 313.176588 142.709595 
L 313.623212 131.240449 
L 313.846523 128.679881 
L 314.069835 140.478519 
L 314.293147 140.478519 
L 314.516458 131.713576 
L 314.73977 145.270164 
L 314.963082 136.122608 
L 315.409705 136.122608 
L 315.633017 131.240449 
L 315.856328 129.062494 
L 316.07964 133.891532 
L 316.526263 124.653462 
L 316.749575 138.300564 
L 316.972886 136.122608 
L 317.196198 129.062494 
L 317.642821 135.649481 
L 318.089445 118.915563 
L 318.312756 121.619767 
L 318.536068 116.737608 
L 318.75938 116.737608 
L 318.982691 109.768008 
L 319.206003 112.328576 
L 319.429315 104.885849 
L 319.875938 104.885849 
L 320.09925 109.768008 
L 320.769185 109.768008 
L 320.992496 107.590053 
L 321.215808 111.472836 
L 321.43912 126.351639 
L 321.662431 122.468855 
L 321.885743 112.795052 
L 322.109055 113.177665 
L 322.332366 113.177665 
L 322.778989 101.852154 
L 323.002301 103.556982 
L 323.225613 103.556982 
L 323.448924 77.202382 
L 323.672236 70.615395 
L 323.895548 68.437439 
L 324.118859 79.816071 
L 324.565483 58.816757 
L 324.788794 58.816757 
L 325.012106 61.377325 
L 325.235418 61.377325 
L 325.458729 67.964312 
L 325.682041 70.142268 
L 325.905353 70.615395 
L 326.128664 59.19937 
L 326.351976 60.994712 
L 326.575288 60.994712 
L 326.798599 65.786357 
L 327.021911 73.229084 
L 327.245223 75.407039 
L 327.468534 66.259484 
L 327.915158 77.584995 
L 328.138469 78.058122 
L 328.361781 70.615395 
L 328.585093 70.615395 
L 328.808404 74.551299 
L 329.255028 55.256813 
L 329.478339 87.342661 
L 329.701651 75.873515 
L 329.924962 90.752318 
L 330.148274 74.544648 
L 330.371586 83.782718 
L 330.594897 98.285559 
L 330.818209 100.899248 
L 331.041521 112.315273 
L 331.264832 110.137318 
L 331.488144 103.550331 
L 331.934767 103.550331 
L 332.158079 100.899248 
L 332.381391 103.550331 
L 332.604702 100.899248 
L 332.828014 116.724305 
L 333.051326 118.90226 
L 333.274637 103.550331 
L 333.497949 113.64414 
L 333.721261 116.257829 
L 334.167884 130.378058 
L 334.391196 150.145671 
L 334.614507 139.998741 
L 334.837819 138.293912 
L 335.061131 130.760671 
L 335.284442 128.146982 
L 335.507754 137.820785 
L 335.731066 132.556013 
L 335.954377 144.407772 
L 336.177689 120.61374 
L 336.401001 123.317944 
L 336.624312 121.086867 
L 337.070935 121.086867 
L 337.294247 135.116582 
L 337.517559 123.791071 
L 337.74087 128.146982 
L 337.964182 123.317944 
L 338.187494 125.495899 
L 338.410805 124.640159 
L 338.634117 119.758 
L 338.857429 137.814134 
L 339.08074 135.10993 
L 339.304052 146.961689 
L 339.750675 129.049191 
L 340.197299 138.669874 
L 340.42061 138.669874 
L 340.643922 134.260842 
L 340.867234 150.994759 
L 341.090545 141.320956 
L 341.313857 143.552032 
L 341.537169 136.018791 
L 341.76048 136.491918 
L 341.983792 136.491918 
L 342.430415 147.907943 
L 342.653727 143.078905 
L 342.877039 145.256861 
L 343.10035 156.672886 
L 343.323662 156.672886 
L 343.546973 158.903962 
L 343.770285 148.757032 
L 343.993597 151.370721 
L 344.216908 157.957708 
L 344.44022 152.692936 
L 344.886843 181.225492 
L 345.110155 174.638505 
L 345.333467 176.81646 
L 345.78009 162.410785 
L 346.226713 161.46453 
L 346.450025 157.10862 
L 346.673337 161.46453 
L 346.896648 172.933676 
L 347.566583 163.642486 
L 347.789895 167.668905 
L 348.013207 167.668905 
L 348.236518 174.255892 
L 348.45983 176.81646 
L 348.906453 146.105949 
L 349.129765 148.283905 
L 349.353077 135.959019 
L 349.576388 138.190095 
L 349.7997 137.807482 
L 350.023012 137.807482 
L 350.246323 144.777082 
L 350.469635 129.425152 
L 350.692946 140.841178 
L 350.916258 132.076235 
L 351.13957 128.989419 
L 351.362881 124.160381 
L 351.586193 128.516292 
L 351.809505 128.043164 
L 352.032816 139.985438 
L 352.256128 132.452196 
L 352.47944 139.985438 
L 352.702751 130.274241 
L 352.926063 148.277253 
L 353.149375 144.394469 
L 353.372686 144.394469 
L 353.595998 144.777082 
L 354.042621 149.60612 
L 354.265933 146.955038 
L 354.712556 138.190095 
L 354.935868 140.36805 
L 355.15918 151.364069 
L 355.382491 142.163393 
L 355.605803 146.955038 
L 356.052426 135.576406 
L 356.275738 142.163393 
L 356.49905 133.39845 
L 356.722361 142.163393 
L 356.945673 140.36805 
L 357.168984 145.250209 
L 357.392296 134.25419 
L 357.615608 145.632822 
L 357.838919 141.22379 
L 358.062231 145.250209 
L 358.285543 145.250209 
L 358.508854 161.931006 
L 358.732166 161.931006 
L 358.955478 160.135663 
L 359.178789 171.604809 
L 359.402101 164.108962 
L 359.625413 161.931006 
L 359.848724 164.108962 
L 360.072036 157.957708 
L 360.518659 166.722651 
L 360.741971 156.57572 
L 360.965283 161.457879 
L 361.188594 161.457879 
L 361.411906 161.931006 
L 361.635218 152.692936 
L 361.858529 159.753051 
L 362.305153 149.988733 
L 362.751776 149.988733 
L 362.975088 159.279924 
L 363.198399 151.837196 
L 363.421711 154.015152 
L 363.645023 153.542025 
L 363.868334 156.193107 
L 364.091646 151.364069 
L 364.314957 151.364069 
L 364.538269 144.394469 
L 364.761581 142.546006 
L 364.984892 157.951057 
L 365.208204 153.542025 
L 365.431516 168.893955 
L 365.654827 171.07191 
L 365.878139 171.545037 
L 366.101451 173.776113 
L 366.324762 178.514637 
L 366.548074 174.158726 
L 366.771386 180.745713 
L 366.994697 178.514637 
L 367.218009 182.541056 
L 367.441321 173.776113 
L 367.887944 183.396796 
L 368.111256 180.745713 
L 368.334567 182.923669 
L 368.557879 180.363101 
L 368.781191 180.363101 
L 369.004502 178.132024 
L 369.227814 180.363101 
L 369.451126 175.098329 
L 369.674437 176.803157 
L 369.897749 163.156056 
L 370.121061 175.098329 
L 370.344372 172.447246 
L 370.567684 183.863272 
L 370.790995 179.034234 
L 371.014307 181.685316 
L 371.237619 187.799176 
L 371.46093 189.504005 
L 371.684242 188.272303 
L 371.907554 185.5681 
L 372.130865 195.241903 
L 372.354177 199.597814 
L 372.577489 194.859291 
L 372.8008 194.386163 
L 373.247424 200.973151 
L 373.470735 200.973151 
L 373.694047 191.68196 
L 373.917359 196.090992 
L 374.14067 194.859291 
L 374.363982 180.745713 
L 374.587294 194.865942 
L 375.257229 210.600485 
L 375.48054 210.224523 
L 375.927164 194.399466 
L 376.150475 198.755377 
L 376.373787 194.016854 
L 376.82041 196.194809 
L 377.267034 175.487593 
L 377.490345 171.604809 
L 377.713657 180.842879 
L 377.936968 168.900606 
L 378.16028 165.017822 
L 378.383592 169.373733 
L 378.606903 171.078562 
L 378.830215 155.344019 
L 379.276838 179.896625 
L 379.50015 171.078562 
L 379.946773 178.138676 
L 380.170085 166.722651 
L 380.393397 171.604809 
L 380.616708 164.108962 
L 380.84002 166.722651 
L 381.063332 175.96072 
L 381.733267 168.517993 
L 381.956578 182.547708 
L 382.17989 166.722651 
L 382.626513 182.547708 
L 382.849825 178.138676 
L 383.073137 171.078562 
L 383.296448 168.517993 
L 383.743072 199.604466 
L 383.966383 179.514012 
L 384.189695 201.835542 
L 384.413007 197.899637 
L 384.636318 209.368783 
L 384.85963 213.251567 
L 385.082941 208.039916 
L 385.306253 210.600485 
L 385.529565 198.748726 
L 385.752876 193.070599 
L 386.1995 208.895656 
L 386.422811 203.630885 
L 386.646123 204.013497 
L 387.092746 208.039916 
L 387.316058 198.748726 
L 387.53937 203.157758 
L 387.762681 199.221853 
L 387.985993 198.748726 
L 388.209305 205.80884 
L 388.432616 194.392815 
L 388.87924 190.45691 
L 389.102551 195.248555 
L 389.325863 194.865942 
L 389.549175 190.45691 
L 389.772486 197.42651 
L 389.995798 192.634866 
L 390.21911 195.248555 
L 390.442421 184.725663 
L 390.665733 179.514012 
L 391.112356 194.865942 
L 391.335668 201.835542 
L 391.558979 201.835542 
L 391.782291 195.248555 
L 392.005603 194.865942 
L 392.228914 194.865942 
L 392.452226 189.134695 
L 392.675538 190.45691 
L 392.898849 183.869923 
L 393.122161 188.278955 
L 393.568784 171.07191 
L 393.792096 177.658897 
L 394.015408 161.924355 
L 394.238719 166.333386 
L 394.462031 166.333386 
L 394.685343 171.07191 
L 394.908654 168.893955 
L 395.131966 175.954069 
L 395.578589 159.746399 
L 395.801901 162.306967 
L 396.025213 159.746399 
L 396.248524 166.715999 
L 396.471836 164.484923 
L 396.695148 164.484923 
L 396.918459 159.746399 
L 397.141771 166.715999 
L 397.365083 166.333386 
L 397.588394 166.333386 
L 397.811706 168.511342 
L 398.035018 164.484923 
L 398.258329 169.749695 
L 398.481641 179.040885 
L 398.704952 172.927025 
L 398.928264 176.809809 
L 399.598199 170.222822 
L 400.044822 177.282936 
L 400.268134 171.078562 
L 400.491446 151.843848 
L 400.714757 150.988108 
L 400.938069 155.726632 
L 401.161381 153.548676 
L 401.384692 144.401121 
L 401.608004 168.900606 
L 401.831316 146.579076 
L 402.054627 144.783734 
L 402.277939 157.957708 
L 402.501251 157.957708 
L 402.724562 160.135663 
L 402.947874 166.340038 
L 403.171186 164.544695 
L 403.394497 159.753051 
L 403.617809 157.575095 
L 403.841121 164.544695 
L 404.064432 148.283905 
L 404.287744 148.283905 
L 404.511056 161.931006 
L 404.734367 147.810778 
L 404.957679 145.632822 
L 405.18099 145.632822 
L 405.404302 164.108962 
L 405.850925 154.397765 
L 406.074237 143.454867 
L 406.297549 143.927994 
L 406.52086 130.280892 
L 406.744172 144.401121 
L 406.967484 148.757032 
L 407.414107 137.341007 
L 407.637419 139.992089 
L 408.307354 162.313619 
L 408.753977 146.105949 
L 408.977289 150.988108 
L 409.2006 150.988108 
L 409.423912 153.166063 
L 409.647224 143.454867 
L 409.870535 145.632822 
L 410.093847 159.279924 
L 410.317159 158.806796 
L 410.54047 152.219809 
L 410.763782 161.457879 
L 410.987094 149.988733 
L 411.210405 157.048847 
L 411.433717 157.048847 
L 411.657029 159.753051 
L 411.88034 159.753051 
L 412.103652 157.048847 
L 412.550275 143.454867 
L 412.773587 143.454867 
L 412.996898 138.663222 
L 413.443522 145.250209 
L 413.666833 161.457879 
L 413.890145 140.841178 
L 414.113457 152.692936 
L 414.336768 145.632822 
L 414.56008 146.105949 
L 414.783392 150.988108 
L 415.006703 139.992089 
L 415.676638 162.786746 
L 416.123262 146.105949 
L 416.793197 162.313619 
L 417.016508 152.692936 
L 417.23982 157.048847 
L 417.463132 155.344019 
L 417.686443 164.108962 
L 417.909755 159.279924 
L 418.356378 175.10498 
L 418.57969 163.635834 
L 418.803002 172.927025 
L 419.026313 163.635834 
L 419.472936 164.544695 
L 419.696248 162.313619 
L 419.91956 150.988108 
L 420.589495 165.017822 
L 420.812806 162.786746 
L 421.036118 144.401121 
L 421.482741 155.344019 
L 421.706053 160.135663 
L 421.929365 160.135663 
L 422.152676 157.957708 
L 422.375988 160.135663 
L 422.822611 150.514981 
L 423.045923 154.870892 
L 423.269235 157.048847 
L 423.492546 152.692936 
L 423.715858 152.692936 
L 423.93917 143.454867 
L 424.609105 157.575095 
L 424.832416 155.344019 
L 425.055728 157.575095 
L 425.27904 161.931006 
L 425.502351 161.457879 
L 425.725663 165.866911 
L 425.948974 163.635834 
L 426.172286 153.166063 
L 426.395598 154.021803 
L 426.618909 151.370721 
L 426.842221 134.260842 
L 427.512156 144.401121 
L 427.735468 144.783734 
L 427.958779 142.170045 
L 428.182091 148.757032 
L 428.405403 149.139645 
L 428.628714 150.988108 
L 429.075338 139.992089 
L 429.298649 142.170045 
L 429.521961 131.227146 
L 429.968584 144.783734 
L 430.191896 135.583057 
L 430.415208 137.814134 
L 430.638519 137.341007 
L 430.861831 134.636803 
L 431.085143 141.696917 
L 431.308454 139.045835 
L 431.531766 134.636803 
L 431.755078 136.867879 
L 431.978389 128.049816 
L 432.201701 134.636803 
L 432.425013 136.867879 
L 432.648324 129.425152 
L 433.094947 134.636803 
L 433.541571 129.425152 
L 433.764882 136.485267 
L 433.988194 136.485267 
L 434.434817 151.837196 
L 434.658129 142.546006 
L 434.881441 166.340038 
L 435.104752 166.722651 
L 435.328064 168.900606 
L 435.551376 155.726632 
L 435.774687 160.608791 
L 435.997999 161.081918 
L 436.221311 158.903962 
L 436.444622 165.490949 
L 436.667934 150.13902 
L 436.891246 154.49493 
L 437.114557 142.552657 
L 437.337869 149.612772 
L 437.561181 151.843848 
L 437.784492 148.757032 
L 438.007804 137.814134 
L 438.454427 151.843848 
L 438.677739 146.961689 
L 438.901051 149.139645 
L 439.124362 149.139645 
L 439.570985 141.696917 
L 439.794297 139.518962 
L 440.24092 143.927994 
L 440.464232 152.219809 
L 440.687544 141.22379 
L 440.910855 143.454867 
L 441.134167 132.076235 
L 441.357479 148.283905 
L 441.58079 139.045835 
L 442.027414 134.636803 
L 442.250725 134.636803 
L 442.474037 132.458848 
L 442.697349 139.518962 
L 442.92066 130.280892 
L 443.143972 139.518962 
L 443.590595 134.636803 
L 443.813907 141.696917 
L 444.037219 143.927994 
L 444.26053 141.696917 
L 444.483842 132.458848 
L 444.707154 135.583057 
L 444.930465 130.754019 
L 445.153777 130.754019 
L 445.377089 139.992089 
L 445.6004 142.170045 
L 445.823712 142.170045 
L 446.047024 135.10993 
L 446.270335 142.170045 
L 446.493647 135.10993 
L 446.716958 135.10993 
L 446.94027 141.696917 
L 447.163582 134.636803 
L 447.386893 141.22379 
L 447.833517 146.105949 
L 448.056828 134.636803 
L 448.503452 146.105949 
L 448.726763 150.988108 
L 448.950075 153.166063 
L 449.173387 150.514981 
L 449.396698 150.514981 
L 449.62001 154.870892 
L 449.843322 163.635834 
L 450.066633 161.457879 
L 450.289945 152.692936 
L 450.513257 150.514981 
L 450.736568 164.544695 
L 450.95988 164.544695 
L 451.183192 165.017822 
L 451.629815 150.988108 
L 451.853127 162.313619 
L 452.29975 150.514981 
L 452.746373 160.135663 
L 452.969685 160.135663 
L 453.192996 155.344019 
L 453.416308 153.166063 
L 453.63962 153.548676 
L 453.862931 157.957708 
L 454.086243 157.957708 
L 454.532866 153.548676 
L 454.756178 165.017822 
L 455.202801 153.166063 
L 455.426113 159.753051 
L 455.649425 154.870892 
L 455.872736 153.166063 
L 456.096048 153.166063 
L 456.31936 148.757032 
L 456.542671 148.757032 
L 456.989295 137.341007 
L 457.212606 139.518962 
L 457.435918 144.401121 
L 457.65923 146.579076 
L 457.882541 139.518962 
L 458.105853 139.518962 
L 458.552476 136.018791 
L 458.775788 142.552657 
L 458.9991 133.405102 
L 459.222411 135.583057 
L 459.445723 130.754019 
L 459.669035 137.814134 
L 459.892346 137.814134 
L 460.115658 133.405102 
L 460.338969 137.814134 
L 460.562281 135.583057 
L 460.785593 137.814134 
L 461.008904 135.583057 
L 461.232216 142.552657 
L 461.455528 144.783734 
L 461.902151 140.374702 
L 462.125463 136.018791 
L 462.348774 140.847829 
L 462.572086 140.374702 
L 462.795398 142.552657 
L 463.018709 142.170045 
L 463.242021 139.992089 
L 463.465333 132.931975 
L 464.135268 146.961689 
L 464.358579 142.170045 
L 464.581891 142.170045 
L 464.805203 153.166063 
L 465.028514 148.757032 
L 465.251826 157.957708 
L 465.475138 155.726632 
L 465.698449 148.757032 
L 465.921761 146.579076 
L 466.145073 151.370721 
L 466.368384 146.961689 
L 466.591696 149.139645 
L 466.815008 144.401121 
L 467.038319 146.579076 
L 467.261631 144.401121 
L 467.484942 148.757032 
L 467.708254 157.575095 
L 467.931566 155.344019 
L 468.154877 147.810778 
L 468.378189 147.810778 
L 468.601501 152.692936 
L 468.824812 152.219809 
L 469.048124 149.60612 
L 469.271436 165.011171 
L 469.494747 155.71998 
L 469.718059 169.367082 
L 469.941371 166.333386 
L 470.164682 168.511342 
L 470.387994 157.515323 
L 470.611306 173.776113 
L 470.834617 179.889974 
L 471.057929 178.132024 
L 471.281241 172.920374 
L 471.504552 184.245884 
L 471.727864 179.507361 
L 471.951176 183.863272 
L 472.174487 177.276284 
L 472.621111 192.628214 
L 472.844422 190.832872 
L 473.067734 175.098329 
L 473.514357 186.476961 
L 473.737669 189.128043 
L 473.96098 195.71503 
L 474.630915 171.974119 
L 474.854227 153.535373 
L 475.524162 178.507986 
L 475.747474 171.538386 
L 475.970785 171.065259 
L 476.194097 169.36043 
L 476.417409 174.152075 
L 476.64072 169.36043 
L 476.864032 169.743043 
L 477.087344 174.625202 
L 477.310655 184.245884 
L 477.533967 172.447246 
L 477.757279 184.245884 
L 477.98059 170.21617 
L 478.203902 179.507361 
L 478.427214 183.390144 
L 478.650525 169.743043 
L 478.873837 177.276284 
L 479.097149 176.803157 
L 479.32046 178.507986 
L 479.543772 172.447246 
L 479.767084 174.625202 
L 479.990395 175.098329 
L 480.213707 170.21617 
L 480.437019 170.21617 
L 480.883642 181.212189 
L 481.106953 186.094348 
L 481.330265 168.038215 
L 481.553577 182.067929 
L 481.776888 179.507361 
L 482.0002 174.625202 
L 482.223512 181.212189 
L 482.446823 171.974119 
L 482.670135 179.034234 
L 482.893447 176.33003 
L 483.34007 190.450259 
L 483.563382 185.5681 
L 483.786693 176.33003 
L 484.010005 180.356449 
L 484.233317 180.356449 
L 484.67994 173.296335 
L 485.126563 207.03389 
L 485.573187 185.094973 
L 485.796498 182.917017 
L 486.243122 194.386163 
L 486.466433 205.802189 
L 486.689745 196.564119 
L 486.913057 201.828891 
L 487.35968 183.863272 
L 487.582991 186.094348 
L 487.806303 181.685316 
L 488.029615 183.390144 
L 488.252926 187.799176 
L 488.476238 197.037246 
L 488.922861 189.504005 
L 489.146173 185.094973 
L 489.369485 200.973151 
L 489.592796 201.446278 
L 489.816108 189.504005 
L 490.03942 189.504005 
L 490.262731 189.977132 
L 490.486043 189.504005 
L 490.709355 193.913036 
L 490.932666 193.913036 
L 491.155978 179.883322 
L 491.37929 182.061277 
L 491.602601 175.001163 
L 491.825913 179.883322 
L 492.049225 177.652246 
L 492.272536 179.883322 
L 492.495848 174.61855 
L 492.71916 179.410195 
L 492.942471 166.236221 
L 493.165783 182.061277 
L 493.389095 179.883322 
L 493.612406 186.943436 
L 493.835718 179.883322 
L 494.05903 182.061277 
L 494.282341 177.652246 
L 494.505653 189.121392 
L 494.728964 190.353093 
L 494.952276 181.58815 
L 495.175588 195.235252 
L 495.398899 195.235252 
L 495.845523 188.648265 
L 496.068834 189.121392 
L 496.292146 185.944061 
L 496.515458 203.527067 
L 496.962081 180.259283 
L 497.185393 185.561448 
L 497.408704 178.028207 
L 497.632016 174.994512 
L 497.855328 154.37781 
L 498.525263 183.376842 
L 498.748574 167.078658 
L 498.971886 169.72974 
L 499.195198 169.72974 
L 499.418509 170.202867 
L 499.641821 181.581499 
L 499.865133 172.380823 
L 500.088444 170.202867 
L 500.311756 181.198886 
L 500.758379 185.08167 
L 500.981691 174.138772 
L 501.205003 176.316727 
L 501.428314 175.8436 
L 502.098249 189.963829 
L 502.544872 178.494683 
L 502.768184 185.554797 
L 502.991496 178.494683 
L 503.214807 175.8436 
L 503.438119 181.198886 
L 503.661431 178.494683 
L 503.884742 178.494683 
L 504.108054 173.665645 
L 504.331366 171.434568 
L 504.554677 180.725759 
L 504.777989 173.283032 
L 505.001301 175.8436 
L 505.224612 176.316727 
L 505.671236 164.847581 
L 505.894547 167.551785 
L 506.117859 164.847581 
L 506.341171 173.665645 
L 506.564482 171.434568 
L 506.787794 171.434568 
L 507.234417 164.464968 
L 507.457729 175.8436 
L 507.681041 180.252632 
L 507.904352 173.283032 
L 508.127664 171.051956 
L 508.350975 171.051956 
L 508.574287 159.162803 
L 508.797599 176.692689 
L 509.02091 167.545133 
L 509.244222 176.692689 
L 509.467534 169.723089 
L 509.690845 158.72707 
L 509.914157 163.136101 
L 510.137469 155.60286 
L 510.36078 153.424905 
L 510.584092 153.424905 
L 510.807404 145.982177 
L 511.030715 150.811215 
L 511.254027 143.751101 
L 511.477339 145.982177 
L 511.70065 141.190533 
L 511.923962 143.368488 
L 512.370585 161.334107 
L 512.817209 145.126438 
L 513.04052 160.478367 
L 513.710455 174.981209 
L 513.933767 165.690018 
L 514.157079 172.750132 
L 514.603702 176.686037 
L 514.827014 173.652342 
L 515.050325 161.800583 
L 515.273637 174.50143 
L 515.496948 165.683367 
L 515.72026 164.3545 
L 515.943572 180.179557 
L 516.390195 145.060014 
L 516.613507 160.847677 
L 516.836818 203.020683 
L 517.06013 212.265404 
L 517.283442 227.999947 
L 517.506753 212.265404 
L 517.730065 221.886087 
L 517.953377 202.178246 
L 518.176688 193.83331 
L 518.4 200.80291 
L 518.4 200.80291 
" style="fill:none;stroke:#4c72b0;stroke-linecap:round;stroke-width:1.75;"/>
   </g>
   <g id="patch_3">
    <path d="M 72 356.4 
L 518.4 356.4 
" style="fill:none;"/>
   </g>
   <g id="patch_4">
    <path d="M 72 39.6 
L 518.4 39.6 
" style="fill:none;"/>
   </g>
   <g id="patch_5">
    <path d="M 72 356.4 
L 72 39.6 
" style="fill:none;"/>
   </g>
   <g id="patch_6">
    <path d="M 518.4 356.4 
L 518.4 39.6 
" style="fill:none;"/>
   </g>
   <g id="text_14">
    <!-- i - 0.5868782369147179 * jm -->
    <defs>
     <path d="M 9.125 0 
L 9.125 10.6875 
L 18.65625 10.6875 
L 18.65625 0 
z
" id="LiberationSans-2e"/>
     <path d="M 51.265625 19.1875 
Q 51.265625 14.796875 49.875 11.109375 
Q 48.484375 7.421875 45.625 4.734375 
Q 42.78125 2.046875 38.328125 0.53125 
Q 33.890625 -0.984375 27.828125 -0.984375 
Q 21.78125 -0.984375 17.359375 0.53125 
Q 12.9375 2.046875 10.03125 4.703125 
Q 7.125 7.375 5.734375 11.0625 
Q 4.34375 14.75 4.34375 19.09375 
Q 4.34375 22.859375 5.484375 25.78125 
Q 6.640625 28.71875 8.5625 30.828125 
Q 10.5 32.953125 12.96875 34.25 
Q 15.4375 35.546875 18.0625 35.984375 
L 18.0625 36.1875 
Q 15.1875 36.859375 12.90625 38.375 
Q 10.640625 39.890625 9.09375 42.015625 
Q 7.5625 44.140625 6.75 46.71875 
Q 5.953125 49.3125 5.953125 52.203125 
Q 5.953125 55.8125 7.34375 59 
Q 8.734375 62.203125 11.46875 64.625 
Q 14.203125 67.046875 18.25 68.4375 
Q 22.3125 69.828125 27.640625 69.828125 
Q 33.25 69.828125 37.375 68.40625 
Q 41.5 67 44.203125 64.578125 
Q 46.921875 62.15625 48.234375 58.9375 
Q 49.5625 55.71875 49.5625 52.09375 
Q 49.5625 49.265625 48.75 46.671875 
Q 47.953125 44.09375 46.40625 41.96875 
Q 44.875 39.84375 42.59375 38.34375 
Q 40.328125 36.859375 37.359375 36.28125 
L 37.359375 36.078125 
Q 40.328125 35.59375 42.859375 34.296875 
Q 45.40625 33.015625 47.265625 30.890625 
Q 49.125 28.765625 50.1875 25.828125 
Q 51.265625 22.90625 51.265625 19.1875 
M 40.4375 51.609375 
Q 40.4375 54.203125 39.765625 56.34375 
Q 39.109375 58.5 37.59375 60.03125 
Q 36.078125 61.578125 33.640625 62.421875 
Q 31.203125 63.28125 27.640625 63.28125 
Q 24.171875 63.28125 21.78125 62.421875 
Q 19.390625 61.578125 17.84375 60.03125 
Q 16.3125 58.5 15.625 56.34375 
Q 14.9375 54.203125 14.9375 51.609375 
Q 14.9375 49.5625 15.46875 47.40625 
Q 16.015625 45.265625 17.421875 43.5 
Q 18.84375 41.75 21.328125 40.625 
Q 23.828125 39.5 27.734375 39.5 
Q 31.890625 39.5 34.40625 40.625 
Q 36.921875 41.75 38.25 43.5 
Q 39.59375 45.265625 40.015625 47.40625 
Q 40.4375 49.5625 40.4375 51.609375 
M 42.140625 20.015625 
Q 42.140625 22.515625 41.453125 24.828125 
Q 40.765625 27.15625 39.109375 28.9375 
Q 37.453125 30.71875 34.640625 31.8125 
Q 31.84375 32.90625 27.640625 32.90625 
Q 23.78125 32.90625 21.0625 31.8125 
Q 18.359375 30.71875 16.671875 28.90625 
Q 14.984375 27.09375 14.203125 24.71875 
Q 13.421875 22.359375 13.421875 19.828125 
Q 13.421875 16.65625 14.203125 14.03125 
Q 14.984375 11.421875 16.6875 9.546875 
Q 18.40625 7.671875 21.1875 6.640625 
Q 23.96875 5.609375 27.9375 5.609375 
Q 31.9375 5.609375 34.671875 6.640625 
Q 37.40625 7.671875 39.0625 9.546875 
Q 40.71875 11.421875 41.421875 14.078125 
Q 42.140625 16.75 42.140625 20.015625 
" id="LiberationSans-38"/>
     <path d="M 50.59375 61.671875 
Q 45.40625 53.765625 41.0625 46.453125 
Q 36.71875 39.15625 33.59375 31.75 
Q 30.46875 24.359375 28.734375 16.578125 
Q 27 8.796875 27 0 
L 17.828125 0 
Q 17.828125 8.25 19.78125 16.1875 
Q 21.734375 24.125 25.046875 31.765625 
Q 28.375 39.40625 32.765625 46.78125 
Q 37.15625 54.15625 42.09375 61.328125 
L 5.125 61.328125 
L 5.125 68.796875 
L 50.59375 68.796875 
z
" id="LiberationSans-37"/>
     <path d="M 22.265625 54.390625 
L 35.15625 59.421875 
L 37.359375 52.984375 
L 23.578125 49.421875 
L 32.625 37.203125 
L 26.8125 33.6875 
L 19.484375 46.296875 
L 11.859375 33.796875 
L 6.0625 37.3125 
L 15.28125 49.421875 
L 1.609375 52.984375 
L 3.8125 59.515625 
L 16.84375 54.296875 
L 16.265625 68.796875 
L 22.90625 68.796875 
z
" id="LiberationSans-2a"/>
     <path d="M 6.6875 64.0625 
L 6.6875 72.46875 
L 15.484375 72.46875 
L 15.484375 64.0625 
z
M 15.484375 -6.546875 
Q 15.484375 -9.578125 14.96875 -12.15625 
Q 14.453125 -14.75 13.125 -16.65625 
Q 11.8125 -18.5625 9.546875 -19.65625 
Q 7.28125 -20.75 3.765625 -20.75 
Q 2.09375 -20.75 0.5 -20.65625 
Q -1.078125 -20.5625 -2.4375 -20.3125 
L -2.4375 -13.53125 
Q -1.8125 -13.625 -0.921875 -13.71875 
Q -0.046875 -13.8125 0.59375 -13.8125 
Q 2.4375 -13.8125 3.625 -13.328125 
Q 4.828125 -12.84375 5.515625 -11.796875 
Q 6.203125 -10.75 6.4375 -9.109375 
Q 6.6875 -7.46875 6.6875 -5.21875 
L 6.6875 52.828125 
L 15.484375 52.828125 
z
" id="LiberationSans-6a"/>
    </defs>
    <g style="fill:#262626;" transform="translate(218.146875 34.6)scale(0.12 -0.12)">
     <use xlink:href="#LiberationSans-69"/>
     <use x="22.216796875" xlink:href="#LiberationSans-20"/>
     <use x="50.0" xlink:href="#LiberationSans-2d"/>
     <use x="83.30078125" xlink:href="#LiberationSans-20"/>
     <use x="111.083984375" xlink:href="#LiberationSans-30"/>
     <use x="166.69921875" xlink:href="#LiberationSans-2e"/>
     <use x="194.482421875" xlink:href="#LiberationSans-35"/>
     <use x="250.09765625" xlink:href="#LiberationSans-38"/>
     <use x="305.712890625" xlink:href="#LiberationSans-36"/>
     <use x="361.328125" xlink:href="#LiberationSans-38"/>
     <use x="416.943359375" xlink:href="#LiberationSans-37"/>
     <use x="472.55859375" xlink:href="#LiberationSans-38"/>
     <use x="528.173828125" xlink:href="#LiberationSans-32"/>
     <use x="583.7890625" xlink:href="#LiberationSans-33"/>
     <use x="639.404296875" xlink:href="#LiberationSans-36"/>
     <use x="695.01953125" xlink:href="#LiberationSans-39"/>
     <use x="750.634765625" xlink:href="#LiberationSans-31"/>
     <use x="806.25" xlink:href="#LiberationSans-34"/>
     <use x="861.865234375" xlink:href="#LiberationSans-37"/>
     <use x="917.48046875" xlink:href="#LiberationSans-31"/>
     <use x="973.095703125" xlink:href="#LiberationSans-37"/>
     <use x="1028.7109375" xlink:href="#LiberationSans-39"/>
     <use x="1084.326171875" xlink:href="#LiberationSans-20"/>
     <use x="1112.109375" xlink:href="#LiberationSans-2a"/>
     <use x="1151.025390625" xlink:href="#LiberationSans-20"/>
     <use x="1178.80859375" xlink:href="#LiberationSans-6a"/>
     <use x="1201.025390625" xlink:href="#LiberationSans-6d"/>
    </g>
   </g>
  </g>
 </g>
 <defs>
  <clipPath id="p1fbb8aae32">
   <rect height="316.8" width="446.4" x="72.0" y="39.6"/>
  </clipPath>
 </defs>
</svg>
