<?xml version="1.0" encoding="utf-8" standalone="no"?>
<!DOCTYPE svg PUBLIC "-//W3C//DTD SVG 1.1//EN"
  "http://www.w3.org/Graphics/SVG/1.1/DTD/svg11.dtd">
<!-- Created with matplotlib (http://matplotlib.org/) -->
<svg height="396pt" version="1.1" viewBox="0 0 576 396" width="576pt" xmlns="http://www.w3.org/2000/svg" xmlns:xlink="http://www.w3.org/1999/xlink">
 <defs>
  <style type="text/css">
*{stroke-linecap:butt;stroke-linejoin:round;stroke-miterlimit:100000;}
  </style>
 </defs>
 <g id="figure_1">
  <g id="patch_1">
   <path d="M 0 396 
L 576 396 
L 576 0 
L 0 0 
z
" style="fill:#ffffff;"/>
  </g>
  <g id="axes_1">
   <g id="patch_2">
    <path d="M 72 356.4 
L 518.4 356.4 
L 518.4 39.6 
L 72 39.6 
z
" style="fill:#eaeaf2;"/>
   </g>
   <g id="matplotlib.axis_1">
    <g id="xtick_1">
     <g id="line2d_1">
      <path clip-path="url(#p1641283be6)" d="M 72 356.4 
L 72 39.6 
" style="fill:none;stroke:#ffffff;stroke-linecap:round;"/>
     </g>
     <g id="line2d_2"/>
     <g id="line2d_3"/>
     <g id="text_1">
      <!-- 2015-11-10 10:32:00 -->
      <defs>
       <path d="M 5.03125 0 
L 5.03125 6.203125 
Q 7.515625 11.921875 11.109375 16.28125 
Q 14.703125 20.65625 18.65625 24.1875 
Q 22.609375 27.734375 26.484375 30.765625 
Q 30.375 33.796875 33.5 36.8125 
Q 36.625 39.84375 38.546875 43.15625 
Q 40.484375 46.484375 40.484375 50.6875 
Q 40.484375 53.609375 39.59375 55.828125 
Q 38.71875 58.0625 37.0625 59.5625 
Q 35.40625 61.078125 33.078125 61.828125 
Q 30.765625 62.59375 27.9375 62.59375 
Q 25.296875 62.59375 22.96875 61.859375 
Q 20.65625 61.140625 18.84375 59.671875 
Q 17.046875 58.203125 15.890625 56.03125 
Q 14.75 53.859375 14.40625 50.984375 
L 5.421875 51.8125 
Q 5.859375 55.515625 7.46875 58.78125 
Q 9.078125 62.0625 11.90625 64.53125 
Q 14.75 67 18.71875 68.40625 
Q 22.703125 69.828125 27.9375 69.828125 
Q 33.0625 69.828125 37.0625 68.609375 
Q 41.0625 67.390625 43.8125 64.984375 
Q 46.578125 62.59375 48.046875 59.078125 
Q 49.515625 55.5625 49.515625 50.984375 
Q 49.515625 47.515625 48.265625 44.390625 
Q 47.015625 41.265625 44.9375 38.421875 
Q 42.875 35.59375 40.140625 32.953125 
Q 37.40625 30.328125 34.421875 27.8125 
Q 31.453125 25.296875 28.421875 22.828125 
Q 25.390625 20.359375 22.71875 17.859375 
Q 20.0625 15.375 17.96875 12.8125 
Q 15.875 10.25 14.703125 7.46875 
L 50.59375 7.46875 
L 50.59375 0 
z
" id="LiberationSans-32"/>
       <path d="M 7.625 0 
L 7.625 7.46875 
L 25.140625 7.46875 
L 25.140625 60.40625 
L 9.625 49.3125 
L 9.625 57.625 
L 25.875 68.796875 
L 33.984375 68.796875 
L 33.984375 7.46875 
L 50.734375 7.46875 
L 50.734375 0 
z
" id="LiberationSans-31"/>
       <path d="M 51.703125 34.421875 
Q 51.703125 24.515625 49.828125 17.75 
Q 47.953125 10.984375 44.703125 6.8125 
Q 41.453125 2.640625 37.0625 0.828125 
Q 32.671875 -0.984375 27.6875 -0.984375 
Q 22.65625 -0.984375 18.3125 0.828125 
Q 13.96875 2.640625 10.765625 6.78125 
Q 7.5625 10.9375 5.734375 17.703125 
Q 3.90625 24.46875 3.90625 34.421875 
Q 3.90625 44.828125 5.734375 51.640625 
Q 7.5625 58.453125 10.78125 62.5 
Q 14.015625 66.546875 18.40625 68.1875 
Q 22.796875 69.828125 27.984375 69.828125 
Q 32.90625 69.828125 37.21875 68.1875 
Q 41.546875 66.546875 44.765625 62.5 
Q 48 58.453125 49.84375 51.640625 
Q 51.703125 44.828125 51.703125 34.421875 
M 42.78125 34.421875 
Q 42.78125 42.625 41.796875 48.0625 
Q 40.828125 53.515625 38.921875 56.765625 
Q 37.015625 60.015625 34.25 61.359375 
Q 31.5 62.703125 27.984375 62.703125 
Q 24.265625 62.703125 21.4375 61.328125 
Q 18.609375 59.96875 16.671875 56.71875 
Q 14.75 53.46875 13.765625 48.015625 
Q 12.796875 42.578125 12.796875 34.421875 
Q 12.796875 26.515625 13.796875 21.09375 
Q 14.796875 15.671875 16.71875 12.375 
Q 18.65625 9.078125 21.4375 7.640625 
Q 24.21875 6.203125 27.78125 6.203125 
Q 31.25 6.203125 34.03125 7.640625 
Q 36.8125 9.078125 38.734375 12.375 
Q 40.671875 15.671875 41.71875 21.09375 
Q 42.78125 26.515625 42.78125 34.421875 
" id="LiberationSans-30"/>
       <path d="M 9.125 42.71875 
L 9.125 52.828125 
L 18.65625 52.828125 
L 18.65625 42.71875 
z
M 9.125 0 
L 9.125 10.109375 
L 18.65625 10.109375 
L 18.65625 0 
z
" id="LiberationSans-3a"/>
       <path d="M 51.21875 19 
Q 51.21875 14.265625 49.671875 10.546875 
Q 48.140625 6.84375 45.1875 4.265625 
Q 42.234375 1.703125 37.859375 0.359375 
Q 33.5 -0.984375 27.875 -0.984375 
Q 21.484375 -0.984375 17.109375 0.609375 
Q 12.75 2.203125 9.90625 4.8125 
Q 7.078125 7.421875 5.65625 10.765625 
Q 4.25 14.109375 3.8125 17.671875 
L 12.890625 18.5 
Q 13.28125 15.765625 14.328125 13.515625 
Q 15.375 11.28125 17.1875 9.671875 
Q 19 8.0625 21.625 7.171875 
Q 24.265625 6.296875 27.875 6.296875 
Q 34.515625 6.296875 38.296875 9.5625 
Q 42.09375 12.84375 42.09375 19.28125 
Q 42.09375 23.09375 40.40625 25.40625 
Q 38.71875 27.734375 36.203125 29.03125 
Q 33.6875 30.328125 30.734375 30.765625 
Q 27.78125 31.203125 25.296875 31.203125 
L 20.3125 31.203125 
L 20.3125 38.8125 
L 25.09375 38.8125 
Q 27.59375 38.8125 30.265625 39.328125 
Q 32.953125 39.84375 35.171875 41.1875 
Q 37.40625 42.53125 38.84375 44.828125 
Q 40.28125 47.125 40.28125 50.6875 
Q 40.28125 56.203125 37.03125 59.390625 
Q 33.796875 62.59375 27.390625 62.59375 
Q 21.578125 62.59375 17.984375 59.609375 
Q 14.40625 56.640625 13.8125 51.21875 
L 4.984375 51.90625 
Q 5.515625 56.453125 7.46875 59.8125 
Q 9.421875 63.1875 12.421875 65.40625 
Q 15.4375 67.625 19.28125 68.71875 
Q 23.140625 69.828125 27.484375 69.828125 
Q 33.25 69.828125 37.390625 68.375 
Q 41.546875 66.9375 44.1875 64.46875 
Q 46.828125 62.015625 48.0625 58.6875 
Q 49.3125 55.375 49.3125 51.609375 
Q 49.3125 48.578125 48.484375 45.9375 
Q 47.65625 43.3125 45.890625 41.203125 
Q 44.140625 39.109375 41.421875 37.59375 
Q 38.71875 36.078125 34.90625 35.296875 
L 34.90625 35.109375 
Q 39.0625 34.671875 42.140625 33.21875 
Q 45.21875 31.78125 47.21875 29.625 
Q 49.21875 27.484375 50.21875 24.75 
Q 51.21875 22.015625 51.21875 19 
" id="LiberationSans-33"/>
       <path d="M 51.421875 22.40625 
Q 51.421875 17.234375 49.859375 12.9375 
Q 48.296875 8.640625 45.21875 5.53125 
Q 42.140625 2.4375 37.578125 0.71875 
Q 33.015625 -0.984375 27 -0.984375 
Q 21.578125 -0.984375 17.546875 0.28125 
Q 13.53125 1.5625 10.734375 3.78125 
Q 7.953125 6 6.3125 8.984375 
Q 4.6875 11.96875 4 15.375 
L 12.890625 16.40625 
Q 13.421875 14.453125 14.390625 12.625 
Q 15.375 10.796875 17.0625 9.34375 
Q 18.75 7.90625 21.21875 7.046875 
Q 23.6875 6.203125 27.203125 6.203125 
Q 30.609375 6.203125 33.390625 7.25 
Q 36.1875 8.296875 38.15625 10.34375 
Q 40.140625 12.40625 41.203125 15.375 
Q 42.28125 18.359375 42.28125 22.21875 
Q 42.28125 25.390625 41.25 28.046875 
Q 40.234375 30.71875 38.328125 32.640625 
Q 36.421875 34.578125 33.65625 35.640625 
Q 30.90625 36.71875 27.390625 36.71875 
Q 25.203125 36.71875 23.34375 36.328125 
Q 21.484375 35.9375 19.890625 35.25 
Q 18.3125 34.578125 17.015625 33.671875 
Q 15.71875 32.765625 14.59375 31.78125 
L 6 31.78125 
L 8.296875 68.796875 
L 47.40625 68.796875 
L 47.40625 61.328125 
L 16.3125 61.328125 
L 14.984375 39.5 
Q 17.328125 41.3125 20.84375 42.59375 
Q 24.359375 43.890625 29.203125 43.890625 
Q 34.328125 43.890625 38.421875 42.328125 
Q 42.53125 40.765625 45.40625 37.90625 
Q 48.296875 35.0625 49.859375 31.109375 
Q 51.421875 27.15625 51.421875 22.40625 
" id="LiberationSans-35"/>
       <path id="LiberationSans-20"/>
       <path d="M 4.4375 22.65625 
L 4.4375 30.46875 
L 28.859375 30.46875 
L 28.859375 22.65625 
z
" id="LiberationSans-2d"/>
      </defs>
      <g style="fill:#262626;" transform="translate(25.5765625 370.646875)scale(0.1 -0.1)">
       <use xlink:href="#LiberationSans-32"/>
       <use x="55.615234375" xlink:href="#LiberationSans-30"/>
       <use x="111.23046875" xlink:href="#LiberationSans-31"/>
       <use x="166.845703125" xlink:href="#LiberationSans-35"/>
       <use x="222.4609375" xlink:href="#LiberationSans-2d"/>
       <use x="255.76171875" xlink:href="#LiberationSans-31"/>
       <use x="311.376953125" xlink:href="#LiberationSans-31"/>
       <use x="366.9921875" xlink:href="#LiberationSans-2d"/>
       <use x="400.29296875" xlink:href="#LiberationSans-31"/>
       <use x="455.908203125" xlink:href="#LiberationSans-30"/>
       <use x="511.5234375" xlink:href="#LiberationSans-20"/>
       <use x="539.306640625" xlink:href="#LiberationSans-31"/>
       <use x="594.921875" xlink:href="#LiberationSans-30"/>
       <use x="650.537109375" xlink:href="#LiberationSans-3a"/>
       <use x="678.3203125" xlink:href="#LiberationSans-33"/>
       <use x="733.935546875" xlink:href="#LiberationSans-32"/>
       <use x="789.55078125" xlink:href="#LiberationSans-3a"/>
       <use x="817.333984375" xlink:href="#LiberationSans-30"/>
       <use x="872.94921875" xlink:href="#LiberationSans-30"/>
      </g>
     </g>
    </g>
    <g id="xtick_2">
     <g id="line2d_4">
      <path clip-path="url(#p1641283be6)" d="M 183.655828 356.4 
L 183.655828 39.6 
" style="fill:none;stroke:#ffffff;stroke-linecap:round;"/>
     </g>
     <g id="line2d_5"/>
     <g id="line2d_6"/>
     <g id="text_2">
      <!-- 2015-11-12 09:25:00 -->
      <defs>
       <path d="M 50.875 35.796875 
Q 50.875 26.609375 49.140625 19.703125 
Q 47.40625 12.796875 44.1875 8.203125 
Q 40.96875 3.609375 36.34375 1.3125 
Q 31.734375 -0.984375 25.984375 -0.984375 
Q 22.015625 -0.984375 18.84375 -0.171875 
Q 15.671875 0.640625 13.171875 2.34375 
Q 10.6875 4.046875 8.921875 6.78125 
Q 7.171875 9.515625 6.109375 13.375 
L 14.5 14.703125 
Q 15.875 10.25 18.78125 8.171875 
Q 21.6875 6.109375 26.125 6.109375 
Q 29.6875 6.109375 32.640625 7.78125 
Q 35.59375 9.46875 37.671875 12.84375 
Q 39.75 16.21875 40.921875 21.296875 
Q 42.09375 26.375 42.1875 33.203125 
Q 41.15625 30.90625 39.375 29.09375 
Q 37.59375 27.296875 35.328125 26.046875 
Q 33.0625 24.8125 30.421875 24.140625 
Q 27.78125 23.484375 25.09375 23.484375 
Q 20.40625 23.484375 16.625 25.171875 
Q 12.84375 26.859375 10.203125 29.875 
Q 7.5625 32.90625 6.125 37.171875 
Q 4.6875 41.453125 4.6875 46.6875 
Q 4.6875 52 6.21875 56.296875 
Q 7.765625 60.59375 10.6875 63.59375 
Q 13.625 66.609375 17.890625 68.21875 
Q 22.171875 69.828125 27.59375 69.828125 
Q 39.0625 69.828125 44.96875 61.328125 
Q 50.875 52.828125 50.875 35.796875 
M 41.3125 44.28125 
Q 41.3125 48.09375 40.40625 51.453125 
Q 39.5 54.828125 37.71875 57.3125 
Q 35.9375 59.8125 33.328125 61.25 
Q 30.71875 62.703125 27.296875 62.703125 
Q 24.125 62.703125 21.578125 61.578125 
Q 19.046875 60.453125 17.28125 58.375 
Q 15.53125 56.296875 14.578125 53.3125 
Q 13.625 50.34375 13.625 46.6875 
Q 13.625 43.21875 14.46875 40.234375 
Q 15.328125 37.25 17.03125 35.078125 
Q 18.75 32.90625 21.28125 31.65625 
Q 23.828125 30.421875 27.203125 30.421875 
Q 29.640625 30.421875 32.15625 31.25 
Q 34.671875 32.078125 36.6875 33.78125 
Q 38.71875 35.5 40.015625 38.109375 
Q 41.3125 40.71875 41.3125 44.28125 
" id="LiberationSans-39"/>
      </defs>
      <g style="fill:#262626;" transform="translate(137.232390414 370.646875)scale(0.1 -0.1)">
       <use xlink:href="#LiberationSans-32"/>
       <use x="55.615234375" xlink:href="#LiberationSans-30"/>
       <use x="111.23046875" xlink:href="#LiberationSans-31"/>
       <use x="166.845703125" xlink:href="#LiberationSans-35"/>
       <use x="222.4609375" xlink:href="#LiberationSans-2d"/>
       <use x="255.76171875" xlink:href="#LiberationSans-31"/>
       <use x="311.376953125" xlink:href="#LiberationSans-31"/>
       <use x="366.9921875" xlink:href="#LiberationSans-2d"/>
       <use x="400.29296875" xlink:href="#LiberationSans-31"/>
       <use x="455.908203125" xlink:href="#LiberationSans-32"/>
       <use x="511.5234375" xlink:href="#LiberationSans-20"/>
       <use x="539.306640625" xlink:href="#LiberationSans-30"/>
       <use x="594.921875" xlink:href="#LiberationSans-39"/>
       <use x="650.537109375" xlink:href="#LiberationSans-3a"/>
       <use x="678.3203125" xlink:href="#LiberationSans-32"/>
       <use x="733.935546875" xlink:href="#LiberationSans-35"/>
       <use x="789.55078125" xlink:href="#LiberationSans-3a"/>
       <use x="817.333984375" xlink:href="#LiberationSans-30"/>
       <use x="872.94921875" xlink:href="#LiberationSans-30"/>
      </g>
     </g>
    </g>
    <g id="xtick_3">
     <g id="line2d_7">
      <path clip-path="url(#p1641283be6)" d="M 295.311656 356.4 
L 295.311656 39.6 
" style="fill:none;stroke:#ffffff;stroke-linecap:round;"/>
     </g>
     <g id="line2d_8"/>
     <g id="line2d_9"/>
     <g id="text_3">
      <!-- 2015-11-17 00:54:00 -->
      <defs>
       <path d="M 50.59375 61.671875 
Q 45.40625 53.765625 41.0625 46.453125 
Q 36.71875 39.15625 33.59375 31.75 
Q 30.46875 24.359375 28.734375 16.578125 
Q 27 8.796875 27 0 
L 17.828125 0 
Q 17.828125 8.25 19.78125 16.1875 
Q 21.734375 24.125 25.046875 31.765625 
Q 28.375 39.40625 32.765625 46.78125 
Q 37.15625 54.15625 42.09375 61.328125 
L 5.125 61.328125 
L 5.125 68.796875 
L 50.59375 68.796875 
z
" id="LiberationSans-37"/>
       <path d="M 43.015625 15.578125 
L 43.015625 0 
L 34.71875 0 
L 34.71875 15.578125 
L 2.296875 15.578125 
L 2.296875 22.40625 
L 33.796875 68.796875 
L 43.015625 68.796875 
L 43.015625 22.515625 
L 52.6875 22.515625 
L 52.6875 15.578125 
z
M 34.71875 58.890625 
Q 34.625 58.640625 34.234375 57.9375 
Q 33.84375 57.234375 33.34375 56.34375 
Q 32.859375 55.46875 32.34375 54.5625 
Q 31.84375 53.65625 31.453125 53.078125 
L 13.8125 27.09375 
Q 13.578125 26.703125 13.109375 26.0625 
Q 12.640625 25.4375 12.15625 24.78125 
Q 11.671875 24.125 11.171875 23.484375 
Q 10.6875 22.859375 10.40625 22.515625 
L 34.71875 22.515625 
z
" id="LiberationSans-34"/>
      </defs>
      <g style="fill:#262626;" transform="translate(248.888218328 370.646875)scale(0.1 -0.1)">
       <use xlink:href="#LiberationSans-32"/>
       <use x="55.615234375" xlink:href="#LiberationSans-30"/>
       <use x="111.23046875" xlink:href="#LiberationSans-31"/>
       <use x="166.845703125" xlink:href="#LiberationSans-35"/>
       <use x="222.4609375" xlink:href="#LiberationSans-2d"/>
       <use x="255.76171875" xlink:href="#LiberationSans-31"/>
       <use x="311.376953125" xlink:href="#LiberationSans-31"/>
       <use x="366.9921875" xlink:href="#LiberationSans-2d"/>
       <use x="400.29296875" xlink:href="#LiberationSans-31"/>
       <use x="455.908203125" xlink:href="#LiberationSans-37"/>
       <use x="511.5234375" xlink:href="#LiberationSans-20"/>
       <use x="539.306640625" xlink:href="#LiberationSans-30"/>
       <use x="594.921875" xlink:href="#LiberationSans-30"/>
       <use x="650.537109375" xlink:href="#LiberationSans-3a"/>
       <use x="678.3203125" xlink:href="#LiberationSans-35"/>
       <use x="733.935546875" xlink:href="#LiberationSans-34"/>
       <use x="789.55078125" xlink:href="#LiberationSans-3a"/>
       <use x="817.333984375" xlink:href="#LiberationSans-30"/>
       <use x="872.94921875" xlink:href="#LiberationSans-30"/>
      </g>
     </g>
    </g>
    <g id="xtick_4">
     <g id="line2d_10">
      <path clip-path="url(#p1641283be6)" d="M 406.967484 356.4 
L 406.967484 39.6 
" style="fill:none;stroke:#ffffff;stroke-linecap:round;"/>
     </g>
     <g id="line2d_11"/>
     <g id="line2d_12"/>
     <g id="text_4">
      <!-- 2015-11-20 23:57:00 -->
      <g style="fill:#262626;" transform="translate(360.544046242 370.646875)scale(0.1 -0.1)">
       <use xlink:href="#LiberationSans-32"/>
       <use x="55.615234375" xlink:href="#LiberationSans-30"/>
       <use x="111.23046875" xlink:href="#LiberationSans-31"/>
       <use x="166.845703125" xlink:href="#LiberationSans-35"/>
       <use x="222.4609375" xlink:href="#LiberationSans-2d"/>
       <use x="255.76171875" xlink:href="#LiberationSans-31"/>
       <use x="311.376953125" xlink:href="#LiberationSans-31"/>
       <use x="366.9921875" xlink:href="#LiberationSans-2d"/>
       <use x="400.29296875" xlink:href="#LiberationSans-32"/>
       <use x="455.908203125" xlink:href="#LiberationSans-30"/>
       <use x="511.5234375" xlink:href="#LiberationSans-20"/>
       <use x="539.306640625" xlink:href="#LiberationSans-32"/>
       <use x="594.921875" xlink:href="#LiberationSans-33"/>
       <use x="650.537109375" xlink:href="#LiberationSans-3a"/>
       <use x="678.3203125" xlink:href="#LiberationSans-35"/>
       <use x="733.935546875" xlink:href="#LiberationSans-37"/>
       <use x="789.55078125" xlink:href="#LiberationSans-3a"/>
       <use x="817.333984375" xlink:href="#LiberationSans-30"/>
       <use x="872.94921875" xlink:href="#LiberationSans-30"/>
      </g>
     </g>
    </g>
    <g id="text_5">
     <!-- time -->
     <defs>
      <path d="M 13.484375 24.5625 
Q 13.484375 20.40625 14.328125 16.90625 
Q 15.1875 13.421875 16.96875 10.90625 
Q 18.75 8.40625 21.53125 7 
Q 24.3125 5.609375 28.21875 5.609375 
Q 33.9375 5.609375 37.375 7.90625 
Q 40.828125 10.203125 42.046875 13.71875 
L 49.75 11.53125 
Q 48.921875 9.328125 47.4375 7.109375 
Q 45.953125 4.890625 43.453125 3.09375 
Q 40.96875 1.3125 37.234375 0.15625 
Q 33.5 -0.984375 28.21875 -0.984375 
Q 16.5 -0.984375 10.375 6 
Q 4.25 12.984375 4.25 26.765625 
Q 4.25 34.1875 6.09375 39.328125 
Q 7.953125 44.484375 11.171875 47.703125 
Q 14.40625 50.921875 18.703125 52.359375 
Q 23 53.8125 27.875 53.8125 
Q 34.515625 53.8125 38.984375 51.65625 
Q 43.453125 49.515625 46.15625 45.71875 
Q 48.875 41.9375 50.015625 36.8125 
Q 51.171875 31.6875 51.171875 25.734375 
L 51.171875 24.5625 
z
M 42.09375 31.296875 
Q 41.359375 39.65625 37.84375 43.484375 
Q 34.328125 47.3125 27.734375 47.3125 
Q 25.53125 47.3125 23.109375 46.609375 
Q 20.703125 45.90625 18.65625 44.09375 
Q 16.609375 42.28125 15.1875 39.171875 
Q 13.765625 36.078125 13.578125 31.296875 
z
" id="LiberationSans-65"/>
      <path d="M 6.6875 64.0625 
L 6.6875 72.46875 
L 15.484375 72.46875 
L 15.484375 64.0625 
z
M 6.6875 0 
L 6.6875 52.828125 
L 15.484375 52.828125 
L 15.484375 0 
z
" id="LiberationSans-69"/>
      <path d="M 27.046875 0.390625 
Q 25.046875 -0.140625 22.96875 -0.453125 
Q 20.90625 -0.78125 18.171875 -0.78125 
Q 7.625 -0.78125 7.625 11.1875 
L 7.625 46.4375 
L 1.515625 46.4375 
L 1.515625 52.828125 
L 7.953125 52.828125 
L 10.546875 64.65625 
L 16.40625 64.65625 
L 16.40625 52.828125 
L 26.171875 52.828125 
L 26.171875 46.4375 
L 16.40625 46.4375 
L 16.40625 13.09375 
Q 16.40625 9.28125 17.640625 7.734375 
Q 18.890625 6.203125 21.96875 6.203125 
Q 23.25 6.203125 24.4375 6.390625 
Q 25.640625 6.59375 27.046875 6.890625 
z
" id="LiberationSans-74"/>
      <path d="M 37.5 0 
L 37.5 33.5 
Q 37.5 37.359375 37.015625 39.9375 
Q 36.53125 42.53125 35.375 44.109375 
Q 34.234375 45.703125 32.375 46.359375 
Q 30.515625 47.015625 27.828125 47.015625 
Q 25.046875 47.015625 22.796875 45.921875 
Q 20.5625 44.828125 18.96875 42.75 
Q 17.390625 40.671875 16.53125 37.625 
Q 15.671875 34.578125 15.671875 30.609375 
L 15.671875 0 
L 6.9375 0 
L 6.9375 41.546875 
Q 6.9375 43.21875 6.90625 45.046875 
Q 6.890625 46.875 6.828125 48.5 
Q 6.78125 50.140625 6.734375 51.3125 
Q 6.6875 52.484375 6.640625 52.828125 
L 14.9375 52.828125 
Q 14.984375 52.59375 15.03125 51.515625 
Q 15.09375 50.4375 15.15625 49.046875 
Q 15.234375 47.65625 15.28125 46.21875 
Q 15.328125 44.78125 15.328125 43.796875 
L 15.484375 43.796875 
Q 16.65625 46.09375 18.015625 47.953125 
Q 19.390625 49.8125 21.21875 51.09375 
Q 23.046875 52.390625 25.40625 53.09375 
Q 27.78125 53.8125 30.90625 53.8125 
Q 36.921875 53.8125 40.40625 51.421875 
Q 43.890625 49.03125 45.265625 43.796875 
L 45.40625 43.796875 
Q 46.578125 46.09375 48.046875 47.953125 
Q 49.515625 49.8125 51.46875 51.09375 
Q 53.421875 52.390625 55.859375 53.09375 
Q 58.296875 53.8125 61.421875 53.8125 
Q 65.4375 53.8125 68.328125 52.734375 
Q 71.234375 51.65625 73.09375 49.40625 
Q 74.953125 47.171875 75.828125 43.625 
Q 76.703125 40.09375 76.703125 35.203125 
L 76.703125 0 
L 68.015625 0 
L 68.015625 33.5 
Q 68.015625 37.359375 67.53125 39.9375 
Q 67.046875 42.53125 65.890625 44.109375 
Q 64.75 45.703125 62.890625 46.359375 
Q 61.03125 47.015625 58.34375 47.015625 
Q 55.5625 47.015625 53.3125 45.96875 
Q 51.078125 44.921875 49.484375 42.875 
Q 47.90625 40.828125 47.046875 37.75 
Q 46.1875 34.671875 46.1875 30.609375 
L 46.1875 0 
z
" id="LiberationSans-6d"/>
     </defs>
     <g style="fill:#262626;" transform="translate(284.81015625 385.6934375)scale(0.11 -0.11)">
      <use xlink:href="#LiberationSans-74"/>
      <use x="27.783203125" xlink:href="#LiberationSans-69"/>
      <use x="50.0" xlink:href="#LiberationSans-6d"/>
      <use x="133.30078125" xlink:href="#LiberationSans-65"/>
     </g>
    </g>
   </g>
   <g id="matplotlib.axis_2">
    <g id="ytick_1">
     <g id="line2d_13">
      <path clip-path="url(#p1641283be6)" d="M 72 356.4 
L 518.4 356.4 
" style="fill:none;stroke:#ffffff;stroke-linecap:round;"/>
     </g>
     <g id="line2d_14"/>
     <g id="line2d_15"/>
     <g id="text_6">
      <!-- 1800 -->
      <defs>
       <path d="M 51.265625 19.1875 
Q 51.265625 14.796875 49.875 11.109375 
Q 48.484375 7.421875 45.625 4.734375 
Q 42.78125 2.046875 38.328125 0.53125 
Q 33.890625 -0.984375 27.828125 -0.984375 
Q 21.78125 -0.984375 17.359375 0.53125 
Q 12.9375 2.046875 10.03125 4.703125 
Q 7.125 7.375 5.734375 11.0625 
Q 4.34375 14.75 4.34375 19.09375 
Q 4.34375 22.859375 5.484375 25.78125 
Q 6.640625 28.71875 8.5625 30.828125 
Q 10.5 32.953125 12.96875 34.25 
Q 15.4375 35.546875 18.0625 35.984375 
L 18.0625 36.1875 
Q 15.1875 36.859375 12.90625 38.375 
Q 10.640625 39.890625 9.09375 42.015625 
Q 7.5625 44.140625 6.75 46.71875 
Q 5.953125 49.3125 5.953125 52.203125 
Q 5.953125 55.8125 7.34375 59 
Q 8.734375 62.203125 11.46875 64.625 
Q 14.203125 67.046875 18.25 68.4375 
Q 22.3125 69.828125 27.640625 69.828125 
Q 33.25 69.828125 37.375 68.40625 
Q 41.5 67 44.203125 64.578125 
Q 46.921875 62.15625 48.234375 58.9375 
Q 49.5625 55.71875 49.5625 52.09375 
Q 49.5625 49.265625 48.75 46.671875 
Q 47.953125 44.09375 46.40625 41.96875 
Q 44.875 39.84375 42.59375 38.34375 
Q 40.328125 36.859375 37.359375 36.28125 
L 37.359375 36.078125 
Q 40.328125 35.59375 42.859375 34.296875 
Q 45.40625 33.015625 47.265625 30.890625 
Q 49.125 28.765625 50.1875 25.828125 
Q 51.265625 22.90625 51.265625 19.1875 
M 40.4375 51.609375 
Q 40.4375 54.203125 39.765625 56.34375 
Q 39.109375 58.5 37.59375 60.03125 
Q 36.078125 61.578125 33.640625 62.421875 
Q 31.203125 63.28125 27.640625 63.28125 
Q 24.171875 63.28125 21.78125 62.421875 
Q 19.390625 61.578125 17.84375 60.03125 
Q 16.3125 58.5 15.625 56.34375 
Q 14.9375 54.203125 14.9375 51.609375 
Q 14.9375 49.5625 15.46875 47.40625 
Q 16.015625 45.265625 17.421875 43.5 
Q 18.84375 41.75 21.328125 40.625 
Q 23.828125 39.5 27.734375 39.5 
Q 31.890625 39.5 34.40625 40.625 
Q 36.921875 41.75 38.25 43.5 
Q 39.59375 45.265625 40.015625 47.40625 
Q 40.4375 49.5625 40.4375 51.609375 
M 42.140625 20.015625 
Q 42.140625 22.515625 41.453125 24.828125 
Q 40.765625 27.15625 39.109375 28.9375 
Q 37.453125 30.71875 34.640625 31.8125 
Q 31.84375 32.90625 27.640625 32.90625 
Q 23.78125 32.90625 21.0625 31.8125 
Q 18.359375 30.71875 16.671875 28.90625 
Q 14.984375 27.09375 14.203125 24.71875 
Q 13.421875 22.359375 13.421875 19.828125 
Q 13.421875 16.65625 14.203125 14.03125 
Q 14.984375 11.421875 16.6875 9.546875 
Q 18.40625 7.671875 21.1875 6.640625 
Q 23.96875 5.609375 27.9375 5.609375 
Q 31.9375 5.609375 34.671875 6.640625 
Q 37.40625 7.671875 39.0625 9.546875 
Q 40.71875 11.421875 41.421875 14.078125 
Q 42.140625 16.75 42.140625 20.015625 
" id="LiberationSans-38"/>
      </defs>
      <g style="fill:#262626;" transform="translate(42.75625 358.9859375)scale(0.1 -0.1)">
       <use xlink:href="#LiberationSans-31"/>
       <use x="55.615234375" xlink:href="#LiberationSans-38"/>
       <use x="111.23046875" xlink:href="#LiberationSans-30"/>
       <use x="166.845703125" xlink:href="#LiberationSans-30"/>
      </g>
     </g>
    </g>
    <g id="ytick_2">
     <g id="line2d_16">
      <path clip-path="url(#p1641283be6)" d="M 72 311.142857 
L 518.4 311.142857 
" style="fill:none;stroke:#ffffff;stroke-linecap:round;"/>
     </g>
     <g id="line2d_17"/>
     <g id="line2d_18"/>
     <g id="text_7">
      <!-- 1900 -->
      <g style="fill:#262626;" transform="translate(42.75625 313.728794643)scale(0.1 -0.1)">
       <use xlink:href="#LiberationSans-31"/>
       <use x="55.615234375" xlink:href="#LiberationSans-39"/>
       <use x="111.23046875" xlink:href="#LiberationSans-30"/>
       <use x="166.845703125" xlink:href="#LiberationSans-30"/>
      </g>
     </g>
    </g>
    <g id="ytick_3">
     <g id="line2d_19">
      <path clip-path="url(#p1641283be6)" d="M 72 265.885714 
L 518.4 265.885714 
" style="fill:none;stroke:#ffffff;stroke-linecap:round;"/>
     </g>
     <g id="line2d_20"/>
     <g id="line2d_21"/>
     <g id="text_8">
      <!-- 2000 -->
      <g style="fill:#262626;" transform="translate(42.75625 268.471651786)scale(0.1 -0.1)">
       <use xlink:href="#LiberationSans-32"/>
       <use x="55.615234375" xlink:href="#LiberationSans-30"/>
       <use x="111.23046875" xlink:href="#LiberationSans-30"/>
       <use x="166.845703125" xlink:href="#LiberationSans-30"/>
      </g>
     </g>
    </g>
    <g id="ytick_4">
     <g id="line2d_22">
      <path clip-path="url(#p1641283be6)" d="M 72 220.628571 
L 518.4 220.628571 
" style="fill:none;stroke:#ffffff;stroke-linecap:round;"/>
     </g>
     <g id="line2d_23"/>
     <g id="line2d_24"/>
     <g id="text_9">
      <!-- 2100 -->
      <g style="fill:#262626;" transform="translate(42.75625 223.214508929)scale(0.1 -0.1)">
       <use xlink:href="#LiberationSans-32"/>
       <use x="55.615234375" xlink:href="#LiberationSans-31"/>
       <use x="111.23046875" xlink:href="#LiberationSans-30"/>
       <use x="166.845703125" xlink:href="#LiberationSans-30"/>
      </g>
     </g>
    </g>
    <g id="ytick_5">
     <g id="line2d_25">
      <path clip-path="url(#p1641283be6)" d="M 72 175.371429 
L 518.4 175.371429 
" style="fill:none;stroke:#ffffff;stroke-linecap:round;"/>
     </g>
     <g id="line2d_26"/>
     <g id="line2d_27"/>
     <g id="text_10">
      <!-- 2200 -->
      <g style="fill:#262626;" transform="translate(42.75625 177.957366071)scale(0.1 -0.1)">
       <use xlink:href="#LiberationSans-32"/>
       <use x="55.615234375" xlink:href="#LiberationSans-32"/>
       <use x="111.23046875" xlink:href="#LiberationSans-30"/>
       <use x="166.845703125" xlink:href="#LiberationSans-30"/>
      </g>
     </g>
    </g>
    <g id="ytick_6">
     <g id="line2d_28">
      <path clip-path="url(#p1641283be6)" d="M 72 130.114286 
L 518.4 130.114286 
" style="fill:none;stroke:#ffffff;stroke-linecap:round;"/>
     </g>
     <g id="line2d_29"/>
     <g id="line2d_30"/>
     <g id="text_11">
      <!-- 2300 -->
      <g style="fill:#262626;" transform="translate(42.75625 132.700223214)scale(0.1 -0.1)">
       <use xlink:href="#LiberationSans-32"/>
       <use x="55.615234375" xlink:href="#LiberationSans-33"/>
       <use x="111.23046875" xlink:href="#LiberationSans-30"/>
       <use x="166.845703125" xlink:href="#LiberationSans-30"/>
      </g>
     </g>
    </g>
    <g id="ytick_7">
     <g id="line2d_31">
      <path clip-path="url(#p1641283be6)" d="M 72 84.857143 
L 518.4 84.857143 
" style="fill:none;stroke:#ffffff;stroke-linecap:round;"/>
     </g>
     <g id="line2d_32"/>
     <g id="line2d_33"/>
     <g id="text_12">
      <!-- 2400 -->
      <g style="fill:#262626;" transform="translate(42.75625 87.4430803571)scale(0.1 -0.1)">
       <use xlink:href="#LiberationSans-32"/>
       <use x="55.615234375" xlink:href="#LiberationSans-34"/>
       <use x="111.23046875" xlink:href="#LiberationSans-30"/>
       <use x="166.845703125" xlink:href="#LiberationSans-30"/>
      </g>
     </g>
    </g>
    <g id="ytick_8">
     <g id="line2d_34">
      <path clip-path="url(#p1641283be6)" d="M 72 39.6 
L 518.4 39.6 
" style="fill:none;stroke:#ffffff;stroke-linecap:round;"/>
     </g>
     <g id="line2d_35"/>
     <g id="line2d_36"/>
     <g id="text_13">
      <!-- 2500 -->
      <g style="fill:#262626;" transform="translate(42.75625 42.1859375)scale(0.1 -0.1)">
       <use xlink:href="#LiberationSans-32"/>
       <use x="55.615234375" xlink:href="#LiberationSans-35"/>
       <use x="111.23046875" xlink:href="#LiberationSans-30"/>
       <use x="166.845703125" xlink:href="#LiberationSans-30"/>
      </g>
     </g>
    </g>
   </g>
   <g id="line2d_37">
    <path clip-path="url(#p1641283be6)" d="M 72 258.547827 
L 72.223312 262.118615 
L 72.669935 258.142237 
L 73.116558 258.142237 
L 73.33987 255.257956 
L 73.563182 254.571448 
L 73.786493 253.193907 
L 74.009805 256.078187 
L 74.233117 254.981564 
L 74.456428 256.764695 
L 74.67974 253.193907 
L 74.903052 256.764695 
L 75.126363 256.764695 
L 75.349675 258.957942 
L 75.572986 258.547827 
L 75.796298 259.23886 
L 76.01961 256.635498 
L 76.242921 250.184955 
L 76.466233 252.65912 
L 76.689545 247.991708 
L 76.912856 248.678216 
L 77.136168 248.678216 
L 77.35948 247.581592 
L 78.029415 242.918706 
L 78.252726 241.822082 
L 78.476038 243.605214 
L 78.69935 242.50859 
L 79.145973 237.025473 
L 79.369285 239.499638 
L 79.592596 233.606405 
L 79.815908 236.615357 
L 80.03922 231.13224 
L 80.262531 232.919897 
L 80.485843 230.445732 
L 80.709155 234.016521 
L 80.932466 223.585073 
L 81.155778 219.327776 
L 81.37909 222.898565 
L 81.602401 215.065954 
L 81.825713 217.950235 
L 82.049025 218.355825 
L 82.272336 221.645695 
L 82.495648 227.819846 
L 82.942271 221.364777 
L 83.165583 223.152434 
L 83.388894 226.032189 
L 83.612206 227.128812 
L 83.835518 228.91647 
L 84.058829 226.032189 
L 84.282141 228.91647 
L 84.728764 225.345681 
L 84.952076 221.088384 
L 85.175388 223.558024 
L 85.398699 218.204104 
L 85.622011 216.420972 
L 85.845323 218.204104 
L 86.068634 218.895138 
L 86.291946 217.798514 
L 86.515258 217.798514 
L 86.738569 219.581645 
L 87.185193 213.81761 
L 87.855128 219.862564 
L 88.078439 214.098528 
L 88.301751 222.4614 
L 88.748374 212.720986 
L 88.971686 214.785036 
L 89.194997 212.591789 
L 89.418309 212.591789 
L 89.864932 205.735656 
L 90.088244 209.025526 
L 90.534867 191.581699 
L 90.758179 191.581699 
L 90.981491 186.633369 
L 91.204802 177.70866 
L 91.428114 192.116486 
L 91.651426 190.609747 
L 91.874737 194.180536 
L 92.098049 192.397404 
L 92.321361 189.513124 
L 92.544672 193.494028 
L 92.767984 189.513124 
L 93.214607 171.10187 
L 93.437919 173.014199 
L 93.884542 185.919812 
L 94.107854 176.584988 
L 94.331166 173.295117 
L 94.554477 171.917576 
L 94.777789 166.282737 
L 95.001101 170.259116 
L 95.224412 169.853526 
L 95.447724 164.218688 
L 95.671036 170.388313 
L 96.117659 142.157021 
L 96.34097 155.316503 
L 96.564282 160.79962 
L 96.787594 150.368172 
L 97.010905 153.658043 
L 97.234217 153.938961 
L 97.68084 156.694044 
L 97.904152 160.264833 
L 98.127464 159.573799 
L 98.350775 161.361456 
L 98.574087 157.380552 
L 98.797399 157.380552 
L 99.02071 163.425506 
L 99.244022 161.918767 
L 99.467334 157.255881 
L 99.690645 156.159257 
L 99.913957 158.628896 
L 100.137269 158.352504 
L 100.36058 158.628896 
L 100.807204 152.459271 
L 101.030515 150.67614 
L 101.253827 156.435649 
L 101.477139 150.67614 
L 101.70045 155.062634 
L 101.923762 153.555895 
L 102.147074 153.555895 
L 102.370385 162.199685 
L 102.593697 156.845765 
L 102.817009 156.845765 
L 103.04032 160.416554 
L 103.263632 155.339026 
L 103.486943 155.339026 
L 103.710255 149.704188 
L 103.933567 149.985106 
L 104.156878 151.081729 
L 104.38019 143.815481 
L 104.603502 144.501989 
L 104.826813 146.289646 
L 105.050125 145.193022 
L 105.273437 145.598612 
L 105.496748 148.888483 
L 105.72006 145.317694 
L 106.166683 142.027824 
L 106.389995 137.360411 
L 106.836618 135.167165 
L 107.05993 138.737953 
L 107.283242 137.64133 
L 107.729865 127.4908 
L 107.953177 126.394177 
L 108.176488 122.952586 
L 108.623112 128.5649 
L 108.846423 127.468277 
L 109.069735 133.91882 
L 109.293047 129.942442 
L 109.516358 129.942442 
L 109.73967 130.62895 
L 109.962981 130.62895 
L 110.409605 126.652571 
L 110.632916 134.070541 
L 110.856228 134.070541 
L 111.07954 134.480657 
L 111.302851 135.57728 
L 111.749475 125.145832 
L 111.972786 111.682909 
L 112.196098 116.069403 
L 112.41941 100.154838 
L 112.642721 107.831203 
L 112.866033 110.024449 
L 113.089345 110.024449 
L 113.312656 119.894061 
L 113.535968 110.024449 
L 113.982591 117.700814 
L 114.429215 107.831203 
L 114.652526 106.734579 
L 114.875838 99.058215 
L 115.09915 102.348085 
L 115.322461 102.348085 
L 115.545773 104.541332 
L 115.769085 102.348085 
L 116.215708 102.348085 
L 116.43902 107.831203 
L 116.885643 101.251462 
L 117.108954 111.121073 
L 117.332266 103.444709 
L 117.555578 101.251462 
L 117.778889 115.507567 
L 118.002201 112.217696 
L 118.225513 134.150166 
L 118.448824 113.31432 
L 118.672136 128.667049 
L 118.895448 122.087308 
L 119.342071 119.894061 
L 119.565383 125.377178 
L 119.788694 119.894061 
L 120.012006 146.797384 
L 120.235318 143.917629 
L 120.458629 139.531135 
L 120.681941 143.101924 
L 120.905253 135.015444 
L 121.128564 136.392985 
L 121.575188 129.942442 
L 121.798499 130.62895 
L 122.021811 133.91882 
L 122.245123 134.328936 
L 122.468434 135.144641 
L 122.691746 132.670476 
L 122.915058 118.106404 
L 123.361681 132.10864 
L 123.584992 136.365936 
L 123.808304 129.099687 
L 124.031616 132.10864 
L 124.254927 131.292934 
L 124.478239 133.486181 
L 124.701551 134.172689 
L 124.924862 134.172689 
L 125.148174 129.505277 
L 125.371486 129.099687 
L 125.818109 134.863723 
L 126.041421 128.818769 
L 126.264732 128.818769 
L 126.488044 134.172689 
L 126.711356 125.247981 
L 126.934667 130.601901 
L 127.157979 129.786195 
L 127.381291 125.809817 
L 127.604602 127.592948 
L 127.827914 126.777243 
L 128.051226 127.468277 
L 128.274537 131.725573 
L 128.497849 138.586232 
L 128.721161 137.899724 
L 128.944472 139.682856 
L 129.167784 143.253644 
L 129.391096 140.369364 
L 129.837719 139.682856 
L 130.061031 140.369364 
L 130.284342 137.899724 
L 130.730965 148.607564 
L 130.954277 157.532273 
L 131.4009 155.468223 
L 131.624212 155.749142 
L 131.847524 157.255881 
L 132.070835 152.588468 
L 132.294147 151.897435 
L 132.517459 150.114303 
L 132.74077 152.588468 
L 132.964082 152.588468 
L 133.187394 159.168209 
L 133.410705 148.736762 
L 133.634017 150.930009 
L 133.857329 155.878339 
L 134.303952 150.238975 
L 134.527264 149.142352 
L 134.750575 159.702997 
L 134.973887 154.219879 
L 135.197199 155.316503 
L 135.42051 157.380552 
L 135.643822 157.790668 
L 135.867134 161.361456 
L 136.090445 160.670423 
L 136.313757 160.670423 
L 136.537069 159.292881 
L 136.76038 158.887291 
L 136.983692 159.983915 
L 137.207004 161.767046 
L 137.430315 162.45808 
L 137.653627 160.670423 
L 138.10025 154.219879 
L 138.323562 158.196258 
L 138.546873 159.983915 
L 138.770185 153.123256 
L 138.993497 160.670423 
L 139.216808 157.66147 
L 139.44012 162.328882 
L 139.663432 162.738998 
L 139.886743 160.822143 
L 140.110055 161.918767 
L 140.333367 162.199685 
L 140.77999 157.942388 
L 141.226613 162.199685 
L 141.449925 159.72552 
L 141.673237 152.459271 
L 141.896548 152.459271 
L 142.11986 151.772763 
L 142.343172 153.96601 
L 142.566483 150.67614 
L 143.013107 156.435649 
L 143.683042 158.223307 
L 143.906353 160.822143 
L 144.129665 160.135635 
L 144.352976 163.01539 
L 144.576288 163.706424 
L 145.022911 149.142352 
L 145.246223 148.174925 
L 145.469535 151.059206 
L 145.916158 143.788432 
L 146.13947 144.198547 
L 146.362781 147.769336 
L 146.586093 147.769336 
L 146.809405 147.35922 
L 147.032716 145.981679 
L 147.256028 142.129972 
L 147.47934 140.34684 
L 147.702651 139.936725 
L 147.925963 145.70076 
L 148.149275 143.101924 
L 148.372586 142.0053 
L 148.595898 144.885055 
L 148.81921 153.809764 
L 149.042521 154.781715 
L 149.265833 154.500797 
L 149.489145 158.071586 
L 149.712456 155.597421 
L 149.935768 160.951341 
L 150.15908 160.545751 
L 150.382391 158.477176 
L 150.605703 154.219879 
L 150.829015 156.003011 
L 151.275638 164.651327 
L 151.498949 163.144588 
L 151.722261 159.854717 
L 151.945573 160.951341 
L 152.168884 162.738998 
L 152.392196 156.283929 
L 152.615508 156.974962 
L 152.838819 159.168209 
L 153.062131 163.01539 
L 153.285443 156.845765 
L 153.508754 186.60632 
L 153.732066 165.083966 
L 153.955378 170.972673 
L 154.402001 155.062634 
L 154.625313 151.897435 
L 154.848624 146.133399 
L 155.071936 152.588468 
L 155.518559 146.414317 
L 155.741871 147.510941 
L 155.965183 144.912104 
L 156.188494 145.727809 
L 156.411806 149.01768 
L 156.635118 145.036776 
L 156.858429 147.105351 
L 157.081741 151.772763 
L 157.305053 148.482893 
L 157.528364 147.791859 
L 157.751676 148.072777 
L 157.974987 145.87953 
L 158.198299 145.87953 
L 158.421611 144.372791 
L 158.644922 144.372791 
L 158.868234 139.986297 
L 159.091546 138.484084 
L 159.314857 140.958249 
L 159.538169 145.215546 
L 159.761481 143.151496 
L 159.984792 142.741381 
L 160.431416 133.816672 
L 160.878039 140.267215 
L 161.101351 140.396413 
L 161.324662 137.387461 
L 161.547974 127.647047 
L 161.994597 126.423464 
L 162.217909 126.013348 
L 162.441221 121.345936 
L 162.887844 124.230217 
L 163.111156 134.378508 
L 163.334467 132.590851 
L 163.557779 133.687475 
L 163.781091 123.539183 
L 164.004402 130.116686 
L 164.227714 129.430178 
L 164.451026 133.406556 
L 164.674337 129.430178 
L 164.897649 133.406556 
L 165.12096 131.21331 
L 165.344272 133.816672 
L 165.567584 130.526802 
L 165.790895 131.904343 
L 166.014207 130.116686 
L 166.237519 129.711096 
L 166.46083 128.616711 
L 166.684142 126.829054 
L 167.130765 132.720049 
L 167.354077 132.720049 
L 167.577389 134.226788 
L 168.024012 127.771718 
L 168.247324 133.945869 
L 168.470635 136.825624 
L 168.693947 135.729001 
L 168.917259 137.516658 
L 169.363882 127.366129 
L 169.587194 129.14926 
L 169.810505 129.14926 
L 170.033817 134.913295 
L 170.257129 134.226788 
L 170.48044 140.267215 
L 170.703752 137.387461 
L 170.927064 141.363839 
L 171.150375 142.054873 
L 171.373687 139.861626 
L 171.596998 132.309933 
L 171.82031 138.889674 
L 172.043622 136.696427 
L 172.266933 139.986297 
L 172.490245 139.986297 
L 172.713557 141.082921 
L 172.936868 141.082921 
L 173.16018 142.179544 
L 173.383492 141.082921 
L 173.830115 141.082921 
L 174.053427 142.179544 
L 174.276738 142.179544 
L 174.50005 146.566038 
L 174.723362 144.372791 
L 174.946673 147.662662 
L 175.169985 145.469415 
L 175.393297 146.566038 
L 175.616608 146.566038 
L 175.83992 148.759285 
L 176.063232 147.662662 
L 176.286543 148.759285 
L 176.509855 148.759285 
L 176.733167 146.566038 
L 176.956478 150.952532 
L 177.17979 158.628896 
L 177.403102 153.145779 
L 177.626413 159.72552 
L 177.849725 159.72552 
L 178.073037 160.822143 
L 178.296348 168.498508 
L 178.51966 181.2524 
L 178.742971 173.424315 
L 178.966283 174.801856 
L 179.189595 170.134444 
L 179.412906 170.820952 
L 179.636218 163.398457 
L 179.85953 167.250163 
L 180.082841 166.434458 
L 180.529465 158.477176 
L 180.976088 150.238975 
L 181.1994 152.026632 
L 181.422711 148.865959 
L 181.646023 152.15583 
L 181.869335 152.15583 
L 182.092646 145.014252 
L 182.53927 153.377125 
L 182.762581 142.945677 
L 182.985893 148.709713 
L 183.209205 149.806336 
L 183.432516 149.400746 
L 183.655828 150.087254 
L 184.325763 142.821005 
L 184.549075 133.205263 
L 184.995698 148.428795 
L 185.21901 144.452416 
L 185.442321 151.313075 
L 185.665633 148.023205 
L 185.888944 141.162546 
L 186.112256 145.829958 
L 186.335568 142.129972 
L 186.782191 139.655807 
L 187.005503 145.419842 
L 187.452126 132.795148 
L 187.675438 131.698524 
L 187.898749 135.269313 
L 188.122061 135.269313 
L 188.345373 134.863723 
L 189.015308 127.441228 
L 189.238619 136.365936 
L 189.461931 132.795148 
L 189.685243 134.582805 
L 189.908554 126.344604 
L 190.355178 138.153593 
L 190.801801 133.076066 
L 191.025113 133.486181 
L 191.248424 136.646854 
L 191.471736 134.863723 
L 191.695048 134.453607 
L 191.918359 136.646854 
L 192.141671 133.7671 
L 192.364982 136.646854 
L 192.588294 135.550231 
L 192.811606 130.477229 
L 193.034917 137.899724 
L 193.258229 132.822197 
L 193.481541 135.015444 
L 193.704852 131.039065 
L 193.928164 132.135689 
L 194.374787 136.803101 
L 194.598099 133.232312 
L 194.821411 135.425559 
L 195.044722 135.831149 
L 195.268034 132.260361 
L 195.491346 132.951394 
L 195.714657 134.048018 
L 195.937969 135.831149 
L 196.161281 132.951394 
L 196.384592 132.951394 
L 196.607904 127.722146 
L 196.831216 136.241265 
L 197.054527 138.840101 
L 197.277839 144.479465 
L 197.501151 139.812053 
L 197.724462 139.812053 
L 197.947774 136.522183 
L 198.394397 140.498561 
L 198.617709 141.595185 
L 198.841021 137.618806 
L 199.064332 136.522183 
L 199.287644 129.380606 
L 199.734267 129.380606 
L 200.18089 119.359274 
L 200.404202 124.713194 
L 200.627514 120.732289 
L 200.850825 122.519947 
L 201.074137 126.496325 
L 201.297449 123.61657 
L 201.52076 123.61657 
L 201.967384 125.399702 
L 202.190695 126.090735 
L 202.414007 123.61657 
L 202.637319 122.519947 
L 202.86063 122.925536 
L 203.307254 124.02216 
L 203.530565 122.925536 
L 203.977189 118.26265 
L 204.2005 119.359274 
L 204.423812 127.187359 
L 204.647124 127.873867 
L 204.870435 124.303078 
L 205.317059 122.519947 
L 205.54037 115.378369 
L 205.986993 121.552521 
L 206.210305 121.552521 
L 206.433617 122.649144 
L 206.656928 122.649144 
L 206.88024 121.95811 
L 207.103552 122.649144 
L 207.326863 117.981732 
L 207.550175 127.592948 
L 207.773487 117.852535 
L 207.996798 117.852535 
L 208.22011 121.142405 
L 208.443422 117.571616 
L 208.666733 117.981732 
L 208.890045 125.528899 
L 209.113357 121.95811 
L 209.336668 122.649144 
L 209.55998 123.745767 
L 209.783292 129.228885 
L 210.006603 131.012016 
L 210.229915 128.818769 
L 210.453227 122.925536 
L 210.676538 122.519947 
L 210.89985 120.732289 
L 211.346473 124.432275 
L 211.793097 132.924345 
L 212.23972 130.325508 
L 212.463032 129.634475 
L 212.686343 129.634475 
L 212.909655 126.75472 
L 213.132966 127.16031 
L 213.57959 131.422132 
L 213.802901 135.679428 
L 214.026213 127.31203 
L 214.249525 128.003064 
L 214.472836 134.453607 
L 214.696148 123.385224 
L 214.91946 122.288601 
L 215.142771 119.408846 
L 215.366083 121.191977 
L 215.812706 120.095354 
L 216.036018 123.104306 
L 216.25933 117.340271 
L 216.482641 115.838057 
L 216.705953 116.524565 
L 216.929265 120.50547 
L 217.152576 116.524565 
L 217.375888 116.934681 
L 217.5992 118.436894 
L 217.822511 119.127928 
L 218.045823 120.911059 
L 218.269135 124.611045 
L 218.492446 130.780671 
L 218.715758 126.113259 
L 219.162381 122.823388 
L 219.385693 117.063878 
L 219.609005 121.040257 
L 219.832316 118.160502 
L 220.055628 122.546996 
L 220.278939 118.84701 
L 220.502251 120.630141 
L 220.725563 125.707669 
L 220.948874 125.297553 
L 221.172186 122.417798 
L 221.395498 123.920012 
L 221.618809 122.13688 
L 221.842121 129.813245 
L 222.065433 132.692999 
L 222.288744 132.692999 
L 222.512056 131.596376 
L 222.958679 137.770527 
L 223.405303 132.28741 
L 223.628614 132.692999 
L 223.851926 130.499752 
L 224.298549 134.070541 
L 224.521861 129.684047 
L 224.745173 135.167165 
L 224.968484 137.23574 
L 225.191796 137.23574 
L 225.638419 132.568328 
L 225.861731 135.167165 
L 226.308354 132.692999 
L 226.531666 79.777158 
L 226.754977 74.169369 
L 226.978289 82.661438 
L 227.201601 77.583911 
L 227.648224 81.970405 
L 227.871536 81.970405 
L 228.318159 66.617676 
L 228.541471 66.617676 
L 228.764782 65.521053 
L 228.988094 66.617676 
L 229.211406 64.424429 
L 229.434717 64.424429 
L 229.658029 108.619859 
L 229.881341 100.256986 
L 230.104652 105.610906 
L 230.327964 104.233365 
L 230.551276 108.900777 
L 230.774587 101.7592 
L 230.997899 103.265939 
L 231.444522 110.407516 
L 231.891146 100.386184 
L 232.114457 101.7592 
L 232.337769 103.952447 
L 232.561081 104.64348 
L 232.784392 103.952447 
L 233.007704 106.426612 
L 233.231016 107.117645 
L 233.677639 101.7592 
L 233.90095 101.7592 
L 234.124262 104.924399 
L 234.347574 103.827775 
L 234.570885 103.827775 
L 234.794197 103.41766 
L 235.017509 102.731152 
L 235.24082 103.827775 
L 235.464132 102.040118 
L 235.687444 104.233365 
L 235.910755 104.233365 
L 236.134067 101.7592 
L 236.357379 103.952447 
L 236.58069 103.952447 
L 236.804002 96.124362 
L 237.027314 96.815395 
L 237.250625 96.815395 
L 237.473937 103.265939 
L 237.697249 103.265939 
L 237.92056 99.69515 
L 238.143872 99.414232 
L 238.367184 97.220985 
L 238.590495 102.579431 
L 238.813807 101.888397 
L 239.037119 91.45695 
L 239.26043 92.834491 
L 239.483742 107.523235 
L 239.707054 105.740104 
L 239.930365 105.740104 
L 240.153677 103.546857 
L 240.376988 103.952447 
L 240.6003 105.04907 
L 240.823612 105.329988 
L 241.270235 95.460377 
L 241.493547 96.151411 
L 241.716858 83.526716 
L 241.94017 84.213224 
L 242.163482 81.333469 
L 242.386793 69.52448 
L 242.833417 80.366043 
L 243.056728 77.481763 
L 243.28004 69.243562 
L 243.503352 78.578386 
L 243.726663 80.366043 
L 243.949975 79.26942 
L 244.173287 77.481763 
L 244.396598 74.191892 
L 244.61991 73.505384 
L 244.843222 71.717727 
L 245.289845 75.288516 
L 245.513157 70.215514 
L 245.95978 74.191892 
L 246.183092 79.26942 
L 246.406403 79.26942 
L 246.629715 77.481763 
L 246.853027 77.076173 
L 247.29965 79.26942 
L 247.522961 96.303131 
L 247.746273 97.680673 
L 247.969585 97.680673 
L 248.416208 102.348085 
L 248.63952 103.034593 
L 248.862831 104.82225 
L 249.086143 102.348085 
L 249.309455 101.251462 
L 249.532766 104.82225 
L 249.756078 104.82225 
L 250.202701 100.154838 
L 250.426013 101.93797 
L 250.649325 107.296415 
L 250.872636 103.444709 
L 251.095948 101.657051 
L 251.542571 104.541332 
L 251.765883 104.541332 
L 251.989195 93.828966 
L 252.212506 88.475046 
L 252.65913 92.045835 
L 252.882441 90.949211 
L 253.105753 87.378423 
L 253.329065 96.989639 
L 253.552376 93.013261 
L 253.775688 92.326753 
L 253.998999 86.968307 
L 254.222311 88.755965 
L 254.668934 82.711011 
L 254.892246 82.581813 
L 255.115558 74.343613 
L 255.338869 81.204272 
L 255.562181 72.279563 
L 256.008804 83.936832 
L 256.232116 87.91321 
L 256.455428 71.717727 
L 256.678739 77.481763 
L 256.902051 77.076173 
L 257.125363 81.052551 
L 257.348674 79.550338 
L 257.571986 81.333469 
L 257.795298 81.333469 
L 258.018609 82.55929 
L 258.241921 88.323326 
L 258.465233 85.439045 
L 258.688544 89.97726 
L 258.911856 84.62334 
L 259.135168 86.406471 
L 259.358479 83.807634 
L 259.805103 92.580622 
L 260.028414 95.870493 
L 260.251726 96.276082 
L 260.475038 95.870493 
L 260.698349 94.082835 
L 260.921661 101.634528 
L 261.144972 105.205317 
L 261.368284 99.441281 
L 261.591596 113.438992 
L 261.814907 109.872729 
L 262.038219 112.065976 
L 262.261531 104.795201 
L 262.484842 106.30194 
L 262.708154 109.181695 
L 262.931466 108.085072 
L 263.154777 106.30194 
L 263.378089 106.70753 
L 263.601401 118.516519 
L 263.824712 119.613143 
L 264.048024 123.870439 
L 264.271336 124.967063 
L 264.494647 120.580569 
L 264.717959 123.870439 
L 265.164582 126.063686 
L 265.387894 122.773816 
L 265.611206 124.967063 
L 265.834517 124.967063 
L 266.057829 123.870439 
L 266.281141 121.677192 
L 266.504452 116.194075 
L 266.727764 116.194075 
L 266.951076 119.483945 
L 267.174387 130.196311 
L 267.397699 130.196311 
L 267.844322 143.636711 
L 268.067634 138.153593 
L 268.290945 136.085018 
L 268.514257 130.325508 
L 268.96088 132.795148 
L 269.184192 131.012016 
L 269.407504 132.795148 
L 269.630815 131.698524 
L 269.854127 132.795148 
L 270.077439 130.731098 
L 270.524062 136.365936 
L 270.747374 132.389558 
L 270.970685 133.486181 
L 271.417309 162.86367 
L 271.863932 176.736708 
L 272.087244 174.953577 
L 272.310555 174.953577 
L 272.533867 174.543461 
L 272.757179 184.159204 
L 272.98049 187.729992 
L 273.203802 184.845712 
L 273.427114 189.794042 
L 273.650425 188.01091 
L 273.873737 187.195205 
L 274.32036 189.388452 
L 274.543672 204.228917 
L 274.766983 199.561505 
L 274.990295 201.349162 
L 275.213607 202.03567 
L 275.436918 200.939046 
L 275.66023 200.939046 
L 275.883542 197.368258 
L 276.106853 200.939046 
L 276.330165 200.939046 
L 276.776788 197.368258 
L 277.0001 206.292966 
L 277.223412 199.155915 
L 277.446723 204.509835 
L 277.670035 201.219965 
L 277.893347 203.413211 
L 278.116658 206.984 
L 278.33997 208.361542 
L 278.563282 203.975048 
L 278.786593 203.159342 
L 279.009905 216.470545 
L 279.233217 215.373921 
L 279.456528 212.899756 
L 279.67984 212.899756 
L 279.903152 214.682888 
L 280.126463 210.706509 
L 280.349775 212.899756 
L 280.573087 209.328968 
L 280.796398 207.545836 
L 281.01971 213.309872 
L 281.243022 222.921088 
L 281.466333 206.854803 
L 281.689645 209.328968 
L 281.912956 206.449213 
L 282.136268 195.60765 
L 282.35958 200.966095 
L 282.582891 199.869472 
L 282.806203 204.536884 
L 283.029515 201.652603 
L 283.252826 191.221156 
L 283.476138 191.91219 
L 283.922761 189.027909 
L 284.146073 185.45712 
L 284.592696 182.044816 
L 284.816008 176.686371 
L 285.03932 158.172969 
L 285.262631 177.502076 
L 285.932566 196.452642 
L 286.155878 190.283017 
L 286.37919 174.239255 
L 286.602501 175.465075 
L 286.825813 179.722372 
L 287.049125 179.722372 
L 287.272436 176.151583 
L 287.495748 184.799899 
L 287.71906 185.076292 
L 288.165683 176.151583 
L 288.388994 192.066148 
L 288.835618 193.162772 
L 289.058929 199.894233 
L 289.282241 194.821232 
L 289.505553 196.323445 
L 289.728864 207.035811 
L 289.952176 207.035811 
L 290.175488 189.057196 
L 290.398799 188.366162 
L 290.622111 192.752656 
L 290.845423 191.250443 
L 291.068734 194.005526 
L 291.292046 185.232538 
L 291.515358 186.329162 
L 291.738669 186.734752 
L 292.185293 188.927999 
L 292.408604 185.638128 
L 292.631916 188.927999 
L 292.855228 186.734752 
L 293.301851 188.927999 
L 293.525163 188.927999 
L 293.748474 191.121246 
L 293.971786 191.121246 
L 294.195098 186.734752 
L 294.418409 184.541505 
L 294.641721 186.734752 
L 294.865033 185.638128 
L 295.088344 185.638128 
L 295.311656 184.541505 
L 295.534967 172.456123 
L 295.981591 181.786422 
L 296.204902 181.380832 
L 296.428214 182.883045 
L 296.651526 179.187585 
L 296.874837 177.680846 
L 297.544772 161.895478 
L 297.768084 166.56289 
L 298.214707 156.287689 
L 298.438019 157.660705 
L 298.661331 155.191066 
L 298.884642 157.660705 
L 299.107954 147.514701 
L 299.331266 145.321454 
L 299.777889 148.611325 
L 300.001201 145.727044 
L 300.224512 145.727044 
L 300.447824 139.838337 
L 300.671136 140.524845 
L 300.894447 134.35522 
L 301.117759 136.138351 
L 301.564382 136.138351 
L 301.787694 138.331598 
L 302.011006 138.331598 
L 302.234317 139.70914 
L 302.457629 138.331598 
L 302.904252 141.492271 
L 303.127564 133.815907 
L 303.350875 136.700187 
L 303.574187 133.815907 
L 304.02081 143.431649 
L 304.244122 147.688945 
L 304.467434 158.401311 
L 304.914057 152.356358 
L 305.137369 125.987822 
L 305.36068 139.70914 
L 305.583992 134.479891 
L 306.030615 117.446179 
L 306.253927 124.587757 
L 306.477239 123.210215 
L 306.70055 112.930488 
L 306.923862 123.081018 
L 307.147174 125.425985 
L 307.593797 117.063113 
L 308.263732 123.108067 
L 308.487044 119.537278 
L 308.933667 115.556374 
L 309.156978 119.127163 
L 309.38029 115.556374 
L 309.826913 122.827149 
L 310.273537 123.665377 
L 310.496848 121.47213 
L 310.72016 128.742905 
L 310.943472 120.223786 
L 311.166783 120.223786 
L 311.390095 120.352983 
L 311.613407 124.329362 
L 311.836718 131.600136 
L 312.06003 131.600136 
L 312.283342 129.687808 
L 312.506653 123.642854 
L 312.729965 126.241691 
L 312.953277 125.425985 
L 313.176588 127.619232 
L 313.3999 126.522609 
L 313.623212 131.600136 
L 313.846523 131.600136 
L 314.069835 132.977678 
L 314.516458 128.996774 
L 314.73977 130.374316 
L 314.963082 137.921482 
L 315.186393 132.977678 
L 315.409705 133.383268 
L 315.633017 132.134924 
L 315.856328 134.328171 
L 316.07964 130.757382 
L 316.302951 132.134924 
L 316.526263 131.0383 
L 316.749575 133.512465 
L 316.972886 138.585467 
L 317.196198 141.059632 
L 317.41951 139.276501 
L 317.642821 140.373124 
L 317.866133 138.995583 
L 318.089445 139.276501 
L 318.536068 142.971961 
L 318.75938 142.285453 
L 318.982691 142.285453 
L 319.206003 142.971961 
L 319.429315 138.304549 
L 320.09925 147.76857 
L 320.545873 147.76857 
L 320.769185 144.88429 
L 320.992496 148.455078 
L 321.215808 139.682091 
L 321.43912 141.875337 
L 321.662431 139.401172 
L 321.885743 142.566371 
L 322.109055 141.875337 
L 322.332366 142.566371 
L 322.555678 141.469748 
L 322.778989 145.446126 
L 323.225613 135.143876 
L 323.448924 140.216878 
L 323.672236 149.146112 
L 323.895548 147.358455 
L 324.118859 147.358455 
L 324.342171 160.112347 
L 324.565483 151.620277 
L 324.788794 161.895478 
L 325.012106 159.167444 
L 325.235418 162.457314 
L 325.458729 163.553938 
L 325.682041 179.593175 
L 325.905353 164.088725 
L 326.128664 168.885335 
L 326.351976 163.402217 
L 326.575288 168.475219 
L 326.798599 170.668466 
L 327.021911 161.895478 
L 327.245223 160.674183 
L 327.468534 165.747185 
L 327.915158 160.798855 
L 328.138469 164.369643 
L 328.361781 145.856242 
L 328.585093 149.146112 
L 328.808404 149.146112 
L 329.031716 148.049489 
L 329.255028 145.727044 
L 329.478339 142.031584 
L 329.701651 144.911339 
L 329.924962 142.99901 
L 330.148274 125.301314 
L 330.371586 124.329362 
L 330.594897 120.633902 
L 330.818209 122.417033 
L 331.264832 120.633902 
L 331.488144 123.388985 
L 331.711456 122.978869 
L 332.158079 119.408081 
L 332.381391 118.030539 
L 332.604702 110.635093 
L 332.828014 117.905867 
L 333.051326 135.626087 
L 333.274637 116.809244 
L 333.497949 140.551894 
L 333.721261 144.118157 
L 333.944572 134.787859 
L 334.391196 134.787859 
L 334.614507 131.497988 
L 334.837819 132.594612 
L 335.061131 132.465414 
L 335.284442 128.489036 
L 335.507754 120.121638 
L 335.731066 123.692426 
L 335.954377 122.595803 
L 336.177689 122.595803 
L 336.401001 115.735144 
L 336.847624 122.185687 
L 337.070935 119.305932 
L 337.294247 113.952012 
L 337.517559 117.522801 
L 337.964182 112.447512 
L 338.187494 109.567757 
L 338.410805 102.016064 
L 339.08074 109.003682 
L 339.304052 104.619426 
L 339.527364 102.426179 
L 339.750675 105.71605 
L 339.973987 112.574471 
L 340.197299 112.164355 
L 340.42061 110.786814 
L 340.643922 110.381224 
L 340.867234 117.366555 
L 341.090545 116.550849 
L 341.313857 117.647473 
L 341.537169 116.428416 
L 341.76048 111.350888 
L 341.983792 111.350888 
L 342.653727 105.867771 
L 342.877039 104.084639 
L 343.323662 109.973346 
L 343.546973 108.190215 
L 343.770285 110.66438 
L 343.993597 109.567757 
L 344.216908 107.780099 
L 344.44022 110.381224 
L 344.663532 117.77667 
L 344.886843 107.345223 
L 345.110155 118.18226 
L 345.333467 118.463178 
L 345.556778 111.602519 
L 345.78009 115.173308 
L 346.003402 114.4868 
L 346.450025 106.529517 
L 346.673337 115.431702 
L 346.896648 110.354175 
L 347.11996 109.13288 
L 347.343272 104.33627 
L 347.566583 109.003682 
L 347.789895 106.810435 
L 348.013207 112.574471 
L 348.236518 113.138545 
L 348.45983 106.810435 
L 348.683142 114.767718 
L 348.906453 117.241883 
L 349.129765 117.647473 
L 349.353077 114.076684 
L 349.576388 119.84072 
L 349.7997 118.057588 
L 350.246323 123.946295 
L 350.469635 117.495752 
L 350.692946 115.989013 
L 350.916258 97.348652 
L 351.13957 105.586853 
L 351.362881 97.072259 
L 351.586193 101.048638 
L 352.032816 102.831769 
L 352.256128 98.445275 
L 352.47944 97.758767 
L 352.702751 97.758767 
L 352.926063 97.348652 
L 353.149375 90.768911 
L 353.372686 88.98578 
L 353.595998 99.541899 
L 353.81931 97.758767 
L 354.489245 110.100306 
L 354.712556 105.022778 
L 354.935868 111.196929 
L 355.15918 102.831769 
L 355.382491 108.036256 
L 355.605803 109.003682 
L 356.052426 117.522801 
L 356.275738 113.952012 
L 356.49905 118.211547 
L 356.722361 116.0183 
L 356.945673 133.867717 
L 357.392296 133.867717 
L 358.062231 130.577847 
L 358.285543 125.094729 
L 358.508854 132.084586 
L 358.732166 128.513797 
L 358.955478 113.441987 
L 359.178789 117.012775 
L 359.625413 138.129539 
L 360.072036 136.187924 
L 360.295348 136.187924 
L 360.518659 140.726138 
L 360.741971 140.322786 
L 360.965283 135.372218 
L 361.411906 144.016009 
L 361.635218 174.08453 
L 361.858529 173.268825 
L 362.081841 173.141866 
L 362.305153 171.358734 
L 362.528464 161.337402 
L 362.975088 170.262111 
L 363.198399 164.908191 
L 363.421711 171.764324 
L 363.645023 171.485694 
L 363.868334 187.551979 
L 364.091646 183.981191 
L 364.314957 183.167724 
L 364.538269 187.957569 
L 364.761581 185.077814 
L 364.984892 185.077814 
L 365.208204 170.132914 
L 365.431516 170.823947 
L 365.654827 172.607079 
L 365.878139 172.201489 
L 366.101451 165.465501 
L 366.324762 170.823947 
L 366.548074 169.03629 
L 366.771386 170.413832 
L 366.994697 165.34083 
L 367.218009 165.211632 
L 367.441321 162.331878 
L 367.887944 152.586938 
L 368.111256 151.084725 
L 368.557879 170.284634 
L 368.781191 168.501503 
L 369.004502 170.284634 
L 369.227814 169.468929 
L 369.674437 161.511646 
L 369.897749 162.737467 
L 370.121061 161.235254 
L 370.344372 162.20268 
L 370.567684 162.20268 
L 370.790995 171.791373 
L 371.014307 164.395927 
L 371.237619 165.644271 
L 371.46093 165.5196 
L 371.684242 164.547648 
L 371.907554 174.136341 
L 372.130865 171.662176 
L 372.354177 170.69475 
L 372.577489 159.701466 
L 372.8008 166.843043 
L 373.024112 165.34083 
L 373.247424 169.727324 
L 373.470735 163.272255 
L 373.917359 170.132914 
L 374.14067 171.920571 
L 374.363982 167.939667 
L 375.033917 173.422784 
L 375.257229 173.017194 
L 375.703852 175.896949 
L 376.150475 169.03629 
L 376.373787 173.832899 
L 376.597099 172.045242 
L 376.82041 172.045242 
L 377.267034 152.970004 
L 377.490345 156.540793 
L 377.713657 152.154299 
L 377.936968 159.295876 
L 378.16028 157.508219 
L 378.383592 153.941956 
L 378.606903 148.458839 
L 378.830215 139.124015 
L 379.053527 145.984674 
L 379.276838 143.510509 
L 379.50015 144.197017 
L 379.723462 138.027391 
L 379.946773 144.758853 
L 380.170085 144.758853 
L 380.393397 152.30602 
L 380.616708 143.943147 
L 380.84002 155.03858 
L 381.063332 152.181348 
L 381.286643 152.462266 
L 381.509955 149.172396 
L 381.733267 151.365643 
L 381.956578 151.922953 
L 382.17989 155.77466 
L 382.403202 151.517364 
L 382.626513 153.300495 
L 383.073137 152.867856 
L 383.296448 149.172396 
L 383.51976 147.794854 
L 383.743072 153.148774 
L 383.966383 145.191492 
L 384.189695 143.689278 
L 384.413007 143.689278 
L 384.636318 142.998245 
L 385.306253 165.34083 
L 385.529565 149.577986 
L 385.752876 142.717327 
L 385.976188 145.601607 
L 386.422811 143.533032 
L 386.869435 127.725141 
L 387.092746 116.831767 
L 387.316058 132.617135 
L 387.53937 125.094729 
L 387.762681 124.970058 
L 387.985993 128.259928 
L 388.209305 127.163305 
L 388.655928 142.513795 
L 388.87924 150.19016 
L 389.102551 165.542888 
L 389.325863 149.093536 
L 389.549175 157.17549 
L 389.772486 147.715995 
L 389.995798 174.748515 
L 390.21911 166.385643 
L 390.442421 168.168774 
L 390.889045 162.434026 
L 391.112356 163.530649 
L 391.558979 181.631697 
L 391.782291 179.848566 
L 392.005603 187.805848 
L 392.228914 191.782227 
L 392.675538 206.31925 
L 392.898849 197.140673 
L 393.122161 194.53731 
L 393.345473 176.839614 
L 393.568784 181.631697 
L 393.792096 175.872188 
L 394.015408 177.655319 
L 394.238719 177.655319 
L 394.462031 173.268825 
L 394.685343 176.558696 
L 394.908654 182.295682 
L 395.131966 178.724893 
L 395.801901 212.314631 
L 396.025213 210.402303 
L 396.471836 201.883184 
L 396.695148 203.670841 
L 396.918459 202.698889 
L 397.141771 208.311204 
L 397.365083 195.557312 
L 397.588394 198.722511 
L 398.035018 188.161866 
L 398.258329 178.269731 
L 398.481641 190.613508 
L 398.704952 190.074195 
L 398.928264 191.170818 
L 399.151576 188.571981 
L 399.374887 190.355113 
L 399.598199 203.947233 
L 399.821511 206.960711 
L 400.044822 211.623598 
L 400.268134 209.840466 
L 400.491446 214.22696 
L 400.714757 215.042666 
L 400.938069 194.616935 
L 401.161381 205.98876 
L 401.384692 211.066287 
L 401.608004 200.505642 
L 401.831316 210.807892 
L 402.054627 203.260725 
L 402.277939 216.701125 
L 402.501251 204.767464 
L 402.724562 209.688746 
L 402.947874 202.547168 
L 403.171186 199.386495 
L 403.394497 204.3303 
L 403.617809 214.480829 
L 403.841121 216.268486 
L 404.064432 210.094335 
L 404.287744 211.881992 
L 404.511056 202.952758 
L 404.734367 201.423496 
L 404.957679 215.425732 
L 405.404302 212.006664 
L 405.627614 197.750559 
L 405.850925 192.267442 
L 406.074237 190.074195 
L 406.297549 191.170818 
L 406.52086 190.074195 
L 406.744172 192.267442 
L 406.967484 186.784324 
L 407.190795 184.591077 
L 407.414107 184.591077 
L 407.637419 187.880948 
L 407.86073 184.591077 
L 408.084042 183.494454 
L 408.753977 183.494454 
L 408.977289 184.591077 
L 409.2006 184.591077 
L 409.423912 181.301207 
L 409.647224 185.687701 
L 409.870535 180.204583 
L 410.317159 182.554077 
L 410.54047 178.724893 
L 410.763782 191.630506 
L 411.210405 188.875423 
L 411.433717 197.394542 
L 411.657029 189.847375 
L 411.88034 195.049574 
L 412.103652 206.167529 
L 412.326963 207.134956 
L 412.550275 206.448448 
L 412.996898 193.008048 
L 413.22021 177.655319 
L 413.443522 179.032861 
L 413.666833 186.709225 
L 413.890145 159.805902 
L 414.113457 180.000287 
L 414.336768 156.286924 
L 414.56008 150.928478 
L 414.783392 150.928478 
L 415.006703 158.885761 
L 415.230015 157.102629 
L 415.89995 145.574558 
L 416.346573 145.574558 
L 416.569885 120.583564 
L 416.793197 131.974787 
L 417.016508 149.438547 
L 417.23982 152.860958 
L 417.463132 150.960158 
L 417.686443 152.563985 
L 418.133067 177.836651 
L 418.356378 180.829549 
L 418.57969 175.643404 
L 418.803002 178.211314 
L 419.026313 176.315039 
L 419.249625 178.211314 
L 419.472936 183.105011 
L 419.696248 194.203787 
L 419.91956 187.409289 
L 420.142871 187.409289 
L 420.366183 212.307292 
L 420.589495 214.203566 
L 420.812806 220.865523 
L 421.036118 206.90639 
L 421.25943 214.500539 
L 421.482741 206.316971 
L 421.706053 208.674649 
L 421.929365 213.778578 
L 422.152676 222.976554 
L 422.5993 230.867675 
L 422.822611 230.360472 
L 423.045923 237.150444 
L 423.269235 231.457095 
L 423.492546 270.901412 
L 423.93917 284.993085 
L 424.162481 301.442438 
L 424.385793 301.442438 
L 424.609105 312.408672 
L 424.832416 286.546587 
L 425.055728 294.172626 
L 425.27904 287.592885 
L 425.502351 277.595259 
L 425.725663 285.189407 
L 425.948974 287.46487 
L 426.395598 313.569076 
L 426.618909 312.390237 
L 426.842221 293.962395 
L 427.065533 322.360499 
L 427.288844 316.370178 
L 427.735468 320.167252 
L 427.958779 314.469378 
L 428.182091 305.481633 
L 428.405403 312.865551 
L 428.628714 314.766351 
L 428.852026 309.657896 
L 429.075338 309.068476 
L 429.298649 301.766775 
L 429.521961 285.56407 
L 429.745273 303.242587 
L 429.968584 302.228179 
L 430.191896 303.832006 
L 430.638519 311.211398 
L 431.308454 296.023101 
L 431.531766 265.646507 
L 431.755078 283.535255 
L 431.978389 284.257215 
L 432.201701 290.836956 
L 432.425013 291.504066 
L 432.648324 290.996862 
L 432.871636 276.612741 
L 433.094947 290.996862 
L 433.318259 285.303513 
L 433.541571 284.499337 
L 433.764882 277.412392 
L 433.988194 218.263031 
L 434.211506 223.956379 
L 434.434817 224.545799 
L 434.881441 244.415325 
L 435.104752 239.441649 
L 435.328064 256.823193 
L 435.551376 251.129845 
L 435.997999 271.129624 
L 436.221311 265.856738 
L 436.444622 245.431971 
L 436.667934 245.431971 
L 436.891246 230.108894 
L 437.114557 246.051043 
L 437.337869 232.09191 
L 437.561181 227.915647 
L 437.784492 230.616098 
L 438.007804 226.819024 
L 438.231116 230.616098 
L 438.454427 238.210247 
L 438.677739 240.111047 
L 438.901051 262.813515 
L 439.347674 246.02139 
L 439.570985 253.910273 
L 439.794297 240.618251 
L 440.017609 244.707772 
L 440.24092 245.804395 
L 440.464232 249.898442 
L 440.687544 267.78719 
L 440.910855 263.990116 
L 441.134167 265.890916 
L 441.357479 263.990116 
L 441.58079 268.883814 
L 441.804102 260.193042 
L 442.027414 231.077502 
L 442.474037 236.985608 
L 442.697349 236.985608 
L 442.92066 226.394036 
L 443.143972 206.90146 
L 443.590595 238.456894 
L 443.813907 239.046314 
L 444.037219 255.006897 
L 444.26053 247.332771 
L 444.483842 268.623257 
L 444.707154 239.603843 
L 445.153777 233.316549 
L 445.377089 234.120725 
L 445.6004 241.582333 
L 445.823712 233.613522 
L 446.047024 233.613522 
L 446.270335 237.195839 
L 446.493647 236.099215 
L 446.716958 236.099215 
L 446.94027 252.338336 
L 447.163582 250.145089 
L 447.386893 245.758596 
L 447.833517 257.821454 
L 448.056828 257.821454 
L 448.28014 255.628207 
L 448.503452 241.225651 
L 448.726763 193.134124 
L 448.950075 108.154568 
L 449.173387 158.192695 
L 449.396698 163.593597 
L 449.62001 162.200001 
L 449.843322 159.49955 
L 450.066633 167.927527 
L 450.289945 156.081664 
L 450.736568 161.267809 
L 450.95988 163.168609 
L 451.183192 167.555102 
L 451.406503 169.451377 
L 451.629815 175.948902 
L 451.853127 148.994719 
L 452.076438 156.588868 
L 452.29975 145.622633 
L 452.523062 149.419707 
L 452.746373 128.958524 
L 452.969685 132.92003 
L 453.63962 105.191323 
L 454.086243 119.954632 
L 454.309555 117.306744 
L 454.532866 145.787064 
L 454.756178 132.495042 
L 454.97949 160.385942 
L 455.202801 168.405079 
L 455.426113 168.190322 
L 455.872736 179.156557 
L 456.096048 191.484497 
L 456.31936 161.692797 
L 456.765983 140.811151 
L 456.989295 121.821254 
L 457.212606 136.045469 
L 457.435918 133.345018 
L 457.65923 134.149194 
L 457.882541 128.076657 
L 458.105853 129.383512 
L 458.552476 129.383512 
L 458.775788 124.704571 
L 458.9991 108.972654 
L 459.222411 112.769728 
L 459.445723 114.670528 
L 459.669035 123.658273 
L 459.892346 123.525732 
L 460.115658 125.422006 
L 460.338969 133.016155 
L 460.562281 147.487017 
L 460.785593 147.487017 
L 461.008904 139.303449 
L 461.232216 146.897597 
L 461.455528 167.783769 
L 461.678839 162.972287 
L 461.902151 161.071487 
L 462.125463 161.496475 
L 462.348774 167.194349 
L 462.572086 165.293549 
L 462.795398 180.481846 
L 463.018709 164.918886 
L 463.242021 174.870713 
L 463.465333 169.090623 
L 463.688644 178.585572 
L 463.911956 169.090623 
L 464.135268 215.331676 
L 464.358579 207.655312 
L 464.581891 186.522493 
L 464.805203 187.029697 
L 465.028514 190.534324 
L 465.251826 214.198636 
L 465.475138 212.302362 
L 465.698449 214.198636 
L 465.921761 212.302362 
L 466.145073 221.957216 
L 466.368384 202.889629 
L 466.591696 210.78075 
L 466.815008 211.37017 
L 467.261631 200.911139 
L 467.484942 198.42092 
L 467.708254 202.889629 
L 468.378189 191.416191 
L 468.824812 220.732578 
L 469.048124 233.809843 
L 469.271436 210.191331 
L 469.494747 216.181652 
L 469.718059 209.387154 
L 470.164682 224.739883 
L 470.387994 223.940232 
L 470.611306 212.549009 
L 470.834617 212.041805 
L 471.281241 225.411518 
L 471.504552 220.517821 
L 471.727864 226.215695 
L 471.951176 226.215695 
L 472.397799 236.59251 
L 472.621111 228.701389 
L 472.844422 242.875278 
L 473.067734 237.18193 
L 473.514357 162.75753 
L 473.737669 161.660906 
L 473.96098 172.252478 
L 474.184292 165.457981 
L 474.407604 182.12209 
L 474.630915 184.018364 
L 474.854227 176.424215 
L 475.077539 182.711509 
L 475.30085 167.390671 
L 475.524162 170.972988 
L 475.747474 161.775012 
L 475.970785 157.178287 
L 476.194097 169.369161 
L 476.417409 162.871636 
L 476.64072 170.762757 
L 476.864032 151.398197 
L 477.087344 146.5045 
L 477.310655 148.4053 
L 477.533967 140.811151 
L 477.757279 142.707425 
L 477.98059 146.5045 
L 478.203902 165.572087 
L 478.427214 167.472887 
L 479.097149 164.183016 
L 479.32046 159.49955 
L 479.767084 148.4053 
L 479.990395 155.195272 
L 480.213707 140.811151 
L 480.437019 151.10575 
L 480.883642 123.639838 
L 481.106953 127.436912 
L 481.330265 133.134787 
L 481.553577 145.115429 
L 481.776888 149.419707 
L 482.0002 146.929488 
L 482.223512 141.743343 
L 482.446823 142.757751 
L 482.670135 54.063336 
L 482.893447 61.657485 
L 483.116758 76.845782 
L 483.34007 75.831374 
L 483.563382 89.708291 
L 483.786693 83.425523 
L 484.010005 73.638127 
L 484.233317 73.048708 
L 484.456628 65.157586 
L 484.67994 68.237226 
L 484.903252 66.633398 
L 485.126563 77.515179 
L 485.349875 82.408877 
L 485.796498 99.20324 
L 486.01981 103.507518 
L 486.243122 103.507518 
L 486.466433 119.710223 
L 486.913057 116.717325 
L 487.35968 80.775397 
L 487.582991 81.067844 
L 487.806303 83.05086 
L 488.029615 76.471119 
L 488.252926 122.917877 
L 488.476238 111.741411 
L 488.69955 138.320931 
L 488.922861 139.924759 
L 489.146173 145.622633 
L 489.369485 143.721833 
L 489.592796 145.32566 
L 489.816108 153.427013 
L 490.03942 149.844695 
L 490.486043 163.214408 
L 490.709355 174.610157 
L 491.155978 122.543215 
L 491.37929 160.006754 
L 491.602601 165.704628 
L 491.825913 162.707204 
L 492.049225 164.608004 
L 492.272536 164.772436 
L 492.495848 177.849702 
L 492.71916 172.659031 
L 492.942471 187.340125 
L 493.165783 191.137199 
L 493.389095 160.251163 
L 493.612406 168.062306 
L 493.835718 160.678389 
L 494.282341 158.485142 
L 494.728964 163.886044 
L 494.952276 161.989769 
L 495.175588 163.886044 
L 495.398899 160.088969 
L 495.622211 114.327756 
L 495.845523 156.291895 
L 496.068834 153.591444 
L 496.292146 147.683339 
L 496.515458 174.262859 
L 496.738769 129.742027 
L 496.962081 112.949903 
L 497.185393 115.440123 
L 497.408704 110.034695 
L 497.632016 122.527067 
L 497.855328 98.054053 
L 498.078639 120.119063 
L 498.301951 113.114334 
L 498.525263 115.010609 
L 498.748574 101.426139 
L 499.195198 88.938293 
L 499.418509 121.722891 
L 499.641821 117.336397 
L 499.865133 117.336397 
L 500.088444 155.30714 
L 500.311756 161.005014 
L 500.535068 162.901288 
L 500.981691 190.792189 
L 501.205003 181.594213 
L 501.428314 184.084432 
L 501.651626 187.881507 
L 501.874937 184.966299 
L 502.098249 193.067651 
L 502.321561 193.871828 
L 502.544872 191.971028 
L 502.768184 193.282408 
L 502.991496 193.282408 
L 503.214807 135.522117 
L 503.661431 144.21289 
L 503.884742 141.005235 
L 504.108054 145.391729 
L 504.554677 175.603892 
L 504.777989 172.10379 
L 505.224612 182.183632 
L 505.447924 243.187994 
L 505.894547 221.333214 
L 506.117859 222.644595 
L 506.341171 220.451348 
L 506.564482 268.424243 
L 506.787794 214.641605 
L 507.011106 217.342056 
L 507.234417 215.87077 
L 507.457729 203.003735 
L 507.681041 208.70161 
L 507.904352 217.342056 
L 508.127664 253.74315 
L 508.350975 255.639424 
L 508.797599 219.994469 
L 509.02091 221.301324 
L 509.244222 221.301324 
L 509.467534 219.40505 
L 509.914157 206.999419 
L 510.137469 208.895694 
L 510.36078 206.702447 
L 510.584092 214.004148 
L 510.807404 217.50425 
L 511.254027 209.617654 
L 511.477339 207.20965 
L 511.70065 171.642386 
L 512.147274 176.193311 
L 512.370585 186.540474 
L 512.593897 187.927306 
L 512.817209 187.927306 
L 513.04052 190.627757 
L 513.263832 182.526405 
L 513.487144 187.717075 
L 513.710455 178.519099 
L 513.933767 182.316174 
L 514.157079 174.722025 
L 514.38039 176.618299 
L 514.603702 184.50942 
L 514.827014 167.420323 
L 515.050325 172.314021 
L 515.273637 173.917848 
L 515.496948 165.227076 
L 515.72026 174.722025 
L 515.943572 172.821225 
L 516.166883 196.864726 
L 516.390195 177.92968 
L 516.613507 199.862149 
L 516.836818 195.475655 
L 517.06013 198.765526 
L 517.283442 184.212448 
L 517.506753 184.212448 
L 517.953377 174.722025 
L 518.176688 130.920867 
L 518.4 130.413663 
L 518.4 130.413663 
" style="fill:none;stroke:#4c72b0;stroke-linecap:round;stroke-width:1.75;"/>
   </g>
   <g id="patch_3">
    <path d="M 72 356.4 
L 518.4 356.4 
" style="fill:none;"/>
   </g>
   <g id="patch_4">
    <path d="M 72 39.6 
L 518.4 39.6 
" style="fill:none;"/>
   </g>
   <g id="patch_5">
    <path d="M 72 356.4 
L 72 39.6 
" style="fill:none;"/>
   </g>
   <g id="patch_6">
    <path d="M 518.4 356.4 
L 518.4 39.6 
" style="fill:none;"/>
   </g>
   <g id="text_14">
    <!-- ru - 0.4945091430291077 * pb -->
    <defs>
     <path d="M 9.125 0 
L 9.125 10.6875 
L 18.65625 10.6875 
L 18.65625 0 
z
" id="LiberationSans-2e"/>
     <path d="M 51.421875 26.65625 
Q 51.421875 -0.984375 31.984375 -0.984375 
Q 25.984375 -0.984375 22 1.1875 
Q 18.015625 3.375 15.53125 8.203125 
L 15.4375 8.203125 
Q 15.4375 6.9375 15.359375 5.5625 
Q 15.28125 4.203125 15.203125 3.03125 
Q 15.140625 1.859375 15.0625 1.03125 
Q 14.984375 0.203125 14.9375 0 
L 6.453125 0 
Q 6.5 0.4375 6.546875 1.484375 
Q 6.59375 2.546875 6.640625 4 
Q 6.6875 5.46875 6.703125 7.21875 
Q 6.734375 8.984375 6.734375 10.890625 
L 6.734375 72.46875 
L 15.53125 72.46875 
L 15.53125 51.8125 
Q 15.53125 50.34375 15.5 49 
Q 15.484375 47.65625 15.4375 46.625 
Q 15.375 45.40625 15.328125 44.34375 
L 15.53125 44.34375 
Q 17.96875 49.421875 22 51.609375 
Q 26.03125 53.8125 31.984375 53.8125 
Q 42 53.8125 46.703125 47.0625 
Q 51.421875 40.328125 51.421875 26.65625 
M 42.1875 26.375 
Q 42.1875 31.84375 41.5 35.75 
Q 40.828125 39.65625 39.3125 42.15625 
Q 37.796875 44.671875 35.453125 45.84375 
Q 33.109375 47.015625 29.734375 47.015625 
Q 26.265625 47.015625 23.609375 45.890625 
Q 20.953125 44.78125 19.171875 42.28125 
Q 17.390625 39.796875 16.453125 35.734375 
Q 15.53125 31.6875 15.53125 25.828125 
Q 15.53125 20.171875 16.453125 16.3125 
Q 17.390625 12.453125 19.171875 10.03125 
Q 20.953125 7.625 23.578125 6.5625 
Q 26.21875 5.515625 29.640625 5.515625 
Q 32.859375 5.515625 35.203125 6.640625 
Q 37.546875 7.765625 39.109375 10.25 
Q 40.671875 12.75 41.421875 16.71875 
Q 42.1875 20.703125 42.1875 26.375 
" id="LiberationSans-62"/>
     <path d="M 51.421875 26.65625 
Q 51.421875 20.65625 50.4375 15.578125 
Q 49.46875 10.5 47.1875 6.828125 
Q 44.921875 3.171875 41.1875 1.09375 
Q 37.453125 -0.984375 31.984375 -0.984375 
Q 26.3125 -0.984375 22.0625 1.171875 
Q 17.828125 3.328125 15.578125 8.203125 
L 15.328125 8.203125 
Q 15.375 8.109375 15.40625 7.328125 
Q 15.4375 6.546875 15.453125 5.375 
Q 15.484375 4.203125 15.5 2.75 
Q 15.53125 1.3125 15.53125 -0.09375 
L 15.53125 -20.75 
L 6.734375 -20.75 
L 6.734375 42.046875 
Q 6.734375 43.953125 6.703125 45.703125 
Q 6.6875 47.46875 6.640625 48.90625 
Q 6.59375 50.34375 6.546875 51.359375 
Q 6.5 52.390625 6.453125 52.828125 
L 14.9375 52.828125 
Q 14.984375 52.6875 15.0625 51.796875 
Q 15.140625 50.921875 15.203125 49.671875 
Q 15.28125 48.4375 15.359375 47.015625 
Q 15.4375 45.609375 15.4375 44.34375 
L 15.625 44.34375 
Q 16.84375 46.875 18.40625 48.65625 
Q 19.96875 50.4375 21.96875 51.578125 
Q 23.96875 52.734375 26.4375 53.25 
Q 28.90625 53.765625 31.984375 53.765625 
Q 37.453125 53.765625 41.1875 51.8125 
Q 44.921875 49.859375 47.1875 46.3125 
Q 49.46875 42.78125 50.4375 37.765625 
Q 51.421875 32.765625 51.421875 26.65625 
M 42.1875 26.46875 
Q 42.1875 31.34375 41.59375 35.15625 
Q 41.015625 38.96875 39.578125 41.59375 
Q 38.140625 44.234375 35.734375 45.59375 
Q 33.34375 46.96875 29.734375 46.96875 
Q 26.8125 46.96875 24.21875 46.140625 
Q 21.625 45.3125 19.703125 42.96875 
Q 17.78125 40.625 16.65625 36.5 
Q 15.53125 32.375 15.53125 25.78125 
Q 15.53125 20.171875 16.453125 16.28125 
Q 17.390625 12.40625 19.171875 10.015625 
Q 20.953125 7.625 23.578125 6.5625 
Q 26.21875 5.515625 29.640625 5.515625 
Q 33.296875 5.515625 35.71875 6.921875 
Q 38.140625 8.34375 39.578125 11.03125 
Q 41.015625 13.71875 41.59375 17.59375 
Q 42.1875 21.484375 42.1875 26.46875 
" id="LiberationSans-70"/>
     <path d="M 22.265625 54.390625 
L 35.15625 59.421875 
L 37.359375 52.984375 
L 23.578125 49.421875 
L 32.625 37.203125 
L 26.8125 33.6875 
L 19.484375 46.296875 
L 11.859375 33.796875 
L 6.0625 37.3125 
L 15.28125 49.421875 
L 1.609375 52.984375 
L 3.8125 59.515625 
L 16.84375 54.296875 
L 16.265625 68.796875 
L 22.90625 68.796875 
z
" id="LiberationSans-2a"/>
     <path d="M 15.328125 52.828125 
L 15.328125 19.34375 
Q 15.328125 15.484375 15.890625 12.890625 
Q 16.453125 10.296875 17.71875 8.703125 
Q 19 7.125 21.0625 6.46875 
Q 23.140625 5.8125 26.21875 5.8125 
Q 29.34375 5.8125 31.859375 6.90625 
Q 34.375 8.015625 36.15625 10.078125 
Q 37.9375 12.15625 38.90625 15.203125 
Q 39.890625 18.265625 39.890625 22.21875 
L 39.890625 52.828125 
L 48.6875 52.828125 
L 48.6875 11.28125 
Q 48.6875 9.625 48.703125 7.78125 
Q 48.734375 5.953125 48.78125 4.3125 
Q 48.828125 2.6875 48.875 1.515625 
Q 48.921875 0.34375 48.96875 0 
L 40.671875 0 
Q 40.625 0.25 40.578125 1.3125 
Q 40.53125 2.390625 40.453125 3.78125 
Q 40.375 5.171875 40.328125 6.609375 
Q 40.28125 8.0625 40.28125 9.03125 
L 40.140625 9.03125 
Q 38.875 6.734375 37.359375 4.875 
Q 35.84375 3.03125 33.84375 1.734375 
Q 31.84375 0.4375 29.25 -0.265625 
Q 26.65625 -0.984375 23.25 -0.984375 
Q 18.84375 -0.984375 15.671875 0.09375 
Q 12.5 1.171875 10.453125 3.421875 
Q 8.40625 5.671875 7.453125 9.1875 
Q 6.5 12.703125 6.5 17.625 
L 6.5 52.828125 
z
" id="LiberationSans-75"/>
     <path d="M 6.9375 0 
L 6.9375 40.53125 
Q 6.9375 42.1875 6.90625 43.921875 
Q 6.890625 45.65625 6.828125 47.265625 
Q 6.78125 48.875 6.734375 50.28125 
Q 6.6875 51.703125 6.640625 52.828125 
L 14.9375 52.828125 
Q 14.984375 51.703125 15.0625 50.265625 
Q 15.140625 48.828125 15.203125 47.3125 
Q 15.28125 45.796875 15.296875 44.40625 
Q 15.328125 43.015625 15.328125 42.046875 
L 15.53125 42.046875 
Q 16.453125 45.0625 17.5 47.28125 
Q 18.5625 49.515625 19.96875 50.953125 
Q 21.390625 52.390625 23.34375 53.09375 
Q 25.296875 53.8125 28.078125 53.8125 
Q 29.15625 53.8125 30.125 53.640625 
Q 31.109375 53.46875 31.640625 53.328125 
L 31.640625 45.265625 
Q 30.765625 45.515625 29.59375 45.625 
Q 28.421875 45.75 26.953125 45.75 
Q 23.921875 45.75 21.796875 44.375 
Q 19.671875 43.015625 18.328125 40.59375 
Q 17 38.1875 16.359375 34.84375 
Q 15.71875 31.5 15.71875 27.546875 
L 15.71875 0 
z
" id="LiberationSans-72"/>
    </defs>
    <g style="fill:#262626;" transform="translate(213.8034375 34.6)scale(0.12 -0.12)">
     <use xlink:href="#LiberationSans-72"/>
     <use x="33.30078125" xlink:href="#LiberationSans-75"/>
     <use x="88.916015625" xlink:href="#LiberationSans-20"/>
     <use x="116.69921875" xlink:href="#LiberationSans-2d"/>
     <use x="150.0" xlink:href="#LiberationSans-20"/>
     <use x="177.783203125" xlink:href="#LiberationSans-30"/>
     <use x="233.3984375" xlink:href="#LiberationSans-2e"/>
     <use x="261.181640625" xlink:href="#LiberationSans-34"/>
     <use x="316.796875" xlink:href="#LiberationSans-39"/>
     <use x="372.412109375" xlink:href="#LiberationSans-34"/>
     <use x="428.02734375" xlink:href="#LiberationSans-35"/>
     <use x="483.642578125" xlink:href="#LiberationSans-30"/>
     <use x="539.2578125" xlink:href="#LiberationSans-39"/>
     <use x="594.873046875" xlink:href="#LiberationSans-31"/>
     <use x="650.48828125" xlink:href="#LiberationSans-34"/>
     <use x="706.103515625" xlink:href="#LiberationSans-33"/>
     <use x="761.71875" xlink:href="#LiberationSans-30"/>
     <use x="817.333984375" xlink:href="#LiberationSans-32"/>
     <use x="872.94921875" xlink:href="#LiberationSans-39"/>
     <use x="928.564453125" xlink:href="#LiberationSans-31"/>
     <use x="984.1796875" xlink:href="#LiberationSans-30"/>
     <use x="1039.794921875" xlink:href="#LiberationSans-37"/>
     <use x="1095.41015625" xlink:href="#LiberationSans-37"/>
     <use x="1151.025390625" xlink:href="#LiberationSans-20"/>
     <use x="1178.80859375" xlink:href="#LiberationSans-2a"/>
     <use x="1217.724609375" xlink:href="#LiberationSans-20"/>
     <use x="1245.5078125" xlink:href="#LiberationSans-70"/>
     <use x="1301.123046875" xlink:href="#LiberationSans-62"/>
    </g>
   </g>
  </g>
 </g>
 <defs>
  <clipPath id="p1641283be6">
   <rect height="316.8" width="446.4" x="72.0" y="39.6"/>
  </clipPath>
 </defs>
</svg>
