<?xml version="1.0" encoding="utf-8" standalone="no"?>
<!DOCTYPE svg PUBLIC "-//W3C//DTD SVG 1.1//EN"
  "http://www.w3.org/Graphics/SVG/1.1/DTD/svg11.dtd">
<!-- Created with matplotlib (http://matplotlib.org/) -->
<svg height="396pt" version="1.1" viewBox="0 0 576 396" width="576pt" xmlns="http://www.w3.org/2000/svg" xmlns:xlink="http://www.w3.org/1999/xlink">
 <defs>
  <style type="text/css">
*{stroke-linecap:butt;stroke-linejoin:round;stroke-miterlimit:100000;}
  </style>
 </defs>
 <g id="figure_1">
  <g id="patch_1">
   <path d="M 0 396 
L 576 396 
L 576 0 
L 0 0 
z
" style="fill:#ffffff;"/>
  </g>
  <g id="axes_1">
   <g id="patch_2">
    <path d="M 72 356.4 
L 518.4 356.4 
L 518.4 39.6 
L 72 39.6 
z
" style="fill:#eaeaf2;"/>
   </g>
   <g id="matplotlib.axis_1">
    <g id="xtick_1">
     <g id="line2d_1">
      <path clip-path="url(#p02ce4bf24b)" d="M 72 356.4 
L 72 39.6 
" style="fill:none;stroke:#ffffff;stroke-linecap:round;"/>
     </g>
     <g id="line2d_2"/>
     <g id="line2d_3"/>
     <g id="text_1">
      <!-- 2016-09-29 22:45:00 -->
      <defs>
       <path d="M 5.03125 0 
L 5.03125 6.203125 
Q 7.515625 11.921875 11.109375 16.28125 
Q 14.703125 20.65625 18.65625 24.1875 
Q 22.609375 27.734375 26.484375 30.765625 
Q 30.375 33.796875 33.5 36.8125 
Q 36.625 39.84375 38.546875 43.15625 
Q 40.484375 46.484375 40.484375 50.6875 
Q 40.484375 53.609375 39.59375 55.828125 
Q 38.71875 58.0625 37.0625 59.5625 
Q 35.40625 61.078125 33.078125 61.828125 
Q 30.765625 62.59375 27.9375 62.59375 
Q 25.296875 62.59375 22.96875 61.859375 
Q 20.65625 61.140625 18.84375 59.671875 
Q 17.046875 58.203125 15.890625 56.03125 
Q 14.75 53.859375 14.40625 50.984375 
L 5.421875 51.8125 
Q 5.859375 55.515625 7.46875 58.78125 
Q 9.078125 62.0625 11.90625 64.53125 
Q 14.75 67 18.71875 68.40625 
Q 22.703125 69.828125 27.9375 69.828125 
Q 33.0625 69.828125 37.0625 68.609375 
Q 41.0625 67.390625 43.8125 64.984375 
Q 46.578125 62.59375 48.046875 59.078125 
Q 49.515625 55.5625 49.515625 50.984375 
Q 49.515625 47.515625 48.265625 44.390625 
Q 47.015625 41.265625 44.9375 38.421875 
Q 42.875 35.59375 40.140625 32.953125 
Q 37.40625 30.328125 34.421875 27.8125 
Q 31.453125 25.296875 28.421875 22.828125 
Q 25.390625 20.359375 22.71875 17.859375 
Q 20.0625 15.375 17.96875 12.8125 
Q 15.875 10.25 14.703125 7.46875 
L 50.59375 7.46875 
L 50.59375 0 
z
" id="LiberationSans-32"/>
       <path d="M 7.625 0 
L 7.625 7.46875 
L 25.140625 7.46875 
L 25.140625 60.40625 
L 9.625 49.3125 
L 9.625 57.625 
L 25.875 68.796875 
L 33.984375 68.796875 
L 33.984375 7.46875 
L 50.734375 7.46875 
L 50.734375 0 
z
" id="LiberationSans-31"/>
       <path d="M 51.421875 22.40625 
Q 51.421875 17.234375 49.859375 12.9375 
Q 48.296875 8.640625 45.21875 5.53125 
Q 42.140625 2.4375 37.578125 0.71875 
Q 33.015625 -0.984375 27 -0.984375 
Q 21.578125 -0.984375 17.546875 0.28125 
Q 13.53125 1.5625 10.734375 3.78125 
Q 7.953125 6 6.3125 8.984375 
Q 4.6875 11.96875 4 15.375 
L 12.890625 16.40625 
Q 13.421875 14.453125 14.390625 12.625 
Q 15.375 10.796875 17.0625 9.34375 
Q 18.75 7.90625 21.21875 7.046875 
Q 23.6875 6.203125 27.203125 6.203125 
Q 30.609375 6.203125 33.390625 7.25 
Q 36.1875 8.296875 38.15625 10.34375 
Q 40.140625 12.40625 41.203125 15.375 
Q 42.28125 18.359375 42.28125 22.21875 
Q 42.28125 25.390625 41.25 28.046875 
Q 40.234375 30.71875 38.328125 32.640625 
Q 36.421875 34.578125 33.65625 35.640625 
Q 30.90625 36.71875 27.390625 36.71875 
Q 25.203125 36.71875 23.34375 36.328125 
Q 21.484375 35.9375 19.890625 35.25 
Q 18.3125 34.578125 17.015625 33.671875 
Q 15.71875 32.765625 14.59375 31.78125 
L 6 31.78125 
L 8.296875 68.796875 
L 47.40625 68.796875 
L 47.40625 61.328125 
L 16.3125 61.328125 
L 14.984375 39.5 
Q 17.328125 41.3125 20.84375 42.59375 
Q 24.359375 43.890625 29.203125 43.890625 
Q 34.328125 43.890625 38.421875 42.328125 
Q 42.53125 40.765625 45.40625 37.90625 
Q 48.296875 35.0625 49.859375 31.109375 
Q 51.421875 27.15625 51.421875 22.40625 
" id="LiberationSans-35"/>
       <path d="M 51.703125 34.421875 
Q 51.703125 24.515625 49.828125 17.75 
Q 47.953125 10.984375 44.703125 6.8125 
Q 41.453125 2.640625 37.0625 0.828125 
Q 32.671875 -0.984375 27.6875 -0.984375 
Q 22.65625 -0.984375 18.3125 0.828125 
Q 13.96875 2.640625 10.765625 6.78125 
Q 7.5625 10.9375 5.734375 17.703125 
Q 3.90625 24.46875 3.90625 34.421875 
Q 3.90625 44.828125 5.734375 51.640625 
Q 7.5625 58.453125 10.78125 62.5 
Q 14.015625 66.546875 18.40625 68.1875 
Q 22.796875 69.828125 27.984375 69.828125 
Q 32.90625 69.828125 37.21875 68.1875 
Q 41.546875 66.546875 44.765625 62.5 
Q 48 58.453125 49.84375 51.640625 
Q 51.703125 44.828125 51.703125 34.421875 
M 42.78125 34.421875 
Q 42.78125 42.625 41.796875 48.0625 
Q 40.828125 53.515625 38.921875 56.765625 
Q 37.015625 60.015625 34.25 61.359375 
Q 31.5 62.703125 27.984375 62.703125 
Q 24.265625 62.703125 21.4375 61.328125 
Q 18.609375 59.96875 16.671875 56.71875 
Q 14.75 53.46875 13.765625 48.015625 
Q 12.796875 42.578125 12.796875 34.421875 
Q 12.796875 26.515625 13.796875 21.09375 
Q 14.796875 15.671875 16.71875 12.375 
Q 18.65625 9.078125 21.4375 7.640625 
Q 24.21875 6.203125 27.78125 6.203125 
Q 31.25 6.203125 34.03125 7.640625 
Q 36.8125 9.078125 38.734375 12.375 
Q 40.671875 15.671875 41.71875 21.09375 
Q 42.78125 26.515625 42.78125 34.421875 
" id="LiberationSans-30"/>
       <path d="M 50.875 35.796875 
Q 50.875 26.609375 49.140625 19.703125 
Q 47.40625 12.796875 44.1875 8.203125 
Q 40.96875 3.609375 36.34375 1.3125 
Q 31.734375 -0.984375 25.984375 -0.984375 
Q 22.015625 -0.984375 18.84375 -0.171875 
Q 15.671875 0.640625 13.171875 2.34375 
Q 10.6875 4.046875 8.921875 6.78125 
Q 7.171875 9.515625 6.109375 13.375 
L 14.5 14.703125 
Q 15.875 10.25 18.78125 8.171875 
Q 21.6875 6.109375 26.125 6.109375 
Q 29.6875 6.109375 32.640625 7.78125 
Q 35.59375 9.46875 37.671875 12.84375 
Q 39.75 16.21875 40.921875 21.296875 
Q 42.09375 26.375 42.1875 33.203125 
Q 41.15625 30.90625 39.375 29.09375 
Q 37.59375 27.296875 35.328125 26.046875 
Q 33.0625 24.8125 30.421875 24.140625 
Q 27.78125 23.484375 25.09375 23.484375 
Q 20.40625 23.484375 16.625 25.171875 
Q 12.84375 26.859375 10.203125 29.875 
Q 7.5625 32.90625 6.125 37.171875 
Q 4.6875 41.453125 4.6875 46.6875 
Q 4.6875 52 6.21875 56.296875 
Q 7.765625 60.59375 10.6875 63.59375 
Q 13.625 66.609375 17.890625 68.21875 
Q 22.171875 69.828125 27.59375 69.828125 
Q 39.0625 69.828125 44.96875 61.328125 
Q 50.875 52.828125 50.875 35.796875 
M 41.3125 44.28125 
Q 41.3125 48.09375 40.40625 51.453125 
Q 39.5 54.828125 37.71875 57.3125 
Q 35.9375 59.8125 33.328125 61.25 
Q 30.71875 62.703125 27.296875 62.703125 
Q 24.125 62.703125 21.578125 61.578125 
Q 19.046875 60.453125 17.28125 58.375 
Q 15.53125 56.296875 14.578125 53.3125 
Q 13.625 50.34375 13.625 46.6875 
Q 13.625 43.21875 14.46875 40.234375 
Q 15.328125 37.25 17.03125 35.078125 
Q 18.75 32.90625 21.28125 31.65625 
Q 23.828125 30.421875 27.203125 30.421875 
Q 29.640625 30.421875 32.15625 31.25 
Q 34.671875 32.078125 36.6875 33.78125 
Q 38.71875 35.5 40.015625 38.109375 
Q 41.3125 40.71875 41.3125 44.28125 
" id="LiberationSans-39"/>
       <path d="M 9.125 42.71875 
L 9.125 52.828125 
L 18.65625 52.828125 
L 18.65625 42.71875 
z
M 9.125 0 
L 9.125 10.109375 
L 18.65625 10.109375 
L 18.65625 0 
z
" id="LiberationSans-3a"/>
       <path d="M 43.015625 15.578125 
L 43.015625 0 
L 34.71875 0 
L 34.71875 15.578125 
L 2.296875 15.578125 
L 2.296875 22.40625 
L 33.796875 68.796875 
L 43.015625 68.796875 
L 43.015625 22.515625 
L 52.6875 22.515625 
L 52.6875 15.578125 
z
M 34.71875 58.890625 
Q 34.625 58.640625 34.234375 57.9375 
Q 33.84375 57.234375 33.34375 56.34375 
Q 32.859375 55.46875 32.34375 54.5625 
Q 31.84375 53.65625 31.453125 53.078125 
L 13.8125 27.09375 
Q 13.578125 26.703125 13.109375 26.0625 
Q 12.640625 25.4375 12.15625 24.78125 
Q 11.671875 24.125 11.171875 23.484375 
Q 10.6875 22.859375 10.40625 22.515625 
L 34.71875 22.515625 
z
" id="LiberationSans-34"/>
       <path id="LiberationSans-20"/>
       <path d="M 4.4375 22.65625 
L 4.4375 30.46875 
L 28.859375 30.46875 
L 28.859375 22.65625 
z
" id="LiberationSans-2d"/>
       <path d="M 51.21875 22.515625 
Q 51.21875 17.328125 49.78125 13 
Q 48.34375 8.6875 45.53125 5.578125 
Q 42.71875 2.484375 38.5625 0.75 
Q 34.421875 -0.984375 29 -0.984375 
Q 23 -0.984375 18.5 1.3125 
Q 14.015625 3.609375 11.03125 7.921875 
Q 8.0625 12.25 6.5625 18.53125 
Q 5.078125 24.8125 5.078125 32.8125 
Q 5.078125 42 6.765625 48.921875 
Q 8.453125 55.859375 11.625 60.5 
Q 14.796875 65.140625 19.359375 67.484375 
Q 23.921875 69.828125 29.6875 69.828125 
Q 33.203125 69.828125 36.28125 69.09375 
Q 39.359375 68.359375 41.875 66.71875 
Q 44.390625 65.09375 46.28125 62.40625 
Q 48.1875 59.71875 49.3125 55.8125 
L 40.921875 54.296875 
Q 39.546875 58.734375 36.546875 60.71875 
Q 33.546875 62.703125 29.59375 62.703125 
Q 25.984375 62.703125 23.046875 60.984375 
Q 20.125 59.28125 18.0625 55.875 
Q 16.015625 52.484375 14.90625 47.359375 
Q 13.8125 42.234375 13.8125 35.40625 
Q 16.21875 39.84375 20.5625 42.15625 
Q 24.90625 44.484375 30.515625 44.484375 
Q 35.203125 44.484375 39.015625 42.96875 
Q 42.828125 41.453125 45.53125 38.59375 
Q 48.25 35.75 49.734375 31.671875 
Q 51.21875 27.59375 51.21875 22.515625 
M 42.28125 22.125 
Q 42.28125 25.6875 41.40625 28.5625 
Q 40.53125 31.453125 38.765625 33.46875 
Q 37.015625 35.5 34.421875 36.59375 
Q 31.84375 37.703125 28.421875 37.703125 
Q 26.03125 37.703125 23.578125 36.984375 
Q 21.140625 36.28125 19.15625 34.6875 
Q 17.1875 33.109375 15.9375 30.515625 
Q 14.703125 27.9375 14.703125 24.21875 
Q 14.703125 20.40625 15.671875 17.109375 
Q 16.65625 13.8125 18.484375 11.375 
Q 20.3125 8.9375 22.890625 7.515625 
Q 25.484375 6.109375 28.71875 6.109375 
Q 31.890625 6.109375 34.40625 7.203125 
Q 36.921875 8.296875 38.671875 10.375 
Q 40.4375 12.453125 41.359375 15.421875 
Q 42.28125 18.40625 42.28125 22.125 
" id="LiberationSans-36"/>
      </defs>
      <g style="fill:#262626;" transform="translate(25.5765625 370.646875)scale(0.1 -0.1)">
       <use xlink:href="#LiberationSans-32"/>
       <use x="55.615234375" xlink:href="#LiberationSans-30"/>
       <use x="111.23046875" xlink:href="#LiberationSans-31"/>
       <use x="166.845703125" xlink:href="#LiberationSans-36"/>
       <use x="222.4609375" xlink:href="#LiberationSans-2d"/>
       <use x="255.76171875" xlink:href="#LiberationSans-30"/>
       <use x="311.376953125" xlink:href="#LiberationSans-39"/>
       <use x="366.9921875" xlink:href="#LiberationSans-2d"/>
       <use x="400.29296875" xlink:href="#LiberationSans-32"/>
       <use x="455.908203125" xlink:href="#LiberationSans-39"/>
       <use x="511.5234375" xlink:href="#LiberationSans-20"/>
       <use x="539.306640625" xlink:href="#LiberationSans-32"/>
       <use x="594.921875" xlink:href="#LiberationSans-32"/>
       <use x="650.537109375" xlink:href="#LiberationSans-3a"/>
       <use x="678.3203125" xlink:href="#LiberationSans-34"/>
       <use x="733.935546875" xlink:href="#LiberationSans-35"/>
       <use x="789.55078125" xlink:href="#LiberationSans-3a"/>
       <use x="817.333984375" xlink:href="#LiberationSans-30"/>
       <use x="872.94921875" xlink:href="#LiberationSans-30"/>
      </g>
     </g>
    </g>
    <g id="xtick_2">
     <g id="line2d_4">
      <path clip-path="url(#p02ce4bf24b)" d="M 183.655828 356.4 
L 183.655828 39.6 
" style="fill:none;stroke:#ffffff;stroke-linecap:round;"/>
     </g>
     <g id="line2d_5"/>
     <g id="line2d_6"/>
     <g id="text_2">
      <!-- 2016-10-10 21:03:00 -->
      <defs>
       <path d="M 51.21875 19 
Q 51.21875 14.265625 49.671875 10.546875 
Q 48.140625 6.84375 45.1875 4.265625 
Q 42.234375 1.703125 37.859375 0.359375 
Q 33.5 -0.984375 27.875 -0.984375 
Q 21.484375 -0.984375 17.109375 0.609375 
Q 12.75 2.203125 9.90625 4.8125 
Q 7.078125 7.421875 5.65625 10.765625 
Q 4.25 14.109375 3.8125 17.671875 
L 12.890625 18.5 
Q 13.28125 15.765625 14.328125 13.515625 
Q 15.375 11.28125 17.1875 9.671875 
Q 19 8.0625 21.625 7.171875 
Q 24.265625 6.296875 27.875 6.296875 
Q 34.515625 6.296875 38.296875 9.5625 
Q 42.09375 12.84375 42.09375 19.28125 
Q 42.09375 23.09375 40.40625 25.40625 
Q 38.71875 27.734375 36.203125 29.03125 
Q 33.6875 30.328125 30.734375 30.765625 
Q 27.78125 31.203125 25.296875 31.203125 
L 20.3125 31.203125 
L 20.3125 38.8125 
L 25.09375 38.8125 
Q 27.59375 38.8125 30.265625 39.328125 
Q 32.953125 39.84375 35.171875 41.1875 
Q 37.40625 42.53125 38.84375 44.828125 
Q 40.28125 47.125 40.28125 50.6875 
Q 40.28125 56.203125 37.03125 59.390625 
Q 33.796875 62.59375 27.390625 62.59375 
Q 21.578125 62.59375 17.984375 59.609375 
Q 14.40625 56.640625 13.8125 51.21875 
L 4.984375 51.90625 
Q 5.515625 56.453125 7.46875 59.8125 
Q 9.421875 63.1875 12.421875 65.40625 
Q 15.4375 67.625 19.28125 68.71875 
Q 23.140625 69.828125 27.484375 69.828125 
Q 33.25 69.828125 37.390625 68.375 
Q 41.546875 66.9375 44.1875 64.46875 
Q 46.828125 62.015625 48.0625 58.6875 
Q 49.3125 55.375 49.3125 51.609375 
Q 49.3125 48.578125 48.484375 45.9375 
Q 47.65625 43.3125 45.890625 41.203125 
Q 44.140625 39.109375 41.421875 37.59375 
Q 38.71875 36.078125 34.90625 35.296875 
L 34.90625 35.109375 
Q 39.0625 34.671875 42.140625 33.21875 
Q 45.21875 31.78125 47.21875 29.625 
Q 49.21875 27.484375 50.21875 24.75 
Q 51.21875 22.015625 51.21875 19 
" id="LiberationSans-33"/>
      </defs>
      <g style="fill:#262626;" transform="translate(137.232390414 370.646875)scale(0.1 -0.1)">
       <use xlink:href="#LiberationSans-32"/>
       <use x="55.615234375" xlink:href="#LiberationSans-30"/>
       <use x="111.23046875" xlink:href="#LiberationSans-31"/>
       <use x="166.845703125" xlink:href="#LiberationSans-36"/>
       <use x="222.4609375" xlink:href="#LiberationSans-2d"/>
       <use x="255.76171875" xlink:href="#LiberationSans-31"/>
       <use x="311.376953125" xlink:href="#LiberationSans-30"/>
       <use x="366.9921875" xlink:href="#LiberationSans-2d"/>
       <use x="400.29296875" xlink:href="#LiberationSans-31"/>
       <use x="455.908203125" xlink:href="#LiberationSans-30"/>
       <use x="511.5234375" xlink:href="#LiberationSans-20"/>
       <use x="539.306640625" xlink:href="#LiberationSans-32"/>
       <use x="594.921875" xlink:href="#LiberationSans-31"/>
       <use x="650.537109375" xlink:href="#LiberationSans-3a"/>
       <use x="678.3203125" xlink:href="#LiberationSans-30"/>
       <use x="733.935546875" xlink:href="#LiberationSans-33"/>
       <use x="789.55078125" xlink:href="#LiberationSans-3a"/>
       <use x="817.333984375" xlink:href="#LiberationSans-30"/>
       <use x="872.94921875" xlink:href="#LiberationSans-30"/>
      </g>
     </g>
    </g>
    <g id="xtick_3">
     <g id="line2d_7">
      <path clip-path="url(#p02ce4bf24b)" d="M 295.311656 356.4 
L 295.311656 39.6 
" style="fill:none;stroke:#ffffff;stroke-linecap:round;"/>
     </g>
     <g id="line2d_8"/>
     <g id="line2d_9"/>
     <g id="text_3">
      <!-- 2016-10-11 23:07:00 -->
      <defs>
       <path d="M 50.59375 61.671875 
Q 45.40625 53.765625 41.0625 46.453125 
Q 36.71875 39.15625 33.59375 31.75 
Q 30.46875 24.359375 28.734375 16.578125 
Q 27 8.796875 27 0 
L 17.828125 0 
Q 17.828125 8.25 19.78125 16.1875 
Q 21.734375 24.125 25.046875 31.765625 
Q 28.375 39.40625 32.765625 46.78125 
Q 37.15625 54.15625 42.09375 61.328125 
L 5.125 61.328125 
L 5.125 68.796875 
L 50.59375 68.796875 
z
" id="LiberationSans-37"/>
      </defs>
      <g style="fill:#262626;" transform="translate(248.888218328 370.646875)scale(0.1 -0.1)">
       <use xlink:href="#LiberationSans-32"/>
       <use x="55.615234375" xlink:href="#LiberationSans-30"/>
       <use x="111.23046875" xlink:href="#LiberationSans-31"/>
       <use x="166.845703125" xlink:href="#LiberationSans-36"/>
       <use x="222.4609375" xlink:href="#LiberationSans-2d"/>
       <use x="255.76171875" xlink:href="#LiberationSans-31"/>
       <use x="311.376953125" xlink:href="#LiberationSans-30"/>
       <use x="366.9921875" xlink:href="#LiberationSans-2d"/>
       <use x="400.29296875" xlink:href="#LiberationSans-31"/>
       <use x="455.908203125" xlink:href="#LiberationSans-31"/>
       <use x="511.5234375" xlink:href="#LiberationSans-20"/>
       <use x="539.306640625" xlink:href="#LiberationSans-32"/>
       <use x="594.921875" xlink:href="#LiberationSans-33"/>
       <use x="650.537109375" xlink:href="#LiberationSans-3a"/>
       <use x="678.3203125" xlink:href="#LiberationSans-30"/>
       <use x="733.935546875" xlink:href="#LiberationSans-37"/>
       <use x="789.55078125" xlink:href="#LiberationSans-3a"/>
       <use x="817.333984375" xlink:href="#LiberationSans-30"/>
       <use x="872.94921875" xlink:href="#LiberationSans-30"/>
      </g>
     </g>
    </g>
    <g id="xtick_4">
     <g id="line2d_10">
      <path clip-path="url(#p02ce4bf24b)" d="M 406.967484 356.4 
L 406.967484 39.6 
" style="fill:none;stroke:#ffffff;stroke-linecap:round;"/>
     </g>
     <g id="line2d_11"/>
     <g id="line2d_12"/>
     <g id="text_4">
      <!-- 2016-10-13 10:56:00 -->
      <g style="fill:#262626;" transform="translate(360.544046242 370.646875)scale(0.1 -0.1)">
       <use xlink:href="#LiberationSans-32"/>
       <use x="55.615234375" xlink:href="#LiberationSans-30"/>
       <use x="111.23046875" xlink:href="#LiberationSans-31"/>
       <use x="166.845703125" xlink:href="#LiberationSans-36"/>
       <use x="222.4609375" xlink:href="#LiberationSans-2d"/>
       <use x="255.76171875" xlink:href="#LiberationSans-31"/>
       <use x="311.376953125" xlink:href="#LiberationSans-30"/>
       <use x="366.9921875" xlink:href="#LiberationSans-2d"/>
       <use x="400.29296875" xlink:href="#LiberationSans-31"/>
       <use x="455.908203125" xlink:href="#LiberationSans-33"/>
       <use x="511.5234375" xlink:href="#LiberationSans-20"/>
       <use x="539.306640625" xlink:href="#LiberationSans-31"/>
       <use x="594.921875" xlink:href="#LiberationSans-30"/>
       <use x="650.537109375" xlink:href="#LiberationSans-3a"/>
       <use x="678.3203125" xlink:href="#LiberationSans-35"/>
       <use x="733.935546875" xlink:href="#LiberationSans-36"/>
       <use x="789.55078125" xlink:href="#LiberationSans-3a"/>
       <use x="817.333984375" xlink:href="#LiberationSans-30"/>
       <use x="872.94921875" xlink:href="#LiberationSans-30"/>
      </g>
     </g>
    </g>
    <g id="text_5">
     <!-- time -->
     <defs>
      <path d="M 13.484375 24.5625 
Q 13.484375 20.40625 14.328125 16.90625 
Q 15.1875 13.421875 16.96875 10.90625 
Q 18.75 8.40625 21.53125 7 
Q 24.3125 5.609375 28.21875 5.609375 
Q 33.9375 5.609375 37.375 7.90625 
Q 40.828125 10.203125 42.046875 13.71875 
L 49.75 11.53125 
Q 48.921875 9.328125 47.4375 7.109375 
Q 45.953125 4.890625 43.453125 3.09375 
Q 40.96875 1.3125 37.234375 0.15625 
Q 33.5 -0.984375 28.21875 -0.984375 
Q 16.5 -0.984375 10.375 6 
Q 4.25 12.984375 4.25 26.765625 
Q 4.25 34.1875 6.09375 39.328125 
Q 7.953125 44.484375 11.171875 47.703125 
Q 14.40625 50.921875 18.703125 52.359375 
Q 23 53.8125 27.875 53.8125 
Q 34.515625 53.8125 38.984375 51.65625 
Q 43.453125 49.515625 46.15625 45.71875 
Q 48.875 41.9375 50.015625 36.8125 
Q 51.171875 31.6875 51.171875 25.734375 
L 51.171875 24.5625 
z
M 42.09375 31.296875 
Q 41.359375 39.65625 37.84375 43.484375 
Q 34.328125 47.3125 27.734375 47.3125 
Q 25.53125 47.3125 23.109375 46.609375 
Q 20.703125 45.90625 18.65625 44.09375 
Q 16.609375 42.28125 15.1875 39.171875 
Q 13.765625 36.078125 13.578125 31.296875 
z
" id="LiberationSans-65"/>
      <path d="M 6.6875 64.0625 
L 6.6875 72.46875 
L 15.484375 72.46875 
L 15.484375 64.0625 
z
M 6.6875 0 
L 6.6875 52.828125 
L 15.484375 52.828125 
L 15.484375 0 
z
" id="LiberationSans-69"/>
      <path d="M 27.046875 0.390625 
Q 25.046875 -0.140625 22.96875 -0.453125 
Q 20.90625 -0.78125 18.171875 -0.78125 
Q 7.625 -0.78125 7.625 11.1875 
L 7.625 46.4375 
L 1.515625 46.4375 
L 1.515625 52.828125 
L 7.953125 52.828125 
L 10.546875 64.65625 
L 16.40625 64.65625 
L 16.40625 52.828125 
L 26.171875 52.828125 
L 26.171875 46.4375 
L 16.40625 46.4375 
L 16.40625 13.09375 
Q 16.40625 9.28125 17.640625 7.734375 
Q 18.890625 6.203125 21.96875 6.203125 
Q 23.25 6.203125 24.4375 6.390625 
Q 25.640625 6.59375 27.046875 6.890625 
z
" id="LiberationSans-74"/>
      <path d="M 37.5 0 
L 37.5 33.5 
Q 37.5 37.359375 37.015625 39.9375 
Q 36.53125 42.53125 35.375 44.109375 
Q 34.234375 45.703125 32.375 46.359375 
Q 30.515625 47.015625 27.828125 47.015625 
Q 25.046875 47.015625 22.796875 45.921875 
Q 20.5625 44.828125 18.96875 42.75 
Q 17.390625 40.671875 16.53125 37.625 
Q 15.671875 34.578125 15.671875 30.609375 
L 15.671875 0 
L 6.9375 0 
L 6.9375 41.546875 
Q 6.9375 43.21875 6.90625 45.046875 
Q 6.890625 46.875 6.828125 48.5 
Q 6.78125 50.140625 6.734375 51.3125 
Q 6.6875 52.484375 6.640625 52.828125 
L 14.9375 52.828125 
Q 14.984375 52.59375 15.03125 51.515625 
Q 15.09375 50.4375 15.15625 49.046875 
Q 15.234375 47.65625 15.28125 46.21875 
Q 15.328125 44.78125 15.328125 43.796875 
L 15.484375 43.796875 
Q 16.65625 46.09375 18.015625 47.953125 
Q 19.390625 49.8125 21.21875 51.09375 
Q 23.046875 52.390625 25.40625 53.09375 
Q 27.78125 53.8125 30.90625 53.8125 
Q 36.921875 53.8125 40.40625 51.421875 
Q 43.890625 49.03125 45.265625 43.796875 
L 45.40625 43.796875 
Q 46.578125 46.09375 48.046875 47.953125 
Q 49.515625 49.8125 51.46875 51.09375 
Q 53.421875 52.390625 55.859375 53.09375 
Q 58.296875 53.8125 61.421875 53.8125 
Q 65.4375 53.8125 68.328125 52.734375 
Q 71.234375 51.65625 73.09375 49.40625 
Q 74.953125 47.171875 75.828125 43.625 
Q 76.703125 40.09375 76.703125 35.203125 
L 76.703125 0 
L 68.015625 0 
L 68.015625 33.5 
Q 68.015625 37.359375 67.53125 39.9375 
Q 67.046875 42.53125 65.890625 44.109375 
Q 64.75 45.703125 62.890625 46.359375 
Q 61.03125 47.015625 58.34375 47.015625 
Q 55.5625 47.015625 53.3125 45.96875 
Q 51.078125 44.921875 49.484375 42.875 
Q 47.90625 40.828125 47.046875 37.75 
Q 46.1875 34.671875 46.1875 30.609375 
L 46.1875 0 
z
" id="LiberationSans-6d"/>
     </defs>
     <g style="fill:#262626;" transform="translate(284.81015625 385.6934375)scale(0.11 -0.11)">
      <use xlink:href="#LiberationSans-74"/>
      <use x="27.783203125" xlink:href="#LiberationSans-69"/>
      <use x="50.0" xlink:href="#LiberationSans-6d"/>
      <use x="133.30078125" xlink:href="#LiberationSans-65"/>
     </g>
    </g>
   </g>
   <g id="matplotlib.axis_2">
    <g id="ytick_1">
     <g id="line2d_13">
      <path clip-path="url(#p02ce4bf24b)" d="M 72 324.72 
L 518.4 324.72 
" style="fill:none;stroke:#ffffff;stroke-linecap:round;"/>
     </g>
     <g id="line2d_14"/>
     <g id="line2d_15"/>
     <g id="text_6">
      <!-- 6980 -->
      <defs>
       <path d="M 51.265625 19.1875 
Q 51.265625 14.796875 49.875 11.109375 
Q 48.484375 7.421875 45.625 4.734375 
Q 42.78125 2.046875 38.328125 0.53125 
Q 33.890625 -0.984375 27.828125 -0.984375 
Q 21.78125 -0.984375 17.359375 0.53125 
Q 12.9375 2.046875 10.03125 4.703125 
Q 7.125 7.375 5.734375 11.0625 
Q 4.34375 14.75 4.34375 19.09375 
Q 4.34375 22.859375 5.484375 25.78125 
Q 6.640625 28.71875 8.5625 30.828125 
Q 10.5 32.953125 12.96875 34.25 
Q 15.4375 35.546875 18.0625 35.984375 
L 18.0625 36.1875 
Q 15.1875 36.859375 12.90625 38.375 
Q 10.640625 39.890625 9.09375 42.015625 
Q 7.5625 44.140625 6.75 46.71875 
Q 5.953125 49.3125 5.953125 52.203125 
Q 5.953125 55.8125 7.34375 59 
Q 8.734375 62.203125 11.46875 64.625 
Q 14.203125 67.046875 18.25 68.4375 
Q 22.3125 69.828125 27.640625 69.828125 
Q 33.25 69.828125 37.375 68.40625 
Q 41.5 67 44.203125 64.578125 
Q 46.921875 62.15625 48.234375 58.9375 
Q 49.5625 55.71875 49.5625 52.09375 
Q 49.5625 49.265625 48.75 46.671875 
Q 47.953125 44.09375 46.40625 41.96875 
Q 44.875 39.84375 42.59375 38.34375 
Q 40.328125 36.859375 37.359375 36.28125 
L 37.359375 36.078125 
Q 40.328125 35.59375 42.859375 34.296875 
Q 45.40625 33.015625 47.265625 30.890625 
Q 49.125 28.765625 50.1875 25.828125 
Q 51.265625 22.90625 51.265625 19.1875 
M 40.4375 51.609375 
Q 40.4375 54.203125 39.765625 56.34375 
Q 39.109375 58.5 37.59375 60.03125 
Q 36.078125 61.578125 33.640625 62.421875 
Q 31.203125 63.28125 27.640625 63.28125 
Q 24.171875 63.28125 21.78125 62.421875 
Q 19.390625 61.578125 17.84375 60.03125 
Q 16.3125 58.5 15.625 56.34375 
Q 14.9375 54.203125 14.9375 51.609375 
Q 14.9375 49.5625 15.46875 47.40625 
Q 16.015625 45.265625 17.421875 43.5 
Q 18.84375 41.75 21.328125 40.625 
Q 23.828125 39.5 27.734375 39.5 
Q 31.890625 39.5 34.40625 40.625 
Q 36.921875 41.75 38.25 43.5 
Q 39.59375 45.265625 40.015625 47.40625 
Q 40.4375 49.5625 40.4375 51.609375 
M 42.140625 20.015625 
Q 42.140625 22.515625 41.453125 24.828125 
Q 40.765625 27.15625 39.109375 28.9375 
Q 37.453125 30.71875 34.640625 31.8125 
Q 31.84375 32.90625 27.640625 32.90625 
Q 23.78125 32.90625 21.0625 31.8125 
Q 18.359375 30.71875 16.671875 28.90625 
Q 14.984375 27.09375 14.203125 24.71875 
Q 13.421875 22.359375 13.421875 19.828125 
Q 13.421875 16.65625 14.203125 14.03125 
Q 14.984375 11.421875 16.6875 9.546875 
Q 18.40625 7.671875 21.1875 6.640625 
Q 23.96875 5.609375 27.9375 5.609375 
Q 31.9375 5.609375 34.671875 6.640625 
Q 37.40625 7.671875 39.0625 9.546875 
Q 40.71875 11.421875 41.421875 14.078125 
Q 42.140625 16.75 42.140625 20.015625 
" id="LiberationSans-38"/>
      </defs>
      <g style="fill:#262626;" transform="translate(42.75625 327.3059375)scale(0.1 -0.1)">
       <use xlink:href="#LiberationSans-36"/>
       <use x="55.615234375" xlink:href="#LiberationSans-39"/>
       <use x="111.23046875" xlink:href="#LiberationSans-38"/>
       <use x="166.845703125" xlink:href="#LiberationSans-30"/>
      </g>
     </g>
    </g>
    <g id="ytick_2">
     <g id="line2d_16">
      <path clip-path="url(#p02ce4bf24b)" d="M 72 261.36 
L 518.4 261.36 
" style="fill:none;stroke:#ffffff;stroke-linecap:round;"/>
     </g>
     <g id="line2d_17"/>
     <g id="line2d_18"/>
     <g id="text_7">
      <!-- 7000 -->
      <g style="fill:#262626;" transform="translate(42.75625 263.9459375)scale(0.1 -0.1)">
       <use xlink:href="#LiberationSans-37"/>
       <use x="55.615234375" xlink:href="#LiberationSans-30"/>
       <use x="111.23046875" xlink:href="#LiberationSans-30"/>
       <use x="166.845703125" xlink:href="#LiberationSans-30"/>
      </g>
     </g>
    </g>
    <g id="ytick_3">
     <g id="line2d_19">
      <path clip-path="url(#p02ce4bf24b)" d="M 72 198 
L 518.4 198 
" style="fill:none;stroke:#ffffff;stroke-linecap:round;"/>
     </g>
     <g id="line2d_20"/>
     <g id="line2d_21"/>
     <g id="text_8">
      <!-- 7020 -->
      <g style="fill:#262626;" transform="translate(42.75625 200.5859375)scale(0.1 -0.1)">
       <use xlink:href="#LiberationSans-37"/>
       <use x="55.615234375" xlink:href="#LiberationSans-30"/>
       <use x="111.23046875" xlink:href="#LiberationSans-32"/>
       <use x="166.845703125" xlink:href="#LiberationSans-30"/>
      </g>
     </g>
    </g>
    <g id="ytick_4">
     <g id="line2d_22">
      <path clip-path="url(#p02ce4bf24b)" d="M 72 134.64 
L 518.4 134.64 
" style="fill:none;stroke:#ffffff;stroke-linecap:round;"/>
     </g>
     <g id="line2d_23"/>
     <g id="line2d_24"/>
     <g id="text_9">
      <!-- 7040 -->
      <g style="fill:#262626;" transform="translate(42.75625 137.2259375)scale(0.1 -0.1)">
       <use xlink:href="#LiberationSans-37"/>
       <use x="55.615234375" xlink:href="#LiberationSans-30"/>
       <use x="111.23046875" xlink:href="#LiberationSans-34"/>
       <use x="166.845703125" xlink:href="#LiberationSans-30"/>
      </g>
     </g>
    </g>
    <g id="ytick_5">
     <g id="line2d_25">
      <path clip-path="url(#p02ce4bf24b)" d="M 72 71.28 
L 518.4 71.28 
" style="fill:none;stroke:#ffffff;stroke-linecap:round;"/>
     </g>
     <g id="line2d_26"/>
     <g id="line2d_27"/>
     <g id="text_10">
      <!-- 7060 -->
      <g style="fill:#262626;" transform="translate(42.75625 73.8659375)scale(0.1 -0.1)">
       <use xlink:href="#LiberationSans-37"/>
       <use x="55.615234375" xlink:href="#LiberationSans-30"/>
       <use x="111.23046875" xlink:href="#LiberationSans-36"/>
       <use x="166.845703125" xlink:href="#LiberationSans-30"/>
      </g>
     </g>
    </g>
   </g>
   <g id="line2d_28">
    <path clip-path="url(#p02ce4bf24b)" d="M 72 131.168416 
L 72.223312 125.024818 
L 72.446623 111.390807 
L 72.669935 118.299369 
L 72.893247 120.897129 
L 73.116558 113.072169 
L 73.33987 118.299369 
L 73.563182 119.064334 
L 73.786493 102.649449 
L 74.009805 106.195287 
L 74.233117 94.824489 
L 74.456428 96.505851 
L 74.67974 102.649449 
L 74.903052 97.422249 
L 75.126363 104.330811 
L 75.349675 95.740887 
L 75.572986 102.649449 
L 75.796298 100.051689 
L 76.01961 106.012174 
L 76.242921 103.414414 
L 76.466233 106.928571 
L 76.689545 127.622578 
L 76.912856 128.570656 
L 77.136168 138.993376 
L 77.35948 132.084814 
L 77.582791 138.993376 
L 77.806103 139.909774 
L 78.029415 147.594435 
L 78.252726 141.591136 
L 78.476038 149.416096 
L 78.922661 139.909774 
L 79.145973 127.805691 
L 79.369285 132.084814 
L 79.592596 130.403451 
L 79.815908 125.207931 
L 80.03922 131.168416 
L 80.262531 133.766176 
L 80.485843 131.168416 
L 80.932466 112.155771 
L 81.155778 112.155771 
L 81.37909 113.837134 
L 81.602401 119.980731 
L 81.825713 119.064334 
L 82.049025 177.794763 
L 82.272336 196.452314 
L 82.495648 199.222053 
L 82.718959 182.838849 
L 82.942271 181.890771 
L 83.165583 205.042238 
L 83.388894 211.584573 
L 83.612206 183.065606 
L 83.835518 199.480491 
L 84.058829 196.882731 
L 84.282141 203.759613 
L 84.505453 202.078251 
L 84.728764 187.376409 
L 84.952076 202.843215 
L 85.175388 209.751777 
L 85.398699 220.767482 
L 85.622011 213.125636 
L 85.845323 226.146116 
L 86.068634 218.321156 
L 86.291946 219.269234 
L 86.515258 225.229718 
L 86.738569 217.404758 
L 86.961881 205.300676 
L 87.185193 209.579798 
L 87.408504 200.989874 
L 87.631816 204.524577 
L 87.855128 214.806998 
L 88.078439 212.177558 
L 88.301751 211.26116 
L 88.525063 221.532446 
L 88.748374 206.982038 
L 88.971686 206.982038 
L 89.641621 192.248516 
L 90.088244 181.825796 
L 90.311556 181.825796 
L 90.534867 193.164914 
L 90.981491 197.475716 
L 91.204802 206.03396 
L 91.428114 206.798924 
L 91.651426 206.798924 
L 91.874737 207.715322 
L 92.098049 204.201164 
L 92.767984 188.702678 
L 92.991296 194.694842 
L 93.214607 195.61124 
L 93.437919 188.702678 
L 93.661231 191.149004 
L 93.884542 187.78628 
L 94.107854 173.052758 
L 94.331166 172.13636 
L 94.554477 166.175876 
L 94.777789 170.454998 
L 95.224412 144.12392 
L 95.447724 150.084404 
L 95.671036 159.590726 
L 95.894347 160.538804 
L 96.117659 154.54664 
L 96.34097 157.909364 
L 96.564282 154.54664 
L 96.787594 152.865278 
L 97.010905 154.54664 
L 97.234217 152.865278 
L 97.457529 158.857442 
L 97.68084 156.228002 
L 97.904152 148.403042 
L 98.350775 166.499289 
L 98.574087 157.909364 
L 98.797399 154.395206 
L 99.02071 140.426649 
L 99.244022 145.622169 
L 99.467334 142.259444 
L 99.690645 158.674329 
L 99.913957 162.953451 
L 100.137269 162.953451 
L 100.36058 155.128491 
L 100.583892 160.355691 
L 100.807204 156.076569 
L 101.253827 161.272089 
L 101.477139 162.220166 
L 101.923762 146.570246 
L 102.147074 149.168006 
L 102.370385 143.940806 
L 102.593697 146.570246 
L 103.04032 141.343046 
L 103.486943 156.076569 
L 103.710255 153.447129 
L 103.933567 152.530731 
L 104.38019 156.809853 
L 104.826813 153.295695 
L 105.050125 154.977057 
L 105.273437 157.574817 
L 105.496748 154.977057 
L 105.943372 158.491215 
L 106.166683 158.491215 
L 106.613307 144.522657 
L 106.836618 146.215154 
L 107.05993 150.525956 
L 107.506553 138.390194 
L 107.729865 140.243535 
L 107.953177 144.522657 
L 108.3998 140.243535 
L 108.623112 141.159933 
L 108.846423 140.243535 
L 109.293047 154.805078 
L 109.516358 153.123716 
L 109.73967 150.525956 
L 109.962981 150.525956 
L 110.186293 155.721476 
L 110.409605 153.123716 
L 110.632916 154.040114 
L 111.07954 161.865074 
L 111.302851 185.339954 
L 111.526163 180.144434 
L 111.972786 200.073476 
L 112.41941 206.982038 
L 112.642721 206.982038 
L 113.312656 194.101857 
L 113.535968 197.616015 
L 113.982591 210.496196 
L 114.205903 200.073476 
L 114.429215 203.619314 
L 114.652526 202.671236 
L 114.875838 200.073476 
L 115.322461 183.647457 
L 115.545773 191.472417 
L 115.769085 194.101857 
L 115.992396 200.989874 
L 116.215708 199.297377 
L 116.43902 203.619314 
L 116.662331 196.699617 
L 116.885643 195.018255 
L 117.108954 188.109693 
L 117.555578 206.389053 
L 118.002201 193.520006 
L 118.225513 191.655531 
L 118.448824 175.240646 
L 118.672136 177.870086 
L 118.895448 188.292806 
L 119.118759 188.292806 
L 119.342071 182.149209 
L 119.565383 189.974169 
L 119.788694 189.974169 
L 120.012006 186.611444 
L 120.235318 190.890566 
L 120.458629 189.974169 
L 120.905253 180.467846 
L 121.128564 183.065606 
L 121.351876 187.376409 
L 121.575188 184.013684 
L 122.021811 191.655531 
L 122.245123 200.245455 
L 122.468434 190.739133 
L 122.691746 192.420495 
L 122.915058 192.420495 
L 123.138369 189.791055 
L 123.584992 198.564093 
L 123.808304 209.751777 
L 124.031616 203.759613 
L 124.254927 201.344966 
L 124.478239 196.117766 
L 124.701551 200.396889 
L 124.924862 197.799129 
L 125.148174 187.527842 
L 125.371486 192.571929 
L 125.594797 193.336893 
L 126.041421 201.161853 
L 126.264732 201.161853 
L 126.488044 194.253291 
L 126.711356 195.934653 
L 126.934667 190.739133 
L 127.157979 181.232811 
L 127.381291 179.551449 
L 127.604602 189.057771 
L 127.827914 189.057771 
L 128.051226 183.065606 
L 128.274537 189.974169 
L 128.497849 190.739133 
L 128.721161 187.376409 
L 128.944472 186.611444 
L 129.167784 192.571929 
L 129.391096 193.520006 
L 129.614407 188.292806 
L 129.837719 168.515198 
L 130.061031 161.638316 
L 130.284342 160.862217 
L 130.954277 91.720203 
L 131.177589 107.370123 
L 131.4009 103.641171 
L 131.624212 101.959809 
L 132.070835 84.994755 
L 132.294147 117.458295 
L 132.517459 130.845003 
L 132.74077 135.307239 
L 133.187394 155.818131 
L 133.410705 136.29896 
L 133.634017 154.395206 
L 133.857329 160.355691 
L 134.08064 171.543375 
L 134.303952 171.371396 
L 134.527264 196.009976 
L 134.973887 174.399572 
L 135.197199 149.426444 
L 135.42051 147.745082 
L 135.643822 168.255974 
L 135.867134 155.386928 
L 136.090445 160.614128 
L 136.313757 157.251404 
L 136.537069 166.757726 
L 136.76038 185.587256 
L 136.983692 234.401492 
L 137.207004 222.858715 
L 137.430315 226.404553 
L 137.653627 219.484856 
L 137.876938 221.349332 
L 138.323562 236.082854 
L 138.546873 231.038768 
L 138.770185 233.636528 
L 138.993497 232.1066 
L 139.216808 239.015162 
L 139.44012 233.787962 
L 139.663432 207.715322 
L 140.110055 233.636528 
L 140.333367 228.409328 
L 140.556678 236.999252 
L 140.77999 240.51341 
L 141.003302 235.31789 
L 141.226613 236.234288 
L 141.449925 231.038768 
L 141.896548 240.361976 
L 142.11986 237.764216 
L 142.343172 240.361976 
L 142.566483 248.779921 
L 143.013107 231.631753 
L 143.236418 230.855654 
L 143.45973 224.712056 
L 143.683042 229.939256 
L 143.906353 228.257894 
L 144.129665 230.855654 
L 144.352976 228.257894 
L 144.576288 227.49293 
L 144.7996 233.453414 
L 145.022911 232.72013 
L 145.246223 236.082854 
L 145.469535 241.278374 
L 145.692846 236.082854 
L 145.916158 242.194772 
L 146.13947 235.134776 
L 146.362781 236.999252 
L 146.586093 234.401492 
L 146.809405 235.31789 
L 147.702651 251.377681 
L 147.925963 248.014957 
L 148.149275 248.931355 
L 148.372586 247.098559 
L 148.595898 241.871359 
L 148.81921 252.142646 
L 149.042521 254.740406 
L 149.265833 244.500799 
L 149.489145 241.138075 
L 149.712456 250.612717 
L 149.935768 248.014957 
L 150.15908 248.014957 
L 150.382391 253.242157 
L 150.605703 249.696319 
L 150.829015 253.975441 
L 151.052326 254.923519 
L 151.275638 263.481764 
L 151.498949 258.286244 
L 151.722261 240.954961 
L 151.945573 240.954961 
L 152.168884 246.182161 
L 152.392196 242.636324 
L 152.838819 226.070006 
L 153.062131 233.894966 
L 153.285443 234.046399 
L 153.508754 239.273599 
L 153.732066 253.242157 
L 153.955378 238.680614 
L 154.178689 245.557496 
L 154.402001 246.505574 
L 154.625313 249.103334 
L 154.848624 248.186936 
L 155.071936 249.879433 
L 155.295248 258.609656 
L 155.518559 245.557496 
L 155.741871 249.879433 
L 156.188494 251.560795 
L 156.411806 251.560795 
L 156.635118 244.652233 
L 156.858429 242.959736 
L 157.081741 247.249993 
L 157.305053 245.557496 
L 157.528364 228.257894 
L 157.751676 234.401492 
L 158.198299 231.772052 
L 158.421611 239.597012 
L 158.644922 237.91565 
L 158.868234 240.51341 
L 159.538169 235.31789 
L 159.984792 240.51341 
L 160.208104 237.91565 
L 160.654727 227.49293 
L 160.878039 225.811568 
L 161.101351 236.082854 
L 161.324662 236.082854 
L 161.547974 230.09069 
L 161.771286 236.082854 
L 161.994597 236.082854 
L 162.217909 234.401492 
L 162.441221 235.31789 
L 162.664532 239.597012 
L 162.887844 231.955166 
L 163.334467 234.552926 
L 163.557779 234.552926 
L 164.004402 236.234288 
L 164.227714 232.871564 
L 164.451026 234.552926 
L 164.674337 225.994682 
L 164.897649 227.827478 
L 165.12096 219.409533 
L 165.344272 220.174497 
L 165.790895 222.772257 
L 166.014207 218.493135 
L 166.237519 219.269234 
L 166.46083 214.042034 
L 166.684142 211.444274 
L 166.907454 212.349537 
L 167.130765 217.576737 
L 167.354077 219.269234 
L 167.577389 219.08612 
L 167.8007 220.767482 
L 168.024012 231.955166 
L 168.247324 229.357406 
L 168.470635 228.592442 
L 168.693947 231.955166 
L 168.917259 227.676044 
L 169.14057 231.955166 
L 169.363882 238.832048 
L 169.587194 237.91565 
L 169.810505 238.832048 
L 170.257129 238.832048 
L 170.48044 237.91565 
L 170.703752 240.51341 
L 171.150375 249.103334 
L 171.373687 246.505574 
L 171.596998 253.56557 
L 171.82031 233.636528 
L 172.043622 233.636528 
L 172.266933 228.409328 
L 172.490245 231.955166 
L 172.713557 224.130206 
L 173.16018 232.72013 
L 173.383492 232.72013 
L 173.606803 239.597012 
L 173.830115 231.772052 
L 174.053427 231.038768 
L 174.50005 233.636528 
L 174.723362 231.038768 
L 174.946673 226.727966 
L 175.169985 218.169722 
L 175.393297 217.221644 
L 175.616608 217.221644 
L 175.83992 212.026124 
L 176.063232 181.642682 
L 176.286543 175.499084 
L 176.509855 181.642682 
L 176.733167 181.642682 
L 176.956478 173.052758 
L 177.17979 179.96132 
L 177.403102 179.96132 
L 177.849725 165.992762 
L 178.073037 139.327137 
L 178.296348 136.697697 
L 178.51966 135.964413 
L 178.742971 139.327137 
L 178.966283 124.593615 
L 179.189595 137.645775 
L 179.412906 140.243535 
L 179.636218 141.019634 
L 179.85953 144.522657 
L 180.082841 138.390194 
L 180.306153 114.322329 
L 180.752776 111.724569 
L 180.976088 120.314493 
L 181.1994 116.951769 
L 181.422711 110.808171 
L 181.646023 116.003691 
L 181.869335 87.516404 
L 182.092646 86.568326 
L 182.315958 76.32872 
L 182.53927 78.743366 
L 182.762581 111.541455 
L 182.985893 107.445446 
L 183.209205 116.951769 
L 183.432516 115.270406 
L 183.655828 98.090558 
L 183.87914 95.492798 
L 184.102451 85.986476 
L 184.325763 109.461356 
L 184.549075 116.510217 
L 184.995698 103.641171 
L 185.21901 109.633335 
L 185.442321 123.429914 
L 185.665633 122.513516 
L 185.888944 124.194878 
L 186.112256 113.007194 
L 186.335568 124.194878 
L 186.782191 133.7012 
L 187.005503 131.254874 
L 187.228814 123.429914 
L 187.452126 128.657114 
L 187.675438 127.709036 
L 187.898749 126.027674 
L 188.122061 120.056055 
L 188.568684 126.027674 
L 188.791996 124.335177 
L 189.015308 121.737417 
L 189.238619 123.429914 
L 189.461931 126.027674 
L 189.685243 118.202714 
L 189.908554 122.513516 
L 190.131866 107.779994 
L 190.355178 104.406135 
L 190.578489 106.270611 
L 190.801801 93.401565 
L 191.025113 89.855727 
L 191.248424 89.855727 
L 191.471736 95.082927 
L 191.695048 94.134849 
L 192.141671 103.641171 
L 192.364982 116.510217 
L 192.588294 113.007194 
L 192.811606 114.828855 
L 193.034917 112.231095 
L 193.258229 111.314697 
L 193.481541 112.231095 
L 193.704852 120.832154 
L 193.928164 111.314697 
L 194.151476 116.510217 
L 194.374787 113.912457 
L 194.598099 103.641171 
L 194.821411 103.641171 
L 195.044722 101.043411 
L 195.268034 82.947165 
L 195.491346 93.401565 
L 195.937969 105.505647 
L 196.161281 102.142923 
L 196.607904 80.672818 
L 196.831216 85.728039 
L 197.054527 77.169795 
L 197.277839 91.871637 
L 197.501151 82.365315 
L 197.724462 81.620896 
L 197.947774 86.816416 
L 198.171086 86.816416 
L 198.394397 92.960014 
L 198.617709 84.401769 
L 198.841021 92.226729 
L 199.064332 125.207931 
L 199.510955 119.980731 
L 199.734267 140.674738 
L 199.957579 149.416096 
L 200.18089 150.192195 
L 200.404202 141.450837 
L 200.627514 164.149618 
L 200.850825 156.324658 
L 201.074137 161.551858 
L 201.297449 158.017155 
L 201.52076 160.614915 
L 201.744072 148.499698 
L 201.967384 152.789955 
L 202.190695 163.244355 
L 202.414007 152.961934 
L 202.637319 151.280571 
L 202.86063 157.241056 
L 203.083942 153.878331 
L 203.307254 163.384654 
L 203.530565 165.066016 
L 203.753877 177.201778 
L 203.977189 162.468256 
L 204.423812 203.274418 
L 204.870435 219.517323 
L 205.093747 248.036289 
L 205.317059 241.892691 
L 205.54037 240.211329 
L 205.763682 239.446365 
L 205.986993 259.375407 
L 206.656928 245.406849 
L 206.88024 254.913171 
L 207.103552 241.892691 
L 207.550175 257.542611 
L 207.773487 264.419493 
L 207.996798 262.738131 
L 208.22011 268.881729 
L 208.443422 281.933889 
L 208.666733 270.563091 
L 208.890045 271.328055 
L 209.113357 261.821733 
L 209.336668 269.646693 
L 209.55998 285.124634 
L 210.006603 268.730295 
L 210.229915 273.009417 
L 210.453227 269.474714 
L 210.89985 274.701914 
L 211.123162 280.834377 
L 211.346473 267.048933 
L 211.569785 271.328055 
L 211.793097 263.503095 
L 212.23972 278.236617 
L 212.463032 274.701914 
L 212.686343 273.009417 
L 213.132966 277.299674 
L 213.356278 278.064638 
L 213.57959 278.064638 
L 214.026213 259.051994 
L 214.472836 272.837438 
L 214.91946 263.331116 
L 215.366083 273.602402 
L 215.589395 288.335924 
L 215.812706 278.829602 
L 216.25933 289.069209 
L 216.482641 346.441689 
L 217.152576 340.556528 
L 217.375888 327.870596 
L 217.5992 333.83108 
L 217.822511 312.220676 
L 218.045823 313.902038 
L 218.269135 311.304278 
L 218.492446 329.368844 
L 218.715758 327.687482 
L 218.93907 328.452446 
L 219.162381 325.854686 
L 219.609005 344.83565 
L 220.055628 332.914682 
L 220.278939 338.110202 
L 220.502251 339.791564 
L 220.725563 346.700126 
L 220.948874 350.06285 
L 221.172186 342.421004 
L 221.395498 344.102366 
L 221.618809 349.297886 
L 221.842121 346.700126 
L 222.288744 334.596044 
L 222.512056 341.472926 
L 222.735368 338.875166 
L 222.958679 341.472926 
L 223.181991 342.23789 
L 223.628614 312.037562 
L 223.851926 323.225246 
L 224.298549 327.536048 
L 224.521861 297.152606 
L 224.745173 310.204766 
L 224.968484 313.718924 
L 225.191796 309.439802 
L 225.415108 313.718924 
L 225.638419 315.400286 
L 225.861731 315.400286 
L 226.085043 313.718924 
L 226.531666 318.946124 
L 226.754977 323.225246 
L 226.978289 323.225246 
L 227.201601 320.627486 
L 227.648224 299.017082 
L 228.094847 312.802526 
L 228.318159 308.523404 
L 228.541471 320.627486 
L 228.764782 325.671572 
L 228.988094 327.352934 
L 229.211406 318.76301 
L 229.434717 316.16525 
L 229.658029 321.39245 
L 229.881341 318.76301 
L 230.104652 314.667002 
L 230.327964 307.75844 
L 230.551276 295.654358 
L 230.774587 297.487154 
L 230.997899 298.252118 
L 231.221211 295.794657 
L 231.444522 296.570756 
L 231.667834 307.941554 
L 231.891146 307.941554 
L 232.114457 309.622916 
L 232.337769 301.797956 
L 232.561081 307.941554 
L 232.784392 297.659133 
L 233.007704 297.659133 
L 233.231016 284.606973 
L 233.454327 281.092815 
L 233.677639 283.690575 
L 233.90095 271.586493 
L 234.124262 269.140166 
L 234.347574 272.502891 
L 234.570885 264.861044 
L 234.794197 263.761533 
L 235.017509 256.088006 
L 235.464132 271.586493 
L 235.687444 270.638415 
L 235.910755 266.359293 
L 236.134067 279.411453 
L 236.357379 275.865615 
L 236.58069 265.442895 
L 237.027314 283.690575 
L 237.473937 277.730091 
L 237.697249 283.690575 
L 238.143872 283.690575 
L 238.367184 281.092815 
L 238.590495 281.092815 
L 238.813807 276.048729 
L 239.037119 280.327851 
L 239.483742 276.048729 
L 239.707054 276.782013 
L 240.153677 273.419289 
L 240.376988 275.100651 
L 240.823612 269.140166 
L 241.046923 262.996569 
L 241.270235 241.203051 
L 241.493547 247.346649 
L 241.716858 256.852971 
L 241.94017 245.665286 
L 242.386793 268.957053 
L 242.610105 281.092815 
L 242.833417 278.463375 
L 243.056728 281.092815 
L 243.28004 279.411453 
L 243.949975 288.917775 
L 244.173287 288.917775 
L 244.396598 278.463375 
L 244.61991 282.009213 
L 244.843222 275.100651 
L 245.289845 271.737926 
L 245.513157 279.562886 
L 245.736468 276.048729 
L 245.95978 276.048729 
L 246.183092 280.327851 
L 246.406403 288.152811 
L 246.629715 289.069209 
L 246.853027 273.602402 
L 247.076338 269.32328 
L 247.29965 260.733356 
L 247.522961 265.012478 
L 247.746273 262.231604 
L 247.969585 253.67336 
L 248.192896 252.725282 
L 248.416208 253.67336 
L 248.63952 256.088006 
L 248.862831 255.354722 
L 249.086143 256.27112 
L 249.309455 256.27112 
L 249.532766 242.485676 
L 249.756078 239.111817 
L 249.97939 240.804314 
L 250.202701 245.083436 
L 250.426013 245.083436 
L 250.649325 247.681196 
L 250.872636 243.402074 
L 251.095948 245.999834 
L 251.31926 245.083436 
L 251.765883 237.258476 
L 252.435818 255.354722 
L 252.65913 253.67336 
L 253.329065 242.485676 
L 253.552376 251.04392 
L 253.775688 248.44616 
L 254.445623 255.354722 
L 254.892246 255.354722 
L 255.115558 251.991998 
L 255.338869 252.725282 
L 255.785493 250.127522 
L 256.008804 259.633844 
L 256.455428 255.354722 
L 256.678739 269.905131 
L 257.125363 276.782013 
L 257.348674 292.431933 
L 257.571986 283.873689 
L 257.795298 289.834173 
L 258.018609 288.917775 
L 258.241921 283.690575 
L 258.465233 283.690575 
L 258.688544 285.371937 
L 258.911856 293.972996 
L 259.135168 293.972996 
L 259.358479 282.602198 
L 259.581791 280.920836 
L 259.805103 272.319777 
L 260.028414 277.374998 
L 260.251726 285.964922 
L 260.475038 282.602198 
L 260.698349 287.829398 
L 260.921661 267.868676 
L 261.368284 278.323076 
L 261.591596 268.816754 
L 261.814907 272.179478 
L 262.261531 285.964922 
L 262.484842 277.374998 
L 262.708154 278.323076 
L 263.154777 281.6858 
L 263.378089 280.004438 
L 263.824712 280.004438 
L 264.048024 275.693636 
L 264.494647 284.466674 
L 264.717959 291.343556 
L 264.941271 292.291634 
L 265.387894 294.889394 
L 265.611206 291.343556 
L 265.834517 291.343556 
L 266.057829 280.920836 
L 266.281141 280.920836 
L 266.504452 274.949217 
L 266.727764 279.239474 
L 267.174387 302.379806 
L 267.397699 288.745796 
L 267.621011 286.148036 
L 267.844322 293.024918 
L 268.067634 291.343556 
L 268.290945 286.288335 
L 268.514257 274.012274 
L 268.737569 278.323076 
L 268.96088 276.782013 
L 269.184192 283.690575 
L 269.630815 263.503095 
L 270.077439 247.088211 
L 270.30075 244.490451 
L 270.524062 243.725487 
L 270.747374 245.406849 
L 271.193997 278.388051 
L 271.417309 271.511169 
L 271.64062 285.296613 
L 271.863932 287.161089 
L 272.087244 276.706689 
L 272.310555 272.427567 
L 272.533867 279.336129 
L 272.757179 275.973405 
L 272.98049 282.850287 
L 273.203802 270.563091 
L 273.427114 270.563091 
L 273.650425 251.399013 
L 273.873737 260.905335 
L 274.097049 255.678135 
L 274.32036 260.905335 
L 274.543672 263.503095 
L 274.766983 251.399013 
L 274.990295 254.761737 
L 275.213607 253.996773 
L 275.436918 234.801015 
L 275.66023 245.999834 
L 276.106853 217.329434 
L 276.330165 197.217278 
L 276.553477 193.854554 
L 276.776788 197.389257 
L 277.0001 199.081754 
L 277.223412 196.452314 
L 277.446723 195.707895 
L 277.670035 178.376613 
L 278.116658 204.277274 
L 278.33997 199.987017 
L 278.563282 200.903415 
L 279.009905 193.078455 
L 279.233217 193.078455 
L 279.67984 176.695251 
L 280.349775 195.707895 
L 281.01971 229.098969 
L 281.243022 221.274009 
L 281.466333 240.114674 
L 281.689645 232.461693 
L 282.806203 245.482173 
L 283.029515 250.537394 
L 283.252826 243.649377 
L 283.476138 241.019937 
L 283.922761 228.150891 
L 284.146073 233.378091 
L 284.369385 235.975851 
L 284.592696 234.143055 
L 284.816008 235.059453 
L 285.262631 241.203051 
L 285.485943 235.242566 
L 285.709255 236.923929 
L 285.932566 227.417606 
L 286.155878 223.871769 
L 286.37919 231.513615 
L 286.602501 226.469529 
L 286.825813 230.780331 
L 287.272436 223.106804 
L 287.495748 213.783596 
L 287.71906 214.699994 
L 287.942371 214.699994 
L 288.165683 217.329434 
L 288.388994 213.007497 
L 288.612306 214.699994 
L 288.835618 228.517118 
L 289.282241 215.636937 
L 289.505553 214.699994 
L 289.728864 220.692158 
L 289.952176 220.692158 
L 290.175488 222.190406 
L 290.622111 197.217278 
L 290.845423 209.32136 
L 291.068734 203.177762 
L 291.292046 201.4964 
L 291.515358 204.859124 
L 291.738669 203.177762 
L 291.961981 209.169926 
L 292.185293 208.404962 
L 292.408604 213.449049 
L 292.631916 212.684084 
L 292.855228 218.827682 
L 293.078539 218.827682 
L 293.301851 217.911284 
L 293.748474 209.504474 
L 293.971786 210.237758 
L 294.195098 210.237758 
L 294.418409 208.556396 
L 294.641721 212.867198 
L 294.865033 205.042238 
L 295.088344 207.639998 
L 295.311656 204.12584 
L 295.758279 202.261364 
L 296.428214 208.404962 
L 296.651526 212.684084 
L 296.874837 209.32136 
L 297.098149 210.237758 
L 297.321461 213.600482 
L 297.544772 212.684084 
L 297.768084 211.002722 
L 297.991396 213.600482 
L 298.214707 213.600482 
L 298.438019 222.190406 
L 298.661331 215.281844 
L 298.884642 217.911284 
L 299.107954 225.736244 
L 299.331266 221.425442 
L 299.554577 221.425442 
L 299.777889 217.911284 
L 300.224512 230.597217 
L 300.447824 178.279958 
L 300.671136 167.092274 
L 300.894447 173.224737 
L 301.117759 166.316175 
L 301.341071 178.451937 
L 301.564382 181.049697 
L 301.787694 181.049697 
L 302.011006 186.276897 
L 302.457629 184.240442 
L 302.68094 202.153574 
L 302.904252 208.890157 
L 303.127564 202.153574 
L 303.350875 204.783014 
L 303.574187 211.659896 
L 303.797499 213.352393 
L 304.02081 222.858715 
L 304.244122 223.623679 
L 304.467434 215.981833 
L 304.690745 218.579593 
L 304.914057 215.981833 
L 305.137369 215.033755 
L 305.36068 228.085915 
L 305.583992 216.887096 
L 305.807304 220.260955 
L 306.253927 231.631753 
L 306.477239 216.887096 
L 306.70055 216.122132 
L 306.923862 214.289336 
L 307.147174 221.942317 
L 307.370485 221.025919 
L 307.593797 210.754633 
L 307.817109 213.352393 
L 308.04042 209.978534 
L 308.487044 219.484856 
L 308.710355 220.432934 
L 308.933667 212.607974 
L 309.156978 229.939256 
L 309.38029 226.404553 
L 309.603602 226.404553 
L 309.826913 228.257894 
L 310.050225 223.030694 
L 310.273537 223.947092 
L 310.496848 213.524372 
L 310.72016 212.759408 
L 310.943472 215.388848 
L 311.166783 221.349332 
L 311.390095 217.986608 
L 311.836718 220.584368 
L 312.06003 212.759408 
L 312.283342 214.44077 
L 312.729965 226.404553 
L 312.953277 223.030694 
L 313.176588 228.257894 
L 313.3999 225.628454 
L 313.623212 225.628454 
L 314.069835 217.803494 
L 314.293147 219.484856 
L 314.516458 222.114296 
L 314.73977 217.803494 
L 314.963082 216.122132 
L 315.186393 225.628454 
L 315.633017 221.349332 
L 315.856328 225.628454 
L 316.07964 225.628454 
L 316.302951 224.712056 
L 316.526263 225.628454 
L 316.749575 229.002313 
L 317.196198 218.751572 
L 317.41951 218.751572 
L 317.642821 216.122132 
L 317.866133 217.803494 
L 318.089445 220.432934 
L 318.536068 211.84301 
L 318.75938 214.44077 
L 318.982691 218.751572 
L 319.429315 221.349332 
L 319.652626 221.349332 
L 319.875938 220.432934 
L 320.09925 217.07021 
L 320.322561 211.84301 
L 320.545873 210.926612 
L 320.769185 206.61581 
L 320.992496 211.84301 
L 321.215808 212.607974 
L 321.43912 221.177353 
L 321.885743 222.858715 
L 322.109055 212.607974 
L 322.332366 215.205734 
L 322.778989 229.767277 
L 323.002301 234.811364 
L 323.225613 231.448639 
L 323.672236 233.130001 
L 323.895548 232.946888 
L 324.118859 221.942317 
L 324.342171 231.448639 
L 324.565483 233.130001 
L 324.788794 235.727761 
L 325.012106 234.046399 
L 325.235418 227.169517 
L 325.458729 229.767277 
L 326.128664 229.767277 
L 326.351976 238.357201 
L 326.575288 236.675839 
L 326.798599 238.357201 
L 327.021911 229.767277 
L 327.245223 227.169517 
L 327.468534 232.365037 
L 327.691846 231.448639 
L 327.915158 234.811364 
L 328.138469 235.727761 
L 328.361781 241.719926 
L 328.585093 235.727761 
L 328.808404 235.727761 
L 329.031716 237.409124 
L 329.255028 235.727761 
L 329.478339 229.767277 
L 329.701651 220.260955 
L 329.924962 226.221439 
L 330.148274 228.850879 
L 330.371586 228.850879 
L 330.594897 215.981833 
L 330.818209 221.025919 
L 331.041521 220.260955 
L 331.264832 220.260955 
L 331.711456 227.169517 
L 331.934767 226.221439 
L 332.158079 234.046399 
L 332.381391 233.130001 
L 332.604702 231.448639 
L 332.828014 223.623679 
L 333.051326 238.174088 
L 333.274637 229.584164 
L 333.497949 232.213604 
L 333.721261 245.815934 
L 333.944572 289.812841 
L 334.391196 311.681683 
L 334.614507 307.402561 
L 334.837819 329.961043 
L 335.061131 320.271607 
L 335.284442 303.123439 
L 335.507754 316.725769 
L 335.731066 312.446647 
L 335.954377 315.809371 
L 336.177689 312.263533 
L 336.401001 312.263533 
L 336.624312 290.653129 
L 336.847624 301.840813 
L 337.070935 300.159451 
L 337.294247 293.282569 
L 337.74087 299.243053 
L 337.964182 296.645293 
L 338.187494 291.418093 
L 338.410805 278.365933 
L 338.634117 278.365933 
L 338.857429 266.261851 
L 339.08074 269.042725 
L 339.304052 275.003209 
L 339.750675 263.815525 
L 339.973987 268.126327 
L 340.197299 269.042725 
L 340.42061 274.086811 
L 340.643922 272.405449 
L 340.867234 274.086811 
L 341.090545 273.321847 
L 341.313857 275.951287 
L 341.537169 276.684571 
L 341.76048 269.807689 
L 341.983792 271.489051 
L 342.207104 258.620005 
L 342.430415 267.178249 
L 342.653727 280.995373 
L 342.877039 282.676735 
L 343.10035 278.365933 
L 343.323662 292.927476 
L 343.770285 274.086811 
L 343.993597 282.676735 
L 344.216908 286.966992 
L 344.44022 286.966992 
L 344.663532 293.875554 
L 345.110155 275.003209 
L 345.556778 290.501695 
L 345.78009 292.194192 
L 346.226713 302.757211 
L 346.450025 291.601207 
L 346.673337 288.971767 
L 346.896648 292.334491 
L 347.11996 292.334491 
L 347.343272 294.963931 
L 347.566583 292.334491 
L 347.789895 296.473314 
L 348.013207 296.2902 
L 348.45983 289.564752 
L 348.683142 289.564752 
L 348.906453 275.596194 
L 349.129765 270.400674 
L 349.576388 255.074167 
L 349.7997 256.755529 
L 350.023012 254.309203 
L 350.246323 261.400879 
L 350.469635 247.583754 
L 350.692946 268.784287 
L 350.916258 269.549251 
L 351.13957 247.497296 
L 351.362881 256.098355 
L 351.586193 274.346035 
L 352.032816 262.241953 
L 352.256128 263.33033 
L 352.47944 262.565366 
L 352.926063 259.202641 
L 353.372686 264.581275 
L 353.595998 253.242157 
L 354.042621 261.800401 
L 354.265933 261.800401 
L 354.489245 264.429841 
L 354.712556 273.936164 
L 354.935868 277.450321 
L 355.15918 275.768959 
L 355.382491 280.813046 
L 355.605803 266.111204 
L 355.829115 267.027601 
L 356.052426 265.163126 
L 356.275738 252.142646 
L 356.49905 253.059044 
L 356.722361 253.059044 
L 356.945673 254.923519 
L 357.168984 253.242157 
L 357.392296 253.242157 
L 357.615608 256.421768 
L 358.062231 266.693054 
L 358.285543 269.290814 
L 358.732166 260.549456 
L 358.955478 256.270334 
L 359.178789 262.241953 
L 359.402101 255.50537 
L 359.625413 265.011692 
L 359.848724 267.609452 
L 360.072036 264.246728 
L 360.295348 263.33033 
L 360.518659 270.207212 
L 360.741971 262.565366 
L 360.965283 267.792566 
L 361.188594 259.019528 
L 361.411906 260.884004 
L 361.635218 257.338166 
L 361.858529 259.019528 
L 362.081841 256.421768 
L 362.305153 260.70089 
L 362.528464 261.648968 
L 362.751776 254.740406 
L 362.975088 226.221439 
L 363.198399 227.309816 
L 363.421711 229.174292 
L 363.645023 228.409328 
L 363.868334 221.532446 
L 364.091646 222.26573 
L 364.761581 209.062136 
L 364.984892 215.981833 
L 365.208204 218.579593 
L 365.431516 224.540077 
L 365.654827 224.540077 
L 365.878139 230.683675 
L 366.101451 223.806793 
L 366.324762 221.177353 
L 366.548074 225.488155 
L 366.771386 222.858715 
L 367.218009 230.532241 
L 367.887944 221.942317 
L 368.111256 217.663195 
L 368.334567 224.540077 
L 368.557879 225.488155 
L 369.004502 222.858715 
L 369.227814 229.002313 
L 369.451126 230.683675 
L 369.674437 226.404553 
L 369.897749 233.313115 
L 370.121061 232.365037 
L 370.567684 215.981833 
L 370.790995 224.540077 
L 371.014307 225.488155 
L 371.46093 213.524372 
L 371.684242 217.803494 
L 371.907554 216.122132 
L 372.130865 217.986608 
L 372.354177 218.751572 
L 372.577489 204.01805 
L 373.024112 194.511728 
L 373.470735 202.336688 
L 373.917359 138.82061 
L 374.14067 154.47053 
L 374.363982 162.29549 
L 374.587294 158.749652 
L 375.033917 188.961115 
L 375.257229 181.136155 
L 375.48054 178.538395 
L 375.703852 180.953041 
L 375.927164 174.809444 
L 376.150475 185.08073 
L 376.373787 179.120246 
L 376.597099 169.43081 
L 377.043722 138.895934 
L 377.267034 105.149768 
L 377.713657 124.162412 
L 377.936968 124.022113 
L 378.16028 136.126195 
L 378.383592 130.154576 
L 378.606903 118.966892 
L 378.830215 124.022113 
L 379.053527 132.752336 
L 379.276838 109.277456 
L 379.50015 108.372193 
L 379.723462 90.857797 
L 379.946773 95.136919 
L 380.170085 106.324603 
L 380.393397 104.643241 
L 380.616708 108.954043 
L 380.84002 101.129083 
L 381.063332 98.348209 
L 381.286643 103.726843 
L 381.509955 90.674683 
L 381.733267 95.136919 
L 381.956578 95.136919 
L 382.17989 85.630597 
L 382.403202 100.364119 
L 382.626513 99.447721 
L 382.849825 101.129083 
L 383.296448 79.486999 
L 383.51976 86.395561 
L 383.743072 67.382917 
L 383.966383 75.972841 
L 384.189695 90.857797 
L 384.636318 138.799279 
L 384.85963 135.436554 
L 385.082941 176.824567 
L 385.306253 172.362331 
L 385.529565 188.195365 
L 385.752876 180.370405 
L 385.976188 183.884563 
L 386.1995 171.047196 
L 386.422811 175.326319 
L 386.646123 169.182721 
L 386.869435 156.130561 
L 387.092746 153.715914 
L 387.316058 157.230072 
L 387.53937 164.138634 
L 387.762681 154.632312 
L 387.985993 152.034552 
L 388.432616 169.947685 
L 388.655928 161.357761 
L 388.87924 167.318245 
L 389.102551 169.947685 
L 389.325863 178.689043 
L 389.549175 171.780481 
L 389.772486 176.091283 
L 389.995798 165.636883 
L 390.21911 171.629047 
L 390.442421 168.999607 
L 390.665733 168.083209 
L 390.889045 166.218733 
L 391.112356 174.819792 
L 391.335668 155.031049 
L 391.558979 158.576887 
L 391.782291 155.214163 
L 392.005603 159.493285 
L 392.228914 167.166811 
L 392.452226 181.868653 
L 392.675538 169.764571 
L 392.898849 177.417552 
L 393.122161 179.863878 
L 393.345473 170.529535 
L 393.568784 170.529535 
L 393.792096 166.218733 
L 394.015408 167.900095 
L 394.238719 166.994832 
L 394.462031 163.620973 
L 394.685343 177.417552 
L 394.908654 169.592592 
L 395.131966 174.636678 
L 395.578589 187.505724 
L 395.801901 181.54524 
L 396.025213 184.143 
L 396.248524 183.991566 
L 396.471836 187.35429 
L 396.695148 173.537166 
L 396.918459 167.393568 
L 397.141771 157.887246 
L 397.365083 158.65221 
L 397.588394 157.735813 
L 397.811706 161.24997 
L 398.035018 162.198048 
L 398.258329 170.756293 
L 398.481641 166.47717 
L 398.704952 169.07493 
L 398.928264 175.218528 
L 399.151576 176.89989 
L 399.374887 179.52933 
L 399.598199 174.30213 
L 399.821511 176.89989 
L 400.268134 164.795808 
L 400.491446 162.198048 
L 400.938069 164.795808 
L 401.384692 182.892055 
L 401.608004 197.77701 
L 401.831316 223.084686 
L 402.054627 215.259726 
L 402.501251 209.116128 
L 402.724562 201.474282 
L 402.947874 201.474282 
L 403.171186 192.916038 
L 403.394497 206.701482 
L 403.617809 194.5974 
L 403.841121 205.753404 
L 404.064432 197.19516 
L 404.287744 207.434766 
L 404.511056 204.837006 
L 404.734367 200.557884 
L 404.957679 199.641486 
L 405.18099 202.239246 
L 405.404302 197.960124 
L 405.627614 189.3702 
L 405.850925 191.051562 
L 406.074237 189.3702 
L 406.297549 192.732924 
L 406.52086 184.907964 
L 406.744172 183.226602 
L 406.967484 189.3702 
L 407.190795 191.96796 
L 407.414107 185.824362 
L 407.637419 190.868448 
L 407.86073 187.505724 
L 408.084042 188.453802 
L 408.307354 190.135164 
L 408.530665 189.187086 
L 408.753977 195.17925 
L 409.2006 184.907964 
L 409.423912 189.95205 
L 409.647224 189.187086 
L 409.870535 186.589326 
L 410.093847 188.270688 
L 410.317159 176.166606 
L 410.54047 173.537166 
L 410.763782 162.198048 
L 410.987094 162.198048 
L 411.433717 169.07493 
L 411.657029 170.756293 
L 411.88034 167.393568 
L 412.103652 175.067095 
L 412.550275 181.803678 
L 412.773587 177.664855 
L 412.996898 181.038714 
L 413.22021 174.130152 
L 413.443522 163.707432 
L 413.666833 161.109672 
L 413.890145 140.40453 
L 414.113457 148.22949 
L 414.56008 130.715095 
L 414.783392 130.715095 
L 415.006703 128.268768 
L 415.230015 127.35237 
L 415.453327 136.858693 
L 415.676638 136.858693 
L 415.89995 147.281413 
L 416.123262 150.655272 
L 416.346573 160.926558 
L 416.793197 146.193036 
L 417.016508 152.1852 
L 417.23982 152.918484 
L 417.463132 157.229286 
L 417.686443 147.722964 
L 418.356378 162.424806 
L 418.57969 159.827046 
L 418.803002 176.975214 
L 419.249625 182.030435 
L 419.472936 190.620359 
L 419.696248 184.476761 
L 419.91956 184.476761 
L 420.142871 187.839485 
L 420.366183 186.158123 
L 421.036118 223.095035 
L 421.25943 197.528921 
L 421.482741 199.943568 
L 421.706053 205.935732 
L 422.152676 193.79997 
L 422.375988 195.481332 
L 423.045923 190.437245 
L 423.269235 187.839485 
L 423.492546 195.481332 
L 423.715858 197.345808 
L 423.93917 195.664445 
L 424.162481 188.755883 
L 424.385793 187.839485 
L 424.609105 189.520848 
L 424.832416 182.612285 
L 425.055728 185.97501 
L 425.27904 204.082391 
L 425.502351 202.389894 
L 425.725663 202.389894 
L 425.948974 192.883572 
L 426.172286 197.162694 
L 426.395598 192.883572 
L 426.618909 191.967174 
L 426.842221 210.807839 
L 427.065533 198.703757 
L 427.288844 201.301517 
L 427.512156 214.170563 
L 427.735468 203.899277 
L 427.958779 203.899277 
L 428.182091 197.022395 
L 428.405403 194.392955 
L 428.628714 190.113833 
L 428.852026 191.030231 
L 429.075338 190.113833 
L 429.298649 177.061673 
L 429.521961 192.711593 
L 429.745273 190.113833 
L 429.968584 192.711593 
L 430.415208 189.337734 
L 430.638519 190.113833 
L 431.085143 186.739974 
L 431.308454 193.659671 
L 431.531766 187.516073 
L 431.755078 184.886633 
L 431.978389 190.113833 
L 432.201701 185.834711 
L 432.425013 204.082391 
L 432.648324 211.907351 
L 433.094947 215.593488 
L 433.318259 210.397968 
L 433.541571 219.90429 
L 433.764882 223.418448 
L 434.211506 212.812614 
L 434.434817 213.760692 
L 434.658129 191.719871 
L 434.881441 215.959715 
L 435.104752 210.549401 
L 435.551376 223.601561 
L 435.774687 226.199321 
L 435.997999 218.374361 
L 436.221311 221.737085 
L 436.444622 207.035243 
L 436.667934 220.055723 
L 436.891246 210.549401 
L 437.114557 215.776601 
L 437.337869 217.457963 
L 437.784492 212.230763 
L 438.007804 213.178841 
L 438.231116 236.287494 
L 438.677739 232.784471 
L 439.347674 221.585652 
L 439.570985 223.267014 
L 439.794297 233.517755 
L 440.017609 226.640873 
L 440.24092 224.959511 
L 440.687544 212.230763 
L 440.910855 211.314365 
L 441.134167 207.035243 
L 441.357479 213.912125 
L 441.804102 232.784471 
L 442.027414 220.637574 
L 442.474037 239.326805 
L 442.697349 229.055519 
L 442.92066 233.366321 
L 443.143972 245.287289 
L 443.590595 232.418243 
L 443.813907 233.366321 
L 444.037219 239.326805 
L 444.26053 241.008167 
L 444.707154 252.97195 
L 444.930465 253.877213 
L 445.377089 278.096512 
L 445.6004 281.459236 
L 445.823712 266.757394 
L 446.047024 280.391405 
L 446.270335 271.036516 
L 446.493647 266.757394 
L 446.716958 269.355154 
L 446.94027 269.355154 
L 447.163582 271.036516 
L 447.386893 273.665956 
L 447.610205 272.717878 
L 447.833517 252.788836 
L 448.056828 245.880274 
L 448.28014 225.951232 
L 448.503452 230.995318 
L 448.726763 230.995318 
L 448.950075 218.891236 
L 449.173387 217.943158 
L 449.396698 221.488996 
L 449.62001 216.44491 
L 449.843322 217.350173 
L 450.066633 213.071051 
L 450.289945 200.966969 
L 450.513257 194.974805 
L 450.95988 206.162489 
L 451.183192 205.429205 
L 451.406503 207.110567 
L 451.629815 204.664241 
L 451.853127 207.262001 
L 452.076438 207.262001 
L 452.29975 201.301517 
L 452.523062 203.899277 
L 452.746373 204.664241 
L 452.969685 204.664241 
L 453.192996 211.724237 
L 453.416308 213.254165 
L 453.63962 209.891441 
L 453.862931 216.616889 
L 454.086243 213.071051 
L 454.309555 201.118403 
L 454.532866 208.026965 
L 454.756178 208.026965 
L 454.97949 208.943363 
L 455.202801 205.429205 
L 455.426113 189.337734 
L 455.649425 189.520848 
L 455.872736 181.695888 
L 456.096048 186.923088 
L 456.31936 184.293648 
L 456.542671 190.285812 
L 456.989295 186.923088 
L 457.212606 191.20221 
L 457.435918 191.20221 
L 457.65923 194.564934 
L 457.882541 202.389894 
L 458.105853 200.708532 
L 458.329165 211.131252 
L 458.552476 215.593488 
L 458.775788 201.808043 
L 458.9991 207.768528 
L 459.222411 200.126681 
L 459.445723 207.035243 
L 459.669035 205.170768 
L 459.892346 199.943568 
L 460.115658 204.25437 
L 460.338969 203.489405 
L 460.785593 198.262205 
L 461.008904 200.891645 
L 461.232216 205.935732 
L 461.455528 199.943568 
L 461.678839 201.62493 
L 461.902151 205.170768 
L 462.125463 200.891645 
L 462.572086 209.44989 
L 462.795398 206.85213 
L 463.018709 215.593488 
L 463.242021 212.230763 
L 463.465333 226.964285 
L 463.911956 219.90429 
L 464.135268 217.27485 
L 464.581891 240.74973 
L 464.805203 232.008372 
L 465.028514 231.243408 
L 465.251826 233.872848 
L 465.475138 231.243408 
L 465.698449 215.593488 
L 465.921761 219.90429 
L 466.145073 219.90429 
L 466.368384 215.593488 
L 466.591696 222.50205 
L 466.815008 233.689734 
L 467.038319 222.50205 
L 467.261631 219.90429 
L 467.484942 221.585652 
L 467.708254 217.27485 
L 467.931566 217.27485 
L 468.154877 218.039814 
L 468.601501 195.772236 
L 468.824812 206.95992 
L 469.048124 209.55768 
L 469.271436 205.429992 
L 469.494747 214.019916 
L 469.718059 217.534074 
L 470.164682 204.837006 
L 470.611306 198.876522 
L 470.834617 184.907964 
L 471.281241 191.051562 
L 471.504552 186.923874 
L 471.727864 179.270893 
L 471.951176 180.046992 
L 472.174487 181.728354 
L 472.397799 190.286598 
L 472.844422 188.605236 
L 473.291046 226.630524 
L 473.514357 218.0406 
L 473.737669 214.526442 
L 473.96098 219.721962 
L 474.184292 205.936518 
L 474.407604 207.61788 
L 474.854227 195.513798 
L 475.077539 200.709318 
L 475.30085 198.876522 
L 475.747474 209.299242 
L 475.970785 199.027956 
L 476.194097 201.657396 
L 476.64072 201.657396 
L 477.087344 209.482356 
L 477.310655 202.573794 
L 477.533967 207.024895 
L 477.757279 201.797695 
L 477.98059 202.573794 
L 478.203902 204.255156 
L 478.427214 199.199935 
L 478.650525 179.454007 
L 478.873837 177.772645 
L 479.097149 183.733129 
L 479.32046 183.733129 
L 479.543772 184.649527 
L 479.767084 180.370405 
L 479.990395 172.728559 
L 480.437019 186.330889 
L 480.66033 176.091283 
L 480.883642 171.780481 
L 481.106953 158.167015 
L 481.776888 171.963594 
L 482.0002 166.736394 
L 482.223512 165.055032 
L 482.670135 171.047196 
L 482.893447 174.561354 
L 483.116758 170.099119 
L 483.34007 171.963594 
L 483.786693 185.749039 
L 484.010005 174.561354 
L 484.233317 170.282232 
L 484.456628 173.644956 
L 484.67994 175.326319 
L 485.126563 162.457272 
L 485.573187 172.728559 
L 485.796498 172.728559 
L 486.01981 176.091283 
L 486.243122 175.143205 
L 486.466433 170.864083 
L 486.689745 186.514003 
L 486.913057 182.968165 
L 487.35968 193.239451 
L 487.582991 180.370405 
L 487.806303 183.733129 
L 488.029615 182.051767 
L 488.252926 176.824567 
L 488.476238 176.091283 
L 488.69955 172.545445 
L 489.146173 172.545445 
L 489.369485 173.461843 
L 489.592796 168.266323 
L 489.816108 172.545445 
L 490.262731 175.908169 
L 490.486043 183.733129 
L 490.709355 185.414491 
L 490.932666 182.968165 
L 491.37929 189.876727 
L 491.602601 191.558089 
L 491.825913 186.514003 
L 492.049225 188.195365 
L 492.272536 182.968165 
L 492.495848 182.968165 
L 492.71916 181.286803 
L 492.942471 177.772645 
L 493.389095 192.474487 
L 493.612406 192.474487 
L 494.05903 198.618085 
L 494.282341 189.111763 
L 494.505653 192.474487 
L 494.728964 154.297765 
L 494.952276 145.707841 
L 495.175588 152.616403 
L 495.398899 155.214163 
L 495.622211 162.122725 
L 495.845523 174.226807 
L 496.068834 167.318245 
L 496.292146 168.999607 
L 496.515458 162.122725 
L 496.738769 163.039123 
L 496.962081 167.318245 
L 497.185393 163.039123 
L 497.408704 166.584961 
L 497.632016 165.636883 
L 497.855328 160.441363 
L 498.078639 160.441363 
L 498.301951 169.182721 
L 498.525263 168.999607 
L 498.748574 169.947685 
L 498.971886 168.999607 
L 499.195198 164.720485 
L 499.418509 163.804087 
L 499.865133 169.764571 
L 500.088444 174.819792 
L 500.311756 185.091078 
L 500.535068 186.77244 
L 500.758379 178.182516 
L 501.205003 176.501154 
L 501.428314 179.098914 
L 501.651626 174.636678 
L 502.098249 160.075135 
L 502.321561 161.767632 
L 502.544872 155.624034 
L 502.768184 141.827455 
L 502.991496 144.425215 
L 503.214807 151.344912 
L 503.438119 151.344912 
L 503.661431 155.624034 
L 503.884742 150.428514 
L 504.108054 153.942672 
L 504.331366 152.250175 
L 504.777989 161.767632 
L 505.224612 150.568813 
L 505.447924 159.169872 
L 505.894547 153.026274 
L 506.117859 160.075135 
L 506.341171 159.169872 
L 506.564482 160.075135 
L 507.011106 141.245605 
L 507.234417 140.480641 
L 507.457729 140.480641 
L 507.681041 138.799279 
L 508.127664 131.922396 
L 508.350975 131.922396 
L 508.574287 125.778799 
L 508.797599 137.882881 
L 509.02091 143.110081 
L 509.467534 157.811923 
L 509.914157 150.935041 
L 510.137469 154.297765 
L 510.36078 150.935041 
L 510.584092 163.955521 
L 510.807404 157.078639 
L 511.030715 156.130561 
L 511.477339 163.039123 
L 511.923962 141.580152 
L 512.147274 142.345116 
L 512.370585 151.851439 
L 512.593897 147.572316 
L 512.817209 132.838794 
L 513.04052 132.838794 
L 513.263832 139.747356 
L 513.487144 142.162003 
L 513.710455 141.428719 
L 513.933767 138.647845 
L 514.157079 123.914323 
L 514.38039 117.770725 
L 514.603702 123.914323 
L 514.827014 123.149359 
L 515.050325 121.467996 
L 515.273637 129.141523 
L 515.496948 129.141523 
L 516.166883 115.324399 
L 516.390195 122.232961 
L 516.613507 120.551599 
L 516.836818 131.922396 
L 517.06013 124.830721 
L 517.506753 140.329207 
L 517.730065 142.010569 
L 517.953377 142.010569 
L 518.4 131.739283 
L 518.4 131.739283 
" style="fill:none;stroke:#4c72b0;stroke-linecap:round;stroke-width:1.75;"/>
   </g>
   <g id="patch_3">
    <path d="M 72 356.4 
L 518.4 356.4 
" style="fill:none;"/>
   </g>
   <g id="patch_4">
    <path d="M 72 39.6 
L 518.4 39.6 
" style="fill:none;"/>
   </g>
   <g id="patch_5">
    <path d="M 72 356.4 
L 72 39.6 
" style="fill:none;"/>
   </g>
   <g id="patch_6">
    <path d="M 518.4 356.4 
L 518.4 39.6 
" style="fill:none;"/>
   </g>
   <g id="text_11">
    <!-- SR - -0.35147879034484725 * m -->
    <defs>
     <path d="M 9.125 0 
L 9.125 10.6875 
L 18.65625 10.6875 
L 18.65625 0 
z
" id="LiberationSans-2e"/>
     <path d="M 22.265625 54.390625 
L 35.15625 59.421875 
L 37.359375 52.984375 
L 23.578125 49.421875 
L 32.625 37.203125 
L 26.8125 33.6875 
L 19.484375 46.296875 
L 11.859375 33.796875 
L 6.0625 37.3125 
L 15.28125 49.421875 
L 1.609375 52.984375 
L 3.8125 59.515625 
L 16.84375 54.296875 
L 16.265625 68.796875 
L 22.90625 68.796875 
z
" id="LiberationSans-2a"/>
     <path d="M 62.109375 19 
Q 62.109375 14.65625 60.421875 10.984375 
Q 58.734375 7.328125 55.21875 4.65625 
Q 51.703125 2 46.359375 0.5 
Q 41.015625 -0.984375 33.6875 -0.984375 
Q 20.84375 -0.984375 13.671875 3.515625 
Q 6.5 8.015625 4.546875 16.5 
L 13.578125 18.3125 
Q 14.265625 15.625 15.671875 13.421875 
Q 17.09375 11.234375 19.5 9.640625 
Q 21.921875 8.0625 25.484375 7.171875 
Q 29.046875 6.296875 34.03125 6.296875 
Q 38.1875 6.296875 41.65625 7 
Q 45.125 7.71875 47.609375 9.171875 
Q 50.09375 10.640625 51.484375 12.953125 
Q 52.875 15.28125 52.875 18.5 
Q 52.875 21.875 51.34375 23.96875 
Q 49.8125 26.078125 47.015625 27.4375 
Q 44.234375 28.8125 40.375 29.734375 
Q 36.53125 30.671875 31.84375 31.734375 
Q 28.953125 32.375 26.046875 33.125 
Q 23.140625 33.890625 20.484375 34.9375 
Q 17.828125 35.984375 15.484375 37.390625 
Q 13.140625 38.8125 11.421875 40.796875 
Q 9.71875 42.78125 8.734375 45.390625 
Q 7.765625 48 7.765625 51.421875 
Q 7.765625 56.296875 9.734375 59.78125 
Q 11.71875 63.28125 15.234375 65.53125 
Q 18.75 67.78125 23.53125 68.796875 
Q 28.328125 69.828125 33.890625 69.828125 
Q 40.28125 69.828125 44.8125 68.828125 
Q 49.359375 67.828125 52.484375 65.8125 
Q 55.609375 63.8125 57.484375 60.859375 
Q 59.375 57.90625 60.5 54 
L 51.3125 52.390625 
Q 50.640625 54.890625 49.34375 56.84375 
Q 48.046875 58.796875 45.9375 60.109375 
Q 43.84375 61.421875 40.84375 62.109375 
Q 37.84375 62.796875 33.796875 62.796875 
Q 29 62.796875 25.75 61.9375 
Q 22.515625 61.078125 20.53125 59.609375 
Q 18.5625 58.15625 17.703125 56.171875 
Q 16.84375 54.203125 16.84375 51.90625 
Q 16.84375 48.828125 18.375 46.84375 
Q 19.921875 44.875 22.5625 43.546875 
Q 25.203125 42.234375 28.65625 41.359375 
Q 32.125 40.484375 36.03125 39.59375 
Q 39.203125 38.875 42.359375 38.109375 
Q 45.515625 37.359375 48.390625 36.296875 
Q 51.265625 35.25 53.78125 33.828125 
Q 56.296875 32.421875 58.15625 30.375 
Q 60.015625 28.328125 61.0625 25.53125 
Q 62.109375 22.75 62.109375 19 
" id="LiberationSans-53"/>
     <path d="M 56.84375 0 
L 38.96875 28.5625 
L 17.53125 28.5625 
L 17.53125 0 
L 8.203125 0 
L 8.203125 68.796875 
L 40.578125 68.796875 
Q 46.4375 68.796875 50.953125 67.453125 
Q 55.46875 66.109375 58.546875 63.5625 
Q 61.625 61.03125 63.234375 57.375 
Q 64.84375 53.71875 64.84375 49.125 
Q 64.84375 45.84375 63.890625 42.671875 
Q 62.9375 39.5 60.890625 36.859375 
Q 58.84375 34.234375 55.65625 32.328125 
Q 52.484375 30.421875 48.046875 29.640625 
L 67.578125 0 
z
M 55.46875 49.03125 
Q 55.46875 52.15625 54.390625 54.4375 
Q 53.328125 56.734375 51.265625 58.265625 
Q 49.21875 59.8125 46.28125 60.5625 
Q 43.359375 61.328125 39.65625 61.328125 
L 17.53125 61.328125 
L 17.53125 35.9375 
L 40.046875 35.9375 
Q 44.046875 35.9375 46.96875 36.9375 
Q 49.90625 37.9375 51.78125 39.6875 
Q 53.65625 41.453125 54.5625 43.84375 
Q 55.46875 46.234375 55.46875 49.03125 
" id="LiberationSans-52"/>
    </defs>
    <g style="fill:#262626;" transform="translate(207.1434375 34.6)scale(0.12 -0.12)">
     <use xlink:href="#LiberationSans-53"/>
     <use x="66.69921875" xlink:href="#LiberationSans-52"/>
     <use x="138.916015625" xlink:href="#LiberationSans-20"/>
     <use x="166.69921875" xlink:href="#LiberationSans-2d"/>
     <use x="200.0" xlink:href="#LiberationSans-20"/>
     <use x="227.783203125" xlink:href="#LiberationSans-2d"/>
     <use x="261.083984375" xlink:href="#LiberationSans-30"/>
     <use x="316.69921875" xlink:href="#LiberationSans-2e"/>
     <use x="344.482421875" xlink:href="#LiberationSans-33"/>
     <use x="400.09765625" xlink:href="#LiberationSans-35"/>
     <use x="455.712890625" xlink:href="#LiberationSans-31"/>
     <use x="511.328125" xlink:href="#LiberationSans-34"/>
     <use x="566.943359375" xlink:href="#LiberationSans-37"/>
     <use x="622.55859375" xlink:href="#LiberationSans-38"/>
     <use x="678.173828125" xlink:href="#LiberationSans-37"/>
     <use x="733.7890625" xlink:href="#LiberationSans-39"/>
     <use x="789.404296875" xlink:href="#LiberationSans-30"/>
     <use x="845.01953125" xlink:href="#LiberationSans-33"/>
     <use x="900.634765625" xlink:href="#LiberationSans-34"/>
     <use x="956.25" xlink:href="#LiberationSans-34"/>
     <use x="1011.865234375" xlink:href="#LiberationSans-38"/>
     <use x="1067.48046875" xlink:href="#LiberationSans-34"/>
     <use x="1123.095703125" xlink:href="#LiberationSans-37"/>
     <use x="1178.7109375" xlink:href="#LiberationSans-32"/>
     <use x="1234.326171875" xlink:href="#LiberationSans-35"/>
     <use x="1289.94140625" xlink:href="#LiberationSans-20"/>
     <use x="1317.724609375" xlink:href="#LiberationSans-2a"/>
     <use x="1356.640625" xlink:href="#LiberationSans-20"/>
     <use x="1384.423828125" xlink:href="#LiberationSans-6d"/>
    </g>
   </g>
  </g>
 </g>
 <defs>
  <clipPath id="p02ce4bf24b">
   <rect height="316.8" width="446.4" x="72.0" y="39.6"/>
  </clipPath>
 </defs>
</svg>
