<?xml version="1.0" encoding="utf-8" standalone="no"?>
<!DOCTYPE svg PUBLIC "-//W3C//DTD SVG 1.1//EN"
  "http://www.w3.org/Graphics/SVG/1.1/DTD/svg11.dtd">
<!-- Created with matplotlib (http://matplotlib.org/) -->
<svg height="396pt" version="1.1" viewBox="0 0 576 396" width="576pt" xmlns="http://www.w3.org/2000/svg" xmlns:xlink="http://www.w3.org/1999/xlink">
 <defs>
  <style type="text/css">
*{stroke-linecap:butt;stroke-linejoin:round;stroke-miterlimit:100000;}
  </style>
 </defs>
 <g id="figure_1">
  <g id="patch_1">
   <path d="M 0 396 
L 576 396 
L 576 0 
L 0 0 
z
" style="fill:#ffffff;"/>
  </g>
  <g id="axes_1">
   <g id="patch_2">
    <path d="M 72 356.4 
L 518.4 356.4 
L 518.4 39.6 
L 72 39.6 
z
" style="fill:#eaeaf2;"/>
   </g>
   <g id="matplotlib.axis_1">
    <g id="xtick_1">
     <g id="line2d_1">
      <path clip-path="url(#p5618748bf2)" d="M 72 356.4 
L 72 39.6 
" style="fill:none;stroke:#ffffff;stroke-linecap:round;"/>
     </g>
     <g id="line2d_2"/>
     <g id="line2d_3"/>
     <g id="text_1">
      <!-- 2015-12-04 13:57:00 -->
      <defs>
       <path d="M 5.03125 0 
L 5.03125 6.203125 
Q 7.515625 11.921875 11.109375 16.28125 
Q 14.703125 20.65625 18.65625 24.1875 
Q 22.609375 27.734375 26.484375 30.765625 
Q 30.375 33.796875 33.5 36.8125 
Q 36.625 39.84375 38.546875 43.15625 
Q 40.484375 46.484375 40.484375 50.6875 
Q 40.484375 53.609375 39.59375 55.828125 
Q 38.71875 58.0625 37.0625 59.5625 
Q 35.40625 61.078125 33.078125 61.828125 
Q 30.765625 62.59375 27.9375 62.59375 
Q 25.296875 62.59375 22.96875 61.859375 
Q 20.65625 61.140625 18.84375 59.671875 
Q 17.046875 58.203125 15.890625 56.03125 
Q 14.75 53.859375 14.40625 50.984375 
L 5.421875 51.8125 
Q 5.859375 55.515625 7.46875 58.78125 
Q 9.078125 62.0625 11.90625 64.53125 
Q 14.75 67 18.71875 68.40625 
Q 22.703125 69.828125 27.9375 69.828125 
Q 33.0625 69.828125 37.0625 68.609375 
Q 41.0625 67.390625 43.8125 64.984375 
Q 46.578125 62.59375 48.046875 59.078125 
Q 49.515625 55.5625 49.515625 50.984375 
Q 49.515625 47.515625 48.265625 44.390625 
Q 47.015625 41.265625 44.9375 38.421875 
Q 42.875 35.59375 40.140625 32.953125 
Q 37.40625 30.328125 34.421875 27.8125 
Q 31.453125 25.296875 28.421875 22.828125 
Q 25.390625 20.359375 22.71875 17.859375 
Q 20.0625 15.375 17.96875 12.8125 
Q 15.875 10.25 14.703125 7.46875 
L 50.59375 7.46875 
L 50.59375 0 
z
" id="LiberationSans-32"/>
       <path d="M 7.625 0 
L 7.625 7.46875 
L 25.140625 7.46875 
L 25.140625 60.40625 
L 9.625 49.3125 
L 9.625 57.625 
L 25.875 68.796875 
L 33.984375 68.796875 
L 33.984375 7.46875 
L 50.734375 7.46875 
L 50.734375 0 
z
" id="LiberationSans-31"/>
       <path d="M 50.59375 61.671875 
Q 45.40625 53.765625 41.0625 46.453125 
Q 36.71875 39.15625 33.59375 31.75 
Q 30.46875 24.359375 28.734375 16.578125 
Q 27 8.796875 27 0 
L 17.828125 0 
Q 17.828125 8.25 19.78125 16.1875 
Q 21.734375 24.125 25.046875 31.765625 
Q 28.375 39.40625 32.765625 46.78125 
Q 37.15625 54.15625 42.09375 61.328125 
L 5.125 61.328125 
L 5.125 68.796875 
L 50.59375 68.796875 
z
" id="LiberationSans-37"/>
       <path d="M 51.703125 34.421875 
Q 51.703125 24.515625 49.828125 17.75 
Q 47.953125 10.984375 44.703125 6.8125 
Q 41.453125 2.640625 37.0625 0.828125 
Q 32.671875 -0.984375 27.6875 -0.984375 
Q 22.65625 -0.984375 18.3125 0.828125 
Q 13.96875 2.640625 10.765625 6.78125 
Q 7.5625 10.9375 5.734375 17.703125 
Q 3.90625 24.46875 3.90625 34.421875 
Q 3.90625 44.828125 5.734375 51.640625 
Q 7.5625 58.453125 10.78125 62.5 
Q 14.015625 66.546875 18.40625 68.1875 
Q 22.796875 69.828125 27.984375 69.828125 
Q 32.90625 69.828125 37.21875 68.1875 
Q 41.546875 66.546875 44.765625 62.5 
Q 48 58.453125 49.84375 51.640625 
Q 51.703125 44.828125 51.703125 34.421875 
M 42.78125 34.421875 
Q 42.78125 42.625 41.796875 48.0625 
Q 40.828125 53.515625 38.921875 56.765625 
Q 37.015625 60.015625 34.25 61.359375 
Q 31.5 62.703125 27.984375 62.703125 
Q 24.265625 62.703125 21.4375 61.328125 
Q 18.609375 59.96875 16.671875 56.71875 
Q 14.75 53.46875 13.765625 48.015625 
Q 12.796875 42.578125 12.796875 34.421875 
Q 12.796875 26.515625 13.796875 21.09375 
Q 14.796875 15.671875 16.71875 12.375 
Q 18.65625 9.078125 21.4375 7.640625 
Q 24.21875 6.203125 27.78125 6.203125 
Q 31.25 6.203125 34.03125 7.640625 
Q 36.8125 9.078125 38.734375 12.375 
Q 40.671875 15.671875 41.71875 21.09375 
Q 42.78125 26.515625 42.78125 34.421875 
" id="LiberationSans-30"/>
       <path d="M 9.125 42.71875 
L 9.125 52.828125 
L 18.65625 52.828125 
L 18.65625 42.71875 
z
M 9.125 0 
L 9.125 10.109375 
L 18.65625 10.109375 
L 18.65625 0 
z
" id="LiberationSans-3a"/>
       <path d="M 51.21875 19 
Q 51.21875 14.265625 49.671875 10.546875 
Q 48.140625 6.84375 45.1875 4.265625 
Q 42.234375 1.703125 37.859375 0.359375 
Q 33.5 -0.984375 27.875 -0.984375 
Q 21.484375 -0.984375 17.109375 0.609375 
Q 12.75 2.203125 9.90625 4.8125 
Q 7.078125 7.421875 5.65625 10.765625 
Q 4.25 14.109375 3.8125 17.671875 
L 12.890625 18.5 
Q 13.28125 15.765625 14.328125 13.515625 
Q 15.375 11.28125 17.1875 9.671875 
Q 19 8.0625 21.625 7.171875 
Q 24.265625 6.296875 27.875 6.296875 
Q 34.515625 6.296875 38.296875 9.5625 
Q 42.09375 12.84375 42.09375 19.28125 
Q 42.09375 23.09375 40.40625 25.40625 
Q 38.71875 27.734375 36.203125 29.03125 
Q 33.6875 30.328125 30.734375 30.765625 
Q 27.78125 31.203125 25.296875 31.203125 
L 20.3125 31.203125 
L 20.3125 38.8125 
L 25.09375 38.8125 
Q 27.59375 38.8125 30.265625 39.328125 
Q 32.953125 39.84375 35.171875 41.1875 
Q 37.40625 42.53125 38.84375 44.828125 
Q 40.28125 47.125 40.28125 50.6875 
Q 40.28125 56.203125 37.03125 59.390625 
Q 33.796875 62.59375 27.390625 62.59375 
Q 21.578125 62.59375 17.984375 59.609375 
Q 14.40625 56.640625 13.8125 51.21875 
L 4.984375 51.90625 
Q 5.515625 56.453125 7.46875 59.8125 
Q 9.421875 63.1875 12.421875 65.40625 
Q 15.4375 67.625 19.28125 68.71875 
Q 23.140625 69.828125 27.484375 69.828125 
Q 33.25 69.828125 37.390625 68.375 
Q 41.546875 66.9375 44.1875 64.46875 
Q 46.828125 62.015625 48.0625 58.6875 
Q 49.3125 55.375 49.3125 51.609375 
Q 49.3125 48.578125 48.484375 45.9375 
Q 47.65625 43.3125 45.890625 41.203125 
Q 44.140625 39.109375 41.421875 37.59375 
Q 38.71875 36.078125 34.90625 35.296875 
L 34.90625 35.109375 
Q 39.0625 34.671875 42.140625 33.21875 
Q 45.21875 31.78125 47.21875 29.625 
Q 49.21875 27.484375 50.21875 24.75 
Q 51.21875 22.015625 51.21875 19 
" id="LiberationSans-33"/>
       <path d="M 51.421875 22.40625 
Q 51.421875 17.234375 49.859375 12.9375 
Q 48.296875 8.640625 45.21875 5.53125 
Q 42.140625 2.4375 37.578125 0.71875 
Q 33.015625 -0.984375 27 -0.984375 
Q 21.578125 -0.984375 17.546875 0.28125 
Q 13.53125 1.5625 10.734375 3.78125 
Q 7.953125 6 6.3125 8.984375 
Q 4.6875 11.96875 4 15.375 
L 12.890625 16.40625 
Q 13.421875 14.453125 14.390625 12.625 
Q 15.375 10.796875 17.0625 9.34375 
Q 18.75 7.90625 21.21875 7.046875 
Q 23.6875 6.203125 27.203125 6.203125 
Q 30.609375 6.203125 33.390625 7.25 
Q 36.1875 8.296875 38.15625 10.34375 
Q 40.140625 12.40625 41.203125 15.375 
Q 42.28125 18.359375 42.28125 22.21875 
Q 42.28125 25.390625 41.25 28.046875 
Q 40.234375 30.71875 38.328125 32.640625 
Q 36.421875 34.578125 33.65625 35.640625 
Q 30.90625 36.71875 27.390625 36.71875 
Q 25.203125 36.71875 23.34375 36.328125 
Q 21.484375 35.9375 19.890625 35.25 
Q 18.3125 34.578125 17.015625 33.671875 
Q 15.71875 32.765625 14.59375 31.78125 
L 6 31.78125 
L 8.296875 68.796875 
L 47.40625 68.796875 
L 47.40625 61.328125 
L 16.3125 61.328125 
L 14.984375 39.5 
Q 17.328125 41.3125 20.84375 42.59375 
Q 24.359375 43.890625 29.203125 43.890625 
Q 34.328125 43.890625 38.421875 42.328125 
Q 42.53125 40.765625 45.40625 37.90625 
Q 48.296875 35.0625 49.859375 31.109375 
Q 51.421875 27.15625 51.421875 22.40625 
" id="LiberationSans-35"/>
       <path id="LiberationSans-20"/>
       <path d="M 4.4375 22.65625 
L 4.4375 30.46875 
L 28.859375 30.46875 
L 28.859375 22.65625 
z
" id="LiberationSans-2d"/>
       <path d="M 43.015625 15.578125 
L 43.015625 0 
L 34.71875 0 
L 34.71875 15.578125 
L 2.296875 15.578125 
L 2.296875 22.40625 
L 33.796875 68.796875 
L 43.015625 68.796875 
L 43.015625 22.515625 
L 52.6875 22.515625 
L 52.6875 15.578125 
z
M 34.71875 58.890625 
Q 34.625 58.640625 34.234375 57.9375 
Q 33.84375 57.234375 33.34375 56.34375 
Q 32.859375 55.46875 32.34375 54.5625 
Q 31.84375 53.65625 31.453125 53.078125 
L 13.8125 27.09375 
Q 13.578125 26.703125 13.109375 26.0625 
Q 12.640625 25.4375 12.15625 24.78125 
Q 11.671875 24.125 11.171875 23.484375 
Q 10.6875 22.859375 10.40625 22.515625 
L 34.71875 22.515625 
z
" id="LiberationSans-34"/>
      </defs>
      <g style="fill:#262626;" transform="translate(25.5765625 370.646875)scale(0.1 -0.1)">
       <use xlink:href="#LiberationSans-32"/>
       <use x="55.615234375" xlink:href="#LiberationSans-30"/>
       <use x="111.23046875" xlink:href="#LiberationSans-31"/>
       <use x="166.845703125" xlink:href="#LiberationSans-35"/>
       <use x="222.4609375" xlink:href="#LiberationSans-2d"/>
       <use x="255.76171875" xlink:href="#LiberationSans-31"/>
       <use x="311.376953125" xlink:href="#LiberationSans-32"/>
       <use x="366.9921875" xlink:href="#LiberationSans-2d"/>
       <use x="400.29296875" xlink:href="#LiberationSans-30"/>
       <use x="455.908203125" xlink:href="#LiberationSans-34"/>
       <use x="511.5234375" xlink:href="#LiberationSans-20"/>
       <use x="539.306640625" xlink:href="#LiberationSans-31"/>
       <use x="594.921875" xlink:href="#LiberationSans-33"/>
       <use x="650.537109375" xlink:href="#LiberationSans-3a"/>
       <use x="678.3203125" xlink:href="#LiberationSans-35"/>
       <use x="733.935546875" xlink:href="#LiberationSans-37"/>
       <use x="789.55078125" xlink:href="#LiberationSans-3a"/>
       <use x="817.333984375" xlink:href="#LiberationSans-30"/>
       <use x="872.94921875" xlink:href="#LiberationSans-30"/>
      </g>
     </g>
    </g>
    <g id="xtick_2">
     <g id="line2d_4">
      <path clip-path="url(#p5618748bf2)" d="M 183.655828 356.4 
L 183.655828 39.6 
" style="fill:none;stroke:#ffffff;stroke-linecap:round;"/>
     </g>
     <g id="line2d_5"/>
     <g id="line2d_6"/>
     <g id="text_2">
      <!-- 2015-12-09 10:34:00 -->
      <defs>
       <path d="M 50.875 35.796875 
Q 50.875 26.609375 49.140625 19.703125 
Q 47.40625 12.796875 44.1875 8.203125 
Q 40.96875 3.609375 36.34375 1.3125 
Q 31.734375 -0.984375 25.984375 -0.984375 
Q 22.015625 -0.984375 18.84375 -0.171875 
Q 15.671875 0.640625 13.171875 2.34375 
Q 10.6875 4.046875 8.921875 6.78125 
Q 7.171875 9.515625 6.109375 13.375 
L 14.5 14.703125 
Q 15.875 10.25 18.78125 8.171875 
Q 21.6875 6.109375 26.125 6.109375 
Q 29.6875 6.109375 32.640625 7.78125 
Q 35.59375 9.46875 37.671875 12.84375 
Q 39.75 16.21875 40.921875 21.296875 
Q 42.09375 26.375 42.1875 33.203125 
Q 41.15625 30.90625 39.375 29.09375 
Q 37.59375 27.296875 35.328125 26.046875 
Q 33.0625 24.8125 30.421875 24.140625 
Q 27.78125 23.484375 25.09375 23.484375 
Q 20.40625 23.484375 16.625 25.171875 
Q 12.84375 26.859375 10.203125 29.875 
Q 7.5625 32.90625 6.125 37.171875 
Q 4.6875 41.453125 4.6875 46.6875 
Q 4.6875 52 6.21875 56.296875 
Q 7.765625 60.59375 10.6875 63.59375 
Q 13.625 66.609375 17.890625 68.21875 
Q 22.171875 69.828125 27.59375 69.828125 
Q 39.0625 69.828125 44.96875 61.328125 
Q 50.875 52.828125 50.875 35.796875 
M 41.3125 44.28125 
Q 41.3125 48.09375 40.40625 51.453125 
Q 39.5 54.828125 37.71875 57.3125 
Q 35.9375 59.8125 33.328125 61.25 
Q 30.71875 62.703125 27.296875 62.703125 
Q 24.125 62.703125 21.578125 61.578125 
Q 19.046875 60.453125 17.28125 58.375 
Q 15.53125 56.296875 14.578125 53.3125 
Q 13.625 50.34375 13.625 46.6875 
Q 13.625 43.21875 14.46875 40.234375 
Q 15.328125 37.25 17.03125 35.078125 
Q 18.75 32.90625 21.28125 31.65625 
Q 23.828125 30.421875 27.203125 30.421875 
Q 29.640625 30.421875 32.15625 31.25 
Q 34.671875 32.078125 36.6875 33.78125 
Q 38.71875 35.5 40.015625 38.109375 
Q 41.3125 40.71875 41.3125 44.28125 
" id="LiberationSans-39"/>
      </defs>
      <g style="fill:#262626;" transform="translate(137.232390414 370.646875)scale(0.1 -0.1)">
       <use xlink:href="#LiberationSans-32"/>
       <use x="55.615234375" xlink:href="#LiberationSans-30"/>
       <use x="111.23046875" xlink:href="#LiberationSans-31"/>
       <use x="166.845703125" xlink:href="#LiberationSans-35"/>
       <use x="222.4609375" xlink:href="#LiberationSans-2d"/>
       <use x="255.76171875" xlink:href="#LiberationSans-31"/>
       <use x="311.376953125" xlink:href="#LiberationSans-32"/>
       <use x="366.9921875" xlink:href="#LiberationSans-2d"/>
       <use x="400.29296875" xlink:href="#LiberationSans-30"/>
       <use x="455.908203125" xlink:href="#LiberationSans-39"/>
       <use x="511.5234375" xlink:href="#LiberationSans-20"/>
       <use x="539.306640625" xlink:href="#LiberationSans-31"/>
       <use x="594.921875" xlink:href="#LiberationSans-30"/>
       <use x="650.537109375" xlink:href="#LiberationSans-3a"/>
       <use x="678.3203125" xlink:href="#LiberationSans-33"/>
       <use x="733.935546875" xlink:href="#LiberationSans-34"/>
       <use x="789.55078125" xlink:href="#LiberationSans-3a"/>
       <use x="817.333984375" xlink:href="#LiberationSans-30"/>
       <use x="872.94921875" xlink:href="#LiberationSans-30"/>
      </g>
     </g>
    </g>
    <g id="xtick_3">
     <g id="line2d_7">
      <path clip-path="url(#p5618748bf2)" d="M 295.311656 356.4 
L 295.311656 39.6 
" style="fill:none;stroke:#ffffff;stroke-linecap:round;"/>
     </g>
     <g id="line2d_8"/>
     <g id="line2d_9"/>
     <g id="text_3">
      <!-- 2015-12-14 09:30:00 -->
      <g style="fill:#262626;" transform="translate(248.888218328 370.646875)scale(0.1 -0.1)">
       <use xlink:href="#LiberationSans-32"/>
       <use x="55.615234375" xlink:href="#LiberationSans-30"/>
       <use x="111.23046875" xlink:href="#LiberationSans-31"/>
       <use x="166.845703125" xlink:href="#LiberationSans-35"/>
       <use x="222.4609375" xlink:href="#LiberationSans-2d"/>
       <use x="255.76171875" xlink:href="#LiberationSans-31"/>
       <use x="311.376953125" xlink:href="#LiberationSans-32"/>
       <use x="366.9921875" xlink:href="#LiberationSans-2d"/>
       <use x="400.29296875" xlink:href="#LiberationSans-31"/>
       <use x="455.908203125" xlink:href="#LiberationSans-34"/>
       <use x="511.5234375" xlink:href="#LiberationSans-20"/>
       <use x="539.306640625" xlink:href="#LiberationSans-30"/>
       <use x="594.921875" xlink:href="#LiberationSans-39"/>
       <use x="650.537109375" xlink:href="#LiberationSans-3a"/>
       <use x="678.3203125" xlink:href="#LiberationSans-33"/>
       <use x="733.935546875" xlink:href="#LiberationSans-30"/>
       <use x="789.55078125" xlink:href="#LiberationSans-3a"/>
       <use x="817.333984375" xlink:href="#LiberationSans-30"/>
       <use x="872.94921875" xlink:href="#LiberationSans-30"/>
      </g>
     </g>
    </g>
    <g id="xtick_4">
     <g id="line2d_10">
      <path clip-path="url(#p5618748bf2)" d="M 406.967484 356.4 
L 406.967484 39.6 
" style="fill:none;stroke:#ffffff;stroke-linecap:round;"/>
     </g>
     <g id="line2d_11"/>
     <g id="line2d_12"/>
     <g id="text_4">
      <!-- 2015-12-16 13:36:00 -->
      <defs>
       <path d="M 51.21875 22.515625 
Q 51.21875 17.328125 49.78125 13 
Q 48.34375 8.6875 45.53125 5.578125 
Q 42.71875 2.484375 38.5625 0.75 
Q 34.421875 -0.984375 29 -0.984375 
Q 23 -0.984375 18.5 1.3125 
Q 14.015625 3.609375 11.03125 7.921875 
Q 8.0625 12.25 6.5625 18.53125 
Q 5.078125 24.8125 5.078125 32.8125 
Q 5.078125 42 6.765625 48.921875 
Q 8.453125 55.859375 11.625 60.5 
Q 14.796875 65.140625 19.359375 67.484375 
Q 23.921875 69.828125 29.6875 69.828125 
Q 33.203125 69.828125 36.28125 69.09375 
Q 39.359375 68.359375 41.875 66.71875 
Q 44.390625 65.09375 46.28125 62.40625 
Q 48.1875 59.71875 49.3125 55.8125 
L 40.921875 54.296875 
Q 39.546875 58.734375 36.546875 60.71875 
Q 33.546875 62.703125 29.59375 62.703125 
Q 25.984375 62.703125 23.046875 60.984375 
Q 20.125 59.28125 18.0625 55.875 
Q 16.015625 52.484375 14.90625 47.359375 
Q 13.8125 42.234375 13.8125 35.40625 
Q 16.21875 39.84375 20.5625 42.15625 
Q 24.90625 44.484375 30.515625 44.484375 
Q 35.203125 44.484375 39.015625 42.96875 
Q 42.828125 41.453125 45.53125 38.59375 
Q 48.25 35.75 49.734375 31.671875 
Q 51.21875 27.59375 51.21875 22.515625 
M 42.28125 22.125 
Q 42.28125 25.6875 41.40625 28.5625 
Q 40.53125 31.453125 38.765625 33.46875 
Q 37.015625 35.5 34.421875 36.59375 
Q 31.84375 37.703125 28.421875 37.703125 
Q 26.03125 37.703125 23.578125 36.984375 
Q 21.140625 36.28125 19.15625 34.6875 
Q 17.1875 33.109375 15.9375 30.515625 
Q 14.703125 27.9375 14.703125 24.21875 
Q 14.703125 20.40625 15.671875 17.109375 
Q 16.65625 13.8125 18.484375 11.375 
Q 20.3125 8.9375 22.890625 7.515625 
Q 25.484375 6.109375 28.71875 6.109375 
Q 31.890625 6.109375 34.40625 7.203125 
Q 36.921875 8.296875 38.671875 10.375 
Q 40.4375 12.453125 41.359375 15.421875 
Q 42.28125 18.40625 42.28125 22.125 
" id="LiberationSans-36"/>
      </defs>
      <g style="fill:#262626;" transform="translate(360.544046242 370.646875)scale(0.1 -0.1)">
       <use xlink:href="#LiberationSans-32"/>
       <use x="55.615234375" xlink:href="#LiberationSans-30"/>
       <use x="111.23046875" xlink:href="#LiberationSans-31"/>
       <use x="166.845703125" xlink:href="#LiberationSans-35"/>
       <use x="222.4609375" xlink:href="#LiberationSans-2d"/>
       <use x="255.76171875" xlink:href="#LiberationSans-31"/>
       <use x="311.376953125" xlink:href="#LiberationSans-32"/>
       <use x="366.9921875" xlink:href="#LiberationSans-2d"/>
       <use x="400.29296875" xlink:href="#LiberationSans-31"/>
       <use x="455.908203125" xlink:href="#LiberationSans-36"/>
       <use x="511.5234375" xlink:href="#LiberationSans-20"/>
       <use x="539.306640625" xlink:href="#LiberationSans-31"/>
       <use x="594.921875" xlink:href="#LiberationSans-33"/>
       <use x="650.537109375" xlink:href="#LiberationSans-3a"/>
       <use x="678.3203125" xlink:href="#LiberationSans-33"/>
       <use x="733.935546875" xlink:href="#LiberationSans-36"/>
       <use x="789.55078125" xlink:href="#LiberationSans-3a"/>
       <use x="817.333984375" xlink:href="#LiberationSans-30"/>
       <use x="872.94921875" xlink:href="#LiberationSans-30"/>
      </g>
     </g>
    </g>
    <g id="text_5">
     <!-- time -->
     <defs>
      <path d="M 13.484375 24.5625 
Q 13.484375 20.40625 14.328125 16.90625 
Q 15.1875 13.421875 16.96875 10.90625 
Q 18.75 8.40625 21.53125 7 
Q 24.3125 5.609375 28.21875 5.609375 
Q 33.9375 5.609375 37.375 7.90625 
Q 40.828125 10.203125 42.046875 13.71875 
L 49.75 11.53125 
Q 48.921875 9.328125 47.4375 7.109375 
Q 45.953125 4.890625 43.453125 3.09375 
Q 40.96875 1.3125 37.234375 0.15625 
Q 33.5 -0.984375 28.21875 -0.984375 
Q 16.5 -0.984375 10.375 6 
Q 4.25 12.984375 4.25 26.765625 
Q 4.25 34.1875 6.09375 39.328125 
Q 7.953125 44.484375 11.171875 47.703125 
Q 14.40625 50.921875 18.703125 52.359375 
Q 23 53.8125 27.875 53.8125 
Q 34.515625 53.8125 38.984375 51.65625 
Q 43.453125 49.515625 46.15625 45.71875 
Q 48.875 41.9375 50.015625 36.8125 
Q 51.171875 31.6875 51.171875 25.734375 
L 51.171875 24.5625 
z
M 42.09375 31.296875 
Q 41.359375 39.65625 37.84375 43.484375 
Q 34.328125 47.3125 27.734375 47.3125 
Q 25.53125 47.3125 23.109375 46.609375 
Q 20.703125 45.90625 18.65625 44.09375 
Q 16.609375 42.28125 15.1875 39.171875 
Q 13.765625 36.078125 13.578125 31.296875 
z
" id="LiberationSans-65"/>
      <path d="M 6.6875 64.0625 
L 6.6875 72.46875 
L 15.484375 72.46875 
L 15.484375 64.0625 
z
M 6.6875 0 
L 6.6875 52.828125 
L 15.484375 52.828125 
L 15.484375 0 
z
" id="LiberationSans-69"/>
      <path d="M 27.046875 0.390625 
Q 25.046875 -0.140625 22.96875 -0.453125 
Q 20.90625 -0.78125 18.171875 -0.78125 
Q 7.625 -0.78125 7.625 11.1875 
L 7.625 46.4375 
L 1.515625 46.4375 
L 1.515625 52.828125 
L 7.953125 52.828125 
L 10.546875 64.65625 
L 16.40625 64.65625 
L 16.40625 52.828125 
L 26.171875 52.828125 
L 26.171875 46.4375 
L 16.40625 46.4375 
L 16.40625 13.09375 
Q 16.40625 9.28125 17.640625 7.734375 
Q 18.890625 6.203125 21.96875 6.203125 
Q 23.25 6.203125 24.4375 6.390625 
Q 25.640625 6.59375 27.046875 6.890625 
z
" id="LiberationSans-74"/>
      <path d="M 37.5 0 
L 37.5 33.5 
Q 37.5 37.359375 37.015625 39.9375 
Q 36.53125 42.53125 35.375 44.109375 
Q 34.234375 45.703125 32.375 46.359375 
Q 30.515625 47.015625 27.828125 47.015625 
Q 25.046875 47.015625 22.796875 45.921875 
Q 20.5625 44.828125 18.96875 42.75 
Q 17.390625 40.671875 16.53125 37.625 
Q 15.671875 34.578125 15.671875 30.609375 
L 15.671875 0 
L 6.9375 0 
L 6.9375 41.546875 
Q 6.9375 43.21875 6.90625 45.046875 
Q 6.890625 46.875 6.828125 48.5 
Q 6.78125 50.140625 6.734375 51.3125 
Q 6.6875 52.484375 6.640625 52.828125 
L 14.9375 52.828125 
Q 14.984375 52.59375 15.03125 51.515625 
Q 15.09375 50.4375 15.15625 49.046875 
Q 15.234375 47.65625 15.28125 46.21875 
Q 15.328125 44.78125 15.328125 43.796875 
L 15.484375 43.796875 
Q 16.65625 46.09375 18.015625 47.953125 
Q 19.390625 49.8125 21.21875 51.09375 
Q 23.046875 52.390625 25.40625 53.09375 
Q 27.78125 53.8125 30.90625 53.8125 
Q 36.921875 53.8125 40.40625 51.421875 
Q 43.890625 49.03125 45.265625 43.796875 
L 45.40625 43.796875 
Q 46.578125 46.09375 48.046875 47.953125 
Q 49.515625 49.8125 51.46875 51.09375 
Q 53.421875 52.390625 55.859375 53.09375 
Q 58.296875 53.8125 61.421875 53.8125 
Q 65.4375 53.8125 68.328125 52.734375 
Q 71.234375 51.65625 73.09375 49.40625 
Q 74.953125 47.171875 75.828125 43.625 
Q 76.703125 40.09375 76.703125 35.203125 
L 76.703125 0 
L 68.015625 0 
L 68.015625 33.5 
Q 68.015625 37.359375 67.53125 39.9375 
Q 67.046875 42.53125 65.890625 44.109375 
Q 64.75 45.703125 62.890625 46.359375 
Q 61.03125 47.015625 58.34375 47.015625 
Q 55.5625 47.015625 53.3125 45.96875 
Q 51.078125 44.921875 49.484375 42.875 
Q 47.90625 40.828125 47.046875 37.75 
Q 46.1875 34.671875 46.1875 30.609375 
L 46.1875 0 
z
" id="LiberationSans-6d"/>
     </defs>
     <g style="fill:#262626;" transform="translate(284.81015625 385.6934375)scale(0.11 -0.11)">
      <use xlink:href="#LiberationSans-74"/>
      <use x="27.783203125" xlink:href="#LiberationSans-69"/>
      <use x="50.0" xlink:href="#LiberationSans-6d"/>
      <use x="133.30078125" xlink:href="#LiberationSans-65"/>
     </g>
    </g>
   </g>
   <g id="matplotlib.axis_2">
    <g id="ytick_1">
     <g id="line2d_13">
      <path clip-path="url(#p5618748bf2)" d="M 72 356.4 
L 518.4 356.4 
" style="fill:none;stroke:#ffffff;stroke-linecap:round;"/>
     </g>
     <g id="line2d_14"/>
     <g id="line2d_15"/>
     <g id="text_6">
      <!-- 1140 -->
      <g style="fill:#262626;" transform="translate(42.75625 358.9859375)scale(0.1 -0.1)">
       <use xlink:href="#LiberationSans-31"/>
       <use x="55.615234375" xlink:href="#LiberationSans-31"/>
       <use x="111.23046875" xlink:href="#LiberationSans-34"/>
       <use x="166.845703125" xlink:href="#LiberationSans-30"/>
      </g>
     </g>
    </g>
    <g id="ytick_2">
     <g id="line2d_16">
      <path clip-path="url(#p5618748bf2)" d="M 72 321.2 
L 518.4 321.2 
" style="fill:none;stroke:#ffffff;stroke-linecap:round;"/>
     </g>
     <g id="line2d_17"/>
     <g id="line2d_18"/>
     <g id="text_7">
      <!-- 1160 -->
      <g style="fill:#262626;" transform="translate(42.75625 323.7859375)scale(0.1 -0.1)">
       <use xlink:href="#LiberationSans-31"/>
       <use x="55.615234375" xlink:href="#LiberationSans-31"/>
       <use x="111.23046875" xlink:href="#LiberationSans-36"/>
       <use x="166.845703125" xlink:href="#LiberationSans-30"/>
      </g>
     </g>
    </g>
    <g id="ytick_3">
     <g id="line2d_19">
      <path clip-path="url(#p5618748bf2)" d="M 72 286 
L 518.4 286 
" style="fill:none;stroke:#ffffff;stroke-linecap:round;"/>
     </g>
     <g id="line2d_20"/>
     <g id="line2d_21"/>
     <g id="text_8">
      <!-- 1180 -->
      <defs>
       <path d="M 51.265625 19.1875 
Q 51.265625 14.796875 49.875 11.109375 
Q 48.484375 7.421875 45.625 4.734375 
Q 42.78125 2.046875 38.328125 0.53125 
Q 33.890625 -0.984375 27.828125 -0.984375 
Q 21.78125 -0.984375 17.359375 0.53125 
Q 12.9375 2.046875 10.03125 4.703125 
Q 7.125 7.375 5.734375 11.0625 
Q 4.34375 14.75 4.34375 19.09375 
Q 4.34375 22.859375 5.484375 25.78125 
Q 6.640625 28.71875 8.5625 30.828125 
Q 10.5 32.953125 12.96875 34.25 
Q 15.4375 35.546875 18.0625 35.984375 
L 18.0625 36.1875 
Q 15.1875 36.859375 12.90625 38.375 
Q 10.640625 39.890625 9.09375 42.015625 
Q 7.5625 44.140625 6.75 46.71875 
Q 5.953125 49.3125 5.953125 52.203125 
Q 5.953125 55.8125 7.34375 59 
Q 8.734375 62.203125 11.46875 64.625 
Q 14.203125 67.046875 18.25 68.4375 
Q 22.3125 69.828125 27.640625 69.828125 
Q 33.25 69.828125 37.375 68.40625 
Q 41.5 67 44.203125 64.578125 
Q 46.921875 62.15625 48.234375 58.9375 
Q 49.5625 55.71875 49.5625 52.09375 
Q 49.5625 49.265625 48.75 46.671875 
Q 47.953125 44.09375 46.40625 41.96875 
Q 44.875 39.84375 42.59375 38.34375 
Q 40.328125 36.859375 37.359375 36.28125 
L 37.359375 36.078125 
Q 40.328125 35.59375 42.859375 34.296875 
Q 45.40625 33.015625 47.265625 30.890625 
Q 49.125 28.765625 50.1875 25.828125 
Q 51.265625 22.90625 51.265625 19.1875 
M 40.4375 51.609375 
Q 40.4375 54.203125 39.765625 56.34375 
Q 39.109375 58.5 37.59375 60.03125 
Q 36.078125 61.578125 33.640625 62.421875 
Q 31.203125 63.28125 27.640625 63.28125 
Q 24.171875 63.28125 21.78125 62.421875 
Q 19.390625 61.578125 17.84375 60.03125 
Q 16.3125 58.5 15.625 56.34375 
Q 14.9375 54.203125 14.9375 51.609375 
Q 14.9375 49.5625 15.46875 47.40625 
Q 16.015625 45.265625 17.421875 43.5 
Q 18.84375 41.75 21.328125 40.625 
Q 23.828125 39.5 27.734375 39.5 
Q 31.890625 39.5 34.40625 40.625 
Q 36.921875 41.75 38.25 43.5 
Q 39.59375 45.265625 40.015625 47.40625 
Q 40.4375 49.5625 40.4375 51.609375 
M 42.140625 20.015625 
Q 42.140625 22.515625 41.453125 24.828125 
Q 40.765625 27.15625 39.109375 28.9375 
Q 37.453125 30.71875 34.640625 31.8125 
Q 31.84375 32.90625 27.640625 32.90625 
Q 23.78125 32.90625 21.0625 31.8125 
Q 18.359375 30.71875 16.671875 28.90625 
Q 14.984375 27.09375 14.203125 24.71875 
Q 13.421875 22.359375 13.421875 19.828125 
Q 13.421875 16.65625 14.203125 14.03125 
Q 14.984375 11.421875 16.6875 9.546875 
Q 18.40625 7.671875 21.1875 6.640625 
Q 23.96875 5.609375 27.9375 5.609375 
Q 31.9375 5.609375 34.671875 6.640625 
Q 37.40625 7.671875 39.0625 9.546875 
Q 40.71875 11.421875 41.421875 14.078125 
Q 42.140625 16.75 42.140625 20.015625 
" id="LiberationSans-38"/>
      </defs>
      <g style="fill:#262626;" transform="translate(42.75625 288.5859375)scale(0.1 -0.1)">
       <use xlink:href="#LiberationSans-31"/>
       <use x="55.615234375" xlink:href="#LiberationSans-31"/>
       <use x="111.23046875" xlink:href="#LiberationSans-38"/>
       <use x="166.845703125" xlink:href="#LiberationSans-30"/>
      </g>
     </g>
    </g>
    <g id="ytick_4">
     <g id="line2d_22">
      <path clip-path="url(#p5618748bf2)" d="M 72 250.8 
L 518.4 250.8 
" style="fill:none;stroke:#ffffff;stroke-linecap:round;"/>
     </g>
     <g id="line2d_23"/>
     <g id="line2d_24"/>
     <g id="text_9">
      <!-- 1200 -->
      <g style="fill:#262626;" transform="translate(42.75625 253.3859375)scale(0.1 -0.1)">
       <use xlink:href="#LiberationSans-31"/>
       <use x="55.615234375" xlink:href="#LiberationSans-32"/>
       <use x="111.23046875" xlink:href="#LiberationSans-30"/>
       <use x="166.845703125" xlink:href="#LiberationSans-30"/>
      </g>
     </g>
    </g>
    <g id="ytick_5">
     <g id="line2d_25">
      <path clip-path="url(#p5618748bf2)" d="M 72 215.6 
L 518.4 215.6 
" style="fill:none;stroke:#ffffff;stroke-linecap:round;"/>
     </g>
     <g id="line2d_26"/>
     <g id="line2d_27"/>
     <g id="text_10">
      <!-- 1220 -->
      <g style="fill:#262626;" transform="translate(42.75625 218.1859375)scale(0.1 -0.1)">
       <use xlink:href="#LiberationSans-31"/>
       <use x="55.615234375" xlink:href="#LiberationSans-32"/>
       <use x="111.23046875" xlink:href="#LiberationSans-32"/>
       <use x="166.845703125" xlink:href="#LiberationSans-30"/>
      </g>
     </g>
    </g>
    <g id="ytick_6">
     <g id="line2d_28">
      <path clip-path="url(#p5618748bf2)" d="M 72 180.4 
L 518.4 180.4 
" style="fill:none;stroke:#ffffff;stroke-linecap:round;"/>
     </g>
     <g id="line2d_29"/>
     <g id="line2d_30"/>
     <g id="text_11">
      <!-- 1240 -->
      <g style="fill:#262626;" transform="translate(42.75625 182.9859375)scale(0.1 -0.1)">
       <use xlink:href="#LiberationSans-31"/>
       <use x="55.615234375" xlink:href="#LiberationSans-32"/>
       <use x="111.23046875" xlink:href="#LiberationSans-34"/>
       <use x="166.845703125" xlink:href="#LiberationSans-30"/>
      </g>
     </g>
    </g>
    <g id="ytick_7">
     <g id="line2d_31">
      <path clip-path="url(#p5618748bf2)" d="M 72 145.2 
L 518.4 145.2 
" style="fill:none;stroke:#ffffff;stroke-linecap:round;"/>
     </g>
     <g id="line2d_32"/>
     <g id="line2d_33"/>
     <g id="text_12">
      <!-- 1260 -->
      <g style="fill:#262626;" transform="translate(42.75625 147.7859375)scale(0.1 -0.1)">
       <use xlink:href="#LiberationSans-31"/>
       <use x="55.615234375" xlink:href="#LiberationSans-32"/>
       <use x="111.23046875" xlink:href="#LiberationSans-36"/>
       <use x="166.845703125" xlink:href="#LiberationSans-30"/>
      </g>
     </g>
    </g>
    <g id="ytick_8">
     <g id="line2d_34">
      <path clip-path="url(#p5618748bf2)" d="M 72 110 
L 518.4 110 
" style="fill:none;stroke:#ffffff;stroke-linecap:round;"/>
     </g>
     <g id="line2d_35"/>
     <g id="line2d_36"/>
     <g id="text_13">
      <!-- 1280 -->
      <g style="fill:#262626;" transform="translate(42.75625 112.5859375)scale(0.1 -0.1)">
       <use xlink:href="#LiberationSans-31"/>
       <use x="55.615234375" xlink:href="#LiberationSans-32"/>
       <use x="111.23046875" xlink:href="#LiberationSans-38"/>
       <use x="166.845703125" xlink:href="#LiberationSans-30"/>
      </g>
     </g>
    </g>
    <g id="ytick_9">
     <g id="line2d_37">
      <path clip-path="url(#p5618748bf2)" d="M 72 74.8 
L 518.4 74.8 
" style="fill:none;stroke:#ffffff;stroke-linecap:round;"/>
     </g>
     <g id="line2d_38"/>
     <g id="line2d_39"/>
     <g id="text_14">
      <!-- 1300 -->
      <g style="fill:#262626;" transform="translate(42.75625 77.3859375)scale(0.1 -0.1)">
       <use xlink:href="#LiberationSans-31"/>
       <use x="55.615234375" xlink:href="#LiberationSans-33"/>
       <use x="111.23046875" xlink:href="#LiberationSans-30"/>
       <use x="166.845703125" xlink:href="#LiberationSans-30"/>
      </g>
     </g>
    </g>
    <g id="ytick_10">
     <g id="line2d_40">
      <path clip-path="url(#p5618748bf2)" d="M 72 39.6 
L 518.4 39.6 
" style="fill:none;stroke:#ffffff;stroke-linecap:round;"/>
     </g>
     <g id="line2d_41"/>
     <g id="line2d_42"/>
     <g id="text_15">
      <!-- 1320 -->
      <g style="fill:#262626;" transform="translate(42.75625 42.1859375)scale(0.1 -0.1)">
       <use xlink:href="#LiberationSans-31"/>
       <use x="55.615234375" xlink:href="#LiberationSans-33"/>
       <use x="111.23046875" xlink:href="#LiberationSans-32"/>
       <use x="166.845703125" xlink:href="#LiberationSans-30"/>
      </g>
     </g>
    </g>
   </g>
   <g id="line2d_43">
    <path clip-path="url(#p5618748bf2)" d="M 72 136.138976 
L 72.223312 118.72131 
L 72.446623 127.866976 
L 72.669935 141.793507 
L 73.116558 131.809376 
L 73.33987 143.683041 
L 73.563182 145.735907 
L 74.009805 135.411041 
L 74.233117 120.628444 
L 74.67974 151.762844 
L 74.903052 156.028378 
L 75.126363 157.594778 
L 75.349675 154.316247 
L 75.572986 143.991381 
L 75.796298 152.004312 
L 76.242921 135.009047 
L 76.466233 138.223512 
L 76.689545 138.223512 
L 76.912856 121.597847 
L 77.136168 124.361047 
L 77.35948 111.354647 
L 77.582791 112.743644 
L 77.806103 119.772378 
L 78.029415 120.887512 
L 78.252726 112.615512 
L 78.476038 110.175447 
L 78.69935 112.533847 
L 79.145973 130.597781 
L 79.369285 132.568981 
L 79.592596 126.268181 
L 79.815908 116.089047 
L 80.03922 120.823447 
L 80.262531 108.204247 
L 80.485843 110.967447 
L 80.709155 103.810581 
L 81.155778 129.546712 
L 81.37909 129.951512 
L 81.602401 133.31171 
L 81.825713 131.130712 
L 82.049025 131.130712 
L 82.272336 128.836378 
L 82.495648 130.661847 
L 82.942271 116.476247 
L 83.165583 126.801112 
L 83.388894 115.701847 
L 83.612206 113.325847 
L 84.058829 119.626647 
L 84.282141 120.095512 
L 84.505453 128.367512 
L 84.728764 127.188312 
L 84.952076 119.772378 
L 85.175388 119.772378 
L 85.398699 125.81411 
L 85.845323 90.656367 
L 86.068634 110.819633 
L 86.291946 96.505902 
L 86.515258 107.200367 
L 86.738569 100.30257 
L 86.961881 98.395436 
L 87.185193 94.857836 
L 87.408504 98.800236 
L 87.631816 111.33777 
L 87.855128 102.209704 
L 88.078439 104.24497 
L 88.525063 91.092839 
L 88.748374 87.086373 
L 88.971686 88.798504 
L 89.194997 99.12337 
L 89.418309 100.68977 
L 89.641621 112.51697 
L 89.864932 103.307239 
L 90.088244 112.581036 
L 90.311556 113.841902 
L 90.534867 119.932904 
L 90.758179 117.492839 
L 90.981491 127.412904 
L 91.204802 127.736039 
L 91.428114 126.556839 
L 91.651426 130.176104 
L 91.874737 128.059173 
L 92.098049 137.123173 
L 92.321361 130.886439 
L 92.544672 135.684904 
L 92.767984 157.755304 
L 92.991296 151.390439 
L 93.437919 166.819304 
L 93.661231 164.056104 
L 93.884542 166.49617 
L 94.107854 165.768236 
L 94.331166 166.10897 
L 94.554477 163.34577 
L 94.777789 156.25297 
L 95.001101 161.438636 
L 95.224412 162.294702 
L 95.447724 167.885167 
L 95.671036 164.006833 
L 95.894347 169.274165 
L 96.117659 161.261233 
L 96.34097 162.763567 
L 96.564282 167.562033 
L 96.787594 177.158965 
L 97.010905 167.690165 
L 97.234217 170.858165 
L 97.457529 160.938099 
L 97.904152 126.976433 
L 98.127464 126.507567 
L 98.350775 130.190899 
L 98.574087 125.797233 
L 98.797399 129.416499 
L 99.02071 137.04223 
L 99.244022 137.752565 
L 99.467334 135.394165 
L 99.690645 138.931765 
L 99.913957 136.104499 
L 100.137269 140.110965 
L 100.36058 136.896499 
L 100.583892 142.341233 
L 100.807204 141.226099 
L 101.030515 134.861233 
L 101.253827 144.376499 
L 101.477139 145.168499 
L 101.70045 144.781299 
L 101.923762 155.475765 
L 102.147074 117.976499 
L 102.370385 136.104499 
L 102.593697 125.392433 
L 103.04032 119.350702 
L 103.263632 115.813102 
L 103.486943 115.085167 
L 103.710255 129.480565 
L 103.933567 122.387765 
L 104.156878 121.208565 
L 104.38019 129.867765 
L 104.826813 135.07103 
L 105.050125 128.301365 
L 105.273437 116.086965 
L 105.496748 116.53823 
L 105.943372 134.343096 
L 106.166683 130.805496 
L 106.389995 123.01248 
L 106.613307 105.971896 
L 106.836618 113.94848 
L 107.05993 107.26048 
L 107.283242 105.28928 
L 107.506553 106.145346 
L 107.729865 108.116546 
L 107.953177 116.388546 
L 108.176488 115.12768 
L 108.3998 115.209346 
L 108.846423 128.279812 
L 109.069735 120.330946 
L 109.293047 126.631746 
L 109.516358 121.510146 
L 109.73967 150.59168 
L 109.962981 143.019896 
L 110.186293 147.05408 
L 110.409605 147.736696 
L 110.632916 152.17568 
L 110.856228 153.418946 
L 111.07954 150.59168 
L 111.302851 156.89248 
L 111.749475 179.026946 
L 111.972786 179.36768 
L 112.196098 177.78368 
L 112.41941 173.04928 
L 112.642721 178.466296 
L 112.866033 168.33248 
L 113.089345 175.81248 
L 113.312656 166.251896 
L 113.535968 164.685496 
L 113.75928 167.217346 
L 113.982591 167.217346 
L 114.205903 169.980546 
L 114.652526 158.86368 
L 114.875838 159.563896 
L 115.09915 153.650296 
L 115.322461 150.887096 
L 115.545773 151.679096 
L 115.769085 149.320696 
L 115.992396 152.96768 
L 116.215708 149.320696 
L 116.43902 143.794296 
L 116.885643 154.76543 
L 117.108954 155.525036 
L 117.332266 148.36817 
L 117.555578 164.52497 
L 117.778889 151.195436 
L 118.002201 153.166636 
L 118.225513 140.419304 
L 118.448824 158.61137 
L 118.672136 148.36817 
L 118.895448 163.409836 
L 119.118759 160.728302 
L 119.342071 174.121902 
L 119.788694 159.872236 
L 120.235318 168.354033 
L 120.458629 165.978033 
L 120.681941 167.626099 
L 120.905253 175.446833 
L 121.351876 155.411699 
L 121.575188 157.446965 
L 122.021811 140.305967 
L 122.245123 141.421102 
L 122.468434 137.801836 
L 122.691746 142.987502 
L 123.584992 112.645102 
L 123.808304 122.501102 
L 124.031616 122.905902 
L 124.254927 128.478767 
L 124.478239 128.478767 
L 124.701551 132.890033 
L 124.924862 133.682033 
L 125.148174 143.197299 
L 126.041421 160.856433 
L 126.264732 161.261233 
L 126.488044 144.571502 
L 126.711356 148.513902 
L 126.934667 146.137902 
L 127.157979 141.339436 
L 127.381291 139.70897 
L 127.604602 131.41937 
L 128.051226 139.901167 
L 128.274537 131.565102 
L 128.497849 132.293036 
L 128.944472 158.904915 
L 129.167784 159.760981 
L 129.391096 159.356181 
L 129.614407 162.442515 
L 129.837719 162.055315 
L 130.061031 182.928915 
L 130.284342 177.015315 
L 130.507654 179.988312 
L 130.730965 191.087578 
L 130.954277 182.105244 
L 131.624212 193.914844 
L 131.847524 177.629912 
L 132.070835 177.953047 
L 132.294147 175.253912 
L 132.517459 176.450712 
L 132.74077 168.097047 
L 132.964082 175.981847 
L 133.187394 188.906581 
L 133.410705 175.384849 
L 133.634017 186.015249 
L 133.857329 174.592849 
L 134.08064 171.442449 
L 134.303952 177.015315 
L 134.527264 172.298515 
L 134.750575 170.004181 
L 134.973887 174.866712 
L 135.197199 172.572378 
L 135.42051 163.703381 
L 135.643822 166.530647 
L 135.867134 172.039447 
L 136.090445 163.703381 
L 136.313757 162.506581 
L 136.983692 186.612247 
L 137.430315 181.103447 
L 137.653627 171.183381 
L 137.876938 171.119315 
L 138.10025 174.059918 
L 138.323562 166.643984 
L 138.770185 183.979984 
L 138.993497 193.043984 
L 139.216808 181.539918 
L 139.44012 182.800784 
L 139.663432 186.274318 
L 139.886743 178.776718 
L 140.110055 189.101584 
L 140.556678 176.887184 
L 140.77999 175.626318 
L 141.003302 176.482384 
L 141.226613 213.853518 
L 141.449925 215.824718 
L 141.673237 223.386384 
L 141.896548 224.952784 
L 142.343172 214.709584 
L 142.566483 211.946384 
L 142.789795 211.495118 
L 143.45973 218.716049 
L 143.683042 214.450515 
L 143.906353 222.012181 
L 144.352976 210.976981 
L 144.576288 221.607381 
L 144.7996 217.277781 
L 145.022911 221.284247 
L 145.246223 222.076247 
L 145.469535 222.076247 
L 145.692846 226.487512 
L 145.916158 217.874778 
L 146.13947 224.967578 
L 146.809405 251.772378 
L 147.032716 242.644312 
L 147.256028 238.297112 
L 147.47934 237.650844 
L 147.925963 210.394778 
L 148.149275 204.093978 
L 148.372586 210.007578 
L 148.595898 208.423578 
L 148.81921 215.516378 
L 149.042521 208.036378 
L 149.265833 213.949978 
L 149.489145 215.129178 
L 149.712456 219.522844 
L 150.15908 209.102241 
L 150.382391 200.68451 
L 150.605703 202.26851 
L 150.829015 210.54051 
L 151.052326 212.188576 
L 151.275638 202.26851 
L 151.498949 214.546976 
L 151.722261 219.135644 
L 151.945573 211.978778 
L 152.168884 214.337178 
L 152.392196 209.215578 
L 152.615508 214.806044 
L 152.838819 216.308378 
L 153.062131 172.572378 
L 153.285443 174.138778 
L 153.508754 168.629978 
L 153.732066 173.282712 
L 154.402001 154.913244 
L 154.625313 163.977244 
L 154.848624 164.623512 
L 155.071936 170.601178 
L 155.295248 166.594712 
L 155.965183 172.831447 
L 156.188494 164.477781 
L 156.411806 164.800915 
L 156.635118 160.940181 
L 156.858429 165.269781 
L 157.305053 184.576981 
L 157.528364 188.906581 
L 157.751676 188.842515 
L 157.974987 195.999381 
L 158.198299 195.676247 
L 158.421611 204.417112 
L 158.644922 204.417112 
L 158.868234 212.560981 
L 159.091546 201.525781 
L 159.314857 213.335381 
L 159.538169 219.184915 
L 159.984792 205.855381 
L 160.208104 207.826581 
L 160.878039 194.756115 
L 161.324662 197.906515 
L 161.547974 205.468181 
L 161.771286 192.316049 
L 161.994597 194.287249 
L 162.217909 211.300115 
L 162.441221 219.184915 
L 162.664532 213.999249 
L 162.887844 225.808849 
L 163.111156 218.328849 
L 163.334467 217.859984 
L 163.781091 202.026318 
L 164.004402 208.795984 
L 164.227714 208.408784 
L 164.451026 209.652049 
L 164.674337 234.549715 
L 164.897649 234.872849 
L 165.12096 224.629649 
L 165.344272 224.693715 
L 165.567584 222.722515 
L 165.790895 214.063315 
L 166.014207 212.884115 
L 166.237519 220.364115 
L 166.907454 203.028115 
L 167.130765 196.663249 
L 167.354077 204.143249 
L 167.577389 203.738449 
L 167.8007 209.733715 
L 168.024012 204.207315 
L 168.247324 220.751315 
L 168.470635 214.450515 
L 168.917259 236.584981 
L 169.363882 225.098515 
L 169.587194 229.040915 
L 169.810505 228.572049 
L 170.257129 210.298318 
L 170.48044 213.530384 
L 170.703752 214.240718 
L 170.927064 211.495118 
L 171.373687 198.488718 
L 171.596998 197.309518 
L 171.82031 202.559249 
L 172.043622 233.062176 
L 172.490245 222.108641 
L 172.713557 234.387107 
L 172.936868 239.185573 
L 173.16018 231.236707 
L 173.383492 230.913573 
L 173.606803 225.323107 
L 173.830115 230.185639 
L 174.276738 219.345441 
L 174.723362 228.860707 
L 174.946673 230.444707 
L 175.169985 229.183841 
L 175.393297 219.345441 
L 175.616608 193.009507 
L 175.83992 201.363173 
L 176.063232 193.414307 
L 176.286543 196.564707 
L 176.733167 192.881376 
L 176.956478 195.239776 
L 177.17979 193.59171 
L 177.403102 194.642778 
L 177.626413 192.266778 
L 177.849725 191.151644 
L 178.073037 200.215644 
L 178.296348 191.556444 
L 178.966283 207.77731 
L 179.189595 207.713244 
L 179.412906 209.151512 
L 179.636218 204.804312 
L 180.082841 208.487644 
L 180.306153 199.828444 
L 180.529465 204.885978 
L 180.752776 202.122778 
L 180.976088 193.122844 
L 181.1994 195.498844 
L 181.422711 184.850844 
L 181.646023 184.399578 
L 181.869335 182.428378 
L 182.092646 191.023512 
L 182.315958 186.612247 
L 182.53927 187.791447 
L 182.762581 187.468312 
L 182.985893 199.231447 
L 183.209205 191.733847 
L 183.432516 193.786712 
L 183.655828 187.468312 
L 183.87914 176.837912 
L 184.102451 180.908444 
L 184.325763 169.017178 
L 184.772386 174.930778 
L 184.995698 163.831512 
L 185.21901 170.924312 
L 185.442321 163.508378 
L 185.665633 160.681112 
L 185.888944 163.831512 
L 186.112256 156.738712 
L 186.335568 158.241047 
L 186.558879 148.402647 
L 187.228814 162.652312 
L 187.452126 161.068312 
L 187.675438 152.796312 
L 187.898749 150.825112 
L 188.122061 158.709912 
L 188.345373 159.033047 
L 188.568684 160.212247 
L 188.791996 156.269847 
L 189.015308 159.097112 
L 189.238619 159.889112 
L 189.461931 157.917912 
L 189.685243 159.501912 
L 189.908554 153.588312 
L 190.131866 138.223512 
L 190.355178 135.929178 
L 190.578489 131.986778 
L 190.801801 135.541978 
L 191.025113 118.980378 
L 191.248424 124.101978 
L 191.471736 124.425112 
L 191.918359 134.814044 
L 192.141671 186.822044 
L 192.364982 176.901978 
L 192.588294 187.549978 
L 192.811606 184.463644 
L 193.034917 190.44131 
L 193.258229 176.450712 
L 193.481541 178.340247 
L 193.704852 170.860247 
L 193.928164 174.802647 
L 194.374787 196.081047 
L 194.598099 191.346647 
L 194.821411 189.762647 
L 195.044722 194.884247 
L 195.268034 195.676247 
L 195.491346 184.512915 
L 195.714657 186.338384 
L 195.937969 186.338384 
L 196.161281 182.008784 
L 196.384592 188.696784 
L 196.607904 191.072784 
L 196.831216 199.408849 
L 197.054527 189.570449 
L 197.277839 195.871249 
L 197.501151 186.338384 
L 197.724462 187.130384 
L 198.171086 192.251984 
L 198.394397 185.095118 
L 198.617709 192.720849 
L 198.841021 180.957715 
L 199.064332 179.309649 
L 199.287644 176.159249 
L 199.510955 175.044115 
L 199.957579 166.708049 
L 200.850825 188.778449 
L 201.074137 183.252049 
L 201.297449 191.928849 
L 201.52076 187.599249 
L 201.744072 195.466449 
L 201.967384 189.957649 
L 202.190695 191.200915 
L 202.414007 183.252049 
L 202.637319 193.640981 
L 202.86063 173.413649 
L 203.083942 172.621649 
L 203.530565 178.130449 
L 203.753877 167.823184 
L 203.977189 171.765584 
L 204.2005 165.851984 
L 204.423812 170.973584 
L 204.647124 167.435984 
L 204.870435 160.794449 
L 205.093747 161.650515 
L 205.317059 166.772115 
L 205.54037 168.824981 
L 205.763682 168.420181 
L 205.986993 167.176915 
L 206.210305 147.723984 
L 206.433617 160.407249 
L 206.656928 161.973649 
L 206.88024 161.586449 
L 207.103552 163.234515 
L 207.550175 151.279184 
L 207.773487 170.004181 
L 207.996798 175.044115 
L 208.22011 175.512981 
L 208.443422 180.698647 
L 208.890045 183.930712 
L 209.336668 176.773847 
L 209.55998 183.461847 
L 209.783292 184.317912 
L 210.006603 178.809112 
L 210.229915 187.017047 
L 210.453227 201.202647 
L 210.676538 190.167447 
L 210.89985 192.138647 
L 211.123162 180.634581 
L 211.569785 181.572312 
L 211.793097 122.002647 
L 212.016408 134.281112 
L 212.23972 129.887447 
L 212.463032 120.031447 
L 212.686343 145.252247 
L 212.909655 141.697047 
L 213.132966 132.633047 
L 213.356278 138.159447 
L 213.802901 162.588247 
L 214.026213 159.825047 
L 214.249525 153.119447 
L 214.472836 159.889112 
L 215.142771 130.338712 
L 215.366083 131.599578 
L 215.589395 116.153112 
L 215.812706 117.332312 
L 216.036018 115.894044 
L 216.25933 121.88931 
L 216.482641 124.183644 
L 217.152576 89.365912 
L 217.375888 87.863578 
L 217.5992 71.706778 
L 217.822511 69.266712 
L 218.045823 80.365978 
L 218.269135 85.487578 
L 218.492446 76.828378 
L 218.715758 79.978778 
L 218.93907 70.122778 
L 219.385693 89.17091 
L 219.609005 85.892378 
L 219.832316 96.135578 
L 220.055628 87.135644 
L 220.278939 90.932312 
L 220.502251 92.193178 
L 220.725563 98.817112 
L 220.948874 96.927578 
L 221.172186 105.973978 
L 221.395498 109.141978 
L 221.842121 83.452312 
L 222.065433 111.436312 
L 222.288744 106.765978 
L 222.512056 115.361112 
L 222.735368 133.634844 
L 223.181991 115.765912 
L 223.405303 122.002647 
L 223.628614 105.376981 
L 223.851926 107.752981 
L 224.075238 106.314712 
L 224.521861 108.204247 
L 224.745173 117.268247 
L 224.968484 120.418647 
L 225.191796 119.239447 
L 225.415108 135.396247 
L 225.638419 135.396247 
L 225.861731 132.568981 
L 226.308354 122.712981 
L 226.531666 126.655381 
L 226.754977 125.945047 
L 226.978289 127.511447 
L 227.201601 131.130712 
L 227.424912 129.159512 
L 227.648224 132.245847 
L 227.871536 125.621912 
L 228.094847 125.217112 
L 228.318159 122.389847 
L 228.541471 101.839381 
L 228.764782 91.596181 
L 228.988094 99.076181 
L 229.211406 110.580247 
L 229.434717 106.637847 
L 229.658029 97.169047 
L 229.881341 97.040915 
L 230.104652 102.290647 
L 230.774587 131.066647 
L 230.997899 123.892181 
L 231.221211 129.159512 
L 231.444522 121.597847 
L 231.667834 122.794647 
L 231.891146 124.829912 
L 232.114457 124.570844 
L 232.561081 119.836444 
L 232.784392 136.930976 
L 233.007704 127.78531 
L 233.231016 135.993244 
L 233.454327 149.791644 
L 233.677639 150.501978 
L 233.90095 153.329244 
L 234.124262 152.150044 
L 234.347574 149.386844 
L 234.570885 155.705244 
L 234.794197 151.293978 
L 235.017509 160.745178 
L 235.24082 161.473112 
L 235.464132 162.716378 
L 235.687444 174.220444 
L 235.910755 173.815644 
L 236.134067 171.780378 
L 236.58069 165.948444 
L 236.804002 168.242778 
L 237.027314 168.306844 
L 237.473937 166.271578 
L 237.697249 171.457244 
L 237.92056 179.79331 
L 238.143872 168.694044 
L 238.590495 167.98371 
L 238.813807 172.782176 
L 239.26043 174.430241 
L 239.483742 177.967841 
L 239.707054 173.169376 
L 239.930365 185.060641 
L 240.153677 185.447841 
L 240.376988 184.350307 
L 240.6003 183.881441 
L 240.823612 177.111776 
L 241.046923 185.529507 
L 241.270235 180.326241 
L 241.493547 181.910241 
L 241.716858 185.852641 
L 241.94017 194.916641 
L 242.163482 209.489441 
L 242.610105 215.015841 
L 242.833417 241.867107 
L 243.056728 246.924641 
L 243.28004 235.630373 
L 243.503352 237.537507 
L 243.726663 231.236707 
L 243.949975 220.911841 
L 244.173287 241.867107 
L 244.396598 242.271907 
L 244.61991 239.039841 
L 245.289845 220.588707 
L 245.513157 229.393639 
L 245.95978 216.646307 
L 246.183092 218.940641 
L 246.406403 216.195041 
L 246.629715 223.739107 
L 246.853027 223.287841 
L 247.076338 218.876576 
L 247.29965 228.327776 
L 247.746273 224.272039 
L 248.192896 205.692773 
L 248.416208 216.323173 
L 248.63952 210.814373 
L 248.862831 225.128104 
L 250.202701 251.350702 
L 250.426013 251.673836 
L 250.649325 274.923436 
L 250.872636 265.00337 
L 251.095948 262.304236 
L 251.542571 271.045102 
L 251.989195 287.525036 
L 252.212506 277.750702 
L 252.435818 277.814767 
L 252.65913 279.398767 
L 252.882441 267.507502 
L 253.105753 278.606767 
L 253.329065 270.981036 
L 253.552376 278.201967 
L 253.775688 275.456367 
L 253.998999 265.213167 
L 254.222311 266.843633 
L 254.445623 262.062767 
L 254.668934 277.555699 
L 254.892246 276.440565 
L 255.115558 279.82848 
L 255.338869 267.05343 
L 255.562181 270.99583 
L 256.008804 292.743096 
L 256.232116 290.30303 
L 256.455428 291.48223 
L 256.902051 304.10143 
L 257.125363 303.69663 
L 257.348674 297.80063 
L 257.571986 309.287096 
L 257.795298 301.807096 
L 258.018609 311.258296 
L 258.241921 308.107896 
L 258.688544 298.57503 
L 259.135168 291.09503 
L 259.358479 290.949299 
L 260.028414 282.758965 
L 260.251726 285.504565 
L 260.475038 277.637365 
L 260.698349 283.938165 
L 260.921661 275.197299 
L 261.144972 274.469365 
L 261.591596 279.67263 
L 262.038219 268.573365 
L 262.261531 269.347765 
L 262.484842 278.024565 
L 262.708154 281.174965 
L 262.931466 281.110899 
L 263.154777 277.168499 
L 263.378089 280.254833 
L 263.601401 271.901167 
L 263.824712 283.792433 
L 264.048024 289.641967 
L 264.271336 287.734833 
L 264.494647 293.712499 
L 264.717959 283.405233 
L 265.164582 284.197233 
L 265.387894 288.462767 
L 265.834517 309.013233 
L 266.057829 315.054965 
L 266.281141 313.406899 
L 266.727764 301.274165 
L 266.951076 311.19423 
L 267.174387 309.61023 
L 267.397699 311.517365 
L 267.621011 302.066165 
L 267.844322 300.95103 
L 268.067634 297.718965 
L 268.290945 305.990965 
L 268.514257 293.002165 
L 268.737569 292.27423 
L 268.96088 289.12383 
L 269.184192 288.800696 
L 269.407504 278.944696 
L 269.630815 275.407096 
L 269.854127 277.378296 
L 270.077439 267.45823 
L 270.30075 274.55103 
L 270.524062 273.290165 
L 270.747374 281.320696 
L 270.970685 276.67808 
L 271.193997 275.794296 
L 271.417309 281.707896 
L 271.64062 284.471096 
L 271.863932 290.86368 
L 272.310555 269.666946 
L 272.757179 264.932546 
L 272.98049 264.07648 
L 273.427114 275.175746 
L 273.650425 266.83968 
L 273.873737 271.620546 
L 274.097049 269.262146 
L 274.32036 256.099896 
L 274.543672 252.718146 
L 274.990295 242.79808 
L 275.213607 245.15648 
L 275.66023 232.94208 
L 275.883542 229.79168 
L 276.330165 216.866946 
L 276.553477 225.138946 
L 276.776788 223.49088 
L 277.0001 223.10368 
L 277.223412 229.855746 
L 277.670035 214.65823 
L 277.893347 223.72223 
L 278.116658 217.80863 
L 278.33997 223.72223 
L 278.563282 215.83743 
L 278.786593 196.384499 
L 279.009905 203.154165 
L 279.233217 206.38623 
L 279.456528 187.07903 
L 279.67984 198.970296 
L 280.126463 207.72128 
L 280.349775 215.60608 
L 280.573087 211.66368 
L 280.796398 216.78528 
L 281.01971 217.254146 
L 281.243022 236.707078 
L 281.466333 234.654212 
L 281.689645 236.707078 
L 281.912956 228.417478 
L 282.136268 235.851012 
L 282.582891 225.735943 
L 282.806203 228.886343 
L 283.029515 238.337543 
L 283.252826 237.950343 
L 283.476138 252.927943 
L 283.69945 250.100678 
L 283.922761 249.89088 
L 284.369385 243.59008 
L 284.816008 249.48608 
L 285.03932 254.62528 
L 285.262631 241.509496 
L 285.485943 249.09888 
L 285.709255 248.71168 
L 285.932566 242.00608 
L 286.155878 241.21408 
L 286.602501 223.399096 
L 286.825813 222.607096 
L 287.049125 227.43328 
L 287.272436 229.40448 
L 287.495748 234.52608 
L 287.71906 252.071878 
L 287.942371 253.187012 
L 288.165683 253.251078 
L 288.388994 257.580678 
L 288.612306 269.859143 
L 288.835618 259.939078 
L 289.058929 256.724612 
L 289.282241 258.759878 
L 289.505553 264.350343 
L 289.728864 258.436743 
L 290.175488 264.350343 
L 290.398799 257.644743 
L 290.622111 260.020743 
L 290.845423 257.644743 
L 291.068734 258.905609 
L 291.292046 253.719943 
L 291.515358 252.523143 
L 291.738669 262.265806 
L 291.961981 292.575812 
L 292.185293 286.598146 
L 292.408604 288.246212 
L 292.631916 285.095812 
L 293.301851 305.792009 
L 293.525163 309.798475 
L 293.748474 307.568206 
L 293.971786 309.152206 
L 294.195098 321.317335 
L 294.418409 326.907801 
L 294.641721 308.634069 
L 295.088344 323.029467 
L 295.534967 314.693401 
L 295.758279 319.410201 
L 295.981591 313.837335 
L 296.204902 318.166935 
L 296.651526 295.645269 
L 296.874837 299.651735 
L 297.098149 293.333335 
L 297.321461 294.981401 
L 297.544772 297.744601 
L 297.768084 296.160601 
L 297.991396 299.246935 
L 298.214707 305.757532 
L 298.438019 301.815132 
L 298.661331 304.255198 
L 298.884642 311.671132 
L 299.107954 308.051867 
L 299.331266 313.578267 
L 299.554577 310.023067 
L 299.777889 299.328601 
L 300.001201 303.335067 
L 300.447824 297.744601 
L 300.894447 276.079001 
L 301.117759 278.906267 
L 301.341071 270.165401 
L 301.787694 278.906267 
L 302.011006 267.015001 
L 302.234317 277.645401 
L 302.68094 285.530201 
L 302.904252 279.616601 
L 303.350875 274.899801 
L 303.574187 272.136601 
L 303.797499 267.402201 
L 304.02081 251.327067 
L 304.244122 260.391067 
L 304.467434 260.714201 
L 304.690745 264.251801 
L 304.914057 265.835801 
L 305.36068 288.293401 
L 305.583992 285.999067 
L 305.807304 293.479067 
L 306.030615 290.392732 
L 306.253927 284.738201 
L 306.477239 288.744667 
L 306.70055 295.450267 
L 306.923862 292.299867 
L 307.147174 293.091867 
L 307.593797 273.784667 
L 307.817109 267.547932 
L 308.04042 275.560864 
L 308.263732 272.410464 
L 308.487044 280.828196 
L 308.933667 268.93693 
L 309.156978 280.892261 
L 309.603602 253.490464 
L 309.826913 259.549796 
L 310.273537 255.220196 
L 310.496848 284.203187 
L 310.72016 290.131582 
L 310.943472 288.80665 
L 311.390095 304.231563 
L 311.613407 297.461898 
L 312.06003 303.525182 
L 312.283342 302.050566 
L 312.506653 298.016382 
L 312.729965 290.454716 
L 312.953277 289.275516 
L 313.176588 280.616316 
L 313.3999 279.096382 
L 313.623212 271.939516 
L 313.846523 279.888382 
L 314.293147 263.280316 
L 314.516458 263.280316 
L 314.73977 254.92665 
L 314.963082 253.424316 
L 315.186393 262.875516 
L 315.409705 262.488316 
L 316.07964 271.552316 
L 316.302951 274.297916 
L 316.749575 283.130566 
L 316.972886 281.951366 
L 317.196198 281.951366 
L 317.41951 275.558782 
L 317.642821 312.116363 
L 317.866133 301.404298 
L 318.089445 308.561163 
L 318.536068 303.762698 
L 318.75938 308.092298 
L 318.982691 284.778632 
L 319.206003 282.807432 
L 319.429315 284.068298 
L 319.652626 281.709898 
L 319.875938 269.413832 
L 320.09925 265.084232 
L 320.322561 273.420298 
L 320.545873 265.471432 
L 320.769185 261.869766 
L 320.992496 261.869766 
L 321.215808 267.055432 
L 321.43912 242.221832 
L 321.662431 251.367498 
L 321.885743 239.604363 
L 322.109055 241.898698 
L 322.332366 240.009163 
L 322.555678 245.922763 
L 322.778989 247.101963 
L 323.225613 230.622029 
L 323.448924 232.124363 
L 323.672236 236.858763 
L 324.118859 223.060363 
L 324.342171 231.332363 
L 324.565483 235.274763 
L 324.788794 222.737229 
L 325.012106 231.478095 
L 325.235418 235.015695 
L 325.458729 228.327695 
L 325.682041 231.073295 
L 325.905353 237.245963 
L 326.575288 228.909898 
L 326.798599 234.031498 
L 327.021911 211.897032 
L 327.245223 203.689098 
L 327.468534 187.791366 
L 327.915158 185.173898 
L 328.138469 171.698632 
L 328.361781 173.605766 
L 328.585093 177.143366 
L 328.808404 175.467582 
L 329.031716 177.935366 
L 329.255028 189.439432 
L 329.478339 175.576966 
L 329.701651 175.317898 
L 329.924962 157.513032 
L 330.371586 168.612298 
L 330.594897 161.924298 
L 330.818209 162.311498 
L 331.041521 161.842632 
L 331.264832 162.634632 
L 331.488144 162.311498 
L 332.158079 139.594829 
L 332.381391 136.316298 
L 332.604702 135.652429 
L 332.828014 109.593163 
L 333.051326 118.639563 
L 333.274637 133.294029 
L 333.497949 118.316429 
L 333.944572 126.993229 
L 334.167884 109.593163 
L 334.391196 121.466829 
L 334.614507 124.230029 
L 335.061131 136.913295 
L 335.284442 136.185361 
L 335.507754 127.785229 
L 335.954377 141.711761 
L 336.177689 145.185295 
L 336.624312 138.156561 
L 336.847624 139.335761 
L 337.070935 133.439761 
L 337.294247 132.583695 
L 337.517559 128.318161 
L 337.74087 137.461021 
L 337.964182 139.819421 
L 338.187494 136.669021 
L 338.410805 154.732955 
L 338.634117 146.720024 
L 338.857429 152.616024 
L 339.08074 146.315224 
L 339.304052 147.963289 
L 339.527364 147.252955 
L 339.750675 149.998555 
L 339.973987 147.252955 
L 340.197299 151.259421 
L 340.42061 142.454489 
L 340.643922 157.947421 
L 340.867234 155.201821 
L 341.090545 145.733021 
L 341.313857 142.905755 
L 342.430415 153.472089 
L 342.653727 156.704155 
L 343.10035 142.049689 
L 343.323662 123.065624 
L 343.770285 134.164889 
L 343.993597 130.158424 
L 344.216908 137.656024 
L 344.44022 138.430424 
L 344.663532 142.777624 
L 344.886843 139.222424 
L 345.333467 148.673624 
L 345.556778 142.308758 
L 345.78009 144.344024 
L 346.226713 131.209492 
L 346.450025 129.625492 
L 346.673337 129.625492 
L 346.896648 133.972692 
L 347.566583 119.705426 
L 347.789895 135.475026 
L 348.013207 138.238226 
L 348.236518 135.006161 
L 348.45983 148.868626 
L 348.683142 144.457361 
L 348.906453 143.747026 
L 349.129765 143.682961 
L 349.576388 150.111892 
L 349.7997 146.961492 
L 350.023012 150.047826 
L 350.246323 140.191826 
L 350.469635 141.065492 
L 350.692946 139.950358 
L 350.916258 130.481558 
L 351.13957 136.395158 
L 351.362881 137.979158 
L 351.586193 136.395158 
L 351.809505 140.014424 
L 352.032816 147.899224 
L 352.256128 145.136024 
L 352.702751 130.158424 
L 352.926063 137.656024 
L 353.149375 138.188955 
L 353.372686 144.489755 
L 353.595998 147.317021 
L 353.81931 144.166621 
L 354.265933 147.317021 
L 354.489245 148.432155 
L 354.712556 147.963289 
L 354.935868 151.905689 
L 355.15918 146.720024 
L 355.382491 146.720024 
L 355.605803 147.107224 
L 355.829115 147.043158 
L 356.052426 155.702358 
L 356.275738 151.308692 
L 356.49905 143.359826 
L 356.722361 142.422095 
L 356.945673 137.236429 
L 357.168984 135.652429 
L 357.392296 128.495563 
L 357.615608 125.199432 
L 357.838919 125.199432 
L 358.062231 124.343366 
L 358.285543 120.400966 
L 358.508854 120.482632 
L 358.732166 124.812232 
L 358.955478 119.517182 
L 359.178789 126.609982 
L 359.402101 118.661116 
L 359.625413 132.697032 
L 360.295348 111.763319 
L 360.518659 114.65465 
L 361.188594 112.360316 
L 361.411906 106.318585 
L 361.858529 114.504966 
L 362.081841 119.626566 
L 362.305153 113.152316 
L 362.528464 129.869766 
L 362.975088 129.869766 
L 363.198399 131.436166 
L 363.421711 136.639432 
L 363.645023 151.535366 
L 363.868334 150.651582 
L 364.091646 148.680382 
L 364.314957 143.494716 
L 364.538269 154.206782 
L 364.761581 156.501116 
L 364.984892 157.21145 
L 365.208204 150.587516 
L 365.654827 154.529916 
L 365.878139 152.88185 
L 366.324762 153.737916 
L 366.771386 162.478782 
L 366.994697 156.096316 
L 367.218009 160.507582 
L 367.441321 155.773182 
L 367.664632 159.328382 
L 367.887944 151.830782 
L 368.111256 151.766716 
L 368.334567 155.385982 
L 368.557879 151.766716 
L 368.781191 158.067516 
L 369.004502 156.501116 
L 369.674437 181.317116 
L 369.897749 179.022782 
L 370.121061 174.224316 
L 370.344372 175.016316 
L 370.567684 171.137982 
L 371.014307 175.467582 
L 371.46093 160.297785 
L 371.684242 160.297785 
L 371.907554 158.326585 
L 372.130865 164.30425 
L 372.8008 148.793719 
L 373.024112 147.614519 
L 373.247424 144.464119 
L 373.470735 145.643319 
L 373.694047 141.700919 
L 373.917359 146.822519 
L 374.14067 146.822519 
L 374.363982 129.955385 
L 374.587294 126.07705 
L 374.810605 120.035319 
L 375.033917 127.27385 
L 375.257229 127.66105 
L 375.48054 123.249785 
L 375.703852 127.596985 
L 375.927164 128.04825 
L 376.150475 129.63225 
L 376.373787 128.84025 
L 376.597099 129.63225 
L 376.82041 141.05465 
L 377.043722 143.02585 
L 377.267034 153.333116 
L 377.490345 145.724985 
L 377.713657 143.348985 
L 377.936968 146.58105 
L 378.16028 146.112185 
L 378.383592 158.79545 
L 378.606903 155.62745 
L 378.830215 163.91705 
L 379.50015 155.62745 
L 379.723462 154.771385 
L 379.946773 155.968185 
L 380.170085 164.30425 
L 380.393397 155.968185 
L 380.616708 158.39065 
L 380.84002 154.384185 
L 381.063332 154.384185 
L 381.286643 157.534585 
L 381.733267 155.154632 
L 381.956578 159.484232 
L 382.17989 145.298632 
L 382.626513 150.565963 
L 382.849825 148.594763 
L 383.073137 157.399695 
L 383.296448 142.422095 
L 383.51976 147.543695 
L 383.743072 147.543695 
L 383.966383 136.913295 
L 384.189695 143.214095 
L 384.413007 139.271695 
L 384.636318 143.214095 
L 384.85963 144.393295 
L 385.082941 138.028429 
L 385.306253 136.508495 
L 385.529565 141.566029 
L 385.752876 137.705295 
L 385.976188 136.508495 
L 386.1995 129.351629 
L 386.422811 131.322829 
L 386.646123 136.057229 
L 386.869435 134.473229 
L 387.092746 137.623629 
L 387.316058 138.415629 
L 387.53937 130.143629 
L 387.762681 134.942095 
L 387.985993 132.114829 
L 388.209305 136.057229 
L 388.432616 135.652429 
L 388.655928 146.751695 
L 388.87924 144.393295 
L 389.102551 146.687629 
L 389.325863 139.594829 
L 389.549175 137.623629 
L 389.772486 128.495563 
L 389.995798 128.818698 
L 390.21911 130.789898 
L 390.442421 126.055498 
L 390.665733 126.847498 
L 390.889045 139.917963 
L 391.112356 142.293963 
L 391.335668 139.853898 
L 391.558979 143.650566 
L 391.782291 142.084166 
L 392.005603 146.559498 
L 392.228914 135.378566 
L 392.452226 140.969032 
L 392.675538 136.557766 
L 392.898849 134.991366 
L 393.345473 140.904966 
L 393.792096 126.719366 
L 394.015408 132.228166 
L 394.238719 142.535432 
L 394.462031 140.112966 
L 394.685343 150.420232 
L 394.908654 144.847366 
L 395.131966 147.592966 
L 395.355278 145.234566 
L 395.801901 142.471366 
L 396.025213 146.882632 
L 396.248524 139.320966 
L 396.471836 139.789832 
L 396.695148 139.466698 
L 396.918459 141.825098 
L 397.141771 140.969032 
L 397.365083 145.767498 
L 397.588394 140.241098 
L 397.811706 139.853898 
L 398.035018 138.269898 
L 398.481641 122.130698 
L 398.704952 118.980298 
L 398.928264 124.101898 
L 399.151576 122.986763 
L 399.598199 111.159563 
L 399.821511 115.101963 
L 400.044822 117.073163 
L 400.268134 113.130763 
L 400.714757 125.732363 
L 400.938069 119.367498 
L 401.161381 120.933898 
L 401.384692 115.489163 
L 401.608004 132.114829 
L 401.831316 131.645963 
L 402.054627 135.201163 
L 402.277939 129.674763 
L 402.501251 120.869832 
L 402.724562 117.719432 
L 402.947874 110.626632 
L 403.171186 114.181832 
L 403.394497 124.230029 
L 403.617809 129.028495 
L 403.841121 128.236495 
L 404.287744 129.092561 
L 404.511056 125.554961 
L 404.734367 127.203026 
L 404.957679 124.375761 
L 405.404302 133.503826 
L 405.627614 155.897361 
L 405.850925 158.642961 
L 406.074237 156.284561 
L 406.297549 164.105295 
L 406.52086 158.983695 
L 406.744172 162.134095 
L 406.967484 161.018961 
L 407.190795 163.377361 
L 407.414107 155.492561 
L 407.637419 154.313361 
L 407.86073 156.348626 
L 408.084042 156.671761 
L 408.307354 155.105361 
L 408.530665 159.903826 
L 408.753977 160.291026 
L 409.2006 166.591826 
L 409.423912 158.724626 
L 409.647224 155.961426 
L 409.870535 160.372692 
L 410.317159 154.846292 
L 410.54047 155.702358 
L 410.763782 159.321624 
L 410.987094 156.107158 
L 411.210405 158.529624 
L 411.433717 164.507289 
L 411.657029 165.299289 
L 411.88034 168.982621 
L 412.550275 218.743476 
L 412.773587 203.232944 
L 413.22021 216.044342 
L 413.443522 207.111279 
L 413.666833 213.348013 
L 414.113457 218.920879 
L 414.336768 215.109415 
L 414.56008 213.525415 
L 414.783392 213.138215 
L 415.006703 225.885547 
L 415.230015 214.704615 
L 415.676638 235.272681 
L 415.89995 218.906084 
L 416.123262 218.19575 
L 416.346573 225.352615 
L 416.793197 212.28215 
L 417.016508 210.69815 
L 417.23982 209.987815 
L 417.463132 215.496615 
L 417.686443 209.987815 
L 417.909755 212.733415 
L 418.133067 212.346215 
L 418.356378 217.467815 
L 418.57969 217.855015 
L 418.803002 214.64055 
L 419.026313 219.37495 
L 419.472936 224.301547 
L 419.696248 228.389679 
L 419.91956 229.164079 
L 420.142871 227.597679 
L 420.589495 211.376813 
L 420.812806 214.591279 
L 421.036118 215.383279 
L 421.25943 214.591279 
L 421.482741 214.996079 
L 421.929365 217.741679 
L 422.152676 225.239279 
L 422.375988 224.042479 
L 422.5993 218.533679 
L 423.045923 221.620013 
L 423.269235 225.239279 
L 423.492546 222.412013 
L 424.162481 235.159344 
L 424.385793 237.19461 
L 424.609105 228.776879 
L 424.832416 229.164079 
L 425.055728 234.43141 
L 425.27904 230.48901 
L 425.502351 232.929076 
L 425.725663 286.884641 
L 425.948974 283.152038 
L 426.172286 296.173233 
L 426.395598 301.422964 
L 426.618909 286.512235 
L 426.842221 284.928235 
L 427.065533 274.62097 
L 427.288844 274.088038 
L 427.512156 275.477035 
L 427.735468 282.569835 
L 427.958779 273.764904 
L 428.182091 272.504038 
L 428.405403 256.024104 
L 428.628714 252.404838 
L 428.852026 258.400104 
L 429.075338 257.995304 
L 429.298649 247.04177 
L 429.521961 262.616367 
L 429.745273 267.542964 
L 429.968584 290.484225 
L 430.191896 270.77503 
L 430.415208 265.507698 
L 430.638519 273.715633 
L 430.861831 272.600498 
L 431.085143 278.190964 
L 431.531766 271.744433 
L 431.755078 270.160433 
L 431.978389 263.003567 
L 432.201701 266.153967 
L 432.425013 260.240367 
L 432.648324 243.050098 
L 432.871636 240.286898 
L 433.094947 251.127096 
L 433.318259 252.775162 
L 433.541571 248.70463 
L 433.764882 240.43263 
L 434.211506 253.712893 
L 434.434817 241.352762 
L 434.658129 237.474427 
L 434.881441 229.78463 
L 435.328064 240.883896 
L 435.551376 241.288696 
L 435.774687 238.525496 
L 435.997999 256.991425 
L 436.221311 246.151227 
L 436.444622 241.416827 
L 437.114557 206.211896 
L 437.337869 218.426296 
L 437.784492 208.50623 
L 438.007804 214.096696 
L 438.231116 209.29823 
L 438.454427 207.650164 
L 438.677739 187.213035 
L 438.901051 190.960433 
L 439.124362 184.208367 
L 439.347674 162.525167 
L 439.570985 164.432301 
L 439.794297 167.582701 
L 440.017609 177.033901 
L 440.24092 176.582635 
L 440.464232 166.25777 
L 440.687544 164.368235 
L 440.910855 169.230767 
L 441.134167 181.250164 
L 441.357479 176.920564 
L 441.804102 156.224367 
L 442.027414 150.779633 
L 442.250725 141.974701 
L 442.474037 143.089835 
L 442.697349 137.88657 
L 442.92066 142.152104 
L 443.143972 152.541035 
L 443.367284 152.07217 
L 443.590595 139.050975 
L 444.037219 152.203107 
L 444.26053 146.353572 
L 444.707154 162.638504 
L 444.930465 159.892904 
L 445.153777 165.07857 
L 445.377089 165.014504 
L 445.6004 155.094438 
L 445.823712 159.892904 
L 446.047024 154.771304 
L 446.270335 167.84177 
L 446.493647 156.273638 
L 446.716958 169.280038 
L 447.163582 172.494504 
L 447.386893 155.886438 
L 447.610205 167.43697 
L 447.833517 162.72017 
L 448.056828 163.10737 
L 448.28014 169.02097 
L 448.503452 166.580904 
L 448.726763 168.956904 
L 449.396698 180.379304 
L 449.62001 175.516772 
L 449.843322 175.839907 
L 450.066633 172.156575 
L 450.289945 162.300575 
L 450.513257 167.891041 
L 450.736568 164.804707 
L 450.95988 174.852904 
L 451.406503 159.537375 
L 451.629815 160.975644 
L 451.853127 167.809375 
L 452.076438 169.070241 
L 452.29975 171.428641 
L 452.523062 147.468707 
L 452.746373 145.820641 
L 453.192996 157.711907 
L 453.416308 152.203107 
L 453.63962 162.446307 
L 454.086243 149.294175 
L 454.532866 154.028575 
L 454.756178 159.619041 
L 454.97949 155.207775 
L 455.202801 157.647841 
L 455.426113 171.428641 
L 455.649425 171.897507 
L 455.872736 176.695972 
L 456.096048 178.667172 
L 456.31936 175.516772 
L 456.765983 165.273572 
L 456.989295 171.169572 
L 457.212606 165.273572 
L 457.435918 168.100838 
L 457.882541 175.32177 
L 458.105853 176.969835 
L 458.329165 169.344104 
L 458.775788 166.985704 
L 458.9991 169.81297 
L 459.222411 168.697835 
L 459.445723 165.87057 
L 459.669035 170.669035 
L 459.892346 167.04977 
L 460.115658 166.985704 
L 460.338969 172.17137 
L 460.785593 169.731304 
L 461.232216 155.804772 
L 461.455528 153.446372 
L 461.678839 157.388772 
L 461.902151 168.100838 
L 462.125463 166.047972 
L 462.572086 181.558504 
L 462.795398 181.025572 
L 463.242021 189.766438 
L 463.465333 187.795238 
L 463.688644 190.153638 
L 463.911956 204.744038 
L 464.135268 192.383907 
L 464.358579 203.095972 
L 464.805203 175.758241 
L 465.028514 170.977375 
L 465.251826 176.486175 
L 465.475138 177.729441 
L 465.698449 197.892707 
L 465.921761 198.297507 
L 466.145073 193.886241 
L 466.368384 171.477912 
L 466.591696 167.471446 
L 466.815008 170.767578 
L 467.038319 168.263446 
L 467.261631 152.752915 
L 467.484942 153.673046 
L 467.708254 158.407446 
L 467.931566 160.378646 
L 468.154877 153.608981 
L 468.378189 143.301715 
L 468.601501 147.244115 
L 468.824812 148.423315 
L 469.271436 156.372181 
L 469.494747 151.637781 
L 469.718059 151.573715 
L 469.941371 147.244115 
L 470.164682 151.250581 
L 470.387994 150.394515 
L 470.611306 144.012049 
L 470.834617 144.093715 
L 471.281241 150.927446 
L 471.504552 154.077846 
L 471.951176 147.453912 
L 472.174487 144.626646 
L 472.397799 151.460378 
L 472.621111 147.113178 
L 472.844422 196.277035 
L 473.291046 184.77297 
L 473.514357 186.35697 
L 473.737669 184.38577 
L 473.96098 188.797035 
L 474.184292 183.99857 
L 474.407604 191.624301 
L 474.630915 192.803501 
L 475.077539 183.59377 
L 475.30085 185.56497 
L 475.524162 180.766504 
L 475.970785 187.277101 
L 476.194097 186.953967 
L 476.417409 190.637298 
L 476.64072 187.422833 
L 476.864032 173.237233 
L 477.087344 173.237233 
L 477.310655 173.706098 
L 477.533967 168.051567 
L 477.757279 173.173167 
L 477.98059 171.653233 
L 478.203902 169.294833 
L 478.427214 173.624433 
L 478.650525 180.394098 
L 478.873837 178.746033 
L 479.097149 184.013364 
L 479.543772 186.307698 
L 479.767084 183.544498 
L 479.990395 174.885298 
L 480.213707 181.186098 
L 480.437019 173.770164 
L 480.66033 177.77663 
L 480.883642 173.770164 
L 481.106953 161.491698 
L 481.330265 165.498164 
L 481.553577 165.093364 
L 481.776888 169.035764 
L 482.0002 161.022833 
L 482.223512 167.792498 
L 482.446823 164.560433 
L 482.670135 165.757233 
L 482.893447 164.173233 
L 483.116758 160.958767 
L 483.34007 168.438767 
L 483.563382 171.653233 
L 483.786693 173.237233 
L 484.010005 169.294833 
L 484.456628 177.307764 
L 484.903252 156.288433 
L 485.126563 152.750833 
L 485.349875 153.202098 
L 485.573187 145.722098 
L 485.796498 147.224433 
L 486.01981 132.118701 
L 486.243122 107.753967 
L 486.466433 107.366767 
L 486.689745 116.025967 
L 486.913057 106.897901 
L 487.136368 123.118767 
L 487.582991 133.379567 
L 487.806303 117.222767 
L 488.029615 135.802033 
L 488.252926 128.854964 
L 488.476238 132.005364 
L 488.69955 144.28383 
L 488.922861 140.34143 
L 489.146173 142.053562 
L 489.369485 151.117562 
L 489.592796 150.343162 
L 489.816108 151.053496 
L 490.03942 157.823162 
L 490.262731 150.730362 
L 490.486043 156.175096 
L 490.709355 150.907764 
L 491.37929 152.16863 
L 491.602601 149.469496 
L 492.049225 160.504696 
L 492.272536 159.325496 
L 492.71916 144.752696 
L 492.942471 146.400762 
L 493.165783 154.349627 
L 493.389095 148.436027 
L 493.612406 151.053496 
L 493.835718 149.082296 
L 494.282341 156.562296 
L 494.505653 143.960696 
L 494.728964 150.666296 
L 494.952276 149.082296 
L 495.622211 180.991096 
L 496.068834 169.035764 
L 496.292146 169.827764 
L 496.515458 172.978164 
L 496.738769 178.504564 
L 496.962081 163.914164 
L 497.185393 169.89183 
L 497.408704 168.776696 
L 497.632016 173.44703 
L 497.855328 166.35423 
L 498.078639 167.14623 
L 498.525263 174.512893 
L 498.748574 176.871293 
L 498.971886 177.340159 
L 499.195198 183.78669 
L 499.418509 185.498822 
L 500.088444 193.366022 
L 500.535068 209.501269 
L 500.758379 204.251537 
L 500.981691 209.501269 
L 501.651626 194.782737 
L 501.874937 194.395537 
L 502.098249 202.731603 
L 502.321561 196.835603 
L 502.768184 192.037137 
L 502.991496 194.008337 
L 503.214807 185.239753 
L 503.438119 194.008337 
L 503.661431 195.187537 
L 503.884742 190.748553 
L 504.108054 188.886737 
L 504.331366 192.719753 
L 504.554677 191.153353 
L 504.777989 192.719753 
L 505.001301 187.598153 
L 505.224612 187.689937 
L 505.447924 192.037137 
L 505.671236 191.714003 
L 505.894547 190.922003 
L 506.117859 192.570069 
L 506.341171 190.130003 
L 506.564482 182.973137 
L 507.011106 187.689937 
L 507.234417 172.620553 
L 507.681041 187.302737 
L 507.904352 183.655753 
L 508.127664 189.273937 
L 508.797599 197.691669 
L 509.02091 194.459603 
L 509.244222 194.928469 
L 509.467534 200.970201 
L 509.690845 196.171735 
L 509.914157 188.563603 
L 510.137469 190.194069 
L 510.36078 187.771603 
L 510.584092 190.130003 
L 510.807404 190.598869 
L 511.030715 195.848601 
L 511.254027 191.050135 
L 511.70065 198.999001 
L 511.923962 198.611801 
L 512.147274 201.826266 
L 512.370585 198.999001 
L 512.593897 201.439066 
L 512.817209 201.439066 
L 513.04052 203.797466 
L 513.263832 198.611801 
L 513.487144 198.224601 
L 513.710455 196.640601 
L 514.157079 198.611801 
L 514.38039 193.426135 
L 515.273637 203.943198 
L 515.496948 203.087132 
L 515.72026 202.699932 
L 516.166883 212.279264 
L 516.390195 210.712864 
L 516.613507 197.432601 
L 516.836818 195.397335 
L 517.06013 196.640601 
L 517.283442 202.699932 
L 517.506753 197.045401 
L 517.730065 200.259866 
L 517.953377 200.259866 
L 518.176688 202.699932 
L 518.4 203.087132 
L 518.4 203.087132 
" style="fill:none;stroke:#4c72b0;stroke-linecap:round;stroke-width:1.75;"/>
   </g>
   <g id="patch_3">
    <path d="M 72 356.4 
L 518.4 356.4 
" style="fill:none;"/>
   </g>
   <g id="patch_4">
    <path d="M 72 39.6 
L 518.4 39.6 
" style="fill:none;"/>
   </g>
   <g id="patch_5">
    <path d="M 72 356.4 
L 72 39.6 
" style="fill:none;"/>
   </g>
   <g id="patch_6">
    <path d="M 518.4 356.4 
L 518.4 39.6 
" style="fill:none;"/>
   </g>
   <g id="text_16">
    <!-- IF - 1.5749029424385175 * hc -->
    <defs>
     <path d="M 9.125 0 
L 9.125 10.6875 
L 18.65625 10.6875 
L 18.65625 0 
z
" id="LiberationSans-2e"/>
     <path d="M 9.234375 0 
L 9.234375 68.796875 
L 18.5625 68.796875 
L 18.5625 0 
z
" id="LiberationSans-49"/>
     <path d="M 15.484375 43.796875 
Q 16.9375 46.484375 18.640625 48.359375 
Q 20.359375 50.25 22.40625 51.46875 
Q 24.46875 52.6875 26.90625 53.25 
Q 29.34375 53.8125 32.375 53.8125 
Q 37.453125 53.8125 40.703125 52.4375 
Q 43.953125 51.078125 45.828125 48.609375 
Q 47.703125 46.140625 48.40625 42.71875 
Q 49.125 39.3125 49.125 35.203125 
L 49.125 0 
L 40.28125 0 
L 40.28125 33.5 
Q 40.28125 36.859375 39.859375 39.390625 
Q 39.453125 41.9375 38.28125 43.625 
Q 37.109375 45.3125 34.953125 46.15625 
Q 32.8125 47.015625 29.390625 47.015625 
Q 26.265625 47.015625 23.75 45.890625 
Q 21.234375 44.78125 19.453125 42.71875 
Q 17.671875 40.671875 16.6875 37.734375 
Q 15.71875 34.8125 15.71875 31.15625 
L 15.71875 0 
L 6.9375 0 
L 6.9375 72.46875 
L 15.71875 72.46875 
L 15.71875 53.609375 
Q 15.71875 52 15.671875 50.390625 
Q 15.625 48.78125 15.546875 47.40625 
Q 15.484375 46.046875 15.421875 45.09375 
Q 15.375 44.140625 15.328125 43.796875 
z
" id="LiberationSans-68"/>
     <path d="M 13.421875 26.65625 
Q 13.421875 22.125 14.078125 18.3125 
Q 14.75 14.5 16.3125 11.734375 
Q 17.875 8.984375 20.4375 7.46875 
Q 23 5.953125 26.765625 5.953125 
Q 31.453125 5.953125 34.59375 8.484375 
Q 37.75 11.03125 38.484375 16.3125 
L 47.359375 15.71875 
Q 46.921875 12.453125 45.453125 9.421875 
Q 44 6.390625 41.484375 4.09375 
Q 38.96875 1.8125 35.34375 0.40625 
Q 31.734375 -0.984375 27 -0.984375 
Q 20.796875 -0.984375 16.453125 1.109375 
Q 12.109375 3.21875 9.390625 6.90625 
Q 6.6875 10.59375 5.46875 15.59375 
Q 4.25 20.609375 4.25 26.46875 
Q 4.25 31.78125 5.125 35.859375 
Q 6 39.9375 7.59375 42.984375 
Q 9.1875 46.046875 11.328125 48.125 
Q 13.484375 50.203125 15.984375 51.4375 
Q 18.5 52.6875 21.28125 53.25 
Q 24.078125 53.8125 26.90625 53.8125 
Q 31.34375 53.8125 34.8125 52.59375 
Q 38.28125 51.375 40.796875 49.25 
Q 43.3125 47.125 44.875 44.234375 
Q 46.4375 41.359375 47.078125 38.03125 
L 38.03125 37.359375 
Q 37.359375 41.75 34.5625 44.328125 
Q 31.78125 46.921875 26.65625 46.921875 
Q 22.90625 46.921875 20.390625 45.671875 
Q 17.875 44.4375 16.3125 41.921875 
Q 14.75 39.40625 14.078125 35.59375 
Q 13.421875 31.78125 13.421875 26.65625 
" id="LiberationSans-63"/>
     <path d="M 17.53125 61.1875 
L 17.53125 35.59375 
L 55.90625 35.59375 
L 55.90625 27.875 
L 17.53125 27.875 
L 17.53125 0 
L 8.203125 0 
L 8.203125 68.796875 
L 57.078125 68.796875 
L 57.078125 61.1875 
z
" id="LiberationSans-46"/>
     <path d="M 22.265625 54.390625 
L 35.15625 59.421875 
L 37.359375 52.984375 
L 23.578125 49.421875 
L 32.625 37.203125 
L 26.8125 33.6875 
L 19.484375 46.296875 
L 11.859375 33.796875 
L 6.0625 37.3125 
L 15.28125 49.421875 
L 1.609375 52.984375 
L 3.8125 59.515625 
L 16.84375 54.296875 
L 16.265625 68.796875 
L 22.90625 68.796875 
z
" id="LiberationSans-2a"/>
    </defs>
    <g style="fill:#262626;" transform="translate(214.1428125 34.6)scale(0.12 -0.12)">
     <use xlink:href="#LiberationSans-49"/>
     <use x="27.783203125" xlink:href="#LiberationSans-46"/>
     <use x="88.8671875" xlink:href="#LiberationSans-20"/>
     <use x="116.650390625" xlink:href="#LiberationSans-2d"/>
     <use x="149.951171875" xlink:href="#LiberationSans-20"/>
     <use x="177.734375" xlink:href="#LiberationSans-31"/>
     <use x="233.349609375" xlink:href="#LiberationSans-2e"/>
     <use x="261.1328125" xlink:href="#LiberationSans-35"/>
     <use x="316.748046875" xlink:href="#LiberationSans-37"/>
     <use x="372.36328125" xlink:href="#LiberationSans-34"/>
     <use x="427.978515625" xlink:href="#LiberationSans-39"/>
     <use x="483.59375" xlink:href="#LiberationSans-30"/>
     <use x="539.208984375" xlink:href="#LiberationSans-32"/>
     <use x="594.82421875" xlink:href="#LiberationSans-39"/>
     <use x="650.439453125" xlink:href="#LiberationSans-34"/>
     <use x="706.0546875" xlink:href="#LiberationSans-32"/>
     <use x="761.669921875" xlink:href="#LiberationSans-34"/>
     <use x="817.28515625" xlink:href="#LiberationSans-33"/>
     <use x="872.900390625" xlink:href="#LiberationSans-38"/>
     <use x="928.515625" xlink:href="#LiberationSans-35"/>
     <use x="984.130859375" xlink:href="#LiberationSans-31"/>
     <use x="1039.74609375" xlink:href="#LiberationSans-37"/>
     <use x="1095.361328125" xlink:href="#LiberationSans-35"/>
     <use x="1150.9765625" xlink:href="#LiberationSans-20"/>
     <use x="1178.759765625" xlink:href="#LiberationSans-2a"/>
     <use x="1217.67578125" xlink:href="#LiberationSans-20"/>
     <use x="1245.458984375" xlink:href="#LiberationSans-68"/>
     <use x="1301.07421875" xlink:href="#LiberationSans-63"/>
    </g>
   </g>
  </g>
 </g>
 <defs>
  <clipPath id="p5618748bf2">
   <rect height="316.8" width="446.4" x="72.0" y="39.6"/>
  </clipPath>
 </defs>
</svg>
