<?xml version="1.0" encoding="utf-8" standalone="no"?>
<!DOCTYPE svg PUBLIC "-//W3C//DTD SVG 1.1//EN"
  "http://www.w3.org/Graphics/SVG/1.1/DTD/svg11.dtd">
<!-- Created with matplotlib (http://matplotlib.org/) -->
<svg height="396pt" version="1.1" viewBox="0 0 576 396" width="576pt" xmlns="http://www.w3.org/2000/svg" xmlns:xlink="http://www.w3.org/1999/xlink">
 <defs>
  <style type="text/css">
*{stroke-linecap:butt;stroke-linejoin:round;stroke-miterlimit:100000;}
  </style>
 </defs>
 <g id="figure_1">
  <g id="patch_1">
   <path d="M 0 396 
L 576 396 
L 576 0 
L 0 0 
z
" style="fill:#ffffff;"/>
  </g>
  <g id="axes_1">
   <g id="patch_2">
    <path d="M 72 356.4 
L 518.4 356.4 
L 518.4 39.6 
L 72 39.6 
z
" style="fill:#eaeaf2;"/>
   </g>
   <g id="matplotlib.axis_1">
    <g id="xtick_1">
     <g id="line2d_1">
      <path clip-path="url(#p6abfa47cc9)" d="M 72 356.4 
L 72 39.6 
" style="fill:none;stroke:#ffffff;stroke-linecap:round;"/>
     </g>
     <g id="line2d_2"/>
     <g id="line2d_3"/>
     <g id="text_1">
      <!-- 2015-11-24 23:18:00 -->
      <defs>
       <path d="M 5.03125 0 
L 5.03125 6.203125 
Q 7.515625 11.921875 11.109375 16.28125 
Q 14.703125 20.65625 18.65625 24.1875 
Q 22.609375 27.734375 26.484375 30.765625 
Q 30.375 33.796875 33.5 36.8125 
Q 36.625 39.84375 38.546875 43.15625 
Q 40.484375 46.484375 40.484375 50.6875 
Q 40.484375 53.609375 39.59375 55.828125 
Q 38.71875 58.0625 37.0625 59.5625 
Q 35.40625 61.078125 33.078125 61.828125 
Q 30.765625 62.59375 27.9375 62.59375 
Q 25.296875 62.59375 22.96875 61.859375 
Q 20.65625 61.140625 18.84375 59.671875 
Q 17.046875 58.203125 15.890625 56.03125 
Q 14.75 53.859375 14.40625 50.984375 
L 5.421875 51.8125 
Q 5.859375 55.515625 7.46875 58.78125 
Q 9.078125 62.0625 11.90625 64.53125 
Q 14.75 67 18.71875 68.40625 
Q 22.703125 69.828125 27.9375 69.828125 
Q 33.0625 69.828125 37.0625 68.609375 
Q 41.0625 67.390625 43.8125 64.984375 
Q 46.578125 62.59375 48.046875 59.078125 
Q 49.515625 55.5625 49.515625 50.984375 
Q 49.515625 47.515625 48.265625 44.390625 
Q 47.015625 41.265625 44.9375 38.421875 
Q 42.875 35.59375 40.140625 32.953125 
Q 37.40625 30.328125 34.421875 27.8125 
Q 31.453125 25.296875 28.421875 22.828125 
Q 25.390625 20.359375 22.71875 17.859375 
Q 20.0625 15.375 17.96875 12.8125 
Q 15.875 10.25 14.703125 7.46875 
L 50.59375 7.46875 
L 50.59375 0 
z
" id="LiberationSans-32"/>
       <path d="M 7.625 0 
L 7.625 7.46875 
L 25.140625 7.46875 
L 25.140625 60.40625 
L 9.625 49.3125 
L 9.625 57.625 
L 25.875 68.796875 
L 33.984375 68.796875 
L 33.984375 7.46875 
L 50.734375 7.46875 
L 50.734375 0 
z
" id="LiberationSans-31"/>
       <path d="M 51.703125 34.421875 
Q 51.703125 24.515625 49.828125 17.75 
Q 47.953125 10.984375 44.703125 6.8125 
Q 41.453125 2.640625 37.0625 0.828125 
Q 32.671875 -0.984375 27.6875 -0.984375 
Q 22.65625 -0.984375 18.3125 0.828125 
Q 13.96875 2.640625 10.765625 6.78125 
Q 7.5625 10.9375 5.734375 17.703125 
Q 3.90625 24.46875 3.90625 34.421875 
Q 3.90625 44.828125 5.734375 51.640625 
Q 7.5625 58.453125 10.78125 62.5 
Q 14.015625 66.546875 18.40625 68.1875 
Q 22.796875 69.828125 27.984375 69.828125 
Q 32.90625 69.828125 37.21875 68.1875 
Q 41.546875 66.546875 44.765625 62.5 
Q 48 58.453125 49.84375 51.640625 
Q 51.703125 44.828125 51.703125 34.421875 
M 42.78125 34.421875 
Q 42.78125 42.625 41.796875 48.0625 
Q 40.828125 53.515625 38.921875 56.765625 
Q 37.015625 60.015625 34.25 61.359375 
Q 31.5 62.703125 27.984375 62.703125 
Q 24.265625 62.703125 21.4375 61.328125 
Q 18.609375 59.96875 16.671875 56.71875 
Q 14.75 53.46875 13.765625 48.015625 
Q 12.796875 42.578125 12.796875 34.421875 
Q 12.796875 26.515625 13.796875 21.09375 
Q 14.796875 15.671875 16.71875 12.375 
Q 18.65625 9.078125 21.4375 7.640625 
Q 24.21875 6.203125 27.78125 6.203125 
Q 31.25 6.203125 34.03125 7.640625 
Q 36.8125 9.078125 38.734375 12.375 
Q 40.671875 15.671875 41.71875 21.09375 
Q 42.78125 26.515625 42.78125 34.421875 
" id="LiberationSans-30"/>
       <path d="M 51.265625 19.1875 
Q 51.265625 14.796875 49.875 11.109375 
Q 48.484375 7.421875 45.625 4.734375 
Q 42.78125 2.046875 38.328125 0.53125 
Q 33.890625 -0.984375 27.828125 -0.984375 
Q 21.78125 -0.984375 17.359375 0.53125 
Q 12.9375 2.046875 10.03125 4.703125 
Q 7.125 7.375 5.734375 11.0625 
Q 4.34375 14.75 4.34375 19.09375 
Q 4.34375 22.859375 5.484375 25.78125 
Q 6.640625 28.71875 8.5625 30.828125 
Q 10.5 32.953125 12.96875 34.25 
Q 15.4375 35.546875 18.0625 35.984375 
L 18.0625 36.1875 
Q 15.1875 36.859375 12.90625 38.375 
Q 10.640625 39.890625 9.09375 42.015625 
Q 7.5625 44.140625 6.75 46.71875 
Q 5.953125 49.3125 5.953125 52.203125 
Q 5.953125 55.8125 7.34375 59 
Q 8.734375 62.203125 11.46875 64.625 
Q 14.203125 67.046875 18.25 68.4375 
Q 22.3125 69.828125 27.640625 69.828125 
Q 33.25 69.828125 37.375 68.40625 
Q 41.5 67 44.203125 64.578125 
Q 46.921875 62.15625 48.234375 58.9375 
Q 49.5625 55.71875 49.5625 52.09375 
Q 49.5625 49.265625 48.75 46.671875 
Q 47.953125 44.09375 46.40625 41.96875 
Q 44.875 39.84375 42.59375 38.34375 
Q 40.328125 36.859375 37.359375 36.28125 
L 37.359375 36.078125 
Q 40.328125 35.59375 42.859375 34.296875 
Q 45.40625 33.015625 47.265625 30.890625 
Q 49.125 28.765625 50.1875 25.828125 
Q 51.265625 22.90625 51.265625 19.1875 
M 40.4375 51.609375 
Q 40.4375 54.203125 39.765625 56.34375 
Q 39.109375 58.5 37.59375 60.03125 
Q 36.078125 61.578125 33.640625 62.421875 
Q 31.203125 63.28125 27.640625 63.28125 
Q 24.171875 63.28125 21.78125 62.421875 
Q 19.390625 61.578125 17.84375 60.03125 
Q 16.3125 58.5 15.625 56.34375 
Q 14.9375 54.203125 14.9375 51.609375 
Q 14.9375 49.5625 15.46875 47.40625 
Q 16.015625 45.265625 17.421875 43.5 
Q 18.84375 41.75 21.328125 40.625 
Q 23.828125 39.5 27.734375 39.5 
Q 31.890625 39.5 34.40625 40.625 
Q 36.921875 41.75 38.25 43.5 
Q 39.59375 45.265625 40.015625 47.40625 
Q 40.4375 49.5625 40.4375 51.609375 
M 42.140625 20.015625 
Q 42.140625 22.515625 41.453125 24.828125 
Q 40.765625 27.15625 39.109375 28.9375 
Q 37.453125 30.71875 34.640625 31.8125 
Q 31.84375 32.90625 27.640625 32.90625 
Q 23.78125 32.90625 21.0625 31.8125 
Q 18.359375 30.71875 16.671875 28.90625 
Q 14.984375 27.09375 14.203125 24.71875 
Q 13.421875 22.359375 13.421875 19.828125 
Q 13.421875 16.65625 14.203125 14.03125 
Q 14.984375 11.421875 16.6875 9.546875 
Q 18.40625 7.671875 21.1875 6.640625 
Q 23.96875 5.609375 27.9375 5.609375 
Q 31.9375 5.609375 34.671875 6.640625 
Q 37.40625 7.671875 39.0625 9.546875 
Q 40.71875 11.421875 41.421875 14.078125 
Q 42.140625 16.75 42.140625 20.015625 
" id="LiberationSans-38"/>
       <path d="M 9.125 42.71875 
L 9.125 52.828125 
L 18.65625 52.828125 
L 18.65625 42.71875 
z
M 9.125 0 
L 9.125 10.109375 
L 18.65625 10.109375 
L 18.65625 0 
z
" id="LiberationSans-3a"/>
       <path d="M 51.21875 19 
Q 51.21875 14.265625 49.671875 10.546875 
Q 48.140625 6.84375 45.1875 4.265625 
Q 42.234375 1.703125 37.859375 0.359375 
Q 33.5 -0.984375 27.875 -0.984375 
Q 21.484375 -0.984375 17.109375 0.609375 
Q 12.75 2.203125 9.90625 4.8125 
Q 7.078125 7.421875 5.65625 10.765625 
Q 4.25 14.109375 3.8125 17.671875 
L 12.890625 18.5 
Q 13.28125 15.765625 14.328125 13.515625 
Q 15.375 11.28125 17.1875 9.671875 
Q 19 8.0625 21.625 7.171875 
Q 24.265625 6.296875 27.875 6.296875 
Q 34.515625 6.296875 38.296875 9.5625 
Q 42.09375 12.84375 42.09375 19.28125 
Q 42.09375 23.09375 40.40625 25.40625 
Q 38.71875 27.734375 36.203125 29.03125 
Q 33.6875 30.328125 30.734375 30.765625 
Q 27.78125 31.203125 25.296875 31.203125 
L 20.3125 31.203125 
L 20.3125 38.8125 
L 25.09375 38.8125 
Q 27.59375 38.8125 30.265625 39.328125 
Q 32.953125 39.84375 35.171875 41.1875 
Q 37.40625 42.53125 38.84375 44.828125 
Q 40.28125 47.125 40.28125 50.6875 
Q 40.28125 56.203125 37.03125 59.390625 
Q 33.796875 62.59375 27.390625 62.59375 
Q 21.578125 62.59375 17.984375 59.609375 
Q 14.40625 56.640625 13.8125 51.21875 
L 4.984375 51.90625 
Q 5.515625 56.453125 7.46875 59.8125 
Q 9.421875 63.1875 12.421875 65.40625 
Q 15.4375 67.625 19.28125 68.71875 
Q 23.140625 69.828125 27.484375 69.828125 
Q 33.25 69.828125 37.390625 68.375 
Q 41.546875 66.9375 44.1875 64.46875 
Q 46.828125 62.015625 48.0625 58.6875 
Q 49.3125 55.375 49.3125 51.609375 
Q 49.3125 48.578125 48.484375 45.9375 
Q 47.65625 43.3125 45.890625 41.203125 
Q 44.140625 39.109375 41.421875 37.59375 
Q 38.71875 36.078125 34.90625 35.296875 
L 34.90625 35.109375 
Q 39.0625 34.671875 42.140625 33.21875 
Q 45.21875 31.78125 47.21875 29.625 
Q 49.21875 27.484375 50.21875 24.75 
Q 51.21875 22.015625 51.21875 19 
" id="LiberationSans-33"/>
       <path d="M 51.421875 22.40625 
Q 51.421875 17.234375 49.859375 12.9375 
Q 48.296875 8.640625 45.21875 5.53125 
Q 42.140625 2.4375 37.578125 0.71875 
Q 33.015625 -0.984375 27 -0.984375 
Q 21.578125 -0.984375 17.546875 0.28125 
Q 13.53125 1.5625 10.734375 3.78125 
Q 7.953125 6 6.3125 8.984375 
Q 4.6875 11.96875 4 15.375 
L 12.890625 16.40625 
Q 13.421875 14.453125 14.390625 12.625 
Q 15.375 10.796875 17.0625 9.34375 
Q 18.75 7.90625 21.21875 7.046875 
Q 23.6875 6.203125 27.203125 6.203125 
Q 30.609375 6.203125 33.390625 7.25 
Q 36.1875 8.296875 38.15625 10.34375 
Q 40.140625 12.40625 41.203125 15.375 
Q 42.28125 18.359375 42.28125 22.21875 
Q 42.28125 25.390625 41.25 28.046875 
Q 40.234375 30.71875 38.328125 32.640625 
Q 36.421875 34.578125 33.65625 35.640625 
Q 30.90625 36.71875 27.390625 36.71875 
Q 25.203125 36.71875 23.34375 36.328125 
Q 21.484375 35.9375 19.890625 35.25 
Q 18.3125 34.578125 17.015625 33.671875 
Q 15.71875 32.765625 14.59375 31.78125 
L 6 31.78125 
L 8.296875 68.796875 
L 47.40625 68.796875 
L 47.40625 61.328125 
L 16.3125 61.328125 
L 14.984375 39.5 
Q 17.328125 41.3125 20.84375 42.59375 
Q 24.359375 43.890625 29.203125 43.890625 
Q 34.328125 43.890625 38.421875 42.328125 
Q 42.53125 40.765625 45.40625 37.90625 
Q 48.296875 35.0625 49.859375 31.109375 
Q 51.421875 27.15625 51.421875 22.40625 
" id="LiberationSans-35"/>
       <path id="LiberationSans-20"/>
       <path d="M 4.4375 22.65625 
L 4.4375 30.46875 
L 28.859375 30.46875 
L 28.859375 22.65625 
z
" id="LiberationSans-2d"/>
       <path d="M 43.015625 15.578125 
L 43.015625 0 
L 34.71875 0 
L 34.71875 15.578125 
L 2.296875 15.578125 
L 2.296875 22.40625 
L 33.796875 68.796875 
L 43.015625 68.796875 
L 43.015625 22.515625 
L 52.6875 22.515625 
L 52.6875 15.578125 
z
M 34.71875 58.890625 
Q 34.625 58.640625 34.234375 57.9375 
Q 33.84375 57.234375 33.34375 56.34375 
Q 32.859375 55.46875 32.34375 54.5625 
Q 31.84375 53.65625 31.453125 53.078125 
L 13.8125 27.09375 
Q 13.578125 26.703125 13.109375 26.0625 
Q 12.640625 25.4375 12.15625 24.78125 
Q 11.671875 24.125 11.171875 23.484375 
Q 10.6875 22.859375 10.40625 22.515625 
L 34.71875 22.515625 
z
" id="LiberationSans-34"/>
      </defs>
      <g style="fill:#262626;" transform="translate(25.5765625 370.646875)scale(0.1 -0.1)">
       <use xlink:href="#LiberationSans-32"/>
       <use x="55.615234375" xlink:href="#LiberationSans-30"/>
       <use x="111.23046875" xlink:href="#LiberationSans-31"/>
       <use x="166.845703125" xlink:href="#LiberationSans-35"/>
       <use x="222.4609375" xlink:href="#LiberationSans-2d"/>
       <use x="255.76171875" xlink:href="#LiberationSans-31"/>
       <use x="311.376953125" xlink:href="#LiberationSans-31"/>
       <use x="366.9921875" xlink:href="#LiberationSans-2d"/>
       <use x="400.29296875" xlink:href="#LiberationSans-32"/>
       <use x="455.908203125" xlink:href="#LiberationSans-34"/>
       <use x="511.5234375" xlink:href="#LiberationSans-20"/>
       <use x="539.306640625" xlink:href="#LiberationSans-32"/>
       <use x="594.921875" xlink:href="#LiberationSans-33"/>
       <use x="650.537109375" xlink:href="#LiberationSans-3a"/>
       <use x="678.3203125" xlink:href="#LiberationSans-31"/>
       <use x="733.935546875" xlink:href="#LiberationSans-38"/>
       <use x="789.55078125" xlink:href="#LiberationSans-3a"/>
       <use x="817.333984375" xlink:href="#LiberationSans-30"/>
       <use x="872.94921875" xlink:href="#LiberationSans-30"/>
      </g>
     </g>
    </g>
    <g id="xtick_2">
     <g id="line2d_4">
      <path clip-path="url(#p6abfa47cc9)" d="M 183.655828 356.4 
L 183.655828 39.6 
" style="fill:none;stroke:#ffffff;stroke-linecap:round;"/>
     </g>
     <g id="line2d_5"/>
     <g id="line2d_6"/>
     <g id="text_2">
      <!-- 2015-11-26 10:37:00 -->
      <defs>
       <path d="M 50.59375 61.671875 
Q 45.40625 53.765625 41.0625 46.453125 
Q 36.71875 39.15625 33.59375 31.75 
Q 30.46875 24.359375 28.734375 16.578125 
Q 27 8.796875 27 0 
L 17.828125 0 
Q 17.828125 8.25 19.78125 16.1875 
Q 21.734375 24.125 25.046875 31.765625 
Q 28.375 39.40625 32.765625 46.78125 
Q 37.15625 54.15625 42.09375 61.328125 
L 5.125 61.328125 
L 5.125 68.796875 
L 50.59375 68.796875 
z
" id="LiberationSans-37"/>
       <path d="M 51.21875 22.515625 
Q 51.21875 17.328125 49.78125 13 
Q 48.34375 8.6875 45.53125 5.578125 
Q 42.71875 2.484375 38.5625 0.75 
Q 34.421875 -0.984375 29 -0.984375 
Q 23 -0.984375 18.5 1.3125 
Q 14.015625 3.609375 11.03125 7.921875 
Q 8.0625 12.25 6.5625 18.53125 
Q 5.078125 24.8125 5.078125 32.8125 
Q 5.078125 42 6.765625 48.921875 
Q 8.453125 55.859375 11.625 60.5 
Q 14.796875 65.140625 19.359375 67.484375 
Q 23.921875 69.828125 29.6875 69.828125 
Q 33.203125 69.828125 36.28125 69.09375 
Q 39.359375 68.359375 41.875 66.71875 
Q 44.390625 65.09375 46.28125 62.40625 
Q 48.1875 59.71875 49.3125 55.8125 
L 40.921875 54.296875 
Q 39.546875 58.734375 36.546875 60.71875 
Q 33.546875 62.703125 29.59375 62.703125 
Q 25.984375 62.703125 23.046875 60.984375 
Q 20.125 59.28125 18.0625 55.875 
Q 16.015625 52.484375 14.90625 47.359375 
Q 13.8125 42.234375 13.8125 35.40625 
Q 16.21875 39.84375 20.5625 42.15625 
Q 24.90625 44.484375 30.515625 44.484375 
Q 35.203125 44.484375 39.015625 42.96875 
Q 42.828125 41.453125 45.53125 38.59375 
Q 48.25 35.75 49.734375 31.671875 
Q 51.21875 27.59375 51.21875 22.515625 
M 42.28125 22.125 
Q 42.28125 25.6875 41.40625 28.5625 
Q 40.53125 31.453125 38.765625 33.46875 
Q 37.015625 35.5 34.421875 36.59375 
Q 31.84375 37.703125 28.421875 37.703125 
Q 26.03125 37.703125 23.578125 36.984375 
Q 21.140625 36.28125 19.15625 34.6875 
Q 17.1875 33.109375 15.9375 30.515625 
Q 14.703125 27.9375 14.703125 24.21875 
Q 14.703125 20.40625 15.671875 17.109375 
Q 16.65625 13.8125 18.484375 11.375 
Q 20.3125 8.9375 22.890625 7.515625 
Q 25.484375 6.109375 28.71875 6.109375 
Q 31.890625 6.109375 34.40625 7.203125 
Q 36.921875 8.296875 38.671875 10.375 
Q 40.4375 12.453125 41.359375 15.421875 
Q 42.28125 18.40625 42.28125 22.125 
" id="LiberationSans-36"/>
      </defs>
      <g style="fill:#262626;" transform="translate(137.232390414 370.646875)scale(0.1 -0.1)">
       <use xlink:href="#LiberationSans-32"/>
       <use x="55.615234375" xlink:href="#LiberationSans-30"/>
       <use x="111.23046875" xlink:href="#LiberationSans-31"/>
       <use x="166.845703125" xlink:href="#LiberationSans-35"/>
       <use x="222.4609375" xlink:href="#LiberationSans-2d"/>
       <use x="255.76171875" xlink:href="#LiberationSans-31"/>
       <use x="311.376953125" xlink:href="#LiberationSans-31"/>
       <use x="366.9921875" xlink:href="#LiberationSans-2d"/>
       <use x="400.29296875" xlink:href="#LiberationSans-32"/>
       <use x="455.908203125" xlink:href="#LiberationSans-36"/>
       <use x="511.5234375" xlink:href="#LiberationSans-20"/>
       <use x="539.306640625" xlink:href="#LiberationSans-31"/>
       <use x="594.921875" xlink:href="#LiberationSans-30"/>
       <use x="650.537109375" xlink:href="#LiberationSans-3a"/>
       <use x="678.3203125" xlink:href="#LiberationSans-33"/>
       <use x="733.935546875" xlink:href="#LiberationSans-37"/>
       <use x="789.55078125" xlink:href="#LiberationSans-3a"/>
       <use x="817.333984375" xlink:href="#LiberationSans-30"/>
       <use x="872.94921875" xlink:href="#LiberationSans-30"/>
      </g>
     </g>
    </g>
    <g id="xtick_3">
     <g id="line2d_7">
      <path clip-path="url(#p6abfa47cc9)" d="M 295.311656 356.4 
L 295.311656 39.6 
" style="fill:none;stroke:#ffffff;stroke-linecap:round;"/>
     </g>
     <g id="line2d_8"/>
     <g id="line2d_9"/>
     <g id="text_3">
      <!-- 2015-11-27 14:43:00 -->
      <g style="fill:#262626;" transform="translate(248.888218328 370.646875)scale(0.1 -0.1)">
       <use xlink:href="#LiberationSans-32"/>
       <use x="55.615234375" xlink:href="#LiberationSans-30"/>
       <use x="111.23046875" xlink:href="#LiberationSans-31"/>
       <use x="166.845703125" xlink:href="#LiberationSans-35"/>
       <use x="222.4609375" xlink:href="#LiberationSans-2d"/>
       <use x="255.76171875" xlink:href="#LiberationSans-31"/>
       <use x="311.376953125" xlink:href="#LiberationSans-31"/>
       <use x="366.9921875" xlink:href="#LiberationSans-2d"/>
       <use x="400.29296875" xlink:href="#LiberationSans-32"/>
       <use x="455.908203125" xlink:href="#LiberationSans-37"/>
       <use x="511.5234375" xlink:href="#LiberationSans-20"/>
       <use x="539.306640625" xlink:href="#LiberationSans-31"/>
       <use x="594.921875" xlink:href="#LiberationSans-34"/>
       <use x="650.537109375" xlink:href="#LiberationSans-3a"/>
       <use x="678.3203125" xlink:href="#LiberationSans-34"/>
       <use x="733.935546875" xlink:href="#LiberationSans-33"/>
       <use x="789.55078125" xlink:href="#LiberationSans-3a"/>
       <use x="817.333984375" xlink:href="#LiberationSans-30"/>
       <use x="872.94921875" xlink:href="#LiberationSans-30"/>
      </g>
     </g>
    </g>
    <g id="xtick_4">
     <g id="line2d_10">
      <path clip-path="url(#p6abfa47cc9)" d="M 406.967484 356.4 
L 406.967484 39.6 
" style="fill:none;stroke:#ffffff;stroke-linecap:round;"/>
     </g>
     <g id="line2d_11"/>
     <g id="line2d_12"/>
     <g id="text_4">
      <!-- 2015-12-03 23:06:00 -->
      <g style="fill:#262626;" transform="translate(360.544046242 370.646875)scale(0.1 -0.1)">
       <use xlink:href="#LiberationSans-32"/>
       <use x="55.615234375" xlink:href="#LiberationSans-30"/>
       <use x="111.23046875" xlink:href="#LiberationSans-31"/>
       <use x="166.845703125" xlink:href="#LiberationSans-35"/>
       <use x="222.4609375" xlink:href="#LiberationSans-2d"/>
       <use x="255.76171875" xlink:href="#LiberationSans-31"/>
       <use x="311.376953125" xlink:href="#LiberationSans-32"/>
       <use x="366.9921875" xlink:href="#LiberationSans-2d"/>
       <use x="400.29296875" xlink:href="#LiberationSans-30"/>
       <use x="455.908203125" xlink:href="#LiberationSans-33"/>
       <use x="511.5234375" xlink:href="#LiberationSans-20"/>
       <use x="539.306640625" xlink:href="#LiberationSans-32"/>
       <use x="594.921875" xlink:href="#LiberationSans-33"/>
       <use x="650.537109375" xlink:href="#LiberationSans-3a"/>
       <use x="678.3203125" xlink:href="#LiberationSans-30"/>
       <use x="733.935546875" xlink:href="#LiberationSans-36"/>
       <use x="789.55078125" xlink:href="#LiberationSans-3a"/>
       <use x="817.333984375" xlink:href="#LiberationSans-30"/>
       <use x="872.94921875" xlink:href="#LiberationSans-30"/>
      </g>
     </g>
    </g>
    <g id="text_5">
     <!-- time -->
     <defs>
      <path d="M 13.484375 24.5625 
Q 13.484375 20.40625 14.328125 16.90625 
Q 15.1875 13.421875 16.96875 10.90625 
Q 18.75 8.40625 21.53125 7 
Q 24.3125 5.609375 28.21875 5.609375 
Q 33.9375 5.609375 37.375 7.90625 
Q 40.828125 10.203125 42.046875 13.71875 
L 49.75 11.53125 
Q 48.921875 9.328125 47.4375 7.109375 
Q 45.953125 4.890625 43.453125 3.09375 
Q 40.96875 1.3125 37.234375 0.15625 
Q 33.5 -0.984375 28.21875 -0.984375 
Q 16.5 -0.984375 10.375 6 
Q 4.25 12.984375 4.25 26.765625 
Q 4.25 34.1875 6.09375 39.328125 
Q 7.953125 44.484375 11.171875 47.703125 
Q 14.40625 50.921875 18.703125 52.359375 
Q 23 53.8125 27.875 53.8125 
Q 34.515625 53.8125 38.984375 51.65625 
Q 43.453125 49.515625 46.15625 45.71875 
Q 48.875 41.9375 50.015625 36.8125 
Q 51.171875 31.6875 51.171875 25.734375 
L 51.171875 24.5625 
z
M 42.09375 31.296875 
Q 41.359375 39.65625 37.84375 43.484375 
Q 34.328125 47.3125 27.734375 47.3125 
Q 25.53125 47.3125 23.109375 46.609375 
Q 20.703125 45.90625 18.65625 44.09375 
Q 16.609375 42.28125 15.1875 39.171875 
Q 13.765625 36.078125 13.578125 31.296875 
z
" id="LiberationSans-65"/>
      <path d="M 6.6875 64.0625 
L 6.6875 72.46875 
L 15.484375 72.46875 
L 15.484375 64.0625 
z
M 6.6875 0 
L 6.6875 52.828125 
L 15.484375 52.828125 
L 15.484375 0 
z
" id="LiberationSans-69"/>
      <path d="M 27.046875 0.390625 
Q 25.046875 -0.140625 22.96875 -0.453125 
Q 20.90625 -0.78125 18.171875 -0.78125 
Q 7.625 -0.78125 7.625 11.1875 
L 7.625 46.4375 
L 1.515625 46.4375 
L 1.515625 52.828125 
L 7.953125 52.828125 
L 10.546875 64.65625 
L 16.40625 64.65625 
L 16.40625 52.828125 
L 26.171875 52.828125 
L 26.171875 46.4375 
L 16.40625 46.4375 
L 16.40625 13.09375 
Q 16.40625 9.28125 17.640625 7.734375 
Q 18.890625 6.203125 21.96875 6.203125 
Q 23.25 6.203125 24.4375 6.390625 
Q 25.640625 6.59375 27.046875 6.890625 
z
" id="LiberationSans-74"/>
      <path d="M 37.5 0 
L 37.5 33.5 
Q 37.5 37.359375 37.015625 39.9375 
Q 36.53125 42.53125 35.375 44.109375 
Q 34.234375 45.703125 32.375 46.359375 
Q 30.515625 47.015625 27.828125 47.015625 
Q 25.046875 47.015625 22.796875 45.921875 
Q 20.5625 44.828125 18.96875 42.75 
Q 17.390625 40.671875 16.53125 37.625 
Q 15.671875 34.578125 15.671875 30.609375 
L 15.671875 0 
L 6.9375 0 
L 6.9375 41.546875 
Q 6.9375 43.21875 6.90625 45.046875 
Q 6.890625 46.875 6.828125 48.5 
Q 6.78125 50.140625 6.734375 51.3125 
Q 6.6875 52.484375 6.640625 52.828125 
L 14.9375 52.828125 
Q 14.984375 52.59375 15.03125 51.515625 
Q 15.09375 50.4375 15.15625 49.046875 
Q 15.234375 47.65625 15.28125 46.21875 
Q 15.328125 44.78125 15.328125 43.796875 
L 15.484375 43.796875 
Q 16.65625 46.09375 18.015625 47.953125 
Q 19.390625 49.8125 21.21875 51.09375 
Q 23.046875 52.390625 25.40625 53.09375 
Q 27.78125 53.8125 30.90625 53.8125 
Q 36.921875 53.8125 40.40625 51.421875 
Q 43.890625 49.03125 45.265625 43.796875 
L 45.40625 43.796875 
Q 46.578125 46.09375 48.046875 47.953125 
Q 49.515625 49.8125 51.46875 51.09375 
Q 53.421875 52.390625 55.859375 53.09375 
Q 58.296875 53.8125 61.421875 53.8125 
Q 65.4375 53.8125 68.328125 52.734375 
Q 71.234375 51.65625 73.09375 49.40625 
Q 74.953125 47.171875 75.828125 43.625 
Q 76.703125 40.09375 76.703125 35.203125 
L 76.703125 0 
L 68.015625 0 
L 68.015625 33.5 
Q 68.015625 37.359375 67.53125 39.9375 
Q 67.046875 42.53125 65.890625 44.109375 
Q 64.75 45.703125 62.890625 46.359375 
Q 61.03125 47.015625 58.34375 47.015625 
Q 55.5625 47.015625 53.3125 45.96875 
Q 51.078125 44.921875 49.484375 42.875 
Q 47.90625 40.828125 47.046875 37.75 
Q 46.1875 34.671875 46.1875 30.609375 
L 46.1875 0 
z
" id="LiberationSans-6d"/>
     </defs>
     <g style="fill:#262626;" transform="translate(284.81015625 385.6934375)scale(0.11 -0.11)">
      <use xlink:href="#LiberationSans-74"/>
      <use x="27.783203125" xlink:href="#LiberationSans-69"/>
      <use x="50.0" xlink:href="#LiberationSans-6d"/>
      <use x="133.30078125" xlink:href="#LiberationSans-65"/>
     </g>
    </g>
   </g>
   <g id="matplotlib.axis_2">
    <g id="ytick_1">
     <g id="line2d_13">
      <path clip-path="url(#p6abfa47cc9)" d="M 72 356.4 
L 518.4 356.4 
" style="fill:none;stroke:#ffffff;stroke-linecap:round;"/>
     </g>
     <g id="line2d_14"/>
     <g id="line2d_15"/>
     <g id="text_6">
      <!-- 3500 -->
      <g style="fill:#262626;" transform="translate(42.75625 358.9859375)scale(0.1 -0.1)">
       <use xlink:href="#LiberationSans-33"/>
       <use x="55.615234375" xlink:href="#LiberationSans-35"/>
       <use x="111.23046875" xlink:href="#LiberationSans-30"/>
       <use x="166.845703125" xlink:href="#LiberationSans-30"/>
      </g>
     </g>
    </g>
    <g id="ytick_2">
     <g id="line2d_16">
      <path clip-path="url(#p6abfa47cc9)" d="M 72 316.8 
L 518.4 316.8 
" style="fill:none;stroke:#ffffff;stroke-linecap:round;"/>
     </g>
     <g id="line2d_17"/>
     <g id="line2d_18"/>
     <g id="text_7">
      <!-- 3520 -->
      <g style="fill:#262626;" transform="translate(42.75625 319.3859375)scale(0.1 -0.1)">
       <use xlink:href="#LiberationSans-33"/>
       <use x="55.615234375" xlink:href="#LiberationSans-35"/>
       <use x="111.23046875" xlink:href="#LiberationSans-32"/>
       <use x="166.845703125" xlink:href="#LiberationSans-30"/>
      </g>
     </g>
    </g>
    <g id="ytick_3">
     <g id="line2d_19">
      <path clip-path="url(#p6abfa47cc9)" d="M 72 277.2 
L 518.4 277.2 
" style="fill:none;stroke:#ffffff;stroke-linecap:round;"/>
     </g>
     <g id="line2d_20"/>
     <g id="line2d_21"/>
     <g id="text_8">
      <!-- 3540 -->
      <g style="fill:#262626;" transform="translate(42.75625 279.7859375)scale(0.1 -0.1)">
       <use xlink:href="#LiberationSans-33"/>
       <use x="55.615234375" xlink:href="#LiberationSans-35"/>
       <use x="111.23046875" xlink:href="#LiberationSans-34"/>
       <use x="166.845703125" xlink:href="#LiberationSans-30"/>
      </g>
     </g>
    </g>
    <g id="ytick_4">
     <g id="line2d_22">
      <path clip-path="url(#p6abfa47cc9)" d="M 72 237.6 
L 518.4 237.6 
" style="fill:none;stroke:#ffffff;stroke-linecap:round;"/>
     </g>
     <g id="line2d_23"/>
     <g id="line2d_24"/>
     <g id="text_9">
      <!-- 3560 -->
      <g style="fill:#262626;" transform="translate(42.75625 240.1859375)scale(0.1 -0.1)">
       <use xlink:href="#LiberationSans-33"/>
       <use x="55.615234375" xlink:href="#LiberationSans-35"/>
       <use x="111.23046875" xlink:href="#LiberationSans-36"/>
       <use x="166.845703125" xlink:href="#LiberationSans-30"/>
      </g>
     </g>
    </g>
    <g id="ytick_5">
     <g id="line2d_25">
      <path clip-path="url(#p6abfa47cc9)" d="M 72 198 
L 518.4 198 
" style="fill:none;stroke:#ffffff;stroke-linecap:round;"/>
     </g>
     <g id="line2d_26"/>
     <g id="line2d_27"/>
     <g id="text_10">
      <!-- 3580 -->
      <g style="fill:#262626;" transform="translate(42.75625 200.5859375)scale(0.1 -0.1)">
       <use xlink:href="#LiberationSans-33"/>
       <use x="55.615234375" xlink:href="#LiberationSans-35"/>
       <use x="111.23046875" xlink:href="#LiberationSans-38"/>
       <use x="166.845703125" xlink:href="#LiberationSans-30"/>
      </g>
     </g>
    </g>
    <g id="ytick_6">
     <g id="line2d_28">
      <path clip-path="url(#p6abfa47cc9)" d="M 72 158.4 
L 518.4 158.4 
" style="fill:none;stroke:#ffffff;stroke-linecap:round;"/>
     </g>
     <g id="line2d_29"/>
     <g id="line2d_30"/>
     <g id="text_11">
      <!-- 3600 -->
      <g style="fill:#262626;" transform="translate(42.75625 160.9859375)scale(0.1 -0.1)">
       <use xlink:href="#LiberationSans-33"/>
       <use x="55.615234375" xlink:href="#LiberationSans-36"/>
       <use x="111.23046875" xlink:href="#LiberationSans-30"/>
       <use x="166.845703125" xlink:href="#LiberationSans-30"/>
      </g>
     </g>
    </g>
    <g id="ytick_7">
     <g id="line2d_31">
      <path clip-path="url(#p6abfa47cc9)" d="M 72 118.8 
L 518.4 118.8 
" style="fill:none;stroke:#ffffff;stroke-linecap:round;"/>
     </g>
     <g id="line2d_32"/>
     <g id="line2d_33"/>
     <g id="text_12">
      <!-- 3620 -->
      <g style="fill:#262626;" transform="translate(42.75625 121.3859375)scale(0.1 -0.1)">
       <use xlink:href="#LiberationSans-33"/>
       <use x="55.615234375" xlink:href="#LiberationSans-36"/>
       <use x="111.23046875" xlink:href="#LiberationSans-32"/>
       <use x="166.845703125" xlink:href="#LiberationSans-30"/>
      </g>
     </g>
    </g>
    <g id="ytick_8">
     <g id="line2d_34">
      <path clip-path="url(#p6abfa47cc9)" d="M 72 79.2 
L 518.4 79.2 
" style="fill:none;stroke:#ffffff;stroke-linecap:round;"/>
     </g>
     <g id="line2d_35"/>
     <g id="line2d_36"/>
     <g id="text_13">
      <!-- 3640 -->
      <g style="fill:#262626;" transform="translate(42.75625 81.7859375)scale(0.1 -0.1)">
       <use xlink:href="#LiberationSans-33"/>
       <use x="55.615234375" xlink:href="#LiberationSans-36"/>
       <use x="111.23046875" xlink:href="#LiberationSans-34"/>
       <use x="166.845703125" xlink:href="#LiberationSans-30"/>
      </g>
     </g>
    </g>
    <g id="ytick_9">
     <g id="line2d_37">
      <path clip-path="url(#p6abfa47cc9)" d="M 72 39.6 
L 518.4 39.6 
" style="fill:none;stroke:#ffffff;stroke-linecap:round;"/>
     </g>
     <g id="line2d_38"/>
     <g id="line2d_39"/>
     <g id="text_14">
      <!-- 3660 -->
      <g style="fill:#262626;" transform="translate(42.75625 42.1859375)scale(0.1 -0.1)">
       <use xlink:href="#LiberationSans-33"/>
       <use x="55.615234375" xlink:href="#LiberationSans-36"/>
       <use x="111.23046875" xlink:href="#LiberationSans-36"/>
       <use x="166.845703125" xlink:href="#LiberationSans-30"/>
      </g>
     </g>
    </g>
   </g>
   <g id="line2d_40">
    <path clip-path="url(#p6abfa47cc9)" d="M 72 127.142808 
L 72.223312 138.830788 
L 72.446623 132.797767 
L 72.669935 132.844937 
L 72.893247 132.120448 
L 73.33987 123.974537 
L 73.563182 131.062937 
L 73.786493 128.576248 
L 74.009805 119.705848 
L 74.233117 129.253567 
L 74.456428 124.653988 
L 74.67974 215.643768 
L 74.903052 201.845029 
L 75.126363 200.787517 
L 75.572986 205.058338 
L 76.242921 224.919598 
L 76.466233 208.679208 
L 76.689545 210.112648 
L 76.912856 207.273137 
L 77.136168 208.679208 
L 77.35948 202.646188 
L 77.582791 200.864188 
L 77.806103 204.079628 
L 78.029415 217.124378 
L 78.252726 215.389547 
L 78.476038 212.176239 
L 78.69935 198.723927 
L 79.145973 205.812327 
L 79.369285 207.198598 
L 79.592596 206.491778 
L 79.815908 213.202117 
L 80.03922 205.058338 
L 80.262531 203.654398 
L 80.485843 204.709778 
L 80.709155 198.676758 
L 80.932466 180.955758 
L 81.602401 187.366839 
L 81.825713 192.342347 
L 82.049025 193.021798 
L 82.272336 192.295178 
L 82.495648 201.138209 
L 82.718959 196.518829 
L 83.165583 193.699117 
L 83.388894 195.461317 
L 83.612206 204.002958 
L 83.835518 200.836819 
L 84.058829 200.486127 
L 84.282141 193.397727 
L 84.505453 191.635527 
L 84.728764 196.941927 
L 84.952076 195.179727 
L 85.175388 195.179727 
L 85.398699 199.808808 
L 85.622011 199.129357 
L 86.068634 204.408388 
L 86.291946 219.687737 
L 86.515258 244.497137 
L 86.738569 243.743147 
L 86.961881 240.151778 
L 87.185193 230.952619 
L 87.408504 234.496819 
L 87.631816 227.784347 
L 87.855128 231.328547 
L 88.301751 215.767608 
L 88.748374 224.618208 
L 88.971686 224.289448 
L 89.194997 219.687737 
L 89.418309 218.963248 
L 89.864932 225.646219 
L 90.088244 222.102019 
L 90.311556 226.353039 
L 90.758179 218.557819 
L 90.981491 224.919598 
L 91.204802 225.295527 
L 91.428114 230.245798 
L 91.651426 228.135039 
L 91.874737 232.734619 
L 92.098049 224.590839 
L 92.321361 230.198629 
L 92.544672 231.980629 
L 92.767984 222.732168 
L 93.214607 214.964317 
L 93.437919 215.342378 
L 93.661231 218.886578 
L 93.884542 218.557819 
L 94.107854 213.958239 
L 94.331166 218.557819 
L 94.554477 215.720439 
L 94.777789 214.662927 
L 95.001101 214.662927 
L 95.224412 218.933747 
L 95.447724 211.496788 
L 95.671036 208.679208 
L 95.894347 211.845347 
L 96.117659 209.687419 
L 96.34097 212.176239 
L 96.787594 206.190388 
L 97.010905 206.190388 
L 97.234217 199.885478 
L 97.457529 203.476847 
L 97.68084 200.639468 
L 97.904152 204.183668 
L 98.127464 199.584088 
L 98.350775 202.421468 
L 98.574087 198.877268 
L 98.797399 208.783247 
L 99.02071 212.676007 
L 99.244022 203.476847 
L 99.467334 209.131807 
L 99.690645 202.421468 
L 100.137269 199.584088 
L 100.583892 210.894007 
L 100.807204 207.349807 
L 101.030515 206.294427 
L 101.253827 210.866638 
L 101.477139 210.866638 
L 101.70045 196.717207 
L 101.923762 200.609967 
L 102.147074 200.234038 
L 102.370385 197.396658 
L 102.817009 203.400177 
L 103.04032 203.024248 
L 103.486943 216.068998 
L 103.710255 203.654398 
L 103.933567 199.054819 
L 104.38019 202.569517 
L 104.603502 196.565998 
L 104.826813 195.812009 
L 105.050125 186.610717 
L 105.273437 188.044158 
L 105.496748 192.693039 
L 105.72006 184.878019 
L 105.943372 184.878019 
L 106.166683 188.422219 
L 106.389995 189.129039 
L 106.613307 183.471947 
L 107.05993 179.220927 
L 107.283242 183.822639 
L 107.953177 172.537957 
L 108.176488 172.916018 
L 108.3998 168.015047 
L 108.623112 166.581607 
L 108.846423 163.037407 
L 109.069735 169.418987 
L 109.293047 170.125807 
L 109.516358 168.363607 
L 110.409605 188.496757 
L 110.856228 182.513038 
L 111.07954 179.344767 
L 111.302851 186.084607 
L 111.526163 185.708678 
L 111.749475 185.001858 
L 112.196098 182.841797 
L 112.41941 179.297597 
L 112.642721 183.190357 
L 112.866033 184.952557 
L 113.312656 173.944028 
L 113.535968 170.049137 
L 113.75928 160.143157 
L 113.982591 162.960737 
L 114.429215 160.068619 
L 114.875838 172.463419 
L 115.09915 171.029978 
L 115.322461 170.701219 
L 115.545773 169.673208 
L 115.769085 162.960737 
L 115.992396 163.311428 
L 116.215708 164.394177 
L 116.43902 161.576597 
L 116.885643 154.515567 
L 117.108954 170.474367 
L 117.332266 165.498858 
L 117.555578 166.882997 
L 117.778889 166.882997 
L 118.002201 165.449557 
L 118.225513 166.176177 
L 118.448824 171.455208 
L 118.672136 166.504937 
L 118.895448 171.455208 
L 119.118759 170.399828 
L 119.342071 175.676727 
L 119.565383 167.532947 
L 119.788694 170.399828 
L 120.012006 163.687357 
L 120.235318 163.687357 
L 120.681941 159.794597 
L 120.905253 162.283418 
L 121.128564 162.631977 
L 121.575188 154.515567 
L 121.798499 159.465838 
L 122.021811 159.794597 
L 122.468434 159.191817 
L 122.691746 175.499176 
L 123.138369 167.054006 
L 123.361681 179.072877 
L 123.584992 175.904606 
L 123.808304 167.807995 
L 124.031616 176.255298 
L 124.254927 175.197786 
L 124.478239 186.537206 
L 124.701551 179.120047 
L 124.924862 185.481826 
L 125.148174 184.426447 
L 125.371486 189.026026 
L 125.594797 188.319206 
L 126.041421 192.918786 
L 126.264732 188.319206 
L 126.488044 186.537206 
L 126.934667 198.526576 
L 127.157979 199.584088 
L 127.381291 201.316787 
L 127.604602 192.117627 
L 127.827914 192.117627 
L 128.497849 203.504217 
L 128.721161 200.338077 
L 128.944472 204.937657 
L 129.167784 197.896426 
L 129.391096 199.631257 
L 129.614407 209.537237 
L 130.061031 202.421468 
L 130.284342 203.476847 
L 130.730965 209.159176 
L 131.177589 204.230837 
L 131.4009 197.520498 
L 131.624212 195.031677 
L 131.847524 198.575877 
L 132.070835 189.327417 
L 132.294147 192.871617 
L 132.517459 193.598237 
L 132.74077 192.871617 
L 132.964082 193.926996 
L 133.187394 193.220176 
L 133.410705 191.438176 
L 133.634017 191.438176 
L 133.857329 189.705477 
L 134.08064 191.816237 
L 134.303952 201.366088 
L 134.527264 201.015396 
L 134.750575 196.764376 
L 134.973887 197.443827 
L 135.197199 196.039888 
L 135.42051 197.095268 
L 135.867134 203.098787 
L 136.090445 203.429678 
L 136.313757 193.551068 
L 136.537069 199.932647 
L 136.76038 199.932647 
L 136.983692 206.642987 
L 137.207004 200.639468 
L 137.430315 200.639468 
L 137.653627 201.366088 
L 137.876938 198.197817 
L 138.10025 197.142437 
L 138.323562 198.197817 
L 138.546873 192.164796 
L 138.770185 190.382796 
L 139.663432 196.764376 
L 139.886743 200.308576 
L 140.110055 201.694847 
L 140.333367 203.805607 
L 140.556678 208.076427 
L 140.77999 207.698367 
L 141.003302 200.988027 
L 141.226613 205.916367 
L 141.449925 201.366088 
L 141.896548 205.587607 
L 142.11986 202.750227 
L 142.343172 205.587607 
L 142.566483 202.043407 
L 142.789795 208.755878 
L 143.236418 205.211678 
L 143.683042 213.656848 
L 143.906353 204.106997 
L 144.129665 205.888997 
L 144.352976 209.761957 
L 144.576288 191.334137 
L 145.022911 207.273137 
L 145.246223 206.217757 
L 145.469535 204.106997 
L 145.692846 209.386028 
L 145.916158 203.353008 
L 146.13947 202.646188 
L 146.362781 192.767577 
L 146.586093 196.311777 
L 146.809405 198.073977 
L 147.032716 193.822957 
L 147.256028 195.585157 
L 147.47934 192.767577 
L 147.702651 188.496757 
L 148.149275 191.712197 
L 148.595898 190.985577 
L 148.81921 191.334137 
L 149.042521 190.278757 
L 149.265833 186.385997 
L 149.489145 188.496757 
L 149.712456 187.441377 
L 150.15908 187.414008 
L 150.382391 189.524767 
L 150.605703 189.524767 
L 150.829015 196.914558 
L 151.052326 197.969938 
L 151.275638 194.803798 
L 151.498949 197.969938 
L 151.945573 200.082829 
L 152.168884 200.082829 
L 152.392196 195.859178 
L 152.615508 193.748419 
L 153.062131 195.859178 
L 153.732066 195.859178 
L 153.955378 197.969938 
L 154.178689 196.914558 
L 154.402001 196.914558 
L 154.625313 201.138209 
L 154.848624 202.193589 
L 155.071936 200.082829 
L 155.295248 200.082829 
L 155.518559 202.193589 
L 155.965183 212.749518 
L 156.188494 209.583379 
L 156.411806 214.860278 
L 156.635118 210.638759 
L 156.858429 211.694139 
L 157.081741 218.028549 
L 157.305053 209.583379 
L 157.528364 212.749518 
L 157.751676 210.638759 
L 157.974987 212.749518 
L 158.198299 215.91779 
L 158.421611 214.860278 
L 158.644922 218.028549 
L 158.868234 218.028549 
L 159.091546 219.083929 
L 159.314857 216.973169 
L 159.538169 212.749518 
L 159.761481 212.749518 
L 159.984792 208.527999 
L 160.208104 202.193589 
L 160.431416 205.359728 
L 160.654727 206.415108 
L 160.878039 206.415108 
L 161.101351 207.47262 
L 161.324662 209.583379 
L 161.547974 208.527999 
L 161.771286 212.749518 
L 161.994597 202.193589 
L 162.217909 203.248968 
L 162.664532 201.138209 
L 162.887844 207.47262 
L 163.111156 205.359728 
L 163.334467 210.638759 
L 163.557779 206.415108 
L 163.781091 208.527999 
L 164.004402 207.47262 
L 164.451026 199.025317 
L 164.897649 199.025317 
L 165.12096 205.359728 
L 165.344272 200.082829 
L 165.567584 180.278439 
L 166.014207 193.27602 
L 166.237519 192.897959 
L 166.684142 202.398509 
L 166.907454 193.246518 
L 167.130765 189.655149 
L 167.577389 204.509268 
L 167.8007 197.798929 
L 168.024012 200.937699 
L 168.247324 199.155699 
L 168.470635 200.56177 
L 168.693947 194.556119 
L 169.14057 174.044909 
L 169.363882 171.934149 
L 169.587194 147.124749 
L 170.033817 152.129759 
L 170.257129 153.185139 
L 170.48044 148.934118 
L 170.927064 160.246169 
L 171.150375 162.404098 
L 171.373687 159.895478 
L 171.596998 160.246169 
L 171.82031 157.757349 
L 172.266933 173.290919 
L 172.713557 166.202519 
L 172.936868 162.30976 
L 173.16018 164.79858 
L 173.383492 163.713699 
L 173.606803 149.536899 
L 173.830115 147.349469 
L 174.053427 128.553289 
L 174.276738 164.69454 
L 174.50005 159.037449 
L 174.946673 159.06695 
L 175.169985 158.36013 
L 175.393297 163.288469 
L 175.616608 155.52275 
L 175.83992 156.57813 
L 176.063232 163.288469 
L 176.286543 161.526269 
L 176.733167 182.941651 
L 177.17979 167.360912 
L 177.403102 169.820231 
L 177.626413 170.57422 
L 177.849725 167.709471 
L 178.073037 163.109891 
L 178.296348 152.1266 
L 178.51966 149.261851 
L 178.742971 161.629282 
L 179.636218 130.814231 
L 179.85953 144.662271 
L 180.082841 141.14544 
L 180.306153 139.761301 
L 180.529465 143.68143 
L 180.976088 140.468121 
L 181.1994 144.012321 
L 181.422711 143.004111 
L 181.646023 155.74747 
L 181.869335 160.01829 
L 182.092646 160.34705 
L 182.315958 167.73684 
L 182.53927 161.026501 
L 182.762581 167.03002 
L 183.432516 157.10424 
L 183.655828 168.79222 
L 183.87914 162.808501 
L 184.325763 174.147921 
L 184.549075 173.090409 
L 184.772386 173.81703 
L 184.995698 178.36944 
L 185.442321 171.28104 
L 185.888944 185.430471 
L 186.112256 186.10779 
L 186.558879 175.126631 
L 186.782191 177.993512 
L 187.005503 175.88062 
L 187.228814 177.66262 
L 187.452126 174.449312 
L 187.675438 174.11842 
L 187.898749 180.15144 
L 188.122061 170.603721 
L 188.345373 180.529501 
L 188.568684 182.64026 
L 188.791996 182.2622 
L 189.238619 176.231312 
L 189.461931 177.993512 
L 189.685243 178.718 
L 189.908554 178.342071 
L 190.131866 183.621102 
L 190.355178 182.215031 
L 190.801801 169.09361 
L 191.025113 170.87561 
L 191.248424 169.820231 
L 191.471736 175.853251 
L 191.695048 171.93099 
L 191.918359 185.655191 
L 192.364982 190.556161 
L 192.588294 190.180233 
L 192.811606 192.669053 
L 193.034917 193.044981 
L 193.258229 202.622202 
L 193.481541 201.895581 
L 193.704852 204.357033 
L 193.928164 204.685792 
L 194.151476 194.478422 
L 194.374787 189.500781 
L 194.598099 188.067341 
L 194.821411 188.398233 
L 195.044722 188.274393 
L 195.268034 187.896332 
L 195.714657 206.296783 
L 195.937969 207.700723 
L 196.161281 219.059943 
L 196.384592 224.037583 
L 196.607904 216.269732 
L 197.277839 254.578613 
L 197.501151 255.305233 
L 197.947774 247.139522 
L 198.171086 251.788403 
L 198.394397 246.133443 
L 198.617709 245.755382 
L 198.841021 247.188823 
L 199.064332 243.644623 
L 199.287644 232.661331 
L 199.510955 241.155803 
L 199.734267 243.293931 
L 199.957579 235.904141 
L 200.18089 234.141941 
L 200.404202 229.542361 
L 200.627514 234.848761 
L 201.074137 229.873253 
L 201.297449 230.597741 
L 201.52076 227.431602 
L 201.744072 230.627242 
L 201.967384 228.865042 
L 202.190695 225.696771 
L 202.414007 228.234892 
L 202.637319 223.914771 
L 202.86063 225.348211 
L 203.083942 228.185591 
L 203.753877 216.903041 
L 203.977189 208.430502 
L 204.423812 213.030082 
L 204.647124 207.024431 
L 205.093747 215.847661 
L 205.317059 213.707401 
L 205.54037 214.414221 
L 205.763682 218.986432 
L 205.986993 216.52498 
L 206.210305 209.13519 
L 206.433617 211.596641 
L 206.656928 199.182041 
L 207.103552 209.107821 
L 207.326863 210.870021 
L 207.550175 214.792282 
L 207.773487 222.229241 
L 208.22011 219.411661 
L 208.443422 232.533082 
L 208.890045 236.02798 
L 209.113357 228.988882 
L 209.336668 225.773441 
L 209.55998 225.066621 
L 209.783292 222.908692 
L 210.006603 233.541292 
L 210.229915 218.383651 
L 210.453227 216.272891 
L 210.676538 208.457871 
L 210.89985 213.077251 
L 211.123162 204.23422 
L 211.346473 211.295251 
L 211.569785 208.457871 
L 211.793097 208.129112 
L 212.016408 213.077251 
L 212.23972 215.18801 
L 212.463032 212.77586 
L 212.686343 213.077251 
L 212.909655 208.8536 
L 213.132966 207.0716 
L 213.57959 209.911112 
L 213.802901 203.576701 
L 214.026213 201.794701 
L 214.249525 206.74284 
L 214.696148 203.576701 
L 214.91946 207.120901 
L 215.142771 238.593471 
L 215.366083 232.560451 
L 215.589395 232.18239 
L 215.812706 223.662682 
L 216.25933 234.972601 
L 216.482641 241.383682 
L 216.705953 251.68539 
L 216.929265 245.681871 
L 217.152576 249.27324 
L 217.375888 249.98006 
L 217.5992 247.49124 
L 217.822511 243.269721 
L 218.045823 255.73149 
L 218.269135 244.750331 
L 218.492446 241.58206 
L 218.715758 240.150751 
L 218.93907 249.349911 
L 219.162381 241.206131 
L 219.385693 242.261511 
L 219.832316 228.8387 
L 220.055628 234.49366 
L 220.278939 235.20048 
L 220.502251 234.824551 
L 220.725563 235.20048 
L 220.948874 232.760961 
L 221.172186 228.866069 
L 221.395498 228.866069 
L 221.618809 225.321869 
L 221.842121 227.78332 
L 222.065433 232.3829 
L 222.288744 233.767039 
L 222.735368 238.03786 
L 222.958679 234.117731 
L 223.181991 236.22849 
L 223.405303 234.06843 
L 223.628614 241.15683 
L 223.851926 242.212209 
L 224.075238 240.450009 
L 224.298549 232.25906 
L 224.521861 235.80326 
L 224.745173 224.841901 
L 224.968484 228.76203 
L 225.191796 226.604101 
L 225.415108 225.897281 
L 225.638419 232.938512 
L 225.861731 232.60762 
L 226.085043 227.659481 
L 226.308354 228.386101 
L 226.531666 226.98003 
L 226.754977 223.10707 
L 226.978289 221.703131 
L 227.201601 226.302711 
L 227.424912 226.302711 
L 227.648224 221.297701 
L 227.871536 224.841901 
L 228.318159 215.640609 
L 228.541471 215.29205 
L 228.764782 222.654471 
L 228.988094 214.839451 
L 229.211406 213.455312 
L 229.434717 213.10462 
L 229.881341 218.73221 
L 230.104652 210.6158 
L 230.551276 218.054891 
L 230.774587 231.505071 
L 230.997899 228.63819 
L 231.221211 231.12701 
L 231.667834 242.710951 
L 231.891146 234.596672 
L 232.114457 231.401032 
L 232.337769 230.72158 
L 232.561081 234.596672 
L 232.784392 242.335022 
L 233.007704 238.111371 
L 233.231016 245.879222 
L 233.454327 244.144391 
L 233.677639 252.288171 
L 233.90095 250.506171 
L 234.570885 242.362391 
L 234.794197 245.530662 
L 235.017509 245.199771 
L 235.24082 236.378672 
L 235.464132 241.307011 
L 235.687444 243.089011 
L 235.910755 240.978252 
L 236.134067 244.522452 
L 236.357379 245.229272 
L 236.58069 243.467072 
L 236.804002 239.544811 
L 237.027314 246.586042 
L 237.250625 249.423422 
L 237.473937 247.312662 
L 237.697249 239.846202 
L 237.92056 240.553022 
L 238.143872 225.998161 
L 238.367184 231.277192 
L 238.590495 227.053541 
L 238.813807 233.039392 
L 239.26043 223.887402 
L 239.483742 222.483462 
L 239.707054 222.832022 
L 239.930365 220.370571 
L 240.153677 216.497611 
L 240.376988 218.259811 
L 240.6003 214.008791 
L 240.823612 218.939262 
L 241.046923 220.721262 
L 241.493547 212.604852 
L 241.716858 212.604852 
L 241.94017 213.660232 
L 242.163482 213.660232 
L 242.386793 207.325821 
L 242.833417 210.494092 
L 243.056728 210.494092 
L 243.28004 208.381201 
L 243.503352 209.43658 
L 243.726663 218.939262 
L 243.949975 217.881751 
L 244.173287 215.770991 
L 244.396598 218.939262 
L 244.61991 217.881751 
L 244.843222 217.881751 
L 245.066533 216.826371 
L 245.289845 209.43658 
L 245.513157 207.325821 
L 245.736468 214.715611 
L 245.95978 217.881751 
L 246.183092 215.770991 
L 246.629715 215.770991 
L 247.076338 219.994642 
L 247.29965 224.216161 
L 247.522961 225.271541 
L 247.746273 224.216161 
L 248.192896 218.939262 
L 248.416208 217.881751 
L 248.63952 221.050022 
L 248.862831 219.994642 
L 249.086143 224.216161 
L 249.532766 224.216161 
L 249.756078 221.050022 
L 249.97939 214.715611 
L 250.202701 215.770991 
L 250.426013 217.881751 
L 250.872636 223.160781 
L 251.31926 226.329053 
L 251.542571 219.994642 
L 251.765883 218.939262 
L 251.989195 214.715611 
L 252.212506 218.939262 
L 252.435818 212.604852 
L 252.65913 215.770991 
L 252.882441 216.826371 
L 253.105753 219.994642 
L 253.329065 219.994642 
L 253.552376 215.770991 
L 253.775688 219.994642 
L 253.998999 231.304561 
L 254.222311 228.563652 
L 254.445623 232.785171 
L 254.668934 231.304561 
L 254.892246 226.704981 
L 255.115558 208.983981 
L 255.338869 204.006341 
L 255.562181 208.277161 
L 255.785493 209.332541 
L 256.008804 212.528181 
L 256.455428 198.351381 
L 256.678739 200.511442 
L 256.902051 209.710602 
L 257.125363 206.544462 
L 257.348674 207.249151 
L 257.571986 200.160751 
L 257.795298 197.04178 
L 258.018609 201.643492 
L 258.241921 212.276092 
L 258.465233 203.452861 
L 258.911856 210.163201 
L 259.135168 212.652021 
L 259.358479 203.781621 
L 259.581791 208.731892 
L 259.805103 208.005272 
L 260.028414 206.619001 
L 260.251726 203.781621 
L 260.475038 209.43658 
L 260.698349 205.59099 
L 260.921661 210.91719 
L 261.144972 211.295251 
L 261.591596 201.7454 
L 261.814907 200.314091 
L 262.038219 204.23422 
L 262.261531 199.258712 
L 262.708154 203.5274 
L 263.154777 192.24485 
L 263.378089 190.13409 
L 263.601401 182.366239 
L 264.048024 185.23312 
L 264.271336 188.0705 
L 264.494647 187.01512 
L 264.717959 184.17774 
L 264.941271 183.846849 
L 265.164582 183.122361 
L 265.387894 194.076151 
L 265.611206 187.74174 
L 265.834517 190.55932 
L 266.281141 176.08113 
L 266.504452 167.586659 
L 266.727764 164.042459 
L 266.951076 169.368659 
L 267.174387 160.923488 
L 267.397699 166.627749 
L 267.621011 186.837569 
L 267.844322 183.970688 
L 268.067634 188.948329 
L 268.290945 186.788268 
L 268.514257 186.459509 
L 268.737569 184.724678 
L 268.96088 188.268878 
L 269.184192 179.398478 
L 269.407504 176.958959 
L 270.077439 187.514888 
L 270.30075 186.788268 
L 270.524062 187.84578 
L 270.747374 187.467719 
L 270.970685 185.35696 
L 271.193997 185.732888 
L 271.64062 179.146389 
L 271.863932 181.209979 
L 272.087244 179.823708 
L 272.533867 169.267778 
L 272.757179 172.386748 
L 272.98049 173.414759 
L 273.203802 169.897928 
L 273.427114 157.503128 
L 273.650425 165.221678 
L 273.873737 164.166298 
L 274.097049 164.892918 
L 274.32036 167.710498 
L 274.543672 162.782159 
L 274.766983 164.544359 
L 274.990295 162.782159 
L 275.213607 167.710498 
L 275.436918 167.710498 
L 275.883542 164.166298 
L 276.106853 176.232339 
L 276.553477 180.125098 
L 276.776788 198.17699 
L 277.0001 188.646939 
L 277.223412 198.224159 
L 277.670035 187.591559 
L 277.893347 188.975698 
L 278.116658 195.735339 
L 278.33997 187.96962 
L 279.009905 201.419799 
L 279.456528 196.82022 
L 279.903152 208.933429 
L 280.126463 203.955789 
L 280.349775 204.304348 
L 280.573087 205.011168 
L 280.796398 202.522348 
L 281.01971 197.196148 
L 281.243022 195.433948 
L 281.466333 200.033528 
L 281.689645 201.419799 
L 281.912956 198.901478 
L 282.136268 207.34878 
L 282.582891 203.125129 
L 282.806203 206.998088 
L 283.029515 208.780088 
L 283.252826 205.942709 
L 283.476138 207.376149 
L 283.922761 212.277119 
L 284.146073 214.059119 
L 284.369385 213.681059 
L 284.816008 223.21111 
L 285.03932 223.21111 
L 285.262631 218.61153 
L 285.485943 224.99311 
L 285.709255 219.66691 
L 285.932566 219.288849 
L 286.155878 211.1177 
L 286.602501 223.18374 
L 286.825813 221.777669 
L 287.049125 228.53731 
L 287.272436 231.75275 
L 287.495748 232.45957 
L 287.71906 228.18875 
L 287.942371 233.51495 
L 288.388994 217.98138 
L 288.612306 203.80458 
L 288.835618 202.445678 
L 289.058929 202.445678 
L 289.282241 202.776569 
L 289.505553 210.213529 
L 289.952176 204.558569 
L 290.175488 205.26539 
L 290.398799 201.72119 
L 290.622111 202.445678 
L 291.068734 206.669329 
L 291.292046 205.613949 
L 291.515358 207.376149 
L 291.738669 222.202899 
L 291.961981 220.04497 
L 292.185293 220.769459 
L 292.408604 220.04497 
L 292.855228 198.47838 
L 293.078539 205.91534 
L 293.301851 200.636309 
L 293.525163 201.343129 
L 293.748474 204.887329 
L 293.971786 202.398509 
L 294.195098 204.180509 
L 294.418409 201.343129 
L 294.865033 211.694139 
L 295.088344 208.130139 
L 295.534967 219.111298 
L 295.758279 216.622478 
L 295.981591 220.166678 
L 296.204902 239.971068 
L 296.428214 244.57278 
L 296.651526 230.470518 
L 296.874837 231.525898 
L 297.098149 243.893329 
L 297.321461 240.349129 
L 297.544772 184.151398 
L 297.768084 189.524767 
L 297.991396 191.635527 
L 298.214707 192.295178 
L 298.438019 202.599019 
L 298.661331 198.723927 
L 298.884642 197.698048 
L 299.107954 199.808808 
L 299.554577 225.268158 
L 300.001201 220.997338 
L 300.224512 223.458789 
L 300.447824 213.580178 
L 300.671136 216.746317 
L 300.894447 198.347998 
L 301.117759 198.676758 
L 301.564382 191.286967 
L 301.787694 179.220927 
L 302.011006 178.118378 
L 302.234317 175.676727 
L 302.457629 176.383547 
L 302.68094 176.383547 
L 302.904252 174.650848 
L 303.127564 169.371818 
L 303.350875 170.427197 
L 303.574187 168.664997 
L 303.797499 175.753397 
L 304.02081 173.971397 
L 304.244122 170.805258 
L 304.467434 177.864157 
L 304.690745 166.882997 
L 304.914057 166.554238 
L 305.137369 169.043058 
L 305.36068 165.874787 
L 305.583992 165.148167 
L 305.807304 168.692367 
L 306.253927 168.692367 
L 306.477239 165.148167 
L 306.70055 150.266678 
L 306.923862 148.833238 
L 307.147174 150.595438 
L 307.370485 159.767228 
L 307.593797 162.631977 
L 307.817109 151.623448 
L 308.04042 155.167648 
L 308.263732 164.742737 
L 308.487044 160.521218 
L 308.710355 158.739218 
L 308.933667 146.371787 
L 309.156978 148.153787 
L 309.603602 166.554238 
L 309.826913 169.673208 
L 310.050225 175.676727 
L 310.496848 161.877988 
L 310.72016 170.701219 
L 310.943472 165.750947 
L 311.390095 173.190039 
L 311.613407 171.408039 
L 311.836718 155.118347 
L 312.06003 154.062967 
L 312.283342 154.441028 
L 312.506653 151.999377 
L 312.729965 185.708678 
L 312.953277 187.819438 
L 313.846523 220.621409 
L 314.069835 215.342378 
L 314.293147 201.892198 
L 314.516458 195.963218 
L 314.73977 201.618177 
L 314.963082 192.466187 
L 315.186393 200.609967 
L 315.409705 203.805607 
L 315.633017 202.372167 
L 315.856328 230.021078 
L 316.07964 226.145987 
L 316.526263 236.024597 
L 316.972886 230.369638 
L 317.196198 233.535777 
L 317.41951 257.969248 
L 317.642821 254.425048 
L 317.866133 254.425048 
L 318.089445 281.268538 
L 318.312756 274.511029 
L 318.536068 274.859589 
L 318.75938 272.370768 
L 318.982691 263.547538 
L 319.206003 265.309738 
L 319.652626 250.124727 
L 319.875938 257.892578 
L 320.09925 261.088219 
L 320.322561 259.326019 
L 320.769185 275.235517 
L 320.992496 273.831578 
L 321.215808 275.942338 
L 321.43912 275.942338 
L 321.662431 267.497167 
L 321.885743 267.121239 
L 322.109055 267.121239 
L 322.332366 273.502819 
L 322.555678 276.367567 
L 323.002301 266.063727 
L 323.225613 264.301527 
L 323.448924 266.063727 
L 323.672236 270.665439 
L 324.118859 274.585567 
L 324.342171 273.908248 
L 324.565483 269.657228 
L 324.788794 268.601848 
L 325.012106 268.223788 
L 325.235418 275.312188 
L 325.458729 274.934127 
L 325.905353 260.455937 
L 326.128664 258.673937 
L 326.351976 262.897588 
L 326.575288 258.345177 
L 326.798599 265.085018 
L 327.021911 264.405567 
L 327.245223 260.485438 
L 327.468534 263.275648 
L 327.691846 260.786828 
L 327.915158 267.121239 
L 328.138469 261.162757 
L 328.361781 260.833997 
L 328.585093 264.706957 
L 328.808404 265.386408 
L 329.031716 267.497167 
L 329.255028 262.568828 
L 329.478339 261.842208 
L 329.701651 262.897588 
L 329.924962 266.790347 
L 330.371586 261.464147 
L 330.818209 265.734967 
L 331.041521 262.190767 
L 331.488144 260.455937 
L 331.934767 278.883757 
L 332.158079 291.599747 
L 332.381391 289.110927 
L 332.604702 276.696327 
L 332.828014 282.022527 
L 333.051326 279.911767 
L 333.497949 272.069378 
L 333.721261 275.613578 
L 333.944572 272.776198 
L 334.167884 272.069378 
L 334.391196 280.514548 
L 334.614507 280.514548 
L 334.837819 279.459168 
L 335.061131 269.231998 
L 335.284442 269.909317 
L 335.507754 269.909317 
L 335.731066 263.171609 
L 335.954377 270.966829 
L 336.177689 271.691317 
L 336.401001 261.088219 
L 336.624312 264.632419 
L 336.847624 262.870219 
L 337.070935 264.632419 
L 337.294247 269.958619 
L 337.517559 283.710189 
L 337.74087 290.393159 
L 337.964182 274.558198 
L 338.187494 272.069378 
L 338.410805 282.654809 
L 338.634117 273.831578 
L 339.08074 273.804209 
L 339.304052 272.022209 
L 339.750675 275.566409 
L 339.973987 274.558198 
L 340.197299 271.013998 
L 340.42061 278.025728 
L 340.643922 280.13862 
L 340.867234 275.188348 
L 341.090545 274.132968 
L 341.537169 278.055229 
L 341.76048 278.055229 
L 341.983792 279.081108 
L 342.207104 277.299108 
L 342.430415 280.843308 
L 342.877039 274.859589 
L 343.10035 279.787928 
L 343.323662 275.942338 
L 343.546973 274.180138 
L 343.770285 280.892609 
L 343.993597 274.256808 
L 344.216908 280.892609 
L 344.44022 268.903239 
L 344.886843 266.441788 
L 345.110155 254.830478 
L 345.333467 259.430058 
L 345.556778 267.168408 
L 345.78009 284.387508 
L 346.226713 288.282399 
L 346.450025 287.328927 
L 346.673337 277.074388 
L 346.896648 275.312188 
L 347.11996 270.635938 
L 347.343272 270.260009 
L 347.566583 273.453517 
L 347.789895 264.980978 
L 348.013207 266.365117 
L 348.236518 269.533389 
L 348.45983 258.900789 
L 348.683142 260.682789 
L 349.129765 242.386377 
L 349.353077 240.322787 
L 349.576388 248.466567 
L 349.7997 241.709058 
L 350.023012 243.491058 
L 350.246323 243.866987 
L 350.469635 242.463047 
L 350.692946 255.253576 
L 350.916258 254.576257 
L 351.13957 267.319617 
L 351.362881 258.797776 
L 351.809505 267.949767 
L 352.032816 270.789278 
L 352.256128 260.156678 
L 352.47944 256.261787 
L 352.702751 249.098848 
L 353.149375 253.068278 
L 353.372686 248.090638 
L 353.595998 250.955387 
L 353.81931 261.239427 
L 354.265933 291.375027 
L 354.489245 291.375027 
L 354.712556 295.267787 
L 355.15918 281.090987 
L 355.605803 286.748078 
L 355.829115 288.179387 
L 356.052426 290.621038 
L 356.275738 285.314638 
L 356.49905 283.532638 
L 356.722361 280.336997 
L 356.945673 285.616028 
L 357.168984 288.055547 
L 357.392296 281.345208 
L 357.615608 289.110927 
L 357.838919 245.903208 
L 358.062231 233.441439 
L 358.285543 248.693419 
L 358.508854 247.638039 
L 358.955478 246.958588 
L 359.178789 249.447408 
L 359.402101 249.776167 
L 359.625413 249.400239 
L 359.848724 245.477978 
L 360.072036 250.378948 
L 360.295348 250.030389 
L 360.518659 250.757009 
L 360.965283 248.644117 
L 361.188594 248.644117 
L 361.411906 249.022178 
L 362.081841 226.323538 
L 362.305153 232.685317 
L 362.528464 234.845378 
L 362.751776 229.141117 
L 362.975088 227.408419 
L 363.198399 223.864219 
L 363.421711 231.679239 
L 363.645023 217.201048 
L 363.868334 186.309327 
L 364.091646 188.071527 
L 364.314957 169.645839 
L 364.538269 175.300798 
L 364.761581 174.952239 
L 364.984892 177.062998 
L 365.208204 175.300798 
L 365.431516 175.300798 
L 365.654827 177.062998 
L 365.878139 187.317538 
L 366.101451 182.717958 
L 366.324762 184.452789 
L 366.548074 179.173758 
L 367.218009 171.378538 
L 367.441321 171.029978 
L 367.664632 172.463419 
L 367.887944 177.488228 
L 368.111256 188.120828 
L 368.557879 222.883377 
L 369.004502 210.518078 
L 369.227814 210.518078 
L 369.451126 228.916397 
L 369.674437 221.827997 
L 370.121061 238.164858 
L 370.567684 210.894007 
L 370.790995 196.341278 
L 371.014307 193.852458 
L 371.237619 201.966737 
L 371.46093 201.165578 
L 371.684242 195.461317 
L 371.907554 171.783967 
L 372.130865 180.229138 
L 372.354177 121.334508 
L 372.577489 130.610338 
L 372.8008 118.195738 
L 373.024112 131.967108 
L 373.247424 132.372538 
L 373.694047 123.173378 
L 373.917359 125.333439 
L 374.363982 121.062619 
L 374.587294 125.333439 
L 374.810605 123.173378 
L 375.033917 112.889338 
L 375.257229 108.996578 
L 375.48054 108.667819 
L 375.703852 105.452378 
L 375.927164 121.411178 
L 376.150475 119.629178 
L 376.373787 126.717578 
L 376.597099 128.499578 
L 376.82041 125.662198 
L 377.043722 129.933019 
L 377.267034 124.606819 
L 377.936968 130.308947 
L 378.16028 125.360808 
L 378.383592 131.112238 
L 378.606903 129.001478 
L 378.830215 129.001478 
L 379.053527 120.131078 
L 379.723462 114.473987 
L 380.170085 121.940447 
L 380.393397 119.122868 
L 380.616708 106.056186 
L 380.84002 111.006457 
L 381.063332 105.000806 
L 381.509955 114.926586 
L 381.733267 109.224457 
L 381.956578 86.602487 
L 382.17989 81.624847 
L 382.403202 80.616636 
L 382.626513 80.945395 
L 383.073137 72.801616 
L 383.296448 75.638995 
L 383.51976 72.425687 
L 383.743072 82.727395 
L 383.966383 84.840287 
L 384.189695 85.547107 
L 384.636318 79.183195 
L 384.85963 57.569436 
L 385.082941 66.768595 
L 385.306253 68.550595 
L 385.529565 63.224395 
L 385.752876 70.312795 
L 385.976188 61.462195 
L 386.1995 77.025267 
L 386.422811 75.638995 
L 386.869435 69.936867 
L 387.316058 85.216216 
L 387.53937 84.867656 
L 387.762681 81.370625 
L 387.985993 97.707486 
L 388.432616 109.395466 
L 388.655928 102.685127 
L 388.87924 103.013886 
L 389.102551 97.707486 
L 389.325863 98.008876 
L 389.549175 98.666395 
L 389.772486 95.122195 
L 389.995798 99.723907 
L 390.21911 108.942867 
L 390.442421 106.454047 
L 390.665733 105.351498 
L 390.889045 108.564806 
L 391.112356 106.782806 
L 391.335668 115.558868 
L 391.558979 117.340868 
L 392.005603 106.056186 
L 392.228914 92.984067 
L 392.452226 94.066816 
L 392.675538 128.171846 
L 393.122161 141.923416 
L 393.345473 128.473236 
L 393.568784 128.801995 
L 393.792096 135.939697 
L 394.015408 134.911686 
L 394.238719 125.683025 
L 394.462031 127.445225 
L 394.685343 126.061086 
L 394.908654 121.461506 
L 395.131966 127.870455 
L 395.355278 123.648936 
L 395.578589 125.080245 
L 395.801901 125.712527 
L 396.025213 128.201347 
L 396.248524 128.577275 
L 396.471836 130.688035 
L 396.918459 120.055435 
L 397.141771 118.322736 
L 397.365083 113.723156 
L 397.588394 112.336885 
L 397.811706 112.665645 
L 398.035018 130.057885 
L 398.258329 124.731685 
L 398.481641 124.731685 
L 398.704952 126.842445 
L 398.928264 125.759696 
L 399.151576 132.470035 
L 399.374887 130.406445 
L 399.598199 126.513685 
L 399.821511 137.494845 
L 400.044822 134.657465 
L 400.268134 129.351065 
L 400.491446 129.351065 
L 400.714757 126.513685 
L 400.938069 129.983347 
L 401.161381 124.657147 
L 401.384692 128.925835 
L 401.608004 128.201347 
L 402.054627 118.624127 
L 402.277939 119.679506 
L 402.501251 127.069297 
L 402.724562 128.124676 
L 402.947874 127.795917 
L 403.171186 121.461506 
L 403.394497 132.422866 
L 403.617809 131.414655 
L 403.841121 126.815075 
L 404.064432 126.088455 
L 404.287744 114.099085 
L 404.511056 115.505156 
L 404.734367 120.811556 
L 404.957679 113.392265 
L 405.18099 118.698665 
L 405.404302 116.209845 
L 405.627614 117.991845 
L 405.850925 118.369905 
L 406.074237 115.881085 
L 406.297549 117.991845 
L 406.52086 100.950296 
L 406.744172 93.182445 
L 406.967484 145.339366 
L 407.190795 148.883566 
L 407.637419 140.361726 
L 408.084042 173.569127 
L 408.307354 170.400855 
L 408.530665 159.090936 
L 408.753977 168.262727 
L 408.977289 170.751547 
L 409.2006 199.829635 
L 409.423912 192.741235 
L 409.647224 189.197035 
L 409.870535 199.782466 
L 410.093847 198.349025 
L 410.317159 205.061497 
L 410.54047 182.014297 
L 410.763782 186.962436 
L 410.987094 180.958917 
L 411.210405 181.685537 
L 411.433717 178.517266 
L 411.657029 179.224086 
L 411.88034 183.146347 
L 412.103652 182.088835 
L 412.326963 172.182855 
L 412.550275 179.572646 
L 412.773587 178.168706 
L 412.996898 182.061466 
L 413.443522 185.605666 
L 413.666833 185.605666 
L 413.890145 193.022825 
L 414.113457 188.094486 
L 414.336768 191.260625 
L 414.56008 187.716425 
L 414.783392 187.716425 
L 415.006703 189.829317 
L 415.230015 196.586825 
L 415.453327 191.309927 
L 415.676638 200.131025 
L 415.89995 191.260625 
L 416.123262 191.260625 
L 416.346573 189.149866 
L 416.569885 189.149866 
L 416.793197 189.478625 
L 417.23982 191.591517 
L 417.463132 190.205246 
L 417.686443 186.285117 
L 417.909755 189.102697 
L 418.133067 189.829317 
L 418.356378 191.591517 
L 418.57969 195.484276 
L 418.803002 188.395876 
L 419.249625 202.194616 
L 419.472936 212.120395 
L 419.696248 210.338395 
L 419.91956 210.338395 
L 420.142871 224.865887 
L 420.366183 222.752995 
L 420.589495 217.426795 
L 420.812806 217.426795 
L 421.036118 229.841395 
L 421.25943 226.628087 
L 421.482741 227.354707 
L 421.706053 222.404436 
L 421.929365 221.020297 
L 422.152676 224.215937 
L 422.5993 212.525825 
L 422.822611 210.763625 
L 423.269235 220.340846 
L 423.492546 222.103046 
L 423.715858 230.597517 
L 423.93917 229.542137 
L 424.162481 233.086337 
L 424.385793 222.453737 
L 424.609105 229.492836 
L 424.832416 226.326697 
L 425.055728 219.964917 
L 425.27904 230.597517 
L 425.502351 228.815517 
L 425.725663 235.827247 
L 425.948974 212.799847 
L 426.172286 214.562047 
L 426.618909 197.923795 
L 427.065533 208.227636 
L 427.288844 195.106216 
L 427.512156 194.730287 
L 427.735468 179.903537 
L 427.958779 183.796297 
L 428.182091 184.503117 
L 428.405403 179.525476 
L 428.852026 181.636236 
L 429.521961 187.291195 
L 429.968584 187.291195 
L 430.191896 188.348707 
L 430.415208 188.348707 
L 430.638519 183.069676 
L 430.861831 189.404087 
L 431.085143 180.958917 
L 431.531766 218.106247 
L 431.755078 219.208795 
L 431.978389 224.865887 
L 432.201701 217.777487 
L 432.425013 215.995487 
L 432.648324 203.976616 
L 432.871636 203.580887 
L 433.094947 197.169806 
L 433.318259 200.007186 
L 433.764882 202.496006 
L 433.988194 214.183986 
L 434.211506 217.728186 
L 434.434817 214.562047 
L 434.658129 218.832867 
L 435.104752 216.722107 
L 435.328064 195.106216 
L 435.551376 198.981307 
L 435.774687 194.730287 
L 435.997999 194.730287 
L 436.221311 199.658626 
L 436.667934 203.202826 
L 436.891246 202.525507 
L 437.337869 205.691647 
L 437.561181 201.818687 
L 438.007804 211.017847 
L 438.231116 209.255647 
L 438.454427 210.689087 
L 438.677739 208.907087 
L 439.124362 215.241498 
L 439.347674 215.590057 
L 439.570985 217.352257 
L 439.794297 211.647996 
L 440.017609 215.590057 
L 440.24092 214.534677 
L 440.464232 210.263857 
L 440.910855 206.341596 
L 441.134167 208.103796 
L 441.58079 183.595787 
L 441.804102 181.485027 
L 442.027414 186.057238 
L 442.697349 176.082157 
L 442.92066 176.761608 
L 443.143972 176.761608 
L 443.367284 157.758376 
L 444.037219 202.271286 
L 444.26053 201.215906 
L 444.483842 209.030927 
L 444.707154 209.737747 
L 444.930465 202.318455 
L 445.153777 214.337327 
L 445.377089 211.519747 
L 445.6004 212.903886 
L 445.823712 207.248927 
L 446.047024 207.975547 
L 446.270335 211.519747 
L 446.493647 220.039455 
L 446.716958 220.039455 
L 446.94027 230.672055 
L 447.163582 250.553116 
L 447.386893 243.464716 
L 447.610205 239.920516 
L 447.833517 225.093766 
L 448.056828 226.099845 
L 448.28014 233.887496 
L 448.503452 230.323496 
L 448.726763 228.890055 
L 449.173387 219.614225 
L 449.396698 216.119327 
L 449.62001 209.406855 
L 449.843322 222.453737 
L 450.066633 222.453737 
L 450.289945 219.663527 
L 450.513257 236.705075 
L 450.736568 229.994736 
L 450.95988 232.832116 
L 451.183192 232.832116 
L 451.406503 226.450536 
L 451.629815 235.271635 
L 452.076438 229.994736 
L 452.523062 213.828884 
L 452.969685 232.936155 
L 453.192996 278.276566 
L 453.416308 285.693726 
L 453.63962 298.031655 
L 453.862931 299.793855 
L 454.086243 297.277666 
L 454.309555 302.584066 
L 454.532866 291.904297 
L 454.756178 306.100897 
L 454.97949 305.722836 
L 455.202801 307.910266 
L 455.649425 302.584066 
L 455.872736 305.799506 
L 456.096048 294.818347 
L 456.31936 302.255306 
L 456.765983 296.929106 
L 456.989295 298.711106 
L 457.212606 309.672466 
L 457.435918 311.454466 
L 457.65923 318.194306 
L 457.882541 312.887906 
L 458.105853 311.105906 
L 458.329165 306.128266 
L 458.552476 306.128266 
L 458.775788 299.766486 
L 459.222411 304.694825 
L 459.445723 305.450947 
L 459.669035 305.799506 
L 459.892346 301.906747 
L 460.115658 293.056147 
L 460.338969 297.305035 
L 460.562281 299.087035 
L 460.785593 296.929106 
L 461.008904 301.906747 
L 461.232216 303.338055 
L 461.455528 301.953916 
L 461.678839 304.442736 
L 461.902151 305.120055 
L 462.125463 313.970655 
L 462.348774 312.208455 
L 462.572086 319.296855 
L 462.795398 321.409747 
L 463.018709 313.970655 
L 463.242021 319.296855 
L 463.688644 300.171916 
L 463.911956 305.450947 
L 464.135268 301.227296 
L 464.358579 310.777147 
L 464.581891 312.161286 
L 464.805203 305.450947 
L 465.028514 308.288327 
L 465.251826 314.998666 
L 465.475138 306.807717 
L 465.921761 318.466195 
L 466.145073 317.062256 
L 466.368384 309.521257 
L 466.815008 330.079637 
L 467.708254 301.501317 
L 467.931566 308.589717 
L 468.154877 298.916026 
L 468.378189 298.916026 
L 468.601501 293.609626 
L 468.824812 299.294087 
L 469.048124 299.294087 
L 469.271436 302.838287 
L 469.494747 302.838287 
L 470.164682 295.749887 
L 470.387994 296.098447 
L 470.611306 295.043067 
L 470.834617 297.153826 
L 471.057929 297.153826 
L 471.281241 302.507395 
L 471.504552 302.885456 
L 471.727864 294.741676 
L 471.951176 297.559256 
L 472.174487 294.741676 
L 472.397799 297.559256 
L 472.621111 296.503876 
L 472.844422 296.503876 
L 473.067734 301.830076 
L 473.291046 301.830076 
L 473.514357 305.045517 
L 473.737669 305.045517 
L 473.96098 308.918476 
L 474.184292 305.722836 
L 474.407604 313.565225 
L 474.630915 308.288327 
L 474.854227 306.506327 
L 475.30085 298.031655 
L 475.524162 293.810136 
L 475.970785 293.810136 
L 476.194097 287.851654 
L 476.864032 323.925936 
L 477.087344 321.813045 
L 477.533967 327.139245 
L 477.757279 320.381736 
L 477.98059 320.381736 
L 478.203902 321.108356 
L 478.427214 316.506645 
L 478.650525 318.268845 
L 479.097149 309.796305 
L 479.543772 323.246485 
L 479.767084 321.484285 
L 479.990395 324.301865 
L 480.213707 317.940085 
L 480.437019 318.646905 
L 480.883642 310.174366 
L 481.106953 313.718566 
L 481.553577 298.513755 
L 481.776888 313.669265 
L 482.0002 308.740926 
L 482.223512 320.050845 
L 482.446823 316.506645 
L 482.893447 305.978084 
L 483.116758 317.687996 
L 483.563382 313.367874 
L 483.786693 287.127166 
L 484.010005 283.582966 
L 484.233317 288.483936 
L 484.456628 277.898505 
L 484.67994 279.707874 
L 484.903252 279.707874 
L 485.126563 274.052915 
L 485.349875 265.511274 
L 485.573187 270.508715 
L 485.796498 268.726715 
L 486.01981 272.619474 
L 486.243122 270.837474 
L 486.466433 266.615955 
L 486.689745 269.055474 
L 487.136368 279.359315 
L 487.35968 280.085935 
L 487.582991 276.541735 
L 487.806303 266.944715 
L 488.029615 272.619474 
L 488.252926 269.055474 
L 488.476238 270.837474 
L 488.69955 268.348654 
L 488.922861 267.293274 
L 489.146173 261.638315 
L 489.369485 266.615955 
L 489.592796 266.615955 
L 489.816108 269.104776 
L 490.262731 271.593596 
L 490.709355 262.063545 
L 491.155978 265.936504 
L 491.37929 269.831396 
L 491.602601 259.178996 
L 491.825913 255.303904 
L 492.049225 260.960996 
L 492.272536 250.657155 
L 492.71916 267.218736 
L 492.942471 274.307136 
L 493.165783 259.178996 
L 493.389095 259.178996 
L 493.612406 271.440255 
L 493.835718 260.053666 
L 494.05903 232.708276 
L 494.282341 229.492836 
L 494.505653 235.147795 
L 494.728964 233.385595 
L 494.952276 240.473995 
L 495.175588 236.252476 
L 495.398899 245.780395 
L 495.622211 241.907436 
L 495.845523 243.669636 
L 496.068834 242.992317 
L 496.292146 233.037036 
L 496.515458 236.581236 
L 496.738769 230.548216 
L 497.185393 192.617395 
L 497.408704 191.892907 
L 497.632016 201.467995 
L 497.855328 203.249995 
L 498.301951 197.219107 
L 498.525263 198.603247 
L 498.748574 201.393457 
L 498.971886 194.379595 
L 499.195198 193.674907 
L 499.418509 187.291195 
L 499.641821 161.426416 
L 499.865133 176.658595 
L 500.088444 180.553487 
L 500.311756 169.194267 
L 500.535068 164.943247 
L 500.981691 179.120047 
L 501.205003 179.448806 
L 501.428314 181.230806 
L 501.651626 181.230806 
L 501.874937 177.338047 
L 502.098249 177.338047 
L 502.321561 179.120047 
L 502.544872 177.686606 
L 502.768184 172.360406 
L 502.991496 172.360406 
L 503.438119 165.622698 
L 503.661431 164.518017 
L 503.884742 167.733457 
L 504.331366 167.733457 
L 504.554677 160.625257 
L 504.777989 172.333037 
L 505.001301 168.788837 
L 505.224612 169.117596 
L 505.447924 170.899596 
L 505.671236 169.117596 
L 505.894547 171.954976 
L 506.787794 164.846776 
L 507.011106 141.142057 
L 507.234417 149.992657 
L 507.457729 151.426098 
L 507.904352 142.650036 
L 508.350975 189.327417 
L 508.574287 173.465087 
L 508.797599 187.565217 
L 509.02091 175.197786 
L 509.244222 178.741986 
L 509.467534 176.959986 
L 509.690845 179.120047 
L 509.914157 169.570195 
L 510.137469 176.255298 
L 510.36078 218.106247 
L 510.584092 129.203015 
L 510.807404 145.065345 
L 511.030715 193.625606 
L 511.254027 123.572266 
L 511.477339 118.594625 
L 511.70065 127.039795 
L 512.147274 130.583995 
L 512.370585 141.216595 
L 512.593897 139.434595 
L 512.817209 142.978795 
L 513.04052 141.216595 
L 513.263832 149.663898 
L 513.487144 148.304995 
L 513.710455 144.760795 
L 513.933767 139.434595 
L 514.157079 145.091687 
L 514.38039 141.216595 
L 514.603702 132.422866 
L 514.827014 137.749066 
L 515.050325 134.204866 
L 515.496948 121.866936 
L 515.943572 121.866936 
L 516.166883 155.546736 
L 516.390195 155.546736 
L 516.613507 152.002536 
L 516.836818 156.950675 
L 517.06013 177.160496 
L 517.283442 174.671675 
L 517.506753 176.132485 
L 518.176688 159.090936 
L 518.4 162.635136 
L 518.4 162.635136 
" style="fill:none;stroke:#4c72b0;stroke-linecap:round;stroke-width:1.75;"/>
   </g>
   <g id="patch_3">
    <path d="M 72 356.4 
L 518.4 356.4 
" style="fill:none;"/>
   </g>
   <g id="patch_4">
    <path d="M 72 39.6 
L 518.4 39.6 
" style="fill:none;"/>
   </g>
   <g id="patch_5">
    <path d="M 72 356.4 
L 72 39.6 
" style="fill:none;"/>
   </g>
   <g id="patch_6">
    <path d="M 518.4 356.4 
L 518.4 39.6 
" style="fill:none;"/>
   </g>
   <g id="text_15">
    <!-- SR - 0.10768082382690236 * zn -->
    <defs>
     <path d="M 9.125 0 
L 9.125 10.6875 
L 18.65625 10.6875 
L 18.65625 0 
z
" id="LiberationSans-2e"/>
     <path d="M 62.109375 19 
Q 62.109375 14.65625 60.421875 10.984375 
Q 58.734375 7.328125 55.21875 4.65625 
Q 51.703125 2 46.359375 0.5 
Q 41.015625 -0.984375 33.6875 -0.984375 
Q 20.84375 -0.984375 13.671875 3.515625 
Q 6.5 8.015625 4.546875 16.5 
L 13.578125 18.3125 
Q 14.265625 15.625 15.671875 13.421875 
Q 17.09375 11.234375 19.5 9.640625 
Q 21.921875 8.0625 25.484375 7.171875 
Q 29.046875 6.296875 34.03125 6.296875 
Q 38.1875 6.296875 41.65625 7 
Q 45.125 7.71875 47.609375 9.171875 
Q 50.09375 10.640625 51.484375 12.953125 
Q 52.875 15.28125 52.875 18.5 
Q 52.875 21.875 51.34375 23.96875 
Q 49.8125 26.078125 47.015625 27.4375 
Q 44.234375 28.8125 40.375 29.734375 
Q 36.53125 30.671875 31.84375 31.734375 
Q 28.953125 32.375 26.046875 33.125 
Q 23.140625 33.890625 20.484375 34.9375 
Q 17.828125 35.984375 15.484375 37.390625 
Q 13.140625 38.8125 11.421875 40.796875 
Q 9.71875 42.78125 8.734375 45.390625 
Q 7.765625 48 7.765625 51.421875 
Q 7.765625 56.296875 9.734375 59.78125 
Q 11.71875 63.28125 15.234375 65.53125 
Q 18.75 67.78125 23.53125 68.796875 
Q 28.328125 69.828125 33.890625 69.828125 
Q 40.28125 69.828125 44.8125 68.828125 
Q 49.359375 67.828125 52.484375 65.8125 
Q 55.609375 63.8125 57.484375 60.859375 
Q 59.375 57.90625 60.5 54 
L 51.3125 52.390625 
Q 50.640625 54.890625 49.34375 56.84375 
Q 48.046875 58.796875 45.9375 60.109375 
Q 43.84375 61.421875 40.84375 62.109375 
Q 37.84375 62.796875 33.796875 62.796875 
Q 29 62.796875 25.75 61.9375 
Q 22.515625 61.078125 20.53125 59.609375 
Q 18.5625 58.15625 17.703125 56.171875 
Q 16.84375 54.203125 16.84375 51.90625 
Q 16.84375 48.828125 18.375 46.84375 
Q 19.921875 44.875 22.5625 43.546875 
Q 25.203125 42.234375 28.65625 41.359375 
Q 32.125 40.484375 36.03125 39.59375 
Q 39.203125 38.875 42.359375 38.109375 
Q 45.515625 37.359375 48.390625 36.296875 
Q 51.265625 35.25 53.78125 33.828125 
Q 56.296875 32.421875 58.15625 30.375 
Q 60.015625 28.328125 61.0625 25.53125 
Q 62.109375 22.75 62.109375 19 
" id="LiberationSans-53"/>
     <path d="M 50.875 35.796875 
Q 50.875 26.609375 49.140625 19.703125 
Q 47.40625 12.796875 44.1875 8.203125 
Q 40.96875 3.609375 36.34375 1.3125 
Q 31.734375 -0.984375 25.984375 -0.984375 
Q 22.015625 -0.984375 18.84375 -0.171875 
Q 15.671875 0.640625 13.171875 2.34375 
Q 10.6875 4.046875 8.921875 6.78125 
Q 7.171875 9.515625 6.109375 13.375 
L 14.5 14.703125 
Q 15.875 10.25 18.78125 8.171875 
Q 21.6875 6.109375 26.125 6.109375 
Q 29.6875 6.109375 32.640625 7.78125 
Q 35.59375 9.46875 37.671875 12.84375 
Q 39.75 16.21875 40.921875 21.296875 
Q 42.09375 26.375 42.1875 33.203125 
Q 41.15625 30.90625 39.375 29.09375 
Q 37.59375 27.296875 35.328125 26.046875 
Q 33.0625 24.8125 30.421875 24.140625 
Q 27.78125 23.484375 25.09375 23.484375 
Q 20.40625 23.484375 16.625 25.171875 
Q 12.84375 26.859375 10.203125 29.875 
Q 7.5625 32.90625 6.125 37.171875 
Q 4.6875 41.453125 4.6875 46.6875 
Q 4.6875 52 6.21875 56.296875 
Q 7.765625 60.59375 10.6875 63.59375 
Q 13.625 66.609375 17.890625 68.21875 
Q 22.171875 69.828125 27.59375 69.828125 
Q 39.0625 69.828125 44.96875 61.328125 
Q 50.875 52.828125 50.875 35.796875 
M 41.3125 44.28125 
Q 41.3125 48.09375 40.40625 51.453125 
Q 39.5 54.828125 37.71875 57.3125 
Q 35.9375 59.8125 33.328125 61.25 
Q 30.71875 62.703125 27.296875 62.703125 
Q 24.125 62.703125 21.578125 61.578125 
Q 19.046875 60.453125 17.28125 58.375 
Q 15.53125 56.296875 14.578125 53.3125 
Q 13.625 50.34375 13.625 46.6875 
Q 13.625 43.21875 14.46875 40.234375 
Q 15.328125 37.25 17.03125 35.078125 
Q 18.75 32.90625 21.28125 31.65625 
Q 23.828125 30.421875 27.203125 30.421875 
Q 29.640625 30.421875 32.15625 31.25 
Q 34.671875 32.078125 36.6875 33.78125 
Q 38.71875 35.5 40.015625 38.109375 
Q 41.3125 40.71875 41.3125 44.28125 
" id="LiberationSans-39"/>
     <path d="M 56.84375 0 
L 38.96875 28.5625 
L 17.53125 28.5625 
L 17.53125 0 
L 8.203125 0 
L 8.203125 68.796875 
L 40.578125 68.796875 
Q 46.4375 68.796875 50.953125 67.453125 
Q 55.46875 66.109375 58.546875 63.5625 
Q 61.625 61.03125 63.234375 57.375 
Q 64.84375 53.71875 64.84375 49.125 
Q 64.84375 45.84375 63.890625 42.671875 
Q 62.9375 39.5 60.890625 36.859375 
Q 58.84375 34.234375 55.65625 32.328125 
Q 52.484375 30.421875 48.046875 29.640625 
L 67.578125 0 
z
M 55.46875 49.03125 
Q 55.46875 52.15625 54.390625 54.4375 
Q 53.328125 56.734375 51.265625 58.265625 
Q 49.21875 59.8125 46.28125 60.5625 
Q 43.359375 61.328125 39.65625 61.328125 
L 17.53125 61.328125 
L 17.53125 35.9375 
L 40.046875 35.9375 
Q 44.046875 35.9375 46.96875 36.9375 
Q 49.90625 37.9375 51.78125 39.6875 
Q 53.65625 41.453125 54.5625 43.84375 
Q 55.46875 46.234375 55.46875 49.03125 
" id="LiberationSans-52"/>
     <path d="M 2.390625 0 
L 2.390625 6.6875 
L 34.671875 46.046875 
L 4.34375 46.046875 
L 4.34375 52.828125 
L 44.578125 52.828125 
L 44.578125 46.140625 
L 12.25 6.78125 
L 46.390625 6.78125 
L 46.390625 0 
z
" id="LiberationSans-7a"/>
     <path d="M 22.265625 54.390625 
L 35.15625 59.421875 
L 37.359375 52.984375 
L 23.578125 49.421875 
L 32.625 37.203125 
L 26.8125 33.6875 
L 19.484375 46.296875 
L 11.859375 33.796875 
L 6.0625 37.3125 
L 15.28125 49.421875 
L 1.609375 52.984375 
L 3.8125 59.515625 
L 16.84375 54.296875 
L 16.265625 68.796875 
L 22.90625 68.796875 
z
" id="LiberationSans-2a"/>
     <path d="M 40.28125 0 
L 40.28125 33.5 
Q 40.28125 37.359375 39.71875 39.9375 
Q 39.15625 42.53125 37.890625 44.109375 
Q 36.625 45.703125 34.546875 46.359375 
Q 32.46875 47.015625 29.390625 47.015625 
Q 26.265625 47.015625 23.75 45.921875 
Q 21.234375 44.828125 19.453125 42.75 
Q 17.671875 40.671875 16.6875 37.625 
Q 15.71875 34.578125 15.71875 30.609375 
L 15.71875 0 
L 6.9375 0 
L 6.9375 41.546875 
Q 6.9375 43.21875 6.90625 45.046875 
Q 6.890625 46.875 6.828125 48.5 
Q 6.78125 50.140625 6.734375 51.3125 
Q 6.6875 52.484375 6.640625 52.828125 
L 14.9375 52.828125 
Q 14.984375 52.59375 15.03125 51.515625 
Q 15.09375 50.4375 15.15625 49.046875 
Q 15.234375 47.65625 15.28125 46.21875 
Q 15.328125 44.78125 15.328125 43.796875 
L 15.484375 43.796875 
Q 16.75 46.09375 18.265625 47.953125 
Q 19.78125 49.8125 21.78125 51.09375 
Q 23.78125 52.390625 26.359375 53.09375 
Q 28.953125 53.8125 32.375 53.8125 
Q 36.765625 53.8125 39.9375 52.734375 
Q 43.109375 51.65625 45.15625 49.40625 
Q 47.21875 47.171875 48.171875 43.625 
Q 49.125 40.09375 49.125 35.203125 
L 49.125 0 
z
" id="LiberationSans-6e"/>
    </defs>
    <g style="fill:#262626;" transform="translate(207.8025 34.6)scale(0.12 -0.12)">
     <use xlink:href="#LiberationSans-53"/>
     <use x="66.69921875" xlink:href="#LiberationSans-52"/>
     <use x="138.916015625" xlink:href="#LiberationSans-20"/>
     <use x="166.69921875" xlink:href="#LiberationSans-2d"/>
     <use x="200.0" xlink:href="#LiberationSans-20"/>
     <use x="227.783203125" xlink:href="#LiberationSans-30"/>
     <use x="283.3984375" xlink:href="#LiberationSans-2e"/>
     <use x="311.181640625" xlink:href="#LiberationSans-31"/>
     <use x="366.796875" xlink:href="#LiberationSans-30"/>
     <use x="422.412109375" xlink:href="#LiberationSans-37"/>
     <use x="478.02734375" xlink:href="#LiberationSans-36"/>
     <use x="533.642578125" xlink:href="#LiberationSans-38"/>
     <use x="589.2578125" xlink:href="#LiberationSans-30"/>
     <use x="644.873046875" xlink:href="#LiberationSans-38"/>
     <use x="700.48828125" xlink:href="#LiberationSans-32"/>
     <use x="756.103515625" xlink:href="#LiberationSans-33"/>
     <use x="811.71875" xlink:href="#LiberationSans-38"/>
     <use x="867.333984375" xlink:href="#LiberationSans-32"/>
     <use x="922.94921875" xlink:href="#LiberationSans-36"/>
     <use x="978.564453125" xlink:href="#LiberationSans-39"/>
     <use x="1034.1796875" xlink:href="#LiberationSans-30"/>
     <use x="1089.794921875" xlink:href="#LiberationSans-32"/>
     <use x="1145.41015625" xlink:href="#LiberationSans-33"/>
     <use x="1201.025390625" xlink:href="#LiberationSans-36"/>
     <use x="1256.640625" xlink:href="#LiberationSans-20"/>
     <use x="1284.423828125" xlink:href="#LiberationSans-2a"/>
     <use x="1323.33984375" xlink:href="#LiberationSans-20"/>
     <use x="1351.123046875" xlink:href="#LiberationSans-7a"/>
     <use x="1401.123046875" xlink:href="#LiberationSans-6e"/>
    </g>
   </g>
  </g>
 </g>
 <defs>
  <clipPath id="p6abfa47cc9">
   <rect height="316.8" width="446.4" x="72.0" y="39.6"/>
  </clipPath>
 </defs>
</svg>
