<?xml version="1.0" encoding="utf-8" standalone="no"?>
<!DOCTYPE svg PUBLIC "-//W3C//DTD SVG 1.1//EN"
  "http://www.w3.org/Graphics/SVG/1.1/DTD/svg11.dtd">
<!-- Created with matplotlib (http://matplotlib.org/) -->
<svg height="396pt" version="1.1" viewBox="0 0 576 396" width="576pt" xmlns="http://www.w3.org/2000/svg" xmlns:xlink="http://www.w3.org/1999/xlink">
 <defs>
  <style type="text/css">
*{stroke-linecap:butt;stroke-linejoin:round;stroke-miterlimit:100000;}
  </style>
 </defs>
 <g id="figure_1">
  <g id="patch_1">
   <path d="M 0 396 
L 576 396 
L 576 0 
L 0 0 
z
" style="fill:#ffffff;"/>
  </g>
  <g id="axes_1">
   <g id="patch_2">
    <path d="M 72 356.4 
L 518.4 356.4 
L 518.4 39.6 
L 72 39.6 
z
" style="fill:#eaeaf2;"/>
   </g>
   <g id="matplotlib.axis_1">
    <g id="xtick_1">
     <g id="line2d_1">
      <path clip-path="url(#pb874c7837a)" d="M 72 356.4 
L 72 39.6 
" style="fill:none;stroke:#ffffff;stroke-linecap:round;"/>
     </g>
     <g id="line2d_2"/>
     <g id="line2d_3"/>
     <g id="text_1">
      <!-- 2016-09-29 22:45:00 -->
      <defs>
       <path d="M 5.03125 0 
L 5.03125 6.203125 
Q 7.515625 11.921875 11.109375 16.28125 
Q 14.703125 20.65625 18.65625 24.1875 
Q 22.609375 27.734375 26.484375 30.765625 
Q 30.375 33.796875 33.5 36.8125 
Q 36.625 39.84375 38.546875 43.15625 
Q 40.484375 46.484375 40.484375 50.6875 
Q 40.484375 53.609375 39.59375 55.828125 
Q 38.71875 58.0625 37.0625 59.5625 
Q 35.40625 61.078125 33.078125 61.828125 
Q 30.765625 62.59375 27.9375 62.59375 
Q 25.296875 62.59375 22.96875 61.859375 
Q 20.65625 61.140625 18.84375 59.671875 
Q 17.046875 58.203125 15.890625 56.03125 
Q 14.75 53.859375 14.40625 50.984375 
L 5.421875 51.8125 
Q 5.859375 55.515625 7.46875 58.78125 
Q 9.078125 62.0625 11.90625 64.53125 
Q 14.75 67 18.71875 68.40625 
Q 22.703125 69.828125 27.9375 69.828125 
Q 33.0625 69.828125 37.0625 68.609375 
Q 41.0625 67.390625 43.8125 64.984375 
Q 46.578125 62.59375 48.046875 59.078125 
Q 49.515625 55.5625 49.515625 50.984375 
Q 49.515625 47.515625 48.265625 44.390625 
Q 47.015625 41.265625 44.9375 38.421875 
Q 42.875 35.59375 40.140625 32.953125 
Q 37.40625 30.328125 34.421875 27.8125 
Q 31.453125 25.296875 28.421875 22.828125 
Q 25.390625 20.359375 22.71875 17.859375 
Q 20.0625 15.375 17.96875 12.8125 
Q 15.875 10.25 14.703125 7.46875 
L 50.59375 7.46875 
L 50.59375 0 
z
" id="LiberationSans-32"/>
       <path d="M 7.625 0 
L 7.625 7.46875 
L 25.140625 7.46875 
L 25.140625 60.40625 
L 9.625 49.3125 
L 9.625 57.625 
L 25.875 68.796875 
L 33.984375 68.796875 
L 33.984375 7.46875 
L 50.734375 7.46875 
L 50.734375 0 
z
" id="LiberationSans-31"/>
       <path d="M 51.421875 22.40625 
Q 51.421875 17.234375 49.859375 12.9375 
Q 48.296875 8.640625 45.21875 5.53125 
Q 42.140625 2.4375 37.578125 0.71875 
Q 33.015625 -0.984375 27 -0.984375 
Q 21.578125 -0.984375 17.546875 0.28125 
Q 13.53125 1.5625 10.734375 3.78125 
Q 7.953125 6 6.3125 8.984375 
Q 4.6875 11.96875 4 15.375 
L 12.890625 16.40625 
Q 13.421875 14.453125 14.390625 12.625 
Q 15.375 10.796875 17.0625 9.34375 
Q 18.75 7.90625 21.21875 7.046875 
Q 23.6875 6.203125 27.203125 6.203125 
Q 30.609375 6.203125 33.390625 7.25 
Q 36.1875 8.296875 38.15625 10.34375 
Q 40.140625 12.40625 41.203125 15.375 
Q 42.28125 18.359375 42.28125 22.21875 
Q 42.28125 25.390625 41.25 28.046875 
Q 40.234375 30.71875 38.328125 32.640625 
Q 36.421875 34.578125 33.65625 35.640625 
Q 30.90625 36.71875 27.390625 36.71875 
Q 25.203125 36.71875 23.34375 36.328125 
Q 21.484375 35.9375 19.890625 35.25 
Q 18.3125 34.578125 17.015625 33.671875 
Q 15.71875 32.765625 14.59375 31.78125 
L 6 31.78125 
L 8.296875 68.796875 
L 47.40625 68.796875 
L 47.40625 61.328125 
L 16.3125 61.328125 
L 14.984375 39.5 
Q 17.328125 41.3125 20.84375 42.59375 
Q 24.359375 43.890625 29.203125 43.890625 
Q 34.328125 43.890625 38.421875 42.328125 
Q 42.53125 40.765625 45.40625 37.90625 
Q 48.296875 35.0625 49.859375 31.109375 
Q 51.421875 27.15625 51.421875 22.40625 
" id="LiberationSans-35"/>
       <path d="M 51.703125 34.421875 
Q 51.703125 24.515625 49.828125 17.75 
Q 47.953125 10.984375 44.703125 6.8125 
Q 41.453125 2.640625 37.0625 0.828125 
Q 32.671875 -0.984375 27.6875 -0.984375 
Q 22.65625 -0.984375 18.3125 0.828125 
Q 13.96875 2.640625 10.765625 6.78125 
Q 7.5625 10.9375 5.734375 17.703125 
Q 3.90625 24.46875 3.90625 34.421875 
Q 3.90625 44.828125 5.734375 51.640625 
Q 7.5625 58.453125 10.78125 62.5 
Q 14.015625 66.546875 18.40625 68.1875 
Q 22.796875 69.828125 27.984375 69.828125 
Q 32.90625 69.828125 37.21875 68.1875 
Q 41.546875 66.546875 44.765625 62.5 
Q 48 58.453125 49.84375 51.640625 
Q 51.703125 44.828125 51.703125 34.421875 
M 42.78125 34.421875 
Q 42.78125 42.625 41.796875 48.0625 
Q 40.828125 53.515625 38.921875 56.765625 
Q 37.015625 60.015625 34.25 61.359375 
Q 31.5 62.703125 27.984375 62.703125 
Q 24.265625 62.703125 21.4375 61.328125 
Q 18.609375 59.96875 16.671875 56.71875 
Q 14.75 53.46875 13.765625 48.015625 
Q 12.796875 42.578125 12.796875 34.421875 
Q 12.796875 26.515625 13.796875 21.09375 
Q 14.796875 15.671875 16.71875 12.375 
Q 18.65625 9.078125 21.4375 7.640625 
Q 24.21875 6.203125 27.78125 6.203125 
Q 31.25 6.203125 34.03125 7.640625 
Q 36.8125 9.078125 38.734375 12.375 
Q 40.671875 15.671875 41.71875 21.09375 
Q 42.78125 26.515625 42.78125 34.421875 
" id="LiberationSans-30"/>
       <path d="M 50.875 35.796875 
Q 50.875 26.609375 49.140625 19.703125 
Q 47.40625 12.796875 44.1875 8.203125 
Q 40.96875 3.609375 36.34375 1.3125 
Q 31.734375 -0.984375 25.984375 -0.984375 
Q 22.015625 -0.984375 18.84375 -0.171875 
Q 15.671875 0.640625 13.171875 2.34375 
Q 10.6875 4.046875 8.921875 6.78125 
Q 7.171875 9.515625 6.109375 13.375 
L 14.5 14.703125 
Q 15.875 10.25 18.78125 8.171875 
Q 21.6875 6.109375 26.125 6.109375 
Q 29.6875 6.109375 32.640625 7.78125 
Q 35.59375 9.46875 37.671875 12.84375 
Q 39.75 16.21875 40.921875 21.296875 
Q 42.09375 26.375 42.1875 33.203125 
Q 41.15625 30.90625 39.375 29.09375 
Q 37.59375 27.296875 35.328125 26.046875 
Q 33.0625 24.8125 30.421875 24.140625 
Q 27.78125 23.484375 25.09375 23.484375 
Q 20.40625 23.484375 16.625 25.171875 
Q 12.84375 26.859375 10.203125 29.875 
Q 7.5625 32.90625 6.125 37.171875 
Q 4.6875 41.453125 4.6875 46.6875 
Q 4.6875 52 6.21875 56.296875 
Q 7.765625 60.59375 10.6875 63.59375 
Q 13.625 66.609375 17.890625 68.21875 
Q 22.171875 69.828125 27.59375 69.828125 
Q 39.0625 69.828125 44.96875 61.328125 
Q 50.875 52.828125 50.875 35.796875 
M 41.3125 44.28125 
Q 41.3125 48.09375 40.40625 51.453125 
Q 39.5 54.828125 37.71875 57.3125 
Q 35.9375 59.8125 33.328125 61.25 
Q 30.71875 62.703125 27.296875 62.703125 
Q 24.125 62.703125 21.578125 61.578125 
Q 19.046875 60.453125 17.28125 58.375 
Q 15.53125 56.296875 14.578125 53.3125 
Q 13.625 50.34375 13.625 46.6875 
Q 13.625 43.21875 14.46875 40.234375 
Q 15.328125 37.25 17.03125 35.078125 
Q 18.75 32.90625 21.28125 31.65625 
Q 23.828125 30.421875 27.203125 30.421875 
Q 29.640625 30.421875 32.15625 31.25 
Q 34.671875 32.078125 36.6875 33.78125 
Q 38.71875 35.5 40.015625 38.109375 
Q 41.3125 40.71875 41.3125 44.28125 
" id="LiberationSans-39"/>
       <path d="M 9.125 42.71875 
L 9.125 52.828125 
L 18.65625 52.828125 
L 18.65625 42.71875 
z
M 9.125 0 
L 9.125 10.109375 
L 18.65625 10.109375 
L 18.65625 0 
z
" id="LiberationSans-3a"/>
       <path d="M 43.015625 15.578125 
L 43.015625 0 
L 34.71875 0 
L 34.71875 15.578125 
L 2.296875 15.578125 
L 2.296875 22.40625 
L 33.796875 68.796875 
L 43.015625 68.796875 
L 43.015625 22.515625 
L 52.6875 22.515625 
L 52.6875 15.578125 
z
M 34.71875 58.890625 
Q 34.625 58.640625 34.234375 57.9375 
Q 33.84375 57.234375 33.34375 56.34375 
Q 32.859375 55.46875 32.34375 54.5625 
Q 31.84375 53.65625 31.453125 53.078125 
L 13.8125 27.09375 
Q 13.578125 26.703125 13.109375 26.0625 
Q 12.640625 25.4375 12.15625 24.78125 
Q 11.671875 24.125 11.171875 23.484375 
Q 10.6875 22.859375 10.40625 22.515625 
L 34.71875 22.515625 
z
" id="LiberationSans-34"/>
       <path id="LiberationSans-20"/>
       <path d="M 4.4375 22.65625 
L 4.4375 30.46875 
L 28.859375 30.46875 
L 28.859375 22.65625 
z
" id="LiberationSans-2d"/>
       <path d="M 51.21875 22.515625 
Q 51.21875 17.328125 49.78125 13 
Q 48.34375 8.6875 45.53125 5.578125 
Q 42.71875 2.484375 38.5625 0.75 
Q 34.421875 -0.984375 29 -0.984375 
Q 23 -0.984375 18.5 1.3125 
Q 14.015625 3.609375 11.03125 7.921875 
Q 8.0625 12.25 6.5625 18.53125 
Q 5.078125 24.8125 5.078125 32.8125 
Q 5.078125 42 6.765625 48.921875 
Q 8.453125 55.859375 11.625 60.5 
Q 14.796875 65.140625 19.359375 67.484375 
Q 23.921875 69.828125 29.6875 69.828125 
Q 33.203125 69.828125 36.28125 69.09375 
Q 39.359375 68.359375 41.875 66.71875 
Q 44.390625 65.09375 46.28125 62.40625 
Q 48.1875 59.71875 49.3125 55.8125 
L 40.921875 54.296875 
Q 39.546875 58.734375 36.546875 60.71875 
Q 33.546875 62.703125 29.59375 62.703125 
Q 25.984375 62.703125 23.046875 60.984375 
Q 20.125 59.28125 18.0625 55.875 
Q 16.015625 52.484375 14.90625 47.359375 
Q 13.8125 42.234375 13.8125 35.40625 
Q 16.21875 39.84375 20.5625 42.15625 
Q 24.90625 44.484375 30.515625 44.484375 
Q 35.203125 44.484375 39.015625 42.96875 
Q 42.828125 41.453125 45.53125 38.59375 
Q 48.25 35.75 49.734375 31.671875 
Q 51.21875 27.59375 51.21875 22.515625 
M 42.28125 22.125 
Q 42.28125 25.6875 41.40625 28.5625 
Q 40.53125 31.453125 38.765625 33.46875 
Q 37.015625 35.5 34.421875 36.59375 
Q 31.84375 37.703125 28.421875 37.703125 
Q 26.03125 37.703125 23.578125 36.984375 
Q 21.140625 36.28125 19.15625 34.6875 
Q 17.1875 33.109375 15.9375 30.515625 
Q 14.703125 27.9375 14.703125 24.21875 
Q 14.703125 20.40625 15.671875 17.109375 
Q 16.65625 13.8125 18.484375 11.375 
Q 20.3125 8.9375 22.890625 7.515625 
Q 25.484375 6.109375 28.71875 6.109375 
Q 31.890625 6.109375 34.40625 7.203125 
Q 36.921875 8.296875 38.671875 10.375 
Q 40.4375 12.453125 41.359375 15.421875 
Q 42.28125 18.40625 42.28125 22.125 
" id="LiberationSans-36"/>
      </defs>
      <g style="fill:#262626;" transform="translate(25.5765625 370.646875)scale(0.1 -0.1)">
       <use xlink:href="#LiberationSans-32"/>
       <use x="55.615234375" xlink:href="#LiberationSans-30"/>
       <use x="111.23046875" xlink:href="#LiberationSans-31"/>
       <use x="166.845703125" xlink:href="#LiberationSans-36"/>
       <use x="222.4609375" xlink:href="#LiberationSans-2d"/>
       <use x="255.76171875" xlink:href="#LiberationSans-30"/>
       <use x="311.376953125" xlink:href="#LiberationSans-39"/>
       <use x="366.9921875" xlink:href="#LiberationSans-2d"/>
       <use x="400.29296875" xlink:href="#LiberationSans-32"/>
       <use x="455.908203125" xlink:href="#LiberationSans-39"/>
       <use x="511.5234375" xlink:href="#LiberationSans-20"/>
       <use x="539.306640625" xlink:href="#LiberationSans-32"/>
       <use x="594.921875" xlink:href="#LiberationSans-32"/>
       <use x="650.537109375" xlink:href="#LiberationSans-3a"/>
       <use x="678.3203125" xlink:href="#LiberationSans-34"/>
       <use x="733.935546875" xlink:href="#LiberationSans-35"/>
       <use x="789.55078125" xlink:href="#LiberationSans-3a"/>
       <use x="817.333984375" xlink:href="#LiberationSans-30"/>
       <use x="872.94921875" xlink:href="#LiberationSans-30"/>
      </g>
     </g>
    </g>
    <g id="xtick_2">
     <g id="line2d_4">
      <path clip-path="url(#pb874c7837a)" d="M 183.655828 356.4 
L 183.655828 39.6 
" style="fill:none;stroke:#ffffff;stroke-linecap:round;"/>
     </g>
     <g id="line2d_5"/>
     <g id="line2d_6"/>
     <g id="text_2">
      <!-- 2016-10-10 21:03:00 -->
      <defs>
       <path d="M 51.21875 19 
Q 51.21875 14.265625 49.671875 10.546875 
Q 48.140625 6.84375 45.1875 4.265625 
Q 42.234375 1.703125 37.859375 0.359375 
Q 33.5 -0.984375 27.875 -0.984375 
Q 21.484375 -0.984375 17.109375 0.609375 
Q 12.75 2.203125 9.90625 4.8125 
Q 7.078125 7.421875 5.65625 10.765625 
Q 4.25 14.109375 3.8125 17.671875 
L 12.890625 18.5 
Q 13.28125 15.765625 14.328125 13.515625 
Q 15.375 11.28125 17.1875 9.671875 
Q 19 8.0625 21.625 7.171875 
Q 24.265625 6.296875 27.875 6.296875 
Q 34.515625 6.296875 38.296875 9.5625 
Q 42.09375 12.84375 42.09375 19.28125 
Q 42.09375 23.09375 40.40625 25.40625 
Q 38.71875 27.734375 36.203125 29.03125 
Q 33.6875 30.328125 30.734375 30.765625 
Q 27.78125 31.203125 25.296875 31.203125 
L 20.3125 31.203125 
L 20.3125 38.8125 
L 25.09375 38.8125 
Q 27.59375 38.8125 30.265625 39.328125 
Q 32.953125 39.84375 35.171875 41.1875 
Q 37.40625 42.53125 38.84375 44.828125 
Q 40.28125 47.125 40.28125 50.6875 
Q 40.28125 56.203125 37.03125 59.390625 
Q 33.796875 62.59375 27.390625 62.59375 
Q 21.578125 62.59375 17.984375 59.609375 
Q 14.40625 56.640625 13.8125 51.21875 
L 4.984375 51.90625 
Q 5.515625 56.453125 7.46875 59.8125 
Q 9.421875 63.1875 12.421875 65.40625 
Q 15.4375 67.625 19.28125 68.71875 
Q 23.140625 69.828125 27.484375 69.828125 
Q 33.25 69.828125 37.390625 68.375 
Q 41.546875 66.9375 44.1875 64.46875 
Q 46.828125 62.015625 48.0625 58.6875 
Q 49.3125 55.375 49.3125 51.609375 
Q 49.3125 48.578125 48.484375 45.9375 
Q 47.65625 43.3125 45.890625 41.203125 
Q 44.140625 39.109375 41.421875 37.59375 
Q 38.71875 36.078125 34.90625 35.296875 
L 34.90625 35.109375 
Q 39.0625 34.671875 42.140625 33.21875 
Q 45.21875 31.78125 47.21875 29.625 
Q 49.21875 27.484375 50.21875 24.75 
Q 51.21875 22.015625 51.21875 19 
" id="LiberationSans-33"/>
      </defs>
      <g style="fill:#262626;" transform="translate(137.232390414 370.646875)scale(0.1 -0.1)">
       <use xlink:href="#LiberationSans-32"/>
       <use x="55.615234375" xlink:href="#LiberationSans-30"/>
       <use x="111.23046875" xlink:href="#LiberationSans-31"/>
       <use x="166.845703125" xlink:href="#LiberationSans-36"/>
       <use x="222.4609375" xlink:href="#LiberationSans-2d"/>
       <use x="255.76171875" xlink:href="#LiberationSans-31"/>
       <use x="311.376953125" xlink:href="#LiberationSans-30"/>
       <use x="366.9921875" xlink:href="#LiberationSans-2d"/>
       <use x="400.29296875" xlink:href="#LiberationSans-31"/>
       <use x="455.908203125" xlink:href="#LiberationSans-30"/>
       <use x="511.5234375" xlink:href="#LiberationSans-20"/>
       <use x="539.306640625" xlink:href="#LiberationSans-32"/>
       <use x="594.921875" xlink:href="#LiberationSans-31"/>
       <use x="650.537109375" xlink:href="#LiberationSans-3a"/>
       <use x="678.3203125" xlink:href="#LiberationSans-30"/>
       <use x="733.935546875" xlink:href="#LiberationSans-33"/>
       <use x="789.55078125" xlink:href="#LiberationSans-3a"/>
       <use x="817.333984375" xlink:href="#LiberationSans-30"/>
       <use x="872.94921875" xlink:href="#LiberationSans-30"/>
      </g>
     </g>
    </g>
    <g id="xtick_3">
     <g id="line2d_7">
      <path clip-path="url(#pb874c7837a)" d="M 295.311656 356.4 
L 295.311656 39.6 
" style="fill:none;stroke:#ffffff;stroke-linecap:round;"/>
     </g>
     <g id="line2d_8"/>
     <g id="line2d_9"/>
     <g id="text_3">
      <!-- 2016-10-11 23:07:00 -->
      <defs>
       <path d="M 50.59375 61.671875 
Q 45.40625 53.765625 41.0625 46.453125 
Q 36.71875 39.15625 33.59375 31.75 
Q 30.46875 24.359375 28.734375 16.578125 
Q 27 8.796875 27 0 
L 17.828125 0 
Q 17.828125 8.25 19.78125 16.1875 
Q 21.734375 24.125 25.046875 31.765625 
Q 28.375 39.40625 32.765625 46.78125 
Q 37.15625 54.15625 42.09375 61.328125 
L 5.125 61.328125 
L 5.125 68.796875 
L 50.59375 68.796875 
z
" id="LiberationSans-37"/>
      </defs>
      <g style="fill:#262626;" transform="translate(248.888218328 370.646875)scale(0.1 -0.1)">
       <use xlink:href="#LiberationSans-32"/>
       <use x="55.615234375" xlink:href="#LiberationSans-30"/>
       <use x="111.23046875" xlink:href="#LiberationSans-31"/>
       <use x="166.845703125" xlink:href="#LiberationSans-36"/>
       <use x="222.4609375" xlink:href="#LiberationSans-2d"/>
       <use x="255.76171875" xlink:href="#LiberationSans-31"/>
       <use x="311.376953125" xlink:href="#LiberationSans-30"/>
       <use x="366.9921875" xlink:href="#LiberationSans-2d"/>
       <use x="400.29296875" xlink:href="#LiberationSans-31"/>
       <use x="455.908203125" xlink:href="#LiberationSans-31"/>
       <use x="511.5234375" xlink:href="#LiberationSans-20"/>
       <use x="539.306640625" xlink:href="#LiberationSans-32"/>
       <use x="594.921875" xlink:href="#LiberationSans-33"/>
       <use x="650.537109375" xlink:href="#LiberationSans-3a"/>
       <use x="678.3203125" xlink:href="#LiberationSans-30"/>
       <use x="733.935546875" xlink:href="#LiberationSans-37"/>
       <use x="789.55078125" xlink:href="#LiberationSans-3a"/>
       <use x="817.333984375" xlink:href="#LiberationSans-30"/>
       <use x="872.94921875" xlink:href="#LiberationSans-30"/>
      </g>
     </g>
    </g>
    <g id="xtick_4">
     <g id="line2d_10">
      <path clip-path="url(#pb874c7837a)" d="M 406.967484 356.4 
L 406.967484 39.6 
" style="fill:none;stroke:#ffffff;stroke-linecap:round;"/>
     </g>
     <g id="line2d_11"/>
     <g id="line2d_12"/>
     <g id="text_4">
      <!-- 2016-10-13 10:56:00 -->
      <g style="fill:#262626;" transform="translate(360.544046242 370.646875)scale(0.1 -0.1)">
       <use xlink:href="#LiberationSans-32"/>
       <use x="55.615234375" xlink:href="#LiberationSans-30"/>
       <use x="111.23046875" xlink:href="#LiberationSans-31"/>
       <use x="166.845703125" xlink:href="#LiberationSans-36"/>
       <use x="222.4609375" xlink:href="#LiberationSans-2d"/>
       <use x="255.76171875" xlink:href="#LiberationSans-31"/>
       <use x="311.376953125" xlink:href="#LiberationSans-30"/>
       <use x="366.9921875" xlink:href="#LiberationSans-2d"/>
       <use x="400.29296875" xlink:href="#LiberationSans-31"/>
       <use x="455.908203125" xlink:href="#LiberationSans-33"/>
       <use x="511.5234375" xlink:href="#LiberationSans-20"/>
       <use x="539.306640625" xlink:href="#LiberationSans-31"/>
       <use x="594.921875" xlink:href="#LiberationSans-30"/>
       <use x="650.537109375" xlink:href="#LiberationSans-3a"/>
       <use x="678.3203125" xlink:href="#LiberationSans-35"/>
       <use x="733.935546875" xlink:href="#LiberationSans-36"/>
       <use x="789.55078125" xlink:href="#LiberationSans-3a"/>
       <use x="817.333984375" xlink:href="#LiberationSans-30"/>
       <use x="872.94921875" xlink:href="#LiberationSans-30"/>
      </g>
     </g>
    </g>
    <g id="text_5">
     <!-- time -->
     <defs>
      <path d="M 13.484375 24.5625 
Q 13.484375 20.40625 14.328125 16.90625 
Q 15.1875 13.421875 16.96875 10.90625 
Q 18.75 8.40625 21.53125 7 
Q 24.3125 5.609375 28.21875 5.609375 
Q 33.9375 5.609375 37.375 7.90625 
Q 40.828125 10.203125 42.046875 13.71875 
L 49.75 11.53125 
Q 48.921875 9.328125 47.4375 7.109375 
Q 45.953125 4.890625 43.453125 3.09375 
Q 40.96875 1.3125 37.234375 0.15625 
Q 33.5 -0.984375 28.21875 -0.984375 
Q 16.5 -0.984375 10.375 6 
Q 4.25 12.984375 4.25 26.765625 
Q 4.25 34.1875 6.09375 39.328125 
Q 7.953125 44.484375 11.171875 47.703125 
Q 14.40625 50.921875 18.703125 52.359375 
Q 23 53.8125 27.875 53.8125 
Q 34.515625 53.8125 38.984375 51.65625 
Q 43.453125 49.515625 46.15625 45.71875 
Q 48.875 41.9375 50.015625 36.8125 
Q 51.171875 31.6875 51.171875 25.734375 
L 51.171875 24.5625 
z
M 42.09375 31.296875 
Q 41.359375 39.65625 37.84375 43.484375 
Q 34.328125 47.3125 27.734375 47.3125 
Q 25.53125 47.3125 23.109375 46.609375 
Q 20.703125 45.90625 18.65625 44.09375 
Q 16.609375 42.28125 15.1875 39.171875 
Q 13.765625 36.078125 13.578125 31.296875 
z
" id="LiberationSans-65"/>
      <path d="M 6.6875 64.0625 
L 6.6875 72.46875 
L 15.484375 72.46875 
L 15.484375 64.0625 
z
M 6.6875 0 
L 6.6875 52.828125 
L 15.484375 52.828125 
L 15.484375 0 
z
" id="LiberationSans-69"/>
      <path d="M 27.046875 0.390625 
Q 25.046875 -0.140625 22.96875 -0.453125 
Q 20.90625 -0.78125 18.171875 -0.78125 
Q 7.625 -0.78125 7.625 11.1875 
L 7.625 46.4375 
L 1.515625 46.4375 
L 1.515625 52.828125 
L 7.953125 52.828125 
L 10.546875 64.65625 
L 16.40625 64.65625 
L 16.40625 52.828125 
L 26.171875 52.828125 
L 26.171875 46.4375 
L 16.40625 46.4375 
L 16.40625 13.09375 
Q 16.40625 9.28125 17.640625 7.734375 
Q 18.890625 6.203125 21.96875 6.203125 
Q 23.25 6.203125 24.4375 6.390625 
Q 25.640625 6.59375 27.046875 6.890625 
z
" id="LiberationSans-74"/>
      <path d="M 37.5 0 
L 37.5 33.5 
Q 37.5 37.359375 37.015625 39.9375 
Q 36.53125 42.53125 35.375 44.109375 
Q 34.234375 45.703125 32.375 46.359375 
Q 30.515625 47.015625 27.828125 47.015625 
Q 25.046875 47.015625 22.796875 45.921875 
Q 20.5625 44.828125 18.96875 42.75 
Q 17.390625 40.671875 16.53125 37.625 
Q 15.671875 34.578125 15.671875 30.609375 
L 15.671875 0 
L 6.9375 0 
L 6.9375 41.546875 
Q 6.9375 43.21875 6.90625 45.046875 
Q 6.890625 46.875 6.828125 48.5 
Q 6.78125 50.140625 6.734375 51.3125 
Q 6.6875 52.484375 6.640625 52.828125 
L 14.9375 52.828125 
Q 14.984375 52.59375 15.03125 51.515625 
Q 15.09375 50.4375 15.15625 49.046875 
Q 15.234375 47.65625 15.28125 46.21875 
Q 15.328125 44.78125 15.328125 43.796875 
L 15.484375 43.796875 
Q 16.65625 46.09375 18.015625 47.953125 
Q 19.390625 49.8125 21.21875 51.09375 
Q 23.046875 52.390625 25.40625 53.09375 
Q 27.78125 53.8125 30.90625 53.8125 
Q 36.921875 53.8125 40.40625 51.421875 
Q 43.890625 49.03125 45.265625 43.796875 
L 45.40625 43.796875 
Q 46.578125 46.09375 48.046875 47.953125 
Q 49.515625 49.8125 51.46875 51.09375 
Q 53.421875 52.390625 55.859375 53.09375 
Q 58.296875 53.8125 61.421875 53.8125 
Q 65.4375 53.8125 68.328125 52.734375 
Q 71.234375 51.65625 73.09375 49.40625 
Q 74.953125 47.171875 75.828125 43.625 
Q 76.703125 40.09375 76.703125 35.203125 
L 76.703125 0 
L 68.015625 0 
L 68.015625 33.5 
Q 68.015625 37.359375 67.53125 39.9375 
Q 67.046875 42.53125 65.890625 44.109375 
Q 64.75 45.703125 62.890625 46.359375 
Q 61.03125 47.015625 58.34375 47.015625 
Q 55.5625 47.015625 53.3125 45.96875 
Q 51.078125 44.921875 49.484375 42.875 
Q 47.90625 40.828125 47.046875 37.75 
Q 46.1875 34.671875 46.1875 30.609375 
L 46.1875 0 
z
" id="LiberationSans-6d"/>
     </defs>
     <g style="fill:#262626;" transform="translate(284.81015625 385.6934375)scale(0.11 -0.11)">
      <use xlink:href="#LiberationSans-74"/>
      <use x="27.783203125" xlink:href="#LiberationSans-69"/>
      <use x="50.0" xlink:href="#LiberationSans-6d"/>
      <use x="133.30078125" xlink:href="#LiberationSans-65"/>
     </g>
    </g>
   </g>
   <g id="matplotlib.axis_2">
    <g id="ytick_1">
     <g id="line2d_13">
      <path clip-path="url(#pb874c7837a)" d="M 72 356.4 
L 518.4 356.4 
" style="fill:none;stroke:#ffffff;stroke-linecap:round;"/>
     </g>
     <g id="line2d_14"/>
     <g id="line2d_15"/>
     <g id="text_6">
      <!-- −3250 -->
      <defs>
       <path d="M 4.9375 29.6875 
L 4.9375 36.8125 
L 53.515625 36.8125 
L 53.515625 29.6875 
z
" id="LiberationSans-2212"/>
      </defs>
      <g style="fill:#262626;" transform="translate(36.915625 358.9859375)scale(0.1 -0.1)">
       <use xlink:href="#LiberationSans-2212"/>
       <use x="58.3984375" xlink:href="#LiberationSans-33"/>
       <use x="114.013671875" xlink:href="#LiberationSans-32"/>
       <use x="169.62890625" xlink:href="#LiberationSans-35"/>
       <use x="225.244140625" xlink:href="#LiberationSans-30"/>
      </g>
     </g>
    </g>
    <g id="ytick_2">
     <g id="line2d_16">
      <path clip-path="url(#pb874c7837a)" d="M 72 321.2 
L 518.4 321.2 
" style="fill:none;stroke:#ffffff;stroke-linecap:round;"/>
     </g>
     <g id="line2d_17"/>
     <g id="line2d_18"/>
     <g id="text_7">
      <!-- −3200 -->
      <g style="fill:#262626;" transform="translate(36.915625 323.7859375)scale(0.1 -0.1)">
       <use xlink:href="#LiberationSans-2212"/>
       <use x="58.3984375" xlink:href="#LiberationSans-33"/>
       <use x="114.013671875" xlink:href="#LiberationSans-32"/>
       <use x="169.62890625" xlink:href="#LiberationSans-30"/>
       <use x="225.244140625" xlink:href="#LiberationSans-30"/>
      </g>
     </g>
    </g>
    <g id="ytick_3">
     <g id="line2d_19">
      <path clip-path="url(#pb874c7837a)" d="M 72 286 
L 518.4 286 
" style="fill:none;stroke:#ffffff;stroke-linecap:round;"/>
     </g>
     <g id="line2d_20"/>
     <g id="line2d_21"/>
     <g id="text_8">
      <!-- −3150 -->
      <g style="fill:#262626;" transform="translate(36.915625 288.5859375)scale(0.1 -0.1)">
       <use xlink:href="#LiberationSans-2212"/>
       <use x="58.3984375" xlink:href="#LiberationSans-33"/>
       <use x="114.013671875" xlink:href="#LiberationSans-31"/>
       <use x="169.62890625" xlink:href="#LiberationSans-35"/>
       <use x="225.244140625" xlink:href="#LiberationSans-30"/>
      </g>
     </g>
    </g>
    <g id="ytick_4">
     <g id="line2d_22">
      <path clip-path="url(#pb874c7837a)" d="M 72 250.8 
L 518.4 250.8 
" style="fill:none;stroke:#ffffff;stroke-linecap:round;"/>
     </g>
     <g id="line2d_23"/>
     <g id="line2d_24"/>
     <g id="text_9">
      <!-- −3100 -->
      <g style="fill:#262626;" transform="translate(36.915625 253.3859375)scale(0.1 -0.1)">
       <use xlink:href="#LiberationSans-2212"/>
       <use x="58.3984375" xlink:href="#LiberationSans-33"/>
       <use x="114.013671875" xlink:href="#LiberationSans-31"/>
       <use x="169.62890625" xlink:href="#LiberationSans-30"/>
       <use x="225.244140625" xlink:href="#LiberationSans-30"/>
      </g>
     </g>
    </g>
    <g id="ytick_5">
     <g id="line2d_25">
      <path clip-path="url(#pb874c7837a)" d="M 72 215.6 
L 518.4 215.6 
" style="fill:none;stroke:#ffffff;stroke-linecap:round;"/>
     </g>
     <g id="line2d_26"/>
     <g id="line2d_27"/>
     <g id="text_10">
      <!-- −3050 -->
      <g style="fill:#262626;" transform="translate(36.915625 218.1859375)scale(0.1 -0.1)">
       <use xlink:href="#LiberationSans-2212"/>
       <use x="58.3984375" xlink:href="#LiberationSans-33"/>
       <use x="114.013671875" xlink:href="#LiberationSans-30"/>
       <use x="169.62890625" xlink:href="#LiberationSans-35"/>
       <use x="225.244140625" xlink:href="#LiberationSans-30"/>
      </g>
     </g>
    </g>
    <g id="ytick_6">
     <g id="line2d_28">
      <path clip-path="url(#pb874c7837a)" d="M 72 180.4 
L 518.4 180.4 
" style="fill:none;stroke:#ffffff;stroke-linecap:round;"/>
     </g>
     <g id="line2d_29"/>
     <g id="line2d_30"/>
     <g id="text_11">
      <!-- −3000 -->
      <g style="fill:#262626;" transform="translate(36.915625 182.9859375)scale(0.1 -0.1)">
       <use xlink:href="#LiberationSans-2212"/>
       <use x="58.3984375" xlink:href="#LiberationSans-33"/>
       <use x="114.013671875" xlink:href="#LiberationSans-30"/>
       <use x="169.62890625" xlink:href="#LiberationSans-30"/>
       <use x="225.244140625" xlink:href="#LiberationSans-30"/>
      </g>
     </g>
    </g>
    <g id="ytick_7">
     <g id="line2d_31">
      <path clip-path="url(#pb874c7837a)" d="M 72 145.2 
L 518.4 145.2 
" style="fill:none;stroke:#ffffff;stroke-linecap:round;"/>
     </g>
     <g id="line2d_32"/>
     <g id="line2d_33"/>
     <g id="text_12">
      <!-- −2950 -->
      <g style="fill:#262626;" transform="translate(36.915625 147.7859375)scale(0.1 -0.1)">
       <use xlink:href="#LiberationSans-2212"/>
       <use x="58.3984375" xlink:href="#LiberationSans-32"/>
       <use x="114.013671875" xlink:href="#LiberationSans-39"/>
       <use x="169.62890625" xlink:href="#LiberationSans-35"/>
       <use x="225.244140625" xlink:href="#LiberationSans-30"/>
      </g>
     </g>
    </g>
    <g id="ytick_8">
     <g id="line2d_34">
      <path clip-path="url(#pb874c7837a)" d="M 72 110 
L 518.4 110 
" style="fill:none;stroke:#ffffff;stroke-linecap:round;"/>
     </g>
     <g id="line2d_35"/>
     <g id="line2d_36"/>
     <g id="text_13">
      <!-- −2900 -->
      <g style="fill:#262626;" transform="translate(36.915625 112.5859375)scale(0.1 -0.1)">
       <use xlink:href="#LiberationSans-2212"/>
       <use x="58.3984375" xlink:href="#LiberationSans-32"/>
       <use x="114.013671875" xlink:href="#LiberationSans-39"/>
       <use x="169.62890625" xlink:href="#LiberationSans-30"/>
       <use x="225.244140625" xlink:href="#LiberationSans-30"/>
      </g>
     </g>
    </g>
    <g id="ytick_9">
     <g id="line2d_37">
      <path clip-path="url(#pb874c7837a)" d="M 72 74.8 
L 518.4 74.8 
" style="fill:none;stroke:#ffffff;stroke-linecap:round;"/>
     </g>
     <g id="line2d_38"/>
     <g id="line2d_39"/>
     <g id="text_14">
      <!-- −2850 -->
      <defs>
       <path d="M 51.265625 19.1875 
Q 51.265625 14.796875 49.875 11.109375 
Q 48.484375 7.421875 45.625 4.734375 
Q 42.78125 2.046875 38.328125 0.53125 
Q 33.890625 -0.984375 27.828125 -0.984375 
Q 21.78125 -0.984375 17.359375 0.53125 
Q 12.9375 2.046875 10.03125 4.703125 
Q 7.125 7.375 5.734375 11.0625 
Q 4.34375 14.75 4.34375 19.09375 
Q 4.34375 22.859375 5.484375 25.78125 
Q 6.640625 28.71875 8.5625 30.828125 
Q 10.5 32.953125 12.96875 34.25 
Q 15.4375 35.546875 18.0625 35.984375 
L 18.0625 36.1875 
Q 15.1875 36.859375 12.90625 38.375 
Q 10.640625 39.890625 9.09375 42.015625 
Q 7.5625 44.140625 6.75 46.71875 
Q 5.953125 49.3125 5.953125 52.203125 
Q 5.953125 55.8125 7.34375 59 
Q 8.734375 62.203125 11.46875 64.625 
Q 14.203125 67.046875 18.25 68.4375 
Q 22.3125 69.828125 27.640625 69.828125 
Q 33.25 69.828125 37.375 68.40625 
Q 41.5 67 44.203125 64.578125 
Q 46.921875 62.15625 48.234375 58.9375 
Q 49.5625 55.71875 49.5625 52.09375 
Q 49.5625 49.265625 48.75 46.671875 
Q 47.953125 44.09375 46.40625 41.96875 
Q 44.875 39.84375 42.59375 38.34375 
Q 40.328125 36.859375 37.359375 36.28125 
L 37.359375 36.078125 
Q 40.328125 35.59375 42.859375 34.296875 
Q 45.40625 33.015625 47.265625 30.890625 
Q 49.125 28.765625 50.1875 25.828125 
Q 51.265625 22.90625 51.265625 19.1875 
M 40.4375 51.609375 
Q 40.4375 54.203125 39.765625 56.34375 
Q 39.109375 58.5 37.59375 60.03125 
Q 36.078125 61.578125 33.640625 62.421875 
Q 31.203125 63.28125 27.640625 63.28125 
Q 24.171875 63.28125 21.78125 62.421875 
Q 19.390625 61.578125 17.84375 60.03125 
Q 16.3125 58.5 15.625 56.34375 
Q 14.9375 54.203125 14.9375 51.609375 
Q 14.9375 49.5625 15.46875 47.40625 
Q 16.015625 45.265625 17.421875 43.5 
Q 18.84375 41.75 21.328125 40.625 
Q 23.828125 39.5 27.734375 39.5 
Q 31.890625 39.5 34.40625 40.625 
Q 36.921875 41.75 38.25 43.5 
Q 39.59375 45.265625 40.015625 47.40625 
Q 40.4375 49.5625 40.4375 51.609375 
M 42.140625 20.015625 
Q 42.140625 22.515625 41.453125 24.828125 
Q 40.765625 27.15625 39.109375 28.9375 
Q 37.453125 30.71875 34.640625 31.8125 
Q 31.84375 32.90625 27.640625 32.90625 
Q 23.78125 32.90625 21.0625 31.8125 
Q 18.359375 30.71875 16.671875 28.90625 
Q 14.984375 27.09375 14.203125 24.71875 
Q 13.421875 22.359375 13.421875 19.828125 
Q 13.421875 16.65625 14.203125 14.03125 
Q 14.984375 11.421875 16.6875 9.546875 
Q 18.40625 7.671875 21.1875 6.640625 
Q 23.96875 5.609375 27.9375 5.609375 
Q 31.9375 5.609375 34.671875 6.640625 
Q 37.40625 7.671875 39.0625 9.546875 
Q 40.71875 11.421875 41.421875 14.078125 
Q 42.140625 16.75 42.140625 20.015625 
" id="LiberationSans-38"/>
      </defs>
      <g style="fill:#262626;" transform="translate(36.915625 77.3859375)scale(0.1 -0.1)">
       <use xlink:href="#LiberationSans-2212"/>
       <use x="58.3984375" xlink:href="#LiberationSans-32"/>
       <use x="114.013671875" xlink:href="#LiberationSans-38"/>
       <use x="169.62890625" xlink:href="#LiberationSans-35"/>
       <use x="225.244140625" xlink:href="#LiberationSans-30"/>
      </g>
     </g>
    </g>
    <g id="ytick_10">
     <g id="line2d_40">
      <path clip-path="url(#pb874c7837a)" d="M 72 39.6 
L 518.4 39.6 
" style="fill:none;stroke:#ffffff;stroke-linecap:round;"/>
     </g>
     <g id="line2d_41"/>
     <g id="line2d_42"/>
     <g id="text_15">
      <!-- −2800 -->
      <g style="fill:#262626;" transform="translate(36.915625 42.1859375)scale(0.1 -0.1)">
       <use xlink:href="#LiberationSans-2212"/>
       <use x="58.3984375" xlink:href="#LiberationSans-32"/>
       <use x="114.013671875" xlink:href="#LiberationSans-38"/>
       <use x="169.62890625" xlink:href="#LiberationSans-30"/>
       <use x="225.244140625" xlink:href="#LiberationSans-30"/>
      </g>
     </g>
    </g>
   </g>
   <g id="line2d_43">
    <path clip-path="url(#pb874c7837a)" d="M 72 292.067017 
L 72.223312 292.067017 
L 72.446623 300.539321 
L 72.893247 292.067017 
L 73.116558 293.411657 
L 73.33987 302.552761 
L 73.563182 297.964425 
L 73.786493 302.552761 
L 74.009805 296.619785 
L 74.456428 296.619785 
L 74.67974 305.760889 
L 74.903052 300.539321 
L 75.126363 301.208121 
L 75.349675 297.850041 
L 75.796298 306.955577 
L 76.01961 306.955577 
L 76.242921 299.863481 
L 76.466233 300.539321 
L 76.689545 302.552761 
L 76.912856 303.228601 
L 77.35948 291.548169 
L 77.582791 296.100937 
L 77.806103 303.342985 
L 78.252726 292.224009 
L 78.476038 286.995402 
L 78.69935 285.650762 
L 78.922661 286.326602 
L 79.145973 279.753354 
L 79.592596 289.534729 
L 79.815908 274.496217 
L 80.03922 269.943449 
L 80.262531 273.820377 
L 80.485843 269.943449 
L 80.709155 275.165017 
L 80.932466 270.612249 
L 81.155778 273.820377 
L 81.602401 270.462297 
L 81.825713 254.114714 
L 82.049025 246.168297 
L 82.272336 255.978202 
L 82.495648 247.512937 
L 82.718959 248.857577 
L 82.942271 257.322842 
L 83.388894 246.837097 
L 83.612206 255.309402 
L 84.058829 246.168297 
L 84.282141 231.834154 
L 84.505453 233.178794 
L 84.728764 244.30481 
L 84.952076 240.420842 
L 85.175388 228.74041 
L 85.622011 235.868074 
L 85.845323 235.868074 
L 86.068634 237.212714 
L 86.291946 222.850042 
L 86.738569 232.659946 
L 86.961881 243.778922 
L 87.185193 234.673386 
L 87.408504 239.226154 
L 87.631816 239.226154 
L 87.855128 246.98705 
L 88.078439 246.31825 
L 88.301751 237.212714 
L 88.525063 234.004586 
L 88.748374 234.004586 
L 88.971686 234.673386 
L 89.194997 229.41625 
L 89.418309 239.226154 
L 89.641621 233.328746 
L 90.311556 245.64945 
L 90.534867 242.434282 
L 90.758179 242.434282 
L 90.981491 247.66289 
L 91.428114 236.543914 
L 91.651426 237.212714 
L 91.874737 241.096682 
L 92.098049 241.096682 
L 92.321361 235.199274 
L 92.544672 236.543914 
L 92.767984 240.420842 
L 92.991296 240.420842 
L 93.437919 224.71353 
L 93.661231 228.626026 
L 93.884542 229.301866 
L 94.107854 205.826618 
L 94.331166 205.826618 
L 94.554477 192.808586 
L 94.777789 197.361354 
L 95.001101 179.783514 
L 95.224412 188.255818 
L 95.447724 164.11177 
L 95.671036 177.094234 
L 95.894347 173.217306 
L 96.117659 187.579978 
L 96.34097 186.911178 
L 96.564282 188.924618 
L 96.787594 193.477386 
L 97.010905 193.477386 
L 97.234217 188.255818 
L 97.457529 188.255818 
L 97.68084 192.808586 
L 97.904152 188.255818 
L 98.127464 173.886106 
L 98.350775 179.114714 
L 98.574087 179.783514 
L 98.797399 171.353818 
L 99.02071 177.920026 
L 99.244022 172.698458 
L 99.467334 181.128154 
L 99.690645 181.803994 
L 100.137269 173.367258 
L 100.36058 177.251226 
L 100.583892 177.251226 
L 100.807204 181.803994 
L 101.030515 181.803994 
L 101.253827 185.680922 
L 101.477139 176.575386 
L 101.923762 186.356762 
L 102.147074 181.128154 
L 102.370385 180.459354 
L 102.593697 188.924618 
L 102.817009 189.600458 
L 103.04032 185.012122 
L 103.263632 184.336282 
L 103.486943 178.438874 
L 103.710255 180.459354 
L 103.933567 181.128154 
L 104.156878 185.680922 
L 104.38019 180.459354 
L 104.603502 180.459354 
L 104.826813 185.680922 
L 105.496748 172.022618 
L 105.72006 162.212714 
L 105.943372 176.575386 
L 106.166683 178.588826 
L 106.389995 185.162074 
L 106.836618 176.056538 
L 107.05993 179.933466 
L 107.283242 179.264666 
L 107.729865 186.356762 
L 108.176488 169.48329 
L 108.3998 164.894954 
L 108.623112 165.570794 
L 108.846423 143.440186 
L 109.069735 146.683883 
L 109.293047 151.912491 
L 109.516358 142.095546 
L 109.73967 155.120618 
L 109.962981 146.015083 
L 110.186293 151.912491 
L 110.409605 147.359723 
L 110.632916 147.359723 
L 110.856228 151.912491 
L 111.07954 137.542778 
L 111.302851 142.771386 
L 111.526163 129.781883 
L 111.749475 142.771386 
L 111.972786 142.771386 
L 112.196098 140.082106 
L 112.41941 140.082106 
L 112.642721 149.899051 
L 112.866033 149.899051 
L 113.089345 144.670443 
L 113.312656 144.001643 
L 113.75928 136.205178 
L 113.982591 137.542778 
L 114.205903 128.437243 
L 114.875838 142.095546 
L 115.09915 120.640779 
L 115.322461 116.088011 
L 115.545773 103.069979 
L 115.769085 106.982475 
L 115.992396 102.394139 
L 116.215708 112.879883 
L 116.662331 104.414619 
L 117.555578 127.882826 
L 117.778889 124.005899 
L 118.002201 109.671755 
L 118.225513 118.777291 
L 118.448824 122.661259 
L 118.895448 114.224523 
L 119.118759 118.777291 
L 119.342071 113.555723 
L 119.565383 112.879883 
L 119.788694 121.985419 
L 120.012006 126.538186 
L 120.235318 112.879883 
L 120.458629 112.879883 
L 120.681941 113.555723 
L 120.905253 112.879883 
L 121.575188 112.879883 
L 121.798499 99.186011 
L 122.021811 99.861851 
L 122.245123 91.425115 
L 122.468434 104.414619 
L 122.691746 99.861851 
L 123.138369 104.969035 
L 123.361681 101.049499 
L 123.584992 101.049499 
L 123.808304 101.725339 
L 124.031616 95.827931 
L 124.254927 115.419211 
L 124.478239 108.853003 
L 124.701551 113.405771 
L 124.924862 104.969035 
L 125.148174 104.969035 
L 125.371486 105.637835 
L 125.594797 96.496731 
L 125.818109 96.496731 
L 126.041421 87.391195 
L 126.264732 63.922987 
L 126.488044 63.922987 
L 126.711356 64.591787 
L 127.157979 46.345147 
L 127.381291 69.820395 
L 127.604602 60.003451 
L 127.827914 60.003451 
L 128.051226 69.144555 
L 128.274537 65.267627 
L 128.497849 56.126523 
L 128.721161 65.936427 
L 128.944472 64.591787 
L 129.167784 64.591787 
L 129.391096 69.820395 
L 129.837719 83.478699 
L 130.061031 82.802859 
L 130.284342 77.581291 
L 130.507654 97.841371 
L 130.730965 93.288603 
L 130.954277 106.982475 
L 131.177589 110.866443 
L 131.4009 106.982475 
L 132.070835 71.165035 
L 132.294147 246.378635 
L 132.517459 279.611355 
L 132.74077 295.440091 
L 132.964082 280.806043 
L 133.187394 298.902731 
L 133.634017 285.877659 
L 134.08064 260.538923 
L 134.303952 262.409451 
L 134.750575 211.06318 
L 134.973887 233.186747 
L 135.197199 231.842107 
L 135.42051 233.186747 
L 135.643822 220.837515 
L 136.090445 235.207227 
L 136.537069 226.734923 
L 136.76038 224.202635 
L 136.983692 230.768843 
L 137.207004 232.667899 
L 137.430315 237.896507 
L 137.653627 235.357179 
L 137.876938 245.138555 
L 138.10025 213.866843 
L 138.546873 226.891915 
L 138.770185 227.560715 
L 138.993497 233.458123 
L 139.216808 230.918795 
L 139.44012 230.249995 
L 139.886743 227.710667 
L 140.556678 244.093819 
L 140.77999 238.836683 
L 141.003302 238.836683 
L 141.449925 236.816203 
L 141.673237 231.594635 
L 141.896548 232.263435 
L 142.11986 233.608075 
L 142.566483 241.675915 
L 142.789795 241.675915 
L 143.013107 246.897483 
L 143.236418 239.136587 
L 143.45973 239.136587 
L 143.683042 243.020555 
L 143.906353 242.344715 
L 144.129665 250.141179 
L 144.352976 251.485819 
L 144.576288 258.577915 
L 144.7996 254.025147 
L 145.022911 254.693947 
L 145.246223 250.141179 
L 145.469535 250.817019 
L 145.692846 257.233275 
L 145.916158 254.693947 
L 146.362781 254.693947 
L 146.586093 250.141179 
L 146.809405 254.693947 
L 147.032716 246.228683 
L 147.256028 244.884043 
L 147.47934 228.53646 
L 147.925963 238.310795 
L 148.149275 233.089227 
L 148.372586 233.089227 
L 148.81921 243.539403 
L 149.042521 241.525963 
L 149.265833 243.425019 
L 149.712456 260.441403 
L 149.935768 259.772603 
L 150.15908 255.219835 
L 150.382391 255.888635 
L 150.829015 246.114299 
L 151.052326 254.543995 
L 151.275638 250.667067 
L 151.498949 250.667067 
L 151.722261 246.114299 
L 151.945573 250.667067 
L 152.168884 247.451899 
L 152.392196 242.194763 
L 152.615508 246.114299 
L 152.838819 256.557435 
L 153.062131 250.667067 
L 153.285443 251.335867 
L 153.508754 253.875195 
L 153.732066 248.646587 
L 153.955378 248.646587 
L 154.178689 253.875195 
L 154.402001 262.980731 
L 154.625313 262.980731 
L 154.848624 253.875195 
L 155.071936 252.530555 
L 155.295248 247.977787 
L 155.518559 238.836683 
L 155.741871 240.181323 
L 155.965183 231.744587 
L 156.188494 240.850123 
L 156.411806 244.769659 
L 156.635118 244.769659 
L 156.858429 244.093819 
L 157.081741 249.322427 
L 157.305053 248.646587 
L 157.751676 262.304891 
L 157.974987 258.427963 
L 158.198299 259.096763 
L 158.421611 258.427963 
L 158.644922 262.304891 
L 158.868234 271.445995 
L 159.091546 267.569067 
L 159.314857 272.121835 
L 159.538169 262.980731 
L 159.761481 272.790635 
L 159.984792 272.790635 
L 160.208104 268.237867 
L 160.431416 276.674603 
L 160.654727 275.998763 
L 160.878039 276.674603 
L 161.101351 270.777195 
L 161.324662 268.756715 
L 161.547974 271.296043 
L 161.771286 271.964843 
L 161.994597 279.056939 
L 162.217909 282.300635 
L 162.441221 266.593323 
L 162.664532 266.743275 
L 162.887844 265.398635 
L 163.111156 266.067435 
L 163.557779 260.845867 
L 164.004402 269.951403 
L 164.451026 258.946811 
L 164.674337 263.535147 
L 164.897649 262.190507 
L 165.12096 257.602171 
L 165.344272 256.926331 
L 165.567584 269.275563 
L 165.790895 265.398635 
L 166.014207 268.606763 
L 166.237519 268.606763 
L 166.46083 264.722795 
L 166.684142 267.937963 
L 167.130765 267.937963 
L 167.354077 269.275563 
L 167.8007 269.275563 
L 168.024012 266.067435 
L 168.247324 266.067435 
L 168.470635 255.581691 
L 168.693947 258.832427 
L 168.917259 258.832427 
L 169.14057 261.364715 
L 169.363882 256.811947 
L 169.587194 258.832427 
L 170.257129 258.832427 
L 170.48044 262.709355 
L 170.703752 258.156587 
L 170.927064 258.832427 
L 171.150375 253.568251 
L 171.373687 258.832427 
L 171.596998 256.926331 
L 171.82031 261.514667 
L 172.043622 260.845867 
L 172.266933 258.832427 
L 172.490245 260.170027 
L 172.713557 263.385195 
L 172.936868 264.053995 
L 173.16018 260.170027 
L 173.383492 264.053995 
L 173.606803 260.170027 
L 173.830115 264.053995 
L 174.053427 264.053995 
L 174.276738 264.722795 
L 174.50005 256.811947 
L 174.723362 261.364715 
L 174.946673 256.811947 
L 175.169985 256.811947 
L 175.393297 260.695915 
L 175.616608 256.811947 
L 176.063232 256.811947 
L 176.509855 258.156587 
L 176.733167 256.811947 
L 177.17979 258.156587 
L 177.626413 250.360123 
L 177.849725 250.360123 
L 178.073037 241.923387 
L 178.51966 259.501227 
L 178.742971 259.501227 
L 178.966283 267.937963 
L 179.189595 258.832427 
L 179.412906 267.937963 
L 179.636218 263.385195 
L 179.85953 268.606763 
L 180.082841 267.937963 
L 180.306153 267.937963 
L 180.529465 263.385195 
L 180.752776 267.262123 
L 180.976088 263.385195 
L 181.1994 264.053995 
L 181.422711 264.053995 
L 182.092646 278.381099 
L 182.315958 273.159531 
L 182.53927 273.159531 
L 182.762581 281.746219 
L 182.985893 283.759659 
L 183.209205 277.862251 
L 183.432516 288.198043 
L 183.655828 281.631835 
L 183.87914 281.631835 
L 184.102451 265.917483 
L 184.325763 272.490731 
L 184.995698 259.501227 
L 185.21901 258.156587 
L 185.442321 251.704763 
L 185.665633 264.053995 
L 185.888944 264.053995 
L 186.112256 267.937963 
L 186.335568 268.606763 
L 186.558879 269.801451 
L 186.782191 264.572843 
L 187.228814 267.262123 
L 187.452126 273.159531 
L 187.675438 273.159531 
L 188.122061 264.053995 
L 188.345373 269.275563 
L 188.791996 267.937963 
L 189.238619 269.275563 
L 189.461931 266.067435 
L 189.685243 269.275563 
L 189.908554 278.381099 
L 190.131866 278.381099 
L 190.355178 268.606763 
L 190.578489 272.490731 
L 190.801801 278.942555 
L 191.025113 270.320299 
L 191.248424 271.664939 
L 191.471736 268.456811 
L 191.695048 270.470251 
L 191.918359 265.248683 
L 192.141671 265.248683 
L 192.811606 280.287195 
L 193.034917 274.354219 
L 193.258229 275.698859 
L 193.481541 274.354219 
L 193.704852 282.819483 
L 193.928164 280.806043 
L 194.374787 295.168715 
L 194.821411 288.566939 
L 195.044722 286.027611 
L 195.268034 286.703451 
L 195.491346 282.819483 
L 195.937969 284.164123 
L 196.161281 284.164123 
L 196.384592 292.600859 
L 196.607904 292.600859 
L 197.054527 282.819483 
L 197.501151 284.164123 
L 197.724462 292.600859 
L 197.947774 288.048091 
L 198.171086 288.716891 
L 198.394397 286.027611 
L 198.841021 296.513355 
L 199.287644 299.878475 
L 199.510955 293.945499 
L 199.734267 299.202635 
L 200.18089 290.061531 
L 200.404202 290.061531 
L 200.627514 289.392731 
L 200.850825 289.392731 
L 201.074137 293.269659 
L 201.297449 293.945499 
L 201.52076 289.392731 
L 201.744072 294.614299 
L 201.967384 295.290139 
L 202.190695 301.891915 
L 202.414007 303.755403 
L 202.86063 298.533835 
L 203.083942 303.086603 
L 203.307254 303.755403 
L 203.530565 293.945499 
L 203.753877 299.202635 
L 203.977189 290.061531 
L 204.423812 279.611355 
L 204.647124 282.150683 
L 204.870435 282.150683 
L 205.093747 273.678379 
L 205.317059 279.611355 
L 205.54037 279.611355 
L 205.763682 284.839963 
L 205.986993 278.942555 
L 206.210305 279.611355 
L 206.433617 279.611355 
L 206.88024 271.146091 
L 207.103552 275.698859 
L 207.326863 277.043499 
L 207.550175 271.814891 
L 207.773487 275.023019 
L 207.996798 275.023019 
L 208.22011 279.611355 
L 208.443422 275.023019 
L 208.666733 285.508763 
L 208.890045 284.839963 
L 209.113357 285.508763 
L 209.336668 284.839963 
L 209.783292 284.839963 
L 210.006603 280.287195 
L 210.229915 286.853403 
L 210.453227 279.611355 
L 210.89985 280.955995 
L 211.123162 275.698859 
L 211.346473 280.955995 
L 211.569785 280.955995 
L 211.793097 279.611355 
L 212.016408 284.839963 
L 212.23972 280.955995 
L 212.463032 280.287195 
L 212.686343 280.287195 
L 212.909655 284.839963 
L 213.356278 284.839963 
L 213.802901 286.184603 
L 214.026213 286.184603 
L 214.472836 287.522203 
L 214.696148 286.853403 
L 214.91946 281.631835 
L 215.142771 281.631835 
L 215.366083 282.969435 
L 215.589395 286.853403 
L 215.812706 279.056939 
L 216.036018 279.056939 
L 216.25933 277.193451 
L 216.482641 264.722795 
L 216.705953 269.275563 
L 216.929265 268.606763 
L 217.152576 271.964843 
L 217.375888 260.845867 
L 217.5992 266.067435 
L 217.822511 268.606763 
L 218.045823 262.040555 
L 218.269135 272.490731 
L 218.492446 269.275563 
L 218.715758 278.381099 
L 219.162381 278.381099 
L 219.385693 277.712299 
L 219.609005 280.401579 
L 219.832316 279.056939 
L 220.055628 270.620203 
L 220.278939 274.504171 
L 220.725563 264.722795 
L 220.948874 266.067435 
L 221.172186 262.190507 
L 221.618809 262.190507 
L 221.842121 270.620203 
L 222.065433 262.190507 
L 222.288744 266.743275 
L 222.512056 260.845867 
L 222.735368 266.067435 
L 222.958679 259.501227 
L 223.181991 260.170027 
L 223.851926 273.828331 
L 224.075238 269.275563 
L 224.298549 267.262123 
L 224.521861 273.159531 
L 224.745173 268.606763 
L 224.968484 268.606763 
L 225.191796 273.828331 
L 225.415108 283.645275 
L 225.638419 281.631835 
L 225.861731 286.184603 
L 226.085043 286.184603 
L 226.531666 287.522203 
L 226.754977 282.969435 
L 226.978289 282.300635 
L 227.201601 282.300635 
L 227.424912 282.969435 
L 227.648224 284.839963 
L 227.871536 285.508763 
L 228.094847 284.839963 
L 228.318159 278.942555 
L 228.541471 280.287195 
L 228.764782 275.698859 
L 228.988094 279.611355 
L 229.211406 275.023019 
L 229.658029 282.819483 
L 229.881341 286.027611 
L 230.104652 287.222299 
L 230.551276 280.130203 
L 230.774587 284.682971 
L 230.997899 280.806043 
L 231.444522 280.806043 
L 231.667834 279.461403 
L 231.891146 274.908635 
L 232.114457 276.253275 
L 232.337769 280.806043 
L 232.561081 276.922075 
L 232.784392 281.474843 
L 233.231016 282.819483 
L 233.454327 282.819483 
L 233.677639 279.611355 
L 233.90095 278.942555 
L 234.124262 282.819483 
L 234.347574 277.597915 
L 234.570885 282.819483 
L 234.794197 282.150683 
L 235.017509 288.048091 
L 235.24082 288.048091 
L 235.464132 283.495323 
L 235.687444 270.470251 
L 235.910755 269.125611 
L 236.134067 269.801451 
L 236.357379 269.801451 
L 236.58069 260.020075 
L 236.804002 265.917483 
L 237.027314 266.593323 
L 237.473937 265.248683 
L 237.697249 261.364715 
L 238.143872 275.023019 
L 238.367184 272.490731 
L 238.590495 272.490731 
L 238.813807 275.698859 
L 239.037119 271.146091 
L 239.26043 277.043499 
L 239.483742 277.043499 
L 239.707054 272.490731 
L 240.153677 280.287195 
L 240.376988 277.043499 
L 240.6003 285.508763 
L 240.823612 286.184603 
L 241.270235 277.712299 
L 241.493547 280.955995 
L 241.716858 276.367659 
L 241.94017 275.698859 
L 242.163482 280.287195 
L 242.386793 270.470251 
L 242.610105 271.146091 
L 242.833417 275.698859 
L 243.056728 275.023019 
L 243.28004 280.955995 
L 243.949975 280.955995 
L 244.173287 277.712299 
L 244.61991 267.937963 
L 244.843222 271.814891 
L 245.066533 271.146091 
L 245.289845 271.814891 
L 245.513157 271.814891 
L 245.736468 275.698859 
L 245.95978 275.698859 
L 246.183092 271.146091 
L 246.406403 280.955995 
L 246.629715 279.611355 
L 246.853027 285.508763 
L 247.076338 284.164123 
L 247.29965 279.611355 
L 247.522961 280.287195 
L 247.746273 280.287195 
L 247.969585 284.839963 
L 248.192896 279.611355 
L 248.63952 288.716891 
L 248.862831 283.495323 
L 249.086143 282.819483 
L 249.309455 278.266715 
L 249.97939 292.600859 
L 250.202701 292.600859 
L 250.426013 288.048091 
L 250.649325 291.256219 
L 250.872636 281.474843 
L 251.095948 281.474843 
L 251.31926 289.911579 
L 251.765883 280.806043 
L 251.989195 276.922075 
L 252.212506 275.577435 
L 252.435818 276.922075 
L 252.882441 276.922075 
L 253.105753 277.597915 
L 253.329065 282.819483 
L 253.552376 282.819483 
L 253.998999 273.678379 
L 254.222311 278.266715 
L 254.445623 278.266715 
L 254.668934 282.150683 
L 254.892246 277.597915 
L 255.115558 276.922075 
L 255.338869 276.922075 
L 255.562181 275.577435 
L 255.785493 276.253275 
L 256.008804 270.989099 
L 256.232116 276.253275 
L 256.678739 268.456811 
L 257.125363 277.597915 
L 257.348674 270.320299 
L 257.571986 270.320299 
L 257.795298 268.975659 
L 258.018609 274.758683 
L 258.241921 267.359643 
L 258.465233 266.171995 
L 258.911856 262.928299 
L 259.135168 266.171995 
L 259.358479 264.827355 
L 259.581791 266.171995 
L 259.805103 266.171995 
L 260.028414 262.138075 
L 260.475038 269.898971 
L 260.698349 266.690843 
L 260.921661 273.782939 
L 261.144972 290.684939 
L 261.368284 288.145611 
L 261.591596 284.268683 
L 261.814907 294.043019 
L 262.484842 270.417819 
L 262.708154 276.200843 
L 262.931466 273.661515 
L 263.154777 272.992715 
L 263.378089 269.749019 
L 263.601401 268.404379 
L 263.824712 263.851611 
L 264.048024 275.006155 
L 264.271336 272.438299 
L 264.494647 275.681995 
L 264.717959 271.762459 
L 264.941271 276.350795 
L 265.387894 276.350795 
L 265.611206 273.782939 
L 266.281141 286.132171 
L 266.504452 286.132171 
L 266.727764 301.216075 
L 266.951076 301.891915 
L 267.174387 295.290139 
L 267.397699 295.958939 
L 267.621011 303.086603 
L 267.844322 303.755403 
L 268.067634 317.413706 
L 268.290945 302.410763 
L 268.514257 310.847499 
L 268.737569 303.755403 
L 268.96088 308.308171 
L 269.184192 305.100043 
L 269.407504 293.945499 
L 269.630815 302.410763 
L 269.854127 303.755403 
L 270.077439 292.600859 
L 270.30075 292.600859 
L 270.524062 301.066123 
L 270.970685 290.580379 
L 271.193997 271.664939 
L 271.417309 267.780971 
L 271.64062 273.009579 
L 271.863932 263.904043 
L 272.087244 273.678379 
L 272.310555 272.333739 
L 272.533867 267.112171 
L 272.757179 273.009579 
L 272.98049 273.009579 
L 273.203802 278.266715 
L 273.427114 273.009579 
L 273.650425 285.508763 
L 273.873737 279.611355 
L 274.097049 280.955995 
L 274.32036 271.814891 
L 274.766983 262.709355 
L 274.990295 266.593323 
L 275.213607 272.490731 
L 275.436918 268.606763 
L 275.66023 273.159531 
L 275.883542 272.490731 
L 276.106853 275.698859 
L 276.330165 271.814891 
L 276.553477 271.814891 
L 277.0001 273.159531 
L 277.223412 269.951403 
L 277.670035 274.504171 
L 278.116658 274.504171 
L 278.33997 278.381099 
L 278.563282 278.381099 
L 278.786593 279.056939 
L 279.009905 279.056939 
L 279.233217 274.504171 
L 279.456528 275.172971 
L 279.67984 279.725739 
L 279.903152 279.056939 
L 280.126463 285.658715 
L 280.349775 287.003355 
L 280.573087 286.334555 
L 280.796398 279.725739 
L 281.01971 279.056939 
L 281.243022 279.056939 
L 281.466333 271.814891 
L 281.689645 271.814891 
L 281.912956 277.712299 
L 282.136268 277.712299 
L 282.35958 273.828331 
L 282.582891 273.159531 
L 282.806203 269.275563 
L 283.476138 279.056939 
L 283.69945 278.381099 
L 283.922761 278.381099 
L 284.146073 279.611355 
L 284.369385 275.023019 
L 284.592696 278.942555 
L 284.816008 280.287195 
L 285.03932 275.023019 
L 285.262631 275.023019 
L 285.485943 273.009579 
L 285.932566 275.023019 
L 286.155878 273.678379 
L 286.37919 274.354219 
L 286.602501 270.470251 
L 287.049125 279.611355 
L 287.272436 278.942555 
L 287.495748 279.611355 
L 287.71906 276.367659 
L 288.165683 285.508763 
L 288.388994 280.955995 
L 288.612306 280.287195 
L 288.835618 275.698859 
L 289.058929 276.367659 
L 289.282241 280.287195 
L 289.505553 279.611355 
L 289.728864 276.367659 
L 289.952176 271.146091 
L 290.175488 271.146091 
L 290.398799 266.593323 
L 290.622111 270.470251 
L 291.068734 262.040555 
L 291.292046 271.814891 
L 291.515358 271.146091 
L 291.738669 271.146091 
L 292.185293 272.490731 
L 292.408604 272.490731 
L 292.631916 273.159531 
L 292.855228 272.490731 
L 293.301851 272.490731 
L 293.525163 268.606763 
L 293.748474 268.606763 
L 293.971786 267.937963 
L 294.195098 264.053995 
L 294.418409 267.262123 
L 294.641721 267.937963 
L 295.088344 266.593323 
L 295.311656 271.146091 
L 295.534967 265.917483 
L 295.758279 265.917483 
L 295.981591 267.112171 
L 296.204902 264.572843 
L 296.428214 263.904043 
L 296.651526 269.125611 
L 296.874837 269.125611 
L 297.098149 267.112171 
L 297.321461 267.780971 
L 297.544772 272.333739 
L 297.768084 268.456811 
L 297.991396 269.125611 
L 298.214707 268.456811 
L 298.438019 265.091691 
L 298.661331 263.747051 
L 298.884642 264.422891 
L 299.107954 259.194283 
L 299.331266 263.078251 
L 299.554577 261.733611 
L 300.001201 254.641515 
L 300.224512 259.194283 
L 300.447824 266.593323 
L 300.671136 259.501227 
L 300.894447 258.156587 
L 301.341071 250.360123 
L 301.564382 245.807355 
L 301.787694 245.807355 
L 302.011006 246.476155 
L 302.457629 237.370619 
L 302.68094 245.807355 
L 302.904252 245.138555 
L 303.127564 239.909947 
L 303.350875 245.138555 
L 303.574187 253.568251 
L 303.797499 249.015483 
L 304.02081 241.773435 
L 304.244122 245.657403 
L 304.467434 241.773435 
L 304.690745 247.002043 
L 304.914057 246.326203 
L 305.137369 246.326203 
L 305.36068 237.896507 
L 305.583992 242.449275 
L 305.807304 239.241147 
L 306.030615 242.449275 
L 306.253927 223.526795 
L 306.70055 213.75246 
L 306.923862 218.305227 
L 307.370485 195.50582 
L 307.593797 203.935515 
L 307.817109 207.143643 
L 308.04042 199.382747 
L 308.263732 203.935515 
L 308.487044 198.713947 
L 308.933667 209.832923 
L 309.38029 209.832923 
L 309.826913 200.727387 
L 310.050225 205.955995 
L 310.273537 200.727387 
L 310.496848 200.727387 
L 310.72016 204.611355 
L 310.943472 204.611355 
L 311.166783 203.935515 
L 311.390095 210.508763 
L 311.613407 205.280155 
L 311.836718 213.75246 
L 312.06003 213.75246 
L 312.283342 236.551867 
L 312.506653 228.079563 
L 312.729965 228.079563 
L 312.953277 223.526795 
L 313.176588 228.079563 
L 313.3999 223.526795 
L 313.623212 228.079563 
L 313.846523 240.428795 
L 314.069835 235.207227 
L 314.293147 234.531387 
L 314.516458 239.759995 
L 315.186393 221.513355 
L 315.409705 230.654459 
L 315.633017 229.978619 
L 315.856328 221.513355 
L 316.302951 231.999099 
L 316.526263 227.410763 
L 316.972886 228.755403 
L 317.196198 228.079563 
L 317.41951 228.079563 
L 317.642821 233.343739 
L 317.866133 233.343739 
L 318.089445 236.551867 
L 318.312756 236.551867 
L 318.536068 237.220667 
L 318.75938 231.323259 
L 318.982691 236.551867 
L 319.206003 259.351275 
L 319.429315 259.351275 
L 319.652626 260.020075 
L 319.875938 263.904043 
L 320.09925 263.904043 
L 320.322561 269.125611 
L 320.545873 283.495323 
L 320.769185 278.942555 
L 320.992496 283.495323 
L 321.215808 278.266715 
L 321.43912 278.266715 
L 321.662431 291.925019 
L 321.885743 287.372251 
L 322.109055 297.857995 
L 322.332366 294.614299 
L 322.555678 294.614299 
L 322.778989 284.839963 
L 323.002301 284.839963 
L 323.225613 293.945499 
L 323.448924 288.716891 
L 323.672236 288.716891 
L 324.118859 316.069066 
L 324.342171 310.847499 
L 324.565483 297.189195 
L 324.788794 301.741963 
L 325.458729 301.741963 
L 325.682041 305.618891 
L 325.905353 300.397323 
L 326.128664 304.950091 
L 326.351976 296.513355 
L 326.575288 295.844555 
L 326.798599 301.066123 
L 327.021911 295.844555 
L 327.245223 300.397323 
L 327.468534 291.925019 
L 327.691846 291.925019 
L 327.915158 296.513355 
L 328.361781 296.513355 
L 328.808404 287.372251 
L 329.031716 291.925019 
L 329.255028 337.559403 
L 329.478339 342.788011 
L 329.701651 338.235243 
L 329.924962 351.893546 
L 330.371586 337.559403 
L 330.594897 341.443371 
L 330.818209 340.767531 
L 331.264832 332.302266 
L 331.488144 327.749498 
L 331.711456 331.626426 
L 331.934767 331.626426 
L 332.158079 327.073658 
L 332.381391 331.626426 
L 332.604702 331.626426 
L 332.828014 336.890603 
L 333.051326 337.559403 
L 333.274637 333.646906 
L 333.497949 333.646906 
L 333.721261 332.971066 
L 334.391196 311.516299 
L 334.614507 317.413706 
L 335.061131 300.547275 
L 335.507754 290.061531 
L 335.731066 299.202635 
L 335.954377 299.202635 
L 336.177689 294.614299 
L 336.401001 299.878475 
L 336.624312 299.202635 
L 336.847624 303.086603 
L 337.070935 298.533835 
L 337.294247 303.755403 
L 337.517559 303.086603 
L 337.964182 293.945499 
L 338.187494 298.533835 
L 338.410805 297.189195 
L 338.634117 293.269659 
L 339.304052 306.294731 
L 339.750675 306.294731 
L 339.973987 302.410763 
L 340.197299 302.410763 
L 340.42061 306.963531 
L 340.643922 298.533835 
L 340.867234 298.533835 
L 341.090545 297.857995 
L 341.313857 293.269659 
L 341.537169 297.857995 
L 341.76048 293.269659 
L 341.983792 293.269659 
L 342.207104 301.741963 
L 342.430415 297.189195 
L 342.653727 296.513355 
L 342.877039 291.925019 
L 343.10035 292.600859 
L 343.323662 297.189195 
L 343.546973 297.857995 
L 343.770285 301.066123 
L 343.993597 301.741963 
L 344.216908 301.741963 
L 344.44022 297.189195 
L 344.663532 295.168715 
L 345.110155 304.274251 
L 345.333467 295.168715 
L 345.78009 288.048091 
L 346.003402 293.945499 
L 346.226713 289.392731 
L 346.450025 288.048091 
L 346.673337 296.513355 
L 346.896648 297.189195 
L 347.11996 301.741963 
L 347.343272 297.189195 
L 347.566583 297.189195 
L 347.789895 301.741963 
L 348.013207 301.741963 
L 348.236518 297.857995 
L 348.45983 301.741963 
L 348.683142 297.189195 
L 348.906453 301.066123 
L 349.129765 306.963531 
L 349.353077 306.294731 
L 349.576388 306.294731 
L 349.7997 305.618891 
L 350.023012 306.294731 
L 350.246323 309.502859 
L 350.692946 322.116426 
L 350.916258 319.427146 
L 351.13957 318.758346 
L 351.362881 315.550219 
L 351.586193 310.321611 
L 351.809505 310.321611 
L 352.256128 341.443371 
L 352.47944 333.646906 
L 352.702751 338.904043 
L 352.926063 348.009578 
L 353.149375 329.094138 
L 353.595998 334.991546 
L 354.265933 306.963531 
L 354.712556 299.878475 
L 354.935868 308.984011 
L 355.382491 295.290139 
L 355.829115 308.308171 
L 356.052426 299.202635 
L 356.275738 299.878475 
L 356.49905 303.755403 
L 356.722361 304.431243 
L 356.945673 303.086603 
L 357.168984 303.086603 
L 357.615608 295.958939 
L 357.838919 285.508763 
L 358.062231 282.300635 
L 358.285543 288.198043 
L 358.508854 289.542683 
L 358.732166 288.866843 
L 358.955478 297.303579 
L 359.178789 293.419611 
L 359.848724 277.712299 
L 360.518659 291.406171 
L 360.741971 291.406171 
L 360.965283 286.853403 
L 361.188594 286.184603 
L 361.411906 295.290139 
L 361.635218 294.614299 
L 361.858529 289.392731 
L 362.081841 290.061531 
L 362.305153 288.716891 
L 362.751776 290.061531 
L 363.198399 290.061531 
L 363.421711 292.600859 
L 363.645023 297.857995 
L 363.868334 297.189195 
L 364.091646 295.168715 
L 364.314957 291.256219 
L 364.538269 291.925019 
L 364.984892 282.819483 
L 365.208204 291.925019 
L 365.431516 284.164123 
L 365.654827 288.048091 
L 365.878139 283.495323 
L 366.101451 288.716891 
L 366.324762 284.164123 
L 366.548074 288.716891 
L 366.771386 284.839963 
L 366.994697 284.839963 
L 367.218009 285.508763 
L 367.441321 285.508763 
L 367.664632 284.164123 
L 367.887944 289.392731 
L 368.111256 288.716891 
L 368.334567 293.945499 
L 368.557879 285.508763 
L 369.004502 294.614299 
L 369.227814 294.614299 
L 369.451126 299.878475 
L 369.674437 294.614299 
L 369.897749 293.945499 
L 370.121061 299.202635 
L 370.344372 299.878475 
L 370.567684 299.202635 
L 370.790995 295.958939 
L 371.014307 295.290139 
L 371.237619 299.202635 
L 371.46093 305.100043 
L 371.684242 305.768843 
L 371.907554 314.205579 
L 372.130865 316.219019 
L 372.354177 310.997451 
L 372.577489 310.321611 
L 372.8008 310.997451 
L 373.024112 305.768843 
L 373.247424 310.321611 
L 373.470735 310.997451 
L 373.694047 314.874379 
L 373.917359 310.321611 
L 374.14067 315.550219 
L 374.363982 310.997451 
L 374.587294 310.997451 
L 374.810605 301.891915 
L 375.033917 287.522203 
L 375.257229 282.969435 
L 375.48054 275.172971 
L 375.927164 284.314075 
L 376.150475 267.412075 
L 376.373787 279.056939 
L 376.597099 274.504171 
L 377.267034 274.504171 
L 377.490345 279.056939 
L 377.713657 279.725739 
L 378.16028 269.951403 
L 378.383592 275.848811 
L 378.606903 278.381099 
L 379.053527 269.951403 
L 379.276838 275.998763 
L 379.723462 271.964843 
L 379.946773 276.517611 
L 380.170085 276.517611 
L 380.393397 280.401579 
L 380.616708 276.517611 
L 380.84002 281.070379 
L 381.063332 277.193451 
L 381.286643 286.334555 
L 381.733267 279.725739 
L 381.956578 284.989915 
L 382.17989 281.746219 
L 382.626513 296.784731 
L 383.073137 290.887323 
L 383.51976 290.887323 
L 383.743072 289.542683 
L 383.966383 284.989915 
L 384.189695 290.211483 
L 384.413007 275.698859 
L 384.636318 275.698859 
L 384.85963 284.839963 
L 385.082941 279.611355 
L 385.529565 281.631835 
L 385.752876 292.074971 
L 386.1995 299.878475 
L 386.422811 294.614299 
L 386.646123 294.614299 
L 386.869435 284.839963 
L 387.092746 289.392731 
L 387.53937 289.392731 
L 387.762681 288.716891 
L 387.985993 288.716891 
L 388.209305 284.839963 
L 388.655928 273.678379 
L 388.87924 273.678379 
L 389.102551 269.801451 
L 389.325863 263.904043 
L 389.549175 268.456811 
L 389.995798 260.020075 
L 390.21911 260.020075 
L 390.442421 269.801451 
L 390.889045 269.801451 
L 391.112356 260.695915 
L 391.335668 269.801451 
L 391.558979 274.354219 
L 391.782291 283.495323 
L 392.005603 274.354219 
L 392.228914 275.023019 
L 392.452226 270.470251 
L 392.675538 275.023019 
L 392.898849 270.470251 
L 393.122161 270.470251 
L 393.345473 275.023019 
L 393.568784 270.470251 
L 393.792096 269.801451 
L 394.015408 275.023019 
L 394.238719 283.495323 
L 394.462031 278.942555 
L 394.685343 277.597915 
L 394.908654 277.597915 
L 395.131966 272.333739 
L 395.355278 273.678379 
L 395.801901 273.678379 
L 396.025213 277.597915 
L 396.471836 268.456811 
L 396.695148 271.664939 
L 396.918459 270.989099 
L 397.141771 271.664939 
L 397.365083 271.664939 
L 397.588394 272.333739 
L 397.811706 267.112171 
L 398.035018 271.664939 
L 398.481641 271.664939 
L 398.704952 267.112171 
L 398.928264 258.675435 
L 399.374887 250.878971 
L 399.821511 259.351275 
L 400.044822 260.020075 
L 400.268134 254.798507 
L 400.491446 260.020075 
L 400.714757 253.453867 
L 400.938069 252.778027 
L 401.161381 243.636923 
L 401.384692 254.122667 
L 401.831316 254.122667 
L 402.054627 258.006635 
L 402.277939 257.330795 
L 402.501251 252.109227 
L 402.724562 252.109227 
L 402.947874 250.764587 
L 403.171186 250.764587 
L 403.394497 252.778027 
L 403.617809 266.436331 
L 403.841121 260.538923 
L 404.064432 261.883563 
L 404.287744 255.317355 
L 404.511056 252.628075 
L 404.734367 246.730667 
L 405.18099 257.856683 
L 405.627614 257.856683 
L 405.850925 253.972715 
L 406.074237 254.641515 
L 406.297549 258.525483 
L 406.52086 259.194283 
L 406.744172 250.088747 
L 406.967484 255.317355 
L 407.190795 254.641515 
L 407.414107 254.641515 
L 407.637419 257.856683 
L 407.86073 252.628075 
L 408.084042 253.972715 
L 408.307354 253.303915 
L 408.530665 257.856683 
L 408.753977 256.512043 
L 408.977289 257.856683 
L 409.2006 262.409451 
L 409.423912 263.747051 
L 409.647224 259.194283 
L 409.870535 258.525483 
L 410.093847 263.078251 
L 410.317159 272.888155 
L 410.54047 268.299819 
L 410.987094 287.776715 
L 411.433717 273.257051 
L 411.88034 285.763275 
L 412.103652 280.499099 
L 412.326963 270.048923 
L 412.550275 284.418635 
L 412.773587 285.087435 
L 412.996898 290.984843 
L 413.666833 295.537611 
L 413.890145 283.188379 
L 414.113457 289.121355 
L 414.336768 288.452555 
L 414.783392 277.290971 
L 415.006703 290.316043 
L 415.230015 287.107915 
L 415.676638 278.635611 
L 415.89995 286.546459 
L 416.123262 284.533019 
L 416.346573 279.980251 
L 416.569885 284.533019 
L 416.793197 283.864219 
L 417.016508 287.776715 
L 417.23982 285.208859 
L 417.686443 293.674123 
L 417.909755 284.533019 
L 418.356378 293.674123 
L 418.57969 292.329483 
L 419.026313 281.174939 
L 419.249625 285.763275 
L 419.472936 285.087435 
L 419.696248 286.432075 
L 419.91956 277.290971 
L 420.142871 282.519579 
L 420.589495 273.414043 
L 420.812806 273.414043 
L 421.25943 282.519579 
L 421.482741 279.980251 
L 421.706053 279.980251 
L 421.929365 280.656091 
L 422.152676 285.208859 
L 422.375988 285.877659 
L 422.5993 284.533019 
L 422.822611 289.797195 
L 423.045923 284.533019 
L 423.269235 288.452555 
L 423.492546 283.864219 
L 423.715858 283.864219 
L 423.93917 288.452555 
L 424.385793 288.452555 
L 424.609105 283.188379 
L 424.832416 283.864219 
L 425.055728 289.121355 
L 425.27904 275.427483 
L 425.502351 279.980251 
L 425.948974 270.874715 
L 426.172286 275.427483 
L 426.395598 266.286379 
L 426.618909 270.874715 
L 426.842221 252.628075 
L 427.065533 263.078251 
L 427.288844 262.409451 
L 427.512156 244.831611 
L 427.735468 259.194283 
L 428.182091 268.299819 
L 428.405403 263.747051 
L 428.628714 268.299819 
L 428.852026 264.422891 
L 429.075338 263.747051 
L 429.298649 268.299819 
L 429.521961 267.631019 
L 429.745273 263.747051 
L 429.968584 268.299819 
L 430.191896 265.091691 
L 430.415208 265.091691 
L 430.638519 272.333739 
L 430.861831 266.436331 
L 431.085143 267.112171 
L 431.308454 271.664939 
L 431.531766 270.989099 
L 431.755078 270.989099 
L 432.201701 261.883563 
L 432.425013 261.883563 
L 432.648324 252.778027 
L 432.871636 269.644459 
L 433.094947 266.436331 
L 433.318259 270.989099 
L 433.541571 270.320299 
L 433.988194 270.320299 
L 434.211506 274.908635 
L 434.434817 265.091691 
L 434.658129 271.814891 
L 434.881441 269.125611 
L 435.104752 275.023019 
L 435.328064 260.695915 
L 435.551376 256.143147 
L 435.774687 255.467307 
L 435.997999 248.865531 
L 436.221311 257.330795 
L 436.667934 248.189691 
L 437.114557 249.534331 
L 437.337869 255.467307 
L 437.561181 271.664939 
L 437.784492 267.780971 
L 438.007804 267.780971 
L 438.231116 267.112171 
L 438.454427 276.922075 
L 438.677739 271.664939 
L 438.901051 271.664939 
L 439.124362 281.474843 
L 439.347674 277.597915 
L 439.570985 276.922075 
L 440.017609 287.372251 
L 440.24092 282.150683 
L 440.464232 281.474843 
L 440.687544 286.027611 
L 440.910855 276.922075 
L 441.134167 276.922075 
L 441.357479 282.150683 
L 441.58079 273.009579 
L 441.804102 278.942555 
L 442.027414 273.678379 
L 442.250725 273.009579 
L 442.697349 263.904043 
L 442.92066 267.780971 
L 443.143972 273.678379 
L 443.367284 267.780971 
L 443.590595 271.664939 
L 443.813907 272.333739 
L 444.037219 282.819483 
L 444.26053 278.266715 
L 444.483842 278.266715 
L 444.707154 274.354219 
L 444.930465 278.266715 
L 445.153777 268.456811 
L 445.377089 270.470251 
L 445.6004 269.801451 
L 445.823712 270.470251 
L 446.047024 266.593323 
L 446.270335 273.159531 
L 446.493647 276.367659 
L 446.716958 268.456811 
L 446.94027 275.577435 
L 447.163582 276.922075 
L 447.386893 276.253275 
L 447.610205 276.253275 
L 447.833517 272.888155 
L 448.056828 273.563995 
L 448.503452 264.422891 
L 448.950075 264.422891 
L 449.173387 265.091691 
L 449.396698 266.436331 
L 449.62001 266.436331 
L 449.843322 284.682971 
L 450.289945 274.908635 
L 450.513257 274.232795 
L 450.736568 274.908635 
L 451.183192 266.436331 
L 451.406503 267.780971 
L 451.629815 266.436331 
L 451.853127 270.320299 
L 452.076438 265.767531 
L 452.29975 266.436331 
L 452.523062 270.320299 
L 452.746373 266.436331 
L 452.969685 266.436331 
L 453.416308 267.780971 
L 453.862931 278.266715 
L 454.086243 273.678379 
L 454.309555 273.678379 
L 454.532866 268.456811 
L 454.756178 269.125611 
L 454.97949 269.125611 
L 455.202801 270.470251 
L 455.426113 265.248683 
L 455.872736 273.678379 
L 456.096048 273.009579 
L 456.31936 273.009579 
L 456.542671 273.678379 
L 456.765983 269.125611 
L 456.989295 273.678379 
L 457.212606 269.801451 
L 457.435918 269.801451 
L 457.65923 265.248683 
L 457.882541 269.801451 
L 458.105853 269.801451 
L 458.329165 269.125611 
L 458.552476 269.125611 
L 458.775788 269.801451 
L 458.9991 265.248683 
L 459.222411 265.917483 
L 459.445723 269.801451 
L 459.669035 269.801451 
L 459.892346 264.572843 
L 460.115658 265.248683 
L 460.338969 269.125611 
L 460.562281 269.801451 
L 461.678839 269.801451 
L 461.902151 260.695915 
L 462.125463 241.773435 
L 462.572086 250.210171 
L 462.795398 246.326203 
L 463.018709 260.695915 
L 463.242021 255.467307 
L 463.465333 254.122667 
L 463.688644 259.351275 
L 463.911956 254.798507 
L 464.135268 255.467307 
L 464.358579 250.210171 
L 464.581891 255.467307 
L 464.805203 250.210171 
L 465.028514 260.695915 
L 465.251826 255.467307 
L 465.475138 261.364715 
L 465.698449 262.040555 
L 465.921761 262.040555 
L 466.368384 263.385195 
L 466.591696 272.490731 
L 466.815008 266.593323 
L 467.261631 266.593323 
L 467.484942 270.470251 
L 467.708254 271.814891 
L 467.931566 275.698859 
L 468.154877 271.146091 
L 468.378189 280.955995 
L 468.601501 280.287195 
L 468.824812 275.698859 
L 469.048124 278.942555 
L 469.271436 278.942555 
L 469.494747 284.164123 
L 469.718059 278.942555 
L 469.941371 278.942555 
L 470.164682 283.495323 
L 470.611306 275.023019 
L 470.834617 279.611355 
L 471.057929 279.611355 
L 471.281241 274.354219 
L 471.504552 274.354219 
L 471.727864 273.678379 
L 471.951176 278.266715 
L 472.174487 273.009579 
L 472.397799 277.597915 
L 472.621111 276.922075 
L 472.844422 276.922075 
L 473.291046 259.351275 
L 473.514357 263.904043 
L 473.737669 265.248683 
L 473.96098 260.695915 
L 474.407604 268.456811 
L 474.630915 267.780971 
L 475.077539 278.266715 
L 475.30085 273.678379 
L 476.194097 273.678379 
L 476.417409 274.354219 
L 476.64072 269.125611 
L 476.864032 274.354219 
L 477.087344 265.248683 
L 477.310655 261.364715 
L 477.533967 261.364715 
L 477.757279 269.801451 
L 477.98059 265.248683 
L 478.203902 269.801451 
L 478.650525 268.456811 
L 478.873837 273.678379 
L 479.097149 269.125611 
L 479.32046 274.354219 
L 479.543772 269.801451 
L 479.767084 275.023019 
L 479.990395 271.146091 
L 480.213707 271.814891 
L 480.437019 273.828331 
L 481.106953 271.814891 
L 481.330265 272.490731 
L 481.553577 272.490731 
L 481.776888 271.814891 
L 482.223512 271.814891 
L 482.446823 273.159531 
L 482.670135 272.490731 
L 482.893447 272.490731 
L 483.116758 271.814891 
L 483.34007 278.381099 
L 483.786693 267.937963 
L 484.010005 277.043499 
L 484.233317 277.043499 
L 484.456628 276.367659 
L 484.903252 277.712299 
L 485.126563 277.043499 
L 485.573187 268.606763 
L 485.796498 271.814891 
L 486.01981 271.814891 
L 486.243122 272.490731 
L 486.466433 263.385195 
L 486.689745 267.937963 
L 486.913057 263.385195 
L 487.136368 262.709355 
L 487.35968 258.156587 
L 487.582991 262.709355 
L 487.806303 258.156587 
L 488.029615 258.156587 
L 488.252926 267.937963 
L 488.476238 267.262123 
L 488.69955 277.043499 
L 488.922861 277.043499 
L 489.146173 291.406171 
L 489.369485 295.290139 
L 489.592796 295.958939 
L 489.816108 290.737371 
L 490.03942 300.547275 
L 490.262731 291.406171 
L 490.486043 291.406171 
L 490.709355 305.768843 
L 490.932666 301.891915 
L 491.155978 307.113483 
L 491.37929 302.560715 
L 491.825913 311.666251 
L 492.049225 302.560715 
L 492.272536 305.249995 
L 492.495848 299.317019 
L 492.942471 307.789323 
L 493.165783 307.789323 
L 493.389095 303.236555 
L 493.612406 303.236555 
L 493.835718 297.972379 
L 494.05903 299.992859 
L 494.505653 298.648219 
L 494.728964 299.317019 
L 494.952276 309.802763 
L 495.622211 294.764251 
L 495.845523 295.440091 
L 496.068834 294.764251 
L 496.292146 290.211483 
L 496.515458 298.648219 
L 496.738769 294.095451 
L 496.962081 302.560715 
L 497.185393 297.303579 
L 497.408704 302.560715 
L 497.632016 303.236555 
L 497.855328 302.560715 
L 498.078639 307.789323 
L 498.301951 303.236555 
L 498.525263 303.236555 
L 498.748574 304.581195 
L 498.971886 307.789323 
L 499.195198 308.458123 
L 499.418509 303.236555 
L 499.641821 303.236555 
L 499.865133 293.419611 
L 500.311756 302.560715 
L 500.535068 301.891915 
L 500.758379 296.627739 
L 500.981691 301.216075 
L 501.205003 300.547275 
L 501.428314 295.958939 
L 501.651626 297.303579 
L 501.874937 301.216075 
L 502.098249 301.216075 
L 502.321561 297.303579 
L 502.544872 296.627739 
L 502.768184 296.627739 
L 502.991496 300.547275 
L 503.214807 300.547275 
L 503.438119 295.958939 
L 503.661431 296.627739 
L 503.884742 296.627739 
L 504.108054 300.547275 
L 504.331366 301.216075 
L 504.554677 305.100043 
L 504.777989 304.431243 
L 505.001301 304.431243 
L 505.447924 295.958939 
L 505.671236 296.627739 
L 505.894547 301.216075 
L 506.341171 292.750811 
L 506.564482 301.891915 
L 506.787794 301.216075 
L 507.011106 301.891915 
L 507.234417 301.891915 
L 507.457729 302.560715 
L 507.681041 297.972379 
L 508.127664 305.768843 
L 508.350975 296.627739 
L 508.574287 302.560715 
L 508.797599 301.891915 
L 509.02091 306.444683 
L 509.244222 314.205579 
L 509.467534 308.984011 
L 509.690845 314.205579 
L 509.914157 304.431243 
L 510.137469 305.100043 
L 510.36078 305.100043 
L 510.584092 309.652811 
L 510.807404 305.768843 
L 511.030715 310.997451 
L 511.477339 300.547275 
L 511.923962 300.547275 
L 512.147274 305.768843 
L 512.370585 300.547275 
L 512.593897 299.878475 
L 512.817209 295.290139 
L 513.04052 299.202635 
L 513.263832 299.878475 
L 513.487144 297.189195 
L 513.933767 299.878475 
L 514.157079 298.533835 
L 514.38039 289.392731 
L 514.603702 285.508763 
L 514.827014 284.839963 
L 515.050325 286.703451 
L 515.496948 296.513355 
L 515.72026 291.925019 
L 515.943572 291.925019 
L 516.166883 287.372251 
L 516.390195 296.513355 
L 516.613507 296.513355 
L 516.836818 291.925019 
L 517.06013 295.844555 
L 517.506753 264.572843 
L 517.730065 256.143147 
L 517.953377 224.871435 
L 518.176688 239.909947 
L 518.4 240.585787 
L 518.4 240.585787 
" style="fill:none;stroke:#4c72b0;stroke-linecap:round;stroke-width:1.75;"/>
   </g>
   <g id="patch_3">
    <path d="M 72 356.4 
L 518.4 356.4 
" style="fill:none;"/>
   </g>
   <g id="patch_4">
    <path d="M 72 39.6 
L 518.4 39.6 
" style="fill:none;"/>
   </g>
   <g id="patch_5">
    <path d="M 72 356.4 
L 72 39.6 
" style="fill:none;"/>
   </g>
   <g id="patch_6">
    <path d="M 518.4 356.4 
L 518.4 39.6 
" style="fill:none;"/>
   </g>
   <g id="text_16">
    <!-- ag - 5.052343591945039 * FG -->
    <defs>
     <path d="M 9.125 0 
L 9.125 10.6875 
L 18.65625 10.6875 
L 18.65625 0 
z
" id="LiberationSans-2e"/>
     <path d="M 26.765625 -20.75 
Q 22.21875 -20.75 18.703125 -19.8125 
Q 15.1875 -18.890625 12.6875 -17.15625 
Q 10.203125 -15.4375 8.640625 -13.03125 
Q 7.078125 -10.640625 6.390625 -7.71875 
L 15.234375 -6.453125 
Q 16.109375 -10.109375 19.109375 -12.078125 
Q 22.125 -14.0625 27 -14.0625 
Q 29.984375 -14.0625 32.421875 -13.234375 
Q 34.859375 -12.40625 36.5625 -10.5625 
Q 38.28125 -8.734375 39.203125 -5.796875 
Q 40.140625 -2.875 40.140625 1.3125 
L 40.140625 9.8125 
L 40.046875 9.8125 
Q 39.0625 7.8125 37.625 5.984375 
Q 36.1875 4.15625 34.109375 2.734375 
Q 32.03125 1.3125 29.296875 0.453125 
Q 26.5625 -0.390625 23.046875 -0.390625 
Q 18.015625 -0.390625 14.421875 1.296875 
Q 10.84375 2.984375 8.5625 6.34375 
Q 6.296875 9.71875 5.25 14.71875 
Q 4.203125 19.734375 4.203125 26.3125 
Q 4.203125 32.671875 5.25 37.75 
Q 6.296875 42.828125 8.65625 46.359375 
Q 11.03125 49.90625 14.8125 51.78125 
Q 18.609375 53.65625 24.03125 53.65625 
Q 29.640625 53.65625 33.765625 51.09375 
Q 37.890625 48.53125 40.140625 43.796875 
L 40.234375 43.796875 
Q 40.234375 45.015625 40.296875 46.53125 
Q 40.375 48.046875 40.453125 49.390625 
Q 40.53125 50.734375 40.625 51.703125 
Q 40.71875 52.6875 40.828125 52.828125 
L 49.171875 52.828125 
Q 49.125 52.390625 49.078125 51.34375 
Q 49.03125 50.296875 48.96875 48.828125 
Q 48.921875 47.359375 48.890625 45.578125 
Q 48.875 43.796875 48.875 41.890625 
L 48.875 1.515625 
Q 48.875 -9.578125 43.421875 -15.15625 
Q 37.984375 -20.75 26.765625 -20.75 
M 40.140625 26.421875 
Q 40.140625 31.9375 38.9375 35.859375 
Q 37.75 39.796875 35.796875 42.28125 
Q 33.84375 44.78125 31.328125 45.953125 
Q 28.8125 47.125 26.171875 47.125 
Q 22.796875 47.125 20.375 45.953125 
Q 17.96875 44.78125 16.375 42.265625 
Q 14.796875 39.75 14.03125 35.8125 
Q 13.28125 31.890625 13.28125 26.421875 
Q 13.28125 20.703125 14.03125 16.8125 
Q 14.796875 12.9375 16.359375 10.546875 
Q 17.921875 8.15625 20.3125 7.125 
Q 22.703125 6.109375 26.03125 6.109375 
Q 28.65625 6.109375 31.171875 7.21875 
Q 33.6875 8.34375 35.6875 10.78125 
Q 37.703125 13.234375 38.921875 17.09375 
Q 40.140625 20.953125 40.140625 26.421875 
" id="LiberationSans-67"/>
     <path d="M 5.03125 34.71875 
Q 5.03125 42.78125 7.203125 49.265625 
Q 9.375 55.765625 13.6875 60.328125 
Q 18.015625 64.890625 24.40625 67.359375 
Q 30.8125 69.828125 39.265625 69.828125 
Q 45.609375 69.828125 50.390625 68.703125 
Q 55.171875 67.578125 58.6875 65.46875 
Q 62.203125 63.375 64.640625 60.375 
Q 67.09375 57.375 68.796875 53.609375 
L 59.90625 50.984375 
Q 58.640625 53.515625 56.859375 55.59375 
Q 55.078125 57.671875 52.53125 59.125 
Q 50 60.59375 46.65625 61.390625 
Q 43.3125 62.203125 39.015625 62.203125 
Q 32.765625 62.203125 28.140625 60.25 
Q 23.53125 58.296875 20.5 54.6875 
Q 17.484375 51.078125 15.984375 46 
Q 14.5 40.921875 14.5 34.71875 
Q 14.5 28.515625 16.109375 23.359375 
Q 17.71875 18.21875 20.890625 14.484375 
Q 24.078125 10.75 28.78125 8.671875 
Q 33.5 6.59375 39.703125 6.59375 
Q 43.75 6.59375 47.171875 7.265625 
Q 50.59375 7.953125 53.34375 9.046875 
Q 56.109375 10.15625 58.203125 11.5 
Q 60.296875 12.84375 61.71875 14.203125 
L 61.71875 26.609375 
L 41.15625 26.609375 
L 41.15625 34.421875 
L 70.3125 34.421875 
L 70.3125 10.6875 
Q 68.015625 8.34375 64.90625 6.21875 
Q 61.8125 4.109375 57.953125 2.484375 
Q 54.109375 0.875 49.515625 -0.046875 
Q 44.921875 -0.984375 39.703125 -0.984375 
Q 31 -0.984375 24.5 1.671875 
Q 18.015625 4.34375 13.6875 9.109375 
Q 9.375 13.875 7.203125 20.40625 
Q 5.03125 26.953125 5.03125 34.71875 
" id="LiberationSans-47"/>
     <path d="M 17.53125 61.1875 
L 17.53125 35.59375 
L 55.90625 35.59375 
L 55.90625 27.875 
L 17.53125 27.875 
L 17.53125 0 
L 8.203125 0 
L 8.203125 68.796875 
L 57.078125 68.796875 
L 57.078125 61.1875 
z
" id="LiberationSans-46"/>
     <path d="M 22.265625 54.390625 
L 35.15625 59.421875 
L 37.359375 52.984375 
L 23.578125 49.421875 
L 32.625 37.203125 
L 26.8125 33.6875 
L 19.484375 46.296875 
L 11.859375 33.796875 
L 6.0625 37.3125 
L 15.28125 49.421875 
L 1.609375 52.984375 
L 3.8125 59.515625 
L 16.84375 54.296875 
L 16.265625 68.796875 
L 22.90625 68.796875 
z
" id="LiberationSans-2a"/>
     <path d="M 20.21875 -0.984375 
Q 12.25 -0.984375 8.25 3.21875 
Q 4.25 7.421875 4.25 14.75 
Q 4.25 19.96875 6.21875 23.3125 
Q 8.203125 26.65625 11.390625 28.5625 
Q 14.59375 30.46875 18.6875 31.203125 
Q 22.796875 31.9375 27.046875 32.03125 
L 38.921875 32.234375 
L 38.921875 35.109375 
Q 38.921875 38.375 38.234375 40.671875 
Q 37.546875 42.96875 36.125 44.375 
Q 34.71875 45.796875 32.59375 46.453125 
Q 30.46875 47.125 27.59375 47.125 
Q 25.046875 47.125 23 46.75 
Q 20.953125 46.390625 19.4375 45.4375 
Q 17.921875 44.484375 16.984375 42.84375 
Q 16.0625 41.21875 15.765625 38.71875 
L 6.59375 39.546875 
Q 7.078125 42.671875 8.4375 45.28125 
Q 9.8125 47.90625 12.328125 49.796875 
Q 14.84375 51.703125 18.625 52.75 
Q 22.40625 53.8125 27.78125 53.8125 
Q 37.75 53.8125 42.765625 49.234375 
Q 47.796875 44.671875 47.796875 36.03125 
L 47.796875 13.28125 
Q 47.796875 9.375 48.828125 7.390625 
Q 49.859375 5.421875 52.734375 5.421875 
Q 53.46875 5.421875 54.203125 5.515625 
Q 54.9375 5.609375 55.609375 5.765625 
L 55.609375 0.296875 
Q 53.953125 -0.09375 52.3125 -0.28125 
Q 50.6875 -0.484375 48.828125 -0.484375 
Q 46.34375 -0.484375 44.5625 0.171875 
Q 42.78125 0.828125 41.65625 2.171875 
Q 40.53125 3.515625 39.9375 5.484375 
Q 39.359375 7.46875 39.203125 10.109375 
L 38.921875 10.109375 
Q 37.5 7.5625 35.8125 5.515625 
Q 34.125 3.46875 31.875 2.03125 
Q 29.640625 0.59375 26.78125 -0.1875 
Q 23.921875 -0.984375 20.21875 -0.984375 
M 22.21875 5.609375 
Q 26.421875 5.609375 29.5625 7.140625 
Q 32.71875 8.6875 34.78125 11.078125 
Q 36.859375 13.484375 37.890625 16.3125 
Q 38.921875 19.140625 38.921875 21.734375 
L 38.921875 26.078125 
L 29.296875 25.875 
Q 26.078125 25.828125 23.171875 25.40625 
Q 20.265625 25 18.0625 23.78125 
Q 15.875 22.5625 14.578125 20.359375 
Q 13.28125 18.171875 13.28125 14.59375 
Q 13.28125 10.296875 15.59375 7.953125 
Q 17.921875 5.609375 22.21875 5.609375 
" id="LiberationSans-61"/>
    </defs>
    <g style="fill:#262626;" transform="translate(214.1428125 34.6)scale(0.12 -0.12)">
     <use xlink:href="#LiberationSans-61"/>
     <use x="55.615234375" xlink:href="#LiberationSans-67"/>
     <use x="111.23046875" xlink:href="#LiberationSans-20"/>
     <use x="139.013671875" xlink:href="#LiberationSans-2d"/>
     <use x="172.314453125" xlink:href="#LiberationSans-20"/>
     <use x="200.09765625" xlink:href="#LiberationSans-35"/>
     <use x="255.712890625" xlink:href="#LiberationSans-2e"/>
     <use x="283.49609375" xlink:href="#LiberationSans-30"/>
     <use x="339.111328125" xlink:href="#LiberationSans-35"/>
     <use x="394.7265625" xlink:href="#LiberationSans-32"/>
     <use x="450.341796875" xlink:href="#LiberationSans-33"/>
     <use x="505.95703125" xlink:href="#LiberationSans-34"/>
     <use x="561.572265625" xlink:href="#LiberationSans-33"/>
     <use x="617.1875" xlink:href="#LiberationSans-35"/>
     <use x="672.802734375" xlink:href="#LiberationSans-39"/>
     <use x="728.41796875" xlink:href="#LiberationSans-31"/>
     <use x="784.033203125" xlink:href="#LiberationSans-39"/>
     <use x="839.6484375" xlink:href="#LiberationSans-34"/>
     <use x="895.263671875" xlink:href="#LiberationSans-35"/>
     <use x="950.87890625" xlink:href="#LiberationSans-30"/>
     <use x="1006.494140625" xlink:href="#LiberationSans-33"/>
     <use x="1062.109375" xlink:href="#LiberationSans-39"/>
     <use x="1117.724609375" xlink:href="#LiberationSans-20"/>
     <use x="1145.5078125" xlink:href="#LiberationSans-2a"/>
     <use x="1184.423828125" xlink:href="#LiberationSans-20"/>
     <use x="1212.20703125" xlink:href="#LiberationSans-46"/>
     <use x="1273.291015625" xlink:href="#LiberationSans-47"/>
    </g>
   </g>
  </g>
 </g>
 <defs>
  <clipPath id="pb874c7837a">
   <rect height="316.8" width="446.4" x="72.0" y="39.6"/>
  </clipPath>
 </defs>
</svg>
