<?xml version="1.0" encoding="utf-8" standalone="no"?>
<!DOCTYPE svg PUBLIC "-//W3C//DTD SVG 1.1//EN"
  "http://www.w3.org/Graphics/SVG/1.1/DTD/svg11.dtd">
<!-- Created with matplotlib (http://matplotlib.org/) -->
<svg height="396pt" version="1.1" viewBox="0 0 576 396" width="576pt" xmlns="http://www.w3.org/2000/svg" xmlns:xlink="http://www.w3.org/1999/xlink">
 <defs>
  <style type="text/css">
*{stroke-linecap:butt;stroke-linejoin:round;stroke-miterlimit:100000;}
  </style>
 </defs>
 <g id="figure_1">
  <g id="patch_1">
   <path d="M 0 396 
L 576 396 
L 576 0 
L 0 0 
z
" style="fill:#ffffff;"/>
  </g>
  <g id="axes_1">
   <g id="patch_2">
    <path d="M 72 356.4 
L 518.4 356.4 
L 518.4 39.6 
L 72 39.6 
z
" style="fill:#eaeaf2;"/>
   </g>
   <g id="matplotlib.axis_1">
    <g id="xtick_1">
     <g id="line2d_1">
      <path clip-path="url(#p6b482b048d)" d="M 72 356.4 
L 72 39.6 
" style="fill:none;stroke:#ffffff;stroke-linecap:round;"/>
     </g>
     <g id="line2d_2"/>
     <g id="line2d_3"/>
     <g id="text_1">
      <!-- 2015-12-07 11:08:00 -->
      <defs>
       <path d="M 5.03125 0 
L 5.03125 6.203125 
Q 7.515625 11.921875 11.109375 16.28125 
Q 14.703125 20.65625 18.65625 24.1875 
Q 22.609375 27.734375 26.484375 30.765625 
Q 30.375 33.796875 33.5 36.8125 
Q 36.625 39.84375 38.546875 43.15625 
Q 40.484375 46.484375 40.484375 50.6875 
Q 40.484375 53.609375 39.59375 55.828125 
Q 38.71875 58.0625 37.0625 59.5625 
Q 35.40625 61.078125 33.078125 61.828125 
Q 30.765625 62.59375 27.9375 62.59375 
Q 25.296875 62.59375 22.96875 61.859375 
Q 20.65625 61.140625 18.84375 59.671875 
Q 17.046875 58.203125 15.890625 56.03125 
Q 14.75 53.859375 14.40625 50.984375 
L 5.421875 51.8125 
Q 5.859375 55.515625 7.46875 58.78125 
Q 9.078125 62.0625 11.90625 64.53125 
Q 14.75 67 18.71875 68.40625 
Q 22.703125 69.828125 27.9375 69.828125 
Q 33.0625 69.828125 37.0625 68.609375 
Q 41.0625 67.390625 43.8125 64.984375 
Q 46.578125 62.59375 48.046875 59.078125 
Q 49.515625 55.5625 49.515625 50.984375 
Q 49.515625 47.515625 48.265625 44.390625 
Q 47.015625 41.265625 44.9375 38.421875 
Q 42.875 35.59375 40.140625 32.953125 
Q 37.40625 30.328125 34.421875 27.8125 
Q 31.453125 25.296875 28.421875 22.828125 
Q 25.390625 20.359375 22.71875 17.859375 
Q 20.0625 15.375 17.96875 12.8125 
Q 15.875 10.25 14.703125 7.46875 
L 50.59375 7.46875 
L 50.59375 0 
z
" id="LiberationSans-32"/>
       <path d="M 7.625 0 
L 7.625 7.46875 
L 25.140625 7.46875 
L 25.140625 60.40625 
L 9.625 49.3125 
L 9.625 57.625 
L 25.875 68.796875 
L 33.984375 68.796875 
L 33.984375 7.46875 
L 50.734375 7.46875 
L 50.734375 0 
z
" id="LiberationSans-31"/>
       <path d="M 50.59375 61.671875 
Q 45.40625 53.765625 41.0625 46.453125 
Q 36.71875 39.15625 33.59375 31.75 
Q 30.46875 24.359375 28.734375 16.578125 
Q 27 8.796875 27 0 
L 17.828125 0 
Q 17.828125 8.25 19.78125 16.1875 
Q 21.734375 24.125 25.046875 31.765625 
Q 28.375 39.40625 32.765625 46.78125 
Q 37.15625 54.15625 42.09375 61.328125 
L 5.125 61.328125 
L 5.125 68.796875 
L 50.59375 68.796875 
z
" id="LiberationSans-37"/>
       <path d="M 51.703125 34.421875 
Q 51.703125 24.515625 49.828125 17.75 
Q 47.953125 10.984375 44.703125 6.8125 
Q 41.453125 2.640625 37.0625 0.828125 
Q 32.671875 -0.984375 27.6875 -0.984375 
Q 22.65625 -0.984375 18.3125 0.828125 
Q 13.96875 2.640625 10.765625 6.78125 
Q 7.5625 10.9375 5.734375 17.703125 
Q 3.90625 24.46875 3.90625 34.421875 
Q 3.90625 44.828125 5.734375 51.640625 
Q 7.5625 58.453125 10.78125 62.5 
Q 14.015625 66.546875 18.40625 68.1875 
Q 22.796875 69.828125 27.984375 69.828125 
Q 32.90625 69.828125 37.21875 68.1875 
Q 41.546875 66.546875 44.765625 62.5 
Q 48 58.453125 49.84375 51.640625 
Q 51.703125 44.828125 51.703125 34.421875 
M 42.78125 34.421875 
Q 42.78125 42.625 41.796875 48.0625 
Q 40.828125 53.515625 38.921875 56.765625 
Q 37.015625 60.015625 34.25 61.359375 
Q 31.5 62.703125 27.984375 62.703125 
Q 24.265625 62.703125 21.4375 61.328125 
Q 18.609375 59.96875 16.671875 56.71875 
Q 14.75 53.46875 13.765625 48.015625 
Q 12.796875 42.578125 12.796875 34.421875 
Q 12.796875 26.515625 13.796875 21.09375 
Q 14.796875 15.671875 16.71875 12.375 
Q 18.65625 9.078125 21.4375 7.640625 
Q 24.21875 6.203125 27.78125 6.203125 
Q 31.25 6.203125 34.03125 7.640625 
Q 36.8125 9.078125 38.734375 12.375 
Q 40.671875 15.671875 41.71875 21.09375 
Q 42.78125 26.515625 42.78125 34.421875 
" id="LiberationSans-30"/>
       <path d="M 9.125 42.71875 
L 9.125 52.828125 
L 18.65625 52.828125 
L 18.65625 42.71875 
z
M 9.125 0 
L 9.125 10.109375 
L 18.65625 10.109375 
L 18.65625 0 
z
" id="LiberationSans-3a"/>
       <path d="M 51.265625 19.1875 
Q 51.265625 14.796875 49.875 11.109375 
Q 48.484375 7.421875 45.625 4.734375 
Q 42.78125 2.046875 38.328125 0.53125 
Q 33.890625 -0.984375 27.828125 -0.984375 
Q 21.78125 -0.984375 17.359375 0.53125 
Q 12.9375 2.046875 10.03125 4.703125 
Q 7.125 7.375 5.734375 11.0625 
Q 4.34375 14.75 4.34375 19.09375 
Q 4.34375 22.859375 5.484375 25.78125 
Q 6.640625 28.71875 8.5625 30.828125 
Q 10.5 32.953125 12.96875 34.25 
Q 15.4375 35.546875 18.0625 35.984375 
L 18.0625 36.1875 
Q 15.1875 36.859375 12.90625 38.375 
Q 10.640625 39.890625 9.09375 42.015625 
Q 7.5625 44.140625 6.75 46.71875 
Q 5.953125 49.3125 5.953125 52.203125 
Q 5.953125 55.8125 7.34375 59 
Q 8.734375 62.203125 11.46875 64.625 
Q 14.203125 67.046875 18.25 68.4375 
Q 22.3125 69.828125 27.640625 69.828125 
Q 33.25 69.828125 37.375 68.40625 
Q 41.5 67 44.203125 64.578125 
Q 46.921875 62.15625 48.234375 58.9375 
Q 49.5625 55.71875 49.5625 52.09375 
Q 49.5625 49.265625 48.75 46.671875 
Q 47.953125 44.09375 46.40625 41.96875 
Q 44.875 39.84375 42.59375 38.34375 
Q 40.328125 36.859375 37.359375 36.28125 
L 37.359375 36.078125 
Q 40.328125 35.59375 42.859375 34.296875 
Q 45.40625 33.015625 47.265625 30.890625 
Q 49.125 28.765625 50.1875 25.828125 
Q 51.265625 22.90625 51.265625 19.1875 
M 40.4375 51.609375 
Q 40.4375 54.203125 39.765625 56.34375 
Q 39.109375 58.5 37.59375 60.03125 
Q 36.078125 61.578125 33.640625 62.421875 
Q 31.203125 63.28125 27.640625 63.28125 
Q 24.171875 63.28125 21.78125 62.421875 
Q 19.390625 61.578125 17.84375 60.03125 
Q 16.3125 58.5 15.625 56.34375 
Q 14.9375 54.203125 14.9375 51.609375 
Q 14.9375 49.5625 15.46875 47.40625 
Q 16.015625 45.265625 17.421875 43.5 
Q 18.84375 41.75 21.328125 40.625 
Q 23.828125 39.5 27.734375 39.5 
Q 31.890625 39.5 34.40625 40.625 
Q 36.921875 41.75 38.25 43.5 
Q 39.59375 45.265625 40.015625 47.40625 
Q 40.4375 49.5625 40.4375 51.609375 
M 42.140625 20.015625 
Q 42.140625 22.515625 41.453125 24.828125 
Q 40.765625 27.15625 39.109375 28.9375 
Q 37.453125 30.71875 34.640625 31.8125 
Q 31.84375 32.90625 27.640625 32.90625 
Q 23.78125 32.90625 21.0625 31.8125 
Q 18.359375 30.71875 16.671875 28.90625 
Q 14.984375 27.09375 14.203125 24.71875 
Q 13.421875 22.359375 13.421875 19.828125 
Q 13.421875 16.65625 14.203125 14.03125 
Q 14.984375 11.421875 16.6875 9.546875 
Q 18.40625 7.671875 21.1875 6.640625 
Q 23.96875 5.609375 27.9375 5.609375 
Q 31.9375 5.609375 34.671875 6.640625 
Q 37.40625 7.671875 39.0625 9.546875 
Q 40.71875 11.421875 41.421875 14.078125 
Q 42.140625 16.75 42.140625 20.015625 
" id="LiberationSans-38"/>
       <path d="M 51.421875 22.40625 
Q 51.421875 17.234375 49.859375 12.9375 
Q 48.296875 8.640625 45.21875 5.53125 
Q 42.140625 2.4375 37.578125 0.71875 
Q 33.015625 -0.984375 27 -0.984375 
Q 21.578125 -0.984375 17.546875 0.28125 
Q 13.53125 1.5625 10.734375 3.78125 
Q 7.953125 6 6.3125 8.984375 
Q 4.6875 11.96875 4 15.375 
L 12.890625 16.40625 
Q 13.421875 14.453125 14.390625 12.625 
Q 15.375 10.796875 17.0625 9.34375 
Q 18.75 7.90625 21.21875 7.046875 
Q 23.6875 6.203125 27.203125 6.203125 
Q 30.609375 6.203125 33.390625 7.25 
Q 36.1875 8.296875 38.15625 10.34375 
Q 40.140625 12.40625 41.203125 15.375 
Q 42.28125 18.359375 42.28125 22.21875 
Q 42.28125 25.390625 41.25 28.046875 
Q 40.234375 30.71875 38.328125 32.640625 
Q 36.421875 34.578125 33.65625 35.640625 
Q 30.90625 36.71875 27.390625 36.71875 
Q 25.203125 36.71875 23.34375 36.328125 
Q 21.484375 35.9375 19.890625 35.25 
Q 18.3125 34.578125 17.015625 33.671875 
Q 15.71875 32.765625 14.59375 31.78125 
L 6 31.78125 
L 8.296875 68.796875 
L 47.40625 68.796875 
L 47.40625 61.328125 
L 16.3125 61.328125 
L 14.984375 39.5 
Q 17.328125 41.3125 20.84375 42.59375 
Q 24.359375 43.890625 29.203125 43.890625 
Q 34.328125 43.890625 38.421875 42.328125 
Q 42.53125 40.765625 45.40625 37.90625 
Q 48.296875 35.0625 49.859375 31.109375 
Q 51.421875 27.15625 51.421875 22.40625 
" id="LiberationSans-35"/>
       <path id="LiberationSans-20"/>
       <path d="M 4.4375 22.65625 
L 4.4375 30.46875 
L 28.859375 30.46875 
L 28.859375 22.65625 
z
" id="LiberationSans-2d"/>
      </defs>
      <g style="fill:#262626;" transform="translate(25.5765625 370.646875)scale(0.1 -0.1)">
       <use xlink:href="#LiberationSans-32"/>
       <use x="55.615234375" xlink:href="#LiberationSans-30"/>
       <use x="111.23046875" xlink:href="#LiberationSans-31"/>
       <use x="166.845703125" xlink:href="#LiberationSans-35"/>
       <use x="222.4609375" xlink:href="#LiberationSans-2d"/>
       <use x="255.76171875" xlink:href="#LiberationSans-31"/>
       <use x="311.376953125" xlink:href="#LiberationSans-32"/>
       <use x="366.9921875" xlink:href="#LiberationSans-2d"/>
       <use x="400.29296875" xlink:href="#LiberationSans-30"/>
       <use x="455.908203125" xlink:href="#LiberationSans-37"/>
       <use x="511.5234375" xlink:href="#LiberationSans-20"/>
       <use x="539.306640625" xlink:href="#LiberationSans-31"/>
       <use x="594.921875" xlink:href="#LiberationSans-31"/>
       <use x="650.537109375" xlink:href="#LiberationSans-3a"/>
       <use x="678.3203125" xlink:href="#LiberationSans-30"/>
       <use x="733.935546875" xlink:href="#LiberationSans-38"/>
       <use x="789.55078125" xlink:href="#LiberationSans-3a"/>
       <use x="817.333984375" xlink:href="#LiberationSans-30"/>
       <use x="872.94921875" xlink:href="#LiberationSans-30"/>
      </g>
     </g>
    </g>
    <g id="xtick_2">
     <g id="line2d_4">
      <path clip-path="url(#p6b482b048d)" d="M 183.655828 356.4 
L 183.655828 39.6 
" style="fill:none;stroke:#ffffff;stroke-linecap:round;"/>
     </g>
     <g id="line2d_5"/>
     <g id="line2d_6"/>
     <g id="text_2">
      <!-- 2015-12-09 14:29:00 -->
      <defs>
       <path d="M 50.875 35.796875 
Q 50.875 26.609375 49.140625 19.703125 
Q 47.40625 12.796875 44.1875 8.203125 
Q 40.96875 3.609375 36.34375 1.3125 
Q 31.734375 -0.984375 25.984375 -0.984375 
Q 22.015625 -0.984375 18.84375 -0.171875 
Q 15.671875 0.640625 13.171875 2.34375 
Q 10.6875 4.046875 8.921875 6.78125 
Q 7.171875 9.515625 6.109375 13.375 
L 14.5 14.703125 
Q 15.875 10.25 18.78125 8.171875 
Q 21.6875 6.109375 26.125 6.109375 
Q 29.6875 6.109375 32.640625 7.78125 
Q 35.59375 9.46875 37.671875 12.84375 
Q 39.75 16.21875 40.921875 21.296875 
Q 42.09375 26.375 42.1875 33.203125 
Q 41.15625 30.90625 39.375 29.09375 
Q 37.59375 27.296875 35.328125 26.046875 
Q 33.0625 24.8125 30.421875 24.140625 
Q 27.78125 23.484375 25.09375 23.484375 
Q 20.40625 23.484375 16.625 25.171875 
Q 12.84375 26.859375 10.203125 29.875 
Q 7.5625 32.90625 6.125 37.171875 
Q 4.6875 41.453125 4.6875 46.6875 
Q 4.6875 52 6.21875 56.296875 
Q 7.765625 60.59375 10.6875 63.59375 
Q 13.625 66.609375 17.890625 68.21875 
Q 22.171875 69.828125 27.59375 69.828125 
Q 39.0625 69.828125 44.96875 61.328125 
Q 50.875 52.828125 50.875 35.796875 
M 41.3125 44.28125 
Q 41.3125 48.09375 40.40625 51.453125 
Q 39.5 54.828125 37.71875 57.3125 
Q 35.9375 59.8125 33.328125 61.25 
Q 30.71875 62.703125 27.296875 62.703125 
Q 24.125 62.703125 21.578125 61.578125 
Q 19.046875 60.453125 17.28125 58.375 
Q 15.53125 56.296875 14.578125 53.3125 
Q 13.625 50.34375 13.625 46.6875 
Q 13.625 43.21875 14.46875 40.234375 
Q 15.328125 37.25 17.03125 35.078125 
Q 18.75 32.90625 21.28125 31.65625 
Q 23.828125 30.421875 27.203125 30.421875 
Q 29.640625 30.421875 32.15625 31.25 
Q 34.671875 32.078125 36.6875 33.78125 
Q 38.71875 35.5 40.015625 38.109375 
Q 41.3125 40.71875 41.3125 44.28125 
" id="LiberationSans-39"/>
       <path d="M 43.015625 15.578125 
L 43.015625 0 
L 34.71875 0 
L 34.71875 15.578125 
L 2.296875 15.578125 
L 2.296875 22.40625 
L 33.796875 68.796875 
L 43.015625 68.796875 
L 43.015625 22.515625 
L 52.6875 22.515625 
L 52.6875 15.578125 
z
M 34.71875 58.890625 
Q 34.625 58.640625 34.234375 57.9375 
Q 33.84375 57.234375 33.34375 56.34375 
Q 32.859375 55.46875 32.34375 54.5625 
Q 31.84375 53.65625 31.453125 53.078125 
L 13.8125 27.09375 
Q 13.578125 26.703125 13.109375 26.0625 
Q 12.640625 25.4375 12.15625 24.78125 
Q 11.671875 24.125 11.171875 23.484375 
Q 10.6875 22.859375 10.40625 22.515625 
L 34.71875 22.515625 
z
" id="LiberationSans-34"/>
      </defs>
      <g style="fill:#262626;" transform="translate(137.232390414 370.646875)scale(0.1 -0.1)">
       <use xlink:href="#LiberationSans-32"/>
       <use x="55.615234375" xlink:href="#LiberationSans-30"/>
       <use x="111.23046875" xlink:href="#LiberationSans-31"/>
       <use x="166.845703125" xlink:href="#LiberationSans-35"/>
       <use x="222.4609375" xlink:href="#LiberationSans-2d"/>
       <use x="255.76171875" xlink:href="#LiberationSans-31"/>
       <use x="311.376953125" xlink:href="#LiberationSans-32"/>
       <use x="366.9921875" xlink:href="#LiberationSans-2d"/>
       <use x="400.29296875" xlink:href="#LiberationSans-30"/>
       <use x="455.908203125" xlink:href="#LiberationSans-39"/>
       <use x="511.5234375" xlink:href="#LiberationSans-20"/>
       <use x="539.306640625" xlink:href="#LiberationSans-31"/>
       <use x="594.921875" xlink:href="#LiberationSans-34"/>
       <use x="650.537109375" xlink:href="#LiberationSans-3a"/>
       <use x="678.3203125" xlink:href="#LiberationSans-32"/>
       <use x="733.935546875" xlink:href="#LiberationSans-39"/>
       <use x="789.55078125" xlink:href="#LiberationSans-3a"/>
       <use x="817.333984375" xlink:href="#LiberationSans-30"/>
       <use x="872.94921875" xlink:href="#LiberationSans-30"/>
      </g>
     </g>
    </g>
    <g id="xtick_3">
     <g id="line2d_7">
      <path clip-path="url(#p6b482b048d)" d="M 295.311656 356.4 
L 295.311656 39.6 
" style="fill:none;stroke:#ffffff;stroke-linecap:round;"/>
     </g>
     <g id="line2d_8"/>
     <g id="line2d_9"/>
     <g id="text_3">
      <!-- 2015-12-14 10:07:00 -->
      <g style="fill:#262626;" transform="translate(248.888218328 370.646875)scale(0.1 -0.1)">
       <use xlink:href="#LiberationSans-32"/>
       <use x="55.615234375" xlink:href="#LiberationSans-30"/>
       <use x="111.23046875" xlink:href="#LiberationSans-31"/>
       <use x="166.845703125" xlink:href="#LiberationSans-35"/>
       <use x="222.4609375" xlink:href="#LiberationSans-2d"/>
       <use x="255.76171875" xlink:href="#LiberationSans-31"/>
       <use x="311.376953125" xlink:href="#LiberationSans-32"/>
       <use x="366.9921875" xlink:href="#LiberationSans-2d"/>
       <use x="400.29296875" xlink:href="#LiberationSans-31"/>
       <use x="455.908203125" xlink:href="#LiberationSans-34"/>
       <use x="511.5234375" xlink:href="#LiberationSans-20"/>
       <use x="539.306640625" xlink:href="#LiberationSans-31"/>
       <use x="594.921875" xlink:href="#LiberationSans-30"/>
       <use x="650.537109375" xlink:href="#LiberationSans-3a"/>
       <use x="678.3203125" xlink:href="#LiberationSans-30"/>
       <use x="733.935546875" xlink:href="#LiberationSans-37"/>
       <use x="789.55078125" xlink:href="#LiberationSans-3a"/>
       <use x="817.333984375" xlink:href="#LiberationSans-30"/>
       <use x="872.94921875" xlink:href="#LiberationSans-30"/>
      </g>
     </g>
    </g>
    <g id="xtick_4">
     <g id="line2d_10">
      <path clip-path="url(#p6b482b048d)" d="M 406.967484 356.4 
L 406.967484 39.6 
" style="fill:none;stroke:#ffffff;stroke-linecap:round;"/>
     </g>
     <g id="line2d_11"/>
     <g id="line2d_12"/>
     <g id="text_4">
      <!-- 2015-12-16 13:42:00 -->
      <defs>
       <path d="M 51.21875 19 
Q 51.21875 14.265625 49.671875 10.546875 
Q 48.140625 6.84375 45.1875 4.265625 
Q 42.234375 1.703125 37.859375 0.359375 
Q 33.5 -0.984375 27.875 -0.984375 
Q 21.484375 -0.984375 17.109375 0.609375 
Q 12.75 2.203125 9.90625 4.8125 
Q 7.078125 7.421875 5.65625 10.765625 
Q 4.25 14.109375 3.8125 17.671875 
L 12.890625 18.5 
Q 13.28125 15.765625 14.328125 13.515625 
Q 15.375 11.28125 17.1875 9.671875 
Q 19 8.0625 21.625 7.171875 
Q 24.265625 6.296875 27.875 6.296875 
Q 34.515625 6.296875 38.296875 9.5625 
Q 42.09375 12.84375 42.09375 19.28125 
Q 42.09375 23.09375 40.40625 25.40625 
Q 38.71875 27.734375 36.203125 29.03125 
Q 33.6875 30.328125 30.734375 30.765625 
Q 27.78125 31.203125 25.296875 31.203125 
L 20.3125 31.203125 
L 20.3125 38.8125 
L 25.09375 38.8125 
Q 27.59375 38.8125 30.265625 39.328125 
Q 32.953125 39.84375 35.171875 41.1875 
Q 37.40625 42.53125 38.84375 44.828125 
Q 40.28125 47.125 40.28125 50.6875 
Q 40.28125 56.203125 37.03125 59.390625 
Q 33.796875 62.59375 27.390625 62.59375 
Q 21.578125 62.59375 17.984375 59.609375 
Q 14.40625 56.640625 13.8125 51.21875 
L 4.984375 51.90625 
Q 5.515625 56.453125 7.46875 59.8125 
Q 9.421875 63.1875 12.421875 65.40625 
Q 15.4375 67.625 19.28125 68.71875 
Q 23.140625 69.828125 27.484375 69.828125 
Q 33.25 69.828125 37.390625 68.375 
Q 41.546875 66.9375 44.1875 64.46875 
Q 46.828125 62.015625 48.0625 58.6875 
Q 49.3125 55.375 49.3125 51.609375 
Q 49.3125 48.578125 48.484375 45.9375 
Q 47.65625 43.3125 45.890625 41.203125 
Q 44.140625 39.109375 41.421875 37.59375 
Q 38.71875 36.078125 34.90625 35.296875 
L 34.90625 35.109375 
Q 39.0625 34.671875 42.140625 33.21875 
Q 45.21875 31.78125 47.21875 29.625 
Q 49.21875 27.484375 50.21875 24.75 
Q 51.21875 22.015625 51.21875 19 
" id="LiberationSans-33"/>
       <path d="M 51.21875 22.515625 
Q 51.21875 17.328125 49.78125 13 
Q 48.34375 8.6875 45.53125 5.578125 
Q 42.71875 2.484375 38.5625 0.75 
Q 34.421875 -0.984375 29 -0.984375 
Q 23 -0.984375 18.5 1.3125 
Q 14.015625 3.609375 11.03125 7.921875 
Q 8.0625 12.25 6.5625 18.53125 
Q 5.078125 24.8125 5.078125 32.8125 
Q 5.078125 42 6.765625 48.921875 
Q 8.453125 55.859375 11.625 60.5 
Q 14.796875 65.140625 19.359375 67.484375 
Q 23.921875 69.828125 29.6875 69.828125 
Q 33.203125 69.828125 36.28125 69.09375 
Q 39.359375 68.359375 41.875 66.71875 
Q 44.390625 65.09375 46.28125 62.40625 
Q 48.1875 59.71875 49.3125 55.8125 
L 40.921875 54.296875 
Q 39.546875 58.734375 36.546875 60.71875 
Q 33.546875 62.703125 29.59375 62.703125 
Q 25.984375 62.703125 23.046875 60.984375 
Q 20.125 59.28125 18.0625 55.875 
Q 16.015625 52.484375 14.90625 47.359375 
Q 13.8125 42.234375 13.8125 35.40625 
Q 16.21875 39.84375 20.5625 42.15625 
Q 24.90625 44.484375 30.515625 44.484375 
Q 35.203125 44.484375 39.015625 42.96875 
Q 42.828125 41.453125 45.53125 38.59375 
Q 48.25 35.75 49.734375 31.671875 
Q 51.21875 27.59375 51.21875 22.515625 
M 42.28125 22.125 
Q 42.28125 25.6875 41.40625 28.5625 
Q 40.53125 31.453125 38.765625 33.46875 
Q 37.015625 35.5 34.421875 36.59375 
Q 31.84375 37.703125 28.421875 37.703125 
Q 26.03125 37.703125 23.578125 36.984375 
Q 21.140625 36.28125 19.15625 34.6875 
Q 17.1875 33.109375 15.9375 30.515625 
Q 14.703125 27.9375 14.703125 24.21875 
Q 14.703125 20.40625 15.671875 17.109375 
Q 16.65625 13.8125 18.484375 11.375 
Q 20.3125 8.9375 22.890625 7.515625 
Q 25.484375 6.109375 28.71875 6.109375 
Q 31.890625 6.109375 34.40625 7.203125 
Q 36.921875 8.296875 38.671875 10.375 
Q 40.4375 12.453125 41.359375 15.421875 
Q 42.28125 18.40625 42.28125 22.125 
" id="LiberationSans-36"/>
      </defs>
      <g style="fill:#262626;" transform="translate(360.544046242 370.646875)scale(0.1 -0.1)">
       <use xlink:href="#LiberationSans-32"/>
       <use x="55.615234375" xlink:href="#LiberationSans-30"/>
       <use x="111.23046875" xlink:href="#LiberationSans-31"/>
       <use x="166.845703125" xlink:href="#LiberationSans-35"/>
       <use x="222.4609375" xlink:href="#LiberationSans-2d"/>
       <use x="255.76171875" xlink:href="#LiberationSans-31"/>
       <use x="311.376953125" xlink:href="#LiberationSans-32"/>
       <use x="366.9921875" xlink:href="#LiberationSans-2d"/>
       <use x="400.29296875" xlink:href="#LiberationSans-31"/>
       <use x="455.908203125" xlink:href="#LiberationSans-36"/>
       <use x="511.5234375" xlink:href="#LiberationSans-20"/>
       <use x="539.306640625" xlink:href="#LiberationSans-31"/>
       <use x="594.921875" xlink:href="#LiberationSans-33"/>
       <use x="650.537109375" xlink:href="#LiberationSans-3a"/>
       <use x="678.3203125" xlink:href="#LiberationSans-34"/>
       <use x="733.935546875" xlink:href="#LiberationSans-32"/>
       <use x="789.55078125" xlink:href="#LiberationSans-3a"/>
       <use x="817.333984375" xlink:href="#LiberationSans-30"/>
       <use x="872.94921875" xlink:href="#LiberationSans-30"/>
      </g>
     </g>
    </g>
    <g id="text_5">
     <!-- time -->
     <defs>
      <path d="M 13.484375 24.5625 
Q 13.484375 20.40625 14.328125 16.90625 
Q 15.1875 13.421875 16.96875 10.90625 
Q 18.75 8.40625 21.53125 7 
Q 24.3125 5.609375 28.21875 5.609375 
Q 33.9375 5.609375 37.375 7.90625 
Q 40.828125 10.203125 42.046875 13.71875 
L 49.75 11.53125 
Q 48.921875 9.328125 47.4375 7.109375 
Q 45.953125 4.890625 43.453125 3.09375 
Q 40.96875 1.3125 37.234375 0.15625 
Q 33.5 -0.984375 28.21875 -0.984375 
Q 16.5 -0.984375 10.375 6 
Q 4.25 12.984375 4.25 26.765625 
Q 4.25 34.1875 6.09375 39.328125 
Q 7.953125 44.484375 11.171875 47.703125 
Q 14.40625 50.921875 18.703125 52.359375 
Q 23 53.8125 27.875 53.8125 
Q 34.515625 53.8125 38.984375 51.65625 
Q 43.453125 49.515625 46.15625 45.71875 
Q 48.875 41.9375 50.015625 36.8125 
Q 51.171875 31.6875 51.171875 25.734375 
L 51.171875 24.5625 
z
M 42.09375 31.296875 
Q 41.359375 39.65625 37.84375 43.484375 
Q 34.328125 47.3125 27.734375 47.3125 
Q 25.53125 47.3125 23.109375 46.609375 
Q 20.703125 45.90625 18.65625 44.09375 
Q 16.609375 42.28125 15.1875 39.171875 
Q 13.765625 36.078125 13.578125 31.296875 
z
" id="LiberationSans-65"/>
      <path d="M 6.6875 64.0625 
L 6.6875 72.46875 
L 15.484375 72.46875 
L 15.484375 64.0625 
z
M 6.6875 0 
L 6.6875 52.828125 
L 15.484375 52.828125 
L 15.484375 0 
z
" id="LiberationSans-69"/>
      <path d="M 27.046875 0.390625 
Q 25.046875 -0.140625 22.96875 -0.453125 
Q 20.90625 -0.78125 18.171875 -0.78125 
Q 7.625 -0.78125 7.625 11.1875 
L 7.625 46.4375 
L 1.515625 46.4375 
L 1.515625 52.828125 
L 7.953125 52.828125 
L 10.546875 64.65625 
L 16.40625 64.65625 
L 16.40625 52.828125 
L 26.171875 52.828125 
L 26.171875 46.4375 
L 16.40625 46.4375 
L 16.40625 13.09375 
Q 16.40625 9.28125 17.640625 7.734375 
Q 18.890625 6.203125 21.96875 6.203125 
Q 23.25 6.203125 24.4375 6.390625 
Q 25.640625 6.59375 27.046875 6.890625 
z
" id="LiberationSans-74"/>
      <path d="M 37.5 0 
L 37.5 33.5 
Q 37.5 37.359375 37.015625 39.9375 
Q 36.53125 42.53125 35.375 44.109375 
Q 34.234375 45.703125 32.375 46.359375 
Q 30.515625 47.015625 27.828125 47.015625 
Q 25.046875 47.015625 22.796875 45.921875 
Q 20.5625 44.828125 18.96875 42.75 
Q 17.390625 40.671875 16.53125 37.625 
Q 15.671875 34.578125 15.671875 30.609375 
L 15.671875 0 
L 6.9375 0 
L 6.9375 41.546875 
Q 6.9375 43.21875 6.90625 45.046875 
Q 6.890625 46.875 6.828125 48.5 
Q 6.78125 50.140625 6.734375 51.3125 
Q 6.6875 52.484375 6.640625 52.828125 
L 14.9375 52.828125 
Q 14.984375 52.59375 15.03125 51.515625 
Q 15.09375 50.4375 15.15625 49.046875 
Q 15.234375 47.65625 15.28125 46.21875 
Q 15.328125 44.78125 15.328125 43.796875 
L 15.484375 43.796875 
Q 16.65625 46.09375 18.015625 47.953125 
Q 19.390625 49.8125 21.21875 51.09375 
Q 23.046875 52.390625 25.40625 53.09375 
Q 27.78125 53.8125 30.90625 53.8125 
Q 36.921875 53.8125 40.40625 51.421875 
Q 43.890625 49.03125 45.265625 43.796875 
L 45.40625 43.796875 
Q 46.578125 46.09375 48.046875 47.953125 
Q 49.515625 49.8125 51.46875 51.09375 
Q 53.421875 52.390625 55.859375 53.09375 
Q 58.296875 53.8125 61.421875 53.8125 
Q 65.4375 53.8125 68.328125 52.734375 
Q 71.234375 51.65625 73.09375 49.40625 
Q 74.953125 47.171875 75.828125 43.625 
Q 76.703125 40.09375 76.703125 35.203125 
L 76.703125 0 
L 68.015625 0 
L 68.015625 33.5 
Q 68.015625 37.359375 67.53125 39.9375 
Q 67.046875 42.53125 65.890625 44.109375 
Q 64.75 45.703125 62.890625 46.359375 
Q 61.03125 47.015625 58.34375 47.015625 
Q 55.5625 47.015625 53.3125 45.96875 
Q 51.078125 44.921875 49.484375 42.875 
Q 47.90625 40.828125 47.046875 37.75 
Q 46.1875 34.671875 46.1875 30.609375 
L 46.1875 0 
z
" id="LiberationSans-6d"/>
     </defs>
     <g style="fill:#262626;" transform="translate(284.81015625 385.6934375)scale(0.11 -0.11)">
      <use xlink:href="#LiberationSans-74"/>
      <use x="27.783203125" xlink:href="#LiberationSans-69"/>
      <use x="50.0" xlink:href="#LiberationSans-6d"/>
      <use x="133.30078125" xlink:href="#LiberationSans-65"/>
     </g>
    </g>
   </g>
   <g id="matplotlib.axis_2">
    <g id="ytick_1">
     <g id="line2d_13">
      <path clip-path="url(#p6b482b048d)" d="M 72 356.4 
L 518.4 356.4 
" style="fill:none;stroke:#ffffff;stroke-linecap:round;"/>
     </g>
     <g id="line2d_14"/>
     <g id="line2d_15"/>
     <g id="text_6">
      <!-- 790 -->
      <g style="fill:#262626;" transform="translate(48.3171875 358.9859375)scale(0.1 -0.1)">
       <use xlink:href="#LiberationSans-37"/>
       <use x="55.615234375" xlink:href="#LiberationSans-39"/>
       <use x="111.23046875" xlink:href="#LiberationSans-30"/>
      </g>
     </g>
    </g>
    <g id="ytick_2">
     <g id="line2d_16">
      <path clip-path="url(#p6b482b048d)" d="M 72 316.8 
L 518.4 316.8 
" style="fill:none;stroke:#ffffff;stroke-linecap:round;"/>
     </g>
     <g id="line2d_17"/>
     <g id="line2d_18"/>
     <g id="text_7">
      <!-- 795 -->
      <g style="fill:#262626;" transform="translate(48.3171875 319.3859375)scale(0.1 -0.1)">
       <use xlink:href="#LiberationSans-37"/>
       <use x="55.615234375" xlink:href="#LiberationSans-39"/>
       <use x="111.23046875" xlink:href="#LiberationSans-35"/>
      </g>
     </g>
    </g>
    <g id="ytick_3">
     <g id="line2d_19">
      <path clip-path="url(#p6b482b048d)" d="M 72 277.2 
L 518.4 277.2 
" style="fill:none;stroke:#ffffff;stroke-linecap:round;"/>
     </g>
     <g id="line2d_20"/>
     <g id="line2d_21"/>
     <g id="text_8">
      <!-- 800 -->
      <g style="fill:#262626;" transform="translate(48.3171875 279.7859375)scale(0.1 -0.1)">
       <use xlink:href="#LiberationSans-38"/>
       <use x="55.615234375" xlink:href="#LiberationSans-30"/>
       <use x="111.23046875" xlink:href="#LiberationSans-30"/>
      </g>
     </g>
    </g>
    <g id="ytick_4">
     <g id="line2d_22">
      <path clip-path="url(#p6b482b048d)" d="M 72 237.6 
L 518.4 237.6 
" style="fill:none;stroke:#ffffff;stroke-linecap:round;"/>
     </g>
     <g id="line2d_23"/>
     <g id="line2d_24"/>
     <g id="text_9">
      <!-- 805 -->
      <g style="fill:#262626;" transform="translate(48.3171875 240.1859375)scale(0.1 -0.1)">
       <use xlink:href="#LiberationSans-38"/>
       <use x="55.615234375" xlink:href="#LiberationSans-30"/>
       <use x="111.23046875" xlink:href="#LiberationSans-35"/>
      </g>
     </g>
    </g>
    <g id="ytick_5">
     <g id="line2d_25">
      <path clip-path="url(#p6b482b048d)" d="M 72 198 
L 518.4 198 
" style="fill:none;stroke:#ffffff;stroke-linecap:round;"/>
     </g>
     <g id="line2d_26"/>
     <g id="line2d_27"/>
     <g id="text_10">
      <!-- 810 -->
      <g style="fill:#262626;" transform="translate(48.3171875 200.5859375)scale(0.1 -0.1)">
       <use xlink:href="#LiberationSans-38"/>
       <use x="55.615234375" xlink:href="#LiberationSans-31"/>
       <use x="111.23046875" xlink:href="#LiberationSans-30"/>
      </g>
     </g>
    </g>
    <g id="ytick_6">
     <g id="line2d_28">
      <path clip-path="url(#p6b482b048d)" d="M 72 158.4 
L 518.4 158.4 
" style="fill:none;stroke:#ffffff;stroke-linecap:round;"/>
     </g>
     <g id="line2d_29"/>
     <g id="line2d_30"/>
     <g id="text_11">
      <!-- 815 -->
      <g style="fill:#262626;" transform="translate(48.3171875 160.9859375)scale(0.1 -0.1)">
       <use xlink:href="#LiberationSans-38"/>
       <use x="55.615234375" xlink:href="#LiberationSans-31"/>
       <use x="111.23046875" xlink:href="#LiberationSans-35"/>
      </g>
     </g>
    </g>
    <g id="ytick_7">
     <g id="line2d_31">
      <path clip-path="url(#p6b482b048d)" d="M 72 118.8 
L 518.4 118.8 
" style="fill:none;stroke:#ffffff;stroke-linecap:round;"/>
     </g>
     <g id="line2d_32"/>
     <g id="line2d_33"/>
     <g id="text_12">
      <!-- 820 -->
      <g style="fill:#262626;" transform="translate(48.3171875 121.3859375)scale(0.1 -0.1)">
       <use xlink:href="#LiberationSans-38"/>
       <use x="55.615234375" xlink:href="#LiberationSans-32"/>
       <use x="111.23046875" xlink:href="#LiberationSans-30"/>
      </g>
     </g>
    </g>
    <g id="ytick_8">
     <g id="line2d_34">
      <path clip-path="url(#p6b482b048d)" d="M 72 79.2 
L 518.4 79.2 
" style="fill:none;stroke:#ffffff;stroke-linecap:round;"/>
     </g>
     <g id="line2d_35"/>
     <g id="line2d_36"/>
     <g id="text_13">
      <!-- 825 -->
      <g style="fill:#262626;" transform="translate(48.3171875 81.7859375)scale(0.1 -0.1)">
       <use xlink:href="#LiberationSans-38"/>
       <use x="55.615234375" xlink:href="#LiberationSans-32"/>
       <use x="111.23046875" xlink:href="#LiberationSans-35"/>
      </g>
     </g>
    </g>
    <g id="ytick_9">
     <g id="line2d_37">
      <path clip-path="url(#p6b482b048d)" d="M 72 39.6 
L 518.4 39.6 
" style="fill:none;stroke:#ffffff;stroke-linecap:round;"/>
     </g>
     <g id="line2d_38"/>
     <g id="line2d_39"/>
     <g id="text_14">
      <!-- 830 -->
      <g style="fill:#262626;" transform="translate(48.3171875 42.1859375)scale(0.1 -0.1)">
       <use xlink:href="#LiberationSans-38"/>
       <use x="55.615234375" xlink:href="#LiberationSans-33"/>
       <use x="111.23046875" xlink:href="#LiberationSans-30"/>
      </g>
     </g>
    </g>
   </g>
   <g id="line2d_40">
    <path clip-path="url(#p6b482b048d)" d="M 72 217.708713 
L 72.223312 212.941447 
L 72.446623 200.170168 
L 72.669935 202.685182 
L 72.893247 210.25525 
L 73.116558 207.177173 
L 73.786493 223.589592 
L 74.009805 228.344346 
L 74.456428 231.147148 
L 74.903052 216.974467 
L 75.126363 218.651144 
L 75.349675 215.860854 
L 75.796298 207.00599 
L 76.01961 203.640125 
L 76.242921 214.171665 
L 76.912856 183.757748 
L 77.136168 187.111101 
L 77.35948 193.163162 
L 77.582791 190.648148 
L 77.806103 189.522022 
L 78.029415 183.757748 
L 78.252726 183.757748 
L 78.476038 158.52787 
L 78.69935 159.812666 
L 78.922661 137.911247 
L 79.145973 135.658996 
L 79.369285 136.785122 
L 79.592596 147.041386 
L 79.815908 148.050907 
L 80.03922 129.644339 
L 80.262531 131.216923 
L 80.485843 135.984189 
L 80.932466 125.556741 
L 81.155778 132.447141 
L 81.37909 116.701877 
L 81.602401 125.556741 
L 81.825713 129.485669 
L 82.049025 140.738942 
L 82.272336 144.943145 
L 82.495648 153.877209 
L 82.718959 153.314146 
L 82.942271 148.021222 
L 83.165583 161.318159 
L 83.388894 161.881222 
L 83.612206 151.95015 
L 83.835518 154.715547 
L 84.058829 143.817019 
L 84.282141 169.860343 
L 84.728764 160.338324 
L 84.952076 162.63264 
L 85.175388 160.338324 
L 85.398699 165.827323 
L 85.622011 163.979464 
L 85.845323 153.056043 
L 86.068634 160.338324 
L 86.291946 144.685042 
L 86.515258 148.601458 
L 86.738569 139.079438 
L 86.961881 149.127115 
L 87.185193 147.200057 
L 87.408504 153.056043 
L 87.631816 147.200057 
L 87.855128 155.858845 
L 88.301751 135.267115 
L 88.748374 151.967323 
L 88.971686 151.520865 
L 89.194997 145.193528 
L 89.864932 162.32768 
L 90.088244 162.890743 
L 90.311556 147.433267 
L 90.534867 146.619821 
L 90.758179 168.888227 
L 90.981491 166.477306 
L 91.204802 169.004832 
L 91.428114 168.888227 
L 91.651426 168.60044 
L 91.874737 159.758088 
L 92.098049 145.898088 
L 92.321361 151.662362 
L 92.544672 144.771962 
L 92.767984 151.0993 
L 93.437919 137.097802 
L 93.661231 128.242938 
L 93.884542 124.889585 
L 94.107854 117.711398 
L 94.331166 125.556741 
L 94.554477 122.753939 
L 94.777789 124.443128 
L 95.001101 139.625329 
L 95.447724 123.99667 
L 95.894347 137.77747 
L 96.117659 148.584285 
L 96.34097 153.026358 
L 96.564282 260.595743 
L 96.787594 251.061212 
L 97.010905 252.462613 
L 97.234217 245.86 
L 97.457529 248.546197 
L 97.68084 248.821472 
L 97.904152 233.981637 
L 98.127464 238.18584 
L 98.350775 235.211855 
L 98.574087 222.440576 
L 98.797399 223.866869 
L 99.02071 220.513517 
L 99.244022 210.54504 
L 99.467334 215.470976 
L 99.690645 216.138131 
L 99.913957 220.788792 
L 100.137269 231.68732 
L 100.36058 230.836469 
L 100.583892 241.655797 
L 100.807204 241.655797 
L 101.030515 249.830993 
L 101.477139 231.741897 
L 101.70045 237.334989 
L 101.923762 236.667834 
L 102.147074 244.788452 
L 102.370385 247.028191 
L 102.593697 245.07624 
L 102.817009 248.429592 
L 103.04032 231.399532 
L 103.263632 238.852995 
L 103.486943 242.494135 
L 103.710255 242.769411 
L 103.933567 242.769411 
L 104.156878 252.633795 
L 104.38019 256.550211 
L 104.603502 264.370661 
L 104.826813 256.274935 
L 105.050125 258.201994 
L 105.273437 245.62679 
L 105.72006 240.033698 
L 105.943372 239.587241 
L 106.166683 246.189853 
L 106.389995 258.201994 
L 106.613307 259.040332 
L 106.836618 270.01833 
L 107.506553 247.841637 
L 107.729865 256.855171 
L 107.953177 243.520828 
L 108.176488 242.799095 
L 108.3998 250.803109 
L 108.623112 246.32363 
L 108.846423 244.763559 
L 109.069735 232.46363 
L 109.293047 237.230896 
L 109.516358 234.256912 
L 109.73967 233.143298 
L 109.962981 241.4351 
L 110.186293 219.826129 
L 110.409605 218.424728 
L 110.632916 215.058863 
L 110.856228 206.975649 
L 111.07954 204.840003 
L 111.302851 214.25793 
L 111.526163 216.222394 
L 111.749475 207.642805 
L 111.972786 207.642805 
L 112.196098 207.36753 
L 112.41941 206.529192 
L 112.642721 197.790933 
L 112.866033 201.315468 
L 113.089345 200.305947 
L 113.312656 195.300811 
L 113.535968 194.712856 
L 113.75928 190.821333 
L 113.982591 183.092595 
L 114.429215 203.279932 
L 114.652526 188.293806 
L 115.09915 205.244396 
L 115.322461 197.674328 
L 115.545773 185.178324 
L 115.769085 179.297444 
L 116.215708 199.351004 
L 116.43902 180.173188 
L 116.662331 179.897912 
L 116.885643 170.596591 
L 117.108954 192.773284 
L 117.332266 179.843335 
L 117.778889 199.333831 
L 118.002201 195.129628 
L 118.225513 196.255754 
L 118.448824 191.213213 
L 118.672136 194.683171 
L 118.895448 182.750229 
L 119.118759 185.436426 
L 119.342071 184.598088 
L 119.565383 183.196687 
L 119.788694 169.624475 
L 120.012006 170.579418 
L 120.235318 190.03251 
L 120.681941 204.651648 
L 120.905253 193.844833 
L 121.128564 191.880369 
L 121.351876 178.858707 
L 121.798499 191.04203 
L 122.021811 187.125615 
L 122.245123 190.65015 
L 122.468434 186.837827 
L 122.691746 185.161151 
L 123.138369 179.947427 
L 123.361681 169.89975 
L 123.584992 200.993335 
L 123.808304 213.739722 
L 124.031616 217.656137 
L 124.254927 212.338321 
L 124.478239 214.290272 
L 124.701551 213.843815 
L 125.148174 195.333154 
L 125.371486 204.634475 
L 125.594797 188.613936 
L 125.818109 203.233074 
L 126.041421 192.989322 
L 126.264732 192.989322 
L 126.488044 196.789132 
L 126.711356 207.68766 
L 126.934667 198.478321 
L 127.157979 203.233074 
L 127.381291 200.154997 
L 127.604602 191.196041 
L 127.827914 193.398375 
L 128.051226 183.350697 
L 128.274537 181.386234 
L 128.497849 185.277756 
L 128.721161 180.547895 
L 128.944472 183.313292 
L 129.167784 169.453292 
L 129.391096 173.503485 
L 129.614407 181.348828 
L 129.837719 184.989969 
L 130.284342 166.784268 
L 130.507654 182.646137 
L 130.730965 178.270751 
L 130.954277 183.75975 
L 131.177589 172.977827 
L 131.4009 175.780629 
L 131.624212 184.15163 
L 131.847524 183.038017 
L 132.070835 188.802291 
L 132.294147 185.436426 
L 132.517459 197.657155 
L 132.74077 196.255754 
L 133.187394 180.565068 
L 133.410705 189.132144 
L 133.634017 180.73625 
L 133.857329 186.054067 
L 134.08064 177.486991 
L 134.303952 196.101744 
L 134.527264 200.593735 
L 134.750575 190.821333 
L 134.973887 198.066208 
L 135.197199 192.222734 
L 135.42051 183.251265 
L 135.643822 183.501647 
L 135.867134 181.261908 
L 136.090445 188.544189 
L 136.313757 186.304449 
L 136.537069 197.399052 
L 136.76038 191.910053 
L 136.983692 198.066208 
L 137.207004 198.904546 
L 137.430315 207.36753 
L 137.653627 200.201855 
L 137.876938 198.066208 
L 138.10025 205.911551 
L 138.323562 206.474614 
L 138.546873 205.348488 
L 138.770185 215.316966 
L 138.993497 203.108749 
L 139.216808 203.396537 
L 139.44012 201.144285 
L 139.663432 211.963613 
L 139.886743 200.201855 
L 140.110055 197.790933 
L 140.333367 204.289452 
L 140.556678 190.95511 
L 140.77999 199.809974 
L 141.226613 194.308463 
L 141.449925 185.741386 
L 141.673237 187.981126 
L 142.11986 215.096268 
L 142.343172 212.581253 
L 142.566483 214.533205 
L 142.789795 204.956608 
L 143.013107 203.108749 
L 143.45973 190.374875 
L 143.683042 197.369368 
L 143.906353 129.487671 
L 144.129665 119.072736 
L 144.352976 125.504166 
L 144.7996 110.413947 
L 145.022911 110.255277 
L 145.246223 107.164687 
L 145.469535 123.264426 
L 145.692846 118.25929 
L 145.916158 125.791953 
L 146.362781 127.468629 
L 146.586093 120.749412 
L 146.809405 132.682353 
L 147.032716 129.604276 
L 147.256028 128.47815 
L 147.47934 120.474137 
L 147.702651 120.474137 
L 147.925963 127.468629 
L 148.149275 155.092257 
L 148.595898 147.914069 
L 148.81921 159.45513 
L 149.042521 156.940116 
L 149.265833 164.944129 
L 149.489145 156.377053 
L 149.712456 155.538715 
L 150.15908 145.570238 
L 150.382391 155.26344 
L 150.605703 155.709897 
L 150.829015 155.538715 
L 151.052326 154.975652 
L 151.275638 150.771449 
L 151.498949 154.871559 
L 151.722261 145.453633 
L 151.945573 156.235555 
L 152.168884 150.379569 
L 152.392196 152.306627 
L 152.615508 155.397217 
L 153.062131 156.798618 
L 153.285443 155.985173 
L 153.508754 157.349169 
L 153.732066 152.344033 
L 154.178689 174.612439 
L 154.402001 166.03285 
L 154.625313 168.835652 
L 154.848624 159.901588 
L 155.071936 162.992178 
L 155.295248 161.590777 
L 155.741871 180.493318 
L 155.965183 185.694529 
L 156.188494 193.98633 
L 156.411806 187.946781 
L 156.635118 185.865712 
L 156.858429 186.991838 
L 157.081741 200.0135 
L 157.528364 191.880369 
L 157.751676 197.210697 
L 157.974987 197.761248 
L 158.198299 195.075051 
L 158.421611 195.362839 
L 158.644922 202.920394 
L 158.868234 204.04652 
L 159.538169 210.490462 
L 159.761481 200.993335 
L 159.984792 199.316659 
L 160.208104 205.197538 
L 160.431416 193.264597 
L 160.654727 200.546878 
L 160.878039 196.171492 
L 161.101351 208.838679 
L 161.324662 207.437278 
L 161.547974 198.307138 
L 161.771286 210.24008 
L 161.994597 193.381202 
L 162.217909 207.266095 
L 162.664532 203.061892 
L 162.887844 206.035876 
L 163.111156 207.162002 
L 163.334467 201.385216 
L 163.557779 220.012482 
L 164.004402 222.698679 
L 164.451026 205.760601 
L 164.897649 215.245216 
L 165.12096 208.563403 
L 165.344272 208.563403 
L 165.790895 221.86034 
L 166.014207 211.879351 
L 166.237519 216.371341 
L 166.46083 215.245216 
L 166.684142 212.479819 
L 166.907454 213.434762 
L 167.130765 225.367703 
L 167.354077 225.930766 
L 167.577389 230.372839 
L 167.8007 220.600437 
L 168.247324 233.175641 
L 168.470635 231.248582 
L 168.693947 227.044379 
L 168.917259 236.816781 
L 169.14057 227.319655 
L 169.363882 239.093926 
L 169.587194 235.452785 
L 169.810505 240.182646 
L 170.033817 217.467782 
L 170.257129 216.066381 
L 170.48044 192.872717 
L 170.703752 191.024858 
L 170.927064 183.45479 
L 171.150375 187.658993 
L 171.373687 185.419254 
L 171.596998 189.335669 
L 171.82031 185.982317 
L 172.043622 205.160133 
L 172.490245 179.81365 
L 172.713557 173.369708 
L 172.936868 176.735573 
L 173.16018 184.752098 
L 173.383492 174.220558 
L 173.830115 184.464311 
L 174.053427 184.464311 
L 174.276738 186.116094 
L 174.50005 186.116094 
L 174.723362 196.084572 
L 174.946673 191.329818 
L 175.169985 189.640629 
L 175.393297 178.833814 
L 175.616608 182.187167 
L 175.83992 192.718707 
L 176.063232 188.239228 
L 176.286543 186.116094 
L 176.509855 192.443431 
L 176.733167 183.876355 
L 177.17979 191.880369 
L 177.403102 183.588568 
L 177.626413 186.679157 
L 177.849725 193.961438 
L 178.073037 186.1535 
L 178.296348 188.393239 
L 178.51966 196.76424 
L 178.742971 191.196041 
L 179.189595 193.711055 
L 179.412906 195.112456 
L 179.636218 185.982317 
L 179.85953 192.835312 
L 180.082841 181.386234 
L 180.306153 179.42177 
L 180.529465 174.942291 
L 180.752776 183.350697 
L 180.976088 184.15163 
L 181.1994 187.229708 
L 181.422711 181.636616 
L 181.646023 185.553031 
L 181.869335 178.546026 
L 182.092646 186.679157 
L 182.315958 183.350697 
L 182.53927 186.954433 
L 182.762581 204.20519 
L 182.985893 195.638114 
L 183.209205 204.768253 
L 183.432516 202.528514 
L 184.102451 217.147652 
L 184.325763 214.461455 
L 184.549075 217.710715 
L 184.772386 213.335329 
L 184.995698 213.176659 
L 185.21901 214.57806 
L 185.442321 217.82732 
L 185.665633 211.48747 
L 185.888944 225.556058 
L 186.112256 231.399532 
L 186.335568 241.209339 
L 186.558879 220.342334 
L 187.005503 233.363996 
L 187.228814 234.202334 
L 187.452126 226.957459 
L 187.675438 233.088721 
L 188.345373 211.946441 
L 188.568684 213.623117 
L 188.791996 198.165641 
L 189.015308 203.929915 
L 189.238619 204.768253 
L 189.461931 207.571055 
L 189.685243 214.73673 
L 190.131866 204.492978 
L 190.355178 208.409393 
L 190.578489 262.73605 
L 190.801801 238.870168 
L 191.025113 253.605911 
L 191.248424 245.31411 
L 191.471736 251.482777 
L 191.695048 253.159453 
L 191.918359 252.04584 
L 192.141671 254.836129 
L 192.364982 302.066859 
L 192.811606 289.570855 
L 193.034917 303.46826 
L 193.258229 294.784578 
L 193.481541 278.647434 
L 193.704852 281.174961 
L 193.928164 287.618903 
L 194.151476 290.580375 
L 194.374787 285.262559 
L 194.598099 287.673481 
L 195.044722 275.177476 
L 195.491346 270.25154 
L 195.937969 280.336623 
L 196.161281 275.882037 
L 196.384592 282.601255 
L 196.607904 270.509643 
L 196.831216 271.623257 
L 197.054527 287.485126 
L 197.277839 272.865987 
L 197.501151 270.938929 
L 197.724462 261.796277 
L 197.947774 265.045537 
L 198.171086 277.620741 
L 198.394397 274.817939 
L 198.617709 279.022142 
L 199.287644 302.716842 
L 199.510955 300.343325 
L 199.734267 300.06805 
L 199.957579 287.296771 
L 200.18089 290.54603 
L 200.404202 296.702185 
L 200.627514 280.681646 
L 201.074137 303.984465 
L 201.297449 294.462446 
L 201.744072 290.258243 
L 201.967384 290.821306 
L 202.190695 289.945562 
L 202.414007 291.384369 
L 202.86063 284.665151 
L 203.083942 281.574561 
L 203.307254 293.586703 
L 203.530565 281.574561 
L 203.753877 288.581567 
L 203.977189 285.778764 
L 204.2005 279.059547 
L 204.423812 289.3825 
L 204.647124 275.98147 
L 204.870435 287.589218 
L 205.317059 293.586703 
L 205.54037 293.87449 
L 205.763682 289.982968 
L 205.986993 289.945562 
L 206.210305 282.137624 
L 206.433617 281.824944 
L 206.656928 282.388007 
L 206.88024 278.183804 
L 207.103552 277.057678 
L 207.326863 278.459079 
L 207.773487 271.489479 
L 207.996798 267.297789 
L 208.22011 258.326319 
L 208.443422 268.93706 
L 208.666733 264.494986 
L 208.890045 264.494986 
L 209.113357 265.896387 
L 209.336668 269.224847 
L 209.55998 265.858982 
L 209.783292 273.979601 
L 210.006603 267.535659 
L 210.229915 277.345466 
L 210.453227 275.656277 
L 210.676538 282.663282 
L 210.89985 280.698818 
L 211.123162 273.178668 
L 211.346473 278.459079 
L 211.569785 269.224847 
L 211.793097 273.141263 
L 212.016408 284.235866 
L 212.23972 277.791924 
L 212.463032 275.552184 
L 212.686343 283.280923 
L 212.909655 271.794439 
L 213.356278 271.794439 
L 213.57959 274.872516 
L 213.802901 280.361515 
L 214.026213 278.801444 
L 214.249525 285.691844 
L 214.472836 282.889042 
L 214.696148 278.513657 
L 214.91946 270.509643 
L 215.142771 269.94658 
L 215.366083 271.347981 
L 215.589395 267.143778 
L 215.812706 269.383517 
L 216.036018 273.862996 
L 216.25933 274.150783 
L 216.482641 274.150783 
L 216.705953 293.64128 
L 216.929265 300.92356 
L 217.152576 295.605744 
L 217.375888 303.297077 
L 217.5992 306.099879 
L 217.822511 312.831609 
L 218.045823 315.793081 
L 218.492446 302.458739 
L 218.715758 301.057338 
L 218.93907 291.009661 
L 219.162381 288.732516 
L 219.385693 291.823106 
L 219.609005 286.805458 
L 219.832316 285.128781 
L 220.055628 288.494646 
L 220.278939 280.753396 
L 220.502251 281.316459 
L 220.725563 285.520662 
L 220.948874 285.520662 
L 221.172186 281.996127 
L 221.395498 280.753396 
L 221.618809 285.245386 
L 221.842121 284.290443 
L 222.065433 274.480636 
L 222.288744 285.825622 
L 222.512056 274.731019 
L 222.735368 271.965622 
L 222.958679 279.77356 
L 223.181991 281.738024 
L 223.405303 297.996433 
L 223.628614 299.122559 
L 223.851926 299.293741 
L 224.075238 282.906215 
L 224.521861 270.973273 
L 224.745173 271.261061 
L 224.968484 263.807598 
L 225.191796 266.322613 
L 225.415108 276.854153 
L 225.638419 273.213013 
L 225.861731 275.177476 
L 226.085043 273.776075 
L 226.308354 274.614414 
L 226.531666 272.937737 
L 226.754977 255.161322 
L 226.978289 261.042201 
L 227.201601 261.317476 
L 227.424912 260.754414 
L 227.648224 249.776416 
L 227.871536 255.265415 
L 228.094847 263.557216 
L 228.318159 262.994153 
L 228.541471 260.479138 
L 228.764782 261.880539 
L 228.988094 255.436597 
L 229.211406 255.161322 
L 229.434717 264.921212 
L 229.658029 263.244535 
L 229.881341 272.937737 
L 230.104652 270.973273 
L 230.327964 279.552862 
L 230.551276 264.645936 
L 230.774587 261.843134 
L 230.997899 255.399192 
L 231.221211 245.038835 
L 231.444522 249.689495 
L 231.667834 248.000307 
L 232.114457 218.424728 
L 232.337769 223.504674 
L 232.561081 220.138809 
L 232.784392 224.618287 
L 233.007704 236.918216 
L 233.454327 223.742544 
L 234.124262 245.210017 
L 234.347574 232.188355 
L 234.570885 236.918216 
L 234.794197 233.301969 
L 235.017509 234.991157 
L 235.464132 240.271569 
L 235.687444 238.031829 
L 235.910755 229.948616 
L 236.134067 235.229027 
L 236.357379 250.135953 
L 236.58069 229.635936 
L 236.804002 235.516815 
L 237.027314 232.46363 
L 237.250625 226.699356 
L 237.473937 231.178835 
L 237.697249 244.788452 
L 237.92056 237.230896 
L 238.143872 234.256912 
L 238.367184 228.939095 
L 238.590495 234.991157 
L 239.037119 223.896554 
L 239.26043 226.858026 
L 239.483742 225.744413 
L 239.707054 232.15095 
L 239.930365 219.863534 
L 240.153677 229.348148 
L 240.376988 233.998809 
L 240.6003 217.469784 
L 241.046923 226.441253 
L 241.270235 217.023327 
L 241.493547 215.34665 
L 241.716858 200.806982 
L 241.94017 201.620428 
L 242.163482 210.579384 
L 242.386793 212.543848 
L 242.610105 204.448123 
L 242.833417 210.892065 
L 243.056728 211.980785 
L 243.28004 206.412586 
L 243.503352 205.298973 
L 243.726663 207.250925 
L 243.949975 214.533205 
L 244.173287 215.384056 
L 244.61991 202.888051 
L 244.843222 212.581253 
L 245.066533 209.331994 
L 245.289845 214.374535 
L 245.513157 211.571733 
L 245.736468 212.856529 
L 246.183092 197.84551 
L 246.406403 210.867172 
L 246.629715 214.116432 
L 246.853027 201.895703 
L 247.076338 202.183491 
L 247.29965 199.405581 
L 247.522961 193.249427 
L 247.746273 191.676843 
L 247.969585 191.848026 
L 248.192896 190.17135 
L 248.416208 194.087765 
L 248.63952 191.11378 
L 248.862831 198.855031 
L 249.086143 192.515181 
L 249.309455 197.282447 
L 249.532766 186.475632 
L 249.97939 208.089263 
L 250.202701 208.089263 
L 250.426013 206.137311 
L 250.649325 211.730403 
L 250.872636 200.360525 
L 251.095948 211.455128 
L 251.31926 207.092255 
L 251.542571 209.331994 
L 251.765883 198.237391 
L 251.989195 198.512666 
L 252.212506 209.882544 
L 252.435818 204.393545 
L 252.65913 210.733395 
L 253.105753 195.434589 
L 253.329065 200.360525 
L 253.552376 210.053727 
L 253.775688 205.849524 
L 253.998999 209.778451 
L 254.222311 196.444109 
L 254.445623 190.275442 
L 254.668934 193.641307 
L 254.892246 184.511168 
L 255.338869 196.444109 
L 255.562181 196.156322 
L 255.785493 198.855031 
L 256.008804 198.00418 
L 256.232116 190.667323 
L 256.455428 171.452101 
L 256.678739 171.623284 
L 256.902051 171.348008 
L 257.125363 170.50967 
L 257.348674 176.102762 
L 257.795298 155.352362 
L 258.018609 163.368888 
L 258.241921 160.003023 
L 258.465233 166.72224 
L 258.688544 162.634642 
L 258.911856 169.81283 
L 259.135168 172.615632 
L 259.358479 157.041551 
L 259.581791 159.385382 
L 259.805103 155.022509 
L 260.028414 157.262248 
L 260.251726 166.392388 
L 260.475038 166.508993 
L 260.698349 162.054407 
L 260.921661 153.762606 
L 261.144972 165.695547 
L 261.368284 160.653006 
L 261.591596 180.289793 
L 261.814907 171.710204 
L 262.038219 177.040533 
L 262.261531 175.639132 
L 262.484842 171.434929 
L 262.931466 166.95545 
L 263.154777 163.743596 
L 263.378089 184.035025 
L 263.601401 178.833814 
L 263.824712 180.51049 
L 264.048024 179.109089 
L 264.271336 182.646137 
L 264.717959 177.144625 
L 264.941271 182.646137 
L 265.164582 184.322813 
L 265.611206 196.084572 
L 265.834517 191.721698 
L 266.057829 194.236713 
L 266.281141 199.450437 
L 266.504452 191.196041 
L 266.951076 196.513857 
L 267.397699 207.712553 
L 267.621011 194.941273 
L 268.514257 220.630122 
L 268.737569 230.873874 
L 268.96088 224.429932 
L 269.184192 221.743735 
L 269.407504 217.539532 
L 269.854127 239.845343 
L 270.077439 223.261741 
L 270.30075 229.864354 
L 270.524062 243.590576 
L 270.747374 230.256234 
L 270.970685 226.902882 
L 271.193997 232.954943 
L 271.417309 220.458939 
L 271.64062 230.152141 
L 271.863932 219.620601 
L 272.310555 211.48747 
L 272.533867 210.93692 
L 272.757179 204.59707 
L 273.203802 216.976469 
L 273.427114 216.254736 
L 273.650425 207.437278 
L 273.873737 212.167138 
L 274.097049 205.447921 
L 274.32036 205.723196 
L 274.543672 201.965451 
L 274.766983 195.075051 
L 274.990295 196.084572 
L 275.213607 191.158636 
L 275.436918 193.67365 
L 275.883542 189.481959 
L 276.106853 185.828307 
L 276.330165 186.1535 
L 276.553477 182.787635 
L 276.776788 190.03251 
L 277.0001 187.830176 
L 277.223412 188.393239 
L 277.446723 200.40538 
L 277.670035 199.028871 
L 278.116658 212.050533 
L 278.33997 195.387731 
L 278.563282 196.789132 
L 279.233217 170.120448 
L 279.456528 172.084912 
L 279.903152 148.427617 
L 280.126463 167.330158 
L 280.349775 167.605434 
L 280.573087 168.168496 
L 280.796398 166.204033 
L 281.01971 156.548236 
L 281.243022 156.823511 
L 281.466333 152.344033 
L 281.689645 170.971298 
L 281.912956 176.17251 
L 282.35958 165.194512 
L 282.582891 166.871188 
L 282.806203 174.612439 
L 283.029515 175.726052 
L 283.252826 180.101438 
L 283.69945 217.060732 
L 283.922761 213.419592 
L 284.369385 202.716869 
L 284.592696 206.241404 
L 285.03932 187.142788 
L 285.262631 193.194849 
L 285.485943 184.940453 
L 285.709255 183.814328 
L 285.932566 185.215729 
L 286.155878 190.220865 
L 286.37919 192.222734 
L 286.602501 179.843335 
L 286.825813 188.018531 
L 287.049125 184.769271 
L 287.495748 195.551194 
L 287.71906 190.533545 
L 287.942371 173.674668 
L 288.165683 189.536537 
L 288.388994 194.566566 
L 288.612306 193.728227 
L 288.835618 198.220218 
L 289.058929 199.058556 
L 289.282241 197.094092 
L 289.505553 212.080218 
L 289.728864 207.876015 
L 289.952176 209.277416 
L 290.175488 205.110618 
L 290.398799 205.385893 
L 290.622111 205.073213 
L 290.845423 205.636276 
L 291.068734 208.597748 
L 291.515358 223.608767 
L 291.738669 222.770428 
L 291.961981 215.604753 
L 292.185293 224.734892 
L 292.408604 227.366512 
L 292.631916 240.137791 
L 292.855228 233.247391 
L 293.078539 237.451594 
L 293.301851 234.373517 
L 293.525163 240.137791 
L 293.748474 253.472133 
L 293.971786 245.914578 
L 294.418409 240.308974 
L 294.641721 237.622777 
L 294.865033 247.866529 
L 295.088344 250.669331 
L 295.311656 240.976129 
L 295.534967 242.940593 
L 295.758279 239.416058 
L 295.981591 252.854493 
L 296.428214 241.209339 
L 296.874837 251.061212 
L 297.768084 217.67331 
L 297.991396 221.31445 
L 298.214707 215.996634 
L 298.438019 220.200837 
L 298.661331 213.231237 
L 298.884642 219.362498 
L 299.107954 207.625633 
L 299.331266 216.834972 
L 299.554577 216.271909 
L 299.777889 224.117252 
L 300.001201 217.147652 
L 300.224512 229.998131 
L 300.447824 222.582073 
L 300.894447 188.613936 
L 301.341071 196.067399 
L 301.564382 193.093415 
L 301.787694 195.504336 
L 302.234317 202.064884 
L 302.457629 201.777096 
L 302.68094 194.611421 
L 302.904252 204.855173 
L 303.350875 168.684702 
L 303.574187 158.716225 
L 303.797499 137.402762 
L 304.02081 146.049038 
L 304.244122 148.85184 
L 304.467434 163.642161 
L 304.690745 159.162683 
L 304.914057 162.24076 
L 305.137369 170.048698 
L 305.36068 166.444963 
L 305.583992 167.283301 
L 305.807304 173.439456 
L 306.030615 176.530045 
L 306.253927 186.577723 
L 306.70055 179.883398 
L 306.923862 179.332847 
L 307.147174 192.733877 
L 307.370485 192.733877 
L 307.817109 199.740882 
L 308.04042 193.021665 
L 308.263732 193.29694 
L 308.487044 188.817462 
L 308.710355 189.092737 
L 309.156978 184.901046 
L 309.38029 169.639645 
L 309.603602 168.801307 
L 310.050225 155.858845 
L 310.273537 165.26426 
L 310.496848 154.224234 
L 310.72016 159.829838 
L 310.943472 156.751761 
L 311.166783 158.428437 
L 311.390095 165.043562 
L 311.613407 155.075085 
L 312.06003 177.931446 
L 312.506653 180.721736 
L 312.729965 187.453466 
L 313.3999 197.225868 
L 313.623212 204.666818 
L 313.846523 190.806818 
L 314.069835 196.099742 
L 314.293147 206.785292 
L 314.516458 188.512502 
L 314.73977 198.885372 
L 314.963082 195.244231 
L 315.186393 205.487984 
L 315.409705 201.283781 
L 315.633017 207.335843 
L 315.856328 207.727723 
L 316.302951 217.983988 
L 316.526263 214.618123 
L 316.749575 218.547051 
L 316.972886 217.53753 
L 317.196198 218.547051 
L 317.642821 212.886869 
L 317.866133 215.573066 
L 318.312756 224.703205 
L 318.536068 222.751254 
L 318.75938 214.342848 
L 318.982691 221.037173 
L 319.429315 225.228863 
L 319.652626 214.618123 
L 319.875938 228.344346 
L 320.09925 229.299289 
L 320.322561 236.581569 
L 320.545873 239.672159 
L 320.992496 256.922916 
L 321.43912 251.042037 
L 321.662431 250.203699 
L 322.109055 237.419907 
L 322.332366 252.15565 
L 322.555678 249.469453 
L 322.778989 260.117599 
L 323.002301 257.87786 
L 323.225613 254.236719 
L 323.448924 258.991473 
L 323.672236 251.825798 
L 323.895548 263.929921 
L 324.118859 256.476459 
L 324.342171 265.606598 
L 324.565483 265.16014 
L 324.788794 274.406884 
L 325.235418 270.306774 
L 325.682041 298.205676 
L 325.905353 277.993447 
L 326.128664 276.475441 
L 326.575288 284.596059 
L 326.798599 280.954919 
L 327.021911 298.205676 
L 327.245223 277.993447 
L 327.468534 269.059383 
L 327.915158 275.912378 
L 328.138469 285.330305 
L 328.361781 287.282256 
L 329.255028 274.798764 
L 329.701651 289.980965 
L 329.924962 294.172656 
L 330.371586 290.923396 
L 330.594897 174.070264 
L 330.818209 165.503188 
L 331.041521 174.633327 
L 331.264832 173.640979 
L 331.488144 175.317655 
L 331.711456 184.906764 
L 331.934767 175.605443 
L 332.158079 176.443781 
L 332.381391 185.849195 
L 332.604702 177.006844 
L 332.828014 185.849195 
L 333.051326 171.230057 
L 333.274637 173.469796 
L 333.497949 166.475304 
L 333.721261 168.427255 
L 333.944572 168.189385 
L 334.167884 175.158985 
L 334.391196 175.722048 
L 334.614507 172.631458 
L 334.837819 184.172519 
L 335.284442 179.417765 
L 335.507754 179.129978 
L 335.731066 172.527365 
L 335.954377 175.605443 
L 336.177689 187.538384 
L 336.401001 191.742587 
L 336.624312 192.134467 
L 336.847624 196.222065 
L 337.070935 213.894388 
L 337.294247 207.842326 
L 337.517559 216.292797 
L 337.74087 208.851847 
L 338.187494 215.179184 
L 338.410805 212.101107 
L 338.634117 201.569566 
L 338.857429 204.084581 
L 339.08074 211.538044 
L 339.304052 214.891396 
L 339.527364 223.74626 
L 339.750675 217.981986 
L 339.973987 217.981986 
L 340.197299 221.781796 
L 340.42061 211.250256 
L 340.867234 227.950463 
L 341.090545 229.914927 
L 341.313857 211.813319 
L 341.537169 216.739255 
L 341.76048 217.027043 
L 341.983792 202.291299 
L 342.207104 210.307825 
L 342.430415 212.82284 
L 342.653727 210.858376 
L 342.877039 210.020038 
L 343.10035 210.307825 
L 343.546973 201.452961 
L 343.993597 215.350366 
L 344.216908 201.569566 
L 344.44022 202.958455 
L 344.663532 205.761257 
L 344.886843 212.492987 
L 345.110155 202.799785 
L 345.333467 215.179184 
L 345.556778 216.017522 
L 345.78009 205.485982 
L 346.226713 208.288784 
L 346.450025 207.725721 
L 346.673337 202.120117 
L 346.896648 210.974981 
L 347.11996 207.162658 
L 347.343272 212.768262 
L 347.566583 207.842326 
L 347.789895 209.402397 
L 348.236518 187.813659 
L 348.45983 187.813659 
L 348.683142 190.053398 
L 348.906453 186.700046 
L 349.129765 194.704059 
L 349.353077 185.010857 
L 349.576388 197.194181 
L 349.7997 194.391379 
L 350.023012 209.848855 
L 350.246323 209.848855 
L 350.469635 216.46398 
L 350.692946 214.499516 
L 350.916258 224.167825 
L 351.13957 208.343361 
L 351.362881 230.207375 
L 351.586193 226.958115 
L 351.809505 244.355162 
L 352.032816 239.062239 
L 352.702751 283.090565 
L 352.926063 276.200165 
L 353.149375 288.579564 
L 353.595998 279.553518 
L 353.81931 290.256241 
L 354.265933 278.048024 
L 354.489245 295.549164 
L 354.712556 298.510637 
L 354.935868 303.840965 
L 355.15918 317.333978 
L 355.382491 315.094239 
L 355.605803 303.277903 
L 355.829115 303.840965 
L 356.052426 302.439564 
L 356.275738 300.028643 
L 356.49905 300.303918 
L 356.722361 310.560183 
L 356.945673 309.434057 
L 357.168984 305.792917 
L 357.392296 313.24638 
L 357.615608 305.401037 
L 357.838919 291.620237 
L 358.062231 291.620237 
L 358.508854 302.598235 
L 358.732166 303.858138 
L 358.955478 302.456737 
L 359.178789 303.858138 
L 359.402101 298.565214 
L 359.625413 299.92921 
L 359.848724 303.17847 
L 360.072036 300.663456 
L 360.295348 300.492273 
L 360.741971 297.689471 
L 360.965283 303.741533 
L 361.188594 291.570721 
L 361.411906 298.252534 
L 361.635218 295.174457 
L 361.858529 294.048331 
L 362.081841 296.575858 
L 362.305153 288.480132 
L 362.528464 291.845997 
L 362.751776 303.17847 
L 362.975088 301.618399 
L 363.198399 292.684335 
L 363.421711 292.121272 
L 363.645023 292.684335 
L 363.868334 295.174457 
L 364.091646 296.28807 
L 364.314957 281.197851 
L 364.538269 283.963248 
L 364.761581 278.645432 
L 364.984892 282.286572 
L 365.208204 283.687973 
L 365.431516 269.26491 
L 365.654827 280.922576 
L 365.878139 286.490775 
L 366.101451 277.844499 
L 366.324762 287.604389 
L 366.548074 289.568852 
L 366.771386 289.568852 
L 366.994697 290.970253 
L 367.218009 288.730514 
L 367.441321 284.000653 
L 367.664632 288.204857 
L 367.887944 302.627919 
L 368.111256 296.575858 
L 368.334567 298.815597 
L 368.557879 297.977259 
L 368.781191 300.780061 
L 369.004502 297.13892 
L 369.227814 297.13892 
L 369.451126 311.140418 
L 369.674437 308.938084 
L 369.897749 309.213359 
L 370.121061 308.087234 
L 370.344372 307.811958 
L 370.567684 308.938084 
L 370.790995 319.707494 
L 371.237619 299.520157 
L 371.46093 306.97362 
L 371.907554 291.399539 
L 372.130865 289.998138 
L 372.354177 284.680321 
L 372.577489 292.95961 
L 372.8008 294.648799 
L 373.024112 301.330611 
L 373.247424 299.653935 
L 373.470735 292.64693 
L 373.694047 294.899181 
L 373.917359 282.03619 
L 374.14067 290.970253 
L 374.363982 278.958112 
L 374.587294 292.934717 
L 374.810605 292.64693 
L 375.033917 294.899181 
L 375.257229 287.078731 
L 375.48054 290.694978 
L 375.703852 286.52818 
L 375.927164 299.53733 
L 376.373787 292.64693 
L 376.597099 292.934717 
L 376.82041 300.663456 
L 377.043722 300.663456 
L 377.267034 298.423716 
L 377.490345 320.28773 
L 377.713657 296.325475 
L 377.936968 286.356998 
L 378.16028 296.44208 
L 378.606903 282.936555 
L 378.830215 284.337956 
L 379.053527 282.098217 
L 379.276838 292.746362 
L 379.50015 295.995622 
L 379.723462 289.105222 
L 379.946773 289.693178 
L 380.170085 292.183299 
L 380.393397 301.876502 
L 380.616708 299.073699 
L 380.84002 298.235361 
L 381.286643 289.980965 
L 381.733267 302.990115 
L 381.956578 303.840965 
L 382.17989 306.919043 
L 382.403202 305.517642 
L 382.626513 309.042177 
L 382.849825 303.277903 
L 383.073137 294.147763 
L 383.296448 300.475101 
L 383.51976 299.46558 
L 383.743072 304.954579 
L 383.966383 304.954579 
L 384.189695 302.151777 
L 384.85963 284.375361 
L 385.082941 287.703821 
L 385.306253 289.105222 
L 385.529565 284.087574 
L 385.976188 287.178163 
L 386.1995 298.627242 
L 386.646123 294.986102 
L 386.869435 298.351966 
L 387.092746 297.788904 
L 387.316058 290.506623 
L 387.53937 288.817435 
L 387.762681 277.931419 
L 387.985993 281.572559 
L 388.209305 281.822942 
L 388.432616 289.826955 
L 388.655928 283.774893 
L 388.87924 287.703821 
L 389.102551 278.769757 
L 389.325863 279.895883 
L 389.549175 287.979096 
L 389.772486 288.266884 
L 389.995798 278.769757 
L 390.21911 276.805293 
L 390.442421 282.97396 
L 390.665733 293.584701 
L 390.889045 286.890376 
L 391.112356 296.83396 
L 391.335668 284.625744 
L 391.558979 284.337956 
L 391.782291 285.91054 
L 392.005603 280.972091 
L 392.228914 285.91054 
L 392.452226 280.696816 
L 392.675538 281.535154 
L 392.898849 275.69168 
L 393.122161 281.535154 
L 393.345473 275.69168 
L 393.568784 284.901019 
L 393.792096 286.577695 
L 394.015408 281.847835 
L 394.685343 277.368356 
L 394.908654 277.931419 
L 395.131966 274.406884 
L 395.355278 274.682159 
L 395.578589 275.808285 
L 395.801901 278.598575 
L 396.025213 277.876842 
L 396.248524 273.501456 
L 396.471836 282.631595 
L 396.695148 278.990455 
L 396.918459 278.71518 
L 397.141771 288.683657 
L 397.365083 276.304258 
L 397.588394 283.311263 
L 397.811706 280.508461 
L 398.035018 279.10706 
L 398.258329 279.10706 
L 398.481641 288.237199 
L 398.704952 288.800262 
L 398.928264 288.971445 
L 399.151576 279.841306 
L 399.374887 282.35632 
L 399.598199 274.352307 
L 399.821511 287.123586 
L 400.044822 277.313779 
L 400.268134 275.637103 
L 400.491446 283.090565 
L 400.714757 279.999976 
L 400.938069 283.928904 
L 401.161381 279.278243 
L 401.608004 293.450923 
L 401.831316 284.032996 
L 402.054627 282.919383 
L 402.277939 274.627582 
L 402.501251 275.190645 
L 402.724562 274.902857 
L 402.947874 283.482446 
L 403.171186 285.99746 
L 403.394497 293.726198 
L 403.617809 293.726198 
L 404.511056 255.583543 
L 404.734367 264.150619 
L 404.957679 249.690151 
L 405.18099 260.221691 
L 405.404302 257.981952 
L 405.627614 267.675154 
L 405.850925 265.998478 
L 406.297549 279.33282 
L 406.52086 279.895883 
L 406.744172 277.656144 
L 406.967484 278.769757 
L 407.190795 277.368356 
L 407.414107 277.093081 
L 407.637419 268.238217 
L 408.307354 280.171158 
L 408.530665 279.045032 
L 408.753977 279.045032 
L 408.977289 269.19316 
L 409.2006 277.484961 
L 409.423912 276.921898 
L 409.870535 277.484961 
L 410.093847 275.245222 
L 410.317159 274.682159 
L 410.987094 255.583543 
L 411.210405 259.946416 
L 411.657029 270.765744 
L 411.88034 263.875344 
L 412.103652 269.076555 
L 412.326963 269.523013 
L 412.773587 253.790262 
L 413.22021 256.476459 
L 413.443522 256.751734 
L 413.666833 251.709193 
L 413.890145 255.63812 
L 414.113457 249.194178 
L 414.336768 236.135111 
L 414.56008 248.631115 
L 414.783392 244.25573 
L 415.230015 251.14613 
L 415.453327 248.459933 
L 415.676638 256.476459 
L 415.89995 258.991473 
L 416.123262 241.294258 
L 416.346573 252.101073 
L 416.569885 250.149121 
L 416.793197 236.564397 
L 417.016508 232.923257 
L 417.23982 239.617581 
L 417.463132 239.892857 
L 417.686443 236.526992 
L 417.909755 237.090054 
L 418.356378 226.308132 
L 418.57969 232.647981 
L 418.803002 226.871195 
L 419.026313 238.528861 
L 419.249625 243.283614 
L 419.472936 243.008339 
L 419.696248 242.445276 
L 419.91956 243.008339 
L 420.142871 249.690151 
L 420.366183 241.882213 
L 420.589495 254.6286 
L 420.812806 249.298271 
L 421.036118 250.149121 
L 421.25943 247.175137 
L 421.482741 237.12746 
L 421.706053 242.970934 
L 421.929365 242.407871 
L 422.152676 235.438271 
L 422.375988 241.294258 
L 422.5993 241.569533 
L 422.822611 237.36533 
L 423.045923 224.068393 
L 423.269235 226.032857 
L 423.492546 225.757581 
L 423.93917 214.975659 
L 424.162481 201.470134 
L 424.385793 117.538213 
L 424.832416 108.274296 
L 425.055728 115.452484 
L 425.27904 129.863035 
L 425.502351 124.01956 
L 425.725663 136.306977 
L 425.948974 132.665837 
L 426.172286 144.598778 
L 426.395598 132.665837 
L 426.842221 147.572762 
L 427.065533 154.408585 
L 427.288844 154.971648 
L 427.512156 152.719396 
L 427.735468 146.116784 
L 427.958779 148.944479 
L 428.182091 137.011537 
L 428.405403 146.429464 
L 428.628714 151.159325 
L 428.852026 160.001676 
L 429.075338 159.726401 
L 429.298649 144.990658 
L 429.745273 159.609796 
L 429.968584 165.098795 
L 430.191896 153.282459 
L 430.415208 154.408585 
L 430.638519 157.486662 
L 431.085143 152.560726 
L 431.308454 161.832363 
L 431.531766 163.796827 
L 431.755078 169.089751 
L 431.978389 169.928089 
L 432.425013 153.932442 
L 432.648324 158.870891 
L 432.871636 152.531041 
L 433.094947 157.298307 
L 433.318259 148.205573 
L 433.541571 154.61211 
L 433.764882 154.61211 
L 433.988194 141.761631 
L 434.211506 148.443443 
L 434.434817 129.657507 
L 435.104752 159.262771 
L 435.328064 163.454462 
L 435.551376 170.186192 
L 435.774687 187.161674 
L 435.997999 171.587593 
L 436.221311 180.429944 
L 436.444622 183.520534 
L 436.667934 181.55607 
L 436.891246 182.957471 
L 437.114557 182.119133 
L 437.337869 193.489011 
L 437.784492 199.645165 
L 438.007804 222.030177 
L 438.231116 211.694712 
L 438.454427 223.314973 
L 438.901051 208.016167 
L 439.124362 220.236895 
L 439.347674 216.699848 
L 439.794297 200.887896 
L 440.24092 223.431578 
L 440.464232 212.649655 
L 440.687544 225.420934 
L 440.910855 220.770273 
L 441.134167 224.857871 
L 441.357479 226.54706 
L 441.58079 214.614119 
L 441.804102 225.108254 
L 442.027414 216.461978 
L 442.250725 213.659176 
L 442.474037 220.904051 
L 442.697349 208.328847 
L 442.92066 221.467114 
L 443.143972 204.529037 
L 443.590595 208.89191 
L 443.813907 200.324833 
L 444.037219 212.22037 
L 444.483842 208.89191 
L 444.707154 212.53305 
L 444.930465 212.22037 
L 445.153777 209.454973 
L 445.377089 216.987636 
L 445.6004 200.208228 
L 445.823712 200.771291 
L 446.047024 199.932953 
L 446.270335 202.839848 
L 446.493647 191.757757 
L 446.716958 202.00151 
L 446.94027 201.726235 
L 447.163582 218.272431 
L 447.386893 211.106756 
L 447.610205 209.417568 
L 447.833517 206.33949 
L 448.056828 213.22989 
L 448.28014 208.187349 
L 448.503452 214.514686 
L 448.950075 210.873546 
L 449.173387 224.770951 
L 449.396698 209.025687 
L 449.62001 206.33949 
L 449.843322 205.225877 
L 450.066633 217.880551 
L 450.289945 212.954615 
L 450.513257 201.021674 
L 450.736568 200.183336 
L 450.95988 201.296949 
L 451.406503 225.554712 
L 451.853127 206.376895 
L 452.29975 215.298447 
L 452.523062 214.906567 
L 452.969685 240.987295 
L 453.192996 237.058368 
L 453.416308 230.65183 
L 453.63962 235.656967 
L 453.862931 250.563892 
L 454.532866 215.077749 
L 454.756178 213.676348 
L 454.97949 198.494147 
L 455.202801 200.733886 
L 455.426113 204.375026 
L 455.649425 201.046567 
L 455.872736 203.824476 
L 456.096048 208.016167 
L 456.31936 208.016167 
L 456.542671 199.645165 
L 456.765983 186.152153 
L 456.989295 186.990491 
L 457.435918 204.975494 
L 457.65923 196.958969 
L 457.882541 196.958969 
L 458.105853 199.761771 
L 458.329165 199.761771 
L 458.552476 191.46997 
L 458.775788 198.923432 
L 459.222411 195.282292 
L 459.445723 196.408418 
L 459.669035 208.867017 
L 459.892346 212.508157 
L 460.115658 221.638296 
L 460.338969 209.454973 
L 460.562281 213.621771 
L 460.785593 208.016167 
L 461.008904 207.465616 
L 461.232216 202.69835 
L 461.455528 200.458611 
L 461.678839 196.817471 
L 461.902151 181.280795 
L 462.125463 185.643668 
L 462.348774 187.045069 
L 462.572086 192.337993 
L 462.795398 174.995523 
L 463.018709 193.622788 
L 463.242021 194.907584 
L 463.465333 191.211867 
L 463.688644 224.182996 
L 463.911956 211.711884 
L 464.135268 214.685869 
L 464.581891 203.487173 
L 464.805203 203.199385 
L 465.251826 251.707191 
L 465.475138 266.326329 
L 465.698449 268.003005 
L 465.921761 279.623266 
L 466.145073 279.739871 
L 466.591696 272.770271 
L 466.815008 271.36887 
L 467.038319 274.171672 
L 467.261631 286.459088 
L 467.484942 290.546686 
L 467.708254 289.708348 
L 467.931566 275.285285 
L 468.154877 279.176808 
L 468.378189 275.573073 
L 468.601501 287.468609 
L 468.824812 276.686686 
L 469.048124 282.817948 
L 469.271436 274.446947 
L 469.494747 276.974474 
L 469.941371 292.786425 
L 470.164682 291.948087 
L 470.387994 282.817948 
L 470.611306 286.746876 
L 470.834617 296.427565 
L 471.281241 274.838827 
L 471.504552 277.929417 
L 471.727864 194.014669 
L 471.951176 205.384547 
L 472.174487 207.073736 
L 472.397799 199.05721 
L 472.621111 207.349011 
L 472.844422 206.222885 
L 473.067734 200.733886 
L 473.514357 198.494147 
L 473.737669 213.964136 
L 473.96098 201.021674 
L 474.184292 206.510673 
L 474.407604 201.021674 
L 474.630915 207.349011 
L 474.854227 202.423075 
L 475.077539 190.802814 
L 475.30085 192.204215 
L 475.524162 185.58909 
L 475.747474 195.674173 
L 475.970785 195.674173 
L 476.194097 190.460449 
L 476.417409 204.241249 
L 476.64072 200.600109 
L 476.864032 189.909898 
L 477.087344 184.616975 
L 477.310655 195.398897 
L 477.533967 185.705695 
L 477.98059 198.923432 
L 478.203902 196.12063 
L 478.650525 183.465956 
L 478.873837 182.652511 
L 479.097149 171.282632 
L 479.32046 178.564913 
L 479.543772 170.836175 
L 479.767084 171.674513 
L 479.990395 192.17453 
L 480.213707 184.445792 
L 480.437019 191.62398 
L 480.66033 188.821178 
L 480.883642 204.357854 
L 481.330265 187.98284 
L 481.553577 194.101589 
L 481.776888 195.227715 
L 482.0002 195.50299 
L 482.670135 181.814173 
L 482.893447 184.616975 
L 483.116758 174.648497 
L 483.34007 196.800298 
L 483.563382 199.878376 
L 484.010005 207.723719 
L 484.456628 211.927922 
L 484.67994 217.245738 
L 484.903252 214.167661 
L 485.349875 226.358705 
L 485.573187 226.63398 
L 485.796498 234.337826 
L 486.01981 231.926904 
L 486.243122 215.435285 
L 486.466433 214.033884 
L 486.689745 219.03902 
L 486.913057 215.110092 
L 487.136368 226.596575 
L 487.35968 215.39788 
L 487.582991 217.387236 
L 487.806303 215.147497 
L 488.029615 208.42828 
L 488.252926 218.200682 
L 488.476238 214.033884 
L 488.69955 200.699541 
L 488.922861 208.140492 
L 489.369485 202.822675 
L 489.592796 214.834817 
L 489.816108 215.844337 
L 490.03942 201.709062 
L 490.262731 203.385738 
L 490.709355 189.041875 
L 491.155978 195.932275 
L 491.602601 179.073398 
L 491.825913 186.355679 
L 492.049225 189.433756 
L 492.272536 190.272094 
L 492.495848 193.521354 
L 492.71916 190.835157 
L 492.942471 198.735077 
L 493.165783 193.246079 
L 493.389095 184.954277 
L 493.612406 181.037862 
L 493.835718 203.777619 
L 494.05903 199.010353 
L 494.282341 200.136479 
L 494.728964 184.170517 
L 495.175588 188.258115 
L 495.398899 184.341699 
L 495.845523 195.790778 
L 496.292146 172.237576 
L 496.515458 175.199048 
L 496.738769 185.571918 
L 497.185393 162.581779 
L 497.408704 165.384581 
L 497.855328 185.847193 
L 498.078639 185.28413 
L 498.301951 181.930778 
L 498.748574 138.019056 
L 499.195198 125.351869 
L 499.418509 128.154671 
L 499.641821 110.102981 
L 499.865133 125.351869 
L 500.088444 129.45198 
L 500.311756 121.160179 
L 500.535068 128.050579 
L 500.981691 114.190579 
L 501.205003 120.872391 
L 501.428314 121.998517 
L 501.651626 120.634521 
L 502.098249 89.352581 
L 502.321561 107.404271 
L 502.768184 94.945672 
L 502.991496 107.404271 
L 503.214807 111.608474 
L 503.438119 107.404271 
L 503.661431 120.346733 
L 503.884742 121.472859 
L 504.108054 111.045412 
L 504.331366 106.290658 
L 504.777989 120.071458 
L 505.001301 109.931798 
L 505.224612 111.896262 
L 505.447924 101.915272 
L 505.671236 104.155012 
L 505.894547 104.718074 
L 506.117859 98.586813 
L 506.341171 105.281137 
L 506.564482 101.389615 
L 506.787794 106.957814 
L 507.011106 105.005862 
L 507.234417 134.360743 
L 507.457729 121.301676 
L 507.681041 125.952337 
L 507.904352 126.5154 
L 508.127664 131.520536 
L 508.350975 124.826212 
L 508.574287 104.155012 
L 508.797599 94.945672 
L 509.02091 95.23346 
L 509.244222 83.129336 
L 509.467534 96.634861 
L 509.914157 99.425151 
L 510.137469 93.385601 
L 510.584092 105.281137 
L 510.807404 93.097814 
L 511.030715 93.385601 
L 511.254027 94.787002 
L 511.477339 98.036262 
L 511.923962 84.530737 
L 512.147274 84.255462 
L 512.370585 91.145862 
L 512.593897 84.530737 
L 512.817209 98.311537 
L 513.04052 103.604461 
L 513.263832 105.281137 
L 513.487144 98.586813 
L 513.710455 106.682538 
L 513.933767 92.259475 
L 514.157079 98.311537 
L 514.38039 99.988214 
L 514.603702 86.207414 
L 514.827014 93.385601 
L 515.050325 79.604801 
L 515.273637 72.910476 
L 515.496948 71.509075 
L 515.943572 56.051599 
L 516.613507 99.149875 
L 516.836818 84.806013 
L 517.06013 92.822538 
L 517.283442 78.753951 
L 517.506753 78.753951 
L 517.730065 57.728275 
L 517.953377 64.618675 
L 518.176688 64.893951 
L 518.4 64.618675 
L 518.4 64.618675 
" style="fill:none;stroke:#4c72b0;stroke-linecap:round;stroke-width:1.75;"/>
   </g>
   <g id="patch_3">
    <path d="M 72 356.4 
L 518.4 356.4 
" style="fill:none;"/>
   </g>
   <g id="patch_4">
    <path d="M 72 39.6 
L 518.4 39.6 
" style="fill:none;"/>
   </g>
   <g id="patch_5">
    <path d="M 72 356.4 
L 72 39.6 
" style="fill:none;"/>
   </g>
   <g id="patch_6">
    <path d="M 518.4 356.4 
L 518.4 39.6 
" style="fill:none;"/>
   </g>
   <g id="text_15">
    <!-- rb - 0.1579862262548729 * IF -->
    <defs>
     <path d="M 9.125 0 
L 9.125 10.6875 
L 18.65625 10.6875 
L 18.65625 0 
z
" id="LiberationSans-2e"/>
     <path d="M 9.234375 0 
L 9.234375 68.796875 
L 18.5625 68.796875 
L 18.5625 0 
z
" id="LiberationSans-49"/>
     <path d="M 17.53125 61.1875 
L 17.53125 35.59375 
L 55.90625 35.59375 
L 55.90625 27.875 
L 17.53125 27.875 
L 17.53125 0 
L 8.203125 0 
L 8.203125 68.796875 
L 57.078125 68.796875 
L 57.078125 61.1875 
z
" id="LiberationSans-46"/>
     <path d="M 51.421875 26.65625 
Q 51.421875 -0.984375 31.984375 -0.984375 
Q 25.984375 -0.984375 22 1.1875 
Q 18.015625 3.375 15.53125 8.203125 
L 15.4375 8.203125 
Q 15.4375 6.9375 15.359375 5.5625 
Q 15.28125 4.203125 15.203125 3.03125 
Q 15.140625 1.859375 15.0625 1.03125 
Q 14.984375 0.203125 14.9375 0 
L 6.453125 0 
Q 6.5 0.4375 6.546875 1.484375 
Q 6.59375 2.546875 6.640625 4 
Q 6.6875 5.46875 6.703125 7.21875 
Q 6.734375 8.984375 6.734375 10.890625 
L 6.734375 72.46875 
L 15.53125 72.46875 
L 15.53125 51.8125 
Q 15.53125 50.34375 15.5 49 
Q 15.484375 47.65625 15.4375 46.625 
Q 15.375 45.40625 15.328125 44.34375 
L 15.53125 44.34375 
Q 17.96875 49.421875 22 51.609375 
Q 26.03125 53.8125 31.984375 53.8125 
Q 42 53.8125 46.703125 47.0625 
Q 51.421875 40.328125 51.421875 26.65625 
M 42.1875 26.375 
Q 42.1875 31.84375 41.5 35.75 
Q 40.828125 39.65625 39.3125 42.15625 
Q 37.796875 44.671875 35.453125 45.84375 
Q 33.109375 47.015625 29.734375 47.015625 
Q 26.265625 47.015625 23.609375 45.890625 
Q 20.953125 44.78125 19.171875 42.28125 
Q 17.390625 39.796875 16.453125 35.734375 
Q 15.53125 31.6875 15.53125 25.828125 
Q 15.53125 20.171875 16.453125 16.3125 
Q 17.390625 12.453125 19.171875 10.03125 
Q 20.953125 7.625 23.578125 6.5625 
Q 26.21875 5.515625 29.640625 5.515625 
Q 32.859375 5.515625 35.203125 6.640625 
Q 37.546875 7.765625 39.109375 10.25 
Q 40.671875 12.75 41.421875 16.71875 
Q 42.1875 20.703125 42.1875 26.375 
" id="LiberationSans-62"/>
     <path d="M 22.265625 54.390625 
L 35.15625 59.421875 
L 37.359375 52.984375 
L 23.578125 49.421875 
L 32.625 37.203125 
L 26.8125 33.6875 
L 19.484375 46.296875 
L 11.859375 33.796875 
L 6.0625 37.3125 
L 15.28125 49.421875 
L 1.609375 52.984375 
L 3.8125 59.515625 
L 16.84375 54.296875 
L 16.265625 68.796875 
L 22.90625 68.796875 
z
" id="LiberationSans-2a"/>
     <path d="M 6.9375 0 
L 6.9375 40.53125 
Q 6.9375 42.1875 6.90625 43.921875 
Q 6.890625 45.65625 6.828125 47.265625 
Q 6.78125 48.875 6.734375 50.28125 
Q 6.6875 51.703125 6.640625 52.828125 
L 14.9375 52.828125 
Q 14.984375 51.703125 15.0625 50.265625 
Q 15.140625 48.828125 15.203125 47.3125 
Q 15.28125 45.796875 15.296875 44.40625 
Q 15.328125 43.015625 15.328125 42.046875 
L 15.53125 42.046875 
Q 16.453125 45.0625 17.5 47.28125 
Q 18.5625 49.515625 19.96875 50.953125 
Q 21.390625 52.390625 23.34375 53.09375 
Q 25.296875 53.8125 28.078125 53.8125 
Q 29.15625 53.8125 30.125 53.640625 
Q 31.109375 53.46875 31.640625 53.328125 
L 31.640625 45.265625 
Q 30.765625 45.515625 29.59375 45.625 
Q 28.421875 45.75 26.953125 45.75 
Q 23.921875 45.75 21.796875 44.375 
Q 19.671875 43.015625 18.328125 40.59375 
Q 17 38.1875 16.359375 34.84375 
Q 15.71875 31.5 15.71875 27.546875 
L 15.71875 0 
z
" id="LiberationSans-72"/>
    </defs>
    <g style="fill:#262626;" transform="translate(215.145 34.6)scale(0.12 -0.12)">
     <use xlink:href="#LiberationSans-72"/>
     <use x="33.30078125" xlink:href="#LiberationSans-62"/>
     <use x="88.916015625" xlink:href="#LiberationSans-20"/>
     <use x="116.69921875" xlink:href="#LiberationSans-2d"/>
     <use x="150.0" xlink:href="#LiberationSans-20"/>
     <use x="177.783203125" xlink:href="#LiberationSans-30"/>
     <use x="233.3984375" xlink:href="#LiberationSans-2e"/>
     <use x="261.181640625" xlink:href="#LiberationSans-31"/>
     <use x="316.796875" xlink:href="#LiberationSans-35"/>
     <use x="372.412109375" xlink:href="#LiberationSans-37"/>
     <use x="428.02734375" xlink:href="#LiberationSans-39"/>
     <use x="483.642578125" xlink:href="#LiberationSans-38"/>
     <use x="539.2578125" xlink:href="#LiberationSans-36"/>
     <use x="594.873046875" xlink:href="#LiberationSans-32"/>
     <use x="650.48828125" xlink:href="#LiberationSans-32"/>
     <use x="706.103515625" xlink:href="#LiberationSans-36"/>
     <use x="761.71875" xlink:href="#LiberationSans-32"/>
     <use x="817.333984375" xlink:href="#LiberationSans-35"/>
     <use x="872.94921875" xlink:href="#LiberationSans-34"/>
     <use x="928.564453125" xlink:href="#LiberationSans-38"/>
     <use x="984.1796875" xlink:href="#LiberationSans-37"/>
     <use x="1039.794921875" xlink:href="#LiberationSans-32"/>
     <use x="1095.41015625" xlink:href="#LiberationSans-39"/>
     <use x="1151.025390625" xlink:href="#LiberationSans-20"/>
     <use x="1178.80859375" xlink:href="#LiberationSans-2a"/>
     <use x="1217.724609375" xlink:href="#LiberationSans-20"/>
     <use x="1245.5078125" xlink:href="#LiberationSans-49"/>
     <use x="1273.291015625" xlink:href="#LiberationSans-46"/>
    </g>
   </g>
  </g>
 </g>
 <defs>
  <clipPath id="p6b482b048d">
   <rect height="316.8" width="446.4" x="72.0" y="39.6"/>
  </clipPath>
 </defs>
</svg>
