<?xml version="1.0" encoding="utf-8" standalone="no"?>
<!DOCTYPE svg PUBLIC "-//W3C//DTD SVG 1.1//EN"
  "http://www.w3.org/Graphics/SVG/1.1/DTD/svg11.dtd">
<!-- Created with matplotlib (http://matplotlib.org/) -->
<svg height="396pt" version="1.1" viewBox="0 0 576 396" width="576pt" xmlns="http://www.w3.org/2000/svg" xmlns:xlink="http://www.w3.org/1999/xlink">
 <defs>
  <style type="text/css">
*{stroke-linecap:butt;stroke-linejoin:round;stroke-miterlimit:100000;}
  </style>
 </defs>
 <g id="figure_1">
  <g id="patch_1">
   <path d="M 0 396 
L 576 396 
L 576 0 
L 0 0 
z
" style="fill:#ffffff;"/>
  </g>
  <g id="axes_1">
   <g id="patch_2">
    <path d="M 72 356.4 
L 518.4 356.4 
L 518.4 39.6 
L 72 39.6 
z
" style="fill:#eaeaf2;"/>
   </g>
   <g id="matplotlib.axis_1">
    <g id="xtick_1">
     <g id="line2d_1">
      <path clip-path="url(#p8b41b444e7)" d="M 72 356.4 
L 72 39.6 
" style="fill:none;stroke:#ffffff;stroke-linecap:round;"/>
     </g>
     <g id="line2d_2"/>
     <g id="line2d_3"/>
     <g id="text_1">
      <!-- 2016-09-27 09:33:00 -->
      <defs>
       <path d="M 5.03125 0 
L 5.03125 6.203125 
Q 7.515625 11.921875 11.109375 16.28125 
Q 14.703125 20.65625 18.65625 24.1875 
Q 22.609375 27.734375 26.484375 30.765625 
Q 30.375 33.796875 33.5 36.8125 
Q 36.625 39.84375 38.546875 43.15625 
Q 40.484375 46.484375 40.484375 50.6875 
Q 40.484375 53.609375 39.59375 55.828125 
Q 38.71875 58.0625 37.0625 59.5625 
Q 35.40625 61.078125 33.078125 61.828125 
Q 30.765625 62.59375 27.9375 62.59375 
Q 25.296875 62.59375 22.96875 61.859375 
Q 20.65625 61.140625 18.84375 59.671875 
Q 17.046875 58.203125 15.890625 56.03125 
Q 14.75 53.859375 14.40625 50.984375 
L 5.421875 51.8125 
Q 5.859375 55.515625 7.46875 58.78125 
Q 9.078125 62.0625 11.90625 64.53125 
Q 14.75 67 18.71875 68.40625 
Q 22.703125 69.828125 27.9375 69.828125 
Q 33.0625 69.828125 37.0625 68.609375 
Q 41.0625 67.390625 43.8125 64.984375 
Q 46.578125 62.59375 48.046875 59.078125 
Q 49.515625 55.5625 49.515625 50.984375 
Q 49.515625 47.515625 48.265625 44.390625 
Q 47.015625 41.265625 44.9375 38.421875 
Q 42.875 35.59375 40.140625 32.953125 
Q 37.40625 30.328125 34.421875 27.8125 
Q 31.453125 25.296875 28.421875 22.828125 
Q 25.390625 20.359375 22.71875 17.859375 
Q 20.0625 15.375 17.96875 12.8125 
Q 15.875 10.25 14.703125 7.46875 
L 50.59375 7.46875 
L 50.59375 0 
z
" id="LiberationSans-32"/>
       <path d="M 7.625 0 
L 7.625 7.46875 
L 25.140625 7.46875 
L 25.140625 60.40625 
L 9.625 49.3125 
L 9.625 57.625 
L 25.875 68.796875 
L 33.984375 68.796875 
L 33.984375 7.46875 
L 50.734375 7.46875 
L 50.734375 0 
z
" id="LiberationSans-31"/>
       <path d="M 51.703125 34.421875 
Q 51.703125 24.515625 49.828125 17.75 
Q 47.953125 10.984375 44.703125 6.8125 
Q 41.453125 2.640625 37.0625 0.828125 
Q 32.671875 -0.984375 27.6875 -0.984375 
Q 22.65625 -0.984375 18.3125 0.828125 
Q 13.96875 2.640625 10.765625 6.78125 
Q 7.5625 10.9375 5.734375 17.703125 
Q 3.90625 24.46875 3.90625 34.421875 
Q 3.90625 44.828125 5.734375 51.640625 
Q 7.5625 58.453125 10.78125 62.5 
Q 14.015625 66.546875 18.40625 68.1875 
Q 22.796875 69.828125 27.984375 69.828125 
Q 32.90625 69.828125 37.21875 68.1875 
Q 41.546875 66.546875 44.765625 62.5 
Q 48 58.453125 49.84375 51.640625 
Q 51.703125 44.828125 51.703125 34.421875 
M 42.78125 34.421875 
Q 42.78125 42.625 41.796875 48.0625 
Q 40.828125 53.515625 38.921875 56.765625 
Q 37.015625 60.015625 34.25 61.359375 
Q 31.5 62.703125 27.984375 62.703125 
Q 24.265625 62.703125 21.4375 61.328125 
Q 18.609375 59.96875 16.671875 56.71875 
Q 14.75 53.46875 13.765625 48.015625 
Q 12.796875 42.578125 12.796875 34.421875 
Q 12.796875 26.515625 13.796875 21.09375 
Q 14.796875 15.671875 16.71875 12.375 
Q 18.65625 9.078125 21.4375 7.640625 
Q 24.21875 6.203125 27.78125 6.203125 
Q 31.25 6.203125 34.03125 7.640625 
Q 36.8125 9.078125 38.734375 12.375 
Q 40.671875 15.671875 41.71875 21.09375 
Q 42.78125 26.515625 42.78125 34.421875 
" id="LiberationSans-30"/>
       <path d="M 50.875 35.796875 
Q 50.875 26.609375 49.140625 19.703125 
Q 47.40625 12.796875 44.1875 8.203125 
Q 40.96875 3.609375 36.34375 1.3125 
Q 31.734375 -0.984375 25.984375 -0.984375 
Q 22.015625 -0.984375 18.84375 -0.171875 
Q 15.671875 0.640625 13.171875 2.34375 
Q 10.6875 4.046875 8.921875 6.78125 
Q 7.171875 9.515625 6.109375 13.375 
L 14.5 14.703125 
Q 15.875 10.25 18.78125 8.171875 
Q 21.6875 6.109375 26.125 6.109375 
Q 29.6875 6.109375 32.640625 7.78125 
Q 35.59375 9.46875 37.671875 12.84375 
Q 39.75 16.21875 40.921875 21.296875 
Q 42.09375 26.375 42.1875 33.203125 
Q 41.15625 30.90625 39.375 29.09375 
Q 37.59375 27.296875 35.328125 26.046875 
Q 33.0625 24.8125 30.421875 24.140625 
Q 27.78125 23.484375 25.09375 23.484375 
Q 20.40625 23.484375 16.625 25.171875 
Q 12.84375 26.859375 10.203125 29.875 
Q 7.5625 32.90625 6.125 37.171875 
Q 4.6875 41.453125 4.6875 46.6875 
Q 4.6875 52 6.21875 56.296875 
Q 7.765625 60.59375 10.6875 63.59375 
Q 13.625 66.609375 17.890625 68.21875 
Q 22.171875 69.828125 27.59375 69.828125 
Q 39.0625 69.828125 44.96875 61.328125 
Q 50.875 52.828125 50.875 35.796875 
M 41.3125 44.28125 
Q 41.3125 48.09375 40.40625 51.453125 
Q 39.5 54.828125 37.71875 57.3125 
Q 35.9375 59.8125 33.328125 61.25 
Q 30.71875 62.703125 27.296875 62.703125 
Q 24.125 62.703125 21.578125 61.578125 
Q 19.046875 60.453125 17.28125 58.375 
Q 15.53125 56.296875 14.578125 53.3125 
Q 13.625 50.34375 13.625 46.6875 
Q 13.625 43.21875 14.46875 40.234375 
Q 15.328125 37.25 17.03125 35.078125 
Q 18.75 32.90625 21.28125 31.65625 
Q 23.828125 30.421875 27.203125 30.421875 
Q 29.640625 30.421875 32.15625 31.25 
Q 34.671875 32.078125 36.6875 33.78125 
Q 38.71875 35.5 40.015625 38.109375 
Q 41.3125 40.71875 41.3125 44.28125 
" id="LiberationSans-39"/>
       <path d="M 9.125 42.71875 
L 9.125 52.828125 
L 18.65625 52.828125 
L 18.65625 42.71875 
z
M 9.125 0 
L 9.125 10.109375 
L 18.65625 10.109375 
L 18.65625 0 
z
" id="LiberationSans-3a"/>
       <path d="M 51.21875 19 
Q 51.21875 14.265625 49.671875 10.546875 
Q 48.140625 6.84375 45.1875 4.265625 
Q 42.234375 1.703125 37.859375 0.359375 
Q 33.5 -0.984375 27.875 -0.984375 
Q 21.484375 -0.984375 17.109375 0.609375 
Q 12.75 2.203125 9.90625 4.8125 
Q 7.078125 7.421875 5.65625 10.765625 
Q 4.25 14.109375 3.8125 17.671875 
L 12.890625 18.5 
Q 13.28125 15.765625 14.328125 13.515625 
Q 15.375 11.28125 17.1875 9.671875 
Q 19 8.0625 21.625 7.171875 
Q 24.265625 6.296875 27.875 6.296875 
Q 34.515625 6.296875 38.296875 9.5625 
Q 42.09375 12.84375 42.09375 19.28125 
Q 42.09375 23.09375 40.40625 25.40625 
Q 38.71875 27.734375 36.203125 29.03125 
Q 33.6875 30.328125 30.734375 30.765625 
Q 27.78125 31.203125 25.296875 31.203125 
L 20.3125 31.203125 
L 20.3125 38.8125 
L 25.09375 38.8125 
Q 27.59375 38.8125 30.265625 39.328125 
Q 32.953125 39.84375 35.171875 41.1875 
Q 37.40625 42.53125 38.84375 44.828125 
Q 40.28125 47.125 40.28125 50.6875 
Q 40.28125 56.203125 37.03125 59.390625 
Q 33.796875 62.59375 27.390625 62.59375 
Q 21.578125 62.59375 17.984375 59.609375 
Q 14.40625 56.640625 13.8125 51.21875 
L 4.984375 51.90625 
Q 5.515625 56.453125 7.46875 59.8125 
Q 9.421875 63.1875 12.421875 65.40625 
Q 15.4375 67.625 19.28125 68.71875 
Q 23.140625 69.828125 27.484375 69.828125 
Q 33.25 69.828125 37.390625 68.375 
Q 41.546875 66.9375 44.1875 64.46875 
Q 46.828125 62.015625 48.0625 58.6875 
Q 49.3125 55.375 49.3125 51.609375 
Q 49.3125 48.578125 48.484375 45.9375 
Q 47.65625 43.3125 45.890625 41.203125 
Q 44.140625 39.109375 41.421875 37.59375 
Q 38.71875 36.078125 34.90625 35.296875 
L 34.90625 35.109375 
Q 39.0625 34.671875 42.140625 33.21875 
Q 45.21875 31.78125 47.21875 29.625 
Q 49.21875 27.484375 50.21875 24.75 
Q 51.21875 22.015625 51.21875 19 
" id="LiberationSans-33"/>
       <path d="M 50.59375 61.671875 
Q 45.40625 53.765625 41.0625 46.453125 
Q 36.71875 39.15625 33.59375 31.75 
Q 30.46875 24.359375 28.734375 16.578125 
Q 27 8.796875 27 0 
L 17.828125 0 
Q 17.828125 8.25 19.78125 16.1875 
Q 21.734375 24.125 25.046875 31.765625 
Q 28.375 39.40625 32.765625 46.78125 
Q 37.15625 54.15625 42.09375 61.328125 
L 5.125 61.328125 
L 5.125 68.796875 
L 50.59375 68.796875 
z
" id="LiberationSans-37"/>
       <path id="LiberationSans-20"/>
       <path d="M 4.4375 22.65625 
L 4.4375 30.46875 
L 28.859375 30.46875 
L 28.859375 22.65625 
z
" id="LiberationSans-2d"/>
       <path d="M 51.21875 22.515625 
Q 51.21875 17.328125 49.78125 13 
Q 48.34375 8.6875 45.53125 5.578125 
Q 42.71875 2.484375 38.5625 0.75 
Q 34.421875 -0.984375 29 -0.984375 
Q 23 -0.984375 18.5 1.3125 
Q 14.015625 3.609375 11.03125 7.921875 
Q 8.0625 12.25 6.5625 18.53125 
Q 5.078125 24.8125 5.078125 32.8125 
Q 5.078125 42 6.765625 48.921875 
Q 8.453125 55.859375 11.625 60.5 
Q 14.796875 65.140625 19.359375 67.484375 
Q 23.921875 69.828125 29.6875 69.828125 
Q 33.203125 69.828125 36.28125 69.09375 
Q 39.359375 68.359375 41.875 66.71875 
Q 44.390625 65.09375 46.28125 62.40625 
Q 48.1875 59.71875 49.3125 55.8125 
L 40.921875 54.296875 
Q 39.546875 58.734375 36.546875 60.71875 
Q 33.546875 62.703125 29.59375 62.703125 
Q 25.984375 62.703125 23.046875 60.984375 
Q 20.125 59.28125 18.0625 55.875 
Q 16.015625 52.484375 14.90625 47.359375 
Q 13.8125 42.234375 13.8125 35.40625 
Q 16.21875 39.84375 20.5625 42.15625 
Q 24.90625 44.484375 30.515625 44.484375 
Q 35.203125 44.484375 39.015625 42.96875 
Q 42.828125 41.453125 45.53125 38.59375 
Q 48.25 35.75 49.734375 31.671875 
Q 51.21875 27.59375 51.21875 22.515625 
M 42.28125 22.125 
Q 42.28125 25.6875 41.40625 28.5625 
Q 40.53125 31.453125 38.765625 33.46875 
Q 37.015625 35.5 34.421875 36.59375 
Q 31.84375 37.703125 28.421875 37.703125 
Q 26.03125 37.703125 23.578125 36.984375 
Q 21.140625 36.28125 19.15625 34.6875 
Q 17.1875 33.109375 15.9375 30.515625 
Q 14.703125 27.9375 14.703125 24.21875 
Q 14.703125 20.40625 15.671875 17.109375 
Q 16.65625 13.8125 18.484375 11.375 
Q 20.3125 8.9375 22.890625 7.515625 
Q 25.484375 6.109375 28.71875 6.109375 
Q 31.890625 6.109375 34.40625 7.203125 
Q 36.921875 8.296875 38.671875 10.375 
Q 40.4375 12.453125 41.359375 15.421875 
Q 42.28125 18.40625 42.28125 22.125 
" id="LiberationSans-36"/>
      </defs>
      <g style="fill:#262626;" transform="translate(25.5765625 370.646875)scale(0.1 -0.1)">
       <use xlink:href="#LiberationSans-32"/>
       <use x="55.615234375" xlink:href="#LiberationSans-30"/>
       <use x="111.23046875" xlink:href="#LiberationSans-31"/>
       <use x="166.845703125" xlink:href="#LiberationSans-36"/>
       <use x="222.4609375" xlink:href="#LiberationSans-2d"/>
       <use x="255.76171875" xlink:href="#LiberationSans-30"/>
       <use x="311.376953125" xlink:href="#LiberationSans-39"/>
       <use x="366.9921875" xlink:href="#LiberationSans-2d"/>
       <use x="400.29296875" xlink:href="#LiberationSans-32"/>
       <use x="455.908203125" xlink:href="#LiberationSans-37"/>
       <use x="511.5234375" xlink:href="#LiberationSans-20"/>
       <use x="539.306640625" xlink:href="#LiberationSans-30"/>
       <use x="594.921875" xlink:href="#LiberationSans-39"/>
       <use x="650.537109375" xlink:href="#LiberationSans-3a"/>
       <use x="678.3203125" xlink:href="#LiberationSans-33"/>
       <use x="733.935546875" xlink:href="#LiberationSans-33"/>
       <use x="789.55078125" xlink:href="#LiberationSans-3a"/>
       <use x="817.333984375" xlink:href="#LiberationSans-30"/>
       <use x="872.94921875" xlink:href="#LiberationSans-30"/>
      </g>
     </g>
    </g>
    <g id="xtick_2">
     <g id="line2d_4">
      <path clip-path="url(#p8b41b444e7)" d="M 183.655828 356.4 
L 183.655828 39.6 
" style="fill:none;stroke:#ffffff;stroke-linecap:round;"/>
     </g>
     <g id="line2d_5"/>
     <g id="line2d_6"/>
     <g id="text_2">
      <!-- 2016-09-29 10:37:00 -->
      <g style="fill:#262626;" transform="translate(137.232390414 370.646875)scale(0.1 -0.1)">
       <use xlink:href="#LiberationSans-32"/>
       <use x="55.615234375" xlink:href="#LiberationSans-30"/>
       <use x="111.23046875" xlink:href="#LiberationSans-31"/>
       <use x="166.845703125" xlink:href="#LiberationSans-36"/>
       <use x="222.4609375" xlink:href="#LiberationSans-2d"/>
       <use x="255.76171875" xlink:href="#LiberationSans-30"/>
       <use x="311.376953125" xlink:href="#LiberationSans-39"/>
       <use x="366.9921875" xlink:href="#LiberationSans-2d"/>
       <use x="400.29296875" xlink:href="#LiberationSans-32"/>
       <use x="455.908203125" xlink:href="#LiberationSans-39"/>
       <use x="511.5234375" xlink:href="#LiberationSans-20"/>
       <use x="539.306640625" xlink:href="#LiberationSans-31"/>
       <use x="594.921875" xlink:href="#LiberationSans-30"/>
       <use x="650.537109375" xlink:href="#LiberationSans-3a"/>
       <use x="678.3203125" xlink:href="#LiberationSans-33"/>
       <use x="733.935546875" xlink:href="#LiberationSans-37"/>
       <use x="789.55078125" xlink:href="#LiberationSans-3a"/>
       <use x="817.333984375" xlink:href="#LiberationSans-30"/>
       <use x="872.94921875" xlink:href="#LiberationSans-30"/>
      </g>
     </g>
    </g>
    <g id="xtick_3">
     <g id="line2d_7">
      <path clip-path="url(#p8b41b444e7)" d="M 295.311656 356.4 
L 295.311656 39.6 
" style="fill:none;stroke:#ffffff;stroke-linecap:round;"/>
     </g>
     <g id="line2d_8"/>
     <g id="line2d_9"/>
     <g id="text_3">
      <!-- 2016-10-10 11:24:00 -->
      <defs>
       <path d="M 43.015625 15.578125 
L 43.015625 0 
L 34.71875 0 
L 34.71875 15.578125 
L 2.296875 15.578125 
L 2.296875 22.40625 
L 33.796875 68.796875 
L 43.015625 68.796875 
L 43.015625 22.515625 
L 52.6875 22.515625 
L 52.6875 15.578125 
z
M 34.71875 58.890625 
Q 34.625 58.640625 34.234375 57.9375 
Q 33.84375 57.234375 33.34375 56.34375 
Q 32.859375 55.46875 32.34375 54.5625 
Q 31.84375 53.65625 31.453125 53.078125 
L 13.8125 27.09375 
Q 13.578125 26.703125 13.109375 26.0625 
Q 12.640625 25.4375 12.15625 24.78125 
Q 11.671875 24.125 11.171875 23.484375 
Q 10.6875 22.859375 10.40625 22.515625 
L 34.71875 22.515625 
z
" id="LiberationSans-34"/>
      </defs>
      <g style="fill:#262626;" transform="translate(248.888218328 370.646875)scale(0.1 -0.1)">
       <use xlink:href="#LiberationSans-32"/>
       <use x="55.615234375" xlink:href="#LiberationSans-30"/>
       <use x="111.23046875" xlink:href="#LiberationSans-31"/>
       <use x="166.845703125" xlink:href="#LiberationSans-36"/>
       <use x="222.4609375" xlink:href="#LiberationSans-2d"/>
       <use x="255.76171875" xlink:href="#LiberationSans-31"/>
       <use x="311.376953125" xlink:href="#LiberationSans-30"/>
       <use x="366.9921875" xlink:href="#LiberationSans-2d"/>
       <use x="400.29296875" xlink:href="#LiberationSans-31"/>
       <use x="455.908203125" xlink:href="#LiberationSans-30"/>
       <use x="511.5234375" xlink:href="#LiberationSans-20"/>
       <use x="539.306640625" xlink:href="#LiberationSans-31"/>
       <use x="594.921875" xlink:href="#LiberationSans-31"/>
       <use x="650.537109375" xlink:href="#LiberationSans-3a"/>
       <use x="678.3203125" xlink:href="#LiberationSans-32"/>
       <use x="733.935546875" xlink:href="#LiberationSans-34"/>
       <use x="789.55078125" xlink:href="#LiberationSans-3a"/>
       <use x="817.333984375" xlink:href="#LiberationSans-30"/>
       <use x="872.94921875" xlink:href="#LiberationSans-30"/>
      </g>
     </g>
    </g>
    <g id="xtick_4">
     <g id="line2d_10">
      <path clip-path="url(#p8b41b444e7)" d="M 406.967484 356.4 
L 406.967484 39.6 
" style="fill:none;stroke:#ffffff;stroke-linecap:round;"/>
     </g>
     <g id="line2d_11"/>
     <g id="line2d_12"/>
     <g id="text_4">
      <!-- 2016-10-12 14:13:00 -->
      <g style="fill:#262626;" transform="translate(360.544046242 370.646875)scale(0.1 -0.1)">
       <use xlink:href="#LiberationSans-32"/>
       <use x="55.615234375" xlink:href="#LiberationSans-30"/>
       <use x="111.23046875" xlink:href="#LiberationSans-31"/>
       <use x="166.845703125" xlink:href="#LiberationSans-36"/>
       <use x="222.4609375" xlink:href="#LiberationSans-2d"/>
       <use x="255.76171875" xlink:href="#LiberationSans-31"/>
       <use x="311.376953125" xlink:href="#LiberationSans-30"/>
       <use x="366.9921875" xlink:href="#LiberationSans-2d"/>
       <use x="400.29296875" xlink:href="#LiberationSans-31"/>
       <use x="455.908203125" xlink:href="#LiberationSans-32"/>
       <use x="511.5234375" xlink:href="#LiberationSans-20"/>
       <use x="539.306640625" xlink:href="#LiberationSans-31"/>
       <use x="594.921875" xlink:href="#LiberationSans-34"/>
       <use x="650.537109375" xlink:href="#LiberationSans-3a"/>
       <use x="678.3203125" xlink:href="#LiberationSans-31"/>
       <use x="733.935546875" xlink:href="#LiberationSans-33"/>
       <use x="789.55078125" xlink:href="#LiberationSans-3a"/>
       <use x="817.333984375" xlink:href="#LiberationSans-30"/>
       <use x="872.94921875" xlink:href="#LiberationSans-30"/>
      </g>
     </g>
    </g>
    <g id="text_5">
     <!-- time -->
     <defs>
      <path d="M 13.484375 24.5625 
Q 13.484375 20.40625 14.328125 16.90625 
Q 15.1875 13.421875 16.96875 10.90625 
Q 18.75 8.40625 21.53125 7 
Q 24.3125 5.609375 28.21875 5.609375 
Q 33.9375 5.609375 37.375 7.90625 
Q 40.828125 10.203125 42.046875 13.71875 
L 49.75 11.53125 
Q 48.921875 9.328125 47.4375 7.109375 
Q 45.953125 4.890625 43.453125 3.09375 
Q 40.96875 1.3125 37.234375 0.15625 
Q 33.5 -0.984375 28.21875 -0.984375 
Q 16.5 -0.984375 10.375 6 
Q 4.25 12.984375 4.25 26.765625 
Q 4.25 34.1875 6.09375 39.328125 
Q 7.953125 44.484375 11.171875 47.703125 
Q 14.40625 50.921875 18.703125 52.359375 
Q 23 53.8125 27.875 53.8125 
Q 34.515625 53.8125 38.984375 51.65625 
Q 43.453125 49.515625 46.15625 45.71875 
Q 48.875 41.9375 50.015625 36.8125 
Q 51.171875 31.6875 51.171875 25.734375 
L 51.171875 24.5625 
z
M 42.09375 31.296875 
Q 41.359375 39.65625 37.84375 43.484375 
Q 34.328125 47.3125 27.734375 47.3125 
Q 25.53125 47.3125 23.109375 46.609375 
Q 20.703125 45.90625 18.65625 44.09375 
Q 16.609375 42.28125 15.1875 39.171875 
Q 13.765625 36.078125 13.578125 31.296875 
z
" id="LiberationSans-65"/>
      <path d="M 6.6875 64.0625 
L 6.6875 72.46875 
L 15.484375 72.46875 
L 15.484375 64.0625 
z
M 6.6875 0 
L 6.6875 52.828125 
L 15.484375 52.828125 
L 15.484375 0 
z
" id="LiberationSans-69"/>
      <path d="M 27.046875 0.390625 
Q 25.046875 -0.140625 22.96875 -0.453125 
Q 20.90625 -0.78125 18.171875 -0.78125 
Q 7.625 -0.78125 7.625 11.1875 
L 7.625 46.4375 
L 1.515625 46.4375 
L 1.515625 52.828125 
L 7.953125 52.828125 
L 10.546875 64.65625 
L 16.40625 64.65625 
L 16.40625 52.828125 
L 26.171875 52.828125 
L 26.171875 46.4375 
L 16.40625 46.4375 
L 16.40625 13.09375 
Q 16.40625 9.28125 17.640625 7.734375 
Q 18.890625 6.203125 21.96875 6.203125 
Q 23.25 6.203125 24.4375 6.390625 
Q 25.640625 6.59375 27.046875 6.890625 
z
" id="LiberationSans-74"/>
      <path d="M 37.5 0 
L 37.5 33.5 
Q 37.5 37.359375 37.015625 39.9375 
Q 36.53125 42.53125 35.375 44.109375 
Q 34.234375 45.703125 32.375 46.359375 
Q 30.515625 47.015625 27.828125 47.015625 
Q 25.046875 47.015625 22.796875 45.921875 
Q 20.5625 44.828125 18.96875 42.75 
Q 17.390625 40.671875 16.53125 37.625 
Q 15.671875 34.578125 15.671875 30.609375 
L 15.671875 0 
L 6.9375 0 
L 6.9375 41.546875 
Q 6.9375 43.21875 6.90625 45.046875 
Q 6.890625 46.875 6.828125 48.5 
Q 6.78125 50.140625 6.734375 51.3125 
Q 6.6875 52.484375 6.640625 52.828125 
L 14.9375 52.828125 
Q 14.984375 52.59375 15.03125 51.515625 
Q 15.09375 50.4375 15.15625 49.046875 
Q 15.234375 47.65625 15.28125 46.21875 
Q 15.328125 44.78125 15.328125 43.796875 
L 15.484375 43.796875 
Q 16.65625 46.09375 18.015625 47.953125 
Q 19.390625 49.8125 21.21875 51.09375 
Q 23.046875 52.390625 25.40625 53.09375 
Q 27.78125 53.8125 30.90625 53.8125 
Q 36.921875 53.8125 40.40625 51.421875 
Q 43.890625 49.03125 45.265625 43.796875 
L 45.40625 43.796875 
Q 46.578125 46.09375 48.046875 47.953125 
Q 49.515625 49.8125 51.46875 51.09375 
Q 53.421875 52.390625 55.859375 53.09375 
Q 58.296875 53.8125 61.421875 53.8125 
Q 65.4375 53.8125 68.328125 52.734375 
Q 71.234375 51.65625 73.09375 49.40625 
Q 74.953125 47.171875 75.828125 43.625 
Q 76.703125 40.09375 76.703125 35.203125 
L 76.703125 0 
L 68.015625 0 
L 68.015625 33.5 
Q 68.015625 37.359375 67.53125 39.9375 
Q 67.046875 42.53125 65.890625 44.109375 
Q 64.75 45.703125 62.890625 46.359375 
Q 61.03125 47.015625 58.34375 47.015625 
Q 55.5625 47.015625 53.3125 45.96875 
Q 51.078125 44.921875 49.484375 42.875 
Q 47.90625 40.828125 47.046875 37.75 
Q 46.1875 34.671875 46.1875 30.609375 
L 46.1875 0 
z
" id="LiberationSans-6d"/>
     </defs>
     <g style="fill:#262626;" transform="translate(284.81015625 385.6934375)scale(0.11 -0.11)">
      <use xlink:href="#LiberationSans-74"/>
      <use x="27.783203125" xlink:href="#LiberationSans-69"/>
      <use x="50.0" xlink:href="#LiberationSans-6d"/>
      <use x="133.30078125" xlink:href="#LiberationSans-65"/>
     </g>
    </g>
   </g>
   <g id="matplotlib.axis_2">
    <g id="ytick_1">
     <g id="line2d_13">
      <path clip-path="url(#p8b41b444e7)" d="M 72 356.4 
L 518.4 356.4 
" style="fill:none;stroke:#ffffff;stroke-linecap:round;"/>
     </g>
     <g id="line2d_14"/>
     <g id="line2d_15"/>
     <g id="text_6">
      <!-- −11500 -->
      <defs>
       <path d="M 51.421875 22.40625 
Q 51.421875 17.234375 49.859375 12.9375 
Q 48.296875 8.640625 45.21875 5.53125 
Q 42.140625 2.4375 37.578125 0.71875 
Q 33.015625 -0.984375 27 -0.984375 
Q 21.578125 -0.984375 17.546875 0.28125 
Q 13.53125 1.5625 10.734375 3.78125 
Q 7.953125 6 6.3125 8.984375 
Q 4.6875 11.96875 4 15.375 
L 12.890625 16.40625 
Q 13.421875 14.453125 14.390625 12.625 
Q 15.375 10.796875 17.0625 9.34375 
Q 18.75 7.90625 21.21875 7.046875 
Q 23.6875 6.203125 27.203125 6.203125 
Q 30.609375 6.203125 33.390625 7.25 
Q 36.1875 8.296875 38.15625 10.34375 
Q 40.140625 12.40625 41.203125 15.375 
Q 42.28125 18.359375 42.28125 22.21875 
Q 42.28125 25.390625 41.25 28.046875 
Q 40.234375 30.71875 38.328125 32.640625 
Q 36.421875 34.578125 33.65625 35.640625 
Q 30.90625 36.71875 27.390625 36.71875 
Q 25.203125 36.71875 23.34375 36.328125 
Q 21.484375 35.9375 19.890625 35.25 
Q 18.3125 34.578125 17.015625 33.671875 
Q 15.71875 32.765625 14.59375 31.78125 
L 6 31.78125 
L 8.296875 68.796875 
L 47.40625 68.796875 
L 47.40625 61.328125 
L 16.3125 61.328125 
L 14.984375 39.5 
Q 17.328125 41.3125 20.84375 42.59375 
Q 24.359375 43.890625 29.203125 43.890625 
Q 34.328125 43.890625 38.421875 42.328125 
Q 42.53125 40.765625 45.40625 37.90625 
Q 48.296875 35.0625 49.859375 31.109375 
Q 51.421875 27.15625 51.421875 22.40625 
" id="LiberationSans-35"/>
       <path d="M 4.9375 29.6875 
L 4.9375 36.8125 
L 53.515625 36.8125 
L 53.515625 29.6875 
z
" id="LiberationSans-2212"/>
      </defs>
      <g style="fill:#262626;" transform="translate(31.3546875 358.9859375)scale(0.1 -0.1)">
       <use xlink:href="#LiberationSans-2212"/>
       <use x="58.3984375" xlink:href="#LiberationSans-31"/>
       <use x="114.013671875" xlink:href="#LiberationSans-31"/>
       <use x="169.62890625" xlink:href="#LiberationSans-35"/>
       <use x="225.244140625" xlink:href="#LiberationSans-30"/>
       <use x="280.859375" xlink:href="#LiberationSans-30"/>
      </g>
     </g>
    </g>
    <g id="ytick_2">
     <g id="line2d_16">
      <path clip-path="url(#p8b41b444e7)" d="M 72 321.2 
L 518.4 321.2 
" style="fill:none;stroke:#ffffff;stroke-linecap:round;"/>
     </g>
     <g id="line2d_17"/>
     <g id="line2d_18"/>
     <g id="text_7">
      <!-- −11400 -->
      <g style="fill:#262626;" transform="translate(31.3546875 323.7859375)scale(0.1 -0.1)">
       <use xlink:href="#LiberationSans-2212"/>
       <use x="58.3984375" xlink:href="#LiberationSans-31"/>
       <use x="114.013671875" xlink:href="#LiberationSans-31"/>
       <use x="169.62890625" xlink:href="#LiberationSans-34"/>
       <use x="225.244140625" xlink:href="#LiberationSans-30"/>
       <use x="280.859375" xlink:href="#LiberationSans-30"/>
      </g>
     </g>
    </g>
    <g id="ytick_3">
     <g id="line2d_19">
      <path clip-path="url(#p8b41b444e7)" d="M 72 286 
L 518.4 286 
" style="fill:none;stroke:#ffffff;stroke-linecap:round;"/>
     </g>
     <g id="line2d_20"/>
     <g id="line2d_21"/>
     <g id="text_8">
      <!-- −11300 -->
      <g style="fill:#262626;" transform="translate(31.3546875 288.5859375)scale(0.1 -0.1)">
       <use xlink:href="#LiberationSans-2212"/>
       <use x="58.3984375" xlink:href="#LiberationSans-31"/>
       <use x="114.013671875" xlink:href="#LiberationSans-31"/>
       <use x="169.62890625" xlink:href="#LiberationSans-33"/>
       <use x="225.244140625" xlink:href="#LiberationSans-30"/>
       <use x="280.859375" xlink:href="#LiberationSans-30"/>
      </g>
     </g>
    </g>
    <g id="ytick_4">
     <g id="line2d_22">
      <path clip-path="url(#p8b41b444e7)" d="M 72 250.8 
L 518.4 250.8 
" style="fill:none;stroke:#ffffff;stroke-linecap:round;"/>
     </g>
     <g id="line2d_23"/>
     <g id="line2d_24"/>
     <g id="text_9">
      <!-- −11200 -->
      <g style="fill:#262626;" transform="translate(31.3546875 253.3859375)scale(0.1 -0.1)">
       <use xlink:href="#LiberationSans-2212"/>
       <use x="58.3984375" xlink:href="#LiberationSans-31"/>
       <use x="114.013671875" xlink:href="#LiberationSans-31"/>
       <use x="169.62890625" xlink:href="#LiberationSans-32"/>
       <use x="225.244140625" xlink:href="#LiberationSans-30"/>
       <use x="280.859375" xlink:href="#LiberationSans-30"/>
      </g>
     </g>
    </g>
    <g id="ytick_5">
     <g id="line2d_25">
      <path clip-path="url(#p8b41b444e7)" d="M 72 215.6 
L 518.4 215.6 
" style="fill:none;stroke:#ffffff;stroke-linecap:round;"/>
     </g>
     <g id="line2d_26"/>
     <g id="line2d_27"/>
     <g id="text_10">
      <!-- −11100 -->
      <g style="fill:#262626;" transform="translate(31.3546875 218.1859375)scale(0.1 -0.1)">
       <use xlink:href="#LiberationSans-2212"/>
       <use x="58.3984375" xlink:href="#LiberationSans-31"/>
       <use x="114.013671875" xlink:href="#LiberationSans-31"/>
       <use x="169.62890625" xlink:href="#LiberationSans-31"/>
       <use x="225.244140625" xlink:href="#LiberationSans-30"/>
       <use x="280.859375" xlink:href="#LiberationSans-30"/>
      </g>
     </g>
    </g>
    <g id="ytick_6">
     <g id="line2d_28">
      <path clip-path="url(#p8b41b444e7)" d="M 72 180.4 
L 518.4 180.4 
" style="fill:none;stroke:#ffffff;stroke-linecap:round;"/>
     </g>
     <g id="line2d_29"/>
     <g id="line2d_30"/>
     <g id="text_11">
      <!-- −11000 -->
      <g style="fill:#262626;" transform="translate(31.3546875 182.9859375)scale(0.1 -0.1)">
       <use xlink:href="#LiberationSans-2212"/>
       <use x="58.3984375" xlink:href="#LiberationSans-31"/>
       <use x="114.013671875" xlink:href="#LiberationSans-31"/>
       <use x="169.62890625" xlink:href="#LiberationSans-30"/>
       <use x="225.244140625" xlink:href="#LiberationSans-30"/>
       <use x="280.859375" xlink:href="#LiberationSans-30"/>
      </g>
     </g>
    </g>
    <g id="ytick_7">
     <g id="line2d_31">
      <path clip-path="url(#p8b41b444e7)" d="M 72 145.2 
L 518.4 145.2 
" style="fill:none;stroke:#ffffff;stroke-linecap:round;"/>
     </g>
     <g id="line2d_32"/>
     <g id="line2d_33"/>
     <g id="text_12">
      <!-- −10900 -->
      <g style="fill:#262626;" transform="translate(31.3546875 147.7859375)scale(0.1 -0.1)">
       <use xlink:href="#LiberationSans-2212"/>
       <use x="58.3984375" xlink:href="#LiberationSans-31"/>
       <use x="114.013671875" xlink:href="#LiberationSans-30"/>
       <use x="169.62890625" xlink:href="#LiberationSans-39"/>
       <use x="225.244140625" xlink:href="#LiberationSans-30"/>
       <use x="280.859375" xlink:href="#LiberationSans-30"/>
      </g>
     </g>
    </g>
    <g id="ytick_8">
     <g id="line2d_34">
      <path clip-path="url(#p8b41b444e7)" d="M 72 110 
L 518.4 110 
" style="fill:none;stroke:#ffffff;stroke-linecap:round;"/>
     </g>
     <g id="line2d_35"/>
     <g id="line2d_36"/>
     <g id="text_13">
      <!-- −10800 -->
      <defs>
       <path d="M 51.265625 19.1875 
Q 51.265625 14.796875 49.875 11.109375 
Q 48.484375 7.421875 45.625 4.734375 
Q 42.78125 2.046875 38.328125 0.53125 
Q 33.890625 -0.984375 27.828125 -0.984375 
Q 21.78125 -0.984375 17.359375 0.53125 
Q 12.9375 2.046875 10.03125 4.703125 
Q 7.125 7.375 5.734375 11.0625 
Q 4.34375 14.75 4.34375 19.09375 
Q 4.34375 22.859375 5.484375 25.78125 
Q 6.640625 28.71875 8.5625 30.828125 
Q 10.5 32.953125 12.96875 34.25 
Q 15.4375 35.546875 18.0625 35.984375 
L 18.0625 36.1875 
Q 15.1875 36.859375 12.90625 38.375 
Q 10.640625 39.890625 9.09375 42.015625 
Q 7.5625 44.140625 6.75 46.71875 
Q 5.953125 49.3125 5.953125 52.203125 
Q 5.953125 55.8125 7.34375 59 
Q 8.734375 62.203125 11.46875 64.625 
Q 14.203125 67.046875 18.25 68.4375 
Q 22.3125 69.828125 27.640625 69.828125 
Q 33.25 69.828125 37.375 68.40625 
Q 41.5 67 44.203125 64.578125 
Q 46.921875 62.15625 48.234375 58.9375 
Q 49.5625 55.71875 49.5625 52.09375 
Q 49.5625 49.265625 48.75 46.671875 
Q 47.953125 44.09375 46.40625 41.96875 
Q 44.875 39.84375 42.59375 38.34375 
Q 40.328125 36.859375 37.359375 36.28125 
L 37.359375 36.078125 
Q 40.328125 35.59375 42.859375 34.296875 
Q 45.40625 33.015625 47.265625 30.890625 
Q 49.125 28.765625 50.1875 25.828125 
Q 51.265625 22.90625 51.265625 19.1875 
M 40.4375 51.609375 
Q 40.4375 54.203125 39.765625 56.34375 
Q 39.109375 58.5 37.59375 60.03125 
Q 36.078125 61.578125 33.640625 62.421875 
Q 31.203125 63.28125 27.640625 63.28125 
Q 24.171875 63.28125 21.78125 62.421875 
Q 19.390625 61.578125 17.84375 60.03125 
Q 16.3125 58.5 15.625 56.34375 
Q 14.9375 54.203125 14.9375 51.609375 
Q 14.9375 49.5625 15.46875 47.40625 
Q 16.015625 45.265625 17.421875 43.5 
Q 18.84375 41.75 21.328125 40.625 
Q 23.828125 39.5 27.734375 39.5 
Q 31.890625 39.5 34.40625 40.625 
Q 36.921875 41.75 38.25 43.5 
Q 39.59375 45.265625 40.015625 47.40625 
Q 40.4375 49.5625 40.4375 51.609375 
M 42.140625 20.015625 
Q 42.140625 22.515625 41.453125 24.828125 
Q 40.765625 27.15625 39.109375 28.9375 
Q 37.453125 30.71875 34.640625 31.8125 
Q 31.84375 32.90625 27.640625 32.90625 
Q 23.78125 32.90625 21.0625 31.8125 
Q 18.359375 30.71875 16.671875 28.90625 
Q 14.984375 27.09375 14.203125 24.71875 
Q 13.421875 22.359375 13.421875 19.828125 
Q 13.421875 16.65625 14.203125 14.03125 
Q 14.984375 11.421875 16.6875 9.546875 
Q 18.40625 7.671875 21.1875 6.640625 
Q 23.96875 5.609375 27.9375 5.609375 
Q 31.9375 5.609375 34.671875 6.640625 
Q 37.40625 7.671875 39.0625 9.546875 
Q 40.71875 11.421875 41.421875 14.078125 
Q 42.140625 16.75 42.140625 20.015625 
" id="LiberationSans-38"/>
      </defs>
      <g style="fill:#262626;" transform="translate(31.3546875 112.5859375)scale(0.1 -0.1)">
       <use xlink:href="#LiberationSans-2212"/>
       <use x="58.3984375" xlink:href="#LiberationSans-31"/>
       <use x="114.013671875" xlink:href="#LiberationSans-30"/>
       <use x="169.62890625" xlink:href="#LiberationSans-38"/>
       <use x="225.244140625" xlink:href="#LiberationSans-30"/>
       <use x="280.859375" xlink:href="#LiberationSans-30"/>
      </g>
     </g>
    </g>
    <g id="ytick_9">
     <g id="line2d_37">
      <path clip-path="url(#p8b41b444e7)" d="M 72 74.8 
L 518.4 74.8 
" style="fill:none;stroke:#ffffff;stroke-linecap:round;"/>
     </g>
     <g id="line2d_38"/>
     <g id="line2d_39"/>
     <g id="text_14">
      <!-- −10700 -->
      <g style="fill:#262626;" transform="translate(31.3546875 77.3859375)scale(0.1 -0.1)">
       <use xlink:href="#LiberationSans-2212"/>
       <use x="58.3984375" xlink:href="#LiberationSans-31"/>
       <use x="114.013671875" xlink:href="#LiberationSans-30"/>
       <use x="169.62890625" xlink:href="#LiberationSans-37"/>
       <use x="225.244140625" xlink:href="#LiberationSans-30"/>
       <use x="280.859375" xlink:href="#LiberationSans-30"/>
      </g>
     </g>
    </g>
    <g id="ytick_10">
     <g id="line2d_40">
      <path clip-path="url(#p8b41b444e7)" d="M 72 39.6 
L 518.4 39.6 
" style="fill:none;stroke:#ffffff;stroke-linecap:round;"/>
     </g>
     <g id="line2d_41"/>
     <g id="line2d_42"/>
     <g id="text_15">
      <!-- −10600 -->
      <g style="fill:#262626;" transform="translate(31.3546875 42.1859375)scale(0.1 -0.1)">
       <use xlink:href="#LiberationSans-2212"/>
       <use x="58.3984375" xlink:href="#LiberationSans-31"/>
       <use x="114.013671875" xlink:href="#LiberationSans-30"/>
       <use x="169.62890625" xlink:href="#LiberationSans-36"/>
       <use x="225.244140625" xlink:href="#LiberationSans-30"/>
       <use x="280.859375" xlink:href="#LiberationSans-30"/>
      </g>
     </g>
    </g>
   </g>
   <g id="line2d_43">
    <path clip-path="url(#p8b41b444e7)" d="M 72 289.078918 
L 72.223312 289.078918 
L 72.446623 287.836358 
L 72.669935 291.564038 
L 73.33987 291.564038 
L 73.786493 299.353278 
L 74.009805 291.564038 
L 74.233117 299.353278 
L 74.456428 297.930117 
L 74.67974 304.327038 
L 74.903052 299.172677 
L 75.126363 299.172677 
L 75.349675 297.780358 
L 75.796298 302.900357 
L 76.01961 300.415237 
L 76.466233 309.120197 
L 76.912856 298.845837 
L 77.136168 298.845837 
L 77.582791 311.459078 
L 77.806103 326.526597 
L 78.029415 316.432838 
L 78.252726 315.186758 
L 78.476038 316.432838 
L 78.69935 316.432838 
L 78.922661 319.064197 
L 79.145973 320.306757 
L 79.592596 310.216518 
L 79.815908 312.701638 
L 80.03922 306.304717 
L 80.262531 307.547277 
L 80.485843 303.816077 
L 80.932466 311.459078 
L 81.155778 306.304717 
L 81.37909 311.459078 
L 81.602401 305.062157 
L 81.825713 307.547277 
L 82.049025 308.789837 
L 82.272336 307.547277 
L 82.495648 298.696078 
L 82.718959 294.787796 
L 83.165583 303.816077 
L 83.388894 298.696078 
L 83.612206 305.062157 
L 83.835518 301.184718 
L 84.058829 301.184718 
L 84.282141 303.816077 
L 84.505453 305.062157 
L 84.728764 297.453518 
L 84.952076 296.210958 
L 85.175388 291.056596 
L 85.398699 300.088397 
L 85.622011 297.453518 
L 85.845323 302.573517 
L 86.068634 293.541716 
L 86.291946 292.299156 
L 86.515258 297.453518 
L 86.738569 293.541716 
L 86.961881 292.299156 
L 87.185193 289.814036 
L 87.408504 283.451477 
L 87.631816 280.782236 
L 87.855128 284.694037 
L 88.301751 280.635997 
L 88.525063 278.147357 
L 88.748374 289.994638 
L 88.971686 287.325396 
L 89.194997 286.082836 
L 89.418309 291.237198 
L 89.641621 280.962837 
L 89.864932 283.451477 
L 90.088244 283.451477 
L 90.311556 266.776676 
L 90.758179 276.904797 
L 90.981491 276.724196 
L 91.204802 272.992996 
L 91.428114 272.992996 
L 91.651426 262.718636 
L 91.874737 267.872997 
L 92.098049 266.630437 
L 92.321361 261.476076 
L 92.544672 261.476076 
L 92.767984 267.872997 
L 92.991296 269.119077 
L 93.214607 274.239076 
L 93.437919 285.755996 
L 93.661231 286.998556 
L 93.884542 284.513436 
L 94.331166 274.239076 
L 94.554477 281.878557 
L 94.777789 275.481636 
L 95.001101 281.878557 
L 95.224412 280.635997 
L 95.447724 274.419677 
L 95.671036 271.931037 
L 95.894347 265.534116 
L 96.117659 266.776676 
L 96.34097 266.776676 
L 96.564282 262.902757 
L 96.787594 265.534116 
L 97.010905 266.776676 
L 97.234217 266.776676 
L 97.457529 254.017196 
L 97.68084 256.682917 
L 97.904152 261.802916 
L 98.350775 252.774636 
L 98.574087 257.928997 
L 98.797399 257.928997 
L 99.02071 261.802916 
L 99.244022 259.171557 
L 99.467334 251.382317 
L 99.690645 257.748396 
L 99.913957 257.748396 
L 100.137269 253.870957 
L 100.36058 253.870957 
L 100.583892 261.476076 
L 100.807204 257.748396 
L 101.253827 255.259756 
L 101.477139 261.656677 
L 101.70045 255.259756 
L 101.923762 256.502316 
L 102.147074 263.964716 
L 102.370385 252.444275 
L 102.593697 253.690355 
L 102.817009 253.870957 
L 103.04032 257.598637 
L 103.263632 247.474035 
L 103.486943 254.017196 
L 103.710255 242.500275 
L 103.933567 241.254195 
L 104.156878 241.254195 
L 104.38019 238.622837 
L 104.603502 243.742835 
L 104.826813 236.134197 
L 105.273437 242.680877 
L 105.496748 240.192237 
L 105.72006 247.800876 
L 105.943372 238.949677 
L 106.166683 244.069676 
L 106.389995 244.069676 
L 106.613307 240.192237 
L 106.836618 240.192237 
L 107.05993 245.312236 
L 107.283242 227.432757 
L 107.506553 228.821555 
L 107.729865 228.821555 
L 107.953177 230.067635 
L 108.176488 232.552755 
L 108.3998 228.821555 
L 108.623112 236.464557 
L 108.846423 231.310195 
L 109.069735 230.067635 
L 109.293047 233.975917 
L 109.516358 229.002157 
L 109.73967 235.368236 
L 109.962981 234.122156 
L 110.186293 227.905836 
L 110.409605 210.026357 
L 110.856228 222.605235 
L 111.07954 215.000117 
L 111.302851 216.242677 
L 111.749475 212.330875 
L 111.972786 218.727797 
L 112.642721 215.000117 
L 112.866033 225.274477 
L 113.089345 212.511477 
L 113.312656 207.357115 
L 113.535968 207.357115 
L 113.75928 203.629435 
L 113.982591 212.511477 
L 114.205903 211.268917 
L 114.429215 217.631475 
L 114.652526 215.000117 
L 114.875838 197.920557 
L 115.09915 194.008755 
L 115.322461 186.549875 
L 115.545773 200.409197 
L 115.769085 201.471155 
L 115.992396 204.136877 
L 116.215708 202.894317 
L 116.43902 200.409197 
L 116.662331 204.283116 
L 117.108954 181.902956 
L 117.332266 183.149036 
L 117.555578 157.626555 
L 117.778889 171.812717 
L 118.002201 164.169715 
L 118.225513 171.958956 
L 118.448824 175.870757 
L 118.672136 176.932716 
L 118.895448 188.449636 
L 119.118759 175.686636 
L 119.342071 181.902956 
L 119.565383 176.782957 
L 119.788694 175.540397 
L 120.012006 181.902956 
L 120.235318 176.782957 
L 120.458629 178.175276 
L 120.681941 173.055277 
L 120.905253 175.686636 
L 121.128564 175.540397 
L 121.351876 179.417836 
L 121.575188 173.055277 
L 122.021811 175.540397 
L 122.245123 175.359795 
L 122.468434 178.029037 
L 122.691746 172.874675 
L 122.915058 174.297837 
L 123.138369 173.055277 
L 123.584992 186.876716 
L 123.808304 176.782957 
L 124.254927 179.271597 
L 124.701551 166.658355 
L 124.924862 169.143475 
L 125.148174 166.508597 
L 125.371486 167.754677 
L 125.594797 167.754677 
L 126.041421 148.448516 
L 126.488044 161.207996 
L 126.711356 163.696636 
L 126.934667 156.053635 
L 127.157979 154.811075 
L 127.381291 156.053635 
L 127.604602 159.965436 
L 127.827914 150.933636 
L 128.051226 153.568515 
L 128.274537 160.111675 
L 128.497849 161.354235 
L 128.721161 152.325955 
L 128.944472 154.811075 
L 129.167784 153.568515 
L 129.391096 159.965436 
L 129.614407 154.811075 
L 129.837719 157.299715 
L 130.061031 158.396036 
L 130.284342 162.123716 
L 130.507654 155.726795 
L 130.954277 166.001155 
L 131.177589 160.881156 
L 131.4009 160.881156 
L 131.847524 170.974915 
L 132.294147 164.758595 
L 132.517459 166.001155 
L 132.74077 166.001155 
L 133.187394 179.860476 
L 133.410705 168.340036 
L 134.08064 179.676355 
L 134.303952 177.191235 
L 134.527264 172.071236 
L 134.750575 178.433795 
L 134.973887 173.313796 
L 135.197199 170.828676 
L 135.42051 165.854916 
L 135.643822 169.732355 
L 135.867134 177.371836 
L 136.090445 174.886716 
L 136.313757 174.886716 
L 136.76038 165.854916 
L 136.983692 165.854916 
L 137.430315 168.486275 
L 137.653627 164.612356 
L 137.876938 166.001155 
L 138.10025 160.881156 
L 138.546873 167.243715 
L 138.770185 160.881156 
L 138.993497 166.001155 
L 139.44012 158.211915 
L 139.663432 160.881156 
L 139.886743 162.123716 
L 140.110055 171.155516 
L 140.333367 164.758595 
L 140.556678 164.758595 
L 141.003302 167.243715 
L 141.226613 155.726795 
L 141.449925 156.969355 
L 141.673237 149.510475 
L 142.11986 160.881156 
L 142.566483 158.211915 
L 142.789795 159.457995 
L 143.013107 163.366276 
L 143.236418 163.366276 
L 143.45973 164.612356 
L 143.683042 170.828676 
L 143.906353 169.586116 
L 144.129665 165.674315 
L 144.576288 170.828676 
L 145.022911 155.399955 
L 145.246223 155.399955 
L 145.469535 156.823116 
L 145.692846 166.770636 
L 145.916158 155.253716 
L 146.13947 154.007636 
L 146.362781 166.770636 
L 146.809405 152.765076 
L 147.032716 159.127635 
L 147.256028 152.765076 
L 147.47934 152.765076 
L 147.702651 153.827034 
L 147.925963 143.733275 
L 148.149275 142.490715 
L 148.595898 133.789275 
L 148.81921 133.935514 
L 149.489145 114.809955 
L 149.712456 122.418594 
L 149.935768 121.172514 
L 150.15908 118.687394 
L 150.382391 121.172514 
L 150.829015 121.172514 
L 151.052326 122.418594 
L 151.275638 114.809955 
L 151.498949 121.172514 
L 151.722261 118.541155 
L 151.945573 110.898154 
L 152.168884 114.629354 
L 152.392196 107.024235 
L 152.615508 104.681834 
L 152.838819 107.170474 
L 153.062131 107.351075 
L 153.285443 102.050475 
L 153.508754 107.170474 
L 153.955378 109.655594 
L 154.178689 107.024235 
L 154.402001 102.050475 
L 154.625313 114.809955 
L 154.848624 119.929954 
L 155.071936 109.836195 
L 155.295248 112.324835 
L 155.741871 102.050475 
L 155.965183 107.170474 
L 156.188494 105.778155 
L 156.411806 107.170474 
L 156.635118 102.050475 
L 156.858429 109.655594 
L 157.081741 109.655594 
L 157.528364 107.024235 
L 157.751676 116.052515 
L 157.974987 108.413034 
L 158.198299 105.778155 
L 158.421611 107.170474 
L 158.644922 97.076715 
L 158.868234 104.681834 
L 159.091546 97.076715 
L 159.314857 99.561835 
L 159.538169 104.681834 
L 159.761481 104.681834 
L 159.984792 100.954154 
L 160.208104 103.439274 
L 160.431416 104.681834 
L 160.654727 103.439274 
L 160.878039 100.807915 
L 161.101351 99.561835 
L 161.324662 99.561835 
L 161.547974 104.681834 
L 161.771286 107.170474 
L 161.994597 103.293035 
L 162.217909 107.170474 
L 162.441221 104.535595 
L 162.664532 104.681834 
L 162.887844 99.561835 
L 163.111156 100.807915 
L 163.334467 100.807915 
L 163.557779 107.170474 
L 163.781091 118.541155 
L 164.004402 113.567395 
L 164.227714 117.444834 
L 164.451026 112.324835 
L 164.674337 117.444834 
L 164.897649 117.444834 
L 165.12096 122.599195 
L 165.344272 123.072275 
L 165.567584 129.469196 
L 165.790895 129.288595 
L 166.014207 125.411156 
L 166.237519 115.136795 
L 166.46083 124.314835 
L 166.684142 120.440916 
L 166.907454 125.411156 
L 167.130765 125.411156 
L 167.354077 143.474756 
L 167.577389 142.232196 
L 168.024012 112.062796 
L 168.247324 108.335116 
L 168.470635 107.092556 
L 168.693947 101.938195 
L 168.917259 109.577676 
L 169.14057 102.265035 
L 169.363882 105.996235 
L 169.810505 78.165716 
L 170.033817 83.139476 
L 170.48044 80.654356 
L 170.703752 89.502035 
L 170.927064 89.502035 
L 171.150375 94.656396 
L 171.596998 89.686156 
L 171.82031 74.764876 
L 172.043622 88.589835 
L 172.266933 83.616075 
L 172.490245 88.589835 
L 172.713557 80.981196 
L 172.936868 92.317515 
L 173.383492 84.712396 
L 173.606803 92.317515 
L 174.276738 75.826835 
L 174.723362 89.832395 
L 174.946673 85.954956 
L 175.169985 91.074955 
L 175.616608 84.858635 
L 176.063232 91.074955 
L 176.286543 91.074955 
L 176.733167 86.101195 
L 176.956478 88.589835 
L 177.17979 86.101195 
L 177.403102 96.375555 
L 177.626413 91.255556 
L 177.849725 96.375555 
L 178.073037 81.457795 
L 178.51966 75.237955 
L 178.742971 76.337796 
L 178.966283 82.700355 
L 179.189595 83.942915 
L 179.412906 91.582396 
L 179.636218 90.339836 
L 179.85953 83.942915 
L 180.082841 86.428035 
L 180.306153 83.796676 
L 180.529465 85.039236 
L 180.752776 82.554116 
L 180.976088 77.399755 
L 181.1994 91.255556 
L 181.422711 87.343755 
L 181.869335 112.212555 
L 182.092646 111.150596 
L 182.315958 107.238795 
L 182.53927 107.419396 
L 182.762581 113.635716 
L 183.209205 110.966475 
L 183.432516 105.846476 
L 183.655828 112.212555 
L 183.87914 108.481355 
L 184.102451 108.481355 
L 184.325763 113.635716 
L 184.772386 103.361356 
L 184.995698 103.361356 
L 185.21901 104.603916 
L 185.442321 98.206995 
L 185.888944 95.721875 
L 186.112256 91.844436 
L 186.335568 95.721875 
L 186.558879 94.475795 
L 186.782191 95.721875 
L 187.005503 95.721875 
L 187.452126 98.206995 
L 187.898749 85.628116 
L 188.122061 88.113236 
L 188.568684 77.658274 
L 188.791996 87.932634 
L 189.015308 86.690074 
L 189.461931 81.570075 
L 189.685243 82.812635 
L 189.908554 82.812635 
L 190.131866 87.932634 
L 190.355178 80.327515 
L 190.578489 81.570075 
L 190.801801 79.081435 
L 191.248424 90.601876 
L 191.471736 89.355796 
L 191.695048 90.748115 
L 191.918359 88.113236 
L 192.141671 89.355796 
L 192.364982 86.870676 
L 192.588294 89.355796 
L 192.811606 93.233235 
L 193.034917 90.601876 
L 193.258229 95.721875 
L 193.481541 89.355796 
L 193.704852 94.475795 
L 193.928164 95.721875 
L 194.151476 85.628116 
L 194.374787 84.382036 
L 194.821411 96.964435 
L 195.044722 91.844436 
L 195.491346 89.355796 
L 195.714657 91.990675 
L 195.937969 90.601876 
L 196.384592 90.601876 
L 196.607904 89.355796 
L 196.831216 77.838875 
L 197.054527 86.870676 
L 197.277839 74.257434 
L 197.501151 71.622555 
L 197.724462 71.622555 
L 197.947774 69.137435 
L 198.171086 72.865115 
L 198.617709 72.865115 
L 198.841021 75.353755 
L 199.064332 68.953314 
L 199.287644 76.415714 
L 199.510955 78.900834 
L 199.734267 77.331434 
L 199.957579 72.211435 
L 200.18089 72.211435 
L 200.404202 79.670315 
L 200.627514 80.912875 
L 200.850825 72.027314 
L 201.074137 72.027314 
L 201.297449 61.752953 
L 201.52076 65.484153 
L 201.744072 87.864313 
L 201.967384 79.013114 
L 202.190695 77.770554 
L 202.637319 83.986874 
L 202.86063 74.039354 
L 203.083942 72.796794 
L 203.307254 75.285434 
L 203.530565 76.527994 
L 203.753877 80.259194 
L 203.977189 86.621753 
L 204.2005 80.259194 
L 204.423812 82.890553 
L 204.647124 79.013114 
L 204.870435 85.379193 
L 205.54037 75.104833 
L 205.763682 78.832513 
L 205.986993 72.469954 
L 206.210305 85.048833 
L 206.433617 87.718074 
L 206.656928 92.838073 
L 206.88024 83.986874 
L 207.103552 82.744314 
L 207.326863 73.858753 
L 207.550175 79.013114 
L 207.773487 80.259194 
L 207.996798 80.259194 
L 208.22011 81.501754 
L 208.666733 69.984834 
L 209.113357 78.832513 
L 209.336668 72.469954 
L 209.55998 76.201154 
L 209.783292 71.046793 
L 210.453227 101.066434 
L 210.676538 104.943873 
L 210.89985 104.797634 
L 211.123162 104.797634 
L 211.346473 109.917633 
L 211.569785 106.367034 
L 211.793097 112.729593 
L 212.23972 104.943873 
L 212.463032 111.340794 
L 212.686343 111.340794 
L 212.909655 116.460793 
L 213.132966 138.252074 
L 213.57959 126.735154 
L 213.802901 138.105835 
L 214.026213 125.346355 
L 214.472836 145.564715 
L 214.91946 131.708914 
L 215.142771 127.977714 
L 215.366083 140.740714 
L 215.589395 135.620715 
L 215.812706 141.652914 
L 216.036018 130.135993 
L 216.25933 130.135993 
L 216.482641 121.434553 
L 216.705953 123.919673 
L 216.929265 113.645313 
L 217.152576 118.799674 
L 217.375888 108.525314 
L 217.5992 120.042234 
L 217.822511 117.557114 
L 218.492446 106.040194 
L 218.93907 120.777353 
L 219.162381 115.657354 
L 219.385693 118.145994 
L 219.609005 123.265993 
L 219.832316 122.019913 
L 220.055628 125.604874 
L 220.278939 135.698633 
L 220.502251 126.993673 
L 220.725563 126.993673 
L 220.948874 133.209993 
L 221.172186 134.636674 
L 221.395498 129.662914 
L 221.842121 142.568633 
L 222.065433 137.448634 
L 222.288744 141.179834 
L 222.512056 136.206074 
L 222.958679 150.211635 
L 223.181991 170.760355 
L 223.405303 169.517795 
L 223.628614 159.243435 
L 223.851926 161.874794 
L 224.075238 160.632234 
L 224.298549 163.117354 
L 224.521861 172.149154 
L 224.745173 164.544035 
L 225.191796 160.485995 
L 225.415108 170.579754 
L 225.638419 162.971115 
L 225.861731 187.251035 
L 226.085043 188.639834 
L 226.308354 192.551636 
L 226.531666 173.391714 
L 226.754977 175.880354 
L 226.978289 179.792155 
L 227.201601 170.906594 
L 227.424912 176.060955 
L 227.648224 167.029155 
L 227.871536 177.303515 
L 228.094847 179.792155 
L 228.318159 178.546075 
L 228.764782 181.180954 
L 228.988094 192.697875 
L 229.211406 191.309076 
L 229.434717 191.455315 
L 229.658029 187.577876 
L 229.881341 186.481555 
L 230.104652 182.604116 
L 230.327964 169.990874 
L 230.551276 167.505754 
L 230.774587 168.748314 
L 230.997899 172.475994 
L 231.221211 171.233434 
L 231.667834 158.473954 
L 232.114457 173.722074 
L 232.337769 176.207194 
L 232.561081 180.118996 
L 232.784392 177.449754 
L 233.007704 168.602075 
L 233.231016 165.932834 
L 233.454327 168.421474 
L 233.677639 167.175394 
L 233.90095 167.175394 
L 234.124262 164.690274 
L 234.347574 165.932834 
L 234.570885 173.575835 
L 235.017509 155.839075 
L 235.24082 154.596515 
L 235.464132 159.570275 
L 235.687444 159.570275 
L 235.910755 163.447714 
L 236.134067 171.233434 
L 236.357379 171.233434 
L 236.58069 168.748314 
L 236.804002 173.722074 
L 237.027314 175.145236 
L 237.250625 175.145236 
L 237.473937 176.387796 
L 237.697249 171.233434 
L 237.92056 173.722074 
L 238.143872 166.113435 
L 238.367184 177.630356 
L 238.590495 177.630356 
L 238.813807 172.475994 
L 239.037119 178.876436 
L 239.26043 173.722074 
L 239.707054 176.207194 
L 239.930365 181.361556 
L 240.153677 173.722074 
L 240.376988 171.233434 
L 240.6003 169.990874 
L 240.823612 166.113435 
L 241.046923 166.259674 
L 241.270235 163.628315 
L 241.493547 175.145236 
L 241.716858 178.876436 
L 241.94017 177.630356 
L 242.163482 185.238995 
L 242.386793 182.750355 
L 242.610105 186.481555 
L 242.833417 183.850196 
L 243.056728 195.367116 
L 243.28004 190.212755 
L 243.503352 188.970195 
L 243.726663 188.970195 
L 243.949975 196.755915 
L 244.173287 197.998475 
L 244.396598 197.998475 
L 244.843222 188.820436 
L 245.066533 207.945995 
L 245.289845 205.460875 
L 245.513157 197.852236 
L 245.736468 196.609676 
L 245.95978 186.335316 
L 246.183092 185.092756 
L 246.406403 186.335316 
L 246.629715 182.604116 
L 246.853027 183.996435 
L 247.076338 183.996435 
L 247.29965 181.361556 
L 247.522961 181.361556 
L 247.746273 183.850196 
L 247.969585 190.212755 
L 248.192896 191.309076 
L 248.416208 191.309076 
L 248.63952 195.036756 
L 249.532766 184.912154 
L 249.756078 186.154714 
L 249.97939 186.154714 
L 250.202701 195.036756 
L 250.426013 196.429075 
L 250.649325 196.429075 
L 250.872636 195.186515 
L 251.095948 188.820436 
L 251.31926 188.820436 
L 251.542571 191.309076 
L 251.765883 183.666074 
L 251.989195 183.666074 
L 252.212506 182.423514 
L 252.65913 192.551636 
L 252.882441 197.671635 
L 253.105753 197.671635 
L 253.329065 192.551636 
L 253.998999 200.340876 
L 254.222311 201.583436 
L 254.445623 204.214795 
L 254.668934 195.367116 
L 254.892246 195.367116 
L 255.115558 197.852236 
L 255.338869 197.852236 
L 255.562181 195.186515 
L 255.785493 196.429075 
L 256.008804 192.551636 
L 256.678739 188.820436 
L 256.902051 190.066516 
L 257.125363 190.066516 
L 257.348674 193.940435 
L 257.571986 191.309076 
L 257.795298 186.335316 
L 258.018609 178.695834 
L 258.465233 181.180954 
L 258.688544 185.092756 
L 259.135168 176.207194 
L 259.358479 185.092756 
L 259.581791 186.335316 
L 259.805103 190.066516 
L 260.475038 181.034715 
L 260.698349 187.397274 
L 260.921661 179.792155 
L 261.144972 183.666074 
L 261.368284 183.666074 
L 261.814907 188.820436 
L 262.038219 184.912154 
L 262.484842 196.282836 
L 262.708154 187.397274 
L 262.931466 192.551636 
L 263.378089 190.066516 
L 263.601401 190.066516 
L 263.824712 198.914195 
L 264.048024 197.671635 
L 264.271336 198.914195 
L 264.494647 198.914195 
L 264.941271 176.207194 
L 265.164582 177.449754 
L 265.387894 179.938394 
L 265.611206 178.695834 
L 265.834517 167.175394 
L 266.057829 173.575835 
L 266.281141 118.609476 
L 266.504452 150.821356 
L 266.727764 149.759397 
L 266.951076 163.253996 
L 267.174387 153.160237 
L 267.397699 137.731515 
L 267.844322 149.102197 
L 268.290945 173.055277 
L 268.514257 172.874675 
L 268.737569 162.780917 
L 268.96088 164.023477 
L 269.184192 179.417836 
L 269.407504 168.081517 
L 270.077439 184.899037 
L 270.30075 183.656477 
L 270.524062 183.475876 
L 270.747374 189.872797 
L 270.970685 179.744676 
L 271.193997 180.990756 
L 271.417309 169.650917 
L 271.64062 178.502116 
L 271.863932 178.502116 
L 272.087244 180.990756 
L 272.310555 178.355877 
L 272.533867 172.139557 
L 272.757179 173.382117 
L 272.98049 159.526316 
L 273.203802 173.528356 
L 273.427114 167.165797 
L 273.650425 171.043236 
L 273.873737 172.285796 
L 274.097049 174.770916 
L 274.32036 169.650917 
L 274.543672 177.259556 
L 274.766983 174.770916 
L 274.990295 177.259556 
L 275.213607 178.502116 
L 275.436918 176.016996 
L 275.66023 177.259556 
L 275.883542 179.744676 
L 276.106853 177.259556 
L 276.330165 173.382117 
L 276.553477 179.744676 
L 276.776788 182.413917 
L 277.0001 181.171357 
L 277.223412 188.776476 
L 277.446723 191.445717 
L 277.670035 188.957077 
L 277.893347 197.808276 
L 278.116658 195.319636 
L 278.33997 199.231438 
L 278.563282 197.988878 
L 278.786593 203.108877 
L 279.009905 213.383237 
L 279.233217 197.073158 
L 279.456528 192.245637 
L 279.67984 149.973957 
L 279.903152 153.558918 
L 280.126463 166.137797 
L 280.349775 157.286598 
L 280.573087 161.017798 
L 280.796398 168.622917 
L 281.01971 166.137797 
L 281.243022 172.354117 
L 281.466333 167.380357 
L 281.689645 166.137797 
L 281.912956 169.868997 
L 282.136268 159.775238 
L 282.35958 170.049598 
L 282.582891 171.292158 
L 283.029515 175.169597 
L 283.252826 173.927037 
L 283.69945 168.807038 
L 283.922761 167.380357 
L 284.146073 177.654717 
L 284.369385 176.412157 
L 285.03932 176.412157 
L 285.262631 170.049598 
L 285.485943 176.412157 
L 285.709255 173.927037 
L 285.932566 173.927037 
L 286.155878 180.323958 
L 286.37919 179.081398 
L 286.602501 179.227637 
L 286.825813 178.165679 
L 287.272436 203.684639 
L 287.495748 202.261478 
L 287.71906 209.904479 
L 287.942371 211.293278 
L 288.388994 202.588318 
L 288.835618 192.313958 
L 289.058929 192.644318 
L 289.282241 188.586278 
L 289.505553 208.658399 
L 289.728864 205.992678 
L 289.952176 218.932759 
L 290.175488 212.535838 
L 290.398799 209.904479 
L 290.622111 201.018918 
L 290.845423 216.267038 
L 291.292046 198.530278 
L 291.515358 201.018918 
L 291.738669 190.925159 
L 291.961981 203.684639 
L 292.185293 199.956959 
L 292.408604 199.956959 
L 292.631916 201.345758 
L 292.855228 196.225759 
L 293.748474 215.205079 
L 293.971786 212.716439 
L 294.195098 202.442079 
L 294.418409 199.956959 
L 294.641721 187.193959 
L 294.865033 194.802598 
L 295.088344 196.225759 
L 295.534967 184.855078 
L 295.758279 182.223719 
L 295.981591 186.097638 
L 296.204902 174.761319 
L 296.651526 192.313958 
L 296.874837 192.313958 
L 297.098149 194.802598 
L 297.321461 206.319518 
L 297.544772 206.319518 
L 297.768084 199.956959 
L 297.991396 197.468319 
L 298.214707 197.468319 
L 298.438019 194.802598 
L 298.661331 193.740639 
L 298.884642 197.468319 
L 299.107954 207.742679 
L 299.331266 200.103198 
L 299.777889 206.500119 
L 300.001201 197.618078 
L 300.224512 201.345758 
L 300.447824 198.860638 
L 300.671136 200.103198 
L 300.894447 179.554477 
L 301.117759 184.708839 
L 301.341071 185.951399 
L 301.564382 194.983199 
L 301.787694 194.983199 
L 302.011006 193.560038 
L 302.234317 197.468319 
L 302.68094 188.586278 
L 302.904252 181.123878 
L 303.127564 186.278239 
L 303.350875 186.097638 
L 303.574187 190.009439 
L 303.797499 190.009439 
L 304.02081 185.035679 
L 304.244122 186.427998 
L 304.467434 191.398238 
L 304.690745 187.670558 
L 305.137369 196.225759 
L 305.36068 193.740639 
L 305.583992 193.740639 
L 305.807304 227.195079 
L 306.030615 206.646358 
L 306.253927 218.166798 
L 306.477239 211.800719 
L 306.70055 210.558159 
L 306.923862 202.918678 
L 307.147174 213.046799 
L 307.370485 204.014999 
L 307.593797 206.646358 
L 307.817109 207.892438 
L 308.04042 202.772439 
L 308.263732 200.283799 
L 308.710355 200.283799 
L 308.933667 196.371998 
L 309.38029 204.161238 
L 309.603602 200.283799 
L 309.826913 200.283799 
L 310.050225 197.798679 
L 310.273537 209.315599 
L 310.496848 204.161238 
L 310.72016 205.403798 
L 311.166783 187.851159 
L 311.390095 200.283799 
L 311.613407 205.257559 
L 311.836718 202.772439 
L 312.283342 213.046799 
L 312.506653 204.161238 
L 312.729965 210.558159 
L 312.953277 201.672598 
L 313.176588 202.918678 
L 313.623212 197.798679 
L 313.846523 199.041239 
L 314.069835 202.918678 
L 314.293147 199.187478 
L 314.73977 210.704398 
L 314.963082 209.461838 
L 315.186393 209.315599 
L 315.409705 211.800719 
L 315.633017 218.166798 
L 315.856328 211.800719 
L 316.07964 218.166798 
L 316.302951 220.651918 
L 316.526263 225.80628 
L 316.749575 224.56372 
L 316.972886 158.08044 
L 317.196198 141.409159 
L 317.41951 141.58976 
L 317.642821 137.53172 
L 317.866133 145.136839 
L 318.089445 138.77428 
L 318.312756 146.23316 
L 318.536068 147.47572 
L 318.75938 130.985039 
L 319.206003 143.421199 
L 319.429315 131.900759 
L 319.652626 145.906319 
L 319.875938 142.175119 
L 320.09925 145.906319 
L 320.322561 152.268878 
L 320.769185 134.389399 
L 320.992496 131.720158 
L 321.215808 141.667678 
L 321.43912 135.305119 
L 321.662431 132.816479 
L 321.885743 126.419558 
L 322.109055 132.816479 
L 322.332366 123.934438 
L 322.555678 132.962718 
L 322.778989 130.331359 
L 323.002301 135.451358 
L 323.225613 132.962718 
L 323.448924 131.720158 
L 323.672236 132.962718 
L 324.118859 121.626399 
L 324.342171 122.872479 
L 324.565483 129.235038 
L 324.788794 130.477598 
L 325.012106 118.960678 
L 325.235418 122.872479 
L 325.458729 116.472038 
L 325.682041 122.872479 
L 325.905353 115.410079 
L 326.128664 116.652639 
L 326.351976 112.744358 
L 326.575288 114.167519 
L 326.798599 112.924959 
L 327.021911 121.772638 
L 327.245223 121.772638 
L 327.468534 118.044958 
L 327.691846 116.802398 
L 327.915158 111.682399 
L 328.138469 102.977439 
L 328.361781 110.586078 
L 328.585093 104.219999 
L 328.808404 105.466079 
L 329.031716 109.339998 
L 329.255028 115.556318 
L 329.478339 112.924959 
L 329.924962 112.924959 
L 330.148274 121.772638 
L 330.371586 119.287518 
L 330.594897 123.199319 
L 331.041521 123.199319 
L 331.711456 127.076758 
L 331.934767 127.076758 
L 332.158079 128.319318 
L 332.604702 118.044958 
L 332.828014 119.287518 
L 333.051326 124.441879 
L 333.274637 119.287518 
L 333.497949 121.956759 
L 333.721261 112.924959 
L 333.944572 119.287518 
L 334.167884 115.410079 
L 334.614507 118.225559 
L 334.837819 116.982999 
L 335.284442 119.614358 
L 335.507754 112.009239 
L 335.731066 116.982999 
L 335.954377 110.586078 
L 336.177689 119.468119 
L 336.401001 119.468119 
L 336.624312 128.499919 
L 337.070935 135.958799 
L 337.294247 135.958799 
L 337.517559 138.447439 
L 337.74087 134.535638 
L 338.187494 139.689999 
L 338.410805 130.804438 
L 338.634117 127.076758 
L 338.857429 125.830678 
L 339.08074 130.985039 
L 339.304052 118.371798 
L 339.527364 123.526159 
L 339.750675 122.283599 
L 340.197299 129.888718 
L 340.42061 129.742479 
L 340.643922 127.257359 
L 340.867234 132.377358 
L 341.090545 131.134798 
L 341.313857 122.283599 
L 341.537169 128.646158 
L 341.76048 126.014799 
L 341.983792 126.014799 
L 342.207104 118.371798 
L 342.430415 115.886678 
L 342.653727 124.588118 
L 342.877039 122.102998 
L 343.10035 123.345558 
L 343.323662 118.225559 
L 343.546973 118.225559 
L 343.770285 102.977439 
L 344.216908 114.494359 
L 344.44022 114.494359 
L 344.663532 120.710679 
L 344.886843 115.556318 
L 345.110155 113.071198 
L 345.556778 106.854878 
L 345.78009 109.339998 
L 346.003402 105.612318 
L 346.226713 110.766679 
L 346.450025 99.395998 
L 346.673337 100.638558 
L 346.896648 95.518559 
L 347.11996 100.492319 
L 347.343272 90.217959 
L 347.566583 98.003679 
L 347.789895 99.249759 
L 348.013207 91.606758 
L 348.236518 88.975399 
L 348.45983 99.249759 
L 348.683142 96.761119 
L 348.906453 98.003679 
L 349.129765 101.881118 
L 349.353077 98.003679 
L 349.576388 100.492319 
L 349.7997 114.494359 
L 350.246323 109.524119 
L 350.469635 114.644118 
L 350.692946 109.524119 
L 350.916258 110.766679 
L 351.13957 114.644118 
L 351.362881 109.524119 
L 351.586193 114.644118 
L 351.809505 113.398038 
L 352.256128 103.123678 
L 352.47944 101.881118 
L 352.702751 105.612318 
L 352.926063 105.466079 
L 353.149375 105.466079 
L 353.372686 104.219999 
L 353.595998 106.854878 
L 353.81931 100.492319 
L 354.042621 102.977439 
L 354.265933 108.097438 
L 354.489245 99.065638 
L 354.935868 110.586078 
L 355.15918 109.339998 
L 355.382491 109.339998 
L 355.605803 105.466079 
L 355.829115 107.951199 
L 356.052426 120.860438 
L 356.275738 118.225559 
L 356.49905 124.441879 
L 356.945673 118.044958 
L 357.392296 123.199319 
L 357.615608 113.071198 
L 357.838919 109.193759 
L 358.062231 120.710679 
L 358.285543 114.313758 
L 358.508854 114.313758 
L 358.732166 106.708639 
L 358.955478 110.436319 
L 359.178789 111.682399 
L 359.402101 114.167519 
L 359.625413 123.199319 
L 359.848724 118.044958 
L 360.072036 116.802398 
L 360.295348 116.802398 
L 360.518659 120.710679 
L 360.741971 111.828638 
L 360.965283 109.339998 
L 361.188594 110.766679 
L 361.411906 105.612318 
L 361.635218 109.524119 
L 361.858529 108.097438 
L 362.081841 113.251799 
L 362.305153 106.854878 
L 362.528464 108.097438 
L 362.751776 116.982999 
L 362.975088 120.710679 
L 363.198399 116.982999 
L 363.421711 122.102998 
L 363.645023 116.982999 
L 363.868334 116.982999 
L 364.091646 120.860438 
L 364.538269 113.251799 
L 364.761581 117.129238 
L 364.984892 110.766679 
L 365.208204 113.251799 
L 365.431516 118.371798 
L 365.654827 117.129238 
L 365.878139 118.371798 
L 366.101451 123.526159 
L 366.548074 110.766679 
L 366.771386 105.792919 
L 366.994697 106.854878 
L 367.218009 134.208798 
L 367.441321 132.962718 
L 367.887944 167.6976 
L 368.111256 159.91188 
L 368.334567 161.300679 
L 369.004502 186.823159 
L 369.227814 167.6976 
L 369.451126 176.548799 
L 369.897749 163.785799 
L 370.121061 149.637519 
L 370.344372 147.148879 
L 370.567684 153.511438 
L 370.790995 154.757518 
L 371.014307 145.579479 
L 371.237619 152.122639 
L 371.684242 144.809998 
L 372.130865 117.898719 
L 372.354177 118.044958 
L 372.577489 98.738797 
L 372.8008 92.195637 
L 373.024112 94.861359 
L 373.470735 106.378279 
L 373.694047 98.592559 
L 373.917359 101.077679 
L 374.14067 88.137597 
L 374.363982 97.169397 
L 374.587294 99.835119 
L 374.810605 98.592559 
L 375.257229 93.438197 
L 375.48054 99.835119 
L 375.703852 97.349999 
L 375.927164 101.223917 
L 376.150475 101.223917 
L 376.373787 97.349999 
L 376.597099 102.469997 
L 376.82041 99.835119 
L 377.043722 99.835119 
L 377.490345 94.861359 
L 377.713657 96.103919 
L 377.936968 105.135719 
L 378.16028 93.765037 
L 378.383592 93.765037 
L 378.606903 95.007597 
L 378.830215 95.007597 
L 379.053527 92.522477 
L 379.276838 87.402479 
L 379.50015 88.645039 
L 379.946773 93.765037 
L 380.170085 93.765037 
L 380.616708 87.402479 
L 380.84002 86.159919 
L 381.063332 93.765037 
L 381.286643 96.434279 
L 381.509955 88.791277 
L 381.733267 90.037357 
L 381.956578 93.765037 
L 382.17989 91.279917 
L 382.403202 91.279917 
L 382.626513 92.522477 
L 382.849825 87.402479 
L 383.073137 93.765037 
L 383.296448 92.522477 
L 383.51976 97.676839 
L 383.743072 92.522477 
L 383.966383 98.919399 
L 384.189695 97.676839 
L 384.413007 97.676839 
L 384.636318 92.522477 
L 384.85963 96.434279 
L 385.082941 95.191719 
L 385.306253 102.796838 
L 385.529565 101.554278 
L 385.752876 102.796838 
L 386.1995 95.007597 
L 386.422811 100.161959 
L 386.646123 97.496237 
L 387.092746 105.281958 
L 387.316058 102.650599 
L 387.53937 106.528038 
L 387.762681 101.408039 
L 387.985993 106.528038 
L 388.209305 101.408039 
L 388.655928 105.281958 
L 388.87924 100.311718 
L 389.102551 102.796838 
L 389.325863 101.554278 
L 389.549175 102.796838 
L 389.772486 92.522477 
L 389.995798 91.279917 
L 390.21911 98.919399 
L 390.442421 92.522477 
L 390.665733 96.434279 
L 390.889045 92.703079 
L 391.112356 96.434279 
L 391.558979 106.528038 
L 391.782291 100.161959 
L 392.005603 100.161959 
L 392.452226 106.528038 
L 392.675538 104.039398 
L 393.122161 114.313758 
L 393.345473 116.802398 
L 393.568784 115.556318 
L 393.792096 115.556318 
L 394.015408 114.313758 
L 394.238719 115.556318 
L 394.462031 114.167519 
L 394.685343 116.802398 
L 394.908654 121.956759 
L 395.131966 123.199319 
L 395.355278 125.830678 
L 395.578589 130.985039 
L 395.801901 125.830678 
L 396.025213 130.985039 
L 396.471836 115.886678 
L 396.695148 118.371798 
L 396.918459 118.552399 
L 397.141771 103.454038 
L 397.811706 109.850959 
L 398.035018 104.696598 
L 398.258329 94.422238 
L 398.481641 102.061719 
L 398.704952 99.395998 
L 398.928264 100.638558 
L 399.151576 94.275999 
L 399.598199 112.009239 
L 399.821511 118.225559 
L 400.044822 111.828638 
L 400.268134 114.494359 
L 400.491446 129.561878 
L 400.714757 129.561878 
L 400.938069 123.018718 
L 401.161381 120.530078 
L 401.384692 114.167519 
L 401.831316 125.357599 
L 402.054627 120.383839 
L 402.277939 129.235038 
L 402.501251 121.626399 
L 402.724562 126.746398 
L 402.947874 121.626399 
L 403.171186 120.383839 
L 403.394497 124.261278 
L 403.617809 113.986918 
L 403.841121 113.986918 
L 404.064432 124.261278 
L 404.287744 124.261278 
L 404.511056 119.141279 
L 404.734367 125.503838 
L 404.957679 123.018718 
L 405.18099 126.926999 
L 405.404302 126.926999 
L 405.850925 134.716239 
L 406.074237 128.319318 
L 406.297549 129.561878 
L 406.52086 129.742479 
L 406.744172 127.076758 
L 406.967484 128.319318 
L 407.190795 127.076758 
L 407.414107 134.716239 
L 407.637419 123.199319 
L 407.86073 118.044958 
L 408.084042 121.772638 
L 408.307354 128.173079 
L 408.530665 128.173079 
L 408.977289 125.684439 
L 409.423912 132.046998 
L 409.647224 126.926999 
L 409.870535 124.441879 
L 410.093847 116.802398 
L 410.317159 116.802398 
L 410.54047 114.313758 
L 410.763782 116.802398 
L 410.987094 111.682399 
L 411.210405 110.436319 
L 411.433717 116.802398 
L 411.657029 116.982999 
L 411.88034 118.225559 
L 412.326963 121.956759 
L 412.550275 126.926999 
L 412.773587 120.383839 
L 412.996898 125.503838 
L 413.22021 126.746398 
L 413.443522 123.018718 
L 413.666833 133.293078 
L 413.890145 134.535638 
L 414.113457 132.046998 
L 414.336768 128.173079 
L 414.56008 121.772638 
L 415.006703 124.261278 
L 415.230015 123.018718 
L 415.676638 118.044958 
L 415.89995 124.441879 
L 416.123262 134.862478 
L 416.346573 130.985039 
L 416.569885 136.105038 
L 416.793197 133.619918 
L 417.016508 133.619918 
L 417.23982 132.231119 
L 417.463132 132.231119 
L 417.686443 111.828638 
L 417.909755 123.345558 
L 418.133067 128.646158 
L 418.356378 147.625479 
L 418.57969 130.985039 
L 418.803002 137.351118 
L 419.026313 147.80608 
L 419.249625 152.926079 
L 419.472936 139.10112 
L 419.696248 133.80052 
L 419.91956 147.80608 
L 420.142871 151.683519 
L 420.589495 138.920519 
L 420.812806 145.31744 
L 421.036118 142.83232 
L 421.25943 144.07488 
L 421.482741 142.83232 
L 421.929365 129.888718 
L 422.152676 133.80052 
L 422.5993 136.28916 
L 423.045923 141.409159 
L 423.269235 138.920519 
L 423.492546 140.163079 
L 423.715858 140.163079 
L 423.93917 137.677959 
L 424.162481 132.55796 
L 424.609105 108.278039 
L 424.832416 104.550359 
L 425.055728 104.696598 
L 425.27904 104.550359 
L 425.502351 105.939158 
L 425.948974 114.824719 
L 426.172286 117.309839 
L 426.395598 123.345558 
L 426.618909 124.768719 
L 427.065533 119.614358 
L 427.288844 126.014799 
L 427.512156 124.768719 
L 427.735468 124.768719 
L 427.958779 132.377358 
L 428.182091 128.499919 
L 428.405403 133.619918 
L 428.628714 132.046998 
L 428.852026 139.689999 
L 429.075338 130.804438 
L 429.298649 129.561878 
L 429.521961 132.046998 
L 429.745273 130.804438 
L 429.968584 112.924959 
L 430.191896 112.924959 
L 430.415208 128.319318 
L 430.638519 125.684439 
L 430.861831 127.076758 
L 431.085143 119.468119 
L 431.308454 119.468119 
L 431.531766 127.076758 
L 431.755078 127.076758 
L 431.978389 123.199319 
L 432.201701 121.772638 
L 432.425013 129.235038 
L 432.648324 132.962718 
L 432.871636 130.477598 
L 433.094947 135.451358 
L 433.318259 132.962718 
L 433.541571 145.398878 
L 433.764882 145.579479 
L 433.988194 147.883998 
L 434.211506 166.532958 
L 434.434817 170.264158 
L 434.658129 165.290398 
L 434.881441 166.532958 
L 435.104752 166.713559 
L 435.328064 164.047838 
L 435.551376 164.228439 
L 435.774687 165.617238 
L 435.997999 168.105878 
L 436.221311 166.859798 
L 436.444622 169.348438 
L 436.667934 167.959639 
L 436.891246 173.079638 
L 437.114557 184.596558 
L 437.337869 180.865358 
L 437.561181 187.081678 
L 438.007804 182.107918 
L 438.231116 182.107918 
L 438.454427 183.353998 
L 438.677739 176.987919 
L 439.124362 188.324238 
L 439.347674 181.961679 
L 439.570985 183.353998 
L 439.794297 188.50836 
L 440.017609 182.107918 
L 440.24092 182.107918 
L 440.464232 184.596558 
L 440.687544 197.2098 
L 440.910855 185.839118 
L 441.134167 184.450319 
L 441.58079 190.812878 
L 441.804102 198.45236 
L 442.027414 192.055438 
L 442.250725 199.69492 
L 442.474037 193.4786 
L 442.92066 193.4786 
L 443.143972 190.99348 
L 443.367284 197.356039 
L 443.590595 194.870919 
L 443.813907 196.113479 
L 444.037219 187.26228 
L 444.483842 182.107918 
L 444.707154 188.50836 
L 444.930465 182.107918 
L 445.153777 183.353998 
L 445.377089 185.839118 
L 445.823712 185.839118 
L 446.047024 183.353998 
L 446.270335 185.839118 
L 446.493647 179.476559 
L 446.716958 188.50836 
L 446.94027 184.596558 
L 447.163582 188.50836 
L 447.386893 189.75092 
L 447.610205 184.596558 
L 447.833517 192.23604 
L 448.056828 187.081678 
L 448.28014 189.75092 
L 448.503452 196.113479 
L 448.726763 192.23604 
L 448.950075 197.356039 
L 449.173387 193.4786 
L 449.396698 185.839118 
L 449.62001 192.23604 
L 449.843322 189.75092 
L 450.066633 192.382279 
L 450.513257 182.107918 
L 450.736568 186.01972 
L 450.95988 179.8034 
L 451.183192 182.28852 
L 451.406503 177.134158 
L 451.629815 181.04596 
L 451.853127 173.406478 
L 452.076438 179.8034 
L 452.29975 174.649038 
L 452.523062 178.56084 
L 452.746373 179.8034 
L 452.969685 174.502799 
L 453.192996 180.865358 
L 453.416308 175.745359 
L 453.63962 175.564758 
L 454.309555 175.564758 
L 454.756178 172.929879 
L 454.97949 162.805278 
L 455.202801 169.202199 
L 455.426113 165.470999 
L 455.649425 171.833558 
L 455.872736 170.590998 
L 456.096048 170.590998 
L 456.31936 176.987919 
L 456.542671 168.105878 
L 456.765983 169.348438 
L 456.989295 171.833558 
L 457.212606 170.590998 
L 457.65923 178.233999 
L 457.882541 187.26228 
L 458.105853 188.50836 
L 458.329165 188.50836 
L 458.552476 183.353998 
L 458.775788 184.596558 
L 458.9991 188.324238 
L 459.222411 187.081678 
L 459.445723 180.719119 
L 459.669035 179.476559 
L 459.892346 180.719119 
L 460.338969 170.590998 
L 460.562281 167.959639 
L 460.785593 170.444759 
L 461.232216 165.617238 
L 461.455528 159.400918 
L 461.678839 165.797839 
L 461.902151 167.043919 
L 462.348774 178.56084 
L 462.572086 172.163918 
L 462.795398 175.891598 
L 463.018709 186.01972 
L 463.242021 182.28852 
L 463.465333 174.502799 
L 463.688644 179.622798 
L 463.911956 182.107918 
L 464.135268 182.107918 
L 464.358579 183.353998 
L 464.581891 179.622798 
L 464.805203 183.5346 
L 465.028514 172.014159 
L 465.251826 169.348438 
L 465.475138 173.260239 
L 465.698449 167.959639 
L 465.921761 179.476559 
L 466.145073 176.987919 
L 466.368384 175.745359 
L 466.591696 168.286479 
L 466.815008 172.014159 
L 467.484942 175.891598 
L 467.708254 193.955199 
L 467.931566 192.712639 
L 468.154877 199.32412 
L 468.378189 170.254561 
L 468.601501 184.256601 
L 468.824812 185.64892 
L 469.048124 174.45884 
L 469.271436 174.312601 
L 469.941371 164.365081 
L 470.164682 160.633881 
L 470.387994 149.116961 
L 470.611306 157.96816 
L 470.834617 150.359521 
L 471.057929 154.090721 
L 471.281241 142.573801 
L 471.504552 150.17892 
L 471.727864 145.058921 
L 471.951176 145.058921 
L 472.174487 146.301481 
L 472.397799 146.301481 
L 472.621111 142.573801 
L 472.844422 147.363439 
L 473.067734 138.51576 
L 473.291046 148.790121 
L 473.514357 148.609519 
L 473.737669 138.51576 
L 473.96098 136.02712 
L 474.184292 132.115319 
L 474.407604 130.872759 
L 474.630915 131.05336 
L 474.854227 137.26968 
L 475.077539 139.904559 
L 475.30085 137.419439 
L 475.524162 137.419439 
L 475.747474 138.661999 
L 475.970785 125.898999 
L 476.194097 129.630199 
L 476.64072 139.904559 
L 476.864032 138.661999 
L 477.087344 139.904559 
L 477.310655 134.78456 
L 477.533967 133.688239 
L 477.757279 134.930799 
L 477.98059 127.32568 
L 478.203902 129.957039 
L 478.427214 124.983279 
L 478.650525 130.137641 
L 478.873837 129.957039 
L 479.097149 115.954999 
L 479.32046 128.714479 
L 479.543772 129.957039 
L 479.767084 123.59448 
L 479.990395 126.229359 
L 480.213707 115.954999 
L 480.437019 110.835 
L 480.66033 114.708919 
L 481.106953 103.522359 
L 481.553577 117.37816 
L 482.0002 121.10936 
L 482.223512 117.37816 
L 482.446823 118.62072 
L 482.670135 113.466359 
L 483.116758 113.466359 
L 483.34007 109.58892 
L 483.563382 119.86328 
L 484.010005 112.223799 
L 484.456628 117.37816 
L 484.67994 116.1356 
L 484.903252 103.3726 
L 485.573187 124.83704 
L 485.796498 123.59448 
L 486.01981 129.8108 
L 486.243122 128.56824 
L 486.689745 122.171319 
L 487.136368 136.173359 
L 487.35968 129.8108 
L 487.582991 128.56824 
L 487.806303 132.445679 
L 488.029615 126.08312 
L 488.476238 128.714479 
L 488.69955 128.714479 
L 488.922861 127.471919 
L 489.146173 135.111401 
L 489.369485 135.111401 
L 489.592796 130.137641 
L 489.816108 138.98884 
L 490.03942 140.2314 
L 490.262731 138.98884 
L 490.486043 132.626281 
L 490.932666 132.626281 
L 491.155978 130.137641 
L 491.37929 135.25764 
L 491.825913 135.25764 
L 492.049225 141.658081 
L 492.272536 131.383721 
L 492.495848 128.895081 
L 492.942471 131.383721 
L 493.165783 131.383721 
L 493.612406 133.868841 
L 493.835718 133.868841 
L 494.05903 132.626281 
L 494.282341 133.868841 
L 494.505653 126.229359 
L 494.728964 122.498159 
L 494.952276 121.255599 
L 495.175588 124.983279 
L 495.398899 133.868841 
L 495.622211 132.445679 
L 495.845523 129.957039 
L 496.068834 123.59448 
L 496.292146 124.983279 
L 496.515458 114.708919 
L 496.738769 119.86328 
L 496.962081 113.64696 
L 497.185393 122.498159 
L 497.855328 126.409961 
L 498.078639 120.013039 
L 498.301951 124.983279 
L 498.525263 123.921321 
L 498.748574 121.436201 
L 498.971886 121.436201 
L 499.195198 115.219881 
L 499.418509 116.281839 
L 499.641821 123.921321 
L 499.865133 120.193641 
L 500.088444 122.678761 
L 500.311756 115.039279 
L 500.535068 121.436201 
L 501.205003 117.705001 
L 501.651626 122.825 
L 502.098249 116.281839 
L 502.321561 120.193641 
L 502.768184 130.468001 
L 502.991496 126.5562 
L 503.214807 118.951081 
L 503.438119 126.5562 
L 503.661431 113.977321 
L 503.884742 117.85124 
L 504.108054 124.251681 
L 504.331366 124.251681 
L 504.554677 126.736801 
L 504.777989 132.037401 
L 505.001301 128.1256 
L 505.224612 142.13116 
L 505.447924 142.13116 
L 505.671236 144.800401 
L 505.894547 135.768601 
L 506.341171 142.311761 
L 506.564482 143.70408 
L 506.787794 143.70408 
L 507.011106 141.069201 
L 507.234417 147.612362 
L 507.457729 139.97288 
L 507.681041 146.369802 
L 507.904352 141.396042 
L 508.127664 128.636561 
L 508.350975 132.367761 
L 508.797599 124.72476 
L 509.244222 124.72476 
L 509.467534 134.99912 
L 509.690845 136.095441 
L 509.914157 134.852881 
L 510.137469 138.73032 
L 510.36078 136.095441 
L 510.584092 142.458 
L 510.807404 142.458 
L 511.030715 139.97288 
L 511.254027 131.121681 
L 511.477339 143.884682 
L 511.70065 149.00468 
L 511.923962 151.4898 
L 512.147274 151.4898 
L 512.370585 143.884682 
L 512.593897 141.396042 
L 512.817209 136.24168 
L 513.04052 145.127242 
L 513.263832 146.369802 
L 513.487144 151.343562 
L 513.710455 147.612362 
L 513.933767 136.095441 
L 514.157079 134.852881 
L 514.38039 141.21544 
L 514.603702 133.610321 
L 514.827014 136.095441 
L 515.273637 128.45596 
L 515.496948 137.48776 
L 515.72026 127.394001 
L 516.166883 122.093401 
L 516.390195 133.610321 
L 516.836818 130.94108 
L 517.06013 146.042961 
L 517.283442 137.011161 
L 517.506753 145.716121 
L 517.730065 144.470041 
L 517.953377 153.32124 
L 518.176688 149.443801 
L 518.4 149.443801 
L 518.4 149.443801 
" style="fill:none;stroke:#4c72b0;stroke-linecap:round;stroke-width:1.75;"/>
   </g>
   <g id="patch_3">
    <path d="M 72 356.4 
L 518.4 356.4 
" style="fill:none;"/>
   </g>
   <g id="patch_4">
    <path d="M 72 39.6 
L 518.4 39.6 
" style="fill:none;"/>
   </g>
   <g id="patch_5">
    <path d="M 72 356.4 
L 72 39.6 
" style="fill:none;"/>
   </g>
   <g id="patch_6">
    <path d="M 518.4 356.4 
L 518.4 39.6 
" style="fill:none;"/>
   </g>
   <g id="text_16">
    <!-- ru - 9.762047949991194 * c -->
    <defs>
     <path d="M 9.125 0 
L 9.125 10.6875 
L 18.65625 10.6875 
L 18.65625 0 
z
" id="LiberationSans-2e"/>
     <path d="M 22.265625 54.390625 
L 35.15625 59.421875 
L 37.359375 52.984375 
L 23.578125 49.421875 
L 32.625 37.203125 
L 26.8125 33.6875 
L 19.484375 46.296875 
L 11.859375 33.796875 
L 6.0625 37.3125 
L 15.28125 49.421875 
L 1.609375 52.984375 
L 3.8125 59.515625 
L 16.84375 54.296875 
L 16.265625 68.796875 
L 22.90625 68.796875 
z
" id="LiberationSans-2a"/>
     <path d="M 6.9375 0 
L 6.9375 40.53125 
Q 6.9375 42.1875 6.90625 43.921875 
Q 6.890625 45.65625 6.828125 47.265625 
Q 6.78125 48.875 6.734375 50.28125 
Q 6.6875 51.703125 6.640625 52.828125 
L 14.9375 52.828125 
Q 14.984375 51.703125 15.0625 50.265625 
Q 15.140625 48.828125 15.203125 47.3125 
Q 15.28125 45.796875 15.296875 44.40625 
Q 15.328125 43.015625 15.328125 42.046875 
L 15.53125 42.046875 
Q 16.453125 45.0625 17.5 47.28125 
Q 18.5625 49.515625 19.96875 50.953125 
Q 21.390625 52.390625 23.34375 53.09375 
Q 25.296875 53.8125 28.078125 53.8125 
Q 29.15625 53.8125 30.125 53.640625 
Q 31.109375 53.46875 31.640625 53.328125 
L 31.640625 45.265625 
Q 30.765625 45.515625 29.59375 45.625 
Q 28.421875 45.75 26.953125 45.75 
Q 23.921875 45.75 21.796875 44.375 
Q 19.671875 43.015625 18.328125 40.59375 
Q 17 38.1875 16.359375 34.84375 
Q 15.71875 31.5 15.71875 27.546875 
L 15.71875 0 
z
" id="LiberationSans-72"/>
     <path d="M 13.421875 26.65625 
Q 13.421875 22.125 14.078125 18.3125 
Q 14.75 14.5 16.3125 11.734375 
Q 17.875 8.984375 20.4375 7.46875 
Q 23 5.953125 26.765625 5.953125 
Q 31.453125 5.953125 34.59375 8.484375 
Q 37.75 11.03125 38.484375 16.3125 
L 47.359375 15.71875 
Q 46.921875 12.453125 45.453125 9.421875 
Q 44 6.390625 41.484375 4.09375 
Q 38.96875 1.8125 35.34375 0.40625 
Q 31.734375 -0.984375 27 -0.984375 
Q 20.796875 -0.984375 16.453125 1.109375 
Q 12.109375 3.21875 9.390625 6.90625 
Q 6.6875 10.59375 5.46875 15.59375 
Q 4.25 20.609375 4.25 26.46875 
Q 4.25 31.78125 5.125 35.859375 
Q 6 39.9375 7.59375 42.984375 
Q 9.1875 46.046875 11.328125 48.125 
Q 13.484375 50.203125 15.984375 51.4375 
Q 18.5 52.6875 21.28125 53.25 
Q 24.078125 53.8125 26.90625 53.8125 
Q 31.34375 53.8125 34.8125 52.59375 
Q 38.28125 51.375 40.796875 49.25 
Q 43.3125 47.125 44.875 44.234375 
Q 46.4375 41.359375 47.078125 38.03125 
L 38.03125 37.359375 
Q 37.359375 41.75 34.5625 44.328125 
Q 31.78125 46.921875 26.65625 46.921875 
Q 22.90625 46.921875 20.390625 45.671875 
Q 17.875 44.4375 16.3125 41.921875 
Q 14.75 39.40625 14.078125 35.59375 
Q 13.421875 31.78125 13.421875 26.65625 
" id="LiberationSans-63"/>
     <path d="M 15.328125 52.828125 
L 15.328125 19.34375 
Q 15.328125 15.484375 15.890625 12.890625 
Q 16.453125 10.296875 17.71875 8.703125 
Q 19 7.125 21.0625 6.46875 
Q 23.140625 5.8125 26.21875 5.8125 
Q 29.34375 5.8125 31.859375 6.90625 
Q 34.375 8.015625 36.15625 10.078125 
Q 37.9375 12.15625 38.90625 15.203125 
Q 39.890625 18.265625 39.890625 22.21875 
L 39.890625 52.828125 
L 48.6875 52.828125 
L 48.6875 11.28125 
Q 48.6875 9.625 48.703125 7.78125 
Q 48.734375 5.953125 48.78125 4.3125 
Q 48.828125 2.6875 48.875 1.515625 
Q 48.921875 0.34375 48.96875 0 
L 40.671875 0 
Q 40.625 0.25 40.578125 1.3125 
Q 40.53125 2.390625 40.453125 3.78125 
Q 40.375 5.171875 40.328125 6.609375 
Q 40.28125 8.0625 40.28125 9.03125 
L 40.140625 9.03125 
Q 38.875 6.734375 37.359375 4.875 
Q 35.84375 3.03125 33.84375 1.734375 
Q 31.84375 0.4375 29.25 -0.265625 
Q 26.65625 -0.984375 23.25 -0.984375 
Q 18.84375 -0.984375 15.671875 0.09375 
Q 12.5 1.171875 10.453125 3.421875 
Q 8.40625 5.671875 7.453125 9.1875 
Q 6.5 12.703125 6.5 17.625 
L 6.5 52.828125 
z
" id="LiberationSans-75"/>
    </defs>
    <g style="fill:#262626;" transform="translate(220.813125 34.6)scale(0.12 -0.12)">
     <use xlink:href="#LiberationSans-72"/>
     <use x="33.30078125" xlink:href="#LiberationSans-75"/>
     <use x="88.916015625" xlink:href="#LiberationSans-20"/>
     <use x="116.69921875" xlink:href="#LiberationSans-2d"/>
     <use x="150.0" xlink:href="#LiberationSans-20"/>
     <use x="177.783203125" xlink:href="#LiberationSans-39"/>
     <use x="233.3984375" xlink:href="#LiberationSans-2e"/>
     <use x="261.181640625" xlink:href="#LiberationSans-37"/>
     <use x="316.796875" xlink:href="#LiberationSans-36"/>
     <use x="372.412109375" xlink:href="#LiberationSans-32"/>
     <use x="428.02734375" xlink:href="#LiberationSans-30"/>
     <use x="483.642578125" xlink:href="#LiberationSans-34"/>
     <use x="539.2578125" xlink:href="#LiberationSans-37"/>
     <use x="594.873046875" xlink:href="#LiberationSans-39"/>
     <use x="650.48828125" xlink:href="#LiberationSans-34"/>
     <use x="706.103515625" xlink:href="#LiberationSans-39"/>
     <use x="761.71875" xlink:href="#LiberationSans-39"/>
     <use x="817.333984375" xlink:href="#LiberationSans-39"/>
     <use x="872.94921875" xlink:href="#LiberationSans-31"/>
     <use x="928.564453125" xlink:href="#LiberationSans-31"/>
     <use x="984.1796875" xlink:href="#LiberationSans-39"/>
     <use x="1039.794921875" xlink:href="#LiberationSans-34"/>
     <use x="1095.41015625" xlink:href="#LiberationSans-20"/>
     <use x="1123.193359375" xlink:href="#LiberationSans-2a"/>
     <use x="1162.109375" xlink:href="#LiberationSans-20"/>
     <use x="1189.892578125" xlink:href="#LiberationSans-63"/>
    </g>
   </g>
  </g>
 </g>
 <defs>
  <clipPath id="p8b41b444e7">
   <rect height="316.8" width="446.4" x="72.0" y="39.6"/>
  </clipPath>
 </defs>
</svg>
