<?xml version="1.0" encoding="utf-8" standalone="no"?>
<!DOCTYPE svg PUBLIC "-//W3C//DTD SVG 1.1//EN"
  "http://www.w3.org/Graphics/SVG/1.1/DTD/svg11.dtd">
<!-- Created with matplotlib (http://matplotlib.org/) -->
<svg height="396pt" version="1.1" viewBox="0 0 576 396" width="576pt" xmlns="http://www.w3.org/2000/svg" xmlns:xlink="http://www.w3.org/1999/xlink">
 <defs>
  <style type="text/css">
*{stroke-linecap:butt;stroke-linejoin:round;stroke-miterlimit:100000;}
  </style>
 </defs>
 <g id="figure_1">
  <g id="patch_1">
   <path d="M 0 396 
L 576 396 
L 576 0 
L 0 0 
z
" style="fill:#ffffff;"/>
  </g>
  <g id="axes_1">
   <g id="patch_2">
    <path d="M 72 356.4 
L 518.4 356.4 
L 518.4 39.6 
L 72 39.6 
z
" style="fill:#eaeaf2;"/>
   </g>
   <g id="matplotlib.axis_1">
    <g id="xtick_1">
     <g id="line2d_1">
      <path clip-path="url(#p5e0903c191)" d="M 72 356.4 
L 72 39.6 
" style="fill:none;stroke:#ffffff;stroke-linecap:round;"/>
     </g>
     <g id="line2d_2"/>
     <g id="line2d_3"/>
     <g id="text_1">
      <!-- 2015-11-24 22:17:00 -->
      <defs>
       <path d="M 5.03125 0 
L 5.03125 6.203125 
Q 7.515625 11.921875 11.109375 16.28125 
Q 14.703125 20.65625 18.65625 24.1875 
Q 22.609375 27.734375 26.484375 30.765625 
Q 30.375 33.796875 33.5 36.8125 
Q 36.625 39.84375 38.546875 43.15625 
Q 40.484375 46.484375 40.484375 50.6875 
Q 40.484375 53.609375 39.59375 55.828125 
Q 38.71875 58.0625 37.0625 59.5625 
Q 35.40625 61.078125 33.078125 61.828125 
Q 30.765625 62.59375 27.9375 62.59375 
Q 25.296875 62.59375 22.96875 61.859375 
Q 20.65625 61.140625 18.84375 59.671875 
Q 17.046875 58.203125 15.890625 56.03125 
Q 14.75 53.859375 14.40625 50.984375 
L 5.421875 51.8125 
Q 5.859375 55.515625 7.46875 58.78125 
Q 9.078125 62.0625 11.90625 64.53125 
Q 14.75 67 18.71875 68.40625 
Q 22.703125 69.828125 27.9375 69.828125 
Q 33.0625 69.828125 37.0625 68.609375 
Q 41.0625 67.390625 43.8125 64.984375 
Q 46.578125 62.59375 48.046875 59.078125 
Q 49.515625 55.5625 49.515625 50.984375 
Q 49.515625 47.515625 48.265625 44.390625 
Q 47.015625 41.265625 44.9375 38.421875 
Q 42.875 35.59375 40.140625 32.953125 
Q 37.40625 30.328125 34.421875 27.8125 
Q 31.453125 25.296875 28.421875 22.828125 
Q 25.390625 20.359375 22.71875 17.859375 
Q 20.0625 15.375 17.96875 12.8125 
Q 15.875 10.25 14.703125 7.46875 
L 50.59375 7.46875 
L 50.59375 0 
z
" id="LiberationSans-32"/>
       <path d="M 7.625 0 
L 7.625 7.46875 
L 25.140625 7.46875 
L 25.140625 60.40625 
L 9.625 49.3125 
L 9.625 57.625 
L 25.875 68.796875 
L 33.984375 68.796875 
L 33.984375 7.46875 
L 50.734375 7.46875 
L 50.734375 0 
z
" id="LiberationSans-31"/>
       <path d="M 50.59375 61.671875 
Q 45.40625 53.765625 41.0625 46.453125 
Q 36.71875 39.15625 33.59375 31.75 
Q 30.46875 24.359375 28.734375 16.578125 
Q 27 8.796875 27 0 
L 17.828125 0 
Q 17.828125 8.25 19.78125 16.1875 
Q 21.734375 24.125 25.046875 31.765625 
Q 28.375 39.40625 32.765625 46.78125 
Q 37.15625 54.15625 42.09375 61.328125 
L 5.125 61.328125 
L 5.125 68.796875 
L 50.59375 68.796875 
z
" id="LiberationSans-37"/>
       <path d="M 51.703125 34.421875 
Q 51.703125 24.515625 49.828125 17.75 
Q 47.953125 10.984375 44.703125 6.8125 
Q 41.453125 2.640625 37.0625 0.828125 
Q 32.671875 -0.984375 27.6875 -0.984375 
Q 22.65625 -0.984375 18.3125 0.828125 
Q 13.96875 2.640625 10.765625 6.78125 
Q 7.5625 10.9375 5.734375 17.703125 
Q 3.90625 24.46875 3.90625 34.421875 
Q 3.90625 44.828125 5.734375 51.640625 
Q 7.5625 58.453125 10.78125 62.5 
Q 14.015625 66.546875 18.40625 68.1875 
Q 22.796875 69.828125 27.984375 69.828125 
Q 32.90625 69.828125 37.21875 68.1875 
Q 41.546875 66.546875 44.765625 62.5 
Q 48 58.453125 49.84375 51.640625 
Q 51.703125 44.828125 51.703125 34.421875 
M 42.78125 34.421875 
Q 42.78125 42.625 41.796875 48.0625 
Q 40.828125 53.515625 38.921875 56.765625 
Q 37.015625 60.015625 34.25 61.359375 
Q 31.5 62.703125 27.984375 62.703125 
Q 24.265625 62.703125 21.4375 61.328125 
Q 18.609375 59.96875 16.671875 56.71875 
Q 14.75 53.46875 13.765625 48.015625 
Q 12.796875 42.578125 12.796875 34.421875 
Q 12.796875 26.515625 13.796875 21.09375 
Q 14.796875 15.671875 16.71875 12.375 
Q 18.65625 9.078125 21.4375 7.640625 
Q 24.21875 6.203125 27.78125 6.203125 
Q 31.25 6.203125 34.03125 7.640625 
Q 36.8125 9.078125 38.734375 12.375 
Q 40.671875 15.671875 41.71875 21.09375 
Q 42.78125 26.515625 42.78125 34.421875 
" id="LiberationSans-30"/>
       <path d="M 9.125 42.71875 
L 9.125 52.828125 
L 18.65625 52.828125 
L 18.65625 42.71875 
z
M 9.125 0 
L 9.125 10.109375 
L 18.65625 10.109375 
L 18.65625 0 
z
" id="LiberationSans-3a"/>
       <path d="M 51.421875 22.40625 
Q 51.421875 17.234375 49.859375 12.9375 
Q 48.296875 8.640625 45.21875 5.53125 
Q 42.140625 2.4375 37.578125 0.71875 
Q 33.015625 -0.984375 27 -0.984375 
Q 21.578125 -0.984375 17.546875 0.28125 
Q 13.53125 1.5625 10.734375 3.78125 
Q 7.953125 6 6.3125 8.984375 
Q 4.6875 11.96875 4 15.375 
L 12.890625 16.40625 
Q 13.421875 14.453125 14.390625 12.625 
Q 15.375 10.796875 17.0625 9.34375 
Q 18.75 7.90625 21.21875 7.046875 
Q 23.6875 6.203125 27.203125 6.203125 
Q 30.609375 6.203125 33.390625 7.25 
Q 36.1875 8.296875 38.15625 10.34375 
Q 40.140625 12.40625 41.203125 15.375 
Q 42.28125 18.359375 42.28125 22.21875 
Q 42.28125 25.390625 41.25 28.046875 
Q 40.234375 30.71875 38.328125 32.640625 
Q 36.421875 34.578125 33.65625 35.640625 
Q 30.90625 36.71875 27.390625 36.71875 
Q 25.203125 36.71875 23.34375 36.328125 
Q 21.484375 35.9375 19.890625 35.25 
Q 18.3125 34.578125 17.015625 33.671875 
Q 15.71875 32.765625 14.59375 31.78125 
L 6 31.78125 
L 8.296875 68.796875 
L 47.40625 68.796875 
L 47.40625 61.328125 
L 16.3125 61.328125 
L 14.984375 39.5 
Q 17.328125 41.3125 20.84375 42.59375 
Q 24.359375 43.890625 29.203125 43.890625 
Q 34.328125 43.890625 38.421875 42.328125 
Q 42.53125 40.765625 45.40625 37.90625 
Q 48.296875 35.0625 49.859375 31.109375 
Q 51.421875 27.15625 51.421875 22.40625 
" id="LiberationSans-35"/>
       <path id="LiberationSans-20"/>
       <path d="M 4.4375 22.65625 
L 4.4375 30.46875 
L 28.859375 30.46875 
L 28.859375 22.65625 
z
" id="LiberationSans-2d"/>
       <path d="M 43.015625 15.578125 
L 43.015625 0 
L 34.71875 0 
L 34.71875 15.578125 
L 2.296875 15.578125 
L 2.296875 22.40625 
L 33.796875 68.796875 
L 43.015625 68.796875 
L 43.015625 22.515625 
L 52.6875 22.515625 
L 52.6875 15.578125 
z
M 34.71875 58.890625 
Q 34.625 58.640625 34.234375 57.9375 
Q 33.84375 57.234375 33.34375 56.34375 
Q 32.859375 55.46875 32.34375 54.5625 
Q 31.84375 53.65625 31.453125 53.078125 
L 13.8125 27.09375 
Q 13.578125 26.703125 13.109375 26.0625 
Q 12.640625 25.4375 12.15625 24.78125 
Q 11.671875 24.125 11.171875 23.484375 
Q 10.6875 22.859375 10.40625 22.515625 
L 34.71875 22.515625 
z
" id="LiberationSans-34"/>
      </defs>
      <g style="fill:#262626;" transform="translate(25.5765625 370.646875)scale(0.1 -0.1)">
       <use xlink:href="#LiberationSans-32"/>
       <use x="55.615234375" xlink:href="#LiberationSans-30"/>
       <use x="111.23046875" xlink:href="#LiberationSans-31"/>
       <use x="166.845703125" xlink:href="#LiberationSans-35"/>
       <use x="222.4609375" xlink:href="#LiberationSans-2d"/>
       <use x="255.76171875" xlink:href="#LiberationSans-31"/>
       <use x="311.376953125" xlink:href="#LiberationSans-31"/>
       <use x="366.9921875" xlink:href="#LiberationSans-2d"/>
       <use x="400.29296875" xlink:href="#LiberationSans-32"/>
       <use x="455.908203125" xlink:href="#LiberationSans-34"/>
       <use x="511.5234375" xlink:href="#LiberationSans-20"/>
       <use x="539.306640625" xlink:href="#LiberationSans-32"/>
       <use x="594.921875" xlink:href="#LiberationSans-32"/>
       <use x="650.537109375" xlink:href="#LiberationSans-3a"/>
       <use x="678.3203125" xlink:href="#LiberationSans-31"/>
       <use x="733.935546875" xlink:href="#LiberationSans-37"/>
       <use x="789.55078125" xlink:href="#LiberationSans-3a"/>
       <use x="817.333984375" xlink:href="#LiberationSans-30"/>
       <use x="872.94921875" xlink:href="#LiberationSans-30"/>
      </g>
     </g>
    </g>
    <g id="xtick_2">
     <g id="line2d_4">
      <path clip-path="url(#p5e0903c191)" d="M 183.655828 356.4 
L 183.655828 39.6 
" style="fill:none;stroke:#ffffff;stroke-linecap:round;"/>
     </g>
     <g id="line2d_5"/>
     <g id="line2d_6"/>
     <g id="text_2">
      <!-- 2015-11-26 09:23:00 -->
      <defs>
       <path d="M 51.21875 19 
Q 51.21875 14.265625 49.671875 10.546875 
Q 48.140625 6.84375 45.1875 4.265625 
Q 42.234375 1.703125 37.859375 0.359375 
Q 33.5 -0.984375 27.875 -0.984375 
Q 21.484375 -0.984375 17.109375 0.609375 
Q 12.75 2.203125 9.90625 4.8125 
Q 7.078125 7.421875 5.65625 10.765625 
Q 4.25 14.109375 3.8125 17.671875 
L 12.890625 18.5 
Q 13.28125 15.765625 14.328125 13.515625 
Q 15.375 11.28125 17.1875 9.671875 
Q 19 8.0625 21.625 7.171875 
Q 24.265625 6.296875 27.875 6.296875 
Q 34.515625 6.296875 38.296875 9.5625 
Q 42.09375 12.84375 42.09375 19.28125 
Q 42.09375 23.09375 40.40625 25.40625 
Q 38.71875 27.734375 36.203125 29.03125 
Q 33.6875 30.328125 30.734375 30.765625 
Q 27.78125 31.203125 25.296875 31.203125 
L 20.3125 31.203125 
L 20.3125 38.8125 
L 25.09375 38.8125 
Q 27.59375 38.8125 30.265625 39.328125 
Q 32.953125 39.84375 35.171875 41.1875 
Q 37.40625 42.53125 38.84375 44.828125 
Q 40.28125 47.125 40.28125 50.6875 
Q 40.28125 56.203125 37.03125 59.390625 
Q 33.796875 62.59375 27.390625 62.59375 
Q 21.578125 62.59375 17.984375 59.609375 
Q 14.40625 56.640625 13.8125 51.21875 
L 4.984375 51.90625 
Q 5.515625 56.453125 7.46875 59.8125 
Q 9.421875 63.1875 12.421875 65.40625 
Q 15.4375 67.625 19.28125 68.71875 
Q 23.140625 69.828125 27.484375 69.828125 
Q 33.25 69.828125 37.390625 68.375 
Q 41.546875 66.9375 44.1875 64.46875 
Q 46.828125 62.015625 48.0625 58.6875 
Q 49.3125 55.375 49.3125 51.609375 
Q 49.3125 48.578125 48.484375 45.9375 
Q 47.65625 43.3125 45.890625 41.203125 
Q 44.140625 39.109375 41.421875 37.59375 
Q 38.71875 36.078125 34.90625 35.296875 
L 34.90625 35.109375 
Q 39.0625 34.671875 42.140625 33.21875 
Q 45.21875 31.78125 47.21875 29.625 
Q 49.21875 27.484375 50.21875 24.75 
Q 51.21875 22.015625 51.21875 19 
" id="LiberationSans-33"/>
       <path d="M 50.875 35.796875 
Q 50.875 26.609375 49.140625 19.703125 
Q 47.40625 12.796875 44.1875 8.203125 
Q 40.96875 3.609375 36.34375 1.3125 
Q 31.734375 -0.984375 25.984375 -0.984375 
Q 22.015625 -0.984375 18.84375 -0.171875 
Q 15.671875 0.640625 13.171875 2.34375 
Q 10.6875 4.046875 8.921875 6.78125 
Q 7.171875 9.515625 6.109375 13.375 
L 14.5 14.703125 
Q 15.875 10.25 18.78125 8.171875 
Q 21.6875 6.109375 26.125 6.109375 
Q 29.6875 6.109375 32.640625 7.78125 
Q 35.59375 9.46875 37.671875 12.84375 
Q 39.75 16.21875 40.921875 21.296875 
Q 42.09375 26.375 42.1875 33.203125 
Q 41.15625 30.90625 39.375 29.09375 
Q 37.59375 27.296875 35.328125 26.046875 
Q 33.0625 24.8125 30.421875 24.140625 
Q 27.78125 23.484375 25.09375 23.484375 
Q 20.40625 23.484375 16.625 25.171875 
Q 12.84375 26.859375 10.203125 29.875 
Q 7.5625 32.90625 6.125 37.171875 
Q 4.6875 41.453125 4.6875 46.6875 
Q 4.6875 52 6.21875 56.296875 
Q 7.765625 60.59375 10.6875 63.59375 
Q 13.625 66.609375 17.890625 68.21875 
Q 22.171875 69.828125 27.59375 69.828125 
Q 39.0625 69.828125 44.96875 61.328125 
Q 50.875 52.828125 50.875 35.796875 
M 41.3125 44.28125 
Q 41.3125 48.09375 40.40625 51.453125 
Q 39.5 54.828125 37.71875 57.3125 
Q 35.9375 59.8125 33.328125 61.25 
Q 30.71875 62.703125 27.296875 62.703125 
Q 24.125 62.703125 21.578125 61.578125 
Q 19.046875 60.453125 17.28125 58.375 
Q 15.53125 56.296875 14.578125 53.3125 
Q 13.625 50.34375 13.625 46.6875 
Q 13.625 43.21875 14.46875 40.234375 
Q 15.328125 37.25 17.03125 35.078125 
Q 18.75 32.90625 21.28125 31.65625 
Q 23.828125 30.421875 27.203125 30.421875 
Q 29.640625 30.421875 32.15625 31.25 
Q 34.671875 32.078125 36.6875 33.78125 
Q 38.71875 35.5 40.015625 38.109375 
Q 41.3125 40.71875 41.3125 44.28125 
" id="LiberationSans-39"/>
       <path d="M 51.21875 22.515625 
Q 51.21875 17.328125 49.78125 13 
Q 48.34375 8.6875 45.53125 5.578125 
Q 42.71875 2.484375 38.5625 0.75 
Q 34.421875 -0.984375 29 -0.984375 
Q 23 -0.984375 18.5 1.3125 
Q 14.015625 3.609375 11.03125 7.921875 
Q 8.0625 12.25 6.5625 18.53125 
Q 5.078125 24.8125 5.078125 32.8125 
Q 5.078125 42 6.765625 48.921875 
Q 8.453125 55.859375 11.625 60.5 
Q 14.796875 65.140625 19.359375 67.484375 
Q 23.921875 69.828125 29.6875 69.828125 
Q 33.203125 69.828125 36.28125 69.09375 
Q 39.359375 68.359375 41.875 66.71875 
Q 44.390625 65.09375 46.28125 62.40625 
Q 48.1875 59.71875 49.3125 55.8125 
L 40.921875 54.296875 
Q 39.546875 58.734375 36.546875 60.71875 
Q 33.546875 62.703125 29.59375 62.703125 
Q 25.984375 62.703125 23.046875 60.984375 
Q 20.125 59.28125 18.0625 55.875 
Q 16.015625 52.484375 14.90625 47.359375 
Q 13.8125 42.234375 13.8125 35.40625 
Q 16.21875 39.84375 20.5625 42.15625 
Q 24.90625 44.484375 30.515625 44.484375 
Q 35.203125 44.484375 39.015625 42.96875 
Q 42.828125 41.453125 45.53125 38.59375 
Q 48.25 35.75 49.734375 31.671875 
Q 51.21875 27.59375 51.21875 22.515625 
M 42.28125 22.125 
Q 42.28125 25.6875 41.40625 28.5625 
Q 40.53125 31.453125 38.765625 33.46875 
Q 37.015625 35.5 34.421875 36.59375 
Q 31.84375 37.703125 28.421875 37.703125 
Q 26.03125 37.703125 23.578125 36.984375 
Q 21.140625 36.28125 19.15625 34.6875 
Q 17.1875 33.109375 15.9375 30.515625 
Q 14.703125 27.9375 14.703125 24.21875 
Q 14.703125 20.40625 15.671875 17.109375 
Q 16.65625 13.8125 18.484375 11.375 
Q 20.3125 8.9375 22.890625 7.515625 
Q 25.484375 6.109375 28.71875 6.109375 
Q 31.890625 6.109375 34.40625 7.203125 
Q 36.921875 8.296875 38.671875 10.375 
Q 40.4375 12.453125 41.359375 15.421875 
Q 42.28125 18.40625 42.28125 22.125 
" id="LiberationSans-36"/>
      </defs>
      <g style="fill:#262626;" transform="translate(137.232390414 370.646875)scale(0.1 -0.1)">
       <use xlink:href="#LiberationSans-32"/>
       <use x="55.615234375" xlink:href="#LiberationSans-30"/>
       <use x="111.23046875" xlink:href="#LiberationSans-31"/>
       <use x="166.845703125" xlink:href="#LiberationSans-35"/>
       <use x="222.4609375" xlink:href="#LiberationSans-2d"/>
       <use x="255.76171875" xlink:href="#LiberationSans-31"/>
       <use x="311.376953125" xlink:href="#LiberationSans-31"/>
       <use x="366.9921875" xlink:href="#LiberationSans-2d"/>
       <use x="400.29296875" xlink:href="#LiberationSans-32"/>
       <use x="455.908203125" xlink:href="#LiberationSans-36"/>
       <use x="511.5234375" xlink:href="#LiberationSans-20"/>
       <use x="539.306640625" xlink:href="#LiberationSans-30"/>
       <use x="594.921875" xlink:href="#LiberationSans-39"/>
       <use x="650.537109375" xlink:href="#LiberationSans-3a"/>
       <use x="678.3203125" xlink:href="#LiberationSans-32"/>
       <use x="733.935546875" xlink:href="#LiberationSans-33"/>
       <use x="789.55078125" xlink:href="#LiberationSans-3a"/>
       <use x="817.333984375" xlink:href="#LiberationSans-30"/>
       <use x="872.94921875" xlink:href="#LiberationSans-30"/>
      </g>
     </g>
    </g>
    <g id="xtick_3">
     <g id="line2d_7">
      <path clip-path="url(#p5e0903c191)" d="M 295.311656 356.4 
L 295.311656 39.6 
" style="fill:none;stroke:#ffffff;stroke-linecap:round;"/>
     </g>
     <g id="line2d_8"/>
     <g id="line2d_9"/>
     <g id="text_3">
      <!-- 2015-11-27 14:41:00 -->
      <g style="fill:#262626;" transform="translate(248.888218328 370.646875)scale(0.1 -0.1)">
       <use xlink:href="#LiberationSans-32"/>
       <use x="55.615234375" xlink:href="#LiberationSans-30"/>
       <use x="111.23046875" xlink:href="#LiberationSans-31"/>
       <use x="166.845703125" xlink:href="#LiberationSans-35"/>
       <use x="222.4609375" xlink:href="#LiberationSans-2d"/>
       <use x="255.76171875" xlink:href="#LiberationSans-31"/>
       <use x="311.376953125" xlink:href="#LiberationSans-31"/>
       <use x="366.9921875" xlink:href="#LiberationSans-2d"/>
       <use x="400.29296875" xlink:href="#LiberationSans-32"/>
       <use x="455.908203125" xlink:href="#LiberationSans-37"/>
       <use x="511.5234375" xlink:href="#LiberationSans-20"/>
       <use x="539.306640625" xlink:href="#LiberationSans-31"/>
       <use x="594.921875" xlink:href="#LiberationSans-34"/>
       <use x="650.537109375" xlink:href="#LiberationSans-3a"/>
       <use x="678.3203125" xlink:href="#LiberationSans-34"/>
       <use x="733.935546875" xlink:href="#LiberationSans-31"/>
       <use x="789.55078125" xlink:href="#LiberationSans-3a"/>
       <use x="817.333984375" xlink:href="#LiberationSans-30"/>
       <use x="872.94921875" xlink:href="#LiberationSans-30"/>
      </g>
     </g>
    </g>
    <g id="xtick_4">
     <g id="line2d_10">
      <path clip-path="url(#p5e0903c191)" d="M 406.967484 356.4 
L 406.967484 39.6 
" style="fill:none;stroke:#ffffff;stroke-linecap:round;"/>
     </g>
     <g id="line2d_11"/>
     <g id="line2d_12"/>
     <g id="text_4">
      <!-- 2015-12-03 22:37:00 -->
      <g style="fill:#262626;" transform="translate(360.544046242 370.646875)scale(0.1 -0.1)">
       <use xlink:href="#LiberationSans-32"/>
       <use x="55.615234375" xlink:href="#LiberationSans-30"/>
       <use x="111.23046875" xlink:href="#LiberationSans-31"/>
       <use x="166.845703125" xlink:href="#LiberationSans-35"/>
       <use x="222.4609375" xlink:href="#LiberationSans-2d"/>
       <use x="255.76171875" xlink:href="#LiberationSans-31"/>
       <use x="311.376953125" xlink:href="#LiberationSans-32"/>
       <use x="366.9921875" xlink:href="#LiberationSans-2d"/>
       <use x="400.29296875" xlink:href="#LiberationSans-30"/>
       <use x="455.908203125" xlink:href="#LiberationSans-33"/>
       <use x="511.5234375" xlink:href="#LiberationSans-20"/>
       <use x="539.306640625" xlink:href="#LiberationSans-32"/>
       <use x="594.921875" xlink:href="#LiberationSans-32"/>
       <use x="650.537109375" xlink:href="#LiberationSans-3a"/>
       <use x="678.3203125" xlink:href="#LiberationSans-33"/>
       <use x="733.935546875" xlink:href="#LiberationSans-37"/>
       <use x="789.55078125" xlink:href="#LiberationSans-3a"/>
       <use x="817.333984375" xlink:href="#LiberationSans-30"/>
       <use x="872.94921875" xlink:href="#LiberationSans-30"/>
      </g>
     </g>
    </g>
    <g id="text_5">
     <!-- time -->
     <defs>
      <path d="M 13.484375 24.5625 
Q 13.484375 20.40625 14.328125 16.90625 
Q 15.1875 13.421875 16.96875 10.90625 
Q 18.75 8.40625 21.53125 7 
Q 24.3125 5.609375 28.21875 5.609375 
Q 33.9375 5.609375 37.375 7.90625 
Q 40.828125 10.203125 42.046875 13.71875 
L 49.75 11.53125 
Q 48.921875 9.328125 47.4375 7.109375 
Q 45.953125 4.890625 43.453125 3.09375 
Q 40.96875 1.3125 37.234375 0.15625 
Q 33.5 -0.984375 28.21875 -0.984375 
Q 16.5 -0.984375 10.375 6 
Q 4.25 12.984375 4.25 26.765625 
Q 4.25 34.1875 6.09375 39.328125 
Q 7.953125 44.484375 11.171875 47.703125 
Q 14.40625 50.921875 18.703125 52.359375 
Q 23 53.8125 27.875 53.8125 
Q 34.515625 53.8125 38.984375 51.65625 
Q 43.453125 49.515625 46.15625 45.71875 
Q 48.875 41.9375 50.015625 36.8125 
Q 51.171875 31.6875 51.171875 25.734375 
L 51.171875 24.5625 
z
M 42.09375 31.296875 
Q 41.359375 39.65625 37.84375 43.484375 
Q 34.328125 47.3125 27.734375 47.3125 
Q 25.53125 47.3125 23.109375 46.609375 
Q 20.703125 45.90625 18.65625 44.09375 
Q 16.609375 42.28125 15.1875 39.171875 
Q 13.765625 36.078125 13.578125 31.296875 
z
" id="LiberationSans-65"/>
      <path d="M 6.6875 64.0625 
L 6.6875 72.46875 
L 15.484375 72.46875 
L 15.484375 64.0625 
z
M 6.6875 0 
L 6.6875 52.828125 
L 15.484375 52.828125 
L 15.484375 0 
z
" id="LiberationSans-69"/>
      <path d="M 27.046875 0.390625 
Q 25.046875 -0.140625 22.96875 -0.453125 
Q 20.90625 -0.78125 18.171875 -0.78125 
Q 7.625 -0.78125 7.625 11.1875 
L 7.625 46.4375 
L 1.515625 46.4375 
L 1.515625 52.828125 
L 7.953125 52.828125 
L 10.546875 64.65625 
L 16.40625 64.65625 
L 16.40625 52.828125 
L 26.171875 52.828125 
L 26.171875 46.4375 
L 16.40625 46.4375 
L 16.40625 13.09375 
Q 16.40625 9.28125 17.640625 7.734375 
Q 18.890625 6.203125 21.96875 6.203125 
Q 23.25 6.203125 24.4375 6.390625 
Q 25.640625 6.59375 27.046875 6.890625 
z
" id="LiberationSans-74"/>
      <path d="M 37.5 0 
L 37.5 33.5 
Q 37.5 37.359375 37.015625 39.9375 
Q 36.53125 42.53125 35.375 44.109375 
Q 34.234375 45.703125 32.375 46.359375 
Q 30.515625 47.015625 27.828125 47.015625 
Q 25.046875 47.015625 22.796875 45.921875 
Q 20.5625 44.828125 18.96875 42.75 
Q 17.390625 40.671875 16.53125 37.625 
Q 15.671875 34.578125 15.671875 30.609375 
L 15.671875 0 
L 6.9375 0 
L 6.9375 41.546875 
Q 6.9375 43.21875 6.90625 45.046875 
Q 6.890625 46.875 6.828125 48.5 
Q 6.78125 50.140625 6.734375 51.3125 
Q 6.6875 52.484375 6.640625 52.828125 
L 14.9375 52.828125 
Q 14.984375 52.59375 15.03125 51.515625 
Q 15.09375 50.4375 15.15625 49.046875 
Q 15.234375 47.65625 15.28125 46.21875 
Q 15.328125 44.78125 15.328125 43.796875 
L 15.484375 43.796875 
Q 16.65625 46.09375 18.015625 47.953125 
Q 19.390625 49.8125 21.21875 51.09375 
Q 23.046875 52.390625 25.40625 53.09375 
Q 27.78125 53.8125 30.90625 53.8125 
Q 36.921875 53.8125 40.40625 51.421875 
Q 43.890625 49.03125 45.265625 43.796875 
L 45.40625 43.796875 
Q 46.578125 46.09375 48.046875 47.953125 
Q 49.515625 49.8125 51.46875 51.09375 
Q 53.421875 52.390625 55.859375 53.09375 
Q 58.296875 53.8125 61.421875 53.8125 
Q 65.4375 53.8125 68.328125 52.734375 
Q 71.234375 51.65625 73.09375 49.40625 
Q 74.953125 47.171875 75.828125 43.625 
Q 76.703125 40.09375 76.703125 35.203125 
L 76.703125 0 
L 68.015625 0 
L 68.015625 33.5 
Q 68.015625 37.359375 67.53125 39.9375 
Q 67.046875 42.53125 65.890625 44.109375 
Q 64.75 45.703125 62.890625 46.359375 
Q 61.03125 47.015625 58.34375 47.015625 
Q 55.5625 47.015625 53.3125 45.96875 
Q 51.078125 44.921875 49.484375 42.875 
Q 47.90625 40.828125 47.046875 37.75 
Q 46.1875 34.671875 46.1875 30.609375 
L 46.1875 0 
z
" id="LiberationSans-6d"/>
     </defs>
     <g style="fill:#262626;" transform="translate(284.81015625 385.6934375)scale(0.11 -0.11)">
      <use xlink:href="#LiberationSans-74"/>
      <use x="27.783203125" xlink:href="#LiberationSans-69"/>
      <use x="50.0" xlink:href="#LiberationSans-6d"/>
      <use x="133.30078125" xlink:href="#LiberationSans-65"/>
     </g>
    </g>
   </g>
   <g id="matplotlib.axis_2">
    <g id="ytick_1">
     <g id="line2d_13">
      <path clip-path="url(#p5e0903c191)" d="M 72 356.4 
L 518.4 356.4 
" style="fill:none;stroke:#ffffff;stroke-linecap:round;"/>
     </g>
     <g id="line2d_14"/>
     <g id="line2d_15"/>
     <g id="text_6">
      <!-- 6600 -->
      <g style="fill:#262626;" transform="translate(42.75625 358.9859375)scale(0.1 -0.1)">
       <use xlink:href="#LiberationSans-36"/>
       <use x="55.615234375" xlink:href="#LiberationSans-36"/>
       <use x="111.23046875" xlink:href="#LiberationSans-30"/>
       <use x="166.845703125" xlink:href="#LiberationSans-30"/>
      </g>
     </g>
    </g>
    <g id="ytick_2">
     <g id="line2d_16">
      <path clip-path="url(#p5e0903c191)" d="M 72 316.8 
L 518.4 316.8 
" style="fill:none;stroke:#ffffff;stroke-linecap:round;"/>
     </g>
     <g id="line2d_17"/>
     <g id="line2d_18"/>
     <g id="text_7">
      <!-- 6700 -->
      <g style="fill:#262626;" transform="translate(42.75625 319.3859375)scale(0.1 -0.1)">
       <use xlink:href="#LiberationSans-36"/>
       <use x="55.615234375" xlink:href="#LiberationSans-37"/>
       <use x="111.23046875" xlink:href="#LiberationSans-30"/>
       <use x="166.845703125" xlink:href="#LiberationSans-30"/>
      </g>
     </g>
    </g>
    <g id="ytick_3">
     <g id="line2d_19">
      <path clip-path="url(#p5e0903c191)" d="M 72 277.2 
L 518.4 277.2 
" style="fill:none;stroke:#ffffff;stroke-linecap:round;"/>
     </g>
     <g id="line2d_20"/>
     <g id="line2d_21"/>
     <g id="text_8">
      <!-- 6800 -->
      <defs>
       <path d="M 51.265625 19.1875 
Q 51.265625 14.796875 49.875 11.109375 
Q 48.484375 7.421875 45.625 4.734375 
Q 42.78125 2.046875 38.328125 0.53125 
Q 33.890625 -0.984375 27.828125 -0.984375 
Q 21.78125 -0.984375 17.359375 0.53125 
Q 12.9375 2.046875 10.03125 4.703125 
Q 7.125 7.375 5.734375 11.0625 
Q 4.34375 14.75 4.34375 19.09375 
Q 4.34375 22.859375 5.484375 25.78125 
Q 6.640625 28.71875 8.5625 30.828125 
Q 10.5 32.953125 12.96875 34.25 
Q 15.4375 35.546875 18.0625 35.984375 
L 18.0625 36.1875 
Q 15.1875 36.859375 12.90625 38.375 
Q 10.640625 39.890625 9.09375 42.015625 
Q 7.5625 44.140625 6.75 46.71875 
Q 5.953125 49.3125 5.953125 52.203125 
Q 5.953125 55.8125 7.34375 59 
Q 8.734375 62.203125 11.46875 64.625 
Q 14.203125 67.046875 18.25 68.4375 
Q 22.3125 69.828125 27.640625 69.828125 
Q 33.25 69.828125 37.375 68.40625 
Q 41.5 67 44.203125 64.578125 
Q 46.921875 62.15625 48.234375 58.9375 
Q 49.5625 55.71875 49.5625 52.09375 
Q 49.5625 49.265625 48.75 46.671875 
Q 47.953125 44.09375 46.40625 41.96875 
Q 44.875 39.84375 42.59375 38.34375 
Q 40.328125 36.859375 37.359375 36.28125 
L 37.359375 36.078125 
Q 40.328125 35.59375 42.859375 34.296875 
Q 45.40625 33.015625 47.265625 30.890625 
Q 49.125 28.765625 50.1875 25.828125 
Q 51.265625 22.90625 51.265625 19.1875 
M 40.4375 51.609375 
Q 40.4375 54.203125 39.765625 56.34375 
Q 39.109375 58.5 37.59375 60.03125 
Q 36.078125 61.578125 33.640625 62.421875 
Q 31.203125 63.28125 27.640625 63.28125 
Q 24.171875 63.28125 21.78125 62.421875 
Q 19.390625 61.578125 17.84375 60.03125 
Q 16.3125 58.5 15.625 56.34375 
Q 14.9375 54.203125 14.9375 51.609375 
Q 14.9375 49.5625 15.46875 47.40625 
Q 16.015625 45.265625 17.421875 43.5 
Q 18.84375 41.75 21.328125 40.625 
Q 23.828125 39.5 27.734375 39.5 
Q 31.890625 39.5 34.40625 40.625 
Q 36.921875 41.75 38.25 43.5 
Q 39.59375 45.265625 40.015625 47.40625 
Q 40.4375 49.5625 40.4375 51.609375 
M 42.140625 20.015625 
Q 42.140625 22.515625 41.453125 24.828125 
Q 40.765625 27.15625 39.109375 28.9375 
Q 37.453125 30.71875 34.640625 31.8125 
Q 31.84375 32.90625 27.640625 32.90625 
Q 23.78125 32.90625 21.0625 31.8125 
Q 18.359375 30.71875 16.671875 28.90625 
Q 14.984375 27.09375 14.203125 24.71875 
Q 13.421875 22.359375 13.421875 19.828125 
Q 13.421875 16.65625 14.203125 14.03125 
Q 14.984375 11.421875 16.6875 9.546875 
Q 18.40625 7.671875 21.1875 6.640625 
Q 23.96875 5.609375 27.9375 5.609375 
Q 31.9375 5.609375 34.671875 6.640625 
Q 37.40625 7.671875 39.0625 9.546875 
Q 40.71875 11.421875 41.421875 14.078125 
Q 42.140625 16.75 42.140625 20.015625 
" id="LiberationSans-38"/>
      </defs>
      <g style="fill:#262626;" transform="translate(42.75625 279.7859375)scale(0.1 -0.1)">
       <use xlink:href="#LiberationSans-36"/>
       <use x="55.615234375" xlink:href="#LiberationSans-38"/>
       <use x="111.23046875" xlink:href="#LiberationSans-30"/>
       <use x="166.845703125" xlink:href="#LiberationSans-30"/>
      </g>
     </g>
    </g>
    <g id="ytick_4">
     <g id="line2d_22">
      <path clip-path="url(#p5e0903c191)" d="M 72 237.6 
L 518.4 237.6 
" style="fill:none;stroke:#ffffff;stroke-linecap:round;"/>
     </g>
     <g id="line2d_23"/>
     <g id="line2d_24"/>
     <g id="text_9">
      <!-- 6900 -->
      <g style="fill:#262626;" transform="translate(42.75625 240.1859375)scale(0.1 -0.1)">
       <use xlink:href="#LiberationSans-36"/>
       <use x="55.615234375" xlink:href="#LiberationSans-39"/>
       <use x="111.23046875" xlink:href="#LiberationSans-30"/>
       <use x="166.845703125" xlink:href="#LiberationSans-30"/>
      </g>
     </g>
    </g>
    <g id="ytick_5">
     <g id="line2d_25">
      <path clip-path="url(#p5e0903c191)" d="M 72 198 
L 518.4 198 
" style="fill:none;stroke:#ffffff;stroke-linecap:round;"/>
     </g>
     <g id="line2d_26"/>
     <g id="line2d_27"/>
     <g id="text_10">
      <!-- 7000 -->
      <g style="fill:#262626;" transform="translate(42.75625 200.5859375)scale(0.1 -0.1)">
       <use xlink:href="#LiberationSans-37"/>
       <use x="55.615234375" xlink:href="#LiberationSans-30"/>
       <use x="111.23046875" xlink:href="#LiberationSans-30"/>
       <use x="166.845703125" xlink:href="#LiberationSans-30"/>
      </g>
     </g>
    </g>
    <g id="ytick_6">
     <g id="line2d_28">
      <path clip-path="url(#p5e0903c191)" d="M 72 158.4 
L 518.4 158.4 
" style="fill:none;stroke:#ffffff;stroke-linecap:round;"/>
     </g>
     <g id="line2d_29"/>
     <g id="line2d_30"/>
     <g id="text_11">
      <!-- 7100 -->
      <g style="fill:#262626;" transform="translate(42.75625 160.9859375)scale(0.1 -0.1)">
       <use xlink:href="#LiberationSans-37"/>
       <use x="55.615234375" xlink:href="#LiberationSans-31"/>
       <use x="111.23046875" xlink:href="#LiberationSans-30"/>
       <use x="166.845703125" xlink:href="#LiberationSans-30"/>
      </g>
     </g>
    </g>
    <g id="ytick_7">
     <g id="line2d_31">
      <path clip-path="url(#p5e0903c191)" d="M 72 118.8 
L 518.4 118.8 
" style="fill:none;stroke:#ffffff;stroke-linecap:round;"/>
     </g>
     <g id="line2d_32"/>
     <g id="line2d_33"/>
     <g id="text_12">
      <!-- 7200 -->
      <g style="fill:#262626;" transform="translate(42.75625 121.3859375)scale(0.1 -0.1)">
       <use xlink:href="#LiberationSans-37"/>
       <use x="55.615234375" xlink:href="#LiberationSans-32"/>
       <use x="111.23046875" xlink:href="#LiberationSans-30"/>
       <use x="166.845703125" xlink:href="#LiberationSans-30"/>
      </g>
     </g>
    </g>
    <g id="ytick_8">
     <g id="line2d_34">
      <path clip-path="url(#p5e0903c191)" d="M 72 79.2 
L 518.4 79.2 
" style="fill:none;stroke:#ffffff;stroke-linecap:round;"/>
     </g>
     <g id="line2d_35"/>
     <g id="line2d_36"/>
     <g id="text_13">
      <!-- 7300 -->
      <g style="fill:#262626;" transform="translate(42.75625 81.7859375)scale(0.1 -0.1)">
       <use xlink:href="#LiberationSans-37"/>
       <use x="55.615234375" xlink:href="#LiberationSans-33"/>
       <use x="111.23046875" xlink:href="#LiberationSans-30"/>
       <use x="166.845703125" xlink:href="#LiberationSans-30"/>
      </g>
     </g>
    </g>
    <g id="ytick_9">
     <g id="line2d_37">
      <path clip-path="url(#p5e0903c191)" d="M 72 39.6 
L 518.4 39.6 
" style="fill:none;stroke:#ffffff;stroke-linecap:round;"/>
     </g>
     <g id="line2d_38"/>
     <g id="line2d_39"/>
     <g id="text_14">
      <!-- 7400 -->
      <g style="fill:#262626;" transform="translate(42.75625 42.1859375)scale(0.1 -0.1)">
       <use xlink:href="#LiberationSans-37"/>
       <use x="55.615234375" xlink:href="#LiberationSans-34"/>
       <use x="111.23046875" xlink:href="#LiberationSans-30"/>
       <use x="166.845703125" xlink:href="#LiberationSans-30"/>
      </g>
     </g>
    </g>
   </g>
   <g id="line2d_40">
    <path clip-path="url(#p5e0903c191)" d="M 72 259.329906 
L 72.223312 267.139652 
L 72.446623 265.179452 
L 72.669935 253.445346 
L 72.893247 257.334692 
L 73.116558 263.184239 
L 73.33987 272.958145 
L 73.563182 267.139652 
L 73.786493 274.949399 
L 74.009805 278.838745 
L 74.233117 274.918345 
L 74.456428 278.741623 
L 74.67974 266.945409 
L 74.903052 272.794955 
L 75.126363 270.869769 
L 75.349675 278.679515 
L 75.796298 251.228795 
L 76.01961 245.344235 
L 76.242921 261.033755 
L 76.466233 253.255063 
L 76.689545 261.095863 
L 76.912856 257.175463 
L 77.35948 280.639715 
L 77.582791 276.750369 
L 77.806103 278.679515 
L 78.029415 278.679515 
L 78.476038 282.630969 
L 78.922661 272.861023 
L 79.145973 272.861023 
L 79.369285 288.546583 
L 79.815908 304.232143 
L 80.03922 296.391343 
L 80.262531 292.501997 
L 80.485843 292.466983 
L 80.709155 290.506783 
L 80.932466 284.626183 
L 81.155778 282.630969 
L 81.37909 282.630969 
L 81.602401 286.555329 
L 81.825713 286.555329 
L 82.049025 278.710569 
L 82.272336 265.016263 
L 82.942271 274.790169 
L 83.165583 270.834755 
L 83.388894 274.790169 
L 83.612206 272.861023 
L 83.835518 265.016263 
L 84.058829 266.945409 
L 84.282141 257.144409 
L 84.505453 253.220049 
L 84.952076 264.985209 
L 85.398699 253.286117 
L 85.622011 263.091077 
L 85.845323 261.126917 
L 86.068634 251.325917 
L 86.291946 266.980423 
L 86.738569 261.126917 
L 86.961881 265.016263 
L 87.185193 253.286117 
L 87.408504 255.246317 
L 87.631816 247.242328 
L 87.855128 260.962391 
L 88.078439 262.926551 
L 88.301751 249.268595 
L 88.525063 253.157942 
L 88.748374 245.379249 
L 88.971686 247.339449 
L 89.194997 247.370503 
L 89.418309 261.095863 
L 89.641621 257.237571 
L 89.864932 266.980423 
L 90.534867 251.356971 
L 90.758179 263.056063 
L 90.981491 253.188995 
L 91.204802 255.215263 
L 91.428114 251.290903 
L 91.651426 257.144409 
L 91.874737 249.365717 
L 92.098049 253.255063 
L 92.544672 241.520957 
L 92.767984 239.529703 
L 92.991296 241.489903 
L 93.214607 247.370503 
L 93.437919 241.520957 
L 93.661231 247.339449 
L 93.884542 243.450103 
L 94.107854 249.299649 
L 94.331166 249.330703 
L 94.554477 247.401557 
L 94.777789 251.325917 
L 95.001101 247.370503 
L 95.224412 249.299649 
L 95.447724 239.494689 
L 95.671036 237.565543 
L 95.894347 233.645143 
L 96.117659 239.529703 
L 96.564282 239.560757 
L 96.787594 249.330703 
L 97.457529 249.365717 
L 97.68084 253.255063 
L 97.904152 253.255063 
L 98.127464 249.365717 
L 98.574087 257.272585 
L 98.797399 257.237571 
L 99.02071 247.467625 
L 99.244022 259.201731 
L 99.467334 259.201731 
L 99.913957 241.520957 
L 100.137269 245.441357 
L 100.36058 241.552011 
L 100.583892 243.547225 
L 100.807204 243.547225 
L 101.253827 253.317171 
L 101.477139 249.427825 
L 102.147074 259.201731 
L 102.593697 255.277371 
L 102.817009 241.552011 
L 103.04032 237.662665 
L 103.263632 243.512211 
L 103.486943 243.512211 
L 103.933567 239.591811 
L 104.156878 249.365717 
L 104.38019 243.481157 
L 104.603502 243.512211 
L 105.050125 247.401557 
L 105.273437 233.676197 
L 105.496748 233.676197 
L 105.72006 223.906251 
L 105.943372 233.676197 
L 106.389995 237.631611 
L 106.613307 237.631611 
L 106.836618 241.552011 
L 107.506553 247.401557 
L 107.729865 245.476371 
L 107.953177 249.365717 
L 108.176488 247.436571 
L 108.3998 255.246317 
L 108.623112 257.206517 
L 108.846423 247.436571 
L 109.069735 245.441357 
L 109.516358 249.365717 
L 109.73967 255.246317 
L 109.962981 255.246317 
L 110.409605 278.838745 
L 110.632916 280.798945 
L 110.856228 280.798945 
L 111.07954 282.759145 
L 111.302851 280.798945 
L 111.526163 284.688291 
L 111.972786 274.918345 
L 112.196098 274.949399 
L 112.41941 271.028999 
L 112.642721 280.798945 
L 112.866033 280.798945 
L 113.089345 278.869799 
L 113.312656 280.798945 
L 113.535968 271.028999 
L 113.75928 271.028999 
L 113.982591 276.878545 
L 114.205903 265.113385 
L 114.429215 265.113385 
L 114.652526 274.918345 
L 114.875838 274.887291 
L 115.09915 265.113385 
L 115.322461 267.073585 
L 115.769085 263.122131 
L 115.992396 257.237571 
L 116.215708 241.587025 
L 116.43902 239.591811 
L 116.662331 239.591811 
L 116.885643 245.441357 
L 117.108954 235.640357 
L 117.332266 239.529703 
L 117.555578 247.370503 
L 117.778889 239.494689 
L 118.002201 243.419049 
L 118.225513 243.450103 
L 118.448824 247.401557 
L 118.672136 249.330703 
L 118.895448 249.330703 
L 119.118759 253.220049 
L 119.342071 251.290903 
L 119.565383 255.215263 
L 119.788694 255.215263 
L 120.235318 251.290903 
L 120.458629 259.104609 
L 120.681941 272.829969 
L 121.128564 278.710569 
L 121.351876 290.506783 
L 121.575188 286.586383 
L 121.798499 286.586383 
L 122.245123 282.697037 
L 122.468434 286.586383 
L 122.915058 282.630969 
L 123.361681 272.829969 
L 123.584992 276.750369 
L 123.808304 276.781423 
L 124.031616 286.555329 
L 124.254927 286.586383 
L 124.478239 284.591169 
L 124.701551 286.520315 
L 124.924862 282.568862 
L 125.148174 280.639715 
L 125.594797 280.608662 
L 125.818109 272.829969 
L 126.041421 276.684302 
L 126.264732 270.834755 
L 126.488044 278.648462 
L 126.711356 280.608662 
L 126.934667 278.648462 
L 127.157979 282.537808 
L 127.381291 268.838205 
L 127.604602 264.888088 
L 128.274537 264.888088 
L 128.497849 268.874555 
L 128.721161 282.537808 
L 128.944472 274.724102 
L 129.167784 278.679515 
L 129.614407 282.599915 
L 129.837719 290.444675 
L 130.284342 290.409662 
L 130.507654 280.639715 
L 130.954277 280.608662 
L 131.177589 278.679515 
L 131.4009 268.874555 
L 131.847524 272.763902 
L 132.070835 270.834755 
L 132.294147 261.033755 
L 132.74077 270.834755 
L 132.964082 272.829969 
L 133.187394 276.719315 
L 133.410705 276.719315 
L 133.634017 280.639715 
L 133.857329 282.599915 
L 134.08064 278.679515 
L 134.303952 282.599915 
L 134.527264 290.444675 
L 134.750575 280.670769 
L 134.973887 276.750369 
L 135.42051 292.533051 
L 135.643822 284.723305 
L 136.090445 304.298211 
L 136.313757 294.524305 
L 136.537069 300.408865 
L 136.76038 312.174025 
L 136.983692 296.484505 
L 137.430315 300.408865 
L 137.653627 315.997303 
L 137.876938 310.147757 
L 138.10025 312.107957 
L 138.323562 310.147757 
L 138.546873 304.298211 
L 138.770185 304.263197 
L 138.993497 302.338011 
L 139.216808 308.187557 
L 139.44012 308.187557 
L 139.886743 296.391343 
L 140.110055 298.316529 
L 140.333367 284.626183 
L 140.556678 292.435929 
L 140.77999 292.435929 
L 141.003302 290.506783 
L 141.226613 294.462197 
L 141.673237 310.081689 
L 141.896548 308.121489 
L 142.11986 317.926449 
L 142.343172 308.121489 
L 142.566483 306.161289 
L 142.789795 310.050635 
L 143.236418 294.396129 
L 143.45973 294.396129 
L 143.906353 306.161289 
L 144.129665 306.161289 
L 144.352976 312.041889 
L 144.576288 310.081689 
L 144.7996 310.081689 
L 145.246223 300.311743 
L 145.692846 304.201089 
L 146.13947 300.280689 
L 146.362781 296.391343 
L 146.586093 296.391343 
L 146.809405 306.192343 
L 147.256028 298.316529 
L 147.47934 298.351543 
L 147.702651 300.280689 
L 147.925963 292.435929 
L 148.372586 296.356329 
L 148.81921 292.404875 
L 149.042521 288.480515 
L 149.265833 300.245675 
L 149.489145 302.174822 
L 149.935768 288.515529 
L 150.15908 296.356329 
L 150.382391 300.245675 
L 150.605703 298.316529 
L 150.829015 304.201089 
L 151.275638 308.090435 
L 151.498949 302.240889 
L 152.168884 302.205875 
L 152.392196 300.280689 
L 152.838819 300.280689 
L 153.285443 290.475729 
L 153.508754 292.435929 
L 153.732066 290.444675 
L 153.955378 296.325275 
L 154.178689 290.444675 
L 154.402001 306.095222 
L 154.625313 302.174822 
L 154.848624 294.365075 
L 155.071936 300.214622 
L 155.295248 294.365075 
L 155.518559 302.143768 
L 155.741871 292.369862 
L 155.965183 296.294222 
L 156.188494 292.369862 
L 156.411806 290.444675 
L 156.635118 276.684302 
L 156.858429 284.529062 
L 157.305053 284.498008 
L 157.751676 280.573648 
L 158.198299 284.498008 
L 158.421611 288.418408 
L 158.644922 278.613448 
L 158.868234 280.603365 
L 159.091546 274.693048 
L 159.314857 286.458208 
L 159.538169 282.568862 
L 159.761481 282.568862 
L 159.984792 284.498008 
L 160.208104 280.608662 
L 160.431416 282.568862 
L 160.654727 280.608662 
L 160.878039 276.684302 
L 161.101351 288.418408 
L 161.324662 278.648462 
L 161.547974 282.568862 
L 161.771286 278.648462 
L 161.994597 280.608662 
L 162.217909 284.529062 
L 162.441221 284.498008 
L 162.664532 282.568862 
L 162.887844 276.653248 
L 163.111156 276.653248 
L 163.334467 272.732848 
L 163.557779 272.732848 
L 163.781091 259.007488 
L 164.004402 257.047288 
L 164.227714 262.927888 
L 164.451026 257.047288 
L 164.897649 253.122928 
L 165.12096 253.122928 
L 165.344272 260.967688 
L 165.567584 264.888088 
L 166.014207 260.967688 
L 166.684142 260.967688 
L 166.907454 257.047288 
L 167.130765 259.007488 
L 167.354077 259.007488 
L 167.577389 251.162728 
L 167.8007 249.202528 
L 168.024012 253.122928 
L 168.247324 253.122928 
L 168.470635 249.202528 
L 168.917259 229.596568 
L 169.14057 235.477168 
L 169.363882 225.676168 
L 169.587194 233.516968 
L 169.810505 231.556768 
L 170.033817 219.791608 
L 170.257129 235.477168 
L 170.48044 229.596568 
L 170.703752 233.516968 
L 170.927064 229.596568 
L 171.150375 223.712008 
L 171.373687 225.676168 
L 171.596998 219.791608 
L 171.82031 219.791608 
L 172.043622 217.831408 
L 172.266933 221.751808 
L 172.490245 229.596568 
L 172.713557 229.596568 
L 172.936868 237.437368 
L 173.16018 249.202528 
L 173.383492 243.321928 
L 173.606803 241.361728 
L 173.830115 241.361728 
L 174.053427 239.397568 
L 174.276738 235.477168 
L 174.50005 237.437368 
L 174.723362 229.596568 
L 174.946673 249.202528 
L 175.169985 247.242328 
L 175.616608 251.162728 
L 175.83992 239.397568 
L 176.063232 243.321928 
L 176.286543 233.516968 
L 176.509855 241.361728 
L 176.733167 237.437368 
L 176.956478 239.397568 
L 177.403102 255.087088 
L 177.849725 255.087088 
L 178.073037 243.321928 
L 178.51966 266.848288 
L 178.742971 245.311845 
L 178.966283 243.347685 
L 179.636218 223.710671 
L 179.85953 241.325377 
L 180.306153 221.781525 
L 180.529465 219.790271 
L 180.752776 229.560217 
L 180.976088 213.874657 
L 181.422711 207.990097 
L 181.646023 215.834857 
L 181.869335 215.834857 
L 182.092646 223.710671 
L 182.315958 227.631071 
L 182.53927 227.631071 
L 182.985893 237.467085 
L 183.209205 231.556768 
L 183.87914 225.701925 
L 184.325763 229.626285 
L 184.549075 225.701925 
L 184.995698 229.560217 
L 185.21901 211.945511 
L 185.665633 215.834857 
L 185.888944 223.644603 
L 186.335568 209.985311 
L 186.558879 213.874657 
L 186.782191 202.078443 
L 187.005503 207.927989 
L 187.228814 196.193883 
L 187.452126 196.228897 
L 187.675438 206.029897 
L 188.122061 200.180351 
L 188.345373 202.078443 
L 188.568684 209.919243 
L 189.015308 198.189097 
L 189.238619 198.189097 
L 189.685243 149.137203 
L 189.908554 151.097403 
L 190.131866 155.017803 
L 190.355178 151.066349 
L 190.578489 162.831509 
L 191.025113 153.057603 
L 191.248424 160.871309 
L 191.918359 137.340989 
L 192.141671 139.301189 
L 192.364982 145.216803 
L 192.588294 147.177003 
L 192.811606 151.097403 
L 193.258229 166.782963 
L 193.481541 172.667523 
L 193.704852 164.853817 
L 193.928164 168.743163 
L 194.151476 164.853817 
L 194.374787 180.508323 
L 194.598099 176.587923 
L 194.821411 174.658777 
L 195.044722 174.627723 
L 195.268034 160.902363 
L 195.491346 166.782963 
L 195.714657 155.052817 
L 196.161281 162.862563 
L 196.384592 160.902363 
L 196.607904 155.052817 
L 196.831216 162.893617 
L 197.054527 162.862563 
L 197.501151 166.817977 
L 197.724462 164.888831 
L 197.947774 153.123671 
L 198.394397 153.123671 
L 198.617709 151.163471 
L 199.064332 139.367257 
L 199.287644 145.216803 
L 199.510955 147.177003 
L 199.957579 155.052817 
L 200.18089 151.163471 
L 200.627514 151.163471 
L 200.850825 153.123671 
L 201.074137 157.075125 
L 201.297449 151.164808 
L 201.52076 151.194525 
L 201.744072 145.313925 
L 201.967384 145.313925 
L 202.190695 143.349765 
L 202.414007 143.349765 
L 202.637319 149.203271 
L 203.083942 133.513751 
L 203.307254 139.398311 
L 203.530565 139.398311 
L 203.753877 141.327457 
L 203.977189 137.438111 
L 204.2005 143.287657 
L 204.423812 145.247857 
L 204.647124 139.367257 
L 204.870435 113.876737 
L 205.093747 106.000923 
L 205.317059 102.080523 
L 205.54037 96.195963 
L 205.763682 102.045509 
L 205.986993 104.040723 
L 206.210305 109.890269 
L 206.433617 111.819416 
L 206.656928 107.864002 
L 206.88024 100.054256 
L 207.326863 131.266146 
L 207.550175 123.4564 
L 207.773487 127.310732 
L 207.996798 129.014582 
L 208.22011 134.80202 
L 208.443422 132.84182 
L 208.666733 123.067914 
L 209.113357 126.926206 
L 209.336668 130.846606 
L 209.55998 138.691366 
L 209.783292 140.651566 
L 210.006603 119.244635 
L 210.229915 123.196089 
L 210.676538 119.372811 
L 211.123162 119.403865 
L 211.346473 119.434919 
L 211.569785 117.443665 
L 211.793097 113.585372 
L 212.016408 117.474719 
L 212.23972 125.288425 
L 212.463032 107.735826 
L 213.356278 129.305946 
L 213.57959 129.305946 
L 213.802901 131.235092 
L 214.026213 129.270932 
L 214.249525 135.124439 
L 214.472836 137.115692 
L 214.696148 137.146746 
L 214.91946 133.2574 
L 215.366083 150.90316 
L 215.589395 143.031306 
L 216.036018 137.212814 
L 216.25933 145.053614 
L 216.482641 139.235122 
L 216.705953 139.301189 
L 216.929265 149.071136 
L 217.375888 131.553551 
L 217.5992 147.177003 
L 217.822511 139.367257 
L 218.045823 137.372043 
L 218.269135 139.270136 
L 218.492446 137.340989 
L 218.715758 125.575829 
L 218.93907 133.420589 
L 219.162381 147.145949 
L 219.385693 135.411843 
L 219.609005 147.079882 
L 219.832316 131.425376 
L 220.055628 137.340989 
L 220.278939 133.451643 
L 220.502251 135.442897 
L 220.725563 131.522497 
L 220.948874 135.411843 
L 221.618809 129.531243 
L 221.842121 125.641897 
L 222.065433 131.553551 
L 222.288744 127.633151 
L 222.512056 129.562297 
L 222.958679 119.788391 
L 223.181991 137.469165 
L 223.405303 141.389565 
L 223.628614 143.318711 
L 223.851926 141.358511 
L 224.075238 151.163471 
L 224.298549 141.358511 
L 224.521861 139.429365 
L 224.745173 147.239111 
L 224.968484 133.519048 
L 225.191796 133.548765 
L 225.415108 151.194525 
L 225.638419 141.358511 
L 225.861731 153.092617 
L 226.085043 145.313925 
L 226.308354 145.313925 
L 226.531666 135.510302 
L 226.754977 147.275462 
L 226.978289 147.275462 
L 227.424912 143.386115 
L 227.871536 151.164808 
L 228.094847 139.429365 
L 228.318159 137.469165 
L 228.764782 119.824742 
L 228.988094 113.944142 
L 229.211406 111.983942 
L 229.434717 119.824742 
L 229.658029 115.970409 
L 230.104652 133.616169 
L 230.327964 135.576369 
L 230.551276 141.394862 
L 230.774587 153.125008 
L 230.997899 155.151275 
L 231.444522 168.845582 
L 231.667834 157.142529 
L 231.891146 157.111475 
L 232.114457 162.961022 
L 232.337769 161.000822 
L 232.561081 161.066889 
L 232.784392 168.876635 
L 233.007704 168.845582 
L 233.231016 166.916435 
L 233.454327 161.031875 
L 233.90095 170.867889 
L 234.124262 170.902903 
L 234.347574 167.013557 
L 234.570885 170.902903 
L 234.794197 163.058143 
L 235.017509 164.987289 
L 235.24082 155.217343 
L 235.464132 157.142529 
L 235.687444 157.177543 
L 235.910755 147.403637 
L 236.134067 147.372583 
L 236.357379 149.270675 
L 236.804002 143.421129 
L 237.027314 143.421129 
L 237.250625 139.465715 
L 237.473937 139.465715 
L 237.697249 143.386115 
L 238.367184 137.536569 
L 238.590495 127.731609 
L 238.813807 131.655969 
L 239.037119 137.536569 
L 239.26043 139.496769 
L 239.483742 149.270675 
L 239.707054 149.301729 
L 239.930365 155.182329 
L 240.153677 153.222129 
L 240.376988 153.222129 
L 240.6003 139.496769 
L 240.823612 139.496769 
L 241.046923 143.386115 
L 241.493547 143.452183 
L 241.716858 127.700555 
L 241.94017 121.851009 
L 242.386793 135.545315 
L 242.610105 135.545315 
L 242.833417 117.930609 
L 243.056728 133.585115 
L 243.28004 131.655969 
L 243.503352 125.771409 
L 243.726663 127.700555 
L 243.949975 119.859755 
L 244.173287 121.819955 
L 244.396598 98.289635 
L 244.61991 90.448835 
L 244.843222 102.210035 
L 245.066533 102.178982 
L 245.289845 106.134395 
L 245.513157 102.210035 
L 245.736468 84.564275 
L 245.95978 92.409035 
L 246.183092 84.564275 
L 246.406403 94.369235 
L 246.629715 88.519689 
L 246.853027 88.519689 
L 247.076338 98.289635 
L 247.522961 94.369235 
L 247.746273 88.484675 
L 247.969585 92.409035 
L 248.192896 102.210035 
L 248.416208 96.329435 
L 248.63952 96.329435 
L 248.862831 100.249835 
L 249.086143 100.249835 
L 249.309455 102.210035 
L 249.532766 102.210035 
L 249.756078 96.329435 
L 249.97939 86.524475 
L 250.202701 84.564275 
L 250.426013 88.484675 
L 250.649325 82.604075 
L 250.872636 84.564275 
L 251.095948 78.683675 
L 251.31926 68.878715 
L 251.542571 80.612822 
L 251.765883 68.878715 
L 251.989195 70.807862 
L 252.212506 86.493422 
L 252.435818 92.374022 
L 252.65913 88.453622 
L 253.105753 104.108128 
L 253.775688 92.374022 
L 253.998999 96.263368 
L 254.222311 102.147928 
L 254.445623 90.412485 
L 254.668934 108.028528 
L 255.115558 78.683675 
L 255.338869 88.422568 
L 255.562181 88.422568 
L 255.785493 84.502168 
L 256.008804 90.412485 
L 256.232116 88.452285 
L 256.455428 92.372685 
L 256.678739 88.452285 
L 256.902051 92.372685 
L 257.125363 98.253285 
L 257.348674 98.222231 
L 257.571986 100.213485 
L 257.795298 98.227528 
L 258.018609 94.338182 
L 258.241921 110.023742 
L 258.465233 104.170235 
L 258.688544 104.170235 
L 258.911856 113.975195 
L 259.135168 113.944142 
L 259.358479 108.094595 
L 259.581791 110.054795 
L 260.028414 104.170235 
L 260.251726 102.210035 
L 260.475038 108.094595 
L 260.698349 110.054795 
L 260.921661 106.134395 
L 261.144972 119.859755 
L 261.368284 115.970409 
L 262.038219 133.585115 
L 262.261531 129.660755 
L 262.484842 135.545315 
L 262.708154 131.620955 
L 262.931466 133.585115 
L 263.154777 133.585115 
L 263.378089 145.346315 
L 264.271336 166.916435 
L 264.494647 166.947489 
L 264.941271 163.058143 
L 265.164582 165.018343 
L 265.387894 168.942703 
L 265.611206 166.978543 
L 265.834517 157.142529 
L 266.057829 161.128997 
L 266.281141 159.168797 
L 267.174387 174.889371 
L 267.397699 174.889371 
L 267.621011 186.685585 
L 268.067634 198.415731 
L 268.290945 194.464277 
L 268.514257 198.384677 
L 268.737569 192.504077 
L 268.96088 196.424477 
L 269.407504 206.229437 
L 269.630815 206.229437 
L 269.854127 214.070237 
L 270.077439 214.039183 
L 270.30075 202.242969 
L 270.524062 202.242969 
L 270.747374 200.282769 
L 271.193997 188.548663 
L 271.417309 192.469063 
L 271.64062 198.353623 
L 271.863932 210.149837 
L 272.087244 229.755797 
L 272.310555 216.030437 
L 272.533867 225.804343 
L 272.757179 229.786851 
L 272.98049 241.520957 
L 273.203802 225.835397 
L 273.427114 217.959583 
L 273.873737 227.764543 
L 274.097049 214.008129 
L 274.543672 217.928529 
L 274.766983 215.968329 
L 274.990295 217.959583 
L 275.436918 217.959583 
L 275.66023 212.078983 
L 275.883542 212.078983 
L 276.106853 208.154623 
L 276.330165 215.968329 
L 277.0001 215.968329 
L 277.223412 208.154623 
L 277.446723 215.999383 
L 277.670035 217.959583 
L 277.893347 221.879983 
L 278.33997 204.300291 
L 278.786593 212.172145 
L 279.009905 208.220691 
L 279.233217 206.291545 
L 279.456528 210.211945 
L 279.67984 218.025651 
L 279.903152 212.172145 
L 280.126463 223.972319 
L 280.349775 222.008159 
L 280.796398 214.167359 
L 281.01971 216.127559 
L 281.243022 210.278012 
L 281.689645 218.056705 
L 281.912956 216.096505 
L 282.35958 198.450745 
L 282.582891 178.871879 
L 282.806203 190.605985 
L 283.029515 190.605985 
L 283.252826 182.796239 
L 283.476138 182.796239 
L 283.69945 184.756439 
L 283.922761 188.676839 
L 284.369385 176.880625 
L 284.592696 176.880625 
L 284.816008 174.889371 
L 285.03932 170.965011 
L 285.262631 170.933957 
L 285.485943 167.044611 
L 285.709255 172.894157 
L 286.155878 159.265919 
L 286.37919 161.164011 
L 286.602501 153.319251 
L 286.825813 157.208597 
L 287.049125 153.350305 
L 287.495748 167.044611 
L 287.71906 167.075665 
L 287.942371 161.257172 
L 288.165683 159.296972 
L 288.388994 159.296972 
L 288.835618 178.871879 
L 289.058929 178.871879 
L 289.282241 190.672052 
L 289.505553 190.672052 
L 289.952176 182.827292 
L 290.175488 192.566185 
L 290.622111 196.486585 
L 290.845423 192.597239 
L 291.068734 194.561399 
L 291.292046 190.605985 
L 291.515358 190.605985 
L 291.738669 192.566185 
L 291.961981 188.676839 
L 292.408604 169.035865 
L 292.855228 172.925211 
L 293.301851 182.761225 
L 293.525163 178.840825 
L 293.748474 184.756439 
L 293.971786 186.716639 
L 294.195098 186.716639 
L 294.418409 188.645785 
L 294.641721 188.645785 
L 294.865033 190.605985 
L 295.088344 198.450745 
L 295.311656 196.552652 
L 295.758279 190.672052 
L 295.981591 188.742906 
L 296.204902 190.672052 
L 296.428214 186.782706 
L 296.651526 176.946692 
L 296.874837 174.982532 
L 297.098149 194.592452 
L 297.321461 192.632252 
L 297.544772 182.827292 
L 297.768084 182.827292 
L 297.991396 227.923772 
L 298.214707 233.839386 
L 298.438019 229.918986 
L 298.661331 218.18488 
L 299.107954 226.02964 
L 299.331266 237.79084 
L 299.554577 237.759786 
L 300.224512 222.043172 
L 300.447824 222.043172 
L 300.671136 214.198412 
L 300.894447 229.852919 
L 301.117759 223.972319 
L 301.341071 231.813119 
L 301.564382 224.003372 
L 302.011006 233.839386 
L 302.234317 229.918986 
L 302.457629 222.074226 
L 302.68094 229.918986 
L 302.904252 231.879186 
L 303.127564 227.98984 
L 303.574187 247.5958 
L 303.797499 249.524946 
L 304.02081 249.524946 
L 304.244122 245.6356 
L 304.467434 249.524946 
L 304.690745 255.405546 
L 304.914057 245.604546 
L 305.137369 253.414292 
L 305.36068 257.334692 
L 305.583992 251.5162 
L 305.807304 261.290106 
L 306.030615 255.44056 
L 306.923862 255.44056 
L 307.147174 257.365746 
L 307.370485 253.445346 
L 307.593797 253.445346 
L 307.817109 239.719986 
L 308.04042 243.6754 
L 308.263732 241.680186 
L 308.487044 241.680186 
L 308.933667 255.374492 
L 309.156978 255.374492 
L 309.603602 265.179452 
L 309.826913 263.250306 
L 310.496848 229.918986 
L 310.72016 243.609332 
L 310.943472 243.578279 
L 311.166783 233.773319 
L 311.390095 239.657879 
L 311.613407 233.808332 
L 311.836718 239.622865 
L 312.06003 235.733519 
L 312.283342 243.547225 
L 312.506653 241.618079 
L 313.176588 261.255092 
L 313.3999 261.224039 
L 313.623212 259.458082 
L 313.846523 218.379123 
L 314.069835 212.463509 
L 314.293147 173.375805 
L 314.516458 190.959457 
L 314.73977 189.030311 
L 314.963082 216.481031 
L 315.186393 212.560631 
L 315.409705 222.396645 
L 315.633017 220.436445 
L 315.856328 228.246191 
L 316.302951 210.693593 
L 316.526263 226.285991 
L 316.749575 206.742139 
L 316.972886 210.631485 
L 317.196198 204.781939 
L 317.41951 214.551885 
L 317.866133 195.008033 
L 318.089445 191.118686 
L 318.312756 191.118686 
L 318.536068 175.371019 
L 318.75938 175.336005 
L 318.982691 167.526259 
L 319.206003 165.566059 
L 319.429315 175.371019 
L 319.652626 171.481673 
L 319.875938 183.246833 
L 320.322561 175.402073 
L 320.545873 179.322473 
L 320.769185 175.433126 
L 320.992496 161.74278 
L 321.215808 165.632126 
L 321.43912 163.734034 
L 321.662431 159.813634 
L 321.885743 163.70298 
L 322.109055 171.609848 
L 322.332366 169.614634 
L 322.555678 169.614634 
L 322.778989 171.54378 
L 323.002301 167.720502 
L 323.225613 167.689448 
L 323.448924 163.800102 
L 323.672236 171.578794 
L 324.118859 165.725288 
L 324.342171 163.831156 
L 324.788794 175.561302 
L 325.012106 173.601102 
L 325.235418 179.450648 
L 325.458729 173.570048 
L 325.682041 177.459394 
L 325.905353 171.578794 
L 326.128664 181.379794 
L 326.351976 181.414808 
L 326.575288 185.304154 
L 326.798599 173.570048 
L 327.021911 185.335208 
L 327.245223 189.255608 
L 327.468534 200.989714 
L 327.915158 179.450648 
L 328.138469 181.379794 
L 328.361781 169.614634 
L 328.585093 187.264354 
L 329.478339 171.609848 
L 329.701651 181.379794 
L 329.924962 183.30894 
L 330.148274 181.34874 
L 330.371586 177.42834 
L 330.594897 175.46814 
L 331.041521 179.357486 
L 331.264832 179.38854 
L 331.488144 187.167233 
L 331.711456 185.238086 
L 331.934767 185.304154 
L 332.158079 191.1537 
L 332.381391 187.264354 
L 332.604702 173.538994 
L 332.828014 171.578794 
L 333.051326 175.46814 
L 333.274637 175.46814 
L 333.497949 179.38854 
L 333.721261 171.512726 
L 333.944572 171.512726 
L 334.167884 167.62338 
L 334.391196 173.472926 
L 334.614507 167.62338 
L 334.837819 151.93782 
L 335.061131 151.93782 
L 335.284442 157.787366 
L 335.507754 169.58358 
L 335.731066 165.632126 
L 335.954377 165.632126 
L 336.177689 157.81842 
L 336.401001 159.77862 
L 336.624312 153.964088 
L 336.847624 163.765088 
L 337.74087 163.765088 
L 337.964182 144.190182 
L 338.187494 136.283314 
L 338.410805 161.804888 
L 338.634117 163.734034 
L 338.857429 153.929074 
L 339.08074 167.62338 
L 339.304052 167.62338 
L 339.527364 153.929074 
L 339.750675 157.81842 
L 339.973987 153.929074 
L 340.197299 153.929074 
L 340.42061 165.694234 
L 340.643922 169.58358 
L 340.867234 149.97762 
L 341.090545 146.05326 
L 341.313857 155.827166 
L 341.76048 159.77862 
L 341.983792 159.77862 
L 342.207104 155.889274 
L 342.430415 144.128074 
L 342.877039 144.128074 
L 343.10035 140.238728 
L 343.323662 151.968874 
L 343.546973 142.198928 
L 343.770285 159.813634 
L 343.993597 159.813634 
L 344.216908 153.929074 
L 344.44022 179.419594 
L 344.663532 153.929074 
L 344.886843 165.725288 
L 345.110155 167.689448 
L 345.333467 173.570048 
L 345.556778 187.357516 
L 345.78009 181.507969 
L 346.003402 171.640902 
L 346.226713 136.349382 
L 346.450025 128.535676 
L 346.673337 136.314368 
L 346.896648 163.800102 
L 347.11996 165.791356 
L 347.343272 169.680702 
L 347.566583 144.256249 
L 348.236518 163.734034 
L 348.906453 144.190182 
L 349.129765 144.190182 
L 349.353077 155.955342 
L 349.7997 187.392529 
L 350.023012 177.653637 
L 350.246323 173.729277 
L 350.469635 165.950585 
L 350.692946 179.613837 
L 351.362881 195.330451 
L 351.586193 199.188743 
L 352.032816 187.423583 
L 352.47944 183.468169 
L 352.702751 179.578823 
L 352.926063 183.503183 
L 353.149375 179.450648 
L 353.372686 199.060568 
L 353.595998 195.136208 
L 353.81931 183.437116 
L 354.042621 191.281876 
L 354.265933 195.202276 
L 354.489245 187.392529 
L 354.712556 195.202276 
L 354.935868 199.091622 
L 355.15918 191.281876 
L 355.382491 201.082876 
L 355.605803 195.171222 
L 355.829115 199.060568 
L 356.052426 191.246862 
L 356.275738 199.060568 
L 356.49905 191.215808 
L 356.945673 191.215808 
L 357.168984 187.295408 
L 357.615608 165.760302 
L 357.838919 175.530248 
L 358.062231 171.578794 
L 358.285543 183.30894 
L 358.732166 167.654434 
L 358.955478 165.725288 
L 359.402101 173.570048 
L 359.625413 167.751556 
L 359.848724 171.609848 
L 360.072036 165.725288 
L 360.295348 163.734034 
L 360.518659 148.048474 
L 360.741971 148.079528 
L 360.965283 150.039728 
L 361.188594 148.110582 
L 361.411906 150.074742 
L 361.635218 153.964088 
L 362.081841 163.765088 
L 362.528464 155.924288 
L 363.198399 150.074742 
L 363.645023 159.875742 
L 363.868334 157.946596 
L 364.091646 167.782609 
L 364.314957 159.910756 
L 364.538269 159.910756 
L 364.761581 157.946596 
L 364.984892 146.247503 
L 365.208204 150.167903 
L 365.431516 150.136849 
L 365.654827 142.358157 
L 365.878139 146.247503 
L 366.101451 146.247503 
L 366.324762 144.256249 
L 366.548074 150.105796 
L 366.771386 140.300836 
L 366.994697 153.995142 
L 367.218009 148.145596 
L 367.441321 159.813634 
L 367.664632 159.813634 
L 367.887944 152.065996 
L 368.111256 155.986396 
L 368.557879 165.822409 
L 368.781191 158.012663 
L 369.004502 169.777823 
L 369.227814 171.738023 
L 369.451126 156.242746 
L 369.674437 160.132093 
L 369.897749 156.180639 
L 370.344372 156.211693 
L 370.567684 165.950585 
L 371.014307 169.905999 
L 371.237619 167.910785 
L 371.46093 169.839931 
L 371.907554 163.734034 
L 372.130865 165.632126 
L 372.354177 179.38854 
L 372.8008 148.01742 
L 373.024112 159.813634 
L 373.247424 159.813634 
L 373.470735 148.01742 
L 373.917359 163.734034 
L 374.14067 163.734034 
L 374.363982 161.835942 
L 374.587294 163.765088 
L 374.810605 163.765088 
L 375.033917 157.946596 
L 375.257229 163.734034 
L 375.48054 163.70298 
L 375.703852 159.844688 
L 375.927164 159.875742 
L 376.373787 167.62338 
L 376.82041 167.62338 
L 377.043722 155.955342 
L 377.490345 159.875742 
L 377.936968 159.875742 
L 378.16028 163.831156 
L 378.383592 154.092263 
L 378.606903 159.972863 
L 378.830215 171.769077 
L 379.053527 175.689477 
L 379.276838 175.689477 
L 379.50015 171.800131 
L 379.723462 175.724491 
L 379.946773 183.503183 
L 380.393397 183.534237 
L 380.616708 185.494437 
L 380.84002 183.565291 
L 381.063332 205.104357 
L 381.286643 195.330451 
L 381.509955 214.843249 
L 381.733267 220.661742 
L 381.956578 220.661742 
L 382.17989 214.777182 
L 382.403202 222.684049 
L 382.626513 222.652996 
L 382.849825 234.418156 
L 383.073137 230.497756 
L 383.296448 238.338556 
L 383.51976 232.457956 
L 383.743072 234.387102 
L 383.966383 238.241434 
L 384.413007 238.241434 
L 384.636318 236.312288 
L 384.85963 242.196848 
L 385.082941 238.276448 
L 385.306253 249.97554 
L 385.529565 242.165794 
L 385.752876 242.165794 
L 385.976188 238.276448 
L 386.1995 238.276448 
L 386.422811 234.387102 
L 386.646123 236.281234 
L 386.869435 242.165794 
L 387.092746 238.276448 
L 387.316058 232.391888 
L 387.53937 234.352088 
L 387.762681 240.236648 
L 387.985993 240.267702 
L 388.209305 250.072662 
L 388.432616 252.063916 
L 388.655928 252.063916 
L 388.87924 246.214369 
L 389.102551 255.984316 
L 389.325863 252.063916 
L 389.549175 252.063916 
L 389.772486 242.227902 
L 390.21911 234.387102 
L 390.442421 236.312288 
L 390.665733 232.391888 
L 390.889045 238.21038 
L 391.112356 234.254966 
L 391.335668 242.068673 
L 391.558979 245.958019 
L 391.782291 226.348099 
L 392.005603 222.458753 
L 392.228914 232.263713 
L 392.452226 236.219126 
L 392.675538 236.281234 
L 392.898849 240.236648 
L 393.122161 252.032862 
L 393.345473 255.953262 
L 393.568784 236.347302 
L 393.792096 238.307502 
L 394.015408 234.387102 
L 394.238719 240.298756 
L 394.462031 252.063916 
L 394.685343 253.962008 
L 394.908654 257.851354 
L 395.131966 263.731954 
L 395.355278 257.913462 
L 395.578589 269.647568 
L 395.801901 269.709676 
L 396.025213 277.523382 
L 396.248524 263.763008 
L 396.471836 261.833862 
L 396.695148 267.718422 
L 396.918459 259.908676 
L 397.141771 269.647568 
L 397.365083 267.687368 
L 397.588394 277.488368 
L 397.811706 279.448568 
L 398.258329 269.744689 
L 398.481641 273.665089 
L 399.151576 273.634036 
L 399.598199 259.908676 
L 399.821511 273.634036 
L 400.044822 273.665089 
L 400.268134 269.744689 
L 400.491446 271.704889 
L 400.938069 271.704889 
L 401.161381 273.665089 
L 401.384692 250.165823 
L 401.608004 250.165823 
L 401.831316 256.019329 
L 402.054627 246.276477 
L 402.277939 250.165823 
L 402.501251 248.205623 
L 402.724562 242.356077 
L 403.171186 226.670517 
L 403.394497 234.480263 
L 403.617809 254.024116 
L 403.841121 242.325023 
L 404.064432 254.090183 
L 404.287744 256.050383 
L 404.511056 254.090183 
L 404.734367 265.886397 
L 404.957679 260.001837 
L 405.18099 260.001837 
L 405.404302 263.926197 
L 405.627614 263.926197 
L 405.850925 258.076651 
L 406.297549 263.957251 
L 406.52086 261.997051 
L 406.744172 258.076651 
L 406.967484 226.895814 
L 407.190795 234.740574 
L 407.414107 234.833736 
L 407.637419 238.723082 
L 408.084042 230.913336 
L 408.307354 209.312162 
L 408.753977 203.467912 
L 408.977289 207.419366 
L 409.2006 197.583352 
L 409.647224 193.72902 
L 409.870535 197.618366 
L 410.093847 193.72902 
L 410.317159 187.813406 
L 410.54047 187.782352 
L 410.763782 181.897792 
L 410.987094 181.897792 
L 411.210405 179.906539 
L 411.433717 183.857992 
L 411.88034 187.813406 
L 412.103652 193.662952 
L 412.326963 195.654206 
L 412.773587 207.357259 
L 412.996898 193.631899 
L 413.22021 203.462616 
L 413.443522 203.431562 
L 413.666833 199.542216 
L 413.890145 199.542216 
L 414.113457 195.592099 
L 414.336768 195.621816 
L 414.56008 201.502416 
L 414.783392 199.511162 
L 415.230015 199.511162 
L 415.453327 191.697456 
L 415.676638 195.621816 
L 415.89995 209.312162 
L 416.123262 203.400508 
L 416.346573 207.289854 
L 416.569885 203.400508 
L 416.793197 211.210254 
L 417.23982 211.1792 
L 417.463132 201.405294 
L 417.686443 207.25484 
L 417.909755 209.250054 
L 418.133067 199.476148 
L 418.356378 205.29464 
L 418.57969 207.25484 
L 418.803002 207.25484 
L 419.026313 203.33444 
L 419.249625 207.223786 
L 419.472936 207.192733 
L 419.696248 197.45384 
L 419.91956 195.49364 
L 420.142871 199.382986 
L 420.366183 199.382986 
L 420.589495 191.56928 
L 421.482741 207.161679 
L 421.706053 218.794703 
L 421.929365 212.976211 
L 422.152676 218.860771 
L 422.375988 216.962679 
L 422.5993 220.883079 
L 422.822611 220.883079 
L 423.045923 218.957893 
L 423.269235 222.847239 
L 423.492546 222.847239 
L 423.715858 220.918093 
L 423.93917 220.918093 
L 424.162481 218.922879 
L 424.385793 220.883079 
L 424.609105 216.993733 
L 425.055728 195.524694 
L 425.502351 211.144186 
L 425.725663 211.144186 
L 425.948974 215.033533 
L 426.172286 187.64888 
L 426.395598 203.206265 
L 426.618909 199.316919 
L 426.842221 209.152933 
L 427.065533 199.382986 
L 427.288844 197.418826 
L 427.512156 203.303386 
L 427.958779 199.347973 
L 428.182091 216.993733 
L 428.405403 213.073333 
L 428.628714 215.033533 
L 428.852026 215.002479 
L 429.075338 213.042279 
L 429.298649 214.971425 
L 429.521961 207.161679 
L 429.745273 211.082079 
L 429.968584 207.161679 
L 430.415208 207.161679 
L 430.638519 205.197519 
L 430.861831 205.197519 
L 431.085143 215.002479 
L 431.308454 203.237319 
L 431.531766 218.922879 
L 431.755078 215.068546 
L 431.978389 203.206265 
L 432.201701 222.719063 
L 432.425013 214.905357 
L 432.648324 214.905357 
L 432.871636 218.794703 
L 433.094947 228.568609 
L 433.318259 226.573396 
L 433.541571 214.843249 
L 433.764882 216.772396 
L 433.988194 214.808236 
L 434.211506 222.621942 
L 434.434817 216.772396 
L 434.658129 216.772396 
L 434.881441 234.321034 
L 435.328064 230.462742 
L 435.551376 232.422942 
L 435.774687 240.236648 
L 435.997999 240.201634 
L 436.221311 238.241434 
L 436.444622 242.13078 
L 436.667934 232.360834 
L 436.891246 230.462742 
L 437.114557 224.582142 
L 437.337869 232.422942 
L 437.561181 224.644249 
L 437.784492 222.652996 
L 438.007804 226.573396 
L 438.231116 222.684049 
L 438.677739 222.652996 
L 438.901051 230.462742 
L 439.124362 234.352088 
L 439.347674 226.476274 
L 439.570985 222.586928 
L 439.794297 222.555874 
L 440.017609 214.777182 
L 440.687544 208.958689 
L 440.910855 210.887836 
L 441.134167 214.777182 
L 441.357479 212.785928 
L 441.58079 212.785928 
L 441.804102 199.060568 
L 442.027414 202.949914 
L 442.250725 210.75966 
L 442.697349 191.215808 
L 443.143972 183.375008 
L 443.367284 175.530248 
L 443.590595 171.640902 
L 444.037219 218.957893 
L 444.26053 238.62992 
L 444.483842 217.0598 
L 444.707154 215.130654 
L 444.930465 217.090854 
L 445.153777 215.161708 
L 445.377089 226.86476 
L 445.6004 224.869546 
L 445.823712 230.719093 
L 446.047024 220.949146 
L 446.270335 224.869546 
L 446.493647 226.829746 
L 446.716958 226.829746 
L 446.94027 230.754106 
L 447.163582 226.86476 
L 447.386893 226.86476 
L 447.610205 228.856014 
L 447.833517 232.74536 
L 448.056828 228.856014 
L 448.28014 246.501774 
L 448.503452 230.851228 
L 448.726763 226.895814 
L 448.950075 230.78516 
L 449.173387 222.975414 
L 449.396698 211.1792 
L 449.62001 215.068546 
L 450.066633 230.754106 
L 450.289945 216.993733 
L 450.736568 224.869546 
L 450.95988 224.935614 
L 451.183192 223.037522 
L 451.406503 217.187976 
L 451.629815 217.187976 
L 451.853127 219.148176 
L 452.076438 209.347176 
L 452.29975 211.308712 
L 452.523062 211.308712 
L 452.746373 225.003019 
L 452.969685 248.533339 
L 453.192996 240.754646 
L 453.416308 246.598896 
L 453.63962 238.723082 
L 453.862931 238.692028 
L 454.086243 219.086068 
L 454.309555 219.086068 
L 454.756178 211.210254 
L 454.97949 209.183986 
L 455.202801 209.183986 
L 455.426113 195.524694 
L 455.649425 211.210254 
L 455.872736 209.250054 
L 456.096048 211.210254 
L 456.31936 219.02 
L 456.989295 207.320908 
L 457.212606 215.130654 
L 457.435918 219.02 
L 457.65923 215.0996 
L 457.882541 215.0996 
L 458.105853 211.241308 
L 458.552476 211.241308 
L 458.775788 207.320908 
L 459.222411 213.170454 
L 459.445723 207.289854 
L 460.115658 207.351962 
L 460.338969 211.272362 
L 460.785593 205.397059 
L 461.008904 209.347176 
L 461.232216 199.512499 
L 461.455528 207.383016 
L 461.678839 207.357259 
L 461.902151 213.237859 
L 462.125463 215.198059 
L 462.348774 207.357259 
L 462.795398 207.357259 
L 463.242021 199.543552 
L 463.465333 203.467912 
L 463.911956 203.432899 
L 464.135268 213.237859 
L 464.358579 199.543552 
L 464.581891 203.498966 
L 465.028514 193.662952 
L 465.251826 199.543552 
L 465.475138 197.583352 
L 465.698449 187.813406 
L 465.921761 199.476148 
L 466.145073 181.861442 
L 466.368384 175.986139 
L 466.591696 189.706202 
L 466.815008 168.105028 
L 467.038319 179.742013 
L 467.484942 160.229214 
L 467.708254 175.949788 
L 467.931566 168.207446 
L 468.154877 179.968646 
L 468.378189 179.968646 
L 468.601501 154.51314 
L 468.824812 158.402486 
L 469.048124 158.402486 
L 469.271436 164.283086 
L 469.494747 160.39374 
L 469.941371 160.39374 
L 470.164682 168.207446 
L 470.611306 160.39374 
L 470.834617 160.362686 
L 471.057929 166.212232 
L 471.504552 158.402486 
L 471.951176 170.1987 
L 472.174487 172.1589 
L 472.397799 170.1987 
L 472.621111 172.1589 
L 472.844422 170.1987 
L 473.067734 172.1589 
L 473.291046 176.048246 
L 473.514357 172.1589 
L 473.737669 172.1589 
L 473.96098 176.0793 
L 474.407604 176.048246 
L 474.630915 168.2385 
L 475.077539 185.915314 
L 475.30085 182.025968 
L 475.524162 182.025968 
L 475.970785 195.751328 
L 476.194097 195.751328 
L 476.417409 199.640674 
L 476.64072 217.290394 
L 476.864032 209.511702 
L 477.087344 191.896996 
L 477.310655 191.861982 
L 477.533967 199.675688 
L 477.98059 191.896996 
L 478.203902 195.751328 
L 478.427214 195.751328 
L 478.873837 199.675688 
L 479.097149 199.675688 
L 479.32046 201.666942 
L 479.543772 201.666942 
L 479.767084 203.596088 
L 479.990395 195.817396 
L 480.213707 199.706742 
L 480.437019 193.857196 
L 480.66033 203.596088 
L 480.883642 205.556288 
L 481.106953 219.250594 
L 481.330265 211.436888 
L 481.553577 211.436888 
L 481.776888 227.091394 
L 482.0002 227.091394 
L 482.223512 209.41458 
L 482.446823 219.184526 
L 482.670135 207.45438 
L 482.893447 207.45438 
L 483.34007 236.8653 
L 483.563382 234.90114 
L 483.786693 230.918632 
L 484.010005 234.807979 
L 484.233317 219.21558 
L 484.456628 223.104926 
L 484.67994 203.53002 
L 484.903252 217.224326 
L 485.126563 215.361248 
L 485.349875 215.361248 
L 485.573187 223.170994 
L 485.796498 219.250594 
L 486.243122 227.06034 
L 486.689745 219.250594 
L 486.913057 227.091394 
L 487.136368 227.029286 
L 487.35968 230.949686 
L 487.582991 227.06034 
L 487.806303 229.02054 
L 488.029615 225.131194 
L 488.252926 227.06034 
L 488.476238 227.029286 
L 488.69955 223.13994 
L 488.922861 227.029286 
L 489.369485 223.13994 
L 489.592796 230.949686 
L 489.816108 242.648779 
L 490.03942 234.870086 
L 490.262731 232.94094 
L 490.486043 234.870086 
L 490.709355 238.790486 
L 490.932666 250.524592 
L 491.155978 246.635246 
L 491.37929 246.604192 
L 491.825913 238.790486 
L 492.495848 250.519296 
L 492.71916 246.598896 
L 493.165783 223.037522 
L 493.389095 223.037522 
L 493.612406 250.519296 
L 493.835718 250.519296 
L 494.05903 219.086068 
L 494.505653 191.666402 
L 494.952276 183.825602 
L 495.175588 187.714948 
L 495.398899 179.936256 
L 495.622211 191.666402 
L 495.845523 175.986139 
L 496.068834 179.906539 
L 496.292146 179.906539 
L 496.515458 187.747339 
L 496.738769 176.017192 
L 497.185393 181.896456 
L 497.408704 181.896456 
L 497.632016 175.986139 
L 497.855328 174.021979 
L 498.078639 175.986139 
L 498.301951 183.825602 
L 498.525263 187.714948 
L 498.971886 175.980842 
L 499.195198 160.326336 
L 499.418509 183.825602 
L 499.641821 181.861442 
L 499.865133 187.714948 
L 500.088444 197.45384 
L 500.311756 195.49364 
L 500.535068 199.347973 
L 500.758379 193.498426 
L 500.981691 191.538226 
L 501.205003 195.49364 
L 501.428314 183.759534 
L 501.651626 183.72848 
L 501.874937 175.949788 
L 502.544872 175.980842 
L 502.768184 179.870188 
L 502.991496 172.060442 
L 503.214807 175.949788 
L 503.884742 175.914774 
L 504.108054 168.073974 
L 504.331366 175.88372 
L 504.554677 171.994374 
L 505.001301 171.994374 
L 505.224612 170.034174 
L 505.447924 173.92352 
L 505.671236 173.892466 
L 505.894547 170.00312 
L 506.117859 173.892466 
L 506.341171 168.04292 
L 506.787794 168.007906 
L 507.011106 181.671159 
L 507.234417 183.600305 
L 507.457729 195.330451 
L 507.681041 191.441105 
L 507.904352 195.361505 
L 508.127664 203.206265 
L 508.350975 214.971425 
L 508.574287 207.161679 
L 508.797599 183.631359 
L 509.02091 203.237319 
L 509.244222 187.520705 
L 509.690845 197.325665 
L 509.914157 197.325665 
L 510.137469 207.095611 
L 510.36078 211.051025 
L 510.584092 195.361505 
L 510.807404 218.763649 
L 511.030715 324.642169 
L 511.254027 261.771754 
L 511.477339 261.7407 
L 511.70065 246.05514 
L 511.923962 249.944486 
L 512.147274 246.05514 
L 512.370585 246.05514 
L 512.593897 242.165794 
L 513.04052 242.165794 
L 513.263832 226.476274 
L 513.487144 246.05514 
L 513.710455 238.276448 
L 513.933767 242.165794 
L 514.157079 242.13078 
L 514.38039 246.05514 
L 514.603702 277.329139 
L 514.827014 265.6611 
L 515.050325 269.550446 
L 515.273637 265.6611 
L 515.496948 269.709676 
L 515.72026 265.820329 
L 515.943572 269.709676 
L 516.166883 254.152291 
L 516.390195 254.152291 
L 516.613507 250.262945 
L 516.836818 240.492999 
L 517.06013 238.563853 
L 517.283442 240.492999 
L 517.506753 250.329013 
L 517.730065 234.608439 
L 517.953377 254.152291 
L 518.176688 258.041637 
L 518.4 254.152291 
L 518.4 254.152291 
" style="fill:none;stroke:#4c72b0;stroke-linecap:round;stroke-width:1.75;"/>
   </g>
   <g id="patch_3">
    <path d="M 72 356.4 
L 518.4 356.4 
" style="fill:none;"/>
   </g>
   <g id="patch_4">
    <path d="M 72 39.6 
L 518.4 39.6 
" style="fill:none;"/>
   </g>
   <g id="patch_5">
    <path d="M 72 356.4 
L 72 39.6 
" style="fill:none;"/>
   </g>
   <g id="patch_6">
    <path d="M 518.4 356.4 
L 518.4 39.6 
" style="fill:none;"/>
   </g>
   <g id="text_15">
    <!-- zn - 15.346220586062238 * i -->
    <defs>
     <path d="M 9.125 0 
L 9.125 10.6875 
L 18.65625 10.6875 
L 18.65625 0 
z
" id="LiberationSans-2e"/>
     <path d="M 22.265625 54.390625 
L 35.15625 59.421875 
L 37.359375 52.984375 
L 23.578125 49.421875 
L 32.625 37.203125 
L 26.8125 33.6875 
L 19.484375 46.296875 
L 11.859375 33.796875 
L 6.0625 37.3125 
L 15.28125 49.421875 
L 1.609375 52.984375 
L 3.8125 59.515625 
L 16.84375 54.296875 
L 16.265625 68.796875 
L 22.90625 68.796875 
z
" id="LiberationSans-2a"/>
     <path d="M 40.28125 0 
L 40.28125 33.5 
Q 40.28125 37.359375 39.71875 39.9375 
Q 39.15625 42.53125 37.890625 44.109375 
Q 36.625 45.703125 34.546875 46.359375 
Q 32.46875 47.015625 29.390625 47.015625 
Q 26.265625 47.015625 23.75 45.921875 
Q 21.234375 44.828125 19.453125 42.75 
Q 17.671875 40.671875 16.6875 37.625 
Q 15.71875 34.578125 15.71875 30.609375 
L 15.71875 0 
L 6.9375 0 
L 6.9375 41.546875 
Q 6.9375 43.21875 6.90625 45.046875 
Q 6.890625 46.875 6.828125 48.5 
Q 6.78125 50.140625 6.734375 51.3125 
Q 6.6875 52.484375 6.640625 52.828125 
L 14.9375 52.828125 
Q 14.984375 52.59375 15.03125 51.515625 
Q 15.09375 50.4375 15.15625 49.046875 
Q 15.234375 47.65625 15.28125 46.21875 
Q 15.328125 44.78125 15.328125 43.796875 
L 15.484375 43.796875 
Q 16.75 46.09375 18.265625 47.953125 
Q 19.78125 49.8125 21.78125 51.09375 
Q 23.78125 52.390625 26.359375 53.09375 
Q 28.953125 53.8125 32.375 53.8125 
Q 36.765625 53.8125 39.9375 52.734375 
Q 43.109375 51.65625 45.15625 49.40625 
Q 47.21875 47.171875 48.171875 43.625 
Q 49.125 40.09375 49.125 35.203125 
L 49.125 0 
z
" id="LiberationSans-6e"/>
     <path d="M 2.390625 0 
L 2.390625 6.6875 
L 34.671875 46.046875 
L 4.34375 46.046875 
L 4.34375 52.828125 
L 44.578125 52.828125 
L 44.578125 46.140625 
L 12.25 6.78125 
L 46.390625 6.78125 
L 46.390625 0 
z
" id="LiberationSans-7a"/>
    </defs>
    <g style="fill:#262626;" transform="translate(218.14125 34.6)scale(0.12 -0.12)">
     <use xlink:href="#LiberationSans-7a"/>
     <use x="50.0" xlink:href="#LiberationSans-6e"/>
     <use x="105.615234375" xlink:href="#LiberationSans-20"/>
     <use x="133.3984375" xlink:href="#LiberationSans-2d"/>
     <use x="166.69921875" xlink:href="#LiberationSans-20"/>
     <use x="194.482421875" xlink:href="#LiberationSans-31"/>
     <use x="250.09765625" xlink:href="#LiberationSans-35"/>
     <use x="305.712890625" xlink:href="#LiberationSans-2e"/>
     <use x="333.49609375" xlink:href="#LiberationSans-33"/>
     <use x="389.111328125" xlink:href="#LiberationSans-34"/>
     <use x="444.7265625" xlink:href="#LiberationSans-36"/>
     <use x="500.341796875" xlink:href="#LiberationSans-32"/>
     <use x="555.95703125" xlink:href="#LiberationSans-32"/>
     <use x="611.572265625" xlink:href="#LiberationSans-30"/>
     <use x="667.1875" xlink:href="#LiberationSans-35"/>
     <use x="722.802734375" xlink:href="#LiberationSans-38"/>
     <use x="778.41796875" xlink:href="#LiberationSans-36"/>
     <use x="834.033203125" xlink:href="#LiberationSans-30"/>
     <use x="889.6484375" xlink:href="#LiberationSans-36"/>
     <use x="945.263671875" xlink:href="#LiberationSans-32"/>
     <use x="1000.87890625" xlink:href="#LiberationSans-32"/>
     <use x="1056.494140625" xlink:href="#LiberationSans-33"/>
     <use x="1112.109375" xlink:href="#LiberationSans-38"/>
     <use x="1167.724609375" xlink:href="#LiberationSans-20"/>
     <use x="1195.5078125" xlink:href="#LiberationSans-2a"/>
     <use x="1234.423828125" xlink:href="#LiberationSans-20"/>
     <use x="1262.20703125" xlink:href="#LiberationSans-69"/>
    </g>
   </g>
  </g>
 </g>
 <defs>
  <clipPath id="p5e0903c191">
   <rect height="316.8" width="446.4" x="72.0" y="39.6"/>
  </clipPath>
 </defs>
</svg>
