<?xml version="1.0" encoding="utf-8" standalone="no"?>
<!DOCTYPE svg PUBLIC "-//W3C//DTD SVG 1.1//EN"
  "http://www.w3.org/Graphics/SVG/1.1/DTD/svg11.dtd">
<!-- Created with matplotlib (http://matplotlib.org/) -->
<svg height="396pt" version="1.1" viewBox="0 0 576 396" width="576pt" xmlns="http://www.w3.org/2000/svg" xmlns:xlink="http://www.w3.org/1999/xlink">
 <defs>
  <style type="text/css">
*{stroke-linecap:butt;stroke-linejoin:round;stroke-miterlimit:100000;}
  </style>
 </defs>
 <g id="figure_1">
  <g id="patch_1">
   <path d="M 0 396 
L 576 396 
L 576 0 
L 0 0 
z
" style="fill:#ffffff;"/>
  </g>
  <g id="axes_1">
   <g id="patch_2">
    <path d="M 72 356.4 
L 518.4 356.4 
L 518.4 39.6 
L 72 39.6 
z
" style="fill:#eaeaf2;"/>
   </g>
   <g id="matplotlib.axis_1">
    <g id="xtick_1">
     <g id="line2d_1">
      <path clip-path="url(#p4c863b83e3)" d="M 72 356.4 
L 72 39.6 
" style="fill:none;stroke:#ffffff;stroke-linecap:round;"/>
     </g>
     <g id="line2d_2"/>
     <g id="line2d_3"/>
     <g id="text_1">
      <!-- 2016-09-27 09:26:00 -->
      <defs>
       <path d="M 5.03125 0 
L 5.03125 6.203125 
Q 7.515625 11.921875 11.109375 16.28125 
Q 14.703125 20.65625 18.65625 24.1875 
Q 22.609375 27.734375 26.484375 30.765625 
Q 30.375 33.796875 33.5 36.8125 
Q 36.625 39.84375 38.546875 43.15625 
Q 40.484375 46.484375 40.484375 50.6875 
Q 40.484375 53.609375 39.59375 55.828125 
Q 38.71875 58.0625 37.0625 59.5625 
Q 35.40625 61.078125 33.078125 61.828125 
Q 30.765625 62.59375 27.9375 62.59375 
Q 25.296875 62.59375 22.96875 61.859375 
Q 20.65625 61.140625 18.84375 59.671875 
Q 17.046875 58.203125 15.890625 56.03125 
Q 14.75 53.859375 14.40625 50.984375 
L 5.421875 51.8125 
Q 5.859375 55.515625 7.46875 58.78125 
Q 9.078125 62.0625 11.90625 64.53125 
Q 14.75 67 18.71875 68.40625 
Q 22.703125 69.828125 27.9375 69.828125 
Q 33.0625 69.828125 37.0625 68.609375 
Q 41.0625 67.390625 43.8125 64.984375 
Q 46.578125 62.59375 48.046875 59.078125 
Q 49.515625 55.5625 49.515625 50.984375 
Q 49.515625 47.515625 48.265625 44.390625 
Q 47.015625 41.265625 44.9375 38.421875 
Q 42.875 35.59375 40.140625 32.953125 
Q 37.40625 30.328125 34.421875 27.8125 
Q 31.453125 25.296875 28.421875 22.828125 
Q 25.390625 20.359375 22.71875 17.859375 
Q 20.0625 15.375 17.96875 12.8125 
Q 15.875 10.25 14.703125 7.46875 
L 50.59375 7.46875 
L 50.59375 0 
z
" id="LiberationSans-32"/>
       <path d="M 7.625 0 
L 7.625 7.46875 
L 25.140625 7.46875 
L 25.140625 60.40625 
L 9.625 49.3125 
L 9.625 57.625 
L 25.875 68.796875 
L 33.984375 68.796875 
L 33.984375 7.46875 
L 50.734375 7.46875 
L 50.734375 0 
z
" id="LiberationSans-31"/>
       <path d="M 51.703125 34.421875 
Q 51.703125 24.515625 49.828125 17.75 
Q 47.953125 10.984375 44.703125 6.8125 
Q 41.453125 2.640625 37.0625 0.828125 
Q 32.671875 -0.984375 27.6875 -0.984375 
Q 22.65625 -0.984375 18.3125 0.828125 
Q 13.96875 2.640625 10.765625 6.78125 
Q 7.5625 10.9375 5.734375 17.703125 
Q 3.90625 24.46875 3.90625 34.421875 
Q 3.90625 44.828125 5.734375 51.640625 
Q 7.5625 58.453125 10.78125 62.5 
Q 14.015625 66.546875 18.40625 68.1875 
Q 22.796875 69.828125 27.984375 69.828125 
Q 32.90625 69.828125 37.21875 68.1875 
Q 41.546875 66.546875 44.765625 62.5 
Q 48 58.453125 49.84375 51.640625 
Q 51.703125 44.828125 51.703125 34.421875 
M 42.78125 34.421875 
Q 42.78125 42.625 41.796875 48.0625 
Q 40.828125 53.515625 38.921875 56.765625 
Q 37.015625 60.015625 34.25 61.359375 
Q 31.5 62.703125 27.984375 62.703125 
Q 24.265625 62.703125 21.4375 61.328125 
Q 18.609375 59.96875 16.671875 56.71875 
Q 14.75 53.46875 13.765625 48.015625 
Q 12.796875 42.578125 12.796875 34.421875 
Q 12.796875 26.515625 13.796875 21.09375 
Q 14.796875 15.671875 16.71875 12.375 
Q 18.65625 9.078125 21.4375 7.640625 
Q 24.21875 6.203125 27.78125 6.203125 
Q 31.25 6.203125 34.03125 7.640625 
Q 36.8125 9.078125 38.734375 12.375 
Q 40.671875 15.671875 41.71875 21.09375 
Q 42.78125 26.515625 42.78125 34.421875 
" id="LiberationSans-30"/>
       <path d="M 50.875 35.796875 
Q 50.875 26.609375 49.140625 19.703125 
Q 47.40625 12.796875 44.1875 8.203125 
Q 40.96875 3.609375 36.34375 1.3125 
Q 31.734375 -0.984375 25.984375 -0.984375 
Q 22.015625 -0.984375 18.84375 -0.171875 
Q 15.671875 0.640625 13.171875 2.34375 
Q 10.6875 4.046875 8.921875 6.78125 
Q 7.171875 9.515625 6.109375 13.375 
L 14.5 14.703125 
Q 15.875 10.25 18.78125 8.171875 
Q 21.6875 6.109375 26.125 6.109375 
Q 29.6875 6.109375 32.640625 7.78125 
Q 35.59375 9.46875 37.671875 12.84375 
Q 39.75 16.21875 40.921875 21.296875 
Q 42.09375 26.375 42.1875 33.203125 
Q 41.15625 30.90625 39.375 29.09375 
Q 37.59375 27.296875 35.328125 26.046875 
Q 33.0625 24.8125 30.421875 24.140625 
Q 27.78125 23.484375 25.09375 23.484375 
Q 20.40625 23.484375 16.625 25.171875 
Q 12.84375 26.859375 10.203125 29.875 
Q 7.5625 32.90625 6.125 37.171875 
Q 4.6875 41.453125 4.6875 46.6875 
Q 4.6875 52 6.21875 56.296875 
Q 7.765625 60.59375 10.6875 63.59375 
Q 13.625 66.609375 17.890625 68.21875 
Q 22.171875 69.828125 27.59375 69.828125 
Q 39.0625 69.828125 44.96875 61.328125 
Q 50.875 52.828125 50.875 35.796875 
M 41.3125 44.28125 
Q 41.3125 48.09375 40.40625 51.453125 
Q 39.5 54.828125 37.71875 57.3125 
Q 35.9375 59.8125 33.328125 61.25 
Q 30.71875 62.703125 27.296875 62.703125 
Q 24.125 62.703125 21.578125 61.578125 
Q 19.046875 60.453125 17.28125 58.375 
Q 15.53125 56.296875 14.578125 53.3125 
Q 13.625 50.34375 13.625 46.6875 
Q 13.625 43.21875 14.46875 40.234375 
Q 15.328125 37.25 17.03125 35.078125 
Q 18.75 32.90625 21.28125 31.65625 
Q 23.828125 30.421875 27.203125 30.421875 
Q 29.640625 30.421875 32.15625 31.25 
Q 34.671875 32.078125 36.6875 33.78125 
Q 38.71875 35.5 40.015625 38.109375 
Q 41.3125 40.71875 41.3125 44.28125 
" id="LiberationSans-39"/>
       <path d="M 9.125 42.71875 
L 9.125 52.828125 
L 18.65625 52.828125 
L 18.65625 42.71875 
z
M 9.125 0 
L 9.125 10.109375 
L 18.65625 10.109375 
L 18.65625 0 
z
" id="LiberationSans-3a"/>
       <path d="M 50.59375 61.671875 
Q 45.40625 53.765625 41.0625 46.453125 
Q 36.71875 39.15625 33.59375 31.75 
Q 30.46875 24.359375 28.734375 16.578125 
Q 27 8.796875 27 0 
L 17.828125 0 
Q 17.828125 8.25 19.78125 16.1875 
Q 21.734375 24.125 25.046875 31.765625 
Q 28.375 39.40625 32.765625 46.78125 
Q 37.15625 54.15625 42.09375 61.328125 
L 5.125 61.328125 
L 5.125 68.796875 
L 50.59375 68.796875 
z
" id="LiberationSans-37"/>
       <path id="LiberationSans-20"/>
       <path d="M 4.4375 22.65625 
L 4.4375 30.46875 
L 28.859375 30.46875 
L 28.859375 22.65625 
z
" id="LiberationSans-2d"/>
       <path d="M 51.21875 22.515625 
Q 51.21875 17.328125 49.78125 13 
Q 48.34375 8.6875 45.53125 5.578125 
Q 42.71875 2.484375 38.5625 0.75 
Q 34.421875 -0.984375 29 -0.984375 
Q 23 -0.984375 18.5 1.3125 
Q 14.015625 3.609375 11.03125 7.921875 
Q 8.0625 12.25 6.5625 18.53125 
Q 5.078125 24.8125 5.078125 32.8125 
Q 5.078125 42 6.765625 48.921875 
Q 8.453125 55.859375 11.625 60.5 
Q 14.796875 65.140625 19.359375 67.484375 
Q 23.921875 69.828125 29.6875 69.828125 
Q 33.203125 69.828125 36.28125 69.09375 
Q 39.359375 68.359375 41.875 66.71875 
Q 44.390625 65.09375 46.28125 62.40625 
Q 48.1875 59.71875 49.3125 55.8125 
L 40.921875 54.296875 
Q 39.546875 58.734375 36.546875 60.71875 
Q 33.546875 62.703125 29.59375 62.703125 
Q 25.984375 62.703125 23.046875 60.984375 
Q 20.125 59.28125 18.0625 55.875 
Q 16.015625 52.484375 14.90625 47.359375 
Q 13.8125 42.234375 13.8125 35.40625 
Q 16.21875 39.84375 20.5625 42.15625 
Q 24.90625 44.484375 30.515625 44.484375 
Q 35.203125 44.484375 39.015625 42.96875 
Q 42.828125 41.453125 45.53125 38.59375 
Q 48.25 35.75 49.734375 31.671875 
Q 51.21875 27.59375 51.21875 22.515625 
M 42.28125 22.125 
Q 42.28125 25.6875 41.40625 28.5625 
Q 40.53125 31.453125 38.765625 33.46875 
Q 37.015625 35.5 34.421875 36.59375 
Q 31.84375 37.703125 28.421875 37.703125 
Q 26.03125 37.703125 23.578125 36.984375 
Q 21.140625 36.28125 19.15625 34.6875 
Q 17.1875 33.109375 15.9375 30.515625 
Q 14.703125 27.9375 14.703125 24.21875 
Q 14.703125 20.40625 15.671875 17.109375 
Q 16.65625 13.8125 18.484375 11.375 
Q 20.3125 8.9375 22.890625 7.515625 
Q 25.484375 6.109375 28.71875 6.109375 
Q 31.890625 6.109375 34.40625 7.203125 
Q 36.921875 8.296875 38.671875 10.375 
Q 40.4375 12.453125 41.359375 15.421875 
Q 42.28125 18.40625 42.28125 22.125 
" id="LiberationSans-36"/>
      </defs>
      <g style="fill:#262626;" transform="translate(25.5765625 370.646875)scale(0.1 -0.1)">
       <use xlink:href="#LiberationSans-32"/>
       <use x="55.615234375" xlink:href="#LiberationSans-30"/>
       <use x="111.23046875" xlink:href="#LiberationSans-31"/>
       <use x="166.845703125" xlink:href="#LiberationSans-36"/>
       <use x="222.4609375" xlink:href="#LiberationSans-2d"/>
       <use x="255.76171875" xlink:href="#LiberationSans-30"/>
       <use x="311.376953125" xlink:href="#LiberationSans-39"/>
       <use x="366.9921875" xlink:href="#LiberationSans-2d"/>
       <use x="400.29296875" xlink:href="#LiberationSans-32"/>
       <use x="455.908203125" xlink:href="#LiberationSans-37"/>
       <use x="511.5234375" xlink:href="#LiberationSans-20"/>
       <use x="539.306640625" xlink:href="#LiberationSans-30"/>
       <use x="594.921875" xlink:href="#LiberationSans-39"/>
       <use x="650.537109375" xlink:href="#LiberationSans-3a"/>
       <use x="678.3203125" xlink:href="#LiberationSans-32"/>
       <use x="733.935546875" xlink:href="#LiberationSans-36"/>
       <use x="789.55078125" xlink:href="#LiberationSans-3a"/>
       <use x="817.333984375" xlink:href="#LiberationSans-30"/>
       <use x="872.94921875" xlink:href="#LiberationSans-30"/>
      </g>
     </g>
    </g>
    <g id="xtick_2">
     <g id="line2d_4">
      <path clip-path="url(#p4c863b83e3)" d="M 183.655828 356.4 
L 183.655828 39.6 
" style="fill:none;stroke:#ffffff;stroke-linecap:round;"/>
     </g>
     <g id="line2d_5"/>
     <g id="line2d_6"/>
     <g id="text_2">
      <!-- 2016-09-29 10:31:00 -->
      <defs>
       <path d="M 51.21875 19 
Q 51.21875 14.265625 49.671875 10.546875 
Q 48.140625 6.84375 45.1875 4.265625 
Q 42.234375 1.703125 37.859375 0.359375 
Q 33.5 -0.984375 27.875 -0.984375 
Q 21.484375 -0.984375 17.109375 0.609375 
Q 12.75 2.203125 9.90625 4.8125 
Q 7.078125 7.421875 5.65625 10.765625 
Q 4.25 14.109375 3.8125 17.671875 
L 12.890625 18.5 
Q 13.28125 15.765625 14.328125 13.515625 
Q 15.375 11.28125 17.1875 9.671875 
Q 19 8.0625 21.625 7.171875 
Q 24.265625 6.296875 27.875 6.296875 
Q 34.515625 6.296875 38.296875 9.5625 
Q 42.09375 12.84375 42.09375 19.28125 
Q 42.09375 23.09375 40.40625 25.40625 
Q 38.71875 27.734375 36.203125 29.03125 
Q 33.6875 30.328125 30.734375 30.765625 
Q 27.78125 31.203125 25.296875 31.203125 
L 20.3125 31.203125 
L 20.3125 38.8125 
L 25.09375 38.8125 
Q 27.59375 38.8125 30.265625 39.328125 
Q 32.953125 39.84375 35.171875 41.1875 
Q 37.40625 42.53125 38.84375 44.828125 
Q 40.28125 47.125 40.28125 50.6875 
Q 40.28125 56.203125 37.03125 59.390625 
Q 33.796875 62.59375 27.390625 62.59375 
Q 21.578125 62.59375 17.984375 59.609375 
Q 14.40625 56.640625 13.8125 51.21875 
L 4.984375 51.90625 
Q 5.515625 56.453125 7.46875 59.8125 
Q 9.421875 63.1875 12.421875 65.40625 
Q 15.4375 67.625 19.28125 68.71875 
Q 23.140625 69.828125 27.484375 69.828125 
Q 33.25 69.828125 37.390625 68.375 
Q 41.546875 66.9375 44.1875 64.46875 
Q 46.828125 62.015625 48.0625 58.6875 
Q 49.3125 55.375 49.3125 51.609375 
Q 49.3125 48.578125 48.484375 45.9375 
Q 47.65625 43.3125 45.890625 41.203125 
Q 44.140625 39.109375 41.421875 37.59375 
Q 38.71875 36.078125 34.90625 35.296875 
L 34.90625 35.109375 
Q 39.0625 34.671875 42.140625 33.21875 
Q 45.21875 31.78125 47.21875 29.625 
Q 49.21875 27.484375 50.21875 24.75 
Q 51.21875 22.015625 51.21875 19 
" id="LiberationSans-33"/>
      </defs>
      <g style="fill:#262626;" transform="translate(137.232390414 370.646875)scale(0.1 -0.1)">
       <use xlink:href="#LiberationSans-32"/>
       <use x="55.615234375" xlink:href="#LiberationSans-30"/>
       <use x="111.23046875" xlink:href="#LiberationSans-31"/>
       <use x="166.845703125" xlink:href="#LiberationSans-36"/>
       <use x="222.4609375" xlink:href="#LiberationSans-2d"/>
       <use x="255.76171875" xlink:href="#LiberationSans-30"/>
       <use x="311.376953125" xlink:href="#LiberationSans-39"/>
       <use x="366.9921875" xlink:href="#LiberationSans-2d"/>
       <use x="400.29296875" xlink:href="#LiberationSans-32"/>
       <use x="455.908203125" xlink:href="#LiberationSans-39"/>
       <use x="511.5234375" xlink:href="#LiberationSans-20"/>
       <use x="539.306640625" xlink:href="#LiberationSans-31"/>
       <use x="594.921875" xlink:href="#LiberationSans-30"/>
       <use x="650.537109375" xlink:href="#LiberationSans-3a"/>
       <use x="678.3203125" xlink:href="#LiberationSans-33"/>
       <use x="733.935546875" xlink:href="#LiberationSans-31"/>
       <use x="789.55078125" xlink:href="#LiberationSans-3a"/>
       <use x="817.333984375" xlink:href="#LiberationSans-30"/>
       <use x="872.94921875" xlink:href="#LiberationSans-30"/>
      </g>
     </g>
    </g>
    <g id="xtick_3">
     <g id="line2d_7">
      <path clip-path="url(#p4c863b83e3)" d="M 295.311656 356.4 
L 295.311656 39.6 
" style="fill:none;stroke:#ffffff;stroke-linecap:round;"/>
     </g>
     <g id="line2d_8"/>
     <g id="line2d_9"/>
     <g id="text_3">
      <!-- 2016-10-10 11:20:00 -->
      <g style="fill:#262626;" transform="translate(248.888218328 370.646875)scale(0.1 -0.1)">
       <use xlink:href="#LiberationSans-32"/>
       <use x="55.615234375" xlink:href="#LiberationSans-30"/>
       <use x="111.23046875" xlink:href="#LiberationSans-31"/>
       <use x="166.845703125" xlink:href="#LiberationSans-36"/>
       <use x="222.4609375" xlink:href="#LiberationSans-2d"/>
       <use x="255.76171875" xlink:href="#LiberationSans-31"/>
       <use x="311.376953125" xlink:href="#LiberationSans-30"/>
       <use x="366.9921875" xlink:href="#LiberationSans-2d"/>
       <use x="400.29296875" xlink:href="#LiberationSans-31"/>
       <use x="455.908203125" xlink:href="#LiberationSans-30"/>
       <use x="511.5234375" xlink:href="#LiberationSans-20"/>
       <use x="539.306640625" xlink:href="#LiberationSans-31"/>
       <use x="594.921875" xlink:href="#LiberationSans-31"/>
       <use x="650.537109375" xlink:href="#LiberationSans-3a"/>
       <use x="678.3203125" xlink:href="#LiberationSans-32"/>
       <use x="733.935546875" xlink:href="#LiberationSans-30"/>
       <use x="789.55078125" xlink:href="#LiberationSans-3a"/>
       <use x="817.333984375" xlink:href="#LiberationSans-30"/>
       <use x="872.94921875" xlink:href="#LiberationSans-30"/>
      </g>
     </g>
    </g>
    <g id="xtick_4">
     <g id="line2d_10">
      <path clip-path="url(#p4c863b83e3)" d="M 406.967484 356.4 
L 406.967484 39.6 
" style="fill:none;stroke:#ffffff;stroke-linecap:round;"/>
     </g>
     <g id="line2d_11"/>
     <g id="line2d_12"/>
     <g id="text_4">
      <!-- 2016-10-12 14:10:00 -->
      <defs>
       <path d="M 43.015625 15.578125 
L 43.015625 0 
L 34.71875 0 
L 34.71875 15.578125 
L 2.296875 15.578125 
L 2.296875 22.40625 
L 33.796875 68.796875 
L 43.015625 68.796875 
L 43.015625 22.515625 
L 52.6875 22.515625 
L 52.6875 15.578125 
z
M 34.71875 58.890625 
Q 34.625 58.640625 34.234375 57.9375 
Q 33.84375 57.234375 33.34375 56.34375 
Q 32.859375 55.46875 32.34375 54.5625 
Q 31.84375 53.65625 31.453125 53.078125 
L 13.8125 27.09375 
Q 13.578125 26.703125 13.109375 26.0625 
Q 12.640625 25.4375 12.15625 24.78125 
Q 11.671875 24.125 11.171875 23.484375 
Q 10.6875 22.859375 10.40625 22.515625 
L 34.71875 22.515625 
z
" id="LiberationSans-34"/>
      </defs>
      <g style="fill:#262626;" transform="translate(360.544046242 370.646875)scale(0.1 -0.1)">
       <use xlink:href="#LiberationSans-32"/>
       <use x="55.615234375" xlink:href="#LiberationSans-30"/>
       <use x="111.23046875" xlink:href="#LiberationSans-31"/>
       <use x="166.845703125" xlink:href="#LiberationSans-36"/>
       <use x="222.4609375" xlink:href="#LiberationSans-2d"/>
       <use x="255.76171875" xlink:href="#LiberationSans-31"/>
       <use x="311.376953125" xlink:href="#LiberationSans-30"/>
       <use x="366.9921875" xlink:href="#LiberationSans-2d"/>
       <use x="400.29296875" xlink:href="#LiberationSans-31"/>
       <use x="455.908203125" xlink:href="#LiberationSans-32"/>
       <use x="511.5234375" xlink:href="#LiberationSans-20"/>
       <use x="539.306640625" xlink:href="#LiberationSans-31"/>
       <use x="594.921875" xlink:href="#LiberationSans-34"/>
       <use x="650.537109375" xlink:href="#LiberationSans-3a"/>
       <use x="678.3203125" xlink:href="#LiberationSans-31"/>
       <use x="733.935546875" xlink:href="#LiberationSans-30"/>
       <use x="789.55078125" xlink:href="#LiberationSans-3a"/>
       <use x="817.333984375" xlink:href="#LiberationSans-30"/>
       <use x="872.94921875" xlink:href="#LiberationSans-30"/>
      </g>
     </g>
    </g>
    <g id="text_5">
     <!-- time -->
     <defs>
      <path d="M 13.484375 24.5625 
Q 13.484375 20.40625 14.328125 16.90625 
Q 15.1875 13.421875 16.96875 10.90625 
Q 18.75 8.40625 21.53125 7 
Q 24.3125 5.609375 28.21875 5.609375 
Q 33.9375 5.609375 37.375 7.90625 
Q 40.828125 10.203125 42.046875 13.71875 
L 49.75 11.53125 
Q 48.921875 9.328125 47.4375 7.109375 
Q 45.953125 4.890625 43.453125 3.09375 
Q 40.96875 1.3125 37.234375 0.15625 
Q 33.5 -0.984375 28.21875 -0.984375 
Q 16.5 -0.984375 10.375 6 
Q 4.25 12.984375 4.25 26.765625 
Q 4.25 34.1875 6.09375 39.328125 
Q 7.953125 44.484375 11.171875 47.703125 
Q 14.40625 50.921875 18.703125 52.359375 
Q 23 53.8125 27.875 53.8125 
Q 34.515625 53.8125 38.984375 51.65625 
Q 43.453125 49.515625 46.15625 45.71875 
Q 48.875 41.9375 50.015625 36.8125 
Q 51.171875 31.6875 51.171875 25.734375 
L 51.171875 24.5625 
z
M 42.09375 31.296875 
Q 41.359375 39.65625 37.84375 43.484375 
Q 34.328125 47.3125 27.734375 47.3125 
Q 25.53125 47.3125 23.109375 46.609375 
Q 20.703125 45.90625 18.65625 44.09375 
Q 16.609375 42.28125 15.1875 39.171875 
Q 13.765625 36.078125 13.578125 31.296875 
z
" id="LiberationSans-65"/>
      <path d="M 6.6875 64.0625 
L 6.6875 72.46875 
L 15.484375 72.46875 
L 15.484375 64.0625 
z
M 6.6875 0 
L 6.6875 52.828125 
L 15.484375 52.828125 
L 15.484375 0 
z
" id="LiberationSans-69"/>
      <path d="M 27.046875 0.390625 
Q 25.046875 -0.140625 22.96875 -0.453125 
Q 20.90625 -0.78125 18.171875 -0.78125 
Q 7.625 -0.78125 7.625 11.1875 
L 7.625 46.4375 
L 1.515625 46.4375 
L 1.515625 52.828125 
L 7.953125 52.828125 
L 10.546875 64.65625 
L 16.40625 64.65625 
L 16.40625 52.828125 
L 26.171875 52.828125 
L 26.171875 46.4375 
L 16.40625 46.4375 
L 16.40625 13.09375 
Q 16.40625 9.28125 17.640625 7.734375 
Q 18.890625 6.203125 21.96875 6.203125 
Q 23.25 6.203125 24.4375 6.390625 
Q 25.640625 6.59375 27.046875 6.890625 
z
" id="LiberationSans-74"/>
      <path d="M 37.5 0 
L 37.5 33.5 
Q 37.5 37.359375 37.015625 39.9375 
Q 36.53125 42.53125 35.375 44.109375 
Q 34.234375 45.703125 32.375 46.359375 
Q 30.515625 47.015625 27.828125 47.015625 
Q 25.046875 47.015625 22.796875 45.921875 
Q 20.5625 44.828125 18.96875 42.75 
Q 17.390625 40.671875 16.53125 37.625 
Q 15.671875 34.578125 15.671875 30.609375 
L 15.671875 0 
L 6.9375 0 
L 6.9375 41.546875 
Q 6.9375 43.21875 6.90625 45.046875 
Q 6.890625 46.875 6.828125 48.5 
Q 6.78125 50.140625 6.734375 51.3125 
Q 6.6875 52.484375 6.640625 52.828125 
L 14.9375 52.828125 
Q 14.984375 52.59375 15.03125 51.515625 
Q 15.09375 50.4375 15.15625 49.046875 
Q 15.234375 47.65625 15.28125 46.21875 
Q 15.328125 44.78125 15.328125 43.796875 
L 15.484375 43.796875 
Q 16.65625 46.09375 18.015625 47.953125 
Q 19.390625 49.8125 21.21875 51.09375 
Q 23.046875 52.390625 25.40625 53.09375 
Q 27.78125 53.8125 30.90625 53.8125 
Q 36.921875 53.8125 40.40625 51.421875 
Q 43.890625 49.03125 45.265625 43.796875 
L 45.40625 43.796875 
Q 46.578125 46.09375 48.046875 47.953125 
Q 49.515625 49.8125 51.46875 51.09375 
Q 53.421875 52.390625 55.859375 53.09375 
Q 58.296875 53.8125 61.421875 53.8125 
Q 65.4375 53.8125 68.328125 52.734375 
Q 71.234375 51.65625 73.09375 49.40625 
Q 74.953125 47.171875 75.828125 43.625 
Q 76.703125 40.09375 76.703125 35.203125 
L 76.703125 0 
L 68.015625 0 
L 68.015625 33.5 
Q 68.015625 37.359375 67.53125 39.9375 
Q 67.046875 42.53125 65.890625 44.109375 
Q 64.75 45.703125 62.890625 46.359375 
Q 61.03125 47.015625 58.34375 47.015625 
Q 55.5625 47.015625 53.3125 45.96875 
Q 51.078125 44.921875 49.484375 42.875 
Q 47.90625 40.828125 47.046875 37.75 
Q 46.1875 34.671875 46.1875 30.609375 
L 46.1875 0 
z
" id="LiberationSans-6d"/>
     </defs>
     <g style="fill:#262626;" transform="translate(284.81015625 385.6934375)scale(0.11 -0.11)">
      <use xlink:href="#LiberationSans-74"/>
      <use x="27.783203125" xlink:href="#LiberationSans-69"/>
      <use x="50.0" xlink:href="#LiberationSans-6d"/>
      <use x="133.30078125" xlink:href="#LiberationSans-65"/>
     </g>
    </g>
   </g>
   <g id="matplotlib.axis_2">
    <g id="ytick_1">
     <g id="line2d_13">
      <path clip-path="url(#p4c863b83e3)" d="M 72 356.4 
L 518.4 356.4 
" style="fill:none;stroke:#ffffff;stroke-linecap:round;"/>
     </g>
     <g id="line2d_14"/>
     <g id="line2d_15"/>
     <g id="text_6">
      <!-- 4900 -->
      <g style="fill:#262626;" transform="translate(42.75625 358.9859375)scale(0.1 -0.1)">
       <use xlink:href="#LiberationSans-34"/>
       <use x="55.615234375" xlink:href="#LiberationSans-39"/>
       <use x="111.23046875" xlink:href="#LiberationSans-30"/>
       <use x="166.845703125" xlink:href="#LiberationSans-30"/>
      </g>
     </g>
    </g>
    <g id="ytick_2">
     <g id="line2d_16">
      <path clip-path="url(#p4c863b83e3)" d="M 72 311.142857 
L 518.4 311.142857 
" style="fill:none;stroke:#ffffff;stroke-linecap:round;"/>
     </g>
     <g id="line2d_17"/>
     <g id="line2d_18"/>
     <g id="text_7">
      <!-- 4920 -->
      <g style="fill:#262626;" transform="translate(42.75625 313.728794643)scale(0.1 -0.1)">
       <use xlink:href="#LiberationSans-34"/>
       <use x="55.615234375" xlink:href="#LiberationSans-39"/>
       <use x="111.23046875" xlink:href="#LiberationSans-32"/>
       <use x="166.845703125" xlink:href="#LiberationSans-30"/>
      </g>
     </g>
    </g>
    <g id="ytick_3">
     <g id="line2d_19">
      <path clip-path="url(#p4c863b83e3)" d="M 72 265.885714 
L 518.4 265.885714 
" style="fill:none;stroke:#ffffff;stroke-linecap:round;"/>
     </g>
     <g id="line2d_20"/>
     <g id="line2d_21"/>
     <g id="text_8">
      <!-- 4940 -->
      <g style="fill:#262626;" transform="translate(42.75625 268.471651786)scale(0.1 -0.1)">
       <use xlink:href="#LiberationSans-34"/>
       <use x="55.615234375" xlink:href="#LiberationSans-39"/>
       <use x="111.23046875" xlink:href="#LiberationSans-34"/>
       <use x="166.845703125" xlink:href="#LiberationSans-30"/>
      </g>
     </g>
    </g>
    <g id="ytick_4">
     <g id="line2d_22">
      <path clip-path="url(#p4c863b83e3)" d="M 72 220.628571 
L 518.4 220.628571 
" style="fill:none;stroke:#ffffff;stroke-linecap:round;"/>
     </g>
     <g id="line2d_23"/>
     <g id="line2d_24"/>
     <g id="text_9">
      <!-- 4960 -->
      <g style="fill:#262626;" transform="translate(42.75625 223.214508929)scale(0.1 -0.1)">
       <use xlink:href="#LiberationSans-34"/>
       <use x="55.615234375" xlink:href="#LiberationSans-39"/>
       <use x="111.23046875" xlink:href="#LiberationSans-36"/>
       <use x="166.845703125" xlink:href="#LiberationSans-30"/>
      </g>
     </g>
    </g>
    <g id="ytick_5">
     <g id="line2d_25">
      <path clip-path="url(#p4c863b83e3)" d="M 72 175.371429 
L 518.4 175.371429 
" style="fill:none;stroke:#ffffff;stroke-linecap:round;"/>
     </g>
     <g id="line2d_26"/>
     <g id="line2d_27"/>
     <g id="text_10">
      <!-- 4980 -->
      <defs>
       <path d="M 51.265625 19.1875 
Q 51.265625 14.796875 49.875 11.109375 
Q 48.484375 7.421875 45.625 4.734375 
Q 42.78125 2.046875 38.328125 0.53125 
Q 33.890625 -0.984375 27.828125 -0.984375 
Q 21.78125 -0.984375 17.359375 0.53125 
Q 12.9375 2.046875 10.03125 4.703125 
Q 7.125 7.375 5.734375 11.0625 
Q 4.34375 14.75 4.34375 19.09375 
Q 4.34375 22.859375 5.484375 25.78125 
Q 6.640625 28.71875 8.5625 30.828125 
Q 10.5 32.953125 12.96875 34.25 
Q 15.4375 35.546875 18.0625 35.984375 
L 18.0625 36.1875 
Q 15.1875 36.859375 12.90625 38.375 
Q 10.640625 39.890625 9.09375 42.015625 
Q 7.5625 44.140625 6.75 46.71875 
Q 5.953125 49.3125 5.953125 52.203125 
Q 5.953125 55.8125 7.34375 59 
Q 8.734375 62.203125 11.46875 64.625 
Q 14.203125 67.046875 18.25 68.4375 
Q 22.3125 69.828125 27.640625 69.828125 
Q 33.25 69.828125 37.375 68.40625 
Q 41.5 67 44.203125 64.578125 
Q 46.921875 62.15625 48.234375 58.9375 
Q 49.5625 55.71875 49.5625 52.09375 
Q 49.5625 49.265625 48.75 46.671875 
Q 47.953125 44.09375 46.40625 41.96875 
Q 44.875 39.84375 42.59375 38.34375 
Q 40.328125 36.859375 37.359375 36.28125 
L 37.359375 36.078125 
Q 40.328125 35.59375 42.859375 34.296875 
Q 45.40625 33.015625 47.265625 30.890625 
Q 49.125 28.765625 50.1875 25.828125 
Q 51.265625 22.90625 51.265625 19.1875 
M 40.4375 51.609375 
Q 40.4375 54.203125 39.765625 56.34375 
Q 39.109375 58.5 37.59375 60.03125 
Q 36.078125 61.578125 33.640625 62.421875 
Q 31.203125 63.28125 27.640625 63.28125 
Q 24.171875 63.28125 21.78125 62.421875 
Q 19.390625 61.578125 17.84375 60.03125 
Q 16.3125 58.5 15.625 56.34375 
Q 14.9375 54.203125 14.9375 51.609375 
Q 14.9375 49.5625 15.46875 47.40625 
Q 16.015625 45.265625 17.421875 43.5 
Q 18.84375 41.75 21.328125 40.625 
Q 23.828125 39.5 27.734375 39.5 
Q 31.890625 39.5 34.40625 40.625 
Q 36.921875 41.75 38.25 43.5 
Q 39.59375 45.265625 40.015625 47.40625 
Q 40.4375 49.5625 40.4375 51.609375 
M 42.140625 20.015625 
Q 42.140625 22.515625 41.453125 24.828125 
Q 40.765625 27.15625 39.109375 28.9375 
Q 37.453125 30.71875 34.640625 31.8125 
Q 31.84375 32.90625 27.640625 32.90625 
Q 23.78125 32.90625 21.0625 31.8125 
Q 18.359375 30.71875 16.671875 28.90625 
Q 14.984375 27.09375 14.203125 24.71875 
Q 13.421875 22.359375 13.421875 19.828125 
Q 13.421875 16.65625 14.203125 14.03125 
Q 14.984375 11.421875 16.6875 9.546875 
Q 18.40625 7.671875 21.1875 6.640625 
Q 23.96875 5.609375 27.9375 5.609375 
Q 31.9375 5.609375 34.671875 6.640625 
Q 37.40625 7.671875 39.0625 9.546875 
Q 40.71875 11.421875 41.421875 14.078125 
Q 42.140625 16.75 42.140625 20.015625 
" id="LiberationSans-38"/>
      </defs>
      <g style="fill:#262626;" transform="translate(42.75625 177.957366071)scale(0.1 -0.1)">
       <use xlink:href="#LiberationSans-34"/>
       <use x="55.615234375" xlink:href="#LiberationSans-39"/>
       <use x="111.23046875" xlink:href="#LiberationSans-38"/>
       <use x="166.845703125" xlink:href="#LiberationSans-30"/>
      </g>
     </g>
    </g>
    <g id="ytick_6">
     <g id="line2d_28">
      <path clip-path="url(#p4c863b83e3)" d="M 72 130.114286 
L 518.4 130.114286 
" style="fill:none;stroke:#ffffff;stroke-linecap:round;"/>
     </g>
     <g id="line2d_29"/>
     <g id="line2d_30"/>
     <g id="text_11">
      <!-- 5000 -->
      <defs>
       <path d="M 51.421875 22.40625 
Q 51.421875 17.234375 49.859375 12.9375 
Q 48.296875 8.640625 45.21875 5.53125 
Q 42.140625 2.4375 37.578125 0.71875 
Q 33.015625 -0.984375 27 -0.984375 
Q 21.578125 -0.984375 17.546875 0.28125 
Q 13.53125 1.5625 10.734375 3.78125 
Q 7.953125 6 6.3125 8.984375 
Q 4.6875 11.96875 4 15.375 
L 12.890625 16.40625 
Q 13.421875 14.453125 14.390625 12.625 
Q 15.375 10.796875 17.0625 9.34375 
Q 18.75 7.90625 21.21875 7.046875 
Q 23.6875 6.203125 27.203125 6.203125 
Q 30.609375 6.203125 33.390625 7.25 
Q 36.1875 8.296875 38.15625 10.34375 
Q 40.140625 12.40625 41.203125 15.375 
Q 42.28125 18.359375 42.28125 22.21875 
Q 42.28125 25.390625 41.25 28.046875 
Q 40.234375 30.71875 38.328125 32.640625 
Q 36.421875 34.578125 33.65625 35.640625 
Q 30.90625 36.71875 27.390625 36.71875 
Q 25.203125 36.71875 23.34375 36.328125 
Q 21.484375 35.9375 19.890625 35.25 
Q 18.3125 34.578125 17.015625 33.671875 
Q 15.71875 32.765625 14.59375 31.78125 
L 6 31.78125 
L 8.296875 68.796875 
L 47.40625 68.796875 
L 47.40625 61.328125 
L 16.3125 61.328125 
L 14.984375 39.5 
Q 17.328125 41.3125 20.84375 42.59375 
Q 24.359375 43.890625 29.203125 43.890625 
Q 34.328125 43.890625 38.421875 42.328125 
Q 42.53125 40.765625 45.40625 37.90625 
Q 48.296875 35.0625 49.859375 31.109375 
Q 51.421875 27.15625 51.421875 22.40625 
" id="LiberationSans-35"/>
      </defs>
      <g style="fill:#262626;" transform="translate(42.75625 132.700223214)scale(0.1 -0.1)">
       <use xlink:href="#LiberationSans-35"/>
       <use x="55.615234375" xlink:href="#LiberationSans-30"/>
       <use x="111.23046875" xlink:href="#LiberationSans-30"/>
       <use x="166.845703125" xlink:href="#LiberationSans-30"/>
      </g>
     </g>
    </g>
    <g id="ytick_7">
     <g id="line2d_31">
      <path clip-path="url(#p4c863b83e3)" d="M 72 84.857143 
L 518.4 84.857143 
" style="fill:none;stroke:#ffffff;stroke-linecap:round;"/>
     </g>
     <g id="line2d_32"/>
     <g id="line2d_33"/>
     <g id="text_12">
      <!-- 5020 -->
      <g style="fill:#262626;" transform="translate(42.75625 87.4430803571)scale(0.1 -0.1)">
       <use xlink:href="#LiberationSans-35"/>
       <use x="55.615234375" xlink:href="#LiberationSans-30"/>
       <use x="111.23046875" xlink:href="#LiberationSans-32"/>
       <use x="166.845703125" xlink:href="#LiberationSans-30"/>
      </g>
     </g>
    </g>
    <g id="ytick_8">
     <g id="line2d_34">
      <path clip-path="url(#p4c863b83e3)" d="M 72 39.6 
L 518.4 39.6 
" style="fill:none;stroke:#ffffff;stroke-linecap:round;"/>
     </g>
     <g id="line2d_35"/>
     <g id="line2d_36"/>
     <g id="text_13">
      <!-- 5040 -->
      <g style="fill:#262626;" transform="translate(42.75625 42.1859375)scale(0.1 -0.1)">
       <use xlink:href="#LiberationSans-35"/>
       <use x="55.615234375" xlink:href="#LiberationSans-30"/>
       <use x="111.23046875" xlink:href="#LiberationSans-34"/>
       <use x="166.845703125" xlink:href="#LiberationSans-30"/>
      </g>
     </g>
    </g>
   </g>
   <g id="line2d_37">
    <path clip-path="url(#p4c863b83e3)" d="M 72 296.702664 
L 72.223312 296.328671 
L 72.446623 294.847121 
L 72.669935 301.184363 
L 72.893247 297.450649 
L 73.116558 297.076656 
L 73.33987 292.594957 
L 73.563182 294.09564 
L 73.786493 292.968949 
L 74.009805 292.594957 
L 74.233117 294.09564 
L 74.456428 294.09564 
L 74.67974 295.951183 
L 74.903052 289.987933 
L 75.126363 294.473128 
L 75.349675 295.951183 
L 75.572986 294.09564 
L 75.796298 295.203198 
L 76.01961 295.577191 
L 76.242921 293.721648 
L 76.466233 298.936912 
L 76.689545 292.973662 
L 76.912856 293.721648 
L 77.136168 295.203198 
L 77.582791 295.203198 
L 77.806103 280.290969 
L 78.029415 279.183412 
L 78.252726 289.987933 
L 78.476038 282.169141 
L 78.69935 284.024684 
L 79.145973 274.32772 
L 79.369285 277.683946 
L 79.592596 285.128746 
L 80.262531 267.256912 
L 80.485843 275.449698 
L 80.709155 263.523198 
L 80.932466 265.401369 
L 81.155778 269.486448 
L 81.37909 264.271183 
L 81.602401 263.897191 
L 82.049025 260.560098 
L 82.272336 262.41564 
L 82.718959 250.489141 
L 82.942271 254.596848 
L 83.165583 256.452391 
L 83.388894 256.078398 
L 83.612206 261.667655 
L 83.835518 280.669675 
L 84.058829 273.950232 
L 84.282141 275.080418 
L 84.505453 269.865153 
L 84.728764 274.32772 
L 84.952076 269.112455 
L 85.398699 267.986982 
L 85.622011 267.986982 
L 85.845323 268.743175 
L 86.291946 257.938654 
L 86.515258 244.904597 
L 86.738569 249.368381 
L 86.961881 250.849931 
L 87.185193 266.865004 
L 87.408504 265.383454 
L 87.631816 260.524266 
L 87.855128 266.865004 
L 88.078439 266.487516 
L 88.301751 259.042716 
L 88.525063 263.883988 
L 88.748374 259.776281 
L 88.971686 251.223923 
L 89.194997 254.583645 
L 89.418309 254.583645 
L 89.864932 260.902972 
L 90.311556 248.60248 
L 90.534867 246.746937 
L 90.758179 247.494922 
L 90.981491 249.724458 
L 91.204802 256.795265 
L 91.428114 251.206008 
L 91.651426 253.084179 
L 91.874737 251.958706 
L 92.098049 252.336194 
L 92.321361 254.939722 
L 92.544672 270.959508 
L 92.767984 266.474313 
L 92.991296 272.79364 
L 93.437919 261.944798 
L 93.661231 259.715262 
L 93.884542 260.463247 
L 94.107854 258.215796 
L 94.331166 259.715262 
L 94.554477 264.548326 
L 95.001101 266.408582 
L 95.447724 258.963782 
L 95.671036 258.571873 
L 95.894347 254.090174 
L 96.117659 252.982616 
L 96.34097 244.376512 
L 96.564282 242.538884 
L 96.787594 232.467928 
L 97.010905 239.556651 
L 97.234217 236.575635 
L 97.457529 235.827649 
L 97.904152 238.80517 
L 98.127464 235.806238 
L 98.350775 235.076169 
L 98.574087 229.112919 
L 98.797399 235.076169 
L 99.02071 233.220626 
L 99.244022 234.346099 
L 99.690645 238.057185 
L 99.913957 237.305704 
L 100.137269 229.860904 
L 100.36058 233.972106 
L 100.583892 241.790899 
L 100.807204 237.305704 
L 101.030515 236.201642 
L 101.253827 237.305704 
L 101.477139 237.683192 
L 101.70045 239.912728 
L 101.923762 239.161247 
L 102.147074 237.305704 
L 102.593697 232.093935 
L 102.817009 229.860904 
L 103.04032 233.972106 
L 103.263632 232.846633 
L 103.486943 232.472641 
L 103.710255 235.076169 
L 103.933567 235.076169 
L 104.603502 233.20271 
L 104.826813 233.576703 
L 105.050125 229.842989 
L 105.273437 229.842989 
L 105.496748 230.968462 
L 105.943372 230.216981 
L 106.166683 233.576703 
L 106.389995 229.842989 
L 106.613307 222.416104 
L 107.05993 246.628676 
L 107.283242 239.161247 
L 107.506553 235.827649 
L 107.729865 235.827649 
L 107.953177 233.972106 
L 108.176488 235.450161 
L 108.3998 235.076169 
L 108.623112 229.112919 
L 108.846423 226.12719 
L 109.069735 231.342455 
L 109.293047 229.860904 
L 109.73967 232.093935 
L 109.962981 226.504678 
L 110.186293 229.486912 
L 110.632916 225.379205 
L 110.856228 221.294126 
L 111.07954 211.971155 
L 111.302851 221.294126 
L 111.526163 212.345148 
L 111.749475 211.23759 
L 111.972786 213.826698 
L 112.41941 233.558787 
L 112.642721 231.703244 
L 112.866033 224.258444 
L 113.089345 226.096072 
L 113.312656 243.237836 
L 113.535968 249.557163 
L 113.75928 247.70162 
L 113.982591 248.079108 
L 114.205903 246.97155 
L 114.429215 239.130129 
L 114.652526 243.237836 
L 115.322461 229.847702 
L 115.545773 235.040338 
L 115.769085 232.433314 
L 115.992396 240.634308 
L 116.215708 240.634308 
L 116.43902 223.09714 
L 116.662331 233.171592 
L 116.885643 229.06039 
L 117.108954 240.220988 
L 117.332266 235.757205 
L 117.555578 235.77512 
L 117.778889 237.25667 
L 118.448824 223.115056 
L 118.672136 223.866536 
L 118.895448 226.84877 
L 119.118759 221.259513 
L 119.342071 206.721277 
L 119.788694 210.080999 
L 120.012006 213.792084 
L 120.235318 207.828834 
L 120.681941 214.92227 
L 120.905253 214.92227 
L 121.351876 220.493612 
L 121.575188 213.404889 
L 121.798499 217.886588 
L 122.021811 215.634424 
L 122.245123 211.918626 
L 122.468434 210.793153 
L 122.691746 216.38241 
L 122.915058 214.152874 
L 123.138369 216.403821 
L 123.361681 215.65234 
L 123.584992 217.13389 
L 123.808304 220.116124 
L 124.031616 214.904355 
L 124.254927 214.904355 
L 124.478239 215.65234 
L 124.924862 205.581383 
L 125.371486 212.671324 
L 125.594797 209.315098 
L 125.818109 210.41916 
L 126.041421 208.563617 
L 126.264732 208.189624 
L 126.488044 210.793153 
L 126.711356 204.45591 
L 126.934667 204.45591 
L 127.157979 198.497373 
L 127.381291 199.975428 
L 127.604602 204.460623 
L 127.827914 204.08663 
L 128.051226 200.335001 
L 128.274537 203.33515 
L 128.497849 202.208459 
L 128.721161 206.316166 
L 128.944472 207.797716 
L 129.167784 211.153943 
L 129.391096 207.797716 
L 129.614407 211.53143 
L 129.837719 210.797865 
L 130.061031 210.797865 
L 130.730965 217.868673 
L 130.954277 217.868673 
L 131.177589 215.265145 
L 131.4009 221.602387 
L 131.624212 223.083937 
L 131.847524 222.332457 
L 132.294147 226.795023 
L 132.517459 230.154745 
L 132.74077 226.42103 
L 132.964082 224.565488 
L 133.187394 229.047187 
L 133.634017 220.854402 
L 133.857329 219.728929 
L 134.08064 222.314541 
L 134.303952 220.836486 
L 134.527264 222.314541 
L 134.750575 222.670618 
L 134.973887 224.174797 
L 135.197199 220.06709 
L 135.42051 221.54864 
L 136.090445 219.693097 
L 136.313757 219.693097 
L 136.983692 227.529806 
L 137.207004 227.155813 
L 137.430315 227.903798 
L 137.653627 225.674263 
L 138.10025 229.011356 
L 138.323562 229.011356 
L 138.546873 228.637363 
L 138.770185 230.889527 
L 138.993497 231.637513 
L 139.44012 226.048255 
L 139.663432 222.314541 
L 139.886743 221.584472 
L 140.110055 221.958464 
L 140.333367 221.584472 
L 140.556678 223.066022 
L 140.77999 217.850757 
L 141.003302 217.850757 
L 141.226613 214.139672 
L 141.449925 217.850757 
L 141.673237 208.906491 
L 141.896548 208.906491 
L 142.11986 212.640206 
L 142.343172 210.388042 
L 142.566483 215.603306 
L 143.013107 211.14074 
L 143.236418 207.407026 
L 143.45973 207.781018 
L 143.683042 206.302963 
L 143.906353 210.014049 
L 144.129665 211.514732 
L 144.352976 208.158506 
L 144.576288 211.136027 
L 144.7996 209.280484 
L 145.246223 210.762034 
L 145.469535 210.388042 
L 145.916158 206.676956 
L 146.362781 198.084054 
L 146.809405 202.925326 
L 147.032716 199.588233 
L 147.256028 209.262568 
L 147.47934 206.285048 
L 147.702651 206.65904 
L 147.925963 211.514732 
L 148.149275 210.014049 
L 148.372586 210.388042 
L 148.595898 210.388042 
L 148.81921 214.495749 
L 149.042521 212.266213 
L 149.265833 215.603306 
L 149.489145 217.10399 
L 149.712456 213.370275 
L 149.935768 217.10399 
L 150.15908 214.121756 
L 150.382391 214.121756 
L 150.605703 206.676956 
L 150.829015 209.280484 
L 151.052326 205.924258 
L 151.275638 209.280484 
L 151.498949 207.424941 
L 151.722261 210.405957 
L 151.945573 211.153943 
L 152.168884 208.550414 
L 152.392196 208.924407 
L 152.615508 214.887657 
L 152.838819 210.797865 
L 153.062131 212.653408 
L 153.285443 209.671175 
L 153.508754 211.923339 
L 153.732066 212.297331 
L 153.955378 214.508951 
L 154.178689 211.923339 
L 154.402001 211.549346 
L 154.848624 207.064151 
L 155.071936 208.924407 
L 155.295248 212.635493 
L 155.518559 220.476914 
L 155.965183 215.639137 
L 156.188494 215.265145 
L 156.411806 215.265145 
L 156.635118 210.423873 
L 156.858429 210.04988 
L 157.081741 208.545701 
L 157.528364 212.279416 
L 157.751676 213.030896 
L 158.198299 205.586096 
L 158.644922 210.797865 
L 158.868234 208.171709 
L 159.091546 208.171709 
L 159.314857 211.905423 
L 159.538169 207.797716 
L 159.761481 207.797716 
L 160.208104 208.545701 
L 160.431416 201.474894 
L 160.654727 200.726909 
L 160.878039 204.834616 
L 161.101351 197.74118 
L 161.324662 208.171709 
L 161.547974 202.208459 
L 161.771286 207.797716 
L 161.994597 203.709143 
L 162.217909 205.942173 
L 162.441221 203.709143 
L 162.664532 200.352916 
L 162.887844 194.386171 
L 163.111156 197.745893 
L 163.334467 198.119885 
L 163.557779 189.548394 
L 164.004402 206.316166 
L 164.227714 210.04988 
L 164.674337 192.908116 
L 164.897649 200.726909 
L 165.12096 182.103594 
L 165.344272 183.585145 
L 165.567584 176.514337 
L 165.790895 159.746566 
L 166.014207 153.783316 
L 166.46083 165.335823 
L 166.684142 90.459147 
L 166.907454 93.062676 
L 167.130765 88.229612 
L 167.354077 97.152467 
L 167.577389 94.566854 
L 167.8007 75.546919 
L 168.024012 77.799083 
L 168.247324 73.691376 
L 168.470635 75.546919 
L 168.693947 69.606298 
L 168.917259 70.71036 
L 169.14057 70.336367 
L 169.587194 81.884161 
L 169.810505 94.940847 
L 170.033817 98.27794 
L 170.48044 122.170266 
L 170.703752 118.436551 
L 170.927064 110.991751 
L 171.150375 118.814039 
L 171.373687 119.170116 
L 171.596998 118.792628 
L 171.82031 135.186407 
L 172.043622 134.082345 
L 172.266933 143.405316 
L 172.490245 145.260859 
L 172.713557 135.186407 
L 172.936868 132.956872 
L 173.16018 124.381886 
L 173.383492 123.651816 
L 173.606803 124.759373 
L 173.830115 131.849314 
L 174.053427 127.367615 
L 174.276738 126.637545 
L 174.50005 135.937888 
L 174.946673 131.475321 
L 175.169985 133.330864 
L 175.393297 131.101329 
L 175.83992 137.438571 
L 176.063232 129.223157 
L 176.286543 129.59715 
L 176.733167 124.007893 
L 177.17979 147.8691 
L 177.403102 151.188278 
L 177.626413 177.279021 
L 177.849725 177.279021 
L 178.073037 188.080047 
L 178.296348 176.901533 
L 178.51966 179.134563 
L 178.742971 179.882549 
L 178.966283 189.953505 
L 179.189595 188.47545 
L 179.412906 177.670929 
L 179.85953 179.152479 
L 180.082841 185.115729 
L 180.306153 182.886193 
L 180.529465 199.276477 
L 180.752776 200.027957 
L 181.1994 204.487028 
L 181.422711 207.472757 
L 181.646023 208.954308 
L 181.869335 204.491741 
L 182.092646 229.078305 
L 182.315958 216.795729 
L 182.53927 215.29155 
L 182.762581 211.206472 
L 182.985893 211.936541 
L 183.209205 222.741063 
L 183.432516 217.881876 
L 183.655828 205.955376 
L 183.87914 208.581533 
L 184.102451 208.959021 
L 184.325763 208.581533 
L 184.549075 206.703361 
L 184.995698 192.191249 
L 185.442321 200.740111 
L 185.665633 194.781575 
L 185.888944 197.759095 
L 186.112256 202.600367 
L 186.335568 201.49281 
L 186.782191 196.637117 
L 187.005503 201.49281 
L 187.452126 191.065776 
L 187.675438 182.846867 
L 188.122061 188.813612 
L 188.345373 187.332062 
L 188.568684 187.332062 
L 188.791996 189.187605 
L 189.015308 195.150854 
L 189.238619 191.065776 
L 189.685243 199.614638 
L 189.908554 197.01111 
L 190.131866 199.240646 
L 190.355178 197.01111 
L 190.578489 199.240646 
L 190.801801 193.651388 
L 191.025113 191.795846 
L 191.248424 192.921319 
L 191.471736 194.776862 
L 191.695048 194.776862 
L 191.918359 190.691783 
L 192.141671 194.776862 
L 192.364982 190.314295 
L 192.811606 196.28104 
L 193.034917 192.547326 
L 193.258229 192.547326 
L 193.481541 198.510576 
L 193.704852 200.740111 
L 193.928164 198.510576 
L 194.151476 198.136583 
L 194.374787 196.655033 
L 194.598099 198.510576 
L 194.821411 193.295311 
L 195.044722 196.655033 
L 195.491346 192.921319 
L 195.714657 192.921319 
L 195.937969 196.28104 
L 196.161281 193.651388 
L 196.384592 197.759095 
L 196.607904 189.56631 
L 196.831216 176.135632 
L 197.054527 180.617331 
L 197.277839 176.883617 
L 197.501151 179.513269 
L 197.724462 179.513269 
L 198.394397 185.102526 
L 198.617709 183.97234 
L 198.841021 180.261254 
L 199.064332 183.598347 
L 199.287644 185.102526 
L 199.510955 188.813612 
L 199.734267 189.187605 
L 199.957579 187.706054 
L 200.18089 188.062131 
L 200.404202 191.795846 
L 200.627514 190.314295 
L 200.850825 191.795846 
L 201.074137 189.192317 
L 201.297449 180.978121 
L 201.52076 177.244407 
L 201.744072 181.711686 
L 201.967384 179.46074 
L 202.190695 180.586213 
L 202.414007 184.319927 
L 202.637319 182.815749 
L 202.86063 183.189741 
L 203.083942 186.549463 
L 203.307254 181.694988 
L 203.530565 179.442824 
L 203.753877 182.072476 
L 203.977189 182.446469 
L 204.2005 179.068832 
L 204.423812 180.947003 
L 204.647124 176.105731 
L 205.093747 175.353033 
L 205.317059 178.712755 
L 205.54037 178.338762 
L 205.763682 178.712755 
L 205.986993 178.338762 
L 206.210305 176.857212 
L 206.656928 179.816817 
L 206.88024 185.032081 
L 207.103552 183.550531 
L 207.326863 178.317351 
L 207.550175 180.57301 
L 207.773487 180.57301 
L 207.996798 180.947003 
L 208.22011 180.57301 
L 208.443422 175.731738 
L 208.890045 174.22756 
L 209.336668 166.78276 
L 210.006603 176.461808 
L 210.229915 170.498558 
L 210.676538 176.087816 
L 210.89985 182.428553 
L 211.123162 180.947003 
L 211.346473 176.461808 
L 211.569785 179.068832 
L 212.016408 176.443893 
L 212.23972 177.195373 
L 212.463032 176.839296 
L 212.686343 180.195522 
L 212.909655 180.195522 
L 213.132966 179.068832 
L 213.356278 181.690275 
L 213.57959 181.690275 
L 213.802901 183.194454 
L 214.026213 180.568297 
L 214.472836 167.908233 
L 214.91946 179.086747 
L 215.366083 173.123497 
L 215.589395 179.816817 
L 216.036018 181.690275 
L 216.25933 185.42399 
L 216.482641 182.820461 
L 216.705953 183.194454 
L 216.929265 212.266213 
L 217.375888 220.441083 
L 217.5992 211.514732 
L 217.822511 210.762034 
L 218.045823 220.458998 
L 218.269135 215.977299 
L 218.492446 200.335001 
L 218.715758 208.532499 
L 218.93907 205.925475 
L 219.162381 210.388042 
L 219.385693 210.388042 
L 219.609005 201.087699 
L 219.832316 208.532499 
L 220.278939 212.996283 
L 220.502251 211.514732 
L 220.725563 220.441083 
L 220.948874 215.225818 
L 221.395498 219.33702 
L 221.842121 205.551483 
L 222.065433 207.781018 
L 222.288744 203.673311 
L 222.735368 211.89222 
L 223.181991 208.158506 
L 223.405303 214.887657 
L 223.628614 211.175353 
L 223.851926 210.04988 
L 224.075238 207.797716 
L 224.968484 192.530628 
L 225.191796 192.908116 
L 225.415108 201.830971 
L 225.638419 204.834616 
L 225.861731 205.586096 
L 226.085043 208.919694 
L 226.531666 205.942173 
L 226.754977 207.797716 
L 227.424912 199.996839 
L 227.648224 199.240646 
L 227.871536 200.370832 
L 228.094847 203.72584 
L 228.318159 199.992126 
L 228.541471 198.136583 
L 228.764782 197.385103 
L 228.988094 188.062131 
L 229.211406 186.580581 
L 229.434717 183.977053 
L 229.658029 185.084611 
L 229.881341 180.243339 
L 230.104652 179.869346 
L 230.327964 182.098882 
L 230.551276 188.813612 
L 230.774587 189.940303 
L 230.997899 188.436124 
L 231.221211 188.062131 
L 231.444522 188.436124 
L 231.891146 188.436124 
L 232.114457 187.314146 
L 232.337769 189.56631 
L 232.561081 188.436124 
L 232.784392 182.472874 
L 233.231016 189.922387 
L 233.454327 188.436124 
L 233.677639 184.725038 
L 233.90095 172.798539 
L 234.124262 177.25761 
L 234.347574 176.883617 
L 234.570885 186.206588 
L 234.794197 188.062131 
L 235.017509 188.813612 
L 235.24082 183.224355 
L 235.464132 187.332062 
L 235.687444 186.975985 
L 236.134067 190.313078 
L 236.357379 192.191249 
L 236.58069 183.97234 
L 236.804002 180.635247 
L 237.027314 181.742805 
L 237.250625 177.25761 
L 237.473937 179.513269 
L 237.697249 176.509624 
L 237.92056 175.402067 
L 238.367184 184.351046 
L 238.813807 180.617331 
L 239.037119 182.098882 
L 239.26043 182.098882 
L 239.483742 178.387796 
L 239.707054 179.135781 
L 239.930365 179.135781 
L 240.153677 180.991324 
L 240.376988 179.135781 
L 240.6003 179.513269 
L 240.823612 182.098882 
L 241.046923 182.098882 
L 241.493547 171.668353 
L 241.716858 171.668353 
L 241.94017 172.798539 
L 242.386793 165.705103 
L 242.833417 170.546375 
L 243.056728 168.316839 
L 243.28004 168.690832 
L 243.503352 170.172382 
L 243.726663 168.316839 
L 243.949975 169.794894 
L 244.173287 172.40663 
L 244.396598 171.281157 
L 244.61991 170.92508 
L 244.843222 169.799607 
L 245.066533 173.884685 
L 245.289845 172.029143 
L 245.513157 173.510693 
L 245.736468 175.762857 
L 245.95978 179.85143 
L 246.183092 196.619202 
L 246.406403 192.908116 
L 246.853027 205.942173 
L 247.076338 205.942173 
L 247.29965 209.675888 
L 247.522961 209.2984 
L 247.746273 209.2984 
L 247.969585 205.564685 
L 248.192896 204.08663 
L 248.416208 207.420228 
L 248.63952 208.924407 
L 248.862831 211.887507 
L 249.086143 204.442707 
L 249.309455 208.550414 
L 249.532766 207.797716 
L 249.756078 205.942173 
L 250.202701 196.619202 
L 250.426013 202.582452 
L 250.649325 204.08663 
L 250.872636 206.672243 
L 251.095948 207.046236 
L 251.31926 208.550414 
L 251.542571 204.8167 
L 251.765883 204.8167 
L 251.989195 201.082986 
L 252.212506 210.031965 
L 252.435818 214.513664 
L 252.65913 209.2984 
L 252.882441 208.550414 
L 253.105753 205.190693 
L 253.329065 196.241714 
L 253.552376 197.745893 
L 253.775688 205.190693 
L 253.998999 205.564685 
L 254.222311 199.975428 
L 254.445623 205.190693 
L 254.668934 205.564685 
L 254.892246 204.8167 
L 255.115558 206.672243 
L 255.338869 205.190693 
L 255.785493 199.975428 
L 256.008804 201.082986 
L 256.232116 203.33515 
L 256.455428 203.709143 
L 256.678739 205.190693 
L 256.902051 205.564685 
L 257.125363 209.2984 
L 257.348674 203.709143 
L 257.571986 203.33515 
L 257.795298 203.33515 
L 258.018609 201.082986 
L 258.688544 214.139672 
L 258.911856 211.136027 
L 259.135168 214.139672 
L 259.358479 210.405957 
L 259.581791 212.635493 
L 259.805103 212.653408 
L 260.251726 209.671175 
L 260.475038 208.93761 
L 260.921661 214.152874 
L 261.144972 213.404889 
L 261.368284 209.671175 
L 261.591596 209.297182 
L 261.814907 205.960089 
L 262.038219 200.744824 
L 262.261531 199.996839 
L 262.484842 206.334082 
L 262.708154 206.334082 
L 262.931466 204.829903 
L 263.154777 208.563617 
L 263.378089 207.082067 
L 263.601401 207.459555 
L 263.824712 208.563617 
L 264.271336 212.297331 
L 264.494647 207.441639 
L 264.717959 198.118668 
L 264.941271 195.903553 
L 265.164582 197.759095 
L 265.834517 157.15624 
L 266.057829 168.334755 
L 266.281141 160.867326 
L 266.504452 161.241319 
L 266.727764 158.278218 
L 266.951076 158.655706 
L 267.621011 194.812693 
L 267.844322 194.420785 
L 268.067634 200.758027 
L 268.290945 177.653013 
L 268.514257 179.104663 
L 268.96088 188.422921 
L 269.184192 184.315214 
L 269.407504 190.652457 
L 269.630815 181.729602 
L 269.854127 181.368812 
L 270.077439 168.334755 
L 270.30075 169.456733 
L 270.524062 180.274457 
L 270.747374 173.563222 
L 270.970685 177.296936 
L 271.193997 176.919448 
L 271.64062 188.831528 
L 271.863932 226.100785 
L 272.087244 212.292618 
L 272.310555 217.525799 
L 272.533867 213.418092 
L 273.427114 226.84877 
L 273.873737 232.789391 
L 274.097049 238.022571 
L 274.32036 234.288857 
L 274.543672 217.165009 
L 274.990295 230.955259 
L 275.213607 229.095003 
L 275.66023 236.165811 
L 275.883542 231.329252 
L 276.106853 232.433314 
L 276.330165 229.099716 
L 276.553477 229.473709 
L 276.776788 230.203779 
L 277.0001 229.099716 
L 277.446723 231.329252 
L 277.670035 229.847702 
L 277.893347 224.632437 
L 278.116658 226.865468 
L 278.33997 220.52473 
L 278.563282 224.258444 
L 278.786593 224.632437 
L 279.009905 226.48798 
L 279.233217 223.132971 
L 279.903152 229.473709 
L 280.126463 229.473709 
L 280.349775 232.433314 
L 280.573087 230.599182 
L 280.796398 238.787255 
L 281.01971 232.093935 
L 281.243022 235.076169 
L 281.466333 233.594619 
L 282.136268 238.039269 
L 282.35958 236.183726 
L 282.582891 235.806238 
L 283.029515 239.161247 
L 283.476138 230.594469 
L 283.922761 236.931712 
L 284.146073 233.972106 
L 284.369385 233.972106 
L 284.592696 240.28672 
L 284.816008 236.931712 
L 285.03932 236.931712 
L 285.262631 240.291433 
L 285.485943 236.931712 
L 285.932566 240.291433 
L 286.155878 244.002519 
L 286.37919 241.416906 
L 286.602501 230.238392 
L 286.825813 229.860904 
L 287.049125 235.468077 
L 287.272436 231.36037 
L 287.71906 217.95232 
L 288.165683 229.126122 
L 288.388994 231.734363 
L 288.612306 244.789831 
L 288.835618 238.449093 
L 289.282241 243.664358 
L 289.505553 244.76842 
L 289.728864 242.912877 
L 289.952176 242.912877 
L 290.175488 249.983684 
L 290.398799 238.787255 
L 290.845423 244.020435 
L 291.068734 242.912877 
L 291.292046 242.912877 
L 291.515358 239.556651 
L 291.738669 239.179163 
L 291.961981 239.538735 
L 292.185293 238.787255 
L 292.408604 228.382849 
L 292.631916 233.972106 
L 292.855228 233.594619 
L 293.078539 232.84192 
L 293.301851 239.179163 
L 293.525163 239.179163 
L 293.748474 241.412194 
L 293.971786 241.412194 
L 294.418409 238.0751 
L 294.641721 239.556651 
L 294.865033 242.160179 
L 295.088344 240.304636 
L 295.758279 231.734363 
L 295.981591 235.094084 
L 296.204902 235.468077 
L 296.428214 234.715379 
L 296.651526 235.094084 
L 296.874837 234.720092 
L 297.321461 236.575635 
L 297.544772 238.431177 
L 297.768084 236.575635 
L 297.991396 236.575635 
L 298.214707 238.431177 
L 298.438019 238.057185 
L 298.661331 235.450161 
L 298.884642 237.305704 
L 299.107954 237.683192 
L 299.331266 237.305704 
L 299.554577 233.594619 
L 299.777889 236.931712 
L 300.001201 237.305704 
L 300.224512 234.702176 
L 300.447824 235.076169 
L 300.671136 236.931712 
L 301.117759 233.972106 
L 301.341071 230.238392 
L 301.564382 228.382849 
L 301.787694 230.612385 
L 302.011006 234.346099 
L 302.234317 233.594619 
L 302.457629 229.860904 
L 302.68094 229.860904 
L 302.904252 234.328184 
L 303.127564 233.220626 
L 303.350875 235.076169 
L 303.574187 235.450161 
L 303.797499 233.594619 
L 304.02081 235.076169 
L 304.244122 238.787255 
L 304.467434 237.305704 
L 304.690745 239.161247 
L 304.914057 239.538735 
L 305.137369 239.538735 
L 305.36068 236.931712 
L 305.807304 240.665426 
L 306.030615 242.146976 
L 306.253927 240.291433 
L 306.477239 246.984753 
L 306.70055 235.076169 
L 306.923862 234.702176 
L 307.147174 231.342455 
L 307.370485 235.076169 
L 307.593797 229.860904 
L 307.817109 233.594619 
L 308.04042 233.594619 
L 308.263732 234.346099 
L 308.487044 238.057185 
L 308.710355 232.467928 
L 308.933667 234.346099 
L 309.156978 234.720092 
L 309.38029 236.201642 
L 309.826913 231.716447 
L 310.050225 227.257376 
L 310.273537 226.12719 
L 310.496848 226.504678 
L 310.72016 222.793592 
L 310.943472 201.540626 
L 311.166783 196.325361 
L 311.390095 201.914619 
L 311.613407 201.914619 
L 311.836718 197.806912 
L 312.06003 201.540626 
L 312.283342 201.166633 
L 312.729965 188.114661 
L 312.953277 177.702047 
L 313.176588 176.575356 
L 313.3999 178.453528 
L 313.623212 177.702047 
L 313.846523 168.379076 
L 314.069835 177.702047 
L 314.293147 179.935078 
L 314.516458 178.079535 
L 314.73977 182.538606 
L 314.963082 176.949349 
L 315.186393 166.51882 
L 315.409705 165.770835 
L 315.633017 164.289284 
L 315.856328 168.396991 
L 316.07964 168.396991 
L 316.302951 162.059749 
L 316.526263 165.770835 
L 316.749575 149.025692 
L 316.972886 147.14752 
L 317.196198 142.310961 
L 317.41951 140.43279 
L 317.642821 336.442768 
L 318.312756 321.940363 
L 318.536068 320.08482 
L 318.75938 319.318919 
L 318.982691 308.158321 
L 319.206003 307.40684 
L 319.429315 305.928785 
L 319.652626 314.85164 
L 319.875938 317.102586 
L 320.09925 314.495563 
L 320.322561 314.513479 
L 320.545873 321.584286 
L 320.769185 324.547386 
L 321.215808 320.08482 
L 321.43912 324.173394 
L 321.662431 322.673928 
L 321.885743 326.407642 
L 322.332366 323.426626 
L 322.555678 324.174611 
L 322.778989 328.263185 
L 323.002301 325.656162 
L 323.225613 321.174462 
L 323.448924 319.336835 
L 323.672236 323.047921 
L 323.895548 321.56637 
L 324.118859 324.173394 
L 324.342171 321.56637 
L 324.788794 305.924072 
L 325.012106 310.761849 
L 325.235418 312.266027 
L 325.458729 311.140554 
L 325.682041 290.265076 
L 326.128664 305.550079 
L 326.351976 302.943056 
L 326.575288 303.673126 
L 326.798599 304.798599 
L 327.021911 305.172592 
L 327.245223 304.798599 
L 327.915158 310.761849 
L 328.138469 310.761849 
L 328.361781 309.283794 
L 328.585093 299.960822 
L 328.808404 296.997722 
L 329.255028 304.442522 
L 329.478339 301.838994 
L 329.701651 309.657786 
L 329.924962 308.906306 
L 330.148274 308.906306 
L 330.594897 303.694537 
L 330.818209 308.176236 
L 331.041521 306.672057 
L 331.264832 308.550229 
L 331.488144 305.941988 
L 331.711456 299.245173 
L 331.934767 302.956259 
L 332.158079 300.726723 
L 332.381391 303.707739 
L 332.604702 302.600182 
L 332.828014 311.175168 
L 333.051326 311.175168 
L 333.274637 311.54916 
L 333.497949 304.83443 
L 333.721261 308.924221 
L 333.944572 305.190507 
L 334.167884 305.567995 
L 334.391196 296.245024 
L 334.614507 291.782457 
L 334.837819 295.137466 
L 335.061131 288.066659 
L 335.284442 288.800224 
L 335.507754 288.800224 
L 335.731066 287.692666 
L 335.954377 281.729416 
L 336.177689 280.59923 
L 336.624312 287.692666 
L 337.070935 283.958952 
L 337.294247 292.907931 
L 337.74087 280.603943 
L 338.187494 292.516022 
L 338.410805 288.782308 
L 338.857429 292.138534 
L 339.08074 292.138534 
L 339.304052 291.764542 
L 339.527364 291.034472 
L 339.973987 291.034472 
L 340.197299 292.516022 
L 340.42061 291.034472 
L 340.643922 291.034472 
L 340.867234 288.782308 
L 341.313857 288.782308 
L 341.537169 289.530293 
L 341.76048 287.67475 
L 341.983792 287.67475 
L 342.207104 282.833479 
L 342.430415 265.691715 
L 342.877039 276.496236 
L 343.10035 270.906979 
L 343.323662 280.603943 
L 343.546973 284.315029 
L 343.770285 291.408465 
L 343.993597 289.530293 
L 344.216908 291.034472 
L 344.663532 290.282992 
L 344.886843 289.535006 
L 345.110155 295.124263 
L 345.333467 294.750271 
L 345.556778 286.905354 
L 345.78009 291.016556 
L 346.003402 286.905354 
L 346.226713 287.282842 
L 346.450025 287.282842 
L 346.673337 293.994077 
L 346.896648 290.282992 
L 347.11996 290.282992 
L 347.343272 291.764542 
L 347.789895 299.209342 
L 348.013207 291.390549 
L 348.236518 290.282992 
L 348.45983 286.175285 
L 348.683142 288.40482 
L 349.129765 279.481965 
L 349.353077 277.603794 
L 349.576388 279.104477 
L 349.7997 277.226306 
L 350.246323 280.586027 
L 350.469635 279.460554 
L 350.692946 272.767235 
L 350.916258 273.141227 
L 351.13957 272.393242 
L 351.362881 274.248785 
L 351.586193 273.871297 
L 351.809505 276.104328 
L 352.032816 273.871297 
L 352.256128 276.478321 
L 352.47944 274.622778 
L 352.702751 270.889063 
L 352.926063 269.033521 
L 353.149375 270.889063 
L 353.372686 276.104328 
L 353.595998 277.605011 
L 353.81931 277.605011 
L 354.042621 275.352847 
L 354.265933 270.893776 
L 354.489245 269.020318 
L 354.712556 271.60593 
L 354.935868 270.498373 
L 355.15918 270.857945 
L 355.605803 273.858094 
L 355.829115 274.983568 
L 356.052426 274.609575 
L 356.275738 274.609575 
L 356.49905 273.105396 
L 356.722361 273.105396 
L 356.945673 271.249853 
L 357.168984 276.465118 
L 357.392296 274.609575 
L 357.615608 274.232087 
L 358.062231 283.909918 
L 358.285543 283.909918 
L 358.508854 295.088432 
L 358.732166 291.377346 
L 358.955478 293.232889 
L 359.178789 292.125332 
L 359.402101 288.017625 
L 359.625413 288.017625 
L 359.848724 288.391617 
L 360.072036 291.751339 
L 360.295348 292.125332 
L 360.518659 282.80236 
L 360.741971 282.428368 
L 360.965283 279.442639 
L 361.188594 279.820127 
L 361.411906 284.301826 
L 361.635218 283.927833 
L 361.858529 287.661548 
L 362.081841 275.352847 
L 362.528464 283.194269 
L 362.751776 277.605011 
L 362.975088 277.982499 
L 363.421711 284.301826 
L 363.645023 280.568112 
L 363.868334 282.446283 
L 364.091646 281.698298 
L 364.538269 281.698298 
L 364.761581 282.072291 
L 365.208204 281.316097 
L 365.654827 289.161014 
L 365.878139 295.11955 
L 366.101451 296.623729 
L 366.324762 296.249737 
L 366.548074 298.479272 
L 366.771386 296.245024 
L 366.994697 295.493543 
L 367.218009 287.67475 
L 367.441321 287.300758 
L 367.664632 286.1932 
L 367.887944 220.278706 
L 368.111256 214.315456 
L 368.334567 218.77924 
L 368.557879 216.544992 
L 368.781191 225.885879 
L 369.004502 226.993436 
L 369.227814 226.245451 
L 369.451126 230.353158 
L 369.674437 228.474987 
L 369.897749 222.511737 
L 370.121061 227.723506 
L 370.344372 228.474987 
L 370.567684 228.100994 
L 371.014307 232.564778 
L 371.237619 231.439305 
L 371.46093 237.402554 
L 371.907554 234.068957 
L 372.130865 236.672485 
L 372.577489 232.938771 
L 372.8008 242.261742 
L 373.024112 236.298492 
L 373.247424 236.672485 
L 373.470735 240.032206 
L 373.694047 245.247471 
L 373.917359 235.9245 
L 374.14067 237.402554 
L 374.363982 232.195498 
L 374.587294 235.173019 
L 375.033917 229.209769 
L 375.257229 231.065312 
L 375.48054 231.439305 
L 375.927164 237.402554 
L 376.150475 238.158748 
L 376.373787 233.317476 
L 376.597099 243.748005 
L 376.82041 240.388283 
L 377.043722 239.640298 
L 377.267034 242.996525 
L 377.490345 240.014291 
L 377.713657 241.869834 
L 377.936968 234.051041 
L 378.606903 241.136269 
L 378.830215 241.513757 
L 379.053527 241.136269 
L 379.276838 242.991812 
L 379.50015 237.028562 
L 379.723462 236.654569 
L 380.170085 240.388283 
L 380.393397 240.014291 
L 380.616708 243.748005 
L 380.84002 241.495841 
L 381.063332 241.869834 
L 381.509955 237.780042 
L 381.733267 237.402554 
L 381.956578 239.658214 
L 382.17989 237.780042 
L 382.403202 238.528028 
L 382.626513 243.3693 
L 382.849825 241.136269 
L 383.073137 241.513757 
L 383.296448 242.991812 
L 383.51976 243.3693 
L 383.743072 241.136269 
L 383.966383 242.991812 
L 384.413007 241.136269 
L 384.636318 240.032206 
L 384.85963 240.032206 
L 385.082941 238.528028 
L 385.529565 240.406199 
L 385.752876 238.154035 
L 385.976188 237.423965 
L 386.422811 241.531672 
L 386.646123 241.531672 
L 386.869435 244.1352 
L 387.092746 243.761208 
L 387.316058 241.531672 
L 387.53937 241.905665 
L 387.762681 237.797958 
L 388.209305 233.690251 
L 388.432616 237.423965 
L 388.655928 235.942415 
L 389.102551 242.279658 
L 389.325863 240.775479 
L 389.549175 237.064393 
L 389.772486 238.545943 
L 390.21911 243.387215 
L 390.442421 243.761208 
L 390.665733 243.761208 
L 390.889045 241.531672 
L 391.112356 243.761208 
L 391.558979 240.419402 
L 391.782291 245.634666 
L 392.005603 245.260674 
L 392.228914 247.864202 
L 392.452226 247.864202 
L 392.675538 244.904597 
L 392.898849 246.760139 
L 393.122161 246.008659 
L 393.345473 247.134132 
L 393.568784 247.508125 
L 393.792096 252.367312 
L 394.015408 253.492785 
L 394.462031 249.381583 
L 394.685343 255.397362 
L 394.908654 257.982975 
L 395.131966 254.631461 
L 395.355278 255.005454 
L 395.578589 256.860997 
L 395.801901 259.861146 
L 396.025213 257.234989 
L 396.248524 256.860997 
L 396.471836 257.234989 
L 396.918459 255.753439 
L 397.141771 250.538175 
L 397.588394 256.896828 
L 397.811706 257.644813 
L 398.035018 255.805968 
L 398.258329 255.054488 
L 398.481641 256.536038 
L 398.704952 256.536038 
L 398.928264 257.643596 
L 399.151576 260.269752 
L 399.374887 256.892115 
L 399.598199 261.733387 
L 399.821511 259.500356 
L 400.044822 259.877844 
L 400.268134 254.66258 
L 400.491446 258.752371 
L 400.714757 255.018657 
L 401.161381 260.981906 
L 401.384692 284.0725 
L 401.608004 277.731762 
L 401.831316 283.321019 
L 402.054627 281.091484 
L 402.277939 295.252232 
L 402.724562 279.235941 
L 402.947874 282.195546 
L 403.171186 281.091484 
L 403.394497 281.091484 
L 403.617809 278.105755 
L 403.841121 279.605221 
L 404.064432 266.945156 
L 404.287744 270.660955 
L 404.511056 272.160421 
L 404.734367 269.574808 
L 404.957679 271.804344 
L 405.18099 272.178336 
L 405.627614 265.467101 
L 405.850925 256.518122 
L 406.074237 256.518122 
L 406.297549 249.821308 
L 406.52086 255.036572 
L 406.744172 257.266108 
L 407.190795 252.054339 
L 407.414107 254.306503 
L 407.637419 255.410565 
L 408.084042 253.911099 
L 408.307354 253.911099 
L 408.753977 259.144279 
L 408.977289 258.017588 
L 409.2006 253.555022 
L 409.423912 253.93251 
L 409.647224 249.839223 
L 409.870535 253.550309 
L 410.093847 259.89576 
L 410.317159 260.269752 
L 410.54047 258.017588 
L 410.763782 263.606845 
L 411.210405 256.910031 
L 411.433717 262.517203 
L 411.657029 263.250768 
L 411.88034 262.873281 
L 412.103652 265.485017 
L 412.326963 263.232853 
L 412.550275 258.391581 
L 413.443522 269.948801 
L 413.666833 276.26691 
L 413.890145 271.448267 
L 414.113457 269.570095 
L 414.56008 270.318081 
L 414.783392 271.822259 
L 415.230015 268.462538 
L 415.453327 264.728823 
L 415.676638 265.480304 
L 415.89995 265.480304 
L 416.123262 265.106311 
L 416.346573 255.049775 
L 417.016508 242.732585 
L 417.23982 241.610607 
L 417.463132 245.339608 
L 417.686443 252.433044 
L 417.909755 245.339608 
L 418.133067 160.037116 
L 418.356378 168.233397 
L 418.57969 168.981382 
L 418.803002 187.965487 
L 419.026313 182.750222 
L 419.249625 196.914465 
L 419.472936 192.073193 
L 419.696248 195.410287 
L 419.91956 188.344192 
L 420.142871 190.573728 
L 420.366183 185.361958 
L 420.589495 176.786972 
L 421.036118 182.750222 
L 421.25943 187.60941 
L 421.482741 182.394145 
L 421.706053 180.912595 
L 422.152676 187.627325 
L 422.375988 182.768138 
L 422.822611 188.752798 
L 423.045923 200.318508 
L 423.269235 195.836808 
L 423.492546 198.462965 
L 423.715858 193.620476 
L 423.93917 194.747166 
L 424.385793 189.139994 
L 424.609105 186.531753 
L 424.832416 187.640528 
L 425.055728 179.44303 
L 425.27904 182.802751 
L 425.502351 182.802751 
L 425.725663 184.284301 
L 425.948974 186.536465 
L 426.172286 195.085328 
L 426.395598 186.51855 
L 426.618909 189.122078 
L 427.065533 185.037 
L 427.288844 186.162473 
L 427.512156 183.906814 
L 427.735468 183.906814 
L 427.958779 182.051271 
L 428.182091 182.428759 
L 428.405403 189.873559 
L 428.628714 183.906814 
L 428.852026 183.906814 
L 429.075338 185.037 
L 429.298649 189.122078 
L 429.521961 187.266535 
L 429.745273 189.122078 
L 429.968584 185.037 
L 430.191896 184.285519 
L 430.861831 167.139042 
L 431.308454 164.55343 
L 431.531766 170.137974 
L 431.755078 170.142687 
L 431.978389 173.853772 
L 432.201701 171.624237 
L 432.425013 173.105787 
L 432.648324 178.695044 
L 432.871636 178.695044 
L 433.094947 178.322269 
L 433.541571 172.697181 
L 433.764882 164.504396 
L 433.988194 166.377854 
L 434.211506 163.770831 
L 434.434817 164.144823 
L 434.658129 164.878388 
L 434.881441 167.486629 
L 435.104752 173.827367 
L 435.551376 206.962793 
L 435.997999 198.039939 
L 436.444622 194.680217 
L 436.667934 195.05421 
L 436.891246 190.969131 
L 437.114557 198.413931 
L 437.337869 190.595139 
L 437.561181 196.161767 
L 437.784492 193.198667 
L 438.007804 196.909752 
L 438.677739 190.217651 
L 438.901051 191.699201 
L 439.347674 186.483936 
L 439.570985 187.235417 
L 439.794297 187.235417 
L 440.017609 186.861424 
L 440.24092 181.64616 
L 440.464232 181.272167 
L 440.687544 187.235417 
L 440.910855 189.838945 
L 441.134167 183.875695 
L 441.357479 183.875695 
L 441.58079 183.501703 
L 441.804102 186.127859 
L 442.027414 185.753867 
L 442.250725 183.875695 
L 442.474037 186.501852 
L 442.697349 186.500634 
L 442.92066 183.893611 
L 443.143972 182.768138 
L 443.367284 184.623681 
L 443.590595 183.145626 
L 443.813907 183.893611 
L 444.037219 176.448811 
L 444.26053 174.196647 
L 444.483842 164.896304 
L 444.707154 164.522311 
L 444.930465 166.000366 
L 445.153777 168.981382 
L 445.377089 168.60739 
L 445.6004 168.60739 
L 445.823712 170.485561 
L 446.047024 170.111568 
L 446.270335 169.360088 
L 446.493647 170.841638 
L 446.716958 170.093653 
L 446.94027 166.733931 
L 447.163582 159.663124 
L 447.386893 157.433588 
L 447.610205 146.629067 
L 447.833517 151.844331 
L 448.28014 135.806629 
L 448.503452 134.307164 
L 448.726763 136.162706 
L 448.950075 134.681156 
L 449.173387 139.896421 
L 449.396698 140.270413 
L 449.62001 147.341221 
L 449.843322 146.967228 
L 450.066633 151.074935 
L 450.289945 141.377971 
L 450.513257 139.13052 
L 450.736568 141.382684 
L 450.95988 138.753032 
L 451.183192 140.631203 
L 451.406503 135.419434 
L 451.629815 135.793427 
L 451.853127 139.13052 
L 452.076438 147.341221 
L 452.29975 145.85967 
L 452.523062 153.681958 
L 452.746373 151.074935 
L 452.969685 152.930478 
L 453.192996 156.664192 
L 453.416308 150.32695 
L 453.63962 151.074935 
L 453.862931 151.074935 
L 454.086243 150.700942 
L 454.309555 160.397906 
L 454.532866 162.627442 
L 454.756178 167.094721 
L 454.97949 158.524448 
L 455.202801 157.77175 
L 455.426113 160.397906 
L 455.649425 155.56013 
L 455.872736 154.055951 
L 456.31936 154.803936 
L 456.542671 152.948393 
L 456.765983 154.803936 
L 456.989295 152.574401 
L 457.212606 153.681958 
L 457.65923 159.289131 
L 457.882541 155.181424 
L 458.105853 153.699874 
L 458.329165 153.699874 
L 458.552476 149.592167 
L 458.775788 149.96616 
L 458.9991 158.915139 
L 459.445723 158.915139 
L 459.669035 152.948393 
L 459.892346 155.181424 
L 460.338969 151.844331 
L 460.562281 158.915139 
L 460.785593 152.218324 
L 461.008904 153.699874 
L 461.232216 158.163658 
L 461.455528 154.803936 
L 461.678839 154.803936 
L 461.902151 151.844331 
L 462.348774 149.610083 
L 462.572086 151.839618 
L 462.795398 149.610083 
L 463.018709 141.409089 
L 463.242021 152.587603 
L 463.465333 153.357 
L 463.688644 153.713077 
L 463.911956 154.83855 
L 464.135268 155.212543 
L 464.358579 153.730992 
L 464.581891 153.357 
L 464.805203 151.857534 
L 465.028514 155.591248 
L 465.475138 148.497812 
L 465.698449 152.605519 
L 465.921761 150.375984 
L 466.368384 168.999298 
L 466.591696 171.985027 
L 466.815008 176.818091 
L 467.038319 173.858485 
L 467.261631 180.573216 
L 467.484942 183.158828 
L 467.708254 180.573216 
L 467.931566 173.47978 
L 468.154877 175.357951 
L 468.378189 186.141062 
L 468.601501 184.663007 
L 468.824812 192.499715 
L 469.048124 194.729251 
L 469.494747 194.698132 
L 469.718059 198.783211 
L 469.941371 196.927668 
L 470.387994 198.801126 
L 470.611306 196.945584 
L 470.834617 183.893611 
L 471.057929 182.376229 
L 471.281241 187.235417 
L 471.504552 189.464952 
L 471.951176 185.379874 
L 472.174487 185.379874 
L 472.397799 188.339479 
L 472.621111 186.483936 
L 472.844422 187.217501 
L 473.291046 209.197042 
L 473.737669 202.503722 
L 473.96098 206.588801 
L 474.184292 199.895481 
L 474.407604 199.144001 
L 474.854227 192.450681 
L 475.077539 196.161767 
L 475.30085 191.699201 
L 475.747474 199.144001 
L 475.970785 195.784279 
L 476.194097 198.413931 
L 476.417409 198.039939 
L 476.64072 198.413931 
L 477.087344 204.003188 
L 477.310655 199.144001 
L 477.533967 205.858731 
L 477.757279 200.999544 
L 477.98059 199.895481 
L 478.203902 199.895481 
L 478.427214 199.517993 
L 478.650525 189.469665 
L 478.873837 189.843658 
L 479.097149 193.198667 
L 479.32046 192.824674 
L 479.543772 194.306224 
L 479.767084 192.824674 
L 479.990395 189.843658 
L 480.213707 192.450681 
L 480.437019 193.554744 
L 480.883642 186.840013 
L 481.106953 184.628393 
L 481.330265 187.217501 
L 481.553577 187.591494 
L 481.776888 190.951216 
L 482.0002 186.840013 
L 482.223512 187.591494 
L 482.446823 189.095673 
L 482.670135 189.095673 
L 482.893447 193.180751 
L 483.116758 188.339479 
L 483.563382 193.928736 
L 483.786693 199.144001 
L 484.010005 193.180751 
L 484.233317 190.573728 
L 484.456628 190.951216 
L 484.67994 190.573728 
L 485.126563 186.483936 
L 485.796498 189.469665 
L 486.01981 189.843658 
L 486.243122 188.716967 
L 486.466433 185.735951 
L 486.689745 197.288458 
L 486.913057 195.802195 
L 487.35968 201.412863 
L 487.582991 194.698132 
L 488.029615 195.446118 
L 488.252926 191.338411 
L 488.476238 192.468597 
L 488.69955 188.357395 
L 488.922861 187.60941 
L 489.146173 187.983402 
L 489.369485 190.212938 
L 489.592796 187.253332 
L 489.816108 188.357395 
L 490.03942 188.357395 
L 490.262731 187.983402 
L 490.486043 193.572659 
L 490.932666 195.05421 
L 491.155978 196.53576 
L 491.37929 198.787924 
L 491.602601 197.288458 
L 491.825913 197.288458 
L 492.049225 196.540473 
L 492.272536 193.554744 
L 492.495848 193.928736 
L 492.71916 193.928736 
L 492.942471 189.843658 
L 493.389095 198.770008 
L 493.612406 198.770008 
L 493.835718 202.503722 
L 494.05903 204.359265 
L 494.282341 198.396016 
L 494.505653 198.396016 
L 494.728964 172.701894 
L 494.952276 168.96818 
L 495.175588 172.701894 
L 495.398899 174.557437 
L 495.622211 179.039136 
L 495.845523 186.109944 
L 496.068834 182.376229 
L 496.292146 182.376229 
L 496.515458 178.665144 
L 496.962081 183.12771 
L 497.185393 182.020152 
L 497.408704 186.127859 
L 497.632016 184.623681 
L 497.855328 180.912595 
L 498.078639 180.538602 
L 498.301951 187.60941 
L 498.525263 183.501703 
L 498.748574 185.753867 
L 499.195198 180.894679 
L 499.418509 178.665144 
L 499.641821 180.146694 
L 500.088444 180.146694 
L 500.311756 183.880408 
L 500.535068 183.506416 
L 500.758379 177.521755 
L 500.981691 176.0437 
L 501.428314 180.502771 
L 501.651626 176.41298 
L 501.874937 174.557437 
L 502.098249 171.571708 
L 502.321561 170.823722 
L 502.544872 165.608458 
L 502.768184 157.789665 
L 502.991496 160.019201 
L 503.214807 164.878388 
L 503.438119 164.504396 
L 503.661431 165.608458 
L 503.884742 161.897372 
L 504.108054 165.982451 
L 504.331366 165.982451 
L 504.554677 167.486629 
L 504.777989 171.571708 
L 505.224612 165.234465 
L 505.447924 169.716165 
L 505.671236 165.982451 
L 505.894547 164.126908 
L 506.117859 171.571708 
L 506.341171 168.96818 
L 506.564482 171.197715 
L 506.787794 165.982451 
L 507.011106 164.126908 
L 507.234417 165.234465 
L 507.681041 168.60739 
L 507.904352 169.732863 
L 508.127664 166.769762 
L 508.350975 166.021777 
L 508.574287 159.681039 
L 509.244222 179.055834 
L 509.467534 182.407348 
L 509.914157 178.322269 
L 510.137469 177.948277 
L 510.36078 176.822803 
L 510.584092 186.500634 
L 510.807404 182.412061 
L 511.030715 181.28537 
L 511.254027 183.163541 
L 511.477339 186.141062 
L 511.70065 178.696262 
L 511.923962 178.317556 
L 512.147274 176.462014 
L 512.370585 182.051271 
L 512.593897 180.573216 
L 512.817209 170.498764 
L 513.04052 170.124771 
L 513.263832 174.983959 
L 513.487144 172.354307 
L 513.710455 175.357951 
L 513.933767 172.016145 
L 514.38039 157.477909 
L 514.603702 163.444654 
L 515.273637 169.051827 
L 515.496948 168.677834 
L 516.166883 161.210406 
L 516.390195 164.19264 
L 516.613507 164.566632 
L 516.836818 173.515611 
L 517.06013 164.922709 
L 517.283442 170.137974 
L 517.730065 172.767626 
L 517.953377 172.767626 
L 518.4 170.155889 
L 518.4 170.155889 
" style="fill:none;stroke:#4c72b0;stroke-linecap:round;stroke-width:1.75;"/>
   </g>
   <g id="patch_3">
    <path d="M 72 356.4 
L 518.4 356.4 
" style="fill:none;"/>
   </g>
   <g id="patch_4">
    <path d="M 72 39.6 
L 518.4 39.6 
" style="fill:none;"/>
   </g>
   <g id="patch_5">
    <path d="M 72 356.4 
L 72 39.6 
" style="fill:none;"/>
   </g>
   <g id="patch_6">
    <path d="M 518.4 356.4 
L 518.4 39.6 
" style="fill:none;"/>
   </g>
   <g id="text_14">
    <!-- SR - 0.1544621751206967 * jd -->
    <defs>
     <path d="M 9.125 0 
L 9.125 10.6875 
L 18.65625 10.6875 
L 18.65625 0 
z
" id="LiberationSans-2e"/>
     <path d="M 6.6875 64.0625 
L 6.6875 72.46875 
L 15.484375 72.46875 
L 15.484375 64.0625 
z
M 15.484375 -6.546875 
Q 15.484375 -9.578125 14.96875 -12.15625 
Q 14.453125 -14.75 13.125 -16.65625 
Q 11.8125 -18.5625 9.546875 -19.65625 
Q 7.28125 -20.75 3.765625 -20.75 
Q 2.09375 -20.75 0.5 -20.65625 
Q -1.078125 -20.5625 -2.4375 -20.3125 
L -2.4375 -13.53125 
Q -1.8125 -13.625 -0.921875 -13.71875 
Q -0.046875 -13.8125 0.59375 -13.8125 
Q 2.4375 -13.8125 3.625 -13.328125 
Q 4.828125 -12.84375 5.515625 -11.796875 
Q 6.203125 -10.75 6.4375 -9.109375 
Q 6.6875 -7.46875 6.6875 -5.21875 
L 6.6875 52.828125 
L 15.484375 52.828125 
z
" id="LiberationSans-6a"/>
     <path d="M 40.09375 8.5 
Q 37.640625 3.421875 33.609375 1.21875 
Q 29.59375 -0.984375 23.640625 -0.984375 
Q 13.625 -0.984375 8.90625 5.75 
Q 4.203125 12.5 4.203125 26.171875 
Q 4.203125 53.8125 23.640625 53.8125 
Q 29.640625 53.8125 33.640625 51.609375 
Q 37.640625 49.421875 40.09375 44.625 
L 40.1875 44.625 
Q 40.1875 45.125 40.15625 46.171875 
Q 40.140625 47.21875 40.109375 48.359375 
Q 40.09375 49.515625 40.09375 50.53125 
Q 40.09375 51.5625 40.09375 52 
L 40.09375 72.46875 
L 48.875 72.46875 
L 48.875 10.890625 
Q 48.875 8.984375 48.890625 7.21875 
Q 48.921875 5.46875 48.96875 4 
Q 49.03125 2.546875 49.078125 1.484375 
Q 49.125 0.4375 49.171875 0 
L 40.765625 0 
Q 40.671875 0.484375 40.59375 1.390625 
Q 40.53125 2.296875 40.453125 3.46875 
Q 40.375 4.640625 40.328125 5.9375 
Q 40.28125 7.234375 40.28125 8.5 
z
M 13.421875 26.46875 
Q 13.421875 21 14.109375 17.09375 
Q 14.796875 13.1875 16.3125 10.671875 
Q 17.828125 8.15625 20.171875 6.984375 
Q 22.515625 5.8125 25.875 5.8125 
Q 29.34375 5.8125 32 6.9375 
Q 34.671875 8.0625 36.453125 10.578125 
Q 38.234375 13.09375 39.15625 17.140625 
Q 40.09375 21.1875 40.09375 27.046875 
Q 40.09375 32.671875 39.15625 36.546875 
Q 38.234375 40.4375 36.421875 42.828125 
Q 34.625 45.21875 32 46.265625 
Q 29.390625 47.3125 25.984375 47.3125 
Q 22.75 47.3125 20.40625 46.1875 
Q 18.0625 45.0625 16.5 42.578125 
Q 14.9375 40.09375 14.171875 36.109375 
Q 13.421875 32.125 13.421875 26.46875 
" id="LiberationSans-64"/>
     <path d="M 62.109375 19 
Q 62.109375 14.65625 60.421875 10.984375 
Q 58.734375 7.328125 55.21875 4.65625 
Q 51.703125 2 46.359375 0.5 
Q 41.015625 -0.984375 33.6875 -0.984375 
Q 20.84375 -0.984375 13.671875 3.515625 
Q 6.5 8.015625 4.546875 16.5 
L 13.578125 18.3125 
Q 14.265625 15.625 15.671875 13.421875 
Q 17.09375 11.234375 19.5 9.640625 
Q 21.921875 8.0625 25.484375 7.171875 
Q 29.046875 6.296875 34.03125 6.296875 
Q 38.1875 6.296875 41.65625 7 
Q 45.125 7.71875 47.609375 9.171875 
Q 50.09375 10.640625 51.484375 12.953125 
Q 52.875 15.28125 52.875 18.5 
Q 52.875 21.875 51.34375 23.96875 
Q 49.8125 26.078125 47.015625 27.4375 
Q 44.234375 28.8125 40.375 29.734375 
Q 36.53125 30.671875 31.84375 31.734375 
Q 28.953125 32.375 26.046875 33.125 
Q 23.140625 33.890625 20.484375 34.9375 
Q 17.828125 35.984375 15.484375 37.390625 
Q 13.140625 38.8125 11.421875 40.796875 
Q 9.71875 42.78125 8.734375 45.390625 
Q 7.765625 48 7.765625 51.421875 
Q 7.765625 56.296875 9.734375 59.78125 
Q 11.71875 63.28125 15.234375 65.53125 
Q 18.75 67.78125 23.53125 68.796875 
Q 28.328125 69.828125 33.890625 69.828125 
Q 40.28125 69.828125 44.8125 68.828125 
Q 49.359375 67.828125 52.484375 65.8125 
Q 55.609375 63.8125 57.484375 60.859375 
Q 59.375 57.90625 60.5 54 
L 51.3125 52.390625 
Q 50.640625 54.890625 49.34375 56.84375 
Q 48.046875 58.796875 45.9375 60.109375 
Q 43.84375 61.421875 40.84375 62.109375 
Q 37.84375 62.796875 33.796875 62.796875 
Q 29 62.796875 25.75 61.9375 
Q 22.515625 61.078125 20.53125 59.609375 
Q 18.5625 58.15625 17.703125 56.171875 
Q 16.84375 54.203125 16.84375 51.90625 
Q 16.84375 48.828125 18.375 46.84375 
Q 19.921875 44.875 22.5625 43.546875 
Q 25.203125 42.234375 28.65625 41.359375 
Q 32.125 40.484375 36.03125 39.59375 
Q 39.203125 38.875 42.359375 38.109375 
Q 45.515625 37.359375 48.390625 36.296875 
Q 51.265625 35.25 53.78125 33.828125 
Q 56.296875 32.421875 58.15625 30.375 
Q 60.015625 28.328125 61.0625 25.53125 
Q 62.109375 22.75 62.109375 19 
" id="LiberationSans-53"/>
     <path d="M 56.84375 0 
L 38.96875 28.5625 
L 17.53125 28.5625 
L 17.53125 0 
L 8.203125 0 
L 8.203125 68.796875 
L 40.578125 68.796875 
Q 46.4375 68.796875 50.953125 67.453125 
Q 55.46875 66.109375 58.546875 63.5625 
Q 61.625 61.03125 63.234375 57.375 
Q 64.84375 53.71875 64.84375 49.125 
Q 64.84375 45.84375 63.890625 42.671875 
Q 62.9375 39.5 60.890625 36.859375 
Q 58.84375 34.234375 55.65625 32.328125 
Q 52.484375 30.421875 48.046875 29.640625 
L 67.578125 0 
z
M 55.46875 49.03125 
Q 55.46875 52.15625 54.390625 54.4375 
Q 53.328125 56.734375 51.265625 58.265625 
Q 49.21875 59.8125 46.28125 60.5625 
Q 43.359375 61.328125 39.65625 61.328125 
L 17.53125 61.328125 
L 17.53125 35.9375 
L 40.046875 35.9375 
Q 44.046875 35.9375 46.96875 36.9375 
Q 49.90625 37.9375 51.78125 39.6875 
Q 53.65625 41.453125 54.5625 43.84375 
Q 55.46875 46.234375 55.46875 49.03125 
" id="LiberationSans-52"/>
     <path d="M 22.265625 54.390625 
L 35.15625 59.421875 
L 37.359375 52.984375 
L 23.578125 49.421875 
L 32.625 37.203125 
L 26.8125 33.6875 
L 19.484375 46.296875 
L 11.859375 33.796875 
L 6.0625 37.3125 
L 15.28125 49.421875 
L 1.609375 52.984375 
L 3.8125 59.515625 
L 16.84375 54.296875 
L 16.265625 68.796875 
L 22.90625 68.796875 
z
" id="LiberationSans-2a"/>
    </defs>
    <g style="fill:#262626;" transform="translate(212.8059375 34.6)scale(0.12 -0.12)">
     <use xlink:href="#LiberationSans-53"/>
     <use x="66.69921875" xlink:href="#LiberationSans-52"/>
     <use x="138.916015625" xlink:href="#LiberationSans-20"/>
     <use x="166.69921875" xlink:href="#LiberationSans-2d"/>
     <use x="200.0" xlink:href="#LiberationSans-20"/>
     <use x="227.783203125" xlink:href="#LiberationSans-30"/>
     <use x="283.3984375" xlink:href="#LiberationSans-2e"/>
     <use x="311.181640625" xlink:href="#LiberationSans-31"/>
     <use x="366.796875" xlink:href="#LiberationSans-35"/>
     <use x="422.412109375" xlink:href="#LiberationSans-34"/>
     <use x="478.02734375" xlink:href="#LiberationSans-34"/>
     <use x="533.642578125" xlink:href="#LiberationSans-36"/>
     <use x="589.2578125" xlink:href="#LiberationSans-32"/>
     <use x="644.873046875" xlink:href="#LiberationSans-31"/>
     <use x="700.48828125" xlink:href="#LiberationSans-37"/>
     <use x="756.103515625" xlink:href="#LiberationSans-35"/>
     <use x="811.71875" xlink:href="#LiberationSans-31"/>
     <use x="867.333984375" xlink:href="#LiberationSans-32"/>
     <use x="922.94921875" xlink:href="#LiberationSans-30"/>
     <use x="978.564453125" xlink:href="#LiberationSans-36"/>
     <use x="1034.1796875" xlink:href="#LiberationSans-39"/>
     <use x="1089.794921875" xlink:href="#LiberationSans-36"/>
     <use x="1145.41015625" xlink:href="#LiberationSans-37"/>
     <use x="1201.025390625" xlink:href="#LiberationSans-20"/>
     <use x="1228.80859375" xlink:href="#LiberationSans-2a"/>
     <use x="1267.724609375" xlink:href="#LiberationSans-20"/>
     <use x="1295.5078125" xlink:href="#LiberationSans-6a"/>
     <use x="1317.724609375" xlink:href="#LiberationSans-64"/>
    </g>
   </g>
  </g>
 </g>
 <defs>
  <clipPath id="p4c863b83e3">
   <rect height="316.8" width="446.4" x="72.0" y="39.6"/>
  </clipPath>
 </defs>
</svg>
