<?xml version="1.0" encoding="utf-8" standalone="no"?>
<!DOCTYPE svg PUBLIC "-//W3C//DTD SVG 1.1//EN"
  "http://www.w3.org/Graphics/SVG/1.1/DTD/svg11.dtd">
<!-- Created with matplotlib (http://matplotlib.org/) -->
<svg height="396pt" version="1.1" viewBox="0 0 576 396" width="576pt" xmlns="http://www.w3.org/2000/svg" xmlns:xlink="http://www.w3.org/1999/xlink">
 <defs>
  <style type="text/css">
*{stroke-linecap:butt;stroke-linejoin:round;stroke-miterlimit:100000;}
  </style>
 </defs>
 <g id="figure_1">
  <g id="patch_1">
   <path d="M 0 396 
L 576 396 
L 576 0 
L 0 0 
z
" style="fill:#ffffff;"/>
  </g>
  <g id="axes_1">
   <g id="patch_2">
    <path d="M 72 356.4 
L 518.4 356.4 
L 518.4 39.6 
L 72 39.6 
z
" style="fill:#eaeaf2;"/>
   </g>
   <g id="matplotlib.axis_1">
    <g id="xtick_1">
     <g id="line2d_1">
      <path clip-path="url(#p0861bd57be)" d="M 72 356.4 
L 72 39.6 
" style="fill:none;stroke:#ffffff;stroke-linecap:round;"/>
     </g>
     <g id="line2d_2"/>
     <g id="line2d_3"/>
     <g id="text_1">
      <!-- 2016-09-29 22:44:00 -->
      <defs>
       <path d="M 5.03125 0 
L 5.03125 6.203125 
Q 7.515625 11.921875 11.109375 16.28125 
Q 14.703125 20.65625 18.65625 24.1875 
Q 22.609375 27.734375 26.484375 30.765625 
Q 30.375 33.796875 33.5 36.8125 
Q 36.625 39.84375 38.546875 43.15625 
Q 40.484375 46.484375 40.484375 50.6875 
Q 40.484375 53.609375 39.59375 55.828125 
Q 38.71875 58.0625 37.0625 59.5625 
Q 35.40625 61.078125 33.078125 61.828125 
Q 30.765625 62.59375 27.9375 62.59375 
Q 25.296875 62.59375 22.96875 61.859375 
Q 20.65625 61.140625 18.84375 59.671875 
Q 17.046875 58.203125 15.890625 56.03125 
Q 14.75 53.859375 14.40625 50.984375 
L 5.421875 51.8125 
Q 5.859375 55.515625 7.46875 58.78125 
Q 9.078125 62.0625 11.90625 64.53125 
Q 14.75 67 18.71875 68.40625 
Q 22.703125 69.828125 27.9375 69.828125 
Q 33.0625 69.828125 37.0625 68.609375 
Q 41.0625 67.390625 43.8125 64.984375 
Q 46.578125 62.59375 48.046875 59.078125 
Q 49.515625 55.5625 49.515625 50.984375 
Q 49.515625 47.515625 48.265625 44.390625 
Q 47.015625 41.265625 44.9375 38.421875 
Q 42.875 35.59375 40.140625 32.953125 
Q 37.40625 30.328125 34.421875 27.8125 
Q 31.453125 25.296875 28.421875 22.828125 
Q 25.390625 20.359375 22.71875 17.859375 
Q 20.0625 15.375 17.96875 12.8125 
Q 15.875 10.25 14.703125 7.46875 
L 50.59375 7.46875 
L 50.59375 0 
z
" id="LiberationSans-32"/>
       <path d="M 7.625 0 
L 7.625 7.46875 
L 25.140625 7.46875 
L 25.140625 60.40625 
L 9.625 49.3125 
L 9.625 57.625 
L 25.875 68.796875 
L 33.984375 68.796875 
L 33.984375 7.46875 
L 50.734375 7.46875 
L 50.734375 0 
z
" id="LiberationSans-31"/>
       <path d="M 51.703125 34.421875 
Q 51.703125 24.515625 49.828125 17.75 
Q 47.953125 10.984375 44.703125 6.8125 
Q 41.453125 2.640625 37.0625 0.828125 
Q 32.671875 -0.984375 27.6875 -0.984375 
Q 22.65625 -0.984375 18.3125 0.828125 
Q 13.96875 2.640625 10.765625 6.78125 
Q 7.5625 10.9375 5.734375 17.703125 
Q 3.90625 24.46875 3.90625 34.421875 
Q 3.90625 44.828125 5.734375 51.640625 
Q 7.5625 58.453125 10.78125 62.5 
Q 14.015625 66.546875 18.40625 68.1875 
Q 22.796875 69.828125 27.984375 69.828125 
Q 32.90625 69.828125 37.21875 68.1875 
Q 41.546875 66.546875 44.765625 62.5 
Q 48 58.453125 49.84375 51.640625 
Q 51.703125 44.828125 51.703125 34.421875 
M 42.78125 34.421875 
Q 42.78125 42.625 41.796875 48.0625 
Q 40.828125 53.515625 38.921875 56.765625 
Q 37.015625 60.015625 34.25 61.359375 
Q 31.5 62.703125 27.984375 62.703125 
Q 24.265625 62.703125 21.4375 61.328125 
Q 18.609375 59.96875 16.671875 56.71875 
Q 14.75 53.46875 13.765625 48.015625 
Q 12.796875 42.578125 12.796875 34.421875 
Q 12.796875 26.515625 13.796875 21.09375 
Q 14.796875 15.671875 16.71875 12.375 
Q 18.65625 9.078125 21.4375 7.640625 
Q 24.21875 6.203125 27.78125 6.203125 
Q 31.25 6.203125 34.03125 7.640625 
Q 36.8125 9.078125 38.734375 12.375 
Q 40.671875 15.671875 41.71875 21.09375 
Q 42.78125 26.515625 42.78125 34.421875 
" id="LiberationSans-30"/>
       <path d="M 50.875 35.796875 
Q 50.875 26.609375 49.140625 19.703125 
Q 47.40625 12.796875 44.1875 8.203125 
Q 40.96875 3.609375 36.34375 1.3125 
Q 31.734375 -0.984375 25.984375 -0.984375 
Q 22.015625 -0.984375 18.84375 -0.171875 
Q 15.671875 0.640625 13.171875 2.34375 
Q 10.6875 4.046875 8.921875 6.78125 
Q 7.171875 9.515625 6.109375 13.375 
L 14.5 14.703125 
Q 15.875 10.25 18.78125 8.171875 
Q 21.6875 6.109375 26.125 6.109375 
Q 29.6875 6.109375 32.640625 7.78125 
Q 35.59375 9.46875 37.671875 12.84375 
Q 39.75 16.21875 40.921875 21.296875 
Q 42.09375 26.375 42.1875 33.203125 
Q 41.15625 30.90625 39.375 29.09375 
Q 37.59375 27.296875 35.328125 26.046875 
Q 33.0625 24.8125 30.421875 24.140625 
Q 27.78125 23.484375 25.09375 23.484375 
Q 20.40625 23.484375 16.625 25.171875 
Q 12.84375 26.859375 10.203125 29.875 
Q 7.5625 32.90625 6.125 37.171875 
Q 4.6875 41.453125 4.6875 46.6875 
Q 4.6875 52 6.21875 56.296875 
Q 7.765625 60.59375 10.6875 63.59375 
Q 13.625 66.609375 17.890625 68.21875 
Q 22.171875 69.828125 27.59375 69.828125 
Q 39.0625 69.828125 44.96875 61.328125 
Q 50.875 52.828125 50.875 35.796875 
M 41.3125 44.28125 
Q 41.3125 48.09375 40.40625 51.453125 
Q 39.5 54.828125 37.71875 57.3125 
Q 35.9375 59.8125 33.328125 61.25 
Q 30.71875 62.703125 27.296875 62.703125 
Q 24.125 62.703125 21.578125 61.578125 
Q 19.046875 60.453125 17.28125 58.375 
Q 15.53125 56.296875 14.578125 53.3125 
Q 13.625 50.34375 13.625 46.6875 
Q 13.625 43.21875 14.46875 40.234375 
Q 15.328125 37.25 17.03125 35.078125 
Q 18.75 32.90625 21.28125 31.65625 
Q 23.828125 30.421875 27.203125 30.421875 
Q 29.640625 30.421875 32.15625 31.25 
Q 34.671875 32.078125 36.6875 33.78125 
Q 38.71875 35.5 40.015625 38.109375 
Q 41.3125 40.71875 41.3125 44.28125 
" id="LiberationSans-39"/>
       <path d="M 9.125 42.71875 
L 9.125 52.828125 
L 18.65625 52.828125 
L 18.65625 42.71875 
z
M 9.125 0 
L 9.125 10.109375 
L 18.65625 10.109375 
L 18.65625 0 
z
" id="LiberationSans-3a"/>
       <path d="M 43.015625 15.578125 
L 43.015625 0 
L 34.71875 0 
L 34.71875 15.578125 
L 2.296875 15.578125 
L 2.296875 22.40625 
L 33.796875 68.796875 
L 43.015625 68.796875 
L 43.015625 22.515625 
L 52.6875 22.515625 
L 52.6875 15.578125 
z
M 34.71875 58.890625 
Q 34.625 58.640625 34.234375 57.9375 
Q 33.84375 57.234375 33.34375 56.34375 
Q 32.859375 55.46875 32.34375 54.5625 
Q 31.84375 53.65625 31.453125 53.078125 
L 13.8125 27.09375 
Q 13.578125 26.703125 13.109375 26.0625 
Q 12.640625 25.4375 12.15625 24.78125 
Q 11.671875 24.125 11.171875 23.484375 
Q 10.6875 22.859375 10.40625 22.515625 
L 34.71875 22.515625 
z
" id="LiberationSans-34"/>
       <path id="LiberationSans-20"/>
       <path d="M 4.4375 22.65625 
L 4.4375 30.46875 
L 28.859375 30.46875 
L 28.859375 22.65625 
z
" id="LiberationSans-2d"/>
       <path d="M 51.21875 22.515625 
Q 51.21875 17.328125 49.78125 13 
Q 48.34375 8.6875 45.53125 5.578125 
Q 42.71875 2.484375 38.5625 0.75 
Q 34.421875 -0.984375 29 -0.984375 
Q 23 -0.984375 18.5 1.3125 
Q 14.015625 3.609375 11.03125 7.921875 
Q 8.0625 12.25 6.5625 18.53125 
Q 5.078125 24.8125 5.078125 32.8125 
Q 5.078125 42 6.765625 48.921875 
Q 8.453125 55.859375 11.625 60.5 
Q 14.796875 65.140625 19.359375 67.484375 
Q 23.921875 69.828125 29.6875 69.828125 
Q 33.203125 69.828125 36.28125 69.09375 
Q 39.359375 68.359375 41.875 66.71875 
Q 44.390625 65.09375 46.28125 62.40625 
Q 48.1875 59.71875 49.3125 55.8125 
L 40.921875 54.296875 
Q 39.546875 58.734375 36.546875 60.71875 
Q 33.546875 62.703125 29.59375 62.703125 
Q 25.984375 62.703125 23.046875 60.984375 
Q 20.125 59.28125 18.0625 55.875 
Q 16.015625 52.484375 14.90625 47.359375 
Q 13.8125 42.234375 13.8125 35.40625 
Q 16.21875 39.84375 20.5625 42.15625 
Q 24.90625 44.484375 30.515625 44.484375 
Q 35.203125 44.484375 39.015625 42.96875 
Q 42.828125 41.453125 45.53125 38.59375 
Q 48.25 35.75 49.734375 31.671875 
Q 51.21875 27.59375 51.21875 22.515625 
M 42.28125 22.125 
Q 42.28125 25.6875 41.40625 28.5625 
Q 40.53125 31.453125 38.765625 33.46875 
Q 37.015625 35.5 34.421875 36.59375 
Q 31.84375 37.703125 28.421875 37.703125 
Q 26.03125 37.703125 23.578125 36.984375 
Q 21.140625 36.28125 19.15625 34.6875 
Q 17.1875 33.109375 15.9375 30.515625 
Q 14.703125 27.9375 14.703125 24.21875 
Q 14.703125 20.40625 15.671875 17.109375 
Q 16.65625 13.8125 18.484375 11.375 
Q 20.3125 8.9375 22.890625 7.515625 
Q 25.484375 6.109375 28.71875 6.109375 
Q 31.890625 6.109375 34.40625 7.203125 
Q 36.921875 8.296875 38.671875 10.375 
Q 40.4375 12.453125 41.359375 15.421875 
Q 42.28125 18.40625 42.28125 22.125 
" id="LiberationSans-36"/>
      </defs>
      <g style="fill:#262626;" transform="translate(25.5765625 370.646875)scale(0.1 -0.1)">
       <use xlink:href="#LiberationSans-32"/>
       <use x="55.615234375" xlink:href="#LiberationSans-30"/>
       <use x="111.23046875" xlink:href="#LiberationSans-31"/>
       <use x="166.845703125" xlink:href="#LiberationSans-36"/>
       <use x="222.4609375" xlink:href="#LiberationSans-2d"/>
       <use x="255.76171875" xlink:href="#LiberationSans-30"/>
       <use x="311.376953125" xlink:href="#LiberationSans-39"/>
       <use x="366.9921875" xlink:href="#LiberationSans-2d"/>
       <use x="400.29296875" xlink:href="#LiberationSans-32"/>
       <use x="455.908203125" xlink:href="#LiberationSans-39"/>
       <use x="511.5234375" xlink:href="#LiberationSans-20"/>
       <use x="539.306640625" xlink:href="#LiberationSans-32"/>
       <use x="594.921875" xlink:href="#LiberationSans-32"/>
       <use x="650.537109375" xlink:href="#LiberationSans-3a"/>
       <use x="678.3203125" xlink:href="#LiberationSans-34"/>
       <use x="733.935546875" xlink:href="#LiberationSans-34"/>
       <use x="789.55078125" xlink:href="#LiberationSans-3a"/>
       <use x="817.333984375" xlink:href="#LiberationSans-30"/>
       <use x="872.94921875" xlink:href="#LiberationSans-30"/>
      </g>
     </g>
    </g>
    <g id="xtick_2">
     <g id="line2d_4">
      <path clip-path="url(#p0861bd57be)" d="M 183.655828 356.4 
L 183.655828 39.6 
" style="fill:none;stroke:#ffffff;stroke-linecap:round;"/>
     </g>
     <g id="line2d_5"/>
     <g id="line2d_6"/>
     <g id="text_2">
      <!-- 2016-10-10 21:03:00 -->
      <defs>
       <path d="M 51.21875 19 
Q 51.21875 14.265625 49.671875 10.546875 
Q 48.140625 6.84375 45.1875 4.265625 
Q 42.234375 1.703125 37.859375 0.359375 
Q 33.5 -0.984375 27.875 -0.984375 
Q 21.484375 -0.984375 17.109375 0.609375 
Q 12.75 2.203125 9.90625 4.8125 
Q 7.078125 7.421875 5.65625 10.765625 
Q 4.25 14.109375 3.8125 17.671875 
L 12.890625 18.5 
Q 13.28125 15.765625 14.328125 13.515625 
Q 15.375 11.28125 17.1875 9.671875 
Q 19 8.0625 21.625 7.171875 
Q 24.265625 6.296875 27.875 6.296875 
Q 34.515625 6.296875 38.296875 9.5625 
Q 42.09375 12.84375 42.09375 19.28125 
Q 42.09375 23.09375 40.40625 25.40625 
Q 38.71875 27.734375 36.203125 29.03125 
Q 33.6875 30.328125 30.734375 30.765625 
Q 27.78125 31.203125 25.296875 31.203125 
L 20.3125 31.203125 
L 20.3125 38.8125 
L 25.09375 38.8125 
Q 27.59375 38.8125 30.265625 39.328125 
Q 32.953125 39.84375 35.171875 41.1875 
Q 37.40625 42.53125 38.84375 44.828125 
Q 40.28125 47.125 40.28125 50.6875 
Q 40.28125 56.203125 37.03125 59.390625 
Q 33.796875 62.59375 27.390625 62.59375 
Q 21.578125 62.59375 17.984375 59.609375 
Q 14.40625 56.640625 13.8125 51.21875 
L 4.984375 51.90625 
Q 5.515625 56.453125 7.46875 59.8125 
Q 9.421875 63.1875 12.421875 65.40625 
Q 15.4375 67.625 19.28125 68.71875 
Q 23.140625 69.828125 27.484375 69.828125 
Q 33.25 69.828125 37.390625 68.375 
Q 41.546875 66.9375 44.1875 64.46875 
Q 46.828125 62.015625 48.0625 58.6875 
Q 49.3125 55.375 49.3125 51.609375 
Q 49.3125 48.578125 48.484375 45.9375 
Q 47.65625 43.3125 45.890625 41.203125 
Q 44.140625 39.109375 41.421875 37.59375 
Q 38.71875 36.078125 34.90625 35.296875 
L 34.90625 35.109375 
Q 39.0625 34.671875 42.140625 33.21875 
Q 45.21875 31.78125 47.21875 29.625 
Q 49.21875 27.484375 50.21875 24.75 
Q 51.21875 22.015625 51.21875 19 
" id="LiberationSans-33"/>
      </defs>
      <g style="fill:#262626;" transform="translate(137.232390414 370.646875)scale(0.1 -0.1)">
       <use xlink:href="#LiberationSans-32"/>
       <use x="55.615234375" xlink:href="#LiberationSans-30"/>
       <use x="111.23046875" xlink:href="#LiberationSans-31"/>
       <use x="166.845703125" xlink:href="#LiberationSans-36"/>
       <use x="222.4609375" xlink:href="#LiberationSans-2d"/>
       <use x="255.76171875" xlink:href="#LiberationSans-31"/>
       <use x="311.376953125" xlink:href="#LiberationSans-30"/>
       <use x="366.9921875" xlink:href="#LiberationSans-2d"/>
       <use x="400.29296875" xlink:href="#LiberationSans-31"/>
       <use x="455.908203125" xlink:href="#LiberationSans-30"/>
       <use x="511.5234375" xlink:href="#LiberationSans-20"/>
       <use x="539.306640625" xlink:href="#LiberationSans-32"/>
       <use x="594.921875" xlink:href="#LiberationSans-31"/>
       <use x="650.537109375" xlink:href="#LiberationSans-3a"/>
       <use x="678.3203125" xlink:href="#LiberationSans-30"/>
       <use x="733.935546875" xlink:href="#LiberationSans-33"/>
       <use x="789.55078125" xlink:href="#LiberationSans-3a"/>
       <use x="817.333984375" xlink:href="#LiberationSans-30"/>
       <use x="872.94921875" xlink:href="#LiberationSans-30"/>
      </g>
     </g>
    </g>
    <g id="xtick_3">
     <g id="line2d_7">
      <path clip-path="url(#p0861bd57be)" d="M 295.311656 356.4 
L 295.311656 39.6 
" style="fill:none;stroke:#ffffff;stroke-linecap:round;"/>
     </g>
     <g id="line2d_8"/>
     <g id="line2d_9"/>
     <g id="text_3">
      <!-- 2016-10-11 23:08:00 -->
      <defs>
       <path d="M 51.265625 19.1875 
Q 51.265625 14.796875 49.875 11.109375 
Q 48.484375 7.421875 45.625 4.734375 
Q 42.78125 2.046875 38.328125 0.53125 
Q 33.890625 -0.984375 27.828125 -0.984375 
Q 21.78125 -0.984375 17.359375 0.53125 
Q 12.9375 2.046875 10.03125 4.703125 
Q 7.125 7.375 5.734375 11.0625 
Q 4.34375 14.75 4.34375 19.09375 
Q 4.34375 22.859375 5.484375 25.78125 
Q 6.640625 28.71875 8.5625 30.828125 
Q 10.5 32.953125 12.96875 34.25 
Q 15.4375 35.546875 18.0625 35.984375 
L 18.0625 36.1875 
Q 15.1875 36.859375 12.90625 38.375 
Q 10.640625 39.890625 9.09375 42.015625 
Q 7.5625 44.140625 6.75 46.71875 
Q 5.953125 49.3125 5.953125 52.203125 
Q 5.953125 55.8125 7.34375 59 
Q 8.734375 62.203125 11.46875 64.625 
Q 14.203125 67.046875 18.25 68.4375 
Q 22.3125 69.828125 27.640625 69.828125 
Q 33.25 69.828125 37.375 68.40625 
Q 41.5 67 44.203125 64.578125 
Q 46.921875 62.15625 48.234375 58.9375 
Q 49.5625 55.71875 49.5625 52.09375 
Q 49.5625 49.265625 48.75 46.671875 
Q 47.953125 44.09375 46.40625 41.96875 
Q 44.875 39.84375 42.59375 38.34375 
Q 40.328125 36.859375 37.359375 36.28125 
L 37.359375 36.078125 
Q 40.328125 35.59375 42.859375 34.296875 
Q 45.40625 33.015625 47.265625 30.890625 
Q 49.125 28.765625 50.1875 25.828125 
Q 51.265625 22.90625 51.265625 19.1875 
M 40.4375 51.609375 
Q 40.4375 54.203125 39.765625 56.34375 
Q 39.109375 58.5 37.59375 60.03125 
Q 36.078125 61.578125 33.640625 62.421875 
Q 31.203125 63.28125 27.640625 63.28125 
Q 24.171875 63.28125 21.78125 62.421875 
Q 19.390625 61.578125 17.84375 60.03125 
Q 16.3125 58.5 15.625 56.34375 
Q 14.9375 54.203125 14.9375 51.609375 
Q 14.9375 49.5625 15.46875 47.40625 
Q 16.015625 45.265625 17.421875 43.5 
Q 18.84375 41.75 21.328125 40.625 
Q 23.828125 39.5 27.734375 39.5 
Q 31.890625 39.5 34.40625 40.625 
Q 36.921875 41.75 38.25 43.5 
Q 39.59375 45.265625 40.015625 47.40625 
Q 40.4375 49.5625 40.4375 51.609375 
M 42.140625 20.015625 
Q 42.140625 22.515625 41.453125 24.828125 
Q 40.765625 27.15625 39.109375 28.9375 
Q 37.453125 30.71875 34.640625 31.8125 
Q 31.84375 32.90625 27.640625 32.90625 
Q 23.78125 32.90625 21.0625 31.8125 
Q 18.359375 30.71875 16.671875 28.90625 
Q 14.984375 27.09375 14.203125 24.71875 
Q 13.421875 22.359375 13.421875 19.828125 
Q 13.421875 16.65625 14.203125 14.03125 
Q 14.984375 11.421875 16.6875 9.546875 
Q 18.40625 7.671875 21.1875 6.640625 
Q 23.96875 5.609375 27.9375 5.609375 
Q 31.9375 5.609375 34.671875 6.640625 
Q 37.40625 7.671875 39.0625 9.546875 
Q 40.71875 11.421875 41.421875 14.078125 
Q 42.140625 16.75 42.140625 20.015625 
" id="LiberationSans-38"/>
      </defs>
      <g style="fill:#262626;" transform="translate(248.888218328 370.646875)scale(0.1 -0.1)">
       <use xlink:href="#LiberationSans-32"/>
       <use x="55.615234375" xlink:href="#LiberationSans-30"/>
       <use x="111.23046875" xlink:href="#LiberationSans-31"/>
       <use x="166.845703125" xlink:href="#LiberationSans-36"/>
       <use x="222.4609375" xlink:href="#LiberationSans-2d"/>
       <use x="255.76171875" xlink:href="#LiberationSans-31"/>
       <use x="311.376953125" xlink:href="#LiberationSans-30"/>
       <use x="366.9921875" xlink:href="#LiberationSans-2d"/>
       <use x="400.29296875" xlink:href="#LiberationSans-31"/>
       <use x="455.908203125" xlink:href="#LiberationSans-31"/>
       <use x="511.5234375" xlink:href="#LiberationSans-20"/>
       <use x="539.306640625" xlink:href="#LiberationSans-32"/>
       <use x="594.921875" xlink:href="#LiberationSans-33"/>
       <use x="650.537109375" xlink:href="#LiberationSans-3a"/>
       <use x="678.3203125" xlink:href="#LiberationSans-30"/>
       <use x="733.935546875" xlink:href="#LiberationSans-38"/>
       <use x="789.55078125" xlink:href="#LiberationSans-3a"/>
       <use x="817.333984375" xlink:href="#LiberationSans-30"/>
       <use x="872.94921875" xlink:href="#LiberationSans-30"/>
      </g>
     </g>
    </g>
    <g id="xtick_4">
     <g id="line2d_10">
      <path clip-path="url(#p0861bd57be)" d="M 406.967484 356.4 
L 406.967484 39.6 
" style="fill:none;stroke:#ffffff;stroke-linecap:round;"/>
     </g>
     <g id="line2d_11"/>
     <g id="line2d_12"/>
     <g id="text_4">
      <!-- 2016-10-13 10:57:00 -->
      <defs>
       <path d="M 51.421875 22.40625 
Q 51.421875 17.234375 49.859375 12.9375 
Q 48.296875 8.640625 45.21875 5.53125 
Q 42.140625 2.4375 37.578125 0.71875 
Q 33.015625 -0.984375 27 -0.984375 
Q 21.578125 -0.984375 17.546875 0.28125 
Q 13.53125 1.5625 10.734375 3.78125 
Q 7.953125 6 6.3125 8.984375 
Q 4.6875 11.96875 4 15.375 
L 12.890625 16.40625 
Q 13.421875 14.453125 14.390625 12.625 
Q 15.375 10.796875 17.0625 9.34375 
Q 18.75 7.90625 21.21875 7.046875 
Q 23.6875 6.203125 27.203125 6.203125 
Q 30.609375 6.203125 33.390625 7.25 
Q 36.1875 8.296875 38.15625 10.34375 
Q 40.140625 12.40625 41.203125 15.375 
Q 42.28125 18.359375 42.28125 22.21875 
Q 42.28125 25.390625 41.25 28.046875 
Q 40.234375 30.71875 38.328125 32.640625 
Q 36.421875 34.578125 33.65625 35.640625 
Q 30.90625 36.71875 27.390625 36.71875 
Q 25.203125 36.71875 23.34375 36.328125 
Q 21.484375 35.9375 19.890625 35.25 
Q 18.3125 34.578125 17.015625 33.671875 
Q 15.71875 32.765625 14.59375 31.78125 
L 6 31.78125 
L 8.296875 68.796875 
L 47.40625 68.796875 
L 47.40625 61.328125 
L 16.3125 61.328125 
L 14.984375 39.5 
Q 17.328125 41.3125 20.84375 42.59375 
Q 24.359375 43.890625 29.203125 43.890625 
Q 34.328125 43.890625 38.421875 42.328125 
Q 42.53125 40.765625 45.40625 37.90625 
Q 48.296875 35.0625 49.859375 31.109375 
Q 51.421875 27.15625 51.421875 22.40625 
" id="LiberationSans-35"/>
       <path d="M 50.59375 61.671875 
Q 45.40625 53.765625 41.0625 46.453125 
Q 36.71875 39.15625 33.59375 31.75 
Q 30.46875 24.359375 28.734375 16.578125 
Q 27 8.796875 27 0 
L 17.828125 0 
Q 17.828125 8.25 19.78125 16.1875 
Q 21.734375 24.125 25.046875 31.765625 
Q 28.375 39.40625 32.765625 46.78125 
Q 37.15625 54.15625 42.09375 61.328125 
L 5.125 61.328125 
L 5.125 68.796875 
L 50.59375 68.796875 
z
" id="LiberationSans-37"/>
      </defs>
      <g style="fill:#262626;" transform="translate(360.544046242 370.646875)scale(0.1 -0.1)">
       <use xlink:href="#LiberationSans-32"/>
       <use x="55.615234375" xlink:href="#LiberationSans-30"/>
       <use x="111.23046875" xlink:href="#LiberationSans-31"/>
       <use x="166.845703125" xlink:href="#LiberationSans-36"/>
       <use x="222.4609375" xlink:href="#LiberationSans-2d"/>
       <use x="255.76171875" xlink:href="#LiberationSans-31"/>
       <use x="311.376953125" xlink:href="#LiberationSans-30"/>
       <use x="366.9921875" xlink:href="#LiberationSans-2d"/>
       <use x="400.29296875" xlink:href="#LiberationSans-31"/>
       <use x="455.908203125" xlink:href="#LiberationSans-33"/>
       <use x="511.5234375" xlink:href="#LiberationSans-20"/>
       <use x="539.306640625" xlink:href="#LiberationSans-31"/>
       <use x="594.921875" xlink:href="#LiberationSans-30"/>
       <use x="650.537109375" xlink:href="#LiberationSans-3a"/>
       <use x="678.3203125" xlink:href="#LiberationSans-35"/>
       <use x="733.935546875" xlink:href="#LiberationSans-37"/>
       <use x="789.55078125" xlink:href="#LiberationSans-3a"/>
       <use x="817.333984375" xlink:href="#LiberationSans-30"/>
       <use x="872.94921875" xlink:href="#LiberationSans-30"/>
      </g>
     </g>
    </g>
    <g id="text_5">
     <!-- time -->
     <defs>
      <path d="M 13.484375 24.5625 
Q 13.484375 20.40625 14.328125 16.90625 
Q 15.1875 13.421875 16.96875 10.90625 
Q 18.75 8.40625 21.53125 7 
Q 24.3125 5.609375 28.21875 5.609375 
Q 33.9375 5.609375 37.375 7.90625 
Q 40.828125 10.203125 42.046875 13.71875 
L 49.75 11.53125 
Q 48.921875 9.328125 47.4375 7.109375 
Q 45.953125 4.890625 43.453125 3.09375 
Q 40.96875 1.3125 37.234375 0.15625 
Q 33.5 -0.984375 28.21875 -0.984375 
Q 16.5 -0.984375 10.375 6 
Q 4.25 12.984375 4.25 26.765625 
Q 4.25 34.1875 6.09375 39.328125 
Q 7.953125 44.484375 11.171875 47.703125 
Q 14.40625 50.921875 18.703125 52.359375 
Q 23 53.8125 27.875 53.8125 
Q 34.515625 53.8125 38.984375 51.65625 
Q 43.453125 49.515625 46.15625 45.71875 
Q 48.875 41.9375 50.015625 36.8125 
Q 51.171875 31.6875 51.171875 25.734375 
L 51.171875 24.5625 
z
M 42.09375 31.296875 
Q 41.359375 39.65625 37.84375 43.484375 
Q 34.328125 47.3125 27.734375 47.3125 
Q 25.53125 47.3125 23.109375 46.609375 
Q 20.703125 45.90625 18.65625 44.09375 
Q 16.609375 42.28125 15.1875 39.171875 
Q 13.765625 36.078125 13.578125 31.296875 
z
" id="LiberationSans-65"/>
      <path d="M 6.6875 64.0625 
L 6.6875 72.46875 
L 15.484375 72.46875 
L 15.484375 64.0625 
z
M 6.6875 0 
L 6.6875 52.828125 
L 15.484375 52.828125 
L 15.484375 0 
z
" id="LiberationSans-69"/>
      <path d="M 27.046875 0.390625 
Q 25.046875 -0.140625 22.96875 -0.453125 
Q 20.90625 -0.78125 18.171875 -0.78125 
Q 7.625 -0.78125 7.625 11.1875 
L 7.625 46.4375 
L 1.515625 46.4375 
L 1.515625 52.828125 
L 7.953125 52.828125 
L 10.546875 64.65625 
L 16.40625 64.65625 
L 16.40625 52.828125 
L 26.171875 52.828125 
L 26.171875 46.4375 
L 16.40625 46.4375 
L 16.40625 13.09375 
Q 16.40625 9.28125 17.640625 7.734375 
Q 18.890625 6.203125 21.96875 6.203125 
Q 23.25 6.203125 24.4375 6.390625 
Q 25.640625 6.59375 27.046875 6.890625 
z
" id="LiberationSans-74"/>
      <path d="M 37.5 0 
L 37.5 33.5 
Q 37.5 37.359375 37.015625 39.9375 
Q 36.53125 42.53125 35.375 44.109375 
Q 34.234375 45.703125 32.375 46.359375 
Q 30.515625 47.015625 27.828125 47.015625 
Q 25.046875 47.015625 22.796875 45.921875 
Q 20.5625 44.828125 18.96875 42.75 
Q 17.390625 40.671875 16.53125 37.625 
Q 15.671875 34.578125 15.671875 30.609375 
L 15.671875 0 
L 6.9375 0 
L 6.9375 41.546875 
Q 6.9375 43.21875 6.90625 45.046875 
Q 6.890625 46.875 6.828125 48.5 
Q 6.78125 50.140625 6.734375 51.3125 
Q 6.6875 52.484375 6.640625 52.828125 
L 14.9375 52.828125 
Q 14.984375 52.59375 15.03125 51.515625 
Q 15.09375 50.4375 15.15625 49.046875 
Q 15.234375 47.65625 15.28125 46.21875 
Q 15.328125 44.78125 15.328125 43.796875 
L 15.484375 43.796875 
Q 16.65625 46.09375 18.015625 47.953125 
Q 19.390625 49.8125 21.21875 51.09375 
Q 23.046875 52.390625 25.40625 53.09375 
Q 27.78125 53.8125 30.90625 53.8125 
Q 36.921875 53.8125 40.40625 51.421875 
Q 43.890625 49.03125 45.265625 43.796875 
L 45.40625 43.796875 
Q 46.578125 46.09375 48.046875 47.953125 
Q 49.515625 49.8125 51.46875 51.09375 
Q 53.421875 52.390625 55.859375 53.09375 
Q 58.296875 53.8125 61.421875 53.8125 
Q 65.4375 53.8125 68.328125 52.734375 
Q 71.234375 51.65625 73.09375 49.40625 
Q 74.953125 47.171875 75.828125 43.625 
Q 76.703125 40.09375 76.703125 35.203125 
L 76.703125 0 
L 68.015625 0 
L 68.015625 33.5 
Q 68.015625 37.359375 67.53125 39.9375 
Q 67.046875 42.53125 65.890625 44.109375 
Q 64.75 45.703125 62.890625 46.359375 
Q 61.03125 47.015625 58.34375 47.015625 
Q 55.5625 47.015625 53.3125 45.96875 
Q 51.078125 44.921875 49.484375 42.875 
Q 47.90625 40.828125 47.046875 37.75 
Q 46.1875 34.671875 46.1875 30.609375 
L 46.1875 0 
z
" id="LiberationSans-6d"/>
     </defs>
     <g style="fill:#262626;" transform="translate(284.81015625 385.6934375)scale(0.11 -0.11)">
      <use xlink:href="#LiberationSans-74"/>
      <use x="27.783203125" xlink:href="#LiberationSans-69"/>
      <use x="50.0" xlink:href="#LiberationSans-6d"/>
      <use x="133.30078125" xlink:href="#LiberationSans-65"/>
     </g>
    </g>
   </g>
   <g id="matplotlib.axis_2">
    <g id="ytick_1">
     <g id="line2d_13">
      <path clip-path="url(#p0861bd57be)" d="M 72 356.4 
L 518.4 356.4 
" style="fill:none;stroke:#ffffff;stroke-linecap:round;"/>
     </g>
     <g id="line2d_14"/>
     <g id="line2d_15"/>
     <g id="text_6">
      <!-- 107.0 -->
      <defs>
       <path d="M 9.125 0 
L 9.125 10.6875 
L 18.65625 10.6875 
L 18.65625 0 
z
" id="LiberationSans-2e"/>
      </defs>
      <g style="fill:#262626;" transform="translate(39.978125 358.9859375)scale(0.1 -0.1)">
       <use xlink:href="#LiberationSans-31"/>
       <use x="55.615234375" xlink:href="#LiberationSans-30"/>
       <use x="111.23046875" xlink:href="#LiberationSans-37"/>
       <use x="166.845703125" xlink:href="#LiberationSans-2e"/>
       <use x="194.62890625" xlink:href="#LiberationSans-30"/>
      </g>
     </g>
    </g>
    <g id="ytick_2">
     <g id="line2d_16">
      <path clip-path="url(#p0861bd57be)" d="M 72 293.04 
L 518.4 293.04 
" style="fill:none;stroke:#ffffff;stroke-linecap:round;"/>
     </g>
     <g id="line2d_17"/>
     <g id="line2d_18"/>
     <g id="text_7">
      <!-- 107.5 -->
      <g style="fill:#262626;" transform="translate(39.978125 295.6259375)scale(0.1 -0.1)">
       <use xlink:href="#LiberationSans-31"/>
       <use x="55.615234375" xlink:href="#LiberationSans-30"/>
       <use x="111.23046875" xlink:href="#LiberationSans-37"/>
       <use x="166.845703125" xlink:href="#LiberationSans-2e"/>
       <use x="194.62890625" xlink:href="#LiberationSans-35"/>
      </g>
     </g>
    </g>
    <g id="ytick_3">
     <g id="line2d_19">
      <path clip-path="url(#p0861bd57be)" d="M 72 229.68 
L 518.4 229.68 
" style="fill:none;stroke:#ffffff;stroke-linecap:round;"/>
     </g>
     <g id="line2d_20"/>
     <g id="line2d_21"/>
     <g id="text_8">
      <!-- 108.0 -->
      <g style="fill:#262626;" transform="translate(39.978125 232.2659375)scale(0.1 -0.1)">
       <use xlink:href="#LiberationSans-31"/>
       <use x="55.615234375" xlink:href="#LiberationSans-30"/>
       <use x="111.23046875" xlink:href="#LiberationSans-38"/>
       <use x="166.845703125" xlink:href="#LiberationSans-2e"/>
       <use x="194.62890625" xlink:href="#LiberationSans-30"/>
      </g>
     </g>
    </g>
    <g id="ytick_4">
     <g id="line2d_22">
      <path clip-path="url(#p0861bd57be)" d="M 72 166.32 
L 518.4 166.32 
" style="fill:none;stroke:#ffffff;stroke-linecap:round;"/>
     </g>
     <g id="line2d_23"/>
     <g id="line2d_24"/>
     <g id="text_9">
      <!-- 108.5 -->
      <g style="fill:#262626;" transform="translate(39.978125 168.9059375)scale(0.1 -0.1)">
       <use xlink:href="#LiberationSans-31"/>
       <use x="55.615234375" xlink:href="#LiberationSans-30"/>
       <use x="111.23046875" xlink:href="#LiberationSans-38"/>
       <use x="166.845703125" xlink:href="#LiberationSans-2e"/>
       <use x="194.62890625" xlink:href="#LiberationSans-35"/>
      </g>
     </g>
    </g>
    <g id="ytick_5">
     <g id="line2d_25">
      <path clip-path="url(#p0861bd57be)" d="M 72 102.96 
L 518.4 102.96 
" style="fill:none;stroke:#ffffff;stroke-linecap:round;"/>
     </g>
     <g id="line2d_26"/>
     <g id="line2d_27"/>
     <g id="text_10">
      <!-- 109.0 -->
      <g style="fill:#262626;" transform="translate(39.978125 105.5459375)scale(0.1 -0.1)">
       <use xlink:href="#LiberationSans-31"/>
       <use x="55.615234375" xlink:href="#LiberationSans-30"/>
       <use x="111.23046875" xlink:href="#LiberationSans-39"/>
       <use x="166.845703125" xlink:href="#LiberationSans-2e"/>
       <use x="194.62890625" xlink:href="#LiberationSans-30"/>
      </g>
     </g>
    </g>
    <g id="ytick_6">
     <g id="line2d_28">
      <path clip-path="url(#p0861bd57be)" d="M 72 39.6 
L 518.4 39.6 
" style="fill:none;stroke:#ffffff;stroke-linecap:round;"/>
     </g>
     <g id="line2d_29"/>
     <g id="line2d_30"/>
     <g id="text_11">
      <!-- 109.5 -->
      <g style="fill:#262626;" transform="translate(39.978125 42.1859375)scale(0.1 -0.1)">
       <use xlink:href="#LiberationSans-31"/>
       <use x="55.615234375" xlink:href="#LiberationSans-30"/>
       <use x="111.23046875" xlink:href="#LiberationSans-39"/>
       <use x="166.845703125" xlink:href="#LiberationSans-2e"/>
       <use x="194.62890625" xlink:href="#LiberationSans-35"/>
      </g>
     </g>
    </g>
   </g>
   <g id="line2d_31">
    <path clip-path="url(#p0861bd57be)" d="M 72 263.422865 
L 72.223312 263.234027 
L 72.446623 256.898027 
L 72.669935 268.063156 
L 72.893247 268.302827 
L 73.116558 268.302827 
L 73.33987 264.929736 
L 73.786493 277.601736 
L 74.009805 277.601736 
L 74.233117 280.974827 
L 74.456428 293.646827 
L 74.67974 287.310827 
L 74.903052 287.310827 
L 75.126363 285.803956 
L 75.349675 280.974827 
L 75.572986 292.550137 
L 75.796298 289.177047 
L 76.01961 292.550137 
L 76.466233 284.347918 
L 76.689545 273.131956 
L 76.912856 277.601736 
L 77.136168 272.721774 
L 77.35948 259.879264 
L 77.582791 269.588355 
L 77.806103 264.519555 
L 78.029415 269.178173 
L 78.252726 277.380393 
L 78.476038 271.044393 
L 78.922661 279.297446 
L 79.145973 274.417484 
L 79.369285 283.937736 
L 79.592596 284.126574 
L 79.815908 279.057774 
L 80.03922 288.766865 
L 80.262531 288.766865 
L 80.485843 293.646827 
L 80.932466 283.937736 
L 81.155778 283.937736 
L 81.37909 293.646827 
L 81.602401 297.019918 
L 81.825713 305.222137 
L 82.049025 324.640319 
L 82.272336 198.090829 
L 82.495648 193.2617 
L 82.718959 194.717738 
L 82.942271 190.077448 
L 83.165583 201.293409 
L 83.388894 194.957409 
L 83.612206 211.0025 
L 83.835518 204.426829 
L 84.282141 204.426829 
L 84.505453 214.375591 
L 84.728764 217.3385 
L 84.952076 209.085448 
L 85.175388 209.325119 
L 85.398699 194.786899 
L 85.622011 199.616028 
L 85.845323 197.920319 
L 86.068634 204.256319 
L 86.515258 186.704357 
L 86.738569 188.211228 
L 86.961881 194.547228 
L 87.185193 191.413808 
L 87.408504 185.077808 
L 87.855128 185.077808 
L 88.078439 194.786899 
L 88.301751 181.875228 
L 88.525063 199.616028 
L 88.748374 184.838137 
L 88.971686 184.838137 
L 89.194997 180.009008 
L 89.418309 184.838137 
L 89.641621 185.077808 
L 89.864932 183.382099 
L 90.088244 189.718099 
L 90.311556 178.502137 
L 90.534867 193.040357 
L 90.758179 183.382099 
L 90.981491 189.718099 
L 91.204802 178.502137 
L 91.428114 177.046099 
L 91.651426 186.704357 
L 91.874737 181.875228 
L 92.098049 180.368357 
L 92.544672 190.077448 
L 92.767984 180.368357 
L 92.991296 191.584319 
L 93.214607 180.179519 
L 93.661231 199.786538 
L 93.884542 199.5977 
L 94.107854 188.381738 
L 94.554477 199.5977 
L 94.777789 194.717738 
L 95.001101 194.717738 
L 95.224412 183.552609 
L 95.671036 209.495629 
L 95.894347 209.306791 
L 96.117659 204.426829 
L 96.34097 204.6665 
L 96.564282 209.495629 
L 96.787594 207.629409 
L 97.010905 201.293409 
L 97.234217 201.293409 
L 97.457529 199.786538 
L 97.68084 206.122538 
L 98.127464 206.122538 
L 98.350775 204.6665 
L 98.797399 207.629409 
L 99.02071 196.413448 
L 99.244022 194.547228 
L 99.467334 199.376357 
L 99.690645 209.325119 
L 99.913957 210.781157 
L 100.137269 210.781157 
L 100.36058 199.616028 
L 100.583892 204.445157 
L 101.253827 204.445157 
L 101.477139 215.661119 
L 101.923762 215.661119 
L 102.147074 204.445157 
L 102.370385 209.325119 
L 102.593697 209.085448 
L 102.817009 213.965409 
L 103.04032 202.749448 
L 103.263632 202.749448 
L 103.486943 213.965409 
L 103.710255 217.3385 
L 103.933567 204.256319 
L 104.38019 214.154248 
L 104.603502 209.085448 
L 104.826813 209.325119 
L 105.050125 209.325119 
L 105.273437 215.661119 
L 105.496748 215.661119 
L 105.72006 220.490248 
L 105.943372 215.661119 
L 106.166683 220.130899 
L 106.389995 229.618647 
L 106.613307 228.162608 
L 106.836618 229.618647 
L 107.05993 228.162608 
L 107.283242 220.319737 
L 107.506553 220.319737 
L 107.729865 229.789157 
L 107.953177 223.453157 
L 108.176488 213.794899 
L 108.3998 220.130899 
L 108.623112 232.991737 
L 108.846423 234.498608 
L 109.069735 237.871699 
L 109.293047 232.991737 
L 109.516358 237.871699 
L 109.73967 230.028828 
L 109.962981 230.028828 
L 110.186293 220.319737 
L 110.856228 220.319737 
L 111.07954 220.130899 
L 111.302851 226.655737 
L 111.526163 221.826608 
L 111.749475 226.655737 
L 111.972786 226.655737 
L 112.196098 221.997119 
L 112.41941 221.997119 
L 113.312656 202.749448 
L 113.535968 204.256319 
L 113.982591 194.786899 
L 114.205903 194.786899 
L 114.652526 185.077808 
L 114.875838 194.786899 
L 115.09915 180.009008 
L 115.322461 180.009008 
L 115.545773 175.129047 
L 115.769085 185.077808 
L 115.992396 185.077808 
L 116.215708 181.704718 
L 116.43902 181.704718 
L 116.662331 170.488756 
L 116.885643 167.115665 
L 117.108954 147.697484 
L 117.332266 167.115665 
L 117.555578 171.995627 
L 117.778889 167.115665 
L 118.002201 171.995627 
L 118.225513 165.659627 
L 118.448824 176.824756 
L 118.672136 170.488756 
L 118.895448 160.590827 
L 119.565383 175.368718 
L 119.788694 175.368718 
L 120.012006 170.299918 
L 120.235318 175.368718 
L 120.458629 175.368718 
L 120.681941 170.488756 
L 120.905253 181.704718 
L 121.128564 175.368718 
L 121.351876 181.704718 
L 121.798499 170.299918 
L 122.021811 170.488756 
L 122.245123 165.659627 
L 122.468434 170.488756 
L 122.691746 165.419956 
L 122.915058 168.793047 
L 123.138369 181.875228 
L 123.361681 177.046099 
L 123.584992 177.046099 
L 123.808304 165.830137 
L 124.031616 181.875228 
L 124.254927 165.830137 
L 124.478239 180.368357 
L 124.701551 180.368357 
L 124.924862 181.875228 
L 125.148174 181.875228 
L 125.371486 183.382099 
L 125.594797 177.046099 
L 125.818109 183.382099 
L 126.041421 183.382099 
L 126.264732 194.547228 
L 126.488044 194.547228 
L 126.711356 189.718099 
L 126.934667 201.122899 
L 127.381291 189.906937 
L 127.604602 189.718099 
L 128.051226 201.122899 
L 128.274537 196.242937 
L 128.497849 208.914937 
L 128.721161 204.085808 
L 128.944472 207.458899 
L 129.391096 196.242937 
L 129.614407 207.458899 
L 129.837719 196.242937 
L 130.061031 207.458899 
L 130.284342 212.288028 
L 130.507654 191.413808 
L 130.954277 191.413808 
L 131.177589 196.242937 
L 131.4009 185.077808 
L 131.624212 194.786899 
L 131.847524 191.413808 
L 132.070835 168.793047 
L 132.294147 53.073005 
L 132.517459 250.185223 
L 132.74077 238.38857 
L 132.964082 238.950934 
L 133.187394 242.494535 
L 133.410705 271.451296 
L 134.08064 216.791186 
L 134.303952 236.158535 
L 134.527264 236.158535 
L 134.750575 229.652024 
L 135.197199 250.577077 
L 135.643822 243.830895 
L 136.090445 226.278934 
L 136.313757 231.158895 
L 136.76038 213.196752 
L 136.983692 185.986533 
L 137.207004 211.740714 
L 137.653627 192.322533 
L 137.876938 200.114571 
L 138.10025 188.949442 
L 138.323562 204.994533 
L 138.546873 193.778571 
L 138.993497 185.576351 
L 139.216808 176.106931 
L 139.663432 185.576351 
L 140.110055 175.69675 
L 140.333367 185.405841 
L 140.556678 172.323659 
L 140.77999 177.152788 
L 141.003302 170.816788 
L 141.226613 186.861879 
L 141.449925 185.405841 
L 141.673237 196.57097 
L 141.896548 196.810641 
L 142.11986 199.77355 
L 142.343172 205.888207 
L 142.566483 171.931806 
L 142.789795 165.595806 
L 143.013107 184.843477 
L 143.236418 192.875186 
L 143.45973 223.287986 
L 143.906353 202.584277 
L 144.129665 194.552568 
L 144.352976 191.179477 
L 144.576288 199.381696 
L 144.7996 186.709696 
L 145.022911 188.216568 
L 145.246223 181.880568 
L 145.692846 196.418787 
L 145.916158 181.880568 
L 146.13947 194.552568 
L 146.362781 188.216568 
L 146.809405 188.216568 
L 147.032716 189.672606 
L 147.256028 168.968896 
L 147.47934 188.387078 
L 147.702651 189.893949 
L 147.925963 189.893949 
L 148.149275 194.723078 
L 148.372586 188.387078 
L 148.595898 173.848858 
L 148.81921 178.677987 
L 149.265833 201.229588 
L 149.489145 186.880207 
L 149.712456 182.051078 
L 149.935768 181.811407 
L 150.15908 181.811407 
L 150.382391 176.982278 
L 150.605703 186.691369 
L 150.829015 175.475407 
L 151.052326 180.355369 
L 151.275638 169.139407 
L 151.945573 169.139407 
L 152.168884 159.481149 
L 152.615508 169.139407 
L 152.838819 159.481149 
L 153.062131 175.475407 
L 153.285443 157.974278 
L 153.508754 172.512498 
L 153.732066 159.651659 
L 153.955378 165.987659 
L 154.178689 167.443698 
L 154.402001 161.107698 
L 154.625313 161.107698 
L 154.848624 167.443698 
L 155.295248 151.808788 
L 155.518559 151.808788 
L 155.965183 156.278569 
L 156.188494 149.942569 
L 156.411806 154.771698 
L 156.635118 148.435698 
L 156.858429 153.315659 
L 157.081741 148.435698 
L 157.305053 153.315659 
L 157.528364 143.606569 
L 157.751676 146.979659 
L 157.974987 142.099698 
L 158.198299 149.942569 
L 158.421611 142.099698 
L 158.868234 159.651659 
L 159.091546 154.771698 
L 159.314857 154.771698 
L 159.538169 161.107698 
L 159.761481 162.614569 
L 159.984792 167.683369 
L 160.208104 156.278569 
L 160.431416 167.443698 
L 160.654727 165.987659 
L 160.878039 167.443698 
L 161.101351 170.816788 
L 161.324662 179.069841 
L 161.547974 193.60806 
L 161.771286 188.778931 
L 161.994597 203.317151 
L 162.441221 209.823661 
L 162.887844 203.317151 
L 163.111156 204.824022 
L 163.334467 188.778931 
L 163.557779 209.653151 
L 163.781091 214.533113 
L 164.004402 209.653151 
L 164.227714 209.653151 
L 164.451026 196.57097 
L 164.897649 206.28006 
L 165.12096 199.94406 
L 165.567584 220.869113 
L 165.790895 215.989151 
L 166.014207 219.362242 
L 166.237519 219.362242 
L 166.46083 214.533113 
L 166.684142 217.855371 
L 166.907454 224.191371 
L 167.354077 195.525113 
L 167.577389 201.861113 
L 167.8007 195.525113 
L 168.024012 185.816022 
L 168.247324 185.816022 
L 168.470635 195.525113 
L 168.693947 200.114571 
L 168.917259 200.114571 
L 169.14057 202.031623 
L 169.363882 195.695623 
L 169.587194 181.106571 
L 170.033817 193.778571 
L 170.257129 187.442571 
L 170.48044 185.986533 
L 170.703752 185.986533 
L 170.927064 187.442571 
L 171.150375 198.658533 
L 171.373687 181.106571 
L 171.596998 174.411222 
L 171.82031 174.411222 
L 172.043622 179.240351 
L 172.266933 193.778571 
L 172.490245 177.784313 
L 172.713557 187.442571 
L 173.16018 166.379513 
L 173.383492 171.208642 
L 173.606803 160.043513 
L 173.830115 171.208642 
L 174.053427 164.872642 
L 174.276738 166.379513 
L 174.50005 166.550023 
L 174.946673 142.473223 
L 175.169985 160.214023 
L 175.393297 165.043152 
L 175.616608 160.214023 
L 176.063232 160.214023 
L 176.286543 155.334061 
L 176.733167 136.137223 
L 176.956478 148.998061 
L 177.17979 150.504933 
L 177.626413 140.795842 
L 177.849725 140.795842 
L 178.073037 129.630713 
L 178.51966 140.795842 
L 178.742971 147.131842 
L 178.966283 145.624971 
L 179.189595 139.288971 
L 179.636218 139.288971 
L 179.85953 134.459842 
L 180.082841 132.952971 
L 180.306153 132.952971 
L 180.529465 127.884171 
L 180.752776 132.764133 
L 180.976088 132.952971 
L 181.1994 134.459842 
L 181.422711 128.123842 
L 181.646023 129.630713 
L 181.869335 135.966713 
L 182.092646 129.630713 
L 182.315958 140.795842 
L 182.53927 140.795842 
L 182.762581 196.57097 
L 182.985893 151.61995 
L 183.655828 200.114571 
L 183.87914 200.114571 
L 184.102451 208.367623 
L 184.549075 193.778571 
L 184.772386 190.456313 
L 184.995698 188.949442 
L 185.21901 198.658533 
L 185.442321 185.576351 
L 185.665633 188.949442 
L 185.888944 195.285442 
L 186.112256 193.778571 
L 186.335568 182.613442 
L 186.558879 206.860752 
L 186.782191 193.999914 
L 187.228814 185.986533 
L 187.452126 188.949442 
L 187.675438 188.949442 
L 187.898749 192.322533 
L 188.122061 182.613442 
L 188.345373 177.784313 
L 188.568684 188.949442 
L 188.791996 193.778571 
L 189.461931 180.747222 
L 189.685243 190.456313 
L 189.908554 190.456313 
L 190.131866 184.120313 
L 190.355178 188.949442 
L 190.578489 187.442571 
L 190.801801 200.524752 
L 191.025113 200.506424 
L 191.695048 171.618823 
L 191.918359 176.447952 
L 192.141671 176.447952 
L 192.364982 182.783952 
L 192.588294 176.447952 
L 192.811606 179.410861 
L 193.034917 176.447952 
L 193.258229 185.746861 
L 193.704852 193.999914 
L 193.928164 184.461334 
L 194.151476 184.461334 
L 194.374787 179.632205 
L 194.821411 194.170424 
L 195.044722 191.037005 
L 195.268034 192.493043 
L 195.491346 200.335914 
L 195.714657 195.455952 
L 195.937969 195.695623 
L 196.384592 206.860752 
L 196.607904 206.860752 
L 196.831216 210.233843 
L 197.054527 211.740714 
L 197.277839 206.860752 
L 197.501151 208.367623 
L 197.724462 213.196752 
L 197.947774 213.196752 
L 198.171086 214.703623 
L 198.617709 229.241843 
L 198.841021 229.481514 
L 199.064332 227.564461 
L 199.287644 241.932171 
L 199.734267 229.071333 
L 199.957579 235.407333 
L 200.18089 229.071333 
L 200.404202 229.071333 
L 200.627514 233.900461 
L 200.850825 227.564461 
L 201.074137 232.444423 
L 201.297449 240.236461 
L 201.744072 229.071333 
L 201.967384 230.527371 
L 202.190695 227.393951 
L 202.414007 235.407333 
L 202.637319 237.103042 
L 202.86063 221.228461 
L 203.083942 233.900461 
L 203.307254 222.735333 
L 203.530565 227.564461 
L 203.753877 222.735333 
L 203.977189 229.071333 
L 204.2005 229.071333 
L 204.423812 190.626823 
L 204.647124 192.493043 
L 204.870435 192.493043 
L 205.093747 176.259114 
L 205.317059 184.290823 
L 205.54037 184.290823 
L 205.763682 173.074861 
L 205.986993 176.447952 
L 206.210305 184.290823 
L 206.433617 184.290823 
L 206.88024 173.074861 
L 207.103552 185.746861 
L 207.326863 181.106571 
L 207.773487 190.626823 
L 208.22011 190.626823 
L 208.443422 202.031623 
L 208.666733 192.322533 
L 208.890045 190.815661 
L 209.113357 192.322533 
L 209.336668 197.151661 
L 209.783292 197.151661 
L 210.006603 190.815661 
L 210.229915 188.949442 
L 210.453227 190.626823 
L 210.676538 203.487661 
L 210.89985 192.322533 
L 211.123162 203.487661 
L 211.346473 198.658533 
L 211.569785 198.658533 
L 211.793097 202.031623 
L 212.016408 197.151661 
L 212.23972 204.994533 
L 212.463032 203.487661 
L 212.909655 203.487661 
L 213.132966 209.823661 
L 213.356278 209.823661 
L 213.57959 210.063333 
L 214.026213 224.191371 
L 214.249525 225.698242 
L 214.472836 214.533113 
L 214.696148 219.362242 
L 214.91946 217.855371 
L 215.142771 217.855371 
L 215.366083 214.533113 
L 215.589395 219.362242 
L 216.036018 203.317151 
L 216.25933 196.57097 
L 216.482641 201.861113 
L 216.929265 225.698242 
L 217.152576 201.450931 
L 217.375888 215.989151 
L 217.5992 204.824022 
L 218.045823 233.900461 
L 218.269135 235.596171 
L 218.492446 238.609913 
L 218.93907 238.609913 
L 219.162381 232.273913 
L 219.385693 243.439042 
L 219.609005 230.35686 
L 219.832316 240.065951 
L 220.055628 228.900822 
L 220.502251 238.609913 
L 220.725563 232.273913 
L 220.948874 222.564822 
L 221.172186 224.02086 
L 221.395498 230.35686 
L 221.618809 224.02086 
L 221.842121 228.900822 
L 222.065433 230.35686 
L 222.288744 224.02086 
L 222.512056 233.729951 
L 222.735368 228.900822 
L 222.958679 243.439042 
L 223.181991 238.609913 
L 223.405303 238.609913 
L 223.628614 241.932171 
L 223.851926 225.937913 
L 224.075238 220.869113 
L 224.298549 235.407333 
L 224.745173 225.698242 
L 224.968484 230.767042 
L 225.415108 221.057951 
L 225.638419 230.527371 
L 226.085043 230.527371 
L 226.308354 225.698242 
L 226.531666 225.937913 
L 226.754977 220.869113 
L 226.978289 230.767042 
L 227.201601 225.698242 
L 227.424912 214.533113 
L 227.648224 233.900461 
L 227.871536 229.071333 
L 228.094847 227.564461 
L 228.318159 237.273552 
L 228.541471 233.900461 
L 228.764782 233.900461 
L 228.988094 232.444423 
L 229.434717 232.444423 
L 229.658029 235.817514 
L 229.881341 245.526605 
L 230.104652 269.773915 
L 230.327964 269.773915 
L 230.551276 255.235695 
L 230.774587 261.571695 
L 230.997899 263.027734 
L 231.221211 256.691734 
L 231.444522 256.691734 
L 231.667834 260.064824 
L 231.891146 260.064824 
L 232.114457 250.355734 
L 232.337769 256.691734 
L 232.561081 251.862605 
L 232.784392 251.862605 
L 233.007704 246.982643 
L 233.231016 235.817514 
L 233.454327 242.153514 
L 233.677639 238.780423 
L 234.124262 248.489514 
L 234.347574 246.982643 
L 234.570885 248.489514 
L 234.794197 246.982643 
L 235.017509 237.273552 
L 235.464132 237.273552 
L 235.687444 232.444423 
L 235.910755 242.153514 
L 236.134067 230.937552 
L 236.58069 242.153514 
L 236.804002 245.116423 
L 237.027314 240.236461 
L 237.250625 238.780423 
L 237.473937 249.945552 
L 237.697249 250.185223 
L 237.92056 261.350352 
L 238.143872 256.521223 
L 238.590495 241.932171 
L 238.813807 251.641261 
L 239.037119 251.641261 
L 239.26043 241.932171 
L 239.930365 241.932171 
L 240.153677 251.641261 
L 240.376988 235.596171 
L 240.6003 240.476133 
L 240.823612 241.932171 
L 241.270235 230.767042 
L 241.716858 246.812133 
L 241.94017 240.236461 
L 242.163482 240.236461 
L 242.386793 232.444423 
L 242.610105 233.900461 
L 242.833417 233.900461 
L 243.056728 238.780423 
L 243.28004 229.071333 
L 243.726663 240.476133 
L 243.949975 240.476133 
L 244.173287 225.698242 
L 244.396598 235.596171 
L 244.61991 230.527371 
L 244.843222 229.071333 
L 245.066533 233.900461 
L 245.289845 229.071333 
L 245.736468 240.236461 
L 245.95978 240.236461 
L 246.183092 233.900461 
L 246.629715 250.185223 
L 246.853027 246.812133 
L 247.076338 250.185223 
L 247.29965 250.185223 
L 247.522961 240.236461 
L 247.746273 245.305261 
L 247.969585 245.305261 
L 248.192896 250.185223 
L 248.63952 250.185223 
L 248.862831 249.945552 
L 249.086143 248.489514 
L 249.309455 254.825514 
L 249.532766 248.489514 
L 249.756078 255.014352 
L 249.97939 255.014352 
L 250.426013 243.609552 
L 250.649325 259.654643 
L 250.872636 264.534605 
L 251.095948 264.534605 
L 251.31926 263.027734 
L 251.542571 260.064824 
L 251.765883 263.027734 
L 251.989195 251.862605 
L 252.212506 261.571695 
L 252.435818 258.198605 
L 252.882441 258.198605 
L 253.105753 246.982643 
L 253.329065 254.825514 
L 253.552376 248.489514 
L 253.775688 259.654643 
L 254.222311 248.489514 
L 254.445623 248.489514 
L 254.668934 253.318643 
L 254.892246 253.318643 
L 255.338869 264.534605 
L 255.562181 261.571695 
L 255.785493 244.019734 
L 256.008804 248.899695 
L 256.232116 244.019734 
L 256.455428 234.121805 
L 256.678739 234.310643 
L 257.125363 234.310643 
L 257.348674 242.324024 
L 257.795298 215.284315 
L 258.241921 281.552241 
L 258.465233 263.590097 
L 258.688544 283.24795 
L 258.911856 271.621807 
L 259.135168 281.330897 
L 259.358479 278.367988 
L 259.581791 268.658897 
L 260.251726 302.42646 
L 260.475038 302.42646 
L 260.698349 292.71737 
L 260.921661 294.583589 
L 261.144972 316.96468 
L 261.368284 302.42646 
L 261.591596 302.615299 
L 262.038219 305.799551 
L 262.261531 305.799551 
L 262.484842 312.545732 
L 262.708154 336.793043 
L 262.931466 341.262823 
L 263.154777 333.419952 
L 263.378089 330.046861 
L 263.824712 346.091952 
L 264.048024 336.622532 
L 264.271336 322.03348 
L 264.494647 331.742571 
L 264.717959 333.249442 
L 264.941271 326.913442 
L 265.164582 326.913442 
L 265.387894 333.249442 
L 265.611206 318.660389 
L 265.834517 323.540351 
L 266.057829 324.996389 
L 266.281141 322.03348 
L 266.504452 328.36948 
L 266.727764 250.014713 
L 267.397699 237.103042 
L 267.621011 245.305261 
L 267.844322 235.407333 
L 268.067634 235.407333 
L 268.290945 232.444423 
L 268.514257 237.273552 
L 268.737569 235.407333 
L 268.96088 240.476133 
L 269.184192 219.362242 
L 269.407504 233.900461 
L 269.630815 238.780423 
L 269.854127 235.407333 
L 270.077439 243.609552 
L 270.30075 237.273552 
L 270.524062 248.489514 
L 270.747374 245.526605 
L 270.970685 239.190605 
L 271.193997 244.019734 
L 271.417309 251.862605 
L 271.64062 253.318643 
L 271.863932 246.982643 
L 272.087244 235.817514 
L 272.310555 245.526605 
L 272.533867 250.355734 
L 272.98049 234.310643 
L 273.203802 235.817514 
L 273.427114 246.982643 
L 273.650425 229.071333 
L 273.873737 238.780423 
L 274.097049 235.407333 
L 274.32036 229.071333 
L 274.543672 235.407333 
L 274.766983 235.407333 
L 274.990295 233.900461 
L 275.436918 225.698242 
L 275.66023 225.698242 
L 275.883542 224.191371 
L 276.106853 227.564461 
L 276.330165 222.735333 
L 276.553477 229.071333 
L 276.776788 230.527371 
L 277.0001 230.767042 
L 277.223412 227.393951 
L 277.446723 219.191731 
L 277.670035 227.393951 
L 277.893347 227.393951 
L 278.116658 233.729951 
L 278.33997 225.937913 
L 278.563282 225.937913 
L 278.786593 227.393951 
L 279.233217 227.393951 
L 279.456528 228.900822 
L 279.67984 228.900822 
L 280.126463 225.527731 
L 280.349775 220.887441 
L 280.573087 220.64777 
L 280.796398 235.236822 
L 281.01971 233.729951 
L 281.243022 227.393951 
L 281.466333 246.812133 
L 281.689645 246.812133 
L 281.912956 243.439042 
L 282.136268 243.439042 
L 282.35958 238.609913 
L 282.582891 243.439042 
L 282.806203 238.609913 
L 283.029515 220.64777 
L 283.252826 233.729951 
L 283.476138 227.393951 
L 283.69945 225.937913 
L 283.922761 225.937913 
L 284.146073 238.780423 
L 284.369385 232.444423 
L 284.592696 243.609552 
L 284.816008 233.900461 
L 285.03932 238.780423 
L 285.262631 238.780423 
L 285.485943 246.982643 
L 285.709255 249.945552 
L 285.932566 238.780423 
L 286.155878 242.153514 
L 286.602501 232.444423 
L 287.049125 245.116423 
L 287.272436 243.609552 
L 287.495748 238.780423 
L 287.71906 229.071333 
L 287.942371 240.476133 
L 288.165683 235.407333 
L 288.388994 240.476133 
L 288.612306 240.236461 
L 288.835618 245.305261 
L 289.058929 240.476133 
L 289.282241 240.236461 
L 289.505553 245.116423 
L 289.728864 229.071333 
L 289.952176 233.900461 
L 290.175488 233.900461 
L 290.398799 227.564461 
L 290.622111 238.780423 
L 290.845423 227.564461 
L 291.068734 233.900461 
L 291.292046 229.071333 
L 291.515358 233.900461 
L 291.738669 233.900461 
L 291.961981 235.407333 
L 292.185293 230.527371 
L 292.408604 235.596171 
L 292.631916 230.767042 
L 292.855228 235.596171 
L 293.301851 235.596171 
L 293.525163 230.767042 
L 293.748474 230.527371 
L 293.971786 225.698242 
L 294.195098 229.071333 
L 294.418409 224.191371 
L 294.641721 222.735333 
L 294.865033 227.564461 
L 295.088344 227.564461 
L 295.311656 226.108423 
L 295.534967 219.772423 
L 295.758279 219.942934 
L 295.981591 218.076714 
L 296.204902 210.233843 
L 296.428214 211.740714 
L 296.651526 211.740714 
L 296.874837 214.874134 
L 297.098149 210.045005 
L 297.321461 210.045005 
L 297.544772 210.233843 
L 297.991396 198.829043 
L 298.438019 226.500277 
L 298.661331 221.620315 
L 299.107954 231.329406 
L 299.331266 229.633696 
L 299.554577 229.822535 
L 299.777889 215.095477 
L 300.001201 215.095477 
L 300.224512 240.236461 
L 300.447824 225.698242 
L 300.671136 235.407333 
L 300.894447 230.767042 
L 301.564382 230.767042 
L 301.787694 225.937913 
L 302.011006 238.609913 
L 302.234317 232.273913 
L 302.457629 237.103042 
L 302.68094 235.596171 
L 302.904252 246.812133 
L 303.127564 235.596171 
L 303.350875 246.812133 
L 303.574187 246.812133 
L 304.02081 259.654643 
L 304.244122 254.825514 
L 304.467434 243.609552 
L 304.690745 242.153514 
L 304.914057 248.489514 
L 305.137369 243.609552 
L 305.36068 249.945552 
L 305.583992 240.236461 
L 306.030615 254.825514 
L 306.253927 254.825514 
L 306.477239 259.654643 
L 306.70055 259.654643 
L 306.923862 254.825514 
L 307.370485 251.862605 
L 307.593797 255.235695 
L 307.817109 245.526605 
L 308.04042 245.526605 
L 308.487044 253.318643 
L 308.710355 242.153514 
L 308.933667 242.153514 
L 309.156978 235.817514 
L 309.38029 242.153514 
L 309.603602 242.153514 
L 309.826913 230.937552 
L 310.050225 242.153514 
L 310.273537 242.153514 
L 310.496848 240.646643 
L 310.72016 240.646643 
L 310.943472 239.190605 
L 311.166783 230.937552 
L 311.613407 240.646643 
L 311.836718 234.310643 
L 312.06003 234.310643 
L 312.283342 229.481514 
L 312.506653 229.481514 
L 312.729965 235.817514 
L 313.176588 235.817514 
L 313.623212 245.526605 
L 313.846523 250.355734 
L 314.069835 248.899695 
L 314.293147 238.950934 
L 314.516458 248.899695 
L 314.73977 244.019734 
L 314.963082 244.019734 
L 315.186393 238.950934 
L 315.409705 237.494895 
L 315.633017 238.950934 
L 316.07964 229.241843 
L 316.302951 229.241843 
L 316.526263 229.481514 
L 316.749575 230.937552 
L 316.972886 235.817514 
L 317.196198 235.817514 
L 317.41951 230.937552 
L 317.642821 230.937552 
L 317.866133 234.310643 
L 318.089445 234.310643 
L 318.312756 242.153514 
L 318.536068 239.190605 
L 318.75938 234.310643 
L 318.982691 234.310643 
L 319.206003 240.646643 
L 319.429315 242.153514 
L 319.652626 246.982643 
L 319.875938 246.982643 
L 320.09925 242.153514 
L 320.322561 243.609552 
L 320.545873 237.273552 
L 320.992496 248.489514 
L 321.43912 248.489514 
L 321.885743 238.780423 
L 322.109055 235.407333 
L 322.332366 229.071333 
L 322.555678 227.564461 
L 322.778989 233.900461 
L 323.002301 227.564461 
L 323.225613 238.780423 
L 323.895548 238.780423 
L 324.118859 243.609552 
L 324.565483 243.609552 
L 324.788794 237.273552 
L 325.012106 237.273552 
L 325.235418 230.937552 
L 325.458729 242.153514 
L 325.682041 240.646643 
L 325.905353 240.646643 
L 326.128664 242.153514 
L 326.351976 240.646643 
L 326.575288 235.817514 
L 326.798599 240.646643 
L 327.021911 240.646643 
L 327.245223 235.817514 
L 327.915158 235.817514 
L 328.138469 229.481514 
L 328.361781 235.817514 
L 329.031716 235.817514 
L 329.255028 230.937552 
L 329.478339 237.273552 
L 329.701651 237.273552 
L 329.924962 230.937552 
L 330.148274 242.153514 
L 330.371586 259.654643 
L 330.818209 269.363734 
L 331.264832 253.318643 
L 331.488144 264.534605 
L 331.934767 264.534605 
L 332.158079 269.603405 
L 332.381391 269.603405 
L 333.051326 255.014352 
L 333.274637 261.350352 
L 333.497949 259.894314 
L 333.721261 256.521223 
L 333.944572 262.857223 
L 334.167884 262.857223 
L 334.391196 246.812133 
L 334.614507 251.641261 
L 334.837819 237.103042 
L 335.061131 248.268171 
L 335.284442 253.148133 
L 335.954377 253.148133 
L 336.177689 248.268171 
L 336.401001 253.148133 
L 336.624312 251.641261 
L 336.847624 251.641261 
L 337.070935 253.148133 
L 337.294247 251.641261 
L 337.964182 251.641261 
L 338.187494 261.350352 
L 338.410805 256.521223 
L 338.634117 255.014352 
L 338.857429 255.014352 
L 339.08074 261.350352 
L 339.304052 261.350352 
L 339.527364 255.014352 
L 339.750675 269.193223 
L 340.197299 269.193223 
L 340.42061 269.382061 
L 340.643922 264.313261 
L 340.867234 262.857223 
L 341.090545 274.262023 
L 341.537169 262.857223 
L 341.76048 262.857223 
L 341.983792 267.686352 
L 342.207104 267.686352 
L 342.430415 272.566314 
L 342.653727 272.566314 
L 342.877039 274.022352 
L 343.10035 267.686352 
L 343.323662 274.262023 
L 343.546973 272.566314 
L 343.770285 267.686352 
L 344.216908 267.686352 
L 344.663532 282.275405 
L 344.886843 275.939405 
L 345.110155 275.939405 
L 345.333467 277.395443 
L 346.003402 251.641261 
L 346.673337 261.350352 
L 346.896648 261.350352 
L 347.343272 249.945552 
L 347.566583 255.014352 
L 347.789895 255.014352 
L 348.013207 256.521223 
L 348.236518 255.014352 
L 348.45983 255.014352 
L 348.683142 259.894314 
L 348.906453 256.521223 
L 349.129765 255.014352 
L 349.353077 261.350352 
L 349.576388 259.894314 
L 349.7997 255.014352 
L 350.023012 259.654643 
L 350.246323 254.825514 
L 350.469635 230.596531 
L 350.692946 256.350713 
L 350.916258 254.843842 
L 351.13957 251.470751 
L 351.362881 256.350713 
L 351.586193 244.945913 
L 351.809505 246.812133 
L 352.032816 253.318643 
L 352.256128 249.945552 
L 352.47944 250.185223 
L 352.702751 250.185223 
L 352.926063 255.014352 
L 353.149375 248.489514 
L 353.372686 245.305261 
L 353.595998 240.236461 
L 353.81931 238.780423 
L 354.042621 245.116423 
L 354.265933 235.407333 
L 354.489245 241.932171 
L 354.712556 241.932171 
L 354.935868 245.305261 
L 355.15918 241.932171 
L 355.382491 246.812133 
L 355.605803 240.476133 
L 355.829115 240.476133 
L 356.052426 241.932171 
L 356.275738 240.476133 
L 356.49905 241.932171 
L 356.722361 245.305261 
L 356.945673 240.236461 
L 357.168984 246.812133 
L 357.392296 230.767042 
L 357.615608 246.812133 
L 357.838919 237.103042 
L 358.062231 233.729951 
L 358.285543 235.42566 
L 358.508854 240.305622 
L 358.732166 240.065951 
L 358.955478 235.236822 
L 359.178789 244.945913 
L 359.402101 246.641622 
L 359.625413 249.775042 
L 360.072036 249.775042 
L 360.295348 243.439042 
L 360.518659 243.439042 
L 360.741971 237.103042 
L 360.965283 235.596171 
L 361.188594 235.596171 
L 361.411906 246.812133 
L 361.858529 235.407333 
L 362.081841 238.780423 
L 362.305153 233.900461 
L 362.528464 235.407333 
L 362.751776 240.476133 
L 362.975088 235.407333 
L 363.198399 219.532752 
L 363.645023 230.937552 
L 363.868334 227.785805 
L 364.091646 222.905843 
L 364.314957 229.481514 
L 364.538269 229.241843 
L 364.761581 229.481514 
L 364.984892 229.481514 
L 365.208204 232.444423 
L 365.431516 230.937552 
L 365.654827 237.273552 
L 365.878139 238.780423 
L 366.101451 238.780423 
L 366.324762 232.444423 
L 366.548074 233.900461 
L 366.771386 233.900461 
L 366.994697 229.071333 
L 367.218009 229.071333 
L 367.441321 232.444423 
L 367.664632 227.564461 
L 367.887944 232.444423 
L 368.111256 240.236461 
L 368.334567 235.407333 
L 368.557879 235.596171 
L 368.781191 235.407333 
L 369.004502 240.476133 
L 369.227814 235.596171 
L 369.451126 240.476133 
L 369.674437 240.236461 
L 369.897749 235.407333 
L 370.121061 235.596171 
L 370.344372 235.407333 
L 370.567684 243.439042 
L 371.014307 240.476133 
L 371.237619 243.439042 
L 371.684242 254.843842 
L 371.907554 252.977622 
L 372.354177 262.686713 
L 372.577489 251.470751 
L 372.8008 250.014713 
L 373.024112 250.014713 
L 373.247424 245.134751 
L 373.470735 256.350713 
L 373.694047 250.014713 
L 373.917359 251.470751 
L 374.14067 257.806751 
L 374.587294 257.806751 
L 374.810605 256.350713 
L 375.033917 262.686713 
L 375.257229 252.977622 
L 375.703852 264.382422 
L 375.927164 249.604531 
L 376.150475 264.142751 
L 376.373787 257.806751 
L 376.82041 269.211551 
L 377.043722 264.142751 
L 377.267034 264.142751 
L 377.490345 259.313622 
L 377.713657 264.382422 
L 377.936968 257.806751 
L 378.16028 265.83846 
L 378.383592 256.350713 
L 378.830215 275.547551 
L 379.053527 255.958859 
L 379.276838 259.092279 
L 379.50015 267.345331 
L 379.723462 267.345331 
L 379.946773 261.009331 
L 380.170085 259.50246 
L 380.616708 278.750131 
L 380.84002 273.87017 
L 381.063332 262.46537 
L 381.286643 275.547551 
L 381.733267 278.51046 
L 381.956578 262.46537 
L 382.17989 262.46537 
L 382.626513 265.66795 
L 382.849825 268.80137 
L 383.073137 262.46537 
L 383.296448 249.79337 
L 383.743072 265.83846 
L 384.189695 257.977261 
L 384.413007 264.313261 
L 384.636318 264.313261 
L 384.85963 280.598023 
L 385.082941 264.552933 
L 385.529565 256.350713 
L 385.752876 267.515842 
L 385.976188 272.344971 
L 386.1995 270.888933 
L 386.646123 282.054061 
L 387.316058 264.313261 
L 387.53937 274.262023 
L 387.762681 274.262023 
L 388.209305 255.014352 
L 388.432616 259.894314 
L 388.655928 259.894314 
L 388.87924 261.350352 
L 389.325863 234.310643 
L 389.549175 229.481514 
L 389.772486 235.817514 
L 389.995798 235.817514 
L 390.21911 243.609552 
L 390.442421 243.609552 
L 390.665733 237.273552 
L 390.889045 237.273552 
L 391.112356 243.609552 
L 391.335668 237.273552 
L 391.782291 237.273552 
L 392.005603 238.780423 
L 392.228914 238.780423 
L 392.452226 232.444423 
L 392.675538 232.444423 
L 392.898849 226.108423 
L 393.122161 232.444423 
L 393.345473 226.108423 
L 393.568784 224.601552 
L 393.792096 226.108423 
L 394.015408 224.601552 
L 394.238719 219.532752 
L 394.462031 229.241843 
L 394.685343 222.905843 
L 394.908654 227.785805 
L 395.131966 229.481514 
L 395.578589 218.076714 
L 395.801901 229.241843 
L 396.025213 234.310643 
L 396.248524 229.241843 
L 396.695148 237.494895 
L 396.918459 226.278934 
L 397.141771 232.614934 
L 397.365083 221.449805 
L 397.588394 219.942934 
L 397.811706 219.942934 
L 398.035018 226.278934 
L 398.258329 219.942934 
L 398.481641 226.278934 
L 399.151576 211.740714 
L 399.374887 211.740714 
L 399.598199 216.569843 
L 399.821511 211.740714 
L 400.044822 216.569843 
L 400.491446 208.538134 
L 400.714757 213.418095 
L 400.938069 195.677295 
L 401.161381 197.373005 
L 401.384692 191.037005 
L 401.608004 191.037005 
L 401.831316 184.461334 
L 402.054627 195.677295 
L 402.277939 200.506424 
L 402.501251 200.506424 
L 402.947874 215.284315 
L 403.171186 200.746095 
L 403.394497 207.082095 
L 403.617809 216.791186 
L 403.841121 200.746095 
L 404.064432 203.879515 
L 404.287744 223.297696 
L 404.511056 226.670787 
L 404.734367 239.531625 
L 404.957679 224.753735 
L 405.404302 224.753735 
L 405.627614 231.329406 
L 405.850925 215.095477 
L 406.074237 219.924606 
L 406.297549 215.095477 
L 406.52086 220.164277 
L 406.744172 221.620315 
L 406.967484 220.164277 
L 407.190795 220.164277 
L 407.414107 224.753735 
L 407.637419 223.297696 
L 407.86073 219.924606 
L 408.084042 218.417735 
L 408.307354 212.081735 
L 408.530665 210.386025 
L 408.753977 194.340935 
L 408.977289 200.676935 
L 409.2006 196.087477 
L 409.423912 196.087477 
L 409.647224 189.511806 
L 409.870535 195.847806 
L 410.093847 196.087477 
L 410.317159 184.682677 
L 410.54047 183.175806 
L 410.763782 189.921987 
L 410.987094 181.890278 
L 411.210405 199.61275 
L 411.657029 180.383407 
L 411.88034 185.263369 
L 412.103652 194.972459 
L 412.326963 196.428497 
L 412.773587 188.226278 
L 412.996898 178.517187 
L 413.22021 179.973225 
L 413.443522 194.562278 
L 413.666833 178.517187 
L 413.890145 180.212896 
L 414.113457 179.973225 
L 414.336768 194.562278 
L 414.56008 188.226278 
L 414.783392 193.055407 
L 415.006703 189.682316 
L 415.230015 199.631078 
L 415.453327 196.257987 
L 415.676638 178.346677 
L 415.89995 192.884896 
L 416.346573 180.212896 
L 416.569885 185.042025 
L 416.793197 184.853187 
L 417.016508 181.668935 
L 417.23982 176.839806 
L 417.463132 186.548896 
L 417.686443 180.212896 
L 417.909755 186.548896 
L 418.133067 180.212896 
L 418.356378 184.853187 
L 418.57969 193.055407 
L 418.803002 186.719407 
L 419.026313 193.055407 
L 419.249625 191.599369 
L 419.472936 188.226278 
L 419.696248 188.226278 
L 420.142871 177.010316 
L 420.589495 177.010316 
L 420.812806 172.181187 
L 421.036118 189.682316 
L 421.25943 175.144096 
L 421.482741 180.212896 
L 421.706053 181.668935 
L 421.929365 175.332935 
L 422.152676 165.435006 
L 422.375988 175.144096 
L 422.5993 170.264135 
L 422.822611 168.808096 
L 423.492546 185.042025 
L 423.715858 179.973225 
L 424.162481 179.973225 
L 424.385793 189.921987 
L 424.609105 179.973225 
L 424.832416 175.144096 
L 425.27904 175.144096 
L 425.502351 173.637225 
L 425.725663 168.808096 
L 425.948974 175.144096 
L 426.618909 175.144096 
L 426.842221 170.503806 
L 427.065533 175.332935 
L 427.288844 165.435006 
L 427.512156 160.605877 
L 427.735468 167.130715 
L 427.958779 178.346677 
L 428.182091 172.010677 
L 428.405403 172.010677 
L 428.628714 167.130715 
L 428.852026 172.010677 
L 429.075338 172.010677 
L 429.298649 176.839806 
L 429.521961 172.010677 
L 429.745273 172.010677 
L 429.968584 162.301586 
L 430.191896 168.637586 
L 430.415208 149.219405 
L 430.638519 152.592495 
L 430.861831 166.720534 
L 431.085143 166.720534 
L 431.308454 165.264495 
L 431.531766 176.669295 
L 431.755078 176.429624 
L 431.978389 189.341295 
L 432.425013 189.341295 
L 432.648324 192.714386 
L 432.871636 176.669295 
L 433.094947 171.600495 
L 433.541571 187.834424 
L 433.988194 176.429624 
L 434.211506 174.973586 
L 434.434817 180.917733 
L 434.658129 181.327914 
L 434.881441 171.618823 
L 435.104752 171.379152 
L 435.328064 182.783952 
L 435.551376 181.327914 
L 435.774687 171.789334 
L 435.997999 183.005295 
L 436.221311 184.461334 
L 436.444622 183.005295 
L 436.667934 184.461334 
L 437.114557 176.259114 
L 437.337869 178.125334 
L 437.561181 173.296205 
L 437.784492 173.296205 
L 438.007804 184.461334 
L 438.231116 166.960205 
L 438.677739 154.048534 
L 438.901051 155.555405 
L 439.124362 162.080243 
L 439.347674 173.296205 
L 439.570985 163.587114 
L 439.794297 163.587114 
L 440.017609 168.416243 
L 440.24092 161.891405 
L 440.687544 173.296205 
L 440.910855 155.555405 
L 441.134167 162.080243 
L 441.357479 157.011443 
L 441.58079 147.302352 
L 441.804102 157.251114 
L 442.027414 162.080243 
L 442.250725 162.080243 
L 442.474037 150.675443 
L 442.697349 155.555405 
L 442.92066 157.251114 
L 443.143972 155.555405 
L 443.367284 160.384534 
L 443.590595 155.555405 
L 443.813907 157.251114 
L 444.26053 157.251114 
L 444.483842 158.707152 
L 444.707154 163.587114 
L 444.930465 174.752243 
L 445.153777 171.618823 
L 445.377089 176.447952 
L 445.6004 177.954823 
L 445.823712 166.738861 
L 446.047024 164.872642 
L 446.270335 168.245733 
L 446.493647 168.416243 
L 446.716958 134.851695 
L 446.94027 149.219405 
L 447.163582 154.048534 
L 447.386893 147.712534 
L 447.610205 117.521077 
L 448.056828 130.193077 
L 448.28014 131.649115 
L 448.503452 118.977115 
L 448.726763 125.313115 
L 449.173387 117.110895 
L 449.396698 117.110895 
L 449.62001 122.179695 
L 449.843322 122.179695 
L 450.066633 121.940024 
L 450.289945 120.483986 
L 450.513257 121.940024 
L 450.736568 122.179695 
L 450.95988 122.179695 
L 451.406503 117.110895 
L 451.629815 133.344824 
L 451.853127 133.344824 
L 452.076438 134.851695 
L 452.29975 133.344824 
L 452.523062 134.851695 
L 452.746373 134.851695 
L 452.969685 129.971734 
L 453.192996 136.547405 
L 453.416308 126.838314 
L 453.63962 126.838314 
L 453.862931 145.846314 
L 454.086243 145.846314 
L 454.309555 150.675443 
L 454.532866 139.510314 
L 454.756178 145.846314 
L 454.97949 142.473223 
L 455.426113 152.182314 
L 455.649425 152.182314 
L 455.872736 150.675443 
L 456.096048 144.339443 
L 456.31936 145.846314 
L 456.542671 152.182314 
L 456.765983 152.182314 
L 456.989295 158.707152 
L 457.212606 171.379152 
L 457.435918 165.043152 
L 457.882541 165.043152 
L 458.105853 169.923114 
L 458.329165 169.923114 
L 458.552476 165.043152 
L 458.775788 152.371152 
L 458.9991 153.878023 
L 459.222411 147.302352 
L 459.445723 147.302352 
L 459.669035 157.251114 
L 459.892346 147.302352 
L 460.338969 176.447952 
L 460.562281 165.043152 
L 460.785593 171.379152 
L 461.455528 171.379152 
L 461.678839 165.043152 
L 461.902151 169.923114 
L 462.125463 163.587114 
L 462.348774 174.752243 
L 462.572086 176.259114 
L 462.795398 165.043152 
L 463.018709 163.587114 
L 463.242021 173.296205 
L 463.465333 162.080243 
L 463.688644 168.416243 
L 463.911956 169.923114 
L 464.135268 174.752243 
L 464.358579 176.259114 
L 464.581891 181.088243 
L 465.028514 163.587114 
L 465.475138 155.334061 
L 465.698449 155.334061 
L 465.921761 150.504933 
L 466.145073 169.701771 
L 466.368384 169.701771 
L 466.591696 166.738861 
L 466.815008 173.074861 
L 467.038319 166.738861 
L 467.261631 166.550023 
L 467.484942 161.909733 
L 467.708254 166.738861 
L 467.931566 166.738861 
L 468.154877 182.783952 
L 468.378189 168.245733 
L 468.601501 179.410861 
L 468.824812 173.074861 
L 469.048124 182.783952 
L 469.494747 171.618823 
L 469.718059 171.379152 
L 469.941371 171.379152 
L 470.164682 165.043152 
L 470.387994 171.379152 
L 470.611306 166.550023 
L 470.834617 153.878023 
L 471.281241 165.043152 
L 471.504552 165.043152 
L 471.727864 163.587114 
L 471.951176 163.587114 
L 472.174487 168.416243 
L 472.397799 168.416243 
L 472.621111 179.632205 
L 472.844422 173.296205 
L 473.067734 181.088243 
L 473.291046 174.752243 
L 473.514357 181.088243 
L 473.96098 165.043152 
L 474.184292 176.259114 
L 474.630915 185.968205 
L 474.854227 174.752243 
L 475.077539 176.259114 
L 475.30085 187.663914 
L 475.524162 181.327914 
L 475.747474 181.327914 
L 475.970785 176.259114 
L 476.194097 181.327914 
L 476.417409 182.783952 
L 476.64072 187.663914 
L 476.864032 182.783952 
L 477.087344 182.783952 
L 477.310655 184.290823 
L 477.533967 177.954823 
L 477.757279 176.447952 
L 477.98059 176.447952 
L 478.203902 182.783952 
L 478.427214 181.327914 
L 478.650525 186.157043 
L 478.873837 181.327914 
L 479.097149 187.663914 
L 479.32046 182.783952 
L 479.543772 182.783952 
L 479.767084 177.954823 
L 479.990395 185.746861 
L 480.213707 180.917733 
L 480.437019 166.379513 
L 480.66033 171.208642 
L 480.883642 169.701771 
L 481.106953 174.581733 
L 481.553577 163.365771 
L 481.776888 180.917733 
L 482.0002 180.917733 
L 482.223512 174.581733 
L 482.446823 164.872642 
L 482.670135 176.037771 
L 482.893447 176.037771 
L 483.116758 180.917733 
L 483.34007 171.448313 
L 483.563382 174.581733 
L 484.010005 163.365771 
L 484.233317 163.365771 
L 484.456628 168.245733 
L 484.67994 169.701771 
L 484.903252 164.872642 
L 485.126563 169.701771 
L 485.573187 158.536642 
L 485.796498 161.909733 
L 486.01981 161.909733 
L 486.243122 157.029771 
L 486.466433 157.029771 
L 486.689745 163.365771 
L 486.913057 163.365771 
L 487.136368 168.245733 
L 487.35968 168.245733 
L 487.582991 161.909733 
L 487.806303 168.245733 
L 488.029615 168.245733 
L 488.252926 163.365771 
L 488.476238 168.245733 
L 488.69955 169.701771 
L 488.922861 176.037771 
L 489.146173 171.208642 
L 489.369485 181.106571 
L 489.592796 176.277442 
L 489.816108 181.106571 
L 490.03942 182.613442 
L 490.262731 171.208642 
L 490.486043 176.277442 
L 490.709355 177.784313 
L 491.155978 168.075222 
L 491.37929 168.075222 
L 491.602601 161.739222 
L 492.049225 161.739222 
L 492.272536 154.993041 
L 492.495848 171.038131 
L 492.71916 163.19526 
L 492.942471 169.53126 
L 493.165783 163.19526 
L 493.389095 169.53126 
L 493.612406 169.53126 
L 493.835718 174.411222 
L 494.05903 166.15817 
L 494.282341 171.038131 
L 494.505653 169.53126 
L 494.728964 176.106931 
L 494.952276 179.069841 
L 495.175588 176.106931 
L 495.398899 182.442931 
L 495.622211 182.442931 
L 495.845523 177.56297 
L 496.068834 182.442931 
L 496.292146 176.106931 
L 496.515458 180.93606 
L 496.738769 180.93606 
L 496.962081 185.816022 
L 497.185393 185.576351 
L 497.408704 185.816022 
L 497.855328 198.488022 
L 498.078639 193.60806 
L 498.525263 206.28006 
L 498.748574 190.23497 
L 498.971886 193.60806 
L 499.195198 195.114931 
L 499.418509 193.60806 
L 499.641821 187.27206 
L 499.865133 192.152022 
L 500.088444 187.27206 
L 500.535068 196.981151 
L 500.758379 195.525113 
L 500.981691 195.525113 
L 501.205003 195.285442 
L 501.428314 195.285442 
L 501.651626 190.645151 
L 502.098249 201.861113 
L 502.321561 196.981151 
L 502.544872 195.525113 
L 502.768184 201.861113 
L 502.991496 200.354242 
L 503.214807 195.285442 
L 503.438119 200.354242 
L 503.661431 195.525113 
L 503.884742 195.525113 
L 504.108054 200.354242 
L 504.331366 195.525113 
L 504.554677 195.285442 
L 505.001301 205.183371 
L 505.224612 205.183371 
L 505.447924 200.354242 
L 505.671236 201.861113 
L 505.894547 195.525113 
L 506.117859 196.981151 
L 506.341171 203.317151 
L 506.564482 196.981151 
L 506.787794 208.197113 
L 507.011106 203.317151 
L 507.234417 203.317151 
L 507.457729 192.152022 
L 507.681041 204.824022 
L 507.904352 208.197113 
L 508.127664 208.197113 
L 508.350975 214.533113 
L 508.574287 216.228822 
L 508.797599 209.653151 
L 509.02091 209.653151 
L 509.244222 219.362242 
L 509.467534 224.191371 
L 509.690845 213.026242 
L 509.914157 217.855371 
L 510.137469 219.362242 
L 510.36078 213.026242 
L 510.584092 213.026242 
L 510.807404 208.197113 
L 511.030715 196.981151 
L 511.254027 206.690242 
L 511.477339 200.354242 
L 511.923962 213.026242 
L 512.147274 208.197113 
L 512.370585 206.690242 
L 512.593897 211.519371 
L 512.817209 205.183371 
L 513.04052 210.063333 
L 513.263832 211.519371 
L 513.487144 219.532752 
L 513.710455 221.228461 
L 513.933767 211.519371 
L 514.157079 214.892461 
L 514.38039 221.228461 
L 514.603702 210.063333 
L 514.827014 209.823661 
L 515.050325 222.905843 
L 515.273637 218.076714 
L 515.496948 224.412714 
L 515.943572 224.412714 
L 516.166883 218.076714 
L 516.613507 229.481514 
L 516.836818 229.481514 
L 517.06013 229.241843 
L 517.283442 229.241843 
L 517.506753 224.412714 
L 517.730065 224.601552 
L 518.4 211.519371 
L 518.4 211.519371 
" style="fill:none;stroke:#4c72b0;stroke-linecap:round;stroke-width:1.75;"/>
   </g>
   <g id="patch_3">
    <path d="M 72 356.4 
L 518.4 356.4 
" style="fill:none;"/>
   </g>
   <g id="patch_4">
    <path d="M 72 39.6 
L 518.4 39.6 
" style="fill:none;"/>
   </g>
   <g id="patch_5">
    <path d="M 72 356.4 
L 72 39.6 
" style="fill:none;"/>
   </g>
   <g id="patch_6">
    <path d="M 518.4 356.4 
L 518.4 39.6 
" style="fill:none;"/>
   </g>
   <g id="text_12">
    <!-- au - 0.040114374749230824 * ag -->
    <defs>
     <path d="M 26.765625 -20.75 
Q 22.21875 -20.75 18.703125 -19.8125 
Q 15.1875 -18.890625 12.6875 -17.15625 
Q 10.203125 -15.4375 8.640625 -13.03125 
Q 7.078125 -10.640625 6.390625 -7.71875 
L 15.234375 -6.453125 
Q 16.109375 -10.109375 19.109375 -12.078125 
Q 22.125 -14.0625 27 -14.0625 
Q 29.984375 -14.0625 32.421875 -13.234375 
Q 34.859375 -12.40625 36.5625 -10.5625 
Q 38.28125 -8.734375 39.203125 -5.796875 
Q 40.140625 -2.875 40.140625 1.3125 
L 40.140625 9.8125 
L 40.046875 9.8125 
Q 39.0625 7.8125 37.625 5.984375 
Q 36.1875 4.15625 34.109375 2.734375 
Q 32.03125 1.3125 29.296875 0.453125 
Q 26.5625 -0.390625 23.046875 -0.390625 
Q 18.015625 -0.390625 14.421875 1.296875 
Q 10.84375 2.984375 8.5625 6.34375 
Q 6.296875 9.71875 5.25 14.71875 
Q 4.203125 19.734375 4.203125 26.3125 
Q 4.203125 32.671875 5.25 37.75 
Q 6.296875 42.828125 8.65625 46.359375 
Q 11.03125 49.90625 14.8125 51.78125 
Q 18.609375 53.65625 24.03125 53.65625 
Q 29.640625 53.65625 33.765625 51.09375 
Q 37.890625 48.53125 40.140625 43.796875 
L 40.234375 43.796875 
Q 40.234375 45.015625 40.296875 46.53125 
Q 40.375 48.046875 40.453125 49.390625 
Q 40.53125 50.734375 40.625 51.703125 
Q 40.71875 52.6875 40.828125 52.828125 
L 49.171875 52.828125 
Q 49.125 52.390625 49.078125 51.34375 
Q 49.03125 50.296875 48.96875 48.828125 
Q 48.921875 47.359375 48.890625 45.578125 
Q 48.875 43.796875 48.875 41.890625 
L 48.875 1.515625 
Q 48.875 -9.578125 43.421875 -15.15625 
Q 37.984375 -20.75 26.765625 -20.75 
M 40.140625 26.421875 
Q 40.140625 31.9375 38.9375 35.859375 
Q 37.75 39.796875 35.796875 42.28125 
Q 33.84375 44.78125 31.328125 45.953125 
Q 28.8125 47.125 26.171875 47.125 
Q 22.796875 47.125 20.375 45.953125 
Q 17.96875 44.78125 16.375 42.265625 
Q 14.796875 39.75 14.03125 35.8125 
Q 13.28125 31.890625 13.28125 26.421875 
Q 13.28125 20.703125 14.03125 16.8125 
Q 14.796875 12.9375 16.359375 10.546875 
Q 17.921875 8.15625 20.3125 7.125 
Q 22.703125 6.109375 26.03125 6.109375 
Q 28.65625 6.109375 31.171875 7.21875 
Q 33.6875 8.34375 35.6875 10.78125 
Q 37.703125 13.234375 38.921875 17.09375 
Q 40.140625 20.953125 40.140625 26.421875 
" id="LiberationSans-67"/>
     <path d="M 15.328125 52.828125 
L 15.328125 19.34375 
Q 15.328125 15.484375 15.890625 12.890625 
Q 16.453125 10.296875 17.71875 8.703125 
Q 19 7.125 21.0625 6.46875 
Q 23.140625 5.8125 26.21875 5.8125 
Q 29.34375 5.8125 31.859375 6.90625 
Q 34.375 8.015625 36.15625 10.078125 
Q 37.9375 12.15625 38.90625 15.203125 
Q 39.890625 18.265625 39.890625 22.21875 
L 39.890625 52.828125 
L 48.6875 52.828125 
L 48.6875 11.28125 
Q 48.6875 9.625 48.703125 7.78125 
Q 48.734375 5.953125 48.78125 4.3125 
Q 48.828125 2.6875 48.875 1.515625 
Q 48.921875 0.34375 48.96875 0 
L 40.671875 0 
Q 40.625 0.25 40.578125 1.3125 
Q 40.53125 2.390625 40.453125 3.78125 
Q 40.375 5.171875 40.328125 6.609375 
Q 40.28125 8.0625 40.28125 9.03125 
L 40.140625 9.03125 
Q 38.875 6.734375 37.359375 4.875 
Q 35.84375 3.03125 33.84375 1.734375 
Q 31.84375 0.4375 29.25 -0.265625 
Q 26.65625 -0.984375 23.25 -0.984375 
Q 18.84375 -0.984375 15.671875 0.09375 
Q 12.5 1.171875 10.453125 3.421875 
Q 8.40625 5.671875 7.453125 9.1875 
Q 6.5 12.703125 6.5 17.625 
L 6.5 52.828125 
z
" id="LiberationSans-75"/>
     <path d="M 20.21875 -0.984375 
Q 12.25 -0.984375 8.25 3.21875 
Q 4.25 7.421875 4.25 14.75 
Q 4.25 19.96875 6.21875 23.3125 
Q 8.203125 26.65625 11.390625 28.5625 
Q 14.59375 30.46875 18.6875 31.203125 
Q 22.796875 31.9375 27.046875 32.03125 
L 38.921875 32.234375 
L 38.921875 35.109375 
Q 38.921875 38.375 38.234375 40.671875 
Q 37.546875 42.96875 36.125 44.375 
Q 34.71875 45.796875 32.59375 46.453125 
Q 30.46875 47.125 27.59375 47.125 
Q 25.046875 47.125 23 46.75 
Q 20.953125 46.390625 19.4375 45.4375 
Q 17.921875 44.484375 16.984375 42.84375 
Q 16.0625 41.21875 15.765625 38.71875 
L 6.59375 39.546875 
Q 7.078125 42.671875 8.4375 45.28125 
Q 9.8125 47.90625 12.328125 49.796875 
Q 14.84375 51.703125 18.625 52.75 
Q 22.40625 53.8125 27.78125 53.8125 
Q 37.75 53.8125 42.765625 49.234375 
Q 47.796875 44.671875 47.796875 36.03125 
L 47.796875 13.28125 
Q 47.796875 9.375 48.828125 7.390625 
Q 49.859375 5.421875 52.734375 5.421875 
Q 53.46875 5.421875 54.203125 5.515625 
Q 54.9375 5.609375 55.609375 5.765625 
L 55.609375 0.296875 
Q 53.953125 -0.09375 52.3125 -0.28125 
Q 50.6875 -0.484375 48.828125 -0.484375 
Q 46.34375 -0.484375 44.5625 0.171875 
Q 42.78125 0.828125 41.65625 2.171875 
Q 40.53125 3.515625 39.9375 5.484375 
Q 39.359375 7.46875 39.203125 10.109375 
L 38.921875 10.109375 
Q 37.5 7.5625 35.8125 5.515625 
Q 34.125 3.46875 31.875 2.03125 
Q 29.640625 0.59375 26.78125 -0.1875 
Q 23.921875 -0.984375 20.21875 -0.984375 
M 22.21875 5.609375 
Q 26.421875 5.609375 29.5625 7.140625 
Q 32.71875 8.6875 34.78125 11.078125 
Q 36.859375 13.484375 37.890625 16.3125 
Q 38.921875 19.140625 38.921875 21.734375 
L 38.921875 26.078125 
L 29.296875 25.875 
Q 26.078125 25.828125 23.171875 25.40625 
Q 20.265625 25 18.0625 23.78125 
Q 15.875 22.5625 14.578125 20.359375 
Q 13.28125 18.171875 13.28125 14.59375 
Q 13.28125 10.296875 15.59375 7.953125 
Q 17.921875 5.609375 22.21875 5.609375 
" id="LiberationSans-61"/>
     <path d="M 22.265625 54.390625 
L 35.15625 59.421875 
L 37.359375 52.984375 
L 23.578125 49.421875 
L 32.625 37.203125 
L 26.8125 33.6875 
L 19.484375 46.296875 
L 11.859375 33.796875 
L 6.0625 37.3125 
L 15.28125 49.421875 
L 1.609375 52.984375 
L 3.8125 59.515625 
L 16.84375 54.296875 
L 16.265625 68.796875 
L 22.90625 68.796875 
z
" id="LiberationSans-2a"/>
    </defs>
    <g style="fill:#262626;" transform="translate(205.7915625 34.6)scale(0.12 -0.12)">
     <use xlink:href="#LiberationSans-61"/>
     <use x="55.615234375" xlink:href="#LiberationSans-75"/>
     <use x="111.23046875" xlink:href="#LiberationSans-20"/>
     <use x="139.013671875" xlink:href="#LiberationSans-2d"/>
     <use x="172.314453125" xlink:href="#LiberationSans-20"/>
     <use x="200.09765625" xlink:href="#LiberationSans-30"/>
     <use x="255.712890625" xlink:href="#LiberationSans-2e"/>
     <use x="283.49609375" xlink:href="#LiberationSans-30"/>
     <use x="339.111328125" xlink:href="#LiberationSans-34"/>
     <use x="394.7265625" xlink:href="#LiberationSans-30"/>
     <use x="450.341796875" xlink:href="#LiberationSans-31"/>
     <use x="505.95703125" xlink:href="#LiberationSans-31"/>
     <use x="561.572265625" xlink:href="#LiberationSans-34"/>
     <use x="617.1875" xlink:href="#LiberationSans-33"/>
     <use x="672.802734375" xlink:href="#LiberationSans-37"/>
     <use x="728.41796875" xlink:href="#LiberationSans-34"/>
     <use x="784.033203125" xlink:href="#LiberationSans-37"/>
     <use x="839.6484375" xlink:href="#LiberationSans-34"/>
     <use x="895.263671875" xlink:href="#LiberationSans-39"/>
     <use x="950.87890625" xlink:href="#LiberationSans-32"/>
     <use x="1006.494140625" xlink:href="#LiberationSans-33"/>
     <use x="1062.109375" xlink:href="#LiberationSans-30"/>
     <use x="1117.724609375" xlink:href="#LiberationSans-38"/>
     <use x="1173.33984375" xlink:href="#LiberationSans-32"/>
     <use x="1228.955078125" xlink:href="#LiberationSans-34"/>
     <use x="1284.5703125" xlink:href="#LiberationSans-20"/>
     <use x="1312.353515625" xlink:href="#LiberationSans-2a"/>
     <use x="1351.26953125" xlink:href="#LiberationSans-20"/>
     <use x="1379.052734375" xlink:href="#LiberationSans-61"/>
     <use x="1434.66796875" xlink:href="#LiberationSans-67"/>
    </g>
   </g>
  </g>
 </g>
 <defs>
  <clipPath id="p0861bd57be">
   <rect height="316.8" width="446.4" x="72.0" y="39.6"/>
  </clipPath>
 </defs>
</svg>
