<?xml version="1.0" encoding="utf-8" standalone="no"?>
<!DOCTYPE svg PUBLIC "-//W3C//DTD SVG 1.1//EN"
  "http://www.w3.org/Graphics/SVG/1.1/DTD/svg11.dtd">
<!-- Created with matplotlib (http://matplotlib.org/) -->
<svg height="396pt" version="1.1" viewBox="0 0 576 396" width="576pt" xmlns="http://www.w3.org/2000/svg" xmlns:xlink="http://www.w3.org/1999/xlink">
 <defs>
  <style type="text/css">
*{stroke-linecap:butt;stroke-linejoin:round;stroke-miterlimit:100000;}
  </style>
 </defs>
 <g id="figure_1">
  <g id="patch_1">
   <path d="M 0 396 
L 576 396 
L 576 0 
L 0 0 
z
" style="fill:#ffffff;"/>
  </g>
  <g id="axes_1">
   <g id="patch_2">
    <path d="M 72 356.4 
L 518.4 356.4 
L 518.4 39.6 
L 72 39.6 
z
" style="fill:#eaeaf2;"/>
   </g>
   <g id="matplotlib.axis_1">
    <g id="xtick_1">
     <g id="line2d_1">
      <path clip-path="url(#p7858b0b645)" d="M 72 356.4 
L 72 39.6 
" style="fill:none;stroke:#ffffff;stroke-linecap:round;"/>
     </g>
     <g id="line2d_2"/>
     <g id="line2d_3"/>
     <g id="text_1">
      <!-- 2016-09-29 22:50:00 -->
      <defs>
       <path d="M 5.03125 0 
L 5.03125 6.203125 
Q 7.515625 11.921875 11.109375 16.28125 
Q 14.703125 20.65625 18.65625 24.1875 
Q 22.609375 27.734375 26.484375 30.765625 
Q 30.375 33.796875 33.5 36.8125 
Q 36.625 39.84375 38.546875 43.15625 
Q 40.484375 46.484375 40.484375 50.6875 
Q 40.484375 53.609375 39.59375 55.828125 
Q 38.71875 58.0625 37.0625 59.5625 
Q 35.40625 61.078125 33.078125 61.828125 
Q 30.765625 62.59375 27.9375 62.59375 
Q 25.296875 62.59375 22.96875 61.859375 
Q 20.65625 61.140625 18.84375 59.671875 
Q 17.046875 58.203125 15.890625 56.03125 
Q 14.75 53.859375 14.40625 50.984375 
L 5.421875 51.8125 
Q 5.859375 55.515625 7.46875 58.78125 
Q 9.078125 62.0625 11.90625 64.53125 
Q 14.75 67 18.71875 68.40625 
Q 22.703125 69.828125 27.9375 69.828125 
Q 33.0625 69.828125 37.0625 68.609375 
Q 41.0625 67.390625 43.8125 64.984375 
Q 46.578125 62.59375 48.046875 59.078125 
Q 49.515625 55.5625 49.515625 50.984375 
Q 49.515625 47.515625 48.265625 44.390625 
Q 47.015625 41.265625 44.9375 38.421875 
Q 42.875 35.59375 40.140625 32.953125 
Q 37.40625 30.328125 34.421875 27.8125 
Q 31.453125 25.296875 28.421875 22.828125 
Q 25.390625 20.359375 22.71875 17.859375 
Q 20.0625 15.375 17.96875 12.8125 
Q 15.875 10.25 14.703125 7.46875 
L 50.59375 7.46875 
L 50.59375 0 
z
" id="LiberationSans-32"/>
       <path d="M 7.625 0 
L 7.625 7.46875 
L 25.140625 7.46875 
L 25.140625 60.40625 
L 9.625 49.3125 
L 9.625 57.625 
L 25.875 68.796875 
L 33.984375 68.796875 
L 33.984375 7.46875 
L 50.734375 7.46875 
L 50.734375 0 
z
" id="LiberationSans-31"/>
       <path d="M 51.703125 34.421875 
Q 51.703125 24.515625 49.828125 17.75 
Q 47.953125 10.984375 44.703125 6.8125 
Q 41.453125 2.640625 37.0625 0.828125 
Q 32.671875 -0.984375 27.6875 -0.984375 
Q 22.65625 -0.984375 18.3125 0.828125 
Q 13.96875 2.640625 10.765625 6.78125 
Q 7.5625 10.9375 5.734375 17.703125 
Q 3.90625 24.46875 3.90625 34.421875 
Q 3.90625 44.828125 5.734375 51.640625 
Q 7.5625 58.453125 10.78125 62.5 
Q 14.015625 66.546875 18.40625 68.1875 
Q 22.796875 69.828125 27.984375 69.828125 
Q 32.90625 69.828125 37.21875 68.1875 
Q 41.546875 66.546875 44.765625 62.5 
Q 48 58.453125 49.84375 51.640625 
Q 51.703125 44.828125 51.703125 34.421875 
M 42.78125 34.421875 
Q 42.78125 42.625 41.796875 48.0625 
Q 40.828125 53.515625 38.921875 56.765625 
Q 37.015625 60.015625 34.25 61.359375 
Q 31.5 62.703125 27.984375 62.703125 
Q 24.265625 62.703125 21.4375 61.328125 
Q 18.609375 59.96875 16.671875 56.71875 
Q 14.75 53.46875 13.765625 48.015625 
Q 12.796875 42.578125 12.796875 34.421875 
Q 12.796875 26.515625 13.796875 21.09375 
Q 14.796875 15.671875 16.71875 12.375 
Q 18.65625 9.078125 21.4375 7.640625 
Q 24.21875 6.203125 27.78125 6.203125 
Q 31.25 6.203125 34.03125 7.640625 
Q 36.8125 9.078125 38.734375 12.375 
Q 40.671875 15.671875 41.71875 21.09375 
Q 42.78125 26.515625 42.78125 34.421875 
" id="LiberationSans-30"/>
       <path d="M 50.875 35.796875 
Q 50.875 26.609375 49.140625 19.703125 
Q 47.40625 12.796875 44.1875 8.203125 
Q 40.96875 3.609375 36.34375 1.3125 
Q 31.734375 -0.984375 25.984375 -0.984375 
Q 22.015625 -0.984375 18.84375 -0.171875 
Q 15.671875 0.640625 13.171875 2.34375 
Q 10.6875 4.046875 8.921875 6.78125 
Q 7.171875 9.515625 6.109375 13.375 
L 14.5 14.703125 
Q 15.875 10.25 18.78125 8.171875 
Q 21.6875 6.109375 26.125 6.109375 
Q 29.6875 6.109375 32.640625 7.78125 
Q 35.59375 9.46875 37.671875 12.84375 
Q 39.75 16.21875 40.921875 21.296875 
Q 42.09375 26.375 42.1875 33.203125 
Q 41.15625 30.90625 39.375 29.09375 
Q 37.59375 27.296875 35.328125 26.046875 
Q 33.0625 24.8125 30.421875 24.140625 
Q 27.78125 23.484375 25.09375 23.484375 
Q 20.40625 23.484375 16.625 25.171875 
Q 12.84375 26.859375 10.203125 29.875 
Q 7.5625 32.90625 6.125 37.171875 
Q 4.6875 41.453125 4.6875 46.6875 
Q 4.6875 52 6.21875 56.296875 
Q 7.765625 60.59375 10.6875 63.59375 
Q 13.625 66.609375 17.890625 68.21875 
Q 22.171875 69.828125 27.59375 69.828125 
Q 39.0625 69.828125 44.96875 61.328125 
Q 50.875 52.828125 50.875 35.796875 
M 41.3125 44.28125 
Q 41.3125 48.09375 40.40625 51.453125 
Q 39.5 54.828125 37.71875 57.3125 
Q 35.9375 59.8125 33.328125 61.25 
Q 30.71875 62.703125 27.296875 62.703125 
Q 24.125 62.703125 21.578125 61.578125 
Q 19.046875 60.453125 17.28125 58.375 
Q 15.53125 56.296875 14.578125 53.3125 
Q 13.625 50.34375 13.625 46.6875 
Q 13.625 43.21875 14.46875 40.234375 
Q 15.328125 37.25 17.03125 35.078125 
Q 18.75 32.90625 21.28125 31.65625 
Q 23.828125 30.421875 27.203125 30.421875 
Q 29.640625 30.421875 32.15625 31.25 
Q 34.671875 32.078125 36.6875 33.78125 
Q 38.71875 35.5 40.015625 38.109375 
Q 41.3125 40.71875 41.3125 44.28125 
" id="LiberationSans-39"/>
       <path d="M 9.125 42.71875 
L 9.125 52.828125 
L 18.65625 52.828125 
L 18.65625 42.71875 
z
M 9.125 0 
L 9.125 10.109375 
L 18.65625 10.109375 
L 18.65625 0 
z
" id="LiberationSans-3a"/>
       <path d="M 51.421875 22.40625 
Q 51.421875 17.234375 49.859375 12.9375 
Q 48.296875 8.640625 45.21875 5.53125 
Q 42.140625 2.4375 37.578125 0.71875 
Q 33.015625 -0.984375 27 -0.984375 
Q 21.578125 -0.984375 17.546875 0.28125 
Q 13.53125 1.5625 10.734375 3.78125 
Q 7.953125 6 6.3125 8.984375 
Q 4.6875 11.96875 4 15.375 
L 12.890625 16.40625 
Q 13.421875 14.453125 14.390625 12.625 
Q 15.375 10.796875 17.0625 9.34375 
Q 18.75 7.90625 21.21875 7.046875 
Q 23.6875 6.203125 27.203125 6.203125 
Q 30.609375 6.203125 33.390625 7.25 
Q 36.1875 8.296875 38.15625 10.34375 
Q 40.140625 12.40625 41.203125 15.375 
Q 42.28125 18.359375 42.28125 22.21875 
Q 42.28125 25.390625 41.25 28.046875 
Q 40.234375 30.71875 38.328125 32.640625 
Q 36.421875 34.578125 33.65625 35.640625 
Q 30.90625 36.71875 27.390625 36.71875 
Q 25.203125 36.71875 23.34375 36.328125 
Q 21.484375 35.9375 19.890625 35.25 
Q 18.3125 34.578125 17.015625 33.671875 
Q 15.71875 32.765625 14.59375 31.78125 
L 6 31.78125 
L 8.296875 68.796875 
L 47.40625 68.796875 
L 47.40625 61.328125 
L 16.3125 61.328125 
L 14.984375 39.5 
Q 17.328125 41.3125 20.84375 42.59375 
Q 24.359375 43.890625 29.203125 43.890625 
Q 34.328125 43.890625 38.421875 42.328125 
Q 42.53125 40.765625 45.40625 37.90625 
Q 48.296875 35.0625 49.859375 31.109375 
Q 51.421875 27.15625 51.421875 22.40625 
" id="LiberationSans-35"/>
       <path id="LiberationSans-20"/>
       <path d="M 4.4375 22.65625 
L 4.4375 30.46875 
L 28.859375 30.46875 
L 28.859375 22.65625 
z
" id="LiberationSans-2d"/>
       <path d="M 51.21875 22.515625 
Q 51.21875 17.328125 49.78125 13 
Q 48.34375 8.6875 45.53125 5.578125 
Q 42.71875 2.484375 38.5625 0.75 
Q 34.421875 -0.984375 29 -0.984375 
Q 23 -0.984375 18.5 1.3125 
Q 14.015625 3.609375 11.03125 7.921875 
Q 8.0625 12.25 6.5625 18.53125 
Q 5.078125 24.8125 5.078125 32.8125 
Q 5.078125 42 6.765625 48.921875 
Q 8.453125 55.859375 11.625 60.5 
Q 14.796875 65.140625 19.359375 67.484375 
Q 23.921875 69.828125 29.6875 69.828125 
Q 33.203125 69.828125 36.28125 69.09375 
Q 39.359375 68.359375 41.875 66.71875 
Q 44.390625 65.09375 46.28125 62.40625 
Q 48.1875 59.71875 49.3125 55.8125 
L 40.921875 54.296875 
Q 39.546875 58.734375 36.546875 60.71875 
Q 33.546875 62.703125 29.59375 62.703125 
Q 25.984375 62.703125 23.046875 60.984375 
Q 20.125 59.28125 18.0625 55.875 
Q 16.015625 52.484375 14.90625 47.359375 
Q 13.8125 42.234375 13.8125 35.40625 
Q 16.21875 39.84375 20.5625 42.15625 
Q 24.90625 44.484375 30.515625 44.484375 
Q 35.203125 44.484375 39.015625 42.96875 
Q 42.828125 41.453125 45.53125 38.59375 
Q 48.25 35.75 49.734375 31.671875 
Q 51.21875 27.59375 51.21875 22.515625 
M 42.28125 22.125 
Q 42.28125 25.6875 41.40625 28.5625 
Q 40.53125 31.453125 38.765625 33.46875 
Q 37.015625 35.5 34.421875 36.59375 
Q 31.84375 37.703125 28.421875 37.703125 
Q 26.03125 37.703125 23.578125 36.984375 
Q 21.140625 36.28125 19.15625 34.6875 
Q 17.1875 33.109375 15.9375 30.515625 
Q 14.703125 27.9375 14.703125 24.21875 
Q 14.703125 20.40625 15.671875 17.109375 
Q 16.65625 13.8125 18.484375 11.375 
Q 20.3125 8.9375 22.890625 7.515625 
Q 25.484375 6.109375 28.71875 6.109375 
Q 31.890625 6.109375 34.40625 7.203125 
Q 36.921875 8.296875 38.671875 10.375 
Q 40.4375 12.453125 41.359375 15.421875 
Q 42.28125 18.40625 42.28125 22.125 
" id="LiberationSans-36"/>
      </defs>
      <g style="fill:#262626;" transform="translate(25.5765625 370.646875)scale(0.1 -0.1)">
       <use xlink:href="#LiberationSans-32"/>
       <use x="55.615234375" xlink:href="#LiberationSans-30"/>
       <use x="111.23046875" xlink:href="#LiberationSans-31"/>
       <use x="166.845703125" xlink:href="#LiberationSans-36"/>
       <use x="222.4609375" xlink:href="#LiberationSans-2d"/>
       <use x="255.76171875" xlink:href="#LiberationSans-30"/>
       <use x="311.376953125" xlink:href="#LiberationSans-39"/>
       <use x="366.9921875" xlink:href="#LiberationSans-2d"/>
       <use x="400.29296875" xlink:href="#LiberationSans-32"/>
       <use x="455.908203125" xlink:href="#LiberationSans-39"/>
       <use x="511.5234375" xlink:href="#LiberationSans-20"/>
       <use x="539.306640625" xlink:href="#LiberationSans-32"/>
       <use x="594.921875" xlink:href="#LiberationSans-32"/>
       <use x="650.537109375" xlink:href="#LiberationSans-3a"/>
       <use x="678.3203125" xlink:href="#LiberationSans-35"/>
       <use x="733.935546875" xlink:href="#LiberationSans-30"/>
       <use x="789.55078125" xlink:href="#LiberationSans-3a"/>
       <use x="817.333984375" xlink:href="#LiberationSans-30"/>
       <use x="872.94921875" xlink:href="#LiberationSans-30"/>
      </g>
     </g>
    </g>
    <g id="xtick_2">
     <g id="line2d_4">
      <path clip-path="url(#p7858b0b645)" d="M 183.655828 356.4 
L 183.655828 39.6 
" style="fill:none;stroke:#ffffff;stroke-linecap:round;"/>
     </g>
     <g id="line2d_5"/>
     <g id="line2d_6"/>
     <g id="text_2">
      <!-- 2016-10-10 21:06:00 -->
      <g style="fill:#262626;" transform="translate(137.232390414 370.646875)scale(0.1 -0.1)">
       <use xlink:href="#LiberationSans-32"/>
       <use x="55.615234375" xlink:href="#LiberationSans-30"/>
       <use x="111.23046875" xlink:href="#LiberationSans-31"/>
       <use x="166.845703125" xlink:href="#LiberationSans-36"/>
       <use x="222.4609375" xlink:href="#LiberationSans-2d"/>
       <use x="255.76171875" xlink:href="#LiberationSans-31"/>
       <use x="311.376953125" xlink:href="#LiberationSans-30"/>
       <use x="366.9921875" xlink:href="#LiberationSans-2d"/>
       <use x="400.29296875" xlink:href="#LiberationSans-31"/>
       <use x="455.908203125" xlink:href="#LiberationSans-30"/>
       <use x="511.5234375" xlink:href="#LiberationSans-20"/>
       <use x="539.306640625" xlink:href="#LiberationSans-32"/>
       <use x="594.921875" xlink:href="#LiberationSans-31"/>
       <use x="650.537109375" xlink:href="#LiberationSans-3a"/>
       <use x="678.3203125" xlink:href="#LiberationSans-30"/>
       <use x="733.935546875" xlink:href="#LiberationSans-36"/>
       <use x="789.55078125" xlink:href="#LiberationSans-3a"/>
       <use x="817.333984375" xlink:href="#LiberationSans-30"/>
       <use x="872.94921875" xlink:href="#LiberationSans-30"/>
      </g>
     </g>
    </g>
    <g id="xtick_3">
     <g id="line2d_7">
      <path clip-path="url(#p7858b0b645)" d="M 295.311656 356.4 
L 295.311656 39.6 
" style="fill:none;stroke:#ffffff;stroke-linecap:round;"/>
     </g>
     <g id="line2d_8"/>
     <g id="line2d_9"/>
     <g id="text_3">
      <!-- 2016-10-11 23:10:00 -->
      <defs>
       <path d="M 51.21875 19 
Q 51.21875 14.265625 49.671875 10.546875 
Q 48.140625 6.84375 45.1875 4.265625 
Q 42.234375 1.703125 37.859375 0.359375 
Q 33.5 -0.984375 27.875 -0.984375 
Q 21.484375 -0.984375 17.109375 0.609375 
Q 12.75 2.203125 9.90625 4.8125 
Q 7.078125 7.421875 5.65625 10.765625 
Q 4.25 14.109375 3.8125 17.671875 
L 12.890625 18.5 
Q 13.28125 15.765625 14.328125 13.515625 
Q 15.375 11.28125 17.1875 9.671875 
Q 19 8.0625 21.625 7.171875 
Q 24.265625 6.296875 27.875 6.296875 
Q 34.515625 6.296875 38.296875 9.5625 
Q 42.09375 12.84375 42.09375 19.28125 
Q 42.09375 23.09375 40.40625 25.40625 
Q 38.71875 27.734375 36.203125 29.03125 
Q 33.6875 30.328125 30.734375 30.765625 
Q 27.78125 31.203125 25.296875 31.203125 
L 20.3125 31.203125 
L 20.3125 38.8125 
L 25.09375 38.8125 
Q 27.59375 38.8125 30.265625 39.328125 
Q 32.953125 39.84375 35.171875 41.1875 
Q 37.40625 42.53125 38.84375 44.828125 
Q 40.28125 47.125 40.28125 50.6875 
Q 40.28125 56.203125 37.03125 59.390625 
Q 33.796875 62.59375 27.390625 62.59375 
Q 21.578125 62.59375 17.984375 59.609375 
Q 14.40625 56.640625 13.8125 51.21875 
L 4.984375 51.90625 
Q 5.515625 56.453125 7.46875 59.8125 
Q 9.421875 63.1875 12.421875 65.40625 
Q 15.4375 67.625 19.28125 68.71875 
Q 23.140625 69.828125 27.484375 69.828125 
Q 33.25 69.828125 37.390625 68.375 
Q 41.546875 66.9375 44.1875 64.46875 
Q 46.828125 62.015625 48.0625 58.6875 
Q 49.3125 55.375 49.3125 51.609375 
Q 49.3125 48.578125 48.484375 45.9375 
Q 47.65625 43.3125 45.890625 41.203125 
Q 44.140625 39.109375 41.421875 37.59375 
Q 38.71875 36.078125 34.90625 35.296875 
L 34.90625 35.109375 
Q 39.0625 34.671875 42.140625 33.21875 
Q 45.21875 31.78125 47.21875 29.625 
Q 49.21875 27.484375 50.21875 24.75 
Q 51.21875 22.015625 51.21875 19 
" id="LiberationSans-33"/>
      </defs>
      <g style="fill:#262626;" transform="translate(248.888218328 370.646875)scale(0.1 -0.1)">
       <use xlink:href="#LiberationSans-32"/>
       <use x="55.615234375" xlink:href="#LiberationSans-30"/>
       <use x="111.23046875" xlink:href="#LiberationSans-31"/>
       <use x="166.845703125" xlink:href="#LiberationSans-36"/>
       <use x="222.4609375" xlink:href="#LiberationSans-2d"/>
       <use x="255.76171875" xlink:href="#LiberationSans-31"/>
       <use x="311.376953125" xlink:href="#LiberationSans-30"/>
       <use x="366.9921875" xlink:href="#LiberationSans-2d"/>
       <use x="400.29296875" xlink:href="#LiberationSans-31"/>
       <use x="455.908203125" xlink:href="#LiberationSans-31"/>
       <use x="511.5234375" xlink:href="#LiberationSans-20"/>
       <use x="539.306640625" xlink:href="#LiberationSans-32"/>
       <use x="594.921875" xlink:href="#LiberationSans-33"/>
       <use x="650.537109375" xlink:href="#LiberationSans-3a"/>
       <use x="678.3203125" xlink:href="#LiberationSans-31"/>
       <use x="733.935546875" xlink:href="#LiberationSans-30"/>
       <use x="789.55078125" xlink:href="#LiberationSans-3a"/>
       <use x="817.333984375" xlink:href="#LiberationSans-30"/>
       <use x="872.94921875" xlink:href="#LiberationSans-30"/>
      </g>
     </g>
    </g>
    <g id="xtick_4">
     <g id="line2d_10">
      <path clip-path="url(#p7858b0b645)" d="M 406.967484 356.4 
L 406.967484 39.6 
" style="fill:none;stroke:#ffffff;stroke-linecap:round;"/>
     </g>
     <g id="line2d_11"/>
     <g id="line2d_12"/>
     <g id="text_4">
      <!-- 2016-10-13 10:59:00 -->
      <g style="fill:#262626;" transform="translate(360.544046242 370.646875)scale(0.1 -0.1)">
       <use xlink:href="#LiberationSans-32"/>
       <use x="55.615234375" xlink:href="#LiberationSans-30"/>
       <use x="111.23046875" xlink:href="#LiberationSans-31"/>
       <use x="166.845703125" xlink:href="#LiberationSans-36"/>
       <use x="222.4609375" xlink:href="#LiberationSans-2d"/>
       <use x="255.76171875" xlink:href="#LiberationSans-31"/>
       <use x="311.376953125" xlink:href="#LiberationSans-30"/>
       <use x="366.9921875" xlink:href="#LiberationSans-2d"/>
       <use x="400.29296875" xlink:href="#LiberationSans-31"/>
       <use x="455.908203125" xlink:href="#LiberationSans-33"/>
       <use x="511.5234375" xlink:href="#LiberationSans-20"/>
       <use x="539.306640625" xlink:href="#LiberationSans-31"/>
       <use x="594.921875" xlink:href="#LiberationSans-30"/>
       <use x="650.537109375" xlink:href="#LiberationSans-3a"/>
       <use x="678.3203125" xlink:href="#LiberationSans-35"/>
       <use x="733.935546875" xlink:href="#LiberationSans-39"/>
       <use x="789.55078125" xlink:href="#LiberationSans-3a"/>
       <use x="817.333984375" xlink:href="#LiberationSans-30"/>
       <use x="872.94921875" xlink:href="#LiberationSans-30"/>
      </g>
     </g>
    </g>
    <g id="text_5">
     <!-- time -->
     <defs>
      <path d="M 13.484375 24.5625 
Q 13.484375 20.40625 14.328125 16.90625 
Q 15.1875 13.421875 16.96875 10.90625 
Q 18.75 8.40625 21.53125 7 
Q 24.3125 5.609375 28.21875 5.609375 
Q 33.9375 5.609375 37.375 7.90625 
Q 40.828125 10.203125 42.046875 13.71875 
L 49.75 11.53125 
Q 48.921875 9.328125 47.4375 7.109375 
Q 45.953125 4.890625 43.453125 3.09375 
Q 40.96875 1.3125 37.234375 0.15625 
Q 33.5 -0.984375 28.21875 -0.984375 
Q 16.5 -0.984375 10.375 6 
Q 4.25 12.984375 4.25 26.765625 
Q 4.25 34.1875 6.09375 39.328125 
Q 7.953125 44.484375 11.171875 47.703125 
Q 14.40625 50.921875 18.703125 52.359375 
Q 23 53.8125 27.875 53.8125 
Q 34.515625 53.8125 38.984375 51.65625 
Q 43.453125 49.515625 46.15625 45.71875 
Q 48.875 41.9375 50.015625 36.8125 
Q 51.171875 31.6875 51.171875 25.734375 
L 51.171875 24.5625 
z
M 42.09375 31.296875 
Q 41.359375 39.65625 37.84375 43.484375 
Q 34.328125 47.3125 27.734375 47.3125 
Q 25.53125 47.3125 23.109375 46.609375 
Q 20.703125 45.90625 18.65625 44.09375 
Q 16.609375 42.28125 15.1875 39.171875 
Q 13.765625 36.078125 13.578125 31.296875 
z
" id="LiberationSans-65"/>
      <path d="M 6.6875 64.0625 
L 6.6875 72.46875 
L 15.484375 72.46875 
L 15.484375 64.0625 
z
M 6.6875 0 
L 6.6875 52.828125 
L 15.484375 52.828125 
L 15.484375 0 
z
" id="LiberationSans-69"/>
      <path d="M 27.046875 0.390625 
Q 25.046875 -0.140625 22.96875 -0.453125 
Q 20.90625 -0.78125 18.171875 -0.78125 
Q 7.625 -0.78125 7.625 11.1875 
L 7.625 46.4375 
L 1.515625 46.4375 
L 1.515625 52.828125 
L 7.953125 52.828125 
L 10.546875 64.65625 
L 16.40625 64.65625 
L 16.40625 52.828125 
L 26.171875 52.828125 
L 26.171875 46.4375 
L 16.40625 46.4375 
L 16.40625 13.09375 
Q 16.40625 9.28125 17.640625 7.734375 
Q 18.890625 6.203125 21.96875 6.203125 
Q 23.25 6.203125 24.4375 6.390625 
Q 25.640625 6.59375 27.046875 6.890625 
z
" id="LiberationSans-74"/>
      <path d="M 37.5 0 
L 37.5 33.5 
Q 37.5 37.359375 37.015625 39.9375 
Q 36.53125 42.53125 35.375 44.109375 
Q 34.234375 45.703125 32.375 46.359375 
Q 30.515625 47.015625 27.828125 47.015625 
Q 25.046875 47.015625 22.796875 45.921875 
Q 20.5625 44.828125 18.96875 42.75 
Q 17.390625 40.671875 16.53125 37.625 
Q 15.671875 34.578125 15.671875 30.609375 
L 15.671875 0 
L 6.9375 0 
L 6.9375 41.546875 
Q 6.9375 43.21875 6.90625 45.046875 
Q 6.890625 46.875 6.828125 48.5 
Q 6.78125 50.140625 6.734375 51.3125 
Q 6.6875 52.484375 6.640625 52.828125 
L 14.9375 52.828125 
Q 14.984375 52.59375 15.03125 51.515625 
Q 15.09375 50.4375 15.15625 49.046875 
Q 15.234375 47.65625 15.28125 46.21875 
Q 15.328125 44.78125 15.328125 43.796875 
L 15.484375 43.796875 
Q 16.65625 46.09375 18.015625 47.953125 
Q 19.390625 49.8125 21.21875 51.09375 
Q 23.046875 52.390625 25.40625 53.09375 
Q 27.78125 53.8125 30.90625 53.8125 
Q 36.921875 53.8125 40.40625 51.421875 
Q 43.890625 49.03125 45.265625 43.796875 
L 45.40625 43.796875 
Q 46.578125 46.09375 48.046875 47.953125 
Q 49.515625 49.8125 51.46875 51.09375 
Q 53.421875 52.390625 55.859375 53.09375 
Q 58.296875 53.8125 61.421875 53.8125 
Q 65.4375 53.8125 68.328125 52.734375 
Q 71.234375 51.65625 73.09375 49.40625 
Q 74.953125 47.171875 75.828125 43.625 
Q 76.703125 40.09375 76.703125 35.203125 
L 76.703125 0 
L 68.015625 0 
L 68.015625 33.5 
Q 68.015625 37.359375 67.53125 39.9375 
Q 67.046875 42.53125 65.890625 44.109375 
Q 64.75 45.703125 62.890625 46.359375 
Q 61.03125 47.015625 58.34375 47.015625 
Q 55.5625 47.015625 53.3125 45.96875 
Q 51.078125 44.921875 49.484375 42.875 
Q 47.90625 40.828125 47.046875 37.75 
Q 46.1875 34.671875 46.1875 30.609375 
L 46.1875 0 
z
" id="LiberationSans-6d"/>
     </defs>
     <g style="fill:#262626;" transform="translate(284.81015625 385.6934375)scale(0.11 -0.11)">
      <use xlink:href="#LiberationSans-74"/>
      <use x="27.783203125" xlink:href="#LiberationSans-69"/>
      <use x="50.0" xlink:href="#LiberationSans-6d"/>
      <use x="133.30078125" xlink:href="#LiberationSans-65"/>
     </g>
    </g>
   </g>
   <g id="matplotlib.axis_2">
    <g id="ytick_1">
     <g id="line2d_13">
      <path clip-path="url(#p7858b0b645)" d="M 72 356.4 
L 518.4 356.4 
" style="fill:none;stroke:#ffffff;stroke-linecap:round;"/>
     </g>
     <g id="line2d_14"/>
     <g id="line2d_15"/>
     <g id="text_6">
      <!-- −850 -->
      <defs>
       <path d="M 51.265625 19.1875 
Q 51.265625 14.796875 49.875 11.109375 
Q 48.484375 7.421875 45.625 4.734375 
Q 42.78125 2.046875 38.328125 0.53125 
Q 33.890625 -0.984375 27.828125 -0.984375 
Q 21.78125 -0.984375 17.359375 0.53125 
Q 12.9375 2.046875 10.03125 4.703125 
Q 7.125 7.375 5.734375 11.0625 
Q 4.34375 14.75 4.34375 19.09375 
Q 4.34375 22.859375 5.484375 25.78125 
Q 6.640625 28.71875 8.5625 30.828125 
Q 10.5 32.953125 12.96875 34.25 
Q 15.4375 35.546875 18.0625 35.984375 
L 18.0625 36.1875 
Q 15.1875 36.859375 12.90625 38.375 
Q 10.640625 39.890625 9.09375 42.015625 
Q 7.5625 44.140625 6.75 46.71875 
Q 5.953125 49.3125 5.953125 52.203125 
Q 5.953125 55.8125 7.34375 59 
Q 8.734375 62.203125 11.46875 64.625 
Q 14.203125 67.046875 18.25 68.4375 
Q 22.3125 69.828125 27.640625 69.828125 
Q 33.25 69.828125 37.375 68.40625 
Q 41.5 67 44.203125 64.578125 
Q 46.921875 62.15625 48.234375 58.9375 
Q 49.5625 55.71875 49.5625 52.09375 
Q 49.5625 49.265625 48.75 46.671875 
Q 47.953125 44.09375 46.40625 41.96875 
Q 44.875 39.84375 42.59375 38.34375 
Q 40.328125 36.859375 37.359375 36.28125 
L 37.359375 36.078125 
Q 40.328125 35.59375 42.859375 34.296875 
Q 45.40625 33.015625 47.265625 30.890625 
Q 49.125 28.765625 50.1875 25.828125 
Q 51.265625 22.90625 51.265625 19.1875 
M 40.4375 51.609375 
Q 40.4375 54.203125 39.765625 56.34375 
Q 39.109375 58.5 37.59375 60.03125 
Q 36.078125 61.578125 33.640625 62.421875 
Q 31.203125 63.28125 27.640625 63.28125 
Q 24.171875 63.28125 21.78125 62.421875 
Q 19.390625 61.578125 17.84375 60.03125 
Q 16.3125 58.5 15.625 56.34375 
Q 14.9375 54.203125 14.9375 51.609375 
Q 14.9375 49.5625 15.46875 47.40625 
Q 16.015625 45.265625 17.421875 43.5 
Q 18.84375 41.75 21.328125 40.625 
Q 23.828125 39.5 27.734375 39.5 
Q 31.890625 39.5 34.40625 40.625 
Q 36.921875 41.75 38.25 43.5 
Q 39.59375 45.265625 40.015625 47.40625 
Q 40.4375 49.5625 40.4375 51.609375 
M 42.140625 20.015625 
Q 42.140625 22.515625 41.453125 24.828125 
Q 40.765625 27.15625 39.109375 28.9375 
Q 37.453125 30.71875 34.640625 31.8125 
Q 31.84375 32.90625 27.640625 32.90625 
Q 23.78125 32.90625 21.0625 31.8125 
Q 18.359375 30.71875 16.671875 28.90625 
Q 14.984375 27.09375 14.203125 24.71875 
Q 13.421875 22.359375 13.421875 19.828125 
Q 13.421875 16.65625 14.203125 14.03125 
Q 14.984375 11.421875 16.6875 9.546875 
Q 18.40625 7.671875 21.1875 6.640625 
Q 23.96875 5.609375 27.9375 5.609375 
Q 31.9375 5.609375 34.671875 6.640625 
Q 37.40625 7.671875 39.0625 9.546875 
Q 40.71875 11.421875 41.421875 14.078125 
Q 42.140625 16.75 42.140625 20.015625 
" id="LiberationSans-38"/>
       <path d="M 4.9375 29.6875 
L 4.9375 36.8125 
L 53.515625 36.8125 
L 53.515625 29.6875 
z
" id="LiberationSans-2212"/>
      </defs>
      <g style="fill:#262626;" transform="translate(42.4765625 358.9859375)scale(0.1 -0.1)">
       <use xlink:href="#LiberationSans-2212"/>
       <use x="58.3984375" xlink:href="#LiberationSans-38"/>
       <use x="114.013671875" xlink:href="#LiberationSans-35"/>
       <use x="169.62890625" xlink:href="#LiberationSans-30"/>
      </g>
     </g>
    </g>
    <g id="ytick_2">
     <g id="line2d_16">
      <path clip-path="url(#p7858b0b645)" d="M 72 321.2 
L 518.4 321.2 
" style="fill:none;stroke:#ffffff;stroke-linecap:round;"/>
     </g>
     <g id="line2d_17"/>
     <g id="line2d_18"/>
     <g id="text_7">
      <!-- −840 -->
      <defs>
       <path d="M 43.015625 15.578125 
L 43.015625 0 
L 34.71875 0 
L 34.71875 15.578125 
L 2.296875 15.578125 
L 2.296875 22.40625 
L 33.796875 68.796875 
L 43.015625 68.796875 
L 43.015625 22.515625 
L 52.6875 22.515625 
L 52.6875 15.578125 
z
M 34.71875 58.890625 
Q 34.625 58.640625 34.234375 57.9375 
Q 33.84375 57.234375 33.34375 56.34375 
Q 32.859375 55.46875 32.34375 54.5625 
Q 31.84375 53.65625 31.453125 53.078125 
L 13.8125 27.09375 
Q 13.578125 26.703125 13.109375 26.0625 
Q 12.640625 25.4375 12.15625 24.78125 
Q 11.671875 24.125 11.171875 23.484375 
Q 10.6875 22.859375 10.40625 22.515625 
L 34.71875 22.515625 
z
" id="LiberationSans-34"/>
      </defs>
      <g style="fill:#262626;" transform="translate(42.4765625 323.7859375)scale(0.1 -0.1)">
       <use xlink:href="#LiberationSans-2212"/>
       <use x="58.3984375" xlink:href="#LiberationSans-38"/>
       <use x="114.013671875" xlink:href="#LiberationSans-34"/>
       <use x="169.62890625" xlink:href="#LiberationSans-30"/>
      </g>
     </g>
    </g>
    <g id="ytick_3">
     <g id="line2d_19">
      <path clip-path="url(#p7858b0b645)" d="M 72 286 
L 518.4 286 
" style="fill:none;stroke:#ffffff;stroke-linecap:round;"/>
     </g>
     <g id="line2d_20"/>
     <g id="line2d_21"/>
     <g id="text_8">
      <!-- −830 -->
      <g style="fill:#262626;" transform="translate(42.4765625 288.5859375)scale(0.1 -0.1)">
       <use xlink:href="#LiberationSans-2212"/>
       <use x="58.3984375" xlink:href="#LiberationSans-38"/>
       <use x="114.013671875" xlink:href="#LiberationSans-33"/>
       <use x="169.62890625" xlink:href="#LiberationSans-30"/>
      </g>
     </g>
    </g>
    <g id="ytick_4">
     <g id="line2d_22">
      <path clip-path="url(#p7858b0b645)" d="M 72 250.8 
L 518.4 250.8 
" style="fill:none;stroke:#ffffff;stroke-linecap:round;"/>
     </g>
     <g id="line2d_23"/>
     <g id="line2d_24"/>
     <g id="text_9">
      <!-- −820 -->
      <g style="fill:#262626;" transform="translate(42.4765625 253.3859375)scale(0.1 -0.1)">
       <use xlink:href="#LiberationSans-2212"/>
       <use x="58.3984375" xlink:href="#LiberationSans-38"/>
       <use x="114.013671875" xlink:href="#LiberationSans-32"/>
       <use x="169.62890625" xlink:href="#LiberationSans-30"/>
      </g>
     </g>
    </g>
    <g id="ytick_5">
     <g id="line2d_25">
      <path clip-path="url(#p7858b0b645)" d="M 72 215.6 
L 518.4 215.6 
" style="fill:none;stroke:#ffffff;stroke-linecap:round;"/>
     </g>
     <g id="line2d_26"/>
     <g id="line2d_27"/>
     <g id="text_10">
      <!-- −810 -->
      <g style="fill:#262626;" transform="translate(42.4765625 218.1859375)scale(0.1 -0.1)">
       <use xlink:href="#LiberationSans-2212"/>
       <use x="58.3984375" xlink:href="#LiberationSans-38"/>
       <use x="114.013671875" xlink:href="#LiberationSans-31"/>
       <use x="169.62890625" xlink:href="#LiberationSans-30"/>
      </g>
     </g>
    </g>
    <g id="ytick_6">
     <g id="line2d_28">
      <path clip-path="url(#p7858b0b645)" d="M 72 180.4 
L 518.4 180.4 
" style="fill:none;stroke:#ffffff;stroke-linecap:round;"/>
     </g>
     <g id="line2d_29"/>
     <g id="line2d_30"/>
     <g id="text_11">
      <!-- −800 -->
      <g style="fill:#262626;" transform="translate(42.4765625 182.9859375)scale(0.1 -0.1)">
       <use xlink:href="#LiberationSans-2212"/>
       <use x="58.3984375" xlink:href="#LiberationSans-38"/>
       <use x="114.013671875" xlink:href="#LiberationSans-30"/>
       <use x="169.62890625" xlink:href="#LiberationSans-30"/>
      </g>
     </g>
    </g>
    <g id="ytick_7">
     <g id="line2d_31">
      <path clip-path="url(#p7858b0b645)" d="M 72 145.2 
L 518.4 145.2 
" style="fill:none;stroke:#ffffff;stroke-linecap:round;"/>
     </g>
     <g id="line2d_32"/>
     <g id="line2d_33"/>
     <g id="text_12">
      <!-- −790 -->
      <defs>
       <path d="M 50.59375 61.671875 
Q 45.40625 53.765625 41.0625 46.453125 
Q 36.71875 39.15625 33.59375 31.75 
Q 30.46875 24.359375 28.734375 16.578125 
Q 27 8.796875 27 0 
L 17.828125 0 
Q 17.828125 8.25 19.78125 16.1875 
Q 21.734375 24.125 25.046875 31.765625 
Q 28.375 39.40625 32.765625 46.78125 
Q 37.15625 54.15625 42.09375 61.328125 
L 5.125 61.328125 
L 5.125 68.796875 
L 50.59375 68.796875 
z
" id="LiberationSans-37"/>
      </defs>
      <g style="fill:#262626;" transform="translate(42.4765625 147.7859375)scale(0.1 -0.1)">
       <use xlink:href="#LiberationSans-2212"/>
       <use x="58.3984375" xlink:href="#LiberationSans-37"/>
       <use x="114.013671875" xlink:href="#LiberationSans-39"/>
       <use x="169.62890625" xlink:href="#LiberationSans-30"/>
      </g>
     </g>
    </g>
    <g id="ytick_8">
     <g id="line2d_34">
      <path clip-path="url(#p7858b0b645)" d="M 72 110 
L 518.4 110 
" style="fill:none;stroke:#ffffff;stroke-linecap:round;"/>
     </g>
     <g id="line2d_35"/>
     <g id="line2d_36"/>
     <g id="text_13">
      <!-- −780 -->
      <g style="fill:#262626;" transform="translate(42.4765625 112.5859375)scale(0.1 -0.1)">
       <use xlink:href="#LiberationSans-2212"/>
       <use x="58.3984375" xlink:href="#LiberationSans-37"/>
       <use x="114.013671875" xlink:href="#LiberationSans-38"/>
       <use x="169.62890625" xlink:href="#LiberationSans-30"/>
      </g>
     </g>
    </g>
    <g id="ytick_9">
     <g id="line2d_37">
      <path clip-path="url(#p7858b0b645)" d="M 72 74.8 
L 518.4 74.8 
" style="fill:none;stroke:#ffffff;stroke-linecap:round;"/>
     </g>
     <g id="line2d_38"/>
     <g id="line2d_39"/>
     <g id="text_14">
      <!-- −770 -->
      <g style="fill:#262626;" transform="translate(42.4765625 77.3859375)scale(0.1 -0.1)">
       <use xlink:href="#LiberationSans-2212"/>
       <use x="58.3984375" xlink:href="#LiberationSans-37"/>
       <use x="114.013671875" xlink:href="#LiberationSans-37"/>
       <use x="169.62890625" xlink:href="#LiberationSans-30"/>
      </g>
     </g>
    </g>
    <g id="ytick_10">
     <g id="line2d_40">
      <path clip-path="url(#p7858b0b645)" d="M 72 39.6 
L 518.4 39.6 
" style="fill:none;stroke:#ffffff;stroke-linecap:round;"/>
     </g>
     <g id="line2d_41"/>
     <g id="line2d_42"/>
     <g id="text_15">
      <!-- −760 -->
      <g style="fill:#262626;" transform="translate(42.4765625 42.1859375)scale(0.1 -0.1)">
       <use xlink:href="#LiberationSans-2212"/>
       <use x="58.3984375" xlink:href="#LiberationSans-37"/>
       <use x="114.013671875" xlink:href="#LiberationSans-36"/>
       <use x="169.62890625" xlink:href="#LiberationSans-30"/>
      </g>
     </g>
    </g>
   </g>
   <g id="line2d_43">
    <path clip-path="url(#p7858b0b645)" d="M 72 328.803871 
L 72.223312 330.832891 
L 72.446623 330.832891 
L 72.669935 338.116606 
L 72.893247 332.522491 
L 73.116558 330.832891 
L 73.33987 330.832891 
L 73.563182 339.841406 
L 73.786493 341.531006 
L 74.009805 344.980606 
L 74.233117 339.841406 
L 74.456428 339.841406 
L 74.67974 332.942206 
L 74.903052 338.116606 
L 75.349675 321.939871 
L 75.572986 320.215071 
L 75.796298 332.522491 
L 76.01961 285.566392 
L 76.242921 289.015992 
L 76.466233 276.253656 
L 76.689545 285.566392 
L 76.912856 272.839256 
L 77.136168 278.398171 
L 77.35948 265.671036 
L 77.806103 279.703256 
L 78.029415 279.703256 
L 78.476038 267.360636 
L 78.922661 236.616471 
L 79.145973 261.801721 
L 79.369285 260.076921 
L 79.592596 253.212921 
L 79.815908 257.082236 
L 80.03922 253.212921 
L 80.262531 260.496636 
L 80.709155 244.204406 
L 80.932466 231.442071 
L 81.155778 244.204406 
L 81.37909 234.891671 
L 81.602401 233.586586 
L 81.825713 240.754806 
L 82.049025 233.586586 
L 82.272336 242.899321 
L 82.495648 234.310521 
L 82.718959 236.035321 
L 82.942271 236.035321 
L 83.165583 239.484921 
L 83.388894 232.201206 
L 83.612206 241.209721 
L 83.835518 256.662521 
L 84.058829 245.929206 
L 84.282141 260.076921 
L 84.505453 253.212921 
L 84.728764 256.662521 
L 84.952076 244.204406 
L 85.175388 254.518006 
L 85.398699 249.039386 
L 85.622011 265.671036 
L 85.845323 249.763321 
L 86.068634 245.929206 
L 86.291946 253.212921 
L 86.515258 242.479606 
L 86.738569 248.073721 
L 86.961881 245.929206 
L 87.185193 245.929206 
L 87.408504 266.521206 
L 87.631816 255.903386 
L 87.855128 275.110006 
L 88.078439 274.805786 
L 88.301751 283.394586 
L 88.525063 279.525271 
L 88.971686 292.707321 
L 89.194997 292.707321 
L 89.418309 297.846521 
L 89.864932 266.940921 
L 90.088244 273.385206 
L 90.311556 261.077786 
L 90.534867 262.767386 
L 90.758179 281.974006 
L 90.981491 283.698806 
L 91.204802 279.944986 
L 91.428114 281.974006 
L 91.651426 290.982521 
L 91.874737 290.982521 
L 92.321361 275.110006 
L 92.544672 276.834806 
L 92.767984 269.666586 
L 92.991296 269.666586 
L 93.214607 271.356186 
L 93.437919 285.423606 
L 93.661231 278.220186 
L 93.884542 274.805786 
L 94.107854 260.203157 
L 94.331166 270.936471 
L 94.554477 270.936471 
L 94.777789 274.805786 
L 95.001101 275.110006 
L 95.224412 280.668921 
L 95.671036 280.668921 
L 95.894347 275.529721 
L 96.117659 286.263036 
L 96.34097 268.246006 
L 96.564282 273.804921 
L 97.010905 261.077786 
L 97.234217 261.077786 
L 97.457529 264.492186 
L 97.68084 275.110006 
L 97.904152 262.767386 
L 98.127464 269.970806 
L 98.350775 268.246006 
L 98.574087 261.077786 
L 98.797399 264.492186 
L 99.244022 261.077786 
L 99.467334 266.521206 
L 99.690645 257.628186 
L 99.913957 254.213786 
L 100.36058 266.521206 
L 100.583892 263.106806 
L 100.807204 264.796406 
L 101.030515 254.213786 
L 101.477139 265.216121 
L 101.70045 265.216121 
L 101.923762 256.207606 
L 102.147074 265.216121 
L 102.593697 254.213786 
L 103.04032 259.352986 
L 103.263632 250.344471 
L 103.486943 248.619671 
L 103.710255 255.903386 
L 104.156878 248.619671 
L 104.38019 239.611157 
L 104.603502 241.335957 
L 104.826813 254.213786 
L 105.050125 252.488986 
L 105.273437 240.030871 
L 105.496748 241.755671 
L 105.72006 249.039386 
L 105.943372 250.764186 
L 106.166683 250.764186 
L 106.389995 240.030871 
L 106.613307 251.068406 
L 106.836618 252.488986 
L 107.05993 259.657206 
L 107.729865 236.196757 
L 107.953177 237.886357 
L 108.176488 236.196757 
L 108.3998 221.709621 
L 108.623112 228.993336 
L 108.846423 232.442936 
L 109.293047 232.442936 
L 109.516358 235.857336 
L 109.73967 234.167736 
L 109.962981 225.159221 
L 110.186293 232.023221 
L 110.409605 224.739507 
L 110.856228 237.582136 
L 111.07954 215.846486 
L 111.302851 226.429107 
L 111.526163 228.573621 
L 111.749475 228.573621 
L 111.972786 217.840307 
L 112.196098 219.565107 
L 112.41941 238.887221 
L 112.642721 244.026421 
L 113.089345 217.116371 
L 113.312656 213.701971 
L 113.535968 228.153907 
L 113.75928 217.116371 
L 113.982591 194.075636 
L 114.205903 201.359351 
L 114.429215 203.084151 
L 114.652526 206.837971 
L 114.875838 206.837971 
L 115.09915 205.113171 
L 115.322461 210.252371 
L 115.545773 203.084151 
L 115.769085 222.710486 
L 115.992396 217.536086 
L 116.215708 226.848821 
L 116.43902 230.298421 
L 116.662331 217.840307 
L 116.885643 221.709621 
L 117.108954 221.709621 
L 117.332266 231.022357 
L 117.555578 214.845621 
L 117.778889 216.570421 
L 118.002201 212.701107 
L 118.225513 212.701107 
L 118.672136 216.570421 
L 118.895448 225.578936 
L 119.342071 210.976307 
L 119.565383 214.845621 
L 119.788694 207.561907 
L 120.012006 216.570421 
L 120.235318 218.295221 
L 120.681941 214.425907 
L 120.905253 196.524371 
L 121.128564 207.257686 
L 121.351876 202.083286 
L 121.575188 200.393686 
L 121.798499 207.561907 
L 122.021811 196.944086 
L 122.245123 205.837107 
L 122.468434 205.837107 
L 122.691746 209.286707 
L 122.915058 209.286707 
L 123.138369 215.265336 
L 123.361681 206.676536 
L 123.584992 215.569557 
L 123.808304 215.569557 
L 124.031616 212.574871 
L 124.254927 196.398136 
L 124.701551 208.401336 
L 124.924862 188.355286 
L 125.148174 190.080086 
L 125.371486 190.080086 
L 125.594797 188.659507 
L 125.818109 183.216086 
L 126.264732 194.253621 
L 126.488044 185.245107 
L 126.934667 189.079221 
L 127.157979 195.943221 
L 127.604602 185.245107 
L 127.827914 190.804021 
L 128.051226 176.656307 
L 128.274537 176.656307 
L 128.497849 166.342707 
L 128.721161 168.906936 
L 128.944472 165.037621 
L 129.167784 177.495736 
L 130.061031 143.175736 
L 130.284342 139.306421 
L 130.507654 128.573107 
L 130.730965 125.158707 
L 130.954277 114.540886 
L 131.177589 121.709107 
L 131.4009 77.495221 
L 131.624212 120.582006 
L 131.847524 126.176121 
L 132.070835 139.904121 
L 132.294147 143.318521 
L 132.517459 136.454521 
L 132.74077 135.730586 
L 132.964082 141.755157 
L 133.187394 121.709107 
L 133.410705 65.440272 
L 133.857329 78.444336 
L 134.08064 104.934672 
L 134.303952 85.728051 
L 134.527264 96.345872 
L 134.973887 80.893072 
L 135.197199 84.762386 
L 135.42051 77.443472 
L 135.643822 64.716336 
L 135.867134 78.864051 
L 136.090445 69.855536 
L 136.313757 73.724851 
L 136.537069 88.176786 
L 136.76038 80.893072 
L 136.983692 86.871701 
L 137.207004 79.587986 
L 137.430315 61.686451 
L 137.653627 70.579472 
L 137.876938 70.579472 
L 138.10025 88.596501 
L 138.323562 79.168272 
L 138.546873 81.312786 
L 138.993497 74.029072 
L 139.216808 82.617872 
L 139.44012 77.139251 
L 139.663432 84.003251 
L 139.886743 86.032272 
L 140.110055 89.177651 
L 140.333367 80.169136 
L 140.556678 99.456051 
L 140.77999 96.041651 
L 141.003302 106.320051 
L 141.226613 107.079186 
L 141.449925 103.209872 
L 141.673237 106.320051 
L 141.896548 106.659472 
L 142.343172 86.613422 
L 142.566483 97.311536 
L 142.789795 92.172336 
L 143.013107 95.202222 
L 143.236418 92.172336 
L 143.683042 106.659472 
L 143.906353 90.447536 
L 144.129665 94.316851 
L 144.352976 80.169136 
L 144.576288 92.592051 
L 144.7996 125.820151 
L 145.022911 107.803121 
L 145.246223 111.217521 
L 145.692846 123.675636 
L 145.916158 121.950836 
L 146.13947 118.116721 
L 146.362781 127.125236 
L 146.586093 118.116721 
L 147.032716 118.116721 
L 147.256028 114.667121 
L 147.925963 136.437971 
L 148.149275 138.127571 
L 148.372586 131.263571 
L 148.595898 145.750707 
L 148.81921 144.445621 
L 149.042521 142.301107 
L 149.265833 126.544086 
L 149.712456 137.581621 
L 149.935768 124.819286 
L 150.382391 133.408086 
L 150.605703 122.674771 
L 150.829015 126.544086 
L 151.052326 120.985171 
L 151.275638 122.674771 
L 151.498949 120.680951 
L 151.722261 117.535571 
L 151.945573 133.712307 
L 152.168884 140.576307 
L 152.392196 138.886707 
L 152.615508 120.985171 
L 153.062131 124.399571 
L 153.285443 135.437107 
L 153.508754 115.810771 
L 153.955378 135.437107 
L 154.178689 126.544086 
L 154.402001 136.857686 
L 154.625313 136.437971 
L 154.848624 132.684151 
L 155.071936 139.852371 
L 155.295248 130.959351 
L 155.518559 141.996886 
L 155.741871 132.988371 
L 155.965183 134.408951 
L 156.188494 138.127571 
L 156.411806 145.446486 
L 156.635118 132.988371 
L 156.858429 138.582486 
L 157.081741 133.408086 
L 157.305053 133.408086 
L 157.751676 150.039736 
L 157.974987 156.903736 
L 158.421611 146.590136 
L 158.644922 153.454136 
L 158.868234 151.729336 
L 159.091546 153.454136 
L 159.314857 160.622357 
L 159.538169 151.729336 
L 159.761481 153.454136 
L 159.984792 160.622357 
L 160.208104 162.347157 
L 160.431416 153.454136 
L 160.654727 168.360986 
L 160.878039 161.077271 
L 161.101351 166.940406 
L 161.324662 166.940406 
L 161.547974 154.937206 
L 161.771286 164.911386 
L 161.994597 161.496986 
L 162.217909 162.766871 
L 162.441221 160.622357 
L 162.664532 166.216471 
L 162.887844 175.224986 
L 163.111156 175.224986 
L 163.334467 167.941271 
L 163.557779 167.941271 
L 164.004402 159.352471 
L 164.227714 161.077271 
L 164.451026 155.902871 
L 164.674337 181.543036 
L 164.897649 175.948921 
L 165.12096 186.986456 
L 165.344272 188.407036 
L 166.014207 211.751992 
L 166.46083 211.751992 
L 166.684142 204.583771 
L 166.907454 215.201592 
L 167.130765 200.714456 
L 167.354077 195.271036 
L 167.577389 202.439256 
L 168.024012 188.407036 
L 168.247324 184.957436 
L 168.470635 186.682236 
L 168.693947 182.812921 
L 169.14057 182.812921 
L 169.363882 188.407036 
L 169.587194 182.812921 
L 169.810505 188.407036 
L 170.033817 188.407036 
L 170.257129 173.804406 
L 170.48044 173.804406 
L 170.703752 181.088121 
L 170.927064 177.673721 
L 171.150375 181.088121 
L 171.373687 181.088121 
L 171.596998 177.673721 
L 171.82031 184.957436 
L 172.043622 174.224121 
L 172.266933 179.398521 
L 172.490245 177.673721 
L 172.713557 186.682236 
L 172.936868 190.436056 
L 173.16018 184.957436 
L 173.383492 207.998171 
L 173.606803 198.989656 
L 173.830115 197.300056 
L 174.053427 193.850456 
L 174.276738 179.398521 
L 174.50005 184.957436 
L 174.723362 193.850456 
L 174.946673 195.575256 
L 175.169985 188.407036 
L 175.393297 192.125656 
L 175.616608 183.232636 
L 175.83992 186.682236 
L 176.063232 177.673721 
L 176.286543 181.543036 
L 176.733167 173.804406 
L 176.956478 181.088121 
L 177.17979 179.398521 
L 177.626413 169.504636 
L 177.849725 169.504636 
L 178.073037 166.394456 
L 178.296348 159.530456 
L 178.51966 179.121592 
L 178.742971 175.402971 
L 178.966283 182.571192 
L 179.189595 185.985592 
L 179.412906 213.350556 
L 179.636218 195.449021 
L 179.85953 206.451356 
L 180.082841 191.999421 
L 180.306153 188.549821 
L 180.529465 177.851706 
L 180.752776 190.578842 
L 180.976088 192.723356 
L 181.1994 200.007071 
L 181.422711 184.134556 
L 181.646023 194.867871 
L 181.869335 194.867871 
L 182.315958 246.543456 
L 182.53927 244.398941 
L 182.762581 244.818656 
L 183.209205 260.610877 
L 183.432516 258.886077 
L 183.655828 256.133121 
L 183.87914 247.544321 
L 184.102451 256.133121 
L 184.325763 242.369921 
L 184.549075 240.260606 
L 184.772386 250.958721 
L 185.21901 242.369921 
L 185.442321 249.573341 
L 185.665633 239.259741 
L 185.888944 243.129056 
L 186.112256 239.679456 
L 186.335568 243.129056 
L 186.558879 252.022077 
L 186.782191 249.993056 
L 187.005503 249.993056 
L 187.228814 252.022077 
L 187.452126 239.259741 
L 187.675438 265.750077 
L 188.345373 255.436477 
L 188.568684 262.300477 
L 188.791996 264.444991 
L 189.015308 255.436477 
L 189.238619 271.728706 
L 189.461931 270.039106 
L 189.685243 248.572477 
L 189.908554 255.856191 
L 190.355178 252.022077 
L 190.578489 248.268256 
L 190.801801 253.711677 
L 191.025113 255.436477 
L 191.248424 255.436477 
L 191.471736 244.818656 
L 191.918359 253.711677 
L 192.588294 259.305791 
L 192.811606 257.580991 
L 193.034917 264.864706 
L 193.258229 282.766241 
L 193.481541 277.627041 
L 193.704852 275.902241 
L 193.928164 279.771556 
L 194.151476 274.177441 
L 194.374787 284.910756 
L 194.598099 274.177441 
L 194.821411 277.207327 
L 195.044722 284.491041 
L 195.268034 275.178306 
L 195.714657 293.079841 
L 196.161281 276.903106 
L 196.384592 293.079841 
L 196.607904 285.796127 
L 196.831216 285.796127 
L 197.054527 293.079841 
L 197.277839 282.346527 
L 197.501151 289.630241 
L 197.724462 280.621727 
L 197.947774 286.215841 
L 198.171086 296.949156 
L 198.394397 281.076641 
L 198.617709 298.978176 
L 198.841021 300.667776 
L 199.064332 291.774756 
L 199.287644 307.531776 
L 199.510955 300.363556 
L 199.734267 309.256576 
L 199.957579 296.949156 
L 200.18089 313.125891 
L 200.404202 305.842176 
L 200.627514 307.531776 
L 200.850825 316.540291 
L 201.074137 316.540291 
L 201.297449 304.117376 
L 201.52076 304.117376 
L 201.744072 334.896741 
L 201.967384 311.820806 
L 202.190695 311.820806 
L 202.414007 324.163426 
L 202.637319 316.995206 
L 202.86063 316.540291 
L 203.083942 323.859206 
L 203.530565 305.537956 
L 203.753877 308.952356 
L 203.977189 303.813156 
L 204.2005 316.120576 
L 204.423812 308.952356 
L 204.647124 314.430976 
L 204.870435 314.430976 
L 205.093747 310.981376 
L 205.317059 314.430976 
L 205.763682 298.219041 
L 205.986993 285.491906 
L 206.210305 283.347391 
L 206.656928 276.063677 
L 207.103552 287.181506 
L 207.326863 290.935327 
L 207.550175 288.906306 
L 207.996798 283.767106 
L 208.22011 283.767106 
L 208.666733 276.483391 
L 209.113357 292.660127 
L 209.336668 288.906306 
L 209.55998 287.181506 
L 209.783292 270.889277 
L 210.006603 264.025277 
L 210.229915 271.308991 
L 210.453227 266.169791 
L 210.676538 267.894591 
L 210.89985 257.161277 
L 211.123162 275.178306 
L 211.346473 275.178306 
L 211.569785 285.796127 
L 211.793097 282.346527 
L 212.016408 280.621727 
L 212.23972 272.068127 
L 212.463032 278.932127 
L 212.686343 277.207327 
L 212.909655 278.932127 
L 213.132966 286.215841 
L 213.356278 278.932127 
L 213.802901 278.932127 
L 214.026213 268.314306 
L 214.249525 268.618527 
L 214.472836 275.482527 
L 214.696148 270.343327 
L 214.91946 273.757727 
L 215.142771 273.757727 
L 215.366083 264.864706 
L 215.589395 266.589506 
L 215.812706 264.864706 
L 216.036018 253.711677 
L 216.25933 261.030591 
L 216.482641 264.444991 
L 216.705953 255.436477 
L 216.929265 257.580991 
L 217.152576 264.444991 
L 217.375888 276.903106 
L 217.5992 276.903106 
L 217.822511 287.520927 
L 218.045823 291.355041 
L 218.715758 276.903106 
L 218.93907 273.033791 
L 219.162381 262.300477 
L 219.385693 246.123741 
L 219.832316 267.474877 
L 220.055628 247.544321 
L 220.725563 238.955521 
L 220.948874 240.680321 
L 221.172186 249.993056 
L 221.395498 246.123741 
L 221.618809 246.123741 
L 221.842121 253.407456 
L 222.065433 246.123741 
L 222.288744 244.398941 
L 222.512056 219.633406 
L 222.735368 228.641921 
L 222.958679 243.129056 
L 223.181991 235.810141 
L 223.405303 241.404256 
L 223.628614 235.810141 
L 223.851926 235.810141 
L 224.075238 234.120541 
L 224.298549 244.818656 
L 224.521861 241.708477 
L 224.745173 250.716991 
L 224.968484 245.158077 
L 225.191796 248.572477 
L 225.415108 241.708477 
L 225.638419 245.158077 
L 225.861731 254.166591 
L 226.085043 248.572477 
L 226.308354 250.297277 
L 226.531666 248.572477 
L 226.754977 248.572477 
L 227.201601 263.175106 
L 227.424912 254.586306 
L 227.648224 259.725506 
L 227.871536 245.577791 
L 228.094847 255.856191 
L 228.318159 241.708477 
L 228.764782 259.725506 
L 228.988094 259.725506 
L 229.211406 263.899041 
L 229.434717 278.046756 
L 229.658029 267.313441 
L 229.881341 274.632356 
L 230.104652 276.321956 
L 230.327964 281.496356 
L 230.551276 293.803776 
L 230.774587 281.496356 
L 230.997899 295.224356 
L 231.221211 284.491041 
L 231.444522 281.076641 
L 231.667834 284.491041 
L 231.891146 284.491041 
L 232.114457 282.766241 
L 232.337769 279.351841 
L 232.561081 286.635556 
L 232.784392 273.757727 
L 233.007704 273.757727 
L 233.454327 270.343327 
L 233.677639 270.343327 
L 233.90095 283.185956 
L 234.347574 274.177441 
L 234.570885 260.029727 
L 234.794197 269.038241 
L 235.017509 265.168927 
L 235.24082 263.479327 
L 235.464132 277.207327 
L 235.687444 273.757727 
L 235.910755 266.589506 
L 236.134067 284.071327 
L 236.357379 275.178306 
L 236.58069 252.022077 
L 236.804002 248.572477 
L 237.027314 240.984541 
L 237.250625 243.129056 
L 237.473937 246.847677 
L 237.697249 239.679456 
L 238.143872 277.627041 
L 238.367184 266.589506 
L 238.590495 273.757727 
L 238.813807 275.482527 
L 239.037119 275.482527 
L 239.26043 277.627041 
L 239.483742 266.893727 
L 239.707054 265.168927 
L 239.930365 256.275906 
L 240.153677 265.168927 
L 240.376988 263.479327 
L 240.6003 266.893727 
L 240.823612 260.029727 
L 241.046923 270.763041 
L 241.270235 269.038241 
L 241.493547 272.487841 
L 241.716858 269.038241 
L 241.94017 279.771556 
L 242.163482 279.771556 
L 242.610105 276.321956 
L 242.833417 290.389376 
L 243.28004 272.487841 
L 243.503352 275.902241 
L 243.726663 266.893727 
L 243.949975 266.893727 
L 244.173287 260.029727 
L 244.396598 261.754527 
L 244.61991 261.754527 
L 244.843222 276.321956 
L 245.066533 267.313441 
L 245.736468 257.758976 
L 245.95978 256.034176 
L 246.183092 263.317891 
L 246.406403 261.628291 
L 246.629715 263.317891 
L 246.853027 266.767491 
L 247.076338 252.619776 
L 247.29965 251.314691 
L 247.522961 234.137091 
L 247.746273 237.166976 
L 247.969585 237.166976 
L 248.416208 252.619776 
L 248.63952 242.001956 
L 248.862831 240.277156 
L 249.086143 253.039491 
L 249.309455 253.459206 
L 249.532766 256.873606 
L 249.756078 269.216226 
L 249.97939 262.048006 
L 250.202701 263.772806 
L 250.426013 256.453891 
L 250.649325 263.772806 
L 250.872636 265.462406 
L 251.095948 256.453891 
L 251.31926 256.453891 
L 251.542571 263.317891 
L 251.765883 252.619776 
L 252.212506 240.581376 
L 252.435818 240.581376 
L 252.65913 258.598406 
L 252.882441 247.865091 
L 253.105753 255.184006 
L 253.329065 244.030976 
L 253.552376 253.039491 
L 253.775688 254.764291 
L 254.222311 251.314691 
L 254.445623 254.764291 
L 254.668934 253.039491 
L 254.892246 253.039491 
L 255.115558 258.598406 
L 255.338869 240.581376 
L 255.562181 244.030976 
L 255.785493 242.306176 
L 256.232116 232.993441 
L 256.455428 236.862756 
L 256.678739 227.854241 
L 256.902051 226.129441 
L 257.125363 231.688356 
L 257.348674 231.688356 
L 257.571986 228.273956 
L 257.795298 222.679841 
L 258.241921 244.030976 
L 258.465233 242.306176 
L 258.688544 238.856576 
L 258.911856 242.725891 
L 259.135168 241.001091 
L 259.358479 233.717376 
L 259.581791 244.450691 
L 259.805103 232.412291 
L 260.028414 227.273091 
L 260.251726 232.412291 
L 260.475038 223.403776 
L 260.698349 232.412291 
L 261.144972 227.273091 
L 261.814907 199.943327 
L 262.261531 212.821156 
L 262.484842 211.096356 
L 262.708154 202.087841 
L 262.931466 211.096356 
L 263.154777 195.223841 
L 263.378089 214.850176 
L 263.601401 211.400576 
L 263.824712 220.409091 
L 264.048024 214.850176 
L 264.271336 222.133891 
L 264.494647 218.684291 
L 264.717959 216.959491 
L 264.941271 228.997891 
L 265.164582 222.133891 
L 265.834517 263.915591 
L 266.057829 262.225991 
L 266.281141 277.983012 
L 266.504452 279.672612 
L 266.727764 299.414441 
L 266.951076 281.817126 
L 267.174387 290.825641 
L 267.397699 292.550441 
L 267.844322 281.093191 
L 268.067634 279.368391 
L 268.290945 295.580326 
L 268.514257 272.084676 
L 268.737569 277.678791 
L 268.96088 277.678791 
L 269.184192 268.670276 
L 269.407504 272.084676 
L 269.630815 286.571812 
L 269.854127 279.672612 
L 270.077439 283.122212 
L 270.524062 270.359876 
L 270.747374 259.661762 
L 271.193997 270.359876 
L 271.417309 266.945476 
L 271.64062 268.670276 
L 271.863932 268.670276 
L 272.087244 266.945476 
L 272.310555 266.945476 
L 272.533867 275.953991 
L 272.757179 272.504391 
L 272.98049 263.495876 
L 273.427114 266.945476 
L 273.650425 263.076162 
L 274.097049 272.084676 
L 274.32036 284.542791 
L 274.766983 271.664962 
L 274.990295 277.223876 
L 275.213607 266.525762 
L 275.436918 275.534276 
L 276.106853 248.320006 
L 276.330165 253.763426 
L 276.553477 253.763426 
L 276.776788 250.313826 
L 277.0001 268.215362 
L 277.223412 259.322341 
L 277.446723 262.771941 
L 277.670035 264.496741 
L 277.893347 255.907941 
L 278.116658 255.907941 
L 278.33997 268.670276 
L 278.563282 265.220676 
L 278.786593 257.936962 
L 279.009905 257.936962 
L 279.233217 266.945476 
L 279.456528 281.397412 
L 279.67984 277.678791 
L 279.903152 286.571812 
L 280.126463 277.678791 
L 280.349775 282.817991 
L 280.573087 281.093191 
L 280.796398 268.215362 
L 281.01971 264.800962 
L 281.243022 272.084676 
L 281.466333 273.809476 
L 281.689645 259.322341 
L 281.912956 259.322341 
L 282.136268 262.771941 
L 282.582891 266.525762 
L 282.806203 264.800962 
L 283.029515 272.084676 
L 283.252826 284.542791 
L 283.476138 275.534276 
L 283.69945 278.948676 
L 283.922761 268.215362 
L 284.146073 269.940162 
L 284.369385 278.948676 
L 284.592696 268.215362 
L 284.816008 277.223876 
L 285.262631 262.771941 
L 285.485943 275.534276 
L 285.709255 268.215362 
L 285.932566 268.215362 
L 286.155878 269.940162 
L 286.37919 273.809476 
L 286.602501 284.847012 
L 286.825813 279.368391 
L 287.049125 279.368391 
L 287.272436 289.986212 
L 287.495748 277.678791 
L 287.71906 291.711012 
L 287.942371 272.084676 
L 288.165683 270.359876 
L 288.612306 286.991526 
L 288.835618 284.847012 
L 289.058929 284.847012 
L 289.952176 263.915591 
L 290.175488 285.266726 
L 290.398799 279.672612 
L 290.622111 277.983012 
L 290.845423 279.672612 
L 291.068734 274.533412 
L 291.292046 283.541926 
L 291.515358 269.089991 
L 291.738669 263.495876 
L 291.961981 270.359876 
L 292.185293 270.359876 
L 292.408604 275.534276 
L 292.631916 275.534276 
L 293.078539 272.084676 
L 293.525163 272.084676 
L 293.748474 284.542791 
L 293.971786 284.542791 
L 294.195098 273.809476 
L 294.418409 270.359876 
L 294.641721 281.093191 
L 294.865033 270.359876 
L 295.088344 279.368391 
L 295.311656 265.220676 
L 295.534967 265.220676 
L 295.758279 263.495876 
L 295.981591 274.229191 
L 296.204902 275.953991 
L 296.428214 274.229191 
L 296.651526 261.771076 
L 296.874837 269.089991 
L 297.321461 274.229191 
L 297.544772 261.771076 
L 297.768084 272.504391 
L 297.991396 274.229191 
L 298.214707 272.504391 
L 298.438019 266.945476 
L 298.661331 257.936962 
L 298.884642 259.661762 
L 299.107954 259.661762 
L 299.331266 266.945476 
L 299.777889 245.174626 
L 300.001201 241.420806 
L 300.224512 246.899426 
L 300.447824 248.624226 
L 300.671136 235.861891 
L 301.117759 246.899426 
L 301.564382 254.183141 
L 301.787694 239.731206 
L 302.011006 252.038626 
L 302.234317 238.006406 
L 302.457629 241.420806 
L 303.127564 255.907941 
L 303.350875 255.907941 
L 303.574187 259.322341 
L 304.02081 250.768741 
L 304.467434 254.487362 
L 304.690745 254.487362 
L 305.137369 243.869541 
L 305.36068 247.319141 
L 305.583992 247.319141 
L 305.807304 241.760226 
L 306.030615 240.035426 
L 306.477239 247.865091 
L 306.70055 265.462406 
L 306.923862 267.491426 
L 307.147174 247.865091 
L 307.370485 253.039491 
L 307.817109 268.912006 
L 308.04042 268.912006 
L 308.263732 251.314691 
L 308.487044 258.598406 
L 308.710355 247.865091 
L 308.933667 249.589891 
L 309.156978 247.445376 
L 309.38029 254.764291 
L 309.603602 245.755776 
L 310.050225 258.598406 
L 310.273537 255.184006 
L 310.496848 262.352226 
L 310.72016 253.459206 
L 310.943472 262.352226 
L 311.166783 265.766626 
L 311.390095 264.077026 
L 311.836718 267.491426 
L 312.06003 267.491426 
L 312.506653 258.598406 
L 312.953277 271.360741 
L 313.176588 252.038626 
L 313.3999 262.771941 
L 313.846523 271.664962 
L 314.069835 258.902626 
L 314.293147 258.902626 
L 314.516458 265.766626 
L 314.73977 251.734406 
L 314.963082 260.627426 
L 315.186393 260.627426 
L 315.409705 262.352226 
L 315.633017 271.360741 
L 316.07964 260.627426 
L 316.302951 258.902626 
L 316.526263 266.221541 
L 316.749575 253.763426 
L 316.972886 253.763426 
L 317.196198 262.771941 
L 317.41951 261.047141 
L 317.642821 254.183141 
L 318.089445 275.953991 
L 318.312756 266.945476 
L 318.536068 275.953991 
L 318.75938 274.229191 
L 318.982691 281.397412 
L 319.206003 279.368391 
L 319.429315 286.991526 
L 319.652626 290.405926 
L 319.875938 288.681126 
L 320.09925 277.983012 
L 320.322561 279.672612 
L 320.545873 277.983012 
L 320.992496 281.397412 
L 321.215808 266.364326 
L 321.43912 268.508841 
L 321.662431 268.089126 
L 321.885743 277.401862 
L 322.109055 275.372841 
L 322.555678 284.265862 
L 322.778989 282.576262 
L 323.002301 294.999176 
L 323.225613 286.410376 
L 323.448924 320.943561 
L 323.672236 329.497161 
L 323.895548 329.497161 
L 324.118859 317.189741 
L 324.565483 343.984297 
L 324.788794 345.709097 
L 325.012106 341.955276 
L 325.235418 341.955276 
L 325.458729 336.816076 
L 325.682041 340.230476 
L 325.905353 336.396361 
L 326.351976 349.123497 
L 326.575288 349.123497 
L 327.021911 332.642541 
L 327.245223 329.192941 
L 327.468534 336.396361 
L 327.691846 327.503341 
L 327.915158 324.053741 
L 328.138469 316.770026 
L 328.361781 331.221961 
L 328.585093 327.807561 
L 328.808404 328.227276 
L 329.255028 355.441547 
L 329.478339 323.392297 
L 329.701651 332.400811 
L 329.924962 325.956526 
L 330.148274 336.958861 
L 330.818209 290.457676 
L 331.041521 283.138761 
L 331.264832 284.863561 
L 331.488144 284.863561 
L 331.711456 286.588361 
L 331.934767 290.037961 
L 332.158079 290.457676 
L 332.381391 284.863561 
L 332.604702 285.283276 
L 332.828014 267.721161 
L 333.051326 264.271561 
L 333.274637 274.585161 
L 333.497949 259.678311 
L 333.721261 255.924491 
L 333.944572 245.226376 
L 334.167884 241.357062 
L 334.391196 211.998276 
L 334.614507 230.319526 
L 334.837819 226.450212 
L 335.061131 241.052841 
L 335.284442 243.081862 
L 335.507754 228.594726 
L 335.731066 241.357062 
L 335.954377 226.869926 
L 336.177689 254.234891 
L 336.401001 246.915976 
L 336.847624 241.776776 
L 337.070935 243.501576 
L 337.294247 230.739241 
L 337.517559 239.632262 
L 337.74087 236.217862 
L 337.964182 245.226376 
L 338.187494 240.051976 
L 338.634117 260.098026 
L 338.857429 244.225511 
L 339.08074 251.509226 
L 339.304052 235.332491 
L 339.527364 254.539111 
L 339.750675 256.228711 
L 339.973987 241.357062 
L 340.197299 243.501576 
L 340.42061 238.327176 
L 340.643922 245.226376 
L 340.867234 220.005926 
L 341.090545 237.907462 
L 341.313857 231.043462 
L 341.537169 240.471691 
L 341.76048 240.051976 
L 341.983792 236.637576 
L 342.207104 237.907462 
L 342.430415 229.318662 
L 342.653727 238.327176 
L 342.877039 233.187976 
L 343.10035 219.040262 
L 343.546973 219.040262 
L 343.770285 242.500711 
L 343.993597 231.918091 
L 344.216908 226.743691 
L 344.44022 236.056426 
L 344.663532 212.595976 
L 344.886843 201.558441 
L 345.110155 210.147241 
L 345.333467 205.008041 
L 345.556778 215.286441 
L 345.78009 209.307812 
L 346.226713 218.736041 
L 346.450025 218.736041 
L 346.896648 204.553126 
L 347.566583 211.872041 
L 347.789895 215.590662 
L 348.45983 194.694441 
L 348.906453 234.366826 
L 349.129765 225.778026 
L 349.353077 245.824076 
L 349.576388 238.924876 
L 349.7997 246.128297 
L 350.023012 246.128297 
L 350.246323 245.824076 
L 350.469635 249.238476 
L 350.692946 233.365961 
L 350.916258 238.505161 
L 351.13957 252.992297 
L 351.362881 255.136811 
L 351.586193 243.098411 
L 351.809505 245.242926 
L 352.032816 228.950697 
L 352.256128 234.929326 
L 352.47944 227.225897 
L 352.702751 246.967726 
L 352.926063 220.781611 
L 353.149375 220.361897 
L 353.372686 220.361897 
L 353.595998 216.608076 
L 353.81931 216.188361 
L 354.042621 211.049161 
L 354.265933 220.057676 
L 354.712556 223.472076 
L 354.935868 218.332876 
L 355.15918 208.019276 
L 355.382491 223.811497 
L 355.605803 214.918476 
L 355.829115 218.332876 
L 356.052426 216.912297 
L 356.275738 211.773097 
L 356.49905 218.637097 
L 356.722361 210.048297 
L 356.945673 206.329676 
L 357.168984 197.321161 
L 357.392296 195.596361 
L 357.615608 195.292141 
L 358.285543 204.185161 
L 358.508854 180.689511 
L 358.732166 182.414311 
L 359.178789 166.237576 
L 359.402101 182.414311 
L 359.625413 185.863911 
L 359.848724 184.139111 
L 360.072036 187.249291 
L 360.295348 180.385291 
L 360.518659 180.385291 
L 360.741971 193.567341 
L 360.965283 184.558826 
L 361.188594 188.008426 
L 361.411906 182.414311 
L 361.635218 198.286826 
L 361.858529 187.553511 
L 362.305153 200.431341 
L 362.751776 200.431341 
L 362.975088 188.008426 
L 363.198399 199.010761 
L 363.421711 197.321161 
L 363.645023 199.465676 
L 363.868334 190.457161 
L 364.091646 199.465676 
L 364.314957 199.465676 
L 364.538269 206.633897 
L 364.761581 204.604876 
L 364.984892 192.566476 
L 365.208204 196.016076 
L 365.431516 182.288076 
L 366.101451 173.279561 
L 366.324762 164.386541 
L 366.548074 169.525741 
L 366.771386 167.800941 
L 366.994697 164.386541 
L 367.218009 166.415561 
L 367.441321 171.554761 
L 367.887944 157.102826 
L 368.111256 160.936941 
L 368.334567 157.522541 
L 368.557879 168.105161 
L 368.781191 162.965961 
L 369.004502 162.965961 
L 369.227814 164.690761 
L 369.674437 174.423211 
L 369.897749 186.881326 
L 370.121061 174.003497 
L 370.344372 177.872811 
L 370.567684 167.139497 
L 370.790995 172.698411 
L 371.014307 165.414697 
L 371.237619 165.834411 
L 371.46093 162.839726 
L 371.684242 151.686697 
L 371.907554 164.144811 
L 372.130865 144.518476 
L 372.354177 141.068876 
L 372.577489 151.686697 
L 373.024112 136.233897 
L 373.247424 141.792811 
L 373.470735 129.789611 
L 373.694047 143.937326 
L 373.917359 142.247726 
L 374.14067 143.097897 
L 375.033917 119.879176 
L 375.257229 116.849291 
L 375.48054 117.010726 
L 375.703852 122.873862 
L 375.927164 124.294441 
L 376.150475 112.291241 
L 376.373787 116.009862 
L 376.597099 123.748491 
L 376.82041 110.870662 
L 377.043722 127.162891 
L 377.267034 128.887691 
L 377.490345 138.746376 
L 377.713657 126.323462 
L 377.936968 137.476491 
L 378.383592 133.607176 
L 378.830215 151.508711 
L 379.276838 125.438091 
L 379.50015 137.476491 
L 379.946773 126.743176 
L 380.170085 137.476491 
L 380.393397 131.882376 
L 380.616708 149.783911 
L 381.063332 137.056776 
L 381.286643 137.056776 
L 381.509955 140.890891 
L 381.733267 141.195111 
L 381.956578 130.192776 
L 382.17989 140.890891 
L 382.403202 139.201291 
L 382.626513 119.879176 
L 383.073137 132.302091 
L 383.296448 139.505511 
L 383.51976 127.162891 
L 383.743072 123.748491 
L 383.966383 141.195111 
L 384.189695 122.023691 
L 384.413007 123.293576 
L 384.636318 109.145862 
L 384.85963 109.565576 
L 385.306253 99.706891 
L 385.529565 110.744426 
L 385.752876 109.985291 
L 385.976188 109.985291 
L 386.1995 100.976776 
L 386.422811 113.739111 
L 386.646123 109.985291 
L 386.869435 102.701576 
L 387.092746 103.425511 
L 387.316058 114.158826 
L 387.53937 114.158826 
L 387.762681 105.150311 
L 387.985993 117.608426 
L 388.209305 105.150311 
L 388.432616 117.608426 
L 388.655928 115.463911 
L 388.87924 112.014311 
L 389.102551 106.570891 
L 389.325863 112.014311 
L 389.549175 112.014311 
L 389.772486 103.121291 
L 389.995798 105.150311 
L 390.21911 101.431691 
L 390.442421 106.151176 
L 390.665733 117.188711 
L 390.889045 106.570891 
L 391.112356 106.875111 
L 391.335668 97.982091 
L 392.005603 108.599911 
L 392.228914 108.599911 
L 392.452226 104.426376 
L 392.675538 115.463911 
L 392.898849 112.014311 
L 393.122161 112.014311 
L 393.568784 132.480076 
L 393.792096 125.616076 
L 394.015408 148.237097 
L 394.238719 144.822697 
L 394.685343 134.204876 
L 394.908654 130.790476 
L 395.131966 120.057161 
L 395.355278 132.784297 
L 395.578589 136.233897 
L 395.801901 137.654476 
L 396.025213 143.097897 
L 396.248524 134.204876 
L 396.471836 141.068876 
L 396.695148 139.344076 
L 396.918459 149.961897 
L 397.141771 139.344076 
L 397.365083 143.097897 
L 397.588394 144.822697 
L 397.811706 148.237097 
L 398.035018 149.657676 
L 398.258329 140.344941 
L 398.481641 126.197226 
L 398.704952 130.916711 
L 398.928264 138.200426 
L 399.151576 133.061226 
L 399.374887 136.895341 
L 399.598199 138.200426 
L 399.821511 136.475626 
L 400.044822 136.055911 
L 400.268134 140.890891 
L 400.491446 138.746376 
L 400.714757 153.233511 
L 400.938069 146.065291 
L 401.161381 146.065291 
L 401.384692 168.686311 
L 401.608004 146.065291 
L 401.831316 156.647911 
L 402.054627 152.929291 
L 402.277939 139.201291 
L 402.501251 140.890891 
L 403.171186 130.612491 
L 403.394497 136.055911 
L 403.617809 137.780711 
L 403.841121 122.023691 
L 404.064432 138.200426 
L 404.287744 141.650026 
L 404.511056 125.742311 
L 404.734367 135.205741 
L 404.957679 131.756141 
L 405.18099 142.069741 
L 405.404302 120.603111 
L 405.627614 124.472426 
L 406.074237 145.484141 
L 406.297549 138.200426 
L 406.52086 150.658541 
L 406.967484 129.191911 
L 407.190795 129.191911 
L 407.414107 143.339626 
L 407.86073 134.331111 
L 408.084042 118.574091 
L 408.307354 120.298891 
L 408.753977 139.925226 
L 408.977289 132.641511 
L 409.2006 130.916711 
L 409.423912 127.467111 
L 409.647224 140.344941 
L 409.870535 138.620141 
L 410.093847 124.472426 
L 410.317159 126.616941 
L 410.54047 138.620141 
L 410.763782 119.333226 
L 410.987094 133.480941 
L 411.210405 126.197226 
L 411.433717 127.886826 
L 411.657029 120.603111 
L 411.88034 118.878311 
L 412.103652 126.197226 
L 412.326963 127.886826 
L 412.550275 138.620141 
L 412.773587 136.895341 
L 412.996898 144.098761 
L 413.22021 142.373961 
L 413.443522 135.509961 
L 413.666833 124.472426 
L 413.890145 147.513161 
L 414.113457 136.475626 
L 414.336768 147.208941 
L 414.56008 146.789226 
L 414.783392 148.094311 
L 415.006703 158.372711 
L 415.676638 137.056776 
L 415.89995 139.201291 
L 416.123262 151.928426 
L 416.346573 144.644711 
L 416.569885 132.302091 
L 416.793197 132.302091 
L 417.016508 139.925226 
L 417.23982 138.200426 
L 417.463132 141.195111 
L 417.686443 136.055911 
L 417.909755 143.339626 
L 418.133067 134.331111 
L 418.356378 130.916711 
L 418.57969 138.200426 
L 418.803002 130.916711 
L 419.026313 145.064426 
L 419.472936 134.026891 
L 419.696248 139.201291 
L 419.91956 151.508711 
L 420.142871 144.340491 
L 420.366183 128.467976 
L 420.589495 126.743176 
L 420.812806 128.467976 
L 421.036118 141.195111 
L 421.25943 142.919911 
L 421.482741 141.195111 
L 421.706053 134.026891 
L 422.152676 137.476491 
L 422.375988 134.026891 
L 422.5993 142.919911 
L 422.822611 145.064426 
L 423.045923 141.650026 
L 423.269235 131.336426 
L 423.492546 134.750826 
L 423.715858 134.750826 
L 423.93917 140.344941 
L 424.162481 136.895341 
L 424.609105 120.603111 
L 424.832416 124.052711 
L 425.055728 122.327911 
L 425.27904 124.052711 
L 425.502351 117.608426 
L 425.725663 124.472426 
L 425.948974 126.197226 
L 426.172286 136.055911 
L 426.395598 131.882376 
L 426.618909 132.302091 
L 426.842221 150.784776 
L 427.288844 130.192776 
L 427.512156 129.191911 
L 427.735468 123.748491 
L 427.958779 137.780711 
L 428.182091 132.641511 
L 428.405403 123.748491 
L 428.628714 129.191911 
L 428.852026 129.191911 
L 429.075338 132.641511 
L 429.298649 132.641511 
L 429.521961 146.369511 
L 429.745273 132.302091 
L 429.968584 137.476491 
L 430.191896 146.369511 
L 430.415208 139.505511 
L 430.638519 138.200426 
L 430.861831 145.484141 
L 431.085143 133.061226 
L 431.531766 143.759341 
L 431.755078 143.759341 
L 431.978389 147.208941 
L 432.201701 138.620141 
L 432.425013 142.069741 
L 432.648324 149.657676 
L 432.871636 145.788361 
L 433.094947 138.620141 
L 433.318259 140.649161 
L 433.541571 153.107276 
L 433.764882 149.237961 
L 433.988194 149.237961 
L 434.211506 135.509961 
L 434.434817 150.962761 
L 434.658129 154.796876 
L 434.881441 137.780711 
L 435.104752 135.751691 
L 435.328064 120.298891 
L 435.551376 137.476491 
L 435.774687 135.331976 
L 435.997999 124.598662 
L 436.221311 124.598662 
L 436.444622 129.737862 
L 436.667934 150.365062 
L 436.891246 146.915462 
L 437.114557 158.068491 
L 437.337869 145.645576 
L 437.561181 149.059976 
L 438.007804 163.547111 
L 438.454427 147.335176 
L 438.677739 151.204491 
L 438.901051 144.340491 
L 439.347674 160.097511 
L 439.570985 163.966826 
L 439.794297 163.966826 
L 440.017609 165.656426 
L 440.24092 158.792426 
L 440.464232 155.797741 
L 440.687544 162.661741 
L 440.910855 160.936941 
L 441.134167 176.693961 
L 441.357479 155.378026 
L 441.58079 164.386541 
L 441.804102 162.661741 
L 442.474037 174.664941 
L 442.697349 165.656426 
L 442.92066 176.389741 
L 443.143972 163.966826 
L 443.367284 171.250541 
L 443.590595 172.975341 
L 443.813907 158.792426 
L 444.037219 157.102826 
L 444.26053 158.792426 
L 444.483842 171.250541 
L 444.707154 166.961511 
L 445.153777 174.245226 
L 445.377089 161.822311 
L 445.6004 161.822311 
L 445.823712 160.097511 
L 446.047024 167.381226 
L 446.270335 156.647911 
L 446.493647 165.656426 
L 446.716958 157.102826 
L 446.94027 158.792426 
L 447.163582 169.525741 
L 447.386893 166.111341 
L 447.610205 167.800941 
L 447.833517 165.656426 
L 448.056828 179.839341 
L 448.726763 160.097511 
L 448.950075 160.097511 
L 449.173387 163.966826 
L 449.396698 162.242026 
L 449.843322 155.378026 
L 450.066633 155.378026 
L 450.289945 157.102826 
L 450.513257 160.517226 
L 450.736568 142.615691 
L 450.95988 144.340491 
L 451.183192 135.331976 
L 451.629815 153.233511 
L 451.853127 140.890891 
L 452.29975 153.653226 
L 452.523062 153.233511 
L 452.969685 144.340491 
L 453.192996 149.783911 
L 453.416308 151.508711 
L 453.63962 147.754891 
L 453.862931 146.065291 
L 454.309555 149.479691 
L 454.532866 149.479691 
L 454.756178 135.331976 
L 455.202801 151.508711 
L 455.426113 149.783911 
L 455.649425 157.102826 
L 455.872736 156.647911 
L 456.096048 158.372711 
L 456.31936 161.822311 
L 456.542671 160.097511 
L 456.765983 169.106026 
L 456.989295 172.555626 
L 457.212606 172.555626 
L 457.435918 163.547111 
L 457.65923 161.822311 
L 457.882541 170.830826 
L 458.105853 169.106026 
L 458.552476 158.068491 
L 458.775788 149.479691 
L 458.9991 158.372711 
L 459.222411 158.372711 
L 459.445723 163.966826 
L 459.892346 154.958311 
L 460.115658 154.958311 
L 460.338969 156.647911 
L 460.785593 153.233511 
L 461.008904 156.647911 
L 461.232216 147.754891 
L 461.455528 147.754891 
L 461.678839 146.065291 
L 462.125463 151.204491 
L 462.348774 143.920776 
L 462.572086 151.204491 
L 462.795398 149.479691 
L 463.018709 149.783911 
L 463.465333 162.242026 
L 463.688644 149.783911 
L 463.911956 151.508711 
L 464.135268 144.340491 
L 464.358579 149.783911 
L 464.581891 148.094311 
L 464.805203 144.644711 
L 465.028514 144.644711 
L 465.251826 134.026891 
L 465.475138 135.751691 
L 465.698449 142.919911 
L 465.921761 146.369511 
L 466.145073 140.890891 
L 466.368384 139.201291 
L 466.591696 139.201291 
L 466.815008 144.644711 
L 467.038319 142.919911 
L 467.261631 142.919911 
L 467.484942 141.195111 
L 467.708254 141.195111 
L 467.931566 139.505511 
L 468.378189 157.522541 
L 468.601501 145.064426 
L 468.824812 154.072941 
L 469.048124 154.377161 
L 469.271436 149.237961 
L 469.494747 168.560076 
L 469.718059 154.377161 
L 469.941371 168.864297 
L 470.164682 163.689897 
L 470.387994 168.864297 
L 470.611306 154.377161 
L 470.834617 158.246476 
L 471.057929 154.377161 
L 471.281241 165.414697 
L 471.504552 158.246476 
L 471.727864 168.864297 
L 471.951176 160.275497 
L 472.174487 168.864297 
L 472.397799 159.971276 
L 472.621111 163.689897 
L 472.844422 158.246476 
L 473.067734 174.003497 
L 473.291046 165.110476 
L 473.514357 163.385676 
L 473.737669 152.652361 
L 473.96098 147.513161 
L 474.407604 169.284011 
L 474.630915 167.978926 
L 474.854227 189.330061 
L 475.524162 164.564526 
L 475.747474 176.871947 
L 475.970785 177.291661 
L 476.194097 173.457547 
L 476.417409 166.254126 
L 476.864032 174.842926 
L 477.087344 165.834411 
L 477.310655 151.382476 
L 477.533967 165.834411 
L 477.757279 154.796876 
L 477.98059 167.559211 
L 478.203902 156.825897 
L 478.427214 155.556011 
L 478.650525 173.153326 
L 478.873837 158.550697 
L 479.32046 174.842926 
L 479.543772 169.284011 
L 479.767084 171.008811 
L 480.213707 177.872811 
L 480.66033 177.872811 
L 481.106953 170.553897 
L 481.330265 191.600811 
L 481.553577 173.699276 
L 482.0002 184.736811 
L 482.223512 183.012011 
L 482.446823 190.295726 
L 482.670135 184.736811 
L 482.893447 188.570926 
L 483.116758 174.423211 
L 483.34007 168.864297 
L 484.010005 192.324747 
L 484.233317 190.599947 
L 484.67994 203.058061 
L 484.903252 194.049547 
L 485.126563 176.567726 
L 485.349875 179.562411 
L 485.573187 192.020526 
L 485.796498 190.295726 
L 486.01981 184.736811 
L 486.243122 183.012011 
L 486.466433 170.553897 
L 486.689745 181.287211 
L 486.913057 171.974476 
L 487.136368 184.012876 
L 487.35968 186.006697 
L 487.806303 192.905897 
L 488.029615 200.189611 
L 488.476238 184.317097 
L 488.69955 189.876011 
L 488.922861 198.884526 
L 489.146173 195.470126 
L 489.369485 179.562411 
L 489.592796 182.592297 
L 489.816108 193.745326 
L 490.03942 190.295726 
L 490.262731 184.736811 
L 490.486043 188.570926 
L 490.932666 185.156526 
L 491.155978 203.058061 
L 491.602601 213.791376 
L 491.825913 208.197261 
L 492.272536 208.197261 
L 492.495848 224.373996 
L 492.71916 217.205776 
L 492.942471 222.380176 
L 493.389095 203.058061 
L 493.612406 197.463947 
L 494.05903 208.197261 
L 494.282341 206.472461 
L 494.505653 192.324747 
L 494.728964 206.927376 
L 494.952276 208.616976 
L 495.175588 196.194061 
L 495.398899 197.918861 
L 495.622211 192.324747 
L 495.845523 201.333261 
L 496.068834 197.463947 
L 496.292146 205.202576 
L 496.515458 196.613776 
L 496.738769 194.469261 
L 496.962081 220.074226 
L 497.185393 210.645996 
L 497.408704 228.663026 
L 497.632016 236.286161 
L 497.855328 255.877296 
L 498.078639 245.179182 
L 498.301951 243.454382 
L 498.525263 233.140782 
L 498.748574 249.433011 
L 498.971886 238.734896 
L 499.195198 242.149296 
L 499.641821 229.422161 
L 499.865133 234.865582 
L 500.088444 233.140782 
L 500.535068 209.099182 
L 500.758379 211.243696 
L 500.981691 218.107696 
L 501.205003 214.693296 
L 501.428314 215.113011 
L 501.874937 197.095982 
L 502.098249 200.510382 
L 502.321561 209.518896 
L 502.544872 212.968496 
L 502.768184 203.959982 
L 503.214807 216.837811 
L 503.438119 205.684782 
L 503.884742 212.968496 
L 504.331366 216.837811 
L 504.554677 202.654896 
L 504.777989 217.142032 
L 505.001301 211.663411 
L 505.224612 209.518896 
L 505.447924 218.527411 
L 505.671236 221.977011 
L 505.894547 216.418096 
L 506.117859 223.701811 
L 506.341171 218.527411 
L 506.787794 218.527411 
L 507.234417 225.730832 
L 507.457729 211.663411 
L 507.681041 209.973811 
L 507.904352 203.414032 
L 508.127664 213.692432 
L 508.350975 215.417232 
L 508.574287 235.159061 
L 508.797599 229.984661 
L 509.02091 237.188081 
L 509.244222 226.570261 
L 509.690845 245.776881 
L 509.914157 238.877681 
L 510.137469 255.205111 
L 510.36078 250.030711 
L 510.584092 251.755511 
L 510.807404 259.343446 
L 511.030715 253.784531 
L 511.254027 261.068246 
L 511.477339 257.653846 
L 511.70065 266.546867 
L 511.923962 261.372467 
L 512.147274 247.340246 
L 512.370585 243.890646 
L 512.593897 254.928181 
L 512.817209 260.102581 
L 513.263832 256.233267 
L 513.487144 249.369267 
L 513.710455 238.331731 
L 513.933767 247.340246 
L 514.157079 236.606931 
L 514.38039 236.606931 
L 514.603702 242.201046 
L 514.827014 251.513781 
L 515.050325 271.140117 
L 515.273637 271.559831 
L 515.496948 262.971031 
L 515.72026 279.567481 
L 515.943572 260.280566 
L 516.390195 289.639352 
L 516.613507 279.021531 
L 517.06013 212.743317 
L 517.283442 202.125496 
L 517.506753 223.056917 
L 517.730065 229.196981 
L 517.953377 249.788981 
L 518.4 235.337046 
L 518.4 235.337046 
" style="fill:none;stroke:#4c72b0;stroke-linecap:round;stroke-width:1.75;"/>
   </g>
   <g id="patch_3">
    <path d="M 72 356.4 
L 518.4 356.4 
" style="fill:none;"/>
   </g>
   <g id="patch_4">
    <path d="M 72 39.6 
L 518.4 39.6 
" style="fill:none;"/>
   </g>
   <g id="patch_5">
    <path d="M 72 356.4 
L 72 39.6 
" style="fill:none;"/>
   </g>
   <g id="patch_6">
    <path d="M 518.4 356.4 
L 518.4 39.6 
" style="fill:none;"/>
   </g>
   <g id="text_16">
    <!-- j - 3.281073192509843 * i -->
    <defs>
     <path d="M 9.125 0 
L 9.125 10.6875 
L 18.65625 10.6875 
L 18.65625 0 
z
" id="LiberationSans-2e"/>
     <path d="M 6.6875 64.0625 
L 6.6875 72.46875 
L 15.484375 72.46875 
L 15.484375 64.0625 
z
M 15.484375 -6.546875 
Q 15.484375 -9.578125 14.96875 -12.15625 
Q 14.453125 -14.75 13.125 -16.65625 
Q 11.8125 -18.5625 9.546875 -19.65625 
Q 7.28125 -20.75 3.765625 -20.75 
Q 2.09375 -20.75 0.5 -20.65625 
Q -1.078125 -20.5625 -2.4375 -20.3125 
L -2.4375 -13.53125 
Q -1.8125 -13.625 -0.921875 -13.71875 
Q -0.046875 -13.8125 0.59375 -13.8125 
Q 2.4375 -13.8125 3.625 -13.328125 
Q 4.828125 -12.84375 5.515625 -11.796875 
Q 6.203125 -10.75 6.4375 -9.109375 
Q 6.6875 -7.46875 6.6875 -5.21875 
L 6.6875 52.828125 
L 15.484375 52.828125 
z
" id="LiberationSans-6a"/>
     <path d="M 22.265625 54.390625 
L 35.15625 59.421875 
L 37.359375 52.984375 
L 23.578125 49.421875 
L 32.625 37.203125 
L 26.8125 33.6875 
L 19.484375 46.296875 
L 11.859375 33.796875 
L 6.0625 37.3125 
L 15.28125 49.421875 
L 1.609375 52.984375 
L 3.8125 59.515625 
L 16.84375 54.296875 
L 16.265625 68.796875 
L 22.90625 68.796875 
z
" id="LiberationSans-2a"/>
    </defs>
    <g style="fill:#262626;" transform="translate(226.48125 34.6)scale(0.12 -0.12)">
     <use xlink:href="#LiberationSans-6a"/>
     <use x="22.216796875" xlink:href="#LiberationSans-20"/>
     <use x="50.0" xlink:href="#LiberationSans-2d"/>
     <use x="83.30078125" xlink:href="#LiberationSans-20"/>
     <use x="111.083984375" xlink:href="#LiberationSans-33"/>
     <use x="166.69921875" xlink:href="#LiberationSans-2e"/>
     <use x="194.482421875" xlink:href="#LiberationSans-32"/>
     <use x="250.09765625" xlink:href="#LiberationSans-38"/>
     <use x="305.712890625" xlink:href="#LiberationSans-31"/>
     <use x="361.328125" xlink:href="#LiberationSans-30"/>
     <use x="416.943359375" xlink:href="#LiberationSans-37"/>
     <use x="472.55859375" xlink:href="#LiberationSans-33"/>
     <use x="528.173828125" xlink:href="#LiberationSans-31"/>
     <use x="583.7890625" xlink:href="#LiberationSans-39"/>
     <use x="639.404296875" xlink:href="#LiberationSans-32"/>
     <use x="695.01953125" xlink:href="#LiberationSans-35"/>
     <use x="750.634765625" xlink:href="#LiberationSans-30"/>
     <use x="806.25" xlink:href="#LiberationSans-39"/>
     <use x="861.865234375" xlink:href="#LiberationSans-38"/>
     <use x="917.48046875" xlink:href="#LiberationSans-34"/>
     <use x="973.095703125" xlink:href="#LiberationSans-33"/>
     <use x="1028.7109375" xlink:href="#LiberationSans-20"/>
     <use x="1056.494140625" xlink:href="#LiberationSans-2a"/>
     <use x="1095.41015625" xlink:href="#LiberationSans-20"/>
     <use x="1123.193359375" xlink:href="#LiberationSans-69"/>
    </g>
   </g>
  </g>
 </g>
 <defs>
  <clipPath id="p7858b0b645">
   <rect height="316.8" width="446.4" x="72.0" y="39.6"/>
  </clipPath>
 </defs>
</svg>
