<?xml version="1.0" encoding="utf-8" standalone="no"?>
<!DOCTYPE svg PUBLIC "-//W3C//DTD SVG 1.1//EN"
  "http://www.w3.org/Graphics/SVG/1.1/DTD/svg11.dtd">
<!-- Created with matplotlib (http://matplotlib.org/) -->
<svg height="396pt" version="1.1" viewBox="0 0 576 396" width="576pt" xmlns="http://www.w3.org/2000/svg" xmlns:xlink="http://www.w3.org/1999/xlink">
 <defs>
  <style type="text/css">
*{stroke-linecap:butt;stroke-linejoin:round;stroke-miterlimit:100000;}
  </style>
 </defs>
 <g id="figure_1">
  <g id="patch_1">
   <path d="M 0 396 
L 576 396 
L 576 0 
L 0 0 
z
" style="fill:#ffffff;"/>
  </g>
  <g id="axes_1">
   <g id="patch_2">
    <path d="M 72 356.4 
L 518.4 356.4 
L 518.4 39.6 
L 72 39.6 
z
" style="fill:#eaeaf2;"/>
   </g>
   <g id="matplotlib.axis_1">
    <g id="xtick_1">
     <g id="line2d_1">
      <path clip-path="url(#pab61a1954e)" d="M 72 356.4 
L 72 39.6 
" style="fill:none;stroke:#ffffff;stroke-linecap:round;"/>
     </g>
     <g id="line2d_2"/>
     <g id="line2d_3"/>
     <g id="text_1">
      <!-- 2015-11-25 10:12:00 -->
      <defs>
       <path d="M 5.03125 0 
L 5.03125 6.203125 
Q 7.515625 11.921875 11.109375 16.28125 
Q 14.703125 20.65625 18.65625 24.1875 
Q 22.609375 27.734375 26.484375 30.765625 
Q 30.375 33.796875 33.5 36.8125 
Q 36.625 39.84375 38.546875 43.15625 
Q 40.484375 46.484375 40.484375 50.6875 
Q 40.484375 53.609375 39.59375 55.828125 
Q 38.71875 58.0625 37.0625 59.5625 
Q 35.40625 61.078125 33.078125 61.828125 
Q 30.765625 62.59375 27.9375 62.59375 
Q 25.296875 62.59375 22.96875 61.859375 
Q 20.65625 61.140625 18.84375 59.671875 
Q 17.046875 58.203125 15.890625 56.03125 
Q 14.75 53.859375 14.40625 50.984375 
L 5.421875 51.8125 
Q 5.859375 55.515625 7.46875 58.78125 
Q 9.078125 62.0625 11.90625 64.53125 
Q 14.75 67 18.71875 68.40625 
Q 22.703125 69.828125 27.9375 69.828125 
Q 33.0625 69.828125 37.0625 68.609375 
Q 41.0625 67.390625 43.8125 64.984375 
Q 46.578125 62.59375 48.046875 59.078125 
Q 49.515625 55.5625 49.515625 50.984375 
Q 49.515625 47.515625 48.265625 44.390625 
Q 47.015625 41.265625 44.9375 38.421875 
Q 42.875 35.59375 40.140625 32.953125 
Q 37.40625 30.328125 34.421875 27.8125 
Q 31.453125 25.296875 28.421875 22.828125 
Q 25.390625 20.359375 22.71875 17.859375 
Q 20.0625 15.375 17.96875 12.8125 
Q 15.875 10.25 14.703125 7.46875 
L 50.59375 7.46875 
L 50.59375 0 
z
" id="LiberationSans-32"/>
       <path d="M 7.625 0 
L 7.625 7.46875 
L 25.140625 7.46875 
L 25.140625 60.40625 
L 9.625 49.3125 
L 9.625 57.625 
L 25.875 68.796875 
L 33.984375 68.796875 
L 33.984375 7.46875 
L 50.734375 7.46875 
L 50.734375 0 
z
" id="LiberationSans-31"/>
       <path d="M 51.703125 34.421875 
Q 51.703125 24.515625 49.828125 17.75 
Q 47.953125 10.984375 44.703125 6.8125 
Q 41.453125 2.640625 37.0625 0.828125 
Q 32.671875 -0.984375 27.6875 -0.984375 
Q 22.65625 -0.984375 18.3125 0.828125 
Q 13.96875 2.640625 10.765625 6.78125 
Q 7.5625 10.9375 5.734375 17.703125 
Q 3.90625 24.46875 3.90625 34.421875 
Q 3.90625 44.828125 5.734375 51.640625 
Q 7.5625 58.453125 10.78125 62.5 
Q 14.015625 66.546875 18.40625 68.1875 
Q 22.796875 69.828125 27.984375 69.828125 
Q 32.90625 69.828125 37.21875 68.1875 
Q 41.546875 66.546875 44.765625 62.5 
Q 48 58.453125 49.84375 51.640625 
Q 51.703125 44.828125 51.703125 34.421875 
M 42.78125 34.421875 
Q 42.78125 42.625 41.796875 48.0625 
Q 40.828125 53.515625 38.921875 56.765625 
Q 37.015625 60.015625 34.25 61.359375 
Q 31.5 62.703125 27.984375 62.703125 
Q 24.265625 62.703125 21.4375 61.328125 
Q 18.609375 59.96875 16.671875 56.71875 
Q 14.75 53.46875 13.765625 48.015625 
Q 12.796875 42.578125 12.796875 34.421875 
Q 12.796875 26.515625 13.796875 21.09375 
Q 14.796875 15.671875 16.71875 12.375 
Q 18.65625 9.078125 21.4375 7.640625 
Q 24.21875 6.203125 27.78125 6.203125 
Q 31.25 6.203125 34.03125 7.640625 
Q 36.8125 9.078125 38.734375 12.375 
Q 40.671875 15.671875 41.71875 21.09375 
Q 42.78125 26.515625 42.78125 34.421875 
" id="LiberationSans-30"/>
       <path d="M 9.125 42.71875 
L 9.125 52.828125 
L 18.65625 52.828125 
L 18.65625 42.71875 
z
M 9.125 0 
L 9.125 10.109375 
L 18.65625 10.109375 
L 18.65625 0 
z
" id="LiberationSans-3a"/>
       <path d="M 51.421875 22.40625 
Q 51.421875 17.234375 49.859375 12.9375 
Q 48.296875 8.640625 45.21875 5.53125 
Q 42.140625 2.4375 37.578125 0.71875 
Q 33.015625 -0.984375 27 -0.984375 
Q 21.578125 -0.984375 17.546875 0.28125 
Q 13.53125 1.5625 10.734375 3.78125 
Q 7.953125 6 6.3125 8.984375 
Q 4.6875 11.96875 4 15.375 
L 12.890625 16.40625 
Q 13.421875 14.453125 14.390625 12.625 
Q 15.375 10.796875 17.0625 9.34375 
Q 18.75 7.90625 21.21875 7.046875 
Q 23.6875 6.203125 27.203125 6.203125 
Q 30.609375 6.203125 33.390625 7.25 
Q 36.1875 8.296875 38.15625 10.34375 
Q 40.140625 12.40625 41.203125 15.375 
Q 42.28125 18.359375 42.28125 22.21875 
Q 42.28125 25.390625 41.25 28.046875 
Q 40.234375 30.71875 38.328125 32.640625 
Q 36.421875 34.578125 33.65625 35.640625 
Q 30.90625 36.71875 27.390625 36.71875 
Q 25.203125 36.71875 23.34375 36.328125 
Q 21.484375 35.9375 19.890625 35.25 
Q 18.3125 34.578125 17.015625 33.671875 
Q 15.71875 32.765625 14.59375 31.78125 
L 6 31.78125 
L 8.296875 68.796875 
L 47.40625 68.796875 
L 47.40625 61.328125 
L 16.3125 61.328125 
L 14.984375 39.5 
Q 17.328125 41.3125 20.84375 42.59375 
Q 24.359375 43.890625 29.203125 43.890625 
Q 34.328125 43.890625 38.421875 42.328125 
Q 42.53125 40.765625 45.40625 37.90625 
Q 48.296875 35.0625 49.859375 31.109375 
Q 51.421875 27.15625 51.421875 22.40625 
" id="LiberationSans-35"/>
       <path id="LiberationSans-20"/>
       <path d="M 4.4375 22.65625 
L 4.4375 30.46875 
L 28.859375 30.46875 
L 28.859375 22.65625 
z
" id="LiberationSans-2d"/>
      </defs>
      <g style="fill:#262626;" transform="translate(25.5765625 370.646875)scale(0.1 -0.1)">
       <use xlink:href="#LiberationSans-32"/>
       <use x="55.615234375" xlink:href="#LiberationSans-30"/>
       <use x="111.23046875" xlink:href="#LiberationSans-31"/>
       <use x="166.845703125" xlink:href="#LiberationSans-35"/>
       <use x="222.4609375" xlink:href="#LiberationSans-2d"/>
       <use x="255.76171875" xlink:href="#LiberationSans-31"/>
       <use x="311.376953125" xlink:href="#LiberationSans-31"/>
       <use x="366.9921875" xlink:href="#LiberationSans-2d"/>
       <use x="400.29296875" xlink:href="#LiberationSans-32"/>
       <use x="455.908203125" xlink:href="#LiberationSans-35"/>
       <use x="511.5234375" xlink:href="#LiberationSans-20"/>
       <use x="539.306640625" xlink:href="#LiberationSans-31"/>
       <use x="594.921875" xlink:href="#LiberationSans-30"/>
       <use x="650.537109375" xlink:href="#LiberationSans-3a"/>
       <use x="678.3203125" xlink:href="#LiberationSans-31"/>
       <use x="733.935546875" xlink:href="#LiberationSans-32"/>
       <use x="789.55078125" xlink:href="#LiberationSans-3a"/>
       <use x="817.333984375" xlink:href="#LiberationSans-30"/>
       <use x="872.94921875" xlink:href="#LiberationSans-30"/>
      </g>
     </g>
    </g>
    <g id="xtick_2">
     <g id="line2d_4">
      <path clip-path="url(#pab61a1954e)" d="M 183.655828 356.4 
L 183.655828 39.6 
" style="fill:none;stroke:#ffffff;stroke-linecap:round;"/>
     </g>
     <g id="line2d_5"/>
     <g id="line2d_6"/>
     <g id="text_2">
      <!-- 2015-11-26 21:09:00 -->
      <defs>
       <path d="M 50.875 35.796875 
Q 50.875 26.609375 49.140625 19.703125 
Q 47.40625 12.796875 44.1875 8.203125 
Q 40.96875 3.609375 36.34375 1.3125 
Q 31.734375 -0.984375 25.984375 -0.984375 
Q 22.015625 -0.984375 18.84375 -0.171875 
Q 15.671875 0.640625 13.171875 2.34375 
Q 10.6875 4.046875 8.921875 6.78125 
Q 7.171875 9.515625 6.109375 13.375 
L 14.5 14.703125 
Q 15.875 10.25 18.78125 8.171875 
Q 21.6875 6.109375 26.125 6.109375 
Q 29.6875 6.109375 32.640625 7.78125 
Q 35.59375 9.46875 37.671875 12.84375 
Q 39.75 16.21875 40.921875 21.296875 
Q 42.09375 26.375 42.1875 33.203125 
Q 41.15625 30.90625 39.375 29.09375 
Q 37.59375 27.296875 35.328125 26.046875 
Q 33.0625 24.8125 30.421875 24.140625 
Q 27.78125 23.484375 25.09375 23.484375 
Q 20.40625 23.484375 16.625 25.171875 
Q 12.84375 26.859375 10.203125 29.875 
Q 7.5625 32.90625 6.125 37.171875 
Q 4.6875 41.453125 4.6875 46.6875 
Q 4.6875 52 6.21875 56.296875 
Q 7.765625 60.59375 10.6875 63.59375 
Q 13.625 66.609375 17.890625 68.21875 
Q 22.171875 69.828125 27.59375 69.828125 
Q 39.0625 69.828125 44.96875 61.328125 
Q 50.875 52.828125 50.875 35.796875 
M 41.3125 44.28125 
Q 41.3125 48.09375 40.40625 51.453125 
Q 39.5 54.828125 37.71875 57.3125 
Q 35.9375 59.8125 33.328125 61.25 
Q 30.71875 62.703125 27.296875 62.703125 
Q 24.125 62.703125 21.578125 61.578125 
Q 19.046875 60.453125 17.28125 58.375 
Q 15.53125 56.296875 14.578125 53.3125 
Q 13.625 50.34375 13.625 46.6875 
Q 13.625 43.21875 14.46875 40.234375 
Q 15.328125 37.25 17.03125 35.078125 
Q 18.75 32.90625 21.28125 31.65625 
Q 23.828125 30.421875 27.203125 30.421875 
Q 29.640625 30.421875 32.15625 31.25 
Q 34.671875 32.078125 36.6875 33.78125 
Q 38.71875 35.5 40.015625 38.109375 
Q 41.3125 40.71875 41.3125 44.28125 
" id="LiberationSans-39"/>
       <path d="M 51.21875 22.515625 
Q 51.21875 17.328125 49.78125 13 
Q 48.34375 8.6875 45.53125 5.578125 
Q 42.71875 2.484375 38.5625 0.75 
Q 34.421875 -0.984375 29 -0.984375 
Q 23 -0.984375 18.5 1.3125 
Q 14.015625 3.609375 11.03125 7.921875 
Q 8.0625 12.25 6.5625 18.53125 
Q 5.078125 24.8125 5.078125 32.8125 
Q 5.078125 42 6.765625 48.921875 
Q 8.453125 55.859375 11.625 60.5 
Q 14.796875 65.140625 19.359375 67.484375 
Q 23.921875 69.828125 29.6875 69.828125 
Q 33.203125 69.828125 36.28125 69.09375 
Q 39.359375 68.359375 41.875 66.71875 
Q 44.390625 65.09375 46.28125 62.40625 
Q 48.1875 59.71875 49.3125 55.8125 
L 40.921875 54.296875 
Q 39.546875 58.734375 36.546875 60.71875 
Q 33.546875 62.703125 29.59375 62.703125 
Q 25.984375 62.703125 23.046875 60.984375 
Q 20.125 59.28125 18.0625 55.875 
Q 16.015625 52.484375 14.90625 47.359375 
Q 13.8125 42.234375 13.8125 35.40625 
Q 16.21875 39.84375 20.5625 42.15625 
Q 24.90625 44.484375 30.515625 44.484375 
Q 35.203125 44.484375 39.015625 42.96875 
Q 42.828125 41.453125 45.53125 38.59375 
Q 48.25 35.75 49.734375 31.671875 
Q 51.21875 27.59375 51.21875 22.515625 
M 42.28125 22.125 
Q 42.28125 25.6875 41.40625 28.5625 
Q 40.53125 31.453125 38.765625 33.46875 
Q 37.015625 35.5 34.421875 36.59375 
Q 31.84375 37.703125 28.421875 37.703125 
Q 26.03125 37.703125 23.578125 36.984375 
Q 21.140625 36.28125 19.15625 34.6875 
Q 17.1875 33.109375 15.9375 30.515625 
Q 14.703125 27.9375 14.703125 24.21875 
Q 14.703125 20.40625 15.671875 17.109375 
Q 16.65625 13.8125 18.484375 11.375 
Q 20.3125 8.9375 22.890625 7.515625 
Q 25.484375 6.109375 28.71875 6.109375 
Q 31.890625 6.109375 34.40625 7.203125 
Q 36.921875 8.296875 38.671875 10.375 
Q 40.4375 12.453125 41.359375 15.421875 
Q 42.28125 18.40625 42.28125 22.125 
" id="LiberationSans-36"/>
      </defs>
      <g style="fill:#262626;" transform="translate(137.232390414 370.646875)scale(0.1 -0.1)">
       <use xlink:href="#LiberationSans-32"/>
       <use x="55.615234375" xlink:href="#LiberationSans-30"/>
       <use x="111.23046875" xlink:href="#LiberationSans-31"/>
       <use x="166.845703125" xlink:href="#LiberationSans-35"/>
       <use x="222.4609375" xlink:href="#LiberationSans-2d"/>
       <use x="255.76171875" xlink:href="#LiberationSans-31"/>
       <use x="311.376953125" xlink:href="#LiberationSans-31"/>
       <use x="366.9921875" xlink:href="#LiberationSans-2d"/>
       <use x="400.29296875" xlink:href="#LiberationSans-32"/>
       <use x="455.908203125" xlink:href="#LiberationSans-36"/>
       <use x="511.5234375" xlink:href="#LiberationSans-20"/>
       <use x="539.306640625" xlink:href="#LiberationSans-32"/>
       <use x="594.921875" xlink:href="#LiberationSans-31"/>
       <use x="650.537109375" xlink:href="#LiberationSans-3a"/>
       <use x="678.3203125" xlink:href="#LiberationSans-30"/>
       <use x="733.935546875" xlink:href="#LiberationSans-39"/>
       <use x="789.55078125" xlink:href="#LiberationSans-3a"/>
       <use x="817.333984375" xlink:href="#LiberationSans-30"/>
       <use x="872.94921875" xlink:href="#LiberationSans-30"/>
      </g>
     </g>
    </g>
    <g id="xtick_3">
     <g id="line2d_7">
      <path clip-path="url(#pab61a1954e)" d="M 295.311656 356.4 
L 295.311656 39.6 
" style="fill:none;stroke:#ffffff;stroke-linecap:round;"/>
     </g>
     <g id="line2d_8"/>
     <g id="line2d_9"/>
     <g id="text_3">
      <!-- 2015-11-30 09:55:00 -->
      <defs>
       <path d="M 51.21875 19 
Q 51.21875 14.265625 49.671875 10.546875 
Q 48.140625 6.84375 45.1875 4.265625 
Q 42.234375 1.703125 37.859375 0.359375 
Q 33.5 -0.984375 27.875 -0.984375 
Q 21.484375 -0.984375 17.109375 0.609375 
Q 12.75 2.203125 9.90625 4.8125 
Q 7.078125 7.421875 5.65625 10.765625 
Q 4.25 14.109375 3.8125 17.671875 
L 12.890625 18.5 
Q 13.28125 15.765625 14.328125 13.515625 
Q 15.375 11.28125 17.1875 9.671875 
Q 19 8.0625 21.625 7.171875 
Q 24.265625 6.296875 27.875 6.296875 
Q 34.515625 6.296875 38.296875 9.5625 
Q 42.09375 12.84375 42.09375 19.28125 
Q 42.09375 23.09375 40.40625 25.40625 
Q 38.71875 27.734375 36.203125 29.03125 
Q 33.6875 30.328125 30.734375 30.765625 
Q 27.78125 31.203125 25.296875 31.203125 
L 20.3125 31.203125 
L 20.3125 38.8125 
L 25.09375 38.8125 
Q 27.59375 38.8125 30.265625 39.328125 
Q 32.953125 39.84375 35.171875 41.1875 
Q 37.40625 42.53125 38.84375 44.828125 
Q 40.28125 47.125 40.28125 50.6875 
Q 40.28125 56.203125 37.03125 59.390625 
Q 33.796875 62.59375 27.390625 62.59375 
Q 21.578125 62.59375 17.984375 59.609375 
Q 14.40625 56.640625 13.8125 51.21875 
L 4.984375 51.90625 
Q 5.515625 56.453125 7.46875 59.8125 
Q 9.421875 63.1875 12.421875 65.40625 
Q 15.4375 67.625 19.28125 68.71875 
Q 23.140625 69.828125 27.484375 69.828125 
Q 33.25 69.828125 37.390625 68.375 
Q 41.546875 66.9375 44.1875 64.46875 
Q 46.828125 62.015625 48.0625 58.6875 
Q 49.3125 55.375 49.3125 51.609375 
Q 49.3125 48.578125 48.484375 45.9375 
Q 47.65625 43.3125 45.890625 41.203125 
Q 44.140625 39.109375 41.421875 37.59375 
Q 38.71875 36.078125 34.90625 35.296875 
L 34.90625 35.109375 
Q 39.0625 34.671875 42.140625 33.21875 
Q 45.21875 31.78125 47.21875 29.625 
Q 49.21875 27.484375 50.21875 24.75 
Q 51.21875 22.015625 51.21875 19 
" id="LiberationSans-33"/>
      </defs>
      <g style="fill:#262626;" transform="translate(248.888218328 370.646875)scale(0.1 -0.1)">
       <use xlink:href="#LiberationSans-32"/>
       <use x="55.615234375" xlink:href="#LiberationSans-30"/>
       <use x="111.23046875" xlink:href="#LiberationSans-31"/>
       <use x="166.845703125" xlink:href="#LiberationSans-35"/>
       <use x="222.4609375" xlink:href="#LiberationSans-2d"/>
       <use x="255.76171875" xlink:href="#LiberationSans-31"/>
       <use x="311.376953125" xlink:href="#LiberationSans-31"/>
       <use x="366.9921875" xlink:href="#LiberationSans-2d"/>
       <use x="400.29296875" xlink:href="#LiberationSans-33"/>
       <use x="455.908203125" xlink:href="#LiberationSans-30"/>
       <use x="511.5234375" xlink:href="#LiberationSans-20"/>
       <use x="539.306640625" xlink:href="#LiberationSans-30"/>
       <use x="594.921875" xlink:href="#LiberationSans-39"/>
       <use x="650.537109375" xlink:href="#LiberationSans-3a"/>
       <use x="678.3203125" xlink:href="#LiberationSans-35"/>
       <use x="733.935546875" xlink:href="#LiberationSans-35"/>
       <use x="789.55078125" xlink:href="#LiberationSans-3a"/>
       <use x="817.333984375" xlink:href="#LiberationSans-30"/>
       <use x="872.94921875" xlink:href="#LiberationSans-30"/>
      </g>
     </g>
    </g>
    <g id="xtick_4">
     <g id="line2d_10">
      <path clip-path="url(#pab61a1954e)" d="M 406.967484 356.4 
L 406.967484 39.6 
" style="fill:none;stroke:#ffffff;stroke-linecap:round;"/>
     </g>
     <g id="line2d_11"/>
     <g id="line2d_12"/>
     <g id="text_4">
      <!-- 2015-12-04 11:01:00 -->
      <defs>
       <path d="M 43.015625 15.578125 
L 43.015625 0 
L 34.71875 0 
L 34.71875 15.578125 
L 2.296875 15.578125 
L 2.296875 22.40625 
L 33.796875 68.796875 
L 43.015625 68.796875 
L 43.015625 22.515625 
L 52.6875 22.515625 
L 52.6875 15.578125 
z
M 34.71875 58.890625 
Q 34.625 58.640625 34.234375 57.9375 
Q 33.84375 57.234375 33.34375 56.34375 
Q 32.859375 55.46875 32.34375 54.5625 
Q 31.84375 53.65625 31.453125 53.078125 
L 13.8125 27.09375 
Q 13.578125 26.703125 13.109375 26.0625 
Q 12.640625 25.4375 12.15625 24.78125 
Q 11.671875 24.125 11.171875 23.484375 
Q 10.6875 22.859375 10.40625 22.515625 
L 34.71875 22.515625 
z
" id="LiberationSans-34"/>
      </defs>
      <g style="fill:#262626;" transform="translate(360.544046242 370.646875)scale(0.1 -0.1)">
       <use xlink:href="#LiberationSans-32"/>
       <use x="55.615234375" xlink:href="#LiberationSans-30"/>
       <use x="111.23046875" xlink:href="#LiberationSans-31"/>
       <use x="166.845703125" xlink:href="#LiberationSans-35"/>
       <use x="222.4609375" xlink:href="#LiberationSans-2d"/>
       <use x="255.76171875" xlink:href="#LiberationSans-31"/>
       <use x="311.376953125" xlink:href="#LiberationSans-32"/>
       <use x="366.9921875" xlink:href="#LiberationSans-2d"/>
       <use x="400.29296875" xlink:href="#LiberationSans-30"/>
       <use x="455.908203125" xlink:href="#LiberationSans-34"/>
       <use x="511.5234375" xlink:href="#LiberationSans-20"/>
       <use x="539.306640625" xlink:href="#LiberationSans-31"/>
       <use x="594.921875" xlink:href="#LiberationSans-31"/>
       <use x="650.537109375" xlink:href="#LiberationSans-3a"/>
       <use x="678.3203125" xlink:href="#LiberationSans-30"/>
       <use x="733.935546875" xlink:href="#LiberationSans-31"/>
       <use x="789.55078125" xlink:href="#LiberationSans-3a"/>
       <use x="817.333984375" xlink:href="#LiberationSans-30"/>
       <use x="872.94921875" xlink:href="#LiberationSans-30"/>
      </g>
     </g>
    </g>
    <g id="text_5">
     <!-- time -->
     <defs>
      <path d="M 13.484375 24.5625 
Q 13.484375 20.40625 14.328125 16.90625 
Q 15.1875 13.421875 16.96875 10.90625 
Q 18.75 8.40625 21.53125 7 
Q 24.3125 5.609375 28.21875 5.609375 
Q 33.9375 5.609375 37.375 7.90625 
Q 40.828125 10.203125 42.046875 13.71875 
L 49.75 11.53125 
Q 48.921875 9.328125 47.4375 7.109375 
Q 45.953125 4.890625 43.453125 3.09375 
Q 40.96875 1.3125 37.234375 0.15625 
Q 33.5 -0.984375 28.21875 -0.984375 
Q 16.5 -0.984375 10.375 6 
Q 4.25 12.984375 4.25 26.765625 
Q 4.25 34.1875 6.09375 39.328125 
Q 7.953125 44.484375 11.171875 47.703125 
Q 14.40625 50.921875 18.703125 52.359375 
Q 23 53.8125 27.875 53.8125 
Q 34.515625 53.8125 38.984375 51.65625 
Q 43.453125 49.515625 46.15625 45.71875 
Q 48.875 41.9375 50.015625 36.8125 
Q 51.171875 31.6875 51.171875 25.734375 
L 51.171875 24.5625 
z
M 42.09375 31.296875 
Q 41.359375 39.65625 37.84375 43.484375 
Q 34.328125 47.3125 27.734375 47.3125 
Q 25.53125 47.3125 23.109375 46.609375 
Q 20.703125 45.90625 18.65625 44.09375 
Q 16.609375 42.28125 15.1875 39.171875 
Q 13.765625 36.078125 13.578125 31.296875 
z
" id="LiberationSans-65"/>
      <path d="M 6.6875 64.0625 
L 6.6875 72.46875 
L 15.484375 72.46875 
L 15.484375 64.0625 
z
M 6.6875 0 
L 6.6875 52.828125 
L 15.484375 52.828125 
L 15.484375 0 
z
" id="LiberationSans-69"/>
      <path d="M 27.046875 0.390625 
Q 25.046875 -0.140625 22.96875 -0.453125 
Q 20.90625 -0.78125 18.171875 -0.78125 
Q 7.625 -0.78125 7.625 11.1875 
L 7.625 46.4375 
L 1.515625 46.4375 
L 1.515625 52.828125 
L 7.953125 52.828125 
L 10.546875 64.65625 
L 16.40625 64.65625 
L 16.40625 52.828125 
L 26.171875 52.828125 
L 26.171875 46.4375 
L 16.40625 46.4375 
L 16.40625 13.09375 
Q 16.40625 9.28125 17.640625 7.734375 
Q 18.890625 6.203125 21.96875 6.203125 
Q 23.25 6.203125 24.4375 6.390625 
Q 25.640625 6.59375 27.046875 6.890625 
z
" id="LiberationSans-74"/>
      <path d="M 37.5 0 
L 37.5 33.5 
Q 37.5 37.359375 37.015625 39.9375 
Q 36.53125 42.53125 35.375 44.109375 
Q 34.234375 45.703125 32.375 46.359375 
Q 30.515625 47.015625 27.828125 47.015625 
Q 25.046875 47.015625 22.796875 45.921875 
Q 20.5625 44.828125 18.96875 42.75 
Q 17.390625 40.671875 16.53125 37.625 
Q 15.671875 34.578125 15.671875 30.609375 
L 15.671875 0 
L 6.9375 0 
L 6.9375 41.546875 
Q 6.9375 43.21875 6.90625 45.046875 
Q 6.890625 46.875 6.828125 48.5 
Q 6.78125 50.140625 6.734375 51.3125 
Q 6.6875 52.484375 6.640625 52.828125 
L 14.9375 52.828125 
Q 14.984375 52.59375 15.03125 51.515625 
Q 15.09375 50.4375 15.15625 49.046875 
Q 15.234375 47.65625 15.28125 46.21875 
Q 15.328125 44.78125 15.328125 43.796875 
L 15.484375 43.796875 
Q 16.65625 46.09375 18.015625 47.953125 
Q 19.390625 49.8125 21.21875 51.09375 
Q 23.046875 52.390625 25.40625 53.09375 
Q 27.78125 53.8125 30.90625 53.8125 
Q 36.921875 53.8125 40.40625 51.421875 
Q 43.890625 49.03125 45.265625 43.796875 
L 45.40625 43.796875 
Q 46.578125 46.09375 48.046875 47.953125 
Q 49.515625 49.8125 51.46875 51.09375 
Q 53.421875 52.390625 55.859375 53.09375 
Q 58.296875 53.8125 61.421875 53.8125 
Q 65.4375 53.8125 68.328125 52.734375 
Q 71.234375 51.65625 73.09375 49.40625 
Q 74.953125 47.171875 75.828125 43.625 
Q 76.703125 40.09375 76.703125 35.203125 
L 76.703125 0 
L 68.015625 0 
L 68.015625 33.5 
Q 68.015625 37.359375 67.53125 39.9375 
Q 67.046875 42.53125 65.890625 44.109375 
Q 64.75 45.703125 62.890625 46.359375 
Q 61.03125 47.015625 58.34375 47.015625 
Q 55.5625 47.015625 53.3125 45.96875 
Q 51.078125 44.921875 49.484375 42.875 
Q 47.90625 40.828125 47.046875 37.75 
Q 46.1875 34.671875 46.1875 30.609375 
L 46.1875 0 
z
" id="LiberationSans-6d"/>
     </defs>
     <g style="fill:#262626;" transform="translate(284.81015625 385.6934375)scale(0.11 -0.11)">
      <use xlink:href="#LiberationSans-74"/>
      <use x="27.783203125" xlink:href="#LiberationSans-69"/>
      <use x="50.0" xlink:href="#LiberationSans-6d"/>
      <use x="133.30078125" xlink:href="#LiberationSans-65"/>
     </g>
    </g>
   </g>
   <g id="matplotlib.axis_2">
    <g id="ytick_1">
     <g id="line2d_13">
      <path clip-path="url(#pab61a1954e)" d="M 72 356.4 
L 518.4 356.4 
" style="fill:none;stroke:#ffffff;stroke-linecap:round;"/>
     </g>
     <g id="line2d_14"/>
     <g id="line2d_15"/>
     <g id="text_6">
      <!-- −5200 -->
      <defs>
       <path d="M 4.9375 29.6875 
L 4.9375 36.8125 
L 53.515625 36.8125 
L 53.515625 29.6875 
z
" id="LiberationSans-2212"/>
      </defs>
      <g style="fill:#262626;" transform="translate(36.915625 358.9859375)scale(0.1 -0.1)">
       <use xlink:href="#LiberationSans-2212"/>
       <use x="58.3984375" xlink:href="#LiberationSans-35"/>
       <use x="114.013671875" xlink:href="#LiberationSans-32"/>
       <use x="169.62890625" xlink:href="#LiberationSans-30"/>
       <use x="225.244140625" xlink:href="#LiberationSans-30"/>
      </g>
     </g>
    </g>
    <g id="ytick_2">
     <g id="line2d_16">
      <path clip-path="url(#pab61a1954e)" d="M 72 316.8 
L 518.4 316.8 
" style="fill:none;stroke:#ffffff;stroke-linecap:round;"/>
     </g>
     <g id="line2d_17"/>
     <g id="line2d_18"/>
     <g id="text_7">
      <!-- −5100 -->
      <g style="fill:#262626;" transform="translate(36.915625 319.3859375)scale(0.1 -0.1)">
       <use xlink:href="#LiberationSans-2212"/>
       <use x="58.3984375" xlink:href="#LiberationSans-35"/>
       <use x="114.013671875" xlink:href="#LiberationSans-31"/>
       <use x="169.62890625" xlink:href="#LiberationSans-30"/>
       <use x="225.244140625" xlink:href="#LiberationSans-30"/>
      </g>
     </g>
    </g>
    <g id="ytick_3">
     <g id="line2d_19">
      <path clip-path="url(#pab61a1954e)" d="M 72 277.2 
L 518.4 277.2 
" style="fill:none;stroke:#ffffff;stroke-linecap:round;"/>
     </g>
     <g id="line2d_20"/>
     <g id="line2d_21"/>
     <g id="text_8">
      <!-- −5000 -->
      <g style="fill:#262626;" transform="translate(36.915625 279.7859375)scale(0.1 -0.1)">
       <use xlink:href="#LiberationSans-2212"/>
       <use x="58.3984375" xlink:href="#LiberationSans-35"/>
       <use x="114.013671875" xlink:href="#LiberationSans-30"/>
       <use x="169.62890625" xlink:href="#LiberationSans-30"/>
       <use x="225.244140625" xlink:href="#LiberationSans-30"/>
      </g>
     </g>
    </g>
    <g id="ytick_4">
     <g id="line2d_22">
      <path clip-path="url(#pab61a1954e)" d="M 72 237.6 
L 518.4 237.6 
" style="fill:none;stroke:#ffffff;stroke-linecap:round;"/>
     </g>
     <g id="line2d_23"/>
     <g id="line2d_24"/>
     <g id="text_9">
      <!-- −4900 -->
      <g style="fill:#262626;" transform="translate(36.915625 240.1859375)scale(0.1 -0.1)">
       <use xlink:href="#LiberationSans-2212"/>
       <use x="58.3984375" xlink:href="#LiberationSans-34"/>
       <use x="114.013671875" xlink:href="#LiberationSans-39"/>
       <use x="169.62890625" xlink:href="#LiberationSans-30"/>
       <use x="225.244140625" xlink:href="#LiberationSans-30"/>
      </g>
     </g>
    </g>
    <g id="ytick_5">
     <g id="line2d_25">
      <path clip-path="url(#pab61a1954e)" d="M 72 198 
L 518.4 198 
" style="fill:none;stroke:#ffffff;stroke-linecap:round;"/>
     </g>
     <g id="line2d_26"/>
     <g id="line2d_27"/>
     <g id="text_10">
      <!-- −4800 -->
      <defs>
       <path d="M 51.265625 19.1875 
Q 51.265625 14.796875 49.875 11.109375 
Q 48.484375 7.421875 45.625 4.734375 
Q 42.78125 2.046875 38.328125 0.53125 
Q 33.890625 -0.984375 27.828125 -0.984375 
Q 21.78125 -0.984375 17.359375 0.53125 
Q 12.9375 2.046875 10.03125 4.703125 
Q 7.125 7.375 5.734375 11.0625 
Q 4.34375 14.75 4.34375 19.09375 
Q 4.34375 22.859375 5.484375 25.78125 
Q 6.640625 28.71875 8.5625 30.828125 
Q 10.5 32.953125 12.96875 34.25 
Q 15.4375 35.546875 18.0625 35.984375 
L 18.0625 36.1875 
Q 15.1875 36.859375 12.90625 38.375 
Q 10.640625 39.890625 9.09375 42.015625 
Q 7.5625 44.140625 6.75 46.71875 
Q 5.953125 49.3125 5.953125 52.203125 
Q 5.953125 55.8125 7.34375 59 
Q 8.734375 62.203125 11.46875 64.625 
Q 14.203125 67.046875 18.25 68.4375 
Q 22.3125 69.828125 27.640625 69.828125 
Q 33.25 69.828125 37.375 68.40625 
Q 41.5 67 44.203125 64.578125 
Q 46.921875 62.15625 48.234375 58.9375 
Q 49.5625 55.71875 49.5625 52.09375 
Q 49.5625 49.265625 48.75 46.671875 
Q 47.953125 44.09375 46.40625 41.96875 
Q 44.875 39.84375 42.59375 38.34375 
Q 40.328125 36.859375 37.359375 36.28125 
L 37.359375 36.078125 
Q 40.328125 35.59375 42.859375 34.296875 
Q 45.40625 33.015625 47.265625 30.890625 
Q 49.125 28.765625 50.1875 25.828125 
Q 51.265625 22.90625 51.265625 19.1875 
M 40.4375 51.609375 
Q 40.4375 54.203125 39.765625 56.34375 
Q 39.109375 58.5 37.59375 60.03125 
Q 36.078125 61.578125 33.640625 62.421875 
Q 31.203125 63.28125 27.640625 63.28125 
Q 24.171875 63.28125 21.78125 62.421875 
Q 19.390625 61.578125 17.84375 60.03125 
Q 16.3125 58.5 15.625 56.34375 
Q 14.9375 54.203125 14.9375 51.609375 
Q 14.9375 49.5625 15.46875 47.40625 
Q 16.015625 45.265625 17.421875 43.5 
Q 18.84375 41.75 21.328125 40.625 
Q 23.828125 39.5 27.734375 39.5 
Q 31.890625 39.5 34.40625 40.625 
Q 36.921875 41.75 38.25 43.5 
Q 39.59375 45.265625 40.015625 47.40625 
Q 40.4375 49.5625 40.4375 51.609375 
M 42.140625 20.015625 
Q 42.140625 22.515625 41.453125 24.828125 
Q 40.765625 27.15625 39.109375 28.9375 
Q 37.453125 30.71875 34.640625 31.8125 
Q 31.84375 32.90625 27.640625 32.90625 
Q 23.78125 32.90625 21.0625 31.8125 
Q 18.359375 30.71875 16.671875 28.90625 
Q 14.984375 27.09375 14.203125 24.71875 
Q 13.421875 22.359375 13.421875 19.828125 
Q 13.421875 16.65625 14.203125 14.03125 
Q 14.984375 11.421875 16.6875 9.546875 
Q 18.40625 7.671875 21.1875 6.640625 
Q 23.96875 5.609375 27.9375 5.609375 
Q 31.9375 5.609375 34.671875 6.640625 
Q 37.40625 7.671875 39.0625 9.546875 
Q 40.71875 11.421875 41.421875 14.078125 
Q 42.140625 16.75 42.140625 20.015625 
" id="LiberationSans-38"/>
      </defs>
      <g style="fill:#262626;" transform="translate(36.915625 200.5859375)scale(0.1 -0.1)">
       <use xlink:href="#LiberationSans-2212"/>
       <use x="58.3984375" xlink:href="#LiberationSans-34"/>
       <use x="114.013671875" xlink:href="#LiberationSans-38"/>
       <use x="169.62890625" xlink:href="#LiberationSans-30"/>
       <use x="225.244140625" xlink:href="#LiberationSans-30"/>
      </g>
     </g>
    </g>
    <g id="ytick_6">
     <g id="line2d_28">
      <path clip-path="url(#pab61a1954e)" d="M 72 158.4 
L 518.4 158.4 
" style="fill:none;stroke:#ffffff;stroke-linecap:round;"/>
     </g>
     <g id="line2d_29"/>
     <g id="line2d_30"/>
     <g id="text_11">
      <!-- −4700 -->
      <defs>
       <path d="M 50.59375 61.671875 
Q 45.40625 53.765625 41.0625 46.453125 
Q 36.71875 39.15625 33.59375 31.75 
Q 30.46875 24.359375 28.734375 16.578125 
Q 27 8.796875 27 0 
L 17.828125 0 
Q 17.828125 8.25 19.78125 16.1875 
Q 21.734375 24.125 25.046875 31.765625 
Q 28.375 39.40625 32.765625 46.78125 
Q 37.15625 54.15625 42.09375 61.328125 
L 5.125 61.328125 
L 5.125 68.796875 
L 50.59375 68.796875 
z
" id="LiberationSans-37"/>
      </defs>
      <g style="fill:#262626;" transform="translate(36.915625 160.9859375)scale(0.1 -0.1)">
       <use xlink:href="#LiberationSans-2212"/>
       <use x="58.3984375" xlink:href="#LiberationSans-34"/>
       <use x="114.013671875" xlink:href="#LiberationSans-37"/>
       <use x="169.62890625" xlink:href="#LiberationSans-30"/>
       <use x="225.244140625" xlink:href="#LiberationSans-30"/>
      </g>
     </g>
    </g>
    <g id="ytick_7">
     <g id="line2d_31">
      <path clip-path="url(#pab61a1954e)" d="M 72 118.8 
L 518.4 118.8 
" style="fill:none;stroke:#ffffff;stroke-linecap:round;"/>
     </g>
     <g id="line2d_32"/>
     <g id="line2d_33"/>
     <g id="text_12">
      <!-- −4600 -->
      <g style="fill:#262626;" transform="translate(36.915625 121.3859375)scale(0.1 -0.1)">
       <use xlink:href="#LiberationSans-2212"/>
       <use x="58.3984375" xlink:href="#LiberationSans-34"/>
       <use x="114.013671875" xlink:href="#LiberationSans-36"/>
       <use x="169.62890625" xlink:href="#LiberationSans-30"/>
       <use x="225.244140625" xlink:href="#LiberationSans-30"/>
      </g>
     </g>
    </g>
    <g id="ytick_8">
     <g id="line2d_34">
      <path clip-path="url(#pab61a1954e)" d="M 72 79.2 
L 518.4 79.2 
" style="fill:none;stroke:#ffffff;stroke-linecap:round;"/>
     </g>
     <g id="line2d_35"/>
     <g id="line2d_36"/>
     <g id="text_13">
      <!-- −4500 -->
      <g style="fill:#262626;" transform="translate(36.915625 81.7859375)scale(0.1 -0.1)">
       <use xlink:href="#LiberationSans-2212"/>
       <use x="58.3984375" xlink:href="#LiberationSans-34"/>
       <use x="114.013671875" xlink:href="#LiberationSans-35"/>
       <use x="169.62890625" xlink:href="#LiberationSans-30"/>
       <use x="225.244140625" xlink:href="#LiberationSans-30"/>
      </g>
     </g>
    </g>
    <g id="ytick_9">
     <g id="line2d_37">
      <path clip-path="url(#pab61a1954e)" d="M 72 39.6 
L 518.4 39.6 
" style="fill:none;stroke:#ffffff;stroke-linecap:round;"/>
     </g>
     <g id="line2d_38"/>
     <g id="line2d_39"/>
     <g id="text_14">
      <!-- −4400 -->
      <g style="fill:#262626;" transform="translate(36.915625 42.1859375)scale(0.1 -0.1)">
       <use xlink:href="#LiberationSans-2212"/>
       <use x="58.3984375" xlink:href="#LiberationSans-34"/>
       <use x="114.013671875" xlink:href="#LiberationSans-34"/>
       <use x="169.62890625" xlink:href="#LiberationSans-30"/>
       <use x="225.244140625" xlink:href="#LiberationSans-30"/>
      </g>
     </g>
    </g>
   </g>
   <g id="line2d_40">
    <path clip-path="url(#pab61a1954e)" d="M 72 244.091846 
L 72.223312 240.266486 
L 72.446623 238.852157 
L 72.669935 245.506174 
L 72.893247 245.506174 
L 73.116558 240.018065 
L 73.33987 241.930745 
L 73.563182 239.768134 
L 73.786493 236.192705 
L 74.456428 246.922012 
L 74.67974 245.257753 
L 74.903052 246.922012 
L 75.126363 256.404687 
L 75.349675 251.164998 
L 75.572986 260.230047 
L 76.242921 243.593494 
L 76.466233 245.009332 
L 76.689545 243.096652 
L 76.912856 246.672082 
L 77.582791 246.672082 
L 77.806103 248.336341 
L 78.029415 246.423661 
L 78.252726 249.750669 
L 78.69935 253.077678 
L 78.922661 248.336341 
L 79.145973 248.584762 
L 79.815908 217.722689 
L 80.03922 216.059939 
L 80.262531 215.561588 
L 80.485843 214.64561 
L 80.709155 209.155991 
L 80.932466 212.981351 
L 81.155778 209.654343 
L 81.37909 211.567023 
L 81.602401 211.317093 
L 81.825713 214.64561 
L 82.049025 210.82025 
L 82.272336 209.155991 
L 82.495648 209.155991 
L 82.718959 207.243311 
L 82.942271 208.90757 
L 83.388894 220.552855 
L 83.612206 221.717254 
L 84.058829 233.86089 
L 84.282141 239.519713 
L 84.505453 252.330905 
L 84.728764 252.579327 
L 84.952076 250.916577 
L 85.175388 263.97619 
L 85.622011 251.584133 
L 85.845323 259.652479 
L 86.068634 258.486572 
L 86.291946 262.561862 
L 86.738569 251.832554 
L 86.961881 253.496813 
L 87.185193 257.819015 
L 87.631816 244.759402 
L 87.855128 244.510981 
L 88.078439 249.500739 
L 88.301751 244.012629 
L 88.525063 242.598301 
L 88.748374 246.173731 
L 88.971686 239.768134 
L 89.194997 242.179166 
L 89.418309 240.516416 
L 89.641621 224.795841 
L 89.864932 224.29749 
L 90.088244 232.367345 
L 90.311556 234.030094 
L 90.534867 230.454665 
L 90.758179 232.117414 
L 90.981491 240.685621 
L 91.204802 237.108682 
L 91.651426 234.030094 
L 91.874737 244.012629 
L 92.098049 242.598301 
L 92.321361 242.099949 
L 92.544672 242.348371 
L 92.767984 239.937339 
L 92.991296 233.781673 
L 93.214607 241.850019 
L 93.437919 243.514278 
L 93.661231 241.850019 
L 94.107854 245.675379 
L 94.331166 250.168295 
L 94.554477 244.680185 
L 94.777789 246.342935 
L 95.001101 242.517575 
L 95.224412 241.850019 
L 95.447724 233.533252 
L 95.671036 233.283322 
L 95.894347 236.610331 
L 96.117659 233.781673 
L 96.34097 238.772941 
L 96.564282 239.021362 
L 96.787594 237.108682 
L 97.010905 243.514278 
L 97.234217 243.514278 
L 97.457529 242.099949 
L 97.68084 243.514278 
L 98.127464 251.832554 
L 98.350775 245.426958 
L 98.574087 245.178537 
L 98.797399 243.762699 
L 99.02071 247.091217 
L 99.244022 252.080975 
L 99.467334 250.418225 
L 99.690645 245.675379 
L 99.913957 245.675379 
L 100.137269 247.339638 
L 100.36058 213.974094 
L 100.583892 222.540791 
L 100.807204 217.549524 
L 101.030515 223.039143 
L 101.477139 208.736857 
L 101.70045 212.558257 
L 101.923762 220.38365 
L 102.147074 220.628111 
L 102.817009 215.636844 
L 103.04032 217.055133 
L 103.263632 213.728124 
L 103.486943 212.065374 
L 103.710255 217.055133 
L 103.933567 215.142453 
L 104.38019 218.888596 
L 104.603502 232.696491 
L 105.050125 219.057801 
L 105.273437 209.076775 
L 105.496748 205.748257 
L 105.72006 219.137017 
L 105.943372 225.792544 
L 106.166683 227.206872 
L 106.389995 232.615766 
L 106.613307 229.787108 
L 106.836618 224.795841 
L 107.05993 214.564885 
L 107.506553 218.141824 
L 107.729865 217.891894 
L 107.953177 221.468832 
L 108.846423 211.905432 
L 109.293047 200.429352 
L 109.516358 204.753064 
L 109.73967 203.088805 
L 109.962981 204.254712 
L 110.186293 196.603992 
L 110.409605 193.276984 
L 110.856228 196.105641 
L 111.07954 202.342032 
L 111.302851 201.843681 
L 111.526163 204.006291 
L 111.749475 201.843681 
L 111.972786 204.006291 
L 112.196098 197.102344 
L 112.41941 200.429352 
L 112.642721 195.189664 
L 112.866033 200.180931 
L 113.089345 198.765094 
L 113.312656 200.677774 
L 113.535968 200.677774 
L 113.75928 198.097537 
L 113.982591 193.107779 
L 114.205903 196.434788 
L 114.429215 190.446817 
L 114.652526 199.015024 
L 114.875838 195.438085 
L 115.09915 187.787365 
L 115.322461 186.373036 
L 115.545773 183.046028 
L 115.769085 184.708777 
L 115.992396 187.787365 
L 116.215708 184.211935 
L 116.43902 176.561215 
L 116.662331 176.561215 
L 117.108954 168.910495 
L 117.332266 168.412144 
L 117.555578 173.651832 
L 117.778889 168.412144 
L 118.002201 171.987574 
L 118.225513 171.320017 
L 118.448824 169.158916 
L 118.672136 174.398605 
L 118.895448 166.997815 
L 119.118759 169.158916 
L 119.342071 165.581977 
L 119.565383 165.831908 
L 119.788694 162.006548 
L 120.012006 163.669297 
L 120.235318 162.006548 
L 120.458629 142.385356 
L 120.681941 144.546457 
L 120.905253 151.948756 
L 121.128564 154.777414 
L 121.351876 149.289304 
L 121.575188 150.036076 
L 122.021811 160.515454 
L 122.691746 171.244761 
L 122.915058 170.074894 
L 123.138369 169.830432 
L 123.361681 174.57177 
L 123.584992 174.073418 
L 123.808304 185.720212 
L 124.031616 180.479014 
L 124.254927 179.314616 
L 124.478239 180.728945 
L 124.701551 179.563037 
L 124.924862 176.236028 
L 125.148174 181.475717 
L 125.594797 172.65909 
L 125.818109 172.65909 
L 126.041421 170.99634 
L 126.264732 170.99634 
L 126.711356 167.669331 
L 126.934667 165.756651 
L 127.157979 173.157441 
L 127.381291 172.90902 
L 127.604602 176.236028 
L 128.051226 169.999637 
L 128.274537 180.230593 
L 128.497849 180.479014 
L 128.721161 178.317913 
L 129.167784 183.309181 
L 129.391096 182.143273 
L 129.614407 183.807532 
L 129.837719 182.143273 
L 130.061031 181.894852 
L 130.284342 183.807532 
L 130.507654 178.566334 
L 130.730965 178.816265 
L 130.954277 183.557602 
L 131.177589 185.470282 
L 131.4009 189.963198 
L 131.624212 189.047221 
L 131.847524 187.134541 
L 132.070835 188.797291 
L 132.517459 199.695803 
L 132.74077 194.456114 
L 132.964082 193.788558 
L 133.187394 197.115567 
L 133.410705 191.377527 
L 133.634017 193.041785 
L 133.857329 184.225158 
L 134.08064 182.312478 
L 134.303952 176.326017 
L 134.527264 177.988767 
L 134.750575 176.822859 
L 134.973887 180.399798 
L 135.42051 165.177574 
L 135.643822 166.593412 
L 135.867134 163.264894 
L 136.090445 164.929153 
L 136.313757 161.103793 
L 136.537069 162.518122 
L 136.76038 160.605442 
L 136.983692 155.864105 
L 137.430315 159.689465 
L 137.653627 159.439534 
L 138.10025 157.030012 
L 138.323562 157.278433 
L 138.546873 147.715033 
L 138.770185 147.715033 
L 138.993497 157.030012 
L 139.216808 152.954722 
L 139.44012 153.453073 
L 139.663432 147.466612 
L 139.886743 146.050774 
L 140.333367 132.991161 
L 140.556678 138.23085 
L 140.77999 131.328411 
L 141.003302 133.241091 
L 141.449925 156.531661 
L 141.673237 161.692133 
L 141.896548 153.123927 
L 142.11986 140.158262 
L 142.343172 119.118782 
L 142.789795 151.305195 
L 143.013107 151.305195 
L 143.236418 156.296463 
L 143.45973 147.728256 
L 143.683042 154.383783 
L 143.906353 154.632204 
L 144.129665 157.710791 
L 144.352976 156.296463 
L 144.576288 160.370244 
L 144.7996 160.868595 
L 145.022911 163.275666 
L 145.246223 163.774018 
L 145.469535 165.686698 
L 145.916158 160.197079 
L 146.13947 159.450306 
L 146.362781 159.450306 
L 147.032716 153.964648 
L 147.256028 157.291656 
L 147.47934 157.043235 
L 147.925963 151.056774 
L 148.149275 151.056774 
L 148.372586 154.383783 
L 148.595898 151.056774 
L 148.81921 151.305195 
L 149.042521 152.471103 
L 149.935768 202.37925 
L 150.15908 185.742698 
L 150.382391 179.088681 
L 150.605703 179.088681 
L 150.829015 182.167268 
L 151.052326 181.917338 
L 151.275638 177.176001 
L 151.498949 178.84026 
L 151.722261 176.92758 
L 151.945573 178.341908 
L 152.168884 185.244347 
L 152.392196 213.526184 
L 152.615508 195.226882 
L 152.838819 203.545158 
L 153.062131 199.968219 
L 153.285443 198.305469 
L 153.508754 203.295228 
L 153.732066 196.64121 
L 153.955378 204.711065 
L 154.402001 184.249153 
L 154.625313 187.824583 
L 154.848624 196.223584 
L 155.071936 190.733966 
L 155.518559 188.15373 
L 155.741871 193.393418 
L 155.965183 187.406957 
L 156.188494 189.069707 
L 156.411806 184.5783 
L 156.635118 190.31634 
L 156.858429 191.97909 
L 157.081741 189.817988 
L 157.305053 198.136264 
L 157.528364 188.15373 
L 157.751676 191.730668 
L 157.974987 189.568058 
L 158.198299 185.742698 
L 158.421611 198.384686 
L 158.644922 189.568058 
L 158.868234 191.232317 
L 159.091546 189.568058 
L 159.314857 183.830018 
L 159.761481 183.830018 
L 159.984792 177.843557 
L 160.208104 183.331667 
L 160.431416 180.004658 
L 160.654727 178.341908 
L 160.878039 180.50301 
L 161.101351 172.184733 
L 161.324662 175.511742 
L 161.547974 172.184733 
L 161.771286 176.92758 
L 161.994597 175.263321 
L 162.217909 180.004658 
L 162.441221 180.004658 
L 162.664532 171.686382 
L 163.111156 186.660184 
L 163.334467 181.668917 
L 163.557779 181.668917 
L 164.004402 194.978461 
L 164.227714 189.987193 
L 164.451026 193.065781 
L 164.674337 219.683359 
L 164.897649 228.001635 
L 165.12096 218.0191 
L 165.344272 224.923047 
L 165.567584 226.587306 
L 165.790895 224.923047 
L 166.014207 232.992902 
L 166.684142 276.495454 
L 166.907454 273.416867 
L 167.130765 291.717678 
L 167.354077 324.989273 
L 167.577389 318.335256 
L 167.8007 307.357527 
L 168.024012 340.380702 
L 168.470635 311.850443 
L 168.693947 310.684536 
L 168.917259 312.098865 
L 169.14057 303.780589 
L 169.363882 288.559874 
L 169.810505 276.914589 
L 170.033817 273.586072 
L 170.257129 261.940787 
L 170.48044 238.650217 
L 170.703752 251.959761 
L 170.927064 256.951028 
L 171.596998 228.669191 
L 171.82031 236.987467 
L 172.043622 235.323208 
L 172.266933 230.331941 
L 172.490245 242.475577 
L 172.713557 223.926345 
L 172.936868 225.839025 
L 173.16018 235.402425 
L 173.830115 247.04771 
L 174.053427 236.818262 
L 174.276738 237.066684 
L 174.50005 238.481012 
L 174.723362 243.720701 
L 174.946673 253.453306 
L 175.169985 256.781823 
L 175.616608 241.5596 
L 175.83992 246.550867 
L 176.063232 256.781823 
L 176.286543 253.703236 
L 176.509855 258.196152 
L 176.733167 248.463547 
L 176.956478 252.038977 
L 177.17979 250.376227 
L 177.403102 252.038977 
L 177.626413 248.463547 
L 177.849725 251.540626 
L 178.073037 251.292205 
L 178.296348 258.444573 
L 178.51966 231.328644 
L 178.742971 240.393692 
L 178.966283 237.982661 
L 179.189595 237.066684 
L 179.412906 217.103123 
L 179.636218 223.75714 
L 179.85953 221.84446 
L 180.082841 223.508719 
L 180.529465 210.199175 
L 180.752776 206.872167 
L 180.976088 213.526184 
L 181.1994 213.277763 
L 181.422711 209.950754 
L 181.646023 210.040742 
L 181.869335 210.537585 
L 182.092646 206.215382 
L 182.315958 217.860667 
L 182.53927 217.610737 
L 182.762581 217.860667 
L 182.985893 216.943181 
L 183.209205 217.441532 
L 183.432516 211.285866 
L 183.655828 211.285866 
L 183.87914 199.889003 
L 184.102451 206.54302 
L 184.325763 202.96759 
L 184.549075 203.216011 
L 184.772386 180.672214 
L 184.995698 174.76497 
L 185.21901 175.263321 
L 185.442321 166.446693 
L 185.665633 168.110952 
L 185.888944 174.516548 
L 186.112256 170.93961 
L 186.335568 165.4515 
L 186.558879 172.353938 
L 186.782191 165.4515 
L 187.005503 164.035662 
L 187.452126 167.11425 
L 187.675438 160.210302 
L 188.122061 174.347343 
L 188.345373 172.434663 
L 188.568684 179.088681 
L 188.791996 178.59033 
L 189.015308 172.85229 
L 189.238619 180.922144 
L 189.461931 173.271424 
L 189.908554 180.173863 
L 190.131866 168.947713 
L 190.355178 174.187402 
L 190.578489 167.035033 
L 190.801801 168.947713 
L 191.025113 159.384313 
L 191.248424 163.877229 
L 191.471736 160.30029 
L 191.695048 158.885962 
L 191.918359 160.798642 
L 192.141671 161.545414 
L 192.364982 166.785103 
L 192.811606 138.597214 
L 193.034917 139.763122 
L 193.258229 145.995553 
L 193.704852 138.922401 
L 193.928164 138.922401 
L 194.374787 132.268383 
L 194.821411 137.258142 
L 195.044722 135.595392 
L 195.268034 135.595392 
L 195.491346 140.33673 
L 195.714657 140.33673 
L 196.161281 142.916966 
L 196.384592 130.524908 
L 196.607904 132.437588 
L 196.831216 129.11058 
L 197.277839 136.934464 
L 197.724462 130.030517 
L 198.171086 133.851917 
L 198.394397 128.366258 
L 198.617709 125.955227 
L 198.841021 130.030517 
L 199.064332 121.633024 
L 199.287644 126.205157 
L 199.510955 124.540898 
L 199.734267 117.140108 
L 199.957579 122.379797 
L 200.18089 119.052788 
L 200.627514 125.955227 
L 201.074137 114.729077 
L 201.297449 116.641757 
L 201.52076 120.467117 
L 201.744072 111.152138 
L 201.967384 116.890178 
L 202.190695 113.982304 
L 202.414007 143.42854 
L 202.637319 141.51586 
L 203.083942 145.34122 
L 203.307254 144.176821 
L 203.530565 137.272874 
L 203.753877 137.94043 
L 203.977189 136.526101 
L 204.2005 131.783255 
L 204.423812 132.033185 
L 204.647124 132.530028 
L 204.870435 135.608615 
L 205.093747 134.194287 
L 205.763682 147.752251 
L 205.986993 145.092799 
L 206.433617 135.608615 
L 206.88024 140.101531 
L 207.103552 140.599883 
L 207.326863 136.774523 
L 207.550175 135.360194 
L 207.773487 140.848304 
L 207.996798 142.264141 
L 208.22011 155.572176 
L 208.443422 143.926891 
L 208.666733 149.16658 
L 208.890045 145.59115 
L 209.55998 161.977772 
L 210.006603 157.484856 
L 210.229915 155.822106 
L 210.453227 162.476124 
L 211.123162 157.983207 
L 211.346473 162.056989 
L 211.569785 153.490291 
L 211.793097 155.402971 
L 212.23972 151.827541 
L 212.463032 150.163283 
L 212.686343 149.914861 
L 212.909655 151.577611 
L 213.132966 149.914861 
L 213.356278 144.923594 
L 213.57959 146.836274 
L 213.802901 141.845007 
L 214.026213 141.845007 
L 214.249525 148.499024 
L 214.472836 141.098234 
L 214.696148 138.687203 
L 214.91946 144.176821 
L 215.142771 144.176821 
L 215.366083 140.599883 
L 215.589395 140.599883 
L 215.812706 138.935624 
L 216.036018 142.512563 
L 216.482641 132.779958 
L 216.705953 132.281607 
L 216.929265 133.945865 
L 217.152576 134.194287 
L 217.375888 137.272874 
L 217.5992 137.272874 
L 217.822511 140.599883 
L 218.045823 138.935624 
L 218.269135 147.005479 
L 218.93907 137.272874 
L 219.385693 146.755549 
L 219.609005 143.180119 
L 219.832316 136.276171 
L 220.055628 136.02775 
L 220.278939 131.036483 
L 220.502251 136.774523 
L 220.725563 135.110264 
L 220.948874 143.42854 
L 221.172186 156.738084 
L 221.395498 155.741381 
L 221.618809 153.411075 
L 221.842121 161.729351 
L 222.288744 191.175587 
L 222.512056 187.350227 
L 222.735368 194.005753 
L 222.958679 197.332762 
L 223.181991 198.74709 
L 223.405303 190.180393 
L 223.628614 188.766064 
L 223.851926 198.995512 
L 224.075238 193.755823 
L 224.298549 181.862117 
L 224.521861 185.189125 
L 224.745173 184.273148 
L 224.968484 184.769991 
L 225.415108 167.885017 
L 225.638419 176.203293 
L 225.861731 175.954872 
L 226.085043 171.461956 
L 226.308354 152.912724 
L 226.531666 146.008776 
L 226.754977 157.903991 
L 226.978289 155.991311 
L 227.201601 151.000044 
L 227.424912 154.327052 
L 227.648224 161.231 
L 227.871536 154.078631 
L 228.318159 161.479421 
L 228.541471 151.498395 
L 228.764782 147.921456 
L 228.988094 150.332487 
L 229.434717 159.647466 
L 229.658029 151.07926 
L 229.881341 162.974475 
L 230.104652 159.895887 
L 230.327964 159.397536 
L 230.551276 153.411075 
L 230.774587 155.073825 
L 230.997899 153.659496 
L 231.221211 158.650764 
L 231.444522 156.986505 
L 231.667834 150.332487 
L 231.891146 150.830839 
L 232.114457 154.656199 
L 232.337769 155.652901 
L 232.561081 144.673664 
L 232.784392 140.430678 
L 233.007704 141.17745 
L 233.454327 147.583047 
L 233.677639 140.929029 
L 233.90095 154.237064 
L 234.124262 144.006108 
L 234.347574 144.006108 
L 234.570885 148.081398 
L 234.794197 148.081398 
L 235.017509 149.994078 
L 235.24082 159.303588 
L 235.464132 160.719425 
L 235.687444 171.447224 
L 235.910755 175.024163 
L 236.58069 162.21297 
L 236.804002 177.51441 
L 237.027314 175.103379 
L 237.250625 176.767638 
L 237.473937 170.362042 
L 237.697249 173.68905 
L 237.92056 171.527949 
L 238.143872 167.702589 
L 238.367184 173.190699 
L 238.590495 167.452659 
L 238.813807 172.195505 
L 239.037119 167.204238 
L 239.26043 174.356607 
L 239.483742 170.531247 
L 239.930365 166.207535 
L 240.153677 182.595666 
L 240.6003 179.018727 
L 240.823612 184.508346 
L 241.046923 177.354469 
L 241.270235 179.517079 
L 241.493547 179.517079 
L 241.716858 177.85282 
L 242.163482 194.489372 
L 242.610105 189.249684 
L 242.833417 191.909136 
L 243.056728 186.421026 
L 243.28004 187.585425 
L 243.503352 182.345736 
L 243.949975 189.249684 
L 244.173287 184.009995 
L 244.396598 187.337004 
L 245.289845 173.779039 
L 245.513157 169.037701 
L 245.736468 173.533069 
L 245.95978 180.682986 
L 246.183092 166.03833 
L 246.406403 171.278019 
L 246.853027 160.798642 
L 247.076338 161.047063 
L 247.29965 160.550221 
L 247.522961 163.877229 
L 247.746273 163.378878 
L 247.969585 160.469495 
L 248.416208 152.075963 
L 248.63952 163.472826 
L 248.862831 164.219599 
L 249.086143 165.385506 
L 249.309455 180.433056 
L 249.532766 171.123546 
L 249.756078 174.948906 
L 249.97939 167.795029 
L 250.202701 167.048256 
L 250.426013 168.214164 
L 250.649325 157.734786 
L 251.095948 174.450555 
L 251.31926 174.450555 
L 251.542571 170.126844 
L 251.765883 181.523707 
L 251.989195 187.011817 
L 252.212506 183.436387 
L 252.435818 173.453852 
L 252.65913 172.039524 
L 252.882441 168.712515 
L 253.105753 167.048256 
L 253.329065 181.104572 
L 253.552376 176.611656 
L 253.775688 178.524336 
L 253.998999 175.691719 
L 254.222311 177.354469 
L 254.445623 170.700451 
L 254.668934 168.370145 
L 254.892246 162.382175 
L 255.562181 181.67818 
L 256.008804 171.447224 
L 256.232116 180.01543 
L 256.455428 176.438491 
L 256.678739 180.01543 
L 256.902051 174.27739 
L 257.125363 178.10275 
L 257.571986 176.861586 
L 257.795298 175.864884 
L 258.241921 192.328271 
L 258.465233 185.424324 
L 258.688544 188.083776 
L 259.135168 178.770306 
L 259.358479 185.424324 
L 259.581791 187.835355 
L 259.805103 184.009995 
L 260.028414 183.515604 
L 260.698349 170.20606 
L 260.921661 173.779039 
L 261.144972 168.54331 
L 261.368284 173.533069 
L 261.591596 181.179829 
L 261.814907 179.267149 
L 262.038219 179.690244 
L 262.261531 188.506871 
L 262.484842 181.851345 
L 262.708154 183.267182 
L 262.931466 186.842612 
L 263.154777 188.506871 
L 263.378089 186.594191 
L 263.601401 181.354502 
L 263.824712 186.344261 
L 264.048024 176.936843 
L 264.271336 175.024163 
L 264.494647 186.917869 
L 264.717959 160.89259 
L 264.941271 160.394239 
L 265.164582 170.625195 
L 265.387894 171.123546 
L 265.611206 165.385506 
L 265.834517 175.118111 
L 266.504452 144.096096 
L 266.727764 146.507127 
L 266.951076 146.507127 
L 267.174387 143.180119 
L 267.397699 142.014211 
L 267.621011 142.264141 
L 267.844322 142.760984 
L 268.067634 147.334625 
L 268.290945 146.586344 
L 268.514257 151.827541 
L 268.737569 143.757687 
L 268.96088 150.816107 
L 269.407504 141.751058 
L 269.630815 144.331294 
L 270.077439 143.832943 
L 270.30075 142.170193 
L 270.524062 145.497202 
L 270.747374 145.745623 
L 270.970685 149.153357 
L 271.193997 143.663738 
L 271.417309 144.16209 
L 271.64062 141.581853 
L 271.863932 146.573121 
L 272.087244 138.175628 
L 272.310555 149.401778 
L 272.757179 147.489098 
L 272.98049 150.816107 
L 273.427114 153.894694 
L 273.650425 158.716757 
L 274.097049 162.542117 
L 274.32036 152.978717 
L 274.543672 161.047063 
L 274.766983 161.296993 
L 274.990295 156.057304 
L 275.213607 158.218406 
L 275.436918 162.292187 
L 275.66023 163.956446 
L 275.883542 163.956446 
L 276.106853 153.227138 
L 276.330165 153.227138 
L 276.553477 156.554147 
L 277.223412 151.066037 
L 277.670035 146.742326 
L 277.893347 140.505934 
L 278.116658 152.728787 
L 278.33997 146.990747 
L 278.563282 145.995553 
L 278.786593 149.570983 
L 279.009905 147.409882 
L 279.233217 147.409882 
L 279.456528 147.908233 
L 279.67984 145.745623 
L 280.126463 149.820913 
L 280.349775 147.583047 
L 280.573087 143.509265 
L 280.796398 142.343358 
L 281.01971 138.517998 
L 281.243022 139.932327 
L 281.466333 147.831468 
L 281.689645 142.343358 
L 281.912956 147.831468 
L 282.136268 149.744148 
L 282.35958 149.247305 
L 282.582891 149.247305 
L 283.029515 136.934464 
L 283.252826 135.270206 
L 283.476138 137.178926 
L 283.69945 123.624921 
L 283.922761 180.922144 
L 284.146073 184.249153 
L 284.369385 208.207279 
L 284.592696 190.494807 
L 284.816008 192.655909 
L 285.03932 192.655909 
L 285.262631 194.399384 
L 285.485943 171.358744 
L 285.709255 180.004658 
L 285.932566 170.93961 
L 286.37919 181.917338 
L 286.602501 180.004658 
L 286.825813 154.383783 
L 287.049125 165.361511 
L 287.272436 152.221172 
L 287.495748 153.138659 
L 287.71906 149.313299 
L 287.942371 148.395812 
L 288.165683 142.907703 
L 288.388994 143.156124 
L 288.612306 141.243444 
L 288.835618 153.38708 
L 289.058929 147.897461 
L 289.282241 153.138659 
L 289.505553 162.95048 
L 289.728864 157.959212 
L 289.952176 157.21244 
L 290.398799 164.364809 
L 290.622111 165.032365 
L 290.845423 168.110952 
L 291.068734 165.032365 
L 291.292046 163.866457 
L 291.738669 163.866457 
L 291.961981 164.116387 
L 292.185293 163.198901 
L 292.408604 168.190169 
L 292.631916 166.029067 
L 292.855228 167.194975 
L 293.078539 165.282295 
L 293.301851 167.443396 
L 293.525163 170.770405 
L 293.748474 172.434663 
L 293.971786 170.521983 
L 294.195098 172.434663 
L 294.418409 169.356076 
L 294.641721 164.116387 
L 294.865033 164.614739 
L 295.088344 164.116387 
L 295.311656 161.0378 
L 295.534967 156.046532 
L 295.758279 165.859863 
L 295.981591 166.77584 
L 296.204902 165.361511 
L 296.428214 153.217875 
L 296.651526 150.389218 
L 296.874837 140.656613 
L 297.098149 145.896302 
L 297.544772 139.486745 
L 297.768084 146.887535 
L 297.991396 146.887535 
L 298.214707 148.551794 
L 298.438019 145.473207 
L 298.884642 152.875505 
L 299.107954 160.276295 
L 299.331266 156.700865 
L 299.554577 161.692133 
L 299.777889 158.363615 
L 300.001201 163.604813 
L 300.224512 165.267563 
L 300.447824 158.363615 
L 300.671136 161.692133 
L 300.894447 158.115194 
L 301.117759 152.128733 
L 301.341071 155.704163 
L 301.564382 152.128733 
L 301.787694 154.289834 
L 302.011006 154.289834 
L 302.234317 160.69543 
L 302.457629 153.791483 
L 302.68094 150.464474 
L 302.904252 152.625575 
L 303.127564 148.132659 
L 303.350875 132.413593 
L 303.574187 136.487374 
L 303.797499 137.903212 
L 304.02081 145.304002 
L 304.244122 140.064313 
L 304.467434 141.976993 
L 304.690745 140.064313 
L 304.914057 145.304002 
L 305.137369 141.478642 
L 305.36068 141.478642 
L 305.583992 143.391322 
L 305.807304 129.086585 
L 306.030615 135.492181 
L 306.253927 137.154931 
L 306.70055 144.307299 
L 306.923862 140.731869 
L 307.147174 152.625575 
L 307.370485 142.644549 
L 307.593797 144.307299 
L 307.817109 147.635817 
L 308.04042 156.700865 
L 308.263732 158.861967 
L 308.487044 165.019142 
L 308.710355 164.101655 
L 308.933667 170.757182 
L 309.156978 167.180243 
L 309.38029 169.591274 
L 309.603602 181.236559 
L 310.050225 183.318444 
L 310.273537 174.501816 
L 310.496848 178.327176 
L 310.72016 172.839066 
L 311.390095 179.991435 
L 311.613407 179.991435 
L 311.836718 183.568374 
L 312.06003 181.655694 
L 312.283342 184.982703 
L 312.506653 177.830334 
L 312.953277 171.174808 
L 313.176588 174.751746 
L 313.3999 175.000168 
L 313.623212 176.664426 
L 313.846523 175.000168 
L 314.069835 176.414496 
L 314.293147 179.743014 
L 314.516458 175.000168 
L 314.73977 173.087488 
L 314.963082 176.414496 
L 315.186393 175.000168 
L 315.409705 175.000168 
L 315.633017 181.904115 
L 315.856328 181.655694 
L 316.07964 188.309711 
L 316.302951 184.732772 
L 316.526263 184.732772 
L 316.749575 179.493084 
L 316.972886 179.991435 
L 317.642821 184.484351 
L 317.866133 184.234421 
L 318.089445 180.658991 
L 318.312756 188.727337 
L 318.75938 169.681263 
L 318.982691 176.833631 
L 319.206003 173.256692 
L 319.652626 189.644823 
L 320.09925 204.946263 
L 320.322561 202.783653 
L 320.545873 208.023342 
L 320.769185 198.042316 
L 320.992496 193.797821 
L 321.43912 201.867676 
L 321.885743 226.822504 
L 322.109055 221.831237 
L 322.332366 225.905018 
L 322.555678 227.817698 
L 322.778989 192.721902 
L 323.002301 229.730378 
L 323.225613 192.721902 
L 323.448924 201.698471 
L 323.672236 169.186871 
L 323.895548 230.397934 
L 324.118859 237.132677 
L 324.565483 224.49069 
L 324.788794 211.182655 
L 325.235418 227.24013 
L 325.458729 222.248863 
L 325.682041 212.111855 
L 325.905353 213.277763 
L 326.351976 192.055855 
L 326.575288 200.372622 
L 326.798599 181.917338 
L 327.021911 178.341908 
L 327.245223 177.593627 
L 327.468534 180.004658 
L 327.691846 176.92758 
L 327.915158 184.497574 
L 328.138469 208.690898 
L 328.361781 199.131458 
L 328.585093 194.963729 
L 328.808404 180.738208 
L 329.031716 176.664426 
L 329.255028 193.131774 
L 329.478339 196.458783 
L 329.701651 197.623181 
L 329.924962 193.5494 
L 330.148274 200.453347 
L 330.371586 202.116097 
L 330.594897 198.789089 
L 330.818209 202.116097 
L 331.041521 208.273272 
L 331.264832 206.858943 
L 331.488144 204.447912 
L 331.711456 209.43918 
L 331.934767 211.10193 
L 332.158079 216.83997 
L 332.381391 214.678868 
L 332.604702 225.825802 
L 332.828014 225.825802 
L 333.051326 227.738482 
L 333.274637 224.161543 
L 333.497949 224.161543 
L 333.721261 232.231398 
L 333.944572 226.074223 
L 334.167884 224.411473 
L 334.391196 229.899583 
L 334.614507 231.563842 
L 334.837819 240.798095 
L 335.061131 243.876683 
L 335.284442 248.86795 
L 335.507754 244.544239 
L 335.731066 261.180791 
L 335.954377 264.5078 
L 336.401001 252.862515 
L 336.624312 254.775195 
L 336.847624 249.535506 
L 337.294247 252.862515 
L 337.517559 242.87998 
L 337.74087 249.535506 
L 337.964182 246.206989 
L 338.187494 253.110936 
L 338.410805 249.535506 
L 338.634117 247.871247 
L 338.857429 247.376856 
L 339.08074 249.041115 
L 339.304052 242.631559 
L 339.973987 237.640291 
L 340.197299 239.552971 
L 340.42061 242.87998 
L 340.643922 239.30455 
L 340.867234 241.21723 
L 341.090545 233.57047 
L 341.313857 230.243461 
L 341.537169 234.984799 
L 341.76048 226.914944 
L 342.430415 241.390395 
L 342.653727 240.892044 
L 342.877039 218.767381 
L 343.10035 218.767381 
L 343.323662 217.103123 
L 343.546973 220.680061 
L 343.770285 219.762575 
L 344.216908 229.246759 
L 344.44022 230.909509 
L 344.663532 230.909509 
L 344.886843 227.334079 
L 345.110155 234.238026 
L 345.333467 224.00707 
L 345.556778 227.83243 
L 345.78009 228.080851 
L 346.450025 235.731571 
L 346.673337 232.404563 
L 346.896648 242.631559 
L 347.566583 232.898954 
L 348.013207 237.890221 
L 348.236518 232.898954 
L 348.906453 242.87998 
L 349.129765 259.766462 
L 349.353077 254.775195 
L 349.576388 252.44338 
L 349.7997 247.871247 
L 350.023012 235.402425 
L 350.246323 231.577065 
L 350.469635 242.725507 
L 350.692946 243.393063 
L 350.916258 222.850426 
L 351.13957 227.343342 
L 351.362881 227.343342 
L 351.586193 224.266263 
L 351.809505 230.999497 
L 352.032816 231.9962 
L 352.256128 221.934448 
L 352.47944 223.598707 
L 352.702751 221.436097 
L 353.149375 192.501436 
L 353.372686 200.569782 
L 353.595998 196.744422 
L 353.81931 198.657102 
L 354.042621 198.907032 
L 354.265933 200.819712 
L 354.489245 204.645072 
L 354.712556 195.40535 
L 354.935868 196.076866 
L 355.15918 191.087107 
L 355.382491 191.087107 
L 355.605803 194.414116 
L 355.829115 202.309297 
L 356.052426 200.646547 
L 356.275738 202.309297 
L 356.49905 202.309297 
L 356.722361 209.461666 
L 356.945673 204.471907 
L 357.168984 213.038605 
L 357.392296 207.798916 
L 357.615608 211.125925 
L 357.838919 208.964823 
L 358.508854 220.190973 
L 358.732166 219.194271 
L 358.955478 219.942552 
L 359.178789 219.194271 
L 359.402101 221.605302 
L 359.625413 217.779942 
L 359.848724 216.117192 
L 360.072036 211.374346 
L 360.295348 213.287026 
L 360.518659 220.937746 
L 360.741971 220.937746 
L 360.965283 224.763106 
L 361.635218 220.27019 
L 361.858529 215.280431 
L 362.081841 216.943181 
L 362.305153 214.114524 
L 362.751776 189.159695 
L 362.975088 204.88027 
L 363.198399 203.465941 
L 363.645023 210.119959 
L 363.868334 210.119959 
L 364.091646 208.4557 
L 364.538269 208.4557 
L 364.761581 202.300034 
L 364.984892 210.61831 
L 365.208204 211.116661 
L 365.431516 212.779411 
L 365.654827 211.116661 
L 365.878139 212.779411 
L 366.101451 208.70563 
L 366.548074 215.937215 
L 366.771386 221.426834 
L 366.994697 221.176904 
L 367.218009 224.753843 
L 367.441321 223.089584 
L 367.664632 222.342811 
L 367.887944 220.680061 
L 368.111256 217.103123 
L 368.334567 222.09439 
L 368.557879 215.190443 
L 368.781191 216.854701 
L 369.004502 216.604771 
L 369.227814 213.776114 
L 369.451126 217.103123 
L 369.674437 215.688794 
L 369.897749 220.260927 
L 370.121061 217.103123 
L 370.344372 222.09439 
L 370.567684 223.75714 
L 370.790995 218.26903 
L 371.014307 221.596039 
L 371.237619 222.761946 
L 371.684242 208.038074 
L 372.130865 208.784847 
L 372.354177 213.526184 
L 372.577489 212.111855 
L 372.8008 213.526184 
L 373.024112 220.18171 
L 373.247424 211.613504 
L 373.470735 220.350915 
L 373.694047 216.525555 
L 373.917359 223.598707 
L 374.14067 202.050104 
L 374.363982 195.396087 
L 374.587294 192.985055 
L 374.810605 184.747504 
L 375.033917 189.987193 
L 375.257229 182.584894 
L 375.703852 188.322934 
L 375.927164 183.750802 
L 376.150475 176.100082 
L 376.373787 180.173863 
L 376.597099 182.086543 
L 376.82041 182.336473 
L 377.043722 186.161833 
L 377.267034 184.497574 
L 377.490345 184.497574 
L 377.713657 186.161833 
L 378.16028 174.097413 
L 378.383592 176.010093 
L 378.606903 174.347343 
L 378.830215 177.674352 
L 379.053527 176.010093 
L 379.276838 179.337102 
L 379.50015 173.848992 
L 379.946773 171.020335 
L 380.170085 175.511742 
L 380.393397 168.857725 
L 380.616708 170.521983 
L 380.84002 170.272053 
L 381.063332 170.272053 
L 381.286643 167.194975 
L 381.509955 167.194975 
L 381.733267 170.770405 
L 381.956578 172.434663 
L 382.17989 167.194975 
L 382.403202 165.779137 
L 382.626513 167.691817 
L 382.849825 160.539449 
L 383.296448 163.618036 
L 383.51976 170.023632 
L 383.743072 165.282295 
L 383.966383 172.184733 
L 384.189695 172.184733 
L 384.413007 173.848992 
L 384.636318 173.848992 
L 384.85963 174.097413 
L 385.082941 175.761672 
L 385.752876 171.020335 
L 385.976188 176.508445 
L 386.1995 144.899599 
L 386.422811 148.226608 
L 386.646123 149.890866 
L 386.869435 157.541586 
L 387.092746 160.868595 
L 387.316058 157.541586 
L 387.53937 157.541586 
L 387.762681 155.628906 
L 387.985993 158.209143 
L 388.209305 158.209143 
L 388.432616 156.296463 
L 388.655928 156.296463 
L 388.87924 157.959212 
L 389.102551 161.536151 
L 389.325863 161.0378 
L 389.549175 156.296463 
L 389.772486 157.710791 
L 390.442421 157.710791 
L 390.665733 159.792676 
L 390.889045 158.378347 
L 391.112356 165.530716 
L 391.335668 163.369615 
L 391.558979 171.686382 
L 391.782291 166.696623 
L 392.005603 166.696623 
L 392.228914 159.373541 
L 392.452226 158.209143 
L 392.675538 159.871892 
L 392.898849 154.882134 
L 393.122161 156.046532 
L 393.345473 159.373541 
L 393.568784 147.728256 
L 393.792096 151.056774 
L 394.015408 151.056774 
L 394.238719 151.553616 
L 394.462031 153.217875 
L 394.685343 149.890866 
L 394.908654 148.226608 
L 395.131966 148.226608 
L 395.355278 138.245582 
L 395.578589 136.581323 
L 395.801901 157.21244 
L 396.025213 152.390377 
L 396.248524 151.722821 
L 396.471836 141.990216 
L 396.695148 146.981484 
L 396.918459 170.023632 
L 397.141771 171.686382 
L 397.365083 162.452129 
L 397.588394 168.09622 
L 397.811706 166.851096 
L 398.035018 199.039019 
L 398.258329 191.885141 
L 398.481641 192.383492 
L 398.704952 192.383492 
L 399.151576 185.481054 
L 399.374887 184.065216 
L 399.598199 172.17151 
L 399.821511 172.17151 
L 400.044822 171.005603 
L 400.268134 177.162778 
L 400.491446 167.599378 
L 400.714757 171.174808 
L 400.938069 167.847799 
L 401.161381 169.512058 
L 401.384692 175.917654 
L 401.608004 177.082052 
L 401.831316 175.169372 
L 402.054627 165.436768 
L 402.277939 171.424738 
L 402.501251 173.087488 
L 402.724562 172.839066 
L 402.947874 182.820092 
L 403.171186 184.732772 
L 403.394497 179.244663 
L 403.617809 191.138369 
L 404.064432 184.732772 
L 404.287744 183.070023 
L 404.511056 182.571671 
L 404.734367 182.571671 
L 404.957679 180.907412 
L 405.18099 175.917654 
L 405.404302 174.004974 
L 405.627614 175.667724 
L 405.850925 178.994732 
L 406.074237 177.331983 
L 406.297549 180.907412 
L 406.52086 172.340715 
L 406.744172 180.658991 
L 406.967484 178.994732 
L 407.190795 184.234421 
L 407.86073 161.784572 
L 408.084042 161.536151 
L 408.307354 159.373541 
L 408.530665 159.871892 
L 408.753977 159.871892 
L 408.977289 165.361511 
L 409.2006 163.448831 
L 409.423912 169.186871 
L 409.647224 170.352779 
L 409.870535 169.604497 
L 410.093847 148.894164 
L 410.317159 146.981484 
L 410.54047 154.133852 
L 410.763782 152.471103 
L 410.987094 154.133852 
L 411.210405 151.722821 
L 411.433717 155.29976 
L 411.657029 156.714089 
L 412.103652 156.714089 
L 412.326963 151.225979 
L 412.550275 151.893535 
L 412.773587 144.242815 
L 412.996898 149.980855 
L 413.22021 144.491236 
L 413.666833 151.893535 
L 413.890145 144.739657 
L 414.113457 148.068175 
L 414.336768 154.472262 
L 414.56008 149.482503 
L 414.783392 149.730925 
L 415.006703 148.068175 
L 415.230015 150.229276 
L 415.676638 145.238009 
L 415.89995 145.984781 
L 416.123262 144.072101 
L 416.346573 147.400619 
L 416.793197 138.832412 
L 417.016508 142.159421 
L 417.23982 142.409351 
L 417.463132 140.496671 
L 417.686443 142.159421 
L 417.909755 145.238009 
L 418.133067 143.325329 
L 418.356378 151.893535 
L 418.57969 115.72578 
L 419.026313 196.97962 
L 419.249625 182.007327 
L 419.472936 182.007327 
L 419.696248 174.108185 
L 419.91956 159.134383 
L 420.142871 152.978717 
L 420.366183 158.716757 
L 420.589495 154.472262 
L 421.036118 190.325603 
L 421.25943 184.418358 
L 421.482741 196.142859 
L 421.929365 259.022141 
L 422.375988 281.985073 
L 422.5993 267.011271 
L 422.822611 270.339788 
L 423.269235 262.021512 
L 423.492546 266.345223 
L 423.715858 260.188048 
L 423.93917 263.016706 
L 424.162481 259.191346 
L 424.385793 248.711968 
L 424.609105 248.463547 
L 425.055728 258.694503 
L 425.27904 257.030245 
L 425.502351 252.038977 
L 425.725663 252.038977 
L 425.948974 253.453306 
L 426.172286 253.453306 
L 426.395598 253.703236 
L 426.618909 252.038977 
L 426.842221 252.038977 
L 427.065533 253.703236 
L 427.288844 253.703236 
L 427.512156 252.288907 
L 427.735468 257.528596 
L 427.958779 266.842066 
L 428.182091 270.419005 
L 428.405403 263.764987 
L 428.628714 265.677667 
L 428.852026 270.667426 
L 429.075338 269.004676 
L 429.298649 259.441276 
L 429.521961 259.191346 
L 429.745273 259.191346 
L 429.968584 255.365986 
L 430.191896 255.365986 
L 430.415208 257.030245 
L 430.638519 255.117565 
L 430.861831 259.360551 
L 431.308454 254.869143 
L 431.531766 253.204885 
L 431.755078 256.033542 
L 431.978389 254.370792 
L 432.201701 209.542391 
L 432.425013 216.525555 
L 432.648324 219.185007 
L 432.871636 219.095019 
L 433.094947 214.105261 
L 433.318259 217.432269 
L 433.541571 214.105261 
L 433.988194 200.795717 
L 434.211506 185.742698 
L 434.434817 190.982387 
L 434.658129 185.494277 
L 434.881441 183.830018 
L 435.328064 174.347343 
L 435.551376 175.761672 
L 435.774687 176.010093 
L 435.997999 171.020335 
L 436.221311 172.683085 
L 436.667934 180.085383 
L 436.891246 174.347343 
L 437.114557 175.263321 
L 437.337869 162.372912 
L 437.561181 163.040468 
L 437.784492 166.865828 
L 438.007804 166.865828 
L 438.231116 169.02693 
L 438.677739 169.02693 
L 438.901051 165.4515 
L 439.124362 165.4515 
L 439.347674 167.11425 
L 439.570985 163.53882 
L 439.794297 165.4515 
L 440.017609 165.4515 
L 440.24092 170.023632 
L 440.464232 178.84026 
L 440.687544 176.010093 
L 440.910855 164.534013 
L 441.134167 160.460232 
L 441.357479 160.210302 
L 441.58079 156.136521 
L 441.804102 165.20157 
L 442.027414 156.136521 
L 442.474037 153.057933 
L 442.697349 174.845695 
L 442.92066 174.845695 
L 443.143972 163.448831 
L 443.367284 175.511742 
L 443.590595 168.528578 
L 443.813907 194.649314 
L 444.037219 190.823954 
L 444.26053 195.644508 
L 444.483842 188.99049 
L 444.707154 190.654749 
L 444.930465 188.99049 
L 445.153777 179.42709 
L 445.377089 184.168428 
L 445.6004 194.150963 
L 445.823712 199.14223 
L 446.047024 212.948616 
L 446.270335 217.939884 
L 446.493647 212.700195 
L 446.716958 210.787515 
L 446.94027 212.948616 
L 447.386893 213.446967 
L 447.833517 209.870029 
L 448.056828 206.54302 
L 448.28014 208.4557 
L 448.726763 199.14223 
L 448.950075 200.556559 
L 449.173387 200.306629 
L 449.396698 200.306629 
L 449.62001 198.393949 
L 449.843322 198.393949 
L 450.066633 198.145527 
L 450.289945 192.655909 
L 450.513257 192.655909 
L 450.736568 198.393949 
L 450.95988 197.897106 
L 451.183192 196.232847 
L 451.406503 190.743229 
L 451.629815 190.494807 
L 451.853127 186.917869 
L 452.29975 186.917869 
L 452.523062 188.582127 
L 452.746373 186.669447 
L 452.969685 187.167799 
L 453.192996 188.830549 
L 453.416308 186.669447 
L 453.63962 186.421026 
L 453.862931 182.844087 
L 454.086243 182.844087 
L 454.309555 186.917869 
L 454.532866 181.179829 
L 454.756178 181.179829 
L 454.97949 176.936843 
L 455.426113 180.513781 
L 455.649425 175.024163 
L 455.872736 179.097944 
L 456.096048 179.347874 
L 456.765983 167.871794 
L 456.989295 165.959114 
L 457.212606 160.719425 
L 457.435918 159.553518 
L 457.882541 165.959114 
L 458.105853 165.709184 
L 458.329165 165.709184 
L 458.552476 167.373443 
L 458.775788 155.901323 
L 459.222411 164.219599 
L 459.445723 162.056989 
L 459.669035 165.882349 
L 459.892346 160.394239 
L 460.115658 160.394239 
L 460.338969 163.721247 
L 460.562281 163.721247 
L 460.785593 162.056989 
L 461.008904 174.61976 
L 461.232216 162.396907 
L 461.455528 157.40564 
L 461.678839 149.75492 
L 461.902151 150.920827 
L 462.125463 149.75492 
L 462.348774 164.727213 
L 462.572086 166.391472 
L 462.795398 162.396907 
L 463.018709 169.050925 
L 463.242021 186.682671 
L 463.465333 185.019921 
L 463.688644 188.177725 
L 464.135268 164.140382 
L 464.581891 164.140382 
L 464.805203 163.890452 
L 465.028514 153.411075 
L 465.475138 153.411075 
L 465.698449 155.073825 
L 465.921761 155.073825 
L 466.145073 157.484856 
L 466.368384 157.484856 
L 466.591696 154.157847 
L 466.815008 155.822106 
L 467.038319 159.397536 
L 467.261631 157.734786 
L 467.484942 159.895887 
L 467.708254 157.983207 
L 467.931566 157.983207 
L 468.154877 157.484856 
L 468.378189 153.659496 
L 468.824812 149.834136 
L 469.048124 151.498395 
L 469.271436 148.171386 
L 469.494747 150.084066 
L 469.941371 150.084066 
L 470.387994 157.484856 
L 470.611306 157.484856 
L 470.834617 162.974475 
L 471.057929 161.061795 
L 471.281241 157.484856 
L 471.504552 157.734786 
L 471.951176 157.734786 
L 472.397799 158.231629 
L 472.621111 160.144309 
L 472.844422 158.231629 
L 473.067734 162.056989 
L 473.291046 181.429759 
L 473.514357 171.620389 
L 473.737669 173.779039 
L 473.96098 169.037701 
L 474.184292 169.037701 
L 474.407604 163.303621 
L 474.630915 164.966371 
L 474.854227 158.97991 
L 475.077539 145.34122 
L 475.30085 143.67847 
L 475.524162 143.67847 
L 475.747474 143.42854 
L 475.970785 145.34122 
L 476.194097 150.580909 
L 476.417409 148.918159 
L 476.864032 143.180119 
L 477.087344 135.279469 
L 477.310655 138.607986 
L 477.533967 138.109635 
L 477.757279 143.847675 
L 478.203902 134.284275 
L 478.427214 132.869946 
L 478.650525 129.541429 
L 478.873837 133.118367 
L 479.097149 130.957266 
L 479.32046 133.118367 
L 479.543772 153.411075 
L 479.767084 150.084066 
L 479.990395 152.493589 
L 480.213707 144.176821 
L 480.437019 145.839571 
L 480.66033 163.053691 
L 481.106953 160.065092 
L 481.330265 152.912724 
L 481.553577 156.738084 
L 481.776888 149.585715 
L 482.0002 147.921456 
L 482.223512 147.921456 
L 482.446823 136.943727 
L 482.670135 135.031047 
L 482.893447 144.346026 
L 483.116758 138.358056 
L 483.34007 136.445376 
L 483.563382 122.558265 
L 483.786693 124.470945 
L 484.010005 122.808195 
L 484.456628 126.383625 
L 484.67994 126.135204 
L 484.903252 126.135204 
L 485.349875 122.309844 
L 485.573187 124.222524 
L 485.796498 122.309844 
L 486.01981 124.222524 
L 486.243122 127.799462 
L 486.466433 126.135204 
L 486.913057 126.135204 
L 487.136368 124.222524 
L 487.35968 126.135204 
L 487.582991 120.397164 
L 487.806303 120.397164 
L 488.029615 122.061422 
L 488.252926 122.061422 
L 488.476238 120.397164 
L 488.69955 125.138501 
L 488.922861 145.102062 
L 489.146173 145.102062 
L 489.816108 184.703997 
L 490.03942 186.866607 
L 490.262731 192.525431 
L 490.486043 177.053277 
L 490.709355 180.551 
L 490.932666 188.370924 
L 491.155978 184.545564 
L 491.37929 177.393196 
L 491.602601 165.24956 
L 491.825913 173.567836 
L 492.049225 173.567836 
L 492.272536 178.309173 
L 492.495848 174.235392 
L 492.71916 187.624152 
L 492.942471 178.060752 
L 493.165783 176.644914 
L 493.389095 176.894844 
L 493.612406 174.982164 
L 493.835718 179.973432 
L 494.282341 179.973432 
L 494.728964 186.377519 
L 494.952276 190.870435 
L 495.175588 207.506987 
L 495.622211 215.157707 
L 495.845523 215.157707 
L 496.068834 229.88158 
L 496.292146 219.650624 
L 496.515458 191.711156 
L 496.738769 185.8939 
L 496.962081 185.8939 
L 497.185393 192.877064 
L 497.408704 194.541322 
L 497.632016 200.029432 
L 497.855328 211.426296 
L 498.078639 206.186607 
L 498.301951 207.849357 
L 498.525263 204.522348 
L 498.748574 206.435028 
L 498.971886 206.186607 
L 499.195198 200.946918 
L 499.418509 204.273927 
L 499.641821 199.28266 
L 499.865133 204.023997 
L 500.088444 199.034238 
L 500.311756 199.28266 
L 500.535068 197.36998 
L 500.758379 197.36998 
L 500.981691 205.688256 
L 501.428314 212.093852 
L 501.651626 212.093852 
L 501.874937 206.854163 
L 502.098249 210.181172 
L 502.544872 198.705092 
L 502.768184 202.530452 
L 502.991496 198.206741 
L 503.214807 188.891762 
L 503.438119 187.896568 
L 503.661431 190.057669 
L 503.884742 187.896568 
L 504.108054 187.896568 
L 504.331366 196.713196 
L 504.554677 193.384678 
L 504.777989 201.035398 
L 505.001301 192.468701 
L 505.224612 190.556021 
L 505.447924 192.468701 
L 505.671236 187.229012 
L 505.894547 185.814683 
L 506.117859 177.246477 
L 506.341171 177.246477 
L 506.564482 174.41782 
L 506.787794 170.094108 
L 507.011106 173.671047 
L 507.234417 170.344038 
L 507.457729 175.333797 
L 507.681041 170.094108 
L 507.904352 176.749635 
L 508.127664 178.412385 
L 508.350975 173.421117 
L 508.574287 174.088673 
L 508.797599 171.260016 
L 509.244222 185.066402 
L 509.467534 184.071208 
L 509.690845 148.650225 
L 509.914157 264.094657 
L 510.137469 171.429221 
L 510.36078 194.800516 
L 510.584092 173.840252 
L 510.807404 180.245848 
L 511.030715 166.607158 
L 511.477339 97.261756 
L 511.70065 80.794408 
L 511.923962 84.868189 
L 512.147274 81.292759 
L 512.370585 93.684817 
L 512.817209 85.366541 
L 513.04052 81.789602 
L 513.263832 80.126852 
L 513.487144 89.436362 
L 513.710455 89.436362 
L 513.933767 94.258425 
L 514.157079 101.909145 
L 514.38039 167.434656 
L 514.603702 149.304558 
L 514.827014 148.885424 
L 515.050325 142.978179 
L 515.273637 148.716219 
L 515.496948 138.485263 
L 515.943572 86.414505 
L 516.166883 75.935127 
L 516.390195 52.986927 
L 516.613507 70.445509 
L 516.836818 76.602683 
L 517.06013 66.620149 
L 517.283442 83.087496 
L 517.506753 85.000176 
L 517.730065 91.157351 
L 517.953377 77.768591 
L 518.176688 96.895391 
L 518.4 81.005611 
L 518.4 81.005611 
" style="fill:none;stroke:#4c72b0;stroke-linecap:round;stroke-width:1.75;"/>
   </g>
   <g id="patch_3">
    <path d="M 72 356.4 
L 518.4 356.4 
" style="fill:none;"/>
   </g>
   <g id="patch_4">
    <path d="M 72 39.6 
L 518.4 39.6 
" style="fill:none;"/>
   </g>
   <g id="patch_5">
    <path d="M 72 356.4 
L 72 39.6 
" style="fill:none;"/>
   </g>
   <g id="patch_6">
    <path d="M 518.4 356.4 
L 518.4 39.6 
" style="fill:none;"/>
   </g>
   <g id="text_15">
    <!-- al - 0.3810220893826242 * cu -->
    <defs>
     <path d="M 9.125 0 
L 9.125 10.6875 
L 18.65625 10.6875 
L 18.65625 0 
z
" id="LiberationSans-2e"/>
     <path d="M 15.328125 52.828125 
L 15.328125 19.34375 
Q 15.328125 15.484375 15.890625 12.890625 
Q 16.453125 10.296875 17.71875 8.703125 
Q 19 7.125 21.0625 6.46875 
Q 23.140625 5.8125 26.21875 5.8125 
Q 29.34375 5.8125 31.859375 6.90625 
Q 34.375 8.015625 36.15625 10.078125 
Q 37.9375 12.15625 38.90625 15.203125 
Q 39.890625 18.265625 39.890625 22.21875 
L 39.890625 52.828125 
L 48.6875 52.828125 
L 48.6875 11.28125 
Q 48.6875 9.625 48.703125 7.78125 
Q 48.734375 5.953125 48.78125 4.3125 
Q 48.828125 2.6875 48.875 1.515625 
Q 48.921875 0.34375 48.96875 0 
L 40.671875 0 
Q 40.625 0.25 40.578125 1.3125 
Q 40.53125 2.390625 40.453125 3.78125 
Q 40.375 5.171875 40.328125 6.609375 
Q 40.28125 8.0625 40.28125 9.03125 
L 40.140625 9.03125 
Q 38.875 6.734375 37.359375 4.875 
Q 35.84375 3.03125 33.84375 1.734375 
Q 31.84375 0.4375 29.25 -0.265625 
Q 26.65625 -0.984375 23.25 -0.984375 
Q 18.84375 -0.984375 15.671875 0.09375 
Q 12.5 1.171875 10.453125 3.421875 
Q 8.40625 5.671875 7.453125 9.1875 
Q 6.5 12.703125 6.5 17.625 
L 6.5 52.828125 
z
" id="LiberationSans-75"/>
     <path d="M 13.421875 26.65625 
Q 13.421875 22.125 14.078125 18.3125 
Q 14.75 14.5 16.3125 11.734375 
Q 17.875 8.984375 20.4375 7.46875 
Q 23 5.953125 26.765625 5.953125 
Q 31.453125 5.953125 34.59375 8.484375 
Q 37.75 11.03125 38.484375 16.3125 
L 47.359375 15.71875 
Q 46.921875 12.453125 45.453125 9.421875 
Q 44 6.390625 41.484375 4.09375 
Q 38.96875 1.8125 35.34375 0.40625 
Q 31.734375 -0.984375 27 -0.984375 
Q 20.796875 -0.984375 16.453125 1.109375 
Q 12.109375 3.21875 9.390625 6.90625 
Q 6.6875 10.59375 5.46875 15.59375 
Q 4.25 20.609375 4.25 26.46875 
Q 4.25 31.78125 5.125 35.859375 
Q 6 39.9375 7.59375 42.984375 
Q 9.1875 46.046875 11.328125 48.125 
Q 13.484375 50.203125 15.984375 51.4375 
Q 18.5 52.6875 21.28125 53.25 
Q 24.078125 53.8125 26.90625 53.8125 
Q 31.34375 53.8125 34.8125 52.59375 
Q 38.28125 51.375 40.796875 49.25 
Q 43.3125 47.125 44.875 44.234375 
Q 46.4375 41.359375 47.078125 38.03125 
L 38.03125 37.359375 
Q 37.359375 41.75 34.5625 44.328125 
Q 31.78125 46.921875 26.65625 46.921875 
Q 22.90625 46.921875 20.390625 45.671875 
Q 17.875 44.4375 16.3125 41.921875 
Q 14.75 39.40625 14.078125 35.59375 
Q 13.421875 31.78125 13.421875 26.65625 
" id="LiberationSans-63"/>
     <path d="M 22.265625 54.390625 
L 35.15625 59.421875 
L 37.359375 52.984375 
L 23.578125 49.421875 
L 32.625 37.203125 
L 26.8125 33.6875 
L 19.484375 46.296875 
L 11.859375 33.796875 
L 6.0625 37.3125 
L 15.28125 49.421875 
L 1.609375 52.984375 
L 3.8125 59.515625 
L 16.84375 54.296875 
L 16.265625 68.796875 
L 22.90625 68.796875 
z
" id="LiberationSans-2a"/>
     <path d="M 20.21875 -0.984375 
Q 12.25 -0.984375 8.25 3.21875 
Q 4.25 7.421875 4.25 14.75 
Q 4.25 19.96875 6.21875 23.3125 
Q 8.203125 26.65625 11.390625 28.5625 
Q 14.59375 30.46875 18.6875 31.203125 
Q 22.796875 31.9375 27.046875 32.03125 
L 38.921875 32.234375 
L 38.921875 35.109375 
Q 38.921875 38.375 38.234375 40.671875 
Q 37.546875 42.96875 36.125 44.375 
Q 34.71875 45.796875 32.59375 46.453125 
Q 30.46875 47.125 27.59375 47.125 
Q 25.046875 47.125 23 46.75 
Q 20.953125 46.390625 19.4375 45.4375 
Q 17.921875 44.484375 16.984375 42.84375 
Q 16.0625 41.21875 15.765625 38.71875 
L 6.59375 39.546875 
Q 7.078125 42.671875 8.4375 45.28125 
Q 9.8125 47.90625 12.328125 49.796875 
Q 14.84375 51.703125 18.625 52.75 
Q 22.40625 53.8125 27.78125 53.8125 
Q 37.75 53.8125 42.765625 49.234375 
Q 47.796875 44.671875 47.796875 36.03125 
L 47.796875 13.28125 
Q 47.796875 9.375 48.828125 7.390625 
Q 49.859375 5.421875 52.734375 5.421875 
Q 53.46875 5.421875 54.203125 5.515625 
Q 54.9375 5.609375 55.609375 5.765625 
L 55.609375 0.296875 
Q 53.953125 -0.09375 52.3125 -0.28125 
Q 50.6875 -0.484375 48.828125 -0.484375 
Q 46.34375 -0.484375 44.5625 0.171875 
Q 42.78125 0.828125 41.65625 2.171875 
Q 40.53125 3.515625 39.9375 5.484375 
Q 39.359375 7.46875 39.203125 10.109375 
L 38.921875 10.109375 
Q 37.5 7.5625 35.8125 5.515625 
Q 34.125 3.46875 31.875 2.03125 
Q 29.640625 0.59375 26.78125 -0.1875 
Q 23.921875 -0.984375 20.21875 -0.984375 
M 22.21875 5.609375 
Q 26.421875 5.609375 29.5625 7.140625 
Q 32.71875 8.6875 34.78125 11.078125 
Q 36.859375 13.484375 37.890625 16.3125 
Q 38.921875 19.140625 38.921875 21.734375 
L 38.921875 26.078125 
L 29.296875 25.875 
Q 26.078125 25.828125 23.171875 25.40625 
Q 20.265625 25 18.0625 23.78125 
Q 15.875 22.5625 14.578125 20.359375 
Q 13.28125 18.171875 13.28125 14.59375 
Q 13.28125 10.296875 15.59375 7.953125 
Q 17.921875 5.609375 22.21875 5.609375 
" id="LiberationSans-61"/>
     <path d="M 6.734375 0 
L 6.734375 72.46875 
L 15.53125 72.46875 
L 15.53125 0 
z
" id="LiberationSans-6c"/>
    </defs>
    <g style="fill:#262626;" transform="translate(214.8046875 34.6)scale(0.12 -0.12)">
     <use xlink:href="#LiberationSans-61"/>
     <use x="55.615234375" xlink:href="#LiberationSans-6c"/>
     <use x="77.83203125" xlink:href="#LiberationSans-20"/>
     <use x="105.615234375" xlink:href="#LiberationSans-2d"/>
     <use x="138.916015625" xlink:href="#LiberationSans-20"/>
     <use x="166.69921875" xlink:href="#LiberationSans-30"/>
     <use x="222.314453125" xlink:href="#LiberationSans-2e"/>
     <use x="250.09765625" xlink:href="#LiberationSans-33"/>
     <use x="305.712890625" xlink:href="#LiberationSans-38"/>
     <use x="361.328125" xlink:href="#LiberationSans-31"/>
     <use x="416.943359375" xlink:href="#LiberationSans-30"/>
     <use x="472.55859375" xlink:href="#LiberationSans-32"/>
     <use x="528.173828125" xlink:href="#LiberationSans-32"/>
     <use x="583.7890625" xlink:href="#LiberationSans-30"/>
     <use x="639.404296875" xlink:href="#LiberationSans-38"/>
     <use x="695.01953125" xlink:href="#LiberationSans-39"/>
     <use x="750.634765625" xlink:href="#LiberationSans-33"/>
     <use x="806.25" xlink:href="#LiberationSans-38"/>
     <use x="861.865234375" xlink:href="#LiberationSans-32"/>
     <use x="917.48046875" xlink:href="#LiberationSans-36"/>
     <use x="973.095703125" xlink:href="#LiberationSans-32"/>
     <use x="1028.7109375" xlink:href="#LiberationSans-34"/>
     <use x="1084.326171875" xlink:href="#LiberationSans-32"/>
     <use x="1139.94140625" xlink:href="#LiberationSans-20"/>
     <use x="1167.724609375" xlink:href="#LiberationSans-2a"/>
     <use x="1206.640625" xlink:href="#LiberationSans-20"/>
     <use x="1234.423828125" xlink:href="#LiberationSans-63"/>
     <use x="1284.423828125" xlink:href="#LiberationSans-75"/>
    </g>
   </g>
  </g>
 </g>
 <defs>
  <clipPath id="pab61a1954e">
   <rect height="316.8" width="446.4" x="72.0" y="39.6"/>
  </clipPath>
 </defs>
</svg>
