<?xml version="1.0" encoding="utf-8" standalone="no"?>
<!DOCTYPE svg PUBLIC "-//W3C//DTD SVG 1.1//EN"
  "http://www.w3.org/Graphics/SVG/1.1/DTD/svg11.dtd">
<!-- Created with matplotlib (http://matplotlib.org/) -->
<svg height="396pt" version="1.1" viewBox="0 0 576 396" width="576pt" xmlns="http://www.w3.org/2000/svg" xmlns:xlink="http://www.w3.org/1999/xlink">
 <defs>
  <style type="text/css">
*{stroke-linecap:butt;stroke-linejoin:round;stroke-miterlimit:100000;}
  </style>
 </defs>
 <g id="figure_1">
  <g id="patch_1">
   <path d="M 0 396 
L 576 396 
L 576 0 
L 0 0 
z
" style="fill:#ffffff;"/>
  </g>
  <g id="axes_1">
   <g id="patch_2">
    <path d="M 72 356.4 
L 518.4 356.4 
L 518.4 39.6 
L 72 39.6 
z
" style="fill:#eaeaf2;"/>
   </g>
   <g id="matplotlib.axis_1">
    <g id="xtick_1">
     <g id="line2d_1">
      <path clip-path="url(#p608fe5d719)" d="M 72 356.4 
L 72 39.6 
" style="fill:none;stroke:#ffffff;stroke-linecap:round;"/>
     </g>
     <g id="line2d_2"/>
     <g id="line2d_3"/>
     <g id="text_1">
      <!-- 2015-12-01 10:44:00 -->
      <defs>
       <path d="M 5.03125 0 
L 5.03125 6.203125 
Q 7.515625 11.921875 11.109375 16.28125 
Q 14.703125 20.65625 18.65625 24.1875 
Q 22.609375 27.734375 26.484375 30.765625 
Q 30.375 33.796875 33.5 36.8125 
Q 36.625 39.84375 38.546875 43.15625 
Q 40.484375 46.484375 40.484375 50.6875 
Q 40.484375 53.609375 39.59375 55.828125 
Q 38.71875 58.0625 37.0625 59.5625 
Q 35.40625 61.078125 33.078125 61.828125 
Q 30.765625 62.59375 27.9375 62.59375 
Q 25.296875 62.59375 22.96875 61.859375 
Q 20.65625 61.140625 18.84375 59.671875 
Q 17.046875 58.203125 15.890625 56.03125 
Q 14.75 53.859375 14.40625 50.984375 
L 5.421875 51.8125 
Q 5.859375 55.515625 7.46875 58.78125 
Q 9.078125 62.0625 11.90625 64.53125 
Q 14.75 67 18.71875 68.40625 
Q 22.703125 69.828125 27.9375 69.828125 
Q 33.0625 69.828125 37.0625 68.609375 
Q 41.0625 67.390625 43.8125 64.984375 
Q 46.578125 62.59375 48.046875 59.078125 
Q 49.515625 55.5625 49.515625 50.984375 
Q 49.515625 47.515625 48.265625 44.390625 
Q 47.015625 41.265625 44.9375 38.421875 
Q 42.875 35.59375 40.140625 32.953125 
Q 37.40625 30.328125 34.421875 27.8125 
Q 31.453125 25.296875 28.421875 22.828125 
Q 25.390625 20.359375 22.71875 17.859375 
Q 20.0625 15.375 17.96875 12.8125 
Q 15.875 10.25 14.703125 7.46875 
L 50.59375 7.46875 
L 50.59375 0 
z
" id="LiberationSans-32"/>
       <path d="M 7.625 0 
L 7.625 7.46875 
L 25.140625 7.46875 
L 25.140625 60.40625 
L 9.625 49.3125 
L 9.625 57.625 
L 25.875 68.796875 
L 33.984375 68.796875 
L 33.984375 7.46875 
L 50.734375 7.46875 
L 50.734375 0 
z
" id="LiberationSans-31"/>
       <path d="M 51.703125 34.421875 
Q 51.703125 24.515625 49.828125 17.75 
Q 47.953125 10.984375 44.703125 6.8125 
Q 41.453125 2.640625 37.0625 0.828125 
Q 32.671875 -0.984375 27.6875 -0.984375 
Q 22.65625 -0.984375 18.3125 0.828125 
Q 13.96875 2.640625 10.765625 6.78125 
Q 7.5625 10.9375 5.734375 17.703125 
Q 3.90625 24.46875 3.90625 34.421875 
Q 3.90625 44.828125 5.734375 51.640625 
Q 7.5625 58.453125 10.78125 62.5 
Q 14.015625 66.546875 18.40625 68.1875 
Q 22.796875 69.828125 27.984375 69.828125 
Q 32.90625 69.828125 37.21875 68.1875 
Q 41.546875 66.546875 44.765625 62.5 
Q 48 58.453125 49.84375 51.640625 
Q 51.703125 44.828125 51.703125 34.421875 
M 42.78125 34.421875 
Q 42.78125 42.625 41.796875 48.0625 
Q 40.828125 53.515625 38.921875 56.765625 
Q 37.015625 60.015625 34.25 61.359375 
Q 31.5 62.703125 27.984375 62.703125 
Q 24.265625 62.703125 21.4375 61.328125 
Q 18.609375 59.96875 16.671875 56.71875 
Q 14.75 53.46875 13.765625 48.015625 
Q 12.796875 42.578125 12.796875 34.421875 
Q 12.796875 26.515625 13.796875 21.09375 
Q 14.796875 15.671875 16.71875 12.375 
Q 18.65625 9.078125 21.4375 7.640625 
Q 24.21875 6.203125 27.78125 6.203125 
Q 31.25 6.203125 34.03125 7.640625 
Q 36.8125 9.078125 38.734375 12.375 
Q 40.671875 15.671875 41.71875 21.09375 
Q 42.78125 26.515625 42.78125 34.421875 
" id="LiberationSans-30"/>
       <path d="M 9.125 42.71875 
L 9.125 52.828125 
L 18.65625 52.828125 
L 18.65625 42.71875 
z
M 9.125 0 
L 9.125 10.109375 
L 18.65625 10.109375 
L 18.65625 0 
z
" id="LiberationSans-3a"/>
       <path d="M 51.421875 22.40625 
Q 51.421875 17.234375 49.859375 12.9375 
Q 48.296875 8.640625 45.21875 5.53125 
Q 42.140625 2.4375 37.578125 0.71875 
Q 33.015625 -0.984375 27 -0.984375 
Q 21.578125 -0.984375 17.546875 0.28125 
Q 13.53125 1.5625 10.734375 3.78125 
Q 7.953125 6 6.3125 8.984375 
Q 4.6875 11.96875 4 15.375 
L 12.890625 16.40625 
Q 13.421875 14.453125 14.390625 12.625 
Q 15.375 10.796875 17.0625 9.34375 
Q 18.75 7.90625 21.21875 7.046875 
Q 23.6875 6.203125 27.203125 6.203125 
Q 30.609375 6.203125 33.390625 7.25 
Q 36.1875 8.296875 38.15625 10.34375 
Q 40.140625 12.40625 41.203125 15.375 
Q 42.28125 18.359375 42.28125 22.21875 
Q 42.28125 25.390625 41.25 28.046875 
Q 40.234375 30.71875 38.328125 32.640625 
Q 36.421875 34.578125 33.65625 35.640625 
Q 30.90625 36.71875 27.390625 36.71875 
Q 25.203125 36.71875 23.34375 36.328125 
Q 21.484375 35.9375 19.890625 35.25 
Q 18.3125 34.578125 17.015625 33.671875 
Q 15.71875 32.765625 14.59375 31.78125 
L 6 31.78125 
L 8.296875 68.796875 
L 47.40625 68.796875 
L 47.40625 61.328125 
L 16.3125 61.328125 
L 14.984375 39.5 
Q 17.328125 41.3125 20.84375 42.59375 
Q 24.359375 43.890625 29.203125 43.890625 
Q 34.328125 43.890625 38.421875 42.328125 
Q 42.53125 40.765625 45.40625 37.90625 
Q 48.296875 35.0625 49.859375 31.109375 
Q 51.421875 27.15625 51.421875 22.40625 
" id="LiberationSans-35"/>
       <path id="LiberationSans-20"/>
       <path d="M 4.4375 22.65625 
L 4.4375 30.46875 
L 28.859375 30.46875 
L 28.859375 22.65625 
z
" id="LiberationSans-2d"/>
       <path d="M 43.015625 15.578125 
L 43.015625 0 
L 34.71875 0 
L 34.71875 15.578125 
L 2.296875 15.578125 
L 2.296875 22.40625 
L 33.796875 68.796875 
L 43.015625 68.796875 
L 43.015625 22.515625 
L 52.6875 22.515625 
L 52.6875 15.578125 
z
M 34.71875 58.890625 
Q 34.625 58.640625 34.234375 57.9375 
Q 33.84375 57.234375 33.34375 56.34375 
Q 32.859375 55.46875 32.34375 54.5625 
Q 31.84375 53.65625 31.453125 53.078125 
L 13.8125 27.09375 
Q 13.578125 26.703125 13.109375 26.0625 
Q 12.640625 25.4375 12.15625 24.78125 
Q 11.671875 24.125 11.171875 23.484375 
Q 10.6875 22.859375 10.40625 22.515625 
L 34.71875 22.515625 
z
" id="LiberationSans-34"/>
      </defs>
      <g style="fill:#262626;" transform="translate(25.5765625 370.646875)scale(0.1 -0.1)">
       <use xlink:href="#LiberationSans-32"/>
       <use x="55.615234375" xlink:href="#LiberationSans-30"/>
       <use x="111.23046875" xlink:href="#LiberationSans-31"/>
       <use x="166.845703125" xlink:href="#LiberationSans-35"/>
       <use x="222.4609375" xlink:href="#LiberationSans-2d"/>
       <use x="255.76171875" xlink:href="#LiberationSans-31"/>
       <use x="311.376953125" xlink:href="#LiberationSans-32"/>
       <use x="366.9921875" xlink:href="#LiberationSans-2d"/>
       <use x="400.29296875" xlink:href="#LiberationSans-30"/>
       <use x="455.908203125" xlink:href="#LiberationSans-31"/>
       <use x="511.5234375" xlink:href="#LiberationSans-20"/>
       <use x="539.306640625" xlink:href="#LiberationSans-31"/>
       <use x="594.921875" xlink:href="#LiberationSans-30"/>
       <use x="650.537109375" xlink:href="#LiberationSans-3a"/>
       <use x="678.3203125" xlink:href="#LiberationSans-34"/>
       <use x="733.935546875" xlink:href="#LiberationSans-34"/>
       <use x="789.55078125" xlink:href="#LiberationSans-3a"/>
       <use x="817.333984375" xlink:href="#LiberationSans-30"/>
       <use x="872.94921875" xlink:href="#LiberationSans-30"/>
      </g>
     </g>
    </g>
    <g id="xtick_2">
     <g id="line2d_4">
      <path clip-path="url(#p608fe5d719)" d="M 183.655828 356.4 
L 183.655828 39.6 
" style="fill:none;stroke:#ffffff;stroke-linecap:round;"/>
     </g>
     <g id="line2d_5"/>
     <g id="line2d_6"/>
     <g id="text_2">
      <!-- 2015-12-03 11:23:00 -->
      <defs>
       <path d="M 51.21875 19 
Q 51.21875 14.265625 49.671875 10.546875 
Q 48.140625 6.84375 45.1875 4.265625 
Q 42.234375 1.703125 37.859375 0.359375 
Q 33.5 -0.984375 27.875 -0.984375 
Q 21.484375 -0.984375 17.109375 0.609375 
Q 12.75 2.203125 9.90625 4.8125 
Q 7.078125 7.421875 5.65625 10.765625 
Q 4.25 14.109375 3.8125 17.671875 
L 12.890625 18.5 
Q 13.28125 15.765625 14.328125 13.515625 
Q 15.375 11.28125 17.1875 9.671875 
Q 19 8.0625 21.625 7.171875 
Q 24.265625 6.296875 27.875 6.296875 
Q 34.515625 6.296875 38.296875 9.5625 
Q 42.09375 12.84375 42.09375 19.28125 
Q 42.09375 23.09375 40.40625 25.40625 
Q 38.71875 27.734375 36.203125 29.03125 
Q 33.6875 30.328125 30.734375 30.765625 
Q 27.78125 31.203125 25.296875 31.203125 
L 20.3125 31.203125 
L 20.3125 38.8125 
L 25.09375 38.8125 
Q 27.59375 38.8125 30.265625 39.328125 
Q 32.953125 39.84375 35.171875 41.1875 
Q 37.40625 42.53125 38.84375 44.828125 
Q 40.28125 47.125 40.28125 50.6875 
Q 40.28125 56.203125 37.03125 59.390625 
Q 33.796875 62.59375 27.390625 62.59375 
Q 21.578125 62.59375 17.984375 59.609375 
Q 14.40625 56.640625 13.8125 51.21875 
L 4.984375 51.90625 
Q 5.515625 56.453125 7.46875 59.8125 
Q 9.421875 63.1875 12.421875 65.40625 
Q 15.4375 67.625 19.28125 68.71875 
Q 23.140625 69.828125 27.484375 69.828125 
Q 33.25 69.828125 37.390625 68.375 
Q 41.546875 66.9375 44.1875 64.46875 
Q 46.828125 62.015625 48.0625 58.6875 
Q 49.3125 55.375 49.3125 51.609375 
Q 49.3125 48.578125 48.484375 45.9375 
Q 47.65625 43.3125 45.890625 41.203125 
Q 44.140625 39.109375 41.421875 37.59375 
Q 38.71875 36.078125 34.90625 35.296875 
L 34.90625 35.109375 
Q 39.0625 34.671875 42.140625 33.21875 
Q 45.21875 31.78125 47.21875 29.625 
Q 49.21875 27.484375 50.21875 24.75 
Q 51.21875 22.015625 51.21875 19 
" id="LiberationSans-33"/>
      </defs>
      <g style="fill:#262626;" transform="translate(137.232390414 370.646875)scale(0.1 -0.1)">
       <use xlink:href="#LiberationSans-32"/>
       <use x="55.615234375" xlink:href="#LiberationSans-30"/>
       <use x="111.23046875" xlink:href="#LiberationSans-31"/>
       <use x="166.845703125" xlink:href="#LiberationSans-35"/>
       <use x="222.4609375" xlink:href="#LiberationSans-2d"/>
       <use x="255.76171875" xlink:href="#LiberationSans-31"/>
       <use x="311.376953125" xlink:href="#LiberationSans-32"/>
       <use x="366.9921875" xlink:href="#LiberationSans-2d"/>
       <use x="400.29296875" xlink:href="#LiberationSans-30"/>
       <use x="455.908203125" xlink:href="#LiberationSans-33"/>
       <use x="511.5234375" xlink:href="#LiberationSans-20"/>
       <use x="539.306640625" xlink:href="#LiberationSans-31"/>
       <use x="594.921875" xlink:href="#LiberationSans-31"/>
       <use x="650.537109375" xlink:href="#LiberationSans-3a"/>
       <use x="678.3203125" xlink:href="#LiberationSans-32"/>
       <use x="733.935546875" xlink:href="#LiberationSans-33"/>
       <use x="789.55078125" xlink:href="#LiberationSans-3a"/>
       <use x="817.333984375" xlink:href="#LiberationSans-30"/>
       <use x="872.94921875" xlink:href="#LiberationSans-30"/>
      </g>
     </g>
    </g>
    <g id="xtick_3">
     <g id="line2d_7">
      <path clip-path="url(#p608fe5d719)" d="M 295.311656 356.4 
L 295.311656 39.6 
" style="fill:none;stroke:#ffffff;stroke-linecap:round;"/>
     </g>
     <g id="line2d_8"/>
     <g id="line2d_9"/>
     <g id="text_3">
      <!-- 2015-12-07 14:52:00 -->
      <defs>
       <path d="M 50.59375 61.671875 
Q 45.40625 53.765625 41.0625 46.453125 
Q 36.71875 39.15625 33.59375 31.75 
Q 30.46875 24.359375 28.734375 16.578125 
Q 27 8.796875 27 0 
L 17.828125 0 
Q 17.828125 8.25 19.78125 16.1875 
Q 21.734375 24.125 25.046875 31.765625 
Q 28.375 39.40625 32.765625 46.78125 
Q 37.15625 54.15625 42.09375 61.328125 
L 5.125 61.328125 
L 5.125 68.796875 
L 50.59375 68.796875 
z
" id="LiberationSans-37"/>
      </defs>
      <g style="fill:#262626;" transform="translate(248.888218328 370.646875)scale(0.1 -0.1)">
       <use xlink:href="#LiberationSans-32"/>
       <use x="55.615234375" xlink:href="#LiberationSans-30"/>
       <use x="111.23046875" xlink:href="#LiberationSans-31"/>
       <use x="166.845703125" xlink:href="#LiberationSans-35"/>
       <use x="222.4609375" xlink:href="#LiberationSans-2d"/>
       <use x="255.76171875" xlink:href="#LiberationSans-31"/>
       <use x="311.376953125" xlink:href="#LiberationSans-32"/>
       <use x="366.9921875" xlink:href="#LiberationSans-2d"/>
       <use x="400.29296875" xlink:href="#LiberationSans-30"/>
       <use x="455.908203125" xlink:href="#LiberationSans-37"/>
       <use x="511.5234375" xlink:href="#LiberationSans-20"/>
       <use x="539.306640625" xlink:href="#LiberationSans-31"/>
       <use x="594.921875" xlink:href="#LiberationSans-34"/>
       <use x="650.537109375" xlink:href="#LiberationSans-3a"/>
       <use x="678.3203125" xlink:href="#LiberationSans-35"/>
       <use x="733.935546875" xlink:href="#LiberationSans-32"/>
       <use x="789.55078125" xlink:href="#LiberationSans-3a"/>
       <use x="817.333984375" xlink:href="#LiberationSans-30"/>
       <use x="872.94921875" xlink:href="#LiberationSans-30"/>
      </g>
     </g>
    </g>
    <g id="xtick_4">
     <g id="line2d_10">
      <path clip-path="url(#p608fe5d719)" d="M 406.967484 356.4 
L 406.967484 39.6 
" style="fill:none;stroke:#ffffff;stroke-linecap:round;"/>
     </g>
     <g id="line2d_11"/>
     <g id="line2d_12"/>
     <g id="text_4">
      <!-- 2015-12-10 10:04:00 -->
      <g style="fill:#262626;" transform="translate(360.544046242 370.646875)scale(0.1 -0.1)">
       <use xlink:href="#LiberationSans-32"/>
       <use x="55.615234375" xlink:href="#LiberationSans-30"/>
       <use x="111.23046875" xlink:href="#LiberationSans-31"/>
       <use x="166.845703125" xlink:href="#LiberationSans-35"/>
       <use x="222.4609375" xlink:href="#LiberationSans-2d"/>
       <use x="255.76171875" xlink:href="#LiberationSans-31"/>
       <use x="311.376953125" xlink:href="#LiberationSans-32"/>
       <use x="366.9921875" xlink:href="#LiberationSans-2d"/>
       <use x="400.29296875" xlink:href="#LiberationSans-31"/>
       <use x="455.908203125" xlink:href="#LiberationSans-30"/>
       <use x="511.5234375" xlink:href="#LiberationSans-20"/>
       <use x="539.306640625" xlink:href="#LiberationSans-31"/>
       <use x="594.921875" xlink:href="#LiberationSans-30"/>
       <use x="650.537109375" xlink:href="#LiberationSans-3a"/>
       <use x="678.3203125" xlink:href="#LiberationSans-30"/>
       <use x="733.935546875" xlink:href="#LiberationSans-34"/>
       <use x="789.55078125" xlink:href="#LiberationSans-3a"/>
       <use x="817.333984375" xlink:href="#LiberationSans-30"/>
       <use x="872.94921875" xlink:href="#LiberationSans-30"/>
      </g>
     </g>
    </g>
    <g id="text_5">
     <!-- time -->
     <defs>
      <path d="M 13.484375 24.5625 
Q 13.484375 20.40625 14.328125 16.90625 
Q 15.1875 13.421875 16.96875 10.90625 
Q 18.75 8.40625 21.53125 7 
Q 24.3125 5.609375 28.21875 5.609375 
Q 33.9375 5.609375 37.375 7.90625 
Q 40.828125 10.203125 42.046875 13.71875 
L 49.75 11.53125 
Q 48.921875 9.328125 47.4375 7.109375 
Q 45.953125 4.890625 43.453125 3.09375 
Q 40.96875 1.3125 37.234375 0.15625 
Q 33.5 -0.984375 28.21875 -0.984375 
Q 16.5 -0.984375 10.375 6 
Q 4.25 12.984375 4.25 26.765625 
Q 4.25 34.1875 6.09375 39.328125 
Q 7.953125 44.484375 11.171875 47.703125 
Q 14.40625 50.921875 18.703125 52.359375 
Q 23 53.8125 27.875 53.8125 
Q 34.515625 53.8125 38.984375 51.65625 
Q 43.453125 49.515625 46.15625 45.71875 
Q 48.875 41.9375 50.015625 36.8125 
Q 51.171875 31.6875 51.171875 25.734375 
L 51.171875 24.5625 
z
M 42.09375 31.296875 
Q 41.359375 39.65625 37.84375 43.484375 
Q 34.328125 47.3125 27.734375 47.3125 
Q 25.53125 47.3125 23.109375 46.609375 
Q 20.703125 45.90625 18.65625 44.09375 
Q 16.609375 42.28125 15.1875 39.171875 
Q 13.765625 36.078125 13.578125 31.296875 
z
" id="LiberationSans-65"/>
      <path d="M 6.6875 64.0625 
L 6.6875 72.46875 
L 15.484375 72.46875 
L 15.484375 64.0625 
z
M 6.6875 0 
L 6.6875 52.828125 
L 15.484375 52.828125 
L 15.484375 0 
z
" id="LiberationSans-69"/>
      <path d="M 27.046875 0.390625 
Q 25.046875 -0.140625 22.96875 -0.453125 
Q 20.90625 -0.78125 18.171875 -0.78125 
Q 7.625 -0.78125 7.625 11.1875 
L 7.625 46.4375 
L 1.515625 46.4375 
L 1.515625 52.828125 
L 7.953125 52.828125 
L 10.546875 64.65625 
L 16.40625 64.65625 
L 16.40625 52.828125 
L 26.171875 52.828125 
L 26.171875 46.4375 
L 16.40625 46.4375 
L 16.40625 13.09375 
Q 16.40625 9.28125 17.640625 7.734375 
Q 18.890625 6.203125 21.96875 6.203125 
Q 23.25 6.203125 24.4375 6.390625 
Q 25.640625 6.59375 27.046875 6.890625 
z
" id="LiberationSans-74"/>
      <path d="M 37.5 0 
L 37.5 33.5 
Q 37.5 37.359375 37.015625 39.9375 
Q 36.53125 42.53125 35.375 44.109375 
Q 34.234375 45.703125 32.375 46.359375 
Q 30.515625 47.015625 27.828125 47.015625 
Q 25.046875 47.015625 22.796875 45.921875 
Q 20.5625 44.828125 18.96875 42.75 
Q 17.390625 40.671875 16.53125 37.625 
Q 15.671875 34.578125 15.671875 30.609375 
L 15.671875 0 
L 6.9375 0 
L 6.9375 41.546875 
Q 6.9375 43.21875 6.90625 45.046875 
Q 6.890625 46.875 6.828125 48.5 
Q 6.78125 50.140625 6.734375 51.3125 
Q 6.6875 52.484375 6.640625 52.828125 
L 14.9375 52.828125 
Q 14.984375 52.59375 15.03125 51.515625 
Q 15.09375 50.4375 15.15625 49.046875 
Q 15.234375 47.65625 15.28125 46.21875 
Q 15.328125 44.78125 15.328125 43.796875 
L 15.484375 43.796875 
Q 16.65625 46.09375 18.015625 47.953125 
Q 19.390625 49.8125 21.21875 51.09375 
Q 23.046875 52.390625 25.40625 53.09375 
Q 27.78125 53.8125 30.90625 53.8125 
Q 36.921875 53.8125 40.40625 51.421875 
Q 43.890625 49.03125 45.265625 43.796875 
L 45.40625 43.796875 
Q 46.578125 46.09375 48.046875 47.953125 
Q 49.515625 49.8125 51.46875 51.09375 
Q 53.421875 52.390625 55.859375 53.09375 
Q 58.296875 53.8125 61.421875 53.8125 
Q 65.4375 53.8125 68.328125 52.734375 
Q 71.234375 51.65625 73.09375 49.40625 
Q 74.953125 47.171875 75.828125 43.625 
Q 76.703125 40.09375 76.703125 35.203125 
L 76.703125 0 
L 68.015625 0 
L 68.015625 33.5 
Q 68.015625 37.359375 67.53125 39.9375 
Q 67.046875 42.53125 65.890625 44.109375 
Q 64.75 45.703125 62.890625 46.359375 
Q 61.03125 47.015625 58.34375 47.015625 
Q 55.5625 47.015625 53.3125 45.96875 
Q 51.078125 44.921875 49.484375 42.875 
Q 47.90625 40.828125 47.046875 37.75 
Q 46.1875 34.671875 46.1875 30.609375 
L 46.1875 0 
z
" id="LiberationSans-6d"/>
     </defs>
     <g style="fill:#262626;" transform="translate(284.81015625 385.6934375)scale(0.11 -0.11)">
      <use xlink:href="#LiberationSans-74"/>
      <use x="27.783203125" xlink:href="#LiberationSans-69"/>
      <use x="50.0" xlink:href="#LiberationSans-6d"/>
      <use x="133.30078125" xlink:href="#LiberationSans-65"/>
     </g>
    </g>
   </g>
   <g id="matplotlib.axis_2">
    <g id="ytick_1">
     <g id="line2d_13">
      <path clip-path="url(#p608fe5d719)" d="M 72 356.4 
L 518.4 356.4 
" style="fill:none;stroke:#ffffff;stroke-linecap:round;"/>
     </g>
     <g id="line2d_14"/>
     <g id="line2d_15"/>
     <g id="text_6">
      <!-- 260 -->
      <defs>
       <path d="M 51.21875 22.515625 
Q 51.21875 17.328125 49.78125 13 
Q 48.34375 8.6875 45.53125 5.578125 
Q 42.71875 2.484375 38.5625 0.75 
Q 34.421875 -0.984375 29 -0.984375 
Q 23 -0.984375 18.5 1.3125 
Q 14.015625 3.609375 11.03125 7.921875 
Q 8.0625 12.25 6.5625 18.53125 
Q 5.078125 24.8125 5.078125 32.8125 
Q 5.078125 42 6.765625 48.921875 
Q 8.453125 55.859375 11.625 60.5 
Q 14.796875 65.140625 19.359375 67.484375 
Q 23.921875 69.828125 29.6875 69.828125 
Q 33.203125 69.828125 36.28125 69.09375 
Q 39.359375 68.359375 41.875 66.71875 
Q 44.390625 65.09375 46.28125 62.40625 
Q 48.1875 59.71875 49.3125 55.8125 
L 40.921875 54.296875 
Q 39.546875 58.734375 36.546875 60.71875 
Q 33.546875 62.703125 29.59375 62.703125 
Q 25.984375 62.703125 23.046875 60.984375 
Q 20.125 59.28125 18.0625 55.875 
Q 16.015625 52.484375 14.90625 47.359375 
Q 13.8125 42.234375 13.8125 35.40625 
Q 16.21875 39.84375 20.5625 42.15625 
Q 24.90625 44.484375 30.515625 44.484375 
Q 35.203125 44.484375 39.015625 42.96875 
Q 42.828125 41.453125 45.53125 38.59375 
Q 48.25 35.75 49.734375 31.671875 
Q 51.21875 27.59375 51.21875 22.515625 
M 42.28125 22.125 
Q 42.28125 25.6875 41.40625 28.5625 
Q 40.53125 31.453125 38.765625 33.46875 
Q 37.015625 35.5 34.421875 36.59375 
Q 31.84375 37.703125 28.421875 37.703125 
Q 26.03125 37.703125 23.578125 36.984375 
Q 21.140625 36.28125 19.15625 34.6875 
Q 17.1875 33.109375 15.9375 30.515625 
Q 14.703125 27.9375 14.703125 24.21875 
Q 14.703125 20.40625 15.671875 17.109375 
Q 16.65625 13.8125 18.484375 11.375 
Q 20.3125 8.9375 22.890625 7.515625 
Q 25.484375 6.109375 28.71875 6.109375 
Q 31.890625 6.109375 34.40625 7.203125 
Q 36.921875 8.296875 38.671875 10.375 
Q 40.4375 12.453125 41.359375 15.421875 
Q 42.28125 18.40625 42.28125 22.125 
" id="LiberationSans-36"/>
      </defs>
      <g style="fill:#262626;" transform="translate(48.3171875 358.9859375)scale(0.1 -0.1)">
       <use xlink:href="#LiberationSans-32"/>
       <use x="55.615234375" xlink:href="#LiberationSans-36"/>
       <use x="111.23046875" xlink:href="#LiberationSans-30"/>
      </g>
     </g>
    </g>
    <g id="ytick_2">
     <g id="line2d_16">
      <path clip-path="url(#p608fe5d719)" d="M 72 321.2 
L 518.4 321.2 
" style="fill:none;stroke:#ffffff;stroke-linecap:round;"/>
     </g>
     <g id="line2d_17"/>
     <g id="line2d_18"/>
     <g id="text_7">
      <!-- 270 -->
      <g style="fill:#262626;" transform="translate(48.3171875 323.7859375)scale(0.1 -0.1)">
       <use xlink:href="#LiberationSans-32"/>
       <use x="55.615234375" xlink:href="#LiberationSans-37"/>
       <use x="111.23046875" xlink:href="#LiberationSans-30"/>
      </g>
     </g>
    </g>
    <g id="ytick_3">
     <g id="line2d_19">
      <path clip-path="url(#p608fe5d719)" d="M 72 286 
L 518.4 286 
" style="fill:none;stroke:#ffffff;stroke-linecap:round;"/>
     </g>
     <g id="line2d_20"/>
     <g id="line2d_21"/>
     <g id="text_8">
      <!-- 280 -->
      <defs>
       <path d="M 51.265625 19.1875 
Q 51.265625 14.796875 49.875 11.109375 
Q 48.484375 7.421875 45.625 4.734375 
Q 42.78125 2.046875 38.328125 0.53125 
Q 33.890625 -0.984375 27.828125 -0.984375 
Q 21.78125 -0.984375 17.359375 0.53125 
Q 12.9375 2.046875 10.03125 4.703125 
Q 7.125 7.375 5.734375 11.0625 
Q 4.34375 14.75 4.34375 19.09375 
Q 4.34375 22.859375 5.484375 25.78125 
Q 6.640625 28.71875 8.5625 30.828125 
Q 10.5 32.953125 12.96875 34.25 
Q 15.4375 35.546875 18.0625 35.984375 
L 18.0625 36.1875 
Q 15.1875 36.859375 12.90625 38.375 
Q 10.640625 39.890625 9.09375 42.015625 
Q 7.5625 44.140625 6.75 46.71875 
Q 5.953125 49.3125 5.953125 52.203125 
Q 5.953125 55.8125 7.34375 59 
Q 8.734375 62.203125 11.46875 64.625 
Q 14.203125 67.046875 18.25 68.4375 
Q 22.3125 69.828125 27.640625 69.828125 
Q 33.25 69.828125 37.375 68.40625 
Q 41.5 67 44.203125 64.578125 
Q 46.921875 62.15625 48.234375 58.9375 
Q 49.5625 55.71875 49.5625 52.09375 
Q 49.5625 49.265625 48.75 46.671875 
Q 47.953125 44.09375 46.40625 41.96875 
Q 44.875 39.84375 42.59375 38.34375 
Q 40.328125 36.859375 37.359375 36.28125 
L 37.359375 36.078125 
Q 40.328125 35.59375 42.859375 34.296875 
Q 45.40625 33.015625 47.265625 30.890625 
Q 49.125 28.765625 50.1875 25.828125 
Q 51.265625 22.90625 51.265625 19.1875 
M 40.4375 51.609375 
Q 40.4375 54.203125 39.765625 56.34375 
Q 39.109375 58.5 37.59375 60.03125 
Q 36.078125 61.578125 33.640625 62.421875 
Q 31.203125 63.28125 27.640625 63.28125 
Q 24.171875 63.28125 21.78125 62.421875 
Q 19.390625 61.578125 17.84375 60.03125 
Q 16.3125 58.5 15.625 56.34375 
Q 14.9375 54.203125 14.9375 51.609375 
Q 14.9375 49.5625 15.46875 47.40625 
Q 16.015625 45.265625 17.421875 43.5 
Q 18.84375 41.75 21.328125 40.625 
Q 23.828125 39.5 27.734375 39.5 
Q 31.890625 39.5 34.40625 40.625 
Q 36.921875 41.75 38.25 43.5 
Q 39.59375 45.265625 40.015625 47.40625 
Q 40.4375 49.5625 40.4375 51.609375 
M 42.140625 20.015625 
Q 42.140625 22.515625 41.453125 24.828125 
Q 40.765625 27.15625 39.109375 28.9375 
Q 37.453125 30.71875 34.640625 31.8125 
Q 31.84375 32.90625 27.640625 32.90625 
Q 23.78125 32.90625 21.0625 31.8125 
Q 18.359375 30.71875 16.671875 28.90625 
Q 14.984375 27.09375 14.203125 24.71875 
Q 13.421875 22.359375 13.421875 19.828125 
Q 13.421875 16.65625 14.203125 14.03125 
Q 14.984375 11.421875 16.6875 9.546875 
Q 18.40625 7.671875 21.1875 6.640625 
Q 23.96875 5.609375 27.9375 5.609375 
Q 31.9375 5.609375 34.671875 6.640625 
Q 37.40625 7.671875 39.0625 9.546875 
Q 40.71875 11.421875 41.421875 14.078125 
Q 42.140625 16.75 42.140625 20.015625 
" id="LiberationSans-38"/>
      </defs>
      <g style="fill:#262626;" transform="translate(48.3171875 288.5859375)scale(0.1 -0.1)">
       <use xlink:href="#LiberationSans-32"/>
       <use x="55.615234375" xlink:href="#LiberationSans-38"/>
       <use x="111.23046875" xlink:href="#LiberationSans-30"/>
      </g>
     </g>
    </g>
    <g id="ytick_4">
     <g id="line2d_22">
      <path clip-path="url(#p608fe5d719)" d="M 72 250.8 
L 518.4 250.8 
" style="fill:none;stroke:#ffffff;stroke-linecap:round;"/>
     </g>
     <g id="line2d_23"/>
     <g id="line2d_24"/>
     <g id="text_9">
      <!-- 290 -->
      <defs>
       <path d="M 50.875 35.796875 
Q 50.875 26.609375 49.140625 19.703125 
Q 47.40625 12.796875 44.1875 8.203125 
Q 40.96875 3.609375 36.34375 1.3125 
Q 31.734375 -0.984375 25.984375 -0.984375 
Q 22.015625 -0.984375 18.84375 -0.171875 
Q 15.671875 0.640625 13.171875 2.34375 
Q 10.6875 4.046875 8.921875 6.78125 
Q 7.171875 9.515625 6.109375 13.375 
L 14.5 14.703125 
Q 15.875 10.25 18.78125 8.171875 
Q 21.6875 6.109375 26.125 6.109375 
Q 29.6875 6.109375 32.640625 7.78125 
Q 35.59375 9.46875 37.671875 12.84375 
Q 39.75 16.21875 40.921875 21.296875 
Q 42.09375 26.375 42.1875 33.203125 
Q 41.15625 30.90625 39.375 29.09375 
Q 37.59375 27.296875 35.328125 26.046875 
Q 33.0625 24.8125 30.421875 24.140625 
Q 27.78125 23.484375 25.09375 23.484375 
Q 20.40625 23.484375 16.625 25.171875 
Q 12.84375 26.859375 10.203125 29.875 
Q 7.5625 32.90625 6.125 37.171875 
Q 4.6875 41.453125 4.6875 46.6875 
Q 4.6875 52 6.21875 56.296875 
Q 7.765625 60.59375 10.6875 63.59375 
Q 13.625 66.609375 17.890625 68.21875 
Q 22.171875 69.828125 27.59375 69.828125 
Q 39.0625 69.828125 44.96875 61.328125 
Q 50.875 52.828125 50.875 35.796875 
M 41.3125 44.28125 
Q 41.3125 48.09375 40.40625 51.453125 
Q 39.5 54.828125 37.71875 57.3125 
Q 35.9375 59.8125 33.328125 61.25 
Q 30.71875 62.703125 27.296875 62.703125 
Q 24.125 62.703125 21.578125 61.578125 
Q 19.046875 60.453125 17.28125 58.375 
Q 15.53125 56.296875 14.578125 53.3125 
Q 13.625 50.34375 13.625 46.6875 
Q 13.625 43.21875 14.46875 40.234375 
Q 15.328125 37.25 17.03125 35.078125 
Q 18.75 32.90625 21.28125 31.65625 
Q 23.828125 30.421875 27.203125 30.421875 
Q 29.640625 30.421875 32.15625 31.25 
Q 34.671875 32.078125 36.6875 33.78125 
Q 38.71875 35.5 40.015625 38.109375 
Q 41.3125 40.71875 41.3125 44.28125 
" id="LiberationSans-39"/>
      </defs>
      <g style="fill:#262626;" transform="translate(48.3171875 253.3859375)scale(0.1 -0.1)">
       <use xlink:href="#LiberationSans-32"/>
       <use x="55.615234375" xlink:href="#LiberationSans-39"/>
       <use x="111.23046875" xlink:href="#LiberationSans-30"/>
      </g>
     </g>
    </g>
    <g id="ytick_5">
     <g id="line2d_25">
      <path clip-path="url(#p608fe5d719)" d="M 72 215.6 
L 518.4 215.6 
" style="fill:none;stroke:#ffffff;stroke-linecap:round;"/>
     </g>
     <g id="line2d_26"/>
     <g id="line2d_27"/>
     <g id="text_10">
      <!-- 300 -->
      <g style="fill:#262626;" transform="translate(48.3171875 218.1859375)scale(0.1 -0.1)">
       <use xlink:href="#LiberationSans-33"/>
       <use x="55.615234375" xlink:href="#LiberationSans-30"/>
       <use x="111.23046875" xlink:href="#LiberationSans-30"/>
      </g>
     </g>
    </g>
    <g id="ytick_6">
     <g id="line2d_28">
      <path clip-path="url(#p608fe5d719)" d="M 72 180.4 
L 518.4 180.4 
" style="fill:none;stroke:#ffffff;stroke-linecap:round;"/>
     </g>
     <g id="line2d_29"/>
     <g id="line2d_30"/>
     <g id="text_11">
      <!-- 310 -->
      <g style="fill:#262626;" transform="translate(48.3171875 182.9859375)scale(0.1 -0.1)">
       <use xlink:href="#LiberationSans-33"/>
       <use x="55.615234375" xlink:href="#LiberationSans-31"/>
       <use x="111.23046875" xlink:href="#LiberationSans-30"/>
      </g>
     </g>
    </g>
    <g id="ytick_7">
     <g id="line2d_31">
      <path clip-path="url(#p608fe5d719)" d="M 72 145.2 
L 518.4 145.2 
" style="fill:none;stroke:#ffffff;stroke-linecap:round;"/>
     </g>
     <g id="line2d_32"/>
     <g id="line2d_33"/>
     <g id="text_12">
      <!-- 320 -->
      <g style="fill:#262626;" transform="translate(48.3171875 147.7859375)scale(0.1 -0.1)">
       <use xlink:href="#LiberationSans-33"/>
       <use x="55.615234375" xlink:href="#LiberationSans-32"/>
       <use x="111.23046875" xlink:href="#LiberationSans-30"/>
      </g>
     </g>
    </g>
    <g id="ytick_8">
     <g id="line2d_34">
      <path clip-path="url(#p608fe5d719)" d="M 72 110 
L 518.4 110 
" style="fill:none;stroke:#ffffff;stroke-linecap:round;"/>
     </g>
     <g id="line2d_35"/>
     <g id="line2d_36"/>
     <g id="text_13">
      <!-- 330 -->
      <g style="fill:#262626;" transform="translate(48.3171875 112.5859375)scale(0.1 -0.1)">
       <use xlink:href="#LiberationSans-33"/>
       <use x="55.615234375" xlink:href="#LiberationSans-33"/>
       <use x="111.23046875" xlink:href="#LiberationSans-30"/>
      </g>
     </g>
    </g>
    <g id="ytick_9">
     <g id="line2d_37">
      <path clip-path="url(#p608fe5d719)" d="M 72 74.8 
L 518.4 74.8 
" style="fill:none;stroke:#ffffff;stroke-linecap:round;"/>
     </g>
     <g id="line2d_38"/>
     <g id="line2d_39"/>
     <g id="text_14">
      <!-- 340 -->
      <g style="fill:#262626;" transform="translate(48.3171875 77.3859375)scale(0.1 -0.1)">
       <use xlink:href="#LiberationSans-33"/>
       <use x="55.615234375" xlink:href="#LiberationSans-34"/>
       <use x="111.23046875" xlink:href="#LiberationSans-30"/>
      </g>
     </g>
    </g>
    <g id="ytick_10">
     <g id="line2d_40">
      <path clip-path="url(#p608fe5d719)" d="M 72 39.6 
L 518.4 39.6 
" style="fill:none;stroke:#ffffff;stroke-linecap:round;"/>
     </g>
     <g id="line2d_41"/>
     <g id="line2d_42"/>
     <g id="text_15">
      <!-- 350 -->
      <g style="fill:#262626;" transform="translate(48.3171875 42.1859375)scale(0.1 -0.1)">
       <use xlink:href="#LiberationSans-33"/>
       <use x="55.615234375" xlink:href="#LiberationSans-35"/>
       <use x="111.23046875" xlink:href="#LiberationSans-30"/>
      </g>
     </g>
    </g>
   </g>
   <g id="line2d_43">
    <path clip-path="url(#p608fe5d719)" d="M 72 315.899254 
L 72.223312 317.351938 
L 72.446623 321.708674 
L 72.669935 318.803305 
L 72.893247 317.351938 
L 73.116558 326.750441 
L 73.33987 321.708674 
L 73.563182 320.25599 
L 73.786493 326.750441 
L 74.009805 320.942338 
L 74.233117 320.942338 
L 74.67974 318.038287 
L 74.903052 315.134236 
L 75.349675 320.176003 
L 75.572986 321.628687 
L 76.01961 321.628687 
L 76.242921 318.038287 
L 76.466233 324.532738 
L 76.689545 315.819268 
L 76.912856 311.46385 
L 77.136168 311.46385 
L 77.806103 320.862352 
L 78.029415 320.862352 
L 78.252726 323.766403 
L 78.69935 331.713538 
L 79.145973 328.203125 
L 79.369285 334.697576 
L 79.592596 318.724636 
L 79.815908 325.905436 
L 80.03922 320.862352 
L 80.262531 325.905436 
L 80.485843 320.096017 
L 80.709155 320.096017 
L 81.155778 324.452752 
L 81.37909 323.766403 
L 81.602401 323.766403 
L 81.825713 330.260854 
L 82.049025 319.489654 
L 82.272336 317.351938 
L 82.718959 318.803305 
L 83.165583 318.803305 
L 83.388894 320.25599 
L 83.835518 303.676687 
L 84.058829 317.351938 
L 84.282141 316.66559 
L 84.505453 308.032105 
L 84.952076 300.086287 
L 85.175388 303.676687 
L 85.398699 302.224003 
L 85.622011 302.224003 
L 85.845323 299.319952 
L 86.068634 307.267087 
L 86.291946 308.718454 
L 86.515258 309.404803 
L 86.738569 301.457668 
L 86.961881 302.910352 
L 87.185193 305.814403 
L 87.631816 303.596701 
L 87.855128 308.638468 
L 88.078439 304.28305 
L 88.301751 302.830366 
L 88.525063 311.543836 
L 88.748374 311.543836 
L 88.971686 302.830366 
L 89.194997 307.187101 
L 89.418309 301.377682 
L 89.641621 307.187101 
L 89.864932 307.187101 
L 90.311556 304.28305 
L 90.534867 312.228868 
L 90.758179 325.219087 
L 90.981491 310.091152 
L 91.204802 319.489654 
L 91.428114 323.84639 
L 91.651426 323.84639 
L 92.098049 310.857487 
L 92.544672 332.55986 
L 92.767984 321.102311 
L 92.991296 316.745576 
L 93.437919 299.559911 
L 93.661231 291.692762 
L 93.884542 291.692762 
L 94.107854 275.11346 
L 94.554477 281.607911 
L 94.777789 279.388892 
L 95.001101 282.979292 
L 95.224412 273.660776 
L 95.447724 281.607911 
L 95.671036 278.70386 
L 95.894347 278.70386 
L 96.34097 269.99039 
L 96.564282 267.852674 
L 97.234217 250.585705 
L 97.457529 237.596803 
L 97.68084 240.500854 
L 97.904152 229.649668 
L 98.350775 223.886352 
L 98.574087 223.886352 
L 98.797399 228.929436 
L 99.02071 224.652687 
L 99.244022 232.555036 
L 99.467334 220.295952 
L 99.690645 216.705552 
L 99.913957 205.248003 
L 100.137269 209.604738 
L 100.36058 226.87039 
L 100.583892 223.27999 
L 100.807204 214.646505 
L 101.030515 211.822441 
L 101.253827 205.32799 
L 101.477139 207.545692 
L 101.70045 203.955292 
L 101.923762 203.955292 
L 102.147074 208.91839 
L 102.370385 211.136092 
L 102.593697 207.545692 
L 102.817009 217.025497 
L 103.04032 215.572813 
L 103.263632 206.174311 
L 103.486943 202.583911 
L 103.933567 217.105484 
L 104.156878 215.6528 
L 104.38019 217.105484 
L 104.603502 204.801613 
L 104.826813 209.844697 
L 105.050125 210.609716 
L 105.273437 201.2912 
L 105.496748 183.945562 
L 105.72006 204.115265 
L 105.943372 201.897562 
L 106.166683 207.625678 
L 106.389995 206.939329 
L 106.613307 211.296065 
L 106.836618 207.705665 
L 107.05993 207.019316 
L 107.283242 210.609716 
L 107.506553 206.334284 
L 107.729865 206.334284 
L 107.953177 207.785651 
L 108.176488 200.604851 
L 108.3998 197.014451 
L 108.623112 203.508902 
L 108.846423 199.918502 
L 109.069735 133.200044 
L 109.293047 203.508902 
L 109.516358 213.515084 
L 109.73967 200.524865 
L 109.962981 194.716762 
L 110.186293 209.158349 
L 110.409605 211.982413 
L 110.632916 221.380916 
L 110.856228 219.929549 
L 111.07954 213.435097 
L 111.302851 218.476865 
L 111.526163 220.615897 
L 111.749475 216.339149 
L 111.972786 228.641702 
L 112.196098 225.051302 
L 112.41941 228.641702 
L 112.642721 227.190335 
L 112.866033 223.599935 
L 113.312656 232.232102 
L 113.535968 227.876684 
L 113.75928 229.328051 
L 113.982591 226.424 
L 114.205903 221.300929 
L 114.429215 228.561716 
L 114.652526 224.206297 
L 114.875838 224.206297 
L 115.09915 227.110349 
L 115.322461 227.110349 
L 115.545773 231.467084 
L 115.992396 218.476865 
L 116.215708 218.476865 
L 116.43902 220.615897 
L 116.662331 225.657665 
L 117.108954 218.476865 
L 117.332266 221.380916 
L 117.555578 221.380916 
L 117.778889 217.025497 
L 118.002201 219.929549 
L 118.225513 224.286284 
L 118.448824 226.424 
L 118.672136 223.519949 
L 119.118759 227.110349 
L 119.342071 223.519949 
L 119.565383 226.424 
L 120.012006 222.8336 
L 120.681941 213.515084 
L 120.905253 220.695884 
L 121.128564 224.286284 
L 121.351876 224.286284 
L 121.798499 227.876684 
L 122.021811 240.099251 
L 122.245123 238.647884 
L 122.468434 252.323135 
L 122.691746 243.689651 
L 122.915058 243.769637 
L 123.138369 242.316953 
L 123.361681 239.412902 
L 123.584992 250.184102 
L 124.031616 246.593702 
L 124.254927 244.455986 
L 124.478239 230.094386 
L 124.701551 231.545753 
L 124.924862 231.545753 
L 125.148174 225.051302 
L 125.371486 232.232102 
L 126.041421 241.551935 
L 126.264732 235.742516 
L 126.934667 235.742516 
L 127.157979 232.152116 
L 127.381291 234.291149 
L 127.604602 233.524813 
L 127.827914 232.072129 
L 128.051226 226.264027 
L 128.274537 227.716711 
L 128.721161 232.758478 
L 128.944472 230.540776 
L 129.391096 208.758417 
L 129.614407 208.758417 
L 129.837719 216.019203 
L 130.061031 211.742454 
L 130.284342 210.291087 
L 130.507654 210.291087 
L 130.730965 207.387036 
L 130.954277 208.838403 
L 131.177589 206.700687 
L 131.4009 209.604738 
L 131.624212 208.152054 
L 131.847524 213.195138 
L 132.070835 215.332854 
L 132.294147 218.923254 
L 132.517459 213.801501 
L 132.74077 221.062287 
L 132.964082 223.200003 
L 133.187394 213.115152 
L 133.634017 216.019203 
L 133.857329 213.115152 
L 134.08064 214.567836 
L 134.303952 218.923254 
L 134.527264 214.567836 
L 134.750575 218.843268 
L 134.973887 220.295952 
L 135.197199 219.609603 
L 135.643822 216.019203 
L 135.867134 216.705552 
L 136.090445 216.705552 
L 136.313757 218.158236 
L 136.76038 204.481668 
L 137.207004 208.758417 
L 137.430315 213.801501 
L 137.653627 209.524752 
L 137.876938 208.072068 
L 138.10025 209.524752 
L 138.323562 208.072068 
L 138.546873 212.428803 
L 138.993497 198.753552 
L 139.216808 200.206236 
L 139.44012 203.110287 
L 139.663432 202.343952 
L 139.886743 207.387036 
L 140.333367 197.300868 
L 140.77999 209.524752 
L 141.003302 203.030301 
L 141.226613 203.030301 
L 141.449925 204.481668 
L 141.673237 208.758417 
L 141.896548 205.854366 
L 142.11986 211.662468 
L 142.343172 208.838403 
L 142.566483 195.163152 
L 142.789795 191.572752 
L 143.013107 195.163152 
L 143.45973 185.844636 
L 143.683042 185.844636 
L 144.352976 170.716701 
L 144.7996 177.897501 
L 145.022911 179.348868 
L 145.246223 179.348868 
L 145.469535 185.158287 
L 145.692846 175.838454 
L 146.13947 180.881538 
L 146.362781 188.828674 
L 146.586093 180.881538 
L 146.809405 188.062338 
L 147.032716 180.881538 
L 147.256028 187.37599 
L 147.47934 183.705603 
L 147.925963 180.115203 
L 148.149275 177.291138 
L 148.595898 167.126301 
L 149.042521 155.588766 
L 149.265833 164.987268 
L 149.489145 162.083217 
L 149.712456 164.987268 
L 149.935768 170.796687 
L 150.15908 166.439952 
L 150.605703 175.838454 
L 150.829015 163.535901 
L 151.275638 168.577668 
L 151.498949 164.987268 
L 151.722261 167.126301 
L 152.168884 158.41283 
L 152.392196 135.865453 
L 152.615508 148.854355 
L 152.838819 151.758406 
L 153.062131 133.120058 
L 153.285443 130.982342 
L 153.732066 123.115193 
L 153.955378 136.790444 
L 154.178689 141.833528 
L 154.402001 136.87043 
L 154.625313 146.955282 
L 154.848624 167.81265 
L 155.071936 169.18403 
L 155.295248 166.279979 
L 155.518559 177.051179 
L 155.965183 170.030352 
L 156.188494 178.663836 
L 156.411806 180.881538 
L 156.635118 170.190325 
L 157.305053 190.360027 
L 157.528364 189.593692 
L 157.751676 191.732725 
L 157.974987 210.45106 
L 158.198299 209.764711 
L 158.421611 213.961474 
L 158.644922 198.833538 
L 158.868234 220.535911 
L 159.091546 224.206297 
L 159.314857 224.971316 
L 159.538169 224.126311 
L 159.984792 224.126311 
L 160.208104 222.673627 
L 160.654727 205.934352 
L 160.878039 215.252868 
L 161.101351 213.035166 
L 161.324662 205.168017 
L 161.547974 204.481668 
L 161.771286 204.481668 
L 161.994597 186.291026 
L 162.217909 196.375877 
L 162.441221 187.742393 
L 162.664532 188.428742 
L 162.887844 191.332793 
L 163.111156 195.689528 
L 163.334467 190.646444 
L 163.557779 192.099128 
L 163.781091 190.646444 
L 164.004402 190.646444 
L 164.227714 185.604677 
L 164.451026 189.195077 
L 164.674337 194.923193 
L 164.897649 194.923193 
L 165.12096 192.785477 
L 165.344272 194.923193 
L 165.567584 192.785477 
L 165.790895 198.513593 
L 166.014207 180.481606 
L 166.237519 182.620639 
L 166.46083 177.497569 
L 166.684142 177.497569 
L 166.907454 181.854304 
L 167.130765 180.40162 
L 167.354077 175.359853 
L 167.577389 176.046202 
L 167.8007 169.63042 
L 168.024012 168.179053 
L 168.247324 168.179053 
L 168.470635 170.316769 
L 168.693947 170.316769 
L 168.917259 175.359853 
L 169.14057 176.81122 
L 169.363882 170.316769 
L 169.587194 168.865402 
L 169.810505 172.455802 
L 170.033817 171.003118 
L 170.257129 177.497569 
L 170.48044 178.950253 
L 170.703752 182.540653 
L 170.927064 181.087969 
L 171.373687 186.131053 
L 171.82031 186.131053 
L 172.043622 190.443002 
L 172.266933 186.817402 
L 172.490245 203.351918 
L 172.713557 201.900551 
L 172.936868 201.900551 
L 173.16018 204.804602 
L 173.383492 202.665569 
L 173.830115 205.56962 
L 174.053427 205.56962 
L 174.276738 206.255969 
L 174.723362 197.623802 
L 174.946673 190.443002 
L 175.393297 194.033402 
L 175.83992 194.033402 
L 176.063232 191.894369 
L 176.286543 194.719751 
L 176.509855 199.761518 
L 176.733167 199.761518 
L 176.956478 201.214202 
L 177.403102 195.404783 
L 177.626413 198.995183 
L 177.849725 196.091131 
L 178.296348 204.038267 
L 178.51966 207.708653 
L 178.742971 205.490951 
L 178.966283 209.846369 
L 179.412906 204.118253 
L 179.636218 196.937453 
L 179.85953 202.665569 
L 180.082841 204.118253 
L 180.529465 210.532718 
L 180.752776 210.532718 
L 180.976088 206.942318 
L 181.1994 205.490951 
L 181.422711 206.942318 
L 181.646023 201.900551 
L 181.869335 182.942256 
L 182.092646 185.846308 
L 182.53927 188.750359 
L 182.762581 187.298992 
L 182.985893 190.203043 
L 183.209205 187.298992 
L 183.432516 187.298992 
L 183.87914 194.479792 
L 184.102451 191.655727 
L 184.325763 194.559778 
L 184.549075 194.559778 
L 184.772386 190.969378 
L 184.995698 201.740578 
L 185.21901 199.601545 
L 185.665633 207.54868 
L 186.112256 194.559778 
L 186.335568 197.463829 
L 186.558879 197.463829 
L 186.782191 204.644629 
L 187.228814 197.463829 
L 187.452126 197.463829 
L 187.675438 198.915196 
L 187.898749 207.628667 
L 188.122061 211.905416 
L 188.345373 211.219067 
L 188.568684 212.671751 
L 188.791996 223.52162 
L 189.015308 219.93122 
L 189.238619 221.383904 
L 189.685243 209.16002 
L 189.908554 215.575802 
L 190.131866 211.985402 
L 190.355178 214.123118 
L 190.578489 214.123118 
L 190.801801 204.804602 
L 191.025113 212.75042 
L 191.248424 211.299053 
L 191.471736 207.628667 
L 191.918359 205.410964 
L 192.141671 204.724616 
L 192.364982 204.724616 
L 193.034917 196.011145 
L 193.258229 195.246127 
L 193.481541 198.915196 
L 193.704852 191.734396 
L 193.928164 192.420745 
L 194.374787 187.378978 
L 194.598099 181.569559 
L 194.821411 181.569559 
L 195.044722 184.474927 
L 195.268034 180.118192 
L 195.491346 188.830345 
L 195.714657 185.239945 
L 195.937969 183.788578 
L 196.161281 187.378978 
L 196.384592 194.639764 
L 197.054527 179.431843 
L 197.277839 174.388759 
L 197.501151 175.075108 
L 197.724462 180.118192 
L 197.947774 180.118192 
L 198.171086 177.979159 
L 198.394397 172.251043 
L 198.617709 173.703727 
L 198.841021 167.207959 
L 199.064332 165.676605 
L 199.287644 162.086205 
L 199.734267 172.937392 
L 199.957579 164.303908 
L 200.18089 167.894308 
L 200.404202 164.303908 
L 200.627514 162.772554 
L 200.850825 150.51347 
L 201.074137 152.687703 
L 201.297449 165.596619 
L 201.52076 194.639764 
L 201.744072 189.59668 
L 202.190695 201.900551 
L 202.414007 186.00628 
L 202.637319 180.322951 
L 202.86063 178.950253 
L 203.083942 183.99202 
L 203.307254 184.678369 
L 203.530565 184.633583 
L 203.753877 191.814383 
L 203.977189 189.676667 
L 204.2005 192.500731 
L 205.093747 175.155094 
L 205.317059 199.841504 
L 205.54037 186.131053 
L 205.763682 193.347053 
L 205.986993 186.817402 
L 206.210305 191.17282 
L 206.656928 202.103993 
L 206.88024 204.323012 
L 207.103552 203.636663 
L 207.326863 205.08803 
L 207.550175 211.503812 
L 207.773487 185.444704 
L 207.996798 178.183918 
L 208.22011 181.774318 
L 208.443422 175.966216 
L 208.666733 185.319931 
L 208.890045 175.19988 
L 209.113357 178.82548 
L 209.336668 175.921429 
L 209.55998 190.283029 
L 209.783292 188.143996 
L 210.006603 189.59668 
L 210.453227 170.718372 
L 210.676538 170.718372 
L 210.89985 183.788578 
L 211.123162 174.388759 
L 211.346473 180.884527 
L 211.569785 175.841443 
L 211.793097 175.841443 
L 212.016408 170.113327 
L 212.23972 173.703727 
L 212.463032 173.017378 
L 212.686343 173.017378 
L 212.909655 170.843145 
L 213.132966 173.062164 
L 213.356278 180.40162 
L 213.57959 181.854304 
L 213.802901 178.183918 
L 214.026213 177.417583 
L 214.249525 178.103931 
L 214.472836 176.652564 
L 214.696148 181.649545 
L 214.91946 178.059145 
L 215.142771 172.251043 
L 215.589395 187.378978 
L 216.25933 177.979159 
L 216.482641 169.267005 
L 216.705953 169.267005 
L 216.929265 164.91027 
L 217.375888 173.62374 
L 217.5992 166.44294 
L 217.822511 176.527792 
L 218.269135 164.990256 
L 218.492446 170.03334 
L 218.715758 164.303908 
L 218.93907 166.487727 
L 219.162381 159.991959 
L 219.385693 163.582359 
L 219.609005 157.854243 
L 219.832316 160.071945 
L 220.055628 163.662345 
L 220.278939 157.854243 
L 220.725563 156.321572 
L 220.948874 165.756592 
L 221.842121 152.891145 
L 222.065433 153.577494 
L 222.288744 153.577494 
L 222.512056 157.167894 
L 222.735368 154.343829 
L 222.958679 161.524629 
L 223.181991 155.030178 
L 223.405303 160.151931 
L 223.628614 153.65748 
L 223.851926 160.071945 
L 224.075238 155.030178 
L 224.298549 161.524629 
L 224.521861 160.071945 
L 224.745173 152.891145 
L 224.968484 157.934229 
L 225.191796 157.934229 
L 225.638419 148.535727 
L 225.861731 152.126127 
L 226.085043 148.535727 
L 226.308354 149.987094 
L 226.531666 152.891145 
L 226.754977 149.987094 
L 227.201601 156.481545 
L 227.424912 155.030178 
L 227.648224 155.030178 
L 227.871536 158.620578 
L 228.094847 155.030178 
L 228.318159 157.167894 
L 228.541471 153.577494 
L 228.764782 154.263843 
L 228.988094 148.535727 
L 229.211406 147.163029 
L 229.434717 138.529545 
L 229.658029 137.843196 
L 229.881341 134.252796 
L 230.104652 135.625494 
L 230.327964 137.843196 
L 230.551276 124.167945 
L 230.774587 125.620629 
L 230.997899 119.891196 
L 231.221211 124.167945 
L 231.444522 124.167945 
L 231.667834 125.620629 
L 231.891146 129.211029 
L 232.114457 125.620629 
L 232.337769 127.071996 
L 232.561081 126.386964 
L 232.784392 119.206164 
L 233.007704 119.206164 
L 233.231016 117.75348 
L 233.454327 123.561583 
L 233.677639 111.945378 
L 233.90095 109.041327 
L 234.124262 114.083094 
L 234.347574 114.083094 
L 234.570885 113.396745 
L 234.794197 104.764578 
L 235.017509 113.396745 
L 235.24082 116.300796 
L 235.464132 103.39188 
L 235.687444 113.476731 
L 235.910755 113.476731 
L 236.134067 112.025364 
L 236.58069 124.247931 
L 236.804002 122.796564 
L 237.250625 122.876551 
L 237.473937 126.466951 
L 237.92056 114.243067 
L 238.143872 112.105351 
L 238.367184 108.514951 
L 238.590495 114.243067 
L 238.813807 116.380783 
L 239.037119 116.380783 
L 239.26043 108.514951 
L 239.707054 115.77442 
L 239.930365 104.238202 
L 240.153677 102.785518 
L 240.376988 109.966318 
L 240.823612 102.785518 
L 241.046923 104.238202 
L 241.270235 104.924551 
L 241.493547 114.243067 
L 241.716858 109.886331 
L 241.94017 109.886331 
L 242.163482 110.57268 
L 242.386793 110.57268 
L 242.610105 122.796564 
L 242.833417 111.259029 
L 243.28004 114.849429 
L 243.503352 111.259029 
L 243.726663 112.710396 
L 243.949975 116.300796 
L 244.173287 116.300796 
L 244.396598 105.529596 
L 244.61991 107.668629 
L 245.066533 120.657531 
L 245.289845 117.75348 
L 245.513157 118.439829 
L 245.736468 116.987145 
L 245.95978 116.987145 
L 246.183092 116.300796 
L 246.406403 113.396745 
L 246.629715 118.439829 
L 246.853027 112.710396 
L 247.076338 112.710396 
L 247.29965 104.844564 
L 247.522961 117.067131 
L 247.746273 113.476731 
L 247.969585 116.300796 
L 248.192896 124.247931 
L 248.63952 115.615764 
L 248.862831 120.657531 
L 249.086143 120.657531 
L 249.309455 122.110216 
L 249.532766 126.466951 
L 249.756078 121.423867 
L 249.97939 122.876551 
L 250.202701 122.876551 
L 250.426013 119.286151 
L 250.649325 122.270188 
L 250.872636 115.089388 
L 251.095948 146.428905 
L 251.31926 162.163203 
L 251.765883 151.312017 
L 251.989195 154.216068 
L 252.212506 153.609705 
L 252.435818 148.567938 
L 252.882441 143.524854 
L 253.105753 144.897552 
L 253.329065 137.636766 
L 253.552376 159.179166 
L 253.775688 151.998366 
L 253.998999 159.179166 
L 254.222311 149.86065 
L 254.445623 146.030291 
L 254.668934 146.030291 
L 254.892246 137.31682 
L 255.115558 155.348806 
L 255.338869 156.115142 
L 255.785493 151.838393 
L 256.008804 145.423928 
L 256.678739 167.81265 
L 257.348674 154.902417 
L 257.571986 154.902417 
L 257.795298 149.094314 
L 258.018609 150.545682 
L 258.241921 159.259152 
L 258.465233 162.163203 
L 258.688544 154.82243 
L 258.911856 166.519938 
L 259.358479 139.169436 
L 259.581791 147.035268 
L 259.805103 144.29119 
L 260.028414 144.29119 
L 260.251726 99.195118 
L 260.475038 158.572803 
L 260.698349 157.04145 
L 261.144972 193.264078 
L 261.368284 187.615949 
L 261.591596 206.49294 
L 261.814907 193.424051 
L 262.038219 192.13134 
L 262.261531 184.185521 
L 262.484842 187.169559 
L 262.708154 163.328153 
L 262.931466 169.823921 
L 263.154777 164.780837 
L 263.378089 163.328153 
L 263.824712 169.823921 
L 264.048024 170.58894 
L 264.271336 178.456088 
L 264.494647 174.865688 
L 264.717959 174.865688 
L 264.941271 170.508953 
L 265.164582 171.195302 
L 265.387894 170.430284 
L 265.834517 180.515135 
L 266.057829 176.238386 
L 266.281141 168.291251 
L 266.504452 166.839884 
L 266.727764 158.126413 
L 266.951076 166.759897 
L 267.174387 155.988697 
L 267.397699 150.945613 
L 267.621011 163.169497 
L 267.844322 166.759897 
L 268.067634 161.716813 
L 268.514257 174.705716 
L 268.737569 174.705716 
L 268.96088 171.115316 
L 269.184192 170.430284 
L 269.407504 166.073549 
L 269.630815 166.759897 
L 269.854127 161.716813 
L 270.077439 163.169497 
L 270.30075 160.344116 
L 270.747374 168.291251 
L 271.417309 150.259265 
L 271.64062 149.572916 
L 271.863932 142.392116 
L 272.087244 148.121549 
L 272.310555 142.392116 
L 272.533867 145.297484 
L 272.98049 145.297484 
L 273.203802 151.0256 
L 273.427114 150.259265 
L 273.650425 143.078465 
L 273.873737 146.668865 
L 274.097049 144.531149 
L 274.32036 138.801716 
L 274.543672 142.392116 
L 274.766983 142.392116 
L 274.990295 140.940749 
L 275.213607 143.078465 
L 275.436918 139.488065 
L 275.883542 149.572916 
L 276.106853 145.982516 
L 276.330165 149.572916 
L 276.553477 144.531149 
L 276.776788 144.531149 
L 277.0001 139.488065 
L 277.223412 143.078465 
L 277.446723 143.078465 
L 277.670035 146.668865 
L 277.893347 153.849665 
L 278.116658 151.711949 
L 278.33997 140.940749 
L 278.786593 140.940749 
L 279.009905 135.897665 
L 279.233217 134.446297 
L 279.456528 138.036697 
L 279.67984 134.446297 
L 279.903152 133.759949 
L 280.126463 132.307265 
L 280.573087 132.307265 
L 280.796398 127.230297 
L 281.01971 126.543949 
L 281.243022 130.900684 
L 281.466333 131.585716 
L 281.689645 124.404916 
L 281.912956 129.448 
L 282.35958 129.448 
L 282.582891 132.307265 
L 282.806203 127.230297 
L 283.029515 130.855897 
L 283.252826 127.230297 
L 283.476138 131.585716 
L 283.69945 131.585716 
L 283.922761 127.995316 
L 284.146073 131.585716 
L 284.369385 130.134349 
L 284.592696 133.759949 
L 284.816008 130.134349 
L 285.03932 130.134349 
L 285.262631 133.759949 
L 285.485943 126.543949 
L 285.709255 127.995316 
L 285.932566 134.491084 
L 286.155878 136.664 
L 286.602501 136.664 
L 286.825813 140.2544 
L 287.049125 165.3872 
L 287.272436 163.934516 
L 287.495748 160.344116 
L 287.71906 167.524916 
L 287.942371 163.934516 
L 288.165683 163.934516 
L 288.612306 156.753716 
L 288.835618 156.753716 
L 289.058929 160.344116 
L 289.282241 160.344116 
L 289.505553 149.572916 
L 289.728864 149.572916 
L 289.952176 147.4352 
L 290.175488 151.0256 
L 290.398799 147.4352 
L 290.622111 148.887884 
L 290.845423 148.201535 
L 291.068734 156.068684 
L 291.292046 158.972735 
L 291.738669 166.918553 
L 291.961981 165.467186 
L 292.185293 162.563135 
L 292.408604 164.014502 
L 292.631916 162.563135 
L 292.855228 162.563135 
L 293.078539 161.110451 
L 293.301851 156.068684 
L 293.525163 155.382335 
L 293.748474 151.791935 
L 293.971786 152.478284 
L 294.195098 151.0256 
L 294.641721 151.0256 
L 294.865033 156.753716 
L 295.088344 158.2064 
L 295.311656 158.2064 
L 295.534967 166.839884 
L 295.758279 166.839884 
L 295.981591 167.604902 
L 296.204902 158.972735 
L 296.428214 164.014502 
L 296.651526 164.700851 
L 297.098149 137.11039 
L 297.321461 142.838505 
L 297.544772 155.748738 
L 297.991396 155.748738 
L 298.214707 152.158338 
L 298.438019 155.748738 
L 298.661331 155.828725 
L 298.884642 170.876674 
L 299.107954 177.211152 
L 299.554577 167.126301 
L 300.001201 181.72786 
L 300.224512 181.72786 
L 300.447824 187.535962 
L 300.671136 184.631911 
L 300.894447 186.769627 
L 301.117759 186.769627 
L 301.564382 191.126362 
L 301.787694 183.865576 
L 302.011006 183.865576 
L 302.457629 180.961525 
L 302.68094 180.961525 
L 303.127564 177.371125 
L 303.574187 177.291138 
L 303.797499 172.934403 
L 304.02081 177.291138 
L 304.467434 180.19519 
L 304.690745 183.099241 
L 304.914057 181.647874 
L 305.137369 181.647874 
L 305.36068 178.742505 
L 305.583992 180.881538 
L 305.807304 180.881538 
L 306.030615 181.647874 
L 306.253927 174.387087 
L 306.477239 158.41283 
L 307.147174 158.41283 
L 307.370485 154.82243 
L 307.817109 162.00323 
L 308.04042 162.00323 
L 308.263732 161.316882 
L 308.487044 159.099179 
L 308.710355 166.279979 
L 308.933667 164.828612 
L 309.38029 171.323063 
L 309.603602 168.419012 
L 310.050225 156.801491 
L 310.72016 151.758406 
L 311.166783 144.577606 
L 311.613407 151.072058 
L 311.836718 149.620691 
L 312.06003 146.030291 
L 312.283342 146.030291 
L 312.506653 149.620691 
L 312.729965 148.168006 
L 312.953277 149.620691 
L 313.176588 138.849491 
L 313.3999 136.710458 
L 313.623212 133.120058 
L 314.069835 133.120058 
L 314.293147 131.668691 
L 314.73977 140.987206 
L 314.963082 137.396806 
L 315.186393 137.396806 
L 315.409705 133.72642 
L 315.633017 133.72642 
L 315.856328 135.865453 
L 316.07964 144.49762 
L 316.302951 143.046253 
L 316.749575 138.003169 
L 316.972886 138.003169 
L 317.41951 130.13602 
L 317.642821 125.094253 
L 317.866133 137.31682 
L 318.312756 132.275053 
L 318.536068 135.865453 
L 318.75938 134.412769 
L 318.982691 134.412769 
L 319.206003 135.865453 
L 319.652626 127.231969 
L 319.875938 135.865453 
L 320.09925 136.551802 
L 320.322561 147.323002 
L 320.545873 143.732602 
L 320.769185 143.732602 
L 320.992496 140.828551 
L 321.215808 145.870318 
L 321.43912 145.183969 
L 321.662431 145.870318 
L 321.885743 145.870318 
L 322.109055 142.279918 
L 322.555678 142.279918 
L 322.778989 145.870318 
L 323.002301 143.732602 
L 323.225613 145.870318 
L 323.672236 142.279918 
L 324.118859 142.279918 
L 324.565483 145.183969 
L 324.788794 148.774369 
L 325.235418 143.046253 
L 325.458729 145.950304 
L 325.682041 142.359904 
L 325.905353 135.865453 
L 326.128664 133.72642 
L 326.575288 143.126239 
L 326.798599 138.083155 
L 327.021911 139.535839 
L 327.468534 135.945439 
L 328.138469 125.860588 
L 328.361781 130.902355 
L 328.585093 128.764639 
L 328.808404 132.355039 
L 329.701651 132.355039 
L 329.924962 130.902355 
L 330.148274 130.902355 
L 330.371586 129.450988 
L 330.818209 121.583839 
L 331.041521 116.540755 
L 331.264832 122.270188 
L 331.711456 122.270188 
L 331.934767 121.583839 
L 332.158079 125.174239 
L 332.381391 121.583839 
L 332.828014 129.450988 
L 333.051326 130.902355 
L 333.274637 133.806406 
L 333.497949 130.216006 
L 333.721261 132.355039 
L 333.944572 126.54562 
L 334.167884 126.54562 
L 334.391196 125.094253 
L 334.837819 133.72642 
L 335.061131 130.13602 
L 335.284442 124.407904 
L 335.507754 129.450988 
L 335.731066 130.13602 
L 335.954377 136.631788 
L 336.177689 133.041388 
L 336.624312 134.412769 
L 336.847624 139.455853 
L 337.070935 137.31682 
L 337.294247 140.90722 
L 337.74087 137.31682 
L 337.964182 142.359904 
L 338.187494 137.31682 
L 338.410805 140.222188 
L 338.634117 138.769504 
L 338.857429 140.90722 
L 339.08074 135.865453 
L 339.304052 143.046253 
L 339.527364 143.046253 
L 339.750675 139.455853 
L 339.973987 138.003169 
L 340.197299 143.046253 
L 340.42061 140.142202 
L 340.643922 143.046253 
L 340.867234 143.732602 
L 341.090545 147.323002 
L 341.313857 143.732602 
L 341.537169 145.183969 
L 341.76048 141.593569 
L 341.983792 143.046253 
L 342.207104 138.003169 
L 342.653727 140.90722 
L 342.877039 140.90722 
L 343.10035 146.636653 
L 343.323662 144.49762 
L 343.546973 145.950304 
L 343.993597 138.769504 
L 344.216908 142.359904 
L 344.663532 145.263955 
L 345.110155 156.035155 
L 345.333467 156.035155 
L 345.556778 149.540704 
L 345.78009 153.131104 
L 346.003402 150.227053 
L 346.226713 148.774369 
L 346.450025 148.774369 
L 346.673337 143.046253 
L 346.896648 165.354988 
L 347.343272 155.348806 
L 347.566583 149.540704 
L 347.789895 122.876551 
L 348.013207 126.466951 
L 348.236518 133.647751 
L 348.45983 133.647751 
L 348.683142 132.195067 
L 348.906453 124.93428 
L 349.129765 125.620629 
L 349.353077 125.014267 
L 349.576388 122.190202 
L 349.7997 126.54562 
L 350.023012 108.59362 
L 350.469635 119.286151 
L 350.692946 124.327918 
L 350.916258 126.466951 
L 351.13957 122.110216 
L 351.362881 127.918318 
L 351.586193 120.737518 
L 352.032816 130.902355 
L 352.702751 141.833528 
L 352.926063 133.806406 
L 353.149375 151.998366 
L 353.372686 152.764701 
L 353.595998 152.764701 
L 353.81931 148.407966 
L 354.042621 159.259152 
L 354.265933 149.780663 
L 354.489245 154.82243 
L 354.712556 154.136082 
L 354.935868 144.737579 
L 355.15918 144.737579 
L 355.382491 142.599863 
L 355.605803 144.737579 
L 355.829115 144.737579 
L 356.052426 151.23203 
L 356.275738 133.966379 
L 356.49905 132.593682 
L 356.722361 141.227166 
L 356.945673 139.774482 
L 357.392296 143.364882 
L 357.838919 148.487952 
L 358.062231 144.897552 
L 358.508854 152.924674 
L 358.732166 156.515074 
L 358.955478 147.88159 
L 359.402101 155.748738 
L 359.625413 149.254287 
L 360.072036 160.105474 
L 360.295348 159.419125 
L 360.518659 154.376041 
L 360.741971 160.870492 
L 360.965283 162.323176 
L 361.188594 166.599925 
L 361.411906 166.599925 
L 361.635218 170.190325 
L 361.858529 180.275176 
L 362.081841 178.822492 
L 362.528464 172.328041 
L 362.751776 173.780725 
L 362.975088 170.876674 
L 363.198399 169.42399 
L 363.421711 176.60479 
L 363.645023 176.60479 
L 364.091646 169.42399 
L 364.314957 169.42399 
L 364.538269 173.01439 
L 364.761581 173.01439 
L 364.984892 165.067254 
L 365.208204 169.42399 
L 365.431516 170.110338 
L 365.654827 170.110338 
L 365.878139 172.248054 
L 366.101451 175.838454 
L 366.324762 172.248054 
L 366.548074 175.838454 
L 366.771386 174.387087 
L 366.994697 170.796687 
L 367.218009 170.796687 
L 367.441321 163.615887 
L 367.664632 171.561705 
L 367.887944 173.01439 
L 368.111256 171.561705 
L 368.334567 175.152105 
L 368.781191 175.152105 
L 369.227814 178.742505 
L 369.451126 183.099241 
L 369.674437 178.057474 
L 369.897749 176.60479 
L 370.121061 176.60479 
L 370.344372 178.057474 
L 370.567684 175.152105 
L 370.790995 175.152105 
L 371.014307 181.647874 
L 371.237619 180.19519 
L 371.46093 175.152105 
L 371.684242 175.152105 
L 371.907554 174.467074 
L 372.354177 174.467074 
L 372.8008 169.42399 
L 373.024112 173.01439 
L 373.694047 162.929538 
L 373.917359 173.700738 
L 374.14067 178.742505 
L 374.363982 180.19519 
L 374.587294 180.19519 
L 374.810605 181.647874 
L 375.033917 180.19519 
L 375.703852 180.19519 
L 376.150475 193.104105 
L 376.373787 191.652738 
L 376.597099 185.844636 
L 376.82041 184.391952 
L 377.043722 180.801552 
L 377.267034 182.254236 
L 377.490345 182.254236 
L 377.713657 185.844636 
L 377.936968 184.391952 
L 378.16028 184.391952 
L 378.383592 182.939268 
L 378.606903 186.529668 
L 378.830215 177.897501 
L 379.053527 179.348868 
L 379.50015 175.758468 
L 379.723462 177.897501 
L 379.946773 177.897501 
L 380.170085 176.444817 
L 380.84002 176.444817 
L 381.286643 169.950366 
L 381.509955 170.636714 
L 381.733267 163.455914 
L 381.956578 170.636714 
L 382.17989 173.540766 
L 382.403202 174.99345 
L 382.626513 174.99345 
L 382.849825 180.035217 
L 383.296448 180.035217 
L 383.743072 175.758468 
L 383.966383 172.168068 
L 384.189695 172.168068 
L 384.413007 174.307101 
L 384.636318 182.939268 
L 385.082941 179.348868 
L 385.306253 180.801552 
L 385.529565 178.663836 
L 385.752876 182.939268 
L 385.976188 184.391952 
L 386.1995 177.977487 
L 386.422811 184.471938 
L 386.646123 182.332905 
L 387.092746 173.700738 
L 387.316058 173.700738 
L 387.53937 180.19519 
L 387.762681 180.19519 
L 387.985993 175.152105 
L 388.209305 179.508841 
L 388.432616 188.222311 
L 388.655928 191.126362 
L 388.87924 192.577729 
L 389.102551 183.945562 
L 389.325863 181.121497 
L 389.549175 181.121497 
L 389.772486 178.216129 
L 389.995798 169.583962 
L 390.21911 165.993562 
L 390.442421 170.350297 
L 390.665733 180.355162 
L 390.889045 173.174362 
L 391.112356 180.435149 
L 391.335668 181.121497 
L 391.558979 184.025549 
L 391.782291 179.7488 
L 392.005603 186.9296 
L 392.228914 186.243251 
L 392.452226 186.243251 
L 392.675538 191.972684 
L 392.898849 187.695935 
L 393.122161 189.833651 
L 393.568784 186.9296 
L 393.792096 184.711897 
L 394.015408 184.711897 
L 394.238719 186.9296 
L 394.462031 186.243251 
L 394.685343 189.147302 
L 394.908654 189.147302 
L 395.131966 184.791884 
L 395.355278 195.641753 
L 395.578589 194.1104 
L 395.801901 197.7008 
L 396.025213 197.7008 
L 396.248524 204.8816 
L 396.471836 201.2912 
L 396.695148 208.551986 
L 396.918459 204.8816 
L 397.141771 208.472 
L 397.365083 202.663897 
L 397.588394 199.758529 
L 397.811706 170.796687 
L 398.035018 179.428854 
L 398.258329 178.742505 
L 398.481641 182.332905 
L 398.704952 180.881538 
L 398.928264 185.238274 
L 399.151576 183.78559 
L 399.374887 188.90866 
L 399.598199 188.90866 
L 399.821511 185.31826 
L 400.268134 188.90866 
L 400.491446 190.360027 
L 400.714757 186.003292 
L 400.938069 192.49906 
L 401.161381 184.551925 
L 401.384692 180.961525 
L 401.831316 188.90866 
L 402.054627 186.003292 
L 402.501251 183.099241 
L 402.947874 183.099241 
L 403.394497 180.19519 
L 403.617809 180.19519 
L 403.841121 178.742505 
L 404.064432 183.099241 
L 404.287744 178.057474 
L 404.511056 179.508841 
L 404.734367 168.737641 
L 404.957679 172.328041 
L 405.18099 173.01439 
L 405.850925 178.057474 
L 406.074237 175.918441 
L 406.52086 175.918441 
L 406.744172 168.737641 
L 406.967484 175.918441 
L 407.190795 175.918441 
L 407.414107 178.057474 
L 407.637419 174.467074 
L 407.86073 175.918441 
L 408.307354 175.918441 
L 408.530665 179.508841 
L 408.977289 175.918441 
L 409.2006 179.508841 
L 409.423912 170.876674 
L 409.647224 180.961525 
L 410.093847 189.593692 
L 410.317159 180.961525 
L 410.54047 178.057474 
L 410.763782 181.647874 
L 410.987094 178.742505 
L 411.210405 181.647874 
L 411.657029 178.742505 
L 411.88034 180.19519 
L 412.103652 183.78559 
L 412.326963 185.238274 
L 412.550275 182.332905 
L 412.773587 182.332905 
L 413.22021 175.152105 
L 413.443522 180.19519 
L 413.890145 173.700738 
L 414.336768 182.332905 
L 414.56008 180.881538 
L 414.783392 171.483036 
L 415.006703 171.483036 
L 415.230015 178.663836 
L 415.453327 171.483036 
L 415.676638 176.524803 
L 415.89995 174.387087 
L 416.123262 179.428854 
L 416.346573 172.248054 
L 416.569885 174.387087 
L 416.793197 172.248054 
L 417.23982 156.435087 
L 417.686443 163.615887 
L 417.909755 163.615887 
L 418.133067 167.206287 
L 418.356378 166.519938 
L 418.57969 163.615887 
L 419.249625 168.657654 
L 419.472936 172.248054 
L 419.91956 166.519938 
L 420.366183 170.110338 
L 420.812806 165.067254 
L 421.036118 168.657654 
L 421.25943 170.110338 
L 421.482741 167.206287 
L 421.706053 166.519938 
L 421.929365 164.380905 
L 422.152676 170.876674 
L 422.375988 173.780725 
L 423.045923 163.009525 
L 423.269235 163.009525 
L 423.492546 161.556841 
L 423.715858 163.695874 
L 423.93917 157.200105 
L 424.162481 158.65279 
L 424.385793 156.515074 
L 424.609105 160.105474 
L 424.832416 158.65279 
L 425.27904 164.460892 
L 425.502351 161.556841 
L 425.725663 160.105474 
L 425.948974 159.419125 
L 426.172286 160.105474 
L 426.395598 151.47199 
L 426.618909 153.609705 
L 426.842221 152.158338 
L 427.065533 152.844687 
L 427.288844 147.801603 
L 427.512156 146.350236 
L 427.735468 151.392003 
L 427.958779 146.350236 
L 428.182091 147.801603 
L 428.405403 143.524854 
L 428.628714 145.663887 
L 428.852026 155.748738 
L 429.075338 152.158338 
L 429.298649 154.296054 
L 429.521961 152.078352 
L 429.745273 152.078352 
L 429.968584 151.392003 
L 430.191896 149.940636 
L 430.415208 164.302236 
L 430.638519 160.105474 
L 430.861831 160.105474 
L 431.085143 154.982403 
L 431.308454 142.153474 
L 431.531766 145.82386 
L 431.755078 158.046427 
L 431.978389 158.732776 
L 432.201701 158.732776 
L 432.425013 157.280092 
L 432.648324 150.099292 
L 432.871636 152.238325 
L 433.318259 147.195241 
L 433.541571 136.424041 
L 433.764882 138.563074 
L 434.434817 138.563074 
L 434.658129 132.067305 
L 434.881441 135.657705 
L 435.104752 131.382274 
L 435.328064 129.92959 
L 435.551376 133.51999 
L 435.774687 129.92959 
L 435.997999 137.11039 
L 436.221311 131.382274 
L 436.667934 131.382274 
L 436.891246 129.243241 
L 437.114557 134.286325 
L 437.337869 119.924725 
L 438.007804 114.881641 
L 438.231116 116.334325 
L 438.677739 116.334325 
L 439.347674 128.556892 
L 439.794297 119.924725 
L 440.017609 124.966492 
L 440.24092 124.966492 
L 440.464232 126.419176 
L 440.687544 126.419176 
L 440.910855 130.009576 
L 441.134167 126.419176 
L 441.357479 126.419176 
L 441.58079 122.828776 
L 441.804102 126.419176 
L 442.027414 126.419176 
L 442.697349 138.64306 
L 442.92066 133.599976 
L 443.143972 137.190376 
L 443.367284 131.46226 
L 443.590595 133.599976 
L 443.813907 133.599976 
L 444.037219 135.737692 
L 444.930465 122.828776 
L 445.153777 126.419176 
L 445.377089 122.828776 
L 445.6004 127.87186 
L 446.047024 127.87186 
L 446.270335 122.828776 
L 446.493647 125.046478 
L 446.716958 130.855897 
L 446.94027 146.062502 
L 447.163582 153.323288 
L 447.610205 138.846502 
L 447.833517 138.846502 
L 448.503452 181.724871 
L 448.726763 186.766639 
L 448.950075 186.766639 
L 449.173387 181.724871 
L 449.396698 196.932793 
L 449.62001 181.724871 
L 449.843322 181.724871 
L 450.066633 187.488187 
L 450.289945 183.176239 
L 450.513257 196.932793 
L 450.736568 198.38416 
L 450.95988 196.246444 
L 451.183192 206.411282 
L 451.406503 210.001682 
L 451.629815 206.411282 
L 451.853127 212.174598 
L 452.076438 214.313631 
L 452.29975 214.313631 
L 452.523062 207.052844 
L 452.746373 218.589062 
L 452.969685 207.052844 
L 453.192996 203.462444 
L 453.416308 203.462444 
L 453.63962 207.097631 
L 453.862931 205.644946 
L 454.086243 207.097631 
L 454.309555 204.958598 
L 454.532866 199.230482 
L 454.756178 205.724933 
L 455.202801 199.996817 
L 456.096048 199.996817 
L 456.31936 200.681849 
L 456.542671 211.453049 
L 456.765983 210.001682 
L 456.989295 210.001682 
L 457.212606 211.453049 
L 457.435918 217.984017 
L 457.65923 214.358417 
L 458.552476 214.358417 
L 458.775788 220.166519 
L 458.9991 221.617886 
L 459.222411 207.942635 
L 459.445723 211.533035 
L 459.669035 210.846686 
L 459.892346 215.88977 
L 460.115658 218.107473 
L 460.338969 229.038645 
L 460.562281 225.448245 
L 460.785593 229.038645 
L 461.232216 229.038645 
L 461.455528 239.969818 
L 461.678839 236.299432 
L 461.902151 221.937832 
L 462.125463 198.704106 
L 462.348774 221.697873 
L 462.795398 206.571254 
L 463.018709 207.336273 
L 463.242021 200.155473 
L 463.465333 203.745873 
L 463.688644 203.745873 
L 464.358579 213.91071 
L 464.581891 213.91071 
L 464.805203 214.597059 
L 465.028514 231.177678 
L 465.475138 239.123497 
L 465.698449 250.741018 
L 466.145073 250.741018 
L 466.368384 248.523316 
L 466.591696 244.932916 
L 466.815008 247.836967 
L 467.261631 242.793883 
L 467.484942 236.379418 
L 467.708254 247.230605 
L 467.931566 243.640205 
L 468.154877 233.555353 
L 468.378189 217.05472 
L 468.601501 212.012953 
L 468.824812 217.741069 
L 469.048124 209.87392 
L 469.494747 204.065818 
L 469.718059 204.752167 
L 469.941371 204.752167 
L 470.387994 212.699302 
L 470.611306 219.193753 
L 470.834617 212.699302 
L 471.057929 212.012953 
L 471.281241 212.012953 
L 471.504552 211.246618 
L 471.727864 200.475418 
L 471.951176 202.69312 
L 472.174487 206.28352 
L 472.397799 205.518502 
L 472.621111 205.518502 
L 472.844422 206.203534 
L 473.067734 204.065818 
L 473.291046 207.656218 
L 473.514357 207.656218 
L 473.737669 211.326605 
L 473.96098 206.969869 
L 474.184292 210.560269 
L 474.407604 210.560269 
L 474.630915 209.108902 
L 474.854227 205.518502 
L 475.077539 209.108902 
L 475.524162 211.326605 
L 475.970785 219.27374 
L 476.194097 225.768191 
L 476.864032 215.68334 
L 477.087344 214.996991 
L 477.310655 222.177791 
L 477.533967 218.587391 
L 477.98059 218.587391 
L 478.203902 220.038758 
L 478.427214 220.038758 
L 478.650525 221.491442 
L 479.32046 207.129842 
L 479.543772 211.486577 
L 479.767084 213.624293 
L 479.990395 207.896177 
L 480.213707 210.033893 
L 480.437019 206.443493 
L 480.883642 155.491544 
L 481.106953 154.771313 
L 481.330265 147.590513 
L 481.553577 155.491544 
L 481.776888 153.318628 
L 482.0002 159.081944 
L 482.223512 159.081944 
L 482.446823 156.177893 
L 482.670135 157.630577 
L 482.893447 154.040177 
L 483.116758 159.081944 
L 483.34007 160.534628 
L 483.563382 164.125028 
L 483.786693 160.534628 
L 484.010005 160.534628 
L 484.233317 162.672344 
L 484.456628 157.630577 
L 484.67994 157.630577 
L 484.903252 150.414577 
L 485.126563 150.414577 
L 485.349875 135.286642 
L 485.573187 138.877042 
L 485.796498 135.286642 
L 486.01981 138.877042 
L 486.243122 137.424358 
L 486.466433 139.563391 
L 486.689745 139.563391 
L 487.136368 129.398553 
L 487.35968 130.84992 
L 487.582991 127.25952 
L 487.806303 129.398553 
L 488.029615 128.632218 
L 488.252926 128.632218 
L 488.69955 120.765069 
L 488.922861 122.217753 
L 489.146173 122.217753 
L 489.369485 118.627353 
L 489.592796 122.217753 
L 490.262731 117.941005 
L 490.486043 117.941005 
L 490.709355 116.48832 
L 490.932666 124.355469 
L 491.155978 124.355469 
L 491.37929 122.904102 
L 491.602601 131.616256 
L 492.049225 135.206656 
L 492.272536 128.712205 
L 492.495848 130.84992 
L 492.71916 138.797056 
L 492.942471 138.797056 
L 493.165783 138.06592 
L 493.389095 138.110707 
L 493.612406 141.701107 
L 493.835718 134.520307 
L 494.05903 139.563391 
L 494.282341 134.520307 
L 494.505653 134.520307 
L 494.728964 132.302605 
L 494.952276 133.06894 
L 495.398899 130.243558 
L 495.622211 133.06894 
L 495.845523 128.025856 
L 496.068834 136.052977 
L 496.292146 139.643377 
L 496.515458 136.052977 
L 496.738769 141.86108 
L 496.962081 258.797363 
L 497.408704 149.201852 
L 497.632016 151.339568 
L 497.855328 147.749168 
L 498.078639 149.201852 
L 498.301951 133.228913 
L 498.525263 136.819313 
L 498.748574 124.515442 
L 498.971886 128.632218 
L 499.195198 121.451418 
L 499.418509 107.089818 
L 499.641821 103.499418 
L 499.865133 110.680218 
L 500.088444 103.419432 
L 500.311756 107.089818 
L 500.535068 104.185767 
L 500.758379 97.004967 
L 500.981691 94.100916 
L 501.205003 115.276913 
L 501.428314 92.888191 
L 501.651626 100.148977 
L 501.874937 96.478591 
L 502.098249 96.478591 
L 502.321561 100.835326 
L 502.544872 100.068991 
L 502.768184 102.973042 
L 502.991496 100.835326 
L 503.214807 112.371544 
L 503.438119 108.096113 
L 503.661431 111.000164 
L 504.108054 121.85135 
L 504.331366 115.276913 
L 504.554677 113.824228 
L 504.777989 110.920177 
L 505.001301 116.72828 
L 505.224612 113.057893 
L 505.447924 111.606526 
L 505.671236 111.606526 
L 505.894547 122.457713 
L 506.117859 124.595428 
L 506.341171 124.595428 
L 506.564482 128.185828 
L 507.011106 122.377726 
L 507.234417 120.925042 
L 507.457729 123.062758 
L 507.681041 119.472358 
L 507.904352 118.020991 
L 508.127664 112.291558 
L 508.350975 112.291558 
L 508.797599 100.675353 
L 509.02091 102.893056 
L 509.244222 103.579405 
L 509.467534 92.808205 
L 509.690845 90.670489 
L 509.914157 90.670489 
L 510.137469 92.808205 
L 510.584092 94.180902 
L 510.807404 89.057832 
L 511.030715 75.988943 
L 511.477339 129.193794 
L 511.923962 116.96991 
L 512.593897 106.805073 
L 512.817209 106.805073 
L 513.04052 111.161808 
L 513.263832 109.710441 
L 513.487144 106.805073 
L 513.710455 100.310622 
L 513.933767 100.310622 
L 514.157079 95.875217 
L 514.38039 95.875217 
L 514.603702 69.049774 
L 514.827014 92.284817 
L 515.050325 81.353644 
L 515.273637 98.012933 
L 515.496948 85.709062 
L 515.943572 74.012871 
L 516.166883 74.012871 
L 516.390195 65.379387 
L 516.613507 74.092858 
L 516.836818 68.969787 
L 517.06013 69.736123 
L 517.283442 69.736123 
L 517.506753 75.544225 
L 517.730065 74.859193 
L 517.953377 78.449593 
L 518.176688 63.161685 
L 518.4 63.161685 
L 518.4 63.161685 
" style="fill:none;stroke:#4c72b0;stroke-linecap:round;stroke-width:1.75;"/>
   </g>
   <g id="patch_3">
    <path d="M 72 356.4 
L 518.4 356.4 
" style="fill:none;"/>
   </g>
   <g id="patch_4">
    <path d="M 72 39.6 
L 518.4 39.6 
" style="fill:none;"/>
   </g>
   <g id="patch_5">
    <path d="M 72 356.4 
L 72 39.6 
" style="fill:none;"/>
   </g>
   <g id="patch_6">
    <path d="M 518.4 356.4 
L 518.4 39.6 
" style="fill:none;"/>
   </g>
   <g id="text_16">
    <!-- hc - 0.03741562492156757 * cu -->
    <defs>
     <path d="M 9.125 0 
L 9.125 10.6875 
L 18.65625 10.6875 
L 18.65625 0 
z
" id="LiberationSans-2e"/>
     <path d="M 15.484375 43.796875 
Q 16.9375 46.484375 18.640625 48.359375 
Q 20.359375 50.25 22.40625 51.46875 
Q 24.46875 52.6875 26.90625 53.25 
Q 29.34375 53.8125 32.375 53.8125 
Q 37.453125 53.8125 40.703125 52.4375 
Q 43.953125 51.078125 45.828125 48.609375 
Q 47.703125 46.140625 48.40625 42.71875 
Q 49.125 39.3125 49.125 35.203125 
L 49.125 0 
L 40.28125 0 
L 40.28125 33.5 
Q 40.28125 36.859375 39.859375 39.390625 
Q 39.453125 41.9375 38.28125 43.625 
Q 37.109375 45.3125 34.953125 46.15625 
Q 32.8125 47.015625 29.390625 47.015625 
Q 26.265625 47.015625 23.75 45.890625 
Q 21.234375 44.78125 19.453125 42.71875 
Q 17.671875 40.671875 16.6875 37.734375 
Q 15.71875 34.8125 15.71875 31.15625 
L 15.71875 0 
L 6.9375 0 
L 6.9375 72.46875 
L 15.71875 72.46875 
L 15.71875 53.609375 
Q 15.71875 52 15.671875 50.390625 
Q 15.625 48.78125 15.546875 47.40625 
Q 15.484375 46.046875 15.421875 45.09375 
Q 15.375 44.140625 15.328125 43.796875 
z
" id="LiberationSans-68"/>
     <path d="M 22.265625 54.390625 
L 35.15625 59.421875 
L 37.359375 52.984375 
L 23.578125 49.421875 
L 32.625 37.203125 
L 26.8125 33.6875 
L 19.484375 46.296875 
L 11.859375 33.796875 
L 6.0625 37.3125 
L 15.28125 49.421875 
L 1.609375 52.984375 
L 3.8125 59.515625 
L 16.84375 54.296875 
L 16.265625 68.796875 
L 22.90625 68.796875 
z
" id="LiberationSans-2a"/>
     <path d="M 13.421875 26.65625 
Q 13.421875 22.125 14.078125 18.3125 
Q 14.75 14.5 16.3125 11.734375 
Q 17.875 8.984375 20.4375 7.46875 
Q 23 5.953125 26.765625 5.953125 
Q 31.453125 5.953125 34.59375 8.484375 
Q 37.75 11.03125 38.484375 16.3125 
L 47.359375 15.71875 
Q 46.921875 12.453125 45.453125 9.421875 
Q 44 6.390625 41.484375 4.09375 
Q 38.96875 1.8125 35.34375 0.40625 
Q 31.734375 -0.984375 27 -0.984375 
Q 20.796875 -0.984375 16.453125 1.109375 
Q 12.109375 3.21875 9.390625 6.90625 
Q 6.6875 10.59375 5.46875 15.59375 
Q 4.25 20.609375 4.25 26.46875 
Q 4.25 31.78125 5.125 35.859375 
Q 6 39.9375 7.59375 42.984375 
Q 9.1875 46.046875 11.328125 48.125 
Q 13.484375 50.203125 15.984375 51.4375 
Q 18.5 52.6875 21.28125 53.25 
Q 24.078125 53.8125 26.90625 53.8125 
Q 31.34375 53.8125 34.8125 52.59375 
Q 38.28125 51.375 40.796875 49.25 
Q 43.3125 47.125 44.875 44.234375 
Q 46.4375 41.359375 47.078125 38.03125 
L 38.03125 37.359375 
Q 37.359375 41.75 34.5625 44.328125 
Q 31.78125 46.921875 26.65625 46.921875 
Q 22.90625 46.921875 20.390625 45.671875 
Q 17.875 44.4375 16.3125 41.921875 
Q 14.75 39.40625 14.078125 35.59375 
Q 13.421875 31.78125 13.421875 26.65625 
" id="LiberationSans-63"/>
     <path d="M 15.328125 52.828125 
L 15.328125 19.34375 
Q 15.328125 15.484375 15.890625 12.890625 
Q 16.453125 10.296875 17.71875 8.703125 
Q 19 7.125 21.0625 6.46875 
Q 23.140625 5.8125 26.21875 5.8125 
Q 29.34375 5.8125 31.859375 6.90625 
Q 34.375 8.015625 36.15625 10.078125 
Q 37.9375 12.15625 38.90625 15.203125 
Q 39.890625 18.265625 39.890625 22.21875 
L 39.890625 52.828125 
L 48.6875 52.828125 
L 48.6875 11.28125 
Q 48.6875 9.625 48.703125 7.78125 
Q 48.734375 5.953125 48.78125 4.3125 
Q 48.828125 2.6875 48.875 1.515625 
Q 48.921875 0.34375 48.96875 0 
L 40.671875 0 
Q 40.625 0.25 40.578125 1.3125 
Q 40.53125 2.390625 40.453125 3.78125 
Q 40.375 5.171875 40.328125 6.609375 
Q 40.28125 8.0625 40.28125 9.03125 
L 40.140625 9.03125 
Q 38.875 6.734375 37.359375 4.875 
Q 35.84375 3.03125 33.84375 1.734375 
Q 31.84375 0.4375 29.25 -0.265625 
Q 26.65625 -0.984375 23.25 -0.984375 
Q 18.84375 -0.984375 15.671875 0.09375 
Q 12.5 1.171875 10.453125 3.421875 
Q 8.40625 5.671875 7.453125 9.1875 
Q 6.5 12.703125 6.5 17.625 
L 6.5 52.828125 
z
" id="LiberationSans-75"/>
    </defs>
    <g style="fill:#262626;" transform="translate(209.80125 34.6)scale(0.12 -0.12)">
     <use xlink:href="#LiberationSans-68"/>
     <use x="55.615234375" xlink:href="#LiberationSans-63"/>
     <use x="105.615234375" xlink:href="#LiberationSans-20"/>
     <use x="133.3984375" xlink:href="#LiberationSans-2d"/>
     <use x="166.69921875" xlink:href="#LiberationSans-20"/>
     <use x="194.482421875" xlink:href="#LiberationSans-30"/>
     <use x="250.09765625" xlink:href="#LiberationSans-2e"/>
     <use x="277.880859375" xlink:href="#LiberationSans-30"/>
     <use x="333.49609375" xlink:href="#LiberationSans-33"/>
     <use x="389.111328125" xlink:href="#LiberationSans-37"/>
     <use x="444.7265625" xlink:href="#LiberationSans-34"/>
     <use x="500.341796875" xlink:href="#LiberationSans-31"/>
     <use x="555.95703125" xlink:href="#LiberationSans-35"/>
     <use x="611.572265625" xlink:href="#LiberationSans-36"/>
     <use x="667.1875" xlink:href="#LiberationSans-32"/>
     <use x="722.802734375" xlink:href="#LiberationSans-34"/>
     <use x="778.41796875" xlink:href="#LiberationSans-39"/>
     <use x="834.033203125" xlink:href="#LiberationSans-32"/>
     <use x="889.6484375" xlink:href="#LiberationSans-31"/>
     <use x="945.263671875" xlink:href="#LiberationSans-35"/>
     <use x="1000.87890625" xlink:href="#LiberationSans-36"/>
     <use x="1056.494140625" xlink:href="#LiberationSans-37"/>
     <use x="1112.109375" xlink:href="#LiberationSans-35"/>
     <use x="1167.724609375" xlink:href="#LiberationSans-37"/>
     <use x="1223.33984375" xlink:href="#LiberationSans-20"/>
     <use x="1251.123046875" xlink:href="#LiberationSans-2a"/>
     <use x="1290.0390625" xlink:href="#LiberationSans-20"/>
     <use x="1317.822265625" xlink:href="#LiberationSans-63"/>
     <use x="1367.822265625" xlink:href="#LiberationSans-75"/>
    </g>
   </g>
  </g>
 </g>
 <defs>
  <clipPath id="p608fe5d719">
   <rect height="316.8" width="446.4" x="72.0" y="39.6"/>
  </clipPath>
 </defs>
</svg>
