<?xml version="1.0" encoding="utf-8" standalone="no"?>
<!DOCTYPE svg PUBLIC "-//W3C//DTD SVG 1.1//EN"
  "http://www.w3.org/Graphics/SVG/1.1/DTD/svg11.dtd">
<!-- Created with matplotlib (http://matplotlib.org/) -->
<svg height="396pt" version="1.1" viewBox="0 0 576 396" width="576pt" xmlns="http://www.w3.org/2000/svg" xmlns:xlink="http://www.w3.org/1999/xlink">
 <defs>
  <style type="text/css">
*{stroke-linecap:butt;stroke-linejoin:round;stroke-miterlimit:100000;}
  </style>
 </defs>
 <g id="figure_1">
  <g id="patch_1">
   <path d="M 0 396 
L 576 396 
L 576 0 
L 0 0 
z
" style="fill:#ffffff;"/>
  </g>
  <g id="axes_1">
   <g id="patch_2">
    <path d="M 72 356.4 
L 518.4 356.4 
L 518.4 39.6 
L 72 39.6 
z
" style="fill:#eaeaf2;"/>
   </g>
   <g id="matplotlib.axis_1">
    <g id="xtick_1">
     <g id="line2d_1">
      <path clip-path="url(#pa08044c32f)" d="M 72 356.4 
L 72 39.6 
" style="fill:none;stroke:#ffffff;stroke-linecap:round;"/>
     </g>
     <g id="line2d_2"/>
     <g id="line2d_3"/>
     <g id="text_1">
      <!-- 2016-09-29 14:26:00 -->
      <defs>
       <path d="M 5.03125 0 
L 5.03125 6.203125 
Q 7.515625 11.921875 11.109375 16.28125 
Q 14.703125 20.65625 18.65625 24.1875 
Q 22.609375 27.734375 26.484375 30.765625 
Q 30.375 33.796875 33.5 36.8125 
Q 36.625 39.84375 38.546875 43.15625 
Q 40.484375 46.484375 40.484375 50.6875 
Q 40.484375 53.609375 39.59375 55.828125 
Q 38.71875 58.0625 37.0625 59.5625 
Q 35.40625 61.078125 33.078125 61.828125 
Q 30.765625 62.59375 27.9375 62.59375 
Q 25.296875 62.59375 22.96875 61.859375 
Q 20.65625 61.140625 18.84375 59.671875 
Q 17.046875 58.203125 15.890625 56.03125 
Q 14.75 53.859375 14.40625 50.984375 
L 5.421875 51.8125 
Q 5.859375 55.515625 7.46875 58.78125 
Q 9.078125 62.0625 11.90625 64.53125 
Q 14.75 67 18.71875 68.40625 
Q 22.703125 69.828125 27.9375 69.828125 
Q 33.0625 69.828125 37.0625 68.609375 
Q 41.0625 67.390625 43.8125 64.984375 
Q 46.578125 62.59375 48.046875 59.078125 
Q 49.515625 55.5625 49.515625 50.984375 
Q 49.515625 47.515625 48.265625 44.390625 
Q 47.015625 41.265625 44.9375 38.421875 
Q 42.875 35.59375 40.140625 32.953125 
Q 37.40625 30.328125 34.421875 27.8125 
Q 31.453125 25.296875 28.421875 22.828125 
Q 25.390625 20.359375 22.71875 17.859375 
Q 20.0625 15.375 17.96875 12.8125 
Q 15.875 10.25 14.703125 7.46875 
L 50.59375 7.46875 
L 50.59375 0 
z
" id="LiberationSans-32"/>
       <path d="M 7.625 0 
L 7.625 7.46875 
L 25.140625 7.46875 
L 25.140625 60.40625 
L 9.625 49.3125 
L 9.625 57.625 
L 25.875 68.796875 
L 33.984375 68.796875 
L 33.984375 7.46875 
L 50.734375 7.46875 
L 50.734375 0 
z
" id="LiberationSans-31"/>
       <path d="M 51.703125 34.421875 
Q 51.703125 24.515625 49.828125 17.75 
Q 47.953125 10.984375 44.703125 6.8125 
Q 41.453125 2.640625 37.0625 0.828125 
Q 32.671875 -0.984375 27.6875 -0.984375 
Q 22.65625 -0.984375 18.3125 0.828125 
Q 13.96875 2.640625 10.765625 6.78125 
Q 7.5625 10.9375 5.734375 17.703125 
Q 3.90625 24.46875 3.90625 34.421875 
Q 3.90625 44.828125 5.734375 51.640625 
Q 7.5625 58.453125 10.78125 62.5 
Q 14.015625 66.546875 18.40625 68.1875 
Q 22.796875 69.828125 27.984375 69.828125 
Q 32.90625 69.828125 37.21875 68.1875 
Q 41.546875 66.546875 44.765625 62.5 
Q 48 58.453125 49.84375 51.640625 
Q 51.703125 44.828125 51.703125 34.421875 
M 42.78125 34.421875 
Q 42.78125 42.625 41.796875 48.0625 
Q 40.828125 53.515625 38.921875 56.765625 
Q 37.015625 60.015625 34.25 61.359375 
Q 31.5 62.703125 27.984375 62.703125 
Q 24.265625 62.703125 21.4375 61.328125 
Q 18.609375 59.96875 16.671875 56.71875 
Q 14.75 53.46875 13.765625 48.015625 
Q 12.796875 42.578125 12.796875 34.421875 
Q 12.796875 26.515625 13.796875 21.09375 
Q 14.796875 15.671875 16.71875 12.375 
Q 18.65625 9.078125 21.4375 7.640625 
Q 24.21875 6.203125 27.78125 6.203125 
Q 31.25 6.203125 34.03125 7.640625 
Q 36.8125 9.078125 38.734375 12.375 
Q 40.671875 15.671875 41.71875 21.09375 
Q 42.78125 26.515625 42.78125 34.421875 
" id="LiberationSans-30"/>
       <path d="M 50.875 35.796875 
Q 50.875 26.609375 49.140625 19.703125 
Q 47.40625 12.796875 44.1875 8.203125 
Q 40.96875 3.609375 36.34375 1.3125 
Q 31.734375 -0.984375 25.984375 -0.984375 
Q 22.015625 -0.984375 18.84375 -0.171875 
Q 15.671875 0.640625 13.171875 2.34375 
Q 10.6875 4.046875 8.921875 6.78125 
Q 7.171875 9.515625 6.109375 13.375 
L 14.5 14.703125 
Q 15.875 10.25 18.78125 8.171875 
Q 21.6875 6.109375 26.125 6.109375 
Q 29.6875 6.109375 32.640625 7.78125 
Q 35.59375 9.46875 37.671875 12.84375 
Q 39.75 16.21875 40.921875 21.296875 
Q 42.09375 26.375 42.1875 33.203125 
Q 41.15625 30.90625 39.375 29.09375 
Q 37.59375 27.296875 35.328125 26.046875 
Q 33.0625 24.8125 30.421875 24.140625 
Q 27.78125 23.484375 25.09375 23.484375 
Q 20.40625 23.484375 16.625 25.171875 
Q 12.84375 26.859375 10.203125 29.875 
Q 7.5625 32.90625 6.125 37.171875 
Q 4.6875 41.453125 4.6875 46.6875 
Q 4.6875 52 6.21875 56.296875 
Q 7.765625 60.59375 10.6875 63.59375 
Q 13.625 66.609375 17.890625 68.21875 
Q 22.171875 69.828125 27.59375 69.828125 
Q 39.0625 69.828125 44.96875 61.328125 
Q 50.875 52.828125 50.875 35.796875 
M 41.3125 44.28125 
Q 41.3125 48.09375 40.40625 51.453125 
Q 39.5 54.828125 37.71875 57.3125 
Q 35.9375 59.8125 33.328125 61.25 
Q 30.71875 62.703125 27.296875 62.703125 
Q 24.125 62.703125 21.578125 61.578125 
Q 19.046875 60.453125 17.28125 58.375 
Q 15.53125 56.296875 14.578125 53.3125 
Q 13.625 50.34375 13.625 46.6875 
Q 13.625 43.21875 14.46875 40.234375 
Q 15.328125 37.25 17.03125 35.078125 
Q 18.75 32.90625 21.28125 31.65625 
Q 23.828125 30.421875 27.203125 30.421875 
Q 29.640625 30.421875 32.15625 31.25 
Q 34.671875 32.078125 36.6875 33.78125 
Q 38.71875 35.5 40.015625 38.109375 
Q 41.3125 40.71875 41.3125 44.28125 
" id="LiberationSans-39"/>
       <path d="M 9.125 42.71875 
L 9.125 52.828125 
L 18.65625 52.828125 
L 18.65625 42.71875 
z
M 9.125 0 
L 9.125 10.109375 
L 18.65625 10.109375 
L 18.65625 0 
z
" id="LiberationSans-3a"/>
       <path d="M 43.015625 15.578125 
L 43.015625 0 
L 34.71875 0 
L 34.71875 15.578125 
L 2.296875 15.578125 
L 2.296875 22.40625 
L 33.796875 68.796875 
L 43.015625 68.796875 
L 43.015625 22.515625 
L 52.6875 22.515625 
L 52.6875 15.578125 
z
M 34.71875 58.890625 
Q 34.625 58.640625 34.234375 57.9375 
Q 33.84375 57.234375 33.34375 56.34375 
Q 32.859375 55.46875 32.34375 54.5625 
Q 31.84375 53.65625 31.453125 53.078125 
L 13.8125 27.09375 
Q 13.578125 26.703125 13.109375 26.0625 
Q 12.640625 25.4375 12.15625 24.78125 
Q 11.671875 24.125 11.171875 23.484375 
Q 10.6875 22.859375 10.40625 22.515625 
L 34.71875 22.515625 
z
" id="LiberationSans-34"/>
       <path id="LiberationSans-20"/>
       <path d="M 4.4375 22.65625 
L 4.4375 30.46875 
L 28.859375 30.46875 
L 28.859375 22.65625 
z
" id="LiberationSans-2d"/>
       <path d="M 51.21875 22.515625 
Q 51.21875 17.328125 49.78125 13 
Q 48.34375 8.6875 45.53125 5.578125 
Q 42.71875 2.484375 38.5625 0.75 
Q 34.421875 -0.984375 29 -0.984375 
Q 23 -0.984375 18.5 1.3125 
Q 14.015625 3.609375 11.03125 7.921875 
Q 8.0625 12.25 6.5625 18.53125 
Q 5.078125 24.8125 5.078125 32.8125 
Q 5.078125 42 6.765625 48.921875 
Q 8.453125 55.859375 11.625 60.5 
Q 14.796875 65.140625 19.359375 67.484375 
Q 23.921875 69.828125 29.6875 69.828125 
Q 33.203125 69.828125 36.28125 69.09375 
Q 39.359375 68.359375 41.875 66.71875 
Q 44.390625 65.09375 46.28125 62.40625 
Q 48.1875 59.71875 49.3125 55.8125 
L 40.921875 54.296875 
Q 39.546875 58.734375 36.546875 60.71875 
Q 33.546875 62.703125 29.59375 62.703125 
Q 25.984375 62.703125 23.046875 60.984375 
Q 20.125 59.28125 18.0625 55.875 
Q 16.015625 52.484375 14.90625 47.359375 
Q 13.8125 42.234375 13.8125 35.40625 
Q 16.21875 39.84375 20.5625 42.15625 
Q 24.90625 44.484375 30.515625 44.484375 
Q 35.203125 44.484375 39.015625 42.96875 
Q 42.828125 41.453125 45.53125 38.59375 
Q 48.25 35.75 49.734375 31.671875 
Q 51.21875 27.59375 51.21875 22.515625 
M 42.28125 22.125 
Q 42.28125 25.6875 41.40625 28.5625 
Q 40.53125 31.453125 38.765625 33.46875 
Q 37.015625 35.5 34.421875 36.59375 
Q 31.84375 37.703125 28.421875 37.703125 
Q 26.03125 37.703125 23.578125 36.984375 
Q 21.140625 36.28125 19.15625 34.6875 
Q 17.1875 33.109375 15.9375 30.515625 
Q 14.703125 27.9375 14.703125 24.21875 
Q 14.703125 20.40625 15.671875 17.109375 
Q 16.65625 13.8125 18.484375 11.375 
Q 20.3125 8.9375 22.890625 7.515625 
Q 25.484375 6.109375 28.71875 6.109375 
Q 31.890625 6.109375 34.40625 7.203125 
Q 36.921875 8.296875 38.671875 10.375 
Q 40.4375 12.453125 41.359375 15.421875 
Q 42.28125 18.40625 42.28125 22.125 
" id="LiberationSans-36"/>
      </defs>
      <g style="fill:#262626;" transform="translate(25.5765625 370.646875)scale(0.1 -0.1)">
       <use xlink:href="#LiberationSans-32"/>
       <use x="55.615234375" xlink:href="#LiberationSans-30"/>
       <use x="111.23046875" xlink:href="#LiberationSans-31"/>
       <use x="166.845703125" xlink:href="#LiberationSans-36"/>
       <use x="222.4609375" xlink:href="#LiberationSans-2d"/>
       <use x="255.76171875" xlink:href="#LiberationSans-30"/>
       <use x="311.376953125" xlink:href="#LiberationSans-39"/>
       <use x="366.9921875" xlink:href="#LiberationSans-2d"/>
       <use x="400.29296875" xlink:href="#LiberationSans-32"/>
       <use x="455.908203125" xlink:href="#LiberationSans-39"/>
       <use x="511.5234375" xlink:href="#LiberationSans-20"/>
       <use x="539.306640625" xlink:href="#LiberationSans-31"/>
       <use x="594.921875" xlink:href="#LiberationSans-34"/>
       <use x="650.537109375" xlink:href="#LiberationSans-3a"/>
       <use x="678.3203125" xlink:href="#LiberationSans-32"/>
       <use x="733.935546875" xlink:href="#LiberationSans-36"/>
       <use x="789.55078125" xlink:href="#LiberationSans-3a"/>
       <use x="817.333984375" xlink:href="#LiberationSans-30"/>
       <use x="872.94921875" xlink:href="#LiberationSans-30"/>
      </g>
     </g>
    </g>
    <g id="xtick_2">
     <g id="line2d_4">
      <path clip-path="url(#pa08044c32f)" d="M 183.655828 356.4 
L 183.655828 39.6 
" style="fill:none;stroke:#ffffff;stroke-linecap:round;"/>
     </g>
     <g id="line2d_5"/>
     <g id="line2d_6"/>
     <g id="text_2">
      <!-- 2016-10-10 11:11:00 -->
      <g style="fill:#262626;" transform="translate(137.232390414 370.646875)scale(0.1 -0.1)">
       <use xlink:href="#LiberationSans-32"/>
       <use x="55.615234375" xlink:href="#LiberationSans-30"/>
       <use x="111.23046875" xlink:href="#LiberationSans-31"/>
       <use x="166.845703125" xlink:href="#LiberationSans-36"/>
       <use x="222.4609375" xlink:href="#LiberationSans-2d"/>
       <use x="255.76171875" xlink:href="#LiberationSans-31"/>
       <use x="311.376953125" xlink:href="#LiberationSans-30"/>
       <use x="366.9921875" xlink:href="#LiberationSans-2d"/>
       <use x="400.29296875" xlink:href="#LiberationSans-31"/>
       <use x="455.908203125" xlink:href="#LiberationSans-30"/>
       <use x="511.5234375" xlink:href="#LiberationSans-20"/>
       <use x="539.306640625" xlink:href="#LiberationSans-31"/>
       <use x="594.921875" xlink:href="#LiberationSans-31"/>
       <use x="650.537109375" xlink:href="#LiberationSans-3a"/>
       <use x="678.3203125" xlink:href="#LiberationSans-31"/>
       <use x="733.935546875" xlink:href="#LiberationSans-31"/>
       <use x="789.55078125" xlink:href="#LiberationSans-3a"/>
       <use x="817.333984375" xlink:href="#LiberationSans-30"/>
       <use x="872.94921875" xlink:href="#LiberationSans-30"/>
      </g>
     </g>
    </g>
    <g id="xtick_3">
     <g id="line2d_7">
      <path clip-path="url(#pa08044c32f)" d="M 295.311656 356.4 
L 295.311656 39.6 
" style="fill:none;stroke:#ffffff;stroke-linecap:round;"/>
     </g>
     <g id="line2d_8"/>
     <g id="line2d_9"/>
     <g id="text_3">
      <!-- 2016-10-11 21:42:00 -->
      <g style="fill:#262626;" transform="translate(248.888218328 370.646875)scale(0.1 -0.1)">
       <use xlink:href="#LiberationSans-32"/>
       <use x="55.615234375" xlink:href="#LiberationSans-30"/>
       <use x="111.23046875" xlink:href="#LiberationSans-31"/>
       <use x="166.845703125" xlink:href="#LiberationSans-36"/>
       <use x="222.4609375" xlink:href="#LiberationSans-2d"/>
       <use x="255.76171875" xlink:href="#LiberationSans-31"/>
       <use x="311.376953125" xlink:href="#LiberationSans-30"/>
       <use x="366.9921875" xlink:href="#LiberationSans-2d"/>
       <use x="400.29296875" xlink:href="#LiberationSans-31"/>
       <use x="455.908203125" xlink:href="#LiberationSans-31"/>
       <use x="511.5234375" xlink:href="#LiberationSans-20"/>
       <use x="539.306640625" xlink:href="#LiberationSans-32"/>
       <use x="594.921875" xlink:href="#LiberationSans-31"/>
       <use x="650.537109375" xlink:href="#LiberationSans-3a"/>
       <use x="678.3203125" xlink:href="#LiberationSans-34"/>
       <use x="733.935546875" xlink:href="#LiberationSans-32"/>
       <use x="789.55078125" xlink:href="#LiberationSans-3a"/>
       <use x="817.333984375" xlink:href="#LiberationSans-30"/>
       <use x="872.94921875" xlink:href="#LiberationSans-30"/>
      </g>
     </g>
    </g>
    <g id="xtick_4">
     <g id="line2d_10">
      <path clip-path="url(#pa08044c32f)" d="M 406.967484 356.4 
L 406.967484 39.6 
" style="fill:none;stroke:#ffffff;stroke-linecap:round;"/>
     </g>
     <g id="line2d_11"/>
     <g id="line2d_12"/>
     <g id="text_4">
      <!-- 2016-10-13 10:14:00 -->
      <defs>
       <path d="M 51.21875 19 
Q 51.21875 14.265625 49.671875 10.546875 
Q 48.140625 6.84375 45.1875 4.265625 
Q 42.234375 1.703125 37.859375 0.359375 
Q 33.5 -0.984375 27.875 -0.984375 
Q 21.484375 -0.984375 17.109375 0.609375 
Q 12.75 2.203125 9.90625 4.8125 
Q 7.078125 7.421875 5.65625 10.765625 
Q 4.25 14.109375 3.8125 17.671875 
L 12.890625 18.5 
Q 13.28125 15.765625 14.328125 13.515625 
Q 15.375 11.28125 17.1875 9.671875 
Q 19 8.0625 21.625 7.171875 
Q 24.265625 6.296875 27.875 6.296875 
Q 34.515625 6.296875 38.296875 9.5625 
Q 42.09375 12.84375 42.09375 19.28125 
Q 42.09375 23.09375 40.40625 25.40625 
Q 38.71875 27.734375 36.203125 29.03125 
Q 33.6875 30.328125 30.734375 30.765625 
Q 27.78125 31.203125 25.296875 31.203125 
L 20.3125 31.203125 
L 20.3125 38.8125 
L 25.09375 38.8125 
Q 27.59375 38.8125 30.265625 39.328125 
Q 32.953125 39.84375 35.171875 41.1875 
Q 37.40625 42.53125 38.84375 44.828125 
Q 40.28125 47.125 40.28125 50.6875 
Q 40.28125 56.203125 37.03125 59.390625 
Q 33.796875 62.59375 27.390625 62.59375 
Q 21.578125 62.59375 17.984375 59.609375 
Q 14.40625 56.640625 13.8125 51.21875 
L 4.984375 51.90625 
Q 5.515625 56.453125 7.46875 59.8125 
Q 9.421875 63.1875 12.421875 65.40625 
Q 15.4375 67.625 19.28125 68.71875 
Q 23.140625 69.828125 27.484375 69.828125 
Q 33.25 69.828125 37.390625 68.375 
Q 41.546875 66.9375 44.1875 64.46875 
Q 46.828125 62.015625 48.0625 58.6875 
Q 49.3125 55.375 49.3125 51.609375 
Q 49.3125 48.578125 48.484375 45.9375 
Q 47.65625 43.3125 45.890625 41.203125 
Q 44.140625 39.109375 41.421875 37.59375 
Q 38.71875 36.078125 34.90625 35.296875 
L 34.90625 35.109375 
Q 39.0625 34.671875 42.140625 33.21875 
Q 45.21875 31.78125 47.21875 29.625 
Q 49.21875 27.484375 50.21875 24.75 
Q 51.21875 22.015625 51.21875 19 
" id="LiberationSans-33"/>
      </defs>
      <g style="fill:#262626;" transform="translate(360.544046242 370.646875)scale(0.1 -0.1)">
       <use xlink:href="#LiberationSans-32"/>
       <use x="55.615234375" xlink:href="#LiberationSans-30"/>
       <use x="111.23046875" xlink:href="#LiberationSans-31"/>
       <use x="166.845703125" xlink:href="#LiberationSans-36"/>
       <use x="222.4609375" xlink:href="#LiberationSans-2d"/>
       <use x="255.76171875" xlink:href="#LiberationSans-31"/>
       <use x="311.376953125" xlink:href="#LiberationSans-30"/>
       <use x="366.9921875" xlink:href="#LiberationSans-2d"/>
       <use x="400.29296875" xlink:href="#LiberationSans-31"/>
       <use x="455.908203125" xlink:href="#LiberationSans-33"/>
       <use x="511.5234375" xlink:href="#LiberationSans-20"/>
       <use x="539.306640625" xlink:href="#LiberationSans-31"/>
       <use x="594.921875" xlink:href="#LiberationSans-30"/>
       <use x="650.537109375" xlink:href="#LiberationSans-3a"/>
       <use x="678.3203125" xlink:href="#LiberationSans-31"/>
       <use x="733.935546875" xlink:href="#LiberationSans-34"/>
       <use x="789.55078125" xlink:href="#LiberationSans-3a"/>
       <use x="817.333984375" xlink:href="#LiberationSans-30"/>
       <use x="872.94921875" xlink:href="#LiberationSans-30"/>
      </g>
     </g>
    </g>
    <g id="text_5">
     <!-- time -->
     <defs>
      <path d="M 13.484375 24.5625 
Q 13.484375 20.40625 14.328125 16.90625 
Q 15.1875 13.421875 16.96875 10.90625 
Q 18.75 8.40625 21.53125 7 
Q 24.3125 5.609375 28.21875 5.609375 
Q 33.9375 5.609375 37.375 7.90625 
Q 40.828125 10.203125 42.046875 13.71875 
L 49.75 11.53125 
Q 48.921875 9.328125 47.4375 7.109375 
Q 45.953125 4.890625 43.453125 3.09375 
Q 40.96875 1.3125 37.234375 0.15625 
Q 33.5 -0.984375 28.21875 -0.984375 
Q 16.5 -0.984375 10.375 6 
Q 4.25 12.984375 4.25 26.765625 
Q 4.25 34.1875 6.09375 39.328125 
Q 7.953125 44.484375 11.171875 47.703125 
Q 14.40625 50.921875 18.703125 52.359375 
Q 23 53.8125 27.875 53.8125 
Q 34.515625 53.8125 38.984375 51.65625 
Q 43.453125 49.515625 46.15625 45.71875 
Q 48.875 41.9375 50.015625 36.8125 
Q 51.171875 31.6875 51.171875 25.734375 
L 51.171875 24.5625 
z
M 42.09375 31.296875 
Q 41.359375 39.65625 37.84375 43.484375 
Q 34.328125 47.3125 27.734375 47.3125 
Q 25.53125 47.3125 23.109375 46.609375 
Q 20.703125 45.90625 18.65625 44.09375 
Q 16.609375 42.28125 15.1875 39.171875 
Q 13.765625 36.078125 13.578125 31.296875 
z
" id="LiberationSans-65"/>
      <path d="M 6.6875 64.0625 
L 6.6875 72.46875 
L 15.484375 72.46875 
L 15.484375 64.0625 
z
M 6.6875 0 
L 6.6875 52.828125 
L 15.484375 52.828125 
L 15.484375 0 
z
" id="LiberationSans-69"/>
      <path d="M 27.046875 0.390625 
Q 25.046875 -0.140625 22.96875 -0.453125 
Q 20.90625 -0.78125 18.171875 -0.78125 
Q 7.625 -0.78125 7.625 11.1875 
L 7.625 46.4375 
L 1.515625 46.4375 
L 1.515625 52.828125 
L 7.953125 52.828125 
L 10.546875 64.65625 
L 16.40625 64.65625 
L 16.40625 52.828125 
L 26.171875 52.828125 
L 26.171875 46.4375 
L 16.40625 46.4375 
L 16.40625 13.09375 
Q 16.40625 9.28125 17.640625 7.734375 
Q 18.890625 6.203125 21.96875 6.203125 
Q 23.25 6.203125 24.4375 6.390625 
Q 25.640625 6.59375 27.046875 6.890625 
z
" id="LiberationSans-74"/>
      <path d="M 37.5 0 
L 37.5 33.5 
Q 37.5 37.359375 37.015625 39.9375 
Q 36.53125 42.53125 35.375 44.109375 
Q 34.234375 45.703125 32.375 46.359375 
Q 30.515625 47.015625 27.828125 47.015625 
Q 25.046875 47.015625 22.796875 45.921875 
Q 20.5625 44.828125 18.96875 42.75 
Q 17.390625 40.671875 16.53125 37.625 
Q 15.671875 34.578125 15.671875 30.609375 
L 15.671875 0 
L 6.9375 0 
L 6.9375 41.546875 
Q 6.9375 43.21875 6.90625 45.046875 
Q 6.890625 46.875 6.828125 48.5 
Q 6.78125 50.140625 6.734375 51.3125 
Q 6.6875 52.484375 6.640625 52.828125 
L 14.9375 52.828125 
Q 14.984375 52.59375 15.03125 51.515625 
Q 15.09375 50.4375 15.15625 49.046875 
Q 15.234375 47.65625 15.28125 46.21875 
Q 15.328125 44.78125 15.328125 43.796875 
L 15.484375 43.796875 
Q 16.65625 46.09375 18.015625 47.953125 
Q 19.390625 49.8125 21.21875 51.09375 
Q 23.046875 52.390625 25.40625 53.09375 
Q 27.78125 53.8125 30.90625 53.8125 
Q 36.921875 53.8125 40.40625 51.421875 
Q 43.890625 49.03125 45.265625 43.796875 
L 45.40625 43.796875 
Q 46.578125 46.09375 48.046875 47.953125 
Q 49.515625 49.8125 51.46875 51.09375 
Q 53.421875 52.390625 55.859375 53.09375 
Q 58.296875 53.8125 61.421875 53.8125 
Q 65.4375 53.8125 68.328125 52.734375 
Q 71.234375 51.65625 73.09375 49.40625 
Q 74.953125 47.171875 75.828125 43.625 
Q 76.703125 40.09375 76.703125 35.203125 
L 76.703125 0 
L 68.015625 0 
L 68.015625 33.5 
Q 68.015625 37.359375 67.53125 39.9375 
Q 67.046875 42.53125 65.890625 44.109375 
Q 64.75 45.703125 62.890625 46.359375 
Q 61.03125 47.015625 58.34375 47.015625 
Q 55.5625 47.015625 53.3125 45.96875 
Q 51.078125 44.921875 49.484375 42.875 
Q 47.90625 40.828125 47.046875 37.75 
Q 46.1875 34.671875 46.1875 30.609375 
L 46.1875 0 
z
" id="LiberationSans-6d"/>
     </defs>
     <g style="fill:#262626;" transform="translate(284.81015625 385.6934375)scale(0.11 -0.11)">
      <use xlink:href="#LiberationSans-74"/>
      <use x="27.783203125" xlink:href="#LiberationSans-69"/>
      <use x="50.0" xlink:href="#LiberationSans-6d"/>
      <use x="133.30078125" xlink:href="#LiberationSans-65"/>
     </g>
    </g>
   </g>
   <g id="matplotlib.axis_2">
    <g id="ytick_1">
     <g id="line2d_13">
      <path clip-path="url(#pa08044c32f)" d="M 72 356.4 
L 518.4 356.4 
" style="fill:none;stroke:#ffffff;stroke-linecap:round;"/>
     </g>
     <g id="line2d_14"/>
     <g id="line2d_15"/>
     <g id="text_6">
      <!-- 255 -->
      <defs>
       <path d="M 51.421875 22.40625 
Q 51.421875 17.234375 49.859375 12.9375 
Q 48.296875 8.640625 45.21875 5.53125 
Q 42.140625 2.4375 37.578125 0.71875 
Q 33.015625 -0.984375 27 -0.984375 
Q 21.578125 -0.984375 17.546875 0.28125 
Q 13.53125 1.5625 10.734375 3.78125 
Q 7.953125 6 6.3125 8.984375 
Q 4.6875 11.96875 4 15.375 
L 12.890625 16.40625 
Q 13.421875 14.453125 14.390625 12.625 
Q 15.375 10.796875 17.0625 9.34375 
Q 18.75 7.90625 21.21875 7.046875 
Q 23.6875 6.203125 27.203125 6.203125 
Q 30.609375 6.203125 33.390625 7.25 
Q 36.1875 8.296875 38.15625 10.34375 
Q 40.140625 12.40625 41.203125 15.375 
Q 42.28125 18.359375 42.28125 22.21875 
Q 42.28125 25.390625 41.25 28.046875 
Q 40.234375 30.71875 38.328125 32.640625 
Q 36.421875 34.578125 33.65625 35.640625 
Q 30.90625 36.71875 27.390625 36.71875 
Q 25.203125 36.71875 23.34375 36.328125 
Q 21.484375 35.9375 19.890625 35.25 
Q 18.3125 34.578125 17.015625 33.671875 
Q 15.71875 32.765625 14.59375 31.78125 
L 6 31.78125 
L 8.296875 68.796875 
L 47.40625 68.796875 
L 47.40625 61.328125 
L 16.3125 61.328125 
L 14.984375 39.5 
Q 17.328125 41.3125 20.84375 42.59375 
Q 24.359375 43.890625 29.203125 43.890625 
Q 34.328125 43.890625 38.421875 42.328125 
Q 42.53125 40.765625 45.40625 37.90625 
Q 48.296875 35.0625 49.859375 31.109375 
Q 51.421875 27.15625 51.421875 22.40625 
" id="LiberationSans-35"/>
      </defs>
      <g style="fill:#262626;" transform="translate(48.3171875 358.9859375)scale(0.1 -0.1)">
       <use xlink:href="#LiberationSans-32"/>
       <use x="55.615234375" xlink:href="#LiberationSans-35"/>
       <use x="111.23046875" xlink:href="#LiberationSans-35"/>
      </g>
     </g>
    </g>
    <g id="ytick_2">
     <g id="line2d_16">
      <path clip-path="url(#pa08044c32f)" d="M 72 316.8 
L 518.4 316.8 
" style="fill:none;stroke:#ffffff;stroke-linecap:round;"/>
     </g>
     <g id="line2d_17"/>
     <g id="line2d_18"/>
     <g id="text_7">
      <!-- 260 -->
      <g style="fill:#262626;" transform="translate(48.3171875 319.3859375)scale(0.1 -0.1)">
       <use xlink:href="#LiberationSans-32"/>
       <use x="55.615234375" xlink:href="#LiberationSans-36"/>
       <use x="111.23046875" xlink:href="#LiberationSans-30"/>
      </g>
     </g>
    </g>
    <g id="ytick_3">
     <g id="line2d_19">
      <path clip-path="url(#pa08044c32f)" d="M 72 277.2 
L 518.4 277.2 
" style="fill:none;stroke:#ffffff;stroke-linecap:round;"/>
     </g>
     <g id="line2d_20"/>
     <g id="line2d_21"/>
     <g id="text_8">
      <!-- 265 -->
      <g style="fill:#262626;" transform="translate(48.3171875 279.7859375)scale(0.1 -0.1)">
       <use xlink:href="#LiberationSans-32"/>
       <use x="55.615234375" xlink:href="#LiberationSans-36"/>
       <use x="111.23046875" xlink:href="#LiberationSans-35"/>
      </g>
     </g>
    </g>
    <g id="ytick_4">
     <g id="line2d_22">
      <path clip-path="url(#pa08044c32f)" d="M 72 237.6 
L 518.4 237.6 
" style="fill:none;stroke:#ffffff;stroke-linecap:round;"/>
     </g>
     <g id="line2d_23"/>
     <g id="line2d_24"/>
     <g id="text_9">
      <!-- 270 -->
      <defs>
       <path d="M 50.59375 61.671875 
Q 45.40625 53.765625 41.0625 46.453125 
Q 36.71875 39.15625 33.59375 31.75 
Q 30.46875 24.359375 28.734375 16.578125 
Q 27 8.796875 27 0 
L 17.828125 0 
Q 17.828125 8.25 19.78125 16.1875 
Q 21.734375 24.125 25.046875 31.765625 
Q 28.375 39.40625 32.765625 46.78125 
Q 37.15625 54.15625 42.09375 61.328125 
L 5.125 61.328125 
L 5.125 68.796875 
L 50.59375 68.796875 
z
" id="LiberationSans-37"/>
      </defs>
      <g style="fill:#262626;" transform="translate(48.3171875 240.1859375)scale(0.1 -0.1)">
       <use xlink:href="#LiberationSans-32"/>
       <use x="55.615234375" xlink:href="#LiberationSans-37"/>
       <use x="111.23046875" xlink:href="#LiberationSans-30"/>
      </g>
     </g>
    </g>
    <g id="ytick_5">
     <g id="line2d_25">
      <path clip-path="url(#pa08044c32f)" d="M 72 198 
L 518.4 198 
" style="fill:none;stroke:#ffffff;stroke-linecap:round;"/>
     </g>
     <g id="line2d_26"/>
     <g id="line2d_27"/>
     <g id="text_10">
      <!-- 275 -->
      <g style="fill:#262626;" transform="translate(48.3171875 200.5859375)scale(0.1 -0.1)">
       <use xlink:href="#LiberationSans-32"/>
       <use x="55.615234375" xlink:href="#LiberationSans-37"/>
       <use x="111.23046875" xlink:href="#LiberationSans-35"/>
      </g>
     </g>
    </g>
    <g id="ytick_6">
     <g id="line2d_28">
      <path clip-path="url(#pa08044c32f)" d="M 72 158.4 
L 518.4 158.4 
" style="fill:none;stroke:#ffffff;stroke-linecap:round;"/>
     </g>
     <g id="line2d_29"/>
     <g id="line2d_30"/>
     <g id="text_11">
      <!-- 280 -->
      <defs>
       <path d="M 51.265625 19.1875 
Q 51.265625 14.796875 49.875 11.109375 
Q 48.484375 7.421875 45.625 4.734375 
Q 42.78125 2.046875 38.328125 0.53125 
Q 33.890625 -0.984375 27.828125 -0.984375 
Q 21.78125 -0.984375 17.359375 0.53125 
Q 12.9375 2.046875 10.03125 4.703125 
Q 7.125 7.375 5.734375 11.0625 
Q 4.34375 14.75 4.34375 19.09375 
Q 4.34375 22.859375 5.484375 25.78125 
Q 6.640625 28.71875 8.5625 30.828125 
Q 10.5 32.953125 12.96875 34.25 
Q 15.4375 35.546875 18.0625 35.984375 
L 18.0625 36.1875 
Q 15.1875 36.859375 12.90625 38.375 
Q 10.640625 39.890625 9.09375 42.015625 
Q 7.5625 44.140625 6.75 46.71875 
Q 5.953125 49.3125 5.953125 52.203125 
Q 5.953125 55.8125 7.34375 59 
Q 8.734375 62.203125 11.46875 64.625 
Q 14.203125 67.046875 18.25 68.4375 
Q 22.3125 69.828125 27.640625 69.828125 
Q 33.25 69.828125 37.375 68.40625 
Q 41.5 67 44.203125 64.578125 
Q 46.921875 62.15625 48.234375 58.9375 
Q 49.5625 55.71875 49.5625 52.09375 
Q 49.5625 49.265625 48.75 46.671875 
Q 47.953125 44.09375 46.40625 41.96875 
Q 44.875 39.84375 42.59375 38.34375 
Q 40.328125 36.859375 37.359375 36.28125 
L 37.359375 36.078125 
Q 40.328125 35.59375 42.859375 34.296875 
Q 45.40625 33.015625 47.265625 30.890625 
Q 49.125 28.765625 50.1875 25.828125 
Q 51.265625 22.90625 51.265625 19.1875 
M 40.4375 51.609375 
Q 40.4375 54.203125 39.765625 56.34375 
Q 39.109375 58.5 37.59375 60.03125 
Q 36.078125 61.578125 33.640625 62.421875 
Q 31.203125 63.28125 27.640625 63.28125 
Q 24.171875 63.28125 21.78125 62.421875 
Q 19.390625 61.578125 17.84375 60.03125 
Q 16.3125 58.5 15.625 56.34375 
Q 14.9375 54.203125 14.9375 51.609375 
Q 14.9375 49.5625 15.46875 47.40625 
Q 16.015625 45.265625 17.421875 43.5 
Q 18.84375 41.75 21.328125 40.625 
Q 23.828125 39.5 27.734375 39.5 
Q 31.890625 39.5 34.40625 40.625 
Q 36.921875 41.75 38.25 43.5 
Q 39.59375 45.265625 40.015625 47.40625 
Q 40.4375 49.5625 40.4375 51.609375 
M 42.140625 20.015625 
Q 42.140625 22.515625 41.453125 24.828125 
Q 40.765625 27.15625 39.109375 28.9375 
Q 37.453125 30.71875 34.640625 31.8125 
Q 31.84375 32.90625 27.640625 32.90625 
Q 23.78125 32.90625 21.0625 31.8125 
Q 18.359375 30.71875 16.671875 28.90625 
Q 14.984375 27.09375 14.203125 24.71875 
Q 13.421875 22.359375 13.421875 19.828125 
Q 13.421875 16.65625 14.203125 14.03125 
Q 14.984375 11.421875 16.6875 9.546875 
Q 18.40625 7.671875 21.1875 6.640625 
Q 23.96875 5.609375 27.9375 5.609375 
Q 31.9375 5.609375 34.671875 6.640625 
Q 37.40625 7.671875 39.0625 9.546875 
Q 40.71875 11.421875 41.421875 14.078125 
Q 42.140625 16.75 42.140625 20.015625 
" id="LiberationSans-38"/>
      </defs>
      <g style="fill:#262626;" transform="translate(48.3171875 160.9859375)scale(0.1 -0.1)">
       <use xlink:href="#LiberationSans-32"/>
       <use x="55.615234375" xlink:href="#LiberationSans-38"/>
       <use x="111.23046875" xlink:href="#LiberationSans-30"/>
      </g>
     </g>
    </g>
    <g id="ytick_7">
     <g id="line2d_31">
      <path clip-path="url(#pa08044c32f)" d="M 72 118.8 
L 518.4 118.8 
" style="fill:none;stroke:#ffffff;stroke-linecap:round;"/>
     </g>
     <g id="line2d_32"/>
     <g id="line2d_33"/>
     <g id="text_12">
      <!-- 285 -->
      <g style="fill:#262626;" transform="translate(48.3171875 121.3859375)scale(0.1 -0.1)">
       <use xlink:href="#LiberationSans-32"/>
       <use x="55.615234375" xlink:href="#LiberationSans-38"/>
       <use x="111.23046875" xlink:href="#LiberationSans-35"/>
      </g>
     </g>
    </g>
    <g id="ytick_8">
     <g id="line2d_34">
      <path clip-path="url(#pa08044c32f)" d="M 72 79.2 
L 518.4 79.2 
" style="fill:none;stroke:#ffffff;stroke-linecap:round;"/>
     </g>
     <g id="line2d_35"/>
     <g id="line2d_36"/>
     <g id="text_13">
      <!-- 290 -->
      <g style="fill:#262626;" transform="translate(48.3171875 81.7859375)scale(0.1 -0.1)">
       <use xlink:href="#LiberationSans-32"/>
       <use x="55.615234375" xlink:href="#LiberationSans-39"/>
       <use x="111.23046875" xlink:href="#LiberationSans-30"/>
      </g>
     </g>
    </g>
    <g id="ytick_9">
     <g id="line2d_37">
      <path clip-path="url(#pa08044c32f)" d="M 72 39.6 
L 518.4 39.6 
" style="fill:none;stroke:#ffffff;stroke-linecap:round;"/>
     </g>
     <g id="line2d_38"/>
     <g id="line2d_39"/>
     <g id="text_14">
      <!-- 295 -->
      <g style="fill:#262626;" transform="translate(48.3171875 42.1859375)scale(0.1 -0.1)">
       <use xlink:href="#LiberationSans-32"/>
       <use x="55.615234375" xlink:href="#LiberationSans-39"/>
       <use x="111.23046875" xlink:href="#LiberationSans-35"/>
      </g>
     </g>
    </g>
   </g>
   <g id="line2d_40">
    <path clip-path="url(#pa08044c32f)" d="M 72 292.831285 
L 72.223312 302.929909 
L 72.446623 310.057909 
L 72.893247 275.825516 
L 73.116558 299.959285 
L 73.563182 265.726893 
L 73.786493 290.160716 
L 74.009805 250.066277 
L 74.233117 239.967654 
L 74.456428 264.322277 
L 74.67974 222.961884 
L 74.903052 203.064692 
L 75.126363 197.202645 
L 75.349675 227.198461 
L 75.572986 210.192692 
L 75.796298 234.326461 
L 76.242921 214.429268 
L 76.466233 228.685268 
L 76.912856 201.580876 
L 77.136168 228.685268 
L 77.35948 232.921845 
L 77.582791 218.586645 
L 77.806103 228.685268 
L 78.029415 225.793845 
L 78.476038 290.104245 
L 78.69935 294.561676 
L 78.922661 261.513045 
L 79.369285 314.458868 
L 79.592596 307.330868 
L 79.815908 311.567445 
L 80.03922 278.739668 
L 80.485843 254.385045 
L 80.709155 268.641045 
L 80.932466 247.177845 
L 81.155778 258.763276 
L 81.37909 254.385045 
L 81.602401 271.611668 
L 81.825713 250.148468 
L 82.049025 253.039892 
L 82.272336 245.911892 
L 82.495648 262.917661 
L 82.718959 248.661661 
L 82.942271 221.557268 
L 83.388894 238.783892 
L 83.612206 262.917661 
L 84.058829 245.911892 
L 84.282141 231.655892 
L 84.505453 253.039892 
L 84.728764 243.020468 
L 85.398699 243.020468 
L 85.622011 253.039892 
L 85.845323 253.039892 
L 86.068634 264.404468 
L 86.291946 267.375092 
L 86.515258 274.503092 
L 86.738569 271.611668 
L 86.961881 251.635276 
L 87.185193 254.385045 
L 87.408504 271.611668 
L 87.631816 261.513045 
L 87.855128 285.867668 
L 88.301751 268.641045 
L 88.748374 251.635276 
L 89.418309 284.380861 
L 89.641621 298.636861 
L 89.864932 291.508861 
L 90.088244 277.252861 
L 90.311556 291.508861 
L 90.534867 262.917661 
L 90.758179 248.661661 
L 90.981491 277.252861 
L 91.204802 260.247092 
L 91.428114 260.247092 
L 91.651426 267.375092 
L 91.874737 254.385045 
L 92.098049 257.276468 
L 92.321361 257.276468 
L 92.544672 247.177845 
L 92.767984 247.177845 
L 92.991296 254.385045 
L 93.214607 254.385045 
L 93.437919 247.177845 
L 93.661231 247.177845 
L 93.884542 264.404468 
L 94.107854 247.177845 
L 94.554477 271.611668 
L 94.777789 271.611668 
L 95.001101 254.385045 
L 95.224412 254.385045 
L 95.447724 278.739668 
L 95.671036 247.177845 
L 96.117659 285.867668 
L 96.34097 268.641045 
L 96.564282 282.976245 
L 96.787594 261.513045 
L 97.010905 261.513045 
L 97.234217 271.611668 
L 97.457529 271.611668 
L 97.68084 264.404468 
L 97.904152 264.404468 
L 98.127464 268.641045 
L 98.350775 268.641045 
L 98.574087 251.635276 
L 98.797399 251.635276 
L 99.02071 258.763276 
L 99.244022 275.769045 
L 99.467334 250.148468 
L 99.913957 271.611668 
L 100.137269 271.611668 
L 100.36058 264.404468 
L 100.583892 264.404468 
L 100.807204 247.177845 
L 101.030515 271.611668 
L 101.253827 254.385045 
L 101.477139 251.635276 
L 101.70045 261.513045 
L 101.923762 254.385045 
L 102.147074 271.611668 
L 102.593697 254.385045 
L 102.817009 258.763276 
L 103.04032 258.763276 
L 103.263632 254.385045 
L 103.486943 261.513045 
L 103.710255 251.635276 
L 103.933567 232.921845 
L 104.156878 232.921845 
L 104.38019 240.049845 
L 104.603502 223.044076 
L 104.826813 254.385045 
L 105.050125 254.385045 
L 105.496748 275.769045 
L 105.72006 261.513045 
L 105.943372 275.769045 
L 106.166683 278.739668 
L 106.389995 271.611668 
L 106.613307 285.867668 
L 106.836618 285.867668 
L 107.05993 102.981612 
L 107.283242 122.958005 
L 107.506553 160.164012 
L 107.729865 148.799436 
L 107.953177 158.677205 
L 108.176488 163.134636 
L 108.3998 190.239028 
L 108.623112 147.312628 
L 108.846423 161.647828 
L 109.069735 161.647828 
L 109.293047 168.775828 
L 109.73967 147.312628 
L 110.186293 173.012405 
L 110.409605 168.775828 
L 110.632916 161.647828 
L 110.856228 190.239028 
L 111.07954 180.140405 
L 111.302851 194.396405 
L 111.526163 198.853836 
L 111.749475 228.849652 
L 112.196098 194.396405 
L 112.41941 218.830228 
L 112.642721 201.603605 
L 112.866033 218.830228 
L 113.089345 201.603605 
L 113.312656 215.859605 
L 113.535968 251.578805 
L 113.75928 227.445036 
L 113.982591 258.786005 
L 114.429215 220.317036 
L 114.652526 210.218412 
L 115.09915 233.086228 
L 115.322461 240.214228 
L 115.769085 225.958228 
L 115.992396 211.623028 
L 116.215708 208.731605 
L 116.43902 198.853836 
L 116.662331 198.853836 
L 116.885643 215.859605 
L 117.108954 222.987605 
L 117.332266 198.853836 
L 117.555578 208.731605 
L 117.778889 225.958228 
L 118.002201 225.958228 
L 118.225513 201.603605 
L 118.672136 201.603605 
L 118.895448 191.725836 
L 119.118759 191.725836 
L 119.565383 222.987605 
L 120.012006 198.853836 
L 120.235318 178.735789 
L 120.458629 203.090412 
L 120.681941 181.627212 
L 120.905253 191.725836 
L 121.128564 173.012405 
L 121.351876 183.031828 
L 121.798499 183.031828 
L 122.021811 190.239028 
L 122.245123 207.465652 
L 122.468434 173.012405 
L 122.691746 168.775828 
L 122.915058 158.677205 
L 123.138369 170.262636 
L 123.361681 156.006636 
L 123.808304 201.603605 
L 124.031616 177.390636 
L 124.254927 187.268405 
L 124.478239 187.268405 
L 124.701551 177.390636 
L 124.924862 177.390636 
L 125.148174 184.597836 
L 125.371486 170.262636 
L 125.594797 187.268405 
L 125.818109 170.262636 
L 126.041421 163.134636 
L 126.264732 180.140405 
L 126.488044 180.140405 
L 126.711356 173.012405 
L 126.934667 180.140405 
L 127.157979 163.134636 
L 127.381291 173.012405 
L 127.604602 190.239028 
L 127.827914 183.031828 
L 128.051226 180.140405 
L 128.274537 197.367028 
L 128.497849 201.603605 
L 128.721161 184.597836 
L 128.944472 191.725836 
L 129.167784 191.725836 
L 129.391096 167.371212 
L 129.614407 167.371212 
L 129.837719 170.262636 
L 130.061031 170.262636 
L 130.284342 174.499212 
L 130.507654 171.528589 
L 130.730965 171.528589 
L 131.177589 184.597836 
L 131.4009 167.371212 
L 131.624212 160.164012 
L 131.847524 184.597836 
L 132.070835 191.725836 
L 132.294147 184.597836 
L 132.517459 167.371212 
L 132.74077 180.140405 
L 132.964082 184.597836 
L 133.187394 201.603605 
L 133.634017 174.499212 
L 133.857329 171.528589 
L 134.08064 164.400589 
L 134.303952 164.400589 
L 134.527264 137.296196 
L 134.750575 154.52282 
L 134.973887 154.52282 
L 135.197199 147.39482 
L 135.42051 154.52282 
L 135.643822 168.85802 
L 136.537069 141.532773 
L 136.76038 165.887396 
L 136.983692 168.85802 
L 137.207004 117.399004 
L 137.653627 137.296196 
L 137.876938 137.296196 
L 138.10025 112.941573 
L 138.323562 120.069573 
L 138.770185 151.631396 
L 138.993497 141.532773 
L 139.216808 121.63558 
L 139.44012 114.42838 
L 139.663432 134.404773 
L 140.110055 87.403188 
L 140.333367 104.629811 
L 140.556678 104.629811 
L 140.77999 107.30038 
L 141.003302 114.42838 
L 141.226613 107.30038 
L 141.449925 121.63558 
L 141.673237 90.294611 
L 141.896548 124.527004 
L 142.11986 117.399004 
L 142.566483 137.296196 
L 142.789795 120.069573 
L 143.013107 130.168196 
L 143.236418 123.040196 
L 143.45973 121.553389 
L 143.683042 87.320996 
L 143.906353 101.576996 
L 144.129665 84.350373 
L 144.352976 84.350373 
L 144.7996 101.576996 
L 145.022911 104.54762 
L 145.246223 101.576996 
L 145.469535 91.478373 
L 145.692846 108.704996 
L 145.916158 91.478373 
L 146.13947 101.576996 
L 146.362781 101.576996 
L 147.032716 78.70918 
L 147.256028 110.271004 
L 147.47934 95.935804 
L 147.702651 103.063804 
L 147.925963 120.069573 
L 148.149275 103.063804 
L 148.372586 120.069573 
L 148.595898 112.941573 
L 148.81921 112.941573 
L 149.042521 120.069573 
L 149.265833 133.13882 
L 149.489145 118.80362 
L 149.712456 142.937389 
L 149.935768 142.937389 
L 150.15908 153.036012 
L 150.382391 118.80362 
L 150.605703 140.26682 
L 150.829015 140.26682 
L 151.052326 117.399004 
L 151.275638 124.527004 
L 151.498949 117.399004 
L 151.722261 127.276773 
L 151.945573 117.399004 
L 152.168884 134.404773 
L 152.392196 137.296196 
L 152.615508 120.069573 
L 153.062131 137.296196 
L 153.285443 158.759396 
L 153.508754 162.995973 
L 153.732066 148.660773 
L 153.955378 165.887396 
L 154.178689 134.404773 
L 154.402001 127.276773 
L 154.625313 134.404773 
L 154.848624 147.39482 
L 155.071936 137.296196 
L 155.295248 147.39482 
L 155.518559 130.168196 
L 155.741871 123.040196 
L 155.965183 108.704996 
L 156.188494 125.93162 
L 156.411806 115.912196 
L 156.858429 134.404773 
L 157.081741 117.399004 
L 157.305053 141.532773 
L 157.528364 251.740196 
L 157.751676 187.268405 
L 157.974987 168.775828 
L 158.198299 175.903828 
L 158.421611 147.312628 
L 158.868234 120.208236 
L 159.091546 135.809389 
L 159.314857 120.069573 
L 159.538169 118.747149 
L 159.761481 200.363372 
L 159.984792 213.214756 
L 160.208104 211.727949 
L 160.431416 187.514979 
L 160.654727 218.855949 
L 160.878039 206.086756 
L 161.101351 183.136749 
L 161.324662 200.363372 
L 161.771286 163.160356 
L 161.994597 194.722179 
L 162.217909 177.495556 
L 162.441221 180.386979 
L 162.664532 186.028172 
L 162.887844 168.801549 
L 163.111156 167.535595 
L 163.334467 150.308972 
L 163.557779 123.204579 
L 163.781091 125.954349 
L 164.004402 133.082349 
L 164.227714 124.609195 
L 164.451026 111.619149 
L 164.674337 150.308972 
L 164.897649 133.082349 
L 165.344272 147.338349 
L 165.567584 116.076579 
L 165.790895 137.539779 
L 166.014207 140.210349 
L 166.46083 120.313156 
L 166.684142 123.204579 
L 166.907454 130.332579 
L 167.354077 157.436972 
L 167.577389 161.673549 
L 167.8007 144.667779 
L 168.024012 161.673549 
L 168.247324 151.795779 
L 168.470635 131.677733 
L 168.693947 141.697156 
L 168.917259 127.441156 
L 169.14057 124.470533 
L 169.363882 127.441156 
L 169.587194 134.569156 
L 169.810505 147.338349 
L 170.033817 134.569156 
L 170.257129 151.795779 
L 170.48044 148.904356 
L 170.703752 158.923779 
L 170.927064 218.994611 
L 171.150375 206.004565 
L 171.373687 213.132565 
L 171.596998 206.004565 
L 171.82031 223.231188 
L 172.043622 216.023988 
L 172.266933 213.132565 
L 172.490245 230.359188 
L 172.713557 220.260565 
L 172.936868 227.388565 
L 173.383492 213.132565 
L 173.830115 233.250611 
L 174.053427 257.46358 
L 174.276738 236.00038 
L 174.50005 243.12838 
L 174.946673 280.331396 
L 175.169985 270.232773 
L 175.393297 253.227004 
L 175.83992 287.459396 
L 176.063232 267.483004 
L 176.286543 260.355004 
L 176.509855 260.355004 
L 176.733167 243.12838 
L 176.956478 267.483004 
L 177.17979 257.46358 
L 177.403102 257.46358 
L 177.626413 247.585811 
L 177.849725 243.12838 
L 178.296348 291.695973 
L 178.966283 250.25638 
L 179.189595 257.46358 
L 179.412906 270.232773 
L 179.636218 243.12838 
L 179.85953 253.227004 
L 180.082841 270.232773 
L 180.306153 253.227004 
L 180.529465 267.483004 
L 180.752776 271.71958 
L 180.976088 254.713811 
L 181.1994 271.71958 
L 181.422711 254.713811 
L 181.646023 281.818204 
L 181.869335 264.59158 
L 182.092646 269.049011 
L 182.53927 288.946204 
L 182.762581 264.59158 
L 182.985893 281.818204 
L 183.209205 274.690204 
L 183.432516 274.690204 
L 183.655828 277.360773 
L 183.87914 290.35082 
L 184.549075 226.04042 
L 184.772386 240.29642 
L 185.21901 240.29642 
L 185.665633 218.91242 
L 186.112256 235.918189 
L 186.558879 218.91242 
L 186.782191 256.036236 
L 187.005503 224.553612 
L 187.228814 173.012405 
L 187.452126 187.268405 
L 187.675438 151.549205 
L 187.898749 163.134636 
L 188.122061 156.006636 
L 188.345373 153.036012 
L 188.568684 142.937389 
L 189.015308 163.134636 
L 189.238619 163.134636 
L 189.461931 153.036012 
L 189.685243 153.036012 
L 189.908554 160.164012 
L 190.131866 145.908012 
L 190.578489 160.164012 
L 190.801801 193.130452 
L 191.025113 183.031828 
L 191.248424 188.673021 
L 191.695048 217.264221 
L 191.918359 213.106844 
L 192.141671 237.240613 
L 192.588294 251.496613 
L 192.811606 227.362844 
L 193.034917 244.368613 
L 193.258229 224.471421 
L 193.481541 214.593652 
L 193.704852 231.599421 
L 193.928164 214.593652 
L 194.151476 214.593652 
L 194.374787 207.465652 
L 194.598099 214.593652 
L 194.821411 204.495028 
L 195.044722 204.495028 
L 195.268034 197.367028 
L 195.491346 207.465652 
L 195.714657 197.367028 
L 195.937969 214.593652 
L 196.161281 221.721652 
L 196.384592 208.731605 
L 196.831216 225.958228 
L 197.054527 218.830228 
L 197.277839 218.830228 
L 197.501151 211.623028 
L 197.947774 228.849652 
L 198.171086 197.367028 
L 198.394397 211.623028 
L 198.617709 211.623028 
L 198.841021 228.849652 
L 199.064332 231.599421 
L 199.287644 214.593652 
L 199.510955 241.698044 
L 199.734267 238.727421 
L 199.957579 231.599421 
L 200.18089 245.855421 
L 200.404202 218.830228 
L 200.627514 228.849652 
L 200.850825 253.062621 
L 201.074137 245.855421 
L 201.297449 221.721652 
L 201.52076 238.727421 
L 201.744072 221.721652 
L 201.967384 236.056852 
L 202.190695 225.958228 
L 202.414007 228.849652 
L 202.637319 218.830228 
L 202.86063 230.194805 
L 203.083942 233.086228 
L 203.307254 233.086228 
L 203.530565 218.830228 
L 203.753877 214.593652 
L 203.977189 228.849652 
L 204.2005 224.471421 
L 204.423812 224.471421 
L 204.647124 244.368613 
L 204.870435 234.490844 
L 205.093747 258.703813 
L 205.317059 258.703813 
L 205.54037 305.926253 
L 205.763682 293.15706 
L 205.986993 313.054253 
L 206.210305 285.94986 
L 206.433617 293.15706 
L 206.656928 275.930437 
L 206.88024 310.162829 
L 207.103552 298.798253 
L 207.326863 308.817676 
L 207.550175 262.999853 
L 207.773487 287.354476 
L 207.996798 294.561676 
L 208.22011 341.563261 
L 208.443422 337.326684 
L 208.666733 320.100061 
L 208.890045 323.070684 
L 209.113357 332.869254 
L 209.336668 332.869254 
L 209.55998 340.076454 
L 209.783292 310.222292 
L 210.006603 303.094292 
L 210.229915 310.222292 
L 210.453227 303.094292 
L 210.676538 285.867668 
L 210.89985 303.094292 
L 211.123162 274.503092 
L 211.346473 260.247092 
L 211.569785 255.789661 
L 211.793097 255.789661 
L 212.463032 208.626684 
L 212.686343 225.632454 
L 213.132966 208.626684 
L 213.356278 225.632454 
L 213.57959 198.607261 
L 213.802901 225.632454 
L 214.026213 225.632454 
L 214.249525 215.833884 
L 214.472836 218.504454 
L 214.696148 232.839654 
L 214.91946 228.603077 
L 215.142771 218.504454 
L 215.589395 238.7017 
L 215.812706 218.504454 
L 216.036018 235.731077 
L 216.25933 221.475077 
L 216.482641 218.504454 
L 216.705953 208.626684 
L 217.152576 239.967654 
L 217.5992 222.961884 
L 218.269135 242.859077 
L 218.492446 242.859077 
L 218.715758 235.731077 
L 218.93907 242.859077 
L 219.162381 245.8297 
L 219.385693 258.598893 
L 219.609005 237.135693 
L 219.832316 237.135693 
L 220.278939 215.751693 
L 220.502251 225.771116 
L 220.725563 208.544493 
L 220.948874 212.781069 
L 221.172186 230.007693 
L 221.395498 210.1105 
L 221.618809 208.544493 
L 221.842121 208.544493 
L 222.065433 191.317869 
L 222.288744 188.6473 
L 222.512056 222.879693 
L 222.735368 212.781069 
L 222.958679 212.781069 
L 223.181991 237.135693 
L 223.405303 219.909069 
L 223.628614 230.007693 
L 223.851926 212.781069 
L 224.075238 222.879693 
L 224.298549 240.106316 
L 224.521861 222.879693 
L 224.745173 249.984085 
L 224.968484 249.984085 
L 225.191796 240.106316 
L 225.415108 264.240085 
L 225.638419 247.234316 
L 225.861731 264.240085 
L 226.085043 240.106316 
L 226.308354 267.210709 
L 226.531666 242.776885 
L 226.978289 260.003509 
L 227.201601 260.003509 
L 227.424912 228.520885 
L 227.648224 221.392885 
L 227.871536 261.487325 
L 228.318159 212.919732 
L 228.541471 222.797501 
L 228.764782 198.584532 
L 228.988094 217.156309 
L 229.211406 220.047732 
L 229.434717 214.185685 
L 229.658029 197.179916 
L 229.881341 211.515116 
L 230.104652 204.387116 
L 230.327964 228.520885 
L 230.551276 211.515116 
L 230.774587 207.057685 
L 230.997899 199.929685 
L 231.221211 171.338485 
L 231.444522 192.801685 
L 231.667834 197.179916 
L 232.114457 160.0561 
L 232.337769 164.292677 
L 232.561081 157.085477 
L 232.784392 139.858854 
L 233.231016 167.1841 
L 233.90095 152.9281 
L 234.124262 145.7209 
L 234.347574 160.0561 
L 234.794197 142.829477 
L 235.017509 145.7209 
L 235.24082 162.726669 
L 235.464132 152.9281 
L 235.687444 125.602854 
L 235.910755 128.494277 
L 236.134067 128.494277 
L 236.804002 142.829477 
L 237.027314 138.5929 
L 237.250625 131.4649 
L 237.473937 162.726669 
L 237.697249 158.569293 
L 237.92056 148.470669 
L 238.143872 124.3369 
L 238.367184 124.3369 
L 238.590495 121.366277 
L 239.037119 84.242461 
L 239.26043 101.469084 
L 239.483742 132.730854 
L 239.707054 131.547092 
L 240.153677 160.138292 
L 240.6003 160.138292 
L 240.823612 180.035484 
L 241.046923 170.016061 
L 241.493547 187.242684 
L 241.716858 177.144061 
L 241.94017 177.144061 
L 242.163482 142.911668 
L 242.386793 145.803092 
L 242.610105 158.651484 
L 242.833417 134.217661 
L 243.056728 151.444284 
L 243.28004 141.424861 
L 243.503352 141.424861 
L 243.726663 134.217661 
L 243.949975 151.444284 
L 244.173287 154.194054 
L 244.396598 164.292677 
L 244.61991 132.730854 
L 244.843222 147.066054 
L 245.066533 132.730854 
L 245.513157 149.957477 
L 245.736468 139.858854 
L 245.95978 147.066054 
L 246.183092 147.066054 
L 246.406403 132.730854 
L 246.853027 167.1841 
L 247.076338 145.7209 
L 247.29965 160.0561 
L 247.522961 142.829477 
L 247.746273 164.292677 
L 247.969585 139.858854 
L 248.416208 167.1841 
L 248.63952 167.1841 
L 248.862831 144.234093 
L 249.309455 137.106093 
L 249.532766 147.125516 
L 249.756078 139.997516 
L 249.97939 139.997516 
L 250.202701 178.466485 
L 250.426013 154.332716 
L 250.649325 161.460716 
L 250.872636 158.569293 
L 251.095948 151.362093 
L 251.31926 165.697293 
L 251.542571 165.697293 
L 251.765883 151.362093 
L 251.989195 151.362093 
L 252.212506 154.332716 
L 252.435818 141.342669 
L 252.65913 148.470669 
L 252.882441 141.342669 
L 253.329065 105.544269 
L 253.552376 139.997516 
L 253.998999 122.770893 
L 254.222311 119.879469 
L 254.445623 122.770893 
L 254.668934 119.879469 
L 254.892246 127.007469 
L 255.115558 141.342669 
L 255.338869 148.470669 
L 255.562181 131.4649 
L 255.785493 141.342669 
L 256.008804 131.4649 
L 256.232116 111.267654 
L 256.455428 118.474854 
L 256.678739 112.833661 
L 257.125363 118.474854 
L 257.348674 101.469084 
L 257.571986 135.701477 
L 257.795298 151.362093 
L 258.018609 110.0017 
L 258.241921 112.672269 
L 258.465233 127.007469 
L 258.688544 127.007469 
L 258.911856 115.642893 
L 259.135168 119.879469 
L 259.358479 119.879469 
L 259.581791 95.6665 
L 259.805103 112.672269 
L 260.251726 127.007469 
L 260.475038 112.672269 
L 260.698349 137.106093 
L 260.921661 129.898893 
L 261.144972 137.106093 
L 261.368284 129.898893 
L 261.814907 154.332716 
L 262.261531 125.741516 
L 262.484842 135.540085 
L 262.708154 132.869516 
L 262.931466 115.642893 
L 263.154777 144.234093 
L 263.378089 141.342669 
L 263.601401 134.135469 
L 263.824712 119.879469 
L 264.048024 127.007469 
L 264.271336 127.007469 
L 264.494647 139.997516 
L 264.717959 122.770893 
L 264.941271 122.770893 
L 265.164582 129.898893 
L 265.387894 149.875285 
L 265.611206 149.875285 
L 265.834517 131.382709 
L 266.281141 131.382709 
L 266.504452 124.175509 
L 266.727764 106.948885 
L 266.951076 117.047509 
L 267.174387 102.791509 
L 267.397699 106.948885 
L 267.621011 92.692885 
L 267.844322 99.820885 
L 268.067634 114.156085 
L 268.290945 97.150316 
L 268.514257 97.150316 
L 268.737569 117.047509 
L 268.96088 120.018132 
L 269.184192 120.018132 
L 269.407504 144.151901 
L 269.630815 112.810932 
L 269.854127 120.018132 
L 270.077439 109.919509 
L 270.30075 112.810932 
L 270.524062 120.018132 
L 270.970685 102.791509 
L 271.193997 117.047509 
L 271.417309 106.948885 
L 271.64062 106.948885 
L 271.863932 92.692885 
L 272.087244 85.564885 
L 272.310555 112.810932 
L 272.533867 117.047509 
L 272.757179 127.146132 
L 272.98049 114.156085 
L 273.427114 131.382709 
L 273.650425 131.382709 
L 273.873737 124.175509 
L 274.097049 131.382709 
L 274.32036 124.175509 
L 274.543672 131.382709 
L 274.766983 148.609332 
L 275.213607 121.284085 
L 275.66023 132.869516 
L 275.883542 115.642893 
L 276.106853 125.741516 
L 276.330165 108.514893 
L 276.553477 108.514893 
L 276.776788 118.534316 
L 277.0001 111.406316 
L 277.223412 111.406316 
L 277.446723 108.514893 
L 277.893347 142.747285 
L 278.116658 121.284085 
L 278.33997 114.156085 
L 278.563282 145.638709 
L 278.786593 109.919509 
L 279.009905 106.948885 
L 279.233217 117.047509 
L 279.456528 117.047509 
L 279.67984 109.919509 
L 279.903152 109.919509 
L 280.126463 92.692885 
L 280.349775 117.047509 
L 280.573087 102.791509 
L 280.796398 102.791509 
L 281.243022 79.923693 
L 281.689645 101.307693 
L 281.912956 104.278316 
L 282.136268 89.943116 
L 282.582891 97.150316 
L 282.806203 72.716493 
L 283.029515 99.820885 
L 283.252826 78.357685 
L 283.476138 88.456309 
L 283.922761 95.584309 
L 284.146073 95.584309 
L 284.369385 102.791509 
L 284.592696 102.791509 
L 284.816008 74.200309 
L 285.262631 121.201894 
L 285.485943 127.063941 
L 285.709255 119.856741 
L 285.932566 136.86251 
L 286.155878 165.53291 
L 286.37919 171.315756 
L 286.602501 161.296333 
L 286.825813 142.724556 
L 287.049125 142.724556 
L 287.272436 146.961133 
L 287.71906 105.600741 
L 287.942371 139.833133 
L 288.165683 109.837317 
L 288.388994 105.600741 
L 288.612306 105.600741 
L 288.835618 88.374117 
L 289.058929 95.502117 
L 289.282241 129.73451 
L 289.728864 101.14331 
L 289.952176 112.728741 
L 290.175488 109.837317 
L 290.398799 92.610694 
L 290.845423 116.965317 
L 291.068734 116.965317 
L 291.292046 102.630117 
L 291.515358 116.965317 
L 291.738669 116.965317 
L 291.961981 109.837317 
L 292.185293 127.063941 
L 292.408604 127.063941 
L 292.631916 109.837317 
L 292.855228 116.965317 
L 293.078539 116.965317 
L 293.301851 121.201894 
L 293.525163 121.201894 
L 293.971786 141.319941 
L 294.418409 121.201894 
L 294.641721 131.300517 
L 294.865033 92.610694 
L 295.088344 109.837317 
L 295.311656 92.610694 
L 295.534967 86.969501 
L 295.758279 69.963732 
L 295.981591 79.841501 
L 296.204902 79.841501 
L 296.428214 86.969501 
L 296.651526 121.201894 
L 296.874837 97.068125 
L 297.098149 104.196125 
L 297.321461 104.196125 
L 297.544772 82.732925 
L 297.768084 82.732925 
L 297.991396 102.630117 
L 298.214707 109.837317 
L 298.438019 99.738694 
L 298.661331 99.738694 
L 299.107954 122.60651 
L 299.331266 105.600741 
L 299.554577 129.73451 
L 299.777889 112.728741 
L 300.001201 134.191941 
L 300.224512 127.063941 
L 300.447824 106.866694 
L 300.671136 99.738694 
L 300.894447 124.093317 
L 301.564382 104.196125 
L 302.234317 128.329894 
L 302.457629 121.201894 
L 302.68094 131.300517 
L 302.904252 148.527141 
L 303.127564 131.300517 
L 303.350875 131.300517 
L 303.574187 114.073894 
L 303.797499 114.073894 
L 304.02081 131.300517 
L 304.244122 121.201894 
L 304.467434 138.428517 
L 304.690745 128.329894 
L 304.914057 111.324125 
L 305.137369 124.093317 
L 305.36068 128.329894 
L 305.583992 121.201894 
L 305.807304 128.329894 
L 306.030615 131.300517 
L 306.253927 151.19771 
L 306.477239 134.191941 
L 306.923862 151.19771 
L 307.147174 141.319941 
L 307.370485 158.32571 
L 307.593797 131.300517 
L 307.817109 131.300517 
L 308.04042 141.319941 
L 308.263732 168.424333 
L 308.487044 151.19771 
L 308.710355 158.32571 
L 308.933667 158.32571 
L 309.156978 148.527141 
L 309.38029 148.527141 
L 309.603602 134.191941 
L 309.826913 168.424333 
L 310.050225 158.32571 
L 310.273537 165.53291 
L 310.496848 151.19771 
L 310.72016 151.19771 
L 310.943472 168.424333 
L 311.166783 141.319941 
L 311.390095 138.428517 
L 311.613407 145.556517 
L 311.836718 138.428517 
L 312.06003 159.891717 
L 312.506653 145.556517 
L 312.729965 145.556517 
L 313.176588 120.018132 
L 313.3999 122.688701 
L 313.623212 144.151901 
L 313.846523 131.382709 
L 314.069835 134.274132 
L 314.516458 158.407901 
L 314.73977 175.634525 
L 314.963082 162.865332 
L 315.186393 186.999101 
L 315.409705 148.609332 
L 315.856328 172.743101 
L 316.07964 168.506525 
L 316.526263 182.841725 
L 316.749575 197.097725 
L 316.972886 182.841725 
L 317.196198 182.841725 
L 317.41951 185.512294 
L 317.866133 199.847494 
L 318.312756 182.841725 
L 318.536068 182.841725 
L 318.75938 197.097725 
L 318.982691 194.206301 
L 319.206003 194.206301 
L 319.429315 201.334301 
L 319.652626 202.821109 
L 319.875938 241.510932 
L 320.09925 229.925501 
L 320.322561 195.693109 
L 320.545873 195.693109 
L 320.992496 212.919732 
L 321.215808 205.791732 
L 321.43912 181.357909 
L 321.662431 212.919732 
L 321.885743 188.565109 
L 322.109055 188.565109 
L 322.332366 192.801685 
L 322.555678 210.028309 
L 322.778989 192.801685 
L 323.002301 195.693109 
L 323.225613 205.791732 
L 323.448924 205.791732 
L 323.672236 208.462301 
L 323.895548 191.456532 
L 324.342171 208.462301 
L 324.565483 201.334301 
L 324.788794 201.334301 
L 325.012106 215.590301 
L 325.235418 208.462301 
L 325.458729 205.791732 
L 325.682041 198.584532 
L 325.905353 222.797501 
L 326.128664 218.560925 
L 326.351976 179.871101 
L 327.021911 206.975494 
L 327.245223 179.871101 
L 327.468534 179.871101 
L 327.691846 194.206301 
L 327.915158 169.993332 
L 328.138469 186.999101 
L 328.361781 186.999101 
L 328.585093 179.871101 
L 328.808404 197.097725 
L 329.031716 189.969725 
L 329.255028 194.206301 
L 329.478339 186.999101 
L 329.701651 204.225725 
L 329.924962 186.999101 
L 330.148274 179.871101 
L 330.371586 189.969725 
L 330.594897 175.634525 
L 330.818209 175.634525 
L 331.041521 185.512294 
L 331.264832 219.965541 
L 331.488144 202.738917 
L 331.711456 205.709541 
L 332.158079 229.84331 
L 332.381391 227.093541 
L 332.604702 239.941933 
L 332.828014 232.734733 
L 333.051326 232.734733 
L 333.274637 222.71531 
L 333.497949 236.97131 
L 333.721261 222.71531 
L 333.944572 229.84331 
L 334.167884 229.84331 
L 334.391196 232.734733 
L 334.837819 211.350733 
L 335.061131 224.119926 
L 335.284442 228.577356 
L 335.507754 242.833356 
L 335.731066 245.583126 
L 336.177689 269.937749 
L 336.401001 241.346549 
L 336.624312 284.111557 
L 336.847624 269.855557 
L 337.070935 276.983557 
L 337.294247 252.849788 
L 337.517559 291.239557 
L 337.74087 289.75275 
L 337.964182 289.75275 
L 338.187494 294.210181 
L 338.410805 287.082181 
L 338.634117 287.082181 
L 338.857429 294.210181 
L 339.08074 276.983557 
L 339.304052 294.210181 
L 339.527364 296.88075 
L 339.750675 304.08795 
L 339.973987 301.338181 
L 340.197299 281.440988 
L 340.42061 295.696988 
L 340.643922 298.446757 
L 340.867234 281.440988 
L 341.090545 288.568988 
L 341.537169 284.111557 
L 341.76048 276.983557 
L 341.983792 279.874981 
L 342.207104 309.949997 
L 342.430415 319.748566 
L 342.653727 282.62475 
L 342.877039 278.388173 
L 343.323662 336.975189 
L 343.546973 326.955766 
L 343.770285 289.75275 
L 343.993597 287.082181 
L 344.216908 262.648357 
L 344.663532 276.983557 
L 344.886843 269.855557 
L 345.110155 269.855557 
L 345.333467 287.082181 
L 345.556778 262.648357 
L 345.78009 287.082181 
L 346.003402 255.520357 
L 346.450025 291.239557 
L 346.673337 282.706942 
L 346.896648 287.164372 
L 347.11996 255.602549 
L 347.343272 259.839126 
L 347.566583 217.074117 
L 347.789895 247.069933 
L 348.013207 229.84331 
L 348.236518 249.961356 
L 348.45983 259.839126 
L 348.683142 225.606733 
L 348.906453 259.839126 
L 349.129765 232.734733 
L 349.353077 287.164372 
L 349.7997 255.602549 
L 350.023012 248.474549 
L 350.246323 248.474549 
L 350.469635 228.577356 
L 350.692946 231.247926 
L 350.916258 224.119926 
L 351.13957 248.474549 
L 351.362881 234.218549 
L 351.586193 246.987742 
L 351.809505 249.879165 
L 352.032816 232.652542 
L 352.256128 242.751165 
L 352.47944 222.774772 
L 352.702751 232.652542 
L 352.926063 225.524542 
L 353.149375 202.656726 
L 353.372686 212.755349 
L 353.595998 198.420149 
L 353.81931 212.755349 
L 354.042621 182.759533 
L 354.265933 209.784726 
L 354.489245 202.656726 
L 354.712556 222.774772 
L 354.935868 212.755349 
L 355.15918 212.755349 
L 355.382491 209.784726 
L 355.605803 195.528726 
L 355.829115 212.755349 
L 356.052426 205.548149 
L 356.275738 174.065526 
L 356.49905 188.321526 
L 356.722361 188.321526 
L 356.945673 225.524542 
L 357.392296 208.518772 
L 357.615608 228.415965 
L 357.838919 198.420149 
L 358.062231 199.986156 
L 358.285543 214.242156 
L 358.508854 207.114156 
L 358.732166 207.114156 
L 358.955478 194.12411 
L 359.178789 189.887533 
L 359.402101 192.778956 
L 359.625413 199.986156 
L 359.848724 178.522956 
L 360.072036 175.552333 
L 360.295348 185.650956 
L 360.518659 178.522956 
L 360.741971 192.778956 
L 360.965283 181.193526 
L 361.188594 181.193526 
L 361.858529 158.464372 
L 362.081841 185.568765 
L 362.305153 171.233565 
L 362.528464 194.101381 
L 362.751776 186.973381 
L 362.975088 203.97915 
L 363.198399 161.05275 
L 363.421711 179.845381 
L 363.645023 186.973381 
L 363.868334 155.490757 
L 364.091646 184.081957 
L 364.538269 206.949773 
L 364.761581 178.279373 
L 365.208204 168.25995 
L 365.431516 188.377997 
L 365.654827 182.51595 
L 365.878139 209.841197 
L 366.101451 178.279373 
L 366.324762 189.72315 
L 366.548074 175.38795 
L 366.771386 172.717381 
L 366.994697 155.490757 
L 367.218009 148.283557 
L 367.441321 158.382181 
L 367.664632 151.254181 
L 367.887944 165.510181 
L 368.111256 144.046981 
L 368.334567 136.918981 
L 368.557879 153.92475 
L 368.781191 144.046981 
L 369.004502 144.046981 
L 369.227814 146.79675 
L 369.451126 132.46155 
L 369.674437 146.79675 
L 369.897749 132.46155 
L 370.344372 126.820357 
L 370.567684 134.027557 
L 370.790995 124.149788 
L 371.014307 131.277788 
L 371.237619 148.283557 
L 371.46093 148.283557 
L 371.684242 125.415742 
L 372.130865 137.001172 
L 372.354177 105.518549 
L 372.577489 132.622942 
L 372.8008 132.622942 
L 373.024112 118.287742 
L 373.247424 122.745172 
L 373.470735 108.409972 
L 373.694047 115.617172 
L 373.917359 138.484988 
L 374.14067 121.258365 
L 374.363982 135.514365 
L 374.587294 118.287742 
L 374.810605 128.386365 
L 375.033917 118.287742 
L 375.257229 128.386365 
L 375.48054 152.740988 
L 375.703852 159.868988 
L 375.927164 152.740988 
L 376.150475 128.386365 
L 376.373787 148.283557 
L 376.597099 148.283557 
L 376.82041 158.382181 
L 377.043722 134.027557 
L 377.267034 158.382181 
L 377.490345 144.046981 
L 377.713657 161.05275 
L 378.16028 136.918981 
L 378.383592 151.254181 
L 378.606903 136.918981 
L 378.830215 151.254181 
L 379.053527 134.027557 
L 379.276838 141.155557 
L 379.50015 131.277788 
L 379.723462 145.612988 
L 379.946773 138.484988 
L 380.170085 145.612988 
L 380.393397 148.283557 
L 380.616708 155.490757 
L 380.84002 138.484988 
L 381.063332 135.514365 
L 381.286643 145.612988 
L 381.509955 131.277788 
L 381.733267 155.490757 
L 381.956578 134.027557 
L 382.403202 134.027557 
L 382.849825 185.486573 
L 383.073137 195.505997 
L 383.296448 168.25995 
L 383.51976 185.486573 
L 383.743072 168.25995 
L 383.966383 171.151373 
L 384.189695 168.25995 
L 384.413007 171.151373 
L 384.636318 181.249997 
L 384.85963 153.92475 
L 385.082941 171.151373 
L 385.306253 151.254181 
L 385.752876 168.25995 
L 385.976188 164.023373 
L 386.1995 153.92475 
L 386.422811 156.895373 
L 386.646123 149.688173 
L 387.092746 181.249997 
L 387.316058 182.51595 
L 387.53937 181.332188 
L 387.762681 139.750942 
L 387.985993 187.055572 
L 388.209305 141.237749 
L 388.432616 165.592372 
L 388.655928 146.961133 
L 388.87924 152.602326 
L 389.102551 178.522956 
L 389.325863 178.522956 
L 389.549175 181.193526 
L 389.772486 201.390772 
L 389.995798 159.730326 
L 390.21911 194.183572 
L 390.442421 179.927572 
L 390.665733 211.189342 
L 390.889045 187.055572 
L 391.112356 191.292149 
L 391.335668 181.193526 
L 391.558979 176.956949 
L 391.782291 182.598142 
L 392.005603 179.927572 
L 392.228914 199.824765 
L 392.452226 194.183572 
L 392.675538 194.183572 
L 392.898849 191.292149 
L 393.345473 201.390772 
L 393.568784 191.292149 
L 394.015408 214.159965 
L 394.238719 214.159965 
L 394.462031 196.933342 
L 394.685343 221.287965 
L 394.908654 204.061342 
L 395.131966 214.159965 
L 395.355278 196.933342 
L 395.578589 189.805342 
L 395.801901 187.055572 
L 396.025213 189.805342 
L 396.248524 204.061342 
L 396.471836 179.927572 
L 396.695148 189.805342 
L 396.918459 187.055572 
L 397.141771 198.420149 
L 397.365083 204.061342 
L 397.588394 201.390772 
L 397.811706 196.933342 
L 398.258329 179.927572 
L 398.704952 196.933342 
L 398.928264 196.933342 
L 399.151576 191.292149 
L 399.374887 211.189342 
L 399.598199 211.189342 
L 399.821511 196.933342 
L 400.044822 224.258588 
L 400.268134 222.692581 
L 400.491446 215.564581 
L 400.714757 239.69835 
L 400.938069 232.57035 
L 401.161381 232.57035 
L 401.384692 229.899781 
L 401.608004 208.436581 
L 401.831316 205.465957 
L 402.054627 225.44235 
L 402.277939 225.44235 
L 402.501251 229.899781 
L 402.724562 211.10715 
L 402.947874 215.564581 
L 403.171186 208.436581 
L 403.394497 208.436581 
L 403.617809 225.44235 
L 403.841121 208.436581 
L 404.287744 232.57035 
L 404.511056 232.57035 
L 404.734367 229.899781 
L 404.957679 231.386588 
L 405.18099 228.415965 
L 405.404302 239.780542 
L 405.627614 235.623165 
L 405.850925 228.415965 
L 406.074237 252.849788 
L 406.297549 235.623165 
L 406.52086 235.623165 
L 406.744172 225.524542 
L 406.967484 237.109972 
L 407.190795 255.602549 
L 407.414107 261.243742 
L 407.86073 244.237972 
L 408.084042 261.243742 
L 408.307354 222.774772 
L 408.530665 254.115742 
L 408.753977 251.445172 
L 408.977289 237.109972 
L 409.2006 244.237972 
L 409.423912 244.237972 
L 409.647224 239.780542 
L 409.870535 229.981972 
L 410.093847 246.987742 
L 410.317159 254.115742 
L 410.54047 222.774772 
L 410.763782 264.214365 
L 411.210405 246.987742 
L 411.433717 267.105788 
L 411.657029 259.977788 
L 411.88034 267.105788 
L 412.103652 232.652542 
L 412.326963 235.623165 
L 412.773587 267.105788 
L 412.996898 249.879165 
L 413.22021 274.233788 
L 413.666833 239.780542 
L 414.113457 264.214365 
L 414.336768 246.987742 
L 414.56008 246.987742 
L 414.783392 229.981972 
L 415.006703 229.981972 
L 415.453327 257.007165 
L 415.89995 239.780542 
L 416.123262 232.652542 
L 416.346573 231.386588 
L 416.569885 238.514588 
L 416.793197 221.287965 
L 417.016508 224.258588 
L 417.23982 252.849788 
L 417.463132 235.623165 
L 417.686443 252.849788 
L 417.909755 235.623165 
L 418.356378 246.987742 
L 418.803002 235.623165 
L 419.249625 259.977788 
L 419.472936 238.514588 
L 419.696248 262.648357 
L 420.142871 248.392357 
L 420.366183 249.879165 
L 420.589495 284.111557 
L 420.812806 249.879165 
L 421.036118 267.105788 
L 421.482741 261.243742 
L 421.706053 268.450942 
L 421.929365 261.243742 
L 422.152676 246.987742 
L 422.375988 241.346549 
L 422.5993 244.237972 
L 422.822611 264.214365 
L 423.045923 254.115742 
L 423.269235 237.109972 
L 423.492546 237.109972 
L 423.93917 264.214365 
L 424.162481 261.243742 
L 424.385793 246.987742 
L 424.609105 257.007165 
L 425.055728 239.780542 
L 425.27904 271.342365 
L 425.502351 239.780542 
L 425.725663 257.007165 
L 425.948974 246.987742 
L 426.172286 229.981972 
L 426.395598 237.109972 
L 426.618909 261.243742 
L 426.842221 251.445172 
L 427.065533 234.218549 
L 427.288844 227.011349 
L 427.512156 234.218549 
L 427.735468 261.243742 
L 428.628714 229.981972 
L 429.075338 229.981972 
L 429.298649 225.524542 
L 429.521961 242.751165 
L 429.745273 228.415965 
L 430.191896 242.751165 
L 430.415208 242.751165 
L 430.638519 245.642588 
L 430.861831 252.849788 
L 431.308454 225.524542 
L 431.531766 218.396542 
L 431.755078 232.652542 
L 431.978389 225.524542 
L 432.201701 235.623165 
L 432.425013 228.415965 
L 432.648324 228.415965 
L 432.871636 239.780542 
L 433.094947 227.011349 
L 433.318259 237.109972 
L 433.541571 255.602549 
L 433.764882 258.573172 
L 433.988194 227.011349 
L 434.211506 232.652542 
L 434.434817 222.774772 
L 434.658129 254.115742 
L 434.881441 246.987742 
L 435.104752 229.981972 
L 435.328064 232.652542 
L 435.551376 232.652542 
L 435.774687 254.115742 
L 435.997999 246.987742 
L 436.221311 261.243742 
L 436.444622 237.109972 
L 436.667934 251.445172 
L 436.891246 254.115742 
L 437.114557 261.243742 
L 437.337869 257.007165 
L 437.561181 267.105788 
L 437.784492 249.879165 
L 438.231116 274.233788 
L 438.454427 267.105788 
L 438.677739 267.105788 
L 438.901051 231.386588 
L 439.124362 224.258588 
L 439.347674 237.027781 
L 439.570985 234.057157 
L 439.794297 224.258588 
L 440.017609 226.929157 
L 440.24092 222.692581 
L 440.464232 184.081957 
L 440.910855 198.337957 
L 441.134167 191.209957 
L 441.58079 154.006942 
L 441.804102 165.592372 
L 442.027414 158.464372 
L 442.250725 172.799572 
L 442.92066 145.474326 
L 443.143972 138.346326 
L 443.590595 138.346326 
L 443.813907 165.592372 
L 444.037219 141.237749 
L 444.26053 148.365749 
L 444.707154 168.342142 
L 444.930465 151.336372 
L 445.153777 148.365749 
L 445.377089 151.336372 
L 445.6004 137.001172 
L 445.823712 137.001172 
L 446.047024 146.878942 
L 446.270335 149.849565 
L 446.493647 164.105565 
L 446.94027 142.642365 
L 447.163582 152.740988 
L 447.610205 131.277788 
L 447.833517 162.618757 
L 448.056828 128.386365 
L 448.28014 145.612988 
L 448.503452 145.612988 
L 448.726763 152.740988 
L 448.950075 152.740988 
L 449.173387 159.868988 
L 449.396698 135.514365 
L 449.62001 159.868988 
L 449.843322 142.642365 
L 450.066633 145.612988 
L 450.289945 159.868988 
L 450.513257 135.514365 
L 450.736568 142.642365 
L 451.183192 167.076188 
L 451.629815 185.568765 
L 451.853127 185.568765 
L 452.076438 154.006942 
L 452.29975 168.342142 
L 452.523062 175.470142 
L 452.746373 178.440765 
L 452.969685 161.214142 
L 453.192996 171.233565 
L 453.416308 171.233565 
L 453.63962 164.105565 
L 453.862931 188.460188 
L 454.086243 167.076188 
L 454.309555 167.076188 
L 454.532866 171.233565 
L 454.756178 188.460188 
L 454.97949 174.204188 
L 455.202801 171.233565 
L 455.426113 161.214142 
L 455.649425 161.214142 
L 455.872736 171.233565 
L 456.31936 171.233565 
L 456.542671 164.105565 
L 456.765983 171.233565 
L 457.212606 171.233565 
L 457.435918 144.208372 
L 457.65923 151.336372 
L 457.882541 134.109749 
L 458.105853 144.208372 
L 458.329165 168.342142 
L 458.552476 144.208372 
L 458.775788 154.006942 
L 459.222411 146.878942 
L 459.445723 151.336372 
L 459.669035 144.208372 
L 459.892346 161.214142 
L 460.115658 154.006942 
L 460.338969 151.336372 
L 460.562281 144.208372 
L 460.785593 151.336372 
L 461.008904 151.336372 
L 461.232216 158.464372 
L 461.455528 134.109749 
L 461.678839 137.001172 
L 461.902151 146.878942 
L 462.125463 139.750942 
L 462.348774 149.849565 
L 462.572086 139.750942 
L 462.795398 139.750942 
L 463.018709 146.878942 
L 463.242021 146.878942 
L 463.465333 149.849565 
L 463.688644 164.105565 
L 463.911956 164.105565 
L 464.358579 146.878942 
L 464.581891 164.105565 
L 464.805203 164.105565 
L 465.028514 146.878942 
L 465.251826 151.336372 
L 465.475138 137.001172 
L 465.698449 154.006942 
L 465.921761 146.878942 
L 466.145073 149.849565 
L 466.368384 139.750942 
L 466.591696 146.878942 
L 467.038319 146.878942 
L 467.261631 139.750942 
L 467.708254 139.750942 
L 467.931566 122.745172 
L 468.154877 152.740988 
L 468.378189 152.740988 
L 468.601501 142.642365 
L 468.824812 145.612988 
L 469.048124 141.155557 
L 469.271436 141.155557 
L 469.494747 165.510181 
L 469.718059 155.490757 
L 469.941371 168.25995 
L 470.164682 161.05275 
L 470.387994 175.38795 
L 470.611306 155.490757 
L 471.057929 148.283557 
L 471.281241 175.38795 
L 471.504552 158.382181 
L 471.727864 175.38795 
L 471.951176 153.92475 
L 472.174487 175.38795 
L 472.397799 172.717381 
L 472.621111 168.25995 
L 472.844422 151.254181 
L 473.067734 182.51595 
L 473.291046 158.382181 
L 473.514357 158.382181 
L 473.96098 134.027557 
L 474.184292 151.254181 
L 474.630915 116.939597 
L 474.854227 158.299989 
L 475.077539 133.945366 
L 475.30085 126.738166 
L 475.524162 124.067597 
L 475.970785 143.964789 
L 476.194097 141.073366 
L 476.417409 116.939597 
L 476.64072 133.945366 
L 477.087344 106.840973 
L 477.310655 94.071781 
L 477.533967 106.840973 
L 477.757279 79.736581 
L 477.98059 106.840973 
L 478.203902 96.74235 
L 478.427214 99.712973 
L 478.650525 116.939597 
L 478.873837 89.61435 
L 479.32046 109.732397 
L 479.767084 92.505773 
L 479.990395 89.61435 
L 480.213707 106.840973 
L 481.106953 75.27915 
L 481.330265 113.968973 
L 481.553577 72.608581 
L 481.776888 89.61435 
L 482.0002 85.377773 
L 482.223512 78.249773 
L 482.446823 88.348397 
L 482.670135 71.121773 
L 482.893447 88.348397 
L 483.34007 61.02315 
L 483.563382 85.377773 
L 483.786693 74.013197 
L 484.010005 91.018966 
L 484.233317 83.890966 
L 484.456628 83.890966 
L 484.67994 115.373589 
L 484.903252 98.146966 
L 485.126563 95.476397 
L 485.349875 99.712973 
L 485.573187 109.732397 
L 485.796498 102.604397 
L 486.01981 106.840973 
L 486.466433 75.27915 
L 486.689745 85.377773 
L 486.913057 58.273381 
L 487.136368 79.736581 
L 487.35968 75.27915 
L 487.582991 82.48635 
L 487.806303 82.48635 
L 488.029615 92.505773 
L 488.252926 85.377773 
L 488.476238 68.15115 
L 488.69955 71.121773 
L 488.922861 102.604397 
L 489.146173 81.141197 
L 489.592796 61.02315 
L 489.816108 88.348397 
L 490.03942 88.348397 
L 490.486043 81.141197 
L 490.709355 88.348397 
L 490.932666 81.141197 
L 491.155978 108.245589 
L 491.602601 125.472213 
L 491.825913 115.373589 
L 492.049225 122.580789 
L 492.272536 115.373589 
L 492.495848 149.605982 
L 492.71916 118.344213 
L 492.942471 132.600213 
L 493.165783 129.708789 
L 493.389095 115.373589 
L 493.612406 112.482166 
L 494.05903 129.708789 
L 494.282341 129.708789 
L 494.505653 105.354166 
L 494.728964 125.472213 
L 494.952276 125.472213 
L 495.175588 115.373589 
L 495.398899 129.708789 
L 495.622211 119.610166 
L 495.845523 129.708789 
L 496.068834 119.610166 
L 496.292146 132.600213 
L 496.515458 125.472213 
L 496.738769 108.245589 
L 496.962081 155.468029 
L 497.185393 142.477982 
L 497.408704 169.803229 
L 497.632016 182.572421 
L 497.855328 202.548814 
L 498.301951 185.32219 
L 498.525263 178.11499 
L 498.748574 205.440237 
L 498.971886 195.341614 
L 499.195198 195.341614 
L 499.641821 175.444421 
L 499.865133 178.11499 
L 500.088444 185.32219 
L 500.311756 170.98699 
L 500.535068 185.32219 
L 500.758379 188.213614 
L 500.981691 195.341614 
L 501.205003 188.213614 
L 501.428314 205.440237 
L 501.651626 198.312237 
L 501.874937 178.11499 
L 502.544872 202.548814 
L 502.768184 178.11499 
L 502.991496 195.341614 
L 503.214807 198.312237 
L 503.438119 178.11499 
L 503.661431 188.213614 
L 503.884742 173.878414 
L 504.108054 191.105037 
L 504.331366 183.977037 
L 504.554677 166.750414 
L 504.777989 186.726806 
L 505.224612 166.750414 
L 505.447924 191.105037 
L 505.671236 183.977037 
L 505.894547 181.085614 
L 506.117859 205.440237 
L 506.341171 191.105037 
L 506.564482 183.977037 
L 506.787794 183.977037 
L 507.011106 191.105037 
L 507.234417 193.854806 
L 507.457729 169.721037 
L 507.681041 169.721037 
L 507.904352 179.519606 
L 508.127664 172.391606 
L 508.350975 179.519606 
L 508.574287 199.716853 
L 508.797599 192.588853 
L 509.02091 216.722622 
L 509.244222 206.844853 
L 509.690845 223.850622 
L 509.914157 209.594622 
L 510.137469 229.712669 
L 510.36078 229.712669 
L 510.584092 222.584669 
L 510.807404 242.481861 
L 511.030715 239.590438 
L 511.254027 256.817061 
L 511.477339 256.817061 
L 511.923962 273.822831 
L 512.370585 235.353861 
L 512.593897 262.458254 
L 512.817209 248.123054 
L 513.04052 255.330254 
L 513.263832 252.359631 
L 513.487144 245.231631 
L 513.710455 218.127238 
L 513.933767 235.353861 
L 514.157079 218.127238 
L 514.38039 218.127238 
L 514.603702 213.890661 
L 515.050325 260.971447 
L 515.273637 278.19807 
L 515.496948 263.86287 
L 515.72026 286.730686 
L 515.943572 283.760062 
L 516.166883 320.963078 
L 516.390195 333.732271 
L 516.613507 331.061702 
L 516.836818 292.371878 
L 517.06013 296.690647 
L 517.283442 293.940877 
L 517.506753 310.946647 
L 517.730065 305.305454 
L 517.953377 276.714254 
L 518.176688 280.950831 
L 518.4 263.945061 
L 518.4 263.945061 
" style="fill:none;stroke:#4c72b0;stroke-linecap:round;stroke-width:1.75;"/>
   </g>
   <g id="patch_3">
    <path d="M 72 356.4 
L 518.4 356.4 
" style="fill:none;"/>
   </g>
   <g id="patch_4">
    <path d="M 72 39.6 
L 518.4 39.6 
" style="fill:none;"/>
   </g>
   <g id="patch_5">
    <path d="M 72 356.4 
L 72 39.6 
" style="fill:none;"/>
   </g>
   <g id="patch_6">
    <path d="M 518.4 356.4 
L 518.4 39.6 
" style="fill:none;"/>
   </g>
   <g id="text_15">
    <!-- rb - 2.788562443668133 * i -->
    <defs>
     <path d="M 9.125 0 
L 9.125 10.6875 
L 18.65625 10.6875 
L 18.65625 0 
z
" id="LiberationSans-2e"/>
     <path d="M 22.265625 54.390625 
L 35.15625 59.421875 
L 37.359375 52.984375 
L 23.578125 49.421875 
L 32.625 37.203125 
L 26.8125 33.6875 
L 19.484375 46.296875 
L 11.859375 33.796875 
L 6.0625 37.3125 
L 15.28125 49.421875 
L 1.609375 52.984375 
L 3.8125 59.515625 
L 16.84375 54.296875 
L 16.265625 68.796875 
L 22.90625 68.796875 
z
" id="LiberationSans-2a"/>
     <path d="M 6.9375 0 
L 6.9375 40.53125 
Q 6.9375 42.1875 6.90625 43.921875 
Q 6.890625 45.65625 6.828125 47.265625 
Q 6.78125 48.875 6.734375 50.28125 
Q 6.6875 51.703125 6.640625 52.828125 
L 14.9375 52.828125 
Q 14.984375 51.703125 15.0625 50.265625 
Q 15.140625 48.828125 15.203125 47.3125 
Q 15.28125 45.796875 15.296875 44.40625 
Q 15.328125 43.015625 15.328125 42.046875 
L 15.53125 42.046875 
Q 16.453125 45.0625 17.5 47.28125 
Q 18.5625 49.515625 19.96875 50.953125 
Q 21.390625 52.390625 23.34375 53.09375 
Q 25.296875 53.8125 28.078125 53.8125 
Q 29.15625 53.8125 30.125 53.640625 
Q 31.109375 53.46875 31.640625 53.328125 
L 31.640625 45.265625 
Q 30.765625 45.515625 29.59375 45.625 
Q 28.421875 45.75 26.953125 45.75 
Q 23.921875 45.75 21.796875 44.375 
Q 19.671875 43.015625 18.328125 40.59375 
Q 17 38.1875 16.359375 34.84375 
Q 15.71875 31.5 15.71875 27.546875 
L 15.71875 0 
z
" id="LiberationSans-72"/>
     <path d="M 51.421875 26.65625 
Q 51.421875 -0.984375 31.984375 -0.984375 
Q 25.984375 -0.984375 22 1.1875 
Q 18.015625 3.375 15.53125 8.203125 
L 15.4375 8.203125 
Q 15.4375 6.9375 15.359375 5.5625 
Q 15.28125 4.203125 15.203125 3.03125 
Q 15.140625 1.859375 15.0625 1.03125 
Q 14.984375 0.203125 14.9375 0 
L 6.453125 0 
Q 6.5 0.4375 6.546875 1.484375 
Q 6.59375 2.546875 6.640625 4 
Q 6.6875 5.46875 6.703125 7.21875 
Q 6.734375 8.984375 6.734375 10.890625 
L 6.734375 72.46875 
L 15.53125 72.46875 
L 15.53125 51.8125 
Q 15.53125 50.34375 15.5 49 
Q 15.484375 47.65625 15.4375 46.625 
Q 15.375 45.40625 15.328125 44.34375 
L 15.53125 44.34375 
Q 17.96875 49.421875 22 51.609375 
Q 26.03125 53.8125 31.984375 53.8125 
Q 42 53.8125 46.703125 47.0625 
Q 51.421875 40.328125 51.421875 26.65625 
M 42.1875 26.375 
Q 42.1875 31.84375 41.5 35.75 
Q 40.828125 39.65625 39.3125 42.15625 
Q 37.796875 44.671875 35.453125 45.84375 
Q 33.109375 47.015625 29.734375 47.015625 
Q 26.265625 47.015625 23.609375 45.890625 
Q 20.953125 44.78125 19.171875 42.28125 
Q 17.390625 39.796875 16.453125 35.734375 
Q 15.53125 31.6875 15.53125 25.828125 
Q 15.53125 20.171875 16.453125 16.3125 
Q 17.390625 12.453125 19.171875 10.03125 
Q 20.953125 7.625 23.578125 6.5625 
Q 26.21875 5.515625 29.640625 5.515625 
Q 32.859375 5.515625 35.203125 6.640625 
Q 37.546875 7.765625 39.109375 10.25 
Q 40.671875 12.75 41.421875 16.71875 
Q 42.1875 20.703125 42.1875 26.375 
" id="LiberationSans-62"/>
    </defs>
    <g style="fill:#262626;" transform="translate(222.48 34.6)scale(0.12 -0.12)">
     <use xlink:href="#LiberationSans-72"/>
     <use x="33.30078125" xlink:href="#LiberationSans-62"/>
     <use x="88.916015625" xlink:href="#LiberationSans-20"/>
     <use x="116.69921875" xlink:href="#LiberationSans-2d"/>
     <use x="150.0" xlink:href="#LiberationSans-20"/>
     <use x="177.783203125" xlink:href="#LiberationSans-32"/>
     <use x="233.3984375" xlink:href="#LiberationSans-2e"/>
     <use x="261.181640625" xlink:href="#LiberationSans-37"/>
     <use x="316.796875" xlink:href="#LiberationSans-38"/>
     <use x="372.412109375" xlink:href="#LiberationSans-38"/>
     <use x="428.02734375" xlink:href="#LiberationSans-35"/>
     <use x="483.642578125" xlink:href="#LiberationSans-36"/>
     <use x="539.2578125" xlink:href="#LiberationSans-32"/>
     <use x="594.873046875" xlink:href="#LiberationSans-34"/>
     <use x="650.48828125" xlink:href="#LiberationSans-34"/>
     <use x="706.103515625" xlink:href="#LiberationSans-33"/>
     <use x="761.71875" xlink:href="#LiberationSans-36"/>
     <use x="817.333984375" xlink:href="#LiberationSans-36"/>
     <use x="872.94921875" xlink:href="#LiberationSans-38"/>
     <use x="928.564453125" xlink:href="#LiberationSans-31"/>
     <use x="984.1796875" xlink:href="#LiberationSans-33"/>
     <use x="1039.794921875" xlink:href="#LiberationSans-33"/>
     <use x="1095.41015625" xlink:href="#LiberationSans-20"/>
     <use x="1123.193359375" xlink:href="#LiberationSans-2a"/>
     <use x="1162.109375" xlink:href="#LiberationSans-20"/>
     <use x="1189.892578125" xlink:href="#LiberationSans-69"/>
    </g>
   </g>
  </g>
 </g>
 <defs>
  <clipPath id="pa08044c32f">
   <rect height="316.8" width="446.4" x="72.0" y="39.6"/>
  </clipPath>
 </defs>
</svg>
