<?xml version="1.0" encoding="utf-8" standalone="no"?>
<!DOCTYPE svg PUBLIC "-//W3C//DTD SVG 1.1//EN"
  "http://www.w3.org/Graphics/SVG/1.1/DTD/svg11.dtd">
<!-- Created with matplotlib (http://matplotlib.org/) -->
<svg height="396pt" version="1.1" viewBox="0 0 576 396" width="576pt" xmlns="http://www.w3.org/2000/svg" xmlns:xlink="http://www.w3.org/1999/xlink">
 <defs>
  <style type="text/css">
*{stroke-linecap:butt;stroke-linejoin:round;stroke-miterlimit:100000;}
  </style>
 </defs>
 <g id="figure_1">
  <g id="patch_1">
   <path d="M 0 396 
L 576 396 
L 576 0 
L 0 0 
z
" style="fill:#ffffff;"/>
  </g>
  <g id="axes_1">
   <g id="patch_2">
    <path d="M 72 356.4 
L 518.4 356.4 
L 518.4 39.6 
L 72 39.6 
z
" style="fill:#eaeaf2;"/>
   </g>
   <g id="matplotlib.axis_1">
    <g id="xtick_1">
     <g id="line2d_1">
      <path clip-path="url(#p1e74710515)" d="M 72 356.4 
L 72 39.6 
" style="fill:none;stroke:#ffffff;stroke-linecap:round;"/>
     </g>
     <g id="line2d_2"/>
     <g id="line2d_3"/>
     <g id="text_1">
      <!-- 2016-09-29 22:45:00 -->
      <defs>
       <path d="M 5.03125 0 
L 5.03125 6.203125 
Q 7.515625 11.921875 11.109375 16.28125 
Q 14.703125 20.65625 18.65625 24.1875 
Q 22.609375 27.734375 26.484375 30.765625 
Q 30.375 33.796875 33.5 36.8125 
Q 36.625 39.84375 38.546875 43.15625 
Q 40.484375 46.484375 40.484375 50.6875 
Q 40.484375 53.609375 39.59375 55.828125 
Q 38.71875 58.0625 37.0625 59.5625 
Q 35.40625 61.078125 33.078125 61.828125 
Q 30.765625 62.59375 27.9375 62.59375 
Q 25.296875 62.59375 22.96875 61.859375 
Q 20.65625 61.140625 18.84375 59.671875 
Q 17.046875 58.203125 15.890625 56.03125 
Q 14.75 53.859375 14.40625 50.984375 
L 5.421875 51.8125 
Q 5.859375 55.515625 7.46875 58.78125 
Q 9.078125 62.0625 11.90625 64.53125 
Q 14.75 67 18.71875 68.40625 
Q 22.703125 69.828125 27.9375 69.828125 
Q 33.0625 69.828125 37.0625 68.609375 
Q 41.0625 67.390625 43.8125 64.984375 
Q 46.578125 62.59375 48.046875 59.078125 
Q 49.515625 55.5625 49.515625 50.984375 
Q 49.515625 47.515625 48.265625 44.390625 
Q 47.015625 41.265625 44.9375 38.421875 
Q 42.875 35.59375 40.140625 32.953125 
Q 37.40625 30.328125 34.421875 27.8125 
Q 31.453125 25.296875 28.421875 22.828125 
Q 25.390625 20.359375 22.71875 17.859375 
Q 20.0625 15.375 17.96875 12.8125 
Q 15.875 10.25 14.703125 7.46875 
L 50.59375 7.46875 
L 50.59375 0 
z
" id="LiberationSans-32"/>
       <path d="M 7.625 0 
L 7.625 7.46875 
L 25.140625 7.46875 
L 25.140625 60.40625 
L 9.625 49.3125 
L 9.625 57.625 
L 25.875 68.796875 
L 33.984375 68.796875 
L 33.984375 7.46875 
L 50.734375 7.46875 
L 50.734375 0 
z
" id="LiberationSans-31"/>
       <path d="M 51.421875 22.40625 
Q 51.421875 17.234375 49.859375 12.9375 
Q 48.296875 8.640625 45.21875 5.53125 
Q 42.140625 2.4375 37.578125 0.71875 
Q 33.015625 -0.984375 27 -0.984375 
Q 21.578125 -0.984375 17.546875 0.28125 
Q 13.53125 1.5625 10.734375 3.78125 
Q 7.953125 6 6.3125 8.984375 
Q 4.6875 11.96875 4 15.375 
L 12.890625 16.40625 
Q 13.421875 14.453125 14.390625 12.625 
Q 15.375 10.796875 17.0625 9.34375 
Q 18.75 7.90625 21.21875 7.046875 
Q 23.6875 6.203125 27.203125 6.203125 
Q 30.609375 6.203125 33.390625 7.25 
Q 36.1875 8.296875 38.15625 10.34375 
Q 40.140625 12.40625 41.203125 15.375 
Q 42.28125 18.359375 42.28125 22.21875 
Q 42.28125 25.390625 41.25 28.046875 
Q 40.234375 30.71875 38.328125 32.640625 
Q 36.421875 34.578125 33.65625 35.640625 
Q 30.90625 36.71875 27.390625 36.71875 
Q 25.203125 36.71875 23.34375 36.328125 
Q 21.484375 35.9375 19.890625 35.25 
Q 18.3125 34.578125 17.015625 33.671875 
Q 15.71875 32.765625 14.59375 31.78125 
L 6 31.78125 
L 8.296875 68.796875 
L 47.40625 68.796875 
L 47.40625 61.328125 
L 16.3125 61.328125 
L 14.984375 39.5 
Q 17.328125 41.3125 20.84375 42.59375 
Q 24.359375 43.890625 29.203125 43.890625 
Q 34.328125 43.890625 38.421875 42.328125 
Q 42.53125 40.765625 45.40625 37.90625 
Q 48.296875 35.0625 49.859375 31.109375 
Q 51.421875 27.15625 51.421875 22.40625 
" id="LiberationSans-35"/>
       <path d="M 51.703125 34.421875 
Q 51.703125 24.515625 49.828125 17.75 
Q 47.953125 10.984375 44.703125 6.8125 
Q 41.453125 2.640625 37.0625 0.828125 
Q 32.671875 -0.984375 27.6875 -0.984375 
Q 22.65625 -0.984375 18.3125 0.828125 
Q 13.96875 2.640625 10.765625 6.78125 
Q 7.5625 10.9375 5.734375 17.703125 
Q 3.90625 24.46875 3.90625 34.421875 
Q 3.90625 44.828125 5.734375 51.640625 
Q 7.5625 58.453125 10.78125 62.5 
Q 14.015625 66.546875 18.40625 68.1875 
Q 22.796875 69.828125 27.984375 69.828125 
Q 32.90625 69.828125 37.21875 68.1875 
Q 41.546875 66.546875 44.765625 62.5 
Q 48 58.453125 49.84375 51.640625 
Q 51.703125 44.828125 51.703125 34.421875 
M 42.78125 34.421875 
Q 42.78125 42.625 41.796875 48.0625 
Q 40.828125 53.515625 38.921875 56.765625 
Q 37.015625 60.015625 34.25 61.359375 
Q 31.5 62.703125 27.984375 62.703125 
Q 24.265625 62.703125 21.4375 61.328125 
Q 18.609375 59.96875 16.671875 56.71875 
Q 14.75 53.46875 13.765625 48.015625 
Q 12.796875 42.578125 12.796875 34.421875 
Q 12.796875 26.515625 13.796875 21.09375 
Q 14.796875 15.671875 16.71875 12.375 
Q 18.65625 9.078125 21.4375 7.640625 
Q 24.21875 6.203125 27.78125 6.203125 
Q 31.25 6.203125 34.03125 7.640625 
Q 36.8125 9.078125 38.734375 12.375 
Q 40.671875 15.671875 41.71875 21.09375 
Q 42.78125 26.515625 42.78125 34.421875 
" id="LiberationSans-30"/>
       <path d="M 50.875 35.796875 
Q 50.875 26.609375 49.140625 19.703125 
Q 47.40625 12.796875 44.1875 8.203125 
Q 40.96875 3.609375 36.34375 1.3125 
Q 31.734375 -0.984375 25.984375 -0.984375 
Q 22.015625 -0.984375 18.84375 -0.171875 
Q 15.671875 0.640625 13.171875 2.34375 
Q 10.6875 4.046875 8.921875 6.78125 
Q 7.171875 9.515625 6.109375 13.375 
L 14.5 14.703125 
Q 15.875 10.25 18.78125 8.171875 
Q 21.6875 6.109375 26.125 6.109375 
Q 29.6875 6.109375 32.640625 7.78125 
Q 35.59375 9.46875 37.671875 12.84375 
Q 39.75 16.21875 40.921875 21.296875 
Q 42.09375 26.375 42.1875 33.203125 
Q 41.15625 30.90625 39.375 29.09375 
Q 37.59375 27.296875 35.328125 26.046875 
Q 33.0625 24.8125 30.421875 24.140625 
Q 27.78125 23.484375 25.09375 23.484375 
Q 20.40625 23.484375 16.625 25.171875 
Q 12.84375 26.859375 10.203125 29.875 
Q 7.5625 32.90625 6.125 37.171875 
Q 4.6875 41.453125 4.6875 46.6875 
Q 4.6875 52 6.21875 56.296875 
Q 7.765625 60.59375 10.6875 63.59375 
Q 13.625 66.609375 17.890625 68.21875 
Q 22.171875 69.828125 27.59375 69.828125 
Q 39.0625 69.828125 44.96875 61.328125 
Q 50.875 52.828125 50.875 35.796875 
M 41.3125 44.28125 
Q 41.3125 48.09375 40.40625 51.453125 
Q 39.5 54.828125 37.71875 57.3125 
Q 35.9375 59.8125 33.328125 61.25 
Q 30.71875 62.703125 27.296875 62.703125 
Q 24.125 62.703125 21.578125 61.578125 
Q 19.046875 60.453125 17.28125 58.375 
Q 15.53125 56.296875 14.578125 53.3125 
Q 13.625 50.34375 13.625 46.6875 
Q 13.625 43.21875 14.46875 40.234375 
Q 15.328125 37.25 17.03125 35.078125 
Q 18.75 32.90625 21.28125 31.65625 
Q 23.828125 30.421875 27.203125 30.421875 
Q 29.640625 30.421875 32.15625 31.25 
Q 34.671875 32.078125 36.6875 33.78125 
Q 38.71875 35.5 40.015625 38.109375 
Q 41.3125 40.71875 41.3125 44.28125 
" id="LiberationSans-39"/>
       <path d="M 9.125 42.71875 
L 9.125 52.828125 
L 18.65625 52.828125 
L 18.65625 42.71875 
z
M 9.125 0 
L 9.125 10.109375 
L 18.65625 10.109375 
L 18.65625 0 
z
" id="LiberationSans-3a"/>
       <path d="M 43.015625 15.578125 
L 43.015625 0 
L 34.71875 0 
L 34.71875 15.578125 
L 2.296875 15.578125 
L 2.296875 22.40625 
L 33.796875 68.796875 
L 43.015625 68.796875 
L 43.015625 22.515625 
L 52.6875 22.515625 
L 52.6875 15.578125 
z
M 34.71875 58.890625 
Q 34.625 58.640625 34.234375 57.9375 
Q 33.84375 57.234375 33.34375 56.34375 
Q 32.859375 55.46875 32.34375 54.5625 
Q 31.84375 53.65625 31.453125 53.078125 
L 13.8125 27.09375 
Q 13.578125 26.703125 13.109375 26.0625 
Q 12.640625 25.4375 12.15625 24.78125 
Q 11.671875 24.125 11.171875 23.484375 
Q 10.6875 22.859375 10.40625 22.515625 
L 34.71875 22.515625 
z
" id="LiberationSans-34"/>
       <path id="LiberationSans-20"/>
       <path d="M 4.4375 22.65625 
L 4.4375 30.46875 
L 28.859375 30.46875 
L 28.859375 22.65625 
z
" id="LiberationSans-2d"/>
       <path d="M 51.21875 22.515625 
Q 51.21875 17.328125 49.78125 13 
Q 48.34375 8.6875 45.53125 5.578125 
Q 42.71875 2.484375 38.5625 0.75 
Q 34.421875 -0.984375 29 -0.984375 
Q 23 -0.984375 18.5 1.3125 
Q 14.015625 3.609375 11.03125 7.921875 
Q 8.0625 12.25 6.5625 18.53125 
Q 5.078125 24.8125 5.078125 32.8125 
Q 5.078125 42 6.765625 48.921875 
Q 8.453125 55.859375 11.625 60.5 
Q 14.796875 65.140625 19.359375 67.484375 
Q 23.921875 69.828125 29.6875 69.828125 
Q 33.203125 69.828125 36.28125 69.09375 
Q 39.359375 68.359375 41.875 66.71875 
Q 44.390625 65.09375 46.28125 62.40625 
Q 48.1875 59.71875 49.3125 55.8125 
L 40.921875 54.296875 
Q 39.546875 58.734375 36.546875 60.71875 
Q 33.546875 62.703125 29.59375 62.703125 
Q 25.984375 62.703125 23.046875 60.984375 
Q 20.125 59.28125 18.0625 55.875 
Q 16.015625 52.484375 14.90625 47.359375 
Q 13.8125 42.234375 13.8125 35.40625 
Q 16.21875 39.84375 20.5625 42.15625 
Q 24.90625 44.484375 30.515625 44.484375 
Q 35.203125 44.484375 39.015625 42.96875 
Q 42.828125 41.453125 45.53125 38.59375 
Q 48.25 35.75 49.734375 31.671875 
Q 51.21875 27.59375 51.21875 22.515625 
M 42.28125 22.125 
Q 42.28125 25.6875 41.40625 28.5625 
Q 40.53125 31.453125 38.765625 33.46875 
Q 37.015625 35.5 34.421875 36.59375 
Q 31.84375 37.703125 28.421875 37.703125 
Q 26.03125 37.703125 23.578125 36.984375 
Q 21.140625 36.28125 19.15625 34.6875 
Q 17.1875 33.109375 15.9375 30.515625 
Q 14.703125 27.9375 14.703125 24.21875 
Q 14.703125 20.40625 15.671875 17.109375 
Q 16.65625 13.8125 18.484375 11.375 
Q 20.3125 8.9375 22.890625 7.515625 
Q 25.484375 6.109375 28.71875 6.109375 
Q 31.890625 6.109375 34.40625 7.203125 
Q 36.921875 8.296875 38.671875 10.375 
Q 40.4375 12.453125 41.359375 15.421875 
Q 42.28125 18.40625 42.28125 22.125 
" id="LiberationSans-36"/>
      </defs>
      <g style="fill:#262626;" transform="translate(25.5765625 370.646875)scale(0.1 -0.1)">
       <use xlink:href="#LiberationSans-32"/>
       <use x="55.615234375" xlink:href="#LiberationSans-30"/>
       <use x="111.23046875" xlink:href="#LiberationSans-31"/>
       <use x="166.845703125" xlink:href="#LiberationSans-36"/>
       <use x="222.4609375" xlink:href="#LiberationSans-2d"/>
       <use x="255.76171875" xlink:href="#LiberationSans-30"/>
       <use x="311.376953125" xlink:href="#LiberationSans-39"/>
       <use x="366.9921875" xlink:href="#LiberationSans-2d"/>
       <use x="400.29296875" xlink:href="#LiberationSans-32"/>
       <use x="455.908203125" xlink:href="#LiberationSans-39"/>
       <use x="511.5234375" xlink:href="#LiberationSans-20"/>
       <use x="539.306640625" xlink:href="#LiberationSans-32"/>
       <use x="594.921875" xlink:href="#LiberationSans-32"/>
       <use x="650.537109375" xlink:href="#LiberationSans-3a"/>
       <use x="678.3203125" xlink:href="#LiberationSans-34"/>
       <use x="733.935546875" xlink:href="#LiberationSans-35"/>
       <use x="789.55078125" xlink:href="#LiberationSans-3a"/>
       <use x="817.333984375" xlink:href="#LiberationSans-30"/>
       <use x="872.94921875" xlink:href="#LiberationSans-30"/>
      </g>
     </g>
    </g>
    <g id="xtick_2">
     <g id="line2d_4">
      <path clip-path="url(#p1e74710515)" d="M 183.655828 356.4 
L 183.655828 39.6 
" style="fill:none;stroke:#ffffff;stroke-linecap:round;"/>
     </g>
     <g id="line2d_5"/>
     <g id="line2d_6"/>
     <g id="text_2">
      <!-- 2016-10-10 21:03:00 -->
      <defs>
       <path d="M 51.21875 19 
Q 51.21875 14.265625 49.671875 10.546875 
Q 48.140625 6.84375 45.1875 4.265625 
Q 42.234375 1.703125 37.859375 0.359375 
Q 33.5 -0.984375 27.875 -0.984375 
Q 21.484375 -0.984375 17.109375 0.609375 
Q 12.75 2.203125 9.90625 4.8125 
Q 7.078125 7.421875 5.65625 10.765625 
Q 4.25 14.109375 3.8125 17.671875 
L 12.890625 18.5 
Q 13.28125 15.765625 14.328125 13.515625 
Q 15.375 11.28125 17.1875 9.671875 
Q 19 8.0625 21.625 7.171875 
Q 24.265625 6.296875 27.875 6.296875 
Q 34.515625 6.296875 38.296875 9.5625 
Q 42.09375 12.84375 42.09375 19.28125 
Q 42.09375 23.09375 40.40625 25.40625 
Q 38.71875 27.734375 36.203125 29.03125 
Q 33.6875 30.328125 30.734375 30.765625 
Q 27.78125 31.203125 25.296875 31.203125 
L 20.3125 31.203125 
L 20.3125 38.8125 
L 25.09375 38.8125 
Q 27.59375 38.8125 30.265625 39.328125 
Q 32.953125 39.84375 35.171875 41.1875 
Q 37.40625 42.53125 38.84375 44.828125 
Q 40.28125 47.125 40.28125 50.6875 
Q 40.28125 56.203125 37.03125 59.390625 
Q 33.796875 62.59375 27.390625 62.59375 
Q 21.578125 62.59375 17.984375 59.609375 
Q 14.40625 56.640625 13.8125 51.21875 
L 4.984375 51.90625 
Q 5.515625 56.453125 7.46875 59.8125 
Q 9.421875 63.1875 12.421875 65.40625 
Q 15.4375 67.625 19.28125 68.71875 
Q 23.140625 69.828125 27.484375 69.828125 
Q 33.25 69.828125 37.390625 68.375 
Q 41.546875 66.9375 44.1875 64.46875 
Q 46.828125 62.015625 48.0625 58.6875 
Q 49.3125 55.375 49.3125 51.609375 
Q 49.3125 48.578125 48.484375 45.9375 
Q 47.65625 43.3125 45.890625 41.203125 
Q 44.140625 39.109375 41.421875 37.59375 
Q 38.71875 36.078125 34.90625 35.296875 
L 34.90625 35.109375 
Q 39.0625 34.671875 42.140625 33.21875 
Q 45.21875 31.78125 47.21875 29.625 
Q 49.21875 27.484375 50.21875 24.75 
Q 51.21875 22.015625 51.21875 19 
" id="LiberationSans-33"/>
      </defs>
      <g style="fill:#262626;" transform="translate(137.232390414 370.646875)scale(0.1 -0.1)">
       <use xlink:href="#LiberationSans-32"/>
       <use x="55.615234375" xlink:href="#LiberationSans-30"/>
       <use x="111.23046875" xlink:href="#LiberationSans-31"/>
       <use x="166.845703125" xlink:href="#LiberationSans-36"/>
       <use x="222.4609375" xlink:href="#LiberationSans-2d"/>
       <use x="255.76171875" xlink:href="#LiberationSans-31"/>
       <use x="311.376953125" xlink:href="#LiberationSans-30"/>
       <use x="366.9921875" xlink:href="#LiberationSans-2d"/>
       <use x="400.29296875" xlink:href="#LiberationSans-31"/>
       <use x="455.908203125" xlink:href="#LiberationSans-30"/>
       <use x="511.5234375" xlink:href="#LiberationSans-20"/>
       <use x="539.306640625" xlink:href="#LiberationSans-32"/>
       <use x="594.921875" xlink:href="#LiberationSans-31"/>
       <use x="650.537109375" xlink:href="#LiberationSans-3a"/>
       <use x="678.3203125" xlink:href="#LiberationSans-30"/>
       <use x="733.935546875" xlink:href="#LiberationSans-33"/>
       <use x="789.55078125" xlink:href="#LiberationSans-3a"/>
       <use x="817.333984375" xlink:href="#LiberationSans-30"/>
       <use x="872.94921875" xlink:href="#LiberationSans-30"/>
      </g>
     </g>
    </g>
    <g id="xtick_3">
     <g id="line2d_7">
      <path clip-path="url(#p1e74710515)" d="M 295.311656 356.4 
L 295.311656 39.6 
" style="fill:none;stroke:#ffffff;stroke-linecap:round;"/>
     </g>
     <g id="line2d_8"/>
     <g id="line2d_9"/>
     <g id="text_3">
      <!-- 2016-10-11 23:07:00 -->
      <defs>
       <path d="M 50.59375 61.671875 
Q 45.40625 53.765625 41.0625 46.453125 
Q 36.71875 39.15625 33.59375 31.75 
Q 30.46875 24.359375 28.734375 16.578125 
Q 27 8.796875 27 0 
L 17.828125 0 
Q 17.828125 8.25 19.78125 16.1875 
Q 21.734375 24.125 25.046875 31.765625 
Q 28.375 39.40625 32.765625 46.78125 
Q 37.15625 54.15625 42.09375 61.328125 
L 5.125 61.328125 
L 5.125 68.796875 
L 50.59375 68.796875 
z
" id="LiberationSans-37"/>
      </defs>
      <g style="fill:#262626;" transform="translate(248.888218328 370.646875)scale(0.1 -0.1)">
       <use xlink:href="#LiberationSans-32"/>
       <use x="55.615234375" xlink:href="#LiberationSans-30"/>
       <use x="111.23046875" xlink:href="#LiberationSans-31"/>
       <use x="166.845703125" xlink:href="#LiberationSans-36"/>
       <use x="222.4609375" xlink:href="#LiberationSans-2d"/>
       <use x="255.76171875" xlink:href="#LiberationSans-31"/>
       <use x="311.376953125" xlink:href="#LiberationSans-30"/>
       <use x="366.9921875" xlink:href="#LiberationSans-2d"/>
       <use x="400.29296875" xlink:href="#LiberationSans-31"/>
       <use x="455.908203125" xlink:href="#LiberationSans-31"/>
       <use x="511.5234375" xlink:href="#LiberationSans-20"/>
       <use x="539.306640625" xlink:href="#LiberationSans-32"/>
       <use x="594.921875" xlink:href="#LiberationSans-33"/>
       <use x="650.537109375" xlink:href="#LiberationSans-3a"/>
       <use x="678.3203125" xlink:href="#LiberationSans-30"/>
       <use x="733.935546875" xlink:href="#LiberationSans-37"/>
       <use x="789.55078125" xlink:href="#LiberationSans-3a"/>
       <use x="817.333984375" xlink:href="#LiberationSans-30"/>
       <use x="872.94921875" xlink:href="#LiberationSans-30"/>
      </g>
     </g>
    </g>
    <g id="xtick_4">
     <g id="line2d_10">
      <path clip-path="url(#p1e74710515)" d="M 406.967484 356.4 
L 406.967484 39.6 
" style="fill:none;stroke:#ffffff;stroke-linecap:round;"/>
     </g>
     <g id="line2d_11"/>
     <g id="line2d_12"/>
     <g id="text_4">
      <!-- 2016-10-13 10:56:00 -->
      <g style="fill:#262626;" transform="translate(360.544046242 370.646875)scale(0.1 -0.1)">
       <use xlink:href="#LiberationSans-32"/>
       <use x="55.615234375" xlink:href="#LiberationSans-30"/>
       <use x="111.23046875" xlink:href="#LiberationSans-31"/>
       <use x="166.845703125" xlink:href="#LiberationSans-36"/>
       <use x="222.4609375" xlink:href="#LiberationSans-2d"/>
       <use x="255.76171875" xlink:href="#LiberationSans-31"/>
       <use x="311.376953125" xlink:href="#LiberationSans-30"/>
       <use x="366.9921875" xlink:href="#LiberationSans-2d"/>
       <use x="400.29296875" xlink:href="#LiberationSans-31"/>
       <use x="455.908203125" xlink:href="#LiberationSans-33"/>
       <use x="511.5234375" xlink:href="#LiberationSans-20"/>
       <use x="539.306640625" xlink:href="#LiberationSans-31"/>
       <use x="594.921875" xlink:href="#LiberationSans-30"/>
       <use x="650.537109375" xlink:href="#LiberationSans-3a"/>
       <use x="678.3203125" xlink:href="#LiberationSans-35"/>
       <use x="733.935546875" xlink:href="#LiberationSans-36"/>
       <use x="789.55078125" xlink:href="#LiberationSans-3a"/>
       <use x="817.333984375" xlink:href="#LiberationSans-30"/>
       <use x="872.94921875" xlink:href="#LiberationSans-30"/>
      </g>
     </g>
    </g>
    <g id="text_5">
     <!-- time -->
     <defs>
      <path d="M 13.484375 24.5625 
Q 13.484375 20.40625 14.328125 16.90625 
Q 15.1875 13.421875 16.96875 10.90625 
Q 18.75 8.40625 21.53125 7 
Q 24.3125 5.609375 28.21875 5.609375 
Q 33.9375 5.609375 37.375 7.90625 
Q 40.828125 10.203125 42.046875 13.71875 
L 49.75 11.53125 
Q 48.921875 9.328125 47.4375 7.109375 
Q 45.953125 4.890625 43.453125 3.09375 
Q 40.96875 1.3125 37.234375 0.15625 
Q 33.5 -0.984375 28.21875 -0.984375 
Q 16.5 -0.984375 10.375 6 
Q 4.25 12.984375 4.25 26.765625 
Q 4.25 34.1875 6.09375 39.328125 
Q 7.953125 44.484375 11.171875 47.703125 
Q 14.40625 50.921875 18.703125 52.359375 
Q 23 53.8125 27.875 53.8125 
Q 34.515625 53.8125 38.984375 51.65625 
Q 43.453125 49.515625 46.15625 45.71875 
Q 48.875 41.9375 50.015625 36.8125 
Q 51.171875 31.6875 51.171875 25.734375 
L 51.171875 24.5625 
z
M 42.09375 31.296875 
Q 41.359375 39.65625 37.84375 43.484375 
Q 34.328125 47.3125 27.734375 47.3125 
Q 25.53125 47.3125 23.109375 46.609375 
Q 20.703125 45.90625 18.65625 44.09375 
Q 16.609375 42.28125 15.1875 39.171875 
Q 13.765625 36.078125 13.578125 31.296875 
z
" id="LiberationSans-65"/>
      <path d="M 6.6875 64.0625 
L 6.6875 72.46875 
L 15.484375 72.46875 
L 15.484375 64.0625 
z
M 6.6875 0 
L 6.6875 52.828125 
L 15.484375 52.828125 
L 15.484375 0 
z
" id="LiberationSans-69"/>
      <path d="M 27.046875 0.390625 
Q 25.046875 -0.140625 22.96875 -0.453125 
Q 20.90625 -0.78125 18.171875 -0.78125 
Q 7.625 -0.78125 7.625 11.1875 
L 7.625 46.4375 
L 1.515625 46.4375 
L 1.515625 52.828125 
L 7.953125 52.828125 
L 10.546875 64.65625 
L 16.40625 64.65625 
L 16.40625 52.828125 
L 26.171875 52.828125 
L 26.171875 46.4375 
L 16.40625 46.4375 
L 16.40625 13.09375 
Q 16.40625 9.28125 17.640625 7.734375 
Q 18.890625 6.203125 21.96875 6.203125 
Q 23.25 6.203125 24.4375 6.390625 
Q 25.640625 6.59375 27.046875 6.890625 
z
" id="LiberationSans-74"/>
      <path d="M 37.5 0 
L 37.5 33.5 
Q 37.5 37.359375 37.015625 39.9375 
Q 36.53125 42.53125 35.375 44.109375 
Q 34.234375 45.703125 32.375 46.359375 
Q 30.515625 47.015625 27.828125 47.015625 
Q 25.046875 47.015625 22.796875 45.921875 
Q 20.5625 44.828125 18.96875 42.75 
Q 17.390625 40.671875 16.53125 37.625 
Q 15.671875 34.578125 15.671875 30.609375 
L 15.671875 0 
L 6.9375 0 
L 6.9375 41.546875 
Q 6.9375 43.21875 6.90625 45.046875 
Q 6.890625 46.875 6.828125 48.5 
Q 6.78125 50.140625 6.734375 51.3125 
Q 6.6875 52.484375 6.640625 52.828125 
L 14.9375 52.828125 
Q 14.984375 52.59375 15.03125 51.515625 
Q 15.09375 50.4375 15.15625 49.046875 
Q 15.234375 47.65625 15.28125 46.21875 
Q 15.328125 44.78125 15.328125 43.796875 
L 15.484375 43.796875 
Q 16.65625 46.09375 18.015625 47.953125 
Q 19.390625 49.8125 21.21875 51.09375 
Q 23.046875 52.390625 25.40625 53.09375 
Q 27.78125 53.8125 30.90625 53.8125 
Q 36.921875 53.8125 40.40625 51.421875 
Q 43.890625 49.03125 45.265625 43.796875 
L 45.40625 43.796875 
Q 46.578125 46.09375 48.046875 47.953125 
Q 49.515625 49.8125 51.46875 51.09375 
Q 53.421875 52.390625 55.859375 53.09375 
Q 58.296875 53.8125 61.421875 53.8125 
Q 65.4375 53.8125 68.328125 52.734375 
Q 71.234375 51.65625 73.09375 49.40625 
Q 74.953125 47.171875 75.828125 43.625 
Q 76.703125 40.09375 76.703125 35.203125 
L 76.703125 0 
L 68.015625 0 
L 68.015625 33.5 
Q 68.015625 37.359375 67.53125 39.9375 
Q 67.046875 42.53125 65.890625 44.109375 
Q 64.75 45.703125 62.890625 46.359375 
Q 61.03125 47.015625 58.34375 47.015625 
Q 55.5625 47.015625 53.3125 45.96875 
Q 51.078125 44.921875 49.484375 42.875 
Q 47.90625 40.828125 47.046875 37.75 
Q 46.1875 34.671875 46.1875 30.609375 
L 46.1875 0 
z
" id="LiberationSans-6d"/>
     </defs>
     <g style="fill:#262626;" transform="translate(284.81015625 385.6934375)scale(0.11 -0.11)">
      <use xlink:href="#LiberationSans-74"/>
      <use x="27.783203125" xlink:href="#LiberationSans-69"/>
      <use x="50.0" xlink:href="#LiberationSans-6d"/>
      <use x="133.30078125" xlink:href="#LiberationSans-65"/>
     </g>
    </g>
   </g>
   <g id="matplotlib.axis_2">
    <g id="ytick_1">
     <g id="line2d_13">
      <path clip-path="url(#p1e74710515)" d="M 72 356.4 
L 518.4 356.4 
" style="fill:none;stroke:#ffffff;stroke-linecap:round;"/>
     </g>
     <g id="line2d_14"/>
     <g id="line2d_15"/>
     <g id="text_6">
      <!-- 840 -->
      <defs>
       <path d="M 51.265625 19.1875 
Q 51.265625 14.796875 49.875 11.109375 
Q 48.484375 7.421875 45.625 4.734375 
Q 42.78125 2.046875 38.328125 0.53125 
Q 33.890625 -0.984375 27.828125 -0.984375 
Q 21.78125 -0.984375 17.359375 0.53125 
Q 12.9375 2.046875 10.03125 4.703125 
Q 7.125 7.375 5.734375 11.0625 
Q 4.34375 14.75 4.34375 19.09375 
Q 4.34375 22.859375 5.484375 25.78125 
Q 6.640625 28.71875 8.5625 30.828125 
Q 10.5 32.953125 12.96875 34.25 
Q 15.4375 35.546875 18.0625 35.984375 
L 18.0625 36.1875 
Q 15.1875 36.859375 12.90625 38.375 
Q 10.640625 39.890625 9.09375 42.015625 
Q 7.5625 44.140625 6.75 46.71875 
Q 5.953125 49.3125 5.953125 52.203125 
Q 5.953125 55.8125 7.34375 59 
Q 8.734375 62.203125 11.46875 64.625 
Q 14.203125 67.046875 18.25 68.4375 
Q 22.3125 69.828125 27.640625 69.828125 
Q 33.25 69.828125 37.375 68.40625 
Q 41.5 67 44.203125 64.578125 
Q 46.921875 62.15625 48.234375 58.9375 
Q 49.5625 55.71875 49.5625 52.09375 
Q 49.5625 49.265625 48.75 46.671875 
Q 47.953125 44.09375 46.40625 41.96875 
Q 44.875 39.84375 42.59375 38.34375 
Q 40.328125 36.859375 37.359375 36.28125 
L 37.359375 36.078125 
Q 40.328125 35.59375 42.859375 34.296875 
Q 45.40625 33.015625 47.265625 30.890625 
Q 49.125 28.765625 50.1875 25.828125 
Q 51.265625 22.90625 51.265625 19.1875 
M 40.4375 51.609375 
Q 40.4375 54.203125 39.765625 56.34375 
Q 39.109375 58.5 37.59375 60.03125 
Q 36.078125 61.578125 33.640625 62.421875 
Q 31.203125 63.28125 27.640625 63.28125 
Q 24.171875 63.28125 21.78125 62.421875 
Q 19.390625 61.578125 17.84375 60.03125 
Q 16.3125 58.5 15.625 56.34375 
Q 14.9375 54.203125 14.9375 51.609375 
Q 14.9375 49.5625 15.46875 47.40625 
Q 16.015625 45.265625 17.421875 43.5 
Q 18.84375 41.75 21.328125 40.625 
Q 23.828125 39.5 27.734375 39.5 
Q 31.890625 39.5 34.40625 40.625 
Q 36.921875 41.75 38.25 43.5 
Q 39.59375 45.265625 40.015625 47.40625 
Q 40.4375 49.5625 40.4375 51.609375 
M 42.140625 20.015625 
Q 42.140625 22.515625 41.453125 24.828125 
Q 40.765625 27.15625 39.109375 28.9375 
Q 37.453125 30.71875 34.640625 31.8125 
Q 31.84375 32.90625 27.640625 32.90625 
Q 23.78125 32.90625 21.0625 31.8125 
Q 18.359375 30.71875 16.671875 28.90625 
Q 14.984375 27.09375 14.203125 24.71875 
Q 13.421875 22.359375 13.421875 19.828125 
Q 13.421875 16.65625 14.203125 14.03125 
Q 14.984375 11.421875 16.6875 9.546875 
Q 18.40625 7.671875 21.1875 6.640625 
Q 23.96875 5.609375 27.9375 5.609375 
Q 31.9375 5.609375 34.671875 6.640625 
Q 37.40625 7.671875 39.0625 9.546875 
Q 40.71875 11.421875 41.421875 14.078125 
Q 42.140625 16.75 42.140625 20.015625 
" id="LiberationSans-38"/>
      </defs>
      <g style="fill:#262626;" transform="translate(48.3171875 358.9859375)scale(0.1 -0.1)">
       <use xlink:href="#LiberationSans-38"/>
       <use x="55.615234375" xlink:href="#LiberationSans-34"/>
       <use x="111.23046875" xlink:href="#LiberationSans-30"/>
      </g>
     </g>
    </g>
    <g id="ytick_2">
     <g id="line2d_16">
      <path clip-path="url(#p1e74710515)" d="M 72 311.142857 
L 518.4 311.142857 
" style="fill:none;stroke:#ffffff;stroke-linecap:round;"/>
     </g>
     <g id="line2d_17"/>
     <g id="line2d_18"/>
     <g id="text_7">
      <!-- 860 -->
      <g style="fill:#262626;" transform="translate(48.3171875 313.728794643)scale(0.1 -0.1)">
       <use xlink:href="#LiberationSans-38"/>
       <use x="55.615234375" xlink:href="#LiberationSans-36"/>
       <use x="111.23046875" xlink:href="#LiberationSans-30"/>
      </g>
     </g>
    </g>
    <g id="ytick_3">
     <g id="line2d_19">
      <path clip-path="url(#p1e74710515)" d="M 72 265.885714 
L 518.4 265.885714 
" style="fill:none;stroke:#ffffff;stroke-linecap:round;"/>
     </g>
     <g id="line2d_20"/>
     <g id="line2d_21"/>
     <g id="text_8">
      <!-- 880 -->
      <g style="fill:#262626;" transform="translate(48.3171875 268.471651786)scale(0.1 -0.1)">
       <use xlink:href="#LiberationSans-38"/>
       <use x="55.615234375" xlink:href="#LiberationSans-38"/>
       <use x="111.23046875" xlink:href="#LiberationSans-30"/>
      </g>
     </g>
    </g>
    <g id="ytick_4">
     <g id="line2d_22">
      <path clip-path="url(#p1e74710515)" d="M 72 220.628571 
L 518.4 220.628571 
" style="fill:none;stroke:#ffffff;stroke-linecap:round;"/>
     </g>
     <g id="line2d_23"/>
     <g id="line2d_24"/>
     <g id="text_9">
      <!-- 900 -->
      <g style="fill:#262626;" transform="translate(48.3171875 223.214508929)scale(0.1 -0.1)">
       <use xlink:href="#LiberationSans-39"/>
       <use x="55.615234375" xlink:href="#LiberationSans-30"/>
       <use x="111.23046875" xlink:href="#LiberationSans-30"/>
      </g>
     </g>
    </g>
    <g id="ytick_5">
     <g id="line2d_25">
      <path clip-path="url(#p1e74710515)" d="M 72 175.371429 
L 518.4 175.371429 
" style="fill:none;stroke:#ffffff;stroke-linecap:round;"/>
     </g>
     <g id="line2d_26"/>
     <g id="line2d_27"/>
     <g id="text_10">
      <!-- 920 -->
      <g style="fill:#262626;" transform="translate(48.3171875 177.957366071)scale(0.1 -0.1)">
       <use xlink:href="#LiberationSans-39"/>
       <use x="55.615234375" xlink:href="#LiberationSans-32"/>
       <use x="111.23046875" xlink:href="#LiberationSans-30"/>
      </g>
     </g>
    </g>
    <g id="ytick_6">
     <g id="line2d_28">
      <path clip-path="url(#p1e74710515)" d="M 72 130.114286 
L 518.4 130.114286 
" style="fill:none;stroke:#ffffff;stroke-linecap:round;"/>
     </g>
     <g id="line2d_29"/>
     <g id="line2d_30"/>
     <g id="text_11">
      <!-- 940 -->
      <g style="fill:#262626;" transform="translate(48.3171875 132.700223214)scale(0.1 -0.1)">
       <use xlink:href="#LiberationSans-39"/>
       <use x="55.615234375" xlink:href="#LiberationSans-34"/>
       <use x="111.23046875" xlink:href="#LiberationSans-30"/>
      </g>
     </g>
    </g>
    <g id="ytick_7">
     <g id="line2d_31">
      <path clip-path="url(#p1e74710515)" d="M 72 84.857143 
L 518.4 84.857143 
" style="fill:none;stroke:#ffffff;stroke-linecap:round;"/>
     </g>
     <g id="line2d_32"/>
     <g id="line2d_33"/>
     <g id="text_12">
      <!-- 960 -->
      <g style="fill:#262626;" transform="translate(48.3171875 87.4430803571)scale(0.1 -0.1)">
       <use xlink:href="#LiberationSans-39"/>
       <use x="55.615234375" xlink:href="#LiberationSans-36"/>
       <use x="111.23046875" xlink:href="#LiberationSans-30"/>
      </g>
     </g>
    </g>
    <g id="ytick_8">
     <g id="line2d_34">
      <path clip-path="url(#p1e74710515)" d="M 72 39.6 
L 518.4 39.6 
" style="fill:none;stroke:#ffffff;stroke-linecap:round;"/>
     </g>
     <g id="line2d_35"/>
     <g id="line2d_36"/>
     <g id="text_13">
      <!-- 980 -->
      <g style="fill:#262626;" transform="translate(48.3171875 42.1859375)scale(0.1 -0.1)">
       <use xlink:href="#LiberationSans-39"/>
       <use x="55.615234375" xlink:href="#LiberationSans-38"/>
       <use x="111.23046875" xlink:href="#LiberationSans-30"/>
      </g>
     </g>
    </g>
   </g>
   <g id="line2d_37">
    <path clip-path="url(#p1e74710515)" d="M 72 213.040298 
L 72.223312 206.577403 
L 72.446623 216.010651 
L 72.669935 218.426959 
L 72.893247 211.701323 
L 73.33987 220.581623 
L 73.563182 218.426959 
L 73.786493 219.504291 
L 74.009805 219.504291 
L 74.233117 221.658955 
L 74.67974 217.926301 
L 74.903052 220.080965 
L 75.126363 219.242648 
L 75.349675 206.314663 
L 75.572986 225.705543 
L 75.796298 224.389197 
L 76.01961 236.478864 
L 76.466233 217.926301 
L 76.689545 215.771637 
L 77.136168 209.307644 
L 77.35948 209.046001 
L 77.582791 197.458088 
L 77.806103 203.920984 
L 78.029415 203.920984 
L 78.252726 189.916764 
L 78.476038 198.53542 
L 78.69935 193.964449 
L 78.922661 199.350012 
L 79.145973 198.27268 
L 79.369285 192.624377 
L 79.592596 202.320366 
L 79.815908 197.195348 
L 80.03922 188.577789 
L 80.262531 195.041781 
L 80.485843 192.887117 
L 80.709155 189.393478 
L 80.932466 183.745174 
L 81.155778 189.393478 
L 81.37909 198.011037 
L 81.602401 185.637098 
L 81.825713 191.285402 
L 82.049025 192.362734 
L 82.718959 225.466529 
L 83.165583 221.1572 
L 83.388894 219.818225 
L 83.612206 228.698525 
L 83.835518 227.621193 
L 84.058829 234.085185 
L 84.282141 237.317182 
L 84.505453 237.556196 
L 84.728764 217.140275 
L 84.952076 214.169922 
L 85.175388 219.003633 
L 85.398699 214.432662 
L 85.622011 220.080965 
L 85.845323 218.165316 
L 86.068634 212.539641 
L 86.291946 212.778655 
L 86.515258 204.161095 
L 86.738569 218.165316 
L 86.961881 213.855987 
L 87.185193 216.533937 
L 87.408504 214.11763 
L 87.631816 218.426959 
L 87.855128 220.581623 
L 88.078439 225.152594 
L 88.301751 219.504291 
L 88.525063 217.61127 
L 88.748374 217.61127 
L 88.971686 214.38037 
L 89.194997 216.796678 
L 89.418309 217.87401 
L 89.641621 216.533937 
L 90.311556 228.646234 
L 90.534867 223.259573 
L 90.758179 225.414237 
L 90.981491 224.336905 
L 91.204802 224.598548 
L 91.428114 225.67588 
L 91.651426 223.207282 
L 91.874737 234.242246 
L 92.098049 215.667054 
L 92.321361 228.040993 
L 92.544672 227.51661 
L 92.767984 244.199878 
L 92.991296 229.671274 
L 93.437919 241.52083 
L 93.661231 240.443498 
L 93.884542 243.937137 
L 94.107854 239.366166 
L 94.331166 241.78357 
L 94.554477 237.212599 
L 95.224412 240.706238 
L 95.447724 247.693517 
L 95.671036 248.508109 
L 95.894347 252.001748 
L 96.117659 247.169134 
L 96.564282 256.311077 
L 96.787594 258.204098 
L 97.234217 246.907491 
L 97.457529 248.246466 
L 97.68084 245.01447 
L 97.904152 243.937137 
L 98.127464 235.057935 
L 98.350775 242.598162 
L 98.797399 238.551574 
L 99.02071 235.057935 
L 99.244022 240.443498 
L 99.467334 239.366166 
L 99.690645 237.212599 
L 99.913957 240.443498 
L 100.36058 236.135267 
L 100.583892 236.135267 
L 100.807204 241.78357 
L 101.030515 243.937137 
L 101.253827 242.598162 
L 101.477139 247.169134 
L 101.70045 248.246466 
L 101.923762 247.169134 
L 102.147074 243.675494 
L 102.370385 257.126766 
L 102.593697 258.204098 
L 102.817009 247.984823 
L 103.04032 252.555794 
L 103.263632 260.620405 
L 103.486943 263.036712 
L 103.710255 261.95938 
L 103.933567 272.156027 
L 104.38019 257.890163 
L 104.603502 255.496485 
L 105.050125 258.967495 
L 105.273437 268.109438 
L 105.496748 270.263005 
L 105.72006 262.461135 
L 105.943372 261.383803 
L 106.166683 258.151806 
L 106.389995 262.461135 
L 106.613307 264.353059 
L 106.836618 261.121063 
L 107.283242 270.001362 
L 107.506553 263.275727 
L 107.729865 270.001362 
L 107.953177 270.263005 
L 108.176488 270.263005 
L 108.3998 265.692034 
L 108.623112 263.538467 
L 108.846423 267.032106 
L 109.069735 260.306471 
L 109.293047 267.032106 
L 109.516358 265.954774 
L 109.73967 265.692034 
L 110.186293 255.496485 
L 110.409605 257.890163 
L 110.632916 249.032492 
L 110.856228 247.95516 
L 111.07954 254.91981 
L 111.302851 247.116842 
L 111.526163 253.842478 
L 111.749475 256.258785 
L 112.196098 248.194174 
L 112.41941 253.842478 
L 112.642721 241.491167 
L 112.866033 241.229524 
L 113.312656 236.658553 
L 113.535968 231.010249 
L 113.75928 229.117228 
L 113.982591 218.86829 
L 114.205903 198.401175 
L 114.652526 202.709406 
L 114.875838 178.171976 
L 115.09915 194.330861 
L 115.322461 192.43784 
L 115.545773 206.7048 
L 115.769085 201.056496 
L 115.992396 198.901832 
L 116.215708 187.866868 
L 116.43902 193.253529 
L 116.662331 206.443157 
L 116.885643 209.936796 
L 117.108954 204.288493 
L 117.332266 205.103085 
L 117.555578 207.520489 
L 117.778889 197.562857 
L 118.002201 209.936796 
L 118.225513 207.520489 
L 118.448824 219.631688 
L 118.895448 217.477024 
L 119.118759 211.82872 
L 119.342071 209.674056 
L 119.565383 211.014128 
L 119.788694 208.597821 
L 120.012006 211.82872 
L 120.458629 202.709406 
L 120.681941 208.096067 
L 120.905253 204.602427 
L 121.351876 202.447763 
L 121.575188 198.954124 
L 121.798499 207.018734 
L 122.021811 197.323843 
L 122.245123 208.597821 
L 122.468434 209.674056 
L 122.691746 214.245028 
L 122.915058 209.674056 
L 123.138369 212.906052 
L 123.361681 203.786738 
L 123.584992 221.263066 
L 123.808304 222.340398 
L 124.031616 237.683594 
L 124.254927 234.503889 
L 124.478239 245.800496 
L 124.701551 247.693517 
L 125.371486 291.860842 
L 125.594797 282.16595 
L 125.818109 278.933954 
L 126.264732 286.160247 
L 126.488044 283.452634 
L 126.711356 275.388023 
L 126.934667 274.833977 
L 127.157979 281.036326 
L 127.381291 283.190991 
L 127.827914 254.419153 
L 128.051226 256.57272 
L 128.497849 249.271507 
L 128.721161 261.383803 
L 128.944472 264.615799 
L 129.167784 263.275727 
L 129.391096 254.156412 
L 129.614407 259.804716 
L 129.837719 249.323798 
L 130.061031 253.894769 
L 130.284342 250.40113 
L 130.507654 244.752827 
L 131.177589 259.834379 
L 131.4009 255.787791 
L 131.624212 271.655369 
L 131.847524 277.281044 
L 132.070835 274.049048 
L 132.294147 73.735388 
L 132.517459 88.525635 
L 132.74077 90.104721 
L 133.410705 116.221238 
L 133.634017 134.534786 
L 133.857329 132.641765 
L 134.303952 152.241997 
L 134.750575 123.156225 
L 134.973887 131.773785 
L 135.197199 126.388221 
L 135.42051 116.191575 
L 135.867134 80.065135 
L 136.090445 96.485663 
L 136.537069 109.675291 
L 136.76038 95.146687 
L 136.983692 103.765344 
L 137.207004 120.185872 
L 137.430315 117.006167 
L 137.653627 105.70956 
L 137.876938 115.667192 
L 138.10025 109.465939 
L 138.323562 110.280531 
L 138.546873 125.886467 
L 138.770185 111.357863 
L 139.44012 100.637931 
L 139.663432 106.263606 
L 139.886743 104.108942 
L 140.110055 107.864224 
L 140.333367 116.744524 
L 140.556678 114.58986 
L 140.77999 125.36318 
L 141.003302 125.624824 
L 141.226613 112.173552 
L 141.449925 113.512527 
L 141.673237 123.731802 
L 141.896548 126.125481 
L 142.11986 126.963799 
L 142.343172 120.499806 
L 142.566483 121.81725 
L 142.789795 118.345142 
L 143.013107 126.963799 
L 143.236418 119.422474 
L 143.45973 117.268907 
L 143.683042 111.357863 
L 143.906353 111.620603 
L 144.129665 114.851503 
L 144.352976 113.77417 
L 144.576288 107.864224 
L 144.7996 107.864224 
L 145.022911 110.280531 
L 145.246223 114.328216 
L 145.469535 116.221238 
L 145.692846 124.33814 
L 145.916158 124.33814 
L 146.13947 125.654486 
L 146.362781 133.457454 
L 146.809405 114.328216 
L 147.032716 116.482881 
L 147.256028 119.97652 
L 147.47934 98.483267 
L 147.702651 107.864224 
L 147.925963 106.525249 
L 148.149275 117.29857 
L 148.372586 120.792209 
L 148.595898 128.332437 
L 148.81921 114.066573 
L 149.042521 128.332437 
L 149.489145 120.529469 
L 149.712456 125.10044 
L 149.935768 116.221238 
L 150.15908 120.529469 
L 150.382391 128.332437 
L 150.605703 130.487101 
L 150.829015 129.148126 
L 151.052326 129.148126 
L 151.275638 126.993462 
L 151.498949 131.30279 
L 151.722261 129.148126 
L 151.945573 132.641765 
L 152.168884 138.551712 
L 152.392196 127.255105 
L 152.838819 136.951093 
L 153.062131 137.212736 
L 153.285443 150.139625 
L 153.508754 148.800649 
L 153.732066 149.062292 
L 153.955378 142.336657 
L 154.402001 166.298509 
L 154.625313 150.693671 
L 154.848624 146.122699 
L 155.071936 152.585595 
L 155.295248 146.384342 
L 155.518559 157.942592 
L 155.741871 146.645985 
L 155.965183 150.139625 
L 156.188494 150.139625 
L 156.411806 151.216957 
L 156.635118 149.877981 
L 156.858429 145.568653 
L 157.528364 162.80487 
L 157.751676 157.419306 
L 157.974987 145.883685 
L 158.198299 149.354695 
L 158.421611 157.972255 
L 158.868234 155.578576 
L 159.091546 149.114584 
L 159.314857 148.591298 
L 159.538169 135.66441 
L 159.984792 140.78833 
L 160.208104 148.329655 
L 160.431416 167.166489 
L 160.654727 156.947214 
L 160.878039 152.376243 
L 161.101351 153.715218 
L 161.324662 159.101879 
L 161.547974 180.647423 
L 161.771286 174.99912 
L 161.994597 184.956752 
L 162.217909 188.188748 
L 162.441221 174.235722 
L 162.664532 172.844456 
L 162.887844 180.647423 
L 163.111156 168.535127 
L 163.334467 163.964156 
L 163.557779 161.810589 
L 163.781091 169.350816 
L 164.004402 162.886824 
L 164.227714 172.291507 
L 164.451026 170.398486 
L 164.674337 171.214175 
L 165.12096 176.862478 
L 165.344272 169.8752 
L 165.567584 170.689792 
L 165.790895 169.8752 
L 166.237519 164.226896 
L 166.46083 159.655925 
L 166.684142 167.457795 
L 166.907454 161.810589 
L 167.130765 165.304228 
L 167.354077 166.38156 
L 167.577389 169.8752 
L 167.8007 160.9949 
L 168.024012 159.101879 
L 168.247324 151.298911 
L 168.470635 152.376243 
L 168.693947 154.79255 
L 168.917259 161.256543 
L 169.363882 155.608239 
L 169.587194 162.333875 
L 169.810505 156.685571 
L 170.033817 161.256543 
L 170.257129 159.101879 
L 170.48044 162.333875 
L 170.703752 159.917568 
L 170.927064 162.072232 
L 171.150375 162.595518 
L 171.373687 162.595518 
L 171.596998 169.321154 
L 171.82031 167.166489 
L 172.043622 167.166489 
L 172.266933 169.321154 
L 172.490245 174.707814 
L 172.713557 173.368839 
L 172.936868 177.67707 
L 173.16018 170.136843 
L 173.383492 172.291507 
L 173.606803 175.785146 
L 174.053427 166.904846 
L 174.276738 167.982178 
L 174.50005 170.136843 
L 174.723362 164.488539 
L 174.946673 166.904846 
L 175.169985 163.411207 
L 175.393297 170.952532 
L 175.616608 170.952532 
L 175.83992 172.028767 
L 176.063232 171.767124 
L 176.733167 176.338095 
L 176.956478 178.492759 
L 177.17979 196.806308 
L 177.403102 183.063731 
L 177.849725 172.291507 
L 178.073037 171.214175 
L 178.51966 189.527723 
L 178.742971 187.634702 
L 178.966283 194.360338 
L 179.189595 193.021363 
L 179.412906 197.330691 
L 179.636218 194.098695 
L 179.85953 195.176027 
L 180.082841 190.605055 
L 180.306153 191.682387 
L 180.529465 190.866698 
L 180.752776 198.908681 
L 180.976088 192.205674 
L 181.1994 196.754016 
L 181.422711 205.895959 
L 181.646023 192.969071 
L 181.869335 190.552764 
L 182.092646 191.630096 
L 182.315958 193.78476 
L 182.53927 205.895959 
L 182.762581 131.698679 
L 182.985893 117.222367 
L 183.655828 150.566273 
L 183.87914 148.673252 
L 184.102451 155.137245 
L 184.325763 148.934895 
L 184.772386 156.999506 
L 184.995698 158.892527 
L 185.21901 166.171112 
L 185.442321 165.35652 
L 185.665633 169.403108 
L 185.888944 169.141465 
L 186.112256 173.188053 
L 186.335568 173.188053 
L 186.558879 181.80671 
L 186.782191 183.72236 
L 187.898749 225.159443 
L 188.122061 205.506919 
L 188.345373 235.670023 
L 188.568684 230.546103 
L 189.015308 244.28868 
L 189.238619 239.163663 
L 189.461931 236.747356 
L 189.685243 224.657688 
L 189.908554 223.581453 
L 190.355178 231.121681 
L 190.578489 228.967016 
L 190.801801 234.353677 
L 191.025113 242.972334 
L 191.248424 238.90202 
L 191.471736 237.824688 
L 191.695048 233.777002 
L 191.918359 232.438027 
L 192.141671 228.129796 
L 192.364982 233.777002 
L 192.588294 231.121681 
L 192.811606 235.670023 
L 193.258229 226.812352 
L 193.481541 228.967016 
L 193.928164 242.972334 
L 194.374787 224.950091 
L 194.598099 227.919347 
L 194.821411 213.653484 
L 195.044722 224.950091 
L 195.268034 226.027423 
L 195.491346 221.718095 
L 195.714657 223.872759 
L 195.937969 233.276345 
L 196.161281 235.169366 
L 196.384592 234.644983 
L 196.607904 228.182087 
L 196.831216 234.092034 
L 197.054527 227.366398 
L 197.277839 229.782705 
L 198.171086 216.069791 
L 198.394397 215.569134 
L 198.617709 216.645369 
L 198.841021 213.414469 
L 199.064332 206.688834 
L 199.287644 208.027809 
L 199.510955 212.576152 
L 199.734267 198.070177 
L 200.18089 203.957495 
L 200.404202 196.992845 
L 200.627514 198.070177 
L 201.074137 186.77357 
L 201.297449 191.344541 
L 201.52076 198.33182 
L 201.744072 196.731202 
L 201.967384 196.731202 
L 202.414007 203.456838 
L 202.637319 192.421874 
L 202.86063 205.611502 
L 203.083942 193.237563 
L 203.307254 197.546891 
L 203.530565 195.65387 
L 203.753877 199.409152 
L 203.977189 189.71426 
L 204.423812 198.33182 
L 204.647124 200.726596 
L 205.093747 194.524246 
L 205.317059 193.185271 
L 205.54037 196.178253 
L 205.763682 197.254488 
L 205.986993 199.649264 
L 206.210305 199.649264 
L 206.433617 196.178253 
L 207.103552 209.05285 
L 207.326863 207.975518 
L 207.550175 204.481878 
L 207.773487 205.55921 
L 207.996798 210.944774 
L 208.22011 207.975518 
L 208.443422 212.546489 
L 208.666733 204.743521 
L 208.890045 214.701153 
L 209.336668 208.237161 
L 209.55998 209.05285 
L 209.783292 209.05285 
L 210.006603 211.207514 
L 210.229915 211.207514 
L 210.453227 214.701153 
L 210.676538 213.623821 
L 210.89985 214.701153 
L 211.123162 214.43951 
L 211.346473 212.284846 
L 211.569785 213.362178 
L 211.793097 230.860038 
L 212.016408 223.05707 
L 212.23972 224.134402 
L 212.463032 230.860038 
L 212.686343 223.05707 
L 212.909655 229.782705 
L 213.132966 225.211734 
L 213.356278 228.705373 
L 213.57959 226.289066 
L 213.802901 231.93737 
L 214.026213 223.318713 
L 214.249525 221.979738 
L 214.696148 221.979738 
L 214.91946 220.902406 
L 215.142771 223.318713 
L 215.366083 215.778485 
L 215.589395 212.284846 
L 215.812706 217.933149 
L 216.036018 215.778485 
L 216.25933 222.504121 
L 216.482641 205.820853 
L 216.705953 202.065571 
L 216.929265 200.224841 
L 217.375888 213.653484 
L 217.5992 204.272527 
L 217.822511 206.112159 
L 218.045823 210.421488 
L 218.492446 201.802831 
L 218.715758 200.486484 
L 219.385693 190.791593 
L 219.609005 196.417267 
L 219.832316 196.417267 
L 220.055628 174.369968 
L 220.278939 175.71004 
L 220.502251 172.164109 
L 220.725563 162.468121 
L 220.948874 164.331479 
L 221.172186 155.451179 
L 221.395498 165.146071 
L 221.618809 158.944818 
L 221.842121 158.683175 
L 222.065433 152.480826 
L 222.288744 160.022151 
L 222.512056 162.176815 
L 222.735368 153.034872 
L 222.958679 162.176815 
L 223.181991 160.83784 
L 223.405303 151.95754 
L 223.628614 158.683175 
L 223.851926 161.099483 
L 224.075238 167.563475 
L 224.298549 161.915172 
L 224.521861 162.992504 
L 224.745173 165.408811 
L 224.968484 165.408811 
L 225.191796 165.146071 
L 225.415108 165.700117 
L 225.638419 165.700117 
L 225.861731 168.932113 
L 226.085043 176.472341 
L 226.308354 172.978701 
L 226.531666 173.240344 
L 226.754977 170.009445 
L 227.201601 176.735081 
L 227.424912 176.735081 
L 227.648224 184.275309 
L 228.094847 174.317677 
L 228.318159 174.580417 
L 228.541471 174.580417 
L 228.764782 173.764728 
L 228.988094 178.074056 
L 229.211406 186.116038 
L 229.434717 180.490363 
L 229.658029 182.645027 
L 229.881341 175.657749 
L 230.104652 182.382287 
L 230.327964 175.657749 
L 230.551276 174.580417 
L 230.774587 163.807096 
L 230.997899 161.652432 
L 231.221211 169.455399 
L 231.444522 172.687396 
L 231.667834 172.687396 
L 231.891146 167.300735 
L 232.114457 164.884428 
L 232.561081 169.193756 
L 232.784392 170.009445 
L 233.007704 172.164109 
L 233.454327 162.468121 
L 233.90095 172.164109 
L 234.124262 170.824037 
L 234.570885 175.949055 
L 234.794197 170.562394 
L 235.017509 169.485062 
L 235.464132 181.859001 
L 235.687444 170.562394 
L 235.910755 177.28803 
L 236.134067 176.210698 
L 236.58069 187.768948 
L 236.804002 181.043312 
L 237.027314 192.339919 
L 237.250625 185.614284 
L 237.473937 191.000944 
L 237.697249 190.185255 
L 237.92056 193.417251 
L 238.143872 192.339919 
L 238.367184 186.691616 
L 238.813807 197.72658 
L 239.26043 173.794391 
L 239.483742 164.675076 
L 239.707054 173.794391 
L 240.153677 150.700519 
L 240.376988 142.658537 
L 240.6003 129.760214 
L 240.823612 136.224207 
L 241.046923 124.950228 
L 241.270235 136.224207 
L 241.493547 114.207667 
L 241.716858 127.658939 
L 241.94017 118.254256 
L 242.163482 117.701307 
L 242.386793 127.658939 
L 242.610105 116.099592 
L 242.833417 118.516996 
L 243.503352 91.113796 
L 243.726663 99.44005 
L 243.949975 87.8818 
L 244.173287 90.298107 
L 244.396598 94.869078 
L 244.61991 102.672046 
L 244.843222 95.684767 
L 245.066533 98.654023 
L 245.289845 109.134941 
L 245.513157 106.718634 
L 245.736468 119.092573 
L 245.95978 120.169905 
L 246.183092 123.640916 
L 246.629715 108.320349 
L 246.853027 113.946024 
L 247.076338 114.783245 
L 247.29965 112.628581 
L 247.969585 98.362718 
L 248.192896 101.594714 
L 248.416208 97.285385 
L 248.63952 104.82671 
L 248.862831 98.101075 
L 249.086143 99.178407 
L 249.309455 99.178407 
L 249.532766 98.915666 
L 249.756078 104.56397 
L 249.97939 104.56397 
L 250.202701 98.915666 
L 250.426013 106.980277 
L 250.649325 109.134941 
L 250.872636 96.499359 
L 251.31926 101.88602 
L 251.542571 113.735576 
L 251.765883 119.646619 
L 251.989195 129.864797 
L 252.212506 117.753598 
L 252.435818 127.134556 
L 252.65913 150.805102 
L 252.882441 134.937523 
L 253.105753 146.23413 
L 253.329065 134.67588 
L 253.552376 131.443884 
L 253.775688 132.259573 
L 253.998999 142.740491 
L 254.222311 142.740491 
L 254.445623 148.889452 
L 254.668934 135.199166 
L 254.892246 136.276498 
L 255.115558 133.044502 
L 255.338869 139.770138 
L 255.562181 138.431163 
L 255.785493 136.276498 
L 256.008804 148.073763 
L 256.455428 140.031781 
L 256.678739 136.800882 
L 257.125363 143.263777 
L 257.348674 139.770138 
L 258.018609 136.014855 
L 258.241921 138.431163 
L 258.465233 136.538141 
L 258.688544 140.84747 
L 258.911856 131.96717 
L 259.135168 134.383477 
L 259.358479 133.044502 
L 259.581791 132.782859 
L 259.805103 140.585827 
L 260.028414 125.79558 
L 260.251726 130.104909 
L 260.475038 132.259573 
L 260.698349 155.958685 
L 260.921661 152.487674 
L 261.368284 155.958685 
L 261.591596 160.268013 
L 261.814907 153.565006 
L 262.038219 154.881353 
L 262.261531 152.726689 
L 262.484842 162.393015 
L 262.708154 161.868632 
L 262.931466 169.671599 
L 263.154777 170.748931 
L 263.378089 170.487288 
L 263.824712 178.290256 
L 264.048024 175.873949 
L 264.271336 179.367588 
L 264.494647 168.332624 
L 264.941271 164.023296 
L 265.164582 163.761653 
L 265.387894 170.487288 
L 265.834517 161.606988 
L 266.057829 166.17796 
L 266.281141 150.33301 
L 266.504452 151.410342 
L 266.727764 113.705913 
L 266.951076 107.743675 
L 267.174387 109.898339 
L 267.397699 115.285 
L 267.621011 102.619755 
L 267.844322 113.916362 
L 268.067634 112.839029 
L 268.514257 116.069929 
L 268.96088 118.224593 
L 269.184192 120.881012 
L 269.407504 114.992597 
L 269.630815 114.992597 
L 269.854127 102.881398 
L 270.30075 99.911044 
L 270.524062 107.452369 
L 270.747374 105.036062 
L 270.970685 106.375037 
L 271.193997 108.529701 
L 271.64062 106.375037 
L 271.863932 102.881398 
L 272.087244 102.881398 
L 272.310555 110.684365 
L 272.533867 102.881398 
L 272.98049 107.190726 
L 273.203802 92.662123 
L 273.427114 90.245815 
L 273.650425 92.160368 
L 273.873737 101.279682 
L 274.097049 99.126115 
L 274.32036 90.507458 
L 274.543672 101.804065 
L 274.766983 105.036062 
L 274.990295 98.310426 
L 275.213607 101.804065 
L 275.436918 108.529701 
L 275.66023 107.452369 
L 275.883542 120.6409 
L 276.106853 111.498957 
L 276.330165 117.410001 
L 276.553477 112.02334 
L 276.776788 123.297319 
L 277.0001 115.494351 
L 277.223412 118.987991 
L 277.446723 104.482016 
L 277.670035 112.02334 
L 277.893347 106.113394 
L 278.116658 108.791344 
L 278.33997 106.375037 
L 278.786593 113.100673 
L 279.009905 102.881398 
L 279.233217 102.881398 
L 279.67984 91.584791 
L 279.903152 93.739455 
L 280.349775 106.375037 
L 280.573087 107.452369 
L 280.796398 82.151542 
L 281.01971 90.769101 
L 281.243022 86.19813 
L 281.689645 102.619755 
L 281.912956 91.584791 
L 282.35958 100.412799 
L 282.582891 98.833712 
L 282.806203 89.954509 
L 283.029515 85.906824 
L 283.252826 71.640961 
L 283.476138 73.794528 
L 283.69945 81.335853 
L 283.922761 73.532885 
L 284.146073 81.07421 
L 284.369385 76.764881 
L 284.592696 75.687549 
L 284.816008 79.181189 
L 285.03932 90.216153 
L 285.262631 82.674828 
L 285.709255 74.87186 
L 286.155878 82.151542 
L 286.37919 78.919545 
L 286.602501 90.216153 
L 286.825813 95.864456 
L 287.049125 91.293485 
L 287.272436 91.846434 
L 287.495748 95.340073 
L 287.71906 94.262741 
L 287.942371 90.769101 
L 288.165683 103.697087 
L 288.388994 98.310426 
L 288.612306 96.155762 
L 288.835618 99.649401 
L 289.058929 98.310426 
L 289.282241 111.498957 
L 289.505553 111.498957 
L 290.175488 100.46509 
L 290.398799 102.619755 
L 290.622111 101.542422 
L 290.845423 95.894119 
L 291.068734 103.697087 
L 291.292046 101.542422 
L 291.738669 112.576289 
L 291.961981 107.190726 
L 292.185293 105.036062 
L 292.408604 100.726733 
L 292.631916 99.911044 
L 293.525163 116.833326 
L 293.748474 115.755994 
L 293.971786 115.755994 
L 294.418409 110.107691 
L 294.641721 100.412799 
L 294.865033 108.215767 
L 295.088344 104.72103 
L 295.311656 104.72103 
L 295.534967 99.096452 
L 295.758279 103.644795 
L 295.981591 102.327352 
L 296.204902 107.714012 
L 296.651526 131.36193 
L 296.874837 126.790958 
L 297.098149 131.36193 
L 297.321461 117.910658 
L 297.544772 116.571683 
L 297.768084 110.946008 
L 297.991396 121.142655 
L 298.214707 121.142655 
L 298.438019 121.404298 
L 298.884642 130.546241 
L 299.331266 119.774017 
L 299.554577 125.15958 
L 299.777889 123.004916 
L 300.001201 114.387356 
L 300.224512 121.112992 
L 300.894447 162.31106 
L 301.117759 142.658537 
L 301.341071 146.966768 
L 301.564382 149.121432 
L 301.787694 147.782457 
L 302.011006 134.331186 
L 302.68094 145.890533 
L 302.904252 134.593926 
L 303.127564 139.164897 
L 303.350875 135.408518 
L 303.574187 137.824825 
L 304.02081 129.760214 
L 304.244122 127.86829 
L 304.467434 139.164897 
L 304.690745 136.48585 
L 304.914057 129.259557 
L 305.36068 133.568885 
L 305.583992 140.031781 
L 306.030615 135.962564 
L 306.253927 141.610867 
L 306.477239 135.146875 
L 306.70055 138.378871 
L 306.923862 133.8079 
L 307.147174 147.520814 
L 307.370485 146.705125 
L 307.593797 152.091785 
L 307.817109 151.830142 
L 308.04042 150.75281 
L 308.263732 145.104507 
L 308.710355 153.722066 
L 308.933667 155.062139 
L 309.156978 162.602366 
L 309.603602 158.293038 
L 310.050225 160.447702 
L 310.496848 156.69242 
L 310.72016 157.769752 
L 310.943472 154.537756 
L 311.166783 155.615088 
L 311.390095 159.662773 
L 311.613407 155.353445 
L 311.836718 154.276113 
L 312.283342 149.72777 
L 312.953277 157.769752 
L 313.176588 149.72777 
L 313.3999 147.573105 
L 313.846523 160.499994 
L 314.069835 163.470347 
L 314.293147 159.161018 
L 314.73977 171.273314 
L 314.963082 172.350647 
L 315.186393 172.350647 
L 315.409705 178.237965 
L 315.633017 179.053654 
L 315.856328 189.010188 
L 316.07964 185.778192 
L 316.749575 205.984762 
L 316.972886 208.139426 
L 317.196198 204.668415 
L 317.41951 198.204423 
L 317.642821 180.997869 
L 317.866133 180.183277 
L 318.089445 182.336844 
L 318.312756 176.688541 
L 318.536068 176.951281 
L 318.75938 185.830484 
L 318.982691 175.612306 
L 319.429315 170.225645 
L 319.652626 180.183277 
L 319.875938 175.873949 
L 320.322561 175.873949 
L 320.545873 175.612306 
L 320.992496 185.830484 
L 321.215808 183.676916 
L 321.43912 173.457642 
L 321.662431 172.380309 
L 321.885743 173.457642 
L 322.109055 172.117569 
L 322.332366 160.844688 
L 322.778989 172.117569 
L 323.002301 171.041334 
L 323.225613 167.809338 
L 323.448924 156.797003 
L 323.672236 153.804021 
L 323.895548 157.29766 
L 324.342171 154.328404 
L 324.565483 143.555083 
L 324.788794 151.620791 
L 325.012106 150.805102 
L 325.235418 147.049819 
L 325.458729 152.697026 
L 325.682041 148.388795 
L 325.905353 147.049819 
L 326.128664 152.697026 
L 326.351976 149.203386 
L 326.575288 148.126054 
L 326.798599 151.620791 
L 327.245223 170.195982 
L 327.468534 161.315683 
L 327.691846 162.654658 
L 327.915158 165.886654 
L 328.138469 162.393015 
L 328.361781 161.315683 
L 328.585093 158.899375 
L 328.808404 168.857007 
L 329.031716 172.350647 
L 329.478339 166.702343 
L 329.701651 174.242571 
L 329.924962 174.242571 
L 330.148274 166.17796 
L 330.371586 166.439603 
L 330.594897 155.144093 
L 331.041521 164.286036 
L 331.264832 157.822043 
L 331.488144 157.822043 
L 331.711456 150.019076 
L 332.158079 161.577326 
L 332.604702 164.809322 
L 333.051326 155.11443 
L 333.721261 163.971004 
L 333.944572 173.63733 
L 334.167884 223.318713 
L 334.391196 210.421488 
L 334.614507 208.027809 
L 334.837819 213.915127 
L 335.061131 206.373802 
L 335.284442 211.49882 
L 335.507754 200.486484 
L 335.731066 200.224841 
L 335.954377 211.49882 
L 336.177689 204.795813 
L 336.401001 211.49882 
L 336.624312 212.576152 
L 336.847624 220.37912 
L 337.070935 220.37912 
L 337.294247 215.808148 
L 337.517559 215.808148 
L 337.74087 214.730816 
L 337.964182 207.189491 
L 338.187494 208.027809 
L 338.410805 213.653484 
L 338.857429 215.808148 
L 339.08074 213.151729 
L 339.304052 215.306394 
L 339.973987 212.074397 
L 340.197299 221.770386 
L 340.42061 222.032029 
L 340.643922 217.461058 
L 340.867234 216.383726 
L 341.313857 212.837795 
L 341.537169 214.992459 
L 341.76048 200.988239 
L 341.983792 202.065571 
L 342.207104 210.683131 
L 342.653727 208.528466 
L 343.10035 218.486098 
L 343.546973 210.421488 
L 343.770285 212.576152 
L 343.993597 203.718481 
L 344.216908 213.653484 
L 344.44022 214.730816 
L 344.663532 211.760463 
L 344.886843 211.49882 
L 345.110155 210.182473 
L 345.333467 213.915127 
L 345.556778 206.112159 
L 345.78009 202.327214 
L 346.003402 206.082496 
L 346.226713 197.464937 
L 346.450025 195.310273 
L 346.673337 201.773168 
L 346.896648 201.773168 
L 347.343272 212.808132 
L 347.566583 208.237161 
L 347.789895 211.469157 
L 348.013207 201.511525 
L 348.236518 203.927832 
L 348.45983 198.017886 
L 348.683142 202.327214 
L 348.906453 203.404546 
L 349.129765 200.17255 
L 349.353077 190.791593 
L 349.576388 195.601578 
L 349.7997 185.643946 
L 350.023012 169.798997 
L 350.246323 173.030993 
L 350.469635 171.953661 
L 350.692946 211.289468 
L 350.916258 213.967418 
L 351.586193 237.06129 
L 351.809505 236.799647 
L 352.032816 224.688448 
L 352.47944 254.035863 
L 352.702751 255.113196 
L 352.926063 254.035863 
L 353.149375 246.232896 
L 353.595998 240.584592 
L 353.81931 241.924664 
L 354.042621 250.803867 
L 354.265933 240.031643 
L 354.489245 240.293286 
L 354.712556 242.186307 
L 355.15918 230.074011 
L 355.382491 225.211734 
L 355.829115 237.32403 
L 356.052426 253.430623 
L 356.275738 260.417902 
L 356.722361 255.585287 
L 356.945673 262.309826 
L 357.168984 253.430623 
L 357.392296 259.078927 
L 357.615608 252.353291 
L 357.838919 254.769598 
L 358.062231 254.769598 
L 358.285543 252.614934 
L 358.508854 257.686563 
L 358.732166 271.137834 
L 358.955478 268.721527 
L 359.178789 256.871971 
L 359.402101 263.334866 
L 359.625413 261.442942 
L 359.848724 267.905838 
L 360.072036 257.447548 
L 360.295348 265.227888 
L 360.518659 266.566863 
L 360.741971 259.841227 
L 360.965283 270.876191 
L 361.411906 266.066205 
L 361.635218 261.495234 
L 361.858529 263.911541 
L 362.081841 261.756877 
L 362.305153 264.150556 
L 362.528464 263.073223 
L 362.751776 270.614548 
L 362.975088 267.143537 
L 363.198399 268.459884 
L 363.421711 266.066205 
L 363.645023 267.143537 
L 363.868334 270.614548 
L 364.091646 267.143537 
L 364.314957 266.880797 
L 364.538269 263.649898 
L 364.761581 272.529101 
L 364.984892 271.451769 
L 365.208204 278.993093 
L 365.431516 265.541822 
L 365.654827 273.34479 
L 365.878139 266.880797 
L 366.101451 271.451769 
L 366.324762 279.232108 
L 366.548074 273.606433 
L 366.771386 273.606433 
L 367.218009 268.459884 
L 367.441321 261.495234 
L 367.664632 269.298202 
L 367.887944 281.147758 
L 368.111256 269.85115 
L 368.334567 277.392475 
L 369.004502 313.465526 
L 369.227814 298.93802 
L 369.451126 297.860688 
L 369.674437 302.168919 
L 369.897749 303.508991 
L 370.121061 294.367049 
L 370.344372 296.520616 
L 370.567684 295.443284 
L 370.790995 303.246251 
L 371.014307 295.443284 
L 371.46093 288.980388 
L 371.684242 293.55136 
L 371.907554 290.05772 
L 372.130865 284.67106 
L 372.354177 288.164699 
L 372.577489 293.55136 
L 373.024112 280.886114 
L 373.247424 281.963447 
L 373.694047 291.919981 
L 373.917359 284.118111 
L 374.14067 291.919981 
L 374.363982 290.842649 
L 374.587294 286.271678 
L 374.810605 286.534418 
L 375.257229 274.683765 
L 375.703852 280.30944 
L 375.927164 282.22509 
L 376.150475 272.769212 
L 376.597099 282.464104 
L 376.82041 280.30944 
L 377.043722 280.30944 
L 377.490345 285.6961 
L 377.936968 278.154776 
L 378.16028 268.459884 
L 378.383592 279.494848 
L 378.606903 280.571083 
L 378.830215 274.923877 
L 379.053527 277.340184 
L 379.276838 286.219386 
L 379.50015 288.374051 
L 379.723462 286.219386 
L 379.946773 288.374051 
L 380.170085 288.374051 
L 380.393397 290.267072 
L 380.616708 282.464104 
L 380.84002 280.30944 
L 381.063332 279.494848 
L 381.286643 280.571083 
L 381.509955 278.154776 
L 381.733267 284.880411 
L 381.956578 285.142054 
L 382.17989 291.86769 
L 382.403202 279.756491 
L 382.626513 288.636791 
L 382.849825 282.172798 
L 383.073137 260.103967 
L 383.296448 268.721527 
L 383.51976 262.257534 
L 383.743072 268.721527 
L 383.966383 271.69188 
L 384.189695 280.833823 
L 384.636318 249.907321 
L 384.85963 256.370216 
L 385.082941 247.752657 
L 385.306253 230.51644 
L 385.529565 231.331032 
L 385.752876 238.347974 
L 385.976188 241.57997 
L 386.1995 268.512175 
L 386.422811 272.267458 
L 386.646123 266.880797 
L 386.869435 264.72723 
L 387.092746 267.696486 
L 387.316058 260.156259 
L 387.53937 261.233591 
L 387.762681 258.001595 
L 388.209305 249.121295 
L 388.432616 249.121295 
L 388.655928 254.769598 
L 388.87924 256.924262 
L 389.102551 252.091648 
L 389.325863 253.167883 
L 389.549175 263.125515 
L 389.772486 254.245215 
L 389.995798 273.083147 
L 390.442421 251.828908 
L 390.665733 260.709208 
L 391.112356 253.692266 
L 391.335668 257.738854 
L 391.558979 251.014316 
L 391.782291 258.554543 
L 392.005603 257.477211 
L 392.228914 259.893519 
L 392.452226 255.585287 
L 392.675538 254.245215 
L 392.898849 249.936984 
L 393.122161 242.657302 
L 393.345473 246.96663 
L 393.568784 240.240995 
L 393.792096 243.472991 
L 394.015408 249.121295 
L 394.238719 245.627655 
L 394.462031 250.198627 
L 394.685343 251.537602 
L 394.908654 253.692266 
L 395.355278 241.84271 
L 395.801901 257.447548 
L 396.025213 255.292884 
L 396.248524 263.073223 
L 396.471836 255.292884 
L 396.695148 265.227888 
L 396.918459 257.447548 
L 397.141771 260.679545 
L 397.365083 253.953909 
L 397.588394 256.108573 
L 397.811706 264.150556 
L 398.258329 242.365996 
L 398.481641 245.597993 
L 398.928264 237.48109 
L 399.151576 240.683424 
L 399.374887 235.535778 
L 399.598199 239.845106 
L 399.821511 221.531558 
L 400.044822 223.44611 
L 400.268134 227.755439 
L 400.491446 245.231767 
L 400.938069 239.815443 
L 401.161381 226.573524 
L 401.384692 227.389213 
L 401.608004 219.033296 
L 402.054627 233.299159 
L 402.501251 215.299545 
L 402.947874 226.072866 
L 403.171186 225.234549 
L 403.394497 230.882852 
L 403.617809 229.543877 
L 403.841121 223.918202 
L 404.064432 231.698541 
L 404.287744 225.234549 
L 404.511056 224.157216 
L 404.734367 233.037516 
L 404.957679 224.157216 
L 405.18099 235.19218 
L 405.404302 240.577744 
L 405.627614 231.698541 
L 405.850925 231.698541 
L 406.074237 231.960184 
L 406.297549 228.728188 
L 406.52086 227.650856 
L 406.967484 216.376877 
L 407.190795 220.92522 
L 407.414107 220.110628 
L 407.637419 209.59895 
L 407.86073 216.586229 
L 408.084042 206.368051 
L 408.307354 209.59895 
L 408.530665 217.140275 
L 408.753977 202.372657 
L 408.977289 200.217993 
L 409.423912 209.913982 
L 409.647224 207.497675 
L 409.870535 207.759318 
L 410.093847 208.83665 
L 410.317159 217.454209 
L 410.54047 216.376877 
L 410.763782 216.376877 
L 410.987094 215.037902 
L 411.210405 208.57391 
L 411.657029 215.037902 
L 411.88034 212.883238 
L 412.103652 213.144881 
L 412.326963 206.681985 
L 412.550275 213.384993 
L 412.773587 203.188346 
L 412.996898 202.111014 
L 413.22021 205.34301 
L 413.443522 202.926703 
L 413.666833 208.57391 
L 413.890145 208.83665 
L 414.113457 214.462325 
L 414.336768 216.878632 
L 414.56008 228.989831 
L 415.006703 234.376491 
L 415.230015 230.882852 
L 415.453327 234.376491 
L 415.676638 249.982427 
L 415.89995 243.256791 
L 416.123262 248.643452 
L 416.346573 247.56612 
L 416.569885 242.995148 
L 416.793197 233.853205 
L 417.23982 257.261011 
L 417.463132 249.719687 
L 417.909755 259.415676 
L 418.133067 256.183679 
L 418.356378 260.493008 
L 418.57969 261.57034 
L 418.803002 256.183679 
L 419.026313 264.802336 
L 419.249625 264.802336 
L 419.472936 262.647672 
L 419.696248 256.999368 
L 420.142871 263.986647 
L 420.366183 259.677319 
L 420.589495 261.256405 
L 420.812806 255.869745 
L 421.036118 261.518048 
L 421.25943 250.24407 
L 421.482741 265.827377 
L 421.706053 264.487305 
L 421.929365 261.256405 
L 422.152676 247.56612 
L 422.375988 251.059759 
L 422.5993 252.137091 
L 422.822611 252.398734 
L 423.269235 254.553398 
L 423.492546 253.214423 
L 423.715858 261.256405 
L 423.93917 253.214423 
L 424.162481 257.522654 
L 424.385793 256.445322 
L 424.609105 259.938962 
L 424.832416 249.982427 
L 425.055728 248.089406 
L 425.502351 233.823542 
L 425.725663 244.020189 
L 425.948974 247.251088 
L 426.172286 247.012074 
L 426.395598 252.637749 
L 426.842221 232.169536 
L 427.065533 237.556196 
L 427.288844 238.394514 
L 427.512156 233.246868 
L 427.735468 235.162518 
L 427.958779 240.788193 
L 428.182091 230.591546 
L 428.628714 254.238367 
L 428.852026 255.315699 
L 429.075338 247.251088 
L 429.298649 247.251088 
L 429.968584 194.465107 
L 430.415208 212.778655 
L 430.638519 202.843652 
L 431.085143 199.612753 
L 431.531766 205.500071 
L 431.755078 205.761714 
L 431.978389 206.839046 
L 432.201701 194.72675 
L 432.425013 190.418518 
L 432.648324 180.984172 
L 432.871636 198.483129 
L 433.094947 202.529717 
L 433.764882 224.336905 
L 433.988194 224.075262 
L 434.211506 234.032894 
L 434.434817 234.294537 
L 434.658129 177.542825 
L 434.881441 196.619771 
L 435.104752 190.732453 
L 435.328064 173.234593 
L 435.551376 164.877579 
L 435.774687 137.422088 
L 435.997999 143.070392 
L 436.221311 159.490919 
L 436.444622 163.800247 
L 436.667934 152.76638 
L 437.114557 167.032244 
L 437.337869 169.687565 
L 437.561181 164.615936 
L 437.784492 168.925265 
L 438.007804 163.276961 
L 438.231116 171.632878 
L 438.454427 174.049185 
L 438.677739 169.478214 
L 438.901051 168.139239 
L 439.124362 175.942206 
L 439.347674 193.701709 
L 439.570985 186.97717 
L 439.794297 184.822506 
L 440.017609 198.27268 
L 440.24092 196.933705 
L 440.464232 196.933705 
L 440.687544 199.904058 
L 440.910855 206.629694 
L 441.134167 199.088369 
L 441.357479 199.904058 
L 441.58079 195.59473 
L 441.804102 196.933705 
L 442.027414 192.362734 
L 442.250725 199.904058 
L 442.474037 197.749394 
L 442.92066 197.749394 
L 443.143972 207.15298 
L 443.367284 211.462309 
L 443.590595 213.616973 
L 443.813907 208.784358 
L 444.037219 200.981391 
L 444.26053 204.47503 
L 444.483842 205.552362 
L 444.707154 202.320366 
L 444.930465 193.701709 
L 445.153777 198.53542 
L 445.377089 221.367649 
L 445.6004 216.796678 
L 446.047024 227.015953 
L 446.270335 219.212985 
L 446.493647 220.027577 
L 446.94027 228.384591 
L 447.163582 221.920598 
L 447.386893 224.075262 
L 447.610205 224.336905 
L 447.833517 225.152594 
L 448.056828 219.765934 
L 448.28014 222.182241 
L 448.503452 231.324184 
L 448.726763 228.907877 
L 449.173387 233.217205 
L 449.62001 229.723566 
L 449.843322 241.311479 
L 450.066633 245.88245 
L 450.289945 243.466143 
L 450.513257 245.88245 
L 450.736568 238.079482 
L 450.95988 243.727786 
L 451.183192 245.066761 
L 451.406503 241.573122 
L 451.629815 246.144093 
L 451.853127 245.88245 
L 452.076438 240.234147 
L 452.29975 241.311479 
L 452.523062 250.191778 
L 452.746373 249.114446 
L 452.969685 237.00215 
L 453.192996 238.079482 
L 453.416308 237.00215 
L 453.63962 237.00215 
L 454.086243 235.110226 
L 454.309555 233.771251 
L 454.532866 237.26489 
L 454.756178 231.616587 
L 454.97949 234.032894 
L 455.202801 231.616587 
L 455.426113 232.693919 
L 455.649425 230.014872 
L 455.872736 238.895171 
L 456.096048 228.698525 
L 456.31936 228.937539 
L 456.542671 230.276515 
L 456.765983 225.705543 
L 456.989295 232.431179 
L 457.212606 232.431179 
L 457.435918 222.234532 
L 457.65923 221.397312 
L 457.882541 221.397312 
L 458.105853 222.474644 
L 458.329165 225.705543 
L 458.552476 232.431179 
L 458.775788 229.20028 
L 458.9991 229.20028 
L 459.222411 225.705543 
L 459.445723 226.782875 
L 459.669035 225.705543 
L 459.892346 218.740893 
L 460.115658 221.1572 
L 460.338969 214.169922 
L 460.785593 219.003633 
L 461.008904 217.663561 
L 461.232216 217.663561 
L 461.678839 226.782875 
L 462.348774 241.835862 
L 462.572086 249.877844 
L 462.795398 244.252169 
L 463.018709 245.329501 
L 463.242021 240.49579 
L 463.688644 257.994746 
L 463.911956 256.917414 
L 464.135268 256.917414 
L 464.805203 249.376089 
L 465.028514 259.333721 
L 465.251826 255.840082 
L 465.475138 244.805118 
L 465.698449 243.727786 
L 465.921761 251.530754 
L 466.145073 249.114446 
L 466.591696 229.20028 
L 466.815008 234.847486 
L 467.038319 231.353847 
L 467.261631 233.508511 
L 467.484942 238.079482 
L 467.708254 237.817839 
L 467.931566 237.817839 
L 468.154877 232.169536 
L 468.378189 258.0767 
L 468.601501 246.780093 
L 468.824812 251.351065 
L 469.048124 265.355285 
L 469.271436 268.325638 
L 469.718059 265.93196 
L 469.941371 260.283656 
L 470.164682 273.472187 
L 470.611306 277.519873 
L 470.834617 276.704183 
L 471.504552 263.515652 
L 471.727864 263.515652 
L 471.951176 262.699963 
L 472.174487 259.467967 
L 472.397799 270.741945 
L 472.621111 273.973942 
L 473.067734 267.509949 
L 473.291046 254.321418 
L 473.514357 255.397653 
L 473.737669 242.470765 
L 473.96098 240.316101 
L 474.184292 252.428397 
L 474.407604 251.351065 
L 474.630915 245.702761 
L 474.854227 256.737725 
L 475.077539 246.780093 
L 475.30085 243.548097 
L 475.524162 243.309083 
L 475.747474 246.780093 
L 475.970785 243.548097 
L 476.194097 236.006772 
L 476.417409 234.114848 
L 476.64072 248.643452 
L 476.864032 245.148715 
L 477.310655 251.612708 
L 477.533967 251.874351 
L 477.757279 260.493008 
L 477.98059 253.767372 
L 478.203902 255.922036 
L 478.427214 253.505729 
L 478.650525 255.397653 
L 478.873837 245.463747 
L 479.097149 241.154418 
L 479.32046 240.077086 
L 479.767084 233.351451 
L 479.990395 234.428783 
L 480.213707 231.45843 
L 480.437019 233.037516 
L 480.883642 220.424563 
L 481.106953 225.811223 
L 481.330265 210.728574 
L 481.553577 209.913982 
L 482.0002 199.642415 
L 482.446823 202.611672 
L 482.670135 209.075664 
L 482.893447 205.843668 
L 483.34007 216.062943 
L 483.563382 212.830947 
L 483.786693 213.908279 
L 484.010005 206.921 
L 484.233317 209.337307 
L 484.456628 202.372657 
L 484.903252 204.766336 
L 485.126563 207.182643 
L 485.349875 215.247254 
L 485.796498 196.119113 
L 486.01981 219.504291 
L 486.243122 220.843266 
L 486.466433 224.336905 
L 486.689745 230.800898 
L 486.913057 228.384591 
L 487.35968 238.027191 
L 487.582991 227.830545 
L 487.806303 234.55618 
L 488.252926 226.753212 
L 488.476238 232.401516 
L 488.69955 241.020173 
L 489.146173 238.865509 
L 489.369485 238.865509 
L 489.592796 243.174837 
L 489.816108 235.371869 
L 490.03942 245.568516 
L 490.486043 245.568516 
L 490.709355 243.174837 
L 490.932666 243.174837 
L 491.155978 238.603865 
L 491.37929 241.835862 
L 491.602601 255.024393 
L 491.825913 260.650068 
L 492.049225 260.911711 
L 492.272536 253.108743 
L 492.71916 255.526148 
L 492.942471 248.5604 
L 493.165783 266.298371 
L 493.389095 274.917028 
L 493.612406 267.375703 
L 494.05903 278.933954 
L 494.282341 280.011286 
L 494.728964 264.40535 
L 494.952276 268.714679 
L 495.398899 256.340739 
L 495.622211 256.340739 
L 495.845523 257.942455 
L 496.068834 255.526148 
L 496.292146 259.28143 
L 496.515458 259.834379 
L 496.738769 265.221039 
L 496.962081 261.989043 
L 497.408704 271.423389 
L 497.632016 263.38031 
L 497.855328 260.14941 
L 498.078639 266.612306 
L 498.301951 276.808952 
L 498.525263 258.256389 
L 498.748574 261.7274 
L 498.971886 261.488385 
L 499.195198 255.578439 
L 499.418509 266.612306 
L 499.641821 263.118667 
L 500.088444 265.273331 
L 500.311756 255.315699 
L 500.535068 261.779691 
L 500.758379 263.672713 
L 501.205003 256.947077 
L 501.428314 261.518048 
L 501.651626 263.409972 
L 502.098249 245.934741 
L 502.321561 244.020189 
L 502.544872 236.23985 
L 502.768184 236.23985 
L 502.991496 237.317182 
L 503.214807 246.173756 
L 503.661431 240.788193 
L 503.884742 240.548081 
L 504.108054 237.054442 
L 504.331366 240.548081 
L 504.554677 240.548081 
L 504.777989 237.317182 
L 505.001301 235.97711 
L 505.224612 238.895171 
L 505.447924 236.740507 
L 505.671236 241.049836 
L 505.894547 241.049836 
L 506.117859 234.3242 
L 506.341171 241.049836 
L 506.564482 242.942857 
L 507.011106 252.637749 
L 507.234417 247.251088 
L 507.457729 248.32842 
L 507.681041 251.560416 
L 507.904352 250.24407 
L 508.574287 238.131774 
L 509.02091 247.012074 
L 509.244222 244.857409 
L 509.467534 245.934741 
L 509.690845 248.089406 
L 509.914157 235.97711 
L 510.137469 241.865525 
L 510.36078 241.625413 
L 510.584092 244.595766 
L 510.807404 242.441102 
L 511.030715 242.441102 
L 511.254027 254.553398 
L 511.477339 256.708062 
L 511.70065 251.059759 
L 511.923962 239.501509 
L 512.147274 238.424177 
L 512.370585 238.68582 
L 512.593897 231.698541 
L 512.817209 228.22753 
L 513.04052 228.466545 
L 513.263832 227.650856 
L 513.487144 225.496192 
L 513.710455 234.638134 
L 513.933767 234.376491 
L 514.38039 248.905095 
L 514.603702 244.334123 
L 514.827014 246.488787 
L 515.050325 249.982427 
L 515.273637 243.256791 
L 515.496948 245.411455 
L 515.72026 239.763152 
L 515.943572 237.084105 
L 516.166883 241.655076 
L 516.613507 256.737725 
L 516.836818 251.351065 
L 517.06013 255.660393 
L 517.283442 237.608488 
L 517.506753 253.476066 
L 517.953377 259.88667 
L 518.176688 260.702359 
L 518.4 257.733103 
L 518.4 257.733103 
" style="fill:none;stroke:#4c72b0;stroke-linecap:round;stroke-width:1.75;"/>
   </g>
   <g id="patch_3">
    <path d="M 72 356.4 
L 518.4 356.4 
" style="fill:none;"/>
   </g>
   <g id="patch_4">
    <path d="M 72 39.6 
L 518.4 39.6 
" style="fill:none;"/>
   </g>
   <g id="patch_5">
    <path d="M 72 356.4 
L 72 39.6 
" style="fill:none;"/>
   </g>
   <g id="patch_6">
    <path d="M 518.4 356.4 
L 518.4 39.6 
" style="fill:none;"/>
   </g>
   <g id="text_14">
    <!-- TA - 0.04848204985887124 * ni -->
    <defs>
     <path d="M 9.125 0 
L 9.125 10.6875 
L 18.65625 10.6875 
L 18.65625 0 
z
" id="LiberationSans-2e"/>
     <path d="M 56.984375 0 
L 49.125 20.125 
L 17.78125 20.125 
L 9.859375 0 
L 0.203125 0 
L 28.265625 68.796875 
L 38.875 68.796875 
L 66.5 0 
z
M 37.5 50.09375 
Q 36.71875 52.046875 36 54.046875 
Q 35.296875 56.0625 34.765625 57.6875 
Q 34.234375 59.328125 33.859375 60.421875 
Q 33.5 61.53125 33.453125 61.765625 
Q 33.34375 61.53125 33 60.40625 
Q 32.671875 59.28125 32.109375 57.609375 
Q 31.546875 55.953125 30.828125 53.953125 
Q 30.125 51.953125 29.390625 50 
L 20.609375 27.390625 
L 46.34375 27.390625 
z
" id="LiberationSans-41"/>
     <path d="M 35.15625 61.1875 
L 35.15625 0 
L 25.875 0 
L 25.875 61.1875 
L 2.25 61.1875 
L 2.25 68.796875 
L 58.796875 68.796875 
L 58.796875 61.1875 
z
" id="LiberationSans-54"/>
     <path d="M 40.28125 0 
L 40.28125 33.5 
Q 40.28125 37.359375 39.71875 39.9375 
Q 39.15625 42.53125 37.890625 44.109375 
Q 36.625 45.703125 34.546875 46.359375 
Q 32.46875 47.015625 29.390625 47.015625 
Q 26.265625 47.015625 23.75 45.921875 
Q 21.234375 44.828125 19.453125 42.75 
Q 17.671875 40.671875 16.6875 37.625 
Q 15.71875 34.578125 15.71875 30.609375 
L 15.71875 0 
L 6.9375 0 
L 6.9375 41.546875 
Q 6.9375 43.21875 6.90625 45.046875 
Q 6.890625 46.875 6.828125 48.5 
Q 6.78125 50.140625 6.734375 51.3125 
Q 6.6875 52.484375 6.640625 52.828125 
L 14.9375 52.828125 
Q 14.984375 52.59375 15.03125 51.515625 
Q 15.09375 50.4375 15.15625 49.046875 
Q 15.234375 47.65625 15.28125 46.21875 
Q 15.328125 44.78125 15.328125 43.796875 
L 15.484375 43.796875 
Q 16.75 46.09375 18.265625 47.953125 
Q 19.78125 49.8125 21.78125 51.09375 
Q 23.78125 52.390625 26.359375 53.09375 
Q 28.953125 53.8125 32.375 53.8125 
Q 36.765625 53.8125 39.9375 52.734375 
Q 43.109375 51.65625 45.15625 49.40625 
Q 47.21875 47.171875 48.171875 43.625 
Q 49.125 40.09375 49.125 35.203125 
L 49.125 0 
z
" id="LiberationSans-6e"/>
     <path d="M 22.265625 54.390625 
L 35.15625 59.421875 
L 37.359375 52.984375 
L 23.578125 49.421875 
L 32.625 37.203125 
L 26.8125 33.6875 
L 19.484375 46.296875 
L 11.859375 33.796875 
L 6.0625 37.3125 
L 15.28125 49.421875 
L 1.609375 52.984375 
L 3.8125 59.515625 
L 16.84375 54.296875 
L 16.265625 68.796875 
L 22.90625 68.796875 
z
" id="LiberationSans-2a"/>
    </defs>
    <g style="fill:#262626;" transform="translate(210.1490625 34.6)scale(0.12 -0.12)">
     <use xlink:href="#LiberationSans-54"/>
     <use x="60.974609375" xlink:href="#LiberationSans-41"/>
     <use x="127.595703125" xlink:href="#LiberationSans-20"/>
     <use x="155.37890625" xlink:href="#LiberationSans-2d"/>
     <use x="188.6796875" xlink:href="#LiberationSans-20"/>
     <use x="216.462890625" xlink:href="#LiberationSans-30"/>
     <use x="272.078125" xlink:href="#LiberationSans-2e"/>
     <use x="299.861328125" xlink:href="#LiberationSans-30"/>
     <use x="355.4765625" xlink:href="#LiberationSans-34"/>
     <use x="411.091796875" xlink:href="#LiberationSans-38"/>
     <use x="466.70703125" xlink:href="#LiberationSans-34"/>
     <use x="522.322265625" xlink:href="#LiberationSans-38"/>
     <use x="577.9375" xlink:href="#LiberationSans-32"/>
     <use x="633.552734375" xlink:href="#LiberationSans-30"/>
     <use x="689.16796875" xlink:href="#LiberationSans-34"/>
     <use x="744.783203125" xlink:href="#LiberationSans-39"/>
     <use x="800.3984375" xlink:href="#LiberationSans-38"/>
     <use x="856.013671875" xlink:href="#LiberationSans-35"/>
     <use x="911.62890625" xlink:href="#LiberationSans-38"/>
     <use x="967.244140625" xlink:href="#LiberationSans-38"/>
     <use x="1022.859375" xlink:href="#LiberationSans-37"/>
     <use x="1078.474609375" xlink:href="#LiberationSans-31"/>
     <use x="1134.08984375" xlink:href="#LiberationSans-32"/>
     <use x="1189.705078125" xlink:href="#LiberationSans-34"/>
     <use x="1245.3203125" xlink:href="#LiberationSans-20"/>
     <use x="1273.103515625" xlink:href="#LiberationSans-2a"/>
     <use x="1312.01953125" xlink:href="#LiberationSans-20"/>
     <use x="1339.802734375" xlink:href="#LiberationSans-6e"/>
     <use x="1395.41796875" xlink:href="#LiberationSans-69"/>
    </g>
   </g>
  </g>
 </g>
 <defs>
  <clipPath id="p1e74710515">
   <rect height="316.8" width="446.4" x="72.0" y="39.6"/>
  </clipPath>
 </defs>
</svg>
