<?xml version="1.0" encoding="utf-8" standalone="no"?>
<!DOCTYPE svg PUBLIC "-//W3C//DTD SVG 1.1//EN"
  "http://www.w3.org/Graphics/SVG/1.1/DTD/svg11.dtd">
<!-- Created with matplotlib (http://matplotlib.org/) -->
<svg height="396pt" version="1.1" viewBox="0 0 576 396" width="576pt" xmlns="http://www.w3.org/2000/svg" xmlns:xlink="http://www.w3.org/1999/xlink">
 <defs>
  <style type="text/css">
*{stroke-linecap:butt;stroke-linejoin:round;stroke-miterlimit:100000;}
  </style>
 </defs>
 <g id="figure_1">
  <g id="patch_1">
   <path d="M 0 396 
L 576 396 
L 576 0 
L 0 0 
z
" style="fill:#ffffff;"/>
  </g>
  <g id="axes_1">
   <g id="patch_2">
    <path d="M 72 356.4 
L 518.4 356.4 
L 518.4 39.6 
L 72 39.6 
z
" style="fill:#eaeaf2;"/>
   </g>
   <g id="matplotlib.axis_1">
    <g id="xtick_1">
     <g id="line2d_1">
      <path clip-path="url(#p5e8bc218e6)" d="M 72 356.4 
L 72 39.6 
" style="fill:none;stroke:#ffffff;stroke-linecap:round;"/>
     </g>
     <g id="line2d_2"/>
     <g id="line2d_3"/>
     <g id="text_1">
      <!-- 2015-11-16 10:12:00 -->
      <defs>
       <path d="M 5.03125 0 
L 5.03125 6.203125 
Q 7.515625 11.921875 11.109375 16.28125 
Q 14.703125 20.65625 18.65625 24.1875 
Q 22.609375 27.734375 26.484375 30.765625 
Q 30.375 33.796875 33.5 36.8125 
Q 36.625 39.84375 38.546875 43.15625 
Q 40.484375 46.484375 40.484375 50.6875 
Q 40.484375 53.609375 39.59375 55.828125 
Q 38.71875 58.0625 37.0625 59.5625 
Q 35.40625 61.078125 33.078125 61.828125 
Q 30.765625 62.59375 27.9375 62.59375 
Q 25.296875 62.59375 22.96875 61.859375 
Q 20.65625 61.140625 18.84375 59.671875 
Q 17.046875 58.203125 15.890625 56.03125 
Q 14.75 53.859375 14.40625 50.984375 
L 5.421875 51.8125 
Q 5.859375 55.515625 7.46875 58.78125 
Q 9.078125 62.0625 11.90625 64.53125 
Q 14.75 67 18.71875 68.40625 
Q 22.703125 69.828125 27.9375 69.828125 
Q 33.0625 69.828125 37.0625 68.609375 
Q 41.0625 67.390625 43.8125 64.984375 
Q 46.578125 62.59375 48.046875 59.078125 
Q 49.515625 55.5625 49.515625 50.984375 
Q 49.515625 47.515625 48.265625 44.390625 
Q 47.015625 41.265625 44.9375 38.421875 
Q 42.875 35.59375 40.140625 32.953125 
Q 37.40625 30.328125 34.421875 27.8125 
Q 31.453125 25.296875 28.421875 22.828125 
Q 25.390625 20.359375 22.71875 17.859375 
Q 20.0625 15.375 17.96875 12.8125 
Q 15.875 10.25 14.703125 7.46875 
L 50.59375 7.46875 
L 50.59375 0 
z
" id="LiberationSans-32"/>
       <path d="M 7.625 0 
L 7.625 7.46875 
L 25.140625 7.46875 
L 25.140625 60.40625 
L 9.625 49.3125 
L 9.625 57.625 
L 25.875 68.796875 
L 33.984375 68.796875 
L 33.984375 7.46875 
L 50.734375 7.46875 
L 50.734375 0 
z
" id="LiberationSans-31"/>
       <path d="M 51.703125 34.421875 
Q 51.703125 24.515625 49.828125 17.75 
Q 47.953125 10.984375 44.703125 6.8125 
Q 41.453125 2.640625 37.0625 0.828125 
Q 32.671875 -0.984375 27.6875 -0.984375 
Q 22.65625 -0.984375 18.3125 0.828125 
Q 13.96875 2.640625 10.765625 6.78125 
Q 7.5625 10.9375 5.734375 17.703125 
Q 3.90625 24.46875 3.90625 34.421875 
Q 3.90625 44.828125 5.734375 51.640625 
Q 7.5625 58.453125 10.78125 62.5 
Q 14.015625 66.546875 18.40625 68.1875 
Q 22.796875 69.828125 27.984375 69.828125 
Q 32.90625 69.828125 37.21875 68.1875 
Q 41.546875 66.546875 44.765625 62.5 
Q 48 58.453125 49.84375 51.640625 
Q 51.703125 44.828125 51.703125 34.421875 
M 42.78125 34.421875 
Q 42.78125 42.625 41.796875 48.0625 
Q 40.828125 53.515625 38.921875 56.765625 
Q 37.015625 60.015625 34.25 61.359375 
Q 31.5 62.703125 27.984375 62.703125 
Q 24.265625 62.703125 21.4375 61.328125 
Q 18.609375 59.96875 16.671875 56.71875 
Q 14.75 53.46875 13.765625 48.015625 
Q 12.796875 42.578125 12.796875 34.421875 
Q 12.796875 26.515625 13.796875 21.09375 
Q 14.796875 15.671875 16.71875 12.375 
Q 18.65625 9.078125 21.4375 7.640625 
Q 24.21875 6.203125 27.78125 6.203125 
Q 31.25 6.203125 34.03125 7.640625 
Q 36.8125 9.078125 38.734375 12.375 
Q 40.671875 15.671875 41.71875 21.09375 
Q 42.78125 26.515625 42.78125 34.421875 
" id="LiberationSans-30"/>
       <path d="M 9.125 42.71875 
L 9.125 52.828125 
L 18.65625 52.828125 
L 18.65625 42.71875 
z
M 9.125 0 
L 9.125 10.109375 
L 18.65625 10.109375 
L 18.65625 0 
z
" id="LiberationSans-3a"/>
       <path d="M 51.421875 22.40625 
Q 51.421875 17.234375 49.859375 12.9375 
Q 48.296875 8.640625 45.21875 5.53125 
Q 42.140625 2.4375 37.578125 0.71875 
Q 33.015625 -0.984375 27 -0.984375 
Q 21.578125 -0.984375 17.546875 0.28125 
Q 13.53125 1.5625 10.734375 3.78125 
Q 7.953125 6 6.3125 8.984375 
Q 4.6875 11.96875 4 15.375 
L 12.890625 16.40625 
Q 13.421875 14.453125 14.390625 12.625 
Q 15.375 10.796875 17.0625 9.34375 
Q 18.75 7.90625 21.21875 7.046875 
Q 23.6875 6.203125 27.203125 6.203125 
Q 30.609375 6.203125 33.390625 7.25 
Q 36.1875 8.296875 38.15625 10.34375 
Q 40.140625 12.40625 41.203125 15.375 
Q 42.28125 18.359375 42.28125 22.21875 
Q 42.28125 25.390625 41.25 28.046875 
Q 40.234375 30.71875 38.328125 32.640625 
Q 36.421875 34.578125 33.65625 35.640625 
Q 30.90625 36.71875 27.390625 36.71875 
Q 25.203125 36.71875 23.34375 36.328125 
Q 21.484375 35.9375 19.890625 35.25 
Q 18.3125 34.578125 17.015625 33.671875 
Q 15.71875 32.765625 14.59375 31.78125 
L 6 31.78125 
L 8.296875 68.796875 
L 47.40625 68.796875 
L 47.40625 61.328125 
L 16.3125 61.328125 
L 14.984375 39.5 
Q 17.328125 41.3125 20.84375 42.59375 
Q 24.359375 43.890625 29.203125 43.890625 
Q 34.328125 43.890625 38.421875 42.328125 
Q 42.53125 40.765625 45.40625 37.90625 
Q 48.296875 35.0625 49.859375 31.109375 
Q 51.421875 27.15625 51.421875 22.40625 
" id="LiberationSans-35"/>
       <path id="LiberationSans-20"/>
       <path d="M 4.4375 22.65625 
L 4.4375 30.46875 
L 28.859375 30.46875 
L 28.859375 22.65625 
z
" id="LiberationSans-2d"/>
       <path d="M 51.21875 22.515625 
Q 51.21875 17.328125 49.78125 13 
Q 48.34375 8.6875 45.53125 5.578125 
Q 42.71875 2.484375 38.5625 0.75 
Q 34.421875 -0.984375 29 -0.984375 
Q 23 -0.984375 18.5 1.3125 
Q 14.015625 3.609375 11.03125 7.921875 
Q 8.0625 12.25 6.5625 18.53125 
Q 5.078125 24.8125 5.078125 32.8125 
Q 5.078125 42 6.765625 48.921875 
Q 8.453125 55.859375 11.625 60.5 
Q 14.796875 65.140625 19.359375 67.484375 
Q 23.921875 69.828125 29.6875 69.828125 
Q 33.203125 69.828125 36.28125 69.09375 
Q 39.359375 68.359375 41.875 66.71875 
Q 44.390625 65.09375 46.28125 62.40625 
Q 48.1875 59.71875 49.3125 55.8125 
L 40.921875 54.296875 
Q 39.546875 58.734375 36.546875 60.71875 
Q 33.546875 62.703125 29.59375 62.703125 
Q 25.984375 62.703125 23.046875 60.984375 
Q 20.125 59.28125 18.0625 55.875 
Q 16.015625 52.484375 14.90625 47.359375 
Q 13.8125 42.234375 13.8125 35.40625 
Q 16.21875 39.84375 20.5625 42.15625 
Q 24.90625 44.484375 30.515625 44.484375 
Q 35.203125 44.484375 39.015625 42.96875 
Q 42.828125 41.453125 45.53125 38.59375 
Q 48.25 35.75 49.734375 31.671875 
Q 51.21875 27.59375 51.21875 22.515625 
M 42.28125 22.125 
Q 42.28125 25.6875 41.40625 28.5625 
Q 40.53125 31.453125 38.765625 33.46875 
Q 37.015625 35.5 34.421875 36.59375 
Q 31.84375 37.703125 28.421875 37.703125 
Q 26.03125 37.703125 23.578125 36.984375 
Q 21.140625 36.28125 19.15625 34.6875 
Q 17.1875 33.109375 15.9375 30.515625 
Q 14.703125 27.9375 14.703125 24.21875 
Q 14.703125 20.40625 15.671875 17.109375 
Q 16.65625 13.8125 18.484375 11.375 
Q 20.3125 8.9375 22.890625 7.515625 
Q 25.484375 6.109375 28.71875 6.109375 
Q 31.890625 6.109375 34.40625 7.203125 
Q 36.921875 8.296875 38.671875 10.375 
Q 40.4375 12.453125 41.359375 15.421875 
Q 42.28125 18.40625 42.28125 22.125 
" id="LiberationSans-36"/>
      </defs>
      <g style="fill:#262626;" transform="translate(25.5765625 370.646875)scale(0.1 -0.1)">
       <use xlink:href="#LiberationSans-32"/>
       <use x="55.615234375" xlink:href="#LiberationSans-30"/>
       <use x="111.23046875" xlink:href="#LiberationSans-31"/>
       <use x="166.845703125" xlink:href="#LiberationSans-35"/>
       <use x="222.4609375" xlink:href="#LiberationSans-2d"/>
       <use x="255.76171875" xlink:href="#LiberationSans-31"/>
       <use x="311.376953125" xlink:href="#LiberationSans-31"/>
       <use x="366.9921875" xlink:href="#LiberationSans-2d"/>
       <use x="400.29296875" xlink:href="#LiberationSans-31"/>
       <use x="455.908203125" xlink:href="#LiberationSans-36"/>
       <use x="511.5234375" xlink:href="#LiberationSans-20"/>
       <use x="539.306640625" xlink:href="#LiberationSans-31"/>
       <use x="594.921875" xlink:href="#LiberationSans-30"/>
       <use x="650.537109375" xlink:href="#LiberationSans-3a"/>
       <use x="678.3203125" xlink:href="#LiberationSans-31"/>
       <use x="733.935546875" xlink:href="#LiberationSans-32"/>
       <use x="789.55078125" xlink:href="#LiberationSans-3a"/>
       <use x="817.333984375" xlink:href="#LiberationSans-30"/>
       <use x="872.94921875" xlink:href="#LiberationSans-30"/>
      </g>
     </g>
    </g>
    <g id="xtick_2">
     <g id="line2d_4">
      <path clip-path="url(#p5e8bc218e6)" d="M 183.655828 356.4 
L 183.655828 39.6 
" style="fill:none;stroke:#ffffff;stroke-linecap:round;"/>
     </g>
     <g id="line2d_5"/>
     <g id="line2d_6"/>
     <g id="text_2">
      <!-- 2015-11-18 13:51:00 -->
      <defs>
       <path d="M 51.265625 19.1875 
Q 51.265625 14.796875 49.875 11.109375 
Q 48.484375 7.421875 45.625 4.734375 
Q 42.78125 2.046875 38.328125 0.53125 
Q 33.890625 -0.984375 27.828125 -0.984375 
Q 21.78125 -0.984375 17.359375 0.53125 
Q 12.9375 2.046875 10.03125 4.703125 
Q 7.125 7.375 5.734375 11.0625 
Q 4.34375 14.75 4.34375 19.09375 
Q 4.34375 22.859375 5.484375 25.78125 
Q 6.640625 28.71875 8.5625 30.828125 
Q 10.5 32.953125 12.96875 34.25 
Q 15.4375 35.546875 18.0625 35.984375 
L 18.0625 36.1875 
Q 15.1875 36.859375 12.90625 38.375 
Q 10.640625 39.890625 9.09375 42.015625 
Q 7.5625 44.140625 6.75 46.71875 
Q 5.953125 49.3125 5.953125 52.203125 
Q 5.953125 55.8125 7.34375 59 
Q 8.734375 62.203125 11.46875 64.625 
Q 14.203125 67.046875 18.25 68.4375 
Q 22.3125 69.828125 27.640625 69.828125 
Q 33.25 69.828125 37.375 68.40625 
Q 41.5 67 44.203125 64.578125 
Q 46.921875 62.15625 48.234375 58.9375 
Q 49.5625 55.71875 49.5625 52.09375 
Q 49.5625 49.265625 48.75 46.671875 
Q 47.953125 44.09375 46.40625 41.96875 
Q 44.875 39.84375 42.59375 38.34375 
Q 40.328125 36.859375 37.359375 36.28125 
L 37.359375 36.078125 
Q 40.328125 35.59375 42.859375 34.296875 
Q 45.40625 33.015625 47.265625 30.890625 
Q 49.125 28.765625 50.1875 25.828125 
Q 51.265625 22.90625 51.265625 19.1875 
M 40.4375 51.609375 
Q 40.4375 54.203125 39.765625 56.34375 
Q 39.109375 58.5 37.59375 60.03125 
Q 36.078125 61.578125 33.640625 62.421875 
Q 31.203125 63.28125 27.640625 63.28125 
Q 24.171875 63.28125 21.78125 62.421875 
Q 19.390625 61.578125 17.84375 60.03125 
Q 16.3125 58.5 15.625 56.34375 
Q 14.9375 54.203125 14.9375 51.609375 
Q 14.9375 49.5625 15.46875 47.40625 
Q 16.015625 45.265625 17.421875 43.5 
Q 18.84375 41.75 21.328125 40.625 
Q 23.828125 39.5 27.734375 39.5 
Q 31.890625 39.5 34.40625 40.625 
Q 36.921875 41.75 38.25 43.5 
Q 39.59375 45.265625 40.015625 47.40625 
Q 40.4375 49.5625 40.4375 51.609375 
M 42.140625 20.015625 
Q 42.140625 22.515625 41.453125 24.828125 
Q 40.765625 27.15625 39.109375 28.9375 
Q 37.453125 30.71875 34.640625 31.8125 
Q 31.84375 32.90625 27.640625 32.90625 
Q 23.78125 32.90625 21.0625 31.8125 
Q 18.359375 30.71875 16.671875 28.90625 
Q 14.984375 27.09375 14.203125 24.71875 
Q 13.421875 22.359375 13.421875 19.828125 
Q 13.421875 16.65625 14.203125 14.03125 
Q 14.984375 11.421875 16.6875 9.546875 
Q 18.40625 7.671875 21.1875 6.640625 
Q 23.96875 5.609375 27.9375 5.609375 
Q 31.9375 5.609375 34.671875 6.640625 
Q 37.40625 7.671875 39.0625 9.546875 
Q 40.71875 11.421875 41.421875 14.078125 
Q 42.140625 16.75 42.140625 20.015625 
" id="LiberationSans-38"/>
       <path d="M 51.21875 19 
Q 51.21875 14.265625 49.671875 10.546875 
Q 48.140625 6.84375 45.1875 4.265625 
Q 42.234375 1.703125 37.859375 0.359375 
Q 33.5 -0.984375 27.875 -0.984375 
Q 21.484375 -0.984375 17.109375 0.609375 
Q 12.75 2.203125 9.90625 4.8125 
Q 7.078125 7.421875 5.65625 10.765625 
Q 4.25 14.109375 3.8125 17.671875 
L 12.890625 18.5 
Q 13.28125 15.765625 14.328125 13.515625 
Q 15.375 11.28125 17.1875 9.671875 
Q 19 8.0625 21.625 7.171875 
Q 24.265625 6.296875 27.875 6.296875 
Q 34.515625 6.296875 38.296875 9.5625 
Q 42.09375 12.84375 42.09375 19.28125 
Q 42.09375 23.09375 40.40625 25.40625 
Q 38.71875 27.734375 36.203125 29.03125 
Q 33.6875 30.328125 30.734375 30.765625 
Q 27.78125 31.203125 25.296875 31.203125 
L 20.3125 31.203125 
L 20.3125 38.8125 
L 25.09375 38.8125 
Q 27.59375 38.8125 30.265625 39.328125 
Q 32.953125 39.84375 35.171875 41.1875 
Q 37.40625 42.53125 38.84375 44.828125 
Q 40.28125 47.125 40.28125 50.6875 
Q 40.28125 56.203125 37.03125 59.390625 
Q 33.796875 62.59375 27.390625 62.59375 
Q 21.578125 62.59375 17.984375 59.609375 
Q 14.40625 56.640625 13.8125 51.21875 
L 4.984375 51.90625 
Q 5.515625 56.453125 7.46875 59.8125 
Q 9.421875 63.1875 12.421875 65.40625 
Q 15.4375 67.625 19.28125 68.71875 
Q 23.140625 69.828125 27.484375 69.828125 
Q 33.25 69.828125 37.390625 68.375 
Q 41.546875 66.9375 44.1875 64.46875 
Q 46.828125 62.015625 48.0625 58.6875 
Q 49.3125 55.375 49.3125 51.609375 
Q 49.3125 48.578125 48.484375 45.9375 
Q 47.65625 43.3125 45.890625 41.203125 
Q 44.140625 39.109375 41.421875 37.59375 
Q 38.71875 36.078125 34.90625 35.296875 
L 34.90625 35.109375 
Q 39.0625 34.671875 42.140625 33.21875 
Q 45.21875 31.78125 47.21875 29.625 
Q 49.21875 27.484375 50.21875 24.75 
Q 51.21875 22.015625 51.21875 19 
" id="LiberationSans-33"/>
      </defs>
      <g style="fill:#262626;" transform="translate(137.232390414 370.646875)scale(0.1 -0.1)">
       <use xlink:href="#LiberationSans-32"/>
       <use x="55.615234375" xlink:href="#LiberationSans-30"/>
       <use x="111.23046875" xlink:href="#LiberationSans-31"/>
       <use x="166.845703125" xlink:href="#LiberationSans-35"/>
       <use x="222.4609375" xlink:href="#LiberationSans-2d"/>
       <use x="255.76171875" xlink:href="#LiberationSans-31"/>
       <use x="311.376953125" xlink:href="#LiberationSans-31"/>
       <use x="366.9921875" xlink:href="#LiberationSans-2d"/>
       <use x="400.29296875" xlink:href="#LiberationSans-31"/>
       <use x="455.908203125" xlink:href="#LiberationSans-38"/>
       <use x="511.5234375" xlink:href="#LiberationSans-20"/>
       <use x="539.306640625" xlink:href="#LiberationSans-31"/>
       <use x="594.921875" xlink:href="#LiberationSans-33"/>
       <use x="650.537109375" xlink:href="#LiberationSans-3a"/>
       <use x="678.3203125" xlink:href="#LiberationSans-35"/>
       <use x="733.935546875" xlink:href="#LiberationSans-31"/>
       <use x="789.55078125" xlink:href="#LiberationSans-3a"/>
       <use x="817.333984375" xlink:href="#LiberationSans-30"/>
       <use x="872.94921875" xlink:href="#LiberationSans-30"/>
      </g>
     </g>
    </g>
    <g id="xtick_3">
     <g id="line2d_7">
      <path clip-path="url(#p5e8bc218e6)" d="M 295.311656 356.4 
L 295.311656 39.6 
" style="fill:none;stroke:#ffffff;stroke-linecap:round;"/>
     </g>
     <g id="line2d_8"/>
     <g id="line2d_9"/>
     <g id="text_3">
      <!-- 2015-11-23 09:24:00 -->
      <defs>
       <path d="M 50.875 35.796875 
Q 50.875 26.609375 49.140625 19.703125 
Q 47.40625 12.796875 44.1875 8.203125 
Q 40.96875 3.609375 36.34375 1.3125 
Q 31.734375 -0.984375 25.984375 -0.984375 
Q 22.015625 -0.984375 18.84375 -0.171875 
Q 15.671875 0.640625 13.171875 2.34375 
Q 10.6875 4.046875 8.921875 6.78125 
Q 7.171875 9.515625 6.109375 13.375 
L 14.5 14.703125 
Q 15.875 10.25 18.78125 8.171875 
Q 21.6875 6.109375 26.125 6.109375 
Q 29.6875 6.109375 32.640625 7.78125 
Q 35.59375 9.46875 37.671875 12.84375 
Q 39.75 16.21875 40.921875 21.296875 
Q 42.09375 26.375 42.1875 33.203125 
Q 41.15625 30.90625 39.375 29.09375 
Q 37.59375 27.296875 35.328125 26.046875 
Q 33.0625 24.8125 30.421875 24.140625 
Q 27.78125 23.484375 25.09375 23.484375 
Q 20.40625 23.484375 16.625 25.171875 
Q 12.84375 26.859375 10.203125 29.875 
Q 7.5625 32.90625 6.125 37.171875 
Q 4.6875 41.453125 4.6875 46.6875 
Q 4.6875 52 6.21875 56.296875 
Q 7.765625 60.59375 10.6875 63.59375 
Q 13.625 66.609375 17.890625 68.21875 
Q 22.171875 69.828125 27.59375 69.828125 
Q 39.0625 69.828125 44.96875 61.328125 
Q 50.875 52.828125 50.875 35.796875 
M 41.3125 44.28125 
Q 41.3125 48.09375 40.40625 51.453125 
Q 39.5 54.828125 37.71875 57.3125 
Q 35.9375 59.8125 33.328125 61.25 
Q 30.71875 62.703125 27.296875 62.703125 
Q 24.125 62.703125 21.578125 61.578125 
Q 19.046875 60.453125 17.28125 58.375 
Q 15.53125 56.296875 14.578125 53.3125 
Q 13.625 50.34375 13.625 46.6875 
Q 13.625 43.21875 14.46875 40.234375 
Q 15.328125 37.25 17.03125 35.078125 
Q 18.75 32.90625 21.28125 31.65625 
Q 23.828125 30.421875 27.203125 30.421875 
Q 29.640625 30.421875 32.15625 31.25 
Q 34.671875 32.078125 36.6875 33.78125 
Q 38.71875 35.5 40.015625 38.109375 
Q 41.3125 40.71875 41.3125 44.28125 
" id="LiberationSans-39"/>
       <path d="M 43.015625 15.578125 
L 43.015625 0 
L 34.71875 0 
L 34.71875 15.578125 
L 2.296875 15.578125 
L 2.296875 22.40625 
L 33.796875 68.796875 
L 43.015625 68.796875 
L 43.015625 22.515625 
L 52.6875 22.515625 
L 52.6875 15.578125 
z
M 34.71875 58.890625 
Q 34.625 58.640625 34.234375 57.9375 
Q 33.84375 57.234375 33.34375 56.34375 
Q 32.859375 55.46875 32.34375 54.5625 
Q 31.84375 53.65625 31.453125 53.078125 
L 13.8125 27.09375 
Q 13.578125 26.703125 13.109375 26.0625 
Q 12.640625 25.4375 12.15625 24.78125 
Q 11.671875 24.125 11.171875 23.484375 
Q 10.6875 22.859375 10.40625 22.515625 
L 34.71875 22.515625 
z
" id="LiberationSans-34"/>
      </defs>
      <g style="fill:#262626;" transform="translate(248.888218328 370.646875)scale(0.1 -0.1)">
       <use xlink:href="#LiberationSans-32"/>
       <use x="55.615234375" xlink:href="#LiberationSans-30"/>
       <use x="111.23046875" xlink:href="#LiberationSans-31"/>
       <use x="166.845703125" xlink:href="#LiberationSans-35"/>
       <use x="222.4609375" xlink:href="#LiberationSans-2d"/>
       <use x="255.76171875" xlink:href="#LiberationSans-31"/>
       <use x="311.376953125" xlink:href="#LiberationSans-31"/>
       <use x="366.9921875" xlink:href="#LiberationSans-2d"/>
       <use x="400.29296875" xlink:href="#LiberationSans-32"/>
       <use x="455.908203125" xlink:href="#LiberationSans-33"/>
       <use x="511.5234375" xlink:href="#LiberationSans-20"/>
       <use x="539.306640625" xlink:href="#LiberationSans-30"/>
       <use x="594.921875" xlink:href="#LiberationSans-39"/>
       <use x="650.537109375" xlink:href="#LiberationSans-3a"/>
       <use x="678.3203125" xlink:href="#LiberationSans-32"/>
       <use x="733.935546875" xlink:href="#LiberationSans-34"/>
       <use x="789.55078125" xlink:href="#LiberationSans-3a"/>
       <use x="817.333984375" xlink:href="#LiberationSans-30"/>
       <use x="872.94921875" xlink:href="#LiberationSans-30"/>
      </g>
     </g>
    </g>
    <g id="xtick_4">
     <g id="line2d_10">
      <path clip-path="url(#p5e8bc218e6)" d="M 406.967484 356.4 
L 406.967484 39.6 
" style="fill:none;stroke:#ffffff;stroke-linecap:round;"/>
     </g>
     <g id="line2d_11"/>
     <g id="line2d_12"/>
     <g id="text_4">
      <!-- 2015-11-25 10:59:00 -->
      <g style="fill:#262626;" transform="translate(360.544046242 370.646875)scale(0.1 -0.1)">
       <use xlink:href="#LiberationSans-32"/>
       <use x="55.615234375" xlink:href="#LiberationSans-30"/>
       <use x="111.23046875" xlink:href="#LiberationSans-31"/>
       <use x="166.845703125" xlink:href="#LiberationSans-35"/>
       <use x="222.4609375" xlink:href="#LiberationSans-2d"/>
       <use x="255.76171875" xlink:href="#LiberationSans-31"/>
       <use x="311.376953125" xlink:href="#LiberationSans-31"/>
       <use x="366.9921875" xlink:href="#LiberationSans-2d"/>
       <use x="400.29296875" xlink:href="#LiberationSans-32"/>
       <use x="455.908203125" xlink:href="#LiberationSans-35"/>
       <use x="511.5234375" xlink:href="#LiberationSans-20"/>
       <use x="539.306640625" xlink:href="#LiberationSans-31"/>
       <use x="594.921875" xlink:href="#LiberationSans-30"/>
       <use x="650.537109375" xlink:href="#LiberationSans-3a"/>
       <use x="678.3203125" xlink:href="#LiberationSans-35"/>
       <use x="733.935546875" xlink:href="#LiberationSans-39"/>
       <use x="789.55078125" xlink:href="#LiberationSans-3a"/>
       <use x="817.333984375" xlink:href="#LiberationSans-30"/>
       <use x="872.94921875" xlink:href="#LiberationSans-30"/>
      </g>
     </g>
    </g>
    <g id="text_5">
     <!-- time -->
     <defs>
      <path d="M 13.484375 24.5625 
Q 13.484375 20.40625 14.328125 16.90625 
Q 15.1875 13.421875 16.96875 10.90625 
Q 18.75 8.40625 21.53125 7 
Q 24.3125 5.609375 28.21875 5.609375 
Q 33.9375 5.609375 37.375 7.90625 
Q 40.828125 10.203125 42.046875 13.71875 
L 49.75 11.53125 
Q 48.921875 9.328125 47.4375 7.109375 
Q 45.953125 4.890625 43.453125 3.09375 
Q 40.96875 1.3125 37.234375 0.15625 
Q 33.5 -0.984375 28.21875 -0.984375 
Q 16.5 -0.984375 10.375 6 
Q 4.25 12.984375 4.25 26.765625 
Q 4.25 34.1875 6.09375 39.328125 
Q 7.953125 44.484375 11.171875 47.703125 
Q 14.40625 50.921875 18.703125 52.359375 
Q 23 53.8125 27.875 53.8125 
Q 34.515625 53.8125 38.984375 51.65625 
Q 43.453125 49.515625 46.15625 45.71875 
Q 48.875 41.9375 50.015625 36.8125 
Q 51.171875 31.6875 51.171875 25.734375 
L 51.171875 24.5625 
z
M 42.09375 31.296875 
Q 41.359375 39.65625 37.84375 43.484375 
Q 34.328125 47.3125 27.734375 47.3125 
Q 25.53125 47.3125 23.109375 46.609375 
Q 20.703125 45.90625 18.65625 44.09375 
Q 16.609375 42.28125 15.1875 39.171875 
Q 13.765625 36.078125 13.578125 31.296875 
z
" id="LiberationSans-65"/>
      <path d="M 6.6875 64.0625 
L 6.6875 72.46875 
L 15.484375 72.46875 
L 15.484375 64.0625 
z
M 6.6875 0 
L 6.6875 52.828125 
L 15.484375 52.828125 
L 15.484375 0 
z
" id="LiberationSans-69"/>
      <path d="M 27.046875 0.390625 
Q 25.046875 -0.140625 22.96875 -0.453125 
Q 20.90625 -0.78125 18.171875 -0.78125 
Q 7.625 -0.78125 7.625 11.1875 
L 7.625 46.4375 
L 1.515625 46.4375 
L 1.515625 52.828125 
L 7.953125 52.828125 
L 10.546875 64.65625 
L 16.40625 64.65625 
L 16.40625 52.828125 
L 26.171875 52.828125 
L 26.171875 46.4375 
L 16.40625 46.4375 
L 16.40625 13.09375 
Q 16.40625 9.28125 17.640625 7.734375 
Q 18.890625 6.203125 21.96875 6.203125 
Q 23.25 6.203125 24.4375 6.390625 
Q 25.640625 6.59375 27.046875 6.890625 
z
" id="LiberationSans-74"/>
      <path d="M 37.5 0 
L 37.5 33.5 
Q 37.5 37.359375 37.015625 39.9375 
Q 36.53125 42.53125 35.375 44.109375 
Q 34.234375 45.703125 32.375 46.359375 
Q 30.515625 47.015625 27.828125 47.015625 
Q 25.046875 47.015625 22.796875 45.921875 
Q 20.5625 44.828125 18.96875 42.75 
Q 17.390625 40.671875 16.53125 37.625 
Q 15.671875 34.578125 15.671875 30.609375 
L 15.671875 0 
L 6.9375 0 
L 6.9375 41.546875 
Q 6.9375 43.21875 6.90625 45.046875 
Q 6.890625 46.875 6.828125 48.5 
Q 6.78125 50.140625 6.734375 51.3125 
Q 6.6875 52.484375 6.640625 52.828125 
L 14.9375 52.828125 
Q 14.984375 52.59375 15.03125 51.515625 
Q 15.09375 50.4375 15.15625 49.046875 
Q 15.234375 47.65625 15.28125 46.21875 
Q 15.328125 44.78125 15.328125 43.796875 
L 15.484375 43.796875 
Q 16.65625 46.09375 18.015625 47.953125 
Q 19.390625 49.8125 21.21875 51.09375 
Q 23.046875 52.390625 25.40625 53.09375 
Q 27.78125 53.8125 30.90625 53.8125 
Q 36.921875 53.8125 40.40625 51.421875 
Q 43.890625 49.03125 45.265625 43.796875 
L 45.40625 43.796875 
Q 46.578125 46.09375 48.046875 47.953125 
Q 49.515625 49.8125 51.46875 51.09375 
Q 53.421875 52.390625 55.859375 53.09375 
Q 58.296875 53.8125 61.421875 53.8125 
Q 65.4375 53.8125 68.328125 52.734375 
Q 71.234375 51.65625 73.09375 49.40625 
Q 74.953125 47.171875 75.828125 43.625 
Q 76.703125 40.09375 76.703125 35.203125 
L 76.703125 0 
L 68.015625 0 
L 68.015625 33.5 
Q 68.015625 37.359375 67.53125 39.9375 
Q 67.046875 42.53125 65.890625 44.109375 
Q 64.75 45.703125 62.890625 46.359375 
Q 61.03125 47.015625 58.34375 47.015625 
Q 55.5625 47.015625 53.3125 45.96875 
Q 51.078125 44.921875 49.484375 42.875 
Q 47.90625 40.828125 47.046875 37.75 
Q 46.1875 34.671875 46.1875 30.609375 
L 46.1875 0 
z
" id="LiberationSans-6d"/>
     </defs>
     <g style="fill:#262626;" transform="translate(284.81015625 385.6934375)scale(0.11 -0.11)">
      <use xlink:href="#LiberationSans-74"/>
      <use x="27.783203125" xlink:href="#LiberationSans-69"/>
      <use x="50.0" xlink:href="#LiberationSans-6d"/>
      <use x="133.30078125" xlink:href="#LiberationSans-65"/>
     </g>
    </g>
   </g>
   <g id="matplotlib.axis_2">
    <g id="ytick_1">
     <g id="line2d_13">
      <path clip-path="url(#p5e8bc218e6)" d="M 72 356.4 
L 518.4 356.4 
" style="fill:none;stroke:#ffffff;stroke-linecap:round;"/>
     </g>
     <g id="line2d_14"/>
     <g id="line2d_15"/>
     <g id="text_6">
      <!-- 430 -->
      <g style="fill:#262626;" transform="translate(48.3171875 358.9859375)scale(0.1 -0.1)">
       <use xlink:href="#LiberationSans-34"/>
       <use x="55.615234375" xlink:href="#LiberationSans-33"/>
       <use x="111.23046875" xlink:href="#LiberationSans-30"/>
      </g>
     </g>
    </g>
    <g id="ytick_2">
     <g id="line2d_16">
      <path clip-path="url(#p5e8bc218e6)" d="M 72 321.2 
L 518.4 321.2 
" style="fill:none;stroke:#ffffff;stroke-linecap:round;"/>
     </g>
     <g id="line2d_17"/>
     <g id="line2d_18"/>
     <g id="text_7">
      <!-- 440 -->
      <g style="fill:#262626;" transform="translate(48.3171875 323.7859375)scale(0.1 -0.1)">
       <use xlink:href="#LiberationSans-34"/>
       <use x="55.615234375" xlink:href="#LiberationSans-34"/>
       <use x="111.23046875" xlink:href="#LiberationSans-30"/>
      </g>
     </g>
    </g>
    <g id="ytick_3">
     <g id="line2d_19">
      <path clip-path="url(#p5e8bc218e6)" d="M 72 286 
L 518.4 286 
" style="fill:none;stroke:#ffffff;stroke-linecap:round;"/>
     </g>
     <g id="line2d_20"/>
     <g id="line2d_21"/>
     <g id="text_8">
      <!-- 450 -->
      <g style="fill:#262626;" transform="translate(48.3171875 288.5859375)scale(0.1 -0.1)">
       <use xlink:href="#LiberationSans-34"/>
       <use x="55.615234375" xlink:href="#LiberationSans-35"/>
       <use x="111.23046875" xlink:href="#LiberationSans-30"/>
      </g>
     </g>
    </g>
    <g id="ytick_4">
     <g id="line2d_22">
      <path clip-path="url(#p5e8bc218e6)" d="M 72 250.8 
L 518.4 250.8 
" style="fill:none;stroke:#ffffff;stroke-linecap:round;"/>
     </g>
     <g id="line2d_23"/>
     <g id="line2d_24"/>
     <g id="text_9">
      <!-- 460 -->
      <g style="fill:#262626;" transform="translate(48.3171875 253.3859375)scale(0.1 -0.1)">
       <use xlink:href="#LiberationSans-34"/>
       <use x="55.615234375" xlink:href="#LiberationSans-36"/>
       <use x="111.23046875" xlink:href="#LiberationSans-30"/>
      </g>
     </g>
    </g>
    <g id="ytick_5">
     <g id="line2d_25">
      <path clip-path="url(#p5e8bc218e6)" d="M 72 215.6 
L 518.4 215.6 
" style="fill:none;stroke:#ffffff;stroke-linecap:round;"/>
     </g>
     <g id="line2d_26"/>
     <g id="line2d_27"/>
     <g id="text_10">
      <!-- 470 -->
      <defs>
       <path d="M 50.59375 61.671875 
Q 45.40625 53.765625 41.0625 46.453125 
Q 36.71875 39.15625 33.59375 31.75 
Q 30.46875 24.359375 28.734375 16.578125 
Q 27 8.796875 27 0 
L 17.828125 0 
Q 17.828125 8.25 19.78125 16.1875 
Q 21.734375 24.125 25.046875 31.765625 
Q 28.375 39.40625 32.765625 46.78125 
Q 37.15625 54.15625 42.09375 61.328125 
L 5.125 61.328125 
L 5.125 68.796875 
L 50.59375 68.796875 
z
" id="LiberationSans-37"/>
      </defs>
      <g style="fill:#262626;" transform="translate(48.3171875 218.1859375)scale(0.1 -0.1)">
       <use xlink:href="#LiberationSans-34"/>
       <use x="55.615234375" xlink:href="#LiberationSans-37"/>
       <use x="111.23046875" xlink:href="#LiberationSans-30"/>
      </g>
     </g>
    </g>
    <g id="ytick_6">
     <g id="line2d_28">
      <path clip-path="url(#p5e8bc218e6)" d="M 72 180.4 
L 518.4 180.4 
" style="fill:none;stroke:#ffffff;stroke-linecap:round;"/>
     </g>
     <g id="line2d_29"/>
     <g id="line2d_30"/>
     <g id="text_11">
      <!-- 480 -->
      <g style="fill:#262626;" transform="translate(48.3171875 182.9859375)scale(0.1 -0.1)">
       <use xlink:href="#LiberationSans-34"/>
       <use x="55.615234375" xlink:href="#LiberationSans-38"/>
       <use x="111.23046875" xlink:href="#LiberationSans-30"/>
      </g>
     </g>
    </g>
    <g id="ytick_7">
     <g id="line2d_31">
      <path clip-path="url(#p5e8bc218e6)" d="M 72 145.2 
L 518.4 145.2 
" style="fill:none;stroke:#ffffff;stroke-linecap:round;"/>
     </g>
     <g id="line2d_32"/>
     <g id="line2d_33"/>
     <g id="text_12">
      <!-- 490 -->
      <g style="fill:#262626;" transform="translate(48.3171875 147.7859375)scale(0.1 -0.1)">
       <use xlink:href="#LiberationSans-34"/>
       <use x="55.615234375" xlink:href="#LiberationSans-39"/>
       <use x="111.23046875" xlink:href="#LiberationSans-30"/>
      </g>
     </g>
    </g>
    <g id="ytick_8">
     <g id="line2d_34">
      <path clip-path="url(#p5e8bc218e6)" d="M 72 110 
L 518.4 110 
" style="fill:none;stroke:#ffffff;stroke-linecap:round;"/>
     </g>
     <g id="line2d_35"/>
     <g id="line2d_36"/>
     <g id="text_13">
      <!-- 500 -->
      <g style="fill:#262626;" transform="translate(48.3171875 112.5859375)scale(0.1 -0.1)">
       <use xlink:href="#LiberationSans-35"/>
       <use x="55.615234375" xlink:href="#LiberationSans-30"/>
       <use x="111.23046875" xlink:href="#LiberationSans-30"/>
      </g>
     </g>
    </g>
    <g id="ytick_9">
     <g id="line2d_37">
      <path clip-path="url(#p5e8bc218e6)" d="M 72 74.8 
L 518.4 74.8 
" style="fill:none;stroke:#ffffff;stroke-linecap:round;"/>
     </g>
     <g id="line2d_38"/>
     <g id="line2d_39"/>
     <g id="text_14">
      <!-- 510 -->
      <g style="fill:#262626;" transform="translate(48.3171875 77.3859375)scale(0.1 -0.1)">
       <use xlink:href="#LiberationSans-35"/>
       <use x="55.615234375" xlink:href="#LiberationSans-31"/>
       <use x="111.23046875" xlink:href="#LiberationSans-30"/>
      </g>
     </g>
    </g>
    <g id="ytick_10">
     <g id="line2d_40">
      <path clip-path="url(#p5e8bc218e6)" d="M 72 39.6 
L 518.4 39.6 
" style="fill:none;stroke:#ffffff;stroke-linecap:round;"/>
     </g>
     <g id="line2d_41"/>
     <g id="line2d_42"/>
     <g id="text_15">
      <!-- 520 -->
      <g style="fill:#262626;" transform="translate(48.3171875 42.1859375)scale(0.1 -0.1)">
       <use xlink:href="#LiberationSans-35"/>
       <use x="55.615234375" xlink:href="#LiberationSans-32"/>
       <use x="111.23046875" xlink:href="#LiberationSans-30"/>
      </g>
     </g>
    </g>
   </g>
   <g id="line2d_43">
    <path clip-path="url(#p5e8bc218e6)" d="M 72 141.46369 
L 72.223312 138.111725 
L 72.669935 140.122904 
L 72.893247 148.676504 
L 73.116558 148.676504 
L 73.33987 162.194897 
L 73.563182 162.194897 
L 73.786493 157.265304 
L 74.009805 156.322869 
L 74.233117 156.322869 
L 74.456428 159.946876 
L 74.67974 151.358076 
L 74.903052 159.946876 
L 75.126363 155.652476 
L 75.349675 155.652476 
L 75.796298 162.194897 
L 76.01961 158.60609 
L 76.242921 159.946876 
L 76.466233 159.276483 
L 76.912856 149.346897 
L 77.136168 152.970904 
L 77.582791 154.31169 
L 77.806103 162.194897 
L 78.029415 163.535683 
L 78.252726 157.265304 
L 78.69935 157.265304 
L 78.922661 156.594911 
L 79.145973 156.594911 
L 79.592596 165.818904 
L 79.815908 179.97249 
L 80.03922 184.26689 
L 80.262531 181.313276 
L 80.485843 180.642883 
L 80.709155 176.383683 
L 80.932466 181.313276 
L 81.37909 171.41889 
L 81.602401 176.383683 
L 81.825713 171.41889 
L 82.049025 175.71329 
L 82.272336 167.830083 
L 82.495648 170.748497 
L 82.718959 166.489297 
L 83.165583 175.71329 
L 83.388894 172.759676 
L 83.612206 173.430069 
L 83.835518 169.841262 
L 84.058829 174.770855 
L 84.282141 174.100462 
L 84.505453 174.770855 
L 84.728764 171.852441 
L 84.952076 171.852441 
L 85.175388 172.522834 
L 85.622011 161.958055 
L 85.845323 166.887648 
L 86.068634 168.228434 
L 86.291946 171.852441 
L 86.515258 180.406041 
L 86.738569 172.522834 
L 86.961881 176.111641 
L 87.185193 181.746826 
L 87.408504 176.782034 
L 88.525063 210.089198 
L 88.748374 200.865205 
L 88.971686 201.535598 
L 89.194997 206.465191 
L 89.418309 205.794798 
L 89.641621 210.089198 
L 89.864932 210.089198 
L 90.311556 201.535598 
L 90.534867 201.535598 
L 90.758179 197.241198 
L 91.428114 197.241198 
L 91.651426 194.322784 
L 91.874737 192.981998 
L 92.098049 192.981998 
L 92.321361 193.652391 
L 92.767984 209.418805 
L 92.991296 208.748412 
L 93.437919 198.854026 
L 93.661231 198.854026 
L 93.884542 195.230019 
L 94.331166 186.676419 
L 94.554477 190.970819 
L 94.777789 186.676419 
L 95.224412 195.230019 
L 95.671036 195.230019 
L 95.894347 193.889234 
L 96.117659 198.854026 
L 96.34097 193.889234 
L 96.564282 199.524419 
L 97.234217 199.524419 
L 97.457529 200.194812 
L 97.68084 195.900412 
L 97.904152 200.194812 
L 98.350775 200.194812 
L 98.574087 197.241198 
L 98.797399 191.641212 
L 99.244022 199.524419 
L 99.467334 198.183634 
L 99.690645 199.524419 
L 99.913957 198.183634 
L 100.137269 199.524419 
L 100.36058 199.524419 
L 100.807204 208.748412 
L 101.030515 204.454012 
L 101.70045 204.454012 
L 101.923762 200.865205 
L 102.147074 205.124405 
L 102.370385 200.865205 
L 102.593697 200.194812 
L 103.04032 208.078019 
L 103.263632 201.772441 
L 103.486943 206.066841 
L 103.710255 202.442834 
L 103.933567 206.737234 
L 104.156878 215.290834 
L 104.603502 215.290834 
L 104.826813 211.031634 
L 105.050125 211.702026 
L 105.273437 215.961226 
L 105.496748 206.737234 
L 105.72006 214.620441 
L 105.943372 211.031634 
L 106.166683 240.442749 
L 106.389995 236.853942 
L 106.613307 243.396363 
L 106.836618 239.101963 
L 107.05993 245.407542 
L 107.283242 244.066756 
L 107.506553 258.255542 
L 107.729865 262.514742 
L 108.176488 279.621942 
L 108.3998 262.514742 
L 108.623112 256.244363 
L 108.846423 260.503563 
L 109.069735 261.173956 
L 109.293047 264.797963 
L 109.516358 264.797963 
L 109.73967 248.996349 
L 109.962981 261.844349 
L 110.186293 261.173956 
L 110.409605 252.620356 
L 110.632916 253.290749 
L 110.856228 244.066756 
L 111.07954 244.066756 
L 111.526163 253.961142 
L 111.749475 248.996349 
L 111.972786 251.949963 
L 112.196098 246.98517 
L 112.41941 255.57397 
L 112.642721 256.244363 
L 112.866033 258.492384 
L 113.089345 254.233184 
L 113.312656 253.562791 
L 113.535968 254.233184 
L 113.75928 245.644384 
L 114.429215 245.644384 
L 114.652526 249.938784 
L 114.875838 244.973991 
L 115.09915 248.597998 
L 115.322461 242.962812 
L 115.769085 244.303598 
L 115.992396 244.303598 
L 116.215708 240.044398 
L 116.43902 240.044398 
L 116.662331 231.490798 
L 117.555578 214.383598 
L 117.778889 218.642798 
L 118.002201 210.089198 
L 118.225513 227.196398 
L 118.448824 214.383598 
L 118.672136 222.266805 
L 118.895448 217.972405 
L 119.118759 217.972405 
L 119.342071 218.642798 
L 119.565383 221.994763 
L 120.012006 221.994763 
L 120.235318 217.735563 
L 120.458629 218.405956 
L 120.681941 210.487549 
L 120.905253 219.746742 
L 121.128564 219.746742 
L 121.351876 215.452342 
L 121.575188 215.452342 
L 121.798499 211.157942 
L 122.468434 211.157942 
L 122.691746 219.746742 
L 122.915058 215.452342 
L 123.138369 224.005942 
L 123.361681 228.300342 
L 123.584992 228.300342 
L 123.808304 227.629949 
L 124.031616 222.665156 
L 124.254927 226.959556 
L 124.478239 218.405956 
L 124.701551 218.405956 
L 125.371486 206.228349 
L 125.594797 214.781949 
L 125.818109 214.111556 
L 126.041421 218.405956 
L 126.264732 209.817156 
L 126.488044 188.450756 
L 126.934667 189.791542 
L 127.157979 189.791542 
L 127.381291 194.050742 
L 127.604602 194.050742 
L 127.827914 189.791542 
L 128.274537 189.791542 
L 128.497849 188.450756 
L 128.721161 188.450756 
L 129.167784 200.593163 
L 129.391096 207.805977 
L 129.614407 207.805977 
L 129.837719 213.441163 
L 130.061031 213.441163 
L 130.284342 204.887563 
L 130.507654 204.887563 
L 130.730965 213.441163 
L 130.954277 209.146763 
L 131.177589 214.111556 
L 131.624212 206.898742 
L 131.847524 202.604342 
L 132.070835 208.239528 
L 132.294147 207.967486 
L 132.517459 200.356321 
L 132.74077 209.580314 
L 132.964082 213.839514 
L 133.410705 213.839514 
L 133.634017 205.285914 
L 133.857329 201.697107 
L 134.08064 205.956307 
L 134.303952 201.026714 
L 134.527264 210.250707 
L 134.973887 187.508321 
L 135.42051 188.849107 
L 135.643822 188.849107 
L 136.090445 196.732314 
L 136.313757 198.743493 
L 136.537069 193.8139 
L 136.76038 198.743493 
L 136.983692 190.189893 
L 137.207004 202.3675 
L 137.430315 198.0731 
L 137.653627 198.743493 
L 138.546873 180.9659 
L 138.770185 189.5195 
L 139.44012 201.026714 
L 139.663432 193.143507 
L 139.886743 192.473114 
L 140.110055 188.849107 
L 140.333367 193.143507 
L 140.556678 193.143507 
L 140.77999 201.697107 
L 141.003302 193.143507 
L 141.226613 193.143507 
L 141.449925 193.8139 
L 141.673237 193.143507 
L 141.896548 201.697107 
L 142.11986 205.956307 
L 142.343172 201.697107 
L 142.566483 203.037893 
L 143.013107 193.143507 
L 143.236418 193.143507 
L 143.45973 193.8139 
L 143.683042 190.189893 
L 143.906353 188.849107 
L 144.129665 198.0731 
L 144.352976 197.402707 
L 144.576288 193.143507 
L 144.7996 193.143507 
L 145.246223 198.345142 
L 145.469535 194.050742 
L 145.692846 198.345142 
L 145.916158 194.050742 
L 146.13947 198.345142 
L 146.362781 189.791542 
L 146.586093 194.050742 
L 146.809405 192.709956 
L 147.256028 184.156356 
L 147.47934 184.156356 
L 147.702651 174.932363 
L 147.925963 179.226763 
L 148.149275 174.932363 
L 148.372586 188.450756 
L 148.595898 179.897156 
L 148.81921 187.780363 
L 149.042521 189.121149 
L 149.265833 184.156356 
L 149.489145 185.497142 
L 149.712456 181.237942 
L 149.935768 185.497142 
L 150.15908 185.497142 
L 150.382391 176.943542 
L 150.605703 181.908335 
L 150.829015 176.943542 
L 151.052326 164.095542 
L 151.275638 164.095542 
L 151.498949 155.541942 
L 151.722261 155.541942 
L 151.945573 146.988342 
L 152.168884 152.623528 
L 152.392196 146.081107 
L 152.615508 143.127493 
L 152.838819 144.069928 
L 153.062131 163.188307 
L 153.285443 171.071514 
L 153.508754 169.730728 
L 153.732066 159.836342 
L 153.955378 162.754756 
L 154.178689 158.495556 
L 154.402001 159.165949 
L 154.625313 150.612349 
L 154.848624 151.282742 
L 155.071936 154.201156 
L 155.295248 153.530763 
L 155.518559 157.825163 
L 155.741871 164.367584 
L 155.965183 167.321198 
L 156.188494 160.073184 
L 156.411806 165.037977 
L 156.635118 156.484377 
L 156.858429 160.743577 
L 157.081741 156.484377 
L 157.528364 156.484377 
L 157.751676 153.530763 
L 157.974987 156.484377 
L 158.421611 147.930777 
L 158.868234 157.825163 
L 159.091546 155.813984 
L 159.314857 145.919598 
L 159.538169 145.919598 
L 159.761481 163.697191 
L 159.984792 164.367584 
L 160.878039 182.145177 
L 161.101351 182.145177 
L 161.324662 173.591577 
L 161.547974 173.591577 
L 161.771286 170.00277 
L 161.994597 173.591577 
L 162.217909 174.932363 
L 162.441221 174.932363 
L 162.887844 166.378763 
L 163.111156 165.70837 
L 163.334467 166.378763 
L 163.781091 166.378763 
L 164.004402 173.591577 
L 164.674337 162.754756 
L 164.897649 168.389942 
L 165.344272 168.389942 
L 165.567584 167.719549 
L 165.790895 165.037977 
L 166.014207 165.037977 
L 166.237519 160.073184 
L 166.46083 165.037977 
L 166.684142 165.037977 
L 166.907454 169.332377 
L 167.130765 169.332377 
L 167.354077 177.885977 
L 167.577389 172.921184 
L 167.8007 173.591577 
L 168.024012 173.591577 
L 168.247324 169.332377 
L 168.693947 169.332377 
L 168.917259 170.00277 
L 169.14057 169.332377 
L 169.363882 173.591577 
L 169.810505 173.591577 
L 170.033817 185.769184 
L 170.257129 182.145177 
L 170.48044 186.439577 
L 170.703752 177.885977 
L 170.927064 177.885977 
L 171.150375 172.921184 
L 171.82031 186.439577 
L 172.266933 186.439577 
L 172.490245 190.028384 
L 172.713557 190.028384 
L 172.936868 186.439577 
L 173.16018 190.698777 
L 173.383492 186.439577 
L 173.830115 186.439577 
L 174.053427 182.145177 
L 174.276738 186.439577 
L 174.50005 186.439577 
L 174.946673 177.215584 
L 175.169985 181.474784 
L 175.393297 170.910005 
L 175.83992 178.122819 
L 176.063232 178.122819 
L 176.286543 174.534012 
L 176.509855 178.793212 
L 176.733167 174.534012 
L 176.956478 178.793212 
L 177.17979 174.534012 
L 177.403102 178.793212 
L 177.626413 173.193226 
L 177.849725 174.534012 
L 178.073037 170.239612 
L 178.296348 161.686012 
L 178.51966 165.980412 
L 178.742971 161.686012 
L 178.966283 171.852441 
L 179.189595 167.558041 
L 179.412906 159.004441 
L 179.636218 159.674834 
L 179.85953 154.710041 
L 180.529465 154.710041 
L 180.976088 163.298841 
L 181.1994 163.298841 
L 181.422711 159.674834 
L 181.869335 171.852441 
L 182.092646 170.511655 
L 182.315958 179.065255 
L 182.53927 170.511655 
L 182.762581 174.770855 
L 182.985893 166.217255 
L 183.209205 170.511655 
L 183.432516 171.182048 
L 183.655828 174.770855 
L 183.87914 171.182048 
L 184.102451 175.441248 
L 184.325763 171.182048 
L 184.549075 174.770855 
L 184.772386 174.770855 
L 184.995698 176.111641 
L 185.21901 171.182048 
L 185.442321 161.958055 
L 186.112256 161.958055 
L 186.335568 153.369255 
L 186.558879 161.958055 
L 186.782191 161.958055 
L 187.005503 166.217255 
L 187.228814 163.298841 
L 187.452126 167.558041 
L 187.675438 162.628448 
L 187.898749 163.298841 
L 188.122061 163.298841 
L 188.345373 163.969234 
L 188.568684 150.450841 
L 188.791996 151.121234 
L 189.015308 151.121234 
L 189.238619 142.567634 
L 189.461931 146.156441 
L 189.685243 145.486048 
L 190.131866 153.369255 
L 190.355178 154.039648 
L 190.578489 153.369255 
L 191.025113 161.958055 
L 191.248424 144.815655 
L 191.471736 153.369255 
L 191.695048 153.369255 
L 192.141671 144.815655 
L 192.364982 152.028469 
L 192.588294 147.769269 
L 192.811606 152.028469 
L 193.258229 153.369255 
L 193.481541 157.663655 
L 193.704852 153.369255 
L 193.928164 157.663655 
L 194.151476 147.769269 
L 194.374787 143.474869 
L 194.598099 143.474869 
L 195.044722 134.921269 
L 195.268034 138.545276 
L 195.714657 130.662069 
L 195.937969 132.002855 
L 196.161281 136.262055 
L 196.384592 136.262055 
L 196.607904 140.556455 
L 196.831216 136.262055 
L 197.054527 139.886062 
L 197.277839 139.215669 
L 197.501151 134.921269 
L 197.724462 143.474869 
L 197.947774 134.921269 
L 198.171086 139.215669 
L 198.394397 134.921269 
L 198.841021 144.145262 
L 199.064332 140.556455 
L 199.287644 166.489297 
L 199.510955 165.818904 
L 199.734267 162.194897 
L 199.957579 161.524504 
L 200.404202 173.430069 
L 200.627514 170.511655 
L 201.074137 179.065255 
L 201.297449 196.172455 
L 201.52076 191.878055 
L 201.744072 196.172455 
L 201.967384 183.324455 
L 202.190695 179.065255 
L 202.414007 187.618855 
L 202.86063 170.511655 
L 203.083942 179.065255 
L 203.307254 174.770855 
L 203.530565 180.406041 
L 203.977189 165.980412 
L 204.2005 169.569219 
L 204.647124 169.569219 
L 204.870435 173.863619 
L 205.317059 173.863619 
L 205.54037 169.569219 
L 205.763682 169.569219 
L 205.986993 173.193226 
L 206.433617 161.015619 
L 206.88024 171.852441 
L 207.550175 186.676419 
L 207.996798 184.665241 
L 208.22011 185.335634 
L 208.666733 176.782034 
L 208.890045 186.006026 
L 209.113357 185.335634 
L 209.336668 181.076434 
L 209.55998 185.335634 
L 209.783292 180.406041 
L 210.229915 180.406041 
L 210.453227 185.335634 
L 210.676538 185.335634 
L 210.89985 190.970819 
L 211.123162 185.335634 
L 211.346473 193.889234 
L 211.569785 188.959641 
L 211.793097 190.300426 
L 212.016408 189.630034 
L 212.23972 190.970819 
L 212.463032 195.230019 
L 212.686343 196.333963 
L 212.909655 198.345142 
L 213.356278 198.345142 
L 213.57959 211.157942 
L 213.802901 206.898742 
L 214.249525 214.781949 
L 214.472836 206.228349 
L 214.696148 206.898742 
L 214.91946 201.933949 
L 215.142771 214.781949 
L 215.366083 214.111556 
L 215.589395 219.076349 
L 215.812706 227.629949 
L 216.036018 228.300342 
L 216.25933 228.300342 
L 216.482641 223.335549 
L 216.705953 226.289163 
L 216.929265 221.994763 
L 217.152576 222.665156 
L 217.375888 222.665156 
L 217.5992 223.335549 
L 217.822511 219.746742 
L 218.045823 218.405956 
L 218.269135 223.335549 
L 218.492446 232.559542 
L 218.715758 236.853942 
L 218.93907 236.853942 
L 219.162381 224.005942 
L 219.385693 224.005942 
L 219.609005 219.746742 
L 219.832316 219.746742 
L 220.055628 222.665156 
L 220.278939 232.559542 
L 220.502251 232.559542 
L 220.725563 224.005942 
L 220.948874 226.289163 
L 221.172186 230.548363 
L 221.618809 220.653977 
L 221.842121 226.959556 
L 222.065433 226.289163 
L 222.288744 226.289163 
L 222.512056 239.101963 
L 222.735368 239.101963 
L 222.958679 247.655563 
L 223.181991 251.949963 
L 223.405303 250.609177 
L 223.628614 242.055577 
L 224.075238 243.396363 
L 224.298549 242.72597 
L 224.521861 239.101963 
L 224.745173 243.396363 
L 224.968484 243.396363 
L 225.191796 247.655563 
L 225.415108 243.396363 
L 225.638419 244.066756 
L 225.861731 245.407542 
L 226.085043 253.961142 
L 226.308354 266.809142 
L 226.754977 274.021956 
L 226.978289 269.057163 
L 227.201601 273.351563 
L 227.648224 264.797963 
L 227.871536 251.949963 
L 228.094847 247.655563 
L 228.318159 239.101963 
L 228.541471 247.655563 
L 228.764782 239.101963 
L 228.988094 243.396363 
L 229.211406 239.101963 
L 229.434717 239.101963 
L 229.658029 231.218756 
L 229.881341 231.218756 
L 230.104652 224.005942 
L 230.327964 228.300342 
L 230.551276 228.300342 
L 230.774587 224.005942 
L 230.997899 222.665156 
L 231.221211 231.889149 
L 231.444522 226.959556 
L 231.667834 231.889149 
L 231.891146 226.959556 
L 232.114457 226.289163 
L 232.337769 221.994763 
L 232.784392 230.548363 
L 233.007704 231.218756 
L 233.231016 226.289163 
L 233.454327 230.548363 
L 233.90095 222.937198 
L 234.124262 231.490798 
L 234.570885 222.937198 
L 234.794197 222.937198 
L 235.017509 226.526005 
L 235.24082 220.926019 
L 235.687444 222.266805 
L 235.910755 213.713205 
L 236.134067 213.713205 
L 236.357379 214.383598 
L 236.58069 205.794798 
L 236.804002 214.383598 
L 237.027314 209.418805 
L 237.250625 208.748412 
L 237.473937 205.794798 
L 237.92056 215.724384 
L 238.143872 214.383598 
L 238.367184 210.089198 
L 238.590495 210.089198 
L 238.813807 214.383598 
L 239.037119 214.383598 
L 239.26043 210.089198 
L 239.483742 214.383598 
L 239.930365 205.124405 
L 240.153677 209.418805 
L 240.376988 205.794798 
L 240.6003 210.089198 
L 240.823612 210.089198 
L 241.046923 205.794798 
L 241.270235 205.124405 
L 241.493547 201.535598 
L 241.716858 201.535598 
L 241.94017 207.805977 
L 242.163482 207.805977 
L 242.386793 207.135584 
L 242.610105 194.322784 
L 242.833417 198.581984 
L 243.056728 194.322784 
L 243.28004 194.322784 
L 243.726663 204.887563 
L 243.949975 200.593163 
L 244.173287 205.557956 
L 244.396598 205.557956 
L 244.843222 217.735563 
L 245.066533 215.724384 
L 245.289845 220.653977 
L 245.513157 212.100377 
L 245.736468 212.100377 
L 245.95978 242.72597 
L 246.183092 246.748328 
L 246.406403 253.961142 
L 246.629715 253.961142 
L 246.853027 258.925935 
L 247.29965 244.465107 
L 247.522961 253.018707 
L 247.746273 253.018707 
L 247.969585 240.8763 
L 248.192896 252.111472 
L 248.416208 250.770686 
L 248.63952 245.805893 
L 248.862831 245.805893 
L 249.086143 250.100293 
L 249.532766 240.8763 
L 249.756078 241.546693 
L 250.426013 255.029886 
L 250.649325 250.770686 
L 250.872636 254.359493 
L 251.095948 255.029886 
L 251.31926 246.476286 
L 251.542571 259.324286 
L 251.765883 250.100293 
L 251.989195 255.700279 
L 252.212506 255.029886 
L 252.435818 255.029886 
L 252.65913 250.770686 
L 253.552376 250.770686 
L 253.775688 255.029886 
L 253.998999 250.100293 
L 254.222311 254.359493 
L 254.892246 254.359493 
L 255.338869 262.2779 
L 255.562181 261.607507 
L 256.008804 278.714707 
L 256.455428 312.929107 
L 256.678739 304.375507 
L 256.902051 305.0459 
L 257.125363 300.7515 
L 257.348674 312.929107 
L 257.571986 304.375507 
L 257.795298 308.669907 
L 258.018609 300.081107 
L 258.241921 297.162693 
L 258.465233 305.716293 
L 258.688544 301.421893 
L 258.911856 301.421893 
L 259.135168 297.162693 
L 259.358479 302.092286 
L 259.581791 302.762679 
L 259.805103 310.681086 
L 260.028414 310.681086 
L 260.251726 314.940286 
L 260.475038 337.012279 
L 260.698349 336.341886 
L 261.144972 336.341886 
L 261.368284 332.047486 
L 261.591596 336.341886 
L 261.814907 332.717879 
L 262.038219 340.601086 
L 262.261531 336.341886 
L 262.484842 336.341886 
L 262.708154 323.493886 
L 262.931466 327.788286 
L 263.154777 312.021872 
L 263.378089 311.351479 
L 263.601401 307.727472 
L 263.824712 312.021872 
L 264.048024 312.021872 
L 264.494647 304.103465 
L 264.717959 312.021872 
L 264.941271 308.397865 
L 265.164582 308.397865 
L 265.387894 314.033051 
L 265.611206 309.738651 
L 265.834517 314.033051 
L 266.057829 314.033051 
L 266.281141 314.703444 
L 266.504452 309.738651 
L 266.727764 310.409044 
L 266.951076 309.738651 
L 267.174387 311.079437 
L 267.397699 306.785037 
L 267.621011 305.444251 
L 267.844322 305.444251 
L 268.067634 309.738651 
L 268.290945 309.738651 
L 268.514257 304.773858 
L 268.737569 304.773858 
L 268.96088 311.079437 
L 269.407504 298.231437 
L 269.630815 298.90183 
L 270.077439 307.45543 
L 270.30075 298.231437 
L 270.524062 301.185051 
L 270.747374 302.525837 
L 271.193997 293.301844 
L 271.417309 293.301844 
L 271.64062 292.631451 
L 271.863932 292.631451 
L 272.087244 296.890651 
L 272.310555 296.890651 
L 272.533867 298.231437 
L 272.757179 298.231437 
L 273.427114 262.676251 
L 273.650425 266.970651 
L 273.873737 262.676251 
L 274.097049 271.900244 
L 274.32036 271.229851 
L 274.543672 276.865037 
L 274.766983 276.865037 
L 274.990295 281.124237 
L 275.213607 273.24103 
L 275.436918 277.53543 
L 275.66023 277.53543 
L 275.883542 268.98183 
L 276.106853 268.98183 
L 276.330165 260.39303 
L 276.553477 260.39303 
L 276.776788 249.828251 
L 277.0001 250.498644 
L 277.223412 249.828251 
L 277.446723 237.685844 
L 277.893347 249.828251 
L 278.116658 249.828251 
L 278.33997 248.487465 
L 278.563282 248.487465 
L 278.786593 249.157858 
L 279.009905 249.157858 
L 279.233217 244.898658 
L 279.456528 256.370672 
L 279.67984 243.557872 
L 279.903152 243.557872 
L 280.126463 235.674665 
L 280.573087 245.569051 
L 280.796398 241.274651 
L 281.243022 222.156272 
L 281.466333 201.425065 
L 281.689645 196.495472 
L 281.912956 197.836258 
L 282.136268 188.612265 
L 282.35958 167.210665 
L 282.806203 191.293837 
L 283.029515 195.553037 
L 283.252826 203.436244 
L 283.476138 202.765851 
L 283.69945 202.765851 
L 284.146073 232.721051 
L 284.369385 228.461851 
L 284.592696 245.569051 
L 285.03932 237.685844 
L 285.485943 259.722637 
L 285.709255 255.463437 
L 285.932566 259.722637 
L 286.155878 254.793044 
L 286.602501 264.017037 
L 286.825813 276.194644 
L 287.049125 294.64263 
L 287.272436 286.08903 
L 287.495748 293.972237 
L 287.71906 311.079437 
L 287.942371 303.19623 
L 288.165683 302.525837 
L 288.388994 302.525837 
L 288.612306 301.855444 
L 289.058929 293.301844 
L 289.505553 302.525837 
L 289.728864 293.972237 
L 290.175488 293.972237 
L 290.398799 290.34823 
L 290.622111 291.018623 
L 290.845423 299.572223 
L 291.068734 295.313023 
L 291.292046 295.313023 
L 291.515358 299.572223 
L 291.738669 291.018623 
L 291.961981 298.90183 
L 292.185293 299.572223 
L 292.408604 303.19623 
L 292.631916 298.90183 
L 292.855228 299.572223 
L 293.078539 278.205823 
L 293.301851 277.933781 
L 293.525163 265.085781 
L 293.748474 274.344974 
L 293.971786 260.826581 
L 294.195098 259.485795 
L 294.418409 269.380181 
L 294.641721 263.744995 
L 294.865033 268.039395 
L 295.311656 247.58023 
L 295.534967 244.465107 
L 295.981591 229.641128 
L 296.204902 241.113142 
L 296.428214 242.453928 
L 296.651526 228.970735 
L 297.098149 253.961142 
L 297.321461 255.301928 
L 297.544772 253.961142 
L 297.768084 242.453928 
L 297.991396 248.089114 
L 298.214707 247.418721 
L 298.438019 248.089114 
L 298.661331 248.089114 
L 298.884642 251.007528 
L 299.107954 246.748328 
L 299.331266 246.077935 
L 299.554577 249.666742 
L 299.777889 258.255542 
L 300.001201 251.949963 
L 300.224512 265.468356 
L 300.447824 266.809142 
L 300.671136 262.514742 
L 301.117759 261.173956 
L 301.341071 262.514742 
L 301.564382 266.809142 
L 301.787694 282.973907 
L 302.011006 280.055493 
L 302.234317 273.513072 
L 302.457629 277.772272 
L 302.68094 277.101879 
L 302.904252 281.396279 
L 303.127564 277.772272 
L 303.350875 282.737065 
L 303.574187 269.218672 
L 303.797499 264.959472 
L 304.02081 269.218672 
L 304.244122 267.877886 
L 304.467434 268.548279 
L 304.914057 259.324286 
L 305.137369 248.759507 
L 305.36068 248.089114 
L 305.583992 240.8763 
L 305.807304 250.770686 
L 306.253927 250.770686 
L 306.477239 255.029886 
L 306.70055 254.359493 
L 306.923862 259.324286 
L 307.147174 259.324286 
L 307.370485 267.877886 
L 307.593797 267.877886 
L 307.817109 269.218672 
L 308.04042 260.665072 
L 308.263732 259.994679 
L 308.487044 264.959472 
L 308.710355 264.959472 
L 308.933667 260.665072 
L 309.603602 272.842679 
L 309.826913 264.959472 
L 310.050225 272.172286 
L 310.273537 272.172286 
L 310.72016 264.959472 
L 310.943472 268.548279 
L 311.166783 269.218672 
L 311.390095 272.842679 
L 311.613407 272.172286 
L 311.836718 272.172286 
L 312.06003 268.548279 
L 312.283342 255.029886 
L 312.953277 269.218672 
L 313.176588 264.289079 
L 313.3999 263.618686 
L 313.623212 264.959472 
L 313.846523 264.959472 
L 314.069835 252.781865 
L 314.293147 260.665072 
L 314.516458 255.700279 
L 314.73977 255.029886 
L 314.963082 242.217086 
L 315.186393 255.029886 
L 315.409705 242.217086 
L 315.633017 245.805893 
L 315.856328 246.476286 
L 316.07964 237.922686 
L 316.302951 237.922686 
L 316.526263 228.698693 
L 317.41951 246.476286 
L 317.642821 242.217086 
L 318.089445 250.770686 
L 318.312756 250.770686 
L 318.536068 250.100293 
L 318.75938 250.770686 
L 318.982691 246.476286 
L 319.206003 250.770686 
L 319.429315 250.770686 
L 319.652626 246.476286 
L 319.875938 251.441079 
L 320.09925 262.676251 
L 320.322561 261.335465 
L 320.769185 243.557872 
L 320.992496 252.781865 
L 321.215808 252.781865 
L 321.43912 274.183465 
L 321.662431 269.218672 
L 321.885743 269.218672 
L 322.109055 260.665072 
L 322.332366 260.665072 
L 322.555678 256.370672 
L 323.002301 264.959472 
L 323.225613 252.111472 
L 323.448924 255.700279 
L 323.672236 256.370672 
L 323.895548 252.111472 
L 324.118859 243.557872 
L 324.788794 256.370672 
L 325.012106 249.828251 
L 325.235418 249.828251 
L 325.458729 258.381851 
L 325.682041 248.487465 
L 326.128664 249.828251 
L 326.575288 269.889065 
L 326.798599 271.229851 
L 327.021911 262.005858 
L 327.245223 271.229851 
L 327.468534 270.559458 
L 327.691846 265.629865 
L 327.915158 264.959472 
L 328.138469 257.041065 
L 328.361781 261.335465 
L 328.585093 257.041065 
L 328.808404 261.335465 
L 329.031716 257.041065 
L 329.701651 257.041065 
L 329.924962 256.370672 
L 330.594897 268.548279 
L 331.264832 268.548279 
L 331.488144 260.665072 
L 331.711456 268.548279 
L 331.934767 256.370672 
L 332.158079 260.665072 
L 332.604702 252.111472 
L 333.051326 252.111472 
L 333.274637 235.004272 
L 333.721261 226.450672 
L 334.167884 256.370672 
L 334.391196 247.817072 
L 334.614507 243.557872 
L 334.837819 243.557872 
L 335.061131 239.263472 
L 335.507754 246.476286 
L 335.731066 243.557872 
L 336.624312 243.557872 
L 336.847624 252.111472 
L 337.070935 247.817072 
L 337.294247 252.781865 
L 337.517559 253.452258 
L 337.74087 262.676251 
L 337.964182 262.676251 
L 338.187494 258.381851 
L 338.410805 257.711458 
L 338.634117 249.828251 
L 338.857429 250.498644 
L 339.08074 254.122651 
L 339.750675 254.122651 
L 339.973987 254.793044 
L 340.197299 227.247374 
L 340.42061 228.189809 
L 340.643922 231.813816 
L 340.867234 247.308188 
L 341.090545 240.367416 
L 341.313857 243.28583 
L 341.537169 230.47303 
L 341.76048 239.02663 
L 341.983792 230.47303 
L 342.207104 216.284244 
L 342.430415 219.873051 
L 342.653727 219.873051 
L 342.877039 204.77703 
L 343.323662 194.212251 
L 343.546973 198.506651 
L 343.770285 193.305016 
L 343.993597 194.645802 
L 344.216908 198.905002 
L 344.44022 211.753002 
L 344.663532 209.07143 
L 344.886843 209.741823 
L 345.110155 217.62503 
L 345.333467 213.33063 
L 345.556778 213.33063 
L 345.78009 217.62503 
L 346.003402 213.33063 
L 346.226713 214.001023 
L 346.450025 213.33063 
L 346.673337 217.62503 
L 346.896648 218.295423 
L 347.11996 218.295423 
L 347.343272 226.849023 
L 347.566583 226.849023 
L 347.789895 239.02663 
L 348.013207 239.02663 
L 348.236518 247.58023 
L 348.683142 239.697023 
L 348.906453 243.956223 
L 349.129765 239.697023 
L 349.353077 239.02663 
L 349.7997 239.02663 
L 350.023012 243.956223 
L 350.246323 235.402623 
L 350.469635 231.143423 
L 350.692946 234.73223 
L 350.916258 235.402623 
L 351.13957 239.697023 
L 351.362881 239.697023 
L 351.586193 231.143423 
L 352.256128 243.956223 
L 352.47944 244.626616 
L 352.702751 240.367416 
L 352.926063 249.591409 
L 353.149375 253.180216 
L 353.372686 248.921016 
L 353.595998 248.921016 
L 353.81931 254.28416 
L 354.042621 254.28416 
L 354.265933 245.73056 
L 354.489245 254.954553 
L 354.712556 248.412132 
L 354.935868 252.000939 
L 355.15918 243.447339 
L 355.382491 249.752918 
L 355.605803 245.458518 
L 355.829115 251.093704 
L 356.052426 246.799304 
L 356.275738 255.352904 
L 356.49905 255.352904 
L 356.722361 251.093704 
L 357.168984 251.093704 
L 357.392296 255.352904 
L 357.615608 256.023297 
L 357.838919 255.352904 
L 358.062231 258.976911 
L 358.285543 255.352904 
L 358.955478 255.352904 
L 359.178789 254.682511 
L 359.402101 249.752918 
L 359.625413 251.093704 
L 359.848724 251.093704 
L 360.072036 254.012118 
L 360.295348 249.752918 
L 360.518659 254.682511 
L 360.741971 255.352904 
L 360.965283 251.093704 
L 361.188594 251.093704 
L 361.411906 255.352904 
L 361.635218 255.352904 
L 361.858529 251.093704 
L 362.305153 249.752918 
L 362.528464 250.423311 
L 362.751776 250.423311 
L 362.975088 251.093704 
L 363.198399 254.682511 
L 363.421711 255.352904 
L 363.868334 245.458518 
L 364.091646 246.799304 
L 364.314957 246.799304 
L 364.538269 242.540104 
L 364.761581 246.799304 
L 364.984892 241.869711 
L 365.208204 241.869711 
L 365.431516 246.128911 
L 365.654827 242.540104 
L 365.878139 241.869711 
L 366.101451 241.869711 
L 366.324762 238.245704 
L 366.548074 238.245704 
L 366.771386 235.962482 
L 366.994697 239.58649 
L 367.218009 235.962482 
L 367.441321 235.962482 
L 367.664632 235.29209 
L 368.111256 223.386525 
L 368.557879 231.940125 
L 368.781191 222.045739 
L 369.004502 222.716132 
L 369.227814 227.010532 
L 369.451126 222.716132 
L 369.674437 227.680925 
L 369.897749 219.797718 
L 370.121061 223.386525 
L 370.344372 218.456932 
L 370.567684 219.797718 
L 370.790995 215.503318 
L 371.014307 214.832925 
L 371.237619 224.056918 
L 371.46093 227.680925 
L 371.684242 223.386525 
L 371.907554 227.680925 
L 372.130865 227.680925 
L 372.354177 223.386525 
L 372.8008 232.610518 
L 373.024112 231.940125 
L 373.247424 232.610518 
L 373.470735 232.610518 
L 373.694047 236.904918 
L 373.917359 232.610518 
L 374.14067 236.904918 
L 374.587294 236.904918 
L 374.810605 232.610518 
L 375.033917 232.610518 
L 375.257229 236.904918 
L 375.48054 232.610518 
L 375.703852 236.904918 
L 375.927164 236.904918 
L 376.150475 232.610518 
L 376.373787 241.199318 
L 376.597099 241.199318 
L 376.82041 236.234525 
L 377.267034 245.458518 
L 377.490345 236.904918 
L 377.713657 245.458518 
L 377.936968 246.799304 
L 378.606903 246.799304 
L 378.830215 251.093704 
L 379.053527 248.14009 
L 379.276838 248.810482 
L 379.50015 252.43449 
L 379.723462 247.469697 
L 379.946773 251.764097 
L 380.170085 252.43449 
L 380.393397 252.43449 
L 380.616708 243.88089 
L 380.84002 248.14009 
L 381.063332 239.58649 
L 381.509955 248.14009 
L 381.733267 248.14009 
L 381.956578 254.445668 
L 382.17989 250.151268 
L 382.403202 250.821661 
L 382.626513 260.045654 
L 383.073137 247.903247 
L 383.296448 247.903247 
L 383.51976 249.914426 
L 383.743072 250.584819 
L 383.966383 250.584819 
L 384.189695 249.914426 
L 384.413007 250.584819 
L 384.636318 249.914426 
L 384.85963 244.949633 
L 385.082941 254.844019 
L 385.306253 250.584819 
L 385.752876 258.468026 
L 385.976188 255.514412 
L 386.1995 254.173626 
L 386.422811 259.138419 
L 386.646123 259.808812 
L 386.869435 274.632791 
L 387.316058 286.538356 
L 387.53937 290.832756 
L 387.985993 282.279156 
L 388.209305 285.867963 
L 388.432616 284.527177 
L 388.655928 293.115977 
L 388.87924 292.445584 
L 389.102551 290.434405 
L 389.325863 271.280826 
L 389.549175 267.021626 
L 389.772486 268.362412 
L 389.995798 259.138419 
L 390.442421 268.362412 
L 390.665733 254.173626 
L 390.889045 250.584819 
L 391.112356 252.595998 
L 391.558979 260.877556 
L 391.782291 258.866377 
L 392.005603 261.819991 
L 392.228914 257.525591 
L 392.452226 257.525591 
L 392.675538 256.184805 
L 392.898849 260.479205 
L 393.122161 253.266391 
L 393.345473 252.595998 
L 393.568784 259.53677 
L 393.792096 259.53677 
L 394.015408 265.171956 
L 394.238719 260.877556 
L 394.462031 264.501563 
L 394.685343 265.171956 
L 394.908654 265.171956 
L 395.131966 264.501563 
L 395.355278 261.547949 
L 395.578589 256.618356 
L 395.801901 255.947963 
L 396.248524 266.512742 
L 396.471836 262.218342 
L 396.695148 260.877556 
L 397.141771 275.973577 
L 397.365083 273.055163 
L 397.588394 273.055163 
L 397.811706 273.725556 
L 398.035018 279.325542 
L 398.258329 275.066342 
L 398.481641 266.512742 
L 398.928264 275.066342 
L 399.151576 276.407128 
L 399.374887 266.512742 
L 399.598199 267.183135 
L 399.821511 267.183135 
L 400.044822 268.760763 
L 400.268134 263.83117 
L 400.491446 265.171956 
L 400.714757 269.431156 
L 400.938069 265.171956 
L 401.161381 265.842349 
L 401.384692 261.547949 
L 401.608004 260.877556 
L 401.831316 260.877556 
L 402.054627 261.547949 
L 402.277939 260.877556 
L 402.501251 261.547949 
L 402.724562 265.171956 
L 402.947874 265.171956 
L 403.171186 262.218342 
L 403.394497 270.771942 
L 403.617809 265.842349 
L 404.064432 264.501563 
L 404.287744 263.160777 
L 404.734367 253.266391 
L 405.18099 251.925605 
L 405.404302 256.855198 
L 405.627614 257.525591 
L 405.850925 253.266391 
L 406.297549 260.479205 
L 406.52086 260.479205 
L 406.744172 256.184805 
L 406.967484 256.184805 
L 407.190795 264.738405 
L 407.414107 259.808812 
L 407.637419 264.068012 
L 407.86073 264.068012 
L 408.084042 260.479205 
L 408.530665 269.032805 
L 408.753977 264.068012 
L 409.2006 273.962398 
L 409.423912 273.292005 
L 409.647224 268.362412 
L 409.870535 266.351233 
L 410.093847 272.621612 
L 410.317159 266.351233 
L 410.54047 266.351233 
L 410.763782 264.068012 
L 410.987094 263.397619 
L 411.210405 267.021626 
L 411.433717 262.727226 
L 411.657029 262.727226 
L 412.103652 256.456847 
L 412.326963 261.38644 
L 412.550275 260.716047 
L 412.773587 260.716047 
L 412.996898 262.056833 
L 413.443522 249.244033 
L 413.666833 252.83284 
L 413.890145 253.503233 
L 414.113457 249.244033 
L 414.336768 249.244033 
L 414.56008 253.503233 
L 414.783392 249.244033 
L 415.006703 253.503233 
L 415.230015 253.503233 
L 415.453327 249.244033 
L 415.676638 253.503233 
L 415.89995 252.83284 
L 416.123262 253.503233 
L 416.569885 244.949633 
L 416.793197 243.608847 
L 417.016508 228.749668 
L 417.463132 230.090454 
L 417.686443 235.055247 
L 417.909755 235.055247 
L 418.133067 239.314447 
L 418.356378 239.314447 
L 418.57969 235.055247 
L 419.026313 243.608847 
L 419.249625 239.314447 
L 419.472936 243.608847 
L 419.696248 244.949633 
L 419.91956 244.27924 
L 420.142871 244.27924 
L 420.366183 235.055247 
L 420.589495 230.760847 
L 420.812806 222.207247 
L 421.036118 230.090454 
L 421.25943 223.548033 
L 421.482741 222.207247 
L 421.706053 230.760847 
L 421.929365 222.207247 
L 422.152676 221.536854 
L 422.375988 217.277654 
L 422.822611 217.277654 
L 423.045923 226.501647 
L 423.269235 217.277654 
L 423.492546 212.983254 
L 423.715858 212.983254 
L 423.93917 208.724054 
L 424.385793 220.196068 
L 424.609105 219.525675 
L 424.832416 210.301682 
L 425.055728 215.266475 
L 425.27904 202.418475 
L 425.502351 203.088868 
L 426.172286 214.596082 
L 426.395598 210.301682 
L 426.842221 219.525675 
L 427.065533 220.196068 
L 427.288844 211.642468 
L 427.512156 215.936868 
L 427.735468 215.936868 
L 427.958779 222.207247 
L 428.182091 235.055247 
L 428.405403 238.644054 
L 428.628714 238.644054 
L 429.298649 226.501647 
L 429.521961 230.760847 
L 429.745273 226.501647 
L 429.968584 225.831254 
L 430.191896 221.536854 
L 430.415208 211.642468 
L 430.638519 211.642468 
L 430.861831 212.312861 
L 431.308454 220.196068 
L 431.755078 223.548033 
L 431.978389 222.87764 
L 432.201701 222.87764 
L 432.425013 217.277654 
L 432.648324 217.277654 
L 432.871636 206.440833 
L 433.094947 205.77044 
L 433.318259 209.394447 
L 433.988194 209.394447 
L 434.211506 199.736904 
L 434.434817 203.088868 
L 434.658129 203.088868 
L 435.328064 215.936868 
L 435.551376 211.642468 
L 435.774687 214.596082 
L 435.997999 213.92569 
L 436.444622 206.042482 
L 436.667934 206.042482 
L 437.114557 196.81849 
L 437.561181 204.031304 
L 438.231116 204.031304 
L 438.677739 195.477704 
L 438.901051 195.477704 
L 439.124362 192.52409 
L 439.347674 191.853697 
L 439.794297 199.736904 
L 440.017609 191.183304 
L 440.464232 191.183304 
L 440.687544 192.52409 
L 440.910855 191.183304 
L 441.357479 201.07769 
L 441.58079 200.407297 
L 441.804102 201.748082 
L 442.027414 197.488882 
L 442.250725 201.748082 
L 442.474037 194.535268 
L 442.697349 193.864875 
L 442.92066 194.535268 
L 443.143972 190.240868 
L 443.367284 190.240868 
L 443.590595 185.981668 
L 443.813907 190.240868 
L 444.037219 190.240868 
L 444.26053 182.357661 
L 444.483842 180.346482 
L 444.707154 176.757675 
L 445.6004 208.724054 
L 446.270335 196.546447 
L 446.493647 192.252047 
L 446.716958 197.887233 
L 446.94027 192.92244 
L 447.386893 198.557626 
L 447.610205 197.887233 
L 447.833517 201.239198 
L 448.056828 195.604012 
L 448.28014 199.898412 
L 448.503452 196.274405 
L 448.726763 196.944798 
L 448.950075 208.452012 
L 449.173387 204.863205 
L 449.396698 209.122405 
L 449.62001 204.192812 
L 449.843322 204.863205 
L 450.066633 206.874384 
L 450.289945 206.203991 
L 450.95988 193.355991 
L 451.183192 197.615191 
L 451.406503 197.615191 
L 451.629815 196.944798 
L 451.853127 192.015205 
L 452.076438 196.944798 
L 452.29975 197.615191 
L 452.523062 197.615191 
L 452.746373 201.909591 
L 453.192996 201.909591 
L 453.416308 198.285584 
L 453.63962 201.909591 
L 453.862931 200.568805 
L 454.086243 200.568805 
L 454.309555 204.863205 
L 454.532866 204.192812 
L 454.756178 204.863205 
L 454.97949 199.898412 
L 455.426113 198.557626 
L 455.649425 199.228019 
L 455.872736 195.604012 
L 456.096048 195.604012 
L 456.542671 193.592833 
L 456.765983 194.263226 
L 456.989295 198.557626 
L 457.212606 189.333633 
L 457.65923 189.333633 
L 458.105853 182.791212 
L 458.329165 182.791212 
L 458.552476 187.050412 
L 458.775788 169.272819 
L 459.222411 177.156026 
L 459.445723 172.896826 
L 459.669035 177.826419 
L 459.892346 174.237612 
L 460.115658 166.591247 
L 460.338969 139.988012 
L 460.562281 139.988012 
L 460.785593 152.836012 
L 461.008904 157.130412 
L 461.455528 147.200826 
L 461.678839 155.789626 
L 462.125463 155.789626 
L 462.348774 167.932033 
L 462.572086 163.00244 
L 462.795398 183.028054 
L 463.018709 189.570475 
L 463.242021 185.981668 
L 463.465333 195.205661 
L 463.688644 191.581654 
L 463.911956 195.876054 
L 464.135268 187.322454 
L 464.358579 191.581654 
L 465.028514 191.581654 
L 465.251826 190.240868 
L 465.475138 190.911261 
L 465.698449 195.205661 
L 465.921761 195.205661 
L 466.145073 190.911261 
L 466.368384 190.911261 
L 466.591696 195.876054 
L 466.815008 195.205661 
L 467.038319 190.240868 
L 467.261631 190.911261 
L 467.484942 190.240868 
L 467.931566 183.028054 
L 468.154877 190.240868 
L 468.601501 190.240868 
L 468.824812 185.981668 
L 469.271436 194.535268 
L 469.494747 194.535268 
L 469.718059 185.981668 
L 470.164682 194.535268 
L 470.611306 185.981668 
L 470.834617 187.322454 
L 471.057929 186.652061 
L 471.281241 186.652061 
L 471.727864 187.992847 
L 471.951176 189.333633 
L 472.174487 187.322454 
L 472.397799 187.992847 
L 472.621111 191.581654 
L 472.844422 190.911261 
L 473.067734 194.535268 
L 473.291046 195.876054 
L 473.514357 187.322454 
L 473.737669 195.876054 
L 474.407604 195.876054 
L 474.630915 192.252047 
L 475.30085 192.252047 
L 475.524162 189.333633 
L 475.747474 194.263226 
L 475.970785 195.604012 
L 476.194097 194.263226 
L 476.417409 189.333633 
L 476.64072 189.333633 
L 476.864032 194.263226 
L 477.087344 193.592833 
L 477.310655 194.933619 
L 477.533967 194.263226 
L 477.757279 190.004026 
L 477.98059 199.228019 
L 478.203902 199.898412 
L 478.427214 224.379935 
L 478.650525 232.263142 
L 478.873837 229.344728 
L 479.097149 224.379935 
L 479.32046 223.709542 
L 479.543772 226.663156 
L 479.767084 234.546363 
L 480.213707 222.368756 
L 480.437019 211.567135 
L 480.66033 211.567135 
L 480.883642 198.048742 
L 481.106953 202.307942 
L 481.330265 210.896742 
L 481.553577 200.967156 
L 481.776888 196.707956 
L 482.0002 196.707956 
L 482.223512 200.967156 
L 482.446823 191.743163 
L 482.670135 187.483963 
L 482.893447 198.048742 
L 483.116758 194.424735 
L 483.34007 193.083949 
L 483.563382 185.871135 
L 483.786693 189.495142 
L 484.010005 185.871135 
L 484.233317 189.495142 
L 484.456628 188.552707 
L 484.67994 198.447093 
L 484.903252 196.869465 
L 485.126563 205.151023 
L 485.349875 197.938209 
L 485.573187 197.938209 
L 485.796498 202.232609 
L 486.01981 200.891823 
L 486.243122 202.232609 
L 486.466433 202.232609 
L 486.689745 193.679009 
L 486.913057 199.278995 
L 487.136368 197.030974 
L 487.35968 196.360581 
L 487.582991 199.949388 
L 487.806303 188.714216 
L 488.029615 192.338223 
L 488.252926 192.338223 
L 488.476238 190.997437 
L 488.922861 192.338223 
L 489.369485 178.81983 
L 489.592796 174.56063 
L 489.816108 175.231023 
L 490.03942 161.042237 
L 490.262731 163.960651 
L 490.486043 164.631044 
L 490.709355 154.736658 
L 490.932666 162.619865 
L 491.155978 162.619865 
L 491.602601 172.549451 
L 491.825913 168.527093 
L 492.049225 159.2679 
L 492.495848 157.256721 
L 492.71916 156.586328 
L 492.942471 161.551121 
L 493.165783 161.551121 
L 493.389095 160.880728 
L 493.612406 157.927114 
L 493.835718 157.927114 
L 494.282341 155.245542 
L 494.505653 157.256721 
L 494.728964 157.256721 
L 494.952276 155.915935 
L 495.175588 157.256721 
L 495.398899 154.338307 
L 495.622211 154.338307 
L 495.845523 133.6071 
L 496.068834 127.336721 
L 496.292146 137.9015 
L 496.515458 133.6071 
L 496.738769 133.6071 
L 496.962081 134.277493 
L 497.185393 135.618279 
L 497.408704 134.277493 
L 497.632016 130.018293 
L 498.078639 157.690272 
L 498.301951 157.019879 
L 498.525263 141.253465 
L 498.971886 127.735072 
L 499.195198 127.735072 
L 499.418509 136.288672 
L 499.641821 132.029472 
L 500.088444 140.583072 
L 500.311756 141.253465 
L 500.535068 132.699865 
L 500.758379 141.253465 
L 500.981691 144.842272 
L 501.205003 144.842272 
L 501.428314 157.690272 
L 501.651626 134.711044 
L 501.874937 143.264644 
L 502.098249 138.299851 
L 502.321561 136.288672 
L 502.544872 140.583072 
L 502.768184 140.583072 
L 503.214807 132.029472 
L 503.438119 115.557465 
L 503.661431 110.627872 
L 503.884742 123.440672 
L 504.108054 117.840686 
L 504.331366 136.288672 
L 504.554677 127.064679 
L 504.777989 130.688686 
L 505.001301 131.359079 
L 505.224612 122.770279 
L 505.447924 122.099886 
L 505.894547 122.099886 
L 506.117859 127.735072 
L 506.341171 127.735072 
L 506.564482 126.394286 
L 506.787794 123.440672 
L 507.011106 122.770279 
L 507.457729 129.3479 
L 507.681041 125.723893 
L 507.904352 125.723893 
L 508.127664 127.336721 
L 508.350975 124.383107 
L 508.574287 117.170293 
L 508.797599 118.747921 
L 509.02091 129.3479 
L 509.244222 120.7591 
L 509.690845 118.077528 
L 509.914157 114.725563 
L 510.137469 115.395956 
L 510.36078 120.7591 
L 510.807404 112.2055 
L 511.030715 116.4999 
L 511.254027 111.535107 
L 511.477339 111.535107 
L 511.923962 98.450265 
L 512.147274 95.0983 
L 512.370585 43.7767 
L 512.593897 59.03423 
L 512.817209 54.069437 
L 513.04052 42.672756 
L 513.263832 68.333556 
L 513.487144 68.333556 
L 513.710455 82.955893 
L 513.933767 74.367093 
L 514.157079 119.851865 
L 514.38039 114.887072 
L 514.603702 124.111065 
L 514.827014 121.192651 
L 515.050325 134.040651 
L 515.273637 123.20383 
L 515.496948 118.90943 
L 515.72026 127.46303 
L 515.943572 127.46303 
L 516.166883 131.75743 
L 516.836818 156.400461 
L 517.06013 148.789296 
L 517.283442 97.890405 
L 517.730065 130.976503 
L 517.953377 106.09663 
L 518.176688 122.261395 
L 518.4 230.17663 
L 518.4 230.17663 
" style="fill:none;stroke:#4c72b0;stroke-linecap:round;stroke-width:1.75;"/>
   </g>
   <g id="patch_3">
    <path d="M 72 356.4 
L 518.4 356.4 
" style="fill:none;"/>
   </g>
   <g id="patch_4">
    <path d="M 72 39.6 
L 518.4 39.6 
" style="fill:none;"/>
   </g>
   <g id="patch_5">
    <path d="M 72 356.4 
L 72 39.6 
" style="fill:none;"/>
   </g>
   <g id="patch_6">
    <path d="M 518.4 356.4 
L 518.4 39.6 
" style="fill:none;"/>
   </g>
   <g id="text_16">
    <!-- c - 19.045255093797397 * TF -->
    <defs>
     <path d="M 9.125 0 
L 9.125 10.6875 
L 18.65625 10.6875 
L 18.65625 0 
z
" id="LiberationSans-2e"/>
     <path d="M 17.53125 61.1875 
L 17.53125 35.59375 
L 55.90625 35.59375 
L 55.90625 27.875 
L 17.53125 27.875 
L 17.53125 0 
L 8.203125 0 
L 8.203125 68.796875 
L 57.078125 68.796875 
L 57.078125 61.1875 
z
" id="LiberationSans-46"/>
     <path d="M 22.265625 54.390625 
L 35.15625 59.421875 
L 37.359375 52.984375 
L 23.578125 49.421875 
L 32.625 37.203125 
L 26.8125 33.6875 
L 19.484375 46.296875 
L 11.859375 33.796875 
L 6.0625 37.3125 
L 15.28125 49.421875 
L 1.609375 52.984375 
L 3.8125 59.515625 
L 16.84375 54.296875 
L 16.265625 68.796875 
L 22.90625 68.796875 
z
" id="LiberationSans-2a"/>
     <path d="M 13.421875 26.65625 
Q 13.421875 22.125 14.078125 18.3125 
Q 14.75 14.5 16.3125 11.734375 
Q 17.875 8.984375 20.4375 7.46875 
Q 23 5.953125 26.765625 5.953125 
Q 31.453125 5.953125 34.59375 8.484375 
Q 37.75 11.03125 38.484375 16.3125 
L 47.359375 15.71875 
Q 46.921875 12.453125 45.453125 9.421875 
Q 44 6.390625 41.484375 4.09375 
Q 38.96875 1.8125 35.34375 0.40625 
Q 31.734375 -0.984375 27 -0.984375 
Q 20.796875 -0.984375 16.453125 1.109375 
Q 12.109375 3.21875 9.390625 6.90625 
Q 6.6875 10.59375 5.46875 15.59375 
Q 4.25 20.609375 4.25 26.46875 
Q 4.25 31.78125 5.125 35.859375 
Q 6 39.9375 7.59375 42.984375 
Q 9.1875 46.046875 11.328125 48.125 
Q 13.484375 50.203125 15.984375 51.4375 
Q 18.5 52.6875 21.28125 53.25 
Q 24.078125 53.8125 26.90625 53.8125 
Q 31.34375 53.8125 34.8125 52.59375 
Q 38.28125 51.375 40.796875 49.25 
Q 43.3125 47.125 44.875 44.234375 
Q 46.4375 41.359375 47.078125 38.03125 
L 38.03125 37.359375 
Q 37.359375 41.75 34.5625 44.328125 
Q 31.78125 46.921875 26.65625 46.921875 
Q 22.90625 46.921875 20.390625 45.671875 
Q 17.875 44.4375 16.3125 41.921875 
Q 14.75 39.40625 14.078125 35.59375 
Q 13.421875 31.78125 13.421875 26.65625 
" id="LiberationSans-63"/>
     <path d="M 35.15625 61.1875 
L 35.15625 0 
L 25.875 0 
L 25.875 61.1875 
L 2.25 61.1875 
L 2.25 68.796875 
L 58.796875 68.796875 
L 58.796875 61.1875 
z
" id="LiberationSans-54"/>
    </defs>
    <g style="fill:#262626;" transform="translate(215.4825 34.6)scale(0.12 -0.12)">
     <use xlink:href="#LiberationSans-63"/>
     <use x="50.0" xlink:href="#LiberationSans-20"/>
     <use x="77.783203125" xlink:href="#LiberationSans-2d"/>
     <use x="111.083984375" xlink:href="#LiberationSans-20"/>
     <use x="138.8671875" xlink:href="#LiberationSans-31"/>
     <use x="194.482421875" xlink:href="#LiberationSans-39"/>
     <use x="250.09765625" xlink:href="#LiberationSans-2e"/>
     <use x="277.880859375" xlink:href="#LiberationSans-30"/>
     <use x="333.49609375" xlink:href="#LiberationSans-34"/>
     <use x="389.111328125" xlink:href="#LiberationSans-35"/>
     <use x="444.7265625" xlink:href="#LiberationSans-32"/>
     <use x="500.341796875" xlink:href="#LiberationSans-35"/>
     <use x="555.95703125" xlink:href="#LiberationSans-35"/>
     <use x="611.572265625" xlink:href="#LiberationSans-30"/>
     <use x="667.1875" xlink:href="#LiberationSans-39"/>
     <use x="722.802734375" xlink:href="#LiberationSans-33"/>
     <use x="778.41796875" xlink:href="#LiberationSans-37"/>
     <use x="834.033203125" xlink:href="#LiberationSans-39"/>
     <use x="889.6484375" xlink:href="#LiberationSans-37"/>
     <use x="945.263671875" xlink:href="#LiberationSans-33"/>
     <use x="1000.87890625" xlink:href="#LiberationSans-39"/>
     <use x="1056.494140625" xlink:href="#LiberationSans-37"/>
     <use x="1112.109375" xlink:href="#LiberationSans-20"/>
     <use x="1139.892578125" xlink:href="#LiberationSans-2a"/>
     <use x="1178.80859375" xlink:href="#LiberationSans-20"/>
     <use x="1206.576171875" xlink:href="#LiberationSans-54"/>
     <use x="1267.66015625" xlink:href="#LiberationSans-46"/>
    </g>
   </g>
  </g>
 </g>
 <defs>
  <clipPath id="p5e8bc218e6">
   <rect height="316.8" width="446.4" x="72.0" y="39.6"/>
  </clipPath>
 </defs>
</svg>
