<?xml version="1.0" encoding="utf-8" standalone="no"?>
<!DOCTYPE svg PUBLIC "-//W3C//DTD SVG 1.1//EN"
  "http://www.w3.org/Graphics/SVG/1.1/DTD/svg11.dtd">
<!-- Created with matplotlib (http://matplotlib.org/) -->
<svg height="396pt" version="1.1" viewBox="0 0 576 396" width="576pt" xmlns="http://www.w3.org/2000/svg" xmlns:xlink="http://www.w3.org/1999/xlink">
 <defs>
  <style type="text/css">
*{stroke-linecap:butt;stroke-linejoin:round;stroke-miterlimit:100000;}
  </style>
 </defs>
 <g id="figure_1">
  <g id="patch_1">
   <path d="M 0 396 
L 576 396 
L 576 0 
L 0 0 
z
" style="fill:#ffffff;"/>
  </g>
  <g id="axes_1">
   <g id="patch_2">
    <path d="M 72 356.4 
L 518.4 356.4 
L 518.4 39.6 
L 72 39.6 
z
" style="fill:#eaeaf2;"/>
   </g>
   <g id="matplotlib.axis_1">
    <g id="xtick_1">
     <g id="line2d_1">
      <path clip-path="url(#pd9300cc1a0)" d="M 72 356.4 
L 72 39.6 
" style="fill:none;stroke:#ffffff;stroke-linecap:round;"/>
     </g>
     <g id="line2d_2"/>
     <g id="line2d_3"/>
     <g id="text_1">
      <!-- 2015-11-24 23:18:00 -->
      <defs>
       <path d="M 5.03125 0 
L 5.03125 6.203125 
Q 7.515625 11.921875 11.109375 16.28125 
Q 14.703125 20.65625 18.65625 24.1875 
Q 22.609375 27.734375 26.484375 30.765625 
Q 30.375 33.796875 33.5 36.8125 
Q 36.625 39.84375 38.546875 43.15625 
Q 40.484375 46.484375 40.484375 50.6875 
Q 40.484375 53.609375 39.59375 55.828125 
Q 38.71875 58.0625 37.0625 59.5625 
Q 35.40625 61.078125 33.078125 61.828125 
Q 30.765625 62.59375 27.9375 62.59375 
Q 25.296875 62.59375 22.96875 61.859375 
Q 20.65625 61.140625 18.84375 59.671875 
Q 17.046875 58.203125 15.890625 56.03125 
Q 14.75 53.859375 14.40625 50.984375 
L 5.421875 51.8125 
Q 5.859375 55.515625 7.46875 58.78125 
Q 9.078125 62.0625 11.90625 64.53125 
Q 14.75 67 18.71875 68.40625 
Q 22.703125 69.828125 27.9375 69.828125 
Q 33.0625 69.828125 37.0625 68.609375 
Q 41.0625 67.390625 43.8125 64.984375 
Q 46.578125 62.59375 48.046875 59.078125 
Q 49.515625 55.5625 49.515625 50.984375 
Q 49.515625 47.515625 48.265625 44.390625 
Q 47.015625 41.265625 44.9375 38.421875 
Q 42.875 35.59375 40.140625 32.953125 
Q 37.40625 30.328125 34.421875 27.8125 
Q 31.453125 25.296875 28.421875 22.828125 
Q 25.390625 20.359375 22.71875 17.859375 
Q 20.0625 15.375 17.96875 12.8125 
Q 15.875 10.25 14.703125 7.46875 
L 50.59375 7.46875 
L 50.59375 0 
z
" id="LiberationSans-32"/>
       <path d="M 7.625 0 
L 7.625 7.46875 
L 25.140625 7.46875 
L 25.140625 60.40625 
L 9.625 49.3125 
L 9.625 57.625 
L 25.875 68.796875 
L 33.984375 68.796875 
L 33.984375 7.46875 
L 50.734375 7.46875 
L 50.734375 0 
z
" id="LiberationSans-31"/>
       <path d="M 51.703125 34.421875 
Q 51.703125 24.515625 49.828125 17.75 
Q 47.953125 10.984375 44.703125 6.8125 
Q 41.453125 2.640625 37.0625 0.828125 
Q 32.671875 -0.984375 27.6875 -0.984375 
Q 22.65625 -0.984375 18.3125 0.828125 
Q 13.96875 2.640625 10.765625 6.78125 
Q 7.5625 10.9375 5.734375 17.703125 
Q 3.90625 24.46875 3.90625 34.421875 
Q 3.90625 44.828125 5.734375 51.640625 
Q 7.5625 58.453125 10.78125 62.5 
Q 14.015625 66.546875 18.40625 68.1875 
Q 22.796875 69.828125 27.984375 69.828125 
Q 32.90625 69.828125 37.21875 68.1875 
Q 41.546875 66.546875 44.765625 62.5 
Q 48 58.453125 49.84375 51.640625 
Q 51.703125 44.828125 51.703125 34.421875 
M 42.78125 34.421875 
Q 42.78125 42.625 41.796875 48.0625 
Q 40.828125 53.515625 38.921875 56.765625 
Q 37.015625 60.015625 34.25 61.359375 
Q 31.5 62.703125 27.984375 62.703125 
Q 24.265625 62.703125 21.4375 61.328125 
Q 18.609375 59.96875 16.671875 56.71875 
Q 14.75 53.46875 13.765625 48.015625 
Q 12.796875 42.578125 12.796875 34.421875 
Q 12.796875 26.515625 13.796875 21.09375 
Q 14.796875 15.671875 16.71875 12.375 
Q 18.65625 9.078125 21.4375 7.640625 
Q 24.21875 6.203125 27.78125 6.203125 
Q 31.25 6.203125 34.03125 7.640625 
Q 36.8125 9.078125 38.734375 12.375 
Q 40.671875 15.671875 41.71875 21.09375 
Q 42.78125 26.515625 42.78125 34.421875 
" id="LiberationSans-30"/>
       <path d="M 51.265625 19.1875 
Q 51.265625 14.796875 49.875 11.109375 
Q 48.484375 7.421875 45.625 4.734375 
Q 42.78125 2.046875 38.328125 0.53125 
Q 33.890625 -0.984375 27.828125 -0.984375 
Q 21.78125 -0.984375 17.359375 0.53125 
Q 12.9375 2.046875 10.03125 4.703125 
Q 7.125 7.375 5.734375 11.0625 
Q 4.34375 14.75 4.34375 19.09375 
Q 4.34375 22.859375 5.484375 25.78125 
Q 6.640625 28.71875 8.5625 30.828125 
Q 10.5 32.953125 12.96875 34.25 
Q 15.4375 35.546875 18.0625 35.984375 
L 18.0625 36.1875 
Q 15.1875 36.859375 12.90625 38.375 
Q 10.640625 39.890625 9.09375 42.015625 
Q 7.5625 44.140625 6.75 46.71875 
Q 5.953125 49.3125 5.953125 52.203125 
Q 5.953125 55.8125 7.34375 59 
Q 8.734375 62.203125 11.46875 64.625 
Q 14.203125 67.046875 18.25 68.4375 
Q 22.3125 69.828125 27.640625 69.828125 
Q 33.25 69.828125 37.375 68.40625 
Q 41.5 67 44.203125 64.578125 
Q 46.921875 62.15625 48.234375 58.9375 
Q 49.5625 55.71875 49.5625 52.09375 
Q 49.5625 49.265625 48.75 46.671875 
Q 47.953125 44.09375 46.40625 41.96875 
Q 44.875 39.84375 42.59375 38.34375 
Q 40.328125 36.859375 37.359375 36.28125 
L 37.359375 36.078125 
Q 40.328125 35.59375 42.859375 34.296875 
Q 45.40625 33.015625 47.265625 30.890625 
Q 49.125 28.765625 50.1875 25.828125 
Q 51.265625 22.90625 51.265625 19.1875 
M 40.4375 51.609375 
Q 40.4375 54.203125 39.765625 56.34375 
Q 39.109375 58.5 37.59375 60.03125 
Q 36.078125 61.578125 33.640625 62.421875 
Q 31.203125 63.28125 27.640625 63.28125 
Q 24.171875 63.28125 21.78125 62.421875 
Q 19.390625 61.578125 17.84375 60.03125 
Q 16.3125 58.5 15.625 56.34375 
Q 14.9375 54.203125 14.9375 51.609375 
Q 14.9375 49.5625 15.46875 47.40625 
Q 16.015625 45.265625 17.421875 43.5 
Q 18.84375 41.75 21.328125 40.625 
Q 23.828125 39.5 27.734375 39.5 
Q 31.890625 39.5 34.40625 40.625 
Q 36.921875 41.75 38.25 43.5 
Q 39.59375 45.265625 40.015625 47.40625 
Q 40.4375 49.5625 40.4375 51.609375 
M 42.140625 20.015625 
Q 42.140625 22.515625 41.453125 24.828125 
Q 40.765625 27.15625 39.109375 28.9375 
Q 37.453125 30.71875 34.640625 31.8125 
Q 31.84375 32.90625 27.640625 32.90625 
Q 23.78125 32.90625 21.0625 31.8125 
Q 18.359375 30.71875 16.671875 28.90625 
Q 14.984375 27.09375 14.203125 24.71875 
Q 13.421875 22.359375 13.421875 19.828125 
Q 13.421875 16.65625 14.203125 14.03125 
Q 14.984375 11.421875 16.6875 9.546875 
Q 18.40625 7.671875 21.1875 6.640625 
Q 23.96875 5.609375 27.9375 5.609375 
Q 31.9375 5.609375 34.671875 6.640625 
Q 37.40625 7.671875 39.0625 9.546875 
Q 40.71875 11.421875 41.421875 14.078125 
Q 42.140625 16.75 42.140625 20.015625 
" id="LiberationSans-38"/>
       <path d="M 9.125 42.71875 
L 9.125 52.828125 
L 18.65625 52.828125 
L 18.65625 42.71875 
z
M 9.125 0 
L 9.125 10.109375 
L 18.65625 10.109375 
L 18.65625 0 
z
" id="LiberationSans-3a"/>
       <path d="M 51.21875 19 
Q 51.21875 14.265625 49.671875 10.546875 
Q 48.140625 6.84375 45.1875 4.265625 
Q 42.234375 1.703125 37.859375 0.359375 
Q 33.5 -0.984375 27.875 -0.984375 
Q 21.484375 -0.984375 17.109375 0.609375 
Q 12.75 2.203125 9.90625 4.8125 
Q 7.078125 7.421875 5.65625 10.765625 
Q 4.25 14.109375 3.8125 17.671875 
L 12.890625 18.5 
Q 13.28125 15.765625 14.328125 13.515625 
Q 15.375 11.28125 17.1875 9.671875 
Q 19 8.0625 21.625 7.171875 
Q 24.265625 6.296875 27.875 6.296875 
Q 34.515625 6.296875 38.296875 9.5625 
Q 42.09375 12.84375 42.09375 19.28125 
Q 42.09375 23.09375 40.40625 25.40625 
Q 38.71875 27.734375 36.203125 29.03125 
Q 33.6875 30.328125 30.734375 30.765625 
Q 27.78125 31.203125 25.296875 31.203125 
L 20.3125 31.203125 
L 20.3125 38.8125 
L 25.09375 38.8125 
Q 27.59375 38.8125 30.265625 39.328125 
Q 32.953125 39.84375 35.171875 41.1875 
Q 37.40625 42.53125 38.84375 44.828125 
Q 40.28125 47.125 40.28125 50.6875 
Q 40.28125 56.203125 37.03125 59.390625 
Q 33.796875 62.59375 27.390625 62.59375 
Q 21.578125 62.59375 17.984375 59.609375 
Q 14.40625 56.640625 13.8125 51.21875 
L 4.984375 51.90625 
Q 5.515625 56.453125 7.46875 59.8125 
Q 9.421875 63.1875 12.421875 65.40625 
Q 15.4375 67.625 19.28125 68.71875 
Q 23.140625 69.828125 27.484375 69.828125 
Q 33.25 69.828125 37.390625 68.375 
Q 41.546875 66.9375 44.1875 64.46875 
Q 46.828125 62.015625 48.0625 58.6875 
Q 49.3125 55.375 49.3125 51.609375 
Q 49.3125 48.578125 48.484375 45.9375 
Q 47.65625 43.3125 45.890625 41.203125 
Q 44.140625 39.109375 41.421875 37.59375 
Q 38.71875 36.078125 34.90625 35.296875 
L 34.90625 35.109375 
Q 39.0625 34.671875 42.140625 33.21875 
Q 45.21875 31.78125 47.21875 29.625 
Q 49.21875 27.484375 50.21875 24.75 
Q 51.21875 22.015625 51.21875 19 
" id="LiberationSans-33"/>
       <path d="M 51.421875 22.40625 
Q 51.421875 17.234375 49.859375 12.9375 
Q 48.296875 8.640625 45.21875 5.53125 
Q 42.140625 2.4375 37.578125 0.71875 
Q 33.015625 -0.984375 27 -0.984375 
Q 21.578125 -0.984375 17.546875 0.28125 
Q 13.53125 1.5625 10.734375 3.78125 
Q 7.953125 6 6.3125 8.984375 
Q 4.6875 11.96875 4 15.375 
L 12.890625 16.40625 
Q 13.421875 14.453125 14.390625 12.625 
Q 15.375 10.796875 17.0625 9.34375 
Q 18.75 7.90625 21.21875 7.046875 
Q 23.6875 6.203125 27.203125 6.203125 
Q 30.609375 6.203125 33.390625 7.25 
Q 36.1875 8.296875 38.15625 10.34375 
Q 40.140625 12.40625 41.203125 15.375 
Q 42.28125 18.359375 42.28125 22.21875 
Q 42.28125 25.390625 41.25 28.046875 
Q 40.234375 30.71875 38.328125 32.640625 
Q 36.421875 34.578125 33.65625 35.640625 
Q 30.90625 36.71875 27.390625 36.71875 
Q 25.203125 36.71875 23.34375 36.328125 
Q 21.484375 35.9375 19.890625 35.25 
Q 18.3125 34.578125 17.015625 33.671875 
Q 15.71875 32.765625 14.59375 31.78125 
L 6 31.78125 
L 8.296875 68.796875 
L 47.40625 68.796875 
L 47.40625 61.328125 
L 16.3125 61.328125 
L 14.984375 39.5 
Q 17.328125 41.3125 20.84375 42.59375 
Q 24.359375 43.890625 29.203125 43.890625 
Q 34.328125 43.890625 38.421875 42.328125 
Q 42.53125 40.765625 45.40625 37.90625 
Q 48.296875 35.0625 49.859375 31.109375 
Q 51.421875 27.15625 51.421875 22.40625 
" id="LiberationSans-35"/>
       <path id="LiberationSans-20"/>
       <path d="M 4.4375 22.65625 
L 4.4375 30.46875 
L 28.859375 30.46875 
L 28.859375 22.65625 
z
" id="LiberationSans-2d"/>
       <path d="M 43.015625 15.578125 
L 43.015625 0 
L 34.71875 0 
L 34.71875 15.578125 
L 2.296875 15.578125 
L 2.296875 22.40625 
L 33.796875 68.796875 
L 43.015625 68.796875 
L 43.015625 22.515625 
L 52.6875 22.515625 
L 52.6875 15.578125 
z
M 34.71875 58.890625 
Q 34.625 58.640625 34.234375 57.9375 
Q 33.84375 57.234375 33.34375 56.34375 
Q 32.859375 55.46875 32.34375 54.5625 
Q 31.84375 53.65625 31.453125 53.078125 
L 13.8125 27.09375 
Q 13.578125 26.703125 13.109375 26.0625 
Q 12.640625 25.4375 12.15625 24.78125 
Q 11.671875 24.125 11.171875 23.484375 
Q 10.6875 22.859375 10.40625 22.515625 
L 34.71875 22.515625 
z
" id="LiberationSans-34"/>
      </defs>
      <g style="fill:#262626;" transform="translate(25.5765625 370.646875)scale(0.1 -0.1)">
       <use xlink:href="#LiberationSans-32"/>
       <use x="55.615234375" xlink:href="#LiberationSans-30"/>
       <use x="111.23046875" xlink:href="#LiberationSans-31"/>
       <use x="166.845703125" xlink:href="#LiberationSans-35"/>
       <use x="222.4609375" xlink:href="#LiberationSans-2d"/>
       <use x="255.76171875" xlink:href="#LiberationSans-31"/>
       <use x="311.376953125" xlink:href="#LiberationSans-31"/>
       <use x="366.9921875" xlink:href="#LiberationSans-2d"/>
       <use x="400.29296875" xlink:href="#LiberationSans-32"/>
       <use x="455.908203125" xlink:href="#LiberationSans-34"/>
       <use x="511.5234375" xlink:href="#LiberationSans-20"/>
       <use x="539.306640625" xlink:href="#LiberationSans-32"/>
       <use x="594.921875" xlink:href="#LiberationSans-33"/>
       <use x="650.537109375" xlink:href="#LiberationSans-3a"/>
       <use x="678.3203125" xlink:href="#LiberationSans-31"/>
       <use x="733.935546875" xlink:href="#LiberationSans-38"/>
       <use x="789.55078125" xlink:href="#LiberationSans-3a"/>
       <use x="817.333984375" xlink:href="#LiberationSans-30"/>
       <use x="872.94921875" xlink:href="#LiberationSans-30"/>
      </g>
     </g>
    </g>
    <g id="xtick_2">
     <g id="line2d_4">
      <path clip-path="url(#pd9300cc1a0)" d="M 183.655828 356.4 
L 183.655828 39.6 
" style="fill:none;stroke:#ffffff;stroke-linecap:round;"/>
     </g>
     <g id="line2d_5"/>
     <g id="line2d_6"/>
     <g id="text_2">
      <!-- 2015-11-26 10:37:00 -->
      <defs>
       <path d="M 50.59375 61.671875 
Q 45.40625 53.765625 41.0625 46.453125 
Q 36.71875 39.15625 33.59375 31.75 
Q 30.46875 24.359375 28.734375 16.578125 
Q 27 8.796875 27 0 
L 17.828125 0 
Q 17.828125 8.25 19.78125 16.1875 
Q 21.734375 24.125 25.046875 31.765625 
Q 28.375 39.40625 32.765625 46.78125 
Q 37.15625 54.15625 42.09375 61.328125 
L 5.125 61.328125 
L 5.125 68.796875 
L 50.59375 68.796875 
z
" id="LiberationSans-37"/>
       <path d="M 51.21875 22.515625 
Q 51.21875 17.328125 49.78125 13 
Q 48.34375 8.6875 45.53125 5.578125 
Q 42.71875 2.484375 38.5625 0.75 
Q 34.421875 -0.984375 29 -0.984375 
Q 23 -0.984375 18.5 1.3125 
Q 14.015625 3.609375 11.03125 7.921875 
Q 8.0625 12.25 6.5625 18.53125 
Q 5.078125 24.8125 5.078125 32.8125 
Q 5.078125 42 6.765625 48.921875 
Q 8.453125 55.859375 11.625 60.5 
Q 14.796875 65.140625 19.359375 67.484375 
Q 23.921875 69.828125 29.6875 69.828125 
Q 33.203125 69.828125 36.28125 69.09375 
Q 39.359375 68.359375 41.875 66.71875 
Q 44.390625 65.09375 46.28125 62.40625 
Q 48.1875 59.71875 49.3125 55.8125 
L 40.921875 54.296875 
Q 39.546875 58.734375 36.546875 60.71875 
Q 33.546875 62.703125 29.59375 62.703125 
Q 25.984375 62.703125 23.046875 60.984375 
Q 20.125 59.28125 18.0625 55.875 
Q 16.015625 52.484375 14.90625 47.359375 
Q 13.8125 42.234375 13.8125 35.40625 
Q 16.21875 39.84375 20.5625 42.15625 
Q 24.90625 44.484375 30.515625 44.484375 
Q 35.203125 44.484375 39.015625 42.96875 
Q 42.828125 41.453125 45.53125 38.59375 
Q 48.25 35.75 49.734375 31.671875 
Q 51.21875 27.59375 51.21875 22.515625 
M 42.28125 22.125 
Q 42.28125 25.6875 41.40625 28.5625 
Q 40.53125 31.453125 38.765625 33.46875 
Q 37.015625 35.5 34.421875 36.59375 
Q 31.84375 37.703125 28.421875 37.703125 
Q 26.03125 37.703125 23.578125 36.984375 
Q 21.140625 36.28125 19.15625 34.6875 
Q 17.1875 33.109375 15.9375 30.515625 
Q 14.703125 27.9375 14.703125 24.21875 
Q 14.703125 20.40625 15.671875 17.109375 
Q 16.65625 13.8125 18.484375 11.375 
Q 20.3125 8.9375 22.890625 7.515625 
Q 25.484375 6.109375 28.71875 6.109375 
Q 31.890625 6.109375 34.40625 7.203125 
Q 36.921875 8.296875 38.671875 10.375 
Q 40.4375 12.453125 41.359375 15.421875 
Q 42.28125 18.40625 42.28125 22.125 
" id="LiberationSans-36"/>
      </defs>
      <g style="fill:#262626;" transform="translate(137.232390414 370.646875)scale(0.1 -0.1)">
       <use xlink:href="#LiberationSans-32"/>
       <use x="55.615234375" xlink:href="#LiberationSans-30"/>
       <use x="111.23046875" xlink:href="#LiberationSans-31"/>
       <use x="166.845703125" xlink:href="#LiberationSans-35"/>
       <use x="222.4609375" xlink:href="#LiberationSans-2d"/>
       <use x="255.76171875" xlink:href="#LiberationSans-31"/>
       <use x="311.376953125" xlink:href="#LiberationSans-31"/>
       <use x="366.9921875" xlink:href="#LiberationSans-2d"/>
       <use x="400.29296875" xlink:href="#LiberationSans-32"/>
       <use x="455.908203125" xlink:href="#LiberationSans-36"/>
       <use x="511.5234375" xlink:href="#LiberationSans-20"/>
       <use x="539.306640625" xlink:href="#LiberationSans-31"/>
       <use x="594.921875" xlink:href="#LiberationSans-30"/>
       <use x="650.537109375" xlink:href="#LiberationSans-3a"/>
       <use x="678.3203125" xlink:href="#LiberationSans-33"/>
       <use x="733.935546875" xlink:href="#LiberationSans-37"/>
       <use x="789.55078125" xlink:href="#LiberationSans-3a"/>
       <use x="817.333984375" xlink:href="#LiberationSans-30"/>
       <use x="872.94921875" xlink:href="#LiberationSans-30"/>
      </g>
     </g>
    </g>
    <g id="xtick_3">
     <g id="line2d_7">
      <path clip-path="url(#pd9300cc1a0)" d="M 295.311656 356.4 
L 295.311656 39.6 
" style="fill:none;stroke:#ffffff;stroke-linecap:round;"/>
     </g>
     <g id="line2d_8"/>
     <g id="line2d_9"/>
     <g id="text_3">
      <!-- 2015-11-27 14:43:00 -->
      <g style="fill:#262626;" transform="translate(248.888218328 370.646875)scale(0.1 -0.1)">
       <use xlink:href="#LiberationSans-32"/>
       <use x="55.615234375" xlink:href="#LiberationSans-30"/>
       <use x="111.23046875" xlink:href="#LiberationSans-31"/>
       <use x="166.845703125" xlink:href="#LiberationSans-35"/>
       <use x="222.4609375" xlink:href="#LiberationSans-2d"/>
       <use x="255.76171875" xlink:href="#LiberationSans-31"/>
       <use x="311.376953125" xlink:href="#LiberationSans-31"/>
       <use x="366.9921875" xlink:href="#LiberationSans-2d"/>
       <use x="400.29296875" xlink:href="#LiberationSans-32"/>
       <use x="455.908203125" xlink:href="#LiberationSans-37"/>
       <use x="511.5234375" xlink:href="#LiberationSans-20"/>
       <use x="539.306640625" xlink:href="#LiberationSans-31"/>
       <use x="594.921875" xlink:href="#LiberationSans-34"/>
       <use x="650.537109375" xlink:href="#LiberationSans-3a"/>
       <use x="678.3203125" xlink:href="#LiberationSans-34"/>
       <use x="733.935546875" xlink:href="#LiberationSans-33"/>
       <use x="789.55078125" xlink:href="#LiberationSans-3a"/>
       <use x="817.333984375" xlink:href="#LiberationSans-30"/>
       <use x="872.94921875" xlink:href="#LiberationSans-30"/>
      </g>
     </g>
    </g>
    <g id="xtick_4">
     <g id="line2d_10">
      <path clip-path="url(#pd9300cc1a0)" d="M 406.967484 356.4 
L 406.967484 39.6 
" style="fill:none;stroke:#ffffff;stroke-linecap:round;"/>
     </g>
     <g id="line2d_11"/>
     <g id="line2d_12"/>
     <g id="text_4">
      <!-- 2015-12-03 23:06:00 -->
      <g style="fill:#262626;" transform="translate(360.544046242 370.646875)scale(0.1 -0.1)">
       <use xlink:href="#LiberationSans-32"/>
       <use x="55.615234375" xlink:href="#LiberationSans-30"/>
       <use x="111.23046875" xlink:href="#LiberationSans-31"/>
       <use x="166.845703125" xlink:href="#LiberationSans-35"/>
       <use x="222.4609375" xlink:href="#LiberationSans-2d"/>
       <use x="255.76171875" xlink:href="#LiberationSans-31"/>
       <use x="311.376953125" xlink:href="#LiberationSans-32"/>
       <use x="366.9921875" xlink:href="#LiberationSans-2d"/>
       <use x="400.29296875" xlink:href="#LiberationSans-30"/>
       <use x="455.908203125" xlink:href="#LiberationSans-33"/>
       <use x="511.5234375" xlink:href="#LiberationSans-20"/>
       <use x="539.306640625" xlink:href="#LiberationSans-32"/>
       <use x="594.921875" xlink:href="#LiberationSans-33"/>
       <use x="650.537109375" xlink:href="#LiberationSans-3a"/>
       <use x="678.3203125" xlink:href="#LiberationSans-30"/>
       <use x="733.935546875" xlink:href="#LiberationSans-36"/>
       <use x="789.55078125" xlink:href="#LiberationSans-3a"/>
       <use x="817.333984375" xlink:href="#LiberationSans-30"/>
       <use x="872.94921875" xlink:href="#LiberationSans-30"/>
      </g>
     </g>
    </g>
    <g id="text_5">
     <!-- time -->
     <defs>
      <path d="M 13.484375 24.5625 
Q 13.484375 20.40625 14.328125 16.90625 
Q 15.1875 13.421875 16.96875 10.90625 
Q 18.75 8.40625 21.53125 7 
Q 24.3125 5.609375 28.21875 5.609375 
Q 33.9375 5.609375 37.375 7.90625 
Q 40.828125 10.203125 42.046875 13.71875 
L 49.75 11.53125 
Q 48.921875 9.328125 47.4375 7.109375 
Q 45.953125 4.890625 43.453125 3.09375 
Q 40.96875 1.3125 37.234375 0.15625 
Q 33.5 -0.984375 28.21875 -0.984375 
Q 16.5 -0.984375 10.375 6 
Q 4.25 12.984375 4.25 26.765625 
Q 4.25 34.1875 6.09375 39.328125 
Q 7.953125 44.484375 11.171875 47.703125 
Q 14.40625 50.921875 18.703125 52.359375 
Q 23 53.8125 27.875 53.8125 
Q 34.515625 53.8125 38.984375 51.65625 
Q 43.453125 49.515625 46.15625 45.71875 
Q 48.875 41.9375 50.015625 36.8125 
Q 51.171875 31.6875 51.171875 25.734375 
L 51.171875 24.5625 
z
M 42.09375 31.296875 
Q 41.359375 39.65625 37.84375 43.484375 
Q 34.328125 47.3125 27.734375 47.3125 
Q 25.53125 47.3125 23.109375 46.609375 
Q 20.703125 45.90625 18.65625 44.09375 
Q 16.609375 42.28125 15.1875 39.171875 
Q 13.765625 36.078125 13.578125 31.296875 
z
" id="LiberationSans-65"/>
      <path d="M 6.6875 64.0625 
L 6.6875 72.46875 
L 15.484375 72.46875 
L 15.484375 64.0625 
z
M 6.6875 0 
L 6.6875 52.828125 
L 15.484375 52.828125 
L 15.484375 0 
z
" id="LiberationSans-69"/>
      <path d="M 27.046875 0.390625 
Q 25.046875 -0.140625 22.96875 -0.453125 
Q 20.90625 -0.78125 18.171875 -0.78125 
Q 7.625 -0.78125 7.625 11.1875 
L 7.625 46.4375 
L 1.515625 46.4375 
L 1.515625 52.828125 
L 7.953125 52.828125 
L 10.546875 64.65625 
L 16.40625 64.65625 
L 16.40625 52.828125 
L 26.171875 52.828125 
L 26.171875 46.4375 
L 16.40625 46.4375 
L 16.40625 13.09375 
Q 16.40625 9.28125 17.640625 7.734375 
Q 18.890625 6.203125 21.96875 6.203125 
Q 23.25 6.203125 24.4375 6.390625 
Q 25.640625 6.59375 27.046875 6.890625 
z
" id="LiberationSans-74"/>
      <path d="M 37.5 0 
L 37.5 33.5 
Q 37.5 37.359375 37.015625 39.9375 
Q 36.53125 42.53125 35.375 44.109375 
Q 34.234375 45.703125 32.375 46.359375 
Q 30.515625 47.015625 27.828125 47.015625 
Q 25.046875 47.015625 22.796875 45.921875 
Q 20.5625 44.828125 18.96875 42.75 
Q 17.390625 40.671875 16.53125 37.625 
Q 15.671875 34.578125 15.671875 30.609375 
L 15.671875 0 
L 6.9375 0 
L 6.9375 41.546875 
Q 6.9375 43.21875 6.90625 45.046875 
Q 6.890625 46.875 6.828125 48.5 
Q 6.78125 50.140625 6.734375 51.3125 
Q 6.6875 52.484375 6.640625 52.828125 
L 14.9375 52.828125 
Q 14.984375 52.59375 15.03125 51.515625 
Q 15.09375 50.4375 15.15625 49.046875 
Q 15.234375 47.65625 15.28125 46.21875 
Q 15.328125 44.78125 15.328125 43.796875 
L 15.484375 43.796875 
Q 16.65625 46.09375 18.015625 47.953125 
Q 19.390625 49.8125 21.21875 51.09375 
Q 23.046875 52.390625 25.40625 53.09375 
Q 27.78125 53.8125 30.90625 53.8125 
Q 36.921875 53.8125 40.40625 51.421875 
Q 43.890625 49.03125 45.265625 43.796875 
L 45.40625 43.796875 
Q 46.578125 46.09375 48.046875 47.953125 
Q 49.515625 49.8125 51.46875 51.09375 
Q 53.421875 52.390625 55.859375 53.09375 
Q 58.296875 53.8125 61.421875 53.8125 
Q 65.4375 53.8125 68.328125 52.734375 
Q 71.234375 51.65625 73.09375 49.40625 
Q 74.953125 47.171875 75.828125 43.625 
Q 76.703125 40.09375 76.703125 35.203125 
L 76.703125 0 
L 68.015625 0 
L 68.015625 33.5 
Q 68.015625 37.359375 67.53125 39.9375 
Q 67.046875 42.53125 65.890625 44.109375 
Q 64.75 45.703125 62.890625 46.359375 
Q 61.03125 47.015625 58.34375 47.015625 
Q 55.5625 47.015625 53.3125 45.96875 
Q 51.078125 44.921875 49.484375 42.875 
Q 47.90625 40.828125 47.046875 37.75 
Q 46.1875 34.671875 46.1875 30.609375 
L 46.1875 0 
z
" id="LiberationSans-6d"/>
     </defs>
     <g style="fill:#262626;" transform="translate(284.81015625 385.6934375)scale(0.11 -0.11)">
      <use xlink:href="#LiberationSans-74"/>
      <use x="27.783203125" xlink:href="#LiberationSans-69"/>
      <use x="50.0" xlink:href="#LiberationSans-6d"/>
      <use x="133.30078125" xlink:href="#LiberationSans-65"/>
     </g>
    </g>
   </g>
   <g id="matplotlib.axis_2">
    <g id="ytick_1">
     <g id="line2d_13">
      <path clip-path="url(#pd9300cc1a0)" d="M 72 356.4 
L 518.4 356.4 
" style="fill:none;stroke:#ffffff;stroke-linecap:round;"/>
     </g>
     <g id="line2d_14"/>
     <g id="line2d_15"/>
     <g id="text_6">
      <!-- −200 -->
      <defs>
       <path d="M 4.9375 29.6875 
L 4.9375 36.8125 
L 53.515625 36.8125 
L 53.515625 29.6875 
z
" id="LiberationSans-2212"/>
      </defs>
      <g style="fill:#262626;" transform="translate(42.4765625 358.9859375)scale(0.1 -0.1)">
       <use xlink:href="#LiberationSans-2212"/>
       <use x="58.3984375" xlink:href="#LiberationSans-32"/>
       <use x="114.013671875" xlink:href="#LiberationSans-30"/>
       <use x="169.62890625" xlink:href="#LiberationSans-30"/>
      </g>
     </g>
    </g>
    <g id="ytick_2">
     <g id="line2d_16">
      <path clip-path="url(#pd9300cc1a0)" d="M 72 321.2 
L 518.4 321.2 
" style="fill:none;stroke:#ffffff;stroke-linecap:round;"/>
     </g>
     <g id="line2d_17"/>
     <g id="line2d_18"/>
     <g id="text_7">
      <!-- −100 -->
      <g style="fill:#262626;" transform="translate(42.4765625 323.7859375)scale(0.1 -0.1)">
       <use xlink:href="#LiberationSans-2212"/>
       <use x="58.3984375" xlink:href="#LiberationSans-31"/>
       <use x="114.013671875" xlink:href="#LiberationSans-30"/>
       <use x="169.62890625" xlink:href="#LiberationSans-30"/>
      </g>
     </g>
    </g>
    <g id="ytick_3">
     <g id="line2d_19">
      <path clip-path="url(#pd9300cc1a0)" d="M 72 286 
L 518.4 286 
" style="fill:none;stroke:#ffffff;stroke-linecap:round;"/>
     </g>
     <g id="line2d_20"/>
     <g id="line2d_21"/>
     <g id="text_8">
      <!-- 0 -->
      <g style="fill:#262626;" transform="translate(59.4390625 288.5859375)scale(0.1 -0.1)">
       <use xlink:href="#LiberationSans-30"/>
      </g>
     </g>
    </g>
    <g id="ytick_4">
     <g id="line2d_22">
      <path clip-path="url(#pd9300cc1a0)" d="M 72 250.8 
L 518.4 250.8 
" style="fill:none;stroke:#ffffff;stroke-linecap:round;"/>
     </g>
     <g id="line2d_23"/>
     <g id="line2d_24"/>
     <g id="text_9">
      <!-- 100 -->
      <g style="fill:#262626;" transform="translate(48.3171875 253.3859375)scale(0.1 -0.1)">
       <use xlink:href="#LiberationSans-31"/>
       <use x="55.615234375" xlink:href="#LiberationSans-30"/>
       <use x="111.23046875" xlink:href="#LiberationSans-30"/>
      </g>
     </g>
    </g>
    <g id="ytick_5">
     <g id="line2d_25">
      <path clip-path="url(#pd9300cc1a0)" d="M 72 215.6 
L 518.4 215.6 
" style="fill:none;stroke:#ffffff;stroke-linecap:round;"/>
     </g>
     <g id="line2d_26"/>
     <g id="line2d_27"/>
     <g id="text_10">
      <!-- 200 -->
      <g style="fill:#262626;" transform="translate(48.3171875 218.1859375)scale(0.1 -0.1)">
       <use xlink:href="#LiberationSans-32"/>
       <use x="55.615234375" xlink:href="#LiberationSans-30"/>
       <use x="111.23046875" xlink:href="#LiberationSans-30"/>
      </g>
     </g>
    </g>
    <g id="ytick_6">
     <g id="line2d_28">
      <path clip-path="url(#pd9300cc1a0)" d="M 72 180.4 
L 518.4 180.4 
" style="fill:none;stroke:#ffffff;stroke-linecap:round;"/>
     </g>
     <g id="line2d_29"/>
     <g id="line2d_30"/>
     <g id="text_11">
      <!-- 300 -->
      <g style="fill:#262626;" transform="translate(48.3171875 182.9859375)scale(0.1 -0.1)">
       <use xlink:href="#LiberationSans-33"/>
       <use x="55.615234375" xlink:href="#LiberationSans-30"/>
       <use x="111.23046875" xlink:href="#LiberationSans-30"/>
      </g>
     </g>
    </g>
    <g id="ytick_7">
     <g id="line2d_31">
      <path clip-path="url(#pd9300cc1a0)" d="M 72 145.2 
L 518.4 145.2 
" style="fill:none;stroke:#ffffff;stroke-linecap:round;"/>
     </g>
     <g id="line2d_32"/>
     <g id="line2d_33"/>
     <g id="text_12">
      <!-- 400 -->
      <g style="fill:#262626;" transform="translate(48.3171875 147.7859375)scale(0.1 -0.1)">
       <use xlink:href="#LiberationSans-34"/>
       <use x="55.615234375" xlink:href="#LiberationSans-30"/>
       <use x="111.23046875" xlink:href="#LiberationSans-30"/>
      </g>
     </g>
    </g>
    <g id="ytick_8">
     <g id="line2d_34">
      <path clip-path="url(#pd9300cc1a0)" d="M 72 110 
L 518.4 110 
" style="fill:none;stroke:#ffffff;stroke-linecap:round;"/>
     </g>
     <g id="line2d_35"/>
     <g id="line2d_36"/>
     <g id="text_13">
      <!-- 500 -->
      <g style="fill:#262626;" transform="translate(48.3171875 112.5859375)scale(0.1 -0.1)">
       <use xlink:href="#LiberationSans-35"/>
       <use x="55.615234375" xlink:href="#LiberationSans-30"/>
       <use x="111.23046875" xlink:href="#LiberationSans-30"/>
      </g>
     </g>
    </g>
    <g id="ytick_9">
     <g id="line2d_37">
      <path clip-path="url(#pd9300cc1a0)" d="M 72 74.8 
L 518.4 74.8 
" style="fill:none;stroke:#ffffff;stroke-linecap:round;"/>
     </g>
     <g id="line2d_38"/>
     <g id="line2d_39"/>
     <g id="text_14">
      <!-- 600 -->
      <g style="fill:#262626;" transform="translate(48.3171875 77.3859375)scale(0.1 -0.1)">
       <use xlink:href="#LiberationSans-36"/>
       <use x="55.615234375" xlink:href="#LiberationSans-30"/>
       <use x="111.23046875" xlink:href="#LiberationSans-30"/>
      </g>
     </g>
    </g>
    <g id="ytick_10">
     <g id="line2d_40">
      <path clip-path="url(#pd9300cc1a0)" d="M 72 39.6 
L 518.4 39.6 
" style="fill:none;stroke:#ffffff;stroke-linecap:round;"/>
     </g>
     <g id="line2d_41"/>
     <g id="line2d_42"/>
     <g id="text_15">
      <!-- 700 -->
      <g style="fill:#262626;" transform="translate(48.3171875 42.1859375)scale(0.1 -0.1)">
       <use xlink:href="#LiberationSans-37"/>
       <use x="55.615234375" xlink:href="#LiberationSans-30"/>
       <use x="111.23046875" xlink:href="#LiberationSans-30"/>
      </g>
     </g>
    </g>
   </g>
   <g id="line2d_43">
    <path clip-path="url(#pd9300cc1a0)" d="M 72 164.409108 
L 72.223312 162.666708 
L 72.446623 153.701832 
L 72.669935 164.816924 
L 72.893247 160.671432 
L 73.116558 159.181908 
L 73.33987 169.639828 
L 73.786493 158.271859 
L 74.009805 160.671432 
L 74.233117 158.500977 
L 74.456428 162.666708 
L 74.67974 119.021969 
L 74.903052 124.249169 
L 75.126363 135.617139 
L 75.572986 120.53877 
L 75.796298 120.53877 
L 76.01961 122.28117 
L 76.466233 135.566717 
L 76.689545 131.82904 
L 76.912856 135.974533 
L 77.35948 131.400986 
L 77.806103 137.309117 
L 78.029415 121.623997 
L 78.252726 132.73909 
L 78.922661 116.575494 
L 79.145973 121.37464 
L 79.369285 108.945201 
L 79.815908 101.975601 
L 80.262531 108.945201 
L 80.485843 107.202801 
L 80.709155 110.259547 
L 80.932466 110.259547 
L 81.155778 112.001947 
L 81.37909 110.687601 
L 81.602401 105.207525 
L 81.825713 108.695845 
L 82.049025 99.323152 
L 82.272336 95.181179 
L 82.495648 88.865232 
L 82.718959 93.007205 
L 82.942271 89.522405 
L 83.165583 92.353552 
L 83.388894 80.331929 
L 83.612206 79.017583 
L 84.505453 102.154299 
L 84.728764 94.931822 
L 84.952076 97.331395 
L 85.175388 92.532249 
L 85.622011 108.874542 
L 85.845323 102.986649 
L 86.068634 104.981926 
L 86.291946 114.354619 
L 86.515258 111.955046 
L 86.738569 96.674222 
L 86.961881 102.379898 
L 87.185193 103.465125 
L 87.408504 103.465125 
L 87.631816 111.095418 
L 87.855128 108.695845 
L 88.078439 116.322618 
L 88.525063 111.523472 
L 88.748374 111.523472 
L 88.971686 115.008272 
L 89.194997 116.754192 
L 89.418309 115.008272 
L 89.641621 115.665445 
L 89.864932 108.26427 
L 90.088244 108.26427 
L 90.758179 113.087174 
L 91.204802 126.173786 
L 91.428114 113.744347 
L 91.651426 122.028293 
L 92.321361 109.827973 
L 92.544672 112.227546 
L 92.767984 111.82325 
L 92.991296 105.028827 
L 93.214607 106.774747 
L 93.437919 109.602374 
L 93.884542 105.864698 
L 94.331166 115.486747 
L 94.554477 114.829574 
L 95.001101 121.37464 
L 95.224412 120.717467 
L 95.447724 124.202267 
L 95.671036 125.944667 
L 95.894347 120.717467 
L 96.117659 129.907943 
L 96.34097 126.851197 
L 96.564282 126.173786 
L 96.787594 133.824317 
L 97.010905 124.202267 
L 97.234217 143.372187 
L 97.457529 147.288561 
L 97.68084 144.208058 
L 97.904152 137.009339 
L 98.127464 145.950458 
L 98.350775 139.408912 
L 98.797399 144.86523 
L 99.02071 136.581285 
L 99.244022 142.465658 
L 99.467334 138.980858 
L 99.913957 144.208058 
L 100.137269 153.172934 
L 100.36058 153.830107 
L 100.583892 146.203334 
L 100.807204 143.803761 
L 101.030515 147.945734 
L 101.253827 137.487814 
L 101.477139 137.487814 
L 101.70045 143.803761 
L 101.923762 140.318961 
L 102.147074 139.887387 
L 102.593697 153.223356 
L 102.817009 149.081383 
L 103.04032 151.049382 
L 103.263632 135.795836 
L 103.486943 132.964689 
L 103.710255 137.787593 
L 103.933567 137.106662 
L 104.156878 130.817993 
L 104.603502 140.187166 
L 104.826813 139.327537 
L 105.050125 147.638761 
L 105.273437 143.901084 
L 105.496748 150.870684 
L 105.72006 151.527857 
L 105.943372 158.750334 
L 106.166683 153.951188 
L 106.389995 153.270257 
L 106.613307 161.581481 
L 107.283242 146.071539 
L 107.729865 154.537702 
L 107.953177 164.159752 
L 108.176488 164.587806 
L 108.3998 176.130953 
L 108.623112 175.045726 
L 108.846423 177.445299 
L 109.069735 178.102472 
L 109.293047 179.844872 
L 109.516358 184.644017 
L 109.962981 172.871752 
L 110.186293 171.129352 
L 110.632916 160.445833 
L 110.856228 166.330206 
L 111.07954 169.161353 
L 111.302851 170.222822 
L 111.526163 164.992102 
L 111.749475 170.472179 
L 111.972786 170.701297 
L 112.196098 170.044124 
L 112.41941 170.044124 
L 112.642721 164.159752 
L 112.866033 161.760179 
L 113.089345 163.071004 
L 113.312656 161.328604 
L 113.535968 169.639828 
L 113.75928 173.781801 
L 113.982591 167.216497 
L 114.429215 163.54948 
L 114.652526 151.527857 
L 115.09915 155.265534 
L 115.322461 156.350761 
L 115.545773 166.808681 
L 115.769085 169.639828 
L 115.992396 168.551081 
L 116.215708 165.902152 
L 116.885643 183.582548 
L 117.108954 183.582548 
L 117.555578 177.266601 
L 117.778889 174.867028 
L 118.225513 173.124628 
L 118.448824 164.409108 
L 118.672136 172.039401 
L 118.895448 171.607827 
L 119.118759 182.972277 
L 119.342071 174.260277 
L 119.565383 180.801823 
L 119.788694 175.7498 
L 120.012006 190.60257 
L 120.235318 183.380093 
L 120.458629 188.202997 
L 120.905253 205.45182 
L 121.128564 199.543689 
L 121.351876 200.628916 
L 121.575188 200.403317 
L 121.798499 199.971743 
L 122.021811 194.08737 
L 122.245123 204.770889 
L 122.468434 168.001946 
L 122.915058 166.030427 
L 123.138369 180.883197 
L 123.361681 170.829573 
L 123.584992 171.261147 
L 123.808304 181.719067 
L 124.254927 162.29627 
L 124.478239 159.239525 
L 124.701551 167.52347 
L 124.924862 163.381498 
L 125.148174 162.724325 
L 125.371486 165.78107 
L 125.594797 161.639098 
L 125.818109 153.351632 
L 126.041421 157.497125 
L 126.264732 159.239525 
L 126.488044 166.462001 
L 126.711356 162.545627 
L 127.157979 150.773361 
L 127.381291 146.860507 
L 127.604602 152.74488 
L 127.827914 152.74488 
L 128.274537 156.661254 
L 128.497849 160.803227 
L 128.721161 161.231281 
L 128.944472 154.665978 
L 129.167784 168.204401 
L 129.614407 155.32315 
L 129.837719 160.146054 
L 130.061031 151.430534 
L 130.507654 144.86523 
L 130.954277 150.524005 
L 131.4009 158.150778 
L 131.624212 158.80795 
L 131.847524 154.008805 
L 132.070835 158.403654 
L 132.294147 158.403654 
L 132.517459 157.746481 
L 132.74077 156.004081 
L 132.964082 156.661254 
L 133.187394 152.519281 
L 133.410705 154.918854 
L 133.634017 152.519281 
L 133.857329 158.80795 
L 134.08064 157.746481 
L 134.303952 141.151312 
L 134.750575 142.897232 
L 134.973887 143.12283 
L 135.42051 151.430534 
L 135.643822 144.86523 
L 135.867134 146.860507 
L 136.090445 138.573041 
L 136.313757 149.030961 
L 136.537069 149.688134 
L 136.76038 147.288561 
L 136.983692 142.061361 
L 137.430315 151.430534 
L 137.653627 150.773361 
L 137.876938 151.181178 
L 138.10025 155.32315 
L 138.546873 151.83835 
L 138.770185 154.261681 
L 138.993497 154.261681 
L 139.216808 150.773361 
L 139.44012 150.09595 
L 139.663432 150.09595 
L 140.110055 144.86523 
L 140.333367 146.203334 
L 140.77999 140.318961 
L 141.003302 150.345307 
L 141.226613 145.118107 
L 141.449925 153.172934 
L 141.896548 143.803761 
L 142.11986 147.945734 
L 142.343172 146.203334 
L 142.566483 151.00248 
L 142.789795 145.77176 
L 143.013107 146.860507 
L 143.236418 143.372187 
L 143.45973 142.718534 
L 143.683042 129.429467 
L 143.906353 138.80216 
L 144.352976 132.917787 
L 144.7996 139.051517 
L 145.022911 138.374106 
L 145.469535 158.022502 
L 145.692846 146.907409 
L 145.916158 142.765436 
L 146.13947 143.422609 
L 146.362781 156.280102 
L 146.586093 146.68181 
L 146.809405 149.081383 
L 147.032716 147.338983 
L 147.256028 147.338983 
L 147.47934 153.880529 
L 147.925963 143.850663 
L 148.149275 150.823783 
L 148.372586 147.996156 
L 148.81921 145.596583 
L 149.265833 138.80216 
L 149.712456 141.858906 
L 149.935768 133.143386 
L 150.15908 133.143386 
L 150.382391 129.658586 
L 150.605703 129.658586 
L 150.829015 117.458266 
L 151.052326 115.715866 
L 151.275638 120.943066 
L 151.498949 115.715866 
L 151.945573 112.227546 
L 152.168884 112.227546 
L 152.392196 119.200666 
L 152.615508 122.685466 
L 153.062131 119.200666 
L 153.732066 119.200666 
L 153.955378 115.715866 
L 154.178689 117.458266 
L 154.402001 117.458266 
L 154.625313 110.485146 
L 154.848624 108.742746 
L 155.071936 112.227546 
L 155.295248 112.227546 
L 155.518559 108.742746 
L 155.965183 91.315226 
L 156.188494 96.542426 
L 156.411806 87.830426 
L 156.635118 94.800026 
L 156.858429 93.057626 
L 157.081741 82.599706 
L 157.305053 96.542426 
L 157.528364 91.315226 
L 157.751676 94.800026 
L 157.974987 91.315226 
L 158.198299 86.084506 
L 158.421611 87.830426 
L 158.644922 82.599706 
L 158.868234 82.599706 
L 159.091546 80.857306 
L 159.314857 84.342106 
L 159.538169 91.315226 
L 159.761481 91.315226 
L 159.984792 98.284826 
L 160.208104 108.742746 
L 160.431416 103.515546 
L 160.654727 101.773146 
L 160.878039 101.773146 
L 161.101351 100.027226 
L 161.324662 96.542426 
L 161.547974 98.284826 
L 161.771286 91.315226 
L 161.994597 108.742746 
L 162.217909 107.000346 
L 162.664532 110.485146 
L 162.887844 100.027226 
L 163.111156 103.515546 
L 163.334467 94.800026 
L 163.557779 101.773146 
L 163.781091 98.284826 
L 164.004402 100.027226 
L 164.451026 113.973466 
L 164.897649 113.973466 
L 165.12096 103.515546 
L 165.344272 112.227546 
L 165.567584 155.693588 
L 165.790895 133.038868 
L 166.014207 143.290813 
L 166.46083 122.806547 
L 166.684142 115.179774 
L 166.907454 137.002144 
L 167.130765 130.686197 
L 167.354077 128.943797 
L 167.577389 116.49412 
L 167.8007 119.321747 
L 168.024012 110.178173 
L 168.247324 110.178173 
L 168.470635 107.370784 
L 168.917259 145.585868 
L 169.363882 164.327734 
L 169.587194 164.327734 
L 169.810505 159.279231 
L 170.033817 171.728908 
L 170.257129 167.586935 
L 170.48044 165.844535 
L 170.703752 170.212107 
L 170.927064 194.912525 
L 171.150375 195.3441 
L 171.373687 191.202127 
L 171.596998 192.512953 
L 171.82031 188.37098 
L 172.043622 186.62858 
L 172.266933 164.80621 
L 172.490245 166.54861 
L 172.713557 176.827833 
L 172.936868 175.513487 
L 173.16018 167.633837 
L 173.383492 167.862956 
L 173.606803 160.664237 
L 173.830115 146.721517 
L 174.053427 158.085967 
L 174.50005 149.778263 
L 174.723362 163.313167 
L 174.946673 158.490263 
L 175.616608 168.112313 
L 176.063232 156.343567 
L 176.286543 153.920236 
L 176.509855 138.484473 
L 176.733167 111.68426 
L 176.956478 118.225805 
L 177.403102 112.341433 
L 177.626413 118.000207 
L 177.849725 115.826233 
L 178.073037 144.011451 
L 178.296348 149.899344 
L 178.51966 147.72537 
L 178.742971 143.808996 
L 178.966283 126.583931 
L 179.189595 135.52505 
L 179.412906 127.419801 
L 179.636218 129.162201 
L 180.082841 136.563375 
L 180.306153 146.589721 
L 180.529465 142.198391 
L 180.752776 145.932548 
L 180.976088 141.133402 
L 181.1994 143.532975 
L 181.422711 151.591322 
L 181.646023 143.283618 
L 181.869335 147.425591 
L 182.092646 146.364122 
L 182.315958 136.563375 
L 182.53927 136.967671 
L 182.985893 129.998071 
L 183.209205 133.482871 
L 183.655828 129.998071 
L 183.87914 134.568098 
L 184.102451 135.906202 
L 184.549075 140.455991 
L 184.995698 124.541753 
L 185.21901 129.340898 
L 185.888944 123.024951 
L 186.112256 125.677401 
L 186.335568 117.797751 
L 187.228814 132.421402 
L 187.452126 128.933082 
L 187.675438 132.421402 
L 187.898749 122.14218 
L 188.122061 105.068534 
L 188.345373 105.725707 
L 188.568684 114.26253 
L 188.791996 106.635757 
L 189.238619 124.110178 
L 189.461931 116.91146 
L 189.685243 116.257807 
L 190.131866 111.909858 
L 190.355178 109.94186 
L 190.578489 126.762628 
L 191.025113 137.041851 
L 191.248424 129.162201 
L 191.695048 123.277828 
L 192.141671 97.360387 
L 192.588294 83.845721 
L 192.811606 87.987694 
L 193.034917 86.019695 
L 193.258229 87.762095 
L 193.481541 86.019695 
L 193.928164 75.561775 
L 194.151476 84.681591 
L 194.374787 86.019695 
L 194.598099 89.733614 
L 194.821411 91.068198 
L 195.268034 52.475481 
L 195.491346 55.532227 
L 195.714657 45.502361 
L 195.937969 52.296784 
L 196.161281 68.46038 
L 196.384592 69.545607 
L 196.607904 76.518727 
L 196.831216 90.258991 
L 197.054527 62.097531 
L 197.277839 54.645935 
L 197.724462 71.217347 
L 197.947774 58.134255 
L 198.171086 55.481805 
L 198.394397 63.765751 
L 198.617709 56.138978 
L 198.841021 66.846255 
L 199.064332 66.846255 
L 199.287644 70.334575 
L 199.510955 67.503428 
L 199.734267 55.91338 
L 200.18089 72.912845 
L 200.404202 67.456527 
L 200.627514 72.255673 
L 200.850825 70.513273 
L 201.074137 71.166925 
L 201.52076 80.539618 
L 201.744072 76.8257 
L 201.967384 79.225273 
L 202.190695 84.455993 
L 202.414007 92.51082 
L 202.637319 91.654711 
L 202.86063 90.340365 
L 203.083942 90.997538 
L 203.530565 85.288343 
L 203.753877 97.084367 
L 203.977189 97.488663 
L 204.2005 94.003863 
L 204.423812 88.547544 
L 204.647124 88.298187 
L 205.093747 77.183094 
L 205.317059 81.577944 
L 205.54037 95.341967 
L 205.763682 77.66157 
L 205.986993 82.235117 
L 206.210305 99.234583 
L 206.433617 87.462317 
L 206.656928 89.86189 
L 206.88024 77.004397 
L 207.103552 85.719917 
L 207.550175 90.947117 
L 207.996798 82.663171 
L 208.22011 89.204717 
L 208.443422 86.147971 
L 208.666733 75.01264 
L 208.890045 72.613067 
L 209.113357 81.325067 
L 209.336668 85.062744 
L 209.55998 85.719917 
L 209.783292 80.489197 
L 210.006603 80.489197 
L 210.229915 97.263064 
L 210.453227 105.54701 
L 210.676538 103.80461 
L 210.89985 99.662637 
L 211.123162 110.77773 
L 211.346473 104.461783 
L 211.569785 103.80461 
L 211.793097 97.66736 
L 212.016408 87.641014 
L 212.23972 88.95536 
L 212.463032 99.841334 
L 212.686343 90.040587 
L 212.909655 97.013707 
L 213.132966 97.013707 
L 213.356278 94.614134 
L 213.57959 88.069068 
L 214.026213 96.127415 
L 214.249525 93.299788 
L 214.472836 98.526988 
L 214.91946 103.326134 
L 215.142771 72.562646 
L 215.366083 90.040587 
L 215.589395 80.014241 
L 215.812706 78.925494 
L 216.036018 73.698294 
L 216.25933 64.757175 
L 216.705953 77.614668 
L 216.929265 82.184695 
L 217.152576 93.299788 
L 217.375888 92.642615 
L 217.5992 95.699361 
L 217.822511 105.068534 
L 218.269135 107.646804 
L 218.492446 110.477951 
L 218.715758 102.190486 
L 218.93907 101.105259 
L 219.162381 102.847659 
L 219.385693 98.705686 
L 219.832316 116.362324 
L 220.055628 115.300855 
L 220.278939 112.220351 
L 220.502251 106.989631 
L 221.172186 120.278699 
L 221.395498 120.278699 
L 221.618809 128.166404 
L 221.842121 118.556129 
L 222.065433 119.450884 
L 222.288744 122.111389 
L 222.735368 118.57948 
L 222.958679 123.873619 
L 223.181991 120.388819 
L 223.405303 125.662721 
L 223.628614 123.025566 
L 223.851926 123.920321 
L 224.075238 134.421422 
L 224.298549 119.584355 
L 224.521861 122.197751 
L 224.745173 115.18145 
L 224.968484 123.025566 
L 225.191796 117.794846 
L 225.415108 116.052446 
L 225.638419 109.974081 
L 226.085043 118.689601 
L 226.308354 109.930899 
L 226.531666 117.775015 
L 226.754977 121.259815 
L 226.978289 126.487015 
L 227.424912 111.60636 
L 227.871536 102.043194 
L 228.094847 104.680349 
L 228.318159 102.89436 
L 228.541471 109.016314 
L 228.764782 90.737629 
L 229.434717 102.961299 
L 229.658029 97.710749 
L 229.881341 82.873274 
L 230.104652 98.581745 
L 230.551276 89.842874 
L 230.774587 90.737629 
L 230.997899 83.768029 
L 231.221211 85.510429 
L 231.667834 60.238385 
L 231.891146 70.692785 
L 232.114457 69.845139 
L 232.337769 71.567709 
L 232.561081 65.442234 
L 232.784392 55.007665 
L 233.007704 61.980785 
L 233.231016 55.007665 
L 233.454327 63.723185 
L 233.677639 67.231335 
L 233.90095 64.617939 
L 234.124262 67.207985 
L 234.347574 65.465585 
L 234.570885 66.360339 
L 234.794197 63.743015 
L 235.017509 64.617939 
L 235.24082 70.692785 
L 235.687444 49.713933 
L 235.910755 45.311028 
L 236.134067 47.924424 
L 236.357379 52.303979 
L 236.58069 47.053428 
L 236.804002 54.964484 
L 237.027314 43.611809 
L 237.250625 44.506564 
L 237.473937 47.991364 
L 237.697249 55.902419 
L 237.92056 68.145921 
L 238.367184 46.315495 
L 238.590495 55.92577 
L 238.813807 48.95265 
L 239.037119 49.823646 
L 239.26043 61.15297 
L 239.483742 61.129619 
L 239.707054 60.258215 
L 239.930365 64.617939 
L 240.153677 62.852189 
L 240.376988 68.102739 
L 240.6003 68.973735 
L 240.823612 61.129619 
L 241.046923 61.129619 
L 241.270235 63.723185 
L 241.493547 68.950385 
L 241.716858 68.950385 
L 241.94017 67.207985 
L 242.163482 67.207985 
L 242.386793 77.665905 
L 242.610105 74.181105 
L 242.833417 72.435185 
L 243.056728 72.435185 
L 243.28004 75.923505 
L 243.503352 74.181105 
L 243.726663 58.492465 
L 243.949975 60.238385 
L 244.173287 63.723185 
L 244.396598 58.492465 
L 244.61991 60.238385 
L 244.843222 60.238385 
L 245.066533 61.980785 
L 245.289845 74.181105 
L 245.513157 77.665905 
L 245.736468 65.465585 
L 245.95978 60.238385 
L 246.183092 63.723185 
L 246.629715 63.723185 
L 247.076338 56.750065 
L 247.29965 49.780465 
L 247.522961 48.038065 
L 247.746273 49.780465 
L 248.192896 58.492465 
L 248.416208 60.238385 
L 248.63952 55.007665 
L 248.862831 56.750065 
L 249.086143 49.780465 
L 249.532766 49.780465 
L 249.756078 55.007665 
L 249.97939 65.465585 
L 250.202701 63.723185 
L 250.426013 60.238385 
L 250.872636 51.522865 
L 251.095948 48.038065 
L 251.31926 46.292145 
L 251.542571 56.750065 
L 251.765883 58.492465 
L 251.989195 65.465585 
L 252.212506 58.492465 
L 252.435818 68.950385 
L 252.65913 63.723185 
L 252.882441 61.980785 
L 253.105753 56.750065 
L 253.329065 56.750065 
L 253.552376 63.723185 
L 253.998999 52.417619 
L 254.222311 63.699834 
L 254.445623 48.842529 
L 254.668934 47.167069 
L 254.892246 59.41057 
L 255.115558 56.773415 
L 255.338869 63.813475 
L 255.562181 76.056976 
L 256.008804 64.661121 
L 256.455428 72.548826 
L 256.678739 80.389422 
L 256.902051 76.904622 
L 257.125363 76.881271 
L 257.348674 70.739486 
L 257.571986 73.376641 
L 257.795298 79.431655 
L 258.018609 80.32289 
L 258.241921 72.435185 
L 258.465233 78.537309 
L 258.688544 80.303059 
L 258.911856 68.0358 
L 259.135168 67.164804 
L 259.358479 67.164804 
L 259.581791 59.296929 
L 259.805103 60.191684 
L 260.028414 60.171853 
L 260.475038 58.429453 
L 260.921661 67.992619 
L 261.144972 78.470369 
L 261.368284 83.697569 
L 261.591596 82.830093 
L 261.814907 84.592324 
L 262.038219 84.572493 
L 262.261531 88.94812 
L 262.484842 88.080644 
L 262.708154 82.830093 
L 262.931466 95.897889 
L 263.154777 101.128609 
L 263.378089 102.000013 
L 263.601401 103.698824 
L 263.824712 101.933073 
L 264.048024 110.668424 
L 264.271336 106.312628 
L 264.717959 91.408622 
L 264.941271 94.896942 
L 265.164582 103.652123 
L 265.387894 91.451803 
L 265.611206 99.296327 
L 265.834517 102.804477 
L 266.057829 103.652123 
L 266.281141 109.754247 
L 266.504452 112.347812 
L 266.951076 112.347812 
L 267.174387 126.290532 
L 267.397699 115.76608 
L 267.621011 122.759031 
L 268.067634 114.02368 
L 268.290945 116.660427 
L 268.514257 112.28128 
L 268.737569 126.247351 
L 268.96088 126.247351 
L 269.184192 131.497902 
L 269.407504 143.718052 
L 269.630815 137.596098 
L 269.854127 121.039982 
L 270.077439 115.789431 
L 270.524062 122.802212 
L 270.747374 114.937858 
L 270.970685 123.696967 
L 271.193997 118.402827 
L 271.417309 124.4816 
L 271.64062 141.90912 
L 271.863932 132.322197 
L 272.087244 142.803467 
L 272.310555 142.756766 
L 272.533867 154.980437 
L 272.757179 135.787166 
L 273.203802 144.545867 
L 273.427114 144.545867 
L 273.650425 134.111298 
L 274.097049 137.596098 
L 274.32036 133.240302 
L 274.543672 135.830347 
L 274.766983 133.216951 
L 274.990295 135.830347 
L 275.213607 130.603147 
L 275.436918 130.603147 
L 275.66023 129.751982 
L 275.883542 130.603147 
L 276.106853 136.725102 
L 276.330165 134.087947 
L 276.553477 133.240302 
L 276.776788 135.002532 
L 277.0001 139.338498 
L 277.446723 118.312945 
L 277.670035 120.078695 
L 277.893347 114.851495 
L 278.116658 115.699141 
L 278.33997 127.919291 
L 278.786593 125.329246 
L 279.009905 120.926341 
L 279.233217 121.801265 
L 279.67984 118.226175 
L 280.126463 110.382058 
L 280.349775 109.510655 
L 280.573087 106.002504 
L 280.796398 106.897258 
L 281.243022 106.897258 
L 281.466333 110.405409 
L 282.136268 83.387445 
L 282.582891 90.360565 
L 282.806203 86.875765 
L 283.029515 92.126316 
L 283.252826 86.004769 
L 283.476138 92.102965 
L 283.69945 89.51292 
L 283.922761 83.410796 
L 284.146073 101.82336 
L 284.369385 96.59616 
L 284.592696 95.721237 
L 284.816008 89.62304 
L 285.03932 86.985886 
L 285.262631 93.978837 
L 285.485943 86.985886 
L 285.709255 86.985886 
L 285.932566 94.896942 
L 286.37919 87.923822 
L 286.602501 86.158071 
L 286.825813 88.751637 
L 287.049125 89.62304 
L 287.272436 93.10784 
L 287.495748 92.213086 
L 287.71906 93.10784 
L 287.942371 87.833531 
L 288.388994 101.776251 
L 288.612306 101.776251 
L 288.835618 110.471941 
L 289.058929 107.858545 
L 289.282241 109.620775 
L 289.505553 106.135975 
L 289.952176 114.871326 
L 290.175488 116.613726 
L 290.398799 119.25088 
L 290.622111 118.359646 
L 291.068734 111.386526 
L 291.292046 113.128926 
L 291.515358 121.016631 
L 291.738669 105.331511 
L 291.961981 102.714187 
L 292.185293 112.347812 
L 292.408604 97.463637 
L 292.855228 109.663957 
L 293.078539 106.179157 
L 293.301851 112.28128 
L 293.748474 116.637077 
L 293.971786 112.28128 
L 294.195098 117.531831 
L 294.418409 116.637077 
L 294.641721 128.860747 
L 295.088344 123.586846 
L 295.311656 110.471941 
L 295.534967 114.851495 
L 295.758279 115.722491 
L 295.981591 118.359646 
L 296.204902 103.522171 
L 296.428214 104.413406 
L 296.651526 119.207291 
L 296.874837 117.464891 
L 297.098149 106.135975 
L 297.321461 106.135975 
L 297.544772 143.584581 
L 297.768084 154.937255 
L 297.991396 140.927596 
L 298.214707 139.228785 
L 298.661331 122.538789 
L 298.884642 130.379793 
L 299.107954 126.894993 
L 299.331266 121.667793 
L 299.554577 103.322168 
L 299.777889 106.830319 
L 300.001201 114.718024 
L 300.224512 105.107749 
L 300.447824 110.315119 
L 300.671136 105.087919 
L 300.894447 104.193572 
L 301.117759 92.821067 
L 301.341071 94.540116 
L 301.564382 105.021387 
L 301.787694 106.787138 
L 302.011006 94.563467 
L 302.234317 112.037688 
L 302.457629 108.529538 
L 302.68094 108.529538 
L 302.904252 117.241538 
L 303.127564 120.706507 
L 303.350875 118.964107 
L 303.574187 126.851812 
L 303.797499 124.214658 
L 304.02081 118.964107 
L 304.244122 126.804703 
L 304.467434 118.092703 
L 304.690745 116.326953 
L 304.914057 127.699458 
L 305.137369 126.804703 
L 305.36068 126.784873 
L 305.583992 125.042473 
L 305.807304 125.042473 
L 306.030615 127.679627 
L 306.253927 122.429076 
L 306.477239 122.429076 
L 306.70055 123.296553 
L 307.147174 127.699458 
L 307.370485 110.248587 
L 307.817109 117.241538 
L 308.04042 114.604383 
L 308.263732 108.486356 
L 308.710355 118.069353 
L 308.933667 129.422027 
L 309.38029 133.777823 
L 309.826913 111.119583 
L 310.273537 126.000239 
L 310.72016 111.186523 
L 310.943472 116.417243 
L 311.390095 112.928923 
L 311.613407 115.542319 
L 311.836718 124.281189 
L 312.283342 128.637393 
L 312.506653 138.223909 
L 313.176588 120.596386 
L 313.3999 102.341051 
L 313.623212 96.238927 
L 313.846523 70.072537 
L 314.069835 68.286956 
L 314.293147 77.917061 
L 314.516458 81.29174 
L 314.73977 75.193544 
L 314.963082 76.869004 
L 315.186393 54.124402 
L 315.409705 68.110303 
L 315.633017 67.238899 
L 315.856328 54.991878 
L 316.07964 79.506159 
L 316.302951 69.048239 
L 316.526263 63.797688 
L 316.972886 72.533039 
L 317.196198 62.055288 
L 317.41951 67.325669 
L 317.642821 67.325669 
L 317.866133 75.213374 
L 318.089445 51.6639 
L 318.312756 58.676681 
L 318.536068 49.941331 
L 318.75938 48.198931 
L 318.982691 62.165001 
L 319.206003 62.165001 
L 319.429315 70.009525 
L 319.652626 62.12182 
L 320.09925 58.6335 
L 320.322561 69.134601 
L 320.545873 65.69691 
L 320.769185 65.69691 
L 320.992496 70.92411 
L 321.215808 64.802156 
L 321.43912 67.43931 
L 321.662431 78.744876 
L 322.109055 70.877001 
L 322.332366 66.521205 
L 322.555678 73.494325 
L 322.778989 67.372371 
L 323.002301 70.009525 
L 323.225613 70.009525 
L 323.448924 67.372371 
L 323.672236 57.762504 
L 324.118859 73.494325 
L 324.342171 75.213374 
L 324.788794 85.714476 
L 325.012106 83.12443 
L 325.235418 88.374981 
L 325.458729 75.260076 
L 325.682041 89.222626 
L 325.905353 92.710946 
L 326.128664 92.710946 
L 326.351976 85.737826 
L 326.575288 96.195746 
L 326.798599 99.680546 
L 327.021911 106.653666 
L 327.245223 101.422946 
L 327.468534 90.965026 
L 327.691846 115.499138 
L 327.915158 107.678372 
L 328.138469 110.228756 
L 328.361781 116.326953 
L 328.808404 97.981327 
L 329.031716 97.133682 
L 329.255028 94.473177 
L 329.478339 103.255636 
L 329.701651 101.513236 
L 329.924962 98.028436 
L 330.148274 96.286036 
L 330.371586 100.641833 
L 330.594897 101.536587 
L 330.818209 107.634783 
L 331.041521 107.634783 
L 331.264832 98.876082 
L 331.488144 105.849202 
L 331.934767 99.703897 
L 332.158079 90.140731 
L 332.381391 93.648882 
L 332.604702 93.648882 
L 332.828014 91.011727 
L 333.051326 91.883131 
L 333.274637 89.312916 
L 333.497949 91.926313 
L 333.721261 91.926313 
L 333.944572 96.305867 
L 334.167884 91.926313 
L 334.391196 77.983593 
L 334.614507 88.508452 
L 334.837819 84.976543 
L 335.061131 96.305867 
L 335.284442 91.949663 
L 335.507754 94.586818 
L 335.731066 93.735652 
L 335.954377 90.203743 
L 336.177689 89.336267 
L 336.401001 100.661663 
L 336.624312 100.661663 
L 336.847624 95.411113 
L 337.070935 92.797716 
L 337.294247 95.411113 
L 337.74087 75.413378 
L 337.964182 93.668713 
L 338.187494 91.926313 
L 338.410805 83.210793 
L 338.634117 94.563467 
L 338.857429 94.563467 
L 339.08074 85.847947 
L 339.304052 91.098498 
L 339.527364 64.821986 
L 339.973987 64.778805 
L 340.197299 70.029356 
L 340.42061 57.852386 
L 341.090545 71.838287 
L 341.313857 90.203743 
L 341.537169 92.840898 
L 341.76048 87.590347 
L 341.983792 85.023652 
L 342.207104 85.023652 
L 342.430415 79.749343 
L 342.653727 77.135947 
L 342.877039 86.718943 
L 343.10035 78.878347 
L 343.323662 91.078667 
L 343.546973 91.078667 
L 343.770285 85.847947 
L 343.993597 108.506187 
L 344.216908 91.098498 
L 344.663532 117.288239 
L 344.886843 112.014338 
L 345.110155 141.685359 
L 345.333467 132.079012 
L 345.556778 113.756738 
L 345.78009 77.135947 
L 346.003402 81.535332 
L 346.226713 73.647627 
L 346.450025 112.037688 
L 346.896648 143.5414 
L 347.11996 119.968575 
L 347.566583 107.725073 
L 347.789895 115.565669 
L 348.013207 118.226175 
L 348.236518 115.632609 
L 348.45983 107.744904 
L 348.683142 105.107749 
L 349.353077 155.698538 
L 349.576388 138.180728 
L 349.7997 142.580113 
L 350.023012 142.580113 
L 350.692946 150.381048 
L 350.916258 157.350648 
L 351.13957 151.252452 
L 351.362881 155.631599 
L 351.586193 153.909029 
L 351.809505 159.206689 
L 352.032816 152.210218 
L 352.256128 152.210218 
L 352.47944 155.698538 
L 352.702751 154.01915 
L 352.926063 155.698538 
L 353.149375 152.210218 
L 353.372686 127.699458 
L 353.595998 126.784873 
L 353.81931 122.381967 
L 354.042621 113.646617 
L 354.265933 114.518021 
L 354.489245 127.656276 
L 354.712556 118.897167 
L 354.935868 127.609167 
L 355.15918 113.646617 
L 355.382491 113.646617 
L 355.605803 110.158297 
L 355.829115 100.508361 
L 356.052426 96.172396 
L 356.49905 109.310651 
L 356.722361 113.713556 
L 356.945673 115.499138 
L 357.168984 105.892383 
L 357.392296 116.393892 
L 357.615608 109.424292 
L 357.838919 171.560311 
L 358.062231 173.345892 
L 358.732166 155.808251 
L 358.955478 167.180757 
L 359.402101 160.187806 
L 359.625413 165.458187 
L 359.848724 162.868142 
L 360.072036 156.813127 
L 360.295348 181.300129 
L 360.741971 174.283828 
L 361.188594 178.643144 
L 361.411906 178.619793 
L 361.635218 182.104593 
L 361.858529 178.619793 
L 362.081841 177.772148 
L 362.305153 168.142043 
L 362.528464 176.006397 
L 362.751776 173.392593 
L 362.975088 179.491197 
L 363.421711 160.207637 
L 363.645023 196.047313 
L 363.868334 206.618874 
L 364.314957 194.371853 
L 364.538269 188.249899 
L 364.761581 196.985249 
L 365.208204 177.748797 
L 365.431516 182.999348 
L 365.654827 185.612744 
L 365.878139 180.385544 
L 366.101451 184.765099 
L 366.324762 173.412424 
L 366.548074 179.514548 
L 366.771386 180.385544 
L 366.994697 183.022699 
L 367.218009 183.022699 
L 367.664632 197.880004 
L 368.111256 204.829773 
L 368.334567 203.958369 
L 368.557879 206.528584 
L 368.781191 210.908139 
L 369.004502 207.376637 
L 369.227814 212.627188 
L 369.451126 200.407037 
L 369.674437 200.407037 
L 369.897749 203.891837 
L 370.121061 205.634237 
L 370.344372 208.270984 
L 370.567684 183.693691 
L 370.790995 186.350677 
L 371.014307 184.608277 
L 371.237619 187.292132 
L 371.46093 191.758049 
L 371.684242 191.7814 
L 371.907554 202.215969 
L 372.354177 179.58108 
L 372.8008 190.910404 
L 373.024112 179.58108 
L 373.247424 211.912606 
L 373.470735 215.397406 
L 373.694047 202.282909 
L 374.14067 192.629453 
L 374.363982 189.992299 
L 374.587294 194.371853 
L 374.810605 186.507499 
L 375.033917 193.5238 
L 375.257229 194.395204 
L 375.48054 189.992299 
L 375.703852 189.144653 
L 375.927164 197.0086 
L 376.150475 197.0086 
L 376.373787 194.395204 
L 376.597099 176.006397 
L 376.82041 180.362193 
L 377.043722 182.104593 
L 377.267034 179.491197 
L 377.490345 174.240647 
L 377.713657 175.939458 
L 377.936968 171.583662 
L 378.16028 176.810862 
L 378.383592 193.366978 
L 378.606903 188.987831 
L 378.830215 194.238382 
L 379.053527 191.601227 
L 379.276838 197.726702 
L 379.50015 200.340098 
L 379.723462 205.614407 
L 379.946773 206.462052 
L 380.170085 208.204452 
L 380.393397 204.696302 
L 380.616708 217.747787 
L 380.84002 209.903671 
L 381.063332 224.740738 
L 381.286643 212.497237 
L 381.509955 220.384942 
L 381.733267 217.767618 
L 381.956578 218.59584 
L 382.17989 220.361591 
L 382.403202 241.320612 
L 382.626513 232.585262 
L 382.849825 242.168258 
L 383.073137 239.578212 
L 383.296448 235.198658 
L 383.51976 236.984647 
L 383.743072 235.198658 
L 383.966383 234.347492 
L 384.189695 230.839342 
L 384.413007 236.070062 
L 384.636318 229.948107 
L 384.85963 238.683458 
L 385.082941 235.198658 
L 385.306253 229.948107 
L 385.976188 229.948107 
L 386.1995 216.85344 
L 386.422811 219.447006 
L 386.646123 224.697557 
L 386.869435 222.103991 
L 387.092746 229.096942 
L 387.316058 213.301701 
L 387.762681 220.25147 
L 387.985993 186.063903 
L 388.209305 186.063903 
L 388.432616 184.321503 
L 388.655928 179.047602 
L 389.102551 186.063903 
L 389.325863 171.250187 
L 389.549175 174.781688 
L 389.995798 170.422372 
L 390.21911 156.412713 
L 390.442421 154.670313 
L 390.889045 161.710372 
L 391.112356 169.574319 
L 391.335668 149.529883 
L 392.228914 169.550968 
L 392.452226 171.273538 
L 392.675538 161.576901 
L 392.898849 162.424546 
L 393.122161 168.636383 
L 393.345473 167.765387 
L 393.568784 127.502974 
L 393.792096 144.078921 
L 394.015408 151.923445 
L 394.238719 141.445694 
L 394.462031 144.059091 
L 394.908654 137.890435 
L 395.131966 163.252361 
L 395.578589 171.096885 
L 395.801901 160.658796 
L 396.248524 167.631916 
L 396.471836 161.509961 
L 396.695148 163.252361 
L 397.141771 159.72086 
L 397.365083 166.713811 
L 397.588394 169.331134 
L 397.811706 157.958629 
L 398.035018 166.69398 
L 398.258329 164.080584 
L 398.704952 168.459731 
L 398.928264 166.737161 
L 399.151576 158.896565 
L 399.598199 166.69398 
L 399.821511 160.595784 
L 400.044822 159.701029 
L 400.268134 162.338184 
L 400.491446 162.338184 
L 400.938069 165.03835 
L 401.161381 165.03835 
L 401.384692 164.147116 
L 401.608004 178.152847 
L 401.831316 180.790002 
L 402.054627 179.047602 
L 402.277939 179.942356 
L 402.501251 167.742036 
L 402.724562 165.999636 
L 402.947874 166.847282 
L 403.171186 177.305202 
L 403.394497 176.457556 
L 403.617809 181.641167 
L 403.841121 183.383567 
L 404.287744 190.333337 
L 404.734367 190.353167 
L 404.957679 196.478642 
L 405.18099 193.841487 
L 405.627614 178.98459 
L 405.850925 186.825186 
L 406.074237 187.719941 
L 406.52086 190.400276 
L 406.744172 186.848537 
L 406.967484 176.300734 
L 407.190795 178.914131 
L 407.414107 167.565384 
L 407.637419 167.565384 
L 408.084042 150.157694 
L 408.307354 150.137864 
L 408.530665 149.219759 
L 408.753977 139.632835 
L 408.977289 144.012389 
L 409.2006 135.257208 
L 409.423912 137.870604 
L 409.647224 124.732349 
L 409.870535 123.904534 
L 410.093847 115.169183 
L 410.317159 115.189014 
L 410.54047 107.301309 
L 410.763782 107.324659 
L 410.987094 109.043709 
L 411.210405 105.535558 
L 411.657029 120.396383 
L 411.88034 122.986429 
L 412.103652 127.369503 
L 412.326963 136.999608 
L 412.550275 124.799288 
L 412.773587 132.639884 
L 412.996898 131.792239 
L 413.22021 137.042789 
L 413.666833 137.042789 
L 413.890145 130.920835 
L 414.113457 136.148035 
L 414.56008 136.195144 
L 414.783392 144.059091 
L 415.006703 137.957374 
L 415.230015 138.80854 
L 415.453327 147.52054 
L 415.676638 138.80854 
L 415.89995 136.195144 
L 416.123262 128.307439 
L 416.346573 134.405635 
L 416.569885 137.042789 
L 416.793197 136.195144 
L 417.016508 136.214974 
L 417.23982 132.706824 
L 417.463132 135.300389 
L 417.909755 130.964424 
L 418.133067 135.32022 
L 418.356378 135.32022 
L 418.57969 129.222024 
L 418.803002 137.085971 
L 419.026313 149.376581 
L 419.249625 144.997026 
L 419.91956 140.64123 
L 420.142871 126.628051 
L 420.366183 132.753525 
L 420.589495 130.116371 
L 420.812806 132.753525 
L 421.036118 140.64123 
L 421.25943 152.904562 
L 421.482741 146.759257 
L 421.706053 149.376581 
L 421.929365 146.716076 
L 422.152676 150.200876 
L 422.375988 160.701977 
L 422.5993 162.447897 
L 422.822611 165.085051 
L 423.045923 165.085051 
L 423.269235 148.438645 
L 423.492546 151.052041 
L 423.715858 143.207925 
L 423.93917 150.200876 
L 424.162481 147.563721 
L 424.385793 150.200876 
L 424.609105 136.238325 
L 424.832416 141.465525 
L 425.055728 143.207925 
L 425.27904 140.570771 
L 425.502351 143.207925 
L 425.725663 167.808568 
L 425.948974 175.696273 
L 426.395598 164.257236 
L 426.618909 169.531138 
L 426.842221 165.148063 
L 427.065533 117.849519 
L 427.288844 118.720515 
L 427.512156 108.239244 
L 427.735468 134.449224 
L 427.958779 133.57782 
L 428.182091 137.957374 
L 428.628714 127.479624 
L 428.852026 130.987774 
L 429.075338 122.252424 
L 429.298649 123.100069 
L 429.521961 119.615269 
L 429.968584 119.615269 
L 430.191896 117.869349 
L 430.415208 117.869349 
L 430.638519 126.584869 
L 430.861831 116.126949 
L 431.085143 130.069669 
L 431.308454 102.030927 
L 431.531766 99.503894 
L 431.755078 111.727564 
L 432.201701 121.3775 
L 432.425013 121.3775 
L 432.648324 144.997026 
L 432.871636 147.654011 
L 433.094947 138.047257 
L 433.318259 138.942011 
L 433.541571 150.334347 
L 433.988194 138.942011 
L 434.211506 133.691461 
L 434.434817 125.780405 
L 434.658129 127.522805 
L 434.881441 134.515756 
L 435.104752 131.007605 
L 435.328064 142.38363 
L 435.774687 152.904562 
L 435.997999 150.267407 
L 436.221311 145.040207 
L 436.444622 150.267407 
L 436.667934 163.452772 
L 436.891246 165.148063 
L 437.114557 154.646962 
L 437.337869 152.056916 
L 437.561181 163.405663 
L 437.784492 163.405663 
L 438.231116 157.307467 
L 438.454427 168.679972 
L 438.677739 166.042818 
L 439.124362 150.334347 
L 439.347674 154.737252 
L 439.794297 141.622347 
L 440.017609 141.598996 
L 440.24092 145.954793 
L 440.464232 144.212393 
L 440.687544 149.462943 
L 440.910855 141.622347 
L 441.134167 144.235743 
L 441.357479 134.672578 
L 441.58079 147.810833 
L 441.804102 146.045083 
L 442.027414 138.200559 
L 442.250725 143.451109 
L 442.474037 132.102363 
L 442.697349 131.230959 
L 442.92066 124.257839 
L 443.143972 124.257839 
L 443.367284 108.352885 
L 443.590595 157.197346 
L 443.813907 168.459731 
L 444.483842 131.768888 
L 444.707154 138.761839 
L 444.930465 136.999608 
L 445.377089 149.26294 
L 445.6004 141.422344 
L 445.823712 150.157694 
L 446.047024 146.649544 
L 446.270335 146.649544 
L 446.493647 147.500709 
L 446.716958 134.362454 
L 446.94027 139.613004 
L 447.163582 136.952499 
L 447.386893 131.701949 
L 448.28014 85.294231 
L 448.503452 82.680835 
L 448.726763 76.55888 
L 448.950075 78.39157 
L 449.396698 89.716967 
L 449.62001 89.697136 
L 449.843322 71.3951 
L 450.066633 68.757945 
L 450.289945 60.827059 
L 450.513257 70.437333 
L 450.736568 52.001418 
L 451.183192 81.78608 
L 451.406503 78.27793 
L 451.629815 69.56593 
L 451.853127 75.664533 
L 452.076438 75.664533 
L 452.29975 97.494551 
L 452.746373 97.408188 
L 452.969685 100.065173 
L 453.192996 89.607253 
L 453.63962 113.336493 
L 453.862931 115.973647 
L 454.086243 108.152882 
L 454.309555 113.403432 
L 454.532866 109.938463 
L 454.756178 96.800207 
L 454.97949 99.460712 
L 455.202801 100.265177 
L 455.426113 98.522777 
L 455.649425 102.878573 
L 455.872736 103.749977 
L 456.096048 112.485327 
L 456.31936 114.251078 
L 456.542671 110.766278 
L 456.989295 116.888232 
L 457.212606 113.403432 
L 457.435918 113.403432 
L 457.65923 114.251078 
L 457.882541 111.637682 
L 458.105853 111.637682 
L 458.329165 108.152882 
L 458.552476 108.152882 
L 458.775788 112.508678 
L 458.9991 109.918632 
L 459.222411 109.918632 
L 459.445723 104.597622 
L 459.669035 95.862272 
L 459.892346 99.347072 
L 460.115658 99.347072 
L 460.338969 98.479595 
L 460.562281 95.842441 
L 460.785593 90.611721 
L 461.008904 88.84597 
L 461.232216 89.697136 
L 461.455528 105.449195 
L 461.678839 101.917287 
L 461.902151 94.947687 
L 462.125463 94.947687 
L 462.348774 92.33429 
L 462.572086 97.584841 
L 462.795398 88.84597 
L 463.018709 94.947687 
L 463.242021 92.33429 
L 463.465333 94.096521 
L 463.688644 102.812041 
L 463.911956 94.096521 
L 464.135268 95.81909 
L 464.581891 83.61877 
L 464.805203 88.84597 
L 465.028514 87.10357 
L 465.251826 81.87637 
L 465.475138 95.905453 
L 465.698449 83.705133 
L 465.921761 80.200502 
L 466.145073 98.565958 
L 466.368384 78.544872 
L 466.591696 77.673469 
L 466.815008 74.165318 
L 467.038319 62.836402 
L 467.484942 95.975912 
L 467.708254 106.430312 
L 468.154877 50.48278 
L 468.601501 50.48278 
L 469.048124 55.70998 
L 469.271436 55.70998 
L 469.494747 50.435671 
L 469.718059 59.1983 
L 469.941371 56.561145 
L 470.164682 58.323376 
L 470.387994 67.976832 
L 470.611306 61.831527 
L 470.834617 60.983881 
L 471.057929 79.372687 
L 471.281241 80.200502 
L 471.504552 88.064857 
L 471.727864 89.807257 
L 471.951176 85.427702 
L 472.174487 87.170102 
L 472.397799 82.814306 
L 472.621111 84.556706 
L 472.844422 84.556706 
L 473.067734 87.170102 
L 473.291046 87.170102 
L 473.514357 95.905453 
L 473.737669 93.292057 
L 474.184292 91.573007 
L 474.407604 91.529826 
L 474.630915 102.855222 
L 475.077539 97.604672 
L 475.524162 109.804992 
L 475.747474 109.804992 
L 475.970785 115.055542 
L 476.194097 138.631887 
L 476.864032 104.554441 
L 477.310655 115.930466 
L 477.757279 109.804992 
L 477.98059 112.442146 
L 478.203902 116.797942 
L 478.427214 115.930466 
L 478.650525 113.293312 
L 479.097149 121.157666 
L 479.32046 124.665817 
L 479.543772 122.028662 
L 479.767084 124.665817 
L 479.990395 117.672866 
L 480.213707 122.028662 
L 480.437019 123.771062 
L 480.66033 135.123737 
L 480.883642 128.998262 
L 481.106953 134.248813 
L 481.553577 149.981042 
L 481.776888 128.173967 
L 482.0002 141.288872 
L 482.223512 131.682118 
L 482.446823 131.682118 
L 482.893447 152.574607 
L 483.116758 150.828687 
L 483.34007 171.901349 
L 483.563382 177.1519 
L 483.786693 171.050184 
L 484.010005 176.300734 
L 484.233317 162.358014 
L 484.456628 168.43638 
L 484.67994 169.264195 
L 484.903252 164.013644 
L 485.126563 164.885048 
L 485.573187 172.748995 
L 485.796498 170.135599 
L 486.01981 169.264195 
L 486.243122 171.901349 
L 486.466433 176.233795 
L 486.689745 169.264195 
L 486.913057 172.748995 
L 487.136368 172.748995 
L 487.35968 174.491395 
L 487.582991 174.491395 
L 487.806303 178.023304 
L 488.029615 169.264195 
L 488.252926 174.538504 
L 488.476238 171.901349 
L 488.69955 172.796104 
L 488.922861 171.901349 
L 489.146173 175.386149 
L 489.369485 181.508104 
L 489.592796 176.233795 
L 489.816108 180.613349 
L 490.03942 176.233795 
L 490.262731 177.105199 
L 490.486043 176.190614 
L 490.709355 178.827768 
L 490.932666 172.705814 
L 491.155978 170.068659 
L 491.37929 171.854648 
L 491.602601 163.966943 
L 491.825913 170.068659 
L 492.049225 158.716392 
L 492.272536 160.482143 
L 492.495848 155.274774 
L 492.71916 141.332054 
L 492.942471 141.332054 
L 493.165783 169.217494 
L 493.389095 171.854648 
L 493.612406 147.500709 
L 493.835718 137.042789 
L 494.05903 134.472574 
L 494.282341 136.238325 
L 494.505653 130.116371 
L 494.728964 135.366921 
L 494.952276 132.753525 
L 495.175588 137.085971 
L 495.398899 127.502974 
L 495.622211 128.35062 
L 495.845523 130.987774 
L 496.068834 135.32022 
L 496.292146 130.987774 
L 496.515458 141.488876 
L 496.738769 137.109321 
L 496.962081 155.498127 
L 497.185393 156.392882 
L 497.408704 154.646962 
L 497.632016 148.505177 
L 497.855328 148.505177 
L 498.078639 145.891781 
L 498.301951 146.759257 
L 498.525263 144.169211 
L 498.748574 144.212393 
L 499.195198 157.284116 
L 499.418509 156.392882 
L 499.641821 110.856568 
L 500.088444 100.351539 
L 500.535068 110.004995 
L 500.758379 109.114168 
L 500.981691 102.141048 
L 501.205003 103.906799 
L 501.428314 96.019094 
L 501.874937 102.141048 
L 502.321561 96.866739 
L 502.544872 96.019094 
L 502.768184 98.656248 
L 502.991496 98.656248 
L 503.214807 103.031875 
L 503.438119 100.418479 
L 503.661431 130.226491 
L 503.884742 125.823586 
L 504.331366 125.823586 
L 504.554677 120.573036 
L 504.777989 118.830636 
L 505.001301 126.718341 
L 505.224612 123.233541 
L 505.447924 128.484091 
L 505.671236 123.233541 
L 505.894547 124.104537 
L 506.117859 124.104537 
L 506.341171 123.253371 
L 506.564482 125.846937 
L 506.787794 124.104537 
L 507.011106 136.324687 
L 507.234417 136.324687 
L 507.457729 134.558937 
L 507.681041 138.918661 
L 507.904352 149.376581 
L 508.127664 148.505177 
L 508.350975 130.226491 
L 508.574287 145.016857 
L 508.797599 124.975941 
L 509.02091 146.829716 
L 509.244222 138.942011 
L 509.467534 136.304857 
L 509.914157 185.282789 
L 510.137469 173.973704 
L 510.36078 225.612142 
L 510.584092 327.614087 
L 510.807404 310.186567 
L 511.030715 230.015047 
L 511.254027 257.900487 
L 511.477339 254.415687 
L 511.70065 243.086363 
L 511.923962 240.472967 
L 512.147274 235.198658 
L 512.370585 237.835812 
L 512.593897 243.086363 
L 512.817209 235.198658 
L 513.04052 232.585262 
L 513.263832 210.751317 
L 513.487144 227.334711 
L 513.710455 227.334711 
L 513.933767 222.08416 
L 514.38039 232.585262 
L 514.603702 247.375627 
L 515.050325 221.099116 
L 515.273637 221.099116 
L 515.496948 235.91324 
L 515.72026 233.276085 
L 515.943572 235.91324 
L 516.166883 217.524433 
L 516.390195 220.137829 
L 516.613507 225.412138 
L 516.836818 212.297233 
L 517.06013 211.402479 
L 517.283442 214.910629 
L 517.506753 221.860399 
L 517.730065 212.317064 
L 517.953377 225.412138 
L 518.176688 230.662689 
L 518.4 228.025535 
L 518.4 228.025535 
" style="fill:none;stroke:#4c72b0;stroke-linecap:round;stroke-width:1.75;"/>
   </g>
   <g id="patch_3">
    <path d="M 72 356.4 
L 518.4 356.4 
" style="fill:none;"/>
   </g>
   <g id="patch_4">
    <path d="M 72 39.6 
L 518.4 39.6 
" style="fill:none;"/>
   </g>
   <g id="patch_5">
    <path d="M 72 356.4 
L 72 39.6 
" style="fill:none;"/>
   </g>
   <g id="patch_6">
    <path d="M 518.4 356.4 
L 518.4 39.6 
" style="fill:none;"/>
   </g>
   <g id="text_16">
    <!-- zn - 6.749473777672031 * MA -->
    <defs>
     <path d="M 9.125 0 
L 9.125 10.6875 
L 18.65625 10.6875 
L 18.65625 0 
z
" id="LiberationSans-2e"/>
     <path d="M 50.875 35.796875 
Q 50.875 26.609375 49.140625 19.703125 
Q 47.40625 12.796875 44.1875 8.203125 
Q 40.96875 3.609375 36.34375 1.3125 
Q 31.734375 -0.984375 25.984375 -0.984375 
Q 22.015625 -0.984375 18.84375 -0.171875 
Q 15.671875 0.640625 13.171875 2.34375 
Q 10.6875 4.046875 8.921875 6.78125 
Q 7.171875 9.515625 6.109375 13.375 
L 14.5 14.703125 
Q 15.875 10.25 18.78125 8.171875 
Q 21.6875 6.109375 26.125 6.109375 
Q 29.6875 6.109375 32.640625 7.78125 
Q 35.59375 9.46875 37.671875 12.84375 
Q 39.75 16.21875 40.921875 21.296875 
Q 42.09375 26.375 42.1875 33.203125 
Q 41.15625 30.90625 39.375 29.09375 
Q 37.59375 27.296875 35.328125 26.046875 
Q 33.0625 24.8125 30.421875 24.140625 
Q 27.78125 23.484375 25.09375 23.484375 
Q 20.40625 23.484375 16.625 25.171875 
Q 12.84375 26.859375 10.203125 29.875 
Q 7.5625 32.90625 6.125 37.171875 
Q 4.6875 41.453125 4.6875 46.6875 
Q 4.6875 52 6.21875 56.296875 
Q 7.765625 60.59375 10.6875 63.59375 
Q 13.625 66.609375 17.890625 68.21875 
Q 22.171875 69.828125 27.59375 69.828125 
Q 39.0625 69.828125 44.96875 61.328125 
Q 50.875 52.828125 50.875 35.796875 
M 41.3125 44.28125 
Q 41.3125 48.09375 40.40625 51.453125 
Q 39.5 54.828125 37.71875 57.3125 
Q 35.9375 59.8125 33.328125 61.25 
Q 30.71875 62.703125 27.296875 62.703125 
Q 24.125 62.703125 21.578125 61.578125 
Q 19.046875 60.453125 17.28125 58.375 
Q 15.53125 56.296875 14.578125 53.3125 
Q 13.625 50.34375 13.625 46.6875 
Q 13.625 43.21875 14.46875 40.234375 
Q 15.328125 37.25 17.03125 35.078125 
Q 18.75 32.90625 21.28125 31.65625 
Q 23.828125 30.421875 27.203125 30.421875 
Q 29.640625 30.421875 32.15625 31.25 
Q 34.671875 32.078125 36.6875 33.78125 
Q 38.71875 35.5 40.015625 38.109375 
Q 41.3125 40.71875 41.3125 44.28125 
" id="LiberationSans-39"/>
     <path d="M 2.390625 0 
L 2.390625 6.6875 
L 34.671875 46.046875 
L 4.34375 46.046875 
L 4.34375 52.828125 
L 44.578125 52.828125 
L 44.578125 46.140625 
L 12.25 6.78125 
L 46.390625 6.78125 
L 46.390625 0 
z
" id="LiberationSans-7a"/>
     <path d="M 56.984375 0 
L 49.125 20.125 
L 17.78125 20.125 
L 9.859375 0 
L 0.203125 0 
L 28.265625 68.796875 
L 38.875 68.796875 
L 66.5 0 
z
M 37.5 50.09375 
Q 36.71875 52.046875 36 54.046875 
Q 35.296875 56.0625 34.765625 57.6875 
Q 34.234375 59.328125 33.859375 60.421875 
Q 33.5 61.53125 33.453125 61.765625 
Q 33.34375 61.53125 33 60.40625 
Q 32.671875 59.28125 32.109375 57.609375 
Q 31.546875 55.953125 30.828125 53.953125 
Q 30.125 51.953125 29.390625 50 
L 20.609375 27.390625 
L 46.34375 27.390625 
z
" id="LiberationSans-41"/>
     <path d="M 66.703125 0 
L 66.703125 45.90625 
Q 66.703125 48.390625 66.75 50.96875 
Q 66.796875 53.5625 66.890625 55.71875 
Q 67 58.203125 67.140625 60.546875 
Q 66.453125 58.0625 65.71875 55.609375 
Q 65.09375 53.515625 64.328125 51.140625 
Q 63.578125 48.78125 62.84375 46.875 
L 45.0625 0 
L 38.53125 0 
L 20.515625 46.875 
Q 20.21875 47.609375 19.890625 48.578125 
Q 19.578125 49.5625 19.203125 50.65625 
Q 18.84375 51.765625 18.46875 52.90625 
Q 18.109375 54.046875 17.78125 55.171875 
Q 16.9375 57.765625 16.15625 60.546875 
Q 16.21875 57.8125 16.3125 55.125 
Q 16.40625 52.828125 16.453125 50.3125 
Q 16.5 47.796875 16.5 45.90625 
L 16.5 0 
L 8.203125 0 
L 8.203125 68.796875 
L 20.453125 68.796875 
L 38.765625 21.09375 
Q 39.109375 20.125 39.59375 18.578125 
Q 40.09375 17.046875 40.53125 15.421875 
Q 40.96875 13.8125 41.328125 12.375 
Q 41.703125 10.9375 41.84375 10.15625 
Q 42 10.9375 42.390625 12.40625 
Q 42.78125 13.875 43.28125 15.484375 
Q 43.796875 17.09375 44.28125 18.609375 
Q 44.78125 20.125 45.171875 21.09375 
L 63.140625 68.796875 
L 75.09375 68.796875 
L 75.09375 0 
z
" id="LiberationSans-4d"/>
     <path d="M 22.265625 54.390625 
L 35.15625 59.421875 
L 37.359375 52.984375 
L 23.578125 49.421875 
L 32.625 37.203125 
L 26.8125 33.6875 
L 19.484375 46.296875 
L 11.859375 33.796875 
L 6.0625 37.3125 
L 15.28125 49.421875 
L 1.609375 52.984375 
L 3.8125 59.515625 
L 16.84375 54.296875 
L 16.265625 68.796875 
L 22.90625 68.796875 
z
" id="LiberationSans-2a"/>
     <path d="M 40.28125 0 
L 40.28125 33.5 
Q 40.28125 37.359375 39.71875 39.9375 
Q 39.15625 42.53125 37.890625 44.109375 
Q 36.625 45.703125 34.546875 46.359375 
Q 32.46875 47.015625 29.390625 47.015625 
Q 26.265625 47.015625 23.75 45.921875 
Q 21.234375 44.828125 19.453125 42.75 
Q 17.671875 40.671875 16.6875 37.625 
Q 15.71875 34.578125 15.71875 30.609375 
L 15.71875 0 
L 6.9375 0 
L 6.9375 41.546875 
Q 6.9375 43.21875 6.90625 45.046875 
Q 6.890625 46.875 6.828125 48.5 
Q 6.78125 50.140625 6.734375 51.3125 
Q 6.6875 52.484375 6.640625 52.828125 
L 14.9375 52.828125 
Q 14.984375 52.59375 15.03125 51.515625 
Q 15.09375 50.4375 15.15625 49.046875 
Q 15.234375 47.65625 15.28125 46.21875 
Q 15.328125 44.78125 15.328125 43.796875 
L 15.484375 43.796875 
Q 16.75 46.09375 18.265625 47.953125 
Q 19.78125 49.8125 21.78125 51.09375 
Q 23.78125 52.390625 26.359375 53.09375 
Q 28.953125 53.8125 32.375 53.8125 
Q 36.765625 53.8125 39.9375 52.734375 
Q 43.109375 51.65625 45.15625 49.40625 
Q 47.21875 47.171875 48.171875 43.625 
Q 49.125 40.09375 49.125 35.203125 
L 49.125 0 
z
" id="LiberationSans-6e"/>
    </defs>
    <g style="fill:#262626;" transform="translate(213.8109375 34.6)scale(0.12 -0.12)">
     <use xlink:href="#LiberationSans-7a"/>
     <use x="50.0" xlink:href="#LiberationSans-6e"/>
     <use x="105.615234375" xlink:href="#LiberationSans-20"/>
     <use x="133.3984375" xlink:href="#LiberationSans-2d"/>
     <use x="166.69921875" xlink:href="#LiberationSans-20"/>
     <use x="194.482421875" xlink:href="#LiberationSans-36"/>
     <use x="250.09765625" xlink:href="#LiberationSans-2e"/>
     <use x="277.880859375" xlink:href="#LiberationSans-37"/>
     <use x="333.49609375" xlink:href="#LiberationSans-34"/>
     <use x="389.111328125" xlink:href="#LiberationSans-39"/>
     <use x="444.7265625" xlink:href="#LiberationSans-34"/>
     <use x="500.341796875" xlink:href="#LiberationSans-37"/>
     <use x="555.95703125" xlink:href="#LiberationSans-33"/>
     <use x="611.572265625" xlink:href="#LiberationSans-37"/>
     <use x="667.1875" xlink:href="#LiberationSans-37"/>
     <use x="722.802734375" xlink:href="#LiberationSans-37"/>
     <use x="778.41796875" xlink:href="#LiberationSans-36"/>
     <use x="834.033203125" xlink:href="#LiberationSans-37"/>
     <use x="889.6484375" xlink:href="#LiberationSans-32"/>
     <use x="945.263671875" xlink:href="#LiberationSans-30"/>
     <use x="1000.87890625" xlink:href="#LiberationSans-33"/>
     <use x="1056.494140625" xlink:href="#LiberationSans-31"/>
     <use x="1112.109375" xlink:href="#LiberationSans-20"/>
     <use x="1139.892578125" xlink:href="#LiberationSans-2a"/>
     <use x="1178.80859375" xlink:href="#LiberationSans-20"/>
     <use x="1206.591796875" xlink:href="#LiberationSans-4d"/>
     <use x="1289.892578125" xlink:href="#LiberationSans-41"/>
    </g>
   </g>
  </g>
 </g>
 <defs>
  <clipPath id="pd9300cc1a0">
   <rect height="316.8" width="446.4" x="72.0" y="39.6"/>
  </clipPath>
 </defs>
</svg>
