<?xml version="1.0" encoding="utf-8" standalone="no"?>
<!DOCTYPE svg PUBLIC "-//W3C//DTD SVG 1.1//EN"
  "http://www.w3.org/Graphics/SVG/1.1/DTD/svg11.dtd">
<!-- Created with matplotlib (http://matplotlib.org/) -->
<svg height="396pt" version="1.1" viewBox="0 0 576 396" width="576pt" xmlns="http://www.w3.org/2000/svg" xmlns:xlink="http://www.w3.org/1999/xlink">
 <defs>
  <style type="text/css">
*{stroke-linecap:butt;stroke-linejoin:round;stroke-miterlimit:100000;}
  </style>
 </defs>
 <g id="figure_1">
  <g id="patch_1">
   <path d="M 0 396 
L 576 396 
L 576 0 
L 0 0 
z
" style="fill:#ffffff;"/>
  </g>
  <g id="axes_1">
   <g id="patch_2">
    <path d="M 72 356.4 
L 518.4 356.4 
L 518.4 39.6 
L 72 39.6 
z
" style="fill:#eaeaf2;"/>
   </g>
   <g id="matplotlib.axis_1">
    <g id="xtick_1">
     <g id="line2d_1">
      <path clip-path="url(#p6a3aeb176e)" d="M 72 356.4 
L 72 39.6 
" style="fill:none;stroke:#ffffff;stroke-linecap:round;"/>
     </g>
     <g id="line2d_2"/>
     <g id="line2d_3"/>
     <g id="text_1">
      <!-- 2015-12-07 11:08:00 -->
      <defs>
       <path d="M 5.03125 0 
L 5.03125 6.203125 
Q 7.515625 11.921875 11.109375 16.28125 
Q 14.703125 20.65625 18.65625 24.1875 
Q 22.609375 27.734375 26.484375 30.765625 
Q 30.375 33.796875 33.5 36.8125 
Q 36.625 39.84375 38.546875 43.15625 
Q 40.484375 46.484375 40.484375 50.6875 
Q 40.484375 53.609375 39.59375 55.828125 
Q 38.71875 58.0625 37.0625 59.5625 
Q 35.40625 61.078125 33.078125 61.828125 
Q 30.765625 62.59375 27.9375 62.59375 
Q 25.296875 62.59375 22.96875 61.859375 
Q 20.65625 61.140625 18.84375 59.671875 
Q 17.046875 58.203125 15.890625 56.03125 
Q 14.75 53.859375 14.40625 50.984375 
L 5.421875 51.8125 
Q 5.859375 55.515625 7.46875 58.78125 
Q 9.078125 62.0625 11.90625 64.53125 
Q 14.75 67 18.71875 68.40625 
Q 22.703125 69.828125 27.9375 69.828125 
Q 33.0625 69.828125 37.0625 68.609375 
Q 41.0625 67.390625 43.8125 64.984375 
Q 46.578125 62.59375 48.046875 59.078125 
Q 49.515625 55.5625 49.515625 50.984375 
Q 49.515625 47.515625 48.265625 44.390625 
Q 47.015625 41.265625 44.9375 38.421875 
Q 42.875 35.59375 40.140625 32.953125 
Q 37.40625 30.328125 34.421875 27.8125 
Q 31.453125 25.296875 28.421875 22.828125 
Q 25.390625 20.359375 22.71875 17.859375 
Q 20.0625 15.375 17.96875 12.8125 
Q 15.875 10.25 14.703125 7.46875 
L 50.59375 7.46875 
L 50.59375 0 
z
" id="LiberationSans-32"/>
       <path d="M 7.625 0 
L 7.625 7.46875 
L 25.140625 7.46875 
L 25.140625 60.40625 
L 9.625 49.3125 
L 9.625 57.625 
L 25.875 68.796875 
L 33.984375 68.796875 
L 33.984375 7.46875 
L 50.734375 7.46875 
L 50.734375 0 
z
" id="LiberationSans-31"/>
       <path d="M 50.59375 61.671875 
Q 45.40625 53.765625 41.0625 46.453125 
Q 36.71875 39.15625 33.59375 31.75 
Q 30.46875 24.359375 28.734375 16.578125 
Q 27 8.796875 27 0 
L 17.828125 0 
Q 17.828125 8.25 19.78125 16.1875 
Q 21.734375 24.125 25.046875 31.765625 
Q 28.375 39.40625 32.765625 46.78125 
Q 37.15625 54.15625 42.09375 61.328125 
L 5.125 61.328125 
L 5.125 68.796875 
L 50.59375 68.796875 
z
" id="LiberationSans-37"/>
       <path d="M 51.703125 34.421875 
Q 51.703125 24.515625 49.828125 17.75 
Q 47.953125 10.984375 44.703125 6.8125 
Q 41.453125 2.640625 37.0625 0.828125 
Q 32.671875 -0.984375 27.6875 -0.984375 
Q 22.65625 -0.984375 18.3125 0.828125 
Q 13.96875 2.640625 10.765625 6.78125 
Q 7.5625 10.9375 5.734375 17.703125 
Q 3.90625 24.46875 3.90625 34.421875 
Q 3.90625 44.828125 5.734375 51.640625 
Q 7.5625 58.453125 10.78125 62.5 
Q 14.015625 66.546875 18.40625 68.1875 
Q 22.796875 69.828125 27.984375 69.828125 
Q 32.90625 69.828125 37.21875 68.1875 
Q 41.546875 66.546875 44.765625 62.5 
Q 48 58.453125 49.84375 51.640625 
Q 51.703125 44.828125 51.703125 34.421875 
M 42.78125 34.421875 
Q 42.78125 42.625 41.796875 48.0625 
Q 40.828125 53.515625 38.921875 56.765625 
Q 37.015625 60.015625 34.25 61.359375 
Q 31.5 62.703125 27.984375 62.703125 
Q 24.265625 62.703125 21.4375 61.328125 
Q 18.609375 59.96875 16.671875 56.71875 
Q 14.75 53.46875 13.765625 48.015625 
Q 12.796875 42.578125 12.796875 34.421875 
Q 12.796875 26.515625 13.796875 21.09375 
Q 14.796875 15.671875 16.71875 12.375 
Q 18.65625 9.078125 21.4375 7.640625 
Q 24.21875 6.203125 27.78125 6.203125 
Q 31.25 6.203125 34.03125 7.640625 
Q 36.8125 9.078125 38.734375 12.375 
Q 40.671875 15.671875 41.71875 21.09375 
Q 42.78125 26.515625 42.78125 34.421875 
" id="LiberationSans-30"/>
       <path d="M 9.125 42.71875 
L 9.125 52.828125 
L 18.65625 52.828125 
L 18.65625 42.71875 
z
M 9.125 0 
L 9.125 10.109375 
L 18.65625 10.109375 
L 18.65625 0 
z
" id="LiberationSans-3a"/>
       <path d="M 51.265625 19.1875 
Q 51.265625 14.796875 49.875 11.109375 
Q 48.484375 7.421875 45.625 4.734375 
Q 42.78125 2.046875 38.328125 0.53125 
Q 33.890625 -0.984375 27.828125 -0.984375 
Q 21.78125 -0.984375 17.359375 0.53125 
Q 12.9375 2.046875 10.03125 4.703125 
Q 7.125 7.375 5.734375 11.0625 
Q 4.34375 14.75 4.34375 19.09375 
Q 4.34375 22.859375 5.484375 25.78125 
Q 6.640625 28.71875 8.5625 30.828125 
Q 10.5 32.953125 12.96875 34.25 
Q 15.4375 35.546875 18.0625 35.984375 
L 18.0625 36.1875 
Q 15.1875 36.859375 12.90625 38.375 
Q 10.640625 39.890625 9.09375 42.015625 
Q 7.5625 44.140625 6.75 46.71875 
Q 5.953125 49.3125 5.953125 52.203125 
Q 5.953125 55.8125 7.34375 59 
Q 8.734375 62.203125 11.46875 64.625 
Q 14.203125 67.046875 18.25 68.4375 
Q 22.3125 69.828125 27.640625 69.828125 
Q 33.25 69.828125 37.375 68.40625 
Q 41.5 67 44.203125 64.578125 
Q 46.921875 62.15625 48.234375 58.9375 
Q 49.5625 55.71875 49.5625 52.09375 
Q 49.5625 49.265625 48.75 46.671875 
Q 47.953125 44.09375 46.40625 41.96875 
Q 44.875 39.84375 42.59375 38.34375 
Q 40.328125 36.859375 37.359375 36.28125 
L 37.359375 36.078125 
Q 40.328125 35.59375 42.859375 34.296875 
Q 45.40625 33.015625 47.265625 30.890625 
Q 49.125 28.765625 50.1875 25.828125 
Q 51.265625 22.90625 51.265625 19.1875 
M 40.4375 51.609375 
Q 40.4375 54.203125 39.765625 56.34375 
Q 39.109375 58.5 37.59375 60.03125 
Q 36.078125 61.578125 33.640625 62.421875 
Q 31.203125 63.28125 27.640625 63.28125 
Q 24.171875 63.28125 21.78125 62.421875 
Q 19.390625 61.578125 17.84375 60.03125 
Q 16.3125 58.5 15.625 56.34375 
Q 14.9375 54.203125 14.9375 51.609375 
Q 14.9375 49.5625 15.46875 47.40625 
Q 16.015625 45.265625 17.421875 43.5 
Q 18.84375 41.75 21.328125 40.625 
Q 23.828125 39.5 27.734375 39.5 
Q 31.890625 39.5 34.40625 40.625 
Q 36.921875 41.75 38.25 43.5 
Q 39.59375 45.265625 40.015625 47.40625 
Q 40.4375 49.5625 40.4375 51.609375 
M 42.140625 20.015625 
Q 42.140625 22.515625 41.453125 24.828125 
Q 40.765625 27.15625 39.109375 28.9375 
Q 37.453125 30.71875 34.640625 31.8125 
Q 31.84375 32.90625 27.640625 32.90625 
Q 23.78125 32.90625 21.0625 31.8125 
Q 18.359375 30.71875 16.671875 28.90625 
Q 14.984375 27.09375 14.203125 24.71875 
Q 13.421875 22.359375 13.421875 19.828125 
Q 13.421875 16.65625 14.203125 14.03125 
Q 14.984375 11.421875 16.6875 9.546875 
Q 18.40625 7.671875 21.1875 6.640625 
Q 23.96875 5.609375 27.9375 5.609375 
Q 31.9375 5.609375 34.671875 6.640625 
Q 37.40625 7.671875 39.0625 9.546875 
Q 40.71875 11.421875 41.421875 14.078125 
Q 42.140625 16.75 42.140625 20.015625 
" id="LiberationSans-38"/>
       <path d="M 51.421875 22.40625 
Q 51.421875 17.234375 49.859375 12.9375 
Q 48.296875 8.640625 45.21875 5.53125 
Q 42.140625 2.4375 37.578125 0.71875 
Q 33.015625 -0.984375 27 -0.984375 
Q 21.578125 -0.984375 17.546875 0.28125 
Q 13.53125 1.5625 10.734375 3.78125 
Q 7.953125 6 6.3125 8.984375 
Q 4.6875 11.96875 4 15.375 
L 12.890625 16.40625 
Q 13.421875 14.453125 14.390625 12.625 
Q 15.375 10.796875 17.0625 9.34375 
Q 18.75 7.90625 21.21875 7.046875 
Q 23.6875 6.203125 27.203125 6.203125 
Q 30.609375 6.203125 33.390625 7.25 
Q 36.1875 8.296875 38.15625 10.34375 
Q 40.140625 12.40625 41.203125 15.375 
Q 42.28125 18.359375 42.28125 22.21875 
Q 42.28125 25.390625 41.25 28.046875 
Q 40.234375 30.71875 38.328125 32.640625 
Q 36.421875 34.578125 33.65625 35.640625 
Q 30.90625 36.71875 27.390625 36.71875 
Q 25.203125 36.71875 23.34375 36.328125 
Q 21.484375 35.9375 19.890625 35.25 
Q 18.3125 34.578125 17.015625 33.671875 
Q 15.71875 32.765625 14.59375 31.78125 
L 6 31.78125 
L 8.296875 68.796875 
L 47.40625 68.796875 
L 47.40625 61.328125 
L 16.3125 61.328125 
L 14.984375 39.5 
Q 17.328125 41.3125 20.84375 42.59375 
Q 24.359375 43.890625 29.203125 43.890625 
Q 34.328125 43.890625 38.421875 42.328125 
Q 42.53125 40.765625 45.40625 37.90625 
Q 48.296875 35.0625 49.859375 31.109375 
Q 51.421875 27.15625 51.421875 22.40625 
" id="LiberationSans-35"/>
       <path id="LiberationSans-20"/>
       <path d="M 4.4375 22.65625 
L 4.4375 30.46875 
L 28.859375 30.46875 
L 28.859375 22.65625 
z
" id="LiberationSans-2d"/>
      </defs>
      <g style="fill:#262626;" transform="translate(25.5765625 370.646875)scale(0.1 -0.1)">
       <use xlink:href="#LiberationSans-32"/>
       <use x="55.615234375" xlink:href="#LiberationSans-30"/>
       <use x="111.23046875" xlink:href="#LiberationSans-31"/>
       <use x="166.845703125" xlink:href="#LiberationSans-35"/>
       <use x="222.4609375" xlink:href="#LiberationSans-2d"/>
       <use x="255.76171875" xlink:href="#LiberationSans-31"/>
       <use x="311.376953125" xlink:href="#LiberationSans-32"/>
       <use x="366.9921875" xlink:href="#LiberationSans-2d"/>
       <use x="400.29296875" xlink:href="#LiberationSans-30"/>
       <use x="455.908203125" xlink:href="#LiberationSans-37"/>
       <use x="511.5234375" xlink:href="#LiberationSans-20"/>
       <use x="539.306640625" xlink:href="#LiberationSans-31"/>
       <use x="594.921875" xlink:href="#LiberationSans-31"/>
       <use x="650.537109375" xlink:href="#LiberationSans-3a"/>
       <use x="678.3203125" xlink:href="#LiberationSans-30"/>
       <use x="733.935546875" xlink:href="#LiberationSans-38"/>
       <use x="789.55078125" xlink:href="#LiberationSans-3a"/>
       <use x="817.333984375" xlink:href="#LiberationSans-30"/>
       <use x="872.94921875" xlink:href="#LiberationSans-30"/>
      </g>
     </g>
    </g>
    <g id="xtick_2">
     <g id="line2d_4">
      <path clip-path="url(#p6a3aeb176e)" d="M 183.655828 356.4 
L 183.655828 39.6 
" style="fill:none;stroke:#ffffff;stroke-linecap:round;"/>
     </g>
     <g id="line2d_5"/>
     <g id="line2d_6"/>
     <g id="text_2">
      <!-- 2015-12-09 14:29:00 -->
      <defs>
       <path d="M 50.875 35.796875 
Q 50.875 26.609375 49.140625 19.703125 
Q 47.40625 12.796875 44.1875 8.203125 
Q 40.96875 3.609375 36.34375 1.3125 
Q 31.734375 -0.984375 25.984375 -0.984375 
Q 22.015625 -0.984375 18.84375 -0.171875 
Q 15.671875 0.640625 13.171875 2.34375 
Q 10.6875 4.046875 8.921875 6.78125 
Q 7.171875 9.515625 6.109375 13.375 
L 14.5 14.703125 
Q 15.875 10.25 18.78125 8.171875 
Q 21.6875 6.109375 26.125 6.109375 
Q 29.6875 6.109375 32.640625 7.78125 
Q 35.59375 9.46875 37.671875 12.84375 
Q 39.75 16.21875 40.921875 21.296875 
Q 42.09375 26.375 42.1875 33.203125 
Q 41.15625 30.90625 39.375 29.09375 
Q 37.59375 27.296875 35.328125 26.046875 
Q 33.0625 24.8125 30.421875 24.140625 
Q 27.78125 23.484375 25.09375 23.484375 
Q 20.40625 23.484375 16.625 25.171875 
Q 12.84375 26.859375 10.203125 29.875 
Q 7.5625 32.90625 6.125 37.171875 
Q 4.6875 41.453125 4.6875 46.6875 
Q 4.6875 52 6.21875 56.296875 
Q 7.765625 60.59375 10.6875 63.59375 
Q 13.625 66.609375 17.890625 68.21875 
Q 22.171875 69.828125 27.59375 69.828125 
Q 39.0625 69.828125 44.96875 61.328125 
Q 50.875 52.828125 50.875 35.796875 
M 41.3125 44.28125 
Q 41.3125 48.09375 40.40625 51.453125 
Q 39.5 54.828125 37.71875 57.3125 
Q 35.9375 59.8125 33.328125 61.25 
Q 30.71875 62.703125 27.296875 62.703125 
Q 24.125 62.703125 21.578125 61.578125 
Q 19.046875 60.453125 17.28125 58.375 
Q 15.53125 56.296875 14.578125 53.3125 
Q 13.625 50.34375 13.625 46.6875 
Q 13.625 43.21875 14.46875 40.234375 
Q 15.328125 37.25 17.03125 35.078125 
Q 18.75 32.90625 21.28125 31.65625 
Q 23.828125 30.421875 27.203125 30.421875 
Q 29.640625 30.421875 32.15625 31.25 
Q 34.671875 32.078125 36.6875 33.78125 
Q 38.71875 35.5 40.015625 38.109375 
Q 41.3125 40.71875 41.3125 44.28125 
" id="LiberationSans-39"/>
       <path d="M 43.015625 15.578125 
L 43.015625 0 
L 34.71875 0 
L 34.71875 15.578125 
L 2.296875 15.578125 
L 2.296875 22.40625 
L 33.796875 68.796875 
L 43.015625 68.796875 
L 43.015625 22.515625 
L 52.6875 22.515625 
L 52.6875 15.578125 
z
M 34.71875 58.890625 
Q 34.625 58.640625 34.234375 57.9375 
Q 33.84375 57.234375 33.34375 56.34375 
Q 32.859375 55.46875 32.34375 54.5625 
Q 31.84375 53.65625 31.453125 53.078125 
L 13.8125 27.09375 
Q 13.578125 26.703125 13.109375 26.0625 
Q 12.640625 25.4375 12.15625 24.78125 
Q 11.671875 24.125 11.171875 23.484375 
Q 10.6875 22.859375 10.40625 22.515625 
L 34.71875 22.515625 
z
" id="LiberationSans-34"/>
      </defs>
      <g style="fill:#262626;" transform="translate(137.232390414 370.646875)scale(0.1 -0.1)">
       <use xlink:href="#LiberationSans-32"/>
       <use x="55.615234375" xlink:href="#LiberationSans-30"/>
       <use x="111.23046875" xlink:href="#LiberationSans-31"/>
       <use x="166.845703125" xlink:href="#LiberationSans-35"/>
       <use x="222.4609375" xlink:href="#LiberationSans-2d"/>
       <use x="255.76171875" xlink:href="#LiberationSans-31"/>
       <use x="311.376953125" xlink:href="#LiberationSans-32"/>
       <use x="366.9921875" xlink:href="#LiberationSans-2d"/>
       <use x="400.29296875" xlink:href="#LiberationSans-30"/>
       <use x="455.908203125" xlink:href="#LiberationSans-39"/>
       <use x="511.5234375" xlink:href="#LiberationSans-20"/>
       <use x="539.306640625" xlink:href="#LiberationSans-31"/>
       <use x="594.921875" xlink:href="#LiberationSans-34"/>
       <use x="650.537109375" xlink:href="#LiberationSans-3a"/>
       <use x="678.3203125" xlink:href="#LiberationSans-32"/>
       <use x="733.935546875" xlink:href="#LiberationSans-39"/>
       <use x="789.55078125" xlink:href="#LiberationSans-3a"/>
       <use x="817.333984375" xlink:href="#LiberationSans-30"/>
       <use x="872.94921875" xlink:href="#LiberationSans-30"/>
      </g>
     </g>
    </g>
    <g id="xtick_3">
     <g id="line2d_7">
      <path clip-path="url(#p6a3aeb176e)" d="M 295.311656 356.4 
L 295.311656 39.6 
" style="fill:none;stroke:#ffffff;stroke-linecap:round;"/>
     </g>
     <g id="line2d_8"/>
     <g id="line2d_9"/>
     <g id="text_3">
      <!-- 2015-12-14 10:07:00 -->
      <g style="fill:#262626;" transform="translate(248.888218328 370.646875)scale(0.1 -0.1)">
       <use xlink:href="#LiberationSans-32"/>
       <use x="55.615234375" xlink:href="#LiberationSans-30"/>
       <use x="111.23046875" xlink:href="#LiberationSans-31"/>
       <use x="166.845703125" xlink:href="#LiberationSans-35"/>
       <use x="222.4609375" xlink:href="#LiberationSans-2d"/>
       <use x="255.76171875" xlink:href="#LiberationSans-31"/>
       <use x="311.376953125" xlink:href="#LiberationSans-32"/>
       <use x="366.9921875" xlink:href="#LiberationSans-2d"/>
       <use x="400.29296875" xlink:href="#LiberationSans-31"/>
       <use x="455.908203125" xlink:href="#LiberationSans-34"/>
       <use x="511.5234375" xlink:href="#LiberationSans-20"/>
       <use x="539.306640625" xlink:href="#LiberationSans-31"/>
       <use x="594.921875" xlink:href="#LiberationSans-30"/>
       <use x="650.537109375" xlink:href="#LiberationSans-3a"/>
       <use x="678.3203125" xlink:href="#LiberationSans-30"/>
       <use x="733.935546875" xlink:href="#LiberationSans-37"/>
       <use x="789.55078125" xlink:href="#LiberationSans-3a"/>
       <use x="817.333984375" xlink:href="#LiberationSans-30"/>
       <use x="872.94921875" xlink:href="#LiberationSans-30"/>
      </g>
     </g>
    </g>
    <g id="xtick_4">
     <g id="line2d_10">
      <path clip-path="url(#p6a3aeb176e)" d="M 406.967484 356.4 
L 406.967484 39.6 
" style="fill:none;stroke:#ffffff;stroke-linecap:round;"/>
     </g>
     <g id="line2d_11"/>
     <g id="line2d_12"/>
     <g id="text_4">
      <!-- 2015-12-16 13:42:00 -->
      <defs>
       <path d="M 51.21875 19 
Q 51.21875 14.265625 49.671875 10.546875 
Q 48.140625 6.84375 45.1875 4.265625 
Q 42.234375 1.703125 37.859375 0.359375 
Q 33.5 -0.984375 27.875 -0.984375 
Q 21.484375 -0.984375 17.109375 0.609375 
Q 12.75 2.203125 9.90625 4.8125 
Q 7.078125 7.421875 5.65625 10.765625 
Q 4.25 14.109375 3.8125 17.671875 
L 12.890625 18.5 
Q 13.28125 15.765625 14.328125 13.515625 
Q 15.375 11.28125 17.1875 9.671875 
Q 19 8.0625 21.625 7.171875 
Q 24.265625 6.296875 27.875 6.296875 
Q 34.515625 6.296875 38.296875 9.5625 
Q 42.09375 12.84375 42.09375 19.28125 
Q 42.09375 23.09375 40.40625 25.40625 
Q 38.71875 27.734375 36.203125 29.03125 
Q 33.6875 30.328125 30.734375 30.765625 
Q 27.78125 31.203125 25.296875 31.203125 
L 20.3125 31.203125 
L 20.3125 38.8125 
L 25.09375 38.8125 
Q 27.59375 38.8125 30.265625 39.328125 
Q 32.953125 39.84375 35.171875 41.1875 
Q 37.40625 42.53125 38.84375 44.828125 
Q 40.28125 47.125 40.28125 50.6875 
Q 40.28125 56.203125 37.03125 59.390625 
Q 33.796875 62.59375 27.390625 62.59375 
Q 21.578125 62.59375 17.984375 59.609375 
Q 14.40625 56.640625 13.8125 51.21875 
L 4.984375 51.90625 
Q 5.515625 56.453125 7.46875 59.8125 
Q 9.421875 63.1875 12.421875 65.40625 
Q 15.4375 67.625 19.28125 68.71875 
Q 23.140625 69.828125 27.484375 69.828125 
Q 33.25 69.828125 37.390625 68.375 
Q 41.546875 66.9375 44.1875 64.46875 
Q 46.828125 62.015625 48.0625 58.6875 
Q 49.3125 55.375 49.3125 51.609375 
Q 49.3125 48.578125 48.484375 45.9375 
Q 47.65625 43.3125 45.890625 41.203125 
Q 44.140625 39.109375 41.421875 37.59375 
Q 38.71875 36.078125 34.90625 35.296875 
L 34.90625 35.109375 
Q 39.0625 34.671875 42.140625 33.21875 
Q 45.21875 31.78125 47.21875 29.625 
Q 49.21875 27.484375 50.21875 24.75 
Q 51.21875 22.015625 51.21875 19 
" id="LiberationSans-33"/>
       <path d="M 51.21875 22.515625 
Q 51.21875 17.328125 49.78125 13 
Q 48.34375 8.6875 45.53125 5.578125 
Q 42.71875 2.484375 38.5625 0.75 
Q 34.421875 -0.984375 29 -0.984375 
Q 23 -0.984375 18.5 1.3125 
Q 14.015625 3.609375 11.03125 7.921875 
Q 8.0625 12.25 6.5625 18.53125 
Q 5.078125 24.8125 5.078125 32.8125 
Q 5.078125 42 6.765625 48.921875 
Q 8.453125 55.859375 11.625 60.5 
Q 14.796875 65.140625 19.359375 67.484375 
Q 23.921875 69.828125 29.6875 69.828125 
Q 33.203125 69.828125 36.28125 69.09375 
Q 39.359375 68.359375 41.875 66.71875 
Q 44.390625 65.09375 46.28125 62.40625 
Q 48.1875 59.71875 49.3125 55.8125 
L 40.921875 54.296875 
Q 39.546875 58.734375 36.546875 60.71875 
Q 33.546875 62.703125 29.59375 62.703125 
Q 25.984375 62.703125 23.046875 60.984375 
Q 20.125 59.28125 18.0625 55.875 
Q 16.015625 52.484375 14.90625 47.359375 
Q 13.8125 42.234375 13.8125 35.40625 
Q 16.21875 39.84375 20.5625 42.15625 
Q 24.90625 44.484375 30.515625 44.484375 
Q 35.203125 44.484375 39.015625 42.96875 
Q 42.828125 41.453125 45.53125 38.59375 
Q 48.25 35.75 49.734375 31.671875 
Q 51.21875 27.59375 51.21875 22.515625 
M 42.28125 22.125 
Q 42.28125 25.6875 41.40625 28.5625 
Q 40.53125 31.453125 38.765625 33.46875 
Q 37.015625 35.5 34.421875 36.59375 
Q 31.84375 37.703125 28.421875 37.703125 
Q 26.03125 37.703125 23.578125 36.984375 
Q 21.140625 36.28125 19.15625 34.6875 
Q 17.1875 33.109375 15.9375 30.515625 
Q 14.703125 27.9375 14.703125 24.21875 
Q 14.703125 20.40625 15.671875 17.109375 
Q 16.65625 13.8125 18.484375 11.375 
Q 20.3125 8.9375 22.890625 7.515625 
Q 25.484375 6.109375 28.71875 6.109375 
Q 31.890625 6.109375 34.40625 7.203125 
Q 36.921875 8.296875 38.671875 10.375 
Q 40.4375 12.453125 41.359375 15.421875 
Q 42.28125 18.40625 42.28125 22.125 
" id="LiberationSans-36"/>
      </defs>
      <g style="fill:#262626;" transform="translate(360.544046242 370.646875)scale(0.1 -0.1)">
       <use xlink:href="#LiberationSans-32"/>
       <use x="55.615234375" xlink:href="#LiberationSans-30"/>
       <use x="111.23046875" xlink:href="#LiberationSans-31"/>
       <use x="166.845703125" xlink:href="#LiberationSans-35"/>
       <use x="222.4609375" xlink:href="#LiberationSans-2d"/>
       <use x="255.76171875" xlink:href="#LiberationSans-31"/>
       <use x="311.376953125" xlink:href="#LiberationSans-32"/>
       <use x="366.9921875" xlink:href="#LiberationSans-2d"/>
       <use x="400.29296875" xlink:href="#LiberationSans-31"/>
       <use x="455.908203125" xlink:href="#LiberationSans-36"/>
       <use x="511.5234375" xlink:href="#LiberationSans-20"/>
       <use x="539.306640625" xlink:href="#LiberationSans-31"/>
       <use x="594.921875" xlink:href="#LiberationSans-33"/>
       <use x="650.537109375" xlink:href="#LiberationSans-3a"/>
       <use x="678.3203125" xlink:href="#LiberationSans-34"/>
       <use x="733.935546875" xlink:href="#LiberationSans-32"/>
       <use x="789.55078125" xlink:href="#LiberationSans-3a"/>
       <use x="817.333984375" xlink:href="#LiberationSans-30"/>
       <use x="872.94921875" xlink:href="#LiberationSans-30"/>
      </g>
     </g>
    </g>
    <g id="text_5">
     <!-- time -->
     <defs>
      <path d="M 13.484375 24.5625 
Q 13.484375 20.40625 14.328125 16.90625 
Q 15.1875 13.421875 16.96875 10.90625 
Q 18.75 8.40625 21.53125 7 
Q 24.3125 5.609375 28.21875 5.609375 
Q 33.9375 5.609375 37.375 7.90625 
Q 40.828125 10.203125 42.046875 13.71875 
L 49.75 11.53125 
Q 48.921875 9.328125 47.4375 7.109375 
Q 45.953125 4.890625 43.453125 3.09375 
Q 40.96875 1.3125 37.234375 0.15625 
Q 33.5 -0.984375 28.21875 -0.984375 
Q 16.5 -0.984375 10.375 6 
Q 4.25 12.984375 4.25 26.765625 
Q 4.25 34.1875 6.09375 39.328125 
Q 7.953125 44.484375 11.171875 47.703125 
Q 14.40625 50.921875 18.703125 52.359375 
Q 23 53.8125 27.875 53.8125 
Q 34.515625 53.8125 38.984375 51.65625 
Q 43.453125 49.515625 46.15625 45.71875 
Q 48.875 41.9375 50.015625 36.8125 
Q 51.171875 31.6875 51.171875 25.734375 
L 51.171875 24.5625 
z
M 42.09375 31.296875 
Q 41.359375 39.65625 37.84375 43.484375 
Q 34.328125 47.3125 27.734375 47.3125 
Q 25.53125 47.3125 23.109375 46.609375 
Q 20.703125 45.90625 18.65625 44.09375 
Q 16.609375 42.28125 15.1875 39.171875 
Q 13.765625 36.078125 13.578125 31.296875 
z
" id="LiberationSans-65"/>
      <path d="M 6.6875 64.0625 
L 6.6875 72.46875 
L 15.484375 72.46875 
L 15.484375 64.0625 
z
M 6.6875 0 
L 6.6875 52.828125 
L 15.484375 52.828125 
L 15.484375 0 
z
" id="LiberationSans-69"/>
      <path d="M 27.046875 0.390625 
Q 25.046875 -0.140625 22.96875 -0.453125 
Q 20.90625 -0.78125 18.171875 -0.78125 
Q 7.625 -0.78125 7.625 11.1875 
L 7.625 46.4375 
L 1.515625 46.4375 
L 1.515625 52.828125 
L 7.953125 52.828125 
L 10.546875 64.65625 
L 16.40625 64.65625 
L 16.40625 52.828125 
L 26.171875 52.828125 
L 26.171875 46.4375 
L 16.40625 46.4375 
L 16.40625 13.09375 
Q 16.40625 9.28125 17.640625 7.734375 
Q 18.890625 6.203125 21.96875 6.203125 
Q 23.25 6.203125 24.4375 6.390625 
Q 25.640625 6.59375 27.046875 6.890625 
z
" id="LiberationSans-74"/>
      <path d="M 37.5 0 
L 37.5 33.5 
Q 37.5 37.359375 37.015625 39.9375 
Q 36.53125 42.53125 35.375 44.109375 
Q 34.234375 45.703125 32.375 46.359375 
Q 30.515625 47.015625 27.828125 47.015625 
Q 25.046875 47.015625 22.796875 45.921875 
Q 20.5625 44.828125 18.96875 42.75 
Q 17.390625 40.671875 16.53125 37.625 
Q 15.671875 34.578125 15.671875 30.609375 
L 15.671875 0 
L 6.9375 0 
L 6.9375 41.546875 
Q 6.9375 43.21875 6.90625 45.046875 
Q 6.890625 46.875 6.828125 48.5 
Q 6.78125 50.140625 6.734375 51.3125 
Q 6.6875 52.484375 6.640625 52.828125 
L 14.9375 52.828125 
Q 14.984375 52.59375 15.03125 51.515625 
Q 15.09375 50.4375 15.15625 49.046875 
Q 15.234375 47.65625 15.28125 46.21875 
Q 15.328125 44.78125 15.328125 43.796875 
L 15.484375 43.796875 
Q 16.65625 46.09375 18.015625 47.953125 
Q 19.390625 49.8125 21.21875 51.09375 
Q 23.046875 52.390625 25.40625 53.09375 
Q 27.78125 53.8125 30.90625 53.8125 
Q 36.921875 53.8125 40.40625 51.421875 
Q 43.890625 49.03125 45.265625 43.796875 
L 45.40625 43.796875 
Q 46.578125 46.09375 48.046875 47.953125 
Q 49.515625 49.8125 51.46875 51.09375 
Q 53.421875 52.390625 55.859375 53.09375 
Q 58.296875 53.8125 61.421875 53.8125 
Q 65.4375 53.8125 68.328125 52.734375 
Q 71.234375 51.65625 73.09375 49.40625 
Q 74.953125 47.171875 75.828125 43.625 
Q 76.703125 40.09375 76.703125 35.203125 
L 76.703125 0 
L 68.015625 0 
L 68.015625 33.5 
Q 68.015625 37.359375 67.53125 39.9375 
Q 67.046875 42.53125 65.890625 44.109375 
Q 64.75 45.703125 62.890625 46.359375 
Q 61.03125 47.015625 58.34375 47.015625 
Q 55.5625 47.015625 53.3125 45.96875 
Q 51.078125 44.921875 49.484375 42.875 
Q 47.90625 40.828125 47.046875 37.75 
Q 46.1875 34.671875 46.1875 30.609375 
L 46.1875 0 
z
" id="LiberationSans-6d"/>
     </defs>
     <g style="fill:#262626;" transform="translate(284.81015625 385.6934375)scale(0.11 -0.11)">
      <use xlink:href="#LiberationSans-74"/>
      <use x="27.783203125" xlink:href="#LiberationSans-69"/>
      <use x="50.0" xlink:href="#LiberationSans-6d"/>
      <use x="133.30078125" xlink:href="#LiberationSans-65"/>
     </g>
    </g>
   </g>
   <g id="matplotlib.axis_2">
    <g id="ytick_1">
     <g id="line2d_13">
      <path clip-path="url(#p6a3aeb176e)" d="M 72 356.4 
L 518.4 356.4 
" style="fill:none;stroke:#ffffff;stroke-linecap:round;"/>
     </g>
     <g id="line2d_14"/>
     <g id="line2d_15"/>
     <g id="text_6">
      <!-- 272 -->
      <g style="fill:#262626;" transform="translate(48.3171875 358.9859375)scale(0.1 -0.1)">
       <use xlink:href="#LiberationSans-32"/>
       <use x="55.615234375" xlink:href="#LiberationSans-37"/>
       <use x="111.23046875" xlink:href="#LiberationSans-32"/>
      </g>
     </g>
    </g>
    <g id="ytick_2">
     <g id="line2d_16">
      <path clip-path="url(#p6a3aeb176e)" d="M 72 316.8 
L 518.4 316.8 
" style="fill:none;stroke:#ffffff;stroke-linecap:round;"/>
     </g>
     <g id="line2d_17"/>
     <g id="line2d_18"/>
     <g id="text_7">
      <!-- 274 -->
      <g style="fill:#262626;" transform="translate(48.3171875 319.3859375)scale(0.1 -0.1)">
       <use xlink:href="#LiberationSans-32"/>
       <use x="55.615234375" xlink:href="#LiberationSans-37"/>
       <use x="111.23046875" xlink:href="#LiberationSans-34"/>
      </g>
     </g>
    </g>
    <g id="ytick_3">
     <g id="line2d_19">
      <path clip-path="url(#p6a3aeb176e)" d="M 72 277.2 
L 518.4 277.2 
" style="fill:none;stroke:#ffffff;stroke-linecap:round;"/>
     </g>
     <g id="line2d_20"/>
     <g id="line2d_21"/>
     <g id="text_8">
      <!-- 276 -->
      <g style="fill:#262626;" transform="translate(48.3171875 279.7859375)scale(0.1 -0.1)">
       <use xlink:href="#LiberationSans-32"/>
       <use x="55.615234375" xlink:href="#LiberationSans-37"/>
       <use x="111.23046875" xlink:href="#LiberationSans-36"/>
      </g>
     </g>
    </g>
    <g id="ytick_4">
     <g id="line2d_22">
      <path clip-path="url(#p6a3aeb176e)" d="M 72 237.6 
L 518.4 237.6 
" style="fill:none;stroke:#ffffff;stroke-linecap:round;"/>
     </g>
     <g id="line2d_23"/>
     <g id="line2d_24"/>
     <g id="text_9">
      <!-- 278 -->
      <g style="fill:#262626;" transform="translate(48.3171875 240.1859375)scale(0.1 -0.1)">
       <use xlink:href="#LiberationSans-32"/>
       <use x="55.615234375" xlink:href="#LiberationSans-37"/>
       <use x="111.23046875" xlink:href="#LiberationSans-38"/>
      </g>
     </g>
    </g>
    <g id="ytick_5">
     <g id="line2d_25">
      <path clip-path="url(#p6a3aeb176e)" d="M 72 198 
L 518.4 198 
" style="fill:none;stroke:#ffffff;stroke-linecap:round;"/>
     </g>
     <g id="line2d_26"/>
     <g id="line2d_27"/>
     <g id="text_10">
      <!-- 280 -->
      <g style="fill:#262626;" transform="translate(48.3171875 200.5859375)scale(0.1 -0.1)">
       <use xlink:href="#LiberationSans-32"/>
       <use x="55.615234375" xlink:href="#LiberationSans-38"/>
       <use x="111.23046875" xlink:href="#LiberationSans-30"/>
      </g>
     </g>
    </g>
    <g id="ytick_6">
     <g id="line2d_28">
      <path clip-path="url(#p6a3aeb176e)" d="M 72 158.4 
L 518.4 158.4 
" style="fill:none;stroke:#ffffff;stroke-linecap:round;"/>
     </g>
     <g id="line2d_29"/>
     <g id="line2d_30"/>
     <g id="text_11">
      <!-- 282 -->
      <g style="fill:#262626;" transform="translate(48.3171875 160.9859375)scale(0.1 -0.1)">
       <use xlink:href="#LiberationSans-32"/>
       <use x="55.615234375" xlink:href="#LiberationSans-38"/>
       <use x="111.23046875" xlink:href="#LiberationSans-32"/>
      </g>
     </g>
    </g>
    <g id="ytick_7">
     <g id="line2d_31">
      <path clip-path="url(#p6a3aeb176e)" d="M 72 118.8 
L 518.4 118.8 
" style="fill:none;stroke:#ffffff;stroke-linecap:round;"/>
     </g>
     <g id="line2d_32"/>
     <g id="line2d_33"/>
     <g id="text_12">
      <!-- 284 -->
      <g style="fill:#262626;" transform="translate(48.3171875 121.3859375)scale(0.1 -0.1)">
       <use xlink:href="#LiberationSans-32"/>
       <use x="55.615234375" xlink:href="#LiberationSans-38"/>
       <use x="111.23046875" xlink:href="#LiberationSans-34"/>
      </g>
     </g>
    </g>
    <g id="ytick_8">
     <g id="line2d_34">
      <path clip-path="url(#p6a3aeb176e)" d="M 72 79.2 
L 518.4 79.2 
" style="fill:none;stroke:#ffffff;stroke-linecap:round;"/>
     </g>
     <g id="line2d_35"/>
     <g id="line2d_36"/>
     <g id="text_13">
      <!-- 286 -->
      <g style="fill:#262626;" transform="translate(48.3171875 81.7859375)scale(0.1 -0.1)">
       <use xlink:href="#LiberationSans-32"/>
       <use x="55.615234375" xlink:href="#LiberationSans-38"/>
       <use x="111.23046875" xlink:href="#LiberationSans-36"/>
      </g>
     </g>
    </g>
    <g id="ytick_9">
     <g id="line2d_37">
      <path clip-path="url(#p6a3aeb176e)" d="M 72 39.6 
L 518.4 39.6 
" style="fill:none;stroke:#ffffff;stroke-linecap:round;"/>
     </g>
     <g id="line2d_38"/>
     <g id="line2d_39"/>
     <g id="text_14">
      <!-- 288 -->
      <g style="fill:#262626;" transform="translate(48.3171875 42.1859375)scale(0.1 -0.1)">
       <use xlink:href="#LiberationSans-32"/>
       <use x="55.615234375" xlink:href="#LiberationSans-38"/>
       <use x="111.23046875" xlink:href="#LiberationSans-38"/>
      </g>
     </g>
    </g>
   </g>
   <g id="line2d_40">
    <path clip-path="url(#p6a3aeb176e)" d="M 72 200.696084 
L 72.446623 189.243825 
L 72.669935 191.948765 
L 72.893247 200.090501 
L 73.116558 178.761977 
L 73.33987 194.800545 
L 73.563182 202.027176 
L 74.009805 194.116886 
L 74.233117 195.624117 
L 74.456428 206.239347 
L 74.903052 189.299132 
L 75.126363 191.102426 
L 75.349675 197.209422 
L 75.796298 185.988608 
L 76.01961 182.368564 
L 76.242921 195.392671 
L 76.466233 190.574917 
L 76.912856 160.984732 
L 77.136168 164.591319 
L 77.35948 172.797673 
L 77.582791 170.092732 
L 77.806103 150.863565 
L 78.029415 152.074732 
L 78.252726 143.164732 
L 78.922661 96.458195 
L 79.145973 103.14386 
L 79.369285 113.265027 
L 79.815908 119.668087 
L 80.03922 129.599659 
L 80.262531 114.772258 
L 80.485843 119.899533 
L 80.709155 112.187243 
L 80.932466 114.59612 
L 81.155778 123.50612 
L 81.37909 112.483306 
L 81.602401 123.50612 
L 81.825713 127.731748 
L 82.049025 125.01335 
L 82.272336 129.535041 
L 82.495648 140.755855 
L 82.718959 140.150272 
L 83.165583 159.167982 
L 83.388894 141.953565 
L 83.835518 150.567502 
L 84.058829 146.341874 
L 84.282141 144.53858 
L 84.505453 130.986964 
L 84.728764 143.207488 
L 84.952076 139.961582 
L 85.175388 143.207488 
L 85.398699 141.700258 
L 85.845323 135.375273 
L 86.068634 143.207488 
L 86.291946 124.958043 
L 86.515258 129.170213 
L 86.738569 118.929121 
L 86.961881 131.149645 
L 87.185193 136.572983 
L 87.408504 135.375273 
L 87.631816 118.752983 
L 87.855128 129.479734 
L 88.301751 113.329645 
L 88.525063 122.978611 
L 88.748374 123.880258 
L 88.971686 130.810826 
L 89.194997 122.30841 
L 89.641621 138.037458 
L 89.864932 135.022997 
L 90.088244 144.53858 
L 90.311556 133.825287 
L 90.981491 154.307471 
L 91.204802 147.917869 
L 91.428114 149.489717 
L 91.651426 158.090197 
L 92.098049 137.97284 
L 92.321361 145.869673 
L 92.544672 136.761673 
L 92.767984 145.264089 
L 92.991296 131.042272 
L 93.214607 134.430871 
L 93.437919 130.205243 
L 93.661231 118.984429 
L 93.884542 115.377842 
L 94.107854 115.068321 
L 94.331166 123.50612 
L 94.554477 120.491659 
L 94.777789 122.30841 
L 95.224412 140.918536 
L 95.671036 119.117811 
L 95.894347 129.238978 
L 96.117659 133.451149 
L 96.34097 130.732751 
L 96.564282 225.211966 
L 96.787594 214.957416 
L 97.010905 216.464647 
L 97.234217 216.774167 
L 97.457529 221.162476 
L 97.68084 221.458539 
L 97.904152 223.516046 
L 98.127464 218.929737 
L 98.574087 225.924923 
L 98.797399 225.846848 
L 99.02071 222.240261 
L 99.244022 210.019737 
L 99.467334 207.906923 
L 99.690645 224.945201 
L 99.913957 213.626324 
L 100.137269 226.761952 
L 100.36058 225.846848 
L 100.583892 239.180476 
L 100.807204 239.180476 
L 101.030515 250.971554 
L 101.253827 239.94874 
L 101.477139 238.927169 
L 101.70045 244.942633 
L 101.923762 236.814355 
L 102.370385 257.065094 
L 102.593697 245.857737 
L 102.817009 249.464324 
L 103.263632 218.148015 
L 103.486943 240.082123 
L 103.710255 240.378186 
L 103.933567 231.270186 
L 104.156878 227.058015 
L 104.38019 231.270186 
L 104.603502 241.29329 
L 104.826813 240.082123 
L 105.050125 243.568785 
L 105.72006 222.614399 
L 105.943372 229.544967 
L 106.166683 229.235447 
L 106.389995 234.658785 
L 106.836618 250.365971 
L 107.05993 250.740109 
L 107.283242 249.464324 
L 107.729865 236.208771 
L 107.953177 220.368203 
L 108.176488 253.930708 
L 108.3998 255.128418 
L 108.623112 259.418663 
L 108.846423 256.043522 
L 109.069735 241.400663 
L 109.293047 246.527938 
L 109.516358 259.650109 
L 109.73967 249.542399 
L 109.962981 251.049629 
L 110.186293 220.312895 
L 110.409605 218.805665 
L 110.632916 206.077621 
L 110.856228 204.879911 
L 111.07954 209.993728 
L 111.302851 203.802126 
L 111.526163 214.82494 
L 111.749475 204.098189 
L 111.972786 204.098189 
L 112.196098 212.712126 
L 112.41941 193.990479 
L 112.642721 190.305817 
L 112.866033 195.793773 
L 113.089345 193.010757 
L 113.535968 178.085293 
L 113.75928 181.395817 
L 113.982591 171.58417 
L 114.429215 188.798587 
L 114.652526 187.587419 
L 114.875838 196.334739 
L 115.09915 190.911401 
L 115.545773 176.740743 
L 115.769085 161.505759 
L 116.215708 184.572958 
L 116.43902 169.943557 
L 116.662331 178.557494 
L 116.885643 174.465249 
L 117.108954 165.477174 
L 117.332266 175.500278 
L 117.555578 175.12614 
L 117.778889 179.943894 
L 118.002201 175.422203 
L 118.225513 185.74137 
L 118.895448 194.947433 
L 119.118759 181.515742 
L 119.342071 180.614095 
L 119.565383 179.106865 
L 119.788694 170.308385 
L 120.012006 178.746184 
L 120.458629 204.892462 
L 120.681941 203.681295 
L 120.905253 199.469124 
L 121.128564 197.35631 
L 121.351876 198.257957 
L 121.575188 194.771295 
L 121.798499 187.544663 
L 122.245123 197.532448 
L 122.468434 209.950972 
L 122.691746 199.039679 
L 122.915058 194.045786 
L 123.138369 191.932972 
L 123.361681 179.712448 
L 123.584992 222.064123 
L 123.808304 220.866413 
L 124.031616 233.988584 
L 124.478239 221.458539 
L 124.701551 228.389107 
L 124.924862 228.818553 
L 125.148174 212.779985 
L 125.371486 207.96223 
L 125.594797 205.553353 
L 125.818109 206.455 
L 126.264732 175.920413 
L 126.488044 181.704432 
L 126.711356 194.84006 
L 126.934667 192.431182 
L 127.381291 185.324476 
L 127.827914 143.435693 
L 128.051226 113.197169 
L 128.274537 120.192355 
L 128.497849 116.881831 
L 128.721161 128.200708 
L 128.944472 123.679017 
L 129.167784 123.679017 
L 129.614407 103.548203 
L 129.837719 125.48231 
L 130.284342 105.901773 
L 130.507654 115.550739 
L 130.730965 118.255679 
L 130.954277 107.838448 
L 131.177589 120.058972 
L 131.4009 114.163433 
L 131.624212 115.670663 
L 132.070835 131.081786 
L 132.294147 127.461742 
L 132.517459 142.3026 
L 132.964082 138.858694 
L 133.187394 132.829773 
L 133.410705 134.633066 
L 133.634017 134.711141 
L 133.857329 140.430542 
L 134.08064 138.627249 
L 134.303952 143.741066 
L 134.527264 157.482278 
L 134.750575 145.557817 
L 134.973887 145.85388 
L 135.197199 129.047047 
L 135.42051 128.308081 
L 135.643822 121.08145 
L 135.867134 109.762573 
L 136.090445 126.504788 
L 136.313757 133.203911 
L 136.537069 128.617602 
L 136.76038 121.214832 
L 136.983692 127.83588 
L 137.207004 128.737527 
L 137.653627 149.650063 
L 137.876938 145.85388 
L 138.10025 154.291679 
L 138.323562 145.789262 
L 138.546873 144.578095 
L 138.770185 147.888619 
L 138.993497 142.169218 
L 139.216808 133.568739 
L 139.44012 131.146404 
L 139.663432 135.372032 
L 139.886743 122.722063 
L 140.110055 136.449817 
L 140.556678 121.687034 
L 140.77999 123.799848 
L 141.003302 119.398081 
L 141.226613 125.293621 
L 141.449925 114.580327 
L 141.673237 125.899204 
L 141.896548 124.229293 
L 142.11986 141.937773 
L 142.343172 148.142832 
L 142.566483 132.224189 
L 143.013107 142.169218 
L 143.236418 125.052865 
L 143.45973 125.362385 
L 143.683042 132.88508 
L 143.906353 146.459464 
L 144.129665 150.079508 
L 144.352976 156.996619 
L 144.576288 149.769988 
L 144.7996 157.172757 
L 145.022911 155.502846 
L 145.246223 152.178865 
L 145.469535 145.479742 
L 145.692846 147.592556 
L 145.916158 157.30614 
L 146.13947 158.207786 
L 146.362781 168.019433 
L 146.586093 160.792802 
L 146.809405 175.12614 
L 147.032716 180.923616 
L 147.256028 170.604448 
L 147.47934 169.406739 
L 147.702651 169.406739 
L 147.925963 176.929433 
L 148.149275 190.318368 
L 148.372586 186.09274 
L 148.595898 198.918848 
L 148.81921 196.509971 
L 149.042521 184.895031 
L 149.489145 202.307447 
L 149.935768 187.170525 
L 150.15908 188.987276 
L 150.605703 194.179169 
L 150.829015 201.4058 
L 151.052326 200.800216 
L 151.275638 187.170525 
L 151.498949 184.169522 
L 151.722261 190.559124 
L 151.945573 187.2486 
L 152.168884 188.44631 
L 152.392196 191.932972 
L 152.615508 186.346954 
L 152.838819 196.1586 
L 153.062131 196.764184 
L 153.285443 203.385232 
L 153.732066 190.559124 
L 154.178689 208.512507 
L 154.402001 188.677756 
L 154.625313 200.800216 
L 154.848624 189.579402 
L 155.071936 192.903384 
L 155.295248 191.396153 
L 155.518559 203.518614 
L 155.741871 205.927491 
L 155.965183 204.11074 
L 156.411806 206.533075 
L 156.635118 196.884109 
L 156.858429 198.095276 
L 157.081741 197.193629 
L 157.305053 199.602507 
L 157.528364 188.44631 
L 157.751676 185.071169 
L 157.974987 185.663295 
L 158.198299 190.184986 
L 158.421611 181.584507 
L 158.868234 199.833952 
L 159.538169 179.83652 
L 159.761481 159.100123 
L 159.984792 157.296829 
L 160.208104 172.729814 
L 160.431416 176.216476 
L 160.654727 184.048691 
L 160.878039 177.843631 
L 161.101351 176.645921 
L 161.324662 184.048691 
L 161.547974 172.729814 
L 161.771286 187.063152 
L 161.994597 174.842628 
L 162.217909 182.365322 
L 162.664532 177.843631 
L 162.887844 182.541461 
L 163.334467 184.950338 
L 163.781091 209.602843 
L 164.004402 212.483921 
L 164.227714 201.165044 
L 164.451026 200.263398 
L 164.674337 198.150584 
L 164.897649 202.968338 
L 165.12096 203.277858 
L 165.344272 203.277858 
L 165.567584 218.512843 
L 165.790895 211.582275 
L 166.237519 222.197505 
L 166.46083 220.986338 
L 166.684142 225.508029 
L 166.907454 233.945828 
L 167.130765 230.261166 
L 167.354077 230.866749 
L 167.8007 225.133891 
L 168.024012 231.458876 
L 168.247324 231.162812 
L 168.470635 236.58615 
L 168.693947 223.154459 
L 168.917259 226.16892 
L 169.14057 223.450522 
L 169.363882 245.023949 
L 169.587194 241.107842 
L 169.810505 229.788964 
L 170.033817 236.58615 
L 170.257129 226.16892 
L 170.48044 186.402261 
L 170.703752 191.825599 
L 170.927064 201.701863 
L 171.150375 206.223554 
L 171.373687 194.706677 
L 171.596998 208.026848 
L 171.82031 204.420261 
L 172.043622 210.139662 
L 172.266933 207.125201 
L 172.490245 188.677756 
L 172.713557 181.747187 
L 172.936868 185.367232 
L 173.16018 195.686399 
L 173.383492 182.662292 
L 173.606803 191.164708 
L 173.830115 195.376879 
L 174.053427 186.268879 
L 174.50005 207.477477 
L 174.723362 210.788001 
L 174.946673 205.674184 
L 175.393297 181.825262 
L 175.616608 194.341849 
L 175.83992 189.347957 
L 176.286543 198.567477 
L 176.509855 189.051894 
L 176.733167 196.1586 
L 176.956478 194.045786 
L 177.17979 197.35631 
L 177.403102 186.93908 
L 177.626413 190.263061 
L 177.849725 198.095276 
L 178.073037 197.193629 
L 178.296348 199.602507 
L 178.51966 210.019737 
L 178.742971 202.616967 
L 179.189595 205.321908 
L 179.412906 215.739138 
L 179.636218 213.330261 
L 180.082841 200.976355 
L 180.306153 198.863541 
L 180.529465 212.063786 
L 180.752776 211.999169 
L 180.976088 205.364663 
L 181.422711 211.767723 
L 181.646023 206.871894 
L 181.869335 208.443742 
L 182.092646 208.083061 
L 182.315958 221.107169 
L 182.53927 226.397124 
L 182.985893 244.64657 
L 183.209205 247.055447 
L 183.432516 226.82657 
L 183.655828 225.023276 
L 183.87914 239.652677 
L 184.102451 236.638216 
L 184.549075 246.1538 
L 184.772386 239.94874 
L 185.21901 257.60606 
L 185.442321 235.869952 
L 185.665633 227.354078 
L 186.112256 262.488432 
L 186.335568 255.021044 
L 186.558879 256.394892 
L 186.782191 255.197182 
L 187.005503 255.493246 
L 187.228814 247.484892 
L 187.675438 264.305182 
L 187.898749 261.212647 
L 188.345373 229.544967 
L 188.568684 240.258261 
L 188.791996 229.544967 
L 189.015308 237.2438 
L 189.238619 238.145447 
L 189.685243 259.473971 
L 189.908554 254.360153 
L 190.131866 264.777384 
L 190.355178 242.061554 
L 190.578489 251.641756 
L 190.801801 249.70508 
L 191.025113 258.142879 
L 191.248424 247.725648 
L 191.471736 254.360153 
L 191.695048 256.163447 
L 191.918359 263.875737 
L 192.141671 266.87674 
L 192.364982 301.353444 
L 192.811606 286.216522 
L 193.034917 293.752674 
L 193.481541 274.4682 
L 193.704852 286.294597 
L 193.928164 284.117166 
L 194.151476 288.999538 
L 194.374787 283.280137 
L 194.598099 287.372382 
L 195.044722 272.433461 
L 195.268034 277.560735 
L 195.491346 274.546275 
L 195.714657 279.067966 
L 195.937969 267.374951 
L 196.161281 270.079891 
L 196.384592 286.216522 
L 196.607904 279.123273 
L 197.054527 298.879949 
L 197.277839 289.068302 
L 197.501151 294.49164 
L 197.724462 292.069306 
L 198.171086 303.09212 
L 198.394397 291.167659 
L 198.617709 295.68935 
L 199.064332 310.452134 
L 199.287644 313.762657 
L 199.510955 326.116564 
L 199.734267 316.910501 
L 199.957579 319.495516 
L 200.18089 315.579408 
L 200.404202 322.200456 
L 200.627514 310.881579 
L 200.850825 327.327731 
L 201.074137 321.122671 
L 201.297449 319.791579 
L 201.52076 317.086639 
L 201.967384 333.893471 
L 202.190695 316.347673 
L 202.414007 325.391055 
L 202.637319 321.165427 
L 202.86063 327.272424 
L 203.083942 314.840442 
L 203.307254 320.26378 
L 203.530565 314.840442 
L 203.753877 313.466594 
L 203.977189 319.362134 
L 204.2005 303.225502 
L 204.423812 315.742089 
L 204.647124 308.824978 
L 204.870435 306.402644 
L 205.093747 325.765193 
L 205.317059 320.26378 
L 205.54037 320.573301 
L 205.763682 332.991825 
L 206.210305 315.446026 
L 206.433617 316.721811 
L 206.656928 317.327395 
L 206.88024 312.805703 
L 207.103552 302.486536 
L 207.326863 303.993766 
L 207.550175 317.327395 
L 207.773487 303.993766 
L 207.996798 308.593533 
L 208.22011 289.836567 
L 208.666733 296.471072 
L 208.890045 296.471072 
L 209.113357 307.086302 
L 209.55998 299.55015 
L 209.783292 299.176012 
L 210.006603 301.353444 
L 210.229915 311.904057 
L 210.453227 300.979306 
L 210.676538 317.623458 
L 210.89985 315.510644 
L 211.123162 314.918517 
L 211.346473 313.101766 
L 211.569785 294.062195 
L 211.793097 298.274365 
L 212.016408 311.904057 
L 212.23972 313.883488 
L 212.463032 311.474611 
L 212.686343 312.376258 
L 212.909655 300.022352 
L 213.132966 300.022352 
L 213.356278 291.112352 
L 213.57959 303.332876 
L 213.802901 301.825645 
L 214.026213 307.558504 
L 214.249525 307.558504 
L 214.472836 313.652043 
L 214.696148 307.248983 
L 215.142771 305.44569 
L 215.366083 306.95292 
L 215.589395 293.521229 
L 215.812706 304.840106 
L 216.036018 309.65786 
L 216.25933 301.057381 
L 216.482641 319.075381 
L 216.705953 323.518997 
L 216.929265 340.459212 
L 217.152576 334.739811 
L 217.375888 318.997306 
L 217.822511 338.359855 
L 218.045823 343.044227 
L 218.269135 352.263748 
L 218.492446 336.113659 
L 218.715758 334.606429 
L 218.93907 331.295905 
L 219.162381 321.350876 
L 219.609005 326.774213 
L 219.832316 324.97092 
L 220.055628 319.680964 
L 220.278939 327.67586 
L 220.948874 305.875135 
L 221.172186 309.495179 
L 221.395498 300.74786 
L 221.618809 305.579072 
L 221.842121 297.141273 
L 222.065433 295.50066 
L 222.288744 292.79572 
L 222.512056 288.274029 
L 222.735368 292.79572 
L 222.958679 293.697367 
L 223.181991 295.810181 
L 223.405303 300.086969 
L 223.628614 310.208137 
L 223.851926 302.981505 
L 224.075238 300.263107 
L 224.521861 285.929769 
L 224.745173 286.23929 
L 224.968484 276.525706 
L 225.191796 288.338647 
L 225.638419 279.230647 
L 225.861731 281.343461 
L 226.085043 288.94423 
L 226.754977 265.812413 
L 226.978289 272.137398 
L 227.201601 272.433461 
L 227.424912 271.827877 
L 227.648224 274.842338 
L 227.871536 255.317107 
L 228.094847 265.734338 
L 228.318159 265.128754 
L 228.541471 253.513814 
L 228.764782 263.931044 
L 229.211406 247.794413 
L 229.434717 250.795416 
L 229.658029 267.010123 
L 229.881341 260.916584 
L 230.104652 267.911769 
L 230.327964 260.62052 
L 230.551276 259.409353 
L 230.774587 256.394892 
L 231.221211 229.411585 
L 231.444522 227.002708 
L 231.667834 243.203957 
L 231.891146 224.834587 
L 232.114457 218.805665 
L 232.337769 231.765155 
L 232.561081 228.14511 
L 233.007704 238.695723 
L 233.231016 224.834587 
L 233.454327 224.525066 
L 233.677639 224.834587 
L 234.124262 240.202954 
L 234.347574 241.1046 
L 234.570885 229.587723 
L 234.794197 233.19431 
L 235.017509 244.119061 
L 235.24082 240.202954 
L 235.464132 242.30231 
L 235.687444 239.893433 
L 235.910755 229.587723 
L 236.134067 236.878972 
L 236.357379 238.09014 
L 236.58069 230.863508 
L 237.027314 241.400663 
L 237.250625 242.611831 
L 237.473937 247.429585 
L 237.697249 254.656216 
L 237.92056 246.527938 
L 238.143872 259.650109 
L 238.367184 253.930708 
L 238.590495 253.029061 
L 238.813807 256.404203 
L 239.26043 244.281742 
L 239.483742 252.192032 
L 239.707054 251.586448 
L 239.930365 236.759047 
L 240.153677 239.463988 
L 240.376988 237.05511 
L 240.6003 219.277866 
L 240.823612 224.701204 
L 241.046923 220.016832 
L 241.493547 233.513141 
L 241.716858 216.263405 
L 241.94017 209.642358 
L 242.163482 210.367866 
L 242.386793 212.48068 
L 242.833417 227.110081 
L 243.056728 211.875097 
L 243.28004 222.292327 
L 243.503352 203.076617 
L 243.949975 222.116189 
L 244.173287 223.031293 
L 244.61991 207.894371 
L 244.843222 220.016832 
L 245.066533 223.93294 
L 245.289845 220.248278 
L 245.513157 226.341817 
L 245.95978 211.875097 
L 246.183092 211.579034 
L 246.406403 219.587387 
L 246.629715 215.671279 
L 246.853027 219.046421 
L 247.076338 201.337941 
L 247.29965 214.756175 
L 247.522961 208.135127 
L 247.746273 204.944528 
L 247.969585 197.717897 
L 248.192896 204.824603 
L 248.416208 200.126774 
L 248.63952 204.338945 
L 249.086143 205.846175 
L 249.532766 215.671279 
L 249.756078 202.161513 
L 249.97939 224.095621 
L 250.202701 215.185621 
L 250.649325 228.011728 
L 250.872636 223.193974 
L 251.31926 230.434063 
L 251.989195 210.599312 
L 252.212506 197.597066 
L 252.65913 216.33217 
L 252.882441 200.787665 
L 253.105753 198.378788 
L 253.329065 205.175974 
L 253.552376 208.190435 
L 253.775688 203.668743 
L 253.998999 217.002371 
L 254.222311 210.071803 
L 254.445623 194.329298 
L 254.668934 197.949342 
L 254.892246 186.630465 
L 255.115558 192.349866 
L 255.338869 200.963803 
L 255.562181 191.744283 
L 255.785493 196.146049 
L 256.008804 204.338945 
L 256.232116 202.161513 
L 256.455428 179.99596 
L 256.678739 190.787329 
L 256.902051 190.491265 
L 257.125363 189.589619 
L 257.348674 186.497083 
L 257.571986 191.920421 
L 257.795298 177.587083 
L 258.018609 187.70825 
L 258.241921 184.088206 
L 258.465233 191.314837 
L 258.688544 194.329298 
L 258.911856 194.638818 
L 259.135168 197.653279 
L 259.358479 188.313834 
L 259.581791 189.335405 
L 259.805103 183.143803 
L 260.028414 203.37268 
L 260.251726 196.871557 
L 260.475038 195.497709 
L 260.698349 198.20265 
L 260.921661 196.695419 
L 261.144972 184.100757 
L 261.368284 196.695419 
L 261.591596 195.497709 
L 261.814907 193.680958 
L 262.038219 190.305817 
L 262.261531 197.906587 
L 262.484842 193.384895 
L 262.708154 182.164081 
L 262.931466 179.459141 
L 263.601401 208.753262 
L 263.824712 201.448556 
L 264.048024 199.941326 
L 264.271336 205.442739 
L 264.494647 202.724341 
L 264.717959 215.846511 
L 264.941271 205.442739 
L 265.164582 216.156032 
L 265.387894 212.965433 
L 265.611206 219.896001 
L 265.834517 222.614399 
L 266.057829 216.211339 
L 266.281141 205.498046 
L 266.504452 202.616967 
L 266.951076 208.336368 
L 267.174387 216.168584 
L 267.397699 193.452754 
L 267.621011 196.037769 
L 267.844322 204.046123 
L 268.067634 204.342186 
L 268.290945 210.449182 
L 268.514257 202.848413 
L 268.96088 235.560432 
L 269.407504 226.452432 
L 269.630815 241.589353 
L 269.854127 243.031966 
L 270.077439 240.017505 
L 270.30075 239.707985 
L 270.524062 254.470768 
L 270.970685 243.933613 
L 271.193997 243.031966 
L 271.863932 227.191398 
L 272.087244 228.994691 
L 272.533867 208.941952 
L 272.757179 209.534078 
L 272.98049 215.87252 
L 273.203802 208.026848 
L 273.427114 205.553353 
L 273.650425 210.976691 
L 273.873737 208.567814 
L 274.097049 201.341182 
L 274.32036 201.637246 
L 274.766983 181.274986 
L 274.990295 192.968001 
L 275.213607 195.080815 
L 275.436918 206.695756 
L 275.883542 184.169522 
L 276.106853 189.347957 
L 276.330165 197.193629 
L 276.553477 193.573585 
L 276.776788 193.869648 
L 277.0001 198.996923 
L 277.223412 199.602507 
L 277.670035 211.041309 
L 277.893347 211.646892 
L 278.116658 210.139662 
L 278.33997 198.017201 
L 278.563282 199.524432 
L 278.786593 195.608324 
L 279.009905 197.785756 
L 279.233217 185.663295 
L 279.456528 187.776109 
L 279.903152 168.328954 
L 280.126463 173.752292 
L 280.349775 174.048355 
L 280.573087 174.653938 
L 280.796398 172.541124 
L 281.01971 177.062815 
L 281.243022 159.340879 
L 281.466333 163.631124 
L 281.912956 184.761648 
L 282.136268 177.668399 
L 282.35958 178.866109 
L 282.582891 171.759402 
L 283.029515 173.872216 
L 283.252826 180.077276 
L 283.476138 182.473602 
L 283.922761 193.990479 
L 284.146073 194.892126 
L 285.03932 169.943557 
L 285.262631 169.041911 
L 285.709255 182.769665 
L 285.932566 166.456895 
L 286.155878 164.344081 
L 286.37919 173.993047 
L 286.602501 148.572278 
L 286.825813 142.543356 
L 287.049125 155.369464 
L 287.272436 155.665527 
L 287.495748 152.05894 
L 287.71906 136.140296 
L 287.942371 141.937773 
L 288.388994 156.996619 
L 288.612306 156.094972 
L 288.835618 160.926184 
L 289.058929 152.719831 
L 289.282241 150.607017 
L 289.505553 160.926184 
L 289.728864 165.314493 
L 289.952176 166.821723 
L 290.175488 160.926184 
L 290.398799 170.132247 
L 290.622111 162.300032 
L 290.845423 162.905616 
L 291.515358 176.323849 
L 291.738669 175.422203 
L 291.961981 166.21614 
L 292.408604 187.776109 
L 292.631916 185.191094 
L 292.855228 185.191094 
L 293.078539 189.712785 
L 293.301851 186.402261 
L 293.525163 185.191094 
L 293.748474 201.031662 
L 293.971786 192.903384 
L 294.195098 189.283339 
L 294.418409 177.964462 
L 294.641721 191.396153 
L 295.088344 198.017201 
L 295.311656 186.09274 
L 295.534967 188.205554 
L 295.758279 191.825599 
L 295.981591 197.368862 
L 296.204902 199.348293 
L 296.428214 192.255044 
L 296.651526 199.657814 
L 296.874837 188.029416 
L 297.098149 194.234476 
L 297.321461 184.113309 
L 297.544772 164.468153 
L 297.768084 157.833648 
L 297.991396 161.749756 
L 298.214707 120.192355 
L 298.438019 124.714046 
L 298.661331 124.714046 
L 298.884642 132.722399 
L 299.107954 100.667124 
L 299.554577 120.488418 
L 299.777889 119.818216 
L 300.001201 128.926216 
L 300.224512 144.161201 
L 300.447824 151.091769 
L 300.671136 131.270476 
L 300.894447 133.679353 
L 301.117759 140.674539 
L 301.341071 134.284937 
L 301.564382 138.497107 
L 301.787694 133.679353 
L 302.011006 137.891524 
L 302.234317 139.236073 
L 302.457629 120.908553 
L 302.68094 75.66649 
L 302.904252 61.453077 
L 303.127564 85.676137 
L 303.350875 67.185935 
L 303.574187 63.875411 
L 303.797499 54.161828 
L 304.02081 82.893121 
L 304.467434 88.690597 
L 304.690745 65.854843 
L 304.914057 78.075367 
L 305.137369 78.977014 
L 305.36068 73.687058 
L 305.807304 90.119753 
L 306.030615 93.443734 
L 306.253927 105.862258 
L 306.477239 92.83815 
L 306.70055 88.140321 
L 306.923862 96.458195 
L 307.147174 94.465306 
L 307.370485 94.465306 
L 307.593797 98.690934 
L 307.817109 110.911458 
L 308.04042 112.792826 
L 308.933667 79.230321 
L 309.156978 86.040964 
L 309.603602 65.614087 
L 309.826913 75.623734 
L 310.050225 75.623734 
L 310.273537 60.310674 
L 310.496848 67.9542 
L 310.943472 43.744597 
L 311.166783 54.457891 
L 311.390095 54.161828 
L 311.613407 68.869304 
L 311.836718 102.551734 
L 312.06003 86.040964 
L 312.506653 115.969968 
L 312.729965 105.192057 
L 312.953277 117.61058 
L 313.176588 113.39841 
L 313.623212 135.924644 
L 313.846523 126.816644 
L 314.069835 125.01335 
L 314.293147 144.001762 
L 314.516458 130.26055 
L 314.73977 141.416746 
L 315.633017 162.611888 
L 315.856328 161.534103 
L 316.07964 150.446671 
L 316.302951 156.046147 
L 316.526263 152.426103 
L 316.749575 165.759731 
L 316.972886 162.976716 
L 317.196198 165.759731 
L 317.41951 162.74527 
L 317.642821 183.403593 
L 317.866133 160.863902 
L 318.536068 179.191422 
L 318.75938 179.05804 
L 318.982691 169.851977 
L 319.206003 181.466917 
L 319.429315 183.27021 
L 319.652626 179.354103 
L 319.875938 185.206886 
L 320.09925 184.734685 
L 320.322561 192.5669 
L 320.545873 186.782881 
L 320.769185 207.801885 
L 320.992496 215.94362 
L 321.215808 212.323576 
L 321.43912 200.708636 
L 321.662431 199.806989 
L 321.885743 209.013052 
L 322.109055 193.468547 
L 322.332366 201.906346 
L 322.555678 188.410037 
L 322.778989 208.772296 
L 323.002301 197.453419 
L 323.225613 193.537312 
L 323.448924 198.651129 
L 323.895548 214.569772 
L 324.118859 213.964189 
L 324.342171 207.265066 
L 324.565483 223.303634 
L 324.788794 224.140663 
L 325.012106 238.066418 
L 325.235418 227.141667 
L 325.682041 249.736665 
L 325.905353 242.819554 
L 326.128664 224.866172 
L 326.351976 245.228431 
L 326.575288 233.600034 
L 326.798599 238.593926 
L 327.021911 240.826665 
L 327.245223 224.801554 
L 327.468534 231.79674 
L 327.691846 228.176696 
L 327.915158 242.278588 
L 328.138469 271.924986 
L 328.361781 274.024343 
L 328.585093 261.605819 
L 328.808404 258.591358 
L 329.255028 268.008878 
L 329.478339 261.309756 
L 329.701651 260.408109 
L 329.924962 256.006343 
L 330.148274 254.499112 
L 330.371586 277.94045 
L 330.594897 178.172186 
L 330.818209 167.458892 
L 331.488144 173.715112 
L 331.711456 187.026878 
L 331.934767 191.844633 
L 332.158079 183.836279 
L 332.381391 186.54122 
L 332.604702 184.441863 
L 332.828014 186.54122 
L 333.944572 136.009201 
L 334.614507 160.218803 
L 334.837819 148.899926 
L 335.061131 146.194986 
L 335.507754 161.296588 
L 335.954377 147.096633 
L 336.177689 161.429971 
L 336.401001 165.951662 
L 336.624312 164.873877 
L 336.847624 179.679416 
L 337.070935 176.368892 
L 337.294247 177.270539 
L 337.517559 171.53768 
L 337.964182 185.639573 
L 338.187494 188.357971 
L 338.410805 176.137447 
L 338.857429 183.836279 
L 339.08074 175.531863 
L 339.527364 181.251264 
L 339.750675 182.462431 
L 339.973987 191.372431 
L 340.197299 188.04845 
L 340.42061 175.222343 
L 340.643922 183.364078 
L 340.867234 185.772955 
L 341.090545 196.795769 
L 341.313857 184.737926 
L 341.537169 182.625112 
L 341.76048 191.844633 
L 341.983792 174.496834 
L 342.653727 203.228127 
L 342.877039 202.326481 
L 343.10035 202.636001 
L 343.546973 191.613187 
L 343.770285 207.453756 
L 344.216908 190.041339 
L 344.44022 191.535112 
L 344.663532 194.549573 
L 344.886843 192.879662 
L 345.110155 189.865201 
L 345.333467 188.357971 
L 345.556778 198.169617 
L 345.78009 194.25351 
L 346.003402 187.146803 
L 346.226713 188.357971 
L 346.450025 187.752387 
L 346.673337 181.723465 
L 346.896648 192.746279 
L 347.11996 196.056803 
L 347.343272 202.085725 
L 347.566583 204.198539 
L 347.789895 198.46568 
L 348.236518 161.726034 
L 348.45983 170.636034 
L 348.683142 173.044911 
L 348.906453 160.528324 
L 349.129765 188.654034 
L 349.353077 185.639573 
L 349.576388 201.854279 
L 349.7997 198.839819 
L 350.023012 200.643112 
L 350.246323 209.553112 
L 350.469635 209.257049 
L 350.692946 225.162235 
L 350.916258 220.654001 
L 351.13957 200.523187 
L 351.362881 219.738897 
L 351.809505 228.958418 
L 352.032816 221.851711 
L 352.702751 251.498109 
L 352.926063 251.498109 
L 353.149375 249.990878 
L 353.372686 253.005339 
L 353.595998 237.086696 
L 353.81931 251.794172 
L 354.042621 242.588109 
L 354.489245 268.008878 
L 354.712556 254.67525 
L 354.935868 260.408109 
L 355.15918 260.098588 
L 355.382491 257.689711 
L 355.605803 259.802525 
L 355.829115 251.498109 
L 356.052426 249.990878 
L 356.275738 254.808633 
L 356.49905 246.194696 
L 356.722361 249.81474 
L 357.168984 262.507465 
L 357.392296 263.113049 
L 357.615608 245.76525 
L 357.838919 254.67525 
L 358.062231 245.76525 
L 358.508854 260.76879 
L 358.732166 256.127173 
L 358.955478 254.619943 
L 359.178789 256.127173 
L 359.625413 242.991545 
L 359.848724 247.985438 
L 360.295348 243.597129 
L 360.518659 242.089899 
L 360.741971 231.474668 
L 360.965283 230.573021 
L 361.188594 223.479772 
L 361.411906 232.080252 
L 361.635218 219.859728 
L 361.858529 227.558561 
L 362.081841 239.384958 
L 362.528464 223.775835 
L 362.975088 235.700296 
L 363.198399 224.677482 
L 363.421711 232.981899 
L 363.645023 233.587482 
L 363.868334 237.877728 
L 364.091646 239.075438 
L 364.538269 225.819885 
L 364.761581 220.100484 
L 364.984892 224.016591 
L 365.208204 225.523822 
L 365.431516 215.810238 
L 365.654827 220.937513 
L 366.101451 217.626989 
L 366.324762 220.627992 
L 366.548074 213.830806 
L 366.771386 222.740806 
L 366.994697 224.248037 
L 367.218009 221.83916 
L 367.441321 224.248037 
L 367.664632 237.877728 
L 367.887944 229.375312 
L 368.111256 230.276958 
L 368.334567 232.685835 
L 368.557879 222.874189 
L 368.781191 234.798649 
L 369.004502 221.972542 
L 369.227814 221.972542 
L 369.451126 237.031388 
L 369.674437 242.158663 
L 369.897749 233.544726 
L 370.121061 232.333559 
L 370.344372 240.947496 
L 370.567684 233.248663 
L 370.790995 238.834682 
L 371.014307 240.651433 
L 371.237619 239.440266 
L 371.46093 240.045849 
L 371.684242 230.530266 
L 371.907554 230.706404 
L 372.354177 214.569772 
L 372.8008 235.700296 
L 373.024112 226.480776 
L 373.247424 224.677482 
L 373.470735 226.05133 
L 373.917359 213.225223 
L 374.14067 215.338037 
L 374.363982 209.914699 
L 374.587294 217.450851 
L 374.810605 217.14133 
L 375.033917 219.563665 
L 375.257229 218.648561 
L 375.48054 206.131974 
L 375.703852 218.056434 
L 375.927164 217.14133 
L 376.150475 212.92916 
L 376.373787 217.14133 
L 376.597099 217.450851 
L 376.82041 218.352498 
L 377.043722 218.352498 
L 377.267034 224.85362 
L 377.490345 226.05133 
L 377.713657 183.64759 
L 377.936968 180.337066 
L 378.16028 182.273742 
L 378.383592 182.569805 
L 378.606903 182.569805 
L 378.830215 184.077035 
L 379.053527 190.578158 
L 379.276838 193.120418 
L 379.50015 198.11431 
L 379.723462 198.11431 
L 379.946773 197.332588 
L 380.393397 186.421295 
L 380.616708 201.424834 
L 380.84002 191.613187 
L 381.063332 194.318127 
L 381.286643 188.534109 
L 381.509955 191.613187 
L 381.733267 196.727005 
L 381.956578 188.534109 
L 382.403202 208.355402 
L 382.626513 204.735358 
L 382.849825 197.036525 
L 383.073137 194.627648 
L 383.296448 184.914064 
L 383.51976 200.347049 
L 383.743072 189.731819 
L 383.966383 207.749819 
L 384.189695 195.825358 
L 384.413007 196.134878 
L 384.636318 198.719894 
L 384.85963 191.613187 
L 385.082941 178.58908 
L 385.306253 180.09631 
L 385.529565 173.285667 
L 385.752876 184.012418 
L 385.976188 185.519648 
L 386.1995 199.445402 
L 386.646123 195.529295 
L 386.869435 199.149339 
L 387.316058 181.60354 
L 387.53937 188.89479 
L 387.762681 175.574619 
L 387.985993 179.490726 
L 388.432616 182.569805 
L 388.655928 183.471452 
L 388.87924 178.58908 
L 389.325863 204.615433 
L 389.549175 196.903143 
L 389.772486 197.212663 
L 390.21911 192.381452 
L 390.665733 202.932064 
L 390.889045 203.228127 
L 391.335668 193.296556 
L 391.782291 178.357634 
L 392.005603 189.366991 
L 392.228914 187.267634 
L 392.675538 189.972574 
L 392.898849 191.183742 
L 393.122161 189.972574 
L 393.345473 182.273742 
L 393.568784 193.592619 
L 393.792096 186.485912 
L 394.015408 188.89479 
L 394.238719 187.091496 
L 394.462031 194.494266 
L 394.685343 192.987035 
L 394.908654 193.592619 
L 395.131966 197.212663 
L 395.355278 188.598726 
L 395.578589 189.809894 
L 395.801901 192.810897 
L 396.025213 199.445402 
L 396.248524 193.042343 
L 396.471836 195.45122 
L 396.695148 191.535112 
L 396.918459 191.239049 
L 397.365083 214.074803 
L 397.588394 203.592955 
L 398.035018 217.089264 
L 398.258329 208.179264 
L 398.481641 210.588141 
L 398.704952 211.193725 
L 398.928264 230.895093 
L 399.151576 219.378216 
L 399.374887 222.083157 
L 399.598199 211.975447 
L 399.821511 227.210431 
L 400.044822 216.659819 
L 400.268134 223.964525 
L 400.491446 215.462109 
L 400.938069 225.471756 
L 401.161381 218.772633 
L 401.384692 230.28951 
L 401.608004 235.712848 
L 401.831316 223.88645 
L 402.277939 221.18151 
L 402.501251 221.787093 
L 402.724562 212.567573 
L 402.947874 223.294324 
L 403.171186 225.999264 
L 403.394497 236.008911 
L 403.617809 236.008911 
L 403.841121 232.092803 
L 404.064432 231.191157 
L 404.287744 202.798682 
L 404.511056 200.699325 
L 404.734367 202.502619 
L 404.957679 194.360883 
L 405.18099 198.276991 
L 405.404302 204.976114 
L 405.627614 207.990574 
L 405.850925 224.205281 
L 406.074237 230.234203 
L 406.52086 231.741433 
L 406.744172 211.314556 
L 406.967484 221.422266 
L 407.190795 219.915035 
L 407.414107 219.618972 
L 407.637419 226.614158 
L 407.86073 214.801218 
L 408.084042 211.906682 
L 408.307354 214.019496 
L 408.530665 212.808329 
L 408.753977 221.718329 
L 408.977289 217.033957 
L 409.2006 218.541187 
L 409.423912 217.935604 
L 409.870535 218.541187 
L 410.093847 207.02431 
L 410.317159 206.418726 
L 410.54047 217.033957 
L 410.763782 200.093742 
L 410.987094 209.807325 
L 411.210405 207.088928 
L 411.433717 214.62508 
L 411.657029 211.314556 
L 411.88034 211.314556 
L 412.103652 218.407805 
L 412.326963 220.585237 
L 412.550275 209.673943 
L 412.773587 209.37788 
L 412.996898 203.645021 
L 413.22021 204.856189 
L 413.443522 214.260252 
L 413.890145 203.954542 
L 414.113457 206.131974 
L 414.336768 199.497468 
L 414.56008 205.52639 
L 414.783392 208.23133 
L 415.006703 204.920806 
L 415.676638 213.964189 
L 415.89995 198.651129 
L 416.123262 194.438958 
L 416.346573 207.561129 
L 416.569885 196.551772 
L 416.793197 196.847835 
L 417.016508 192.931728 
L 417.23982 183.527665 
L 417.463132 192.931728 
L 417.686443 180.203683 
L 417.909755 180.809267 
L 418.356378 184.119791 
L 418.57969 174.617665 
L 419.249625 204.074467 
L 419.472936 203.778404 
L 419.696248 203.17282 
L 419.91956 194.670404 
L 420.142871 194.360883 
L 420.366183 202.567237 
L 420.589495 192.261527 
L 420.812806 195.636668 
L 421.036118 196.551772 
L 421.25943 200.763943 
L 421.482741 197.453419 
L 421.706053 205.152252 
L 421.929365 195.636668 
L 422.152676 204.546668 
L 422.375988 203.348958 
L 422.5993 194.735021 
L 422.822611 199.12333 
L 423.269235 183.823728 
L 423.492546 183.527665 
L 423.715858 201.841728 
L 423.93917 186.838189 
L 424.162481 196.242252 
L 424.385793 67.729237 
L 424.609105 68.158682 
L 424.832416 89.191143 
L 425.055728 62.572663 
L 425.27904 72.07479 
L 425.502351 91.303957 
L 425.725663 97.023358 
L 426.395598 83.99925 
L 426.618909 95.516127 
L 426.842221 85.210418 
L 427.065533 99.973201 
L 427.288844 100.578785 
L 427.512156 107.26445 
L 427.735468 98.465971 
L 427.958779 109.003126 
L 428.405403 115.406186 
L 428.628714 112.997309 
L 428.852026 115.096665 
L 429.075338 123.710602 
L 429.298649 124.182803 
L 429.521961 118.287264 
L 429.968584 114.66722 
L 430.191896 116.780034 
L 430.415208 109.081201 
L 430.638519 121.301725 
L 430.861831 109.982848 
L 431.085143 114.504539 
L 431.308454 131.972263 
L 431.531766 134.085077 
L 431.755078 132.281783 
L 431.978389 133.18343 
L 432.201701 131.972263 
L 432.425013 129.189247 
L 432.648324 136.197891 
L 432.871636 136.790017 
L 433.318259 147.044567 
L 433.541571 146.438983 
L 433.764882 146.438983 
L 434.211506 130.696478 
L 434.434817 141.917292 
L 434.658129 138.606768 
L 434.881441 149.320061 
L 435.328064 157.44834 
L 435.551376 164.688428 
L 435.774687 175.535104 
L 435.997999 166.195659 
L 436.221311 168.295015 
L 436.444622 162.708997 
L 436.667934 160.596183 
L 436.891246 162.103413 
L 437.114557 170.111766 
L 437.337869 183.839521 
L 437.561181 178.549565 
L 437.784492 181.550568 
L 438.007804 198.130103 
L 438.231116 203.420058 
L 438.454427 192.101181 
L 438.901051 209.985799 
L 439.124362 206.808657 
L 439.347674 219.325244 
L 439.570985 219.930828 
L 439.794297 208.315888 
L 440.017609 220.536412 
L 440.24092 217.655333 
L 440.464232 220.965857 
L 440.687544 236.200842 
L 440.910855 229.699719 
L 441.134167 217.577258 
L 441.357479 219.394009 
L 441.58079 223.078671 
L 441.804102 210.350627 
L 442.027414 208.547333 
L 442.250725 205.532872 
L 442.474037 196.918935 
L 442.697349 199.800014 
L 443.143972 194.213995 
L 443.367284 189.396241 
L 443.590595 200.405598 
L 443.813907 189.692304 
L 444.037219 196.48949 
L 444.26053 211.020828 
L 444.483842 200.405598 
L 444.707154 204.321705 
L 444.930465 196.48949 
L 445.153777 210.119181 
L 445.377089 210.724765 
L 445.6004 191.066152 
L 445.823712 191.671736 
L 446.047024 199.878089 
L 446.270335 201.307244 
L 446.716958 209.513598 
L 446.94027 200.109534 
L 447.163582 195.587843 
L 447.386893 204.39978 
L 447.610205 193.475029 
L 447.833517 190.164505 
L 448.056828 190.164505 
L 448.28014 184.741167 
L 448.503452 184.135584 
L 448.726763 181.726707 
L 448.950075 198.237476 
L 449.173387 205.773628 
L 449.396698 194.750814 
L 449.62001 199.272505 
L 450.066633 196.863628 
L 450.289945 207.886442 
L 450.513257 193.553104 
L 450.736568 201.561457 
L 450.95988 193.849167 
L 451.183192 192.045874 
L 451.406503 212.528058 
L 451.629815 202.518412 
L 451.853127 206.808657 
L 452.076438 204.695843 
L 452.29975 199.800014 
L 452.523062 201.075799 
L 452.969685 224.826657 
L 453.192996 220.601029 
L 453.416308 221.206613 
L 453.63962 219.093799 
L 453.862931 238.124966 
L 454.532866 211.867167 
L 454.756178 219.269937 
L 454.97949 217.762707 
L 455.202801 202.153584 
L 455.426113 206.069691 
L 455.649425 219.093799 
L 455.872736 214.585565 
L 456.096048 219.093799 
L 456.31936 209.985799 
L 456.542671 208.478568 
L 456.765983 199.878089 
L 456.989295 200.779736 
L 457.212606 202.286966 
L 457.435918 205.301427 
L 457.65923 204.09026 
L 457.882541 213.00026 
L 458.105853 216.01472 
L 458.552476 196.48949 
L 458.775788 206.203074 
L 459.222411 202.286966 
L 459.445723 203.498133 
L 459.669035 201.990903 
L 459.892346 214.81701 
L 460.115658 208.315888 
L 460.338969 219.029181 
L 460.562281 216.01472 
L 460.785593 209.985799 
L 461.008904 209.393673 
L 461.232216 204.266398 
L 461.455528 210.965521 
L 461.678839 207.049413 
L 461.902151 205.24612 
L 462.125463 202.527722 
L 462.348774 194.926952 
L 462.795398 191.075462 
L 463.018709 196.202737 
L 463.242021 207.993816 
L 463.465333 209.930491 
L 463.688644 215.66335 
L 463.911956 226.067123 
L 464.135268 230.962952 
L 464.358579 223.06612 
L 464.581891 227.828567 
L 464.805203 218.609046 
L 465.028514 237.640213 
L 465.251826 235.055198 
L 465.698449 273.598138 
L 465.921761 262.279261 
L 466.145073 260.905413 
L 466.591696 269.815413 
L 466.815008 268.308183 
L 467.038319 271.322643 
L 467.261631 285.952044 
L 467.484942 292.045584 
L 467.708254 291.143937 
L 467.931566 272.520353 
L 468.601501 288.73506 
L 468.824812 274.027584 
L 469.048124 282.035937 
L 469.271436 271.618707 
L 469.718059 276.436461 
L 469.941371 285.346461 
L 470.164682 284.444814 
L 470.387994 282.035937 
L 470.611306 277.351565 
L 470.834617 298.370568 
L 471.057929 298.370568 
L 471.281241 297.468922 
L 471.504552 300.792903 
L 471.727864 212.944952 
L 471.951176 217.762707 
L 472.397799 200.35029 
L 472.621111 192.947521 
L 472.844422 191.736353 
L 473.067734 175.225584 
L 473.291046 173.718353 
L 473.737669 192.651457 
L 473.96098 193.553104 
L 474.184292 192.045874 
L 474.407604 193.553104 
L 474.630915 192.947521 
L 474.854227 195.060335 
L 475.077539 179.451212 
L 475.30085 172.048442 
L 475.524162 181.254505 
L 475.747474 201.011181 
L 475.970785 201.011181 
L 476.194097 193.904475 
L 476.417409 193.904475 
L 476.64072 198.898367 
L 476.864032 193.312348 
L 477.087344 195.115642 
L 477.310655 200.715118 
L 477.533967 188.790657 
L 477.757279 187.88901 
L 477.98059 188.185074 
L 478.203902 185.170613 
L 478.427214 184.268966 
L 478.650525 177.47178 
L 478.873837 193.002828 
L 479.097149 188.185074 
L 479.32046 177.999289 
L 479.543772 177.097642 
L 480.213707 202.342273 
L 480.437019 202.651794 
L 480.66033 208.547333 
L 480.883642 219.458627 
L 481.106953 207.336166 
L 481.330265 216.753686 
L 481.553577 215.838582 
L 481.776888 207.941749 
L 482.0002 208.237813 
L 482.223512 202.518412 
L 482.446823 193.312348 
L 482.670135 201.011181 
L 482.893447 204.025642 
L 483.116758 200.715118 
L 483.34007 202.222348 
L 483.563382 205.532872 
L 483.786693 210.95621 
L 484.010005 223.078671 
L 484.233317 216.675611 
L 484.67994 233.319763 
L 484.903252 230.009239 
L 485.126563 219.217871 
L 485.349875 240.009576 
L 485.573187 240.305639 
L 485.796498 233.684591 
L 486.01981 238.502345 
L 486.243122 237.171253 
L 486.466433 226.754023 
L 486.689745 233.551209 
L 486.913057 220.415581 
L 487.136368 232.769487 
L 487.35968 220.725101 
L 487.582991 230.36061 
L 487.806303 227.951733 
L 488.029615 211.815101 
L 488.476238 235.664023 
L 488.69955 219.823454 
L 488.922861 229.325581 
L 489.146173 217.71064 
L 489.369485 214.69618 
L 489.592796 229.029518 
L 489.816108 231.812533 
L 490.262731 215.301763 
L 490.709355 214.69618 
L 490.932666 218.921808 
L 491.155978 205.78618 
L 491.37929 210.484009 
L 491.602601 211.385656 
L 491.825913 210.307871 
L 492.049225 213.618395 
L 492.495848 228.423934 
L 492.71916 215.125625 
L 493.165783 219.217871 
L 493.389095 217.71064 
L 493.612406 222.40847 
L 493.835718 223.133978 
L 494.05903 218.006704 
L 494.282341 219.217871 
L 494.505653 208.667258 
L 494.728964 210.95621 
L 494.952276 206.434519 
L 495.175588 207.941749 
L 495.622211 201.307244 
L 495.845523 217.655333 
L 496.068834 207.941749 
L 496.292146 205.532872 
L 496.515458 192.397244 
L 496.738769 212.463441 
L 496.962081 204.025642 
L 497.185393 201.144564 
L 497.408704 204.159024 
L 497.632016 198.426166 
L 497.855328 212.759504 
L 498.078639 203.24392 
L 498.525263 197.348381 
L 498.748574 186.437087 
L 498.971886 197.348381 
L 499.195198 187.634797 
L 499.418509 190.649258 
L 499.641821 186.141024 
L 499.865133 178.724797 
L 500.088444 193.741794 
L 500.311756 192.234564 
L 500.535068 192.234564 
L 500.758379 182.817043 
L 500.981691 183.126564 
L 501.205003 182.817043 
L 501.428314 184.02821 
L 501.651626 181.147132 
L 501.874937 181.443195 
L 502.098249 168.321024 
L 502.321561 172.829258 
L 502.544872 174.336488 
L 502.768184 174.336488 
L 502.991496 172.829258 
L 503.214807 177.350949 
L 503.438119 172.829258 
L 503.661431 180.837611 
L 503.884742 182.048779 
L 504.108054 176.745366 
L 504.331366 162.523548 
L 505.001301 193.367656 
L 505.224612 186.57047 
L 505.447924 183.246488 
L 505.671236 185.655366 
L 505.894547 177.350949 
L 506.117859 178.252596 
L 506.341171 186.866533 
L 506.564482 181.267057 
L 506.787794 188.669826 
L 507.011106 186.57047 
L 507.234417 204.819915 
L 507.457729 189.27541 
L 507.681041 195.776533 
L 507.904352 196.382117 
L 508.127664 194.269302 
L 508.350975 185.655366 
L 508.574287 167.637366 
L 508.797599 165.228488 
L 509.02091 165.538009 
L 509.244222 149.521302 
L 509.690845 168.55247 
L 509.914157 170.046243 
L 510.137469 162.051347 
L 510.36078 170.651826 
L 510.584092 168.848533 
L 511.030715 144.033347 
L 511.254027 145.540577 
L 511.477339 150.73247 
L 511.923962 114.992533 
L 512.370585 96.67847 
L 512.817209 114.992533 
L 513.04052 158.135239 
L 513.487144 142.216596 
L 513.710455 152.535763 
L 513.933767 142.82218 
L 514.157079 141.920533 
L 514.38039 143.723826 
L 514.603702 143.723826 
L 514.827014 135.123347 
L 515.050325 135.123347 
L 515.273637 126.31141 
L 515.496948 124.80418 
L 516.166883 95.171239 
L 516.390195 105.476949 
L 516.613507 124.80418 
L 516.836818 115.288596 
L 517.06013 125.409763 
L 517.283442 125.100243 
L 517.506753 125.100243 
L 517.730065 124.80418 
L 517.953377 124.80418 
L 518.176688 107.280243 
L 518.4 115.89418 
L 518.4 115.89418 
" style="fill:none;stroke:#4c72b0;stroke-linecap:round;stroke-width:1.75;"/>
   </g>
   <g id="patch_3">
    <path d="M 72 356.4 
L 518.4 356.4 
" style="fill:none;"/>
   </g>
   <g id="patch_4">
    <path d="M 72 39.6 
L 518.4 39.6 
" style="fill:none;"/>
   </g>
   <g id="patch_5">
    <path d="M 72 356.4 
L 72 39.6 
" style="fill:none;"/>
   </g>
   <g id="patch_6">
    <path d="M 518.4 356.4 
L 518.4 39.6 
" style="fill:none;"/>
   </g>
   <g id="text_15">
    <!-- j - 0.0679667385229743 * IF -->
    <defs>
     <path d="M 9.125 0 
L 9.125 10.6875 
L 18.65625 10.6875 
L 18.65625 0 
z
" id="LiberationSans-2e"/>
     <path d="M 6.6875 64.0625 
L 6.6875 72.46875 
L 15.484375 72.46875 
L 15.484375 64.0625 
z
M 15.484375 -6.546875 
Q 15.484375 -9.578125 14.96875 -12.15625 
Q 14.453125 -14.75 13.125 -16.65625 
Q 11.8125 -18.5625 9.546875 -19.65625 
Q 7.28125 -20.75 3.765625 -20.75 
Q 2.09375 -20.75 0.5 -20.65625 
Q -1.078125 -20.5625 -2.4375 -20.3125 
L -2.4375 -13.53125 
Q -1.8125 -13.625 -0.921875 -13.71875 
Q -0.046875 -13.8125 0.59375 -13.8125 
Q 2.4375 -13.8125 3.625 -13.328125 
Q 4.828125 -12.84375 5.515625 -11.796875 
Q 6.203125 -10.75 6.4375 -9.109375 
Q 6.6875 -7.46875 6.6875 -5.21875 
L 6.6875 52.828125 
L 15.484375 52.828125 
z
" id="LiberationSans-6a"/>
     <path d="M 9.234375 0 
L 9.234375 68.796875 
L 18.5625 68.796875 
L 18.5625 0 
z
" id="LiberationSans-49"/>
     <path d="M 17.53125 61.1875 
L 17.53125 35.59375 
L 55.90625 35.59375 
L 55.90625 27.875 
L 17.53125 27.875 
L 17.53125 0 
L 8.203125 0 
L 8.203125 68.796875 
L 57.078125 68.796875 
L 57.078125 61.1875 
z
" id="LiberationSans-46"/>
     <path d="M 22.265625 54.390625 
L 35.15625 59.421875 
L 37.359375 52.984375 
L 23.578125 49.421875 
L 32.625 37.203125 
L 26.8125 33.6875 
L 19.484375 46.296875 
L 11.859375 33.796875 
L 6.0625 37.3125 
L 15.28125 49.421875 
L 1.609375 52.984375 
L 3.8125 59.515625 
L 16.84375 54.296875 
L 16.265625 68.796875 
L 22.90625 68.796875 
z
" id="LiberationSans-2a"/>
    </defs>
    <g style="fill:#262626;" transform="translate(219.14625 34.6)scale(0.12 -0.12)">
     <use xlink:href="#LiberationSans-6a"/>
     <use x="22.216796875" xlink:href="#LiberationSans-20"/>
     <use x="50.0" xlink:href="#LiberationSans-2d"/>
     <use x="83.30078125" xlink:href="#LiberationSans-20"/>
     <use x="111.083984375" xlink:href="#LiberationSans-30"/>
     <use x="166.69921875" xlink:href="#LiberationSans-2e"/>
     <use x="194.482421875" xlink:href="#LiberationSans-30"/>
     <use x="250.09765625" xlink:href="#LiberationSans-36"/>
     <use x="305.712890625" xlink:href="#LiberationSans-37"/>
     <use x="361.328125" xlink:href="#LiberationSans-39"/>
     <use x="416.943359375" xlink:href="#LiberationSans-36"/>
     <use x="472.55859375" xlink:href="#LiberationSans-36"/>
     <use x="528.173828125" xlink:href="#LiberationSans-37"/>
     <use x="583.7890625" xlink:href="#LiberationSans-33"/>
     <use x="639.404296875" xlink:href="#LiberationSans-38"/>
     <use x="695.01953125" xlink:href="#LiberationSans-35"/>
     <use x="750.634765625" xlink:href="#LiberationSans-32"/>
     <use x="806.25" xlink:href="#LiberationSans-32"/>
     <use x="861.865234375" xlink:href="#LiberationSans-39"/>
     <use x="917.48046875" xlink:href="#LiberationSans-37"/>
     <use x="973.095703125" xlink:href="#LiberationSans-34"/>
     <use x="1028.7109375" xlink:href="#LiberationSans-33"/>
     <use x="1084.326171875" xlink:href="#LiberationSans-20"/>
     <use x="1112.109375" xlink:href="#LiberationSans-2a"/>
     <use x="1151.025390625" xlink:href="#LiberationSans-20"/>
     <use x="1178.80859375" xlink:href="#LiberationSans-49"/>
     <use x="1206.591796875" xlink:href="#LiberationSans-46"/>
    </g>
   </g>
  </g>
 </g>
 <defs>
  <clipPath id="p6a3aeb176e">
   <rect height="316.8" width="446.4" x="72.0" y="39.6"/>
  </clipPath>
 </defs>
</svg>
