<?xml version="1.0" encoding="utf-8" standalone="no"?>
<!DOCTYPE svg PUBLIC "-//W3C//DTD SVG 1.1//EN"
  "http://www.w3.org/Graphics/SVG/1.1/DTD/svg11.dtd">
<!-- Created with matplotlib (http://matplotlib.org/) -->
<svg height="396pt" version="1.1" viewBox="0 0 576 396" width="576pt" xmlns="http://www.w3.org/2000/svg" xmlns:xlink="http://www.w3.org/1999/xlink">
 <defs>
  <style type="text/css">
*{stroke-linecap:butt;stroke-linejoin:round;stroke-miterlimit:100000;}
  </style>
 </defs>
 <g id="figure_1">
  <g id="patch_1">
   <path d="M 0 396 
L 576 396 
L 576 0 
L 0 0 
z
" style="fill:#ffffff;"/>
  </g>
  <g id="axes_1">
   <g id="patch_2">
    <path d="M 72 356.4 
L 518.4 356.4 
L 518.4 39.6 
L 72 39.6 
z
" style="fill:#eaeaf2;"/>
   </g>
   <g id="matplotlib.axis_1">
    <g id="xtick_1">
     <g id="line2d_1">
      <path clip-path="url(#p145262b825)" d="M 72 356.4 
L 72 39.6 
" style="fill:none;stroke:#ffffff;stroke-linecap:round;"/>
     </g>
     <g id="line2d_2"/>
     <g id="line2d_3"/>
     <g id="text_1">
      <!-- 2016-09-27 09:26:00 -->
      <defs>
       <path d="M 5.03125 0 
L 5.03125 6.203125 
Q 7.515625 11.921875 11.109375 16.28125 
Q 14.703125 20.65625 18.65625 24.1875 
Q 22.609375 27.734375 26.484375 30.765625 
Q 30.375 33.796875 33.5 36.8125 
Q 36.625 39.84375 38.546875 43.15625 
Q 40.484375 46.484375 40.484375 50.6875 
Q 40.484375 53.609375 39.59375 55.828125 
Q 38.71875 58.0625 37.0625 59.5625 
Q 35.40625 61.078125 33.078125 61.828125 
Q 30.765625 62.59375 27.9375 62.59375 
Q 25.296875 62.59375 22.96875 61.859375 
Q 20.65625 61.140625 18.84375 59.671875 
Q 17.046875 58.203125 15.890625 56.03125 
Q 14.75 53.859375 14.40625 50.984375 
L 5.421875 51.8125 
Q 5.859375 55.515625 7.46875 58.78125 
Q 9.078125 62.0625 11.90625 64.53125 
Q 14.75 67 18.71875 68.40625 
Q 22.703125 69.828125 27.9375 69.828125 
Q 33.0625 69.828125 37.0625 68.609375 
Q 41.0625 67.390625 43.8125 64.984375 
Q 46.578125 62.59375 48.046875 59.078125 
Q 49.515625 55.5625 49.515625 50.984375 
Q 49.515625 47.515625 48.265625 44.390625 
Q 47.015625 41.265625 44.9375 38.421875 
Q 42.875 35.59375 40.140625 32.953125 
Q 37.40625 30.328125 34.421875 27.8125 
Q 31.453125 25.296875 28.421875 22.828125 
Q 25.390625 20.359375 22.71875 17.859375 
Q 20.0625 15.375 17.96875 12.8125 
Q 15.875 10.25 14.703125 7.46875 
L 50.59375 7.46875 
L 50.59375 0 
z
" id="LiberationSans-32"/>
       <path d="M 7.625 0 
L 7.625 7.46875 
L 25.140625 7.46875 
L 25.140625 60.40625 
L 9.625 49.3125 
L 9.625 57.625 
L 25.875 68.796875 
L 33.984375 68.796875 
L 33.984375 7.46875 
L 50.734375 7.46875 
L 50.734375 0 
z
" id="LiberationSans-31"/>
       <path d="M 51.703125 34.421875 
Q 51.703125 24.515625 49.828125 17.75 
Q 47.953125 10.984375 44.703125 6.8125 
Q 41.453125 2.640625 37.0625 0.828125 
Q 32.671875 -0.984375 27.6875 -0.984375 
Q 22.65625 -0.984375 18.3125 0.828125 
Q 13.96875 2.640625 10.765625 6.78125 
Q 7.5625 10.9375 5.734375 17.703125 
Q 3.90625 24.46875 3.90625 34.421875 
Q 3.90625 44.828125 5.734375 51.640625 
Q 7.5625 58.453125 10.78125 62.5 
Q 14.015625 66.546875 18.40625 68.1875 
Q 22.796875 69.828125 27.984375 69.828125 
Q 32.90625 69.828125 37.21875 68.1875 
Q 41.546875 66.546875 44.765625 62.5 
Q 48 58.453125 49.84375 51.640625 
Q 51.703125 44.828125 51.703125 34.421875 
M 42.78125 34.421875 
Q 42.78125 42.625 41.796875 48.0625 
Q 40.828125 53.515625 38.921875 56.765625 
Q 37.015625 60.015625 34.25 61.359375 
Q 31.5 62.703125 27.984375 62.703125 
Q 24.265625 62.703125 21.4375 61.328125 
Q 18.609375 59.96875 16.671875 56.71875 
Q 14.75 53.46875 13.765625 48.015625 
Q 12.796875 42.578125 12.796875 34.421875 
Q 12.796875 26.515625 13.796875 21.09375 
Q 14.796875 15.671875 16.71875 12.375 
Q 18.65625 9.078125 21.4375 7.640625 
Q 24.21875 6.203125 27.78125 6.203125 
Q 31.25 6.203125 34.03125 7.640625 
Q 36.8125 9.078125 38.734375 12.375 
Q 40.671875 15.671875 41.71875 21.09375 
Q 42.78125 26.515625 42.78125 34.421875 
" id="LiberationSans-30"/>
       <path d="M 50.875 35.796875 
Q 50.875 26.609375 49.140625 19.703125 
Q 47.40625 12.796875 44.1875 8.203125 
Q 40.96875 3.609375 36.34375 1.3125 
Q 31.734375 -0.984375 25.984375 -0.984375 
Q 22.015625 -0.984375 18.84375 -0.171875 
Q 15.671875 0.640625 13.171875 2.34375 
Q 10.6875 4.046875 8.921875 6.78125 
Q 7.171875 9.515625 6.109375 13.375 
L 14.5 14.703125 
Q 15.875 10.25 18.78125 8.171875 
Q 21.6875 6.109375 26.125 6.109375 
Q 29.6875 6.109375 32.640625 7.78125 
Q 35.59375 9.46875 37.671875 12.84375 
Q 39.75 16.21875 40.921875 21.296875 
Q 42.09375 26.375 42.1875 33.203125 
Q 41.15625 30.90625 39.375 29.09375 
Q 37.59375 27.296875 35.328125 26.046875 
Q 33.0625 24.8125 30.421875 24.140625 
Q 27.78125 23.484375 25.09375 23.484375 
Q 20.40625 23.484375 16.625 25.171875 
Q 12.84375 26.859375 10.203125 29.875 
Q 7.5625 32.90625 6.125 37.171875 
Q 4.6875 41.453125 4.6875 46.6875 
Q 4.6875 52 6.21875 56.296875 
Q 7.765625 60.59375 10.6875 63.59375 
Q 13.625 66.609375 17.890625 68.21875 
Q 22.171875 69.828125 27.59375 69.828125 
Q 39.0625 69.828125 44.96875 61.328125 
Q 50.875 52.828125 50.875 35.796875 
M 41.3125 44.28125 
Q 41.3125 48.09375 40.40625 51.453125 
Q 39.5 54.828125 37.71875 57.3125 
Q 35.9375 59.8125 33.328125 61.25 
Q 30.71875 62.703125 27.296875 62.703125 
Q 24.125 62.703125 21.578125 61.578125 
Q 19.046875 60.453125 17.28125 58.375 
Q 15.53125 56.296875 14.578125 53.3125 
Q 13.625 50.34375 13.625 46.6875 
Q 13.625 43.21875 14.46875 40.234375 
Q 15.328125 37.25 17.03125 35.078125 
Q 18.75 32.90625 21.28125 31.65625 
Q 23.828125 30.421875 27.203125 30.421875 
Q 29.640625 30.421875 32.15625 31.25 
Q 34.671875 32.078125 36.6875 33.78125 
Q 38.71875 35.5 40.015625 38.109375 
Q 41.3125 40.71875 41.3125 44.28125 
" id="LiberationSans-39"/>
       <path d="M 9.125 42.71875 
L 9.125 52.828125 
L 18.65625 52.828125 
L 18.65625 42.71875 
z
M 9.125 0 
L 9.125 10.109375 
L 18.65625 10.109375 
L 18.65625 0 
z
" id="LiberationSans-3a"/>
       <path d="M 50.59375 61.671875 
Q 45.40625 53.765625 41.0625 46.453125 
Q 36.71875 39.15625 33.59375 31.75 
Q 30.46875 24.359375 28.734375 16.578125 
Q 27 8.796875 27 0 
L 17.828125 0 
Q 17.828125 8.25 19.78125 16.1875 
Q 21.734375 24.125 25.046875 31.765625 
Q 28.375 39.40625 32.765625 46.78125 
Q 37.15625 54.15625 42.09375 61.328125 
L 5.125 61.328125 
L 5.125 68.796875 
L 50.59375 68.796875 
z
" id="LiberationSans-37"/>
       <path id="LiberationSans-20"/>
       <path d="M 4.4375 22.65625 
L 4.4375 30.46875 
L 28.859375 30.46875 
L 28.859375 22.65625 
z
" id="LiberationSans-2d"/>
       <path d="M 51.21875 22.515625 
Q 51.21875 17.328125 49.78125 13 
Q 48.34375 8.6875 45.53125 5.578125 
Q 42.71875 2.484375 38.5625 0.75 
Q 34.421875 -0.984375 29 -0.984375 
Q 23 -0.984375 18.5 1.3125 
Q 14.015625 3.609375 11.03125 7.921875 
Q 8.0625 12.25 6.5625 18.53125 
Q 5.078125 24.8125 5.078125 32.8125 
Q 5.078125 42 6.765625 48.921875 
Q 8.453125 55.859375 11.625 60.5 
Q 14.796875 65.140625 19.359375 67.484375 
Q 23.921875 69.828125 29.6875 69.828125 
Q 33.203125 69.828125 36.28125 69.09375 
Q 39.359375 68.359375 41.875 66.71875 
Q 44.390625 65.09375 46.28125 62.40625 
Q 48.1875 59.71875 49.3125 55.8125 
L 40.921875 54.296875 
Q 39.546875 58.734375 36.546875 60.71875 
Q 33.546875 62.703125 29.59375 62.703125 
Q 25.984375 62.703125 23.046875 60.984375 
Q 20.125 59.28125 18.0625 55.875 
Q 16.015625 52.484375 14.90625 47.359375 
Q 13.8125 42.234375 13.8125 35.40625 
Q 16.21875 39.84375 20.5625 42.15625 
Q 24.90625 44.484375 30.515625 44.484375 
Q 35.203125 44.484375 39.015625 42.96875 
Q 42.828125 41.453125 45.53125 38.59375 
Q 48.25 35.75 49.734375 31.671875 
Q 51.21875 27.59375 51.21875 22.515625 
M 42.28125 22.125 
Q 42.28125 25.6875 41.40625 28.5625 
Q 40.53125 31.453125 38.765625 33.46875 
Q 37.015625 35.5 34.421875 36.59375 
Q 31.84375 37.703125 28.421875 37.703125 
Q 26.03125 37.703125 23.578125 36.984375 
Q 21.140625 36.28125 19.15625 34.6875 
Q 17.1875 33.109375 15.9375 30.515625 
Q 14.703125 27.9375 14.703125 24.21875 
Q 14.703125 20.40625 15.671875 17.109375 
Q 16.65625 13.8125 18.484375 11.375 
Q 20.3125 8.9375 22.890625 7.515625 
Q 25.484375 6.109375 28.71875 6.109375 
Q 31.890625 6.109375 34.40625 7.203125 
Q 36.921875 8.296875 38.671875 10.375 
Q 40.4375 12.453125 41.359375 15.421875 
Q 42.28125 18.40625 42.28125 22.125 
" id="LiberationSans-36"/>
      </defs>
      <g style="fill:#262626;" transform="translate(25.5765625 370.646875)scale(0.1 -0.1)">
       <use xlink:href="#LiberationSans-32"/>
       <use x="55.615234375" xlink:href="#LiberationSans-30"/>
       <use x="111.23046875" xlink:href="#LiberationSans-31"/>
       <use x="166.845703125" xlink:href="#LiberationSans-36"/>
       <use x="222.4609375" xlink:href="#LiberationSans-2d"/>
       <use x="255.76171875" xlink:href="#LiberationSans-30"/>
       <use x="311.376953125" xlink:href="#LiberationSans-39"/>
       <use x="366.9921875" xlink:href="#LiberationSans-2d"/>
       <use x="400.29296875" xlink:href="#LiberationSans-32"/>
       <use x="455.908203125" xlink:href="#LiberationSans-37"/>
       <use x="511.5234375" xlink:href="#LiberationSans-20"/>
       <use x="539.306640625" xlink:href="#LiberationSans-30"/>
       <use x="594.921875" xlink:href="#LiberationSans-39"/>
       <use x="650.537109375" xlink:href="#LiberationSans-3a"/>
       <use x="678.3203125" xlink:href="#LiberationSans-32"/>
       <use x="733.935546875" xlink:href="#LiberationSans-36"/>
       <use x="789.55078125" xlink:href="#LiberationSans-3a"/>
       <use x="817.333984375" xlink:href="#LiberationSans-30"/>
       <use x="872.94921875" xlink:href="#LiberationSans-30"/>
      </g>
     </g>
    </g>
    <g id="xtick_2">
     <g id="line2d_4">
      <path clip-path="url(#p145262b825)" d="M 183.655828 356.4 
L 183.655828 39.6 
" style="fill:none;stroke:#ffffff;stroke-linecap:round;"/>
     </g>
     <g id="line2d_5"/>
     <g id="line2d_6"/>
     <g id="text_2">
      <!-- 2016-09-29 10:31:00 -->
      <defs>
       <path d="M 51.21875 19 
Q 51.21875 14.265625 49.671875 10.546875 
Q 48.140625 6.84375 45.1875 4.265625 
Q 42.234375 1.703125 37.859375 0.359375 
Q 33.5 -0.984375 27.875 -0.984375 
Q 21.484375 -0.984375 17.109375 0.609375 
Q 12.75 2.203125 9.90625 4.8125 
Q 7.078125 7.421875 5.65625 10.765625 
Q 4.25 14.109375 3.8125 17.671875 
L 12.890625 18.5 
Q 13.28125 15.765625 14.328125 13.515625 
Q 15.375 11.28125 17.1875 9.671875 
Q 19 8.0625 21.625 7.171875 
Q 24.265625 6.296875 27.875 6.296875 
Q 34.515625 6.296875 38.296875 9.5625 
Q 42.09375 12.84375 42.09375 19.28125 
Q 42.09375 23.09375 40.40625 25.40625 
Q 38.71875 27.734375 36.203125 29.03125 
Q 33.6875 30.328125 30.734375 30.765625 
Q 27.78125 31.203125 25.296875 31.203125 
L 20.3125 31.203125 
L 20.3125 38.8125 
L 25.09375 38.8125 
Q 27.59375 38.8125 30.265625 39.328125 
Q 32.953125 39.84375 35.171875 41.1875 
Q 37.40625 42.53125 38.84375 44.828125 
Q 40.28125 47.125 40.28125 50.6875 
Q 40.28125 56.203125 37.03125 59.390625 
Q 33.796875 62.59375 27.390625 62.59375 
Q 21.578125 62.59375 17.984375 59.609375 
Q 14.40625 56.640625 13.8125 51.21875 
L 4.984375 51.90625 
Q 5.515625 56.453125 7.46875 59.8125 
Q 9.421875 63.1875 12.421875 65.40625 
Q 15.4375 67.625 19.28125 68.71875 
Q 23.140625 69.828125 27.484375 69.828125 
Q 33.25 69.828125 37.390625 68.375 
Q 41.546875 66.9375 44.1875 64.46875 
Q 46.828125 62.015625 48.0625 58.6875 
Q 49.3125 55.375 49.3125 51.609375 
Q 49.3125 48.578125 48.484375 45.9375 
Q 47.65625 43.3125 45.890625 41.203125 
Q 44.140625 39.109375 41.421875 37.59375 
Q 38.71875 36.078125 34.90625 35.296875 
L 34.90625 35.109375 
Q 39.0625 34.671875 42.140625 33.21875 
Q 45.21875 31.78125 47.21875 29.625 
Q 49.21875 27.484375 50.21875 24.75 
Q 51.21875 22.015625 51.21875 19 
" id="LiberationSans-33"/>
      </defs>
      <g style="fill:#262626;" transform="translate(137.232390414 370.646875)scale(0.1 -0.1)">
       <use xlink:href="#LiberationSans-32"/>
       <use x="55.615234375" xlink:href="#LiberationSans-30"/>
       <use x="111.23046875" xlink:href="#LiberationSans-31"/>
       <use x="166.845703125" xlink:href="#LiberationSans-36"/>
       <use x="222.4609375" xlink:href="#LiberationSans-2d"/>
       <use x="255.76171875" xlink:href="#LiberationSans-30"/>
       <use x="311.376953125" xlink:href="#LiberationSans-39"/>
       <use x="366.9921875" xlink:href="#LiberationSans-2d"/>
       <use x="400.29296875" xlink:href="#LiberationSans-32"/>
       <use x="455.908203125" xlink:href="#LiberationSans-39"/>
       <use x="511.5234375" xlink:href="#LiberationSans-20"/>
       <use x="539.306640625" xlink:href="#LiberationSans-31"/>
       <use x="594.921875" xlink:href="#LiberationSans-30"/>
       <use x="650.537109375" xlink:href="#LiberationSans-3a"/>
       <use x="678.3203125" xlink:href="#LiberationSans-33"/>
       <use x="733.935546875" xlink:href="#LiberationSans-31"/>
       <use x="789.55078125" xlink:href="#LiberationSans-3a"/>
       <use x="817.333984375" xlink:href="#LiberationSans-30"/>
       <use x="872.94921875" xlink:href="#LiberationSans-30"/>
      </g>
     </g>
    </g>
    <g id="xtick_3">
     <g id="line2d_7">
      <path clip-path="url(#p145262b825)" d="M 295.311656 356.4 
L 295.311656 39.6 
" style="fill:none;stroke:#ffffff;stroke-linecap:round;"/>
     </g>
     <g id="line2d_8"/>
     <g id="line2d_9"/>
     <g id="text_3">
      <!-- 2016-10-10 11:20:00 -->
      <g style="fill:#262626;" transform="translate(248.888218328 370.646875)scale(0.1 -0.1)">
       <use xlink:href="#LiberationSans-32"/>
       <use x="55.615234375" xlink:href="#LiberationSans-30"/>
       <use x="111.23046875" xlink:href="#LiberationSans-31"/>
       <use x="166.845703125" xlink:href="#LiberationSans-36"/>
       <use x="222.4609375" xlink:href="#LiberationSans-2d"/>
       <use x="255.76171875" xlink:href="#LiberationSans-31"/>
       <use x="311.376953125" xlink:href="#LiberationSans-30"/>
       <use x="366.9921875" xlink:href="#LiberationSans-2d"/>
       <use x="400.29296875" xlink:href="#LiberationSans-31"/>
       <use x="455.908203125" xlink:href="#LiberationSans-30"/>
       <use x="511.5234375" xlink:href="#LiberationSans-20"/>
       <use x="539.306640625" xlink:href="#LiberationSans-31"/>
       <use x="594.921875" xlink:href="#LiberationSans-31"/>
       <use x="650.537109375" xlink:href="#LiberationSans-3a"/>
       <use x="678.3203125" xlink:href="#LiberationSans-32"/>
       <use x="733.935546875" xlink:href="#LiberationSans-30"/>
       <use x="789.55078125" xlink:href="#LiberationSans-3a"/>
       <use x="817.333984375" xlink:href="#LiberationSans-30"/>
       <use x="872.94921875" xlink:href="#LiberationSans-30"/>
      </g>
     </g>
    </g>
    <g id="xtick_4">
     <g id="line2d_10">
      <path clip-path="url(#p145262b825)" d="M 406.967484 356.4 
L 406.967484 39.6 
" style="fill:none;stroke:#ffffff;stroke-linecap:round;"/>
     </g>
     <g id="line2d_11"/>
     <g id="line2d_12"/>
     <g id="text_4">
      <!-- 2016-10-12 14:10:00 -->
      <defs>
       <path d="M 43.015625 15.578125 
L 43.015625 0 
L 34.71875 0 
L 34.71875 15.578125 
L 2.296875 15.578125 
L 2.296875 22.40625 
L 33.796875 68.796875 
L 43.015625 68.796875 
L 43.015625 22.515625 
L 52.6875 22.515625 
L 52.6875 15.578125 
z
M 34.71875 58.890625 
Q 34.625 58.640625 34.234375 57.9375 
Q 33.84375 57.234375 33.34375 56.34375 
Q 32.859375 55.46875 32.34375 54.5625 
Q 31.84375 53.65625 31.453125 53.078125 
L 13.8125 27.09375 
Q 13.578125 26.703125 13.109375 26.0625 
Q 12.640625 25.4375 12.15625 24.78125 
Q 11.671875 24.125 11.171875 23.484375 
Q 10.6875 22.859375 10.40625 22.515625 
L 34.71875 22.515625 
z
" id="LiberationSans-34"/>
      </defs>
      <g style="fill:#262626;" transform="translate(360.544046242 370.646875)scale(0.1 -0.1)">
       <use xlink:href="#LiberationSans-32"/>
       <use x="55.615234375" xlink:href="#LiberationSans-30"/>
       <use x="111.23046875" xlink:href="#LiberationSans-31"/>
       <use x="166.845703125" xlink:href="#LiberationSans-36"/>
       <use x="222.4609375" xlink:href="#LiberationSans-2d"/>
       <use x="255.76171875" xlink:href="#LiberationSans-31"/>
       <use x="311.376953125" xlink:href="#LiberationSans-30"/>
       <use x="366.9921875" xlink:href="#LiberationSans-2d"/>
       <use x="400.29296875" xlink:href="#LiberationSans-31"/>
       <use x="455.908203125" xlink:href="#LiberationSans-32"/>
       <use x="511.5234375" xlink:href="#LiberationSans-20"/>
       <use x="539.306640625" xlink:href="#LiberationSans-31"/>
       <use x="594.921875" xlink:href="#LiberationSans-34"/>
       <use x="650.537109375" xlink:href="#LiberationSans-3a"/>
       <use x="678.3203125" xlink:href="#LiberationSans-31"/>
       <use x="733.935546875" xlink:href="#LiberationSans-30"/>
       <use x="789.55078125" xlink:href="#LiberationSans-3a"/>
       <use x="817.333984375" xlink:href="#LiberationSans-30"/>
       <use x="872.94921875" xlink:href="#LiberationSans-30"/>
      </g>
     </g>
    </g>
    <g id="text_5">
     <!-- time -->
     <defs>
      <path d="M 13.484375 24.5625 
Q 13.484375 20.40625 14.328125 16.90625 
Q 15.1875 13.421875 16.96875 10.90625 
Q 18.75 8.40625 21.53125 7 
Q 24.3125 5.609375 28.21875 5.609375 
Q 33.9375 5.609375 37.375 7.90625 
Q 40.828125 10.203125 42.046875 13.71875 
L 49.75 11.53125 
Q 48.921875 9.328125 47.4375 7.109375 
Q 45.953125 4.890625 43.453125 3.09375 
Q 40.96875 1.3125 37.234375 0.15625 
Q 33.5 -0.984375 28.21875 -0.984375 
Q 16.5 -0.984375 10.375 6 
Q 4.25 12.984375 4.25 26.765625 
Q 4.25 34.1875 6.09375 39.328125 
Q 7.953125 44.484375 11.171875 47.703125 
Q 14.40625 50.921875 18.703125 52.359375 
Q 23 53.8125 27.875 53.8125 
Q 34.515625 53.8125 38.984375 51.65625 
Q 43.453125 49.515625 46.15625 45.71875 
Q 48.875 41.9375 50.015625 36.8125 
Q 51.171875 31.6875 51.171875 25.734375 
L 51.171875 24.5625 
z
M 42.09375 31.296875 
Q 41.359375 39.65625 37.84375 43.484375 
Q 34.328125 47.3125 27.734375 47.3125 
Q 25.53125 47.3125 23.109375 46.609375 
Q 20.703125 45.90625 18.65625 44.09375 
Q 16.609375 42.28125 15.1875 39.171875 
Q 13.765625 36.078125 13.578125 31.296875 
z
" id="LiberationSans-65"/>
      <path d="M 6.6875 64.0625 
L 6.6875 72.46875 
L 15.484375 72.46875 
L 15.484375 64.0625 
z
M 6.6875 0 
L 6.6875 52.828125 
L 15.484375 52.828125 
L 15.484375 0 
z
" id="LiberationSans-69"/>
      <path d="M 27.046875 0.390625 
Q 25.046875 -0.140625 22.96875 -0.453125 
Q 20.90625 -0.78125 18.171875 -0.78125 
Q 7.625 -0.78125 7.625 11.1875 
L 7.625 46.4375 
L 1.515625 46.4375 
L 1.515625 52.828125 
L 7.953125 52.828125 
L 10.546875 64.65625 
L 16.40625 64.65625 
L 16.40625 52.828125 
L 26.171875 52.828125 
L 26.171875 46.4375 
L 16.40625 46.4375 
L 16.40625 13.09375 
Q 16.40625 9.28125 17.640625 7.734375 
Q 18.890625 6.203125 21.96875 6.203125 
Q 23.25 6.203125 24.4375 6.390625 
Q 25.640625 6.59375 27.046875 6.890625 
z
" id="LiberationSans-74"/>
      <path d="M 37.5 0 
L 37.5 33.5 
Q 37.5 37.359375 37.015625 39.9375 
Q 36.53125 42.53125 35.375 44.109375 
Q 34.234375 45.703125 32.375 46.359375 
Q 30.515625 47.015625 27.828125 47.015625 
Q 25.046875 47.015625 22.796875 45.921875 
Q 20.5625 44.828125 18.96875 42.75 
Q 17.390625 40.671875 16.53125 37.625 
Q 15.671875 34.578125 15.671875 30.609375 
L 15.671875 0 
L 6.9375 0 
L 6.9375 41.546875 
Q 6.9375 43.21875 6.90625 45.046875 
Q 6.890625 46.875 6.828125 48.5 
Q 6.78125 50.140625 6.734375 51.3125 
Q 6.6875 52.484375 6.640625 52.828125 
L 14.9375 52.828125 
Q 14.984375 52.59375 15.03125 51.515625 
Q 15.09375 50.4375 15.15625 49.046875 
Q 15.234375 47.65625 15.28125 46.21875 
Q 15.328125 44.78125 15.328125 43.796875 
L 15.484375 43.796875 
Q 16.65625 46.09375 18.015625 47.953125 
Q 19.390625 49.8125 21.21875 51.09375 
Q 23.046875 52.390625 25.40625 53.09375 
Q 27.78125 53.8125 30.90625 53.8125 
Q 36.921875 53.8125 40.40625 51.421875 
Q 43.890625 49.03125 45.265625 43.796875 
L 45.40625 43.796875 
Q 46.578125 46.09375 48.046875 47.953125 
Q 49.515625 49.8125 51.46875 51.09375 
Q 53.421875 52.390625 55.859375 53.09375 
Q 58.296875 53.8125 61.421875 53.8125 
Q 65.4375 53.8125 68.328125 52.734375 
Q 71.234375 51.65625 73.09375 49.40625 
Q 74.953125 47.171875 75.828125 43.625 
Q 76.703125 40.09375 76.703125 35.203125 
L 76.703125 0 
L 68.015625 0 
L 68.015625 33.5 
Q 68.015625 37.359375 67.53125 39.9375 
Q 67.046875 42.53125 65.890625 44.109375 
Q 64.75 45.703125 62.890625 46.359375 
Q 61.03125 47.015625 58.34375 47.015625 
Q 55.5625 47.015625 53.3125 45.96875 
Q 51.078125 44.921875 49.484375 42.875 
Q 47.90625 40.828125 47.046875 37.75 
Q 46.1875 34.671875 46.1875 30.609375 
L 46.1875 0 
z
" id="LiberationSans-6d"/>
     </defs>
     <g style="fill:#262626;" transform="translate(284.81015625 385.6934375)scale(0.11 -0.11)">
      <use xlink:href="#LiberationSans-74"/>
      <use x="27.783203125" xlink:href="#LiberationSans-69"/>
      <use x="50.0" xlink:href="#LiberationSans-6d"/>
      <use x="133.30078125" xlink:href="#LiberationSans-65"/>
     </g>
    </g>
   </g>
   <g id="matplotlib.axis_2">
    <g id="ytick_1">
     <g id="line2d_13">
      <path clip-path="url(#p145262b825)" d="M 72 356.4 
L 518.4 356.4 
" style="fill:none;stroke:#ffffff;stroke-linecap:round;"/>
     </g>
     <g id="line2d_14"/>
     <g id="line2d_15"/>
     <g id="text_6">
      <!-- 5080 -->
      <defs>
       <path d="M 51.265625 19.1875 
Q 51.265625 14.796875 49.875 11.109375 
Q 48.484375 7.421875 45.625 4.734375 
Q 42.78125 2.046875 38.328125 0.53125 
Q 33.890625 -0.984375 27.828125 -0.984375 
Q 21.78125 -0.984375 17.359375 0.53125 
Q 12.9375 2.046875 10.03125 4.703125 
Q 7.125 7.375 5.734375 11.0625 
Q 4.34375 14.75 4.34375 19.09375 
Q 4.34375 22.859375 5.484375 25.78125 
Q 6.640625 28.71875 8.5625 30.828125 
Q 10.5 32.953125 12.96875 34.25 
Q 15.4375 35.546875 18.0625 35.984375 
L 18.0625 36.1875 
Q 15.1875 36.859375 12.90625 38.375 
Q 10.640625 39.890625 9.09375 42.015625 
Q 7.5625 44.140625 6.75 46.71875 
Q 5.953125 49.3125 5.953125 52.203125 
Q 5.953125 55.8125 7.34375 59 
Q 8.734375 62.203125 11.46875 64.625 
Q 14.203125 67.046875 18.25 68.4375 
Q 22.3125 69.828125 27.640625 69.828125 
Q 33.25 69.828125 37.375 68.40625 
Q 41.5 67 44.203125 64.578125 
Q 46.921875 62.15625 48.234375 58.9375 
Q 49.5625 55.71875 49.5625 52.09375 
Q 49.5625 49.265625 48.75 46.671875 
Q 47.953125 44.09375 46.40625 41.96875 
Q 44.875 39.84375 42.59375 38.34375 
Q 40.328125 36.859375 37.359375 36.28125 
L 37.359375 36.078125 
Q 40.328125 35.59375 42.859375 34.296875 
Q 45.40625 33.015625 47.265625 30.890625 
Q 49.125 28.765625 50.1875 25.828125 
Q 51.265625 22.90625 51.265625 19.1875 
M 40.4375 51.609375 
Q 40.4375 54.203125 39.765625 56.34375 
Q 39.109375 58.5 37.59375 60.03125 
Q 36.078125 61.578125 33.640625 62.421875 
Q 31.203125 63.28125 27.640625 63.28125 
Q 24.171875 63.28125 21.78125 62.421875 
Q 19.390625 61.578125 17.84375 60.03125 
Q 16.3125 58.5 15.625 56.34375 
Q 14.9375 54.203125 14.9375 51.609375 
Q 14.9375 49.5625 15.46875 47.40625 
Q 16.015625 45.265625 17.421875 43.5 
Q 18.84375 41.75 21.328125 40.625 
Q 23.828125 39.5 27.734375 39.5 
Q 31.890625 39.5 34.40625 40.625 
Q 36.921875 41.75 38.25 43.5 
Q 39.59375 45.265625 40.015625 47.40625 
Q 40.4375 49.5625 40.4375 51.609375 
M 42.140625 20.015625 
Q 42.140625 22.515625 41.453125 24.828125 
Q 40.765625 27.15625 39.109375 28.9375 
Q 37.453125 30.71875 34.640625 31.8125 
Q 31.84375 32.90625 27.640625 32.90625 
Q 23.78125 32.90625 21.0625 31.8125 
Q 18.359375 30.71875 16.671875 28.90625 
Q 14.984375 27.09375 14.203125 24.71875 
Q 13.421875 22.359375 13.421875 19.828125 
Q 13.421875 16.65625 14.203125 14.03125 
Q 14.984375 11.421875 16.6875 9.546875 
Q 18.40625 7.671875 21.1875 6.640625 
Q 23.96875 5.609375 27.9375 5.609375 
Q 31.9375 5.609375 34.671875 6.640625 
Q 37.40625 7.671875 39.0625 9.546875 
Q 40.71875 11.421875 41.421875 14.078125 
Q 42.140625 16.75 42.140625 20.015625 
" id="LiberationSans-38"/>
       <path d="M 51.421875 22.40625 
Q 51.421875 17.234375 49.859375 12.9375 
Q 48.296875 8.640625 45.21875 5.53125 
Q 42.140625 2.4375 37.578125 0.71875 
Q 33.015625 -0.984375 27 -0.984375 
Q 21.578125 -0.984375 17.546875 0.28125 
Q 13.53125 1.5625 10.734375 3.78125 
Q 7.953125 6 6.3125 8.984375 
Q 4.6875 11.96875 4 15.375 
L 12.890625 16.40625 
Q 13.421875 14.453125 14.390625 12.625 
Q 15.375 10.796875 17.0625 9.34375 
Q 18.75 7.90625 21.21875 7.046875 
Q 23.6875 6.203125 27.203125 6.203125 
Q 30.609375 6.203125 33.390625 7.25 
Q 36.1875 8.296875 38.15625 10.34375 
Q 40.140625 12.40625 41.203125 15.375 
Q 42.28125 18.359375 42.28125 22.21875 
Q 42.28125 25.390625 41.25 28.046875 
Q 40.234375 30.71875 38.328125 32.640625 
Q 36.421875 34.578125 33.65625 35.640625 
Q 30.90625 36.71875 27.390625 36.71875 
Q 25.203125 36.71875 23.34375 36.328125 
Q 21.484375 35.9375 19.890625 35.25 
Q 18.3125 34.578125 17.015625 33.671875 
Q 15.71875 32.765625 14.59375 31.78125 
L 6 31.78125 
L 8.296875 68.796875 
L 47.40625 68.796875 
L 47.40625 61.328125 
L 16.3125 61.328125 
L 14.984375 39.5 
Q 17.328125 41.3125 20.84375 42.59375 
Q 24.359375 43.890625 29.203125 43.890625 
Q 34.328125 43.890625 38.421875 42.328125 
Q 42.53125 40.765625 45.40625 37.90625 
Q 48.296875 35.0625 49.859375 31.109375 
Q 51.421875 27.15625 51.421875 22.40625 
" id="LiberationSans-35"/>
      </defs>
      <g style="fill:#262626;" transform="translate(42.75625 358.9859375)scale(0.1 -0.1)">
       <use xlink:href="#LiberationSans-35"/>
       <use x="55.615234375" xlink:href="#LiberationSans-30"/>
       <use x="111.23046875" xlink:href="#LiberationSans-38"/>
       <use x="166.845703125" xlink:href="#LiberationSans-30"/>
      </g>
     </g>
    </g>
    <g id="ytick_2">
     <g id="line2d_16">
      <path clip-path="url(#p145262b825)" d="M 72 311.142857 
L 518.4 311.142857 
" style="fill:none;stroke:#ffffff;stroke-linecap:round;"/>
     </g>
     <g id="line2d_17"/>
     <g id="line2d_18"/>
     <g id="text_7">
      <!-- 5100 -->
      <g style="fill:#262626;" transform="translate(42.75625 313.728794643)scale(0.1 -0.1)">
       <use xlink:href="#LiberationSans-35"/>
       <use x="55.615234375" xlink:href="#LiberationSans-31"/>
       <use x="111.23046875" xlink:href="#LiberationSans-30"/>
       <use x="166.845703125" xlink:href="#LiberationSans-30"/>
      </g>
     </g>
    </g>
    <g id="ytick_3">
     <g id="line2d_19">
      <path clip-path="url(#p145262b825)" d="M 72 265.885714 
L 518.4 265.885714 
" style="fill:none;stroke:#ffffff;stroke-linecap:round;"/>
     </g>
     <g id="line2d_20"/>
     <g id="line2d_21"/>
     <g id="text_8">
      <!-- 5120 -->
      <g style="fill:#262626;" transform="translate(42.75625 268.471651786)scale(0.1 -0.1)">
       <use xlink:href="#LiberationSans-35"/>
       <use x="55.615234375" xlink:href="#LiberationSans-31"/>
       <use x="111.23046875" xlink:href="#LiberationSans-32"/>
       <use x="166.845703125" xlink:href="#LiberationSans-30"/>
      </g>
     </g>
    </g>
    <g id="ytick_4">
     <g id="line2d_22">
      <path clip-path="url(#p145262b825)" d="M 72 220.628571 
L 518.4 220.628571 
" style="fill:none;stroke:#ffffff;stroke-linecap:round;"/>
     </g>
     <g id="line2d_23"/>
     <g id="line2d_24"/>
     <g id="text_9">
      <!-- 5140 -->
      <g style="fill:#262626;" transform="translate(42.75625 223.214508929)scale(0.1 -0.1)">
       <use xlink:href="#LiberationSans-35"/>
       <use x="55.615234375" xlink:href="#LiberationSans-31"/>
       <use x="111.23046875" xlink:href="#LiberationSans-34"/>
       <use x="166.845703125" xlink:href="#LiberationSans-30"/>
      </g>
     </g>
    </g>
    <g id="ytick_5">
     <g id="line2d_25">
      <path clip-path="url(#p145262b825)" d="M 72 175.371429 
L 518.4 175.371429 
" style="fill:none;stroke:#ffffff;stroke-linecap:round;"/>
     </g>
     <g id="line2d_26"/>
     <g id="line2d_27"/>
     <g id="text_10">
      <!-- 5160 -->
      <g style="fill:#262626;" transform="translate(42.75625 177.957366071)scale(0.1 -0.1)">
       <use xlink:href="#LiberationSans-35"/>
       <use x="55.615234375" xlink:href="#LiberationSans-31"/>
       <use x="111.23046875" xlink:href="#LiberationSans-36"/>
       <use x="166.845703125" xlink:href="#LiberationSans-30"/>
      </g>
     </g>
    </g>
    <g id="ytick_6">
     <g id="line2d_28">
      <path clip-path="url(#p145262b825)" d="M 72 130.114286 
L 518.4 130.114286 
" style="fill:none;stroke:#ffffff;stroke-linecap:round;"/>
     </g>
     <g id="line2d_29"/>
     <g id="line2d_30"/>
     <g id="text_11">
      <!-- 5180 -->
      <g style="fill:#262626;" transform="translate(42.75625 132.700223214)scale(0.1 -0.1)">
       <use xlink:href="#LiberationSans-35"/>
       <use x="55.615234375" xlink:href="#LiberationSans-31"/>
       <use x="111.23046875" xlink:href="#LiberationSans-38"/>
       <use x="166.845703125" xlink:href="#LiberationSans-30"/>
      </g>
     </g>
    </g>
    <g id="ytick_7">
     <g id="line2d_31">
      <path clip-path="url(#p145262b825)" d="M 72 84.857143 
L 518.4 84.857143 
" style="fill:none;stroke:#ffffff;stroke-linecap:round;"/>
     </g>
     <g id="line2d_32"/>
     <g id="line2d_33"/>
     <g id="text_12">
      <!-- 5200 -->
      <g style="fill:#262626;" transform="translate(42.75625 87.4430803571)scale(0.1 -0.1)">
       <use xlink:href="#LiberationSans-35"/>
       <use x="55.615234375" xlink:href="#LiberationSans-32"/>
       <use x="111.23046875" xlink:href="#LiberationSans-30"/>
       <use x="166.845703125" xlink:href="#LiberationSans-30"/>
      </g>
     </g>
    </g>
    <g id="ytick_8">
     <g id="line2d_34">
      <path clip-path="url(#p145262b825)" d="M 72 39.6 
L 518.4 39.6 
" style="fill:none;stroke:#ffffff;stroke-linecap:round;"/>
     </g>
     <g id="line2d_35"/>
     <g id="line2d_36"/>
     <g id="text_13">
      <!-- 5220 -->
      <g style="fill:#262626;" transform="translate(42.75625 42.1859375)scale(0.1 -0.1)">
       <use xlink:href="#LiberationSans-35"/>
       <use x="55.615234375" xlink:href="#LiberationSans-32"/>
       <use x="111.23046875" xlink:href="#LiberationSans-32"/>
       <use x="166.845703125" xlink:href="#LiberationSans-30"/>
      </g>
     </g>
    </g>
   </g>
   <g id="line2d_37">
    <path clip-path="url(#p145262b825)" d="M 72 281.165911 
L 72.223312 281.165911 
L 72.446623 279.90261 
L 72.669935 284.899625 
L 72.893247 281.758152 
L 73.116558 281.165911 
L 73.33987 277.432196 
L 73.563182 278.722074 
L 73.786493 276.843903 
L 74.009805 276.843903 
L 74.233117 278.722074 
L 74.456428 278.722074 
L 74.67974 280.577617 
L 74.903052 274.98836 
L 75.349675 281.758152 
L 75.572986 278.722074 
L 75.796298 281.758152 
L 76.01961 281.165911 
L 76.242921 279.90261 
L 76.466233 284.899625 
L 76.689545 279.310368 
L 76.912856 278.722074 
L 77.136168 281.165911 
L 77.582791 281.165911 
L 77.806103 266.253682 
L 78.029415 264.398139 
L 78.252726 274.396118 
L 78.476038 266.951318 
L 78.69935 268.806861 
L 79.145973 260.076132 
L 79.369285 264.398139 
L 79.592596 271.254646 
L 80.262531 252.631332 
L 80.485843 260.664425 
L 80.709155 249.485911 
L 80.932466 251.364082 
L 81.155778 254.486874 
L 81.37909 248.897617 
L 81.602401 248.305376 
L 82.049025 244.59429 
L 82.272336 246.449833 
L 82.718959 235.271318 
L 82.942271 239.597274 
L 83.165583 240.860576 
L 83.388894 240.860576 
L 83.612206 246.449833 
L 83.835518 266.951318 
L 84.058829 258.895597 
L 84.282141 260.181526 
L 84.505453 255.184511 
L 84.728764 259.48389 
L 84.952076 253.306339 
L 85.175388 253.894633 
L 85.398699 253.306339 
L 85.622011 253.306339 
L 85.845323 255.772804 
L 86.291946 244.005997 
L 86.515258 230.971939 
L 86.961881 239.005033 
L 87.185193 253.306339 
L 87.408504 252.03909 
L 87.631816 247.124841 
L 87.855128 252.714098 
L 88.078439 253.306339 
L 88.301751 245.269298 
L 88.525063 250.858555 
L 88.748374 247.124841 
L 88.971686 237.236204 
L 89.194997 240.377677 
L 89.418309 240.969919 
L 89.864932 247.234184 
L 90.311556 238.416739 
L 90.534867 235.968955 
L 90.758179 235.968955 
L 90.981491 238.416739 
L 91.204802 244.681004 
L 91.428114 239.091747 
L 91.651426 240.969919 
L 91.874737 239.197142 
L 92.098049 239.789384 
L 92.321361 241.644926 
L 92.544672 257.820456 
L 92.767984 254.086742 
L 92.991296 261.531542 
L 93.437919 259.087706 
L 93.661231 257.232163 
L 93.884542 256.639921 
L 94.107854 256.639921 
L 94.331166 257.232163 
L 94.777789 263.409713 
L 95.001101 266.445791 
L 95.224412 260.856534 
L 95.447724 259.000991 
L 95.671036 260.268241 
L 95.894347 255.942285 
L 96.117659 254.678984 
L 96.564282 247.234184 
L 96.787594 237.911212 
L 97.010905 243.500469 
L 97.234217 241.644926 
L 97.457529 241.052685 
L 97.68084 242.908228 
L 97.904152 242.908228 
L 98.127464 242.319934 
L 98.350775 241.052685 
L 98.574087 235.463428 
L 98.797399 241.052685 
L 99.02071 238.016607 
L 99.244022 238.608848 
L 99.690645 242.319934 
L 99.913957 241.727693 
L 100.137269 234.875134 
L 100.36058 238.608848 
L 100.583892 246.641942 
L 101.030515 239.283856 
L 101.253827 241.727693 
L 101.477139 241.727693 
L 101.70045 242.994942 
L 101.923762 242.994942 
L 102.147074 241.727693 
L 102.593697 236.138435 
L 102.817009 234.282893 
L 103.04032 238.608848 
L 103.263632 238.016607 
L 103.486943 238.016607 
L 103.710255 239.87215 
L 103.933567 238.691615 
L 104.156878 238.691615 
L 104.38019 239.283856 
L 104.603502 239.283856 
L 104.826813 238.691615 
L 105.050125 236.138435 
L 105.273437 234.9579 
L 105.72006 234.9579 
L 105.943372 234.369607 
L 106.166683 238.691615 
L 106.389995 234.369607 
L 106.613307 225.657557 
L 107.05993 250.462371 
L 107.506553 239.283856 
L 107.729865 239.87215 
L 107.953177 238.016607 
L 108.176488 239.283856 
L 108.3998 239.283856 
L 108.846423 228.78035 
L 109.069735 234.9579 
L 109.293047 233.102357 
L 109.516358 234.9579 
L 109.73967 234.9579 
L 109.962981 229.368643 
L 110.186293 233.694599 
L 110.856228 226.249799 
L 111.07954 216.926828 
L 111.302851 226.838093 
L 111.526163 217.515121 
L 111.749475 215.659578 
L 111.972786 217.601836 
L 112.41941 240.547157 
L 112.642721 238.103321 
L 112.866033 230.658521 
L 113.089345 234.369607 
L 113.312656 250.545137 
L 113.535968 258.582178 
L 113.75928 256.726636 
L 113.982591 256.726636 
L 114.205903 254.871093 
L 114.429215 248.584199 
L 114.652526 251.137378 
L 115.09915 241.222165 
L 115.322461 235.655537 
L 115.545773 241.814407 
L 115.769085 239.958864 
L 115.992396 249.870129 
L 116.215708 249.281836 
L 116.43902 235.550142 
L 116.662331 244.280872 
L 116.885643 240.547157 
L 117.108954 254.173456 
L 117.332266 247.991957 
L 117.555578 246.728656 
L 117.778889 248.584199 
L 118.225513 236.138435 
L 118.448824 234.875134 
L 118.672136 234.282893 
L 118.895448 238.016607 
L 119.118759 230.06628 
L 119.342071 216.926828 
L 119.565383 218.190129 
L 120.012006 225.552163 
L 120.235318 219.370664 
L 120.681941 226.838093 
L 120.905253 226.838093 
L 121.351876 233.694599 
L 121.575188 228.693635 
L 121.798499 231.839056 
L 122.021811 230.549178 
L 122.245123 224.371628 
L 122.468434 224.959921 
L 122.691746 229.960885 
L 122.915058 228.693635 
L 123.138369 228.105342 
L 123.361681 228.105342 
L 123.584992 229.960885 
L 123.808304 233.102357 
L 124.031616 228.105342 
L 124.254927 227.5131 
L 124.478239 228.105342 
L 124.924862 219.370664 
L 125.371486 226.249799 
L 125.594797 222.516085 
L 125.818109 224.371628 
L 126.041421 222.516085 
L 126.264732 221.923843 
L 126.488044 223.779386 
L 126.711356 217.601836 
L 126.934667 217.601836 
L 127.157979 213.89075 
L 127.381291 214.565758 
L 127.604602 217.118937 
L 127.827914 217.70723 
L 128.051226 216.4213 
L 128.274537 218.299472 
L 128.497849 215.829059 
L 128.721161 219.562773 
L 128.944472 221.418316 
L 129.167784 225.744272 
L 129.391096 220.830023 
L 129.614407 225.15203 
L 129.837719 224.477022 
L 130.061031 224.477022 
L 130.284342 225.15203 
L 130.507654 228.885744 
L 130.730965 230.741287 
L 130.954277 231.333529 
L 131.177589 228.885744 
L 131.4009 234.475002 
L 131.624212 235.742251 
L 131.847524 235.742251 
L 132.070835 237.005552 
L 132.294147 239.453337 
L 132.517459 243.775344 
L 132.74077 239.453337 
L 132.964082 237.597794 
L 133.187394 241.919802 
L 133.634017 234.475002 
L 133.857329 234.475002 
L 134.08064 238.186087 
L 134.303952 236.330544 
L 134.750575 240.633872 
L 134.973887 241.331508 
L 135.197199 237.597794 
L 135.42051 239.453337 
L 135.643822 238.186087 
L 135.867134 238.186087 
L 136.090445 237.597794 
L 136.313757 238.186087 
L 136.537069 237.597794 
L 136.76038 239.453337 
L 136.983692 243.187051 
L 137.430315 244.367586 
L 137.653627 242.512043 
L 138.10025 245.630887 
L 138.323562 245.042594 
L 138.546873 245.042594 
L 138.770185 246.920765 
L 138.993497 247.509059 
L 139.44012 241.919802 
L 139.663432 237.597794 
L 139.886743 236.330544 
L 140.110055 236.330544 
L 140.333367 235.742251 
L 140.556678 238.186087 
L 140.77999 232.008537 
L 141.003302 231.416295 
L 141.226613 228.297451 
L 141.449925 232.008537 
L 141.673237 225.744272 
L 141.896548 225.15203 
L 142.11986 228.885744 
L 142.343172 227.007573 
L 142.566483 232.59683 
L 143.236418 223.971495 
L 143.45973 223.971495 
L 143.683042 222.708194 
L 144.129665 227.705209 
L 144.352976 223.971495 
L 144.576288 226.41928 
L 144.7996 224.563737 
L 145.022911 224.563737 
L 145.246223 226.41928 
L 145.469535 226.41928 
L 146.13947 218.97448 
L 146.362781 214.648524 
L 146.586093 215.34616 
L 146.809405 219.057246 
L 147.032716 215.938402 
L 147.256028 225.238745 
L 147.47934 222.202667 
L 147.702651 222.202667 
L 147.925963 227.116916 
L 148.149275 224.646503 
L 148.372586 224.05821 
L 148.595898 224.646503 
L 148.81921 227.791924 
L 149.042521 225.936381 
L 149.265833 229.055225 
L 149.489145 230.345103 
L 149.712456 226.611389 
L 149.935768 230.345103 
L 150.15908 226.611389 
L 150.382391 227.199682 
L 150.605703 219.166589 
L 150.829015 219.841597 
L 151.052326 216.107882 
L 151.275638 220.42989 
L 151.498949 218.574347 
L 151.722261 220.42989 
L 151.945573 220.42989 
L 152.168884 218.574347 
L 152.392196 218.574347 
L 152.615508 224.163604 
L 152.838819 217.986054 
L 153.062131 220.42989 
L 153.285443 216.107882 
L 153.508754 217.393812 
L 153.732066 217.393812 
L 153.955378 220.516604 
L 154.178689 217.393812 
L 154.402001 217.393812 
L 154.625313 216.107882 
L 154.848624 213.071804 
L 155.295248 221.104898 
L 155.518559 228.572326 
L 155.741871 224.250319 
L 155.965183 222.394776 
L 156.411806 224.163604 
L 156.635118 217.986054 
L 156.858429 217.986054 
L 157.081741 215.515641 
L 157.305053 216.805519 
L 157.528364 219.249355 
L 157.751676 218.661062 
L 158.198299 211.216262 
L 158.421611 215.515641 
L 158.644922 217.393812 
L 158.868234 215.515641 
L 159.091546 214.927347 
L 159.314857 219.841597 
L 159.538169 215.515641 
L 159.761481 214.927347 
L 159.984792 215.515641 
L 160.208104 214.927347 
L 160.431416 208.070841 
L 160.654727 207.482547 
L 160.878039 211.216262 
L 161.101351 204.337126 
L 161.324662 215.515641 
L 161.547974 209.926383 
L 161.771286 215.515641 
L 161.994597 211.804555 
L 162.217909 213.660098 
L 162.441221 211.216262 
L 162.887844 201.89329 
L 163.111156 206.215298 
L 163.334467 206.215298 
L 163.557779 196.304033 
L 164.004402 213.071804 
L 164.227714 217.393812 
L 164.674337 200.037747 
L 164.897649 207.482547 
L 165.12096 189.447526 
L 165.344272 191.895311 
L 165.567584 184.450511 
L 165.790895 168.271033 
L 166.014207 162.093482 
L 166.237519 170.126576 
L 166.46083 173.86029 
L 166.684142 97.97176 
L 166.907454 100.419545 
L 167.130765 96.116217 
L 167.354077 104.828267 
L 167.577389 99.936646 
L 167.8007 83.059532 
L 168.024012 84.34941 
L 168.247324 80.615695 
L 168.470635 82.471238 
L 168.693947 79.26568 
L 168.917259 81.121223 
L 169.14057 81.121223 
L 169.587194 89.24103 
L 169.810505 102.297716 
L 170.033817 105.41656 
L 170.257129 120.92103 
L 170.48044 125.243038 
L 170.703752 121.509324 
L 170.927064 113.47623 
L 171.150375 119.740495 
L 171.373687 121.596038 
L 171.596998 121.596038 
L 171.82031 138.36381 
L 172.043622 137.09656 
L 172.266933 146.419532 
L 172.490245 148.867316 
L 172.713557 140.132638 
L 172.936868 137.688802 
L 173.16018 128.36583 
L 173.383492 127.098581 
L 173.606803 128.954124 
L 173.830115 136.421552 
L 174.053427 132.099545 
L 174.276738 130.832295 
L 174.50005 140.132638 
L 174.946673 136.421552 
L 175.169985 137.688802 
L 175.393297 135.241017 
L 175.616608 137.09656 
L 175.83992 140.830274 
L 176.063232 134.543381 
L 176.286543 133.955087 
L 176.733167 128.954124 
L 177.17979 153.189324 
L 177.403102 158.755952 
L 177.626413 184.846695 
L 177.849725 184.846695 
L 178.073037 196.025209 
L 178.296348 184.846695 
L 178.742971 187.882773 
L 178.966283 196.617451 
L 179.189595 195.350202 
L 179.412906 184.171687 
L 179.636218 184.171687 
L 179.85953 186.02723 
L 180.082841 191.028194 
L 180.306153 189.760944 
L 180.529465 206.528716 
L 180.752776 207.120958 
L 181.1994 210.239802 
L 181.422711 213.973516 
L 181.646023 215.240765 
L 181.869335 211.52968 
L 182.092646 235.742251 
L 182.315958 222.115952 
L 182.53927 220.830023 
L 182.762581 216.526695 
L 182.985893 218.382238 
L 183.209205 229.560752 
L 183.432516 226.41928 
L 183.655828 214.648524 
L 183.87914 217.118937 
L 184.325763 217.118937 
L 184.549075 214.648524 
L 184.995698 199.758924 
L 185.442321 209.059267 
L 185.665633 205.940423 
L 185.888944 207.203724 
L 186.112256 212.204687 
L 186.782191 206.023189 
L 187.005503 209.756903 
L 187.228814 206.023189 
L 187.675438 191.11096 
L 187.898749 194.844674 
L 188.122061 196.700217 
L 188.345373 194.844674 
L 188.568684 194.844674 
L 188.791996 196.700217 
L 189.015308 202.289474 
L 189.238619 197.990095 
L 189.461931 203.579352 
L 189.685243 206.109903 
L 189.908554 203.662119 
L 190.131866 206.698196 
L 190.355178 204.842654 
L 190.578489 206.109903 
L 190.801801 200.520646 
L 191.025113 198.665103 
L 191.248424 198.665103 
L 191.471736 201.108939 
L 191.695048 200.520646 
L 191.918359 196.80956 
L 192.141671 200.520646 
L 192.364982 197.397854 
L 192.588294 199.845638 
L 192.811606 203.579352 
L 193.034917 200.433932 
L 193.258229 199.845638 
L 193.481541 205.434895 
L 193.704852 207.290438 
L 193.928164 205.434895 
L 194.151476 206.023189 
L 194.374787 203.579352 
L 194.598099 206.023189 
L 194.821411 199.845638 
L 195.044722 204.167646 
L 195.491346 199.845638 
L 195.714657 199.845638 
L 195.937969 203.579352 
L 196.161281 202.289474 
L 196.384592 205.434895 
L 196.607904 197.990095 
L 196.831216 184.93341 
L 197.054527 189.255417 
L 197.277839 184.93341 
L 197.501151 186.811581 
L 197.724462 186.811581 
L 197.947774 188.667124 
L 198.171086 189.342132 
L 198.394397 192.400838 
L 198.617709 189.930425 
L 198.841021 185.631046 
L 199.510955 194.931389 
L 199.734267 194.931389 
L 199.957579 193.075846 
L 200.18089 194.931389 
L 200.404202 198.072861 
L 200.627514 196.217319 
L 200.850825 198.072861 
L 201.074137 195.036783 
L 201.52076 185.125519 
L 201.744072 190.714776 
L 201.967384 190.714776 
L 202.190695 190.122534 
L 202.414007 193.856248 
L 202.637319 190.797542 
L 202.86063 190.797542 
L 203.083942 194.531256 
L 203.530565 190.209249 
L 203.753877 192.08742 
L 203.977189 192.08742 
L 204.2005 190.209249 
L 204.423812 192.08742 
L 204.647124 186.498163 
L 204.870435 184.619991 
L 205.093747 184.619991 
L 205.317059 188.941999 
L 205.54037 188.353706 
L 205.763682 188.941999 
L 205.986993 188.353706 
L 206.210305 187.086456 
L 206.656928 190.209249 
L 206.88024 195.206264 
L 207.103552 193.350721 
L 207.326863 189.028713 
L 207.550175 191.495178 
L 207.996798 192.675713 
L 208.22011 192.08742 
L 208.443422 186.498163 
L 208.666733 184.02775 
L 208.890045 184.619991 
L 209.336668 177.175191 
L 210.006603 187.173171 
L 210.229915 181.583913 
L 210.453227 185.905921 
L 210.676538 187.173171 
L 210.89985 192.762428 
L 211.346473 187.173171 
L 211.569785 189.617007 
L 211.793097 189.028713 
L 212.016408 189.617007 
L 212.23972 189.028713 
L 212.463032 187.173171 
L 212.686343 191.495178 
L 212.909655 192.08742 
L 213.132966 190.797542 
L 213.57959 189.617007 
L 213.802901 192.08742 
L 214.026213 190.209249 
L 214.249525 183.352742 
L 214.472836 180.124555 
L 214.91946 190.122534 
L 215.366083 183.944984 
L 215.589395 191.978077 
L 215.812706 192.570319 
L 216.036018 191.978077 
L 216.25933 195.711791 
L 216.482641 193.856248 
L 216.705953 195.036783 
L 216.929265 221.802534 
L 217.152576 224.333085 
L 217.375888 229.922342 
L 217.5992 220.621999 
L 217.822511 218.743828 
L 218.045823 226.886264 
L 218.269135 223.744791 
L 218.492446 205.796485 
L 218.715758 216.299991 
L 218.93907 214.444449 
L 219.162381 217.563293 
L 219.385693 216.974999 
L 219.609005 207.674656 
L 219.832316 215.119456 
L 220.055628 218.260929 
L 220.278939 219.528178 
L 220.502251 217.672636 
L 220.725563 227.561272 
L 220.948874 221.972015 
L 221.172186 223.261893 
L 221.395498 225.705729 
L 221.842121 212.671672 
L 222.065433 214.527215 
L 222.288744 211.385742 
L 222.735368 220.033706 
L 222.958679 218.743828 
L 223.181991 216.299991 
L 223.405303 220.033706 
L 223.628614 214.444449 
L 223.851926 215.032742 
L 224.298549 212.396797 
L 224.968484 200.626041 
L 225.191796 200.626041 
L 225.415108 209.926383 
L 225.638419 212.98509 
L 225.861731 212.396797 
L 226.085043 215.515641 
L 226.308354 213.071804 
L 226.531666 213.660098 
L 226.754977 214.927347 
L 227.201601 212.287454 
L 227.648224 205.517661 
L 228.094847 209.843617 
L 228.318159 205.517661 
L 228.764782 203.073825 
L 228.988094 194.931389 
L 229.434717 191.220303 
L 229.658029 193.075846 
L 229.881341 188.074882 
L 230.327964 190.522667 
L 230.551276 196.700217 
L 230.774587 197.990095 
L 230.997899 196.700217 
L 231.444522 195.519682 
L 232.114457 195.519682 
L 232.337769 197.397854 
L 232.561081 194.931389 
L 232.784392 188.74989 
L 233.231016 199.253396 
L 233.677639 192.400838 
L 233.90095 180.630082 
L 234.124262 183.752874 
L 234.347574 183.160633 
L 234.570885 192.483604 
L 234.794197 194.339147 
L 235.017509 194.339147 
L 235.24082 188.74989 
L 235.464132 192.483604 
L 235.687444 191.220303 
L 236.357379 195.629025 
L 236.58069 188.161597 
L 236.804002 184.450511 
L 237.027314 186.894347 
L 237.250625 184.341168 
L 237.473937 186.219339 
L 237.92056 182.485625 
L 238.367184 192.400838 
L 238.813807 188.074882 
L 239.037119 189.930425 
L 239.26043 189.342132 
L 239.483742 186.811581 
L 239.707054 186.811581 
L 239.930365 186.219339 
L 240.153677 188.667124 
L 240.376988 186.219339 
L 240.6003 186.219339 
L 240.823612 189.930425 
L 241.046923 190.522667 
L 241.493547 178.751911 
L 241.716858 178.751911 
L 241.94017 180.041789 
L 242.386793 172.57436 
L 242.610105 177.48861 
L 242.833417 179.344152 
L 243.056728 177.48861 
L 243.28004 178.076903 
L 243.503352 179.932446 
L 243.726663 178.076903 
L 243.949975 179.344152 
L 244.173287 184.258402 
L 244.396598 183.66616 
L 244.61991 181.810617 
L 244.843222 181.810617 
L 245.066533 186.702238 
L 245.289845 184.846695 
L 245.95978 190.522667 
L 246.183092 209.059267 
L 246.406403 205.348181 
L 246.853027 217.793945 
L 247.076338 216.61341 
L 247.29965 220.347124 
L 247.746273 220.347124 
L 248.192896 215.34616 
L 248.862831 224.05821 
L 249.086143 217.201703 
L 249.309455 220.347124 
L 249.756078 216.61341 
L 250.202701 206.698196 
L 250.426013 212.287454 
L 250.649325 214.165625 
L 250.872636 217.876711 
L 251.095948 217.876711 
L 251.31926 220.347124 
L 251.542571 217.201703 
L 251.765883 217.201703 
L 251.989195 213.467989 
L 252.212506 222.202667 
L 252.435818 225.936381 
L 252.65913 220.347124 
L 252.882441 219.754882 
L 253.105753 216.021168 
L 253.329065 206.698196 
L 253.552376 209.16861 
L 253.775688 216.61341 
L 253.998999 217.201703 
L 254.222311 211.612446 
L 254.445623 216.61341 
L 254.892246 217.793945 
L 255.115558 219.649487 
L 255.562181 216.526695 
L 255.785493 212.204687 
L 256.232116 215.938402 
L 256.455428 215.938402 
L 256.678739 217.201703 
L 256.902051 217.201703 
L 257.125363 220.347124 
L 257.348674 214.757867 
L 257.795298 214.757867 
L 258.018609 212.879695 
L 258.688544 225.936381 
L 258.911856 224.05821 
L 259.135168 225.344139 
L 259.358479 221.610425 
L 259.581791 223.465968 
L 259.805103 222.202667 
L 260.028414 217.876711 
L 260.251726 217.876711 
L 260.475038 216.61341 
L 260.698349 220.347124 
L 260.921661 222.202667 
L 261.144972 221.610425 
L 261.368284 217.288417 
L 261.591596 217.288417 
L 261.814907 214.165625 
L 262.038219 207.988074 
L 262.261531 208.576368 
L 262.484842 214.165625 
L 262.708154 214.165625 
L 262.931466 212.879695 
L 263.154777 216.021168 
L 263.378089 214.165625 
L 263.601401 214.757867 
L 263.824712 216.021168 
L 264.271336 220.347124 
L 264.494647 216.61341 
L 264.717959 207.290438 
L 264.941271 204.167646 
L 265.164582 206.023189 
L 265.834517 165.042846 
L 266.057829 175.040825 
L 266.281141 167.573396 
L 266.504452 167.573396 
L 266.727764 163.862311 
L 266.951076 162.681776 
L 267.621011 205.073306 
L 267.844322 206.336607 
L 268.067634 211.337571 
L 268.290945 187.207765 
L 268.514257 197.122978 
L 268.737569 198.978521 
L 268.96088 205.156072 
L 269.184192 202.014599 
L 269.407504 207.011615 
L 269.630815 197.122978 
L 269.854127 193.389264 
L 270.077439 182.124035 
L 270.30075 181.535742 
L 270.524062 188.980542 
L 270.747374 185.160113 
L 270.970685 189.486069 
L 271.193997 189.486069 
L 271.417309 194.483085 
L 271.64062 202.520126 
L 271.863932 239.197142 
L 272.087244 226.140456 
L 272.310555 229.285877 
L 272.533867 226.140456 
L 273.203802 238.608848 
L 273.427114 238.608848 
L 273.650425 240.464391 
L 273.873737 243.583235 
L 274.097049 248.497485 
L 274.32036 244.175477 
L 274.543672 226.140456 
L 274.990295 241.052685 
L 275.213607 236.730677 
L 275.66023 244.76377 
L 275.883542 241.052685 
L 276.106853 242.908228 
L 276.330165 239.197142 
L 276.553477 239.197142 
L 276.776788 241.052685 
L 277.0001 239.197142 
L 277.223412 240.464391 
L 277.446723 241.052685 
L 277.670035 239.789384 
L 277.893347 234.200126 
L 278.116658 236.643963 
L 278.33997 231.646947 
L 278.563282 235.380661 
L 278.786593 235.968955 
L 279.009905 237.824498 
L 279.233217 236.561197 
L 279.67984 240.860576 
L 279.903152 243.919282 
L 280.126463 243.330989 
L 280.349775 247.630368 
L 280.573087 243.919282 
L 280.796398 248.897617 
L 281.01971 242.041111 
L 281.243022 245.186532 
L 281.466333 243.330989 
L 282.136268 249.485911 
L 282.35958 247.630368 
L 282.806203 247.630368 
L 283.029515 248.897617 
L 283.476138 242.633352 
L 283.922761 248.810903 
L 284.146073 245.099817 
L 284.369385 244.511524 
L 284.592696 250.078152 
L 284.816008 247.630368 
L 285.03932 248.810903 
L 285.262631 252.544617 
L 285.485943 248.810903 
L 285.932566 252.544617 
L 286.155878 255.66741 
L 286.37919 252.544617 
L 286.602501 241.366103 
L 286.825813 241.366103 
L 287.049125 245.692059 
L 287.272436 241.958345 
L 287.71906 230.104822 
L 288.165683 241.766235 
L 288.388994 244.907708 
L 288.612306 256.678464 
L 288.835618 251.6775 
L 289.282241 257.266757 
L 289.505553 258.534007 
L 289.728864 256.086222 
L 289.952176 257.266757 
L 290.175488 263.531022 
L 290.398799 254.800293 
L 290.622111 256.086222 
L 290.845423 259.714542 
L 291.068734 257.266757 
L 291.292046 256.678464 
L 291.515358 252.352508 
L 291.961981 254.208051 
L 292.185293 254.208051 
L 292.408604 243.052165 
L 292.631916 248.053129 
L 292.855228 249.233664 
L 293.078539 247.355493 
L 293.301851 252.94475 
L 293.525163 253.533043 
L 293.748474 254.800293 
L 293.971786 254.800293 
L 294.418409 252.269742 
L 294.865033 255.980828 
L 295.311656 249.233664 
L 295.534967 244.319415 
L 295.758279 244.907708 
L 295.981591 249.233664 
L 296.204902 248.641422 
L 296.428214 246.763251 
L 296.651526 248.053129 
L 296.874837 248.641422 
L 297.098149 248.053129 
L 297.544772 252.352508 
L 297.768084 250.496965 
L 297.991396 250.496965 
L 298.214707 253.533043 
L 298.438019 253.533043 
L 298.661331 251.089207 
L 298.884642 252.94475 
L 299.107954 252.94475 
L 299.331266 252.352508 
L 299.554577 249.233664 
L 299.777889 252.94475 
L 300.001201 254.125285 
L 300.224512 251.6775 
L 300.447824 252.269742 
L 300.671136 254.125285 
L 301.564382 244.2327 
L 301.787694 243.727173 
L 302.011006 248.053129 
L 302.234317 248.053129 
L 302.457629 245.49995 
L 302.68094 245.49995 
L 302.904252 250.496965 
L 303.127564 249.233664 
L 303.350875 251.089207 
L 303.574187 250.496965 
L 303.797499 248.641422 
L 304.244122 254.208051 
L 304.467434 252.94475 
L 304.690745 254.800293 
L 304.914057 254.800293 
L 305.137369 255.388586 
L 305.36068 253.533043 
L 306.030615 258.534007 
L 306.253927 256.678464 
L 306.477239 264.123264 
L 306.70055 255.219105 
L 307.147174 250.304856 
L 307.370485 253.450277 
L 307.593797 247.86102 
L 307.817109 251.002492 
L 308.04042 251.594734 
L 308.263732 250.414199 
L 308.487044 254.713578 
L 308.710355 249.124321 
L 308.933667 250.414199 
L 309.156978 250.414199 
L 309.38029 252.269742 
L 309.826913 247.943786 
L 310.050225 244.824942 
L 310.273537 243.535064 
L 310.496848 242.946771 
L 310.72016 239.235685 
L 310.943472 218.734199 
L 311.166783 214.325477 
L 311.390095 219.322492 
L 311.613407 219.322492 
L 311.836718 215.588778 
L 312.06003 218.734199 
L 312.283342 218.734199 
L 312.729965 207.555685 
L 312.953277 195.109921 
L 313.176588 193.823991 
L 313.3999 195.109921 
L 313.623212 195.702163 
L 313.846523 185.78695 
L 314.069835 195.109921 
L 314.293147 196.965464 
L 314.516458 194.521628 
L 314.73977 198.232713 
L 314.963082 193.23175 
L 315.186393 182.053235 
L 315.409705 182.645477 
L 315.633017 181.378228 
L 315.856328 185.111942 
L 316.07964 184.523648 
L 316.302951 178.934391 
L 316.526263 183.23377 
L 316.749575 165.900334 
L 316.972886 164.610456 
L 317.196198 160.89937 
L 317.41951 159.613441 
L 317.642821 351.986625 
L 318.089445 337.772033 
L 318.312756 331.002241 
L 318.536068 329.734991 
L 318.75938 331.002241 
L 318.982691 317.968183 
L 319.206003 317.968183 
L 319.429315 314.932106 
L 319.652626 324.232448 
L 319.875938 324.232448 
L 320.09925 321.196371 
L 320.322561 320.521363 
L 320.545873 327.966163 
L 320.769185 331.677248 
L 320.992496 330.409999 
L 321.215808 327.966163 
L 321.43912 330.496713 
L 321.662431 329.904472 
L 321.885743 333.638186 
L 322.109055 333.049893 
L 322.332366 331.19435 
L 322.555678 330.602108 
L 322.778989 334.905435 
L 323.225613 329.904472 
L 323.448924 325.605093 
L 323.672236 329.904472 
L 323.895548 328.048929 
L 324.118859 329.904472 
L 324.342171 328.048929 
L 324.788794 310.692864 
L 325.012106 316.282121 
L 325.235418 318.748586 
L 325.458729 318.748586 
L 325.682041 297.066565 
L 325.905353 306.981778 
L 326.128664 310.100622 
L 326.351976 308.837321 
L 326.575288 310.692864 
L 326.798599 310.692864 
L 327.021911 310.100622 
L 327.245223 310.692864 
L 327.915158 316.870415 
L 328.138469 316.870415 
L 328.361781 315.014872 
L 328.585093 305.103607 
L 328.808404 301.392521 
L 329.255028 308.837321 
L 329.478339 306.981778 
L 329.701651 315.014872 
L 329.924962 315.014872 
L 330.148274 314.426578 
L 330.371586 310.692864 
L 330.594897 308.837321 
L 330.818209 313.159329 
L 331.041521 311.281157 
L 331.264832 313.751571 
L 331.488144 310.017856 
L 331.711456 302.573056 
L 331.934767 306.284142 
L 332.158079 304.428599 
L 332.381391 306.872435 
L 332.604702 305.016892 
L 332.828014 314.339864 
L 333.274637 313.159329 
L 333.497949 307.570072 
L 333.721261 313.751571 
L 333.944572 309.425615 
L 334.167884 310.017856 
L 334.391196 299.51435 
L 334.614507 296.391557 
L 334.837819 297.658807 
L 335.061131 290.8023 
L 335.284442 293.250085 
L 335.507754 293.250085 
L 335.731066 291.982835 
L 335.954377 286.393578 
L 336.177689 283.927113 
L 336.624312 290.8023 
L 337.070935 287.660828 
L 337.294247 298.164334 
L 337.517559 293.838378 
L 337.74087 286.98582 
L 338.187494 300.019877 
L 338.410805 295.693921 
L 338.857429 300.019877 
L 339.08074 299.427635 
L 339.304052 299.427635 
L 339.527364 297.572092 
L 339.750675 298.164334 
L 339.973987 297.572092 
L 340.197299 300.019877 
L 340.42061 298.164334 
L 340.643922 298.752628 
L 340.867234 296.874456 
L 341.090545 296.286163 
L 341.313857 296.286163 
L 341.537169 296.874456 
L 341.76048 295.018913 
L 341.983792 294.43062 
L 342.207104 289.429656 
L 342.430415 272.073591 
L 342.877039 282.659864 
L 343.10035 277.070607 
L 343.323662 286.393578 
L 343.546973 290.104664 
L 343.770285 297.572092 
L 343.993597 295.105628 
L 344.216908 296.983799 
L 344.44022 295.803264 
L 344.886843 296.983799 
L 345.110155 302.573056 
L 345.333467 302.573056 
L 345.556778 294.513386 
L 345.78009 298.2471 
L 346.003402 294.513386 
L 346.450025 294.513386 
L 346.673337 300.102643 
L 346.896648 296.983799 
L 347.11996 296.391557 
L 347.343272 298.2471 
L 347.566583 303.248064 
L 347.789895 305.103607 
L 348.013207 296.478272 
L 348.236518 295.803264 
L 348.45983 292.06955 
L 348.683142 293.332851 
L 348.906453 287.1553 
L 349.353077 282.746578 
L 349.576388 284.62475 
L 349.7997 283.334872 
L 350.469635 287.660828 
L 350.692946 280.216028 
L 350.916258 280.216028 
L 351.13957 280.804321 
L 351.362881 282.071571 
L 351.586193 282.071571 
L 351.809505 284.515407 
L 352.032816 282.071571 
L 352.256128 284.515407 
L 352.47944 282.659864 
L 352.926063 275.890072 
L 353.149375 277.745615 
L 353.372686 283.334872 
L 353.595998 284.62475 
L 353.81931 284.62475 
L 354.042621 282.746578 
L 354.265933 279.623786 
L 354.489245 279.035493 
L 354.712556 282.746578 
L 354.935868 281.479329 
L 355.382491 282.746578 
L 355.605803 285.213043 
L 356.052426 285.213043 
L 356.275738 284.62475 
L 356.49905 282.746578 
L 356.722361 284.515407 
L 356.945673 282.071571 
L 357.168984 287.660828 
L 357.392296 285.213043 
L 357.615608 285.213043 
L 358.062231 295.105628 
L 358.285543 294.513386 
L 358.508854 305.103607 
L 358.732166 302.573056 
L 358.955478 303.836357 
L 359.178789 301.980815 
L 359.402101 297.658807 
L 359.848724 297.658807 
L 360.072036 301.392521 
L 360.295348 302.573056 
L 360.518659 292.657843 
L 360.741971 292.657843 
L 360.965283 288.924129 
L 361.188594 289.516371 
L 361.411906 292.657843 
L 361.635218 292.657843 
L 361.858529 296.983799 
L 362.081841 283.334872 
L 362.305153 289.516371 
L 362.528464 290.8023 
L 362.751776 285.805285 
L 362.975088 285.213043 
L 363.421711 293.250085 
L 363.645023 289.516371 
L 363.868334 291.394542 
L 364.091646 291.982835 
L 364.314957 291.394542 
L 364.538269 291.394542 
L 364.761581 291.982835 
L 364.984892 291.982835 
L 365.208204 289.516371 
L 365.878139 300.694885 
L 366.101451 303.16135 
L 366.324762 303.16135 
L 366.548074 305.016892 
L 366.771386 301.87542 
L 366.994697 301.283178 
L 367.218009 293.250085 
L 367.441321 293.250085 
L 367.664632 290.8023 
L 367.887944 218.141957 
L 368.111256 212.5527 
L 368.334567 220.503028 
L 368.557879 218.54209 
L 368.781191 224.828983 
L 369.004502 227.27282 
L 369.227814 227.865061 
L 369.451126 232.779311 
L 369.674437 231.489433 
L 369.897749 224.131347 
L 370.121061 230.308898 
L 370.567684 229.128363 
L 370.790995 229.237706 
L 371.014307 232.948791 
L 371.237619 233.537085 
L 371.46093 239.126342 
L 371.684242 235.501971 
L 371.907554 234.826963 
L 372.130865 236.682506 
L 372.354177 235.415256 
L 372.577489 232.35655 
L 372.8008 239.910693 
L 373.024112 234.909729 
L 373.247424 232.548659 
L 373.470735 235.101838 
L 373.694047 241.283337 
L 373.917359 232.548659 
L 374.14067 234.996443 
L 374.363982 230.104822 
L 374.587294 231.960365 
L 375.033917 225.778867 
L 375.257229 228.226651 
L 375.48054 228.226651 
L 375.927164 233.223667 
L 376.150475 235.69408 
L 376.373787 230.104822 
L 376.597099 241.87163 
L 376.82041 238.137916 
L 377.043722 237.549622 
L 377.267034 241.87163 
L 377.490345 237.549622 
L 377.713657 239.405165 
L 377.936968 231.960365 
L 378.383592 235.69408 
L 378.606903 238.730158 
L 378.830215 238.137916 
L 379.053527 238.137916 
L 379.276838 239.993459 
L 379.50015 234.404202 
L 379.723462 234.404202 
L 380.170085 237.549622 
L 380.393397 237.549622 
L 380.616708 241.87163 
L 380.84002 239.993459 
L 381.063332 239.405165 
L 381.509955 233.815908 
L 381.733267 234.404202 
L 381.956578 236.874615 
L 382.17989 234.404202 
L 382.403202 234.404202 
L 382.626513 239.993459 
L 382.849825 238.137916 
L 383.073137 238.137916 
L 383.296448 239.993459 
L 383.51976 239.405165 
L 383.743072 238.137916 
L 383.966383 239.993459 
L 384.189695 240.5857 
L 384.636318 236.874615 
L 384.85963 236.874615 
L 385.082941 234.996443 
L 385.306253 234.404202 
L 385.529565 236.874615 
L 385.976188 233.729194 
L 386.422811 237.462908 
L 386.646123 236.874615 
L 386.869435 238.137916 
L 387.092746 238.730158 
L 387.316058 236.282373 
L 387.53937 236.874615 
L 387.985993 231.285358 
L 388.209305 229.99548 
L 388.432616 233.1409 
L 388.655928 231.873651 
L 389.102551 236.874615 
L 389.325863 235.584737 
L 389.549175 231.873651 
L 389.772486 233.729194 
L 389.995798 237.462908 
L 390.21911 239.318451 
L 390.442421 238.137916 
L 390.665733 238.137916 
L 390.889045 236.874615 
L 391.112356 238.137916 
L 391.558979 233.1409 
L 391.782291 238.730158 
L 392.005603 239.318451 
L 392.228914 241.173994 
L 392.452226 240.5857 
L 392.675538 236.874615 
L 392.898849 239.318451 
L 393.345473 239.318451 
L 393.568784 239.910693 
L 393.792096 244.2327 
L 394.238719 244.2327 
L 394.462031 240.498986 
L 394.685343 238.643443 
L 394.908654 242.354529 
L 395.131966 239.910693 
L 395.355278 240.498986 
L 395.801901 244.824942 
L 396.025213 243.535064 
L 396.248524 244.127306 
L 396.471836 243.535064 
L 396.695148 244.127306 
L 396.918459 241.679521 
L 397.141771 236.090264 
L 397.588394 240.41622 
L 397.811706 239.823978 
L 398.035018 234.234721 
L 398.258329 234.826963 
L 398.481641 236.682506 
L 398.704952 236.090264 
L 398.928264 236.765272 
L 399.151576 239.235685 
L 399.374887 236.765272 
L 399.598199 242.354529 
L 399.821511 239.910693 
L 400.044822 241.091228 
L 400.268134 235.501971 
L 400.491446 241.091228 
L 400.714757 236.765272 
L 400.938069 239.235685 
L 401.161381 243.535064 
L 401.384692 267.747635 
L 401.608004 260.977843 
L 401.831316 266.5671 
L 402.054627 264.123264 
L 402.277939 279.035493 
L 402.724562 262.267721 
L 402.947874 266.5671 
L 403.171186 264.123264 
L 403.394497 264.711557 
L 403.617809 260.38955 
L 403.841121 260.38955 
L 404.064432 247.943786 
L 404.287744 252.352508 
L 404.511056 252.352508 
L 404.734367 249.821957 
L 404.957679 251.6775 
L 405.18099 251.089207 
L 405.404302 249.821957 
L 405.627614 246.088243 
L 405.850925 237.357513 
L 406.074237 237.357513 
L 406.297549 230.501007 
L 406.52086 236.682506 
L 406.744172 237.945807 
L 406.967484 234.234721 
L 407.190795 232.948791 
L 407.637419 236.090264 
L 407.86073 236.090264 
L 408.084042 236.682506 
L 408.307354 235.501971 
L 408.753977 238.643443 
L 408.977289 237.357513 
L 409.2006 233.646428 
L 409.423912 233.646428 
L 409.647224 228.057171 
L 409.870535 232.35655 
L 410.093847 239.823978 
L 410.317159 239.235685 
L 410.54047 237.357513 
L 410.763782 242.354529 
L 411.210405 234.909729 
L 411.433717 238.643443 
L 411.657029 239.910693 
L 411.88034 239.910693 
L 412.103652 244.2327 
L 412.326963 242.946771 
L 412.550275 237.357513 
L 412.996898 244.824942 
L 413.22021 244.824942 
L 413.666833 255.388586 
L 413.890145 249.821957 
L 414.113457 247.943786 
L 414.336768 249.124321 
L 414.56008 249.124321 
L 414.783392 251.002492 
L 415.230015 246.088243 
L 415.453327 242.354529 
L 416.123262 242.354529 
L 416.346573 231.176015 
L 416.569885 228.057171 
L 416.793197 229.825999 
L 417.016508 225.503991 
L 417.23982 226.092285 
L 417.463132 227.947828 
L 417.686443 235.415256 
L 417.909755 227.359534 
L 418.133067 138.036815 
L 418.356378 146.66215 
L 418.57969 147.842685 
L 418.803002 171.380248 
L 419.026313 164.022163 
L 419.249625 179.522685 
L 419.472936 175.706204 
L 419.696248 180.005583 
L 419.91956 173.850661 
L 420.142871 174.525669 
L 420.366183 170.116947 
L 420.589495 161.382269 
L 421.036118 165.790991 
L 421.25943 170.116947 
L 421.482741 164.52769 
L 421.706053 162.672147 
L 421.929365 166.383233 
L 422.152676 167.080869 
L 422.375988 162.754913 
L 422.822611 167.080869 
L 423.045923 174.525669 
L 423.269235 171.380248 
L 423.492546 173.25842 
L 423.715858 165.790991 
L 423.93917 167.669163 
L 424.385793 163.935448 
L 424.609105 159.613441 
L 424.832416 161.574378 
L 425.055728 151.663113 
L 425.27904 155.396828 
L 425.502351 155.985121 
L 425.725663 157.252371 
L 425.948974 159.718835 
L 426.172286 169.019178 
L 426.395598 162.16662 
L 426.618909 164.022163 
L 427.065533 160.311077 
L 427.288844 159.718835 
L 427.512156 157.840664 
L 427.735468 158.432906 
L 427.958779 156.577363 
L 428.182091 156.577363 
L 428.405403 164.610456 
L 428.628714 158.432906 
L 429.075338 159.718835 
L 429.298649 164.022163 
L 429.521961 161.574378 
L 429.745273 163.429921 
L 429.968584 159.718835 
L 430.191896 159.718835 
L 430.638519 144.893321 
L 431.085143 138.629056 
L 431.308454 137.361807 
L 431.978389 146.66215 
L 432.201701 144.806607 
L 432.425013 146.073856 
L 432.648324 151.070872 
L 432.871636 151.070872 
L 433.094947 152.949043 
L 433.318259 149.215329 
L 433.541571 151.070872 
L 433.764882 143.626072 
L 433.988194 143.626072 
L 434.211506 142.362771 
L 434.434817 141.770529 
L 434.658129 143.626072 
L 435.104752 152.949043 
L 435.328064 165.9831 
L 435.551376 187.054199 
L 435.997999 177.753856 
L 436.444622 174.608435 
L 436.667934 174.608435 
L 436.891246 170.89735 
L 437.114557 177.753856 
L 437.337869 170.89735 
L 437.561181 177.644513 
L 437.784492 173.933428 
L 438.007804 177.644513 
L 438.677739 172.077885 
L 438.901051 173.933428 
L 439.124362 171.489591 
L 439.347674 167.755877 
L 439.570985 168.34417 
L 439.794297 167.755877 
L 440.017609 168.34417 
L 440.24092 163.347155 
L 440.464232 162.754913 
L 440.687544 168.34417 
L 440.910855 170.199713 
L 441.134167 165.202698 
L 441.58079 164.022163 
L 441.804102 165.900334 
L 442.027414 166.488628 
L 442.250725 165.202698 
L 442.474037 166.488628 
L 442.92066 163.347155 
L 443.143972 163.347155 
L 443.367284 165.202698 
L 443.590595 163.347155 
L 443.813907 163.935448 
L 444.037219 156.490648 
L 444.26053 154.612477 
L 444.483842 144.723841 
L 444.707154 144.723841 
L 444.930465 145.987142 
L 445.153777 148.434926 
L 445.377089 147.842685 
L 445.6004 147.842685 
L 445.823712 149.720856 
L 446.270335 149.720856 
L 446.493647 151.576399 
L 446.716958 151.576399 
L 447.386893 138.542342 
L 447.610205 127.956069 
L 447.833517 133.545326 
L 448.28014 118.633098 
L 448.503452 118.040856 
L 448.726763 120.488641 
L 448.950075 119.221391 
L 449.173387 124.222355 
L 449.396698 124.810648 
L 449.62001 131.667155 
L 449.843322 131.074913 
L 450.066633 135.400869 
L 450.289945 126.077898 
L 450.513257 126.666191 
L 450.736568 127.956069 
L 450.95988 125.485656 
L 451.183192 127.956069 
L 451.406503 122.366812 
L 451.629815 122.366812 
L 451.853127 125.485656 
L 452.076438 131.667155 
L 452.29975 129.21937 
L 452.523062 137.256412 
L 452.746373 134.808628 
L 452.969685 137.256412 
L 453.192996 140.990126 
L 453.416308 134.220334 
L 453.63962 134.808628 
L 454.086243 133.628092 
L 454.309555 142.951064 
L 454.532866 144.806607 
L 454.756178 150.395864 
L 454.97949 142.951064 
L 455.202801 140.484599 
L 455.426113 141.770529 
L 455.649425 136.773513 
L 455.872736 134.895342 
L 456.096048 135.483635 
L 456.31936 135.483635 
L 456.542671 133.628092 
L 456.765983 136.075877 
L 456.989295 133.628092 
L 457.212606 135.483635 
L 457.435918 139.21735 
L 457.65923 139.21735 
L 458.105853 134.220334 
L 458.329165 135.400869 
L 458.552476 131.667155 
L 458.775788 131.667155 
L 458.9991 140.397885 
L 459.445723 140.397885 
L 459.669035 134.808628 
L 459.892346 136.075877 
L 460.338969 132.364791 
L 460.562281 139.21735 
L 460.785593 131.77255 
L 461.008904 133.039799 
L 461.232216 138.629056 
L 461.455528 135.483635 
L 461.678839 135.483635 
L 461.902151 131.77255 
L 462.348774 128.631077 
L 462.572086 131.074913 
L 462.795398 129.811612 
L 463.018709 119.896399 
L 463.242021 131.074913 
L 463.465333 129.811612 
L 463.688644 131.667155 
L 463.911956 130.48662 
L 464.135268 131.074913 
L 464.358579 129.21937 
L 464.805203 129.21937 
L 465.028514 132.953085 
L 465.475138 124.897363 
L 465.698449 128.038835 
L 465.921761 126.775534 
L 466.368384 145.398848 
L 466.815008 152.843648 
L 467.038319 149.132563 
L 467.484942 158.432906 
L 467.708254 155.310113 
L 467.931566 147.842685 
L 468.154877 152.081926 
L 468.378189 171.018659 
L 468.601501 167.394287 
L 468.824812 174.16408 
L 469.718059 184.727724 
L 469.941371 182.872181 
L 470.164682 183.464422 
L 470.387994 183.464422 
L 470.611306 180.428345 
L 470.834617 169.838124 
L 471.057929 171.105373 
L 471.281241 174.839087 
L 471.504552 175.514095 
L 471.727864 174.246846 
L 471.951176 171.803009 
L 472.174487 171.803009 
L 472.397799 175.514095 
L 472.621111 173.658552 
L 472.844422 175.514095 
L 473.291046 196.690589 
L 473.514357 194.137409 
L 473.737669 189.834082 
L 473.96098 192.956874 
L 474.184292 185.512074 
L 474.407604 184.919833 
L 474.854227 178.067274 
L 475.077539 181.77836 
L 475.30085 178.655568 
L 475.747474 186.100368 
L 475.970785 182.366653 
L 476.194097 183.06429 
L 476.417409 183.06429 
L 476.64072 183.656532 
L 476.864032 187.955911 
L 477.087344 189.834082 
L 477.310655 186.100368 
L 477.533967 191.101332 
L 477.98059 186.100368 
L 478.203902 185.512074 
L 478.427214 186.100368 
L 478.650525 176.800025 
L 478.873837 177.392267 
L 479.097149 178.655568 
L 479.32046 177.475033 
L 479.543772 180.511111 
L 479.990395 176.211732 
L 480.213707 178.655568 
L 480.437019 179.330576 
L 480.66033 175.031196 
L 480.883642 173.741318 
L 481.106953 170.030233 
L 481.330265 173.741318 
L 481.553577 174.33356 
L 481.776888 178.067274 
L 482.0002 174.33356 
L 482.223512 174.33356 
L 482.446823 176.211732 
L 482.670135 176.211732 
L 482.893447 179.330576 
L 483.116758 173.741318 
L 483.34007 177.475033 
L 483.563382 178.742282 
L 483.786693 185.512074 
L 484.010005 179.922817 
L 484.233317 177.475033 
L 484.456628 178.067274 
L 484.67994 178.067274 
L 484.903252 176.211732 
L 485.126563 171.297482 
L 485.573187 175.61949 
L 485.796498 176.211732 
L 486.01981 176.211732 
L 486.466433 172.478017 
L 486.689745 183.656532 
L 486.913057 179.330576 
L 487.35968 184.244825 
L 487.582991 178.067274 
L 487.806303 178.067274 
L 488.029615 178.655568 
L 488.252926 174.33356 
L 488.476238 176.800025 
L 488.69955 173.066311 
L 489.146173 173.066311 
L 489.369485 175.514095 
L 489.592796 171.803009 
L 489.816108 173.658552 
L 490.03942 174.246846 
L 490.262731 174.246846 
L 490.486043 179.836103 
L 490.709355 179.247809 
L 491.37929 184.837067 
L 491.602601 185.42536 
L 492.049225 185.42536 
L 492.272536 182.283887 
L 492.495848 181.103352 
L 492.71916 181.103352 
L 492.942471 177.392267 
L 493.389095 186.692609 
L 493.612406 186.692609 
L 493.835718 190.426324 
L 494.05903 192.281867 
L 494.282341 186.692609 
L 494.505653 186.692609 
L 494.728964 160.032253 
L 494.952276 156.298539 
L 495.175588 160.032253 
L 495.398899 161.887796 
L 495.622211 166.213752 
L 495.845523 173.066311 
L 496.068834 169.332596 
L 496.292146 168.744303 
L 496.515458 165.621511 
L 496.738769 166.296518 
L 496.962081 168.744303 
L 497.185393 166.88876 
L 497.408704 171.210768 
L 497.632016 169.924838 
L 497.855328 166.213752 
L 498.078639 166.213752 
L 498.301951 173.066311 
L 498.525263 169.332596 
L 498.748574 171.803009 
L 499.418509 166.213752 
L 499.641821 167.477053 
L 499.865133 168.069295 
L 500.088444 168.069295 
L 500.311756 171.803009 
L 500.535068 171.210768 
L 500.981691 166.213752 
L 501.428314 169.924838 
L 501.651626 164.923874 
L 501.874937 163.068331 
L 502.098249 158.746324 
L 502.321561 158.154082 
L 502.768184 146.30056 
L 503.214807 151.889817 
L 503.438119 151.301524 
L 503.661431 153.74536 
L 503.884742 149.445981 
L 504.108054 153.74536 
L 504.331366 154.337602 
L 504.554677 156.215773 
L 504.777989 159.926859 
L 505.224612 154.925895 
L 505.447924 159.840144 
L 505.671236 156.10643 
L 505.894547 154.843129 
L 506.117859 161.107394 
L 506.341171 159.840144 
L 506.564482 162.287929 
L 506.787794 157.286965 
L 507.011106 155.431422 
L 507.457729 157.879207 
L 507.681041 157.286965 
L 507.904352 157.879207 
L 508.127664 154.168121 
L 508.350975 152.987586 
L 508.574287 147.398329 
L 509.244222 165.429402 
L 509.467534 167.284944 
L 509.690845 166.609937 
L 509.914157 164.1661 
L 510.137469 164.1661 
L 510.36078 164.754394 
L 510.584092 173.466443 
L 511.030715 168.465479 
L 511.477339 171.6109 
L 511.70065 165.346635 
L 512.147274 162.201215 
L 512.370585 167.790472 
L 512.593897 165.346635 
L 512.817209 156.023664 
L 513.04052 155.431422 
L 513.263832 159.757378 
L 513.487144 157.879207 
L 513.710455 159.757378 
L 513.933767 154.168121 
L 514.38039 138.075357 
L 514.603702 144.252908 
L 514.827014 145.520157 
L 515.050325 145.520157 
L 515.273637 147.398329 
L 515.72026 146.108451 
L 515.943572 143.664615 
L 516.166883 139.338659 
L 516.390195 142.48408 
L 516.613507 143.664615 
L 516.836818 152.395344 
L 517.06013 144.927916 
L 517.283442 151.109415 
L 517.506753 151.807051 
L 517.953377 151.807051 
L 518.176688 150.517173 
L 518.4 148.073337 
L 518.4 148.073337 
" style="fill:none;stroke:#4c72b0;stroke-linecap:round;stroke-width:1.75;"/>
   </g>
   <g id="patch_3">
    <path d="M 72 356.4 
L 518.4 356.4 
" style="fill:none;"/>
   </g>
   <g id="patch_4">
    <path d="M 72 39.6 
L 518.4 39.6 
" style="fill:none;"/>
   </g>
   <g id="patch_5">
    <path d="M 72 356.4 
L 72 39.6 
" style="fill:none;"/>
   </g>
   <g id="patch_6">
    <path d="M 518.4 356.4 
L 518.4 39.6 
" style="fill:none;"/>
   </g>
   <g id="text_14">
    <!-- SR - 0.17448197320979922 * c -->
    <defs>
     <path d="M 9.125 0 
L 9.125 10.6875 
L 18.65625 10.6875 
L 18.65625 0 
z
" id="LiberationSans-2e"/>
     <path d="M 13.421875 26.65625 
Q 13.421875 22.125 14.078125 18.3125 
Q 14.75 14.5 16.3125 11.734375 
Q 17.875 8.984375 20.4375 7.46875 
Q 23 5.953125 26.765625 5.953125 
Q 31.453125 5.953125 34.59375 8.484375 
Q 37.75 11.03125 38.484375 16.3125 
L 47.359375 15.71875 
Q 46.921875 12.453125 45.453125 9.421875 
Q 44 6.390625 41.484375 4.09375 
Q 38.96875 1.8125 35.34375 0.40625 
Q 31.734375 -0.984375 27 -0.984375 
Q 20.796875 -0.984375 16.453125 1.109375 
Q 12.109375 3.21875 9.390625 6.90625 
Q 6.6875 10.59375 5.46875 15.59375 
Q 4.25 20.609375 4.25 26.46875 
Q 4.25 31.78125 5.125 35.859375 
Q 6 39.9375 7.59375 42.984375 
Q 9.1875 46.046875 11.328125 48.125 
Q 13.484375 50.203125 15.984375 51.4375 
Q 18.5 52.6875 21.28125 53.25 
Q 24.078125 53.8125 26.90625 53.8125 
Q 31.34375 53.8125 34.8125 52.59375 
Q 38.28125 51.375 40.796875 49.25 
Q 43.3125 47.125 44.875 44.234375 
Q 46.4375 41.359375 47.078125 38.03125 
L 38.03125 37.359375 
Q 37.359375 41.75 34.5625 44.328125 
Q 31.78125 46.921875 26.65625 46.921875 
Q 22.90625 46.921875 20.390625 45.671875 
Q 17.875 44.4375 16.3125 41.921875 
Q 14.75 39.40625 14.078125 35.59375 
Q 13.421875 31.78125 13.421875 26.65625 
" id="LiberationSans-63"/>
     <path d="M 22.265625 54.390625 
L 35.15625 59.421875 
L 37.359375 52.984375 
L 23.578125 49.421875 
L 32.625 37.203125 
L 26.8125 33.6875 
L 19.484375 46.296875 
L 11.859375 33.796875 
L 6.0625 37.3125 
L 15.28125 49.421875 
L 1.609375 52.984375 
L 3.8125 59.515625 
L 16.84375 54.296875 
L 16.265625 68.796875 
L 22.90625 68.796875 
z
" id="LiberationSans-2a"/>
     <path d="M 62.109375 19 
Q 62.109375 14.65625 60.421875 10.984375 
Q 58.734375 7.328125 55.21875 4.65625 
Q 51.703125 2 46.359375 0.5 
Q 41.015625 -0.984375 33.6875 -0.984375 
Q 20.84375 -0.984375 13.671875 3.515625 
Q 6.5 8.015625 4.546875 16.5 
L 13.578125 18.3125 
Q 14.265625 15.625 15.671875 13.421875 
Q 17.09375 11.234375 19.5 9.640625 
Q 21.921875 8.0625 25.484375 7.171875 
Q 29.046875 6.296875 34.03125 6.296875 
Q 38.1875 6.296875 41.65625 7 
Q 45.125 7.71875 47.609375 9.171875 
Q 50.09375 10.640625 51.484375 12.953125 
Q 52.875 15.28125 52.875 18.5 
Q 52.875 21.875 51.34375 23.96875 
Q 49.8125 26.078125 47.015625 27.4375 
Q 44.234375 28.8125 40.375 29.734375 
Q 36.53125 30.671875 31.84375 31.734375 
Q 28.953125 32.375 26.046875 33.125 
Q 23.140625 33.890625 20.484375 34.9375 
Q 17.828125 35.984375 15.484375 37.390625 
Q 13.140625 38.8125 11.421875 40.796875 
Q 9.71875 42.78125 8.734375 45.390625 
Q 7.765625 48 7.765625 51.421875 
Q 7.765625 56.296875 9.734375 59.78125 
Q 11.71875 63.28125 15.234375 65.53125 
Q 18.75 67.78125 23.53125 68.796875 
Q 28.328125 69.828125 33.890625 69.828125 
Q 40.28125 69.828125 44.8125 68.828125 
Q 49.359375 67.828125 52.484375 65.8125 
Q 55.609375 63.8125 57.484375 60.859375 
Q 59.375 57.90625 60.5 54 
L 51.3125 52.390625 
Q 50.640625 54.890625 49.34375 56.84375 
Q 48.046875 58.796875 45.9375 60.109375 
Q 43.84375 61.421875 40.84375 62.109375 
Q 37.84375 62.796875 33.796875 62.796875 
Q 29 62.796875 25.75 61.9375 
Q 22.515625 61.078125 20.53125 59.609375 
Q 18.5625 58.15625 17.703125 56.171875 
Q 16.84375 54.203125 16.84375 51.90625 
Q 16.84375 48.828125 18.375 46.84375 
Q 19.921875 44.875 22.5625 43.546875 
Q 25.203125 42.234375 28.65625 41.359375 
Q 32.125 40.484375 36.03125 39.59375 
Q 39.203125 38.875 42.359375 38.109375 
Q 45.515625 37.359375 48.390625 36.296875 
Q 51.265625 35.25 53.78125 33.828125 
Q 56.296875 32.421875 58.15625 30.375 
Q 60.015625 28.328125 61.0625 25.53125 
Q 62.109375 22.75 62.109375 19 
" id="LiberationSans-53"/>
     <path d="M 56.84375 0 
L 38.96875 28.5625 
L 17.53125 28.5625 
L 17.53125 0 
L 8.203125 0 
L 8.203125 68.796875 
L 40.578125 68.796875 
Q 46.4375 68.796875 50.953125 67.453125 
Q 55.46875 66.109375 58.546875 63.5625 
Q 61.625 61.03125 63.234375 57.375 
Q 64.84375 53.71875 64.84375 49.125 
Q 64.84375 45.84375 63.890625 42.671875 
Q 62.9375 39.5 60.890625 36.859375 
Q 58.84375 34.234375 55.65625 32.328125 
Q 52.484375 30.421875 48.046875 29.640625 
L 67.578125 0 
z
M 55.46875 49.03125 
Q 55.46875 52.15625 54.390625 54.4375 
Q 53.328125 56.734375 51.265625 58.265625 
Q 49.21875 59.8125 46.28125 60.5625 
Q 43.359375 61.328125 39.65625 61.328125 
L 17.53125 61.328125 
L 17.53125 35.9375 
L 40.046875 35.9375 
Q 44.046875 35.9375 46.96875 36.9375 
Q 49.90625 37.9375 51.78125 39.6875 
Q 53.65625 41.453125 54.5625 43.84375 
Q 55.46875 46.234375 55.46875 49.03125 
" id="LiberationSans-52"/>
    </defs>
    <g style="fill:#262626;" transform="translate(211.1390625 34.6)scale(0.12 -0.12)">
     <use xlink:href="#LiberationSans-53"/>
     <use x="66.69921875" xlink:href="#LiberationSans-52"/>
     <use x="138.916015625" xlink:href="#LiberationSans-20"/>
     <use x="166.69921875" xlink:href="#LiberationSans-2d"/>
     <use x="200.0" xlink:href="#LiberationSans-20"/>
     <use x="227.783203125" xlink:href="#LiberationSans-30"/>
     <use x="283.3984375" xlink:href="#LiberationSans-2e"/>
     <use x="311.181640625" xlink:href="#LiberationSans-31"/>
     <use x="366.796875" xlink:href="#LiberationSans-37"/>
     <use x="422.412109375" xlink:href="#LiberationSans-34"/>
     <use x="478.02734375" xlink:href="#LiberationSans-34"/>
     <use x="533.642578125" xlink:href="#LiberationSans-38"/>
     <use x="589.2578125" xlink:href="#LiberationSans-31"/>
     <use x="644.873046875" xlink:href="#LiberationSans-39"/>
     <use x="700.48828125" xlink:href="#LiberationSans-37"/>
     <use x="756.103515625" xlink:href="#LiberationSans-33"/>
     <use x="811.71875" xlink:href="#LiberationSans-32"/>
     <use x="867.333984375" xlink:href="#LiberationSans-30"/>
     <use x="922.94921875" xlink:href="#LiberationSans-39"/>
     <use x="978.564453125" xlink:href="#LiberationSans-37"/>
     <use x="1034.1796875" xlink:href="#LiberationSans-39"/>
     <use x="1089.794921875" xlink:href="#LiberationSans-39"/>
     <use x="1145.41015625" xlink:href="#LiberationSans-32"/>
     <use x="1201.025390625" xlink:href="#LiberationSans-32"/>
     <use x="1256.640625" xlink:href="#LiberationSans-20"/>
     <use x="1284.423828125" xlink:href="#LiberationSans-2a"/>
     <use x="1323.33984375" xlink:href="#LiberationSans-20"/>
     <use x="1351.123046875" xlink:href="#LiberationSans-63"/>
    </g>
   </g>
  </g>
 </g>
 <defs>
  <clipPath id="p145262b825">
   <rect height="316.8" width="446.4" x="72.0" y="39.6"/>
  </clipPath>
 </defs>
</svg>
