<?xml version="1.0" encoding="utf-8" standalone="no"?>
<!DOCTYPE svg PUBLIC "-//W3C//DTD SVG 1.1//EN"
  "http://www.w3.org/Graphics/SVG/1.1/DTD/svg11.dtd">
<!-- Created with matplotlib (http://matplotlib.org/) -->
<svg height="396pt" version="1.1" viewBox="0 0 576 396" width="576pt" xmlns="http://www.w3.org/2000/svg" xmlns:xlink="http://www.w3.org/1999/xlink">
 <defs>
  <style type="text/css">
*{stroke-linecap:butt;stroke-linejoin:round;stroke-miterlimit:100000;}
  </style>
 </defs>
 <g id="figure_1">
  <g id="patch_1">
   <path d="M 0 396 
L 576 396 
L 576 0 
L 0 0 
z
" style="fill:#ffffff;"/>
  </g>
  <g id="axes_1">
   <g id="patch_2">
    <path d="M 72 356.4 
L 518.4 356.4 
L 518.4 39.6 
L 72 39.6 
z
" style="fill:#eaeaf2;"/>
   </g>
   <g id="matplotlib.axis_1">
    <g id="xtick_1">
     <g id="line2d_1">
      <path clip-path="url(#pd5b57ce403)" d="M 72 356.4 
L 72 39.6 
" style="fill:none;stroke:#ffffff;stroke-linecap:round;"/>
     </g>
     <g id="line2d_2"/>
     <g id="line2d_3"/>
     <g id="text_1">
      <!-- 2015-11-16 10:13:00 -->
      <defs>
       <path d="M 5.03125 0 
L 5.03125 6.203125 
Q 7.515625 11.921875 11.109375 16.28125 
Q 14.703125 20.65625 18.65625 24.1875 
Q 22.609375 27.734375 26.484375 30.765625 
Q 30.375 33.796875 33.5 36.8125 
Q 36.625 39.84375 38.546875 43.15625 
Q 40.484375 46.484375 40.484375 50.6875 
Q 40.484375 53.609375 39.59375 55.828125 
Q 38.71875 58.0625 37.0625 59.5625 
Q 35.40625 61.078125 33.078125 61.828125 
Q 30.765625 62.59375 27.9375 62.59375 
Q 25.296875 62.59375 22.96875 61.859375 
Q 20.65625 61.140625 18.84375 59.671875 
Q 17.046875 58.203125 15.890625 56.03125 
Q 14.75 53.859375 14.40625 50.984375 
L 5.421875 51.8125 
Q 5.859375 55.515625 7.46875 58.78125 
Q 9.078125 62.0625 11.90625 64.53125 
Q 14.75 67 18.71875 68.40625 
Q 22.703125 69.828125 27.9375 69.828125 
Q 33.0625 69.828125 37.0625 68.609375 
Q 41.0625 67.390625 43.8125 64.984375 
Q 46.578125 62.59375 48.046875 59.078125 
Q 49.515625 55.5625 49.515625 50.984375 
Q 49.515625 47.515625 48.265625 44.390625 
Q 47.015625 41.265625 44.9375 38.421875 
Q 42.875 35.59375 40.140625 32.953125 
Q 37.40625 30.328125 34.421875 27.8125 
Q 31.453125 25.296875 28.421875 22.828125 
Q 25.390625 20.359375 22.71875 17.859375 
Q 20.0625 15.375 17.96875 12.8125 
Q 15.875 10.25 14.703125 7.46875 
L 50.59375 7.46875 
L 50.59375 0 
z
" id="LiberationSans-32"/>
       <path d="M 7.625 0 
L 7.625 7.46875 
L 25.140625 7.46875 
L 25.140625 60.40625 
L 9.625 49.3125 
L 9.625 57.625 
L 25.875 68.796875 
L 33.984375 68.796875 
L 33.984375 7.46875 
L 50.734375 7.46875 
L 50.734375 0 
z
" id="LiberationSans-31"/>
       <path d="M 51.703125 34.421875 
Q 51.703125 24.515625 49.828125 17.75 
Q 47.953125 10.984375 44.703125 6.8125 
Q 41.453125 2.640625 37.0625 0.828125 
Q 32.671875 -0.984375 27.6875 -0.984375 
Q 22.65625 -0.984375 18.3125 0.828125 
Q 13.96875 2.640625 10.765625 6.78125 
Q 7.5625 10.9375 5.734375 17.703125 
Q 3.90625 24.46875 3.90625 34.421875 
Q 3.90625 44.828125 5.734375 51.640625 
Q 7.5625 58.453125 10.78125 62.5 
Q 14.015625 66.546875 18.40625 68.1875 
Q 22.796875 69.828125 27.984375 69.828125 
Q 32.90625 69.828125 37.21875 68.1875 
Q 41.546875 66.546875 44.765625 62.5 
Q 48 58.453125 49.84375 51.640625 
Q 51.703125 44.828125 51.703125 34.421875 
M 42.78125 34.421875 
Q 42.78125 42.625 41.796875 48.0625 
Q 40.828125 53.515625 38.921875 56.765625 
Q 37.015625 60.015625 34.25 61.359375 
Q 31.5 62.703125 27.984375 62.703125 
Q 24.265625 62.703125 21.4375 61.328125 
Q 18.609375 59.96875 16.671875 56.71875 
Q 14.75 53.46875 13.765625 48.015625 
Q 12.796875 42.578125 12.796875 34.421875 
Q 12.796875 26.515625 13.796875 21.09375 
Q 14.796875 15.671875 16.71875 12.375 
Q 18.65625 9.078125 21.4375 7.640625 
Q 24.21875 6.203125 27.78125 6.203125 
Q 31.25 6.203125 34.03125 7.640625 
Q 36.8125 9.078125 38.734375 12.375 
Q 40.671875 15.671875 41.71875 21.09375 
Q 42.78125 26.515625 42.78125 34.421875 
" id="LiberationSans-30"/>
       <path d="M 9.125 42.71875 
L 9.125 52.828125 
L 18.65625 52.828125 
L 18.65625 42.71875 
z
M 9.125 0 
L 9.125 10.109375 
L 18.65625 10.109375 
L 18.65625 0 
z
" id="LiberationSans-3a"/>
       <path d="M 51.21875 19 
Q 51.21875 14.265625 49.671875 10.546875 
Q 48.140625 6.84375 45.1875 4.265625 
Q 42.234375 1.703125 37.859375 0.359375 
Q 33.5 -0.984375 27.875 -0.984375 
Q 21.484375 -0.984375 17.109375 0.609375 
Q 12.75 2.203125 9.90625 4.8125 
Q 7.078125 7.421875 5.65625 10.765625 
Q 4.25 14.109375 3.8125 17.671875 
L 12.890625 18.5 
Q 13.28125 15.765625 14.328125 13.515625 
Q 15.375 11.28125 17.1875 9.671875 
Q 19 8.0625 21.625 7.171875 
Q 24.265625 6.296875 27.875 6.296875 
Q 34.515625 6.296875 38.296875 9.5625 
Q 42.09375 12.84375 42.09375 19.28125 
Q 42.09375 23.09375 40.40625 25.40625 
Q 38.71875 27.734375 36.203125 29.03125 
Q 33.6875 30.328125 30.734375 30.765625 
Q 27.78125 31.203125 25.296875 31.203125 
L 20.3125 31.203125 
L 20.3125 38.8125 
L 25.09375 38.8125 
Q 27.59375 38.8125 30.265625 39.328125 
Q 32.953125 39.84375 35.171875 41.1875 
Q 37.40625 42.53125 38.84375 44.828125 
Q 40.28125 47.125 40.28125 50.6875 
Q 40.28125 56.203125 37.03125 59.390625 
Q 33.796875 62.59375 27.390625 62.59375 
Q 21.578125 62.59375 17.984375 59.609375 
Q 14.40625 56.640625 13.8125 51.21875 
L 4.984375 51.90625 
Q 5.515625 56.453125 7.46875 59.8125 
Q 9.421875 63.1875 12.421875 65.40625 
Q 15.4375 67.625 19.28125 68.71875 
Q 23.140625 69.828125 27.484375 69.828125 
Q 33.25 69.828125 37.390625 68.375 
Q 41.546875 66.9375 44.1875 64.46875 
Q 46.828125 62.015625 48.0625 58.6875 
Q 49.3125 55.375 49.3125 51.609375 
Q 49.3125 48.578125 48.484375 45.9375 
Q 47.65625 43.3125 45.890625 41.203125 
Q 44.140625 39.109375 41.421875 37.59375 
Q 38.71875 36.078125 34.90625 35.296875 
L 34.90625 35.109375 
Q 39.0625 34.671875 42.140625 33.21875 
Q 45.21875 31.78125 47.21875 29.625 
Q 49.21875 27.484375 50.21875 24.75 
Q 51.21875 22.015625 51.21875 19 
" id="LiberationSans-33"/>
       <path d="M 51.421875 22.40625 
Q 51.421875 17.234375 49.859375 12.9375 
Q 48.296875 8.640625 45.21875 5.53125 
Q 42.140625 2.4375 37.578125 0.71875 
Q 33.015625 -0.984375 27 -0.984375 
Q 21.578125 -0.984375 17.546875 0.28125 
Q 13.53125 1.5625 10.734375 3.78125 
Q 7.953125 6 6.3125 8.984375 
Q 4.6875 11.96875 4 15.375 
L 12.890625 16.40625 
Q 13.421875 14.453125 14.390625 12.625 
Q 15.375 10.796875 17.0625 9.34375 
Q 18.75 7.90625 21.21875 7.046875 
Q 23.6875 6.203125 27.203125 6.203125 
Q 30.609375 6.203125 33.390625 7.25 
Q 36.1875 8.296875 38.15625 10.34375 
Q 40.140625 12.40625 41.203125 15.375 
Q 42.28125 18.359375 42.28125 22.21875 
Q 42.28125 25.390625 41.25 28.046875 
Q 40.234375 30.71875 38.328125 32.640625 
Q 36.421875 34.578125 33.65625 35.640625 
Q 30.90625 36.71875 27.390625 36.71875 
Q 25.203125 36.71875 23.34375 36.328125 
Q 21.484375 35.9375 19.890625 35.25 
Q 18.3125 34.578125 17.015625 33.671875 
Q 15.71875 32.765625 14.59375 31.78125 
L 6 31.78125 
L 8.296875 68.796875 
L 47.40625 68.796875 
L 47.40625 61.328125 
L 16.3125 61.328125 
L 14.984375 39.5 
Q 17.328125 41.3125 20.84375 42.59375 
Q 24.359375 43.890625 29.203125 43.890625 
Q 34.328125 43.890625 38.421875 42.328125 
Q 42.53125 40.765625 45.40625 37.90625 
Q 48.296875 35.0625 49.859375 31.109375 
Q 51.421875 27.15625 51.421875 22.40625 
" id="LiberationSans-35"/>
       <path id="LiberationSans-20"/>
       <path d="M 4.4375 22.65625 
L 4.4375 30.46875 
L 28.859375 30.46875 
L 28.859375 22.65625 
z
" id="LiberationSans-2d"/>
       <path d="M 51.21875 22.515625 
Q 51.21875 17.328125 49.78125 13 
Q 48.34375 8.6875 45.53125 5.578125 
Q 42.71875 2.484375 38.5625 0.75 
Q 34.421875 -0.984375 29 -0.984375 
Q 23 -0.984375 18.5 1.3125 
Q 14.015625 3.609375 11.03125 7.921875 
Q 8.0625 12.25 6.5625 18.53125 
Q 5.078125 24.8125 5.078125 32.8125 
Q 5.078125 42 6.765625 48.921875 
Q 8.453125 55.859375 11.625 60.5 
Q 14.796875 65.140625 19.359375 67.484375 
Q 23.921875 69.828125 29.6875 69.828125 
Q 33.203125 69.828125 36.28125 69.09375 
Q 39.359375 68.359375 41.875 66.71875 
Q 44.390625 65.09375 46.28125 62.40625 
Q 48.1875 59.71875 49.3125 55.8125 
L 40.921875 54.296875 
Q 39.546875 58.734375 36.546875 60.71875 
Q 33.546875 62.703125 29.59375 62.703125 
Q 25.984375 62.703125 23.046875 60.984375 
Q 20.125 59.28125 18.0625 55.875 
Q 16.015625 52.484375 14.90625 47.359375 
Q 13.8125 42.234375 13.8125 35.40625 
Q 16.21875 39.84375 20.5625 42.15625 
Q 24.90625 44.484375 30.515625 44.484375 
Q 35.203125 44.484375 39.015625 42.96875 
Q 42.828125 41.453125 45.53125 38.59375 
Q 48.25 35.75 49.734375 31.671875 
Q 51.21875 27.59375 51.21875 22.515625 
M 42.28125 22.125 
Q 42.28125 25.6875 41.40625 28.5625 
Q 40.53125 31.453125 38.765625 33.46875 
Q 37.015625 35.5 34.421875 36.59375 
Q 31.84375 37.703125 28.421875 37.703125 
Q 26.03125 37.703125 23.578125 36.984375 
Q 21.140625 36.28125 19.15625 34.6875 
Q 17.1875 33.109375 15.9375 30.515625 
Q 14.703125 27.9375 14.703125 24.21875 
Q 14.703125 20.40625 15.671875 17.109375 
Q 16.65625 13.8125 18.484375 11.375 
Q 20.3125 8.9375 22.890625 7.515625 
Q 25.484375 6.109375 28.71875 6.109375 
Q 31.890625 6.109375 34.40625 7.203125 
Q 36.921875 8.296875 38.671875 10.375 
Q 40.4375 12.453125 41.359375 15.421875 
Q 42.28125 18.40625 42.28125 22.125 
" id="LiberationSans-36"/>
      </defs>
      <g style="fill:#262626;" transform="translate(25.5765625 370.646875)scale(0.1 -0.1)">
       <use xlink:href="#LiberationSans-32"/>
       <use x="55.615234375" xlink:href="#LiberationSans-30"/>
       <use x="111.23046875" xlink:href="#LiberationSans-31"/>
       <use x="166.845703125" xlink:href="#LiberationSans-35"/>
       <use x="222.4609375" xlink:href="#LiberationSans-2d"/>
       <use x="255.76171875" xlink:href="#LiberationSans-31"/>
       <use x="311.376953125" xlink:href="#LiberationSans-31"/>
       <use x="366.9921875" xlink:href="#LiberationSans-2d"/>
       <use x="400.29296875" xlink:href="#LiberationSans-31"/>
       <use x="455.908203125" xlink:href="#LiberationSans-36"/>
       <use x="511.5234375" xlink:href="#LiberationSans-20"/>
       <use x="539.306640625" xlink:href="#LiberationSans-31"/>
       <use x="594.921875" xlink:href="#LiberationSans-30"/>
       <use x="650.537109375" xlink:href="#LiberationSans-3a"/>
       <use x="678.3203125" xlink:href="#LiberationSans-31"/>
       <use x="733.935546875" xlink:href="#LiberationSans-33"/>
       <use x="789.55078125" xlink:href="#LiberationSans-3a"/>
       <use x="817.333984375" xlink:href="#LiberationSans-30"/>
       <use x="872.94921875" xlink:href="#LiberationSans-30"/>
      </g>
     </g>
    </g>
    <g id="xtick_2">
     <g id="line2d_4">
      <path clip-path="url(#pd5b57ce403)" d="M 183.655828 356.4 
L 183.655828 39.6 
" style="fill:none;stroke:#ffffff;stroke-linecap:round;"/>
     </g>
     <g id="line2d_5"/>
     <g id="line2d_6"/>
     <g id="text_2">
      <!-- 2015-11-18 13:52:00 -->
      <defs>
       <path d="M 51.265625 19.1875 
Q 51.265625 14.796875 49.875 11.109375 
Q 48.484375 7.421875 45.625 4.734375 
Q 42.78125 2.046875 38.328125 0.53125 
Q 33.890625 -0.984375 27.828125 -0.984375 
Q 21.78125 -0.984375 17.359375 0.53125 
Q 12.9375 2.046875 10.03125 4.703125 
Q 7.125 7.375 5.734375 11.0625 
Q 4.34375 14.75 4.34375 19.09375 
Q 4.34375 22.859375 5.484375 25.78125 
Q 6.640625 28.71875 8.5625 30.828125 
Q 10.5 32.953125 12.96875 34.25 
Q 15.4375 35.546875 18.0625 35.984375 
L 18.0625 36.1875 
Q 15.1875 36.859375 12.90625 38.375 
Q 10.640625 39.890625 9.09375 42.015625 
Q 7.5625 44.140625 6.75 46.71875 
Q 5.953125 49.3125 5.953125 52.203125 
Q 5.953125 55.8125 7.34375 59 
Q 8.734375 62.203125 11.46875 64.625 
Q 14.203125 67.046875 18.25 68.4375 
Q 22.3125 69.828125 27.640625 69.828125 
Q 33.25 69.828125 37.375 68.40625 
Q 41.5 67 44.203125 64.578125 
Q 46.921875 62.15625 48.234375 58.9375 
Q 49.5625 55.71875 49.5625 52.09375 
Q 49.5625 49.265625 48.75 46.671875 
Q 47.953125 44.09375 46.40625 41.96875 
Q 44.875 39.84375 42.59375 38.34375 
Q 40.328125 36.859375 37.359375 36.28125 
L 37.359375 36.078125 
Q 40.328125 35.59375 42.859375 34.296875 
Q 45.40625 33.015625 47.265625 30.890625 
Q 49.125 28.765625 50.1875 25.828125 
Q 51.265625 22.90625 51.265625 19.1875 
M 40.4375 51.609375 
Q 40.4375 54.203125 39.765625 56.34375 
Q 39.109375 58.5 37.59375 60.03125 
Q 36.078125 61.578125 33.640625 62.421875 
Q 31.203125 63.28125 27.640625 63.28125 
Q 24.171875 63.28125 21.78125 62.421875 
Q 19.390625 61.578125 17.84375 60.03125 
Q 16.3125 58.5 15.625 56.34375 
Q 14.9375 54.203125 14.9375 51.609375 
Q 14.9375 49.5625 15.46875 47.40625 
Q 16.015625 45.265625 17.421875 43.5 
Q 18.84375 41.75 21.328125 40.625 
Q 23.828125 39.5 27.734375 39.5 
Q 31.890625 39.5 34.40625 40.625 
Q 36.921875 41.75 38.25 43.5 
Q 39.59375 45.265625 40.015625 47.40625 
Q 40.4375 49.5625 40.4375 51.609375 
M 42.140625 20.015625 
Q 42.140625 22.515625 41.453125 24.828125 
Q 40.765625 27.15625 39.109375 28.9375 
Q 37.453125 30.71875 34.640625 31.8125 
Q 31.84375 32.90625 27.640625 32.90625 
Q 23.78125 32.90625 21.0625 31.8125 
Q 18.359375 30.71875 16.671875 28.90625 
Q 14.984375 27.09375 14.203125 24.71875 
Q 13.421875 22.359375 13.421875 19.828125 
Q 13.421875 16.65625 14.203125 14.03125 
Q 14.984375 11.421875 16.6875 9.546875 
Q 18.40625 7.671875 21.1875 6.640625 
Q 23.96875 5.609375 27.9375 5.609375 
Q 31.9375 5.609375 34.671875 6.640625 
Q 37.40625 7.671875 39.0625 9.546875 
Q 40.71875 11.421875 41.421875 14.078125 
Q 42.140625 16.75 42.140625 20.015625 
" id="LiberationSans-38"/>
      </defs>
      <g style="fill:#262626;" transform="translate(137.232390414 370.646875)scale(0.1 -0.1)">
       <use xlink:href="#LiberationSans-32"/>
       <use x="55.615234375" xlink:href="#LiberationSans-30"/>
       <use x="111.23046875" xlink:href="#LiberationSans-31"/>
       <use x="166.845703125" xlink:href="#LiberationSans-35"/>
       <use x="222.4609375" xlink:href="#LiberationSans-2d"/>
       <use x="255.76171875" xlink:href="#LiberationSans-31"/>
       <use x="311.376953125" xlink:href="#LiberationSans-31"/>
       <use x="366.9921875" xlink:href="#LiberationSans-2d"/>
       <use x="400.29296875" xlink:href="#LiberationSans-31"/>
       <use x="455.908203125" xlink:href="#LiberationSans-38"/>
       <use x="511.5234375" xlink:href="#LiberationSans-20"/>
       <use x="539.306640625" xlink:href="#LiberationSans-31"/>
       <use x="594.921875" xlink:href="#LiberationSans-33"/>
       <use x="650.537109375" xlink:href="#LiberationSans-3a"/>
       <use x="678.3203125" xlink:href="#LiberationSans-35"/>
       <use x="733.935546875" xlink:href="#LiberationSans-32"/>
       <use x="789.55078125" xlink:href="#LiberationSans-3a"/>
       <use x="817.333984375" xlink:href="#LiberationSans-30"/>
       <use x="872.94921875" xlink:href="#LiberationSans-30"/>
      </g>
     </g>
    </g>
    <g id="xtick_3">
     <g id="line2d_7">
      <path clip-path="url(#pd5b57ce403)" d="M 295.311656 356.4 
L 295.311656 39.6 
" style="fill:none;stroke:#ffffff;stroke-linecap:round;"/>
     </g>
     <g id="line2d_8"/>
     <g id="line2d_9"/>
     <g id="text_3">
      <!-- 2015-11-23 09:25:00 -->
      <defs>
       <path d="M 50.875 35.796875 
Q 50.875 26.609375 49.140625 19.703125 
Q 47.40625 12.796875 44.1875 8.203125 
Q 40.96875 3.609375 36.34375 1.3125 
Q 31.734375 -0.984375 25.984375 -0.984375 
Q 22.015625 -0.984375 18.84375 -0.171875 
Q 15.671875 0.640625 13.171875 2.34375 
Q 10.6875 4.046875 8.921875 6.78125 
Q 7.171875 9.515625 6.109375 13.375 
L 14.5 14.703125 
Q 15.875 10.25 18.78125 8.171875 
Q 21.6875 6.109375 26.125 6.109375 
Q 29.6875 6.109375 32.640625 7.78125 
Q 35.59375 9.46875 37.671875 12.84375 
Q 39.75 16.21875 40.921875 21.296875 
Q 42.09375 26.375 42.1875 33.203125 
Q 41.15625 30.90625 39.375 29.09375 
Q 37.59375 27.296875 35.328125 26.046875 
Q 33.0625 24.8125 30.421875 24.140625 
Q 27.78125 23.484375 25.09375 23.484375 
Q 20.40625 23.484375 16.625 25.171875 
Q 12.84375 26.859375 10.203125 29.875 
Q 7.5625 32.90625 6.125 37.171875 
Q 4.6875 41.453125 4.6875 46.6875 
Q 4.6875 52 6.21875 56.296875 
Q 7.765625 60.59375 10.6875 63.59375 
Q 13.625 66.609375 17.890625 68.21875 
Q 22.171875 69.828125 27.59375 69.828125 
Q 39.0625 69.828125 44.96875 61.328125 
Q 50.875 52.828125 50.875 35.796875 
M 41.3125 44.28125 
Q 41.3125 48.09375 40.40625 51.453125 
Q 39.5 54.828125 37.71875 57.3125 
Q 35.9375 59.8125 33.328125 61.25 
Q 30.71875 62.703125 27.296875 62.703125 
Q 24.125 62.703125 21.578125 61.578125 
Q 19.046875 60.453125 17.28125 58.375 
Q 15.53125 56.296875 14.578125 53.3125 
Q 13.625 50.34375 13.625 46.6875 
Q 13.625 43.21875 14.46875 40.234375 
Q 15.328125 37.25 17.03125 35.078125 
Q 18.75 32.90625 21.28125 31.65625 
Q 23.828125 30.421875 27.203125 30.421875 
Q 29.640625 30.421875 32.15625 31.25 
Q 34.671875 32.078125 36.6875 33.78125 
Q 38.71875 35.5 40.015625 38.109375 
Q 41.3125 40.71875 41.3125 44.28125 
" id="LiberationSans-39"/>
      </defs>
      <g style="fill:#262626;" transform="translate(248.888218328 370.646875)scale(0.1 -0.1)">
       <use xlink:href="#LiberationSans-32"/>
       <use x="55.615234375" xlink:href="#LiberationSans-30"/>
       <use x="111.23046875" xlink:href="#LiberationSans-31"/>
       <use x="166.845703125" xlink:href="#LiberationSans-35"/>
       <use x="222.4609375" xlink:href="#LiberationSans-2d"/>
       <use x="255.76171875" xlink:href="#LiberationSans-31"/>
       <use x="311.376953125" xlink:href="#LiberationSans-31"/>
       <use x="366.9921875" xlink:href="#LiberationSans-2d"/>
       <use x="400.29296875" xlink:href="#LiberationSans-32"/>
       <use x="455.908203125" xlink:href="#LiberationSans-33"/>
       <use x="511.5234375" xlink:href="#LiberationSans-20"/>
       <use x="539.306640625" xlink:href="#LiberationSans-30"/>
       <use x="594.921875" xlink:href="#LiberationSans-39"/>
       <use x="650.537109375" xlink:href="#LiberationSans-3a"/>
       <use x="678.3203125" xlink:href="#LiberationSans-32"/>
       <use x="733.935546875" xlink:href="#LiberationSans-35"/>
       <use x="789.55078125" xlink:href="#LiberationSans-3a"/>
       <use x="817.333984375" xlink:href="#LiberationSans-30"/>
       <use x="872.94921875" xlink:href="#LiberationSans-30"/>
      </g>
     </g>
    </g>
    <g id="xtick_4">
     <g id="line2d_10">
      <path clip-path="url(#pd5b57ce403)" d="M 406.967484 356.4 
L 406.967484 39.6 
" style="fill:none;stroke:#ffffff;stroke-linecap:round;"/>
     </g>
     <g id="line2d_11"/>
     <g id="line2d_12"/>
     <g id="text_4">
      <!-- 2015-11-25 11:00:00 -->
      <g style="fill:#262626;" transform="translate(360.544046242 370.646875)scale(0.1 -0.1)">
       <use xlink:href="#LiberationSans-32"/>
       <use x="55.615234375" xlink:href="#LiberationSans-30"/>
       <use x="111.23046875" xlink:href="#LiberationSans-31"/>
       <use x="166.845703125" xlink:href="#LiberationSans-35"/>
       <use x="222.4609375" xlink:href="#LiberationSans-2d"/>
       <use x="255.76171875" xlink:href="#LiberationSans-31"/>
       <use x="311.376953125" xlink:href="#LiberationSans-31"/>
       <use x="366.9921875" xlink:href="#LiberationSans-2d"/>
       <use x="400.29296875" xlink:href="#LiberationSans-32"/>
       <use x="455.908203125" xlink:href="#LiberationSans-35"/>
       <use x="511.5234375" xlink:href="#LiberationSans-20"/>
       <use x="539.306640625" xlink:href="#LiberationSans-31"/>
       <use x="594.921875" xlink:href="#LiberationSans-31"/>
       <use x="650.537109375" xlink:href="#LiberationSans-3a"/>
       <use x="678.3203125" xlink:href="#LiberationSans-30"/>
       <use x="733.935546875" xlink:href="#LiberationSans-30"/>
       <use x="789.55078125" xlink:href="#LiberationSans-3a"/>
       <use x="817.333984375" xlink:href="#LiberationSans-30"/>
       <use x="872.94921875" xlink:href="#LiberationSans-30"/>
      </g>
     </g>
    </g>
    <g id="text_5">
     <!-- time -->
     <defs>
      <path d="M 13.484375 24.5625 
Q 13.484375 20.40625 14.328125 16.90625 
Q 15.1875 13.421875 16.96875 10.90625 
Q 18.75 8.40625 21.53125 7 
Q 24.3125 5.609375 28.21875 5.609375 
Q 33.9375 5.609375 37.375 7.90625 
Q 40.828125 10.203125 42.046875 13.71875 
L 49.75 11.53125 
Q 48.921875 9.328125 47.4375 7.109375 
Q 45.953125 4.890625 43.453125 3.09375 
Q 40.96875 1.3125 37.234375 0.15625 
Q 33.5 -0.984375 28.21875 -0.984375 
Q 16.5 -0.984375 10.375 6 
Q 4.25 12.984375 4.25 26.765625 
Q 4.25 34.1875 6.09375 39.328125 
Q 7.953125 44.484375 11.171875 47.703125 
Q 14.40625 50.921875 18.703125 52.359375 
Q 23 53.8125 27.875 53.8125 
Q 34.515625 53.8125 38.984375 51.65625 
Q 43.453125 49.515625 46.15625 45.71875 
Q 48.875 41.9375 50.015625 36.8125 
Q 51.171875 31.6875 51.171875 25.734375 
L 51.171875 24.5625 
z
M 42.09375 31.296875 
Q 41.359375 39.65625 37.84375 43.484375 
Q 34.328125 47.3125 27.734375 47.3125 
Q 25.53125 47.3125 23.109375 46.609375 
Q 20.703125 45.90625 18.65625 44.09375 
Q 16.609375 42.28125 15.1875 39.171875 
Q 13.765625 36.078125 13.578125 31.296875 
z
" id="LiberationSans-65"/>
      <path d="M 6.6875 64.0625 
L 6.6875 72.46875 
L 15.484375 72.46875 
L 15.484375 64.0625 
z
M 6.6875 0 
L 6.6875 52.828125 
L 15.484375 52.828125 
L 15.484375 0 
z
" id="LiberationSans-69"/>
      <path d="M 27.046875 0.390625 
Q 25.046875 -0.140625 22.96875 -0.453125 
Q 20.90625 -0.78125 18.171875 -0.78125 
Q 7.625 -0.78125 7.625 11.1875 
L 7.625 46.4375 
L 1.515625 46.4375 
L 1.515625 52.828125 
L 7.953125 52.828125 
L 10.546875 64.65625 
L 16.40625 64.65625 
L 16.40625 52.828125 
L 26.171875 52.828125 
L 26.171875 46.4375 
L 16.40625 46.4375 
L 16.40625 13.09375 
Q 16.40625 9.28125 17.640625 7.734375 
Q 18.890625 6.203125 21.96875 6.203125 
Q 23.25 6.203125 24.4375 6.390625 
Q 25.640625 6.59375 27.046875 6.890625 
z
" id="LiberationSans-74"/>
      <path d="M 37.5 0 
L 37.5 33.5 
Q 37.5 37.359375 37.015625 39.9375 
Q 36.53125 42.53125 35.375 44.109375 
Q 34.234375 45.703125 32.375 46.359375 
Q 30.515625 47.015625 27.828125 47.015625 
Q 25.046875 47.015625 22.796875 45.921875 
Q 20.5625 44.828125 18.96875 42.75 
Q 17.390625 40.671875 16.53125 37.625 
Q 15.671875 34.578125 15.671875 30.609375 
L 15.671875 0 
L 6.9375 0 
L 6.9375 41.546875 
Q 6.9375 43.21875 6.90625 45.046875 
Q 6.890625 46.875 6.828125 48.5 
Q 6.78125 50.140625 6.734375 51.3125 
Q 6.6875 52.484375 6.640625 52.828125 
L 14.9375 52.828125 
Q 14.984375 52.59375 15.03125 51.515625 
Q 15.09375 50.4375 15.15625 49.046875 
Q 15.234375 47.65625 15.28125 46.21875 
Q 15.328125 44.78125 15.328125 43.796875 
L 15.484375 43.796875 
Q 16.65625 46.09375 18.015625 47.953125 
Q 19.390625 49.8125 21.21875 51.09375 
Q 23.046875 52.390625 25.40625 53.09375 
Q 27.78125 53.8125 30.90625 53.8125 
Q 36.921875 53.8125 40.40625 51.421875 
Q 43.890625 49.03125 45.265625 43.796875 
L 45.40625 43.796875 
Q 46.578125 46.09375 48.046875 47.953125 
Q 49.515625 49.8125 51.46875 51.09375 
Q 53.421875 52.390625 55.859375 53.09375 
Q 58.296875 53.8125 61.421875 53.8125 
Q 65.4375 53.8125 68.328125 52.734375 
Q 71.234375 51.65625 73.09375 49.40625 
Q 74.953125 47.171875 75.828125 43.625 
Q 76.703125 40.09375 76.703125 35.203125 
L 76.703125 0 
L 68.015625 0 
L 68.015625 33.5 
Q 68.015625 37.359375 67.53125 39.9375 
Q 67.046875 42.53125 65.890625 44.109375 
Q 64.75 45.703125 62.890625 46.359375 
Q 61.03125 47.015625 58.34375 47.015625 
Q 55.5625 47.015625 53.3125 45.96875 
Q 51.078125 44.921875 49.484375 42.875 
Q 47.90625 40.828125 47.046875 37.75 
Q 46.1875 34.671875 46.1875 30.609375 
L 46.1875 0 
z
" id="LiberationSans-6d"/>
     </defs>
     <g style="fill:#262626;" transform="translate(284.81015625 385.6934375)scale(0.11 -0.11)">
      <use xlink:href="#LiberationSans-74"/>
      <use x="27.783203125" xlink:href="#LiberationSans-69"/>
      <use x="50.0" xlink:href="#LiberationSans-6d"/>
      <use x="133.30078125" xlink:href="#LiberationSans-65"/>
     </g>
    </g>
   </g>
   <g id="matplotlib.axis_2">
    <g id="ytick_1">
     <g id="line2d_13">
      <path clip-path="url(#pd5b57ce403)" d="M 72 356.4 
L 518.4 356.4 
" style="fill:none;stroke:#ffffff;stroke-linecap:round;"/>
     </g>
     <g id="line2d_14"/>
     <g id="line2d_15"/>
     <g id="text_6">
      <!-- −35750 -->
      <defs>
       <path d="M 4.9375 29.6875 
L 4.9375 36.8125 
L 53.515625 36.8125 
L 53.515625 29.6875 
z
" id="LiberationSans-2212"/>
       <path d="M 50.59375 61.671875 
Q 45.40625 53.765625 41.0625 46.453125 
Q 36.71875 39.15625 33.59375 31.75 
Q 30.46875 24.359375 28.734375 16.578125 
Q 27 8.796875 27 0 
L 17.828125 0 
Q 17.828125 8.25 19.78125 16.1875 
Q 21.734375 24.125 25.046875 31.765625 
Q 28.375 39.40625 32.765625 46.78125 
Q 37.15625 54.15625 42.09375 61.328125 
L 5.125 61.328125 
L 5.125 68.796875 
L 50.59375 68.796875 
z
" id="LiberationSans-37"/>
      </defs>
      <g style="fill:#262626;" transform="translate(31.3546875 358.9859375)scale(0.1 -0.1)">
       <use xlink:href="#LiberationSans-2212"/>
       <use x="58.3984375" xlink:href="#LiberationSans-33"/>
       <use x="114.013671875" xlink:href="#LiberationSans-35"/>
       <use x="169.62890625" xlink:href="#LiberationSans-37"/>
       <use x="225.244140625" xlink:href="#LiberationSans-35"/>
       <use x="280.859375" xlink:href="#LiberationSans-30"/>
      </g>
     </g>
    </g>
    <g id="ytick_2">
     <g id="line2d_16">
      <path clip-path="url(#pd5b57ce403)" d="M 72 321.2 
L 518.4 321.2 
" style="fill:none;stroke:#ffffff;stroke-linecap:round;"/>
     </g>
     <g id="line2d_17"/>
     <g id="line2d_18"/>
     <g id="text_7">
      <!-- −35700 -->
      <g style="fill:#262626;" transform="translate(31.3546875 323.7859375)scale(0.1 -0.1)">
       <use xlink:href="#LiberationSans-2212"/>
       <use x="58.3984375" xlink:href="#LiberationSans-33"/>
       <use x="114.013671875" xlink:href="#LiberationSans-35"/>
       <use x="169.62890625" xlink:href="#LiberationSans-37"/>
       <use x="225.244140625" xlink:href="#LiberationSans-30"/>
       <use x="280.859375" xlink:href="#LiberationSans-30"/>
      </g>
     </g>
    </g>
    <g id="ytick_3">
     <g id="line2d_19">
      <path clip-path="url(#pd5b57ce403)" d="M 72 286 
L 518.4 286 
" style="fill:none;stroke:#ffffff;stroke-linecap:round;"/>
     </g>
     <g id="line2d_20"/>
     <g id="line2d_21"/>
     <g id="text_8">
      <!-- −35650 -->
      <g style="fill:#262626;" transform="translate(31.3546875 288.5859375)scale(0.1 -0.1)">
       <use xlink:href="#LiberationSans-2212"/>
       <use x="58.3984375" xlink:href="#LiberationSans-33"/>
       <use x="114.013671875" xlink:href="#LiberationSans-35"/>
       <use x="169.62890625" xlink:href="#LiberationSans-36"/>
       <use x="225.244140625" xlink:href="#LiberationSans-35"/>
       <use x="280.859375" xlink:href="#LiberationSans-30"/>
      </g>
     </g>
    </g>
    <g id="ytick_4">
     <g id="line2d_22">
      <path clip-path="url(#pd5b57ce403)" d="M 72 250.8 
L 518.4 250.8 
" style="fill:none;stroke:#ffffff;stroke-linecap:round;"/>
     </g>
     <g id="line2d_23"/>
     <g id="line2d_24"/>
     <g id="text_9">
      <!-- −35600 -->
      <g style="fill:#262626;" transform="translate(31.3546875 253.3859375)scale(0.1 -0.1)">
       <use xlink:href="#LiberationSans-2212"/>
       <use x="58.3984375" xlink:href="#LiberationSans-33"/>
       <use x="114.013671875" xlink:href="#LiberationSans-35"/>
       <use x="169.62890625" xlink:href="#LiberationSans-36"/>
       <use x="225.244140625" xlink:href="#LiberationSans-30"/>
       <use x="280.859375" xlink:href="#LiberationSans-30"/>
      </g>
     </g>
    </g>
    <g id="ytick_5">
     <g id="line2d_25">
      <path clip-path="url(#pd5b57ce403)" d="M 72 215.6 
L 518.4 215.6 
" style="fill:none;stroke:#ffffff;stroke-linecap:round;"/>
     </g>
     <g id="line2d_26"/>
     <g id="line2d_27"/>
     <g id="text_10">
      <!-- −35550 -->
      <g style="fill:#262626;" transform="translate(31.3546875 218.1859375)scale(0.1 -0.1)">
       <use xlink:href="#LiberationSans-2212"/>
       <use x="58.3984375" xlink:href="#LiberationSans-33"/>
       <use x="114.013671875" xlink:href="#LiberationSans-35"/>
       <use x="169.62890625" xlink:href="#LiberationSans-35"/>
       <use x="225.244140625" xlink:href="#LiberationSans-35"/>
       <use x="280.859375" xlink:href="#LiberationSans-30"/>
      </g>
     </g>
    </g>
    <g id="ytick_6">
     <g id="line2d_28">
      <path clip-path="url(#pd5b57ce403)" d="M 72 180.4 
L 518.4 180.4 
" style="fill:none;stroke:#ffffff;stroke-linecap:round;"/>
     </g>
     <g id="line2d_29"/>
     <g id="line2d_30"/>
     <g id="text_11">
      <!-- −35500 -->
      <g style="fill:#262626;" transform="translate(31.3546875 182.9859375)scale(0.1 -0.1)">
       <use xlink:href="#LiberationSans-2212"/>
       <use x="58.3984375" xlink:href="#LiberationSans-33"/>
       <use x="114.013671875" xlink:href="#LiberationSans-35"/>
       <use x="169.62890625" xlink:href="#LiberationSans-35"/>
       <use x="225.244140625" xlink:href="#LiberationSans-30"/>
       <use x="280.859375" xlink:href="#LiberationSans-30"/>
      </g>
     </g>
    </g>
    <g id="ytick_7">
     <g id="line2d_31">
      <path clip-path="url(#pd5b57ce403)" d="M 72 145.2 
L 518.4 145.2 
" style="fill:none;stroke:#ffffff;stroke-linecap:round;"/>
     </g>
     <g id="line2d_32"/>
     <g id="line2d_33"/>
     <g id="text_12">
      <!-- −35450 -->
      <defs>
       <path d="M 43.015625 15.578125 
L 43.015625 0 
L 34.71875 0 
L 34.71875 15.578125 
L 2.296875 15.578125 
L 2.296875 22.40625 
L 33.796875 68.796875 
L 43.015625 68.796875 
L 43.015625 22.515625 
L 52.6875 22.515625 
L 52.6875 15.578125 
z
M 34.71875 58.890625 
Q 34.625 58.640625 34.234375 57.9375 
Q 33.84375 57.234375 33.34375 56.34375 
Q 32.859375 55.46875 32.34375 54.5625 
Q 31.84375 53.65625 31.453125 53.078125 
L 13.8125 27.09375 
Q 13.578125 26.703125 13.109375 26.0625 
Q 12.640625 25.4375 12.15625 24.78125 
Q 11.671875 24.125 11.171875 23.484375 
Q 10.6875 22.859375 10.40625 22.515625 
L 34.71875 22.515625 
z
" id="LiberationSans-34"/>
      </defs>
      <g style="fill:#262626;" transform="translate(31.3546875 147.7859375)scale(0.1 -0.1)">
       <use xlink:href="#LiberationSans-2212"/>
       <use x="58.3984375" xlink:href="#LiberationSans-33"/>
       <use x="114.013671875" xlink:href="#LiberationSans-35"/>
       <use x="169.62890625" xlink:href="#LiberationSans-34"/>
       <use x="225.244140625" xlink:href="#LiberationSans-35"/>
       <use x="280.859375" xlink:href="#LiberationSans-30"/>
      </g>
     </g>
    </g>
    <g id="ytick_8">
     <g id="line2d_34">
      <path clip-path="url(#pd5b57ce403)" d="M 72 110 
L 518.4 110 
" style="fill:none;stroke:#ffffff;stroke-linecap:round;"/>
     </g>
     <g id="line2d_35"/>
     <g id="line2d_36"/>
     <g id="text_13">
      <!-- −35400 -->
      <g style="fill:#262626;" transform="translate(31.3546875 112.5859375)scale(0.1 -0.1)">
       <use xlink:href="#LiberationSans-2212"/>
       <use x="58.3984375" xlink:href="#LiberationSans-33"/>
       <use x="114.013671875" xlink:href="#LiberationSans-35"/>
       <use x="169.62890625" xlink:href="#LiberationSans-34"/>
       <use x="225.244140625" xlink:href="#LiberationSans-30"/>
       <use x="280.859375" xlink:href="#LiberationSans-30"/>
      </g>
     </g>
    </g>
    <g id="ytick_9">
     <g id="line2d_37">
      <path clip-path="url(#pd5b57ce403)" d="M 72 74.8 
L 518.4 74.8 
" style="fill:none;stroke:#ffffff;stroke-linecap:round;"/>
     </g>
     <g id="line2d_38"/>
     <g id="line2d_39"/>
     <g id="text_14">
      <!-- −35350 -->
      <g style="fill:#262626;" transform="translate(31.3546875 77.3859375)scale(0.1 -0.1)">
       <use xlink:href="#LiberationSans-2212"/>
       <use x="58.3984375" xlink:href="#LiberationSans-33"/>
       <use x="114.013671875" xlink:href="#LiberationSans-35"/>
       <use x="169.62890625" xlink:href="#LiberationSans-33"/>
       <use x="225.244140625" xlink:href="#LiberationSans-35"/>
       <use x="280.859375" xlink:href="#LiberationSans-30"/>
      </g>
     </g>
    </g>
    <g id="ytick_10">
     <g id="line2d_40">
      <path clip-path="url(#pd5b57ce403)" d="M 72 39.6 
L 518.4 39.6 
" style="fill:none;stroke:#ffffff;stroke-linecap:round;"/>
     </g>
     <g id="line2d_41"/>
     <g id="line2d_42"/>
     <g id="text_15">
      <!-- −35300 -->
      <g style="fill:#262626;" transform="translate(31.3546875 42.1859375)scale(0.1 -0.1)">
       <use xlink:href="#LiberationSans-2212"/>
       <use x="58.3984375" xlink:href="#LiberationSans-33"/>
       <use x="114.013671875" xlink:href="#LiberationSans-35"/>
       <use x="169.62890625" xlink:href="#LiberationSans-33"/>
       <use x="225.244140625" xlink:href="#LiberationSans-30"/>
       <use x="280.859375" xlink:href="#LiberationSans-30"/>
      </g>
     </g>
    </g>
   </g>
   <g id="line2d_43">
    <path clip-path="url(#pd5b57ce403)" d="M 72 109.738415 
L 72.223312 114.497745 
L 72.446623 117.53565 
L 73.33987 123.199475 
L 73.563182 116.22621 
L 73.786493 132.725176 
L 74.009805 135.351096 
L 74.233117 129.687271 
L 74.456428 128.377831 
L 74.67974 129.687271 
L 75.126363 129.687271 
L 75.349675 123.611461 
L 75.572986 121.890035 
L 75.796298 124.927941 
L 76.01961 131.003751 
L 76.912856 120.16157 
L 77.35948 124.927941 
L 77.582791 123.199475 
L 77.806103 127.965846 
L 78.029415 120.16157 
L 78.252726 121.47805 
L 78.476038 121.47805 
L 78.69935 118.440145 
L 78.922661 121.066065 
L 79.145973 119.749585 
L 79.369285 122.78749 
L 79.592596 128.863301 
L 79.815908 127.553861 
L 80.03922 132.313191 
L 80.262531 129.275286 
L 80.485843 129.275286 
L 80.709155 132.313191 
L 80.932466 133.629671 
L 81.155778 128.863301 
L 81.37909 129.275286 
L 81.825713 126.237381 
L 82.049025 129.275286 
L 82.272336 123.199475 
L 82.495648 121.890035 
L 82.718959 122.302021 
L 82.942271 124.927941 
L 83.165583 131.003751 
L 83.388894 132.725176 
L 83.835518 138.800986 
L 84.058829 137.079561 
L 84.282141 138.800986 
L 84.505453 144.876796 
L 84.952076 150.540621 
L 85.398699 142.743386 
L 85.622011 145.781291 
L 85.845323 155.792461 
L 86.068634 152.754556 
L 86.291946 155.380476 
L 86.515258 159.727821 
L 86.738569 155.380476 
L 86.961881 162.765726 
L 87.185193 159.727821 
L 87.631816 163.258236 
L 87.855128 178.447761 
L 88.078439 178.859746 
L 88.301751 177.543266 
L 88.525063 177.131281 
L 88.748374 177.543266 
L 88.971686 180.581171 
L 89.194997 177.543266 
L 89.418309 177.543266 
L 89.641621 180.169186 
L 89.864932 180.169186 
L 90.311556 182.795106 
L 90.534867 182.795106 
L 90.758179 180.169186 
L 90.981491 184.111586 
L 91.204802 182.795106 
L 91.428114 190.187396 
L 91.874737 181.485666 
L 92.098049 183.207091 
L 92.321361 182.795106 
L 92.767984 174.093376 
L 92.991296 175.409856 
L 93.214607 169.334046 
L 93.437919 169.334046 
L 93.661231 169.746031 
L 93.884542 163.670221 
L 94.107854 169.746031 
L 94.554477 169.746031 
L 94.777789 166.708126 
L 95.001101 171.055471 
L 95.447724 168.429551 
L 95.671036 163.670221 
L 95.894347 164.082206 
L 96.117659 161.044301 
L 96.564282 168.429551 
L 96.787594 168.429551 
L 97.010905 169.746031 
L 97.234217 170.158016 
L 97.457529 170.158016 
L 97.68084 168.841536 
L 97.904152 163.596736 
L 98.127464 164.906176 
L 98.350775 170.981986 
L 98.574087 164.906176 
L 98.797399 164.906176 
L 99.02071 160.558831 
L 99.244022 158.523981 
L 99.467334 164.599791 
L 99.690645 159.875661 
L 99.913957 164.599791 
L 100.36058 167.296111 
L 100.583892 171.685696 
L 101.030515 168.989376 
L 101.253827 170.334016 
L 101.477139 170.334016 
L 101.70045 173.371921 
L 101.923762 173.371921 
L 102.147074 172.027281 
L 102.370385 171.685696 
L 102.593697 173.371921 
L 102.817009 167.296111 
L 103.04032 158.182396 
L 103.263632 158.182396 
L 103.486943 159.875661 
L 103.710255 159.875661 
L 103.933567 162.571981 
L 104.603502 162.571981 
L 104.826813 165.609886 
L 105.050125 165.609886 
L 105.273437 161.220301 
L 105.496748 160.878716 
L 105.72006 162.571981 
L 105.943372 178.800922 
L 106.166683 180.494187 
L 106.389995 168.684152 
L 106.613307 171.380472 
L 106.836618 181.838827 
L 107.05993 177.114697 
L 107.283242 184.535147 
L 107.506553 181.838827 
L 107.729865 181.838827 
L 107.953177 180.494187 
L 108.176488 181.838827 
L 108.3998 172.725112 
L 108.623112 172.725112 
L 108.846423 175.763017 
L 109.069735 172.725112 
L 109.293047 167.332472 
L 109.516358 170.711962 
L 109.73967 172.063642 
L 109.962981 169.025737 
L 110.186293 169.025737 
L 110.409605 173.408282 
L 110.632916 170.370377 
L 110.856228 171.722057 
L 111.07954 176.104602 
L 111.302851 177.797867 
L 111.526163 174.759962 
L 111.749475 168.684152 
L 111.972786 168.342567 
L 112.196098 168.342567 
L 112.41941 171.380472 
L 112.642721 163.611396 
L 113.089345 160.573491 
L 113.312656 162.266756 
L 113.535968 160.915076 
L 113.75928 162.266756 
L 113.982591 156.874116 
L 114.205903 159.570436 
L 114.429215 159.570436 
L 114.652526 156.532531 
L 114.875838 156.190946 
L 115.09915 148.763456 
L 115.545773 158.887266 
L 115.769085 158.887266 
L 116.215708 156.190946 
L 116.43902 156.190946 
L 116.662331 153.494626 
L 116.885643 153.494626 
L 117.108954 150.798306 
L 118.225513 150.798306 
L 118.448824 147.760401 
L 118.672136 149.105041 
L 118.895448 149.105041 
L 119.118759 152.142946 
L 119.342071 165.987832 
L 119.565383 165.987832 
L 119.788694 168.684152 
L 120.012006 168.684152 
L 120.235318 174.418377 
L 120.458629 176.104602 
L 120.681941 179.142507 
L 121.128564 179.142507 
L 121.351876 180.494187 
L 121.798499 180.494187 
L 122.021811 179.142507 
L 122.468434 179.142507 
L 122.691746 181.838827 
L 122.915058 179.142507 
L 123.138369 180.494187 
L 123.361681 179.142507 
L 123.808304 173.066697 
L 124.031616 174.418377 
L 124.254927 173.066697 
L 124.701551 173.066697 
L 124.924862 174.418377 
L 125.148174 177.456282 
L 125.371486 177.456282 
L 125.594797 173.066697 
L 126.041421 170.370377 
L 126.264732 170.370377 
L 126.711356 175.101547 
L 126.934667 175.101547 
L 127.381291 172.405227 
L 127.604602 173.749867 
L 127.827914 173.749867 
L 128.051226 175.101547 
L 128.274537 170.370377 
L 128.497849 170.370377 
L 128.721161 167.332472 
L 128.944472 165.987832 
L 129.167784 159.912022 
L 129.391096 159.912022 
L 129.614407 165.987832 
L 129.837719 167.332472 
L 130.061031 167.332472 
L 130.284342 165.987832 
L 130.730965 165.987832 
L 130.954277 169.025737 
L 131.177589 176.446187 
L 131.624212 176.446187 
L 131.847524 181.177357 
L 132.070835 198.053107 
L 132.294147 184.215262 
L 132.517459 189.949487 
L 132.74077 191.294127 
L 132.964082 188.597807 
L 133.410705 191.294127 
L 133.634017 194.332032 
L 133.857329 195.683712 
L 134.08064 193.990447 
L 134.303952 197.028352 
L 134.527264 190.952542 
L 134.750575 190.952542 
L 135.197199 195.683712 
L 135.42051 194.332032 
L 135.643822 195.683712 
L 135.867134 191.294127 
L 136.090445 199.063202 
L 136.313757 193.328977 
L 136.537069 193.670562 
L 136.76038 193.670562 
L 136.983692 190.632657 
L 137.207004 191.977297 
L 137.430315 195.015202 
L 137.876938 197.711522 
L 138.10025 196.025297 
L 138.323562 196.025297 
L 138.546873 197.369937 
L 138.770185 192.987392 
L 138.993497 191.635712 
L 139.216808 188.597807 
L 139.44012 192.987392 
L 139.663432 191.294127 
L 139.886743 194.332032 
L 140.333367 191.635712 
L 140.556678 192.987392 
L 140.77999 191.635712 
L 141.003302 191.635712 
L 141.226613 194.673617 
L 141.449925 191.635712 
L 141.673237 191.635712 
L 141.896548 190.291072 
L 142.11986 192.987392 
L 142.343172 197.711522 
L 142.566483 192.987392 
L 142.789795 191.635712 
L 143.013107 192.987392 
L 143.45973 199.063202 
L 143.683042 192.987392 
L 143.906353 196.025297 
L 144.129665 192.987392 
L 144.352976 192.987392 
L 144.576288 194.332032 
L 145.022911 179.142507 
L 145.246223 179.142507 
L 145.469535 180.494187 
L 145.916158 180.494187 
L 146.13947 179.142507 
L 146.362781 183.190507 
L 146.586093 177.114697 
L 147.032716 177.114697 
L 147.256028 178.459337 
L 147.702651 175.421432 
L 148.372586 179.811017 
L 148.595898 178.117752 
L 148.81921 186.889882 
L 149.042521 182.507337 
L 149.265833 187.231467 
L 149.712456 187.231467 
L 149.935768 189.927787 
L 150.15908 188.583147 
L 150.382391 192.965692 
L 150.605703 188.583147 
L 150.829015 188.583147 
L 151.052326 187.231467 
L 151.275638 184.535147 
L 151.498949 183.190507 
L 151.945573 185.218317 
L 152.168884 194.332032 
L 152.392196 195.015202 
L 152.615508 181.177357 
L 152.838819 190.291072 
L 153.062131 185.901487 
L 153.732066 164.977737 
L 153.955378 166.329417 
L 154.178689 169.367322 
L 154.402001 170.711962 
L 154.625313 175.101547 
L 155.071936 164.636152 
L 155.295248 165.987832 
L 155.741871 150.798306 
L 155.965183 156.874116 
L 156.188494 159.912022 
L 156.411806 159.912022 
L 156.635118 161.256662 
L 157.081741 166.649302 
L 157.305053 166.649302 
L 157.528364 172.725112 
L 157.751676 165.304662 
L 157.974987 165.304662 
L 158.198299 168.000982 
L 158.421611 169.345622 
L 158.644922 174.076792 
L 159.091546 158.887266 
L 159.314857 157.535586 
L 159.761481 164.963076 
L 159.984792 170.697302 
L 160.208104 172.041942 
L 160.654727 172.041942 
L 160.878039 170.697302 
L 161.101351 170.697302 
L 161.324662 169.345622 
L 161.547974 173.735207 
L 161.771286 169.345622 
L 161.994597 178.117752 
L 162.217909 178.117752 
L 162.441221 179.469432 
L 162.664532 178.117752 
L 162.887844 179.127847 
L 163.111156 179.469432 
L 163.334467 183.510392 
L 163.557779 182.165752 
L 163.781091 174.738262 
L 164.004402 180.472487 
L 164.227714 177.776167 
L 164.674337 189.927787 
L 165.12096 189.927787 
L 165.344272 189.586202 
L 165.567584 174.738262 
L 165.790895 174.738262 
L 166.014207 173.052036 
L 166.237519 177.434582 
L 166.684142 174.738262 
L 166.907454 176.089942 
L 167.130765 176.089942 
L 167.354077 173.052036 
L 167.577389 176.089942 
L 167.8007 176.089942 
L 168.024012 177.434582 
L 168.247324 174.738262 
L 168.470635 176.089942 
L 168.693947 180.472487 
L 168.917259 176.089942 
L 169.14057 176.089942 
L 169.363882 177.434582 
L 169.587194 177.434582 
L 169.810505 174.396676 
L 170.033817 177.434582 
L 170.703752 173.393622 
L 170.927064 170.355716 
L 171.150375 173.393622 
L 172.043622 173.393622 
L 172.266933 170.355716 
L 172.490245 170.355716 
L 172.713557 174.738262 
L 172.936868 173.393622 
L 173.16018 174.738262 
L 173.830115 174.738262 
L 174.276738 172.041942 
L 174.50005 174.738262 
L 174.723362 171.700356 
L 174.946673 173.052036 
L 175.393297 156.510831 
L 175.616608 157.862511 
L 175.83992 157.862511 
L 176.063232 160.900416 
L 176.286543 162.245056 
L 176.509855 159.548736 
L 176.956478 159.548736 
L 177.17979 160.900416 
L 177.403102 154.824606 
L 177.626413 160.900416 
L 178.073037 160.900416 
L 178.51966 158.204096 
L 178.742971 148.748796 
L 178.966283 148.748796 
L 179.189595 146.052476 
L 179.412906 150.435021 
L 179.636218 148.748796 
L 180.082841 151.445116 
L 180.306153 151.445116 
L 180.529465 152.789756 
L 180.752776 151.445116 
L 180.976088 151.445116 
L 181.1994 153.131341 
L 181.422711 151.445116 
L 181.646023 154.141436 
L 181.869335 149.410266 
L 182.315958 149.410266 
L 182.53927 146.713946 
L 183.209205 151.103531 
L 183.432516 149.410266 
L 183.655828 152.448171 
L 184.102451 149.751851 
L 184.325763 146.713946 
L 184.549075 145.369306 
L 184.772386 151.445116 
L 185.21901 144.017626 
L 185.442321 144.017626 
L 186.112256 139.976666 
L 186.335568 141.321306 
L 186.558879 141.321306 
L 186.782191 139.976666 
L 187.005503 147.397116 
L 187.228814 147.397116 
L 187.452126 144.359211 
L 187.675438 148.748796 
L 187.898749 147.397116 
L 188.122061 150.435021 
L 188.345373 143.356156 
L 188.568684 147.738701 
L 188.791996 146.394061 
L 189.015308 146.394061 
L 189.685243 138.624986 
L 189.908554 139.976666 
L 190.131866 145.710891 
L 190.578489 142.672986 
L 190.801801 142.672986 
L 191.025113 145.369306 
L 191.248424 144.017626 
L 191.471736 148.065626 
L 191.695048 145.369306 
L 191.918359 146.713946 
L 192.141671 137.941816 
L 192.364982 139.293496 
L 192.588294 137.941816 
L 193.034917 149.410266 
L 193.481541 152.106586 
L 193.704852 152.106586 
L 193.928164 146.030776 
L 194.151476 147.382456 
L 194.374787 144.686136 
L 194.598099 147.382456 
L 194.821411 148.727096 
L 195.044722 145.689191 
L 195.268034 147.040871 
L 195.714657 156.154586 
L 195.937969 154.802906 
L 196.384592 154.802906 
L 196.607904 153.458266 
L 197.277839 143.334456 
L 197.501151 144.686136 
L 197.724462 136.597176 
L 198.171086 136.597176 
L 198.394397 139.293496 
L 198.617709 145.027721 
L 198.841021 146.713946 
L 199.287644 129.49661 
L 199.510955 128.486515 
L 199.734267 124.10397 
L 200.18089 135.245496 
L 200.404202 138.624986 
L 200.850825 131.887706 
L 201.074137 135.928666 
L 201.297449 133.232346 
L 201.52076 134.584026 
L 201.967384 134.584026 
L 202.414007 137.280346 
L 202.637319 137.280346 
L 202.86063 134.584026 
L 203.083942 134.584026 
L 203.307254 140.659836 
L 203.530565 143.697741 
L 203.753877 152.811456 
L 203.977189 149.773551 
L 204.2005 151.118191 
L 204.423812 149.773551 
L 204.647124 149.773551 
L 204.870435 148.421871 
L 205.093747 149.773551 
L 205.317059 149.773551 
L 205.54037 155.166191 
L 205.763682 152.128286 
L 205.986993 153.814511 
L 206.210305 152.469871 
L 206.433617 144.700796 
L 206.656928 146.052476 
L 206.88024 146.052476 
L 207.326863 153.814511 
L 207.550175 146.394061 
L 207.773487 143.356156 
L 207.996798 145.042381 
L 208.22011 148.080286 
L 208.443422 145.042381 
L 208.666733 148.080286 
L 208.890045 146.394061 
L 209.113357 149.090381 
L 209.336668 149.090381 
L 209.55998 147.397116 
L 209.783292 147.397116 
L 210.006603 146.052476 
L 210.229915 150.435021 
L 210.676538 161.903471 
L 210.89985 154.483021 
L 211.123162 154.483021 
L 211.346473 151.445116 
L 211.569785 156.169246 
L 211.793097 153.131341 
L 212.23972 163.255151 
L 212.686343 198.016747 
L 212.909655 196.672107 
L 213.132966 196.672107 
L 213.356278 199.368427 
L 213.57959 200.713067 
L 213.802901 197.675162 
L 214.026213 197.675162 
L 214.249525 194.978842 
L 214.472836 198.016747 
L 214.696148 194.978842 
L 214.91946 194.978842 
L 215.142771 193.292617 
L 215.366083 197.675162 
L 215.589395 194.978842 
L 216.036018 198.016747 
L 216.482641 191.599352 
L 216.929265 197.333577 
L 217.152576 195.988937 
L 217.375888 200.371482 
L 217.5992 202.064747 
L 217.822511 195.988937 
L 218.269135 203.409387 
L 218.492446 204.761067 
L 218.93907 202.064747 
L 219.162381 206.105707 
L 219.385693 204.761067 
L 219.609005 204.761067 
L 219.832316 198.685257 
L 220.055628 204.761067 
L 220.502251 207.457387 
L 220.725563 199.688312 
L 220.948874 199.688312 
L 221.172186 201.039992 
L 221.395498 197.660502 
L 221.618809 206.774217 
L 221.842121 206.432632 
L 222.065433 210.473592 
L 222.288744 210.473592 
L 222.512056 211.825272 
L 222.735368 210.473592 
L 222.958679 210.473592 
L 223.181991 203.053142 
L 223.405303 204.397782 
L 223.851926 210.473592 
L 224.075238 207.435687 
L 224.298549 211.825272 
L 224.521861 210.473592 
L 224.745173 211.825272 
L 225.191796 211.825272 
L 225.638419 220.938987 
L 226.085043 220.938987 
L 226.531666 210.815177 
L 226.754977 207.777272 
L 226.978289 207.777272 
L 227.201601 209.128952 
L 227.648224 206.432632 
L 227.871536 206.432632 
L 228.094847 205.080952 
L 228.318159 206.432632 
L 228.541471 210.473592 
L 228.764782 207.777272 
L 229.211406 205.080952 
L 229.434717 205.422537 
L 229.658029 197.333577 
L 229.881341 204.761067 
L 230.104652 203.409387 
L 230.551276 206.105707 
L 230.774587 206.774217 
L 230.997899 209.812122 
L 231.221211 205.422537 
L 231.444522 208.460442 
L 231.891146 201.039992 
L 232.114457 198.343672 
L 232.337769 202.726217 
L 232.561081 202.384632 
L 232.784392 205.422537 
L 233.007704 202.384632 
L 233.231016 202.384632 
L 233.454327 187.195106 
L 233.90095 189.891426 
L 234.124262 189.891426 
L 234.347574 191.243106 
L 234.570885 193.939426 
L 234.794197 190.901521 
L 235.017509 184.825711 
L 235.24082 186.511936 
L 235.464132 190.901521 
L 235.687444 190.901521 
L 235.910755 186.853521 
L 236.134067 189.891426 
L 236.357379 191.243106 
L 236.58069 191.243106 
L 237.027314 179.774656 
L 237.250625 181.802466 
L 237.473937 185.850466 
L 237.697249 193.270916 
L 238.143872 185.850466 
L 238.367184 184.498786 
L 238.590495 187.195106 
L 238.813807 187.195106 
L 239.037119 185.850466 
L 239.26043 181.802466 
L 239.483742 184.498786 
L 239.930365 177.419921 
L 240.376988 184.498786 
L 240.6003 183.154146 
L 240.823612 183.154146 
L 241.046923 180.116241 
L 241.270235 184.498786 
L 241.493547 181.802466 
L 241.716858 192.267862 
L 242.610105 186.533636 
L 243.056728 189.229956 
L 243.28004 198.343672 
L 243.726663 201.039992 
L 243.949975 205.422537 
L 244.173287 206.774217 
L 244.396598 206.432632 
L 244.61991 205.080952 
L 244.843222 195.967236 
L 245.066533 199.005142 
L 245.289845 199.005142 
L 245.513157 200.356822 
L 245.736468 189.913127 
L 245.95978 208.140557 
L 246.183092 200.713067 
L 246.406403 199.368427 
L 246.629715 205.102652 
L 246.853027 214.216367 
L 247.076338 217.254272 
L 247.522961 217.254272 
L 247.746273 218.940497 
L 247.969585 232.443797 
L 248.192896 226.367987 
L 248.416208 224.674722 
L 248.862831 224.674722 
L 249.086143 221.636817 
L 249.756078 226.026402 
L 249.97939 226.026402 
L 250.202701 225.016307 
L 250.426013 222.319987 
L 250.649325 215.241122 
L 250.872636 220.975347 
L 251.095948 218.279027 
L 251.31926 220.975347 
L 251.542571 215.241122 
L 251.765883 224.013252 
L 251.989195 222.319987 
L 252.212506 223.671667 
L 252.435818 223.671667 
L 252.65913 222.319987 
L 252.882441 222.319987 
L 253.329065 225.016307 
L 253.552376 223.671667 
L 253.775688 220.633762 
L 253.998999 220.633762 
L 254.222311 219.282082 
L 254.892246 223.330082 
L 255.338869 218.598912 
L 255.562181 219.950592 
L 255.785493 218.598912 
L 256.008804 220.292177 
L 256.232116 217.254272 
L 256.455428 218.598912 
L 256.678739 214.899537 
L 256.902051 214.899537 
L 257.125363 213.206272 
L 257.348674 214.557952 
L 257.795298 214.557952 
L 258.018609 220.633762 
L 258.465233 223.330082 
L 258.688544 221.978402 
L 258.911856 223.330082 
L 259.358479 229.405892 
L 259.581791 226.367987 
L 259.805103 226.367987 
L 260.251726 229.405892 
L 260.475038 227.712627 
L 260.698349 227.712627 
L 260.921661 225.016307 
L 261.368284 225.016307 
L 261.591596 228.054212 
L 262.038219 225.016307 
L 262.261531 225.016307 
L 262.484842 226.367987 
L 262.708154 225.016307 
L 262.931466 229.747477 
L 263.154777 226.709572 
L 263.378089 228.395797 
L 263.601401 228.395797 
L 263.824712 229.747477 
L 264.048024 234.130023 
L 264.271336 234.130023 
L 264.494647 232.443797 
L 264.717959 236.826343 
L 264.941271 235.481703 
L 265.164582 240.205833 
L 265.387894 240.205833 
L 265.611206 238.861193 
L 265.834517 238.861193 
L 266.057829 241.899098 
L 266.281141 238.861193 
L 266.504452 243.243738 
L 266.727764 240.205833 
L 266.951076 244.937003 
L 267.174387 244.937003 
L 267.397699 240.205833 
L 267.621011 241.557513 
L 268.067634 241.557513 
L 268.290945 239.864248 
L 268.514257 239.864248 
L 268.737569 247.633323 
L 268.96088 242.902153 
L 269.184192 248.977963 
L 269.407504 252.015868 
L 269.630815 248.977963 
L 269.854127 256.063868 
L 270.077439 250.329643 
L 270.30075 241.557513 
L 270.524062 250.329643 
L 270.747374 244.253833 
L 270.970685 247.291738 
L 271.193997 247.291738 
L 271.417309 244.253833 
L 271.863932 241.557513 
L 272.087244 241.557513 
L 272.310555 248.977963 
L 272.533867 248.977963 
L 272.757179 240.205833 
L 272.98049 236.164873 
L 273.203802 234.813193 
L 273.427114 234.813193 
L 273.650425 236.164873 
L 273.873737 236.506458 
L 274.097049 233.468553 
L 274.32036 238.192683 
L 274.766983 238.192683 
L 274.990295 242.582268 
L 275.213607 243.926908 
L 275.436918 243.926908 
L 276.106853 234.493308 
L 276.330165 235.837948 
L 276.553477 225.379593 
L 276.776788 227.065818 
L 277.0001 222.683273 
L 277.223412 227.065818 
L 277.446723 225.379593 
L 277.670035 222.683273 
L 277.893347 224.027913 
L 278.116658 213.911143 
L 278.33997 213.911143 
L 278.563282 216.949048 
L 278.786593 216.949048 
L 279.009905 215.597368 
L 279.233217 206.825237 
L 279.456528 205.480597 
L 279.67984 205.480597 
L 279.903152 211.214823 
L 280.126463 219.986953 
L 280.349775 219.986953 
L 280.573087 217.290633 
L 280.796398 217.290633 
L 281.01971 204.128917 
L 281.243022 208.518503 
L 281.466333 206.825237 
L 281.689645 210.204728 
L 281.912956 203.125863 
L 282.136268 201.774183 
L 282.582891 209.884843 
L 282.806203 209.884843 
L 283.029515 210.887898 
L 283.252826 209.201673 
L 283.476138 209.201673 
L 283.69945 210.546313 
L 283.922761 210.546313 
L 284.146073 207.849993 
L 284.369385 209.201673 
L 284.592696 209.201673 
L 285.03932 216.622123 
L 285.262631 219.318443 
L 285.709255 219.318443 
L 286.155878 216.280538 
L 287.049125 227.748988 
L 287.272436 222.014763 
L 287.495748 219.318443 
L 287.71906 223.708028 
L 287.942371 219.318443 
L 288.388994 216.280538 
L 288.612306 220.670123 
L 288.835618 216.280538 
L 289.058929 222.356348 
L 289.282241 216.622123 
L 289.505553 217.973803 
L 289.952176 217.973803 
L 290.175488 225.052668 
L 290.398799 226.745933 
L 290.845423 226.745933 
L 291.068734 224.049613 
L 291.292046 224.049613 
L 291.515358 225.394253 
L 291.738669 218.315388 
L 291.961981 221.353293 
L 292.185293 214.267388 
L 292.408604 212.922748 
L 292.631916 214.608973 
L 292.855228 201.127373 
L 293.078539 218.010163 
L 293.301851 219.354803 
L 293.525163 222.392708 
L 293.971786 213.278993 
L 294.195098 219.354803 
L 294.418409 210.582673 
L 294.641721 211.934353 
L 294.865033 199.782733 
L 295.088344 196.744828 
L 295.311656 166.024192 
L 295.534967 156.910477 
L 295.758279 159.606797 
L 295.981591 153.530987 
L 296.204902 159.606797 
L 296.428214 157.913532 
L 296.651526 151.837722 
L 296.874837 153.530987 
L 297.098149 158.255117 
L 297.321461 154.875627 
L 297.768084 168.378927 
L 297.991396 165.341022 
L 298.214707 171.075247 
L 298.438019 171.075247 
L 298.661331 164.999437 
L 298.884642 166.344077 
L 299.107954 164.657852 
L 299.331266 164.316267 
L 299.554577 160.268267 
L 299.777889 147.113592 
L 300.001201 151.496137 
L 300.224512 148.138347 
L 300.447824 153.530987 
L 300.671136 151.837722 
L 300.894447 148.799817 
L 301.117759 154.875627 
L 301.341071 152.179307 
L 301.564382 170.065152 
L 302.011006 183.910037 
L 302.234317 185.254677 
L 302.457629 180.872132 
L 302.68094 182.216772 
L 303.127564 189.644263 
L 303.350875 186.606357 
L 303.574187 185.254677 
L 303.797499 179.862037 
L 304.02081 171.089907 
L 304.244122 171.431492 
L 305.137369 148.153007 
L 305.583992 153.560307 
L 305.807304 156.256627 
L 306.030615 160.304627 
L 306.253927 160.304627 
L 306.477239 153.218722 
L 306.70055 163.000947 
L 306.923862 164.345587 
L 307.147174 161.649267 
L 307.370485 164.345587 
L 307.593797 170.421397 
L 307.817109 170.421397 
L 308.04042 167.383492 
L 308.263732 171.773077 
L 308.487044 173.124757 
L 308.710355 175.821077 
L 308.933667 177.165717 
L 309.156978 175.821077 
L 309.38029 171.431492 
L 309.603602 171.773077 
L 309.826913 165.697267 
L 310.050225 171.089907 
L 310.273537 171.089907 
L 310.496848 175.821077 
L 310.943472 166.380437 
L 311.166783 166.038852 
L 311.390095 160.304627 
L 311.836718 166.038852 
L 312.06003 163.000947 
L 312.283342 164.345587 
L 312.506653 168.735172 
L 312.729965 170.421397 
L 312.953277 168.735172 
L 313.176588 163.000947 
L 313.3999 169.076757 
L 313.623212 169.076757 
L 313.846523 172.114663 
L 314.516458 164.345587 
L 314.73977 164.345587 
L 314.963082 163.000947 
L 315.186393 164.345587 
L 315.409705 161.307682 
L 315.633017 163.000947 
L 316.07964 163.000947 
L 316.302951 159.963042 
L 316.749575 162.659362 
L 316.972886 161.307682 
L 317.196198 167.048947 
L 317.41951 165.697267 
L 317.642821 167.048947 
L 318.312756 162.659362 
L 318.536068 165.697267 
L 318.75938 165.697267 
L 319.206003 163.000947 
L 319.429315 164.345587 
L 319.652626 167.383492 
L 319.875938 186.279433 
L 320.09925 185.596263 
L 320.322561 178.517397 
L 320.545873 179.862037 
L 320.769185 185.596263 
L 320.992496 184.251623 
L 321.215808 184.251623 
L 321.43912 182.558357 
L 321.662431 183.910037 
L 321.885743 181.213717 
L 322.109055 181.213717 
L 322.332366 182.558357 
L 322.555678 182.558357 
L 322.778989 181.213717 
L 323.002301 178.517397 
L 323.225613 178.175812 
L 323.448924 181.213717 
L 323.672236 179.862037 
L 323.895548 181.213717 
L 324.118859 179.862037 
L 324.342171 179.862037 
L 324.565483 178.517397 
L 324.788794 186.279433 
L 325.012106 187.631113 
L 325.235418 187.631113 
L 325.458729 185.596263 
L 325.682041 188.634168 
L 325.905353 199.761033 
L 326.128664 201.112713 
L 326.351976 192.340583 
L 326.575288 194.368393 
L 326.798599 192.682168 
L 327.021911 197.064713 
L 327.691846 187.950997 
L 327.915158 190.988903 
L 328.361781 190.988903 
L 328.585093 189.644263 
L 328.808404 190.988903 
L 329.031716 199.077863 
L 329.255028 196.381543 
L 329.478339 196.381543 
L 329.924962 191.657412 
L 330.148274 193.002052 
L 330.371586 191.657412 
L 330.594897 193.002052 
L 330.818209 197.050052 
L 331.041521 197.050052 
L 331.264832 201.432597 
L 331.488144 201.091012 
L 331.711456 204.128917 
L 331.934767 205.480597 
L 332.158079 201.432597 
L 332.381391 191.998997 
L 332.604702 193.343637 
L 333.051326 186.606357 
L 333.497949 193.343637 
L 333.721261 191.998997 
L 334.167884 191.998997 
L 334.391196 190.647317 
L 334.614507 191.998997 
L 335.061131 198.736277 
L 335.284442 195.356787 
L 335.507754 200.087957 
L 335.954377 200.087957 
L 336.177689 194.695317 
L 336.401001 194.695317 
L 336.847624 191.998997 
L 337.070935 195.036903 
L 337.294247 195.378488 
L 337.517559 197.064713 
L 337.74087 201.112713 
L 337.964182 199.761033 
L 338.187494 189.985848 
L 338.634117 198.757978 
L 338.857429 197.064713 
L 339.08074 201.112713 
L 339.304052 199.761033 
L 339.527364 199.761033 
L 339.750675 205.495258 
L 339.973987 195.429508 
L 340.197299 177.543663 
L 340.42061 173.154078 
L 340.643922 185.305698 
L 340.867234 169.113118 
L 341.090545 164.381948 
L 341.313857 163.037308 
L 341.537169 163.037308 
L 341.76048 161.685628 
L 341.983792 152.913498 
L 342.430415 149.875593 
L 342.653727 163.037308 
L 343.323662 149.875593 
L 343.546973 163.720478 
L 343.770285 165.748288 
L 343.993597 163.051968 
L 344.216908 165.748288 
L 344.44022 156.292988 
L 344.663532 160.682573 
L 344.886843 160.340988 
L 345.110155 158.989308 
L 345.333467 154.948348 
L 345.556778 156.292988 
L 345.78009 161.685628 
L 346.003402 162.027213 
L 346.226713 156.292988 
L 346.673337 151.241933 
L 346.896648 151.241933 
L 347.11996 156.634573 
L 347.343272 157.986253 
L 348.013207 153.596668 
L 348.236518 159.330893 
L 348.683142 163.378893 
L 348.906453 164.723533 
L 349.129765 161.685628 
L 349.576388 161.685628 
L 349.7997 163.378893 
L 350.023012 163.378893 
L 350.246323 153.938253 
L 350.469635 152.252028 
L 350.692946 156.634573 
L 350.916258 157.986253 
L 351.362881 157.986253 
L 351.586193 156.634573 
L 352.032816 156.634573 
L 352.256128 159.672478 
L 352.47944 161.024158 
L 352.702751 168.103023 
L 352.926063 163.720478 
L 353.149375 165.065118 
L 353.372686 163.720478 
L 353.595998 192.064679 
L 353.81931 193.416359 
L 354.042621 190.720039 
L 354.265933 191.061624 
L 354.489245 200.175339 
L 354.712556 197.137434 
L 354.935868 198.482074 
L 355.15918 204.899469 
L 355.382491 203.554829 
L 356.052426 209.630639 
L 356.275738 209.630639 
L 356.49905 206.934319 
L 356.722361 206.934319 
L 356.945673 208.278959 
L 357.168984 208.278959 
L 357.392296 212.668544 
L 357.615608 210.975279 
L 357.838919 207.937374 
L 358.062231 210.975279 
L 358.285543 210.975279 
L 358.508854 212.326959 
L 358.732166 212.326959 
L 359.178789 204.899469 
L 359.625413 210.975279 
L 359.848724 203.554829 
L 360.072036 204.899469 
L 360.518659 205.582639 
L 360.741971 204.237999 
L 360.965283 205.582639 
L 361.188594 205.582639 
L 361.411906 204.237999 
L 361.635218 204.237999 
L 361.858529 202.544734 
L 362.081841 199.506829 
L 362.305153 199.848414 
L 362.528464 201.200094 
L 362.751776 205.582639 
L 362.975088 194.455774 
L 363.421711 201.200094 
L 363.645023 196.810509 
L 363.868334 202.886319 
L 364.091646 197.493679 
L 364.538269 201.541679 
L 364.984892 194.455774 
L 365.208204 191.759454 
L 365.431516 185.363759 
L 365.878139 187.718494 
L 366.101451 189.404719 
L 366.324762 184.012079 
L 366.548074 191.781154 
L 366.994697 180.995874 
L 367.441321 172.565329 
L 367.664632 157.717389 
L 367.887944 157.375804 
L 368.334567 149.286844 
L 368.557879 121.640474 
L 368.781191 132.767339 
L 369.004502 136.808299 
L 369.227814 134.111979 
L 369.451126 134.453564 
L 369.674437 140.187789 
L 369.897749 138.501564 
L 370.121061 131.415659 
L 370.344372 138.843149 
L 370.567684 141.539469 
L 370.790995 142.542524 
L 371.014307 146.932109 
L 371.237619 141.197884 
L 371.684242 138.501564 
L 371.907554 142.542524 
L 372.130865 139.846204 
L 372.354177 139.846204 
L 372.577489 148.276749 
L 373.024112 138.843149 
L 373.247424 137.491469 
L 373.470735 142.884109 
L 373.694047 142.884109 
L 373.917359 138.843149 
L 374.14067 140.187789 
L 374.363982 144.235789 
L 374.587294 141.539469 
L 374.810605 142.884109 
L 375.033917 140.187789 
L 375.257229 142.884109 
L 375.48054 141.539469 
L 375.703852 144.235789 
L 375.927164 141.539469 
L 376.150475 142.884109 
L 376.597099 137.149884 
L 376.82041 143.225694 
L 377.490345 138.843149 
L 377.936968 142.222639 
L 378.16028 147.615279 
L 378.383592 148.959919 
L 378.606903 144.918959 
L 378.830215 153.691089 
L 379.053527 158.073634 
L 379.276838 152.339409 
L 379.50015 150.653184 
L 379.723462 143.908864 
L 379.946773 149.643089 
L 380.170085 146.946769 
L 380.393397 148.298449 
L 380.84002 155.035729 
L 381.063332 155.035729 
L 381.286643 150.994769 
L 381.509955 149.643089 
L 381.733267 158.756804 
L 381.956578 160.108484 
L 382.17989 163.146389 
L 382.403202 168.880614 
L 382.849825 166.52588 
L 383.073137 167.87052 
L 383.296448 172.943275 
L 383.51976 181.37382 
L 383.743072 184.07014 
L 383.966383 181.032235 
L 384.189695 184.07014 
L 384.413007 181.032235 
L 384.636318 175.29801 
L 384.85963 178.6775 
L 385.082941 177.32582 
L 385.306253 172.943275 
L 385.529565 175.639595 
L 385.752876 181.715405 
L 385.976188 170.246955 
L 386.1995 175.98118 
L 386.422811 176.322765 
L 386.646123 202.95904 
L 386.869435 195.53859 
L 387.092746 220.844885 
L 387.316058 220.844885 
L 387.53937 213.76602 
L 387.762681 218.148565 
L 387.985993 215.11066 
L 388.209305 209.03485 
L 388.432616 209.03485 
L 388.655928 204.652305 
L 389.102551 189.121195 
L 389.325863 189.121195 
L 389.549175 193.845325 
L 389.772486 189.46278 
L 389.995798 195.53859 
L 390.21911 195.197005 
L 390.442421 190.465835 
L 390.665733 192.1591 
L 390.889045 199.921135 
L 391.112356 202.95904 
L 391.335668 218.148565 
L 391.782291 201.6144 
L 392.005603 202.95904 
L 392.228914 201.6144 
L 392.452226 196.88323 
L 392.675538 199.57955 
L 392.898849 204.31072 
L 393.122161 201.272815 
L 393.345473 213.424435 
L 393.568784 212.072755 
L 393.792096 218.148565 
L 394.015408 220.844885 
L 394.238719 217.80698 
L 394.462031 226.237525 
L 394.908654 221.85498 
L 395.131966 226.57911 
L 395.578589 217.80698 
L 395.801901 220.844885 
L 396.025213 229.617015 
L 396.248524 229.617015 
L 396.471836 226.237525 
L 396.695148 228.933845 
L 396.918459 217.12381 
L 397.141771 221.85498 
L 397.588394 224.892885 
L 397.811706 229.617015 
L 398.035018 230.968695 
L 398.481641 226.920695 
L 398.704952 225.576055 
L 398.928264 228.955546 
L 399.151576 222.879735 
L 399.374887 227.262281 
L 399.598199 227.262281 
L 399.821511 215.11066 
L 400.044822 210.728115 
L 400.268134 215.452245 
L 400.491446 214.107605 
L 400.714757 214.107605 
L 400.938069 219.84183 
L 401.161381 218.49015 
L 401.384692 214.107605 
L 401.608004 215.452245 
L 401.831316 218.49015 
L 402.054627 215.452245 
L 402.277939 215.79383 
L 402.501251 211.411285 
L 402.724562 212.755925 
L 402.947874 217.487095 
L 403.841121 207.0217 
L 404.064432 200.94589 
L 404.287744 202.29757 
L 404.734367 193.183855 
L 404.957679 192.84227 
L 405.404302 198.91808 
L 405.850925 198.91808 
L 406.074237 190.14595 
L 406.297549 191.49059 
L 406.52086 191.49059 
L 406.744172 192.84227 
L 406.967484 190.14595 
L 407.190795 185.756365 
L 407.414107 185.756365 
L 407.86073 188.79427 
L 408.084042 188.79427 
L 408.307354 191.49059 
L 408.530665 191.149005 
L 408.753977 198.576495 
L 408.977289 198.576495 
L 409.423912 192.500685 
L 409.647224 183.38697 
L 409.870535 192.500685 
L 410.093847 183.38697 
L 410.317159 182.03529 
L 410.54047 191.149005 
L 410.987094 185.073195 
L 411.433717 185.073195 
L 411.657029 192.500685 
L 411.88034 177.31116 
L 412.103652 178.997385 
L 412.326963 175.95948 
L 412.550275 175.95948 
L 412.773587 182.03529 
L 412.996898 175.95948 
L 413.22021 182.03529 
L 413.443522 178.997385 
L 413.666833 179.33897 
L 414.113457 176.64265 
L 414.56008 176.64265 
L 414.783392 173.94633 
L 415.006703 173.94633 
L 415.676638 165.515785 
L 415.89995 165.85737 
L 416.123262 163.16105 
L 416.346573 167.20905 
L 416.793197 157.412164 
L 417.016508 156.402069 
L 417.463132 165.1742 
L 417.909755 165.1742 
L 418.133067 163.82956 
L 418.356378 163.82956 
L 418.57969 169.90537 
L 418.803002 165.1742 
L 419.026313 163.82956 
L 419.249625 163.82956 
L 419.472936 173.94633 
L 419.696248 170.908425 
L 419.91956 170.908425 
L 420.142871 167.87052 
L 420.366183 167.87052 
L 420.589495 163.82956 
L 420.812806 155.399014 
L 421.036118 165.85737 
L 421.25943 161.13324 
L 421.482741 159.78156 
L 421.706053 161.13324 
L 421.929365 160.791654 
L 422.152676 162.136294 
L 422.5993 159.439974 
L 422.822611 162.47788 
L 423.045923 156.743654 
L 423.269235 158.095334 
L 423.715858 158.095334 
L 423.93917 147.288354 
L 424.162481 152.019524 
L 424.609105 145.943714 
L 424.832416 147.629939 
L 425.055728 147.629939 
L 425.27904 149.323204 
L 425.502351 147.971524 
L 425.725663 145.275204 
L 425.948974 139.199394 
L 426.172286 129.765794 
L 426.395598 142.578884 
L 426.618909 139.540979 
L 426.842221 142.578884 
L 427.065533 143.930564 
L 427.288844 142.578884 
L 427.512156 143.930564 
L 427.735468 151.6926 
L 428.182091 147.310054 
L 428.405403 145.958374 
L 428.628714 147.65164 
L 428.852026 144.613734 
L 429.075338 148.99628 
L 429.298649 150.34796 
L 429.521961 153.04428 
L 429.745273 151.351014 
L 429.968584 156.743654 
L 430.191896 147.971524 
L 430.415208 145.275204 
L 430.638519 148.313109 
L 430.861831 148.313109 
L 431.085143 145.275204 
L 431.308454 153.04428 
L 431.531766 156.42377 
L 431.755078 153.385865 
L 431.978389 156.082185 
L 432.201701 150.006374 
L 432.425013 150.006374 
L 432.648324 157.76841 
L 433.094947 153.04428 
L 433.318259 154.38892 
L 433.764882 154.38892 
L 433.988194 70.766639 
L 434.211506 87.307844 
L 434.434817 88.652484 
L 434.881441 93.042069 
L 435.104752 94.045124 
L 435.551376 86.624674 
L 435.774687 78.194129 
L 435.997999 78.194129 
L 436.221311 78.535714 
L 436.444622 82.576674 
L 436.667934 78.194129 
L 436.891246 79.538769 
L 437.114557 76.842449 
L 437.337869 69.421999 
L 437.561181 70.766639 
L 437.784492 69.421999 
L 438.007804 66.725679 
L 438.231116 58.636719 
L 438.677739 58.636719 
L 438.901051 56.623569 
L 439.347674 50.889344 
L 439.794297 53.244079 
L 440.017609 59.981359 
L 440.24092 54.588719 
L 440.464232 62.016209 
L 440.687544 58.636719 
L 441.58079 70.446754 
L 441.804102 71.791394 
L 442.027414 71.791394 
L 442.250725 79.218884 
L 442.474037 72.132979 
L 442.697349 73.826244 
L 442.92066 65.737284 
L 443.143972 72.474564 
L 443.367284 65.737284 
L 443.590595 68.433604 
L 443.813907 69.778244 
L 444.037219 72.816149 
L 444.26053 63.702434 
L 444.483842 64.044019 
L 444.707154 59.319889 
L 444.930465 60.664529 
L 445.153777 75.854054 
L 445.377089 79.902054 
L 445.6004 81.58828 
L 445.823712 75.854054 
L 446.047024 80.24364 
L 446.270335 77.54732 
L 446.493647 84.96777 
L 446.716958 83.281545 
L 446.94027 82.93996 
L 447.163582 92.053675 
L 447.386893 87.66409 
L 447.610205 105.549935 
L 447.833517 98.129485 
L 448.28014 103.86371 
L 448.503452 109.597935 
L 448.726763 104.866765 
L 448.950075 106.56003 
L 449.173387 106.56003 
L 449.396698 103.522125 
L 449.62001 106.56003 
L 449.843322 114.322065 
L 450.066633 111.28416 
L 450.513257 108.58784 
L 450.95988 108.58784 
L 451.183192 109.93952 
L 451.629815 105.20835 
L 451.853127 106.901615 
L 452.076438 109.93952 
L 452.29975 118.02848 
L 452.523062 116.6768 
L 452.746373 118.02848 
L 452.969685 118.02848 
L 453.192996 122.411025 
L 453.416308 119.37312 
L 453.63962 113.29731 
L 453.862931 113.29731 
L 454.086243 114.64899 
L 454.309555 112.955725 
L 454.532866 114.64899 
L 454.97949 107.2215 
L 455.202801 102.838955 
L 455.649425 108.914765 
L 455.872736 108.914765 
L 456.096048 101.487275 
L 456.31936 101.14569 
L 456.542671 100.142635 
L 456.765983 100.142635 
L 456.989295 97.10473 
L 457.212606 97.10473 
L 457.435918 99.80105 
L 457.65923 105.87686 
L 457.882541 106.218445 
L 458.105853 106.218445 
L 458.329165 104.866765 
L 458.552476 101.82886 
L 458.775788 103.522125 
L 458.9991 96.094635 
L 459.222411 96.094635 
L 459.445723 100.48422 
L 459.669035 99.474125 
L 459.892346 84.2846 
L 460.115658 92.736845 
L 460.338969 94.081485 
L 460.562281 98.129485 
L 460.785593 96.777805 
L 461.008904 86.661035 
L 461.232216 82.613035 
L 461.455528 81.268395 
L 461.678839 83.964715 
L 461.902151 89.357355 
L 462.125463 91.71209 
L 462.348774 90.018825 
L 462.572086 89.335654 
L 462.795398 77.525619 
L 463.018709 77.867204 
L 463.242021 87.649429 
L 463.688644 90.687334 
L 463.911956 90.687334 
L 464.135268 89.335654 
L 464.358579 86.639334 
L 464.581891 86.639334 
L 464.805203 90.687334 
L 465.028514 83.259844 
L 465.698449 95.738389 
L 465.921761 93.042069 
L 466.145073 86.297749 
L 466.368384 92.031974 
L 466.591696 87.649429 
L 466.815008 85.956164 
L 467.038319 90.345749 
L 467.484942 83.259844 
L 467.708254 89.335654 
L 467.931566 85.956164 
L 468.378189 88.652484 
L 468.601501 87.307844 
L 468.824812 90.345749 
L 469.048124 88.652484 
L 469.271436 88.652484 
L 469.494747 87.307844 
L 469.718059 93.383654 
L 469.941371 84.611524 
L 470.164682 83.259844 
L 470.387994 84.611524 
L 470.611306 92.031974 
L 470.834617 90.345749 
L 471.281241 93.383654 
L 471.504552 96.42156 
L 471.727864 102.49737 
L 471.951176 94.728294 
L 472.174487 100.46252 
L 472.397799 97.424614 
L 472.621111 99.779349 
L 472.844422 98.093124 
L 473.067734 104.168934 
L 473.291046 102.817254 
L 473.514357 104.168934 
L 473.737669 108.209894 
L 473.96098 108.209894 
L 474.184292 109.561574 
L 474.407604 107.20684 
L 475.077539 107.20684 
L 475.524162 113.624235 
L 475.747474 121.044685 
L 475.970785 114.968875 
L 476.194097 113.28265 
L 476.417409 114.62729 
L 476.64072 119.016875 
L 476.864032 115.97897 
L 477.087344 124.7511 
L 477.310655 127.105835 
L 477.533967 133.843115 
L 477.757279 134.1847 
L 477.98059 131.829965 
L 478.427214 153.117001 
L 478.650525 154.120055 
L 478.873837 158.851226 
L 479.097149 159.854281 
L 479.32046 158.168055 
L 479.767084 151.75066 
L 479.990395 142.97853 
L 480.437019 166.598601 
L 480.66033 166.598601 
L 480.883642 160.864375 
L 481.106953 163.560695 
L 481.330265 160.864375 
L 481.553577 156.133205 
L 482.0002 161.525845 
L 482.670135 157.1433 
L 483.116758 169.294921 
L 483.34007 159.17111 
L 483.563382 166.598601 
L 483.786693 163.560695 
L 484.010005 166.598601 
L 484.233317 164.905335 
L 484.456628 180.094861 
L 484.67994 183.474351 
L 485.349875 221.280892 
L 485.573187 219.929212 
L 485.796498 217.232892 
L 486.01981 208.460762 
L 486.243122 213.191932 
L 486.466433 213.191932 
L 486.689745 211.840252 
L 487.136368 231.077777 
L 487.35968 230.736192 
L 487.582991 234.435567 
L 487.806303 222.283947 
L 488.029615 216.549722 
L 488.252926 217.901402 
L 488.476238 211.825591 
L 488.69955 217.559817 
L 489.146173 220.597722 
L 489.369485 217.559817 
L 489.592796 217.559817 
L 489.816108 219.246042 
L 490.262731 205.749781 
L 490.486043 207.436006 
L 490.709355 198.663876 
L 490.932666 194.281331 
L 491.155978 192.929651 
L 491.37929 190.233331 
L 491.602601 200.357141 
L 491.825913 183.474351 
L 492.049225 184.484446 
L 492.71916 166.940186 
L 492.942471 164.585451 
L 493.165783 165.930091 
L 493.389095 160.195866 
L 493.612406 168.967996 
L 493.835718 167.623356 
L 494.05903 168.284826 
L 494.282341 154.120055 
L 494.505653 167.281771 
L 494.728964 168.626411 
L 494.952276 163.902281 
L 495.175588 171.322731 
L 495.398899 173.357581 
L 495.622211 170.661261 
L 495.845523 172.347486 
L 496.068834 157.841131 
L 496.292146 169.651166 
L 496.515458 171.002846 
L 496.738769 171.002846 
L 496.962081 175.385391 
L 497.185393 182.812881 
L 497.408704 176.737071 
L 497.855328 172.347486 
L 498.078639 192.588066 
L 498.525263 199.673971 
L 498.748574 197.639121 
L 498.971886 200.677026 
L 499.195198 196.636066 
L 499.418509 195.284386 
L 499.865133 195.284386 
L 500.088444 189.891746 
L 500.311756 194.281331 
L 500.535068 191.585011 
L 500.758379 194.281331 
L 500.981691 192.588066 
L 501.205003 192.588066 
L 501.428314 191.243426 
L 501.651626 203.395046 
L 501.874937 203.395046 
L 502.098249 200.357141 
L 502.321561 188.547106 
L 502.544872 188.547106 
L 502.991496 181.802786 
L 503.214807 179.106466 
L 503.438119 186.192371 
L 503.661431 183.154466 
L 503.884742 184.499106 
L 504.108054 177.078656 
L 504.331366 187.195426 
L 504.777989 181.119616 
L 505.001301 185.509201 
L 505.224612 184.157521 
L 505.447924 181.119616 
L 505.671236 175.726976 
L 505.894547 177.078656 
L 506.117859 184.499106 
L 506.341171 183.154466 
L 506.564482 179.774976 
L 506.787794 187.195426 
L 507.011106 184.157521 
L 507.457729 173.699166 
L 507.681041 175.385391 
L 507.904352 172.689071 
L 508.127664 157.841131 
L 508.574287 171.344431 
L 508.797599 161.889131 
L 509.02091 177.740126 
L 509.244222 176.395486 
L 509.467534 171.664316 
L 509.690845 164.243866 
L 509.914157 145.00634 
L 510.137469 148.044245 
L 510.36078 171.002846 
L 511.030715 171.002846 
L 511.254027 167.964941 
L 511.477339 166.613261 
L 511.70065 161.562206 
L 511.923962 178.103411 
L 512.147274 158.865886 
L 512.593897 220.256137 
L 512.817209 219.914551 
L 513.04052 168.270165 
L 513.263832 165.573845 
L 513.487144 166.918485 
L 513.710455 206.396591 
L 514.157079 217.196531 
L 514.38039 211.462306 
L 514.827014 224.624021 
L 515.050325 225.968661 
L 515.273637 248.563977 
L 515.72026 253.956617 
L 515.943572 253.956617 
L 516.166883 251.260297 
L 516.390195 266.449822 
L 516.613507 265.105182 
L 516.836818 325.521698 
L 517.06013 300.891533 
L 517.283442 163.18275 
L 517.506753 288.420028 
L 517.730065 289.764668 
L 517.953377 140.711177 
L 518.176688 157.245342 
L 518.4 104.307337 
L 518.4 104.307337 
" style="fill:none;stroke:#4c72b0;stroke-linecap:round;stroke-width:1.75;"/>
   </g>
   <g id="patch_3">
    <path d="M 72 356.4 
L 518.4 356.4 
" style="fill:none;"/>
   </g>
   <g id="patch_4">
    <path d="M 72 39.6 
L 518.4 39.6 
" style="fill:none;"/>
   </g>
   <g id="patch_5">
    <path d="M 72 356.4 
L 72 39.6 
" style="fill:none;"/>
   </g>
   <g id="patch_6">
    <path d="M 518.4 356.4 
L 518.4 39.6 
" style="fill:none;"/>
   </g>
   <g id="text_16">
    <!-- y - 431.52060567682156 * TF -->
    <defs>
     <path d="M 9.125 0 
L 9.125 10.6875 
L 18.65625 10.6875 
L 18.65625 0 
z
" id="LiberationSans-2e"/>
     <path d="M 35.15625 61.1875 
L 35.15625 0 
L 25.875 0 
L 25.875 61.1875 
L 2.25 61.1875 
L 2.25 68.796875 
L 58.796875 68.796875 
L 58.796875 61.1875 
z
" id="LiberationSans-54"/>
     <path d="M 17.53125 61.1875 
L 17.53125 35.59375 
L 55.90625 35.59375 
L 55.90625 27.875 
L 17.53125 27.875 
L 17.53125 0 
L 8.203125 0 
L 8.203125 68.796875 
L 57.078125 68.796875 
L 57.078125 61.1875 
z
" id="LiberationSans-46"/>
     <path d="M 29.5 0 
Q 27.640625 -4.78125 25.703125 -8.609375 
Q 23.78125 -12.453125 21.390625 -15.15625 
Q 19 -17.875 16.0625 -19.3125 
Q 13.140625 -20.75 9.328125 -20.75 
Q 7.671875 -20.75 6.25 -20.65625 
Q 4.828125 -20.5625 3.265625 -20.21875 
L 3.265625 -13.625 
Q 4.203125 -13.765625 5.375 -13.84375 
Q 6.546875 -13.921875 7.375 -13.921875 
Q 11.234375 -13.921875 14.546875 -11.03125 
Q 17.875 -8.15625 20.359375 -1.859375 
L 21.1875 0.25 
L 0.25 52.828125 
L 9.625 52.828125 
L 20.75 23.640625 
Q 21.234375 22.3125 21.984375 20.109375 
Q 22.75 17.921875 23.5 15.71875 
Q 24.265625 13.53125 24.84375 11.765625 
Q 25.4375 10.015625 25.53125 9.578125 
Q 25.6875 10.109375 26.25 11.6875 
Q 26.8125 13.28125 27.515625 15.234375 
Q 28.21875 17.1875 28.953125 19.1875 
Q 29.6875 21.1875 30.171875 22.65625 
L 40.53125 52.828125 
L 49.8125 52.828125 
z
" id="LiberationSans-79"/>
     <path d="M 22.265625 54.390625 
L 35.15625 59.421875 
L 37.359375 52.984375 
L 23.578125 49.421875 
L 32.625 37.203125 
L 26.8125 33.6875 
L 19.484375 46.296875 
L 11.859375 33.796875 
L 6.0625 37.3125 
L 15.28125 49.421875 
L 1.609375 52.984375 
L 3.8125 59.515625 
L 16.84375 54.296875 
L 16.265625 68.796875 
L 22.90625 68.796875 
z
" id="LiberationSans-2a"/>
    </defs>
    <g style="fill:#262626;" transform="translate(215.4825 34.6)scale(0.12 -0.12)">
     <use xlink:href="#LiberationSans-79"/>
     <use x="50.0" xlink:href="#LiberationSans-20"/>
     <use x="77.783203125" xlink:href="#LiberationSans-2d"/>
     <use x="111.083984375" xlink:href="#LiberationSans-20"/>
     <use x="138.8671875" xlink:href="#LiberationSans-34"/>
     <use x="194.482421875" xlink:href="#LiberationSans-33"/>
     <use x="250.09765625" xlink:href="#LiberationSans-31"/>
     <use x="305.712890625" xlink:href="#LiberationSans-2e"/>
     <use x="333.49609375" xlink:href="#LiberationSans-35"/>
     <use x="389.111328125" xlink:href="#LiberationSans-32"/>
     <use x="444.7265625" xlink:href="#LiberationSans-30"/>
     <use x="500.341796875" xlink:href="#LiberationSans-36"/>
     <use x="555.95703125" xlink:href="#LiberationSans-30"/>
     <use x="611.572265625" xlink:href="#LiberationSans-35"/>
     <use x="667.1875" xlink:href="#LiberationSans-36"/>
     <use x="722.802734375" xlink:href="#LiberationSans-37"/>
     <use x="778.41796875" xlink:href="#LiberationSans-36"/>
     <use x="834.033203125" xlink:href="#LiberationSans-38"/>
     <use x="889.6484375" xlink:href="#LiberationSans-32"/>
     <use x="945.263671875" xlink:href="#LiberationSans-31"/>
     <use x="1000.87890625" xlink:href="#LiberationSans-35"/>
     <use x="1056.494140625" xlink:href="#LiberationSans-36"/>
     <use x="1112.109375" xlink:href="#LiberationSans-20"/>
     <use x="1139.892578125" xlink:href="#LiberationSans-2a"/>
     <use x="1178.80859375" xlink:href="#LiberationSans-20"/>
     <use x="1206.576171875" xlink:href="#LiberationSans-54"/>
     <use x="1267.66015625" xlink:href="#LiberationSans-46"/>
    </g>
   </g>
  </g>
 </g>
 <defs>
  <clipPath id="pd5b57ce403">
   <rect height="316.8" width="446.4" x="72.0" y="39.6"/>
  </clipPath>
 </defs>
</svg>
