<?xml version="1.0" encoding="utf-8" standalone="no"?>
<!DOCTYPE svg PUBLIC "-//W3C//DTD SVG 1.1//EN"
  "http://www.w3.org/Graphics/SVG/1.1/DTD/svg11.dtd">
<!-- Created with matplotlib (http://matplotlib.org/) -->
<svg height="396pt" version="1.1" viewBox="0 0 576 396" width="576pt" xmlns="http://www.w3.org/2000/svg" xmlns:xlink="http://www.w3.org/1999/xlink">
 <defs>
  <style type="text/css">
*{stroke-linecap:butt;stroke-linejoin:round;stroke-miterlimit:100000;}
  </style>
 </defs>
 <g id="figure_1">
  <g id="patch_1">
   <path d="M 0 396 
L 576 396 
L 576 0 
L 0 0 
z
" style="fill:#ffffff;"/>
  </g>
  <g id="axes_1">
   <g id="patch_2">
    <path d="M 72 356.4 
L 518.4 356.4 
L 518.4 39.6 
L 72 39.6 
z
" style="fill:#eaeaf2;"/>
   </g>
   <g id="matplotlib.axis_1">
    <g id="xtick_1">
     <g id="line2d_1">
      <path clip-path="url(#pde0308b903)" d="M 72 356.4 
L 72 39.6 
" style="fill:none;stroke:#ffffff;stroke-linecap:round;"/>
     </g>
     <g id="line2d_2"/>
     <g id="line2d_3"/>
     <g id="text_1">
      <!-- 2015-12-07 10:12:00 -->
      <defs>
       <path d="M 5.03125 0 
L 5.03125 6.203125 
Q 7.515625 11.921875 11.109375 16.28125 
Q 14.703125 20.65625 18.65625 24.1875 
Q 22.609375 27.734375 26.484375 30.765625 
Q 30.375 33.796875 33.5 36.8125 
Q 36.625 39.84375 38.546875 43.15625 
Q 40.484375 46.484375 40.484375 50.6875 
Q 40.484375 53.609375 39.59375 55.828125 
Q 38.71875 58.0625 37.0625 59.5625 
Q 35.40625 61.078125 33.078125 61.828125 
Q 30.765625 62.59375 27.9375 62.59375 
Q 25.296875 62.59375 22.96875 61.859375 
Q 20.65625 61.140625 18.84375 59.671875 
Q 17.046875 58.203125 15.890625 56.03125 
Q 14.75 53.859375 14.40625 50.984375 
L 5.421875 51.8125 
Q 5.859375 55.515625 7.46875 58.78125 
Q 9.078125 62.0625 11.90625 64.53125 
Q 14.75 67 18.71875 68.40625 
Q 22.703125 69.828125 27.9375 69.828125 
Q 33.0625 69.828125 37.0625 68.609375 
Q 41.0625 67.390625 43.8125 64.984375 
Q 46.578125 62.59375 48.046875 59.078125 
Q 49.515625 55.5625 49.515625 50.984375 
Q 49.515625 47.515625 48.265625 44.390625 
Q 47.015625 41.265625 44.9375 38.421875 
Q 42.875 35.59375 40.140625 32.953125 
Q 37.40625 30.328125 34.421875 27.8125 
Q 31.453125 25.296875 28.421875 22.828125 
Q 25.390625 20.359375 22.71875 17.859375 
Q 20.0625 15.375 17.96875 12.8125 
Q 15.875 10.25 14.703125 7.46875 
L 50.59375 7.46875 
L 50.59375 0 
z
" id="LiberationSans-32"/>
       <path d="M 7.625 0 
L 7.625 7.46875 
L 25.140625 7.46875 
L 25.140625 60.40625 
L 9.625 49.3125 
L 9.625 57.625 
L 25.875 68.796875 
L 33.984375 68.796875 
L 33.984375 7.46875 
L 50.734375 7.46875 
L 50.734375 0 
z
" id="LiberationSans-31"/>
       <path d="M 50.59375 61.671875 
Q 45.40625 53.765625 41.0625 46.453125 
Q 36.71875 39.15625 33.59375 31.75 
Q 30.46875 24.359375 28.734375 16.578125 
Q 27 8.796875 27 0 
L 17.828125 0 
Q 17.828125 8.25 19.78125 16.1875 
Q 21.734375 24.125 25.046875 31.765625 
Q 28.375 39.40625 32.765625 46.78125 
Q 37.15625 54.15625 42.09375 61.328125 
L 5.125 61.328125 
L 5.125 68.796875 
L 50.59375 68.796875 
z
" id="LiberationSans-37"/>
       <path d="M 51.703125 34.421875 
Q 51.703125 24.515625 49.828125 17.75 
Q 47.953125 10.984375 44.703125 6.8125 
Q 41.453125 2.640625 37.0625 0.828125 
Q 32.671875 -0.984375 27.6875 -0.984375 
Q 22.65625 -0.984375 18.3125 0.828125 
Q 13.96875 2.640625 10.765625 6.78125 
Q 7.5625 10.9375 5.734375 17.703125 
Q 3.90625 24.46875 3.90625 34.421875 
Q 3.90625 44.828125 5.734375 51.640625 
Q 7.5625 58.453125 10.78125 62.5 
Q 14.015625 66.546875 18.40625 68.1875 
Q 22.796875 69.828125 27.984375 69.828125 
Q 32.90625 69.828125 37.21875 68.1875 
Q 41.546875 66.546875 44.765625 62.5 
Q 48 58.453125 49.84375 51.640625 
Q 51.703125 44.828125 51.703125 34.421875 
M 42.78125 34.421875 
Q 42.78125 42.625 41.796875 48.0625 
Q 40.828125 53.515625 38.921875 56.765625 
Q 37.015625 60.015625 34.25 61.359375 
Q 31.5 62.703125 27.984375 62.703125 
Q 24.265625 62.703125 21.4375 61.328125 
Q 18.609375 59.96875 16.671875 56.71875 
Q 14.75 53.46875 13.765625 48.015625 
Q 12.796875 42.578125 12.796875 34.421875 
Q 12.796875 26.515625 13.796875 21.09375 
Q 14.796875 15.671875 16.71875 12.375 
Q 18.65625 9.078125 21.4375 7.640625 
Q 24.21875 6.203125 27.78125 6.203125 
Q 31.25 6.203125 34.03125 7.640625 
Q 36.8125 9.078125 38.734375 12.375 
Q 40.671875 15.671875 41.71875 21.09375 
Q 42.78125 26.515625 42.78125 34.421875 
" id="LiberationSans-30"/>
       <path d="M 9.125 42.71875 
L 9.125 52.828125 
L 18.65625 52.828125 
L 18.65625 42.71875 
z
M 9.125 0 
L 9.125 10.109375 
L 18.65625 10.109375 
L 18.65625 0 
z
" id="LiberationSans-3a"/>
       <path d="M 51.421875 22.40625 
Q 51.421875 17.234375 49.859375 12.9375 
Q 48.296875 8.640625 45.21875 5.53125 
Q 42.140625 2.4375 37.578125 0.71875 
Q 33.015625 -0.984375 27 -0.984375 
Q 21.578125 -0.984375 17.546875 0.28125 
Q 13.53125 1.5625 10.734375 3.78125 
Q 7.953125 6 6.3125 8.984375 
Q 4.6875 11.96875 4 15.375 
L 12.890625 16.40625 
Q 13.421875 14.453125 14.390625 12.625 
Q 15.375 10.796875 17.0625 9.34375 
Q 18.75 7.90625 21.21875 7.046875 
Q 23.6875 6.203125 27.203125 6.203125 
Q 30.609375 6.203125 33.390625 7.25 
Q 36.1875 8.296875 38.15625 10.34375 
Q 40.140625 12.40625 41.203125 15.375 
Q 42.28125 18.359375 42.28125 22.21875 
Q 42.28125 25.390625 41.25 28.046875 
Q 40.234375 30.71875 38.328125 32.640625 
Q 36.421875 34.578125 33.65625 35.640625 
Q 30.90625 36.71875 27.390625 36.71875 
Q 25.203125 36.71875 23.34375 36.328125 
Q 21.484375 35.9375 19.890625 35.25 
Q 18.3125 34.578125 17.015625 33.671875 
Q 15.71875 32.765625 14.59375 31.78125 
L 6 31.78125 
L 8.296875 68.796875 
L 47.40625 68.796875 
L 47.40625 61.328125 
L 16.3125 61.328125 
L 14.984375 39.5 
Q 17.328125 41.3125 20.84375 42.59375 
Q 24.359375 43.890625 29.203125 43.890625 
Q 34.328125 43.890625 38.421875 42.328125 
Q 42.53125 40.765625 45.40625 37.90625 
Q 48.296875 35.0625 49.859375 31.109375 
Q 51.421875 27.15625 51.421875 22.40625 
" id="LiberationSans-35"/>
       <path id="LiberationSans-20"/>
       <path d="M 4.4375 22.65625 
L 4.4375 30.46875 
L 28.859375 30.46875 
L 28.859375 22.65625 
z
" id="LiberationSans-2d"/>
      </defs>
      <g style="fill:#262626;" transform="translate(25.5765625 370.646875)scale(0.1 -0.1)">
       <use xlink:href="#LiberationSans-32"/>
       <use x="55.615234375" xlink:href="#LiberationSans-30"/>
       <use x="111.23046875" xlink:href="#LiberationSans-31"/>
       <use x="166.845703125" xlink:href="#LiberationSans-35"/>
       <use x="222.4609375" xlink:href="#LiberationSans-2d"/>
       <use x="255.76171875" xlink:href="#LiberationSans-31"/>
       <use x="311.376953125" xlink:href="#LiberationSans-32"/>
       <use x="366.9921875" xlink:href="#LiberationSans-2d"/>
       <use x="400.29296875" xlink:href="#LiberationSans-30"/>
       <use x="455.908203125" xlink:href="#LiberationSans-37"/>
       <use x="511.5234375" xlink:href="#LiberationSans-20"/>
       <use x="539.306640625" xlink:href="#LiberationSans-31"/>
       <use x="594.921875" xlink:href="#LiberationSans-30"/>
       <use x="650.537109375" xlink:href="#LiberationSans-3a"/>
       <use x="678.3203125" xlink:href="#LiberationSans-31"/>
       <use x="733.935546875" xlink:href="#LiberationSans-32"/>
       <use x="789.55078125" xlink:href="#LiberationSans-3a"/>
       <use x="817.333984375" xlink:href="#LiberationSans-30"/>
       <use x="872.94921875" xlink:href="#LiberationSans-30"/>
      </g>
     </g>
    </g>
    <g id="xtick_2">
     <g id="line2d_4">
      <path clip-path="url(#pde0308b903)" d="M 183.655828 356.4 
L 183.655828 39.6 
" style="fill:none;stroke:#ffffff;stroke-linecap:round;"/>
     </g>
     <g id="line2d_5"/>
     <g id="line2d_6"/>
     <g id="text_2">
      <!-- 2015-12-09 13:50:00 -->
      <defs>
       <path d="M 51.21875 19 
Q 51.21875 14.265625 49.671875 10.546875 
Q 48.140625 6.84375 45.1875 4.265625 
Q 42.234375 1.703125 37.859375 0.359375 
Q 33.5 -0.984375 27.875 -0.984375 
Q 21.484375 -0.984375 17.109375 0.609375 
Q 12.75 2.203125 9.90625 4.8125 
Q 7.078125 7.421875 5.65625 10.765625 
Q 4.25 14.109375 3.8125 17.671875 
L 12.890625 18.5 
Q 13.28125 15.765625 14.328125 13.515625 
Q 15.375 11.28125 17.1875 9.671875 
Q 19 8.0625 21.625 7.171875 
Q 24.265625 6.296875 27.875 6.296875 
Q 34.515625 6.296875 38.296875 9.5625 
Q 42.09375 12.84375 42.09375 19.28125 
Q 42.09375 23.09375 40.40625 25.40625 
Q 38.71875 27.734375 36.203125 29.03125 
Q 33.6875 30.328125 30.734375 30.765625 
Q 27.78125 31.203125 25.296875 31.203125 
L 20.3125 31.203125 
L 20.3125 38.8125 
L 25.09375 38.8125 
Q 27.59375 38.8125 30.265625 39.328125 
Q 32.953125 39.84375 35.171875 41.1875 
Q 37.40625 42.53125 38.84375 44.828125 
Q 40.28125 47.125 40.28125 50.6875 
Q 40.28125 56.203125 37.03125 59.390625 
Q 33.796875 62.59375 27.390625 62.59375 
Q 21.578125 62.59375 17.984375 59.609375 
Q 14.40625 56.640625 13.8125 51.21875 
L 4.984375 51.90625 
Q 5.515625 56.453125 7.46875 59.8125 
Q 9.421875 63.1875 12.421875 65.40625 
Q 15.4375 67.625 19.28125 68.71875 
Q 23.140625 69.828125 27.484375 69.828125 
Q 33.25 69.828125 37.390625 68.375 
Q 41.546875 66.9375 44.1875 64.46875 
Q 46.828125 62.015625 48.0625 58.6875 
Q 49.3125 55.375 49.3125 51.609375 
Q 49.3125 48.578125 48.484375 45.9375 
Q 47.65625 43.3125 45.890625 41.203125 
Q 44.140625 39.109375 41.421875 37.59375 
Q 38.71875 36.078125 34.90625 35.296875 
L 34.90625 35.109375 
Q 39.0625 34.671875 42.140625 33.21875 
Q 45.21875 31.78125 47.21875 29.625 
Q 49.21875 27.484375 50.21875 24.75 
Q 51.21875 22.015625 51.21875 19 
" id="LiberationSans-33"/>
       <path d="M 50.875 35.796875 
Q 50.875 26.609375 49.140625 19.703125 
Q 47.40625 12.796875 44.1875 8.203125 
Q 40.96875 3.609375 36.34375 1.3125 
Q 31.734375 -0.984375 25.984375 -0.984375 
Q 22.015625 -0.984375 18.84375 -0.171875 
Q 15.671875 0.640625 13.171875 2.34375 
Q 10.6875 4.046875 8.921875 6.78125 
Q 7.171875 9.515625 6.109375 13.375 
L 14.5 14.703125 
Q 15.875 10.25 18.78125 8.171875 
Q 21.6875 6.109375 26.125 6.109375 
Q 29.6875 6.109375 32.640625 7.78125 
Q 35.59375 9.46875 37.671875 12.84375 
Q 39.75 16.21875 40.921875 21.296875 
Q 42.09375 26.375 42.1875 33.203125 
Q 41.15625 30.90625 39.375 29.09375 
Q 37.59375 27.296875 35.328125 26.046875 
Q 33.0625 24.8125 30.421875 24.140625 
Q 27.78125 23.484375 25.09375 23.484375 
Q 20.40625 23.484375 16.625 25.171875 
Q 12.84375 26.859375 10.203125 29.875 
Q 7.5625 32.90625 6.125 37.171875 
Q 4.6875 41.453125 4.6875 46.6875 
Q 4.6875 52 6.21875 56.296875 
Q 7.765625 60.59375 10.6875 63.59375 
Q 13.625 66.609375 17.890625 68.21875 
Q 22.171875 69.828125 27.59375 69.828125 
Q 39.0625 69.828125 44.96875 61.328125 
Q 50.875 52.828125 50.875 35.796875 
M 41.3125 44.28125 
Q 41.3125 48.09375 40.40625 51.453125 
Q 39.5 54.828125 37.71875 57.3125 
Q 35.9375 59.8125 33.328125 61.25 
Q 30.71875 62.703125 27.296875 62.703125 
Q 24.125 62.703125 21.578125 61.578125 
Q 19.046875 60.453125 17.28125 58.375 
Q 15.53125 56.296875 14.578125 53.3125 
Q 13.625 50.34375 13.625 46.6875 
Q 13.625 43.21875 14.46875 40.234375 
Q 15.328125 37.25 17.03125 35.078125 
Q 18.75 32.90625 21.28125 31.65625 
Q 23.828125 30.421875 27.203125 30.421875 
Q 29.640625 30.421875 32.15625 31.25 
Q 34.671875 32.078125 36.6875 33.78125 
Q 38.71875 35.5 40.015625 38.109375 
Q 41.3125 40.71875 41.3125 44.28125 
" id="LiberationSans-39"/>
      </defs>
      <g style="fill:#262626;" transform="translate(137.232390414 370.646875)scale(0.1 -0.1)">
       <use xlink:href="#LiberationSans-32"/>
       <use x="55.615234375" xlink:href="#LiberationSans-30"/>
       <use x="111.23046875" xlink:href="#LiberationSans-31"/>
       <use x="166.845703125" xlink:href="#LiberationSans-35"/>
       <use x="222.4609375" xlink:href="#LiberationSans-2d"/>
       <use x="255.76171875" xlink:href="#LiberationSans-31"/>
       <use x="311.376953125" xlink:href="#LiberationSans-32"/>
       <use x="366.9921875" xlink:href="#LiberationSans-2d"/>
       <use x="400.29296875" xlink:href="#LiberationSans-30"/>
       <use x="455.908203125" xlink:href="#LiberationSans-39"/>
       <use x="511.5234375" xlink:href="#LiberationSans-20"/>
       <use x="539.306640625" xlink:href="#LiberationSans-31"/>
       <use x="594.921875" xlink:href="#LiberationSans-33"/>
       <use x="650.537109375" xlink:href="#LiberationSans-3a"/>
       <use x="678.3203125" xlink:href="#LiberationSans-35"/>
       <use x="733.935546875" xlink:href="#LiberationSans-30"/>
       <use x="789.55078125" xlink:href="#LiberationSans-3a"/>
       <use x="817.333984375" xlink:href="#LiberationSans-30"/>
       <use x="872.94921875" xlink:href="#LiberationSans-30"/>
      </g>
     </g>
    </g>
    <g id="xtick_3">
     <g id="line2d_7">
      <path clip-path="url(#pde0308b903)" d="M 295.311656 356.4 
L 295.311656 39.6 
" style="fill:none;stroke:#ffffff;stroke-linecap:round;"/>
     </g>
     <g id="line2d_8"/>
     <g id="line2d_9"/>
     <g id="text_3">
      <!-- 2015-12-14 09:47:00 -->
      <defs>
       <path d="M 43.015625 15.578125 
L 43.015625 0 
L 34.71875 0 
L 34.71875 15.578125 
L 2.296875 15.578125 
L 2.296875 22.40625 
L 33.796875 68.796875 
L 43.015625 68.796875 
L 43.015625 22.515625 
L 52.6875 22.515625 
L 52.6875 15.578125 
z
M 34.71875 58.890625 
Q 34.625 58.640625 34.234375 57.9375 
Q 33.84375 57.234375 33.34375 56.34375 
Q 32.859375 55.46875 32.34375 54.5625 
Q 31.84375 53.65625 31.453125 53.078125 
L 13.8125 27.09375 
Q 13.578125 26.703125 13.109375 26.0625 
Q 12.640625 25.4375 12.15625 24.78125 
Q 11.671875 24.125 11.171875 23.484375 
Q 10.6875 22.859375 10.40625 22.515625 
L 34.71875 22.515625 
z
" id="LiberationSans-34"/>
      </defs>
      <g style="fill:#262626;" transform="translate(248.888218328 370.646875)scale(0.1 -0.1)">
       <use xlink:href="#LiberationSans-32"/>
       <use x="55.615234375" xlink:href="#LiberationSans-30"/>
       <use x="111.23046875" xlink:href="#LiberationSans-31"/>
       <use x="166.845703125" xlink:href="#LiberationSans-35"/>
       <use x="222.4609375" xlink:href="#LiberationSans-2d"/>
       <use x="255.76171875" xlink:href="#LiberationSans-31"/>
       <use x="311.376953125" xlink:href="#LiberationSans-32"/>
       <use x="366.9921875" xlink:href="#LiberationSans-2d"/>
       <use x="400.29296875" xlink:href="#LiberationSans-31"/>
       <use x="455.908203125" xlink:href="#LiberationSans-34"/>
       <use x="511.5234375" xlink:href="#LiberationSans-20"/>
       <use x="539.306640625" xlink:href="#LiberationSans-30"/>
       <use x="594.921875" xlink:href="#LiberationSans-39"/>
       <use x="650.537109375" xlink:href="#LiberationSans-3a"/>
       <use x="678.3203125" xlink:href="#LiberationSans-34"/>
       <use x="733.935546875" xlink:href="#LiberationSans-37"/>
       <use x="789.55078125" xlink:href="#LiberationSans-3a"/>
       <use x="817.333984375" xlink:href="#LiberationSans-30"/>
       <use x="872.94921875" xlink:href="#LiberationSans-30"/>
      </g>
     </g>
    </g>
    <g id="xtick_4">
     <g id="line2d_10">
      <path clip-path="url(#pde0308b903)" d="M 406.967484 356.4 
L 406.967484 39.6 
" style="fill:none;stroke:#ffffff;stroke-linecap:round;"/>
     </g>
     <g id="line2d_11"/>
     <g id="line2d_12"/>
     <g id="text_4">
      <!-- 2015-12-16 13:34:00 -->
      <defs>
       <path d="M 51.21875 22.515625 
Q 51.21875 17.328125 49.78125 13 
Q 48.34375 8.6875 45.53125 5.578125 
Q 42.71875 2.484375 38.5625 0.75 
Q 34.421875 -0.984375 29 -0.984375 
Q 23 -0.984375 18.5 1.3125 
Q 14.015625 3.609375 11.03125 7.921875 
Q 8.0625 12.25 6.5625 18.53125 
Q 5.078125 24.8125 5.078125 32.8125 
Q 5.078125 42 6.765625 48.921875 
Q 8.453125 55.859375 11.625 60.5 
Q 14.796875 65.140625 19.359375 67.484375 
Q 23.921875 69.828125 29.6875 69.828125 
Q 33.203125 69.828125 36.28125 69.09375 
Q 39.359375 68.359375 41.875 66.71875 
Q 44.390625 65.09375 46.28125 62.40625 
Q 48.1875 59.71875 49.3125 55.8125 
L 40.921875 54.296875 
Q 39.546875 58.734375 36.546875 60.71875 
Q 33.546875 62.703125 29.59375 62.703125 
Q 25.984375 62.703125 23.046875 60.984375 
Q 20.125 59.28125 18.0625 55.875 
Q 16.015625 52.484375 14.90625 47.359375 
Q 13.8125 42.234375 13.8125 35.40625 
Q 16.21875 39.84375 20.5625 42.15625 
Q 24.90625 44.484375 30.515625 44.484375 
Q 35.203125 44.484375 39.015625 42.96875 
Q 42.828125 41.453125 45.53125 38.59375 
Q 48.25 35.75 49.734375 31.671875 
Q 51.21875 27.59375 51.21875 22.515625 
M 42.28125 22.125 
Q 42.28125 25.6875 41.40625 28.5625 
Q 40.53125 31.453125 38.765625 33.46875 
Q 37.015625 35.5 34.421875 36.59375 
Q 31.84375 37.703125 28.421875 37.703125 
Q 26.03125 37.703125 23.578125 36.984375 
Q 21.140625 36.28125 19.15625 34.6875 
Q 17.1875 33.109375 15.9375 30.515625 
Q 14.703125 27.9375 14.703125 24.21875 
Q 14.703125 20.40625 15.671875 17.109375 
Q 16.65625 13.8125 18.484375 11.375 
Q 20.3125 8.9375 22.890625 7.515625 
Q 25.484375 6.109375 28.71875 6.109375 
Q 31.890625 6.109375 34.40625 7.203125 
Q 36.921875 8.296875 38.671875 10.375 
Q 40.4375 12.453125 41.359375 15.421875 
Q 42.28125 18.40625 42.28125 22.125 
" id="LiberationSans-36"/>
      </defs>
      <g style="fill:#262626;" transform="translate(360.544046242 370.646875)scale(0.1 -0.1)">
       <use xlink:href="#LiberationSans-32"/>
       <use x="55.615234375" xlink:href="#LiberationSans-30"/>
       <use x="111.23046875" xlink:href="#LiberationSans-31"/>
       <use x="166.845703125" xlink:href="#LiberationSans-35"/>
       <use x="222.4609375" xlink:href="#LiberationSans-2d"/>
       <use x="255.76171875" xlink:href="#LiberationSans-31"/>
       <use x="311.376953125" xlink:href="#LiberationSans-32"/>
       <use x="366.9921875" xlink:href="#LiberationSans-2d"/>
       <use x="400.29296875" xlink:href="#LiberationSans-31"/>
       <use x="455.908203125" xlink:href="#LiberationSans-36"/>
       <use x="511.5234375" xlink:href="#LiberationSans-20"/>
       <use x="539.306640625" xlink:href="#LiberationSans-31"/>
       <use x="594.921875" xlink:href="#LiberationSans-33"/>
       <use x="650.537109375" xlink:href="#LiberationSans-3a"/>
       <use x="678.3203125" xlink:href="#LiberationSans-33"/>
       <use x="733.935546875" xlink:href="#LiberationSans-34"/>
       <use x="789.55078125" xlink:href="#LiberationSans-3a"/>
       <use x="817.333984375" xlink:href="#LiberationSans-30"/>
       <use x="872.94921875" xlink:href="#LiberationSans-30"/>
      </g>
     </g>
    </g>
    <g id="text_5">
     <!-- time -->
     <defs>
      <path d="M 13.484375 24.5625 
Q 13.484375 20.40625 14.328125 16.90625 
Q 15.1875 13.421875 16.96875 10.90625 
Q 18.75 8.40625 21.53125 7 
Q 24.3125 5.609375 28.21875 5.609375 
Q 33.9375 5.609375 37.375 7.90625 
Q 40.828125 10.203125 42.046875 13.71875 
L 49.75 11.53125 
Q 48.921875 9.328125 47.4375 7.109375 
Q 45.953125 4.890625 43.453125 3.09375 
Q 40.96875 1.3125 37.234375 0.15625 
Q 33.5 -0.984375 28.21875 -0.984375 
Q 16.5 -0.984375 10.375 6 
Q 4.25 12.984375 4.25 26.765625 
Q 4.25 34.1875 6.09375 39.328125 
Q 7.953125 44.484375 11.171875 47.703125 
Q 14.40625 50.921875 18.703125 52.359375 
Q 23 53.8125 27.875 53.8125 
Q 34.515625 53.8125 38.984375 51.65625 
Q 43.453125 49.515625 46.15625 45.71875 
Q 48.875 41.9375 50.015625 36.8125 
Q 51.171875 31.6875 51.171875 25.734375 
L 51.171875 24.5625 
z
M 42.09375 31.296875 
Q 41.359375 39.65625 37.84375 43.484375 
Q 34.328125 47.3125 27.734375 47.3125 
Q 25.53125 47.3125 23.109375 46.609375 
Q 20.703125 45.90625 18.65625 44.09375 
Q 16.609375 42.28125 15.1875 39.171875 
Q 13.765625 36.078125 13.578125 31.296875 
z
" id="LiberationSans-65"/>
      <path d="M 6.6875 64.0625 
L 6.6875 72.46875 
L 15.484375 72.46875 
L 15.484375 64.0625 
z
M 6.6875 0 
L 6.6875 52.828125 
L 15.484375 52.828125 
L 15.484375 0 
z
" id="LiberationSans-69"/>
      <path d="M 27.046875 0.390625 
Q 25.046875 -0.140625 22.96875 -0.453125 
Q 20.90625 -0.78125 18.171875 -0.78125 
Q 7.625 -0.78125 7.625 11.1875 
L 7.625 46.4375 
L 1.515625 46.4375 
L 1.515625 52.828125 
L 7.953125 52.828125 
L 10.546875 64.65625 
L 16.40625 64.65625 
L 16.40625 52.828125 
L 26.171875 52.828125 
L 26.171875 46.4375 
L 16.40625 46.4375 
L 16.40625 13.09375 
Q 16.40625 9.28125 17.640625 7.734375 
Q 18.890625 6.203125 21.96875 6.203125 
Q 23.25 6.203125 24.4375 6.390625 
Q 25.640625 6.59375 27.046875 6.890625 
z
" id="LiberationSans-74"/>
      <path d="M 37.5 0 
L 37.5 33.5 
Q 37.5 37.359375 37.015625 39.9375 
Q 36.53125 42.53125 35.375 44.109375 
Q 34.234375 45.703125 32.375 46.359375 
Q 30.515625 47.015625 27.828125 47.015625 
Q 25.046875 47.015625 22.796875 45.921875 
Q 20.5625 44.828125 18.96875 42.75 
Q 17.390625 40.671875 16.53125 37.625 
Q 15.671875 34.578125 15.671875 30.609375 
L 15.671875 0 
L 6.9375 0 
L 6.9375 41.546875 
Q 6.9375 43.21875 6.90625 45.046875 
Q 6.890625 46.875 6.828125 48.5 
Q 6.78125 50.140625 6.734375 51.3125 
Q 6.6875 52.484375 6.640625 52.828125 
L 14.9375 52.828125 
Q 14.984375 52.59375 15.03125 51.515625 
Q 15.09375 50.4375 15.15625 49.046875 
Q 15.234375 47.65625 15.28125 46.21875 
Q 15.328125 44.78125 15.328125 43.796875 
L 15.484375 43.796875 
Q 16.65625 46.09375 18.015625 47.953125 
Q 19.390625 49.8125 21.21875 51.09375 
Q 23.046875 52.390625 25.40625 53.09375 
Q 27.78125 53.8125 30.90625 53.8125 
Q 36.921875 53.8125 40.40625 51.421875 
Q 43.890625 49.03125 45.265625 43.796875 
L 45.40625 43.796875 
Q 46.578125 46.09375 48.046875 47.953125 
Q 49.515625 49.8125 51.46875 51.09375 
Q 53.421875 52.390625 55.859375 53.09375 
Q 58.296875 53.8125 61.421875 53.8125 
Q 65.4375 53.8125 68.328125 52.734375 
Q 71.234375 51.65625 73.09375 49.40625 
Q 74.953125 47.171875 75.828125 43.625 
Q 76.703125 40.09375 76.703125 35.203125 
L 76.703125 0 
L 68.015625 0 
L 68.015625 33.5 
Q 68.015625 37.359375 67.53125 39.9375 
Q 67.046875 42.53125 65.890625 44.109375 
Q 64.75 45.703125 62.890625 46.359375 
Q 61.03125 47.015625 58.34375 47.015625 
Q 55.5625 47.015625 53.3125 45.96875 
Q 51.078125 44.921875 49.484375 42.875 
Q 47.90625 40.828125 47.046875 37.75 
Q 46.1875 34.671875 46.1875 30.609375 
L 46.1875 0 
z
" id="LiberationSans-6d"/>
     </defs>
     <g style="fill:#262626;" transform="translate(284.81015625 385.6934375)scale(0.11 -0.11)">
      <use xlink:href="#LiberationSans-74"/>
      <use x="27.783203125" xlink:href="#LiberationSans-69"/>
      <use x="50.0" xlink:href="#LiberationSans-6d"/>
      <use x="133.30078125" xlink:href="#LiberationSans-65"/>
     </g>
    </g>
   </g>
   <g id="matplotlib.axis_2">
    <g id="ytick_1">
     <g id="line2d_13">
      <path clip-path="url(#pde0308b903)" d="M 72 356.4 
L 518.4 356.4 
" style="fill:none;stroke:#ffffff;stroke-linecap:round;"/>
     </g>
     <g id="line2d_14"/>
     <g id="line2d_15"/>
     <g id="text_6">
      <!-- −700 -->
      <defs>
       <path d="M 4.9375 29.6875 
L 4.9375 36.8125 
L 53.515625 36.8125 
L 53.515625 29.6875 
z
" id="LiberationSans-2212"/>
      </defs>
      <g style="fill:#262626;" transform="translate(42.4765625 358.9859375)scale(0.1 -0.1)">
       <use xlink:href="#LiberationSans-2212"/>
       <use x="58.3984375" xlink:href="#LiberationSans-37"/>
       <use x="114.013671875" xlink:href="#LiberationSans-30"/>
       <use x="169.62890625" xlink:href="#LiberationSans-30"/>
      </g>
     </g>
    </g>
    <g id="ytick_2">
     <g id="line2d_16">
      <path clip-path="url(#pde0308b903)" d="M 72 277.2 
L 518.4 277.2 
" style="fill:none;stroke:#ffffff;stroke-linecap:round;"/>
     </g>
     <g id="line2d_17"/>
     <g id="line2d_18"/>
     <g id="text_7">
      <!-- −650 -->
      <g style="fill:#262626;" transform="translate(42.4765625 279.7859375)scale(0.1 -0.1)">
       <use xlink:href="#LiberationSans-2212"/>
       <use x="58.3984375" xlink:href="#LiberationSans-36"/>
       <use x="114.013671875" xlink:href="#LiberationSans-35"/>
       <use x="169.62890625" xlink:href="#LiberationSans-30"/>
      </g>
     </g>
    </g>
    <g id="ytick_3">
     <g id="line2d_19">
      <path clip-path="url(#pde0308b903)" d="M 72 198 
L 518.4 198 
" style="fill:none;stroke:#ffffff;stroke-linecap:round;"/>
     </g>
     <g id="line2d_20"/>
     <g id="line2d_21"/>
     <g id="text_8">
      <!-- −600 -->
      <g style="fill:#262626;" transform="translate(42.4765625 200.5859375)scale(0.1 -0.1)">
       <use xlink:href="#LiberationSans-2212"/>
       <use x="58.3984375" xlink:href="#LiberationSans-36"/>
       <use x="114.013671875" xlink:href="#LiberationSans-30"/>
       <use x="169.62890625" xlink:href="#LiberationSans-30"/>
      </g>
     </g>
    </g>
    <g id="ytick_4">
     <g id="line2d_22">
      <path clip-path="url(#pde0308b903)" d="M 72 118.8 
L 518.4 118.8 
" style="fill:none;stroke:#ffffff;stroke-linecap:round;"/>
     </g>
     <g id="line2d_23"/>
     <g id="line2d_24"/>
     <g id="text_9">
      <!-- −550 -->
      <g style="fill:#262626;" transform="translate(42.4765625 121.3859375)scale(0.1 -0.1)">
       <use xlink:href="#LiberationSans-2212"/>
       <use x="58.3984375" xlink:href="#LiberationSans-35"/>
       <use x="114.013671875" xlink:href="#LiberationSans-35"/>
       <use x="169.62890625" xlink:href="#LiberationSans-30"/>
      </g>
     </g>
    </g>
    <g id="ytick_5">
     <g id="line2d_25">
      <path clip-path="url(#pde0308b903)" d="M 72 39.6 
L 518.4 39.6 
" style="fill:none;stroke:#ffffff;stroke-linecap:round;"/>
     </g>
     <g id="line2d_26"/>
     <g id="line2d_27"/>
     <g id="text_10">
      <!-- −500 -->
      <g style="fill:#262626;" transform="translate(42.4765625 42.1859375)scale(0.1 -0.1)">
       <use xlink:href="#LiberationSans-2212"/>
       <use x="58.3984375" xlink:href="#LiberationSans-35"/>
       <use x="114.013671875" xlink:href="#LiberationSans-30"/>
       <use x="169.62890625" xlink:href="#LiberationSans-30"/>
      </g>
     </g>
    </g>
   </g>
   <g id="line2d_28">
    <path clip-path="url(#pde0308b903)" d="M 72 102.028132 
L 72.223312 104.879332 
L 72.446623 103.555989 
L 72.669935 81.205749 
L 72.893247 80.595206 
L 73.116558 77.657589 
L 73.33987 70.823332 
L 73.563182 69.413572 
L 73.786493 70.126372 
L 74.009805 76.960629 
L 74.233117 90.264823 
L 74.67974 86.265926 
L 74.903052 86.265926 
L 75.126363 87.327206 
L 75.572986 109.604057 
L 75.796298 108.891257 
L 76.01961 106.055897 
L 76.242921 97.81188 
L 76.466233 108.891257 
L 76.689545 89.363349 
L 76.912856 94.075046 
L 77.35948 111.27588 
L 77.582791 90.191433 
L 77.806103 111.56681 
L 78.029415 99.410313 
L 78.252726 102.261513 
L 78.476038 99.061833 
L 78.69935 97.549817 
L 78.922661 90.817817 
L 79.145973 87.618137 
L 79.369285 98.000553 
L 79.592596 91.617033 
L 79.815908 90.555753 
L 80.03922 93.288857 
L 80.262531 93.288857 
L 80.485843 90.36708 
L 80.709155 71.638389 
L 80.932466 70.765783 
L 81.155778 68.627383 
L 81.37909 74.662423 
L 81.602401 87.1674 
L 81.825713 89.043737 
L 82.049025 79.460537 
L 82.272336 83.357177 
L 82.495648 80.259753 
L 82.718959 66.693497 
L 82.942271 71.302937 
L 83.165583 70.343913 
L 83.612206 56.6754 
L 83.835518 58.44948 
L 84.058829 55.773926 
L 84.505453 62.243863 
L 84.952076 74.05188 
L 85.175388 69.44244 
L 85.398699 70.052983 
L 85.622011 75.563897 
L 85.845323 99.22164 
L 86.068634 94.97652 
L 86.291946 96.0378 
L 86.515258 94.161463 
L 86.961881 104.281817 
L 87.408504 165.614482 
L 87.631816 157.530272 
L 87.855128 157.690078 
L 88.078439 165.601455 
L 88.301751 169.236032 
L 88.525063 159.914895 
L 88.748374 162.299518 
L 88.971686 155.669775 
L 89.194997 167.461952 
L 89.418309 161.426912 
L 89.641621 160.017152 
L 89.864932 167.302145 
L 90.088244 162.241969 
L 90.534867 167.302145 
L 90.758179 162.328385 
L 90.981491 170.588242 
L 91.204802 160.205825 
L 91.428114 172.899476 
L 91.651426 168.552099 
L 91.874737 156.309185 
L 92.321361 166.429539 
L 92.544672 156.395602 
L 92.991296 166.691602 
L 93.214607 163.753985 
L 93.437919 174.644689 
L 93.661231 170.748049 
L 93.884542 180.228992 
L 94.107854 170.748049 
L 94.331166 167.461952 
L 94.554477 161.078432 
L 94.777789 169.846575 
L 95.001101 150.507341 
L 95.224412 161.500301 
L 95.447724 161.602558 
L 95.671036 173.656798 
L 95.894347 174.820335 
L 96.117659 163.376638 
L 96.34097 169.846575 
L 96.564282 163.376638 
L 96.787594 161.238238 
L 97.010905 160.176958 
L 97.234217 174.820335 
L 97.457529 163.463055 
L 97.68084 162.401775 
L 97.904152 154.244175 
L 98.127464 153.531375 
L 98.350775 164.016049 
L 98.574087 145.738095 
L 98.797399 144.226078 
L 99.02071 143.513278 
L 99.467334 147.962912 
L 99.913957 126.587535 
L 100.137269 123.387855 
L 100.36058 132.258255 
L 100.583892 132.622575 
L 100.807204 145.213969 
L 101.030515 145.213969 
L 101.253827 141.579392 
L 101.477139 151.699745 
L 101.70045 147.352369 
L 102.147074 160.103569 
L 102.370385 170.137505 
L 102.593697 172.624385 
L 102.817009 176.869505 
L 103.04032 177.233825 
L 103.263632 172.362322 
L 103.486943 175.910482 
L 103.710255 183.892436 
L 103.933567 177.058179 
L 104.156878 178.135299 
L 104.38019 175.734836 
L 104.603502 172.100259 
L 104.826813 175.734836 
L 105.050125 185.957447 
L 105.273437 184.09695 
L 105.496748 100.036511 
L 105.72006 112.106591 
L 105.943372 115.392688 
L 106.166683 115.028368 
L 106.389995 115.290431 
L 106.613307 125.062305 
L 106.836618 143.848545 
L 107.05993 143.586481 
L 107.283242 138.628561 
L 107.506553 146.073361 
L 107.729865 135.444721 
L 108.176488 153.706835 
L 108.623112 141.566178 
L 108.846423 144.401538 
L 109.069735 139.427778 
L 109.293047 140.504898 
L 109.73967 130.470961 
L 109.962981 137.567281 
L 110.186293 134.993985 
L 110.409605 146.683905 
L 110.632916 139.603425 
L 110.856228 159.291138 
L 111.07954 143.950801 
L 111.302851 146.175618 
L 111.526163 143.586481 
L 111.972786 134.731921 
L 112.196098 134.019121 
L 112.41941 129.409681 
L 112.642721 129.061201 
L 112.866033 124.001025 
L 113.089345 134.019121 
L 113.535968 122.923905 
L 114.429215 147.134641 
L 114.875838 141.812401 
L 115.545773 129.671745 
L 115.769085 138.280081 
L 115.992396 138.439888 
L 116.215708 129.221008 
L 116.662331 149.883585 
L 116.885643 168.161538 
L 117.332266 148.822305 
L 117.555578 154.493025 
L 117.778889 147.745185 
L 118.002201 154.493025 
L 118.225513 153.518161 
L 118.448824 143.500065 
L 118.672136 149.970001 
L 118.895448 148.195921 
L 119.118759 184.374481 
L 119.342071 186.148561 
L 119.565383 190.409521 
L 119.788694 191.819281 
L 120.012006 190.860258 
L 120.235318 187.660578 
L 120.458629 180.113521 
L 120.681941 187.312098 
L 120.905253 187.312098 
L 121.128564 187.660578 
L 121.351876 188.721858 
L 121.575188 187.398515 
L 121.798499 206.840006 
L 122.021811 204.455383 
L 122.245123 196.908326 
L 122.468434 216.59604 
L 122.915058 218.820857 
L 123.138369 209.413303 
L 123.361681 209.413303 
L 123.584992 220.959257 
L 123.808304 205.60308 
L 124.254927 216.509623 
L 124.701551 236.11092 
L 125.148174 214.387063 
L 125.371486 221.119063 
L 125.594797 221.467543 
L 126.041421 210.22836 
L 126.264732 209.15124 
L 126.488044 198.87108 
L 126.711356 198.260537 
L 126.934667 203.582777 
L 127.157979 202.157177 
L 127.381291 203.48052 
L 127.604602 195.425177 
L 127.827914 201.808697 
L 128.274537 218.31257 
L 128.497849 204.90612 
L 128.721161 209.601977 
L 128.944472 204.730473 
L 129.167784 207.770347 
L 129.614407 201.64889 
L 129.837719 216.727164 
L 130.061031 214.153867 
L 130.284342 223.212941 
L 130.507654 216.829421 
L 130.954277 240.413775 
L 131.177589 239.614558 
L 131.4009 225.597564 
L 131.624212 232.780301 
L 131.847524 223.110684 
L 132.070835 220.537387 
L 132.294147 234.554381 
L 132.517459 185.071627 
L 132.74077 186.481387 
L 132.964082 186.583644 
L 133.187394 188.255467 
L 133.410705 185.784427 
L 133.634017 167.506473 
L 133.857329 166.633867 
L 134.08064 174.791467 
L 134.303952 175.40201 
L 134.527264 178.23737 
L 134.750575 177.17609 
L 135.42051 190.393867 
L 135.643822 190.480284 
L 136.090445 177.17609 
L 136.313757 176.012553 
L 136.983692 222.586558 
L 137.207004 220.013261 
L 137.876938 256.757842 
L 138.323562 269.176402 
L 138.546873 259.244722 
L 138.770185 254.635282 
L 139.216808 277.682482 
L 139.44012 261.265025 
L 139.663432 253.021009 
L 139.886743 254.795089 
L 140.333367 247.350289 
L 140.77999 236.865615 
L 141.226613 247.612352 
L 141.449925 235.804335 
L 142.11986 257.441775 
L 142.343172 255.319215 
L 142.566483 250.767324 
L 142.789795 233.91497 
L 143.013107 236.03753 
L 143.236418 230.01833 
L 143.45973 229.391947 
L 143.683042 232.940107 
L 143.906353 227.53145 
L 144.129665 226.10585 
L 144.576288 251.029387 
L 144.7996 248.80457 
L 145.022911 239.58569 
L 145.246223 237.360873 
L 145.469535 237.09881 
L 145.692846 230.264553 
L 145.916158 227.53145 
L 146.13947 226.47017 
L 146.362781 233.20217 
L 146.586093 233.55065 
L 146.809405 222.471273 
L 147.032716 217.59977 
L 147.256028 221.947147 
L 147.47934 223.372747 
L 147.702651 219.476107 
L 147.925963 231.268284 
L 148.149275 230.903964 
L 148.372586 238.815341 
L 148.595898 233.841581 
L 148.81921 248.731181 
L 149.042521 238.000284 
L 149.265833 252.279341 
L 149.489145 255.376764 
L 149.712456 252.889884 
L 149.935768 242.523307 
L 150.15908 251.131644 
L 150.605703 245.358667 
L 150.829015 231.77657 
L 151.052326 227.080713 
L 151.275638 225.204377 
L 151.498949 227.793513 
L 151.722261 222.471273 
L 151.945573 226.208107 
L 152.168884 225.146827 
L 152.392196 219.72233 
L 152.615508 210.86777 
L 152.838819 257.179712 
L 153.062131 252.918752 
L 153.285443 244.776992 
L 153.732066 265.177505 
L 153.955378 251.595409 
L 154.178689 260.568065 
L 154.625313 265.366179 
L 154.848624 249.472849 
L 155.295248 247.350289 
L 155.518559 260.916545 
L 155.741871 254.533025 
L 155.965183 253.369489 
L 156.411806 256.204849 
L 156.635118 251.144672 
L 156.858429 242.290112 
L 157.081741 216.043232 
L 157.305053 221.016992 
L 157.528364 216.407552 
L 157.974987 222.426752 
L 158.198299 221.016992 
L 158.421611 218.079375 
L 158.644922 219.140655 
L 158.868234 225.175695 
L 159.314857 229.609489 
L 159.538169 227.646735 
L 159.761481 219.140655 
L 159.984792 219.853455 
L 160.208104 225.175695 
L 160.654727 221.787341 
L 161.101351 229.334398 
L 161.324662 235.717918 
L 161.547974 246.985969 
L 161.771286 245.924689 
L 161.994597 240.151712 
L 162.217909 237.418609 
L 162.441221 244.514929 
L 162.664532 242.028049 
L 163.111156 226.323392 
L 163.334467 233.521969 
L 163.557779 229.973809 
L 163.781091 232.460689 
L 164.004402 228.548209 
L 164.227714 221.713952 
L 164.451026 218.878592 
L 164.674337 221.016992 
L 165.12096 218.165792 
L 165.344272 229.523072 
L 165.567584 233.157649 
L 166.014207 226.323392 
L 166.237519 249.575105 
L 166.46083 247.887442 
L 166.684142 247.190482 
L 167.130765 246.564099 
L 167.577389 230.510962 
L 167.8007 228.941396 
L 168.024012 249.079847 
L 168.247324 242.59407 
L 168.470635 250.853927 
L 168.693947 247.91631 
L 168.917259 230.351156 
L 169.14057 241.794853 
L 169.587194 224.331956 
L 169.810505 230.801893 
L 170.033817 232.575973 
L 170.48044 229.027813 
L 170.703752 232.924453 
L 170.927064 224.069893 
L 171.596998 244.470407 
L 172.490245 218.645396 
L 172.713557 230.801893 
L 172.936868 233.637253 
L 173.16018 239.75871 
L 173.383492 237.185413 
L 173.606803 231.514693 
L 173.830115 231.150373 
L 174.053427 231.150373 
L 174.276738 223.705573 
L 174.50005 231.863173 
L 174.723362 235.775653 
L 174.946673 230.089093 
L 175.169985 231.514693 
L 175.393297 226.192453 
L 175.83992 209.877253 
L 176.509855 220.97247 
L 176.733167 218.587847 
L 176.956478 213.87615 
L 177.17979 212.552807 
L 177.403102 222.935224 
L 177.626413 219.387064 
L 177.849725 212.46639 
L 178.073037 197.56095 
L 178.296348 207.230567 
L 178.51966 194.885396 
L 178.742971 202.432453 
L 178.966283 204.206533 
L 179.189595 256.07391 
L 179.412906 249.69039 
L 179.636218 254.213413 
L 179.85953 248.891173 
L 180.082841 246.666356 
L 180.306153 246.768613 
L 180.529465 251.013733 
L 180.752776 234.161379 
L 180.976088 227.589185 
L 181.422711 251.799922 
L 181.646023 252.599139 
L 181.869335 246.113362 
L 182.092646 250.722802 
L 182.315958 261.555956 
L 182.53927 246.477682 
L 182.762581 246.477682 
L 182.985893 253.209682 
L 183.209205 253.209682 
L 183.655828 255.332242 
L 183.87914 252.410465 
L 184.102451 262.428562 
L 184.325763 263.243619 
L 184.549075 253.574002 
L 184.772386 259.244722 
L 184.995698 253.209682 
L 185.21901 258.982659 
L 185.442321 271.225573 
L 185.665633 273.712453 
L 185.888944 264.755636 
L 186.112256 266.529716 
L 186.335568 262.617236 
L 186.558879 248.338179 
L 186.782191 254.459636 
L 187.228814 249.850196 
L 187.452126 248.076116 
L 187.675438 241.606179 
L 187.898749 244.892276 
L 188.122061 238.058019 
L 188.345373 240.893379 
L 188.791996 255.434499 
L 189.015308 257.921379 
L 189.238619 268.652276 
L 189.461931 252.947619 
L 189.685243 260.756739 
L 189.908554 256.860099 
L 190.131866 263.940579 
L 190.355178 258.982659 
L 190.578489 262.792882 
L 190.801801 252.496882 
L 191.025113 247.887442 
L 191.248424 247.088225 
L 191.918359 238.320082 
L 192.141671 241.155442 
L 192.588294 236.546002 
L 192.811606 235.033985 
L 193.034917 234.771922 
L 193.258229 234.321185 
L 193.481541 231.137345 
L 193.704852 222.615425 
L 194.151476 230.510962 
L 194.374787 224.753825 
L 194.598099 214.269152 
L 194.821411 215.694752 
L 195.044722 183.035484 
L 195.268034 202.026238 
L 195.491346 193.315644 
L 195.714657 203.087518 
L 195.937969 202.026238 
L 196.384592 213.556352 
L 196.607904 196.355518 
L 197.054527 212.654878 
L 197.277839 215.592495 
L 197.501151 227.835409 
L 197.724462 224.200832 
L 197.947774 228.199729 
L 198.171086 224.651569 
L 198.394397 224.303089 
L 198.617709 230.322289 
L 198.841021 228.548209 
L 199.064332 223.590289 
L 199.287644 258.822853 
L 199.510955 271.589893 
L 199.734267 256.598036 
L 199.957579 258.372116 
L 200.18089 250.562996 
L 200.404202 253.500613 
L 200.850825 256.43823 
L 201.074137 200.309893 
L 201.297449 213.87615 
L 201.52076 212.46639 
L 201.744072 203.59599 
L 202.190695 226.29471 
L 202.637319 219.997607 
L 202.86063 219.91119 
L 203.083942 221.583013 
L 203.307254 222.193556 
L 203.530565 236.836933 
L 203.753877 229.289876 
L 203.977189 228.315013 
L 204.2005 226.802996 
L 204.423812 221.480756 
L 204.647124 219.096133 
L 204.870435 220.97247 
L 205.54037 208.91823 
L 205.763682 197.56095 
L 205.986993 208.742584 
L 206.210305 197.298887 
L 206.433617 210.270441 
L 206.656928 214.879881 
L 206.88024 202.723384 
L 207.103552 206.271544 
L 207.326863 200.949304 
L 207.773487 183.572824 
L 207.996798 179.676184 
L 208.22011 165.135064 
L 208.890045 182.597961 
L 209.113357 174.804681 
L 209.336668 177.640041 
L 209.55998 168.769641 
L 209.783292 165.585801 
L 210.006603 172.579864 
L 210.229915 175.763704 
L 210.453227 182.962281 
L 210.676538 182.249481 
L 210.89985 187.120984 
L 211.123162 176.476504 
L 211.569785 188.895064 
L 211.793097 182.511544 
L 212.016408 193.955241 
L 212.23972 195.205194 
L 212.686343 222.439965 
L 212.909655 218.194845 
L 213.132966 211.156074 
L 213.356278 214.007274 
L 213.57959 201.937194 
L 213.802901 197.692074 
L 214.026213 197.327754 
L 214.249525 198.491291 
L 214.472836 202.301514 
L 214.696148 198.302618 
L 214.91946 207.521498 
L 215.142771 211.868874 
L 215.366083 213.556538 
L 215.589395 211.782458 
L 215.812706 211.868874 
L 216.036018 211.782458 
L 216.25933 217.088858 
L 216.482641 228.446138 
L 216.929265 220.637018 
L 217.152576 220.637018 
L 217.375888 218.862938 
L 217.5992 223.472378 
L 217.822511 232.793514 
L 218.492446 192.95151 
L 218.715758 184.969556 
L 218.93907 155.858449 
L 219.162381 173.525859 
L 219.385693 179.282996 
L 219.609005 181.421396 
L 219.832316 193.111316 
L 220.278939 177.770979 
L 220.502251 190.988756 
L 220.725563 193.824116 
L 220.948874 187.702659 
L 221.395498 202.243779 
L 221.618809 202.243779 
L 221.842121 208.467493 
L 222.065433 210.241573 
L 222.288744 208.55391 
L 222.512056 208.55391 
L 222.735368 217.162247 
L 223.181991 220.448344 
L 223.405303 221.161144 
L 223.628614 214.326887 
L 223.851926 219.649127 
L 224.075238 216.813767 
L 224.298549 206.08287 
L 224.521861 210.778727 
L 225.191796 175.488613 
L 225.415108 177.160436 
L 225.638419 184.969556 
L 226.085043 177.959653 
L 226.308354 182.933413 
L 226.531666 172.448739 
L 226.754977 175.910482 
L 227.424912 198.347139 
L 227.648224 189.374482 
L 228.094847 194.086179 
L 228.318159 189.825219 
L 228.764782 200.309893 
L 228.988094 194.987653 
L 229.211406 194.987653 
L 229.434717 190.726693 
L 229.658029 201.022693 
L 229.881341 200.39631 
L 230.104652 205.267813 
L 230.327964 217.686373 
L 230.551276 215.810036 
L 230.774587 226.192453 
L 230.997899 220.870213 
L 231.221211 219.808933 
L 231.444522 217.322053 
L 231.667834 211.462659 
L 231.891146 214.908562 
L 232.114457 223.168419 
L 232.337769 216.682642 
L 232.561081 224.491762 
L 232.784392 224.127442 
L 233.007704 229.900419 
L 233.231016 226.716579 
L 233.454327 227.167316 
L 233.677639 231.776756 
L 234.124262 226.003779 
L 234.794197 237.083156 
L 235.017509 229.638356 
L 235.464132 240.12303 
L 235.687444 236.57487 
L 235.910755 238.34895 
L 236.134067 231.514693 
L 236.58069 245.531687 
L 236.804002 243.757607 
L 237.027314 246.85503 
L 237.250625 257.323864 
L 237.473937 248.731367 
L 237.697249 245.79375 
L 237.92056 247.305767 
L 238.143872 254.852824 
L 238.367184 252.714424 
L 238.590495 254.140024 
L 238.813807 257.688184 
L 239.037119 265.845784 
L 239.26043 278.961304 
L 239.483742 281.796664 
L 239.707054 268.754533 
L 239.930365 295.43631 
L 240.153677 297.472453 
L 240.376988 287.27871 
L 240.823612 285.86895 
L 241.046923 284.181287 
L 241.270235 305.556664 
L 241.493547 295.80063 
L 241.716858 305.556664 
L 241.94017 296.686264 
L 242.163482 297.587738 
L 242.386793 291.466281 
L 242.610105 294.301641 
L 242.833417 290.056521 
L 243.056728 292.978298 
L 243.28004 302.647914 
L 243.503352 290.056521 
L 243.726663 297.952058 
L 243.949975 299.361818 
L 244.173287 301.500218 
L 244.396598 295.014441 
L 244.61991 308.580698 
L 244.843222 301.135898 
L 245.066533 240.516032 
L 245.289845 239.090432 
L 245.513157 243.540065 
L 245.736468 229.973809 
L 245.95978 244.601345 
L 246.183092 239.643425 
L 246.406403 246.375425 
L 246.629715 247.436705 
L 246.853027 249.124369 
L 247.076338 247.698769 
L 247.29965 252.672529 
L 247.522961 254.082289 
L 247.746273 249.734912 
L 247.969585 261.527089 
L 248.192896 253.283072 
L 248.416208 251.058255 
L 248.63952 277.043072 
L 248.862831 270.659552 
L 249.086143 270.745969 
L 249.309455 273.945649 
L 249.756078 290.711585 
L 250.202701 284.676545 
L 250.426013 286.102145 
L 250.649325 277.944545 
L 250.872636 285.389345 
L 251.095948 288.675442 
L 251.542571 282.553985 
L 251.765883 272.257985 
L 251.989195 284.414482 
L 252.65913 259.753009 
L 252.882441 268.361345 
L 253.105753 285.389345 
L 253.329065 285.737825 
L 253.552376 286.799105 
L 253.775688 291.408545 
L 253.998999 293.546945 
L 254.222311 302.053025 
L 254.445623 304.175585 
L 254.892246 294.259745 
L 255.338869 292.485665 
L 255.562181 296.468722 
L 255.785493 286.102145 
L 256.008804 281.492705 
L 256.232116 281.492705 
L 256.455428 283.963745 
L 256.678739 276.883265 
L 256.902051 282.553985 
L 257.125363 274.032065 
L 257.348674 271.196705 
L 257.571986 276.518945 
L 257.795298 276.170465 
L 258.018609 275.559922 
L 258.241921 278.846019 
L 258.465233 279.542979 
L 258.688544 297.472453 
L 258.911856 300.307813 
L 259.135168 297.734516 
L 259.358479 289.126179 
L 259.581791 299.508596 
L 259.805103 289.474659 
L 260.251726 305.441379 
L 260.475038 301.180419 
L 260.698349 309.075956 
L 260.921661 297.283779 
L 261.368284 297.996579 
L 261.591596 303.302979 
L 261.814907 304.380099 
L 262.038219 301.282676 
L 262.484842 320.330979 
L 262.708154 320.679459 
L 262.931466 316.680562 
L 263.378089 303.216562 
L 263.601401 314.660259 
L 263.824712 313.234659 
L 264.048024 317.495619 
L 264.271336 308.989539 
L 264.494647 310.501556 
L 264.717959 305.077059 
L 264.941271 306.589076 
L 265.164582 317.582036 
L 265.387894 305.892116 
L 266.057829 297.021716 
L 266.281141 288.151316 
L 266.504452 290.027653 
L 266.727764 296.86191 
L 266.951076 290.47839 
L 267.174387 296.86191 
L 267.397699 298.27167 
L 267.621011 300.41007 
L 267.844322 293.66223 
L 268.067634 290.376133 
L 268.290945 295.698373 
L 268.514257 298.185253 
L 268.737569 286.188562 
L 268.96088 282.829076 
L 269.184192 274.687316 
L 269.407504 272.548916 
L 269.630815 280.54671 
L 269.854127 282.32079 
L 270.077439 281.505733 
L 270.30075 284.705413 
L 270.747374 276.445556 
L 270.970685 279.383173 
L 271.64062 261.293893 
L 271.863932 258.110053 
L 272.087244 265.29279 
L 272.310555 253.136293 
L 272.533867 254.29983 
L 272.757179 256.524647 
L 272.98049 247.305767 
L 273.203802 247.408024 
L 273.427114 259.913001 
L 273.650425 255.914104 
L 273.873737 245.44527 
L 274.097049 243.917413 
L 274.32036 247.20351 
L 274.543672 232.838036 
L 274.766983 246.055813 
L 274.990295 240.733573 
L 275.213607 251.11599 
L 275.66023 231.60111 
L 275.883542 230.089093 
L 276.106853 230.453413 
L 276.330165 213.076933 
L 277.0001 233.637253 
L 277.223412 235.14927 
L 277.446723 234.698533 
L 277.670035 222.455619 
L 277.893347 239.934356 
L 278.116658 245.691493 
L 278.33997 244.994533 
L 278.563282 242.59407 
L 278.786593 246.768613 
L 279.009905 233.899316 
L 279.233217 227.515796 
L 279.456528 235.411333 
L 279.67984 248.97759 
L 279.903152 243.568933 
L 280.126463 257.048773 
L 280.349775 257.048773 
L 280.573087 264.493573 
L 280.796398 262.006693 
L 281.01971 253.762676 
L 281.243022 268.754533 
L 281.466333 254.459636 
L 281.689645 263.780773 
L 281.912956 263.432293 
L 282.35958 261.74463 
L 282.806203 248.28063 
L 283.029515 252.628007 
L 283.252826 249.34191 
L 283.476138 252.89007 
L 283.69945 246.055813 
L 284.146073 263.88303 
L 284.369385 267.43119 
L 284.592696 264.94431 
L 285.03932 282.407207 
L 285.262631 276.023687 
L 285.485943 275.675207 
L 285.709255 274.962407 
L 285.932566 277.449287 
L 286.155878 272.127047 
L 286.602501 282.509464 
L 286.825813 271.414247 
L 287.049125 273.552647 
L 287.272436 266.35407 
L 287.495748 264.94431 
L 287.71906 267.881927 
L 288.165683 265.395047 
L 288.388994 268.578887 
L 288.612306 313.001464 
L 289.058929 300.04575 
L 289.282241 298.98447 
L 289.505553 296.14911 
L 289.952176 314.165001 
L 290.175488 312.202247 
L 290.398799 313.263527 
L 290.622111 306.167207 
L 290.845423 307.592807 
L 291.068734 305.818727 
L 291.292046 308.305607 
L 291.515358 291.88815 
L 291.738669 295.174247 
L 291.961981 307.330744 
L 292.185293 297.661127 
L 292.408604 297.312647 
L 292.631916 296.49759 
L 292.855228 302.983367 
L 293.078539 290.318584 
L 293.301851 285.693304 
L 293.525163 284.632024 
L 293.748474 287.118904 
L 293.971786 285.693304 
L 294.195098 285.955367 
L 294.418409 284.181287 
L 294.641721 285.693304 
L 294.865033 280.284647 
L 295.088344 294.563704 
L 295.311656 293.850904 
L 295.534967 293.764487 
L 295.758279 290.564807 
L 295.981591 278.42415 
L 296.204902 279.48543 
L 296.428214 282.058727 
L 296.651526 270.004487 
L 296.874837 267.619864 
L 297.098149 262.559687 
L 297.321461 261.134087 
L 297.544772 267.619864 
L 297.768084 254.402087 
L 297.991396 269.029624 
L 298.214707 268.230407 
L 298.438019 271.065767 
L 298.884642 261.498407 
L 299.331266 264.071704 
L 299.554577 259.810744 
L 299.777889 242.798584 
L 300.001201 250.956184 
L 300.224512 253.877961 
L 300.671136 248.731367 
L 300.894447 256.975384 
L 301.117759 258.400984 
L 301.341071 275.863881 
L 301.564382 283.673001 
L 301.787694 284.123738 
L 302.011006 290.855738 
L 302.234317 290.593674 
L 302.457629 285.533498 
L 302.904252 287.569641 
L 303.127564 284.734281 
L 303.350875 290.507258 
L 303.574187 285.635754 
L 303.797499 285.635754 
L 304.02081 283.251131 
L 304.244122 275.093531 
L 304.467434 277.216091 
L 304.690745 274.380731 
L 304.914057 276.867611 
L 305.137369 268.607754 
L 305.36068 268.710011 
L 305.583992 274.380731 
L 306.030615 262.412908 
L 306.253927 262.777228 
L 306.70055 279.121296 
L 306.923862 277.244959 
L 307.147174 277.433633 
L 307.370485 291.450626 
L 307.593797 297.223603 
L 307.817109 290.040866 
L 308.04042 271.312176 
L 308.263732 288.87733 
L 308.487044 289.487873 
L 308.710355 280.531056 
L 308.933667 279.469776 
L 309.156978 285.32917 
L 309.38029 279.207713 
L 309.826913 272.56213 
L 310.050225 268.66549 
L 310.273537 273.27493 
L 310.496848 268.31701 
L 310.72016 269.01397 
L 310.943472 260.87221 
L 311.166783 265.932386 
L 311.390095 250.838273 
L 311.836718 265.568066 
L 312.06003 260.15941 
L 312.283342 270.890306 
L 312.953277 285.96858 
L 313.176588 292.802837 
L 313.3999 293.864117 
L 313.623212 302.923191 
L 313.846523 287.74266 
L 314.069835 289.618997 
L 314.516458 325.462105 
L 314.73977 339.479098 
L 314.963082 337.356538 
L 315.186393 327.584665 
L 315.409705 326.421128 
L 315.633017 307.983368 
L 316.07964 314.919882 
L 316.302951 312.797322 
L 316.526263 299.215225 
L 316.749575 295.318585 
L 316.972886 300.276505 
L 317.196198 300.727242 
L 317.41951 300.030282 
L 317.642821 294.970105 
L 317.866133 297.092665 
L 318.089445 274.742425 
L 318.312756 285.489162 
L 318.536068 277.417978 
L 318.75938 282.027418 
L 318.982691 282.842475 
L 319.652626 269.886762 
L 319.875938 266.789338 
L 320.09925 265.625802 
L 320.322561 274.946938 
L 320.545873 269.973178 
L 320.769185 267.588555 
L 320.992496 275.033355 
L 321.215808 273.521338 
L 321.43912 259.693018 
L 321.662431 259.955082 
L 321.885743 263.138922 
L 322.109055 257.119722 
L 322.332366 254.530585 
L 322.555678 255.054711 
L 323.002301 247.159174 
L 323.225613 250.096791 
L 323.448924 254.706231 
L 323.672236 237.329751 
L 323.895548 237.518425 
L 324.118859 228.299545 
L 324.342171 214.266711 
L 324.565483 215.794568 
L 324.788794 211.271545 
L 325.012106 215.532505 
L 325.235418 213.656168 
L 325.458729 219.777625 
L 325.682041 219.429145 
L 325.905353 227.238265 
L 326.351976 217.044522 
L 326.575288 198.504505 
L 326.798599 206.400042 
L 327.245223 194.869928 
L 327.468534 200.278585 
L 327.691846 202.401145 
L 327.915158 198.053768 
L 328.138469 200.278585 
L 328.585093 175.355048 
L 328.808404 169.684328 
L 329.031716 176.882905 
L 329.255028 171.196345 
L 329.478339 155.347722 
L 329.924962 174.133962 
L 330.148274 160.654122 
L 330.594897 168.463242 
L 330.818209 155.347722 
L 331.264832 176.096715 
L 331.488144 175.297498 
L 331.711456 184.967115 
L 331.934767 181.767435 
L 332.158079 174.236218 
L 332.381391 183.193035 
L 332.604702 181.681018 
L 332.828014 197.472092 
L 333.051326 196.497229 
L 333.274637 188.601692 
L 333.497949 189.662972 
L 333.721261 194.476926 
L 333.944572 196.251006 
L 334.167884 179.747132 
L 334.391196 200.524994 
L 334.614507 202.647554 
L 334.837819 199.812194 
L 335.061131 213.554097 
L 335.284442 211.431537 
L 335.507754 226.858291 
L 335.731066 216.127394 
L 335.954377 215.066114 
L 336.177689 211.882274 
L 336.624312 216.942451 
L 336.847624 218.003731 
L 337.070935 220.228547 
L 337.294247 229.083107 
L 337.517559 226.612067 
L 337.74087 213.029971 
L 337.964182 218.090147 
L 338.187494 217.377347 
L 338.857429 227.309027 
L 339.08074 225.084211 
L 339.304052 225.448531 
L 339.527364 225.084211 
L 339.750675 221.187571 
L 339.973987 219.864227 
L 340.42061 195.202754 
L 340.643922 203.811091 
L 340.867234 197.587377 
L 341.090545 201.586274 
L 341.313857 208.334114 
L 341.537169 203.970897 
L 341.76048 207.883377 
L 341.983792 199.62352 
L 342.430415 208.1296 
L 342.653727 204.94576 
L 342.877039 209.293137 
L 343.10035 205.048017 
L 343.323662 197.50096 
L 343.546973 196.07536 
L 343.770285 196.07536 
L 343.993597 205.048017 
L 344.216908 195.01408 
L 344.663532 189.69184 
L 344.886843 208.944657 
L 345.110155 206.00704 
L 345.333467 215.93872 
L 345.556778 214.51312 
L 345.78009 211.32928 
L 346.003402 213.81616 
L 346.226713 209.817263 
L 346.450025 214.51312 
L 346.673337 211.67776 
L 346.896648 217 
L 347.11996 208.8424 
L 347.343272 213.189777 
L 347.566583 211.431537 
L 347.789895 212.943554 
L 348.013207 204.421634 
L 348.236518 207.969794 
L 348.45983 214.804051 
L 348.683142 208.682594 
L 348.906453 213.292034 
L 349.129765 206.109297 
L 349.353077 209.743874 
L 349.576388 210.456674 
L 349.7997 222.613171 
L 350.023012 225.186467 
L 350.469635 209.133331 
L 350.692946 206.646451 
L 350.916258 228.574821 
L 351.13957 218.905204 
L 351.362881 219.515747 
L 351.586193 224.575924 
L 351.809505 221.740564 
L 352.032816 225.985684 
L 352.47944 223.063907 
L 352.702751 220.126291 
L 352.926063 223.674451 
L 353.372686 211.431537 
L 353.595998 211.780017 
L 353.81931 214.266897 
L 354.042621 214.51312 
L 354.265933 217 
L 354.489245 215.59024 
L 354.712556 216.040977 
L 354.935868 210.165743 
L 355.15918 213.10336 
L 355.382491 211.67776 
L 355.829115 194.723149 
L 356.052426 194.723149 
L 356.49905 208.1296 
L 356.722361 210.718737 
L 356.945673 214.615377 
L 357.168984 214.963857 
L 357.392296 216.2872 
L 357.838919 201.470989 
L 358.062231 199.783326 
L 358.285543 195.087469 
L 358.732166 190.375772 
L 358.955478 199.783326 
L 359.178789 201.557406 
L 359.848724 186.217069 
L 360.295348 197.312286 
L 360.518659 191.539309 
L 360.741971 196.410812 
L 360.965283 206.531166 
L 361.188594 206.531166 
L 361.411906 207.940926 
L 361.635218 210.079326 
L 361.858529 226.030206 
L 362.305153 220.970029 
L 362.528464 218.847469 
L 362.751776 225.943789 
L 362.975088 225.493052 
L 363.198399 233.737069 
L 363.421711 225.230989 
L 363.645023 221.944892 
L 363.868334 223.718972 
L 364.314957 207.461322 
L 364.538269 212.885818 
L 364.761581 211.722282 
L 364.984892 218.208058 
L 365.431516 221.494155 
L 365.654827 222.293372 
L 365.878139 220.432875 
L 366.101451 213.685035 
L 366.324762 216.171915 
L 366.548074 221.944892 
L 366.771386 221.232092 
L 366.994697 221.842635 
L 367.218009 220.432875 
L 367.441321 225.652858 
L 367.664632 220.854745 
L 367.887944 227.586745 
L 368.111256 228.037482 
L 368.334567 231.323578 
L 368.557879 226.976202 
L 368.781191 226.001338 
L 369.227814 229.897978 
L 369.451126 226.365658 
L 369.674437 218.818602 
L 370.121061 227.164875 
L 370.567684 232.225052 
L 370.790995 221.842635 
L 371.014307 221.129835 
L 371.237619 215.008378 
L 371.46093 217.233195 
L 371.684242 223.354652 
L 371.907554 219.806492 
L 372.130865 224.415932 
L 372.354177 224.415932 
L 372.577489 211.751149 
L 372.8008 205.716109 
L 373.024112 210.427806 
L 373.247424 206.793229 
L 373.470735 207.141709 
L 373.917359 204.568412 
L 374.363982 213.263166 
L 374.587294 213.975966 
L 374.810605 224.256126 
L 375.033917 226.030206 
L 375.257229 222.641852 
L 375.48054 225.943789 
L 375.703852 224.169709 
L 375.927164 226.292269 
L 376.150475 230.102492 
L 376.373787 222.191115 
L 376.597099 229.651755 
L 376.82041 227.164875 
L 377.043722 228.488218 
L 377.267034 219.617818 
L 377.490345 225.042315 
L 377.936968 218.208058 
L 378.16028 222.453178 
L 378.383592 213.844842 
L 378.606903 214.921962 
L 378.830215 230.000235 
L 379.053527 225.042315 
L 379.276838 224.677995 
L 379.50015 223.616715 
L 379.723462 223.616715 
L 380.170085 219.982138 
L 380.616708 240.76 
L 380.84002 238.113314 
L 381.286643 227.64448 
L 381.509955 225.8704 
L 381.733267 238.826114 
L 381.956578 220.286097 
L 382.17989 224.895537 
L 382.403202 224.895537 
L 382.626513 215.328177 
L 382.849825 226.059074 
L 383.073137 217.450737 
L 383.296448 215.93872 
L 383.51976 222.060177 
L 383.743072 213.81616 
L 383.966383 209.90368 
L 384.189695 222.060177 
L 384.85963 206.00704 
L 385.082941 207.78112 
L 385.306253 212.04208 
L 385.529565 205.556303 
L 385.752876 208.391663 
L 385.976188 209.104463 
L 386.1995 191.539309 
L 386.422811 193.313389 
L 386.646123 203.433743 
L 386.869435 206.981903 
L 387.092746 201.557406 
L 387.316058 211.939823 
L 387.53937 216.549263 
L 387.985993 212.304143 
L 388.209305 215.22592 
L 388.432616 213.45184 
L 388.655928 202.720943 
L 388.87924 200.496126 
L 389.102551 202.270206 
L 389.325863 198.009246 
L 389.549175 198.722046 
L 389.772486 210.079326 
L 389.995798 215.037246 
L 390.21911 210.427806 
L 390.442421 213.873709 
L 390.889045 211.402669 
L 391.112356 211.489086 
L 391.335668 213.975966 
L 391.558979 207.490189 
L 391.782291 211.140606 
L 392.005603 211.402669 
L 392.228914 203.593549 
L 392.452226 204.044286 
L 392.675538 203.695806 
L 393.122161 215.385726 
L 393.345473 210.689869 
L 393.568784 222.482046 
L 394.015408 217.421869 
L 394.238719 210.239132 
L 394.685343 207.752252 
L 394.908654 209.177852 
L 395.131966 212.812429 
L 395.578589 207.854509 
L 395.801901 199.958972 
L 396.025213 207.141709 
L 396.471836 210.689869 
L 396.695148 215.037246 
L 397.141771 205.367629 
L 397.365083 214.062383 
L 397.588394 210.530063 
L 397.811706 197.660766 
L 398.035018 194.476926 
L 398.258329 196.701743 
L 398.704952 206.71984 
L 398.928264 202.8232 
L 399.151576 201.04912 
L 399.374887 187.118543 
L 399.598199 200.787057 
L 399.821511 207.621314 
L 400.044822 207.621314 
L 400.268134 204.785954 
L 400.491446 199.012977 
L 400.938069 205.29424 
L 401.161381 202.1104 
L 401.384692 203.52016 
L 401.608004 206.195714 
L 401.831316 218.614274 
L 402.054627 220.736834 
L 402.277939 220.024034 
L 402.501251 218.876337 
L 402.947874 211.067217 
L 403.171186 208.231857 
L 403.394497 201.848337 
L 403.617809 205.048017 
L 403.841121 211.517954 
L 404.064432 213.292034 
L 404.287744 217.639411 
L 404.511056 212.943554 
L 404.734367 210.805154 
L 404.957679 212.681491 
L 405.18099 206.560034 
L 405.404302 206.560034 
L 405.627614 206.109297 
L 405.850925 207.170577 
L 406.297549 242.460691 
L 406.52086 240.338131 
L 406.744172 244.861154 
L 406.967484 240.251714 
L 407.190795 238.026897 
L 407.414107 229.41856 
L 407.86073 224.4448 
L 408.084042 228.443697 
L 408.307354 222.67072 
L 408.530665 230.566257 
L 408.753977 229.156497 
L 408.977289 225.8704 
L 409.2006 226.21888 
L 409.423912 231.8896 
L 409.647224 219.748943 
L 409.870535 222.32224 
L 410.093847 228.808017 
L 410.317159 228.808017 
L 410.54047 218.77408 
L 410.763782 217 
L 410.987094 222.772977 
L 411.210405 222.424497 
L 411.657029 229.955714 
L 411.88034 230.668514 
L 412.103652 223.834257 
L 412.326963 233.053137 
L 412.550275 232.340337 
L 412.773587 235.540017 
L 412.996898 226.669617 
L 413.22021 230.566257 
L 413.443522 225.50608 
L 413.666833 227.64448 
L 413.890145 235.80208 
L 414.113457 232.864463 
L 414.336768 233.212943 
L 414.56008 250.081137 
L 414.783392 243.59536 
L 415.006703 243.24688 
L 415.230015 244.570223 
L 415.453327 247.754063 
L 415.676638 255.563183 
L 415.89995 253.52704 
L 416.123262 250.3432 
L 416.346573 254.23984 
L 416.569885 240.222846 
L 416.793197 234.900606 
L 417.23982 240.41152 
L 417.463132 240.309263 
L 417.686443 240.41152 
L 417.909755 237.822383 
L 418.133067 242.53408 
L 418.356378 242.083343 
L 418.57969 242.431823 
L 418.803002 251.40448 
L 419.026313 255.751857 
L 419.472936 251.855217 
L 419.696248 262.672531 
L 420.142871 260.287907 
L 420.366183 244.148354 
L 420.589495 249.557011 
L 420.812806 245.209634 
L 421.036118 249.557011 
L 421.25943 249.921331 
L 421.706053 252.392371 
L 421.929365 254.080034 
L 422.152676 253.002914 
L 422.375988 248.044994 
L 422.5993 251.941634 
L 423.045923 254.080034 
L 423.269235 254.080034 
L 423.492546 255.489794 
L 423.715858 265.261667 
L 423.93917 265.523731 
L 424.162481 264.810931 
L 424.385793 267.384227 
L 424.609105 267.732707 
L 424.832416 272.444404 
L 425.055728 273.956421 
L 425.27904 273.607941 
L 425.502351 326.885264 
L 425.948974 342.705205 
L 426.172286 337.280708 
L 426.395598 321.403218 
L 426.842221 308.185441 
L 427.065533 317.855058 
L 427.288844 316.531715 
L 427.512156 322.915235 
L 428.405403 293.280001 
L 428.628714 301.191378 
L 428.852026 295.766881 
L 429.075338 293.484515 
L 429.298649 304.928211 
L 429.521961 296.668355 
L 429.745273 294.443538 
L 429.968584 286.912321 
L 430.415208 297.192481 
L 430.638519 293.644321 
L 431.085143 297.905281 
L 431.308454 295.418401 
L 431.755078 274.91563 
L 432.201701 287.609281 
L 432.425013 267.048961 
L 432.871636 271.744818 
L 433.094947 270.683538 
L 433.541571 264.664338 
L 433.764882 262.075201 
L 433.988194 261.378241 
L 434.211506 255.343201 
L 434.434817 254.368338 
L 434.658129 250.020961 
L 434.881441 255.081138 
L 435.104752 267.586115 
L 435.328064 273.010611 
L 435.551376 275.583908 
L 435.774687 284.540725 
L 435.997999 282.418165 
L 436.667934 254.208531 
L 436.891246 231.321138 
L 437.114557 242.314098 
L 437.337869 239.843058 
L 437.561181 235.930578 
L 437.784492 243.477635 
L 438.007804 236.643378 
L 438.231116 242.764835 
L 438.454427 237.094115 
L 438.677739 227.772978 
L 438.901051 229.300835 
L 439.124362 204.725778 
L 439.347674 214.046915 
L 439.570985 216.882275 
L 440.017609 202.22587 
L 440.24092 200.538207 
L 440.464232 201.353264 
L 440.687544 200.640464 
L 440.910855 219.004835 
L 441.357479 202.951698 
L 441.58079 199.055058 
L 441.804102 188.774898 
L 442.027414 197.383235 
L 442.250725 200.305011 
L 442.474037 206.688531 
L 442.697349 205.889315 
L 442.92066 208.011875 
L 443.143972 211.560035 
L 443.367284 211.211555 
L 443.590595 218.307875 
L 443.813907 210.498755 
L 444.26053 220.066115 
L 444.483842 212.534898 
L 444.707154 219.717635 
L 444.930465 222.204515 
L 445.153777 220.881171 
L 445.377089 217.595075 
L 445.6004 218.045811 
L 445.823712 222.204515 
L 446.047024 216.882275 
L 446.270335 206.049121 
L 446.493647 218.467681 
L 446.716958 217.754881 
L 446.94027 218.816161 
L 447.163582 206.413441 
L 447.386893 216.780018 
L 447.610205 212.534898 
L 447.833517 212.883378 
L 448.056828 218.205618 
L 448.28014 213.493921 
L 448.503452 215.632321 
L 448.726763 219.528961 
L 448.950075 219.528961 
L 449.173387 225.912481 
L 449.396698 226.625281 
L 449.62001 229.460641 
L 449.843322 226.174544 
L 450.066633 217.304144 
L 450.289945 219.791024 
L 450.513257 219.528961 
L 450.95988 232.484675 
L 451.183192 224.937618 
L 451.406503 231.321138 
L 451.629815 232.382418 
L 452.076438 238.155395 
L 452.29975 214.046915 
L 452.523062 220.168371 
L 452.746373 220.778915 
L 452.969685 223.265795 
L 453.192996 218.307875 
L 453.416308 227.526755 
L 453.862931 210.658561 
L 454.086243 210.572144 
L 454.532866 217.406401 
L 454.756178 215.980801 
L 454.97949 210.572144 
L 455.202801 222.974864 
L 455.426113 220.852304 
L 455.872736 224.400464 
L 456.096048 221.565104 
L 456.31936 211.895487 
L 456.542671 197.165693 
L 456.765983 207.53227 
L 456.989295 197.165693 
L 457.65923 213.755984 
L 457.882541 212.694704 
L 458.105853 210.920624 
L 458.329165 207.372464 
L 458.552476 208.798064 
L 458.9991 200.189727 
L 459.222411 205.249904 
L 459.445723 207.023984 
L 459.892346 213.858241 
L 460.115658 210.920624 
L 460.562281 201.14875 
L 461.232216 186.521213 
L 461.678839 202.22587 
L 461.902151 197.862653 
L 462.348774 216.853407 
L 462.572086 221.462847 
L 462.795398 218.52523 
L 463.018709 221.72491 
L 463.242021 219.95083 
L 463.465333 217.013213 
L 463.688644 230.144573 
L 463.911956 224.109533 
L 464.135268 231.205853 
L 464.358579 218.438813 
L 464.805203 179.571672 
L 465.028514 194.649946 
L 465.251826 188.164169 
L 465.475138 208.826746 
L 465.698449 204.130889 
L 465.921761 202.705289 
L 466.145073 190.200312 
L 466.368384 184.078855 
L 466.591696 187.016472 
L 466.815008 194.912009 
L 467.261631 176.720472 
L 467.484942 180.981432 
L 467.708254 182.755512 
L 468.378189 160.842981 
L 468.601501 161.904261 
L 468.824812 157.556884 
L 469.048124 166.513701 
L 469.718059 155.782804 
L 469.941371 156.844084 
L 470.164682 153.557987 
L 470.387994 155.418484 
L 470.611306 152.947444 
L 470.834617 152.947444 
L 471.057929 148.948547 
L 471.281241 156.844084 
L 471.504552 146.810147 
L 471.727864 143.277827 
L 471.951176 143.277827 
L 472.397799 135.366451 
L 472.621111 169.349061 
L 472.844422 158.618164 
L 473.067734 156.479764 
L 473.291046 157.905364 
L 473.514357 161.191461 
L 473.737669 162.617061 
L 473.96098 181.083689 
L 474.184292 187.917946 
L 474.407604 188.979226 
L 474.630915 181.780649 
L 474.854227 180.719369 
L 475.077539 182.493449 
L 475.30085 180.719369 
L 475.524162 181.432169 
L 475.747474 178.945289 
L 475.970785 181.170106 
L 476.194097 189.516379 
L 476.417409 189.167899 
L 476.64072 166.280506 
L 476.864032 171.340683 
L 477.087344 169.218123 
L 477.310655 159.097769 
L 477.533967 158.647032 
L 477.757279 159.794729 
L 477.98059 157.672169 
L 478.203902 166.628986 
L 478.427214 165.116969 
L 478.873837 175.950123 
L 479.097149 174.438106 
L 479.32046 185.619739 
L 479.767084 170.279403 
L 479.990395 175.950123 
L 480.213707 166.731243 
L 480.437019 167.792523 
L 480.66033 166.731243 
L 480.883642 158.225163 
L 481.330265 148.801769 
L 481.553577 157.410106 
L 481.776888 145.167192 
L 482.223512 153.411209 
L 482.446823 149.428152 
L 483.116758 159.446249 
L 483.34007 159.794729 
L 483.563382 166.280506 
L 483.786693 157.672169 
L 484.010005 166.628986 
L 484.903252 140.906232 
L 485.349875 135.583992 
L 485.573187 123.791815 
L 485.796498 132.748632 
L 486.01981 119.182375 
L 486.243122 94.709575 
L 486.466433 104.481449 
L 486.689745 107.214552 
L 486.913057 106.604009 
L 487.136368 118.658249 
L 487.35968 120.432329 
L 487.582991 127.892969 
L 487.806303 108.291672 
L 488.029615 122.468472 
L 488.252926 111.127032 
L 488.69955 127.528649 
L 488.922861 123.980489 
L 489.146173 115.372152 
L 489.369485 128.589929 
L 489.592796 127.892969 
L 490.03942 134.624969 
L 490.262731 123.181272 
L 490.486043 130.626072 
L 490.709355 125.914375 
L 490.932666 123.791815 
L 491.155978 124.156135 
L 491.37929 134.624969 
L 491.602601 129.651209 
L 492.049225 139.582889 
L 492.272536 138.521609 
L 492.495848 124.242552 
L 492.71916 125.406089 
L 492.942471 129.404986 
L 493.389095 128.692186 
L 493.612406 136.136986 
L 493.835718 134.362906 
L 494.05903 131.076809 
L 494.282341 141.094906 
L 494.505653 129.753466 
L 495.398899 154.574746 
L 495.622211 154.836809 
L 495.845523 153.062729 
L 496.292146 160.871849 
L 496.515458 147.289752 
L 496.738769 148.002552 
L 496.962081 150.837912 
L 497.185393 160.871849 
L 497.855328 152.087866 
L 498.078639 158.835706 
L 498.301951 148.104809 
L 498.748574 154.677003 
L 499.418509 160.449979 
L 499.641821 156.901819 
L 499.865133 157.148043 
L 500.088444 160.449979 
L 500.311756 158.922123 
L 500.535068 155.636026 
L 500.758379 150.575849 
L 500.981691 156.000346 
L 501.205003 155.636026 
L 501.428314 150.940169 
L 502.098249 147.129946 
L 502.321561 152.087866 
L 502.544872 151.841643 
L 502.768184 155.127739 
L 502.991496 150.067563 
L 503.214807 151.841643 
L 503.438119 146.519403 
L 503.661431 146.781466 
L 503.884742 147.842746 
L 504.108054 142.172026 
L 504.331366 153.251403 
L 504.554677 151.841643 
L 504.777989 153.251403 
L 505.001301 148.641963 
L 505.224612 151.215259 
L 505.447924 155.127739 
L 505.671236 162.412733 
L 506.117859 160.638653 
L 506.341171 155.926956 
L 506.564482 157.090493 
L 507.011106 151.215259 
L 507.234417 125.041769 
L 507.457729 137.911066 
L 507.681041 140.746426 
L 507.904352 140.033626 
L 508.127664 142.520506 
L 508.350975 137.111849 
L 509.02091 164.883773 
L 509.244222 152.640859 
L 509.467534 158.049516 
L 509.914157 154.517196 
L 510.137469 158.500253 
L 510.36078 148.744219 
L 510.584092 150.866779 
L 511.030715 168.620607 
L 511.254027 166.846527 
L 511.477339 166.39579 
L 511.70065 171.455967 
L 511.923962 191.348195 
L 512.147274 181.576321 
L 512.370585 196.756851 
L 512.593897 196.408371 
L 513.04052 173.230047 
L 513.263832 171.107487 
L 513.487144 165.69883 
L 513.710455 149.092699 
L 513.933767 170.046207 
L 514.157079 166.04731 
L 514.38039 168.984927 
L 514.603702 168.984927 
L 514.827014 168.620607 
L 515.050325 163.56043 
L 515.496948 180.166561 
L 515.72026 169.697727 
L 515.943572 182.289121 
L 516.166883 188.410578 
L 516.390195 181.940641 
L 516.613507 170.046207 
L 516.836818 170.759007 
L 517.06013 164.27323 
L 517.283442 174.757904 
L 517.730065 164.98603 
L 518.176688 174.757904 
L 518.4 175.106384 
L 518.4 175.106384 
" style="fill:none;stroke:#4c72b0;stroke-linecap:round;stroke-width:1.75;"/>
   </g>
   <g id="patch_3">
    <path d="M 72 356.4 
L 518.4 356.4 
" style="fill:none;"/>
   </g>
   <g id="patch_4">
    <path d="M 72 39.6 
L 518.4 39.6 
" style="fill:none;"/>
   </g>
   <g id="patch_5">
    <path d="M 72 356.4 
L 72 39.6 
" style="fill:none;"/>
   </g>
   <g id="patch_6">
    <path d="M 518.4 356.4 
L 518.4 39.6 
" style="fill:none;"/>
   </g>
   <g id="text_11">
    <!-- IF - 15.972780596467064 * ZC -->
    <defs>
     <path d="M 9.125 0 
L 9.125 10.6875 
L 18.65625 10.6875 
L 18.65625 0 
z
" id="LiberationSans-2e"/>
     <path d="M 51.265625 19.1875 
Q 51.265625 14.796875 49.875 11.109375 
Q 48.484375 7.421875 45.625 4.734375 
Q 42.78125 2.046875 38.328125 0.53125 
Q 33.890625 -0.984375 27.828125 -0.984375 
Q 21.78125 -0.984375 17.359375 0.53125 
Q 12.9375 2.046875 10.03125 4.703125 
Q 7.125 7.375 5.734375 11.0625 
Q 4.34375 14.75 4.34375 19.09375 
Q 4.34375 22.859375 5.484375 25.78125 
Q 6.640625 28.71875 8.5625 30.828125 
Q 10.5 32.953125 12.96875 34.25 
Q 15.4375 35.546875 18.0625 35.984375 
L 18.0625 36.1875 
Q 15.1875 36.859375 12.90625 38.375 
Q 10.640625 39.890625 9.09375 42.015625 
Q 7.5625 44.140625 6.75 46.71875 
Q 5.953125 49.3125 5.953125 52.203125 
Q 5.953125 55.8125 7.34375 59 
Q 8.734375 62.203125 11.46875 64.625 
Q 14.203125 67.046875 18.25 68.4375 
Q 22.3125 69.828125 27.640625 69.828125 
Q 33.25 69.828125 37.375 68.40625 
Q 41.5 67 44.203125 64.578125 
Q 46.921875 62.15625 48.234375 58.9375 
Q 49.5625 55.71875 49.5625 52.09375 
Q 49.5625 49.265625 48.75 46.671875 
Q 47.953125 44.09375 46.40625 41.96875 
Q 44.875 39.84375 42.59375 38.34375 
Q 40.328125 36.859375 37.359375 36.28125 
L 37.359375 36.078125 
Q 40.328125 35.59375 42.859375 34.296875 
Q 45.40625 33.015625 47.265625 30.890625 
Q 49.125 28.765625 50.1875 25.828125 
Q 51.265625 22.90625 51.265625 19.1875 
M 40.4375 51.609375 
Q 40.4375 54.203125 39.765625 56.34375 
Q 39.109375 58.5 37.59375 60.03125 
Q 36.078125 61.578125 33.640625 62.421875 
Q 31.203125 63.28125 27.640625 63.28125 
Q 24.171875 63.28125 21.78125 62.421875 
Q 19.390625 61.578125 17.84375 60.03125 
Q 16.3125 58.5 15.625 56.34375 
Q 14.9375 54.203125 14.9375 51.609375 
Q 14.9375 49.5625 15.46875 47.40625 
Q 16.015625 45.265625 17.421875 43.5 
Q 18.84375 41.75 21.328125 40.625 
Q 23.828125 39.5 27.734375 39.5 
Q 31.890625 39.5 34.40625 40.625 
Q 36.921875 41.75 38.25 43.5 
Q 39.59375 45.265625 40.015625 47.40625 
Q 40.4375 49.5625 40.4375 51.609375 
M 42.140625 20.015625 
Q 42.140625 22.515625 41.453125 24.828125 
Q 40.765625 27.15625 39.109375 28.9375 
Q 37.453125 30.71875 34.640625 31.8125 
Q 31.84375 32.90625 27.640625 32.90625 
Q 23.78125 32.90625 21.0625 31.8125 
Q 18.359375 30.71875 16.671875 28.90625 
Q 14.984375 27.09375 14.203125 24.71875 
Q 13.421875 22.359375 13.421875 19.828125 
Q 13.421875 16.65625 14.203125 14.03125 
Q 14.984375 11.421875 16.6875 9.546875 
Q 18.40625 7.671875 21.1875 6.640625 
Q 23.96875 5.609375 27.9375 5.609375 
Q 31.9375 5.609375 34.671875 6.640625 
Q 37.40625 7.671875 39.0625 9.546875 
Q 40.71875 11.421875 41.421875 14.078125 
Q 42.140625 16.75 42.140625 20.015625 
" id="LiberationSans-38"/>
     <path d="M 9.234375 0 
L 9.234375 68.796875 
L 18.5625 68.796875 
L 18.5625 0 
z
" id="LiberationSans-49"/>
     <path d="M 38.671875 62.203125 
Q 32.8125 62.203125 28.296875 60.25 
Q 23.78125 58.296875 20.71875 54.6875 
Q 17.671875 51.078125 16.109375 46 
Q 14.546875 40.921875 14.546875 34.71875 
Q 14.546875 28.515625 16.234375 23.359375 
Q 17.921875 18.21875 21.0625 14.5 
Q 24.21875 10.796875 28.78125 8.734375 
Q 33.34375 6.6875 39.0625 6.6875 
Q 43.0625 6.6875 46.359375 7.734375 
Q 49.65625 8.796875 52.3125 10.6875 
Q 54.984375 12.59375 57.078125 15.203125 
Q 59.1875 17.828125 60.796875 21 
L 68.40625 17.1875 
Q 66.546875 13.328125 63.8125 10 
Q 61.078125 6.6875 57.390625 4.25 
Q 53.71875 1.8125 49.046875 0.40625 
Q 44.390625 -0.984375 38.625 -0.984375 
Q 30.28125 -0.984375 24 1.671875 
Q 17.71875 4.34375 13.5 9.109375 
Q 9.28125 13.875 7.171875 20.40625 
Q 5.078125 26.953125 5.078125 34.71875 
Q 5.078125 42.78125 7.296875 49.265625 
Q 9.515625 55.765625 13.78125 60.328125 
Q 18.0625 64.890625 24.3125 67.359375 
Q 30.5625 69.828125 38.578125 69.828125 
Q 49.5625 69.828125 56.9375 65.53125 
Q 64.3125 61.234375 67.78125 52.78125 
L 58.9375 49.859375 
Q 57.953125 52.296875 56.296875 54.515625 
Q 54.640625 56.734375 52.140625 58.4375 
Q 49.65625 60.15625 46.3125 61.171875 
Q 42.96875 62.203125 38.671875 62.203125 
" id="LiberationSans-43"/>
     <path d="M 57.953125 0 
L 3.171875 0 
L 3.171875 6.984375 
L 45.0625 61.1875 
L 6.734375 61.1875 
L 6.734375 68.796875 
L 55.671875 68.796875 
L 55.671875 62.015625 
L 13.765625 7.625 
L 57.953125 7.625 
z
" id="LiberationSans-5a"/>
     <path d="M 17.53125 61.1875 
L 17.53125 35.59375 
L 55.90625 35.59375 
L 55.90625 27.875 
L 17.53125 27.875 
L 17.53125 0 
L 8.203125 0 
L 8.203125 68.796875 
L 57.078125 68.796875 
L 57.078125 61.1875 
z
" id="LiberationSans-46"/>
     <path d="M 22.265625 54.390625 
L 35.15625 59.421875 
L 37.359375 52.984375 
L 23.578125 49.421875 
L 32.625 37.203125 
L 26.8125 33.6875 
L 19.484375 46.296875 
L 11.859375 33.796875 
L 6.0625 37.3125 
L 15.28125 49.421875 
L 1.609375 52.984375 
L 3.8125 59.515625 
L 16.84375 54.296875 
L 16.265625 68.796875 
L 22.90625 68.796875 
z
" id="LiberationSans-2a"/>
    </defs>
    <g style="fill:#262626;" transform="translate(212.4815625 34.6)scale(0.12 -0.12)">
     <use xlink:href="#LiberationSans-49"/>
     <use x="27.783203125" xlink:href="#LiberationSans-46"/>
     <use x="88.8671875" xlink:href="#LiberationSans-20"/>
     <use x="116.650390625" xlink:href="#LiberationSans-2d"/>
     <use x="149.951171875" xlink:href="#LiberationSans-20"/>
     <use x="177.734375" xlink:href="#LiberationSans-31"/>
     <use x="233.349609375" xlink:href="#LiberationSans-35"/>
     <use x="288.96484375" xlink:href="#LiberationSans-2e"/>
     <use x="316.748046875" xlink:href="#LiberationSans-39"/>
     <use x="372.36328125" xlink:href="#LiberationSans-37"/>
     <use x="427.978515625" xlink:href="#LiberationSans-32"/>
     <use x="483.59375" xlink:href="#LiberationSans-37"/>
     <use x="539.208984375" xlink:href="#LiberationSans-38"/>
     <use x="594.82421875" xlink:href="#LiberationSans-30"/>
     <use x="650.439453125" xlink:href="#LiberationSans-35"/>
     <use x="706.0546875" xlink:href="#LiberationSans-39"/>
     <use x="761.669921875" xlink:href="#LiberationSans-36"/>
     <use x="817.28515625" xlink:href="#LiberationSans-34"/>
     <use x="872.900390625" xlink:href="#LiberationSans-36"/>
     <use x="928.515625" xlink:href="#LiberationSans-37"/>
     <use x="984.130859375" xlink:href="#LiberationSans-30"/>
     <use x="1039.74609375" xlink:href="#LiberationSans-36"/>
     <use x="1095.361328125" xlink:href="#LiberationSans-34"/>
     <use x="1150.9765625" xlink:href="#LiberationSans-20"/>
     <use x="1178.759765625" xlink:href="#LiberationSans-2a"/>
     <use x="1217.67578125" xlink:href="#LiberationSans-20"/>
     <use x="1245.458984375" xlink:href="#LiberationSans-5a"/>
     <use x="1306.54296875" xlink:href="#LiberationSans-43"/>
    </g>
   </g>
  </g>
 </g>
 <defs>
  <clipPath id="pde0308b903">
   <rect height="316.8" width="446.4" x="72.0" y="39.6"/>
  </clipPath>
 </defs>
</svg>
