<?xml version="1.0" encoding="utf-8" standalone="no"?>
<!DOCTYPE svg PUBLIC "-//W3C//DTD SVG 1.1//EN"
  "http://www.w3.org/Graphics/SVG/1.1/DTD/svg11.dtd">
<!-- Created with matplotlib (http://matplotlib.org/) -->
<svg height="396pt" version="1.1" viewBox="0 0 576 396" width="576pt" xmlns="http://www.w3.org/2000/svg" xmlns:xlink="http://www.w3.org/1999/xlink">
 <defs>
  <style type="text/css">
*{stroke-linecap:butt;stroke-linejoin:round;stroke-miterlimit:100000;}
  </style>
 </defs>
 <g id="figure_1">
  <g id="patch_1">
   <path d="M 0 396 
L 576 396 
L 576 0 
L 0 0 
z
" style="fill:#ffffff;"/>
  </g>
  <g id="axes_1">
   <g id="patch_2">
    <path d="M 72 356.4 
L 518.4 356.4 
L 518.4 39.6 
L 72 39.6 
z
" style="fill:#eaeaf2;"/>
   </g>
   <g id="matplotlib.axis_1">
    <g id="xtick_1">
     <g id="line2d_1">
      <path clip-path="url(#pe0420fe08f)" d="M 72 356.4 
L 72 39.6 
" style="fill:none;stroke:#ffffff;stroke-linecap:round;"/>
     </g>
     <g id="line2d_2"/>
     <g id="line2d_3"/>
     <g id="text_1">
      <!-- 2016-09-27 09:25:00 -->
      <defs>
       <path d="M 5.03125 0 
L 5.03125 6.203125 
Q 7.515625 11.921875 11.109375 16.28125 
Q 14.703125 20.65625 18.65625 24.1875 
Q 22.609375 27.734375 26.484375 30.765625 
Q 30.375 33.796875 33.5 36.8125 
Q 36.625 39.84375 38.546875 43.15625 
Q 40.484375 46.484375 40.484375 50.6875 
Q 40.484375 53.609375 39.59375 55.828125 
Q 38.71875 58.0625 37.0625 59.5625 
Q 35.40625 61.078125 33.078125 61.828125 
Q 30.765625 62.59375 27.9375 62.59375 
Q 25.296875 62.59375 22.96875 61.859375 
Q 20.65625 61.140625 18.84375 59.671875 
Q 17.046875 58.203125 15.890625 56.03125 
Q 14.75 53.859375 14.40625 50.984375 
L 5.421875 51.8125 
Q 5.859375 55.515625 7.46875 58.78125 
Q 9.078125 62.0625 11.90625 64.53125 
Q 14.75 67 18.71875 68.40625 
Q 22.703125 69.828125 27.9375 69.828125 
Q 33.0625 69.828125 37.0625 68.609375 
Q 41.0625 67.390625 43.8125 64.984375 
Q 46.578125 62.59375 48.046875 59.078125 
Q 49.515625 55.5625 49.515625 50.984375 
Q 49.515625 47.515625 48.265625 44.390625 
Q 47.015625 41.265625 44.9375 38.421875 
Q 42.875 35.59375 40.140625 32.953125 
Q 37.40625 30.328125 34.421875 27.8125 
Q 31.453125 25.296875 28.421875 22.828125 
Q 25.390625 20.359375 22.71875 17.859375 
Q 20.0625 15.375 17.96875 12.8125 
Q 15.875 10.25 14.703125 7.46875 
L 50.59375 7.46875 
L 50.59375 0 
z
" id="LiberationSans-32"/>
       <path d="M 7.625 0 
L 7.625 7.46875 
L 25.140625 7.46875 
L 25.140625 60.40625 
L 9.625 49.3125 
L 9.625 57.625 
L 25.875 68.796875 
L 33.984375 68.796875 
L 33.984375 7.46875 
L 50.734375 7.46875 
L 50.734375 0 
z
" id="LiberationSans-31"/>
       <path d="M 51.421875 22.40625 
Q 51.421875 17.234375 49.859375 12.9375 
Q 48.296875 8.640625 45.21875 5.53125 
Q 42.140625 2.4375 37.578125 0.71875 
Q 33.015625 -0.984375 27 -0.984375 
Q 21.578125 -0.984375 17.546875 0.28125 
Q 13.53125 1.5625 10.734375 3.78125 
Q 7.953125 6 6.3125 8.984375 
Q 4.6875 11.96875 4 15.375 
L 12.890625 16.40625 
Q 13.421875 14.453125 14.390625 12.625 
Q 15.375 10.796875 17.0625 9.34375 
Q 18.75 7.90625 21.21875 7.046875 
Q 23.6875 6.203125 27.203125 6.203125 
Q 30.609375 6.203125 33.390625 7.25 
Q 36.1875 8.296875 38.15625 10.34375 
Q 40.140625 12.40625 41.203125 15.375 
Q 42.28125 18.359375 42.28125 22.21875 
Q 42.28125 25.390625 41.25 28.046875 
Q 40.234375 30.71875 38.328125 32.640625 
Q 36.421875 34.578125 33.65625 35.640625 
Q 30.90625 36.71875 27.390625 36.71875 
Q 25.203125 36.71875 23.34375 36.328125 
Q 21.484375 35.9375 19.890625 35.25 
Q 18.3125 34.578125 17.015625 33.671875 
Q 15.71875 32.765625 14.59375 31.78125 
L 6 31.78125 
L 8.296875 68.796875 
L 47.40625 68.796875 
L 47.40625 61.328125 
L 16.3125 61.328125 
L 14.984375 39.5 
Q 17.328125 41.3125 20.84375 42.59375 
Q 24.359375 43.890625 29.203125 43.890625 
Q 34.328125 43.890625 38.421875 42.328125 
Q 42.53125 40.765625 45.40625 37.90625 
Q 48.296875 35.0625 49.859375 31.109375 
Q 51.421875 27.15625 51.421875 22.40625 
" id="LiberationSans-35"/>
       <path d="M 51.703125 34.421875 
Q 51.703125 24.515625 49.828125 17.75 
Q 47.953125 10.984375 44.703125 6.8125 
Q 41.453125 2.640625 37.0625 0.828125 
Q 32.671875 -0.984375 27.6875 -0.984375 
Q 22.65625 -0.984375 18.3125 0.828125 
Q 13.96875 2.640625 10.765625 6.78125 
Q 7.5625 10.9375 5.734375 17.703125 
Q 3.90625 24.46875 3.90625 34.421875 
Q 3.90625 44.828125 5.734375 51.640625 
Q 7.5625 58.453125 10.78125 62.5 
Q 14.015625 66.546875 18.40625 68.1875 
Q 22.796875 69.828125 27.984375 69.828125 
Q 32.90625 69.828125 37.21875 68.1875 
Q 41.546875 66.546875 44.765625 62.5 
Q 48 58.453125 49.84375 51.640625 
Q 51.703125 44.828125 51.703125 34.421875 
M 42.78125 34.421875 
Q 42.78125 42.625 41.796875 48.0625 
Q 40.828125 53.515625 38.921875 56.765625 
Q 37.015625 60.015625 34.25 61.359375 
Q 31.5 62.703125 27.984375 62.703125 
Q 24.265625 62.703125 21.4375 61.328125 
Q 18.609375 59.96875 16.671875 56.71875 
Q 14.75 53.46875 13.765625 48.015625 
Q 12.796875 42.578125 12.796875 34.421875 
Q 12.796875 26.515625 13.796875 21.09375 
Q 14.796875 15.671875 16.71875 12.375 
Q 18.65625 9.078125 21.4375 7.640625 
Q 24.21875 6.203125 27.78125 6.203125 
Q 31.25 6.203125 34.03125 7.640625 
Q 36.8125 9.078125 38.734375 12.375 
Q 40.671875 15.671875 41.71875 21.09375 
Q 42.78125 26.515625 42.78125 34.421875 
" id="LiberationSans-30"/>
       <path d="M 50.875 35.796875 
Q 50.875 26.609375 49.140625 19.703125 
Q 47.40625 12.796875 44.1875 8.203125 
Q 40.96875 3.609375 36.34375 1.3125 
Q 31.734375 -0.984375 25.984375 -0.984375 
Q 22.015625 -0.984375 18.84375 -0.171875 
Q 15.671875 0.640625 13.171875 2.34375 
Q 10.6875 4.046875 8.921875 6.78125 
Q 7.171875 9.515625 6.109375 13.375 
L 14.5 14.703125 
Q 15.875 10.25 18.78125 8.171875 
Q 21.6875 6.109375 26.125 6.109375 
Q 29.6875 6.109375 32.640625 7.78125 
Q 35.59375 9.46875 37.671875 12.84375 
Q 39.75 16.21875 40.921875 21.296875 
Q 42.09375 26.375 42.1875 33.203125 
Q 41.15625 30.90625 39.375 29.09375 
Q 37.59375 27.296875 35.328125 26.046875 
Q 33.0625 24.8125 30.421875 24.140625 
Q 27.78125 23.484375 25.09375 23.484375 
Q 20.40625 23.484375 16.625 25.171875 
Q 12.84375 26.859375 10.203125 29.875 
Q 7.5625 32.90625 6.125 37.171875 
Q 4.6875 41.453125 4.6875 46.6875 
Q 4.6875 52 6.21875 56.296875 
Q 7.765625 60.59375 10.6875 63.59375 
Q 13.625 66.609375 17.890625 68.21875 
Q 22.171875 69.828125 27.59375 69.828125 
Q 39.0625 69.828125 44.96875 61.328125 
Q 50.875 52.828125 50.875 35.796875 
M 41.3125 44.28125 
Q 41.3125 48.09375 40.40625 51.453125 
Q 39.5 54.828125 37.71875 57.3125 
Q 35.9375 59.8125 33.328125 61.25 
Q 30.71875 62.703125 27.296875 62.703125 
Q 24.125 62.703125 21.578125 61.578125 
Q 19.046875 60.453125 17.28125 58.375 
Q 15.53125 56.296875 14.578125 53.3125 
Q 13.625 50.34375 13.625 46.6875 
Q 13.625 43.21875 14.46875 40.234375 
Q 15.328125 37.25 17.03125 35.078125 
Q 18.75 32.90625 21.28125 31.65625 
Q 23.828125 30.421875 27.203125 30.421875 
Q 29.640625 30.421875 32.15625 31.25 
Q 34.671875 32.078125 36.6875 33.78125 
Q 38.71875 35.5 40.015625 38.109375 
Q 41.3125 40.71875 41.3125 44.28125 
" id="LiberationSans-39"/>
       <path d="M 9.125 42.71875 
L 9.125 52.828125 
L 18.65625 52.828125 
L 18.65625 42.71875 
z
M 9.125 0 
L 9.125 10.109375 
L 18.65625 10.109375 
L 18.65625 0 
z
" id="LiberationSans-3a"/>
       <path d="M 50.59375 61.671875 
Q 45.40625 53.765625 41.0625 46.453125 
Q 36.71875 39.15625 33.59375 31.75 
Q 30.46875 24.359375 28.734375 16.578125 
Q 27 8.796875 27 0 
L 17.828125 0 
Q 17.828125 8.25 19.78125 16.1875 
Q 21.734375 24.125 25.046875 31.765625 
Q 28.375 39.40625 32.765625 46.78125 
Q 37.15625 54.15625 42.09375 61.328125 
L 5.125 61.328125 
L 5.125 68.796875 
L 50.59375 68.796875 
z
" id="LiberationSans-37"/>
       <path id="LiberationSans-20"/>
       <path d="M 4.4375 22.65625 
L 4.4375 30.46875 
L 28.859375 30.46875 
L 28.859375 22.65625 
z
" id="LiberationSans-2d"/>
       <path d="M 51.21875 22.515625 
Q 51.21875 17.328125 49.78125 13 
Q 48.34375 8.6875 45.53125 5.578125 
Q 42.71875 2.484375 38.5625 0.75 
Q 34.421875 -0.984375 29 -0.984375 
Q 23 -0.984375 18.5 1.3125 
Q 14.015625 3.609375 11.03125 7.921875 
Q 8.0625 12.25 6.5625 18.53125 
Q 5.078125 24.8125 5.078125 32.8125 
Q 5.078125 42 6.765625 48.921875 
Q 8.453125 55.859375 11.625 60.5 
Q 14.796875 65.140625 19.359375 67.484375 
Q 23.921875 69.828125 29.6875 69.828125 
Q 33.203125 69.828125 36.28125 69.09375 
Q 39.359375 68.359375 41.875 66.71875 
Q 44.390625 65.09375 46.28125 62.40625 
Q 48.1875 59.71875 49.3125 55.8125 
L 40.921875 54.296875 
Q 39.546875 58.734375 36.546875 60.71875 
Q 33.546875 62.703125 29.59375 62.703125 
Q 25.984375 62.703125 23.046875 60.984375 
Q 20.125 59.28125 18.0625 55.875 
Q 16.015625 52.484375 14.90625 47.359375 
Q 13.8125 42.234375 13.8125 35.40625 
Q 16.21875 39.84375 20.5625 42.15625 
Q 24.90625 44.484375 30.515625 44.484375 
Q 35.203125 44.484375 39.015625 42.96875 
Q 42.828125 41.453125 45.53125 38.59375 
Q 48.25 35.75 49.734375 31.671875 
Q 51.21875 27.59375 51.21875 22.515625 
M 42.28125 22.125 
Q 42.28125 25.6875 41.40625 28.5625 
Q 40.53125 31.453125 38.765625 33.46875 
Q 37.015625 35.5 34.421875 36.59375 
Q 31.84375 37.703125 28.421875 37.703125 
Q 26.03125 37.703125 23.578125 36.984375 
Q 21.140625 36.28125 19.15625 34.6875 
Q 17.1875 33.109375 15.9375 30.515625 
Q 14.703125 27.9375 14.703125 24.21875 
Q 14.703125 20.40625 15.671875 17.109375 
Q 16.65625 13.8125 18.484375 11.375 
Q 20.3125 8.9375 22.890625 7.515625 
Q 25.484375 6.109375 28.71875 6.109375 
Q 31.890625 6.109375 34.40625 7.203125 
Q 36.921875 8.296875 38.671875 10.375 
Q 40.4375 12.453125 41.359375 15.421875 
Q 42.28125 18.40625 42.28125 22.125 
" id="LiberationSans-36"/>
      </defs>
      <g style="fill:#262626;" transform="translate(25.5765625 370.646875)scale(0.1 -0.1)">
       <use xlink:href="#LiberationSans-32"/>
       <use x="55.615234375" xlink:href="#LiberationSans-30"/>
       <use x="111.23046875" xlink:href="#LiberationSans-31"/>
       <use x="166.845703125" xlink:href="#LiberationSans-36"/>
       <use x="222.4609375" xlink:href="#LiberationSans-2d"/>
       <use x="255.76171875" xlink:href="#LiberationSans-30"/>
       <use x="311.376953125" xlink:href="#LiberationSans-39"/>
       <use x="366.9921875" xlink:href="#LiberationSans-2d"/>
       <use x="400.29296875" xlink:href="#LiberationSans-32"/>
       <use x="455.908203125" xlink:href="#LiberationSans-37"/>
       <use x="511.5234375" xlink:href="#LiberationSans-20"/>
       <use x="539.306640625" xlink:href="#LiberationSans-30"/>
       <use x="594.921875" xlink:href="#LiberationSans-39"/>
       <use x="650.537109375" xlink:href="#LiberationSans-3a"/>
       <use x="678.3203125" xlink:href="#LiberationSans-32"/>
       <use x="733.935546875" xlink:href="#LiberationSans-35"/>
       <use x="789.55078125" xlink:href="#LiberationSans-3a"/>
       <use x="817.333984375" xlink:href="#LiberationSans-30"/>
       <use x="872.94921875" xlink:href="#LiberationSans-30"/>
      </g>
     </g>
    </g>
    <g id="xtick_2">
     <g id="line2d_4">
      <path clip-path="url(#pe0420fe08f)" d="M 183.655828 356.4 
L 183.655828 39.6 
" style="fill:none;stroke:#ffffff;stroke-linecap:round;"/>
     </g>
     <g id="line2d_5"/>
     <g id="line2d_6"/>
     <g id="text_2">
      <!-- 2016-09-29 10:14:00 -->
      <defs>
       <path d="M 43.015625 15.578125 
L 43.015625 0 
L 34.71875 0 
L 34.71875 15.578125 
L 2.296875 15.578125 
L 2.296875 22.40625 
L 33.796875 68.796875 
L 43.015625 68.796875 
L 43.015625 22.515625 
L 52.6875 22.515625 
L 52.6875 15.578125 
z
M 34.71875 58.890625 
Q 34.625 58.640625 34.234375 57.9375 
Q 33.84375 57.234375 33.34375 56.34375 
Q 32.859375 55.46875 32.34375 54.5625 
Q 31.84375 53.65625 31.453125 53.078125 
L 13.8125 27.09375 
Q 13.578125 26.703125 13.109375 26.0625 
Q 12.640625 25.4375 12.15625 24.78125 
Q 11.671875 24.125 11.171875 23.484375 
Q 10.6875 22.859375 10.40625 22.515625 
L 34.71875 22.515625 
z
" id="LiberationSans-34"/>
      </defs>
      <g style="fill:#262626;" transform="translate(137.232390414 370.646875)scale(0.1 -0.1)">
       <use xlink:href="#LiberationSans-32"/>
       <use x="55.615234375" xlink:href="#LiberationSans-30"/>
       <use x="111.23046875" xlink:href="#LiberationSans-31"/>
       <use x="166.845703125" xlink:href="#LiberationSans-36"/>
       <use x="222.4609375" xlink:href="#LiberationSans-2d"/>
       <use x="255.76171875" xlink:href="#LiberationSans-30"/>
       <use x="311.376953125" xlink:href="#LiberationSans-39"/>
       <use x="366.9921875" xlink:href="#LiberationSans-2d"/>
       <use x="400.29296875" xlink:href="#LiberationSans-32"/>
       <use x="455.908203125" xlink:href="#LiberationSans-39"/>
       <use x="511.5234375" xlink:href="#LiberationSans-20"/>
       <use x="539.306640625" xlink:href="#LiberationSans-31"/>
       <use x="594.921875" xlink:href="#LiberationSans-30"/>
       <use x="650.537109375" xlink:href="#LiberationSans-3a"/>
       <use x="678.3203125" xlink:href="#LiberationSans-31"/>
       <use x="733.935546875" xlink:href="#LiberationSans-34"/>
       <use x="789.55078125" xlink:href="#LiberationSans-3a"/>
       <use x="817.333984375" xlink:href="#LiberationSans-30"/>
       <use x="872.94921875" xlink:href="#LiberationSans-30"/>
      </g>
     </g>
    </g>
    <g id="xtick_3">
     <g id="line2d_7">
      <path clip-path="url(#pe0420fe08f)" d="M 295.311656 356.4 
L 295.311656 39.6 
" style="fill:none;stroke:#ffffff;stroke-linecap:round;"/>
     </g>
     <g id="line2d_8"/>
     <g id="line2d_9"/>
     <g id="text_3">
      <!-- 2016-10-10 11:20:00 -->
      <g style="fill:#262626;" transform="translate(248.888218328 370.646875)scale(0.1 -0.1)">
       <use xlink:href="#LiberationSans-32"/>
       <use x="55.615234375" xlink:href="#LiberationSans-30"/>
       <use x="111.23046875" xlink:href="#LiberationSans-31"/>
       <use x="166.845703125" xlink:href="#LiberationSans-36"/>
       <use x="222.4609375" xlink:href="#LiberationSans-2d"/>
       <use x="255.76171875" xlink:href="#LiberationSans-31"/>
       <use x="311.376953125" xlink:href="#LiberationSans-30"/>
       <use x="366.9921875" xlink:href="#LiberationSans-2d"/>
       <use x="400.29296875" xlink:href="#LiberationSans-31"/>
       <use x="455.908203125" xlink:href="#LiberationSans-30"/>
       <use x="511.5234375" xlink:href="#LiberationSans-20"/>
       <use x="539.306640625" xlink:href="#LiberationSans-31"/>
       <use x="594.921875" xlink:href="#LiberationSans-31"/>
       <use x="650.537109375" xlink:href="#LiberationSans-3a"/>
       <use x="678.3203125" xlink:href="#LiberationSans-32"/>
       <use x="733.935546875" xlink:href="#LiberationSans-30"/>
       <use x="789.55078125" xlink:href="#LiberationSans-3a"/>
       <use x="817.333984375" xlink:href="#LiberationSans-30"/>
       <use x="872.94921875" xlink:href="#LiberationSans-30"/>
      </g>
     </g>
    </g>
    <g id="xtick_4">
     <g id="line2d_10">
      <path clip-path="url(#pe0420fe08f)" d="M 406.967484 356.4 
L 406.967484 39.6 
" style="fill:none;stroke:#ffffff;stroke-linecap:round;"/>
     </g>
     <g id="line2d_11"/>
     <g id="line2d_12"/>
     <g id="text_4">
      <!-- 2016-10-12 14:10:00 -->
      <g style="fill:#262626;" transform="translate(360.544046242 370.646875)scale(0.1 -0.1)">
       <use xlink:href="#LiberationSans-32"/>
       <use x="55.615234375" xlink:href="#LiberationSans-30"/>
       <use x="111.23046875" xlink:href="#LiberationSans-31"/>
       <use x="166.845703125" xlink:href="#LiberationSans-36"/>
       <use x="222.4609375" xlink:href="#LiberationSans-2d"/>
       <use x="255.76171875" xlink:href="#LiberationSans-31"/>
       <use x="311.376953125" xlink:href="#LiberationSans-30"/>
       <use x="366.9921875" xlink:href="#LiberationSans-2d"/>
       <use x="400.29296875" xlink:href="#LiberationSans-31"/>
       <use x="455.908203125" xlink:href="#LiberationSans-32"/>
       <use x="511.5234375" xlink:href="#LiberationSans-20"/>
       <use x="539.306640625" xlink:href="#LiberationSans-31"/>
       <use x="594.921875" xlink:href="#LiberationSans-34"/>
       <use x="650.537109375" xlink:href="#LiberationSans-3a"/>
       <use x="678.3203125" xlink:href="#LiberationSans-31"/>
       <use x="733.935546875" xlink:href="#LiberationSans-30"/>
       <use x="789.55078125" xlink:href="#LiberationSans-3a"/>
       <use x="817.333984375" xlink:href="#LiberationSans-30"/>
       <use x="872.94921875" xlink:href="#LiberationSans-30"/>
      </g>
     </g>
    </g>
    <g id="text_5">
     <!-- time -->
     <defs>
      <path d="M 13.484375 24.5625 
Q 13.484375 20.40625 14.328125 16.90625 
Q 15.1875 13.421875 16.96875 10.90625 
Q 18.75 8.40625 21.53125 7 
Q 24.3125 5.609375 28.21875 5.609375 
Q 33.9375 5.609375 37.375 7.90625 
Q 40.828125 10.203125 42.046875 13.71875 
L 49.75 11.53125 
Q 48.921875 9.328125 47.4375 7.109375 
Q 45.953125 4.890625 43.453125 3.09375 
Q 40.96875 1.3125 37.234375 0.15625 
Q 33.5 -0.984375 28.21875 -0.984375 
Q 16.5 -0.984375 10.375 6 
Q 4.25 12.984375 4.25 26.765625 
Q 4.25 34.1875 6.09375 39.328125 
Q 7.953125 44.484375 11.171875 47.703125 
Q 14.40625 50.921875 18.703125 52.359375 
Q 23 53.8125 27.875 53.8125 
Q 34.515625 53.8125 38.984375 51.65625 
Q 43.453125 49.515625 46.15625 45.71875 
Q 48.875 41.9375 50.015625 36.8125 
Q 51.171875 31.6875 51.171875 25.734375 
L 51.171875 24.5625 
z
M 42.09375 31.296875 
Q 41.359375 39.65625 37.84375 43.484375 
Q 34.328125 47.3125 27.734375 47.3125 
Q 25.53125 47.3125 23.109375 46.609375 
Q 20.703125 45.90625 18.65625 44.09375 
Q 16.609375 42.28125 15.1875 39.171875 
Q 13.765625 36.078125 13.578125 31.296875 
z
" id="LiberationSans-65"/>
      <path d="M 6.6875 64.0625 
L 6.6875 72.46875 
L 15.484375 72.46875 
L 15.484375 64.0625 
z
M 6.6875 0 
L 6.6875 52.828125 
L 15.484375 52.828125 
L 15.484375 0 
z
" id="LiberationSans-69"/>
      <path d="M 27.046875 0.390625 
Q 25.046875 -0.140625 22.96875 -0.453125 
Q 20.90625 -0.78125 18.171875 -0.78125 
Q 7.625 -0.78125 7.625 11.1875 
L 7.625 46.4375 
L 1.515625 46.4375 
L 1.515625 52.828125 
L 7.953125 52.828125 
L 10.546875 64.65625 
L 16.40625 64.65625 
L 16.40625 52.828125 
L 26.171875 52.828125 
L 26.171875 46.4375 
L 16.40625 46.4375 
L 16.40625 13.09375 
Q 16.40625 9.28125 17.640625 7.734375 
Q 18.890625 6.203125 21.96875 6.203125 
Q 23.25 6.203125 24.4375 6.390625 
Q 25.640625 6.59375 27.046875 6.890625 
z
" id="LiberationSans-74"/>
      <path d="M 37.5 0 
L 37.5 33.5 
Q 37.5 37.359375 37.015625 39.9375 
Q 36.53125 42.53125 35.375 44.109375 
Q 34.234375 45.703125 32.375 46.359375 
Q 30.515625 47.015625 27.828125 47.015625 
Q 25.046875 47.015625 22.796875 45.921875 
Q 20.5625 44.828125 18.96875 42.75 
Q 17.390625 40.671875 16.53125 37.625 
Q 15.671875 34.578125 15.671875 30.609375 
L 15.671875 0 
L 6.9375 0 
L 6.9375 41.546875 
Q 6.9375 43.21875 6.90625 45.046875 
Q 6.890625 46.875 6.828125 48.5 
Q 6.78125 50.140625 6.734375 51.3125 
Q 6.6875 52.484375 6.640625 52.828125 
L 14.9375 52.828125 
Q 14.984375 52.59375 15.03125 51.515625 
Q 15.09375 50.4375 15.15625 49.046875 
Q 15.234375 47.65625 15.28125 46.21875 
Q 15.328125 44.78125 15.328125 43.796875 
L 15.484375 43.796875 
Q 16.65625 46.09375 18.015625 47.953125 
Q 19.390625 49.8125 21.21875 51.09375 
Q 23.046875 52.390625 25.40625 53.09375 
Q 27.78125 53.8125 30.90625 53.8125 
Q 36.921875 53.8125 40.40625 51.421875 
Q 43.890625 49.03125 45.265625 43.796875 
L 45.40625 43.796875 
Q 46.578125 46.09375 48.046875 47.953125 
Q 49.515625 49.8125 51.46875 51.09375 
Q 53.421875 52.390625 55.859375 53.09375 
Q 58.296875 53.8125 61.421875 53.8125 
Q 65.4375 53.8125 68.328125 52.734375 
Q 71.234375 51.65625 73.09375 49.40625 
Q 74.953125 47.171875 75.828125 43.625 
Q 76.703125 40.09375 76.703125 35.203125 
L 76.703125 0 
L 68.015625 0 
L 68.015625 33.5 
Q 68.015625 37.359375 67.53125 39.9375 
Q 67.046875 42.53125 65.890625 44.109375 
Q 64.75 45.703125 62.890625 46.359375 
Q 61.03125 47.015625 58.34375 47.015625 
Q 55.5625 47.015625 53.3125 45.96875 
Q 51.078125 44.921875 49.484375 42.875 
Q 47.90625 40.828125 47.046875 37.75 
Q 46.1875 34.671875 46.1875 30.609375 
L 46.1875 0 
z
" id="LiberationSans-6d"/>
     </defs>
     <g style="fill:#262626;" transform="translate(284.81015625 385.6934375)scale(0.11 -0.11)">
      <use xlink:href="#LiberationSans-74"/>
      <use x="27.783203125" xlink:href="#LiberationSans-69"/>
      <use x="50.0" xlink:href="#LiberationSans-6d"/>
      <use x="133.30078125" xlink:href="#LiberationSans-65"/>
     </g>
    </g>
   </g>
   <g id="matplotlib.axis_2">
    <g id="ytick_1">
     <g id="line2d_13">
      <path clip-path="url(#pe0420fe08f)" d="M 72 356.4 
L 518.4 356.4 
" style="fill:none;stroke:#ffffff;stroke-linecap:round;"/>
     </g>
     <g id="line2d_14"/>
     <g id="line2d_15"/>
     <g id="text_6">
      <!-- 451 -->
      <g style="fill:#262626;" transform="translate(48.3171875 358.9859375)scale(0.1 -0.1)">
       <use xlink:href="#LiberationSans-34"/>
       <use x="55.615234375" xlink:href="#LiberationSans-35"/>
       <use x="111.23046875" xlink:href="#LiberationSans-31"/>
      </g>
     </g>
    </g>
    <g id="ytick_2">
     <g id="line2d_16">
      <path clip-path="url(#pe0420fe08f)" d="M 72 321.2 
L 518.4 321.2 
" style="fill:none;stroke:#ffffff;stroke-linecap:round;"/>
     </g>
     <g id="line2d_17"/>
     <g id="line2d_18"/>
     <g id="text_7">
      <!-- 452 -->
      <g style="fill:#262626;" transform="translate(48.3171875 323.7859375)scale(0.1 -0.1)">
       <use xlink:href="#LiberationSans-34"/>
       <use x="55.615234375" xlink:href="#LiberationSans-35"/>
       <use x="111.23046875" xlink:href="#LiberationSans-32"/>
      </g>
     </g>
    </g>
    <g id="ytick_3">
     <g id="line2d_19">
      <path clip-path="url(#pe0420fe08f)" d="M 72 286 
L 518.4 286 
" style="fill:none;stroke:#ffffff;stroke-linecap:round;"/>
     </g>
     <g id="line2d_20"/>
     <g id="line2d_21"/>
     <g id="text_8">
      <!-- 453 -->
      <defs>
       <path d="M 51.21875 19 
Q 51.21875 14.265625 49.671875 10.546875 
Q 48.140625 6.84375 45.1875 4.265625 
Q 42.234375 1.703125 37.859375 0.359375 
Q 33.5 -0.984375 27.875 -0.984375 
Q 21.484375 -0.984375 17.109375 0.609375 
Q 12.75 2.203125 9.90625 4.8125 
Q 7.078125 7.421875 5.65625 10.765625 
Q 4.25 14.109375 3.8125 17.671875 
L 12.890625 18.5 
Q 13.28125 15.765625 14.328125 13.515625 
Q 15.375 11.28125 17.1875 9.671875 
Q 19 8.0625 21.625 7.171875 
Q 24.265625 6.296875 27.875 6.296875 
Q 34.515625 6.296875 38.296875 9.5625 
Q 42.09375 12.84375 42.09375 19.28125 
Q 42.09375 23.09375 40.40625 25.40625 
Q 38.71875 27.734375 36.203125 29.03125 
Q 33.6875 30.328125 30.734375 30.765625 
Q 27.78125 31.203125 25.296875 31.203125 
L 20.3125 31.203125 
L 20.3125 38.8125 
L 25.09375 38.8125 
Q 27.59375 38.8125 30.265625 39.328125 
Q 32.953125 39.84375 35.171875 41.1875 
Q 37.40625 42.53125 38.84375 44.828125 
Q 40.28125 47.125 40.28125 50.6875 
Q 40.28125 56.203125 37.03125 59.390625 
Q 33.796875 62.59375 27.390625 62.59375 
Q 21.578125 62.59375 17.984375 59.609375 
Q 14.40625 56.640625 13.8125 51.21875 
L 4.984375 51.90625 
Q 5.515625 56.453125 7.46875 59.8125 
Q 9.421875 63.1875 12.421875 65.40625 
Q 15.4375 67.625 19.28125 68.71875 
Q 23.140625 69.828125 27.484375 69.828125 
Q 33.25 69.828125 37.390625 68.375 
Q 41.546875 66.9375 44.1875 64.46875 
Q 46.828125 62.015625 48.0625 58.6875 
Q 49.3125 55.375 49.3125 51.609375 
Q 49.3125 48.578125 48.484375 45.9375 
Q 47.65625 43.3125 45.890625 41.203125 
Q 44.140625 39.109375 41.421875 37.59375 
Q 38.71875 36.078125 34.90625 35.296875 
L 34.90625 35.109375 
Q 39.0625 34.671875 42.140625 33.21875 
Q 45.21875 31.78125 47.21875 29.625 
Q 49.21875 27.484375 50.21875 24.75 
Q 51.21875 22.015625 51.21875 19 
" id="LiberationSans-33"/>
      </defs>
      <g style="fill:#262626;" transform="translate(48.3171875 288.5859375)scale(0.1 -0.1)">
       <use xlink:href="#LiberationSans-34"/>
       <use x="55.615234375" xlink:href="#LiberationSans-35"/>
       <use x="111.23046875" xlink:href="#LiberationSans-33"/>
      </g>
     </g>
    </g>
    <g id="ytick_4">
     <g id="line2d_22">
      <path clip-path="url(#pe0420fe08f)" d="M 72 250.8 
L 518.4 250.8 
" style="fill:none;stroke:#ffffff;stroke-linecap:round;"/>
     </g>
     <g id="line2d_23"/>
     <g id="line2d_24"/>
     <g id="text_9">
      <!-- 454 -->
      <g style="fill:#262626;" transform="translate(48.3171875 253.3859375)scale(0.1 -0.1)">
       <use xlink:href="#LiberationSans-34"/>
       <use x="55.615234375" xlink:href="#LiberationSans-35"/>
       <use x="111.23046875" xlink:href="#LiberationSans-34"/>
      </g>
     </g>
    </g>
    <g id="ytick_5">
     <g id="line2d_25">
      <path clip-path="url(#pe0420fe08f)" d="M 72 215.6 
L 518.4 215.6 
" style="fill:none;stroke:#ffffff;stroke-linecap:round;"/>
     </g>
     <g id="line2d_26"/>
     <g id="line2d_27"/>
     <g id="text_10">
      <!-- 455 -->
      <g style="fill:#262626;" transform="translate(48.3171875 218.1859375)scale(0.1 -0.1)">
       <use xlink:href="#LiberationSans-34"/>
       <use x="55.615234375" xlink:href="#LiberationSans-35"/>
       <use x="111.23046875" xlink:href="#LiberationSans-35"/>
      </g>
     </g>
    </g>
    <g id="ytick_6">
     <g id="line2d_28">
      <path clip-path="url(#pe0420fe08f)" d="M 72 180.4 
L 518.4 180.4 
" style="fill:none;stroke:#ffffff;stroke-linecap:round;"/>
     </g>
     <g id="line2d_29"/>
     <g id="line2d_30"/>
     <g id="text_11">
      <!-- 456 -->
      <g style="fill:#262626;" transform="translate(48.3171875 182.9859375)scale(0.1 -0.1)">
       <use xlink:href="#LiberationSans-34"/>
       <use x="55.615234375" xlink:href="#LiberationSans-35"/>
       <use x="111.23046875" xlink:href="#LiberationSans-36"/>
      </g>
     </g>
    </g>
    <g id="ytick_7">
     <g id="line2d_31">
      <path clip-path="url(#pe0420fe08f)" d="M 72 145.2 
L 518.4 145.2 
" style="fill:none;stroke:#ffffff;stroke-linecap:round;"/>
     </g>
     <g id="line2d_32"/>
     <g id="line2d_33"/>
     <g id="text_12">
      <!-- 457 -->
      <g style="fill:#262626;" transform="translate(48.3171875 147.7859375)scale(0.1 -0.1)">
       <use xlink:href="#LiberationSans-34"/>
       <use x="55.615234375" xlink:href="#LiberationSans-35"/>
       <use x="111.23046875" xlink:href="#LiberationSans-37"/>
      </g>
     </g>
    </g>
    <g id="ytick_8">
     <g id="line2d_34">
      <path clip-path="url(#pe0420fe08f)" d="M 72 110 
L 518.4 110 
" style="fill:none;stroke:#ffffff;stroke-linecap:round;"/>
     </g>
     <g id="line2d_35"/>
     <g id="line2d_36"/>
     <g id="text_13">
      <!-- 458 -->
      <defs>
       <path d="M 51.265625 19.1875 
Q 51.265625 14.796875 49.875 11.109375 
Q 48.484375 7.421875 45.625 4.734375 
Q 42.78125 2.046875 38.328125 0.53125 
Q 33.890625 -0.984375 27.828125 -0.984375 
Q 21.78125 -0.984375 17.359375 0.53125 
Q 12.9375 2.046875 10.03125 4.703125 
Q 7.125 7.375 5.734375 11.0625 
Q 4.34375 14.75 4.34375 19.09375 
Q 4.34375 22.859375 5.484375 25.78125 
Q 6.640625 28.71875 8.5625 30.828125 
Q 10.5 32.953125 12.96875 34.25 
Q 15.4375 35.546875 18.0625 35.984375 
L 18.0625 36.1875 
Q 15.1875 36.859375 12.90625 38.375 
Q 10.640625 39.890625 9.09375 42.015625 
Q 7.5625 44.140625 6.75 46.71875 
Q 5.953125 49.3125 5.953125 52.203125 
Q 5.953125 55.8125 7.34375 59 
Q 8.734375 62.203125 11.46875 64.625 
Q 14.203125 67.046875 18.25 68.4375 
Q 22.3125 69.828125 27.640625 69.828125 
Q 33.25 69.828125 37.375 68.40625 
Q 41.5 67 44.203125 64.578125 
Q 46.921875 62.15625 48.234375 58.9375 
Q 49.5625 55.71875 49.5625 52.09375 
Q 49.5625 49.265625 48.75 46.671875 
Q 47.953125 44.09375 46.40625 41.96875 
Q 44.875 39.84375 42.59375 38.34375 
Q 40.328125 36.859375 37.359375 36.28125 
L 37.359375 36.078125 
Q 40.328125 35.59375 42.859375 34.296875 
Q 45.40625 33.015625 47.265625 30.890625 
Q 49.125 28.765625 50.1875 25.828125 
Q 51.265625 22.90625 51.265625 19.1875 
M 40.4375 51.609375 
Q 40.4375 54.203125 39.765625 56.34375 
Q 39.109375 58.5 37.59375 60.03125 
Q 36.078125 61.578125 33.640625 62.421875 
Q 31.203125 63.28125 27.640625 63.28125 
Q 24.171875 63.28125 21.78125 62.421875 
Q 19.390625 61.578125 17.84375 60.03125 
Q 16.3125 58.5 15.625 56.34375 
Q 14.9375 54.203125 14.9375 51.609375 
Q 14.9375 49.5625 15.46875 47.40625 
Q 16.015625 45.265625 17.421875 43.5 
Q 18.84375 41.75 21.328125 40.625 
Q 23.828125 39.5 27.734375 39.5 
Q 31.890625 39.5 34.40625 40.625 
Q 36.921875 41.75 38.25 43.5 
Q 39.59375 45.265625 40.015625 47.40625 
Q 40.4375 49.5625 40.4375 51.609375 
M 42.140625 20.015625 
Q 42.140625 22.515625 41.453125 24.828125 
Q 40.765625 27.15625 39.109375 28.9375 
Q 37.453125 30.71875 34.640625 31.8125 
Q 31.84375 32.90625 27.640625 32.90625 
Q 23.78125 32.90625 21.0625 31.8125 
Q 18.359375 30.71875 16.671875 28.90625 
Q 14.984375 27.09375 14.203125 24.71875 
Q 13.421875 22.359375 13.421875 19.828125 
Q 13.421875 16.65625 14.203125 14.03125 
Q 14.984375 11.421875 16.6875 9.546875 
Q 18.40625 7.671875 21.1875 6.640625 
Q 23.96875 5.609375 27.9375 5.609375 
Q 31.9375 5.609375 34.671875 6.640625 
Q 37.40625 7.671875 39.0625 9.546875 
Q 40.71875 11.421875 41.421875 14.078125 
Q 42.140625 16.75 42.140625 20.015625 
" id="LiberationSans-38"/>
      </defs>
      <g style="fill:#262626;" transform="translate(48.3171875 112.5859375)scale(0.1 -0.1)">
       <use xlink:href="#LiberationSans-34"/>
       <use x="55.615234375" xlink:href="#LiberationSans-35"/>
       <use x="111.23046875" xlink:href="#LiberationSans-38"/>
      </g>
     </g>
    </g>
    <g id="ytick_9">
     <g id="line2d_37">
      <path clip-path="url(#pe0420fe08f)" d="M 72 74.8 
L 518.4 74.8 
" style="fill:none;stroke:#ffffff;stroke-linecap:round;"/>
     </g>
     <g id="line2d_38"/>
     <g id="line2d_39"/>
     <g id="text_14">
      <!-- 459 -->
      <g style="fill:#262626;" transform="translate(48.3171875 77.3859375)scale(0.1 -0.1)">
       <use xlink:href="#LiberationSans-34"/>
       <use x="55.615234375" xlink:href="#LiberationSans-35"/>
       <use x="111.23046875" xlink:href="#LiberationSans-39"/>
      </g>
     </g>
    </g>
    <g id="ytick_10">
     <g id="line2d_40">
      <path clip-path="url(#pe0420fe08f)" d="M 72 39.6 
L 518.4 39.6 
" style="fill:none;stroke:#ffffff;stroke-linecap:round;"/>
     </g>
     <g id="line2d_41"/>
     <g id="line2d_42"/>
     <g id="text_15">
      <!-- 460 -->
      <g style="fill:#262626;" transform="translate(48.3171875 42.1859375)scale(0.1 -0.1)">
       <use xlink:href="#LiberationSans-34"/>
       <use x="55.615234375" xlink:href="#LiberationSans-36"/>
       <use x="111.23046875" xlink:href="#LiberationSans-30"/>
      </g>
     </g>
    </g>
   </g>
   <g id="line2d_43">
    <path clip-path="url(#pe0420fe08f)" d="M 72 124.686159 
L 72.223312 130.192027 
L 72.446623 120.362423 
L 72.669935 126.446159 
L 72.893247 122.700291 
L 73.116558 122.700291 
L 73.33987 118.954423 
L 73.563182 117.194423 
L 73.786493 120.940291 
L 74.009805 120.940291 
L 74.233117 117.194423 
L 74.456428 111.45843 
L 74.67974 113.444298 
L 74.903052 113.444298 
L 75.126363 115.204298 
L 75.349675 115.204298 
L 75.572986 116.612298 
L 76.01961 116.612298 
L 76.466233 125.868291 
L 76.689545 120.362423 
L 77.136168 124.108291 
L 77.35948 125.868291 
L 77.582791 131.374159 
L 77.806103 120.132298 
L 78.029415 125.642423 
L 78.252726 121.892298 
L 78.476038 130.796291 
L 78.922661 126.820298 
L 79.592596 137.836291 
L 79.815908 135.498423 
L 80.262531 151.212291 
L 80.485843 149.452291 
L 80.709155 142.186423 
L 80.932466 143.946423 
L 81.155778 143.946423 
L 81.602401 151.438159 
L 81.825713 151.212291 
L 82.049025 143.946423 
L 82.272336 143.946423 
L 82.718959 140.778423 
L 82.942271 142.186423 
L 83.165583 138.436298 
L 83.388894 143.946423 
L 83.835518 137.028298 
L 84.058829 136.45043 
L 84.282141 115.956832 
L 84.505453 110.220839 
L 84.952076 113.966707 
L 85.175388 108.460839 
L 85.622011 105.292839 
L 85.845323 110.798707 
L 86.068634 110.798707 
L 86.291946 103.306971 
L 86.515258 100.969103 
L 86.738569 103.306971 
L 87.185193 97.801103 
L 87.631816 97.801103 
L 87.855128 101.546971 
L 88.078439 99.786971 
L 88.525063 99.786971 
L 88.971686 95.810978 
L 89.194997 95.810978 
L 89.418309 97.801103 
L 89.641621 94.050978 
L 89.864932 79.063248 
L 90.088244 84.573373 
L 90.758179 73.331512 
L 90.981491 74.739512 
L 91.204802 74.739512 
L 91.428114 70.993644 
L 91.651426 89.501373 
L 91.874737 82.00538 
L 92.098049 83.991248 
L 92.321361 82.231248 
L 92.767984 97.218978 
L 92.991296 93.47311 
L 93.214607 93.47311 
L 93.437919 91.487241 
L 93.661231 87.741373 
L 93.884542 93.247241 
L 94.107854 91.487241 
L 94.554477 97.218978 
L 94.777789 93.47311 
L 95.001101 97.218978 
L 95.224412 98.978978 
L 95.447724 93.47311 
L 95.671036 102.729103 
L 95.894347 97.218978 
L 96.34097 97.218978 
L 96.564282 89.501373 
L 97.010905 96.415241 
L 97.234217 95.007241 
L 97.68084 88.919248 
L 97.904152 91.261373 
L 98.350775 96.99311 
L 98.574087 93.247241 
L 98.797399 98.75311 
L 99.02071 96.99311 
L 99.244022 93.247241 
L 99.467334 95.007241 
L 99.690645 92.669373 
L 100.137269 100.16111 
L 100.583892 96.99311 
L 100.807204 98.75311 
L 101.030515 95.007241 
L 101.253827 96.415241 
L 101.477139 96.415241 
L 101.70045 94.429373 
L 102.147074 98.75311 
L 102.370385 98.75311 
L 102.593697 107.657103 
L 102.817009 100.16111 
L 103.04032 100.738978 
L 103.263632 101.92111 
L 103.486943 99.935241 
L 103.710255 103.68111 
L 103.933567 103.68111 
L 104.156878 107.426978 
L 104.38019 107.426978 
L 104.603502 103.906978 
L 104.826813 114.922971 
L 105.050125 109.417103 
L 105.273437 111.177103 
L 105.496748 109.417103 
L 105.72006 100.16111 
L 105.943372 100.16111 
L 106.166683 98.75311 
L 106.389995 95.007241 
L 106.613307 98.75311 
L 107.05993 95.007241 
L 107.283242 93.247241 
L 107.506553 93.247241 
L 107.729865 91.487241 
L 107.953177 91.487241 
L 108.176488 98.978978 
L 108.3998 102.498978 
L 108.623112 96.99311 
L 108.846423 96.99311 
L 109.069735 95.23311 
L 109.293047 98.978978 
L 109.516358 98.978978 
L 109.73967 100.738978 
L 109.962981 95.23311 
L 110.186293 98.75311 
L 110.409605 95.007241 
L 110.632916 100.16111 
L 110.856228 99.935241 
L 111.07954 98.175241 
L 111.526163 103.906978 
L 111.749475 103.906978 
L 112.196098 107.657103 
L 112.41941 103.906978 
L 112.642721 102.498978 
L 113.312656 107.426978 
L 113.535968 105.666978 
L 113.75928 105.666978 
L 113.982591 101.92111 
L 114.205903 105.666978 
L 114.429215 105.666978 
L 114.652526 101.92111 
L 114.875838 105.666978 
L 115.09915 120.654707 
L 115.322461 111.402971 
L 115.545773 109.994971 
L 115.769085 111.402971 
L 115.992396 111.980839 
L 116.215708 109.994971 
L 116.43902 113.162971 
L 116.662331 168.201103 
L 116.885643 182.606707 
L 117.108954 177.452839 
L 117.332266 181.198707 
L 117.555578 180.620839 
L 118.002201 176.874971 
L 118.225513 171.369103 
L 118.448824 169.378978 
L 118.672136 165.63311 
L 118.895448 163.87311 
L 119.118759 167.618978 
L 119.342071 163.87311 
L 119.565383 154.391248 
L 119.788694 150.64538 
L 120.012006 152.40538 
L 120.235318 152.40538 
L 120.458629 150.64538 
L 120.681941 154.391248 
L 120.905253 152.631248 
L 121.128564 160.127241 
L 121.575188 160.127241 
L 121.798499 163.87311 
L 122.245123 151.223248 
L 122.468434 152.631248 
L 122.691746 153.213373 
L 122.915058 156.959241 
L 123.361681 153.213373 
L 123.584992 147.703248 
L 123.808304 153.213373 
L 124.031616 153.213373 
L 124.254927 149.463248 
L 124.478239 153.213373 
L 124.701551 153.213373 
L 124.924862 149.463248 
L 125.148174 149.463248 
L 125.371486 151.223248 
L 125.594797 147.47738 
L 126.041421 156.959241 
L 126.264732 149.463248 
L 126.488044 153.213373 
L 126.711356 163.87311 
L 126.934667 163.87311 
L 127.381291 171.369103 
L 127.604602 167.618978 
L 127.827914 175.114971 
L 128.051226 171.369103 
L 128.274537 173.129103 
L 128.721161 182.154971 
L 128.944472 176.066978 
L 129.167784 179.817103 
L 129.837719 167.167241 
L 130.061031 170.91311 
L 130.284342 167.167241 
L 130.507654 176.066978 
L 130.730965 176.066978 
L 130.954277 177.826978 
L 131.177589 183.337103 
L 131.4009 183.337103 
L 131.624212 181.577103 
L 131.847524 181.577103 
L 132.070835 183.562971 
L 132.294147 181.577103 
L 132.517459 176.066978 
L 132.74077 177.826978 
L 132.964082 176.066978 
L 133.187394 177.826978 
L 133.410705 177.826978 
L 133.634017 179.817103 
L 133.857329 177.826978 
L 134.08064 177.826978 
L 134.303952 176.066978 
L 134.527264 167.167241 
L 134.973887 172.898978 
L 135.197199 174.658978 
L 135.643822 174.658978 
L 135.867134 177.826978 
L 136.090445 177.826978 
L 136.313757 181.577103 
L 136.537069 179.817103 
L 136.76038 176.066978 
L 136.983692 176.066978 
L 137.207004 174.08111 
L 137.430315 174.08111 
L 137.653627 176.066978 
L 138.10025 176.066978 
L 138.323562 177.826978 
L 138.546873 177.826978 
L 138.770185 181.577103 
L 138.993497 181.577103 
L 139.44012 177.826978 
L 139.663432 177.826978 
L 140.110055 168.575241 
L 140.333367 170.335241 
L 140.556678 174.08111 
L 140.77999 172.32111 
L 141.003302 172.32111 
L 141.226613 170.335241 
L 141.449925 166.589373 
L 141.673237 174.08111 
L 141.896548 172.32111 
L 142.11986 168.575241 
L 142.343172 168.575241 
L 142.566483 172.32111 
L 143.013107 168.575241 
L 143.236418 170.335241 
L 143.45973 170.335241 
L 143.683042 168.575241 
L 143.906353 170.335241 
L 144.129665 170.335241 
L 144.352976 174.08111 
L 144.576288 172.32111 
L 144.7996 174.08111 
L 145.022911 170.335241 
L 145.246223 170.91311 
L 145.469535 174.658978 
L 145.692846 174.658978 
L 145.916158 185.900839 
L 146.13947 187.308839 
L 146.362781 178.409103 
L 146.586093 178.409103 
L 146.809405 180.394971 
L 147.032716 176.649103 
L 147.256028 180.394971 
L 147.702651 173.129103 
L 148.149275 182.380839 
L 148.372586 174.889103 
L 148.595898 174.889103 
L 148.81921 173.129103 
L 149.265833 176.649103 
L 149.489145 176.649103 
L 149.712456 178.634971 
L 149.935768 176.874971 
L 150.15908 180.620839 
L 150.382391 174.889103 
L 150.605703 174.889103 
L 151.498949 159.901373 
L 151.722261 163.647241 
L 151.945573 159.901373 
L 152.168884 165.407241 
L 152.392196 167.39311 
L 152.615508 165.407241 
L 152.838819 167.39311 
L 153.062131 163.647241 
L 153.285443 165.63311 
L 153.732066 159.901373 
L 153.955378 163.647241 
L 154.178689 165.407241 
L 154.402001 165.407241 
L 154.625313 167.167241 
L 154.848624 155.92538 
L 155.071936 161.079248 
L 155.295248 159.671248 
L 155.518559 163.421373 
L 155.741871 163.421373 
L 155.965183 167.167241 
L 156.188494 163.421373 
L 156.411806 167.167241 
L 156.635118 164.829373 
L 156.858429 161.079248 
L 157.305053 165.407241 
L 157.751676 157.911248 
L 157.974987 156.151248 
L 158.198299 159.901373 
L 158.421611 157.911248 
L 158.644922 159.671248 
L 158.868234 164.829373 
L 159.091546 162.839248 
L 159.314857 167.767248 
L 159.538169 166.359248 
L 159.761481 169.527248 
L 160.208104 164.02138 
L 160.431416 164.02138 
L 160.654727 159.09338 
L 160.878039 161.079248 
L 161.101351 157.107512 
L 161.324662 162.839248 
L 161.547974 155.347512 
L 161.771286 160.85338 
L 161.994597 159.09338 
L 162.217909 166.359248 
L 162.441221 160.85338 
L 162.664532 160.85338 
L 162.887844 157.107512 
L 163.111156 162.61338 
L 163.334467 162.61338 
L 163.557779 158.867512 
L 163.781091 158.867512 
L 164.004402 156.529644 
L 164.227714 158.867512 
L 164.897649 158.867512 
L 165.12096 170.109373 
L 165.344272 167.767248 
L 165.567584 167.767248 
L 165.790895 165.78138 
L 166.014207 165.78138 
L 166.237519 170.109373 
L 166.46083 164.599248 
L 166.684142 171.517373 
L 166.907454 166.359248 
L 167.130765 80.986733 
L 167.354077 88.478469 
L 167.577389 122.204053 
L 167.8007 115.890192 
L 168.024012 95.974462 
L 168.247324 103.466199 
L 168.470635 103.466199 
L 168.917259 99.720331 
L 169.14057 104.648331 
L 169.363882 106.408331 
L 169.587194 111.562199 
L 169.810505 108.394199 
L 170.033817 102.662462 
L 170.48044 98.916594 
L 170.927064 102.662462 
L 171.150375 106.408331 
L 171.373687 98.916594 
L 171.596998 97.156594 
L 171.82031 89.660601 
L 172.713557 72.912872 
L 173.16018 80.408865 
L 173.383492 78.648865 
L 173.830115 52.419274 
L 174.053427 52.419274 
L 174.276738 56.165142 
L 174.50005 45.501149 
L 174.723362 52.997142 
L 174.946673 51.011274 
L 175.169985 82.972601 
L 175.393297 82.972601 
L 175.616608 79.226733 
L 175.83992 96.200331 
L 176.063232 90.468594 
L 176.286543 94.214462 
L 176.733167 85.188594 
L 176.956478 88.934462 
L 177.17979 85.188594 
L 177.626413 88.934462 
L 177.849725 83.780594 
L 178.073037 88.934462 
L 178.296348 85.766462 
L 178.51966 91.272331 
L 178.742971 87.526462 
L 179.189595 100.176324 
L 179.412906 103.922192 
L 180.306153 88.708594 
L 180.529465 96.200331 
L 181.1994 79.452601 
L 181.422711 83.780594 
L 181.646023 85.188594 
L 182.092646 92.454462 
L 182.315958 86.948594 
L 182.53927 84.958469 
L 182.762581 90.468594 
L 182.985893 88.708594 
L 183.209205 94.214462 
L 183.432516 94.214462 
L 183.655828 101.128331 
L 183.87914 94.214462 
L 184.102451 101.706199 
L 184.325763 101.706199 
L 184.549075 95.974462 
L 184.995698 101.706199 
L 185.21901 94.214462 
L 185.442321 99.720331 
L 185.665633 92.228594 
L 185.888944 92.228594 
L 186.112256 90.468594 
L 186.558879 90.468594 
L 186.782191 88.708594 
L 187.005503 90.468594 
L 187.452126 82.972601 
L 187.675438 90.468594 
L 188.122061 86.718469 
L 188.791996 75.480865 
L 189.015308 73.720865 
L 189.238619 79.226733 
L 189.685243 71.73074 
L 189.908554 71.73074 
L 190.355178 79.226733 
L 190.578489 69.97074 
L 190.801801 71.73074 
L 191.025113 82.972601 
L 191.471736 79.226733 
L 191.695048 81.212601 
L 192.141671 71.960865 
L 192.364982 71.960865 
L 192.588294 77.466733 
L 192.811606 71.960865 
L 193.034917 77.466733 
L 193.258229 75.706733 
L 193.481541 75.706733 
L 193.928164 71.960865 
L 194.151476 75.480865 
L 194.598099 75.480865 
L 194.821411 81.212601 
L 195.044722 77.466733 
L 195.268034 79.226733 
L 195.491346 79.226733 
L 195.937969 75.480865 
L 196.161281 69.97074 
L 196.384592 75.480865 
L 196.607904 69.97074 
L 196.831216 67.984872 
L 197.277839 78.648865 
L 197.501151 84.154733 
L 197.724462 76.65874 
L 197.947774 76.65874 
L 198.171086 78.41874 
L 198.841021 73.49074 
L 199.064332 74.89874 
L 199.287644 74.89874 
L 199.510955 69.744872 
L 199.734267 71.152872 
L 199.957579 67.407003 
L 200.18089 72.912872 
L 200.404202 67.407003 
L 201.297449 84.154733 
L 201.52076 80.408865 
L 201.744072 84.154733 
L 201.967384 84.154733 
L 202.190695 82.168865 
L 202.414007 82.168865 
L 202.637319 80.408865 
L 202.86063 89.660601 
L 203.307254 89.660601 
L 203.530565 85.914733 
L 203.753877 85.914733 
L 204.2005 97.156594 
L 204.423812 95.166469 
L 204.647124 98.916594 
L 204.870435 98.916594 
L 205.093747 101.854469 
L 205.317059 94.588601 
L 205.54037 103.262469 
L 205.763682 103.262469 
L 205.986993 101.276601 
L 206.433617 108.542469 
L 206.88024 105.022469 
L 207.103552 106.782469 
L 207.326863 106.782469 
L 207.550175 110.302469 
L 207.773487 111.710469 
L 207.996798 120.966462 
L 208.666733 110.302469 
L 209.113357 101.050733 
L 209.55998 97.304865 
L 209.783292 90.03474 
L 210.006603 95.544865 
L 210.229915 86.063003 
L 210.453227 84.303003 
L 210.676538 90.03474 
L 210.89985 84.528872 
L 211.123162 84.528872 
L 211.346473 86.288872 
L 211.569785 84.528872 
L 211.793097 93.784865 
L 212.016408 97.304865 
L 212.23972 93.55474 
L 212.463032 95.544865 
L 212.686343 91.79474 
L 212.909655 90.03474 
L 213.132966 95.544865 
L 213.356278 93.784865 
L 213.57959 97.530733 
L 213.802901 93.55474 
L 214.249525 104.218733 
L 214.472836 96.72274 
L 214.696148 95.31474 
L 214.91946 100.472865 
L 215.142771 89.231003 
L 215.366083 92.976872 
L 215.589395 120.966462 
L 216.036018 116.990469 
L 216.25933 120.740594 
L 216.482641 120.740594 
L 216.705953 122.148594 
L 216.929265 122.148594 
L 217.152576 104.648331 
L 217.375888 100.902462 
L 217.822511 89.082733 
L 218.045823 90.842733 
L 218.269135 89.082733 
L 218.492446 98.334469 
L 218.715758 102.662462 
L 218.93907 113.904324 
L 219.162381 102.662462 
L 219.385693 85.336865 
L 219.609005 96.348601 
L 219.832316 98.108601 
L 220.055628 103.262469 
L 220.278939 114.504331 
L 220.725563 107.590462 
L 220.948874 109.350462 
L 221.172186 105.604594 
L 221.395498 83.34674 
L 221.618809 103.844594 
L 221.842121 98.108601 
L 222.065433 108.772594 
L 222.288744 107.012594 
L 222.512056 107.012594 
L 222.735368 110.758462 
L 222.958679 103.262469 
L 223.181991 102.084594 
L 223.405303 107.012594 
L 223.628614 109.350462 
L 223.851926 109.350462 
L 224.075238 105.604594 
L 224.298549 105.604594 
L 224.521861 110.758462 
L 224.745173 107.590462 
L 224.968484 109.350462 
L 225.191796 103.844594 
L 225.415108 107.590462 
L 225.638419 103.844594 
L 225.861731 109.350462 
L 226.085043 103.844594 
L 226.308354 105.830462 
L 226.531666 102.084594 
L 226.754977 105.830462 
L 226.978289 100.324594 
L 227.201601 102.084594 
L 227.424912 92.828601 
L 227.648224 89.082733 
L 227.871536 94.588601 
L 228.094847 83.928865 
L 228.318159 92.828601 
L 228.541471 89.082733 
L 228.988094 85.914733 
L 229.211406 85.914733 
L 229.434717 87.674733 
L 229.658029 87.674733 
L 229.881341 95.166469 
L 230.104652 85.914733 
L 230.774587 95.166469 
L 230.997899 95.166469 
L 231.221211 89.082733 
L 231.444522 92.828601 
L 231.667834 100.094469 
L 231.891146 94.588601 
L 232.114457 98.334469 
L 232.337769 96.574469 
L 232.561081 98.334469 
L 233.007704 98.334469 
L 233.454327 94.588601 
L 233.677639 100.094469 
L 233.90095 102.084594 
L 234.124262 105.604594 
L 234.570885 99.516601 
L 234.794197 105.022469 
L 235.017509 101.276601 
L 235.24082 99.516601 
L 235.464132 103.262469 
L 235.687444 99.516601 
L 235.910755 103.262469 
L 236.134067 103.262469 
L 236.357379 101.276601 
L 236.58069 101.276601 
L 236.804002 105.022469 
L 237.250625 95.770733 
L 237.473937 98.108601 
L 237.697249 94.362733 
L 237.92056 92.602733 
L 238.143872 92.602733 
L 238.590495 96.348601 
L 238.813807 94.362733 
L 239.037119 95.770733 
L 239.26043 95.770733 
L 239.483742 98.108601 
L 239.707054 95.770733 
L 239.930365 99.516601 
L 240.153677 101.276601 
L 240.376988 97.530733 
L 240.823612 97.530733 
L 241.046923 102.810733 
L 241.270235 102.00274 
L 241.493547 103.992865 
L 241.716858 109.498733 
L 241.94017 103.992865 
L 242.163482 104.218733 
L 242.386793 104.218733 
L 242.610105 102.810733 
L 242.833417 97.304865 
L 243.056728 97.304865 
L 243.503352 100.24274 
L 243.726663 105.752865 
L 243.949975 103.992865 
L 244.173287 107.738733 
L 244.396598 103.992865 
L 244.61991 104.218733 
L 244.843222 104.218733 
L 245.066533 100.472865 
L 245.513157 100.472865 
L 245.736468 104.218733 
L 245.95978 102.810733 
L 246.183092 105.978733 
L 246.406403 102.232865 
L 246.853027 102.232865 
L 247.29965 95.544865 
L 247.522961 99.290733 
L 247.746273 93.784865 
L 247.969585 92.024865 
L 248.192896 85.10674 
L 248.416208 90.616865 
L 248.63952 90.616865 
L 249.086143 99.516601 
L 249.309455 92.024865 
L 249.532766 92.024865 
L 249.756078 95.770733 
L 249.97939 94.362733 
L 250.426013 86.86674 
L 250.649325 88.27474 
L 250.872636 88.27474 
L 251.095948 86.288872 
L 251.31926 86.288872 
L 251.542571 84.528872 
L 251.765883 86.288872 
L 251.989195 86.288872 
L 252.212506 82.543003 
L 252.882441 82.543003 
L 253.329065 71.301142 
L 253.552376 73.28701 
L 253.775688 68.133142 
L 253.998999 65.795274 
L 254.445623 65.795274 
L 254.892246 71.87901 
L 255.115558 73.28701 
L 255.562181 73.28701 
L 256.008804 69.541142 
L 256.232116 71.301142 
L 256.455428 69.541142 
L 256.678739 71.87901 
L 256.902051 77.032879 
L 257.125363 77.032879 
L 257.348674 73.28701 
L 257.571986 79.375003 
L 257.795298 70.11901 
L 258.018609 72.104879 
L 258.465233 72.104879 
L 258.688544 66.59901 
L 258.911856 68.35901 
L 259.135168 66.59901 
L 259.581791 59.107274 
L 260.028414 68.35901 
L 260.251726 70.11901 
L 260.475038 68.35901 
L 260.698349 70.11901 
L 260.921661 73.864879 
L 261.144972 75.624879 
L 261.368284 83.120872 
L 261.591596 79.375003 
L 261.814907 86.288872 
L 262.038219 88.27474 
L 262.484842 79.375003 
L 262.708154 84.528872 
L 262.931466 82.543003 
L 263.154777 90.03474 
L 263.378089 93.55474 
L 264.271336 78.792879 
L 264.494647 84.303003 
L 264.717959 86.288872 
L 264.941271 84.303003 
L 265.164582 91.79474 
L 265.387894 90.03474 
L 265.611206 93.784865 
L 265.834517 82.543003 
L 266.057829 90.03474 
L 266.281141 84.528872 
L 266.504452 84.528872 
L 266.727764 78.792879 
L 266.951076 70.11901 
L 267.174387 323.959321 
L 267.397699 346.817182 
L 267.621011 345.783321 
L 267.844322 333.215314 
L 268.067634 313.525452 
L 268.290945 331.455314 
L 268.514257 322.199321 
L 268.737569 327.935314 
L 268.96088 315.511321 
L 269.184192 319.261445 
L 269.407504 319.261445 
L 269.630815 324.189445 
L 270.077439 310.961716 
L 270.30075 293.983862 
L 270.524062 303.239855 
L 270.747374 302.661987 
L 271.193997 292.223862 
L 271.64062 312.721716 
L 271.863932 301.705723 
L 272.087244 310.961716 
L 272.310555 301.705723 
L 272.533867 303.465723 
L 272.757179 303.239855 
L 272.98049 301.479855 
L 273.203802 303.239855 
L 273.650425 290.237993 
L 273.873737 258.276666 
L 274.097049 267.176403 
L 274.32036 259.684666 
L 274.543672 258.276666 
L 274.766983 266.950535 
L 274.990295 268.710535 
L 275.213607 272.456403 
L 275.436918 270.470535 
L 275.66023 266.724666 
L 275.883542 264.964666 
L 276.106853 266.724666 
L 276.330165 261.214542 
L 277.223412 283.846535 
L 277.446723 276.350542 
L 277.670035 278.340666 
L 277.893347 285.028666 
L 278.116658 297.448403 
L 278.33997 298.404666 
L 278.563282 300.968403 
L 278.786593 297.448403 
L 279.009905 288.774535 
L 279.233217 294.280403 
L 279.67984 277.758542 
L 279.903152 279.518542 
L 280.126463 274.012673 
L 280.349775 273.786805 
L 280.796398 266.520937 
L 281.01971 270.040937 
L 281.243022 268.280937 
L 282.136268 254.096944 
L 282.35958 254.096944 
L 282.582891 259.602812 
L 282.806203 259.602812 
L 283.029515 255.856944 
L 283.252826 265.338805 
L 283.476138 265.338805 
L 283.69945 261.592937 
L 283.922761 265.338805 
L 284.592696 256.082812 
L 284.816008 258.424937 
L 285.03932 258.424937 
L 285.262631 262.170805 
L 285.485943 258.424937 
L 285.709255 256.664937 
L 285.932566 252.914812 
L 286.155878 251.154812 
L 286.37919 247.408944 
L 286.602501 247.408944 
L 286.825813 243.663076 
L 287.049125 251.154812 
L 287.272436 247.408944 
L 287.495748 247.408944 
L 287.71906 251.154812 
L 287.942371 249.168944 
L 288.165683 245.648944 
L 288.388994 245.648944 
L 288.612306 240.720944 
L 288.835618 242.480944 
L 289.058929 240.495076 
L 289.282241 231.239083 
L 289.505553 231.239083 
L 289.728864 232.999083 
L 289.952176 223.973214 
L 290.398799 233.455076 
L 290.622111 229.479083 
L 290.845423 231.239083 
L 291.068734 218.241478 
L 291.515358 231.469208 
L 291.738669 231.469208 
L 292.185293 238.960944 
L 292.408604 238.960944 
L 292.631916 240.946812 
L 292.855228 237.200944 
L 293.078539 236.975076 
L 293.301851 240.946812 
L 293.525163 242.706812 
L 293.748474 240.720944 
L 293.971786 240.720944 
L 294.195098 233.229208 
L 294.418409 238.735076 
L 294.641721 240.495076 
L 295.088344 234.989208 
L 295.311656 236.749208 
L 295.534967 231.239083 
L 295.758279 229.253214 
L 295.981591 231.239083 
L 296.204902 221.987346 
L 296.651526 229.479083 
L 297.321461 205.817485 
L 297.544772 218.011353 
L 297.768084 218.241478 
L 297.991396 216.251353 
L 298.214707 218.241478 
L 298.438019 216.251353 
L 298.661331 216.251353 
L 298.884642 212.505485 
L 299.107954 212.505485 
L 299.331266 214.265485 
L 299.777889 210.519617 
L 300.001201 201.263624 
L 300.224512 206.773749 
L 300.447824 199.277756 
L 300.671136 206.773749 
L 300.894447 197.517756 
L 301.341071 197.517756 
L 301.564382 199.503624 
L 301.787694 197.517756 
L 302.011006 193.997756 
L 302.234317 188.491887 
L 302.68094 184.741763 
L 302.904252 188.491887 
L 303.127564 188.491887 
L 303.350875 180.995894 
L 303.574187 179.587894 
L 303.797499 175.842026 
L 304.02081 164.826033 
L 304.244122 178.053763 
L 304.467434 178.053763 
L 304.690745 176.067894 
L 304.914057 181.573763 
L 305.137369 183.563887 
L 305.36068 178.053763 
L 305.583992 181.803887 
L 305.807304 194.805749 
L 306.030615 196.565749 
L 306.253927 189.295624 
L 306.477239 192.815624 
L 306.70055 189.069756 
L 307.147174 189.069756 
L 307.370485 187.309756 
L 307.593797 187.309756 
L 308.04042 184.141756 
L 308.263732 184.141756 
L 308.487044 189.877749 
L 308.710355 187.887624 
L 308.933667 182.381756 
L 309.156978 184.141756 
L 309.38029 181.199624 
L 309.603602 173.933756 
L 310.050225 168.197763 
L 310.72016 168.197763 
L 310.943472 164.451894 
L 311.166783 168.197763 
L 311.613407 157.763894 
L 311.836718 162.691894 
L 312.06003 164.451894 
L 312.283342 171.947887 
L 312.506653 171.947887 
L 312.729965 175.693756 
L 313.176588 166.437763 
L 313.3999 164.451894 
L 313.623212 169.957763 
L 313.846523 164.451894 
L 314.069835 166.437763 
L 314.293147 158.946026 
L 314.516458 162.691894 
L 314.73977 162.691894 
L 314.963082 157.186026 
L 315.186393 157.186026 
L 315.409705 155.778026 
L 315.633017 155.778026 
L 315.856328 168.427887 
L 316.07964 166.437763 
L 316.302951 160.931894 
L 316.749575 164.451894 
L 316.972886 162.691894 
L 317.196198 164.451894 
L 317.41951 168.197763 
L 317.642821 137.792706 
L 317.866133 141.312706 
L 318.312756 128.084977 
L 318.536068 128.084977 
L 318.75938 126.324977 
L 318.982691 133.82097 
L 319.429315 118.251115 
L 319.652626 140.50897 
L 319.875938 140.50897 
L 320.09925 133.012977 
L 320.322561 138.74897 
L 320.545873 133.012977 
L 320.992496 142.26897 
L 321.215808 140.50897 
L 321.43912 162.988435 
L 321.662431 155.496699 
L 321.885743 157.482567 
L 322.109055 149.986574 
L 322.332366 151.746574 
L 322.778989 148.000706 
L 323.002301 144.254838 
L 323.225613 149.760706 
L 323.448924 144.254838 
L 324.118859 155.496699 
L 324.342171 155.496699 
L 324.565483 148.000706 
L 324.788794 149.986574 
L 325.235418 146.818574 
L 325.458729 150.568699 
L 325.905353 139.326838 
L 326.128664 136.98897 
L 326.351976 140.734838 
L 326.575288 136.98897 
L 326.798599 135.58097 
L 327.468534 124.339108 
L 327.691846 129.492977 
L 327.915158 124.339108 
L 328.138469 125.747108 
L 328.361781 128.084977 
L 328.585093 126.324977 
L 328.808404 122.579108 
L 329.031716 130.070845 
L 329.255028 124.564977 
L 329.478339 132.06097 
L 329.701651 126.324977 
L 329.924962 133.82097 
L 330.148274 128.310845 
L 330.371586 128.310845 
L 330.594897 124.564977 
L 330.818209 122.804977 
L 331.041521 122.804977 
L 331.264832 115.308984 
L 331.488144 119.059108 
L 331.711456 119.059108 
L 332.158079 115.083115 
L 332.381391 117.068984 
L 332.604702 124.564977 
L 332.828014 119.059108 
L 333.051326 122.804977 
L 333.274637 122.804977 
L 333.497949 120.819108 
L 333.721261 120.819108 
L 333.944572 113.323115 
L 334.167884 113.323115 
L 334.391196 115.308984 
L 334.614507 120.819108 
L 334.837819 118.828984 
L 335.061131 118.828984 
L 335.507754 109.577247 
L 335.731066 100.095386 
L 335.954377 83.347656 
L 336.177689 94.589518 
L 336.401001 94.589518 
L 336.624312 87.093525 
L 336.847624 90.84365 
L 337.070935 90.84365 
L 337.294247 89.08365 
L 337.517559 90.84365 
L 337.74087 87.093525 
L 337.964182 98.109518 
L 338.187494 94.36365 
L 338.634117 90.613525 
L 338.857429 92.021525 
L 339.08074 86.289788 
L 339.304052 86.289788 
L 339.527364 84.30392 
L 339.750675 86.289788 
L 339.973987 82.54392 
L 340.197299 86.289788 
L 340.42061 82.54392 
L 340.643922 75.047927 
L 340.867234 78.793795 
L 341.090545 75.047927 
L 341.313857 78.793795 
L 341.537169 77.033795 
L 341.983792 71.302059 
L 342.207104 73.287927 
L 342.653727 73.287927 
L 342.877039 75.047927 
L 343.10035 71.879927 
L 343.323662 71.879927 
L 343.546973 68.359927 
L 343.770285 70.119927 
L 344.216908 62.628191 
L 344.44022 62.628191 
L 344.663532 68.134059 
L 344.886843 69.542059 
L 345.110155 69.542059 
L 345.333467 68.134059 
L 345.556778 69.542059 
L 346.003402 66.374059 
L 346.226713 66.374059 
L 346.450025 70.119927 
L 346.673337 71.879927 
L 346.896648 75.625795 
L 347.11996 68.134059 
L 347.343272 66.374059 
L 347.566583 65.796191 
L 347.789895 77.033795 
L 348.013207 75.047927 
L 348.236518 77.033795 
L 348.45983 73.287927 
L 348.683142 71.879927 
L 348.906453 84.529788 
L 349.576388 84.529788 
L 349.7997 80.78392 
L 350.246323 77.61592 
L 350.469635 79.37592 
L 350.692946 77.61592 
L 350.916258 73.287927 
L 351.13957 84.529788 
L 351.362881 79.37592 
L 351.586193 81.361788 
L 351.809505 79.37592 
L 352.032816 83.121788 
L 352.256128 83.121788 
L 352.702751 74.09592 
L 352.926063 73.865795 
L 353.149375 75.85592 
L 353.372686 79.601788 
L 353.595998 77.61592 
L 354.042621 77.61592 
L 354.265933 75.85592 
L 354.489245 71.879927 
L 354.712556 70.119927 
L 354.935868 75.625795 
L 355.15918 75.625795 
L 355.382491 77.61592 
L 355.829115 92.60365 
L 356.052426 81.361788 
L 356.275738 81.361788 
L 356.49905 83.121788 
L 356.722361 79.601788 
L 356.945673 79.827656 
L 357.615608 89.661518 
L 357.838919 91.069518 
L 358.062231 94.815386 
L 358.285543 94.815386 
L 358.508854 99.143379 
L 358.732166 97.961247 
L 358.955478 85.185254 
L 359.178789 90.695379 
L 359.402101 85.767379 
L 359.625413 91.273247 
L 359.848724 88.935379 
L 360.072036 92.455379 
L 360.295348 92.455379 
L 360.518659 88.935379 
L 360.741971 88.935379 
L 360.965283 92.455379 
L 361.188594 88.935379 
L 361.411906 91.273247 
L 361.635218 87.527379 
L 361.858529 87.527379 
L 362.081841 87.753247 
L 362.305153 91.273247 
L 362.751776 85.185254 
L 362.975088 90.695379 
L 363.198399 82.017254 
L 363.421711 85.767379 
L 363.645023 82.247379 
L 363.868334 82.247379 
L 364.091646 87.527379 
L 364.314957 84.007379 
L 364.538269 93.259115 
L 364.984892 87.527379 
L 365.208204 92.681247 
L 365.431516 92.681247 
L 365.654827 88.935379 
L 366.101451 92.681247 
L 366.324762 88.935379 
L 366.548074 90.695379 
L 366.994697 90.695379 
L 367.218009 92.455379 
L 367.441321 88.935379 
L 367.664632 90.695379 
L 367.887944 135.58097 
L 368.111256 120.588984 
L 368.334567 124.339108 
L 368.557879 125.747108 
L 368.781191 144.480706 
L 369.004502 144.480706 
L 369.451126 151.976699 
L 369.674437 148.000706 
L 369.897749 146.240706 
L 370.121061 146.240706 
L 370.344372 144.480706 
L 370.567684 146.240706 
L 371.014307 127.507108 
L 371.237619 131.252977 
L 371.684242 120.588984 
L 371.907554 120.588984 
L 372.130865 118.828984 
L 372.354177 109.577247 
L 372.577489 107.591379 
L 372.8008 103.841254 
L 373.024112 105.601254 
L 373.247424 116.843115 
L 373.470735 120.588984 
L 373.694047 109.351379 
L 373.917359 116.843115 
L 374.363982 116.843115 
L 374.810605 122.579108 
L 375.033917 124.564977 
L 375.257229 122.804977 
L 375.48054 122.804977 
L 375.703852 134.046838 
L 375.927164 130.30097 
L 376.150475 130.070845 
L 376.373787 128.310845 
L 376.597099 128.310845 
L 376.82041 130.30097 
L 377.043722 124.564977 
L 377.267034 128.310845 
L 377.490345 134.046838 
L 377.713657 132.06097 
L 378.16028 122.804977 
L 378.383592 126.550845 
L 378.606903 121.044977 
L 378.830215 119.059108 
L 379.053527 122.804977 
L 379.276838 119.059108 
L 379.50015 117.299108 
L 379.723462 124.790845 
L 380.170085 124.790845 
L 380.393397 122.804977 
L 380.616708 126.550845 
L 380.84002 126.550845 
L 381.063332 128.310845 
L 381.286643 126.550845 
L 381.509955 119.059108 
L 381.733267 124.790845 
L 381.956578 127.13297 
L 382.17989 124.790845 
L 382.403202 124.790845 
L 382.626513 128.54097 
L 382.849825 123.382845 
L 383.073137 121.622845 
L 383.296448 123.382845 
L 383.51976 127.13297 
L 383.743072 119.636977 
L 383.966383 119.636977 
L 384.189695 121.044977 
L 384.413007 119.059108 
L 384.636318 122.804977 
L 384.85963 130.30097 
L 385.082941 122.804977 
L 385.306253 126.550845 
L 385.529565 117.299108 
L 385.752876 113.548984 
L 385.976188 117.068984 
L 386.1995 113.548984 
L 386.646123 113.548984 
L 386.869435 119.059108 
L 387.092746 113.323115 
L 387.53937 120.819108 
L 387.762681 117.068984 
L 387.985993 118.828984 
L 388.209305 117.068984 
L 388.655928 126.324977 
L 389.102551 126.324977 
L 389.325863 120.819108 
L 389.549175 118.828984 
L 389.772486 124.339108 
L 390.21911 120.819108 
L 390.442421 122.579108 
L 390.665733 117.068984 
L 390.889045 122.579108 
L 391.112356 122.579108 
L 391.335668 118.828984 
L 391.558979 118.828984 
L 392.005603 126.324977 
L 392.228914 126.324977 
L 392.452226 124.564977 
L 392.675538 124.564977 
L 392.898849 119.059108 
L 393.122161 124.564977 
L 393.345473 115.308984 
L 393.792096 124.564977 
L 394.015408 122.804977 
L 394.238719 122.804977 
L 394.462031 119.059108 
L 394.685343 119.059108 
L 394.908654 122.804977 
L 395.131966 122.804977 
L 395.355278 126.550845 
L 395.578589 122.804977 
L 395.801901 121.044977 
L 396.025213 122.804977 
L 396.248524 119.059108 
L 396.471836 122.804977 
L 396.695148 119.059108 
L 396.918459 126.550845 
L 397.141771 128.310845 
L 397.365083 124.564977 
L 397.588394 122.804977 
L 397.811706 124.564977 
L 398.035018 120.588984 
L 398.704952 120.588984 
L 398.928264 118.828984 
L 399.151576 128.084977 
L 399.374887 124.339108 
L 399.598199 124.339108 
L 399.821511 125.747108 
L 400.044822 125.747108 
L 400.268134 121.996984 
L 400.491446 125.747108 
L 400.714757 125.747108 
L 400.938069 116.265247 
L 401.161381 118.251115 
L 401.384692 123.756984 
L 401.608004 133.012977 
L 401.831316 136.758845 
L 402.054627 134.998845 
L 402.277939 134.998845 
L 402.501251 138.74897 
L 402.724562 133.012977 
L 402.947874 140.50897 
L 403.171186 133.012977 
L 403.394497 129.267108 
L 403.617809 129.267108 
L 403.841121 125.516984 
L 404.064432 125.516984 
L 404.287744 123.756984 
L 404.511056 123.756984 
L 404.734367 118.025247 
L 404.957679 105.023386 
L 405.18099 105.023386 
L 405.404302 97.53165 
L 405.627614 108.769254 
L 406.52086 92.021525 
L 406.744172 86.289788 
L 406.967484 90.035656 
L 407.190795 84.529788 
L 407.637419 97.301525 
L 407.86073 89.809788 
L 408.084042 94.963656 
L 408.307354 97.301525 
L 408.530665 91.795656 
L 408.753977 94.963656 
L 408.977289 101.05165 
L 409.2006 99.29165 
L 409.423912 95.541525 
L 409.647224 99.29165 
L 409.870535 95.541525 
L 410.093847 95.541525 
L 410.317159 99.29165 
L 410.54047 97.301525 
L 410.763782 99.29165 
L 410.987094 98.709525 
L 411.433717 88.049788 
L 411.657029 91.795656 
L 411.88034 84.30392 
L 412.103652 86.289788 
L 412.550275 75.047927 
L 412.996898 88.049788 
L 413.22021 88.049788 
L 413.666833 93.781525 
L 413.890145 92.021525 
L 414.113457 95.77165 
L 414.336768 90.035656 
L 414.56008 90.035656 
L 414.783392 84.529788 
L 415.006703 94.36365 
L 415.230015 88.275656 
L 415.453327 88.275656 
L 415.676638 93.781525 
L 415.89995 88.275656 
L 416.123262 88.275656 
L 416.346573 84.529788 
L 416.569885 90.035656 
L 416.793197 80.78392 
L 417.016508 82.54392 
L 417.23982 73.287927 
L 417.463132 77.033795 
L 417.686443 68.134059 
L 417.909755 71.879927 
L 418.133067 110.529254 
L 418.356378 112.289254 
L 418.57969 101.05165 
L 418.803002 119.207379 
L 419.026313 121.193247 
L 419.249625 124.939115 
L 419.472936 111.711386 
L 419.696248 120.967379 
L 419.91956 117.217254 
L 420.142871 119.207379 
L 420.366183 128.459115 
L 420.589495 128.459115 
L 421.25943 112.289254 
L 421.482741 113.697254 
L 421.706053 117.447379 
L 422.152676 103.263386 
L 422.375988 95.77165 
L 422.5993 95.77165 
L 422.822611 97.53165 
L 423.045923 87.093525 
L 423.269235 94.815386 
L 423.492546 98.561254 
L 423.715858 92.829518 
L 423.93917 104.071379 
L 424.162481 100.095386 
L 424.609105 105.831379 
L 424.832416 113.323115 
L 425.055728 107.591379 
L 425.27904 105.831379 
L 425.502351 102.081254 
L 425.725663 102.081254 
L 426.172286 111.337247 
L 426.618909 102.081254 
L 426.842221 107.817247 
L 427.288844 104.071379 
L 427.512156 98.561254 
L 427.735468 104.071379 
L 427.958779 102.311379 
L 428.182091 104.649247 
L 428.405403 108.395115 
L 428.628714 117.876977 
L 428.852026 117.876977 
L 429.075338 121.044977 
L 429.298649 130.878838 
L 429.521961 125.37297 
L 429.745273 123.382845 
L 429.968584 124.790845 
L 430.191896 127.13297 
L 430.415208 121.622845 
L 430.638519 121.622845 
L 430.861831 123.61297 
L 431.308454 119.862845 
L 431.531766 110.611108 
L 431.755078 110.611108 
L 431.978389 108.620984 
L 432.201701 110.611108 
L 432.648324 119.862845 
L 432.871636 134.850574 
L 433.094947 138.600699 
L 433.318259 134.850574 
L 433.541571 138.600699 
L 433.764882 146.092435 
L 433.988194 142.346567 
L 434.211506 146.092435 
L 434.434817 144.910304 
L 434.658129 144.910304 
L 434.881441 154.970033 
L 435.104752 154.392165 
L 435.328064 152.632165 
L 435.774687 145.718297 
L 435.997999 154.970033 
L 436.221311 147.478297 
L 436.444622 147.478297 
L 436.667934 143.732429 
L 436.891246 152.632165 
L 437.114557 152.632165 
L 437.337869 154.392165 
L 437.561181 165.634026 
L 437.784492 160.128158 
L 438.231116 168.197763 
L 438.454427 166.437763 
L 438.677739 167.619894 
L 438.901051 166.211894 
L 439.124362 166.211894 
L 439.347674 158.720158 
L 439.570985 161.888158 
L 439.794297 151.224165 
L 440.24092 143.732429 
L 440.464232 148.886297 
L 440.687544 139.404435 
L 440.910855 137.644435 
L 441.134167 148.886297 
L 441.357479 143.732429 
L 441.58079 141.972429 
L 441.804102 147.478297 
L 442.250725 136.462304 
L 442.474037 137.044429 
L 442.92066 133.294304 
L 443.143972 142.198297 
L 443.367284 142.198297 
L 443.590595 135.284429 
L 443.813907 144.536165 
L 444.037219 142.198297 
L 444.26053 142.776165 
L 444.707154 126.254304 
L 444.930465 125.076429 
L 445.153777 118.158304 
L 445.377089 118.158304 
L 445.6004 123.316429 
L 445.823712 119.566304 
L 446.047024 123.316429 
L 446.270335 121.326304 
L 446.493647 121.326304 
L 446.716958 123.086304 
L 446.94027 123.086304 
L 447.386893 139.834033 
L 447.610205 134.328165 
L 448.056828 139.834033 
L 448.28014 136.088165 
L 448.503452 134.328165 
L 448.726763 123.086304 
L 448.950075 128.596429 
L 449.62001 133.524429 
L 450.066633 139.256165 
L 450.513257 130.004429 
L 450.736568 128.596429 
L 450.95988 135.510297 
L 451.183192 135.510297 
L 451.406503 131.764429 
L 451.629815 118.762567 
L 451.853127 113.026574 
L 452.076438 115.016699 
L 452.29975 102.366838 
L 452.746373 98.846838 
L 452.969685 100.606838 
L 453.192996 98.846838 
L 453.416308 100.606838 
L 453.63962 104.352706 
L 453.862931 100.606838 
L 454.086243 102.592706 
L 454.309555 102.592706 
L 454.532866 98.846838 
L 454.97949 106.112706 
L 455.202801 102.366838 
L 455.426113 103.774838 
L 455.649425 109.280706 
L 455.872736 107.520706 
L 456.096048 102.366838 
L 456.542671 102.366838 
L 456.765983 96.86097 
L 456.989295 96.86097 
L 457.212606 98.62097 
L 457.435918 96.278845 
L 457.65923 98.62097 
L 457.882541 94.870845 
L 458.105853 94.870845 
L 458.329165 100.02897 
L 458.552476 94.870845 
L 459.222411 94.870845 
L 459.445723 93.110845 
L 459.669035 100.606838 
L 459.892346 102.366838 
L 460.338969 102.366838 
L 460.562281 113.608699 
L 460.785593 111.266574 
L 461.008904 107.520706 
L 461.232216 109.858574 
L 461.455528 106.112706 
L 461.678839 105.534838 
L 461.902151 99.798845 
L 462.125463 101.78897 
L 462.348774 98.038845 
L 462.572086 101.78897 
L 462.795398 98.038845 
L 463.018709 98.038845 
L 463.242021 94.292977 
L 463.911956 94.292977 
L 464.135268 99.798845 
L 464.358579 99.798845 
L 464.581891 98.038845 
L 464.805203 103.318845 
L 465.028514 99.572977 
L 465.251826 101.558845 
L 465.475138 97.235108 
L 465.698449 95.827108 
L 465.921761 100.755108 
L 466.145073 97.004984 
L 466.368384 97.004984 
L 466.591696 95.244984 
L 466.815008 97.235108 
L 467.038319 92.076984 
L 467.261631 89.739115 
L 467.484942 91.499115 
L 467.708254 89.739115 
L 467.931566 92.076984 
L 468.154877 90.316984 
L 468.378189 79.453518 
L 468.601501 77.46765 
L 468.824812 83.199386 
L 469.048124 75.70765 
L 469.271436 58.95992 
L 469.494747 58.95992 
L 469.718059 80.031386 
L 469.941371 76.285518 
L 470.164682 82.017254 
L 470.387994 91.273247 
L 471.057929 78.271386 
L 471.281241 82.017254 
L 471.504552 82.017254 
L 471.727864 87.753247 
L 471.951176 84.007379 
L 472.174487 95.244984 
L 472.397799 128.970567 
L 472.621111 126.984699 
L 472.844422 113.982838 
L 473.067734 121.248706 
L 473.291046 123.234574 
L 473.514357 117.502838 
L 473.737669 121.248706 
L 473.96098 119.488706 
L 474.184292 121.248706 
L 474.630915 113.75697 
L 475.077539 110.006845 
L 475.30085 109.428977 
L 475.524162 107.668977 
L 475.747474 115.16497 
L 475.970785 110.006845 
L 476.194097 107.668977 
L 476.64072 128.162574 
L 476.864032 128.162574 
L 477.087344 124.416706 
L 477.310655 126.176706 
L 477.533967 124.416706 
L 477.757279 115.16497 
L 477.98059 115.16497 
L 478.203902 120.670838 
L 478.427214 118.910838 
L 478.650525 118.910838 
L 479.097149 113.174845 
L 479.32046 116.92497 
L 479.767084 116.92497 
L 480.213707 124.190838 
L 480.437019 120.44497 
L 480.66033 120.44497 
L 480.883642 122.430838 
L 481.330265 114.934845 
L 481.553577 116.92497 
L 481.776888 120.44497 
L 482.0002 120.44497 
L 482.223512 118.68497 
L 482.446823 118.68497 
L 482.670135 124.190838 
L 482.893447 120.44497 
L 483.116758 120.44497 
L 483.34007 118.102845 
L 483.563382 118.68497 
L 483.786693 118.68497 
L 484.010005 109.428977 
L 484.233317 105.683108 
L 484.456628 94.441247 
L 484.67994 96.201247 
L 484.903252 96.201247 
L 485.126563 103.692984 
L 485.349875 101.932984 
L 485.573187 98.187115 
L 485.796498 96.427115 
L 486.01981 111.414845 
L 486.466433 111.414845 
L 486.913057 124.416706 
L 487.35968 143.150304 
L 487.582991 137.644435 
L 487.806303 135.658567 
L 488.029615 135.658567 
L 488.252926 131.912699 
L 488.476238 131.912699 
L 488.69955 126.176706 
L 488.922861 131.682574 
L 489.146173 131.682574 
L 489.369485 133.090574 
L 489.592796 136.840699 
L 489.816108 133.090574 
L 490.03942 146.092435 
L 490.262731 135.432699 
L 490.486043 136.840699 
L 490.709355 142.346567 
L 491.155978 127.358838 
L 491.37929 131.104706 
L 491.602601 129.344706 
L 492.049225 129.344706 
L 492.495848 142.120699 
L 492.71916 142.346567 
L 492.942471 136.610574 
L 493.165783 138.600699 
L 493.389095 144.106567 
L 493.612406 155.348429 
L 493.835718 147.852435 
L 494.05903 149.612435 
L 494.282341 149.612435 
L 494.505653 147.852435 
L 494.728964 147.274567 
L 494.952276 154.540435 
L 495.175588 147.274567 
L 495.845523 175.264158 
L 496.292146 166.008165 
L 496.515458 154.766304 
L 496.738769 158.516429 
L 496.962081 158.516429 
L 497.408704 143.528699 
L 497.632016 147.048699 
L 497.855328 143.298574 
L 498.078639 143.298574 
L 498.301951 145.058574 
L 498.525263 154.314567 
L 498.748574 156.300435 
L 498.971886 150.794567 
L 499.195198 148.808699 
L 499.418509 143.298574 
L 499.641821 141.538574 
L 499.865133 137.792706 
L 500.088444 141.538574 
L 500.535068 141.538574 
L 500.758379 143.528699 
L 501.205003 134.624706 
L 501.428314 138.370574 
L 501.651626 128.54097 
L 502.098249 137.792706 
L 502.321561 134.046838 
L 502.544872 136.032706 
L 502.768184 130.30097 
L 502.991496 128.54097 
L 503.214807 115.891108 
L 503.438119 117.299108 
L 503.661431 113.548984 
L 503.884742 117.299108 
L 504.108054 109.803115 
L 504.331366 113.548984 
L 504.554677 108.395115 
L 504.777989 108.395115 
L 505.001301 106.057247 
L 505.224612 109.803115 
L 505.447924 106.057247 
L 505.671236 111.563115 
L 505.894547 109.803115 
L 506.117859 115.308984 
L 506.564482 111.563115 
L 506.787794 120.819108 
L 507.234417 120.819108 
L 507.457729 115.308984 
L 507.904352 120.819108 
L 508.127664 113.323115 
L 508.350975 115.083115 
L 508.574287 121.996984 
L 508.797599 115.083115 
L 509.02091 122.579108 
L 509.244222 118.828984 
L 509.467534 122.579108 
L 509.690845 117.068984 
L 509.914157 117.068984 
L 510.137469 111.337247 
L 510.36078 113.323115 
L 510.584092 109.577247 
L 510.807404 113.323115 
L 511.030715 107.817247 
L 511.254027 107.817247 
L 511.477339 106.057247 
L 511.923962 94.589518 
L 512.147274 94.589518 
L 512.370585 104.071379 
L 512.593897 100.321254 
L 512.817209 98.561254 
L 513.04052 94.815386 
L 513.263832 96.575386 
L 513.487144 97.153254 
L 513.710455 100.321254 
L 513.933767 107.817247 
L 514.157079 102.311379 
L 514.38039 107.817247 
L 514.603702 106.057247 
L 514.827014 100.903379 
L 515.050325 102.889247 
L 515.273637 99.143379 
L 515.72026 82.165525 
L 515.943572 85.91565 
L 516.166883 84.15565 
L 516.613507 87.32365 
L 516.836818 79.827656 
L 517.06013 78.419656 
L 517.283442 85.91565 
L 517.506753 89.661518 
L 517.730065 106.057247 
L 518.176688 119.059108 
L 518.4 100.321254 
L 518.4 100.321254 
" style="fill:none;stroke:#4c72b0;stroke-linecap:round;stroke-width:1.75;"/>
   </g>
   <g id="patch_3">
    <path d="M 72 356.4 
L 518.4 356.4 
" style="fill:none;"/>
   </g>
   <g id="patch_4">
    <path d="M 72 39.6 
L 518.4 39.6 
" style="fill:none;"/>
   </g>
   <g id="patch_5">
    <path d="M 72 356.4 
L 72 39.6 
" style="fill:none;"/>
   </g>
   <g id="patch_6">
    <path d="M 518.4 356.4 
L 518.4 39.6 
" style="fill:none;"/>
   </g>
   <g id="text_16">
    <!-- au - -0.0120928079589335 * l -->
    <defs>
     <path d="M 9.125 0 
L 9.125 10.6875 
L 18.65625 10.6875 
L 18.65625 0 
z
" id="LiberationSans-2e"/>
     <path d="M 6.734375 0 
L 6.734375 72.46875 
L 15.53125 72.46875 
L 15.53125 0 
z
" id="LiberationSans-6c"/>
     <path d="M 15.328125 52.828125 
L 15.328125 19.34375 
Q 15.328125 15.484375 15.890625 12.890625 
Q 16.453125 10.296875 17.71875 8.703125 
Q 19 7.125 21.0625 6.46875 
Q 23.140625 5.8125 26.21875 5.8125 
Q 29.34375 5.8125 31.859375 6.90625 
Q 34.375 8.015625 36.15625 10.078125 
Q 37.9375 12.15625 38.90625 15.203125 
Q 39.890625 18.265625 39.890625 22.21875 
L 39.890625 52.828125 
L 48.6875 52.828125 
L 48.6875 11.28125 
Q 48.6875 9.625 48.703125 7.78125 
Q 48.734375 5.953125 48.78125 4.3125 
Q 48.828125 2.6875 48.875 1.515625 
Q 48.921875 0.34375 48.96875 0 
L 40.671875 0 
Q 40.625 0.25 40.578125 1.3125 
Q 40.53125 2.390625 40.453125 3.78125 
Q 40.375 5.171875 40.328125 6.609375 
Q 40.28125 8.0625 40.28125 9.03125 
L 40.140625 9.03125 
Q 38.875 6.734375 37.359375 4.875 
Q 35.84375 3.03125 33.84375 1.734375 
Q 31.84375 0.4375 29.25 -0.265625 
Q 26.65625 -0.984375 23.25 -0.984375 
Q 18.84375 -0.984375 15.671875 0.09375 
Q 12.5 1.171875 10.453125 3.421875 
Q 8.40625 5.671875 7.453125 9.1875 
Q 6.5 12.703125 6.5 17.625 
L 6.5 52.828125 
z
" id="LiberationSans-75"/>
     <path d="M 20.21875 -0.984375 
Q 12.25 -0.984375 8.25 3.21875 
Q 4.25 7.421875 4.25 14.75 
Q 4.25 19.96875 6.21875 23.3125 
Q 8.203125 26.65625 11.390625 28.5625 
Q 14.59375 30.46875 18.6875 31.203125 
Q 22.796875 31.9375 27.046875 32.03125 
L 38.921875 32.234375 
L 38.921875 35.109375 
Q 38.921875 38.375 38.234375 40.671875 
Q 37.546875 42.96875 36.125 44.375 
Q 34.71875 45.796875 32.59375 46.453125 
Q 30.46875 47.125 27.59375 47.125 
Q 25.046875 47.125 23 46.75 
Q 20.953125 46.390625 19.4375 45.4375 
Q 17.921875 44.484375 16.984375 42.84375 
Q 16.0625 41.21875 15.765625 38.71875 
L 6.59375 39.546875 
Q 7.078125 42.671875 8.4375 45.28125 
Q 9.8125 47.90625 12.328125 49.796875 
Q 14.84375 51.703125 18.625 52.75 
Q 22.40625 53.8125 27.78125 53.8125 
Q 37.75 53.8125 42.765625 49.234375 
Q 47.796875 44.671875 47.796875 36.03125 
L 47.796875 13.28125 
Q 47.796875 9.375 48.828125 7.390625 
Q 49.859375 5.421875 52.734375 5.421875 
Q 53.46875 5.421875 54.203125 5.515625 
Q 54.9375 5.609375 55.609375 5.765625 
L 55.609375 0.296875 
Q 53.953125 -0.09375 52.3125 -0.28125 
Q 50.6875 -0.484375 48.828125 -0.484375 
Q 46.34375 -0.484375 44.5625 0.171875 
Q 42.78125 0.828125 41.65625 2.171875 
Q 40.53125 3.515625 39.9375 5.484375 
Q 39.359375 7.46875 39.203125 10.109375 
L 38.921875 10.109375 
Q 37.5 7.5625 35.8125 5.515625 
Q 34.125 3.46875 31.875 2.03125 
Q 29.640625 0.59375 26.78125 -0.1875 
Q 23.921875 -0.984375 20.21875 -0.984375 
M 22.21875 5.609375 
Q 26.421875 5.609375 29.5625 7.140625 
Q 32.71875 8.6875 34.78125 11.078125 
Q 36.859375 13.484375 37.890625 16.3125 
Q 38.921875 19.140625 38.921875 21.734375 
L 38.921875 26.078125 
L 29.296875 25.875 
Q 26.078125 25.828125 23.171875 25.40625 
Q 20.265625 25 18.0625 23.78125 
Q 15.875 22.5625 14.578125 20.359375 
Q 13.28125 18.171875 13.28125 14.59375 
Q 13.28125 10.296875 15.59375 7.953125 
Q 17.921875 5.609375 22.21875 5.609375 
" id="LiberationSans-61"/>
     <path d="M 22.265625 54.390625 
L 35.15625 59.421875 
L 37.359375 52.984375 
L 23.578125 49.421875 
L 32.625 37.203125 
L 26.8125 33.6875 
L 19.484375 46.296875 
L 11.859375 33.796875 
L 6.0625 37.3125 
L 15.28125 49.421875 
L 1.609375 52.984375 
L 3.8125 59.515625 
L 16.84375 54.296875 
L 16.265625 68.796875 
L 22.90625 68.796875 
z
" id="LiberationSans-2a"/>
    </defs>
    <g style="fill:#262626;" transform="translate(215.806875 34.6)scale(0.12 -0.12)">
     <use xlink:href="#LiberationSans-61"/>
     <use x="55.615234375" xlink:href="#LiberationSans-75"/>
     <use x="111.23046875" xlink:href="#LiberationSans-20"/>
     <use x="139.013671875" xlink:href="#LiberationSans-2d"/>
     <use x="172.314453125" xlink:href="#LiberationSans-20"/>
     <use x="200.09765625" xlink:href="#LiberationSans-2d"/>
     <use x="233.3984375" xlink:href="#LiberationSans-30"/>
     <use x="289.013671875" xlink:href="#LiberationSans-2e"/>
     <use x="316.796875" xlink:href="#LiberationSans-30"/>
     <use x="372.412109375" xlink:href="#LiberationSans-31"/>
     <use x="428.02734375" xlink:href="#LiberationSans-32"/>
     <use x="483.642578125" xlink:href="#LiberationSans-30"/>
     <use x="539.2578125" xlink:href="#LiberationSans-39"/>
     <use x="594.873046875" xlink:href="#LiberationSans-32"/>
     <use x="650.48828125" xlink:href="#LiberationSans-38"/>
     <use x="706.103515625" xlink:href="#LiberationSans-30"/>
     <use x="761.71875" xlink:href="#LiberationSans-37"/>
     <use x="817.333984375" xlink:href="#LiberationSans-39"/>
     <use x="872.94921875" xlink:href="#LiberationSans-35"/>
     <use x="928.564453125" xlink:href="#LiberationSans-38"/>
     <use x="984.1796875" xlink:href="#LiberationSans-39"/>
     <use x="1039.794921875" xlink:href="#LiberationSans-33"/>
     <use x="1095.41015625" xlink:href="#LiberationSans-33"/>
     <use x="1151.025390625" xlink:href="#LiberationSans-35"/>
     <use x="1206.640625" xlink:href="#LiberationSans-20"/>
     <use x="1234.423828125" xlink:href="#LiberationSans-2a"/>
     <use x="1273.33984375" xlink:href="#LiberationSans-20"/>
     <use x="1301.123046875" xlink:href="#LiberationSans-6c"/>
    </g>
   </g>
  </g>
 </g>
 <defs>
  <clipPath id="pe0420fe08f">
   <rect height="316.8" width="446.4" x="72.0" y="39.6"/>
  </clipPath>
 </defs>
</svg>
