<?xml version="1.0" encoding="utf-8" standalone="no"?>
<!DOCTYPE svg PUBLIC "-//W3C//DTD SVG 1.1//EN"
  "http://www.w3.org/Graphics/SVG/1.1/DTD/svg11.dtd">
<!-- Created with matplotlib (http://matplotlib.org/) -->
<svg height="396pt" version="1.1" viewBox="0 0 576 396" width="576pt" xmlns="http://www.w3.org/2000/svg" xmlns:xlink="http://www.w3.org/1999/xlink">
 <defs>
  <style type="text/css">
*{stroke-linecap:butt;stroke-linejoin:round;stroke-miterlimit:100000;}
  </style>
 </defs>
 <g id="figure_1">
  <g id="patch_1">
   <path d="M 0 396 
L 576 396 
L 576 0 
L 0 0 
z
" style="fill:#ffffff;"/>
  </g>
  <g id="axes_1">
   <g id="patch_2">
    <path d="M 72 356.4 
L 518.4 356.4 
L 518.4 39.6 
L 72 39.6 
z
" style="fill:#eaeaf2;"/>
   </g>
   <g id="matplotlib.axis_1">
    <g id="xtick_1">
     <g id="line2d_1">
      <path clip-path="url(#pb04cfa7bcc)" d="M 72 356.4 
L 72 39.6 
" style="fill:none;stroke:#ffffff;stroke-linecap:round;"/>
     </g>
     <g id="line2d_2"/>
     <g id="line2d_3"/>
     <g id="text_1">
      <!-- 2014-11-25 14:45:00 -->
      <defs>
       <path d="M 5.03125 0 
L 5.03125 6.203125 
Q 7.515625 11.921875 11.109375 16.28125 
Q 14.703125 20.65625 18.65625 24.1875 
Q 22.609375 27.734375 26.484375 30.765625 
Q 30.375 33.796875 33.5 36.8125 
Q 36.625 39.84375 38.546875 43.15625 
Q 40.484375 46.484375 40.484375 50.6875 
Q 40.484375 53.609375 39.59375 55.828125 
Q 38.71875 58.0625 37.0625 59.5625 
Q 35.40625 61.078125 33.078125 61.828125 
Q 30.765625 62.59375 27.9375 62.59375 
Q 25.296875 62.59375 22.96875 61.859375 
Q 20.65625 61.140625 18.84375 59.671875 
Q 17.046875 58.203125 15.890625 56.03125 
Q 14.75 53.859375 14.40625 50.984375 
L 5.421875 51.8125 
Q 5.859375 55.515625 7.46875 58.78125 
Q 9.078125 62.0625 11.90625 64.53125 
Q 14.75 67 18.71875 68.40625 
Q 22.703125 69.828125 27.9375 69.828125 
Q 33.0625 69.828125 37.0625 68.609375 
Q 41.0625 67.390625 43.8125 64.984375 
Q 46.578125 62.59375 48.046875 59.078125 
Q 49.515625 55.5625 49.515625 50.984375 
Q 49.515625 47.515625 48.265625 44.390625 
Q 47.015625 41.265625 44.9375 38.421875 
Q 42.875 35.59375 40.140625 32.953125 
Q 37.40625 30.328125 34.421875 27.8125 
Q 31.453125 25.296875 28.421875 22.828125 
Q 25.390625 20.359375 22.71875 17.859375 
Q 20.0625 15.375 17.96875 12.8125 
Q 15.875 10.25 14.703125 7.46875 
L 50.59375 7.46875 
L 50.59375 0 
z
" id="LiberationSans-32"/>
       <path d="M 7.625 0 
L 7.625 7.46875 
L 25.140625 7.46875 
L 25.140625 60.40625 
L 9.625 49.3125 
L 9.625 57.625 
L 25.875 68.796875 
L 33.984375 68.796875 
L 33.984375 7.46875 
L 50.734375 7.46875 
L 50.734375 0 
z
" id="LiberationSans-31"/>
       <path d="M 51.703125 34.421875 
Q 51.703125 24.515625 49.828125 17.75 
Q 47.953125 10.984375 44.703125 6.8125 
Q 41.453125 2.640625 37.0625 0.828125 
Q 32.671875 -0.984375 27.6875 -0.984375 
Q 22.65625 -0.984375 18.3125 0.828125 
Q 13.96875 2.640625 10.765625 6.78125 
Q 7.5625 10.9375 5.734375 17.703125 
Q 3.90625 24.46875 3.90625 34.421875 
Q 3.90625 44.828125 5.734375 51.640625 
Q 7.5625 58.453125 10.78125 62.5 
Q 14.015625 66.546875 18.40625 68.1875 
Q 22.796875 69.828125 27.984375 69.828125 
Q 32.90625 69.828125 37.21875 68.1875 
Q 41.546875 66.546875 44.765625 62.5 
Q 48 58.453125 49.84375 51.640625 
Q 51.703125 44.828125 51.703125 34.421875 
M 42.78125 34.421875 
Q 42.78125 42.625 41.796875 48.0625 
Q 40.828125 53.515625 38.921875 56.765625 
Q 37.015625 60.015625 34.25 61.359375 
Q 31.5 62.703125 27.984375 62.703125 
Q 24.265625 62.703125 21.4375 61.328125 
Q 18.609375 59.96875 16.671875 56.71875 
Q 14.75 53.46875 13.765625 48.015625 
Q 12.796875 42.578125 12.796875 34.421875 
Q 12.796875 26.515625 13.796875 21.09375 
Q 14.796875 15.671875 16.71875 12.375 
Q 18.65625 9.078125 21.4375 7.640625 
Q 24.21875 6.203125 27.78125 6.203125 
Q 31.25 6.203125 34.03125 7.640625 
Q 36.8125 9.078125 38.734375 12.375 
Q 40.671875 15.671875 41.71875 21.09375 
Q 42.78125 26.515625 42.78125 34.421875 
" id="LiberationSans-30"/>
       <path d="M 9.125 42.71875 
L 9.125 52.828125 
L 18.65625 52.828125 
L 18.65625 42.71875 
z
M 9.125 0 
L 9.125 10.109375 
L 18.65625 10.109375 
L 18.65625 0 
z
" id="LiberationSans-3a"/>
       <path d="M 51.421875 22.40625 
Q 51.421875 17.234375 49.859375 12.9375 
Q 48.296875 8.640625 45.21875 5.53125 
Q 42.140625 2.4375 37.578125 0.71875 
Q 33.015625 -0.984375 27 -0.984375 
Q 21.578125 -0.984375 17.546875 0.28125 
Q 13.53125 1.5625 10.734375 3.78125 
Q 7.953125 6 6.3125 8.984375 
Q 4.6875 11.96875 4 15.375 
L 12.890625 16.40625 
Q 13.421875 14.453125 14.390625 12.625 
Q 15.375 10.796875 17.0625 9.34375 
Q 18.75 7.90625 21.21875 7.046875 
Q 23.6875 6.203125 27.203125 6.203125 
Q 30.609375 6.203125 33.390625 7.25 
Q 36.1875 8.296875 38.15625 10.34375 
Q 40.140625 12.40625 41.203125 15.375 
Q 42.28125 18.359375 42.28125 22.21875 
Q 42.28125 25.390625 41.25 28.046875 
Q 40.234375 30.71875 38.328125 32.640625 
Q 36.421875 34.578125 33.65625 35.640625 
Q 30.90625 36.71875 27.390625 36.71875 
Q 25.203125 36.71875 23.34375 36.328125 
Q 21.484375 35.9375 19.890625 35.25 
Q 18.3125 34.578125 17.015625 33.671875 
Q 15.71875 32.765625 14.59375 31.78125 
L 6 31.78125 
L 8.296875 68.796875 
L 47.40625 68.796875 
L 47.40625 61.328125 
L 16.3125 61.328125 
L 14.984375 39.5 
Q 17.328125 41.3125 20.84375 42.59375 
Q 24.359375 43.890625 29.203125 43.890625 
Q 34.328125 43.890625 38.421875 42.328125 
Q 42.53125 40.765625 45.40625 37.90625 
Q 48.296875 35.0625 49.859375 31.109375 
Q 51.421875 27.15625 51.421875 22.40625 
" id="LiberationSans-35"/>
       <path id="LiberationSans-20"/>
       <path d="M 4.4375 22.65625 
L 4.4375 30.46875 
L 28.859375 30.46875 
L 28.859375 22.65625 
z
" id="LiberationSans-2d"/>
       <path d="M 43.015625 15.578125 
L 43.015625 0 
L 34.71875 0 
L 34.71875 15.578125 
L 2.296875 15.578125 
L 2.296875 22.40625 
L 33.796875 68.796875 
L 43.015625 68.796875 
L 43.015625 22.515625 
L 52.6875 22.515625 
L 52.6875 15.578125 
z
M 34.71875 58.890625 
Q 34.625 58.640625 34.234375 57.9375 
Q 33.84375 57.234375 33.34375 56.34375 
Q 32.859375 55.46875 32.34375 54.5625 
Q 31.84375 53.65625 31.453125 53.078125 
L 13.8125 27.09375 
Q 13.578125 26.703125 13.109375 26.0625 
Q 12.640625 25.4375 12.15625 24.78125 
Q 11.671875 24.125 11.171875 23.484375 
Q 10.6875 22.859375 10.40625 22.515625 
L 34.71875 22.515625 
z
" id="LiberationSans-34"/>
      </defs>
      <g style="fill:#262626;" transform="translate(25.5765625 370.646875)scale(0.1 -0.1)">
       <use xlink:href="#LiberationSans-32"/>
       <use x="55.615234375" xlink:href="#LiberationSans-30"/>
       <use x="111.23046875" xlink:href="#LiberationSans-31"/>
       <use x="166.845703125" xlink:href="#LiberationSans-34"/>
       <use x="222.4609375" xlink:href="#LiberationSans-2d"/>
       <use x="255.76171875" xlink:href="#LiberationSans-31"/>
       <use x="311.376953125" xlink:href="#LiberationSans-31"/>
       <use x="366.9921875" xlink:href="#LiberationSans-2d"/>
       <use x="400.29296875" xlink:href="#LiberationSans-32"/>
       <use x="455.908203125" xlink:href="#LiberationSans-35"/>
       <use x="511.5234375" xlink:href="#LiberationSans-20"/>
       <use x="539.306640625" xlink:href="#LiberationSans-31"/>
       <use x="594.921875" xlink:href="#LiberationSans-34"/>
       <use x="650.537109375" xlink:href="#LiberationSans-3a"/>
       <use x="678.3203125" xlink:href="#LiberationSans-34"/>
       <use x="733.935546875" xlink:href="#LiberationSans-35"/>
       <use x="789.55078125" xlink:href="#LiberationSans-3a"/>
       <use x="817.333984375" xlink:href="#LiberationSans-30"/>
       <use x="872.94921875" xlink:href="#LiberationSans-30"/>
      </g>
     </g>
    </g>
    <g id="xtick_2">
     <g id="line2d_4">
      <path clip-path="url(#pb04cfa7bcc)" d="M 183.655828 356.4 
L 183.655828 39.6 
" style="fill:none;stroke:#ffffff;stroke-linecap:round;"/>
     </g>
     <g id="line2d_5"/>
     <g id="line2d_6"/>
     <g id="text_2">
      <!-- 2014-12-11 13:39:00 -->
      <defs>
       <path d="M 51.21875 19 
Q 51.21875 14.265625 49.671875 10.546875 
Q 48.140625 6.84375 45.1875 4.265625 
Q 42.234375 1.703125 37.859375 0.359375 
Q 33.5 -0.984375 27.875 -0.984375 
Q 21.484375 -0.984375 17.109375 0.609375 
Q 12.75 2.203125 9.90625 4.8125 
Q 7.078125 7.421875 5.65625 10.765625 
Q 4.25 14.109375 3.8125 17.671875 
L 12.890625 18.5 
Q 13.28125 15.765625 14.328125 13.515625 
Q 15.375 11.28125 17.1875 9.671875 
Q 19 8.0625 21.625 7.171875 
Q 24.265625 6.296875 27.875 6.296875 
Q 34.515625 6.296875 38.296875 9.5625 
Q 42.09375 12.84375 42.09375 19.28125 
Q 42.09375 23.09375 40.40625 25.40625 
Q 38.71875 27.734375 36.203125 29.03125 
Q 33.6875 30.328125 30.734375 30.765625 
Q 27.78125 31.203125 25.296875 31.203125 
L 20.3125 31.203125 
L 20.3125 38.8125 
L 25.09375 38.8125 
Q 27.59375 38.8125 30.265625 39.328125 
Q 32.953125 39.84375 35.171875 41.1875 
Q 37.40625 42.53125 38.84375 44.828125 
Q 40.28125 47.125 40.28125 50.6875 
Q 40.28125 56.203125 37.03125 59.390625 
Q 33.796875 62.59375 27.390625 62.59375 
Q 21.578125 62.59375 17.984375 59.609375 
Q 14.40625 56.640625 13.8125 51.21875 
L 4.984375 51.90625 
Q 5.515625 56.453125 7.46875 59.8125 
Q 9.421875 63.1875 12.421875 65.40625 
Q 15.4375 67.625 19.28125 68.71875 
Q 23.140625 69.828125 27.484375 69.828125 
Q 33.25 69.828125 37.390625 68.375 
Q 41.546875 66.9375 44.1875 64.46875 
Q 46.828125 62.015625 48.0625 58.6875 
Q 49.3125 55.375 49.3125 51.609375 
Q 49.3125 48.578125 48.484375 45.9375 
Q 47.65625 43.3125 45.890625 41.203125 
Q 44.140625 39.109375 41.421875 37.59375 
Q 38.71875 36.078125 34.90625 35.296875 
L 34.90625 35.109375 
Q 39.0625 34.671875 42.140625 33.21875 
Q 45.21875 31.78125 47.21875 29.625 
Q 49.21875 27.484375 50.21875 24.75 
Q 51.21875 22.015625 51.21875 19 
" id="LiberationSans-33"/>
       <path d="M 50.875 35.796875 
Q 50.875 26.609375 49.140625 19.703125 
Q 47.40625 12.796875 44.1875 8.203125 
Q 40.96875 3.609375 36.34375 1.3125 
Q 31.734375 -0.984375 25.984375 -0.984375 
Q 22.015625 -0.984375 18.84375 -0.171875 
Q 15.671875 0.640625 13.171875 2.34375 
Q 10.6875 4.046875 8.921875 6.78125 
Q 7.171875 9.515625 6.109375 13.375 
L 14.5 14.703125 
Q 15.875 10.25 18.78125 8.171875 
Q 21.6875 6.109375 26.125 6.109375 
Q 29.6875 6.109375 32.640625 7.78125 
Q 35.59375 9.46875 37.671875 12.84375 
Q 39.75 16.21875 40.921875 21.296875 
Q 42.09375 26.375 42.1875 33.203125 
Q 41.15625 30.90625 39.375 29.09375 
Q 37.59375 27.296875 35.328125 26.046875 
Q 33.0625 24.8125 30.421875 24.140625 
Q 27.78125 23.484375 25.09375 23.484375 
Q 20.40625 23.484375 16.625 25.171875 
Q 12.84375 26.859375 10.203125 29.875 
Q 7.5625 32.90625 6.125 37.171875 
Q 4.6875 41.453125 4.6875 46.6875 
Q 4.6875 52 6.21875 56.296875 
Q 7.765625 60.59375 10.6875 63.59375 
Q 13.625 66.609375 17.890625 68.21875 
Q 22.171875 69.828125 27.59375 69.828125 
Q 39.0625 69.828125 44.96875 61.328125 
Q 50.875 52.828125 50.875 35.796875 
M 41.3125 44.28125 
Q 41.3125 48.09375 40.40625 51.453125 
Q 39.5 54.828125 37.71875 57.3125 
Q 35.9375 59.8125 33.328125 61.25 
Q 30.71875 62.703125 27.296875 62.703125 
Q 24.125 62.703125 21.578125 61.578125 
Q 19.046875 60.453125 17.28125 58.375 
Q 15.53125 56.296875 14.578125 53.3125 
Q 13.625 50.34375 13.625 46.6875 
Q 13.625 43.21875 14.46875 40.234375 
Q 15.328125 37.25 17.03125 35.078125 
Q 18.75 32.90625 21.28125 31.65625 
Q 23.828125 30.421875 27.203125 30.421875 
Q 29.640625 30.421875 32.15625 31.25 
Q 34.671875 32.078125 36.6875 33.78125 
Q 38.71875 35.5 40.015625 38.109375 
Q 41.3125 40.71875 41.3125 44.28125 
" id="LiberationSans-39"/>
      </defs>
      <g style="fill:#262626;" transform="translate(137.232390414 370.646875)scale(0.1 -0.1)">
       <use xlink:href="#LiberationSans-32"/>
       <use x="55.615234375" xlink:href="#LiberationSans-30"/>
       <use x="111.23046875" xlink:href="#LiberationSans-31"/>
       <use x="166.845703125" xlink:href="#LiberationSans-34"/>
       <use x="222.4609375" xlink:href="#LiberationSans-2d"/>
       <use x="255.76171875" xlink:href="#LiberationSans-31"/>
       <use x="311.376953125" xlink:href="#LiberationSans-32"/>
       <use x="366.9921875" xlink:href="#LiberationSans-2d"/>
       <use x="400.29296875" xlink:href="#LiberationSans-31"/>
       <use x="455.908203125" xlink:href="#LiberationSans-31"/>
       <use x="511.5234375" xlink:href="#LiberationSans-20"/>
       <use x="539.306640625" xlink:href="#LiberationSans-31"/>
       <use x="594.921875" xlink:href="#LiberationSans-33"/>
       <use x="650.537109375" xlink:href="#LiberationSans-3a"/>
       <use x="678.3203125" xlink:href="#LiberationSans-33"/>
       <use x="733.935546875" xlink:href="#LiberationSans-39"/>
       <use x="789.55078125" xlink:href="#LiberationSans-3a"/>
       <use x="817.333984375" xlink:href="#LiberationSans-30"/>
       <use x="872.94921875" xlink:href="#LiberationSans-30"/>
      </g>
     </g>
    </g>
    <g id="xtick_3">
     <g id="line2d_7">
      <path clip-path="url(#pb04cfa7bcc)" d="M 295.311656 356.4 
L 295.311656 39.6 
" style="fill:none;stroke:#ffffff;stroke-linecap:round;"/>
     </g>
     <g id="line2d_8"/>
     <g id="line2d_9"/>
     <g id="text_3">
      <!-- 2014-12-31 09:14:00 -->
      <g style="fill:#262626;" transform="translate(248.888218328 370.646875)scale(0.1 -0.1)">
       <use xlink:href="#LiberationSans-32"/>
       <use x="55.615234375" xlink:href="#LiberationSans-30"/>
       <use x="111.23046875" xlink:href="#LiberationSans-31"/>
       <use x="166.845703125" xlink:href="#LiberationSans-34"/>
       <use x="222.4609375" xlink:href="#LiberationSans-2d"/>
       <use x="255.76171875" xlink:href="#LiberationSans-31"/>
       <use x="311.376953125" xlink:href="#LiberationSans-32"/>
       <use x="366.9921875" xlink:href="#LiberationSans-2d"/>
       <use x="400.29296875" xlink:href="#LiberationSans-33"/>
       <use x="455.908203125" xlink:href="#LiberationSans-31"/>
       <use x="511.5234375" xlink:href="#LiberationSans-20"/>
       <use x="539.306640625" xlink:href="#LiberationSans-30"/>
       <use x="594.921875" xlink:href="#LiberationSans-39"/>
       <use x="650.537109375" xlink:href="#LiberationSans-3a"/>
       <use x="678.3203125" xlink:href="#LiberationSans-31"/>
       <use x="733.935546875" xlink:href="#LiberationSans-34"/>
       <use x="789.55078125" xlink:href="#LiberationSans-3a"/>
       <use x="817.333984375" xlink:href="#LiberationSans-30"/>
       <use x="872.94921875" xlink:href="#LiberationSans-30"/>
      </g>
     </g>
    </g>
    <g id="xtick_4">
     <g id="line2d_10">
      <path clip-path="url(#pb04cfa7bcc)" d="M 406.967484 356.4 
L 406.967484 39.6 
" style="fill:none;stroke:#ffffff;stroke-linecap:round;"/>
     </g>
     <g id="line2d_11"/>
     <g id="line2d_12"/>
     <g id="text_4">
      <!-- 2015-01-23 14:03:00 -->
      <g style="fill:#262626;" transform="translate(360.544046242 370.646875)scale(0.1 -0.1)">
       <use xlink:href="#LiberationSans-32"/>
       <use x="55.615234375" xlink:href="#LiberationSans-30"/>
       <use x="111.23046875" xlink:href="#LiberationSans-31"/>
       <use x="166.845703125" xlink:href="#LiberationSans-35"/>
       <use x="222.4609375" xlink:href="#LiberationSans-2d"/>
       <use x="255.76171875" xlink:href="#LiberationSans-30"/>
       <use x="311.376953125" xlink:href="#LiberationSans-31"/>
       <use x="366.9921875" xlink:href="#LiberationSans-2d"/>
       <use x="400.29296875" xlink:href="#LiberationSans-32"/>
       <use x="455.908203125" xlink:href="#LiberationSans-33"/>
       <use x="511.5234375" xlink:href="#LiberationSans-20"/>
       <use x="539.306640625" xlink:href="#LiberationSans-31"/>
       <use x="594.921875" xlink:href="#LiberationSans-34"/>
       <use x="650.537109375" xlink:href="#LiberationSans-3a"/>
       <use x="678.3203125" xlink:href="#LiberationSans-30"/>
       <use x="733.935546875" xlink:href="#LiberationSans-33"/>
       <use x="789.55078125" xlink:href="#LiberationSans-3a"/>
       <use x="817.333984375" xlink:href="#LiberationSans-30"/>
       <use x="872.94921875" xlink:href="#LiberationSans-30"/>
      </g>
     </g>
    </g>
    <g id="text_5">
     <!-- time -->
     <defs>
      <path d="M 13.484375 24.5625 
Q 13.484375 20.40625 14.328125 16.90625 
Q 15.1875 13.421875 16.96875 10.90625 
Q 18.75 8.40625 21.53125 7 
Q 24.3125 5.609375 28.21875 5.609375 
Q 33.9375 5.609375 37.375 7.90625 
Q 40.828125 10.203125 42.046875 13.71875 
L 49.75 11.53125 
Q 48.921875 9.328125 47.4375 7.109375 
Q 45.953125 4.890625 43.453125 3.09375 
Q 40.96875 1.3125 37.234375 0.15625 
Q 33.5 -0.984375 28.21875 -0.984375 
Q 16.5 -0.984375 10.375 6 
Q 4.25 12.984375 4.25 26.765625 
Q 4.25 34.1875 6.09375 39.328125 
Q 7.953125 44.484375 11.171875 47.703125 
Q 14.40625 50.921875 18.703125 52.359375 
Q 23 53.8125 27.875 53.8125 
Q 34.515625 53.8125 38.984375 51.65625 
Q 43.453125 49.515625 46.15625 45.71875 
Q 48.875 41.9375 50.015625 36.8125 
Q 51.171875 31.6875 51.171875 25.734375 
L 51.171875 24.5625 
z
M 42.09375 31.296875 
Q 41.359375 39.65625 37.84375 43.484375 
Q 34.328125 47.3125 27.734375 47.3125 
Q 25.53125 47.3125 23.109375 46.609375 
Q 20.703125 45.90625 18.65625 44.09375 
Q 16.609375 42.28125 15.1875 39.171875 
Q 13.765625 36.078125 13.578125 31.296875 
z
" id="LiberationSans-65"/>
      <path d="M 6.6875 64.0625 
L 6.6875 72.46875 
L 15.484375 72.46875 
L 15.484375 64.0625 
z
M 6.6875 0 
L 6.6875 52.828125 
L 15.484375 52.828125 
L 15.484375 0 
z
" id="LiberationSans-69"/>
      <path d="M 27.046875 0.390625 
Q 25.046875 -0.140625 22.96875 -0.453125 
Q 20.90625 -0.78125 18.171875 -0.78125 
Q 7.625 -0.78125 7.625 11.1875 
L 7.625 46.4375 
L 1.515625 46.4375 
L 1.515625 52.828125 
L 7.953125 52.828125 
L 10.546875 64.65625 
L 16.40625 64.65625 
L 16.40625 52.828125 
L 26.171875 52.828125 
L 26.171875 46.4375 
L 16.40625 46.4375 
L 16.40625 13.09375 
Q 16.40625 9.28125 17.640625 7.734375 
Q 18.890625 6.203125 21.96875 6.203125 
Q 23.25 6.203125 24.4375 6.390625 
Q 25.640625 6.59375 27.046875 6.890625 
z
" id="LiberationSans-74"/>
      <path d="M 37.5 0 
L 37.5 33.5 
Q 37.5 37.359375 37.015625 39.9375 
Q 36.53125 42.53125 35.375 44.109375 
Q 34.234375 45.703125 32.375 46.359375 
Q 30.515625 47.015625 27.828125 47.015625 
Q 25.046875 47.015625 22.796875 45.921875 
Q 20.5625 44.828125 18.96875 42.75 
Q 17.390625 40.671875 16.53125 37.625 
Q 15.671875 34.578125 15.671875 30.609375 
L 15.671875 0 
L 6.9375 0 
L 6.9375 41.546875 
Q 6.9375 43.21875 6.90625 45.046875 
Q 6.890625 46.875 6.828125 48.5 
Q 6.78125 50.140625 6.734375 51.3125 
Q 6.6875 52.484375 6.640625 52.828125 
L 14.9375 52.828125 
Q 14.984375 52.59375 15.03125 51.515625 
Q 15.09375 50.4375 15.15625 49.046875 
Q 15.234375 47.65625 15.28125 46.21875 
Q 15.328125 44.78125 15.328125 43.796875 
L 15.484375 43.796875 
Q 16.65625 46.09375 18.015625 47.953125 
Q 19.390625 49.8125 21.21875 51.09375 
Q 23.046875 52.390625 25.40625 53.09375 
Q 27.78125 53.8125 30.90625 53.8125 
Q 36.921875 53.8125 40.40625 51.421875 
Q 43.890625 49.03125 45.265625 43.796875 
L 45.40625 43.796875 
Q 46.578125 46.09375 48.046875 47.953125 
Q 49.515625 49.8125 51.46875 51.09375 
Q 53.421875 52.390625 55.859375 53.09375 
Q 58.296875 53.8125 61.421875 53.8125 
Q 65.4375 53.8125 68.328125 52.734375 
Q 71.234375 51.65625 73.09375 49.40625 
Q 74.953125 47.171875 75.828125 43.625 
Q 76.703125 40.09375 76.703125 35.203125 
L 76.703125 0 
L 68.015625 0 
L 68.015625 33.5 
Q 68.015625 37.359375 67.53125 39.9375 
Q 67.046875 42.53125 65.890625 44.109375 
Q 64.75 45.703125 62.890625 46.359375 
Q 61.03125 47.015625 58.34375 47.015625 
Q 55.5625 47.015625 53.3125 45.96875 
Q 51.078125 44.921875 49.484375 42.875 
Q 47.90625 40.828125 47.046875 37.75 
Q 46.1875 34.671875 46.1875 30.609375 
L 46.1875 0 
z
" id="LiberationSans-6d"/>
     </defs>
     <g style="fill:#262626;" transform="translate(284.81015625 385.6934375)scale(0.11 -0.11)">
      <use xlink:href="#LiberationSans-74"/>
      <use x="27.783203125" xlink:href="#LiberationSans-69"/>
      <use x="50.0" xlink:href="#LiberationSans-6d"/>
      <use x="133.30078125" xlink:href="#LiberationSans-65"/>
     </g>
    </g>
   </g>
   <g id="matplotlib.axis_2">
    <g id="ytick_1">
     <g id="line2d_13">
      <path clip-path="url(#pb04cfa7bcc)" d="M 72 356.4 
L 518.4 356.4 
" style="fill:none;stroke:#ffffff;stroke-linecap:round;"/>
     </g>
     <g id="line2d_14"/>
     <g id="line2d_15"/>
     <g id="text_6">
      <!-- 18.0 -->
      <defs>
       <path d="M 51.265625 19.1875 
Q 51.265625 14.796875 49.875 11.109375 
Q 48.484375 7.421875 45.625 4.734375 
Q 42.78125 2.046875 38.328125 0.53125 
Q 33.890625 -0.984375 27.828125 -0.984375 
Q 21.78125 -0.984375 17.359375 0.53125 
Q 12.9375 2.046875 10.03125 4.703125 
Q 7.125 7.375 5.734375 11.0625 
Q 4.34375 14.75 4.34375 19.09375 
Q 4.34375 22.859375 5.484375 25.78125 
Q 6.640625 28.71875 8.5625 30.828125 
Q 10.5 32.953125 12.96875 34.25 
Q 15.4375 35.546875 18.0625 35.984375 
L 18.0625 36.1875 
Q 15.1875 36.859375 12.90625 38.375 
Q 10.640625 39.890625 9.09375 42.015625 
Q 7.5625 44.140625 6.75 46.71875 
Q 5.953125 49.3125 5.953125 52.203125 
Q 5.953125 55.8125 7.34375 59 
Q 8.734375 62.203125 11.46875 64.625 
Q 14.203125 67.046875 18.25 68.4375 
Q 22.3125 69.828125 27.640625 69.828125 
Q 33.25 69.828125 37.375 68.40625 
Q 41.5 67 44.203125 64.578125 
Q 46.921875 62.15625 48.234375 58.9375 
Q 49.5625 55.71875 49.5625 52.09375 
Q 49.5625 49.265625 48.75 46.671875 
Q 47.953125 44.09375 46.40625 41.96875 
Q 44.875 39.84375 42.59375 38.34375 
Q 40.328125 36.859375 37.359375 36.28125 
L 37.359375 36.078125 
Q 40.328125 35.59375 42.859375 34.296875 
Q 45.40625 33.015625 47.265625 30.890625 
Q 49.125 28.765625 50.1875 25.828125 
Q 51.265625 22.90625 51.265625 19.1875 
M 40.4375 51.609375 
Q 40.4375 54.203125 39.765625 56.34375 
Q 39.109375 58.5 37.59375 60.03125 
Q 36.078125 61.578125 33.640625 62.421875 
Q 31.203125 63.28125 27.640625 63.28125 
Q 24.171875 63.28125 21.78125 62.421875 
Q 19.390625 61.578125 17.84375 60.03125 
Q 16.3125 58.5 15.625 56.34375 
Q 14.9375 54.203125 14.9375 51.609375 
Q 14.9375 49.5625 15.46875 47.40625 
Q 16.015625 45.265625 17.421875 43.5 
Q 18.84375 41.75 21.328125 40.625 
Q 23.828125 39.5 27.734375 39.5 
Q 31.890625 39.5 34.40625 40.625 
Q 36.921875 41.75 38.25 43.5 
Q 39.59375 45.265625 40.015625 47.40625 
Q 40.4375 49.5625 40.4375 51.609375 
M 42.140625 20.015625 
Q 42.140625 22.515625 41.453125 24.828125 
Q 40.765625 27.15625 39.109375 28.9375 
Q 37.453125 30.71875 34.640625 31.8125 
Q 31.84375 32.90625 27.640625 32.90625 
Q 23.78125 32.90625 21.0625 31.8125 
Q 18.359375 30.71875 16.671875 28.90625 
Q 14.984375 27.09375 14.203125 24.71875 
Q 13.421875 22.359375 13.421875 19.828125 
Q 13.421875 16.65625 14.203125 14.03125 
Q 14.984375 11.421875 16.6875 9.546875 
Q 18.40625 7.671875 21.1875 6.640625 
Q 23.96875 5.609375 27.9375 5.609375 
Q 31.9375 5.609375 34.671875 6.640625 
Q 37.40625 7.671875 39.0625 9.546875 
Q 40.71875 11.421875 41.421875 14.078125 
Q 42.140625 16.75 42.140625 20.015625 
" id="LiberationSans-38"/>
       <path d="M 9.125 0 
L 9.125 10.6875 
L 18.65625 10.6875 
L 18.65625 0 
z
" id="LiberationSans-2e"/>
      </defs>
      <g style="fill:#262626;" transform="translate(45.5390625 358.9859375)scale(0.1 -0.1)">
       <use xlink:href="#LiberationSans-31"/>
       <use x="55.615234375" xlink:href="#LiberationSans-38"/>
       <use x="111.23046875" xlink:href="#LiberationSans-2e"/>
       <use x="139.013671875" xlink:href="#LiberationSans-30"/>
      </g>
     </g>
    </g>
    <g id="ytick_2">
     <g id="line2d_16">
      <path clip-path="url(#pb04cfa7bcc)" d="M 72 293.04 
L 518.4 293.04 
" style="fill:none;stroke:#ffffff;stroke-linecap:round;"/>
     </g>
     <g id="line2d_17"/>
     <g id="line2d_18"/>
     <g id="text_7">
      <!-- 18.5 -->
      <g style="fill:#262626;" transform="translate(45.5390625 295.6259375)scale(0.1 -0.1)">
       <use xlink:href="#LiberationSans-31"/>
       <use x="55.615234375" xlink:href="#LiberationSans-38"/>
       <use x="111.23046875" xlink:href="#LiberationSans-2e"/>
       <use x="139.013671875" xlink:href="#LiberationSans-35"/>
      </g>
     </g>
    </g>
    <g id="ytick_3">
     <g id="line2d_19">
      <path clip-path="url(#pb04cfa7bcc)" d="M 72 229.68 
L 518.4 229.68 
" style="fill:none;stroke:#ffffff;stroke-linecap:round;"/>
     </g>
     <g id="line2d_20"/>
     <g id="line2d_21"/>
     <g id="text_8">
      <!-- 19.0 -->
      <g style="fill:#262626;" transform="translate(45.5390625 232.2659375)scale(0.1 -0.1)">
       <use xlink:href="#LiberationSans-31"/>
       <use x="55.615234375" xlink:href="#LiberationSans-39"/>
       <use x="111.23046875" xlink:href="#LiberationSans-2e"/>
       <use x="139.013671875" xlink:href="#LiberationSans-30"/>
      </g>
     </g>
    </g>
    <g id="ytick_4">
     <g id="line2d_22">
      <path clip-path="url(#pb04cfa7bcc)" d="M 72 166.32 
L 518.4 166.32 
" style="fill:none;stroke:#ffffff;stroke-linecap:round;"/>
     </g>
     <g id="line2d_23"/>
     <g id="line2d_24"/>
     <g id="text_9">
      <!-- 19.5 -->
      <g style="fill:#262626;" transform="translate(45.5390625 168.9059375)scale(0.1 -0.1)">
       <use xlink:href="#LiberationSans-31"/>
       <use x="55.615234375" xlink:href="#LiberationSans-39"/>
       <use x="111.23046875" xlink:href="#LiberationSans-2e"/>
       <use x="139.013671875" xlink:href="#LiberationSans-35"/>
      </g>
     </g>
    </g>
    <g id="ytick_5">
     <g id="line2d_25">
      <path clip-path="url(#pb04cfa7bcc)" d="M 72 102.96 
L 518.4 102.96 
" style="fill:none;stroke:#ffffff;stroke-linecap:round;"/>
     </g>
     <g id="line2d_26"/>
     <g id="line2d_27"/>
     <g id="text_10">
      <!-- 20.0 -->
      <g style="fill:#262626;" transform="translate(45.5390625 105.5459375)scale(0.1 -0.1)">
       <use xlink:href="#LiberationSans-32"/>
       <use x="55.615234375" xlink:href="#LiberationSans-30"/>
       <use x="111.23046875" xlink:href="#LiberationSans-2e"/>
       <use x="139.013671875" xlink:href="#LiberationSans-30"/>
      </g>
     </g>
    </g>
    <g id="ytick_6">
     <g id="line2d_28">
      <path clip-path="url(#pb04cfa7bcc)" d="M 72 39.6 
L 518.4 39.6 
" style="fill:none;stroke:#ffffff;stroke-linecap:round;"/>
     </g>
     <g id="line2d_29"/>
     <g id="line2d_30"/>
     <g id="text_11">
      <!-- 20.5 -->
      <g style="fill:#262626;" transform="translate(45.5390625 42.1859375)scale(0.1 -0.1)">
       <use xlink:href="#LiberationSans-32"/>
       <use x="55.615234375" xlink:href="#LiberationSans-30"/>
       <use x="111.23046875" xlink:href="#LiberationSans-2e"/>
       <use x="139.013671875" xlink:href="#LiberationSans-35"/>
      </g>
     </g>
    </g>
   </g>
   <g id="line2d_31">
    <path clip-path="url(#pb04cfa7bcc)" d="M 72 226.173783 
L 72.223312 229.655142 
L 72.446623 230.685602 
L 72.669935 256.349843 
L 72.893247 252.228002 
L 73.116558 225.853542 
L 73.33987 236.464621 
L 73.563182 235.434161 
L 73.786493 237.495081 
L 74.009805 236.464621 
L 74.456428 230.128621 
L 74.67974 239.556002 
L 74.903052 237.258342 
L 75.126363 238.525542 
L 75.349675 245.181783 
L 75.572986 243.677843 
L 75.796298 247.716183 
L 76.01961 236.311383 
L 76.466233 235.364424 
L 76.689545 227.914462 
L 76.912856 229.418402 
L 77.136168 231.716062 
L 77.35948 230.769104 
L 77.582791 225.937043 
L 77.806103 226.173783 
L 78.029415 226.173783 
L 78.252726 231.479323 
L 78.476038 220.784742 
L 78.69935 224.586342 
L 78.922661 221.021481 
L 79.145973 220.784742 
L 79.369285 219.517542 
L 79.592596 214.448742 
L 79.815908 214.36524 
L 80.03922 207.235519 
L 80.262531 207.235519 
L 80.485843 213.33478 
L 80.709155 213.33478 
L 80.932466 217.456621 
L 81.155778 213.891761 
L 81.602401 216.579399 
L 81.825713 222.20518 
L 82.049025 202.166719 
L 82.718959 229.57164 
L 82.942271 232.10604 
L 83.165583 231.8693 
L 83.388894 227.03724 
L 83.612206 227.03724 
L 83.835518 230.83884 
L 84.058829 232.34278 
L 84.282141 237.648319 
L 84.728764 224.572576 
L 84.952076 226.633497 
L 85.398699 227.343716 
L 85.622011 225.046056 
L 85.845323 226.313256 
L 86.068634 228.374176 
L 86.291946 227.984199 
L 86.515258 223.625618 
L 86.738569 226.953738 
L 86.961881 225.686538 
L 87.185193 223.625618 
L 87.631816 225.686538 
L 87.855128 225.686538 
L 88.078439 223.625618 
L 88.301751 224.419338 
L 88.525063 223.625618 
L 88.748374 228.54118 
L 88.971686 229.57164 
L 89.194997 228.777919 
L 89.418309 230.045119 
L 89.641621 232.663021 
L 89.864932 229.975383 
L 90.088244 245.265285 
L 90.311556 242.173904 
L 90.534867 227.761224 
L 90.758179 224.669843 
L 90.981491 228.791685 
L 91.204802 247.646447 
L 91.428114 248.286929 
L 91.651426 254.622929 
L 91.874737 269.286114 
L 92.098049 258.744771 
L 92.321361 258.98151 
L 92.544672 259.538491 
L 92.767984 258.508031 
L 92.991296 258.271291 
L 93.214607 255.736891 
L 93.437919 259.775231 
L 93.661231 256.767352 
L 93.884542 255.736891 
L 94.107854 235.768167 
L 94.331166 232.676786 
L 94.554477 227.454748 
L 94.777789 239.096288 
L 95.001101 241.157209 
L 95.224412 233.554009 
L 95.447724 231.256348 
L 95.671036 236.40865 
L 95.894347 245.27905 
L 96.117659 246.30951 
L 96.564282 258.911774 
L 96.787594 242.354672 
L 97.010905 243.621872 
L 97.457529 264.927533 
L 97.68084 241.087472 
L 98.127464 239.263291 
L 98.350775 245.125812 
L 98.574087 241.560952 
L 98.797399 233.317269 
L 99.02071 240.920469 
L 99.244022 240.920469 
L 99.467334 239.653269 
L 99.690645 242.74465 
L 99.913957 238.94305 
L 100.137269 254.859669 
L 100.36058 236.882129 
L 100.583892 241.950929 
L 100.807204 252.798748 
L 101.030515 252.478507 
L 101.253827 255.569888 
L 101.477139 255.569888 
L 101.70045 258.661269 
L 101.923762 263.966809 
L 102.147074 253.592469 
L 102.370385 257.71431 
L 102.817009 253.355729 
L 103.04032 245.27905 
L 103.486943 250.668091 
L 103.710255 251.37831 
L 103.933567 250.34785 
L 104.156878 251.61505 
L 104.603502 207.722764 
L 104.826813 224.669843 
L 105.273437 215.242462 
L 105.72006 229.348666 
L 105.943372 232.440047 
L 106.166683 230.142386 
L 106.389995 223.959624 
L 106.613307 222.929164 
L 107.05993 225.547066 
L 107.283242 220.241526 
L 107.506553 226.340786 
L 107.729865 225.310326 
L 107.953177 226.424288 
L 108.176488 229.905647 
L 108.3998 223.332907 
L 108.623112 227.134507 
L 108.846423 226.104047 
L 109.069735 228.164967 
L 109.293047 226.897767 
L 109.516358 236.728891 
L 109.962981 241.881193 
L 110.409605 231.423352 
L 110.632916 232.453812 
L 111.07954 222.46945 
L 111.302851 226.27105 
L 111.526163 225.087352 
L 111.749475 223.026431 
L 111.972786 204.72865 
L 112.196098 205.75911 
L 112.642721 215.659971 
L 113.089345 218.277872 
L 113.312656 214.002793 
L 113.535968 211.941872 
L 113.75928 214.156031 
L 113.982591 203.294447 
L 114.205903 200.203066 
L 114.429215 212.721828 
L 114.652526 209.630447 
L 114.875838 219.768047 
L 115.09915 215.646205 
L 115.322461 213.822024 
L 115.545773 214.852485 
L 115.769085 219.211066 
L 115.992396 215.646205 
L 116.43902 236.255412 
L 116.662331 236.812393 
L 116.885643 239.667034 
L 117.332266 236.422415 
L 117.555578 224.934114 
L 117.778889 230.239653 
L 118.002201 223.666914 
L 118.225513 229.055955 
L 118.448824 224.697374 
L 118.672136 216.537193 
L 118.895448 219.071593 
L 119.118759 217.010672 
L 119.342071 220.338793 
L 119.565383 218.277872 
L 119.788694 217.720891 
L 120.012006 216.690431 
L 120.235318 220.338793 
L 120.458629 221.132514 
L 120.681941 215.506733 
L 120.905253 215.269993 
L 121.128564 215.506733 
L 121.351876 211.941872 
L 121.575188 210.201193 
L 121.798499 211.231653 
L 122.021811 211.468393 
L 122.468434 211.468393 
L 122.691746 214.323034 
L 122.915058 214.880015 
L 123.138369 217.734657 
L 123.361681 224.947879 
L 123.584992 225.97834 
L 123.808304 209.017495 
L 124.031616 215.353495 
L 124.254927 212.972333 
L 124.478239 173.494599 
L 124.701551 167.311837 
L 124.924862 169.846237 
L 125.148174 167.785316 
L 125.371486 157.480713 
L 125.818109 161.519052 
L 126.041421 162.549513 
L 126.264732 153.748849 
L 126.711356 156.84023 
L 126.934667 159.931611 
L 127.157979 157.07697 
L 127.381291 157.07697 
L 127.604602 155.016049 
L 128.051226 147.245846 
L 128.274537 151.924668 
L 128.497849 153.191868 
L 128.721161 153.428608 
L 129.167784 140.826344 
L 129.391096 141.856804 
L 129.614407 130.75848 
L 129.837719 136.621001 
L 130.284342 143.040503 
L 130.730965 124.812458 
L 130.954277 126.873379 
L 131.177589 116.805515 
L 131.4009 123.225017 
L 131.624212 116.248534 
L 131.847524 117.042255 
L 132.070835 120.370375 
L 132.294147 129.407779 
L 132.517459 126.316398 
L 132.74077 189.676398 
L 132.964082 181.432715 
L 133.187394 181.669455 
L 133.410705 183.967115 
L 133.634017 181.669455 
L 133.857329 202.835642 
L 134.08064 198.477061 
L 134.303952 199.507522 
L 134.527264 181.989696 
L 134.750575 184.050617 
L 134.973887 187.935718 
L 135.197199 184.370858 
L 135.42051 183.577137 
L 135.643822 184.370858 
L 135.867134 176.127175 
L 136.090445 175.333455 
L 136.313757 183.577137 
L 136.76038 181.279477 
L 136.983692 178.745077 
L 137.207004 179.218556 
L 137.430315 179.218556 
L 137.653627 178.745077 
L 137.876938 173.592775 
L 138.10025 180.485756 
L 138.323562 182.783417 
L 138.546873 180.959236 
L 138.770185 173.189032 
L 138.993497 171.601591 
L 139.216808 167.716489 
L 139.663432 141.63474 
L 139.886743 148.054241 
L 140.110055 149.794921 
L 140.333367 154.000264 
L 140.556678 152.496324 
L 140.77999 138.613095 
L 141.003302 91.448659 
L 141.226613 104.050923 
L 141.449925 108.646244 
L 141.673237 103.257202 
L 141.896548 93.189339 
L 142.11986 114.592266 
L 142.343172 114.355526 
L 142.566483 98.898621 
L 142.789795 99.929082 
L 143.013107 102.226742 
L 143.236418 101.990002 
L 143.45973 88.357278 
L 143.683042 89.624478 
L 143.906353 79.556615 
L 144.129665 85.976116 
L 144.352976 88.037037 
L 144.576288 92.395618 
L 144.7996 92.395618 
L 145.022911 94.456539 
L 145.246223 99.60884 
L 145.469535 130.285911 
L 146.13947 109.286726 
L 146.362781 122.91945 
L 146.586093 106.195345 
L 146.809405 101.043044 
L 147.032716 101.043044 
L 147.256028 104.607904 
L 147.47934 97.714923 
L 147.702651 100.012583 
L 148.149275 78.846396 
L 148.372586 84.235437 
L 148.81921 110.317187 
L 149.042521 106.989066 
L 149.265833 108.813247 
L 149.489145 112.141368 
L 149.712456 108.813247 
L 149.935768 91.782666 
L 150.15908 130.940159 
L 150.605703 125.314378 
L 150.829015 125.314378 
L 151.052326 124.283917 
L 151.275638 128.405759 
L 151.498949 122.543238 
L 151.722261 122.543238 
L 151.945573 124.047178 
L 152.168884 107.880054 
L 152.392196 103.284733 
L 152.615508 114.062816 
L 152.838819 112.001895 
L 153.062131 108.437035 
L 153.285443 112.642378 
L 153.508754 114.146317 
L 153.732066 102.811254 
L 153.955378 107.169835 
L 154.178689 99.956612 
L 154.402001 103.758212 
L 154.625313 87.827828 
L 154.848624 94.484069 
L 155.295248 99.636371 
L 155.518559 90.125488 
L 155.741871 92.423149 
L 156.188494 90.362228 
L 156.411806 87.270847 
L 156.635118 92.423149 
L 156.858429 109.063752 
L 157.081741 116.750454 
L 157.305053 119.758333 
L 157.528364 120.788793 
L 157.751676 109.063752 
L 157.974987 117.934152 
L 158.198299 119.995073 
L 158.421611 115.873231 
L 159.091546 112.78185 
L 159.314857 106.835828 
L 159.538169 104.538168 
L 159.761481 106.599088 
L 159.984792 103.187466 
L 160.208104 104.454666 
L 160.431416 98.271904 
L 160.654727 96.210983 
L 160.878039 92.089142 
L 161.101351 108.354443 
L 161.324662 105.263062 
L 161.547974 100.347499 
L 161.771286 90.042896 
L 162.217909 100.347499 
L 162.441221 112.476284 
L 162.664532 112.156043 
L 162.887844 117.781824 
L 163.111156 128.086427 
L 163.334467 124.995046 
L 163.557779 132.445008 
L 163.781091 133.475468 
L 164.451026 170.80878 
L 164.897649 122.460646 
L 165.12096 126.025506 
L 165.344272 121.666925 
L 165.567584 125.872268 
L 165.790895 133.085491 
L 166.014207 133.55897 
L 166.684142 138.39103 
L 166.907454 139.101249 
L 167.130765 126.665989 
L 167.354077 131.498049 
L 167.577389 139.421491 
L 167.8007 153.374456 
L 168.024012 159.000237 
L 168.247324 177.075044 
L 168.470635 156.312599 
L 168.693947 160.197701 
L 168.917259 157.10632 
L 169.14057 157.579799 
L 169.363882 161.70164 
L 169.587194 162.578863 
L 169.810505 172.563225 
L 170.033817 160.754682 
L 170.48044 166.784206 
L 170.703752 210.509488 
L 170.927064 189.426802 
L 171.150375 180.389399 
L 171.373687 182.923799 
L 171.596998 174.206637 
L 171.82031 173.649656 
L 172.043622 176.977777 
L 172.266933 190.610501 
L 172.490245 186.25192 
L 172.713557 198.380704 
L 172.936868 200.998606 
L 173.16018 217.485971 
L 173.383492 203.700009 
L 173.606803 200.608628 
L 173.830115 206.471149 
L 174.053427 202.586047 
L 174.276738 206.150907 
L 174.50005 205.120447 
L 174.723362 205.120447 
L 174.946673 215.188311 
L 175.169985 208.532069 
L 175.393297 207.501609 
L 175.616608 207.501609 
L 175.83992 211.86019 
L 176.063232 209.005549 
L 176.286543 214.15785 
L 176.509855 224.225714 
L 176.733167 220.897593 
L 176.956478 224.309216 
L 177.17979 216.065533 
L 177.403102 216.859254 
L 177.626413 235.324038 
L 178.073037 243.567721 
L 178.296348 240.2396 
L 178.51966 241.033321 
L 178.742971 232.316159 
L 178.966283 231.60594 
L 179.189595 235.40754 
L 179.412906 235.964521 
L 179.636218 236.994981 
L 179.85953 237.231721 
L 180.082841 236.438 
L 180.306153 228.277819 
L 180.529465 234.377079 
L 180.752776 234.613819 
L 180.976088 219.950635 
L 181.422711 224.309216 
L 181.646023 222.011555 
L 182.092646 227.163857 
L 182.315958 218.920174 
L 182.53927 222.011555 
L 182.762581 218.446695 
L 182.985893 221.301336 
L 183.209205 225.896657 
L 183.432516 225.896657 
L 183.655828 210.746228 
L 183.87914 216.845488 
L 184.102451 211.539949 
L 184.325763 218.906409 
L 184.549075 216.051768 
L 184.772386 215.341549 
L 184.995698 219.143149 
L 185.442321 213.433866 
L 185.665633 215.968266 
L 185.888944 205.747164 
L 186.112256 202.655783 
L 186.335568 193.465142 
L 186.558879 201.708825 
L 186.782191 200.915104 
L 187.005503 203.212764 
L 187.228814 201.945564 
L 187.452126 197.823723 
L 187.675438 220.49385 
L 187.898749 215.89853 
L 188.122061 215.104809 
L 188.345373 209.799269 
L 188.568684 210.982968 
L 188.791996 215.89853 
L 189.015308 213.043888 
L 189.238619 212.807149 
L 189.461931 225.172673 
L 189.685243 225.172673 
L 189.908554 222.875012 
L 190.131866 222.401533 
L 190.355178 218.279692 
L 190.578489 218.516431 
L 190.801801 217.485971 
L 191.025113 218.279692 
L 191.248424 224.462454 
L 191.471736 224.225714 
L 191.695048 222.164793 
L 191.918359 214.324854 
L 192.141671 212.820914 
L 192.364982 209.729533 
L 192.588294 213.294393 
L 192.811606 209.729533 
L 193.034917 201.179374 
L 193.258229 205.217714 
L 193.481541 199.912174 
L 193.704852 200.942635 
L 193.928164 198.881714 
L 194.151476 206.248174 
L 194.374787 201.095873 
L 194.821411 186.51619 
L 195.044722 186.51619 
L 195.268034 238.304387 
L 195.491346 238.304387 
L 195.714657 251.463631 
L 195.937969 244.250409 
L 196.161281 246.07459 
L 196.607904 244.250409 
L 196.831216 246.31133 
L 197.054527 246.07459 
L 197.724462 240.922288 
L 197.947774 241.479269 
L 198.171086 245.364371 
L 198.394397 245.127631 
L 198.617709 248.135511 
L 198.841021 245.364371 
L 199.064332 240.922288 
L 199.287644 239.334847 
L 199.510955 249.63945 
L 199.734267 235.853488 
L 199.957579 232.762107 
L 200.404202 230.701187 
L 200.627514 232.762107 
L 200.850825 238.861368 
L 201.074137 228.877006 
L 201.297449 229.907466 
L 201.52076 229.907466 
L 201.744072 235.059768 
L 201.967384 229.990968 
L 202.190695 229.517488 
L 202.414007 233.63933 
L 202.86063 225.952628 
L 203.083942 232.051888 
L 203.307254 233.082349 
L 203.530565 229.517488 
L 203.753877 228.487028 
L 203.977189 229.044009 
L 204.647124 232.13539 
L 204.870435 243.386952 
L 205.093747 236.96745 
L 205.317059 240.295571 
L 205.54037 235.70025 
L 205.763682 233.959571 
L 205.986993 250.446936 
L 206.210305 247.355555 
L 206.433617 245.851616 
L 206.656928 245.141397 
L 206.88024 246.171857 
L 207.326863 252.034378 
L 207.550175 251.087419 
L 207.996798 242.927238 
L 208.22011 247.522559 
L 208.443422 248.553019 
L 208.666733 248.553019 
L 208.890045 247.522559 
L 209.113357 248.553019 
L 209.336668 252.9116 
L 209.55998 249.820219 
L 210.006603 247.049079 
L 210.229915 250.61394 
L 210.676538 241.423298 
L 210.89985 242.217019 
L 211.123162 239.125638 
L 211.346473 224.699193 
L 211.793097 229.057774 
L 212.016408 228.821035 
L 212.23972 232.149155 
L 212.463032 231.118695 
L 212.686343 232.149155 
L 212.909655 230.881955 
L 213.132966 232.149155 
L 213.356278 232.622635 
L 213.57959 231.118695 
L 213.802901 231.912416 
L 214.026213 237.064717 
L 214.249525 234.767057 
L 214.472836 238.888898 
L 214.696148 239.682619 
L 214.91946 237.148219 
L 215.142771 238.652159 
L 215.366083 241.74354 
L 215.589395 242.774 
L 215.812706 236.438 
L 216.036018 239.20914 
L 216.25933 238.652159 
L 216.482641 290.481651 
L 216.929265 278.673108 
L 217.375888 280.497289 
L 217.5992 280.26055 
L 217.822511 270.192686 
L 218.269135 275.581727 
L 218.492446 275.344988 
L 218.715758 274.077788 
L 218.93907 270.512927 
L 219.385693 279.230089 
L 219.609005 268.215267 
L 219.832316 272.573848 
L 220.055628 270.986407 
L 220.278939 270.512927 
L 220.502251 273.604308 
L 220.948874 272.573848 
L 221.172186 270.276188 
L 221.395498 254.025562 
L 221.842121 260.124822 
L 222.065433 257.827162 
L 222.288744 258.620883 
L 222.512056 260.208324 
L 222.735368 263.773184 
L 222.958679 265.513864 
L 223.181991 265.277124 
L 223.405303 267.338045 
L 223.628614 266.307584 
L 224.075238 262.185743 
L 224.298549 264.483403 
L 224.521861 289.534693 
L 224.745173 285.733093 
L 224.968484 277.48941 
L 225.191796 276.45895 
L 225.415108 270.596429 
L 225.638419 270.596429 
L 225.861731 272.573848 
L 226.085043 302.123191 
L 226.308354 293.642769 
L 226.531666 297.76461 
L 226.978289 284.842105 
L 227.201601 288.170226 
L 227.424912 284.131886 
L 227.648224 288.490467 
L 228.094847 291.42861 
L 228.318159 297.054391 
L 228.764782 289.92467 
L 228.988094 297.137893 
L 229.434717 305.855055 
L 229.658029 296.817651 
L 229.881341 301.176232 
L 230.104652 289.367689 
L 230.551276 281.207508 
L 230.774587 279.146588 
L 230.997899 281.207508 
L 231.221211 286.833289 
L 231.444522 286.833289 
L 231.667834 289.451191 
L 231.891146 286.916791 
L 232.114457 288.740972 
L 232.337769 288.740972 
L 232.561081 292.862813 
L 232.784392 293.893274 
L 233.007704 290.801893 
L 233.231016 290.328413 
L 233.677639 284.145651 
L 233.90095 269.022753 
L 234.347574 258.954889 
L 234.794197 255.863508 
L 235.017509 258.397908 
L 235.24082 259.428369 
L 235.464132 255.543267 
L 235.687444 259.665108 
L 236.134067 256.573727 
L 236.58069 243.414483 
L 236.804002 250.627705 
L 237.027314 250.154226 
L 237.250625 250.154226 
L 237.473937 247.773064 
L 237.697249 251.337924 
L 237.92056 257.047207 
L 238.143872 253.955826 
L 238.367184 260.291826 
L 238.590495 258.787886 
L 238.813807 260.848807 
L 239.037119 252.605124 
L 239.26043 255.933245 
L 239.483742 254.902784 
L 239.707054 259.261365 
L 239.930365 260.528565 
L 240.153677 259.498105 
L 240.6003 276.305712 
L 240.823612 270.443191 
L 241.046923 270.443191 
L 241.270235 268.38227 
L 241.94017 274.008051 
L 242.163482 273.534572 
L 242.386793 276.152474 
L 242.610105 276.946194 
L 242.833417 280.747794 
L 243.056728 278.686874 
L 243.28004 277.976655 
L 243.503352 280.747794 
L 243.726663 275.595493 
L 243.949975 285.663356 
L 244.173287 278.213394 
L 244.396598 274.885274 
L 244.61991 285.189877 
L 244.843222 288.838239 
L 245.066533 290.66242 
L 245.513157 291.135899 
L 245.736468 297.081922 
L 245.95978 292.486601 
L 246.183092 292.486601 
L 246.629715 289.952201 
L 246.853027 292.249861 
L 247.076338 290.188941 
L 247.522961 296.608442 
L 247.746273 290.188941 
L 247.969585 290.982661 
L 248.192896 288.685001 
L 248.63952 290.745922 
L 248.862831 287.417801 
L 249.086143 290.745922 
L 249.309455 289.715461 
L 249.532766 291.539642 
L 249.97939 286.944322 
L 250.202701 289.478722 
L 250.426013 287.417801 
L 250.649325 289.715461 
L 250.872636 284.883401 
L 251.095948 194.285484 
L 251.31926 299.866827 
L 251.542571 296.858947 
L 251.765883 298.683128 
L 251.989195 297.889408 
L 252.212506 296.622208 
L 252.435818 293.057347 
L 252.65913 300.27057 
L 252.882441 294.408049 
L 253.105753 297.179189 
L 253.329065 295.438509 
L 253.552376 295.438509 
L 253.775688 291.316668 
L 253.998999 293.377589 
L 254.222311 294.171309 
L 254.445623 294.408049 
L 254.668934 294.171309 
L 254.892246 294.171309 
L 255.115558 294.408049 
L 255.562181 291.636909 
L 255.785493 289.102509 
L 256.232116 295.20177 
L 256.455428 294.171309 
L 256.678739 292.514132 
L 256.902051 294.575052 
L 257.125363 292.277392 
L 257.348674 292.277392 
L 257.571986 298.223414 
L 257.795298 296.956214 
L 258.018609 294.658554 
L 258.241921 293.628094 
L 258.465233 295.925754 
L 258.688544 295.132033 
L 259.135168 296.956214 
L 260.028414 288.475792 
L 260.251726 288.475792 
L 260.475038 290.773452 
L 260.698349 285.621151 
L 260.921661 285.621151 
L 261.368284 272.698646 
L 261.591596 271.668185 
L 261.814907 265.958903 
L 262.038219 274.202585 
L 262.261531 274.202585 
L 262.484842 277.530706 
L 262.708154 286.721347 
L 262.931466 286.164366 
L 263.154777 282.836246 
L 263.378089 275.469785 
L 263.824712 282.446268 
L 264.048024 273.965846 
L 264.271336 275.790027 
L 264.494647 275.790027 
L 264.717959 277.614208 
L 264.941271 280.705589 
L 265.164582 278.407928 
L 265.387894 281.26257 
L 265.611206 275.079808 
L 265.834517 264.064985 
L 266.057829 270.637725 
L 266.281141 261.600322 
L 266.504452 264.928442 
L 266.727764 266.432382 
L 266.951076 255.654299 
L 267.174387 258.508941 
L 267.397699 258.508941 
L 267.621011 264.691703 
L 268.067634 270.637725 
L 268.290945 268.340065 
L 268.514257 273.018887 
L 268.737569 271.514947 
L 268.96088 268.186827 
L 269.184192 267.156366 
L 269.407504 271.514947 
L 269.630815 262.714284 
L 269.854127 264.301725 
L 270.077439 256.851763 
L 270.30075 256.851763 
L 270.524062 260.179884 
L 270.747374 261.210344 
L 270.970685 252.966661 
L 271.193997 255.501061 
L 271.417309 241.24162 
L 271.64062 252.813423 
L 271.863932 256.141544 
L 272.087244 249.248563 
L 272.310555 250.515763 
L 272.533867 249.248563 
L 272.757179 242.829061 
L 272.98049 244.889982 
L 273.203802 244.333001 
L 273.427114 247.661122 
L 273.650425 246.867401 
L 273.873737 257.645484 
L 274.097049 251.072744 
L 274.543672 246.477423 
L 274.766983 247.507884 
L 274.990295 247.507884 
L 275.213607 245.920442 
L 275.436918 247.187642 
L 275.883542 239.500941 
L 276.106853 241.798601 
L 276.330165 241.798601 
L 276.776788 247.424382 
L 277.0001 246.157182 
L 277.223412 245.683703 
L 277.446723 242.118842 
L 277.670035 242.675823 
L 277.893347 241.645363 
L 278.116658 242.675823 
L 278.33997 248.148366 
L 278.563282 248.148366 
L 278.786593 255.91857 
L 279.009905 245.377227 
L 279.233217 241.812366 
L 279.456528 226.759204 
L 279.67984 229.934087 
L 279.903152 227.399687 
L 280.126463 227.873166 
L 280.349775 225.338766 
L 280.573087 225.338766 
L 280.796398 224.071566 
L 281.243022 225.812246 
L 281.466333 221.927144 
L 281.689645 224.781785 
L 281.912956 226.048985 
L 282.136268 226.048985 
L 282.35958 225.812246 
L 282.582891 223.277846 
L 282.806203 231.521528 
L 283.029515 225.338766 
L 283.252826 225.338766 
L 283.476138 219.712985 
L 283.69945 209.645122 
L 283.922761 209.645122 
L 284.146073 204.72956 
L 284.369385 206.553741 
L 284.592696 206.553741 
L 284.816008 204.966299 
L 285.03932 207.500699 
L 285.485943 199.257017 
L 285.709255 199.257017 
L 285.932566 199.730496 
L 286.155878 199.730496 
L 286.37919 200.287477 
L 286.602501 196.722617 
L 286.825813 195.692156 
L 287.049125 198.783537 
L 287.495748 193.631236 
L 287.71906 192.600775 
L 287.942371 190.303115 
L 288.165683 190.303115 
L 288.388994 186.974994 
L 288.612306 204.966299 
L 288.835618 200.844458 
L 289.058929 198.783537 
L 289.505553 208.684398 
L 289.728864 213.516458 
L 289.952176 205.439779 
L 290.175488 212.249258 
L 290.398799 210.188337 
L 290.622111 212.012518 
L 290.845423 210.982058 
L 291.068734 196.722617 
L 291.515358 196.722617 
L 291.961981 193.631236 
L 292.185293 192.600775 
L 292.408604 188.799175 
L 293.078539 188.799175 
L 293.301851 190.860096 
L 293.525163 201.164699 
L 293.748474 200.287477 
L 293.971786 196.722617 
L 294.195098 198.783537 
L 294.418409 194.271718 
L 294.641721 184.997575 
L 294.865033 184.997575 
L 295.088344 194.104715 
L 295.534967 181.892429 
L 295.758279 182.129169 
L 295.981591 184.426829 
L 296.204902 181.098708 
L 296.428214 180.861969 
L 296.651526 170.083886 
L 296.874837 179.037788 
L 297.098149 177.770588 
L 297.321461 180.068248 
L 297.544772 181.098708 
L 297.768084 181.098708 
L 297.991396 180.068248 
L 298.214707 180.068248 
L 298.438019 182.839388 
L 298.661331 182.839388 
L 298.884642 181.335448 
L 299.331266 183.396369 
L 299.777889 187.601712 
L 300.001201 186.25101 
L 300.224512 182.21267 
L 300.447824 184.273591 
L 300.671136 188.311931 
L 301.117759 198.226556 
L 301.341071 196.959356 
L 302.011006 186.654753 
L 302.234317 187.921953 
L 302.457629 191.807055 
L 302.68094 191.333575 
L 302.904252 196.012398 
L 303.127564 196.012398 
L 303.350875 195.455417 
L 303.574187 200.370979 
L 303.797499 196.806118 
L 304.02081 199.981001 
L 304.244122 201.484941 
L 304.467434 201.95842 
L 304.690745 197.92008 
L 304.914057 232.844699 
L 305.137369 229.279839 
L 305.36068 222.540096 
L 305.807304 220.715915 
L 306.030615 217.387794 
L 306.253927 218.654994 
L 306.477239 223.013575 
L 306.70055 220.715915 
L 306.923862 220.158934 
L 307.147174 223.723794 
L 307.370485 223.013575 
L 307.593797 223.013575 
L 307.817109 224.280775 
L 308.04042 227.845636 
L 308.263732 226.341696 
L 308.487044 222.776836 
L 308.710355 221.746375 
L 308.933667 225.868217 
L 309.38029 221.509636 
L 309.603602 222.540096 
L 309.826913 222.776836 
L 310.050225 222.776836 
L 310.273537 223.013575 
L 310.496848 222.219855 
L 310.72016 226.815175 
L 310.943472 226.815175 
L 311.166783 225.311236 
L 311.390095 226.104956 
L 311.836718 235.379099 
L 312.06003 234.348639 
L 312.283342 245.210223 
L 312.506653 246.003944 
L 313.176588 240.057922 
L 313.3999 236.493061 
L 313.623212 239.347703 
L 313.846523 236.813303 
L 314.069835 230.630541 
L 314.293147 236.493061 
L 314.516458 232.37122 
L 314.73977 233.40168 
L 314.963082 230.07356 
L 315.186393 229.279839 
L 315.409705 223.890798 
L 315.633017 225.157998 
L 315.856328 224.921258 
L 316.07964 225.478239 
L 316.302951 222.386858 
L 316.526263 225.951718 
L 316.749575 223.890798 
L 316.972886 220.325937 
L 317.41951 222.066617 
L 317.866133 226.425198 
L 318.312756 224.601017 
L 318.536068 225.868217 
L 318.75938 226.104956 
L 318.982691 227.692398 
L 319.206003 224.044036 
L 319.429315 226.661937 
L 319.875938 222.066617 
L 320.322561 224.601017 
L 320.545873 224.127537 
L 320.769185 222.860337 
L 320.992496 226.508699 
L 321.215808 223.417318 
L 321.43912 222.860337 
L 321.662431 226.661937 
L 321.885743 216.914315 
L 322.332366 220.799417 
L 322.555678 227.929137 
L 322.778989 227.929137 
L 323.002301 228.959598 
L 323.895548 219.295477 
L 324.342171 223.890798 
L 324.565483 223.890798 
L 324.788794 222.623598 
L 325.012106 223.654058 
L 325.235418 220.089198 
L 325.458729 219.058737 
L 326.128664 222.707099 
L 326.351976 225.79848 
L 326.575288 223.73756 
L 326.798599 223.73756 
L 327.245223 222.707099 
L 327.691846 225.79848 
L 327.915158 224.76802 
L 328.138469 227.06568 
L 328.361781 227.06568 
L 328.585093 226.03522 
L 328.808404 227.06568 
L 329.031716 228.889861 
L 329.255028 224.294541 
L 329.478339 227.06568 
L 329.701651 220.172699 
L 329.924962 223.180579 
L 330.148274 220.172699 
L 330.594897 220.172699 
L 330.818209 221.20316 
L 331.041521 224.76802 
L 331.264832 223.26408 
L 331.711456 224.851522 
L 331.934767 243.553046 
L 332.158079 245.613966 
L 332.381391 243.316306 
L 332.604702 245.850706 
L 332.828014 246.087446 
L 333.051326 243.553046 
L 333.274637 245.613966 
L 333.497949 243.316306 
L 333.721261 243.079566 
L 333.944572 243.553046 
L 334.167884 243.316306 
L 334.391196 240.781906 
L 334.614507 243.079566 
L 335.061131 240.545166 
L 335.507754 242.606087 
L 335.731066 245.697468 
L 335.954377 245.460728 
L 336.177689 246.964668 
L 336.624312 242.689589 
L 337.070935 244.193528 
L 337.294247 241.895868 
L 337.517559 241.338887 
L 337.964182 239.277966 
L 338.187494 239.277966 
L 338.410805 240.545166 
L 338.634117 240.308427 
L 338.857429 240.308427 
L 339.08074 239.277966 
L 339.527364 241.575627 
L 339.750675 239.277966 
L 339.973987 239.041227 
L 340.197299 237.300547 
L 340.643922 239.834947 
L 340.867234 237.537287 
L 341.090545 237.774027 
L 341.313857 238.804487 
L 341.537169 239.041227 
L 341.76048 240.071687 
L 341.983792 237.300547 
L 342.207104 237.300547 
L 342.430415 241.895868 
L 342.653727 239.361468 
L 342.877039 234.766147 
L 343.10035 237.300547 
L 343.323662 237.857528 
L 343.546973 239.44497 
L 343.770285 247.284909 
L 343.993597 247.04817 
L 344.216908 243.00983 
L 344.44022 243.00983 
L 344.663532 249.192592 
L 345.110155 251.016773 
L 345.333467 253.077694 
L 345.556778 249.986313 
L 346.003402 241.352652 
L 346.226713 247.215173 
L 346.450025 247.215173 
L 346.896648 241.909633 
L 347.11996 244.123792 
L 347.343272 245.154252 
L 347.566583 242.383113 
L 347.789895 243.413573 
L 348.013207 246.184713 
L 348.236518 238.818252 
L 348.45983 240.322192 
L 348.683142 236.200351 
L 349.353077 245.474494 
L 349.576388 240.642433 
L 350.023012 248.175897 
L 350.246323 250.236818 
L 350.469635 251.030538 
L 350.692946 250.793799 
L 350.916258 245.168018 
L 351.13957 248.732878 
L 351.362881 247.939157 
L 351.586193 240.725935 
L 351.809505 240.489195 
L 352.032816 233.275973 
L 352.256128 237.634554 
L 352.47944 239.375233 
L 352.702751 242.703354 
L 352.926063 238.581513 
L 353.149375 238.344773 
L 353.372686 239.138494 
L 353.595998 237.077573 
L 353.81931 238.344773 
L 354.042621 237.077573 
L 354.265933 239.611973 
L 354.489245 240.879173 
L 354.712556 240.642433 
L 354.935868 241.199414 
L 355.15918 239.932214 
L 355.382491 243.260335 
L 355.605803 242.550116 
L 356.052426 234.863414 
L 356.49905 239.458735 
L 356.722361 239.458735 
L 356.945673 238.985256 
L 357.168984 236.924335 
L 357.392296 239.458735 
L 357.615608 238.428275 
L 357.838919 231.772033 
L 358.508854 239.932214 
L 358.732166 237.397814 
L 359.178789 239.695475 
L 359.402101 238.901754 
L 359.625413 238.901754 
L 360.072036 247.382176 
L 360.295348 248.412637 
L 360.741971 219.740516 
L 360.965283 213.557754 
L 361.188594 223.778856 
L 361.411906 221.717935 
L 361.635218 221.481195 
L 362.081841 225.839776 
L 362.305153 228.137437 
L 362.528464 234.083459 
L 362.751776 229.724878 
L 362.975088 229.488138 
L 363.198399 233.052999 
L 363.421711 223.862357 
L 363.645023 224.656078 
L 363.868334 227.510719 
L 364.091646 223.388878 
L 364.314957 224.656078 
L 364.538269 226.716999 
L 364.761581 226.716999 
L 364.984892 227.984199 
L 365.208204 226.953738 
L 365.431516 230.045119 
L 365.654827 236.227881 
L 365.878139 238.288802 
L 366.324762 232.189542 
L 366.548074 234.723942 
L 366.771386 232.189542 
L 366.994697 227.594221 
L 367.218009 236.784862 
L 367.441321 236.784862 
L 367.664632 236.548123 
L 367.887944 238.609043 
L 368.111256 246.059005 
L 368.334567 245.822266 
L 368.781191 239.959745 
L 369.004502 239.723005 
L 369.227814 239.723005 
L 369.674437 225.700304 
L 369.897749 226.173783 
L 370.121061 227.914462 
L 370.344372 227.914462 
L 370.567684 228.234704 
L 370.790995 229.028424 
L 371.014307 229.265164 
L 371.237619 232.036304 
L 371.46093 227.204243 
L 371.684242 228.234704 
L 371.907554 227.204243 
L 372.354177 237.188605 
L 372.577489 235.447926 
L 372.8008 184.9829 
L 373.024112 178.563399 
L 373.247424 191.959383 
L 373.470735 195.050764 
L 373.694047 190.218704 
L 373.917359 200.523307 
L 374.14067 192.836605 
L 374.363982 194.340545 
L 374.587294 182.295262 
L 374.810605 181.264802 
L 375.033917 182.295262 
L 375.48054 177.142961 
L 375.927164 177.61644 
L 376.373787 172.464138 
L 376.82041 184.592923 
L 377.043722 182.532002 
L 377.267034 185.066402 
L 377.713657 194.730523 
L 378.16028 190.302205 
L 378.606903 197.752167 
L 378.830215 196.721707 
L 379.053527 200.843548 
L 379.50015 199.019367 
L 380.170085 188.561526 
L 380.393397 187.294326 
L 380.616708 188.324786 
L 380.84002 188.324786 
L 381.063332 188.561526 
L 381.286643 190.859186 
L 381.509955 191.332666 
L 381.733267 192.363126 
L 381.956578 186.737345 
L 382.17989 187.531066 
L 382.403202 185.553647 
L 382.626513 179.134145 
L 382.849825 184.996666 
L 383.073137 182.935745 
L 383.296448 182.699005 
L 383.51976 180.164605 
L 383.743072 180.164605 
L 383.966383 177.630205 
L 384.189695 177.630205 
L 384.413007 178.660666 
L 384.636318 183.812967 
L 384.85963 178.980907 
L 385.082941 178.980907 
L 385.306253 171.851186 
L 385.529565 176.919986 
L 385.752876 178.423926 
L 385.976188 174.859066 
L 386.1995 174.859066 
L 386.422811 171.767685 
L 386.646123 175.889526 
L 386.869435 176.919986 
L 387.092746 182.225526 
L 387.316058 178.423926 
L 387.53937 179.454386 
L 387.762681 178.423926 
L 387.985993 175.889526 
L 388.209305 177.393466 
L 388.432616 174.859066 
L 388.655928 173.591866 
L 388.87924 174.705828 
L 389.102551 177.560469 
L 389.325863 172.965148 
L 389.549175 176.766748 
L 389.772486 177.240228 
L 389.995798 175.736288 
L 390.21911 175.736288 
L 390.442421 172.408167 
L 390.665733 171.934688 
L 390.889045 171.934688 
L 391.112356 172.171428 
L 391.335668 171.140967 
L 391.558979 173.438628 
L 392.005603 169.316786 
L 392.452226 175.652786 
L 392.675538 175.652786 
L 392.898849 172.087926 
L 393.122161 174.538824 
L 393.345473 171.140967 
L 393.568784 188.422053 
L 393.792096 189.689253 
L 394.015408 182.796272 
L 394.238719 184.857193 
L 394.685343 178.994672 
L 394.908654 179.468152 
L 395.131966 181.529072 
L 395.355278 181.055593 
L 395.578589 170.430748 
L 395.801901 171.697948 
L 396.025213 168.369828 
L 396.248524 172.171428 
L 396.471836 171.697948 
L 396.695148 177.88071 
L 397.141771 167.896348 
L 397.588394 173.758869 
L 397.811706 173.04865 
L 398.035018 175.81979 
L 398.258329 175.429812 
L 398.481641 179.788393 
L 398.704952 180.261872 
L 398.928264 176.697012 
L 399.151576 176.697012 
L 399.598199 178.521193 
L 399.821511 176.223533 
L 400.044822 177.490733 
L 400.268134 179.551653 
L 400.491446 179.788393 
L 400.714757 181.292333 
L 400.938069 179.788393 
L 401.161381 177.490733 
L 401.384692 187.642098 
L 401.608004 172.742174 
L 401.831316 170.681253 
L 402.054627 170.681253 
L 402.277939 171.711714 
L 402.501251 173.772634 
L 402.724562 165.528952 
L 402.947874 168.300091 
L 403.171186 166.239171 
L 403.617809 172.101691 
L 403.841121 171.864952 
L 404.064432 169.330552 
L 404.287744 172.895412 
L 404.511056 170.040771 
L 404.734367 171.307971 
L 404.957679 170.040771 
L 405.18099 170.040771 
L 405.404302 168.21659 
L 405.627614 168.21659 
L 405.850925 167.186129 
L 406.074237 172.01819 
L 406.297549 170.040771 
L 406.52086 166.47591 
L 406.744172 174.636091 
L 406.967484 173.132152 
L 407.190795 173.132152 
L 407.637419 166.002431 
L 407.86073 166.002431 
L 408.084042 164.971971 
L 408.307354 166.47591 
L 408.753977 172.101691 
L 408.977289 170.597752 
L 409.2006 163.94151 
L 409.423912 164.971971 
L 409.870535 171.948453 
L 410.093847 170.681253 
L 410.317159 168.383593 
L 410.54047 169.414053 
L 410.763782 164.818733 
L 410.987094 165.849193 
L 411.210405 161.017133 
L 411.433717 165.849193 
L 411.657029 165.375714 
L 411.88034 162.047593 
L 412.103652 162.604574 
L 412.326963 165.695955 
L 412.550275 163.161555 
L 412.773587 168.787336 
L 412.996898 168.787336 
L 413.22021 162.924815 
L 413.443522 167.756876 
L 413.666833 166.726415 
L 413.890145 162.924815 
L 414.113457 162.924815 
L 414.336768 161.894355 
L 414.56008 165.695955 
L 414.783392 163.955276 
L 415.006703 167.756876 
L 415.230015 166.963155 
L 415.676638 161.420876 
L 415.89995 166.016196 
L 416.123262 163.481796 
L 416.346573 167.4504 
L 416.569885 158.733238 
L 417.016508 160.08394 
L 417.463132 158.023019 
L 417.686443 159.8472 
L 417.909755 162.938581 
L 418.356378 156.28234 
L 418.57969 149.069117 
L 418.803002 156.672317 
L 419.026313 159.206717 
L 419.249625 159.206717 
L 419.696248 161.267638 
L 419.91956 161.267638 
L 420.142871 157.702777 
L 420.366183 157.702777 
L 420.589495 157.466038 
L 420.812806 157.466038 
L 421.036118 156.435577 
L 421.25943 157.466038 
L 421.706053 149.375593 
L 421.929365 151.436514 
L 422.152676 146.604453 
L 422.375988 144.863774 
L 422.5993 153.497434 
L 422.822611 152.703714 
L 423.045923 155.238114 
L 423.269235 152.703714 
L 423.492546 130.660304 
L 423.715858 132.247745 
L 423.93917 131.133783 
L 424.162481 131.133783 
L 424.385793 130.103323 
L 424.609105 139.057224 
L 424.832416 134.225164 
L 425.055728 133.751685 
L 425.27904 135.812605 
L 425.502351 139.377466 
L 425.725663 139.377466 
L 426.172286 135.018885 
L 426.395598 137.079805 
L 426.618909 135.812605 
L 426.842221 132.247745 
L 427.065533 137.873526 
L 427.288844 138.903986 
L 427.735468 133.278205 
L 428.182091 139.140726 
L 428.628714 129.156364 
L 428.852026 130.186824 
L 429.075338 133.278205 
L 429.521961 133.278205 
L 429.745273 127.652424 
L 429.968584 130.186824 
L 430.191896 128.125904 
L 430.415208 118.141542 
L 430.638519 125.034523 
L 430.861831 127.095443 
L 431.085143 122.263383 
L 431.308454 128.446145 
L 431.531766 128.446145 
L 431.755078 171.78145 
L 431.978389 156.881526 
L 432.201701 158.385466 
L 432.425013 162.980786 
L 432.648324 153.233164 
L 432.871636 157.828485 
L 433.094947 157.034764 
L 433.318259 148.554342 
L 433.764882 153.386402 
L 433.988194 152.355942 
L 434.211506 154.416862 
L 434.434817 147.050402 
L 434.658129 156.157542 
L 434.881441 154.096621 
L 435.104752 155.127081 
L 435.328064 153.53964 
L 435.551376 155.600561 
L 435.774687 155.127081 
L 435.997999 157.661481 
L 436.221311 158.134961 
L 436.444622 156.631021 
L 436.891246 171.753919 
L 437.114557 172.3109 
L 437.337869 173.341361 
L 437.561181 175.165542 
L 437.784492 171.363942 
L 438.007804 172.394402 
L 438.231116 168.829542 
L 438.454427 168.829542 
L 438.677739 169.860002 
L 438.901051 156.157542 
L 439.124362 164.234221 
L 439.347674 163.203761 
L 439.794297 159.081919 
L 440.464232 163.760742 
L 440.910855 169.066281 
L 441.357479 169.066281 
L 441.58079 166.295142 
L 441.804102 169.066281 
L 442.027414 168.035821 
L 442.250725 168.035821 
L 442.474037 167.005361 
L 442.697349 160.11238 
L 443.143972 173.188123 
L 443.367284 178.813904 
L 443.590595 175.249043 
L 443.813907 174.775564 
L 444.037219 172.477904 
L 444.26053 172.004424 
L 444.483842 179.217647 
L 444.707154 180.011367 
L 445.153777 185.400409 
L 445.377089 185.400409 
L 445.6004 177.476967 
L 446.047024 181.041828 
L 446.270335 182.072288 
L 446.493647 183.659729 
L 446.716958 181.362069 
L 446.94027 181.598809 
L 447.163582 182.629269 
L 447.386893 182.629269 
L 447.610205 180.011367 
L 447.833517 182.309028 
L 448.056828 185.873888 
L 448.28014 182.072288 
L 448.503452 183.102748 
L 448.726763 183.102748 
L 448.950075 182.629269 
L 449.173387 184.69019 
L 449.396698 194.994793 
L 449.62001 185.48391 
L 449.843322 183.979971 
L 450.066633 186.040891 
L 450.289945 184.536952 
L 450.513257 185.093933 
L 450.736568 183.033012 
L 450.95988 183.033012 
L 451.406503 185.567412 
L 451.629815 189.132272 
L 452.076438 185.48391 
L 452.29975 179.941631 
L 452.523062 180.972091 
L 452.746373 183.506491 
L 452.969685 178.911171 
L 453.192996 178.911171 
L 453.416308 182.476031 
L 453.862931 176.85025 
L 454.086243 180.41511 
L 454.309555 180.41511 
L 454.532866 179.941631 
L 454.756178 180.972091 
L 454.97949 180.735352 
L 455.202801 178.757933 
L 455.426113 180.025133 
L 455.649425 180.261872 
L 455.872736 180.261872 
L 456.096048 182.796272 
L 456.31936 182.322793 
L 456.542671 189.299276 
L 456.989295 183.673495 
L 457.435918 172.101691 
L 457.65923 172.101691 
L 458.105853 176.460272 
L 458.329165 180.818853 
L 458.552476 180.345374 
L 458.775788 176.307034 
L 459.222411 174.009374 
L 459.445723 174.009374 
L 459.669035 175.276574 
L 459.892346 175.039834 
L 460.115658 176.307034 
L 460.338969 174.009374 
L 460.562281 174.009374 
L 460.785593 173.215653 
L 461.008904 174.246114 
L 461.232216 173.215653 
L 461.455528 188.366083 
L 461.678839 171.641977 
L 461.902151 170.138038 
L 462.125463 167.520136 
L 462.348774 167.520136 
L 462.572086 159.833434 
L 462.795398 161.894355 
L 463.018709 166.726415 
L 463.242021 166.963155 
L 463.465333 167.520136 
L 463.911956 165.459215 
L 464.135268 166.726415 
L 464.358579 166.726415 
L 464.581891 165.932695 
L 464.805203 163.871774 
L 465.028514 163.314793 
L 465.251826 156.101571 
L 465.475138 159.666431 
L 465.698449 160.696891 
L 466.145073 154.597631 
L 466.591696 159.192952 
L 466.815008 157.132031 
L 467.038319 159.903171 
L 467.261631 166.879653 
L 467.484942 164.345253 
L 467.931566 164.345253 
L 468.154877 163.635034 
L 468.601501 165.695955 
L 468.824812 165.459215 
L 469.048124 162.367834 
L 469.271436 156.742053 
L 469.494747 159.276453 
L 469.941371 161.574114 
L 470.164682 161.810853 
L 470.387994 165.375714 
L 470.611306 166.406174 
L 470.834617 168.787336 
L 471.057929 168.787336 
L 471.281241 167.520136 
L 471.504552 164.985736 
L 471.727864 166.489676 
L 471.951176 164.985736 
L 472.174487 164.985736 
L 472.397799 163.481796 
L 472.621111 163.718536 
L 473.067734 160.947396 
L 473.291046 160.947396 
L 473.514357 162.534838 
L 473.737669 158.176257 
L 473.96098 157.145796 
L 474.184292 158.176257 
L 474.407604 155.641857 
L 474.630915 160.237177 
L 474.854227 162.534838 
L 475.30085 158.176257 
L 475.524162 159.443457 
L 475.747474 158.496498 
L 476.194097 158.496498 
L 476.417409 157.702777 
L 476.64072 159.206717 
L 476.864032 159.206717 
L 477.087344 157.702777 
L 477.310655 160.237177 
L 477.533967 160.237177 
L 477.757279 156.672317 
L 478.203902 160.947396 
L 478.427214 160.947396 
L 478.650525 157.145796 
L 478.873837 157.145796 
L 479.097149 156.115336 
L 479.32046 177.741238 
L 479.543772 182.6568 
L 479.767084 180.1224 
L 479.990395 181.62634 
L 480.66033 173.7864 
L 480.883642 178.061479 
L 481.330265 173.939638 
L 481.553577 178.534958 
L 482.0002 172.198958 
L 482.446823 180.916121 
L 482.893447 174.81686 
L 483.116758 175.847321 
L 483.34007 174.343381 
L 483.563382 178.938702 
L 483.786693 171.808981 
L 484.010005 171.808981 
L 484.233317 172.839441 
L 484.456628 175.373841 
L 484.67994 200.801343 
L 484.903252 200.327864 
L 485.126563 206.984105 
L 485.349875 206.510626 
L 485.573187 209.602007 
L 485.796498 208.098067 
L 486.01981 208.098067 
L 486.243122 206.037146 
L 486.466433 210.479229 
L 486.689745 217.692451 
L 486.913057 207.944829 
L 487.136368 217.218972 
L 487.35968 217.218972 
L 487.582991 214.127591 
L 487.806303 215.715032 
L 488.029615 211.593191 
L 488.252926 214.127591 
L 488.476238 208.822051 
L 488.69955 214.127591 
L 488.922861 214.684572 
L 489.146173 213.417372 
L 489.369485 213.180632 
L 489.592796 218.569674 
L 490.03942 232.04916 
L 490.262731 229.751499 
L 490.486043 235.460782 
L 490.932666 231.895922 
L 491.155978 220.003877 
L 491.37929 222.064798 
L 491.602601 215.882036 
L 492.049225 220.157115 
L 492.272536 222.218036 
L 492.495848 218.096194 
L 492.71916 221.187575 
L 492.942471 225.866398 
L 493.165783 223.568737 
L 493.389095 228.24756 
L 493.612406 229.835001 
L 493.835718 229.361522 
L 494.05903 229.835001 
L 494.282341 228.804541 
L 494.505653 227.063861 
L 494.728964 228.331061 
L 494.952276 226.033401 
L 495.175588 225.796661 
L 495.398899 218.026458 
L 495.845523 223.17876 
L 496.068834 220.017642 
L 496.292146 218.513703 
L 496.738769 212.651182 
L 496.962081 213.444903 
L 497.185393 201.873099 
L 497.408704 209.323061 
L 497.632016 207.025401 
L 497.855328 207.819122 
L 498.078639 206.551922 
L 498.301951 202.750322 
L 498.525263 207.429144 
L 498.748574 214.795604 
L 498.971886 214.795604 
L 499.195198 210.994004 
L 499.418509 212.024465 
L 499.641821 212.024465 
L 499.865133 214.795604 
L 500.088444 215.826065 
L 500.311756 221.298608 
L 500.535068 222.329068 
L 500.758379 221.855589 
L 500.981691 212.024465 
L 501.205003 212.497944 
L 501.428314 214.558865 
L 501.651626 212.497944 
L 501.874937 199.352465 
L 502.098249 196.581325 
L 502.321561 196.581325 
L 502.544872 193.489944 
L 502.768184 185.803242 
L 502.991496 186.276722 
L 503.214807 188.254141 
L 503.438119 193.086201 
L 503.661431 192.055741 
L 503.884742 190.315061 
L 504.108054 191.345522 
L 504.331366 194.353401 
L 504.777989 196.177582 
L 505.001301 195.147122 
L 505.224612 201.650125 
L 505.447924 203.947785 
L 505.671236 201.413385 
L 505.894547 203.474306 
L 506.117859 204.421265 
L 506.341171 196.818065 
L 506.564482 195.550865 
L 506.787794 196.581325 
L 507.011106 195.550865 
L 507.457729 200.382925 
L 507.681041 221.785852 
L 507.904352 217.664011 
L 508.127664 225.434214 
L 508.350975 219.808433 
L 508.574287 219.808433 
L 508.797599 212.511709 
L 509.02091 212.748449 
L 509.244222 208.626608 
L 509.690845 212.511709 
L 510.137469 201.817128 
L 510.36078 211.717989 
L 510.584092 214.015649 
L 510.807404 214.80937 
L 511.030715 212.511709 
L 511.254027 218.694471 
L 511.477339 219.961671 
L 511.70065 216.87029 
L 511.923962 216.633551 
L 512.147274 209.50383 
L 512.593897 217.664011 
L 513.04052 215.129611 
L 513.263832 217.427271 
L 513.487144 215.366351 
L 513.710455 211.564751 
L 513.933767 179.62048 
L 514.157079 183.185341 
L 514.38039 183.185341 
L 514.603702 182.865099 
L 514.827014 179.85722 
L 515.050325 179.85722 
L 515.496948 182.865099 
L 515.72026 183.89556 
L 516.166883 194.283665 
L 516.390195 188.184404 
L 516.836818 183.589084 
L 517.06013 185.093023 
L 517.283442 187.864163 
L 517.506753 187.390684 
L 517.730065 186.360223 
L 517.953377 174.161703 
L 518.176688 168.856163 
L 518.4 189.131363 
L 518.4 189.131363 
" style="fill:none;stroke:#4c72b0;stroke-linecap:round;stroke-width:1.75;"/>
   </g>
   <g id="patch_3">
    <path d="M 72 356.4 
L 518.4 356.4 
" style="fill:none;"/>
   </g>
   <g id="patch_4">
    <path d="M 72 39.6 
L 518.4 39.6 
" style="fill:none;"/>
   </g>
   <g id="patch_5">
    <path d="M 72 356.4 
L 72 39.6 
" style="fill:none;"/>
   </g>
   <g id="patch_6">
    <path d="M 518.4 356.4 
L 518.4 39.6 
" style="fill:none;"/>
   </g>
   <g id="text_12">
    <!-- T - 0.8131789255627837 * TF -->
    <defs>
     <path d="M 22.265625 54.390625 
L 35.15625 59.421875 
L 37.359375 52.984375 
L 23.578125 49.421875 
L 32.625 37.203125 
L 26.8125 33.6875 
L 19.484375 46.296875 
L 11.859375 33.796875 
L 6.0625 37.3125 
L 15.28125 49.421875 
L 1.609375 52.984375 
L 3.8125 59.515625 
L 16.84375 54.296875 
L 16.265625 68.796875 
L 22.90625 68.796875 
z
" id="LiberationSans-2a"/>
     <path d="M 17.53125 61.1875 
L 17.53125 35.59375 
L 55.90625 35.59375 
L 55.90625 27.875 
L 17.53125 27.875 
L 17.53125 0 
L 8.203125 0 
L 8.203125 68.796875 
L 57.078125 68.796875 
L 57.078125 61.1875 
z
" id="LiberationSans-46"/>
     <path d="M 50.59375 61.671875 
Q 45.40625 53.765625 41.0625 46.453125 
Q 36.71875 39.15625 33.59375 31.75 
Q 30.46875 24.359375 28.734375 16.578125 
Q 27 8.796875 27 0 
L 17.828125 0 
Q 17.828125 8.25 19.78125 16.1875 
Q 21.734375 24.125 25.046875 31.765625 
Q 28.375 39.40625 32.765625 46.78125 
Q 37.15625 54.15625 42.09375 61.328125 
L 5.125 61.328125 
L 5.125 68.796875 
L 50.59375 68.796875 
z
" id="LiberationSans-37"/>
     <path d="M 35.15625 61.1875 
L 35.15625 0 
L 25.875 0 
L 25.875 61.1875 
L 2.25 61.1875 
L 2.25 68.796875 
L 58.796875 68.796875 
L 58.796875 61.1875 
z
" id="LiberationSans-54"/>
     <path d="M 51.21875 22.515625 
Q 51.21875 17.328125 49.78125 13 
Q 48.34375 8.6875 45.53125 5.578125 
Q 42.71875 2.484375 38.5625 0.75 
Q 34.421875 -0.984375 29 -0.984375 
Q 23 -0.984375 18.5 1.3125 
Q 14.015625 3.609375 11.03125 7.921875 
Q 8.0625 12.25 6.5625 18.53125 
Q 5.078125 24.8125 5.078125 32.8125 
Q 5.078125 42 6.765625 48.921875 
Q 8.453125 55.859375 11.625 60.5 
Q 14.796875 65.140625 19.359375 67.484375 
Q 23.921875 69.828125 29.6875 69.828125 
Q 33.203125 69.828125 36.28125 69.09375 
Q 39.359375 68.359375 41.875 66.71875 
Q 44.390625 65.09375 46.28125 62.40625 
Q 48.1875 59.71875 49.3125 55.8125 
L 40.921875 54.296875 
Q 39.546875 58.734375 36.546875 60.71875 
Q 33.546875 62.703125 29.59375 62.703125 
Q 25.984375 62.703125 23.046875 60.984375 
Q 20.125 59.28125 18.0625 55.875 
Q 16.015625 52.484375 14.90625 47.359375 
Q 13.8125 42.234375 13.8125 35.40625 
Q 16.21875 39.84375 20.5625 42.15625 
Q 24.90625 44.484375 30.515625 44.484375 
Q 35.203125 44.484375 39.015625 42.96875 
Q 42.828125 41.453125 45.53125 38.59375 
Q 48.25 35.75 49.734375 31.671875 
Q 51.21875 27.59375 51.21875 22.515625 
M 42.28125 22.125 
Q 42.28125 25.6875 41.40625 28.5625 
Q 40.53125 31.453125 38.765625 33.46875 
Q 37.015625 35.5 34.421875 36.59375 
Q 31.84375 37.703125 28.421875 37.703125 
Q 26.03125 37.703125 23.578125 36.984375 
Q 21.140625 36.28125 19.15625 34.6875 
Q 17.1875 33.109375 15.9375 30.515625 
Q 14.703125 27.9375 14.703125 24.21875 
Q 14.703125 20.40625 15.671875 17.109375 
Q 16.65625 13.8125 18.484375 11.375 
Q 20.3125 8.9375 22.890625 7.515625 
Q 25.484375 6.109375 28.71875 6.109375 
Q 31.890625 6.109375 34.40625 7.203125 
Q 36.921875 8.296875 38.671875 10.375 
Q 40.4375 12.453125 41.359375 15.421875 
Q 42.28125 18.40625 42.28125 22.125 
" id="LiberationSans-36"/>
    </defs>
    <g style="fill:#262626;" transform="translate(214.81875 34.6)scale(0.12 -0.12)">
     <use xlink:href="#LiberationSans-54"/>
     <use x="61.068359375" xlink:href="#LiberationSans-20"/>
     <use x="88.8515625" xlink:href="#LiberationSans-2d"/>
     <use x="122.15234375" xlink:href="#LiberationSans-20"/>
     <use x="149.935546875" xlink:href="#LiberationSans-30"/>
     <use x="205.55078125" xlink:href="#LiberationSans-2e"/>
     <use x="233.333984375" xlink:href="#LiberationSans-38"/>
     <use x="288.94921875" xlink:href="#LiberationSans-31"/>
     <use x="344.564453125" xlink:href="#LiberationSans-33"/>
     <use x="400.1796875" xlink:href="#LiberationSans-31"/>
     <use x="455.794921875" xlink:href="#LiberationSans-37"/>
     <use x="511.41015625" xlink:href="#LiberationSans-38"/>
     <use x="567.025390625" xlink:href="#LiberationSans-39"/>
     <use x="622.640625" xlink:href="#LiberationSans-32"/>
     <use x="678.255859375" xlink:href="#LiberationSans-35"/>
     <use x="733.87109375" xlink:href="#LiberationSans-35"/>
     <use x="789.486328125" xlink:href="#LiberationSans-36"/>
     <use x="845.1015625" xlink:href="#LiberationSans-32"/>
     <use x="900.716796875" xlink:href="#LiberationSans-37"/>
     <use x="956.33203125" xlink:href="#LiberationSans-38"/>
     <use x="1011.947265625" xlink:href="#LiberationSans-33"/>
     <use x="1067.5625" xlink:href="#LiberationSans-37"/>
     <use x="1123.177734375" xlink:href="#LiberationSans-20"/>
     <use x="1150.9609375" xlink:href="#LiberationSans-2a"/>
     <use x="1189.876953125" xlink:href="#LiberationSans-20"/>
     <use x="1217.64453125" xlink:href="#LiberationSans-54"/>
     <use x="1278.728515625" xlink:href="#LiberationSans-46"/>
    </g>
   </g>
  </g>
 </g>
 <defs>
  <clipPath id="pb04cfa7bcc">
   <rect height="316.8" width="446.4" x="72.0" y="39.6"/>
  </clipPath>
 </defs>
</svg>
