<?xml version="1.0" encoding="utf-8" standalone="no"?>
<!DOCTYPE svg PUBLIC "-//W3C//DTD SVG 1.1//EN"
  "http://www.w3.org/Graphics/SVG/1.1/DTD/svg11.dtd">
<!-- Created with matplotlib (http://matplotlib.org/) -->
<svg height="396pt" version="1.1" viewBox="0 0 576 396" width="576pt" xmlns="http://www.w3.org/2000/svg" xmlns:xlink="http://www.w3.org/1999/xlink">
 <defs>
  <style type="text/css">
*{stroke-linecap:butt;stroke-linejoin:round;stroke-miterlimit:100000;}
  </style>
 </defs>
 <g id="figure_1">
  <g id="patch_1">
   <path d="M 0 396 
L 576 396 
L 576 0 
L 0 0 
z
" style="fill:#ffffff;"/>
  </g>
  <g id="axes_1">
   <g id="patch_2">
    <path d="M 72 356.4 
L 518.4 356.4 
L 518.4 39.6 
L 72 39.6 
z
" style="fill:#eaeaf2;"/>
   </g>
   <g id="matplotlib.axis_1">
    <g id="xtick_1">
     <g id="line2d_1">
      <path clip-path="url(#pd2d035e3ac)" d="M 72 356.4 
L 72 39.6 
" style="fill:none;stroke:#ffffff;stroke-linecap:round;"/>
     </g>
     <g id="line2d_2"/>
     <g id="line2d_3"/>
     <g id="text_1">
      <!-- 2015-11-09 10:32:00 -->
      <defs>
       <path d="M 5.03125 0 
L 5.03125 6.203125 
Q 7.515625 11.921875 11.109375 16.28125 
Q 14.703125 20.65625 18.65625 24.1875 
Q 22.609375 27.734375 26.484375 30.765625 
Q 30.375 33.796875 33.5 36.8125 
Q 36.625 39.84375 38.546875 43.15625 
Q 40.484375 46.484375 40.484375 50.6875 
Q 40.484375 53.609375 39.59375 55.828125 
Q 38.71875 58.0625 37.0625 59.5625 
Q 35.40625 61.078125 33.078125 61.828125 
Q 30.765625 62.59375 27.9375 62.59375 
Q 25.296875 62.59375 22.96875 61.859375 
Q 20.65625 61.140625 18.84375 59.671875 
Q 17.046875 58.203125 15.890625 56.03125 
Q 14.75 53.859375 14.40625 50.984375 
L 5.421875 51.8125 
Q 5.859375 55.515625 7.46875 58.78125 
Q 9.078125 62.0625 11.90625 64.53125 
Q 14.75 67 18.71875 68.40625 
Q 22.703125 69.828125 27.9375 69.828125 
Q 33.0625 69.828125 37.0625 68.609375 
Q 41.0625 67.390625 43.8125 64.984375 
Q 46.578125 62.59375 48.046875 59.078125 
Q 49.515625 55.5625 49.515625 50.984375 
Q 49.515625 47.515625 48.265625 44.390625 
Q 47.015625 41.265625 44.9375 38.421875 
Q 42.875 35.59375 40.140625 32.953125 
Q 37.40625 30.328125 34.421875 27.8125 
Q 31.453125 25.296875 28.421875 22.828125 
Q 25.390625 20.359375 22.71875 17.859375 
Q 20.0625 15.375 17.96875 12.8125 
Q 15.875 10.25 14.703125 7.46875 
L 50.59375 7.46875 
L 50.59375 0 
z
" id="LiberationSans-32"/>
       <path d="M 7.625 0 
L 7.625 7.46875 
L 25.140625 7.46875 
L 25.140625 60.40625 
L 9.625 49.3125 
L 9.625 57.625 
L 25.875 68.796875 
L 33.984375 68.796875 
L 33.984375 7.46875 
L 50.734375 7.46875 
L 50.734375 0 
z
" id="LiberationSans-31"/>
       <path d="M 51.703125 34.421875 
Q 51.703125 24.515625 49.828125 17.75 
Q 47.953125 10.984375 44.703125 6.8125 
Q 41.453125 2.640625 37.0625 0.828125 
Q 32.671875 -0.984375 27.6875 -0.984375 
Q 22.65625 -0.984375 18.3125 0.828125 
Q 13.96875 2.640625 10.765625 6.78125 
Q 7.5625 10.9375 5.734375 17.703125 
Q 3.90625 24.46875 3.90625 34.421875 
Q 3.90625 44.828125 5.734375 51.640625 
Q 7.5625 58.453125 10.78125 62.5 
Q 14.015625 66.546875 18.40625 68.1875 
Q 22.796875 69.828125 27.984375 69.828125 
Q 32.90625 69.828125 37.21875 68.1875 
Q 41.546875 66.546875 44.765625 62.5 
Q 48 58.453125 49.84375 51.640625 
Q 51.703125 44.828125 51.703125 34.421875 
M 42.78125 34.421875 
Q 42.78125 42.625 41.796875 48.0625 
Q 40.828125 53.515625 38.921875 56.765625 
Q 37.015625 60.015625 34.25 61.359375 
Q 31.5 62.703125 27.984375 62.703125 
Q 24.265625 62.703125 21.4375 61.328125 
Q 18.609375 59.96875 16.671875 56.71875 
Q 14.75 53.46875 13.765625 48.015625 
Q 12.796875 42.578125 12.796875 34.421875 
Q 12.796875 26.515625 13.796875 21.09375 
Q 14.796875 15.671875 16.71875 12.375 
Q 18.65625 9.078125 21.4375 7.640625 
Q 24.21875 6.203125 27.78125 6.203125 
Q 31.25 6.203125 34.03125 7.640625 
Q 36.8125 9.078125 38.734375 12.375 
Q 40.671875 15.671875 41.71875 21.09375 
Q 42.78125 26.515625 42.78125 34.421875 
" id="LiberationSans-30"/>
       <path d="M 50.875 35.796875 
Q 50.875 26.609375 49.140625 19.703125 
Q 47.40625 12.796875 44.1875 8.203125 
Q 40.96875 3.609375 36.34375 1.3125 
Q 31.734375 -0.984375 25.984375 -0.984375 
Q 22.015625 -0.984375 18.84375 -0.171875 
Q 15.671875 0.640625 13.171875 2.34375 
Q 10.6875 4.046875 8.921875 6.78125 
Q 7.171875 9.515625 6.109375 13.375 
L 14.5 14.703125 
Q 15.875 10.25 18.78125 8.171875 
Q 21.6875 6.109375 26.125 6.109375 
Q 29.6875 6.109375 32.640625 7.78125 
Q 35.59375 9.46875 37.671875 12.84375 
Q 39.75 16.21875 40.921875 21.296875 
Q 42.09375 26.375 42.1875 33.203125 
Q 41.15625 30.90625 39.375 29.09375 
Q 37.59375 27.296875 35.328125 26.046875 
Q 33.0625 24.8125 30.421875 24.140625 
Q 27.78125 23.484375 25.09375 23.484375 
Q 20.40625 23.484375 16.625 25.171875 
Q 12.84375 26.859375 10.203125 29.875 
Q 7.5625 32.90625 6.125 37.171875 
Q 4.6875 41.453125 4.6875 46.6875 
Q 4.6875 52 6.21875 56.296875 
Q 7.765625 60.59375 10.6875 63.59375 
Q 13.625 66.609375 17.890625 68.21875 
Q 22.171875 69.828125 27.59375 69.828125 
Q 39.0625 69.828125 44.96875 61.328125 
Q 50.875 52.828125 50.875 35.796875 
M 41.3125 44.28125 
Q 41.3125 48.09375 40.40625 51.453125 
Q 39.5 54.828125 37.71875 57.3125 
Q 35.9375 59.8125 33.328125 61.25 
Q 30.71875 62.703125 27.296875 62.703125 
Q 24.125 62.703125 21.578125 61.578125 
Q 19.046875 60.453125 17.28125 58.375 
Q 15.53125 56.296875 14.578125 53.3125 
Q 13.625 50.34375 13.625 46.6875 
Q 13.625 43.21875 14.46875 40.234375 
Q 15.328125 37.25 17.03125 35.078125 
Q 18.75 32.90625 21.28125 31.65625 
Q 23.828125 30.421875 27.203125 30.421875 
Q 29.640625 30.421875 32.15625 31.25 
Q 34.671875 32.078125 36.6875 33.78125 
Q 38.71875 35.5 40.015625 38.109375 
Q 41.3125 40.71875 41.3125 44.28125 
" id="LiberationSans-39"/>
       <path d="M 9.125 42.71875 
L 9.125 52.828125 
L 18.65625 52.828125 
L 18.65625 42.71875 
z
M 9.125 0 
L 9.125 10.109375 
L 18.65625 10.109375 
L 18.65625 0 
z
" id="LiberationSans-3a"/>
       <path d="M 51.21875 19 
Q 51.21875 14.265625 49.671875 10.546875 
Q 48.140625 6.84375 45.1875 4.265625 
Q 42.234375 1.703125 37.859375 0.359375 
Q 33.5 -0.984375 27.875 -0.984375 
Q 21.484375 -0.984375 17.109375 0.609375 
Q 12.75 2.203125 9.90625 4.8125 
Q 7.078125 7.421875 5.65625 10.765625 
Q 4.25 14.109375 3.8125 17.671875 
L 12.890625 18.5 
Q 13.28125 15.765625 14.328125 13.515625 
Q 15.375 11.28125 17.1875 9.671875 
Q 19 8.0625 21.625 7.171875 
Q 24.265625 6.296875 27.875 6.296875 
Q 34.515625 6.296875 38.296875 9.5625 
Q 42.09375 12.84375 42.09375 19.28125 
Q 42.09375 23.09375 40.40625 25.40625 
Q 38.71875 27.734375 36.203125 29.03125 
Q 33.6875 30.328125 30.734375 30.765625 
Q 27.78125 31.203125 25.296875 31.203125 
L 20.3125 31.203125 
L 20.3125 38.8125 
L 25.09375 38.8125 
Q 27.59375 38.8125 30.265625 39.328125 
Q 32.953125 39.84375 35.171875 41.1875 
Q 37.40625 42.53125 38.84375 44.828125 
Q 40.28125 47.125 40.28125 50.6875 
Q 40.28125 56.203125 37.03125 59.390625 
Q 33.796875 62.59375 27.390625 62.59375 
Q 21.578125 62.59375 17.984375 59.609375 
Q 14.40625 56.640625 13.8125 51.21875 
L 4.984375 51.90625 
Q 5.515625 56.453125 7.46875 59.8125 
Q 9.421875 63.1875 12.421875 65.40625 
Q 15.4375 67.625 19.28125 68.71875 
Q 23.140625 69.828125 27.484375 69.828125 
Q 33.25 69.828125 37.390625 68.375 
Q 41.546875 66.9375 44.1875 64.46875 
Q 46.828125 62.015625 48.0625 58.6875 
Q 49.3125 55.375 49.3125 51.609375 
Q 49.3125 48.578125 48.484375 45.9375 
Q 47.65625 43.3125 45.890625 41.203125 
Q 44.140625 39.109375 41.421875 37.59375 
Q 38.71875 36.078125 34.90625 35.296875 
L 34.90625 35.109375 
Q 39.0625 34.671875 42.140625 33.21875 
Q 45.21875 31.78125 47.21875 29.625 
Q 49.21875 27.484375 50.21875 24.75 
Q 51.21875 22.015625 51.21875 19 
" id="LiberationSans-33"/>
       <path d="M 51.421875 22.40625 
Q 51.421875 17.234375 49.859375 12.9375 
Q 48.296875 8.640625 45.21875 5.53125 
Q 42.140625 2.4375 37.578125 0.71875 
Q 33.015625 -0.984375 27 -0.984375 
Q 21.578125 -0.984375 17.546875 0.28125 
Q 13.53125 1.5625 10.734375 3.78125 
Q 7.953125 6 6.3125 8.984375 
Q 4.6875 11.96875 4 15.375 
L 12.890625 16.40625 
Q 13.421875 14.453125 14.390625 12.625 
Q 15.375 10.796875 17.0625 9.34375 
Q 18.75 7.90625 21.21875 7.046875 
Q 23.6875 6.203125 27.203125 6.203125 
Q 30.609375 6.203125 33.390625 7.25 
Q 36.1875 8.296875 38.15625 10.34375 
Q 40.140625 12.40625 41.203125 15.375 
Q 42.28125 18.359375 42.28125 22.21875 
Q 42.28125 25.390625 41.25 28.046875 
Q 40.234375 30.71875 38.328125 32.640625 
Q 36.421875 34.578125 33.65625 35.640625 
Q 30.90625 36.71875 27.390625 36.71875 
Q 25.203125 36.71875 23.34375 36.328125 
Q 21.484375 35.9375 19.890625 35.25 
Q 18.3125 34.578125 17.015625 33.671875 
Q 15.71875 32.765625 14.59375 31.78125 
L 6 31.78125 
L 8.296875 68.796875 
L 47.40625 68.796875 
L 47.40625 61.328125 
L 16.3125 61.328125 
L 14.984375 39.5 
Q 17.328125 41.3125 20.84375 42.59375 
Q 24.359375 43.890625 29.203125 43.890625 
Q 34.328125 43.890625 38.421875 42.328125 
Q 42.53125 40.765625 45.40625 37.90625 
Q 48.296875 35.0625 49.859375 31.109375 
Q 51.421875 27.15625 51.421875 22.40625 
" id="LiberationSans-35"/>
       <path id="LiberationSans-20"/>
       <path d="M 4.4375 22.65625 
L 4.4375 30.46875 
L 28.859375 30.46875 
L 28.859375 22.65625 
z
" id="LiberationSans-2d"/>
      </defs>
      <g style="fill:#262626;" transform="translate(25.5765625 370.646875)scale(0.1 -0.1)">
       <use xlink:href="#LiberationSans-32"/>
       <use x="55.615234375" xlink:href="#LiberationSans-30"/>
       <use x="111.23046875" xlink:href="#LiberationSans-31"/>
       <use x="166.845703125" xlink:href="#LiberationSans-35"/>
       <use x="222.4609375" xlink:href="#LiberationSans-2d"/>
       <use x="255.76171875" xlink:href="#LiberationSans-31"/>
       <use x="311.376953125" xlink:href="#LiberationSans-31"/>
       <use x="366.9921875" xlink:href="#LiberationSans-2d"/>
       <use x="400.29296875" xlink:href="#LiberationSans-30"/>
       <use x="455.908203125" xlink:href="#LiberationSans-39"/>
       <use x="511.5234375" xlink:href="#LiberationSans-20"/>
       <use x="539.306640625" xlink:href="#LiberationSans-31"/>
       <use x="594.921875" xlink:href="#LiberationSans-30"/>
       <use x="650.537109375" xlink:href="#LiberationSans-3a"/>
       <use x="678.3203125" xlink:href="#LiberationSans-33"/>
       <use x="733.935546875" xlink:href="#LiberationSans-32"/>
       <use x="789.55078125" xlink:href="#LiberationSans-3a"/>
       <use x="817.333984375" xlink:href="#LiberationSans-30"/>
       <use x="872.94921875" xlink:href="#LiberationSans-30"/>
      </g>
     </g>
    </g>
    <g id="xtick_2">
     <g id="line2d_4">
      <path clip-path="url(#pd2d035e3ac)" d="M 183.655828 356.4 
L 183.655828 39.6 
" style="fill:none;stroke:#ffffff;stroke-linecap:round;"/>
     </g>
     <g id="line2d_5"/>
     <g id="line2d_6"/>
     <g id="text_2">
      <!-- 2015-11-11 11:24:00 -->
      <defs>
       <path d="M 43.015625 15.578125 
L 43.015625 0 
L 34.71875 0 
L 34.71875 15.578125 
L 2.296875 15.578125 
L 2.296875 22.40625 
L 33.796875 68.796875 
L 43.015625 68.796875 
L 43.015625 22.515625 
L 52.6875 22.515625 
L 52.6875 15.578125 
z
M 34.71875 58.890625 
Q 34.625 58.640625 34.234375 57.9375 
Q 33.84375 57.234375 33.34375 56.34375 
Q 32.859375 55.46875 32.34375 54.5625 
Q 31.84375 53.65625 31.453125 53.078125 
L 13.8125 27.09375 
Q 13.578125 26.703125 13.109375 26.0625 
Q 12.640625 25.4375 12.15625 24.78125 
Q 11.671875 24.125 11.171875 23.484375 
Q 10.6875 22.859375 10.40625 22.515625 
L 34.71875 22.515625 
z
" id="LiberationSans-34"/>
      </defs>
      <g style="fill:#262626;" transform="translate(137.232390414 370.646875)scale(0.1 -0.1)">
       <use xlink:href="#LiberationSans-32"/>
       <use x="55.615234375" xlink:href="#LiberationSans-30"/>
       <use x="111.23046875" xlink:href="#LiberationSans-31"/>
       <use x="166.845703125" xlink:href="#LiberationSans-35"/>
       <use x="222.4609375" xlink:href="#LiberationSans-2d"/>
       <use x="255.76171875" xlink:href="#LiberationSans-31"/>
       <use x="311.376953125" xlink:href="#LiberationSans-31"/>
       <use x="366.9921875" xlink:href="#LiberationSans-2d"/>
       <use x="400.29296875" xlink:href="#LiberationSans-31"/>
       <use x="455.908203125" xlink:href="#LiberationSans-31"/>
       <use x="511.5234375" xlink:href="#LiberationSans-20"/>
       <use x="539.306640625" xlink:href="#LiberationSans-31"/>
       <use x="594.921875" xlink:href="#LiberationSans-31"/>
       <use x="650.537109375" xlink:href="#LiberationSans-3a"/>
       <use x="678.3203125" xlink:href="#LiberationSans-32"/>
       <use x="733.935546875" xlink:href="#LiberationSans-34"/>
       <use x="789.55078125" xlink:href="#LiberationSans-3a"/>
       <use x="817.333984375" xlink:href="#LiberationSans-30"/>
       <use x="872.94921875" xlink:href="#LiberationSans-30"/>
      </g>
     </g>
    </g>
    <g id="xtick_3">
     <g id="line2d_7">
      <path clip-path="url(#pd2d035e3ac)" d="M 295.311656 356.4 
L 295.311656 39.6 
" style="fill:none;stroke:#ffffff;stroke-linecap:round;"/>
     </g>
     <g id="line2d_8"/>
     <g id="line2d_9"/>
     <g id="text_3">
      <!-- 2015-11-13 14:42:00 -->
      <g style="fill:#262626;" transform="translate(248.888218328 370.646875)scale(0.1 -0.1)">
       <use xlink:href="#LiberationSans-32"/>
       <use x="55.615234375" xlink:href="#LiberationSans-30"/>
       <use x="111.23046875" xlink:href="#LiberationSans-31"/>
       <use x="166.845703125" xlink:href="#LiberationSans-35"/>
       <use x="222.4609375" xlink:href="#LiberationSans-2d"/>
       <use x="255.76171875" xlink:href="#LiberationSans-31"/>
       <use x="311.376953125" xlink:href="#LiberationSans-31"/>
       <use x="366.9921875" xlink:href="#LiberationSans-2d"/>
       <use x="400.29296875" xlink:href="#LiberationSans-31"/>
       <use x="455.908203125" xlink:href="#LiberationSans-33"/>
       <use x="511.5234375" xlink:href="#LiberationSans-20"/>
       <use x="539.306640625" xlink:href="#LiberationSans-31"/>
       <use x="594.921875" xlink:href="#LiberationSans-34"/>
       <use x="650.537109375" xlink:href="#LiberationSans-3a"/>
       <use x="678.3203125" xlink:href="#LiberationSans-34"/>
       <use x="733.935546875" xlink:href="#LiberationSans-32"/>
       <use x="789.55078125" xlink:href="#LiberationSans-3a"/>
       <use x="817.333984375" xlink:href="#LiberationSans-30"/>
       <use x="872.94921875" xlink:href="#LiberationSans-30"/>
      </g>
     </g>
    </g>
    <g id="xtick_4">
     <g id="line2d_10">
      <path clip-path="url(#pd2d035e3ac)" d="M 406.967484 356.4 
L 406.967484 39.6 
" style="fill:none;stroke:#ffffff;stroke-linecap:round;"/>
     </g>
     <g id="line2d_11"/>
     <g id="line2d_12"/>
     <g id="text_4">
      <!-- 2015-11-19 11:05:00 -->
      <g style="fill:#262626;" transform="translate(360.544046242 370.646875)scale(0.1 -0.1)">
       <use xlink:href="#LiberationSans-32"/>
       <use x="55.615234375" xlink:href="#LiberationSans-30"/>
       <use x="111.23046875" xlink:href="#LiberationSans-31"/>
       <use x="166.845703125" xlink:href="#LiberationSans-35"/>
       <use x="222.4609375" xlink:href="#LiberationSans-2d"/>
       <use x="255.76171875" xlink:href="#LiberationSans-31"/>
       <use x="311.376953125" xlink:href="#LiberationSans-31"/>
       <use x="366.9921875" xlink:href="#LiberationSans-2d"/>
       <use x="400.29296875" xlink:href="#LiberationSans-31"/>
       <use x="455.908203125" xlink:href="#LiberationSans-39"/>
       <use x="511.5234375" xlink:href="#LiberationSans-20"/>
       <use x="539.306640625" xlink:href="#LiberationSans-31"/>
       <use x="594.921875" xlink:href="#LiberationSans-31"/>
       <use x="650.537109375" xlink:href="#LiberationSans-3a"/>
       <use x="678.3203125" xlink:href="#LiberationSans-30"/>
       <use x="733.935546875" xlink:href="#LiberationSans-35"/>
       <use x="789.55078125" xlink:href="#LiberationSans-3a"/>
       <use x="817.333984375" xlink:href="#LiberationSans-30"/>
       <use x="872.94921875" xlink:href="#LiberationSans-30"/>
      </g>
     </g>
    </g>
    <g id="text_5">
     <!-- time -->
     <defs>
      <path d="M 13.484375 24.5625 
Q 13.484375 20.40625 14.328125 16.90625 
Q 15.1875 13.421875 16.96875 10.90625 
Q 18.75 8.40625 21.53125 7 
Q 24.3125 5.609375 28.21875 5.609375 
Q 33.9375 5.609375 37.375 7.90625 
Q 40.828125 10.203125 42.046875 13.71875 
L 49.75 11.53125 
Q 48.921875 9.328125 47.4375 7.109375 
Q 45.953125 4.890625 43.453125 3.09375 
Q 40.96875 1.3125 37.234375 0.15625 
Q 33.5 -0.984375 28.21875 -0.984375 
Q 16.5 -0.984375 10.375 6 
Q 4.25 12.984375 4.25 26.765625 
Q 4.25 34.1875 6.09375 39.328125 
Q 7.953125 44.484375 11.171875 47.703125 
Q 14.40625 50.921875 18.703125 52.359375 
Q 23 53.8125 27.875 53.8125 
Q 34.515625 53.8125 38.984375 51.65625 
Q 43.453125 49.515625 46.15625 45.71875 
Q 48.875 41.9375 50.015625 36.8125 
Q 51.171875 31.6875 51.171875 25.734375 
L 51.171875 24.5625 
z
M 42.09375 31.296875 
Q 41.359375 39.65625 37.84375 43.484375 
Q 34.328125 47.3125 27.734375 47.3125 
Q 25.53125 47.3125 23.109375 46.609375 
Q 20.703125 45.90625 18.65625 44.09375 
Q 16.609375 42.28125 15.1875 39.171875 
Q 13.765625 36.078125 13.578125 31.296875 
z
" id="LiberationSans-65"/>
      <path d="M 6.6875 64.0625 
L 6.6875 72.46875 
L 15.484375 72.46875 
L 15.484375 64.0625 
z
M 6.6875 0 
L 6.6875 52.828125 
L 15.484375 52.828125 
L 15.484375 0 
z
" id="LiberationSans-69"/>
      <path d="M 27.046875 0.390625 
Q 25.046875 -0.140625 22.96875 -0.453125 
Q 20.90625 -0.78125 18.171875 -0.78125 
Q 7.625 -0.78125 7.625 11.1875 
L 7.625 46.4375 
L 1.515625 46.4375 
L 1.515625 52.828125 
L 7.953125 52.828125 
L 10.546875 64.65625 
L 16.40625 64.65625 
L 16.40625 52.828125 
L 26.171875 52.828125 
L 26.171875 46.4375 
L 16.40625 46.4375 
L 16.40625 13.09375 
Q 16.40625 9.28125 17.640625 7.734375 
Q 18.890625 6.203125 21.96875 6.203125 
Q 23.25 6.203125 24.4375 6.390625 
Q 25.640625 6.59375 27.046875 6.890625 
z
" id="LiberationSans-74"/>
      <path d="M 37.5 0 
L 37.5 33.5 
Q 37.5 37.359375 37.015625 39.9375 
Q 36.53125 42.53125 35.375 44.109375 
Q 34.234375 45.703125 32.375 46.359375 
Q 30.515625 47.015625 27.828125 47.015625 
Q 25.046875 47.015625 22.796875 45.921875 
Q 20.5625 44.828125 18.96875 42.75 
Q 17.390625 40.671875 16.53125 37.625 
Q 15.671875 34.578125 15.671875 30.609375 
L 15.671875 0 
L 6.9375 0 
L 6.9375 41.546875 
Q 6.9375 43.21875 6.90625 45.046875 
Q 6.890625 46.875 6.828125 48.5 
Q 6.78125 50.140625 6.734375 51.3125 
Q 6.6875 52.484375 6.640625 52.828125 
L 14.9375 52.828125 
Q 14.984375 52.59375 15.03125 51.515625 
Q 15.09375 50.4375 15.15625 49.046875 
Q 15.234375 47.65625 15.28125 46.21875 
Q 15.328125 44.78125 15.328125 43.796875 
L 15.484375 43.796875 
Q 16.65625 46.09375 18.015625 47.953125 
Q 19.390625 49.8125 21.21875 51.09375 
Q 23.046875 52.390625 25.40625 53.09375 
Q 27.78125 53.8125 30.90625 53.8125 
Q 36.921875 53.8125 40.40625 51.421875 
Q 43.890625 49.03125 45.265625 43.796875 
L 45.40625 43.796875 
Q 46.578125 46.09375 48.046875 47.953125 
Q 49.515625 49.8125 51.46875 51.09375 
Q 53.421875 52.390625 55.859375 53.09375 
Q 58.296875 53.8125 61.421875 53.8125 
Q 65.4375 53.8125 68.328125 52.734375 
Q 71.234375 51.65625 73.09375 49.40625 
Q 74.953125 47.171875 75.828125 43.625 
Q 76.703125 40.09375 76.703125 35.203125 
L 76.703125 0 
L 68.015625 0 
L 68.015625 33.5 
Q 68.015625 37.359375 67.53125 39.9375 
Q 67.046875 42.53125 65.890625 44.109375 
Q 64.75 45.703125 62.890625 46.359375 
Q 61.03125 47.015625 58.34375 47.015625 
Q 55.5625 47.015625 53.3125 45.96875 
Q 51.078125 44.921875 49.484375 42.875 
Q 47.90625 40.828125 47.046875 37.75 
Q 46.1875 34.671875 46.1875 30.609375 
L 46.1875 0 
z
" id="LiberationSans-6d"/>
     </defs>
     <g style="fill:#262626;" transform="translate(284.81015625 385.6934375)scale(0.11 -0.11)">
      <use xlink:href="#LiberationSans-74"/>
      <use x="27.783203125" xlink:href="#LiberationSans-69"/>
      <use x="50.0" xlink:href="#LiberationSans-6d"/>
      <use x="133.30078125" xlink:href="#LiberationSans-65"/>
     </g>
    </g>
   </g>
   <g id="matplotlib.axis_2">
    <g id="ytick_1">
     <g id="line2d_13">
      <path clip-path="url(#pd2d035e3ac)" d="M 72 356.4 
L 518.4 356.4 
" style="fill:none;stroke:#ffffff;stroke-linecap:round;"/>
     </g>
     <g id="line2d_14"/>
     <g id="line2d_15"/>
     <g id="text_6">
      <!-- −3400 -->
      <defs>
       <path d="M 4.9375 29.6875 
L 4.9375 36.8125 
L 53.515625 36.8125 
L 53.515625 29.6875 
z
" id="LiberationSans-2212"/>
      </defs>
      <g style="fill:#262626;" transform="translate(36.915625 358.9859375)scale(0.1 -0.1)">
       <use xlink:href="#LiberationSans-2212"/>
       <use x="58.3984375" xlink:href="#LiberationSans-33"/>
       <use x="114.013671875" xlink:href="#LiberationSans-34"/>
       <use x="169.62890625" xlink:href="#LiberationSans-30"/>
       <use x="225.244140625" xlink:href="#LiberationSans-30"/>
      </g>
     </g>
    </g>
    <g id="ytick_2">
     <g id="line2d_16">
      <path clip-path="url(#pd2d035e3ac)" d="M 72 311.142857 
L 518.4 311.142857 
" style="fill:none;stroke:#ffffff;stroke-linecap:round;"/>
     </g>
     <g id="line2d_17"/>
     <g id="line2d_18"/>
     <g id="text_7">
      <!-- −3200 -->
      <g style="fill:#262626;" transform="translate(36.915625 313.728794643)scale(0.1 -0.1)">
       <use xlink:href="#LiberationSans-2212"/>
       <use x="58.3984375" xlink:href="#LiberationSans-33"/>
       <use x="114.013671875" xlink:href="#LiberationSans-32"/>
       <use x="169.62890625" xlink:href="#LiberationSans-30"/>
       <use x="225.244140625" xlink:href="#LiberationSans-30"/>
      </g>
     </g>
    </g>
    <g id="ytick_3">
     <g id="line2d_19">
      <path clip-path="url(#pd2d035e3ac)" d="M 72 265.885714 
L 518.4 265.885714 
" style="fill:none;stroke:#ffffff;stroke-linecap:round;"/>
     </g>
     <g id="line2d_20"/>
     <g id="line2d_21"/>
     <g id="text_8">
      <!-- −3000 -->
      <g style="fill:#262626;" transform="translate(36.915625 268.471651786)scale(0.1 -0.1)">
       <use xlink:href="#LiberationSans-2212"/>
       <use x="58.3984375" xlink:href="#LiberationSans-33"/>
       <use x="114.013671875" xlink:href="#LiberationSans-30"/>
       <use x="169.62890625" xlink:href="#LiberationSans-30"/>
       <use x="225.244140625" xlink:href="#LiberationSans-30"/>
      </g>
     </g>
    </g>
    <g id="ytick_4">
     <g id="line2d_22">
      <path clip-path="url(#pd2d035e3ac)" d="M 72 220.628571 
L 518.4 220.628571 
" style="fill:none;stroke:#ffffff;stroke-linecap:round;"/>
     </g>
     <g id="line2d_23"/>
     <g id="line2d_24"/>
     <g id="text_9">
      <!-- −2800 -->
      <defs>
       <path d="M 51.265625 19.1875 
Q 51.265625 14.796875 49.875 11.109375 
Q 48.484375 7.421875 45.625 4.734375 
Q 42.78125 2.046875 38.328125 0.53125 
Q 33.890625 -0.984375 27.828125 -0.984375 
Q 21.78125 -0.984375 17.359375 0.53125 
Q 12.9375 2.046875 10.03125 4.703125 
Q 7.125 7.375 5.734375 11.0625 
Q 4.34375 14.75 4.34375 19.09375 
Q 4.34375 22.859375 5.484375 25.78125 
Q 6.640625 28.71875 8.5625 30.828125 
Q 10.5 32.953125 12.96875 34.25 
Q 15.4375 35.546875 18.0625 35.984375 
L 18.0625 36.1875 
Q 15.1875 36.859375 12.90625 38.375 
Q 10.640625 39.890625 9.09375 42.015625 
Q 7.5625 44.140625 6.75 46.71875 
Q 5.953125 49.3125 5.953125 52.203125 
Q 5.953125 55.8125 7.34375 59 
Q 8.734375 62.203125 11.46875 64.625 
Q 14.203125 67.046875 18.25 68.4375 
Q 22.3125 69.828125 27.640625 69.828125 
Q 33.25 69.828125 37.375 68.40625 
Q 41.5 67 44.203125 64.578125 
Q 46.921875 62.15625 48.234375 58.9375 
Q 49.5625 55.71875 49.5625 52.09375 
Q 49.5625 49.265625 48.75 46.671875 
Q 47.953125 44.09375 46.40625 41.96875 
Q 44.875 39.84375 42.59375 38.34375 
Q 40.328125 36.859375 37.359375 36.28125 
L 37.359375 36.078125 
Q 40.328125 35.59375 42.859375 34.296875 
Q 45.40625 33.015625 47.265625 30.890625 
Q 49.125 28.765625 50.1875 25.828125 
Q 51.265625 22.90625 51.265625 19.1875 
M 40.4375 51.609375 
Q 40.4375 54.203125 39.765625 56.34375 
Q 39.109375 58.5 37.59375 60.03125 
Q 36.078125 61.578125 33.640625 62.421875 
Q 31.203125 63.28125 27.640625 63.28125 
Q 24.171875 63.28125 21.78125 62.421875 
Q 19.390625 61.578125 17.84375 60.03125 
Q 16.3125 58.5 15.625 56.34375 
Q 14.9375 54.203125 14.9375 51.609375 
Q 14.9375 49.5625 15.46875 47.40625 
Q 16.015625 45.265625 17.421875 43.5 
Q 18.84375 41.75 21.328125 40.625 
Q 23.828125 39.5 27.734375 39.5 
Q 31.890625 39.5 34.40625 40.625 
Q 36.921875 41.75 38.25 43.5 
Q 39.59375 45.265625 40.015625 47.40625 
Q 40.4375 49.5625 40.4375 51.609375 
M 42.140625 20.015625 
Q 42.140625 22.515625 41.453125 24.828125 
Q 40.765625 27.15625 39.109375 28.9375 
Q 37.453125 30.71875 34.640625 31.8125 
Q 31.84375 32.90625 27.640625 32.90625 
Q 23.78125 32.90625 21.0625 31.8125 
Q 18.359375 30.71875 16.671875 28.90625 
Q 14.984375 27.09375 14.203125 24.71875 
Q 13.421875 22.359375 13.421875 19.828125 
Q 13.421875 16.65625 14.203125 14.03125 
Q 14.984375 11.421875 16.6875 9.546875 
Q 18.40625 7.671875 21.1875 6.640625 
Q 23.96875 5.609375 27.9375 5.609375 
Q 31.9375 5.609375 34.671875 6.640625 
Q 37.40625 7.671875 39.0625 9.546875 
Q 40.71875 11.421875 41.421875 14.078125 
Q 42.140625 16.75 42.140625 20.015625 
" id="LiberationSans-38"/>
      </defs>
      <g style="fill:#262626;" transform="translate(36.915625 223.214508929)scale(0.1 -0.1)">
       <use xlink:href="#LiberationSans-2212"/>
       <use x="58.3984375" xlink:href="#LiberationSans-32"/>
       <use x="114.013671875" xlink:href="#LiberationSans-38"/>
       <use x="169.62890625" xlink:href="#LiberationSans-30"/>
       <use x="225.244140625" xlink:href="#LiberationSans-30"/>
      </g>
     </g>
    </g>
    <g id="ytick_5">
     <g id="line2d_25">
      <path clip-path="url(#pd2d035e3ac)" d="M 72 175.371429 
L 518.4 175.371429 
" style="fill:none;stroke:#ffffff;stroke-linecap:round;"/>
     </g>
     <g id="line2d_26"/>
     <g id="line2d_27"/>
     <g id="text_10">
      <!-- −2600 -->
      <defs>
       <path d="M 51.21875 22.515625 
Q 51.21875 17.328125 49.78125 13 
Q 48.34375 8.6875 45.53125 5.578125 
Q 42.71875 2.484375 38.5625 0.75 
Q 34.421875 -0.984375 29 -0.984375 
Q 23 -0.984375 18.5 1.3125 
Q 14.015625 3.609375 11.03125 7.921875 
Q 8.0625 12.25 6.5625 18.53125 
Q 5.078125 24.8125 5.078125 32.8125 
Q 5.078125 42 6.765625 48.921875 
Q 8.453125 55.859375 11.625 60.5 
Q 14.796875 65.140625 19.359375 67.484375 
Q 23.921875 69.828125 29.6875 69.828125 
Q 33.203125 69.828125 36.28125 69.09375 
Q 39.359375 68.359375 41.875 66.71875 
Q 44.390625 65.09375 46.28125 62.40625 
Q 48.1875 59.71875 49.3125 55.8125 
L 40.921875 54.296875 
Q 39.546875 58.734375 36.546875 60.71875 
Q 33.546875 62.703125 29.59375 62.703125 
Q 25.984375 62.703125 23.046875 60.984375 
Q 20.125 59.28125 18.0625 55.875 
Q 16.015625 52.484375 14.90625 47.359375 
Q 13.8125 42.234375 13.8125 35.40625 
Q 16.21875 39.84375 20.5625 42.15625 
Q 24.90625 44.484375 30.515625 44.484375 
Q 35.203125 44.484375 39.015625 42.96875 
Q 42.828125 41.453125 45.53125 38.59375 
Q 48.25 35.75 49.734375 31.671875 
Q 51.21875 27.59375 51.21875 22.515625 
M 42.28125 22.125 
Q 42.28125 25.6875 41.40625 28.5625 
Q 40.53125 31.453125 38.765625 33.46875 
Q 37.015625 35.5 34.421875 36.59375 
Q 31.84375 37.703125 28.421875 37.703125 
Q 26.03125 37.703125 23.578125 36.984375 
Q 21.140625 36.28125 19.15625 34.6875 
Q 17.1875 33.109375 15.9375 30.515625 
Q 14.703125 27.9375 14.703125 24.21875 
Q 14.703125 20.40625 15.671875 17.109375 
Q 16.65625 13.8125 18.484375 11.375 
Q 20.3125 8.9375 22.890625 7.515625 
Q 25.484375 6.109375 28.71875 6.109375 
Q 31.890625 6.109375 34.40625 7.203125 
Q 36.921875 8.296875 38.671875 10.375 
Q 40.4375 12.453125 41.359375 15.421875 
Q 42.28125 18.40625 42.28125 22.125 
" id="LiberationSans-36"/>
      </defs>
      <g style="fill:#262626;" transform="translate(36.915625 177.957366071)scale(0.1 -0.1)">
       <use xlink:href="#LiberationSans-2212"/>
       <use x="58.3984375" xlink:href="#LiberationSans-32"/>
       <use x="114.013671875" xlink:href="#LiberationSans-36"/>
       <use x="169.62890625" xlink:href="#LiberationSans-30"/>
       <use x="225.244140625" xlink:href="#LiberationSans-30"/>
      </g>
     </g>
    </g>
    <g id="ytick_6">
     <g id="line2d_28">
      <path clip-path="url(#pd2d035e3ac)" d="M 72 130.114286 
L 518.4 130.114286 
" style="fill:none;stroke:#ffffff;stroke-linecap:round;"/>
     </g>
     <g id="line2d_29"/>
     <g id="line2d_30"/>
     <g id="text_11">
      <!-- −2400 -->
      <g style="fill:#262626;" transform="translate(36.915625 132.700223214)scale(0.1 -0.1)">
       <use xlink:href="#LiberationSans-2212"/>
       <use x="58.3984375" xlink:href="#LiberationSans-32"/>
       <use x="114.013671875" xlink:href="#LiberationSans-34"/>
       <use x="169.62890625" xlink:href="#LiberationSans-30"/>
       <use x="225.244140625" xlink:href="#LiberationSans-30"/>
      </g>
     </g>
    </g>
    <g id="ytick_7">
     <g id="line2d_31">
      <path clip-path="url(#pd2d035e3ac)" d="M 72 84.857143 
L 518.4 84.857143 
" style="fill:none;stroke:#ffffff;stroke-linecap:round;"/>
     </g>
     <g id="line2d_32"/>
     <g id="line2d_33"/>
     <g id="text_12">
      <!-- −2200 -->
      <g style="fill:#262626;" transform="translate(36.915625 87.4430803571)scale(0.1 -0.1)">
       <use xlink:href="#LiberationSans-2212"/>
       <use x="58.3984375" xlink:href="#LiberationSans-32"/>
       <use x="114.013671875" xlink:href="#LiberationSans-32"/>
       <use x="169.62890625" xlink:href="#LiberationSans-30"/>
       <use x="225.244140625" xlink:href="#LiberationSans-30"/>
      </g>
     </g>
    </g>
    <g id="ytick_8">
     <g id="line2d_34">
      <path clip-path="url(#pd2d035e3ac)" d="M 72 39.6 
L 518.4 39.6 
" style="fill:none;stroke:#ffffff;stroke-linecap:round;"/>
     </g>
     <g id="line2d_35"/>
     <g id="line2d_36"/>
     <g id="text_13">
      <!-- −2000 -->
      <g style="fill:#262626;" transform="translate(36.915625 42.1859375)scale(0.1 -0.1)">
       <use xlink:href="#LiberationSans-2212"/>
       <use x="58.3984375" xlink:href="#LiberationSans-32"/>
       <use x="114.013671875" xlink:href="#LiberationSans-30"/>
       <use x="169.62890625" xlink:href="#LiberationSans-30"/>
       <use x="225.244140625" xlink:href="#LiberationSans-30"/>
      </g>
     </g>
    </g>
   </g>
   <g id="line2d_37">
    <path clip-path="url(#pd2d035e3ac)" d="M 72 72.668196 
L 72.223312 72.668196 
L 72.446623 72.668196 
L 72.669935 74.908424 
L 72.893247 71.078378 
L 73.116558 73.553458 
L 73.33987 72.433344 
L 73.786493 72.433344 
L 74.009805 75.143276 
L 74.233117 73.78831 
L 74.456428 74.673573 
L 74.67974 76.913801 
L 74.903052 76.913801 
L 75.126363 74.673573 
L 75.349675 76.028539 
L 75.572986 71.728788 
L 75.796298 71.96364 
L 76.01961 73.553458 
L 76.242921 73.553458 
L 76.466233 75.793687 
L 76.689545 74.438721 
L 76.912856 77.148653 
L 77.136168 73.083755 
L 77.35948 74.203869 
L 77.582791 78.268767 
L 77.806103 73.083755 
L 78.029415 74.673573 
L 78.922661 74.673573 
L 79.145973 72.198492 
L 79.369285 74.908424 
L 79.592596 74.438721 
L 79.815908 74.908424 
L 80.03922 72.668196 
L 80.262531 74.725455 
L 80.485843 74.957541 
L 80.709155 76.967946 
L 80.932466 81.448403 
L 81.37909 77.618357 
L 81.602401 80.9787 
L 82.049025 76.681212 
L 82.272336 78.921441 
L 82.495648 76.913801 
L 82.718959 80.276407 
L 82.942271 74.856542 
L 83.165583 77.096771 
L 83.388894 75.976656 
L 83.612206 77.747181 
L 83.835518 72.562169 
L 84.058829 70.32194 
L 84.505453 72.381462 
L 84.728764 73.501576 
L 84.952076 69.436678 
L 85.175388 70.556792 
L 85.398699 74.62169 
L 85.622011 74.856542 
L 85.845323 70.13897 
L 86.068634 71.728788 
L 86.291946 70.13897 
L 86.961881 73.736428 
L 87.408504 73.736428 
L 87.631816 77.096771 
L 87.855128 73.266724 
L 88.078439 73.501576 
L 88.301751 73.031872 
L 88.525063 73.031872 
L 88.748374 69.436678 
L 88.971686 93.640333 
L 89.194997 72.848903 
L 89.418309 70.373822 
L 89.864932 72.381462 
L 90.088244 70.373822 
L 90.311556 70.13897 
L 90.534867 70.608674 
L 90.981491 72.848903 
L 91.204802 71.493936 
L 91.428114 73.501576 
L 91.651426 71.493936 
L 91.874737 71.026496 
L 92.098049 71.026496 
L 92.321361 69.671529 
L 92.544672 72.381462 
L 92.991296 71.442054 
L 93.214607 72.14661 
L 93.437919 72.14661 
L 93.884542 73.682283 
L 94.331166 73.682283 
L 94.554477 72.327317 
L 94.777789 78.869558 
L 95.001101 76.159626 
L 95.224412 79.754821 
L 95.447724 79.754821 
L 95.671036 76.392215 
L 95.894347 76.392215 
L 96.117659 78.634707 
L 96.564282 73.449694 
L 96.787594 73.682283 
L 97.010905 76.392215 
L 97.234217 75.741805 
L 97.457529 78.399855 
L 97.68084 77.930151 
L 97.904152 75.455071 
L 98.127464 79.285117 
L 98.350775 78.399855 
L 98.574087 75.689922 
L 98.797399 71.207202 
L 99.02071 77.747181 
L 99.244022 79.102147 
L 99.690645 74.569808 
L 99.913957 74.334956 
L 100.137269 75.037249 
L 100.36058 74.569808 
L 100.583892 73.449694 
L 100.807204 77.514592 
L 101.030515 73.449694 
L 101.253827 72.327317 
L 101.477139 76.810037 
L 101.70045 75.455071 
L 101.923762 79.754821 
L 102.147074 81.109787 
L 102.370385 78.869558 
L 103.04032 81.109787 
L 103.263632 79.754821 
L 103.486943 84.054571 
L 103.710255 81.109787 
L 103.933567 82.229901 
L 104.156878 84.47013 
L 104.603502 84.47013 
L 104.826813 85.590244 
L 105.050125 88.717998 
L 105.273437 89.838112 
L 105.72006 93.200718 
L 105.943372 94.320832 
L 106.166683 96.561061 
L 106.389995 90.906344 
L 106.613307 91.141196 
L 106.836618 94.971243 
L 107.05993 93.851129 
L 107.283242 100.339225 
L 107.506553 102.344602 
L 107.729865 102.344602 
L 107.953177 100.104373 
L 108.176488 100.104373 
L 108.3998 99.63467 
L 108.623112 98.749407 
L 109.069735 96.039475 
L 109.293047 98.749407 
L 109.516358 97.394441 
L 109.73967 98.514555 
L 109.962981 101.877161 
L 110.186293 99.399818 
L 110.409605 99.399818 
L 110.632916 98.279704 
L 110.856228 95.804623 
L 111.302851 93.329543 
L 111.526163 97.159589 
L 111.749475 96.039475 
L 111.972786 91.089314 
L 112.41941 88.614234 
L 112.642721 88.849086 
L 112.866033 89.9692 
L 113.089345 89.734348 
L 113.312656 85.66945 
L 113.535968 85.66945 
L 113.75928 85.434598 
L 113.982591 82.959517 
L 114.205903 86.31986 
L 114.429215 86.789564 
L 114.652526 83.84478 
L 114.875838 86.554712 
L 115.09915 91.270021 
L 115.322461 89.915055 
L 115.545773 86.31986 
L 115.769085 90.384759 
L 116.215708 88.560089 
L 116.43902 87.909678 
L 116.662331 88.794941 
L 116.885643 91.270021 
L 117.108954 86.31986 
L 117.332266 88.794941 
L 117.555578 87.439974 
L 117.778889 92.573105 
L 118.002201 87.857796 
L 118.225513 92.338253 
L 118.448824 91.870812 
L 118.672136 90.750698 
L 118.895448 92.990927 
L 119.118759 91.870812 
L 119.342071 87.15324 
L 119.788694 90.098025 
L 120.012006 92.573105 
L 120.235318 91.218139 
L 120.458629 91.218139 
L 120.681941 90.098025 
L 120.905253 92.338253 
L 121.128564 90.098025 
L 121.351876 92.807957 
L 121.575188 93.46063 
L 121.798499 89.863173 
L 122.021811 96.769091 
L 122.245123 98.774468 
L 122.468434 99.661993 
L 122.691746 96.064535 
L 122.915058 98.072175 
L 123.138369 98.072175 
L 123.361681 100.077552 
L 123.584992 100.077552 
L 123.808304 97.837323 
L 124.254927 97.367619 
L 124.478239 98.487734 
L 124.701551 98.252882 
L 124.924862 97.785441 
L 125.148174 98.201 
L 125.371486 106.929325 
L 125.594797 97.444562 
L 125.818109 103.33413 
L 126.041421 97.679414 
L 126.488044 101.276871 
L 126.711356 109.119934 
L 126.934667 101.69243 
L 127.157979 101.927282 
L 127.604602 99.921905 
L 127.827914 101.276871 
L 128.051226 100.624198 
L 128.497849 113.471567 
L 128.721161 110.994223 
L 128.944472 109.874109 
L 129.167784 109.874109 
L 129.614407 110.343813 
L 129.837719 112.584041 
L 130.284342 110.343813 
L 130.507654 109.223698 
L 130.730965 109.223698 
L 130.954277 109.45855 
L 131.177589 109.223698 
L 131.4009 110.343813 
L 131.624212 109.223698 
L 131.847524 109.223698 
L 132.070835 112.349189 
L 132.294147 113.236715 
L 132.74077 116.597058 
L 133.187394 113.887125 
L 133.410705 115.476943 
L 133.634017 114.121977 
L 133.857329 113.652273 
L 134.08064 107.581998 
L 134.303952 116.831909 
L 134.527264 116.597058 
L 134.750575 119.255108 
L 134.973887 116.310324 
L 135.197199 116.962997 
L 135.42051 115.84062 
L 135.643822 111.543132 
L 136.090445 114.720506 
L 136.313757 105.757328 
L 136.537069 107.347146 
L 136.76038 106.227032 
L 136.983692 107.81685 
L 137.207004 104.454244 
L 137.430315 112.349189 
L 137.653627 111.646897 
L 138.10025 113.887125 
L 138.323562 110.291931 
L 138.546873 114.121977 
L 138.770185 109.171816 
L 138.993497 110.994223 
L 139.216808 107.216059 
L 139.44012 96.064535 
L 139.886743 103.257188 
L 140.110055 103.907598 
L 140.333367 98.722585 
L 140.556678 102.552632 
L 140.77999 104.377302 
L 141.003302 108.207349 
L 141.226613 107.737645 
L 141.673237 114.982179 
L 141.896548 105.497416 
L 142.11986 85.771452 
L 142.566483 109.925991 
L 142.789795 106.98347 
L 143.45973 114.356829 
L 143.683042 115.00724 
L 143.906353 115.00724 
L 144.129665 119.724811 
L 144.576288 114.772388 
L 144.7996 114.772388 
L 145.022911 119.020256 
L 145.246223 118.317963 
L 145.469535 116.962997 
L 145.692846 112.245425 
L 145.916158 110.890459 
L 146.586093 121.391572 
L 146.809405 122.276834 
L 147.032716 121.15672 
L 147.256028 122.746538 
L 147.47934 121.15672 
L 147.702651 126.576585 
L 147.925963 126.994406 
L 148.149275 121.391572 
L 148.372586 123.216242 
L 148.81921 118.733522 
L 149.042521 123.216242 
L 149.265833 124.751915 
L 149.489145 121.391572 
L 149.712456 125.45647 
L 149.935768 123.631801 
L 150.382391 142.861239 
L 150.605703 141.506273 
L 150.829015 141.506273 
L 151.052326 137.911078 
L 151.275638 138.380782 
L 151.498949 142.44568 
L 151.722261 162.612263 
L 151.945573 155.187022 
L 152.168884 154.066907 
L 152.392196 156.072284 
L 152.615508 150.234598 
L 152.838819 151.122123 
L 153.062131 155.60258 
L 153.285443 150.887271 
L 153.508754 149.767157 
L 153.732066 143.877589 
L 153.955378 143.642737 
L 154.178689 139.214162 
L 154.402001 137.676226 
L 154.625313 144.920761 
L 154.848624 146.926137 
L 155.071936 144.920761 
L 155.295248 134.367765 
L 155.518559 137.728108 
L 155.741871 136.373142 
L 155.965183 137.493256 
L 156.188494 141.975976 
L 156.411806 141.506273 
L 156.635118 141.924094 
L 156.858429 144.164323 
L 157.081741 143.513912 
L 157.305053 144.868878 
L 157.528364 143.565794 
L 157.751676 132.960917 
L 157.974987 136.13829 
L 158.198299 143.800646 
L 158.421611 132.960917 
L 158.644922 135.722732 
L 158.868234 136.192435 
L 159.091546 130.589601 
L 159.538169 128.349372 
L 159.984792 138.95425 
L 160.431416 132.360126 
L 160.654727 136.607994 
L 160.878039 127.123231 
L 161.101351 128.947901 
L 161.324662 128.947901 
L 161.547974 131.657833 
L 161.771286 127.827787 
L 161.994597 126.707672 
L 162.441221 135.722732 
L 162.664532 130.537719 
L 162.887844 128.713049 
L 163.111156 140.907744 
L 163.334467 128.713049 
L 163.557779 133.299533 
L 163.781091 151.435679 
L 164.004402 124.571208 
L 164.227714 148.021191 
L 164.451026 137.651166 
L 164.674337 136.2962 
L 164.897649 131.578628 
L 165.12096 136.11323 
L 165.344272 132.701005 
L 165.567584 142.836178 
L 166.014207 140.544068 
L 166.237519 140.544068 
L 166.46083 135.070058 
L 166.684142 135.722732 
L 166.907454 134.367765 
L 167.130765 135.48788 
L 167.354077 134.132914 
L 167.577389 134.837469 
L 167.8007 133.064681 
L 168.024012 135.124203 
L 168.247324 134.236678 
L 168.470635 136.061348 
L 168.693947 136.2962 
L 168.917259 140.126246 
L 169.14057 139.891394 
L 169.363882 136.479169 
L 169.587194 140.126246 
L 169.810505 135.826496 
L 170.033817 139.656542 
L 170.257129 138.301576 
L 170.48044 140.544068 
L 170.703752 138.066724 
L 170.927064 134.236678 
L 171.150375 135.356792 
L 171.373687 138.066724 
L 171.82031 140.544068 
L 172.043622 140.544068 
L 172.266933 138.301576 
L 172.490245 139.421691 
L 172.713557 137.364432 
L 172.936868 136.894728 
L 173.16018 141.377448 
L 173.383492 138.197812 
L 173.606803 136.842846 
L 173.830115 134.367765 
L 174.053427 138.432664 
L 174.276738 136.425024 
L 174.50005 139.78763 
L 174.946673 136.192435 
L 175.169985 135.722732 
L 175.393297 138.667516 
L 175.83992 134.184796 
L 176.063232 136.659876 
L 176.286543 136.425024 
L 176.509855 137.547401 
L 176.733167 142.967266 
L 176.956478 140.489923 
L 177.17979 135.30491 
L 177.403102 140.489923 
L 177.626413 141.377448 
L 177.849725 141.6123 
L 178.073037 140.489923 
L 178.742971 160.710651 
L 178.966283 154.405524 
L 179.189595 157.115456 
L 179.636218 153.285409 
L 180.082841 149.272393 
L 180.306153 160.112122 
L 180.529465 154.457406 
L 180.752776 154.692258 
L 180.976088 152.867588 
L 181.1994 156.697634 
L 181.869335 153.572143 
L 182.092646 154.039584 
L 182.315958 151.329652 
L 182.53927 154.927109 
L 182.762581 154.927109 
L 182.985893 155.812372 
L 183.432516 153.337291 
L 183.655828 151.097063 
L 183.87914 153.806995 
L 184.102451 150.862211 
L 184.325763 158.0526 
L 184.549075 153.285409 
L 184.772386 153.520261 
L 184.995698 156.230193 
L 185.21901 157.296163 
L 185.442321 160.89362 
L 185.665633 159.06895 
L 185.888944 159.06895 
L 186.112256 159.303802 
L 186.558879 166.912013 
L 186.782191 166.026751 
L 187.005503 162.612263 
L 187.228814 161.492149 
L 187.452126 161.727001 
L 187.675438 164.436933 
L 187.898749 162.612263 
L 188.345373 165.322195 
L 188.568684 162.847115 
L 188.791996 162.612263 
L 189.015308 164.202081 
L 189.238619 164.019111 
L 189.461931 163.133849 
L 189.685243 167.849158 
L 189.908554 166.494192 
L 190.131866 166.963895 
L 190.355178 166.078633 
L 190.578489 172.618612 
L 190.801801 173.973578 
L 191.025113 172.148908 
L 191.248424 168.318862 
L 191.471736 167.668451 
L 191.695048 171.028794 
L 191.918359 172.148908 
L 192.141671 168.318862 
L 192.364982 168.788565 
L 192.588294 163.890287 
L 192.811606 166.130515 
L 193.034917 164.540697 
L 193.258229 169.490858 
L 193.481541 164.070993 
L 193.704852 164.958519 
L 193.928164 166.313485 
L 194.151476 168.553713 
L 194.374787 165.374077 
L 194.821411 168.318862 
L 195.044722 166.313485 
L 195.714657 173.269022 
L 195.937969 172.38376 
L 196.161281 174.623989 
L 196.384592 178.688887 
L 196.607904 179.811264 
L 196.831216 182.467051 
L 197.054527 178.402153 
L 197.277839 179.757119 
L 197.501151 179.757119 
L 197.724462 181.764759 
L 197.947774 174.806958 
L 198.394397 182.415169 
L 198.617709 171.394733 
L 198.841021 181.452964 
L 199.064332 155.941197 
L 199.287644 165.42596 
L 199.510955 164.253963 
L 199.734267 162.429293 
L 199.957579 164.019111 
L 200.18089 163.55167 
L 200.404202 164.906637 
L 200.627514 168.032128 
L 200.850825 163.967229 
L 201.074137 167.562424 
L 201.297449 162.142559 
L 201.52076 165.322195 
L 201.744072 163.784259 
L 201.967384 164.436933 
L 202.190695 159.25192 
L 202.414007 163.967229 
L 202.637319 158.782216 
L 202.86063 159.017068 
L 203.307254 155.60258 
L 203.530565 157.845072 
L 203.753877 151.537682 
L 203.977189 154.900288 
L 204.2005 150.600537 
L 204.423812 154.378702 
L 204.647124 154.14385 
L 204.870435 148.306164 
L 205.093747 152.371062 
L 205.763682 139.577838 
L 205.986993 139.577838 
L 206.210305 140.932805 
L 206.433617 146.587521 
L 206.88024 140.880922 
L 207.103552 134.343709 
L 207.326863 132.753891 
L 207.550175 127.80373 
L 207.773487 126.448764 
L 207.996798 130.513662 
L 208.22011 128.923844 
L 208.443422 137.050876 
L 208.666733 133.68827 
L 208.890045 135.043236 
L 209.113357 128.038582 
L 209.336668 141.766185 
L 209.55998 139.760808 
L 209.783292 139.760808 
L 210.006603 140.230512 
L 210.229915 137.52058 
L 210.453227 144.060558 
L 210.676538 142.235889 
L 210.89985 142.886299 
L 211.123162 141.766185 
L 211.346473 139.056253 
L 211.569785 137.704052 
L 211.793097 133.223594 
L 212.016408 137.285728 
L 212.23972 143.825707 
L 212.463032 140.463101 
L 212.686343 141.167656 
L 212.909655 142.287771 
L 213.132966 137.572462 
L 213.356278 145.232555 
L 213.57959 147.707635 
L 213.802901 146.352669 
L 214.026213 147.472783 
L 214.249525 146.770491 
L 214.472836 140.463101 
L 214.91946 145.415525 
L 215.142771 145.650376 
L 215.366083 146.535639 
L 215.589395 139.577838 
L 215.812706 145.415525 
L 216.036018 140.463101 
L 216.25933 144.762851 
L 216.482641 144.29541 
L 216.705953 141.63736 
L 216.929265 140.517246 
L 217.152576 134.029149 
L 217.5992 139.864572 
L 217.822511 137.389492 
L 218.045823 138.509606 
L 218.492446 134.261738 
L 218.715758 134.261738 
L 218.93907 138.561488 
L 219.162381 130.250985 
L 219.385693 134.315883 
L 219.609005 130.485837 
L 219.832316 135.201146 
L 220.055628 130.718426 
L 220.278939 134.550735 
L 220.502251 134.315883 
L 220.725563 139.031192 
L 221.172186 135.201146 
L 221.395498 127.175113 
L 221.618809 133.299533 
L 221.842121 128.764931 
L 222.065433 127.931551 
L 222.288744 129.051665 
L 222.512056 129.286517 
L 222.735368 130.928217 
L 222.958679 154.56117 
L 223.181991 153.675908 
L 223.405303 155.448695 
L 223.628614 150.731123 
L 223.851926 150.496272 
L 224.298549 151.616386 
L 224.521861 145.076407 
L 224.745173 144.374114 
L 224.968484 145.259377 
L 225.191796 143.019148 
L 225.415108 139.421691 
L 225.638419 139.421691 
L 226.085043 145.076407 
L 226.308354 141.716064 
L 226.531666 141.716064 
L 226.754977 148.256043 
L 226.978289 150.965975 
L 227.201601 145.780963 
L 227.424912 146.250666 
L 227.648224 148.725747 
L 227.871536 149.376157 
L 228.318159 146.431373 
L 228.764782 139.006132 
L 228.988094 138.120869 
L 229.434717 139.109896 
L 229.658029 137.520078 
L 229.881341 140.464862 
L 230.104652 139.76257 
L 230.327964 135.697671 
L 230.551276 138.172752 
L 230.774587 129.157692 
L 231.221211 134.993116 
L 231.444522 139.943276 
L 231.667834 135.878378 
L 231.891146 134.28856 
L 232.114457 131.81348 
L 232.337769 130.693365 
L 232.784392 132.466153 
L 233.007704 132.701005 
L 233.231016 135.410937 
L 233.454327 134.28856 
L 233.677639 141.011509 
L 234.124262 141.011509 
L 234.347574 139.656542 
L 234.570885 139.656542 
L 234.794197 139.891394 
L 235.24082 136.94661 
L 235.464132 140.776657 
L 235.687444 136.94661 
L 235.910755 140.309216 
L 236.134067 140.959626 
L 236.357379 142.549444 
L 236.58069 142.314593 
L 236.804002 142.549444 
L 237.027314 141.194478 
L 237.250625 134.889351 
L 237.473937 131.944567 
L 237.697249 126.759554 
L 237.92056 129.469487 
L 238.143872 126.759554 
L 238.367184 128.114521 
L 238.590495 130.589601 
L 238.813807 130.589601 
L 239.037119 131.059305 
L 239.26043 133.769237 
L 239.707054 131.291894 
L 239.930365 132.64686 
L 240.153677 131.526746 
L 240.376988 129.051665 
L 240.6003 129.051665 
L 240.823612 130.223662 
L 241.046923 131.996449 
L 241.270235 137.416314 
L 241.493547 136.711758 
L 241.716858 137.599284 
L 241.94017 136.479169 
L 242.163482 133.534385 
L 242.386793 136.244317 
L 242.610105 136.479169 
L 242.833417 129.286517 
L 243.056728 127.931551 
L 243.28004 130.171779 
L 243.503352 129.051665 
L 243.726663 130.171779 
L 243.949975 124.336356 
L 244.173287 122.093865 
L 244.396598 125.45647 
L 244.61991 122.746538 
L 244.843222 122.746538 
L 245.066533 125.45647 
L 245.289845 125.221619 
L 245.736468 127.696699 
L 245.95978 125.221619 
L 246.183092 128.349372 
L 246.629715 122.746538 
L 246.853027 126.576585 
L 247.076338 126.341733 
L 247.29965 125.691322 
L 247.746273 121.861276 
L 247.969585 121.861276 
L 248.192896 122.093865 
L 248.416208 121.861276 
L 248.63952 123.866652 
L 248.862831 120.50631 
L 249.086143 120.271458 
L 249.309455 121.626424 
L 249.532766 120.50631 
L 249.756078 124.571208 
L 249.97939 123.683683 
L 250.202701 119.203226 
L 250.649325 121.678306 
L 250.872636 121.913158 
L 251.095948 118.317963 
L 251.31926 118.083111 
L 251.542571 118.968374 
L 251.765883 112.428395 
L 251.989195 111.308281 
L 252.212506 115.373179 
L 252.435818 112.010573 
L 252.65913 113.600391 
L 252.882441 114.070095 
L 253.105753 116.310324 
L 253.329065 114.955357 
L 253.552376 116.310324 
L 253.775688 124.205269 
L 253.998999 124.205269 
L 254.222311 122.615451 
L 254.668934 111.543132 
L 254.892246 111.543132 
L 255.115558 107.060412 
L 255.338869 110.4749 
L 255.785493 126.499642 
L 256.008804 124.674972 
L 256.232116 127.802726 
L 256.455428 122.434744 
L 256.678739 121.314629 
L 256.902051 121.079778 
L 257.125363 128.270167 
L 257.348674 127.150053 
L 257.571986 129.157692 
L 258.018609 124.153386 
L 258.241921 125.038649 
L 258.465233 125.273501 
L 258.911856 134.157974 
L 259.135168 133.923122 
L 259.358479 135.043236 
L 259.581791 130.797631 
L 259.805103 133.68827 
L 260.028414 141.818067 
L 260.251726 140.230512 
L 260.698349 133.68827 
L 260.921661 136.398202 
L 261.368284 135.278088 
L 261.591596 138.222872 
L 261.814907 136.867906 
L 262.038219 134.627678 
L 262.261531 135.799674 
L 262.484842 142.339653 
L 262.708154 137.624344 
L 263.154777 134.67956 
L 263.378089 128.609285 
L 263.601401 134.67956 
L 263.824712 126.601645 
L 264.048024 132.02151 
L 264.271336 126.366793 
L 264.494647 126.366793 
L 264.717959 133.794297 
L 265.387894 123.711006 
L 265.611206 122.588629 
L 265.834517 128.713049 
L 266.057829 127.827787 
L 266.504452 123.110215 
L 266.951076 130.772571 
L 267.174387 129.182753 
L 267.621011 117.742232 
L 267.844322 117.274791 
L 268.067634 118.394906 
L 268.290945 122.875363 
L 268.514257 116.335384 
L 268.737569 123.110215 
L 268.96088 120.16543 
L 269.184192 122.407922 
L 269.407504 121.052956 
L 269.630815 118.810464 
L 269.854127 120.869986 
L 270.077439 115.684973 
L 270.524062 128.08946 
L 270.747374 120.14037 
L 270.970685 132.804769 
L 271.193997 127.619756 
L 271.417309 125.846969 
L 271.64062 126.316672 
L 271.863932 130.799392 
L 272.310555 117.430438 
L 272.533867 117.430438 
L 272.98049 121.913158 
L 273.203802 119.203226 
L 273.427114 118.083111 
L 273.650425 141.950916 
L 274.097049 143.904411 
L 274.32036 142.131623 
L 274.543672 144.608966 
L 274.766983 133.403298 
L 274.990295 136.348082 
L 275.213607 141.298243 
L 275.436918 139.708425 
L 275.66023 136.348082 
L 275.883542 129.390281 
L 276.106853 130.042955 
L 276.330165 131.632773 
L 276.553477 129.157692 
L 276.776788 130.512658 
L 277.0001 130.277807 
L 277.223412 131.163069 
L 277.446723 130.458513 
L 277.670035 132.283183 
L 278.116658 129.338399 
L 278.33997 130.458513 
L 278.786593 124.62309 
L 279.009905 128.218285 
L 279.233217 128.218285 
L 279.456528 127.567874 
L 279.67984 126.44776 
L 279.903152 128.92284 
L 280.126463 126.029938 
L 280.349775 128.270167 
L 280.573087 124.024562 
L 281.01971 127.150053 
L 281.243022 127.384905 
L 281.466333 128.505019 
L 281.689645 127.384905 
L 281.912956 129.209574 
L 282.136268 127.619756 
L 282.35958 134.342705 
L 282.582891 131.214951 
L 282.806203 126.029938 
L 283.029515 125.560235 
L 283.252826 130.512658 
L 283.476138 132.752887 
L 283.69945 131.632773 
L 283.922761 128.92284 
L 284.146073 131.632773 
L 284.816008 126.44776 
L 285.03932 120.088488 
L 285.262631 118.733522 
L 285.485943 115.319034 
L 285.932566 124.934885 
L 286.155878 122.459804 
L 286.602501 128.114521 
L 286.825813 126.759554 
L 287.049125 123.162097 
L 287.272436 129.234635 
L 287.495748 128.114521 
L 287.71906 127.879669 
L 288.165683 122.694656 
L 288.388994 119.566902 
L 288.612306 120.687016 
L 288.835618 123.396949 
L 289.058929 121.807131 
L 289.282241 117.742232 
L 289.728864 120.452165 
L 289.952176 124.517063 
L 290.398799 124.517063 
L 290.622111 121.807131 
L 290.845423 120.921868 
L 291.068734 128.062638 
L 291.292046 126.47282 
L 291.515358 128.713049 
L 291.738669 128.947901 
L 291.961981 128.947901 
L 292.185293 129.833163 
L 292.408604 128.947901 
L 292.855228 135.435997 
L 293.078539 135.435997 
L 293.525163 132.960917 
L 293.748474 134.081031 
L 293.971786 132.960917 
L 294.195098 133.66321 
L 294.418409 132.543096 
L 294.641721 132.543096 
L 295.088344 135.018176 
L 295.311656 131.657833 
L 295.534967 130.537719 
L 295.758279 132.127537 
L 295.981591 131.657833 
L 296.204902 130.302867 
L 296.428214 128.062638 
L 296.651526 131.188129 
L 296.874837 127.358083 
L 297.098149 126.47282 
L 297.321461 121.9901 
L 297.768084 124.465181 
L 297.991396 124.465181 
L 298.438019 114.095155 
L 298.661331 120.400282 
L 298.884642 117.039939 
L 299.107954 116.622118 
L 299.331266 118.028966 
L 299.554577 121.861276 
L 299.777889 110.603725 
L 300.001201 116.674 
L 300.224512 112.843954 
L 300.447824 118.916492 
L 300.671136 115.971707 
L 300.894447 117.091822 
L 301.117759 117.091822 
L 301.341071 111.775721 
L 301.564382 116.728145 
L 301.787694 116.493293 
L 302.011006 115.553886 
L 302.457629 112.193543 
L 302.68094 110.134021 
L 302.904252 118.028966 
L 303.127564 118.733522 
L 303.574187 125.508353 
L 303.797499 125.038649 
L 304.02081 122.79842 
L 304.244122 127.748581 
L 304.467434 124.388238 
L 304.690745 126.158763 
L 304.914057 126.863319 
L 305.137369 126.863319 
L 305.36068 122.79842 
L 305.583992 123.502976 
L 305.807304 128.218285 
L 306.030615 129.103547 
L 306.253927 127.983433 
L 306.477239 131.81348 
L 306.923862 134.523412 
L 307.370485 130.042955 
L 307.593797 125.743204 
L 307.817109 129.808103 
L 308.04042 128.92284 
L 308.263732 128.92284 
L 308.487044 127.567874 
L 308.933667 121.443454 
L 309.156978 121.443454 
L 309.38029 129.991073 
L 309.603602 127.748581 
L 310.050225 141.063391 
L 310.273537 134.28856 
L 310.496848 132.752887 
L 310.72016 127.802726 
L 310.943472 127.333022 
L 311.166783 128.687989 
L 311.390095 133.168446 
L 311.836718 130.693365 
L 312.06003 130.928217 
L 312.283342 129.390281 
L 312.506653 130.042955 
L 312.729965 127.567874 
L 312.953277 127.333022 
L 313.176588 130.277807 
L 313.3999 131.632773 
L 313.623212 134.107853 
L 313.846523 134.523412 
L 314.293147 136.765903 
L 314.73977 129.338399 
L 314.963082 128.218285 
L 315.409705 124.153386 
L 315.633017 116.493293 
L 315.856328 119.203226 
L 316.07964 113.313657 
L 316.526263 119.801754 
L 316.749575 119.566902 
L 316.972886 124.934885 
L 317.196198 122.694656 
L 317.41951 119.33205 
L 317.642821 120.452165 
L 317.866133 122.694656 
L 318.089445 122.694656 
L 318.312756 120.452165 
L 318.536068 120.452165 
L 318.75938 118.211936 
L 318.982691 120.452165 
L 319.206003 116.387266 
L 319.652626 122.459804 
L 319.875938 124.230329 
L 320.09925 117.69035 
L 320.322561 114.512977 
L 320.545873 121.052956 
L 320.769185 118.577875 
L 320.992496 117.69035 
L 321.43912 124.413299 
L 321.662431 122.823481 
L 321.885743 124.413299 
L 322.109055 124.413299 
L 322.332366 122.17307 
L 322.555678 126.003117 
L 322.778989 124.64815 
L 323.225613 126.653527 
L 323.448924 126.420938 
L 323.672236 123.00645 
L 323.895548 125.246679 
L 324.118859 125.011827 
L 324.342171 126.366793 
L 324.565483 121.651484 
L 325.012106 118.471848 
L 325.682041 114.876653 
L 325.905353 110.81452 
L 326.128664 102.919575 
L 326.351976 104.039689 
L 326.575288 78.816919 
L 326.798599 103.85672 
L 327.021911 109.926493 
L 327.468534 106.3318 
L 327.691846 106.51477 
L 327.915158 97.863387 
L 328.138469 107.113298 
L 328.361781 101.277875 
L 328.585093 101.277875 
L 328.808404 99.035384 
L 329.031716 107.583002 
L 329.255028 108.000824 
L 329.478339 114.071099 
L 329.701651 109.120938 
L 329.924962 123.32101 
L 330.148274 120.845929 
L 330.371586 125.328649 
L 330.594897 122.383865 
L 330.818209 123.086158 
L 331.041521 120.845929 
L 331.264832 124.206272 
L 331.488144 114.071099 
L 331.711456 112.065722 
L 331.934767 119.725815 
L 332.158079 117.901145 
L 332.381391 114.721509 
L 332.604702 102.761666 
L 332.828014 104.116632 
L 333.051326 102.346107 
L 333.274637 103.935925 
L 333.497949 103.935925 
L 333.721261 103.466221 
L 333.944572 104.821188 
L 334.167884 105.056039 
L 334.391196 107.296268 
L 334.614507 107.765972 
L 334.837819 104.586336 
L 335.061131 111.959695 
L 335.284442 112.429399 
L 335.507754 114.434775 
L 336.177689 100.573319 
L 336.401001 106.176154 
L 336.624312 103.466221 
L 336.847624 103.0484 
L 337.070935 101.876403 
L 337.294247 100.051734 
L 337.74087 101.589669 
L 337.964182 95.986835 
L 338.187494 97.341801 
L 338.410805 96.169805 
L 338.634117 91.400351 
L 338.857429 95.413367 
L 339.08074 94.528105 
L 339.304052 101.016201 
L 339.527364 91.76629 
L 339.973987 96.899421 
L 340.197299 102.084433 
L 340.42061 97.366862 
L 340.643922 97.366862 
L 340.867234 94.605047 
L 341.313857 86.710102 
L 341.537169 83.349759 
L 341.76048 82.229645 
L 341.983792 82.229645 
L 342.207104 83.8172 
L 342.430415 81.576972 
L 342.653727 81.107268 
L 342.877039 83.8172 
L 343.10035 83.8172 
L 343.323662 87.830216 
L 343.546973 78.345453 
L 343.770285 86.423368 
L 343.993597 83.948288 
L 344.216908 84.83355 
L 344.44022 87.076041 
L 344.886843 96.924481 
L 345.110155 94.684252 
L 345.333467 93.796727 
L 345.556778 95.386545 
L 345.78009 99.035885 
L 346.003402 99.087767 
L 346.226713 92.129967 
L 346.450025 98.904797 
L 346.673337 98.904797 
L 346.896648 97.134273 
L 347.11996 91.192822 
L 347.343272 97.080128 
L 347.566583 94.553165 
L 347.789895 93.61602 
L 348.013207 95.386545 
L 348.236518 93.146317 
L 348.683142 97.394185 
L 348.906453 92.911465 
L 349.129765 96.271808 
L 349.353077 95.804367 
L 349.576388 101.404938 
L 349.7997 92.441761 
L 350.023012 100.336706 
L 350.246323 100.336706 
L 350.469635 97.809743 
L 350.916258 88.794684 
L 351.13957 101.172349 
L 351.362881 92.676613 
L 351.586193 90.436384 
L 351.809505 90.488266 
L 352.032816 94.318313 
L 352.256128 104.45575 
L 352.926063 97.915771 
L 353.149375 102.213258 
L 353.372686 97.915771 
L 353.595998 101.745817 
L 353.81931 99.270737 
L 354.042621 103.335635 
L 354.265933 103.335635 
L 354.489245 101.745817 
L 354.712556 102.865932 
L 355.15918 116.492535 
L 355.382491 116.962239 
L 355.605803 116.309566 
L 355.829115 119.019498 
L 356.052426 118.42097 
L 356.275738 120.010788 
L 356.49905 124.493508 
L 356.722361 121.783575 
L 356.945673 122.668838 
L 357.168984 122.433986 
L 357.392296 127.618999 
L 357.615608 128.504261 
L 357.838919 124.023804 
L 358.062231 123.138542 
L 358.285543 124.726097 
L 358.508854 124.023804 
L 358.732166 124.726097 
L 358.955478 128.558406 
L 359.178789 124.310538 
L 359.625413 128.558406 
L 359.848724 117.117886 
L 360.295348 125.015094 
L 360.518659 126.602649 
L 360.741971 126.602649 
L 360.965283 122.122192 
L 361.188594 127.490174 
L 361.411906 127.490174 
L 361.635218 116.650445 
L 361.858529 119.360377 
L 362.081841 118.472852 
L 362.305153 119.125525 
L 362.528464 120.480491 
L 362.751776 120.24564 
L 362.975088 116.650445 
L 363.198399 118.240263 
L 363.421711 118.942556 
L 363.645023 118.707704 
L 363.868334 122.772602 
L 364.091646 121.652488 
L 364.314957 121.652488 
L 364.538269 119.412259 
L 364.761581 123.998744 
L 364.984892 112.454459 
L 365.208204 121.756252 
L 365.431516 115.164391 
L 365.654827 120.349404 
L 365.878139 120.584256 
L 366.101451 124.752919 
L 366.324762 113.262779 
L 366.548074 114.669627 
L 366.771386 111.257402 
L 366.994697 114.202186 
L 367.441321 102.42305 
L 367.664632 105.367834 
L 367.887944 102.657901 
L 368.111256 104.717423 
L 368.334567 109.19788 
L 368.557879 98.541121 
L 368.781191 102.606019 
L 369.004502 103.726134 
L 369.227814 107.974002 
L 369.674437 135.410179 
L 369.897749 133.404803 
L 370.121061 137.833378 
L 370.344372 130.353991 
L 370.567684 135.773856 
L 370.790995 133.481745 
L 371.237619 135.487122 
L 371.46093 130.119139 
L 371.907554 125.351948 
L 372.354177 118.629 
L 372.577489 122.459046 
L 372.8008 121.235168 
L 373.024112 128.009998 
L 373.247424 112.271991 
L 373.470735 112.089021 
L 373.694047 127.176618 
L 373.917359 130.536961 
L 374.14067 126.706914 
L 374.587294 124.466686 
L 374.810605 122.642016 
L 375.033917 123.996982 
L 375.48054 116.752448 
L 375.703852 108.622651 
L 375.927164 106.14757 
L 376.150475 107.267685 
L 376.373787 97.599952 
L 376.82041 102.317524 
L 377.043722 95.359723 
L 377.490345 97.599952 
L 377.713657 95.78031 
L 377.936968 95.78031 
L 378.16028 93.30523 
L 378.383592 89.47292 
L 378.606903 91.062738 
L 378.830215 96.949541 
L 379.053527 99.18977 
L 379.50015 92.182853 
L 379.946773 104.792604 
L 380.170085 100.962558 
L 380.393397 103.67249 
L 380.616708 102.082672 
L 380.84002 110.682173 
L 381.063332 101.899702 
L 381.286643 112.217846 
L 381.509955 110.813762 
L 381.733267 105.62875 
L 381.956578 107.868978 
L 382.17989 105.159046 
L 382.403202 104.038932 
L 383.296448 96.015162 
L 383.51976 96.015162 
L 383.966383 92.182853 
L 384.189695 89.942624 
L 384.413007 90.879266 
L 384.636318 105.549042 
L 384.85963 91.400852 
L 385.082941 101.536026 
L 385.306253 103.073962 
L 385.529565 97.888949 
L 385.976188 102.604258 
L 386.1995 94.944165 
L 386.422811 91.581559 
L 386.646123 106.95589 
L 386.869435 104.011106 
L 387.092746 99.243915 
L 387.316058 91.114118 
L 387.53937 93.589199 
L 387.762681 91.99938 
L 387.985993 96.949541 
L 388.432616 90.879266 
L 388.655928 95.179017 
L 388.87924 96.064279 
L 389.102551 98.774211 
L 389.325863 98.774211 
L 389.549175 99.243915 
L 389.772486 97.001424 
L 390.442421 109.61394 
L 390.665733 105.549042 
L 390.889045 90.360446 
L 391.112356 88.352806 
L 391.335668 95.545458 
L 391.558979 94.892785 
L 391.782291 97.370128 
L 392.228914 89.47292 
L 392.452226 89.707772 
L 392.675538 88.587658 
L 392.898849 102.683966 
L 393.122161 90.073712 
L 393.345473 91.193826 
L 393.568784 100.913441 
L 393.792096 98.670949 
L 394.015408 102.503259 
L 394.238719 102.033555 
L 394.462031 100.544736 
L 394.685343 97.599952 
L 394.908654 105.262308 
L 395.131966 101.615733 
L 395.355278 104.609635 
L 395.578589 103.67249 
L 395.801901 107.032833 
L 396.025213 103.202786 
L 396.248524 103.202786 
L 396.471836 106.333305 
L 396.695148 103.623373 
L 397.141771 108.10383 
L 397.365083 108.991355 
L 397.588394 108.756504 
L 397.811706 109.641766 
L 398.035018 101.746821 
L 398.258329 108.10383 
L 398.481641 110.346322 
L 398.704952 105.238251 
L 398.928264 105.238251 
L 399.374887 121.314875 
L 399.598199 120.060908 
L 399.821511 123.188662 
L 400.044822 122.068548 
L 400.268134 128.972203 
L 400.491446 124.024808 
L 400.938069 134.157216 
L 401.161381 151.668012 
L 401.384692 159.694044 
L 401.608004 150.68175 
L 401.831316 151.801864 
L 402.054627 148.204407 
L 402.501251 153.807241 
L 402.724562 153.807241 
L 402.947874 157.87214 
L 403.171186 155.211324 
L 403.394497 158.57393 
L 403.841121 169.963071 
L 404.287744 155.446176 
L 404.511056 157.686405 
L 404.734367 145.912296 
L 404.957679 145.677444 
L 405.18099 150.160164 
L 405.627614 145.677444 
L 405.850925 151.280279 
L 406.074237 149.037787 
L 406.297549 151.930689 
L 406.744172 137.730617 
L 406.967484 139.735994 
L 407.190795 138.563997 
L 407.414107 134.316129 
L 407.637419 139.085583 
L 407.86073 155.23915 
L 408.084042 151.878807 
L 408.307354 150.758693 
L 408.530665 144.218714 
L 408.753977 147.813908 
L 408.977289 146.641912 
L 409.2006 158.132052 
L 409.423912 148.464319 
L 409.647224 148.647289 
L 409.870535 150.887517 
L 410.093847 162.666654 
L 410.317159 147.996878 
L 410.54047 148.595407 
L 410.763782 150.783753 
L 410.987094 149.480669 
L 411.210405 159.017314 
L 411.433717 154.771709 
L 411.657029 155.708854 
L 411.88034 154.170918 
L 412.103652 154.170918 
L 412.326963 156.828968 
L 412.550275 161.128718 
L 412.773587 162.013981 
L 412.996898 160.893866 
L 413.22021 163.83865 
L 413.443522 169.441485 
L 413.666833 163.368947 
L 413.890145 169.023663 
L 414.113457 169.911188 
L 414.336768 171.266155 
L 414.783392 168.138401 
L 415.006703 169.911188 
L 415.230015 168.086519 
L 415.453327 161.36357 
L 415.676638 170.613481 
L 416.123262 167.253138 
L 416.346573 162.770418 
L 416.569885 155.760736 
L 416.793197 156.88085 
L 417.016508 153.703477 
L 417.23982 155.943705 
L 417.463132 154.823591 
L 417.686443 152.583363 
L 417.909755 146.928646 
L 418.133067 145.338828 
L 418.356378 141.560664 
L 418.57969 141.795516 
L 418.803002 138.198058 
L 419.026313 132.778193 
L 419.249625 132.310752 
L 419.472936 133.430867 
L 419.696248 139.501142 
L 419.91956 134.733951 
L 420.142871 157.298672 
L 420.589495 144.347538 
L 420.812806 141.402754 
L 421.036118 146.355178 
L 421.25943 156.151735 
L 421.482741 150.966723 
L 421.706053 162.40498 
L 421.929365 159.044637 
L 422.152676 163.109536 
L 422.375988 164.983825 
L 422.5993 161.5716 
L 422.822611 163.161418 
L 423.045923 172.124595 
L 423.715858 162.639832 
L 424.162481 174.181854 
L 424.609105 190.441448 
L 424.832416 172.124595 
L 425.055728 166.939582 
L 425.27904 169.414663 
L 425.502351 169.179811 
L 425.725663 172.359447 
L 425.948974 154.900534 
L 426.172286 159.017314 
L 426.395598 175.145318 
L 426.618909 178.090102 
L 427.065533 164.02162 
L 427.288844 169.389603 
L 427.512156 165.947289 
L 427.958779 185.438401 
L 428.182091 167.354137 
L 428.405403 166.102936 
L 428.628714 162.221007 
L 428.852026 188.096451 
L 429.075338 175.483934 
L 429.298649 186.68734 
L 429.521961 176.265432 
L 429.745273 171.968447 
L 429.968584 172.487268 
L 430.191896 173.424413 
L 430.415208 176.787018 
L 431.085143 200.706705 
L 431.308454 187.157044 
L 431.531766 181.737179 
L 431.755078 152.971096 
L 431.978389 162.221007 
L 432.201701 161.751303 
L 432.425013 162.87368 
L 432.648324 156.331439 
L 432.871636 155.91588 
L 433.318259 123.579161 
L 433.541571 138.71864 
L 433.764882 145.077912 
L 433.988194 155.030116 
L 434.211506 153.85812 
L 434.434817 149.610251 
L 434.881441 157.688166 
L 435.104752 148.542019 
L 435.328064 156.491109 
L 435.551376 146.301791 
L 435.774687 149.194693 
L 436.221311 133.872244 
L 436.444622 130.328931 
L 436.667934 134.445712 
L 436.891246 131.683897 
L 437.114557 136.401469 
L 437.337869 133.221833 
L 437.561181 136.582176 
L 437.784492 127.853851 
L 438.007804 135.983647 
L 438.231116 136.218499 
L 438.454427 135.098385 
L 438.677739 138.275758 
L 439.124362 103.854958 
L 439.347674 115.634095 
L 439.570985 117.458765 
L 439.794297 107.73915 
L 440.017609 124.075686 
L 440.24092 120.24564 
L 440.464232 127.957615 
L 440.687544 119.827818 
L 440.910855 126.889383 
L 441.357479 118.395909 
L 441.58079 121.288811 
L 441.804102 122.69566 
L 442.027414 124.935888 
L 442.250725 122.878629 
L 442.697349 108.312618 
L 443.143972 122.564572 
L 443.367284 119.567906 
L 443.590595 126.290854 
L 443.813907 118.759586 
L 444.037219 120.950195 
L 444.26053 120.480491 
L 444.483842 120.715343 
L 444.707154 118.240263 
L 444.930465 118.707704 
L 445.153777 117.535707 
L 445.6004 121.548724 
L 445.823712 124.493508 
L 446.047024 119.306232 
L 446.270335 117.951266 
L 446.493647 119.073643 
L 446.716958 119.073643 
L 446.94027 117.951266 
L 447.163582 130.511901 
L 447.386893 128.271672 
L 447.610205 121.964282 
L 447.833517 122.90369 
L 448.056828 126.21215 
L 448.28014 125.326888 
L 448.503452 132.648365 
L 448.726763 135.904943 
L 448.950075 134.132156 
L 449.173387 134.132156 
L 449.396698 136.191677 
L 449.62001 141.324808 
L 449.843322 135.25227 
L 450.066633 123.685188 
L 450.289945 127.515234 
L 450.513257 115.372421 
L 450.736568 112.244667 
L 450.95988 110.837819 
L 451.183192 103.412578 
L 451.406503 87.803395 
L 451.629815 83.973348 
L 452.29975 114.408455 
L 452.523062 81.709063 
L 452.746373 78.346457 
L 452.969685 68.263166 
L 453.192996 81.526093 
L 453.416308 82.646207 
L 453.63962 125.224127 
L 453.862931 116.441657 
L 454.086243 117.561771 
L 454.756178 99.635417 
L 454.97949 99.635417 
L 455.202801 119.673175 
L 455.426113 125.404834 
L 455.649425 119.804263 
L 455.872736 120.454673 
L 456.096048 125.874538 
L 456.31936 122.514195 
L 456.542671 123.869161 
L 457.212606 110.059588 
L 457.65923 118.135239 
L 458.105853 111.830112 
L 458.329165 112.950227 
L 458.552476 111.77823 
L 458.775788 111.77823 
L 459.222411 84.236025 
L 459.445723 94.319317 
L 459.669035 87.779338 
L 459.892346 89.292213 
L 460.115658 96.195869 
L 460.562281 83.402645 
L 460.785593 101.798703 
L 461.008904 106.983716 
L 461.232216 100.495619 
L 461.455528 101.615733 
L 461.678839 120.765464 
L 461.902151 98.121538 
L 462.125463 101.484144 
L 462.348774 97.159333 
L 462.572086 89.31627 
L 462.795398 95.022869 
L 463.018709 97.626774 
L 463.242021 120.532374 
L 463.688644 111.984755 
L 463.911956 111.984755 
L 464.135268 115.216273 
L 464.358579 141.95192 
L 464.581891 144.427 
L 464.805203 141.430334 
L 465.028514 134.030153 
L 465.251826 159.277984 
L 465.698449 144.244532 
L 465.921761 144.244532 
L 466.145073 139.761812 
L 466.368384 122.251016 
L 466.591696 132.388453 
L 467.261631 135.748796 
L 467.484942 136.218499 
L 467.708254 134.265005 
L 467.931566 139.684869 
L 468.154877 150.054895 
L 468.378189 136.141557 
L 468.601501 149.637073 
L 468.824812 137.261671 
L 469.048124 142.916388 
L 469.271436 144.036502 
L 469.494747 149.637073 
L 469.718059 150.524599 
L 470.164682 138.851489 
L 470.387994 113.420688 
L 470.611306 102.919575 
L 470.834617 100.444495 
L 471.057929 99.556969 
L 471.281241 99.556969 
L 471.504552 98.671707 
L 471.727864 94.606809 
L 471.951176 82.933699 
L 472.174487 80.693471 
L 472.397799 90.593792 
L 472.621111 88.353564 
L 472.844422 98.720824 
L 473.067734 96.847037 
L 473.291046 110.762638 
L 473.514357 114.122981 
L 473.737669 114.122981 
L 474.184292 111.492254 
L 474.407604 104.039689 
L 474.630915 105.159804 
L 474.854227 113.573569 
L 475.077539 133.482503 
L 475.524162 109.743523 
L 475.747474 108.388557 
L 475.970785 100.545494 
L 476.194097 100.545494 
L 476.417409 105.028214 
L 476.64072 105.028214 
L 476.864032 88.536533 
L 477.310655 99.840938 
L 477.533967 98.720824 
L 477.98059 108.388557 
L 478.203902 123.422009 
L 478.427214 127.669877 
L 478.650525 128.789991 
L 478.873837 128.789991 
L 479.097149 129.910106 
L 479.32046 130.144958 
L 479.543772 125.429649 
L 479.767084 125.585295 
L 479.990395 127.827787 
L 480.213707 138.97931 
L 480.437019 128.896019 
L 480.883642 120.400282 
L 481.106953 136.739081 
L 481.330265 144.685909 
L 481.553577 147.865545 
L 481.776888 134.810647 
L 482.0002 128.688992 
L 482.223512 166.026751 
L 482.446823 135.982644 
L 482.670135 132.568156 
L 482.893447 131.682893 
L 483.116758 130.327927 
L 483.34007 148.82775 
L 483.563382 128.789991 
L 484.010005 137.807314 
L 484.233317 136.452347 
L 484.456628 131.969627 
L 484.67994 150.105773 
L 484.903252 144.035498 
L 485.126563 142.027859 
L 485.349875 149.037541 
L 485.573187 147.447723 
L 485.796498 161.127971 
L 486.01981 138.407603 
L 486.243122 136.557873 
L 486.466433 121.210364 
L 486.689745 121.860774 
L 486.913057 113.315419 
L 487.136368 125.873791 
L 487.35968 164.227899 
L 487.582991 133.588029 
L 487.806303 141.665944 
L 488.029615 145.49599 
L 488.476238 134.109615 
L 488.69955 135.229729 
L 488.922861 129.52313 
L 489.146173 130.643245 
L 489.369485 121.57404 
L 489.592796 120.453926 
L 489.816108 101.303693 
L 490.03942 111.307779 
L 490.262731 98.150879 
L 490.486043 93.668159 
L 490.709355 93.118747 
L 490.932666 98.123053 
L 491.155978 112.271243 
L 491.37929 89.004732 
L 491.602601 101.330515 
L 491.825913 101.330515 
L 492.049225 104.873827 
L 492.272536 105.887915 
L 492.495848 111.542631 
L 492.942471 116.129115 
L 493.165783 123.163858 
L 493.389095 91.6109 
L 493.612406 91.6109 
L 493.835718 92.731014 
L 494.05903 92.731014 
L 494.282341 94.162923 
L 494.728964 89.682466 
L 494.952276 85.330833 
L 495.175588 87.754032 
L 495.398899 87.754032 
L 495.622211 94.474717 
L 495.845523 96.430475 
L 496.068834 89.915556 
L 496.738769 116.387266 
L 496.962081 116.962997 
L 497.185393 125.926174 
L 497.408704 108.753995 
L 497.632016 107.63388 
L 497.855328 104.454244 
L 498.078639 105.574359 
L 498.301951 119.020256 
L 498.525263 113.704156 
L 498.748574 114.826533 
L 498.971886 112.480277 
L 499.418509 120.32334 
L 499.641821 105.888416 
L 499.865133 118.083111 
L 500.088444 112.480277 
L 500.311756 152.034207 
L 500.535068 147.032164 
L 500.758379 119.69799 
L 500.981691 129.076725 
L 501.205003 129.729399 
L 501.428314 136.739081 
L 501.651626 132.256361 
L 501.874937 137.859196 
L 502.098249 137.859196 
L 502.321561 135.018176 
L 502.544872 145.702259 
L 502.768184 139.500896 
L 502.991496 130.016133 
L 503.438119 160.581826 
L 503.661431 140.386158 
L 503.884742 146.510579 
L 504.108054 147.032164 
L 504.331366 150.627359 
L 504.777989 139.006132 
L 505.224612 158.574186 
L 505.447924 140.41298 
L 505.671236 158.626069 
L 505.894547 149.193188 
L 506.117859 165.166047 
L 506.341171 158.445362 
L 506.564482 179.158591 
L 506.787794 179.863146 
L 507.011106 182.103375 
L 507.234417 192.057842 
L 507.457729 192.057842 
L 507.681041 192.994986 
L 507.904352 209.776166 
L 508.127664 205.528298 
L 508.350975 208.890904 
L 508.574287 208.23823 
L 508.797599 189.322849 
L 509.02091 191.328226 
L 509.244222 207.951496 
L 509.467534 195.810946 
L 509.690845 197.165912 
L 509.914157 191.093374 
L 510.137469 181.269995 
L 510.36078 185.544685 
L 510.584092 214.125033 
L 510.807404 217.0207 
L 511.030715 215.196031 
L 511.254027 228.641928 
L 511.477339 235.078142 
L 511.923962 228.016577 
L 512.147274 240.340097 
L 512.370585 238.750279 
L 512.593897 243.648558 
L 512.817209 238.750279 
L 513.04052 251.778355 
L 513.487144 264.96434 
L 513.710455 258.659213 
L 513.933767 256.70069 
L 514.157079 249.876743 
L 514.38039 250.529416 
L 514.603702 295.656092 
L 514.827014 300.138812 
L 515.050325 297.42888 
L 515.273637 299.305432 
L 515.496948 307.381084 
L 515.72026 303.499155 
L 515.943572 296.125796 
L 516.166883 299.122462 
L 516.390195 292.11278 
L 516.613507 311.994892 
L 516.836818 297.42888 
L 517.06013 273.143254 
L 517.283442 268.662797 
L 517.506753 268.193093 
L 517.730065 262.773228 
L 517.953377 261.939848 
L 518.176688 261.939848 
L 518.4 260.16706 
L 518.4 260.16706 
" style="fill:none;stroke:#4c72b0;stroke-linecap:round;stroke-width:1.75;"/>
   </g>
   <g id="patch_3">
    <path d="M 72 356.4 
L 518.4 356.4 
" style="fill:none;"/>
   </g>
   <g id="patch_4">
    <path d="M 72 39.6 
L 518.4 39.6 
" style="fill:none;"/>
   </g>
   <g id="patch_5">
    <path d="M 72 356.4 
L 72 39.6 
" style="fill:none;"/>
   </g>
   <g id="patch_6">
    <path d="M 518.4 356.4 
L 518.4 39.6 
" style="fill:none;"/>
   </g>
   <g id="text_14">
    <!-- zn - 1.2220113166714621 * pb -->
    <defs>
     <path d="M 9.125 0 
L 9.125 10.6875 
L 18.65625 10.6875 
L 18.65625 0 
z
" id="LiberationSans-2e"/>
     <path d="M 2.390625 0 
L 2.390625 6.6875 
L 34.671875 46.046875 
L 4.34375 46.046875 
L 4.34375 52.828125 
L 44.578125 52.828125 
L 44.578125 46.140625 
L 12.25 6.78125 
L 46.390625 6.78125 
L 46.390625 0 
z
" id="LiberationSans-7a"/>
     <path d="M 50.59375 61.671875 
Q 45.40625 53.765625 41.0625 46.453125 
Q 36.71875 39.15625 33.59375 31.75 
Q 30.46875 24.359375 28.734375 16.578125 
Q 27 8.796875 27 0 
L 17.828125 0 
Q 17.828125 8.25 19.78125 16.1875 
Q 21.734375 24.125 25.046875 31.765625 
Q 28.375 39.40625 32.765625 46.78125 
Q 37.15625 54.15625 42.09375 61.328125 
L 5.125 61.328125 
L 5.125 68.796875 
L 50.59375 68.796875 
z
" id="LiberationSans-37"/>
     <path d="M 51.421875 26.65625 
Q 51.421875 20.65625 50.4375 15.578125 
Q 49.46875 10.5 47.1875 6.828125 
Q 44.921875 3.171875 41.1875 1.09375 
Q 37.453125 -0.984375 31.984375 -0.984375 
Q 26.3125 -0.984375 22.0625 1.171875 
Q 17.828125 3.328125 15.578125 8.203125 
L 15.328125 8.203125 
Q 15.375 8.109375 15.40625 7.328125 
Q 15.4375 6.546875 15.453125 5.375 
Q 15.484375 4.203125 15.5 2.75 
Q 15.53125 1.3125 15.53125 -0.09375 
L 15.53125 -20.75 
L 6.734375 -20.75 
L 6.734375 42.046875 
Q 6.734375 43.953125 6.703125 45.703125 
Q 6.6875 47.46875 6.640625 48.90625 
Q 6.59375 50.34375 6.546875 51.359375 
Q 6.5 52.390625 6.453125 52.828125 
L 14.9375 52.828125 
Q 14.984375 52.6875 15.0625 51.796875 
Q 15.140625 50.921875 15.203125 49.671875 
Q 15.28125 48.4375 15.359375 47.015625 
Q 15.4375 45.609375 15.4375 44.34375 
L 15.625 44.34375 
Q 16.84375 46.875 18.40625 48.65625 
Q 19.96875 50.4375 21.96875 51.578125 
Q 23.96875 52.734375 26.4375 53.25 
Q 28.90625 53.765625 31.984375 53.765625 
Q 37.453125 53.765625 41.1875 51.8125 
Q 44.921875 49.859375 47.1875 46.3125 
Q 49.46875 42.78125 50.4375 37.765625 
Q 51.421875 32.765625 51.421875 26.65625 
M 42.1875 26.46875 
Q 42.1875 31.34375 41.59375 35.15625 
Q 41.015625 38.96875 39.578125 41.59375 
Q 38.140625 44.234375 35.734375 45.59375 
Q 33.34375 46.96875 29.734375 46.96875 
Q 26.8125 46.96875 24.21875 46.140625 
Q 21.625 45.3125 19.703125 42.96875 
Q 17.78125 40.625 16.65625 36.5 
Q 15.53125 32.375 15.53125 25.78125 
Q 15.53125 20.171875 16.453125 16.28125 
Q 17.390625 12.40625 19.171875 10.015625 
Q 20.953125 7.625 23.578125 6.5625 
Q 26.21875 5.515625 29.640625 5.515625 
Q 33.296875 5.515625 35.71875 6.921875 
Q 38.140625 8.34375 39.578125 11.03125 
Q 41.015625 13.71875 41.59375 17.59375 
Q 42.1875 21.484375 42.1875 26.46875 
" id="LiberationSans-70"/>
     <path d="M 22.265625 54.390625 
L 35.15625 59.421875 
L 37.359375 52.984375 
L 23.578125 49.421875 
L 32.625 37.203125 
L 26.8125 33.6875 
L 19.484375 46.296875 
L 11.859375 33.796875 
L 6.0625 37.3125 
L 15.28125 49.421875 
L 1.609375 52.984375 
L 3.8125 59.515625 
L 16.84375 54.296875 
L 16.265625 68.796875 
L 22.90625 68.796875 
z
" id="LiberationSans-2a"/>
     <path d="M 51.421875 26.65625 
Q 51.421875 -0.984375 31.984375 -0.984375 
Q 25.984375 -0.984375 22 1.1875 
Q 18.015625 3.375 15.53125 8.203125 
L 15.4375 8.203125 
Q 15.4375 6.9375 15.359375 5.5625 
Q 15.28125 4.203125 15.203125 3.03125 
Q 15.140625 1.859375 15.0625 1.03125 
Q 14.984375 0.203125 14.9375 0 
L 6.453125 0 
Q 6.5 0.4375 6.546875 1.484375 
Q 6.59375 2.546875 6.640625 4 
Q 6.6875 5.46875 6.703125 7.21875 
Q 6.734375 8.984375 6.734375 10.890625 
L 6.734375 72.46875 
L 15.53125 72.46875 
L 15.53125 51.8125 
Q 15.53125 50.34375 15.5 49 
Q 15.484375 47.65625 15.4375 46.625 
Q 15.375 45.40625 15.328125 44.34375 
L 15.53125 44.34375 
Q 17.96875 49.421875 22 51.609375 
Q 26.03125 53.8125 31.984375 53.8125 
Q 42 53.8125 46.703125 47.0625 
Q 51.421875 40.328125 51.421875 26.65625 
M 42.1875 26.375 
Q 42.1875 31.84375 41.5 35.75 
Q 40.828125 39.65625 39.3125 42.15625 
Q 37.796875 44.671875 35.453125 45.84375 
Q 33.109375 47.015625 29.734375 47.015625 
Q 26.265625 47.015625 23.609375 45.890625 
Q 20.953125 44.78125 19.171875 42.28125 
Q 17.390625 39.796875 16.453125 35.734375 
Q 15.53125 31.6875 15.53125 25.828125 
Q 15.53125 20.171875 16.453125 16.3125 
Q 17.390625 12.453125 19.171875 10.03125 
Q 20.953125 7.625 23.578125 6.5625 
Q 26.21875 5.515625 29.640625 5.515625 
Q 32.859375 5.515625 35.203125 6.640625 
Q 37.546875 7.765625 39.109375 10.25 
Q 40.671875 12.75 41.421875 16.71875 
Q 42.1875 20.703125 42.1875 26.375 
" id="LiberationSans-62"/>
     <path d="M 40.28125 0 
L 40.28125 33.5 
Q 40.28125 37.359375 39.71875 39.9375 
Q 39.15625 42.53125 37.890625 44.109375 
Q 36.625 45.703125 34.546875 46.359375 
Q 32.46875 47.015625 29.390625 47.015625 
Q 26.265625 47.015625 23.75 45.921875 
Q 21.234375 44.828125 19.453125 42.75 
Q 17.671875 40.671875 16.6875 37.625 
Q 15.71875 34.578125 15.71875 30.609375 
L 15.71875 0 
L 6.9375 0 
L 6.9375 41.546875 
Q 6.9375 43.21875 6.90625 45.046875 
Q 6.890625 46.875 6.828125 48.5 
Q 6.78125 50.140625 6.734375 51.3125 
Q 6.6875 52.484375 6.640625 52.828125 
L 14.9375 52.828125 
Q 14.984375 52.59375 15.03125 51.515625 
Q 15.09375 50.4375 15.15625 49.046875 
Q 15.234375 47.65625 15.28125 46.21875 
Q 15.328125 44.78125 15.328125 43.796875 
L 15.484375 43.796875 
Q 16.75 46.09375 18.265625 47.953125 
Q 19.78125 49.8125 21.78125 51.09375 
Q 23.78125 52.390625 26.359375 53.09375 
Q 28.953125 53.8125 32.375 53.8125 
Q 36.765625 53.8125 39.9375 52.734375 
Q 43.109375 51.65625 45.15625 49.40625 
Q 47.21875 47.171875 48.171875 43.625 
Q 49.125 40.09375 49.125 35.203125 
L 49.125 0 
z
" id="LiberationSans-6e"/>
    </defs>
    <g style="fill:#262626;" transform="translate(212.80125 34.6)scale(0.12 -0.12)">
     <use xlink:href="#LiberationSans-7a"/>
     <use x="50.0" xlink:href="#LiberationSans-6e"/>
     <use x="105.615234375" xlink:href="#LiberationSans-20"/>
     <use x="133.3984375" xlink:href="#LiberationSans-2d"/>
     <use x="166.69921875" xlink:href="#LiberationSans-20"/>
     <use x="194.482421875" xlink:href="#LiberationSans-31"/>
     <use x="250.09765625" xlink:href="#LiberationSans-2e"/>
     <use x="277.880859375" xlink:href="#LiberationSans-32"/>
     <use x="333.49609375" xlink:href="#LiberationSans-32"/>
     <use x="389.111328125" xlink:href="#LiberationSans-32"/>
     <use x="444.7265625" xlink:href="#LiberationSans-30"/>
     <use x="500.341796875" xlink:href="#LiberationSans-31"/>
     <use x="555.95703125" xlink:href="#LiberationSans-31"/>
     <use x="611.572265625" xlink:href="#LiberationSans-33"/>
     <use x="667.1875" xlink:href="#LiberationSans-31"/>
     <use x="722.802734375" xlink:href="#LiberationSans-36"/>
     <use x="778.41796875" xlink:href="#LiberationSans-36"/>
     <use x="834.033203125" xlink:href="#LiberationSans-37"/>
     <use x="889.6484375" xlink:href="#LiberationSans-31"/>
     <use x="945.263671875" xlink:href="#LiberationSans-34"/>
     <use x="1000.87890625" xlink:href="#LiberationSans-36"/>
     <use x="1056.494140625" xlink:href="#LiberationSans-32"/>
     <use x="1112.109375" xlink:href="#LiberationSans-31"/>
     <use x="1167.724609375" xlink:href="#LiberationSans-20"/>
     <use x="1195.5078125" xlink:href="#LiberationSans-2a"/>
     <use x="1234.423828125" xlink:href="#LiberationSans-20"/>
     <use x="1262.20703125" xlink:href="#LiberationSans-70"/>
     <use x="1317.822265625" xlink:href="#LiberationSans-62"/>
    </g>
   </g>
  </g>
 </g>
 <defs>
  <clipPath id="pd2d035e3ac">
   <rect height="316.8" width="446.4" x="72.0" y="39.6"/>
  </clipPath>
 </defs>
</svg>
