<?xml version="1.0" encoding="utf-8" standalone="no"?>
<!DOCTYPE svg PUBLIC "-//W3C//DTD SVG 1.1//EN"
  "http://www.w3.org/Graphics/SVG/1.1/DTD/svg11.dtd">
<!-- Created with matplotlib (http://matplotlib.org/) -->
<svg height="396pt" version="1.1" viewBox="0 0 576 396" width="576pt" xmlns="http://www.w3.org/2000/svg" xmlns:xlink="http://www.w3.org/1999/xlink">
 <defs>
  <style type="text/css">
*{stroke-linecap:butt;stroke-linejoin:round;stroke-miterlimit:100000;}
  </style>
 </defs>
 <g id="figure_1">
  <g id="patch_1">
   <path d="M 0 396 
L 576 396 
L 576 0 
L 0 0 
z
" style="fill:#ffffff;"/>
  </g>
  <g id="axes_1">
   <g id="patch_2">
    <path d="M 72 356.4 
L 518.4 356.4 
L 518.4 39.6 
L 72 39.6 
z
" style="fill:#eaeaf2;"/>
   </g>
   <g id="matplotlib.axis_1">
    <g id="xtick_1">
     <g id="line2d_1">
      <path clip-path="url(#p29f4598a11)" d="M 72 356.4 
L 72 39.6 
" style="fill:none;stroke:#ffffff;stroke-linecap:round;"/>
     </g>
     <g id="line2d_2"/>
     <g id="line2d_3"/>
     <g id="text_1">
      <!-- 2015-12-07 11:08:00 -->
      <defs>
       <path d="M 5.03125 0 
L 5.03125 6.203125 
Q 7.515625 11.921875 11.109375 16.28125 
Q 14.703125 20.65625 18.65625 24.1875 
Q 22.609375 27.734375 26.484375 30.765625 
Q 30.375 33.796875 33.5 36.8125 
Q 36.625 39.84375 38.546875 43.15625 
Q 40.484375 46.484375 40.484375 50.6875 
Q 40.484375 53.609375 39.59375 55.828125 
Q 38.71875 58.0625 37.0625 59.5625 
Q 35.40625 61.078125 33.078125 61.828125 
Q 30.765625 62.59375 27.9375 62.59375 
Q 25.296875 62.59375 22.96875 61.859375 
Q 20.65625 61.140625 18.84375 59.671875 
Q 17.046875 58.203125 15.890625 56.03125 
Q 14.75 53.859375 14.40625 50.984375 
L 5.421875 51.8125 
Q 5.859375 55.515625 7.46875 58.78125 
Q 9.078125 62.0625 11.90625 64.53125 
Q 14.75 67 18.71875 68.40625 
Q 22.703125 69.828125 27.9375 69.828125 
Q 33.0625 69.828125 37.0625 68.609375 
Q 41.0625 67.390625 43.8125 64.984375 
Q 46.578125 62.59375 48.046875 59.078125 
Q 49.515625 55.5625 49.515625 50.984375 
Q 49.515625 47.515625 48.265625 44.390625 
Q 47.015625 41.265625 44.9375 38.421875 
Q 42.875 35.59375 40.140625 32.953125 
Q 37.40625 30.328125 34.421875 27.8125 
Q 31.453125 25.296875 28.421875 22.828125 
Q 25.390625 20.359375 22.71875 17.859375 
Q 20.0625 15.375 17.96875 12.8125 
Q 15.875 10.25 14.703125 7.46875 
L 50.59375 7.46875 
L 50.59375 0 
z
" id="LiberationSans-32"/>
       <path d="M 7.625 0 
L 7.625 7.46875 
L 25.140625 7.46875 
L 25.140625 60.40625 
L 9.625 49.3125 
L 9.625 57.625 
L 25.875 68.796875 
L 33.984375 68.796875 
L 33.984375 7.46875 
L 50.734375 7.46875 
L 50.734375 0 
z
" id="LiberationSans-31"/>
       <path d="M 50.59375 61.671875 
Q 45.40625 53.765625 41.0625 46.453125 
Q 36.71875 39.15625 33.59375 31.75 
Q 30.46875 24.359375 28.734375 16.578125 
Q 27 8.796875 27 0 
L 17.828125 0 
Q 17.828125 8.25 19.78125 16.1875 
Q 21.734375 24.125 25.046875 31.765625 
Q 28.375 39.40625 32.765625 46.78125 
Q 37.15625 54.15625 42.09375 61.328125 
L 5.125 61.328125 
L 5.125 68.796875 
L 50.59375 68.796875 
z
" id="LiberationSans-37"/>
       <path d="M 51.703125 34.421875 
Q 51.703125 24.515625 49.828125 17.75 
Q 47.953125 10.984375 44.703125 6.8125 
Q 41.453125 2.640625 37.0625 0.828125 
Q 32.671875 -0.984375 27.6875 -0.984375 
Q 22.65625 -0.984375 18.3125 0.828125 
Q 13.96875 2.640625 10.765625 6.78125 
Q 7.5625 10.9375 5.734375 17.703125 
Q 3.90625 24.46875 3.90625 34.421875 
Q 3.90625 44.828125 5.734375 51.640625 
Q 7.5625 58.453125 10.78125 62.5 
Q 14.015625 66.546875 18.40625 68.1875 
Q 22.796875 69.828125 27.984375 69.828125 
Q 32.90625 69.828125 37.21875 68.1875 
Q 41.546875 66.546875 44.765625 62.5 
Q 48 58.453125 49.84375 51.640625 
Q 51.703125 44.828125 51.703125 34.421875 
M 42.78125 34.421875 
Q 42.78125 42.625 41.796875 48.0625 
Q 40.828125 53.515625 38.921875 56.765625 
Q 37.015625 60.015625 34.25 61.359375 
Q 31.5 62.703125 27.984375 62.703125 
Q 24.265625 62.703125 21.4375 61.328125 
Q 18.609375 59.96875 16.671875 56.71875 
Q 14.75 53.46875 13.765625 48.015625 
Q 12.796875 42.578125 12.796875 34.421875 
Q 12.796875 26.515625 13.796875 21.09375 
Q 14.796875 15.671875 16.71875 12.375 
Q 18.65625 9.078125 21.4375 7.640625 
Q 24.21875 6.203125 27.78125 6.203125 
Q 31.25 6.203125 34.03125 7.640625 
Q 36.8125 9.078125 38.734375 12.375 
Q 40.671875 15.671875 41.71875 21.09375 
Q 42.78125 26.515625 42.78125 34.421875 
" id="LiberationSans-30"/>
       <path d="M 9.125 42.71875 
L 9.125 52.828125 
L 18.65625 52.828125 
L 18.65625 42.71875 
z
M 9.125 0 
L 9.125 10.109375 
L 18.65625 10.109375 
L 18.65625 0 
z
" id="LiberationSans-3a"/>
       <path d="M 51.265625 19.1875 
Q 51.265625 14.796875 49.875 11.109375 
Q 48.484375 7.421875 45.625 4.734375 
Q 42.78125 2.046875 38.328125 0.53125 
Q 33.890625 -0.984375 27.828125 -0.984375 
Q 21.78125 -0.984375 17.359375 0.53125 
Q 12.9375 2.046875 10.03125 4.703125 
Q 7.125 7.375 5.734375 11.0625 
Q 4.34375 14.75 4.34375 19.09375 
Q 4.34375 22.859375 5.484375 25.78125 
Q 6.640625 28.71875 8.5625 30.828125 
Q 10.5 32.953125 12.96875 34.25 
Q 15.4375 35.546875 18.0625 35.984375 
L 18.0625 36.1875 
Q 15.1875 36.859375 12.90625 38.375 
Q 10.640625 39.890625 9.09375 42.015625 
Q 7.5625 44.140625 6.75 46.71875 
Q 5.953125 49.3125 5.953125 52.203125 
Q 5.953125 55.8125 7.34375 59 
Q 8.734375 62.203125 11.46875 64.625 
Q 14.203125 67.046875 18.25 68.4375 
Q 22.3125 69.828125 27.640625 69.828125 
Q 33.25 69.828125 37.375 68.40625 
Q 41.5 67 44.203125 64.578125 
Q 46.921875 62.15625 48.234375 58.9375 
Q 49.5625 55.71875 49.5625 52.09375 
Q 49.5625 49.265625 48.75 46.671875 
Q 47.953125 44.09375 46.40625 41.96875 
Q 44.875 39.84375 42.59375 38.34375 
Q 40.328125 36.859375 37.359375 36.28125 
L 37.359375 36.078125 
Q 40.328125 35.59375 42.859375 34.296875 
Q 45.40625 33.015625 47.265625 30.890625 
Q 49.125 28.765625 50.1875 25.828125 
Q 51.265625 22.90625 51.265625 19.1875 
M 40.4375 51.609375 
Q 40.4375 54.203125 39.765625 56.34375 
Q 39.109375 58.5 37.59375 60.03125 
Q 36.078125 61.578125 33.640625 62.421875 
Q 31.203125 63.28125 27.640625 63.28125 
Q 24.171875 63.28125 21.78125 62.421875 
Q 19.390625 61.578125 17.84375 60.03125 
Q 16.3125 58.5 15.625 56.34375 
Q 14.9375 54.203125 14.9375 51.609375 
Q 14.9375 49.5625 15.46875 47.40625 
Q 16.015625 45.265625 17.421875 43.5 
Q 18.84375 41.75 21.328125 40.625 
Q 23.828125 39.5 27.734375 39.5 
Q 31.890625 39.5 34.40625 40.625 
Q 36.921875 41.75 38.25 43.5 
Q 39.59375 45.265625 40.015625 47.40625 
Q 40.4375 49.5625 40.4375 51.609375 
M 42.140625 20.015625 
Q 42.140625 22.515625 41.453125 24.828125 
Q 40.765625 27.15625 39.109375 28.9375 
Q 37.453125 30.71875 34.640625 31.8125 
Q 31.84375 32.90625 27.640625 32.90625 
Q 23.78125 32.90625 21.0625 31.8125 
Q 18.359375 30.71875 16.671875 28.90625 
Q 14.984375 27.09375 14.203125 24.71875 
Q 13.421875 22.359375 13.421875 19.828125 
Q 13.421875 16.65625 14.203125 14.03125 
Q 14.984375 11.421875 16.6875 9.546875 
Q 18.40625 7.671875 21.1875 6.640625 
Q 23.96875 5.609375 27.9375 5.609375 
Q 31.9375 5.609375 34.671875 6.640625 
Q 37.40625 7.671875 39.0625 9.546875 
Q 40.71875 11.421875 41.421875 14.078125 
Q 42.140625 16.75 42.140625 20.015625 
" id="LiberationSans-38"/>
       <path d="M 51.421875 22.40625 
Q 51.421875 17.234375 49.859375 12.9375 
Q 48.296875 8.640625 45.21875 5.53125 
Q 42.140625 2.4375 37.578125 0.71875 
Q 33.015625 -0.984375 27 -0.984375 
Q 21.578125 -0.984375 17.546875 0.28125 
Q 13.53125 1.5625 10.734375 3.78125 
Q 7.953125 6 6.3125 8.984375 
Q 4.6875 11.96875 4 15.375 
L 12.890625 16.40625 
Q 13.421875 14.453125 14.390625 12.625 
Q 15.375 10.796875 17.0625 9.34375 
Q 18.75 7.90625 21.21875 7.046875 
Q 23.6875 6.203125 27.203125 6.203125 
Q 30.609375 6.203125 33.390625 7.25 
Q 36.1875 8.296875 38.15625 10.34375 
Q 40.140625 12.40625 41.203125 15.375 
Q 42.28125 18.359375 42.28125 22.21875 
Q 42.28125 25.390625 41.25 28.046875 
Q 40.234375 30.71875 38.328125 32.640625 
Q 36.421875 34.578125 33.65625 35.640625 
Q 30.90625 36.71875 27.390625 36.71875 
Q 25.203125 36.71875 23.34375 36.328125 
Q 21.484375 35.9375 19.890625 35.25 
Q 18.3125 34.578125 17.015625 33.671875 
Q 15.71875 32.765625 14.59375 31.78125 
L 6 31.78125 
L 8.296875 68.796875 
L 47.40625 68.796875 
L 47.40625 61.328125 
L 16.3125 61.328125 
L 14.984375 39.5 
Q 17.328125 41.3125 20.84375 42.59375 
Q 24.359375 43.890625 29.203125 43.890625 
Q 34.328125 43.890625 38.421875 42.328125 
Q 42.53125 40.765625 45.40625 37.90625 
Q 48.296875 35.0625 49.859375 31.109375 
Q 51.421875 27.15625 51.421875 22.40625 
" id="LiberationSans-35"/>
       <path id="LiberationSans-20"/>
       <path d="M 4.4375 22.65625 
L 4.4375 30.46875 
L 28.859375 30.46875 
L 28.859375 22.65625 
z
" id="LiberationSans-2d"/>
      </defs>
      <g style="fill:#262626;" transform="translate(25.5765625 370.646875)scale(0.1 -0.1)">
       <use xlink:href="#LiberationSans-32"/>
       <use x="55.615234375" xlink:href="#LiberationSans-30"/>
       <use x="111.23046875" xlink:href="#LiberationSans-31"/>
       <use x="166.845703125" xlink:href="#LiberationSans-35"/>
       <use x="222.4609375" xlink:href="#LiberationSans-2d"/>
       <use x="255.76171875" xlink:href="#LiberationSans-31"/>
       <use x="311.376953125" xlink:href="#LiberationSans-32"/>
       <use x="366.9921875" xlink:href="#LiberationSans-2d"/>
       <use x="400.29296875" xlink:href="#LiberationSans-30"/>
       <use x="455.908203125" xlink:href="#LiberationSans-37"/>
       <use x="511.5234375" xlink:href="#LiberationSans-20"/>
       <use x="539.306640625" xlink:href="#LiberationSans-31"/>
       <use x="594.921875" xlink:href="#LiberationSans-31"/>
       <use x="650.537109375" xlink:href="#LiberationSans-3a"/>
       <use x="678.3203125" xlink:href="#LiberationSans-30"/>
       <use x="733.935546875" xlink:href="#LiberationSans-38"/>
       <use x="789.55078125" xlink:href="#LiberationSans-3a"/>
       <use x="817.333984375" xlink:href="#LiberationSans-30"/>
       <use x="872.94921875" xlink:href="#LiberationSans-30"/>
      </g>
     </g>
    </g>
    <g id="xtick_2">
     <g id="line2d_4">
      <path clip-path="url(#p29f4598a11)" d="M 183.655828 356.4 
L 183.655828 39.6 
" style="fill:none;stroke:#ffffff;stroke-linecap:round;"/>
     </g>
     <g id="line2d_5"/>
     <g id="line2d_6"/>
     <g id="text_2">
      <!-- 2015-12-09 14:29:00 -->
      <defs>
       <path d="M 50.875 35.796875 
Q 50.875 26.609375 49.140625 19.703125 
Q 47.40625 12.796875 44.1875 8.203125 
Q 40.96875 3.609375 36.34375 1.3125 
Q 31.734375 -0.984375 25.984375 -0.984375 
Q 22.015625 -0.984375 18.84375 -0.171875 
Q 15.671875 0.640625 13.171875 2.34375 
Q 10.6875 4.046875 8.921875 6.78125 
Q 7.171875 9.515625 6.109375 13.375 
L 14.5 14.703125 
Q 15.875 10.25 18.78125 8.171875 
Q 21.6875 6.109375 26.125 6.109375 
Q 29.6875 6.109375 32.640625 7.78125 
Q 35.59375 9.46875 37.671875 12.84375 
Q 39.75 16.21875 40.921875 21.296875 
Q 42.09375 26.375 42.1875 33.203125 
Q 41.15625 30.90625 39.375 29.09375 
Q 37.59375 27.296875 35.328125 26.046875 
Q 33.0625 24.8125 30.421875 24.140625 
Q 27.78125 23.484375 25.09375 23.484375 
Q 20.40625 23.484375 16.625 25.171875 
Q 12.84375 26.859375 10.203125 29.875 
Q 7.5625 32.90625 6.125 37.171875 
Q 4.6875 41.453125 4.6875 46.6875 
Q 4.6875 52 6.21875 56.296875 
Q 7.765625 60.59375 10.6875 63.59375 
Q 13.625 66.609375 17.890625 68.21875 
Q 22.171875 69.828125 27.59375 69.828125 
Q 39.0625 69.828125 44.96875 61.328125 
Q 50.875 52.828125 50.875 35.796875 
M 41.3125 44.28125 
Q 41.3125 48.09375 40.40625 51.453125 
Q 39.5 54.828125 37.71875 57.3125 
Q 35.9375 59.8125 33.328125 61.25 
Q 30.71875 62.703125 27.296875 62.703125 
Q 24.125 62.703125 21.578125 61.578125 
Q 19.046875 60.453125 17.28125 58.375 
Q 15.53125 56.296875 14.578125 53.3125 
Q 13.625 50.34375 13.625 46.6875 
Q 13.625 43.21875 14.46875 40.234375 
Q 15.328125 37.25 17.03125 35.078125 
Q 18.75 32.90625 21.28125 31.65625 
Q 23.828125 30.421875 27.203125 30.421875 
Q 29.640625 30.421875 32.15625 31.25 
Q 34.671875 32.078125 36.6875 33.78125 
Q 38.71875 35.5 40.015625 38.109375 
Q 41.3125 40.71875 41.3125 44.28125 
" id="LiberationSans-39"/>
       <path d="M 43.015625 15.578125 
L 43.015625 0 
L 34.71875 0 
L 34.71875 15.578125 
L 2.296875 15.578125 
L 2.296875 22.40625 
L 33.796875 68.796875 
L 43.015625 68.796875 
L 43.015625 22.515625 
L 52.6875 22.515625 
L 52.6875 15.578125 
z
M 34.71875 58.890625 
Q 34.625 58.640625 34.234375 57.9375 
Q 33.84375 57.234375 33.34375 56.34375 
Q 32.859375 55.46875 32.34375 54.5625 
Q 31.84375 53.65625 31.453125 53.078125 
L 13.8125 27.09375 
Q 13.578125 26.703125 13.109375 26.0625 
Q 12.640625 25.4375 12.15625 24.78125 
Q 11.671875 24.125 11.171875 23.484375 
Q 10.6875 22.859375 10.40625 22.515625 
L 34.71875 22.515625 
z
" id="LiberationSans-34"/>
      </defs>
      <g style="fill:#262626;" transform="translate(137.232390414 370.646875)scale(0.1 -0.1)">
       <use xlink:href="#LiberationSans-32"/>
       <use x="55.615234375" xlink:href="#LiberationSans-30"/>
       <use x="111.23046875" xlink:href="#LiberationSans-31"/>
       <use x="166.845703125" xlink:href="#LiberationSans-35"/>
       <use x="222.4609375" xlink:href="#LiberationSans-2d"/>
       <use x="255.76171875" xlink:href="#LiberationSans-31"/>
       <use x="311.376953125" xlink:href="#LiberationSans-32"/>
       <use x="366.9921875" xlink:href="#LiberationSans-2d"/>
       <use x="400.29296875" xlink:href="#LiberationSans-30"/>
       <use x="455.908203125" xlink:href="#LiberationSans-39"/>
       <use x="511.5234375" xlink:href="#LiberationSans-20"/>
       <use x="539.306640625" xlink:href="#LiberationSans-31"/>
       <use x="594.921875" xlink:href="#LiberationSans-34"/>
       <use x="650.537109375" xlink:href="#LiberationSans-3a"/>
       <use x="678.3203125" xlink:href="#LiberationSans-32"/>
       <use x="733.935546875" xlink:href="#LiberationSans-39"/>
       <use x="789.55078125" xlink:href="#LiberationSans-3a"/>
       <use x="817.333984375" xlink:href="#LiberationSans-30"/>
       <use x="872.94921875" xlink:href="#LiberationSans-30"/>
      </g>
     </g>
    </g>
    <g id="xtick_3">
     <g id="line2d_7">
      <path clip-path="url(#p29f4598a11)" d="M 295.311656 356.4 
L 295.311656 39.6 
" style="fill:none;stroke:#ffffff;stroke-linecap:round;"/>
     </g>
     <g id="line2d_8"/>
     <g id="line2d_9"/>
     <g id="text_3">
      <!-- 2015-12-14 10:07:00 -->
      <g style="fill:#262626;" transform="translate(248.888218328 370.646875)scale(0.1 -0.1)">
       <use xlink:href="#LiberationSans-32"/>
       <use x="55.615234375" xlink:href="#LiberationSans-30"/>
       <use x="111.23046875" xlink:href="#LiberationSans-31"/>
       <use x="166.845703125" xlink:href="#LiberationSans-35"/>
       <use x="222.4609375" xlink:href="#LiberationSans-2d"/>
       <use x="255.76171875" xlink:href="#LiberationSans-31"/>
       <use x="311.376953125" xlink:href="#LiberationSans-32"/>
       <use x="366.9921875" xlink:href="#LiberationSans-2d"/>
       <use x="400.29296875" xlink:href="#LiberationSans-31"/>
       <use x="455.908203125" xlink:href="#LiberationSans-34"/>
       <use x="511.5234375" xlink:href="#LiberationSans-20"/>
       <use x="539.306640625" xlink:href="#LiberationSans-31"/>
       <use x="594.921875" xlink:href="#LiberationSans-30"/>
       <use x="650.537109375" xlink:href="#LiberationSans-3a"/>
       <use x="678.3203125" xlink:href="#LiberationSans-30"/>
       <use x="733.935546875" xlink:href="#LiberationSans-37"/>
       <use x="789.55078125" xlink:href="#LiberationSans-3a"/>
       <use x="817.333984375" xlink:href="#LiberationSans-30"/>
       <use x="872.94921875" xlink:href="#LiberationSans-30"/>
      </g>
     </g>
    </g>
    <g id="xtick_4">
     <g id="line2d_10">
      <path clip-path="url(#p29f4598a11)" d="M 406.967484 356.4 
L 406.967484 39.6 
" style="fill:none;stroke:#ffffff;stroke-linecap:round;"/>
     </g>
     <g id="line2d_11"/>
     <g id="line2d_12"/>
     <g id="text_4">
      <!-- 2015-12-16 13:42:00 -->
      <defs>
       <path d="M 51.21875 19 
Q 51.21875 14.265625 49.671875 10.546875 
Q 48.140625 6.84375 45.1875 4.265625 
Q 42.234375 1.703125 37.859375 0.359375 
Q 33.5 -0.984375 27.875 -0.984375 
Q 21.484375 -0.984375 17.109375 0.609375 
Q 12.75 2.203125 9.90625 4.8125 
Q 7.078125 7.421875 5.65625 10.765625 
Q 4.25 14.109375 3.8125 17.671875 
L 12.890625 18.5 
Q 13.28125 15.765625 14.328125 13.515625 
Q 15.375 11.28125 17.1875 9.671875 
Q 19 8.0625 21.625 7.171875 
Q 24.265625 6.296875 27.875 6.296875 
Q 34.515625 6.296875 38.296875 9.5625 
Q 42.09375 12.84375 42.09375 19.28125 
Q 42.09375 23.09375 40.40625 25.40625 
Q 38.71875 27.734375 36.203125 29.03125 
Q 33.6875 30.328125 30.734375 30.765625 
Q 27.78125 31.203125 25.296875 31.203125 
L 20.3125 31.203125 
L 20.3125 38.8125 
L 25.09375 38.8125 
Q 27.59375 38.8125 30.265625 39.328125 
Q 32.953125 39.84375 35.171875 41.1875 
Q 37.40625 42.53125 38.84375 44.828125 
Q 40.28125 47.125 40.28125 50.6875 
Q 40.28125 56.203125 37.03125 59.390625 
Q 33.796875 62.59375 27.390625 62.59375 
Q 21.578125 62.59375 17.984375 59.609375 
Q 14.40625 56.640625 13.8125 51.21875 
L 4.984375 51.90625 
Q 5.515625 56.453125 7.46875 59.8125 
Q 9.421875 63.1875 12.421875 65.40625 
Q 15.4375 67.625 19.28125 68.71875 
Q 23.140625 69.828125 27.484375 69.828125 
Q 33.25 69.828125 37.390625 68.375 
Q 41.546875 66.9375 44.1875 64.46875 
Q 46.828125 62.015625 48.0625 58.6875 
Q 49.3125 55.375 49.3125 51.609375 
Q 49.3125 48.578125 48.484375 45.9375 
Q 47.65625 43.3125 45.890625 41.203125 
Q 44.140625 39.109375 41.421875 37.59375 
Q 38.71875 36.078125 34.90625 35.296875 
L 34.90625 35.109375 
Q 39.0625 34.671875 42.140625 33.21875 
Q 45.21875 31.78125 47.21875 29.625 
Q 49.21875 27.484375 50.21875 24.75 
Q 51.21875 22.015625 51.21875 19 
" id="LiberationSans-33"/>
       <path d="M 51.21875 22.515625 
Q 51.21875 17.328125 49.78125 13 
Q 48.34375 8.6875 45.53125 5.578125 
Q 42.71875 2.484375 38.5625 0.75 
Q 34.421875 -0.984375 29 -0.984375 
Q 23 -0.984375 18.5 1.3125 
Q 14.015625 3.609375 11.03125 7.921875 
Q 8.0625 12.25 6.5625 18.53125 
Q 5.078125 24.8125 5.078125 32.8125 
Q 5.078125 42 6.765625 48.921875 
Q 8.453125 55.859375 11.625 60.5 
Q 14.796875 65.140625 19.359375 67.484375 
Q 23.921875 69.828125 29.6875 69.828125 
Q 33.203125 69.828125 36.28125 69.09375 
Q 39.359375 68.359375 41.875 66.71875 
Q 44.390625 65.09375 46.28125 62.40625 
Q 48.1875 59.71875 49.3125 55.8125 
L 40.921875 54.296875 
Q 39.546875 58.734375 36.546875 60.71875 
Q 33.546875 62.703125 29.59375 62.703125 
Q 25.984375 62.703125 23.046875 60.984375 
Q 20.125 59.28125 18.0625 55.875 
Q 16.015625 52.484375 14.90625 47.359375 
Q 13.8125 42.234375 13.8125 35.40625 
Q 16.21875 39.84375 20.5625 42.15625 
Q 24.90625 44.484375 30.515625 44.484375 
Q 35.203125 44.484375 39.015625 42.96875 
Q 42.828125 41.453125 45.53125 38.59375 
Q 48.25 35.75 49.734375 31.671875 
Q 51.21875 27.59375 51.21875 22.515625 
M 42.28125 22.125 
Q 42.28125 25.6875 41.40625 28.5625 
Q 40.53125 31.453125 38.765625 33.46875 
Q 37.015625 35.5 34.421875 36.59375 
Q 31.84375 37.703125 28.421875 37.703125 
Q 26.03125 37.703125 23.578125 36.984375 
Q 21.140625 36.28125 19.15625 34.6875 
Q 17.1875 33.109375 15.9375 30.515625 
Q 14.703125 27.9375 14.703125 24.21875 
Q 14.703125 20.40625 15.671875 17.109375 
Q 16.65625 13.8125 18.484375 11.375 
Q 20.3125 8.9375 22.890625 7.515625 
Q 25.484375 6.109375 28.71875 6.109375 
Q 31.890625 6.109375 34.40625 7.203125 
Q 36.921875 8.296875 38.671875 10.375 
Q 40.4375 12.453125 41.359375 15.421875 
Q 42.28125 18.40625 42.28125 22.125 
" id="LiberationSans-36"/>
      </defs>
      <g style="fill:#262626;" transform="translate(360.544046242 370.646875)scale(0.1 -0.1)">
       <use xlink:href="#LiberationSans-32"/>
       <use x="55.615234375" xlink:href="#LiberationSans-30"/>
       <use x="111.23046875" xlink:href="#LiberationSans-31"/>
       <use x="166.845703125" xlink:href="#LiberationSans-35"/>
       <use x="222.4609375" xlink:href="#LiberationSans-2d"/>
       <use x="255.76171875" xlink:href="#LiberationSans-31"/>
       <use x="311.376953125" xlink:href="#LiberationSans-32"/>
       <use x="366.9921875" xlink:href="#LiberationSans-2d"/>
       <use x="400.29296875" xlink:href="#LiberationSans-31"/>
       <use x="455.908203125" xlink:href="#LiberationSans-36"/>
       <use x="511.5234375" xlink:href="#LiberationSans-20"/>
       <use x="539.306640625" xlink:href="#LiberationSans-31"/>
       <use x="594.921875" xlink:href="#LiberationSans-33"/>
       <use x="650.537109375" xlink:href="#LiberationSans-3a"/>
       <use x="678.3203125" xlink:href="#LiberationSans-34"/>
       <use x="733.935546875" xlink:href="#LiberationSans-32"/>
       <use x="789.55078125" xlink:href="#LiberationSans-3a"/>
       <use x="817.333984375" xlink:href="#LiberationSans-30"/>
       <use x="872.94921875" xlink:href="#LiberationSans-30"/>
      </g>
     </g>
    </g>
    <g id="text_5">
     <!-- time -->
     <defs>
      <path d="M 13.484375 24.5625 
Q 13.484375 20.40625 14.328125 16.90625 
Q 15.1875 13.421875 16.96875 10.90625 
Q 18.75 8.40625 21.53125 7 
Q 24.3125 5.609375 28.21875 5.609375 
Q 33.9375 5.609375 37.375 7.90625 
Q 40.828125 10.203125 42.046875 13.71875 
L 49.75 11.53125 
Q 48.921875 9.328125 47.4375 7.109375 
Q 45.953125 4.890625 43.453125 3.09375 
Q 40.96875 1.3125 37.234375 0.15625 
Q 33.5 -0.984375 28.21875 -0.984375 
Q 16.5 -0.984375 10.375 6 
Q 4.25 12.984375 4.25 26.765625 
Q 4.25 34.1875 6.09375 39.328125 
Q 7.953125 44.484375 11.171875 47.703125 
Q 14.40625 50.921875 18.703125 52.359375 
Q 23 53.8125 27.875 53.8125 
Q 34.515625 53.8125 38.984375 51.65625 
Q 43.453125 49.515625 46.15625 45.71875 
Q 48.875 41.9375 50.015625 36.8125 
Q 51.171875 31.6875 51.171875 25.734375 
L 51.171875 24.5625 
z
M 42.09375 31.296875 
Q 41.359375 39.65625 37.84375 43.484375 
Q 34.328125 47.3125 27.734375 47.3125 
Q 25.53125 47.3125 23.109375 46.609375 
Q 20.703125 45.90625 18.65625 44.09375 
Q 16.609375 42.28125 15.1875 39.171875 
Q 13.765625 36.078125 13.578125 31.296875 
z
" id="LiberationSans-65"/>
      <path d="M 6.6875 64.0625 
L 6.6875 72.46875 
L 15.484375 72.46875 
L 15.484375 64.0625 
z
M 6.6875 0 
L 6.6875 52.828125 
L 15.484375 52.828125 
L 15.484375 0 
z
" id="LiberationSans-69"/>
      <path d="M 27.046875 0.390625 
Q 25.046875 -0.140625 22.96875 -0.453125 
Q 20.90625 -0.78125 18.171875 -0.78125 
Q 7.625 -0.78125 7.625 11.1875 
L 7.625 46.4375 
L 1.515625 46.4375 
L 1.515625 52.828125 
L 7.953125 52.828125 
L 10.546875 64.65625 
L 16.40625 64.65625 
L 16.40625 52.828125 
L 26.171875 52.828125 
L 26.171875 46.4375 
L 16.40625 46.4375 
L 16.40625 13.09375 
Q 16.40625 9.28125 17.640625 7.734375 
Q 18.890625 6.203125 21.96875 6.203125 
Q 23.25 6.203125 24.4375 6.390625 
Q 25.640625 6.59375 27.046875 6.890625 
z
" id="LiberationSans-74"/>
      <path d="M 37.5 0 
L 37.5 33.5 
Q 37.5 37.359375 37.015625 39.9375 
Q 36.53125 42.53125 35.375 44.109375 
Q 34.234375 45.703125 32.375 46.359375 
Q 30.515625 47.015625 27.828125 47.015625 
Q 25.046875 47.015625 22.796875 45.921875 
Q 20.5625 44.828125 18.96875 42.75 
Q 17.390625 40.671875 16.53125 37.625 
Q 15.671875 34.578125 15.671875 30.609375 
L 15.671875 0 
L 6.9375 0 
L 6.9375 41.546875 
Q 6.9375 43.21875 6.90625 45.046875 
Q 6.890625 46.875 6.828125 48.5 
Q 6.78125 50.140625 6.734375 51.3125 
Q 6.6875 52.484375 6.640625 52.828125 
L 14.9375 52.828125 
Q 14.984375 52.59375 15.03125 51.515625 
Q 15.09375 50.4375 15.15625 49.046875 
Q 15.234375 47.65625 15.28125 46.21875 
Q 15.328125 44.78125 15.328125 43.796875 
L 15.484375 43.796875 
Q 16.65625 46.09375 18.015625 47.953125 
Q 19.390625 49.8125 21.21875 51.09375 
Q 23.046875 52.390625 25.40625 53.09375 
Q 27.78125 53.8125 30.90625 53.8125 
Q 36.921875 53.8125 40.40625 51.421875 
Q 43.890625 49.03125 45.265625 43.796875 
L 45.40625 43.796875 
Q 46.578125 46.09375 48.046875 47.953125 
Q 49.515625 49.8125 51.46875 51.09375 
Q 53.421875 52.390625 55.859375 53.09375 
Q 58.296875 53.8125 61.421875 53.8125 
Q 65.4375 53.8125 68.328125 52.734375 
Q 71.234375 51.65625 73.09375 49.40625 
Q 74.953125 47.171875 75.828125 43.625 
Q 76.703125 40.09375 76.703125 35.203125 
L 76.703125 0 
L 68.015625 0 
L 68.015625 33.5 
Q 68.015625 37.359375 67.53125 39.9375 
Q 67.046875 42.53125 65.890625 44.109375 
Q 64.75 45.703125 62.890625 46.359375 
Q 61.03125 47.015625 58.34375 47.015625 
Q 55.5625 47.015625 53.3125 45.96875 
Q 51.078125 44.921875 49.484375 42.875 
Q 47.90625 40.828125 47.046875 37.75 
Q 46.1875 34.671875 46.1875 30.609375 
L 46.1875 0 
z
" id="LiberationSans-6d"/>
     </defs>
     <g style="fill:#262626;" transform="translate(284.81015625 385.6934375)scale(0.11 -0.11)">
      <use xlink:href="#LiberationSans-74"/>
      <use x="27.783203125" xlink:href="#LiberationSans-69"/>
      <use x="50.0" xlink:href="#LiberationSans-6d"/>
      <use x="133.30078125" xlink:href="#LiberationSans-65"/>
     </g>
    </g>
   </g>
   <g id="matplotlib.axis_2">
    <g id="ytick_1">
     <g id="line2d_13">
      <path clip-path="url(#p29f4598a11)" d="M 72 356.4 
L 518.4 356.4 
" style="fill:none;stroke:#ffffff;stroke-linecap:round;"/>
     </g>
     <g id="line2d_14"/>
     <g id="line2d_15"/>
     <g id="text_6">
      <!-- −450 -->
      <defs>
       <path d="M 4.9375 29.6875 
L 4.9375 36.8125 
L 53.515625 36.8125 
L 53.515625 29.6875 
z
" id="LiberationSans-2212"/>
      </defs>
      <g style="fill:#262626;" transform="translate(42.4765625 358.9859375)scale(0.1 -0.1)">
       <use xlink:href="#LiberationSans-2212"/>
       <use x="58.3984375" xlink:href="#LiberationSans-34"/>
       <use x="114.013671875" xlink:href="#LiberationSans-35"/>
       <use x="169.62890625" xlink:href="#LiberationSans-30"/>
      </g>
     </g>
    </g>
    <g id="ytick_2">
     <g id="line2d_16">
      <path clip-path="url(#p29f4598a11)" d="M 72 293.04 
L 518.4 293.04 
" style="fill:none;stroke:#ffffff;stroke-linecap:round;"/>
     </g>
     <g id="line2d_17"/>
     <g id="line2d_18"/>
     <g id="text_7">
      <!-- −400 -->
      <g style="fill:#262626;" transform="translate(42.4765625 295.6259375)scale(0.1 -0.1)">
       <use xlink:href="#LiberationSans-2212"/>
       <use x="58.3984375" xlink:href="#LiberationSans-34"/>
       <use x="114.013671875" xlink:href="#LiberationSans-30"/>
       <use x="169.62890625" xlink:href="#LiberationSans-30"/>
      </g>
     </g>
    </g>
    <g id="ytick_3">
     <g id="line2d_19">
      <path clip-path="url(#p29f4598a11)" d="M 72 229.68 
L 518.4 229.68 
" style="fill:none;stroke:#ffffff;stroke-linecap:round;"/>
     </g>
     <g id="line2d_20"/>
     <g id="line2d_21"/>
     <g id="text_8">
      <!-- −350 -->
      <g style="fill:#262626;" transform="translate(42.4765625 232.2659375)scale(0.1 -0.1)">
       <use xlink:href="#LiberationSans-2212"/>
       <use x="58.3984375" xlink:href="#LiberationSans-33"/>
       <use x="114.013671875" xlink:href="#LiberationSans-35"/>
       <use x="169.62890625" xlink:href="#LiberationSans-30"/>
      </g>
     </g>
    </g>
    <g id="ytick_4">
     <g id="line2d_22">
      <path clip-path="url(#p29f4598a11)" d="M 72 166.32 
L 518.4 166.32 
" style="fill:none;stroke:#ffffff;stroke-linecap:round;"/>
     </g>
     <g id="line2d_23"/>
     <g id="line2d_24"/>
     <g id="text_9">
      <!-- −300 -->
      <g style="fill:#262626;" transform="translate(42.4765625 168.9059375)scale(0.1 -0.1)">
       <use xlink:href="#LiberationSans-2212"/>
       <use x="58.3984375" xlink:href="#LiberationSans-33"/>
       <use x="114.013671875" xlink:href="#LiberationSans-30"/>
       <use x="169.62890625" xlink:href="#LiberationSans-30"/>
      </g>
     </g>
    </g>
    <g id="ytick_5">
     <g id="line2d_25">
      <path clip-path="url(#p29f4598a11)" d="M 72 102.96 
L 518.4 102.96 
" style="fill:none;stroke:#ffffff;stroke-linecap:round;"/>
     </g>
     <g id="line2d_26"/>
     <g id="line2d_27"/>
     <g id="text_10">
      <!-- −250 -->
      <g style="fill:#262626;" transform="translate(42.4765625 105.5459375)scale(0.1 -0.1)">
       <use xlink:href="#LiberationSans-2212"/>
       <use x="58.3984375" xlink:href="#LiberationSans-32"/>
       <use x="114.013671875" xlink:href="#LiberationSans-35"/>
       <use x="169.62890625" xlink:href="#LiberationSans-30"/>
      </g>
     </g>
    </g>
    <g id="ytick_6">
     <g id="line2d_28">
      <path clip-path="url(#p29f4598a11)" d="M 72 39.6 
L 518.4 39.6 
" style="fill:none;stroke:#ffffff;stroke-linecap:round;"/>
     </g>
     <g id="line2d_29"/>
     <g id="line2d_30"/>
     <g id="text_11">
      <!-- −200 -->
      <g style="fill:#262626;" transform="translate(42.4765625 42.1859375)scale(0.1 -0.1)">
       <use xlink:href="#LiberationSans-2212"/>
       <use x="58.3984375" xlink:href="#LiberationSans-32"/>
       <use x="114.013671875" xlink:href="#LiberationSans-30"/>
       <use x="169.62890625" xlink:href="#LiberationSans-30"/>
      </g>
     </g>
    </g>
   </g>
   <g id="line2d_31">
    <path clip-path="url(#p29f4598a11)" d="M 72 222.842175 
L 72.446623 233.626047 
L 72.669935 231.078975 
L 73.33987 210.428326 
L 73.786493 216.886335 
L 74.009805 212.070975 
L 74.233117 210.651711 
L 74.456428 199.657126 
L 74.67974 220.227031 
L 74.903052 216.607551 
L 75.126363 224.484823 
L 75.349675 217.735359 
L 75.796298 229.300183 
L 76.01961 232.708951 
L 76.242921 229.021399 
L 76.466233 233.557975 
L 76.689545 229.870423 
L 76.912856 262.420079 
L 77.35948 240.722367 
L 77.582791 252.844759 
L 77.806103 253.985239 
L 78.029415 252.844759 
L 78.252726 262.420079 
L 78.476038 257.381335 
L 78.69935 282.209031 
L 78.922661 280.857839 
L 79.145973 292.714119 
L 79.369285 291.573639 
L 79.815908 284.545391 
L 80.03922 284.768775 
L 80.262531 280.579055 
L 80.485843 285.326343 
L 80.709155 293.773855 
L 80.932466 281.930247 
L 81.155778 291.505567 
L 81.37909 283.919751 
L 81.602401 281.930247 
L 81.825713 277.951239 
L 82.495648 255.113047 
L 82.718959 265.258607 
L 82.942271 253.985239 
L 83.165583 254.555479 
L 83.388894 253.985239 
L 83.835518 263.839343 
L 84.058829 267.818351 
L 84.282141 250.365759 
L 84.505453 263.126463 
L 84.728764 260.009151 
L 84.952076 262.066726 
L 85.175388 260.009151 
L 85.398699 271.003735 
L 85.622011 265.896919 
L 85.845323 267.384255 
L 86.068634 260.009151 
L 86.291946 278.378839 
L 86.515258 283.987823 
L 86.738569 284.055895 
L 86.961881 280.938583 
L 87.185193 275.831767 
L 87.408504 276.959575 
L 87.631816 285.407087 
L 87.855128 274.121047 
L 88.301751 290.513903 
L 88.525063 291.003399 
L 88.748374 290.154375 
L 88.971686 274.052975 
L 89.194997 273.482735 
L 89.418309 273.774191 
L 89.641621 276.823431 
L 89.864932 260.511319 
L 90.088244 259.941079 
L 90.311556 271.214447 
L 90.534867 274.555143 
L 90.758179 256.464239 
L 91.204802 249.367919 
L 91.428114 256.464239 
L 91.651426 256.755695 
L 91.874737 268.307847 
L 92.098049 268.307847 
L 92.321361 259.873007 
L 92.544672 269.448327 
L 92.767984 270.018567 
L 93.214607 280.219527 
L 93.437919 274.623215 
L 93.661231 276.612719 
L 93.884542 289.584135 
L 94.107854 289.875591 
L 94.331166 291.505567 
L 94.554477 294.344095 
L 95.001101 272.063471 
L 95.224412 272.925167 
L 95.447724 266.956655 
L 95.671036 268.097135 
L 95.894347 266.956655 
L 96.117659 262.990319 
L 96.34097 255.974743 
L 96.564282 207.80019 
L 97.010905 225.61231 
L 97.234217 225.320854 
L 97.457529 220.003326 
L 97.68084 219.724542 
L 97.904152 234.753534 
L 98.350775 226.529406 
L 98.574087 242.060566 
L 98.797399 233.557654 
L 99.02071 236.95375 
L 99.244022 230.495742 
L 99.467334 242.060566 
L 99.913957 227.099646 
L 100.137269 223.120638 
L 100.36058 223.982334 
L 100.583892 210.428006 
L 100.807204 210.428006 
L 101.030515 216.105062 
L 101.253827 218.094566 
L 101.477139 217.871181 
L 101.70045 212.206797 
L 101.923762 219.860685 
L 102.147074 221.211878 
L 102.370385 209.368269 
L 102.593697 211.345101 
L 102.817009 217.524326 
L 103.04032 213.836774 
L 103.263632 213.266534 
L 103.486943 209.578982 
L 103.710255 199.724877 
L 103.933567 209.300198 
L 104.156878 203.691213 
L 104.38019 209.300198 
L 104.603502 198.863181 
L 104.826813 200.003661 
L 105.050125 195.535157 
L 105.273437 210.787533 
L 105.72006 216.451917 
L 105.943372 209.925837 
L 106.166683 210.217293 
L 106.389995 205.110477 
L 106.613307 204.261453 
L 106.836618 197.524661 
L 107.05993 205.748789 
L 107.283242 207.949005 
L 107.506553 215.602893 
L 107.729865 210.855605 
L 107.953177 226.957005 
L 108.3998 200.431261 
L 108.623112 214.543157 
L 108.846423 209.144885 
L 109.069735 224.118477 
L 109.293047 219.290445 
L 109.516358 205.748789 
L 109.73967 216.451917 
L 109.962981 205.457333 
L 110.186293 243.975501 
L 110.409605 235.819445 
L 110.632916 248.803533 
L 110.856228 249.931341 
L 111.07954 245.115981 
L 111.302851 252.131558 
L 111.526163 240.566733 
L 111.749475 242.277453 
L 111.972786 251.852774 
L 112.196098 252.131558 
L 112.41941 252.980582 
L 112.866033 241.707213 
L 113.089345 245.326694 
L 113.312656 233.761869 
L 113.535968 250.991078 
L 113.75928 247.873766 
L 113.982591 258.29811 
L 114.205903 258.86835 
L 114.429215 258.86835 
L 114.652526 250.43351 
L 114.875838 251.77203 
L 115.09915 256.878846 
L 115.322461 264.545406 
L 115.545773 260.647142 
L 115.769085 276.178302 
L 115.992396 271.641726 
L 116.215708 262.847358 
L 116.43902 268.232958 
L 116.662331 268.511742 
L 116.885643 263.975166 
L 117.108954 255.472254 
L 117.332266 254.610558 
L 117.778889 241.849854 
L 118.002201 246.107646 
L 118.225513 244.967166 
L 118.448824 240.498662 
L 118.672136 239.581566 
L 119.118759 248.946174 
L 119.342071 240.219878 
L 119.565383 251.214462 
L 119.788694 270.073646 
L 120.012006 262.128302 
L 120.235318 246.888598 
L 120.458629 244.899094 
L 120.681941 236.464254 
L 120.905253 250.00591 
L 121.128564 251.995414 
L 121.351876 251.14639 
L 121.575188 255.614894 
L 121.798499 243.269118 
L 122.021811 247.235454 
L 122.245123 241.068902 
L 122.468434 247.52691 
L 122.691746 249.224958 
L 122.915058 255.112726 
L 123.138369 257.10223 
L 123.361681 260.219542 
L 123.584992 219.154302 
L 123.808304 220.28211 
L 124.031616 206.740454 
L 124.254927 212.126054 
L 124.478239 210.149222 
L 124.701551 203.623142 
L 124.924862 204.404094 
L 125.371486 215.46675 
L 125.594797 217.735038 
L 125.818109 207.310694 
L 126.041421 210.70679 
L 126.264732 210.70679 
L 126.488044 213.836774 
L 126.711356 200.282445 
L 126.934667 212.126054 
L 127.157979 207.310694 
L 127.381291 210.428006 
L 127.604602 229.076478 
L 127.827914 233.90451 
L 128.051226 227.446502 
L 128.274537 239.011326 
L 128.497849 242.128638 
L 128.721161 239.86035 
L 128.944472 253.693462 
L 129.167784 244.118142 
L 129.391096 254.05299 
L 129.614407 236.532326 
L 129.837719 232.844774 
L 130.061031 264.185878 
L 130.284342 260.857854 
L 130.507654 251.77203 
L 130.730965 249.224958 
L 130.954277 250.644222 
L 131.4009 244.688382 
L 131.624212 233.693798 
L 131.847524 234.821606 
L 132.070835 245.537406 
L 132.294147 239.370854 
L 132.74077 216.241205 
L 132.964082 236.030157 
L 133.187394 241.707213 
L 133.410705 220.858525 
L 133.634017 238.936757 
L 133.857329 223.975837 
L 134.08064 225.673885 
L 134.303952 211.283205 
L 134.527264 216.309277 
L 134.750575 228.723125 
L 134.973887 228.444341 
L 135.197199 217.728541 
L 135.42051 236.389685 
L 135.643822 233.619229 
L 135.867134 245.462837 
L 136.090445 228.512413 
L 136.313757 240.356021 
L 136.537069 236.098229 
L 136.76038 225.103645 
L 136.983692 228.444341 
L 137.207004 227.595317 
L 137.430315 223.405597 
L 137.653627 223.684381 
L 137.876938 228.444341 
L 138.10025 210.923677 
L 138.323562 210.353437 
L 138.546873 211.493917 
L 138.770185 208.376605 
L 138.993497 223.337525 
L 139.216808 213.470749 
L 139.44012 225.327029 
L 139.663432 211.772701 
L 139.886743 223.684381 
L 140.110055 219.147805 
L 140.333367 216.947589 
L 140.77999 231.059485 
L 141.003302 217.239045 
L 141.226613 229.652893 
L 141.449925 221.775621 
L 141.673237 219.507333 
L 141.896548 212.689797 
L 142.11986 193.680998 
L 142.343172 196.22807 
L 142.566483 194.251238 
L 142.789795 199.568767 
L 143.013107 194.461951 
L 143.236418 212.913181 
L 143.45973 193.321471 
L 143.683042 195.962757 
L 143.906353 237.449421 
L 144.129665 243.615974 
L 144.352976 246.677886 
L 144.576288 234.332109 
L 144.7996 245.326694 
L 145.246223 251.214462 
L 145.469535 239.370854 
L 145.692846 237.38135 
L 145.916158 246.38643 
L 146.13947 235.962086 
L 146.362781 244.688382 
L 146.586093 241.917926 
L 146.809405 236.81111 
L 147.032716 239.928422 
L 147.256028 250.644222 
L 147.47934 242.19671 
L 147.702651 242.19671 
L 147.925963 235.113062 
L 148.149275 214.115558 
L 148.372586 218.094566 
L 148.595898 214.407014 
L 148.81921 216.675302 
L 149.042521 209.647053 
L 149.265833 208.519245 
L 149.712456 211.066317 
L 149.935768 225.46967 
L 150.15908 214.183629 
L 150.605703 227.446502 
L 150.829015 211.066317 
L 151.052326 211.636557 
L 151.275638 215.894349 
L 151.498949 228.295526 
L 151.722261 221.279949 
L 151.945573 224.397261 
L 152.168884 223.269453 
L 152.615508 215.670965 
L 152.838819 214.821941 
L 153.062131 223.827021 
L 153.508754 213.694133 
L 153.732066 221.279949 
L 153.955378 208.866101 
L 154.178689 203.189045 
L 154.402001 204.899765 
L 154.625313 211.636557 
L 154.848624 213.626061 
L 155.071936 200.920757 
L 155.295248 202.340021 
L 155.741871 197.233205 
L 155.965183 198.943925 
L 156.411806 196.662965 
L 156.635118 205.748789 
L 156.858429 204.608309 
L 157.081741 205.457333 
L 157.305053 203.189045 
L 157.528364 223.269453 
L 157.751676 208.295861 
L 157.974987 207.738293 
L 158.198299 203.480501 
L 158.421611 212.764365 
L 158.644922 195.535157 
L 158.868234 194.394677 
L 159.091546 194.618061 
L 159.314857 208.159718 
L 159.538169 197.443917 
L 159.761481 209.578982 
L 159.984792 201.701709 
L 160.208104 205.32119 
L 160.431416 200.852685 
L 160.654727 203.052902 
L 160.878039 200.50583 
L 161.324662 203.052902 
L 161.547974 205.32119 
L 161.771286 190.639053 
L 162.217909 196.248038 
L 162.441221 198.22487 
L 162.664532 190.930509 
L 162.887844 194.896845 
L 163.111156 193.756365 
L 163.334467 202.203878 
L 163.557779 197.375846 
L 163.781091 186.381261 
L 164.004402 192.058317 
L 164.227714 184.751285 
L 164.451026 185.600309 
L 164.674337 187.589813 
L 164.897649 183.053237 
L 165.12096 192.337101 
L 165.567584 176.805941 
L 165.790895 183.332021 
L 166.014207 186.462005 
L 166.237519 181.912757 
L 166.46083 183.053237 
L 166.684142 178.795445 
L 166.907454 180.425421 
L 167.130765 175.318605 
L 167.354077 165.173045 
L 167.577389 177.308109 
L 167.8007 180.146637 
L 168.024012 164.615477 
L 168.247324 174.469581 
L 168.693947 164.045237 
L 168.917259 170.782029 
L 169.14057 173.341773 
L 169.363882 161.417421 
L 169.587194 155.529653 
L 169.810505 157.797941 
L 170.033817 169.362765 
L 170.257129 170.782029 
L 170.48044 208.227789 
L 170.703752 203.120973 
L 170.927064 210.787533 
L 171.150375 206.529741 
L 171.373687 208.798029 
L 171.596998 204.831693 
L 171.82031 198.652469 
L 172.043622 202.842189 
L 172.266933 196.105397 
L 172.490245 214.475085 
L 172.713557 221.001165 
L 172.936868 217.592397 
L 173.16018 206.876597 
L 173.383492 220.139469 
L 173.606803 220.709709 
L 173.830115 207.168053 
L 174.053427 207.168053 
L 174.276738 202.978333 
L 174.50005 202.978333 
L 174.723362 199.861021 
L 174.946673 195.101061 
L 175.169985 196.811781 
L 175.393297 200.778117 
L 175.616608 197.382021 
L 176.063232 207.806365 
L 176.286543 202.978333 
L 176.509855 193.973253 
L 176.733167 195.671301 
L 176.956478 207.236125 
L 177.17979 184.818559 
L 177.403102 195.962757 
L 177.849725 175.732735 
L 178.073037 176.581759 
L 178.296348 174.313471 
L 178.51966 182.619141 
L 178.742971 181.199877 
L 178.966283 170.347135 
L 179.412906 167.508607 
L 179.636218 169.776895 
L 180.082841 181.409791 
L 180.306153 183.399295 
L 180.529465 187.935871 
L 180.752776 189.145221 
L 181.1994 182.550271 
L 181.422711 188.214655 
L 181.646023 184.248319 
L 181.869335 201.069573 
L 182.092646 183.107839 
L 182.315958 179.420287 
L 182.53927 182.829055 
L 182.762581 172.336639 
L 182.985893 174.034687 
L 183.209205 171.766399 
L 183.655828 175.732735 
L 183.87914 160.771814 
L 184.102451 163.610342 
L 184.325763 159.35255 
L 184.549075 163.040102 
L 184.772386 160.49303 
L 184.995698 163.250815 
L 185.21901 161.831551 
L 185.442321 165.519103 
L 185.665633 164.961535 
L 186.112256 146.659918 
L 186.335568 146.30039 
L 186.558879 153.39671 
L 186.782191 154.524518 
L 187.005503 154.245734 
L 187.228814 143.82139 
L 187.452126 153.675494 
L 187.675438 154.524518 
L 187.898749 148.860134 
L 188.122061 185.110813 
L 188.345373 181.199877 
L 189.015308 201.490997 
L 189.238619 191.066653 
L 189.461931 188.228125 
L 189.685243 178.374021 
L 190.131866 200.920757 
L 190.355178 187.379101 
L 190.578489 147.29823 
L 190.801801 157.511862 
L 191.025113 139.991198 
L 191.248424 160.561102 
L 191.471736 144.738486 
L 191.695048 143.040438 
L 191.918359 153.743566 
L 192.141671 141.34239 
L 192.364982 100.487862 
L 192.811606 115.740238 
L 193.034917 108.643918 
L 193.481541 126.802894 
L 193.704852 124.24315 
L 194.151476 112.120758 
L 194.598099 122.042934 
L 194.821411 120.134174 
L 195.268034 132.467278 
L 195.937969 115.516854 
L 196.161281 122.545102 
L 196.384592 115.740238 
L 196.607904 114.029518 
L 196.831216 122.47703 
L 197.054527 113.391206 
L 197.277839 114.24023 
L 197.501151 109.133414 
L 197.724462 111.414374 
L 197.947774 115.101926 
L 198.171086 109.42487 
L 198.394397 112.263398 
L 198.617709 88.854966 
L 198.841021 91.333966 
L 199.064332 74.953782 
L 199.510955 69.778894 
L 199.734267 70.057678 
L 200.18089 79.70107 
L 200.404202 73.466446 
L 200.627514 75.734734 
L 200.850825 59.063094 
L 201.52076 78.281806 
L 201.744072 60.841886 
L 202.190695 77.79231 
L 202.414007 69.276726 
L 202.86063 76.08159 
L 203.083942 79.211574 
L 203.307254 74.104758 
L 203.530565 79.211574 
L 203.977189 84.529102 
L 204.2005 91.333966 
L 204.423812 78.36255 
L 204.647124 84.875958 
L 204.870435 87.156918 
L 205.093747 77.500854 
L 205.317059 74.104758 
L 205.54037 83.388622 
L 205.763682 70.69599 
L 205.986993 77.79231 
L 206.210305 78.641334 
L 206.433617 86.016438 
L 206.656928 85.446198 
L 206.88024 89.70399 
L 207.103552 90.84447 
L 207.326863 89.425206 
L 207.773487 79.849886 
L 208.22011 102.75615 
L 208.443422 108.643918 
L 208.666733 96.508854 
L 208.890045 106.084174 
L 209.113357 95.08959 
L 209.55998 102.18591 
L 209.783292 93.961782 
L 210.006603 100.487862 
L 210.229915 100.128334 
L 210.676538 85.167414 
L 210.89985 96.732238 
L 211.123162 97.289806 
L 211.346473 89.425206 
L 211.569785 98.777142 
L 212.23972 87.503774 
L 212.463032 89.772062 
L 212.686343 88.923038 
L 212.909655 100.555934 
L 213.132966 90.980614 
L 213.356278 90.980614 
L 213.57959 87.863302 
L 213.802901 89.282566 
L 214.026213 83.884294 
L 214.249525 83.884294 
L 214.472836 86.722822 
L 214.696148 84.17575 
L 214.91946 94.878878 
L 215.142771 95.449118 
L 215.366083 103.605174 
L 215.589395 98.287646 
L 215.812706 86.444038 
L 216.036018 81.907462 
L 216.25933 91.191326 
L 216.482641 91.191326 
L 216.929265 71.055518 
L 217.375888 63.537774 
L 217.5992 60.699246 
L 218.045823 48.285398 
L 218.269135 47.993942 
L 218.715758 75.381382 
L 218.93907 68.923374 
L 219.162381 68.712662 
L 219.385693 75.157998 
L 219.609005 73.181166 
L 219.832316 65.303894 
L 220.055628 71.470446 
L 220.278939 81.907462 
L 220.502251 71.761902 
L 220.725563 77.07943 
L 220.948874 77.07943 
L 221.172186 83.245982 
L 221.395498 81.907462 
L 221.618809 77.358214 
L 222.065433 95.238406 
L 222.288744 88.210158 
L 222.512056 92.46795 
L 222.735368 88.210158 
L 222.958679 96.936454 
L 223.181991 94.94695 
L 223.405303 80.345558 
L 223.628614 88.780398 
L 223.851926 86.009942 
L 224.075238 88.569686 
L 224.298549 106.579846 
L 224.521861 112.827142 
L 224.745173 112.535686 
L 224.968484 113.105926 
L 225.191796 110.558854 
L 225.415108 116.446622 
L 225.638419 110.558854 
L 225.861731 108.56935 
L 226.085043 109.988614 
L 226.308354 118.71491 
L 226.531666 120.412958 
L 226.754977 124.379294 
L 226.978289 118.423454 
L 227.201601 127.71999 
L 227.424912 118.71491 
L 227.648224 125.451702 
L 227.871536 136.446286 
L 228.094847 125.451702 
L 228.318159 126.021942 
L 228.541471 118.993694 
L 228.764782 117.57443 
L 228.988094 124.10051 
L 229.211406 124.379294 
L 229.434717 131.128758 
L 229.658029 123.251486 
L 229.881341 120.412958 
L 230.104652 112.827142 
L 230.327964 111.116422 
L 230.551276 121.832222 
L 230.774587 124.67075 
L 230.997899 131.19683 
L 231.221211 151.264566 
L 231.667834 155.243574 
L 231.891146 162.965534 
L 232.114457 178.21791 
L 232.337769 166.014774 
L 232.561081 169.423542 
L 233.007704 159.488694 
L 233.231016 162.965534 
L 233.454327 172.83231 
L 233.677639 172.540854 
L 233.90095 155.869214 
L 234.124262 158.06943 
L 234.347574 157.220406 
L 234.570885 149.913374 
L 235.24082 138.91879 
L 235.464132 156.092598 
L 235.687444 158.360886 
L 235.910755 159.488694 
L 236.134067 151.624094 
L 236.58069 166.863798 
L 236.804002 151.332638 
L 237.250625 174.951782 
L 237.473937 151.264566 
L 237.697249 144.459702 
L 237.92056 161.68891 
L 238.367184 153.532854 
L 238.813807 169.35547 
L 239.037119 158.63967 
L 239.26043 172.193998 
L 239.483742 163.746486 
L 239.707054 173.892046 
L 239.930365 160.127006 
L 240.153677 157.579934 
L 240.376988 150.272902 
L 240.6003 167.012614 
L 240.823612 171.481118 
L 241.046923 167.50211 
L 241.493547 171.759902 
L 241.716858 189.001782 
L 241.94017 195.236406 
L 242.163482 176.587934 
L 242.386793 184.17375 
L 242.610105 185.31423 
L 242.833417 169.21283 
L 243.056728 175.16867 
L 243.28004 173.749406 
L 243.726663 192.051022 
L 243.949975 175.100598 
L 244.173287 174.238902 
L 244.61991 189.491278 
L 244.843222 177.07743 
L 245.066533 173.389878 
L 245.736468 186.373966 
L 245.95978 184.74399 
L 246.183092 185.022774 
L 246.406403 176.296478 
L 246.629715 189.55935 
L 246.853027 185.382302 
L 247.076338 185.090846 
L 247.29965 180.845726 
L 247.522961 196.65567 
L 247.746273 200.84539 
L 247.969585 207.650254 
L 248.416208 195.806646 
L 248.63952 201.41563 
L 248.862831 190.978614 
L 249.086143 199.996366 
L 249.309455 185.593014 
L 249.532766 199.13467 
L 249.97939 191.201998 
L 250.202701 191.201998 
L 250.426013 183.60351 
L 250.872636 192.051022 
L 251.31926 185.233486 
L 251.542571 182.965198 
L 251.765883 196.79831 
L 251.989195 186.944206 
L 252.212506 191.98295 
L 252.435818 190.563686 
L 252.65913 200.696575 
L 252.882441 187.79323 
L 253.105753 199.636838 
L 253.329065 192.051022 
L 253.552376 179.637174 
L 253.775688 193.470286 
L 253.998999 189.491278 
L 254.222311 205.592678 
L 254.668934 198.855886 
L 254.892246 210.699494 
L 255.115558 195.738574 
L 255.562181 196.308814 
L 255.785493 190.978614 
L 256.008804 191.84031 
L 256.232116 194.88955 
L 256.455428 216.94679 
L 256.678739 223.751654 
L 256.902051 214.455118 
L 257.125363 224.879462 
L 257.348674 209.639758 
L 257.571986 223.683583 
L 257.795298 219.215078 
L 258.018609 218.074598 
L 258.241921 211.908046 
L 258.465233 214.678502 
L 258.688544 211.839974 
L 258.911856 211.548518 
L 259.135168 208.70999 
L 259.358479 227.079679 
L 259.581791 227.452677 
L 260.251726 220.356357 
L 260.475038 213.260037 
L 260.698349 220.288285 
L 260.921661 221.707549 
L 261.144972 226.176053 
L 261.368284 212.132229 
L 261.591596 213.260037 
L 261.814907 214.970757 
L 262.038219 209.572485 
L 262.261531 220.567069 
L 262.484842 224.824861 
L 262.931466 229.361437 
L 263.154777 228.152885 
L 263.378089 212.064157 
L 263.824712 208.655389 
L 264.048024 210.074653 
L 264.271336 213.470749 
L 264.494647 206.455173 
L 264.717959 212.064157 
L 264.941271 203.895429 
L 265.164582 211.772701 
L 265.387894 196.811781 
L 265.611206 199.861021 
L 265.834517 206.876597 
L 266.057829 194.754205 
L 266.281141 196.452253 
L 266.727764 187.657885 
L 266.951076 185.389597 
L 267.397699 174.048157 
L 267.621011 189.579317 
L 267.844322 171.277701 
L 268.067634 180.574237 
L 268.290945 164.099839 
L 268.514257 162.680575 
L 268.737569 169.009413 
L 269.184192 161.552767 
L 269.407504 165.810559 
L 269.630815 160.133503 
L 269.854127 140.623334 
L 270.077439 153.037183 
L 270.30075 153.328639 
L 270.747374 145.953535 
L 270.970685 159.074565 
L 271.193997 159.923589 
L 271.417309 165.600645 
L 271.64062 162.762117 
L 271.863932 166.449669 
L 272.087244 164.751621 
L 272.310555 174.686469 
L 272.533867 175.244037 
L 272.98049 158.993023 
L 273.203802 166.380799 
L 273.650425 155.026687 
L 273.873737 157.294975 
L 274.543672 174.604927 
L 274.766983 165.029606 
L 274.990295 180.560767 
L 275.213607 168.995942 
L 275.436918 166.44887 
L 275.66023 178.001023 
L 275.883542 180.269311 
L 276.330165 167.006438 
L 276.776788 189.436677 
L 277.0001 174.883711 
L 277.223412 184.038405 
L 277.670035 173.267205 
L 277.893347 182.272285 
L 278.116658 174.116229 
L 278.33997 196.105397 
L 278.563282 185.110813 
L 278.786593 188.798365 
L 279.009905 195.324445 
L 279.233217 198.162973 
L 279.456528 196.173469 
L 279.67984 199.290781 
L 279.903152 206.095645 
L 280.126463 191.413509 
L 280.349775 200.710045 
L 280.573087 200.139805 
L 280.796398 202.129309 
L 281.01971 197.871517 
L 281.243022 197.592733 
L 281.466333 202.129309 
L 281.689645 187.725957 
L 281.912956 199.011997 
L 282.136268 187.725957 
L 282.806203 184.038405 
L 283.029515 192.485917 
L 283.252826 195.032989 
L 283.476138 226.522909 
L 283.69945 210.991749 
L 283.922761 214.679301 
L 284.146073 223.405597 
L 284.369385 240.287949 
L 284.592696 243.696717 
L 284.816008 252.131558 
L 285.03932 268.232958 
L 285.485943 253.829606 
L 285.709255 254.970086 
L 285.932566 253.550822 
L 286.155878 255.540326 
L 286.37919 246.454502 
L 286.602501 273.761198 
L 287.049125 266.175382 
L 287.495748 250.142054 
L 287.71906 248.165222 
L 287.942371 270.433174 
L 288.165683 251.77203 
L 288.388994 246.677886 
L 288.612306 247.52691 
L 288.835618 242.977662 
L 289.058929 242.128638 
L 289.282241 244.118142 
L 289.505553 223.827021 
L 289.728864 228.084813 
L 290.175488 242.977662 
L 290.398799 233.123558 
L 290.622111 230.923341 
L 290.845423 230.353101 
L 291.068734 234.332109 
L 291.292046 231.772365 
L 291.515358 226.107981 
L 291.738669 226.957005 
L 291.961981 236.81111 
L 292.185293 215.392181 
L 292.408604 224.89943 
L 292.631916 199.792949 
L 292.855228 209.368269 
L 293.078539 205.110477 
L 293.301851 217.80311 
L 293.525163 209.368269 
L 293.748474 193.266869 
L 293.971786 200.920757 
L 294.195098 194.754205 
L 294.418409 197.022493 
L 294.641721 192.764701 
L 294.865033 198.943925 
L 295.088344 186.530077 
L 295.311656 198.943925 
L 295.534967 196.954421 
L 295.981591 189.511245 
L 296.204902 196.037325 
L 296.428214 184.751285 
L 296.651526 195.745869 
L 296.874837 188.730293 
L 297.098149 200.852685 
L 297.321461 201.993165 
L 297.768084 218.162637 
L 297.991396 224.050406 
L 298.438019 215.602893 
L 298.661331 225.178214 
L 298.884642 226.027238 
L 299.107954 221.279949 
L 299.331266 219.011661 
L 299.554577 219.581901 
L 299.777889 211.636557 
L 300.001201 211.636557 
L 300.447824 199.154637 
L 300.894447 217.735038 
L 301.117759 210.149222 
L 301.341071 207.589478 
L 301.564382 213.198462 
L 302.011006 204.193382 
L 302.234317 204.112638 
L 302.457629 204.404094 
L 302.68094 214.258198 
L 302.904252 210.862102 
L 303.350875 215.03915 
L 303.574187 227.731782 
L 303.797499 228.302022 
L 304.02081 226.603974 
L 304.467434 220.145966 
L 304.914057 211.98991 
L 305.137369 220.716206 
L 305.36068 217.307438 
L 305.583992 216.458414 
L 305.807304 210.22379 
L 306.253927 203.976494 
L 306.477239 207.664046 
L 306.70055 213.27303 
L 306.923862 223.405918 
L 307.147174 207.31719 
L 307.370485 207.31719 
L 307.593797 203.338182 
L 307.817109 190.64555 
L 308.487044 211.283526 
L 308.710355 211.004742 
L 308.933667 213.27303 
L 309.38029 235.819766 
L 309.603602 255.81943 
L 309.826913 254.970406 
L 310.050225 264.545727 
L 310.273537 242.848014 
L 310.496848 251.43167 
L 310.72016 245.754614 
L 310.943472 258.447246 
L 311.166783 256.749198 
L 311.390095 237.877342 
L 311.613407 240.994654 
L 311.836718 216.669126 
L 312.06003 224.825182 
L 312.283342 214.122054 
L 312.506653 212.424006 
L 312.729965 205.60647 
L 312.953277 202.489158 
L 313.176588 206.455494 
L 313.3999 202.767942 
L 313.623212 202.210374 
L 313.846523 202.210374 
L 314.293147 186.02823 
L 314.516458 190.577478 
L 314.73977 180.07239 
L 314.963082 183.759942 
L 315.186393 180.363846 
L 315.409705 184.621638 
L 315.633017 175.895342 
L 315.856328 178.095558 
L 316.07964 171.569478 
L 316.302951 184.26211 
L 316.972886 168.16071 
L 317.196198 174.11655 
L 317.41951 176.955078 
L 317.642821 156.317102 
L 317.866133 170.150214 
L 318.089445 172.697286 
L 318.312756 158.306606 
L 318.536068 169.858758 
L 318.75938 168.799022 
L 318.982691 159.502486 
L 319.206003 166.530734 
L 319.429315 155.257366 
L 319.652626 158.944918 
L 319.875938 154.619054 
L 320.09925 156.24903 
L 320.322561 148.873926 
L 320.545873 136.168622 
L 320.769185 142.918086 
L 320.992496 125.676206 
L 321.43912 131.632046 
L 321.662431 132.48107 
L 321.885743 141.777606 
L 322.109055 138.449582 
L 322.778989 115.462574 
L 323.002301 127.306182 
L 323.225613 130.993734 
L 323.448924 116.603054 
L 323.672236 126.457158 
L 323.895548 118.579886 
L 324.118859 119.150126 
L 324.342171 116.881838 
L 324.788794 100.99115 
L 325.012106 106.029894 
L 325.235418 107.740614 
L 325.458729 103.191366 
L 325.682041 86.464326 
L 326.128664 111.068638 
L 326.351976 90.709446 
L 326.798599 96.956742 
L 327.021911 86.464326 
L 327.245223 92.977734 
L 327.468534 94.967238 
L 327.915158 102.063558 
L 328.138469 109.079134 
L 328.361781 87.951662 
L 328.585093 100.644294 
L 328.808404 103.482822 
L 329.031716 108.019398 
L 329.255028 103.191366 
L 329.478339 100.923078 
L 329.701651 101.772102 
L 329.924962 97.526982 
L 330.148274 89.370926 
L 330.371586 93.83943 
L 330.594897 172.350751 
L 330.818209 174.048799 
L 331.041521 171.780511 
L 331.264832 177.246855 
L 331.488144 175.548807 
L 331.934767 184.832671 
L 332.158079 174.408327 
L 332.381391 171.861255 
L 332.604702 173.838087 
L 332.828014 162.285935 
L 333.051326 172.710279 
L 333.274637 170.441991 
L 333.497949 196.676279 
L 333.944572 178.306591 
L 334.167884 187.881911 
L 334.391196 177.736351 
L 335.061131 185.681695 
L 335.284442 187.949983 
L 335.507754 188.241439 
L 335.731066 187.949983 
L 335.954377 184.832671 
L 336.401001 156.317423 
L 336.847624 161.356167 
L 337.070935 164.473479 
L 337.294247 154.049135 
L 337.517559 169.022727 
L 337.74087 160.004975 
L 337.964182 163.134959 
L 338.187494 170.150535 
L 338.634117 176.955399 
L 338.857429 174.408327 
L 339.08074 173.838087 
L 339.304052 160.866671 
L 339.527364 168.452487 
L 339.750675 167.312007 
L 339.973987 157.736687 
L 340.197299 170.441991 
L 340.643922 176.038303 
L 340.867234 164.194695 
L 341.090545 162.205191 
L 341.313857 183.134623 
L 341.76048 165.682031 
L 341.983792 173.627375 
L 342.207104 172.486895 
L 342.430415 169.939823 
L 342.653727 171.929327 
L 342.877039 182.353671 
L 343.10035 172.486895 
L 343.323662 170.218607 
L 343.770285 177.525639 
L 343.993597 186.530719 
L 344.216908 186.530719 
L 344.44022 194.699447 
L 344.663532 191.860919 
L 344.886843 185.043383 
L 345.110155 197.457231 
L 345.333467 179.725855 
L 345.556778 178.876831 
L 345.78009 182.564383 
L 346.003402 190.441655 
L 346.226713 179.725855 
L 346.450025 189.871415 
L 346.896648 183.983647 
L 347.11996 190.441655 
L 347.343272 184.764599 
L 347.566583 182.775095 
L 347.789895 197.748687 
L 348.236518 208.173031 
L 348.45983 208.173031 
L 348.683142 225.055384 
L 348.906453 228.45148 
L 349.129765 208.173031 
L 349.576388 212.709607 
L 349.7997 205.972815 
L 350.023012 185.124127 
L 350.246323 185.124127 
L 350.469635 185.402911 
L 350.692946 187.392415 
L 350.916258 182.062215 
L 351.13957 203.202359 
L 351.809505 173.057135 
L 352.256128 170.218607 
L 352.47944 157.525975 
L 352.702751 159.224023 
L 352.926063 159.224023 
L 353.149375 151.067967 
L 353.372686 148.229439 
L 353.595998 155.827927 
L 353.81931 149.369919 
L 354.042621 159.224023 
L 354.265933 154.755519 
L 354.489245 141.492646 
L 354.712556 155.046975 
L 354.935868 149.648703 
L 355.15918 149.940159 
L 355.382491 142.633126 
L 355.605803 140.643622 
L 355.829115 149.648703 
L 356.052426 151.067967 
L 356.275738 146.531391 
L 356.49905 146.252607 
L 356.722361 142.843839 
L 356.945673 143.984319 
L 357.168984 147.671871 
L 357.392296 137.52631 
L 357.615608 145.471654 
L 357.838919 145.471654 
L 358.062231 135.896334 
L 358.285543 137.024142 
L 358.508854 138.734862 
L 358.732166 132.344926 
L 358.955478 133.76419 
L 359.178789 122.769606 
L 359.402101 121.071558 
L 359.848724 130.436166 
L 360.072036 142.558558 
L 360.518659 127.597638 
L 360.741971 129.016902 
L 360.965283 139.441246 
L 361.188594 137.730526 
L 361.411906 138.021982 
L 361.635218 131.563974 
L 361.858529 132.704454 
L 362.081841 120.56939 
L 362.305153 140.86051 
L 362.528464 147.027062 
L 362.751776 130.436166 
L 362.975088 134.613214 
L 363.198399 136.602718 
L 363.421711 137.172958 
L 363.645023 127.027398 
L 363.868334 121.988654 
L 364.091646 130.436166 
L 364.314957 129.084974 
L 364.761581 138.728366 
L 364.984892 125.465494 
L 365.431516 143.76711 
L 365.654827 138.939078 
L 365.878139 130.783022 
L 366.101451 132.48107 
L 366.324762 120.079894 
L 366.548074 118.09039 
L 366.771386 118.09039 
L 366.994697 116.671126 
L 367.218009 128.514734 
L 367.441321 126.246446 
L 367.664632 121.988654 
L 367.887944 121.418414 
L 368.111256 110.99407 
L 368.334567 118.301102 
L 368.557879 109.574806 
L 368.781191 106.736278 
L 369.004502 119.99915 
L 369.227814 119.99915 
L 369.451126 105.819182 
L 369.674437 100.99115 
L 369.897749 110.287686 
L 370.121061 111.428166 
L 370.344372 102.13163 
L 370.567684 120.14179 
L 370.790995 123.271774 
L 371.014307 121.561054 
L 371.237619 132.276854 
L 371.46093 122.131294 
L 371.684242 132.276854 
L 371.907554 130.925662 
L 372.130865 141.920246 
L 372.354177 147.305846 
L 372.577489 136.323934 
L 372.8008 134.613214 
L 373.024112 134.90467 
L 373.247424 136.602718 
L 373.470735 143.699038 
L 373.694047 141.418078 
L 373.917359 156.96191 
L 374.14067 154.972406 
L 374.363982 160.079222 
L 374.587294 143.407582 
L 374.810605 143.699038 
L 375.033917 131.842758 
L 375.257229 142.279774 
L 375.48054 145.67587 
L 375.703852 133.262022 
L 375.927164 134.123718 
L 376.150475 147.665374 
L 376.373787 143.699038 
L 376.597099 133.832262 
L 376.82041 113.832598 
L 377.043722 123.407918 
L 377.490345 105.397758 
L 377.713657 123.339846 
L 377.936968 126.457158 
L 378.16028 106.668206 
L 378.383592 115.964742 
L 378.606903 115.964742 
L 378.830215 114.545478 
L 379.053527 116.813766 
L 379.276838 115.605214 
L 379.50015 119.292766 
L 379.723462 119.292766 
L 379.946773 111.638878 
L 380.170085 116.175454 
L 380.393397 113.336926 
L 380.616708 106.600134 
L 380.84002 117.024478 
L 381.063332 104.902086 
L 381.286643 120.922742 
L 381.733267 112.209118 
L 381.956578 111.347422 
L 382.17989 108.23011 
L 382.403202 100.074054 
L 382.626513 103.482822 
L 382.849825 102.342342 
L 383.073137 104.61063 
L 383.296448 95.60555 
L 383.51976 108.80035 
L 383.743072 110.219614 
L 383.966383 110.219614 
L 384.189695 113.058142 
L 384.413007 112.766686 
L 384.636318 118.722526 
L 384.85963 107.449158 
L 385.082941 120.71203 
L 385.306253 109.717446 
L 385.529565 107.740614 
L 385.752876 115.605214 
L 385.976188 114.18595 
L 386.1995 109.649374 
L 386.422811 111.917662 
L 386.646123 103.761606 
L 386.869435 109.928158 
L 387.092746 100.923078 
L 387.316058 108.298182 
L 387.53937 100.433582 
L 387.762681 113.975238 
L 387.985993 110.287686 
L 388.209305 117.09255 
L 388.655928 115.115718 
L 388.87924 111.13671 
L 389.102551 122.701534 
L 389.325863 121.561054 
L 389.549175 110.857926 
L 389.772486 120.14179 
L 389.995798 113.126214 
L 390.21911 134.266358 
L 390.442421 118.443742 
L 390.665733 114.75619 
L 390.889045 104.902086 
L 391.335668 114.254022 
L 391.558979 124.120798 
L 391.782291 119.931078 
L 392.005603 117.954246 
L 392.228914 119.931078 
L 392.675538 117.384006 
L 392.898849 135.394166 
L 393.122161 126.959326 
L 393.345473 125.818846 
L 393.568784 133.125878 
L 394.015408 129.159542 
L 394.238719 130.85759 
L 394.462031 122.701534 
L 394.685343 124.120798 
L 394.908654 123.550558 
L 395.131966 120.14179 
L 395.355278 129.438326 
L 395.578589 118.722526 
L 395.801901 125.47199 
L 396.025213 128.800014 
L 396.248524 126.252942 
L 396.471836 133.559974 
L 396.695148 127.672206 
L 396.918459 137.52631 
L 397.141771 124.833678 
L 397.365083 132.989734 
L 397.588394 125.893414 
L 397.811706 138.307263 
L 398.035018 130.151206 
L 398.258329 139.726527 
L 398.481641 127.882918 
L 398.704952 127.312678 
L 398.928264 124.542222 
L 399.151576 145.961151 
L 399.374887 143.414079 
L 399.598199 144.541887 
L 399.821511 129.010726 
L 400.044822 148.520895 
L 400.268134 140.643622 
L 400.491446 140.073382 
L 400.938069 129.649038 
L 401.161381 127.38075 
L 401.384692 134.687782 
L 401.831316 122.56539 
L 402.277939 144.263103 
L 402.501251 134.117542 
L 402.724562 153.559639 
L 403.171186 130.151206 
L 403.394497 129.302182 
L 403.617809 129.302182 
L 403.841121 132.989734 
L 404.511056 163.549887 
L 404.957679 159.943078 
L 405.18099 156.255526 
L 405.404302 168.099135 
L 405.850925 147.808014 
L 406.074237 142.130958 
L 406.297549 141.281934 
L 406.52086 150.287014 
L 406.744172 142.979982 
L 406.967484 151.427494 
L 407.190795 143.271438 
L 407.414107 143.550222 
L 407.637419 155.115046 
L 408.084042 142.422414 
L 408.530665 160.724031 
L 408.753977 160.724031 
L 408.977289 147.169702 
L 409.2006 155.325759 
L 409.423912 155.895999 
L 409.647224 155.617215 
L 409.870535 145.750438 
L 410.093847 157.594047 
L 410.317159 158.164287 
L 410.763782 173.695447 
L 410.987094 173.125207 
L 411.210405 175.684951 
L 411.433717 159.013311 
L 411.657029 152.555302 
L 411.88034 162.130623 
L 412.103652 144.690702 
L 412.326963 160.792102 
L 412.550275 152.91483 
L 412.996898 168.167206 
L 413.22021 167.026726 
L 413.666833 181.430079 
L 413.890145 167.87575 
L 414.113457 183.977151 
L 414.336768 180.649126 
L 414.56008 184.547391 
L 414.783392 182.000319 
L 415.006703 185.117631 
L 415.453327 158.591886 
L 415.676638 167.026726 
L 415.89995 164.479654 
L 416.569885 176.031807 
L 416.793197 166.177702 
L 417.016508 169.865254 
L 417.23982 179.719359 
L 417.463132 169.865254 
L 417.686443 182.849343 
L 417.909755 182.279103 
L 418.133067 189.864919 
L 418.356378 188.737111 
L 418.57969 198.869999 
L 418.803002 188.166871 
L 419.026313 192.914159 
L 419.472936 169.226943 
L 419.696248 179.372503 
L 419.91956 169.226943 
L 420.142871 169.518399 
L 420.366183 179.942743 
L 420.589495 171.495231 
L 420.812806 176.893503 
L 421.036118 166.456486 
L 421.25943 172.065471 
L 421.482741 184.758103 
L 421.706053 166.747942 
L 421.929365 167.318182 
L 422.152676 176.893503 
L 422.375988 168.44599 
L 422.5993 168.167206 
L 422.822611 182.000319 
L 423.045923 171.854758 
L 423.269235 189.015895 
L 423.492546 179.719359 
L 423.715858 189.015895 
L 423.93917 186.177367 
L 424.162481 185.898583 
L 424.385793 218.244023 
L 424.609105 219.024975 
L 424.832416 206.611127 
L 425.055728 206.319671 
L 425.27904 205.762103 
L 425.725663 189.660703 
L 425.948974 212.498895 
L 426.172286 207.392079 
L 426.395598 212.498895 
L 426.842221 192.207775 
L 427.065533 197.457231 
L 427.288844 187.311671 
L 427.512156 199.167951 
L 427.735468 189.301175 
L 427.958779 198.529639 
L 428.182091 194.061135 
L 428.405403 181.926071 
L 428.628714 193.769679 
L 428.852026 182.217527 
L 429.075338 182.496311 
L 429.298649 180.866335 
L 429.521961 187.603127 
L 429.968584 171.861255 
L 430.415208 187.881911 
L 430.638519 184.764599 
L 430.861831 187.032887 
L 431.085143 182.775095 
L 431.531766 154.762015 
L 431.755078 156.460063 
L 431.978389 155.611039 
L 432.201701 166.326839 
L 432.425013 160.370999 
L 432.648324 162.347831 
L 432.871636 161.790263 
L 433.094947 156.962231 
L 433.318259 161.709519 
L 433.541571 152.704439 
L 433.764882 152.704439 
L 433.988194 158.660279 
L 434.211506 158.951735 
L 434.434817 156.962231 
L 434.658129 160.079543 
L 434.881441 158.381495 
L 435.104752 145.397407 
L 435.328064 141.152287 
L 435.551376 134.334751 
L 435.774687 124.121119 
L 435.997999 142.490807 
L 436.221311 140.513975 
L 436.444622 137.383991 
L 436.667934 139.373495 
L 436.891246 137.954231 
L 437.114557 129.227935 
L 437.337869 115.116039 
L 437.784492 108.881415 
L 438.007804 93.269511 
L 438.231116 96.678279 
L 438.454427 89.371247 
L 438.677739 96.176111 
L 438.901051 97.886831 
L 439.124362 102.063879 
L 439.347674 98.667783 
L 439.570985 98.097543 
L 439.794297 100.644615 
L 440.017609 107.102623 
L 440.24092 91.850247 
L 440.464232 88.732935 
L 440.687544 82.777095 
L 440.910855 90.084127 
L 441.134167 83.347335 
L 441.357479 81.636615 
L 441.804102 90.152199 
L 442.027414 91.850247 
L 442.250725 94.688775 
L 442.474037 94.409991 
L 442.697349 109.662367 
L 442.92066 93.839751 
L 443.367284 101.493639 
L 443.590595 99.516807 
L 443.813907 110.790175 
L 444.037219 103.204359 
L 444.26053 107.672863 
L 444.483842 99.516807 
L 444.930465 93.629039 
L 445.153777 98.946567 
L 445.377089 98.376327 
L 445.6004 98.735855 
L 445.823712 107.740935 
L 446.047024 108.589959 
L 446.270335 98.667783 
L 446.493647 102.912903 
L 446.716958 99.516807 
L 446.94027 99.795591 
L 447.163582 94.478063 
L 447.386893 94.756847 
L 447.610205 96.467567 
L 447.833517 109.160199 
L 448.056828 99.584879 
L 448.28014 95.116375 
L 448.503452 105.261935 
L 449.173387 82.702527 
L 449.396698 94.267351 
L 449.62001 90.009559 
L 450.066633 92.277847 
L 450.289945 90.288343 
L 450.513257 95.395159 
L 450.736568 96.244183 
L 450.95988 95.116375 
L 451.183192 96.814423 
L 451.406503 77.527639 
L 451.629815 78.376663 
L 451.853127 92.488559 
L 452.076438 94.478063 
L 452.29975 80.936407 
L 452.523062 97.886831 
L 452.746373 76.176447 
L 452.969685 73.337919 
L 453.192996 77.316927 
L 453.416308 76.746687 
L 453.63962 88.311511 
L 453.862931 77.595711 
L 454.309555 96.814423 
L 454.532866 95.116375 
L 454.756178 96.535639 
L 454.97949 88.379583 
L 455.202801 105.261935 
L 455.426113 91.999063 
L 455.649425 88.311511 
L 455.872736 92.556631 
L 456.096048 88.311511 
L 456.31936 88.311511 
L 456.542671 108.881415 
L 456.765983 108.589959 
L 456.989295 98.165615 
L 457.212606 106.321671 
L 457.435918 103.483143 
L 457.65923 104.623623 
L 457.882541 95.048303 
L 458.105853 101.785095 
L 458.329165 101.785095 
L 458.552476 103.204359 
L 458.775788 102.634119 
L 459.222411 87.171031 
L 459.445723 95.605871 
L 459.669035 87.449815 
L 460.115658 81.493975 
L 460.338969 89.371247 
L 460.562281 82.634455 
L 460.785593 88.311511 
L 461.008904 88.869079 
L 461.232216 103.272431 
L 461.455528 105.540719 
L 461.678839 109.228271 
L 461.902151 110.926319 
L 462.125463 123.061383 
L 462.348774 112.066799 
L 462.572086 113.764847 
L 462.795398 124.269935 
L 463.018709 109.866583 
L 463.242021 125.118959 
L 463.688644 90.356415 
L 463.911956 88.949823 
L 464.135268 92.916159 
L 464.358579 91.775679 
L 464.581891 113.832919 
L 464.805203 114.124375 
L 465.251826 97.452735 
L 465.475138 96.603711 
L 465.698449 94.905663 
L 465.921761 97.173951 
L 466.145073 80.50231 
L 466.368384 77.093542 
L 466.591696 80.50231 
L 466.815008 81.921574 
L 467.038319 79.083046 
L 467.261631 64.122126 
L 467.484942 66.960654 
L 467.708254 77.384998 
L 467.931566 77.955238 
L 468.154877 81.07255 
L 468.378189 87.239103 
L 468.601501 79.653286 
L 468.824812 86.111295 
L 469.048124 86.960319 
L 469.271436 88.379583 
L 469.718059 83.843007 
L 469.941371 74.267686 
L 470.164682 84.692031 
L 470.387994 86.960319 
L 470.611306 73.40599 
L 470.834617 70.580134 
L 471.057929 70.580134 
L 471.281241 81.004479 
L 471.504552 77.874495 
L 471.727864 140.792759 
L 471.951176 126.680863 
L 472.174487 134.545463 
L 472.397799 135.685943 
L 472.621111 124.691359 
L 472.844422 144.982479 
L 473.067734 143.563215 
L 473.291046 135.407159 
L 473.514357 136.256183 
L 473.737669 134.545463 
L 473.96098 133.696439 
L 474.184292 144.691023 
L 474.407604 143.271759 
L 474.630915 134.266679 
L 474.854227 141.852495 
L 475.077539 130.008887 
L 475.30085 157.315584 
L 475.747474 137.247847 
L 475.970785 137.247847 
L 476.194097 135.549799 
L 476.417409 135.549799 
L 476.64072 139.237351 
L 476.864032 126.532047 
L 477.087344 134.409319 
L 477.310655 137.526631 
L 477.533967 149.94048 
L 477.757279 141.214183 
L 477.98059 140.935399 
L 478.203902 143.773927 
L 478.427214 154.198272 
L 478.650525 152.208768 
L 478.873837 145.974144 
L 479.097149 150.51072 
L 479.32046 152.710936 
L 479.543772 153.55996 
L 479.990395 136.330752 
L 480.213707 127.604455 
L 480.437019 136.88832 
L 480.66033 130.151527 
L 480.883642 118.878159 
L 481.106953 131.292007 
L 481.330265 121.425231 
L 481.553577 131.862247 
L 481.776888 121.146447 
L 482.0002 130.442983 
L 482.223512 145.403904 
L 482.446823 145.682688 
L 482.670135 137.247847 
L 482.893447 143.98464 
L 483.116758 147.101952 
L 483.34007 136.107367 
L 483.563382 132.990055 
L 483.786693 118.307919 
L 484.010005 125.044711 
L 484.233317 112.922319 
L 484.456628 120.786919 
L 484.67994 105.825999 
L 484.903252 108.943311 
L 485.126563 102.138447 
L 485.573187 101.432064 
L 485.796498 88.516047 
L 486.01981 93.554791 
L 486.243122 112.773504 
L 486.466433 104.617447 
L 486.689745 106.606951 
L 486.913057 101.010639 
L 487.136368 98.953063 
L 487.35968 100.719183 
L 487.582991 101.221351 
L 487.806303 103.489639 
L 488.029615 119.869824 
L 488.252926 107.455975 
L 488.476238 114.192768 
L 488.69955 111.143527 
L 488.922861 110.585959 
L 489.146173 122.708352 
L 489.369485 115.971559 
L 489.592796 120.440064 
L 489.816108 107.245263 
L 490.03942 107.524047 
L 490.486043 125.268096 
L 490.709355 125.54688 
L 490.932666 121.567872 
L 491.37929 129.513216 
L 491.602601 128.664192 
L 491.825913 140.439728 
L 492.049225 118.171776 
L 492.272536 117.322752 
L 492.495848 130.585624 
L 492.942471 122.708352 
L 493.165783 111.713767 
L 493.389095 122.708352 
L 493.612406 126.674688 
L 493.835718 108.026215 
L 494.05903 112.854247 
L 494.282341 121.289088 
L 494.505653 121.648615 
L 494.728964 137.45856 
L 494.952276 132.141031 
L 495.175588 130.721767 
L 495.622211 136.969063 
L 495.845523 130.151527 
L 496.068834 130.721767 
L 496.292146 142.565376 
L 496.515458 146.544384 
L 496.738769 126.463975 
L 496.962081 153.55996 
L 497.185393 138.307584 
L 497.632016 131.292007 
L 497.855328 135.760512 
L 498.078639 136.330752 
L 498.301951 139.726848 
L 498.525263 152.642864 
L 498.748574 154.340912 
L 498.971886 152.642864 
L 499.195198 172.363744 
L 499.418509 159.949896 
L 499.641821 173.770336 
L 499.865133 162.788424 
L 500.088444 165.61428 
L 500.311756 157.458224 
L 500.535068 167.033544 
L 500.758379 167.325 
L 500.981691 176.608864 
L 501.205003 167.325 
L 501.428314 166.18452 
L 501.651626 160.507464 
L 501.874937 160.22868 
L 502.098249 192.920976 
L 502.321561 169.525216 
L 502.768184 187.256592 
L 502.991496 169.525216 
L 503.214807 174.842744 
L 503.438119 159.949896 
L 503.661431 160.79892 
L 503.884742 159.65844 
L 504.108054 165.837664 
L 504.331366 180.228344 
L 504.554677 159.949896 
L 504.777989 170.653024 
L 505.224612 164.975968 
L 505.447924 168.105952 
L 505.671236 175.412984 
L 506.117859 173.99372 
L 506.341171 174.272504 
L 506.564482 161.579872 
L 506.787794 172.574456 
L 507.011106 164.975968 
L 507.234417 146.60628 
L 507.457729 162.428896 
L 507.681041 155.121864 
L 507.904352 154.551624 
L 508.127664 156.541128 
L 508.797599 187.256592 
L 509.02091 186.965136 
L 509.244222 194.842408 
L 509.467534 185.545872 
L 510.137469 181.85832 
L 510.36078 182.149776 
L 510.584092 183.847824 
L 511.030715 201.00896 
L 511.254027 199.589696 
L 511.477339 184.126608 
L 511.70065 193.701928 
L 511.923962 212.573785 
L 512.147274 212.852569 
L 512.370585 203.277248 
L 512.593897 202.998464 
L 512.817209 202.998464 
L 513.04052 185.545872 
L 513.263832 183.847824 
L 513.487144 183.56904 
L 513.710455 182.42856 
L 514.157079 183.847824 
L 514.38039 182.149776 
L 514.603702 182.149776 
L 514.827014 181.85832 
L 515.050325 201.00896 
L 515.273637 191.154856 
L 515.496948 192.57412 
L 515.72026 211.445977 
L 515.943572 213.422809 
L 516.166883 214.271833 
L 516.390195 203.568704 
L 516.613507 182.9988 
L 516.836818 173.99372 
L 517.06013 182.42856 
L 517.283442 182.720016 
L 517.506753 182.720016 
L 517.730065 202.14944 
L 517.953377 192.57412 
L 518.176688 211.445977 
L 518.4 192.57412 
L 518.4 192.57412 
" style="fill:none;stroke:#4c72b0;stroke-linecap:round;stroke-width:1.75;"/>
   </g>
   <g id="patch_3">
    <path d="M 72 356.4 
L 518.4 356.4 
" style="fill:none;"/>
   </g>
   <g id="patch_4">
    <path d="M 72 39.6 
L 518.4 39.6 
" style="fill:none;"/>
   </g>
   <g id="patch_5">
    <path d="M 72 356.4 
L 72 39.6 
" style="fill:none;"/>
   </g>
   <g id="patch_6">
    <path d="M 518.4 356.4 
L 518.4 39.6 
" style="fill:none;"/>
   </g>
   <g id="text_12">
    <!-- IF - 11.806690092153605 * i -->
    <defs>
     <path d="M 9.125 0 
L 9.125 10.6875 
L 18.65625 10.6875 
L 18.65625 0 
z
" id="LiberationSans-2e"/>
     <path d="M 9.234375 0 
L 9.234375 68.796875 
L 18.5625 68.796875 
L 18.5625 0 
z
" id="LiberationSans-49"/>
     <path d="M 17.53125 61.1875 
L 17.53125 35.59375 
L 55.90625 35.59375 
L 55.90625 27.875 
L 17.53125 27.875 
L 17.53125 0 
L 8.203125 0 
L 8.203125 68.796875 
L 57.078125 68.796875 
L 57.078125 61.1875 
z
" id="LiberationSans-46"/>
     <path d="M 22.265625 54.390625 
L 35.15625 59.421875 
L 37.359375 52.984375 
L 23.578125 49.421875 
L 32.625 37.203125 
L 26.8125 33.6875 
L 19.484375 46.296875 
L 11.859375 33.796875 
L 6.0625 37.3125 
L 15.28125 49.421875 
L 1.609375 52.984375 
L 3.8125 59.515625 
L 16.84375 54.296875 
L 16.265625 68.796875 
L 22.90625 68.796875 
z
" id="LiberationSans-2a"/>
    </defs>
    <g style="fill:#262626;" transform="translate(219.14625 34.6)scale(0.12 -0.12)">
     <use xlink:href="#LiberationSans-49"/>
     <use x="27.783203125" xlink:href="#LiberationSans-46"/>
     <use x="88.8671875" xlink:href="#LiberationSans-20"/>
     <use x="116.650390625" xlink:href="#LiberationSans-2d"/>
     <use x="149.951171875" xlink:href="#LiberationSans-20"/>
     <use x="177.734375" xlink:href="#LiberationSans-31"/>
     <use x="233.349609375" xlink:href="#LiberationSans-31"/>
     <use x="288.96484375" xlink:href="#LiberationSans-2e"/>
     <use x="316.748046875" xlink:href="#LiberationSans-38"/>
     <use x="372.36328125" xlink:href="#LiberationSans-30"/>
     <use x="427.978515625" xlink:href="#LiberationSans-36"/>
     <use x="483.59375" xlink:href="#LiberationSans-36"/>
     <use x="539.208984375" xlink:href="#LiberationSans-39"/>
     <use x="594.82421875" xlink:href="#LiberationSans-30"/>
     <use x="650.439453125" xlink:href="#LiberationSans-30"/>
     <use x="706.0546875" xlink:href="#LiberationSans-39"/>
     <use x="761.669921875" xlink:href="#LiberationSans-32"/>
     <use x="817.28515625" xlink:href="#LiberationSans-31"/>
     <use x="872.900390625" xlink:href="#LiberationSans-35"/>
     <use x="928.515625" xlink:href="#LiberationSans-33"/>
     <use x="984.130859375" xlink:href="#LiberationSans-36"/>
     <use x="1039.74609375" xlink:href="#LiberationSans-30"/>
     <use x="1095.361328125" xlink:href="#LiberationSans-35"/>
     <use x="1150.9765625" xlink:href="#LiberationSans-20"/>
     <use x="1178.759765625" xlink:href="#LiberationSans-2a"/>
     <use x="1217.67578125" xlink:href="#LiberationSans-20"/>
     <use x="1245.458984375" xlink:href="#LiberationSans-69"/>
    </g>
   </g>
  </g>
 </g>
 <defs>
  <clipPath id="p29f4598a11">
   <rect height="316.8" width="446.4" x="72.0" y="39.6"/>
  </clipPath>
 </defs>
</svg>
