<?xml version="1.0" encoding="utf-8" standalone="no"?>
<!DOCTYPE svg PUBLIC "-//W3C//DTD SVG 1.1//EN"
  "http://www.w3.org/Graphics/SVG/1.1/DTD/svg11.dtd">
<!-- Created with matplotlib (http://matplotlib.org/) -->
<svg height="396pt" version="1.1" viewBox="0 0 576 396" width="576pt" xmlns="http://www.w3.org/2000/svg" xmlns:xlink="http://www.w3.org/1999/xlink">
 <defs>
  <style type="text/css">
*{stroke-linecap:butt;stroke-linejoin:round;stroke-miterlimit:100000;}
  </style>
 </defs>
 <g id="figure_1">
  <g id="patch_1">
   <path d="M 0 396 
L 576 396 
L 576 0 
L 0 0 
z
" style="fill:#ffffff;"/>
  </g>
  <g id="axes_1">
   <g id="patch_2">
    <path d="M 72 356.4 
L 518.4 356.4 
L 518.4 39.6 
L 72 39.6 
z
" style="fill:#eaeaf2;"/>
   </g>
   <g id="matplotlib.axis_1">
    <g id="xtick_1">
     <g id="line2d_1">
      <path clip-path="url(#p0b3413bca6)" d="M 72 356.4 
L 72 39.6 
" style="fill:none;stroke:#ffffff;stroke-linecap:round;"/>
     </g>
     <g id="line2d_2"/>
     <g id="line2d_3"/>
     <g id="text_1">
      <!-- 2015-11-10 10:31:00 -->
      <defs>
       <path d="M 5.03125 0 
L 5.03125 6.203125 
Q 7.515625 11.921875 11.109375 16.28125 
Q 14.703125 20.65625 18.65625 24.1875 
Q 22.609375 27.734375 26.484375 30.765625 
Q 30.375 33.796875 33.5 36.8125 
Q 36.625 39.84375 38.546875 43.15625 
Q 40.484375 46.484375 40.484375 50.6875 
Q 40.484375 53.609375 39.59375 55.828125 
Q 38.71875 58.0625 37.0625 59.5625 
Q 35.40625 61.078125 33.078125 61.828125 
Q 30.765625 62.59375 27.9375 62.59375 
Q 25.296875 62.59375 22.96875 61.859375 
Q 20.65625 61.140625 18.84375 59.671875 
Q 17.046875 58.203125 15.890625 56.03125 
Q 14.75 53.859375 14.40625 50.984375 
L 5.421875 51.8125 
Q 5.859375 55.515625 7.46875 58.78125 
Q 9.078125 62.0625 11.90625 64.53125 
Q 14.75 67 18.71875 68.40625 
Q 22.703125 69.828125 27.9375 69.828125 
Q 33.0625 69.828125 37.0625 68.609375 
Q 41.0625 67.390625 43.8125 64.984375 
Q 46.578125 62.59375 48.046875 59.078125 
Q 49.515625 55.5625 49.515625 50.984375 
Q 49.515625 47.515625 48.265625 44.390625 
Q 47.015625 41.265625 44.9375 38.421875 
Q 42.875 35.59375 40.140625 32.953125 
Q 37.40625 30.328125 34.421875 27.8125 
Q 31.453125 25.296875 28.421875 22.828125 
Q 25.390625 20.359375 22.71875 17.859375 
Q 20.0625 15.375 17.96875 12.8125 
Q 15.875 10.25 14.703125 7.46875 
L 50.59375 7.46875 
L 50.59375 0 
z
" id="LiberationSans-32"/>
       <path d="M 7.625 0 
L 7.625 7.46875 
L 25.140625 7.46875 
L 25.140625 60.40625 
L 9.625 49.3125 
L 9.625 57.625 
L 25.875 68.796875 
L 33.984375 68.796875 
L 33.984375 7.46875 
L 50.734375 7.46875 
L 50.734375 0 
z
" id="LiberationSans-31"/>
       <path d="M 51.703125 34.421875 
Q 51.703125 24.515625 49.828125 17.75 
Q 47.953125 10.984375 44.703125 6.8125 
Q 41.453125 2.640625 37.0625 0.828125 
Q 32.671875 -0.984375 27.6875 -0.984375 
Q 22.65625 -0.984375 18.3125 0.828125 
Q 13.96875 2.640625 10.765625 6.78125 
Q 7.5625 10.9375 5.734375 17.703125 
Q 3.90625 24.46875 3.90625 34.421875 
Q 3.90625 44.828125 5.734375 51.640625 
Q 7.5625 58.453125 10.78125 62.5 
Q 14.015625 66.546875 18.40625 68.1875 
Q 22.796875 69.828125 27.984375 69.828125 
Q 32.90625 69.828125 37.21875 68.1875 
Q 41.546875 66.546875 44.765625 62.5 
Q 48 58.453125 49.84375 51.640625 
Q 51.703125 44.828125 51.703125 34.421875 
M 42.78125 34.421875 
Q 42.78125 42.625 41.796875 48.0625 
Q 40.828125 53.515625 38.921875 56.765625 
Q 37.015625 60.015625 34.25 61.359375 
Q 31.5 62.703125 27.984375 62.703125 
Q 24.265625 62.703125 21.4375 61.328125 
Q 18.609375 59.96875 16.671875 56.71875 
Q 14.75 53.46875 13.765625 48.015625 
Q 12.796875 42.578125 12.796875 34.421875 
Q 12.796875 26.515625 13.796875 21.09375 
Q 14.796875 15.671875 16.71875 12.375 
Q 18.65625 9.078125 21.4375 7.640625 
Q 24.21875 6.203125 27.78125 6.203125 
Q 31.25 6.203125 34.03125 7.640625 
Q 36.8125 9.078125 38.734375 12.375 
Q 40.671875 15.671875 41.71875 21.09375 
Q 42.78125 26.515625 42.78125 34.421875 
" id="LiberationSans-30"/>
       <path d="M 9.125 42.71875 
L 9.125 52.828125 
L 18.65625 52.828125 
L 18.65625 42.71875 
z
M 9.125 0 
L 9.125 10.109375 
L 18.65625 10.109375 
L 18.65625 0 
z
" id="LiberationSans-3a"/>
       <path d="M 51.21875 19 
Q 51.21875 14.265625 49.671875 10.546875 
Q 48.140625 6.84375 45.1875 4.265625 
Q 42.234375 1.703125 37.859375 0.359375 
Q 33.5 -0.984375 27.875 -0.984375 
Q 21.484375 -0.984375 17.109375 0.609375 
Q 12.75 2.203125 9.90625 4.8125 
Q 7.078125 7.421875 5.65625 10.765625 
Q 4.25 14.109375 3.8125 17.671875 
L 12.890625 18.5 
Q 13.28125 15.765625 14.328125 13.515625 
Q 15.375 11.28125 17.1875 9.671875 
Q 19 8.0625 21.625 7.171875 
Q 24.265625 6.296875 27.875 6.296875 
Q 34.515625 6.296875 38.296875 9.5625 
Q 42.09375 12.84375 42.09375 19.28125 
Q 42.09375 23.09375 40.40625 25.40625 
Q 38.71875 27.734375 36.203125 29.03125 
Q 33.6875 30.328125 30.734375 30.765625 
Q 27.78125 31.203125 25.296875 31.203125 
L 20.3125 31.203125 
L 20.3125 38.8125 
L 25.09375 38.8125 
Q 27.59375 38.8125 30.265625 39.328125 
Q 32.953125 39.84375 35.171875 41.1875 
Q 37.40625 42.53125 38.84375 44.828125 
Q 40.28125 47.125 40.28125 50.6875 
Q 40.28125 56.203125 37.03125 59.390625 
Q 33.796875 62.59375 27.390625 62.59375 
Q 21.578125 62.59375 17.984375 59.609375 
Q 14.40625 56.640625 13.8125 51.21875 
L 4.984375 51.90625 
Q 5.515625 56.453125 7.46875 59.8125 
Q 9.421875 63.1875 12.421875 65.40625 
Q 15.4375 67.625 19.28125 68.71875 
Q 23.140625 69.828125 27.484375 69.828125 
Q 33.25 69.828125 37.390625 68.375 
Q 41.546875 66.9375 44.1875 64.46875 
Q 46.828125 62.015625 48.0625 58.6875 
Q 49.3125 55.375 49.3125 51.609375 
Q 49.3125 48.578125 48.484375 45.9375 
Q 47.65625 43.3125 45.890625 41.203125 
Q 44.140625 39.109375 41.421875 37.59375 
Q 38.71875 36.078125 34.90625 35.296875 
L 34.90625 35.109375 
Q 39.0625 34.671875 42.140625 33.21875 
Q 45.21875 31.78125 47.21875 29.625 
Q 49.21875 27.484375 50.21875 24.75 
Q 51.21875 22.015625 51.21875 19 
" id="LiberationSans-33"/>
       <path d="M 51.421875 22.40625 
Q 51.421875 17.234375 49.859375 12.9375 
Q 48.296875 8.640625 45.21875 5.53125 
Q 42.140625 2.4375 37.578125 0.71875 
Q 33.015625 -0.984375 27 -0.984375 
Q 21.578125 -0.984375 17.546875 0.28125 
Q 13.53125 1.5625 10.734375 3.78125 
Q 7.953125 6 6.3125 8.984375 
Q 4.6875 11.96875 4 15.375 
L 12.890625 16.40625 
Q 13.421875 14.453125 14.390625 12.625 
Q 15.375 10.796875 17.0625 9.34375 
Q 18.75 7.90625 21.21875 7.046875 
Q 23.6875 6.203125 27.203125 6.203125 
Q 30.609375 6.203125 33.390625 7.25 
Q 36.1875 8.296875 38.15625 10.34375 
Q 40.140625 12.40625 41.203125 15.375 
Q 42.28125 18.359375 42.28125 22.21875 
Q 42.28125 25.390625 41.25 28.046875 
Q 40.234375 30.71875 38.328125 32.640625 
Q 36.421875 34.578125 33.65625 35.640625 
Q 30.90625 36.71875 27.390625 36.71875 
Q 25.203125 36.71875 23.34375 36.328125 
Q 21.484375 35.9375 19.890625 35.25 
Q 18.3125 34.578125 17.015625 33.671875 
Q 15.71875 32.765625 14.59375 31.78125 
L 6 31.78125 
L 8.296875 68.796875 
L 47.40625 68.796875 
L 47.40625 61.328125 
L 16.3125 61.328125 
L 14.984375 39.5 
Q 17.328125 41.3125 20.84375 42.59375 
Q 24.359375 43.890625 29.203125 43.890625 
Q 34.328125 43.890625 38.421875 42.328125 
Q 42.53125 40.765625 45.40625 37.90625 
Q 48.296875 35.0625 49.859375 31.109375 
Q 51.421875 27.15625 51.421875 22.40625 
" id="LiberationSans-35"/>
       <path id="LiberationSans-20"/>
       <path d="M 4.4375 22.65625 
L 4.4375 30.46875 
L 28.859375 30.46875 
L 28.859375 22.65625 
z
" id="LiberationSans-2d"/>
      </defs>
      <g style="fill:#262626;" transform="translate(25.5765625 370.646875)scale(0.1 -0.1)">
       <use xlink:href="#LiberationSans-32"/>
       <use x="55.615234375" xlink:href="#LiberationSans-30"/>
       <use x="111.23046875" xlink:href="#LiberationSans-31"/>
       <use x="166.845703125" xlink:href="#LiberationSans-35"/>
       <use x="222.4609375" xlink:href="#LiberationSans-2d"/>
       <use x="255.76171875" xlink:href="#LiberationSans-31"/>
       <use x="311.376953125" xlink:href="#LiberationSans-31"/>
       <use x="366.9921875" xlink:href="#LiberationSans-2d"/>
       <use x="400.29296875" xlink:href="#LiberationSans-31"/>
       <use x="455.908203125" xlink:href="#LiberationSans-30"/>
       <use x="511.5234375" xlink:href="#LiberationSans-20"/>
       <use x="539.306640625" xlink:href="#LiberationSans-31"/>
       <use x="594.921875" xlink:href="#LiberationSans-30"/>
       <use x="650.537109375" xlink:href="#LiberationSans-3a"/>
       <use x="678.3203125" xlink:href="#LiberationSans-33"/>
       <use x="733.935546875" xlink:href="#LiberationSans-31"/>
       <use x="789.55078125" xlink:href="#LiberationSans-3a"/>
       <use x="817.333984375" xlink:href="#LiberationSans-30"/>
       <use x="872.94921875" xlink:href="#LiberationSans-30"/>
      </g>
     </g>
    </g>
    <g id="xtick_2">
     <g id="line2d_4">
      <path clip-path="url(#p0b3413bca6)" d="M 183.655828 356.4 
L 183.655828 39.6 
" style="fill:none;stroke:#ffffff;stroke-linecap:round;"/>
     </g>
     <g id="line2d_5"/>
     <g id="line2d_6"/>
     <g id="text_2">
      <!-- 2015-11-12 09:25:00 -->
      <defs>
       <path d="M 50.875 35.796875 
Q 50.875 26.609375 49.140625 19.703125 
Q 47.40625 12.796875 44.1875 8.203125 
Q 40.96875 3.609375 36.34375 1.3125 
Q 31.734375 -0.984375 25.984375 -0.984375 
Q 22.015625 -0.984375 18.84375 -0.171875 
Q 15.671875 0.640625 13.171875 2.34375 
Q 10.6875 4.046875 8.921875 6.78125 
Q 7.171875 9.515625 6.109375 13.375 
L 14.5 14.703125 
Q 15.875 10.25 18.78125 8.171875 
Q 21.6875 6.109375 26.125 6.109375 
Q 29.6875 6.109375 32.640625 7.78125 
Q 35.59375 9.46875 37.671875 12.84375 
Q 39.75 16.21875 40.921875 21.296875 
Q 42.09375 26.375 42.1875 33.203125 
Q 41.15625 30.90625 39.375 29.09375 
Q 37.59375 27.296875 35.328125 26.046875 
Q 33.0625 24.8125 30.421875 24.140625 
Q 27.78125 23.484375 25.09375 23.484375 
Q 20.40625 23.484375 16.625 25.171875 
Q 12.84375 26.859375 10.203125 29.875 
Q 7.5625 32.90625 6.125 37.171875 
Q 4.6875 41.453125 4.6875 46.6875 
Q 4.6875 52 6.21875 56.296875 
Q 7.765625 60.59375 10.6875 63.59375 
Q 13.625 66.609375 17.890625 68.21875 
Q 22.171875 69.828125 27.59375 69.828125 
Q 39.0625 69.828125 44.96875 61.328125 
Q 50.875 52.828125 50.875 35.796875 
M 41.3125 44.28125 
Q 41.3125 48.09375 40.40625 51.453125 
Q 39.5 54.828125 37.71875 57.3125 
Q 35.9375 59.8125 33.328125 61.25 
Q 30.71875 62.703125 27.296875 62.703125 
Q 24.125 62.703125 21.578125 61.578125 
Q 19.046875 60.453125 17.28125 58.375 
Q 15.53125 56.296875 14.578125 53.3125 
Q 13.625 50.34375 13.625 46.6875 
Q 13.625 43.21875 14.46875 40.234375 
Q 15.328125 37.25 17.03125 35.078125 
Q 18.75 32.90625 21.28125 31.65625 
Q 23.828125 30.421875 27.203125 30.421875 
Q 29.640625 30.421875 32.15625 31.25 
Q 34.671875 32.078125 36.6875 33.78125 
Q 38.71875 35.5 40.015625 38.109375 
Q 41.3125 40.71875 41.3125 44.28125 
" id="LiberationSans-39"/>
      </defs>
      <g style="fill:#262626;" transform="translate(137.232390414 370.646875)scale(0.1 -0.1)">
       <use xlink:href="#LiberationSans-32"/>
       <use x="55.615234375" xlink:href="#LiberationSans-30"/>
       <use x="111.23046875" xlink:href="#LiberationSans-31"/>
       <use x="166.845703125" xlink:href="#LiberationSans-35"/>
       <use x="222.4609375" xlink:href="#LiberationSans-2d"/>
       <use x="255.76171875" xlink:href="#LiberationSans-31"/>
       <use x="311.376953125" xlink:href="#LiberationSans-31"/>
       <use x="366.9921875" xlink:href="#LiberationSans-2d"/>
       <use x="400.29296875" xlink:href="#LiberationSans-31"/>
       <use x="455.908203125" xlink:href="#LiberationSans-32"/>
       <use x="511.5234375" xlink:href="#LiberationSans-20"/>
       <use x="539.306640625" xlink:href="#LiberationSans-30"/>
       <use x="594.921875" xlink:href="#LiberationSans-39"/>
       <use x="650.537109375" xlink:href="#LiberationSans-3a"/>
       <use x="678.3203125" xlink:href="#LiberationSans-32"/>
       <use x="733.935546875" xlink:href="#LiberationSans-35"/>
       <use x="789.55078125" xlink:href="#LiberationSans-3a"/>
       <use x="817.333984375" xlink:href="#LiberationSans-30"/>
       <use x="872.94921875" xlink:href="#LiberationSans-30"/>
      </g>
     </g>
    </g>
    <g id="xtick_3">
     <g id="line2d_7">
      <path clip-path="url(#p0b3413bca6)" d="M 295.311656 356.4 
L 295.311656 39.6 
" style="fill:none;stroke:#ffffff;stroke-linecap:round;"/>
     </g>
     <g id="line2d_8"/>
     <g id="line2d_9"/>
     <g id="text_3">
      <!-- 2015-11-17 00:54:00 -->
      <defs>
       <path d="M 50.59375 61.671875 
Q 45.40625 53.765625 41.0625 46.453125 
Q 36.71875 39.15625 33.59375 31.75 
Q 30.46875 24.359375 28.734375 16.578125 
Q 27 8.796875 27 0 
L 17.828125 0 
Q 17.828125 8.25 19.78125 16.1875 
Q 21.734375 24.125 25.046875 31.765625 
Q 28.375 39.40625 32.765625 46.78125 
Q 37.15625 54.15625 42.09375 61.328125 
L 5.125 61.328125 
L 5.125 68.796875 
L 50.59375 68.796875 
z
" id="LiberationSans-37"/>
       <path d="M 43.015625 15.578125 
L 43.015625 0 
L 34.71875 0 
L 34.71875 15.578125 
L 2.296875 15.578125 
L 2.296875 22.40625 
L 33.796875 68.796875 
L 43.015625 68.796875 
L 43.015625 22.515625 
L 52.6875 22.515625 
L 52.6875 15.578125 
z
M 34.71875 58.890625 
Q 34.625 58.640625 34.234375 57.9375 
Q 33.84375 57.234375 33.34375 56.34375 
Q 32.859375 55.46875 32.34375 54.5625 
Q 31.84375 53.65625 31.453125 53.078125 
L 13.8125 27.09375 
Q 13.578125 26.703125 13.109375 26.0625 
Q 12.640625 25.4375 12.15625 24.78125 
Q 11.671875 24.125 11.171875 23.484375 
Q 10.6875 22.859375 10.40625 22.515625 
L 34.71875 22.515625 
z
" id="LiberationSans-34"/>
      </defs>
      <g style="fill:#262626;" transform="translate(248.888218328 370.646875)scale(0.1 -0.1)">
       <use xlink:href="#LiberationSans-32"/>
       <use x="55.615234375" xlink:href="#LiberationSans-30"/>
       <use x="111.23046875" xlink:href="#LiberationSans-31"/>
       <use x="166.845703125" xlink:href="#LiberationSans-35"/>
       <use x="222.4609375" xlink:href="#LiberationSans-2d"/>
       <use x="255.76171875" xlink:href="#LiberationSans-31"/>
       <use x="311.376953125" xlink:href="#LiberationSans-31"/>
       <use x="366.9921875" xlink:href="#LiberationSans-2d"/>
       <use x="400.29296875" xlink:href="#LiberationSans-31"/>
       <use x="455.908203125" xlink:href="#LiberationSans-37"/>
       <use x="511.5234375" xlink:href="#LiberationSans-20"/>
       <use x="539.306640625" xlink:href="#LiberationSans-30"/>
       <use x="594.921875" xlink:href="#LiberationSans-30"/>
       <use x="650.537109375" xlink:href="#LiberationSans-3a"/>
       <use x="678.3203125" xlink:href="#LiberationSans-35"/>
       <use x="733.935546875" xlink:href="#LiberationSans-34"/>
       <use x="789.55078125" xlink:href="#LiberationSans-3a"/>
       <use x="817.333984375" xlink:href="#LiberationSans-30"/>
       <use x="872.94921875" xlink:href="#LiberationSans-30"/>
      </g>
     </g>
    </g>
    <g id="xtick_4">
     <g id="line2d_10">
      <path clip-path="url(#p0b3413bca6)" d="M 406.967484 356.4 
L 406.967484 39.6 
" style="fill:none;stroke:#ffffff;stroke-linecap:round;"/>
     </g>
     <g id="line2d_11"/>
     <g id="line2d_12"/>
     <g id="text_4">
      <!-- 2015-11-20 23:57:00 -->
      <g style="fill:#262626;" transform="translate(360.544046242 370.646875)scale(0.1 -0.1)">
       <use xlink:href="#LiberationSans-32"/>
       <use x="55.615234375" xlink:href="#LiberationSans-30"/>
       <use x="111.23046875" xlink:href="#LiberationSans-31"/>
       <use x="166.845703125" xlink:href="#LiberationSans-35"/>
       <use x="222.4609375" xlink:href="#LiberationSans-2d"/>
       <use x="255.76171875" xlink:href="#LiberationSans-31"/>
       <use x="311.376953125" xlink:href="#LiberationSans-31"/>
       <use x="366.9921875" xlink:href="#LiberationSans-2d"/>
       <use x="400.29296875" xlink:href="#LiberationSans-32"/>
       <use x="455.908203125" xlink:href="#LiberationSans-30"/>
       <use x="511.5234375" xlink:href="#LiberationSans-20"/>
       <use x="539.306640625" xlink:href="#LiberationSans-32"/>
       <use x="594.921875" xlink:href="#LiberationSans-33"/>
       <use x="650.537109375" xlink:href="#LiberationSans-3a"/>
       <use x="678.3203125" xlink:href="#LiberationSans-35"/>
       <use x="733.935546875" xlink:href="#LiberationSans-37"/>
       <use x="789.55078125" xlink:href="#LiberationSans-3a"/>
       <use x="817.333984375" xlink:href="#LiberationSans-30"/>
       <use x="872.94921875" xlink:href="#LiberationSans-30"/>
      </g>
     </g>
    </g>
    <g id="text_5">
     <!-- time -->
     <defs>
      <path d="M 13.484375 24.5625 
Q 13.484375 20.40625 14.328125 16.90625 
Q 15.1875 13.421875 16.96875 10.90625 
Q 18.75 8.40625 21.53125 7 
Q 24.3125 5.609375 28.21875 5.609375 
Q 33.9375 5.609375 37.375 7.90625 
Q 40.828125 10.203125 42.046875 13.71875 
L 49.75 11.53125 
Q 48.921875 9.328125 47.4375 7.109375 
Q 45.953125 4.890625 43.453125 3.09375 
Q 40.96875 1.3125 37.234375 0.15625 
Q 33.5 -0.984375 28.21875 -0.984375 
Q 16.5 -0.984375 10.375 6 
Q 4.25 12.984375 4.25 26.765625 
Q 4.25 34.1875 6.09375 39.328125 
Q 7.953125 44.484375 11.171875 47.703125 
Q 14.40625 50.921875 18.703125 52.359375 
Q 23 53.8125 27.875 53.8125 
Q 34.515625 53.8125 38.984375 51.65625 
Q 43.453125 49.515625 46.15625 45.71875 
Q 48.875 41.9375 50.015625 36.8125 
Q 51.171875 31.6875 51.171875 25.734375 
L 51.171875 24.5625 
z
M 42.09375 31.296875 
Q 41.359375 39.65625 37.84375 43.484375 
Q 34.328125 47.3125 27.734375 47.3125 
Q 25.53125 47.3125 23.109375 46.609375 
Q 20.703125 45.90625 18.65625 44.09375 
Q 16.609375 42.28125 15.1875 39.171875 
Q 13.765625 36.078125 13.578125 31.296875 
z
" id="LiberationSans-65"/>
      <path d="M 6.6875 64.0625 
L 6.6875 72.46875 
L 15.484375 72.46875 
L 15.484375 64.0625 
z
M 6.6875 0 
L 6.6875 52.828125 
L 15.484375 52.828125 
L 15.484375 0 
z
" id="LiberationSans-69"/>
      <path d="M 27.046875 0.390625 
Q 25.046875 -0.140625 22.96875 -0.453125 
Q 20.90625 -0.78125 18.171875 -0.78125 
Q 7.625 -0.78125 7.625 11.1875 
L 7.625 46.4375 
L 1.515625 46.4375 
L 1.515625 52.828125 
L 7.953125 52.828125 
L 10.546875 64.65625 
L 16.40625 64.65625 
L 16.40625 52.828125 
L 26.171875 52.828125 
L 26.171875 46.4375 
L 16.40625 46.4375 
L 16.40625 13.09375 
Q 16.40625 9.28125 17.640625 7.734375 
Q 18.890625 6.203125 21.96875 6.203125 
Q 23.25 6.203125 24.4375 6.390625 
Q 25.640625 6.59375 27.046875 6.890625 
z
" id="LiberationSans-74"/>
      <path d="M 37.5 0 
L 37.5 33.5 
Q 37.5 37.359375 37.015625 39.9375 
Q 36.53125 42.53125 35.375 44.109375 
Q 34.234375 45.703125 32.375 46.359375 
Q 30.515625 47.015625 27.828125 47.015625 
Q 25.046875 47.015625 22.796875 45.921875 
Q 20.5625 44.828125 18.96875 42.75 
Q 17.390625 40.671875 16.53125 37.625 
Q 15.671875 34.578125 15.671875 30.609375 
L 15.671875 0 
L 6.9375 0 
L 6.9375 41.546875 
Q 6.9375 43.21875 6.90625 45.046875 
Q 6.890625 46.875 6.828125 48.5 
Q 6.78125 50.140625 6.734375 51.3125 
Q 6.6875 52.484375 6.640625 52.828125 
L 14.9375 52.828125 
Q 14.984375 52.59375 15.03125 51.515625 
Q 15.09375 50.4375 15.15625 49.046875 
Q 15.234375 47.65625 15.28125 46.21875 
Q 15.328125 44.78125 15.328125 43.796875 
L 15.484375 43.796875 
Q 16.65625 46.09375 18.015625 47.953125 
Q 19.390625 49.8125 21.21875 51.09375 
Q 23.046875 52.390625 25.40625 53.09375 
Q 27.78125 53.8125 30.90625 53.8125 
Q 36.921875 53.8125 40.40625 51.421875 
Q 43.890625 49.03125 45.265625 43.796875 
L 45.40625 43.796875 
Q 46.578125 46.09375 48.046875 47.953125 
Q 49.515625 49.8125 51.46875 51.09375 
Q 53.421875 52.390625 55.859375 53.09375 
Q 58.296875 53.8125 61.421875 53.8125 
Q 65.4375 53.8125 68.328125 52.734375 
Q 71.234375 51.65625 73.09375 49.40625 
Q 74.953125 47.171875 75.828125 43.625 
Q 76.703125 40.09375 76.703125 35.203125 
L 76.703125 0 
L 68.015625 0 
L 68.015625 33.5 
Q 68.015625 37.359375 67.53125 39.9375 
Q 67.046875 42.53125 65.890625 44.109375 
Q 64.75 45.703125 62.890625 46.359375 
Q 61.03125 47.015625 58.34375 47.015625 
Q 55.5625 47.015625 53.3125 45.96875 
Q 51.078125 44.921875 49.484375 42.875 
Q 47.90625 40.828125 47.046875 37.75 
Q 46.1875 34.671875 46.1875 30.609375 
L 46.1875 0 
z
" id="LiberationSans-6d"/>
     </defs>
     <g style="fill:#262626;" transform="translate(284.81015625 385.6934375)scale(0.11 -0.11)">
      <use xlink:href="#LiberationSans-74"/>
      <use x="27.783203125" xlink:href="#LiberationSans-69"/>
      <use x="50.0" xlink:href="#LiberationSans-6d"/>
      <use x="133.30078125" xlink:href="#LiberationSans-65"/>
     </g>
    </g>
   </g>
   <g id="matplotlib.axis_2">
    <g id="ytick_1">
     <g id="line2d_13">
      <path clip-path="url(#p0b3413bca6)" d="M 72 356.4 
L 518.4 356.4 
" style="fill:none;stroke:#ffffff;stroke-linecap:round;"/>
     </g>
     <g id="line2d_14"/>
     <g id="line2d_15"/>
     <g id="text_6">
      <!-- −1600 -->
      <defs>
       <path d="M 4.9375 29.6875 
L 4.9375 36.8125 
L 53.515625 36.8125 
L 53.515625 29.6875 
z
" id="LiberationSans-2212"/>
       <path d="M 51.21875 22.515625 
Q 51.21875 17.328125 49.78125 13 
Q 48.34375 8.6875 45.53125 5.578125 
Q 42.71875 2.484375 38.5625 0.75 
Q 34.421875 -0.984375 29 -0.984375 
Q 23 -0.984375 18.5 1.3125 
Q 14.015625 3.609375 11.03125 7.921875 
Q 8.0625 12.25 6.5625 18.53125 
Q 5.078125 24.8125 5.078125 32.8125 
Q 5.078125 42 6.765625 48.921875 
Q 8.453125 55.859375 11.625 60.5 
Q 14.796875 65.140625 19.359375 67.484375 
Q 23.921875 69.828125 29.6875 69.828125 
Q 33.203125 69.828125 36.28125 69.09375 
Q 39.359375 68.359375 41.875 66.71875 
Q 44.390625 65.09375 46.28125 62.40625 
Q 48.1875 59.71875 49.3125 55.8125 
L 40.921875 54.296875 
Q 39.546875 58.734375 36.546875 60.71875 
Q 33.546875 62.703125 29.59375 62.703125 
Q 25.984375 62.703125 23.046875 60.984375 
Q 20.125 59.28125 18.0625 55.875 
Q 16.015625 52.484375 14.90625 47.359375 
Q 13.8125 42.234375 13.8125 35.40625 
Q 16.21875 39.84375 20.5625 42.15625 
Q 24.90625 44.484375 30.515625 44.484375 
Q 35.203125 44.484375 39.015625 42.96875 
Q 42.828125 41.453125 45.53125 38.59375 
Q 48.25 35.75 49.734375 31.671875 
Q 51.21875 27.59375 51.21875 22.515625 
M 42.28125 22.125 
Q 42.28125 25.6875 41.40625 28.5625 
Q 40.53125 31.453125 38.765625 33.46875 
Q 37.015625 35.5 34.421875 36.59375 
Q 31.84375 37.703125 28.421875 37.703125 
Q 26.03125 37.703125 23.578125 36.984375 
Q 21.140625 36.28125 19.15625 34.6875 
Q 17.1875 33.109375 15.9375 30.515625 
Q 14.703125 27.9375 14.703125 24.21875 
Q 14.703125 20.40625 15.671875 17.109375 
Q 16.65625 13.8125 18.484375 11.375 
Q 20.3125 8.9375 22.890625 7.515625 
Q 25.484375 6.109375 28.71875 6.109375 
Q 31.890625 6.109375 34.40625 7.203125 
Q 36.921875 8.296875 38.671875 10.375 
Q 40.4375 12.453125 41.359375 15.421875 
Q 42.28125 18.40625 42.28125 22.125 
" id="LiberationSans-36"/>
      </defs>
      <g style="fill:#262626;" transform="translate(36.915625 358.9859375)scale(0.1 -0.1)">
       <use xlink:href="#LiberationSans-2212"/>
       <use x="58.3984375" xlink:href="#LiberationSans-31"/>
       <use x="114.013671875" xlink:href="#LiberationSans-36"/>
       <use x="169.62890625" xlink:href="#LiberationSans-30"/>
       <use x="225.244140625" xlink:href="#LiberationSans-30"/>
      </g>
     </g>
    </g>
    <g id="ytick_2">
     <g id="line2d_16">
      <path clip-path="url(#p0b3413bca6)" d="M 72 321.2 
L 518.4 321.2 
" style="fill:none;stroke:#ffffff;stroke-linecap:round;"/>
     </g>
     <g id="line2d_17"/>
     <g id="line2d_18"/>
     <g id="text_7">
      <!-- −1500 -->
      <g style="fill:#262626;" transform="translate(36.915625 323.7859375)scale(0.1 -0.1)">
       <use xlink:href="#LiberationSans-2212"/>
       <use x="58.3984375" xlink:href="#LiberationSans-31"/>
       <use x="114.013671875" xlink:href="#LiberationSans-35"/>
       <use x="169.62890625" xlink:href="#LiberationSans-30"/>
       <use x="225.244140625" xlink:href="#LiberationSans-30"/>
      </g>
     </g>
    </g>
    <g id="ytick_3">
     <g id="line2d_19">
      <path clip-path="url(#p0b3413bca6)" d="M 72 286 
L 518.4 286 
" style="fill:none;stroke:#ffffff;stroke-linecap:round;"/>
     </g>
     <g id="line2d_20"/>
     <g id="line2d_21"/>
     <g id="text_8">
      <!-- −1400 -->
      <g style="fill:#262626;" transform="translate(36.915625 288.5859375)scale(0.1 -0.1)">
       <use xlink:href="#LiberationSans-2212"/>
       <use x="58.3984375" xlink:href="#LiberationSans-31"/>
       <use x="114.013671875" xlink:href="#LiberationSans-34"/>
       <use x="169.62890625" xlink:href="#LiberationSans-30"/>
       <use x="225.244140625" xlink:href="#LiberationSans-30"/>
      </g>
     </g>
    </g>
    <g id="ytick_4">
     <g id="line2d_22">
      <path clip-path="url(#p0b3413bca6)" d="M 72 250.8 
L 518.4 250.8 
" style="fill:none;stroke:#ffffff;stroke-linecap:round;"/>
     </g>
     <g id="line2d_23"/>
     <g id="line2d_24"/>
     <g id="text_9">
      <!-- −1300 -->
      <g style="fill:#262626;" transform="translate(36.915625 253.3859375)scale(0.1 -0.1)">
       <use xlink:href="#LiberationSans-2212"/>
       <use x="58.3984375" xlink:href="#LiberationSans-31"/>
       <use x="114.013671875" xlink:href="#LiberationSans-33"/>
       <use x="169.62890625" xlink:href="#LiberationSans-30"/>
       <use x="225.244140625" xlink:href="#LiberationSans-30"/>
      </g>
     </g>
    </g>
    <g id="ytick_5">
     <g id="line2d_25">
      <path clip-path="url(#p0b3413bca6)" d="M 72 215.6 
L 518.4 215.6 
" style="fill:none;stroke:#ffffff;stroke-linecap:round;"/>
     </g>
     <g id="line2d_26"/>
     <g id="line2d_27"/>
     <g id="text_10">
      <!-- −1200 -->
      <g style="fill:#262626;" transform="translate(36.915625 218.1859375)scale(0.1 -0.1)">
       <use xlink:href="#LiberationSans-2212"/>
       <use x="58.3984375" xlink:href="#LiberationSans-31"/>
       <use x="114.013671875" xlink:href="#LiberationSans-32"/>
       <use x="169.62890625" xlink:href="#LiberationSans-30"/>
       <use x="225.244140625" xlink:href="#LiberationSans-30"/>
      </g>
     </g>
    </g>
    <g id="ytick_6">
     <g id="line2d_28">
      <path clip-path="url(#p0b3413bca6)" d="M 72 180.4 
L 518.4 180.4 
" style="fill:none;stroke:#ffffff;stroke-linecap:round;"/>
     </g>
     <g id="line2d_29"/>
     <g id="line2d_30"/>
     <g id="text_11">
      <!-- −1100 -->
      <g style="fill:#262626;" transform="translate(36.915625 182.9859375)scale(0.1 -0.1)">
       <use xlink:href="#LiberationSans-2212"/>
       <use x="58.3984375" xlink:href="#LiberationSans-31"/>
       <use x="114.013671875" xlink:href="#LiberationSans-31"/>
       <use x="169.62890625" xlink:href="#LiberationSans-30"/>
       <use x="225.244140625" xlink:href="#LiberationSans-30"/>
      </g>
     </g>
    </g>
    <g id="ytick_7">
     <g id="line2d_31">
      <path clip-path="url(#p0b3413bca6)" d="M 72 145.2 
L 518.4 145.2 
" style="fill:none;stroke:#ffffff;stroke-linecap:round;"/>
     </g>
     <g id="line2d_32"/>
     <g id="line2d_33"/>
     <g id="text_12">
      <!-- −1000 -->
      <g style="fill:#262626;" transform="translate(36.915625 147.7859375)scale(0.1 -0.1)">
       <use xlink:href="#LiberationSans-2212"/>
       <use x="58.3984375" xlink:href="#LiberationSans-31"/>
       <use x="114.013671875" xlink:href="#LiberationSans-30"/>
       <use x="169.62890625" xlink:href="#LiberationSans-30"/>
       <use x="225.244140625" xlink:href="#LiberationSans-30"/>
      </g>
     </g>
    </g>
    <g id="ytick_8">
     <g id="line2d_34">
      <path clip-path="url(#p0b3413bca6)" d="M 72 110 
L 518.4 110 
" style="fill:none;stroke:#ffffff;stroke-linecap:round;"/>
     </g>
     <g id="line2d_35"/>
     <g id="line2d_36"/>
     <g id="text_13">
      <!-- −900 -->
      <g style="fill:#262626;" transform="translate(42.4765625 112.5859375)scale(0.1 -0.1)">
       <use xlink:href="#LiberationSans-2212"/>
       <use x="58.3984375" xlink:href="#LiberationSans-39"/>
       <use x="114.013671875" xlink:href="#LiberationSans-30"/>
       <use x="169.62890625" xlink:href="#LiberationSans-30"/>
      </g>
     </g>
    </g>
    <g id="ytick_9">
     <g id="line2d_37">
      <path clip-path="url(#p0b3413bca6)" d="M 72 74.8 
L 518.4 74.8 
" style="fill:none;stroke:#ffffff;stroke-linecap:round;"/>
     </g>
     <g id="line2d_38"/>
     <g id="line2d_39"/>
     <g id="text_14">
      <!-- −800 -->
      <defs>
       <path d="M 51.265625 19.1875 
Q 51.265625 14.796875 49.875 11.109375 
Q 48.484375 7.421875 45.625 4.734375 
Q 42.78125 2.046875 38.328125 0.53125 
Q 33.890625 -0.984375 27.828125 -0.984375 
Q 21.78125 -0.984375 17.359375 0.53125 
Q 12.9375 2.046875 10.03125 4.703125 
Q 7.125 7.375 5.734375 11.0625 
Q 4.34375 14.75 4.34375 19.09375 
Q 4.34375 22.859375 5.484375 25.78125 
Q 6.640625 28.71875 8.5625 30.828125 
Q 10.5 32.953125 12.96875 34.25 
Q 15.4375 35.546875 18.0625 35.984375 
L 18.0625 36.1875 
Q 15.1875 36.859375 12.90625 38.375 
Q 10.640625 39.890625 9.09375 42.015625 
Q 7.5625 44.140625 6.75 46.71875 
Q 5.953125 49.3125 5.953125 52.203125 
Q 5.953125 55.8125 7.34375 59 
Q 8.734375 62.203125 11.46875 64.625 
Q 14.203125 67.046875 18.25 68.4375 
Q 22.3125 69.828125 27.640625 69.828125 
Q 33.25 69.828125 37.375 68.40625 
Q 41.5 67 44.203125 64.578125 
Q 46.921875 62.15625 48.234375 58.9375 
Q 49.5625 55.71875 49.5625 52.09375 
Q 49.5625 49.265625 48.75 46.671875 
Q 47.953125 44.09375 46.40625 41.96875 
Q 44.875 39.84375 42.59375 38.34375 
Q 40.328125 36.859375 37.359375 36.28125 
L 37.359375 36.078125 
Q 40.328125 35.59375 42.859375 34.296875 
Q 45.40625 33.015625 47.265625 30.890625 
Q 49.125 28.765625 50.1875 25.828125 
Q 51.265625 22.90625 51.265625 19.1875 
M 40.4375 51.609375 
Q 40.4375 54.203125 39.765625 56.34375 
Q 39.109375 58.5 37.59375 60.03125 
Q 36.078125 61.578125 33.640625 62.421875 
Q 31.203125 63.28125 27.640625 63.28125 
Q 24.171875 63.28125 21.78125 62.421875 
Q 19.390625 61.578125 17.84375 60.03125 
Q 16.3125 58.5 15.625 56.34375 
Q 14.9375 54.203125 14.9375 51.609375 
Q 14.9375 49.5625 15.46875 47.40625 
Q 16.015625 45.265625 17.421875 43.5 
Q 18.84375 41.75 21.328125 40.625 
Q 23.828125 39.5 27.734375 39.5 
Q 31.890625 39.5 34.40625 40.625 
Q 36.921875 41.75 38.25 43.5 
Q 39.59375 45.265625 40.015625 47.40625 
Q 40.4375 49.5625 40.4375 51.609375 
M 42.140625 20.015625 
Q 42.140625 22.515625 41.453125 24.828125 
Q 40.765625 27.15625 39.109375 28.9375 
Q 37.453125 30.71875 34.640625 31.8125 
Q 31.84375 32.90625 27.640625 32.90625 
Q 23.78125 32.90625 21.0625 31.8125 
Q 18.359375 30.71875 16.671875 28.90625 
Q 14.984375 27.09375 14.203125 24.71875 
Q 13.421875 22.359375 13.421875 19.828125 
Q 13.421875 16.65625 14.203125 14.03125 
Q 14.984375 11.421875 16.6875 9.546875 
Q 18.40625 7.671875 21.1875 6.640625 
Q 23.96875 5.609375 27.9375 5.609375 
Q 31.9375 5.609375 34.671875 6.640625 
Q 37.40625 7.671875 39.0625 9.546875 
Q 40.71875 11.421875 41.421875 14.078125 
Q 42.140625 16.75 42.140625 20.015625 
" id="LiberationSans-38"/>
      </defs>
      <g style="fill:#262626;" transform="translate(42.4765625 77.3859375)scale(0.1 -0.1)">
       <use xlink:href="#LiberationSans-2212"/>
       <use x="58.3984375" xlink:href="#LiberationSans-38"/>
       <use x="114.013671875" xlink:href="#LiberationSans-30"/>
       <use x="169.62890625" xlink:href="#LiberationSans-30"/>
      </g>
     </g>
    </g>
    <g id="ytick_10">
     <g id="line2d_40">
      <path clip-path="url(#p0b3413bca6)" d="M 72 39.6 
L 518.4 39.6 
" style="fill:none;stroke:#ffffff;stroke-linecap:round;"/>
     </g>
     <g id="line2d_41"/>
     <g id="line2d_42"/>
     <g id="text_15">
      <!-- −700 -->
      <g style="fill:#262626;" transform="translate(42.4765625 42.1859375)scale(0.1 -0.1)">
       <use xlink:href="#LiberationSans-2212"/>
       <use x="58.3984375" xlink:href="#LiberationSans-37"/>
       <use x="114.013671875" xlink:href="#LiberationSans-30"/>
       <use x="169.62890625" xlink:href="#LiberationSans-30"/>
      </g>
     </g>
    </g>
   </g>
   <g id="line2d_43">
    <path clip-path="url(#p0b3413bca6)" d="M 72 69.862241 
L 72.223312 71.587041 
L 72.446623 71.587041 
L 72.669935 75.036641 
L 72.893247 80.458856 
L 73.33987 80.458856 
L 73.563182 87.652615 
L 73.786493 80.458856 
L 74.009805 82.478215 
L 74.233117 80.753415 
L 74.456428 82.478215 
L 74.67974 82.478215 
L 74.903052 87.900431 
L 75.126363 87.900431 
L 75.572986 79.028615 
L 75.796298 87.900431 
L 76.01961 78.734056 
L 76.242921 91.102215 
L 76.466233 87.358056 
L 76.689545 89.082856 
L 76.912856 96.276615 
L 77.136168 98.001415 
L 77.35948 98.001415 
L 77.582791 99.726215 
L 77.806103 94.257256 
L 78.029415 94.257256 
L 78.252726 101.451015 
L 78.476038 103.175815 
L 78.69935 103.175815 
L 78.922661 104.900615 
L 79.145973 108.350215 
L 79.369285 113.524615 
L 79.592596 115.249415 
L 79.815908 121.854056 
L 80.03922 106.083041 
L 80.262531 114.707041 
L 80.485843 114.707041 
L 80.709155 112.982241 
L 80.932466 112.982241 
L 81.155778 118.156641 
L 81.37909 116.431841 
L 81.602401 121.854056 
L 81.825713 120.129256 
L 82.049025 123.873415 
L 82.272336 120.423815 
L 82.495648 120.671631 
L 82.718959 119.194646 
L 82.942271 120.919446 
L 83.165583 120.919446 
L 83.388894 126.341662 
L 83.612206 119.194646 
L 83.835518 117.469846 
L 84.058829 117.469846 
L 84.282141 113.772431 
L 84.505453 112.047631 
L 84.952076 112.047631 
L 85.175388 110.322831 
L 85.398699 112.047631 
L 85.622011 117.469846 
L 85.845323 117.469846 
L 86.068634 112.047631 
L 86.515258 115.497231 
L 86.961881 115.497231 
L 87.408504 118.946831 
L 87.631816 115.497231 
L 87.855128 117.222031 
L 88.078439 120.671631 
L 88.301751 118.699015 
L 88.748374 110.075015 
L 89.194997 120.423815 
L 89.418309 118.404456 
L 89.641621 118.404456 
L 89.864932 130.772615 
L 90.088244 129.047815 
L 90.311556 118.404456 
L 90.534867 134.717846 
L 90.758179 131.268246 
L 90.981491 125.846031 
L 91.204802 127.818646 
L 91.428114 127.818646 
L 91.651426 119.194646 
L 91.874737 124.369046 
L 92.098049 118.946831 
L 92.321361 124.369046 
L 92.544672 126.093846 
L 92.767984 117.222031 
L 92.991296 120.671631 
L 93.214607 115.497231 
L 93.437919 115.745046 
L 93.661231 101.698831 
L 93.884542 103.671446 
L 94.107854 103.671446 
L 94.331166 107.121046 
L 94.554477 117.717662 
L 94.777789 114.268062 
L 95.001101 114.515877 
L 95.224412 105.644062 
L 95.447724 109.093662 
L 95.671036 109.341477 
L 95.894347 102.442277 
L 96.117659 114.515877 
L 96.34097 147.039262 
L 96.564282 126.341662 
L 96.787594 117.717662 
L 97.010905 122.892062 
L 97.234217 123.139877 
L 97.457529 117.469846 
L 97.68084 115.497231 
L 97.904152 118.946831 
L 98.127464 113.524615 
L 98.350775 111.799815 
L 98.574087 117.222031 
L 98.797399 115.249415 
L 99.02071 115.249415 
L 99.467334 127.570831 
L 99.690645 123.873415 
L 99.913957 131.020431 
L 100.137269 127.323015 
L 100.36058 116.679656 
L 100.583892 121.854056 
L 100.807204 132.497415 
L 101.030515 134.222215 
L 101.253827 134.222215 
L 101.477139 130.772615 
L 101.70045 134.222215 
L 101.923762 127.323015 
L 102.147074 127.028456 
L 102.370385 127.028456 
L 102.593697 121.854056 
L 103.04032 121.854056 
L 103.263632 127.323015 
L 103.486943 121.606241 
L 103.710255 121.606241 
L 103.933567 121.854056 
L 104.156878 127.028456 
L 104.38019 125.303656 
L 104.603502 128.505441 
L 104.826813 124.808025 
L 105.273437 137.377256 
L 105.72006 123.331041 
L 105.943372 123.331041 
L 106.166683 133.927656 
L 106.389995 133.927656 
L 106.613307 141.121415 
L 106.836618 137.377256 
L 107.05993 144.571015 
L 107.506553 135.404641 
L 107.729865 135.404641 
L 107.953177 151.175656 
L 108.623112 139.102056 
L 108.846423 127.028456 
L 109.069735 134.222215 
L 109.293047 127.028456 
L 109.516358 135.947015 
L 109.73967 135.947015 
L 109.962981 132.202856 
L 110.186293 137.671815 
L 110.409605 132.202856 
L 110.632916 130.230241 
L 110.856228 140.826856 
L 111.07954 135.404641 
L 111.302851 137.377256 
L 111.526163 135.652456 
L 111.749475 128.753256 
L 111.972786 140.826856 
L 112.41941 137.919631 
L 112.642721 151.718031 
L 112.866033 134.222215 
L 113.089345 141.617046 
L 113.312656 136.194831 
L 113.535968 126.093846 
L 113.75928 147.039262 
L 114.205903 124.121231 
L 114.652526 139.644431 
L 114.875838 141.369231 
L 115.09915 158.865046 
L 115.322461 153.690646 
L 115.545773 153.690646 
L 115.769085 150.241046 
L 115.992396 153.690646 
L 116.43902 153.690646 
L 116.662331 145.066646 
L 117.108954 155.415446 
L 117.332266 139.892246 
L 117.555578 151.965846 
L 117.778889 155.415446 
L 118.002201 132.993046 
L 118.225513 138.167446 
L 118.448824 103.671446 
L 118.672136 136.442646 
L 118.895448 112.295446 
L 119.118759 122.644246 
L 119.565383 126.093846 
L 119.788694 117.469846 
L 120.012006 126.093846 
L 120.235318 112.047631 
L 120.458629 119.194646 
L 120.681941 120.671631 
L 120.905253 120.671631 
L 121.351876 139.644431 
L 121.575188 135.947015 
L 121.798499 135.947015 
L 122.021811 143.094031 
L 122.691746 127.570831 
L 122.915058 125.846031 
L 123.138369 136.938277 
L 123.361681 135.213477 
L 123.584992 131.763877 
L 123.808304 133.488677 
L 124.031616 136.690462 
L 124.254927 131.763877 
L 124.701551 135.213477 
L 124.924862 131.516062 
L 125.148174 131.516062 
L 125.371486 133.240862 
L 125.594797 136.690462 
L 125.818109 136.690462 
L 126.041421 127.818646 
L 126.264732 131.516062 
L 126.488044 126.093846 
L 126.711356 131.516062 
L 127.157979 131.516062 
L 127.381291 138.415262 
L 127.604602 141.864862 
L 127.827914 136.442646 
L 128.051226 143.341846 
L 128.274537 139.644431 
L 128.497849 141.369231 
L 128.721161 130.772615 
L 128.944472 134.470031 
L 129.167784 129.047815 
L 129.391096 134.470031 
L 129.614407 136.194831 
L 129.837719 134.222215 
L 130.061031 134.470031 
L 130.284342 136.194831 
L 130.730965 132.745231 
L 130.954277 134.470031 
L 131.177589 129.047815 
L 131.4009 116.679656 
L 131.624212 123.873415 
L 131.847524 123.578856 
L 132.070835 118.404456 
L 132.294147 125.598215 
L 132.517459 123.873415 
L 132.74077 123.873415 
L 132.964082 125.598215 
L 133.187394 125.598215 
L 133.410705 115.249415 
L 133.634017 125.846031 
L 133.857329 116.974215 
L 134.08064 120.423815 
L 134.303952 120.423815 
L 134.527264 126.093846 
L 134.750575 127.818646 
L 134.973887 108.598031 
L 135.197199 117.222031 
L 135.42051 115.497231 
L 135.643822 120.671631 
L 135.867134 111.799815 
L 136.090445 117.222031 
L 136.313757 115.497231 
L 136.537069 115.497231 
L 136.76038 112.047631 
L 136.983692 115.497231 
L 137.207004 108.350215 
L 137.430315 110.075015 
L 137.653627 110.075015 
L 137.876938 111.799815 
L 138.10025 117.222031 
L 138.323562 108.350215 
L 138.546873 108.350215 
L 138.770185 118.946831 
L 138.993497 110.075015 
L 139.216808 120.423815 
L 139.44012 118.699015 
L 139.663432 109.780456 
L 139.886743 118.404456 
L 140.110055 116.679656 
L 140.556678 127.323015 
L 140.77999 125.598215 
L 141.003302 116.679656 
L 141.226613 121.854056 
L 141.449925 120.129256 
L 141.896548 134.222215 
L 142.11986 137.919631 
L 142.343172 129.047815 
L 142.566483 128.753256 
L 142.789795 128.753256 
L 143.013107 125.303656 
L 143.236418 132.497415 
L 143.45973 134.222215 
L 143.906353 118.404456 
L 144.352976 114.954856 
L 144.576288 122.148615 
L 144.7996 113.230056 
L 145.469535 108.350215 
L 145.692846 108.055656 
L 145.916158 116.974215 
L 146.13947 113.524615 
L 146.362781 113.524615 
L 146.586093 108.055656 
L 147.032716 113.524615 
L 147.256028 108.350215 
L 147.47934 108.350215 
L 147.702651 111.799815 
L 147.925963 108.350215 
L 148.149275 115.249415 
L 148.372586 111.505256 
L 148.595898 115.249415 
L 148.81921 115.249415 
L 149.042521 116.679656 
L 149.265833 106.083041 
L 149.489145 106.083041 
L 149.712456 109.780456 
L 149.935768 109.780456 
L 150.15908 118.699015 
L 150.382391 108.055656 
L 150.605703 106.330856 
L 150.829015 106.330856 
L 151.052326 101.156456 
L 151.275638 106.625415 
L 151.498949 106.330856 
L 151.722261 116.974215 
L 152.168884 104.358241 
L 152.392196 106.083041 
L 152.615508 113.230056 
L 152.838819 104.358241 
L 153.285443 121.854056 
L 153.508754 89.082856 
L 153.732066 114.707041 
L 153.955378 102.633441 
L 154.178689 116.679656 
L 154.402001 105.58741 
L 154.848624 100.165194 
L 155.071936 98.440394 
L 155.295248 94.742978 
L 155.518559 94.495163 
L 155.741871 92.770363 
L 155.965183 105.091778 
L 156.188494 92.770363 
L 156.411806 87.595963 
L 156.858429 101.642178 
L 157.081741 99.917378 
L 157.305053 105.091778 
L 157.528364 97.944763 
L 157.751676 108.541378 
L 157.974987 111.990978 
L 158.421611 100.851989 
L 158.644922 100.851989 
L 158.868234 102.328973 
L 159.091546 118.394547 
L 159.314857 114.650389 
L 159.538169 116.375189 
L 159.761481 111.200789 
L 159.984792 114.650389 
L 160.208104 114.650389 
L 160.431416 120.119347 
L 160.654727 120.119347 
L 160.878039 123.816763 
L 161.101351 120.614978 
L 161.324662 120.119347 
L 161.771286 133.914227 
L 161.994597 131.894869 
L 162.217909 140.813427 
L 162.441221 137.069269 
L 162.664532 137.363827 
L 162.887844 140.813427 
L 163.111156 130.468147 
L 163.334467 130.468147 
L 163.557779 128.743347 
L 163.781091 133.619669 
L 164.004402 123.274389 
L 164.227714 127.018547 
L 164.451026 118.099989 
L 164.674337 127.018547 
L 164.897649 118.099989 
L 165.12096 121.549589 
L 165.344272 120.119347 
L 166.014207 134.165563 
L 166.237519 137.615163 
L 166.46083 139.336443 
L 166.684142 133.914227 
L 166.907454 134.165563 
L 167.354077 121.844147 
L 167.577389 122.091963 
L 167.8007 122.091963 
L 168.024012 129.238978 
L 168.247324 116.917563 
L 168.470635 115.192763 
L 168.693947 111.495347 
L 168.917259 111.495347 
L 169.587194 127.266363 
L 169.810505 121.844147 
L 170.033817 129.238978 
L 170.48044 118.394547 
L 170.703752 120.119347 
L 171.150375 112.925589 
L 171.373687 121.844147 
L 171.596998 125.293747 
L 172.043622 107.503373 
L 172.266933 107.751189 
L 172.490245 107.751189 
L 172.713557 106.026389 
L 172.936868 106.026389 
L 173.16018 104.301589 
L 173.383492 106.026389 
L 173.830115 106.026389 
L 174.053427 104.301589 
L 174.276738 104.301589 
L 174.50005 97.402389 
L 174.723362 100.851989 
L 174.946673 95.677589 
L 175.169985 99.127189 
L 175.393297 97.402389 
L 175.616608 97.402389 
L 175.83992 93.952789 
L 176.063232 95.677589 
L 176.286543 93.952789 
L 176.509855 93.952789 
L 176.733167 97.402389 
L 176.956478 90.503189 
L 177.17979 78.429589 
L 177.403102 87.053589 
L 177.626413 76.704789 
L 177.849725 76.704789 
L 178.073037 74.979989 
L 178.742971 43.933589 
L 178.966283 47.383189 
L 179.189595 54.576947 
L 179.636218 45.658389 
L 179.85953 56.301747 
L 180.082841 57.731989 
L 180.529465 70.100147 
L 180.752776 64.631189 
L 180.976088 71.824947 
L 181.646023 57.731989 
L 182.092646 57.731989 
L 182.315958 56.301747 
L 182.53927 52.852147 
L 182.762581 63.448763 
L 182.985893 59.999163 
L 183.209205 52.852147 
L 183.432516 61.723963 
L 183.87914 56.007189 
L 184.102451 59.456789 
L 184.325763 61.181589 
L 184.772386 58.274363 
L 184.995698 49.402547 
L 185.21901 58.274363 
L 185.665633 47.383189 
L 186.335568 64.925747 
L 186.558879 56.007189 
L 187.005503 48.860173 
L 187.675438 64.631189 
L 187.898749 64.631189 
L 188.122061 59.208973 
L 188.345373 62.658573 
L 188.568684 60.933773 
L 188.791996 57.484173 
L 189.238619 57.484173 
L 189.461931 46.639742 
L 189.685243 46.639742 
L 189.908554 48.364542 
L 190.131866 59.208973 
L 190.355178 57.484173 
L 190.578489 60.933773 
L 190.801801 62.658573 
L 191.025113 59.208973 
L 191.248424 62.658573 
L 191.471736 62.658573 
L 191.695048 71.530389 
L 191.918359 62.658573 
L 192.141671 64.383373 
L 192.364982 68.080789 
L 192.588294 64.383373 
L 192.811606 80.448947 
L 193.034917 80.154389 
L 193.258229 85.328789 
L 193.481541 81.879189 
L 193.704852 85.328789 
L 193.928164 83.603989 
L 194.151476 87.348147 
L 194.374787 87.348147 
L 194.598099 81.879189 
L 194.821411 83.898547 
L 195.044722 80.448947 
L 195.268034 80.448947 
L 195.491346 82.173747 
L 195.714657 80.448947 
L 195.937969 80.448947 
L 196.161281 82.173747 
L 196.384592 87.595963 
L 196.607904 73.549747 
L 196.831216 76.999347 
L 197.054527 70.100147 
L 197.277839 80.696763 
L 197.501151 71.530389 
L 197.724462 76.999347 
L 197.947774 76.704789 
L 198.171086 78.724147 
L 198.394397 78.724147 
L 198.617709 76.999347 
L 198.841021 80.448947 
L 199.064332 82.173747 
L 199.287644 76.704789 
L 199.734267 76.704789 
L 199.957579 78.429589 
L 200.404202 78.429589 
L 200.627514 81.879189 
L 200.850825 92.770363 
L 201.297449 85.623347 
L 201.52076 80.154389 
L 201.744072 78.429589 
L 201.967384 85.623347 
L 202.190695 81.879189 
L 202.414007 85.623347 
L 202.86063 89.320763 
L 203.307254 82.173747 
L 203.530565 89.320763 
L 203.753877 91.045563 
L 203.977189 91.045563 
L 204.2005 89.320763 
L 204.423812 96.467778 
L 204.647124 98.192578 
L 204.870435 98.192578 
L 205.093747 99.917378 
L 205.317059 92.770363 
L 205.54037 98.192578 
L 205.763682 114.707041 
L 205.986993 112.982241 
L 206.210305 107.560025 
L 206.433617 105.835225 
L 206.656928 111.257441 
L 206.88024 120.423815 
L 207.103552 111.257441 
L 207.326863 107.560025 
L 207.550175 114.707041 
L 207.996798 154.186277 
L 208.22011 203.280776 
L 208.443422 181.591914 
L 208.666733 178.142314 
L 208.890045 185.537145 
L 209.113357 174.692714 
L 209.336668 176.417514 
L 209.55998 174.692714 
L 209.783292 166.068714 
L 210.006603 166.068714 
L 210.229915 164.096098 
L 210.89985 201.30816 
L 211.346473 176.417514 
L 211.569785 153.747298 
L 211.793097 157.444714 
L 212.016408 157.196898 
L 212.23972 153.499483 
L 212.463032 162.619114 
L 212.686343 162.619114 
L 212.909655 164.343914 
L 213.132966 155.472098 
L 213.356278 160.894314 
L 213.802901 164.343914 
L 214.026213 163.848283 
L 214.249525 170.995298 
L 214.472836 163.848283 
L 214.696148 206.720467 
L 214.91946 202.976308 
L 215.366083 215.592283 
L 215.812706 222.739298 
L 216.036018 223.234929 
L 216.25933 226.684529 
L 216.482641 226.436714 
L 216.929265 219.289698 
L 217.152576 228.161514 
L 217.375888 230.134129 
L 217.5992 219.537514 
L 217.822511 226.684529 
L 218.045823 226.684529 
L 218.269135 228.90496 
L 218.492446 227.427976 
L 218.715758 229.152776 
L 218.93907 232.602376 
L 219.162381 228.90496 
L 219.385693 210.665698 
L 219.832316 203.518683 
L 220.055628 207.463914 
L 220.278939 205.243483 
L 220.502251 210.665698 
L 220.725563 205.491298 
L 220.948874 203.518683 
L 221.172186 210.665698 
L 221.395498 205.491298 
L 221.618809 210.913514 
L 222.065433 191.692898 
L 222.288744 191.692898 
L 222.512056 193.417698 
L 222.735368 191.692898 
L 222.958679 186.518498 
L 223.181991 189.968098 
L 223.405303 200.564714 
L 223.628614 186.270683 
L 223.851926 189.720283 
L 224.075238 184.298067 
L 224.521861 196.619483 
L 224.745173 187.995483 
L 225.191796 198.592098 
L 225.415108 194.894683 
L 225.638419 194.894683 
L 225.861731 187.995483 
L 226.085043 193.169883 
L 226.308354 180.848467 
L 226.531666 159.417329 
L 226.754977 176.665329 
L 226.978289 163.114745 
L 227.201601 168.289145 
L 227.648224 161.389945 
L 228.318159 180.114929 
L 228.541471 174.692714 
L 228.764782 176.417514 
L 228.988094 174.692714 
L 229.211406 178.142314 
L 229.434717 178.142314 
L 229.658029 159.169514 
L 229.881341 169.518314 
L 230.104652 169.518314 
L 230.327964 166.068714 
L 230.551276 164.343914 
L 230.774587 169.766129 
L 230.997899 159.169514 
L 231.221211 166.564345 
L 231.444522 170.013945 
L 231.667834 170.013945 
L 231.891146 177.16096 
L 232.114457 175.188345 
L 232.337769 160.894314 
L 232.561081 162.619114 
L 232.784392 171.738745 
L 233.007704 140.883508 
L 233.231016 137.186093 
L 233.454327 142.360493 
L 233.677639 126.341662 
L 233.90095 126.341662 
L 234.124262 129.791262 
L 234.347574 131.516062 
L 234.570885 131.516062 
L 234.794197 140.387877 
L 235.017509 133.240862 
L 235.24082 115.249415 
L 235.464132 109.780456 
L 235.687444 122.644246 
L 235.910755 117.222031 
L 236.134067 120.919446 
L 236.357379 112.047631 
L 236.58069 112.047631 
L 236.804002 110.322831 
L 237.027314 117.469846 
L 237.250625 117.469846 
L 237.473937 121.167262 
L 237.92056 121.167262 
L 238.143872 121.415077 
L 238.367184 124.864677 
L 238.590495 119.442462 
L 238.813807 117.717662 
L 239.26043 142.608308 
L 239.483742 128.314277 
L 239.707054 133.736493 
L 239.930365 133.736493 
L 240.153677 137.186093 
L 240.376988 133.736493 
L 240.6003 126.589477 
L 240.823612 126.341662 
L 241.716858 152.213662 
L 242.386793 157.388062 
L 242.610105 150.488862 
L 242.833417 154.186277 
L 243.056728 161.333293 
L 243.503352 154.186277 
L 243.726663 159.608493 
L 243.949975 155.911077 
L 244.173287 161.333293 
L 244.396598 161.085477 
L 244.61991 153.938462 
L 244.843222 159.360677 
L 245.066533 155.911077 
L 245.289845 159.360677 
L 245.513157 164.535077 
L 245.736468 161.085477 
L 245.95978 161.085477 
L 246.183092 150.488862 
L 246.406403 150.488862 
L 247.076338 168.480308 
L 247.29965 166.755508 
L 247.522961 173.654708 
L 247.746273 177.104308 
L 247.969585 177.104308 
L 248.192896 175.379508 
L 248.416208 180.848467 
L 248.63952 177.104308 
L 248.862831 182.573267 
L 249.086143 175.379508 
L 249.309455 177.104308 
L 249.532766 171.682093 
L 249.756078 171.682093 
L 249.97939 173.406893 
L 250.649325 173.406893 
L 250.872636 184.545883 
L 251.095948 179.123667 
L 251.31926 179.123667 
L 251.542571 177.398867 
L 252.212506 177.398867 
L 252.435818 179.371483 
L 252.65913 182.821083 
L 252.882441 189.968098 
L 253.105753 189.968098 
L 253.329065 191.692898 
L 253.552376 189.720283 
L 253.775688 193.417698 
L 253.998999 187.995483 
L 254.222311 187.995483 
L 254.892246 200.316898 
L 255.338869 191.445083 
L 255.785493 202.537329 
L 256.008804 192.188529 
L 256.232116 188.738929 
L 256.455428 197.362929 
L 256.678739 188.491114 
L 256.902051 191.940714 
L 257.125363 188.491114 
L 257.348674 199.087729 
L 257.571986 199.087729 
L 257.795298 204.509945 
L 258.018609 199.58336 
L 258.241921 201.555976 
L 258.465233 197.85856 
L 258.688544 204.75776 
L 259.135168 193.913329 
L 259.358479 206.234745 
L 259.581791 197.610745 
L 259.805103 170.747483 
L 260.251726 162.123483 
L 260.475038 165.573083 
L 260.698349 170.995298 
L 260.921661 167.545698 
L 261.144972 167.545698 
L 261.368284 176.417514 
L 261.591596 165.820898 
L 261.814907 165.820898 
L 262.038219 167.793514 
L 262.261531 176.417514 
L 262.484842 171.243114 
L 262.708154 169.518314 
L 262.931466 171.243114 
L 263.154777 176.665329 
L 263.378089 173.215729 
L 263.601401 166.068714 
L 263.824712 164.343914 
L 264.048024 166.068714 
L 264.271336 164.343914 
L 264.494647 171.243114 
L 264.717959 171.490929 
L 264.941271 175.188345 
L 265.164582 173.463545 
L 265.387894 173.215729 
L 265.611206 169.766129 
L 265.834517 169.766129 
L 266.057829 171.490929 
L 266.281141 174.940529 
L 266.504452 183.564529 
L 266.727764 183.564529 
L 266.951076 178.390129 
L 267.174387 167.545698 
L 267.397699 172.967914 
L 267.844322 157.444714 
L 268.067634 171.490929 
L 268.290945 166.316529 
L 268.514257 175.188345 
L 268.96088 171.490929 
L 269.184192 166.068714 
L 269.407504 166.068714 
L 269.854127 182.33536 
L 270.077439 171.738745 
L 270.30075 175.188345 
L 270.524062 176.913145 
L 270.747374 180.362745 
L 270.970685 167.793514 
L 271.193997 168.041329 
L 271.417309 177.16096 
L 271.64062 180.858376 
L 271.863932 180.61056 
L 272.087244 180.61056 
L 272.310555 175.188345 
L 272.533867 173.215729 
L 272.757179 158.673883 
L 272.98049 158.673883 
L 273.203802 165.820898 
L 273.427114 169.270498 
L 273.650425 169.270498 
L 273.873737 176.169698 
L 274.097049 163.600467 
L 274.766983 173.949267 
L 274.990295 168.480308 
L 275.436918 171.929908 
L 275.883542 171.929908 
L 276.106853 177.398867 
L 276.330165 171.929908 
L 276.553477 177.398867 
L 276.776788 177.398867 
L 277.0001 182.821083 
L 277.223412 177.398867 
L 277.670035 187.995483 
L 277.893347 184.545883 
L 278.116658 179.123667 
L 278.33997 187.995483 
L 278.563282 189.472467 
L 278.786593 196.371667 
L 279.009905 189.472467 
L 279.233217 196.619483 
L 279.456528 189.472467 
L 279.67984 194.894683 
L 279.903152 189.472467 
L 280.126463 192.922067 
L 280.349775 184.003508 
L 280.573087 189.472467 
L 280.796398 189.472467 
L 281.01971 191.445083 
L 281.243022 187.747667 
L 281.466333 187.747667 
L 281.689645 189.472467 
L 281.912956 185.728308 
L 282.136268 194.352308 
L 282.35958 194.352308 
L 282.582891 196.077108 
L 282.806203 194.352308 
L 283.029515 196.077108 
L 283.252826 201.251508 
L 283.69945 192.131877 
L 283.922761 199.278893 
L 284.146073 199.278893 
L 284.369385 199.027557 
L 284.592696 207.651557 
L 284.816008 207.651557 
L 285.03932 228.349157 
L 285.262631 189.907926 
L 285.485943 191.884062 
L 285.709255 195.330142 
L 285.932566 188.183126 
L 286.155878 189.660111 
L 286.37919 201.191336 
L 286.602501 190.842536 
L 286.825813 203.458511 
L 287.495748 187.392936 
L 287.71906 187.145121 
L 287.942371 178.273305 
L 288.165683 181.722905 
L 288.388994 167.924505 
L 288.612306 169.649305 
L 288.835618 160.77749 
L 289.058929 169.649305 
L 289.282241 169.40149 
L 289.505553 164.22709 
L 289.728864 175.071521 
L 289.952176 169.649305 
L 290.175488 172.85109 
L 290.622111 169.649305 
L 290.845423 174.823705 
L 291.068734 176.30069 
L 291.292046 184.676874 
L 291.515358 182.952074 
L 291.738669 179.502474 
L 292.185293 176.052874 
L 292.408604 181.227274 
L 292.631916 176.052874 
L 292.855228 179.502474 
L 293.301851 176.052874 
L 293.525163 176.052874 
L 293.748474 172.603274 
L 293.971786 172.603274 
L 294.195098 179.502474 
L 294.418409 182.952074 
L 294.641721 179.502474 
L 294.865033 181.227274 
L 295.088344 181.227274 
L 295.311656 182.952074 
L 295.534967 179.502474 
L 295.758279 181.47509 
L 295.981591 181.47509 
L 296.204902 179.502474 
L 296.651526 188.37429 
L 296.874837 193.54869 
L 297.098149 202.420505 
L 297.321461 204.145305 
L 297.544772 204.145305 
L 297.768084 207.842721 
L 298.438019 230.265121 
L 298.661331 228.540321 
L 298.884642 230.265121 
L 299.331266 249.485736 
L 299.554577 249.485736 
L 300.001201 240.613921 
L 300.224512 240.613921 
L 300.447824 258.109736 
L 300.671136 259.834536 
L 300.894447 255.889305 
L 301.117759 255.889305 
L 301.341071 250.46709 
L 301.564382 250.46709 
L 301.787694 252.439705 
L 302.457629 236.173058 
L 302.68094 236.173058 
L 302.904252 234.200443 
L 303.127564 235.382869 
L 303.350875 233.658069 
L 303.797499 237.107669 
L 304.02081 231.685453 
L 304.467434 244.301427 
L 304.690745 244.301427 
L 304.914057 237.107669 
L 305.137369 239.127027 
L 305.583992 214.685269 
L 305.807304 227.301243 
L 306.253927 213.255027 
L 306.477239 209.805427 
L 306.70055 223.309269 
L 306.923862 212.960469 
L 307.147174 217.887053 
L 307.370485 219.364038 
L 307.593797 211.969206 
L 308.04042 211.969206 
L 308.263732 208.271791 
L 308.487044 213.694006 
L 308.710355 208.271791 
L 309.156978 222.565822 
L 309.826913 208.519606 
L 310.273537 234.887238 
L 310.496848 238.336838 
L 310.72016 229.712838 
L 310.943472 226.263238 
L 311.166783 226.263238 
L 311.390095 217.639238 
L 311.613407 219.611853 
L 312.06003 200.143422 
L 312.283342 208.767422 
L 312.506653 212.464838 
L 312.729965 205.565638 
L 312.953277 212.464838 
L 313.176588 209.015238 
L 313.3999 210.740038 
L 313.623212 205.565638 
L 313.846523 205.565638 
L 314.293147 219.859669 
L 314.516458 223.309269 
L 314.73977 221.336653 
L 314.963082 223.309269 
L 315.409705 216.410069 
L 315.633017 209.805427 
L 315.856328 211.778043 
L 316.07964 206.355827 
L 316.302951 215.227643 
L 316.526263 216.952443 
L 316.972886 208.080627 
L 317.196198 209.805427 
L 317.41951 204.336469 
L 317.642821 208.080627 
L 317.866133 204.631027 
L 318.089445 220.649858 
L 318.312756 210.053243 
L 318.536068 212.025858 
L 318.75938 210.301058 
L 318.982691 210.301058 
L 319.206003 206.603643 
L 319.429315 219.172874 
L 319.875938 210.548874 
L 320.09925 207.099274 
L 320.322561 212.52149 
L 320.545873 212.52149 
L 320.769185 214.24629 
L 320.992496 208.824074 
L 321.215808 222.622474 
L 321.43912 219.172874 
L 321.662431 212.025858 
L 321.885743 215.475458 
L 322.109055 213.750658 
L 322.555678 217.200258 
L 323.002301 203.154043 
L 323.225613 215.723274 
L 323.448924 210.548874 
L 323.672236 215.97109 
L 323.895548 215.97109 
L 324.118859 232.237736 
L 324.342171 204.145305 
L 324.565483 217.69589 
L 324.788794 198.72309 
L 325.012106 230.512936 
L 325.235418 225.338536 
L 325.458729 223.613736 
L 325.682041 190.346905 
L 325.905353 206.117921 
L 326.128664 201.191336 
L 326.351976 209.815336 
L 326.575288 193.796505 
L 326.798599 190.346905 
L 327.245223 209.07189 
L 327.468534 203.89749 
L 327.691846 201.924874 
L 327.915158 211.292321 
L 328.138469 205.870105 
L 328.361781 221.14549 
L 328.585093 221.393305 
L 328.808404 215.97109 
L 329.031716 217.69589 
L 329.255028 229.76949 
L 329.478339 232.971274 
L 329.701651 231.246474 
L 330.148274 259.09109 
L 330.371586 252.19189 
L 330.594897 255.393674 
L 330.818209 260.81589 
L 331.264832 244.549243 
L 331.711456 260.320258 
L 331.934767 258.347643 
L 332.158079 260.320258 
L 332.381391 251.448443 
L 332.604702 268.696443 
L 332.828014 260.072443 
L 333.051326 257.805269 
L 333.274637 267.219458 
L 333.497949 244.301427 
L 333.721261 249.723643 
L 333.944572 247.751027 
L 334.167884 247.751027 
L 334.391196 242.282069 
L 334.614507 258.347643 
L 334.837819 262.045058 
L 335.061131 276.091274 
L 335.507754 284.467458 
L 335.731066 284.467458 
L 336.177689 297.03669 
L 336.401001 296.788874 
L 336.624312 291.366658 
L 336.847624 289.641858 
L 337.070935 285.944443 
L 337.294247 291.366658 
L 337.517559 291.366658 
L 337.74087 291.115323 
L 337.964182 291.115323 
L 338.410805 307.134154 
L 338.634117 303.684554 
L 338.857429 293.339274 
L 339.08074 293.339274 
L 339.304052 300.234954 
L 339.527364 303.684554 
L 339.750675 309.354585 
L 339.973987 304.183705 
L 340.42061 309.605921 
L 340.643922 307.633305 
L 340.867234 293.834905 
L 341.090545 295.31189 
L 341.313857 293.58709 
L 341.76048 303.684554 
L 341.983792 303.684554 
L 342.207104 307.134154 
L 342.430415 307.134154 
L 342.653727 312.308554 
L 342.877039 312.308554 
L 343.10035 298.262338 
L 343.323662 300.234954 
L 343.546973 305.65717 
L 343.993597 309.10677 
L 344.216908 309.10677 
L 344.44022 307.633305 
L 344.663532 284.96309 
L 344.886843 295.559705 
L 345.110155 281.51349 
L 345.333467 286.68789 
L 345.556778 297.284505 
L 345.78009 297.284505 
L 346.003402 284.715274 
L 346.226713 291.614474 
L 346.450025 291.614474 
L 346.673337 280.036505 
L 346.896648 285.210905 
L 347.343272 305.908505 
L 347.566583 298.76149 
L 347.789895 302.21109 
L 348.013207 293.339274 
L 348.236518 303.684554 
L 348.45983 285.944443 
L 348.683142 279.045243 
L 348.906453 286.192258 
L 349.129765 288.164874 
L 349.576388 279.293058 
L 349.7997 284.715274 
L 350.023012 279.540874 
L 350.246323 267.219458 
L 350.469635 268.944258 
L 350.692946 279.540874 
L 350.916258 303.436738 
L 351.13957 301.711938 
L 351.362881 287.417907 
L 351.586193 283.968307 
L 351.809505 276.774549 
L 352.256128 290.867507 
L 352.47944 289.142707 
L 352.702751 294.564923 
L 352.926063 287.123349 
L 353.149375 297.472149 
L 353.372686 297.472149 
L 353.595998 289.142707 
L 353.81931 289.142707 
L 354.042621 296.537538 
L 354.265933 294.564923 
L 354.489245 280.770043 
L 354.712556 285.944443 
L 354.935868 279.045243 
L 355.15918 289.390523 
L 355.382491 291.86229 
L 355.605803 298.76149 
L 355.829115 298.76149 
L 356.052426 302.21109 
L 356.275738 302.21109 
L 356.49905 303.93237 
L 356.722361 301.959754 
L 357.392296 301.959754 
L 358.062231 307.134154 
L 358.285543 315.758154 
L 358.508854 296.537538 
L 358.732166 296.537538 
L 358.955478 315.014707 
L 359.178789 304.123533 
L 359.402101 269.131902 
L 360.072036 257.309638 
L 360.295348 257.309638 
L 360.518659 258.786622 
L 360.741971 256.810486 
L 360.965283 264.208838 
L 361.188594 264.208838 
L 361.411906 259.034438 
L 361.635218 226.702217 
L 361.858529 217.33477 
L 362.081841 242.221897 
L 362.305153 242.221897 
L 362.528464 238.524481 
L 362.751776 238.524481 
L 362.975088 243.946697 
L 363.198399 238.524481 
L 363.421711 238.772297 
L 363.868334 211.912554 
L 364.091646 217.33477 
L 364.314957 229.652665 
L 364.538269 230.151817 
L 364.761581 226.454401 
L 364.984892 226.454401 
L 365.208204 247.148481 
L 365.431516 248.873281 
L 365.654827 248.873281 
L 365.878139 246.900665 
L 366.324762 259.764455 
L 366.548074 259.764455 
L 366.771386 268.636271 
L 366.994697 268.388455 
L 367.218009 277.012455 
L 367.441321 278.737255 
L 367.664632 292.783471 
L 367.887944 285.636455 
L 368.111256 290.810855 
L 368.557879 266.369097 
L 369.004502 266.369097 
L 369.227814 278.737255 
L 369.451126 277.012455 
L 369.674437 280.167497 
L 369.897749 258.974265 
L 370.344372 281.892297 
L 370.567684 271.047865 
L 370.790995 244.92805 
L 371.014307 267.598265 
L 371.237619 268.827434 
L 371.46093 277.451434 
L 371.907554 255.27685 
L 372.130865 264.396481 
L 372.354177 257.497281 
L 372.577489 257.745097 
L 372.8008 257.745097 
L 373.024112 257.497281 
L 373.247424 250.598081 
L 373.470735 257.745097 
L 373.917359 247.148481 
L 374.14067 247.148481 
L 374.363982 250.598081 
L 374.810605 243.698881 
L 375.033917 236.551865 
L 375.257229 234.57925 
L 375.48054 234.827065 
L 375.703852 238.276665 
L 375.927164 243.451065 
L 376.150475 243.451065 
L 376.373787 233.102265 
L 377.043722 249.415655 
L 377.267034 265.186671 
L 377.490345 259.764455 
L 377.713657 261.194697 
L 378.16028 250.350265 
L 378.383592 250.350265 
L 378.606903 258.974265 
L 378.830215 273.268297 
L 379.053527 262.671681 
L 379.276838 266.369097 
L 379.50015 273.562855 
L 379.723462 285.884271 
L 379.946773 278.442697 
L 380.170085 283.911655 
L 380.393397 274.993097 
L 380.616708 285.341897 
L 380.84002 248.625465 
L 381.063332 278.194881 
L 381.286643 277.947065 
L 381.509955 288.543681 
L 381.733267 285.094081 
L 381.956578 290.020665 
L 382.17989 289.77285 
L 382.403202 293.470265 
L 382.626513 293.470265 
L 382.849825 288.295865 
L 383.51976 295.985255 
L 383.743072 285.094081 
L 383.966383 297.415497 
L 384.189695 297.167681 
L 384.413007 297.167681 
L 384.636318 300.865097 
L 385.082941 273.268297 
L 385.306253 262.919497 
L 385.529565 295.985255 
L 385.752876 301.159655 
L 385.976188 293.965897 
L 386.1995 301.159655 
L 386.422811 288.791497 
L 386.646123 290.810855 
L 386.869435 282.434671 
L 387.092746 257.061822 
L 387.316058 251.887422 
L 387.53937 272.333686 
L 387.762681 275.535471 
L 387.985993 275.783286 
L 388.209305 272.085871 
L 388.432616 272.581502 
L 388.87924 246.713022 
L 389.102551 222.565822 
L 389.325863 248.437822 
L 389.549175 232.914622 
L 389.772486 250.410438 
L 389.995798 216.895791 
L 390.665733 246.217391 
L 390.889045 253.113071 
L 391.112356 240.497097 
L 391.335668 241.042991 
L 391.558979 228.721575 
L 391.782291 234.143791 
L 392.005603 216.353417 
L 392.452226 209.454217 
L 392.675538 195.655817 
L 392.898849 212.903817 
L 393.122161 219.803017 
L 393.792096 199.591139 
L 394.238719 199.591139 
L 394.462031 201.068123 
L 394.685343 206.738154 
L 394.908654 191.710585 
L 395.131966 191.710585 
L 395.801901 147.113601 
L 396.471836 157.710217 
L 396.695148 157.710217 
L 396.918459 156.279975 
L 397.141771 144.454191 
L 397.588394 165.151791 
L 398.035018 178.950191 
L 398.258329 172.050991 
L 398.481641 158.252591 
L 398.704952 175.748406 
L 398.928264 179.445822 
L 399.151576 180.922806 
L 399.374887 180.922806 
L 400.044822 156.279975 
L 400.268134 161.702191 
L 400.714757 131.590401 
L 400.938069 160.912001 
L 401.161381 145.636617 
L 401.831316 163.179175 
L 402.054627 161.159817 
L 402.277939 156.527791 
L 402.501251 166.876591 
L 402.724562 153.326006 
L 402.947874 158.748222 
L 403.171186 160.720838 
L 403.394497 153.326006 
L 403.617809 153.821638 
L 403.841121 153.821638 
L 404.064432 155.298622 
L 404.287744 160.720838 
L 404.511056 155.298622 
L 404.734367 154.317269 
L 404.957679 149.142869 
L 405.404302 162.941269 
L 405.627614 201.677058 
L 405.850925 210.301058 
L 406.074237 213.750658 
L 406.297549 212.025858 
L 406.52086 213.750658 
L 406.744172 210.301058 
L 406.967484 218.925058 
L 407.190795 222.374658 
L 407.414107 222.374658 
L 407.637419 217.200258 
L 407.86073 222.374658 
L 408.084042 224.099458 
L 408.753977 224.099458 
L 408.977289 222.374658 
L 409.2006 222.374658 
L 409.423912 227.549058 
L 409.647224 220.649858 
L 409.870535 229.273858 
L 410.093847 227.549058 
L 410.317159 228.778227 
L 410.54047 246.026227 
L 410.763782 242.576627 
L 410.987094 231.685453 
L 411.210405 230.208469 
L 411.433717 233.658069 
L 411.657029 231.685453 
L 411.88034 217.887053 
L 412.103652 219.859669 
L 412.326963 237.650043 
L 412.550275 235.925243 
L 412.773587 235.382869 
L 412.996898 240.557269 
L 413.22021 264.704469 
L 413.443522 262.731853 
L 413.666833 250.658253 
L 414.113457 269.631053 
L 414.336768 315.014707 
L 414.56008 309.545749 
L 415.006703 329.80437 
L 415.230015 335.226585 
L 415.453327 329.80437 
L 415.676638 331.281354 
L 416.346573 331.281354 
L 416.569885 336.70357 
L 416.793197 347.548001 
L 417.016508 321.18037 
L 417.23982 315.014707 
L 417.463132 315.014707 
L 417.686443 318.464307 
L 417.909755 306.096149 
L 418.133067 311.565107 
L 418.356378 304.371349 
L 418.57969 309.545749 
L 418.803002 296.041907 
L 419.026313 296.041907 
L 419.249625 306.886338 
L 419.696248 303.188923 
L 419.91956 299.491507 
L 420.142871 299.491507 
L 420.366183 302.646549 
L 420.589495 302.646549 
L 420.812806 291.115323 
L 421.036118 315.510338 
L 421.25943 315.510338 
L 421.482741 316.987323 
L 421.929365 279.976333 
L 422.152676 294.317107 
L 422.822611 280.224149 
L 423.045923 283.968307 
L 423.269235 283.968307 
L 423.492546 228.721575 
L 423.715858 268.448627 
L 423.93917 268.448627 
L 424.162481 258.843274 
L 424.385793 258.843274 
L 424.609105 241.595274 
L 424.832416 249.971458 
L 425.055728 205.126658 
L 425.27904 226.31989 
L 425.502351 210.301058 
L 425.725663 221.14549 
L 425.948974 211.044505 
L 426.172286 162.750105 
L 426.395598 155.60309 
L 427.065533 219.42069 
L 427.288844 222.87029 
L 427.512156 206.603643 
L 427.735468 212.025858 
L 427.958779 212.025858 
L 428.182091 222.622474 
L 428.405403 213.998474 
L 428.628714 213.998474 
L 428.852026 207.099274 
L 429.075338 213.998474 
L 429.521961 205.62229 
L 429.745273 198.72309 
L 429.968584 188.37429 
L 430.191896 202.668321 
L 430.638519 194.044321 
L 430.861831 202.668321 
L 431.085143 194.044321 
L 431.308454 194.044321 
L 431.531766 199.466536 
L 431.755078 190.346905 
L 431.978389 198.72309 
L 432.648324 185.962695 
L 432.871636 214.798573 
L 433.094947 213.073773 
L 433.318259 207.651557 
L 433.541571 216.771188 
L 433.988194 263.39744 
L 434.211506 257.975225 
L 434.434817 261.920456 
L 434.658129 261.920456 
L 434.881441 251.575176 
L 435.328064 267.389415 
L 435.551376 283.656061 
L 435.774687 256.49824 
L 436.221311 278.672825 
L 436.891246 262.961981 
L 437.114557 221.07115 
L 437.337869 245.466166 
L 437.561181 320.68048 
L 437.784492 306.138633 
L 438.007804 316.983064 
L 438.454427 306.138633 
L 438.677739 306.138633 
L 438.901051 329.053144 
L 439.124362 333.979729 
L 439.347674 325.603544 
L 439.570985 322.157464 
L 439.794297 327.57968 
L 440.017609 324.13008 
L 440.24092 322.40528 
L 440.687544 298.991618 
L 440.910855 304.413833 
L 441.134167 298.991618 
L 441.357479 298.991618 
L 441.58079 297.266818 
L 442.027414 316.544085 
L 442.250725 316.544085 
L 442.697349 330.590301 
L 442.92066 332.315101 
L 443.143972 327.140701 
L 443.367284 330.590301 
L 443.590595 313.342301 
L 443.813907 306.443101 
L 444.26053 327.080529 
L 444.483842 277.56048 
L 444.707154 311.808664 
L 444.930465 320.432664 
L 445.153777 307.863433 
L 445.377089 315.010449 
L 445.6004 294.312849 
L 446.047024 309.836049 
L 446.270335 301.212049 
L 446.493647 302.936849 
L 446.716958 302.936849 
L 446.94027 273.863064 
L 447.163582 277.312664 
L 447.386893 284.211864 
L 447.833517 265.239064 
L 448.056828 270.66128 
L 448.28014 268.688664 
L 448.503452 160.217428 
L 448.726763 217.430387 
L 448.950075 206.100233 
L 449.173387 208.863039 
L 449.396698 206.84368 
L 449.62001 206.595864 
L 449.843322 242.873316 
L 450.066633 178.067974 
L 450.289945 211.08347 
L 450.513257 220.203101 
L 450.736568 216.753501 
L 451.183192 199.00987 
L 451.406503 199.00987 
L 451.629815 184.42128 
L 451.853127 189.100049 
L 452.29975 211.770264 
L 452.523062 206.348049 
L 452.746373 229.018264 
L 452.969685 210.29328 
L 453.192996 205.413439 
L 453.416308 210.835654 
L 453.63962 184.719359 
L 453.862931 178.067974 
L 454.086243 151.157969 
L 454.309555 171.356418 
L 454.756178 171.356418 
L 454.97949 140.253366 
L 455.202801 146.656935 
L 455.426113 143.45515 
L 455.649425 143.45515 
L 455.872736 131.629366 
L 456.096048 137.738376 
L 456.31936 168.841428 
L 456.542671 163.419212 
L 456.765983 152.574781 
L 457.212606 169.574966 
L 457.435918 173.272381 
L 457.65923 174.997181 
L 457.882541 190.520381 
L 458.105853 191.997366 
L 458.329165 202.841797 
L 458.552476 197.419581 
L 458.9991 231.172135 
L 459.222411 236.59435 
L 459.445723 236.59435 
L 459.669035 225.997735 
L 459.892346 226.988997 
L 460.115658 226.988997 
L 460.562281 207.768381 
L 460.785593 207.768381 
L 461.232216 220.089797 
L 461.455528 220.089797 
L 461.678839 220.585428 
L 461.902151 220.585428 
L 462.125463 226.988997 
L 462.348774 226.988997 
L 462.572086 237.833428 
L 462.795398 232.411212 
L 463.018709 242.512197 
L 463.242021 231.228787 
L 463.465333 237.833428 
L 463.688644 248.724602 
L 463.911956 243.302387 
L 464.135268 240.596233 
L 464.358579 241.825402 
L 464.581891 278.046202 
L 465.028514 259.512381 
L 465.251826 254.585797 
L 465.475138 270.899187 
L 465.921761 270.899187 
L 466.145073 252.174202 
L 466.368384 264.247802 
L 466.591696 255.375987 
L 466.815008 253.899002 
L 467.038319 258.825587 
L 467.261631 260.008012 
L 467.484942 256.062781 
L 467.708254 247.934412 
L 467.931566 249.163581 
L 468.378189 249.163581 
L 468.601501 221.566781 
L 468.824812 211.465797 
L 469.048124 181.152935 
L 469.271436 224.272935 
L 469.718059 227.97035 
L 469.941371 199.58336 
L 470.164682 192.931976 
L 470.834617 202.346166 
L 471.057929 202.841797 
L 471.281241 201.116997 
L 471.504552 186.57515 
L 471.727864 181.152935 
L 471.951176 181.152935 
L 472.174487 182.877735 
L 472.397799 170.804135 
L 472.621111 179.67595 
L 472.844422 163.904935 
L 473.067734 163.904935 
L 473.291046 152.022498 
L 473.514357 157.692529 
L 473.737669 159.417329 
L 473.96098 141.425883 
L 474.184292 143.150683 
L 474.407604 125.902683 
L 474.630915 120.480467 
L 474.854227 125.902683 
L 475.077539 113.581267 
L 475.30085 87.414708 
L 475.524162 100.526314 
L 475.747474 91.654498 
L 475.970785 89.929698 
L 476.194097 80.810067 
L 476.417409 84.507483 
L 476.64072 75.635667 
L 476.864032 112.847729 
L 477.087344 114.572529 
L 477.310655 109.150314 
L 477.533967 114.572529 
L 477.757279 114.572529 
L 478.427214 86.232283 
L 478.873837 103.728098 
L 479.097149 96.828898 
L 479.32046 107.177698 
L 479.543772 103.728098 
L 479.767084 103.728098 
L 479.990395 96.581083 
L 480.213707 114.572529 
L 480.437019 110.875114 
L 480.66033 110.875114 
L 480.883642 126.646129 
L 481.106953 132.068345 
L 481.330265 132.068345 
L 481.553577 114.324714 
L 481.776888 141.748895 
L 482.0002 148.648095 
L 482.223512 147.83936 
L 482.446823 164.171295 
L 482.670135 202.094669 
L 482.893447 202.094669 
L 483.116758 196.111534 
L 483.34007 215.58492 
L 483.563382 208.68572 
L 483.786693 209.648529 
L 484.010005 231.000789 
L 484.233317 231.916854 
L 484.456628 229.38332 
L 484.67994 215.58492 
L 484.903252 218.118454 
L 485.126563 206.96444 
L 485.349875 211.222774 
L 485.573187 211.222774 
L 485.796498 190.78306 
L 486.01981 195.95746 
L 486.243122 190.021069 
L 486.466433 188.4036 
L 486.689745 188.4036 
L 487.35968 210.826 
L 487.582991 213.359534 
L 488.029615 235.520529 
L 488.252926 219.188594 
L 488.476238 221.82946 
L 488.69955 203.9268 
L 488.922861 207.3764 
L 489.146173 201.440009 
L 489.369485 201.440009 
L 489.592796 198.906474 
L 489.816108 198.09774 
L 490.03942 218.688009 
L 490.486043 200.631274 
L 490.932666 210.826 
L 491.155978 175.02068 
L 491.37929 163.909889 
L 491.602601 163.909889 
L 491.825913 159.651555 
L 492.049225 159.651555 
L 492.272536 129.52122 
L 492.495848 132.863489 
L 492.71916 132.054755 
L 492.942471 126.880355 
L 493.165783 126.880355 
L 493.389095 139.612135 
L 493.612406 142.24948 
L 493.835718 150.87348 
L 494.05903 150.111489 
L 494.505653 145.853155 
L 494.728964 151.836289 
L 494.952276 145.853155 
L 495.398899 145.853155 
L 495.622211 220.828289 
L 495.845523 145.853155 
L 496.515458 99.699035 
L 496.738769 124.897669 
L 496.962081 127.38446 
L 497.185393 108.565735 
L 497.408704 117.03566 
L 497.632016 109.374469 
L 497.855328 147.820654 
L 498.078639 128.03912 
L 498.301951 121.13992 
L 498.525263 121.13992 
L 498.971886 143.454989 
L 499.195198 144.21698 
L 499.418509 125.552329 
L 499.641821 132.451529 
L 499.865133 132.451529 
L 500.088444 114.548869 
L 500.311756 114.548869 
L 500.535068 120.48526 
L 500.758379 121.448069 
L 500.981691 109.4818 
L 501.205003 106.0322 
L 501.428314 105.116135 
L 501.651626 105.116135 
L 501.874937 106.68686 
L 502.098249 105.924869 
L 502.321561 119.569194 
L 502.544872 125.552329 
L 502.768184 126.468394 
L 503.214807 100.8578 
L 503.438119 112.9314 
L 503.661431 99.133 
L 503.884742 92.2338 
L 504.331366 66.669949 
L 504.554677 79.659615 
L 504.777989 76.210015 
L 505.224612 81.23034 
L 505.447924 68.895335 
L 505.894547 97.300869 
L 506.117859 104.200069 
L 506.341171 101.666535 
L 506.564482 82.95514 
L 506.787794 146.661889 
L 507.011106 136.42042 
L 507.457729 164.980029 
L 507.681041 176.899555 
L 507.904352 166.289349 
L 508.127664 117.998469 
L 508.350975 117.998469 
L 508.797599 165.068654 
L 509.02091 165.98472 
L 509.244222 160.048329 
L 509.690845 172.8804 
L 509.914157 161.619054 
L 510.137469 161.619054 
L 510.36078 159.08552 
L 510.584092 168.518254 
L 510.807404 171.967854 
L 511.030715 167.70952 
L 511.254027 175.417454 
L 511.477339 170.243054 
L 511.923962 181.400589 
L 512.147274 138.38792 
L 512.370585 166.944009 
L 512.593897 155.789994 
L 512.817209 161.773129 
L 513.04052 163.497929 
L 513.263832 170.243054 
L 513.487144 165.068654 
L 513.710455 155.63592 
L 513.933767 155.63592 
L 514.157079 161.619054 
L 514.38039 161.619054 
L 514.603702 158.169454 
L 514.827014 187.99164 
L 515.050325 180.330449 
L 515.273637 183.780049 
L 515.496948 185.504849 
L 515.943572 197.424374 
L 516.166883 165.56924 
L 516.390195 192.404049 
L 516.613507 163.84444 
L 516.836818 170.74364 
L 517.06013 159.632849 
L 517.283442 185.504849 
L 517.506753 185.504849 
L 517.730065 191.44124 
L 517.953377 191.44124 
L 518.176688 242.35428 
L 518.4 243.163014 
L 518.4 243.163014 
" style="fill:none;stroke:#4c72b0;stroke-linecap:round;stroke-width:1.75;"/>
   </g>
   <g id="patch_3">
    <path d="M 72 356.4 
L 518.4 356.4 
" style="fill:none;"/>
   </g>
   <g id="patch_4">
    <path d="M 72 39.6 
L 518.4 39.6 
" style="fill:none;"/>
   </g>
   <g id="patch_5">
    <path d="M 72 356.4 
L 72 39.6 
" style="fill:none;"/>
   </g>
   <g id="patch_6">
    <path d="M 518.4 356.4 
L 518.4 39.6 
" style="fill:none;"/>
   </g>
   <g id="text_16">
    <!-- pb - 13.279328819947992 * FG -->
    <defs>
     <path d="M 9.125 0 
L 9.125 10.6875 
L 18.65625 10.6875 
L 18.65625 0 
z
" id="LiberationSans-2e"/>
     <path d="M 5.03125 34.71875 
Q 5.03125 42.78125 7.203125 49.265625 
Q 9.375 55.765625 13.6875 60.328125 
Q 18.015625 64.890625 24.40625 67.359375 
Q 30.8125 69.828125 39.265625 69.828125 
Q 45.609375 69.828125 50.390625 68.703125 
Q 55.171875 67.578125 58.6875 65.46875 
Q 62.203125 63.375 64.640625 60.375 
Q 67.09375 57.375 68.796875 53.609375 
L 59.90625 50.984375 
Q 58.640625 53.515625 56.859375 55.59375 
Q 55.078125 57.671875 52.53125 59.125 
Q 50 60.59375 46.65625 61.390625 
Q 43.3125 62.203125 39.015625 62.203125 
Q 32.765625 62.203125 28.140625 60.25 
Q 23.53125 58.296875 20.5 54.6875 
Q 17.484375 51.078125 15.984375 46 
Q 14.5 40.921875 14.5 34.71875 
Q 14.5 28.515625 16.109375 23.359375 
Q 17.71875 18.21875 20.890625 14.484375 
Q 24.078125 10.75 28.78125 8.671875 
Q 33.5 6.59375 39.703125 6.59375 
Q 43.75 6.59375 47.171875 7.265625 
Q 50.59375 7.953125 53.34375 9.046875 
Q 56.109375 10.15625 58.203125 11.5 
Q 60.296875 12.84375 61.71875 14.203125 
L 61.71875 26.609375 
L 41.15625 26.609375 
L 41.15625 34.421875 
L 70.3125 34.421875 
L 70.3125 10.6875 
Q 68.015625 8.34375 64.90625 6.21875 
Q 61.8125 4.109375 57.953125 2.484375 
Q 54.109375 0.875 49.515625 -0.046875 
Q 44.921875 -0.984375 39.703125 -0.984375 
Q 31 -0.984375 24.5 1.671875 
Q 18.015625 4.34375 13.6875 9.109375 
Q 9.375 13.875 7.203125 20.40625 
Q 5.03125 26.953125 5.03125 34.71875 
" id="LiberationSans-47"/>
     <path d="M 17.53125 61.1875 
L 17.53125 35.59375 
L 55.90625 35.59375 
L 55.90625 27.875 
L 17.53125 27.875 
L 17.53125 0 
L 8.203125 0 
L 8.203125 68.796875 
L 57.078125 68.796875 
L 57.078125 61.1875 
z
" id="LiberationSans-46"/>
     <path d="M 51.421875 26.65625 
Q 51.421875 20.65625 50.4375 15.578125 
Q 49.46875 10.5 47.1875 6.828125 
Q 44.921875 3.171875 41.1875 1.09375 
Q 37.453125 -0.984375 31.984375 -0.984375 
Q 26.3125 -0.984375 22.0625 1.171875 
Q 17.828125 3.328125 15.578125 8.203125 
L 15.328125 8.203125 
Q 15.375 8.109375 15.40625 7.328125 
Q 15.4375 6.546875 15.453125 5.375 
Q 15.484375 4.203125 15.5 2.75 
Q 15.53125 1.3125 15.53125 -0.09375 
L 15.53125 -20.75 
L 6.734375 -20.75 
L 6.734375 42.046875 
Q 6.734375 43.953125 6.703125 45.703125 
Q 6.6875 47.46875 6.640625 48.90625 
Q 6.59375 50.34375 6.546875 51.359375 
Q 6.5 52.390625 6.453125 52.828125 
L 14.9375 52.828125 
Q 14.984375 52.6875 15.0625 51.796875 
Q 15.140625 50.921875 15.203125 49.671875 
Q 15.28125 48.4375 15.359375 47.015625 
Q 15.4375 45.609375 15.4375 44.34375 
L 15.625 44.34375 
Q 16.84375 46.875 18.40625 48.65625 
Q 19.96875 50.4375 21.96875 51.578125 
Q 23.96875 52.734375 26.4375 53.25 
Q 28.90625 53.765625 31.984375 53.765625 
Q 37.453125 53.765625 41.1875 51.8125 
Q 44.921875 49.859375 47.1875 46.3125 
Q 49.46875 42.78125 50.4375 37.765625 
Q 51.421875 32.765625 51.421875 26.65625 
M 42.1875 26.46875 
Q 42.1875 31.34375 41.59375 35.15625 
Q 41.015625 38.96875 39.578125 41.59375 
Q 38.140625 44.234375 35.734375 45.59375 
Q 33.34375 46.96875 29.734375 46.96875 
Q 26.8125 46.96875 24.21875 46.140625 
Q 21.625 45.3125 19.703125 42.96875 
Q 17.78125 40.625 16.65625 36.5 
Q 15.53125 32.375 15.53125 25.78125 
Q 15.53125 20.171875 16.453125 16.28125 
Q 17.390625 12.40625 19.171875 10.015625 
Q 20.953125 7.625 23.578125 6.5625 
Q 26.21875 5.515625 29.640625 5.515625 
Q 33.296875 5.515625 35.71875 6.921875 
Q 38.140625 8.34375 39.578125 11.03125 
Q 41.015625 13.71875 41.59375 17.59375 
Q 42.1875 21.484375 42.1875 26.46875 
" id="LiberationSans-70"/>
     <path d="M 22.265625 54.390625 
L 35.15625 59.421875 
L 37.359375 52.984375 
L 23.578125 49.421875 
L 32.625 37.203125 
L 26.8125 33.6875 
L 19.484375 46.296875 
L 11.859375 33.796875 
L 6.0625 37.3125 
L 15.28125 49.421875 
L 1.609375 52.984375 
L 3.8125 59.515625 
L 16.84375 54.296875 
L 16.265625 68.796875 
L 22.90625 68.796875 
z
" id="LiberationSans-2a"/>
     <path d="M 51.421875 26.65625 
Q 51.421875 -0.984375 31.984375 -0.984375 
Q 25.984375 -0.984375 22 1.1875 
Q 18.015625 3.375 15.53125 8.203125 
L 15.4375 8.203125 
Q 15.4375 6.9375 15.359375 5.5625 
Q 15.28125 4.203125 15.203125 3.03125 
Q 15.140625 1.859375 15.0625 1.03125 
Q 14.984375 0.203125 14.9375 0 
L 6.453125 0 
Q 6.5 0.4375 6.546875 1.484375 
Q 6.59375 2.546875 6.640625 4 
Q 6.6875 5.46875 6.703125 7.21875 
Q 6.734375 8.984375 6.734375 10.890625 
L 6.734375 72.46875 
L 15.53125 72.46875 
L 15.53125 51.8125 
Q 15.53125 50.34375 15.5 49 
Q 15.484375 47.65625 15.4375 46.625 
Q 15.375 45.40625 15.328125 44.34375 
L 15.53125 44.34375 
Q 17.96875 49.421875 22 51.609375 
Q 26.03125 53.8125 31.984375 53.8125 
Q 42 53.8125 46.703125 47.0625 
Q 51.421875 40.328125 51.421875 26.65625 
M 42.1875 26.375 
Q 42.1875 31.84375 41.5 35.75 
Q 40.828125 39.65625 39.3125 42.15625 
Q 37.796875 44.671875 35.453125 45.84375 
Q 33.109375 47.015625 29.734375 47.015625 
Q 26.265625 47.015625 23.609375 45.890625 
Q 20.953125 44.78125 19.171875 42.28125 
Q 17.390625 39.796875 16.453125 35.734375 
Q 15.53125 31.6875 15.53125 25.828125 
Q 15.53125 20.171875 16.453125 16.3125 
Q 17.390625 12.453125 19.171875 10.03125 
Q 20.953125 7.625 23.578125 6.5625 
Q 26.21875 5.515625 29.640625 5.515625 
Q 32.859375 5.515625 35.203125 6.640625 
Q 37.546875 7.765625 39.109375 10.25 
Q 40.671875 12.75 41.421875 16.71875 
Q 42.1875 20.703125 42.1875 26.375 
" id="LiberationSans-62"/>
    </defs>
    <g style="fill:#262626;" transform="translate(210.80625 34.6)scale(0.12 -0.12)">
     <use xlink:href="#LiberationSans-70"/>
     <use x="55.615234375" xlink:href="#LiberationSans-62"/>
     <use x="111.23046875" xlink:href="#LiberationSans-20"/>
     <use x="139.013671875" xlink:href="#LiberationSans-2d"/>
     <use x="172.314453125" xlink:href="#LiberationSans-20"/>
     <use x="200.09765625" xlink:href="#LiberationSans-31"/>
     <use x="255.712890625" xlink:href="#LiberationSans-33"/>
     <use x="311.328125" xlink:href="#LiberationSans-2e"/>
     <use x="339.111328125" xlink:href="#LiberationSans-32"/>
     <use x="394.7265625" xlink:href="#LiberationSans-37"/>
     <use x="450.341796875" xlink:href="#LiberationSans-39"/>
     <use x="505.95703125" xlink:href="#LiberationSans-33"/>
     <use x="561.572265625" xlink:href="#LiberationSans-32"/>
     <use x="617.1875" xlink:href="#LiberationSans-38"/>
     <use x="672.802734375" xlink:href="#LiberationSans-38"/>
     <use x="728.41796875" xlink:href="#LiberationSans-31"/>
     <use x="784.033203125" xlink:href="#LiberationSans-39"/>
     <use x="839.6484375" xlink:href="#LiberationSans-39"/>
     <use x="895.263671875" xlink:href="#LiberationSans-34"/>
     <use x="950.87890625" xlink:href="#LiberationSans-37"/>
     <use x="1006.494140625" xlink:href="#LiberationSans-39"/>
     <use x="1062.109375" xlink:href="#LiberationSans-39"/>
     <use x="1117.724609375" xlink:href="#LiberationSans-32"/>
     <use x="1173.33984375" xlink:href="#LiberationSans-20"/>
     <use x="1201.123046875" xlink:href="#LiberationSans-2a"/>
     <use x="1240.0390625" xlink:href="#LiberationSans-20"/>
     <use x="1267.822265625" xlink:href="#LiberationSans-46"/>
     <use x="1328.90625" xlink:href="#LiberationSans-47"/>
    </g>
   </g>
  </g>
 </g>
 <defs>
  <clipPath id="p0b3413bca6">
   <rect height="316.8" width="446.4" x="72.0" y="39.6"/>
  </clipPath>
 </defs>
</svg>
