<?xml version="1.0" encoding="utf-8" standalone="no"?>
<!DOCTYPE svg PUBLIC "-//W3C//DTD SVG 1.1//EN"
  "http://www.w3.org/Graphics/SVG/1.1/DTD/svg11.dtd">
<!-- Created with matplotlib (http://matplotlib.org/) -->
<svg height="396pt" version="1.1" viewBox="0 0 576 396" width="576pt" xmlns="http://www.w3.org/2000/svg" xmlns:xlink="http://www.w3.org/1999/xlink">
 <defs>
  <style type="text/css">
*{stroke-linecap:butt;stroke-linejoin:round;stroke-miterlimit:100000;}
  </style>
 </defs>
 <g id="figure_1">
  <g id="patch_1">
   <path d="M 0 396 
L 576 396 
L 576 0 
L 0 0 
z
" style="fill:#ffffff;"/>
  </g>
  <g id="axes_1">
   <g id="patch_2">
    <path d="M 72 356.4 
L 518.4 356.4 
L 518.4 39.6 
L 72 39.6 
z
" style="fill:#eaeaf2;"/>
   </g>
   <g id="matplotlib.axis_1">
    <g id="xtick_1">
     <g id="line2d_1">
      <path clip-path="url(#paf9afb1b77)" d="M 72 356.4 
L 72 39.6 
" style="fill:none;stroke:#ffffff;stroke-linecap:round;"/>
     </g>
     <g id="line2d_2"/>
     <g id="line2d_3"/>
     <g id="text_1">
      <!-- 2016-09-29 14:26:00 -->
      <defs>
       <path d="M 5.03125 0 
L 5.03125 6.203125 
Q 7.515625 11.921875 11.109375 16.28125 
Q 14.703125 20.65625 18.65625 24.1875 
Q 22.609375 27.734375 26.484375 30.765625 
Q 30.375 33.796875 33.5 36.8125 
Q 36.625 39.84375 38.546875 43.15625 
Q 40.484375 46.484375 40.484375 50.6875 
Q 40.484375 53.609375 39.59375 55.828125 
Q 38.71875 58.0625 37.0625 59.5625 
Q 35.40625 61.078125 33.078125 61.828125 
Q 30.765625 62.59375 27.9375 62.59375 
Q 25.296875 62.59375 22.96875 61.859375 
Q 20.65625 61.140625 18.84375 59.671875 
Q 17.046875 58.203125 15.890625 56.03125 
Q 14.75 53.859375 14.40625 50.984375 
L 5.421875 51.8125 
Q 5.859375 55.515625 7.46875 58.78125 
Q 9.078125 62.0625 11.90625 64.53125 
Q 14.75 67 18.71875 68.40625 
Q 22.703125 69.828125 27.9375 69.828125 
Q 33.0625 69.828125 37.0625 68.609375 
Q 41.0625 67.390625 43.8125 64.984375 
Q 46.578125 62.59375 48.046875 59.078125 
Q 49.515625 55.5625 49.515625 50.984375 
Q 49.515625 47.515625 48.265625 44.390625 
Q 47.015625 41.265625 44.9375 38.421875 
Q 42.875 35.59375 40.140625 32.953125 
Q 37.40625 30.328125 34.421875 27.8125 
Q 31.453125 25.296875 28.421875 22.828125 
Q 25.390625 20.359375 22.71875 17.859375 
Q 20.0625 15.375 17.96875 12.8125 
Q 15.875 10.25 14.703125 7.46875 
L 50.59375 7.46875 
L 50.59375 0 
z
" id="LiberationSans-32"/>
       <path d="M 7.625 0 
L 7.625 7.46875 
L 25.140625 7.46875 
L 25.140625 60.40625 
L 9.625 49.3125 
L 9.625 57.625 
L 25.875 68.796875 
L 33.984375 68.796875 
L 33.984375 7.46875 
L 50.734375 7.46875 
L 50.734375 0 
z
" id="LiberationSans-31"/>
       <path d="M 51.703125 34.421875 
Q 51.703125 24.515625 49.828125 17.75 
Q 47.953125 10.984375 44.703125 6.8125 
Q 41.453125 2.640625 37.0625 0.828125 
Q 32.671875 -0.984375 27.6875 -0.984375 
Q 22.65625 -0.984375 18.3125 0.828125 
Q 13.96875 2.640625 10.765625 6.78125 
Q 7.5625 10.9375 5.734375 17.703125 
Q 3.90625 24.46875 3.90625 34.421875 
Q 3.90625 44.828125 5.734375 51.640625 
Q 7.5625 58.453125 10.78125 62.5 
Q 14.015625 66.546875 18.40625 68.1875 
Q 22.796875 69.828125 27.984375 69.828125 
Q 32.90625 69.828125 37.21875 68.1875 
Q 41.546875 66.546875 44.765625 62.5 
Q 48 58.453125 49.84375 51.640625 
Q 51.703125 44.828125 51.703125 34.421875 
M 42.78125 34.421875 
Q 42.78125 42.625 41.796875 48.0625 
Q 40.828125 53.515625 38.921875 56.765625 
Q 37.015625 60.015625 34.25 61.359375 
Q 31.5 62.703125 27.984375 62.703125 
Q 24.265625 62.703125 21.4375 61.328125 
Q 18.609375 59.96875 16.671875 56.71875 
Q 14.75 53.46875 13.765625 48.015625 
Q 12.796875 42.578125 12.796875 34.421875 
Q 12.796875 26.515625 13.796875 21.09375 
Q 14.796875 15.671875 16.71875 12.375 
Q 18.65625 9.078125 21.4375 7.640625 
Q 24.21875 6.203125 27.78125 6.203125 
Q 31.25 6.203125 34.03125 7.640625 
Q 36.8125 9.078125 38.734375 12.375 
Q 40.671875 15.671875 41.71875 21.09375 
Q 42.78125 26.515625 42.78125 34.421875 
" id="LiberationSans-30"/>
       <path d="M 50.875 35.796875 
Q 50.875 26.609375 49.140625 19.703125 
Q 47.40625 12.796875 44.1875 8.203125 
Q 40.96875 3.609375 36.34375 1.3125 
Q 31.734375 -0.984375 25.984375 -0.984375 
Q 22.015625 -0.984375 18.84375 -0.171875 
Q 15.671875 0.640625 13.171875 2.34375 
Q 10.6875 4.046875 8.921875 6.78125 
Q 7.171875 9.515625 6.109375 13.375 
L 14.5 14.703125 
Q 15.875 10.25 18.78125 8.171875 
Q 21.6875 6.109375 26.125 6.109375 
Q 29.6875 6.109375 32.640625 7.78125 
Q 35.59375 9.46875 37.671875 12.84375 
Q 39.75 16.21875 40.921875 21.296875 
Q 42.09375 26.375 42.1875 33.203125 
Q 41.15625 30.90625 39.375 29.09375 
Q 37.59375 27.296875 35.328125 26.046875 
Q 33.0625 24.8125 30.421875 24.140625 
Q 27.78125 23.484375 25.09375 23.484375 
Q 20.40625 23.484375 16.625 25.171875 
Q 12.84375 26.859375 10.203125 29.875 
Q 7.5625 32.90625 6.125 37.171875 
Q 4.6875 41.453125 4.6875 46.6875 
Q 4.6875 52 6.21875 56.296875 
Q 7.765625 60.59375 10.6875 63.59375 
Q 13.625 66.609375 17.890625 68.21875 
Q 22.171875 69.828125 27.59375 69.828125 
Q 39.0625 69.828125 44.96875 61.328125 
Q 50.875 52.828125 50.875 35.796875 
M 41.3125 44.28125 
Q 41.3125 48.09375 40.40625 51.453125 
Q 39.5 54.828125 37.71875 57.3125 
Q 35.9375 59.8125 33.328125 61.25 
Q 30.71875 62.703125 27.296875 62.703125 
Q 24.125 62.703125 21.578125 61.578125 
Q 19.046875 60.453125 17.28125 58.375 
Q 15.53125 56.296875 14.578125 53.3125 
Q 13.625 50.34375 13.625 46.6875 
Q 13.625 43.21875 14.46875 40.234375 
Q 15.328125 37.25 17.03125 35.078125 
Q 18.75 32.90625 21.28125 31.65625 
Q 23.828125 30.421875 27.203125 30.421875 
Q 29.640625 30.421875 32.15625 31.25 
Q 34.671875 32.078125 36.6875 33.78125 
Q 38.71875 35.5 40.015625 38.109375 
Q 41.3125 40.71875 41.3125 44.28125 
" id="LiberationSans-39"/>
       <path d="M 9.125 42.71875 
L 9.125 52.828125 
L 18.65625 52.828125 
L 18.65625 42.71875 
z
M 9.125 0 
L 9.125 10.109375 
L 18.65625 10.109375 
L 18.65625 0 
z
" id="LiberationSans-3a"/>
       <path d="M 43.015625 15.578125 
L 43.015625 0 
L 34.71875 0 
L 34.71875 15.578125 
L 2.296875 15.578125 
L 2.296875 22.40625 
L 33.796875 68.796875 
L 43.015625 68.796875 
L 43.015625 22.515625 
L 52.6875 22.515625 
L 52.6875 15.578125 
z
M 34.71875 58.890625 
Q 34.625 58.640625 34.234375 57.9375 
Q 33.84375 57.234375 33.34375 56.34375 
Q 32.859375 55.46875 32.34375 54.5625 
Q 31.84375 53.65625 31.453125 53.078125 
L 13.8125 27.09375 
Q 13.578125 26.703125 13.109375 26.0625 
Q 12.640625 25.4375 12.15625 24.78125 
Q 11.671875 24.125 11.171875 23.484375 
Q 10.6875 22.859375 10.40625 22.515625 
L 34.71875 22.515625 
z
" id="LiberationSans-34"/>
       <path id="LiberationSans-20"/>
       <path d="M 4.4375 22.65625 
L 4.4375 30.46875 
L 28.859375 30.46875 
L 28.859375 22.65625 
z
" id="LiberationSans-2d"/>
       <path d="M 51.21875 22.515625 
Q 51.21875 17.328125 49.78125 13 
Q 48.34375 8.6875 45.53125 5.578125 
Q 42.71875 2.484375 38.5625 0.75 
Q 34.421875 -0.984375 29 -0.984375 
Q 23 -0.984375 18.5 1.3125 
Q 14.015625 3.609375 11.03125 7.921875 
Q 8.0625 12.25 6.5625 18.53125 
Q 5.078125 24.8125 5.078125 32.8125 
Q 5.078125 42 6.765625 48.921875 
Q 8.453125 55.859375 11.625 60.5 
Q 14.796875 65.140625 19.359375 67.484375 
Q 23.921875 69.828125 29.6875 69.828125 
Q 33.203125 69.828125 36.28125 69.09375 
Q 39.359375 68.359375 41.875 66.71875 
Q 44.390625 65.09375 46.28125 62.40625 
Q 48.1875 59.71875 49.3125 55.8125 
L 40.921875 54.296875 
Q 39.546875 58.734375 36.546875 60.71875 
Q 33.546875 62.703125 29.59375 62.703125 
Q 25.984375 62.703125 23.046875 60.984375 
Q 20.125 59.28125 18.0625 55.875 
Q 16.015625 52.484375 14.90625 47.359375 
Q 13.8125 42.234375 13.8125 35.40625 
Q 16.21875 39.84375 20.5625 42.15625 
Q 24.90625 44.484375 30.515625 44.484375 
Q 35.203125 44.484375 39.015625 42.96875 
Q 42.828125 41.453125 45.53125 38.59375 
Q 48.25 35.75 49.734375 31.671875 
Q 51.21875 27.59375 51.21875 22.515625 
M 42.28125 22.125 
Q 42.28125 25.6875 41.40625 28.5625 
Q 40.53125 31.453125 38.765625 33.46875 
Q 37.015625 35.5 34.421875 36.59375 
Q 31.84375 37.703125 28.421875 37.703125 
Q 26.03125 37.703125 23.578125 36.984375 
Q 21.140625 36.28125 19.15625 34.6875 
Q 17.1875 33.109375 15.9375 30.515625 
Q 14.703125 27.9375 14.703125 24.21875 
Q 14.703125 20.40625 15.671875 17.109375 
Q 16.65625 13.8125 18.484375 11.375 
Q 20.3125 8.9375 22.890625 7.515625 
Q 25.484375 6.109375 28.71875 6.109375 
Q 31.890625 6.109375 34.40625 7.203125 
Q 36.921875 8.296875 38.671875 10.375 
Q 40.4375 12.453125 41.359375 15.421875 
Q 42.28125 18.40625 42.28125 22.125 
" id="LiberationSans-36"/>
      </defs>
      <g style="fill:#262626;" transform="translate(25.5765625 370.646875)scale(0.1 -0.1)">
       <use xlink:href="#LiberationSans-32"/>
       <use x="55.615234375" xlink:href="#LiberationSans-30"/>
       <use x="111.23046875" xlink:href="#LiberationSans-31"/>
       <use x="166.845703125" xlink:href="#LiberationSans-36"/>
       <use x="222.4609375" xlink:href="#LiberationSans-2d"/>
       <use x="255.76171875" xlink:href="#LiberationSans-30"/>
       <use x="311.376953125" xlink:href="#LiberationSans-39"/>
       <use x="366.9921875" xlink:href="#LiberationSans-2d"/>
       <use x="400.29296875" xlink:href="#LiberationSans-32"/>
       <use x="455.908203125" xlink:href="#LiberationSans-39"/>
       <use x="511.5234375" xlink:href="#LiberationSans-20"/>
       <use x="539.306640625" xlink:href="#LiberationSans-31"/>
       <use x="594.921875" xlink:href="#LiberationSans-34"/>
       <use x="650.537109375" xlink:href="#LiberationSans-3a"/>
       <use x="678.3203125" xlink:href="#LiberationSans-32"/>
       <use x="733.935546875" xlink:href="#LiberationSans-36"/>
       <use x="789.55078125" xlink:href="#LiberationSans-3a"/>
       <use x="817.333984375" xlink:href="#LiberationSans-30"/>
       <use x="872.94921875" xlink:href="#LiberationSans-30"/>
      </g>
     </g>
    </g>
    <g id="xtick_2">
     <g id="line2d_4">
      <path clip-path="url(#paf9afb1b77)" d="M 183.655828 356.4 
L 183.655828 39.6 
" style="fill:none;stroke:#ffffff;stroke-linecap:round;"/>
     </g>
     <g id="line2d_5"/>
     <g id="line2d_6"/>
     <g id="text_2">
      <!-- 2016-10-10 11:12:00 -->
      <g style="fill:#262626;" transform="translate(137.232390414 370.646875)scale(0.1 -0.1)">
       <use xlink:href="#LiberationSans-32"/>
       <use x="55.615234375" xlink:href="#LiberationSans-30"/>
       <use x="111.23046875" xlink:href="#LiberationSans-31"/>
       <use x="166.845703125" xlink:href="#LiberationSans-36"/>
       <use x="222.4609375" xlink:href="#LiberationSans-2d"/>
       <use x="255.76171875" xlink:href="#LiberationSans-31"/>
       <use x="311.376953125" xlink:href="#LiberationSans-30"/>
       <use x="366.9921875" xlink:href="#LiberationSans-2d"/>
       <use x="400.29296875" xlink:href="#LiberationSans-31"/>
       <use x="455.908203125" xlink:href="#LiberationSans-30"/>
       <use x="511.5234375" xlink:href="#LiberationSans-20"/>
       <use x="539.306640625" xlink:href="#LiberationSans-31"/>
       <use x="594.921875" xlink:href="#LiberationSans-31"/>
       <use x="650.537109375" xlink:href="#LiberationSans-3a"/>
       <use x="678.3203125" xlink:href="#LiberationSans-31"/>
       <use x="733.935546875" xlink:href="#LiberationSans-32"/>
       <use x="789.55078125" xlink:href="#LiberationSans-3a"/>
       <use x="817.333984375" xlink:href="#LiberationSans-30"/>
       <use x="872.94921875" xlink:href="#LiberationSans-30"/>
      </g>
     </g>
    </g>
    <g id="xtick_3">
     <g id="line2d_7">
      <path clip-path="url(#paf9afb1b77)" d="M 295.311656 356.4 
L 295.311656 39.6 
" style="fill:none;stroke:#ffffff;stroke-linecap:round;"/>
     </g>
     <g id="line2d_8"/>
     <g id="line2d_9"/>
     <g id="text_3">
      <!-- 2016-10-11 21:43:00 -->
      <defs>
       <path d="M 51.21875 19 
Q 51.21875 14.265625 49.671875 10.546875 
Q 48.140625 6.84375 45.1875 4.265625 
Q 42.234375 1.703125 37.859375 0.359375 
Q 33.5 -0.984375 27.875 -0.984375 
Q 21.484375 -0.984375 17.109375 0.609375 
Q 12.75 2.203125 9.90625 4.8125 
Q 7.078125 7.421875 5.65625 10.765625 
Q 4.25 14.109375 3.8125 17.671875 
L 12.890625 18.5 
Q 13.28125 15.765625 14.328125 13.515625 
Q 15.375 11.28125 17.1875 9.671875 
Q 19 8.0625 21.625 7.171875 
Q 24.265625 6.296875 27.875 6.296875 
Q 34.515625 6.296875 38.296875 9.5625 
Q 42.09375 12.84375 42.09375 19.28125 
Q 42.09375 23.09375 40.40625 25.40625 
Q 38.71875 27.734375 36.203125 29.03125 
Q 33.6875 30.328125 30.734375 30.765625 
Q 27.78125 31.203125 25.296875 31.203125 
L 20.3125 31.203125 
L 20.3125 38.8125 
L 25.09375 38.8125 
Q 27.59375 38.8125 30.265625 39.328125 
Q 32.953125 39.84375 35.171875 41.1875 
Q 37.40625 42.53125 38.84375 44.828125 
Q 40.28125 47.125 40.28125 50.6875 
Q 40.28125 56.203125 37.03125 59.390625 
Q 33.796875 62.59375 27.390625 62.59375 
Q 21.578125 62.59375 17.984375 59.609375 
Q 14.40625 56.640625 13.8125 51.21875 
L 4.984375 51.90625 
Q 5.515625 56.453125 7.46875 59.8125 
Q 9.421875 63.1875 12.421875 65.40625 
Q 15.4375 67.625 19.28125 68.71875 
Q 23.140625 69.828125 27.484375 69.828125 
Q 33.25 69.828125 37.390625 68.375 
Q 41.546875 66.9375 44.1875 64.46875 
Q 46.828125 62.015625 48.0625 58.6875 
Q 49.3125 55.375 49.3125 51.609375 
Q 49.3125 48.578125 48.484375 45.9375 
Q 47.65625 43.3125 45.890625 41.203125 
Q 44.140625 39.109375 41.421875 37.59375 
Q 38.71875 36.078125 34.90625 35.296875 
L 34.90625 35.109375 
Q 39.0625 34.671875 42.140625 33.21875 
Q 45.21875 31.78125 47.21875 29.625 
Q 49.21875 27.484375 50.21875 24.75 
Q 51.21875 22.015625 51.21875 19 
" id="LiberationSans-33"/>
      </defs>
      <g style="fill:#262626;" transform="translate(248.888218328 370.646875)scale(0.1 -0.1)">
       <use xlink:href="#LiberationSans-32"/>
       <use x="55.615234375" xlink:href="#LiberationSans-30"/>
       <use x="111.23046875" xlink:href="#LiberationSans-31"/>
       <use x="166.845703125" xlink:href="#LiberationSans-36"/>
       <use x="222.4609375" xlink:href="#LiberationSans-2d"/>
       <use x="255.76171875" xlink:href="#LiberationSans-31"/>
       <use x="311.376953125" xlink:href="#LiberationSans-30"/>
       <use x="366.9921875" xlink:href="#LiberationSans-2d"/>
       <use x="400.29296875" xlink:href="#LiberationSans-31"/>
       <use x="455.908203125" xlink:href="#LiberationSans-31"/>
       <use x="511.5234375" xlink:href="#LiberationSans-20"/>
       <use x="539.306640625" xlink:href="#LiberationSans-32"/>
       <use x="594.921875" xlink:href="#LiberationSans-31"/>
       <use x="650.537109375" xlink:href="#LiberationSans-3a"/>
       <use x="678.3203125" xlink:href="#LiberationSans-34"/>
       <use x="733.935546875" xlink:href="#LiberationSans-33"/>
       <use x="789.55078125" xlink:href="#LiberationSans-3a"/>
       <use x="817.333984375" xlink:href="#LiberationSans-30"/>
       <use x="872.94921875" xlink:href="#LiberationSans-30"/>
      </g>
     </g>
    </g>
    <g id="xtick_4">
     <g id="line2d_10">
      <path clip-path="url(#paf9afb1b77)" d="M 406.967484 356.4 
L 406.967484 39.6 
" style="fill:none;stroke:#ffffff;stroke-linecap:round;"/>
     </g>
     <g id="line2d_11"/>
     <g id="line2d_12"/>
     <g id="text_4">
      <!-- 2016-10-13 10:14:00 -->
      <g style="fill:#262626;" transform="translate(360.544046242 370.646875)scale(0.1 -0.1)">
       <use xlink:href="#LiberationSans-32"/>
       <use x="55.615234375" xlink:href="#LiberationSans-30"/>
       <use x="111.23046875" xlink:href="#LiberationSans-31"/>
       <use x="166.845703125" xlink:href="#LiberationSans-36"/>
       <use x="222.4609375" xlink:href="#LiberationSans-2d"/>
       <use x="255.76171875" xlink:href="#LiberationSans-31"/>
       <use x="311.376953125" xlink:href="#LiberationSans-30"/>
       <use x="366.9921875" xlink:href="#LiberationSans-2d"/>
       <use x="400.29296875" xlink:href="#LiberationSans-31"/>
       <use x="455.908203125" xlink:href="#LiberationSans-33"/>
       <use x="511.5234375" xlink:href="#LiberationSans-20"/>
       <use x="539.306640625" xlink:href="#LiberationSans-31"/>
       <use x="594.921875" xlink:href="#LiberationSans-30"/>
       <use x="650.537109375" xlink:href="#LiberationSans-3a"/>
       <use x="678.3203125" xlink:href="#LiberationSans-31"/>
       <use x="733.935546875" xlink:href="#LiberationSans-34"/>
       <use x="789.55078125" xlink:href="#LiberationSans-3a"/>
       <use x="817.333984375" xlink:href="#LiberationSans-30"/>
       <use x="872.94921875" xlink:href="#LiberationSans-30"/>
      </g>
     </g>
    </g>
    <g id="text_5">
     <!-- time -->
     <defs>
      <path d="M 13.484375 24.5625 
Q 13.484375 20.40625 14.328125 16.90625 
Q 15.1875 13.421875 16.96875 10.90625 
Q 18.75 8.40625 21.53125 7 
Q 24.3125 5.609375 28.21875 5.609375 
Q 33.9375 5.609375 37.375 7.90625 
Q 40.828125 10.203125 42.046875 13.71875 
L 49.75 11.53125 
Q 48.921875 9.328125 47.4375 7.109375 
Q 45.953125 4.890625 43.453125 3.09375 
Q 40.96875 1.3125 37.234375 0.15625 
Q 33.5 -0.984375 28.21875 -0.984375 
Q 16.5 -0.984375 10.375 6 
Q 4.25 12.984375 4.25 26.765625 
Q 4.25 34.1875 6.09375 39.328125 
Q 7.953125 44.484375 11.171875 47.703125 
Q 14.40625 50.921875 18.703125 52.359375 
Q 23 53.8125 27.875 53.8125 
Q 34.515625 53.8125 38.984375 51.65625 
Q 43.453125 49.515625 46.15625 45.71875 
Q 48.875 41.9375 50.015625 36.8125 
Q 51.171875 31.6875 51.171875 25.734375 
L 51.171875 24.5625 
z
M 42.09375 31.296875 
Q 41.359375 39.65625 37.84375 43.484375 
Q 34.328125 47.3125 27.734375 47.3125 
Q 25.53125 47.3125 23.109375 46.609375 
Q 20.703125 45.90625 18.65625 44.09375 
Q 16.609375 42.28125 15.1875 39.171875 
Q 13.765625 36.078125 13.578125 31.296875 
z
" id="LiberationSans-65"/>
      <path d="M 6.6875 64.0625 
L 6.6875 72.46875 
L 15.484375 72.46875 
L 15.484375 64.0625 
z
M 6.6875 0 
L 6.6875 52.828125 
L 15.484375 52.828125 
L 15.484375 0 
z
" id="LiberationSans-69"/>
      <path d="M 27.046875 0.390625 
Q 25.046875 -0.140625 22.96875 -0.453125 
Q 20.90625 -0.78125 18.171875 -0.78125 
Q 7.625 -0.78125 7.625 11.1875 
L 7.625 46.4375 
L 1.515625 46.4375 
L 1.515625 52.828125 
L 7.953125 52.828125 
L 10.546875 64.65625 
L 16.40625 64.65625 
L 16.40625 52.828125 
L 26.171875 52.828125 
L 26.171875 46.4375 
L 16.40625 46.4375 
L 16.40625 13.09375 
Q 16.40625 9.28125 17.640625 7.734375 
Q 18.890625 6.203125 21.96875 6.203125 
Q 23.25 6.203125 24.4375 6.390625 
Q 25.640625 6.59375 27.046875 6.890625 
z
" id="LiberationSans-74"/>
      <path d="M 37.5 0 
L 37.5 33.5 
Q 37.5 37.359375 37.015625 39.9375 
Q 36.53125 42.53125 35.375 44.109375 
Q 34.234375 45.703125 32.375 46.359375 
Q 30.515625 47.015625 27.828125 47.015625 
Q 25.046875 47.015625 22.796875 45.921875 
Q 20.5625 44.828125 18.96875 42.75 
Q 17.390625 40.671875 16.53125 37.625 
Q 15.671875 34.578125 15.671875 30.609375 
L 15.671875 0 
L 6.9375 0 
L 6.9375 41.546875 
Q 6.9375 43.21875 6.90625 45.046875 
Q 6.890625 46.875 6.828125 48.5 
Q 6.78125 50.140625 6.734375 51.3125 
Q 6.6875 52.484375 6.640625 52.828125 
L 14.9375 52.828125 
Q 14.984375 52.59375 15.03125 51.515625 
Q 15.09375 50.4375 15.15625 49.046875 
Q 15.234375 47.65625 15.28125 46.21875 
Q 15.328125 44.78125 15.328125 43.796875 
L 15.484375 43.796875 
Q 16.65625 46.09375 18.015625 47.953125 
Q 19.390625 49.8125 21.21875 51.09375 
Q 23.046875 52.390625 25.40625 53.09375 
Q 27.78125 53.8125 30.90625 53.8125 
Q 36.921875 53.8125 40.40625 51.421875 
Q 43.890625 49.03125 45.265625 43.796875 
L 45.40625 43.796875 
Q 46.578125 46.09375 48.046875 47.953125 
Q 49.515625 49.8125 51.46875 51.09375 
Q 53.421875 52.390625 55.859375 53.09375 
Q 58.296875 53.8125 61.421875 53.8125 
Q 65.4375 53.8125 68.328125 52.734375 
Q 71.234375 51.65625 73.09375 49.40625 
Q 74.953125 47.171875 75.828125 43.625 
Q 76.703125 40.09375 76.703125 35.203125 
L 76.703125 0 
L 68.015625 0 
L 68.015625 33.5 
Q 68.015625 37.359375 67.53125 39.9375 
Q 67.046875 42.53125 65.890625 44.109375 
Q 64.75 45.703125 62.890625 46.359375 
Q 61.03125 47.015625 58.34375 47.015625 
Q 55.5625 47.015625 53.3125 45.96875 
Q 51.078125 44.921875 49.484375 42.875 
Q 47.90625 40.828125 47.046875 37.75 
Q 46.1875 34.671875 46.1875 30.609375 
L 46.1875 0 
z
" id="LiberationSans-6d"/>
     </defs>
     <g style="fill:#262626;" transform="translate(284.81015625 385.6934375)scale(0.11 -0.11)">
      <use xlink:href="#LiberationSans-74"/>
      <use x="27.783203125" xlink:href="#LiberationSans-69"/>
      <use x="50.0" xlink:href="#LiberationSans-6d"/>
      <use x="133.30078125" xlink:href="#LiberationSans-65"/>
     </g>
    </g>
   </g>
   <g id="matplotlib.axis_2">
    <g id="ytick_1">
     <g id="line2d_13">
      <path clip-path="url(#paf9afb1b77)" d="M 72 356.4 
L 518.4 356.4 
" style="fill:none;stroke:#ffffff;stroke-linecap:round;"/>
     </g>
     <g id="line2d_14"/>
     <g id="line2d_15"/>
     <g id="text_6">
      <!-- 670 -->
      <defs>
       <path d="M 50.59375 61.671875 
Q 45.40625 53.765625 41.0625 46.453125 
Q 36.71875 39.15625 33.59375 31.75 
Q 30.46875 24.359375 28.734375 16.578125 
Q 27 8.796875 27 0 
L 17.828125 0 
Q 17.828125 8.25 19.78125 16.1875 
Q 21.734375 24.125 25.046875 31.765625 
Q 28.375 39.40625 32.765625 46.78125 
Q 37.15625 54.15625 42.09375 61.328125 
L 5.125 61.328125 
L 5.125 68.796875 
L 50.59375 68.796875 
z
" id="LiberationSans-37"/>
      </defs>
      <g style="fill:#262626;" transform="translate(48.3171875 358.9859375)scale(0.1 -0.1)">
       <use xlink:href="#LiberationSans-36"/>
       <use x="55.615234375" xlink:href="#LiberationSans-37"/>
       <use x="111.23046875" xlink:href="#LiberationSans-30"/>
      </g>
     </g>
    </g>
    <g id="ytick_2">
     <g id="line2d_16">
      <path clip-path="url(#paf9afb1b77)" d="M 72 321.2 
L 518.4 321.2 
" style="fill:none;stroke:#ffffff;stroke-linecap:round;"/>
     </g>
     <g id="line2d_17"/>
     <g id="line2d_18"/>
     <g id="text_7">
      <!-- 680 -->
      <defs>
       <path d="M 51.265625 19.1875 
Q 51.265625 14.796875 49.875 11.109375 
Q 48.484375 7.421875 45.625 4.734375 
Q 42.78125 2.046875 38.328125 0.53125 
Q 33.890625 -0.984375 27.828125 -0.984375 
Q 21.78125 -0.984375 17.359375 0.53125 
Q 12.9375 2.046875 10.03125 4.703125 
Q 7.125 7.375 5.734375 11.0625 
Q 4.34375 14.75 4.34375 19.09375 
Q 4.34375 22.859375 5.484375 25.78125 
Q 6.640625 28.71875 8.5625 30.828125 
Q 10.5 32.953125 12.96875 34.25 
Q 15.4375 35.546875 18.0625 35.984375 
L 18.0625 36.1875 
Q 15.1875 36.859375 12.90625 38.375 
Q 10.640625 39.890625 9.09375 42.015625 
Q 7.5625 44.140625 6.75 46.71875 
Q 5.953125 49.3125 5.953125 52.203125 
Q 5.953125 55.8125 7.34375 59 
Q 8.734375 62.203125 11.46875 64.625 
Q 14.203125 67.046875 18.25 68.4375 
Q 22.3125 69.828125 27.640625 69.828125 
Q 33.25 69.828125 37.375 68.40625 
Q 41.5 67 44.203125 64.578125 
Q 46.921875 62.15625 48.234375 58.9375 
Q 49.5625 55.71875 49.5625 52.09375 
Q 49.5625 49.265625 48.75 46.671875 
Q 47.953125 44.09375 46.40625 41.96875 
Q 44.875 39.84375 42.59375 38.34375 
Q 40.328125 36.859375 37.359375 36.28125 
L 37.359375 36.078125 
Q 40.328125 35.59375 42.859375 34.296875 
Q 45.40625 33.015625 47.265625 30.890625 
Q 49.125 28.765625 50.1875 25.828125 
Q 51.265625 22.90625 51.265625 19.1875 
M 40.4375 51.609375 
Q 40.4375 54.203125 39.765625 56.34375 
Q 39.109375 58.5 37.59375 60.03125 
Q 36.078125 61.578125 33.640625 62.421875 
Q 31.203125 63.28125 27.640625 63.28125 
Q 24.171875 63.28125 21.78125 62.421875 
Q 19.390625 61.578125 17.84375 60.03125 
Q 16.3125 58.5 15.625 56.34375 
Q 14.9375 54.203125 14.9375 51.609375 
Q 14.9375 49.5625 15.46875 47.40625 
Q 16.015625 45.265625 17.421875 43.5 
Q 18.84375 41.75 21.328125 40.625 
Q 23.828125 39.5 27.734375 39.5 
Q 31.890625 39.5 34.40625 40.625 
Q 36.921875 41.75 38.25 43.5 
Q 39.59375 45.265625 40.015625 47.40625 
Q 40.4375 49.5625 40.4375 51.609375 
M 42.140625 20.015625 
Q 42.140625 22.515625 41.453125 24.828125 
Q 40.765625 27.15625 39.109375 28.9375 
Q 37.453125 30.71875 34.640625 31.8125 
Q 31.84375 32.90625 27.640625 32.90625 
Q 23.78125 32.90625 21.0625 31.8125 
Q 18.359375 30.71875 16.671875 28.90625 
Q 14.984375 27.09375 14.203125 24.71875 
Q 13.421875 22.359375 13.421875 19.828125 
Q 13.421875 16.65625 14.203125 14.03125 
Q 14.984375 11.421875 16.6875 9.546875 
Q 18.40625 7.671875 21.1875 6.640625 
Q 23.96875 5.609375 27.9375 5.609375 
Q 31.9375 5.609375 34.671875 6.640625 
Q 37.40625 7.671875 39.0625 9.546875 
Q 40.71875 11.421875 41.421875 14.078125 
Q 42.140625 16.75 42.140625 20.015625 
" id="LiberationSans-38"/>
      </defs>
      <g style="fill:#262626;" transform="translate(48.3171875 323.7859375)scale(0.1 -0.1)">
       <use xlink:href="#LiberationSans-36"/>
       <use x="55.615234375" xlink:href="#LiberationSans-38"/>
       <use x="111.23046875" xlink:href="#LiberationSans-30"/>
      </g>
     </g>
    </g>
    <g id="ytick_3">
     <g id="line2d_19">
      <path clip-path="url(#paf9afb1b77)" d="M 72 286 
L 518.4 286 
" style="fill:none;stroke:#ffffff;stroke-linecap:round;"/>
     </g>
     <g id="line2d_20"/>
     <g id="line2d_21"/>
     <g id="text_8">
      <!-- 690 -->
      <g style="fill:#262626;" transform="translate(48.3171875 288.5859375)scale(0.1 -0.1)">
       <use xlink:href="#LiberationSans-36"/>
       <use x="55.615234375" xlink:href="#LiberationSans-39"/>
       <use x="111.23046875" xlink:href="#LiberationSans-30"/>
      </g>
     </g>
    </g>
    <g id="ytick_4">
     <g id="line2d_22">
      <path clip-path="url(#paf9afb1b77)" d="M 72 250.8 
L 518.4 250.8 
" style="fill:none;stroke:#ffffff;stroke-linecap:round;"/>
     </g>
     <g id="line2d_23"/>
     <g id="line2d_24"/>
     <g id="text_9">
      <!-- 700 -->
      <g style="fill:#262626;" transform="translate(48.3171875 253.3859375)scale(0.1 -0.1)">
       <use xlink:href="#LiberationSans-37"/>
       <use x="55.615234375" xlink:href="#LiberationSans-30"/>
       <use x="111.23046875" xlink:href="#LiberationSans-30"/>
      </g>
     </g>
    </g>
    <g id="ytick_5">
     <g id="line2d_25">
      <path clip-path="url(#paf9afb1b77)" d="M 72 215.6 
L 518.4 215.6 
" style="fill:none;stroke:#ffffff;stroke-linecap:round;"/>
     </g>
     <g id="line2d_26"/>
     <g id="line2d_27"/>
     <g id="text_10">
      <!-- 710 -->
      <g style="fill:#262626;" transform="translate(48.3171875 218.1859375)scale(0.1 -0.1)">
       <use xlink:href="#LiberationSans-37"/>
       <use x="55.615234375" xlink:href="#LiberationSans-31"/>
       <use x="111.23046875" xlink:href="#LiberationSans-30"/>
      </g>
     </g>
    </g>
    <g id="ytick_6">
     <g id="line2d_28">
      <path clip-path="url(#paf9afb1b77)" d="M 72 180.4 
L 518.4 180.4 
" style="fill:none;stroke:#ffffff;stroke-linecap:round;"/>
     </g>
     <g id="line2d_29"/>
     <g id="line2d_30"/>
     <g id="text_11">
      <!-- 720 -->
      <g style="fill:#262626;" transform="translate(48.3171875 182.9859375)scale(0.1 -0.1)">
       <use xlink:href="#LiberationSans-37"/>
       <use x="55.615234375" xlink:href="#LiberationSans-32"/>
       <use x="111.23046875" xlink:href="#LiberationSans-30"/>
      </g>
     </g>
    </g>
    <g id="ytick_7">
     <g id="line2d_31">
      <path clip-path="url(#paf9afb1b77)" d="M 72 145.2 
L 518.4 145.2 
" style="fill:none;stroke:#ffffff;stroke-linecap:round;"/>
     </g>
     <g id="line2d_32"/>
     <g id="line2d_33"/>
     <g id="text_12">
      <!-- 730 -->
      <g style="fill:#262626;" transform="translate(48.3171875 147.7859375)scale(0.1 -0.1)">
       <use xlink:href="#LiberationSans-37"/>
       <use x="55.615234375" xlink:href="#LiberationSans-33"/>
       <use x="111.23046875" xlink:href="#LiberationSans-30"/>
      </g>
     </g>
    </g>
    <g id="ytick_8">
     <g id="line2d_34">
      <path clip-path="url(#paf9afb1b77)" d="M 72 110 
L 518.4 110 
" style="fill:none;stroke:#ffffff;stroke-linecap:round;"/>
     </g>
     <g id="line2d_35"/>
     <g id="line2d_36"/>
     <g id="text_13">
      <!-- 740 -->
      <g style="fill:#262626;" transform="translate(48.3171875 112.5859375)scale(0.1 -0.1)">
       <use xlink:href="#LiberationSans-37"/>
       <use x="55.615234375" xlink:href="#LiberationSans-34"/>
       <use x="111.23046875" xlink:href="#LiberationSans-30"/>
      </g>
     </g>
    </g>
    <g id="ytick_9">
     <g id="line2d_37">
      <path clip-path="url(#paf9afb1b77)" d="M 72 74.8 
L 518.4 74.8 
" style="fill:none;stroke:#ffffff;stroke-linecap:round;"/>
     </g>
     <g id="line2d_38"/>
     <g id="line2d_39"/>
     <g id="text_14">
      <!-- 750 -->
      <defs>
       <path d="M 51.421875 22.40625 
Q 51.421875 17.234375 49.859375 12.9375 
Q 48.296875 8.640625 45.21875 5.53125 
Q 42.140625 2.4375 37.578125 0.71875 
Q 33.015625 -0.984375 27 -0.984375 
Q 21.578125 -0.984375 17.546875 0.28125 
Q 13.53125 1.5625 10.734375 3.78125 
Q 7.953125 6 6.3125 8.984375 
Q 4.6875 11.96875 4 15.375 
L 12.890625 16.40625 
Q 13.421875 14.453125 14.390625 12.625 
Q 15.375 10.796875 17.0625 9.34375 
Q 18.75 7.90625 21.21875 7.046875 
Q 23.6875 6.203125 27.203125 6.203125 
Q 30.609375 6.203125 33.390625 7.25 
Q 36.1875 8.296875 38.15625 10.34375 
Q 40.140625 12.40625 41.203125 15.375 
Q 42.28125 18.359375 42.28125 22.21875 
Q 42.28125 25.390625 41.25 28.046875 
Q 40.234375 30.71875 38.328125 32.640625 
Q 36.421875 34.578125 33.65625 35.640625 
Q 30.90625 36.71875 27.390625 36.71875 
Q 25.203125 36.71875 23.34375 36.328125 
Q 21.484375 35.9375 19.890625 35.25 
Q 18.3125 34.578125 17.015625 33.671875 
Q 15.71875 32.765625 14.59375 31.78125 
L 6 31.78125 
L 8.296875 68.796875 
L 47.40625 68.796875 
L 47.40625 61.328125 
L 16.3125 61.328125 
L 14.984375 39.5 
Q 17.328125 41.3125 20.84375 42.59375 
Q 24.359375 43.890625 29.203125 43.890625 
Q 34.328125 43.890625 38.421875 42.328125 
Q 42.53125 40.765625 45.40625 37.90625 
Q 48.296875 35.0625 49.859375 31.109375 
Q 51.421875 27.15625 51.421875 22.40625 
" id="LiberationSans-35"/>
      </defs>
      <g style="fill:#262626;" transform="translate(48.3171875 77.3859375)scale(0.1 -0.1)">
       <use xlink:href="#LiberationSans-37"/>
       <use x="55.615234375" xlink:href="#LiberationSans-35"/>
       <use x="111.23046875" xlink:href="#LiberationSans-30"/>
      </g>
     </g>
    </g>
    <g id="ytick_10">
     <g id="line2d_40">
      <path clip-path="url(#paf9afb1b77)" d="M 72 39.6 
L 518.4 39.6 
" style="fill:none;stroke:#ffffff;stroke-linecap:round;"/>
     </g>
     <g id="line2d_41"/>
     <g id="line2d_42"/>
     <g id="text_15">
      <!-- 760 -->
      <g style="fill:#262626;" transform="translate(48.3171875 42.1859375)scale(0.1 -0.1)">
       <use xlink:href="#LiberationSans-37"/>
       <use x="55.615234375" xlink:href="#LiberationSans-36"/>
       <use x="111.23046875" xlink:href="#LiberationSans-30"/>
      </g>
     </g>
    </g>
   </g>
   <g id="line2d_43">
    <path clip-path="url(#paf9afb1b77)" d="M 72 71.114732 
L 72.223312 72.528908 
L 72.669935 78.043876 
L 72.893247 75.696908 
L 73.33987 81.211876 
L 73.563182 78.864908 
L 74.009805 97.122276 
L 74.233117 93.361132 
L 74.67974 74.864789 
L 74.903052 83.527077 
L 75.126363 77.793813 
L 75.349675 100.553364 
L 75.572986 86.695077 
L 75.796298 89.863077 
L 76.01961 81.519757 
L 76.242921 89.361013 
L 76.466233 79.491757 
L 76.689545 77.519638 
L 76.912856 80.368669 
L 77.582791 71.148438 
L 77.806103 63.342382 
L 78.029415 69.713582 
L 78.252726 91.924782 
L 78.476038 86.784662 
L 78.69935 93.976894 
L 78.922661 90.226838 
L 79.145973 109.544213 
L 79.369285 110.684214 
L 79.592596 117.055414 
L 79.815908 101.738157 
L 80.03922 104.906157 
L 80.262531 96.279069 
L 80.485843 93.394838 
L 80.709155 79.217582 
L 80.932466 82.70455 
L 81.155778 77.838606 
L 81.37909 77.838606 
L 81.602401 86.739869 
L 81.825713 82.659757 
L 82.049025 81.838725 
L 82.272336 84.129813 
L 82.495648 80.084901 
L 82.718959 78.670725 
L 82.942271 79.491757 
L 83.165583 87.890957 
L 83.388894 88.767869 
L 83.612206 101.749245 
L 84.058829 91.652101 
L 84.282141 96.518045 
L 84.505453 97.430157 
L 84.728764 99.721245 
L 85.175388 92.792101 
L 85.398699 94.226957 
L 85.622011 94.226957 
L 85.845323 102.296101 
L 86.291946 94.545925 
L 86.515258 98.570157 
L 86.738569 100.323982 
L 87.185193 112.428445 
L 87.408504 108.667301 
L 87.855128 121.932445 
L 88.078439 111.835301 
L 88.301751 108.667301 
L 88.525063 111.835301 
L 88.748374 113.305357 
L 89.194997 105.236213 
L 89.418309 106.934157 
L 90.088244 117.624445 
L 90.311556 111.846388 
L 90.534867 110.092564 
L 91.204802 127.43782 
L 91.428114 121.385588 
L 91.651426 121.648677 
L 92.098049 117.624445 
L 92.321361 118.445477 
L 92.544672 125.37462 
L 92.767984 123.995645 
L 92.991296 123.995645 
L 93.214607 123.083533 
L 93.437919 120.792445 
L 93.661231 125.37462 
L 93.884542 125.37462 
L 94.107854 122.20662 
L 94.331166 128.57782 
L 94.554477 126.286733 
L 94.777789 126.286733 
L 95.001101 123.995645 
L 95.224412 124.816677 
L 95.671036 113.863301 
L 95.894347 123.402501 
L 96.117659 123.402501 
L 96.34097 122.844557 
L 96.564282 115.596445 
L 96.787594 120.234501 
L 97.234217 114.775413 
L 97.457529 113.863301 
L 97.68084 113.863301 
L 97.904152 118.764445 
L 98.127464 121.111413 
L 98.350775 118.764445 
L 98.574087 118.764445 
L 98.797399 115.003301 
L 99.02071 117.350269 
L 99.244022 102.889245 
L 99.467334 102.296101 
L 99.913957 110.137357 
L 100.137269 102.296101 
L 100.36058 102.296101 
L 100.583892 109.225245 
L 100.807204 110.137357 
L 101.030515 114.775413 
L 101.477139 117.943413 
L 101.70045 112.428445 
L 101.923762 112.428445 
L 102.147074 115.596445 
L 102.370385 114.775413 
L 102.593697 117.350269 
L 102.817009 103.491982 
L 103.04032 100.917125 
L 103.263632 101.738157 
L 103.486943 107.253125 
L 103.933567 102.889245 
L 104.156878 99.128101 
L 104.38019 101.475069 
L 104.826813 112.428445 
L 105.050125 109.225245 
L 105.273437 119.641357 
L 105.496748 120.234501 
L 105.72006 124.279413 
L 106.166683 114.775413 
L 106.389995 118.764445 
L 106.613307 125.693589 
L 106.836618 111.880094 
L 107.05993 107.835182 
L 107.283242 130.36535 
L 107.506553 136.098614 
L 107.729865 130.639526 
L 108.176488 146.230957 
L 108.3998 138.719757 
L 108.623112 138.161813 
L 108.846423 149.729013 
L 109.069735 145.967869 
L 109.293047 144.497813 
L 109.516358 134.081701 
L 109.73967 133.523757 
L 109.962981 139.301814 
L 110.186293 129.762614 
L 110.409605 126.594614 
L 110.632916 137.010726 
L 110.856228 137.887638 
L 111.07954 135.003406 
L 111.526163 144.223638 
L 111.749475 146.514726 
L 111.972786 135.003406 
L 112.196098 140.497694 
L 112.41941 140.497694 
L 112.642721 145.07987 
L 112.866033 145.07987 
L 113.089345 146.833694 
L 113.312656 144.21255 
L 113.535968 147.973694 
L 113.75928 147.41575 
L 114.205903 130.947407 
L 114.429215 129.533231 
L 114.652526 129.214263 
L 114.875838 130.684318 
L 115.09915 133.852318 
L 115.322461 130.684318 
L 115.545773 132.098494 
L 115.769085 137.294494 
L 115.992396 132.098494 
L 116.215708 132.975406 
L 116.43902 132.975406 
L 116.662331 130.684318 
L 116.885643 126.923175 
L 117.108954 126.046263 
L 117.332266 127.516318 
L 117.555578 125.16935 
L 117.778889 129.807406 
L 118.002201 128.930494 
L 118.225513 131.277462 
L 118.448824 131.277462 
L 118.672136 129.807406 
L 118.895448 136.73655 
L 119.118759 138.434494 
L 119.342071 133.852318 
L 119.565383 137.055518 
L 119.788694 132.975406 
L 120.012006 139.346606 
L 120.235318 142.514606 
L 120.458629 132.975406 
L 120.681941 134.445462 
L 120.905253 132.37267 
L 121.128564 126.878382 
L 121.351876 124.587294 
L 121.575188 124.587294 
L 121.798499 127.790494 
L 122.021811 127.790494 
L 122.245123 125.499406 
L 122.468434 115.960206 
L 122.691746 114.49015 
L 122.915058 124.906262 
L 123.138369 123.152438 
L 123.361681 128.074262 
L 123.584992 128.930494 
L 123.808304 130.36535 
L 124.031616 124.906262 
L 124.254927 129.488438 
L 124.478239 130.36535 
L 124.701551 130.36535 
L 124.924862 131.277462 
L 125.148174 127.19735 
L 125.371486 129.488438 
L 125.594797 129.488438 
L 125.818109 130.958494 
L 126.041421 133.249582 
L 126.264732 128.667406 
L 126.711356 130.958494 
L 126.934667 130.958494 
L 127.157979 130.081582 
L 127.381291 132.37267 
L 127.604602 126.878382 
L 127.827914 135.54067 
L 128.051226 135.54067 
L 128.274537 138.206606 
L 128.497849 138.206606 
L 128.721161 136.73655 
L 128.944472 136.73655 
L 129.167784 131.277462 
L 129.391096 135.859638 
L 129.614407 134.126494 
L 129.837719 129.488438 
L 130.284342 145.363638 
L 130.507654 145.363638 
L 130.730965 137.294494 
L 130.954277 142.788782 
L 131.177589 142.788782 
L 131.624212 145.07987 
L 131.847524 148.24787 
L 132.070835 147.426838 
L 132.294147 152.009014 
L 132.517459 142.469814 
L 132.74077 145.07987 
L 132.964082 142.788782 
L 133.634017 150.001694 
L 133.857329 144.542606 
L 134.08064 149.124782 
L 134.303952 150.001694 
L 134.527264 154.58387 
L 134.750575 154.58387 
L 134.973887 153.762838 
L 135.197199 154.58387 
L 135.42051 154.081806 
L 135.643822 150.913806 
L 135.867134 151.734838 
L 136.090445 146.27575 
L 136.313757 147.973694 
L 136.537069 151.141694 
L 136.76038 149.44375 
L 136.983692 133.294375 
L 137.207004 130.126375 
L 137.430315 133.852318 
L 137.653627 131.50535 
L 138.10025 133.852318 
L 138.323562 119.994031 
L 138.546873 124.074143 
L 138.770185 134.115407 
L 138.993497 133.613343 
L 139.216808 139.630375 
L 139.44012 135.585463 
L 139.663432 134.992319 
L 139.886743 140.486607 
L 140.110055 142.833575 
L 140.333367 147.41575 
L 140.556678 143.391518 
L 140.77999 146.559518 
L 141.003302 141.04455 
L 141.226613 145.124663 
L 141.449925 136.462375 
L 141.673237 141.04455 
L 141.896548 140.223518 
L 142.11986 142.195638 
L 142.343172 145.363638 
L 142.566483 143.07255 
L 142.789795 151.41587 
L 143.236418 130.081582 
L 143.45973 127.790494 
L 143.683042 131.835406 
L 143.906353 129.488438 
L 144.129665 131.835406 
L 144.352976 130.958494 
L 144.576288 134.126494 
L 144.7996 130.081582 
L 145.246223 137.294494 
L 145.469535 137.294494 
L 145.692846 132.656438 
L 145.916158 134.126494 
L 146.13947 136.417582 
L 146.362781 130.958494 
L 146.586093 134.126494 
L 147.032716 146.27575 
L 147.256028 142.195638 
L 147.47934 147.710606 
L 147.702651 147.710606 
L 147.925963 150.001694 
L 148.149275 150.001694 
L 148.595898 144.542606 
L 148.81921 147.710606 
L 149.042521 142.788782 
L 149.265833 145.637814 
L 149.489145 151.152782 
L 149.712456 151.152782 
L 149.935768 152.566957 
L 150.15908 154.913925 
L 150.382391 166.744213 
L 150.605703 155.177014 
L 150.829015 163.302038 
L 151.275638 160.95507 
L 151.498949 162.425126 
L 151.945573 167.884214 
L 152.168884 168.442157 
L 152.392196 170.789125 
L 152.615508 176.283413 
L 152.838819 177.718269 
L 153.062131 177.981357 
L 153.285443 185.229469 
L 153.508754 181.149357 
L 153.732066 183.496325 
L 153.955378 181.742501 
L 154.178689 176.283413 
L 154.402001 193.309701 
L 154.848624 189.229589 
L 155.071936 188.352677 
L 155.295248 195.28182 
L 155.518559 194.460788 
L 155.741871 195.018732 
L 155.965183 208.82114 
L 156.188494 207.442164 
L 156.411806 222.440452 
L 156.635118 214.097132 
L 156.858429 225.608452 
L 157.081741 226.485364 
L 157.305053 353.195097 
L 157.528364 254.157146 
L 157.751676 259.069378 
L 157.974987 255.308234 
L 158.198299 233.380802 
L 158.421611 224.662634 
L 158.644922 220.343547 
L 158.868234 205.65314 
L 159.091546 221.52834 
L 159.314857 277.314164 
L 159.538169 303.640676 
L 159.761481 311.435645 
L 159.984792 283.993245 
L 160.208104 303.868564 
L 160.431416 303.31062 
L 160.654727 305.920677 
L 160.878039 296.711532 
L 161.101351 310.51394 
L 161.324662 302.728564 
L 161.771286 307.071764 
L 161.994597 316.347876 
L 162.887844 290.614508 
L 163.111156 290.614508 
L 163.334467 289.144452 
L 163.557779 282.808452 
L 163.781091 283.685364 
L 164.004402 271.536108 
L 164.227714 271.855076 
L 164.451026 283.685364 
L 164.674337 281.394276 
L 164.897649 284.562276 
L 165.12096 278.454164 
L 165.344272 262.897933 
L 165.790895 270.703988 
L 166.014207 264.595877 
L 166.237519 267.799077 
L 166.46083 242.987413 
L 166.684142 243.864325 
L 166.907454 240.959414 
L 167.130765 242.987413 
L 167.354077 252.526613 
L 167.577389 238.668326 
L 167.8007 240.959414 
L 168.024012 251.056557 
L 168.247324 255.136669 
L 168.470635 245.004326 
L 168.693947 240.959414 
L 168.917259 245.004326 
L 169.14057 245.597469 
L 169.363882 255.694613 
L 169.587194 248.446501 
L 169.810505 260.332669 
L 170.033817 260.332669 
L 170.257129 271.286045 
L 170.48044 258.862613 
L 170.703752 258.259877 
L 170.927064 260.925813 
L 171.150375 266.384901 
L 171.373687 263.216901 
L 171.596998 267.799077 
L 171.82031 262.304789 
L 172.043622 264.093813 
L 172.266933 264.093813 
L 172.490245 262.623757 
L 172.713557 268.082845 
L 172.936868 262.623757 
L 173.16018 261.746845 
L 173.383492 258.578845 
L 173.606803 262.304789 
L 173.830115 263.216901 
L 174.053427 258.259877 
L 174.276738 266.065933 
L 174.50005 257.438845 
L 174.723362 262.02102 
L 174.946673 260.606845 
L 175.169985 262.897933 
L 175.393297 267.535988 
L 175.616608 269.827076 
L 175.83992 269.233933 
L 176.286543 259.136789 
L 176.733167 264.595877 
L 176.956478 263.216901 
L 177.17979 256.287757 
L 177.403102 254.817701 
L 177.626413 254.554613 
L 177.849725 251.386613 
L 178.073037 258.578845 
L 178.296348 252.207645 
L 178.51966 258.578845 
L 178.742971 253.084557 
L 178.966283 258.578845 
L 179.189595 253.677701 
L 179.412906 259.136789 
L 179.636218 251.386613 
L 179.85953 251.386613 
L 180.082841 249.039645 
L 180.306153 239.226269 
L 180.529465 244.127414 
L 180.976088 239.545238 
L 181.1994 239.545238 
L 181.422711 238.668326 
L 181.646023 243.306382 
L 181.869335 236.696206 
L 182.092646 242.713238 
L 182.315958 244.127414 
L 182.53927 247.888557 
L 182.762581 245.597469 
L 182.985893 249.358613 
L 183.209205 247.067525 
L 183.432516 238.349357 
L 183.655828 245.015413 
L 184.102451 233.164445 
L 184.325763 218.724101 
L 184.549075 222.769013 
L 184.772386 215.839869 
L 184.995698 215.839869 
L 185.21901 207.714845 
L 185.442321 210.918045 
L 185.665633 216.433013 
L 185.888944 215.556101 
L 186.112256 212.352901 
L 186.558879 218.405133 
L 186.782191 216.707188 
L 187.005503 178.585588 
L 187.228814 198.779876 
L 187.452126 189.77794 
L 187.675438 190.97382 
L 187.898749 187.80582 
L 188.122061 187.212676 
L 188.345373 185.74262 
L 188.568684 189.503764 
L 188.791996 190.97382 
L 189.015308 193.264908 
L 189.461931 187.212676 
L 189.685243 197.30982 
L 189.908554 200.194052 
L 190.131866 201.070964 
L 190.578489 216.080339 
L 190.801801 214.610283 
L 191.025113 206.541139 
L 191.248424 213.175427 
L 191.471736 207.681139 
L 191.918359 203.636227 
L 192.141671 204.513139 
L 192.364982 212.319195 
L 192.811606 199.875084 
L 193.034917 201.664108 
L 193.258229 202.48514 
L 193.481541 202.48514 
L 193.704852 204.832108 
L 193.928164 214.052339 
L 194.151476 206.246284 
L 194.374787 209.414284 
L 194.598099 214.929252 
L 194.821411 214.929252 
L 195.044722 211.761252 
L 195.268034 213.175427 
L 195.491346 209.414284 
L 195.714657 211.761252 
L 195.937969 210.291196 
L 196.384592 216.069252 
L 196.831216 214.371308 
L 197.054527 214.371308 
L 197.277839 211.168108 
L 197.501151 214.371308 
L 197.724462 215.750284 
L 197.947774 211.761252 
L 198.394397 215.750284 
L 198.617709 213.459196 
L 198.841021 209.414284 
L 199.064332 211.761252 
L 199.287644 203.955196 
L 199.510955 208.000108 
L 199.734267 209.414284 
L 200.18089 216.662396 
L 200.404202 215.750284 
L 200.627514 216.662396 
L 201.074137 210.291196 
L 201.52076 214.929252 
L 201.744072 218.953484 
L 201.967384 217.539308 
L 202.190695 220.388339 
L 202.414007 218.953484 
L 202.637319 224.73154 
L 202.86063 218.36034 
L 203.083942 220.707308 
L 203.307254 218.953484 
L 203.530565 227.910627 
L 203.753877 225.026395 
L 203.977189 229.324803 
L 204.2005 227.033715 
L 204.423812 227.591659 
L 204.647124 216.901371 
L 205.093747 222.451539 
L 205.317059 217.494515 
L 205.763682 239.158858 
L 205.986993 244.617946 
L 206.210305 245.530058 
L 206.433617 240.892003 
L 206.656928 240.892003 
L 206.88024 235.113946 
L 207.103552 236.548802 
L 207.326863 216.912458 
L 207.773487 225.574746 
L 207.996798 227.546866 
L 208.22011 199.567203 
L 208.443422 190.346971 
L 208.666733 188.593147 
L 208.890045 190.028003 
L 209.113357 194.666058 
L 209.336668 195.52229 
L 209.55998 188.876915 
L 209.783292 190.346971 
L 210.006603 188.876915 
L 210.229915 194.929147 
L 210.676538 194.929147 
L 211.123162 180.524003 
L 211.346473 177.913946 
L 211.569785 184.84309 
L 211.793097 168.96789 
L 212.016408 174.10801 
L 212.23972 165.445722 
L 212.463032 167.73681 
L 212.686343 168.648922 
L 212.909655 165.445722 
L 213.132966 170.083778 
L 213.356278 168.648922 
L 213.57959 163.154634 
L 213.802901 165.445722 
L 214.026213 166.357834 
L 214.249525 185.356241 
L 214.472836 182.507209 
L 214.696148 172.968009 
L 214.91946 176.136009 
L 215.142771 166.596809 
L 215.366083 167.508922 
L 215.589395 178.427097 
L 216.036018 174.438065 
L 216.482641 177.012922 
L 216.705953 174.665954 
L 216.929265 178.746066 
L 217.152576 175.578066 
L 217.375888 181.037154 
L 217.5992 177.27601 
L 217.822511 178.746066 
L 218.492446 166.915778 
L 218.715758 172.374866 
L 219.162381 163.428809 
L 219.385693 153.889609 
L 219.609005 151.598522 
L 220.055628 153.605841 
L 220.278939 143.473497 
L 220.502251 138.891322 
L 220.725563 148.430522 
L 220.948874 150.721609 
L 221.172186 150.163666 
L 221.395498 141.182409 
L 221.618809 138.891322 
L 221.842121 138.891322 
L 222.065433 140.624466 
L 222.288744 135.98641 
L 222.512056 134.572234 
L 222.735368 134.572234 
L 222.958679 133.102178 
L 223.181991 135.393266 
L 223.405303 134.572234 
L 223.628614 129.934178 
L 224.075238 135.98641 
L 224.298549 138.333378 
L 224.521861 146.676697 
L 224.745173 132.81841 
L 224.968484 138.333378 
L 225.191796 139.15441 
L 225.638419 139.15441 
L 225.861731 138.333378 
L 226.085043 135.165378 
L 226.308354 134.253266 
L 226.754977 136.544354 
L 226.978289 134.253266 
L 227.201601 127.917266 
L 227.424912 129.387322 
L 227.648224 121.262297 
L 227.871536 126.777265 
L 228.318159 107.140922 
L 228.541471 99.299666 
L 228.764782 105.989834 
L 228.988094 99.618634 
L 229.211406 98.467546 
L 229.434717 98.467546 
L 229.658029 95.618515 
L 230.104652 102.547658 
L 230.327964 100.20069 
L 230.551276 93.008458 
L 230.774587 94.422634 
L 230.997899 81.715434 
L 231.444522 96.176458 
L 231.667834 96.176458 
L 231.891146 100.20069 
L 232.114457 98.228571 
L 232.337769 99.607547 
L 232.561081 95.025371 
L 233.007704 98.786515 
L 233.231016 96.176458 
L 233.677639 99.379658 
L 233.90095 91.538403 
L 234.124262 97.909603 
L 234.347574 101.077603 
L 234.794197 93.82949 
L 235.017509 93.82949 
L 235.24082 122.458178 
L 235.464132 130.208354 
L 235.687444 126.184122 
L 235.910755 119.254978 
L 236.134067 131.085266 
L 236.357379 131.678409 
L 236.58069 125.626178 
L 236.804002 111.448922 
L 237.027314 110.57201 
L 237.250625 116.90801 
L 237.473937 105.112922 
L 237.697249 105.989834 
L 238.143872 93.601602 
L 238.367184 93.008458 
L 238.590495 93.008458 
L 238.813807 99.379658 
L 239.037119 94.741603 
L 239.26043 101.077603 
L 239.707054 130.253146 
L 239.930365 136.031203 
L 240.153677 138.32229 
L 240.376988 136.031203 
L 240.6003 141.227202 
L 240.823612 139.792346 
L 241.046923 142.960346 
L 241.270235 142.083434 
L 241.493547 138.32229 
L 241.716858 145.251434 
L 241.94017 145.251434 
L 242.163482 138.880234 
L 242.386793 136.305378 
L 242.610105 130.81109 
L 242.833417 137.740234 
L 243.056728 134.01429 
L 243.28004 136.305378 
L 243.503352 135.393266 
L 243.949975 126.766178 
L 244.173287 130.527322 
L 244.396598 124.156122 
L 244.61991 123.598178 
L 244.843222 126.44721 
L 245.066533 125.033034 
L 245.289845 119.518066 
L 245.736468 125.889266 
L 246.183092 117.226978 
L 246.629715 124.156122 
L 246.853027 112.325834 
L 247.076338 120.988122 
L 247.29965 120.988122 
L 247.522961 125.889266 
L 247.746273 120.394978 
L 247.969585 122.686066 
L 248.192896 119.518066 
L 248.416208 121.865034 
L 248.862831 96.131666 
L 249.086143 102.502866 
L 249.309455 94.66161 
L 249.756078 89.202522 
L 249.97939 98.741722 
L 250.202701 97.86481 
L 250.426013 91.812578 
L 250.649325 95.89269 
L 250.872636 92.68949 
L 251.095948 101.351778 
L 251.31926 99.06069 
L 251.542571 90.398402 
L 251.765883 97.271666 
L 251.989195 93.282634 
L 252.212506 98.183778 
L 252.435818 99.06069 
L 252.65913 102.821834 
L 253.105753 86.911434 
L 253.329065 98.422754 
L 253.552376 97.008578 
L 253.775688 91.49361 
L 253.998999 102.502866 
L 254.445623 81.715434 
L 254.668934 82.592346 
L 254.892246 70.467203 
L 255.115558 71.344115 
L 255.562181 65.885027 
L 255.785493 71.344115 
L 256.008804 73.097939 
L 256.232116 80.883315 
L 256.455428 82.079195 
L 256.678739 84.928227 
L 256.902051 83.174403 
L 257.125363 83.174403 
L 257.348674 85.521371 
L 257.571986 78.831203 
L 257.795298 66.442971 
L 258.018609 62.362859 
L 258.241921 73.372115 
L 258.465233 68.734059 
L 258.688544 60.664915 
L 258.911856 70.204115 
L 259.135168 72.495203 
L 259.358479 69.292003 
L 259.581791 71.58309 
L 259.805103 77.133258 
L 260.028414 73.372115 
L 260.475038 74.78629 
L 260.698349 73.930058 
L 261.144972 71.58309 
L 261.368284 68.41509 
L 261.814907 77.691202 
L 262.038219 73.64629 
L 262.261531 65.805034 
L 262.484842 72.176234 
L 262.708154 72.176234 
L 262.931466 75.663203 
L 263.154777 82.034403 
L 263.601401 77.133258 
L 263.824712 77.95429 
L 264.048024 75.663203 
L 264.271336 68.41509 
L 264.494647 70.762058 
L 264.941271 83.15029 
L 265.164582 95.254754 
L 265.611206 84.017609 
L 265.834517 81.726522 
L 266.057829 81.726522 
L 266.281141 76.176354 
L 266.727764 89.213609 
L 266.951076 108.247216 
L 267.174387 99.254873 
L 267.397699 99.848017 
L 267.621011 89.213609 
L 267.844322 88.655665 
L 268.067634 90.946753 
L 268.290945 90.946753 
L 268.514257 86.866641 
L 268.737569 87.459785 
L 268.96088 85.168697 
L 269.184192 88.336697 
L 269.407504 84.256585 
L 269.630815 82.877609 
L 269.854127 88.336697 
L 270.077439 88.894641 
L 270.30075 82.877609 
L 270.524062 88.336697 
L 270.747374 89.750873 
L 270.970685 84.575553 
L 271.193997 85.452465 
L 271.417309 90.034641 
L 271.64062 83.698641 
L 271.863932 82.877609 
L 272.087244 79.674409 
L 272.310555 91.504697 
L 272.533867 92.918873 
L 272.757179 95.584809 
L 272.98049 90.034641 
L 273.427114 100.166985 
L 273.650425 96.963785 
L 273.873737 90.946753 
L 274.097049 99.254873 
L 274.32036 100.166985 
L 274.543672 100.166985 
L 274.766983 107.379897 
L 274.990295 98.752809 
L 275.436918 111.460009 
L 275.66023 109.113041 
L 275.883542 110.583097 
L 276.106853 105.945041 
L 276.330165 108.292009 
L 276.776788 115.723217 
L 277.0001 113.432129 
L 277.223412 115.165273 
L 277.446723 115.165273 
L 277.670035 117.512241 
L 277.893347 103.334985 
L 278.116658 107.096129 
L 278.33997 120.361273 
L 278.563282 106.77716 
L 278.786593 108.530985 
L 279.009905 107.654073 
L 279.233217 109.94516 
L 279.456528 127.564592 
L 279.67984 118.34436 
L 279.903152 116.053272 
L 280.126463 121.51236 
L 280.349775 117.467448 
L 280.573087 117.467448 
L 280.796398 116.053272 
L 281.01971 116.31636 
L 281.466333 137.38756 
L 281.912956 120.042304 
L 282.136268 129.581504 
L 282.35958 123.245504 
L 282.582891 126.971448 
L 282.806203 123.803448 
L 283.029515 125.831448 
L 283.476138 120.635448 
L 283.922761 116.555336 
L 284.146073 117.467448 
L 284.369385 110.538304 
L 284.592696 95.540016 
L 284.816008 99.26596 
L 285.262631 89.442992 
L 285.485943 81.601736 
L 285.709255 79.310648 
L 285.932566 98.982192 
L 286.155878 88.53088 
L 286.37919 94.081048 
L 286.602501 75.82368 
L 286.825813 78.170648 
L 287.049125 83.071792 
L 287.272436 74.728472 
L 287.495748 61.463328 
L 287.71906 63.754416 
L 287.942371 68.65556 
L 288.165683 63.754416 
L 288.388994 68.392472 
L 288.612306 56.825273 
L 288.835618 57.702185 
L 289.058929 59.993273 
L 289.282241 55.94836 
L 289.505553 49.57716 
L 289.728864 57.702185 
L 289.952176 59.435329 
L 290.175488 64.073385 
L 290.398799 72.700473 
L 290.622111 74.170528 
L 290.845423 71.82356 
L 291.068734 63.161273 
L 291.292046 71.82356 
L 291.515358 71.82356 
L 291.738669 66.364473 
L 291.961981 66.364473 
L 292.185293 71.002528 
L 292.408604 68.65556 
L 292.631916 71.82356 
L 292.855228 69.532473 
L 293.078539 76.780585 
L 293.301851 69.851441 
L 293.525163 73.612585 
L 293.748474 63.480241 
L 293.971786 68.974529 
L 294.418409 66.683441 
L 294.641721 59.435329 
L 294.865033 59.435329 
L 295.088344 61.726417 
L 295.311656 65.213385 
L 295.534967 62.922297 
L 295.758279 62.045385 
L 296.428214 69.851441 
L 296.651526 68.974529 
L 296.874837 67.504473 
L 297.098149 69.851441 
L 297.544772 64.894417 
L 297.768084 65.45236 
L 297.991396 71.002528 
L 298.214707 71.82356 
L 298.438019 71.82356 
L 298.661331 73.293616 
L 298.884642 70.68356 
L 299.107954 61.463328 
L 299.777889 69.532473 
L 300.001201 66.364473 
L 300.224512 72.700473 
L 300.447824 71.82356 
L 300.671136 74.99156 
L 300.894447 71.82356 
L 301.117759 77.601617 
L 301.341071 76.780585 
L 301.564382 73.019441 
L 301.787694 78.478529 
L 302.011006 75.310529 
L 302.234317 76.780585 
L 302.457629 71.265617 
L 302.68094 73.612585 
L 303.127564 73.612585 
L 303.350875 71.265617 
L 303.574187 71.265617 
L 303.797499 73.612585 
L 304.02081 74.433617 
L 304.244122 74.433617 
L 304.467434 75.310529 
L 304.690745 73.019441 
L 304.914057 72.700473 
L 305.137369 82.239673 
L 305.36068 74.433617 
L 305.583992 82.239673 
L 305.807304 80.541728 
L 306.030615 74.170528 
L 306.253927 76.461616 
L 306.477239 77.338528 
L 306.70055 74.170528 
L 306.923862 79.629616 
L 307.147174 77.338528 
L 307.370485 82.832816 
L 307.593797 82.832816 
L 307.817109 84.267672 
L 308.04042 94.90208 
L 308.263732 83.39076 
L 308.487044 88.849848 
L 308.933667 94.344136 
L 309.156978 94.344136 
L 309.826913 88.849848 
L 310.050225 96.691104 
L 310.273537 85.681848 
L 310.496848 90.319904 
L 310.72016 92.610992 
L 310.943472 88.849848 
L 311.166783 97.512136 
L 311.613407 83.709728 
L 311.836718 95.540016 
L 312.06003 87.69876 
L 312.283342 86.877728 
L 312.506653 89.168816 
L 312.729965 102.752928 
L 313.176588 104.167104 
L 313.3999 109.124128 
L 313.623212 109.387217 
L 313.846523 109.94516 
L 314.069835 109.124128 
L 314.293147 110.822073 
L 314.516458 117.751216 
L 314.73977 120.361273 
L 314.963082 118.891217 
L 315.186393 116.31636 
L 315.409705 120.361273 
L 315.633017 117.193273 
L 315.856328 112.292128 
L 316.07964 110.822073 
L 316.526263 120.361273 
L 316.749575 116.31636 
L 316.972886 123.245504 
L 317.196198 121.51236 
L 317.866133 131.609504 
L 318.089445 127.88356 
L 318.312756 127.88356 
L 318.536068 131.928472 
L 318.75938 133.661616 
L 318.982691 133.661616 
L 319.206003 132.19156 
L 319.429315 129.626297 
L 319.652626 141.456585 
L 319.875938 133.387441 
L 320.09925 135.678529 
L 320.322561 131.040473 
L 320.769185 128.749385 
L 320.992496 118.652241 
L 321.215808 122.378185 
L 321.43912 131.040473 
L 321.662431 130.219441 
L 321.885743 127.872473 
L 322.332366 137.411673 
L 322.555678 137.411673 
L 322.778989 135.678529 
L 323.002301 130.219441 
L 323.225613 132.510529 
L 323.448924 130.777385 
L 323.672236 133.068473 
L 323.895548 127.609385 
L 324.118859 128.430417 
L 324.342171 125.262417 
L 324.788794 133.945385 
L 325.012106 130.777385 
L 325.235418 137.148585 
L 325.458729 133.945385 
L 325.682041 137.148585 
L 326.575288 127.290416 
L 327.021911 129.581504 
L 327.245223 129.581504 
L 327.468534 126.732473 
L 327.691846 130.458416 
L 327.915158 128.167328 
L 328.138469 128.167328 
L 328.361781 124.999328 
L 328.585093 127.290416 
L 328.808404 121.831328 
L 329.031716 129.02356 
L 329.255028 121.238185 
L 329.478339 123.529273 
L 329.701651 130.458416 
L 330.148274 121.831328 
L 330.371586 120.042304 
L 330.594897 122.389272 
L 330.818209 119.221272 
L 331.041521 123.803448 
L 331.488144 115.17636 
L 331.711456 121.51236 
L 331.934767 118.34436 
L 332.158079 120.042304 
L 332.604702 114.264248 
L 332.828014 114.264248 
L 333.051326 115.17636 
L 333.274637 121.51236 
L 333.497949 115.17636 
L 333.721261 118.34436 
L 333.944572 116.053272 
L 334.167884 121.193392 
L 334.391196 131.564711 
L 334.837819 118.299567 
L 335.061131 120.909624 
L 335.284442 127.245624 
L 335.507754 120.909624 
L 335.731066 122.663448 
L 335.954377 128.715679 
L 336.624312 92.885167 
L 336.847624 93.762079 
L 337.070935 95.232135 
L 337.294247 100.098079 
L 337.517559 88.860935 
L 337.74087 88.860935 
L 337.964182 93.762079 
L 338.187494 90.594079 
L 338.634117 102.982311 
L 339.08074 91.470992 
L 339.527364 97.523223 
L 339.750675 101.568135 
L 339.973987 101.010192 
L 340.197299 109.637279 
L 340.42061 101.010192 
L 340.643922 101.010192 
L 340.867234 108.760367 
L 341.090545 108.202424 
L 341.313857 99.221167 
L 341.537169 96.053167 
L 341.76048 101.249167 
L 341.983792 103.256487 
L 342.207104 97.762199 
L 342.430415 115.700598 
L 342.653727 101.523343 
L 342.877039 130.973062 
L 343.10035 125.478774 
L 343.323662 130.973062 
L 343.546973 130.379918 
L 343.993597 133.547918 
L 344.216908 134.46003 
L 344.663532 127.530886 
L 344.886843 127.530886 
L 345.110155 132.168942 
L 345.333467 124.327686 
L 345.556778 132.168942 
L 345.78009 135.017974 
L 346.003402 143.680262 
L 346.226713 137.034886 
L 346.673337 149.503111 
L 346.896648 143.131911 
L 347.11996 152.671111 
L 347.566583 157.572255 
L 347.789895 148.352023 
L 348.013207 148.909967 
L 348.236518 150.324143 
L 348.45983 145.741967 
L 348.683142 154.962199 
L 348.906453 155.839111 
L 349.129765 154.085287 
L 349.353077 149.503111 
L 349.576388 140.784943 
L 349.7997 137.616943 
L 350.023012 137.616943 
L 350.246323 143.988143 
L 350.469635 133.034767 
L 350.692946 134.448943 
L 350.916258 139.963911 
L 351.13957 135.918999 
L 351.362881 140.238086 
L 351.586193 136.157974 
L 351.809505 147.725174 
L 352.032816 149.13935 
L 352.256128 153.184262 
L 352.926063 131.838887 
L 353.149375 140.238086 
L 353.372686 133.866886 
L 353.595998 135.60003 
L 353.81931 140.557055 
L 354.042621 141.93603 
L 354.265933 141.114998 
L 354.489245 141.672942 
L 354.712556 137.946998 
L 354.935868 137.946998 
L 355.15918 141.93603 
L 355.382491 142.529174 
L 355.605803 144.876142 
L 355.829115 143.96403 
L 356.052426 142.210206 
L 356.275738 148.546206 
L 356.49905 150.893174 
L 356.722361 156.068494 
L 356.945673 154.654318 
L 357.615608 166.165637 
L 357.838919 179.784949 
L 358.285543 178.314894 
L 358.955478 155.236374 
L 359.178789 155.794318 
L 359.402101 154.415342 
L 359.625413 149.458318 
L 359.848724 160.432374 
L 360.072036 161.84655 
L 360.295348 156.387462 
L 360.518659 158.085406 
L 360.741971 156.945406 
L 360.965283 156.945406 
L 361.188594 160.706549 
L 361.411906 159.236494 
L 361.635218 140.751237 
L 362.081841 131.212037 
L 362.305153 127.725069 
L 362.528464 126.904037 
L 362.751776 133.833181 
L 362.975088 130.665181 
L 363.198399 114.754781 
L 363.421711 130.665181 
L 363.645023 117.683805 
L 363.868334 115.929981 
L 364.314957 121.389069 
L 364.538269 120.568037 
L 364.761581 112.407813 
L 364.984892 109.832957 
L 365.208204 120.249069 
L 365.431516 120.807013 
L 365.654827 126.585069 
L 365.878139 128.055125 
L 366.101451 133.195244 
L 366.324762 134.426325 
L 366.548074 128.055125 
L 366.771386 127.497181 
L 366.994697 122.859125 
L 367.218009 121.947013 
L 367.441321 123.417069 
L 367.664632 115.611013 
L 367.887944 117.364837 
L 368.111256 110.116725 
L 368.334567 118.515925 
L 368.557879 116.168957 
L 368.781191 117.045869 
L 369.227814 106.071813 
L 369.451126 106.629757 
L 369.674437 103.780725 
L 369.897749 106.629757 
L 370.121061 103.780725 
L 370.344372 107.825637 
L 370.567684 99.461637 
L 370.790995 107.267693 
L 371.014307 105.797637 
L 371.237619 117.364837 
L 371.46093 117.364837 
L 371.684242 125.433981 
L 371.907554 128.637181 
L 372.130865 128.920949 
L 372.354177 127.223005 
L 372.577489 130.928269 
L 372.8008 128.637181 
L 373.247424 120.293862 
L 373.470735 118.504837 
L 373.694047 126.346093 
L 373.917359 125.150213 
L 374.14067 122.859125 
L 374.363982 129.195125 
L 374.810605 116.806893 
L 375.033917 119.974893 
L 375.257229 119.097981 
L 375.703852 127.725069 
L 375.927164 124.557069 
L 376.150475 123.736037 
L 376.373787 124.293981 
L 376.597099 126.585069 
L 376.82041 130.346213 
L 377.043722 122.540157 
L 377.267034 128.055125 
L 377.490345 121.683925 
L 377.713657 121.683925 
L 377.936968 115.611013 
L 378.16028 125.445068 
L 378.383592 127.178213 
L 378.830215 145.618676 
L 379.053527 138.689532 
L 379.276838 144.2045 
L 379.50015 145.025532 
L 379.723462 146.814556 
L 379.946773 150.5757 
L 380.170085 151.396732 
L 380.393397 156.592732 
L 380.616708 150.5757 
L 380.84002 148.228732 
L 381.063332 152.273644 
L 381.286643 153.7437 
L 381.509955 149.663588 
L 381.733267 157.504844 
L 381.956578 147.965644 
L 382.17989 145.618676 
L 382.403202 147.965644 
L 382.626513 153.982676 
L 382.849825 166.406107 
L 383.073137 156.273764 
L 383.296448 157.185876 
L 383.743072 166.406107 
L 383.966383 162.381875 
L 384.189695 164.115019 
L 384.636318 177.654339 
L 384.85963 164.672963 
L 385.082941 169.255139 
L 385.306253 171.044163 
L 385.529565 178.794339 
L 385.752876 177.973307 
L 386.1995 173.893195 
L 386.422811 179.124395 
L 386.869435 173.574227 
L 387.092746 184.583483 
L 387.316058 184.309307 
L 387.53937 169.6189 
L 387.762681 166.4509 
L 387.985993 192.686332 
L 388.209305 179.979132 
L 388.432616 194.714332 
L 388.87924 178.883925 
L 389.325863 188.686213 
L 389.549175 184.661981 
L 389.772486 194.475356 
L 389.995798 177.413869 
L 390.21911 179.704957 
L 390.442421 189.518332 
L 390.665733 182.051925 
L 390.889045 195.0333 
L 391.112356 193.0053 
L 391.335668 200.811356 
L 391.558979 202.783476 
L 391.782291 199.352388 
L 392.005603 201.085532 
L 392.228914 197.00542 
L 392.452226 188.981068 
L 392.898849 204.5725 
L 393.122161 201.085532 
L 393.345473 203.695588 
L 393.568784 202.225532 
L 393.792096 208.891588 
L 394.015408 203.37662 
L 394.238719 208.014676 
L 394.462031 196.447476 
L 394.685343 206.54462 
L 394.908654 206.54462 
L 395.578589 184.059244 
L 395.801901 188.104156 
L 396.025213 188.6973 
L 396.248524 190.395244 
L 396.471836 187.227244 
L 396.695148 186.350332 
L 396.918459 188.104156 
L 397.365083 178.883925 
L 397.588394 187.546213 
L 398.035018 195.0333 
L 398.481641 188.104156 
L 398.704952 191.8653 
L 398.928264 191.8653 
L 399.151576 183.785069 
L 399.374887 193.563244 
L 399.598199 186.6341 
L 399.821511 184.936156 
L 400.044822 186.350332 
L 400.268134 177.369076 
L 400.491446 181.13022 
L 400.714757 175.077988 
L 400.938069 176.548044 
L 401.161381 176.548044 
L 401.384692 180.572276 
L 401.608004 168.741988 
L 401.831316 175.077988 
L 402.054627 173.380044 
L 402.277939 166.4509 
L 402.501251 171.352044 
L 402.724562 160.0797 
L 402.947874 169.6189 
L 403.171186 164.103932 
L 403.394497 164.103932 
L 403.617809 166.4509 
L 403.841121 166.4509 
L 404.064432 170.212044 
L 404.287744 176.548044 
L 404.511056 178.839132 
L 404.734367 173.643132 
L 405.18099 188.981068 
L 405.404302 187.829981 
L 405.627614 189.8373 
L 405.850925 184.343013 
L 406.074237 192.184268 
L 406.297549 182.908157 
L 406.52086 187.546213 
L 406.967484 184.925069 
L 407.190795 173.139574 
L 407.637419 175.146894 
L 407.86073 169.652606 
L 408.084042 167.361518 
L 408.307354 176.262781 
L 408.530665 166.484606 
L 408.753977 163.635574 
L 408.977289 171.122662 
L 409.647224 180.900837 
L 409.870535 174.883805 
L 410.093847 177.174893 
L 410.317159 178.051805 
L 410.54047 171.680605 
L 410.763782 172.536837 
L 410.987094 169.333637 
L 411.210405 179.465981 
L 411.657029 167.635693 
L 412.103652 175.385869 
L 412.326963 171.396837 
L 412.550275 173.687925 
L 413.22021 157.822318 
L 413.443522 164.193518 
L 413.666833 162.404494 
L 414.113457 161.025518 
L 414.336768 156.387462 
L 414.56008 165.607694 
L 414.783392 167.954662 
L 415.006703 172.536837 
L 415.453327 167.042549 
L 415.676638 167.954662 
L 415.89995 164.751462 
L 416.123262 163.874549 
L 416.346573 152.637405 
L 416.793197 165.025637 
L 417.016508 165.618781 
L 417.23982 171.396837 
L 417.463132 173.687925 
L 417.686443 169.049869 
L 417.909755 169.049869 
L 418.133067 172.217869 
L 418.356378 177.174893 
L 418.57969 173.971693 
L 419.026313 166.165637 
L 419.249625 165.344605 
L 419.472936 155.805405 
L 419.696248 161.264493 
L 419.91956 162.678669 
L 420.142871 161.857637 
L 420.366183 180.023925 
L 420.589495 173.094781 
L 420.812806 170.803693 
L 421.036118 170.803693 
L 421.25943 170.245749 
L 421.482741 174.290662 
L 421.706053 165.926662 
L 421.929365 169.652606 
L 422.152676 167.954662 
L 422.375988 178.314894 
L 422.5993 171.943694 
L 422.822611 170.245749 
L 423.045923 171.122662 
L 423.269235 171.122662 
L 423.492546 175.704837 
L 423.715858 170.803693 
L 423.93917 181.757069 
L 424.162481 178.872837 
L 424.385793 181.757069 
L 424.609105 180.900837 
L 425.055728 190.121069 
L 425.27904 191.854213 
L 426.172286 174.883805 
L 426.395598 175.704837 
L 426.618909 174.290662 
L 426.842221 175.146894 
L 427.065533 175.146894 
L 427.288844 174.290662 
L 427.512156 175.146894 
L 427.735468 167.361518 
L 427.958779 171.122662 
L 428.405403 173.413749 
L 428.852026 167.954662 
L 429.075338 170.245749 
L 429.298649 162.997637 
L 429.521961 165.344605 
L 429.745273 163.555581 
L 429.968584 169.049869 
L 430.191896 167.635693 
L 430.415208 167.635693 
L 430.638519 158.973405 
L 430.861831 166.758781 
L 431.085143 162.176605 
L 431.308454 165.344605 
L 431.531766 159.829637 
L 431.755078 168.512605 
L 431.978389 169.926781 
L 432.201701 173.687925 
L 432.425013 175.122781 
L 432.648324 172.775813 
L 433.094947 162.723462 
L 433.318259 164.193518 
L 433.541571 154.64323 
L 433.764882 159.87443 
L 433.988194 148.865174 
L 434.211506 154.654318 
L 434.434817 150.893174 
L 434.658129 161.84655 
L 434.881441 165.607694 
L 435.104752 158.67855 
L 435.328064 161.583462 
L 435.551376 154.654318 
L 435.774687 159.555462 
L 435.997999 158.67855 
L 436.444622 150.33523 
L 436.667934 163.635574 
L 436.891246 154.917406 
L 437.114557 160.432374 
L 437.337869 157.822318 
L 437.561181 159.236494 
L 437.784492 159.236494 
L 438.231116 162.404494 
L 438.454427 161.583462 
L 438.901051 143.361294 
L 439.124362 142.540262 
L 439.347674 139.930205 
L 439.570985 141.628149 
L 440.017609 138.460149 
L 440.24092 133.559005 
L 440.464232 124.055005 
L 440.687544 127.223005 
L 440.910855 139.611237 
L 441.134167 143.372381 
L 441.357479 125.150213 
L 441.58079 142.779237 
L 441.804102 148.557293 
L 442.027414 147.680381 
L 442.250725 140.193294 
L 442.474037 141.070206 
L 442.92066 131.849974 
L 443.143972 135.611118 
L 443.367284 119.461742 
L 443.590595 124.043918 
L 443.813907 123.131806 
L 444.037219 119.963806 
L 444.26053 125.478774 
L 444.483842 127.486094 
L 444.707154 119.142774 
L 444.930465 119.142774 
L 445.153777 125.478774 
L 445.6004 117.35375 
L 445.823712 117.35375 
L 446.047024 116.532718 
L 446.270335 114.778894 
L 446.493647 118.823806 
L 446.716958 114.778894 
L 446.94027 113.922662 
L 447.163582 126.904037 
L 447.386893 109.000837 
L 447.610205 108.144605 
L 448.056828 112.168837 
L 448.503452 107.586662 
L 448.726763 108.407694 
L 448.950075 108.407694 
L 449.173387 109.284606 
L 449.396698 106.116606 
L 449.62001 106.993518 
L 449.843322 109.284606 
L 450.066633 107.586662 
L 450.289945 111.575694 
L 450.513257 108.407694 
L 450.95988 117.946894 
L 451.183192 112.487806 
L 451.406503 119.963806 
L 451.629815 119.142774 
L 451.853127 119.142774 
L 452.076438 115.062662 
L 452.29975 123.72495 
L 452.523062 126.89295 
L 452.746373 120.55695 
L 452.969685 120.55695 
L 453.192996 117.35375 
L 453.416308 117.35375 
L 453.862931 124.282894 
L 454.086243 121.708037 
L 454.309555 124.055005 
L 454.532866 128.920949 
L 454.756178 124.282894 
L 454.97949 124.876037 
L 455.202801 128.920949 
L 455.426113 129.833062 
L 455.872736 133.559005 
L 456.096048 133.559005 
L 456.765983 145.070325 
L 456.989295 135.850093 
L 457.212606 133.559005 
L 457.65923 139.930205 
L 457.882541 133.001062 
L 458.105853 129.833062 
L 458.329165 133.001062 
L 458.552476 134.415237 
L 458.775788 133.559005 
L 458.9991 124.055005 
L 459.222411 128.044037 
L 459.445723 135.292149 
L 459.669035 132.124149 
L 459.892346 134.415237 
L 460.115658 128.920949 
L 460.338969 128.363006 
L 460.562281 129.833062 
L 460.785593 133.001062 
L 461.008904 130.654094 
L 461.232216 131.531006 
L 461.455528 133.001062 
L 461.902151 125.752949 
L 462.125463 129.514093 
L 462.348774 128.637181 
L 462.572086 122.584949 
L 462.795398 122.584949 
L 463.018709 121.114894 
L 463.242021 121.114894 
L 463.465333 117.125862 
L 463.688644 116.532718 
L 463.911956 118.823806 
L 464.135268 119.700718 
L 464.358579 118.823806 
L 464.805203 118.823806 
L 465.028514 109.603574 
L 465.475138 110.424606 
L 465.698449 108.133518 
L 465.921761 107.256606 
L 466.145073 103.267574 
L 466.591696 109.603574 
L 466.815008 104.965518 
L 467.038319 109.603574 
L 467.261631 104.088606 
L 467.484942 106.435574 
L 467.708254 104.088606 
L 467.931566 104.088606 
L 468.154877 122.265981 
L 468.378189 122.265981 
L 468.824812 123.736037 
L 469.048124 118.779013 
L 469.271436 134.984268 
L 469.494747 135.8053 
L 469.718059 145.937644 
L 469.941371 147.965644 
L 470.164682 147.053532 
L 470.387994 141.857532 
L 470.611306 150.5757 
L 470.834617 154.894788 
L 471.057929 151.954676 
L 471.504552 162.644964 
L 471.727864 164.991932 
L 471.951176 160.034907 
L 472.174487 162.644964 
L 472.621111 175.626339 
L 472.844422 166.406107 
L 473.291046 160.353876 
L 473.514357 164.991932 
L 473.737669 163.521876 
L 473.96098 164.115019 
L 474.184292 161.823932 
L 474.630915 130.631475 
L 475.077539 128.284507 
L 475.30085 136.648507 
L 475.524162 140.672739 
L 475.747474 137.504739 
L 475.970785 141.230683 
L 476.194097 138.381651 
L 476.417409 132.922563 
L 476.64072 135.213651 
L 476.864032 128.284507 
L 477.087344 129.161419 
L 477.310655 134.062564 
L 477.533967 126.870332 
L 477.757279 127.691364 
L 477.98059 124.523364 
L 478.427214 135.213651 
L 478.873837 124.523364 
L 479.097149 128.284507 
L 479.32046 134.301539 
L 479.543772 123.702332 
L 479.990395 122.232276 
L 480.213707 124.523364 
L 480.437019 121.355364 
L 480.66033 125.081307 
L 481.106953 127.428275 
L 481.330265 125.400276 
L 481.553577 122.232276 
L 481.776888 126.870332 
L 482.0002 119.622219 
L 482.223512 123.383363 
L 482.446823 117.924275 
L 482.670135 117.924275 
L 482.893447 122.506451 
L 483.116758 124.797539 
L 483.34007 125.674451 
L 483.563382 131.133539 
L 483.786693 116.135251 
L 484.010005 127.702451 
L 484.456628 119.896395 
L 485.126563 157.973202 
L 485.573187 141.230683 
L 485.796498 135.771595 
L 486.01981 143.019707 
L 486.243122 143.577651 
L 486.466433 148.159827 
L 486.913057 136.648507 
L 487.136368 134.620507 
L 487.35968 125.081307 
L 487.582991 130.631475 
L 487.806303 125.993419 
L 488.029615 132.010451 
L 488.252926 133.480507 
L 488.476238 135.771595 
L 488.69955 131.726683 
L 488.922861 142.700739 
L 489.146173 128.523483 
L 489.369485 141.002795 
L 489.592796 137.241651 
L 489.816108 136.364739 
L 490.03942 136.364739 
L 490.262731 135.771595 
L 490.486043 133.161539 
L 490.709355 141.002795 
L 491.155978 134.631595 
L 491.37929 140.090683 
L 491.602601 136.922683 
L 492.049225 138.655827 
L 492.272536 137.799595 
L 492.495848 147.019826 
L 492.942471 130.870451 
L 493.165783 146.461883 
L 493.389095 137.799595 
L 493.612406 144.170795 
L 493.835718 141.002795 
L 494.05903 146.461883 
L 494.282341 141.823827 
L 494.505653 143.293883 
L 494.728964 153.072058 
L 494.952276 143.851826 
L 495.398899 160.32017 
L 495.622211 151.92097 
L 495.845523 153.391026 
L 496.068834 149.629883 
L 496.292146 151.602002 
L 496.515458 166.930346 
L 496.738769 146.142914 
L 496.962081 155.100058 
L 497.185393 155.363146 
L 497.632016 161.152289 
L 497.855328 147.887146 
L 498.301951 159.398465 
L 498.525263 167.762465 
L 498.748574 162.303377 
L 498.971886 160.833321 
L 499.195198 160.833321 
L 499.418509 157.107377 
L 499.641821 164.913433 
L 499.865133 156.195265 
L 500.088444 157.107377 
L 500.311756 162.303377 
L 500.535068 170.965665 
L 500.758379 173.814697 
L 500.981691 165.471377 
L 501.205003 164.594465 
L 501.428314 171.523609 
L 501.651626 172.993665 
L 501.874937 167.762465 
L 502.098249 177.894809 
L 502.321561 174.691609 
L 502.544872 173.256753 
L 502.768184 170.053553 
L 502.991496 170.053553 
L 503.214807 168.355609 
L 503.438119 165.471377 
L 503.661431 166.885553 
L 503.884742 160.514353 
L 504.108054 162.861321 
L 504.331366 157.346353 
L 504.554677 159.693321 
L 504.777989 160.286465 
L 505.001301 158.816409 
L 505.224612 155.055265 
L 505.447924 158.223265 
L 505.671236 150.417209 
L 505.894547 152.206233 
L 506.117859 159.956409 
L 506.341171 162.861321 
L 506.564482 157.346353 
L 506.787794 157.346353 
L 507.234417 154.178353 
L 507.457729 155.648409 
L 507.681041 160.286465 
L 507.904352 157.083265 
L 508.127664 151.568297 
L 508.350975 154.736297 
L 508.574287 150.747265 
L 508.797599 166.019728 
L 509.02091 166.89664 
L 509.244222 172.355728 
L 509.467534 169.187728 
L 509.690845 160.788528 
L 509.914157 159.090584 
L 510.137469 159.648528 
L 510.584092 154.18944 
L 510.807404 154.747384 
L 511.030715 158.771616 
L 511.254027 158.771616 
L 511.477339 161.118584 
L 511.70065 160.241672 
L 511.923962 165.70076 
L 512.147274 164.879728 
L 512.593897 171.489903 
L 512.817209 155.898472 
L 513.04052 175.251047 
L 513.487144 183.001223 
L 513.710455 174.657903 
L 513.933767 172.310935 
L 514.157079 172.310935 
L 514.38039 174.657903 
L 514.603702 174.338935 
L 514.827014 182.738135 
L 515.050325 178.693223 
L 515.273637 199.480654 
L 515.496948 183.833342 
L 515.72026 191.913573 
L 515.943572 207.469805 
L 516.166883 203.480773 
L 516.390195 191.594605 
L 516.613507 207.241917 
L 516.836818 234.639524 
L 517.283442 263.210837 
L 517.506753 253.990605 
L 517.730065 262.059749 
L 517.953377 228.620998 
L 518.176688 221.954942 
L 518.4 221.954942 
L 518.4 221.954942 
" style="fill:none;stroke:#4c72b0;stroke-linecap:round;stroke-width:1.75;"/>
   </g>
   <g id="patch_3">
    <path d="M 72 356.4 
L 518.4 356.4 
" style="fill:none;"/>
   </g>
   <g id="patch_4">
    <path d="M 72 39.6 
L 518.4 39.6 
" style="fill:none;"/>
   </g>
   <g id="patch_5">
    <path d="M 72 356.4 
L 72 39.6 
" style="fill:none;"/>
   </g>
   <g id="patch_6">
    <path d="M 518.4 356.4 
L 518.4 39.6 
" style="fill:none;"/>
   </g>
   <g id="text_16">
    <!-- rb - 1.5875054541087634 * jm -->
    <defs>
     <path d="M 9.125 0 
L 9.125 10.6875 
L 18.65625 10.6875 
L 18.65625 0 
z
" id="LiberationSans-2e"/>
     <path d="M 6.6875 64.0625 
L 6.6875 72.46875 
L 15.484375 72.46875 
L 15.484375 64.0625 
z
M 15.484375 -6.546875 
Q 15.484375 -9.578125 14.96875 -12.15625 
Q 14.453125 -14.75 13.125 -16.65625 
Q 11.8125 -18.5625 9.546875 -19.65625 
Q 7.28125 -20.75 3.765625 -20.75 
Q 2.09375 -20.75 0.5 -20.65625 
Q -1.078125 -20.5625 -2.4375 -20.3125 
L -2.4375 -13.53125 
Q -1.8125 -13.625 -0.921875 -13.71875 
Q -0.046875 -13.8125 0.59375 -13.8125 
Q 2.4375 -13.8125 3.625 -13.328125 
Q 4.828125 -12.84375 5.515625 -11.796875 
Q 6.203125 -10.75 6.4375 -9.109375 
Q 6.6875 -7.46875 6.6875 -5.21875 
L 6.6875 52.828125 
L 15.484375 52.828125 
z
" id="LiberationSans-6a"/>
     <path d="M 22.265625 54.390625 
L 35.15625 59.421875 
L 37.359375 52.984375 
L 23.578125 49.421875 
L 32.625 37.203125 
L 26.8125 33.6875 
L 19.484375 46.296875 
L 11.859375 33.796875 
L 6.0625 37.3125 
L 15.28125 49.421875 
L 1.609375 52.984375 
L 3.8125 59.515625 
L 16.84375 54.296875 
L 16.265625 68.796875 
L 22.90625 68.796875 
z
" id="LiberationSans-2a"/>
     <path d="M 6.9375 0 
L 6.9375 40.53125 
Q 6.9375 42.1875 6.90625 43.921875 
Q 6.890625 45.65625 6.828125 47.265625 
Q 6.78125 48.875 6.734375 50.28125 
Q 6.6875 51.703125 6.640625 52.828125 
L 14.9375 52.828125 
Q 14.984375 51.703125 15.0625 50.265625 
Q 15.140625 48.828125 15.203125 47.3125 
Q 15.28125 45.796875 15.296875 44.40625 
Q 15.328125 43.015625 15.328125 42.046875 
L 15.53125 42.046875 
Q 16.453125 45.0625 17.5 47.28125 
Q 18.5625 49.515625 19.96875 50.953125 
Q 21.390625 52.390625 23.34375 53.09375 
Q 25.296875 53.8125 28.078125 53.8125 
Q 29.15625 53.8125 30.125 53.640625 
Q 31.109375 53.46875 31.640625 53.328125 
L 31.640625 45.265625 
Q 30.765625 45.515625 29.59375 45.625 
Q 28.421875 45.75 26.953125 45.75 
Q 23.921875 45.75 21.796875 44.375 
Q 19.671875 43.015625 18.328125 40.59375 
Q 17 38.1875 16.359375 34.84375 
Q 15.71875 31.5 15.71875 27.546875 
L 15.71875 0 
z
" id="LiberationSans-72"/>
     <path d="M 51.421875 26.65625 
Q 51.421875 -0.984375 31.984375 -0.984375 
Q 25.984375 -0.984375 22 1.1875 
Q 18.015625 3.375 15.53125 8.203125 
L 15.4375 8.203125 
Q 15.4375 6.9375 15.359375 5.5625 
Q 15.28125 4.203125 15.203125 3.03125 
Q 15.140625 1.859375 15.0625 1.03125 
Q 14.984375 0.203125 14.9375 0 
L 6.453125 0 
Q 6.5 0.4375 6.546875 1.484375 
Q 6.59375 2.546875 6.640625 4 
Q 6.6875 5.46875 6.703125 7.21875 
Q 6.734375 8.984375 6.734375 10.890625 
L 6.734375 72.46875 
L 15.53125 72.46875 
L 15.53125 51.8125 
Q 15.53125 50.34375 15.5 49 
Q 15.484375 47.65625 15.4375 46.625 
Q 15.375 45.40625 15.328125 44.34375 
L 15.53125 44.34375 
Q 17.96875 49.421875 22 51.609375 
Q 26.03125 53.8125 31.984375 53.8125 
Q 42 53.8125 46.703125 47.0625 
Q 51.421875 40.328125 51.421875 26.65625 
M 42.1875 26.375 
Q 42.1875 31.84375 41.5 35.75 
Q 40.828125 39.65625 39.3125 42.15625 
Q 37.796875 44.671875 35.453125 45.84375 
Q 33.109375 47.015625 29.734375 47.015625 
Q 26.265625 47.015625 23.609375 45.890625 
Q 20.953125 44.78125 19.171875 42.28125 
Q 17.390625 39.796875 16.453125 35.734375 
Q 15.53125 31.6875 15.53125 25.828125 
Q 15.53125 20.171875 16.453125 16.3125 
Q 17.390625 12.453125 19.171875 10.03125 
Q 20.953125 7.625 23.578125 6.5625 
Q 26.21875 5.515625 29.640625 5.515625 
Q 32.859375 5.515625 35.203125 6.640625 
Q 37.546875 7.765625 39.109375 10.25 
Q 40.671875 12.75 41.421875 16.71875 
Q 42.1875 20.703125 42.1875 26.375 
" id="LiberationSans-62"/>
    </defs>
    <g style="fill:#262626;" transform="translate(214.145625 34.6)scale(0.12 -0.12)">
     <use xlink:href="#LiberationSans-72"/>
     <use x="33.30078125" xlink:href="#LiberationSans-62"/>
     <use x="88.916015625" xlink:href="#LiberationSans-20"/>
     <use x="116.69921875" xlink:href="#LiberationSans-2d"/>
     <use x="150.0" xlink:href="#LiberationSans-20"/>
     <use x="177.783203125" xlink:href="#LiberationSans-31"/>
     <use x="233.3984375" xlink:href="#LiberationSans-2e"/>
     <use x="261.181640625" xlink:href="#LiberationSans-35"/>
     <use x="316.796875" xlink:href="#LiberationSans-38"/>
     <use x="372.412109375" xlink:href="#LiberationSans-37"/>
     <use x="428.02734375" xlink:href="#LiberationSans-35"/>
     <use x="483.642578125" xlink:href="#LiberationSans-30"/>
     <use x="539.2578125" xlink:href="#LiberationSans-35"/>
     <use x="594.873046875" xlink:href="#LiberationSans-34"/>
     <use x="650.48828125" xlink:href="#LiberationSans-35"/>
     <use x="706.103515625" xlink:href="#LiberationSans-34"/>
     <use x="761.71875" xlink:href="#LiberationSans-31"/>
     <use x="817.333984375" xlink:href="#LiberationSans-30"/>
     <use x="872.94921875" xlink:href="#LiberationSans-38"/>
     <use x="928.564453125" xlink:href="#LiberationSans-37"/>
     <use x="984.1796875" xlink:href="#LiberationSans-36"/>
     <use x="1039.794921875" xlink:href="#LiberationSans-33"/>
     <use x="1095.41015625" xlink:href="#LiberationSans-34"/>
     <use x="1151.025390625" xlink:href="#LiberationSans-20"/>
     <use x="1178.80859375" xlink:href="#LiberationSans-2a"/>
     <use x="1217.724609375" xlink:href="#LiberationSans-20"/>
     <use x="1245.5078125" xlink:href="#LiberationSans-6a"/>
     <use x="1267.724609375" xlink:href="#LiberationSans-6d"/>
    </g>
   </g>
  </g>
 </g>
 <defs>
  <clipPath id="paf9afb1b77">
   <rect height="316.8" width="446.4" x="72.0" y="39.6"/>
  </clipPath>
 </defs>
</svg>
