<?xml version="1.0" encoding="utf-8" standalone="no"?>
<!DOCTYPE svg PUBLIC "-//W3C//DTD SVG 1.1//EN"
  "http://www.w3.org/Graphics/SVG/1.1/DTD/svg11.dtd">
<!-- Created with matplotlib (http://matplotlib.org/) -->
<svg height="396pt" version="1.1" viewBox="0 0 576 396" width="576pt" xmlns="http://www.w3.org/2000/svg" xmlns:xlink="http://www.w3.org/1999/xlink">
 <defs>
  <style type="text/css">
*{stroke-linecap:butt;stroke-linejoin:round;stroke-miterlimit:100000;}
  </style>
 </defs>
 <g id="figure_1">
  <g id="patch_1">
   <path d="M 0 396 
L 576 396 
L 576 0 
L 0 0 
z
" style="fill:#ffffff;"/>
  </g>
  <g id="axes_1">
   <g id="patch_2">
    <path d="M 72 356.4 
L 518.4 356.4 
L 518.4 39.6 
L 72 39.6 
z
" style="fill:#eaeaf2;"/>
   </g>
   <g id="matplotlib.axis_1">
    <g id="xtick_1">
     <g id="line2d_1">
      <path clip-path="url(#p668f5061d7)" d="M 72 356.4 
L 72 39.6 
" style="fill:none;stroke:#ffffff;stroke-linecap:round;"/>
     </g>
     <g id="line2d_2"/>
     <g id="line2d_3"/>
     <g id="text_1">
      <!-- 2016-09-29 22:47:00 -->
      <defs>
       <path d="M 5.03125 0 
L 5.03125 6.203125 
Q 7.515625 11.921875 11.109375 16.28125 
Q 14.703125 20.65625 18.65625 24.1875 
Q 22.609375 27.734375 26.484375 30.765625 
Q 30.375 33.796875 33.5 36.8125 
Q 36.625 39.84375 38.546875 43.15625 
Q 40.484375 46.484375 40.484375 50.6875 
Q 40.484375 53.609375 39.59375 55.828125 
Q 38.71875 58.0625 37.0625 59.5625 
Q 35.40625 61.078125 33.078125 61.828125 
Q 30.765625 62.59375 27.9375 62.59375 
Q 25.296875 62.59375 22.96875 61.859375 
Q 20.65625 61.140625 18.84375 59.671875 
Q 17.046875 58.203125 15.890625 56.03125 
Q 14.75 53.859375 14.40625 50.984375 
L 5.421875 51.8125 
Q 5.859375 55.515625 7.46875 58.78125 
Q 9.078125 62.0625 11.90625 64.53125 
Q 14.75 67 18.71875 68.40625 
Q 22.703125 69.828125 27.9375 69.828125 
Q 33.0625 69.828125 37.0625 68.609375 
Q 41.0625 67.390625 43.8125 64.984375 
Q 46.578125 62.59375 48.046875 59.078125 
Q 49.515625 55.5625 49.515625 50.984375 
Q 49.515625 47.515625 48.265625 44.390625 
Q 47.015625 41.265625 44.9375 38.421875 
Q 42.875 35.59375 40.140625 32.953125 
Q 37.40625 30.328125 34.421875 27.8125 
Q 31.453125 25.296875 28.421875 22.828125 
Q 25.390625 20.359375 22.71875 17.859375 
Q 20.0625 15.375 17.96875 12.8125 
Q 15.875 10.25 14.703125 7.46875 
L 50.59375 7.46875 
L 50.59375 0 
z
" id="LiberationSans-32"/>
       <path d="M 7.625 0 
L 7.625 7.46875 
L 25.140625 7.46875 
L 25.140625 60.40625 
L 9.625 49.3125 
L 9.625 57.625 
L 25.875 68.796875 
L 33.984375 68.796875 
L 33.984375 7.46875 
L 50.734375 7.46875 
L 50.734375 0 
z
" id="LiberationSans-31"/>
       <path d="M 50.59375 61.671875 
Q 45.40625 53.765625 41.0625 46.453125 
Q 36.71875 39.15625 33.59375 31.75 
Q 30.46875 24.359375 28.734375 16.578125 
Q 27 8.796875 27 0 
L 17.828125 0 
Q 17.828125 8.25 19.78125 16.1875 
Q 21.734375 24.125 25.046875 31.765625 
Q 28.375 39.40625 32.765625 46.78125 
Q 37.15625 54.15625 42.09375 61.328125 
L 5.125 61.328125 
L 5.125 68.796875 
L 50.59375 68.796875 
z
" id="LiberationSans-37"/>
       <path d="M 51.703125 34.421875 
Q 51.703125 24.515625 49.828125 17.75 
Q 47.953125 10.984375 44.703125 6.8125 
Q 41.453125 2.640625 37.0625 0.828125 
Q 32.671875 -0.984375 27.6875 -0.984375 
Q 22.65625 -0.984375 18.3125 0.828125 
Q 13.96875 2.640625 10.765625 6.78125 
Q 7.5625 10.9375 5.734375 17.703125 
Q 3.90625 24.46875 3.90625 34.421875 
Q 3.90625 44.828125 5.734375 51.640625 
Q 7.5625 58.453125 10.78125 62.5 
Q 14.015625 66.546875 18.40625 68.1875 
Q 22.796875 69.828125 27.984375 69.828125 
Q 32.90625 69.828125 37.21875 68.1875 
Q 41.546875 66.546875 44.765625 62.5 
Q 48 58.453125 49.84375 51.640625 
Q 51.703125 44.828125 51.703125 34.421875 
M 42.78125 34.421875 
Q 42.78125 42.625 41.796875 48.0625 
Q 40.828125 53.515625 38.921875 56.765625 
Q 37.015625 60.015625 34.25 61.359375 
Q 31.5 62.703125 27.984375 62.703125 
Q 24.265625 62.703125 21.4375 61.328125 
Q 18.609375 59.96875 16.671875 56.71875 
Q 14.75 53.46875 13.765625 48.015625 
Q 12.796875 42.578125 12.796875 34.421875 
Q 12.796875 26.515625 13.796875 21.09375 
Q 14.796875 15.671875 16.71875 12.375 
Q 18.65625 9.078125 21.4375 7.640625 
Q 24.21875 6.203125 27.78125 6.203125 
Q 31.25 6.203125 34.03125 7.640625 
Q 36.8125 9.078125 38.734375 12.375 
Q 40.671875 15.671875 41.71875 21.09375 
Q 42.78125 26.515625 42.78125 34.421875 
" id="LiberationSans-30"/>
       <path d="M 50.875 35.796875 
Q 50.875 26.609375 49.140625 19.703125 
Q 47.40625 12.796875 44.1875 8.203125 
Q 40.96875 3.609375 36.34375 1.3125 
Q 31.734375 -0.984375 25.984375 -0.984375 
Q 22.015625 -0.984375 18.84375 -0.171875 
Q 15.671875 0.640625 13.171875 2.34375 
Q 10.6875 4.046875 8.921875 6.78125 
Q 7.171875 9.515625 6.109375 13.375 
L 14.5 14.703125 
Q 15.875 10.25 18.78125 8.171875 
Q 21.6875 6.109375 26.125 6.109375 
Q 29.6875 6.109375 32.640625 7.78125 
Q 35.59375 9.46875 37.671875 12.84375 
Q 39.75 16.21875 40.921875 21.296875 
Q 42.09375 26.375 42.1875 33.203125 
Q 41.15625 30.90625 39.375 29.09375 
Q 37.59375 27.296875 35.328125 26.046875 
Q 33.0625 24.8125 30.421875 24.140625 
Q 27.78125 23.484375 25.09375 23.484375 
Q 20.40625 23.484375 16.625 25.171875 
Q 12.84375 26.859375 10.203125 29.875 
Q 7.5625 32.90625 6.125 37.171875 
Q 4.6875 41.453125 4.6875 46.6875 
Q 4.6875 52 6.21875 56.296875 
Q 7.765625 60.59375 10.6875 63.59375 
Q 13.625 66.609375 17.890625 68.21875 
Q 22.171875 69.828125 27.59375 69.828125 
Q 39.0625 69.828125 44.96875 61.328125 
Q 50.875 52.828125 50.875 35.796875 
M 41.3125 44.28125 
Q 41.3125 48.09375 40.40625 51.453125 
Q 39.5 54.828125 37.71875 57.3125 
Q 35.9375 59.8125 33.328125 61.25 
Q 30.71875 62.703125 27.296875 62.703125 
Q 24.125 62.703125 21.578125 61.578125 
Q 19.046875 60.453125 17.28125 58.375 
Q 15.53125 56.296875 14.578125 53.3125 
Q 13.625 50.34375 13.625 46.6875 
Q 13.625 43.21875 14.46875 40.234375 
Q 15.328125 37.25 17.03125 35.078125 
Q 18.75 32.90625 21.28125 31.65625 
Q 23.828125 30.421875 27.203125 30.421875 
Q 29.640625 30.421875 32.15625 31.25 
Q 34.671875 32.078125 36.6875 33.78125 
Q 38.71875 35.5 40.015625 38.109375 
Q 41.3125 40.71875 41.3125 44.28125 
" id="LiberationSans-39"/>
       <path d="M 9.125 42.71875 
L 9.125 52.828125 
L 18.65625 52.828125 
L 18.65625 42.71875 
z
M 9.125 0 
L 9.125 10.109375 
L 18.65625 10.109375 
L 18.65625 0 
z
" id="LiberationSans-3a"/>
       <path d="M 43.015625 15.578125 
L 43.015625 0 
L 34.71875 0 
L 34.71875 15.578125 
L 2.296875 15.578125 
L 2.296875 22.40625 
L 33.796875 68.796875 
L 43.015625 68.796875 
L 43.015625 22.515625 
L 52.6875 22.515625 
L 52.6875 15.578125 
z
M 34.71875 58.890625 
Q 34.625 58.640625 34.234375 57.9375 
Q 33.84375 57.234375 33.34375 56.34375 
Q 32.859375 55.46875 32.34375 54.5625 
Q 31.84375 53.65625 31.453125 53.078125 
L 13.8125 27.09375 
Q 13.578125 26.703125 13.109375 26.0625 
Q 12.640625 25.4375 12.15625 24.78125 
Q 11.671875 24.125 11.171875 23.484375 
Q 10.6875 22.859375 10.40625 22.515625 
L 34.71875 22.515625 
z
" id="LiberationSans-34"/>
       <path id="LiberationSans-20"/>
       <path d="M 4.4375 22.65625 
L 4.4375 30.46875 
L 28.859375 30.46875 
L 28.859375 22.65625 
z
" id="LiberationSans-2d"/>
       <path d="M 51.21875 22.515625 
Q 51.21875 17.328125 49.78125 13 
Q 48.34375 8.6875 45.53125 5.578125 
Q 42.71875 2.484375 38.5625 0.75 
Q 34.421875 -0.984375 29 -0.984375 
Q 23 -0.984375 18.5 1.3125 
Q 14.015625 3.609375 11.03125 7.921875 
Q 8.0625 12.25 6.5625 18.53125 
Q 5.078125 24.8125 5.078125 32.8125 
Q 5.078125 42 6.765625 48.921875 
Q 8.453125 55.859375 11.625 60.5 
Q 14.796875 65.140625 19.359375 67.484375 
Q 23.921875 69.828125 29.6875 69.828125 
Q 33.203125 69.828125 36.28125 69.09375 
Q 39.359375 68.359375 41.875 66.71875 
Q 44.390625 65.09375 46.28125 62.40625 
Q 48.1875 59.71875 49.3125 55.8125 
L 40.921875 54.296875 
Q 39.546875 58.734375 36.546875 60.71875 
Q 33.546875 62.703125 29.59375 62.703125 
Q 25.984375 62.703125 23.046875 60.984375 
Q 20.125 59.28125 18.0625 55.875 
Q 16.015625 52.484375 14.90625 47.359375 
Q 13.8125 42.234375 13.8125 35.40625 
Q 16.21875 39.84375 20.5625 42.15625 
Q 24.90625 44.484375 30.515625 44.484375 
Q 35.203125 44.484375 39.015625 42.96875 
Q 42.828125 41.453125 45.53125 38.59375 
Q 48.25 35.75 49.734375 31.671875 
Q 51.21875 27.59375 51.21875 22.515625 
M 42.28125 22.125 
Q 42.28125 25.6875 41.40625 28.5625 
Q 40.53125 31.453125 38.765625 33.46875 
Q 37.015625 35.5 34.421875 36.59375 
Q 31.84375 37.703125 28.421875 37.703125 
Q 26.03125 37.703125 23.578125 36.984375 
Q 21.140625 36.28125 19.15625 34.6875 
Q 17.1875 33.109375 15.9375 30.515625 
Q 14.703125 27.9375 14.703125 24.21875 
Q 14.703125 20.40625 15.671875 17.109375 
Q 16.65625 13.8125 18.484375 11.375 
Q 20.3125 8.9375 22.890625 7.515625 
Q 25.484375 6.109375 28.71875 6.109375 
Q 31.890625 6.109375 34.40625 7.203125 
Q 36.921875 8.296875 38.671875 10.375 
Q 40.4375 12.453125 41.359375 15.421875 
Q 42.28125 18.40625 42.28125 22.125 
" id="LiberationSans-36"/>
      </defs>
      <g style="fill:#262626;" transform="translate(25.5765625 370.646875)scale(0.1 -0.1)">
       <use xlink:href="#LiberationSans-32"/>
       <use x="55.615234375" xlink:href="#LiberationSans-30"/>
       <use x="111.23046875" xlink:href="#LiberationSans-31"/>
       <use x="166.845703125" xlink:href="#LiberationSans-36"/>
       <use x="222.4609375" xlink:href="#LiberationSans-2d"/>
       <use x="255.76171875" xlink:href="#LiberationSans-30"/>
       <use x="311.376953125" xlink:href="#LiberationSans-39"/>
       <use x="366.9921875" xlink:href="#LiberationSans-2d"/>
       <use x="400.29296875" xlink:href="#LiberationSans-32"/>
       <use x="455.908203125" xlink:href="#LiberationSans-39"/>
       <use x="511.5234375" xlink:href="#LiberationSans-20"/>
       <use x="539.306640625" xlink:href="#LiberationSans-32"/>
       <use x="594.921875" xlink:href="#LiberationSans-32"/>
       <use x="650.537109375" xlink:href="#LiberationSans-3a"/>
       <use x="678.3203125" xlink:href="#LiberationSans-34"/>
       <use x="733.935546875" xlink:href="#LiberationSans-37"/>
       <use x="789.55078125" xlink:href="#LiberationSans-3a"/>
       <use x="817.333984375" xlink:href="#LiberationSans-30"/>
       <use x="872.94921875" xlink:href="#LiberationSans-30"/>
      </g>
     </g>
    </g>
    <g id="xtick_2">
     <g id="line2d_4">
      <path clip-path="url(#p668f5061d7)" d="M 183.655828 356.4 
L 183.655828 39.6 
" style="fill:none;stroke:#ffffff;stroke-linecap:round;"/>
     </g>
     <g id="line2d_5"/>
     <g id="line2d_6"/>
     <g id="text_2">
      <!-- 2016-10-10 21:04:00 -->
      <g style="fill:#262626;" transform="translate(137.232390414 370.646875)scale(0.1 -0.1)">
       <use xlink:href="#LiberationSans-32"/>
       <use x="55.615234375" xlink:href="#LiberationSans-30"/>
       <use x="111.23046875" xlink:href="#LiberationSans-31"/>
       <use x="166.845703125" xlink:href="#LiberationSans-36"/>
       <use x="222.4609375" xlink:href="#LiberationSans-2d"/>
       <use x="255.76171875" xlink:href="#LiberationSans-31"/>
       <use x="311.376953125" xlink:href="#LiberationSans-30"/>
       <use x="366.9921875" xlink:href="#LiberationSans-2d"/>
       <use x="400.29296875" xlink:href="#LiberationSans-31"/>
       <use x="455.908203125" xlink:href="#LiberationSans-30"/>
       <use x="511.5234375" xlink:href="#LiberationSans-20"/>
       <use x="539.306640625" xlink:href="#LiberationSans-32"/>
       <use x="594.921875" xlink:href="#LiberationSans-31"/>
       <use x="650.537109375" xlink:href="#LiberationSans-3a"/>
       <use x="678.3203125" xlink:href="#LiberationSans-30"/>
       <use x="733.935546875" xlink:href="#LiberationSans-34"/>
       <use x="789.55078125" xlink:href="#LiberationSans-3a"/>
       <use x="817.333984375" xlink:href="#LiberationSans-30"/>
       <use x="872.94921875" xlink:href="#LiberationSans-30"/>
      </g>
     </g>
    </g>
    <g id="xtick_3">
     <g id="line2d_7">
      <path clip-path="url(#p668f5061d7)" d="M 295.311656 356.4 
L 295.311656 39.6 
" style="fill:none;stroke:#ffffff;stroke-linecap:round;"/>
     </g>
     <g id="line2d_8"/>
     <g id="line2d_9"/>
     <g id="text_3">
      <!-- 2016-10-11 23:09:00 -->
      <defs>
       <path d="M 51.21875 19 
Q 51.21875 14.265625 49.671875 10.546875 
Q 48.140625 6.84375 45.1875 4.265625 
Q 42.234375 1.703125 37.859375 0.359375 
Q 33.5 -0.984375 27.875 -0.984375 
Q 21.484375 -0.984375 17.109375 0.609375 
Q 12.75 2.203125 9.90625 4.8125 
Q 7.078125 7.421875 5.65625 10.765625 
Q 4.25 14.109375 3.8125 17.671875 
L 12.890625 18.5 
Q 13.28125 15.765625 14.328125 13.515625 
Q 15.375 11.28125 17.1875 9.671875 
Q 19 8.0625 21.625 7.171875 
Q 24.265625 6.296875 27.875 6.296875 
Q 34.515625 6.296875 38.296875 9.5625 
Q 42.09375 12.84375 42.09375 19.28125 
Q 42.09375 23.09375 40.40625 25.40625 
Q 38.71875 27.734375 36.203125 29.03125 
Q 33.6875 30.328125 30.734375 30.765625 
Q 27.78125 31.203125 25.296875 31.203125 
L 20.3125 31.203125 
L 20.3125 38.8125 
L 25.09375 38.8125 
Q 27.59375 38.8125 30.265625 39.328125 
Q 32.953125 39.84375 35.171875 41.1875 
Q 37.40625 42.53125 38.84375 44.828125 
Q 40.28125 47.125 40.28125 50.6875 
Q 40.28125 56.203125 37.03125 59.390625 
Q 33.796875 62.59375 27.390625 62.59375 
Q 21.578125 62.59375 17.984375 59.609375 
Q 14.40625 56.640625 13.8125 51.21875 
L 4.984375 51.90625 
Q 5.515625 56.453125 7.46875 59.8125 
Q 9.421875 63.1875 12.421875 65.40625 
Q 15.4375 67.625 19.28125 68.71875 
Q 23.140625 69.828125 27.484375 69.828125 
Q 33.25 69.828125 37.390625 68.375 
Q 41.546875 66.9375 44.1875 64.46875 
Q 46.828125 62.015625 48.0625 58.6875 
Q 49.3125 55.375 49.3125 51.609375 
Q 49.3125 48.578125 48.484375 45.9375 
Q 47.65625 43.3125 45.890625 41.203125 
Q 44.140625 39.109375 41.421875 37.59375 
Q 38.71875 36.078125 34.90625 35.296875 
L 34.90625 35.109375 
Q 39.0625 34.671875 42.140625 33.21875 
Q 45.21875 31.78125 47.21875 29.625 
Q 49.21875 27.484375 50.21875 24.75 
Q 51.21875 22.015625 51.21875 19 
" id="LiberationSans-33"/>
      </defs>
      <g style="fill:#262626;" transform="translate(248.888218328 370.646875)scale(0.1 -0.1)">
       <use xlink:href="#LiberationSans-32"/>
       <use x="55.615234375" xlink:href="#LiberationSans-30"/>
       <use x="111.23046875" xlink:href="#LiberationSans-31"/>
       <use x="166.845703125" xlink:href="#LiberationSans-36"/>
       <use x="222.4609375" xlink:href="#LiberationSans-2d"/>
       <use x="255.76171875" xlink:href="#LiberationSans-31"/>
       <use x="311.376953125" xlink:href="#LiberationSans-30"/>
       <use x="366.9921875" xlink:href="#LiberationSans-2d"/>
       <use x="400.29296875" xlink:href="#LiberationSans-31"/>
       <use x="455.908203125" xlink:href="#LiberationSans-31"/>
       <use x="511.5234375" xlink:href="#LiberationSans-20"/>
       <use x="539.306640625" xlink:href="#LiberationSans-32"/>
       <use x="594.921875" xlink:href="#LiberationSans-33"/>
       <use x="650.537109375" xlink:href="#LiberationSans-3a"/>
       <use x="678.3203125" xlink:href="#LiberationSans-30"/>
       <use x="733.935546875" xlink:href="#LiberationSans-39"/>
       <use x="789.55078125" xlink:href="#LiberationSans-3a"/>
       <use x="817.333984375" xlink:href="#LiberationSans-30"/>
       <use x="872.94921875" xlink:href="#LiberationSans-30"/>
      </g>
     </g>
    </g>
    <g id="xtick_4">
     <g id="line2d_10">
      <path clip-path="url(#p668f5061d7)" d="M 406.967484 356.4 
L 406.967484 39.6 
" style="fill:none;stroke:#ffffff;stroke-linecap:round;"/>
     </g>
     <g id="line2d_11"/>
     <g id="line2d_12"/>
     <g id="text_4">
      <!-- 2016-10-13 10:58:00 -->
      <defs>
       <path d="M 51.265625 19.1875 
Q 51.265625 14.796875 49.875 11.109375 
Q 48.484375 7.421875 45.625 4.734375 
Q 42.78125 2.046875 38.328125 0.53125 
Q 33.890625 -0.984375 27.828125 -0.984375 
Q 21.78125 -0.984375 17.359375 0.53125 
Q 12.9375 2.046875 10.03125 4.703125 
Q 7.125 7.375 5.734375 11.0625 
Q 4.34375 14.75 4.34375 19.09375 
Q 4.34375 22.859375 5.484375 25.78125 
Q 6.640625 28.71875 8.5625 30.828125 
Q 10.5 32.953125 12.96875 34.25 
Q 15.4375 35.546875 18.0625 35.984375 
L 18.0625 36.1875 
Q 15.1875 36.859375 12.90625 38.375 
Q 10.640625 39.890625 9.09375 42.015625 
Q 7.5625 44.140625 6.75 46.71875 
Q 5.953125 49.3125 5.953125 52.203125 
Q 5.953125 55.8125 7.34375 59 
Q 8.734375 62.203125 11.46875 64.625 
Q 14.203125 67.046875 18.25 68.4375 
Q 22.3125 69.828125 27.640625 69.828125 
Q 33.25 69.828125 37.375 68.40625 
Q 41.5 67 44.203125 64.578125 
Q 46.921875 62.15625 48.234375 58.9375 
Q 49.5625 55.71875 49.5625 52.09375 
Q 49.5625 49.265625 48.75 46.671875 
Q 47.953125 44.09375 46.40625 41.96875 
Q 44.875 39.84375 42.59375 38.34375 
Q 40.328125 36.859375 37.359375 36.28125 
L 37.359375 36.078125 
Q 40.328125 35.59375 42.859375 34.296875 
Q 45.40625 33.015625 47.265625 30.890625 
Q 49.125 28.765625 50.1875 25.828125 
Q 51.265625 22.90625 51.265625 19.1875 
M 40.4375 51.609375 
Q 40.4375 54.203125 39.765625 56.34375 
Q 39.109375 58.5 37.59375 60.03125 
Q 36.078125 61.578125 33.640625 62.421875 
Q 31.203125 63.28125 27.640625 63.28125 
Q 24.171875 63.28125 21.78125 62.421875 
Q 19.390625 61.578125 17.84375 60.03125 
Q 16.3125 58.5 15.625 56.34375 
Q 14.9375 54.203125 14.9375 51.609375 
Q 14.9375 49.5625 15.46875 47.40625 
Q 16.015625 45.265625 17.421875 43.5 
Q 18.84375 41.75 21.328125 40.625 
Q 23.828125 39.5 27.734375 39.5 
Q 31.890625 39.5 34.40625 40.625 
Q 36.921875 41.75 38.25 43.5 
Q 39.59375 45.265625 40.015625 47.40625 
Q 40.4375 49.5625 40.4375 51.609375 
M 42.140625 20.015625 
Q 42.140625 22.515625 41.453125 24.828125 
Q 40.765625 27.15625 39.109375 28.9375 
Q 37.453125 30.71875 34.640625 31.8125 
Q 31.84375 32.90625 27.640625 32.90625 
Q 23.78125 32.90625 21.0625 31.8125 
Q 18.359375 30.71875 16.671875 28.90625 
Q 14.984375 27.09375 14.203125 24.71875 
Q 13.421875 22.359375 13.421875 19.828125 
Q 13.421875 16.65625 14.203125 14.03125 
Q 14.984375 11.421875 16.6875 9.546875 
Q 18.40625 7.671875 21.1875 6.640625 
Q 23.96875 5.609375 27.9375 5.609375 
Q 31.9375 5.609375 34.671875 6.640625 
Q 37.40625 7.671875 39.0625 9.546875 
Q 40.71875 11.421875 41.421875 14.078125 
Q 42.140625 16.75 42.140625 20.015625 
" id="LiberationSans-38"/>
       <path d="M 51.421875 22.40625 
Q 51.421875 17.234375 49.859375 12.9375 
Q 48.296875 8.640625 45.21875 5.53125 
Q 42.140625 2.4375 37.578125 0.71875 
Q 33.015625 -0.984375 27 -0.984375 
Q 21.578125 -0.984375 17.546875 0.28125 
Q 13.53125 1.5625 10.734375 3.78125 
Q 7.953125 6 6.3125 8.984375 
Q 4.6875 11.96875 4 15.375 
L 12.890625 16.40625 
Q 13.421875 14.453125 14.390625 12.625 
Q 15.375 10.796875 17.0625 9.34375 
Q 18.75 7.90625 21.21875 7.046875 
Q 23.6875 6.203125 27.203125 6.203125 
Q 30.609375 6.203125 33.390625 7.25 
Q 36.1875 8.296875 38.15625 10.34375 
Q 40.140625 12.40625 41.203125 15.375 
Q 42.28125 18.359375 42.28125 22.21875 
Q 42.28125 25.390625 41.25 28.046875 
Q 40.234375 30.71875 38.328125 32.640625 
Q 36.421875 34.578125 33.65625 35.640625 
Q 30.90625 36.71875 27.390625 36.71875 
Q 25.203125 36.71875 23.34375 36.328125 
Q 21.484375 35.9375 19.890625 35.25 
Q 18.3125 34.578125 17.015625 33.671875 
Q 15.71875 32.765625 14.59375 31.78125 
L 6 31.78125 
L 8.296875 68.796875 
L 47.40625 68.796875 
L 47.40625 61.328125 
L 16.3125 61.328125 
L 14.984375 39.5 
Q 17.328125 41.3125 20.84375 42.59375 
Q 24.359375 43.890625 29.203125 43.890625 
Q 34.328125 43.890625 38.421875 42.328125 
Q 42.53125 40.765625 45.40625 37.90625 
Q 48.296875 35.0625 49.859375 31.109375 
Q 51.421875 27.15625 51.421875 22.40625 
" id="LiberationSans-35"/>
      </defs>
      <g style="fill:#262626;" transform="translate(360.544046242 370.646875)scale(0.1 -0.1)">
       <use xlink:href="#LiberationSans-32"/>
       <use x="55.615234375" xlink:href="#LiberationSans-30"/>
       <use x="111.23046875" xlink:href="#LiberationSans-31"/>
       <use x="166.845703125" xlink:href="#LiberationSans-36"/>
       <use x="222.4609375" xlink:href="#LiberationSans-2d"/>
       <use x="255.76171875" xlink:href="#LiberationSans-31"/>
       <use x="311.376953125" xlink:href="#LiberationSans-30"/>
       <use x="366.9921875" xlink:href="#LiberationSans-2d"/>
       <use x="400.29296875" xlink:href="#LiberationSans-31"/>
       <use x="455.908203125" xlink:href="#LiberationSans-33"/>
       <use x="511.5234375" xlink:href="#LiberationSans-20"/>
       <use x="539.306640625" xlink:href="#LiberationSans-31"/>
       <use x="594.921875" xlink:href="#LiberationSans-30"/>
       <use x="650.537109375" xlink:href="#LiberationSans-3a"/>
       <use x="678.3203125" xlink:href="#LiberationSans-35"/>
       <use x="733.935546875" xlink:href="#LiberationSans-38"/>
       <use x="789.55078125" xlink:href="#LiberationSans-3a"/>
       <use x="817.333984375" xlink:href="#LiberationSans-30"/>
       <use x="872.94921875" xlink:href="#LiberationSans-30"/>
      </g>
     </g>
    </g>
    <g id="text_5">
     <!-- time -->
     <defs>
      <path d="M 13.484375 24.5625 
Q 13.484375 20.40625 14.328125 16.90625 
Q 15.1875 13.421875 16.96875 10.90625 
Q 18.75 8.40625 21.53125 7 
Q 24.3125 5.609375 28.21875 5.609375 
Q 33.9375 5.609375 37.375 7.90625 
Q 40.828125 10.203125 42.046875 13.71875 
L 49.75 11.53125 
Q 48.921875 9.328125 47.4375 7.109375 
Q 45.953125 4.890625 43.453125 3.09375 
Q 40.96875 1.3125 37.234375 0.15625 
Q 33.5 -0.984375 28.21875 -0.984375 
Q 16.5 -0.984375 10.375 6 
Q 4.25 12.984375 4.25 26.765625 
Q 4.25 34.1875 6.09375 39.328125 
Q 7.953125 44.484375 11.171875 47.703125 
Q 14.40625 50.921875 18.703125 52.359375 
Q 23 53.8125 27.875 53.8125 
Q 34.515625 53.8125 38.984375 51.65625 
Q 43.453125 49.515625 46.15625 45.71875 
Q 48.875 41.9375 50.015625 36.8125 
Q 51.171875 31.6875 51.171875 25.734375 
L 51.171875 24.5625 
z
M 42.09375 31.296875 
Q 41.359375 39.65625 37.84375 43.484375 
Q 34.328125 47.3125 27.734375 47.3125 
Q 25.53125 47.3125 23.109375 46.609375 
Q 20.703125 45.90625 18.65625 44.09375 
Q 16.609375 42.28125 15.1875 39.171875 
Q 13.765625 36.078125 13.578125 31.296875 
z
" id="LiberationSans-65"/>
      <path d="M 6.6875 64.0625 
L 6.6875 72.46875 
L 15.484375 72.46875 
L 15.484375 64.0625 
z
M 6.6875 0 
L 6.6875 52.828125 
L 15.484375 52.828125 
L 15.484375 0 
z
" id="LiberationSans-69"/>
      <path d="M 27.046875 0.390625 
Q 25.046875 -0.140625 22.96875 -0.453125 
Q 20.90625 -0.78125 18.171875 -0.78125 
Q 7.625 -0.78125 7.625 11.1875 
L 7.625 46.4375 
L 1.515625 46.4375 
L 1.515625 52.828125 
L 7.953125 52.828125 
L 10.546875 64.65625 
L 16.40625 64.65625 
L 16.40625 52.828125 
L 26.171875 52.828125 
L 26.171875 46.4375 
L 16.40625 46.4375 
L 16.40625 13.09375 
Q 16.40625 9.28125 17.640625 7.734375 
Q 18.890625 6.203125 21.96875 6.203125 
Q 23.25 6.203125 24.4375 6.390625 
Q 25.640625 6.59375 27.046875 6.890625 
z
" id="LiberationSans-74"/>
      <path d="M 37.5 0 
L 37.5 33.5 
Q 37.5 37.359375 37.015625 39.9375 
Q 36.53125 42.53125 35.375 44.109375 
Q 34.234375 45.703125 32.375 46.359375 
Q 30.515625 47.015625 27.828125 47.015625 
Q 25.046875 47.015625 22.796875 45.921875 
Q 20.5625 44.828125 18.96875 42.75 
Q 17.390625 40.671875 16.53125 37.625 
Q 15.671875 34.578125 15.671875 30.609375 
L 15.671875 0 
L 6.9375 0 
L 6.9375 41.546875 
Q 6.9375 43.21875 6.90625 45.046875 
Q 6.890625 46.875 6.828125 48.5 
Q 6.78125 50.140625 6.734375 51.3125 
Q 6.6875 52.484375 6.640625 52.828125 
L 14.9375 52.828125 
Q 14.984375 52.59375 15.03125 51.515625 
Q 15.09375 50.4375 15.15625 49.046875 
Q 15.234375 47.65625 15.28125 46.21875 
Q 15.328125 44.78125 15.328125 43.796875 
L 15.484375 43.796875 
Q 16.65625 46.09375 18.015625 47.953125 
Q 19.390625 49.8125 21.21875 51.09375 
Q 23.046875 52.390625 25.40625 53.09375 
Q 27.78125 53.8125 30.90625 53.8125 
Q 36.921875 53.8125 40.40625 51.421875 
Q 43.890625 49.03125 45.265625 43.796875 
L 45.40625 43.796875 
Q 46.578125 46.09375 48.046875 47.953125 
Q 49.515625 49.8125 51.46875 51.09375 
Q 53.421875 52.390625 55.859375 53.09375 
Q 58.296875 53.8125 61.421875 53.8125 
Q 65.4375 53.8125 68.328125 52.734375 
Q 71.234375 51.65625 73.09375 49.40625 
Q 74.953125 47.171875 75.828125 43.625 
Q 76.703125 40.09375 76.703125 35.203125 
L 76.703125 0 
L 68.015625 0 
L 68.015625 33.5 
Q 68.015625 37.359375 67.53125 39.9375 
Q 67.046875 42.53125 65.890625 44.109375 
Q 64.75 45.703125 62.890625 46.359375 
Q 61.03125 47.015625 58.34375 47.015625 
Q 55.5625 47.015625 53.3125 45.96875 
Q 51.078125 44.921875 49.484375 42.875 
Q 47.90625 40.828125 47.046875 37.75 
Q 46.1875 34.671875 46.1875 30.609375 
L 46.1875 0 
z
" id="LiberationSans-6d"/>
     </defs>
     <g style="fill:#262626;" transform="translate(284.81015625 385.6934375)scale(0.11 -0.11)">
      <use xlink:href="#LiberationSans-74"/>
      <use x="27.783203125" xlink:href="#LiberationSans-69"/>
      <use x="50.0" xlink:href="#LiberationSans-6d"/>
      <use x="133.30078125" xlink:href="#LiberationSans-65"/>
     </g>
    </g>
   </g>
   <g id="matplotlib.axis_2">
    <g id="ytick_1">
     <g id="line2d_13">
      <path clip-path="url(#p668f5061d7)" d="M 72 356.4 
L 518.4 356.4 
" style="fill:none;stroke:#ffffff;stroke-linecap:round;"/>
     </g>
     <g id="line2d_14"/>
     <g id="line2d_15"/>
     <g id="text_6">
      <!-- 460 -->
      <g style="fill:#262626;" transform="translate(48.3171875 358.9859375)scale(0.1 -0.1)">
       <use xlink:href="#LiberationSans-34"/>
       <use x="55.615234375" xlink:href="#LiberationSans-36"/>
       <use x="111.23046875" xlink:href="#LiberationSans-30"/>
      </g>
     </g>
    </g>
    <g id="ytick_2">
     <g id="line2d_16">
      <path clip-path="url(#p668f5061d7)" d="M 72 316.8 
L 518.4 316.8 
" style="fill:none;stroke:#ffffff;stroke-linecap:round;"/>
     </g>
     <g id="line2d_17"/>
     <g id="line2d_18"/>
     <g id="text_7">
      <!-- 480 -->
      <g style="fill:#262626;" transform="translate(48.3171875 319.3859375)scale(0.1 -0.1)">
       <use xlink:href="#LiberationSans-34"/>
       <use x="55.615234375" xlink:href="#LiberationSans-38"/>
       <use x="111.23046875" xlink:href="#LiberationSans-30"/>
      </g>
     </g>
    </g>
    <g id="ytick_3">
     <g id="line2d_19">
      <path clip-path="url(#p668f5061d7)" d="M 72 277.2 
L 518.4 277.2 
" style="fill:none;stroke:#ffffff;stroke-linecap:round;"/>
     </g>
     <g id="line2d_20"/>
     <g id="line2d_21"/>
     <g id="text_8">
      <!-- 500 -->
      <g style="fill:#262626;" transform="translate(48.3171875 279.7859375)scale(0.1 -0.1)">
       <use xlink:href="#LiberationSans-35"/>
       <use x="55.615234375" xlink:href="#LiberationSans-30"/>
       <use x="111.23046875" xlink:href="#LiberationSans-30"/>
      </g>
     </g>
    </g>
    <g id="ytick_4">
     <g id="line2d_22">
      <path clip-path="url(#p668f5061d7)" d="M 72 237.6 
L 518.4 237.6 
" style="fill:none;stroke:#ffffff;stroke-linecap:round;"/>
     </g>
     <g id="line2d_23"/>
     <g id="line2d_24"/>
     <g id="text_9">
      <!-- 520 -->
      <g style="fill:#262626;" transform="translate(48.3171875 240.1859375)scale(0.1 -0.1)">
       <use xlink:href="#LiberationSans-35"/>
       <use x="55.615234375" xlink:href="#LiberationSans-32"/>
       <use x="111.23046875" xlink:href="#LiberationSans-30"/>
      </g>
     </g>
    </g>
    <g id="ytick_5">
     <g id="line2d_25">
      <path clip-path="url(#p668f5061d7)" d="M 72 198 
L 518.4 198 
" style="fill:none;stroke:#ffffff;stroke-linecap:round;"/>
     </g>
     <g id="line2d_26"/>
     <g id="line2d_27"/>
     <g id="text_10">
      <!-- 540 -->
      <g style="fill:#262626;" transform="translate(48.3171875 200.5859375)scale(0.1 -0.1)">
       <use xlink:href="#LiberationSans-35"/>
       <use x="55.615234375" xlink:href="#LiberationSans-34"/>
       <use x="111.23046875" xlink:href="#LiberationSans-30"/>
      </g>
     </g>
    </g>
    <g id="ytick_6">
     <g id="line2d_28">
      <path clip-path="url(#p668f5061d7)" d="M 72 158.4 
L 518.4 158.4 
" style="fill:none;stroke:#ffffff;stroke-linecap:round;"/>
     </g>
     <g id="line2d_29"/>
     <g id="line2d_30"/>
     <g id="text_11">
      <!-- 560 -->
      <g style="fill:#262626;" transform="translate(48.3171875 160.9859375)scale(0.1 -0.1)">
       <use xlink:href="#LiberationSans-35"/>
       <use x="55.615234375" xlink:href="#LiberationSans-36"/>
       <use x="111.23046875" xlink:href="#LiberationSans-30"/>
      </g>
     </g>
    </g>
    <g id="ytick_7">
     <g id="line2d_31">
      <path clip-path="url(#p668f5061d7)" d="M 72 118.8 
L 518.4 118.8 
" style="fill:none;stroke:#ffffff;stroke-linecap:round;"/>
     </g>
     <g id="line2d_32"/>
     <g id="line2d_33"/>
     <g id="text_12">
      <!-- 580 -->
      <g style="fill:#262626;" transform="translate(48.3171875 121.3859375)scale(0.1 -0.1)">
       <use xlink:href="#LiberationSans-35"/>
       <use x="55.615234375" xlink:href="#LiberationSans-38"/>
       <use x="111.23046875" xlink:href="#LiberationSans-30"/>
      </g>
     </g>
    </g>
    <g id="ytick_8">
     <g id="line2d_34">
      <path clip-path="url(#p668f5061d7)" d="M 72 79.2 
L 518.4 79.2 
" style="fill:none;stroke:#ffffff;stroke-linecap:round;"/>
     </g>
     <g id="line2d_35"/>
     <g id="line2d_36"/>
     <g id="text_13">
      <!-- 600 -->
      <g style="fill:#262626;" transform="translate(48.3171875 81.7859375)scale(0.1 -0.1)">
       <use xlink:href="#LiberationSans-36"/>
       <use x="55.615234375" xlink:href="#LiberationSans-30"/>
       <use x="111.23046875" xlink:href="#LiberationSans-30"/>
      </g>
     </g>
    </g>
    <g id="ytick_9">
     <g id="line2d_37">
      <path clip-path="url(#p668f5061d7)" d="M 72 39.6 
L 518.4 39.6 
" style="fill:none;stroke:#ffffff;stroke-linecap:round;"/>
     </g>
     <g id="line2d_38"/>
     <g id="line2d_39"/>
     <g id="text_14">
      <!-- 620 -->
      <g style="fill:#262626;" transform="translate(48.3171875 42.1859375)scale(0.1 -0.1)">
       <use xlink:href="#LiberationSans-36"/>
       <use x="55.615234375" xlink:href="#LiberationSans-32"/>
       <use x="111.23046875" xlink:href="#LiberationSans-30"/>
      </g>
     </g>
    </g>
   </g>
   <g id="line2d_40">
    <path clip-path="url(#p668f5061d7)" d="M 72 65.963171 
L 72.223312 66.940547 
L 72.446623 62.932196 
L 72.669935 64.928124 
L 72.893247 60.919773 
L 73.116558 66.899373 
L 73.33987 64.928124 
L 73.563182 59.942396 
L 74.009805 65.921996 
L 74.233117 62.932196 
L 74.456428 62.932196 
L 74.67974 65.921996 
L 74.903052 61.938324 
L 75.126363 62.932196 
L 75.349675 62.932196 
L 75.572986 68.911796 
L 75.796298 68.911796 
L 76.01961 67.917924 
L 76.242921 72.878973 
L 76.912856 64.88695 
L 77.136168 63.868399 
L 77.35948 60.878599 
L 77.582791 71.863727 
L 77.806103 61.855975 
L 78.252726 70.86655 
L 78.476038 64.88695 
L 78.69935 61.89715 
L 78.922661 62.874527 
L 79.145973 61.89715 
L 79.369285 61.89715 
L 79.592596 67.87675 
L 80.03922 67.87675 
L 80.262531 70.86655 
L 80.485843 65.921996 
L 80.709155 65.921996 
L 80.932466 66.899373 
L 81.37909 60.878599 
L 81.825713 107.761127 
L 82.049025 94.763575 
L 82.272336 88.783975 
L 82.495648 95.782127 
L 82.942271 122.627778 
L 83.165583 113.658378 
L 83.388894 119.637978 
L 83.612206 119.637978 
L 83.835518 120.615354 
L 84.058829 119.637978 
L 84.282141 116.648178 
L 84.505453 121.592731 
L 84.728764 120.557685 
L 84.952076 133.530557 
L 85.175388 130.581931 
L 85.398699 130.581931 
L 85.622011 134.606778 
L 85.845323 125.579708 
L 86.068634 133.571731 
L 86.291946 135.584154 
L 86.515258 130.581931 
L 86.738569 133.571731 
L 86.961881 129.604554 
L 87.185193 134.628152 
L 87.408504 143.617352 
L 87.631816 143.617352 
L 88.078439 155.576552 
L 88.301751 149.638127 
L 88.525063 151.65055 
L 88.748374 142.639975 
L 88.971686 145.629775 
L 89.194997 144.652399 
L 89.641621 144.652399 
L 89.864932 146.648327 
L 90.311556 139.650175 
L 91.204802 150.574329 
L 91.428114 147.584529 
L 91.651426 148.561906 
L 91.874737 144.594729 
L 92.098049 149.596952 
L 92.321361 143.617352 
L 92.544672 145.572106 
L 92.767984 144.594729 
L 92.991296 141.604929 
L 93.214607 152.586752 
L 93.437919 144.594729 
L 93.661231 143.617352 
L 93.884542 146.607152 
L 94.107854 140.627552 
L 94.331166 145.629775 
L 95.224412 202.040048 
L 95.671036 183.025027 
L 95.894347 187.008699 
L 96.117659 193.070648 
L 96.564282 179.016676 
L 96.787594 176.026876 
L 97.234217 188.02725 
L 97.457529 188.02725 
L 97.68084 192.988299 
L 97.904152 192.988299 
L 98.127464 203.075094 
L 98.350775 191.994427 
L 98.574087 192.988299 
L 98.797399 188.963452 
L 99.02071 187.008699 
L 99.244022 192.988299 
L 99.467334 193.965676 
L 99.913957 197.974027 
L 100.137269 197.974027 
L 100.36058 194.984227 
L 100.807204 194.984227 
L 101.030515 191.994427 
L 101.253827 195.978099 
L 101.477139 191.994427 
L 101.70045 198.031696 
L 101.923762 196.019273 
L 102.147074 200.04412 
L 102.370385 200.04412 
L 102.593697 204.052471 
L 102.817009 203.03392 
L 103.04032 201.021496 
L 103.263632 203.03392 
L 103.486943 204.011296 
L 103.710255 201.998873 
L 103.933567 202.97625 
L 104.156878 204.947499 
L 104.38019 201.957699 
L 104.603502 194.901878 
L 104.826813 200.922652 
L 105.050125 200.922652 
L 105.273437 199.907406 
L 105.496748 195.920429 
L 105.72006 195.920429 
L 105.943372 194.901878 
L 106.166683 192.889455 
L 106.389995 193.886631 
L 106.836618 204.909629 
L 107.283242 195.920429 
L 107.506553 196.897806 
L 107.729865 198.910229 
L 107.953177 197.932852 
L 108.176488 194.943052 
L 108.623112 203.932252 
L 108.846423 205.887006 
L 109.069735 204.909629 
L 109.293047 206.922052 
L 109.73967 214.95525 
L 109.962981 212.942827 
L 110.186293 213.977873 
L 110.409605 222.988448 
L 110.632916 219.998648 
L 110.856228 213.977873 
L 111.302851 218.00272 
L 111.526163 216.967673 
L 111.972786 223.98232 
L 112.196098 223.98232 
L 112.41941 216.989048 
L 112.642721 218.024094 
L 112.866033 221.013894 
L 113.089345 222.048941 
L 113.312656 226.035917 
L 113.535968 227.013294 
L 113.75928 229.025717 
L 113.982591 226.035917 
L 114.205903 225.000871 
L 114.429215 222.988448 
L 114.652526 227.013294 
L 114.875838 223.026317 
L 115.09915 229.047092 
L 115.322461 225.038741 
L 115.545773 226.035917 
L 116.215708 239.092713 
L 116.43902 240.127759 
L 116.662331 251.191932 
L 116.885643 248.202132 
L 117.108954 247.18358 
L 117.332266 252.169308 
L 117.555578 240.210108 
L 117.778889 246.189708 
L 118.002201 248.259801 
L 118.448824 228.168559 
L 118.895448 235.166711 
L 119.118759 235.166711 
L 119.342071 243.199908 
L 119.788694 240.210108 
L 120.012006 245.212332 
L 120.235318 244.234955 
L 120.458629 242.222532 
L 120.681941 244.234955 
L 120.905253 245.212332 
L 121.128564 239.232732 
L 121.351876 230.164487 
L 121.798499 240.127759 
L 122.021811 229.104762 
L 122.245123 242.123687 
L 122.691746 242.123687 
L 122.915058 235.125536 
L 123.138369 233.113113 
L 123.361681 239.092713 
L 123.584992 237.137959 
L 123.808304 226.156136 
L 124.031616 224.143713 
L 124.254927 225.12109 
L 124.478239 225.12109 
L 124.701551 220.176536 
L 124.924862 223.125162 
L 125.148174 233.113113 
L 125.371486 232.135736 
L 125.594797 235.125536 
L 125.818109 235.125536 
L 126.041421 230.123313 
L 126.264732 235.125536 
L 126.488044 237.137959 
L 126.711356 236.144087 
L 126.934667 233.154287 
L 127.157979 234.148159 
L 127.381291 232.135736 
L 127.604602 232.176911 
L 127.827914 233.154287 
L 128.051226 235.125536 
L 128.497849 227.174687 
L 128.721161 229.145936 
L 128.944472 228.168559 
L 129.167784 228.168559 
L 129.837719 207.220159 
L 130.061031 201.240559 
L 130.284342 206.226287 
L 130.507654 202.357955 
L 130.954277 210.292308 
L 131.177589 211.327355 
L 131.4009 198.333108 
L 131.624212 198.431952 
L 131.847524 195.422352 
L 132.070835 310.707343 
L 132.294147 130.04268 
L 132.517459 166.241492 
L 133.187394 217.186736 
L 133.410705 204.052471 
L 134.527264 249.875273 
L 134.750575 246.906848 
L 134.973887 234.947648 
L 135.197199 233.970271 
L 135.42051 235.842676 
L 135.643822 222.848429 
L 135.867134 238.93132 
L 136.090445 234.947648 
L 136.76038 242.898496 
L 136.983692 252.865073 
L 137.207004 251.887696 
L 137.430315 272.97769 
L 137.653627 271.022936 
L 137.876938 263.967115 
L 138.10025 267.991962 
L 138.323562 277.10138 
L 138.546873 250.972869 
L 138.770185 245.050938 
L 138.993497 248.040738 
L 139.216808 242.003469 
L 139.663432 242.003469 
L 139.886743 236.918896 
L 140.556678 247.941894 
L 140.77999 245.929471 
L 141.003302 248.976941 
L 141.226613 248.976941 
L 141.449925 257.946341 
L 141.673237 258.923717 
L 142.11986 254.898871 
L 142.343172 255.813699 
L 142.789795 253.90012 
L 143.013107 249.896648 
L 143.236418 250.89052 
L 143.45973 256.911294 
L 143.683042 255.933917 
L 144.129665 259.942269 
L 144.352976 255.975092 
L 145.022911 255.933917 
L 145.246223 253.921494 
L 145.469535 257.946341 
L 145.692846 254.956541 
L 145.916158 256.911294 
L 146.13947 250.931694 
L 146.362781 248.919271 
L 146.586093 243.917048 
L 147.032716 249.896648 
L 147.256028 256.88992 
L 147.47934 259.82205 
L 147.702651 259.87972 
L 147.925963 262.910694 
L 148.149275 260.857096 
L 148.595898 273.834848 
L 149.042521 260.857096 
L 149.265833 258.885848 
L 149.489145 259.87972 
L 149.935768 259.87972 
L 150.15908 253.84245 
L 150.382391 252.823899 
L 150.605703 253.801276 
L 150.829015 250.811476 
L 151.052326 264.824273 
L 151.275638 262.81185 
L 151.498949 261.834473 
L 151.945573 261.834473 
L 152.168884 264.824273 
L 152.392196 262.81185 
L 152.615508 265.80165 
L 152.838819 265.80165 
L 153.062131 266.877871 
L 153.285443 264.865448 
L 153.508754 265.900494 
L 153.732066 253.921494 
L 153.955378 254.898871 
L 154.178689 253.921494 
L 154.402001 249.896648 
L 154.625313 250.89052 
L 154.848624 255.896048 
L 155.071936 244.85325 
L 155.295248 244.85325 
L 155.518559 249.875273 
L 155.741871 246.865673 
L 155.965183 252.865073 
L 156.188494 252.865073 
L 156.635118 244.85325 
L 156.858429 249.875273 
L 157.305053 241.86345 
L 157.528364 240.886073 
L 157.751676 241.92112 
L 157.974987 244.91092 
L 158.198299 244.91092 
L 158.868234 236.918896 
L 159.091546 239.908696 
L 159.314857 235.88385 
L 159.984792 235.88385 
L 160.208104 232.89405 
L 160.654727 234.906473 
L 160.878039 241.86345 
L 161.101351 225.797055 
L 161.324662 227.850652 
L 161.547974 227.809478 
L 161.994597 216.78648 
L 162.217909 213.79668 
L 162.441221 220.794831 
L 162.664532 211.825431 
L 162.887844 216.827655 
L 163.111156 215.850278 
L 163.334467 207.81708 
L 163.557779 215.792608 
L 164.004402 206.823208 
L 164.227714 205.804657 
L 164.674337 195.85788 
L 164.897649 190.918206 
L 165.12096 192.889455 
L 165.344272 199.907406 
L 165.567584 186.86868 
L 165.790895 181.866457 
L 166.014207 187.865857 
L 166.46083 191.874208 
L 166.684142 190.877031 
L 166.907454 186.86868 
L 167.130765 189.87828 
L 167.354077 194.822834 
L 167.577389 195.80021 
L 167.8007 205.804657 
L 168.024012 203.792234 
L 168.247324 199.825057 
L 168.470635 203.792234 
L 169.363882 207.75941 
L 169.587194 206.782034 
L 169.810505 204.76961 
L 170.257129 209.771834 
L 170.48044 207.75941 
L 170.703752 210.74921 
L 170.927064 211.726587 
L 171.373687 211.784257 
L 171.596998 212.802808 
L 171.82031 220.836006 
L 172.043622 218.840078 
L 172.266933 213.837855 
L 172.490245 215.850278 
L 172.713557 215.850278 
L 172.936868 217.805031 
L 173.16018 215.792608 
L 173.383492 218.782408 
L 173.606803 216.78648 
L 173.830115 210.80688 
L 174.053427 211.784257 
L 174.276738 206.782034 
L 174.50005 208.794457 
L 174.946673 197.812634 
L 175.169985 202.814857 
L 175.393297 204.82728 
L 175.616608 200.802434 
L 175.83992 201.83748 
L 176.063232 204.82728 
L 176.286543 199.825057 
L 176.509855 201.83748 
L 176.733167 195.85788 
L 176.956478 196.835257 
L 177.17979 192.81041 
L 177.403102 195.80021 
L 177.626413 195.80021 
L 177.849725 184.856257 
L 178.073037 186.86868 
L 178.296348 186.909855 
L 178.51966 190.877031 
L 178.742971 187.887231 
L 178.966283 189.899655 
L 179.412906 189.87828 
L 179.636218 186.86868 
L 179.85953 191.874208 
L 180.082841 184.938606 
L 180.306153 181.948806 
L 180.529465 184.938606 
L 180.752776 198.967899 
L 180.976088 192.988299 
L 181.1994 195.978099 
L 181.869335 236.201757 
L 182.092646 231.240708 
L 182.315958 258.305422 
L 182.53927 252.169308 
L 182.762581 250.255729 
L 182.985893 237.179134 
L 183.209205 234.189334 
L 183.655828 216.209359 
L 183.87914 217.227911 
L 184.102451 207.18229 
L 184.325763 209.216087 
L 184.549075 210.229759 
L 184.772386 196.238336 
L 184.995698 204.230359 
L 185.21901 206.204913 
L 185.442321 207.18229 
L 185.665633 204.151315 
L 185.888944 196.159292 
L 186.112256 204.151315 
L 186.335568 202.138892 
L 186.558879 205.128692 
L 186.782191 200.184138 
L 187.005503 200.184138 
L 187.452126 197.136669 
L 187.675438 196.159292 
L 187.898749 194.184738 
L 188.122061 195.20329 
L 188.345373 206.204913 
L 188.568684 201.18289 
L 188.791996 203.195313 
L 189.015308 202.196562 
L 189.238619 202.196562 
L 189.685243 209.194713 
L 189.908554 208.217336 
L 190.131866 204.230359 
L 190.355178 204.271534 
L 190.578489 197.314557 
L 190.801801 198.291934 
L 191.025113 194.267087 
L 191.248424 194.267087 
L 191.918359 204.271534 
L 192.141671 211.228511 
L 192.364982 214.238111 
L 192.588294 210.251134 
L 193.034917 215.253357 
L 193.258229 212.263557 
L 193.481541 216.250534 
L 193.704852 213.240934 
L 194.151476 213.240934 
L 194.374787 210.292308 
L 194.598099 212.304732 
L 194.821411 216.329578 
L 195.268034 197.314557 
L 195.491346 199.32698 
L 195.714657 200.304357 
L 195.937969 198.333108 
L 196.161281 188.386332 
L 196.384592 189.401578 
L 196.607904 196.378355 
L 196.831216 188.386332 
L 197.054527 189.363708 
L 198.171086 173.376357 
L 198.394397 165.384334 
L 198.617709 165.384334 
L 198.841021 166.361711 
L 199.064332 171.322759 
L 199.287644 166.361711 
L 199.510955 175.331111 
L 199.734267 170.328887 
L 199.957579 176.328287 
L 200.18089 179.318087 
L 200.404202 175.331111 
L 200.627514 177.343534 
L 200.850825 177.343534 
L 201.074137 178.340711 
L 201.297449 178.340711 
L 201.52076 177.343534 
L 201.744072 178.340711 
L 201.967384 180.353134 
L 202.190695 173.376357 
L 202.414007 174.394908 
L 202.637319 176.366157 
L 202.86063 174.394908 
L 203.083942 175.38878 
L 203.307254 178.37858 
L 203.530565 179.355957 
L 203.753877 176.366157 
L 203.977189 177.343534 
L 204.2005 181.36838 
L 204.423812 183.342934 
L 204.870435 197.256887 
L 205.093747 200.246687 
L 205.317059 201.281734 
L 205.54037 197.314557 
L 205.763682 196.279511 
L 205.986993 194.267087 
L 206.210305 196.279511 
L 206.433617 197.256887 
L 206.656928 196.238336 
L 206.88024 196.238336 
L 207.103552 201.240559 
L 207.326863 198.250759 
L 207.550175 203.236487 
L 207.773487 198.250759 
L 207.996798 199.269311 
L 208.22011 199.269311 
L 208.443422 196.238336 
L 208.666733 202.217936 
L 208.890045 199.228136 
L 209.113357 187.170092 
L 209.336668 198.171715 
L 209.55998 201.161515 
L 209.783292 194.184738 
L 210.006603 197.174538 
L 210.229915 198.171715 
L 210.453227 196.159292 
L 210.676538 198.171715 
L 211.123162 187.170092 
L 211.346473 188.147469 
L 211.569785 188.147469 
L 211.793097 189.141341 
L 212.016408 191.137269 
L 212.23972 196.159292 
L 212.463032 193.149692 
L 212.686343 193.149692 
L 213.132966 202.138892 
L 213.356278 202.138892 
L 213.57959 200.126469 
L 213.802901 194.146869 
L 214.026213 199.149092 
L 214.249525 200.126469 
L 214.472836 199.149092 
L 214.696148 197.136669 
L 214.91946 197.136669 
L 215.142771 202.097717 
L 215.366083 203.075094 
L 215.589395 202.097717 
L 215.812706 202.097717 
L 216.25933 223.125162 
L 216.705953 249.05929 
L 216.929265 242.939671 
L 217.152576 231.038141 
L 217.375888 232.992894 
L 217.5992 208.934476 
L 217.822511 205.887006 
L 218.045823 215.932627 
L 218.269135 216.868829 
L 218.492446 213.879029 
L 218.715758 221.871052 
L 218.93907 221.871052 
L 219.162381 224.860852 
L 219.385693 223.825806 
L 219.609005 221.871052 
L 219.832316 215.891452 
L 220.055628 201.83748 
L 220.278939 202.814857 
L 220.502251 197.771459 
L 220.725563 203.751059 
L 220.948874 194.781659 
L 221.172186 201.77981 
L 221.395498 199.767387 
L 221.618809 205.804657 
L 221.842121 202.814857 
L 222.065433 202.814857 
L 222.288744 203.792234 
L 222.512056 201.77981 
L 223.181991 207.858255 
L 223.405303 201.83748 
L 223.628614 201.77981 
L 223.851926 203.792234 
L 224.075238 204.76961 
L 224.298549 201.77981 
L 224.521861 203.792234 
L 224.745173 200.802434 
L 224.968484 199.825057 
L 225.191796 204.82728 
L 225.415108 205.804657 
L 225.861731 208.835631 
L 226.085043 208.835631 
L 226.308354 206.823208 
L 226.754977 211.825431 
L 226.978289 213.837855 
L 227.201601 211.825431 
L 227.424912 203.833408 
L 227.648224 210.848055 
L 227.871536 213.837855 
L 228.094847 206.823208 
L 228.764782 219.77628 
L 228.988094 213.79668 
L 229.211406 213.79668 
L 229.434717 219.817455 
L 229.658029 221.829878 
L 230.104652 208.876806 
L 230.327964 207.899429 
L 230.551276 205.944676 
L 230.774587 209.911852 
L 230.997899 202.935076 
L 231.221211 208.934476 
L 231.444522 203.932252 
L 231.667834 203.932252 
L 231.891146 204.909629 
L 232.114457 202.897206 
L 232.337769 201.919829 
L 232.561081 192.930629 
L 233.007704 196.955476 
L 233.231016 197.932852 
L 233.454327 201.957699 
L 233.677639 209.01352 
L 233.90095 202.040048 
L 234.124262 214.056917 
L 234.347574 207.099941 
L 234.570885 211.009448 
L 234.794197 200.04412 
L 235.017509 207.001096 
L 235.24082 207.001096 
L 235.464132 212.00332 
L 235.687444 211.009448 
L 235.910755 209.01352 
L 236.134067 213.999248 
L 236.58069 209.990896 
L 236.804002 209.990896 
L 237.027314 212.980696 
L 237.250625 201.998873 
L 237.473937 203.953627 
L 237.697249 201.957699 
L 237.92056 205.96605 
L 238.143872 203.953627 
L 238.367184 203.953627 
L 238.590495 199.009073 
L 238.813807 201.998873 
L 239.26043 196.99665 
L 239.483742 202.97625 
L 239.930365 194.984227 
L 240.153677 195.978099 
L 240.376988 197.974027 
L 240.6003 191.994427 
L 240.823612 196.99665 
L 241.046923 193.965676 
L 241.270235 192.988299 
L 241.493547 195.978099 
L 241.716858 191.994427 
L 241.94017 190.975876 
L 242.163482 196.955476 
L 242.386793 197.932852 
L 242.610105 197.932852 
L 242.833417 195.920429 
L 243.056728 190.918206 
L 243.28004 194.901878 
L 243.503352 201.919829 
L 243.726663 193.908006 
L 244.173287 193.908006 
L 244.843222 190.975876 
L 245.066533 191.994427 
L 245.289845 191.994427 
L 245.513157 190.975876 
L 245.736468 190.975876 
L 245.95978 189.940829 
L 246.183092 181.907631 
L 246.406403 182.942678 
L 246.629715 175.969206 
L 246.853027 174.991829 
L 247.076338 169.012229 
L 247.29965 169.989606 
L 247.522961 172.938231 
L 247.746273 168.971055 
L 247.969585 175.969206 
L 248.192896 170.983478 
L 248.416208 177.940455 
L 248.63952 171.960855 
L 248.862831 172.979406 
L 249.086143 168.971055 
L 249.309455 169.012229 
L 249.532766 167.037676 
L 249.756078 170.047276 
L 249.97939 171.024652 
L 250.202701 165.003878 
L 250.426013 169.012229 
L 250.649325 162.014078 
L 250.872636 164.010006 
L 251.31926 172.002029 
L 251.542571 169.012229 
L 251.765883 170.983478 
L 251.989195 170.983478 
L 252.212506 175.969206 
L 252.65913 167.993678 
L 252.882441 170.983478 
L 253.105753 165.003878 
L 253.329065 172.979406 
L 253.552376 168.971055 
L 253.775688 168.971055 
L 253.998999 170.925808 
L 254.222311 165.94008 
L 254.445623 167.936008 
L 254.668934 167.936008 
L 254.892246 163.968831 
L 255.115558 167.936008 
L 255.338869 164.946208 
L 255.785493 170.925808 
L 256.008804 168.92988 
L 256.232116 169.948431 
L 256.455428 175.886857 
L 256.678739 172.897057 
L 256.902051 176.864234 
L 257.125363 176.864234 
L 257.348674 170.884634 
L 257.571986 176.864234 
L 257.795298 179.854034 
L 258.018609 179.854034 
L 258.241921 177.84161 
L 258.465233 182.843834 
L 258.688544 192.86808 
L 258.911856 190.855657 
L 259.135168 193.845457 
L 259.581791 186.86868 
L 260.028414 197.812634 
L 260.475038 191.833034 
L 260.698349 194.864008 
L 260.921661 186.86868 
L 261.144972 192.86808 
L 261.368284 191.874208 
L 261.591596 201.878655 
L 261.814907 200.843608 
L 262.038219 201.83748 
L 262.484842 190.855657 
L 262.931466 200.843608 
L 263.154777 193.845457 
L 263.601401 197.853808 
L 264.048024 195.899055 
L 264.494647 200.901278 
L 264.717959 211.96545 
L 264.941271 212.942827 
L 265.164582 207.957099 
L 265.387894 212.942827 
L 265.611206 210.946899 
L 266.057829 214.95525 
L 266.504452 177.820236 
L 266.951076 205.804657 
L 267.174387 196.876431 
L 267.621011 205.887006 
L 268.067634 195.920429 
L 268.290945 201.919829 
L 268.514257 204.909629 
L 268.737569 194.943052 
L 268.96088 197.932852 
L 269.407504 178.101848 
L 269.854127 168.113896 
L 270.077439 170.12632 
L 270.30075 164.14672 
L 270.524062 167.13652 
L 270.747374 177.124471 
L 270.970685 178.159517 
L 271.193997 171.144871 
L 271.417309 175.112048 
L 271.64062 171.144871 
L 271.863932 171.144871 
L 272.087244 166.142648 
L 272.310555 171.144871 
L 272.533867 167.177694 
L 272.757179 166.142648 
L 272.98049 172.122248 
L 273.203802 172.122248 
L 273.427114 177.124471 
L 273.650425 174.093496 
L 273.873737 178.101848 
L 274.097049 178.101848 
L 274.32036 176.10592 
L 274.543672 177.124471 
L 274.766983 181.091648 
L 274.990295 177.124471 
L 275.213607 178.101848 
L 275.436918 184.101248 
L 275.66023 183.104071 
L 275.883542 184.101248 
L 276.106853 188.08492 
L 276.553477 181.091648 
L 276.776788 182.10532 
L 277.0001 182.10532 
L 277.223412 176.10592 
L 277.446723 173.11612 
L 277.670035 181.091648 
L 277.893347 180.092896 
L 278.33997 174.093496 
L 278.563282 178.101848 
L 278.786593 176.10592 
L 279.009905 178.101848 
L 279.233217 174.134671 
L 279.456528 174.134671 
L 279.67984 175.112048 
L 279.903152 178.101848 
L 280.126463 178.101848 
L 280.349775 177.083296 
L 280.573087 181.070273 
L 280.796398 188.963452 
L 281.01971 190.975876 
L 281.243022 197.911478 
L 281.466333 198.967899 
L 281.912956 193.965676 
L 282.136268 195.920429 
L 282.35958 191.953252 
L 282.582891 192.930629 
L 282.806203 201.919829 
L 283.029515 196.897806 
L 283.252826 198.910229 
L 283.69945 191.953252 
L 283.922761 189.940829 
L 284.146073 191.953252 
L 284.369385 197.932852 
L 284.592696 192.930629 
L 284.816008 192.930629 
L 285.03932 185.932478 
L 285.262631 185.973652 
L 285.485943 188.963452 
L 285.709255 187.986076 
L 285.932566 190.975876 
L 286.155878 197.932852 
L 286.37919 188.963452 
L 286.602501 193.965676 
L 286.825813 185.973652 
L 287.049125 182.983852 
L 287.272436 173.037076 
L 287.495748 170.047276 
L 287.942371 174.055627 
L 288.165683 171.046027 
L 288.612306 176.026876 
L 288.835618 170.047276 
L 289.058929 169.050099 
L 289.282241 170.047276 
L 289.505553 178.039299 
L 289.728864 176.026876 
L 289.952176 179.952878 
L 290.175488 174.991829 
L 290.398799 176.026876 
L 290.622111 179.016676 
L 291.068734 177.004252 
L 291.292046 180.971429 
L 291.515358 177.981629 
L 291.738669 183.961229 
L 291.961981 179.994052 
L 292.185293 184.938606 
L 292.408604 187.008699 
L 292.631916 182.006476 
L 292.855228 182.006476 
L 293.078539 184.996276 
L 293.301851 177.045427 
L 293.525163 180.035227 
L 293.748474 178.039299 
L 293.971786 177.045427 
L 294.195098 180.035227 
L 294.418409 178.039299 
L 294.641721 178.039299 
L 294.865033 179.016676 
L 295.311656 184.996276 
L 295.534967 177.004252 
L 295.981591 182.006476 
L 296.204902 180.971429 
L 296.428214 172.979406 
L 296.651526 174.014452 
L 296.874837 175.969206 
L 297.098149 180.971429 
L 297.321461 179.994052 
L 297.544772 179.994052 
L 297.768084 177.981629 
L 297.991396 183.961229 
L 298.214707 180.971429 
L 298.438019 182.983852 
L 298.661331 180.971429 
L 298.884642 173.973278 
L 299.107954 175.969206 
L 299.331266 176.963078 
L 299.554577 188.922278 
L 299.777889 192.889455 
L 300.001201 199.866231 
L 300.447824 184.856257 
L 300.671136 185.874808 
L 300.894447 188.864608 
L 301.117759 188.864608 
L 301.341071 190.877031 
L 301.564382 188.864608 
L 301.787694 189.87828 
L 302.457629 223.705587 
L 302.68094 211.726587 
L 303.127564 216.72881 
L 303.350875 201.659592 
L 303.574187 196.616194 
L 303.797499 188.525327 
L 304.02081 189.601547 
L 304.244122 189.601547 
L 304.467434 187.589124 
L 304.690745 190.578924 
L 304.914057 188.582996 
L 305.137369 182.583596 
L 305.36068 186.570573 
L 305.583992 176.524952 
L 305.807304 179.555927 
L 306.030615 172.537975 
L 306.253927 172.57915 
L 306.477239 180.571173 
L 306.70055 169.469131 
L 307.147174 163.489531 
L 307.370485 167.514378 
L 307.593797 163.510906 
L 307.817109 161.514978 
L 308.04042 164.504778 
L 308.263732 161.514978 
L 308.933667 167.514378 
L 309.156978 167.514378 
L 309.826913 156.512754 
L 310.273537 156.553929 
L 310.496848 154.541506 
L 310.72016 160.521106 
L 310.943472 154.541506 
L 311.166783 159.543729 
L 311.390095 152.545578 
L 311.613407 154.541506 
L 311.836718 151.510531 
L 312.283342 159.464685 
L 312.506653 155.477708 
L 312.729965 155.477708 
L 312.953277 153.465285 
L 313.176588 159.502554 
L 313.3999 149.456933 
L 313.623212 157.490131 
L 313.846523 156.455085 
L 314.069835 158.467508 
L 314.293147 157.490131 
L 314.516458 154.500331 
L 314.73977 153.465285 
L 314.963082 155.477708 
L 315.186393 154.500331 
L 315.409705 157.490131 
L 315.633017 157.490131 
L 315.856328 164.504778 
L 316.07964 163.510906 
L 316.302951 169.510306 
L 316.526263 165.523329 
L 316.749575 158.525178 
L 316.972886 158.525178 
L 317.196198 156.512754 
L 317.41951 161.514978 
L 317.642821 161.514978 
L 317.866133 160.521106 
L 318.089445 161.556152 
L 318.312756 163.568575 
L 318.536068 164.545952 
L 318.75938 167.535752 
L 319.206003 162.533529 
L 319.429315 167.535752 
L 319.652626 161.556152 
L 319.875938 163.568575 
L 320.09925 164.545952 
L 320.545873 159.543729 
L 320.769185 163.510906 
L 320.992496 171.522729 
L 321.215808 168.513129 
L 321.43912 174.512529 
L 321.662431 165.523329 
L 322.109055 175.547575 
L 322.332366 177.502329 
L 322.555678 184.459306 
L 322.778989 178.479706 
L 323.002301 186.471729 
L 323.225613 181.469506 
L 323.448924 188.442978 
L 323.672236 177.502329 
L 323.895548 180.492129 
L 324.118859 185.494352 
L 324.342171 185.494352 
L 324.565483 184.516975 
L 324.788794 181.527175 
L 325.012106 183.539599 
L 325.458729 179.514752 
L 325.682041 179.514752 
L 325.905353 185.494352 
L 326.128664 184.516975 
L 326.351976 185.494352 
L 326.575288 179.514752 
L 326.798599 183.539599 
L 327.021911 183.539599 
L 327.245223 182.504552 
L 327.691846 177.461154 
L 327.915158 187.449106 
L 328.361781 179.473578 
L 328.585093 180.450954 
L 328.808404 175.448731 
L 329.031716 167.456708 
L 329.255028 168.491754 
L 329.478339 176.483778 
L 329.701651 172.458931 
L 329.924962 170.446508 
L 330.148274 159.464685 
L 330.371586 174.471354 
L 330.594897 168.491754 
L 330.818209 166.479331 
L 331.041521 163.448357 
L 331.264832 165.444285 
L 331.488144 166.438157 
L 331.711456 164.425733 
L 331.934767 169.427957 
L 332.158079 166.438157 
L 332.381391 166.438157 
L 332.604702 178.397357 
L 332.828014 172.417757 
L 333.051326 170.405333 
L 333.274637 175.308712 
L 333.497949 185.234115 
L 333.721261 221.131515 
L 333.944572 226.133738 
L 334.391196 224.121315 
L 334.614507 228.088491 
L 334.837819 222.150066 
L 335.061131 233.090715 
L 335.284442 232.113338 
L 335.731066 239.070315 
L 335.954377 241.082738 
L 336.177689 233.090715 
L 336.401001 239.070315 
L 336.624312 234.068091 
L 337.070935 212.999473 
L 337.294247 220.991496 
L 337.517559 222.987424 
L 337.74087 220.991496 
L 337.964182 216.96665 
L 338.187494 216.96665 
L 338.410805 213.97685 
L 338.634117 209.032296 
L 338.857429 215.011896 
L 339.08074 214.018024 
L 339.304052 211.028224 
L 339.527364 216.030447 
L 339.750675 213.040647 
L 339.973987 226.034894 
L 340.197299 219.020247 
L 340.42061 219.997624 
L 340.643922 216.030447 
L 340.867234 218.04287 
L 341.090545 218.001696 
L 341.313857 217.007824 
L 341.537169 218.001696 
L 341.76048 211.028224 
L 342.207104 214.954226 
L 342.430415 217.944026 
L 342.653727 214.954226 
L 343.10035 189.819587 
L 343.323662 183.839987 
L 343.546973 183.798812 
L 343.993597 192.829187 
L 344.216908 193.806563 
L 344.663532 178.837763 
L 344.886843 182.821435 
L 345.333467 168.729594 
L 345.556778 168.750968 
L 345.78009 167.773591 
L 346.003402 161.793991 
L 346.450025 165.761168 
L 346.673337 169.786014 
L 347.11996 165.761168 
L 347.566583 178.67637 
L 347.789895 174.709194 
L 348.013207 172.737945 
L 348.236518 172.737945 
L 348.45983 175.727745 
L 348.683142 175.727745 
L 348.906453 177.860387 
L 349.129765 161.793991 
L 349.353077 168.792142 
L 349.576388 165.860012 
L 350.246323 139.950563 
L 350.469635 147.942587 
L 350.692946 120.03721 
L 350.916258 120.015835 
L 351.13957 122.011763 
L 351.362881 115.013612 
L 351.586193 113.001189 
L 351.809505 105.047035 
L 352.032816 111.108984 
L 352.256128 106.123256 
L 352.47944 109.154231 
L 352.702751 108.176854 
L 353.149375 101.162208 
L 353.372686 99.149784 
L 353.595998 107.141808 
L 353.81931 105.129384 
L 354.042621 97.096187 
L 354.265933 100.085987 
L 354.489245 99.10861 
L 354.712556 96.11881 
L 354.935868 103.075787 
L 355.382491 101.121033 
L 355.605803 111.108984 
L 355.829115 111.108984 
L 356.052426 104.110833 
L 356.275738 104.110833 
L 356.49905 100.143656 
L 356.722361 101.162208 
L 356.945673 101.162208 
L 357.615608 119.059833 
L 357.838919 113.022563 
L 358.062231 109.991589 
L 358.285543 112.004012 
L 358.508854 107.001789 
L 358.732166 113.001189 
L 358.955478 103.034612 
L 359.178789 110.032763 
L 359.402101 110.032763 
L 359.625413 106.065587 
L 359.848724 107.042963 
L 360.072036 110.032763 
L 360.295348 103.075787 
L 360.518659 105.08821 
L 360.741971 106.065587 
L 360.965283 102.09841 
L 361.188594 103.075787 
L 361.411906 106.065587 
L 361.635218 98.032389 
L 361.858529 103.034612 
L 362.081841 102.057235 
L 362.305153 109.113056 
L 362.528464 102.139584 
L 362.751776 90.160584 
L 362.975088 90.218254 
L 363.198399 84.238654 
L 363.421711 81.248854 
L 363.645023 83.203608 
L 363.868334 83.203608 
L 364.091646 89.183208 
L 364.314957 92.173008 
L 364.538269 93.170184 
L 364.761581 93.170184 
L 364.984892 97.153856 
L 365.208204 99.149784 
L 365.654827 93.170184 
L 365.878139 95.182608 
L 366.101451 96.159984 
L 366.324762 98.172408 
L 366.548074 99.149784 
L 366.771386 101.121033 
L 366.994697 101.121033 
L 367.218009 94.106387 
L 367.441321 93.12901 
L 367.664632 90.13921 
L 367.887944 93.12901 
L 368.111256 94.164056 
L 368.334567 91.174256 
L 368.557879 94.164056 
L 368.781191 91.174256 
L 369.004502 94.164056 
L 369.227814 87.14941 
L 369.451126 88.126787 
L 369.674437 91.116587 
L 369.897749 91.116587 
L 370.121061 87.14941 
L 370.344372 91.116587 
L 370.567684 92.151633 
L 370.790995 90.218254 
L 371.014307 84.180984 
L 371.237619 89.183208 
L 371.684242 84.238654 
L 371.907554 88.205831 
L 372.130865 83.203608 
L 372.354177 82.226231 
L 372.577489 84.238654 
L 372.8008 90.218254 
L 373.024112 82.226231 
L 373.247424 90.218254 
L 373.470735 87.228454 
L 373.694047 89.224382 
L 373.917359 87.228454 
L 374.14067 88.205831 
L 374.587294 96.159984 
L 374.810605 98.172408 
L 375.033917 94.164056 
L 375.48054 104.110833 
L 375.703852 103.034612 
L 375.927164 107.100633 
L 376.150475 109.055387 
L 376.373787 115.034987 
L 376.597099 115.034987 
L 376.82041 112.102856 
L 377.043722 117.04741 
L 377.267034 114.05761 
L 377.490345 117.026035 
L 377.713657 118.003412 
L 377.936968 112.004012 
L 378.16028 112.045187 
L 378.383592 117.026035 
L 378.606903 114.016435 
L 378.830215 114.016435 
L 379.053527 115.013612 
L 379.276838 106.922745 
L 379.723462 123.925342 
L 379.946773 120.935542 
L 380.170085 123.925342 
L 380.393397 129.962612 
L 380.616708 132.894742 
L 380.84002 127.950189 
L 381.063332 131.975035 
L 381.286643 123.983012 
L 381.509955 123.983012 
L 382.17989 137.018433 
L 382.403202 135.983387 
L 382.626513 127.013987 
L 382.849825 130.003787 
L 383.073137 130.981163 
L 383.296448 127.013987 
L 383.51976 130.981163 
L 383.743072 129.02641 
L 384.189695 155.855566 
L 384.413007 149.875966 
L 384.636318 149.735947 
L 384.85963 161.736321 
L 385.306253 136.700526 
L 385.529565 139.731501 
L 385.752876 134.786947 
L 386.1995 136.741701 
L 386.422811 136.741701 
L 386.646123 137.817921 
L 387.092746 131.797147 
L 387.316058 130.81977 
L 387.53937 132.832194 
L 387.985993 148.75857 
L 388.209305 142.77897 
L 388.432616 146.746147 
L 388.655928 146.746147 
L 388.87924 141.743924 
L 389.102551 142.77897 
L 389.325863 147.781194 
L 389.549175 147.781194 
L 389.772486 149.735947 
L 389.995798 147.723524 
L 390.21911 150.713324 
L 390.442421 156.692924 
L 390.665733 158.683973 
L 390.889045 156.750594 
L 391.112356 151.74837 
L 391.558979 148.75857 
L 391.782291 155.715547 
L 392.005603 158.705347 
L 392.228914 157.72797 
L 392.452226 164.704747 
L 392.675538 163.628526 
L 392.898849 153.661949 
L 393.345473 156.692924 
L 393.568784 155.674373 
L 393.792096 158.683973 
L 394.015408 154.680501 
L 394.238719 158.683973 
L 394.462031 156.671549 
L 394.908654 170.585503 
L 395.131966 174.610349 
L 395.355278 174.651524 
L 395.578589 176.663947 
L 396.025213 187.588101 
L 396.248524 187.64577 
L 396.471836 188.623147 
L 397.141771 196.61517 
L 397.365083 193.62537 
L 397.588394 194.643921 
L 397.811706 198.627594 
L 398.035018 195.637794 
L 398.258329 195.637794 
L 398.481641 194.643921 
L 398.704952 195.637794 
L 398.928264 193.62537 
L 399.374887 201.658568 
L 399.598199 203.613321 
L 399.821511 194.643921 
L 400.044822 196.656345 
L 400.268134 193.62537 
L 400.491446 192.647994 
L 400.714757 190.577901 
L 400.938069 195.580124 
L 401.384692 183.620924 
L 401.608004 181.608501 
L 401.831316 190.63557 
L 402.054627 190.63557 
L 402.277939 179.653747 
L 402.501251 181.66617 
L 402.724562 179.694921 
L 402.947874 183.678594 
L 403.171186 178.67637 
L 403.394497 184.65597 
L 403.617809 180.688794 
L 403.841121 189.658194 
L 404.287744 184.65597 
L 404.511056 187.64577 
L 404.734367 187.64577 
L 404.957679 188.664321 
L 405.18099 180.688794 
L 405.404302 181.66617 
L 405.627614 180.688794 
L 406.074237 186.668394 
L 406.52086 178.67637 
L 406.744172 176.663947 
L 406.967484 179.653747 
L 407.190795 188.623147 
L 407.414107 182.643547 
L 407.86073 184.65597 
L 408.307354 191.612947 
L 408.530665 190.63557 
L 408.753977 186.668394 
L 408.977289 195.637794 
L 409.2006 187.64577 
L 409.423912 193.666545 
L 409.647224 196.656345 
L 409.870535 191.654121 
L 410.093847 197.691391 
L 410.317159 196.656345 
L 410.54047 196.656345 
L 410.763782 197.633721 
L 410.987094 201.658568 
L 411.210405 202.635945 
L 411.433717 196.656345 
L 411.657029 203.613321 
L 411.88034 205.60437 
L 412.103652 209.571547 
L 412.326963 203.613321 
L 412.550275 211.625145 
L 412.773587 202.61457 
L 412.996898 200.602147 
L 413.22021 204.626994 
L 413.443522 197.633721 
L 413.666833 197.633721 
L 413.890145 193.62537 
L 414.336768 193.567701 
L 414.56008 184.598301 
L 414.783392 191.612947 
L 415.006703 194.602747 
L 415.230015 194.602747 
L 415.453327 192.590324 
L 415.89995 205.546701 
L 416.123262 211.526301 
L 416.346573 204.569324 
L 416.569885 204.528149 
L 416.793197 212.520173 
L 417.016508 213.497549 
L 417.23982 212.520173 
L 417.463132 221.489573 
L 417.686443 217.464726 
L 417.909755 215.509973 
L 418.133067 215.509973 
L 418.356378 225.456749 
L 418.57969 230.421103 
L 418.803002 230.421103 
L 419.026313 238.413126 
L 419.249625 239.390503 
L 419.472936 243.415349 
L 419.696248 245.370103 
L 420.142871 233.328554 
L 420.366183 246.306305 
L 420.589495 252.264531 
L 420.812806 247.423701 
L 421.036118 248.359903 
L 421.25943 254.339503 
L 421.482741 255.333375 
L 421.706053 253.362126 
L 421.929365 258.364349 
L 422.152676 253.362126 
L 422.375988 254.339503 
L 422.5993 245.370103 
L 422.822611 243.374175 
L 423.045923 254.339503 
L 423.269235 252.384749 
L 423.492546 253.403301 
L 423.715858 250.413501 
L 424.162481 252.384749 
L 424.385793 249.394949 
L 424.609105 253.362126 
L 424.832416 262.351326 
L 425.055728 257.329303 
L 425.27904 257.329303 
L 425.502351 254.339503 
L 425.725663 259.341726 
L 425.948974 256.351926 
L 426.172286 257.329303 
L 426.395598 266.277328 
L 426.618909 265.299952 
L 426.842221 263.287528 
L 427.065533 278.277703 
L 427.288844 269.308303 
L 427.735468 262.310152 
L 427.958779 260.297728 
L 428.182091 261.332775 
L 428.405403 260.338903 
L 428.628714 269.365973 
L 428.852026 273.374324 
L 429.298649 261.332775 
L 429.521961 267.353549 
L 429.745273 256.330552 
L 429.968584 251.308528 
L 430.191896 259.320352 
L 430.415208 254.318128 
L 430.638519 255.333375 
L 431.308454 263.328703 
L 431.531766 263.328703 
L 431.755078 262.351326 
L 431.978389 260.338903 
L 432.201701 262.351326 
L 432.648324 252.384749 
L 432.871636 248.359903 
L 433.094947 257.386973 
L 433.318259 254.397173 
L 433.541571 256.393101 
L 433.764882 265.362501 
L 433.988194 264.385124 
L 434.211506 240.524394 
L 434.434817 260.557966 
L 434.658129 263.506591 
L 434.881441 263.506591 
L 435.104752 265.519014 
L 435.328064 265.519014 
L 435.551376 263.506591 
L 435.774687 263.448921 
L 435.997999 266.496391 
L 436.221311 272.517166 
L 436.444622 273.552212 
L 436.667934 269.527366 
L 436.891246 274.529589 
L 437.114557 272.517166 
L 437.337869 272.517166 
L 437.561181 271.539789 
L 437.784492 285.453742 
L 438.007804 289.457214 
L 438.231116 290.475766 
L 438.454427 293.465566 
L 438.677739 292.488189 
L 438.901051 294.521987 
L 439.124362 295.499363 
L 439.347674 298.467789 
L 439.570985 299.502835 
L 439.794297 296.513035 
L 440.017609 302.555184 
L 440.24092 296.633254 
L 440.464232 295.598208 
L 440.687544 292.608408 
L 440.910855 293.585784 
L 441.134167 303.549056 
L 441.357479 306.558656 
L 441.58079 303.549056 
L 442.027414 325.474833 
L 442.250725 318.517856 
L 442.474037 317.48281 
L 442.697349 323.421235 
L 443.367284 311.462035 
L 443.590595 313.416789 
L 443.813907 316.406589 
L 444.037219 313.416789 
L 444.26053 322.364814 
L 444.483842 319.355214 
L 444.707154 320.352391 
L 445.153777 327.309368 
L 445.377089 324.319568 
L 445.6004 331.23537 
L 446.047024 322.307145 
L 446.270335 330.340342 
L 446.493647 330.340342 
L 446.716958 333.330142 
L 446.94027 333.330142 
L 447.163582 336.319942 
L 447.386893 333.330142 
L 447.610205 332.352766 
L 447.833517 325.354614 
L 448.056828 332.311591 
L 448.28014 332.311591 
L 448.503452 329.321791 
L 448.726763 334.324014 
L 448.950075 333.330142 
L 449.173387 324.360742 
L 449.396698 331.396763 
L 449.62001 322.386189 
L 449.843322 321.408812 
L 450.289945 325.474833 
L 450.513257 329.44201 
L 450.736568 325.474833 
L 450.95988 324.439787 
L 451.183192 315.470387 
L 451.629815 315.470387 
L 451.853127 309.490787 
L 452.076438 309.490787 
L 452.29975 313.457963 
L 452.523062 311.462035 
L 452.746373 303.470012 
L 452.969685 313.416789 
L 453.192996 311.462035 
L 453.416308 323.421235 
L 453.63962 322.386189 
L 454.086243 319.437563 
L 454.309555 319.437563 
L 454.532866 316.447763 
L 454.756178 321.449987 
L 454.97949 301.536633 
L 455.202801 292.567233 
L 455.426113 290.55481 
L 455.649425 292.567233 
L 455.872736 290.55481 
L 456.096048 296.53441 
L 456.542671 290.55481 
L 456.765983 293.54461 
L 457.435918 293.503435 
L 457.65923 290.513635 
L 457.882541 292.509563 
L 458.105853 286.529963 
L 458.329165 284.57521 
L 458.552476 288.542387 
L 458.775788 283.597833 
L 458.9991 284.57521 
L 459.445723 290.55481 
L 459.669035 289.519763 
L 459.892346 287.56501 
L 460.115658 287.56501 
L 460.338969 285.552587 
L 460.562281 287.56501 
L 460.785593 294.521987 
L 461.008904 288.542387 
L 461.232216 293.54461 
L 461.455528 290.55481 
L 461.678839 285.552587 
L 462.125463 289.519763 
L 462.348774 287.523835 
L 462.572086 286.529963 
L 463.018709 283.540163 
L 463.242021 289.519763 
L 463.688644 289.519763 
L 463.911956 291.532187 
L 464.358579 288.501212 
L 464.581891 288.542387 
L 464.805203 286.529963 
L 465.028514 286.529963 
L 465.251826 284.534035 
L 465.698449 289.519763 
L 465.921761 288.542387 
L 466.368384 295.499363 
L 466.591696 291.532187 
L 466.815008 291.532187 
L 467.038319 292.509563 
L 467.261631 289.519763 
L 467.484942 289.519763 
L 467.708254 295.499363 
L 467.931566 297.511787 
L 468.154877 261.754405 
L 468.378189 262.830626 
L 468.824812 270.82265 
L 469.048124 262.888296 
L 469.271436 264.84305 
L 469.494747 263.865673 
L 469.718059 256.888896 
L 469.941371 263.985891 
L 470.164682 255.993868 
L 470.387994 253.981445 
L 470.834617 248.938047 
L 471.057929 249.973094 
L 471.281241 240.026317 
L 471.504552 235.045468 
L 471.727864 241.044868 
L 471.951176 240.026317 
L 472.174487 239.968647 
L 472.397799 246.983294 
L 472.844422 242.958447 
L 473.067734 248.938047 
L 473.291046 246.983294 
L 473.514357 247.96067 
L 473.737669 249.973094 
L 473.96098 246.005917 
L 474.184292 246.983294 
L 474.407604 248.995717 
L 474.630915 243.993494 
L 474.854227 252.026691 
L 475.077539 255.993868 
L 475.524162 251.985517 
L 475.747474 243.016117 
L 476.194097 243.016117 
L 476.417409 236.978847 
L 476.64072 240.026317 
L 476.864032 241.003694 
L 477.310655 236.022845 
L 477.533967 236.022845 
L 477.757279 238.013894 
L 477.98059 238.99127 
L 478.427214 224.063645 
L 478.650525 223.086268 
L 478.873837 225.057517 
L 479.543772 219.077917 
L 479.767084 214.116868 
L 479.990395 215.05307 
L 480.213707 223.045094 
L 480.437019 224.121315 
L 480.66033 221.131515 
L 480.883642 216.208336 
L 481.106953 216.208336 
L 481.330265 222.207736 
L 481.553577 216.170466 
L 481.776888 220.195312 
L 482.0002 221.213864 
L 482.446823 225.197536 
L 482.670135 222.207736 
L 482.893447 228.187336 
L 483.116758 222.207736 
L 483.34007 224.162489 
L 483.786693 216.170466 
L 484.010005 217.205512 
L 484.233317 219.160266 
L 484.456628 218.141715 
L 484.67994 216.170466 
L 484.903252 215.193089 
L 485.126563 217.164338 
L 485.573187 206.08367 
L 486.01981 215.05307 
L 486.243122 212.06327 
L 486.466433 214.075694 
L 486.689745 207.019873 
L 486.913057 216.030447 
L 487.136368 211.964426 
L 487.35968 211.028224 
L 487.582991 221.03267 
L 487.806303 216.030447 
L 488.476238 221.073845 
L 488.69955 221.073845 
L 488.922861 213.040647 
L 489.146173 214.075694 
L 489.369485 214.075694 
L 489.592796 215.05307 
L 489.816108 214.018024 
L 490.03942 217.007824 
L 490.262731 217.007824 
L 490.486043 218.001696 
L 490.709355 211.028224 
L 490.932666 216.030447 
L 491.37929 221.03267 
L 491.602601 216.088117 
L 491.825913 217.065494 
L 492.049225 215.05307 
L 492.272536 215.05307 
L 492.495848 212.06327 
L 492.71916 219.077917 
L 492.942471 217.065494 
L 493.165783 222.067717 
L 493.389095 222.067717 
L 493.612406 219.077917 
L 493.835718 219.077917 
L 494.05903 218.084045 
L 494.282341 224.063645 
L 494.505653 221.073845 
L 494.728964 221.131515 
L 494.952276 222.108891 
L 495.175588 222.108891 
L 495.398899 219.077917 
L 495.622211 222.067717 
L 495.845523 219.077917 
L 496.068834 224.063645 
L 496.292146 219.077917 
L 496.515458 220.096468 
L 496.738769 219.077917 
L 496.962081 220.096468 
L 497.185393 217.106668 
L 497.408704 218.084045 
L 497.855328 218.084045 
L 498.301951 226.076068 
L 498.525263 221.073845 
L 498.748574 228.088491 
L 498.971886 219.077917 
L 499.195198 216.030447 
L 499.641821 224.02247 
L 499.865133 235.024094 
L 500.088444 237.956224 
L 500.311756 238.950096 
L 500.535068 234.966424 
L 500.758379 239.968647 
L 500.981691 233.989047 
L 501.205003 231.976624 
L 501.428314 233.947873 
L 501.874937 221.968873 
L 502.098249 222.96605 
L 502.321561 227.968273 
L 502.544872 225.977224 
L 502.768184 225.977224 
L 502.991496 230.999247 
L 503.214807 233.01167 
L 503.438119 238.013894 
L 503.661431 240.026317 
L 503.884742 243.057291 
L 504.108054 236.022845 
L 504.331366 241.044868 
L 504.554677 237.036517 
L 504.777989 236.022845 
L 505.001301 239.070315 
L 505.224612 245.069715 
L 505.447924 244.034668 
L 505.671236 242.022245 
L 505.894547 236.022845 
L 506.117859 241.044868 
L 506.564482 235.045468 
L 506.787794 227.111115 
L 507.011106 223.143938 
L 507.234417 223.143938 
L 507.681041 212.162115 
L 507.904352 213.139491 
L 508.127664 213.139491 
L 508.350975 214.116868 
L 508.574287 213.098317 
L 508.797599 217.106668 
L 509.02091 212.104445 
L 509.244222 220.096468 
L 509.467534 219.119091 
L 509.690845 213.098317 
L 509.914157 217.065494 
L 510.137469 209.07347 
L 510.36078 213.098317 
L 510.584092 210.108517 
L 510.807404 215.094245 
L 511.030715 216.088117 
L 511.477339 206.08367 
L 511.70065 203.135045 
L 511.923962 211.127068 
L 512.147274 210.108517 
L 512.370585 207.118717 
L 512.593897 208.137268 
L 512.817209 210.149691 
L 513.04052 211.127068 
L 513.263832 218.084045 
L 513.487144 214.116868 
L 513.710455 223.086268 
L 513.933767 216.088117 
L 514.157079 219.077917 
L 514.38039 214.075694 
L 514.603702 212.104445 
L 514.827014 209.114645 
L 515.050325 212.06327 
L 515.273637 212.06327 
L 515.496948 211.085894 
L 515.72026 208.096094 
L 515.943572 202.058824 
L 516.390195 204.071247 
L 516.613507 199.069024 
L 516.836818 201.040273 
L 517.06013 197.015426 
L 517.506753 212.999473 
L 517.730065 210.98705 
L 517.953377 214.018024 
L 518.4 211.085894 
L 518.4 211.085894 
" style="fill:none;stroke:#4c72b0;stroke-linecap:round;stroke-width:1.75;"/>
   </g>
   <g id="patch_3">
    <path d="M 72 356.4 
L 518.4 356.4 
" style="fill:none;"/>
   </g>
   <g id="patch_4">
    <path d="M 72 39.6 
L 518.4 39.6 
" style="fill:none;"/>
   </g>
   <g id="patch_5">
    <path d="M 72 356.4 
L 72 39.6 
" style="fill:none;"/>
   </g>
   <g id="patch_6">
    <path d="M 518.4 356.4 
L 518.4 39.6 
" style="fill:none;"/>
   </g>
   <g id="text_15">
    <!-- m - 0.8330945712998508 * a -->
    <defs>
     <path d="M 9.125 0 
L 9.125 10.6875 
L 18.65625 10.6875 
L 18.65625 0 
z
" id="LiberationSans-2e"/>
     <path d="M 22.265625 54.390625 
L 35.15625 59.421875 
L 37.359375 52.984375 
L 23.578125 49.421875 
L 32.625 37.203125 
L 26.8125 33.6875 
L 19.484375 46.296875 
L 11.859375 33.796875 
L 6.0625 37.3125 
L 15.28125 49.421875 
L 1.609375 52.984375 
L 3.8125 59.515625 
L 16.84375 54.296875 
L 16.265625 68.796875 
L 22.90625 68.796875 
z
" id="LiberationSans-2a"/>
     <path d="M 20.21875 -0.984375 
Q 12.25 -0.984375 8.25 3.21875 
Q 4.25 7.421875 4.25 14.75 
Q 4.25 19.96875 6.21875 23.3125 
Q 8.203125 26.65625 11.390625 28.5625 
Q 14.59375 30.46875 18.6875 31.203125 
Q 22.796875 31.9375 27.046875 32.03125 
L 38.921875 32.234375 
L 38.921875 35.109375 
Q 38.921875 38.375 38.234375 40.671875 
Q 37.546875 42.96875 36.125 44.375 
Q 34.71875 45.796875 32.59375 46.453125 
Q 30.46875 47.125 27.59375 47.125 
Q 25.046875 47.125 23 46.75 
Q 20.953125 46.390625 19.4375 45.4375 
Q 17.921875 44.484375 16.984375 42.84375 
Q 16.0625 41.21875 15.765625 38.71875 
L 6.59375 39.546875 
Q 7.078125 42.671875 8.4375 45.28125 
Q 9.8125 47.90625 12.328125 49.796875 
Q 14.84375 51.703125 18.625 52.75 
Q 22.40625 53.8125 27.78125 53.8125 
Q 37.75 53.8125 42.765625 49.234375 
Q 47.796875 44.671875 47.796875 36.03125 
L 47.796875 13.28125 
Q 47.796875 9.375 48.828125 7.390625 
Q 49.859375 5.421875 52.734375 5.421875 
Q 53.46875 5.421875 54.203125 5.515625 
Q 54.9375 5.609375 55.609375 5.765625 
L 55.609375 0.296875 
Q 53.953125 -0.09375 52.3125 -0.28125 
Q 50.6875 -0.484375 48.828125 -0.484375 
Q 46.34375 -0.484375 44.5625 0.171875 
Q 42.78125 0.828125 41.65625 2.171875 
Q 40.53125 3.515625 39.9375 5.484375 
Q 39.359375 7.46875 39.203125 10.109375 
L 38.921875 10.109375 
Q 37.5 7.5625 35.8125 5.515625 
Q 34.125 3.46875 31.875 2.03125 
Q 29.640625 0.59375 26.78125 -0.1875 
Q 23.921875 -0.984375 20.21875 -0.984375 
M 22.21875 5.609375 
Q 26.421875 5.609375 29.5625 7.140625 
Q 32.71875 8.6875 34.78125 11.078125 
Q 36.859375 13.484375 37.890625 16.3125 
Q 38.921875 19.140625 38.921875 21.734375 
L 38.921875 26.078125 
L 29.296875 25.875 
Q 26.078125 25.828125 23.171875 25.40625 
Q 20.265625 25 18.0625 23.78125 
Q 15.875 22.5625 14.578125 20.359375 
Q 13.28125 18.171875 13.28125 14.59375 
Q 13.28125 10.296875 15.59375 7.953125 
Q 17.921875 5.609375 22.21875 5.609375 
" id="LiberationSans-61"/>
    </defs>
    <g style="fill:#262626;" transform="translate(217.4765625 34.6)scale(0.12 -0.12)">
     <use xlink:href="#LiberationSans-6d"/>
     <use x="83.30078125" xlink:href="#LiberationSans-20"/>
     <use x="111.083984375" xlink:href="#LiberationSans-2d"/>
     <use x="144.384765625" xlink:href="#LiberationSans-20"/>
     <use x="172.16796875" xlink:href="#LiberationSans-30"/>
     <use x="227.783203125" xlink:href="#LiberationSans-2e"/>
     <use x="255.56640625" xlink:href="#LiberationSans-38"/>
     <use x="311.181640625" xlink:href="#LiberationSans-33"/>
     <use x="366.796875" xlink:href="#LiberationSans-33"/>
     <use x="422.412109375" xlink:href="#LiberationSans-30"/>
     <use x="478.02734375" xlink:href="#LiberationSans-39"/>
     <use x="533.642578125" xlink:href="#LiberationSans-34"/>
     <use x="589.2578125" xlink:href="#LiberationSans-35"/>
     <use x="644.873046875" xlink:href="#LiberationSans-37"/>
     <use x="700.48828125" xlink:href="#LiberationSans-31"/>
     <use x="756.103515625" xlink:href="#LiberationSans-32"/>
     <use x="811.71875" xlink:href="#LiberationSans-39"/>
     <use x="867.333984375" xlink:href="#LiberationSans-39"/>
     <use x="922.94921875" xlink:href="#LiberationSans-38"/>
     <use x="978.564453125" xlink:href="#LiberationSans-35"/>
     <use x="1034.1796875" xlink:href="#LiberationSans-30"/>
     <use x="1089.794921875" xlink:href="#LiberationSans-38"/>
     <use x="1145.41015625" xlink:href="#LiberationSans-20"/>
     <use x="1173.193359375" xlink:href="#LiberationSans-2a"/>
     <use x="1212.109375" xlink:href="#LiberationSans-20"/>
     <use x="1239.892578125" xlink:href="#LiberationSans-61"/>
    </g>
   </g>
  </g>
 </g>
 <defs>
  <clipPath id="p668f5061d7">
   <rect height="316.8" width="446.4" x="72.0" y="39.6"/>
  </clipPath>
 </defs>
</svg>
