<?xml version="1.0" encoding="utf-8" standalone="no"?>
<!DOCTYPE svg PUBLIC "-//W3C//DTD SVG 1.1//EN"
  "http://www.w3.org/Graphics/SVG/1.1/DTD/svg11.dtd">
<!-- Created with matplotlib (http://matplotlib.org/) -->
<svg height="396pt" version="1.1" viewBox="0 0 576 396" width="576pt" xmlns="http://www.w3.org/2000/svg" xmlns:xlink="http://www.w3.org/1999/xlink">
 <defs>
  <style type="text/css">
*{stroke-linecap:butt;stroke-linejoin:round;stroke-miterlimit:100000;}
  </style>
 </defs>
 <g id="figure_1">
  <g id="patch_1">
   <path d="M 0 396 
L 576 396 
L 576 0 
L 0 0 
z
" style="fill:#ffffff;"/>
  </g>
  <g id="axes_1">
   <g id="patch_2">
    <path d="M 72 356.4 
L 518.4 356.4 
L 518.4 39.6 
L 72 39.6 
z
" style="fill:#eaeaf2;"/>
   </g>
   <g id="matplotlib.axis_1">
    <g id="xtick_1">
     <g id="line2d_1">
      <path clip-path="url(#paadf7eb439)" d="M 72 356.4 
L 72 39.6 
" style="fill:none;stroke:#ffffff;stroke-linecap:round;"/>
     </g>
     <g id="line2d_2"/>
     <g id="line2d_3"/>
     <g id="text_1">
      <!-- 2015-11-26 11:10:00 -->
      <defs>
       <path d="M 5.03125 0 
L 5.03125 6.203125 
Q 7.515625 11.921875 11.109375 16.28125 
Q 14.703125 20.65625 18.65625 24.1875 
Q 22.609375 27.734375 26.484375 30.765625 
Q 30.375 33.796875 33.5 36.8125 
Q 36.625 39.84375 38.546875 43.15625 
Q 40.484375 46.484375 40.484375 50.6875 
Q 40.484375 53.609375 39.59375 55.828125 
Q 38.71875 58.0625 37.0625 59.5625 
Q 35.40625 61.078125 33.078125 61.828125 
Q 30.765625 62.59375 27.9375 62.59375 
Q 25.296875 62.59375 22.96875 61.859375 
Q 20.65625 61.140625 18.84375 59.671875 
Q 17.046875 58.203125 15.890625 56.03125 
Q 14.75 53.859375 14.40625 50.984375 
L 5.421875 51.8125 
Q 5.859375 55.515625 7.46875 58.78125 
Q 9.078125 62.0625 11.90625 64.53125 
Q 14.75 67 18.71875 68.40625 
Q 22.703125 69.828125 27.9375 69.828125 
Q 33.0625 69.828125 37.0625 68.609375 
Q 41.0625 67.390625 43.8125 64.984375 
Q 46.578125 62.59375 48.046875 59.078125 
Q 49.515625 55.5625 49.515625 50.984375 
Q 49.515625 47.515625 48.265625 44.390625 
Q 47.015625 41.265625 44.9375 38.421875 
Q 42.875 35.59375 40.140625 32.953125 
Q 37.40625 30.328125 34.421875 27.8125 
Q 31.453125 25.296875 28.421875 22.828125 
Q 25.390625 20.359375 22.71875 17.859375 
Q 20.0625 15.375 17.96875 12.8125 
Q 15.875 10.25 14.703125 7.46875 
L 50.59375 7.46875 
L 50.59375 0 
z
" id="LiberationSans-32"/>
       <path d="M 7.625 0 
L 7.625 7.46875 
L 25.140625 7.46875 
L 25.140625 60.40625 
L 9.625 49.3125 
L 9.625 57.625 
L 25.875 68.796875 
L 33.984375 68.796875 
L 33.984375 7.46875 
L 50.734375 7.46875 
L 50.734375 0 
z
" id="LiberationSans-31"/>
       <path d="M 51.703125 34.421875 
Q 51.703125 24.515625 49.828125 17.75 
Q 47.953125 10.984375 44.703125 6.8125 
Q 41.453125 2.640625 37.0625 0.828125 
Q 32.671875 -0.984375 27.6875 -0.984375 
Q 22.65625 -0.984375 18.3125 0.828125 
Q 13.96875 2.640625 10.765625 6.78125 
Q 7.5625 10.9375 5.734375 17.703125 
Q 3.90625 24.46875 3.90625 34.421875 
Q 3.90625 44.828125 5.734375 51.640625 
Q 7.5625 58.453125 10.78125 62.5 
Q 14.015625 66.546875 18.40625 68.1875 
Q 22.796875 69.828125 27.984375 69.828125 
Q 32.90625 69.828125 37.21875 68.1875 
Q 41.546875 66.546875 44.765625 62.5 
Q 48 58.453125 49.84375 51.640625 
Q 51.703125 44.828125 51.703125 34.421875 
M 42.78125 34.421875 
Q 42.78125 42.625 41.796875 48.0625 
Q 40.828125 53.515625 38.921875 56.765625 
Q 37.015625 60.015625 34.25 61.359375 
Q 31.5 62.703125 27.984375 62.703125 
Q 24.265625 62.703125 21.4375 61.328125 
Q 18.609375 59.96875 16.671875 56.71875 
Q 14.75 53.46875 13.765625 48.015625 
Q 12.796875 42.578125 12.796875 34.421875 
Q 12.796875 26.515625 13.796875 21.09375 
Q 14.796875 15.671875 16.71875 12.375 
Q 18.65625 9.078125 21.4375 7.640625 
Q 24.21875 6.203125 27.78125 6.203125 
Q 31.25 6.203125 34.03125 7.640625 
Q 36.8125 9.078125 38.734375 12.375 
Q 40.671875 15.671875 41.71875 21.09375 
Q 42.78125 26.515625 42.78125 34.421875 
" id="LiberationSans-30"/>
       <path d="M 9.125 42.71875 
L 9.125 52.828125 
L 18.65625 52.828125 
L 18.65625 42.71875 
z
M 9.125 0 
L 9.125 10.109375 
L 18.65625 10.109375 
L 18.65625 0 
z
" id="LiberationSans-3a"/>
       <path d="M 51.421875 22.40625 
Q 51.421875 17.234375 49.859375 12.9375 
Q 48.296875 8.640625 45.21875 5.53125 
Q 42.140625 2.4375 37.578125 0.71875 
Q 33.015625 -0.984375 27 -0.984375 
Q 21.578125 -0.984375 17.546875 0.28125 
Q 13.53125 1.5625 10.734375 3.78125 
Q 7.953125 6 6.3125 8.984375 
Q 4.6875 11.96875 4 15.375 
L 12.890625 16.40625 
Q 13.421875 14.453125 14.390625 12.625 
Q 15.375 10.796875 17.0625 9.34375 
Q 18.75 7.90625 21.21875 7.046875 
Q 23.6875 6.203125 27.203125 6.203125 
Q 30.609375 6.203125 33.390625 7.25 
Q 36.1875 8.296875 38.15625 10.34375 
Q 40.140625 12.40625 41.203125 15.375 
Q 42.28125 18.359375 42.28125 22.21875 
Q 42.28125 25.390625 41.25 28.046875 
Q 40.234375 30.71875 38.328125 32.640625 
Q 36.421875 34.578125 33.65625 35.640625 
Q 30.90625 36.71875 27.390625 36.71875 
Q 25.203125 36.71875 23.34375 36.328125 
Q 21.484375 35.9375 19.890625 35.25 
Q 18.3125 34.578125 17.015625 33.671875 
Q 15.71875 32.765625 14.59375 31.78125 
L 6 31.78125 
L 8.296875 68.796875 
L 47.40625 68.796875 
L 47.40625 61.328125 
L 16.3125 61.328125 
L 14.984375 39.5 
Q 17.328125 41.3125 20.84375 42.59375 
Q 24.359375 43.890625 29.203125 43.890625 
Q 34.328125 43.890625 38.421875 42.328125 
Q 42.53125 40.765625 45.40625 37.90625 
Q 48.296875 35.0625 49.859375 31.109375 
Q 51.421875 27.15625 51.421875 22.40625 
" id="LiberationSans-35"/>
       <path id="LiberationSans-20"/>
       <path d="M 4.4375 22.65625 
L 4.4375 30.46875 
L 28.859375 30.46875 
L 28.859375 22.65625 
z
" id="LiberationSans-2d"/>
       <path d="M 51.21875 22.515625 
Q 51.21875 17.328125 49.78125 13 
Q 48.34375 8.6875 45.53125 5.578125 
Q 42.71875 2.484375 38.5625 0.75 
Q 34.421875 -0.984375 29 -0.984375 
Q 23 -0.984375 18.5 1.3125 
Q 14.015625 3.609375 11.03125 7.921875 
Q 8.0625 12.25 6.5625 18.53125 
Q 5.078125 24.8125 5.078125 32.8125 
Q 5.078125 42 6.765625 48.921875 
Q 8.453125 55.859375 11.625 60.5 
Q 14.796875 65.140625 19.359375 67.484375 
Q 23.921875 69.828125 29.6875 69.828125 
Q 33.203125 69.828125 36.28125 69.09375 
Q 39.359375 68.359375 41.875 66.71875 
Q 44.390625 65.09375 46.28125 62.40625 
Q 48.1875 59.71875 49.3125 55.8125 
L 40.921875 54.296875 
Q 39.546875 58.734375 36.546875 60.71875 
Q 33.546875 62.703125 29.59375 62.703125 
Q 25.984375 62.703125 23.046875 60.984375 
Q 20.125 59.28125 18.0625 55.875 
Q 16.015625 52.484375 14.90625 47.359375 
Q 13.8125 42.234375 13.8125 35.40625 
Q 16.21875 39.84375 20.5625 42.15625 
Q 24.90625 44.484375 30.515625 44.484375 
Q 35.203125 44.484375 39.015625 42.96875 
Q 42.828125 41.453125 45.53125 38.59375 
Q 48.25 35.75 49.734375 31.671875 
Q 51.21875 27.59375 51.21875 22.515625 
M 42.28125 22.125 
Q 42.28125 25.6875 41.40625 28.5625 
Q 40.53125 31.453125 38.765625 33.46875 
Q 37.015625 35.5 34.421875 36.59375 
Q 31.84375 37.703125 28.421875 37.703125 
Q 26.03125 37.703125 23.578125 36.984375 
Q 21.140625 36.28125 19.15625 34.6875 
Q 17.1875 33.109375 15.9375 30.515625 
Q 14.703125 27.9375 14.703125 24.21875 
Q 14.703125 20.40625 15.671875 17.109375 
Q 16.65625 13.8125 18.484375 11.375 
Q 20.3125 8.9375 22.890625 7.515625 
Q 25.484375 6.109375 28.71875 6.109375 
Q 31.890625 6.109375 34.40625 7.203125 
Q 36.921875 8.296875 38.671875 10.375 
Q 40.4375 12.453125 41.359375 15.421875 
Q 42.28125 18.40625 42.28125 22.125 
" id="LiberationSans-36"/>
      </defs>
      <g style="fill:#262626;" transform="translate(25.5765625 370.646875)scale(0.1 -0.1)">
       <use xlink:href="#LiberationSans-32"/>
       <use x="55.615234375" xlink:href="#LiberationSans-30"/>
       <use x="111.23046875" xlink:href="#LiberationSans-31"/>
       <use x="166.845703125" xlink:href="#LiberationSans-35"/>
       <use x="222.4609375" xlink:href="#LiberationSans-2d"/>
       <use x="255.76171875" xlink:href="#LiberationSans-31"/>
       <use x="311.376953125" xlink:href="#LiberationSans-31"/>
       <use x="366.9921875" xlink:href="#LiberationSans-2d"/>
       <use x="400.29296875" xlink:href="#LiberationSans-32"/>
       <use x="455.908203125" xlink:href="#LiberationSans-36"/>
       <use x="511.5234375" xlink:href="#LiberationSans-20"/>
       <use x="539.306640625" xlink:href="#LiberationSans-31"/>
       <use x="594.921875" xlink:href="#LiberationSans-31"/>
       <use x="650.537109375" xlink:href="#LiberationSans-3a"/>
       <use x="678.3203125" xlink:href="#LiberationSans-31"/>
       <use x="733.935546875" xlink:href="#LiberationSans-30"/>
       <use x="789.55078125" xlink:href="#LiberationSans-3a"/>
       <use x="817.333984375" xlink:href="#LiberationSans-30"/>
       <use x="872.94921875" xlink:href="#LiberationSans-30"/>
      </g>
     </g>
    </g>
    <g id="xtick_2">
     <g id="line2d_4">
      <path clip-path="url(#paadf7eb439)" d="M 183.655828 356.4 
L 183.655828 39.6 
" style="fill:none;stroke:#ffffff;stroke-linecap:round;"/>
     </g>
     <g id="line2d_5"/>
     <g id="line2d_6"/>
     <g id="text_2">
      <!-- 2015-11-27 22:05:00 -->
      <defs>
       <path d="M 50.59375 61.671875 
Q 45.40625 53.765625 41.0625 46.453125 
Q 36.71875 39.15625 33.59375 31.75 
Q 30.46875 24.359375 28.734375 16.578125 
Q 27 8.796875 27 0 
L 17.828125 0 
Q 17.828125 8.25 19.78125 16.1875 
Q 21.734375 24.125 25.046875 31.765625 
Q 28.375 39.40625 32.765625 46.78125 
Q 37.15625 54.15625 42.09375 61.328125 
L 5.125 61.328125 
L 5.125 68.796875 
L 50.59375 68.796875 
z
" id="LiberationSans-37"/>
      </defs>
      <g style="fill:#262626;" transform="translate(137.232390414 370.646875)scale(0.1 -0.1)">
       <use xlink:href="#LiberationSans-32"/>
       <use x="55.615234375" xlink:href="#LiberationSans-30"/>
       <use x="111.23046875" xlink:href="#LiberationSans-31"/>
       <use x="166.845703125" xlink:href="#LiberationSans-35"/>
       <use x="222.4609375" xlink:href="#LiberationSans-2d"/>
       <use x="255.76171875" xlink:href="#LiberationSans-31"/>
       <use x="311.376953125" xlink:href="#LiberationSans-31"/>
       <use x="366.9921875" xlink:href="#LiberationSans-2d"/>
       <use x="400.29296875" xlink:href="#LiberationSans-32"/>
       <use x="455.908203125" xlink:href="#LiberationSans-37"/>
       <use x="511.5234375" xlink:href="#LiberationSans-20"/>
       <use x="539.306640625" xlink:href="#LiberationSans-32"/>
       <use x="594.921875" xlink:href="#LiberationSans-32"/>
       <use x="650.537109375" xlink:href="#LiberationSans-3a"/>
       <use x="678.3203125" xlink:href="#LiberationSans-30"/>
       <use x="733.935546875" xlink:href="#LiberationSans-35"/>
       <use x="789.55078125" xlink:href="#LiberationSans-3a"/>
       <use x="817.333984375" xlink:href="#LiberationSans-30"/>
       <use x="872.94921875" xlink:href="#LiberationSans-30"/>
      </g>
     </g>
    </g>
    <g id="xtick_3">
     <g id="line2d_7">
      <path clip-path="url(#paadf7eb439)" d="M 295.311656 356.4 
L 295.311656 39.6 
" style="fill:none;stroke:#ffffff;stroke-linecap:round;"/>
     </g>
     <g id="line2d_8"/>
     <g id="line2d_9"/>
     <g id="text_3">
      <!-- 2015-12-02 14:38:00 -->
      <defs>
       <path d="M 51.265625 19.1875 
Q 51.265625 14.796875 49.875 11.109375 
Q 48.484375 7.421875 45.625 4.734375 
Q 42.78125 2.046875 38.328125 0.53125 
Q 33.890625 -0.984375 27.828125 -0.984375 
Q 21.78125 -0.984375 17.359375 0.53125 
Q 12.9375 2.046875 10.03125 4.703125 
Q 7.125 7.375 5.734375 11.0625 
Q 4.34375 14.75 4.34375 19.09375 
Q 4.34375 22.859375 5.484375 25.78125 
Q 6.640625 28.71875 8.5625 30.828125 
Q 10.5 32.953125 12.96875 34.25 
Q 15.4375 35.546875 18.0625 35.984375 
L 18.0625 36.1875 
Q 15.1875 36.859375 12.90625 38.375 
Q 10.640625 39.890625 9.09375 42.015625 
Q 7.5625 44.140625 6.75 46.71875 
Q 5.953125 49.3125 5.953125 52.203125 
Q 5.953125 55.8125 7.34375 59 
Q 8.734375 62.203125 11.46875 64.625 
Q 14.203125 67.046875 18.25 68.4375 
Q 22.3125 69.828125 27.640625 69.828125 
Q 33.25 69.828125 37.375 68.40625 
Q 41.5 67 44.203125 64.578125 
Q 46.921875 62.15625 48.234375 58.9375 
Q 49.5625 55.71875 49.5625 52.09375 
Q 49.5625 49.265625 48.75 46.671875 
Q 47.953125 44.09375 46.40625 41.96875 
Q 44.875 39.84375 42.59375 38.34375 
Q 40.328125 36.859375 37.359375 36.28125 
L 37.359375 36.078125 
Q 40.328125 35.59375 42.859375 34.296875 
Q 45.40625 33.015625 47.265625 30.890625 
Q 49.125 28.765625 50.1875 25.828125 
Q 51.265625 22.90625 51.265625 19.1875 
M 40.4375 51.609375 
Q 40.4375 54.203125 39.765625 56.34375 
Q 39.109375 58.5 37.59375 60.03125 
Q 36.078125 61.578125 33.640625 62.421875 
Q 31.203125 63.28125 27.640625 63.28125 
Q 24.171875 63.28125 21.78125 62.421875 
Q 19.390625 61.578125 17.84375 60.03125 
Q 16.3125 58.5 15.625 56.34375 
Q 14.9375 54.203125 14.9375 51.609375 
Q 14.9375 49.5625 15.46875 47.40625 
Q 16.015625 45.265625 17.421875 43.5 
Q 18.84375 41.75 21.328125 40.625 
Q 23.828125 39.5 27.734375 39.5 
Q 31.890625 39.5 34.40625 40.625 
Q 36.921875 41.75 38.25 43.5 
Q 39.59375 45.265625 40.015625 47.40625 
Q 40.4375 49.5625 40.4375 51.609375 
M 42.140625 20.015625 
Q 42.140625 22.515625 41.453125 24.828125 
Q 40.765625 27.15625 39.109375 28.9375 
Q 37.453125 30.71875 34.640625 31.8125 
Q 31.84375 32.90625 27.640625 32.90625 
Q 23.78125 32.90625 21.0625 31.8125 
Q 18.359375 30.71875 16.671875 28.90625 
Q 14.984375 27.09375 14.203125 24.71875 
Q 13.421875 22.359375 13.421875 19.828125 
Q 13.421875 16.65625 14.203125 14.03125 
Q 14.984375 11.421875 16.6875 9.546875 
Q 18.40625 7.671875 21.1875 6.640625 
Q 23.96875 5.609375 27.9375 5.609375 
Q 31.9375 5.609375 34.671875 6.640625 
Q 37.40625 7.671875 39.0625 9.546875 
Q 40.71875 11.421875 41.421875 14.078125 
Q 42.140625 16.75 42.140625 20.015625 
" id="LiberationSans-38"/>
       <path d="M 51.21875 19 
Q 51.21875 14.265625 49.671875 10.546875 
Q 48.140625 6.84375 45.1875 4.265625 
Q 42.234375 1.703125 37.859375 0.359375 
Q 33.5 -0.984375 27.875 -0.984375 
Q 21.484375 -0.984375 17.109375 0.609375 
Q 12.75 2.203125 9.90625 4.8125 
Q 7.078125 7.421875 5.65625 10.765625 
Q 4.25 14.109375 3.8125 17.671875 
L 12.890625 18.5 
Q 13.28125 15.765625 14.328125 13.515625 
Q 15.375 11.28125 17.1875 9.671875 
Q 19 8.0625 21.625 7.171875 
Q 24.265625 6.296875 27.875 6.296875 
Q 34.515625 6.296875 38.296875 9.5625 
Q 42.09375 12.84375 42.09375 19.28125 
Q 42.09375 23.09375 40.40625 25.40625 
Q 38.71875 27.734375 36.203125 29.03125 
Q 33.6875 30.328125 30.734375 30.765625 
Q 27.78125 31.203125 25.296875 31.203125 
L 20.3125 31.203125 
L 20.3125 38.8125 
L 25.09375 38.8125 
Q 27.59375 38.8125 30.265625 39.328125 
Q 32.953125 39.84375 35.171875 41.1875 
Q 37.40625 42.53125 38.84375 44.828125 
Q 40.28125 47.125 40.28125 50.6875 
Q 40.28125 56.203125 37.03125 59.390625 
Q 33.796875 62.59375 27.390625 62.59375 
Q 21.578125 62.59375 17.984375 59.609375 
Q 14.40625 56.640625 13.8125 51.21875 
L 4.984375 51.90625 
Q 5.515625 56.453125 7.46875 59.8125 
Q 9.421875 63.1875 12.421875 65.40625 
Q 15.4375 67.625 19.28125 68.71875 
Q 23.140625 69.828125 27.484375 69.828125 
Q 33.25 69.828125 37.390625 68.375 
Q 41.546875 66.9375 44.1875 64.46875 
Q 46.828125 62.015625 48.0625 58.6875 
Q 49.3125 55.375 49.3125 51.609375 
Q 49.3125 48.578125 48.484375 45.9375 
Q 47.65625 43.3125 45.890625 41.203125 
Q 44.140625 39.109375 41.421875 37.59375 
Q 38.71875 36.078125 34.90625 35.296875 
L 34.90625 35.109375 
Q 39.0625 34.671875 42.140625 33.21875 
Q 45.21875 31.78125 47.21875 29.625 
Q 49.21875 27.484375 50.21875 24.75 
Q 51.21875 22.015625 51.21875 19 
" id="LiberationSans-33"/>
       <path d="M 43.015625 15.578125 
L 43.015625 0 
L 34.71875 0 
L 34.71875 15.578125 
L 2.296875 15.578125 
L 2.296875 22.40625 
L 33.796875 68.796875 
L 43.015625 68.796875 
L 43.015625 22.515625 
L 52.6875 22.515625 
L 52.6875 15.578125 
z
M 34.71875 58.890625 
Q 34.625 58.640625 34.234375 57.9375 
Q 33.84375 57.234375 33.34375 56.34375 
Q 32.859375 55.46875 32.34375 54.5625 
Q 31.84375 53.65625 31.453125 53.078125 
L 13.8125 27.09375 
Q 13.578125 26.703125 13.109375 26.0625 
Q 12.640625 25.4375 12.15625 24.78125 
Q 11.671875 24.125 11.171875 23.484375 
Q 10.6875 22.859375 10.40625 22.515625 
L 34.71875 22.515625 
z
" id="LiberationSans-34"/>
      </defs>
      <g style="fill:#262626;" transform="translate(248.888218328 370.646875)scale(0.1 -0.1)">
       <use xlink:href="#LiberationSans-32"/>
       <use x="55.615234375" xlink:href="#LiberationSans-30"/>
       <use x="111.23046875" xlink:href="#LiberationSans-31"/>
       <use x="166.845703125" xlink:href="#LiberationSans-35"/>
       <use x="222.4609375" xlink:href="#LiberationSans-2d"/>
       <use x="255.76171875" xlink:href="#LiberationSans-31"/>
       <use x="311.376953125" xlink:href="#LiberationSans-32"/>
       <use x="366.9921875" xlink:href="#LiberationSans-2d"/>
       <use x="400.29296875" xlink:href="#LiberationSans-30"/>
       <use x="455.908203125" xlink:href="#LiberationSans-32"/>
       <use x="511.5234375" xlink:href="#LiberationSans-20"/>
       <use x="539.306640625" xlink:href="#LiberationSans-31"/>
       <use x="594.921875" xlink:href="#LiberationSans-34"/>
       <use x="650.537109375" xlink:href="#LiberationSans-3a"/>
       <use x="678.3203125" xlink:href="#LiberationSans-33"/>
       <use x="733.935546875" xlink:href="#LiberationSans-38"/>
       <use x="789.55078125" xlink:href="#LiberationSans-3a"/>
       <use x="817.333984375" xlink:href="#LiberationSans-30"/>
       <use x="872.94921875" xlink:href="#LiberationSans-30"/>
      </g>
     </g>
    </g>
    <g id="xtick_4">
     <g id="line2d_10">
      <path clip-path="url(#paadf7eb439)" d="M 406.967484 356.4 
L 406.967484 39.6 
" style="fill:none;stroke:#ffffff;stroke-linecap:round;"/>
     </g>
     <g id="line2d_11"/>
     <g id="line2d_12"/>
     <g id="text_4">
      <!-- 2015-12-09 11:10:00 -->
      <defs>
       <path d="M 50.875 35.796875 
Q 50.875 26.609375 49.140625 19.703125 
Q 47.40625 12.796875 44.1875 8.203125 
Q 40.96875 3.609375 36.34375 1.3125 
Q 31.734375 -0.984375 25.984375 -0.984375 
Q 22.015625 -0.984375 18.84375 -0.171875 
Q 15.671875 0.640625 13.171875 2.34375 
Q 10.6875 4.046875 8.921875 6.78125 
Q 7.171875 9.515625 6.109375 13.375 
L 14.5 14.703125 
Q 15.875 10.25 18.78125 8.171875 
Q 21.6875 6.109375 26.125 6.109375 
Q 29.6875 6.109375 32.640625 7.78125 
Q 35.59375 9.46875 37.671875 12.84375 
Q 39.75 16.21875 40.921875 21.296875 
Q 42.09375 26.375 42.1875 33.203125 
Q 41.15625 30.90625 39.375 29.09375 
Q 37.59375 27.296875 35.328125 26.046875 
Q 33.0625 24.8125 30.421875 24.140625 
Q 27.78125 23.484375 25.09375 23.484375 
Q 20.40625 23.484375 16.625 25.171875 
Q 12.84375 26.859375 10.203125 29.875 
Q 7.5625 32.90625 6.125 37.171875 
Q 4.6875 41.453125 4.6875 46.6875 
Q 4.6875 52 6.21875 56.296875 
Q 7.765625 60.59375 10.6875 63.59375 
Q 13.625 66.609375 17.890625 68.21875 
Q 22.171875 69.828125 27.59375 69.828125 
Q 39.0625 69.828125 44.96875 61.328125 
Q 50.875 52.828125 50.875 35.796875 
M 41.3125 44.28125 
Q 41.3125 48.09375 40.40625 51.453125 
Q 39.5 54.828125 37.71875 57.3125 
Q 35.9375 59.8125 33.328125 61.25 
Q 30.71875 62.703125 27.296875 62.703125 
Q 24.125 62.703125 21.578125 61.578125 
Q 19.046875 60.453125 17.28125 58.375 
Q 15.53125 56.296875 14.578125 53.3125 
Q 13.625 50.34375 13.625 46.6875 
Q 13.625 43.21875 14.46875 40.234375 
Q 15.328125 37.25 17.03125 35.078125 
Q 18.75 32.90625 21.28125 31.65625 
Q 23.828125 30.421875 27.203125 30.421875 
Q 29.640625 30.421875 32.15625 31.25 
Q 34.671875 32.078125 36.6875 33.78125 
Q 38.71875 35.5 40.015625 38.109375 
Q 41.3125 40.71875 41.3125 44.28125 
" id="LiberationSans-39"/>
      </defs>
      <g style="fill:#262626;" transform="translate(360.544046242 370.646875)scale(0.1 -0.1)">
       <use xlink:href="#LiberationSans-32"/>
       <use x="55.615234375" xlink:href="#LiberationSans-30"/>
       <use x="111.23046875" xlink:href="#LiberationSans-31"/>
       <use x="166.845703125" xlink:href="#LiberationSans-35"/>
       <use x="222.4609375" xlink:href="#LiberationSans-2d"/>
       <use x="255.76171875" xlink:href="#LiberationSans-31"/>
       <use x="311.376953125" xlink:href="#LiberationSans-32"/>
       <use x="366.9921875" xlink:href="#LiberationSans-2d"/>
       <use x="400.29296875" xlink:href="#LiberationSans-30"/>
       <use x="455.908203125" xlink:href="#LiberationSans-39"/>
       <use x="511.5234375" xlink:href="#LiberationSans-20"/>
       <use x="539.306640625" xlink:href="#LiberationSans-31"/>
       <use x="594.921875" xlink:href="#LiberationSans-31"/>
       <use x="650.537109375" xlink:href="#LiberationSans-3a"/>
       <use x="678.3203125" xlink:href="#LiberationSans-31"/>
       <use x="733.935546875" xlink:href="#LiberationSans-30"/>
       <use x="789.55078125" xlink:href="#LiberationSans-3a"/>
       <use x="817.333984375" xlink:href="#LiberationSans-30"/>
       <use x="872.94921875" xlink:href="#LiberationSans-30"/>
      </g>
     </g>
    </g>
    <g id="text_5">
     <!-- time -->
     <defs>
      <path d="M 13.484375 24.5625 
Q 13.484375 20.40625 14.328125 16.90625 
Q 15.1875 13.421875 16.96875 10.90625 
Q 18.75 8.40625 21.53125 7 
Q 24.3125 5.609375 28.21875 5.609375 
Q 33.9375 5.609375 37.375 7.90625 
Q 40.828125 10.203125 42.046875 13.71875 
L 49.75 11.53125 
Q 48.921875 9.328125 47.4375 7.109375 
Q 45.953125 4.890625 43.453125 3.09375 
Q 40.96875 1.3125 37.234375 0.15625 
Q 33.5 -0.984375 28.21875 -0.984375 
Q 16.5 -0.984375 10.375 6 
Q 4.25 12.984375 4.25 26.765625 
Q 4.25 34.1875 6.09375 39.328125 
Q 7.953125 44.484375 11.171875 47.703125 
Q 14.40625 50.921875 18.703125 52.359375 
Q 23 53.8125 27.875 53.8125 
Q 34.515625 53.8125 38.984375 51.65625 
Q 43.453125 49.515625 46.15625 45.71875 
Q 48.875 41.9375 50.015625 36.8125 
Q 51.171875 31.6875 51.171875 25.734375 
L 51.171875 24.5625 
z
M 42.09375 31.296875 
Q 41.359375 39.65625 37.84375 43.484375 
Q 34.328125 47.3125 27.734375 47.3125 
Q 25.53125 47.3125 23.109375 46.609375 
Q 20.703125 45.90625 18.65625 44.09375 
Q 16.609375 42.28125 15.1875 39.171875 
Q 13.765625 36.078125 13.578125 31.296875 
z
" id="LiberationSans-65"/>
      <path d="M 6.6875 64.0625 
L 6.6875 72.46875 
L 15.484375 72.46875 
L 15.484375 64.0625 
z
M 6.6875 0 
L 6.6875 52.828125 
L 15.484375 52.828125 
L 15.484375 0 
z
" id="LiberationSans-69"/>
      <path d="M 27.046875 0.390625 
Q 25.046875 -0.140625 22.96875 -0.453125 
Q 20.90625 -0.78125 18.171875 -0.78125 
Q 7.625 -0.78125 7.625 11.1875 
L 7.625 46.4375 
L 1.515625 46.4375 
L 1.515625 52.828125 
L 7.953125 52.828125 
L 10.546875 64.65625 
L 16.40625 64.65625 
L 16.40625 52.828125 
L 26.171875 52.828125 
L 26.171875 46.4375 
L 16.40625 46.4375 
L 16.40625 13.09375 
Q 16.40625 9.28125 17.640625 7.734375 
Q 18.890625 6.203125 21.96875 6.203125 
Q 23.25 6.203125 24.4375 6.390625 
Q 25.640625 6.59375 27.046875 6.890625 
z
" id="LiberationSans-74"/>
      <path d="M 37.5 0 
L 37.5 33.5 
Q 37.5 37.359375 37.015625 39.9375 
Q 36.53125 42.53125 35.375 44.109375 
Q 34.234375 45.703125 32.375 46.359375 
Q 30.515625 47.015625 27.828125 47.015625 
Q 25.046875 47.015625 22.796875 45.921875 
Q 20.5625 44.828125 18.96875 42.75 
Q 17.390625 40.671875 16.53125 37.625 
Q 15.671875 34.578125 15.671875 30.609375 
L 15.671875 0 
L 6.9375 0 
L 6.9375 41.546875 
Q 6.9375 43.21875 6.90625 45.046875 
Q 6.890625 46.875 6.828125 48.5 
Q 6.78125 50.140625 6.734375 51.3125 
Q 6.6875 52.484375 6.640625 52.828125 
L 14.9375 52.828125 
Q 14.984375 52.59375 15.03125 51.515625 
Q 15.09375 50.4375 15.15625 49.046875 
Q 15.234375 47.65625 15.28125 46.21875 
Q 15.328125 44.78125 15.328125 43.796875 
L 15.484375 43.796875 
Q 16.65625 46.09375 18.015625 47.953125 
Q 19.390625 49.8125 21.21875 51.09375 
Q 23.046875 52.390625 25.40625 53.09375 
Q 27.78125 53.8125 30.90625 53.8125 
Q 36.921875 53.8125 40.40625 51.421875 
Q 43.890625 49.03125 45.265625 43.796875 
L 45.40625 43.796875 
Q 46.578125 46.09375 48.046875 47.953125 
Q 49.515625 49.8125 51.46875 51.09375 
Q 53.421875 52.390625 55.859375 53.09375 
Q 58.296875 53.8125 61.421875 53.8125 
Q 65.4375 53.8125 68.328125 52.734375 
Q 71.234375 51.65625 73.09375 49.40625 
Q 74.953125 47.171875 75.828125 43.625 
Q 76.703125 40.09375 76.703125 35.203125 
L 76.703125 0 
L 68.015625 0 
L 68.015625 33.5 
Q 68.015625 37.359375 67.53125 39.9375 
Q 67.046875 42.53125 65.890625 44.109375 
Q 64.75 45.703125 62.890625 46.359375 
Q 61.03125 47.015625 58.34375 47.015625 
Q 55.5625 47.015625 53.3125 45.96875 
Q 51.078125 44.921875 49.484375 42.875 
Q 47.90625 40.828125 47.046875 37.75 
Q 46.1875 34.671875 46.1875 30.609375 
L 46.1875 0 
z
" id="LiberationSans-6d"/>
     </defs>
     <g style="fill:#262626;" transform="translate(284.81015625 385.6934375)scale(0.11 -0.11)">
      <use xlink:href="#LiberationSans-74"/>
      <use x="27.783203125" xlink:href="#LiberationSans-69"/>
      <use x="50.0" xlink:href="#LiberationSans-6d"/>
      <use x="133.30078125" xlink:href="#LiberationSans-65"/>
     </g>
    </g>
   </g>
   <g id="matplotlib.axis_2">
    <g id="ytick_1">
     <g id="line2d_13">
      <path clip-path="url(#paadf7eb439)" d="M 72 356.4 
L 518.4 356.4 
" style="fill:none;stroke:#ffffff;stroke-linecap:round;"/>
     </g>
     <g id="line2d_14"/>
     <g id="line2d_15"/>
     <g id="text_6">
      <!-- −6400 -->
      <defs>
       <path d="M 4.9375 29.6875 
L 4.9375 36.8125 
L 53.515625 36.8125 
L 53.515625 29.6875 
z
" id="LiberationSans-2212"/>
      </defs>
      <g style="fill:#262626;" transform="translate(36.915625 358.9859375)scale(0.1 -0.1)">
       <use xlink:href="#LiberationSans-2212"/>
       <use x="58.3984375" xlink:href="#LiberationSans-36"/>
       <use x="114.013671875" xlink:href="#LiberationSans-34"/>
       <use x="169.62890625" xlink:href="#LiberationSans-30"/>
       <use x="225.244140625" xlink:href="#LiberationSans-30"/>
      </g>
     </g>
    </g>
    <g id="ytick_2">
     <g id="line2d_16">
      <path clip-path="url(#paadf7eb439)" d="M 72 321.2 
L 518.4 321.2 
" style="fill:none;stroke:#ffffff;stroke-linecap:round;"/>
     </g>
     <g id="line2d_17"/>
     <g id="line2d_18"/>
     <g id="text_7">
      <!-- −6300 -->
      <g style="fill:#262626;" transform="translate(36.915625 323.7859375)scale(0.1 -0.1)">
       <use xlink:href="#LiberationSans-2212"/>
       <use x="58.3984375" xlink:href="#LiberationSans-36"/>
       <use x="114.013671875" xlink:href="#LiberationSans-33"/>
       <use x="169.62890625" xlink:href="#LiberationSans-30"/>
       <use x="225.244140625" xlink:href="#LiberationSans-30"/>
      </g>
     </g>
    </g>
    <g id="ytick_3">
     <g id="line2d_19">
      <path clip-path="url(#paadf7eb439)" d="M 72 286 
L 518.4 286 
" style="fill:none;stroke:#ffffff;stroke-linecap:round;"/>
     </g>
     <g id="line2d_20"/>
     <g id="line2d_21"/>
     <g id="text_8">
      <!-- −6200 -->
      <g style="fill:#262626;" transform="translate(36.915625 288.5859375)scale(0.1 -0.1)">
       <use xlink:href="#LiberationSans-2212"/>
       <use x="58.3984375" xlink:href="#LiberationSans-36"/>
       <use x="114.013671875" xlink:href="#LiberationSans-32"/>
       <use x="169.62890625" xlink:href="#LiberationSans-30"/>
       <use x="225.244140625" xlink:href="#LiberationSans-30"/>
      </g>
     </g>
    </g>
    <g id="ytick_4">
     <g id="line2d_22">
      <path clip-path="url(#paadf7eb439)" d="M 72 250.8 
L 518.4 250.8 
" style="fill:none;stroke:#ffffff;stroke-linecap:round;"/>
     </g>
     <g id="line2d_23"/>
     <g id="line2d_24"/>
     <g id="text_9">
      <!-- −6100 -->
      <g style="fill:#262626;" transform="translate(36.915625 253.3859375)scale(0.1 -0.1)">
       <use xlink:href="#LiberationSans-2212"/>
       <use x="58.3984375" xlink:href="#LiberationSans-36"/>
       <use x="114.013671875" xlink:href="#LiberationSans-31"/>
       <use x="169.62890625" xlink:href="#LiberationSans-30"/>
       <use x="225.244140625" xlink:href="#LiberationSans-30"/>
      </g>
     </g>
    </g>
    <g id="ytick_5">
     <g id="line2d_25">
      <path clip-path="url(#paadf7eb439)" d="M 72 215.6 
L 518.4 215.6 
" style="fill:none;stroke:#ffffff;stroke-linecap:round;"/>
     </g>
     <g id="line2d_26"/>
     <g id="line2d_27"/>
     <g id="text_10">
      <!-- −6000 -->
      <g style="fill:#262626;" transform="translate(36.915625 218.1859375)scale(0.1 -0.1)">
       <use xlink:href="#LiberationSans-2212"/>
       <use x="58.3984375" xlink:href="#LiberationSans-36"/>
       <use x="114.013671875" xlink:href="#LiberationSans-30"/>
       <use x="169.62890625" xlink:href="#LiberationSans-30"/>
       <use x="225.244140625" xlink:href="#LiberationSans-30"/>
      </g>
     </g>
    </g>
    <g id="ytick_6">
     <g id="line2d_28">
      <path clip-path="url(#paadf7eb439)" d="M 72 180.4 
L 518.4 180.4 
" style="fill:none;stroke:#ffffff;stroke-linecap:round;"/>
     </g>
     <g id="line2d_29"/>
     <g id="line2d_30"/>
     <g id="text_11">
      <!-- −5900 -->
      <g style="fill:#262626;" transform="translate(36.915625 182.9859375)scale(0.1 -0.1)">
       <use xlink:href="#LiberationSans-2212"/>
       <use x="58.3984375" xlink:href="#LiberationSans-35"/>
       <use x="114.013671875" xlink:href="#LiberationSans-39"/>
       <use x="169.62890625" xlink:href="#LiberationSans-30"/>
       <use x="225.244140625" xlink:href="#LiberationSans-30"/>
      </g>
     </g>
    </g>
    <g id="ytick_7">
     <g id="line2d_31">
      <path clip-path="url(#paadf7eb439)" d="M 72 145.2 
L 518.4 145.2 
" style="fill:none;stroke:#ffffff;stroke-linecap:round;"/>
     </g>
     <g id="line2d_32"/>
     <g id="line2d_33"/>
     <g id="text_12">
      <!-- −5800 -->
      <g style="fill:#262626;" transform="translate(36.915625 147.7859375)scale(0.1 -0.1)">
       <use xlink:href="#LiberationSans-2212"/>
       <use x="58.3984375" xlink:href="#LiberationSans-35"/>
       <use x="114.013671875" xlink:href="#LiberationSans-38"/>
       <use x="169.62890625" xlink:href="#LiberationSans-30"/>
       <use x="225.244140625" xlink:href="#LiberationSans-30"/>
      </g>
     </g>
    </g>
    <g id="ytick_8">
     <g id="line2d_34">
      <path clip-path="url(#paadf7eb439)" d="M 72 110 
L 518.4 110 
" style="fill:none;stroke:#ffffff;stroke-linecap:round;"/>
     </g>
     <g id="line2d_35"/>
     <g id="line2d_36"/>
     <g id="text_13">
      <!-- −5700 -->
      <g style="fill:#262626;" transform="translate(36.915625 112.5859375)scale(0.1 -0.1)">
       <use xlink:href="#LiberationSans-2212"/>
       <use x="58.3984375" xlink:href="#LiberationSans-35"/>
       <use x="114.013671875" xlink:href="#LiberationSans-37"/>
       <use x="169.62890625" xlink:href="#LiberationSans-30"/>
       <use x="225.244140625" xlink:href="#LiberationSans-30"/>
      </g>
     </g>
    </g>
    <g id="ytick_9">
     <g id="line2d_37">
      <path clip-path="url(#paadf7eb439)" d="M 72 74.8 
L 518.4 74.8 
" style="fill:none;stroke:#ffffff;stroke-linecap:round;"/>
     </g>
     <g id="line2d_38"/>
     <g id="line2d_39"/>
     <g id="text_14">
      <!-- −5600 -->
      <g style="fill:#262626;" transform="translate(36.915625 77.3859375)scale(0.1 -0.1)">
       <use xlink:href="#LiberationSans-2212"/>
       <use x="58.3984375" xlink:href="#LiberationSans-35"/>
       <use x="114.013671875" xlink:href="#LiberationSans-36"/>
       <use x="169.62890625" xlink:href="#LiberationSans-30"/>
       <use x="225.244140625" xlink:href="#LiberationSans-30"/>
      </g>
     </g>
    </g>
    <g id="ytick_10">
     <g id="line2d_40">
      <path clip-path="url(#paadf7eb439)" d="M 72 39.6 
L 518.4 39.6 
" style="fill:none;stroke:#ffffff;stroke-linecap:round;"/>
     </g>
     <g id="line2d_41"/>
     <g id="line2d_42"/>
     <g id="text_15">
      <!-- −5500 -->
      <g style="fill:#262626;" transform="translate(36.915625 42.1859375)scale(0.1 -0.1)">
       <use xlink:href="#LiberationSans-2212"/>
       <use x="58.3984375" xlink:href="#LiberationSans-35"/>
       <use x="114.013671875" xlink:href="#LiberationSans-35"/>
       <use x="169.62890625" xlink:href="#LiberationSans-30"/>
       <use x="225.244140625" xlink:href="#LiberationSans-30"/>
      </g>
     </g>
    </g>
   </g>
   <g id="line2d_43">
    <path clip-path="url(#paadf7eb439)" d="M 72 291.425203 
L 72.223312 297.72595 
L 72.446623 297.72595 
L 72.669935 291.425203 
L 72.893247 296.02579 
L 73.116558 296.02579 
L 73.33987 283.36998 
L 73.563182 283.36998 
L 73.786493 285.07014 
L 74.233117 285.07014 
L 74.456428 289.725043 
L 74.67974 291.425203 
L 74.903052 301.12627 
L 75.126363 297.72595 
L 75.349675 299.42611 
L 75.572986 299.42611 
L 76.01961 312.027602 
L 76.466233 271.968754 
L 76.912856 301.826642 
L 77.136168 305.226962 
L 77.35948 328.729788 
L 77.582791 328.729788 
L 78.029415 271.968754 
L 78.252726 263.967847 
L 78.476038 245.065608 
L 78.69935 263.967847 
L 78.922661 251.366355 
L 79.145973 232.409799 
L 79.369285 238.764862 
L 79.592596 251.366355 
L 79.815908 245.065608 
L 80.03922 226.109053 
L 80.262531 219.808306 
L 80.485843 219.808306 
L 80.709155 213.50756 
L 81.155778 208.906974 
L 81.602401 212.807187 
L 81.825713 224.208414 
L 82.049025 211.606921 
L 82.272336 212.807187 
L 82.495648 211.107027 
L 82.942271 192.150471 
L 83.165583 206.506441 
L 83.388894 204.806281 
L 83.612206 217.407774 
L 83.835518 203.106121 
L 84.058829 209.406867 
L 84.282141 209.406867 
L 84.505453 217.407774 
L 84.728764 200.151378 
L 85.175388 204.806281 
L 85.398699 206.506441 
L 85.622011 212.807187 
L 85.845323 206.506441 
L 86.068634 211.107027 
L 86.291946 209.406867 
L 86.738569 217.407774 
L 86.961881 207.706707 
L 87.185193 206.506441 
L 87.408504 214.007454 
L 87.631816 225.40868 
L 88.301751 204.806281 
L 88.525063 211.107027 
L 88.748374 211.107027 
L 89.194997 198.451218 
L 89.418309 198.451218 
L 89.641621 184.149565 
L 89.864932 190.450311 
L 90.088244 162.047485 
L 90.311556 171.748551 
L 90.534867 164.947911 
L 90.758179 171.248658 
L 90.981491 169.548498 
L 91.204802 164.947911 
L 91.651426 173.448711 
L 91.874737 176.849031 
L 92.098049 176.849031 
L 92.321361 178.549191 
L 92.544672 178.549191 
L 92.767984 176.849031 
L 93.214607 189.950418 
L 93.661231 198.451218 
L 93.884542 195.050898 
L 94.107854 195.050898 
L 94.331166 193.350738 
L 94.554477 198.005641 
L 95.001101 189.950418 
L 95.224412 194.605321 
L 95.447724 189.950418 
L 95.671036 188.250258 
L 95.894347 188.250258 
L 96.34097 199.705801 
L 96.564282 216.207507 
L 96.787594 214.507347 
L 97.010905 220.808094 
L 97.234217 217.407774 
L 97.457529 224.908786 
L 97.68084 223.208626 
L 97.904152 210.10724 
L 98.127464 221.508466 
L 98.350775 211.8074 
L 98.574087 209.607346 
L 99.02071 201.60644 
L 99.244022 209.607346 
L 99.467334 201.106546 
L 99.690645 197.706226 
L 100.137269 185.104734 
L 100.36058 186.804894 
L 100.583892 191.905374 
L 100.807204 199.90628 
L 101.477139 180.708146 
L 101.70045 189.205426 
L 101.923762 190.905586 
L 102.147074 197.706226 
L 102.370385 197.706226 
L 102.593697 193.10564 
L 102.817009 191.40548 
L 103.04032 188.505054 
L 103.263632 191.40548 
L 103.486943 197.706226 
L 103.710255 191.40548 
L 103.933567 189.70532 
L 104.156878 189.70532 
L 104.38019 194.305906 
L 104.603502 184.60484 
L 105.050125 187.505266 
L 105.273437 187.505266 
L 105.496748 189.205426 
L 105.72006 184.108466 
L 105.943372 182.408306 
L 106.166683 182.408306 
L 106.389995 187.505266 
L 106.613307 185.805106 
L 106.836618 179.50436 
L 107.05993 182.408306 
L 107.283242 177.307826 
L 107.506553 195.009799 
L 107.729865 176.807933 
L 108.176488 191.609479 
L 108.3998 186.508999 
L 108.623112 194.564222 
L 108.846423 181.908413 
L 109.069735 181.908413 
L 109.293047 189.909319 
L 109.516358 172.207346 
L 109.73967 168.807026 
L 109.962981 170.507186 
L 110.186293 173.907506 
L 110.409605 167.106866 
L 110.632916 172.207346 
L 110.856228 168.807026 
L 111.07954 170.007293 
L 111.302851 166.606973 
L 111.526163 164.906813 
L 111.749475 160.306226 
L 111.972786 162.006386 
L 112.41941 170.007293 
L 112.866033 158.606066 
L 113.089345 160.306226 
L 113.312656 168.307133 
L 113.535968 171.707453 
L 113.75928 163.706546 
L 113.982591 165.406706 
L 114.205903 165.406706 
L 114.429215 168.807026 
L 114.652526 167.106866 
L 114.875838 166.606973 
L 115.322461 163.706546 
L 115.545773 154.00548 
L 115.769085 154.00548 
L 116.215708 160.306226 
L 116.43902 162.006386 
L 116.662331 171.707453 
L 116.885643 176.308039 
L 117.332266 176.308039 
L 117.555578 171.707453 
L 117.778889 176.308039 
L 118.225513 179.708359 
L 118.448824 174.607879 
L 118.672136 184.363262 
L 118.895448 178.008199 
L 119.342071 178.008199 
L 119.565383 184.363262 
L 119.788694 179.708359 
L 120.012006 181.408519 
L 120.235318 186.508999 
L 120.458629 178.508093 
L 120.681941 180.208253 
L 120.905253 170.507186 
L 121.128564 178.508093 
L 121.351876 178.508093 
L 121.575188 176.807933 
L 122.245123 176.807933 
L 122.468434 178.508093 
L 123.138369 178.508093 
L 123.584992 168.307133 
L 123.808304 171.707453 
L 124.031616 171.707453 
L 124.254927 170.007293 
L 124.701551 170.007293 
L 124.924862 171.707453 
L 125.148174 171.707453 
L 125.371486 173.407613 
L 125.594797 170.007293 
L 125.818109 170.007293 
L 126.041421 171.707453 
L 126.264732 170.007293 
L 126.934667 170.007293 
L 127.381291 166.606973 
L 127.827914 170.007293 
L 128.051226 170.007293 
L 128.274537 166.606973 
L 128.497849 166.606973 
L 129.167784 161.506493 
L 129.391096 161.506493 
L 129.614407 166.606973 
L 130.284342 166.606973 
L 130.507654 159.806333 
L 130.730965 160.306226 
L 130.954277 160.306226 
L 131.177589 152.30532 
L 131.4009 156.905906 
L 131.624212 153.505586 
L 131.847524 159.806333 
L 132.070835 159.806333 
L 132.294147 158.106173 
L 132.74077 145.50468 
L 133.187394 158.106173 
L 133.410705 150.105266 
L 133.634017 150.105266 
L 133.857329 142.604254 
L 134.08064 146.004574 
L 134.303952 144.304414 
L 134.527264 150.60516 
L 134.750575 150.60516 
L 134.973887 148.905 
L 135.197199 152.30532 
L 135.42051 144.304414 
L 135.643822 142.604254 
L 135.867134 144.304414 
L 136.090445 142.604254 
L 136.313757 148.905 
L 136.537069 148.905 
L 136.76038 156.905906 
L 136.983692 147.20484 
L 137.207004 148.905 
L 137.430315 158.606066 
L 137.653627 158.606066 
L 137.876938 156.905906 
L 138.10025 162.006386 
L 138.323562 157.905694 
L 138.546873 162.50628 
L 138.770185 154.505374 
L 139.216808 157.905694 
L 139.44012 154.505374 
L 139.663432 141.403987 
L 139.886743 141.403987 
L 140.110055 143.104147 
L 140.333367 143.104147 
L 140.556678 149.404894 
L 140.77999 143.104147 
L 141.003302 146.504467 
L 141.226613 156.205534 
L 141.449925 156.705427 
L 141.673237 149.904787 
L 141.896548 148.704521 
L 142.11986 153.805001 
L 142.343172 142.849351 
L 142.566483 139.449031 
L 142.789795 145.749778 
L 143.013107 145.749778 
L 143.236418 137.748871 
L 143.45973 144.049618 
L 143.683042 155.505161 
L 143.906353 149.150098 
L 144.129665 150.850258 
L 144.352976 157.647378 
L 144.576288 155.947218 
L 145.022911 175.403667 
L 145.246223 164.002441 
L 145.469535 165.206227 
L 145.916158 192.405267 
L 146.13947 187.304787 
L 146.362781 187.304787 
L 146.586093 182.704201 
L 146.809405 182.704201 
L 147.256028 201.106546 
L 147.47934 198.20612 
L 147.702651 199.406386 
L 147.925963 191.40548 
L 148.149275 191.40548 
L 148.372586 201.106546 
L 148.595898 197.706226 
L 148.81921 189.70532 
L 149.042521 190.905586 
L 149.265833 189.205426 
L 149.489145 192.105853 
L 149.935768 184.60484 
L 150.15908 181.20452 
L 150.382391 184.60484 
L 150.605703 184.60484 
L 150.829015 190.905586 
L 151.052326 192.605746 
L 151.275638 197.206333 
L 151.722261 182.90468 
L 151.945573 189.70532 
L 152.168884 186.305 
L 152.392196 189.205426 
L 152.615508 187.505266 
L 153.062131 182.90468 
L 153.285443 174.903774 
L 153.508754 174.903774 
L 153.955378 164.706334 
L 154.178689 168.106654 
L 154.402001 173.203614 
L 154.625313 174.903774 
L 154.848624 171.506974 
L 155.071936 174.903774 
L 155.295248 169.548498 
L 155.518559 177.603721 
L 155.741871 177.603721 
L 156.188494 182.204307 
L 156.411806 172.503241 
L 156.635118 172.503241 
L 156.858429 175.403667 
L 157.081741 166.902867 
L 157.305053 173.203614 
L 157.528364 155.005267 
L 157.751676 153.305107 
L 157.974987 158.405587 
L 158.198299 155.005267 
L 158.421611 166.902867 
L 158.644922 160.105747 
L 158.868234 169.806814 
L 159.091546 172.70724 
L 159.314857 167.60676 
L 159.538169 170.507186 
L 159.761481 167.106866 
L 159.984792 173.907506 
L 160.208104 172.70724 
L 160.431416 172.70724 
L 160.654727 165.9066 
L 161.101351 173.907506 
L 161.324662 172.207346 
L 161.547974 178.508093 
L 161.771286 173.907506 
L 161.994597 173.907506 
L 162.217909 167.60676 
L 162.441221 179.007986 
L 162.664532 182.408306 
L 162.887844 184.108466 
L 163.111156 187.505266 
L 163.334467 181.20452 
L 163.557779 181.20452 
L 163.781091 188.00516 
L 164.004402 187.505266 
L 164.227714 181.704414 
L 164.451026 186.305 
L 164.674337 188.00516 
L 164.897649 190.905586 
L 165.12096 186.305 
L 165.344272 200.606653 
L 165.567584 192.605746 
L 165.790895 194.305906 
L 166.014207 189.205426 
L 166.237519 192.605746 
L 166.46083 201.806919 
L 166.907454 189.909319 
L 167.130765 193.309639 
L 167.354077 187.505266 
L 167.577389 185.805106 
L 167.8007 192.605746 
L 168.024012 185.805106 
L 168.470635 185.805106 
L 168.917259 193.806013 
L 169.363882 187.008893 
L 169.587194 189.909319 
L 169.810505 190.409213 
L 170.033817 192.105853 
L 170.257129 184.108466 
L 170.48044 190.409213 
L 170.703752 190.905586 
L 171.150375 199.664702 
L 171.373687 209.365768 
L 171.596998 203.065022 
L 171.82031 201.364862 
L 172.043622 196.709959 
L 172.266933 209.365768 
L 172.490245 201.364862 
L 172.713557 205.965448 
L 172.936868 199.664702 
L 173.16018 233.864861 
L 173.383492 219.563208 
L 173.606803 221.263368 
L 173.830115 189.909319 
L 174.50005 197.964542 
L 174.723362 199.164808 
L 174.946673 191.163902 
L 175.169985 204.965661 
L 175.616608 191.364381 
L 175.83992 196.464861 
L 176.063232 190.164115 
L 176.286543 190.164115 
L 176.509855 193.564435 
L 176.733167 188.963848 
L 176.956478 192.364168 
L 177.17979 200.864968 
L 177.403102 195.764488 
L 177.626413 203.765395 
L 177.849725 199.164808 
L 178.073037 218.362942 
L 178.296348 206.907399 
L 178.51966 213.262462 
L 178.742971 214.462728 
L 178.966283 206.461822 
L 179.189595 211.062408 
L 179.412906 204.761662 
L 179.636218 204.761662 
L 179.85953 206.461822 
L 180.082841 193.806013 
L 180.306153 205.707133 
L 180.529465 189.70532 
L 180.752776 193.10564 
L 180.976088 204.506866 
L 181.1994 204.506866 
L 181.422711 192.605746 
L 181.646023 201.106546 
L 181.869335 198.906493 
L 182.092646 212.007879 
L 182.315958 205.707133 
L 182.53927 210.307719 
L 182.762581 204.006973 
L 182.985893 214.207933 
L 183.432516 223.908999 
L 183.655828 221.763262 
L 183.87914 213.708039 
L 184.102451 221.763262 
L 184.325763 213.708039 
L 184.549075 217.108359 
L 184.995698 228.563902 
L 185.21901 222.208839 
L 185.442321 222.208839 
L 185.665633 223.463422 
L 185.888944 223.463422 
L 186.112256 229.764168 
L 186.335568 223.463422 
L 186.558879 223.463422 
L 187.452126 211.062408 
L 187.675438 213.708039 
L 187.898749 221.263368 
L 188.122061 208.161982 
L 188.345373 216.162888 
L 188.568684 206.461822 
L 188.791996 206.461822 
L 189.015308 216.162888 
L 189.238619 219.063315 
L 189.461931 219.063315 
L 189.685243 217.863048 
L 189.908554 202.565128 
L 190.355178 194.564222 
L 190.578489 191.163902 
L 190.801801 195.764488 
L 191.025113 204.265288 
L 191.471736 197.964542 
L 191.695048 199.664702 
L 191.918359 196.264382 
L 192.141671 202.565128 
L 192.364982 199.664702 
L 192.588294 203.065022 
L 192.811606 196.709959 
L 193.258229 200.106759 
L 193.481541 200.106759 
L 193.704852 196.709959 
L 193.928164 229.509373 
L 194.151476 216.90788 
L 194.374787 222.708733 
L 194.598099 204.006973 
L 194.821411 213.708039 
L 195.044722 207.407293 
L 195.491346 227.309319 
L 195.714657 234.609853 
L 195.937969 229.509373 
L 196.161281 236.310013 
L 196.384592 223.70852 
L 196.607904 234.609853 
L 196.831216 235.109746 
L 197.054527 248.211133 
L 197.501151 220.3082 
L 197.724462 216.90788 
L 197.947774 215.707614 
L 198.171086 212.307294 
L 198.394397 220.3082 
L 198.617709 212.307294 
L 198.841021 222.00836 
L 199.064332 218.60804 
L 199.287644 220.3082 
L 199.510955 236.809906 
L 200.18089 220.3082 
L 200.404202 228.809 
L 200.627514 222.00836 
L 200.850825 226.608946 
L 201.074137 234.609853 
L 201.297449 231.709426 
L 201.52076 231.709426 
L 201.744072 238.010173 
L 201.967384 233.409586 
L 202.190695 244.810813 
L 202.414007 238.510066 
L 202.637319 228.809 
L 202.86063 225.40868 
L 203.083942 217.407774 
L 203.307254 220.808094 
L 203.530565 233.409586 
L 203.753877 227.10884 
L 203.977189 231.709426 
L 204.2005 227.10884 
L 204.423812 235.109746 
L 204.647124 233.409586 
L 204.870435 230.50916 
L 205.317059 235.109746 
L 205.763682 245.310706 
L 205.986993 233.90948 
L 206.210305 235.60964 
L 206.433617 235.60964 
L 206.656928 232.20932 
L 206.88024 235.60964 
L 207.103552 237.3098 
L 207.326863 232.709214 
L 207.550175 220.107721 
L 207.996798 233.205587 
L 208.22011 220.549778 
L 208.443422 226.904841 
L 208.666733 228.605001 
L 208.890045 220.549778 
L 209.113357 227.350418 
L 209.336668 219.849405 
L 209.55998 230.750738 
L 209.783292 230.750738 
L 210.006603 237.105801 
L 210.229915 238.805961 
L 210.453227 232.450898 
L 210.89985 243.406547 
L 211.123162 241.706387 
L 211.569785 230.305161 
L 211.793097 228.605001 
L 212.016408 238.306067 
L 212.463032 223.950098 
L 212.686343 234.905747 
L 212.909655 228.605001 
L 213.356278 235.405641 
L 213.57959 223.950098 
L 213.802901 235.405641 
L 214.026213 227.350418 
L 214.472836 237.105801 
L 214.696148 232.450898 
L 214.91946 230.750738 
L 215.142771 232.450898 
L 215.366083 235.405641 
L 215.589395 229.050578 
L 215.812706 230.750738 
L 216.036018 230.305161 
L 216.25933 228.605001 
L 216.482641 222.249938 
L 216.705953 222.249938 
L 216.929265 232.005321 
L 217.152576 230.305161 
L 217.375888 232.005321 
L 217.5992 232.005321 
L 218.045823 219.349511 
L 218.269135 230.750738 
L 218.492446 234.151058 
L 218.715758 230.750738 
L 218.93907 235.851218 
L 219.162381 229.550471 
L 219.385693 234.151058 
L 219.832316 251.907347 
L 220.055628 253.107614 
L 220.278939 249.707294 
L 220.502251 240.006227 
L 220.725563 249.707294 
L 220.948874 246.306974 
L 221.172186 256.00804 
L 221.395498 246.306974 
L 221.618809 262.308786 
L 221.842121 262.308786 
L 222.065433 264.008946 
L 222.288744 256.00804 
L 222.512056 256.00804 
L 222.735368 246.306974 
L 222.958679 244.606814 
L 223.181991 240.006227 
L 223.405303 248.007134 
L 223.628614 249.707294 
L 223.851926 249.707294 
L 224.298549 235.405641 
L 224.521861 241.706387 
L 224.745173 237.105801 
L 224.968484 235.405641 
L 225.191796 241.706387 
L 225.638419 230.750738 
L 225.861731 232.450898 
L 226.085043 237.105801 
L 226.308354 237.105801 
L 226.531666 235.405641 
L 226.754977 235.405641 
L 226.978289 233.705481 
L 227.201601 237.105801 
L 227.424912 237.105801 
L 227.648224 238.805961 
L 227.871536 233.705481 
L 228.094847 238.306067 
L 228.541471 234.905747 
L 228.764782 226.904841 
L 228.988094 223.504521 
L 229.211406 233.205587 
L 229.434717 225.204681 
L 229.658029 225.204681 
L 229.881341 223.504521 
L 230.104652 220.549778 
L 230.327964 237.105801 
L 230.551276 233.705481 
L 230.774587 235.405641 
L 230.997899 235.405641 
L 231.221211 240.506121 
L 231.444522 238.805961 
L 231.667834 238.805961 
L 231.891146 236.605907 
L 232.114457 238.805961 
L 232.337769 219.849405 
L 232.561081 218.649139 
L 232.784392 220.349299 
L 233.007704 202.847805 
L 233.231016 228.350205 
L 233.454327 202.847805 
L 233.677639 230.050365 
L 233.90095 201.151165 
L 234.124262 234.151058 
L 234.347574 233.450685 
L 234.570885 233.450685 
L 234.794197 226.650045 
L 235.017509 226.650045 
L 235.24082 230.305161 
L 235.464132 230.305161 
L 235.687444 223.950098 
L 235.910755 230.305161 
L 236.134067 200.151378 
L 236.357379 196.751058 
L 236.58069 208.206601 
L 236.804002 201.851538 
L 237.027314 207.948285 
L 237.250625 203.347699 
L 237.473937 203.347699 
L 237.697249 183.449192 
L 237.92056 177.148446 
L 238.143872 166.947486 
L 238.367184 165.247326 
L 238.590495 166.447592 
L 239.037119 153.8461 
L 239.26043 153.8461 
L 239.483742 160.146846 
L 239.707054 160.64674 
L 239.930365 165.247326 
L 240.376988 154.345993 
L 240.6003 166.947486 
L 241.046923 166.947486 
L 241.493547 176.148659 
L 241.716858 174.448499 
L 241.94017 179.049085 
L 242.163482 171.048179 
L 242.386793 174.448499 
L 242.610105 180.749245 
L 242.833417 181.249139 
L 243.056728 188.049779 
L 243.28004 205.047859 
L 243.503352 208.448179 
L 243.726663 208.448179 
L 243.949975 205.047859 
L 244.396598 193.150259 
L 244.61991 208.448179 
L 244.843222 203.347699 
L 245.066533 188.549672 
L 245.289845 197.046952 
L 245.513157 192.94626 
L 245.736468 198.04674 
L 245.95978 192.94626 
L 246.183092 215.748712 
L 246.853027 194.64642 
L 247.076338 183.69077 
L 247.746273 183.69077 
L 248.192896 188.345673 
L 248.416208 176.89013 
L 248.862831 189.54594 
L 249.086143 188.345673 
L 249.309455 184.945353 
L 249.532766 175.18997 
L 250.202701 194.146526 
L 250.426013 194.146526 
L 250.649325 192.446366 
L 250.872636 189.54594 
L 251.095948 183.245193 
L 251.31926 192.94626 
L 251.542571 186.645513 
L 251.765883 187.84578 
L 251.989195 192.446366 
L 252.212506 192.446366 
L 252.435818 191.946472 
L 252.65913 191.946472 
L 252.882441 198.247219 
L 253.105753 201.151165 
L 253.329065 198.247219 
L 253.552376 199.947379 
L 253.775688 198.247219 
L 254.222311 198.247219 
L 254.445623 191.946472 
L 254.668934 198.247219 
L 254.892246 191.946472 
L 255.115558 199.947379 
L 255.338869 191.946472 
L 255.562181 191.946472 
L 255.785493 188.549672 
L 256.008804 188.549672 
L 256.232116 190.246312 
L 256.455428 183.945566 
L 256.678739 190.246312 
L 257.125363 190.246312 
L 257.348674 191.946472 
L 257.571986 179.34498 
L 257.795298 183.945566 
L 258.018609 185.645726 
L 258.241921 172.54786 
L 258.465233 166.247113 
L 258.688544 177.148446 
L 258.911856 172.54786 
L 259.135168 178.848606 
L 259.581791 178.848606 
L 260.028414 184.649459 
L 260.251726 181.249139 
L 260.698349 181.249139 
L 260.921661 182.949299 
L 261.144972 188.049779 
L 261.591596 172.047966 
L 261.814907 184.649459 
L 262.261531 197.250951 
L 262.484842 189.250045 
L 262.708154 190.950205 
L 262.931466 189.250045 
L 263.154777 186.349619 
L 263.378089 181.749032 
L 263.601401 186.849512 
L 263.824712 185.149352 
L 264.048024 207.451911 
L 264.271336 207.451911 
L 264.494647 209.148551 
L 264.717959 223.053647 
L 264.941271 224.753807 
L 265.164582 224.753807 
L 265.387894 210.848711 
L 265.611206 219.501419 
L 265.834517 216.101099 
L 266.057829 224.753807 
L 266.504452 210.848711 
L 266.727764 226.453967 
L 266.951076 219.501419 
L 267.174387 217.801259 
L 267.397699 217.801259 
L 267.844322 281.911398 
L 268.067634 281.75949 
L 268.290945 292.112358 
L 268.737569 263.06125 
L 268.96088 254.462859 
L 269.184192 252.762699 
L 269.630815 276.966346 
L 270.077439 263.213158 
L 270.30075 266.765386 
L 270.524062 263.365066 
L 270.747374 256.412518 
L 270.970685 254.712358 
L 271.193997 263.462657 
L 271.417309 263.365066 
L 271.64062 275.667592 
L 271.863932 270.567112 
L 272.087244 270.567112 
L 272.533867 256.965832 
L 272.757179 255.265672 
L 272.98049 262.066312 
L 273.203802 258.665992 
L 273.427114 262.066312 
L 273.650425 258.665992 
L 273.873737 253.413604 
L 274.097049 272.267272 
L 274.32036 279.067912 
L 274.766983 260.214244 
L 274.990295 263.766472 
L 275.213607 250.165192 
L 275.436918 270.968518 
L 275.66023 250.418211 
L 275.883542 269.521377 
L 276.330165 247.017891 
L 276.776788 250.418211 
L 277.223412 267.568198 
L 277.446723 265.868038 
L 277.670035 265.868038 
L 277.893347 259.070918 
L 278.116658 265.969149 
L 278.33997 279.874244 
L 278.563282 272.921697 
L 278.786593 288.371524 
L 279.233217 274.466429 
L 279.456528 274.466429 
L 279.67984 284.819297 
L 280.349775 264.015971 
L 280.796398 276.166589 
L 281.01971 274.466429 
L 281.243022 284.819297 
L 281.466333 272.668678 
L 281.689645 267.416291 
L 281.912956 276.068998 
L 282.136268 276.166589 
L 282.35958 274.368838 
L 282.806203 288.219617 
L 283.029515 284.819297 
L 283.252826 284.819297 
L 283.476138 279.566909 
L 283.922761 295.020257 
L 284.146073 281.169478 
L 284.369385 284.569798 
L 284.816008 274.065023 
L 285.485943 274.065023 
L 285.709255 277.465343 
L 285.932566 270.567112 
L 286.155878 270.567112 
L 286.37919 279.067912 
L 286.602501 275.667592 
L 286.825813 277.367752 
L 287.272436 277.367752 
L 287.495748 284.265983 
L 287.71906 277.367752 
L 288.165683 277.367752 
L 288.388994 266.862977 
L 288.612306 266.862977 
L 288.835618 284.168392 
L 289.058929 291.066623 
L 289.282241 277.215844 
L 289.505553 284.168392 
L 289.728864 279.067912 
L 290.175488 287.416804 
L 290.398799 297.769672 
L 290.622111 296.069512 
L 290.845423 304.667903 
L 291.068734 297.769672 
L 291.292046 299.567423 
L 291.515358 299.567423 
L 291.738669 304.819811 
L 292.185293 289.268872 
L 292.408604 289.268872 
L 292.631916 287.568712 
L 292.855228 297.867263 
L 293.301851 285.716644 
L 293.525163 287.264897 
L 293.748474 290.969032 
L 293.971786 290.969032 
L 294.195098 297.867263 
L 294.418409 287.568712 
L 294.641721 294.466943 
L 294.865033 291.066623 
L 295.311656 306.671878 
L 295.534967 303.119651 
L 295.758279 304.819811 
L 295.981591 310.072198 
L 296.204902 304.819811 
L 296.428214 310.072198 
L 296.651526 310.072198 
L 296.874837 308.372038 
L 297.098149 287.568712 
L 297.321461 280.768072 
L 297.544772 280.865663 
L 297.768084 286.118051 
L 297.991396 270.664703 
L 298.661331 291.066623 
L 298.884642 272.115364 
L 299.331266 291.066623 
L 299.554577 282.565823 
L 300.224512 282.565823 
L 300.447824 274.065023 
L 300.671136 274.065023 
L 300.894447 270.664703 
L 301.117759 270.664703 
L 301.341071 267.264383 
L 301.564382 268.964543 
L 302.011006 268.964543 
L 302.234317 270.664703 
L 302.457629 279.067912 
L 302.904252 267.014884 
L 303.127564 271.963457 
L 303.350875 266.765386 
L 303.574187 268.563137 
L 303.797499 273.663617 
L 304.02081 273.663617 
L 304.244122 251.312038 
L 304.467434 244.511398 
L 304.690745 256.564426 
L 305.137369 259.964746 
L 305.36068 263.365066 
L 306.030615 242.561739 
L 306.253927 270.013798 
L 306.477239 271.865866 
L 306.70055 280.464257 
L 306.923862 273.566026 
L 307.147174 273.566026 
L 307.370485 280.464257 
L 307.593797 280.464257 
L 307.817109 284.016484 
L 308.04042 285.716644 
L 308.487044 280.464257 
L 308.710355 270.165706 
L 308.933667 277.063937 
L 309.156978 270.165706 
L 309.38029 268.465546 
L 309.603602 268.465546 
L 309.826913 275.363777 
L 310.273537 263.213158 
L 310.496848 271.865866 
L 310.72016 264.913318 
L 310.943472 270.165706 
L 311.166783 271.865866 
L 311.613407 263.213158 
L 311.836718 270.165706 
L 312.283342 266.765386 
L 312.506653 268.465546 
L 312.729965 277.063937 
L 313.3999 277.063937 
L 313.623212 271.865866 
L 313.846523 278.764097 
L 314.069835 280.464257 
L 314.293147 280.464257 
L 314.516458 273.566026 
L 314.73977 276.966346 
L 314.963082 270.013798 
L 315.186393 270.013798 
L 315.409705 283.864577 
L 315.633017 273.414118 
L 315.856328 283.766986 
L 316.302951 283.766986 
L 316.526263 276.814438 
L 316.749575 275.114278 
L 316.972886 271.713958 
L 317.196198 270.013798 
L 317.41951 276.966346 
L 317.642821 275.266186 
L 317.866133 268.313638 
L 318.089445 275.266186 
L 318.312756 270.013798 
L 318.536068 273.566026 
L 318.75938 275.266186 
L 318.982691 273.566026 
L 319.206003 266.613478 
L 319.652626 266.613478 
L 319.875938 265.065226 
L 320.09925 273.663617 
L 320.322561 266.765386 
L 320.769185 273.663617 
L 320.992496 273.663617 
L 321.215808 308.372038 
L 321.43912 301.419491 
L 321.662431 308.220131 
L 321.885743 304.667903 
L 322.332366 304.667903 
L 322.555678 308.220131 
L 323.225613 308.220131 
L 323.448924 315.172678 
L 323.672236 318.572998 
L 323.895548 304.667903 
L 324.342171 311.620451 
L 324.788794 325.471229 
L 325.012106 318.572998 
L 325.458729 318.670589 
L 325.682041 315.270269 
L 325.905353 287.666303 
L 326.351976 294.618851 
L 326.575288 301.571398 
L 326.798599 294.466943 
L 327.021911 303.119651 
L 327.245223 303.119651 
L 327.468534 308.372038 
L 327.691846 301.419491 
L 327.915158 308.372038 
L 328.138469 310.169789 
L 328.585093 297.867263 
L 329.031716 280.616164 
L 329.255028 285.716644 
L 329.478339 285.716644 
L 329.701651 294.369352 
L 329.924962 295.917604 
L 330.148274 264.356484 
L 330.371586 248.957453 
L 330.594897 248.957453 
L 330.818209 252.357773 
L 331.041521 248.957453 
L 331.264832 248.957453 
L 331.711456 255.758093 
L 331.934767 250.657613 
L 332.158079 259.158413 
L 332.381391 260.858573 
L 332.604702 259.158413 
L 332.828014 262.808232 
L 333.051326 257.306345 
L 333.497949 264.258893 
L 333.721261 278.109672 
L 334.167884 262.558733 
L 334.391196 262.558733 
L 334.614507 264.258893 
L 334.837819 255.606185 
L 335.061131 262.558733 
L 335.284442 259.006505 
L 335.507754 262.558733 
L 335.731066 247.105385 
L 335.954377 248.805545 
L 336.401001 262.656324 
L 336.624312 260.956164 
L 336.847624 264.508392 
L 337.070935 255.855684 
L 337.294247 257.555844 
L 337.517559 257.555844 
L 337.74087 264.356484 
L 337.964182 257.458253 
L 338.187494 234.954767 
L 338.410805 248.653638 
L 338.634117 241.852998 
L 338.857429 250.505705 
L 339.08074 254.057933 
L 339.304052 255.758093 
L 339.527364 255.758093 
L 339.750675 257.458253 
L 339.973987 257.458253 
L 340.197299 262.656324 
L 340.42061 260.956164 
L 340.643922 260.956164 
L 340.867234 247.105385 
L 341.090545 254.057933 
L 341.313857 245.405225 
L 341.537169 245.405225 
L 341.76048 259.256004 
L 342.430415 259.256004 
L 342.653727 260.956164 
L 342.877039 252.357773 
L 343.10035 259.256004 
L 343.323662 259.256004 
L 343.546973 260.956164 
L 343.770285 260.956164 
L 343.993597 267.908712 
L 344.663532 242.160333 
L 344.886843 238.760013 
L 345.333467 250.910632 
L 345.556778 242.257924 
L 346.003402 249.210472 
L 346.226713 242.257924 
L 346.450025 245.658244 
L 346.673337 243.958084 
L 347.343272 259.563339 
L 347.566583 247.510312 
L 347.789895 228.559053 
L 348.236518 237.157444 
L 348.683142 237.157444 
L 348.906453 232.056964 
L 349.129765 240.709672 
L 349.353077 232.056964 
L 349.576388 239.009512 
L 350.023012 221.758413 
L 350.246323 221.856004 
L 350.469635 215.055364 
L 350.916258 227.108392 
L 351.13957 216.755524 
L 351.362881 225.408232 
L 351.586193 228.808552 
L 351.809505 218.455684 
L 352.032816 218.455684 
L 352.256128 230.660619 
L 352.47944 223.708072 
L 352.702751 225.408232 
L 352.926063 232.360779 
L 353.149375 221.856004 
L 353.372686 223.556164 
L 353.81931 220.058253 
L 354.042621 211.405545 
L 354.265933 218.358093 
L 354.489245 211.405545 
L 354.712556 216.657933 
L 354.935868 209.705385 
L 355.15918 213.105705 
L 355.605803 209.705385 
L 355.829115 223.556164 
L 356.275738 192.454287 
L 356.49905 187.201899 
L 356.722361 172.457293 
L 356.945673 170.605225 
L 357.168984 225.560139 
L 357.392296 218.607592 
L 357.838919 218.607592 
L 358.508854 197.804265 
L 358.732166 204.756813 
L 358.955478 190.851718 
L 359.178789 159.749841 
L 359.402101 170.200299 
L 360.518659 170.200299 
L 360.741971 175.452687 
L 360.965283 184.051078 
L 361.188594 178.853007 
L 361.411906 170.200299 
L 361.635218 156.349521 
L 361.858529 170.200299 
L 362.081841 170.200299 
L 362.305153 163.247751 
L 362.528464 175.452687 
L 362.751776 178.853007 
L 362.975088 171.900459 
L 363.198399 173.600619 
L 363.421711 183.953487 
L 363.645023 189.053967 
L 364.091646 177.000939 
L 364.314957 180.401259 
L 364.538269 180.401259 
L 364.761581 187.353807 
L 364.984892 171.900459 
L 365.208204 164.947911 
L 365.431516 170.048391 
L 365.654827 171.748551 
L 365.878139 175.148871 
L 366.101451 176.849031 
L 366.324762 176.849031 
L 366.548074 187.049991 
L 366.994697 187.049991 
L 367.441321 190.450311 
L 367.664632 187.049991 
L 367.887944 198.698093 
L 368.334567 245.658244 
L 368.557879 228.559053 
L 368.781191 228.559053 
L 369.004502 235.457284 
L 369.227814 225.158733 
L 369.451126 249.362379 
L 369.674437 245.810152 
L 369.897749 256.163019 
L 370.121061 252.610792 
L 370.344372 252.610792 
L 370.567684 256.163019 
L 370.790995 252.762699 
L 371.014307 242.409832 
L 371.237619 240.709672 
L 371.684242 254.56045 
L 371.907554 249.362379 
L 372.130865 252.86029 
L 372.354177 249.362379 
L 372.577489 242.409832 
L 372.8008 249.362379 
L 373.024112 240.709672 
L 373.470735 256.26061 
L 373.694047 249.362379 
L 374.810605 249.362379 
L 375.033917 244.109992 
L 375.703852 259.66093 
L 375.927164 259.563339 
L 376.150475 268.16173 
L 376.373787 268.16173 
L 376.597099 269.86189 
L 376.82041 273.414118 
L 377.043722 304.570312 
L 377.267034 297.617764 
L 377.490345 285.564737 
L 377.713657 282.164417 
L 377.936968 294.369352 
L 378.16028 294.369352 
L 378.383592 287.416804 
L 378.606903 284.016484 
L 378.830215 284.016484 
L 379.053527 277.063937 
L 379.276838 284.016484 
L 379.50015 282.316324 
L 379.723462 284.168392 
L 379.946773 280.616164 
L 380.393397 287.568712 
L 380.84002 298.019171 
L 381.063332 291.066623 
L 381.509955 237.710758 
L 381.733267 232.610278 
L 381.956578 248.161217 
L 382.17989 248.161217 
L 382.403202 254.864266 
L 382.626513 251.312038 
L 382.849825 254.712358 
L 383.073137 283.766986 
L 383.296448 283.766986 
L 383.51976 288.863946 
L 383.743072 262.963659 
L 383.966383 269.86189 
L 384.413007 256.011112 
L 384.636318 262.963659 
L 384.85963 262.963659 
L 385.082941 257.96077 
L 385.306253 259.66093 
L 385.529565 249.362379 
L 385.752876 256.26061 
L 385.976188 245.810152 
L 386.1995 252.762699 
L 386.422811 251.062539 
L 386.646123 245.810152 
L 386.869435 231.959373 
L 387.092746 231.959373 
L 387.316058 235.359693 
L 387.53937 243.958084 
L 387.985993 233.757124 
L 388.209305 232.208872 
L 388.432616 232.208872 
L 388.655928 225.408232 
L 388.87924 235.761099 
L 389.102551 235.761099 
L 389.325863 232.208872 
L 389.549175 239.161419 
L 389.772486 239.161419 
L 389.995798 237.461259 
L 390.442421 237.461259 
L 390.665733 228.808552 
L 391.112356 244.35949 
L 391.335668 245.962059 
L 391.558979 249.362379 
L 391.782291 249.362379 
L 392.005603 252.762699 
L 392.228914 273.566026 
L 392.452226 271.865866 
L 392.675538 266.765386 
L 392.898849 249.45997 
L 393.122161 259.964746 
L 393.568784 256.564426 
L 394.015408 237.55885 
L 394.238719 242.65933 
L 394.462031 230.660619 
L 394.685343 230.660619 
L 394.908654 232.360779 
L 395.131966 239.25901 
L 395.355278 226.555078 
L 395.578589 228.407145 
L 396.918459 228.407145 
L 397.141771 216.256527 
L 397.365083 214.653958 
L 397.588394 200.955087 
L 397.811706 194.154447 
L 398.035018 197.652358 
L 398.258329 199.352518 
L 398.481641 204.604905 
L 398.704952 201.204585 
L 398.928264 213.105705 
L 399.151576 178.549191 
L 399.374887 204.452998 
L 399.598199 204.452998 
L 399.821511 211.405545 
L 400.044822 197.554767 
L 400.491446 194.252038 
L 400.714757 194.252038 
L 400.938069 222.007912 
L 401.161381 225.408232 
L 401.384692 225.408232 
L 401.608004 216.755524 
L 401.831316 215.055364 
L 402.054627 232.360779 
L 402.277939 220.155844 
L 402.501251 221.856004 
L 402.724562 221.856004 
L 402.947874 220.155844 
L 403.394497 220.155844 
L 403.617809 221.856004 
L 403.841121 211.557453 
L 404.064432 208.157133 
L 404.511056 218.607592 
L 404.734367 218.607592 
L 404.957679 209.954884 
L 405.18099 209.954884 
L 405.404302 215.207272 
L 405.627614 204.854404 
L 405.850925 204.854404 
L 406.074237 216.907432 
L 406.297549 206.554564 
L 406.52086 213.507112 
L 406.744172 211.806952 
L 406.967484 203.154244 
L 407.190795 206.554564 
L 407.414107 201.454084 
L 407.637419 199.753924 
L 407.86073 199.753924 
L 408.084042 192.855693 
L 408.307354 192.855693 
L 408.530665 201.454084 
L 408.753977 201.454084 
L 408.977289 205.006312 
L 409.2006 201.454084 
L 409.423912 194.555853 
L 409.647224 184.202985 
L 410.093847 180.802665 
L 410.317159 180.802665 
L 410.54047 172.052367 
L 410.763782 173.850118 
L 410.987094 166.951887 
L 411.210405 170.352207 
L 411.657029 173.752527 
L 411.88034 173.752527 
L 412.103652 163.399659 
L 412.550275 154.649361 
L 412.996898 170.200299 
L 413.22021 165.099819 
L 413.443522 165.099819 
L 413.666833 170.352207 
L 413.890145 163.551567 
L 414.113457 173.850118 
L 414.56008 170.449798 
L 414.783392 159.999339 
L 415.230015 159.999339 
L 415.453327 166.951887 
L 415.676638 158.299179 
L 415.89995 184.354893 
L 416.123262 170.449798 
L 416.346573 170.449798 
L 416.569885 174.157453 
L 416.793197 174.157453 
L 417.016508 188.008232 
L 417.463132 181.055684 
L 417.686443 198.45869 
L 417.909755 191.560459 
L 418.133067 212.363786 
L 418.356378 212.363786 
L 418.57969 198.45869 
L 418.803002 198.45869 
L 419.026313 200.310758 
L 419.249625 178.05677 
L 419.472936 191.961866 
L 419.696248 185.161226 
L 419.91956 188.659137 
L 420.366183 188.659137 
L 420.589495 181.760906 
L 420.812806 185.161226 
L 421.036118 185.161226 
L 421.25943 178.208678 
L 421.482741 178.208678 
L 421.706053 171.25613 
L 421.929365 171.25613 
L 422.152676 178.208678 
L 422.5993 178.208678 
L 422.822611 171.158539 
L 423.269235 171.158539 
L 423.492546 178.05677 
L 423.715858 188.409638 
L 423.93917 191.809958 
L 424.162481 198.762506 
L 424.385793 198.762506 
L 424.609105 195.05837 
L 424.832416 172.706792 
L 425.055728 164.054084 
L 425.502351 188.25773 
L 425.725663 181.359499 
L 426.172286 188.160139 
L 426.395598 176.107112 
L 426.842221 176.107112 
L 427.065533 169.154564 
L 427.288844 174.406952 
L 427.512156 171.006632 
L 427.735468 177.959179 
L 428.628714 177.959179 
L 428.852026 171.006632 
L 429.075338 171.006632 
L 429.521961 196.910438 
L 429.745273 189.95789 
L 429.968584 189.95789 
L 430.191896 196.910438 
L 430.415208 191.65805 
L 430.861831 191.65805 
L 431.085143 188.160139 
L 431.308454 186.459979 
L 431.531766 186.459979 
L 431.978389 183.059659 
L 432.201701 179.659339 
L 432.425013 172.706792 
L 432.648324 184.85741 
L 432.871636 176.259019 
L 433.094947 176.259019 
L 433.318259 169.306472 
L 433.541571 177.959179 
L 433.988194 177.959179 
L 434.211506 179.659339 
L 434.434817 176.107112 
L 434.658129 183.059659 
L 434.881441 186.459979 
L 435.328064 183.059659 
L 435.774687 150.051398 
L 435.997999 150.051398 
L 436.221311 144.853327 
L 436.444622 153.451718 
L 436.667934 155.151878 
L 436.891246 153.451718 
L 437.114557 163.804585 
L 437.337869 156.852038 
L 437.561181 175.550278 
L 437.784492 172.305385 
L 438.007804 163.652678 
L 438.231116 161.851407 
L 438.454427 163.551567 
L 438.677739 170.449798 
L 438.901051 167.052998 
L 439.124362 158.454607 
L 439.347674 165.352838 
L 439.570985 158.454607 
L 439.794297 158.552198 
L 440.017609 144.950918 
L 440.24092 151.903465 
L 440.464232 143.250758 
L 440.687544 151.903465 
L 440.910855 144.950918 
L 441.134167 150.051398 
L 441.357479 129.399979 
L 441.58079 131.100139 
L 441.804102 146.651078 
L 442.027414 139.752847 
L 442.250725 139.752847 
L 442.474037 134.652367 
L 442.697349 126.151567 
L 442.92066 126.151567 
L 443.143972 129.649478 
L 443.367284 155.553284 
L 443.813907 133.201705 
L 444.037219 141.854413 
L 444.26053 141.854413 
L 444.483842 136.602025 
L 444.707154 140.154253 
L 444.930465 127.949318 
L 445.377089 131.349638 
L 445.823712 143.250758 
L 446.047024 143.250758 
L 446.270335 148.351238 
L 446.493647 141.453007 
L 446.716958 141.453007 
L 446.94027 197.804265 
L 447.163582 170.605225 
L 447.386893 175.857613 
L 447.610205 170.605225 
L 448.056828 170.605225 
L 448.28014 163.652678 
L 448.503452 163.956493 
L 448.726763 184.759819 
L 448.950075 177.959179 
L 449.173387 174.558859 
L 449.396698 177.959179 
L 449.62001 174.558859 
L 449.843322 174.558859 
L 450.066633 167.606312 
L 450.513257 167.606312 
L 450.736568 153.853124 
L 450.95988 152.152964 
L 451.183192 158.953604 
L 451.406503 159.105512 
L 451.629815 164.357899 
L 451.853127 162.657739 
L 452.076438 164.357899 
L 452.29975 154.005032 
L 452.523062 154.005032 
L 452.746373 152.304872 
L 452.969685 154.156939 
L 453.192996 142.103912 
L 453.416308 150.756619 
L 453.862931 150.756619 
L 454.086243 152.456779 
L 454.309555 157.65485 
L 454.532866 157.65485 
L 454.97949 154.25453 
L 455.202801 147.356299 
L 455.426113 155.95469 
L 455.649425 147.356299 
L 455.872736 154.25453 
L 456.096048 154.25453 
L 456.31936 149.056459 
L 456.542671 150.756619 
L 456.989295 150.756619 
L 457.212606 149.056459 
L 457.435918 150.756619 
L 457.65923 150.756619 
L 457.882541 149.056459 
L 458.329165 149.056459 
L 458.552476 157.65485 
L 458.775788 149.056459 
L 458.9991 152.55437 
L 459.222411 145.656139 
L 459.669035 145.656139 
L 460.338969 164.759306 
L 460.562281 164.759306 
L 460.785593 156.106598 
L 461.008904 164.759306 
L 461.232216 164.759306 
L 461.455528 161.358986 
L 461.678839 164.759306 
L 461.902151 171.812964 
L 462.125463 161.460097 
L 462.348774 158.059777 
L 462.572086 168.412644 
L 462.795398 154.659457 
L 463.018709 151.259137 
L 463.688644 161.861503 
L 463.911956 144.610404 
L 464.135268 141.210084 
L 464.358579 130.857217 
L 464.581891 137.809764 
L 464.805203 136.109604 
L 465.028514 127.456897 
L 465.251826 127.456897 
L 465.475138 134.409444 
L 465.698449 132.709284 
L 465.921761 129.308964 
L 466.368384 139.509924 
L 466.591696 131.009124 
L 467.038319 134.409444 
L 467.261631 125.756737 
L 467.484942 132.709284 
L 467.708254 134.409444 
L 467.931566 125.756737 
L 468.154877 125.756737 
L 468.601501 139.661832 
L 468.824812 137.961672 
L 469.048124 137.961672 
L 469.271436 134.561352 
L 469.494747 148.412131 
L 469.941371 134.561352 
L 470.164682 141.459583 
L 470.387994 137.961672 
L 470.611306 144.859903 
L 470.834617 134.409444 
L 471.057929 155.212771 
L 471.281241 146.560063 
L 471.504552 158.764998 
L 471.727864 131.414051 
L 471.951176 131.414051 
L 472.174487 124.461503 
L 472.397799 124.360392 
L 472.621111 117.407844 
L 472.844422 117.407844 
L 473.067734 120.808164 
L 473.291046 131.009124 
L 473.737669 103.557066 
L 474.184292 96.759946 
L 474.630915 72.805798 
L 474.854227 72.805798 
L 475.30085 93.359626 
L 475.747474 108.910564 
L 475.970785 107.210404 
L 476.194097 107.210404 
L 476.417409 114.162952 
L 476.64072 115.863112 
L 477.087344 98.557697 
L 477.533967 112.462792 
L 477.757279 105.510244 
L 477.98059 103.810084 
L 478.203902 103.810084 
L 478.427214 84.706918 
L 478.650525 89.959306 
L 478.873837 89.959306 
L 479.097149 100.257857 
L 479.32046 96.857537 
L 479.543772 96.857537 
L 479.767084 98.557697 
L 479.990395 98.557697 
L 480.213707 102.109924 
L 480.66033 102.109924 
L 480.883642 100.409764 
L 481.106953 100.409764 
L 481.330265 95.309284 
L 481.553577 83.256257 
L 481.776888 93.609124 
L 482.0002 83.256257 
L 482.223512 86.808484 
L 482.446823 73.055297 
L 482.670135 86.960392 
L 482.893447 90.458303 
L 483.116758 92.060872 
L 483.34007 90.458303 
L 483.563382 107.861309 
L 483.786693 111.261629 
L 484.010005 100.963078 
L 484.233317 100.963078 
L 484.456628 109.561469 
L 484.67994 111.261629 
L 484.903252 104.363398 
L 485.126563 111.261629 
L 485.349875 111.164038 
L 485.573187 128.263229 
L 485.796498 130.267204 
L 486.01981 114.661949 
L 486.243122 130.267204 
L 486.466433 128.567044 
L 486.689745 109.463878 
L 486.913057 114.661949 
L 487.136368 107.763718 
L 487.35968 111.164038 
L 487.806303 111.261629 
L 488.029615 111.261629 
L 488.252926 112.961789 
L 488.476238 119.914337 
L 488.69955 112.961789 
L 488.922861 112.961789 
L 489.146173 106.063558 
L 489.369485 112.961789 
L 489.592796 106.063558 
L 489.816108 104.363398 
L 490.262731 118.214177 
L 490.486043 118.214177 
L 490.932666 104.460989 
L 491.155978 111.261629 
L 491.37929 106.063558 
L 491.602601 106.063558 
L 491.825913 100.963078 
L 492.049225 104.363398 
L 492.272536 104.363398 
L 492.495848 97.562758 
L 492.71916 94.162438 
L 492.942471 104.460989 
L 493.165783 60.162758 
L 493.389095 94.260029 
L 493.612406 94.260029 
L 493.835718 90.762118 
L 494.05903 205.974648 
L 494.282341 211.227036 
L 494.728964 173.671608 
L 494.952276 180.624156 
L 495.175588 180.624156 
L 495.398899 173.671608 
L 495.622211 173.671608 
L 495.845523 192.774774 
L 496.068834 184.176383 
L 496.292146 185.974134 
L 496.515458 184.273974 
L 496.738769 177.473334 
L 496.962081 187.826202 
L 497.185393 165.474623 
L 497.408704 177.625242 
L 497.632016 133.424602 
L 497.855328 133.424602 
L 498.301951 106.073654 
L 498.525263 95.872694 
L 498.748574 95.872694 
L 498.971886 130.024282 
L 499.195198 123.071734 
L 499.418509 99.273014 
L 499.641821 99.273014 
L 499.865133 87.122396 
L 500.088444 92.374783 
L 500.311756 85.422236 
L 500.758379 81.870008 
L 500.981691 85.270328 
L 501.205003 71.419549 
L 501.428314 69.719389 
L 501.651626 74.971777 
L 501.874937 68.019229 
L 502.098249 74.971777 
L 502.321561 74.971777 
L 502.544872 68.019229 
L 502.768184 78.372097 
L 502.991496 81.768897 
L 503.438119 98.868088 
L 503.661431 98.770497 
L 503.884742 105.668728 
L 504.108054 149.869368 
L 504.331366 166.870968 
L 504.554677 159.972737 
L 504.777989 166.870968 
L 505.001301 142.819229 
L 505.224612 142.819229 
L 505.447924 151.320029 
L 505.671236 151.320029 
L 505.894547 153.020189 
L 506.117859 140.869571 
L 506.341171 147.670211 
L 506.564482 135.617183 
L 506.787794 145.970051 
L 507.011106 145.970051 
L 507.234417 142.569731 
L 507.457729 145.970051 
L 507.681041 147.670211 
L 507.904352 166.371971 
L 508.127664 145.970051 
L 508.350975 162.971651 
L 508.574287 159.419423 
L 508.797599 166.371971 
L 509.244222 149.066555 
L 509.467534 150.766715 
L 509.690845 157.719263 
L 509.914157 154.318943 
L 510.137469 132.064955 
L 510.36078 145.666235 
L 510.584092 150.918623 
L 511.030715 135.367684 
L 511.254027 147.518303 
L 511.477339 130.364795 
L 511.923962 126.964475 
L 512.147274 128.664635 
L 512.370585 128.664635 
L 512.817209 125.264315 
L 513.04052 104.865915 
L 513.263832 123.564155 
L 513.487144 128.816543 
L 513.710455 106.566075 
L 513.933767 127.116383 
L 514.157079 125.416223 
L 514.603702 125.416223 
L 514.827014 132.216863 
L 515.273637 123.466564 
L 515.496948 133.917023 
L 515.72026 126.964475 
L 515.943572 126.964475 
L 516.166883 128.664635 
L 516.390195 128.664635 
L 516.613507 108.165124 
L 516.836818 128.664635 
L 517.06013 126.964475 
L 517.283442 114.813857 
L 517.506753 125.166724 
L 517.730065 118.214177 
L 517.953377 130.267204 
L 518.176688 123.314657 
L 518.4 152.217377 
L 518.4 152.217377 
" style="fill:none;stroke:#4c72b0;stroke-linecap:round;stroke-width:1.75;"/>
   </g>
   <g id="patch_3">
    <path d="M 72 356.4 
L 518.4 356.4 
" style="fill:none;"/>
   </g>
   <g id="patch_4">
    <path d="M 72 39.6 
L 518.4 39.6 
" style="fill:none;"/>
   </g>
   <g id="patch_5">
    <path d="M 72 356.4 
L 72 39.6 
" style="fill:none;"/>
   </g>
   <g id="patch_6">
    <path d="M 518.4 356.4 
L 518.4 39.6 
" style="fill:none;"/>
   </g>
   <g id="text_16">
    <!-- al - 15.430903068238422 * FG -->
    <defs>
     <path d="M 9.125 0 
L 9.125 10.6875 
L 18.65625 10.6875 
L 18.65625 0 
z
" id="LiberationSans-2e"/>
     <path d="M 5.03125 34.71875 
Q 5.03125 42.78125 7.203125 49.265625 
Q 9.375 55.765625 13.6875 60.328125 
Q 18.015625 64.890625 24.40625 67.359375 
Q 30.8125 69.828125 39.265625 69.828125 
Q 45.609375 69.828125 50.390625 68.703125 
Q 55.171875 67.578125 58.6875 65.46875 
Q 62.203125 63.375 64.640625 60.375 
Q 67.09375 57.375 68.796875 53.609375 
L 59.90625 50.984375 
Q 58.640625 53.515625 56.859375 55.59375 
Q 55.078125 57.671875 52.53125 59.125 
Q 50 60.59375 46.65625 61.390625 
Q 43.3125 62.203125 39.015625 62.203125 
Q 32.765625 62.203125 28.140625 60.25 
Q 23.53125 58.296875 20.5 54.6875 
Q 17.484375 51.078125 15.984375 46 
Q 14.5 40.921875 14.5 34.71875 
Q 14.5 28.515625 16.109375 23.359375 
Q 17.71875 18.21875 20.890625 14.484375 
Q 24.078125 10.75 28.78125 8.671875 
Q 33.5 6.59375 39.703125 6.59375 
Q 43.75 6.59375 47.171875 7.265625 
Q 50.59375 7.953125 53.34375 9.046875 
Q 56.109375 10.15625 58.203125 11.5 
Q 60.296875 12.84375 61.71875 14.203125 
L 61.71875 26.609375 
L 41.15625 26.609375 
L 41.15625 34.421875 
L 70.3125 34.421875 
L 70.3125 10.6875 
Q 68.015625 8.34375 64.90625 6.21875 
Q 61.8125 4.109375 57.953125 2.484375 
Q 54.109375 0.875 49.515625 -0.046875 
Q 44.921875 -0.984375 39.703125 -0.984375 
Q 31 -0.984375 24.5 1.671875 
Q 18.015625 4.34375 13.6875 9.109375 
Q 9.375 13.875 7.203125 20.40625 
Q 5.03125 26.953125 5.03125 34.71875 
" id="LiberationSans-47"/>
     <path d="M 17.53125 61.1875 
L 17.53125 35.59375 
L 55.90625 35.59375 
L 55.90625 27.875 
L 17.53125 27.875 
L 17.53125 0 
L 8.203125 0 
L 8.203125 68.796875 
L 57.078125 68.796875 
L 57.078125 61.1875 
z
" id="LiberationSans-46"/>
     <path d="M 22.265625 54.390625 
L 35.15625 59.421875 
L 37.359375 52.984375 
L 23.578125 49.421875 
L 32.625 37.203125 
L 26.8125 33.6875 
L 19.484375 46.296875 
L 11.859375 33.796875 
L 6.0625 37.3125 
L 15.28125 49.421875 
L 1.609375 52.984375 
L 3.8125 59.515625 
L 16.84375 54.296875 
L 16.265625 68.796875 
L 22.90625 68.796875 
z
" id="LiberationSans-2a"/>
     <path d="M 20.21875 -0.984375 
Q 12.25 -0.984375 8.25 3.21875 
Q 4.25 7.421875 4.25 14.75 
Q 4.25 19.96875 6.21875 23.3125 
Q 8.203125 26.65625 11.390625 28.5625 
Q 14.59375 30.46875 18.6875 31.203125 
Q 22.796875 31.9375 27.046875 32.03125 
L 38.921875 32.234375 
L 38.921875 35.109375 
Q 38.921875 38.375 38.234375 40.671875 
Q 37.546875 42.96875 36.125 44.375 
Q 34.71875 45.796875 32.59375 46.453125 
Q 30.46875 47.125 27.59375 47.125 
Q 25.046875 47.125 23 46.75 
Q 20.953125 46.390625 19.4375 45.4375 
Q 17.921875 44.484375 16.984375 42.84375 
Q 16.0625 41.21875 15.765625 38.71875 
L 6.59375 39.546875 
Q 7.078125 42.671875 8.4375 45.28125 
Q 9.8125 47.90625 12.328125 49.796875 
Q 14.84375 51.703125 18.625 52.75 
Q 22.40625 53.8125 27.78125 53.8125 
Q 37.75 53.8125 42.765625 49.234375 
Q 47.796875 44.671875 47.796875 36.03125 
L 47.796875 13.28125 
Q 47.796875 9.375 48.828125 7.390625 
Q 49.859375 5.421875 52.734375 5.421875 
Q 53.46875 5.421875 54.203125 5.515625 
Q 54.9375 5.609375 55.609375 5.765625 
L 55.609375 0.296875 
Q 53.953125 -0.09375 52.3125 -0.28125 
Q 50.6875 -0.484375 48.828125 -0.484375 
Q 46.34375 -0.484375 44.5625 0.171875 
Q 42.78125 0.828125 41.65625 2.171875 
Q 40.53125 3.515625 39.9375 5.484375 
Q 39.359375 7.46875 39.203125 10.109375 
L 38.921875 10.109375 
Q 37.5 7.5625 35.8125 5.515625 
Q 34.125 3.46875 31.875 2.03125 
Q 29.640625 0.59375 26.78125 -0.1875 
Q 23.921875 -0.984375 20.21875 -0.984375 
M 22.21875 5.609375 
Q 26.421875 5.609375 29.5625 7.140625 
Q 32.71875 8.6875 34.78125 11.078125 
Q 36.859375 13.484375 37.890625 16.3125 
Q 38.921875 19.140625 38.921875 21.734375 
L 38.921875 26.078125 
L 29.296875 25.875 
Q 26.078125 25.828125 23.171875 25.40625 
Q 20.265625 25 18.0625 23.78125 
Q 15.875 22.5625 14.578125 20.359375 
Q 13.28125 18.171875 13.28125 14.59375 
Q 13.28125 10.296875 15.59375 7.953125 
Q 17.921875 5.609375 22.21875 5.609375 
" id="LiberationSans-61"/>
     <path d="M 6.734375 0 
L 6.734375 72.46875 
L 15.53125 72.46875 
L 15.53125 0 
z
" id="LiberationSans-6c"/>
    </defs>
    <g style="fill:#262626;" transform="translate(212.8096875 34.6)scale(0.12 -0.12)">
     <use xlink:href="#LiberationSans-61"/>
     <use x="55.615234375" xlink:href="#LiberationSans-6c"/>
     <use x="77.83203125" xlink:href="#LiberationSans-20"/>
     <use x="105.615234375" xlink:href="#LiberationSans-2d"/>
     <use x="138.916015625" xlink:href="#LiberationSans-20"/>
     <use x="166.69921875" xlink:href="#LiberationSans-31"/>
     <use x="222.314453125" xlink:href="#LiberationSans-35"/>
     <use x="277.9296875" xlink:href="#LiberationSans-2e"/>
     <use x="305.712890625" xlink:href="#LiberationSans-34"/>
     <use x="361.328125" xlink:href="#LiberationSans-33"/>
     <use x="416.943359375" xlink:href="#LiberationSans-30"/>
     <use x="472.55859375" xlink:href="#LiberationSans-39"/>
     <use x="528.173828125" xlink:href="#LiberationSans-30"/>
     <use x="583.7890625" xlink:href="#LiberationSans-33"/>
     <use x="639.404296875" xlink:href="#LiberationSans-30"/>
     <use x="695.01953125" xlink:href="#LiberationSans-36"/>
     <use x="750.634765625" xlink:href="#LiberationSans-38"/>
     <use x="806.25" xlink:href="#LiberationSans-32"/>
     <use x="861.865234375" xlink:href="#LiberationSans-33"/>
     <use x="917.48046875" xlink:href="#LiberationSans-38"/>
     <use x="973.095703125" xlink:href="#LiberationSans-34"/>
     <use x="1028.7109375" xlink:href="#LiberationSans-32"/>
     <use x="1084.326171875" xlink:href="#LiberationSans-32"/>
     <use x="1139.94140625" xlink:href="#LiberationSans-20"/>
     <use x="1167.724609375" xlink:href="#LiberationSans-2a"/>
     <use x="1206.640625" xlink:href="#LiberationSans-20"/>
     <use x="1234.423828125" xlink:href="#LiberationSans-46"/>
     <use x="1295.5078125" xlink:href="#LiberationSans-47"/>
    </g>
   </g>
  </g>
 </g>
 <defs>
  <clipPath id="paadf7eb439">
   <rect height="316.8" width="446.4" x="72.0" y="39.6"/>
  </clipPath>
 </defs>
</svg>
