<?xml version="1.0" encoding="utf-8" standalone="no"?>
<!DOCTYPE svg PUBLIC "-//W3C//DTD SVG 1.1//EN"
  "http://www.w3.org/Graphics/SVG/1.1/DTD/svg11.dtd">
<!-- Created with matplotlib (http://matplotlib.org/) -->
<svg height="396pt" version="1.1" viewBox="0 0 576 396" width="576pt" xmlns="http://www.w3.org/2000/svg" xmlns:xlink="http://www.w3.org/1999/xlink">
 <defs>
  <style type="text/css">
*{stroke-linecap:butt;stroke-linejoin:round;stroke-miterlimit:100000;}
  </style>
 </defs>
 <g id="figure_1">
  <g id="patch_1">
   <path d="M 0 396 
L 576 396 
L 576 0 
L 0 0 
z
" style="fill:#ffffff;"/>
  </g>
  <g id="axes_1">
   <g id="patch_2">
    <path d="M 72 356.4 
L 518.4 356.4 
L 518.4 39.6 
L 72 39.6 
z
" style="fill:#eaeaf2;"/>
   </g>
   <g id="matplotlib.axis_1">
    <g id="xtick_1">
     <g id="line2d_1">
      <path clip-path="url(#p064a7f153c)" d="M 72 356.4 
L 72 39.6 
" style="fill:none;stroke:#ffffff;stroke-linecap:round;"/>
     </g>
     <g id="line2d_2"/>
     <g id="line2d_3"/>
     <g id="text_1">
      <!-- 2016-09-27 09:26:00 -->
      <defs>
       <path d="M 5.03125 0 
L 5.03125 6.203125 
Q 7.515625 11.921875 11.109375 16.28125 
Q 14.703125 20.65625 18.65625 24.1875 
Q 22.609375 27.734375 26.484375 30.765625 
Q 30.375 33.796875 33.5 36.8125 
Q 36.625 39.84375 38.546875 43.15625 
Q 40.484375 46.484375 40.484375 50.6875 
Q 40.484375 53.609375 39.59375 55.828125 
Q 38.71875 58.0625 37.0625 59.5625 
Q 35.40625 61.078125 33.078125 61.828125 
Q 30.765625 62.59375 27.9375 62.59375 
Q 25.296875 62.59375 22.96875 61.859375 
Q 20.65625 61.140625 18.84375 59.671875 
Q 17.046875 58.203125 15.890625 56.03125 
Q 14.75 53.859375 14.40625 50.984375 
L 5.421875 51.8125 
Q 5.859375 55.515625 7.46875 58.78125 
Q 9.078125 62.0625 11.90625 64.53125 
Q 14.75 67 18.71875 68.40625 
Q 22.703125 69.828125 27.9375 69.828125 
Q 33.0625 69.828125 37.0625 68.609375 
Q 41.0625 67.390625 43.8125 64.984375 
Q 46.578125 62.59375 48.046875 59.078125 
Q 49.515625 55.5625 49.515625 50.984375 
Q 49.515625 47.515625 48.265625 44.390625 
Q 47.015625 41.265625 44.9375 38.421875 
Q 42.875 35.59375 40.140625 32.953125 
Q 37.40625 30.328125 34.421875 27.8125 
Q 31.453125 25.296875 28.421875 22.828125 
Q 25.390625 20.359375 22.71875 17.859375 
Q 20.0625 15.375 17.96875 12.8125 
Q 15.875 10.25 14.703125 7.46875 
L 50.59375 7.46875 
L 50.59375 0 
z
" id="LiberationSans-32"/>
       <path d="M 7.625 0 
L 7.625 7.46875 
L 25.140625 7.46875 
L 25.140625 60.40625 
L 9.625 49.3125 
L 9.625 57.625 
L 25.875 68.796875 
L 33.984375 68.796875 
L 33.984375 7.46875 
L 50.734375 7.46875 
L 50.734375 0 
z
" id="LiberationSans-31"/>
       <path d="M 51.703125 34.421875 
Q 51.703125 24.515625 49.828125 17.75 
Q 47.953125 10.984375 44.703125 6.8125 
Q 41.453125 2.640625 37.0625 0.828125 
Q 32.671875 -0.984375 27.6875 -0.984375 
Q 22.65625 -0.984375 18.3125 0.828125 
Q 13.96875 2.640625 10.765625 6.78125 
Q 7.5625 10.9375 5.734375 17.703125 
Q 3.90625 24.46875 3.90625 34.421875 
Q 3.90625 44.828125 5.734375 51.640625 
Q 7.5625 58.453125 10.78125 62.5 
Q 14.015625 66.546875 18.40625 68.1875 
Q 22.796875 69.828125 27.984375 69.828125 
Q 32.90625 69.828125 37.21875 68.1875 
Q 41.546875 66.546875 44.765625 62.5 
Q 48 58.453125 49.84375 51.640625 
Q 51.703125 44.828125 51.703125 34.421875 
M 42.78125 34.421875 
Q 42.78125 42.625 41.796875 48.0625 
Q 40.828125 53.515625 38.921875 56.765625 
Q 37.015625 60.015625 34.25 61.359375 
Q 31.5 62.703125 27.984375 62.703125 
Q 24.265625 62.703125 21.4375 61.328125 
Q 18.609375 59.96875 16.671875 56.71875 
Q 14.75 53.46875 13.765625 48.015625 
Q 12.796875 42.578125 12.796875 34.421875 
Q 12.796875 26.515625 13.796875 21.09375 
Q 14.796875 15.671875 16.71875 12.375 
Q 18.65625 9.078125 21.4375 7.640625 
Q 24.21875 6.203125 27.78125 6.203125 
Q 31.25 6.203125 34.03125 7.640625 
Q 36.8125 9.078125 38.734375 12.375 
Q 40.671875 15.671875 41.71875 21.09375 
Q 42.78125 26.515625 42.78125 34.421875 
" id="LiberationSans-30"/>
       <path d="M 50.875 35.796875 
Q 50.875 26.609375 49.140625 19.703125 
Q 47.40625 12.796875 44.1875 8.203125 
Q 40.96875 3.609375 36.34375 1.3125 
Q 31.734375 -0.984375 25.984375 -0.984375 
Q 22.015625 -0.984375 18.84375 -0.171875 
Q 15.671875 0.640625 13.171875 2.34375 
Q 10.6875 4.046875 8.921875 6.78125 
Q 7.171875 9.515625 6.109375 13.375 
L 14.5 14.703125 
Q 15.875 10.25 18.78125 8.171875 
Q 21.6875 6.109375 26.125 6.109375 
Q 29.6875 6.109375 32.640625 7.78125 
Q 35.59375 9.46875 37.671875 12.84375 
Q 39.75 16.21875 40.921875 21.296875 
Q 42.09375 26.375 42.1875 33.203125 
Q 41.15625 30.90625 39.375 29.09375 
Q 37.59375 27.296875 35.328125 26.046875 
Q 33.0625 24.8125 30.421875 24.140625 
Q 27.78125 23.484375 25.09375 23.484375 
Q 20.40625 23.484375 16.625 25.171875 
Q 12.84375 26.859375 10.203125 29.875 
Q 7.5625 32.90625 6.125 37.171875 
Q 4.6875 41.453125 4.6875 46.6875 
Q 4.6875 52 6.21875 56.296875 
Q 7.765625 60.59375 10.6875 63.59375 
Q 13.625 66.609375 17.890625 68.21875 
Q 22.171875 69.828125 27.59375 69.828125 
Q 39.0625 69.828125 44.96875 61.328125 
Q 50.875 52.828125 50.875 35.796875 
M 41.3125 44.28125 
Q 41.3125 48.09375 40.40625 51.453125 
Q 39.5 54.828125 37.71875 57.3125 
Q 35.9375 59.8125 33.328125 61.25 
Q 30.71875 62.703125 27.296875 62.703125 
Q 24.125 62.703125 21.578125 61.578125 
Q 19.046875 60.453125 17.28125 58.375 
Q 15.53125 56.296875 14.578125 53.3125 
Q 13.625 50.34375 13.625 46.6875 
Q 13.625 43.21875 14.46875 40.234375 
Q 15.328125 37.25 17.03125 35.078125 
Q 18.75 32.90625 21.28125 31.65625 
Q 23.828125 30.421875 27.203125 30.421875 
Q 29.640625 30.421875 32.15625 31.25 
Q 34.671875 32.078125 36.6875 33.78125 
Q 38.71875 35.5 40.015625 38.109375 
Q 41.3125 40.71875 41.3125 44.28125 
" id="LiberationSans-39"/>
       <path d="M 9.125 42.71875 
L 9.125 52.828125 
L 18.65625 52.828125 
L 18.65625 42.71875 
z
M 9.125 0 
L 9.125 10.109375 
L 18.65625 10.109375 
L 18.65625 0 
z
" id="LiberationSans-3a"/>
       <path d="M 50.59375 61.671875 
Q 45.40625 53.765625 41.0625 46.453125 
Q 36.71875 39.15625 33.59375 31.75 
Q 30.46875 24.359375 28.734375 16.578125 
Q 27 8.796875 27 0 
L 17.828125 0 
Q 17.828125 8.25 19.78125 16.1875 
Q 21.734375 24.125 25.046875 31.765625 
Q 28.375 39.40625 32.765625 46.78125 
Q 37.15625 54.15625 42.09375 61.328125 
L 5.125 61.328125 
L 5.125 68.796875 
L 50.59375 68.796875 
z
" id="LiberationSans-37"/>
       <path id="LiberationSans-20"/>
       <path d="M 4.4375 22.65625 
L 4.4375 30.46875 
L 28.859375 30.46875 
L 28.859375 22.65625 
z
" id="LiberationSans-2d"/>
       <path d="M 51.21875 22.515625 
Q 51.21875 17.328125 49.78125 13 
Q 48.34375 8.6875 45.53125 5.578125 
Q 42.71875 2.484375 38.5625 0.75 
Q 34.421875 -0.984375 29 -0.984375 
Q 23 -0.984375 18.5 1.3125 
Q 14.015625 3.609375 11.03125 7.921875 
Q 8.0625 12.25 6.5625 18.53125 
Q 5.078125 24.8125 5.078125 32.8125 
Q 5.078125 42 6.765625 48.921875 
Q 8.453125 55.859375 11.625 60.5 
Q 14.796875 65.140625 19.359375 67.484375 
Q 23.921875 69.828125 29.6875 69.828125 
Q 33.203125 69.828125 36.28125 69.09375 
Q 39.359375 68.359375 41.875 66.71875 
Q 44.390625 65.09375 46.28125 62.40625 
Q 48.1875 59.71875 49.3125 55.8125 
L 40.921875 54.296875 
Q 39.546875 58.734375 36.546875 60.71875 
Q 33.546875 62.703125 29.59375 62.703125 
Q 25.984375 62.703125 23.046875 60.984375 
Q 20.125 59.28125 18.0625 55.875 
Q 16.015625 52.484375 14.90625 47.359375 
Q 13.8125 42.234375 13.8125 35.40625 
Q 16.21875 39.84375 20.5625 42.15625 
Q 24.90625 44.484375 30.515625 44.484375 
Q 35.203125 44.484375 39.015625 42.96875 
Q 42.828125 41.453125 45.53125 38.59375 
Q 48.25 35.75 49.734375 31.671875 
Q 51.21875 27.59375 51.21875 22.515625 
M 42.28125 22.125 
Q 42.28125 25.6875 41.40625 28.5625 
Q 40.53125 31.453125 38.765625 33.46875 
Q 37.015625 35.5 34.421875 36.59375 
Q 31.84375 37.703125 28.421875 37.703125 
Q 26.03125 37.703125 23.578125 36.984375 
Q 21.140625 36.28125 19.15625 34.6875 
Q 17.1875 33.109375 15.9375 30.515625 
Q 14.703125 27.9375 14.703125 24.21875 
Q 14.703125 20.40625 15.671875 17.109375 
Q 16.65625 13.8125 18.484375 11.375 
Q 20.3125 8.9375 22.890625 7.515625 
Q 25.484375 6.109375 28.71875 6.109375 
Q 31.890625 6.109375 34.40625 7.203125 
Q 36.921875 8.296875 38.671875 10.375 
Q 40.4375 12.453125 41.359375 15.421875 
Q 42.28125 18.40625 42.28125 22.125 
" id="LiberationSans-36"/>
      </defs>
      <g style="fill:#262626;" transform="translate(25.5765625 370.646875)scale(0.1 -0.1)">
       <use xlink:href="#LiberationSans-32"/>
       <use x="55.615234375" xlink:href="#LiberationSans-30"/>
       <use x="111.23046875" xlink:href="#LiberationSans-31"/>
       <use x="166.845703125" xlink:href="#LiberationSans-36"/>
       <use x="222.4609375" xlink:href="#LiberationSans-2d"/>
       <use x="255.76171875" xlink:href="#LiberationSans-30"/>
       <use x="311.376953125" xlink:href="#LiberationSans-39"/>
       <use x="366.9921875" xlink:href="#LiberationSans-2d"/>
       <use x="400.29296875" xlink:href="#LiberationSans-32"/>
       <use x="455.908203125" xlink:href="#LiberationSans-37"/>
       <use x="511.5234375" xlink:href="#LiberationSans-20"/>
       <use x="539.306640625" xlink:href="#LiberationSans-30"/>
       <use x="594.921875" xlink:href="#LiberationSans-39"/>
       <use x="650.537109375" xlink:href="#LiberationSans-3a"/>
       <use x="678.3203125" xlink:href="#LiberationSans-32"/>
       <use x="733.935546875" xlink:href="#LiberationSans-36"/>
       <use x="789.55078125" xlink:href="#LiberationSans-3a"/>
       <use x="817.333984375" xlink:href="#LiberationSans-30"/>
       <use x="872.94921875" xlink:href="#LiberationSans-30"/>
      </g>
     </g>
    </g>
    <g id="xtick_2">
     <g id="line2d_4">
      <path clip-path="url(#p064a7f153c)" d="M 183.655828 356.4 
L 183.655828 39.6 
" style="fill:none;stroke:#ffffff;stroke-linecap:round;"/>
     </g>
     <g id="line2d_5"/>
     <g id="line2d_6"/>
     <g id="text_2">
      <!-- 2016-09-29 10:31:00 -->
      <defs>
       <path d="M 51.21875 19 
Q 51.21875 14.265625 49.671875 10.546875 
Q 48.140625 6.84375 45.1875 4.265625 
Q 42.234375 1.703125 37.859375 0.359375 
Q 33.5 -0.984375 27.875 -0.984375 
Q 21.484375 -0.984375 17.109375 0.609375 
Q 12.75 2.203125 9.90625 4.8125 
Q 7.078125 7.421875 5.65625 10.765625 
Q 4.25 14.109375 3.8125 17.671875 
L 12.890625 18.5 
Q 13.28125 15.765625 14.328125 13.515625 
Q 15.375 11.28125 17.1875 9.671875 
Q 19 8.0625 21.625 7.171875 
Q 24.265625 6.296875 27.875 6.296875 
Q 34.515625 6.296875 38.296875 9.5625 
Q 42.09375 12.84375 42.09375 19.28125 
Q 42.09375 23.09375 40.40625 25.40625 
Q 38.71875 27.734375 36.203125 29.03125 
Q 33.6875 30.328125 30.734375 30.765625 
Q 27.78125 31.203125 25.296875 31.203125 
L 20.3125 31.203125 
L 20.3125 38.8125 
L 25.09375 38.8125 
Q 27.59375 38.8125 30.265625 39.328125 
Q 32.953125 39.84375 35.171875 41.1875 
Q 37.40625 42.53125 38.84375 44.828125 
Q 40.28125 47.125 40.28125 50.6875 
Q 40.28125 56.203125 37.03125 59.390625 
Q 33.796875 62.59375 27.390625 62.59375 
Q 21.578125 62.59375 17.984375 59.609375 
Q 14.40625 56.640625 13.8125 51.21875 
L 4.984375 51.90625 
Q 5.515625 56.453125 7.46875 59.8125 
Q 9.421875 63.1875 12.421875 65.40625 
Q 15.4375 67.625 19.28125 68.71875 
Q 23.140625 69.828125 27.484375 69.828125 
Q 33.25 69.828125 37.390625 68.375 
Q 41.546875 66.9375 44.1875 64.46875 
Q 46.828125 62.015625 48.0625 58.6875 
Q 49.3125 55.375 49.3125 51.609375 
Q 49.3125 48.578125 48.484375 45.9375 
Q 47.65625 43.3125 45.890625 41.203125 
Q 44.140625 39.109375 41.421875 37.59375 
Q 38.71875 36.078125 34.90625 35.296875 
L 34.90625 35.109375 
Q 39.0625 34.671875 42.140625 33.21875 
Q 45.21875 31.78125 47.21875 29.625 
Q 49.21875 27.484375 50.21875 24.75 
Q 51.21875 22.015625 51.21875 19 
" id="LiberationSans-33"/>
      </defs>
      <g style="fill:#262626;" transform="translate(137.232390414 370.646875)scale(0.1 -0.1)">
       <use xlink:href="#LiberationSans-32"/>
       <use x="55.615234375" xlink:href="#LiberationSans-30"/>
       <use x="111.23046875" xlink:href="#LiberationSans-31"/>
       <use x="166.845703125" xlink:href="#LiberationSans-36"/>
       <use x="222.4609375" xlink:href="#LiberationSans-2d"/>
       <use x="255.76171875" xlink:href="#LiberationSans-30"/>
       <use x="311.376953125" xlink:href="#LiberationSans-39"/>
       <use x="366.9921875" xlink:href="#LiberationSans-2d"/>
       <use x="400.29296875" xlink:href="#LiberationSans-32"/>
       <use x="455.908203125" xlink:href="#LiberationSans-39"/>
       <use x="511.5234375" xlink:href="#LiberationSans-20"/>
       <use x="539.306640625" xlink:href="#LiberationSans-31"/>
       <use x="594.921875" xlink:href="#LiberationSans-30"/>
       <use x="650.537109375" xlink:href="#LiberationSans-3a"/>
       <use x="678.3203125" xlink:href="#LiberationSans-33"/>
       <use x="733.935546875" xlink:href="#LiberationSans-31"/>
       <use x="789.55078125" xlink:href="#LiberationSans-3a"/>
       <use x="817.333984375" xlink:href="#LiberationSans-30"/>
       <use x="872.94921875" xlink:href="#LiberationSans-30"/>
      </g>
     </g>
    </g>
    <g id="xtick_3">
     <g id="line2d_7">
      <path clip-path="url(#p064a7f153c)" d="M 295.311656 356.4 
L 295.311656 39.6 
" style="fill:none;stroke:#ffffff;stroke-linecap:round;"/>
     </g>
     <g id="line2d_8"/>
     <g id="line2d_9"/>
     <g id="text_3">
      <!-- 2016-10-10 11:20:00 -->
      <g style="fill:#262626;" transform="translate(248.888218328 370.646875)scale(0.1 -0.1)">
       <use xlink:href="#LiberationSans-32"/>
       <use x="55.615234375" xlink:href="#LiberationSans-30"/>
       <use x="111.23046875" xlink:href="#LiberationSans-31"/>
       <use x="166.845703125" xlink:href="#LiberationSans-36"/>
       <use x="222.4609375" xlink:href="#LiberationSans-2d"/>
       <use x="255.76171875" xlink:href="#LiberationSans-31"/>
       <use x="311.376953125" xlink:href="#LiberationSans-30"/>
       <use x="366.9921875" xlink:href="#LiberationSans-2d"/>
       <use x="400.29296875" xlink:href="#LiberationSans-31"/>
       <use x="455.908203125" xlink:href="#LiberationSans-30"/>
       <use x="511.5234375" xlink:href="#LiberationSans-20"/>
       <use x="539.306640625" xlink:href="#LiberationSans-31"/>
       <use x="594.921875" xlink:href="#LiberationSans-31"/>
       <use x="650.537109375" xlink:href="#LiberationSans-3a"/>
       <use x="678.3203125" xlink:href="#LiberationSans-32"/>
       <use x="733.935546875" xlink:href="#LiberationSans-30"/>
       <use x="789.55078125" xlink:href="#LiberationSans-3a"/>
       <use x="817.333984375" xlink:href="#LiberationSans-30"/>
       <use x="872.94921875" xlink:href="#LiberationSans-30"/>
      </g>
     </g>
    </g>
    <g id="xtick_4">
     <g id="line2d_10">
      <path clip-path="url(#p064a7f153c)" d="M 406.967484 356.4 
L 406.967484 39.6 
" style="fill:none;stroke:#ffffff;stroke-linecap:round;"/>
     </g>
     <g id="line2d_11"/>
     <g id="line2d_12"/>
     <g id="text_4">
      <!-- 2016-10-12 14:10:00 -->
      <defs>
       <path d="M 43.015625 15.578125 
L 43.015625 0 
L 34.71875 0 
L 34.71875 15.578125 
L 2.296875 15.578125 
L 2.296875 22.40625 
L 33.796875 68.796875 
L 43.015625 68.796875 
L 43.015625 22.515625 
L 52.6875 22.515625 
L 52.6875 15.578125 
z
M 34.71875 58.890625 
Q 34.625 58.640625 34.234375 57.9375 
Q 33.84375 57.234375 33.34375 56.34375 
Q 32.859375 55.46875 32.34375 54.5625 
Q 31.84375 53.65625 31.453125 53.078125 
L 13.8125 27.09375 
Q 13.578125 26.703125 13.109375 26.0625 
Q 12.640625 25.4375 12.15625 24.78125 
Q 11.671875 24.125 11.171875 23.484375 
Q 10.6875 22.859375 10.40625 22.515625 
L 34.71875 22.515625 
z
" id="LiberationSans-34"/>
      </defs>
      <g style="fill:#262626;" transform="translate(360.544046242 370.646875)scale(0.1 -0.1)">
       <use xlink:href="#LiberationSans-32"/>
       <use x="55.615234375" xlink:href="#LiberationSans-30"/>
       <use x="111.23046875" xlink:href="#LiberationSans-31"/>
       <use x="166.845703125" xlink:href="#LiberationSans-36"/>
       <use x="222.4609375" xlink:href="#LiberationSans-2d"/>
       <use x="255.76171875" xlink:href="#LiberationSans-31"/>
       <use x="311.376953125" xlink:href="#LiberationSans-30"/>
       <use x="366.9921875" xlink:href="#LiberationSans-2d"/>
       <use x="400.29296875" xlink:href="#LiberationSans-31"/>
       <use x="455.908203125" xlink:href="#LiberationSans-32"/>
       <use x="511.5234375" xlink:href="#LiberationSans-20"/>
       <use x="539.306640625" xlink:href="#LiberationSans-31"/>
       <use x="594.921875" xlink:href="#LiberationSans-34"/>
       <use x="650.537109375" xlink:href="#LiberationSans-3a"/>
       <use x="678.3203125" xlink:href="#LiberationSans-31"/>
       <use x="733.935546875" xlink:href="#LiberationSans-30"/>
       <use x="789.55078125" xlink:href="#LiberationSans-3a"/>
       <use x="817.333984375" xlink:href="#LiberationSans-30"/>
       <use x="872.94921875" xlink:href="#LiberationSans-30"/>
      </g>
     </g>
    </g>
    <g id="text_5">
     <!-- time -->
     <defs>
      <path d="M 13.484375 24.5625 
Q 13.484375 20.40625 14.328125 16.90625 
Q 15.1875 13.421875 16.96875 10.90625 
Q 18.75 8.40625 21.53125 7 
Q 24.3125 5.609375 28.21875 5.609375 
Q 33.9375 5.609375 37.375 7.90625 
Q 40.828125 10.203125 42.046875 13.71875 
L 49.75 11.53125 
Q 48.921875 9.328125 47.4375 7.109375 
Q 45.953125 4.890625 43.453125 3.09375 
Q 40.96875 1.3125 37.234375 0.15625 
Q 33.5 -0.984375 28.21875 -0.984375 
Q 16.5 -0.984375 10.375 6 
Q 4.25 12.984375 4.25 26.765625 
Q 4.25 34.1875 6.09375 39.328125 
Q 7.953125 44.484375 11.171875 47.703125 
Q 14.40625 50.921875 18.703125 52.359375 
Q 23 53.8125 27.875 53.8125 
Q 34.515625 53.8125 38.984375 51.65625 
Q 43.453125 49.515625 46.15625 45.71875 
Q 48.875 41.9375 50.015625 36.8125 
Q 51.171875 31.6875 51.171875 25.734375 
L 51.171875 24.5625 
z
M 42.09375 31.296875 
Q 41.359375 39.65625 37.84375 43.484375 
Q 34.328125 47.3125 27.734375 47.3125 
Q 25.53125 47.3125 23.109375 46.609375 
Q 20.703125 45.90625 18.65625 44.09375 
Q 16.609375 42.28125 15.1875 39.171875 
Q 13.765625 36.078125 13.578125 31.296875 
z
" id="LiberationSans-65"/>
      <path d="M 6.6875 64.0625 
L 6.6875 72.46875 
L 15.484375 72.46875 
L 15.484375 64.0625 
z
M 6.6875 0 
L 6.6875 52.828125 
L 15.484375 52.828125 
L 15.484375 0 
z
" id="LiberationSans-69"/>
      <path d="M 27.046875 0.390625 
Q 25.046875 -0.140625 22.96875 -0.453125 
Q 20.90625 -0.78125 18.171875 -0.78125 
Q 7.625 -0.78125 7.625 11.1875 
L 7.625 46.4375 
L 1.515625 46.4375 
L 1.515625 52.828125 
L 7.953125 52.828125 
L 10.546875 64.65625 
L 16.40625 64.65625 
L 16.40625 52.828125 
L 26.171875 52.828125 
L 26.171875 46.4375 
L 16.40625 46.4375 
L 16.40625 13.09375 
Q 16.40625 9.28125 17.640625 7.734375 
Q 18.890625 6.203125 21.96875 6.203125 
Q 23.25 6.203125 24.4375 6.390625 
Q 25.640625 6.59375 27.046875 6.890625 
z
" id="LiberationSans-74"/>
      <path d="M 37.5 0 
L 37.5 33.5 
Q 37.5 37.359375 37.015625 39.9375 
Q 36.53125 42.53125 35.375 44.109375 
Q 34.234375 45.703125 32.375 46.359375 
Q 30.515625 47.015625 27.828125 47.015625 
Q 25.046875 47.015625 22.796875 45.921875 
Q 20.5625 44.828125 18.96875 42.75 
Q 17.390625 40.671875 16.53125 37.625 
Q 15.671875 34.578125 15.671875 30.609375 
L 15.671875 0 
L 6.9375 0 
L 6.9375 41.546875 
Q 6.9375 43.21875 6.90625 45.046875 
Q 6.890625 46.875 6.828125 48.5 
Q 6.78125 50.140625 6.734375 51.3125 
Q 6.6875 52.484375 6.640625 52.828125 
L 14.9375 52.828125 
Q 14.984375 52.59375 15.03125 51.515625 
Q 15.09375 50.4375 15.15625 49.046875 
Q 15.234375 47.65625 15.28125 46.21875 
Q 15.328125 44.78125 15.328125 43.796875 
L 15.484375 43.796875 
Q 16.65625 46.09375 18.015625 47.953125 
Q 19.390625 49.8125 21.21875 51.09375 
Q 23.046875 52.390625 25.40625 53.09375 
Q 27.78125 53.8125 30.90625 53.8125 
Q 36.921875 53.8125 40.40625 51.421875 
Q 43.890625 49.03125 45.265625 43.796875 
L 45.40625 43.796875 
Q 46.578125 46.09375 48.046875 47.953125 
Q 49.515625 49.8125 51.46875 51.09375 
Q 53.421875 52.390625 55.859375 53.09375 
Q 58.296875 53.8125 61.421875 53.8125 
Q 65.4375 53.8125 68.328125 52.734375 
Q 71.234375 51.65625 73.09375 49.40625 
Q 74.953125 47.171875 75.828125 43.625 
Q 76.703125 40.09375 76.703125 35.203125 
L 76.703125 0 
L 68.015625 0 
L 68.015625 33.5 
Q 68.015625 37.359375 67.53125 39.9375 
Q 67.046875 42.53125 65.890625 44.109375 
Q 64.75 45.703125 62.890625 46.359375 
Q 61.03125 47.015625 58.34375 47.015625 
Q 55.5625 47.015625 53.3125 45.96875 
Q 51.078125 44.921875 49.484375 42.875 
Q 47.90625 40.828125 47.046875 37.75 
Q 46.1875 34.671875 46.1875 30.609375 
L 46.1875 0 
z
" id="LiberationSans-6d"/>
     </defs>
     <g style="fill:#262626;" transform="translate(284.81015625 385.6934375)scale(0.11 -0.11)">
      <use xlink:href="#LiberationSans-74"/>
      <use x="27.783203125" xlink:href="#LiberationSans-69"/>
      <use x="50.0" xlink:href="#LiberationSans-6d"/>
      <use x="133.30078125" xlink:href="#LiberationSans-65"/>
     </g>
    </g>
   </g>
   <g id="matplotlib.axis_2">
    <g id="ytick_1">
     <g id="line2d_13">
      <path clip-path="url(#p064a7f153c)" d="M 72 356.4 
L 518.4 356.4 
" style="fill:none;stroke:#ffffff;stroke-linecap:round;"/>
     </g>
     <g id="line2d_14"/>
     <g id="line2d_15"/>
     <g id="text_6">
      <!-- −690 -->
      <defs>
       <path d="M 4.9375 29.6875 
L 4.9375 36.8125 
L 53.515625 36.8125 
L 53.515625 29.6875 
z
" id="LiberationSans-2212"/>
      </defs>
      <g style="fill:#262626;" transform="translate(42.4765625 358.9859375)scale(0.1 -0.1)">
       <use xlink:href="#LiberationSans-2212"/>
       <use x="58.3984375" xlink:href="#LiberationSans-36"/>
       <use x="114.013671875" xlink:href="#LiberationSans-39"/>
       <use x="169.62890625" xlink:href="#LiberationSans-30"/>
      </g>
     </g>
    </g>
    <g id="ytick_2">
     <g id="line2d_16">
      <path clip-path="url(#p064a7f153c)" d="M 72 316.8 
L 518.4 316.8 
" style="fill:none;stroke:#ffffff;stroke-linecap:round;"/>
     </g>
     <g id="line2d_17"/>
     <g id="line2d_18"/>
     <g id="text_7">
      <!-- −680 -->
      <defs>
       <path d="M 51.265625 19.1875 
Q 51.265625 14.796875 49.875 11.109375 
Q 48.484375 7.421875 45.625 4.734375 
Q 42.78125 2.046875 38.328125 0.53125 
Q 33.890625 -0.984375 27.828125 -0.984375 
Q 21.78125 -0.984375 17.359375 0.53125 
Q 12.9375 2.046875 10.03125 4.703125 
Q 7.125 7.375 5.734375 11.0625 
Q 4.34375 14.75 4.34375 19.09375 
Q 4.34375 22.859375 5.484375 25.78125 
Q 6.640625 28.71875 8.5625 30.828125 
Q 10.5 32.953125 12.96875 34.25 
Q 15.4375 35.546875 18.0625 35.984375 
L 18.0625 36.1875 
Q 15.1875 36.859375 12.90625 38.375 
Q 10.640625 39.890625 9.09375 42.015625 
Q 7.5625 44.140625 6.75 46.71875 
Q 5.953125 49.3125 5.953125 52.203125 
Q 5.953125 55.8125 7.34375 59 
Q 8.734375 62.203125 11.46875 64.625 
Q 14.203125 67.046875 18.25 68.4375 
Q 22.3125 69.828125 27.640625 69.828125 
Q 33.25 69.828125 37.375 68.40625 
Q 41.5 67 44.203125 64.578125 
Q 46.921875 62.15625 48.234375 58.9375 
Q 49.5625 55.71875 49.5625 52.09375 
Q 49.5625 49.265625 48.75 46.671875 
Q 47.953125 44.09375 46.40625 41.96875 
Q 44.875 39.84375 42.59375 38.34375 
Q 40.328125 36.859375 37.359375 36.28125 
L 37.359375 36.078125 
Q 40.328125 35.59375 42.859375 34.296875 
Q 45.40625 33.015625 47.265625 30.890625 
Q 49.125 28.765625 50.1875 25.828125 
Q 51.265625 22.90625 51.265625 19.1875 
M 40.4375 51.609375 
Q 40.4375 54.203125 39.765625 56.34375 
Q 39.109375 58.5 37.59375 60.03125 
Q 36.078125 61.578125 33.640625 62.421875 
Q 31.203125 63.28125 27.640625 63.28125 
Q 24.171875 63.28125 21.78125 62.421875 
Q 19.390625 61.578125 17.84375 60.03125 
Q 16.3125 58.5 15.625 56.34375 
Q 14.9375 54.203125 14.9375 51.609375 
Q 14.9375 49.5625 15.46875 47.40625 
Q 16.015625 45.265625 17.421875 43.5 
Q 18.84375 41.75 21.328125 40.625 
Q 23.828125 39.5 27.734375 39.5 
Q 31.890625 39.5 34.40625 40.625 
Q 36.921875 41.75 38.25 43.5 
Q 39.59375 45.265625 40.015625 47.40625 
Q 40.4375 49.5625 40.4375 51.609375 
M 42.140625 20.015625 
Q 42.140625 22.515625 41.453125 24.828125 
Q 40.765625 27.15625 39.109375 28.9375 
Q 37.453125 30.71875 34.640625 31.8125 
Q 31.84375 32.90625 27.640625 32.90625 
Q 23.78125 32.90625 21.0625 31.8125 
Q 18.359375 30.71875 16.671875 28.90625 
Q 14.984375 27.09375 14.203125 24.71875 
Q 13.421875 22.359375 13.421875 19.828125 
Q 13.421875 16.65625 14.203125 14.03125 
Q 14.984375 11.421875 16.6875 9.546875 
Q 18.40625 7.671875 21.1875 6.640625 
Q 23.96875 5.609375 27.9375 5.609375 
Q 31.9375 5.609375 34.671875 6.640625 
Q 37.40625 7.671875 39.0625 9.546875 
Q 40.71875 11.421875 41.421875 14.078125 
Q 42.140625 16.75 42.140625 20.015625 
" id="LiberationSans-38"/>
      </defs>
      <g style="fill:#262626;" transform="translate(42.4765625 319.3859375)scale(0.1 -0.1)">
       <use xlink:href="#LiberationSans-2212"/>
       <use x="58.3984375" xlink:href="#LiberationSans-36"/>
       <use x="114.013671875" xlink:href="#LiberationSans-38"/>
       <use x="169.62890625" xlink:href="#LiberationSans-30"/>
      </g>
     </g>
    </g>
    <g id="ytick_3">
     <g id="line2d_19">
      <path clip-path="url(#p064a7f153c)" d="M 72 277.2 
L 518.4 277.2 
" style="fill:none;stroke:#ffffff;stroke-linecap:round;"/>
     </g>
     <g id="line2d_20"/>
     <g id="line2d_21"/>
     <g id="text_8">
      <!-- −670 -->
      <g style="fill:#262626;" transform="translate(42.4765625 279.7859375)scale(0.1 -0.1)">
       <use xlink:href="#LiberationSans-2212"/>
       <use x="58.3984375" xlink:href="#LiberationSans-36"/>
       <use x="114.013671875" xlink:href="#LiberationSans-37"/>
       <use x="169.62890625" xlink:href="#LiberationSans-30"/>
      </g>
     </g>
    </g>
    <g id="ytick_4">
     <g id="line2d_22">
      <path clip-path="url(#p064a7f153c)" d="M 72 237.6 
L 518.4 237.6 
" style="fill:none;stroke:#ffffff;stroke-linecap:round;"/>
     </g>
     <g id="line2d_23"/>
     <g id="line2d_24"/>
     <g id="text_9">
      <!-- −660 -->
      <g style="fill:#262626;" transform="translate(42.4765625 240.1859375)scale(0.1 -0.1)">
       <use xlink:href="#LiberationSans-2212"/>
       <use x="58.3984375" xlink:href="#LiberationSans-36"/>
       <use x="114.013671875" xlink:href="#LiberationSans-36"/>
       <use x="169.62890625" xlink:href="#LiberationSans-30"/>
      </g>
     </g>
    </g>
    <g id="ytick_5">
     <g id="line2d_25">
      <path clip-path="url(#p064a7f153c)" d="M 72 198 
L 518.4 198 
" style="fill:none;stroke:#ffffff;stroke-linecap:round;"/>
     </g>
     <g id="line2d_26"/>
     <g id="line2d_27"/>
     <g id="text_10">
      <!-- −650 -->
      <defs>
       <path d="M 51.421875 22.40625 
Q 51.421875 17.234375 49.859375 12.9375 
Q 48.296875 8.640625 45.21875 5.53125 
Q 42.140625 2.4375 37.578125 0.71875 
Q 33.015625 -0.984375 27 -0.984375 
Q 21.578125 -0.984375 17.546875 0.28125 
Q 13.53125 1.5625 10.734375 3.78125 
Q 7.953125 6 6.3125 8.984375 
Q 4.6875 11.96875 4 15.375 
L 12.890625 16.40625 
Q 13.421875 14.453125 14.390625 12.625 
Q 15.375 10.796875 17.0625 9.34375 
Q 18.75 7.90625 21.21875 7.046875 
Q 23.6875 6.203125 27.203125 6.203125 
Q 30.609375 6.203125 33.390625 7.25 
Q 36.1875 8.296875 38.15625 10.34375 
Q 40.140625 12.40625 41.203125 15.375 
Q 42.28125 18.359375 42.28125 22.21875 
Q 42.28125 25.390625 41.25 28.046875 
Q 40.234375 30.71875 38.328125 32.640625 
Q 36.421875 34.578125 33.65625 35.640625 
Q 30.90625 36.71875 27.390625 36.71875 
Q 25.203125 36.71875 23.34375 36.328125 
Q 21.484375 35.9375 19.890625 35.25 
Q 18.3125 34.578125 17.015625 33.671875 
Q 15.71875 32.765625 14.59375 31.78125 
L 6 31.78125 
L 8.296875 68.796875 
L 47.40625 68.796875 
L 47.40625 61.328125 
L 16.3125 61.328125 
L 14.984375 39.5 
Q 17.328125 41.3125 20.84375 42.59375 
Q 24.359375 43.890625 29.203125 43.890625 
Q 34.328125 43.890625 38.421875 42.328125 
Q 42.53125 40.765625 45.40625 37.90625 
Q 48.296875 35.0625 49.859375 31.109375 
Q 51.421875 27.15625 51.421875 22.40625 
" id="LiberationSans-35"/>
      </defs>
      <g style="fill:#262626;" transform="translate(42.4765625 200.5859375)scale(0.1 -0.1)">
       <use xlink:href="#LiberationSans-2212"/>
       <use x="58.3984375" xlink:href="#LiberationSans-36"/>
       <use x="114.013671875" xlink:href="#LiberationSans-35"/>
       <use x="169.62890625" xlink:href="#LiberationSans-30"/>
      </g>
     </g>
    </g>
    <g id="ytick_6">
     <g id="line2d_28">
      <path clip-path="url(#p064a7f153c)" d="M 72 158.4 
L 518.4 158.4 
" style="fill:none;stroke:#ffffff;stroke-linecap:round;"/>
     </g>
     <g id="line2d_29"/>
     <g id="line2d_30"/>
     <g id="text_11">
      <!-- −640 -->
      <g style="fill:#262626;" transform="translate(42.4765625 160.9859375)scale(0.1 -0.1)">
       <use xlink:href="#LiberationSans-2212"/>
       <use x="58.3984375" xlink:href="#LiberationSans-36"/>
       <use x="114.013671875" xlink:href="#LiberationSans-34"/>
       <use x="169.62890625" xlink:href="#LiberationSans-30"/>
      </g>
     </g>
    </g>
    <g id="ytick_7">
     <g id="line2d_31">
      <path clip-path="url(#p064a7f153c)" d="M 72 118.8 
L 518.4 118.8 
" style="fill:none;stroke:#ffffff;stroke-linecap:round;"/>
     </g>
     <g id="line2d_32"/>
     <g id="line2d_33"/>
     <g id="text_12">
      <!-- −630 -->
      <g style="fill:#262626;" transform="translate(42.4765625 121.3859375)scale(0.1 -0.1)">
       <use xlink:href="#LiberationSans-2212"/>
       <use x="58.3984375" xlink:href="#LiberationSans-36"/>
       <use x="114.013671875" xlink:href="#LiberationSans-33"/>
       <use x="169.62890625" xlink:href="#LiberationSans-30"/>
      </g>
     </g>
    </g>
    <g id="ytick_8">
     <g id="line2d_34">
      <path clip-path="url(#p064a7f153c)" d="M 72 79.2 
L 518.4 79.2 
" style="fill:none;stroke:#ffffff;stroke-linecap:round;"/>
     </g>
     <g id="line2d_35"/>
     <g id="line2d_36"/>
     <g id="text_13">
      <!-- −620 -->
      <g style="fill:#262626;" transform="translate(42.4765625 81.7859375)scale(0.1 -0.1)">
       <use xlink:href="#LiberationSans-2212"/>
       <use x="58.3984375" xlink:href="#LiberationSans-36"/>
       <use x="114.013671875" xlink:href="#LiberationSans-32"/>
       <use x="169.62890625" xlink:href="#LiberationSans-30"/>
      </g>
     </g>
    </g>
    <g id="ytick_9">
     <g id="line2d_37">
      <path clip-path="url(#p064a7f153c)" d="M 72 39.6 
L 518.4 39.6 
" style="fill:none;stroke:#ffffff;stroke-linecap:round;"/>
     </g>
     <g id="line2d_38"/>
     <g id="line2d_39"/>
     <g id="text_14">
      <!-- −610 -->
      <g style="fill:#262626;" transform="translate(42.4765625 42.1859375)scale(0.1 -0.1)">
       <use xlink:href="#LiberationSans-2212"/>
       <use x="58.3984375" xlink:href="#LiberationSans-36"/>
       <use x="114.013671875" xlink:href="#LiberationSans-31"/>
       <use x="169.62890625" xlink:href="#LiberationSans-30"/>
      </g>
     </g>
    </g>
   </g>
   <g id="line2d_40">
    <path clip-path="url(#p064a7f153c)" d="M 72 234.492994 
L 72.223312 245.204967 
L 72.446623 224.797651 
L 72.669935 234.981509 
L 72.893247 238.981109 
L 73.116558 245.204967 
L 73.33987 237.245367 
L 73.563182 234.981509 
L 73.786493 231.021509 
L 74.009805 241.205367 
L 74.233117 257.659754 
L 74.456428 251.435897 
L 74.67974 251.435897 
L 74.903052 247.436297 
L 75.126363 247.436297 
L 75.349675 251.435897 
L 75.572986 247.436297 
L 75.796298 251.435897 
L 76.01961 245.204967 
L 76.242921 242.941109 
L 76.466233 249.164967 
L 76.689545 238.981109 
L 76.912856 242.941109 
L 77.136168 242.941109 
L 77.35948 248.676451 
L 77.582791 267.355097 
L 77.806103 253.164567 
L 78.029415 259.395497 
L 78.252726 242.941109 
L 78.476038 255.395897 
L 78.69935 251.435897 
L 78.922661 255.395897 
L 79.145973 253.164567 
L 79.369285 246.940709 
L 79.592596 261.124167 
L 79.815908 245.204967 
L 80.03922 238.981109 
L 80.262531 242.941109 
L 80.485843 237.245367 
L 80.709155 241.205367 
L 80.932466 237.245367 
L 81.155778 227.021909 
L 81.37909 224.797651 
L 81.602401 238.981109 
L 81.825713 245.204967 
L 82.049025 241.205367 
L 82.272336 241.205367 
L 82.495648 245.204967 
L 82.718959 245.204967 
L 83.165583 241.205367 
L 83.388894 233.245767 
L 83.612206 235.516697 
L 83.835518 245.700554 
L 84.282141 289.281703 
L 84.505453 279.097845 
L 84.728764 287.057445 
L 84.952076 289.281703 
L 85.398699 289.281703 
L 85.622011 287.057445 
L 85.845323 283.057845 
L 86.068634 295.50556 
L 86.515258 299.50516 
L 86.961881 309.689018 
L 87.185193 305.729018 
L 87.408504 309.689018 
L 87.631816 303.46516 
L 88.078439 303.46516 
L 88.301751 299.50516 
L 88.525063 309.689018 
L 88.748374 311.959948 
L 88.971686 311.959948 
L 89.194997 305.729018 
L 89.418309 307.960348 
L 89.641621 332.862851 
L 89.864932 326.631921 
L 90.311556 339.086709 
L 90.534867 325.431366 
L 90.758179 321.471366 
L 90.981491 325.431366 
L 91.204802 331.655224 
L 91.428114 302.792721 
L 91.651426 307.287909 
L 91.874737 309.023651 
L 92.321361 300.528863 
L 92.544672 292.080748 
L 92.767984 298.304606 
L 92.991296 298.304606 
L 93.214607 308.488463 
L 93.437919 310.752321 
L 93.661231 300.528863 
L 93.884542 308.488463 
L 94.107854 306.224606 
L 94.554477 318.183806 
L 94.777789 315.919948 
L 95.224412 330.103406 
L 95.447724 309.689018 
L 95.894347 319.919548 
L 96.117659 319.919548 
L 96.34097 338.591121 
L 96.564282 336.327263 
L 96.787594 336.327263 
L 97.010905 340.326863 
L 97.234217 350.510721 
L 97.457529 352.781651 
L 97.904152 348.286463 
L 98.127464 338.063006 
L 98.350775 344.286863 
L 98.574087 334.103006 
L 99.02071 340.326863 
L 99.244022 332.367263 
L 99.467334 346.550721 
L 99.690645 344.286863 
L 100.137269 330.103406 
L 100.583892 330.103406 
L 100.807204 336.327263 
L 101.253827 336.327263 
L 101.477139 346.550721 
L 101.70045 340.326863 
L 101.923762 338.063006 
L 102.147074 334.103006 
L 102.370385 325.608218 
L 102.593697 334.103006 
L 102.817009 335.838748 
L 103.04032 346.022606 
L 103.263632 348.286463 
L 103.486943 342.062606 
L 103.710255 346.022606 
L 103.933567 343.798348 
L 104.38019 343.798348 
L 104.603502 327.34396 
L 104.826813 329.607818 
L 105.050125 321.648218 
L 105.273437 321.648218 
L 105.496748 334.103006 
L 105.72006 330.103406 
L 105.943372 330.103406 
L 106.166683 340.326863 
L 106.389995 334.103006 
L 106.613307 340.326863 
L 106.836618 328.367663 
L 107.283242 336.327263 
L 107.506553 328.367663 
L 107.729865 324.407663 
L 107.953177 315.919948 
L 108.3998 322.143806 
L 108.846423 322.143806 
L 109.069735 319.919548 
L 109.293047 319.919548 
L 109.73967 338.063006 
L 109.962981 330.103406 
L 110.186293 336.327263 
L 110.632916 332.367263 
L 110.856228 332.367263 
L 111.302851 307.960348 
L 111.526163 311.959948 
L 111.749475 307.960348 
L 111.972786 301.729418 
L 112.41941 315.919948 
L 112.642721 307.960348 
L 112.866033 311.959948 
L 113.312656 311.959948 
L 113.535968 307.960348 
L 113.75928 314.184206 
L 113.982591 315.919948 
L 114.205903 315.919948 
L 114.429215 322.143806 
L 114.652526 315.919948 
L 114.875838 295.017045 
L 115.09915 307.46476 
L 115.545773 307.46476 
L 115.769085 289.281703 
L 115.992396 295.50556 
L 116.215708 295.50556 
L 116.43902 317.648618 
L 116.662331 295.017045 
L 116.885643 301.240903 
L 117.108954 287.057445 
L 117.555578 307.46476 
L 117.778889 307.46476 
L 118.002201 309.689018 
L 118.448824 330.103406 
L 118.895448 315.919948 
L 119.118759 318.183806 
L 119.565383 335.126709 
L 119.788694 339.086709 
L 120.012006 335.126709 
L 120.235318 339.086709 
L 120.458629 336.862451 
L 120.681941 336.862451 
L 120.905253 324.407663 
L 121.128564 324.407663 
L 121.351876 320.408063 
L 121.575188 314.184206 
L 121.798499 312.448463 
L 122.021811 328.902851 
L 122.245123 328.902851 
L 122.468434 314.712321 
L 122.691746 320.408063 
L 122.915058 316.448063 
L 123.138369 318.672321 
L 123.361681 324.903251 
L 123.584992 314.712321 
L 123.808304 326.631921 
L 124.031616 324.903251 
L 124.254927 314.712321 
L 124.478239 314.712321 
L 124.701551 316.983251 
L 124.924862 309.023651 
L 125.148174 309.023651 
L 125.371486 315.247509 
L 125.594797 306.752721 
L 125.818109 304.528463 
L 126.041421 309.023651 
L 126.264732 310.752321 
L 126.488044 294.305006 
L 126.934667 304.000348 
L 127.381291 292.080748 
L 127.604602 275.62636 
L 127.827914 285.849818 
L 128.274537 279.62596 
L 128.497849 279.62596 
L 128.721161 296.040748 
L 128.944472 289.809818 
L 129.167784 292.080748 
L 129.391096 298.304606 
L 129.614407 300.528863 
L 129.837719 294.305006 
L 130.061031 304.528463 
L 130.284342 296.040748 
L 130.730965 296.040748 
L 130.954277 289.809818 
L 131.624212 289.809818 
L 131.847524 283.58596 
L 132.070835 281.850218 
L 132.294147 292.080748 
L 132.517459 296.040748 
L 132.74077 296.040748 
L 132.964082 288.081148 
L 133.187394 288.081148 
L 133.634017 292.080748 
L 134.08064 292.080748 
L 134.303952 308.488463 
L 134.527264 302.264606 
L 134.973887 315.919948 
L 135.42051 331.839148 
L 135.643822 327.879148 
L 136.090445 313.688618 
L 136.537069 319.919548 
L 136.76038 311.959948 
L 136.983692 314.184206 
L 137.207004 318.183806 
L 137.430315 307.960348 
L 137.653627 311.959948 
L 137.876938 307.960348 
L 138.323562 315.919948 
L 138.770185 305.729018 
L 138.993497 307.960348 
L 139.216808 311.959948 
L 139.44012 307.960348 
L 139.663432 310.224206 
L 139.886743 304.528463 
L 140.110055 304.528463 
L 140.333367 298.304606 
L 140.556678 298.304606 
L 140.77999 290.345006 
L 141.226613 306.752721 
L 141.449925 294.305006 
L 141.673237 298.304606 
L 141.896548 304.528463 
L 142.11986 288.609263 
L 142.566483 292.569263 
L 142.789795 292.569263 
L 143.013107 296.568863 
L 143.236418 292.569263 
L 143.683042 300.528863 
L 143.906353 300.528863 
L 144.129665 294.305006 
L 144.352976 298.304606 
L 144.576288 294.305006 
L 144.7996 292.569263 
L 145.022911 286.345406 
L 145.246223 276.161548 
L 145.469535 284.121148 
L 145.692846 261.442903 
L 145.916158 265.442503 
L 146.13947 281.850218 
L 146.362781 277.890218 
L 146.586093 271.66636 
L 146.809405 285.849818 
L 147.032716 279.62596 
L 147.256028 289.809818 
L 147.47934 289.809818 
L 147.702651 279.62596 
L 147.925963 277.362103 
L 148.149275 285.849818 
L 148.372586 285.849818 
L 148.81921 277.890218 
L 149.042521 285.849818 
L 149.265833 285.849818 
L 149.489145 279.62596 
L 149.712456 283.58596 
L 149.935768 269.402503 
L 150.15908 281.850218 
L 150.382391 281.850218 
L 151.052326 300.528863 
L 151.275638 302.792721 
L 151.498949 296.568863 
L 151.722261 306.752721 
L 152.168884 294.305006 
L 152.392196 296.568863 
L 152.838819 292.569263 
L 153.062131 286.345406 
L 153.285443 288.609263 
L 153.508754 298.793121 
L 153.732066 288.609263 
L 153.955378 284.609663 
L 154.402001 268.690463 
L 154.625313 287.369109 
L 154.848624 285.144851 
L 155.071936 285.144851 
L 155.295248 274.914321 
L 155.741871 268.690463 
L 155.965183 278.913921 
L 156.188494 272.690063 
L 156.411806 278.913921 
L 156.635118 281.145251 
L 157.305053 274.914321 
L 157.528364 285.144851 
L 157.751676 289.104851 
L 157.974987 286.873521 
L 158.198299 289.104851 
L 158.421611 289.104851 
L 158.644922 278.913921 
L 158.868234 289.104851 
L 159.091546 285.144851 
L 159.314857 285.144851 
L 159.538169 281.145251 
L 159.761481 281.145251 
L 159.984792 279.409509 
L 160.208104 275.449509 
L 160.431416 279.409509 
L 160.654727 281.145251 
L 160.878039 293.592966 
L 161.101351 273.185651 
L 161.324662 289.632966 
L 161.547974 287.369109 
L 161.771286 287.369109 
L 161.994597 289.104851 
L 162.217909 283.409109 
L 162.441221 271.449909 
L 162.664532 281.673366 
L 162.887844 275.449509 
L 163.111156 263.490309 
L 163.334467 257.794566 
L 163.557779 245.835366 
L 163.781091 252.059224 
L 164.004402 249.834966 
L 164.227714 253.794966 
L 164.451026 241.875366 
L 164.674337 237.875766 
L 164.897649 231.156321 
L 165.12096 233.387651 
L 165.344272 229.427651 
L 165.567584 231.651909 
L 166.014207 207.277521 
L 166.237519 209.508851 
L 166.46083 203.277921 
L 166.684142 312.406423 
L 166.907454 284.039508 
L 167.130765 235.963172 
L 167.354077 254.641818 
L 167.577389 259.62552 
L 168.024012 239.257805 
L 168.247324 269.320863 
L 168.470635 265.360863 
L 168.693947 269.320863 
L 168.917259 261.361263 
L 169.14057 259.137005 
L 169.810505 271.58472 
L 170.033817 265.849378 
L 170.257129 251.70552 
L 170.48044 259.62552 
L 170.703752 257.401263 
L 170.927064 253.929778 
L 171.150375 253.929778 
L 171.596998 260.688823 
L 171.82031 262.913081 
L 172.043622 269.144011 
L 172.266933 267.408269 
L 172.713557 207.195881 
L 172.936868 223.115081 
L 173.16018 192.307457 
L 173.383492 187.100229 
L 173.606803 195.059829 
L 173.830115 184.875972 
L 174.276738 216.714372 
L 174.50005 207.019029 
L 174.723362 162.909766 
L 174.946673 166.909366 
L 175.169985 181.092823 
L 175.393297 153.926463 
L 175.83992 148.23072 
L 176.063232 148.23072 
L 176.286543 146.494978 
L 176.509855 136.27152 
L 176.733167 142.495378 
L 176.956478 134.535778 
L 177.17979 140.27112 
L 177.403102 162.414178 
L 177.626413 152.19072 
L 177.849725 160.15032 
L 178.073037 145.966863 
L 178.296348 152.19072 
L 178.51966 143.742605 
L 178.966283 111.369018 
L 179.189595 121.592475 
L 179.412906 115.864205 
L 179.636218 134.047263 
L 179.85953 134.535778 
L 180.082841 118.128063 
L 180.306153 116.39232 
L 180.529465 102.697378 
L 180.752776 103.232566 
L 180.976088 102.697378 
L 181.1994 106.696978 
L 181.422711 94.737778 
L 181.646023 100.47312 
L 181.869335 122.616178 
L 182.092646 120.887508 
L 182.315958 110.656978 
L 182.53927 118.616578 
L 182.762581 120.35232 
L 182.985893 120.35232 
L 183.209205 122.088063 
L 183.432516 132.31152 
L 183.655828 107.904605 
L 183.87914 107.904605 
L 184.102451 128.31192 
L 184.325763 122.088063 
L 184.549075 127.823405 
L 184.772386 128.31192 
L 184.995698 126.087663 
L 185.21901 134.535778 
L 185.442321 134.535778 
L 185.665633 130.575778 
L 185.888944 134.535778 
L 186.112256 130.575778 
L 186.558879 130.575778 
L 186.782191 136.806708 
L 187.005503 139.030966 
L 187.228814 122.616178 
L 187.452126 124.847508 
L 187.675438 124.847508 
L 187.898749 139.030966 
L 188.122061 133.335223 
L 188.345373 147.518681 
L 188.568684 147.518681 
L 188.791996 145.254823 
L 189.015308 147.518681 
L 189.238619 141.790411 
L 189.461931 141.790411 
L 189.908554 145.254823 
L 190.131866 145.790011 
L 190.355178 141.790411 
L 190.578489 131.071366 
L 190.801801 135.070966 
L 191.025113 135.070966 
L 191.248424 141.294823 
L 191.471736 135.070966 
L 191.695048 133.335223 
L 191.918359 143.519081 
L 192.141671 139.559081 
L 192.364982 125.375623 
L 192.588294 135.559481 
L 192.811606 121.376023 
L 193.034917 121.376023 
L 193.704852 131.599481 
L 193.928164 127.599881 
L 194.374787 139.559081 
L 194.598099 131.071366 
L 194.821411 133.335223 
L 195.268034 133.335223 
L 195.491346 125.375623 
L 195.714657 135.559481 
L 195.937969 153.749611 
L 196.161281 139.559081 
L 196.384592 149.750011 
L 196.831216 137.830411 
L 197.054527 135.559481 
L 197.277839 129.335623 
L 197.501151 137.830411 
L 197.724462 141.790411 
L 197.947774 141.790411 
L 198.171086 145.790011 
L 198.617709 145.790011 
L 198.841021 149.750011 
L 199.064332 145.790011 
L 199.287644 155.973869 
L 199.734267 162.197726 
L 199.957579 155.973869 
L 200.18089 158.237726 
L 200.627514 153.749611 
L 200.850825 163.437881 
L 201.074137 153.214423 
L 201.297449 155.478281 
L 201.52076 145.254823 
L 202.190695 155.478281 
L 202.414007 155.478281 
L 202.637319 146.990566 
L 202.86063 143.030566 
L 203.307254 161.174023 
L 203.530565 173.133223 
L 203.977189 146.494978 
L 204.2005 144.766308 
L 204.423812 138.535378 
L 204.647124 138.535378 
L 204.870435 144.766308 
L 205.093747 143.030566 
L 205.317059 136.806708 
L 205.54037 144.766308 
L 205.763682 146.990566 
L 205.986993 144.766308 
L 206.210305 148.726308 
L 206.433617 144.766308 
L 206.88024 144.766308 
L 207.103552 152.725908 
L 207.326863 176.604708 
L 207.550175 184.564308 
L 207.996798 168.10992 
L 208.22011 178.333378 
L 208.666733 166.909366 
L 208.890045 169.133623 
L 209.113357 173.133223 
L 209.336668 183.317081 
L 209.55998 185.588011 
L 209.783292 171.397481 
L 210.006603 201.995726 
L 210.453227 193.547611 
L 210.676538 203.731469 
L 210.89985 203.731469 
L 211.123162 191.811869 
L 211.346473 203.731469 
L 211.569785 183.317081 
L 212.016408 197.507611 
L 212.23972 199.236281 
L 212.463032 193.547611 
L 212.686343 193.547611 
L 213.132966 167.397881 
L 213.356278 161.174023 
L 213.57959 169.668811 
L 213.802901 167.397881 
L 214.249525 153.749611 
L 214.472836 153.749611 
L 214.696148 147.518681 
L 214.91946 166.197326 
L 215.142771 163.933469 
L 215.366083 116.39232 
L 215.812706 136.806708 
L 216.036018 134.535778 
L 216.25933 126.576178 
L 216.482641 126.576178 
L 216.705953 162.414178 
L 217.152576 180.06912 
L 217.375888 184.564308 
L 217.5992 200.972023 
L 217.822511 197.012023 
L 218.045823 208.931623 
L 218.269135 196.483908 
L 218.715758 161.390475 
L 219.162381 215.155481 
L 219.385693 214.666966 
L 219.609005 202.707766 
L 220.055628 221.602863 
L 220.278939 215.86752 
L 220.725563 235.78632 
L 220.948874 234.050578 
L 221.172186 257.224411 
L 221.395498 234.050578 
L 221.618809 234.546166 
L 221.842121 226.090978 
L 222.288744 242.010178 
L 222.512056 227.82672 
L 222.735368 236.281908 
L 222.958679 226.090978 
L 223.181991 230.050978 
L 223.405303 231.78672 
L 223.628614 223.82712 
L 223.851926 222.091378 
L 224.075238 230.050978 
L 224.298549 219.86712 
L 224.521861 223.82712 
L 224.745173 223.82712 
L 224.968484 230.050978 
L 225.191796 215.86752 
L 225.415108 218.131378 
L 225.638419 215.86752 
L 225.861731 226.090978 
L 226.085043 219.86712 
L 226.531666 223.82712 
L 226.754977 222.091378 
L 227.201601 246.505366 
L 227.424912 244.769623 
L 227.648224 238.545766 
L 227.871536 239.034281 
L 228.094847 226.586566 
L 228.318159 240.770023 
L 228.541471 240.770023 
L 228.764782 244.769623 
L 229.211406 244.769623 
L 229.434717 240.770023 
L 229.658029 232.321908 
L 229.881341 244.769623 
L 230.104652 240.770023 
L 230.551276 228.322308 
L 230.997899 236.810023 
L 231.221211 234.546166 
L 231.444522 224.362308 
L 231.667834 222.626566 
L 231.891146 224.362308 
L 232.337769 224.362308 
L 232.561081 228.322308 
L 233.007704 228.322308 
L 233.231016 234.546166 
L 233.454327 228.322308 
L 233.677639 218.131378 
L 234.347574 230.586166 
L 234.570885 220.362708 
L 234.794197 230.586166 
L 235.017509 234.546166 
L 235.24082 224.362308 
L 235.464132 234.546166 
L 235.687444 224.362308 
L 235.910755 224.362308 
L 236.134067 226.586566 
L 236.58069 220.362708 
L 236.804002 226.586566 
L 237.027314 228.850423 
L 237.250625 222.626566 
L 237.473937 232.810423 
L 237.697249 228.850423 
L 237.92056 232.810423 
L 238.143872 232.810423 
L 238.367184 222.626566 
L 238.590495 232.810423 
L 238.813807 236.810023 
L 239.26043 236.810023 
L 239.483742 222.626566 
L 239.707054 224.850823 
L 239.930365 218.626966 
L 240.153677 222.626566 
L 240.376988 228.850423 
L 240.6003 228.850423 
L 240.823612 224.850823 
L 241.046923 216.891223 
L 241.270235 229.346011 
L 241.716858 212.931223 
L 241.94017 219.155081 
L 242.163482 208.931623 
L 242.386793 216.891223 
L 242.610105 212.931223 
L 242.833417 223.115081 
L 243.28004 223.115081 
L 243.503352 229.346011 
L 243.726663 223.115081 
L 243.949975 223.115081 
L 244.173287 220.890823 
L 244.396598 227.114681 
L 245.066533 211.195481 
L 245.289845 219.155081 
L 245.513157 223.115081 
L 245.736468 216.891223 
L 245.95978 220.890823 
L 246.406403 239.034281 
L 246.629715 227.114681 
L 246.853027 227.114681 
L 247.076338 244.769623 
L 247.29965 243.033881 
L 247.522961 236.810023 
L 247.746273 243.033881 
L 247.969585 243.033881 
L 248.192896 249.264811 
L 248.416208 239.034281 
L 248.63952 243.033881 
L 248.862831 240.770023 
L 249.086143 234.546166 
L 249.309455 246.993881 
L 249.532766 243.033881 
L 249.756078 236.810023 
L 249.97939 236.810023 
L 250.202701 243.033881 
L 250.426013 245.265211 
L 250.649325 249.264811 
L 250.872636 249.264811 
L 251.095948 247.529069 
L 251.765883 247.529069 
L 251.989195 239.569469 
L 252.212506 241.793726 
L 252.435818 245.793326 
L 252.882441 245.793326 
L 253.329065 260.472372 
L 253.552376 250.288514 
L 253.775688 252.512772 
L 253.998999 250.777029 
L 254.445623 250.777029 
L 254.668934 244.553172 
L 254.892246 242.328914 
L 255.338869 234.369314 
L 255.562181 234.369314 
L 255.785493 232.633572 
L 256.008804 232.633572 
L 256.232116 236.593572 
L 256.455428 232.633572 
L 256.678739 234.369314 
L 256.902051 232.105457 
L 257.125363 228.145457 
L 257.348674 238.329314 
L 257.571986 229.874126 
L 257.795298 246.288914 
L 258.018609 236.105057 
L 258.241921 232.105457 
L 258.465233 236.105057 
L 258.688544 242.328914 
L 258.911856 238.329314 
L 259.135168 238.329314 
L 259.581791 258.736629 
L 259.805103 256.512372 
L 260.028414 246.288914 
L 260.251726 242.328914 
L 260.475038 246.288914 
L 260.698349 242.328914 
L 260.921661 248.024657 
L 261.144972 263.943857 
L 261.591596 249.753326 
L 261.814907 247.529069 
L 262.038219 221.386411 
L 262.484842 237.833726 
L 262.708154 227.610269 
L 262.931466 229.874126 
L 263.154777 221.386411 
L 263.378089 221.386411 
L 263.601401 227.610269 
L 263.824712 229.874126 
L 264.048024 225.874526 
L 264.271336 236.105057 
L 264.717959 219.650669 
L 264.941271 233.834126 
L 265.164582 225.386011 
L 265.387894 221.386411 
L 265.611206 215.155481 
L 265.834517 241.793726 
L 266.057829 225.386011 
L 266.281141 231.609869 
L 266.504452 227.610269 
L 266.951076 254.248514 
L 267.174387 78.701971 
L 267.621011 206.055571 
L 268.067634 220.239029 
L 268.290945 193.600783 
L 268.514257 202.095571 
L 268.737569 201.560383 
L 268.96088 229.934371 
L 269.184192 235.623041 
L 269.407504 247.582241 
L 269.630815 243.582641 
L 269.854127 236.158229 
L 270.077439 236.646744 
L 270.30075 255.860577 
L 270.524062 259.324989 
L 270.747374 257.589247 
L 270.970685 261.549247 
L 271.193997 271.779777 
L 271.64062 248.605944 
L 271.863932 261.060732 
L 272.087244 236.646744 
L 272.310555 237.181932 
L 272.533867 233.221932 
L 272.757179 235.446189 
L 272.98049 231.486189 
L 273.203802 223.526589 
L 273.427114 205.871647 
L 273.650425 210.366834 
L 273.873737 202.718898 
L 274.097049 130.593983 
L 274.32036 147.001698 
L 274.543672 135.082098 
L 274.766983 140.77784 
L 274.990295 172.61624 
L 275.213607 186.271583 
L 275.66023 198.719298 
L 276.106853 198.719298 
L 276.330165 204.950228 
L 276.553477 198.719298 
L 276.776788 204.45464 
L 277.0001 196.49504 
L 277.223412 200.45504 
L 277.446723 208.949828 
L 277.893347 194.759298 
L 278.116658 186.271583 
L 278.33997 198.719298 
L 278.563282 182.311583 
L 278.786593 194.231183 
L 279.233217 182.311583 
L 279.456528 186.799698 
L 280.126463 215.173686 
L 280.349775 221.397543 
L 280.573087 209.438343 
L 280.796398 215.662201 
L 281.01971 227.621401 
L 281.243022 227.621401 
L 281.689645 244.036189 
L 281.912956 270.178846 
L 282.136268 255.995389 
L 282.35958 255.995389 
L 282.582891 245.771931 
L 282.806203 245.771931 
L 283.029515 251.995789 
L 283.252826 241.276743 
L 283.476138 241.276743 
L 283.69945 251.500201 
L 283.922761 241.276743 
L 284.146073 237.316743 
L 284.369385 247.500601 
L 284.592696 249.771531 
L 284.816008 239.541001 
L 285.03932 243.540601 
L 285.262631 237.316743 
L 285.485943 243.540601 
L 285.709255 243.540601 
L 285.932566 245.771931 
L 286.155878 241.811931 
L 286.37919 244.036189 
L 286.602501 240.076189 
L 286.825813 254.259646 
L 287.049125 237.812331 
L 287.272436 244.036189 
L 287.71906 237.812331 
L 287.942371 248.035789 
L 288.165683 244.036189 
L 288.835618 244.036189 
L 289.058929 250.260046 
L 289.282241 266.714434 
L 289.505553 262.714834 
L 289.728864 266.714434 
L 289.952176 276.898292 
L 290.175488 276.402704 
L 290.398799 290.058046 
L 290.622111 314.472034 
L 290.845423 310.472434 
L 291.068734 333.143607 
L 291.515358 292.321904 
L 291.738669 296.281904 
L 291.961981 305.977246 
L 292.185293 299.753389 
L 292.408604 303.752989 
L 292.631916 289.569531 
L 293.078539 317.936446 
L 293.301851 297.529131 
L 293.525163 289.569531 
L 293.748474 299.753389 
L 293.971786 291.793789 
L 294.195098 300.281504 
L 294.418409 298.017646 
L 294.641721 302.017246 
L 294.865033 312.201104 
L 295.088344 304.241504 
L 295.311656 308.241104 
L 295.534967 314.472034 
L 295.758279 316.696292 
L 295.981591 306.512434 
L 296.204902 318.960149 
L 296.428214 300.777092 
L 296.651526 302.512834 
L 297.098149 317.224407 
L 297.321461 321.719595 
L 297.544772 319.455737 
L 297.768084 297.305607 
L 297.991396 307.536137 
L 298.214707 301.305207 
L 298.438019 307.536137 
L 298.661331 303.536537 
L 298.884642 305.800395 
L 299.107954 305.800395 
L 299.331266 317.719995 
L 299.554577 319.983852 
L 299.777889 323.943852 
L 300.001201 340.39824 
L 300.224512 318.24811 
L 300.447824 322.743298 
L 300.671136 310.28851 
L 301.117759 318.743698 
L 301.341071 326.703298 
L 301.564382 312.51984 
L 301.787694 322.743298 
L 302.011006 318.743698 
L 302.234317 321.007555 
L 302.68094 331.198485 
L 302.904252 328.967155 
L 303.350875 337.422343 
L 303.574187 333.462343 
L 304.02081 356.100988 
L 304.244122 331.198485 
L 304.690745 345.381943 
L 304.914057 343.157685 
L 305.137369 332.927155 
L 305.36068 339.158085 
L 305.583992 332.927155 
L 305.807304 314.24851 
L 306.030615 330.16771 
L 306.253927 328.43904 
L 306.477239 324.47904 
L 306.70055 326.703298 
L 306.923862 326.703298 
L 307.147174 330.702898 
L 307.370485 322.743298 
L 307.593797 322.743298 
L 307.817109 330.702898 
L 308.04042 330.702898 
L 308.263732 326.703298 
L 308.487044 318.24811 
L 308.710355 324.47904 
L 308.933667 326.703298 
L 309.38029 320.47944 
L 309.603602 322.743298 
L 310.050225 331.198485 
L 310.496848 331.198485 
L 310.72016 339.158085 
L 311.166783 335.198085 
L 311.390095 321.503143 
L 311.613407 325.502743 
L 311.836718 325.502743 
L 312.06003 329.462743 
L 312.283342 328.967155 
L 312.506653 336.926755 
L 312.729965 326.703298 
L 312.953277 332.927155 
L 313.176588 323.238885 
L 313.3999 329.462743 
L 313.623212 323.238885 
L 313.846523 325.502743 
L 314.069835 315.279285 
L 314.293147 327.727001 
L 314.516458 313.543543 
L 314.963082 331.726601 
L 315.186393 327.727001 
L 315.409705 327.727001 
L 315.633017 335.686601 
L 315.856328 317.007955 
L 316.07964 319.278885 
L 316.302951 329.462743 
L 316.526263 325.502743 
L 316.749575 329.462743 
L 316.972886 329.462743 
L 317.196198 325.502743 
L 317.41951 311.319285 
L 317.642821 225.099052 
L 317.866133 221.139052 
L 318.089445 229.587167 
L 318.312756 254.001155 
L 318.536068 250.001555 
L 318.75938 250.001555 
L 318.982691 245.506367 
L 319.206003 257.961155 
L 319.429315 280.6394 
L 319.652626 249.505967 
L 319.875938 257.465567 
L 320.09925 281.839955 
L 320.322561 269.385167 
L 320.545873 273.880355 
L 320.769185 267.656497 
L 320.992496 257.465567 
L 321.215808 253.465967 
L 321.43912 204.196149 
L 321.662431 224.603464 
L 321.885743 222.339606 
L 322.109055 242.753994 
L 322.332366 238.793994 
L 322.555678 241.018252 
L 322.778989 241.018252 
L 323.002301 239.282509 
L 323.225613 233.058652 
L 323.448924 235.322509 
L 323.895548 210.915594 
L 324.118859 216.643864 
L 324.342171 204.684664 
L 324.565483 181.341052 
L 324.788794 175.117194 
L 325.012106 179.116794 
L 325.235418 175.117194 
L 325.682041 189.300652 
L 325.905353 207.444109 
L 326.128664 205.708367 
L 326.575288 209.707967 
L 326.798599 205.708367 
L 327.021911 215.938897 
L 327.245223 206.243555 
L 327.915158 212.467412 
L 328.138469 216.467012 
L 328.361781 218.163155 
L 328.585093 210.243155 
L 328.808404 208.507412 
L 329.031716 192.060097 
L 329.255028 210.243155 
L 329.478339 189.828767 
L 329.701651 222.162755 
L 329.924962 209.707967 
L 330.148274 227.858497 
L 330.371586 215.938897 
L 330.818209 230.122355 
L 331.041521 218.163155 
L 331.264832 226.657943 
L 331.488144 224.387012 
L 331.711456 228.386612 
L 331.934767 234.617543 
L 332.158079 256.7606 
L 332.604702 226.122755 
L 332.828014 236.346212 
L 333.051326 238.081955 
L 333.274637 230.122355 
L 333.497949 236.346212 
L 333.721261 232.346612 
L 333.944572 244.8014 
L 334.167884 244.8014 
L 334.391196 230.617943 
L 334.614507 236.346212 
L 334.837819 238.577543 
L 335.061131 234.617543 
L 335.284442 236.8418 
L 335.507754 243.065658 
L 335.954377 278.726806 
L 336.177689 256.048561 
L 336.401001 267.968161 
L 336.624312 272.502948 
L 336.847624 262.272418 
L 337.294247 270.232018 
L 337.517559 270.232018 
L 337.74087 268.503348 
L 337.964182 260.048161 
L 338.187494 266.272018 
L 338.410805 262.272418 
L 338.634117 276.462948 
L 338.857429 276.462948 
L 339.08074 288.910664 
L 339.304052 288.910664 
L 339.527364 287.174921 
L 339.750675 269.031464 
L 339.973987 263.296121 
L 340.197299 261.071864 
L 340.42061 267.295721 
L 340.643922 279.750509 
L 340.867234 277.486651 
L 341.090545 279.750509 
L 341.537169 261.567451 
L 341.76048 267.791309 
L 341.983792 262.095567 
L 342.207104 259.831709 
L 342.430415 263.831309 
L 342.653727 263.831309 
L 342.877039 267.791309 
L 343.10035 255.871709 
L 343.323662 259.831709 
L 343.546973 255.871709 
L 343.770285 259.831709 
L 343.993597 270.055167 
L 344.216908 272.279424 
L 344.44022 276.279024 
L 344.663532 270.055167 
L 344.886843 270.055167 
L 345.110155 262.095567 
L 345.556778 281.974767 
L 345.78009 274.015167 
L 346.003402 246.176367 
L 346.226713 258.095967 
L 346.450025 251.872109 
L 346.673337 235.952909 
L 346.896648 249.647851 
L 347.11996 254.135967 
L 347.343272 250.136367 
L 347.566583 256.360224 
L 347.789895 229.729051 
L 348.013207 239.952509 
L 348.236518 221.769451 
L 348.683142 231.992909 
L 348.906453 213.314264 
L 349.129765 205.354664 
L 349.353077 205.354664 
L 350.023012 215.538521 
L 350.246323 199.619321 
L 350.469635 191.659721 
L 350.692946 199.619321 
L 350.916258 216.073709 
L 351.13957 193.395464 
L 351.362881 199.619321 
L 351.586193 201.355064 
L 351.809505 199.619321 
L 352.032816 193.395464 
L 352.256128 181.475864 
L 352.47944 191.659721 
L 352.702751 191.659721 
L 352.926063 221.769451 
L 353.149375 235.457321 
L 353.372686 241.153064 
L 353.595998 243.416921 
L 353.81931 279.215321 
L 354.042621 275.255321 
L 354.265933 279.215321 
L 354.489245 287.710109 
L 354.935868 269.527051 
L 355.382491 307.054121 
L 355.829115 270.232018 
L 356.052426 280.951064 
L 356.49905 288.910664 
L 356.722361 288.910664 
L 356.945673 278.726806 
L 357.168984 304.301748 
L 357.392296 286.151218 
L 357.615608 283.887361 
L 357.838919 275.927761 
L 358.062231 261.744303 
L 358.285543 269.703903 
L 358.508854 249.289515 
L 358.732166 243.065658 
L 358.955478 251.560446 
L 359.178789 249.289515 
L 359.402101 265.208715 
L 359.625413 262.984458 
L 359.848724 265.208715 
L 360.072036 281.127915 
L 360.295348 269.208315 
L 360.518659 265.208715 
L 360.741971 285.127515 
L 361.635218 257.249115 
L 361.858529 253.289115 
L 362.305153 239.105658 
L 362.528464 249.289515 
L 362.751776 247.600446 
L 362.975088 233.409915 
L 363.198399 235.641246 
L 363.645023 257.249115 
L 363.868334 245.329515 
L 364.091646 249.289515 
L 364.538269 236.8418 
L 364.761581 243.065658 
L 364.984892 269.208315 
L 365.208204 270.944058 
L 365.431516 278.903658 
L 365.654827 281.127915 
L 365.878139 289.087515 
L 366.101451 266.944458 
L 366.548074 277.167915 
L 366.771386 281.127915 
L 366.994697 273.168315 
L 367.218009 281.127915 
L 367.441321 273.168315 
L 367.664632 273.168315 
L 367.887944 257.465567 
L 368.111256 294.294743 
L 368.334567 292.063412 
L 368.557879 284.103812 
L 368.781191 260.937052 
L 369.004502 264.897052 
L 369.451126 240.522664 
L 369.674437 256.937452 
L 369.897749 256.937452 
L 370.121061 260.937052 
L 370.567684 248.977852 
L 370.790995 253.465967 
L 371.014307 260.225012 
L 371.237619 254.001155 
L 371.684242 278.375543 
L 371.907554 278.375543 
L 372.130865 274.415543 
L 372.354177 278.903658 
L 372.8008 299.318046 
L 373.024112 299.318046 
L 373.247424 284.5994 
L 373.470735 282.375143 
L 373.694047 297.047115 
L 373.917359 288.599 
L 374.14067 288.599 
L 374.363982 296.5586 
L 374.587294 286.335143 
L 374.810605 284.103812 
L 375.033917 273.880355 
L 375.257229 269.920355 
L 375.48054 269.920355 
L 375.927164 241.546367 
L 376.150475 255.736897 
L 376.373787 255.736897 
L 376.597099 251.737297 
L 376.82041 241.546367 
L 377.043722 257.961155 
L 377.267034 255.736897 
L 377.490345 247.242109 
L 377.713657 249.505967 
L 378.16028 261.960755 
L 378.383592 251.737297 
L 378.606903 254.001155 
L 378.830215 260.225012 
L 379.053527 261.960755 
L 379.50015 272.144612 
L 379.723462 259.696897 
L 379.946773 267.656497 
L 380.170085 267.656497 
L 380.393397 277.879955 
L 380.616708 271.656097 
L 380.84002 279.615697 
L 381.063332 271.656097 
L 381.286643 283.575697 
L 381.509955 303.983012 
L 381.733267 279.615697 
L 381.956578 277.344767 
L 382.17989 287.575297 
L 382.403202 279.615697 
L 382.626513 281.344367 
L 383.073137 291.535297 
L 383.296448 303.494497 
L 383.51976 285.304367 
L 383.743072 289.799555 
L 383.966383 289.799555 
L 384.413007 296.023412 
L 384.85963 277.344767 
L 385.082941 281.839955 
L 385.306253 283.575697 
L 385.976188 298.294343 
L 386.1995 290.334743 
L 386.422811 298.294343 
L 386.646123 294.294743 
L 386.869435 300.023012 
L 387.092746 312.4778 
L 387.316058 298.294343 
L 387.762681 294.294743 
L 387.985993 290.334743 
L 388.209305 298.294343 
L 388.655928 285.839555 
L 389.102551 293.799155 
L 389.325863 300.023012 
L 389.995798 280.104212 
L 390.21911 280.104212 
L 390.665733 294.294743 
L 390.889045 292.063412 
L 391.112356 288.063812 
L 391.335668 294.294743 
L 391.558979 294.294743 
L 391.782291 284.103812 
L 392.005603 281.839955 
L 392.228914 289.799555 
L 392.675538 281.839955 
L 392.898849 284.103812 
L 393.122161 277.879955 
L 393.345473 290.334743 
L 393.792096 285.839555 
L 394.015408 289.799555 
L 394.238719 285.839555 
L 394.462031 292.063412 
L 394.685343 292.063412 
L 394.908654 301.758755 
L 395.131966 301.758755 
L 395.355278 287.575297 
L 395.801901 297.759155 
L 396.025213 289.799555 
L 396.248524 300.023012 
L 396.918459 271.656097 
L 397.141771 267.656497 
L 397.365083 277.879955 
L 397.588394 277.879955 
L 397.811706 273.880355 
L 398.035018 274.415543 
L 398.258329 274.415543 
L 398.481641 278.375543 
L 398.704952 278.375543 
L 398.928264 274.415543 
L 399.151576 257.961155 
L 399.374887 276.144212 
L 399.598199 272.144612 
L 399.821511 276.144212 
L 400.044822 276.144212 
L 400.268134 282.375143 
L 400.491446 272.144612 
L 400.938069 298.782858 
L 401.161381 288.599 
L 401.384692 294.294743 
L 401.608004 293.799155 
L 401.831316 283.575697 
L 402.054627 279.615697 
L 402.277939 283.575697 
L 402.501251 281.344367 
L 402.724562 281.839955 
L 402.947874 273.384767 
L 403.171186 277.879955 
L 403.394497 288.063812 
L 403.841121 294.294743 
L 404.064432 302.254343 
L 404.511056 294.294743 
L 404.734367 298.782858 
L 404.957679 317.461503 
L 405.18099 317.461503 
L 405.404302 329.909218 
L 405.627614 311.237646 
L 405.850925 317.461503 
L 406.074237 319.725361 
L 406.52086 304.301748 
L 406.744172 316.749464 
L 406.967484 294.606406 
L 407.190795 288.910664 
L 407.414107 300.830264 
L 407.637419 288.382548 
L 407.86073 296.870264 
L 408.084042 294.606406 
L 408.307354 272.502948 
L 408.530665 274.727206 
L 408.753977 290.646406 
L 408.977289 278.191618 
L 409.2006 282.151618 
L 409.423912 292.382148 
L 409.647224 278.191618 
L 410.093847 288.382548 
L 410.317159 282.151618 
L 410.54047 284.422548 
L 410.763782 282.151618 
L 410.987094 288.382548 
L 411.210405 282.686806 
L 411.433717 292.870664 
L 411.657029 278.726806 
L 411.88034 295.134521 
L 412.103652 288.910664 
L 412.550275 295.669709 
L 412.773587 299.094521 
L 412.996898 296.870264 
L 413.22021 324.709064 
L 413.443522 310.525606 
L 413.666833 312.261348 
L 413.890145 312.261348 
L 414.113457 302.070418 
L 414.336768 310.525606 
L 414.56008 314.525206 
L 414.783392 312.789464 
L 415.006703 290.111218 
L 415.230015 298.606006 
L 415.453327 302.566006 
L 415.676638 300.341748 
L 415.89995 290.646406 
L 416.123262 294.606406 
L 416.346573 288.910664 
L 416.569885 254.848006 
L 416.793197 263.296121 
L 417.016508 267.295721 
L 417.23982 267.791309 
L 417.463132 269.527051 
L 417.686443 274.015167 
L 417.909755 271.790909 
L 418.133067 275.439246 
L 418.57969 302.070418 
L 419.026313 274.904058 
L 419.249625 264.7202 
L 419.472936 289.622703 
L 419.696248 281.127915 
L 419.91956 279.399246 
L 420.142871 273.168315 
L 420.366183 260.7206 
L 420.812806 274.904058 
L 421.036118 277.167915 
L 421.25943 287.358846 
L 421.482741 283.398846 
L 421.706053 277.167915 
L 421.929365 289.622703 
L 422.152676 293.582703 
L 422.375988 313.990018 
L 422.5993 306.030418 
L 422.822611 306.030418 
L 423.269235 321.461103 
L 423.492546 307.277646 
L 423.715858 331.644961 
L 423.93917 312.966315 
L 424.162481 329.420703 
L 424.385793 323.196846 
L 424.609105 320.925915 
L 424.832416 328.397 
L 425.055728 316.965915 
L 425.27904 316.965915 
L 425.502351 319.197246 
L 425.948974 312.966315 
L 426.172286 310.742058 
L 426.618909 315.237246 
L 426.842221 310.742058 
L 427.065533 312.966315 
L 427.288844 309.006315 
L 427.512156 319.197246 
L 427.735468 309.006315 
L 427.958779 309.006315 
L 428.182091 286.863258 
L 428.405403 284.5994 
L 428.628714 265.920755 
L 428.852026 269.920355 
L 429.075338 269.920355 
L 429.298649 263.161309 
L 429.521961 265.425167 
L 429.745273 263.696497 
L 429.968584 267.656497 
L 430.191896 265.425167 
L 430.415208 271.656097 
L 430.638519 271.656097 
L 430.861831 265.425167 
L 431.531766 284.103812 
L 431.755078 284.103812 
L 431.978389 290.334743 
L 432.425013 277.879955 
L 432.648324 279.615697 
L 433.094947 252.442264 
L 433.764882 228.074949 
L 433.988194 238.258806 
L 434.211506 236.034549 
L 434.434817 225.811091 
L 434.658129 229.810691 
L 434.881441 216.827788 
L 435.104752 262.849646 
L 435.328064 254.890046 
L 435.551376 265.113504 
L 435.774687 261.113904 
L 435.997999 244.706188 
L 436.221311 249.194304 
L 436.444622 249.194304 
L 436.667934 263.377761 
L 436.891246 242.970446 
L 437.114557 246.930446 
L 437.337869 246.930446 
L 437.561181 232.251401 
L 437.784492 230.515658 
L 438.007804 222.027943 
L 438.231116 219.803685 
L 438.454427 219.803685 
L 438.677739 222.027943 
L 439.124362 214.068343 
L 439.347674 222.556058 
L 439.570985 218.556458 
L 439.794297 238.970846 
L 440.017609 241.234704 
L 440.24092 247.458561 
L 440.464232 237.235104 
L 440.687544 255.913749 
L 440.910855 263.873349 
L 441.134167 245.194704 
L 441.804102 261.113904 
L 442.027414 259.378161 
L 442.250725 265.609091 
L 442.474037 255.418161 
L 442.697349 251.418561 
L 442.92066 249.689891 
L 443.143972 237.235104 
L 443.367284 233.275104 
L 443.590595 235.499361 
L 443.813907 227.051246 
L 444.037219 213.356304 
L 444.26053 211.132046 
L 444.707154 225.811091 
L 444.930465 223.579761 
L 445.153777 233.770691 
L 445.377089 229.810691 
L 445.6004 223.579761 
L 445.823712 229.810691 
L 446.047024 231.539361 
L 446.270335 237.770291 
L 446.493647 229.810691 
L 446.716958 233.770691 
L 446.94027 233.770691 
L 447.163582 225.315504 
L 447.386893 208.868188 
L 447.610205 219.091646 
L 447.833517 223.051646 
L 448.056828 212.867788 
L 448.28014 231.011246 
L 448.503452 235.010846 
L 448.726763 245.729891 
L 448.950075 243.458961 
L 449.173387 247.458561 
L 449.396698 247.458561 
L 449.62001 251.418561 
L 449.843322 241.234704 
L 450.066633 238.970846 
L 450.289945 233.275104 
L 450.736568 243.458961 
L 451.406503 227.539761 
L 451.629815 254.178006 
L 451.853127 262.672794 
L 452.076438 260.401864 
L 452.29975 279.080509 
L 452.523062 283.080109 
L 452.969685 275.120509 
L 453.192996 275.120509 
L 453.416308 279.080509 
L 453.63962 280.816252 
L 453.862931 287.040109 
L 454.086243 280.816252 
L 454.309555 292.775452 
L 454.532866 294.999709 
L 454.756178 292.775452 
L 454.97949 288.775852 
L 455.202801 291.039709 
L 455.872736 280.816252 
L 456.31936 291.039709 
L 456.542671 291.039709 
L 456.765983 293.263967 
L 457.212606 293.263967 
L 457.435918 299.494897 
L 457.65923 289.303967 
L 457.882541 291.535297 
L 458.105853 299.494897 
L 458.329165 297.263567 
L 458.552476 299.494897 
L 458.775788 291.535297 
L 458.9991 299.494897 
L 459.222411 295.534897 
L 459.445723 299.494897 
L 460.115658 287.040109 
L 460.338969 287.040109 
L 460.562281 272.361064 
L 461.232216 290.511594 
L 461.455528 284.815852 
L 461.902151 295.534897 
L 462.125463 293.263967 
L 462.348774 299.494897 
L 462.572086 289.303967 
L 462.795398 295.534897 
L 463.018709 295.534897 
L 463.242021 305.718755 
L 463.465333 305.718755 
L 463.688644 301.758755 
L 463.911956 301.758755 
L 464.358579 287.575297 
L 464.581891 291.535297 
L 464.805203 303.494497 
L 465.028514 305.718755 
L 465.251826 295.534897 
L 465.475138 311.942612 
L 465.698449 311.942612 
L 465.921761 307.982612 
L 466.145073 314.213543 
L 466.591696 294.294743 
L 466.815008 272.144612 
L 467.038319 286.335143 
L 467.261631 292.559 
L 468.154877 262.456343 
L 468.378189 172.492561 
L 468.601501 170.756818 
L 468.824812 166.268703 
L 469.048124 170.756818 
L 469.271436 199.619321 
L 469.494747 203.618921 
L 469.718059 174.228303 
L 469.941371 192.371761 
L 470.164682 168.004446 
L 470.387994 175.428858 
L 470.611306 173.693115 
L 470.834617 173.693115 
L 471.057929 190.147503 
L 471.281241 171.964446 
L 471.504552 175.964046 
L 471.727864 163.509258 
L 471.951176 181.652715 
L 472.174487 166.980743 
L 472.397799 122.864406 
L 472.621111 121.128664 
L 472.844422 139.807309 
L 473.067734 137.583052 
L 473.291046 127.359594 
L 473.514357 131.847709 
L 473.737669 133.583452 
L 473.96098 133.583452 
L 474.184292 125.623852 
L 474.630915 146.031167 
L 475.077539 128.383297 
L 475.30085 154.525955 
L 475.524162 146.566355 
L 475.747474 134.111567 
L 475.970785 140.342497 
L 476.194097 166.445555 
L 476.417409 157.990367 
L 476.64072 139.318794 
L 476.864032 131.359194 
L 477.087344 137.583052 
L 477.310655 133.583452 
L 477.533967 149.502652 
L 477.757279 150.030767 
L 477.98059 150.030767 
L 478.203902 143.806909 
L 478.427214 143.806909 
L 478.650525 131.847709 
L 479.097149 144.302497 
L 479.32046 138.071567 
L 479.543772 146.031167 
L 479.767084 146.031167 
L 479.990395 134.111567 
L 480.213707 139.807309 
L 480.437019 150.030767 
L 480.66033 142.071167 
L 480.883642 139.807309 
L 481.106953 130.111967 
L 481.553577 150.030767 
L 481.776888 146.031167 
L 482.0002 153.990767 
L 482.223512 153.990767 
L 482.446823 150.030767 
L 482.670135 143.806909 
L 483.116758 153.990767 
L 483.34007 156.261697 
L 483.563382 153.990767 
L 483.786693 153.990767 
L 484.233317 164.709812 
L 484.456628 175.428858 
L 484.67994 179.428458 
L 484.903252 187.388058 
L 485.126563 178.900343 
L 485.573187 209.003 
L 485.796498 216.9626 
L 486.01981 188.100097 
L 486.466433 207.979297 
L 486.689745 197.788367 
L 487.136368 166.662006 
L 487.35968 158.174291 
L 487.582991 164.398149 
L 487.806303 178.581606 
L 488.029615 166.662006 
L 488.476238 176.845864 
L 488.69955 181.341052 
L 488.922861 175.117194 
L 489.146173 191.036394 
L 489.592796 172.885864 
L 489.816108 183.076794 
L 490.03942 168.358149 
L 490.262731 180.805864 
L 490.486043 176.845864 
L 490.709355 170.622006 
L 491.155978 191.564509 
L 491.37929 185.340652 
L 492.049225 197.260252 
L 492.272536 194.996394 
L 492.495848 184.805464 
L 492.71916 182.541606 
L 492.942471 187.036794 
L 493.389095 174.582006 
L 493.612406 151.943361 
L 493.835718 160.438149 
L 494.05903 176.317749 
L 494.282341 172.357749 
L 494.505653 172.357749 
L 494.728964 178.581606 
L 494.952276 172.357749 
L 495.175588 182.541606 
L 495.622211 155.414846 
L 495.845523 182.758058 
L 496.068834 181.029388 
L 496.292146 195.212846 
L 496.515458 201.932291 
L 496.738769 191.741361 
L 496.962081 191.741361 
L 497.185393 204.196149 
L 497.408704 204.684664 
L 497.632016 200.724664 
L 497.855328 206.955594 
L 498.301951 206.955594 
L 498.525263 194.500806 
L 498.748574 204.196149 
L 498.971886 182.541606 
L 499.418509 202.955994 
L 499.641821 198.995994 
L 499.865133 205.219852 
L 500.088444 202.955994 
L 500.311756 206.955594 
L 500.535068 202.955994 
L 500.758379 192.765064 
L 500.981691 198.995994 
L 501.205003 201.220252 
L 501.428314 194.996394 
L 501.651626 217.667567 
L 501.874937 207.444109 
L 502.098249 209.179852 
L 502.321561 223.363309 
L 502.544872 205.219852 
L 502.768184 221.627567 
L 502.991496 213.667967 
L 503.214807 232.346612 
L 503.438119 228.386612 
L 503.661431 230.617943 
L 503.884742 208.507412 
L 504.108054 220.9622 
L 504.331366 218.698343 
L 504.554677 224.9222 
L 504.777989 240.8414 
L 505.001301 235.145658 
L 505.224612 232.8818 
L 505.447924 255.024858 
L 505.671236 240.8414 
L 505.894547 240.8414 
L 506.117859 238.577543 
L 506.341171 244.8014 
L 506.564482 236.8418 
L 506.787794 224.387012 
L 507.234417 224.387012 
L 507.457729 230.617943 
L 507.681041 222.697943 
L 507.904352 220.427012 
L 508.127664 209.003 
L 508.350975 205.043 
L 508.574287 206.778743 
L 508.797599 213.0026 
L 509.02091 196.548212 
L 509.244222 210.738743 
L 509.467534 216.467012 
L 509.690845 206.778743 
L 510.137469 223.186458 
L 510.36078 205.043 
L 510.584092 199.307658 
L 510.807404 197.0834 
L 511.030715 179.428458 
L 511.254027 179.428458 
L 511.477339 183.388458 
L 511.70065 195.843246 
L 511.923962 220.250161 
L 512.147274 216.250561 
L 512.370585 201.571515 
L 512.593897 207.802446 
L 512.817209 199.842846 
L 513.04052 210.026703 
L 513.263832 210.026703 
L 513.487144 207.802446 
L 513.933767 199.307658 
L 514.157079 221.450715 
L 514.38039 223.186458 
L 514.603702 223.186458 
L 515.050325 239.105658 
L 515.496948 244.128961 
L 515.72026 252.584148 
L 515.943572 242.393218 
L 516.166883 254.312818 
L 516.390195 242.393218 
L 516.613507 242.393218 
L 516.836818 270.767206 
L 517.06013 266.767606 
L 517.506753 303.806161 
L 517.730065 274.904058 
L 517.953377 262.456343 
L 518.176688 256.225412 
L 518.4 287.358846 
L 518.4 287.358846 
" style="fill:none;stroke:#4c72b0;stroke-linecap:round;stroke-width:1.75;"/>
   </g>
   <g id="patch_3">
    <path d="M 72 356.4 
L 518.4 356.4 
" style="fill:none;"/>
   </g>
   <g id="patch_4">
    <path d="M 72 39.6 
L 518.4 39.6 
" style="fill:none;"/>
   </g>
   <g id="patch_5">
    <path d="M 72 356.4 
L 72 39.6 
" style="fill:none;"/>
   </g>
   <g id="patch_6">
    <path d="M 518.4 356.4 
L 518.4 39.6 
" style="fill:none;"/>
   </g>
   <g id="text_15">
    <!-- MA - 0.17860013770750285 * l -->
    <defs>
     <path d="M 9.125 0 
L 9.125 10.6875 
L 18.65625 10.6875 
L 18.65625 0 
z
" id="LiberationSans-2e"/>
     <path d="M 56.984375 0 
L 49.125 20.125 
L 17.78125 20.125 
L 9.859375 0 
L 0.203125 0 
L 28.265625 68.796875 
L 38.875 68.796875 
L 66.5 0 
z
M 37.5 50.09375 
Q 36.71875 52.046875 36 54.046875 
Q 35.296875 56.0625 34.765625 57.6875 
Q 34.234375 59.328125 33.859375 60.421875 
Q 33.5 61.53125 33.453125 61.765625 
Q 33.34375 61.53125 33 60.40625 
Q 32.671875 59.28125 32.109375 57.609375 
Q 31.546875 55.953125 30.828125 53.953125 
Q 30.125 51.953125 29.390625 50 
L 20.609375 27.390625 
L 46.34375 27.390625 
z
" id="LiberationSans-41"/>
     <path d="M 6.734375 0 
L 6.734375 72.46875 
L 15.53125 72.46875 
L 15.53125 0 
z
" id="LiberationSans-6c"/>
     <path d="M 66.703125 0 
L 66.703125 45.90625 
Q 66.703125 48.390625 66.75 50.96875 
Q 66.796875 53.5625 66.890625 55.71875 
Q 67 58.203125 67.140625 60.546875 
Q 66.453125 58.0625 65.71875 55.609375 
Q 65.09375 53.515625 64.328125 51.140625 
Q 63.578125 48.78125 62.84375 46.875 
L 45.0625 0 
L 38.53125 0 
L 20.515625 46.875 
Q 20.21875 47.609375 19.890625 48.578125 
Q 19.578125 49.5625 19.203125 50.65625 
Q 18.84375 51.765625 18.46875 52.90625 
Q 18.109375 54.046875 17.78125 55.171875 
Q 16.9375 57.765625 16.15625 60.546875 
Q 16.21875 57.8125 16.3125 55.125 
Q 16.40625 52.828125 16.453125 50.3125 
Q 16.5 47.796875 16.5 45.90625 
L 16.5 0 
L 8.203125 0 
L 8.203125 68.796875 
L 20.453125 68.796875 
L 38.765625 21.09375 
Q 39.109375 20.125 39.59375 18.578125 
Q 40.09375 17.046875 40.53125 15.421875 
Q 40.96875 13.8125 41.328125 12.375 
Q 41.703125 10.9375 41.84375 10.15625 
Q 42 10.9375 42.390625 12.40625 
Q 42.78125 13.875 43.28125 15.484375 
Q 43.796875 17.09375 44.28125 18.609375 
Q 44.78125 20.125 45.171875 21.09375 
L 63.140625 68.796875 
L 75.09375 68.796875 
L 75.09375 0 
z
" id="LiberationSans-4d"/>
     <path d="M 22.265625 54.390625 
L 35.15625 59.421875 
L 37.359375 52.984375 
L 23.578125 49.421875 
L 32.625 37.203125 
L 26.8125 33.6875 
L 19.484375 46.296875 
L 11.859375 33.796875 
L 6.0625 37.3125 
L 15.28125 49.421875 
L 1.609375 52.984375 
L 3.8125 59.515625 
L 16.84375 54.296875 
L 16.265625 68.796875 
L 22.90625 68.796875 
z
" id="LiberationSans-2a"/>
    </defs>
    <g style="fill:#262626;" transform="translate(212.1459375 34.6)scale(0.12 -0.12)">
     <use xlink:href="#LiberationSans-4d"/>
     <use x="83.30078125" xlink:href="#LiberationSans-41"/>
     <use x="149.921875" xlink:href="#LiberationSans-20"/>
     <use x="177.705078125" xlink:href="#LiberationSans-2d"/>
     <use x="211.005859375" xlink:href="#LiberationSans-20"/>
     <use x="238.7890625" xlink:href="#LiberationSans-30"/>
     <use x="294.404296875" xlink:href="#LiberationSans-2e"/>
     <use x="322.1875" xlink:href="#LiberationSans-31"/>
     <use x="377.802734375" xlink:href="#LiberationSans-37"/>
     <use x="433.41796875" xlink:href="#LiberationSans-38"/>
     <use x="489.033203125" xlink:href="#LiberationSans-36"/>
     <use x="544.6484375" xlink:href="#LiberationSans-30"/>
     <use x="600.263671875" xlink:href="#LiberationSans-30"/>
     <use x="655.87890625" xlink:href="#LiberationSans-31"/>
     <use x="711.494140625" xlink:href="#LiberationSans-33"/>
     <use x="767.109375" xlink:href="#LiberationSans-37"/>
     <use x="822.724609375" xlink:href="#LiberationSans-37"/>
     <use x="878.33984375" xlink:href="#LiberationSans-30"/>
     <use x="933.955078125" xlink:href="#LiberationSans-37"/>
     <use x="989.5703125" xlink:href="#LiberationSans-35"/>
     <use x="1045.185546875" xlink:href="#LiberationSans-30"/>
     <use x="1100.80078125" xlink:href="#LiberationSans-32"/>
     <use x="1156.416015625" xlink:href="#LiberationSans-38"/>
     <use x="1212.03125" xlink:href="#LiberationSans-35"/>
     <use x="1267.646484375" xlink:href="#LiberationSans-20"/>
     <use x="1295.4296875" xlink:href="#LiberationSans-2a"/>
     <use x="1334.345703125" xlink:href="#LiberationSans-20"/>
     <use x="1362.12890625" xlink:href="#LiberationSans-6c"/>
    </g>
   </g>
  </g>
 </g>
 <defs>
  <clipPath id="p064a7f153c">
   <rect height="316.8" width="446.4" x="72.0" y="39.6"/>
  </clipPath>
 </defs>
</svg>
