<?xml version="1.0" encoding="utf-8" standalone="no"?>
<!DOCTYPE svg PUBLIC "-//W3C//DTD SVG 1.1//EN"
  "http://www.w3.org/Graphics/SVG/1.1/DTD/svg11.dtd">
<!-- Created with matplotlib (http://matplotlib.org/) -->
<svg height="396pt" version="1.1" viewBox="0 0 576 396" width="576pt" xmlns="http://www.w3.org/2000/svg" xmlns:xlink="http://www.w3.org/1999/xlink">
 <defs>
  <style type="text/css">
*{stroke-linecap:butt;stroke-linejoin:round;stroke-miterlimit:100000;}
  </style>
 </defs>
 <g id="figure_1">
  <g id="patch_1">
   <path d="M 0 396 
L 576 396 
L 576 0 
L 0 0 
z
" style="fill:#ffffff;"/>
  </g>
  <g id="axes_1">
   <g id="patch_2">
    <path d="M 72 356.4 
L 518.4 356.4 
L 518.4 39.6 
L 72 39.6 
z
" style="fill:#eaeaf2;"/>
   </g>
   <g id="matplotlib.axis_1">
    <g id="xtick_1">
     <g id="line2d_1">
      <path clip-path="url(#p9b436830ef)" d="M 72 356.4 
L 72 39.6 
" style="fill:none;stroke:#ffffff;stroke-linecap:round;"/>
     </g>
     <g id="line2d_2"/>
     <g id="line2d_3"/>
     <g id="text_1">
      <!-- 2016-09-27 09:33:00 -->
      <defs>
       <path d="M 5.03125 0 
L 5.03125 6.203125 
Q 7.515625 11.921875 11.109375 16.28125 
Q 14.703125 20.65625 18.65625 24.1875 
Q 22.609375 27.734375 26.484375 30.765625 
Q 30.375 33.796875 33.5 36.8125 
Q 36.625 39.84375 38.546875 43.15625 
Q 40.484375 46.484375 40.484375 50.6875 
Q 40.484375 53.609375 39.59375 55.828125 
Q 38.71875 58.0625 37.0625 59.5625 
Q 35.40625 61.078125 33.078125 61.828125 
Q 30.765625 62.59375 27.9375 62.59375 
Q 25.296875 62.59375 22.96875 61.859375 
Q 20.65625 61.140625 18.84375 59.671875 
Q 17.046875 58.203125 15.890625 56.03125 
Q 14.75 53.859375 14.40625 50.984375 
L 5.421875 51.8125 
Q 5.859375 55.515625 7.46875 58.78125 
Q 9.078125 62.0625 11.90625 64.53125 
Q 14.75 67 18.71875 68.40625 
Q 22.703125 69.828125 27.9375 69.828125 
Q 33.0625 69.828125 37.0625 68.609375 
Q 41.0625 67.390625 43.8125 64.984375 
Q 46.578125 62.59375 48.046875 59.078125 
Q 49.515625 55.5625 49.515625 50.984375 
Q 49.515625 47.515625 48.265625 44.390625 
Q 47.015625 41.265625 44.9375 38.421875 
Q 42.875 35.59375 40.140625 32.953125 
Q 37.40625 30.328125 34.421875 27.8125 
Q 31.453125 25.296875 28.421875 22.828125 
Q 25.390625 20.359375 22.71875 17.859375 
Q 20.0625 15.375 17.96875 12.8125 
Q 15.875 10.25 14.703125 7.46875 
L 50.59375 7.46875 
L 50.59375 0 
z
" id="LiberationSans-32"/>
       <path d="M 7.625 0 
L 7.625 7.46875 
L 25.140625 7.46875 
L 25.140625 60.40625 
L 9.625 49.3125 
L 9.625 57.625 
L 25.875 68.796875 
L 33.984375 68.796875 
L 33.984375 7.46875 
L 50.734375 7.46875 
L 50.734375 0 
z
" id="LiberationSans-31"/>
       <path d="M 51.703125 34.421875 
Q 51.703125 24.515625 49.828125 17.75 
Q 47.953125 10.984375 44.703125 6.8125 
Q 41.453125 2.640625 37.0625 0.828125 
Q 32.671875 -0.984375 27.6875 -0.984375 
Q 22.65625 -0.984375 18.3125 0.828125 
Q 13.96875 2.640625 10.765625 6.78125 
Q 7.5625 10.9375 5.734375 17.703125 
Q 3.90625 24.46875 3.90625 34.421875 
Q 3.90625 44.828125 5.734375 51.640625 
Q 7.5625 58.453125 10.78125 62.5 
Q 14.015625 66.546875 18.40625 68.1875 
Q 22.796875 69.828125 27.984375 69.828125 
Q 32.90625 69.828125 37.21875 68.1875 
Q 41.546875 66.546875 44.765625 62.5 
Q 48 58.453125 49.84375 51.640625 
Q 51.703125 44.828125 51.703125 34.421875 
M 42.78125 34.421875 
Q 42.78125 42.625 41.796875 48.0625 
Q 40.828125 53.515625 38.921875 56.765625 
Q 37.015625 60.015625 34.25 61.359375 
Q 31.5 62.703125 27.984375 62.703125 
Q 24.265625 62.703125 21.4375 61.328125 
Q 18.609375 59.96875 16.671875 56.71875 
Q 14.75 53.46875 13.765625 48.015625 
Q 12.796875 42.578125 12.796875 34.421875 
Q 12.796875 26.515625 13.796875 21.09375 
Q 14.796875 15.671875 16.71875 12.375 
Q 18.65625 9.078125 21.4375 7.640625 
Q 24.21875 6.203125 27.78125 6.203125 
Q 31.25 6.203125 34.03125 7.640625 
Q 36.8125 9.078125 38.734375 12.375 
Q 40.671875 15.671875 41.71875 21.09375 
Q 42.78125 26.515625 42.78125 34.421875 
" id="LiberationSans-30"/>
       <path d="M 50.875 35.796875 
Q 50.875 26.609375 49.140625 19.703125 
Q 47.40625 12.796875 44.1875 8.203125 
Q 40.96875 3.609375 36.34375 1.3125 
Q 31.734375 -0.984375 25.984375 -0.984375 
Q 22.015625 -0.984375 18.84375 -0.171875 
Q 15.671875 0.640625 13.171875 2.34375 
Q 10.6875 4.046875 8.921875 6.78125 
Q 7.171875 9.515625 6.109375 13.375 
L 14.5 14.703125 
Q 15.875 10.25 18.78125 8.171875 
Q 21.6875 6.109375 26.125 6.109375 
Q 29.6875 6.109375 32.640625 7.78125 
Q 35.59375 9.46875 37.671875 12.84375 
Q 39.75 16.21875 40.921875 21.296875 
Q 42.09375 26.375 42.1875 33.203125 
Q 41.15625 30.90625 39.375 29.09375 
Q 37.59375 27.296875 35.328125 26.046875 
Q 33.0625 24.8125 30.421875 24.140625 
Q 27.78125 23.484375 25.09375 23.484375 
Q 20.40625 23.484375 16.625 25.171875 
Q 12.84375 26.859375 10.203125 29.875 
Q 7.5625 32.90625 6.125 37.171875 
Q 4.6875 41.453125 4.6875 46.6875 
Q 4.6875 52 6.21875 56.296875 
Q 7.765625 60.59375 10.6875 63.59375 
Q 13.625 66.609375 17.890625 68.21875 
Q 22.171875 69.828125 27.59375 69.828125 
Q 39.0625 69.828125 44.96875 61.328125 
Q 50.875 52.828125 50.875 35.796875 
M 41.3125 44.28125 
Q 41.3125 48.09375 40.40625 51.453125 
Q 39.5 54.828125 37.71875 57.3125 
Q 35.9375 59.8125 33.328125 61.25 
Q 30.71875 62.703125 27.296875 62.703125 
Q 24.125 62.703125 21.578125 61.578125 
Q 19.046875 60.453125 17.28125 58.375 
Q 15.53125 56.296875 14.578125 53.3125 
Q 13.625 50.34375 13.625 46.6875 
Q 13.625 43.21875 14.46875 40.234375 
Q 15.328125 37.25 17.03125 35.078125 
Q 18.75 32.90625 21.28125 31.65625 
Q 23.828125 30.421875 27.203125 30.421875 
Q 29.640625 30.421875 32.15625 31.25 
Q 34.671875 32.078125 36.6875 33.78125 
Q 38.71875 35.5 40.015625 38.109375 
Q 41.3125 40.71875 41.3125 44.28125 
" id="LiberationSans-39"/>
       <path d="M 9.125 42.71875 
L 9.125 52.828125 
L 18.65625 52.828125 
L 18.65625 42.71875 
z
M 9.125 0 
L 9.125 10.109375 
L 18.65625 10.109375 
L 18.65625 0 
z
" id="LiberationSans-3a"/>
       <path d="M 51.21875 19 
Q 51.21875 14.265625 49.671875 10.546875 
Q 48.140625 6.84375 45.1875 4.265625 
Q 42.234375 1.703125 37.859375 0.359375 
Q 33.5 -0.984375 27.875 -0.984375 
Q 21.484375 -0.984375 17.109375 0.609375 
Q 12.75 2.203125 9.90625 4.8125 
Q 7.078125 7.421875 5.65625 10.765625 
Q 4.25 14.109375 3.8125 17.671875 
L 12.890625 18.5 
Q 13.28125 15.765625 14.328125 13.515625 
Q 15.375 11.28125 17.1875 9.671875 
Q 19 8.0625 21.625 7.171875 
Q 24.265625 6.296875 27.875 6.296875 
Q 34.515625 6.296875 38.296875 9.5625 
Q 42.09375 12.84375 42.09375 19.28125 
Q 42.09375 23.09375 40.40625 25.40625 
Q 38.71875 27.734375 36.203125 29.03125 
Q 33.6875 30.328125 30.734375 30.765625 
Q 27.78125 31.203125 25.296875 31.203125 
L 20.3125 31.203125 
L 20.3125 38.8125 
L 25.09375 38.8125 
Q 27.59375 38.8125 30.265625 39.328125 
Q 32.953125 39.84375 35.171875 41.1875 
Q 37.40625 42.53125 38.84375 44.828125 
Q 40.28125 47.125 40.28125 50.6875 
Q 40.28125 56.203125 37.03125 59.390625 
Q 33.796875 62.59375 27.390625 62.59375 
Q 21.578125 62.59375 17.984375 59.609375 
Q 14.40625 56.640625 13.8125 51.21875 
L 4.984375 51.90625 
Q 5.515625 56.453125 7.46875 59.8125 
Q 9.421875 63.1875 12.421875 65.40625 
Q 15.4375 67.625 19.28125 68.71875 
Q 23.140625 69.828125 27.484375 69.828125 
Q 33.25 69.828125 37.390625 68.375 
Q 41.546875 66.9375 44.1875 64.46875 
Q 46.828125 62.015625 48.0625 58.6875 
Q 49.3125 55.375 49.3125 51.609375 
Q 49.3125 48.578125 48.484375 45.9375 
Q 47.65625 43.3125 45.890625 41.203125 
Q 44.140625 39.109375 41.421875 37.59375 
Q 38.71875 36.078125 34.90625 35.296875 
L 34.90625 35.109375 
Q 39.0625 34.671875 42.140625 33.21875 
Q 45.21875 31.78125 47.21875 29.625 
Q 49.21875 27.484375 50.21875 24.75 
Q 51.21875 22.015625 51.21875 19 
" id="LiberationSans-33"/>
       <path d="M 50.59375 61.671875 
Q 45.40625 53.765625 41.0625 46.453125 
Q 36.71875 39.15625 33.59375 31.75 
Q 30.46875 24.359375 28.734375 16.578125 
Q 27 8.796875 27 0 
L 17.828125 0 
Q 17.828125 8.25 19.78125 16.1875 
Q 21.734375 24.125 25.046875 31.765625 
Q 28.375 39.40625 32.765625 46.78125 
Q 37.15625 54.15625 42.09375 61.328125 
L 5.125 61.328125 
L 5.125 68.796875 
L 50.59375 68.796875 
z
" id="LiberationSans-37"/>
       <path id="LiberationSans-20"/>
       <path d="M 4.4375 22.65625 
L 4.4375 30.46875 
L 28.859375 30.46875 
L 28.859375 22.65625 
z
" id="LiberationSans-2d"/>
       <path d="M 51.21875 22.515625 
Q 51.21875 17.328125 49.78125 13 
Q 48.34375 8.6875 45.53125 5.578125 
Q 42.71875 2.484375 38.5625 0.75 
Q 34.421875 -0.984375 29 -0.984375 
Q 23 -0.984375 18.5 1.3125 
Q 14.015625 3.609375 11.03125 7.921875 
Q 8.0625 12.25 6.5625 18.53125 
Q 5.078125 24.8125 5.078125 32.8125 
Q 5.078125 42 6.765625 48.921875 
Q 8.453125 55.859375 11.625 60.5 
Q 14.796875 65.140625 19.359375 67.484375 
Q 23.921875 69.828125 29.6875 69.828125 
Q 33.203125 69.828125 36.28125 69.09375 
Q 39.359375 68.359375 41.875 66.71875 
Q 44.390625 65.09375 46.28125 62.40625 
Q 48.1875 59.71875 49.3125 55.8125 
L 40.921875 54.296875 
Q 39.546875 58.734375 36.546875 60.71875 
Q 33.546875 62.703125 29.59375 62.703125 
Q 25.984375 62.703125 23.046875 60.984375 
Q 20.125 59.28125 18.0625 55.875 
Q 16.015625 52.484375 14.90625 47.359375 
Q 13.8125 42.234375 13.8125 35.40625 
Q 16.21875 39.84375 20.5625 42.15625 
Q 24.90625 44.484375 30.515625 44.484375 
Q 35.203125 44.484375 39.015625 42.96875 
Q 42.828125 41.453125 45.53125 38.59375 
Q 48.25 35.75 49.734375 31.671875 
Q 51.21875 27.59375 51.21875 22.515625 
M 42.28125 22.125 
Q 42.28125 25.6875 41.40625 28.5625 
Q 40.53125 31.453125 38.765625 33.46875 
Q 37.015625 35.5 34.421875 36.59375 
Q 31.84375 37.703125 28.421875 37.703125 
Q 26.03125 37.703125 23.578125 36.984375 
Q 21.140625 36.28125 19.15625 34.6875 
Q 17.1875 33.109375 15.9375 30.515625 
Q 14.703125 27.9375 14.703125 24.21875 
Q 14.703125 20.40625 15.671875 17.109375 
Q 16.65625 13.8125 18.484375 11.375 
Q 20.3125 8.9375 22.890625 7.515625 
Q 25.484375 6.109375 28.71875 6.109375 
Q 31.890625 6.109375 34.40625 7.203125 
Q 36.921875 8.296875 38.671875 10.375 
Q 40.4375 12.453125 41.359375 15.421875 
Q 42.28125 18.40625 42.28125 22.125 
" id="LiberationSans-36"/>
      </defs>
      <g style="fill:#262626;" transform="translate(25.5765625 370.646875)scale(0.1 -0.1)">
       <use xlink:href="#LiberationSans-32"/>
       <use x="55.615234375" xlink:href="#LiberationSans-30"/>
       <use x="111.23046875" xlink:href="#LiberationSans-31"/>
       <use x="166.845703125" xlink:href="#LiberationSans-36"/>
       <use x="222.4609375" xlink:href="#LiberationSans-2d"/>
       <use x="255.76171875" xlink:href="#LiberationSans-30"/>
       <use x="311.376953125" xlink:href="#LiberationSans-39"/>
       <use x="366.9921875" xlink:href="#LiberationSans-2d"/>
       <use x="400.29296875" xlink:href="#LiberationSans-32"/>
       <use x="455.908203125" xlink:href="#LiberationSans-37"/>
       <use x="511.5234375" xlink:href="#LiberationSans-20"/>
       <use x="539.306640625" xlink:href="#LiberationSans-30"/>
       <use x="594.921875" xlink:href="#LiberationSans-39"/>
       <use x="650.537109375" xlink:href="#LiberationSans-3a"/>
       <use x="678.3203125" xlink:href="#LiberationSans-33"/>
       <use x="733.935546875" xlink:href="#LiberationSans-33"/>
       <use x="789.55078125" xlink:href="#LiberationSans-3a"/>
       <use x="817.333984375" xlink:href="#LiberationSans-30"/>
       <use x="872.94921875" xlink:href="#LiberationSans-30"/>
      </g>
     </g>
    </g>
    <g id="xtick_2">
     <g id="line2d_4">
      <path clip-path="url(#p9b436830ef)" d="M 183.655828 356.4 
L 183.655828 39.6 
" style="fill:none;stroke:#ffffff;stroke-linecap:round;"/>
     </g>
     <g id="line2d_5"/>
     <g id="line2d_6"/>
     <g id="text_2">
      <!-- 2016-09-29 10:37:00 -->
      <g style="fill:#262626;" transform="translate(137.232390414 370.646875)scale(0.1 -0.1)">
       <use xlink:href="#LiberationSans-32"/>
       <use x="55.615234375" xlink:href="#LiberationSans-30"/>
       <use x="111.23046875" xlink:href="#LiberationSans-31"/>
       <use x="166.845703125" xlink:href="#LiberationSans-36"/>
       <use x="222.4609375" xlink:href="#LiberationSans-2d"/>
       <use x="255.76171875" xlink:href="#LiberationSans-30"/>
       <use x="311.376953125" xlink:href="#LiberationSans-39"/>
       <use x="366.9921875" xlink:href="#LiberationSans-2d"/>
       <use x="400.29296875" xlink:href="#LiberationSans-32"/>
       <use x="455.908203125" xlink:href="#LiberationSans-39"/>
       <use x="511.5234375" xlink:href="#LiberationSans-20"/>
       <use x="539.306640625" xlink:href="#LiberationSans-31"/>
       <use x="594.921875" xlink:href="#LiberationSans-30"/>
       <use x="650.537109375" xlink:href="#LiberationSans-3a"/>
       <use x="678.3203125" xlink:href="#LiberationSans-33"/>
       <use x="733.935546875" xlink:href="#LiberationSans-37"/>
       <use x="789.55078125" xlink:href="#LiberationSans-3a"/>
       <use x="817.333984375" xlink:href="#LiberationSans-30"/>
       <use x="872.94921875" xlink:href="#LiberationSans-30"/>
      </g>
     </g>
    </g>
    <g id="xtick_3">
     <g id="line2d_7">
      <path clip-path="url(#p9b436830ef)" d="M 295.311656 356.4 
L 295.311656 39.6 
" style="fill:none;stroke:#ffffff;stroke-linecap:round;"/>
     </g>
     <g id="line2d_8"/>
     <g id="line2d_9"/>
     <g id="text_3">
      <!-- 2016-10-10 11:24:00 -->
      <defs>
       <path d="M 43.015625 15.578125 
L 43.015625 0 
L 34.71875 0 
L 34.71875 15.578125 
L 2.296875 15.578125 
L 2.296875 22.40625 
L 33.796875 68.796875 
L 43.015625 68.796875 
L 43.015625 22.515625 
L 52.6875 22.515625 
L 52.6875 15.578125 
z
M 34.71875 58.890625 
Q 34.625 58.640625 34.234375 57.9375 
Q 33.84375 57.234375 33.34375 56.34375 
Q 32.859375 55.46875 32.34375 54.5625 
Q 31.84375 53.65625 31.453125 53.078125 
L 13.8125 27.09375 
Q 13.578125 26.703125 13.109375 26.0625 
Q 12.640625 25.4375 12.15625 24.78125 
Q 11.671875 24.125 11.171875 23.484375 
Q 10.6875 22.859375 10.40625 22.515625 
L 34.71875 22.515625 
z
" id="LiberationSans-34"/>
      </defs>
      <g style="fill:#262626;" transform="translate(248.888218328 370.646875)scale(0.1 -0.1)">
       <use xlink:href="#LiberationSans-32"/>
       <use x="55.615234375" xlink:href="#LiberationSans-30"/>
       <use x="111.23046875" xlink:href="#LiberationSans-31"/>
       <use x="166.845703125" xlink:href="#LiberationSans-36"/>
       <use x="222.4609375" xlink:href="#LiberationSans-2d"/>
       <use x="255.76171875" xlink:href="#LiberationSans-31"/>
       <use x="311.376953125" xlink:href="#LiberationSans-30"/>
       <use x="366.9921875" xlink:href="#LiberationSans-2d"/>
       <use x="400.29296875" xlink:href="#LiberationSans-31"/>
       <use x="455.908203125" xlink:href="#LiberationSans-30"/>
       <use x="511.5234375" xlink:href="#LiberationSans-20"/>
       <use x="539.306640625" xlink:href="#LiberationSans-31"/>
       <use x="594.921875" xlink:href="#LiberationSans-31"/>
       <use x="650.537109375" xlink:href="#LiberationSans-3a"/>
       <use x="678.3203125" xlink:href="#LiberationSans-32"/>
       <use x="733.935546875" xlink:href="#LiberationSans-34"/>
       <use x="789.55078125" xlink:href="#LiberationSans-3a"/>
       <use x="817.333984375" xlink:href="#LiberationSans-30"/>
       <use x="872.94921875" xlink:href="#LiberationSans-30"/>
      </g>
     </g>
    </g>
    <g id="xtick_4">
     <g id="line2d_10">
      <path clip-path="url(#p9b436830ef)" d="M 406.967484 356.4 
L 406.967484 39.6 
" style="fill:none;stroke:#ffffff;stroke-linecap:round;"/>
     </g>
     <g id="line2d_11"/>
     <g id="line2d_12"/>
     <g id="text_4">
      <!-- 2016-10-12 14:13:00 -->
      <g style="fill:#262626;" transform="translate(360.544046242 370.646875)scale(0.1 -0.1)">
       <use xlink:href="#LiberationSans-32"/>
       <use x="55.615234375" xlink:href="#LiberationSans-30"/>
       <use x="111.23046875" xlink:href="#LiberationSans-31"/>
       <use x="166.845703125" xlink:href="#LiberationSans-36"/>
       <use x="222.4609375" xlink:href="#LiberationSans-2d"/>
       <use x="255.76171875" xlink:href="#LiberationSans-31"/>
       <use x="311.376953125" xlink:href="#LiberationSans-30"/>
       <use x="366.9921875" xlink:href="#LiberationSans-2d"/>
       <use x="400.29296875" xlink:href="#LiberationSans-31"/>
       <use x="455.908203125" xlink:href="#LiberationSans-32"/>
       <use x="511.5234375" xlink:href="#LiberationSans-20"/>
       <use x="539.306640625" xlink:href="#LiberationSans-31"/>
       <use x="594.921875" xlink:href="#LiberationSans-34"/>
       <use x="650.537109375" xlink:href="#LiberationSans-3a"/>
       <use x="678.3203125" xlink:href="#LiberationSans-31"/>
       <use x="733.935546875" xlink:href="#LiberationSans-33"/>
       <use x="789.55078125" xlink:href="#LiberationSans-3a"/>
       <use x="817.333984375" xlink:href="#LiberationSans-30"/>
       <use x="872.94921875" xlink:href="#LiberationSans-30"/>
      </g>
     </g>
    </g>
    <g id="text_5">
     <!-- time -->
     <defs>
      <path d="M 13.484375 24.5625 
Q 13.484375 20.40625 14.328125 16.90625 
Q 15.1875 13.421875 16.96875 10.90625 
Q 18.75 8.40625 21.53125 7 
Q 24.3125 5.609375 28.21875 5.609375 
Q 33.9375 5.609375 37.375 7.90625 
Q 40.828125 10.203125 42.046875 13.71875 
L 49.75 11.53125 
Q 48.921875 9.328125 47.4375 7.109375 
Q 45.953125 4.890625 43.453125 3.09375 
Q 40.96875 1.3125 37.234375 0.15625 
Q 33.5 -0.984375 28.21875 -0.984375 
Q 16.5 -0.984375 10.375 6 
Q 4.25 12.984375 4.25 26.765625 
Q 4.25 34.1875 6.09375 39.328125 
Q 7.953125 44.484375 11.171875 47.703125 
Q 14.40625 50.921875 18.703125 52.359375 
Q 23 53.8125 27.875 53.8125 
Q 34.515625 53.8125 38.984375 51.65625 
Q 43.453125 49.515625 46.15625 45.71875 
Q 48.875 41.9375 50.015625 36.8125 
Q 51.171875 31.6875 51.171875 25.734375 
L 51.171875 24.5625 
z
M 42.09375 31.296875 
Q 41.359375 39.65625 37.84375 43.484375 
Q 34.328125 47.3125 27.734375 47.3125 
Q 25.53125 47.3125 23.109375 46.609375 
Q 20.703125 45.90625 18.65625 44.09375 
Q 16.609375 42.28125 15.1875 39.171875 
Q 13.765625 36.078125 13.578125 31.296875 
z
" id="LiberationSans-65"/>
      <path d="M 6.6875 64.0625 
L 6.6875 72.46875 
L 15.484375 72.46875 
L 15.484375 64.0625 
z
M 6.6875 0 
L 6.6875 52.828125 
L 15.484375 52.828125 
L 15.484375 0 
z
" id="LiberationSans-69"/>
      <path d="M 27.046875 0.390625 
Q 25.046875 -0.140625 22.96875 -0.453125 
Q 20.90625 -0.78125 18.171875 -0.78125 
Q 7.625 -0.78125 7.625 11.1875 
L 7.625 46.4375 
L 1.515625 46.4375 
L 1.515625 52.828125 
L 7.953125 52.828125 
L 10.546875 64.65625 
L 16.40625 64.65625 
L 16.40625 52.828125 
L 26.171875 52.828125 
L 26.171875 46.4375 
L 16.40625 46.4375 
L 16.40625 13.09375 
Q 16.40625 9.28125 17.640625 7.734375 
Q 18.890625 6.203125 21.96875 6.203125 
Q 23.25 6.203125 24.4375 6.390625 
Q 25.640625 6.59375 27.046875 6.890625 
z
" id="LiberationSans-74"/>
      <path d="M 37.5 0 
L 37.5 33.5 
Q 37.5 37.359375 37.015625 39.9375 
Q 36.53125 42.53125 35.375 44.109375 
Q 34.234375 45.703125 32.375 46.359375 
Q 30.515625 47.015625 27.828125 47.015625 
Q 25.046875 47.015625 22.796875 45.921875 
Q 20.5625 44.828125 18.96875 42.75 
Q 17.390625 40.671875 16.53125 37.625 
Q 15.671875 34.578125 15.671875 30.609375 
L 15.671875 0 
L 6.9375 0 
L 6.9375 41.546875 
Q 6.9375 43.21875 6.90625 45.046875 
Q 6.890625 46.875 6.828125 48.5 
Q 6.78125 50.140625 6.734375 51.3125 
Q 6.6875 52.484375 6.640625 52.828125 
L 14.9375 52.828125 
Q 14.984375 52.59375 15.03125 51.515625 
Q 15.09375 50.4375 15.15625 49.046875 
Q 15.234375 47.65625 15.28125 46.21875 
Q 15.328125 44.78125 15.328125 43.796875 
L 15.484375 43.796875 
Q 16.65625 46.09375 18.015625 47.953125 
Q 19.390625 49.8125 21.21875 51.09375 
Q 23.046875 52.390625 25.40625 53.09375 
Q 27.78125 53.8125 30.90625 53.8125 
Q 36.921875 53.8125 40.40625 51.421875 
Q 43.890625 49.03125 45.265625 43.796875 
L 45.40625 43.796875 
Q 46.578125 46.09375 48.046875 47.953125 
Q 49.515625 49.8125 51.46875 51.09375 
Q 53.421875 52.390625 55.859375 53.09375 
Q 58.296875 53.8125 61.421875 53.8125 
Q 65.4375 53.8125 68.328125 52.734375 
Q 71.234375 51.65625 73.09375 49.40625 
Q 74.953125 47.171875 75.828125 43.625 
Q 76.703125 40.09375 76.703125 35.203125 
L 76.703125 0 
L 68.015625 0 
L 68.015625 33.5 
Q 68.015625 37.359375 67.53125 39.9375 
Q 67.046875 42.53125 65.890625 44.109375 
Q 64.75 45.703125 62.890625 46.359375 
Q 61.03125 47.015625 58.34375 47.015625 
Q 55.5625 47.015625 53.3125 45.96875 
Q 51.078125 44.921875 49.484375 42.875 
Q 47.90625 40.828125 47.046875 37.75 
Q 46.1875 34.671875 46.1875 30.609375 
L 46.1875 0 
z
" id="LiberationSans-6d"/>
     </defs>
     <g style="fill:#262626;" transform="translate(284.81015625 385.6934375)scale(0.11 -0.11)">
      <use xlink:href="#LiberationSans-74"/>
      <use x="27.783203125" xlink:href="#LiberationSans-69"/>
      <use x="50.0" xlink:href="#LiberationSans-6d"/>
      <use x="133.30078125" xlink:href="#LiberationSans-65"/>
     </g>
    </g>
   </g>
   <g id="matplotlib.axis_2">
    <g id="ytick_1">
     <g id="line2d_13">
      <path clip-path="url(#p9b436830ef)" d="M 72 356.4 
L 518.4 356.4 
" style="fill:none;stroke:#ffffff;stroke-linecap:round;"/>
     </g>
     <g id="line2d_14"/>
     <g id="line2d_15"/>
     <g id="text_6">
      <!-- −1920 -->
      <defs>
       <path d="M 4.9375 29.6875 
L 4.9375 36.8125 
L 53.515625 36.8125 
L 53.515625 29.6875 
z
" id="LiberationSans-2212"/>
      </defs>
      <g style="fill:#262626;" transform="translate(36.915625 358.9859375)scale(0.1 -0.1)">
       <use xlink:href="#LiberationSans-2212"/>
       <use x="58.3984375" xlink:href="#LiberationSans-31"/>
       <use x="114.013671875" xlink:href="#LiberationSans-39"/>
       <use x="169.62890625" xlink:href="#LiberationSans-32"/>
       <use x="225.244140625" xlink:href="#LiberationSans-30"/>
      </g>
     </g>
    </g>
    <g id="ytick_2">
     <g id="line2d_16">
      <path clip-path="url(#p9b436830ef)" d="M 72 316.8 
L 518.4 316.8 
" style="fill:none;stroke:#ffffff;stroke-linecap:round;"/>
     </g>
     <g id="line2d_17"/>
     <g id="line2d_18"/>
     <g id="text_7">
      <!-- −1910 -->
      <g style="fill:#262626;" transform="translate(36.915625 319.3859375)scale(0.1 -0.1)">
       <use xlink:href="#LiberationSans-2212"/>
       <use x="58.3984375" xlink:href="#LiberationSans-31"/>
       <use x="114.013671875" xlink:href="#LiberationSans-39"/>
       <use x="169.62890625" xlink:href="#LiberationSans-31"/>
       <use x="225.244140625" xlink:href="#LiberationSans-30"/>
      </g>
     </g>
    </g>
    <g id="ytick_3">
     <g id="line2d_19">
      <path clip-path="url(#p9b436830ef)" d="M 72 277.2 
L 518.4 277.2 
" style="fill:none;stroke:#ffffff;stroke-linecap:round;"/>
     </g>
     <g id="line2d_20"/>
     <g id="line2d_21"/>
     <g id="text_8">
      <!-- −1900 -->
      <g style="fill:#262626;" transform="translate(36.915625 279.7859375)scale(0.1 -0.1)">
       <use xlink:href="#LiberationSans-2212"/>
       <use x="58.3984375" xlink:href="#LiberationSans-31"/>
       <use x="114.013671875" xlink:href="#LiberationSans-39"/>
       <use x="169.62890625" xlink:href="#LiberationSans-30"/>
       <use x="225.244140625" xlink:href="#LiberationSans-30"/>
      </g>
     </g>
    </g>
    <g id="ytick_4">
     <g id="line2d_22">
      <path clip-path="url(#p9b436830ef)" d="M 72 237.6 
L 518.4 237.6 
" style="fill:none;stroke:#ffffff;stroke-linecap:round;"/>
     </g>
     <g id="line2d_23"/>
     <g id="line2d_24"/>
     <g id="text_9">
      <!-- −1890 -->
      <defs>
       <path d="M 51.265625 19.1875 
Q 51.265625 14.796875 49.875 11.109375 
Q 48.484375 7.421875 45.625 4.734375 
Q 42.78125 2.046875 38.328125 0.53125 
Q 33.890625 -0.984375 27.828125 -0.984375 
Q 21.78125 -0.984375 17.359375 0.53125 
Q 12.9375 2.046875 10.03125 4.703125 
Q 7.125 7.375 5.734375 11.0625 
Q 4.34375 14.75 4.34375 19.09375 
Q 4.34375 22.859375 5.484375 25.78125 
Q 6.640625 28.71875 8.5625 30.828125 
Q 10.5 32.953125 12.96875 34.25 
Q 15.4375 35.546875 18.0625 35.984375 
L 18.0625 36.1875 
Q 15.1875 36.859375 12.90625 38.375 
Q 10.640625 39.890625 9.09375 42.015625 
Q 7.5625 44.140625 6.75 46.71875 
Q 5.953125 49.3125 5.953125 52.203125 
Q 5.953125 55.8125 7.34375 59 
Q 8.734375 62.203125 11.46875 64.625 
Q 14.203125 67.046875 18.25 68.4375 
Q 22.3125 69.828125 27.640625 69.828125 
Q 33.25 69.828125 37.375 68.40625 
Q 41.5 67 44.203125 64.578125 
Q 46.921875 62.15625 48.234375 58.9375 
Q 49.5625 55.71875 49.5625 52.09375 
Q 49.5625 49.265625 48.75 46.671875 
Q 47.953125 44.09375 46.40625 41.96875 
Q 44.875 39.84375 42.59375 38.34375 
Q 40.328125 36.859375 37.359375 36.28125 
L 37.359375 36.078125 
Q 40.328125 35.59375 42.859375 34.296875 
Q 45.40625 33.015625 47.265625 30.890625 
Q 49.125 28.765625 50.1875 25.828125 
Q 51.265625 22.90625 51.265625 19.1875 
M 40.4375 51.609375 
Q 40.4375 54.203125 39.765625 56.34375 
Q 39.109375 58.5 37.59375 60.03125 
Q 36.078125 61.578125 33.640625 62.421875 
Q 31.203125 63.28125 27.640625 63.28125 
Q 24.171875 63.28125 21.78125 62.421875 
Q 19.390625 61.578125 17.84375 60.03125 
Q 16.3125 58.5 15.625 56.34375 
Q 14.9375 54.203125 14.9375 51.609375 
Q 14.9375 49.5625 15.46875 47.40625 
Q 16.015625 45.265625 17.421875 43.5 
Q 18.84375 41.75 21.328125 40.625 
Q 23.828125 39.5 27.734375 39.5 
Q 31.890625 39.5 34.40625 40.625 
Q 36.921875 41.75 38.25 43.5 
Q 39.59375 45.265625 40.015625 47.40625 
Q 40.4375 49.5625 40.4375 51.609375 
M 42.140625 20.015625 
Q 42.140625 22.515625 41.453125 24.828125 
Q 40.765625 27.15625 39.109375 28.9375 
Q 37.453125 30.71875 34.640625 31.8125 
Q 31.84375 32.90625 27.640625 32.90625 
Q 23.78125 32.90625 21.0625 31.8125 
Q 18.359375 30.71875 16.671875 28.90625 
Q 14.984375 27.09375 14.203125 24.71875 
Q 13.421875 22.359375 13.421875 19.828125 
Q 13.421875 16.65625 14.203125 14.03125 
Q 14.984375 11.421875 16.6875 9.546875 
Q 18.40625 7.671875 21.1875 6.640625 
Q 23.96875 5.609375 27.9375 5.609375 
Q 31.9375 5.609375 34.671875 6.640625 
Q 37.40625 7.671875 39.0625 9.546875 
Q 40.71875 11.421875 41.421875 14.078125 
Q 42.140625 16.75 42.140625 20.015625 
" id="LiberationSans-38"/>
      </defs>
      <g style="fill:#262626;" transform="translate(36.915625 240.1859375)scale(0.1 -0.1)">
       <use xlink:href="#LiberationSans-2212"/>
       <use x="58.3984375" xlink:href="#LiberationSans-31"/>
       <use x="114.013671875" xlink:href="#LiberationSans-38"/>
       <use x="169.62890625" xlink:href="#LiberationSans-39"/>
       <use x="225.244140625" xlink:href="#LiberationSans-30"/>
      </g>
     </g>
    </g>
    <g id="ytick_5">
     <g id="line2d_25">
      <path clip-path="url(#p9b436830ef)" d="M 72 198 
L 518.4 198 
" style="fill:none;stroke:#ffffff;stroke-linecap:round;"/>
     </g>
     <g id="line2d_26"/>
     <g id="line2d_27"/>
     <g id="text_10">
      <!-- −1880 -->
      <g style="fill:#262626;" transform="translate(36.915625 200.5859375)scale(0.1 -0.1)">
       <use xlink:href="#LiberationSans-2212"/>
       <use x="58.3984375" xlink:href="#LiberationSans-31"/>
       <use x="114.013671875" xlink:href="#LiberationSans-38"/>
       <use x="169.62890625" xlink:href="#LiberationSans-38"/>
       <use x="225.244140625" xlink:href="#LiberationSans-30"/>
      </g>
     </g>
    </g>
    <g id="ytick_6">
     <g id="line2d_28">
      <path clip-path="url(#p9b436830ef)" d="M 72 158.4 
L 518.4 158.4 
" style="fill:none;stroke:#ffffff;stroke-linecap:round;"/>
     </g>
     <g id="line2d_29"/>
     <g id="line2d_30"/>
     <g id="text_11">
      <!-- −1870 -->
      <g style="fill:#262626;" transform="translate(36.915625 160.9859375)scale(0.1 -0.1)">
       <use xlink:href="#LiberationSans-2212"/>
       <use x="58.3984375" xlink:href="#LiberationSans-31"/>
       <use x="114.013671875" xlink:href="#LiberationSans-38"/>
       <use x="169.62890625" xlink:href="#LiberationSans-37"/>
       <use x="225.244140625" xlink:href="#LiberationSans-30"/>
      </g>
     </g>
    </g>
    <g id="ytick_7">
     <g id="line2d_31">
      <path clip-path="url(#p9b436830ef)" d="M 72 118.8 
L 518.4 118.8 
" style="fill:none;stroke:#ffffff;stroke-linecap:round;"/>
     </g>
     <g id="line2d_32"/>
     <g id="line2d_33"/>
     <g id="text_12">
      <!-- −1860 -->
      <g style="fill:#262626;" transform="translate(36.915625 121.3859375)scale(0.1 -0.1)">
       <use xlink:href="#LiberationSans-2212"/>
       <use x="58.3984375" xlink:href="#LiberationSans-31"/>
       <use x="114.013671875" xlink:href="#LiberationSans-38"/>
       <use x="169.62890625" xlink:href="#LiberationSans-36"/>
       <use x="225.244140625" xlink:href="#LiberationSans-30"/>
      </g>
     </g>
    </g>
    <g id="ytick_8">
     <g id="line2d_34">
      <path clip-path="url(#p9b436830ef)" d="M 72 79.2 
L 518.4 79.2 
" style="fill:none;stroke:#ffffff;stroke-linecap:round;"/>
     </g>
     <g id="line2d_35"/>
     <g id="line2d_36"/>
     <g id="text_13">
      <!-- −1850 -->
      <defs>
       <path d="M 51.421875 22.40625 
Q 51.421875 17.234375 49.859375 12.9375 
Q 48.296875 8.640625 45.21875 5.53125 
Q 42.140625 2.4375 37.578125 0.71875 
Q 33.015625 -0.984375 27 -0.984375 
Q 21.578125 -0.984375 17.546875 0.28125 
Q 13.53125 1.5625 10.734375 3.78125 
Q 7.953125 6 6.3125 8.984375 
Q 4.6875 11.96875 4 15.375 
L 12.890625 16.40625 
Q 13.421875 14.453125 14.390625 12.625 
Q 15.375 10.796875 17.0625 9.34375 
Q 18.75 7.90625 21.21875 7.046875 
Q 23.6875 6.203125 27.203125 6.203125 
Q 30.609375 6.203125 33.390625 7.25 
Q 36.1875 8.296875 38.15625 10.34375 
Q 40.140625 12.40625 41.203125 15.375 
Q 42.28125 18.359375 42.28125 22.21875 
Q 42.28125 25.390625 41.25 28.046875 
Q 40.234375 30.71875 38.328125 32.640625 
Q 36.421875 34.578125 33.65625 35.640625 
Q 30.90625 36.71875 27.390625 36.71875 
Q 25.203125 36.71875 23.34375 36.328125 
Q 21.484375 35.9375 19.890625 35.25 
Q 18.3125 34.578125 17.015625 33.671875 
Q 15.71875 32.765625 14.59375 31.78125 
L 6 31.78125 
L 8.296875 68.796875 
L 47.40625 68.796875 
L 47.40625 61.328125 
L 16.3125 61.328125 
L 14.984375 39.5 
Q 17.328125 41.3125 20.84375 42.59375 
Q 24.359375 43.890625 29.203125 43.890625 
Q 34.328125 43.890625 38.421875 42.328125 
Q 42.53125 40.765625 45.40625 37.90625 
Q 48.296875 35.0625 49.859375 31.109375 
Q 51.421875 27.15625 51.421875 22.40625 
" id="LiberationSans-35"/>
      </defs>
      <g style="fill:#262626;" transform="translate(36.915625 81.7859375)scale(0.1 -0.1)">
       <use xlink:href="#LiberationSans-2212"/>
       <use x="58.3984375" xlink:href="#LiberationSans-31"/>
       <use x="114.013671875" xlink:href="#LiberationSans-38"/>
       <use x="169.62890625" xlink:href="#LiberationSans-35"/>
       <use x="225.244140625" xlink:href="#LiberationSans-30"/>
      </g>
     </g>
    </g>
    <g id="ytick_9">
     <g id="line2d_37">
      <path clip-path="url(#p9b436830ef)" d="M 72 39.6 
L 518.4 39.6 
" style="fill:none;stroke:#ffffff;stroke-linecap:round;"/>
     </g>
     <g id="line2d_38"/>
     <g id="line2d_39"/>
     <g id="text_14">
      <!-- −1840 -->
      <g style="fill:#262626;" transform="translate(36.915625 42.1859375)scale(0.1 -0.1)">
       <use xlink:href="#LiberationSans-2212"/>
       <use x="58.3984375" xlink:href="#LiberationSans-31"/>
       <use x="114.013671875" xlink:href="#LiberationSans-38"/>
       <use x="169.62890625" xlink:href="#LiberationSans-34"/>
       <use x="225.244140625" xlink:href="#LiberationSans-30"/>
      </g>
     </g>
    </g>
   </g>
   <g id="line2d_40">
    <path clip-path="url(#p9b436830ef)" d="M 72 271.458316 
L 72.223312 266.191516 
L 72.446623 266.191516 
L 72.669935 271.458316 
L 73.33987 271.458316 
L 73.563182 277.630807 
L 73.786493 294.413673 
L 74.009805 271.458316 
L 74.233117 294.413673 
L 74.456428 282.897607 
L 74.67974 294.413673 
L 74.903052 282.897607 
L 75.126363 282.897607 
L 75.349675 276.725116 
L 75.572986 282.897607 
L 76.466233 282.897607 
L 76.689545 265.209051 
L 76.912856 270.515451 
L 77.136168 265.209051 
L 77.35948 271.458316 
L 77.582791 271.458316 
L 77.806103 288.164407 
L 78.029415 271.458316 
L 78.252726 266.191516 
L 78.476038 271.458316 
L 78.69935 271.458316 
L 78.922661 282.897607 
L 79.145973 272.324407 
L 79.369285 277.630807 
L 79.592596 266.191516 
L 79.815908 266.191516 
L 80.03922 259.942251 
L 80.262531 265.209051 
L 80.485843 254.675451 
L 80.709155 254.675451 
L 80.932466 266.191516 
L 81.155778 254.675451 
L 81.37909 266.191516 
L 81.602401 259.942251 
L 82.049025 259.942251 
L 82.272336 270.515451 
L 82.495648 264.34296 
L 82.718959 263.400095 
L 83.165583 286.355451 
L 83.388894 274.91616 
L 83.612206 291.622251 
L 83.835518 280.18296 
L 84.058829 285.44976 
L 84.282141 296.889051 
L 84.505453 291.622251 
L 84.728764 280.18296 
L 84.952076 285.44976 
L 85.175388 279.240095 
L 85.398699 302.195451 
L 85.622011 290.75616 
L 85.845323 302.195451 
L 86.291946 284.506895 
L 86.515258 301.28976 
L 86.738569 289.773695 
L 86.961881 284.506895 
L 87.185193 295.080095 
L 87.631816 282.658338 
L 87.855128 288.907604 
L 88.301751 271.219047 
L 88.525063 281.792247 
L 88.748374 301.28976 
L 88.971686 295.080095 
L 89.194997 295.080095 
L 89.418309 306.59616 
L 89.641621 288.907604 
L 89.864932 288.907604 
L 90.088244 294.174404 
L 90.311556 265.009382 
L 90.534867 276.525447 
L 90.758179 271.219047 
L 90.981491 270.276182 
L 91.204802 270.276182 
L 91.428114 286.116182 
L 91.651426 263.160826 
L 91.874737 274.676891 
L 92.098049 274.676891 
L 92.321361 257.894026 
L 92.544672 257.894026 
L 92.767984 269.410091 
L 92.991296 274.676891 
L 93.214607 286.116182 
L 93.437919 303.804738 
L 93.661231 303.804738 
L 94.331166 286.116182 
L 94.777789 296.689382 
L 95.001101 297.632247 
L 95.224412 308.205447 
L 95.447724 302.899047 
L 95.671036 308.205447 
L 95.894347 296.689382 
L 96.34097 307.262582 
L 96.564282 306.356891 
L 96.787594 312.529382 
L 97.234217 312.529382 
L 97.457529 294.840826 
L 97.68084 301.090091 
L 97.904152 312.529382 
L 98.127464 311.663291 
L 98.350775 289.574026 
L 98.574087 295.823291 
L 98.797399 290.516891 
L 99.02071 312.529382 
L 99.467334 288.707934 
L 99.690645 294.840826 
L 99.913957 294.840826 
L 100.137269 278.134734 
L 100.36058 278.134734 
L 100.583892 300.147226 
L 100.807204 300.147226 
L 101.030515 294.840826 
L 101.253827 294.840826 
L 101.477139 306.356891 
L 101.923762 294.840826 
L 102.147074 294.840826 
L 102.370385 271.885469 
L 102.593697 271.885469 
L 102.817009 283.401534 
L 103.04032 283.401534 
L 103.263632 271.885469 
L 103.486943 289.574026 
L 103.710255 266.618669 
L 103.933567 271.885469 
L 104.156878 271.885469 
L 104.38019 260.446178 
L 104.603502 271.885469 
L 104.826813 265.752578 
L 105.050125 271.885469 
L 105.273437 283.401534 
L 105.496748 283.401534 
L 105.72006 294.840826 
L 105.943372 283.401534 
L 106.166683 289.574026 
L 106.389995 284.307226 
L 106.613307 272.867934 
L 106.836618 272.867934 
L 107.05993 284.307226 
L 107.283242 255.179378 
L 107.506553 266.618669 
L 108.176488 282.458669 
L 108.3998 282.458669 
L 108.623112 293.974734 
L 108.846423 282.458669 
L 109.069735 282.458669 
L 109.293047 299.241534 
L 109.516358 288.707934 
L 109.73967 300.147226 
L 109.962981 289.574026 
L 110.186293 310.680826 
L 110.409605 271.019378 
L 110.632916 287.725469 
L 110.856228 287.725469 
L 111.07954 276.286178 
L 111.302851 281.592578 
L 111.526163 281.592578 
L 111.749475 270.076513 
L 111.972786 281.592578 
L 112.196098 281.592578 
L 112.41941 276.286178 
L 112.642721 276.286178 
L 112.866033 299.241534 
L 113.312656 270.076513 
L 113.535968 264.770113 
L 113.75928 264.770113 
L 113.982591 276.286178 
L 114.205903 271.019378 
L 114.429215 277.191869 
L 114.652526 271.019378 
L 114.875838 283.401534 
L 115.09915 277.191869 
L 115.322461 250.778669 
L 115.545773 267.561534 
L 115.769085 266.618669 
L 115.992396 278.134734 
L 116.215708 283.401534 
L 116.43902 272.867934 
L 116.662331 284.307226 
L 116.885643 285.250091 
L 117.108954 268.427626 
L 117.332266 273.734026 
L 117.555578 243.663313 
L 117.778889 262.294734 
L 118.002201 256.045469 
L 118.225513 273.734026 
L 118.448824 279.943691 
L 118.672136 273.734026 
L 118.895448 296.689382 
L 119.118759 273.734026 
L 119.342071 279.000826 
L 119.565383 272.867934 
L 120.012006 289.574026 
L 120.235318 272.867934 
L 120.458629 279.000826 
L 120.681941 267.561534 
L 120.905253 279.000826 
L 121.128564 267.561534 
L 121.351876 279.000826 
L 121.575188 267.561534 
L 121.798499 272.867934 
L 122.021811 267.561534 
L 122.245123 256.045469 
L 122.468434 267.561534 
L 122.691746 256.045469 
L 123.138369 267.561534 
L 123.361681 279.000826 
L 123.808304 267.561534 
L 124.031616 267.561534 
L 124.254927 272.867934 
L 124.478239 272.867934 
L 124.701551 271.885469 
L 124.924862 266.618669 
L 125.148174 276.286178 
L 125.371486 271.019378 
L 125.594797 276.286178 
L 126.041421 251.521865 
L 126.264732 252.387957 
L 126.488044 263.904022 
L 126.711356 263.904022 
L 126.934667 247.121157 
L 127.157979 252.387957 
L 127.381291 252.387957 
L 127.604602 269.170822 
L 127.827914 240.948665 
L 128.051226 252.387957 
L 128.274537 285.916513 
L 128.497849 275.343313 
L 128.721161 257.654757 
L 128.944472 252.387957 
L 129.167784 257.654757 
L 129.391096 269.170822 
L 129.614407 252.387957 
L 129.837719 252.387957 
L 130.061031 246.215465 
L 130.284342 262.055465 
L 130.507654 255.8458 
L 130.730965 256.788665 
L 130.954277 262.961157 
L 131.177589 251.521865 
L 131.4009 256.788665 
L 131.624212 268.227957 
L 131.847524 273.494757 
L 132.070835 273.494757 
L 132.294147 262.961157 
L 132.517459 273.494757 
L 132.74077 268.227957 
L 132.964082 279.744022 
L 133.187394 285.010822 
L 133.410705 262.055465 
L 133.634017 262.055465 
L 133.857329 272.628665 
L 134.08064 273.494757 
L 134.303952 273.494757 
L 134.527264 267.361865 
L 134.750575 278.801157 
L 134.973887 262.055465 
L 135.197199 267.361865 
L 135.42051 262.055465 
L 135.643822 273.494757 
L 135.867134 274.477222 
L 136.090445 274.477222 
L 136.313757 279.744022 
L 136.76038 256.788665 
L 136.983692 251.521865 
L 137.207004 256.788665 
L 137.430315 268.227957 
L 137.653627 251.521865 
L 137.876938 268.227957 
L 138.10025 251.521865 
L 138.323562 262.961157 
L 138.546873 268.227957 
L 138.770185 256.788665 
L 138.993497 262.961157 
L 139.216808 251.521865 
L 139.44012 250.5394 
L 139.663432 262.055465 
L 139.886743 256.788665 
L 140.110055 274.477222 
L 140.333367 262.961157 
L 140.556678 268.227957 
L 141.003302 268.227957 
L 141.226613 255.8458 
L 141.449925 250.5394 
L 141.673237 255.8458 
L 141.896548 250.5394 
L 142.11986 272.628665 
L 142.343172 255.8458 
L 142.566483 255.8458 
L 142.789795 250.5394 
L 143.013107 262.055465 
L 143.906353 262.055465 
L 144.129665 255.8458 
L 144.576288 267.361865 
L 144.7996 276.9526 
L 145.022911 259.264044 
L 145.692846 286.620109 
L 145.916158 284.811153 
L 146.13947 274.237953 
L 146.362781 291.926509 
L 146.586093 285.677244 
L 146.809405 268.971153 
L 147.032716 290.944044 
L 147.256028 279.504753 
L 147.47934 279.504753 
L 147.702651 267.988688 
L 147.925963 272.428996 
L 148.149275 267.122596 
L 148.595898 277.695796 
L 148.81921 289.135088 
L 149.265833 265.31364 
L 149.489145 270.58044 
L 149.712456 271.446531 
L 149.935768 271.446531 
L 150.15908 266.179731 
L 150.382391 255.606531 
L 150.605703 260.912931 
L 151.052326 250.339731 
L 151.275638 238.90044 
L 151.498949 255.606531 
L 151.722261 249.47364 
L 151.945573 237.957575 
L 152.168884 243.224375 
L 152.392196 231.785084 
L 152.615508 232.651175 
L 152.838819 232.651175 
L 153.062131 249.47364 
L 153.285443 221.211884 
L 153.508754 243.224375 
L 153.732066 243.224375 
L 154.402001 226.518284 
L 154.625313 244.16724 
L 154.848624 250.339731 
L 155.071936 238.90044 
L 155.295248 238.90044 
L 155.518559 227.384375 
L 155.741871 226.518284 
L 155.965183 237.957575 
L 156.188494 231.785084 
L 156.411806 237.957575 
L 156.635118 226.518284 
L 156.858429 243.224375 
L 157.081741 237.957575 
L 157.305053 243.224375 
L 157.528364 237.051884 
L 157.751676 260.00724 
L 158.198299 237.051884 
L 158.421611 248.491175 
L 158.644922 242.358284 
L 158.868234 253.797575 
L 159.091546 242.358284 
L 159.314857 242.358284 
L 159.538169 253.797575 
L 159.984792 253.797575 
L 160.208104 248.491175 
L 160.654727 259.064375 
L 160.878039 252.891884 
L 161.101351 252.891884 
L 161.324662 247.625084 
L 161.547974 259.064375 
L 161.771286 259.064375 
L 161.994597 252.891884 
L 162.217909 264.331175 
L 162.441221 252.891884 
L 162.664532 259.064375 
L 163.111156 247.625084 
L 163.334467 237.051884 
L 163.781091 260.00724 
L 164.004402 254.74044 
L 164.227714 255.606531 
L 164.674337 245.033331 
L 165.12096 261.855796 
L 165.344272 264.570444 
L 165.567584 281.353309 
L 165.790895 264.570444 
L 166.014207 274.237953 
L 166.237519 267.122596 
L 166.46083 290.944044 
L 166.684142 279.504753 
L 167.130765 279.504753 
L 167.354077 320.148665 
L 167.577389 309.575465 
L 167.8007 309.575465 
L 168.024012 291.926509 
L 168.247324 291.926509 
L 168.470635 286.620109 
L 168.693947 275.104044 
L 169.14057 298.0594 
L 169.363882 298.0594 
L 169.587194 297.193309 
L 169.810505 268.971153 
L 170.033817 284.811153 
L 170.257129 274.237953 
L 170.48044 274.237953 
L 170.703752 290.944044 
L 170.927064 290.944044 
L 171.373687 308.6326 
L 171.82031 286.620109 
L 172.043622 292.7926 
L 172.490245 292.7926 
L 172.713557 286.620109 
L 172.936868 292.7926 
L 173.16018 287.5258 
L 173.383492 270.780109 
L 173.606803 287.5258 
L 174.053427 269.837244 
L 174.276738 264.570444 
L 174.50005 264.570444 
L 174.723362 292.7926 
L 174.946673 281.353309 
L 175.169985 282.2194 
L 175.393297 271.6858 
L 175.616608 276.9526 
L 175.83992 276.9526 
L 176.286543 287.5258 
L 176.509855 282.2194 
L 176.733167 292.7926 
L 176.956478 287.5258 
L 177.17979 287.5258 
L 177.403102 294.641157 
L 177.626413 293.735465 
L 177.849725 299.907957 
L 178.073037 294.641157 
L 178.296348 284.067957 
L 178.51966 278.801157 
L 178.742971 267.361865 
L 178.966283 284.067957 
L 179.189595 268.227957 
L 179.636218 279.744022 
L 179.85953 262.961157 
L 180.082841 268.227957 
L 180.306153 256.788665 
L 180.752776 267.361865 
L 180.976088 261.1126 
L 181.1994 267.361865 
L 181.422711 261.1126 
L 181.646023 261.1126 
L 181.869335 255.8458 
L 182.092646 272.628665 
L 182.315958 261.1126 
L 182.53927 283.201865 
L 182.762581 277.895465 
L 182.985893 277.895465 
L 183.432516 265.513309 
L 183.655828 266.3794 
L 183.87914 271.6858 
L 184.102451 271.6858 
L 184.325763 277.895465 
L 184.995698 260.246509 
L 185.21901 270.780109 
L 185.442321 253.997244 
L 185.665633 259.264044 
L 186.112256 247.824753 
L 186.335568 264.570444 
L 187.005503 248.730444 
L 187.228814 248.730444 
L 187.452126 253.997244 
L 187.675438 248.730444 
L 187.898749 247.824753 
L 188.122061 247.824753 
L 188.345373 246.015796 
L 188.568684 229.193331 
L 188.791996 246.881888 
L 189.015308 252.148688 
L 189.461931 230.175796 
L 189.685243 246.015796 
L 189.908554 235.442596 
L 190.131866 252.148688 
L 190.355178 240.709396 
L 190.801801 240.709396 
L 191.248424 253.131153 
L 191.471736 247.824753 
L 191.695048 259.264044 
L 192.364982 242.557953 
L 192.588294 247.824753 
L 192.811606 259.264044 
L 193.034917 247.824753 
L 193.258229 259.264044 
L 193.481541 258.397953 
L 193.704852 264.570444 
L 193.928164 264.570444 
L 194.151476 253.131153 
L 194.374787 247.824753 
L 194.598099 253.131153 
L 194.821411 269.837244 
L 195.044722 258.397953 
L 195.491346 247.824753 
L 195.714657 264.570444 
L 195.937969 253.131153 
L 196.161281 253.131153 
L 196.607904 263.664753 
L 196.831216 235.442596 
L 197.054527 258.397953 
L 197.501151 235.442596 
L 197.724462 230.175796 
L 198.841021 230.175796 
L 199.064332 223.926531 
L 199.287644 229.193331 
L 199.510955 229.193331 
L 199.734267 216.811175 
L 199.957579 210.638684 
L 200.627514 210.638684 
L 200.850825 204.429019 
L 201.074137 204.429019 
L 201.297449 186.740462 
L 201.52076 186.740462 
L 201.744072 192.046862 
L 201.967384 175.301171 
L 202.414007 185.874371 
L 202.86063 175.301171 
L 203.083942 180.607571 
L 203.307254 180.607571 
L 203.530565 185.874371 
L 203.753877 180.607571 
L 203.977189 186.740462 
L 204.2005 180.607571 
L 204.423812 192.046862 
L 204.647124 180.607571 
L 204.870435 192.046862 
L 205.093747 180.607571 
L 205.317059 185.874371 
L 205.54037 179.625106 
L 205.763682 184.931506 
L 205.986993 178.759015 
L 206.210305 184.931506 
L 206.433617 185.874371 
L 206.656928 197.313662 
L 206.88024 185.874371 
L 207.103552 191.141171 
L 207.326863 179.625106 
L 207.550175 191.141171 
L 207.773487 196.447571 
L 207.996798 185.874371 
L 208.22011 191.141171 
L 208.666733 168.185815 
L 208.890045 168.185815 
L 209.113357 179.625106 
L 209.336668 162.919015 
L 209.55998 162.919015 
L 209.783292 161.97615 
L 210.229915 184.931506 
L 210.453227 168.185815 
L 210.676538 184.931506 
L 210.89985 157.652215 
L 211.123162 168.185815 
L 211.346473 163.785106 
L 211.569785 164.727971 
L 211.793097 170.900462 
L 212.016408 164.727971 
L 212.23972 153.211906 
L 212.463032 170.034371 
L 212.686343 154.194371 
L 212.909655 155.060462 
L 213.132966 169.291175 
L 213.356278 173.691884 
L 213.57959 167.442619 
L 213.802901 178.958684 
L 214.026213 156.003327 
L 214.472836 168.425084 
L 214.696148 151.602619 
L 214.91946 151.602619 
L 215.142771 146.335819 
L 215.366083 164.024375 
L 215.589395 152.585084 
L 215.812706 151.602619 
L 216.25933 123.380462 
L 216.482641 133.953662 
L 216.929265 121.531906 
L 217.152576 133.047971 
L 217.375888 110.092615 
L 217.5992 122.514371 
L 217.822511 122.514371 
L 218.045823 116.265106 
L 218.269135 104.825815 
L 218.492446 99.559015 
L 218.715758 104.825815 
L 219.162381 87.137258 
L 219.832316 103.88295 
L 220.055628 97.710458 
L 220.502251 109.14975 
L 220.725563 103.88295 
L 220.948874 103.88295 
L 221.172186 104.825815 
L 221.395498 83.719015 
L 221.842121 96.967262 
L 222.288744 85.527971 
L 222.512056 96.101171 
L 222.735368 96.967262 
L 222.958679 92.643327 
L 223.181991 101.60724 
L 223.405303 117.44724 
L 223.628614 89.225084 
L 223.851926 105.931175 
L 224.075238 100.664375 
L 224.298549 100.664375 
L 224.521861 113.046531 
L 224.745173 117.44724 
L 225.191796 99.758684 
L 225.415108 105.931175 
L 225.638419 89.225084 
L 225.861731 108.722596 
L 226.085043 99.015488 
L 226.531666 60.220131 
L 226.754977 65.526531 
L 227.201601 91.900131 
L 227.424912 98.149396 
L 227.648224 91.03404 
L 227.871536 113.989396 
L 228.094847 103.416196 
L 228.318159 113.989396 
L 228.541471 98.149396 
L 228.764782 109.588688 
L 228.988094 137.810844 
L 229.211406 121.104753 
L 229.434717 127.277244 
L 229.658029 121.104753 
L 229.881341 137.810844 
L 230.104652 131.677953 
L 230.327964 120.161888 
L 230.551276 125.428688 
L 230.774587 114.855488 
L 230.997899 120.161888 
L 231.221211 120.161888 
L 231.667834 97.206531 
L 231.891146 113.989396 
L 232.114457 114.855488 
L 232.561081 126.371553 
L 232.784392 125.428688 
L 233.007704 119.256196 
L 233.454327 97.206531 
L 234.124262 97.206531 
L 234.347574 102.473331 
L 234.570885 119.256196 
L 234.794197 102.473331 
L 235.017509 96.30084 
L 235.24082 101.60724 
L 235.464132 85.76724 
L 235.687444 85.76724 
L 235.910755 91.900131 
L 236.134067 109.588688 
L 236.357379 109.588688 
L 236.58069 120.161888 
L 236.804002 114.855488 
L 237.027314 121.104753 
L 237.250625 110.531553 
L 237.473937 110.531553 
L 237.697249 109.588688 
L 237.92056 109.588688 
L 238.143872 103.416196 
L 238.367184 121.104753 
L 238.590495 121.104753 
L 238.813807 109.588688 
L 239.037119 121.104753 
L 239.26043 109.588688 
L 239.483742 109.588688 
L 239.930365 99.997953 
L 240.153677 77.908688 
L 240.376988 88.481888 
L 240.6003 93.748688 
L 240.823612 77.042596 
L 241.046923 88.481888 
L 241.270235 87.576196 
L 241.493547 105.264753 
L 241.94017 94.691553 
L 242.163482 95.597244 
L 242.386793 100.864044 
L 242.610105 100.864044 
L 242.833417 84.157953 
L 243.056728 101.806909 
L 243.28004 106.130844 
L 243.726663 106.130844 
L 243.949975 123.8194 
L 244.173287 118.5526 
L 244.396598 118.5526 
L 244.61991 112.380109 
L 244.843222 94.691553 
L 245.066533 123.8194 
L 245.289845 118.5526 
L 245.513157 117.646909 
L 245.736468 112.380109 
L 245.95978 89.424753 
L 246.406403 115.837953 
L 246.629715 115.837953 
L 246.853027 132.544044 
L 247.29965 110.531553 
L 247.746273 110.531553 
L 247.969585 111.437244 
L 248.192896 99.997953 
L 248.862831 99.997953 
L 249.086143 99.015488 
L 249.309455 88.481888 
L 249.532766 88.481888 
L 249.756078 93.748688 
L 249.97939 88.481888 
L 250.426013 106.130844 
L 250.649325 106.130844 
L 250.872636 100.864044 
L 251.095948 89.424753 
L 251.31926 94.691553 
L 251.542571 89.424753 
L 251.765883 88.481888 
L 252.212506 88.481888 
L 252.435818 94.691553 
L 252.65913 89.424753 
L 252.882441 95.597244 
L 253.329065 84.157953 
L 253.552376 85.024044 
L 253.775688 101.806909 
L 253.998999 96.540109 
L 254.222311 96.540109 
L 254.445623 107.9794 
L 254.668934 91.273309 
L 255.115558 91.273309 
L 255.338869 101.806909 
L 255.562181 100.864044 
L 255.785493 106.130844 
L 256.008804 84.157953 
L 256.232116 94.691553 
L 256.455428 84.157953 
L 256.902051 84.157953 
L 257.125363 78.851553 
L 257.348674 95.597244 
L 257.571986 84.157953 
L 257.795298 99.997953 
L 258.018609 88.481888 
L 258.688544 105.264753 
L 258.911856 93.748688 
L 259.135168 93.748688 
L 259.358479 115.837953 
L 259.581791 110.531553 
L 259.805103 110.531553 
L 260.028414 99.015488 
L 260.251726 71.736196 
L 260.475038 71.736196 
L 260.698349 83.175488 
L 260.921661 71.736196 
L 261.144972 72.641888 
L 261.368284 77.908688 
L 261.591596 72.641888 
L 261.814907 84.157953 
L 262.038219 67.335488 
L 262.484842 89.424753 
L 262.708154 67.335488 
L 262.931466 84.157953 
L 263.154777 78.851553 
L 263.601401 78.851553 
L 263.824712 100.864044 
L 264.048024 90.290844 
L 264.271336 85.024044 
L 264.494647 90.290844 
L 264.717959 100.864044 
L 264.941271 99.015488 
L 265.164582 93.748688 
L 265.387894 83.175488 
L 265.611206 88.481888 
L 265.834517 60.220131 
L 266.057829 77.042596 
L 266.281141 108.922265 
L 266.504452 178.694026 
L 266.951076 136.440826 
L 267.174387 140.841534 
L 267.397699 106.370113 
L 267.621011 117.886178 
L 267.844322 112.579778 
L 268.067634 113.485469 
L 268.290945 103.855134 
L 268.514257 113.485469 
L 268.737569 112.579778 
L 268.96088 112.579778 
L 269.184192 146.974426 
L 269.630815 156.681534 
L 269.854127 164.662982 
L 270.077439 160.339047 
L 270.524062 143.556182 
L 270.747374 149.765847 
L 270.970685 138.249782 
L 271.193997 148.822982 
L 271.417309 132.116891 
L 271.64062 143.556182 
L 271.863932 143.556182 
L 272.087244 148.822982 
L 272.533867 137.383691 
L 272.757179 137.383691 
L 272.98049 120.600826 
L 273.203802 127.716182 
L 273.427114 116.276891 
L 273.650425 132.982982 
L 274.097049 143.556182 
L 274.32036 132.116891 
L 274.543672 143.556182 
L 274.990295 154.089782 
L 275.66023 154.089782 
L 275.883542 148.822982 
L 276.106853 159.396182 
L 276.330165 147.956891 
L 276.776788 165.605847 
L 277.0001 165.605847 
L 277.223412 166.511538 
L 277.446723 183.294404 
L 277.670035 183.294404 
L 277.893347 189.466895 
L 278.116658 184.160495 
L 278.33997 195.67656 
L 278.563282 190.40976 
L 279.009905 224.804407 
L 279.233217 223.938316 
L 279.456528 235.377607 
L 279.67984 230.071207 
L 279.903152 213.365116 
L 280.126463 224.804407 
L 280.573087 202.791916 
L 280.796398 208.964407 
L 281.01971 198.391207 
L 281.243022 208.964407 
L 281.466333 203.697607 
L 281.689645 214.231207 
L 281.912956 214.231207 
L 282.136268 197.525116 
L 282.35958 215.213673 
L 282.806203 215.213673 
L 283.029515 221.346564 
L 283.476138 194.067273 
L 283.69945 199.373673 
L 283.922761 182.551207 
L 284.146073 194.972964 
L 284.369385 194.972964 
L 284.816008 205.506564 
L 285.262631 183.533673 
L 285.485943 184.399764 
L 285.709255 184.399764 
L 285.932566 189.666564 
L 286.155878 169.502629 
L 286.37919 169.502629 
L 286.602501 175.67512 
L 286.825813 160.777985 
L 287.272436 190.848698 
L 287.942371 202.287989 
L 288.165683 191.714789 
L 288.388994 191.714789 
L 288.612306 185.581898 
L 288.835618 174.065833 
L 289.058929 202.287989 
L 289.282241 189.905833 
L 289.505553 190.848698 
L 289.728864 179.332633 
L 290.175488 191.714789 
L 290.398799 190.848698 
L 290.622111 184.599433 
L 290.845423 197.021189 
L 291.068734 184.599433 
L 291.292046 200.439433 
L 291.515358 200.439433 
L 291.738669 199.573342 
L 291.961981 217.261898 
L 292.185293 217.261898 
L 292.408604 211.955498 
L 292.631916 223.394789 
L 292.855228 201.421898 
L 293.078539 196.115498 
L 293.525163 229.644054 
L 293.748474 234.910854 
L 293.971786 234.910854 
L 294.195098 217.261898 
L 294.418409 217.261898 
L 294.641721 199.573342 
L 294.865033 205.745833 
L 295.088344 222.528698 
L 295.534967 200.439433 
L 295.758279 199.573342 
L 295.981591 211.012633 
L 296.204902 199.573342 
L 296.428214 205.745833 
L 296.651526 195.172633 
L 296.874837 200.439433 
L 297.098149 195.172633 
L 297.321461 218.127989 
L 297.544772 212.861189 
L 297.768084 201.421898 
L 297.991396 201.421898 
L 298.214707 196.115498 
L 298.438019 195.172633 
L 298.661331 201.421898 
L 298.884642 185.581898 
L 299.107954 203.230854 
L 299.331266 191.714789 
L 299.554577 197.964054 
L 299.777889 192.697254 
L 300.001201 191.714789 
L 300.224512 202.287989 
L 300.447824 207.554789 
L 300.671136 202.287989 
L 300.894447 172.217277 
L 301.117759 183.733342 
L 301.341071 183.733342 
L 301.564382 196.115498 
L 301.787694 201.421898 
L 302.011006 184.599433 
L 302.234317 196.115498 
L 302.457629 196.115498 
L 302.904252 184.599433 
L 303.127564 196.115498 
L 303.350875 184.599433 
L 303.797499 196.115498 
L 304.02081 196.115498 
L 304.244122 207.554789 
L 304.467434 212.861189 
L 304.690745 207.554789 
L 304.914057 218.127989 
L 305.137369 206.688698 
L 305.36068 206.688698 
L 305.583992 201.421898 
L 305.807304 260.580858 
L 306.030615 219.976546 
L 306.253927 253.465502 
L 306.477239 236.759411 
L 306.70055 247.332611 
L 306.923862 241.083346 
L 307.147174 247.332611 
L 307.370485 240.217254 
L 307.593797 246.350146 
L 307.817109 246.350146 
L 308.263732 234.910854 
L 308.487044 245.484054 
L 308.710355 250.750854 
L 308.933667 233.967989 
L 309.38029 251.656546 
L 309.826913 240.217254 
L 310.050225 240.217254 
L 310.273537 263.172611 
L 310.72016 241.083346 
L 310.943472 241.083346 
L 311.166783 229.644054 
L 311.390095 234.910854 
L 311.613407 234.910854 
L 311.836718 229.644054 
L 312.06003 246.350146 
L 312.283342 247.332611 
L 312.506653 235.816546 
L 312.729965 247.332611 
L 312.953277 219.976546 
L 313.176588 230.510146 
L 313.3999 230.510146 
L 313.846523 208.537254 
L 314.069835 225.243346 
L 314.293147 214.670146 
L 314.73977 237.625502 
L 315.409705 220.919411 
L 315.633017 242.931902 
L 315.856328 220.919411 
L 316.07964 232.358702 
L 316.526263 243.874767 
L 316.749575 243.874767 
L 316.972886 279.21228 
L 317.196198 255.314058 
L 317.41951 272.096923 
L 317.642821 259.714767 
L 317.866133 255.314058 
L 318.089445 254.447967 
L 318.312756 254.447967 
L 318.536068 238.607967 
L 318.75938 252.599411 
L 318.982691 242.026211 
L 319.206003 263.172611 
L 319.429315 234.910854 
L 319.652626 252.599411 
L 319.875938 252.599411 
L 320.09925 247.332611 
L 320.322561 264.038702 
L 320.769185 229.644054 
L 320.992496 228.701189 
L 321.215808 233.967989 
L 321.662431 222.528698 
L 321.885743 221.585833 
L 322.109055 243.635498 
L 322.332366 242.692633 
L 322.555678 255.074789 
L 322.778989 248.941898 
L 323.002301 249.807989 
L 323.225613 249.807989 
L 323.448924 255.074789 
L 323.672236 244.541189 
L 323.895548 249.807989 
L 324.118859 243.635498 
L 324.342171 243.635498 
L 324.788794 265.647989 
L 325.012106 242.692633 
L 325.235418 254.208698 
L 325.458729 247.999033 
L 325.682041 259.515098 
L 325.905353 259.515098 
L 326.128664 254.208698 
L 326.351976 242.692633 
L 326.575288 254.208698 
L 326.798599 254.208698 
L 327.021911 255.074789 
L 327.468534 244.541189 
L 327.691846 249.807989 
L 328.138469 238.368698 
L 328.361781 260.381189 
L 328.585093 238.368698 
L 328.808404 238.368698 
L 329.031716 249.807989 
L 329.255028 249.807989 
L 329.478339 243.635498 
L 329.701651 243.635498 
L 329.924962 238.368698 
L 330.148274 249.807989 
L 330.371586 244.541189 
L 330.594897 256.057254 
L 331.041521 266.590854 
L 331.488144 256.057254 
L 331.711456 262.190146 
L 331.934767 262.190146 
L 332.158079 272.763346 
L 332.828014 239.234789 
L 333.051326 250.750854 
L 333.274637 249.807989 
L 333.497949 261.324054 
L 333.721261 238.368698 
L 333.944572 255.074789 
L 334.167884 243.635498 
L 334.391196 249.807989 
L 334.614507 261.324054 
L 334.837819 256.057254 
L 335.061131 262.190146 
L 335.284442 256.923346 
L 335.507754 245.484054 
L 335.731066 250.750854 
L 335.954377 239.234789 
L 336.624312 257.866211 
L 336.847624 251.656546 
L 337.070935 263.172611 
L 337.294247 263.172611 
L 337.517559 279.012611 
L 337.74087 267.496546 
L 337.964182 284.279411 
L 338.187494 284.279411 
L 338.410805 262.190146 
L 338.857429 262.190146 
L 339.08074 279.012611 
L 339.304052 267.496546 
L 339.527364 268.439411 
L 339.750675 263.172611 
L 339.973987 274.611902 
L 340.197299 274.611902 
L 340.42061 263.172611 
L 340.643922 263.172611 
L 340.867234 274.611902 
L 341.090545 274.611902 
L 341.313857 263.172611 
L 341.537169 279.878702 
L 341.983792 268.439411 
L 342.207104 267.496546 
L 343.10035 267.496546 
L 343.323662 256.057254 
L 343.546973 261.324054 
L 343.770285 248.941898 
L 343.993597 249.807989 
L 344.216908 266.590854 
L 344.663532 266.590854 
L 344.886843 249.807989 
L 345.333467 249.807989 
L 345.556778 255.074789 
L 345.78009 249.807989 
L 346.003402 249.807989 
L 346.226713 261.324054 
L 346.450025 249.807989 
L 346.673337 260.381189 
L 346.896648 248.941898 
L 347.11996 243.635498 
L 347.343272 225.986542 
L 347.566583 243.635498 
L 347.789895 243.635498 
L 348.013207 226.852633 
L 348.236518 225.986542 
L 348.45983 238.368698 
L 348.683142 233.101898 
L 348.906453 233.101898 
L 349.129765 249.807989 
L 349.353077 238.368698 
L 349.576388 238.368698 
L 349.7997 256.057254 
L 350.023012 250.750854 
L 350.246323 256.057254 
L 350.469635 267.496546 
L 350.692946 250.750854 
L 350.916258 250.750854 
L 351.13957 262.190146 
L 351.362881 250.750854 
L 351.809505 262.190146 
L 352.032816 256.057254 
L 352.256128 244.541189 
L 352.47944 244.541189 
L 352.702751 249.807989 
L 353.149375 238.368698 
L 353.372686 243.635498 
L 353.595998 255.074789 
L 353.81931 238.368698 
L 354.042621 243.635498 
L 354.265933 244.541189 
L 354.489245 226.852633 
L 354.935868 249.807989 
L 355.15918 249.807989 
L 355.605803 238.368698 
L 355.829115 243.635498 
L 356.052426 267.496546 
L 356.275738 256.057254 
L 356.49905 261.324054 
L 356.722361 249.807989 
L 356.945673 244.541189 
L 357.168984 244.541189 
L 357.392296 261.324054 
L 357.838919 238.368698 
L 358.062231 261.324054 
L 358.285543 255.074789 
L 358.508854 255.074789 
L 358.732166 238.368698 
L 358.955478 248.941898 
L 359.402101 248.941898 
L 359.625413 266.590854 
L 359.848724 244.541189 
L 360.072036 249.807989 
L 360.295348 244.541189 
L 360.518659 261.324054 
L 360.965283 239.234789 
L 361.188594 256.057254 
L 361.411906 239.234789 
L 361.635218 256.057254 
L 361.858529 249.807989 
L 362.081841 261.324054 
L 362.305153 249.807989 
L 362.528464 244.541189 
L 362.751776 261.324054 
L 363.198399 261.324054 
L 363.645023 250.750854 
L 363.868334 250.750854 
L 364.091646 262.190146 
L 364.314957 267.496546 
L 364.538269 245.484054 
L 364.761581 262.190146 
L 364.984892 250.750854 
L 365.208204 245.484054 
L 365.431516 246.350146 
L 365.654827 246.350146 
L 365.878139 241.083346 
L 366.101451 247.332611 
L 366.324762 241.083346 
L 366.548074 245.484054 
L 366.771386 229.644054 
L 366.994697 223.394789 
L 367.218009 233.967989 
L 367.441321 233.967989 
L 367.664632 258.771902 
L 368.111256 254.447967 
L 368.334567 260.580858 
L 368.557879 261.563323 
L 368.781191 268.67868 
L 369.227814 235.150123 
L 369.451126 236.016215 
L 369.674437 235.150123 
L 369.897749 228.900858 
L 370.121061 199.812611 
L 370.344372 205.079411 
L 370.567684 205.945502 
L 370.790995 200.678702 
L 371.014307 176.857254 
L 371.237619 205.079411 
L 371.46093 205.079411 
L 371.684242 211.251902 
L 372.130865 185.581898 
L 372.354177 212.861189 
L 372.8008 154.52872 
L 373.247424 198.630477 
L 373.470735 204.840142 
L 373.694047 192.457985 
L 373.917359 197.724785 
L 374.14067 168.559764 
L 374.587294 187.191185 
L 374.810605 197.724785 
L 375.033917 180.94192 
L 375.257229 180.94192 
L 375.48054 187.191185 
L 375.703852 181.884785 
L 375.927164 198.630477 
L 376.150475 198.630477 
L 376.373787 187.191185 
L 376.597099 203.897277 
L 376.82041 192.457985 
L 377.043722 187.191185 
L 377.267034 187.191185 
L 377.490345 192.457985 
L 377.713657 187.191185 
L 377.936968 204.840142 
L 378.16028 193.324077 
L 378.383592 198.630477 
L 378.606903 209.164077 
L 379.053527 209.164077 
L 379.276838 197.724785 
L 379.50015 192.457985 
L 379.723462 192.457985 
L 379.946773 198.630477 
L 380.170085 198.630477 
L 380.616708 187.191185 
L 380.84002 187.191185 
L 381.063332 188.057277 
L 381.286643 199.573342 
L 381.509955 193.324077 
L 381.733267 198.630477 
L 382.17989 198.630477 
L 382.403202 203.897277 
L 382.626513 203.897277 
L 382.849825 192.457985 
L 383.073137 203.897277 
L 383.296448 198.630477 
L 383.51976 210.146542 
L 383.743072 203.897277 
L 383.966383 204.840142 
L 384.189695 210.146542 
L 384.413007 210.146542 
L 384.636318 203.897277 
L 384.85963 210.146542 
L 385.082941 204.840142 
L 385.306253 216.279433 
L 385.752876 216.279433 
L 385.976188 210.146542 
L 386.1995 198.630477 
L 386.422811 210.146542 
L 386.646123 193.324077 
L 387.092746 211.012633 
L 387.316058 194.306542 
L 387.53937 205.745833 
L 387.762681 194.306542 
L 387.985993 205.745833 
L 388.209305 189.000142 
L 388.432616 189.000142 
L 388.655928 205.745833 
L 389.549175 205.745833 
L 389.772486 193.324077 
L 389.995798 193.324077 
L 390.21911 204.840142 
L 390.442421 193.324077 
L 390.665733 199.573342 
L 390.889045 199.573342 
L 391.112356 194.306542 
L 391.335668 211.012633 
L 391.558979 211.012633 
L 391.782291 199.573342 
L 392.005603 199.573342 
L 392.452226 211.012633 
L 392.675538 205.745833 
L 392.898849 206.688698 
L 393.122161 218.127989 
L 393.345473 212.861189 
L 393.568784 228.701189 
L 394.015408 218.127989 
L 394.238719 218.127989 
L 394.462031 211.955498 
L 394.685343 212.861189 
L 394.908654 224.377254 
L 395.131966 213.804054 
L 395.578589 242.026211 
L 395.801901 214.670146 
L 396.025213 220.919411 
L 396.248524 209.403346 
L 396.471836 214.670146 
L 396.695148 214.670146 
L 396.918459 226.186211 
L 397.141771 219.976546 
L 397.365083 209.403346 
L 397.588394 215.652611 
L 397.811706 226.186211 
L 398.258329 202.287989 
L 398.481641 208.537254 
L 398.704952 202.287989 
L 398.928264 202.287989 
L 399.151576 196.115498 
L 399.374887 208.537254 
L 399.598199 203.230854 
L 399.821511 203.230854 
L 400.044822 197.021189 
L 400.491446 214.670146 
L 400.714757 225.243346 
L 400.938069 207.554789 
L 401.161381 207.554789 
L 401.384692 201.421898 
L 401.608004 201.421898 
L 401.831316 206.688698 
L 402.054627 206.688698 
L 402.277939 212.861189 
L 402.501251 201.421898 
L 402.724562 207.554789 
L 402.947874 196.115498 
L 403.394497 207.554789 
L 403.617809 195.172633 
L 403.841121 195.172633 
L 404.287744 207.554789 
L 404.511056 196.115498 
L 404.734367 202.287989 
L 404.957679 202.287989 
L 405.18099 208.537254 
L 405.404302 203.230854 
L 405.850925 231.492611 
L 406.074237 214.670146 
L 406.297549 209.403346 
L 406.52086 226.186211 
L 406.744172 209.403346 
L 406.967484 219.976546 
L 407.190795 214.670146 
L 407.414107 226.186211 
L 407.637419 208.537254 
L 407.86073 202.287989 
L 408.084042 207.554789 
L 408.307354 219.070854 
L 408.530665 213.804054 
L 408.753977 213.804054 
L 408.977289 208.537254 
L 409.423912 219.976546 
L 409.647224 208.537254 
L 409.870535 208.537254 
L 410.093847 197.021189 
L 410.317159 202.287989 
L 410.763782 202.287989 
L 410.987094 190.848698 
L 411.210405 190.848698 
L 411.433717 191.714789 
L 411.657029 203.230854 
L 411.88034 208.537254 
L 412.550275 208.537254 
L 412.773587 201.421898 
L 412.996898 207.554789 
L 413.22021 207.554789 
L 413.443522 202.287989 
L 413.666833 214.670146 
L 413.890145 219.976546 
L 414.113457 219.976546 
L 414.56008 207.554789 
L 414.783392 212.861189 
L 415.676638 212.861189 
L 415.89995 213.804054 
L 416.123262 242.931902 
L 416.346573 231.492611 
L 416.569885 242.931902 
L 417.016508 253.465502 
L 417.23982 242.026211 
L 417.463132 242.026211 
L 417.686443 212.861189 
L 417.909755 241.083346 
L 418.133067 232.358702 
L 418.356378 260.580858 
L 418.803002 221.785502 
L 419.026313 245.723323 
L 419.249625 246.589415 
L 419.472936 245.723323 
L 419.696248 233.301567 
L 419.91956 245.723323 
L 420.142871 246.589415 
L 420.366183 251.856215 
L 420.589495 239.474058 
L 420.812806 250.990123 
L 421.036118 245.723323 
L 421.482741 256.256923 
L 421.706053 222.767967 
L 421.929365 221.785502 
L 422.152676 238.607967 
L 422.375988 233.301567 
L 422.822611 244.740858 
L 423.045923 239.474058 
L 423.492546 250.047258 
L 423.715858 244.740858 
L 423.93917 244.740858 
L 424.162481 233.301567 
L 424.385793 241.083346 
L 424.609105 229.644054 
L 424.832416 229.644054 
L 425.055728 246.350146 
L 425.27904 234.910854 
L 425.502351 235.816546 
L 425.725663 241.083346 
L 425.948974 236.759411 
L 426.172286 236.759411 
L 426.395598 246.350146 
L 426.618909 242.026211 
L 426.842221 230.510146 
L 427.065533 235.816546 
L 427.735468 220.919411 
L 427.958779 232.358702 
L 428.182091 210.346211 
L 428.405403 232.358702 
L 428.628714 214.670146 
L 428.852026 226.186211 
L 429.075338 214.670146 
L 429.298649 219.976546 
L 429.521961 219.976546 
L 429.745273 225.243346 
L 430.191896 196.115498 
L 430.415208 219.976546 
L 430.638519 213.804054 
L 430.861831 219.976546 
L 431.085143 213.804054 
L 431.308454 213.804054 
L 431.531766 219.976546 
L 431.755078 219.976546 
L 431.978389 213.804054 
L 432.201701 212.861189 
L 432.425013 223.394789 
L 432.648324 223.394789 
L 432.871636 218.127989 
L 433.318259 228.701189 
L 433.541571 218.127989 
L 433.764882 234.910854 
L 433.988194 223.394789 
L 434.211506 233.967989 
L 434.434817 239.234789 
L 434.658129 228.701189 
L 434.881441 233.967989 
L 435.104752 245.484054 
L 435.328064 233.967989 
L 435.774687 246.350146 
L 436.221311 235.816546 
L 436.444622 241.083346 
L 436.667934 234.910854 
L 436.891246 241.083346 
L 437.114557 264.038702 
L 437.561181 253.465502 
L 437.784492 258.771902 
L 438.007804 258.771902 
L 438.231116 253.465502 
L 438.454427 258.771902 
L 438.677739 247.332611 
L 438.901051 247.332611 
L 439.124362 258.771902 
L 439.347674 247.332611 
L 439.794297 275.554767 
L 440.017609 264.038702 
L 440.24092 258.771902 
L 440.464232 258.771902 
L 440.687544 270.287967 
L 440.910855 258.771902 
L 441.134167 257.866211 
L 441.357479 257.866211 
L 441.58079 264.038702 
L 441.804102 275.554767 
L 442.027414 264.038702 
L 442.250725 280.821567 
L 442.474037 275.554767 
L 442.92066 275.554767 
L 443.143972 270.287967 
L 443.367284 281.727258 
L 443.590595 271.154058 
L 443.813907 271.154058 
L 444.037219 264.981567 
L 444.26053 270.287967 
L 444.483842 253.465502 
L 444.707154 264.981567 
L 445.153777 253.465502 
L 445.6004 264.038702 
L 446.270335 264.038702 
L 446.493647 252.599411 
L 446.716958 275.554767 
L 446.94027 258.771902 
L 447.163582 270.287967 
L 447.386893 275.554767 
L 447.610205 258.771902 
L 447.833517 264.981567 
L 448.056828 253.465502 
L 448.28014 259.714767 
L 448.726763 249.141567 
L 448.950075 265.887258 
L 449.173387 259.714767 
L 449.396698 242.931902 
L 450.066633 260.580858 
L 450.289945 243.874767 
L 450.513257 237.625502 
L 450.95988 249.141567 
L 451.183192 249.141567 
L 451.406503 237.625502 
L 451.629815 243.874767 
L 451.853127 232.358702 
L 452.076438 243.874767 
L 452.29975 232.358702 
L 452.523062 243.874767 
L 452.746373 249.141567 
L 452.969685 236.759411 
L 453.192996 242.931902 
L 453.416308 242.026211 
L 453.63962 230.510146 
L 453.862931 235.816546 
L 454.309555 235.816546 
L 454.532866 230.510146 
L 454.97949 212.861189 
L 455.202801 219.070854 
L 455.426113 219.070854 
L 455.649425 219.976546 
L 456.096048 219.976546 
L 456.31936 226.186211 
L 456.542671 219.976546 
L 456.765983 225.243346 
L 456.989295 219.976546 
L 457.212606 219.976546 
L 457.435918 226.186211 
L 457.882541 217.461567 
L 458.105853 217.461567 
L 458.329165 228.034767 
L 458.552476 216.518702 
L 458.775788 221.785502 
L 458.9991 216.518702 
L 459.222411 216.518702 
L 459.669035 205.079411 
L 459.892346 215.652611 
L 460.115658 204.136546 
L 460.338969 214.670146 
L 460.562281 197.964054 
L 460.785593 203.230854 
L 461.008904 204.136546 
L 461.232216 209.403346 
L 461.455528 198.830146 
L 461.678839 199.812611 
L 461.902151 194.506211 
L 462.125463 211.251902 
L 462.572086 190.105502 
L 462.795398 190.105502 
L 463.018709 196.354767 
L 463.465333 178.666211 
L 463.688644 184.838702 
L 464.135268 184.838702 
L 464.358579 179.532302 
L 464.581891 184.838702 
L 464.805203 196.354767 
L 465.028514 173.399411 
L 465.251826 161.883346 
L 465.475138 178.666211 
L 465.698449 150.444054 
L 465.921761 162.826211 
L 466.368384 162.826211 
L 466.591696 157.559411 
L 466.815008 136.413011 
L 467.038319 141.719411 
L 467.261631 142.585502 
L 467.484942 132.012302 
L 467.708254 177.923015 
L 467.931566 172.656215 
L 468.154877 197.659796 
L 468.601501 170.380505 
L 468.824812 176.552996 
L 469.048124 160.712996 
L 469.271436 159.807305 
L 469.494747 137.75764 
L 469.718059 143.02444 
L 469.941371 138.700505 
L 470.164682 143.967305 
L 470.387994 136.851949 
L 470.611306 143.02444 
L 470.834617 142.158349 
L 471.057929 152.691949 
L 471.281241 129.736592 
L 471.504552 151.749084 
L 471.727864 129.736592 
L 471.951176 135.042992 
L 472.397799 124.469792 
L 472.621111 145.576592 
L 472.844422 139.366927 
L 473.067734 127.927636 
L 473.291046 156.149792 
L 473.737669 133.194436 
L 473.96098 138.461236 
L 474.184292 121.678371 
L 474.407604 116.411571 
L 474.630915 127.927636 
L 474.854227 117.354436 
L 475.077539 139.366927 
L 475.30085 134.060527 
L 475.524162 139.366927 
L 475.747474 128.793727 
L 475.970785 111.105171 
L 476.194097 111.105171 
L 476.417409 127.927636 
L 476.64072 128.793727 
L 476.864032 134.060527 
L 477.087344 128.793727 
L 477.310655 112.087636 
L 477.757279 134.060527 
L 477.98059 122.621236 
L 478.203902 139.366927 
L 478.427214 134.060527 
L 478.650525 150.882992 
L 479.097149 132.251571 
L 479.32046 149.900527 
L 479.543772 144.633727 
L 479.767084 143.767636 
L 479.990395 149.900527 
L 480.213707 142.824771 
L 480.437019 131.38548 
L 480.66033 137.518371 
L 480.883642 137.518371 
L 481.106953 148.091571 
L 481.330265 164.874436 
L 481.553577 170.180836 
L 481.776888 154.340836 
L 482.446823 154.340836 
L 482.670135 142.824771 
L 483.116758 158.664771 
L 483.34007 152.49228 
L 483.563382 170.180836 
L 483.786693 170.180836 
L 484.010005 158.664771 
L 484.233317 164.874436 
L 484.456628 159.607636 
L 484.67994 164.874436 
L 484.903252 147.22548 
L 485.126563 153.358371 
L 485.349875 153.358371 
L 485.573187 159.607636 
L 485.796498 154.340836 
L 486.01981 154.340836 
L 486.243122 149.034436 
L 486.466433 149.034436 
L 486.689745 142.824771 
L 486.913057 143.767636 
L 487.136368 149.900527 
L 487.35968 149.034436 
L 487.582991 143.767636 
L 487.806303 149.900527 
L 488.029615 133.194436 
L 488.252926 149.900527 
L 488.476238 149.900527 
L 488.69955 139.366927 
L 488.922861 139.366927 
L 489.146173 140.309792 
L 489.369485 145.576592 
L 489.592796 140.309792 
L 489.816108 157.015884 
L 490.03942 130.642284 
L 490.262731 130.642284 
L 490.486043 129.736592 
L 490.709355 119.202992 
L 491.37929 135.909084 
L 492.272536 113.896592 
L 492.495848 119.202992 
L 492.71916 129.736592 
L 492.942471 129.736592 
L 493.165783 119.202992 
L 493.389095 129.736592 
L 493.612406 129.736592 
L 494.05903 119.202992 
L 494.282341 119.202992 
L 494.505653 102.380527 
L 494.728964 107.686927 
L 494.952276 107.686927 
L 495.175588 112.953727 
L 495.398899 124.469792 
L 495.622211 123.526927 
L 495.845523 134.060527 
L 496.068834 127.927636 
L 496.292146 128.793727 
L 496.515458 116.411571 
L 496.738769 127.927636 
L 496.962081 117.354436 
L 497.185393 118.220527 
L 497.408704 124.469792 
L 497.632016 135.042992 
L 497.855328 135.042992 
L 498.078639 118.220527 
L 498.301951 112.953727 
L 498.525263 129.736592 
L 498.971886 119.202992 
L 499.195198 119.202992 
L 499.418509 107.686927 
L 499.641821 119.202992 
L 499.865133 113.896592 
L 500.088444 113.896592 
L 500.311756 102.380527 
L 500.535068 108.629792 
L 500.758379 103.362992 
L 500.981691 103.362992 
L 501.205003 108.629792 
L 501.428314 109.495884 
L 501.651626 109.495884 
L 501.874937 113.896592 
L 502.098249 91.846927 
L 502.321561 98.056592 
L 502.544872 109.495884 
L 502.768184 110.478349 
L 502.991496 104.229084 
L 503.214807 103.362992 
L 503.438119 104.229084 
L 503.661431 92.789792 
L 503.884742 93.655884 
L 504.108054 121.011949 
L 504.331366 121.011949 
L 504.554677 115.745149 
L 504.777989 122.860505 
L 505.001301 121.91764 
L 505.224612 134.299796 
L 505.447924 129.032996 
L 505.671236 129.975861 
L 505.894547 117.593705 
L 506.117859 113.192996 
L 506.341171 119.402661 
L 506.564482 136.148353 
L 506.787794 136.148353 
L 507.011106 135.242661 
L 507.234417 142.358018 
L 507.457729 136.148353 
L 507.681041 147.664418 
L 507.904352 147.664418 
L 508.127664 145.815861 
L 508.350975 140.549061 
L 508.574287 139.566596 
L 509.244222 139.566596 
L 509.467534 146.681953 
L 509.690845 145.815861 
L 509.914157 145.815861 
L 510.137469 157.255153 
L 510.36078 145.815861 
L 510.584092 162.521953 
L 511.030715 173.095153 
L 511.254027 161.655861 
L 511.477339 179.344418 
L 511.70065 169.637309 
L 511.923962 180.210509 
L 512.147274 164.370509 
L 512.370585 163.504418 
L 512.817209 151.988353 
L 513.04052 163.504418 
L 513.263832 168.771218 
L 513.487144 158.198018 
L 513.710455 163.504418 
L 513.933767 145.815861 
L 514.157079 140.549061 
L 514.38039 162.521953 
L 514.603702 156.389061 
L 514.827014 145.815861 
L 515.050325 145.815861 
L 515.273637 134.299796 
L 515.496948 157.255153 
L 516.166883 128.127305 
L 516.390195 140.549061 
L 516.613507 129.032996 
L 516.836818 129.032996 
L 517.06013 145.815861 
L 517.283442 128.127305 
L 517.506753 122.860505 
L 517.953377 134.299796 
L 518.176688 117.593705 
L 518.4 112.287305 
L 518.4 112.287305 
" style="fill:none;stroke:#4c72b0;stroke-linecap:round;stroke-width:1.75;"/>
   </g>
   <g id="patch_3">
    <path d="M 72 356.4 
L 518.4 356.4 
" style="fill:none;"/>
   </g>
   <g id="patch_4">
    <path d="M 72 39.6 
L 518.4 39.6 
" style="fill:none;"/>
   </g>
   <g id="patch_5">
    <path d="M 72 356.4 
L 72 39.6 
" style="fill:none;"/>
   </g>
   <g id="patch_6">
    <path d="M 518.4 356.4 
L 518.4 39.6 
" style="fill:none;"/>
   </g>
   <g id="text_15">
    <!-- cs - 1.9387314906382422 * c -->
    <defs>
     <path d="M 9.125 0 
L 9.125 10.6875 
L 18.65625 10.6875 
L 18.65625 0 
z
" id="LiberationSans-2e"/>
     <path d="M 46.390625 14.59375 
Q 46.390625 10.890625 44.9375 7.984375 
Q 43.5 5.078125 40.765625 3.09375 
Q 38.03125 1.125 34.046875 0.0625 
Q 30.078125 -0.984375 24.953125 -0.984375 
Q 20.359375 -0.984375 16.671875 -0.265625 
Q 12.984375 0.4375 10.203125 2 
Q 7.421875 3.5625 5.53125 6.125 
Q 3.65625 8.6875 2.78125 12.40625 
L 10.546875 13.921875 
Q 11.671875 9.671875 15.1875 7.6875 
Q 18.703125 5.71875 24.953125 5.71875 
Q 27.78125 5.71875 30.140625 6.109375 
Q 32.515625 6.5 34.21875 7.453125 
Q 35.9375 8.40625 36.890625 9.984375 
Q 37.84375 11.578125 37.84375 13.921875 
Q 37.84375 16.3125 36.71875 17.84375 
Q 35.59375 19.390625 33.59375 20.40625 
Q 31.59375 21.4375 28.734375 22.1875 
Q 25.875 22.953125 22.46875 23.875 
Q 19.28125 24.703125 16.15625 25.734375 
Q 13.03125 26.765625 10.515625 28.4375 
Q 8.015625 30.125 6.453125 32.609375 
Q 4.890625 35.109375 4.890625 38.875 
Q 4.890625 46.09375 10.03125 49.875 
Q 15.1875 53.65625 25.046875 53.65625 
Q 33.796875 53.65625 38.9375 50.578125 
Q 44.09375 47.515625 45.453125 40.71875 
L 37.546875 39.75 
Q 37.109375 41.796875 35.9375 43.1875 
Q 34.765625 44.578125 33.109375 45.4375 
Q 31.453125 46.296875 29.375 46.65625 
Q 27.296875 47.015625 25.046875 47.015625 
Q 19.09375 47.015625 16.25 45.203125 
Q 13.421875 43.40625 13.421875 39.75 
Q 13.421875 37.59375 14.46875 36.203125 
Q 15.53125 34.8125 17.40625 33.859375 
Q 19.28125 32.90625 21.921875 32.203125 
Q 24.5625 31.5 27.734375 30.71875 
Q 29.828125 30.171875 32.03125 29.5625 
Q 34.234375 28.953125 36.296875 28.09375 
Q 38.375 27.25 40.203125 26.09375 
Q 42.046875 24.953125 43.40625 23.34375 
Q 44.78125 21.734375 45.578125 19.578125 
Q 46.390625 17.4375 46.390625 14.59375 
" id="LiberationSans-73"/>
     <path d="M 22.265625 54.390625 
L 35.15625 59.421875 
L 37.359375 52.984375 
L 23.578125 49.421875 
L 32.625 37.203125 
L 26.8125 33.6875 
L 19.484375 46.296875 
L 11.859375 33.796875 
L 6.0625 37.3125 
L 15.28125 49.421875 
L 1.609375 52.984375 
L 3.8125 59.515625 
L 16.84375 54.296875 
L 16.265625 68.796875 
L 22.90625 68.796875 
z
" id="LiberationSans-2a"/>
     <path d="M 13.421875 26.65625 
Q 13.421875 22.125 14.078125 18.3125 
Q 14.75 14.5 16.3125 11.734375 
Q 17.875 8.984375 20.4375 7.46875 
Q 23 5.953125 26.765625 5.953125 
Q 31.453125 5.953125 34.59375 8.484375 
Q 37.75 11.03125 38.484375 16.3125 
L 47.359375 15.71875 
Q 46.921875 12.453125 45.453125 9.421875 
Q 44 6.390625 41.484375 4.09375 
Q 38.96875 1.8125 35.34375 0.40625 
Q 31.734375 -0.984375 27 -0.984375 
Q 20.796875 -0.984375 16.453125 1.109375 
Q 12.109375 3.21875 9.390625 6.90625 
Q 6.6875 10.59375 5.46875 15.59375 
Q 4.25 20.609375 4.25 26.46875 
Q 4.25 31.78125 5.125 35.859375 
Q 6 39.9375 7.59375 42.984375 
Q 9.1875 46.046875 11.328125 48.125 
Q 13.484375 50.203125 15.984375 51.4375 
Q 18.5 52.6875 21.28125 53.25 
Q 24.078125 53.8125 26.90625 53.8125 
Q 31.34375 53.8125 34.8125 52.59375 
Q 38.28125 51.375 40.796875 49.25 
Q 43.3125 47.125 44.875 44.234375 
Q 46.4375 41.359375 47.078125 38.03125 
L 38.03125 37.359375 
Q 37.359375 41.75 34.5625 44.328125 
Q 31.78125 46.921875 26.65625 46.921875 
Q 22.90625 46.921875 20.390625 45.671875 
Q 17.875 44.4375 16.3125 41.921875 
Q 14.75 39.40625 14.078125 35.59375 
Q 13.421875 31.78125 13.421875 26.65625 
" id="LiberationSans-63"/>
    </defs>
    <g style="fill:#262626;" transform="translate(216.8109375 34.6)scale(0.12 -0.12)">
     <use xlink:href="#LiberationSans-63"/>
     <use x="50.0" xlink:href="#LiberationSans-73"/>
     <use x="100.0" xlink:href="#LiberationSans-20"/>
     <use x="127.783203125" xlink:href="#LiberationSans-2d"/>
     <use x="161.083984375" xlink:href="#LiberationSans-20"/>
     <use x="188.8671875" xlink:href="#LiberationSans-31"/>
     <use x="244.482421875" xlink:href="#LiberationSans-2e"/>
     <use x="272.265625" xlink:href="#LiberationSans-39"/>
     <use x="327.880859375" xlink:href="#LiberationSans-33"/>
     <use x="383.49609375" xlink:href="#LiberationSans-38"/>
     <use x="439.111328125" xlink:href="#LiberationSans-37"/>
     <use x="494.7265625" xlink:href="#LiberationSans-33"/>
     <use x="550.341796875" xlink:href="#LiberationSans-31"/>
     <use x="605.95703125" xlink:href="#LiberationSans-34"/>
     <use x="661.572265625" xlink:href="#LiberationSans-39"/>
     <use x="717.1875" xlink:href="#LiberationSans-30"/>
     <use x="772.802734375" xlink:href="#LiberationSans-36"/>
     <use x="828.41796875" xlink:href="#LiberationSans-33"/>
     <use x="884.033203125" xlink:href="#LiberationSans-38"/>
     <use x="939.6484375" xlink:href="#LiberationSans-32"/>
     <use x="995.263671875" xlink:href="#LiberationSans-34"/>
     <use x="1050.87890625" xlink:href="#LiberationSans-32"/>
     <use x="1106.494140625" xlink:href="#LiberationSans-32"/>
     <use x="1162.109375" xlink:href="#LiberationSans-20"/>
     <use x="1189.892578125" xlink:href="#LiberationSans-2a"/>
     <use x="1228.80859375" xlink:href="#LiberationSans-20"/>
     <use x="1256.591796875" xlink:href="#LiberationSans-63"/>
    </g>
   </g>
  </g>
 </g>
 <defs>
  <clipPath id="p9b436830ef">
   <rect height="316.8" width="446.4" x="72.0" y="39.6"/>
  </clipPath>
 </defs>
</svg>
