<?xml version="1.0" encoding="utf-8" standalone="no"?>
<!DOCTYPE svg PUBLIC "-//W3C//DTD SVG 1.1//EN"
  "http://www.w3.org/Graphics/SVG/1.1/DTD/svg11.dtd">
<!-- Created with matplotlib (http://matplotlib.org/) -->
<svg height="396pt" version="1.1" viewBox="0 0 576 396" width="576pt" xmlns="http://www.w3.org/2000/svg" xmlns:xlink="http://www.w3.org/1999/xlink">
 <defs>
  <style type="text/css">
*{stroke-linecap:butt;stroke-linejoin:round;stroke-miterlimit:100000;}
  </style>
 </defs>
 <g id="figure_1">
  <g id="patch_1">
   <path d="M 0 396 
L 576 396 
L 576 0 
L 0 0 
z
" style="fill:#ffffff;"/>
  </g>
  <g id="axes_1">
   <g id="patch_2">
    <path d="M 72 356.4 
L 518.4 356.4 
L 518.4 39.6 
L 72 39.6 
z
" style="fill:#eaeaf2;"/>
   </g>
   <g id="matplotlib.axis_1">
    <g id="xtick_1">
     <g id="line2d_1">
      <path clip-path="url(#pb095fe25fd)" d="M 72 356.4 
L 72 39.6 
" style="fill:none;stroke:#ffffff;stroke-linecap:round;"/>
     </g>
     <g id="line2d_2"/>
     <g id="line2d_3"/>
     <g id="text_1">
      <!-- 2016-09-29 22:43:00 -->
      <defs>
       <path d="M 5.03125 0 
L 5.03125 6.203125 
Q 7.515625 11.921875 11.109375 16.28125 
Q 14.703125 20.65625 18.65625 24.1875 
Q 22.609375 27.734375 26.484375 30.765625 
Q 30.375 33.796875 33.5 36.8125 
Q 36.625 39.84375 38.546875 43.15625 
Q 40.484375 46.484375 40.484375 50.6875 
Q 40.484375 53.609375 39.59375 55.828125 
Q 38.71875 58.0625 37.0625 59.5625 
Q 35.40625 61.078125 33.078125 61.828125 
Q 30.765625 62.59375 27.9375 62.59375 
Q 25.296875 62.59375 22.96875 61.859375 
Q 20.65625 61.140625 18.84375 59.671875 
Q 17.046875 58.203125 15.890625 56.03125 
Q 14.75 53.859375 14.40625 50.984375 
L 5.421875 51.8125 
Q 5.859375 55.515625 7.46875 58.78125 
Q 9.078125 62.0625 11.90625 64.53125 
Q 14.75 67 18.71875 68.40625 
Q 22.703125 69.828125 27.9375 69.828125 
Q 33.0625 69.828125 37.0625 68.609375 
Q 41.0625 67.390625 43.8125 64.984375 
Q 46.578125 62.59375 48.046875 59.078125 
Q 49.515625 55.5625 49.515625 50.984375 
Q 49.515625 47.515625 48.265625 44.390625 
Q 47.015625 41.265625 44.9375 38.421875 
Q 42.875 35.59375 40.140625 32.953125 
Q 37.40625 30.328125 34.421875 27.8125 
Q 31.453125 25.296875 28.421875 22.828125 
Q 25.390625 20.359375 22.71875 17.859375 
Q 20.0625 15.375 17.96875 12.8125 
Q 15.875 10.25 14.703125 7.46875 
L 50.59375 7.46875 
L 50.59375 0 
z
" id="LiberationSans-32"/>
       <path d="M 7.625 0 
L 7.625 7.46875 
L 25.140625 7.46875 
L 25.140625 60.40625 
L 9.625 49.3125 
L 9.625 57.625 
L 25.875 68.796875 
L 33.984375 68.796875 
L 33.984375 7.46875 
L 50.734375 7.46875 
L 50.734375 0 
z
" id="LiberationSans-31"/>
       <path d="M 51.703125 34.421875 
Q 51.703125 24.515625 49.828125 17.75 
Q 47.953125 10.984375 44.703125 6.8125 
Q 41.453125 2.640625 37.0625 0.828125 
Q 32.671875 -0.984375 27.6875 -0.984375 
Q 22.65625 -0.984375 18.3125 0.828125 
Q 13.96875 2.640625 10.765625 6.78125 
Q 7.5625 10.9375 5.734375 17.703125 
Q 3.90625 24.46875 3.90625 34.421875 
Q 3.90625 44.828125 5.734375 51.640625 
Q 7.5625 58.453125 10.78125 62.5 
Q 14.015625 66.546875 18.40625 68.1875 
Q 22.796875 69.828125 27.984375 69.828125 
Q 32.90625 69.828125 37.21875 68.1875 
Q 41.546875 66.546875 44.765625 62.5 
Q 48 58.453125 49.84375 51.640625 
Q 51.703125 44.828125 51.703125 34.421875 
M 42.78125 34.421875 
Q 42.78125 42.625 41.796875 48.0625 
Q 40.828125 53.515625 38.921875 56.765625 
Q 37.015625 60.015625 34.25 61.359375 
Q 31.5 62.703125 27.984375 62.703125 
Q 24.265625 62.703125 21.4375 61.328125 
Q 18.609375 59.96875 16.671875 56.71875 
Q 14.75 53.46875 13.765625 48.015625 
Q 12.796875 42.578125 12.796875 34.421875 
Q 12.796875 26.515625 13.796875 21.09375 
Q 14.796875 15.671875 16.71875 12.375 
Q 18.65625 9.078125 21.4375 7.640625 
Q 24.21875 6.203125 27.78125 6.203125 
Q 31.25 6.203125 34.03125 7.640625 
Q 36.8125 9.078125 38.734375 12.375 
Q 40.671875 15.671875 41.71875 21.09375 
Q 42.78125 26.515625 42.78125 34.421875 
" id="LiberationSans-30"/>
       <path d="M 50.875 35.796875 
Q 50.875 26.609375 49.140625 19.703125 
Q 47.40625 12.796875 44.1875 8.203125 
Q 40.96875 3.609375 36.34375 1.3125 
Q 31.734375 -0.984375 25.984375 -0.984375 
Q 22.015625 -0.984375 18.84375 -0.171875 
Q 15.671875 0.640625 13.171875 2.34375 
Q 10.6875 4.046875 8.921875 6.78125 
Q 7.171875 9.515625 6.109375 13.375 
L 14.5 14.703125 
Q 15.875 10.25 18.78125 8.171875 
Q 21.6875 6.109375 26.125 6.109375 
Q 29.6875 6.109375 32.640625 7.78125 
Q 35.59375 9.46875 37.671875 12.84375 
Q 39.75 16.21875 40.921875 21.296875 
Q 42.09375 26.375 42.1875 33.203125 
Q 41.15625 30.90625 39.375 29.09375 
Q 37.59375 27.296875 35.328125 26.046875 
Q 33.0625 24.8125 30.421875 24.140625 
Q 27.78125 23.484375 25.09375 23.484375 
Q 20.40625 23.484375 16.625 25.171875 
Q 12.84375 26.859375 10.203125 29.875 
Q 7.5625 32.90625 6.125 37.171875 
Q 4.6875 41.453125 4.6875 46.6875 
Q 4.6875 52 6.21875 56.296875 
Q 7.765625 60.59375 10.6875 63.59375 
Q 13.625 66.609375 17.890625 68.21875 
Q 22.171875 69.828125 27.59375 69.828125 
Q 39.0625 69.828125 44.96875 61.328125 
Q 50.875 52.828125 50.875 35.796875 
M 41.3125 44.28125 
Q 41.3125 48.09375 40.40625 51.453125 
Q 39.5 54.828125 37.71875 57.3125 
Q 35.9375 59.8125 33.328125 61.25 
Q 30.71875 62.703125 27.296875 62.703125 
Q 24.125 62.703125 21.578125 61.578125 
Q 19.046875 60.453125 17.28125 58.375 
Q 15.53125 56.296875 14.578125 53.3125 
Q 13.625 50.34375 13.625 46.6875 
Q 13.625 43.21875 14.46875 40.234375 
Q 15.328125 37.25 17.03125 35.078125 
Q 18.75 32.90625 21.28125 31.65625 
Q 23.828125 30.421875 27.203125 30.421875 
Q 29.640625 30.421875 32.15625 31.25 
Q 34.671875 32.078125 36.6875 33.78125 
Q 38.71875 35.5 40.015625 38.109375 
Q 41.3125 40.71875 41.3125 44.28125 
" id="LiberationSans-39"/>
       <path d="M 9.125 42.71875 
L 9.125 52.828125 
L 18.65625 52.828125 
L 18.65625 42.71875 
z
M 9.125 0 
L 9.125 10.109375 
L 18.65625 10.109375 
L 18.65625 0 
z
" id="LiberationSans-3a"/>
       <path d="M 51.21875 19 
Q 51.21875 14.265625 49.671875 10.546875 
Q 48.140625 6.84375 45.1875 4.265625 
Q 42.234375 1.703125 37.859375 0.359375 
Q 33.5 -0.984375 27.875 -0.984375 
Q 21.484375 -0.984375 17.109375 0.609375 
Q 12.75 2.203125 9.90625 4.8125 
Q 7.078125 7.421875 5.65625 10.765625 
Q 4.25 14.109375 3.8125 17.671875 
L 12.890625 18.5 
Q 13.28125 15.765625 14.328125 13.515625 
Q 15.375 11.28125 17.1875 9.671875 
Q 19 8.0625 21.625 7.171875 
Q 24.265625 6.296875 27.875 6.296875 
Q 34.515625 6.296875 38.296875 9.5625 
Q 42.09375 12.84375 42.09375 19.28125 
Q 42.09375 23.09375 40.40625 25.40625 
Q 38.71875 27.734375 36.203125 29.03125 
Q 33.6875 30.328125 30.734375 30.765625 
Q 27.78125 31.203125 25.296875 31.203125 
L 20.3125 31.203125 
L 20.3125 38.8125 
L 25.09375 38.8125 
Q 27.59375 38.8125 30.265625 39.328125 
Q 32.953125 39.84375 35.171875 41.1875 
Q 37.40625 42.53125 38.84375 44.828125 
Q 40.28125 47.125 40.28125 50.6875 
Q 40.28125 56.203125 37.03125 59.390625 
Q 33.796875 62.59375 27.390625 62.59375 
Q 21.578125 62.59375 17.984375 59.609375 
Q 14.40625 56.640625 13.8125 51.21875 
L 4.984375 51.90625 
Q 5.515625 56.453125 7.46875 59.8125 
Q 9.421875 63.1875 12.421875 65.40625 
Q 15.4375 67.625 19.28125 68.71875 
Q 23.140625 69.828125 27.484375 69.828125 
Q 33.25 69.828125 37.390625 68.375 
Q 41.546875 66.9375 44.1875 64.46875 
Q 46.828125 62.015625 48.0625 58.6875 
Q 49.3125 55.375 49.3125 51.609375 
Q 49.3125 48.578125 48.484375 45.9375 
Q 47.65625 43.3125 45.890625 41.203125 
Q 44.140625 39.109375 41.421875 37.59375 
Q 38.71875 36.078125 34.90625 35.296875 
L 34.90625 35.109375 
Q 39.0625 34.671875 42.140625 33.21875 
Q 45.21875 31.78125 47.21875 29.625 
Q 49.21875 27.484375 50.21875 24.75 
Q 51.21875 22.015625 51.21875 19 
" id="LiberationSans-33"/>
       <path d="M 43.015625 15.578125 
L 43.015625 0 
L 34.71875 0 
L 34.71875 15.578125 
L 2.296875 15.578125 
L 2.296875 22.40625 
L 33.796875 68.796875 
L 43.015625 68.796875 
L 43.015625 22.515625 
L 52.6875 22.515625 
L 52.6875 15.578125 
z
M 34.71875 58.890625 
Q 34.625 58.640625 34.234375 57.9375 
Q 33.84375 57.234375 33.34375 56.34375 
Q 32.859375 55.46875 32.34375 54.5625 
Q 31.84375 53.65625 31.453125 53.078125 
L 13.8125 27.09375 
Q 13.578125 26.703125 13.109375 26.0625 
Q 12.640625 25.4375 12.15625 24.78125 
Q 11.671875 24.125 11.171875 23.484375 
Q 10.6875 22.859375 10.40625 22.515625 
L 34.71875 22.515625 
z
" id="LiberationSans-34"/>
       <path id="LiberationSans-20"/>
       <path d="M 4.4375 22.65625 
L 4.4375 30.46875 
L 28.859375 30.46875 
L 28.859375 22.65625 
z
" id="LiberationSans-2d"/>
       <path d="M 51.21875 22.515625 
Q 51.21875 17.328125 49.78125 13 
Q 48.34375 8.6875 45.53125 5.578125 
Q 42.71875 2.484375 38.5625 0.75 
Q 34.421875 -0.984375 29 -0.984375 
Q 23 -0.984375 18.5 1.3125 
Q 14.015625 3.609375 11.03125 7.921875 
Q 8.0625 12.25 6.5625 18.53125 
Q 5.078125 24.8125 5.078125 32.8125 
Q 5.078125 42 6.765625 48.921875 
Q 8.453125 55.859375 11.625 60.5 
Q 14.796875 65.140625 19.359375 67.484375 
Q 23.921875 69.828125 29.6875 69.828125 
Q 33.203125 69.828125 36.28125 69.09375 
Q 39.359375 68.359375 41.875 66.71875 
Q 44.390625 65.09375 46.28125 62.40625 
Q 48.1875 59.71875 49.3125 55.8125 
L 40.921875 54.296875 
Q 39.546875 58.734375 36.546875 60.71875 
Q 33.546875 62.703125 29.59375 62.703125 
Q 25.984375 62.703125 23.046875 60.984375 
Q 20.125 59.28125 18.0625 55.875 
Q 16.015625 52.484375 14.90625 47.359375 
Q 13.8125 42.234375 13.8125 35.40625 
Q 16.21875 39.84375 20.5625 42.15625 
Q 24.90625 44.484375 30.515625 44.484375 
Q 35.203125 44.484375 39.015625 42.96875 
Q 42.828125 41.453125 45.53125 38.59375 
Q 48.25 35.75 49.734375 31.671875 
Q 51.21875 27.59375 51.21875 22.515625 
M 42.28125 22.125 
Q 42.28125 25.6875 41.40625 28.5625 
Q 40.53125 31.453125 38.765625 33.46875 
Q 37.015625 35.5 34.421875 36.59375 
Q 31.84375 37.703125 28.421875 37.703125 
Q 26.03125 37.703125 23.578125 36.984375 
Q 21.140625 36.28125 19.15625 34.6875 
Q 17.1875 33.109375 15.9375 30.515625 
Q 14.703125 27.9375 14.703125 24.21875 
Q 14.703125 20.40625 15.671875 17.109375 
Q 16.65625 13.8125 18.484375 11.375 
Q 20.3125 8.9375 22.890625 7.515625 
Q 25.484375 6.109375 28.71875 6.109375 
Q 31.890625 6.109375 34.40625 7.203125 
Q 36.921875 8.296875 38.671875 10.375 
Q 40.4375 12.453125 41.359375 15.421875 
Q 42.28125 18.40625 42.28125 22.125 
" id="LiberationSans-36"/>
      </defs>
      <g style="fill:#262626;" transform="translate(25.5765625 370.646875)scale(0.1 -0.1)">
       <use xlink:href="#LiberationSans-32"/>
       <use x="55.615234375" xlink:href="#LiberationSans-30"/>
       <use x="111.23046875" xlink:href="#LiberationSans-31"/>
       <use x="166.845703125" xlink:href="#LiberationSans-36"/>
       <use x="222.4609375" xlink:href="#LiberationSans-2d"/>
       <use x="255.76171875" xlink:href="#LiberationSans-30"/>
       <use x="311.376953125" xlink:href="#LiberationSans-39"/>
       <use x="366.9921875" xlink:href="#LiberationSans-2d"/>
       <use x="400.29296875" xlink:href="#LiberationSans-32"/>
       <use x="455.908203125" xlink:href="#LiberationSans-39"/>
       <use x="511.5234375" xlink:href="#LiberationSans-20"/>
       <use x="539.306640625" xlink:href="#LiberationSans-32"/>
       <use x="594.921875" xlink:href="#LiberationSans-32"/>
       <use x="650.537109375" xlink:href="#LiberationSans-3a"/>
       <use x="678.3203125" xlink:href="#LiberationSans-34"/>
       <use x="733.935546875" xlink:href="#LiberationSans-33"/>
       <use x="789.55078125" xlink:href="#LiberationSans-3a"/>
       <use x="817.333984375" xlink:href="#LiberationSans-30"/>
       <use x="872.94921875" xlink:href="#LiberationSans-30"/>
      </g>
     </g>
    </g>
    <g id="xtick_2">
     <g id="line2d_4">
      <path clip-path="url(#pb095fe25fd)" d="M 183.655828 356.4 
L 183.655828 39.6 
" style="fill:none;stroke:#ffffff;stroke-linecap:round;"/>
     </g>
     <g id="line2d_5"/>
     <g id="line2d_6"/>
     <g id="text_2">
      <!-- 2016-10-10 21:02:00 -->
      <g style="fill:#262626;" transform="translate(137.232390414 370.646875)scale(0.1 -0.1)">
       <use xlink:href="#LiberationSans-32"/>
       <use x="55.615234375" xlink:href="#LiberationSans-30"/>
       <use x="111.23046875" xlink:href="#LiberationSans-31"/>
       <use x="166.845703125" xlink:href="#LiberationSans-36"/>
       <use x="222.4609375" xlink:href="#LiberationSans-2d"/>
       <use x="255.76171875" xlink:href="#LiberationSans-31"/>
       <use x="311.376953125" xlink:href="#LiberationSans-30"/>
       <use x="366.9921875" xlink:href="#LiberationSans-2d"/>
       <use x="400.29296875" xlink:href="#LiberationSans-31"/>
       <use x="455.908203125" xlink:href="#LiberationSans-30"/>
       <use x="511.5234375" xlink:href="#LiberationSans-20"/>
       <use x="539.306640625" xlink:href="#LiberationSans-32"/>
       <use x="594.921875" xlink:href="#LiberationSans-31"/>
       <use x="650.537109375" xlink:href="#LiberationSans-3a"/>
       <use x="678.3203125" xlink:href="#LiberationSans-30"/>
       <use x="733.935546875" xlink:href="#LiberationSans-32"/>
       <use x="789.55078125" xlink:href="#LiberationSans-3a"/>
       <use x="817.333984375" xlink:href="#LiberationSans-30"/>
       <use x="872.94921875" xlink:href="#LiberationSans-30"/>
      </g>
     </g>
    </g>
    <g id="xtick_3">
     <g id="line2d_7">
      <path clip-path="url(#pb095fe25fd)" d="M 295.311656 356.4 
L 295.311656 39.6 
" style="fill:none;stroke:#ffffff;stroke-linecap:round;"/>
     </g>
     <g id="line2d_8"/>
     <g id="line2d_9"/>
     <g id="text_3">
      <!-- 2016-10-11 23:06:00 -->
      <g style="fill:#262626;" transform="translate(248.888218328 370.646875)scale(0.1 -0.1)">
       <use xlink:href="#LiberationSans-32"/>
       <use x="55.615234375" xlink:href="#LiberationSans-30"/>
       <use x="111.23046875" xlink:href="#LiberationSans-31"/>
       <use x="166.845703125" xlink:href="#LiberationSans-36"/>
       <use x="222.4609375" xlink:href="#LiberationSans-2d"/>
       <use x="255.76171875" xlink:href="#LiberationSans-31"/>
       <use x="311.376953125" xlink:href="#LiberationSans-30"/>
       <use x="366.9921875" xlink:href="#LiberationSans-2d"/>
       <use x="400.29296875" xlink:href="#LiberationSans-31"/>
       <use x="455.908203125" xlink:href="#LiberationSans-31"/>
       <use x="511.5234375" xlink:href="#LiberationSans-20"/>
       <use x="539.306640625" xlink:href="#LiberationSans-32"/>
       <use x="594.921875" xlink:href="#LiberationSans-33"/>
       <use x="650.537109375" xlink:href="#LiberationSans-3a"/>
       <use x="678.3203125" xlink:href="#LiberationSans-30"/>
       <use x="733.935546875" xlink:href="#LiberationSans-36"/>
       <use x="789.55078125" xlink:href="#LiberationSans-3a"/>
       <use x="817.333984375" xlink:href="#LiberationSans-30"/>
       <use x="872.94921875" xlink:href="#LiberationSans-30"/>
      </g>
     </g>
    </g>
    <g id="xtick_4">
     <g id="line2d_10">
      <path clip-path="url(#pb095fe25fd)" d="M 406.967484 356.4 
L 406.967484 39.6 
" style="fill:none;stroke:#ffffff;stroke-linecap:round;"/>
     </g>
     <g id="line2d_11"/>
     <g id="line2d_12"/>
     <g id="text_4">
      <!-- 2016-10-13 10:55:00 -->
      <defs>
       <path d="M 51.421875 22.40625 
Q 51.421875 17.234375 49.859375 12.9375 
Q 48.296875 8.640625 45.21875 5.53125 
Q 42.140625 2.4375 37.578125 0.71875 
Q 33.015625 -0.984375 27 -0.984375 
Q 21.578125 -0.984375 17.546875 0.28125 
Q 13.53125 1.5625 10.734375 3.78125 
Q 7.953125 6 6.3125 8.984375 
Q 4.6875 11.96875 4 15.375 
L 12.890625 16.40625 
Q 13.421875 14.453125 14.390625 12.625 
Q 15.375 10.796875 17.0625 9.34375 
Q 18.75 7.90625 21.21875 7.046875 
Q 23.6875 6.203125 27.203125 6.203125 
Q 30.609375 6.203125 33.390625 7.25 
Q 36.1875 8.296875 38.15625 10.34375 
Q 40.140625 12.40625 41.203125 15.375 
Q 42.28125 18.359375 42.28125 22.21875 
Q 42.28125 25.390625 41.25 28.046875 
Q 40.234375 30.71875 38.328125 32.640625 
Q 36.421875 34.578125 33.65625 35.640625 
Q 30.90625 36.71875 27.390625 36.71875 
Q 25.203125 36.71875 23.34375 36.328125 
Q 21.484375 35.9375 19.890625 35.25 
Q 18.3125 34.578125 17.015625 33.671875 
Q 15.71875 32.765625 14.59375 31.78125 
L 6 31.78125 
L 8.296875 68.796875 
L 47.40625 68.796875 
L 47.40625 61.328125 
L 16.3125 61.328125 
L 14.984375 39.5 
Q 17.328125 41.3125 20.84375 42.59375 
Q 24.359375 43.890625 29.203125 43.890625 
Q 34.328125 43.890625 38.421875 42.328125 
Q 42.53125 40.765625 45.40625 37.90625 
Q 48.296875 35.0625 49.859375 31.109375 
Q 51.421875 27.15625 51.421875 22.40625 
" id="LiberationSans-35"/>
      </defs>
      <g style="fill:#262626;" transform="translate(360.544046242 370.646875)scale(0.1 -0.1)">
       <use xlink:href="#LiberationSans-32"/>
       <use x="55.615234375" xlink:href="#LiberationSans-30"/>
       <use x="111.23046875" xlink:href="#LiberationSans-31"/>
       <use x="166.845703125" xlink:href="#LiberationSans-36"/>
       <use x="222.4609375" xlink:href="#LiberationSans-2d"/>
       <use x="255.76171875" xlink:href="#LiberationSans-31"/>
       <use x="311.376953125" xlink:href="#LiberationSans-30"/>
       <use x="366.9921875" xlink:href="#LiberationSans-2d"/>
       <use x="400.29296875" xlink:href="#LiberationSans-31"/>
       <use x="455.908203125" xlink:href="#LiberationSans-33"/>
       <use x="511.5234375" xlink:href="#LiberationSans-20"/>
       <use x="539.306640625" xlink:href="#LiberationSans-31"/>
       <use x="594.921875" xlink:href="#LiberationSans-30"/>
       <use x="650.537109375" xlink:href="#LiberationSans-3a"/>
       <use x="678.3203125" xlink:href="#LiberationSans-35"/>
       <use x="733.935546875" xlink:href="#LiberationSans-35"/>
       <use x="789.55078125" xlink:href="#LiberationSans-3a"/>
       <use x="817.333984375" xlink:href="#LiberationSans-30"/>
       <use x="872.94921875" xlink:href="#LiberationSans-30"/>
      </g>
     </g>
    </g>
    <g id="text_5">
     <!-- time -->
     <defs>
      <path d="M 13.484375 24.5625 
Q 13.484375 20.40625 14.328125 16.90625 
Q 15.1875 13.421875 16.96875 10.90625 
Q 18.75 8.40625 21.53125 7 
Q 24.3125 5.609375 28.21875 5.609375 
Q 33.9375 5.609375 37.375 7.90625 
Q 40.828125 10.203125 42.046875 13.71875 
L 49.75 11.53125 
Q 48.921875 9.328125 47.4375 7.109375 
Q 45.953125 4.890625 43.453125 3.09375 
Q 40.96875 1.3125 37.234375 0.15625 
Q 33.5 -0.984375 28.21875 -0.984375 
Q 16.5 -0.984375 10.375 6 
Q 4.25 12.984375 4.25 26.765625 
Q 4.25 34.1875 6.09375 39.328125 
Q 7.953125 44.484375 11.171875 47.703125 
Q 14.40625 50.921875 18.703125 52.359375 
Q 23 53.8125 27.875 53.8125 
Q 34.515625 53.8125 38.984375 51.65625 
Q 43.453125 49.515625 46.15625 45.71875 
Q 48.875 41.9375 50.015625 36.8125 
Q 51.171875 31.6875 51.171875 25.734375 
L 51.171875 24.5625 
z
M 42.09375 31.296875 
Q 41.359375 39.65625 37.84375 43.484375 
Q 34.328125 47.3125 27.734375 47.3125 
Q 25.53125 47.3125 23.109375 46.609375 
Q 20.703125 45.90625 18.65625 44.09375 
Q 16.609375 42.28125 15.1875 39.171875 
Q 13.765625 36.078125 13.578125 31.296875 
z
" id="LiberationSans-65"/>
      <path d="M 6.6875 64.0625 
L 6.6875 72.46875 
L 15.484375 72.46875 
L 15.484375 64.0625 
z
M 6.6875 0 
L 6.6875 52.828125 
L 15.484375 52.828125 
L 15.484375 0 
z
" id="LiberationSans-69"/>
      <path d="M 27.046875 0.390625 
Q 25.046875 -0.140625 22.96875 -0.453125 
Q 20.90625 -0.78125 18.171875 -0.78125 
Q 7.625 -0.78125 7.625 11.1875 
L 7.625 46.4375 
L 1.515625 46.4375 
L 1.515625 52.828125 
L 7.953125 52.828125 
L 10.546875 64.65625 
L 16.40625 64.65625 
L 16.40625 52.828125 
L 26.171875 52.828125 
L 26.171875 46.4375 
L 16.40625 46.4375 
L 16.40625 13.09375 
Q 16.40625 9.28125 17.640625 7.734375 
Q 18.890625 6.203125 21.96875 6.203125 
Q 23.25 6.203125 24.4375 6.390625 
Q 25.640625 6.59375 27.046875 6.890625 
z
" id="LiberationSans-74"/>
      <path d="M 37.5 0 
L 37.5 33.5 
Q 37.5 37.359375 37.015625 39.9375 
Q 36.53125 42.53125 35.375 44.109375 
Q 34.234375 45.703125 32.375 46.359375 
Q 30.515625 47.015625 27.828125 47.015625 
Q 25.046875 47.015625 22.796875 45.921875 
Q 20.5625 44.828125 18.96875 42.75 
Q 17.390625 40.671875 16.53125 37.625 
Q 15.671875 34.578125 15.671875 30.609375 
L 15.671875 0 
L 6.9375 0 
L 6.9375 41.546875 
Q 6.9375 43.21875 6.90625 45.046875 
Q 6.890625 46.875 6.828125 48.5 
Q 6.78125 50.140625 6.734375 51.3125 
Q 6.6875 52.484375 6.640625 52.828125 
L 14.9375 52.828125 
Q 14.984375 52.59375 15.03125 51.515625 
Q 15.09375 50.4375 15.15625 49.046875 
Q 15.234375 47.65625 15.28125 46.21875 
Q 15.328125 44.78125 15.328125 43.796875 
L 15.484375 43.796875 
Q 16.65625 46.09375 18.015625 47.953125 
Q 19.390625 49.8125 21.21875 51.09375 
Q 23.046875 52.390625 25.40625 53.09375 
Q 27.78125 53.8125 30.90625 53.8125 
Q 36.921875 53.8125 40.40625 51.421875 
Q 43.890625 49.03125 45.265625 43.796875 
L 45.40625 43.796875 
Q 46.578125 46.09375 48.046875 47.953125 
Q 49.515625 49.8125 51.46875 51.09375 
Q 53.421875 52.390625 55.859375 53.09375 
Q 58.296875 53.8125 61.421875 53.8125 
Q 65.4375 53.8125 68.328125 52.734375 
Q 71.234375 51.65625 73.09375 49.40625 
Q 74.953125 47.171875 75.828125 43.625 
Q 76.703125 40.09375 76.703125 35.203125 
L 76.703125 0 
L 68.015625 0 
L 68.015625 33.5 
Q 68.015625 37.359375 67.53125 39.9375 
Q 67.046875 42.53125 65.890625 44.109375 
Q 64.75 45.703125 62.890625 46.359375 
Q 61.03125 47.015625 58.34375 47.015625 
Q 55.5625 47.015625 53.3125 45.96875 
Q 51.078125 44.921875 49.484375 42.875 
Q 47.90625 40.828125 47.046875 37.75 
Q 46.1875 34.671875 46.1875 30.609375 
L 46.1875 0 
z
" id="LiberationSans-6d"/>
     </defs>
     <g style="fill:#262626;" transform="translate(284.81015625 385.6934375)scale(0.11 -0.11)">
      <use xlink:href="#LiberationSans-74"/>
      <use x="27.783203125" xlink:href="#LiberationSans-69"/>
      <use x="50.0" xlink:href="#LiberationSans-6d"/>
      <use x="133.30078125" xlink:href="#LiberationSans-65"/>
     </g>
    </g>
   </g>
   <g id="matplotlib.axis_2">
    <g id="ytick_1">
     <g id="line2d_13">
      <path clip-path="url(#pb095fe25fd)" d="M 72 356.4 
L 518.4 356.4 
" style="fill:none;stroke:#ffffff;stroke-linecap:round;"/>
     </g>
     <g id="line2d_14"/>
     <g id="line2d_15"/>
     <g id="text_6">
      <!-- −490 -->
      <defs>
       <path d="M 4.9375 29.6875 
L 4.9375 36.8125 
L 53.515625 36.8125 
L 53.515625 29.6875 
z
" id="LiberationSans-2212"/>
      </defs>
      <g style="fill:#262626;" transform="translate(42.4765625 358.9859375)scale(0.1 -0.1)">
       <use xlink:href="#LiberationSans-2212"/>
       <use x="58.3984375" xlink:href="#LiberationSans-34"/>
       <use x="114.013671875" xlink:href="#LiberationSans-39"/>
       <use x="169.62890625" xlink:href="#LiberationSans-30"/>
      </g>
     </g>
    </g>
    <g id="ytick_2">
     <g id="line2d_16">
      <path clip-path="url(#pb095fe25fd)" d="M 72 316.8 
L 518.4 316.8 
" style="fill:none;stroke:#ffffff;stroke-linecap:round;"/>
     </g>
     <g id="line2d_17"/>
     <g id="line2d_18"/>
     <g id="text_7">
      <!-- −485 -->
      <defs>
       <path d="M 51.265625 19.1875 
Q 51.265625 14.796875 49.875 11.109375 
Q 48.484375 7.421875 45.625 4.734375 
Q 42.78125 2.046875 38.328125 0.53125 
Q 33.890625 -0.984375 27.828125 -0.984375 
Q 21.78125 -0.984375 17.359375 0.53125 
Q 12.9375 2.046875 10.03125 4.703125 
Q 7.125 7.375 5.734375 11.0625 
Q 4.34375 14.75 4.34375 19.09375 
Q 4.34375 22.859375 5.484375 25.78125 
Q 6.640625 28.71875 8.5625 30.828125 
Q 10.5 32.953125 12.96875 34.25 
Q 15.4375 35.546875 18.0625 35.984375 
L 18.0625 36.1875 
Q 15.1875 36.859375 12.90625 38.375 
Q 10.640625 39.890625 9.09375 42.015625 
Q 7.5625 44.140625 6.75 46.71875 
Q 5.953125 49.3125 5.953125 52.203125 
Q 5.953125 55.8125 7.34375 59 
Q 8.734375 62.203125 11.46875 64.625 
Q 14.203125 67.046875 18.25 68.4375 
Q 22.3125 69.828125 27.640625 69.828125 
Q 33.25 69.828125 37.375 68.40625 
Q 41.5 67 44.203125 64.578125 
Q 46.921875 62.15625 48.234375 58.9375 
Q 49.5625 55.71875 49.5625 52.09375 
Q 49.5625 49.265625 48.75 46.671875 
Q 47.953125 44.09375 46.40625 41.96875 
Q 44.875 39.84375 42.59375 38.34375 
Q 40.328125 36.859375 37.359375 36.28125 
L 37.359375 36.078125 
Q 40.328125 35.59375 42.859375 34.296875 
Q 45.40625 33.015625 47.265625 30.890625 
Q 49.125 28.765625 50.1875 25.828125 
Q 51.265625 22.90625 51.265625 19.1875 
M 40.4375 51.609375 
Q 40.4375 54.203125 39.765625 56.34375 
Q 39.109375 58.5 37.59375 60.03125 
Q 36.078125 61.578125 33.640625 62.421875 
Q 31.203125 63.28125 27.640625 63.28125 
Q 24.171875 63.28125 21.78125 62.421875 
Q 19.390625 61.578125 17.84375 60.03125 
Q 16.3125 58.5 15.625 56.34375 
Q 14.9375 54.203125 14.9375 51.609375 
Q 14.9375 49.5625 15.46875 47.40625 
Q 16.015625 45.265625 17.421875 43.5 
Q 18.84375 41.75 21.328125 40.625 
Q 23.828125 39.5 27.734375 39.5 
Q 31.890625 39.5 34.40625 40.625 
Q 36.921875 41.75 38.25 43.5 
Q 39.59375 45.265625 40.015625 47.40625 
Q 40.4375 49.5625 40.4375 51.609375 
M 42.140625 20.015625 
Q 42.140625 22.515625 41.453125 24.828125 
Q 40.765625 27.15625 39.109375 28.9375 
Q 37.453125 30.71875 34.640625 31.8125 
Q 31.84375 32.90625 27.640625 32.90625 
Q 23.78125 32.90625 21.0625 31.8125 
Q 18.359375 30.71875 16.671875 28.90625 
Q 14.984375 27.09375 14.203125 24.71875 
Q 13.421875 22.359375 13.421875 19.828125 
Q 13.421875 16.65625 14.203125 14.03125 
Q 14.984375 11.421875 16.6875 9.546875 
Q 18.40625 7.671875 21.1875 6.640625 
Q 23.96875 5.609375 27.9375 5.609375 
Q 31.9375 5.609375 34.671875 6.640625 
Q 37.40625 7.671875 39.0625 9.546875 
Q 40.71875 11.421875 41.421875 14.078125 
Q 42.140625 16.75 42.140625 20.015625 
" id="LiberationSans-38"/>
      </defs>
      <g style="fill:#262626;" transform="translate(42.4765625 319.3859375)scale(0.1 -0.1)">
       <use xlink:href="#LiberationSans-2212"/>
       <use x="58.3984375" xlink:href="#LiberationSans-34"/>
       <use x="114.013671875" xlink:href="#LiberationSans-38"/>
       <use x="169.62890625" xlink:href="#LiberationSans-35"/>
      </g>
     </g>
    </g>
    <g id="ytick_3">
     <g id="line2d_19">
      <path clip-path="url(#pb095fe25fd)" d="M 72 277.2 
L 518.4 277.2 
" style="fill:none;stroke:#ffffff;stroke-linecap:round;"/>
     </g>
     <g id="line2d_20"/>
     <g id="line2d_21"/>
     <g id="text_8">
      <!-- −480 -->
      <g style="fill:#262626;" transform="translate(42.4765625 279.7859375)scale(0.1 -0.1)">
       <use xlink:href="#LiberationSans-2212"/>
       <use x="58.3984375" xlink:href="#LiberationSans-34"/>
       <use x="114.013671875" xlink:href="#LiberationSans-38"/>
       <use x="169.62890625" xlink:href="#LiberationSans-30"/>
      </g>
     </g>
    </g>
    <g id="ytick_4">
     <g id="line2d_22">
      <path clip-path="url(#pb095fe25fd)" d="M 72 237.6 
L 518.4 237.6 
" style="fill:none;stroke:#ffffff;stroke-linecap:round;"/>
     </g>
     <g id="line2d_23"/>
     <g id="line2d_24"/>
     <g id="text_9">
      <!-- −475 -->
      <defs>
       <path d="M 50.59375 61.671875 
Q 45.40625 53.765625 41.0625 46.453125 
Q 36.71875 39.15625 33.59375 31.75 
Q 30.46875 24.359375 28.734375 16.578125 
Q 27 8.796875 27 0 
L 17.828125 0 
Q 17.828125 8.25 19.78125 16.1875 
Q 21.734375 24.125 25.046875 31.765625 
Q 28.375 39.40625 32.765625 46.78125 
Q 37.15625 54.15625 42.09375 61.328125 
L 5.125 61.328125 
L 5.125 68.796875 
L 50.59375 68.796875 
z
" id="LiberationSans-37"/>
      </defs>
      <g style="fill:#262626;" transform="translate(42.4765625 240.1859375)scale(0.1 -0.1)">
       <use xlink:href="#LiberationSans-2212"/>
       <use x="58.3984375" xlink:href="#LiberationSans-34"/>
       <use x="114.013671875" xlink:href="#LiberationSans-37"/>
       <use x="169.62890625" xlink:href="#LiberationSans-35"/>
      </g>
     </g>
    </g>
    <g id="ytick_5">
     <g id="line2d_25">
      <path clip-path="url(#pb095fe25fd)" d="M 72 198 
L 518.4 198 
" style="fill:none;stroke:#ffffff;stroke-linecap:round;"/>
     </g>
     <g id="line2d_26"/>
     <g id="line2d_27"/>
     <g id="text_10">
      <!-- −470 -->
      <g style="fill:#262626;" transform="translate(42.4765625 200.5859375)scale(0.1 -0.1)">
       <use xlink:href="#LiberationSans-2212"/>
       <use x="58.3984375" xlink:href="#LiberationSans-34"/>
       <use x="114.013671875" xlink:href="#LiberationSans-37"/>
       <use x="169.62890625" xlink:href="#LiberationSans-30"/>
      </g>
     </g>
    </g>
    <g id="ytick_6">
     <g id="line2d_28">
      <path clip-path="url(#pb095fe25fd)" d="M 72 158.4 
L 518.4 158.4 
" style="fill:none;stroke:#ffffff;stroke-linecap:round;"/>
     </g>
     <g id="line2d_29"/>
     <g id="line2d_30"/>
     <g id="text_11">
      <!-- −465 -->
      <g style="fill:#262626;" transform="translate(42.4765625 160.9859375)scale(0.1 -0.1)">
       <use xlink:href="#LiberationSans-2212"/>
       <use x="58.3984375" xlink:href="#LiberationSans-34"/>
       <use x="114.013671875" xlink:href="#LiberationSans-36"/>
       <use x="169.62890625" xlink:href="#LiberationSans-35"/>
      </g>
     </g>
    </g>
    <g id="ytick_7">
     <g id="line2d_31">
      <path clip-path="url(#pb095fe25fd)" d="M 72 118.8 
L 518.4 118.8 
" style="fill:none;stroke:#ffffff;stroke-linecap:round;"/>
     </g>
     <g id="line2d_32"/>
     <g id="line2d_33"/>
     <g id="text_12">
      <!-- −460 -->
      <g style="fill:#262626;" transform="translate(42.4765625 121.3859375)scale(0.1 -0.1)">
       <use xlink:href="#LiberationSans-2212"/>
       <use x="58.3984375" xlink:href="#LiberationSans-34"/>
       <use x="114.013671875" xlink:href="#LiberationSans-36"/>
       <use x="169.62890625" xlink:href="#LiberationSans-30"/>
      </g>
     </g>
    </g>
    <g id="ytick_8">
     <g id="line2d_34">
      <path clip-path="url(#pb095fe25fd)" d="M 72 79.2 
L 518.4 79.2 
" style="fill:none;stroke:#ffffff;stroke-linecap:round;"/>
     </g>
     <g id="line2d_35"/>
     <g id="line2d_36"/>
     <g id="text_13">
      <!-- −455 -->
      <g style="fill:#262626;" transform="translate(42.4765625 81.7859375)scale(0.1 -0.1)">
       <use xlink:href="#LiberationSans-2212"/>
       <use x="58.3984375" xlink:href="#LiberationSans-34"/>
       <use x="114.013671875" xlink:href="#LiberationSans-35"/>
       <use x="169.62890625" xlink:href="#LiberationSans-35"/>
      </g>
     </g>
    </g>
    <g id="ytick_9">
     <g id="line2d_37">
      <path clip-path="url(#pb095fe25fd)" d="M 72 39.6 
L 518.4 39.6 
" style="fill:none;stroke:#ffffff;stroke-linecap:round;"/>
     </g>
     <g id="line2d_38"/>
     <g id="line2d_39"/>
     <g id="text_14">
      <!-- −450 -->
      <g style="fill:#262626;" transform="translate(42.4765625 42.1859375)scale(0.1 -0.1)">
       <use xlink:href="#LiberationSans-2212"/>
       <use x="58.3984375" xlink:href="#LiberationSans-34"/>
       <use x="114.013671875" xlink:href="#LiberationSans-35"/>
       <use x="169.62890625" xlink:href="#LiberationSans-30"/>
      </g>
     </g>
    </g>
   </g>
   <g id="line2d_40">
    <path clip-path="url(#pb095fe25fd)" d="M 72 228.053051 
L 72.223312 216.360636 
L 72.669935 225.256044 
L 72.893247 224.739228 
L 73.33987 219.157644 
L 73.563182 225.256044 
L 73.786493 213.57606 
L 74.009805 213.57606 
L 74.233117 207.39846 
L 74.67974 221.954651 
L 75.126363 215.777051 
L 75.572986 215.777051 
L 75.796298 218.561628 
L 76.01961 212.980044 
L 76.242921 215.777051 
L 76.466233 215.777051 
L 77.136168 225.256044 
L 77.35948 219.157644 
L 77.582791 253.267836 
L 77.806103 258.861851 
L 78.029415 268.340844 
L 78.252726 256.064844 
L 78.476038 271.137851 
L 78.69935 259.366236 
L 78.922661 271.642236 
L 79.145973 262.75926 
L 79.592596 268.340844 
L 79.815908 265.543836 
L 80.03922 271.642236 
L 80.262531 283.997436 
L 80.485843 272.238252 
L 80.709155 275.03526 
L 80.932466 275.03526 
L 81.155778 274.439244 
L 81.37909 280.616844 
L 81.602401 277.236251 
L 81.825713 280.616844 
L 82.272336 304.652028 
L 82.495648 289.591451 
L 82.718959 296.273436 
L 83.165583 258.874093 
L 83.388894 262.187916 
L 83.612206 249.911916 
L 83.835518 258.278077 
L 84.058829 255.4935 
L 84.282141 258.278077 
L 84.505453 258.278077 
L 84.728764 267.252684 
L 85.175388 249.911916 
L 85.398699 250.495501 
L 85.622011 241.533325 
L 85.845323 224.776142 
L 86.068634 230.357726 
L 86.291946 230.953742 
L 86.515258 225.372158 
L 86.738569 228.67355 
L 86.961881 213.016958 
L 87.408504 219.790574 
L 87.631816 213.612974 
L 87.855128 216.993566 
L 88.078439 210.815966 
L 88.301751 216.993566 
L 88.748374 211.411982 
L 88.971686 225.888974 
L 89.194997 225.372158 
L 89.864932 246.026749 
L 90.311556 233.154733 
L 90.534867 233.154733 
L 90.758179 219.194558 
L 90.981491 233.154733 
L 91.204802 227.573149 
L 91.428114 236.535326 
L 91.651426 251.012317 
L 91.874737 251.012317 
L 92.098049 244.913917 
L 92.544672 251.012317 
L 92.767984 244.913917 
L 92.991296 244.317901 
L 93.214607 238.736317 
L 93.661231 253.292509 
L 93.884542 247.710925 
L 94.107854 253.809325 
L 94.331166 256.593901 
L 94.554477 256.593901 
L 94.777789 247.710925 
L 95.001101 253.809325 
L 95.224412 256.593901 
L 95.447724 274.543116 
L 95.671036 262.771501 
L 96.117659 256.593901 
L 96.564282 238.736317 
L 97.010905 238.736317 
L 97.457529 232.558717 
L 97.68084 242.129341 
L 97.904152 235.951741 
L 98.127464 239.332333 
L 98.350775 248.227741 
L 98.574087 251.012317 
L 98.797399 248.227741 
L 99.02071 236.535326 
L 99.244022 242.633726 
L 99.467334 236.535326 
L 99.690645 242.129341 
L 99.913957 242.633726 
L 100.137269 245.430733 
L 100.36058 242.633726 
L 100.583892 242.633726 
L 100.807204 236.535326 
L 101.030515 245.430733 
L 101.253827 245.430733 
L 101.923762 236.535326 
L 102.147074 242.129341 
L 102.370385 256.593901 
L 102.593697 253.292509 
L 102.817009 244.317901 
L 103.263632 250.495501 
L 103.486943 244.317901 
L 103.933567 256.593901 
L 104.156878 253.809325 
L 104.38019 248.227741 
L 104.603502 251.608333 
L 104.826813 251.608333 
L 105.273437 245.430733 
L 105.496748 251.608333 
L 105.72006 252.204349 
L 105.943372 252.204349 
L 106.166683 239.849149 
L 106.389995 239.849149 
L 106.613307 251.608333 
L 106.836618 246.026749 
L 107.05993 237.052142 
L 107.283242 239.849149 
L 107.506553 239.849149 
L 107.729865 246.026749 
L 107.953177 233.750749 
L 108.176488 237.052142 
L 108.3998 230.953742 
L 109.069735 246.622765 
L 109.516358 246.622765 
L 109.73967 261.683342 
L 109.962981 252.721165 
L 110.186293 249.924158 
L 111.07954 249.924158 
L 111.302851 253.30475 
L 111.749475 262.279358 
L 111.972786 258.898765 
L 112.196098 252.721165 
L 112.41941 271.174765 
L 112.642721 273.442526 
L 112.866033 267.264926 
L 113.089345 270.061933 
L 113.312656 276.239533 
L 113.535968 276.239533 
L 113.75928 272.858941 
L 113.982591 267.264926 
L 114.429215 291.312541 
L 114.652526 291.312541 
L 114.875838 279.036541 
L 115.322461 311.954701 
L 115.545773 302.992525 
L 115.769085 305.777101 
L 115.992396 299.678701 
L 116.215708 296.894125 
L 116.43902 299.678701 
L 116.662331 294.097117 
L 116.885643 305.777101 
L 117.108954 290.716525 
L 117.332266 293.501101 
L 117.555578 286.819116 
L 117.778889 284.022109 
L 118.002201 284.618125 
L 118.225513 284.022109 
L 118.448824 281.225101 
L 118.672136 271.746109 
L 118.895448 281.225101 
L 119.118759 278.440525 
L 119.342071 281.821117 
L 119.565383 281.821117 
L 119.788694 272.858941 
L 120.012006 272.858941 
L 120.235318 266.681341 
L 120.458629 270.061933 
L 120.681941 279.036541 
L 120.905253 272.858941 
L 121.128564 279.036541 
L 121.351876 275.643517 
L 121.575188 275.643517 
L 121.798499 278.440525 
L 122.021811 279.036541 
L 122.245123 288.515533 
L 122.468434 279.540926 
L 122.691746 282.337933 
L 122.915058 282.337933 
L 123.138369 279.036541 
L 123.361681 287.919517 
L 123.584992 276.239533 
L 124.031616 276.239533 
L 124.254927 281.821117 
L 124.478239 269.465917 
L 124.701551 272.262925 
L 124.924862 266.164525 
L 125.148174 263.367517 
L 125.371486 257.189917 
L 125.594797 263.884333 
L 125.818109 263.884333 
L 126.041421 258.302749 
L 126.264732 276.756349 
L 126.488044 273.959342 
L 126.711356 279.540926 
L 126.934667 270.657949 
L 127.157979 276.756349 
L 127.381291 276.239533 
L 127.604602 272.858941 
L 127.827914 279.036541 
L 128.051226 279.036541 
L 128.274537 270.061933 
L 128.497849 267.264926 
L 128.944472 273.442526 
L 129.167784 272.858941 
L 129.391096 281.821117 
L 129.614407 276.239533 
L 129.837719 279.036541 
L 130.061031 266.681341 
L 130.284342 281.225101 
L 130.507654 277.844509 
L 130.730965 297.982284 
L 130.954277 303.563868 
L 131.177589 306.360876 
L 131.4009 297.386268 
L 131.624212 297.982284 
L 131.847524 309.741468 
L 132.070835 309.741468 
L 132.294147 313.055292 
L 132.517459 222.599823 
L 132.74077 214.20899 
L 132.964082 224.776142 
L 133.187394 210.815966 
L 133.410705 219.194558 
L 133.634017 216.39755 
L 133.857329 223.091966 
L 134.08064 224.283999 
L 134.303952 231.574431 
L 134.527264 261.20344 
L 134.750575 257.822848 
L 134.973887 276.276448 
L 135.197199 264.000448 
L 135.42051 267.30184 
L 135.643822 266.797455 
L 135.867134 267.897856 
L 136.090445 266.797455 
L 136.313757 263.404432 
L 136.76038 276.276448 
L 136.983692 267.30184 
L 137.207004 276.276448 
L 137.430315 275.680432 
L 137.653627 277.364607 
L 137.876938 297.502382 
L 138.10025 276.768591 
L 138.546873 300.816206 
L 138.770185 286.339215 
L 138.993497 283.542207 
L 139.216808 282.362606 
L 139.44012 294.717806 
L 139.663432 282.946191 
L 139.886743 294.717806 
L 140.110055 291.920799 
L 140.333367 283.542207 
L 140.556678 295.222191 
L 141.003302 289.123791 
L 141.226613 292.437615 
L 141.449925 304.196799 
L 141.673237 289.640607 
L 141.896548 286.856031 
L 142.11986 286.856031 
L 142.566483 272.379039 
L 142.789795 270.098848 
L 143.236418 278.477439 
L 143.45973 290.832639 
L 143.683042 290.236623 
L 143.906353 293.033631 
L 144.129665 293.617216 
L 144.576288 287.439616 
L 144.7996 280.757631 
L 145.022911 290.236623 
L 145.246223 284.059023 
L 145.469535 290.236623 
L 145.692846 284.059023 
L 145.916158 249.948831 
L 146.13947 265.088607 
L 146.362781 262.304031 
L 146.586093 267.885615 
L 146.809405 258.911007 
L 147.032716 258.911007 
L 147.256028 265.088607 
L 147.47934 253.329423 
L 147.702651 259.507023 
L 147.925963 256.710016 
L 148.372586 267.885615 
L 148.81921 252.733407 
L 149.042521 241.053423 
L 149.265833 243.850431 
L 149.489145 249.432015 
L 149.935768 233.762991 
L 150.15908 231.574431 
L 150.382391 234.875823 
L 150.829015 217.018239 
L 151.052326 229.294239 
L 151.275638 229.294239 
L 151.498949 232.078816 
L 151.722261 238.256416 
L 151.945573 232.078816 
L 152.168884 235.471839 
L 152.392196 235.471839 
L 152.615508 241.570239 
L 152.838819 235.471839 
L 153.062131 223.195839 
L 153.285443 225.980416 
L 153.508754 231.574431 
L 153.732066 243.850431 
L 153.955378 243.850431 
L 154.178689 246.635007 
L 154.402001 234.359007 
L 154.625313 246.635007 
L 154.848624 243.254415 
L 155.071936 231.574431 
L 155.295248 240.457407 
L 155.518559 240.457407 
L 155.741871 243.850431 
L 156.188494 235.471839 
L 156.411806 235.988655 
L 156.635118 223.712655 
L 156.858429 229.890255 
L 157.081741 230.39464 
L 157.305053 221.511664 
L 157.528364 218.11864 
L 157.751676 221.511664 
L 157.974987 209.75248 
L 158.198299 209.75248 
L 158.421611 212.537056 
L 158.644922 206.438656 
L 158.868234 196.880464 
L 159.091546 196.880464 
L 159.314857 205.84264 
L 159.538169 199.66504 
L 159.984792 199.66504 
L 160.208104 205.259055 
L 160.431416 196.363648 
L 160.654727 205.259055 
L 160.878039 205.259055 
L 161.101351 193.56664 
L 161.324662 190.782064 
L 161.547974 202.462048 
L 161.771286 184.008448 
L 161.994597 190.186048 
L 162.217909 180.707055 
L 162.441221 180.707055 
L 162.664532 177.910048 
L 162.887844 178.426864 
L 163.111156 178.426864 
L 163.334467 179.02288 
L 163.557779 187.985056 
L 163.781091 184.604464 
L 164.004402 178.426864 
L 164.227714 178.426864 
L 164.451026 190.186048 
L 164.674337 181.807456 
L 164.897649 181.807456 
L 165.344272 187.38904 
L 165.567584 184.604464 
L 165.790895 162.75784 
L 166.014207 163.353856 
L 166.237519 151.077856 
L 166.46083 159.973264 
L 166.907454 144.900256 
L 167.130765 133.220272 
L 167.354077 130.423265 
L 167.577389 133.220272 
L 167.8007 142.11568 
L 168.024012 138.801856 
L 168.247324 148.29328 
L 168.470635 151.594672 
L 168.693947 148.29328 
L 168.917259 159.973264 
L 169.14057 165.554848 
L 169.363882 173.933439 
L 169.587194 171.136432 
L 169.810505 177.314032 
L 170.033817 177.314032 
L 170.257129 174.529455 
L 170.48044 176.718016 
L 170.703752 180.111039 
L 170.927064 171.136432 
L 171.150375 171.136432 
L 171.373687 180.707055 
L 171.596998 183.491632 
L 171.82031 182.895616 
L 172.043622 188.489631 
L 172.490245 194.071215 
L 172.713557 194.071215 
L 172.936868 187.893615 
L 173.16018 194.071215 
L 173.383492 191.274207 
L 173.606803 191.274207 
L 174.053427 176.213631 
L 174.276738 182.312031 
L 174.50005 172.820607 
L 174.723362 181.795215 
L 174.946673 178.998207 
L 175.169985 178.998207 
L 175.393297 194.071215 
L 176.063232 176.213631 
L 176.286543 182.312031 
L 176.509855 173.416623 
L 176.733167 182.312031 
L 176.956478 182.312031 
L 177.17979 182.895616 
L 177.626413 177.314032 
L 177.849725 186.288639 
L 178.073037 182.895616 
L 178.296348 182.895616 
L 178.51966 191.274207 
L 178.742971 185.096607 
L 178.966283 190.678191 
L 179.189595 187.376799 
L 179.412906 187.376799 
L 179.636218 172.303791 
L 179.85953 178.402191 
L 180.082841 169.519215 
L 180.306153 169.519215 
L 180.529465 150.469599 
L 180.752776 159.948591 
L 180.976088 144.888015 
L 181.1994 154.367007 
L 181.422711 151.582431 
L 181.646023 160.544607 
L 181.869335 145.484031 
L 182.092646 144.888015 
L 182.315958 138.710415 
L 182.53927 144.888015 
L 182.762581 135.913407 
L 182.985893 97.401232 
L 183.209205 102.399231 
L 183.432516 114.158415 
L 183.655828 110.765391 
L 183.87914 110.261006 
L 184.102451 115.84259 
L 184.325763 124.20875 
L 184.549075 145.380158 
L 184.772386 150.961742 
L 184.995698 159.340333 
L 185.21901 178.882093 
L 185.442321 179.478109 
L 185.888944 164.921917 
L 186.112256 170.503501 
L 186.335568 164.405101 
L 186.558879 164.405101 
L 187.005503 149.861341 
L 187.228814 149.861341 
L 187.452126 143.762941 
L 187.898749 149.861341 
L 188.122061 146.547517 
L 188.345373 158.823517 
L 188.568684 149.344525 
L 188.791996 146.547517 
L 189.015308 149.861341 
L 189.238619 149.344525 
L 189.461931 149.344525 
L 189.685243 143.166925 
L 189.908554 146.547517 
L 190.131866 136.989325 
L 190.355178 139.773901 
L 190.578489 154.926109 
L 190.801801 148.748509 
L 191.025113 145.951501 
L 191.918359 171.683292 
L 192.141671 166.089277 
L 192.364982 172.187677 
L 192.588294 169.4031 
L 192.811606 163.3047 
L 193.034917 162.708684 
L 193.258229 162.708684 
L 193.481541 168.290268 
L 193.704852 176.66886 
L 193.928164 167.694252 
L 194.151476 163.796844 
L 194.374787 163.796844 
L 194.598099 172.175435 
L 194.821411 165.997835 
L 195.044722 169.378428 
L 195.268034 165.997835 
L 195.714657 192.313211 
L 195.937969 186.135611 
L 196.161281 190.033019 
L 196.384592 180.554027 
L 197.054527 203.993195 
L 197.277839 200.095786 
L 197.724462 206.273386 
L 197.947774 194.514202 
L 198.171086 200.691802 
L 198.394397 200.095786 
L 198.617709 206.273386 
L 199.064332 193.918186 
L 199.287644 202.880363 
L 199.510955 179.441195 
L 199.957579 185.539595 
L 200.18089 185.022779 
L 200.404202 185.539595 
L 200.627514 182.238202 
L 200.850825 185.539595 
L 201.074137 170.466587 
L 201.297449 176.644187 
L 201.52076 173.859611 
L 201.744072 164.885003 
L 202.190695 176.644187 
L 202.414007 173.859611 
L 202.637319 152.012987 
L 202.86063 167.085995 
L 203.083942 167.085995 
L 203.307254 163.784602 
L 203.530565 167.085995 
L 203.753877 173.263595 
L 203.977189 164.288987 
L 204.2005 179.441195 
L 204.647124 191.121179 
L 204.870435 188.336602 
L 205.093747 182.238202 
L 205.317059 182.742587 
L 205.986993 173.859611 
L 206.210305 173.859611 
L 206.656928 186.135611 
L 207.103552 201.792203 
L 207.326863 201.792203 
L 207.550175 205.185227 
L 207.773487 201.792203 
L 208.22011 192.313211 
L 208.443422 201.196187 
L 208.666733 198.411611 
L 209.113357 198.411611 
L 209.336668 204.589211 
L 209.55998 201.792203 
L 209.783292 184.451435 
L 210.006603 178.353035 
L 210.453227 184.451435 
L 210.676538 199.591212 
L 211.123162 190.629035 
L 211.346473 190.629035 
L 211.569785 193.413612 
L 211.793097 199.591212 
L 212.016408 187.236012 
L 212.23972 187.236012 
L 212.463032 181.137612 
L 213.132966 181.137612 
L 213.356278 178.353035 
L 213.802901 178.353035 
L 214.026213 172.175435 
L 214.249525 178.353035 
L 214.472836 181.137612 
L 214.696148 178.353035 
L 214.91946 184.451435 
L 215.142771 178.353035 
L 215.589395 178.353035 
L 215.812706 181.137612 
L 216.036018 181.137612 
L 216.482641 192.830027 
L 216.705953 195.614603 
L 216.929265 207.969803 
L 217.152576 201.792203 
L 217.375888 199.007627 
L 217.5992 216.348395 
L 217.822511 221.333963 
L 218.045823 221.333963 
L 218.269135 215.156363 
L 218.492446 212.371786 
L 218.715758 200.691802 
L 218.93907 202.880363 
L 219.162381 200.691802 
L 219.385693 206.790202 
L 219.609005 206.790202 
L 219.832316 204.589211 
L 220.055628 210.766811 
L 220.278939 228.624395 
L 220.502251 216.865211 
L 220.725563 213.551387 
L 220.948874 226.344203 
L 221.172186 220.245803 
L 221.395498 226.344203 
L 221.618809 226.344203 
L 221.842121 229.141211 
L 222.065433 214.068203 
L 222.288744 223.042811 
L 222.512056 225.827387 
L 222.735368 216.865211 
L 222.958679 223.042811 
L 223.181991 223.042811 
L 223.405303 235.318811 
L 223.628614 234.722795 
L 223.851926 225.243802 
L 224.075238 225.827387 
L 224.298549 214.068203 
L 224.521861 217.461227 
L 224.968484 217.461227 
L 225.415108 207.969803 
L 225.638419 204.589211 
L 225.861731 207.969803 
L 226.085043 207.969803 
L 226.308354 213.551387 
L 226.531666 213.551387 
L 226.754977 210.170795 
L 227.424912 219.145402 
L 227.648224 219.145402 
L 227.871536 209.574779 
L 228.094847 206.790202 
L 228.318159 209.574779 
L 228.541471 206.790202 
L 228.764782 210.170795 
L 228.988094 207.373787 
L 229.211406 210.766811 
L 229.658029 201.196187 
L 229.881341 201.196187 
L 230.104652 191.717195 
L 230.327964 188.336602 
L 230.551276 194.514202 
L 230.774587 188.336602 
L 230.997899 185.539595 
L 231.221211 185.539595 
L 231.444522 182.238202 
L 231.667834 185.539595 
L 231.891146 185.539595 
L 232.114457 188.920187 
L 232.784392 188.920187 
L 233.007704 191.717195 
L 233.231016 191.717195 
L 233.454327 191.121179 
L 233.677639 203.476379 
L 233.90095 200.691802 
L 234.124262 203.476379 
L 234.347574 211.85497 
L 234.570885 225.815146 
L 234.794197 213.459946 
L 235.017509 211.258954 
L 235.24082 222.422122 
L 235.464132 220.233562 
L 235.687444 216.840538 
L 235.910755 223.018138 
L 236.134067 214.651978 
L 236.357379 214.651978 
L 236.58069 211.85497 
L 236.804002 215.156363 
L 237.027314 209.057963 
L 237.250625 209.574779 
L 237.473937 224.726986 
L 237.697249 224.726986 
L 237.92056 234.205979 
L 238.143872 225.243802 
L 238.367184 224.726986 
L 238.590495 230.825386 
L 239.037119 200.095786 
L 239.26043 212.371786 
L 239.483742 209.057963 
L 239.930365 209.057963 
L 240.153677 202.880363 
L 240.376988 209.057963 
L 240.6003 209.057963 
L 240.823612 212.371786 
L 241.046923 206.273386 
L 241.270235 206.273386 
L 241.493547 209.057963 
L 241.716858 209.057963 
L 241.94017 202.880363 
L 242.163482 205.67737 
L 242.386793 200.095786 
L 242.610105 202.880363 
L 242.833417 191.121179 
L 243.056728 191.121179 
L 243.28004 196.702763 
L 243.503352 196.702763 
L 243.726663 190.604363 
L 244.173287 202.880363 
L 244.396598 200.095786 
L 244.61991 206.273386 
L 244.843222 203.476379 
L 245.066533 209.057963 
L 245.513157 209.057963 
L 245.736468 199.49977 
L 245.95978 208.474378 
L 246.183092 208.474378 
L 246.406403 205.67737 
L 246.629715 193.40137 
L 246.853027 196.198378 
L 247.29965 190.020778 
L 247.522961 192.805354 
L 247.746273 192.805354 
L 247.969585 201.779962 
L 248.416208 195.602362 
L 248.63952 201.779962 
L 248.862831 204.564538 
L 249.086143 215.740137 
L 249.532766 221.838537 
L 249.756078 227.420121 
L 249.97939 229.104296 
L 250.202701 222.926696 
L 250.426013 220.129689 
L 250.649325 211.246712 
L 250.872636 220.129689 
L 251.095948 220.129689 
L 251.31926 226.307289 
L 251.542571 220.129689 
L 251.989195 226.307289 
L 252.212506 220.725705 
L 252.435818 217.928697 
L 252.65913 224.106297 
L 253.105753 229.700312 
L 253.329065 229.700312 
L 253.552376 220.129689 
L 253.775688 223.522712 
L 253.998999 217.345112 
L 254.222311 229.700312 
L 254.445623 217.928697 
L 254.668934 220.725705 
L 254.892246 215.144121 
L 255.115558 220.725705 
L 255.338869 220.725705 
L 255.562181 217.928697 
L 255.785493 217.928697 
L 256.008804 214.548105 
L 256.232116 221.321721 
L 256.455428 224.106297 
L 256.678739 224.106297 
L 256.902051 227.420121 
L 257.125363 239.179305 
L 257.348674 233.001705 
L 257.571986 241.976312 
L 257.795298 241.976312 
L 258.018609 235.798712 
L 258.241921 241.380296 
L 258.465233 238.583289 
L 258.688544 244.760889 
L 258.911856 241.380296 
L 259.135168 235.281896 
L 259.581791 240.86348 
L 259.805103 237.482888 
L 260.251726 246.445064 
L 260.475038 234.68588 
L 260.921661 240.267464 
L 261.144972 237.482888 
L 261.368284 243.660488 
L 261.591596 234.68588 
L 261.814907 237.482888 
L 262.038219 234.68588 
L 262.261531 243.660488 
L 262.484842 247.557896 
L 262.708154 253.735496 
L 262.931466 253.13948 
L 263.154777 244.164873 
L 263.601401 250.342473 
L 263.824712 241.380296 
L 264.048024 253.13948 
L 264.494647 232.484889 
L 264.717959 229.104296 
L 264.941271 232.484889 
L 265.164582 226.307289 
L 265.611206 226.307289 
L 266.057829 220.725705 
L 266.504452 201.755289 
L 266.727764 192.197096 
L 266.951076 189.400089 
L 267.174387 197.261864 
L 267.397699 186.098696 
L 267.621011 182.122088 
L 267.844322 182.705673 
L 268.290945 170.946489 
L 268.514257 174.339512 
L 268.737569 183.818505 
L 268.96088 172.655337 
L 269.184192 152.000746 
L 269.407504 173.238922 
L 269.630815 175.439913 
L 269.854127 175.439913 
L 270.077439 189.996105 
L 270.30075 192.793112 
L 270.524062 186.098696 
L 270.747374 191.68028 
L 270.970685 208.437463 
L 271.193997 211.738856 
L 271.64062 229.67564 
L 271.863932 221.297048 
L 272.087244 220.713463 
L 272.310555 220.713463 
L 272.533867 217.916456 
L 272.757179 220.713463 
L 272.98049 220.713463 
L 273.203802 217.916456 
L 273.427114 211.738856 
L 273.650425 214.535863 
L 273.873737 229.079624 
L 274.097049 223.49804 
L 274.543672 229.67564 
L 274.766983 229.67564 
L 275.213607 214.535863 
L 275.66023 232.472647 
L 275.883542 220.713463 
L 276.106853 238.054231 
L 276.330165 231.876631 
L 276.776788 239.167063 
L 277.0001 245.265463 
L 277.223412 236.370056 
L 277.446723 236.370056 
L 277.670035 233.573048 
L 277.893347 224.094056 
L 278.116658 238.571047 
L 278.33997 232.989463 
L 278.563282 232.989463 
L 278.786593 235.77404 
L 279.009905 235.77404 
L 279.233217 226.295047 
L 279.456528 223.49804 
L 279.67984 229.67564 
L 279.903152 229.67564 
L 280.349775 211.22204 
L 280.573087 214.535863 
L 280.796398 208.437463 
L 281.01971 208.941848 
L 281.243022 211.738856 
L 281.466333 211.738856 
L 281.689645 212.930888 
L 281.912956 215.715464 
L 282.136268 192.793112 
L 282.806203 219.029288 
L 283.029515 207.853689 
L 283.252826 207.853689 
L 283.476138 198.970712 
L 283.69945 207.336873 
L 283.922761 201.159273 
L 284.146073 203.360264 
L 284.592696 209.537864 
L 284.816008 215.715464 
L 285.03932 212.930888 
L 285.262631 206.753288 
L 285.485943 218.512472 
L 285.709255 217.916456 
L 285.932566 232.472647 
L 286.155878 235.77404 
L 286.37919 220.713463 
L 286.602501 224.094056 
L 286.825813 224.094056 
L 287.272436 217.916456 
L 287.495748 214.019047 
L 287.71906 222.902024 
L 288.165683 211.22204 
L 288.388994 214.535863 
L 288.612306 211.22204 
L 288.835618 220.713463 
L 289.058929 223.49804 
L 289.282241 217.32044 
L 289.505553 207.841447 
L 289.728864 211.22204 
L 289.952176 205.640456 
L 290.175488 208.437463 
L 290.398799 214.535863 
L 290.845423 220.117447 
L 291.068734 205.04444 
L 291.292046 211.22204 
L 291.515358 211.22204 
L 291.738669 197.261864 
L 291.961981 194.477288 
L 292.185293 185.50268 
L 292.408604 200.575688 
L 292.631916 206.753288 
L 292.855228 203.95628 
L 293.078539 203.95628 
L 293.301851 201.159273 
L 293.525163 209.537864 
L 293.748474 209.537864 
L 293.971786 212.334872 
L 294.641721 203.360264 
L 294.865033 203.360264 
L 295.088344 209.537864 
L 295.311656 212.334872 
L 295.534967 203.360264 
L 295.758279 209.537864 
L 295.981591 203.360264 
L 296.204902 212.334872 
L 296.428214 212.334872 
L 296.651526 209.537864 
L 296.874837 203.360264 
L 297.098149 203.360264 
L 297.544772 209.537864 
L 297.991396 203.360264 
L 298.214707 203.360264 
L 298.438019 209.537864 
L 298.884642 194.981673 
L 299.107954 194.981673 
L 299.331266 203.95628 
L 299.554577 207.336873 
L 299.777889 207.336873 
L 300.001201 204.552296 
L 300.224512 195.577689 
L 300.447824 213.435273 
L 300.671136 183.326362 
L 300.894447 195.006346 
L 301.117759 183.326362 
L 301.341071 186.110938 
L 301.564382 201.183946 
L 301.787694 197.790922 
L 302.011006 200.071113 
L 302.234317 197.286537 
L 302.457629 188.311929 
L 302.68094 197.790922 
L 302.904252 188.907946 
L 303.127564 197.790922 
L 303.350875 197.790922 
L 303.574187 188.907946 
L 303.797499 185.514922 
L 304.02081 185.514922 
L 304.244122 188.311929 
L 304.467434 182.730346 
L 304.690745 188.311929 
L 304.914057 188.311929 
L 305.36068 182.213529 
L 305.583992 185.010537 
L 305.807304 185.010537 
L 306.030615 191.108937 
L 306.253927 191.108937 
L 306.70055 197.286537 
L 306.923862 194.489529 
L 307.147174 194.489529 
L 307.370485 206.765529 
L 307.593797 200.587929 
L 307.817109 200.071113 
L 308.263732 223.522712 
L 308.487044 223.522712 
L 308.710355 211.751097 
L 308.933667 208.966521 
L 309.156978 212.347113 
L 309.38029 208.966521 
L 309.603602 217.928697 
L 309.826913 217.928697 
L 310.050225 221.321721 
L 310.273537 212.347113 
L 310.496848 224.106297 
L 310.72016 220.725705 
L 310.943472 222.926696 
L 311.166783 222.926696 
L 311.390095 214.031289 
L 311.613407 222.926696 
L 311.836718 219.612873 
L 312.06003 222.40988 
L 312.506653 222.40988 
L 312.953277 227.991464 
L 313.176588 234.089864 
L 313.3999 236.886872 
L 313.623212 241.95164 
L 313.846523 230.192456 
L 314.069835 233.573048 
L 314.293147 232.989463 
L 314.516458 235.77404 
L 314.73977 232.472647 
L 314.963082 239.167063 
L 315.409705 233.573048 
L 315.633017 242.468456 
L 315.856328 241.95164 
L 316.07964 239.167063 
L 316.526263 227.395448 
L 317.196198 241.95164 
L 317.41951 238.571047 
L 317.642821 250.330231 
L 317.866133 255.911815 
L 318.089445 246.949639 
L 318.312756 249.734215 
L 318.536068 263.694391 
L 318.982691 248.037798 
L 319.206003 251.418391 
L 319.429315 248.037798 
L 319.875938 236.345383 
L 320.09925 242.443783 
L 320.322561 230.167783 
L 320.769185 230.167783 
L 320.992496 236.345383 
L 321.215808 239.142391 
L 321.43912 233.560807 
L 322.109055 241.343382 
L 322.332366 235.165782 
L 322.555678 238.546375 
L 322.778989 229.067382 
L 323.002301 229.584198 
L 323.225613 229.584198 
L 323.448924 223.485798 
L 323.672236 229.067382 
L 323.895548 222.889782 
L 324.118859 220.092775 
L 324.342171 200.538774 
L 324.565483 200.538774 
L 324.788794 203.32335 
L 325.012106 203.840166 
L 325.235418 197.741766 
L 325.458729 188.262774 
L 325.682041 188.262774 
L 325.905353 194.361174 
L 326.128664 191.564166 
L 326.351976 191.564166 
L 326.575288 188.767159 
L 326.798599 197.741766 
L 327.245223 191.04735 
L 327.468534 191.04735 
L 327.915158 206.637174 
L 328.138469 209.42175 
L 328.361781 203.32335 
L 328.585093 209.42175 
L 328.808404 206.637174 
L 329.031716 212.814774 
L 329.255028 203.32335 
L 329.478339 208.904934 
L 329.701651 199.942758 
L 329.924962 181.489158 
L 330.148274 175.390758 
L 330.371586 196.628934 
L 330.594897 193.248342 
L 330.818209 198.233909 
L 331.041521 188.754917 
L 331.264832 200.514101 
L 331.488144 218.967701 
L 331.711456 222.281525 
L 331.934767 242.406869 
L 332.158079 242.406869 
L 332.381391 236.825285 
L 332.604702 242.406869 
L 332.828014 253.582468 
L 333.051326 239.026276 
L 333.274637 236.825285 
L 333.497949 236.229269 
L 333.721261 234.040709 
L 333.944572 234.040709 
L 334.167884 231.243701 
L 334.391196 246.912725 
L 334.837819 259.188725 
L 335.061131 259.772309 
L 335.284442 282.135749 
L 335.954377 257.504549 
L 336.177689 256.987733 
L 336.401001 269.263733 
L 336.624312 251.406149 
L 336.847624 263.682149 
L 337.070935 244.632533 
L 337.294247 250.810133 
L 337.517559 250.810133 
L 337.964182 256.391717 
L 338.187494 265.870709 
L 338.410805 256.987733 
L 338.634117 259.772309 
L 338.857429 250.810133 
L 339.08074 250.810133 
L 339.304052 241.318709 
L 339.527364 237.938117 
L 339.750675 244.115717 
L 339.973987 235.141109 
L 340.197299 247.417109 
L 340.42061 241.318709 
L 340.643922 241.318709 
L 340.867234 259.772309 
L 341.090545 248.013126 
L 341.313857 248.013126 
L 341.537169 250.810133 
L 341.76048 263.682149 
L 341.983792 240.23055 
L 342.207104 229.067382 
L 342.430415 227.87535 
L 342.653727 228.471366 
L 342.877039 231.268374 
L 343.10035 237.445974 
L 343.323662 237.445974 
L 343.546973 234.05295 
L 343.993597 243.027558 
L 344.216908 243.027558 
L 344.44022 240.23055 
L 344.663532 227.358534 
L 344.886843 227.87535 
L 345.110155 233.456934 
L 345.333467 218.396358 
L 345.78009 243.544374 
L 346.226713 237.950359 
L 346.450025 240.747366 
L 346.673337 250.305559 
L 346.896648 246.924966 
L 347.11996 237.950359 
L 347.566583 237.950359 
L 347.789895 241.343382 
L 348.013207 237.950359 
L 348.236518 232.368775 
L 348.45983 223.990183 
L 348.683142 209.525623 
L 348.906453 206.728615 
L 349.129765 206.728615 
L 349.353077 218.408599 
L 349.7997 187.678999 
L 350.023012 193.260583 
L 350.246323 177.603991 
L 350.469635 180.400998 
L 350.692946 177.087175 
L 351.586193 228.459125 
L 351.809505 220.080533 
L 352.032816 221.764709 
L 352.256128 218.371685 
L 352.47944 223.953269 
L 352.702751 223.369684 
L 352.926063 238.50946 
L 353.149375 217.775669 
L 353.372686 224.549285 
L 353.595998 214.991092 
L 353.81931 221.168692 
L 354.042621 221.764709 
L 354.265933 218.967701 
L 354.489245 230.647685 
L 354.935868 214.498949 
L 355.15918 216.687509 
L 355.382491 213.902933 
L 355.605803 202.727334 
L 355.829115 205.524342 
L 356.052426 211.105926 
L 356.275738 202.222949 
L 356.49905 208.321349 
L 356.722361 208.321349 
L 356.945673 205.007526 
L 357.168984 207.804533 
L 357.392296 205.007526 
L 357.615608 207.804533 
L 357.838919 208.321349 
L 358.062231 206.120358 
L 358.285543 206.120358 
L 358.732166 201.043159 
L 358.955478 200.538774 
L 359.178789 200.538774 
L 359.402101 213.398359 
L 359.625413 213.398359 
L 359.848724 213.915175 
L 360.072036 222.889782 
L 360.295348 210.613782 
L 360.518659 210.613782 
L 360.741971 196.653607 
L 360.965283 208.333591 
L 361.411906 208.333591 
L 361.635218 195.461575 
L 362.305153 213.398359 
L 362.528464 204.436182 
L 362.751776 210.613782 
L 362.975088 210.017766 
L 363.198399 201.043159 
L 363.645023 206.637174 
L 363.868334 221.180934 
L 364.091646 206.120358 
L 364.314957 206.120358 
L 364.538269 208.321349 
L 364.761581 208.904934 
L 365.431516 199.425942 
L 365.878139 205.524342 
L 366.101451 202.727334 
L 366.324762 197.14575 
L 366.548074 197.14575 
L 366.771386 200.538774 
L 366.994697 197.741766 
L 367.218009 206.637174 
L 367.441321 201.043159 
L 367.664632 203.840166 
L 367.887944 203.840166 
L 368.111256 200.538774 
L 368.334567 200.538774 
L 368.781191 212.814774 
L 369.004502 209.42175 
L 369.227814 212.218758 
L 369.451126 211.701942 
L 369.897749 211.701942 
L 370.121061 208.904934 
L 370.344372 199.425942 
L 370.567684 198.829926 
L 370.790995 192.652326 
L 371.014307 202.222949 
L 371.237619 196.045349 
L 371.46093 205.007526 
L 371.684242 201.626933 
L 371.907554 205.007526 
L 372.354177 192.652326 
L 372.577489 210.589109 
L 372.8008 215.587109 
L 373.024112 230.647685 
L 373.247424 230.647685 
L 373.694047 215.587109 
L 373.917359 221.764709 
L 374.14067 218.371685 
L 374.363982 223.953269 
L 374.810605 209.409509 
L 375.033917 218.967701 
L 375.257229 240.139109 
L 375.48054 241.318709 
L 375.703852 233.456934 
L 375.927164 239.634534 
L 376.150475 236.253942 
L 376.373787 252.50655 
L 376.597099 240.23055 
L 376.82041 249.125958 
L 377.043722 249.125958 
L 377.490345 239.050949 
L 377.713657 251.406149 
L 377.936968 236.253942 
L 378.16028 233.456934 
L 378.383592 234.05295 
L 378.606903 220.688791 
L 378.830215 219.496759 
L 379.053527 220.092775 
L 379.276838 222.889782 
L 379.50015 216.712182 
L 379.723462 205.032198 
L 379.946773 205.536583 
L 380.616708 213.915175 
L 380.84002 222.889782 
L 381.063332 222.293766 
L 381.286643 220.092775 
L 381.509955 207.816775 
L 381.733267 208.333591 
L 381.956578 214.511191 
L 382.17989 214.511191 
L 382.403202 219.496759 
L 382.626513 218.992374 
L 382.849825 228.471366 
L 383.073137 225.090774 
L 383.296448 225.090774 
L 383.51976 231.268374 
L 383.743072 225.674359 
L 384.189695 207.816775 
L 384.413007 219.496759 
L 384.85963 205.032198 
L 385.306253 231.268374 
L 385.529565 240.23055 
L 385.752876 236.849958 
L 385.976188 221.77695 
L 386.1995 233.456934 
L 386.422811 223.977942 
L 387.316058 260.860469 
L 387.53937 283.716052 
L 387.985993 305.538003 
L 388.209305 290.981811 
L 388.432616 288.197235 
L 388.655928 277.617652 
L 388.87924 279.818643 
L 389.102551 280.414659 
L 389.325863 274.237059 
L 389.549175 280.414659 
L 389.772486 280.414659 
L 389.995798 280.919044 
L 390.21911 277.617652 
L 390.442421 277.617652 
L 390.665733 292.094643 
L 390.889045 283.199236 
L 391.112356 292.094643 
L 391.335668 287.096644 
L 391.558979 316.701171 
L 391.782291 322.799571 
L 392.005603 336.24293 
L 392.228914 336.759746 
L 392.452226 328.381155 
L 392.675538 339.556754 
L 392.898849 336.24293 
L 393.122161 339.039938 
L 393.345473 348.51893 
L 393.568784 341.836945 
L 393.792096 347.418529 
L 394.015408 350.203106 
L 394.462031 294.866978 
L 394.685343 297.651555 
L 395.131966 283.186994 
L 395.578589 292.069971 
L 395.801901 292.069971 
L 396.025213 292.665987 
L 396.471836 277.60541 
L 396.695148 283.70381 
L 397.141771 289.285394 
L 397.365083 292.069971 
L 397.588394 280.906803 
L 397.811706 263.645235 
L 398.035018 278.109795 
L 398.258329 272.011395 
L 398.481641 269.226819 
L 399.151576 287.601219 
L 399.374887 279.818643 
L 399.598199 288.78082 
L 399.821511 290.981811 
L 400.268134 273.641043 
L 400.491446 282.60322 
L 400.714757 282.60322 
L 400.938069 288.78082 
L 401.161381 289.297636 
L 401.384692 295.475236 
L 401.608004 277.617652 
L 401.831316 292.094643 
L 402.054627 292.094643 
L 402.277939 288.78082 
L 402.501251 292.094643 
L 402.724562 283.199236 
L 402.947874 294.87922 
L 403.171186 300.473235 
L 403.394497 303.257811 
L 403.841121 297.159411 
L 404.064432 297.676227 
L 404.287744 291.577827 
L 404.511056 288.78082 
L 404.734367 292.094643 
L 404.957679 285.400227 
L 405.18099 282.60322 
L 405.404302 294.374835 
L 405.850925 282.019635 
L 406.074237 282.019635 
L 406.297549 291.577827 
L 406.744172 273.641043 
L 407.190795 279.818643 
L 407.86073 252.494309 
L 408.084042 255.278885 
L 408.307354 263.06146 
L 409.2006 275.33746 
L 409.647224 265.858468 
L 409.870535 277.617652 
L 410.093847 280.414659 
L 410.317159 277.617652 
L 410.54047 265.262452 
L 410.763782 265.262452 
L 410.987094 265.858468 
L 411.210405 262.465444 
L 411.433717 262.465444 
L 411.657029 271.440052 
L 411.88034 265.262452 
L 412.103652 271.440052 
L 412.326963 271.440052 
L 412.550275 266.454484 
L 412.773587 274.820644 
L 412.996898 277.021636 
L 413.22021 282.60322 
L 413.443522 273.641043 
L 413.666833 270.844036 
L 413.890145 264.745636 
L 414.113457 267.542643 
L 414.336768 264.745636 
L 414.56008 277.021636 
L 414.783392 256.367044 
L 415.006703 271.440052 
L 415.230015 273.641043 
L 415.676638 283.199236 
L 415.89995 277.617652 
L 416.123262 266.454484 
L 416.346573 266.454484 
L 416.569885 275.933476 
L 416.793197 278.134468 
L 417.016508 277.021636 
L 417.23982 277.617652 
L 417.463132 283.716052 
L 417.686443 278.134468 
L 417.909755 265.858468 
L 418.133067 265.858468 
L 418.356378 272.036068 
L 418.803002 265.858468 
L 419.026313 272.036068 
L 419.249625 269.23906 
L 419.472936 260.276884 
L 419.696248 266.454484 
L 419.91956 221.180934 
L 420.142871 227.358534 
L 420.589495 205.536583 
L 420.812806 207.816775 
L 421.036118 216.712182 
L 421.25943 208.929607 
L 421.706053 228.471366 
L 421.929365 210.613782 
L 422.152676 213.398359 
L 422.375988 221.77695 
L 422.5993 219.496759 
L 422.822611 219.496759 
L 423.045923 222.293766 
L 423.492546 216.195366 
L 423.715858 201.639175 
L 423.93917 204.436182 
L 424.162481 204.436182 
L 424.385793 210.017766 
L 424.609105 207.220759 
L 424.832416 201.043159 
L 425.055728 198.258582 
L 425.27904 198.854598 
L 425.725663 191.072023 
L 425.948974 191.072023 
L 426.172286 202.235191 
L 426.395598 193.260583 
L 426.618909 196.057591 
L 426.842221 190.476007 
L 427.065533 188.275015 
L 427.288844 206.132599 
L 427.735468 181.009256 
L 427.958779 191.588839 
L 428.182091 194.969431 
L 428.405403 182.693431 
L 428.628714 188.791831 
L 428.852026 182.693431 
L 429.075338 185.490439 
L 429.298649 191.588839 
L 429.521961 188.275015 
L 429.745273 179.896424 
L 429.968584 182.693431 
L 430.191896 182.693431 
L 430.415208 177.111847 
L 430.638519 191.588839 
L 431.085143 174.31484 
L 431.308454 171.530263 
L 431.755078 147.999464 
L 431.978389 168.13724 
L 432.201701 153.581048 
L 432.425013 159.175063 
L 432.648324 145.214888 
L 432.871636 139.620873 
L 433.094947 142.41788 
L 433.318259 142.41788 
L 433.541571 135.723464 
L 433.988194 142.41788 
L 434.211506 127.940889 
L 434.434817 124.560296 
L 434.658129 139.116488 
L 434.881441 133.522473 
L 435.104752 133.522473 
L 435.328064 138.520472 
L 435.774687 158.074473 
L 435.997999 158.074473 
L 436.444622 153.088905 
L 436.667934 164.848089 
L 436.891246 164.848089 
L 437.114557 167.645096 
L 437.561181 167.645096 
L 437.784492 163.668488 
L 438.007804 169.846088 
L 438.231116 169.846088 
L 438.454427 154.77308 
L 438.677739 151.976073 
L 438.901051 163.668488 
L 439.124362 167.04908 
L 439.347674 160.87148 
L 439.570985 163.668488 
L 439.794297 160.87148 
L 440.017609 151.976073 
L 440.24092 148.59548 
L 440.464232 151.392488 
L 440.687544 151.392488 
L 440.910855 159.758648 
L 441.134167 150.796472 
L 441.357479 153.581048 
L 441.58079 150.796472 
L 441.804102 136.31948 
L 442.027414 145.798473 
L 442.250725 136.836296 
L 442.474037 134.039289 
L 442.697349 125.660697 
L 442.92066 136.836296 
L 443.143972 125.660697 
L 443.367284 137.432312 
L 443.590595 134.039289 
L 443.813907 148.59548 
L 444.037219 145.214888 
L 444.26053 139.620873 
L 444.707154 134.635305 
L 444.930465 134.635305 
L 445.153777 131.254712 
L 445.377089 138.015897 
L 445.823712 92.754779 
L 446.047024 96.147802 
L 446.270335 76.593612 
L 446.493647 87.769211 
L 446.716958 78.794603 
L 446.94027 98.932379 
L 447.163582 92.754779 
L 447.386893 92.754779 
L 447.610205 95.551786 
L 447.833517 78.198587 
L 448.056828 75.414011 
L 448.28014 75.414011 
L 448.503452 84.376187 
L 448.726763 78.198587 
L 449.173387 84.376187 
L 449.396698 90.553787 
L 449.62001 87.769211 
L 449.843322 87.173195 
L 450.066633 89.970202 
L 450.289945 81.591611 
L 450.736568 92.754779 
L 451.183192 92.754779 
L 451.406503 107.827786 
L 451.629815 107.827786 
L 451.853127 116.789963 
L 452.29975 101.729386 
L 452.523062 105.030779 
L 452.969685 89.970202 
L 453.192996 93.350795 
L 453.416308 91.070603 
L 453.63962 85.489019 
L 453.862931 84.972203 
L 454.309555 91.070603 
L 454.532866 107.827786 
L 454.756178 99.449195 
L 454.97949 105.030779 
L 455.202801 107.827786 
L 455.649425 118.990954 
L 455.872736 110.107978 
L 456.096048 110.107978 
L 456.31936 101.13337 
L 456.542671 107.31097 
L 456.989295 107.31097 
L 457.435918 101.13337 
L 457.65923 101.13337 
L 457.882541 103.930378 
L 458.105853 112.892554 
L 458.552476 101.13337 
L 458.775788 101.13337 
L 459.222411 113.40937 
L 459.445723 113.40937 
L 460.115658 103.930378 
L 460.338969 104.513963 
L 460.562281 107.31097 
L 460.785593 107.31097 
L 461.008904 104.513963 
L 461.678839 104.513963 
L 462.125463 96.652187 
L 462.348774 99.449195 
L 462.572086 93.867611 
L 462.795398 102.829787 
L 463.018709 96.652187 
L 463.242021 105.030779 
L 463.911956 87.173195 
L 464.135268 93.350795 
L 464.358579 93.350795 
L 464.581891 99.449195 
L 464.805203 96.147802 
L 465.028514 101.729386 
L 465.251826 98.932379 
L 465.475138 98.932379 
L 465.698449 105.030779 
L 465.921761 107.827786 
L 466.145073 101.729386 
L 466.368384 104.513963 
L 466.591696 113.40937 
L 466.815008 105.030779 
L 467.038319 110.612363 
L 467.484942 104.513963 
L 467.931566 104.513963 
L 468.154877 101.729386 
L 468.378189 139.620873 
L 468.601501 139.620873 
L 468.824812 151.392488 
L 469.048124 145.214888 
L 469.271436 127.940889 
L 469.494747 130.737896 
L 469.718059 118.978712 
L 469.941371 127.940889 
L 470.164682 121.246473 
L 470.387994 126.840488 
L 470.611306 129.625064 
L 470.834617 141.901064 
L 471.057929 141.305048 
L 471.281241 144.698072 
L 471.504552 140.800663 
L 471.727864 141.305048 
L 471.951176 135.206648 
L 472.174487 135.206648 
L 472.397799 132.422072 
L 472.621111 141.305048 
L 472.844422 140.800663 
L 473.291046 135.206648 
L 473.514357 141.305048 
L 473.737669 138.520472 
L 474.184292 144.698072 
L 474.407604 141.305048 
L 474.630915 129.029048 
L 475.077539 121.751047 
L 475.30085 127.928647 
L 475.524162 127.928647 
L 475.747474 134.027047 
L 475.970785 133.510231 
L 476.194097 121.751047 
L 476.417409 130.713224 
L 476.64072 131.23004 
L 476.864032 125.13164 
L 477.087344 125.648456 
L 477.310655 134.623063 
L 477.533967 149.68364 
L 477.757279 134.623063 
L 477.98059 152.480647 
L 478.203902 134.623063 
L 478.427214 143.58524 
L 478.650525 140.204647 
L 479.097149 151.963831 
L 479.543772 134.027047 
L 479.767084 140.204647 
L 479.990395 137.40764 
L 480.213707 132.422072 
L 480.437019 134.623063 
L 480.66033 131.826056 
L 480.883642 134.623063 
L 481.106953 140.204647 
L 481.330265 149.166824 
L 481.553577 142.989224 
L 481.776888 152.480647 
L 482.223512 145.786231 
L 482.446823 148.583239 
L 482.670135 142.405639 
L 482.893447 142.989224 
L 483.116758 136.811624 
L 483.34007 140.204647 
L 483.563382 149.166824 
L 484.010005 139.608631 
L 484.233317 139.091815 
L 484.456628 141.888823 
L 484.67994 141.888823 
L 484.903252 144.077383 
L 485.126563 147.470407 
L 485.349875 156.353383 
L 485.573187 159.746407 
L 485.796498 153.568807 
L 486.01981 150.771799 
L 486.243122 145.786231 
L 486.466433 154.164823 
L 486.689745 151.963831 
L 486.913057 140.204647 
L 487.136368 146.899063 
L 487.35968 146.899063 
L 487.582991 146.382247 
L 487.806303 146.382247 
L 488.252926 134.623063 
L 488.476238 134.623063 
L 488.922861 140.204647 
L 489.146173 134.027047 
L 489.592796 142.989224 
L 489.816108 146.382247 
L 490.03942 128.445463 
L 490.262731 125.648456 
L 490.486043 134.623063 
L 490.709355 131.23004 
L 490.932666 131.23004 
L 491.155978 128.445463 
L 491.37929 118.95404 
L 491.602601 124.535624 
L 491.825913 123.952039 
L 492.049225 130.129639 
L 492.272536 132.914215 
L 492.495848 132.914215 
L 492.71916 123.435223 
L 492.942471 126.736615 
L 493.165783 126.736615 
L 493.389095 132.914215 
L 493.612406 132.914215 
L 493.835718 139.091815 
L 494.05903 132.914215 
L 494.282341 132.914215 
L 494.505653 130.129639 
L 494.728964 144.673399 
L 494.952276 146.278375 
L 495.175588 146.278375 
L 495.398899 149.671398 
L 495.622211 149.671398 
L 495.845523 147.470407 
L 496.068834 144.077383 
L 496.292146 153.051991 
L 496.515458 146.278375 
L 496.738769 151.859959 
L 496.962081 152.455975 
L 497.185393 141.78495 
L 497.408704 156.937158 
L 497.855328 137.887542 
L 498.078639 122.814534 
L 498.301951 131.789142 
L 498.525263 126.207558 
L 498.748574 131.789142 
L 498.971886 122.230949 
L 499.195198 131.193126 
L 499.418509 131.193126 
L 499.641821 131.789142 
L 499.865133 135.090534 
L 500.088444 131.789142 
L 500.311756 126.207558 
L 500.535068 123.41055 
L 500.758379 123.41055 
L 501.205003 117.23295 
L 501.428314 120.029958 
L 501.651626 125.015526 
L 501.874937 125.015526 
L 502.098249 137.370726 
L 502.321561 140.167733 
L 502.544872 133.990133 
L 502.768184 139.571717 
L 502.991496 151.330901 
L 503.214807 142.368725 
L 503.438119 138.975701 
L 503.884742 145.153301 
L 504.331366 138.975701 
L 504.554677 138.975701 
L 504.777989 139.571717 
L 505.001301 130.092725 
L 505.447924 142.368725 
L 505.671236 133.394117 
L 505.894547 133.394117 
L 506.117859 139.571717 
L 506.341171 130.597109 
L 506.564482 138.975701 
L 506.787794 136.191125 
L 507.011106 138.975701 
L 507.234417 147.354292 
L 507.457729 149.634484 
L 508.127664 169.176243 
L 508.350975 158.000644 
L 508.574287 163.594659 
L 508.797599 151.239459 
L 509.02091 148.442452 
L 509.244222 139.547044 
L 509.690845 150.722643 
L 509.914157 145.141059 
L 510.137469 142.344052 
L 510.36078 129.988852 
L 510.807404 129.988852 
L 511.030715 120.509859 
L 511.254027 123.890452 
L 511.477339 114.915844 
L 511.70065 117.712852 
L 511.923962 128.371635 
L 512.147274 128.371635 
L 512.593897 140.051619 
L 512.817209 141.735794 
L 513.04052 138.938787 
L 513.263832 130.560195 
L 513.487144 128.371635 
L 513.710455 133.953219 
L 513.933767 132.269043 
L 514.157079 131.673027 
L 514.38039 140.647635 
L 514.603702 140.647635 
L 514.827014 140.051619 
L 515.273637 115.499619 
L 515.496948 114.903603 
L 515.72026 112.106595 
L 515.943572 96.450003 
L 516.166883 102.627603 
L 516.390195 84.174003 
L 516.613507 77.479587 
L 516.836818 83.577987 
L 517.506753 152.302946 
L 517.730065 135.041378 
L 518.4 164.658146 
L 518.4 164.658146 
" style="fill:none;stroke:#4c72b0;stroke-linecap:round;stroke-width:1.75;"/>
   </g>
   <g id="patch_3">
    <path d="M 72 356.4 
L 518.4 356.4 
" style="fill:none;"/>
   </g>
   <g id="patch_4">
    <path d="M 72 39.6 
L 518.4 39.6 
" style="fill:none;"/>
   </g>
   <g id="patch_5">
    <path d="M 72 356.4 
L 72 39.6 
" style="fill:none;"/>
   </g>
   <g id="patch_6">
    <path d="M 518.4 356.4 
L 518.4 39.6 
" style="fill:none;"/>
   </g>
   <g id="text_15">
    <!-- i - 0.15695889719012038 * OI -->
    <defs>
     <path d="M 9.125 0 
L 9.125 10.6875 
L 18.65625 10.6875 
L 18.65625 0 
z
" id="LiberationSans-2e"/>
     <path d="M 73 34.71875 
Q 73 26.65625 70.671875 20.0625 
Q 68.359375 13.484375 63.96875 8.796875 
Q 59.578125 4.109375 53.21875 1.5625 
Q 46.875 -0.984375 38.8125 -0.984375 
Q 30.328125 -0.984375 23.921875 1.671875 
Q 17.53125 4.34375 13.28125 9.109375 
Q 9.03125 13.875 6.875 20.40625 
Q 4.734375 26.953125 4.734375 34.71875 
Q 4.734375 42.78125 6.984375 49.265625 
Q 9.234375 55.765625 13.578125 60.328125 
Q 17.921875 64.890625 24.296875 67.359375 
Q 30.671875 69.828125 38.921875 69.828125 
Q 47.125 69.828125 53.484375 67.328125 
Q 59.859375 64.84375 64.171875 60.25 
Q 68.5 55.671875 70.75 49.171875 
Q 73 42.671875 73 34.71875 
M 63.484375 34.71875 
Q 63.484375 40.921875 61.890625 46 
Q 60.296875 51.078125 57.203125 54.6875 
Q 54.109375 58.296875 49.515625 60.25 
Q 44.921875 62.203125 38.921875 62.203125 
Q 32.765625 62.203125 28.125 60.25 
Q 23.484375 58.296875 20.375 54.6875 
Q 17.28125 51.078125 15.734375 46 
Q 14.203125 40.921875 14.203125 34.71875 
Q 14.203125 28.515625 15.796875 23.359375 
Q 17.390625 18.21875 20.484375 14.484375 
Q 23.578125 10.75 28.1875 8.671875 
Q 32.8125 6.59375 38.8125 6.59375 
Q 45.265625 6.59375 49.921875 8.6875 
Q 54.59375 10.796875 57.59375 14.53125 
Q 60.59375 18.265625 62.03125 23.4375 
Q 63.484375 28.609375 63.484375 34.71875 
" id="LiberationSans-4f"/>
     <path d="M 9.234375 0 
L 9.234375 68.796875 
L 18.5625 68.796875 
L 18.5625 0 
z
" id="LiberationSans-49"/>
     <path d="M 22.265625 54.390625 
L 35.15625 59.421875 
L 37.359375 52.984375 
L 23.578125 49.421875 
L 32.625 37.203125 
L 26.8125 33.6875 
L 19.484375 46.296875 
L 11.859375 33.796875 
L 6.0625 37.3125 
L 15.28125 49.421875 
L 1.609375 52.984375 
L 3.8125 59.515625 
L 16.84375 54.296875 
L 16.265625 68.796875 
L 22.90625 68.796875 
z
" id="LiberationSans-2a"/>
    </defs>
    <g style="fill:#262626;" transform="translate(214.8075 34.6)scale(0.12 -0.12)">
     <use xlink:href="#LiberationSans-69"/>
     <use x="22.216796875" xlink:href="#LiberationSans-20"/>
     <use x="50.0" xlink:href="#LiberationSans-2d"/>
     <use x="83.30078125" xlink:href="#LiberationSans-20"/>
     <use x="111.083984375" xlink:href="#LiberationSans-30"/>
     <use x="166.69921875" xlink:href="#LiberationSans-2e"/>
     <use x="194.482421875" xlink:href="#LiberationSans-31"/>
     <use x="250.09765625" xlink:href="#LiberationSans-35"/>
     <use x="305.712890625" xlink:href="#LiberationSans-36"/>
     <use x="361.328125" xlink:href="#LiberationSans-39"/>
     <use x="416.943359375" xlink:href="#LiberationSans-35"/>
     <use x="472.55859375" xlink:href="#LiberationSans-38"/>
     <use x="528.173828125" xlink:href="#LiberationSans-38"/>
     <use x="583.7890625" xlink:href="#LiberationSans-39"/>
     <use x="639.404296875" xlink:href="#LiberationSans-37"/>
     <use x="695.01953125" xlink:href="#LiberationSans-31"/>
     <use x="750.634765625" xlink:href="#LiberationSans-39"/>
     <use x="806.25" xlink:href="#LiberationSans-30"/>
     <use x="861.865234375" xlink:href="#LiberationSans-31"/>
     <use x="917.48046875" xlink:href="#LiberationSans-32"/>
     <use x="973.095703125" xlink:href="#LiberationSans-30"/>
     <use x="1028.7109375" xlink:href="#LiberationSans-33"/>
     <use x="1084.326171875" xlink:href="#LiberationSans-38"/>
     <use x="1139.94140625" xlink:href="#LiberationSans-20"/>
     <use x="1167.724609375" xlink:href="#LiberationSans-2a"/>
     <use x="1206.640625" xlink:href="#LiberationSans-20"/>
     <use x="1234.423828125" xlink:href="#LiberationSans-4f"/>
     <use x="1312.20703125" xlink:href="#LiberationSans-49"/>
    </g>
   </g>
  </g>
 </g>
 <defs>
  <clipPath id="pb095fe25fd">
   <rect height="316.8" width="446.4" x="72.0" y="39.6"/>
  </clipPath>
 </defs>
</svg>
